<svg xmlns="http://www.w3.org/2000/svg" width="20" height="75.22" viewBox="0 0 20 75.22"><title>Просмотры</title><path d="M10.24 73.22v1.48c0 .16.08.44.17.46a1 1 0 0 0 .67-.06c1.44-.94 2.85-1.91 4.28-2.87l4.31-2.89c.43-.29.43-.58 0-.89l-3.82-2.56-4.78-3.21c-.19-.13-.42-.22-.59-.09a.77.77 0 0 0-.22.53v2.75c0 .24-.09.31-.32.35-.81.16-1.62.34-2.42.53A13 13 0 0 0 4.45 68a8.93 8.93 0 0 0-3.19 2.73 5.78 5.78 0 0 0-1 2.38c-.09.56-.15 1.12-.22 1.68 0 .18 0 .37.2.44A.53.53 0 0 0 .86 75a5.91 5.91 0 0 1 2.9-2.56 9 9 0 0 1 3-.8l1.57-.11 1.67-.11c.19 0 .25.07.25.25v1.55z" fill="#e0d1c4"/><circle cx="10" cy="5.1" r="1.99" fill="#e0d1c4"/><circle cx="10" cy="5.1" r="3.89" fill="none" stroke="#e0d1c4" stroke-linejoin="round" stroke-width="1.11"/><path d="M2.5 5.11S5.37.55 10 .55c4.45 0 7.5 4.55 7.5 4.55S14.63 9.65 10 9.65c-5 0-7.5-4.54-7.5-4.54z" fill="none" stroke="#e0d1c4" stroke-linejoin="round" stroke-width="1.11"/><path d="M12.81 28.63a4.15 4.15 0 0 0-2.81 1.1 4.15 4.15 0 0 0-2.81-1.11A4.07 4.07 0 0 0 3 32.81c.2 2.53 5.38 7.23 7.31 8.32 1.58-1.45 6.52-6.13 6.69-8.32a4.08 4.08 0 0 0-4.19-4.18z" fill="#e0d1c4"/></svg>