<svg xmlns="http://www.w3.org/2000/svg" width="70" height="70" viewBox="0 0 70 70"><title>уборк-после-ремонта</title><g id="Слой_2" data-name="Слой 2"><g id="Слой_1-2" data-name="Слой 1"><rect width="70" height="70" fill="none"/><path d="M15.49,49.71a2.33,2.33,0,0,0,0,3.29l4.61,4.61a2.33,2.33,0,0,0,3.29,0l4.83-4.83a2.33,2.33,0,0,0,0-3.29L22,43.23Z" fill="none" stroke="#5d3329" stroke-linejoin="round" stroke-width="1.3"/><path d="M56.3,15h0a1.07,1.07,0,0,0-.1-.12l-2.31-1.48a1.55,1.55,0,0,0-2.18.18L22,43.23l6.41,6.39-.07-1.32,1.3-.08-.08-1.28,1.3-.08-.09-1.35L32,45.42l-.08-1.32L33.28,44,33.2,42.7l1.3-.08-.08-1.25,1.28-.08-.09-1.35L37,39.85l-.08-1.3,1.3-.08-.08-1.32,1.32-.09-.08-1.26,1.25-.08-.09-1.35,1.32-.09L41.71,33,43,32.93h0L43,31.62l1.3-.08-.08-1.28,1.3-.08-.09-1.35,1.25-.08-.08-1.32,1.37-.09L47.86,26l1.3-.08-.08-1.25,1.28-.08-.09-1.35,1.34-.09-.08-1.3,1.3-.08-.09-1.32,1.32-.09L54,19.11,55.23,19l-.09-1.35,1.32-.08-.08-1.26,1.2-.45Z" fill="#dfdbd1" stroke="#692f17" stroke-linejoin="round"/><path d="M15.49,49.71a2.33,2.33,0,0,0,0,3.29l4.61,4.61a2.33,2.33,0,0,0,3.29,0l4.83-4.83a2.33,2.33,0,0,0,0-3.29L22,43.23Zm11.37.69a1.05,1.05,0,0,1,0,1.48L22.5,56.25a1.05,1.05,0,0,1-1.48,0l-4.16-4.16a1.05,1.05,0,0,1,0-1.48l4.36-4.36a1.05,1.05,0,0,1,1.48,0Z" fill="#fd8204" stroke="#692f17" stroke-linejoin="round"/><path d="M33.94,19.21h0a4.56,4.56,0,0,0-1.08-.48L18.09,12.27l0,0a4.59,4.59,0,0,0-6.44,6.44l6.43,14.76a4.59,4.59,0,0,0,7.67,2l9.1-9.1a4.58,4.58,0,0,0-.88-7.18Z" fill="#f7e8d2" stroke="#692f17" stroke-linejoin="round" stroke-width="1.5"/><rect x="32.75" y="26.67" width="1.84" height="15.34" transform="translate(-14.42 33.86) rotate(-45)" fill="#f7e8d2" stroke="#692f17" stroke-linejoin="round" stroke-width="1.5"/><path d="M53.53,56.14a1.93,1.93,0,0,1-1.37-.57L39.67,43.08a.75.75,0,0,0-.53-.22H39a4,4,0,0,1-.63,0,3.78,3.78,0,0,1-1.12-.17.61.61,0,0,0-.21-.15c-.14-.11-.15-.17-.15-.22a.23.23,0,0,1,.07-.17l4.57-4.57a.24.24,0,0,1,.33,0,.85.85,0,0,0,.19.28,3.88,3.88,0,0,1,.12,1.76.75.75,0,0,0,.21.65L54.9,52.83a1.94,1.94,0,0,1-1.37,3.31Z" fill="#fd8204"/><path d="M41.49,38.78a3.21,3.21,0,0,1,0,.79,1.5,1.5,0,0,0,.42,1.3L54.37,53.36A1.19,1.19,0,0,1,52.69,55L40.2,42.55a1.5,1.5,0,0,0-1.06-.44l-.24,0a3.26,3.26,0,0,1-.51,0h-.28l3.38-3.38m.23-1.95a1,1,0,0,0-.7.29L36.45,41.7a1,1,0,0,0,0,1.39,1,1,0,0,0,.32.21l-.05.05a4.52,4.52,0,0,0,1.67.32,4.75,4.75,0,0,0,.75-.06L51.63,56.11a2.69,2.69,0,0,0,3.81-3.81L42.94,39.81a4.6,4.6,0,0,0-.26-2.42l-.05.05a1,1,0,0,0-.91-.61Z" fill="#692f17"/><line x1="39.14" y1="43.61" x2="42.94" y2="39.81" fill="none" stroke="#692f17" stroke-linejoin="round" stroke-width="0.5"/></g></g></svg>