<svg xmlns="http://www.w3.org/2000/svg" width="49.69" height="49.82" viewBox="0 0 49.69 49.82"><title>Уборка после ремонта</title><path d="M4.5 40.18a2.48 2.48 0 0 0 0 3.51l4.91 4.91a2.48 2.48 0 0 0 3.51 0l5.15-5.15a2.48 2.48 0 0 0 0-3.51l-6.66-6.62z" fill="none" stroke="#682f24" stroke-linejoin="round"/><g stroke="#682f24" stroke-linejoin="round"><path d="M47.99 3.21a1.14 1.14 0 0 0-.11-.12L45.4 1.52a1.65 1.65 0 0 0-2.33.19L11.41 33.32l6.83 6.81-.07-1.41 1.38-.09-.09-1.41 1.39-.09-.09-1.44 1.34-.09-.09-1.4 1.46-.09-.13-1.41 1.39-.09-.06-1.29 1.37-.09-.1-1.48 1.4-.09-.06-1.34 1.38-.09-.09-1.4 1.4-.09-.08-1.42 1.33-.09-.1-1.41 1.4-.09-.08-1.35 1.4-.09-.07-1.41 1.38-.09-.09-1.37 1.41-.1-.13-1.41 1.34-.09-.09-1.4 1.49-.1-.09-1.4 1.35-.09v-1.32l1.37-.09-.09-1.44 1.43-.09-.09-1.38 1.38-.09-.09-1.4 1.4-.09-.14-1.36 1.33-.09-.09-1.44 1.4-.09-.08-1.35 1.27-.47z" fill="#e1dcd2" stroke-width=".7"/><path d="M4.5 40.18a2.48 2.48 0 0 0 0 3.51l4.91 4.91a2.48 2.48 0 0 0 3.51 0l5.15-5.15a2.48 2.48 0 0 0 0-3.51l-6.66-6.62zm12.12.74a1.12 1.12 0 0 1 0 1.58l-4.65 4.65a1.12 1.12 0 0 1-1.58 0l-4.43-4.44a1.12 1.12 0 0 1 0-1.58l4.65-4.65a1.12 1.12 0 0 1 1.58 0z" fill="#ef8018"/></g><path d="M49.34 4.13l-1.44-.81h.2a.14.14 0 0 1-.2 0l-.1-.1-2.52-1.5a1.33 1.33 0 0 0-1.15-.26 1.41 1.41 0 0 0-.54.26 1.56 1.56 0 0 0-.25.2l-.27.28L41 4.32l-4.13 4.24c-2.79 2.76-5.53 5.61-8.37 8.36s-5.61 5.54-8.48 8.25-5.68 5.44-8.61 8.15c2.67-2.9 5.39-5.76 8.13-8.59s5.52-5.63 8.28-8.45 5.59-5.56 8.38-8.34l4.25-4.12 2.13-2.05.25-.24a2.21 2.21 0 0 1 .33-.29 2 2 0 0 1 .8-.33 1.89 1.89 0 0 1 1.61.41l2.41 1.66.11.14h-.21a.13.13 0 0 1 .18 0z" fill="#682f24"/><path d="M23.96 8.32a4.62 4.62 0 0 0-1.1-.48L7.92 1.27C6.1-.16 2.84.57 1.77 1.64a5.08 5.08 0 0 0-.43 6.18l6.54 14.94a4.65 4.65 0 0 0 7.76 2l9.21-9.21a4.63 4.63 0 0 0-.89-7.23z" fill="#fce8d2" stroke="#682f24" stroke-linejoin="round"/><path fill="#fce8d2" stroke="#682f24" stroke-linejoin="round" stroke-width=".7" d="M17.388 18.703l1.386-1.385 11.561 11.56-1.386 1.387z"/><path d="M45.03 47.32a2.35 2.35 0 0 1-1.69-.69L30.05 33.32a.5.5 0 0 0-.35-.15h-.08a4.52 4.52 0 0 1-.72.06 4.29 4.29 0 0 1-1.36-.22.39.39 0 0 0-.2-.12.53.53 0 0 1-.18-.12.55.55 0 0 1 0-.78l4.87-4.87a.55.55 0 0 1 .9.18.51.51 0 0 0 .15.2 4.43 4.43 0 0 1 .15 2.05.5.5 0 0 0 .14.43l13.34 13.34a2.37 2.37 0 0 1-1.68 4z" fill="#ef8018"/><path d="M32.45 27.46a1 1 0 0 0 .17.27 3.94 3.94 0 0 1 .1 1.71 1 1 0 0 0 .28.86l13.34 13.34a1.877 1.877 0 0 1-2.63 2.68L30.4 32.97a1 1 0 0 0-.71-.29h-.15a4.07 4.07 0 0 1-.64.05 3.84 3.84 0 0 1-1.07-.15 1 1 0 0 0-.28-.18.05.05 0 0 1 0-.07l4.87-4.87m0-1a1 1 0 0 0-.74.31l-4.84 4.87a1 1 0 0 0 0 1.48 1 1 0 0 0 .34.23l-.06.06a4.82 4.82 0 0 0 1.78.34 5.06 5.06 0 0 0 .79-.06L43 46.99a2.87 2.87 0 1 0 4.06-4.06L33.75 29.62a4.9 4.9 0 0 0-.27-2.58l-.06.06a1 1 0 0 0-1-.65z" fill="#682f24"/><path fill="none" stroke="#682f24" stroke-linejoin="round" stroke-width=".7" d="M29.69 33.68l4.06-4.06"/></svg>