<svg xmlns="http://www.w3.org/2000/svg" width="120" height="120" viewBox="0 0 120 120"><title>driveway-2</title><path fill="none" d="M0 0h120v120H0z"/><path d="M62.39 50.46H62c-.13-5-.39-19.28-.62-21.62 0-.29.06-.64-.11-.89a1.08 1.08 0 0 0-.75-.31 61.41 61.41 0 0 0-6.17-.57c-3.86 0-7.7.18-11.56.2-6.07 0-12.13.12-18.2.33-3.7.13-7.4.12-11.09.44-.48 0-.63.25-.65.66-.07 1.2-.18 2.39-.2 3.59-.07 3.27-.06 6.55-.16 9.82-.08 2.79 0 5.59 0 8.38 0 .73.23 1 1 1.06h.87c2.62.16 5.22.48 7.83.72 3.88.37 7.77.41 11.66.43H41c1.89.05 3.78.19 5.65.07l15.46.42c.81-.37-.69-2.73.28-2.73zM36 49.32c0 .53-.52.72-1 .84a10.62 10.62 0 0 1-2.2.17 91.56 91.56 0 0 1-12-.31c-1.14-.11-2.29-.13-3.44-.13a16.4 16.4 0 0 1-2.24-.23.56.56 0 0 1-.54-.54 18.87 18.87 0 0 1 0-3.13 49.8 49.8 0 0 0-.11-6.25 54.42 54.42 0 0 1 .16-7.19c0-.2.08-.4.1-.61.18-1.91 1.28-2.29 2.91-2.31 2.29 0 4.59-.11 6.89-.06 2.72.06 5.45 0 8.18 0a4.45 4.45 0 0 1 2.7.84 1.43 1.43 0 0 1 .59 1.14c.14 2.72.11 5.44.2 8.17v6.63c.02.99-.13 1.98-.2 2.97zm11.36 1.39a34.38 34.38 0 0 1-3.9-.16 10.44 10.44 0 0 1-3.33-.55 1.72 1.72 0 0 1-1.27-1.66c0-1.13-.13-2.26-.16-3.39q-.12-5.35-.21-10.69a16 16 0 0 1 .51-3.84.76.76 0 0 1 .64-.64 16 16 0 0 1 2.54-.37A124.27 124.27 0 0 1 55 29.33a20.55 20.55 0 0 1 3.11.37 2.12 2.12 0 0 1 1.66 1.45c.23.61-.06 1.28-.06 1.91 0 1.64-.52 13.06-.52 14.7-.15.66.09.84 0 2.35a34.82 34.82 0 0 0-4.71.43c-2.38.04-4.79.08-7.12.17zM50.66 51.82l-4 1" fill="#ecdcc4"/><path d="M56.6 42a37 37 0 0 0-.06 5.53 2.7 2.7 0 0 1 0 1.06 1.43 1.43 0 0 1-.5.89 3 3 0 0 1-1.2.28 34 34 0 0 1-6.57-.09c-1.58-.12-3.15-.07-4.73-.08a6.1 6.1 0 0 1-2.66-.59 1.18 1.18 0 0 1-.76-1.1c-.06-1.21-.22-2.42-.26-3.64-.07-1.83.11-3.66 0-5.5a22.13 22.13 0 0 1-.1-3.54c.08-1 .53-1.31 1.28-1.38a7.54 7.54 0 0 1 1.18 0 74.74 74.74 0 0 0 9.6.08 12.26 12.26 0 0 1 3.32.22c.83.18 1.05.42 1.16 1.27a32.61 32.61 0 0 1 .3 6.59z" fill="#fcfcfc"/><path d="M42.48 54.33c-3.25-.12-6.51-.26-9.76-.3-4-.05-7.94-.22-11.9-.55-1.3-.11-2.59-.21-3.89-.28A24.22 24.22 0 0 0 13 53c-.26 0-.35.06-.36.34 0 3.56.18 6.43.27 10a9.86 9.86 0 0 0 .5 3.57 2.75 2.75 0 0 0 .8 1.16 1.35 1.35 0 0 0 .8.38c1.26.18 2.53.2 3.79.27 2.68.17 5.15.3 7.83.52 1.33.11 2.89 0 4.22.06.19 0 29.77.93 30.09-1 .18-1.06 1.83-9.21.46-14.23-2.57-.54-16.81.34-18.92.26zM21.73 65.08a6.88 6.88 0 0 1-3 .36 3.78 3.78 0 0 1-3-2c-1.06-1.89-.45-3.21.56-5a2.7 2.7 0 0 1 .45-.55c1.35-1 3.47-1.93 5.69-.2a4.79 4.79 0 0 1 1.85 3.58 3.84 3.84 0 0 1-2.55 3.81zM38 17.67c5.07.19 10.13.28 15 1.58a25.57 25.57 0 0 1 4.15 1.56 9.23 9.23 0 0 1 3.63 2.53 2.21 2.21 0 0 1 .4 2.35.85.85 0 0 1-1 .52 51.37 51.37 0 0 0-6.06-.2c-2.36.13-4.72.3-7.07.38-1.76.06-3.53 0-5.3 0-2.52 0-5-.1-7.56-.07-3.72.05-7.44 0-11.16.11-2.72.07-5.44.27-8.16.28h-1c-.69-.06-1-.36-1-1.07A4.07 4.07 0 0 1 14.16 23a10.89 10.89 0 0 1 3.91-2.41 33.1 33.1 0 0 1 10-2.41c2.71-.29 5.43-.36 8.15-.42.63-.03 1.21-.07 1.78-.09zm-12.46 5a8.94 8.94 0 0 0 0 1.4c.09 1 .21 1.09 1.21 1.09 4.59 0 9.18 0 13.77-.19a50.54 50.54 0 0 1 5.39.05c.89.06 1.24-.22 1.46-1.08a2.83 2.83 0 0 0 0-1.07 14.23 14.23 0 0 1-.09-1.69c0-.84-.32-1.15-1.15-1.27-2.43-.36-4.89-.26-7.33-.38-4-.19-8 .39-11.94.61a1.29 1.29 0 0 0-1.41 1.47 9.07 9.07 0 0 1 .08 1.08z" fill="#c19e75"/><path d="M61.77 68.67c-.14-.26-29.85 2-29.93 1.71l-5.51-.07c-2.33 0-4.66 0-7-.2a27.4 27.4 0 0 1-5.51-1 1.34 1.34 0 0 1-.33-.11c-.44-.22-1.06-.21-1.12.27a2.36 2.36 0 0 0 .94 1.87 7.21 7.21 0 0 0 4.24 1.27c1.68.11 3.36.1 5 .26a105.76 105.76 0 0 0 10.71.83c-.17-.16 17.18-.28 20.72-.65 8.49-.85 7.96-3.66 7.79-4.18zM58.05 49.71c.05-.13.83 0 .9-.12.16-.48-.14-10.28.16-10.68a6.54 6.54 0 0 1-.06-.77q0-2.52-.12-5c0-1.36-.42-2.28-1.75-2.42-2.17-.23-4.7-.17-6.88-.21a76.86 76.86 0 0 0-9.09.28c-1.49.15-1.42.91-1.32 2 0 .31.3.41.58.33a2.65 2.65 0 0 1 .81-.08c2 .06 4 0 6-.11s4 0 6 0a23.23 23.23 0 0 1 3.27.36c.28 0 .48.15.51.47.22 2.21.78 4.39.57 6.64 0 .45-1.07 8.61-1 9.4a7.86 7.86 0 0 0 1.42-.09zM5 41a15 15 0 0 1 .22-2.51 1.41 1.41 0 0 1 1.24-1.25c.35-.07.7-.16 1.06-.21a1.61 1.61 0 0 1 1.88 1.58c.06 1.88.17 3.76.39 5.63a13.52 13.52 0 0 1 0 2.26.86.86 0 0 1-1 .91A9 9 0 0 1 7 47.27a1.77 1.77 0 0 1-1.44-1.43A14.56 14.56 0 0 1 5 41.79V41zM34.1 60.39c-1.72-.05-4.34 0-7-.1a1.76 1.76 0 0 1-.75-.16.83.83 0 0 1-.47-.89c.06-.4.37-.51.72-.52s.68 0 1 0c3.85-.05 7.7-.12 11.56-.15 2.07 0 4-.12 6.05-.09.57 0 1.29.07 1.85 0a1.55 1.55 0 0 1 .71.07.77.77 0 0 1 .54.84.71.71 0 0 1-.74.65l-3.38.18c-3.02.18-6.1.2-10.09.17z" fill="#ecdcc4"/><path d="M18.41 78.79a5.62 5.62 0 0 1-2.46-.36 1.63 1.63 0 0 1-1-1.43c-.12-1.25.14-2.48.11-3.73 0-.4.34-.25.52-.22.74.09 1.48.18 2.23.21 1.28.06 2.55.15 3.83.19.34 0 .49.09.45.45a18.66 18.66 0 0 1-.47 3.37 2.07 2.07 0 0 1-2.12 1.52c-.38.03-.74 0-1.09 0zM55.73 79a6.29 6.29 0 0 1-2.75-.4 1.83 1.83 0 0 1-1.16-1.6c-.13-1.4.16-2.78.12-4.18 0-.45.38-.28.58-.25.83.1 1.66.2 2.49.24 1.43.06 2.86.16 4.29.21.38 0 .55.1.51.51a20.88 20.88 0 0 1-.52 3.77 2.31 2.31 0 0 1-2.36 1.7h-1.2z" fill="#c19e75"/><path d="M34.52 62.95c-2.3.08-4.28-.38-6.29-.38a4.48 4.48 0 0 1-1.66-.29.85.85 0 0 1-.58-.77c0-.42.32-.75.68-.57a6.12 6.12 0 0 0 2.62.36c4 .18 8 0 12-.14 1.47-.07 3.56-.22 5-.36a4.05 4.05 0 0 1 2.12.29c0 1.31-1.37 1.16-2 1.26a70.57 70.57 0 0 1-11.89.6z" fill="#ecdcc4"/><path d="M48.08 63.43c0-.15.12-.75-.35-.82-3-.45-14.39 1-14.64 1-1.06 0-2.13.23-3.18.13a14 14 0 0 1-3.19-.47c-.16-.05-.37-.32-.53 0a.65.65 0 0 0 .08.68 1.26 1.26 0 0 0 .61.52 4 4 0 0 0 1.2.25l7.76.48s8.48-.17 11.47-.6c.69-.13.77-1.17.77-1.17zM11.29 45.8a.65.65 0 0 1 0 .2c0 .13.15.38-.15.38a.31.31 0 0 1-.32-.38v-.72c0-.24 0-.28.21-.25s.25.08.25.25v.51z" fill="#ecdcc4"/><path d="M36.22 39.73v6.63c0 1-.14 2-.21 3 0 .53-.52.72-1 .84a10.62 10.62 0 0 1-2.2.17 91.56 91.56 0 0 1-12-.31c-1.14-.11-2.29-.13-3.44-.13a16.41 16.41 0 0 1-2.24-.23c-.33 0-.45-.26-.54-.54-.14-1.05-.11-1.89-.17-3.06.06-2.29.08-4.21 0-6.32a54.42 54.42 0 0 1 .16-7.19c0-.2.08-.4.1-.61.22-1.98 1.32-2.33 2.95-2.35 2.29 0 4.59-.11 6.89-.06 2.72.06 5.45 0 8.18 0a4.45 4.45 0 0 1 2.7.84 1.43 1.43 0 0 1 .6 1.16c.16 2.72.13 5.43.22 8.16zm-9-5.29h-4.73q-1.57 0-3.13.12c-1.08.07-1.42.43-1.51 1.49-.05.6-.09 1.2-.11 1.79-.08 2.57.06 5.14.14 7.71a9.34 9.34 0 0 0 .27 2.34c.17.6.42.74 1 .79 1.59.13 3.2 0 4.77.14 2.92.32 5.85.21 8.78.28a5 5 0 0 0 1.12-.1 1 1 0 0 0 .88-.88 11.38 11.38 0 0 0 .23-1.93c0-.82-.05-1.65 0-2.47.12-2.74.22-5.48.1-8.22 0-1.08-.19-1.22-1.25-1.15q-1.18.07-2.36.09c-1.42.01-2.81 0-4.22 0zm-9.86 14.17a4.66 4.66 0 0 1-.25-1.25c-.14-3.65-.35-7.29-.18-10.94a7.21 7.21 0 0 1 .17-1.48 1.31 1.31 0 0 1 1.3-1.14c.89-.08 1.78-.14 2.67-.19 4-.23 7.91-.39 11.87-.28a8.72 8.72 0 0 0 1.23.1.79.79 0 0 0 .76-1A1.71 1.71 0 0 0 33.52 31a8.83 8.83 0 0 0-1.07-.13q-6.3-.31-12.59-.08a20.44 20.44 0 0 0-2.61.16 1.1 1.1 0 0 0-1 .84 10.7 10.7 0 0 0-.49 2.41 102.56 102.56 0 0 0 0 11.41c0 .7.06 1.4.08 2.1 0 .33 0 .73.45.81a2.64 2.64 0 0 0 1.07.09zM24.29 61.3a3.69 3.69 0 0 1-2.56 3.78 8.08 8.08 0 0 1-3 .36 3.78 3.78 0 0 1-3-2 4.35 4.35 0 0 1 .17-4.94 6.45 6.45 0 0 1 1.14-1 4.58 4.58 0 0 1 5.4.27 4.79 4.79 0 0 1 1.85 3.53zM19.73 58a3.15 3.15 0 0 0-2.58.9 3.4 3.4 0 0 0-.32 4.28c.45.83 1.23 1.08 2.69 1.23a4.79 4.79 0 0 0 1.55-.35 2.27 2.27 0 0 0 1.74-1.51 3.93 3.93 0 0 0-.42-3.17A3.16 3.16 0 0 0 19.73 58zM25.53 22.71a9.07 9.07 0 0 0 0-1.06 1.29 1.29 0 0 1 1.41-1.47c4-.21 7.94-.8 11.94-.61 2.44.12 4.9 0 7.33.38.83.12 1.14.43 1.15 1.27 0 .57.07 1 .09 1.69a3.71 3.71 0 0 1 0 1.07c-.22.86-.57 1.14-1.46 1.08a50.54 50.54 0 0 0-5.46-.06c-4.59.2-9.18.21-13.77.19-1 0-1.12-.11-1.21-1.09a8.94 8.94 0 0 1-.02-1.39zm12.16 1.21h7.6a.85.85 0 0 0 .71-.24 1.87 1.87 0 0 0 .34-1.68 1.38 1.38 0 0 0-1.14-1.12 23.39 23.39 0 0 0-2.92-.2 117.55 117.55 0 0 0-12.58.26c-.77 0-1.54.08-2.31.16s-1 .36-1 1.06v1c0 .72.18.9.88 1a18.18 18.18 0 0 0 2.3 0c2.6-.09 5.22-.41 8.11-.24z" fill="#62382d"/><path d="M27.2 34.44h4.21q1.18 0 2.36-.09c1.06-.07 1.2.07 1.25 1.15.12 2.74 0 5.48-.1 8.22v2.47a11.38 11.38 0 0 1-.23 1.93 1 1 0 0 1-.88.88 5 5 0 0 1-1.12.11c-2.93-.06-5.85 0-8.78-.28-1.58-.17-3.18 0-4.77-.14-.59 0-.84-.2-1-.79a9.34 9.34 0 0 1-.27-2.34c-.08-2.57-.22-5.13-.14-7.71 0-.6.06-1.2.11-1.79.09-1.07.44-1.42 1.51-1.49s2.09-.11 3.13-.12h4.73z" fill="#fcfcfc"/><path d="M17.36 48.61a2.64 2.64 0 0 1-1.06-.07c-.46-.09-.44-.49-.45-.81 0-.7 0-1.4-.08-2.1a102.56 102.56 0 0 1 0-11.41 10.7 10.7 0 0 1 .49-2.41 1.1 1.1 0 0 1 1-.84 20.44 20.44 0 0 1 2.61-.16q6.3-.24 12.59.08a8.83 8.83 0 0 1 1.07.13 1.71 1.71 0 0 1 1.41 1.44.79.79 0 0 1-.76 1 8.72 8.72 0 0 1-1.23-.1c-4-.12-7.92.05-11.87.28-.89.05-1.78.12-2.67.19a1.31 1.31 0 0 0-1.31 1.14 7.21 7.21 0 0 0-.17 1.48c-.17 3.65 0 7.3.18 10.94a4.66 4.66 0 0 0 .25 1.22z" fill="#ecdcc4"/><path d="M19.73 58a3.16 3.16 0 0 1 2.66 1.38 3.93 3.93 0 0 1 .42 3.17 2.3 2.3 0 0 1-1.65 1.6 4.29 4.29 0 0 1-1.5.28c-1.53.08-2.39-.41-2.84-1.24a3.4 3.4 0 0 1 .32-4.28 3.15 3.15 0 0 1 2.59-.91zm2.8 3.88a2.3 2.3 0 0 0 0-.34c0-.15-.1-.31-.28-.33s-.16.19-.22.3a2 2 0 0 1-.47.67 3.7 3.7 0 0 1-1.55.63c-.21.06-.52 0-.53.37s.26.43.49.51a2.2 2.2 0 0 0 2.56-1.8z" fill="#dbab29"/><path d="M37.68 23.92c-2.89-.16-5.51.15-8.13.15a18.18 18.18 0 0 1-2.3 0c-.7-.09-.89-.27-.88-1v-1c0-.71.31-1 1-1.06s1.54-.12 2.31-.16a117.55 117.55 0 0 1 12.58-.26 23.39 23.39 0 0 1 2.92.2A1.38 1.38 0 0 1 46.34 22a1.87 1.87 0 0 1-.34 1.72.85.85 0 0 1-.71.24h-5.6z" fill="#ecdcc4"/><path d="M22.53 61.89c-.06 1.13-1.64 2-2.59 1.8-.24-.09-.5-.19-.49-.51s.31-.31.53-.37a3.7 3.7 0 0 0 1.55-.63 2 2 0 0 0 .47-.67c.05-.11 0-.31.22-.3s.24.18.28.33a2.3 2.3 0 0 1 .03.35z" fill="#62382d"/><path d="M50.89 59s-1.59 3.6.53 5 5.73.3 6.08-.06a7.75 7.75 0 0 0 .94-2.54 7.31 7.31 0 0 0-.3-2.54 2.68 2.68 0 0 0-1.59-1.59c-1.18-.47-3.36-.71-3.9-.06S50.89 59 50.89 59z" fill="#dbab29"/><path d="M59.89 40.06v-1.92c.11-.06.11-3.52.11-5.14a6.33 6.33 0 0 0-.3-2.05 1.83 1.83 0 0 0-1.25-1.25 8 8 0 0 0-1.9-.21c-.5-.06-1-.1-1.49-.12a124.27 124.27 0 0 0-12.8.08 16 16 0 0 0-2.54.37.76.76 0 0 0-.64.64 16 16 0 0 0-.51 3.81q.09 5.35.21 10.69c0 1.13.15 2.26.16 3.39A1.72 1.72 0 0 0 40.19 50a10.44 10.44 0 0 0 3.33.58 34.39 34.39 0 0 0 3.9.16c2.33-.1 4.66.17 7 .13 0 0 4 0 4.76-.16a.89.89 0 0 0 .65-.75 20.76 20.76 0 0 0 .09-3.27c-.01-2.23-.08-4.43-.03-6.63zm-11.6 9.59c-1.58-.12-3.15-.07-4.73-.08a6.1 6.1 0 0 1-2.64-.57 1.18 1.18 0 0 1-.76-1.1c-.06-1.21-.22-2.42-.26-3.64-.07-1.83.11-3.66 0-5.5a22.13 22.13 0 0 1-.1-3.54c.08-1 .53-1.31 1.28-1.38a7.54 7.54 0 0 1 1.18 0c3.2.23 6.44.15 9.64.22a16.56 16.56 0 0 1 3.28.07h.13a2.32 2.32 0 0 1 1 2c.05.63.09 1.25.11 1.88.08 2.69-.07 5.38-.15 8.07a9.7 9.7 0 0 1-.27 2.53c-.18.62-.23 1-.86 1.09-.15 0-.49.06-.81.07a36.92 36.92 0 0 1-6.04-.12zm10.22-3.43c0 .74-.07 1.47-.09 2.2 0 .34.09.92-.31 1.08a2.18 2.18 0 0 1-1.2.09c.08-.25.13-.65.18-.88s.07-.72.13-1.11c.27-1.68.38-6.74.42-7.19.14-1.46-.13-5.12-.14-5.47s-.15-1.45-.94-1.64a14.66 14.66 0 0 0-3.27-.36h-6c-2 0-4 .17-6 .11a2.65 2.65 0 0 0-.81.08c-.28.08-.56 0-.58-.33-.1-1.12-.17-1.89 1.32-2a76.86 76.86 0 0 1 9.09-.28c1.56 0 6.49.36 6.56.38.53.09 1.25 0 1.41.58a13.5 13.5 0 0 1 .15 2.84 106.41 106.41 0 0 1 .08 11.9zM51.45 57.53a5.07 5.07 0 0 1 5.82-.18 4.89 4.89 0 0 1 .89.94c1 1.74 1.26 3.08.2 5a3.78 3.78 0 0 1-3 2 5.9 5.9 0 0 1-3-.36 4.22 4.22 0 0 1-2.4-3.85 4.29 4.29 0 0 1 1.49-3.55zm.24 1.7a3.93 3.93 0 0 0-.42 3.17 2.67 2.67 0 0 0 1.57 1.6 3.62 3.62 0 0 0 1.63.33A2.72 2.72 0 0 0 57.25 63a3.4 3.4 0 0 0-.32-4.28 3.61 3.61 0 0 0-5.24.48z" fill="#62382d"/><path d="M51.54 61.73a2.2 2.2 0 0 0 2.59 1.8c.24-.09.5-.19.49-.51s-.31-.31-.53-.37a3.7 3.7 0 0 1-1.54-.65 2 2 0 0 1-.47-.67c-.05-.11 0-.31-.22-.3s-.24.18-.28.33a2.3 2.3 0 0 0-.04.37z" fill="#62382d"/><path d="M64.47 37l-.94 7.2-1-.12-.35 3.31 1.48-.47a5.19 5.19 0 0 0 2.54.83 4.55 4.55 0 0 0 2.72-1.06c0-.24.59-4.43.59-4.43s.41-5.19-.83-5.49-3.51-.77-4.21.23z" fill="#ecdcc4"/><path d="M69.85 38c-.09-1.52-.77-1.87-2-2.11a13.43 13.43 0 0 0-3.22.09c-.28 0-.4.25-.51.46a5 5 0 0 0-.41 1.9c-.14 1.45-.24 2.9-.36 4.36v.31c0 .19 0 .45-.3.42s-.19-.28-.19-.44c.1-2 .08-4 .08-6.07v-.39H63q0-1.3-.1-2.59a53.35 53.35 0 0 0-.46-6.2 20.28 20.28 0 0 0-.3-3.9 6.58 6.58 0 0 0-1.29-2.25 6.66 6.66 0 0 0-2.24-1.47c-.23-.12-3-1.13-3-1.08l-1.38-.4a48.64 48.64 0 0 0-11.22-2 82.26 82.26 0 0 0-19.21 1.14 29.7 29.7 0 0 0-8.06 2.37 7.36 7.36 0 0 0-2.45 1.57A7.65 7.65 0 0 0 11.54 27c0 .33.2.61.15 1a67.24 67.24 0 0 0-.5 9.18c0 2 0 4 .08 6.07 0 .16.13.41-.19.44s-.28-.23-.3-.42 0-.2 0-.31c-.12-1.45-.22-2.91-.36-4.36a5 5 0 0 0-.41-1.9c-.11-.21-.23-.45-.51-.46a13.43 13.43 0 0 0-3.22-.09c-1.23.24-1.92.6-2 2.11a44.11 44.11 0 0 0 0 4.47 14.55 14.55 0 0 0 .36 3.67 2.2 2.2 0 0 0 1.07 1.57 7.39 7.39 0 0 0 3.23.74 1.65 1.65 0 0 0 1.35-.71c.27-.43.55-.17.84-.13s.25.31.25.52c0 1.39-.05 2.77-.06 4.16 0 3.22 0 6.45.17 9.69a25.65 25.65 0 0 0 .69 5 1.26 1.26 0 0 1-.1.75 4.49 4.49 0 0 0-.51 2 2.79 2.79 0 0 0 1.84 2.76c.37.1.44.32.41.69a33.57 33.57 0 0 0-.31 3.48 3 3 0 0 0 2.14 3 9 9 0 0 0 5.45.08 2.56 2.56 0 0 0 1.68-1.67 9.76 9.76 0 0 0 .67-4.07c0-.47.12-.56.57-.52a48.53 48.53 0 0 0 5.28.32h4.95c1.86.08 8.49-.15 9.25-.17h1.27a48.53 48.53 0 0 0 5.28-.32c.46 0 .59.05.57.52a9.76 9.76 0 0 0 .67 4.07A2.56 2.56 0 0 0 53 79.83a9 9 0 0 0 5.41-.07 3 3 0 0 0 2.14-3 33.57 33.57 0 0 0-.31-3.48c0-.36 0-.59.41-.69a2.79 2.79 0 0 0 1.84-2.76 4.49 4.49 0 0 0-.51-2 1.26 1.26 0 0 1-.1-.75 25.65 25.65 0 0 0 .69-5c.18-3.24.18-6.47.17-9.69 0-1.39-.07-2.77-.06-4.16 0-.21-.09-.47.26-.52s.57-.3.84.13a1.65 1.65 0 0 0 1.45.64 7.39 7.39 0 0 0 3.23-.74 2.2 2.2 0 0 0 1.07-1.57 14.55 14.55 0 0 0 .36-3.67 44.1 44.1 0 0 0-.04-4.5zM9.72 46.49a.86.86 0 0 1-1 .91A9 9 0 0 1 7 47.24a1.77 1.77 0 0 1-1.44-1.43A14.56 14.56 0 0 1 5 41.76v-.77a15.06 15.06 0 0 1 .22-2.51 1.41 1.41 0 0 1 1.24-1.25c.35-.07.7-.16 1.06-.21a1.61 1.61 0 0 1 1.84 1.58c.06 1.88.17 3.76.39 5.63a13.52 13.52 0 0 1-.03 2.26zm1.41-.14a.31.31 0 0 1-.32-.38v-.72c0-.24 0-.28.21-.25s.25.08.25.25v.51a.65.65 0 0 1 0 .2c-.03.14.16.4-.14.39zm3-23.38a10.89 10.89 0 0 1 3.91-2.41 33.1 33.1 0 0 1 10-2.41c2.71-.29 5.43-.36 8.15-.42.58 0 1.16-.05 1.71-.08A68 68 0 0 1 53 19.4a26.62 26.62 0 0 1 2.77.82 17 17 0 0 1 4.17 2.58 4.07 4.07 0 0 1 1.17 2.67.69.69 0 0 1-.11.45.78.78 0 0 1-.74.27 51.37 51.37 0 0 0-6.06-.2c-2.36.13-4.72.3-7.07.38-1.76.06-3.53 0-5.3 0-2.52 0-5-.1-7.56-.07-3.72.05-7.44 0-11.16.11-2.72.07-5.44.27-8.16.28h-1c-.69-.06-1-.36-1-1.07A4.07 4.07 0 0 1 14.16 23zm7.76 51.09a18 18 0 0 1-.45 3.24 2 2 0 0 1-2 1.46h-1a5.41 5.41 0 0 1-2.44-.35A1.57 1.57 0 0 1 15 77c-.11-1.2.14-2.39.1-3.59 0-.38.32-.24.5-.22.71.09 1.43.17 2.15.2 1.23.05 2.46.14 3.69.18.37.06.56.14.48.49zM59 76.87a1.57 1.57 0 0 1-1 1.37 5.41 5.41 0 0 1-2.37.35h-1a2 2 0 0 1-2-1.46 18 18 0 0 1-.45-3.24c0-.35.11-.42.44-.44 1.23 0 2.46-.13 3.69-.18.72 0 1.43-.12 2.15-.2.18 0 .51-.17.5.22-.06 1.19.19 2.38.04 3.58zm1.76-6a6.94 6.94 0 0 1-4.1 1.44c-1.68.11-3.36.1-5 .26-2.59.25-5.18.34-7.78.37-.59 0-2.35.14-3.25.16h-7.41a106.77 106.77 0 0 1-10.8-.38c-1.67-.16-3.35-.16-5-.26A6.94 6.94 0 0 1 13.28 71a1.7 1.7 0 0 1-.77-1.58c.06-.49.37-.62.8-.4.08 0 1 .31 1.11.33a37.39 37.39 0 0 0 4.74.76c2.32.24 4.66.16 7 .2l5.51.07c1.83 0 12.72-.18 12.72-.18h3.55c2.33 0 4.66 0 7-.2a37.39 37.39 0 0 0 4.74-.76c.08 0 1-.29 1.11-.33.44-.22.74-.09.8.4a1.7 1.7 0 0 1-.79 1.57zM56.9 54.12c1.3-.08 3.1-.46 4.15.34.31.24.24.73.24 1 0 3.56 0 3.81-.14 7.37a16.21 16.21 0 0 1-.57 3.9A2 2 0 0 1 59 68.22a35 35 0 0 1-3.79.27c-2.68.17-5.38.13-8.06.35-.84.07-1.68.11-2.52.15-2.52 0-13.29.27-13.34.27h-.42c-1.33-.09-3.12-.09-4.46-.15-3-.14-4.91-.27-7.6-.44a30.13 30.13 0 0 1-3.79-.27 2.25 2.25 0 0 1-1.55-1.48 16.21 16.21 0 0 1-.57-3.9c-.09-3.56-.26-6.15-.25-9.71 0-.28.1-.31.36-.34a24.22 24.22 0 0 1 3.89.22c1.3.08 2.6.17 3.89.28 4 .33 7.93.5 11.9.55 3.25 0 6.51.18 9.76.3 2.11.08 4.55 0 6.72 0 4.1-.02 6.43-.12 7.73-.2zm4.68-3.79c0 .73.09 2.08-.38 2.43a2.86 2.86 0 0 1-1.17.16c-2.24.14-3 0-5.39.1h-2.31l-5.7-.19c-1.88.12-3.77 0-5.65-.07-2.38-.07-4.76 0-7.15 0-3.89 0-7.78-.06-11.66-.43-2.61-.25-5.21-.57-7.83-.72h-.87c-.73-.07-1-.34-1-1.06 0-2.79-.06-5.59 0-8.38.09-3.27.09-6.55.16-9.82 0-1.2.13-2.39.2-3.59 0-.42.18-.62.65-.66 3.69-.32 7.4-.31 11.09-.44 6.06-.22 12.13-.3 18.2-.33h12.67a21.38 21.38 0 0 1 5.14.53c.46.14.54.32.56.74.07 1.2.18 2.39.2 3.59.07 3.27.06 6.55.16 9.82.14 2.74.05 5.53.08 8.32zm1.37-4.15c-.3 0-.1-.25-.15-.38a.65.65 0 0 1 0-.2v-.51c0-.17.09-.24.25-.25s.21.11.21.25v.72a.31.31 0 0 1-.31.37zm5.56-.54a1.77 1.77 0 0 1-1.44 1.43 9 9 0 0 1-1.74.16.86.86 0 0 1-1-.91 13.52 13.52 0 0 1 0-2.26c.22-1.87.33-3.75.39-5.63a1.61 1.61 0 0 1 1.88-1.58c.36 0 .71.14 1.06.21a1.41 1.41 0 0 1 1.24 1.25 15.06 15.06 0 0 1 .22 2.51v.77a14.56 14.56 0 0 1-.62 4.05z" fill="#62382d"/><path d="M48.37 58.58a1.13 1.13 0 0 0-1.37-1.1c-.65 0-4.89.1-6.47.12-2 0-3.91.12-5.86.12h-7.71a1.13 1.13 0 0 0-1.33 1.1 23.09 23.09 0 0 0 0 5.73c0 .51.34.72.84.8a42.34 42.34 0 0 0 5.7.56 101.71 101.71 0 0 0 11.69-.28 25.73 25.73 0 0 0 3.68-.49c.49-.08.81-.29.84-.8a23.09 23.09 0 0 0-.01-5.76zm-22.44.65c.06-.4.37-.51.72-.52s.68 0 1 0c3.85-.05 7.7-.12 11.56-.15 1.94 0 3.77-.11 5.7-.1h2.24c.35 0 .66.11.72.5a.84.84 0 0 1-.4.93 1.1 1.1 0 0 1-.6.1l-2.64.18c-3.08.15-6.16.17-10.15.13-1.72-.05-4.34 0-7-.1a1.76 1.76 0 0 1-.75-.16.83.83 0 0 1-.41-.81zm.75 1.68a6.12 6.12 0 0 0 2.62.36c4 .18 8 0 12-.14 1.35-.06 2.5 0 3.85-.12h1.51c.59 0 .76-.13 1 0a.62.62 0 0 1 0 1 3.31 3.31 0 0 1-1.35.23c-.58.08-2 .15-2 .16a74.92 74.92 0 0 1-9.7.34c-2.3.08-4.32-.18-6.33-.17a4.48 4.48 0 0 1-1.66-.29.85.85 0 0 1-.58-.77c-.04-.44.27-.78.63-.6zm21.18 2.94a1 1 0 0 1-.64.45 11.66 11.66 0 0 1-1.27.24c-.79.08-1.4.17-2.08.21-3.25.19-10.33.25-10.87.25h-.14l-4.77-.29a4 4 0 0 1-1.2-.25 1.26 1.26 0 0 1-.61-.52.65.65 0 0 1-.08-.68c.16-.27.37 0 .53 0a14 14 0 0 0 3.19.47c1.06.1 2.12.1 3.18.12.6 0 6-.14 6.68-.16s3.31-.26 4.23-.36 2-.2 3.12-.34c.36 0 .62-.15.79.13a.71.71 0 0 1-.07.73z" fill="#62382d"/><path d="M95.82 32.45a1.61 1.61 0 0 1-.16-1.81 13.9 13.9 0 0 1 3.42-4 10.46 10.46 0 0 1 5.1.84c1.41.76.2 2.65 0 3.82s-.72 4.38-1.29 4.18-7.07-3.03-7.07-3.03z" fill="#e18020"/><path d="M90.11 36.71c.08-.16 1.77-3.62 4.58-3.78a9 9 0 0 1 5.47 1.17c1 .6 1.45.6 1.29 1.61s-1.13 1.65 0 2.37a27.6 27.6 0 0 1 3.34 2c.6.64 1.45 1.93 1.09 2.37s.08 1.33-2 1.57a91.14 91.14 0 0 1-12.86-.52c-1.09-.32-1.13-1-1.17-1.29s.26-5.5.26-5.5z" fill="#dfdbd1"/><path d="M89.79 44.39a5.61 5.61 0 0 0 1.69 2 4.38 4.38 0 0 1 1.85 3.18c0 1 .44 9.89.44 9.89s12.34-1.45 12.34-1.65-.16-14-.08-14.27-.76 0-1.89.12-9.77.92-12.62 0-1.73.73-1.73.73z" fill="#c4a076"/><path d="M82.07 44.23s-.16 1.29 2.09 1.41 5.23-.32 5.39-1a4.17 4.17 0 0 0-.48-2.37c-.24-.28-5.06-.56-5.51-.44a3.1 3.1 0 0 0-1.49 2.4z" fill="#eedec6"/><path d="M80.14 50s-1.41-1.57-.36-2.85A3.62 3.62 0 0 1 83 45.44c1.49 0 6.43.2 6.71.2A2.67 2.67 0 0 1 92 46.92a13.85 13.85 0 0 1 1.73 5.71v6.83l-9.13 1.33-2.37-1.49s0-2.37-.08-2.85S81 51.1 80.14 50z" fill="#dfdbd1"/><path d="M82 53.11a16.06 16.06 0 0 0 5.43.4c2.93-.36 3.14-.36 3.14-.36s.4.08.44 2.45 0 4.26 0 4.26l-6.79 1a11.35 11.35 0 0 1-2-1.37c-.07-.27-.22-6.38-.22-6.38z" fill="#fff"/><path d="M63.1 43.19a2 2 0 0 1-1.45-1.81 16 16 0 0 1 .64-5.06 6.49 6.49 0 0 1 3-.6c1.45 0 2.85.36 2.85.84s.24 1.85.24 2.45.12 2.89.12 3.14.28.72-.24.84-5.16.2-5.16.2z" fill="#dfdbd1"/><path d="M61 45s-3 .68-3.34 1.33-.68 1.13-.36 1.45 1.81 1.49 5.1 1.57a41.84 41.84 0 0 0 8-.44c1.61-.32 2.65-.52 2.65-1.25s-1-1.21-1.85-1.69-1.83-.97-1.83-.97.64-1.13 0-1.41a11.38 11.38 0 0 0-3.3-.2c-.64 0-4.5-.24-4.82 0s-.89.72-.25 1.61z" fill="#f5f4f1"/><path d="M55.58 47.61c-.09.15-1.77.92-1.85 2.45a10.2 10.2 0 0 0 1 4 26.59 26.59 0 0 1 .36 3.46c.08.48-.12 1.93.48 2.25a15.4 15.4 0 0 0 4.14.84H61a27.78 27.78 0 0 0 3 .6 33.49 33.49 0 0 0 5.39-.84 20.6 20.6 0 0 1 5.1-.24c.92.16 1.09-.16 1.33-1.13s1.21-4.54 1.37-5.23-.76-5.63-2.37-5.91a4.44 4.44 0 0 0-2.89.32 15.9 15.9 0 0 1-8.23 1.32c-4.46-.44-6-.92-6.39-1.53s-.24-1.33-.36-1.29a2.23 2.23 0 0 0-1.37.93z" fill="#ddad29"/><path d="M70.69 45s1.49-1.33 1.53-1.45-.92-1.29-.88-1.73a23.6 23.6 0 0 1 .56-3.5c.16-.08 2.57.08 2.77 0a20 20 0 0 1 2.69 0c.24 0 .68.2.76 1.41s.44 3.3-1.29 3.5.86 2.05 1.17 2.77 2.13 5.15 2.53 5.75a21.28 21.28 0 0 1 1.73 5.79c0 1.13-.44 1.61-.76 1.57s-4 .6-4.18.56-1.65 0-1.65-.2S76.8 55 77 53.6a10.31 10.31 0 0 0-.92-4.6c-.32-.44-3.78-2.41-4.14-2.73s-1.41-.87-1.25-1.27z" fill="#e18020"/><path d="M72.3 37.08a3.21 3.21 0 0 0-1.45-2.41c-1.41-.92-1.61-.8-1.49-2.17s1.73-2 3.14-2.57 9-3.14 9-3.14 2.69-1.21 3.58-1A2.13 2.13 0 0 1 86.93 28c0 1.49-1.73 2.41-2.25 2.53S80.94 32 80.94 32a6.09 6.09 0 0 0 .06 3c.48 1.13 1.17 2.53 2.33 2.93s2.65.76 2.37 1.29a2.25 2.25 0 0 1-2.45 1.41c-1.49-.28-4.62-2.93-5.19-3.62a12.18 12.18 0 0 0-1-1.13 4.11 4.11 0 0 0 .32 2.41c.56.72-5.1-.24-5.1-.24z" fill="#ddad29"/><path d="M54 55.24l-13.61 1.89a5.66 5.66 0 0 0-.48 1.37c0 .36.16 1.65.16 1.65a3.05 3.05 0 0 0 1.81 1.41c1.09.16 1.93.32 1.93.32l.2 5.31s1.25 9.77 1.49 12.46 0 6 1.17 7.36S64.94 91.78 70 92.26s5.95.6 6.07.08S68.68 72.21 66 70.76 55.46 59.67 55.42 59.5 54 55.24 54 55.24z" fill="#c66719"/><path d="M52.85 56.93c-.28 0-6.39.88-6.39.88l4.9 1.69S50 61 49.87 61.15s-9.49-2.73-9.49-2.85-.8-.76.48-1.09 13-2.49 13.26-1.85.56 1 .32 1.17a15.44 15.44 0 0 1-1.59.4zM84.24 60.83c-.22-.19 20.58-2.65 20.58-2.65l2.41-.52s-1-.72-1-.84.6-.56.88-.44 7.32 1 7.76 1.37a2.22 2.22 0 0 1 0 2.53c-.6.68-2.77.84-2.81 1.09s-2.73 22.39-3.3 23.88-2 2.41-5.27 2.89-18.93 2.49-19.33 2.49-.52.24-1.25-1.41-1.81-6.59-1.53-8.76c0 0 .16-.6 1.25.16s3.26 2 4.06 1 1.25-1.25.92-2.89-2-4.38-2.53-5.47-1-4.94-.72-7.15.64-4.68-.12-5.28z" fill="#e18020"/><path d="M63.54 61.19a26.89 26.89 0 0 0-4.22-.64c-1.81 0-4.14-.84-5.67-.68A5.72 5.72 0 0 0 49 62.4c-1.21 1.93-3.94 5.43-4.66 6.31s-2.34 2.13-2.55 4.06-.08 2.85 1.65 2.53 2.85-.36 3.82-1.73 4.54-6.83 5.35-6.43 1.53 1.53 1 3.78-1.45 5-2.65 6.23-4.82 4.3-4.9 5.31 0 2.57 1.77 2.21 5.15-2 6.15-3.22.68 1 .56 1.69-2.57 3.18-3.34 4.34-1.89 2.33-1.65 3.14.84 1.37 2.57.72 2.57-1.09 3.18-1.89-.32 3.82.64 4.74.72 1.45 1.73.72a6.18 6.18 0 0 0 2.09-2.13c.48-.88.88-2.37 1.09-1.69s0 1.57 1 1.21 1.45-.44 1.73-1 1.65-5.31 2-6.15 1.33-3.46 1.89-3.54.8 1.17.64 3.22-.88 7-.56 8.08 1.33 2 2.13 2 1.29.16 1.77-1.21a30.62 30.62 0 0 0 .92-3.9c.32-1.45.28-3.18.48-3.14s1.13 5.95 3.1 7.28 2.65 1.17 3.05.48-.44-2.65-.44-3.5.84.76 2.17 1.09 1.53.36 1.93-.76a3.59 3.59 0 0 0 .24-2.69c-.28-1.37-2-6.75-1.57-8.2s.76-.76.76-.76 1.73 2.65 3.66 2.13 2.37-1.09 2.17-2.29-2-3.46-2.21-5.31-1.29-4.18-1-8.64-1.17-5.83-2.73-6.07-5.67.64-7 .76-10.84.97-11.44 1.01z" fill="#eedec6"/><path d="M86.81 68.83s1.25-1.09 1.65-.52 0 5.31 0 5.31.64 1.77 0 2-1.33.24-1.49-.24-.16-6.55-.16-6.55z" fill="#c66719"/><path d="M86.33 68.51c-.13 0-1.41.32-1.49.64s.24 3.26.28 3.78a13 13 0 0 0 1.33 2.53s.2-1.89.28-2.29.27-4.7-.4-4.66z" fill="#c4a076"/><path d="M93.32 67.91s1.25-1.09 1.65-.52 0 5.31 0 5.31.64 1.77 0 2-1.33.24-1.49-.24-.16-6.55-.16-6.55z" fill="#c66719"/><path d="M93.16 67.54c-.13 0-1.57.32-1.65.64s.08 6.43.12 7 1.85-.24 1.85-.24-.08-2.13 0-2.53.37-4.91-.32-4.87z" fill="#c4a076"/><path d="M99.79 67.06s1.25-1.09 1.65-.52 0 5.31 0 5.31.64 1.77 0 2-1.33.24-1.49-.24-.16-6.55-.16-6.55z" fill="#c66719"/><path d="M99.63 66.7c-.13 0-1.57.32-1.65.64s.08 6.43.12 7 1.85-.24 1.85-.24-.08-2.13 0-2.53.37-4.91-.32-4.87z" fill="#c4a076"/><path d="M105.86 66.38s1.25-1.09 1.65-.52 0 5.31 0 5.31.64 1.77 0 2-1.33.24-1.49-.24-.16-6.55-.16-6.55z" fill="#c66719"/><path d="M105.7 66c-.13 0-1.57.32-1.65.64s.08 6.43.12 7 1.85-.24 1.85-.24-.08-2.13 0-2.53.37-4.87-.32-4.87z" fill="#c4a076"/><path d="M104.58 77.62s1.32-.86 1.71-.35-.21 4.54-.21 4.54.57 1.55-.1 1.75-1.36.13-1.5-.29.1-5.65.1-5.65z" fill="#c66719"/><path d="M104.67 77.3c-.13 0-1.61.19-1.71.46s-.23 5.5-.21 6 1.9-.1 1.9-.1a18.83 18.83 0 0 1 .12-2.16c.1-.4.6-4.2-.1-4.2z" fill="#c4a076"/><path d="M95.43 67.4A.41.41 0 0 0 95 67s-2.81.3-3.3.38-.5.36-.5.36v1.41s-.16 4.4-.08 5.37.62.94.62.94 2.79-.28 3.24-.36.36-.4.36-.4.11-6.87.09-7.3zm-2.21 6.85c0 .58-.24.7-.82.66a.69.69 0 0 1-.66-.54V68.7c0-1.01.76-.82.76-.82.8 0 .8.4.8.4s-.04 5.39-.08 5.98zm1.65-6.15v5.69c0 .59-.28.76-.64.74a.39.39 0 0 1-.36-.4s0-5.27.06-5.81.42-.44.42-.44c.65-.01.52.23.52.23zM101.82 66.7a.41.41 0 0 0-.44-.4s-2.81.3-3.3.38-.5.36-.5.36v1.41s-.16 4.4-.08 5.37.62.94.62.94 2.79-.28 3.24-.36.36-.4.36-.4.12-6.88.1-7.3zm-2.21 6.85c0 .58-.24.7-.82.66a.69.69 0 0 1-.66-.54V68c0-1.01.76-.82.76-.82.8 0 .8.4.8.4s-.04 5.42-.08 5.97zm1.65-6.15v5.69c0 .59-.28.76-.64.74a.39.39 0 0 1-.36-.4s0-5.27.06-5.81.42-.44.42-.44c.62-.02.52.22.52.22zM106.42 77.22a.35.35 0 0 0-.37-.35s-2.4.22-2.82.28-.43.3-.43.3v1.2s-.2 3.75-.14 4.57.52.81.52.81 2.39-.2 2.76-.26.31-.34.31-.34.18-5.85.17-6.21zm-2 5.81c0 .5-.22.6-.71.55a.58.58 0 0 1-.56-.47s0-4 .11-4.83.66-.69.66-.69c.69 0 .68.35.68.35s-.12 4.6-.16 5.06zm1.49-5.22s-.1 4.35-.11 4.85-.25.65-.56.63a.34.34 0 0 1-.3-.35s.11-4.49.13-5 .37-.37.37-.37c.56.04.49.24.49.24z" fill="#5d3328"/><path d="M98.58 78.23s1.29-.83 1.66-.34-.24 4.41-.24 4.41.56 1.51-.1 1.7-1.33.13-1.46-.28.14-5.49.14-5.49z" fill="#c66719"/><path d="M98.67 77.92c-.13 0-1.57.18-1.66.44s-.22 5.35-.2 5.79 1.84-.1 1.84-.1a18.31 18.31 0 0 1 .12-2.11c.09-.32.58-4.01-.1-4.02z" fill="#c4a076"/><path d="M92.71 79.21s1.29-.83 1.66-.34-.21 4.41-.21 4.41.56 1.51-.1 1.7-1.33.13-1.46-.28.11-5.49.11-5.49z" fill="#c66719"/><path d="M92.8 78.9c-.13 0-1.57.18-1.66.44s-.22 5.35-.2 5.79 1.84-.1 1.84-.1a18.31 18.31 0 0 1 .12-2.11c.1-.32.58-4.02-.1-4.02z" fill="#c4a076"/><path d="M87 80s1.29-.83 1.66-.34-.21 4.41-.21 4.41.56 1.51-.1 1.7-1.33.13-1.46-.28S87 80 87 80z" fill="#c66719"/><path d="M87.14 79.72c.07 1.93-1.72 2-1.81 2.24s-.07 3.55-.06 4 1.84-.1 1.84-.1a18.31 18.31 0 0 1 .12-2.11c.1-.33-.12-4.75-.09-4.03z" fill="#c4a076"/><path d="M94.58 78.92a.34.34 0 0 0-.36-.34s-2.34.21-2.74.27-.42.29-.42.29v1.17s-.19 3.65-.14 4.45.5.79.5.79 2.32-.2 2.69-.26.31-.33.31-.33.17-5.69.16-6.04zm-1.92 5.65c0 .48-.21.58-.69.54a.57.57 0 0 1-.54-.46s0-3.87.11-4.7.64-.67.64-.67c.67 0 .66.34.66.34s-.14 4.47-.18 4.96zm1.45-5.08S94 83.73 94 84.21s-.24.63-.54.61a.33.33 0 0 1-.29-.34s.1-4.37.13-4.82.36-.36.36-.36c.53 0 .45.2.45.2zM100.73 77.95a.35.35 0 0 0-.37-.35s-2.4.22-2.82.28-.43.3-.43.3v1.2s-.2 3.75-.14 4.57.52.81.52.81 2.39-.2 2.76-.26.31-.34.31-.34.18-5.85.17-6.21zm-2 5.81c0 .5-.22.6-.71.55a.58.58 0 0 1-.56-.47s0-4 .11-4.83.66-.69.66-.69c.69 0 .68.35.68.35s-.11 4.59-.16 5.09zm1.49-5.22s-.1 4.35-.11 4.85-.25.65-.56.63a.34.34 0 0 1-.3-.35s.11-4.49.13-5 .37-.37.37-.37c.58.03.49.24.49.24zM107.93 66a.41.41 0 0 0-.44-.4s-2.81.3-3.3.38-.5.36-.5.36v1.41s-.16 4.4-.08 5.37.62.94.62.94 2.79-.28 3.24-.36.36-.4.36-.4.17-6.92.1-7.3zm-2.21 6.85c0 .58-.24.7-.82.66a.69.69 0 0 1-.66-.54V67.3c0-1.01.76-.82.76-.82.8 0 .8.4.8.4s-.04 5.35-.08 5.93zm1.65-6.15v5.69c0 .59-.28.76-.64.74a.39.39 0 0 1-.36-.4s0-5.27.06-5.81.42-.44.42-.44c.62-.06.52.18.52.18z" fill="#5d3328"/><path d="M115.77 57.92c-.06-.24-.28-.4-.92-.6s-7.28-1.17-7.28-1.17l-1-.2v-13a4.71 4.71 0 0 0-1.55-3.2c-1.45-1.11-2.83-1.39-3-1.93a1.16 1.16 0 0 1 .48-1.55c.68-.34 1.09-.28 1.41-1a57.17 57.17 0 0 0 1.35-6.27 1.29 1.29 0 0 0-.4-1.11 5.86 5.86 0 0 0-4.18-1.79c-2.43-.08-2.85 1-3.1 1.29s-2.51 3.27-2.9 3.78c-.13 0-.09.51 0 .84s-.46.2-1.53.74a6.19 6.19 0 0 0-3.48 3.72 17.91 17.91 0 0 0-.38 5.35s-.1-.24-.82-.4-5.71.08-5.71.08a.92.92 0 0 0-.82.78c-.1.7.08 2.27 0 2.61s-.4.56-.92.76a4.08 4.08 0 0 0-1.71 1 2.45 2.45 0 0 1-.38.34c0-.2-.45-.34-.57-.8a11.7 11.7 0 0 1-.66-2.63c.12-.36.44-.26.68-.94a.34.34 0 0 0 0-.24c0-.39 0-1.16.06-1.57a7.73 7.73 0 0 0-.2-2.37 1 1 0 0 0-.58-.49 1.09 1.09 0 0 0 0-.36v-.68a9.36 9.36 0 0 0 3.43 3.15 4.92 4.92 0 0 0 3.4.48 5.61 5.61 0 0 0 2.07-1.35c.22-.38.22-.76-1.07-1.13s-2.73-.66-3.4-2.21-1-1.91-.7-3.54l5.49-2.23s.7-.38.66-2a3 3 0 0 0-1.69-2.6 1.46 1.46 0 0 0-.64-.13 6.69 6.69 0 0 0-2.21.55c-.62.28-9.24 3-11.19 3.7s-2.69 1.11-2.91 1.71a6.89 6.89 0 0 0 .02 2.69c.14.7.38 1 1.47 1.31s1.29.82 1.25 1.37a3.32 3.32 0 0 1-.28 1 1 1 0 0 0-.66 1 37.68 37.68 0 0 0 .1 4c0 .18 0 .48.26.66s-.34.54-.6.88-.46.62-.68.66 0-.14 0-.64a1.41 1.41 0 0 0-.6-1.19c-.26-.2-.1-.3-.08-.8a33.69 33.69 0 0 0-.46-5c-.12-1.15-.7-1.69-1.11-1.79a20.87 20.87 0 0 0-3.36 0 5.31 5.31 0 0 0-2.11.5c-.6.46-.52 1.45-.5 1.77a32.86 32.86 0 0 1-.36 4.66c-.22.56-.6.68-.88 1.23s0 1.21-.14 1.27a27.07 27.07 0 0 0-3.56 1.51c-1 .64-2.83 1.83-3.2 3.2a5.6 5.6 0 0 0 .3 3.52 8.19 8.19 0 0 1 .44 2c-1 .11-12.82 1.46-13.7 1.9a1 1 0 0 0-.82.86 13.13 13.13 0 0 0 .22 2.87c.1.34.42.6 1.09.74l2.09.46a40.9 40.9 0 0 1 .74 6.63c0 .06-2.49 3.14-2.71 4.54a3.59 3.59 0 0 0 .26 2.73c.42.7 2.65.76 3.1.78a.63.63 0 0 0 .25 0c0 .88.21 3.46.21 3.46.14 1.15.88 7.28 1 7.75v.06c.11.44.25.81 1.42 1.27 1.51.58 1.43.56 1.41 1a2.12 2.12 0 0 0 .68 1.73c.64.62.8.48 2.31.38s3.46-1.77 3.46-1.77a9.63 9.63 0 0 0-.26 3.9c.28.84.78 1.49 1.73 1.41a4.9 4.9 0 0 0 3.14-2 13.78 13.78 0 0 0 1-1.44 1.52 1.52 0 0 0 1.13.55 2 2 0 0 0 1.77-.93s3.07.66 3.3 1.07a8.29 8.29 0 0 1 .48 1.16.47.47 0 0 1 0 .14 2.32 2.32 0 0 0 1.84 1c1.51.14 2.17-.2 2.59-.92a4.82 4.82 0 0 0 .37-1.24 12.54 12.54 0 0 0 2.49.26 5.26 5.26 0 0 0 .72.83c1.87 1.71 3.4.92 3.76.66a1.84 1.84 0 0 0 0-2.29s0-.4.88-.24 1 .46 1.83.2.78-.48 1.31-1 16-2.19 16.5-2.31 6.67-.82 8.12-1.53 1.57-1.39 1.79-2.79 3-21.61 3.07-22-.08-1.49.84-1.71 1.59-.36 1.95-1a4.62 4.62 0 0 0 .25-2.37zm-.89.64l-.24-.3a1.17 1.17 0 0 1 .25.29zm-7.71-1.32c-.26-.05-.64-.31-.44-.39.67.09 6.54.85 7.11 1l.23.08-28.75 3.8s0 .06-.18 0c0 0-.46-.46.2-.64s9.31-1.29 9.31-1.29l13.54-1.62s1-.1 1-.36-1.72-.53-2.02-.59zm-22.59-3.42a23.21 23.21 0 0 0 5.29-.28c.52-.12.7.06.68.14s.16 5.11.2 6c-2.49.33-6 .79-6.17.76s-1.39-.94-1.93-1.23a51.33 51.33 0 0 0-.47-5.64c.32.03 1.06.13 2.4.25zm-2.65-1.16a11.57 11.57 0 0 0-1.45-2.58.38.38 0 0 1 0-.31 24.35 24.35 0 0 0 6.88.55c3.54-.3 4.16-1.11 4.52-1.21s.64-.1 1 1.37.32 8.86.32 8.86l-1.75.24c0-.3-.07-3.64-.18-5.08s-.18-1.91-.46-2-.34 0-.7.08a16.36 16.36 0 0 1-5.39.7c-2.11-.28-2.72-.52-2.79-.62zM96.76 29.9L98 28.37l.28-.32s.64-1 1.35-1.15a5.58 5.58 0 0 1 4.34 1 .74.74 0 0 1 .38.8c-.06.44-.7 2.82-1.09 4.24a.18.18 0 0 1-.14.06 18.81 18.81 0 0 1-2.89-.92 14.62 14.62 0 0 1-3.26-1.59.4.4 0 0 1-.21-.59zm-.58.86c.18-.06.14.1 1.77 1.07a29 29 0 0 0 4.86 1.79 2.72 2.72 0 0 1 .18.21v.13c-.12.46 0 .66-.68.5A34 34 0 0 1 97 32.19a2.22 2.22 0 0 0-.34-.23c-.66-.54-.66-1.14-.48-1.19zm-5.65 6.35a4.3 4.3 0 0 1 2.11-2.75 10.67 10.67 0 0 1 3.68-1.17 21.39 21.39 0 0 1 3.28 1.35c.34.12 1.65.3 1.57.88s-.52.84-.48 1.79.26 1.39 1.65 2.07 2.75 1.55 3.12 2.49 0 1.25-.66 1.45-1.83.52-5.57.56-6.25-.1-7.11-.18c0 0-1.57-.24-1.81-.8a44 44 0 0 1 .22-5.68zm-.12 6.65c.39 0 1.34.13 2.28.29a48 48 0 0 0 6.57.4 32.58 32.58 0 0 0 5.25-.36c.62-.16.66-.52 1-.36s.18 13.81.18 13.81 0 .22-.62.3L94.29 59.2s-.26-8.28-.38-9a7.47 7.47 0 0 0-2.45-4.3 4.37 4.37 0 0 1-1.15-.9 1.46 1.46 0 0 1-.14-.66s-.08-.44.23-.58zm-7.59-1.24c.4-.4 5.33-.28 5.85-.08s.38 1 .42 1.19c0 0 .16.82-.24 1.25l-.06.07a4.09 4.09 0 0 1-1.91.23 17.8 17.8 0 0 1-3.75-.18c-.3-.16-.46-.28-.52-.86s-.2-1.22.2-1.62zM82.65 46a22.09 22.09 0 0 1 3.42.14 12.23 12.23 0 0 0 2.81-.14 3.36 3.36 0 0 1 2 .28 1.3 1.3 0 0 1 .26 2c-.36.3-1.81.78-4.46 1.07a15.74 15.74 0 0 1-5.32-.35s-1.37-.36-1.49-1.39 2.24-1.47 2.78-1.61zm-1.17-8.8c1.67 1.89 3.24 1.37 3.6 1.61s-.12.94-1.25 1.09a5.8 5.8 0 0 1-3.5-1.11 5.31 5.31 0 0 1-2.66-3.59v-.47a3.07 3.07 0 0 1 1.59-1.67 4.84 4.84 0 0 1 .68-.3 6.68 6.68 0 0 0 1.55 4.46zm1.07-6.15c-.5.14-.74.06-1.27-.64a2.59 2.59 0 0 1-.54-2 2 2 0 0 1 .47-1l1.28-.41c.16 0 .29 0 .32.12.08.24-.16.62 0 1.37a3.87 3.87 0 0 0 .68 1.63c.29.32-.44.81-.94.95zm3.6-4.34s1 1.45.46 2.29a1.45 1.45 0 0 1-2.07.52 2.38 2.38 0 0 1-.74-2.19 1.32 1.32 0 0 1 .73-1.08 1.76 1.76 0 0 1 .58-.12 1.64 1.64 0 0 1 1.04.6zm-15.6 7.66a1.59 1.59 0 0 1-.8-1.87 2 2 0 0 1 1.08-1.5c.68-.36 7.5-2.53 7.5-2.53l1-.36c.16 0 .3 0 .35.14.16.36-.08 1.19.24 2s.86.94.88 1.15-.24.32-.9.66h-.16a6.37 6.37 0 0 0-3 2.23 7.55 7.55 0 0 0-.42 2.91c0 .4-.22.64-.5.68s-1.53 0-2 0-1-.06-1.09-.66a4.34 4.34 0 0 0-.67-2.22 5.17 5.17 0 0 0-1.51-.62zM77 42.06v-3.14a.21.21 0 0 1 0-.11.81.81 0 0 1 .42.47 3.42 3.42 0 0 1-.42 2.78zm-.36-3v3.26a3.38 3.38 0 0 1-.91.34v-3.7a.19.19 0 0 1 .16-.2h.57s.15 0 .19.24zm-1.31 0v3.57a.25.25 0 0 1 0 .11l-.55.05h-.25v-3.84a.19.19 0 0 1 .08-.17h.52a.32.32 0 0 1 .2.22zm-1.18 0v3.57a.21.21 0 0 1-.08.17 4.75 4.75 0 0 1-.9-.12s-.07-.1-.07-.16v-3.54a.17.17 0 0 1 .13-.18H74a.33.33 0 0 1 .16.2zm-1.4 0v3.27s0 .13-.1.16a1.1 1.1 0 0 1-.54-.46 6.57 6.57 0 0 1-.32-2.29.89.89 0 0 1 .7-.94.28.28 0 0 1 .27.2zm-.28 4.7c.42 0 2.83.1 3.46.12s.76.74 1.13 1.63.82 2.07.82 2.07.62 1.15 1 1.71l.09.11a2.11 2.11 0 0 1 .13.39c1 1.15 2.31 5.29 2.45 6.37s.22 2-.14 2.45-.4.3-1 .18a8.4 8.4 0 0 0-2.23.06c-.7.08-1.71.54-1.85.34a6.45 6.45 0 0 1 0-1.61 7.57 7.57 0 0 1 .67-2.22 8.23 8.23 0 0 0 .52-3.07 7.21 7.21 0 0 0-1.85-4.16 10.74 10.74 0 0 0-3.3-2s-1.19-.4-1.17-.86a2.39 2.39 0 0 1 1.28-1.52zm-10.22-4.15c.08-.62.16-2.73.54-3a6.64 6.64 0 0 1 3.6-.34c1.22.17 1.4.67 1.43.89v.1c0 .04.18 2.19.3 3s.42 1.49 0 2.09-1.91.9-4.08.74c0 0-1.37-.18-1.63-.62a7.48 7.48 0 0 1-.16-2.86zM57.35 47c.22-.6.94-.76 2-1.11a12.83 12.83 0 0 1 3-.36c.64-.06 1.58.23 1.65-.08s-1-.27-1.29-.32c-1.67-.29-1.57-.76-1.47-1a1 1 0 0 1 1-.46c.42.08 1.83.22 1.83.22a29.49 29.49 0 0 0 3-.08c.9-.12 1.57-.18 1.83.06s0 .76-.94 1a11.55 11.55 0 0 1-2.23.32c-.24 0-.6.38.58.4A26 26 0 0 0 69 45.4a6.56 6.56 0 0 1 2.89 1.17.66.66 0 0 1 .08.94 3.19 3.19 0 0 1-1.33.78 18.67 18.67 0 0 1-1.93.5 35 35 0 0 1-7.71-.06c-2.79-.48-3.87-1.1-3.65-1.73zm-3.22 3.2a4.64 4.64 0 0 1 2.19-3c.16-.16.16 0 .16 0a4.55 4.55 0 0 0 1.07 1.31 8 8 0 0 0 3.86 1.15 50.22 50.22 0 0 0 6.65 0 7.92 7.92 0 0 0 2.95-.6h.17c1.31-.4 1.43-.84 1.87-1a1.71 1.71 0 0 1 1.59.14 4.82 4.82 0 0 1 1.81 3.16 5 5 0 0 1 0 1v.06c-.28 1.33-2.45 1.81-3.8 2.11s-2.91.44-7.94.38-7.94-.24-8.78-.92a3.86 3.86 0 0 1-1.8-3.77zm22 3.82a5.46 5.46 0 0 1-.19.62 8.6 8.6 0 0 0-.68 2.61c-.1 1.21-.16 2.21-.48 2.41s-.62.32-2 .14a59 59 0 0 0-6.07-.16 4.32 4.32 0 0 0-2.49.68s-.22.08-.32 0a6.23 6.23 0 0 0-2-.72c-.82-.08-2.35.44-3.64.4a4 4 0 0 1-2.29-.68A18.94 18.94 0 0 0 55.6 57v-.06a20.33 20.33 0 0 0-.45-2.05v-.06c.14-.34.88.06.88.06 1.87.58 6.37.8 9.57.84a43.21 43.21 0 0 0 7.82-.54A6.67 6.67 0 0 0 76.15 54zm-21.85 3.26a.34.34 0 0 1 .3.27l.07 1.32a.12.12 0 0 0-.05 0c-.16.28-.6.32-1.43.24a38.53 38.53 0 0 1-5-1c.15-.11 5.01-.69 6.11-.83zm-13.57.31s11.54-1.85 12.42-1.85 1.21.46 1 .72S43.22 57.78 43.24 58s7.58 1.93 7.36 2.13a2.36 2.36 0 0 1-.92.29c-1.28-.24-6.38-1.18-7.22-1.53s-1.91-.66-1.89-1.12a.42.42 0 0 1 .14-.17zm.72 3.16c-.68-.22-1.09-.12-1.19-.74s-.16-1.07.3-1 8.4 2.07 8.58 2.25-.22.48-.26.54-.18.7-.48.6-3-.84-3-.84-3.27-.56-3.95-.81zm6.17 2.43a15.73 15.73 0 0 0-1.49 2.15c-.36.76-.72 1.61-1.11 1.65s-.32-.4-.38-1A15.67 15.67 0 0 0 44.4 64c-.12-.44-.42-1.28-.08-1.57a19.58 19.58 0 0 1 3.28.75zM46 79.9c-.1-.77-.31-2.46-.31-3a4.27 4.27 0 0 1 .17-1.23l.23-.22A45 45 0 0 0 49.47 72c.74-1 2-3.34 2.47-3.66s.74-.42.86.44a9.07 9.07 0 0 1-1.39 6 29.51 29.51 0 0 1-4.5 5.67c-.56.55-.82.02-.91-.55zm2 7.7a3.3 3.3 0 0 1-1.18-2.42v-.07a3.05 3.05 0 0 0 2.07.1 11.65 11.65 0 0 0 4.3-2.51c.62-.76 1.07-1.33 1.15-1.15a.51.51 0 0 1 0 .27.78.78 0 0 0-.07.19c0 .09 0 .18-.08.29v.1a9.11 9.11 0 0 1-1.25 2.4 26.53 26.53 0 0 1-2.31 2.75 1.92 1.92 0 0 1-2.63.05zm12.34-1.79a43.83 43.83 0 0 0-.2 4.84 7.63 7.63 0 0 1-1.14 2.8c-.66 1.13-1.77 1.37-2.41.76s-.74-2.39-.44-3.42 1.61-4.68 1.61-4.68c.08-.26 1.21-2.83 1.45-3.76S59.3 81 59 80.79s-1.53 3.72-1.85 4.66a11.56 11.56 0 0 1-2.49 3.68 6.63 6.63 0 0 1-2.79 1.77c-.78.2-1.81.32-1.87-.48s.62-1.53 1.17-2.17 3-3.5 3.38-4.06a8.48 8.48 0 0 0 .58-2.29s.52-2.07.64-2.77.1-1.61 0-1.49S53.87 81 52.46 82s-3.66 2.45-4.66 2.33a1.24 1.24 0 0 1-.94-2.07c.7-1.13 2.13-2 4.8-5.35a11 11 0 0 0 2.43-7.48c0-.76-.22-3-1-3.07s-3.28 3.05-4.14 4.14-2.23 4.06-4.76 4.44S41.81 74 42 73.35a25.5 25.5 0 0 1 2.69-4 .8.8 0 0 0 .13-.23S47.9 64.6 48.38 64l1-1.43A14.66 14.66 0 0 1 51.14 61a6.68 6.68 0 0 1 2.62-.62c1.11 0 3.6.72 4.9.82s3.14-.2 3.68 0 .74 1.35.74 1.35v1.61a19.83 19.83 0 0 1-.4 3 46.23 46.23 0 0 0-.53 4.84c-.1 1.51-.6 5.51-.62 6.29s-.87 6.14-1.17 7.52zm7.09 1s-.36 1.23-.52 1.81a16.52 16.52 0 0 0 0 2.25c-.06.68-.6.56-1 .54a3.69 3.69 0 0 1-1.51-.56c-.16-.18.14-.54.14-.54a32.24 32.24 0 0 1 1.31-5.06c.6-1.25 1-2.73 1.53-2.75a5.69 5.69 0 0 1 .18 1.11 16.85 16.85 0 0 1-.1 3.17zm5.08 5.13a27.57 27.57 0 0 0 .27-3.38A18.09 18.09 0 0 0 74 92zm10-2.11c-.24 1.15-.12 1.45-.86 1.71a1.68 1.68 0 0 1-1.93-.88 11 11 0 0 1-1.33-5.15c-.14-2.93.3-4.28.06-4.54s-.48-.14-.86.82a12.39 12.39 0 0 0-.54 5 24.38 24.38 0 0 0 1.07 5.35c.48 1.51.48 1.95-.06 2.31s-1.23-.08-1.89-.72-1.89-3.07-2.53-6.91-.7-6.41-1.13-6.49-.38.22-.5 1.09-.18 5.06-.16 6.47.22 5.19-1.35 6.23c-1.25.84-1.82-.2-2.24-.8a2.11 2.11 0 0 1-.6-1.63c0-1.17.58-3.34.88-5.21a25.75 25.75 0 0 0 .1-4.86c0-.48-.18-1.73-.4-1.67a10 10 0 0 0-1.29 1 4.46 4.46 0 0 0-.68 1.05c0 .1-2.81 7.56-3 8.5a2 2 0 0 1-.72 1.21c-.46.24-1.35-.54-1.35-.54.06-.8-.06-2.65.06-3.9s.84-4.4 1-5.55.78-7.54.84-8.56.46-5.08.48-6.07c0-.83.31-3.08.4-3.75a1.55 1.55 0 0 0 .11-.41c.22-1.51 1.67-1.67 3.16-1.89s6.75-.16 7.92-.2 2.89-1 4.3-1.13a12.47 12.47 0 0 1 2-.06h.09a3.54 3.54 0 0 1 1.6.88 4.12 4.12 0 0 1 .64 1.92.63.63 0 0 0 0 .09s.08 1.51.1 2.27.08 3.68.1 4.6a8.65 8.65 0 0 0 .68 3.66c.68 1.61 2.53 4.94 2.39 6s0 2.19-1.53 2.17-2.39-.22-3.2-1.87a19.45 19.45 0 0 1-1.59-4.3A14.25 14.25 0 0 0 79.9 72a4.79 4.79 0 0 1-.78-2.33c0-1.15.12-2.09-.14-2s-.58.62-.54 2.23a9.57 9.57 0 0 0 .92 3.72 11.44 11.44 0 0 1 1.13 4.52 34.16 34.16 0 0 0 .78 5.83c.38 1.64 1.48 4.68 1.24 5.82zM86.59 75a17.57 17.57 0 0 1-1.23-3.31c0-.13-.05-.27-.08-.42s0-.11 0-.19-.18-1.71 0-1.85.18-.4.6-.4.72.12.7.92.01 4.37.01 5.25zm.64-5.78s.14-.52.6-.56a.57.57 0 0 1 .64.48v6s0 .42-.9.4c0 0-.4-.2-.44-.52s.1-5.85.1-5.85zm-.48 16.62c-.12.36-1 .28-1 .28s-.36.16-.38-.92v-2.59a3.67 3.67 0 0 0 1.07-.12 1.21 1.21 0 0 0 .36-.19 34.59 34.59 0 0 1-.05 3.49zm21.81-1.41a3 3 0 0 1-.92 1.67c-.6.54-4.14 1.21-6.53 1.61s-16.18 2.27-16.6 2.27-.64.12-1.07-1-.94-3.6-1.15-4.26a14.26 14.26 0 0 1-.32-4c.2-.26 1.11 1 1.81 1.45a2.74 2.74 0 0 0 1.07.34l.1 3.3s0 .68.46.74a29.56 29.56 0 0 0 3.16-.36s.26 0 .28-.86 0-5.69 0-5.69a.41.41 0 0 0-.4-.38 1.2 1.2 0 0 0-.37 0 5.21 5.21 0 0 0-.61-2.76l-.17-.26 1.32-.14s.5 0 .48-.9 0-5.89 0-5.89v-1.18s0-.3-.66-.24-2.76.35-3.48.45a13.42 13.42 0 0 1 0-1.94v.08s-.06-1 .68-1.13 11.05-1.48 12.28-1.63L110 62c.44-.06 1.29-.24 1.57.08S108.6 84 108.56 84.39zm-21.1-2.87a3.9 3.9 0 0 0 .54-1.63c.09 0 .24 0 .27.16s-.22 5.49-.22 5.49-.24.38-.4.08a31.24 31.24 0 0 1-.19-4.15zm27.07-21.32a24.22 24.22 0 0 1-3.26.58L98 62.7l-1.23.18-10.88 1.41s-.58.1-.7-.78 1-.92 1.19-.92 28.28-3.94 28.28-3.94a.68.68 0 0 1 .28 0 .79.79 0 0 1 .06.25c0 .46.15 1.03-.47 1.29z" fill="#5d3328"/></svg>