<svg xmlns="http://www.w3.org/2000/svg" width="120" height="120" viewBox="0 0 120 120"><title>work-2</title><rect width="120" height="120" fill="none"/><path d="M36.35,6.28s3-1.22,3.53-1.55a14.17,14.17,0,0,1,4.83-1c1.73,0,3.78-.47,4.72-.36A3,3,0,0,1,51,4s1.08,0,2,0a8.82,8.82,0,0,1,2.63.68L60,6c.72.22,1.73,1.3,2.66,1.76s5.74,5,6.18,6.45,2.52,4.21,2.74,5.19,1.22,6.55-.4,9-4.43,6.09-6,6.84a29.62,29.62,0,0,0-3.85,2.52,15.12,15.12,0,0,1-4.54,1.26H54.64a7.14,7.14,0,0,0-1.37.25c-.18.07-.25-1.76-.25-1.76a26.54,26.54,0,0,1-7.35,1.08,36.64,36.64,0,0,1-5.4-.83s1.1,1.57.81,1.82a7.35,7.35,0,0,1-2.93.18c-.79-.11-3.67-1-3.67-1l-1.69-.81a21.93,21.93,0,0,0-2-1.31,52.61,52.61,0,0,1-5.08-6.27A17.36,17.36,0,0,1,24.4,24a22.06,22.06,0,0,1,1.49-7.67A15.62,15.62,0,0,1,30.59,10c1.15-.68,4.14-2.38,4.14-2.38Z" fill="#cd9a56"/><path d="M43.25,13.46a5.07,5.07,0,0,0-1.07,1.44c-.23.59-.36,2.75-.58,3.08s-.82.39-1.23.35a3.53,3.53,0,0,1-1.12-.55c-.05,0-2.66.78-3,.81s-3.58.8-3.79.85-1.62.35-1.69.38a2.78,2.78,0,0,0-1.39,1.71,3.1,3.1,0,0,0,.14,2.15,2.22,2.22,0,0,0-.82,1,4,4,0,0,0,.58,2.51,10.74,10.74,0,0,0,1.86,1.3,12.45,12.45,0,0,0,2,3.61,15,15,0,0,0,7.1,5.59c3.89,1.62,9.28.84,9.41.82a15.18,15.18,0,0,0,5.83-2.05s3-2.23,3.9-3.11a20.66,20.66,0,0,0,3-3.89,5,5,0,0,0,.38-1.05,2.12,2.12,0,0,0,1.89-1.32c.8-1.43.36-3.09-.28-3.44a4.13,4.13,0,0,0-2.26,0c-.36.07-1.27-.74-1.5-1.73s-2.66-3.4-2.66-3.4a14.79,14.79,0,0,1-2.85-.05c-1.08-.19-3.19-.43-4-.66a14.08,14.08,0,0,0-3.93.24,20.83,20.83,0,0,1-2.43.85c-.14-.12-.07-.76-.07-1S43.25,13.46,43.25,13.46Z" fill="#f2ddca"/><path d="M40.78,24.18a1.58,1.58,0,0,0-.54-1.09,2.06,2.06,0,0,0-1.5-.59,13.47,13.47,0,0,0-2.33,0,6.51,6.51,0,0,0-1.14,1.08c-.32.35,0,.59.15.69a3.3,3.3,0,0,0,1.29.62,14.22,14.22,0,0,0,2.07-.07c.41-.09,1.2-.41,1.49-.42S40.73,24.3,40.78,24.18Z" fill="#fff"/><path d="M39.33,22.77a1.16,1.16,0,0,1,.32,1,1.66,1.66,0,0,1-1.24,1.11A1.47,1.47,0,0,1,37,24.4c-.08-.24-.53-.91-.41-1.25S38.54,21.44,39.33,22.77Z" fill="#b5d0ed"/><path d="M48.92,24.11A1.58,1.58,0,0,1,49.46,23a2.06,2.06,0,0,1,1.5-.59,11.84,11.84,0,0,1,2.29.29,4.34,4.34,0,0,1,1.19.78c.32.35,0,.59-.15.69a4.22,4.22,0,0,1-1.4.41,13.46,13.46,0,0,1-2,.14c-.41-.09-1.2-.41-1.49-.42S49,24.22,48.92,24.11Z" fill="#fff"/><path d="M50.81,22.7a1.16,1.16,0,0,0-.32,1,1.66,1.66,0,0,0,1.24,1.11c.59.12,1.45-.07,1.53-.32a3.26,3.26,0,0,0,.27-1.4C53.41,22.76,51.6,21.38,50.81,22.7Z" fill="#b5d0ed"/><path d="M25,18.52a13.54,13.54,0,0,0,1.89-2A25,25,0,0,1,30.17,12a28.4,28.4,0,0,1,2.19-2l-1.27,2.75a5.71,5.71,0,0,1,1.78-1.57,4.94,4.94,0,0,1,1.19-.35A16.73,16.73,0,0,0,32.79,13a21.75,21.75,0,0,0-.19,3.67c0,.43.14,1.16.14,1.16A13.21,13.21,0,0,1,34.22,13c1.16-1.73,1.81-3.19,4.43-4.59S41.78,6.9,42.21,7s0,.89,0,.89A27.58,27.58,0,0,0,41,10.63a9.11,9.11,0,0,1,1.57-1.86,16.27,16.27,0,0,1,2-1.49,26.38,26.38,0,0,0-1.16,4.48c0,1.05.49,4.11.49,4.11l.51,1.35a11.41,11.41,0,0,1,.76-4.89c1-2.43,1.46-4.7,3.32-5.27a2.69,2.69,0,0,1,3.29,1.24,11.49,11.49,0,0,1,.73,2.19s.08-1.89,0-2.32.59-.51.95-.41a6.06,6.06,0,0,1,3.21,2.54A14.85,14.85,0,0,1,58.2,15s.59-3.65.19-4.35a13.19,13.19,0,0,0-2.13-2.92s-.16-.7,1-.49a8,8,0,0,1,3.05,1.05s-1.38-1.19-2.05-1.73-3.78-2.3-3.94-2.4a13.06,13.06,0,0,0-1.92-.27l-1.24-.05-1-.54-3.65.41L45.15,3.5l-4.65.81L37,5.9,33.73,8.17l-1.51.57-3.56,3.11a39.12,39.12,0,0,0-2.75,3.81c-.08.43-1,2.92-1,2.92Z" fill="#dbb680"/><path d="M26.9,19.87a20.22,20.22,0,0,0-1,6.51,19.45,19.45,0,0,0,1.84,6.48c.24.24-1.19-1-1.27-1a29.73,29.73,0,0,1-1.67-4.29c-.24-1.11-.38-3.81.16-4.94A9.9,9.9,0,0,1,26.9,19.87Z" fill="#dbb680"/><path d="M33.71,42.82a34.36,34.36,0,0,1,3.49-2,25.94,25.94,0,0,1,3.06-1l.76-.11L40.91,38s3.93.72,4.93.72A50.27,50.27,0,0,0,51.36,38a4.07,4.07,0,0,0,1.4-.65L53,39.47a25.21,25.21,0,0,1,3.85.58,14.41,14.41,0,0,1,5,2.63c1.69,1.66,4.4,2.21,6.08,3.24,1.14.7,2.44.42,3.16,1.3.38.46,2.81,1.3,4.62,2.21,1.37.7,2.91.82,2.94,1a2.46,2.46,0,0,0,.19,1.35c.31.72,2-.08.76,2.62-.8,1.71-1.29,8.22-3.08,9-1.41.65-5.22-.3-7.75-1.84-1-.62-.67-1.75-1.65-2.27a8.75,8.75,0,0,0-4.46-1c.14.54-.28,7.1.08,8s.35,6.45.35,6.45,0,2.12,0,2a2.63,2.63,0,0,1,.32,1.69c-.11.94,0,1.69-.65,1.76s-5.47,1.26-6.41,1.48a47,47,0,0,1-5.11.43c-.14,0-5-.07-5.19-.14s-12.19.7-11.9-1.17a27.71,27.71,0,0,0,0-7c-.18-2.23.07-4.95-.62-5.32C33.13,66.25,32.3,68.21,31,68c-3.62-.65-5.81-1.94-6.27-5.78-.17-1.46-.88-2.84-.95-4.46a14.18,14.18,0,0,1,2.48-8.24C28.17,46.91,30.9,45.89,33.71,42.82Z" fill="#fff"/><ellipse cx="41.81" cy="65.93" rx="2.3" ry="2.55" transform="translate(-3.9 2.64) rotate(-3.46)" fill="#e18020"/><ellipse cx="35.26" cy="70.43" rx="1.64" ry="2.74" transform="translate(-4.18 2.25) rotate(-3.46)" fill="#e18020"/><ellipse cx="48.15" cy="72.46" rx="2.55" ry="2.3" transform="translate(-35.05 97.9) rotate(-73.4)" fill="#e18020"/><ellipse cx="39.38" cy="44.81" rx="2.3" ry="2.55" transform="translate(-12.7 15.72) rotate(-19.51)" fill="#e18020"/><path d="M62.9,66.16a1.92,1.92,0,0,1-1.51,1,2.48,2.48,0,0,1-.29-4.86,1.8,1.8,0,0,1,1.16.35C62.82,63,63.16,65.72,62.9,66.16Z" fill="#e18020"/><ellipse cx="44.91" cy="50.54" rx="0.79" ry="0.77" fill="#efe6da"/><path d="M40.4,98.27c-.18.14,1.24,6.16,1.24,6.16a12.61,12.61,0,0,0,4.81,1c2.05-.16,2.48-1.19,2.48-1.19a6.18,6.18,0,0,0,.86.86c.32.22,5.51-.43,5.51-.43a8.14,8.14,0,0,0,1.78-.7c0-.16,1.13-2.92,1.13-2.92a17.75,17.75,0,0,0,.11-3c-.16-.27-2.05.65-3.24.65s-3,.05-3.94-.49-1.57-1-1.57-1a8.24,8.24,0,0,1-3.24,1.35,10.38,10.38,0,0,1-4.54-.38C40.56,97.73,40.62,98.11,40.4,98.27Z" fill="#c4a076"/><path d="M35.27,103.62a9.52,9.52,0,0,1,3.29.22,46,46,0,0,0,5.19,1.46A7.94,7.94,0,0,0,48,105c1.51-.7,1.62.38,1.62.38l3.62-.43c.92-.11,3.56-.59,4.59-.27a8.61,8.61,0,0,1,2.65,2.16c.38.38,1.94,2.43,1.62,3.51a4.3,4.3,0,0,1-3.62,2.59c-1.78.11-6.16.65-7.56.38s-1.67-1.08-2.11-2.43l-.43-1.35a11.87,11.87,0,0,1-2.65.43c-1.13,0-6,1.4-7.72,1.4a21,21,0,0,1-4.86-.49,5.41,5.41,0,0,1-1.51-2.27,4.42,4.42,0,0,1,.65-3.19A4.61,4.61,0,0,1,35.27,103.62Z" fill="#ddad29"/><path d="M45,80.07s4.86.16,5.73.11a42.33,42.33,0,0,0,6.75-.59c2.38-.54,3.78-1.13,4.05-.11s.49,4.81,0,6a6.61,6.61,0,0,0-.32,2.86c0,.59.32,6-.49,7.08s-1,2-3.08,2.43-2.7,1-4.16.81-2.43-.16-3-.81a6.67,6.67,0,0,0-1.08-1,3,3,0,0,1-2.11,1.4c-1.62.38-2.7.76-4.7.05A9.34,9.34,0,0,1,39.81,97,12.72,12.72,0,0,1,38,92.76a43.14,43.14,0,0,1-.16-6.1l-1-2.86s-1.16-3.06-.08-4S45,80.07,45,80.07Z" fill="#e18020"/><path d="M60.22,79.42s.14,2.81.16,3.56a14.79,14.79,0,0,1-.05,3.08,19.34,19.34,0,0,0-.3,3.4A26.69,26.69,0,0,1,60,94.11a11.79,11.79,0,0,1-.59,1.38,4,4,0,0,1,.08,1.4c-.14.43.46-.05.7-.57A4,4,0,0,0,61,94.38,44,44,0,0,0,61.2,89a21.41,21.41,0,0,1,.35-3.65c.08-.38.22-4.48.16-5.4S60.66,78.44,60.22,79.42Z" fill="#c66719"/><path d="M56.23,80s.24,1.81.46,2.62a15.92,15.92,0,0,1,.68,4.43,31.62,31.62,0,0,0-.3,3.78c0,1.51.16,3.73.14,4.56A7.16,7.16,0,0,1,57,97.67c-.24.59,1.57-1.19,1.57-1.19s.14-4.78.22-6,.49-2.89.49-4.13-.59-3.59-.7-4.67a8.22,8.22,0,0,1,.16-2.27Z" fill="#c66719"/><path d="M52.15,80.52s.76,3.43,1.13,5.19.27,4.86.54,6.43.24,2.73.38,3.83.41,2.62.41,2.62,1.35-.05,1.57-.35-.32-5.37-.49-6.24,0-3.24-.11-4.13-.78-4.81-.95-5.37a7.39,7.39,0,0,1-.11-2.24A10.7,10.7,0,0,0,52.15,80.52Z" fill="#c66719"/><path d="M48.42,80.34s.49,2.92.59,3.43.89,3.86,1.13,4.81.46,4.86.51,5.89.32,3.19,1.22,3.86a1.78,1.78,0,0,0,1.65.38,11.43,11.43,0,0,1-.86-3.46c-.3-2.35-.24-4.73-.43-5.73s-.73-5.4-1.24-6.59a7.47,7.47,0,0,1-.49-2.67Z" fill="#c66719"/><path d="M45.61,80.55s.46,2.35.59,3.08.89,3.94,1.05,4.83.46,3.4.7,4.86a22,22,0,0,1,.51,3.59,4.87,4.87,0,0,1-.14,1l-1.49.62s0-.41-.08-1.43-.7-4.19-.86-5.29-.73-5.43-.92-6.27a25.74,25.74,0,0,1-.54-5.05C44.61,79.8,45.61,80.55,45.61,80.55Z" fill="#c66719"/><path d="M42.59,80.22s1.27,7.08,1.46,7.6.32,2.62.57,4.08.7,4.13.89,4.92.51,1.59.35,1.84-1.46,0-1.46,0a6.93,6.93,0,0,1-1.24-3c-.22-1.67-.57-4.94-.73-6.08s-1.76-9.73-1.76-9.73A12.92,12.92,0,0,1,42.59,80.22Z" fill="#c66719"/><path d="M38.24,79.49s1.54,5.84,1.81,6.38a6.72,6.72,0,0,1,.65,2c.16.89-.11,2.51.22,4s.84,4.51,1.46,5.62,1,1.05,1,1.05a23.91,23.91,0,0,1-2.73-1c-.76-.41-1.49-5.27-1.59-6.51a39.63,39.63,0,0,0-.22-4c-.19-.35-2-6.38-1.81-7.11S38.24,79.49,38.24,79.49Z" fill="#c66719"/><ellipse cx="54.82" cy="47.67" rx="2.3" ry="2.55" transform="translate(-12.77 21.04) rotate(-19.51)" fill="#e18020"/><ellipse cx="64.37" cy="52.06" rx="2.55" ry="2.3" transform="translate(-6.71 94.51) rotate(-69.82)" fill="#e18020"/><ellipse cx="73" cy="55.89" rx="2.69" ry="2.09" transform="translate(-4.64 105.13) rotate(-69.82)" fill="#e18020"/><ellipse cx="38.38" cy="53.5" rx="2.55" ry="2.3" transform="translate(-25.94 67.63) rotate(-66.73)" fill="#e18020"/><ellipse cx="33.07" cy="51.75" rx="2.21" ry="1.99" transform="translate(-27.53 61.69) rotate(-66.73)" fill="#e18020"/><ellipse cx="27.1" cy="62.91" rx="2.46" ry="2.16" transform="translate(-41.4 62.96) rotate(-66.73)" fill="#e18020"/><path d="M27.21,47.78a2.4,2.4,0,0,1-.1.26,3.67,3.67,0,0,1-.79,1l0,0-.19.27a5.61,5.61,0,0,0-.31.47l-.07.1,0,.09,0,.14c-.07.2-.13.4-.18.6-.11.39-.2.79-.32,1.18a1.51,1.51,0,0,1-.24.46l.18.09a2.57,2.57,0,0,0,2.13-4.64Z" fill="#e18020"/><path d="M36.36,41.15l-.21.18a3.67,3.67,0,0,1-1.15.5h0l-.3.15a5.61,5.61,0,0,0-.49.27l-.11.06-.07.06-.11.1c-.15.14-.29.29-.43.45s-.54.61-.83.9a1.51,1.51,0,0,1-.42.29l.12.16a2.57,2.57,0,0,0,4-3.14Z" fill="#e18020"/><path d="M61.72,42.87a2.31,2.31,0,1,1-3.85-2.5C59.6,41.26,60.74,41.55,61.72,42.87Z" fill="#e18020"/><ellipse cx="57.31" cy="57.07" rx="2.55" ry="2.3" transform="translate(-16.11 90.99) rotate(-69.68)" fill="#e18020"/><path d="M67.59,56.55a2.43,2.43,0,0,0-3,1.6c0,.07,0,.15-.07.22a1.32,1.32,0,0,1,.71.39,1.34,1.34,0,0,1,.34.23h0a1.32,1.32,0,0,1,.82.28l.26,0A1.37,1.37,0,0,1,68,60.3a1.42,1.42,0,0,1,.31.4,2.77,2.77,0,0,0,.6-1A2.43,2.43,0,0,0,67.59,56.55Z" fill="#e18020"/><path d="M69.75,48.95a1.81,1.81,0,0,0,2.2-1.29l0-.16a1,1,0,0,1-.54-.26,1,1,0,0,1-.26-.16h0a1,1,0,0,1-.62-.18l-.19,0a1,1,0,0,1-1-.74,1.05,1.05,0,0,1-.24-.29,2.06,2.06,0,0,0-.41.73A1.81,1.81,0,0,0,69.75,48.95Z" fill="#e18020"/><ellipse cx="48.15" cy="56.39" rx="2.3" ry="2.55" transform="translate(-11.34 12.13) rotate(-12.86)" fill="#e18020"/><ellipse cx="51.8" cy="64.68" rx="2.3" ry="2.55" transform="translate(-13.1 13.15) rotate(-12.86)" fill="#e18020"/><ellipse cx="57.42" cy="70.73" rx="2.3" ry="2.55" transform="translate(-4.16 3.59) rotate(-3.46)" fill="#e18020"/><circle cx="51.4" cy="23.23" r="0.33" fill="#fff"/><circle cx="37.73" cy="23.23" r="0.33" fill="#fff"/><circle cx="43.01" cy="39.76" r="0.34" fill="#5d3328"/><circle cx="44.93" cy="39.33" r="0.31" fill="#5d3328"/><circle cx="48.65" cy="39.38" r="0.31" fill="#5d3328"/><circle cx="50.49" cy="39.89" r="0.31" fill="#5d3328"/><circle cx="52.24" cy="38.65" r="0.31" fill="#5d3328"/><circle cx="46.98" cy="42.4" r="0.31" fill="#5d3328"/><circle cx="45.03" cy="43.97" r="0.31" transform="translate(-4.8 82.41) rotate(-81.96)" fill="#5d3328"/><circle cx="47.27" cy="45.97" r="0.31" transform="translate(-4.85 86.35) rotate(-81.96)" fill="#5d3328"/><circle cx="49.49" cy="43.51" r="0.31" transform="translate(-0.51 86.43) rotate(-81.96)" fill="#5d3328"/><circle cx="49.54" cy="47.45" r="0.31" transform="translate(-4.37 89.88) rotate(-81.96)" fill="#5d3328"/><circle cx="49.38" cy="51.1" r="0.31" transform="translate(-8.12 92.85) rotate(-81.96)" fill="#5d3328"/><circle cx="47.44" cy="49.48" r="0.31" transform="translate(-8.19 89.53) rotate(-81.96)" fill="#5d3328"/><circle cx="46.73" cy="40.41" r="0.34" fill="#5d3328"/><circle cx="48.76" cy="78.59" r="0.36" fill="#5d3328"/><circle cx="51.51" cy="76.05" r="0.36" fill="#5d3328"/><circle cx="54.76" cy="78.27" r="0.36" fill="#5d3328"/><circle cx="57.59" cy="75.73" r="0.36" fill="#5d3328"/><circle cx="60.37" cy="77.35" r="0.36" fill="#5d3328"/><circle cx="62.32" cy="74.57" r="0.36" fill="#5d3328"/><path d="M33.51,62.75a10.25,10.25,0,0,1,.89-3.27,3.07,3.07,0,0,1,1.65-1.24c.16,0,.35.38.84.3s.95.3,1.89-.32,1.51-.54,2.11-1.78S41.27,53.16,42,53a1.14,1.14,0,0,1,1.22,1.19c0,.62.16,3.11.16,3.11s1.11.27,1.24.86a3.33,3.33,0,0,0,.7,1.22,6.68,6.68,0,0,1,0,3.51,3.14,3.14,0,0,1-2.51,2,22.11,22.11,0,0,1-5.29.16c-1.11-.19-3.27-.81-3.4-.78A2.39,2.39,0,0,1,33.51,62.75Z" fill="#f2ddca"/><path d="M80.16,52.83A23,23,0,0,0,79,56.53c-.16,1-.05,2,.32,2.27a8.64,8.64,0,0,0,1.92.57,1.7,1.7,0,0,1,1,.84,3.33,3.33,0,0,0,2.43,1.11,3.81,3.81,0,0,0,2.08-.46,2.92,2.92,0,0,0,1.43-1.22A5.13,5.13,0,0,0,89,57.42c.11-.86.22-1.3-.3-1.89a13,13,0,0,1-1-2.05c-.22-.3-.68,0-.73-.51s-.05-2.54-.22-3.32-.89-1.19-1.11-1.13a6.62,6.62,0,0,0-.78,2.4c-.14.81.16,2.59-.14,2.86s-.65.78-1,.38-.76-.84-.86-.78S80.16,52.83,80.16,52.83Z" fill="#f2ddca"/><path d="M83.56,52.91l2-23.28,1.3.11L84.59,54s-.78.68-.92.3A5.61,5.61,0,0,1,83.56,52.91Z" fill="#ddad29"/><path d="M82.42,63c-.05-.14.08-2.11.54-2.13s1.08,0,1.08.54-2.73,31-2.73,31l-1.19-.16Z" fill="#ddad29"/><path d="M80,92.48c0,.08-.14,3-.08,3.19s.54.32.73.3a2.16,2.16,0,0,0,.65-1.46c0-.57.11-1.76-.08-1.89S80.07,92.13,80,92.48Z" fill="#dfdbd1"/><path d="M78.48,105.31s-7.72-1.13-8.43-1.16-1.16-.11-1.62.27a49.66,49.66,0,0,0-4.21,4.4,3.76,3.76,0,0,0,0,2c.11.32,2.13.89,3.11,1.08s22.79,4.59,23.58,4.65a2.4,2.4,0,0,0,2.08-.7,26.19,26.19,0,0,0,3.29-4.94,4.17,4.17,0,0,0-1.67-2.62c-.76-.35-12.72-2.24-12.72-2.24Z" fill="#e18020"/><path d="M75.67,106.15a5.83,5.83,0,0,1-2.08-.16c-1.24-.3-3.54-.73-4-.49s-2.46,1.67-2.57,2.32-.46.78,3.65,1.57,16.56,3.24,17.23,3.4,2.59.54,3.19.19,1.32-1.81,1.59-2.13,1.11-.46.54-1S75.67,106.15,75.67,106.15Z" fill="#dfdbd1"/><path d="M79.7,96.18s-.92,10.67-1,10.64a10.79,10.79,0,0,0-2.89-.46A18.56,18.56,0,0,0,73.73,109c-.05.16-.78.65-.05.95s7.26,1.43,7.72,1.54a5.47,5.47,0,0,0,2.7-.41,14.52,14.52,0,0,0,1.67-2.7c0-.14-1.4-.59-1.4-.59-.95-.19-4.24-.78-4.24-.78l.95-11-1.38-.08Z" fill="#c3beaf"/><path d="M85.85,29.81a1.11,1.11,0,0,1-.23-1c.14-.67.34-3.28.34-3.28s.07-.27.65-.14.38.43.4.9-.2,3.17-.2,3.24-.18.43-.47.45A.75.75,0,0,1,85.85,29.81Z" fill="#cd9a56"/><path d="M40.66,24.8c.14,0,.5.09.6,0s.27-.22.07-.58A4.42,4.42,0,0,0,40,22.83a3.13,3.13,0,0,0-2.17-.63,5,5,0,0,0-2.09.39,3.1,3.1,0,0,0-1,1.25.53.53,0,0,0,.11.46h0a1.88,1.88,0,0,0,.39.37,7.36,7.36,0,0,0,1.49.58,6.83,6.83,0,0,0,2.46,0C39.81,25.11,40.51,24.8,40.66,24.8Zm-1-.23a1,1,0,0,0,.26-.65,1.57,1.57,0,0,0-.2-1h0a2.88,2.88,0,0,1,1,1.05c.16.33.16.51.07.55s-.38-.15-.58-.11a1.88,1.88,0,0,0-.49.2C39.64,24.63,39.6,24.62,39.62,24.57ZM37,24.91a1.68,1.68,0,0,1-.54-.09,4.22,4.22,0,0,1-.82-.56h0a.37.37,0,0,1-.1-.26,0,0,0,0,0,0,0c0-.13.2-.42.43-.7a1.59,1.59,0,0,1,.57-.41c.2-.09.29-.06.26,0h0a1.46,1.46,0,0,0-.23.84,1.36,1.36,0,0,0,.55,1S37.13,24.89,37,24.91Zm2-.33a1.61,1.61,0,0,1-1.26.06,1,1,0,0,1-.61-.69,1.15,1.15,0,0,1,.09-.87.38.38,0,0,1,.17-.14.22.22,0,0,1,.12,0c.17.07.12.15.11.18s0,.73,0,.73a.76.76,0,0,0,.61.41.63.63,0,0,0,.65-.45.72.72,0,0,0-.06-.47.24.24,0,0,1,.31-.31c.29.09.34.5.33.72A.86.86,0,0,1,39,24.58Z" fill="#5d3328"/><path d="M55,24.4c.15-.19,0-.35-.19-.54a12.87,12.87,0,0,0-1.06-1,3.27,3.27,0,0,0-1.21-.48,4.19,4.19,0,0,0-2.61.06,3.14,3.14,0,0,0-1.24,1.71.92.92,0,0,0,0,.47c.07.3.38.22.39.22a3.29,3.29,0,0,1,.88.09c.28.07,1.41.29,1.69.36a4.33,4.33,0,0,0,1.8-.09A3,3,0,0,0,55,24.4Zm-4.15.43c-.26-.07-1-.39-1.28-.42a.55.55,0,0,0-.3,0h0c-.16,0-.09-.22-.09-.22l.11-.25a2.65,2.65,0,0,1,.73-.78,2.52,2.52,0,0,1,.68-.36s-.14.15-.18.24a1.54,1.54,0,0,0-.14.75,1.36,1.36,0,0,0,.5,1Zm2.35-1a1,1,0,0,1-.68.93A1.19,1.19,0,0,1,51,24.3a1,1,0,0,1,0-1.08s.07-.12.17-.12a.42.42,0,0,1,.31.09c.08.07,0,.21-.05.39a.56.56,0,0,0,.48.72.61.61,0,0,0,.78-.49c0-.17,0-.42.25-.42S53.2,23.49,53.16,23.84Zm1.27.42a6.81,6.81,0,0,1-1,.55h-.05c-.09,0,.16-.22.27-.72a1.51,1.51,0,0,0,0-.84c.22.15.63.46.84.63S54.51,24.17,54.43,24.26Z" fill="#5d3328"/><path d="M43.64,28.94a3.18,3.18,0,0,0,2,.51,1.43,1.43,0,0,0,1.22-.59c.24-.29,0-.23,0-.23a3.54,3.54,0,0,1-1.54.2,3.51,3.51,0,0,1-1.84-.32C43.12,28.27,43.32,28.66,43.64,28.94Z" fill="#5d3328"/><path d="M52.51,30.87A22.32,22.32,0,0,0,49.84,32a10.49,10.49,0,0,1-4.69.64A15.73,15.73,0,0,1,40,31.67a3,3,0,0,0-1.19-.4,1.86,1.86,0,0,0-.84.5.18.18,0,0,0,0,.26c.64.41.58-.31,1-.28a12.15,12.15,0,0,1,2.34.89,12.92,12.92,0,0,0,4,.84,9.65,9.65,0,0,0,4.06-.58c1.32-.57,2.69-1.49,2.82-1.52a.68.68,0,0,1,.5.14c.19.13.31.14.41-.13S52.79,30.91,52.51,30.87Z" fill="#5d3328"/><path d="M45.5,34.49c-1.9-.07-2.79-.27-2.93-.22s0,.14,0,.14.45.73,3,.74,3.22-.93,3.15-1A14.32,14.32,0,0,1,45.5,34.49Z" fill="#5d3328"/><path d="M37.47,83.34h0Z" fill="#5d3328"/><path d="M51.35,20a8.79,8.79,0,0,1,1.65.29,12.69,12.69,0,0,1,1.84.81c.14.08.41.16.2,0a4.57,4.57,0,0,0-1.26-1.09,3.71,3.71,0,0,0-2.57-.42s-.28,0-.31.22S51.1,19.93,51.35,20Z" fill="#5d3328"/><path d="M37.63,20.2c.26-.06.38,0,.43-.08s.07-.11-.19-.2a2.43,2.43,0,0,0-1.36-.14A4,4,0,0,0,34.6,20.9s-.25.23-.22.28.14,0,.32-.11,1.31-.38,1.57-.47S37.38,20.26,37.63,20.2Z" fill="#5d3328"/><circle cx="42.81" cy="39.76" r="0.33" fill="#5d3328"/><circle cx="44.73" cy="39.29" r="0.33" fill="#5d3328"/><circle cx="46.5" cy="40.39" r="0.33" fill="#5d3328"/><circle cx="48.44" cy="39.39" r="0.33" fill="#5d3328"/><circle cx="50.34" cy="39.93" r="0.33" fill="#5d3328"/><circle cx="52.05" cy="38.69" r="0.33" fill="#5d3328"/><circle cx="46.77" cy="42.43" r="0.33" fill="#5d3328"/><circle cx="44.81" cy="43.98" r="0.33" fill="#5d3328"/><circle cx="47.14" cy="45.99" r="0.33" fill="#5d3328"/><circle cx="44.8" cy="47.77" r="0.33" fill="#5d3328"/><circle cx="47.14" cy="49.62" r="0.33" fill="#5d3328"/><circle cx="49.34" cy="47.52" r="0.33" fill="#5d3328"/><circle cx="49.2" cy="51.16" r="0.33" fill="#5d3328"/><circle cx="49.29" cy="43.51" r="0.33" fill="#5d3328"/><path d="M79.08,108.27a1.37,1.37,0,0,0,.32.52A4.3,4.3,0,0,1,79.08,108.27Z" fill="#5d3328"/><path d="M96.44,109.27c-.09-.47-.67-1-1.66-1.29-.24-.06-14.3-2.51-14.3-2.51.91-10.28,3.66-41.32,3.67-41.58,0,0,.16-2.36.21-2.38a5.23,5.23,0,0,0,1.31,0,3.67,3.67,0,0,0,1.76-.69,3.39,3.39,0,0,0,1.24-1.54,5.14,5.14,0,0,0,.41-2,2.63,2.63,0,0,0-.2-1.35c-.14-.25-.24-1.12-.39-1.34a5,5,0,0,0-.77-1.23,3.57,3.57,0,0,1-.84-1.72c0-.39.09-2.26,0-2.64a1.08,1.08,0,0,0-.7-.79,1.45,1.45,0,0,0-.8.1l.41-4.61,1.58-17.85a.68.68,0,0,0-.76-.68c-.77,0-1,.26-1,.53s-2.19,25.49-2.29,26.73h0v0h0c0,.16,0,.68-.19.76a2.79,2.79,0,0,1-1.53-.15,7.05,7.05,0,0,0-1.22-.31s.28-.14.21-.36-.79-.27-1-.39l0,0a.79.79,0,0,1-.39-.4s-.13-.6-.15-.81a.63.63,0,0,0-.36-.54A5.54,5.54,0,0,0,77,49.61c-.68-.16-1.08-.13-1.16-.18a2,2,0,0,0-.62-.47,12.47,12.47,0,0,1-1.16-.59,4.15,4.15,0,0,0-1.27-.57,1.61,1.61,0,0,0-.47-.06s-1.24-.82-1.72-1.1-.51-.23-1.09-.51-2.39-.95-2.88-1.15-2.82-1.16-3.77-1.68-3.1-2-3.56-2.18-2.86-1.31-3.17-1.37c-.13-.13-.32-.4.22-.43a15.3,15.3,0,0,0,4.2-1.11l.28-.15a22.38,22.38,0,0,0,3.22-1.78c1.39-1,2.27-1.58,2.94-2a8.86,8.86,0,0,0,2.08-2,9.86,9.86,0,0,0,2.17-3.2,14.1,14.1,0,0,0,1.08-5.82A15.22,15.22,0,0,0,72,19.41a36.49,36.49,0,0,0-2.16-4.08A24.36,24.36,0,0,0,67.43,12c-1.09-1.15-4.6-4.52-5.77-5.39A7.39,7.39,0,0,0,59,5.46l-1-.34a19.57,19.57,0,0,1-3-.9,5.89,5.89,0,0,0-3.58-.54A3.92,3.92,0,0,0,48.82,3c-.36,0-1.22.22-1.53.23s-1.89.16-3.08.13a13.76,13.76,0,0,0-3.85.67A22,22,0,0,0,36.6,5.8s-3.1,1.89-4.81,3a19,19,0,0,0-4.21,3.93c-.56.83-1.87,3-1.87,3a14.66,14.66,0,0,0-1.22,3.33,31.51,31.51,0,0,0-.38,5.28,20.26,20.26,0,0,0,.75,4.05A30.8,30.8,0,0,0,26,31.55a8.81,8.81,0,0,0,1.41,1.9c.7.61,1.87,2.16,2.34,2.52s2.12,1.67,2.5,1.91,1.37.49,1.57.61a11.41,11.41,0,0,0,1.76.88c.49.14,2,.43,2,.43a9.71,9.71,0,0,0,1,.28l-1.13.42a9.6,9.6,0,0,0-3.09,1.43l-.36.28c-.19.16-1.92,1.76-2.23,2.1S30,45.91,29.62,46.2a23.12,23.12,0,0,0-2,1.32,11.19,11.19,0,0,0-2,2.34c-.39.8-.92,1.46-1,1.84a14.18,14.18,0,0,0-.47,1.92c0,.38-.39,1.93-.51,2.61a12.42,12.42,0,0,0-.15,2.36,4.2,4.2,0,0,0,.43,2,8.53,8.53,0,0,1,.69,1.73c.14.41.35,2,.47,2.55a2.76,2.76,0,0,0,1.24,1.71,2.83,2.83,0,0,0,1.66.63,2.54,2.54,0,0,0,1.22,1,3.94,3.94,0,0,0,1.71.05c.28-.05,1.11-.11,1.11-.11a1.64,1.64,0,0,0,.83-.27,1.88,1.88,0,0,0,.57-1,27.62,27.62,0,0,1,.15,2.93.18.18,0,0,0,0,.1s.17,3,.21,3.4.13,1.48.11,2,.16,2.47.18,2.86a2.33,2.33,0,0,0,.16,1c.16.31.54.29.86.47s.67,1.57.9,2.9.5,1.78.56,1.78h0c.16.34.44,1,.46,1.05a34.75,34.75,0,0,0,.16,4.73c.27,1.11.35,2.54.43,3s.73,3.4,2,4.29l.15.1a13.19,13.19,0,0,0,.56,3.14c.54,1.67,1,3.19.76,3.51s-2.43-.95-4.43-1-3.78.32-4.73,1.65a4.63,4.63,0,0,0-.59,4.62c.73,1.43,2.32,2.24,6.27,2.05,0,0,1.46-.19,2.21-.35s2.24-.62,3.38-.81,3.24-.32,3.86-.46l.62-.14a4,4,0,0,0,1.05,2.67c1.13,1.27,3.75.92,4.19.89s3.11,0,4.27-.08a7.91,7.91,0,0,0,3.54-1.08,2.85,2.85,0,0,0,1.32-2.65c-.11-1.32-.08-1.89-1.3-2.94,0,0-.81-.57-1.13-.76s-.73-.81-1.05-1a4.39,4.39,0,0,0-1.22-.49c-.27,0-.16-.54.05-.68a5.11,5.11,0,0,0,.73-2c.22-.92.14-2.3.3-2.84a2.09,2.09,0,0,1,.4-1h0A3.56,3.56,0,0,0,61,95.38a43.53,43.53,0,0,0,.32-7.26c0-.51.49-3.05.57-3.62s0-4.11,0-4.11l.05-1.24a3.21,3.21,0,0,0,.37,0h0c.16,0,.59,0,.81-.09s.45-.11.56-.43a8.35,8.35,0,0,0,.07-2.07c-.05-.58-.23-6.7-.23-7.29a22.62,22.62,0,0,0-.22-3c-.14-.77-.47-4.68-.45-5.8s.18-2,.47-2.05a14.09,14.09,0,0,1,2.61,1,7.91,7.91,0,0,0,1.57.45,3.83,3.83,0,0,0,.2,1,3.67,3.67,0,0,0,2,1.87,16.16,16.16,0,0,0,1.76.27,20.28,20.28,0,0,1,2,.7,6.05,6.05,0,0,0,2.41.36,6.91,6.91,0,0,0,1.55-.65c.22-.13.4-1.37.47-1.73s.27-1.51.49-1.66.4.07.58-.09-.13-.54.05-.59,1.3.29,1.93.36.7-.07.81.09,0,.3.23.59.53.37.54.51a0,0,0,0,0,0,0h0c.05.21-.3,2.49-.3,2.49s-2.68,31.81-3.57,41.78l-9-1.2a3.21,3.21,0,0,0-1.34.34c-.55.33-4.36,4.16-4.36,4.16a1.16,1.16,0,0,0-.3.82c0,.49.18,1.66.18,1.66a.94.94,0,0,0,.7.56c.57.15,26.55,5.45,26.55,5.45a2.47,2.47,0,0,0,1.35-.17,45,45,0,0,0,3.76-5.07A4.62,4.62,0,0,0,96.44,109.27ZM85.49,48.89c.19-.17.44-.23.77.14s0,1.14,0,1.74a6.38,6.38,0,0,0,.26,2c.14.38.5.72.46.77s-.14,0-.33,0a1.5,1.5,0,0,0-.49.16l0,0a1.6,1.6,0,0,1-.59.37c-.28.06-.49.14-.61-.09l-.06-.1.42-4.64A.88.88,0,0,1,85.49,48.89Zm.6-23.14s0-.22.3-.22.57,0,.61.26c0,.06-.11,1.51-.31,3.71a1,1,0,0,1-.84,0l-.08-.07ZM83.8,52.3,85.73,30a.72.72,0,0,0,.91.08c-.47,5.31-1.3,14.31-1.77,19.5v.07h0l-.35,3.85h0a.61.61,0,0,1-.56.44C83.51,53.9,83.8,52.3,83.8,52.3ZM53.48,39a12.14,12.14,0,0,0-.18-1.4h0L54.4,37h0a12.11,12.11,0,0,0,2.39-1.34,33.56,33.56,0,0,0,3.56-3l.39-.49c-.1.34-.26.86-.42,1.25a9.91,9.91,0,0,1-1.23,2.51C58.34,37,55.59,38.49,53.48,39ZM43,38.63a8.27,8.27,0,0,1,1.31,2.2h-.07a14.69,14.69,0,0,1-1.45-.4,2.34,2.34,0,0,1-1.08-.74l0-.06Zm-1.57.54a1.84,1.84,0,0,1,0-.86l.91.15Zm7.8,6.6c-.32.35-2,1.62-2.12,1.73A12,12,0,0,1,44.9,46l1.94-1.6.13.06a13.17,13.17,0,0,0,2.66.86A2.66,2.66,0,0,1,49.27,45.76Zm.59,0,.05,1.5,0,1.2a12.49,12.49,0,0,1-2.14-.59Zm-3-2.19a7.25,7.25,0,0,1-2.57-2.09s0-.1,0-.15l1.46.18a10.53,10.53,0,0,0,2.3,0c.32-.06.91-.1,1.42-.15-.3.21-1.18.86-1.38,1.05S47.37,43.13,46.87,43.58ZM48,39.8c-.08-.11-.63-.68-.79-.85.51,0,1.39,0,2.28-.17l-.24.55c-.08.18-.76,1.16-.76,1.16S48.09,39.93,48,39.8Zm0,1.07c-.45,0-1,.08-1.42.08s-1.06,0-1.6,0c.28-.35,1.39-1.91,1.39-1.91A12.74,12.74,0,0,1,48,40.88Zm-3.25-.54c-.12-.27-.86-1.41-1-1.69.71.09,1.44.17,2.06.22C45.61,39.17,44.75,40.34,44.75,40.34ZM44,42.21c0-.15,0-.26,0-.26a6.82,6.82,0,0,0,2.26,2.15c-.47.41-1.58,1.24-2,1.51a5.83,5.83,0,0,0,0-.92C44.23,44.22,44,42.36,44,42.21Zm.29,4.15c.41.32,1.85,1.41,2.1,1.55,0,0,.06,0-.45.29l-1.43.67c-.1-.72-.2-2.26-.22-2.51ZM45.48,50c-.14-.13-.81-.63-.74-.68s1.06-.46,1.56-.67a6.89,6.89,0,0,0,.8-.4l0,0a9.46,9.46,0,0,0,2.34.9,8.43,8.43,0,0,1-1.17,1.24,4.5,4.5,0,0,1-1.19.73A5,5,0,0,1,45.48,50Zm1.17,1.62-.73-.24h0a2.28,2.28,0,0,1-.89-.65,2.63,2.63,0,0,1-.29-.78,15.76,15.76,0,0,0,2,1.54C47.1,51.77,46.71,51.65,46.65,51.64Zm.63,0c.15-.05,1-.57,1.17-.72,0,0,1.43-1.42,1.43-1.42a3.86,3.86,0,0,1-.08,1.82,2,2,0,0,1-1.07.6,4.12,4.12,0,0,1-1.31-.11C47.23,51.79,47.1,51.72,47.28,51.66Zm2.67-6.91A5,5,0,0,1,47.62,44l-.18-.1.29-.24,2.5-2A18.8,18.8,0,0,0,49.95,44.75Zm-1.11-3.94a2,2,0,0,0,.32-.36A13.84,13.84,0,0,0,50,38.88c0-.16.14-.16.14-.16a8.7,8.7,0,0,1,1.56,1.21,5.83,5.83,0,0,1-.81.45A11.66,11.66,0,0,1,48.84,40.81Zm2.05-2.33.12,0,1.52-.54.12.91c.05.4,0,.48-.08.56a5.34,5.34,0,0,1-.45.36L52,39.48A3.33,3.33,0,0,0,50.89,38.48ZM50,38a18.36,18.36,0,0,1-7.1,0,13.84,13.84,0,0,1-5.83-2.55,17,17,0,0,1-4.16-4.22,15.6,15.6,0,0,1-1.46-2.48s-.16-.68-.29-.76a7.85,7.85,0,0,1-1.21-.66,6.41,6.41,0,0,1-1-1.7,1.73,1.73,0,0,1,0-1,1.33,1.33,0,0,1,1.1-.71,5.23,5.23,0,0,1-.36-2.74,1.43,1.43,0,0,1,.41-.94,6.06,6.06,0,0,1,2.23-.79c.81-.16,5.29-1.08,5.85-1.17s.9-.2,1-.2a6,6,0,0,0,2.65.27s.14,0,.11-.54a12.47,12.47,0,0,1,1.13-4.21,11.39,11.39,0,0,0,.7,2.43c.23.45.56,2.66.65,2.86s.18.23.79,0a31.94,31.94,0,0,1,3.37-.72,9.19,9.19,0,0,1,3.29-.07,19.89,19.89,0,0,0,3.82.54,4.07,4.07,0,0,0,1.75-.23c.09,0,.22.43.54.76a5.53,5.53,0,0,0,1,.68,5.76,5.76,0,0,1,.78.76,5.2,5.2,0,0,1,.7,2,1.73,1.73,0,0,0,1.4,1.2c.41.08.53-.18.78-.27s.5-.12,1.3.15a1.6,1.6,0,0,1,.95,1.2,2.83,2.83,0,0,1-1.15,2.78l0,0h0a3.37,3.37,0,0,1-1.23.68c-.31,1.31-1.11,2.35-2.47,3.92a19,19,0,0,1-3.27,2.86,19.83,19.83,0,0,1-2.3,1.26h0l-.09.06h0l-.12.07A21.65,21.65,0,0,1,50,38ZM30.37,18.6l0,0a2.29,2.29,0,0,0,.44.72,3.66,3.66,0,0,0-1.58,1.78A14.76,14.76,0,0,0,29,23.16s-.08,0-.12,0a3.83,3.83,0,0,1-.38-.86,11.13,11.13,0,0,1,.22-5.74,16.48,16.48,0,0,1,2-3.71A14.41,14.41,0,0,0,30,16.52,5.12,5.12,0,0,0,30.37,18.6Zm33.88,3.5A7.64,7.64,0,0,1,62,20.57a4.27,4.27,0,0,1,2.59.8,3.27,3.27,0,0,1,1.19,2.54c0,.63-.09.8-.16.84h-.05A1.93,1.93,0,0,0,64,22.93c-.7,0-2,.3-2.35,0-.72-.67-.58-1.19-1-2a8.77,8.77,0,0,0-1-1.26l.81.51a3.76,3.76,0,0,1,.74.45,6.91,6.91,0,0,0,1.5,1.12A3.07,3.07,0,0,0,64.25,22.11ZM63,35.45c-.27.92-1.49,1.65-2.32,2.07a1.32,1.32,0,0,0-.24.14,9.18,9.18,0,0,1-3.36.88,9.49,9.49,0,0,0,1.77-1.16,8.88,8.88,0,0,0,2.07-3.88,16.88,16.88,0,0,1,.9-2.51l.41-.75.17-.24a4.84,4.84,0,0,1,1-1.42,4.72,4.72,0,0,0,.63-.77,6,6,0,0,0-.14.76,5.38,5.38,0,0,1-.41,1.71,4.26,4.26,0,0,0-.57,1.59C62.8,32.53,63.22,34.53,63,35.45Zm1.24-.12-.55.62A7.12,7.12,0,0,0,63.57,34a3.72,3.72,0,0,1,.27-3.47l0,0a18.41,18.41,0,0,0,.75,2.38A2.68,2.68,0,0,1,64.19,35.33Zm1-2.85a3.52,3.52,0,0,0-.41-1.1,4.41,4.41,0,0,1-.41-2,6.22,6.22,0,0,1,.72-2.28A4.26,4.26,0,0,0,66,24.7v0a23.58,23.58,0,0,1-.2,4.16,3.71,3.71,0,0,0,.66-2.15,12.54,12.54,0,0,0-.07-3.19,12.57,12.57,0,0,1-.57-2.34c0-.9.27-1.12.28-2.44A6.67,6.67,0,0,0,66,17.33a16,16,0,0,1,2.34,4.39,17.89,17.89,0,0,1,.46,4.16,3.59,3.59,0,0,1-.62,3c-.87,1.37-2.44,2.36-2.9,3.61Zm2.19-13.94a12.83,12.83,0,0,1,2.08,2.62,8.64,8.64,0,0,1,.57,3.9,4.93,4.93,0,0,1-.77,2,16.43,16.43,0,0,0-.09-1.9,15.38,15.38,0,0,0-.58-3.7A14.42,14.42,0,0,0,67.43,18.54ZM56.74,5.19l1.06.27a9,9,0,0,1,3.71,1.89A63.33,63.33,0,0,1,66.62,12s1.17,1.17,2,2.3,1.71,3.39,2,3.83a5,5,0,0,1,1.08,2.43,27.54,27.54,0,0,1,0,5.39,10.35,10.35,0,0,1-1.3,3.31A28.35,28.35,0,0,1,68.46,32a17.5,17.5,0,0,1-2.84,2.5A4.09,4.09,0,0,1,66,33.1a.85.85,0,0,0,.08-.27,6.91,6.91,0,0,1,.82-1.56c.49-.62,2-2.27,2.26-2.63a.55.55,0,0,0,.07-.18,5.94,5.94,0,0,0,.9-1.51,8,8,0,0,0,.49-3.65A7.78,7.78,0,0,0,68.77,19a19.53,19.53,0,0,0-1.94-1.8,7.74,7.74,0,0,1-1.36-1.64c-.08-.23-1.05-2.37-1.2-2.73A7,7,0,0,0,63,10.47a24.55,24.55,0,0,0-3.08-3.29c-.84-.57-2.47-1.39-2.47-1.39l-1.26-.65S56.28,5.06,56.74,5.19ZM54.22,4.4a13.52,13.52,0,0,1,3,1.73,13.56,13.56,0,0,1,3,2A31.45,31.45,0,0,1,63.19,12a27.85,27.85,0,0,1,1.58,4,18.69,18.69,0,0,1,.5,3.5c0,1.51.14,1.94-.34,1.69a12.27,12.27,0,0,0-3.29-1.51l-.1,0h0a9.21,9.21,0,0,1-1.8-.44,1.74,1.74,0,0,1-1.32-1.65c0-.53.34-3.56.42-4.2h0a8.45,8.45,0,0,0-.14-2.72,13.91,13.91,0,0,0-2.57-3.4,31.44,31.44,0,0,0-3.74-3S52.37,4.1,54.22,4.4ZM47,4.18a1.87,1.87,0,0,1,.88-.41A8.61,8.61,0,0,1,50,3.71a1.51,1.51,0,0,1,.89.42.21.21,0,0,0,.1.12,4,4,0,0,1,1,2.07,13.93,13.93,0,0,1,.45,4.7s.13.34.36-1.51a12,12,0,0,0-.61-4.36s-.31-.61.38-.25A32.86,32.86,0,0,1,55.9,7.57,16,16,0,0,1,58,10.81a8.62,8.62,0,0,1,.27,2.72h0a10,10,0,0,1-.53,3.59C57.1,18.27,56,18,55.27,18a8.9,8.9,0,0,1-2.67-.3,4.31,4.31,0,0,0-1.16-.22l.54-.59a2.35,2.35,0,0,0,.38-2,8.36,8.36,0,0,1-.24-1.54,13.81,13.81,0,0,1-.59,2.73c-.59,1.32-1.73,1.35-2.84,1.43a20.63,20.63,0,0,0-2.92.57C45,18.41,45,18,45,18s-.25-1.12-.38-1.55-.49-1.55-.61-2.27-.16-2.35-.18-2.82A15.62,15.62,0,0,1,44.55,8,12.83,12.83,0,0,1,47,4.18Zm-4.3-.05A5.7,5.7,0,0,1,45.81,4a8.61,8.61,0,0,0-3,2.7A8.45,8.45,0,0,0,41.15,10c-.2.79-.18,1.17-.07,1.17s.16-.74.81-2.2A12.41,12.41,0,0,1,44,5.93a7.61,7.61,0,0,1,1.4-1c.34-.18.76-.25.36.2a16.32,16.32,0,0,0-1.91,3.4,7,7,0,0,0-.58,3.07s-.54,1.45-.9,2.19a11,11,0,0,0-.79,2.59c-.13.74,0,1.19-.18,1.39a2,2,0,0,1-1.4.09c-.25-.14-.59-.32-.31-1.22l.38-1.19A5.68,5.68,0,0,1,39,16.91a5.72,5.72,0,0,1-2.09.83c-1,.23-2.57.76-2.68.79s-.68.45-1-.54a9.88,9.88,0,0,1,0-4.65,16.75,16.75,0,0,1,2.12-3.82,15.43,15.43,0,0,0,1.17-1.21c.12-.18,1.9-1.91,2.18-2.18l.11-.07A9.11,9.11,0,0,1,42.66,4.13ZM37,6.34l-.05,0h0s.08,0,.11,0,2-1.1,2-1.1L38,6a20.29,20.29,0,0,0-2.57,2.56A17.72,17.72,0,0,0,33,12.88a9.35,9.35,0,0,0-.68,3.65c.05.77.54,1.55.4,2.05s-.52.54-.7.63-1-.36-1.26-1.12c-.07-.22-.13-.27-.17-.25a3.27,3.27,0,0,1-.17-1.57A11.9,11.9,0,0,1,33,10,16.94,16.94,0,0,1,37,6.34ZM26.39,16a14.07,14.07,0,0,1,3.24-4.83,11.89,11.89,0,0,1,3.56-2.52c-.07.18-1.91,2.66-2.27,3.13a14.5,14.5,0,0,0-2.11,2.9,10.54,10.54,0,0,0-1.21,3.67h0a4,4,0,0,1-1,1.19,7.22,7.22,0,0,0-1.39,2.11c-.07.13-.36.76-.38.05S25.49,17.29,26.39,16Zm.14,15c-.06-.11-.15-.24-.18-.33-.18-.46-.55-1.46-.77-1.85a8.94,8.94,0,0,1-.7-2.43c-.14-1-.18-3.2.41-4s1.06-2.23,2.18-2.83c0,.41-.06.8-.07,1.16a6.06,6.06,0,0,0,.77,3.08l.09.2a4.24,4.24,0,0,0-.83,1.87,13.07,13.07,0,0,0,0,4.66,7.25,7.25,0,0,0,1,3A25.31,25.31,0,0,1,26.53,31Zm8.16,7.48a3.55,3.55,0,0,1-2.09-1.6c-.74-1.17-1.15-2.32-1.39-2.27s0,.65.22,1.08a5.11,5.11,0,0,0,1.62,2s-.52.13-1.51-.81a12,12,0,0,1-2.45-3.17,19,19,0,0,1-1.55-6.07s.79,3.8,2.12,4.83A13.61,13.61,0,0,1,28,26.85c0-1.83.21-2.41.37-2.59v0a2.08,2.08,0,0,0,.08.3,4.19,4.19,0,0,0,.17,1.84,9,9,0,0,0,.7,1.38c.06.17.22.6.33.95s.59,1.93.76,2.41a15.82,15.82,0,0,0,2.66,4.48c1.24,1.21,2.68,2.77,3,3A3.43,3.43,0,0,1,34.69,38.5Zm2.43.36a27,27,0,0,1-5-5.67,28.85,28.85,0,0,1-1.94-4.43c-.07-.18-.31-1,.2-.34l.5.68s.7,1.1,2,2.89A26.62,26.62,0,0,0,37,36.2a19.18,19.18,0,0,0,3,1.59h0l.19.08a.87.87,0,0,1,.33.47,5.44,5.44,0,0,1,.29,1.12c0,.14-.29.24-.29.24l-1.06,0A4.11,4.11,0,0,1,37.12,38.86Zm-6,28.61c-.12,0-.51.31-.85.3a3.79,3.79,0,0,1-1.59-.45A3.2,3.2,0,0,1,27.84,66,12.53,12.53,0,0,0,27,64.28c-.05,0-.05.08,0,.34s.49,1.74.49,1.74-.23,0-.8-.42a3,3,0,0,1-1-1.39,8.16,8.16,0,0,1-.3-1.46,12.14,12.14,0,0,0-.46-1.57,4,4,0,0,1-.38-1.84,2.22,2.22,0,0,1,.73-1.38,10.45,10.45,0,0,1,2.48-2.88,5.13,5.13,0,0,1,3.44-.93c.12,0,.76,0,.24.18a7.69,7.69,0,0,0-2,1.23,4.15,4.15,0,0,0-.66,1.47c-.05.38-.46,1.26-.39,1.28s.18-.18.43-.69a5.54,5.54,0,0,1,1.62-2.17,3.61,3.61,0,0,1,2.47-.73c1,.05.9.45,1.22.65a5.65,5.65,0,0,1,1.22.69,1.33,1.33,0,0,1,.43,1.08v.08l-1-.83h0a2.61,2.61,0,0,0-.66-.37,2.61,2.61,0,0,0-1.26.27,5.3,5.3,0,0,0-1.23.89A10.33,10.33,0,0,0,30.1,65.4a5.67,5.67,0,0,0,1.31,2.07Zm3.17-10.21L33,57.2v0l.77-.32Zm-1.9,9.84c0,.2-.26.48-.41.38a1.13,1.13,0,0,1-.14-1.54c.26-.38.9-.31,1.11-.27C32.95,65.74,32.44,66.9,32.41,67.1Zm.85-3.48a10.77,10.77,0,0,0,.36,1.47c.08.11-.2,0-.29,0h0c-.16,0-.93,0-1.23.05A1.25,1.25,0,0,1,31,64.75c-.38-.39-.39-1-.38-2a11.63,11.63,0,0,1,.81-3.86,2.16,2.16,0,0,1,1.47-1.22v0c.33,0,1.78,0,2.1.08a1.15,1.15,0,0,1,.68.34c0,.08-.38,0-.95.47a5.37,5.37,0,0,0-1.3,2.27A8.09,8.09,0,0,0,33.27,63.61Zm.73.27a5.65,5.65,0,0,1-.07-2.38,6.8,6.8,0,0,1,1-2.35,1.79,1.79,0,0,1,1-.6,3.22,3.22,0,0,0,2,.27c1.17-.22,1.13-.32,2.31-1.24a4.42,4.42,0,0,0,1.39-2.75c.19-.55.12-1.61.76-1.5s.59,1.28.68,2A7.49,7.49,0,0,1,43,57L43,57l-1.09.49c-.31.15-.51.19-.51.36s.12.15.34.07a3.63,3.63,0,0,1,1.36-.32,1.75,1.75,0,0,1,1.34.68c.16.3,0,.68-.42.92a5.17,5.17,0,0,1-1.59.34c-.12,0-.22.12,0,.22a1.18,1.18,0,0,0,.8.07,3.56,3.56,0,0,0,1.44-.51c.22-.22.43.14.5.36a.86.86,0,0,1-.31,1.08,6.13,6.13,0,0,1-1.54.47c-.28.05-.58.18-.61.26s.09.15.35.19,1-.19,1.42-.22a4.57,4.57,0,0,0,.78-.14,1.84,1.84,0,0,1-.09,1c-.2.39-.18.5-.45.55s-1.61.22-1.81.31-.36.19-.3.3.38,0,.65,0a10.48,10.48,0,0,1,1.42-.14c.09.08.05.31-.26.55s-.14.5-2.13.9a11.92,11.92,0,0,1-3.67.15c-.51,0-2-.68-2.63-.78A10.39,10.39,0,0,0,34,63.88Zm.62,12.26c-.11-.54-.38-1-.13-1.35s.2-.56,1.39-.56c.3,0,.67,0,1.08,0-.24.31-1.84,2.33-2.26,2.94A8.36,8.36,0,0,0,34.61,76.14Zm1.15,2.93c-.55,0-.82,0-.94-.22,0-.12,0-.55.12-.85a18.28,18.28,0,0,1,2.44-3.4c.27-.07.43.33.68.95s.92,2.57,1,3a5.92,5.92,0,0,1,.11.66C37.83,79.13,36.16,79.07,35.76,79.08Zm21.52-.31c.06.19-.18.29-.46.36a48.91,48.91,0,0,1-5,.45A40.43,40.43,0,0,1,54,75.26,21.26,21.26,0,0,1,57.29,78.77Zm-2.86-3.93,1-.06a30.1,30.1,0,0,0,4.17-.66,10,10,0,0,1-1.77,4.38s-.09.07-.41-.23A28.36,28.36,0,0,1,54.43,74.83Zm-3.1,4.44s-.05.11-.27-.4-1.63-3.22-1.68-3.3l-.18-.28s0-.26,0-.31h.55l3.63-.1A15.72,15.72,0,0,1,51.33,79.27Zm-.61.27a9.47,9.47,0,0,1-1.24,0l-3.16,0h0a16.59,16.59,0,0,0,.83-1.55c.19-.48.91-2.37,1-2.55s.39-.25.67.27A12.53,12.53,0,0,1,50.72,79.54Zm-4-1.55a2.63,2.63,0,0,1-1.12,1.46h0l-.4-.2a7.36,7.36,0,0,1-.42-1A29.4,29.4,0,0,0,43.58,75l.58.06c.2,0,1.94,0,3.4,0A27.77,27.77,0,0,1,46.67,78Zm-2.08,1.46c0,.09,0,.15-.22.18-.75-.06-2.8-.23-3.41-.3l-.66-.06a8.31,8.31,0,0,0,1.08-1.69,10.19,10.19,0,0,1,1.43-2.4c.22-.12.25-.19.57.57S44.59,79.36,44.59,79.45Zm-4.68-.56c-.25.22-1.25-3.88-1.81-4.5.83.09,1.55.18,1.7.21s1.31.15,2.4.26C42,75.31,40.16,78.68,39.91,78.89Zm1.14,21.87-.21-.89a3.65,3.65,0,0,1-.12-1.11c.2.32.58.64,1.71,1,1.65.57,5.48.05,5.48.05A6,6,0,0,1,44,101.22,5.23,5.23,0,0,1,41.05,100.76Zm-.1-2.58h0a9.67,9.67,0,0,0,5.63.71,8.46,8.46,0,0,0,1.58-.57c.07,0,.16,0,.2.14a3.3,3.3,0,0,1,0,.49,9.26,9.26,0,0,1-5.2.62A3.1,3.1,0,0,1,40.95,98.18Zm1.71,7.14h0l-.75.14h0s-.8.12-.89-.24S42.49,105.26,42.66,105.32Zm-1.28-3.15a6.6,6.6,0,0,0,2.43.88c1.35.32,4.08-.16,3.86,0a4.6,4.6,0,0,1-.86.38,10.74,10.74,0,0,1-5,.53h0ZM37.77,104a5.87,5.87,0,0,1,1.1.17h0s1.2.49,1.25.82-.54.39-.62.42c-.36,0-1.06,0-1.08-.11a1.14,1.14,0,0,0-.27-.63C38,104.53,37.56,104.12,37.77,104Zm-2.63.79c.14-.74,1.13-1.06,1.13-1.06h0l.47,0a2.8,2.8,0,0,1,1,1.06.54.54,0,0,1-.16.81,9.38,9.38,0,0,1-2.36.59C34.76,106.28,35,105.58,35.14,104.84Zm-2.43.19a1.32,1.32,0,0,1,.3-.53,4.37,4.37,0,0,1,1.9-.66c-.53.47-.68,2.42-.68,2.42a1.94,1.94,0,0,1-1-.15S32.58,105.43,32.71,105Zm-1.15,2.26a3.64,3.64,0,0,1,.07-.74,1.05,1.05,0,0,1,.3-.29.41.41,0,0,1,.32.12,3.67,3.67,0,0,0,1.94.74,9.67,9.67,0,0,0,0,1.22c.05.22-.06.18-.23.19h-.13c-1.08-.06-1.71-.26-2.13-.92A1.49,1.49,0,0,1,31.56,107.28Zm3,3.41-.11,0a3.74,3.74,0,0,1-2.53-1.43c0-.16,0-.31.07-.35a16.66,16.66,0,0,0,2.36.48,1.66,1.66,0,0,0,0,.71C34.49,110.28,34.62,110.61,34.55,110.69Zm.42-2.26c-.05-.18-.17-1.33,0-1.43s.09.05.68,0,2.21-.54,2.5-.27a1.55,1.55,0,0,1,.09,1.55.82.82,0,0,1-.23.12l-.21.05-.14,0c-.68.06-1.35.1-2,.1h-.6S35,108.5,35,108.43Zm3.3,2h0l-.77.13H37.3l0,0c-.49.07-1,.13-1.5.16,0-.06-.43,0-.54-.6s0-.74.27-.79h0l.91-.08v0s1.78-.25,2,0A.85.85,0,0,1,38.28,110.42Zm.61-4.21c.11-.22.56-.22.56-.22h0l.94,0a1.21,1.21,0,0,1,.51.17,2.7,2.7,0,0,1,.63,1.66,16.93,16.93,0,0,1-2.26.41,1.68,1.68,0,0,0-.06-.71C39.09,107,38.78,106.42,38.89,106.21Zm2.83,3.22a1,1,0,0,1-.63.56c-.68.08-1.33.16-1.83.25a6.62,6.62,0,0,0,.14-.77c0-.27,0-.4.22-.47a7.41,7.41,0,0,1,2-.25C41.82,108.87,41.79,109.16,41.71,109.43Zm.4-2.72c-.2-.45-.25-.58,0-.58a4.29,4.29,0,0,0,1,0c.4-.09.49-.27.49-.27a3.54,3.54,0,0,1,.81,1.55v0c-.52.12-1.16.23-2,.35A7.12,7.12,0,0,0,42.11,106.71Zm2.11-1.16a10.73,10.73,0,0,0,2,.13.22.22,0,0,1,.12.06,4.5,4.5,0,0,1,.39.92h0a6.75,6.75,0,0,1-.93.39l-.61.18A3.45,3.45,0,0,0,44.23,105.55Zm-.13,3.92a1.07,1.07,0,0,1-.23.19l-.35,0-.6.07c-.19,0-.43-.05-.42-.2s.09-.86.09-.86-.07-.11.15-.14a15.13,15.13,0,0,0,1.84-.22A2.53,2.53,0,0,1,44.09,109.46Zm2.73-1.26a1.89,1.89,0,0,1-.58,1.05l-1.12.19a1.78,1.78,0,0,0,.26-1.28,7,7,0,0,0,1.38-.45l.11-.05A2.13,2.13,0,0,1,46.82,108.21Zm.11-2.66A4.21,4.21,0,0,0,48,105l.15.07.09.07a.58.58,0,0,1-.15.47,3.07,3.07,0,0,1-.8.66,2.26,2.26,0,0,0-.18-.39Zm1,2.72a2.07,2.07,0,0,1-.54.79h0a2.19,2.19,0,0,0,.31-1.18,3.59,3.59,0,0,0,0-.57,2.27,2.27,0,0,0,.8-.56A5.3,5.3,0,0,1,47.89,108.27Zm.51-4.46c-.14.57-1.13,1.05-1.27,1.11s0,0,0,0a7.38,7.38,0,0,1-1.86.25,6.11,6.11,0,0,1-2.67-.54,11.36,11.36,0,0,0,4-.57,7.66,7.66,0,0,0,1.81-.88A4.2,4.2,0,0,1,48.4,103.81ZM46,102.73a10.47,10.47,0,0,1-4.38-1.05,14.85,14.85,0,0,0,4.35-.22,8.53,8.53,0,0,0,2.49-1.19c0,.51,0,1.07,0,1.6C48.35,102.1,47.86,102.71,46,102.73Zm1.49-4.81c-1.35.57-3.7.95-5.13.22a6,6,0,0,1-.92-.81c-.38-.43-1.7-3.7-1.78-3.65s.43,2.57,1,3c0,0,.3.24.27.43s-1-.16-1.51-1.24a19.4,19.4,0,0,1-1.27-6.18l-.19-2.92s1.46,1.43,1.7,1.19-.89-.84-1.43-1.73a15.18,15.18,0,0,1-1-2.07h0l-.07-.23h0a1.36,1.36,0,0,1-.11-.22l-.06-.2v0h0a12.86,12.86,0,0,1-.45-2.06c0-.74-.05-1.19.45-1.39A4.27,4.27,0,0,1,39,79.73c.52.11,3,.59,3.65.7a11.81,11.81,0,0,0,1.53.14h.15l1.25.25v0a2.59,2.59,0,0,1,.77,1.06.51.51,0,0,0,.06.12,8.55,8.55,0,0,0,.25.83c.16.43,1.08,5.54,1.32,7.18s.81,5.27.86,6.1S48.84,97.36,47.48,97.92Zm1.32,10.88s-.05-.22.24-.08a2.3,2.3,0,0,0,1.16.19h0s.09,0,.14.18a3.88,3.88,0,0,1,.09,1.16.29.29,0,0,1-.34.23,1.47,1.47,0,0,1-.95-.36A1.6,1.6,0,0,1,48.81,108.81Zm3.54-7.51a27.56,27.56,0,0,0,3.48-.05,11.43,11.43,0,0,1-6.67.4c0-.25,0-.48,0-.67s0-.48,0-.75A6.31,6.31,0,0,0,52.35,101.3Zm-3.17-2.17a4.54,4.54,0,0,1,.09-.58c.13-.53.18-.84.53-.93a3,3,0,0,0,.87.66A9.32,9.32,0,0,0,55,99a7.62,7.62,0,0,0,2.27-.51,11.23,11.23,0,0,1-5.32,1.24C49.94,99.74,49.35,99.35,49.18,99.13ZM54.74,106a1.76,1.76,0,0,1,.76-.17,6,6,0,0,1,1.36.07c.38.13.8,1.22.78,1.28a23.07,23.07,0,0,1-2.76.07.57.57,0,0,1-.29-.42C54.52,106.52,54.47,106.15,54.74,106Zm-.24-.5a.38.38,0,0,1-.11-.45.34.34,0,0,1,.14-.1l1.23,0A.64.64,0,0,1,56,105c.18.1.32.38.28.43s-.57,0-.86,0A3.72,3.72,0,0,1,54.49,105.49Zm2-1.67a2.12,2.12,0,0,1-1.27.59c-.51.08-2.05.16-2.62.24a14.46,14.46,0,0,1-2.4.22c-.57-.05-.84-1-.89-1.32,0-.18-.06-.64-.09-1.15v0c.76.84,1.92,1.08,3.7,1.22a16.26,16.26,0,0,0,3.89-.31A1.66,1.66,0,0,1,56.48,103.81Zm-7.09,4c0-.2.36-.36.59-.46s.6-.3.63-.3a3.72,3.72,0,0,0-.26,1,2.46,2.46,0,0,1-.79.07h0A.26.26,0,0,1,49.39,107.86Zm1.06-1.36a4.9,4.9,0,0,0-1.24.73,1.25,1.25,0,0,1,0-.61,1.81,1.81,0,0,1,.3-.43,4.15,4.15,0,0,1,.57-.51l.38-.17a1.28,1.28,0,0,1,.62,0s0,0,0,.15a3.27,3.27,0,0,0-.15.55C50.91,106.33,50.58,106.44,50.45,106.5Zm1.09.32a3.38,3.38,0,0,1,2.08-.75,3.89,3.89,0,0,0,.28,1.23c0,.07,0,.11-.36.18s-2.06.41-2.47.45A1.54,1.54,0,0,1,51.54,106.82Zm.18-1.13a2.62,2.62,0,0,1,2-.59h0a1.74,1.74,0,0,0-.13.45,6.06,6.06,0,0,0-1.9.4S51.48,106,51.72,105.69Zm-1.47,6.8a1.17,1.17,0,0,1-.42-.09,1.82,1.82,0,0,1-.92-1.23c0-.1,0-.21,0-.24s.5.21,1,.26a4.6,4.6,0,0,1,.69.05,5,5,0,0,1,.43,1.14C51.06,112.44,50.59,112.48,50.25,112.49Zm.74-2.75c0-.21-.12-.77,0-.95s1.22-.24,1.45-.3,1.51-.26,1.68-.26h0s.06,0,.16.16a10,10,0,0,1,.6,1.91s0,.22-.35.28-2.46.06-2.46.06-.74,0-.9-.12A1.43,1.43,0,0,1,51,109.74Zm4.19,2c0,.28,0,.62-.2.74a1.36,1.36,0,0,1-.61.07c-.73-.07-1.54-.07-2.28-.07a.63.63,0,0,1-.41-.34,2.48,2.48,0,0,1-.36-.94c0-.12.36,0,1.11,0s2.3,0,2.44,0A.46.46,0,0,1,55.19,111.76Zm.36-1.71a8.73,8.73,0,0,1-.48-1.88c.07-.2.43-.14.8-.12s1.82-.18,2.12-.14.51.52.62.72.32.65.4.84h0a.75.75,0,0,1-.09.7c-.24.31-.49.45-1.44.43a5.85,5.85,0,0,1-1.76-.32C55.78,110.2,55.64,110.33,55.55,110Zm3.17,2.11a1.34,1.34,0,0,1-.47.38,13.17,13.17,0,0,1-1.72.15.6.6,0,0,1-.41-.4c-.06-.32-.08-.93,0-1s1.22,0,1.64-.07a7.57,7.57,0,0,0,1.28-.29C59.26,110.87,59.08,111.75,58.72,112.16Zm2.65-2.49a2.71,2.71,0,0,1-.3,1.53,2.63,2.63,0,0,1-1.52,1,3.4,3.4,0,0,0,.3-1.49,3.15,3.15,0,0,0,1.22-.64A1,1,0,0,0,61.37,109.68Zm-.29-1.29,0,.06a2,2,0,0,1-.72,1.34s-.41.31-.6.23-.15-.51-.23-.68h0a12.05,12.05,0,0,0-.61-1.2c-.11-.11,0-.16.16-.11S60.8,108.28,61.07,108.38Zm-1.3-1.66c.26.19.69.53.65.66s-1.58-.09-1.74-.13a.42.42,0,0,1-.36-.24c-.1-.18-.68-.86-.5-.88A9.92,9.92,0,0,1,59.78,106.72ZM57.88,105c.46.16.61.3.65.44a.19.19,0,0,1-.14.19,2,2,0,0,1-1.21-.26,2.19,2.19,0,0,1-.46-.5A4.94,4.94,0,0,1,57.88,105Zm-.76-2.46a6.21,6.21,0,0,1-3.18.68c-2.84.08-3.78-.78-3.78-.78a7.87,7.87,0,0,0,3.38,0,17.81,17.81,0,0,0,4-1.41A15.16,15.16,0,0,1,57.12,102.56Zm.68-2.64,0,.13c-.32.3-1.12.68-3.65.68-3.59,0-4.27-.76-4.27-.76a12.43,12.43,0,0,0,4.21.11,8.48,8.48,0,0,0,3.68-1.38A2.12,2.12,0,0,1,57.8,99.92Zm3.27-18.5a38.89,38.89,0,0,1-.27,5,3.76,3.76,0,0,1-.68,1.43c0,.11.38.05.54,1.19a25.83,25.83,0,0,1-.38,6.13,3.51,3.51,0,0,1-1.84,2.21,4.68,4.68,0,0,0,1.08-2.32,5,5,0,0,0-.08-2.65c-.11,0-.11,1.51-.46,2.67a6,6,0,0,1-2.78,2.78l-.13.08a4.14,4.14,0,0,1-2.06.49c-1.32,0-1.86,0-2.32-1.86a6.75,6.75,0,0,1-.16-1v0a2.53,2.53,0,0,0-.05,1.41A5.08,5.08,0,0,0,52,98.25c.14.16-.89-.08-1.35-.62s-1.05-1.73-1.54-5S47.41,82.3,47.31,81.79a.51.51,0,0,0-.05-.14.84.84,0,0,1,.11-.83c.34-.34.79-.36,1.93-.25a24,24,0,0,0,5.22,0c1.39-.27,5.17-1.17,5.8-1.21s.72.4.79,1.06Zm-.72-3a11.3,11.3,0,0,1-1.84.46l.09,0a1.28,1.28,0,0,1-.4,0,16.14,16.14,0,0,0,1.93-4.3,9.17,9.17,0,0,1,1.51,3S61.54,77.9,60.35,78.39ZM63,76.81c-.23.7-.14.69-.65.89l-1-2.37a4.38,4.38,0,0,0-.95-1.42,11.1,11.1,0,0,0,1.73-.62h0a1.28,1.28,0,0,0,.49-.21c.11-.13-.07.68.09,1.3A5.1,5.1,0,0,1,63,76.81ZM67.6,57c0,.62-.15,1.34-.17,2.06h0a6.91,6.91,0,0,0-1.37-.52c-.86-.29-2.7-.32-3.37-1.22a2,2,0,0,1-.23-2.59,10.92,10.92,0,0,0,1-3.58c-.13-.23-.29.36-.56.94s-1.1,2.16-1.26,2.48a2.83,2.83,0,0,0-.25.58c0,.05-.16.13-.4-1.31s0-2.14-.22-3.2-.81-3.13-.86-2.27c0,0,.27,1.85.38,2.92s.16,3.06.31,3.58S61.83,57.45,62,58a29.58,29.58,0,0,1,.11,3.53c0,1.46.27,2.43.4,4s.31,6.16.29,6.46-.41.59-.71.8c0,0-2.46.8-3.63,1a72.67,72.67,0,0,1-8.6.74h0s-4.2,0-5.55-.11-3.64-.4-4.65-.49-3.83.05-4.54-.27-.65-1.53-.72-2.11a1.56,1.56,0,0,0-.05-.23c0-.61,0-1.93,0-2.36s.19-1.46.2-1.74,0-1.51,0-1.51a.34.34,0,0,0,.35-.07c.16-.15.14-.7.11-.77a5.76,5.76,0,0,1,1.9.22,22.36,22.36,0,0,0,4.24.32,6.67,6.67,0,0,0,3.39-.74,3,3,0,0,0,1.05-1.36,2.55,2.55,0,0,0,.27-1.51c0-.43-.16-.77-.18-1.12a4.27,4.27,0,0,0,0-1.24,1.59,1.59,0,0,0-.47-.68,1,1,0,0,0-.27-.95,1.91,1.91,0,0,0-1.08-.57c-.21-.09-.33,0-.3-.52a.15.15,0,0,0,0-.07c0-.24,0-1.43-.08-2.32A1.73,1.73,0,0,0,42.68,53c-.15-.11-1.24-.69-1.39.65a7,7,0,0,1-.9,2.8,5.24,5.24,0,0,1-2.12,1.63,1.66,1.66,0,0,1-1.4.18c-.36-.15-.41-.42-.43-.72a2.86,2.86,0,0,0-.3-1.26,2.29,2.29,0,0,0-1-.78,52.63,52.63,0,0,0,.16-5.29c0-.38.05-1.62-.08-1.58a4.62,4.62,0,0,0-.27,1.8c0,.66,0,1.07-.41,1.16s-.62-1.08-.73-1-.05.16.08.84a6.27,6.27,0,0,1-.11,2.14.75.75,0,0,1-.65.49,7.86,7.86,0,0,1-1.51-.22,8.57,8.57,0,0,0-3.53.58,4.78,4.78,0,0,0-1.64,1.37,17.17,17.17,0,0,0-1.67,2.38c-.18.63-.67.38-.7,0a9.36,9.36,0,0,1,.05-1.94A21.17,21.17,0,0,1,25,53.68a19.24,19.24,0,0,1,.94-3,9,9,0,0,1,1.94-2.43c.5-.49,3.06-2.25,3.64-2.72a18.91,18.91,0,0,0,1.58-1.71c.2-.2,1.43-1.32,1.43-1.32A9.13,9.13,0,0,1,37.6,41l.72-.07c.2,0,2.13-.77,2.4-.81a.66.66,0,0,1,.65.19,3.39,3.39,0,0,0,.82.52,1.18,1.18,0,0,0,.38.09h0a2,2,0,0,1,.92,1.3,32.19,32.19,0,0,1,.22,3.87h0a31.49,31.49,0,0,0,.58,4.55c.23.78.49.8.49.8h0a7.53,7.53,0,0,0,1.71.74,3.48,3.48,0,0,0,1.81.29,3.27,3.27,0,0,0,1.38-.38h0a1.61,1.61,0,0,0,.54-.3,1,1,0,0,0,.23-.63l-.09-5.73s.08-3,.51-3.7a3.31,3.31,0,0,1,.83-1l.31-.14h0a2.5,2.5,0,0,0,.5-.29,4.66,4.66,0,0,1,1.13-.4,4.31,4.31,0,0,1,2.54.51h0l.16.1c.4.23,2.25.91,2.84,1.26s1.51,1.1,2.11,1.4,1.16.61,1.94,1.05c.36.2,1.17.59,1.64.8S68,46.06,68.7,46.35s2.21,1,2.53,1.21.19.44.11.53-.34.17-.5.34a10.3,10.3,0,0,0-1.73,2.67A31.14,31.14,0,0,0,67.6,57Zm8,6.09c0,.19,0,.37-.68.28a6.57,6.57,0,0,1-1.86-.4,3.21,3.21,0,0,1-1.63-1.26,13,13,0,0,1-.81-3.59c0-.3-.25-.39-.22.13s-.08,2-.05,2.47a4.36,4.36,0,0,0,.36,1.3c.07.14-.16.21-.42.16a3.28,3.28,0,0,1-1.76-1.06c-.53-.7-.36-2.65-.35-3.11s.27-2.64.37-3.07.67-1.93.95-2.62a16.21,16.21,0,0,1,1.66-3.18,1.8,1.8,0,0,1,1.71-.82A13.2,13.2,0,0,1,74.3,49c.17.13.32.19-.12.23a2.78,2.78,0,0,0-1.56.5,3,3,0,0,0-1,1.39c0,.17.12,0,.23-.23a2.31,2.31,0,0,1,1.05-1,3.86,3.86,0,0,1,2.43-.05c1,.29,1.84.39,2.11.48s1.07.21,1.07.43-.08.11-.79.68a8.13,8.13,0,0,0-1.4,1.57,9.29,9.29,0,0,0-1.4,4,17.38,17.38,0,0,0,0,3,11.29,11.29,0,0,0,.19,1.92C75.32,62.4,75.67,62.87,75.63,63.05Zm2-2.54a10.61,10.61,0,0,1-.45,2c-.23.34-.55.56-.77.5s-.42-.15-.67-1.24a6.78,6.78,0,0,1,0-2.16h0a.33.33,0,0,1,.17-.29c.17-.11.55,0,.55,0a4.73,4.73,0,0,1,1.27.34C77.82,59.93,77.64,60.35,77.6,60.52ZM79,56h0s-.24,1.37-.29,2-.05.94-.23,1A3.8,3.8,0,0,1,77.22,59h0c-1.49-.3-1.66-.63-1.7-.77a6.85,6.85,0,0,1,.1-2.09,13.08,13.08,0,0,1,1.05-2.75.76.76,0,0,1,.17-.25s.74-.78,1-1a.74.74,0,0,1,.55-.19h0l1.06.35v0s.44.05.48.24a4.37,4.37,0,0,1-.3,1.08l0,.06S79,55.46,79,56Zm2.46-1.28a1.15,1.15,0,0,0-.3,1c0,.17.14.25.13.32a1.07,1.07,0,0,0-.27.66c0,.46.42.89.42,1s-.11.24-.14.52a1.85,1.85,0,0,0,.12.69c0,.08,0,.12-.68,0s-1.13-.2-1.41-.77a5.72,5.72,0,0,1,.14-2.33L80,54l.28-.61s.72.25.95.31a5,5,0,0,0,1.18.22c.46,0,.75,0,.75.08s-.31.21-.4.3S81.8,54.22,81.41,54.72Zm.53,4.36a1.06,1.06,0,0,1,0-.74,5.52,5.52,0,0,0,2,.54,7.33,7.33,0,0,0,3-.32c.16-.09.31-.2-.19-.14a14,14,0,0,1-3.62-.3c-1-.29-1.21-.53-1.45-1.22,0,0-.1-.38,0-.42s.34.27.82.43a10,10,0,0,0,2.73.16,3.35,3.35,0,0,0,1.74-.46c.17-.2.21-.43,0-.46a7.81,7.81,0,0,1-1.9.32A5.74,5.74,0,0,1,82,56c-.48-.24-.52-.57-.43-.7a1.06,1.06,0,0,1,.79-.48c.48-.05,2.36-.07,2.85-.08a2.31,2.31,0,0,0,1.08-.38.13.13,0,0,0,.06-.06,1.23,1.23,0,0,1,1.35,0c.41.23.48.86.48,1.09a1,1,0,0,0,.36.72,1.44,1.44,0,0,1,.25,1.11c0,.46-.38.79-.49,1.15s0,.81-.21,1.14a1.5,1.5,0,0,1-.61.51c-.18.13-.26.24-.52.46a3.2,3.2,0,0,1-2.09.55A4.94,4.94,0,0,1,83,60.69a1.83,1.83,0,0,1-.23-.16s-.28-.24-.08-.38.53.19,1.09.31a5.53,5.53,0,0,0,2-.06c.38-.13.64-.29.58-.33a7.52,7.52,0,0,1-1.77,0C83.81,59.89,83.13,60.16,81.95,59.08Zm.8,4.31s.09-1.27.14-1.79.24-.42.24-.42a1.92,1.92,0,0,1,.54.12.33.33,0,0,1,.21.34S83.66,64,83.66,64s-1.38,15.52-2.48,28c-.62.1-.78-.14-.8-.16ZM80.32,92.63a1.65,1.65,0,0,0,.8.06l-.25,2.83c-.59.09-.76-.13-.78-.16ZM79,108.17l1-12.09a1.68,1.68,0,0,0,.78.06c-.55,6.28-1,11.06-1,11.41-.08,1.05-.19,1.3-.51,1.27S79,108.17,79,108.17Zm.59,1.27c.62,0,.57-.7.57-.7l.14-1.55c1.21.22,5,.89,5.06,1S85,109,85,109s-1.16,1.69-1.47,2-1.28.2-1.62.11-7.56-1.22-7.61-1.26-.82,0-.63-.53a22.67,22.67,0,0,1,2-2.71,1.89,1.89,0,0,1,1-.1c.42.05,1.27.23,1.81.34-.06.7-.11,1.12-.12,1.2-.16.95.08,1.05.08,1.05A2.71,2.71,0,0,0,79.62,109.44Zm6.25-.62a.73.73,0,0,1,.58-.21c.35,0,5.67.95,6.16,1.09s.34.39.34.39-1.75,2.1-2,2.36-.29.4-.84.34-5.27-1.3-6-1.46l.32-.34A18.17,18.17,0,0,0,85.87,108.83Zm-12.6.41a1.54,1.54,0,0,1-.6.2c-.49.06-4.89-.86-4.89-.86s-.75-.08-.61-.61a6.62,6.62,0,0,1,2.36-2.2,42.64,42.64,0,0,1,5.21.6c.29.16.34.29.31.43a7.07,7.07,0,0,0-1.1,1.33C73.72,108.54,73.45,109,73.27,109.23Zm-8.82-.14c.22-1,4.18-4.4,4.42-4.52a3.12,3.12,0,0,1,1.2-.16c.37,0,6.3.87,8.22,1.15a1.12,1.12,0,0,0,.33,0l-.07.77c-.88-.14-2.63-.43-2.92-.42,0,0-5.5-.74-5.94-.78s-.77.21-1.29.71a13.52,13.52,0,0,0-1.9,2.32c-.06.28-.09.5.61.74s5.54,1.18,6,1.26c.65.24,9.51,1.8,9.91,1.88s6.43,1.41,6.92,1.45a1.77,1.77,0,0,0,1.36-.34,26.7,26.7,0,0,0,2.45-3.09c.12-.41-.39-.8-.9-.94s-6.23-1.05-6.23-1.05l-.83-.24c-.24-.1-3.91-.83-5.39-1.13l.07-.76,9.45,1.76c1.66.26,2.44.4,3.27.57.61.15,1.49.38,1.85.51a.81.81,0,0,1,.3.65c0,.42-.55,1-.82,1.37s-2.55,3.41-2.88,3.63a3,3,0,0,1-1.9.18c-.57-.16-23.89-4.79-24.44-4.93a1.44,1.44,0,0,1-.84-.47Zm27.21,7a1.85,1.85,0,0,1-.68.06c-.87-.08-24.66-4.58-25.53-5a1.74,1.74,0,0,1-1-1.2,8.25,8.25,0,0,0,1.18.34c.41.11,24.3,4.81,24.83,4.85s1,0,1.2.23A.74.74,0,0,1,91.66,116.14ZM95.2,112c-.37.58-2.13,2.79-2.79,3.61a.26.26,0,0,1-.31,0,1.68,1.68,0,0,1-.18-.75l3.87-5.14a2.48,2.48,0,0,1,.06.37A3.07,3.07,0,0,1,95.2,112Z" fill="#5d3328"/><circle cx="36.86" cy="77.82" r="0.37" fill="#5d3328"/><circle cx="40.14" cy="75.56" r="0.37" fill="#5d3328"/><circle cx="42.79" cy="78.4" r="0.37" fill="#5d3328"/><circle cx="45.58" cy="76.26" r="0.37" fill="#5d3328"/><circle cx="48.66" cy="78.65" r="0.37" fill="#5d3328"/><circle cx="51.32" cy="76.11" r="0.37" fill="#5d3328"/><circle cx="54.53" cy="78.36" r="0.37" fill="#5d3328"/><circle cx="57.41" cy="75.83" r="0.37" fill="#5d3328"/><circle cx="60.18" cy="77.41" r="0.37" fill="#5d3328"/><circle cx="62.11" cy="74.6" r="0.37" fill="#5d3328"/><path d="M58.75,88.46c-.2-.13-1.58.83-2.14,1s-2.14.74-2.14.74c.09.45,1.79.06,2.56-.2a3.71,3.71,0,0,0,1.46-.86C58.91,88.85,58.95,88.58,58.75,88.46Z" fill="#5d3328"/></svg>