<svg xmlns="http://www.w3.org/2000/svg" width="120" height="120" viewBox="0 0 120 120"><title>fee-2</title><rect width="120" height="120" fill="none"/><path d="M40.17,49.44a10.46,10.46,0,0,0-.61,3.32c0,1.07,1,1.53,1.68,1.91s4.39,1.83,5,2.86a4.41,4.41,0,0,1,.46,2.94,3.53,3.53,0,0,1-1.87.11c-.92-.27-6.65.07-7.84-.62s-4.67-2.06-5.77-3.32-6-6.49-6.59-6.79a24.68,24.68,0,0,1-2.86-6.95,46.39,46.39,0,0,1-.65-11.11,25.26,25.26,0,0,1,2.52-9.24c1.64-3.17,6-7.45,7.87-8.9s7.87-3.93,9.13-4.85a40,40,0,0,1,7.56-3.09c.76-.11,6.15-.84,7.29-.88s7.41.27,10,1.53a42.39,42.39,0,0,0,4.62,2.18c.46,0,5,2,6.19,3.47s4.85,7.25,4.85,7.25.61.11,2,1.57S86.48,26.91,87,30.5s.53,10-.73,13.17A44,44,0,0,1,81,52.49a24.1,24.1,0,0,1-4.85,4.35c-1.68.92-3.38,2.6-4.68,2.94s-4.34,1.09-4.72.82a5.06,5.06,0,0,1-.76-2.2,2.38,2.38,0,0,1,.69-1.11c.19-.11,9.7-5.15,12.22-10a31.09,31.09,0,0,0,3.17-11c.11-1.22-2.1-7.83-2.1-7.83s-1.64,0-2.6,0-4.47.31-4.47.31.53-.61,0-2.37A15,15,0,0,0,68.34,20l-1.15-.38a20.06,20.06,0,0,1,0,5.12c-.38,2.06-.76,3.09-.88,3.09s-3.28.08-3.4,0-3.21,0-3.32,0-2.54,1.18-4.41,1.72a24.62,24.62,0,0,1-7,.69c-2.6-.08-3.74-.23-3.74-.23s-.48,1.51-.63,1.51-3.11,1.5-2.88,2.19S43.72,38,44,39.17s.46,4.77-.08,6.11A16.05,16.05,0,0,1,40.17,49.44Z" fill="#cd9a56"/><circle cx="64.86" cy="59.32" r="0.27" fill="#5d3328"/><path d="M43.26,7.21c-.19.12-4.77,2.31-6.1,3.49,0,0-4.67,1.54-7.13,4s-6.36,6.66-8.15,11-1.85,12-1.33,13.79,1.18,8.36,4.92,12.3,9.84,7.33,10.92,8S44,61,44.18,61s2.2-.15,2.15-.36-.41-2.61,0-2.82S51.25,59,51.25,59s9.43,1,13.89-.67c0,0,1,0,.92,1.18s.56,1.18,1.38,1.13a23.44,23.44,0,0,0,6.36-1.95c2.82-1.28,5.9-4.72,6.61-5.54s4.26-6.31,4.92-7.23a18,18,0,0,0,2.1-7.74c.31-3.9-.31-10.92-2.26-14.25a35.8,35.8,0,0,0-4.87-6.25s-5-6.72-7.9-8.2-6.87-3.28-6.87-3.28A27.93,27.93,0,0,0,55.82,5C50.74,5.31,45.2,6,43.26,7.21Z" fill="none" stroke="#cd9a56" stroke-miterlimit="10" stroke-width="0.08"/><path d="M67.2,19.05s1.13,5.28-.31,7.43-1.44,1.69-1.59,1.64a18.19,18.19,0,0,0-5.13,0c-1.64.41-6.72,1.95-7.9,2.15s-7.54.21-7.54.21a8.53,8.53,0,0,0-1.59,1.08,17.47,17.47,0,0,1-2.92,1.49,18.06,18.06,0,0,1-.31,3.9c-.36,1.13-.87,1.64-1.59,1.79s-2.72-.77-4.05.46-1.23,2.77-.51,4.56a4,4,0,0,0,2,2.56c.77.46,2.56.31,2.82.77a16.38,16.38,0,0,1,.82,4.36c.05,1.49,0,2.67,0,2.67a24,24,0,0,0,2.82,1.44c1.28.51,6.51,3.18,11.28,3.79S64.17,58.84,65.86,58s6.15-3,8.51-5.54,4.72-4.05,6-8.25,1.54-6.61,1.28-8.66-.67-6.2-1.44-6.66-2.82,0-3.13,0H73.3a3,3,0,0,0,0-2.36C72.73,25.41,69.35,19.26,67.2,19.05Z" fill="#f2dfcb"/><path d="M53.69,38.87a4.88,4.88,0,0,1,1.64-1.56,9.2,9.2,0,0,1,4.08-1.1c.95.08,2.15.1,2.56,1.08s.21,1.87-.1,1.92a3.65,3.65,0,0,0-1.41.41,7,7,0,0,1-3.31.62C55.92,40.13,53.61,39.92,53.69,38.87Z" fill="#fff"/><path d="M71.71,39.1a3.73,3.73,0,0,1,1.38-2c.95-.62,2.15-1.51,3.87-.85s1.46,2,1.36,2.23A2.54,2.54,0,0,1,75.61,40c-2-.18-2.41-.77-3-.82S71.71,39.28,71.71,39.1Z" fill="none" stroke="#fff" stroke-miterlimit="10" stroke-width="0.08"/><path d="M73.53,39a1.63,1.63,0,0,1-.18-1.59A1.83,1.83,0,0,1,75,36.2a1.4,1.4,0,0,1,1.67,1c.1.74.31,2.31-.87,2.49A3.28,3.28,0,0,1,73.53,39Z" fill="#c2d0e4"/><path d="M55.53,37.41a2.16,2.16,0,0,0,.38,1.82c.67.79,1.2,1.31,1.9,1s1.49-.79,1.56-1.46.33-1.54-.36-2A2.7,2.7,0,0,0,55.53,37.41Z" fill="#c2d0e4"/><path d="M75.86,37.72c0-.08.08-.44.64-.33s-.05-.92-.54-1.13a2.33,2.33,0,0,0-2.2.44C73.35,37.25,75.86,37.72,75.86,37.72Z" fill="#86787b"/><path d="M58.51,38s-.05-.36.28-.36a.48.48,0,0,1,.44.33,1,1,0,0,0-.31-1.26,3,3,0,0,0-2.87.08C55.53,37.28,57,38.1,58.51,38Z" fill="#86787b"/><path d="M30.85,20.85A13.78,13.78,0,0,0,27.52,24c-.92,1.54-2.1,3.9-2.1,3.9a25.8,25.8,0,0,0-2.56,3.18c-.82,1.33-1.49,5.08-1.69,6.77a22.47,22.47,0,0,0,.41,6.66,6.43,6.43,0,0,0,1.74,2.82A14.59,14.59,0,0,1,25,35.92a7.6,7.6,0,0,1,1.28,2c.36,1,1.85,4.15,2,4.67s.51,1.33.51,1.33A5,5,0,0,0,29,41.3a31.71,31.71,0,0,1-1-5.33c-.15-2.46-.26-3.18-.26-3.18a55.23,55.23,0,0,1,1.49-6.15C29.72,25.31,31.05,21,30.85,20.85Z" fill="#dbb680"/><path d="M21.26,30.74S22.7,25,26.59,21.51s5.95-4.2,5.95-4.2,3.79-4.31,3.49-5-1.38-.46-1.38-.46a67.12,67.12,0,0,0-7.54,5.9c-2.46,2.46-5.38,8.15-5.84,10.77S21.26,30.74,21.26,30.74Z" fill="#dbb680"/><path d="M39,9.93c-.11.1-3.49,3.69-4.41,7.38s-.21,8.87-.21,9.54c0,0,.62-6.57,2.1-8.72s2.56-1.74,2.82-1.59-.1,1.33-.77,1.95A3.55,3.55,0,0,0,41,17.26,44.48,44.48,0,0,0,44.08,14a7.23,7.23,0,0,0-1.69,3.44c-.36,2.05-.72,7,.21,9.59s1.95,2.72,1.95,2.72-2.31-4.41-1.28-8.51,1.95-5.49,4.15-5.95,4.05-.41,4.46.26c0,0,1.64-2,3.23-2.31s2.92-.41,4.15-1.28,1.44-3.59,2.05-4.05a3.94,3.94,0,0,1,1.79-.51l.87.15A1.91,1.91,0,0,0,63.15,9c-.15,1.08.46,1.54,2.05,1.44s4.56-.1,6.41,1.44l.92,1.28s1.69.05,4,3,5.13,5.9,5.74,9.64c0,0-.21-4.05-.36-4.82s-3.79-6.36-3.79-6.36S73,9.83,72.32,9.26s-4.05-1-4.05-1a17.24,17.24,0,0,0-2.72-2.05A38.18,38.18,0,0,0,57.25,4.7C54.74,4.7,43.92,5.52,39,9.93Z" fill="#dbb680"/><path d="M66,95a15.67,15.67,0,0,0-1.33,3.74,4,4,0,0,0,1.64,4,19.29,19.29,0,0,1,4.82,1.54,4.86,4.86,0,0,0,3.95.31,9.65,9.65,0,0,0,2.61-1.74,26.23,26.23,0,0,1,2.2-1.85c.31-.31,1.18-1,1.49-1.23s3-2,2.72-2.67-1.54-.56-3.23-.15a18.22,18.22,0,0,1-4.56.15s2.41-1.49,3.08-1.79S79,94.06,78.78,94s-4.72-.15-6,.36S66,95,66,95Z" fill="#f2e3cb"/><path d="M92,60.12c-.19.27-1.54-.72-2.41.46s-1.49,3.64-2,4.05-2.87.77-3.49,1.85-1.08,1.85.21,2.67a7.5,7.5,0,0,0,2.56,1s1.44-.51,1.69-1A4.06,4.06,0,0,1,91,68.07a1.79,1.79,0,0,1,1.69,1.18A2.58,2.58,0,0,1,92,71.55a5.12,5.12,0,0,1-2.61,1.33,3.77,3.77,0,0,1-1.54-.26,6.48,6.48,0,0,0,.77,1.18A4.54,4.54,0,0,0,90.27,75c.31,0,3.69.21,4.1-.26s.82-1.28.62-1.49a9.66,9.66,0,0,1-.62-1.85,3.07,3.07,0,0,0,1.9-1,18.84,18.84,0,0,0,1.18-2.82,10.19,10.19,0,0,1,.77-1.85,4,4,0,0,0,.26-2.15,1.6,1.6,0,0,0-1.13-1.28c-.15.05.15-.82-.36-1.13a2.47,2.47,0,0,0-1.54,0,1.82,1.82,0,0,0-.92-1.33C93.76,59.56,92.58,59.25,92,60.12Z" fill="#f2e3cb"/><path d="M88.53,69.14a2.82,2.82,0,0,0-1.08,2.41C87.65,73,89.24,73,89.6,72.89a10,10,0,0,0,2.92-1.64c.41-.56.56-2.56-.1-2.87S89.14,68.32,88.53,69.14Z" fill="#d9be3e"/><path d="M50.54,58.43a22.17,22.17,0,0,0-3.9-.46c-.31.1-.36,1.44-.51,1.95a7.69,7.69,0,0,1-3.18,2.56c-1.69.87-6.51,2.82-7.49,4.2a24.84,24.84,0,0,0-3.59,7.49c-.67,2.87-2.31,11.69-2.46,13.69S28.75,93,29.72,95s3.59,5.43,4.46,5.84a1.36,1.36,0,0,1,.77,1.33s-.1,6.61-.1,7.54.05,3.54,3.38,3.13,14.3,1.33,14.3,1.33c3.28-.26,8.72.56,14.77-1.33a89.29,89.29,0,0,0,12.3-4.92c.26-.21,1.44-1.74,1.44-1.74l-.56-5.64s3.23-2.46,3.28-2.61,12.77-15,12.82-15.23.72-2.26.72-2.56.26-2.31.26-2.31a11.5,11.5,0,0,1,.62-2.56,4.35,4.35,0,0,0,.31-2.31,4.72,4.72,0,0,0-3.28-1.13c-1,.26.82,1.49-.31,2.41s-5.28.62-5.28.62L88,73l-.56-1.49s-1.18.05-1.44.87-1.49,1.59-1.54,2.1-.51,1.85-.72,1.74a31.45,31.45,0,0,1-1.85-2.61s-6.36-9.43-8.1-10.51-7.49-2.61-8-2.67.36-1.95.36-2.1-6,1-8,1.08A31.21,31.21,0,0,1,50.54,58.43Z" fill="#fff"/><path d="M84.73,77.45c-.1-.21-.87-2.05.21-3.33S87.6,72.68,88,73s1.54,1.95,1.28,2.72-.72,2-.72,2-.56.62-.72.56Z" fill="#d9be3e"/><path d="M83.35,76s-3.18-.15-4.31.41a19.13,19.13,0,0,1-1.74-1.95c-.26-.46-2.56-1.95-3-1.64s.51,2.87-.05,4a10.34,10.34,0,0,1-2.46,2.51,10.32,10.32,0,0,0-2.61,3.23A12.13,12.13,0,0,0,68.58,86s-.05-1.54-1.44-1.38-1.64,1.44-1.38,3S66.33,90.47,67,91a5.06,5.06,0,0,0,2.46.41,2.67,2.67,0,0,0-.36,1.38c.1.56,1.33,1.28,2.61,1.54a13.73,13.73,0,0,0,5-.72c1.13-.36,2.67.1,2.72.87s-2.05,1.64-2.05,1.64l-.77,1.28a46.75,46.75,0,0,0,5.49-.92c.82-.36,1.9-.26,1.74.36s1.08.87,1.64.82,1-.05,1-.05l2.77-.36s-.1,2.1,1.38,2.61,2.92.31,3.49-.46a5.94,5.94,0,0,0,.51-2.72,1,1,0,0,0,1.23-.15c.51-.56-.05-2.15-.05-2.15-.46-.26.77-1.69,1.38-3.18a19,19,0,0,0,.67-4.92s.77.26,1.44-.72.77-2.15.1-2.56-2.31.46-2.67.36S96,81.4,95.55,80.88a27.47,27.47,0,0,0-5.9-4.1l-1.08,1L84.73,78Z" fill="#e3b4ad"/><ellipse cx="71.89" cy="84.65" rx="0.82" ry="1.15" fill="#fff"/><ellipse cx="51.02" cy="77.63" rx="2.54" ry="3.2" transform="translate(-31.98 35.91) rotate(-30)" fill="#e18020"/><ellipse cx="55.89" cy="68.3" rx="2.54" ry="3.2" transform="translate(-26.66 37.1) rotate(-30)" fill="#e18020"/><ellipse cx="72.53" cy="65.84" rx="3.04" ry="2.54" transform="translate(-18.68 101.58) rotate(-63.63)" fill="#e18020"/><ellipse cx="35.85" cy="76.5" rx="3.2" ry="2.54" transform="translate(-48.33 69.29) rotate(-60)" fill="#e18020"/><ellipse cx="60.25" cy="86.4" rx="3.2" ry="2.54" transform="translate(-44.7 95.38) rotate(-60)" fill="#e18020"/><path d="M51,100.64c-.88,1.53-2.59,2.21-3.8,1.51.4-2.65.14-5,.53-5.29a2.49,2.49,0,0,1,2.67-.26C51.58,97.29,51.85,99.1,51,100.64Z" fill="#e18020"/><ellipse cx="34.77" cy="98.39" rx="2.54" ry="3.2" transform="translate(-63.76 64) rotate(-51.3)" fill="#e18020"/><ellipse cx="41.64" cy="109.67" rx="3.2" ry="2.54" transform="translate(-74.16 90.9) rotate(-60)" fill="#e18020"/><path d="M54.11,111.15a3.54,3.54,0,0,1-.41-2.72c.17-.56,2,.09,4.8.18.88,1.53.62,3.34-.6,4S55,112.68,54.11,111.15Z" fill="#e18020"/><path d="M40.72,92a3.82,3.82,0,0,1-1.11-1.41c1.49-1.88,2.72-3,4.28-2.55,1.38,1.11,1.79,2.89.91,4S42.1,93.12,40.72,92Z" fill="#e18020"/><path d="M44.66,65.93c-.88,1.53-2.59,2.21-3.8,1.51a2.54,2.54,0,0,1-1.09-2.6c.06-.45,3.54-3,4.29-2.95C45.28,62.58,45.54,64.39,44.66,65.93Z" fill="#e18020"/><path d="M79.37,32.85a8.32,8.32,0,0,0-3.05-2.05,4.59,4.59,0,0,0-2.61-.21c-.21,0-.56.49.23.69a23.6,23.6,0,0,1,3.28.62A13,13,0,0,1,79.14,33S79.6,33.31,79.37,32.85Z" fill="#5d3328"/><path d="M55,32.92s3-.85,4.2-1.08,2.85-.46,3.38-.56.95-.72-.33-.92a10,10,0,0,0-4,.51,23.48,23.48,0,0,0-3.64,1.69C53.89,33.05,54.33,33.33,55,32.92Z" fill="#5d3328"/><path d="M35.49,41.15a3.07,3.07,0,0,1,1.26-.21c.64.05,1.05.18,1.18.08s-.21-.77-1.38-.77A2.1,2.1,0,0,0,34.8,41a.35.35,0,0,0-.05.46C34.85,41.59,35.31,41.25,35.49,41.15Z" fill="#5d3328"/><circle cx="65" cy="76.98" r="0.35" fill="#5d3328"/><circle cx="67.33" cy="78.78" r="0.35" fill="#5d3328"/><circle cx="69.03" cy="75.81" r="0.35" fill="#5d3328"/><circle cx="66.59" cy="73.39" r="0.35" fill="#5d3328"/><circle cx="67.68" cy="69.53" r="0.35" fill="#5d3328"/><circle cx="63.8" cy="70.8" r="0.35" fill="#5d3328"/><circle cx="64.98" cy="67.4" r="0.4" fill="#5d3328"/><circle cx="62.82" cy="63.35" r="0.4" fill="#5d3328"/><circle cx="61.48" cy="65.91" r="0.4" fill="#5d3328"/><circle cx="65.26" cy="64.28" r="0.35" fill="#5d3328"/><path d="M74.76,86.47a3.3,3.3,0,0,0-.33,1.67,7.31,7.31,0,0,0,.77,2.31c.23.36.21.79-.44.31a3.2,3.2,0,0,1-1.05-2.41,2.47,2.47,0,0,1,.67-2C74.86,85.93,75,86.16,74.76,86.47Z" fill="#5d3328"/><path d="M71.89,83.93a.66.66,0,0,0-.54.72c.08.59.49.79.67.72a.52.52,0,0,1-.33.26A.65.65,0,0,1,71,85.5a.69.69,0,0,0,.77.56c.67-.05,1-1.05,1-1.38s0-1.33-.72-1.51a1,1,0,0,0-1.18.72S71.84,83.4,71.89,83.93Z" fill="#5d3328"/><path d="M66.66,85.83l.15,1.49s.44,0,.49-.69S67,85.81,66.66,85.83Z" fill="#5d3328"/><path d="M66.28,44.3a7,7,0,0,0,1.82.18,4.93,4.93,0,0,0,1.61-.38s.28-.08-.05.33A1.84,1.84,0,0,1,68,45.3a2.87,2.87,0,0,1-2.1-.62C65.56,44.25,65.71,44.12,66.28,44.3Z" fill="#5d3328"/><path d="M58.07,48.12a4.18,4.18,0,0,1,1.36.1,23.14,23.14,0,0,0,6.25,1.51c2.69.08,5.1-1.36,5.82-1.51a2,2,0,0,1,1.79.28c.33.36.21.77-.05.82s-.69-.44-1.18-.41a11.4,11.4,0,0,0-3.15,1.36,7.34,7.34,0,0,1-3.95.36,12.34,12.34,0,0,1-3.64-.95c-1.36-.62-2.1-.9-2.51-.79s-1.1.62-1.74.49S55.94,48.28,58.07,48.12Z" fill="#5d3328"/><path d="M63.43,51.56A8.79,8.79,0,0,0,66.3,52c1.79,0,2.38-.72,2.72-.54s-.87,1.2-2.49,1.44A5.79,5.79,0,0,1,63,52.07C62.81,51.89,62.3,51.2,63.43,51.56Z" fill="#5d3328"/><path d="M98.86,82.27c-.62,0-.77.44-1.31.46a.7.7,0,0,1-.57-.15,3.37,3.37,0,0,0,.41-2s.15.08.49-.82-.21-2.74,0-3.31.79-1,.87-1.36.31-2-.08-2.41a4.29,4.29,0,0,0-2.46-1.05c-.57,0-.69-.11-.62-.22l.09-.06A5,5,0,0,0,97.55,69a7.71,7.71,0,0,0,.77-2.69A2.06,2.06,0,0,0,99,64.4c-.05-1.38-.31-2.51-1.51-2.23A1,1,0,0,0,97,60.84c-.9-.51-1-.23-1.23-.36s-.18-1.1-1.72-1.18-1.82.54-1.82.54-.15-.49-1.41-.21-1.26.56-1.54,1l0,0a21.34,21.34,0,0,0-1.62,3.45,1.67,1.67,0,0,1-.74.76,3.94,3.94,0,0,1-.9.36h0a3.22,3.22,0,0,0-2,.95,2.15,2.15,0,0,0-.67,2.23,3,3,0,0,0,1.51,1.82,7.4,7.4,0,0,0,2.23.67.53.53,0,0,0,0,.31,4.24,4.24,0,0,0-1.33,1,1.22,1.22,0,0,0-.23.82,3.4,3.4,0,0,0-1,1,5.55,5.55,0,0,0-.59,1.56l-.42-.05a58.34,58.34,0,0,0-3.38-5.15,61.72,61.72,0,0,1-4-4.92c-.88-1.42-2.54-3.46-3.73-4s-2.15-.62-1.15-1.15,4-1.35,5.73-2.85a29.85,29.85,0,0,0,3.31-3.38,18.39,18.39,0,0,0,2.42-2.65c.58-1,2.08-3.27,2.5-3.88a14,14,0,0,0,2.65-7.38A21.17,21.17,0,0,0,87.81,38a14.8,14.8,0,0,0,.08-5.58c-.62-2.65-.88-5-1.23-5.88a37.53,37.53,0,0,0-3.73-6.77,13.93,13.93,0,0,0-2.31-2.27c-.54-.46-2.58-3.88-4.27-5.58a15.86,15.86,0,0,0-5.19-3.46C70,8,69.25,7.65,68.9,7.53a22.71,22.71,0,0,0-4.77-2.08c-3.38-1.15-8.69-.85-8.69-.85a42.37,42.37,0,0,0-6.61.62A32.93,32.93,0,0,0,38.37,9.3C35.1,11.41,33.53,11,30.3,14s-5,4.65-7.38,8.84a23.39,23.39,0,0,0-3,10.38,40.1,40.1,0,0,0,.49,6.85h0s.36,2.87.59,3.56a41.67,41.67,0,0,0,2.23,5.2,33.64,33.64,0,0,0,3.54,4.41,31.24,31.24,0,0,0,3.54,2.61c.85.69,2.51,2.18,3.49,2.87a15.1,15.1,0,0,0,5.51,2.33c1.74.15,3.08,0,3.67.21l.44.11c-.26.24-.76.72-1,.92a32,32,0,0,1-4.05,2.23,10.12,10.12,0,0,0-4.28,3c-1.15,1.38-2.67,7.38-2.87,8.13s-1.61,7.43-1.61,7.43-1.56,6.51-.18,11,1.77,4.18,3.46,6.33A8.26,8.26,0,0,0,34.44,102c0,1.55.14,9,.28,9.48s.15,1,.69,1.1,4.92,1.31,6,1.46,8.92,1.69,14.82,1.38A59.17,59.17,0,0,0,73,112.08a24.29,24.29,0,0,0,8.28-4.7l0,0a1.92,1.92,0,0,0,.59-1c.21-.72-.74-5.59-.74-5.59s.23,0,.77-.9S82.42,99,83,98.78s.36-.38,1.15-.46c.64-.06,1.17-.08,1.57-.16s2.61-.48,2.89-.48a4.57,4.57,0,0,1,.51,0s-.21.49.31,1.59a2.08,2.08,0,0,0,2,1.33,4,4,0,0,0,3.54-1.49,2.07,2.07,0,0,0,.26-1.7c0-.07.06-.16.12-.17a1.58,1.58,0,0,0,1.41-1.05,1.55,1.55,0,0,0-.63-2l.07-.06A15.19,15.19,0,0,0,98,90.21a6,6,0,0,0,.13-3.61c.59-.08,1-.23,1.72-1.67A1.82,1.82,0,0,0,98.86,82.27Zm-.67-8.9a2,2,0,0,1-.79,2.2,4,4,0,0,1-1.41.77s-.28.31.56.15a2,2,0,0,0,.87-.33,1.71,1.71,0,0,0-.44,1.1c0,.77.56,1.54,0,2.2a2.51,2.51,0,0,1-1.48.77,13.38,13.38,0,0,0-2.16-2.18,14.78,14.78,0,0,0-3.87-1.72,6.89,6.89,0,0,0,0-1.12,8.32,8.32,0,0,0,2.93.25C95,75.4,96.57,75,97.09,74.3s.41-1.18-.28-1.31a7.74,7.74,0,0,0-1.56-.08s-1.23-.44.26-.77A2.23,2.23,0,0,1,98.19,73.37ZM96.56,81.8a4.84,4.84,0,0,0-.41-.7A1,1,0,0,0,96.7,81,1.29,1.29,0,0,1,96.56,81.8Zm.5-13.32a5.92,5.92,0,0,1-1.54,2.23,4.83,4.83,0,0,1-1.61.67s-.51.18-.15.36a1.14,1.14,0,0,0,.67.09c0,.17,0,.66,0,1s.05.9-.38,1.2a3.76,3.76,0,0,1-2.61.62c-1.15-.14-1.48,0-2.13-.42a2.94,2.94,0,0,0-.88-1.13,4.06,4.06,0,0,0,2.17-.37A4.34,4.34,0,0,0,93,70.81a3.09,3.09,0,0,0,0-1.69,2.13,2.13,0,0,0-1.46-1.28,5.22,5.22,0,0,0-2.56.79,7.71,7.71,0,0,1-.85-1.36,1.64,1.64,0,0,0,1.15.26,1,1,0,0,0,.9-.64,1.68,1.68,0,0,0,1.1.79c.77.15,1.59-.82,1.67-.77a1.56,1.56,0,0,0,.67.44,1.15,1.15,0,0,0,1-.26,1.14,1.14,0,0,0,.64.92c.64.36,1.54-.41,1.72-.33S97.24,68.09,97.06,68.48Zm-9.5,5.21a1.76,1.76,0,0,1,.91.77,3.76,3.76,0,0,1,.05,2.69,3.69,3.69,0,0,1-.58.79l-.24-.05c-.1-.08-.23-.2-.18-.33a3.85,3.85,0,0,0,.62-1.46A3.19,3.19,0,0,0,87.57,73.68Zm4.73-4.28a2.5,2.5,0,0,1-1.41,1.82,3,3,0,0,1-2.49.49c-.44-.13-.64-.69-.64-.69h0a3,3,0,0,1,.13-.78A4,4,0,0,1,89,69l.08,0,.11-.06c.37-.2,1.54-.8,2.12-.6a2,2,0,0,1,.94.7A.76.76,0,0,1,92.29,69.4Zm.13.59c.06,0,.09,0,.12,0a1.19,1.19,0,0,1-.07.23,3.62,3.62,0,0,1-2,1.92c-.85.33-1.79.59-2.41-.05-.13-.38.21,0,.72,0a4.69,4.69,0,0,0,2.31-.62C92,71,92.24,70.14,92.42,70Zm5-7.13c.23-.15,1.13-.08,1.13,1.1a4.77,4.77,0,0,1-1,2.36v0a2.09,2.09,0,0,1-1.53,1.05c-1.13.1-.38-1-.23-1.05s0,0,0,0a3.34,3.34,0,0,0,1.5-2.14C97.37,63.66,97.22,63,97.45,62.86Zm-7.64-2.15h0a1.92,1.92,0,0,1,1.42-.38c.77.15.46.49.64.54s.56-.62.92-.77a2,2,0,0,1,1.79,0,1.58,1.58,0,0,1,.54,1.38c0,.21.15.44.64.08s.59-.46.77-.33.74.28.31,1.67A6,6,0,0,1,95,66a1.51,1.51,0,0,1-1.15.51c-.64-.08,0-.92.08-1.08s1.31-2.38,1.41-2.61.21-.79-.41-.62a1.33,1.33,0,0,0-.87.79,21,21,0,0,1-.79,2.31c-.33.62-1,1.79-1.69,1.74a1,1,0,0,1-.95-1.33c.21-.77,1.18-4.08,1.18-4.08s.08-.74-.44.08-1.69,4.51-2,4.74S88,67.37,88,65.58A12.32,12.32,0,0,1,89.81,60.71Zm-2.87,9.18a3.77,3.77,0,0,1-2.41-.9c-.79-.59-1.08-1.31-.64-1.82a3,3,0,0,1,2-1.33,2.79,2.79,0,0,0,1.42-.45,2,2,0,0,0,.27,1.27,1.2,1.2,0,0,0-1-.36c-.49.13-1.05.18-1,.59s.41.1,1,.28,1.61,1,1.56,1.59A1.45,1.45,0,0,1,86.94,69.89Zm.31,2.1a2.2,2.2,0,0,0,.25.64,1.9,1.9,0,0,0-.43-.07,2.08,2.08,0,0,0-.62.07C86.54,72.49,86.89,72,87.24,72Zm-2.41,3.54a2.18,2.18,0,0,1,1.54-2,1.3,1.3,0,0,1,.37,0,2,2,0,0,1,1,1.67,3.77,3.77,0,0,1-.89,2.56c-.51-.09-1.08-.18-1.64-.23C84.81,76.82,84.81,76.65,84.83,75.53ZM50.07,59.24a24.29,24.29,0,0,1,1.35,2.44,15.18,15.18,0,0,1-3.29-1.05l0-.06C48,60.4,49.87,59.23,50.07,59.24Zm-2.49.85a.29.29,0,0,1-.25,0h0a1.06,1.06,0,0,1,0-1.69c.1,0,.86.21,2,.49C49,59.09,47.68,60,47.58,60.09Zm3.48-.79c.82.17,1.73.34,2.65.47a11.25,11.25,0,0,0-1.26,1.67c0,.1-.11,0-.11,0A15.47,15.47,0,0,0,51.06,59.3Zm3.58.77a10.58,10.58,0,0,1,1.47,2.24c-.63,0-1.38-.09-2.05-.17l-1-.14C53.26,61.72,54.39,60,54.64,60.07Zm.76-.13c.4,0,.8,0,1.2,0,.58,0,1.13,0,1.67-.05-.3.49-1.45,1.85-1.45,1.85A8.39,8.39,0,0,0,55.4,59.94Zm3.59.36c.35,0,1.87,1.48,1.53,1.68a3.14,3.14,0,0,1-1.09.25h0l-1.93.14h-.25C57.56,62.1,58.65,60.28,59,60.29Zm4.91,1.39c-.34.09-1,.19-1.63.27-.16,0-.36,0-.37-.24a5.17,5.17,0,0,1,1.3-1.93c.18,0,1.34,1.24,1.13,1.53A1.5,1.5,0,0,1,63.9,61.68Zm0,1a15,15,0,0,1-.51,1.69l-3.22-1s0,0,0-.06h0c.25-.07,3-.75,3-.75l.66-.12S64,62.54,63.95,62.72Zm-2.56-1.11a23.54,23.54,0,0,0-1.66-1.82c1.06-.12,2-.29,2.75-.45C62.29,59.82,61.39,61.62,61.39,61.62Zm-1.93,2.3c.17,0,3.17,1.26,3.49,1.32l.19.05c-.22.62-.44,1.21-.6,1.53-.4.87-.66,1.17-.92,1.24-.89-1.57-1.85-3.29-2.27-4C59.35,64,59.36,63.92,59.46,63.92Zm5.88,6.38s.05,0,0,.27S64,73,63.83,73.41a17.74,17.74,0,0,0-1.64-4.35A14.13,14.13,0,0,1,65.34,70.3ZM66,71a.25.25,0,0,0,0-.08.3.3,0,0,1,.24-.21,3.47,3.47,0,0,1,2.2,1.47h0a1.35,1.35,0,0,1,.07.56c0,.27-1,2.6-1.1,2.78a.52.52,0,0,1-.43.32,5.94,5.94,0,0,1-2.4-1.8s-.19-.11.06-.49S65.89,71.2,66,71Zm.48,5.57c0,.14-.36.63-.5.85s-1.34,1.62-1.46,1.72a.14.14,0,0,1-.1,0,4,4,0,0,1-.22-1.26c0-.73,0-2.19-.12-3.19v0C64.44,75,66.44,76.47,66.46,76.59ZM65.66,79a8.79,8.79,0,0,1,1.6-1.87c.37-.12,1.92,1.45,2,1.6a5.61,5.61,0,0,1-2.21,1,5.88,5.88,0,0,1-2,.07C65.2,79.75,65.62,79.13,65.66,79Zm2.11-2.64s-.11-.14.11-.32a12.86,12.86,0,0,0,1.3-3s.09-.2.19.1a8.53,8.53,0,0,1,.2,1,17.81,17.81,0,0,1,.14,3.71h0S68.2,76.63,67.77,76.4ZM69,71.55c-.14.05-1.57-1.27-2.15-1.5-.16-.06-.15-.44,0-.64a10,10,0,0,0,.65-2c.36.79.73,1.65,1.07,2.52a14.75,14.75,0,0,1,.51,1.58A.21.21,0,0,1,69,71.55Zm-3-2.1a.21.21,0,0,1-.25,0l-.07-.06,0,0h0c-.46-.19-2.35-.93-2.52-1s-.45-.33-.17-.84.86-1.49,1.06-1.84l.09-.18c1.12.39,2.74,1,2.81,1.06A18.18,18.18,0,0,1,65.93,69.45ZM64.3,64.7a7.14,7.14,0,0,0,.24-1c.09-.64.12-1,.25-1l.15,0a3.57,3.57,0,0,1,.47.59c.09.15.55,1,1.14,2.14Zm.87-4.33h0l0,0h0l-.1.18a13.42,13.42,0,0,0-1.41-1.51,6,6,0,0,0,.76-.24l.08,0s1,0,1,.47A2.68,2.68,0,0,1,65.17,60.36Zm-.23-2.73A27.9,27.9,0,0,1,52.6,58.71a28.18,28.18,0,0,1-8-2.59s-3.95-1.56-4.79-2.51a5.59,5.59,0,0,1,.1-1.46A24.28,24.28,0,0,0,39.33,48c-.1-.52,0-1.38-.67-1.48h-.07a5.38,5.38,0,0,1-3.13-1.13,4.57,4.57,0,0,1-1.79-3.2,2.74,2.74,0,0,1,1.82-3,4.69,4.69,0,0,1,3.2.15s0-.1.72-.69A5.48,5.48,0,0,0,41,35.9c.21-.92-.51-1.36,0-2.41s1.77-1.31,2.72-1.79.69-.74.69-.74a15.13,15.13,0,0,0,6.34,0,38.28,38.28,0,0,0,7.88-2.19,21.48,21.48,0,0,1,6.73-.38l.92.19a.54.54,0,0,0,.73-.46c.08-.65.63-1.94.88-3a12.77,12.77,0,0,0,.35-4.58s4.65,3.61,4.58,6.69a2.88,2.88,0,0,1-.5,1.92c-.62.65,1.88.08,2.77,0s2.15.08,2.92,0a2.9,2.9,0,0,1,1.77.12c.46.27.85,2,1,2.92a12.08,12.08,0,0,1,.54,4A21.18,21.18,0,0,1,80,44.14a23.32,23.32,0,0,1-3.83,6.17,38.63,38.63,0,0,1-6.08,4.9l-.14.09,0,0A22.93,22.93,0,0,1,64.94,57.63ZM51.68,15.26c.27,2.35.65,2.15.54,1.81a12.57,12.57,0,0,1,.19-3.58,9.4,9.4,0,0,1,3.23-5.65c2-1.54,4.84-1.42,6.15-1.27s.85.73.65.88a6.42,6.42,0,0,0-.81,4.73,7,7,0,0,0,2,4,10,10,0,0,1,3,3.42A7.6,7.6,0,0,1,67,24.49c-.31,1.54-.58,2.46-.58,2.46s.23.69-1,.73-3.46,0-3.46,0-1.31.15-.65-1,.92-1.42,1-1.88-.62,1.08-3.15,2.61a11.62,11.62,0,0,1-5.38,2,38.68,38.68,0,0,1-5.88.42c-2.27-.12-3.65.12-4.19-1.69a18.68,18.68,0,0,1-.62-11.42C44.41,12.61,46.79,11,50,9.11A14.06,14.06,0,0,1,55.41,7s-.38.35-1.61,1.58A9.59,9.59,0,0,0,51.68,15.26ZM66.44,59a0,0,0,0,0,0-.07,1.26,1.26,0,0,1,.41-.78c.35-.23,2.61-1.5,3.08-1.77a18.84,18.84,0,0,0,4.54-3.18,5.22,5.22,0,0,1-.67,3.08,5.87,5.87,0,0,1-3,3,12.31,12.31,0,0,1-2.63,1c-.69.08-1.5.15-1.73-.31h0C66.39,59.66,66.25,59.17,66.44,59ZM83.21,46.94c-.5,3.69-3.73,6.61-3.73,6.61S78.63,54.9,75.17,57l-1.27.74a14.2,14.2,0,0,0,1.84-3.49,27.13,27.13,0,0,1,1.05-3.08,25.75,25.75,0,0,0,3.88-6.43s1.88-3.11,1.61-5.42A18.73,18.73,0,0,1,83.21,46.94Zm2.85-3.58c-.92,2.54-1.46,2.81-1.46,2.81s-.81-5.77-1.15-6.81-1.19-6.58-1.81-7.5c0,0-.56-1.76-.65-2.08a.62.62,0,0,1,.18-.57c.42-.31.69-.08,1.12.42a31,31,0,0,1,2,4.08s.23.08,0-1S82.71,28,82.71,28s-.46-1.35.73-.65,2.61,4.35,3.08,6.38A23.11,23.11,0,0,1,86.05,43.37Zm-.73-17.8c1.14,2.95,1.24,4.24,1.21,4.75a12.12,12.12,0,0,0-3.4-4.79,30,30,0,0,0-.77-4.08c0-.08-.08-.22-.14-.35s-.51-1-.51-1S83.71,21.37,85.32,25.56ZM73.25,15a11.16,11.16,0,0,0-1.31-3.61,8.49,8.49,0,0,0-2.31-2.65,18.47,18.47,0,0,1,4.77,2.92c2.08,1.77,5.5,5.23,6.54,8.73a8,8,0,0,0,.5,1.34,10.72,10.72,0,0,1,.73,3,4.3,4.3,0,0,1-1.54,3.15,1.26,1.26,0,0,1-.7.26l-.07,0c-.5-.12-.85-.42-.65-2a7.22,7.22,0,0,0-1.58-4.73,2.1,2.1,0,0,0-1.46-.81,8.76,8.76,0,0,1,1.92,3.65c.58,2.27.23,3.5-.42,3.85a9.56,9.56,0,0,1-3.61.19c-.65-.12.19,0-.58-2.58S69.48,20,68.17,19A44.7,44.7,0,0,1,64,15.34h0c-.22-.31-.61-.85-1.15-1.69a5.24,5.24,0,0,1-.23-4.88,2.49,2.49,0,0,1,2.31-1.27A4.34,4.34,0,0,1,68.1,8.61C69.75,10,72.25,12.26,73.25,15ZM36.91,12.15a18.12,18.12,0,0,1,4.58-3.38,51.51,51.51,0,0,1,5.92-2.37,15.86,15.86,0,0,0-2.46,1.53,34.6,34.6,0,0,1,5.08-2,36.23,36.23,0,0,1,5.65-.77c.11,0,.17,0,.19,0s6.1,0,8.61,1c.53.21.95.39,1.28.54-.45,0-1-.08-1-.08-.46-.19-2-.38-2.38-.54A25.94,25.94,0,0,0,51,6.76C44.83,8.45,43.6,10.3,43.6,10.3c2.11-2,7.5-2.69,7.5-2.69a17.18,17.18,0,0,0-4.84,3.15,13.4,13.4,0,0,0-4.27,8c-.81,5.08-.15,6.5.19,7.88A6.48,6.48,0,0,0,43,28.85h0s0,0,0,0a3.18,3.18,0,0,1,.41,1.54A2,2,0,0,1,42,32a2.07,2.07,0,0,1-2.2-.69,7.78,7.78,0,0,1-1.44-3.05c-.1-.59-.28-.1-.28-.1-.46,1.64.95,3.85,1.41,4.72a7.16,7.16,0,0,1,.28,3.82c-.26.54-1.05,1.56-1.92,1.44a8.34,8.34,0,0,0-2.69.21,3.2,3.2,0,0,0-1,.41c-1.3-.24-1.54-1.06-2.75-3.3s-1.65-6.23-1.31-9a17.39,17.39,0,0,1,1.72-5.36l.38-1.44s.74-2.13,1-2.67A32.32,32.32,0,0,1,36.91,12.15ZM21.21,35.91a15.34,15.34,0,0,1-.11-1.85,25.78,25.78,0,0,1,1.5-8.42,35.84,35.84,0,0,1,4.61-7.5c.92-1,4.42-4.38,6.31-5.23s2.23-1,1.81-.46a12.72,12.72,0,0,0-2.11,2.88,20.7,20.7,0,0,1-1.92,3.5A18.64,18.64,0,0,1,30,20.49h0a32.07,32.07,0,0,0-3.76,4.76l-.21.39a55.37,55.37,0,0,0-3.32,5.15,28.38,28.38,0,0,0-1.17,3.54Zm7.15,12.63a34.17,34.17,0,0,0,0,3.95s.08.9-1.08-.33a32.78,32.78,0,0,1-3.79-4.72,12.15,12.15,0,0,1-1.82-5.9A29,29,0,0,1,22.26,35a30,30,0,0,1,1.27-4.11A10.52,10.52,0,0,1,24.84,29l0,.29c-.13,1-.74,4.05-.15,5.54a29.63,29.63,0,0,1,1.49,4.59c.26,1.31-.23,4.1-.26,4.92a7.69,7.69,0,0,0,.41,2.46c.15.28.44-1.1.41-1.9a29.74,29.74,0,0,0,.18-3.51c-.15-1,.08-.69.46.1a7.53,7.53,0,0,1,1,2.67A30.76,30.76,0,0,1,28.36,48.53Zm10.2,11.28c-1-.15-2.05.1-3.33-2.92S35,53,34.54,50.71a11.75,11.75,0,0,0-2.44-5.1c-.74-.77-.23.36.05.72a11.1,11.1,0,0,1,1.79,5.08c0,2.15-.33,2.69,0,4.31a5.79,5.79,0,0,0,.86,2.36c-.33-.19-1.63-.89-2.06-1.1a5.87,5.87,0,0,1-2.95-3.2A12.49,12.49,0,0,1,29.18,48a19,19,0,0,0-.49-5.54C28.13,40.89,26.31,37.77,26,36a19.29,19.29,0,0,1-.38-5.74,15.58,15.58,0,0,1,2.44-6.38,14.86,14.86,0,0,1,2.33-2.13l.18-.1c.12,0,0,.29,0,.29S30,23,29,25a21.48,21.48,0,0,0-1.58,7.5c.08,1.35.62,1.38.62,1.38-.42-2.58,1.12-5.77,1.12-5.77a13,13,0,0,0,1.42,7.54c.54,1.15,2.38,3.19,2.58,3.61a.71.71,0,0,1,0,.69l0,0a8.63,8.63,0,0,0-.45,1.44,6.51,6.51,0,0,0,.41,2.74,5,5,0,0,0,2.82,2.77,4.27,4.27,0,0,0,1.76.32s.24-.09.57.37a15.44,15.44,0,0,1,.67,2.95,7.86,7.86,0,0,1,.26,1.64c.05.67-.54,1.56-.51,2.85a22.49,22.49,0,0,0,.67,3.77C39.46,59.58,39.54,60,38.56,59.81Zm3.36.23a2.85,2.85,0,0,1-2.18-2.69c-.31-2.05.05-2.38.05-2.38s.31,0,1.05.69a5.23,5.23,0,0,0,2.13.91v0s1.81.73,2.27,1.58a2.63,2.63,0,0,1,0,2.33A9.91,9.91,0,0,1,41.92,60Zm-7.77,40.17a15.33,15.33,0,0,1-4.31-7.1,15.56,15.56,0,0,1-.08-4.33A22.46,22.46,0,0,0,30,86.42c.05-.82.72-3.46.79-4.1s.21-2,.36-2.82.69-3.46,1.15-5a26.45,26.45,0,0,1,2.59-6.1A8,8,0,0,1,39,65.58a28.55,28.55,0,0,1,6-.18c.54.1,1-.05.38-.36A9.34,9.34,0,0,0,42,64.63c-1,.05-1.15-.13-1-.54s1.31-.95,2.08-1.36a22.65,22.65,0,0,1,2.64-1c.1,0,.63-.19,1-.32l.07,0a6.52,6.52,0,0,1,1.46,0,35.21,35.21,0,0,0,4,1.42c1.35.23,3-.15,4.42.38s2.92,3.19,3.81,4.84,2.81,5.08,3,7.34.08,4.54.31,4.81.62.69,2,.58,3.31-.38,4.15-1.31a3.88,3.88,0,0,0,.85-3.46c-.27-1.23,0-3.69-1.38-6.81s-2-5.46-3.54-7c0,0-1-1.42,1.42-1.15a16.8,16.8,0,0,1,6.08,2.35c.73.5,2.54,3.31,3.69,4.65s2.81,3.77,3.61,4.65a10.14,10.14,0,0,1,1.65,2.88v0a3.46,3.46,0,0,0-1,0c-.69.08-1.61.33-2,.31s-.64-.18-1.1-1.1a5.52,5.52,0,0,0-2.28-2.08,2.53,2.53,0,0,0-2.05-.23c-.44.21-.21.64.15,2.38A3.1,3.1,0,0,1,73,78a32.74,32.74,0,0,0-3.13,2.67A7.38,7.38,0,0,0,68.53,84c-.08.33-.51.28-.79.18a2.08,2.08,0,0,0-1.67.33c-.82.46-.77,2.23-.72,2.69s.26,3,1.1,4a2.3,2.3,0,0,0,2,.92c.26,0,.51.36.23.74a.74.74,0,0,0,.26,1,12.68,12.68,0,0,0,1.56.54h0a18.26,18.26,0,0,1-3.28.13,3.08,3.08,0,0,0-.33-1.85,5.85,5.85,0,0,0-1.74-2.49,8.49,8.49,0,0,0-2.79-.51c-.79.05-4.15.15-4.59.21s-.87-.23-1.82-.28-2.41.08-2.87.05-.85-.87-1.41-1.15a7.72,7.72,0,0,0-2.38-.64c-.44,0-.36-.46-.36-.46s0-1.95-.05-2.51a3.54,3.54,0,0,0-.44-1.77,10.79,10.79,0,0,1-.82-2.82,22.45,22.45,0,0,1,.21-2.64c0-.64-.28-1.67-.51-1.61s-.21.64-.18,1.64-.49.72-.49.72c-.51-.31-.74-1.92-1.05-1.79s.13,1.38.38,2a45,45,0,0,1,1.79,6.36c.1,1.28-.15,1.31-.15,1.31a8.3,8.3,0,0,0-2.95.56c-2.77,1.08-3.79,2-4.72,3.15s-.08.64-.08.64S39.9,90.11,42,89s4.92-1.54,5.26-1.15-.36.54-1.05,1-3.41,2.23-3.92,3.87.05,1,.05,1a11.91,11.91,0,0,1,5.87-4.79,3.83,3.83,0,0,1,3,.21c.72.36.41.79.41.79a4.76,4.76,0,0,0-1.2.77,10.53,10.53,0,0,0-2.56,4.15c-1,2.56-.95,6.92-.9,7.84s.69,1.85-.1,2.26-2.79-.18-3.67-.38S36.8,102.57,34.16,100.21ZM65,103c.15.36.36.56-.36.79a7.69,7.69,0,0,1-3.36.08,2.2,2.2,0,0,1-1.06-.59,11.29,11.29,0,0,1-.4-4.76c.23-3.44,1.79-5.15,2.05-5.2a28.66,28.66,0,0,1,3.05.23c.51.08,1,0,.87.74h0a2.35,2.35,0,0,0-.76.82,8.34,8.34,0,0,0-.9,3.49A7.9,7.9,0,0,0,65,103Zm1.15.67a1.86,1.86,0,0,1,0,.53c-.15.69-.67,3-2,3.26s-2.15-.92-2.69-2l-.18-.35c0-.24.1-.48.26-.5a12.16,12.16,0,0,0,2.82-.08A4.64,4.64,0,0,0,66.14,103.7Zm-.81-11c-.13-.36-.28-1.59-1.51-1.59a2.42,2.42,0,0,0-1.82.62S59.84,93,58.94,97.37s.51,6.95.87,7.51a21.42,21.42,0,0,1,1.77,2.59.58.58,0,0,1-.46.62,12.9,12.9,0,0,1-3.77.15c-1.05-.23-2.74-2.31-2.9-2.67s-.33-.38-.15.36.62,1.2.15,1.64-2.41.33-3.59-.23a3.72,3.72,0,0,1-2.44-2.28,16.28,16.28,0,0,1-.33-2.18,16.65,16.65,0,0,1,.72-7.64A7.33,7.33,0,0,1,52.43,91a10.28,10.28,0,0,1,3.41-.33A5.46,5.46,0,0,0,54,93.09c-.21.46-.1,1.13.13.77A10.22,10.22,0,0,1,55.76,92a8.83,8.83,0,0,1,5.43-1.79c3-.15,4.2.62,4.61,1.77s.1,1.26.1,1.26v.09C65.7,93.4,65.45,93.06,65.33,92.73Zm15.33,13.79a4.32,4.32,0,0,1-1.18,1c-.72.41-4,1.77-7.25,3.15s-11.33,2.85-12.61,3a86,86,0,0,1-9.25-.23c-1.31-.15-10.84-1-11.82-1.15s-2.28-.41-2.74-1.95a23,23,0,0,1,.05-6.84.46.46,0,0,1,.64-.33h0a30.64,30.64,0,0,0,3.82,1.64,57.11,57.11,0,0,0,6.64,1.54,4.56,4.56,0,0,1,1.08.18c.26.13,1.38,1.69,2.15,1.9a5.51,5.51,0,0,0,2.18.23,18.47,18.47,0,0,1,2.41.08c.56,0,1.69.41,2.46.41a46.9,46.9,0,0,0,6.1-.54A3.62,3.62,0,0,0,66,106.9a9.55,9.55,0,0,0,.87-1.46c.31-.74.33-1.9.79-2.05h0a2.44,2.44,0,0,1,.75.19c1,.44,2.41,1.59,4,1.74s2.87.08,3.77-.64,2.13-2.08,2.46-2.36a5.49,5.49,0,0,0,.59-.7.5.5,0,0,1,.54-.07c.41.21.31,1,.41,1.36s.15.67.41,1.59S81,105.93,80.66,106.52Zm2.61-8.77a10.3,10.3,0,0,1-2.79,1.33,22.06,22.06,0,0,0-3.64,1c-.67.44-.69.74-.54.95s.44.31.85,0a8.94,8.94,0,0,1,2.54-1c.26.08.64.15.21.62a14.89,14.89,0,0,1-2.08,1.23c-.72.28-2,.28-2.38.64s-.67.9.08.77A8.13,8.13,0,0,0,77,102.7,7.7,7.7,0,0,1,75.61,104a5,5,0,0,1-3.64.1c-1.49-.62-3.67-1.9-4.15-1.92a10.66,10.66,0,0,0-1.93-.16h-.12a4.13,4.13,0,0,1-.87-2.41,7.38,7.38,0,0,1,.82-3.18c.44-.67.56-1.15.82-1.23s.38.13,1.64.05,2.2.1,2.9.05,2.74-.72,3.77-.85,3.18-.56,3.77-.31,1.15.56.1,1l-3.38,1.49c-.36.15-.74.28-.74.28s.51.41.69.54.21.49,1.15.44,2.46-.21,2.46-.21A12.79,12.79,0,0,0,81,97.44a8.77,8.77,0,0,1,2-.64C83.42,96.85,83.71,97.26,83.27,97.75Zm11.95-1.33a.63.63,0,0,1-.61-.25L94.47,96c-.23-.33-.13-.56,0-.62a6.75,6.75,0,0,0,.77-.52c.14,0,.51,0,.59.52S95.7,96.32,95.22,96.42Zm3.54-10.74c-.41.26-1.05.1-1.13.21a35.49,35.49,0,0,1-.56,4.05,9.1,9.1,0,0,1-1.72,3.46,6.87,6.87,0,0,1-2,1.67c-.21.1-.23.85,0,1.26a5.26,5.26,0,0,1,.74,1.77,1.52,1.52,0,0,1-.72,1.28,2.64,2.64,0,0,1-2.36.31c-1.15-.41-1.13-2.05-1.13-2.41s0-.79-.21-.64a6.13,6.13,0,0,1-1.92.38,17.24,17.24,0,0,0-1.85.28.53.53,0,0,0-.23,0,7.64,7.64,0,0,1-1.31-.12c-.31-.1-.05-.85-.9-.95a10.29,10.29,0,0,0-3,.54,3.79,3.79,0,0,1-1.23.08l-.85,0s-.62.08-.56-.33,1.15-.46,1.64-.74,1-1,.64-1.59-.9-.92-2.54-.85a17.86,17.86,0,0,0-3.54.23c-.47.14-.95.31-1.57.46-.57-.17-1.93-.56-2.41-.72s-.67-.59-.46-1.18S71,91.19,71,90.91s-.13-.28-.46-.21a9.15,9.15,0,0,1-2.77.38c-.56-.18-1-.56-1.51-2.46s-.28-3.44.36-3.77a1,1,0,0,1,1.36.49c.21.36.46,2,.69,1.87s.26-.77.26-.77a13,13,0,0,1,.23-2.61c.64-2.23,2.05-3.18,3.2-4.23a16.28,16.28,0,0,1,3.79-2.1c.72-.87-1.64-.23-1.64-.23a3.42,3.42,0,0,0,.31-1.64,11.35,11.35,0,0,0-.31-2.36c1.18-.08,1.82,1,2.64,1.79a5.36,5.36,0,0,1,1,2.74,5,5,0,0,1,2.44-1.26,5.72,5.72,0,0,1,2.85.05c.36.15.38.82.38.82h0a20.05,20.05,0,0,0-2.38.05c-.46.1-.56.26-1.08.85,0,0,3.95,0,5,.15a34.33,34.33,0,0,1,5.87,1.59s.36.18.28-.44-2.61-1.49-2.61-1.49h0a3.33,3.33,0,0,0,.41-.74v0a17.87,17.87,0,0,1,3.35,1.49c1.74,1,3.38,3.92,3.46,4.15s-.23.82.21.9a2.21,2.21,0,0,0,1.46-.26c.36-.26,1.2-.82,1.69-.08S99.16,85.42,98.75,85.68Z" fill="#5d3328"/><path d="M69.93,55.29l0-.07S68.85,56,69.93,55.29Z" fill="#5d3328"/><path d="M62.71,38.23a2.85,2.85,0,0,0-.87-1.81c-.25-.27-.75-.79-2.83-.75a7.59,7.59,0,0,0-4.46,1.54,4.67,4.67,0,0,0-1.43,1.72,1.63,1.63,0,0,0-.12.4c0,.12.08.27.14.26a7.9,7.9,0,0,1,1.4.54,11.9,11.9,0,0,0,4.56.23c1.08-.23,2.13-.94,2.42-.94s.62.23,1,.13S62.71,39.08,62.71,38.23Zm-7.08,1.4a6.33,6.33,0,0,1-1.35-.52S54,39.13,54,39a.71.71,0,0,1,.15-.37h0a2.88,2.88,0,0,1,1-1.08,1,1,0,0,0-.13.37,2,2,0,0,0,.63,1.76Zm3.3-.62a1.41,1.41,0,0,1-1.4.69,1.58,1.58,0,0,1-1.61-.7,1.53,1.53,0,0,1,.16-1.74,1.67,1.67,0,0,1,.45-.32c.15,0,.52-.12.78-.2h0l.14,0a3.09,3.09,0,0,1,.86-.08.83.83,0,0,1,.56.35A2.18,2.18,0,0,1,58.93,39Zm2.86-.09A2.38,2.38,0,0,0,61,39c-.31.11-1.31.56-1.81.69a1.92,1.92,0,0,0,.66-1.51,1.9,1.9,0,0,0-.53-1.64h0a2.49,2.49,0,0,1,2.13.77A2.17,2.17,0,0,1,61.78,38.93Z" fill="#5d3328"/><circle cx="57.47" cy="38.1" r="1.03" fill="#5d3328"/><circle cx="56.34" cy="37.63" r="0.61" fill="#fff"/><path d="M79.08,38a7.22,7.22,0,0,0-.31-.87,2.89,2.89,0,0,0-1.18-1.27,5.46,5.46,0,0,0-2.69-.07,3.93,3.93,0,0,0-1.86,1A4.87,4.87,0,0,0,71.42,39c-.23.76.17.62.28.58a2.9,2.9,0,0,1,.59-.12,3.5,3.5,0,0,1,.93.36,4.71,4.71,0,0,0,1.9.44,8,8,0,0,0,2.22-.28,2.73,2.73,0,0,0,1.39-1c.24-.18.37-.29.41-.47A.84.84,0,0,0,79.08,38Zm-5.75,1a5.33,5.33,0,0,0-.56-.13c-.21,0-.49.08-.53-.11a.55.55,0,0,1,.07-.36,3,3,0,0,1,.75-1.16l.05,0a2.07,2.07,0,0,0-.15.91,1.54,1.54,0,0,0,.4.9Zm.41-.38a1.4,1.4,0,0,1,.6-2.08c.23-.09.43-.15.59-.19h.19l.3,0a1.32,1.32,0,0,1,1,1,1.89,1.89,0,0,1-.54,1.83,1.7,1.7,0,0,1-1.11.24h0l-.29-.08A2,2,0,0,1,73.74,38.7Zm2.45,1A1.69,1.69,0,0,0,77,38.44a1.89,1.89,0,0,0-.27-1.67,2.08,2.08,0,0,1,1,.62,3.87,3.87,0,0,1,.46,1.18A3.1,3.1,0,0,1,76.19,39.68Z" fill="#5d3328"/><circle cx="74.99" cy="37.89" r="0.92" fill="#5d3328"/><circle cx="74.08" cy="37.47" r="0.56" fill="#fcf6f4"/><circle cx="47.72" cy="59.2" r="0.32" fill="#5d3328"/><circle cx="49.78" cy="60.45" r="0.32" fill="#5d3328"/><circle cx="52.49" cy="60.2" r="0.32" fill="#5d3328"/><circle cx="54.58" cy="61.35" r="0.32" transform="translate(-16.81 20.78) rotate(-18.73)" fill="#5d3328"/><circle cx="56.89" cy="60.58" r="0.32" transform="translate(-16.44 21.48) rotate(-18.73)" fill="#5d3328"/><circle cx="59.08" cy="61.51" r="0.32" transform="translate(-16.62 22.23) rotate(-18.73)" fill="#5d3328"/><circle cx="61.22" cy="60.28" r="0.32" transform="translate(-16.11 22.85) rotate(-18.73)" fill="#5d3328"/><circle cx="63.18" cy="61.01" r="0.32" transform="translate(-16.24 23.52) rotate(-18.73)" fill="#5d3328"/><circle cx="64.85" cy="59.37" r="0.32" transform="translate(-15.63 23.97) rotate(-18.73)" fill="#5d3328"/></svg>