<svg xmlns="http://www.w3.org/2000/svg" width="90" height="90" viewBox="0 0 90 90"><title>chemestry</title><path d="M72.35 46.56c0 2-6.6 3.64-14.73 3.64s-14.73-1.63-14.73-3.64M46.62 40.79c0 1.34-6.49 2.43-14.48 2.43s-14.48-1.09-14.48-2.43M42.88 70.65c-2.69.75-7.26.75-10.74.75-8 0-14.48-1.09-14.48-2.43" fill="none" stroke="#fd8204" stroke-linejoin="round" stroke-width=".8"/><path d="M57.61 25.44a16.6 16.6 0 0 1 5.16.63v14a17.06 17.06 0 0 1-5.16.63 17.06 17.06 0 0 1-5.16-.63v-14a16.6 16.6 0 0 1 5.16-.63m0-1.6c-3.73 0-6.76.71-6.76 1.58v15.29c0 .87 3 1.58 6.76 1.58s6.76-.71 6.76-1.58V25.42c0-.87-3-1.58-6.76-1.58z" fill="#fd8204"/><path d="M57.61 25.51a17.05 17.05 0 0 1 5.16.63v14a17.07 17.07 0 0 1-5.16.63 17.07 17.07 0 0 1-5.16-.63v-14a17.05 17.05 0 0 1 5.16-.63m0-1.6c-3.73 0-6.76.71-6.76 1.58v15.29c0 .87 3 1.58 6.76 1.58s6.76-.71 6.76-1.58V25.49c0-.87-3-1.58-6.76-1.58zM42.62 4.83c2.09 0 3.66.08 4.58.17v7.57c-.92.09-2.49.17-4.58.17S39 12.66 38 12.57V5c.92-.09 2.49-.17 4.58-.17m0-1.6c-3.09 0-6.18.18-6.18.55v10c0 .36 3.09.55 6.18.55s6.18-.18 6.18-.55v-10c0-.36-3.09-.55-6.18-.55z" fill="#fd8204"/><path d="M63.65 40.47a16.51 16.51 0 0 1-6 .88 16.51 16.51 0 0 1-6-.88c-5.12 1.22-8.69 3.94-8.69 7.1v35.56c0 2 6.6 3.64 14.73 3.64s14.73-1.63 14.73-3.64V47.57c-.07-3.16-3.65-5.88-8.77-7.1z" fill="none" stroke="#fd8204" stroke-linejoin="round" stroke-width="1.6"/><path d="M61.45 61.89c4.55 4.55 1.83 10.82 1.83 10.82S57 75.43 52.46 70.88s-3.74-12.73-3.74-12.73 8.19-.81 12.73 3.74z" fill="none" stroke="#fd8204" stroke-linejoin="round" stroke-width=".8"/><path d="M50.29 59.56a48.8 48.8 0 0 0 4 5A42.55 42.55 0 0 0 58.86 69a36.17 36.17 0 0 0 5.22 3.54A22.28 22.28 0 0 0 70 74.76v.08a15.17 15.17 0 0 1-6.25-1.63 24.55 24.55 0 0 1-5.27-3.76A43.07 43.07 0 0 1 54 64.81a49 49 0 0 1-3.76-5.2z" fill="#fd8204"/><path d="M33.25 52.39a2.9 2.9 0 0 0-.62.92h-.2a2.93 2.93 0 1 0-3.83 3.84v.2a2.88 2.88 0 0 0-.92.62 2.93 2.93 0 1 0 4.14 4.14 2.89 2.89 0 0 0 .62-.92h.2a2.93 2.93 0 1 0 3.83-3.84v-.2a2.93 2.93 0 1 0-3.22-4.76z" fill="none" stroke="#fd8204" stroke-linejoin="round" stroke-width=".8"/><circle cx="32.53" cy="57.25" r="2.31" transform="rotate(-44.99 32.543 57.254)" fill="none" stroke="#fd8204" stroke-linejoin="round" stroke-width=".8"/><path d="M42.88 47.57c0-2.13 1.63-4.06 4.25-5.46V13.62H38.3s.9 5.42-6.9 11.87c-6 5-13.33 9-13.65 16.68a4.22 4.22 0 0 0-.09.81v33.81c0 2 6.6 3.64 14.73 3.64a45.31 45.31 0 0 0 10.48-1.08z" fill="none" stroke="#fd8204" stroke-linejoin="round" stroke-width="1.6"/><path fill="none" d="M0 0h90v90H0z"/></svg>