<svg xmlns="http://www.w3.org/2000/svg" viewBox="0 0 300 300"><defs><style>.cls-1{fill:none;}.cls-2{fill:#e6f8fc;}.cls-3{fill:#fff;}.cls-4{fill:#e2ddd3;}.cls-5{fill:#f5f7f7;}.cls-6{fill:#c7c0b1;}.cls-7{fill:#692e21;}.cls-8{fill:#f7dfcb;}.cls-9{fill:#efb000;}.cls-10{fill:#fd8204;}.cls-11{fill:#a9d2f1;}.cls-12{fill:#f6c966;}.cls-13{fill:#e16702;}.cls-14{fill:#f9e5cc;}.cls-15{fill:#d2a274;}</style></defs><title>мытье окон</title><g id="Слой_2" data-name="Слой 2"><g id="Слой_24" data-name="Слой 24"><rect class="cls-1" width="300" height="300"/><path class="cls-2" d="M202.71,67.54l-.14-38,33.88,1,.5,133.89-5.54,2.84s-13.57-17.44-13.71-17.76-2.42-8.1-2.63-8.45S202.71,67.54,202.71,67.54Z"/><path class="cls-3" d="M215.85,148.37c0,.35.07,31,.07,31s-.18,1.6-.92,2.13-3.13,1.85-3.13,1.85a46.51,46.51,0,0,1,1,5.47c0,1.21-.85,5-.43,5.68a5,5,0,0,0,3,1.92c1.14.14,9.87.46,10.94.43a19.26,19.26,0,0,0,6.61-2.7,18.13,18.13,0,0,0,3.69-5.68,26.15,26.15,0,0,0,.78-5.11,14.46,14.46,0,0,0-.64-4.83c-.36-1.21-2.06-8-3.41-8.88s-7.67-9.27-8.17-10.09-3.48-8.13-4.19-8.74S216.13,143.76,215.85,148.37Z"/><path class="cls-2" d="M92.82,205.77a36.17,36.17,0,0,1-.36-4.83c-.07-3.2,0-171.26,0-171.26l82.61-5L175.22,60,160.8,186l-36.15,12-26.21,8.17S93.53,207.76,92.82,205.77Z"/><path class="cls-2" d="M31.49,28.33,73,28.12l.53,184.75S33.73,225.5,33.41,225.55s-2-2.45-2-2.45Z"/><path class="cls-4" d="M88.49,32.49l.43,170.9s.91,2.56,2.34,2.77,1.28-2.56,1.28-2.56l.11-173.24S89.18,28.76,88.49,32.49Z"/><polygon class="cls-4" points="244.26 23.32 244.05 167.37 259.61 173.77 260.99 171.42 259.71 14.27 244.26 23.32"/><path class="cls-4" d="M198.8,9.22l0,214,3.73-5.21.21-24-.5-183.33S199.76,4.78,198.8,9.22Z"/><polygon class="cls-4" points="203.03 11.5 257.79 13.95 246.71 21.41 241.92 21.73 202.39 21.51 203.03 11.5"/><path class="cls-4" d="M31.28,15.55l51.89.75,71.71-5.54L143,8.94,34.26,4.15a3.76,3.76,0,0,0-3.09,3.73A67.5,67.5,0,0,0,31.28,15.55Z"/><polygon class="cls-4" points="234.92 171.74 245.15 168.3 259.68 174.51 258.18 176.36 238.4 181.9 234.92 171.74"/><path class="cls-4" d="M32.84,234.18l129.81-41,.57,3.91s-1,5.93-1,6.11-2.42,5.33-2.42,5.33L32.31,252.15,31.24,236Z"/><path class="cls-5" d="M244.26,23.32s-.75-1.1-3.13-1.39-38.75-.43-38.75-.43l.18,8,33.38.92.28,49.79.5,83.32-.57,2.06-4,1.35,2.81,4.76s5.5-1.17,6.07-1.63,3.34-2.81,3.34-3.41S244.26,23.32,244.26,23.32Z"/><path class="cls-5" d="M198.71,18.91l0-11-6.18.43L84.12,15.55l-51.69-.92-.94,13,13.42.75L73,28.12l.23,185s-41.83,12.64-41.78,13,0,8.63,0,8.63l49.76-16.62h8l84.28,6.71,23.33,1s.44-.79.81-1.48l.68.47,1.07-123.43-.64-82.47Zm-11.34,8.57c-.07.4-.12,1.29-.18,2.53l-.25.24,0,12.34c-.12,8.46-.17,17.27-.17,17.27h.11l-.54,153.52-2.44,1.52L113,208.44l48.88-13.71.82-2-.21-5.82-26.81,7.42L95.27,206.84c-1.85-.15-6-.62-6.14-1.86-.21-1.6-.64-172.5-.64-172.5s-.32-2.72,4.47-2.88c3.73-.12,58.29-3.61,82.22-5.15a1,1,0,0,0-.11.17l.07,36.08,7.6-1.07,4,.2.14-34.8s-2.36-.62-5-1l4.41-.28S187.85,24.55,187.37,27.48Z"/><path class="cls-4" d="M238.24,182.18l21.52-6.13a2.83,2.83,0,0,1,.32,2.45c-.56,1.07-12.79,4.85-13,5S237,187.25,237,187.25Z"/><path class="cls-4" d="M33.3,257.26l100-35L122.94,221,32.52,251.51S29.5,259.25,33.3,257.26Z"/><polygon class="cls-6" points="219.26 200.79 226.08 198.24 231.05 199.94 220.25 204.99 219.26 200.79"/><path class="cls-4" d="M220.25,205l2.13,20,5.26-1.42s2.77-.21,3.48-2.49.64-12.93.64-12.93l-.64-7.17Z"/><path class="cls-4" d="M106.39,264.72l15.27-5,41.8-14.45-3.8-2.53s-.82-4.62-.78-4.83.14-12.71.14-12.71L107,243s-1,.28-1.07,5.75S104.76,266.21,106.39,264.72Z"/><path class="cls-6" d="M99.93,243l.21,19.32,5.26,2.34.5-20.1S100.21,241.28,99.93,243Z"/><path class="cls-6" d="M151.57,223.67c-.18-.07-50.72,17.54-50.72,17.54l2.13,2.06,3.34.57L159,225.16l.5-1.49Z"/><polygon class="cls-7" points="237.79 90.08 237.79 94.18 235.74 93.02 235.79 90.45 237.79 90.08"/><polygon class="cls-7" points="240 87.39 240 95.85 238.51 94.89 238.54 89.31 240 87.39"/><path class="cls-8" d="M211.87,184.39c.21,0-9-3.09-11.29-3.55s-7.8,3-8.48,4.09a11.74,11.74,0,0,0-1.32,4.43c0,1,.35,3,1.41,2.95s-.28.89,1.43,1.53a5.69,5.69,0,0,1,4.69.5,20.11,20.11,0,0,1,4.26-.85c1.42,0,3.37,1.14,4.83.78a21.91,21.91,0,0,0,4.37-2.25,11.66,11.66,0,0,0,1-3.79A28,28,0,0,0,211.87,184.39Z"/><path class="cls-9" d="M190.92,278.43s-9.91-.53-11.58-.14-4.44,2.81-4.62,3-5.61,4.23-6.18,5.54-2.1,4.08-.5,6.25,4.26,3.76,9.8,3.84a23.72,23.72,0,0,0,11-2.49c1.31-.71,2.13-1.35,2.49-1.28s4.72,3.52,10.58,3.76,10-1.56,10.8-2.49a9.08,9.08,0,0,0,1.92-4.33c.25-1.78-.71-4.83-2.63-6s-8.81-6.46-8.81-6.46Z"/><path class="cls-10" d="M203,162.22l1.7-3.05c1.14-.6,3.05-4.58,3.62-6s2.45-8.52,2.49-8.74,1.78-.57,1.78-.57c.64.28,2.81,0,3.34,2.63s.64,32,.64,32l-.91,2.87c-.36.32-3.78,2-3.78,2-.67.28-3.23-.25-4.26-.43l-4.69-1.78Z"/><path class="cls-3" d="M158.9,236.89s-.21,3.38.7,4.85,1.49,3.12,3.87,3.5,31.76,3,42.6,1.68,13.52-2.68,13.75-3.17,2.33-5.85,2.33-6.06.27-1.49-.08-1.44-.28-2.43,0-3.55-4,1.45-4.35,1.31-20.18,3.1-33.47,2.77a138.59,138.59,0,0,1-23.54-2.68A4,4,0,0,0,158.9,236.89Z"/><path class="cls-10" d="M138.62,139.52a79,79,0,0,0,1.44-8.11,14.58,14.58,0,0,0-2.56-6.8c-1.24-1.33-8.23-7.36-12-7.69s-10.7-.16-12,2.38a97.88,97.88,0,0,0-4.8,12.49c0,.89-.89,5.1-.23,6.43s.14,4.54,1.12,6.06,1.7,2.77,1.54,4.33-1.4,8.72-1.26,10,.37,2.42,1.17,2.33a9.06,9.06,0,0,0,3.59-2.47c.77-.93,3.92-2.66,5.73-3.54a98.09,98.09,0,0,0,10-5.45C132.68,147.77,137.32,142.08,138.62,139.52Z"/><path class="cls-8" d="M137.74,150.33s1.7-8.76,1.49-9.74-2.21,3.15-4.05,4.85-10,7.2-10.21,7.36.28,1.21.47,1.49,4.31-.37,5.55-.28S137.22,150.87,137.74,150.33Z"/><path class="cls-3" d="M160.62,149.26s-8.2,8.83-9.6,11.75-3.92,7.92-3.92,7.92-2.24-4.4-3.31-6.15c0,0-3-4.1-3.54-4.52s-1.63-5.22-2.52-5.87-5,2-5.83,2.05-5.76.14-6.11,1.12a6.59,6.59,0,0,0-.47,3.78c.35,1.4-.93,5.36-.75,7.64s.14,9.76,2.52,13.24,5.1,9.83,6.34,11.23,6.25,3.92,9,4.52,3.89.42,5.92-.61a94.83,94.83,0,0,0,10.91-7.6c1.14-1.17,2.12-1.75,2.52-3.68s1-8.27,1.26-9.69a41,41,0,0,0,1-6.85c0-2-.51-11.49-.84-13.56S162.81,147,160.62,149.26Z"/><path class="cls-8" d="M186.73,96.4a25.42,25.42,0,0,1-6.4-.25c-1.39-.54-3.3-6.51-3.3-6.51s-.37,5.52-2.22,6.37-5.74-.16-5.74-.16a5.26,5.26,0,0,1-4,2.7c-3.09.54-6.4-.54-6.94,1.08,0,0-.54,5.55-2.24,6.94s-3,2.31-3,4.78.46,4.71,2.55,5.55a4.23,4.23,0,0,1,2,1.16c.54.77,4.09,7.25,8,10.88s15.43,7.17,15.43,7.17c.54.08.08,3.63.69,5,.51,1.14,2.1,2.69,5.17,3.09Z"/><path class="cls-8" d="M226.14,111.73a3.72,3.72,0,0,0-1.93-2.39s-2.24-1-3.16-5.79S217.27,97,216,96.62s-10.26-1-10.26-1c-.39,0-1.47-.85-2.24-2.93-.11-.3-.3-.74-.54-1.27v42.94l1.85-.7c2.93-1.31,12.19-8.79,12.19-8.79,2.08-2.7,3.86-7.1,4.24-7.56s3.7-.93,4.17-1.31S226.45,113.35,226.14,111.73Z"/><path class="cls-3" d="M209.75,143.25c-.28-.07-5.31-1.17-5.92-1.49a4.44,4.44,0,0,0-.91-.23v19a24.58,24.58,0,0,0,3.86-3.94c1.79-2.66,4.2-12.39,4.18-12.79S210,143.32,209.75,143.25Z"/><path class="cls-3" d="M186.73,179.2V144.34l-1-.2c-3.68-.82-4.14-3-4.89-3.5s-7.64,2.38-7.64,2.38l-5.31,2s-.51.51.28,3.36,7,12.19,8.86,13.56,3.8,3.1,4.05,3.82.21,13.91.42,15.15,2.52,2.35,4.8,2.75C187.67,183.86,186.73,179.2,186.73,179.2Z"/><path class="cls-10" d="M186.73,59.86c-7.38.34-13.52,1.56-16.08,2.61a24.72,24.72,0,0,0-6.79,4.32s-5.25,1-7.4,2.85-6.79,7.64-8,12.11-2.16,9.41-1,12.88.69,3.86,1.62,3.32c.71-.41,1.85-4.09,2-6.71a20.3,20.3,0,0,1,3-8.79A61,61,0,0,1,160,75.12a17.44,17.44,0,0,1,8.1-4c2.85-.54,6.71-2.7,9.87-3.63a21.25,21.25,0,0,1,8.75-.7Z"/><path class="cls-10" d="M240.42,97.36c-.08-.69-8-6-8.91-6.66s4.94-.42,6.56-2,2.21-5.27,2-7.27-1.75-1.72-1.75-1.72-12.57,4.71-12.88,4-2-7.71-4-10.1c-1.8-2.15-8.26-10.13-18.48-12.75v7.56A55.12,55.12,0,0,1,212,72c5.63,2.93,11.11,11,11.72,12.65s3.16,8.9,3.63,10.6,1.93,4.52,4.24,5.06,5.56,1.34,6.71.19S240.49,98.06,240.42,97.36Z"/><path class="cls-3" d="M209.32,104.52c-1.16-1.23-2.78-1.7-5.94-1.31a5.82,5.82,0,0,0-1.1.25v5.83l.41.09c2.31.46,3.09-.31,5.4-.69s3.16-.77,3.39-1.47S210.48,105.76,209.32,104.52Z"/><path class="cls-11" d="M207.63,106.41c-.08-1.39-.15-2.62-.69-2.78s-3.09-.83-4.65.39v4.23c1.2,1.17,3.22.68,3.72.46A2.45,2.45,0,0,0,207.63,106.41Z"/><path class="cls-3" d="M167.6,107.3s2.24-3.09,5.4-3.47,4.78.08,5.94,1.31,2.39,2,2.16,2.7-1.08,1.08-3.39,1.47-3.09,1.16-5.4.69A8.16,8.16,0,0,1,167.6,107.3Z"/><path class="cls-11" d="M171.07,105.72a2.74,2.74,0,0,0,.62,2.93c1.16,1.47,3.39.93,3.93.69a2.45,2.45,0,0,0,1.62-2.31c-.08-1.39-.15-2.62-.69-2.78S172.22,103.09,171.07,105.72Z"/><path class="cls-10" d="M186.69,183.8c-4.51-.32-4.36-2.72-4.52-4.34s-.51-8.37-1.13-9.6.12-6.36-.57-6.67-5.87-3.72-7.46-5.86a49.74,49.74,0,0,1-5.48-11.14c-.46-1.93-2.72,0-3.19.57s-1.74.31-1.66,2.86,1,15.13,1.42,17.29-2.35,14.78-1.89,16.71,1,7.81,1.35,8.27,15.83,2.63,23,3C187.65,194.61,187.74,183.87,186.69,183.8Z"/><path class="cls-9" d="M232.38,118.21c-.39-4.47-.69-14.66-1.93-17.36a18.92,18.92,0,0,0-2.93-4.4c-.15-.31-1.93-9.64-2.16-10s-6.56-9.41-9.64-11.8a45.39,45.39,0,0,0-12.8-6.15V91.2a15.3,15.3,0,0,0,2.4,4c1.23.85,8.69.12,11,1.28s1.95.77,3.26,3,1.31,6.17,1.93,7.25,4.25,2.37,4.79,4.07a5.49,5.49,0,0,1-.47,4.5c-.69,1.08-2.75,1.21-3.75,1.75s-2.87,6.16-6.11,9a65.93,65.93,0,0,1-13,8.15v7.36c2.52.72,5,1.37,5.71,1.5a15.14,15.14,0,0,1,5.73,1.56c2.55,1.39,3.54,2.24,4.16,2a75.65,75.65,0,0,0,7.42-3.36A17,17,0,0,0,232,135.6C232.82,133.14,232.77,122.68,232.38,118.21Z"/><path class="cls-9" d="M146.39,88.39l.68-1.73A5,5,0,0,0,146.39,88.39Z"/><path class="cls-9" d="M159.49,97.46c1.93,0,4.63.54,6.32-.23s3.24-2.55,4-2.31,3.63.54,3.63.54c2.93,0,3.63-5.32,3.86-5.32s1.85,5.25,2.55,5.32a59.93,59.93,0,0,0,6.87.42V66.77a53.77,53.77,0,0,0-6.1.07c-.54.15-11,4.55-12.42,4.71S161.73,74,161.73,74c-2.31,2.39-6.71,7.33-7.25,8a7.63,7.63,0,0,0-2.31,4.4c-.23,2.39-1.07,3.5-2,9.63-.35,2.27-2.54,3-2.54,2.48s-2-6.33-1.22-10.15l-2,5.13c-.62,3.24-1.47,12.8-1.47,12.8-.39,2.93-1.64,7.19-1.33,10.12a128.09,128.09,0,0,0,.77,12.91c.69,4.94,2.3,10.21,4.61,12.68s4,3.08,4.73,3,2.47-.15,3.17.7,3.39,3.16,4.94,2.85,3.34-.3,3.57-1.23,2.1-1.6,3-2,9.09-3.28,9.86-3.59,4-1.29,4.31-1.75,1.45-3.26-.1-4.26-13.7-3.84-18.17-9.7-5.35-8.74-5.35-8.74-4.22-.59-5-2.75.14-5.35.75-6.35,2.32-2.91,2.63-3.6,2.39-5.73,2.85-6.27S157.56,97.46,159.49,97.46Z"/><path class="cls-12" d="M186.73,67.34c-1.55-.34-3.11-.59-4.39-.78-3.63-.54-11.72,4-11.72,4a25.57,25.57,0,0,0-7.87,2.55c-3.39,1.93-7.25,6.94-9.1,10.34s-2.6,8.28-3.14,10.13-1.18,5.22-1.57,6.22-3.47,3.78-5,6.79-1.16,10.41-.77,7.1,2.62-4.71,4.71-7.17A25,25,0,0,0,152.57,99,72.62,72.62,0,0,0,154.34,91c0,.23.46-1.16.62,1.7s1.62,3.39,1.62,3.39c-.46-2.08.39-6.86,2.7-13.34s9.26-9.33,8.79-8.41a28.05,28.05,0,0,0-2,13.27c.32,2.85,2.78,7.1,2.78,7.1s-1-4.4,1.62-11.57A19,19,0,0,1,179.64,73c-3.55,4.55-1.31,8.41-1.31,8.41a25.82,25.82,0,0,1,7.25-8.79,10,10,0,0,1,1.15-.71Z"/><path class="cls-12" d="M223.38,84.23s-3.24-5.63-5.48-7.56a47.44,47.44,0,0,0-14.58-8.1l-.4-.12v6.88a34.4,34.4,0,0,1,7.42,7.51c-1.16-7.25-7.56-10.41-6.86-10.34a38.88,38.88,0,0,1,11,4.47c3.93,2.62,9.8,9.26,9.8,9.26Z"/><path class="cls-12" d="M152.3,118.74a22.11,22.11,0,0,0-5.32,12c-.69,7.1,1.47,12.65,3.16,13.58s2.85.31,2.85-.85-1.93-5.94-2.31-8.56a30.51,30.51,0,0,1,1-10.41C152.46,122.36,153.46,116.81,152.3,118.74Z"/><path class="cls-12" d="M222.44,119.76s2.08.08,3.93,5.86,1,10.41.85,12.73-.15,2.7.93,2.62-2.08,2.08-3.16,2.55-1.93-.15-1.62-1.16,2.16-6.17,2.55-7.87-.54-7.79-1.31-9.72S222.44,119.76,222.44,119.76Z"/><path class="cls-13" d="M186.49,199.87c.1-1.92.11-3.84,0-5.75-8.7-.31-16.47-1.26-16.47-1.26-3.76-1.07-5-1.13-5.38-.64s-1.35,1.32-1.53,2.37a4.46,4.46,0,0,0,3.1,3.8c2.93,1,8.39,2.12,20.46,2.3A1.52,1.52,0,0,1,186.49,199.87Z"/><path class="cls-13" d="M213.8,196.45c-1.25-.24-1.19-2.07-2.21-2.84-.46-.35-5.82-.19-11.84.21,0,.06,0,.12,0,.18a4.54,4.54,0,0,1,1.4-.26,1.76,1.76,0,0,1,1.67,1.27,6.3,6.3,0,0,1-.05,2.88c-.07.4-.16.79-.23,1.19v0c1.88-.36,3.64-.74,5.19-1.11C207.47,197.95,215.26,196.72,213.8,196.45Z"/><path class="cls-10" d="M164.86,212.62c3.87.45,7.75.82,11.64,1,2,.11,4.56,1.31,6.57,1.24,1.42,0,2-1.3,3.22-1.52l0,0,.07-.15,0-.11c0-.15.1-.3.15-.45a7.57,7.57,0,0,0,.34-2.14c.1-1.68.14-3.36.21-5,0-.83.05-1.66,0-2.48,0-.44,0-.88-.06-1.32,0-.18,0-.37-.05-.55V201l0-.23c-8,.23-15.54,0-17.68-.54-2.83-.75-3.88-2.77-5.73-1.91s-2.26,7-2.26,7-.65,3.87-1.18,6.94A42.34,42.34,0,0,1,164.86,212.62Z"/><path class="cls-10" d="M220.4,206.8c-.46-4.23-1.88-7-2.42-9-.31-1.14-4.93.44-4.9-.74,0,0,0-.08,0-.12a52.91,52.91,0,0,1-10.63,2.64c0,.12,0,.23,0,.35a27.88,27.88,0,0,1-.29,2.91c-.13,1-.11,2-.18,3a35.83,35.83,0,0,0-.34,5.81c0,.41.1.73.19,1.27s.16.89.23,1.33a16.93,16.93,0,0,1,.26,2.91,8.76,8.76,0,0,1-1.53,5.22,1.81,1.81,0,0,1-2,.78,4,4,0,0,1-.6,1.13c-1.15,1.49-3.49,1.71-5.22,1.8a30.93,30.93,0,0,1-3.56-.09c-1.16-.07-2.33-.11-3.49-.19-4.78-.32-9.49-1.07-14.22-1.74l-.63-.08-.9-.11-1.71-.18q-1.73-.17-3.46-.28c-2-.13-4.1-.2-6.15-.21a37.53,37.53,0,0,0,.29,4.61c.72,5.7,1.94,6.1,5.41,7.08s12.23,1.68,16.31,1.91A275.2,275.2,0,0,0,210,235.49a22.83,22.83,0,0,0,5.27-1.15c4.36-1.37,7-2.88,7.06-3.75C222.41,228.87,220.58,208.52,220.4,206.8Z"/><path class="cls-14" d="M170,247.25c0,.21,1,3.64,2.49,4.51s9,1.65,10.53,1.56a37.17,37.17,0,0,0,5.79-1.5s2.11,1.27,9.89,1.39,8.91-2.66,8.91-2.66a23.13,23.13,0,0,0-.12-3.7c-.2-.14-9.72.72-18.63.46s-18.69-1-18.69-1S169.91,246.35,170,247.25Z"/><path class="cls-3" d="M170.41,252.71c0,.18,0,1.91,2,3.76s6,2.29,8.91,2.43,8.16-1.33,8.16-1.33,10.44.72,13,.52,4.69-3,4.69-3,.72-1.85-.23-2.37-4.89.4-6.88.4-10.56-.49-11.11-.64a25.88,25.88,0,0,0-4.4.29,80.5,80.5,0,0,1-10.76-.23C170.38,252.13,170.55,251.81,170.41,252.71Z"/><path class="cls-15" d="M172.74,258.84l4.92,17.07s-.17,1.65,2.26,2.26a28.09,28.09,0,0,0,9.14.23,19.59,19.59,0,0,1,3.12-.46s8.07-.49,9-1,1.36-3.5,1.39-3.7,2.31-10.62,2.72-12.21.67-5.44.69-5.09-.23,1.39-5.09,1.74a108.32,108.32,0,0,1-11.57-.06,27.52,27.52,0,0,1-9,1.16C175.43,258.49,172.77,257.63,172.74,258.84Z"/><circle class="cls-3" cx="205.5" cy="105.81" r="0.6"/><circle class="cls-3" cx="175.56" cy="106.1" r="0.6"/><path class="cls-7" d="M174.73,98.55c.23-.47-.76-1.17-2.57-1.05s-5.49,1.75-6.49,3.86a15.92,15.92,0,0,1,4.44-1.81C172.62,99,174.49,99,174.73,98.55Z"/><path class="cls-7" d="M212,100.83c.18,0-.35-1.46-2.4-2.34s-3.68-1.46-5.26-.06c0,0,4.85,1.29,5.9,1.75A7.19,7.19,0,0,0,212,100.83Z"/><path class="cls-7" d="M186.73,128.75c-1.39-.12-2.45-.26-2.45-.26-1.21-.19,0,.51.74.78a10.24,10.24,0,0,0,1.71.47Z"/><path class="cls-7" d="M186.73,125c-5.85-.14-7.45-1.57-8.45-2s-1.91-.66-2.38-.12,0,1.29.35.94a1.78,1.78,0,0,1,1.17-.39c.51.08,4.25,2.3,5.77,2.57a30.15,30.15,0,0,0,3.54.51Z"/><path class="cls-7" d="M204.18,122.89a2.1,2.1,0,0,0-1.26-1v.73a2.31,2.31,0,0,1,.56.27C203.64,123,204.3,123.28,204.18,122.89Z"/><path class="cls-7" d="M210.38,103.83a6.26,6.26,0,0,0-2.21-1,10.12,10.12,0,0,0-2.2-.31,15.45,15.45,0,0,0-3,.26v4.12a1.43,1.43,0,0,0,1.25.5,1.5,1.5,0,0,0,1.25-1c.09-.4-.37-1-.05-1.37a.56.56,0,0,1,.81-.06h0c.58.51.39,1.52-.08,2.42a1.92,1.92,0,0,1-1.63,1.16,4.2,4.2,0,0,1-1-.09l-.19-.05-.37-.13v1.38a14.48,14.48,0,0,0,6.41-.82,3.45,3.45,0,0,0,2.26-2.34C211.59,105.94,211.94,105.08,210.38,103.83Zm-1.17,3.94a4.23,4.23,0,0,1-2.81.86h-.07a4.29,4.29,0,0,0,1.16-1.91,2.94,2.94,0,0,0-.4-2.48c.86.08,2,1.37,2.42,1.82S210,107.11,209.21,107.77Z"/><path class="cls-7" d="M179.52,109.13a2.47,2.47,0,0,0,1.37-.23c.26-.2.29-1.23,0-2.51a6.09,6.09,0,0,0-3.27-3.74c-1.58-.61-5-.47-7.77.91a7.33,7.33,0,0,0-3.74,3.59c-.26.47.18.94.53,1.11a7.2,7.2,0,0,0,3.48,1.64,18.56,18.56,0,0,0,3,.5,17.65,17.65,0,0,0,4.65-.85A4.58,4.58,0,0,1,179.52,109.13Zm-11.86-1.3-.08-.06h0s-.6-.26,0-.88a6.13,6.13,0,0,1,1.93-1.46l0,0a3.26,3.26,0,0,0-.19,1.74,3.55,3.55,0,0,0,.72,1.82A14,14,0,0,1,167.66,107.83Zm8.27-.77a2.25,2.25,0,0,1-1.29,1.67,3.31,3.31,0,0,1-3.13-.26,2.9,2.9,0,0,1-1.08-2.37c.09-.2.2-.47.79-.44.28,0,.42.26.49.51a1.38,1.38,0,0,0,.14.82,1.41,1.41,0,0,0,1.43.77,1.38,1.38,0,0,0,1.55-.95,2.24,2.24,0,0,0-.13-1.49s.06-.75,1-.06l0,0A2.84,2.84,0,0,1,175.93,107.06Zm1.26-.15a3.59,3.59,0,0,0-.67-2.58l.15,0A5.09,5.09,0,0,1,180,108c0,.29.09.32-.15.38s-.5-.23-.94-.12-1.85.57-2.93.85A3.84,3.84,0,0,0,177.18,106.91Z"/><path class="cls-7" d="M121.52,129.41c-.21,0-3.68,1.33-5.59,1.07s-2.45.42-1.68.84a6.88,6.88,0,0,0,4.29.23C120.31,131.13,123.45,129,121.52,129.41Z"/><path class="cls-7" d="M122.31,143.85a11.47,11.47,0,0,0,6,.56,13.13,13.13,0,0,0,5.13-2.33c.72-.58,1.42-.79.7.23a9.3,9.3,0,0,1-5.69,3.36,10.13,10.13,0,0,1-6.29-.61C120.79,144.39,120.17,143.11,122.31,143.85Z"/><circle class="cls-7" cx="170.36" cy="148.08" r="0.37"/><circle class="cls-7" cx="173.35" cy="150.77" r="0.37"/><circle class="cls-7" cx="173.19" cy="154.43" r="0.37" transform="translate(-46.85 228.09) rotate(-60.23)"/><circle class="cls-7" cx="177.21" cy="156.27" r="0.37" transform="translate(-46.42 232.51) rotate(-60.23)"/><circle class="cls-7" cx="179.27" cy="160.59" r="0.37" transform="translate(-49.14 236.46) rotate(-60.23)"/><circle class="cls-7" cx="205.32" cy="153.88" r="0.37" transform="translate(-30.19 255.7) rotate(-60.23)"/><circle class="cls-7" cx="206.05" cy="149.53" r="0.37" transform="translate(-26.05 254.15) rotate(-60.23)"/><circle class="cls-7" cx="208.55" cy="147.3" r="0.37" transform="translate(-22.86 255.19) rotate(-60.23)"/><circle class="cls-7" cx="183.58" cy="163.64" r="0.63"/><circle class="cls-7" cx="183.63" cy="173.05" r="0.63"/><circle class="cls-7" cx="184.3" cy="180.02" r="0.63"/><circle class="cls-7" cx="182.36" cy="242.94" r="1.06"/><circle class="cls-7" cx="190.44" cy="239.84" r="1.06"/><circle class="cls-7" cx="197.59" cy="243.13" r="1.06"/><circle class="cls-7" cx="205.23" cy="239.34" r="1.06"/><circle class="cls-7" cx="212.13" cy="242.2" r="1.06"/><circle class="cls-7" cx="218.28" cy="237.54" r="1.06"/><circle class="cls-7" cx="174.91" cy="239.34" r="1.06"/><circle class="cls-7" cx="167.26" cy="242.2" r="1.06"/><circle class="cls-7" cx="162.48" cy="237.79" r="1.06"/><path class="cls-7" d="M188.11,57.85c0-4.94-.11-30-.16-32.61-.05-2.9-2.5-2.4-2.5-2.4s-91.29,5.62-95,6.13c-2.75.37-2.34,6-2.34,6S87.86,198.59,88,203.28c.08,3.7,4.74,4.26,4.74,4.26l66.7,6.07s21.58,1.94,24.93,2.19c4.13.3,3.79-2.08,3.79-2.08V57.85ZM92.17,32.17s-.26,172.91-.37,173c-.82.49-1.18-.57-1.28-.67-.47-12.66-.74-165.9-.69-169.33,0-2-.14-4.26,2-4.49C92.34,30.67,92.17,32.17,92.17,32.17ZM186.08,200l-2.22,0c-13.58-.34-15.26-.87-18.07-2.72a4,4,0,0,1-1.52-3c.22-.9.5-1.34,1.49-.81s10.87,2.25,18.1,2.43l2.22,0C186.08,197.36,186.08,198.72,186.08,200Zm-22.3-13.57a21.29,21.29,0,0,1-.75-5,39.72,39.72,0,0,1,1.8-10c1.21-3.23-.28-14.48-.28-14.48s-1.27-8.48-1.06-8.86a14.59,14.59,0,0,1,3-1.93,63.06,63.06,0,0,0,5.89,11.15,27.9,27.9,0,0,0,6.77,6.77c.87.62,1.46,1,1.31,3.36s0,13.36,1.06,14.85a3.9,3.9,0,0,0,2.31,1.67,7.28,7.28,0,0,0,1.42.22l.8.09c0,3.64,0,7,0,9.94h-2.22a68,68,0,0,1-13.06-1.48c-.31-.06-5.66-.75-6.53-1.74S164.27,188.72,163.78,186.39ZM162,175a14.89,14.89,0,0,1-1.37-5.53c-.28-3.54-.71-3.08-1-2.86s.47,6,.75,8,1.34,5.72,1,7.46-2,3.17-2.73,4.35a13.85,13.85,0,0,1-3.85,4.41c-2.36,1.77-5,3.64-7.33,4.16s-3.57,1.37-7-.12-5-2-5.47-2.55a59.84,59.84,0,0,1-8.51-17.15,32.93,32.93,0,0,1-1.18-6.2s0,0,0,0a5.11,5.11,0,0,0-.06-.55,27.53,27.53,0,0,1,.43-5.92c.4-.87.81-.59,1.49-.62s2.86-.06,2.86-.06a10.37,10.37,0,0,0,.19,3.23c.37.78.65.71.87-.62s.28-2.33.75-2.61,2-.12,2.49-.31.68-.62,1.18-.5a3.87,3.87,0,0,1,1.86,1.93c.31.84.47,2.73,1,3s.22-1.09.31-1.8a4.8,4.8,0,0,0-1.49-3.48c-1.09-.87-.4-1,.56-1.55a3.87,3.87,0,0,1,1.55-.5c.53.06,3.57,2.89,5.16,6.77s2.05,11.43,1.68,14.67-.44,4.19-.06,4.1,1.43-2.49,1.37-4a23.27,23.27,0,0,0,.25-3.6c-.12-.84.06-1.68.25-1.49a33.79,33.79,0,0,1,1.8,5.22c.06.75.53.25.5-1.24s-1-6-2.3-7.33.4-3.42.4-3.42a64.29,64.29,0,0,1,3.76-7.52c1.24-1.69,4.88-6.43,5.16-7s2.41-3.71,3.76-4.19,1.85,6.73,1.9,7.33a63.19,63.19,0,0,1,.25,11.19A43.22,43.22,0,0,1,162,175Zm-41.26-39.7c-.3.42-1.19,1-2,1.77s-3.82,2.54-5.17,4.15a19.27,19.27,0,0,0-2.47,4.75,31.55,31.55,0,0,1-1.82-4.43c-.47-1.72-.86-7.46-.09-10s2.8-8.59,2.89-8.85h0a13.18,13.18,0,0,1,4.52-4.52c2.47-1.26,8.95-.47,9.83-.28a44.34,44.34,0,0,1,8.11,4.43c1.21,1.1,4.87,6.29,4.94,7.64s-1.44,9.88-2.75,12a26.31,26.31,0,0,1-9.37,8.39c-4.59,2.38-6.85,4.29-8.39,4.52a6.41,6.41,0,0,0-3.68,2.05c-.89,1-1.54,3.05-3.17,3s-2.26-.7-1.63-3.12c.28-.54.89-5.71,1.35-8.53s1.26-3.66,2.14-5.55,5-4.92,6.15-6.34S121.07,134.91,120.77,135.33Zm5.47,20.62a1.74,1.74,0,0,1,1.43-.68,18.13,18.13,0,0,0,5.78-.68c1.9-.62,2.42-2,2.92-2s1.37.31,1.49,2.24.71,3.26-1.68,4.16a17.28,17.28,0,0,1-7.58,1.43c-2.73-.22-2.67-.5-2.67-.5A4.38,4.38,0,0,1,126.24,155.94Zm10.52-5.25a1.51,1.51,0,0,0-1.26.09c-1,.4-3.48,2.45-5.1,2.86a18.72,18.72,0,0,1-3.92.37l-1-.82c.28-.14.53-.27.74-.39,1.24-.75,4.29-2.56,5.59-3.54s5.92-3.92,6.76-8.62C138.64,140.53,137.65,149,136.76,150.69ZM149.95,136a35.83,35.83,0,0,0,2.16,5.79,3,3,0,0,1,.33,1s.41,1.15-.47,1.21a6.62,6.62,0,0,1-3.66-1.21h0a8.85,8.85,0,0,1-.75-1.08,26.21,26.21,0,0,1-4.27-11.63c-.41-5.08-.82-14-.47-17.12s.58-4.32,1.87-6.37,3-4.56,4.21-6.72,1.91-2.26,1.93-4a2,2,0,0,0,0-.3s0-.06,0-.1c-.05-1.9,1.61-10.33,3-11.71s.7.7.12,3.92a19.12,19.12,0,0,0,.76,8.77c.7,2.28,2.22,2.51,2.22,2.51a20.87,20.87,0,0,1-1.34,4.62c-1.23,2.75-1.75,2.57-2.86,3.62s-2.81,1.46-4.15,3.27.23,1.05.23,1.05c.76-1,1.11-.94,2.16-1.46s.64.94.64.94a10,10,0,0,0,.18,3.86,7.89,7.89,0,0,0,1,2,27.75,27.75,0,0,0-2.16,5.79c-.35,2.16,0,6.2.47,6.72s.06-2,.23-3.1a42.1,42.1,0,0,1,2.81-8.3,4.74,4.74,0,0,1,2.57,1.46c.94,1.17,4.5,7.07,6.49,9.29s7.66,5.49,15.2,8.18c0,0,1.64-.06,1.81,1s.35,2-.7,2.4-7.29,2.06-8.66,2.54h0a34.37,34.37,0,0,0-5.47,2c-1.18.78-3-2-3-2l-.08-.15c-1-1.93-2.45-3.39-3.74-10.05,0,0-.29-3.16-.82-3.33s-.47,5-.12,7a18.24,18.24,0,0,0,2.32,6.58,19.46,19.46,0,0,0,2.61,2.86s-.51,1.76-1.62,2.21-3.32.56-4.41-.59a26,26,0,0,1-2.71-4.47h0a65,65,0,0,1-3.21-8.15C150.36,133.5,149.66,134.67,149.95,136Zm-3.74-41.5a21.52,21.52,0,0,0,1.48,5,17.58,17.58,0,0,1-2.18,3.16l-.74.76c-.19-1.12-.84-6.31,1.27-14.09A20.26,20.26,0,0,0,146.21,94.52Zm20.22-28.05c-.06-.76-.06-1.46,3-2.4s4.68-1.81,7-2.4a53.52,53.52,0,0,1,9.62-1c0,1.24,0,2.93,0,5a14.79,14.79,0,0,0-4.19-.19A23.05,23.05,0,0,0,174,68.28c-6.31,1.58-11.22,3.51-13.68,5.67a31,31,0,0,0-7.95,10.23,48.7,48.7,0,0,0-2.81,10.29v0a29.93,29.93,0,0,1-.9,3.08A21.63,21.63,0,0,1,147.26,91c-.18-3.74,1.34-9.29,3.68-13.33s4-6.6,8.47-8.18,5.44-1.05,7.25-1.58,2.86-1,2.86-1.17S166.49,67.23,166.43,66.47Zm19.64,107.44-.44.21c-.65.31-1.26.59-1.78.82,0,0-1,.53-1.57.89a25.22,25.22,0,0,1-.5-3.74c0-.64,0-1.55.09-2.5a7.72,7.72,0,0,0,2,1.44c.65.43,1.43.93,2.21,1.41Q186.07,173.18,186.07,173.91Zm0,7.36c-1,.41-1.8.68-2.21.81,0,0-.45.14-.82-.79a18.72,18.72,0,0,1-.44-3.92l1.26.87,2.21,1.35Q186.08,180.45,186.08,181.27Zm0,1.37v.25l-.65-.06h0Zm0-4.47c-.9-.47-1.68-.91-2.21-1.24,0,0-.67-.23,0-.59.51-.23,1.26-.6,2.21-1.09Q186.07,176.74,186.08,178.18Zm0-7c-.85-.49-1.55-.95-2.21-1.37a14.68,14.68,0,0,1-1.65-1.36c.6-.18,1.37-.41,1.65-.53.67-.27,1.44-.6,2.21-.94Q186.07,169.12,186.07,171.19Zm-2.21-4.63s-1.2.53-1.87.79c0-.57,0-1.08,0-1.46a3.49,3.49,0,0,0-.91-1.89c.23-.89.89-3.15,1.17-4.6a11.42,11.42,0,0,0,1.61,1.54c.57.48,1.3,1.07,2.21,1.77q0,1.4,0,2.78C185.24,165.9,184.49,166.27,183.86,166.56ZM181,158.49c0,.18-.84,3.74-.93,4.45-.49-.46-1-.9-1.56-1.34s-1.19-1-2-1.65A40,40,0,0,1,181,158.49Zm-5-.12s-.12-4.15-.13-5.56a24.94,24.94,0,0,0,2.49,3.07,11.45,11.45,0,0,0,1.76,1.3Zm.44-6.65c-1.55-2.3-3.26-6.53-3.17-7.4a2,2,0,0,1,1.44-1.55h0a21,21,0,0,1,5.21-1.61c.68,0,1,.8,1.73,1.61a5.85,5.85,0,0,0,2.26,1.53h0a16.72,16.72,0,0,0,2.18.62c0,4.53,0,9,0,13.35a13.85,13.85,0,0,1-2.61-.69A16.72,16.72,0,0,1,176.39,151.72Zm-4.16-5h0s-1.42,3.65-2,4.81c-2-4.58-1.88-5.81-1.88-5.81A21.48,21.48,0,0,0,172.23,146.68Zm-2.61-2.08q.71-.31,1.49-.62a4.76,4.76,0,0,1,.81,1.64S170.4,145,169.62,144.6Zm1.92,7.37,1.34-3.93a36.85,36.85,0,0,0,2.47,4.09A23.82,23.82,0,0,0,171.54,152Zm3,1.06c0,.13-.26,3.45-.34,4.66a22.38,22.38,0,0,1-3.13-4.5A23.78,23.78,0,0,1,174.59,153Zm-17.51-44.53c-.12-1.11-2-1.29-2-1.29,1.05-.76,2.45-3.8,2.92-4.91s.35-2.51.94-3,2.63.35,5.55-.23a6,6,0,0,0,4-2.34,1.23,1.23,0,0,0,.82.41c.47,0,5.61.47,6.2.06s.7-3.51,1.46-3.8,1.23,2.34,1.23,2.34.29.7,4.5,1.17a28.21,28.21,0,0,0,3.38.12c0,12,0,25.67,0,39.21-3.08-.39-6-1-7.89-1.4a30.31,30.31,0,0,1-18.53-13.27,25.44,25.44,0,0,1-2.16-4.27,4.74,4.74,0,0,1-2.92-1.17c-1.05-1.11-1.81-2.1-1.69-5,.12-2.51,1.58-2.57,2.45-2.51S157.2,109.6,157.08,108.49Zm29,52.8c-.93-.66-1.67-1.26-2.21-1.71,0,0-.35-.33-.64-.66l.64.31c.71.2,1.46.38,2.21.52Q186.07,160.52,186.07,161.29Zm0-17.63a5.68,5.68,0,0,1-2.2-.61,3.52,3.52,0,0,1-.47-.28h0a3.55,3.55,0,0,1-1-1.14c-1.23-2.16-.53-4.27,0-4.44s1.67.4,3.68.67Q186.07,140.76,186.07,143.66Zm0-48.42c-3.48.12-6.44-.23-7.06-1.19-1.05-1.64-.88-9.29-1.23-9.23s-2.51,9.47-3,9.82-5.26,1-6.14-.64a27.77,27.77,0,0,1-2.4-7.19c-.47-2.33.33-6.38.68-7.92a5,5,0,0,0,.14-.62c.47-2.75,1.75-5.61,7.95-8.71a18,18,0,0,1,11-1.64C186,74.55,186.05,84.14,186.05,95.24ZM167.42,73.66a18.82,18.82,0,0,0-2.45,6.2l.08.05a18,18,0,0,0-.14,7.78c.94,5.08,2.4,5.2,2.63,7s-.94,1.81-3.1,2.34a23.71,23.71,0,0,1-6.08.12c-2.16-1.11-2.45-1.75-2.92-6.43s.41-7,2-11.34,7.36-6.6,8.77-7.07S169.12,71.32,167.42,73.66Zm16.05-48.89C186.69,25,186.3,26,186.3,26L186,58.76a66.64,66.64,0,0,0-6.66.75l-.21-34.58C181.59,24.8,183.12,24.73,183.48,24.76Zm-6.23.27.1,34.87c-.48.11-.95.22-1.38.34l.11-35.14ZM93.89,206a1,1,0,0,1-.71-1s.22-171.54.16-172.92c-.05-1.23.07-1.44.6-1.49,7.13-.48,59.37-4.16,80.64-5.44l0,35.49c-6.2,2.22-10.17,3.74-12.33,6.31,0,0-2.81-.29-6.55,2.22s-7.83,11.28-8.83,15.37-2.75,5.2-3.21,8.36-1.05,11.69-1.17,13.44a.88.88,0,0,0,0,.31l0,0c-.82,1.93-1.23,7-1.29,11.28s-.18,8.88,1,13.85a28.91,28.91,0,0,0,4.5,10.4l.36.5a9,9,0,0,0,6,3.26s2.39,3.37,4.88,4c0,0-5.53,7.85-6.49,9.14a49.75,49.75,0,0,0-4.23,7.89,13,13,0,0,1-1.21-2.21c-.34-.93-3.7-6.25-5.16-7a3.12,3.12,0,0,1-.75-1.18c-.12-.56-.56-2.83-.68-3.67a3.17,3.17,0,0,0-1.6-2.09,18.31,18.31,0,0,0,1.85-5.62c.23-2.56.86-4.78.19-6.9,0,0,.79-5.29.84-6.25a6.83,6.83,0,0,0-.09-3.12,21,21,0,0,0-4.24-6.57,27,27,0,0,0-5.87-4.24c-2.42-1.26-3.54-3-7.32-2.7s-7.5-.3-10.72,4.19A10.7,10.7,0,0,0,111,122a2.33,2.33,0,0,0-.17.29c-.7,1.35-2.45,8.06-2.7,8.76a24.39,24.39,0,0,0-.79,7.08c.09,3.38,2.77,8,3,8.95a19.67,19.67,0,0,1-.23,6.43,32.29,32.29,0,0,0-.75,5,1.61,1.61,0,0,0,0,.52,2.4,2.4,0,0,0,1.86,2.19,2.75,2.75,0,0,0,2.61-.89c.54-.44,2.05-2.63,2.75-3.12s3.61-1.75,4.66-2.24c.55-.26,1.57-.64,2.59-1.06l.79,1.07c-.55,1.69.37,5.72.37,5.72a21.38,21.38,0,0,0-1.31,7.46s.87,7,2,10S132.3,191,134.13,193a7.64,7.64,0,0,0,1.56,1.25c-2.93.89-35.79,10.87-37.13,11.23A37.11,37.11,0,0,1,93.89,206Zm20,1.43c-.69.11-12.12-1.07-12.15-1.39s1.92-.91,1.92-.91l33.7-10a22.48,22.48,0,0,0,7.37,2.15c3.26.22,10.28-5,11.81-6s4.69-3.2,5-3.73,0,2.27.12,2.92a4,4,0,0,0,.44,1.24s0,.53-.07,1.23l-11.72,3.72-4.91,1.36s-25.22,7.75-27.06,8.42A20.51,20.51,0,0,1,113.85,207.44Zm6.71.43c-.85-.24.69-.85.69-.85s38.34-11.63,40.64-12.28a12.4,12.4,0,0,0,0,1.36,2.81,2.81,0,0,0,.68,1.43c.1,1.1-1.56,6.06-2.49,9.43-1.12.51-3.63,1.67-5.18,2.46a16.57,16.57,0,0,1-4.9,1.33S121.41,208.1,120.56,207.86Zm39,1.62c-.07.59-.15,1.37-.23,2.16-1.21-.11-4.53-.32-4.53-.32Zm24.32,4.24-23.15-2c.45-2.66,1.21-6,1.51-7,.44-1.54,1-5.52,1.63-5.69a11.44,11.44,0,0,1,2.89.37c6.5,2.45,17.14,2.26,17.14,2.26l2.22,0c0,3.64,0,6,0,6.74C185.95,214.13,183.84,213.72,183.84,213.72Z"/><path class="cls-7" d="M260.74,15.69c0-2.73-1.53-2.81-1.7-2.77s-52.77-2.08-55.77-2.2c0-1.08-.17-2.61-1.21-3.15-1.68-.88-4.31-.64-6.71-.48L161.24,9.54C150.69,9,34.14,3.29,33.83,3.29A2.8,2.8,0,0,0,30.64,6c-.29,2.29-.32,6.78-.32,8.64h0V17l.16,15,.43,150.87-.1,50.88v18.86l-.11,3.57s.32,2.4,3.3,1.7,94.27-32.6,102.26-35.39l14.33,1.09c-4.7,1.67-49.22,16.94-49.39,17s-1.88.64-1.85,3.34,0,17.47,0,17.47-.18.92,1.21,2a17,17,0,0,0,4.4,1.92,16.28,16.28,0,0,0,5.11-.78c2.77-.88,53.14-18.11,54.38-18.53,1.77.41,4.17.73,4.17.73.34,1,1.44,3.73,1.44,3.73a6.5,6.5,0,0,0,.1,3.69c.14.65,2.27,5.22,2.63,6.27.3.89,1.09,4.62,1.32,5.75a2.23,2.23,0,0,0,.07.33c.43,1.51,2.3,6.9,2.87,8.86a3.6,3.6,0,0,1,0,2.69l-.05.09c-.36.74-.69.6-1.2,1.2a5.42,5.42,0,0,1-1.63,1.58,27.59,27.59,0,0,0-4.45,3.21,11.11,11.11,0,0,0-2.73,7.13,5.41,5.41,0,0,0,2.59,5c1.08.62,8.4,2.15,12.83,1.44s7.66-3.35,8.52-3.5.45.41,3.21,1.39a35,35,0,0,0,11.35,1.53c3.62-.17,7.76-1.89,8.91-4s2-4.84.29-7.52-4.84-3.5-6.22-4.6a16.65,16.65,0,0,0-2.3-1.58s-1.63-1.46-2.35-2.25-.79-.55-.48-2.54,2.83-12.07,3.35-13.79.89-4.38,1.24-5.31a6,6,0,0,0,.48-2.63c0-1.22.24-2.08.24-2.68s.38-2.66.43-3S216.09,246,219,245l0,.05a4.77,4.77,0,0,0,2.82-2c.67-1,1.33-4.73,1.38-6.37,0-.55.16-8.71,0-10.61,0-.16,0-.41-.06-.74l7.27-2.56s1.35-.07,1.63-2.34.21-20.1.21-20.1-.1-1-1.78-1.78a14.46,14.46,0,0,0-3.24-1.13,14.17,14.17,0,0,0,1.89-.47c2.45-.79,5.67-2.09,7.4-5.27A16.94,16.94,0,0,0,238,188l20-7.2a4.91,4.91,0,0,0,3.2-4.31S260.71,18.42,260.74,15.69Zm-6.89-1.63c2.88.18,1.49.78,1.49.78s-7,3.34-8.95,4.62a8.19,8.19,0,0,1-2.56,1.35l-40.63-.35,0-7.94C207.83,12.64,251.13,13.89,253.85,14.05Zm-10.4,150c.08,4.16-.72,3.52-1.6,4s-6.5,2.14-7.27,2.37a28.66,28.66,0,0,0-1.63-2.84c1.15-.51,4-1.77,5.62-2.34s1.42-3.34,1.42-3.34V100.16A7.74,7.74,0,0,0,241.36,97c0-1-5-3.24-7.31-5.9h.18l2-.59a4.48,4.48,0,0,0,1.57-.47c2.86-1.4,2.86-5.67,2.92-7.42s-.18-5-.53-4.21a1.14,1.14,0,0,1-.09.17V31.74s.48-2.34-3.41-2.45c-3.65-.1-30.26-.48-33.46-.53l0-6.87c3.77-.25,36.6.48,38.48.86a2.37,2.37,0,0,1,2.08,2.08S243.37,159.87,243.45,164ZM213,186.18a2.52,2.52,0,0,1,.51-3c.81-.59,2.38-1.22,3-1a13.21,13.21,0,0,1,1.71,3.58,21.17,21.17,0,0,1,.67,6.58,6,6,0,0,1-1.92,3.44s-2.06.33-2.93-.37-.92-1.54-.56-3.17A14.31,14.31,0,0,0,213,186.18Zm-9.06,12.45.07-4.32a13.72,13.72,0,0,0,1.74.4,16.32,16.32,0,0,0,3.74-.24s1.44-.72,1.76-.48-.15,1.27.88,1.84l.68.37c-.37.21-1.08.59-1.95,1a42,42,0,0,1-4.61,1.08C205.55,198.35,204.61,198.52,203.9,198.63Zm.08,1.49v0l-.1,0v-.28C203.95,200,204,200.06,204,200.11Zm2.59-54.52c.12-.66.51-2,1.7-1.92,1,.08,1.32.61,1.4,1.18A19.44,19.44,0,0,0,206.57,145.59Zm3.11.38c-.13.6-.5,2.16-1,3.76-.57-.87-1.76-2.67-1.73-3.15S208.88,146,209.68,146Zm-2,4.66a15.5,15.5,0,0,0-3.34.35l0,0a26.2,26.2,0,0,0,1.87-3.94A19.16,19.16,0,0,0,207.65,150.63Zm-2.71-6a20.35,20.35,0,0,1-1.31,3.29l0-5.19C204.54,143.08,205.1,143.61,204.94,144.67Zm3,7.18-.21.5a24.65,24.65,0,0,1-3,5.15c-.27-.91-.79-2.75-1.1-4v-1.32A36.91,36.91,0,0,1,207.94,151.85Zm-4.2,9.13c1-1,2-2.18,2.9-3.22,1.64-1.95,4-8.65,4.21-11l.47-2.28s2.63,0,3.62,1.34c.1.14.37,2.54.51,3.93l-.09,29a17.67,17.67,0,0,1-.05,2.18c-.09.13-.92,0-1.62.32s-1.85,1.77-2.37,1.84-5.29-1.67-7.57-2.3Zm12.14-16.84a7.62,7.62,0,0,0,2.45-3.39c.64-2-.18-6.84-1.05-7.83s-.06,4-1.23,6.9-2.4,3.62-2.4,3.62A27,27,0,0,0,208,142c-2.1-.12-2.16.06-2.69-.06-.2,0-.84-.32-1.69-.67l0-6.61c3.29-1.28,7.63-3.27,10.12-5.57,2.93-2.7,6.67-7,7.57-8.65.23-.07.54,0,.91.41.82,1,3.86,7.66,2.34,13.56s-2.45,8.42-4.21,9.88-1.69,1.64-2.34,1.46A9,9,0,0,1,215.87,144.14ZM237.44,31c.53.17,1.09.67,1.07,2.09-.05,2.5-.2,42.93-.21,46.39-.25.08-.52.17-.79.28l-.4.15.4-.15Zm1.75,50.1c0,.7-.12,4.56-1.17,6.2-.66,1-2.28,1.58-3.39,1.84l-.24,0a18.11,18.11,0,0,1-6.14-.12c-1.69-.41-1.05-1.11-.06-1.75s4.38-.82,3.68-1a18.14,18.14,0,0,0-3.45.18c-1,.06-1.87.35-1.64-.76S233.17,83,233.17,83C235,82.48,239.19,80.44,239.19,81.14Zm-1.25,82.72-.43.21-.14-61.64a2.65,2.65,0,0,0,1.24-.64c0,3.58,0,56.28,0,57.38S238.93,163.33,237.94,163.86ZM236.86,100a5.53,5.53,0,0,1-2.49.08.74.74,0,0,0-.25-.08c-1.4-.23-3.1-1.69-4.56-2.81s-1.69-2.92-1.11-3.51.94,0,1.87.23,3,2,3,1.69a4.82,4.82,0,0,0-1.93-2.34c-1.23-.82-2.81-1.64-2.28-2a4.44,4.44,0,0,1,3.62.82c2,1.34,6.25,3.33,6.49,4.91S238.67,99.61,236.86,100Zm-1.33-19.57c-.83.24-1.69.48-2.27.63a2.31,2.31,0,0,0-.67.18c-2.22.88-5,2.28-5.79,1.93s-.82-2.63-.88-3l0-.05a41.92,41.92,0,0,0-5.41-9.07c-2.75-3.3-11.33-8.14-17.15-10.53l-.1-30c2.55.26,27.19.45,32.39.48Zm-26-14.79c2.16.88,7.13,2.57,9.7,6.2a86.19,86.19,0,0,1,4.62,7.95l.06,0c.79,1.93,1.67,6.26-.12,3.36s-7-8.42-7-8.42a44.42,44.42,0,0,0-13.44-7.07l0-5C205.55,63.76,208.08,65,209.56,65.65Zm5.79,9.41c5,3.86,8.88,10.17,9.64,13.85a33.89,33.89,0,0,1,.41,8.65,27.49,27.49,0,0,0,1.11,5.38,10,10,0,0,1,1.29-5.32,5.77,5.77,0,0,0,1.17,2,5.58,5.58,0,0,0,.58,2.45,24.48,24.48,0,0,1,2.4,9c.53,5.14-.12,14.49.06,17.07s.18,8.18-2.69,11.28-3.68,3.62-4.79,3.45.58-2.34.94-4a22.39,22.39,0,0,0,.7-8.88,30.16,30.16,0,0,0-2.86-10.05,3.72,3.72,0,0,1-.65-2.16,2.82,2.82,0,0,1,.59-.64c.76-.58,1.05-.18,2.1-.7a2.74,2.74,0,0,0,1.34-1.29,41,41,0,0,0,1.11,5.79c.53,1.29.47-1.81.58-2.4s-1.17-7.89-1.87-9.23-2.28-.41-3.74-2c0,0-.7-5.26-1.52-6.9s-2.51-3.21-2.75-4,.23-4.68-.64-8.12-4-7.71-5-8.36-1.75-.53-.88.64,4,5.55,4.68,9.82-.35,4.44-1.87,4.85-7.42-.35-8.88-.76-1.52-1-2.44-3.31L203.37,69A44.94,44.94,0,0,1,215.35,75.06ZM204.13,96c.76.41,4.91-.64,10.46,1.11s5.26,4.15,5.73,6.14.47,4.21,1.75,5.49,3,1.23,3,1.4a6.57,6.57,0,0,1,.88,2.57,3.34,3.34,0,0,1-1.87,3.1,4.57,4.57,0,0,1-2.92.29s-3.27,7.19-6.49,10.23c-1.86,1.75-6.53,4.46-11.12,6.63l-.12-37.7A1.49,1.49,0,0,0,204.13,96Zm16.38,50.86,6.24-3.34c2.28-1.23,2.92-1.75,5.08-5.73s2.1-12.27,2.28-17.36c.17-4.89-1.39-16.88-2.29-19.18h0a15.38,15.38,0,0,0,3.74,1.11l.67.07-.07,62.2c-1.4.62-3.2,1.38-4,1.72-.27-.35-.54-.67-.83-1-3.1-3.29-4.69-5-5.65-7.17s-4.24-8.74-5.65-10.37C219.58,147.49,220.34,147,220.51,146.9ZM200.15,9.64s1.2-.8,1.44,4.31.66,166.48.66,166.48a14.92,14.92,0,0,0-2.38-.2Zm-.9,171.61c2.12-.15,6.62,1.34,8.9,2.34s3.42.57,3.76,3.36.53,4.26-.13,5.06a6.46,6.46,0,0,1-2.4.93s-4.87.67-5.38.55a11.34,11.34,0,0,0-2-.51,21.16,21.16,0,0,0-4,.92c-.44.17-1-.09-.67-.55a8.16,8.16,0,0,1,3-1.88c.79-.2,1-.75.6-.89s-2.61,1.2-3.48,1.74a12.82,12.82,0,0,1-4.1,1c-.43,0-.48-.6-.32-.8s1.65-1.36,2.22-1.9a27.77,27.77,0,0,1,3-2.13c.8-.51,1.85-1,1.76-1.14s-.91-.21-2.36.57-4.25,3.71-5,4c-.54.18-.76,0-.84-.14l-.05-.14a6.4,6.4,0,0,1,.7-2.49c1.26-1.86,4.64-4.2,6.22-3.83.47.11.66-.27.51-.53s-2.2-.17-3.18.44c-3,1.87-3.72,3.13-3.72,3.13s-.51.45-.51,0a4.79,4.79,0,0,1,1.28-3.92A11,11,0,0,1,199.25,181.25ZM202,193.88l-.54,24-1.6,4L199.67,194a4.56,4.56,0,0,1,1.48-.29,1.52,1.52,0,0,1,.64.12ZM32.34,6.17c0-.27.16-1.23,3.62-1.07l112.19,5.33,5.12-.31L82.36,15.24l-49.93-.61-.09-2.7Zm.11,175.06L32.34,31.63,32.55,29l40.06.31v183.5C64.35,215.35,34,224.38,34,224.38s-1.33.91-1.6-3S32.45,181.23,32.45,181.23Zm.11,51.89v-5.75a5.48,5.48,0,0,1,2.56-1.17c2.08-.59,41.34-12.89,41.34-12.89s1.28,0,1.28-3,.11-180.49.11-180.49-.05-2.61-3.3-2.66-42.19.32-42.19.32L32.65,17l48.28.61.48,197.85s1,1.68-4.16,3.52c-4.47,1.61-36.71,11.65-44.71,14.14Zm42.09-21L74.53,29.29s1.6.27,1.49,3.62-.21,176.76-.21,176.76S76.08,211.54,74.64,212.12ZM32.82,250.64V235.46l47.78-16.14s1.44-.8,5.11-.64c1.33.06,16.1,1.16,34.42,2.55l-3.62,1.34ZM34.47,256s-1.28.64-1.39-1.28.75-2.66,1.7-3L125,221.59l5.51.42ZM87,217.24s-3.84.64-4-3.84.16-195.93.16-195.93.24-.56,5.11-1.12S197.43,8.85,197.43,8.85s.64-.08.64,2.24.18,161.61.19,169.52a14.72,14.72,0,0,0-3.26,1.53,11,11,0,0,0-2.53,1.92,5.68,5.68,0,0,0-1.13,1.44c-.88,1.74-.83,4.55-.56,4.82s-.15.77.07,1.43a1.15,1.15,0,0,0,1.05.84,2.94,2.94,0,0,0,.45,1.06c.92,1.14,3.11.21,3.56.17.23,1.08,1.06,1.16,2,.94l-.68,29.05s0,1.52-9.27,1c-2.93-.18-14.12-1-28-2h-.06l-.79-.06c-.22,0-.44-.06-.65-.11v.06C128.46,220.38,87,217.24,87,217.24Zm73.23,20.18a3.48,3.48,0,0,1,.85-1.85c.71-.82,1.26-.59,1.26-.59s2.6.86,5.61,1.51c-.68.48-6.93,5.61-7,5.82s-.31.62-.77-.53A6.26,6.26,0,0,1,160.23,237.42Zm-55.12,25.52c-.07,1.21-.64.92-.64.92a28.83,28.83,0,0,1-2.77-1.49c-1.1-.71-.78-1.56-.78-1.56s-.07-17.22,0-17.54,2,.53,2.13.5a22,22,0,0,1,2.13,1.21C105.5,245.26,105.18,261.74,105.11,262.95Zm-.57-20.17c-1.28-.53-3.2-.92-.64-1.85s45.92-15.94,49.49-17.18l5,.38c0,.2,0,.35,0,.44L106.46,243A2.47,2.47,0,0,1,104.54,242.77Zm2.2,21.52-.07-19.39s.14-.89,1.85-1.63,46.49-15.83,49.75-17.1c-.19,3.71-.55,12.58.17,15.18h.07a7.1,7.1,0,0,0,3,3.65Zm56-20.12-.13,0c-.46-.2-1.1-.72-.69-1.44s6.94-5.12,6.94-5.12a81.84,81.84,0,0,1,3.93,7.85.87.87,0,0,0,.07.18A92.22,92.22,0,0,1,162.72,244.17Zm38.89,9.16c1,0,1.75-.06,2.15-.12s.61-.1.89-.16a36,36,0,0,1-.61,3.57c-.88.17-1.74.31-2.55.41A29.89,29.89,0,0,0,201.61,253.34Zm-5.13-.64c-5.53-.38-6.08-1.29-6.08-1.29,0-.17-.07-2.15-.19-3.26,0,0,6.78.17,9.86.14a58.85,58.85,0,0,0,6.66-.67c.53,0,.55.86.29,2.2s-.41,1.8-2.06,2.3S198.25,252.7,196.48,252.7Zm1.25.71,2.94,0c0,1-.21,3.35-.26,3.81-1,.1-2,.15-2.91.17A26.47,26.47,0,0,0,197.73,253.4Zm-3.87-.07c.68,0,1.19.08,1.19.08h2a38.55,38.55,0,0,1-.66,3.93c-.91,0-1.72-.07-2.44-.14C194,256.47,193.89,254.21,193.86,253.33Zm-3.17.23a5.8,5.8,0,0,1,2.28-.26c.07.74-.08,3.18-.12,3.77a16.46,16.46,0,0,1-2.26-.45S189.87,254,190.68,253.56Zm.53,25.43a30.66,30.66,0,0,0,.5,3.1c-1.83.14-3.1.17-3.51.16-.8,0-1.12-.18-1.07-.54s.09-1.49.11-1.86c.44,0,.89,0,1.35-.09C190.66,279.53,191.21,279,191.21,279Zm14.41-34.33c-.49-.65-6.35-7.22-6.64-7.55,3.23-.13,6.14-.25,7-.25a43.83,43.83,0,0,0,4.86-.49Zm-1.4,1.16c-3,.25-6.53.44-10.52.46l-2.36.09c1.11-1.44,5.25-8.58,6.24-8.47S203,244.15,204.22,245.82ZM190.49,245l-6.13-7.74c2.05,0,3.77,0,4.69,0,1.33.06,4.39,0,7.57-.14C195,238.61,190.49,245,190.49,245Zm-1.27,1.39h-1c-5.18-.08-9.6-.33-13.24-.63,1.59-1.71,7.3-7.79,7.78-7.79S188.24,245,189.22,246.42Zm-2,9.05a5.3,5.3,0,0,0-.53-2l1.47-.44c.78.48.8,1.64.66,2.79s-.65,1.46-1.68,1.82l-.2.05A4.87,4.87,0,0,0,187.26,255.47Zm-12.09-11.64c-.69,1-1,.62-1,.62l-3.83-7.52a101.67,101.67,0,0,0,11.45.36A77.06,77.06,0,0,0,175.17,243.84Zm13,4.21a3.65,3.65,0,0,1,.19,2.2,2.88,2.88,0,0,1-2.35,1.92c-6,.62-10.65.29-12.83-1s-2.35-4.21-2.35-4.21C174.26,247.43,188.15,248.05,188.15,248.05Zm-2.42,7.78a12.23,12.23,0,0,1-.21,2.09c-.87.08-2,.13-3.13.16.06-.77.1-3.36.11-4.26l2.71-.05A5.13,5.13,0,0,1,185.73,255.83Zm-4.36,2.27c-.95,0-1.9,0-2.76-.05a20.15,20.15,0,0,1-.32-2.28,8.87,8.87,0,0,1,.06-2c.9,0,1.72.08,2.19.08h.77C181.31,254.68,181.32,257.18,181.37,258.1Zm-6.88-4.73.4.09c.5.09,1.31.16,2.19.23a15.57,15.57,0,0,0-.08,2.6,6.61,6.61,0,0,0,.23,1.65c-.39,0-.74-.1-1-.16a8.42,8.42,0,0,1-1.45-.45l.06,0A7.8,7.8,0,0,1,174.49,253.37Zm-2.86,1.86c-.24-.45-.93-2.11-.14-2.54a2.12,2.12,0,0,1,1.65.19,5.46,5.46,0,0,0,.06,3.63A8.58,8.58,0,0,1,171.63,255.23Zm3.75,10.46a.73.73,0,0,0-.06-.22,1.1,1.1,0,0,0-.09-.25c-.39-1.16-.89-4.14-1.2-5.16s-.43-1.41-.1-1.39,2,.91,7.57.72a38.43,38.43,0,0,0,6.56-.67c.34.1.55.67.67,2.44s0,3.78.24,7.13,1.24,9,1.24,9a15.16,15.16,0,0,1-5.37.77h-.19c-1.77,0-5.2-.14-5.55-.62a26.56,26.56,0,0,1-1.39-3.83C177.51,273,175.73,266.94,175.38,265.7Zm7.84,25.5c-.07.53-.77.62-1.53.57s-5.58.34-6.37-.24-.6-1.2-.48-2.78a3.41,3.41,0,0,1,.35-1.44l2.76,0c1.13,0,4.78.46,4.78.46.37.06.54.23.49.69C183.14,289.14,183.29,290.67,183.22,291.19Zm-1.53-4.6-4.93-.34s-.91-.26,0-.91a24.7,24.7,0,0,0,2-1.82,4.27,4.27,0,0,0,.61-.76l2.55,0a6.49,6.49,0,0,1,2.54.38c.24.29-.26,1-.62,1.72a6.67,6.67,0,0,0-.48,1.87Zm.48-4.69c-.89-.14-2.37,0-2.44-.62s.69-1.51.53-2c.48.1,4.12.43,4.12.43s.74.08,1.78.09a3.51,3.51,0,0,1-.39,2.06A28.93,28.93,0,0,1,182.16,281.9Zm-6.32-1.34a14,14,0,0,1,2-1.29,6.23,6.23,0,0,1,1.51-.05,6,6,0,0,1-.89,1.83,1.25,1.25,0,0,1-.85.53l-.35,0C175.7,281.4,175.53,280.92,175.84,280.56Zm-3.83,3.3a6.53,6.53,0,0,1,4.07-1.2c.41.05,1,.08,1.57.09a7,7,0,0,0-1.62,1.49,13.5,13.5,0,0,1-1.32,1.64,11.18,11.18,0,0,0-3.37,0,5.33,5.33,0,0,0-2,1A10.12,10.12,0,0,1,172,283.87Zm-3.57,5.94a3.43,3.43,0,0,1,1.23-2,5.43,5.43,0,0,1,4-.86.9.9,0,0,0,.46.2c.13.14,0,.33-.08.71-.1.57-.24,2.51-.43,3.21s-1.48.43-1.48.43C169.7,290.86,168.78,290.2,168.44,289.81Zm6.64,6.11a7.91,7.91,0,0,1-3-.6c-2.35-1-3.11-2.15-3.5-3.26a4.56,4.56,0,0,1-.16-.58,13.43,13.43,0,0,0,3.32.87c1,.14,1.65.1,2.15.24s1.22,2.44,1.29,2.92A.37.37,0,0,1,175.07,295.91Zm2.83-.17-.49,0a6.63,6.63,0,0,1-2.28-3.15c1.89.41,8.48.29,8.48.29.38.8.86,1.75,1.06,2.11A16.29,16.29,0,0,1,177.9,295.74Zm7.85-1.05c-.26-.48-.84-1.92-.84-1.92l1.22-.14c1-.12,3.36-.65,4.2-.84A9.3,9.3,0,0,1,185.75,294.69Zm5.84-5.6a12,12,0,0,1-.37,1.14,9.75,9.75,0,0,1-4.61,1.35c-1.94,0-2.15-.41-2.35-1.2a2.76,2.76,0,0,1,.24-2.15c.34-.29,1.44.12,3.06.24a25,25,0,0,0,4.2-.26A7.2,7.2,0,0,1,191.59,289.09Zm.34-2.35a10.09,10.09,0,0,1-4.31.53c-1.34-.19-2.85,0-3.11-.48a3.74,3.74,0,0,1,.72-2.83c.65-1,2.68-1.05,4.17-1a11.08,11.08,0,0,1,2.57.49A23.37,23.37,0,0,1,191.93,286.74Zm.86-7.89c.34,0,1.55.06,2.48.07a15.14,15.14,0,0,1,.25,2.13,2.12,2.12,0,0,0,.12,1l-1,.16c-.64.05-1.14,0-1.49,0A27,27,0,0,0,192.79,278.84Zm9.13,2.73c-1.43.13-3.37.31-4.83.49a9.07,9.07,0,0,0-.66-3.12s.94-.2,2.08-.35a7.52,7.52,0,0,1,1.27.25,10.92,10.92,0,0,1,2.15,2.54A.18.18,0,0,1,201.92,281.57Zm0,.63c.08,0,.57.42.63.47.38.34,2.39,1.72,2.6,2.44s-1.36.55-2.06.67l-1.51.29a5.66,5.66,0,0,0-1.27.1s-1.46,0-1.58,0a18.93,18.93,0,0,1-1-2.68c-.12-.36-.17-.52.07-.71A25.21,25.21,0,0,1,202,282.2Zm-5.25,1.28a5.38,5.38,0,0,1,.67,2.92c-.19.43-1.82.55-2.44.43-.45-.09-1.28-.35-1.7-.49,0-1.27,0-1.94,0-2.93a11.59,11.59,0,0,1,1.86-.31C195.49,283.05,196.26,282.74,196.72,283.49Zm2,12.07c-1-.24-4.17-.69-4.84-1.82a5.3,5.3,0,0,1-.62-2.18c1,.12,5,.6,5.31,1.07A3.86,3.86,0,0,1,198.73,295.55Zm-.1-4.21c-.6.36-3.73-.53-3.73-.53a17.35,17.35,0,0,1-1.69-.78q0-.37,0-.75c0-.48,0-1.12,0-1.82.8,0,3.62,0,4.09.1s.89.19,1.24,1.58S199.23,291,198.63,291.34Zm8.67,2.39a5.49,5.49,0,0,1-1.53,1.95,35.76,35.76,0,0,1-5.94,0,5.26,5.26,0,0,0,.14-2.49s-.34-.55.34-.48a57.26,57.26,0,0,0,6.18.14C207.44,292.73,207.52,293.11,207.3,293.73Zm.34-3.93c0,1.39-.07,1.82-1.44,2.15a23.79,23.79,0,0,1-5.55-.14c-.53-.07-.67-.29-.91-1.29s-.53-2.63-.57-2.78-.22-.43.67-.48a29.29,29.29,0,0,0,3.54-.48s2.11-.55,2.8-.19A3.9,3.9,0,0,1,207.63,289.81Zm6.15.18c0,.18,0,.36,0,.53-.17,2.23-2,3.57-5,4.6-.27.09-.55.17-.86.24a5.76,5.76,0,0,0,.76-1.58,7.21,7.21,0,0,0,.19-1.48S212.28,292.2,213.78,290Zm-2.13-5.07a6,6,0,0,1,2,3.6,8.45,8.45,0,0,1-2.38,1.9c-1.24.53-2.54,1.34-2.78.34a2.53,2.53,0,0,0,.1-1.44,7.22,7.22,0,0,0-1.24-3.21s.14-.36,1.15-.57,2.19-.37,2.74-1ZM209,283c.25.21.8.78.17,1.25a6.06,6.06,0,0,1-2.54.72,7.18,7.18,0,0,1-1.24-1.53c-.21-.32-.6-.82-1.06-1.39l.82,0A6.89,6.89,0,0,1,209,283Zm-4.14-3.49c.81,1,0,1.73-1.07,1.89-1-1.24-2.22-2.57-2.62-3A6.52,6.52,0,0,1,204.91,279.51Zm-.34-16c-.6,2.54-2.66,7.85-2.83,9.82s0,2.94-.62,3.3a15,15,0,0,1-4.93.91c-1.46,0-3.69-.1-4-1s-1.13-7.52-1.39-11.06-.19-6.89-.19-6.89a64.06,64.06,0,0,0,13.12-.57,8.27,8.27,0,0,0,2.06-.81C206.2,256.89,205.17,261,204.57,263.52Zm1.87-8.14a2.88,2.88,0,0,1-1.28.95c.16-.77.59-2.83.68-3.55.53-.11.94-.12,1.17.16C207.49,253.51,207.18,254.61,206.44,255.38Zm10.63-11.59a64.83,64.83,0,0,1-10.24,1.78c1.38-2.23,5.26-8.48,5.26-8.48a31.72,31.72,0,0,1,5.13,6.66Zm1.92-2.46,0,0c-.36.28-1,.47-1.18.31s-3.82-4.79-4.56-5.72c.92-.17,1.76-.36,2.38-.54,2.09,0,5.34-2.09,5.71-2S219.69,240.14,219,241.33Zm-4.09-7.75v0a45.33,45.33,0,0,1-8.51,1.75c-8,.86-26.93,1-32,.72-6.35-.33-11.71-2.44-12.4-3s-1.17-1.08-1.77-5a28.76,28.76,0,0,1-.23-3.84L195.83,227a4.13,4.13,0,0,0,3.52-1c1.68-1.44,4.16-7.19,4.16-7.19l.16-5.59.21-12.68a.17.17,0,0,1,.08.13,11.67,11.67,0,0,0,2.27-.45,29.39,29.39,0,0,0,4.64-1.12l.38-.14s4-1.56,5.11-1,2.43,1,3.05,6.36c.66,5.56,2.17,21.86,2.1,23.48C221.5,227.79,222.68,231.38,214.9,233.58Zm15.94-29.87c-.07,2.77-.07,16.69-.07,16.69s.53.82-1.42,1.56c-1.72.65-5.46,1.69-6.34,1.94-.39-4.21-1.27-13-2-18.72.95-.26,9.15-3.25,9.15-3.25S230.91,200.94,230.84,203.71Zm-.92-3.69c.09.38-7.46,3.18-9.12,3.79-.15-1-.29-1.92-.42-2.58l5.46-2.38S229.81,199.59,229.91,200ZM220,200c-.78-1.51-.81-2-.77-2.3a18.11,18.11,0,0,1,3.41-.1,25.06,25.06,0,0,0,2.86.07Zm14.49-7.92a15.81,15.81,0,0,1-7.74,4.47,53.24,53.24,0,0,1-8-.5s1.42.28,1.49-4.83a17.05,17.05,0,0,0-3-9.8c-.5-.46,1.14-2.63,2.2-3.2s1.87-1.54,5.72-1.43a3.58,3.58,0,0,1,1.84.56s.13.2.48-.08.17-.67-1.09-1.39-2.85-.23-2.9-.4a6.49,6.49,0,0,1,2.9-1.07c.77,0,1.27-.31.05-.61s-3.4.32-5.17,1.36a19,19,0,0,0-3.49,2.85,25.34,25.34,0,0,1,1.12-3.38,15.58,15.58,0,0,0,1.33-3.17c0-.52-.35-1-.75-.48a17.45,17.45,0,0,0-1.84,3.52c-.14.43-.39,1.32-.64,2.26,0-1.86,0-10.12,0-11.47,0-1.53-.13-15.28-.13-15.28,0-1.11.17-1.51.36-1.68a1.25,1.25,0,0,1,.61-.1c1,.38,3.88,4.74,4.69,6.17s1.85,5.35,3.48,7.12a88,88,0,0,1,6,7.32,45.39,45.39,0,0,1,5.19,12.36C237.58,183.5,236.38,189.75,234.53,192.06Zm1.07-19.52c1.29-.48,6.41-2.39,8-3.08a3.22,3.22,0,0,0,.92-.58c2.07.7,12.91,4.4,13.58,5.07s.5,1.39-.07,1.7-18,5.09-19.5,5.51a10.58,10.58,0,0,0-.49-2.23C237.44,177.16,236.62,174.84,235.6,172.54Zm22.07,6.5-19.25,6.68a19.11,19.11,0,0,0,.22-3.05c3-.84,17.61-4.85,20.34-5.79A4.3,4.3,0,0,1,257.68,179Zm1.78-6.11c-1.75-1-12-4.53-14.25-5.3a1.51,1.51,0,0,0,0-.41l.16-144.15,14.06-7.67S259.58,158.17,259.45,172.93Z"/><path class="cls-7" d="M196.32,128.91v-17a1.29,1.29,0,0,0-1.21-1.42l-3.69-.07c-2.47,0-2.33.71-2.34,2-.06,4.36,0,14.91,0,17,0,1.86,1,2.13,1,2.13s3.05.11,4.76,0S196.32,128.91,196.32,128.91Zm-1.14-.07c0,1.4-.62,1.44-.62,1.44a23.92,23.92,0,0,1-3.3,0c-1.14-.14-1-1.58-1-1.58s0-14.63.07-15.84c0-.71.23-1.18,1.54-1.14,2,0,2.85,0,3.16.42a1.69,1.69,0,0,1,.15.94S195.18,127.67,195.18,128.84Z"/></g></g></svg>