<svg xmlns="http://www.w3.org/2000/svg" width="64.85" height="47.41" viewBox="0 0 64.85 47.41"><title>Уборка коттеджей</title><path d="M36.1 46.91v-8.68a3.52 3.52 0 0 0-7 0v8.67H7a1.5 1.5 0 0 1-1.5-1.5V27.73h54.1V45.4a1.5 1.5 0 0 1-1.5 1.5z" fill="#dfdbd1"/><path d="M59.13 28.23V45.4a1 1 0 0 1-1 1H36.6v-8.17a4 4 0 0 0-8 0v8.17H7a1 1 0 0 1-1-1V28.23h53.1m1-1H5V45.4a2 2 0 0 0 2 2h22.56v-9.17a3 3 0 0 1 6 0v9.17h22.56a2 2 0 0 0 2-2V27.23z" fill="#5d3329"/><path fill="#c6671f" stroke="#5d3329" stroke-linejoin="round" stroke-width=".5" d="M13.1 16.42h38.71L32.58 2.38 13.1 16.42z"/><path fill="#d68028" stroke="#5d3329" stroke-linejoin="round" stroke-width=".5" d="M13.1 16.42l-1.35-1.52L32.87.25 53.1 14.87l-1.29 1.55L32.85 2.44 13.1 16.42z"/><path fill="#d68028" stroke="#5d3329" stroke-linejoin="round" d="M44.72 17v-.11l-.12.05-.11-.05v.1l-11.84 5.56L21.25 17v-.11l-.12.05-.11-.05v.1L.5 28.16H64.35L44.72 17z"/><path fill="#f8f3ee" d="M19.27 26.73V12.59l13.58-9.43 13.04 9.43v14.14H19.27z"/><path d="M32.84 3.77l12.55 9.07v13.39H19.77V12.86l13.07-9.09m0-1.23l-14.07 9.79v14.9h27.62v-14.9L32.85 2.55z" fill="#5d3329"/><path d="M36.1 46.91v-8.68a3.52 3.52 0 0 0-7 0v8.67h-9.83V27.73h26.62v19.18z" fill="#f8f3ee"/><path d="M45.39 28.23v18.18H36.6v-8.18a4 4 0 0 0-8 0v8.17h-8.83V28.23h25.62m1-1H18.77v20.18h10.79v-9.18a3 3 0 0 1 6 0v9.17h10.83V27.23z" fill="#5d3329"/><path d="M12.5 33.14a2.47 2.47 0 0 0-2.5 2.47v5.63h5v-5.63a2.47 2.47 0 0 0-2.5-2.47zM53.25 33.14a2.47 2.47 0 0 0-2.47 2.47v5.63h4.94v-5.63a2.47 2.47 0 0 0-2.47-2.47z" fill="#f8f3ee" stroke="#5d3329" stroke-linejoin="round" stroke-width=".5"/><path d="M32.45 11.33A2.47 2.47 0 0 0 30 13.8v5.63h4.94V13.8a2.47 2.47 0 0 0-2.49-2.47z" fill="#dfdbd1" stroke="#5d3329" stroke-linejoin="round" stroke-width=".5"/><path fill="#d68028" d="M19.12 23.26h26.62v7.32H19.12z"/><path d="M45.23 23.76v6.32H19.62v-6.32h25.61m1-1H18.62v8.32h27.61v-8.32z" fill="#5d3329"/></svg>