<svg xmlns="http://www.w3.org/2000/svg" width="80" height="80" viewBox="0 0 80 80"><title>устранение-недочетов</title><g id="Слой_2" data-name="Слой 2"><g id="Слой_1-2" data-name="Слой 1"><rect width="80" height="80" fill="none"/><path d="M50.36,67.05A30.15,30.15,0,1,1,68.8,38.14" fill="none" stroke="#fd8204" stroke-linecap="round" stroke-miterlimit="10" stroke-width="1.5"/><polygon points="64.25 36.6 68.34 44.59 73.21 37.05 64.25 36.6" fill="#fd8204"/><path d="M47,62A24.2,24.2,0,1,1,62,45.64" fill="none" stroke="#fd8204" stroke-miterlimit="10"/><circle cx="38.66" cy="39.26" r="2.21" fill="#fd8204"/><line x1="38.66" y1="39.26" x2="38.66" y2="19.36" fill="none" stroke="#fd8204" stroke-linecap="round" stroke-miterlimit="10" stroke-width="2"/><line x1="38.11" y1="39.26" x2="27.54" y2="33.16" fill="none" stroke="#fd8204" stroke-linecap="round" stroke-miterlimit="10" stroke-width="2"/><circle cx="21.85" cy="39.26" r="1.07" fill="#fd8204"/><circle cx="55.47" cy="39.26" r="1.07" fill="#fd8204"/><circle cx="38.66" cy="22.45" r="1.07" fill="#fd8204"/><circle cx="38.66" cy="56.07" r="1.07" fill="#fd8204"/><circle cx="24.08" cy="47.64" r="0.91" transform="translate(-20.56 18.37) rotate(-29.93)" fill="#fd8204"/><circle cx="53.24" cy="30.88" r="0.91" transform="translate(-8.31 30.65) rotate(-29.9)" fill="#fd8204"/><circle cx="30.28" cy="24.68" r="0.91" transform="translate(-8.28 18.39) rotate(-29.91)" fill="#fd8204"/><circle cx="30.33" cy="53.87" r="0.91" transform="translate(-31.48 53.56) rotate(-60.33)" fill="#fd8204"/><circle cx="46.98" cy="24.65" r="0.91" transform="translate(2.32 53.29) rotate(-60.36)" fill="#fd8204"/><circle cx="24.05" cy="30.93" r="0.91" transform="matrix(0.49, -0.87, 0.87, 0.49, -14.73, 36.52)" fill="#fd8204"/><path d="M58.74,46A11.75,11.75,0,1,1,47,57.74,11.77,11.77,0,0,1,58.74,46m0-1.5A13.25,13.25,0,1,0,72,57.74,13.25,13.25,0,0,0,58.74,44.48Z" fill="#fd8204"/><path d="M55.26,58.43c1.29-.81,1.94-1.26,1.94-2.32a1.39,1.39,0,0,0-1.47-1.37c-1.06,0-1.51,1-1.48,1.89h-.91a2.36,2.36,0,0,1,2.45-2.7,2.17,2.17,0,0,1,2.38,2.19c0,1.34-.9,2-1.85,2.61s-2,1.07-2.14,2h3.91v.81h-5A3.6,3.6,0,0,1,55.26,58.43Z" fill="#fd8204"/><path d="M59.13,58.88l3.47-5h.73v5h1v.81h-1v1.78h-.86V59.76H59.13Zm3.34.08V55.23h0L59.92,59Z" fill="#fd8204"/></g></g></svg>