<svg xmlns="http://www.w3.org/2000/svg" width="90" height="90" viewBox="0 0 90 90"><title>time</title><path d="M58.5 80.24a39.28 39.28 0 1 1 24-37.86" fill="none" stroke="#fd8204" stroke-linecap="round" stroke-miterlimit="10" stroke-width="2"/><path fill="#fd8204" d="M76.43 40.34l5.49 10.64 6.47-10.07-11.96-.57z"/><path d="M54.1 73.69a31.53 31.53 0 1 1 19.62-21.35" fill="none" stroke="#fd8204" stroke-miterlimit="10"/><circle cx="43.25" cy="44.03" r="2.88" fill="#fd8204"/><path fill="none" stroke="#fd8204" stroke-linecap="round" stroke-miterlimit="10" stroke-width="2" d="M43.25 44.03V18.11M42.53 44.03l-13.77-7.94"/><circle cx="21.35" cy="44.03" r="1.4" fill="#fd8204"/><circle cx="65.16" cy="44.03" r="1.4" fill="#fd8204"/><circle cx="43.25" cy="22.13" r="1.4" fill="#fd8204"/><circle cx="43.25" cy="65.94" r="1.4" fill="#fd8204"/><circle cx="24.26" cy="54.95" r="1.19" transform="rotate(-29.93 24.256 54.946)" fill="#fd8204"/><circle cx="62.24" cy="33.12" r="1.19" transform="rotate(-29.9 62.254 33.112)" fill="#fd8204"/><circle cx="32.34" cy="25.05" r="1.19" transform="rotate(-29.91 32.337 25.042)" fill="#fd8204"/><circle cx="32.41" cy="63.06" r="1.19" transform="rotate(-60.33 32.411 63.066)" fill="#fd8204"/><circle cx="54.1" cy="25" r="1.19" transform="rotate(-60.36 54.09 25.002)" fill="#fd8204"/><circle cx="24.22" cy="33.19" r="1.19" transform="rotate(-60.34 24.221 33.183)" fill="#fd8204"/><path d="M68.77 52.72A15.27 15.27 0 1 1 53.5 68a15.28 15.28 0 0 1 15.27-15.28m0-2A17.27 17.27 0 1 0 86 68a17.27 17.27 0 0 0-17.23-17.28z" fill="#fd8204"/><text transform="translate(60.45 73.18)" font-size="13.99" fill="#fd8204" font-family="ElektraLightPro-Bold, ElektraLightPro Bold" font-weight="700">24</text><path fill="none" d="M0 0h90v90H0z"/></svg>