<svg xmlns="http://www.w3.org/2000/svg" width="46.84" height="62.87" viewBox="0 0 46.84 62.87"><title>Обработка поверхносте</title><path d="M44.77.25h-8a1.82 1.82 0 0 0-1.82 1.82v33.77h1.57V4.23h8.26a1.82 1.82 0 0 0 1.82-1.82v-.34A1.82 1.82 0 0 0 44.77.25z" fill="#dfdbd1" stroke="#5d3329" stroke-linejoin="round" stroke-width=".5"/><path d="M23.58 34c.49-2.2.84-4.23 2.88-4.23h10.05v3.9" fill="#f7e8d2" stroke="#5d3329" stroke-linejoin="round" stroke-width=".5"/><path d="M36.18 51V32.22H25.67c-1.21 0-1.69 1.08-2.18 2.18-3.37 7.5-5.75 13.3-5.75 13.3-1 0-8.13 6.76-10 8.58h-6.2a1 1 0 0 0-1 1v3.34a1 1 0 0 0 1 1h32.4" fill="#d68028" stroke="#5d3329" stroke-linejoin="round"/><path fill="none" stroke="#5d3329" stroke-linecap="round" stroke-linejoin="round" stroke-width=".5" d="M36.18 48.05H17.47M7.72 56.64h21.87"/><circle cx="34.98" cy="56.28" r="6.09" fill="#dfdbd1" stroke="#5d3329" stroke-linejoin="round"/><circle cx="34.98" cy="56.28" r="2.95" fill="#f8f3ee" stroke="#5d3329" stroke-linecap="round" stroke-linejoin="round" stroke-width=".5"/></svg>