<svg xmlns="http://www.w3.org/2000/svg" width="42.83mm" height="35.63mm" viewBox="0 0 121.41 101"><title>Химчистка</title><ellipse cx="60.71" cy="81.55" rx="59.71" ry="18.45" fill="#e2ddd3" stroke="#682f24" stroke-linejoin="round" stroke-width="2"/><ellipse cx="60.71" cy="79.97" rx="49.81" ry="13.81" fill="#fbf4ee" stroke="#682f24" stroke-linejoin="round"/><path d="M89.57 13.34h-5.41a28.48 28.48 0 0 0-46.92 0h-5.41a6.64 6.64 0 0 0-6.64 6.64v41.46a6.64 6.64 0 0 0 6.64 6.64h57.74a6.64 6.64 0 0 0 6.64-6.64V19.98a6.64 6.64 0 0 0-6.64-6.64z" fill="#dd7016" stroke="#682f24" stroke-linejoin="round" stroke-width="2"/><ellipse cx="60.71" cy="51.46" rx="36.58" ry="8.99" fill="#ff8300" stroke="#682f24" stroke-linejoin="round"/><path d="M94.36 72.19c0 3.9-2.1 7.06-4.68 7.06H31.71c-2.59 0-4.68-3.16-4.68-7.06v-8.92c0-3.9 2.1-7.06 4.68-7.06h58c2.59 0 4.68 3.16 4.68 7.06v8.92z" fill="#dd7016" stroke="#682f24" stroke-linejoin="round" stroke-width="2"/><path d="M32.22 45.1a9.5 9.5 0 1 0-13.52 8.6v25.09a3.67 3.67 0 0 0 3.67 3.67h6.17a3.67 3.67 0 0 0 3.67-3.67V45.32v-.11c0-.04.01-.07.01-.11zM90.62 45.09a9.71 9.71 0 0 1 19.41 0 9.47 9.47 0 0 1-5.61 8.59v25.05a3.71 3.71 0 0 1-3.71 3.71h-6.3a3.71 3.71 0 0 1-3.75-3.67V45.3v-.11c0-.04-.04-.07-.04-.1z" fill="#ff8300" stroke="#682f24" stroke-linejoin="round" stroke-width="2"/><circle cx="22.72" cy="44.96" r="2.48" fill="#e1670f" stroke="#682f24" stroke-linejoin="round"/><circle cx="100.33" cy="44.96" r="2.48" fill="#e1670f" stroke="#682f24" stroke-linejoin="round"/><path d="M80.44 32.06a100.33 100.33 0 0 1 .67-11.71c-5.36-2.69-12.57 1.66-20.5 1.66s-15-4.39-20.31-1.75a102.95 102.95 0 0 1 0 23.62c5.34 2.64 12.47-.35 20.31-.35s15.13 2.95 20.5.26a100.33 100.33 0 0 1-.67-11.73z" fill="#fde9d3" stroke="#682f24" stroke-linejoin="round"/></svg>