<svg xmlns="http://www.w3.org/2000/svg" width="70" height="70" viewBox="0 0 70 70"><title>восемь-лет_2</title><g id="Слой_2" data-name="Слой 2"><g id="Слой_1-2" data-name="Слой 1"><rect width="70" height="70" fill="none"/><rect x="13.75" y="11.26" width="40.55" height="46.67" rx="2.38" ry="2.38" fill="#f5f4f0" stroke="#692f17" stroke-miterlimit="10"/><path d="M51.91,11.4H16.13a2.38,2.38,0,0,0-2.38,2.38V18H54.3V13.78A2.38,2.38,0,0,0,51.91,11.4Z" fill="#fd8204" stroke="#692f17" stroke-linejoin="round"/><path d="M19,19.38a1.26,1.26,0,0,1-1.26,1.26h0a1.26,1.26,0,0,1-1.26-1.26V15.94a1.26,1.26,0,0,1,1.26-1.26h0A1.26,1.26,0,0,1,19,15.94Z" fill="#f5f4f0" stroke="#692f17" stroke-miterlimit="10" stroke-width="0.75"/><path d="M51.35,19.38a1.26,1.26,0,0,1-1.26,1.26h0a1.26,1.26,0,0,1-1.26-1.26V15.94a1.26,1.26,0,0,1,1.26-1.26h0a1.26,1.26,0,0,1,1.26,1.26Z" fill="#f5f4f0" stroke="#692f17" stroke-miterlimit="10" stroke-width="0.75"/><rect x="17.98" y="30.22" width="3.42" height="3.42" rx="0.82" ry="0.82" fill="#d9d6cc"/><rect x="22.77" y="30.22" width="3.42" height="3.42" rx="0.82" ry="0.82" fill="#d9d6cc"/><rect x="27.55" y="30.22" width="3.42" height="3.42" rx="0.82" ry="0.82" fill="#d9d6cc"/><rect x="32.34" y="30.22" width="3.42" height="3.42" rx="0.82" ry="0.82" fill="#d9d6cc"/><rect x="37.13" y="30.22" width="3.42" height="3.42" rx="0.82" ry="0.82" fill="#d9d6cc"/><rect x="41.92" y="30.22" width="3.42" height="3.42" rx="0.82" ry="0.82" fill="#dbc19f"/><rect x="46.71" y="30.22" width="3.42" height="3.42" rx="0.82" ry="0.82" fill="#dbc19f"/><rect x="17.98" y="35.09" width="3.42" height="3.42" rx="0.82" ry="0.82" fill="#d9d6cc"/><rect x="22.77" y="35.09" width="3.42" height="3.42" rx="0.82" ry="0.82" fill="#d9d6cc"/><rect x="27.55" y="35.09" width="3.42" height="3.42" rx="0.82" ry="0.82" fill="#d9d6cc"/><rect x="32.34" y="35.09" width="3.42" height="3.42" rx="0.82" ry="0.82" fill="#d9d6cc"/><rect x="37.13" y="35.09" width="3.42" height="3.42" rx="0.82" ry="0.82" fill="#d9d6cc"/><rect x="41.92" y="35.09" width="3.42" height="3.42" rx="0.82" ry="0.82" fill="#dbc19f"/><rect x="46.71" y="35.09" width="3.42" height="3.42" rx="0.82" ry="0.82" fill="#dbc19f"/><rect x="17.98" y="39.91" width="3.42" height="3.42" rx="0.82" ry="0.82" fill="#d9d6cc"/><rect x="22.77" y="39.91" width="3.42" height="3.42" rx="0.82" ry="0.82" fill="#d9d6cc"/><rect x="27.55" y="39.91" width="3.42" height="3.42" rx="0.82" ry="0.82" fill="#d9d6cc"/><rect x="32.34" y="39.91" width="3.42" height="3.42" rx="0.82" ry="0.82" fill="#d9d6cc"/><rect x="37.13" y="39.91" width="3.42" height="3.42" rx="0.82" ry="0.82" fill="#d9d6cc"/><rect x="41.92" y="39.91" width="3.42" height="3.42" rx="0.82" ry="0.82" fill="#dbc19f"/><rect x="46.71" y="39.91" width="3.42" height="3.42" rx="0.82" ry="0.82" fill="#dbc19f"/><rect x="17.98" y="44.79" width="3.42" height="3.42" rx="0.82" ry="0.82" fill="#d9d6cc"/><rect x="22.77" y="44.79" width="3.42" height="3.42" rx="0.82" ry="0.82" fill="#d9d6cc"/><rect x="27.55" y="44.79" width="3.42" height="3.42" rx="0.82" ry="0.82" fill="#d9d6cc"/><rect x="32.34" y="44.79" width="3.42" height="3.42" rx="0.82" ry="0.82" fill="#d9d6cc"/><rect x="37.13" y="44.79" width="3.42" height="3.42" rx="0.82" ry="0.82" fill="#d9d6cc"/><rect x="41.92" y="44.79" width="3.42" height="3.42" rx="0.82" ry="0.82" fill="#dbc19f"/><rect x="46.71" y="44.79" width="3.42" height="3.42" rx="0.82" ry="0.82" fill="#dbc19f"/><rect x="17.98" y="49.25" width="3.42" height="3.42" rx="0.82" ry="0.82" fill="#d9d6cc"/><rect x="22.77" y="49.25" width="3.42" height="3.42" rx="0.82" ry="0.82" fill="#d9d6cc"/><rect x="27.55" y="49.25" width="3.42" height="3.42" rx="0.82" ry="0.82" fill="#d9d6cc"/><rect x="32.34" y="49.25" width="3.42" height="3.42" rx="0.82" ry="0.82" fill="#fff"/><rect x="37.13" y="49.25" width="3.42" height="3.42" rx="0.82" ry="0.82" fill="#fff"/><rect x="41.92" y="49.25" width="3.42" height="3.42" rx="0.82" ry="0.82" fill="#fff"/><rect x="46.71" y="49.25" width="3.42" height="3.42" rx="0.82" ry="0.82" fill="#fff"/><path d="M50.12,25.84a1.43,1.43,0,0,1-1.43,1.43H19.41A1.43,1.43,0,0,1,18,25.84h0a1.43,1.43,0,0,1,1.43-1.43H48.69a1.43,1.43,0,0,1,1.43,1.43Z" fill="#d9d6cc"/></g></g></svg>