<svg xmlns="http://www.w3.org/2000/svg" width="70" height="70" viewBox="0 0 70 70"><title>хим-средства</title><g id="Слой_2" data-name="Слой 2"><g id="Слой_1-2" data-name="Слой 1"><rect width="70" height="70" fill="none"/><path d="M58.7,29.57a3.78,3.78,0,0,0-5.75-3.23l0-.18a5.21,5.21,0,0,0-10.32,1h-.1A3.27,3.27,0,0,0,37,29.57l0,0,0,0H58.7Z" fill="#f6f3ea"/><path d="M51.14,29.57a3.78,3.78,0,1,1,7.57,0" fill="none" stroke="#692f17" stroke-miterlimit="10" stroke-width="0.75"/><path d="M37,29.57a3.28,3.28,0,0,1,5.55-2.36" fill="none" stroke="#692f17" stroke-miterlimit="10" stroke-width="0.75"/><path d="M43.16,29.58a5.22,5.22,0,1,1,9.76-3.42" fill="none" stroke="#692f17" stroke-miterlimit="10" stroke-width="0.75"/><circle cx="42.13" cy="20.3" r="1.7" fill="#f6f3ea" stroke="#692f17" stroke-miterlimit="10" stroke-width="0.75"/><path d="M61.85,29.57H33.77a1,1,0,0,0-1,1v1.28a1,1,0,0,0,1,1h1.38l1.42,20.8a2.9,2.9,0,0,0,2.9,2.9H56.15a2.9,2.9,0,0,0,2.9-2.9l1.42-20.8h1.38a1,1,0,0,0,1-1V30.61A1,1,0,0,0,61.85,29.57Z" fill="#d68028" stroke="#692f17" stroke-miterlimit="10" stroke-width="1.5" fill-rule="evenodd"/><line x1="34.69" y1="32.58" x2="60.46" y2="32.58" fill="none" stroke="#692f17" stroke-linejoin="round" stroke-width="0.75"/><circle cx="45.29" cy="33.04" r="1.93" fill="#692f17"/><path d="M45.17,32.58S51.47,48.88,60,47.2c6.08-1.2.47-11.92.47-11.92" fill="none" stroke="#692f17" stroke-linejoin="round" stroke-width="1.5"/><rect x="23.09" y="10.57" width="3.07" height="3.06" fill="#ddae29"/><path d="M25.41,11.32v1.56H23.84V11.32h1.57m.92-1.5H22.92a.58.58,0,0,0-.58.58v4h4.57v-4a.58.58,0,0,0-.58-.58Z" fill="#692f17"/><path d="M25.54,46a2.45,2.45,0,0,1-2.44-2.45V14.17h3.16C26.53,16,28,21,35.55,23.37c2.39.75,2.67,1.78,2.67,2.49v17.7A2.45,2.45,0,0,1,35.77,46Z" fill="#dbc19f"/><path d="M25.64,14.92c.53,2.31,2.48,6.9,9.69,9.16,2.14.67,2.14,1.47,2.14,1.77v17.7a1.7,1.7,0,0,1-1.69,1.7H25.54a1.7,1.7,0,0,1-1.69-1.7V14.92h1.8m1.3-1.5H22.35a.74.74,0,0,0,0,.09v30a3.2,3.2,0,0,0,3.19,3.2H35.77A3.2,3.2,0,0,0,39,43.55V25.85c0-1.77-1.51-2.68-3.19-3.2-8.73-2.73-8.83-9.13-8.83-9.13s0-.06,0-.09Z" fill="#692f17"/><path d="M11,16.77A5.87,5.87,0,0,1,9.1,21.6a19.1,19.1,0,0,1-2.54,1.79l.4.42a11.11,11.11,0,0,0,4.31-2.45,5.57,5.57,0,0,0,1.89-4.6Z" fill="#f6f3ea" stroke="#692f17" stroke-miterlimit="10" stroke-width="0.75"/><rect x="6.71" y="13.85" width="2.68" height="2.35" rx="0.37" ry="0.37" fill="#dcc19f" stroke="#692f17" stroke-miterlimit="10" stroke-width="0.75"/><path d="M23.93,31.54a7.72,7.72,0,1,0-15.44,0s0,0,0,0,0,0,0,0V44.34a3.2,3.2,0,0,0,3.2,3.2h9a3.2,3.2,0,0,0,3.2-3.2V31.63s0,0,0,0S23.93,31.55,23.93,31.54Z" fill="#dcdfe0" stroke="#692f17" stroke-miterlimit="10" stroke-width="1.5"/><path d="M19.55,13.42H9.26a.77.77,0,0,0-.77.77V16a.77.77,0,0,0,.77.77h3.9l1.39,4.1a.54.54,0,0,0-.49.54v2.74h4.3V21.4a.54.54,0,0,0-.55-.55h0V16.77h1.75a.77.77,0,0,0,.77-.77V14.19A.77.77,0,0,0,19.55,13.42Z" fill="#f6f3ea" stroke="#692f17" stroke-linecap="round" stroke-linejoin="round" stroke-width="1.5"/><path d="M7,40.48,9.43,55.87a3,3,0,0,0,3,3H36.55a3,3,0,0,0,3-3L42,40.48Z" fill="#dfdbd1" stroke="#692f17" stroke-linecap="round" stroke-linejoin="round" stroke-width="1.5"/><path d="M4.9,36H44.08a1,1,0,0,1,1,1v2.39a1,1,0,0,1-1,1H4.9a1,1,0,0,1-1-1V37.06a1,1,0,0,1,1-1Z" fill="#dfdbd1" stroke="#692f17" stroke-linecap="round" stroke-linejoin="round" stroke-width="1.5"/><path d="M24.68,36l-3.75,4.13s0,3.32-.74,4.83c-.44.9-2.26,5.2-4,4.27-1-.51,1.13-4.69,1.13-4.69l-6,5.93a1.22,1.22,0,1,1-1.73-1.73l-1,1A1.22,1.22,0,0,1,6.82,48l.81-.81a1.22,1.22,0,0,1-1.52-1.9l1.77-1.77a1.22,1.22,0,0,1-1.73-1.73l5.34-5.34c1.65-1.65,1.19-1.21,1.19-1.21a22.83,22.83,0,0,1,6.68-.59C23.45,35,24.68,36,24.68,36Z" fill="#f7e8d2" stroke="#692f17" stroke-linecap="round" stroke-linejoin="round" stroke-width="0.75" fill-rule="evenodd"/><line x1="9.58" y1="48.75" x2="13.22" y2="45.1" fill="#f7e8d2" stroke="#692f17" stroke-linecap="round" stroke-linejoin="round" stroke-width="0.75"/><line x1="7.63" y1="47.24" x2="11.75" y2="43.11" fill="#f7e8d2" stroke="#692f17" stroke-linecap="round" stroke-linejoin="round" stroke-width="0.75"/><line x1="7.96" y1="43.49" x2="10.23" y2="41.22" fill="#f7e8d2" stroke="#692f17" stroke-linecap="round" stroke-linejoin="round" stroke-width="0.75"/><line x1="16.9" y1="45" x2="18.36" y2="43.54" fill="#f7e8d2" stroke="#692f17" stroke-linecap="round" stroke-linejoin="round" stroke-width="0.75"/><path d="M22.82,35.36l0,1.58A15.41,15.41,0,0,0,20,41c-.3.95-1.94,5.29-.08,5.76,1,.26,2.4-4.18,2.4-4.18l.23,8.31A1.15,1.15,0,0,0,23.79,52,1.25,1.25,0,0,0,25,50.73l0,1.4a1.15,1.15,0,0,0,1.22,1.14A1.25,1.25,0,0,0,27.39,52l0-1.13a1.15,1.15,0,0,0,1.19.87,1.25,1.25,0,0,0,1.18-1.27l0-2.47a1.15,1.15,0,0,0,1.22,1.14,1.25,1.25,0,0,0,1.18-1.27L32,40.45c0-2.29,0-5.2,0-5.2a18,18,0,0,0-4.37-.33A23.89,23.89,0,0,0,22.82,35.36Z" fill="#f7e8d2" stroke="#692f17" stroke-linecap="round" stroke-linejoin="round" stroke-width="0.75" fill-rule="evenodd"/><line x1="24.97" y1="50.69" x2="24.87" y2="45.63" fill="#f7e8d2" stroke="#692f17" stroke-linecap="round" stroke-linejoin="round" stroke-width="0.75"/><line x1="27.37" y1="50.87" x2="27.26" y2="45.14" fill="#f7e8d2" stroke="#692f17" stroke-linecap="round" stroke-linejoin="round" stroke-width="0.75"/><line x1="29.69" y1="47.9" x2="29.63" y2="44.75" fill="#f7e8d2" stroke="#692f17" stroke-linecap="round" stroke-linejoin="round" stroke-width="0.75"/><line x1="22.34" y1="43.13" x2="22.3" y2="41.11" fill="#f7e8d2" stroke="#692f17" stroke-linecap="round" stroke-linejoin="round" stroke-width="0.75"/><line x1="18.1" y1="21.25" x2="13.88" y2="21.25" fill="none" stroke="#692f17" stroke-miterlimit="10"/><path d="M58.73,43v2.4S55,47,55,47.88v10.6A1.52,1.52,0,0,0,56.48,60h8.43a1.52,1.52,0,0,0,1.52-1.52V47.88c0-.84-3.77-2.42-3.77-2.42V43" fill="#f7e8d3" stroke="#692f17" stroke-miterlimit="10" stroke-width="1.5" fill-rule="evenodd"/><path d="M61.75,39.15V37.88h1.44a2.49,2.49,0,1,0-5,0h1.43v1.27" fill="#f6f3ea" stroke="#692f17" stroke-linecap="round" stroke-linejoin="round" stroke-width="0.75" fill-rule="evenodd"/><line x1="58.66" y1="45.57" x2="62.73" y2="45.57" fill="#f7e8d2" stroke="#692f17" stroke-miterlimit="10" stroke-width="0.75"/><rect x="55.34" y="50.58" width="10.72" height="5.18" fill="#f5f4f0"/><path d="M65.68,51v4.43h-10V51h10m.75-.75H55v5.93H66.43V50.21Z" fill="#692f17"/><rect x="56.83" y="39.15" width="7.74" height="4.28" rx="1.1" ry="1.1" fill="#f6f3ea" stroke="#692f17" stroke-linecap="round" stroke-linejoin="round" stroke-width="1.5"/></g></g></svg>