<svg xmlns="http://www.w3.org/2000/svg" width="61" height="58.7" viewBox="0 0 61 58.7"><title>Генералка</title><path d="M34.36 3.6V.68a.18.18 0 0 1 .18-.18h4a.18.18 0 0 1 .18.18V3.6z" fill="#d68028"/><path d="M38.22 1v2.1h-3.36V1h3.36m.32-1h-4a.68.68 0 0 0-.68.68V4.1h5.36V.68a.68.68 0 0 0-.68-.68z" fill="#5d3329"/><path d="M23.47 43.53a3.25 3.25 0 0 1-3.25-3.25V19.57c0-1.49 1.11-2.56 3.4-3.27 9.13-2.85 10.48-9.15 10.67-10.77h4.42v34.75a3.25 3.25 0 0 1-3.25 3.25z" fill="#dbc19f"/><path d="M38.22 6v34.28A2.75 2.75 0 0 1 35.47 43h-12a2.75 2.75 0 0 1-2.75-2.75V19.57c0-.79.32-1.94 3-2.79C32.58 14 34.37 8.25 34.73 6h3.49m1-1h-5.39a1.07 1.07 0 0 0 0 .11s-.11 7.49-10.36 10.69c-2 .62-3.75 1.68-3.75 3.75v20.73A3.75 3.75 0 0 0 23.47 44h12a3.75 3.75 0 0 0 3.75-3.75V5.13a.91.91 0 0 0 0-.11z" fill="#5d3329"/><path d="M4.33 5.13h2.26a.44.44 0 0 1 .41.44v1.88a.43.43 0 0 1-.43.43H4.33a.43.43 0 0 1-.43-.43V5.57a.43.43 0 0 1 .43-.44z" fill="#d68028" stroke="#5d3329" stroke-miterlimit="10"/><path d="M24 26.22a9 9 0 1 0-18.07 0V41.2A3.75 3.75 0 0 0 9.65 45h10.57A3.75 3.75 0 0 0 24 41.2V26.33v-.05-.06z" fill="#f7e8d2" stroke="#5d3329" stroke-miterlimit="10"/><path d="M18.85 5H6.8a.9.9 0 0 0-.9.9V8a.9.9 0 0 0 .9.9h4.56l1.71 5h3.71v-5h2.05a.9.9 0 0 0 .9-.9V5.92a.9.9 0 0 0-.88-.92z" fill="#f8f3ee" stroke="#5d3329" stroke-miterlimit="10"/><path d="M16.81 13.72h-3.75a.64.64 0 0 0-.64.64v3.21h5v-3.21a.64.64 0 0 0-.61-.64zM8.88 8.94a6.86 6.86 0 0 1-2.26 5.66 22.37 22.37 0 0 1-3 2.09l.46.5a13 13 0 0 0 5-2.86c2.7-2.7 2.22-5.38 2.22-5.38z" fill="#f8f3ee" stroke="#5d3329" stroke-miterlimit="10"/><path d="M53.9 23.68c-.43-5.75-4.43-10.25-9.29-10.25s-8.85 4.5-9.29 10.25a1.49 1.49 0 0 0 0 .35V43a1.52 1.52 0 0 0 1.52 1.52h15.58A1.52 1.52 0 0 0 53.94 43V24a1.56 1.56 0 0 0-.04-.32z" fill="#d68028" stroke="#5d3329" stroke-miterlimit="10"/><path d="M47.58 10.26h-5.94a.55.55 0 0 0-.55.55v2.79h7v-2.78a.55.55 0 0 0-.51-.56z" fill="#dfdbd1" stroke="#5d3329" stroke-miterlimit="10"/><path d="M4.16 36.68L7 54.69a3.51 3.51 0 0 0 3.51 3.51h40A3.51 3.51 0 0 0 54 54.69l2.84-18z" fill="#dfdbd1" stroke="#5d3329" stroke-linecap="round" stroke-linejoin="round"/><rect x=".5" y="31.49" width="60" height="5.19" rx="1.2" ry="1.2" fill="#f8f3ee" stroke="#5d3329" stroke-linecap="round" stroke-linejoin="round"/><path d="M24.85 31.49l-4.39 4.84s0 3.88-.86 5.65c-.52 1-2.65 6.08-4.69 5-1.12-.59 1.32-5.49 1.32-5.49l-7.06 6.93a1.43 1.43 0 0 1-2-2L6 47.57a1.43 1.43 0 0 1-2-2l.95-.95a1.43 1.43 0 0 1-1.77-2.22l2.02-2.1a1.43 1.43 0 0 1-2-2L9.42 32c1.93-1.93 1.4-1.41 1.4-1.41a26.71 26.71 0 0 1 7.81-.69c4.78.39 6.22 1.59 6.22 1.59z" fill="#d68028" stroke="#5d3329" stroke-linecap="round" stroke-linejoin="round" stroke-width=".5" fill-rule="evenodd"/><path fill="#ec8213" stroke="#5d3329" stroke-linecap="round" stroke-linejoin="round" stroke-width=".5" d="M7.17 46.36l4.27-4.26M4.89 44.59l4.83-4.82M5.29 40.21l2.65-2.65M15.74 41.97l1.71-1.7"/><path d="M22.67 30.69l-.05 1.85s-2.65 2.84-3.24 4.7c-.35 1.11-2.27 6.2-.09 6.74 1.2.3 2.81-4.89 2.81-4.89l.27 9.73a1.35 1.35 0 0 0 1.43 1.33 1.47 1.47 0 0 0 1.38-1.48v1.63a1.35 1.35 0 0 0 1.43 1.33A1.47 1.47 0 0 0 28 50.16v-1.32a1.34 1.34 0 0 0 1.39 1 1.47 1.47 0 0 0 1.38-1.48l-.05-2.89a1.35 1.35 0 0 0 1.43 1.33 1.47 1.47 0 0 0 1.38-1.48l-.16-8.69c-.05-2.68 0-6.08 0-6.08a21.1 21.1 0 0 0-5.11-.39 28 28 0 0 0-5.59.53z" fill="#d68028" stroke="#5d3329" stroke-linecap="round" stroke-linejoin="round" stroke-width=".5" fill-rule="evenodd"/><path fill="#ec8213" stroke="#5d3329" stroke-linecap="round" stroke-linejoin="round" stroke-width=".5" d="M25.18 48.63l-.11-5.92M28 48.84l-.13-6.71M30.71 45.37l-.07-3.68M22.11 39.79l-.04-2.37"/></svg>