<svg data-name="Слой 1" xmlns="http://www.w3.org/2000/svg" width="26" height="28.92" viewBox="0 0 26 28.92"><title>график 131</title><rect x="5.84" y="11.2" width="3.36" height="2.38" rx=".5" ry=".5" fill="#f08119"/><rect x="11.32" y="11.2" width="3.36" height="2.38" rx=".5" ry=".5" fill="#f08119"/><rect x="16.79" y="11.2" width="3.36" height="2.38" rx=".5" ry=".5" fill="#f08119"/><rect x="5.84" y="15.9" width="3.36" height="2.38" rx=".5" ry=".5" fill="#f08119"/><rect x="11.32" y="15.9" width="3.36" height="2.38" rx=".5" ry=".5" fill="#f08119"/><rect x="16.79" y="15.9" width="3.36" height="2.38" rx=".5" ry=".5" fill="#f08119"/><rect x="5.84" y="20.61" width="3.36" height="2.38" rx=".5" ry=".5" fill="#f08119"/><rect x="11.32" y="20.61" width="3.36" height="2.38" rx=".5" ry=".5" fill="#f08119"/><rect x=".5" y="3.72" width="25" height="24.7" rx="3" ry="3" fill="none" stroke="#f08119" stroke-miterlimit="10"/><g fill="#fff" stroke="#f08119" stroke-miterlimit="10"><rect x="5.56" y=".69" width="3" height="6.44" rx="1.5" ry="1.5"/><rect x="17.45" y=".5" width="3" height="6.44" rx="1.5" ry="1.5"/></g></svg>