<svg xmlns="http://www.w3.org/2000/svg" width="70" height="70" viewBox="0 0 70 70"><title>домашний-мастер</title><g id="Слой_2" data-name="Слой 2"><g id="Слой_1-2" data-name="Слой 1"><rect width="70" height="70" fill="none"/><path d="M44.08,26.85a6.79,6.79,0,1,1,6.79-6.79A6.79,6.79,0,0,1,44.08,26.85Zm0-12.22a5.43,5.43,0,1,0,5.43,5.43A5.44,5.44,0,0,0,44.08,14.64Z" fill="#fd8204"/><path d="M44.08,13.66a6.41,6.41,0,1,1-6.41,6.41,6.42,6.42,0,0,1,6.41-6.41m0,12.22a5.81,5.81,0,1,0-5.81-5.81,5.81,5.81,0,0,0,5.81,5.81m0-13a7.16,7.16,0,1,0,7.16,7.16,7.16,7.16,0,0,0-7.16-7.16Zm0,12.22a5.06,5.06,0,1,1,5.06-5.06,5.06,5.06,0,0,1-5.06,5.06Z" fill="#692f17"/><rect x="22.52" y="20.64" width="43.12" height="31.36" rx="3.56" ry="3.56" fill="#fd8204" stroke="#692f17" stroke-linejoin="round" stroke-width="1.5"/><path d="M65.64,28.7V24.19a3.56,3.56,0,0,0-3.56-3.56h-36a3.56,3.56,0,0,0-3.56,3.56V28.7" fill="#f7e8d2" stroke="#692f17" stroke-linejoin="round" stroke-width="1.5"/><line x1="22.52" y1="28.7" x2="65.64" y2="28.7" fill="#dfdbd1" stroke="#692f17" stroke-linejoin="round" stroke-width="0.75"/><rect x="37.72" y="26.98" width="12.72" height="3.44" rx="0.78" ry="0.78" fill="#f8f3ee"/><path d="M49.66,27.35a.4.4,0,0,1,.4.4v1.88a.4.4,0,0,1-.4.4H38.5a.4.4,0,0,1-.4-.4V27.76a.4.4,0,0,1,.4-.4H49.66m0-.75H38.5a1.15,1.15,0,0,0-1.15,1.15v1.88A1.15,1.15,0,0,0,38.5,30.8H49.66a1.15,1.15,0,0,0,1.15-1.15V27.76a1.15,1.15,0,0,0-1.15-1.15Z" fill="#692f17"/><path d="M36.81,50.48a5.24,5.24,0,1,1,5.24-5.24A5.25,5.25,0,0,1,36.81,50.48Zm0-8a2.8,2.8,0,1,0,2.8,2.8A2.81,2.81,0,0,0,36.81,42.43Z" fill="#dfdbd1" stroke="#692f17" stroke-linejoin="round" stroke-width="0.75"/><path d="M2.07,38.51A.91.91,0,0,1,3,37.6H27.24a.91.91,0,0,1,.91.91h0a.91.91,0,0,1-.91.91H3a.91.91,0,0,1-.91-.91Z" fill="#dfdbd1" stroke="#692f17" stroke-linejoin="round" stroke-width="0.75"/><path d="M44.22,36.2A2.76,2.76,0,0,0,44,35.12a4.15,4.15,0,0,0-4-2.95H21.86a6.34,6.34,0,0,0,0,12.67H37l1.41,8a2.76,2.76,0,0,0,2.76,2.76h3.25a2.76,2.76,0,0,0,2.76-2.76Z" fill="#dfdbd1" stroke="#692f17" stroke-linejoin="round" stroke-width="1.5"/><path d="M16.94,34.66a4,4,0,1,0,0,7.71Z" fill="#fd8204" stroke="#692f17" stroke-linejoin="round" stroke-width="0.75"/></g></g></svg>