<svg xmlns="http://www.w3.org/2000/svg" width="100" height="100" viewBox="0 0 100 100"><title>информация</title><g id="Слой_2" data-name="Слой 2"><g id="Слой_1-2" data-name="Слой 1"><rect width="100" height="100" fill="none"/><path d="M67.76,19.94h7A3.24,3.24,0,0,1,78,23.18V86.47a3.24,3.24,0,0,1-3.24,3.24H25.24A3.24,3.24,0,0,1,22,86.47V23.18a3.24,3.24,0,0,1,3.24-3.24h7" fill="none" stroke="#fd8204" stroke-miterlimit="10" stroke-width="2"/><rect x="27.86" y="30" width="43.14" height="52" fill="none" stroke="#fd8204" stroke-linecap="round" stroke-miterlimit="10"/><line x1="44.72" y1="39.43" x2="63.57" y2="39.43" fill="none" stroke="#fd8204" stroke-linecap="round" stroke-miterlimit="10" stroke-width="2"/><circle cx="36.43" cy="39.43" r="2.09" fill="none" stroke="#fd8204" stroke-linecap="round" stroke-miterlimit="10"/><line x1="44.72" y1="49.94" x2="63.57" y2="49.94" fill="none" stroke="#fd8204" stroke-linecap="round" stroke-miterlimit="10" stroke-width="2"/><circle cx="36.43" cy="49.94" r="2.09" fill="none" stroke="#fd8204" stroke-linecap="round" stroke-miterlimit="10"/><line x1="44.72" y1="60.45" x2="63.57" y2="60.45" fill="none" stroke="#fd8204" stroke-linecap="round" stroke-miterlimit="10" stroke-width="2"/><circle cx="36.43" cy="60.45" r="2.09" fill="none" stroke="#fd8204" stroke-linecap="round" stroke-miterlimit="10"/><line x1="44.72" y1="70.95" x2="63.57" y2="70.95" fill="none" stroke="#fd8204" stroke-linecap="round" stroke-miterlimit="10" stroke-width="2"/><circle cx="36.43" cy="70.95" r="2.09" fill="none" stroke="#fd8204" stroke-linecap="round" stroke-miterlimit="10"/><path d="M43.76,15V13.53A3.24,3.24,0,0,1,47,10.29h6a3.24,3.24,0,0,1,3.24,3.24V15" fill="none" stroke="#fd8204" stroke-miterlimit="10" stroke-width="2"/><path d="M67.76,20.48V18.29A3.24,3.24,0,0,0,64.52,15h-29a3.24,3.24,0,0,0-3.24,3.24v2.19Z" fill="none" stroke="#fd8204" stroke-linecap="round" stroke-miterlimit="10"/></g></g></svg>