<svg xmlns="http://www.w3.org/2000/svg" width="100" height="100" viewBox="0 0 100 100"><defs><clipPath id="a"><path fill="none" d="M5.69 93.14V9.67h83.3L5.69 93.14z"/></clipPath><clipPath id="b"><path fill="none" d="M94.31 6.86v83.47h-83.3l83.3-83.47z"/></clipPath></defs><title>replacement-work_1</title><g clip-path="url(#a)"><rect x="8.23" y="17.58" width="42.87" height="53.41" rx="2.48" ry="2.48" fill="none" stroke="#fd8204" stroke-linecap="round" stroke-miterlimit="10" stroke-width="1.87"/><path fill="none" stroke="#fd8204" stroke-linecap="round" stroke-miterlimit="10" stroke-width=".94" d="M8.23 28.2H51.1M8.23 65.82H51.1"/><circle cx="29.66" cy="46.9" r="12.87" fill="none" stroke="#fd8204" stroke-linecap="round" stroke-miterlimit="10" stroke-width="1.87"/><path d="M35.54 46.9a7 7 0 0 1 2.06-5 9.37 9.37 0 1 0 0 9.91 7 7 0 0 1-2.06-4.91zM26.89 17.27v6.12a2.48 2.48 0 0 1-2.48 2.48H8.67" fill="none" stroke="#fd8204" stroke-linecap="round" stroke-miterlimit="10" stroke-width=".94"/><circle cx="33.35" cy="23.02" r="1.45" fill="#fd8204"/><path d="M37.53 22.51A.51.51 0 1 1 37 23a.51.51 0 0 1 .51-.51m0-.94A1.45 1.45 0 1 0 39 23a1.45 1.45 0 0 0-1.45-1.45zM41.7 22.51a.51.51 0 1 1-.51.51.51.51 0 0 1 .51-.51m0-.94A1.45 1.45 0 1 0 43.15 23a1.45 1.45 0 0 0-1.45-1.45zM45.88 22.51a.51.51 0 1 1-.51.51.51.51 0 0 1 .51-.51m0-.94A1.45 1.45 0 1 0 47.33 23a1.45 1.45 0 0 0-1.45-1.45z" fill="#fd8204"/><path d="M16.12 71a3 3 0 0 1-6.05 0" fill="none" stroke="#fd8204" stroke-miterlimit="10" stroke-width=".94"/><path d="M48.91 71a3 3 0 0 1-6.05 0" fill="none" stroke="#5d3329" stroke-miterlimit="10" stroke-width=".94"/></g><g clip-path="url(#b)"><path fill="#5d3329" d="M64.34 17.85l.83 3.89 3.91.84-3.9.83-.84 3.9-.82-3.9-3.9-.83 3.9-.83.82-3.9zM53.01 27.22l.83 3.89 3.9.84-3.9.83-.83 3.9-.83-3.9-3.9-.83 3.9-.83.83-3.9z"/><path d="M73.57 47.52v5s-7.8 3.28-7.8 5v21.91a3.14 3.14 0 0 0 3.14 3.14h17.43a3.14 3.14 0 0 0 3.14-3.14V57.5c0-1.73-7.8-5-7.8-5v-5" fill="none" stroke="#fd8204" stroke-linecap="round" stroke-miterlimit="10" stroke-width="1.87" fill-rule="evenodd"/><rect x="69.62" y="38.74" width="16.01" height="8.85" rx="2.27" ry="2.27" fill="none" stroke="#fd8204" stroke-linecap="round" stroke-miterlimit="10" stroke-width="1.87"/><path d="M79.81 38.74V36.1h3a5.15 5.15 0 1 0-10.3 0h3v2.64" fill="none" stroke="#fd8204" stroke-miterlimit="10" stroke-width=".94" fill-rule="evenodd"/><path fill="none" stroke="#fd8204" stroke-miterlimit="10" stroke-width=".94" d="M65.76 62.32h23.73M73.41 52.74h8.43M65.76 74.57h23.73"/><path d="M65.77 78.87a21.24 21.24 0 1 1 3.86-34.37" fill="none" stroke="#fd8204" stroke-linecap="round" stroke-miterlimit="10" stroke-width="1.87" fill-rule="evenodd"/><path d="M65.78 70a14.17 14.17 0 1 1 2.73-15.22" fill="none" stroke="#fd8204" stroke-miterlimit="10" stroke-width=".94" fill-rule="evenodd"/></g><path fill="none" stroke="#fd8204" stroke-linecap="round" stroke-miterlimit="10" stroke-width="1.87" d="M18.41 81.28l63.85-63.85"/><path fill="none" d="M0 0h100v100H0z"/></svg>