<svg xmlns="http://www.w3.org/2000/svg" xmlns:xlink="http://www.w3.org/1999/xlink" width="100" height="100" viewBox="0 0 100 100"><defs><clipPath id="clip-path"><polygon points="5.77 94.23 5.77 10.76 89.07 10.76 5.77 94.23" fill="none"/></clipPath><clipPath id="clip-path-2"><polygon points="94.23 7.77 94.23 91.24 10.93 91.24 94.23 7.77" fill="none"/></clipPath></defs><title>замена-работ</title><g id="Слой_2" data-name="Слой 2"><g id="Слой_1-2" data-name="Слой 1"><rect width="100" height="100" fill="none"/><g clip-path="url(#clip-path)"><rect x="8.31" y="18.66" width="42.87" height="53.41" rx="2.48" ry="2.48" fill="none" stroke="#fd8204" stroke-linecap="round" stroke-miterlimit="10" stroke-width="2"/><line x1="8.31" y1="29.29" x2="51.18" y2="29.29" fill="none" stroke="#fd8204" stroke-linecap="round" stroke-miterlimit="10"/><line x1="8.31" y1="66.9" x2="51.18" y2="66.9" fill="none" stroke="#fd8204" stroke-linecap="round" stroke-miterlimit="10"/><circle cx="29.75" cy="47.99" r="12.87" fill="none" stroke="#fd8204" stroke-linecap="round" stroke-miterlimit="10" stroke-width="2"/><path d="M35.63,48a7,7,0,0,1,2.06-5,9.37,9.37,0,1,0,0,9.91A7,7,0,0,1,35.63,48Z" fill="none" stroke="#fd8204" stroke-linecap="round" stroke-miterlimit="10"/><path d="M27,18.35v6.12A2.48,2.48,0,0,1,24.5,27H8.75" fill="none" stroke="#fd8204" stroke-linecap="round" stroke-miterlimit="10"/><circle cx="33.43" cy="24.1" r="1.45" fill="#fd8204"/><path d="M37.61,23.65a.45.45,0,1,1-.45.45.45.45,0,0,1,.45-.45m0-1a1.45,1.45,0,1,0,1.45,1.45,1.45,1.45,0,0,0-1.45-1.45Z" fill="#fd8204"/><path d="M41.79,23.65a.45.45,0,1,1-.45.45.45.45,0,0,1,.45-.45m0-1a1.45,1.45,0,1,0,1.45,1.45,1.45,1.45,0,0,0-1.45-1.45Z" fill="#fd8204"/><path d="M46,23.65a.45.45,0,1,1-.45.45.45.45,0,0,1,.45-.45m0-1a1.45,1.45,0,1,0,1.45,1.45A1.45,1.45,0,0,0,46,22.65Z" fill="#fd8204"/><path d="M16.2,72.07a3,3,0,0,1-6.05,0" fill="none" stroke="#fd8204" stroke-miterlimit="10"/></g><g clip-path="url(#clip-path-2)"><path d="M73.48,48.43v5s-7.8,3.28-7.8,5V80.34a3.14,3.14,0,0,0,3.14,3.14H86.26a3.14,3.14,0,0,0,3.14-3.14V58.42c0-1.73-7.8-5-7.8-5v-5" fill="none" stroke="#fd8204" stroke-linecap="round" stroke-miterlimit="10" stroke-width="2" fill-rule="evenodd"/><rect x="69.54" y="39.65" width="16.01" height="8.85" rx="2.27" ry="2.27" fill="none" stroke="#fd8204" stroke-linecap="round" stroke-miterlimit="10" stroke-width="2"/><path d="M79.72,39.65V37h3a5.15,5.15,0,1,0-10.3,0h3v2.64" fill="none" stroke="#fd8204" stroke-miterlimit="10" fill-rule="evenodd"/><line x1="65.68" y1="63.23" x2="89.4" y2="63.23" fill="none" stroke="#fd8204" stroke-miterlimit="10"/><line x1="73.33" y1="53.66" x2="81.75" y2="53.66" fill="none" stroke="#fd8204" stroke-miterlimit="10"/><line x1="65.68" y1="75.49" x2="89.4" y2="75.49" fill="none" stroke="#fd8204" stroke-miterlimit="10"/><path d="M65.68,79.78a21.24,21.24,0,1,1,3.86-34.37" fill="none" stroke="#fd8204" stroke-linecap="round" stroke-miterlimit="10" stroke-width="2" fill-rule="evenodd"/><path d="M65.7,70.92A14.17,14.17,0,1,1,68.42,55.7" fill="none" stroke="#fd8204" stroke-miterlimit="10" fill-rule="evenodd"/></g><line x1="18.49" y1="82.37" x2="82.34" y2="18.51" fill="none" stroke="#fd8204" stroke-linecap="round" stroke-miterlimit="10" stroke-width="2"/></g></g></svg>