<svg xmlns="http://www.w3.org/2000/svg" width="100" height="100" viewBox="0 0 100 100"><defs><clipPath id="a"><path fill="none" d="M6.35 19.88h37.17V84.3H6.35z"/></clipPath></defs><title>ordering_2</title><path d="M52.68 23.09h-6.26a2.9 2.9 0 0 0-2.9 2.9v56.66a2.9 2.9 0 0 0 2.9 2.9h44.33a2.9 2.9 0 0 0 2.9-2.9V26a2.9 2.9 0 0 0-2.9-2.9h-6.26" fill="none" stroke="#fd8204" stroke-miterlimit="10" stroke-width="2.03"/><path fill="none" stroke="#fd8204" stroke-linecap="round" stroke-miterlimit="10" stroke-width="1.02" d="M87.39 70.46v8.19H48.76V32.1h38.63v38.36z"/><path fill="none" stroke="#fd8204" stroke-linecap="round" stroke-miterlimit="10" stroke-width="2.03" d="M55.67 40.54h25.07M55.67 48.26h25.07M55.67 55.99h24.56M55.67 63.71h25.07"/><path d="M63 18.71v-1.36a2.9 2.9 0 0 1 2.9-2.9h5.36a2.9 2.9 0 0 1 2.9 2.9v1.36" fill="none" stroke="#fd8204" stroke-miterlimit="10" stroke-width="2.03"/><path d="M84.48 23.57v-2a2.9 2.9 0 0 0-2.9-2.9h-26a2.9 2.9 0 0 0-2.9 2.9v2z" fill="none" stroke="#fd8204" stroke-linecap="round" stroke-miterlimit="10" stroke-width="1.02"/><g clip-path="url(#a)"><path d="M49.29 55.5V43.37c0-2.11-1.8-3.19-3.8-3.81C35.1 36.31 35 28.69 35 28.69V24.35a.69.69 0 0 0-.69-.69H30.2a.69.69 0 0 0-.69.69v20.21" fill="none" stroke="#fd8204" stroke-miterlimit="10" stroke-width="1.52"/><path fill="none" stroke="#fd8204" stroke-miterlimit="10" stroke-width="1.02" d="M29.51 28.69h5.13"/><path d="M16 32.56a7 7 0 0 1-2.3 5.75 22.68 22.68 0 0 1-3 2.13l.47.5A13.22 13.22 0 0 0 16.32 38c2.75-2.75 2.26-5.47 2.26-5.47zM13.06 31.88h-2.31a.44.44 0 0 1-.44-.44v-1.91a.44.44 0 0 1 .44-.44h2.31" fill="none" stroke="#fd8204" stroke-linecap="round" stroke-linejoin="round" stroke-width="1.02"/><path d="M19.48 41.36A9.19 9.19 0 0 0 13 50.14v5.12" fill="none" stroke="#fd8204" stroke-miterlimit="10" stroke-width="1.52"/><path d="M31.4 55.65v-5.4-.06-.06a9.19 9.19 0 0 0-6.52-8.8" fill="none" stroke="#d68028" stroke-miterlimit="10" stroke-width="1.52"/><path d="M26.19 28.58H13.94a.92.92 0 0 0-.92.92v2.15a.92.92 0 0 0 .92.92h4.64l1.66 4.88a.64.64 0 0 0-.59.64v3.27h5.12v-3.28a.65.65 0 0 0-.65-.65v-4.87h2.09a.92.92 0 0 0 .92-.92v-2.15a.92.92 0 0 0-.94-.91zM17.18 60.78h-5.93l2.89 18.32a3.57 3.57 0 0 0 3.57 3.57h28.71A3.57 3.57 0 0 0 50 79.1l2.89-18.32H45.3" fill="none" stroke="#fd8204" stroke-linecap="round" stroke-linejoin="round" stroke-width="1.52"/><path d="M18.17 60.78H8.75a1.22 1.22 0 0 1-1.22-1.22v-2.85a1.22 1.22 0 0 1 1.22-1.21h46.63a1.22 1.22 0 0 1 1.22 1.22v2.84a1.22 1.22 0 0 1-1.22 1.22h-10.1" fill="none" stroke="#fd8204" stroke-linecap="round" stroke-linejoin="round" stroke-width="1.52"/><path fill="#fffffe" stroke="#fd8204" stroke-miterlimit="10" stroke-width="1.02" d="M24.46 37.9h-5.03"/><path fill="#5d3329" d="M19.98 70.9l4.07-4.08"/><path d="M20 71.2a.29.29 0 0 1-.21-.09.3.3 0 0 1 0-.42l4.07-4.08a.3.3 0 0 1 .42.42l-4.07 4.07a.29.29 0 0 1-.21.1z" fill="#fd8204"/><path fill="#5d3329" d="M17.8 69.21l4.61-4.61"/><path d="M17.8 69.5a.3.3 0 0 1-.21-.5l4.61-4.61a.3.3 0 1 1 .42.42L18 69.42a.29.29 0 0 1-.2.08z" fill="#fd8204"/><path fill="#5d3329" d="M18.17 65.02l2.54-2.53"/><path d="M18.17 65.32a.3.3 0 0 1-.21-.5l2.53-2.53a.3.3 0 1 1 .42.42l-2.53 2.53a.29.29 0 0 1-.21.08zM38.51 76.24a1.58 1.58 0 0 1-1.59-1.56v-.28a1.67 1.67 0 0 1-1 .43h-.09a1.58 1.58 0 0 1-1.59-1.56L34 65.59c-.57 1.5-1.46 3.35-2.34 3.35h-.17a1.41 1.41 0 0 1-.92-.71c-.77-1.41.25-4.46.68-5.76l.11-.34c.53-1.67 2.64-4 3.08-4.52v-1.66a.3.3 0 0 1 .23-.28 26.58 26.58 0 0 1 5.19-.49h.17a20.16 20.16 0 0 1 5 .38.3.3 0 0 1 .21.28v5.8l.16 8.3a1.7 1.7 0 0 1-1.6 1.72h-.09a1.59 1.59 0 0 1-1-.33v1.51a1.7 1.7 0 0 1-1.6 1.72h-.09a1.58 1.58 0 0 1-.94-.31v.29a1.7 1.7 0 0 1-1.6 1.72zm-1-3.13v1.56a1 1 0 0 0 1 1h.06a1.11 1.11 0 0 0 1-1.12v-1.26a.3.3 0 0 1 .58-.08 1 1 0 0 0 1 .75 1.12 1.12 0 0 0 1.09-1.12l-.05-2.76a.3.3 0 0 1 .29-.3.3.3 0 0 1 .3.29 1 1 0 0 0 1 1 1.12 1.12 0 0 0 1.1-1.12l-.16-8.3v-5.58a26 26 0 0 0-4.59-.31h-.17a27.42 27.42 0 0 0-4.84.43v1.53a.3.3 0 0 1-.08.19s-2.49 2.69-3 4.38l-.11.35c-.38 1.12-1.37 4.11-.73 5.29a.82.82 0 0 0 .55.42c.57 0 1.66-2.31 2.33-4.47a.3.3 0 0 1 .58.08l.26 9.29a1 1 0 0 0 1 1 1.12 1.12 0 0 0 1.09-1.12.3.3 0 0 1 .29-.3.29.29 0 0 1 .3.29z" fill="#fd8204"/><path fill="#5d3329" d="M37.18 73.07l-.1-5.66"/><path d="M37.18 73.37a.3.3 0 0 1-.3-.29l-.11-5.66a.29.29 0 0 1 .29-.3.3.3 0 0 1 .3.29l.11 5.66a.3.3 0 0 1-.29.3z" fill="#fd8204"/><path fill="#5d3329" d="M39.87 73.27l-.12-6.41"/><path d="M39.87 73.56a.3.3 0 0 1-.3-.29l-.12-6.41a.3.3 0 0 1 .29-.3.29.29 0 0 1 .3.29l.12 6.41a.3.3 0 0 1-.29.3z" fill="#fd8204"/><path fill="#5d3329" d="M42.46 69.95l-.06-3.52"/><path d="M42.46 70.25a.3.3 0 0 1-.3-.29l-.07-3.52a.3.3 0 0 1 .29-.3.3.3 0 0 1 .3.29l.07 3.52a.3.3 0 0 1-.29.3z" fill="#fd8204"/><path fill="#5d3329" d="M34.25 64.62l-.04-2.26"/><path d="M34.25 64.92a.29.29 0 0 1-.3-.29v-2.27a.3.3 0 0 1 .29-.3.3.3 0 0 1 .3.29v2.27a.3.3 0 0 1-.29.3z" fill="#d68028"/><path d="M32.39 61.27l.14-.24-.07.08a.29.29 0 0 0-.07.16z" fill="#5d3329"/><path d="M31.08 67.92a1.52 1.52 0 0 1-.07-.16c-.8 1.59-2.27 4.12-3.5 3.46-.43-.23.21-2.5 1.39-4.86a.3.3 0 0 0-.47-.34l-6.75 6.63a1.1 1.1 0 0 1-1.52 0 1.07 1.07 0 0 1 0-1.52.3.3 0 1 0-.42-.42l-1.12 1.12a1.1 1.1 0 0 1-1.51 0 1.07 1.07 0 0 1 0-1.52l.91-.91a.3.3 0 0 0-.37-.46 1.09 1.09 0 0 1-1.33-.15 1.07 1.07 0 0 1 0-1.52l2-2a.3.3 0 0 0-.42-.42 1.1 1.1 0 0 1-1.52 0 1.07 1.07 0 0 1 0-1.52l6-6 1.29-1.29a26.32 26.32 0 0 1 5.78-.69c.51 0 1 0 1.49.06a19.1 19.1 0 0 1 4.17.72c.23 0 .62-.11 1.14-.18a16.45 16.45 0 0 0-5.26-1.1c-.49 0-1-.06-1.54-.06a26.61 26.61 0 0 0-5.79.67.35.35 0 0 0-.36.13v.05L21.92 57l-6 6a1.66 1.66 0 0 0 1 2.83l-1.02 1.05a1.67 1.67 0 0 0 0 2.35 1.65 1.65 0 0 0 1 .48l-.2.2a1.67 1.67 0 0 0 0 2.35 1.7 1.7 0 0 0 2.35 0l.22-.22a1.66 1.66 0 0 0 2.83 1l5.61-5.51c-.66 1.58-1.35 3.7-.46 4.17a1.48 1.48 0 0 0 .7.18c1.41 0 2.69-2.09 3.49-3.67a.82.82 0 0 1-.36-.29z" fill="#fd8204"/></g><path fill="none" d="M0 0h100v100H0z"/></svg>