<svg xmlns="http://www.w3.org/2000/svg" width="35.28mm" height="35.28mm" viewBox="0 0 100 100"><title>change order</title><path d="M66.7 67.61V86a3.19 3.19 0 0 1-3.19 3.19H14.69A3.19 3.19 0 0 1 11.5 86V23.57a3.19 3.19 0 0 1 3.19-3.19h6.9M56.61 20.37h6.9a3.19 3.19 0 0 1 3.19 3.19V44.3" fill="none" stroke="#d78028" stroke-miterlimit="10" stroke-width="2"/><path fill="none" stroke="#d78028" stroke-linecap="round" stroke-miterlimit="10" d="M59.8 72.53v9.01H17.27V30.29H59.8v20.77"/><path fill="none" stroke="#d78028" stroke-linecap="round" stroke-miterlimit="10" stroke-width="2" d="M24.88 39.58h27.6M24.88 47.17h27.6M24.88 54.76h13.66"/><path d="M33 15.55V14a3.19 3.19 0 0 1 3.19-3.19h5.91A3.19 3.19 0 0 1 45.25 14v1.5" fill="none" stroke="#d78028" stroke-miterlimit="10" stroke-width="2"/><path d="M56.6 20.9v-2.16a3.19 3.19 0 0 0-3.19-3.19H24.79a3.19 3.19 0 0 0-3.19 3.19v2.16z" fill="none" stroke="#d78028" stroke-linecap="round" stroke-miterlimit="10"/><path d="M75.05 37.74l9.68 9.68L82 50.18l-1.67 1.67L60.25 71.9l-9.68-9.68 21.29-21.29.58-.58 2.61-2.61m0-2.26a1.36 1.36 0 0 0-1 .4l-3.64 3.64-22.67 22.7 12.51 12.51L83.39 51.6l3.21-3.21a1.37 1.37 0 0 0 0-1.93L76 35.88a1.37 1.37 0 0 0-1-.4z" fill="#d78028"/><path d="M84.89 47.56l3.21-3.21a1.37 1.37 0 0 0 0-1.94l-8-8a1.37 1.37 0 0 0-1.94 0L74.49 38" fill="none" stroke="#d78028" stroke-miterlimit="10"/><path fill="none" stroke="#d78028" stroke-linecap="round" stroke-linejoin="round" d="M48.28 62.45l-4.29 16.03 16.03-4.29M45.77 71.85l4.63 4.63"/><path fill="none" stroke="#d78028" stroke-miterlimit="10" d="M52.64 65.72l25.31-25.3M56.68 69.76l25.31-25.31"/><path fill="#d78028" d="M45.79 71.76l4.9 4.9-6.7 1.82 1.8-6.72z"/><path fill="none" d="M0 0h100v100H0z"/></svg>