<svg xmlns="http://www.w3.org/2000/svg" width="300" height="250" viewBox="0 0 300 250"><title>альпинизм</title><g id="Слой_2" data-name="Слой 2"><g id="Слой_24" data-name="Слой 24"><rect width="300" height="250" fill="none" opacity="0.48"/><path d="M122.83,7.23s6.77-2.77,8-3.51,7-2.28,10.93-2.28S150.31.38,152.44.63a6.67,6.67,0,0,1,3.51,1.55s2.45.08,4.49,0,5.14,1.3,6,1.55l9.91,2.94c1.63.49,3.91,2.94,6,4s13,11.42,14,14.6S202,34.8,202.51,37s2.77,14.84-.9,20.47-10,13.78-13.7,15.5-7.75,5.14-8.73,5.71-7.26,2.85-10.28,2.85h-4.65a16.17,16.17,0,0,0-3.1.57c-.41.16-.57-4-.57-4S150.56,81,144,80.55a83,83,0,0,1-12.23-1.88s2.49,3.55,1.83,4.12-4.85.65-6.65.41S118.59,81,118.59,81l-3.83-1.83a49.66,49.66,0,0,0-4.57-3c-.49-.08-9.95-11.34-11.5-14.19s-2.85-9.46-2.94-14.76a50,50,0,0,1,3.38-17.37c2.2-6,8-12.8,10.64-14.35s9.38-5.38,9.38-5.38Z" fill="#e09c51"/><path d="M138.45,23.48A11.49,11.49,0,0,0,136,26.76c-.52,1.35-.83,6.24-1.32,7s-1.87.89-2.78.8a8,8,0,0,1-2.54-1.25c-.12-.06-6,1.77-6.73,1.83s-8.1,1.8-8.59,1.93-3.67.8-3.82.86a6.29,6.29,0,0,0-3.15,3.88,7,7,0,0,0,.31,4.86A5,5,0,0,0,105.54,49a9,9,0,0,0,1.32,5.69c1,1.19,4.56,3.09,4.22,2.94s1.38,3.76,4.47,8.17,7.28,9,16.09,12.66,21,1.9,21.32,1.87a34.37,34.37,0,0,0,13.21-4.65s6.88-5,8.84-7,5.93-6.85,6.76-8.81a11.25,11.25,0,0,0,.86-2.39s2.48.24,4.28-3,.83-7-.64-7.8-4.28-.21-5.11-.06-2.87-1.68-3.39-3.91-6-7.71-6-7.71a33.5,33.5,0,0,1-6.45-.12c-2.45-.43-7.22-1-9-1.5s-7.74.28-8.9.55-5.2,2.2-5.5,1.93-.15-1.71-.15-2.32S138.45,23.48,138.45,23.48Z" fill="#fbdfcb"/><path d="M133,48.47A3.57,3.57,0,0,0,131.78,46a4.68,4.68,0,0,0-3.4-1.35c-.9,0-4.67-.33-5.28,0a14.75,14.75,0,0,0-2.59,2.45c-.71.8-.06,1.35.35,1.57s1.86,1.38,2.92,1.4a32.2,32.2,0,0,0,4.69-.15c.94-.2,2.71-.94,3.38-1S132.9,48.73,133,48.47Z" fill="#fff"/><path d="M129.73,45.27a2.62,2.62,0,0,1,.73,2.26A3.76,3.76,0,0,1,127.65,50c-1.35.27-3-.52-3.15-1.07s-1.19-2.07-.93-2.82S127.94,42.27,129.73,45.27Z" fill="#abd2f0"/><path d="M151.29,48.16a3.57,3.57,0,0,1,1.22-2.47,4.68,4.68,0,0,1,3.4-1.35,26.81,26.81,0,0,1,5.18.65,9.83,9.83,0,0,1,2.69,1.77c.71.8.06,1.35-.35,1.57a9.56,9.56,0,0,1-3.18.94c-1.06,0-3.49.51-4.42.31s-2.71-.94-3.38-1S151.4,48.43,151.29,48.16Z" fill="#fff"/><path d="M155.58,45.12a2.62,2.62,0,0,0-.73,2.26,3.76,3.76,0,0,0,2.81,2.51c1.35.27,3.28-.16,3.47-.71s.88-2.43.61-3.18S157.37,42.13,155.58,45.12Z" fill="#abd2f0"/><path d="M97.2,34.94a30.67,30.67,0,0,0,4.28-4.59c1.28-2,4.34-7.52,7.34-10.28s3.85-3.79,5-4.53l-2.87,6.24s2.14-2.81,4-3.55a11.19,11.19,0,0,1,2.69-.8,37.88,37.88,0,0,0-2.87,5.08c-.43,1.35-.49,7.34-.43,8.32s.31,2.63.31,2.63.73-7.16,3.36-11.07,4.1-7.22,10-10.4,7.1-3.36,8.07-3.18,0,2,0,2a62.46,62.46,0,0,0-2.69,6.24A20.62,20.62,0,0,1,137,12.86a36.86,36.86,0,0,1,4.47-3.36s-2.63,7.77-2.63,10.15,1.1,9.3,1.1,9.3L141.06,32a25.84,25.84,0,0,1,1.71-11.07c2.26-5.5,3.3-10.64,7.52-11.93a6.09,6.09,0,0,1,7.46,2.81,26,26,0,0,1,1.65,5s.18-4.28.06-5.26,1.35-1.16,2.14-.92a13.72,13.72,0,0,1,7.28,5.75c2.51,4.1,3.43,10.7,3.43,10.7s1.35-8.26.43-9.85-3.12-5.2-4.83-6.61c0,0-.37-1.59,2.26-1.1a18.06,18.06,0,0,1,6.91,2.39S174,9.19,172.44,8s-8.56-5.2-8.93-5.44a29.59,29.59,0,0,0-4.34-.61l-2.81-.12L154.09.57l-8.26.92L142.77.93,132.25,2.77l-8,3.61-7.34,5.14-3.43,1.28-8.07,7s-6.06,7.65-6.24,8.62S97,35.06,97,35.06Z" fill="#e9b87f"/><path d="M101.42,38s-2.81,8.38-2.32,14.74,3.61,14.13,4.16,14.68-2.69-2.2-2.87-2.32a67.34,67.34,0,0,1-3.79-9.73c-.55-2.51-.86-8.62.37-11.19S100.81,38.31,101.42,38Z" fill="#e9b87f"/><path d="M183,162.64c0-.15,8.53,1.39,12.14.65,4-.83,3.22-3.93,3.22-3.93s8-2.9,7.2-4.85.4-10.75-.59-11.54c-1.76-1.4-3.05-7.53-3.57-9.43-.65-4.24-3.5-11.15-4.37-15.36-.65-3.14-4.11-7.74-4.48-10.93-.15-1.32-3.73-4.65-3.68-6,.06-1.55-2.4-4.69-4.91-7A30.32,30.32,0,0,1,180.21,90c-3.83-3.75-11.34-6-11.34-6a57.09,57.09,0,0,0-8.73-1.3L159.57,78a9.22,9.22,0,0,1-3.18,1.47,113.87,113.87,0,0,1-12.48,1.47c-2.28,0-11.17-1.63-11.17-1.63l.24,4.08-1.71.24a58.75,58.75,0,0,0-6.93,2.2,77.82,77.82,0,0,0-7.91,4.49c-6.38,7-12.55,9.26-16.78,15.15A32.12,32.12,0,0,0,94,124.12c.15,3.66,1.75,6.79,2.14,10.09,1,8.69,6,11.62,14.19,13.09,2.88.52,4.75-3.93,5.69-3.43,1.57.85,1,7,1.41,12,.65,8.07.65,11.66,0,15.9s26.55,2.49,27,2.65,11.42.24,11.74.33a106.33,106.33,0,0,0,11.58-1c2.12-.49,13-3.18,14.52-3.34s1.22-1.88,1.47-4S183,162.35,183,162.64Z" fill="#fff"/><ellipse cx="135.19" cy="142.32" rx="5.2" ry="5.78" transform="translate(-8.34 8.41) rotate(-3.46)" fill="#fd8204"/><ellipse cx="120.37" cy="152.51" rx="3.72" ry="6.2" transform="translate(-8.98 7.54) rotate(-3.46)" fill="#fd8204"/><ellipse cx="149.56" cy="157.12" rx="5.78" ry="5.2" transform="translate(-43.74 255.55) rotate(-73.4)" fill="#fd8204"/><ellipse cx="129.68" cy="94.49" rx="5.2" ry="5.78" transform="translate(-24.11 48.72) rotate(-19.51)" fill="#fd8204"/><path d="M183,142.83a4.36,4.36,0,0,1-3.43,2.21c-2.54.15-4.75-2.19-4.94-5.23s1.73-5.63,4.27-5.79a4.08,4.08,0,0,1,2.63.79C182.77,135.73,183.55,141.84,183,142.83Z" fill="#fd8204"/><path d="M198.45,125.91a4.36,4.36,0,0,1-3.43,2.21c-2.54.15-4.75-2.19-4.94-5.23s1.73-5.63,4.27-5.79a4.08,4.08,0,0,1,2.63.79C198.28,118.81,199.06,124.92,198.45,125.91Z" fill="#fd8204"/><path d="M198.81,158.84a3.93,3.93,0,0,1-3.16-1.9c-1.14-2-.12-4.72,2.27-6.08s5.25-.84,6.39,1.16a3.68,3.68,0,0,1,.41,2.44C204.49,155.88,199.85,158.94,198.81,158.84Z" fill="#fd8204"/><ellipse cx="142.21" cy="107.46" rx="1.79" ry="1.74" fill="#f4e8db"/><path d="M132,215.56c-.42.31,2.81,13.95,2.81,13.95s6.24,2.69,10.89,2.32,5.63-2.69,5.63-2.69a14,14,0,0,0,2,2c.73.49,12.48-1,12.48-1s4-1.22,4-1.59,2.57-6.61,2.57-6.61.61-6.24.24-6.85-4.65,1.47-7.34,1.47-6.85.12-8.93-1.1-3.55-2.2-3.55-2.2-3.79,2.69-7.34,3.06-7.46.24-10.28-.86S132.5,215.2,132,215.56Z" fill="#d2a274"/><path d="M120.38,227.67s5-.49,7.46.49a104.17,104.17,0,0,0,11.74,3.3c1.59.24,6.12.86,9.54-.73s3.67.86,3.67.86l8.2-1c2.08-.24,8.07-1.35,10.4-.61s5.14,4,6,4.89,4.4,5.5,3.67,8-4.16,5.63-8.2,5.87-13.95,1.47-17.13.86-3.79-2.45-4.77-5.5L150,241a26.89,26.89,0,0,1-6,1c-2.57,0-13.7,3.18-17.49,3.18s-9.54-.49-11-1.1c0,0-3.06-2.81-3.43-5.14a10,10,0,0,1,1.47-7.22C115,229.75,116.72,228.53,120.38,227.67Z" fill="#efb000"/><path d="M142.53,174.34s11,.37,13,.24,9.91-.12,15.29-1.35,8.56-2.57,9.17-.24,1.1,10.89,0,13.7a15,15,0,0,0-.73,6.48c0,1.35.73,13.58-1.1,16s-2.2,4.53-7,5.5-6.12,2.32-9.42,1.83-5.5-.37-6.85-1.83a15.11,15.11,0,0,0-2.45-2.2s-1.1,2.32-4.77,3.18-6.12,1.71-10.64.12a21.15,21.15,0,0,1-6.36-3.18s-3.43-5-4.16-9.54-.37-13.82-.37-13.82l-2.2-6.48s-2.63-6.93-.18-9.13S142.53,174.34,142.53,174.34Z" fill="#fd8204"/><path d="M176.9,172.87s.31,6.36.37,8.07a33.5,33.5,0,0,1-.12,7,43.81,43.81,0,0,0-.67,7.71c.06,1.59.43,8.93-.12,10.52a26.7,26.7,0,0,1-1.35,3.12,9,9,0,0,1,.18,3.18c-.31,1,1-.12,1.59-1.28s1.59-1.71,1.9-4.4a99.62,99.62,0,0,0,.43-12.29c-.24-1.35.61-7.4.8-8.26s.49-10.15.37-12.23S177.88,170.67,176.9,172.87Z" fill="#e16702"/><path d="M167.85,174.28s.55,4.1,1,5.93,1.83,7.1,1.53,10a71.6,71.6,0,0,0-.67,8.56c0,3.43.37,8.44.31,10.34s.12,3.73-.43,5.08,3.55-2.69,3.55-2.69.31-10.83.49-13.52,1.1-6.54,1.1-9.36-1.35-8.13-1.59-10.58a18.61,18.61,0,0,1,.37-5.14Z" fill="#e16702"/><path d="M158.61,175.38s1.71,7.77,2.57,11.74.61,11,1.22,14.56.55,6.18.86,8.69.92,5.93.92,5.93,3.06-.12,3.55-.8-.73-12.17-1.1-14.13.06-7.34-.24-9.36-1.77-10.89-2.14-12.17a16.74,16.74,0,0,1-.24-5.08C164.18,174.34,158.61,175.38,158.61,175.38Z" fill="#e16702"/><path d="M150.17,174.95s1.1,6.61,1.35,7.77,2,8.75,2.57,10.89,1,11,1.16,13.33.73,7.22,2.75,8.75a4,4,0,0,0,3.73.86,25.89,25.89,0,0,1-2-7.83c-.67-5.32-.55-10.7-1-13s-1.65-12.23-2.81-14.92a16.92,16.92,0,0,1-1.1-6.06Z" fill="#e16702"/><path d="M143.81,175.44s1,5.32,1.35,7,2,8.93,2.39,10.95,1,7.71,1.59,11,1.28,6.42,1.16,8.13a11,11,0,0,1-.31,2.26l-3.36,1.41s0-.92-.18-3.24-1.59-9.48-2-12-1.65-12.29-2.08-14.19-1.59-9.85-1.22-11.44S143.81,175.44,143.81,175.44Z" fill="#e16702"/><path d="M137,174.68s2.87,16,3.3,17.21.73,5.93,1.28,9.24,1.59,9.36,2,11.13,1.16,3.61.8,4.16-3.3.06-3.3.06a15.7,15.7,0,0,1-2.81-6.79c-.49-3.79-1.28-11.19-1.65-13.76s-4-22-4-22A29.26,29.26,0,0,1,137,174.68Z" fill="#e16702"/><path d="M127.11,173s3.49,13.23,4.1,14.45a15.23,15.23,0,0,1,1.47,4.47c.37,2-.24,5.69.49,9.05s1.9,10.21,3.3,12.72,2.2,2.39,2.2,2.39a54.14,54.14,0,0,1-6.18-2.32c-1.71-.92-3.36-11.93-3.61-14.74s-.06-8.2-.49-9-4.53-14.45-4.1-16.11S127.11,173,127.11,173Z" fill="#e16702"/><ellipse cx="164.67" cy="100.97" rx="5.2" ry="5.78" transform="translate(-24.26 60.78) rotate(-19.51)" fill="#fd8204"/><ellipse cx="127.42" cy="114.18" rx="5.78" ry="5.2" transform="translate(-27.81 186.14) rotate(-66.73)" fill="#fd8204"/><ellipse cx="115.41" cy="110.21" rx="5.01" ry="4.5" transform="translate(-31.43 172.7) rotate(-66.73)" fill="#fd8204"/><ellipse cx="101.88" cy="135.49" rx="5.56" ry="4.89" transform="translate(-62.83 175.56) rotate(-66.73)" fill="#fd8204"/><path d="M102.13,101.22a5.43,5.43,0,0,1-.23.58A8.32,8.32,0,0,1,100.1,104l0,.06-.44.6a12.71,12.71,0,0,0-.71,1.06l-.15.23-.08.2-.11.31c-.15.44-.28.9-.41,1.35-.24.89-.45,1.79-.73,2.67a3.42,3.42,0,0,1-.54,1l.41.2a5.83,5.83,0,0,0,4.82-10.5Z" fill="#fd8204"/><path d="M122.84,86.2a5.43,5.43,0,0,1-.48.41,8.32,8.32,0,0,1-2.61,1.13l-.06,0-.67.33a12.71,12.71,0,0,0-1.11.61l-.24.14-.16.14-.24.22c-.34.32-.67.67-1,1-.62.68-1.22,1.39-1.88,2a3.42,3.42,0,0,1-1,.67c.08.13.17.25.27.37a5.83,5.83,0,0,0,9.11-7.1Z" fill="#fd8204"/><path d="M179.85,90.74a5.23,5.23,0,1,1-8.72-5.67C175.07,87.08,177.64,87.76,179.85,90.74Z" fill="#fd8204"/><path d="M182.22,154.79a5.23,5.23,0,1,0-.44-10.39C181.5,148.81,180.77,151.36,182.22,154.79Z" fill="#fd8204"/><ellipse cx="170.3" cy="122.26" rx="5.78" ry="5.2" transform="translate(-3.49 239.5) rotate(-69.68)" fill="#fd8204"/><ellipse cx="149.56" cy="120.73" rx="5.2" ry="5.78" transform="translate(-23.12 36.32) rotate(-12.86)" fill="#fd8204"/><ellipse cx="157.82" cy="139.5" rx="5.2" ry="5.78" transform="translate(-27.09 38.63) rotate(-12.86)" fill="#fd8204"/><ellipse cx="170.54" cy="153.2" rx="5.2" ry="5.78" transform="translate(-8.93 10.56) rotate(-3.46)" fill="#fd8204"/><circle cx="137.91" cy="83.05" r="0.76" fill="#692f23"/><circle cx="142.25" cy="82.07" r="0.7" fill="#692f23"/><circle cx="150.69" cy="82.19" r="0.7" fill="#692f23"/><circle cx="154.85" cy="83.35" r="0.7" fill="#692f23"/><circle cx="158.83" cy="80.54" r="0.7" fill="#692f23"/><circle cx="146.9" cy="89.04" r="0.7" fill="#692f23"/><circle cx="142.5" cy="92.59" r="0.7" transform="translate(30.9 220.74) rotate(-81.96)" fill="#692f23"/><circle cx="147.57" cy="97.12" r="0.7" transform="translate(30.78 229.66) rotate(-81.96)" fill="#692f23"/><circle cx="152.59" cy="91.55" r="0.7" transform="translate(40.61 229.84) rotate(-81.96)" fill="#692f23"/><circle cx="152.71" cy="100.48" r="0.7" transform="translate(31.87 237.65) rotate(-81.96)" fill="#692f23"/><circle cx="152.34" cy="108.74" r="0.7" transform="translate(23.38 244.39) rotate(-81.96)" fill="#692f23"/><circle cx="147.94" cy="105.07" r="0.7" transform="translate(23.22 236.87) rotate(-81.96)" fill="#692f23"/><circle cx="146.35" cy="84.52" r="0.76" fill="#692f23"/><circle cx="150.94" cy="171" r="0.83" fill="#692f23"/><circle cx="157.18" cy="165.25" r="0.83" fill="#692f23"/><circle cx="164.52" cy="170.27" r="0.83" fill="#692f23"/><circle cx="170.94" cy="164.52" r="0.83" fill="#692f23"/><circle cx="177.24" cy="168.19" r="0.83" fill="#692f23"/><circle cx="181.64" cy="161.89" r="0.83" fill="#692f23"/><path d="M116.41,135.11c0-.19.67-5.44,2-7.4a7,7,0,0,1,3.73-2.81c.37,0,.8.86,1.9.67s2.14.67,4.28-.73,3.43-1.22,4.77-4,.86-7.4,2.51-7.65,2.69,1.28,2.75,2.69.37,7,.37,7,2.51.61,2.81,2a7.54,7.54,0,0,0,1.59,2.75c.37,1.59,1.1,5.63.06,8a7.11,7.11,0,0,1-5.69,4.59,50.08,50.08,0,0,1-12,.37c-2.51-.43-7.4-1.83-7.71-1.77S116.29,136.46,116.41,135.11Z" fill="#fbdfcb"/><path d="M114.08,86.72s-2,1.33-.75,4.91,2.24,6.51,3.63,8.21a42.64,42.64,0,0,1,4.51,7.3c.36,1.13,3.08,7.44,4.1,8.7A42.11,42.11,0,0,1,129,121c.26.68.94,2.9,1.59,3.13s3.26.49,4.1,0a29.15,29.15,0,0,0,3.29-1.52c.15-.28-.5-6.77-.64-7.63s-2.28-8.64-2.37-9.81-1.77-12.81-1.75-13.08a12.18,12.18,0,0,0,.26-2.37,18.3,18.3,0,0,0-.71-4.36,3.5,3.5,0,0,0-2.94-2c-1.27,0-8.06-1.45-8.72-1.14S117,83.72,116.91,84A10.28,10.28,0,0,1,114.08,86.72Z" fill="#ae693b"/><path d="M116.84,143.36c0,.16.38,8.32.52,10.15s.17,3.82.14,5.12-.38,3,0,4,.64,1.85,1,1.94a2,2,0,0,0,2.32-.62c1.11-1.14,2.7-4.72,3.32-5.5a42.78,42.78,0,0,0,3.37-6.21c.52-1.42,1.42-3.77,1.94-5a37,37,0,0,0,1.19-5c.19-.88,2.09-1.35,3.37-1.42,0,0,4.93,0,5,.81s-.19,10.74-.81,12.85-1.45,4.22-1.85,6-.69,2.58-1,4.27.24,1.35-.81,3.27-2.84,4.74-5.59,5.69-4.81,1.59-6.49,1.42a22.89,22.89,0,0,1-5.5-1.23c-1.26-.55-4.17-4.81-5.31-6.87s-3.2-5.07-3.65-7.44-1.85-8.89-2-10.57,0-2.42.52-2.32,4.86.45,6.45-.38,3.11-1.56,3.22-2.56S116.65,142,116.84,143.36Z" fill="#ae693b"/><path d="M182.36,176.9s-10,2.56-14.72,6.54-5.72,10.6-5.19,15,1.85,8.85,6.33,12.3a21.86,21.86,0,0,0,9.32,4c.18.14,3.77,5.51,6,5.62s4.59.18,7.4-3.13,4.27-8.82,5-11.8a65.81,65.81,0,0,0,.64-13.94c-.32-2-.1-4.78-1.28-7.47s-3.13-2.28-3.13-2.28S183.53,175.69,182.36,176.9Z" fill="#efb000"/><path d="M185.1,173c.06,1.16-1.69,3.48-1.85,4s-.84,2.08.14,2.42,4-.91,4.5-1.45-2.85,6.12-2.58,6.81,1.53,1.28,3.73.36,5.08-4,5.51-4.48a8.79,8.79,0,0,0,1.81-2,23.14,23.14,0,0,0,1.46-6.65,31.58,31.58,0,0,0-1.81-8c-.48-.69-1.83-.5-2-.5s-5.58.5-6.51.14S184.72,166.18,185.1,173Z" fill="#fbdfcb"/><path d="M194.3,187.28l-.14,6.61s-1.07,9-3.2,12.87-3.13,6-5.19,6-4.27-2.67-4.41-5.26-.75-8.32-.36-10.52,1.17-8.07,1.71-9.39a29.14,29.14,0,0,1,2-3.56,2.14,2.14,0,0,0,2.28,1.21c1.6-.28,5.94-1.59,5.78-2.09s.62.1.91.39A20.21,20.21,0,0,1,194.3,187.28Z" fill="#b87f42"/><circle cx="137.33" cy="83.16" r="0.76" fill="#692f23"/><circle cx="141.69" cy="82.11" r="0.76" fill="#692f23"/><circle cx="141.87" cy="92.72" r="0.76" fill="#692f23"/><circle cx="141.84" cy="101.31" r="0.76" fill="#692f23"/><path d="M126.15,43.39c-1.31,0-3.68.21-4.72.89a7,7,0,0,0-2.19,2.83,1.19,1.19,0,0,0,.25,1.05h0a4.26,4.26,0,0,0,.89.83,16.67,16.67,0,0,0,3.36,1.31,15.47,15.47,0,0,0,5.58-.06c1.21-.26,2.8-1,3.12-1s1.13.21,1.36,0,.61-.49.17-1.31a10,10,0,0,0-2.9-3.18A7.08,7.08,0,0,0,126.15,43.39Zm-2,6.14a3.8,3.8,0,0,1-1.22-.2,9.56,9.56,0,0,1-1.87-1.27h0a.84.84,0,0,1-.23-.58.11.11,0,0,0,0-.05c0-.29.46-.95,1-1.57a3.61,3.61,0,0,1,1.3-.92c.46-.2.65-.14.59.05l0,0a3.31,3.31,0,0,0-.52,1.91,3.09,3.09,0,0,0,1.25,2.35S124.48,49.5,124.15,49.53Zm6-.76a2.27,2.27,0,0,0,.6-1.48,3.55,3.55,0,0,0-.46-2.23h0a6.52,6.52,0,0,1,2.26,2.39c.35.75.37,1.16.17,1.25s-.86-.34-1.31-.26a4.25,4.25,0,0,0-1.12.45C130.15,48.9,130.06,48.88,130.1,48.77ZM128.42,47a1.62,1.62,0,0,0-.14-1.05.55.55,0,0,1,.7-.7c.66.21.78,1.13.75,1.64a2,2,0,0,1-1.13,1.87,3.65,3.65,0,0,1-2.84.14,2.34,2.34,0,0,1-1.38-1.56,2.6,2.6,0,0,1,.2-2,.86.86,0,0,1,.39-.31.5.5,0,0,1,.27,0c.38.17.27.34.24.41s.06,1.65.06,1.65a1.71,1.71,0,0,0,1.39.92A1.43,1.43,0,0,0,128.42,47Z" fill="#692f23"/><path d="M151.48,49.45a7.45,7.45,0,0,1,2,.19c.63.16,3.19.66,3.82.83a9.82,9.82,0,0,0,4.07-.2,6.77,6.77,0,0,0,3.5-1.88c.35-.43-.08-.79-.44-1.22A29.13,29.13,0,0,0,162,45a7.41,7.41,0,0,0-2.73-1.1,9.49,9.49,0,0,0-5.91.14c-1.45.65-2.71,3.22-2.81,3.88a2.08,2.08,0,0,0,0,1.07C150.75,49.62,151.46,49.44,151.48,49.45Zm10.24-3.7c.5.35,1.43,1.05,1.89,1.43s.2.69,0,.89a15.41,15.41,0,0,1-2.36,1.24.24.24,0,0,1-.12,0c-.21-.1.37-.49.62-1.63A3.42,3.42,0,0,0,161.72,45.74Zm-5.92,0s.16-.27.38-.28a1,1,0,0,1,.69.21c.17.16,0,.48-.12.88a1.28,1.28,0,0,0,1.09,1.62A1.39,1.39,0,0,0,159.61,47c0-.38.08-1,.56-1s.69.23.59,1a2.37,2.37,0,0,1-1.55,2.1,2.7,2.7,0,0,1-3.32-1.06A2.29,2.29,0,0,1,155.8,45.72ZM151.67,48l.26-.56a6,6,0,0,1,1.65-1.77,5.7,5.7,0,0,1,1.54-.82c-.06.11-.31.34-.4.54a3.48,3.48,0,0,0-.33,1.7,3.09,3.09,0,0,0,1.14,2.32l-.09,0c-.59-.15-2.3-.88-2.89-1a1.25,1.25,0,0,0-.67.07h0C151.51,48.51,151.67,48,151.67,48Z" fill="#692f23"/><path d="M139.22,58.66a7.2,7.2,0,0,0,4.59,1.16,3.24,3.24,0,0,0,2.77-1.35c.55-.65,0-.53,0-.53s-.53.39-3.49.45-4.16-.71-4.16-.71C138,57.15,138.48,58,139.22,58.66Z" fill="#692f23"/><path d="M128.19,64a4.22,4.22,0,0,0-1.9,1.12.41.41,0,0,0,0,.59c1.45.92,1.3-.69,2.16-.63a27.52,27.52,0,0,1,5.3,2,29.25,29.25,0,0,0,9,1.9c3.45,0,6.36-.09,9.19-1.3,3-1.28,6.1-3.38,6.38-3.45a1.54,1.54,0,0,1,1.12.31c.43.29.69.33.92-.29s-.39-1.1-1-1.18-5.77,2.41-6.05,2.49-3.63,1.75-10.62,1.45-11-1.79-11.74-2.12A6.68,6.68,0,0,0,128.19,64Z" fill="#692f23"/><path d="M150.69,70.54a32.43,32.43,0,0,1-7.28.69c-4.3-.16-6.32-.61-6.65-.49s0,.33,0,.33,1,1.65,6.79,1.67S150.86,70.64,150.69,70.54Z" fill="#692f23"/><path d="M125.23,181.85h0l-.13,0a1.58,1.58,0,0,0,.4,0h-.26Z" fill="#692f23"/><path d="M156.66,38.36a19.9,19.9,0,0,1,3.73.66,28.73,28.73,0,0,1,4.16,1.83c.32.18.92.35.46-.11a10.35,10.35,0,0,0-2.86-2.46,8.4,8.4,0,0,0-5.81-.95s-.64.09-.7.49S156.1,38.25,156.66,38.36Z" fill="#692f23"/><path d="M119,40.84c.4-.21,3-.86,3.56-1.05s2.51-.76,3.09-.9.86-.09,1-.18.15-.26-.43-.46a5.51,5.51,0,0,0-3.09-.31,9,9,0,0,0-4.33,2.54s-.57.52-.49.63S118.56,41.05,119,40.84Z" fill="#692f23"/><circle cx="145.68" cy="84.6" r="0.76" fill="#692f23"/><circle cx="150.08" cy="82.34" r="0.76" fill="#692f23"/><circle cx="154.39" cy="83.56" r="0.76" fill="#692f23"/><circle cx="158.26" cy="80.75" r="0.76" fill="#692f23"/><circle cx="146.29" cy="89.22" r="0.76" fill="#692f23"/><circle cx="147.13" cy="97.28" r="0.76" fill="#692f23"/><circle cx="147.13" cy="105.5" r="0.76" fill="#692f23"/><circle cx="152.11" cy="100.73" r="0.76" fill="#692f23"/><circle cx="151.81" cy="108.99" r="0.76" fill="#692f23"/><circle cx="152.01" cy="91.66" r="0.76" fill="#692f23"/><circle cx="137.28" cy="170.66" r="0.84" fill="#692f23"/><circle cx="143.6" cy="165.81" r="0.84" fill="#692f23"/><circle cx="150.57" cy="171.23" r="0.84" fill="#692f23"/><circle cx="156.6" cy="165.49" r="0.84" fill="#692f23"/><circle cx="163.86" cy="170.58" r="0.84" fill="#692f23"/><circle cx="170.39" cy="164.83" r="0.84" fill="#692f23"/><circle cx="176.66" cy="168.42" r="0.84" fill="#692f23"/><circle cx="181.03" cy="162.06" r="0.84" fill="#692f23"/><path d="M206.18,152.72a14.82,14.82,0,0,1-.78-3.7,49.85,49.85,0,0,0,.21-5.4v0a5.3,5.3,0,0,0-2.12-3.15c.11-.43-.89-3.73-2.28-8.89s-3.2-14.15-4.76-18.13A109.87,109.87,0,0,0,189,98.68c-2.24-3.48-10-9.81-11.55-10.82l-.12-.07c-1.16-.73-2.14-1.33-2.54-1.52-1.06-.51-6.48-3-7.17-3.11-.29-.3-.73-.9.49-1a34.66,34.66,0,0,0,9.51-2.51c.25-.12.46-.23.63-.34a50.68,50.68,0,0,0,7.29-4c3.15-2.23,5.14-3.58,6.67-4.49a20.05,20.05,0,0,0,4.71-4.59s2.23-1.77,4.92-7.25,2.26-11.34,2.45-13.18a34.47,34.47,0,0,0-.83-8.71c-.58-2-4.89-9.23-4.89-9.23a55.16,55.16,0,0,0-5.44-7.49c-2.48-2.6-10.43-10.24-13.06-12.2a16.73,16.73,0,0,0-6-2.66l-2.3-.76a44.31,44.31,0,0,1-6.69-2c-1.88-.94-6-2-8.11-1.22-2.08-1.71-5.18-1.47-6-1.43s-2.77.49-3.47.53-4.28.37-7,.29a31.15,31.15,0,0,0-8.72,1.51c-3.18.86-8.52,3.91-8.52,3.91s-7,4.28-10.89,6.81A43,43,0,0,0,102.84,22c-1.26,1.88-4.24,6.85-4.24,6.85a33.2,33.2,0,0,0-2.77,7.54A71.35,71.35,0,0,0,95,48.31a45.89,45.89,0,0,0,1.7,9.17,69.74,69.74,0,0,0,2.6,7.1,20,20,0,0,0,3.2,4.31c1.59,1.39,4.24,4.89,5.3,5.71s4.81,3.79,5.67,4.32,3.1,1.1,3.55,1.39a32,32,0,0,0,3.38,1.77,7.68,7.68,0,0,1,.82-.15,5.61,5.61,0,0,1-.82.15,6.79,6.79,0,0,0-2.48.69,4,4,0,0,0-2.09,1.61,1.62,1.62,0,0,1-.81.9,8.46,8.46,0,0,0-1.47.24c-2.3.76-2.54,2.75-3.06,5.12a49.48,49.48,0,0,0-.78,5.26c-.94.8-1.84,1.55-2.21,1.84-.83.64-3.52,2-4.56,3s-3.55,3.49-4.43,5.29-2.08,3.3-2.32,4.16a32.12,32.12,0,0,0-1.07,4.34c0,.86-.89,4.37-1.16,5.9a28.12,28.12,0,0,0-.34,5.35,9.51,9.51,0,0,0,1,4.43,19.31,19.31,0,0,1,1.56,3.91c.31.92.8,4.49,1.07,5.78s.86,2.39,2.81,3.88a6.41,6.41,0,0,0,3.76,1.44,6.36,6.36,0,0,0,1.14,1.33,45,45,0,0,0,.37,5c.28,1.42,1,6,2.42,8.87s3.65,7.66,4.22,8.25c0,0,1.23,3.25,3.37,4.74a13.23,13.23,0,0,0,5.59,2.11,40,40,0,0,1,1,4.58c.53,3,1.14,4,1.26,4h0c.35.76,1,2.16,1,2.38s-.24,8.19.37,10.7.8,5.75,1,6.85,1.65,7.71,4.59,9.72l.33.22a29.87,29.87,0,0,0,1.26,7.12c1.22,3.79,2.2,7.22,1.71,8s-5.5-2.14-10-2.2-8.56.73-10.7,3.73-3,7.22-1.35,10.46,5.26,5.08,14.19,4.65c0,0,3.3-.43,5-.8s5.08-1.41,7.64-1.83,7.34-.73,8.75-1l1.41-.31a9.08,9.08,0,0,0,2.39,6.05c2.57,2.87,8.5,2.08,9.48,2s7,.06,9.66-.18,6.3-1.1,8-2.45,3.24-3,3-6-.18-4.28-2.94-6.67c0,0-1.83-1.28-2.57-1.71s-1.65-1.83-2.39-2.26a9.94,9.94,0,0,0-2.75-1.1c-.61-.06-.37-1.22.12-1.53s1.16-2.39,1.65-4.46.31-5.2.67-6.42a4.73,4.73,0,0,1,.91-2.2h0c.14-.09.32-.18.55-.3,2.39.9,4.81,1.79,4.81,1.79.53,1.24,2.24,4.3,4.05,4.62s5.08.36,8.53-3,4.73-10.24,5.4-14.08a58.33,58.33,0,0,0,.28-15.29c-.56-5.77-2.34-7.14-2.6-7.31.33-.36.65-.75,1-1.16,1.74-2.28,2.06-4.52,2.42-8.32.33-3.57-1.46-8-1.68-8.48a8.17,8.17,0,0,0,1.9-.69c.64-.43.75-.71.71-1.64s-.36-1.42,0-1.78,6.12-2.45,6.9-3.84S206.43,154,206.18,152.72Zm-38.53-68.1h0l.37.22c.9.51,5.1,2.06,6.42,2.85.72.43,1.66,1.12,2.58,1.77a49.63,49.63,0,0,1,9.87,9.86c4.09,5.69,8,14.83,9.74,21.26s1.28,7.5,1.42,8.18,2,2.17,2.77,6,1.28,5.94-.28,7-6,2.42-9.1,2.84-7.3-1.39-7.83-1.44c-.33-1.75-1.09-9.87-1.18-12.4-.26-7.47-2.87-10.58-1.56-13.39.07-.15.9-2.18,1-2.35.36-1.35.71-2.58-.17-1.72-.71,1.38-1.47,2.84-1.68,3.28a6.42,6.42,0,0,0-.57,1.3c0,.12-.37.29-.9-3s.08-4.85-.49-7.26-1.83-7.09-2-5.14c0,0,.61,4.2.86,6.6s.37,6.93.69,8.11,2.19,6,2.52,7.22a46.36,46.36,0,0,1,.83,8c.08,3.3.61,5.5.9,9,0,.55.09,1.27.14,2.1-.62.77-1.58,1.19-1.37,2.44a15,15,0,0,1,.57,3.84c-.14,1.14-.92,2-.57,3.34a8.67,8.67,0,0,0,1.61,3.55,6.2,6.2,0,0,1-1.35,1.18s-5.56,1.82-8.23,2.32a164.58,164.58,0,0,1-19.46,1.67h0s-9.5,0-12.56-.24c-1-.07-2.28-.19-3.58-.33a6.73,6.73,0,0,1,.29-3,34,34,0,0,0,1.94-7.16c.19-2,.07-5.74.09-6.16a32.82,32.82,0,0,0,.06-4.68,6.84,6.84,0,0,0,1.69-.79,6.75,6.75,0,0,0,2.39-3.09,5.77,5.77,0,0,0,.61-3.42c0-1-.37-1.74-.4-2.54a9.68,9.68,0,0,0,0-2.81,3.61,3.61,0,0,0-1.07-1.53,2.33,2.33,0,0,0-.61-2.14,4.32,4.32,0,0,0-2.45-1.28c-.24-.1-.43-.12-.55-.26-.67-.52-.65-5.65-.73-7.09-.05-.91-.38-1.25-.65-1.42-.08-.32-.68-2.78-.77-2.86a35.34,35.34,0,0,0-.9-4.27c-.28-.7-.51-4.8-.85-7.82-.29-2.58-1.11-5.44-1.25-6.26,0-.07,0-.13,0-.19v0h0v0a15.88,15.88,0,0,0-.28-5.65A5.82,5.82,0,0,0,132.37,84l.22-.05a1.5,1.5,0,0,1,1.48.43,7.68,7.68,0,0,0,1.87,1.18,2.68,2.68,0,0,0,.85.2h0a4.51,4.51,0,0,1,2.08,3,72.89,72.89,0,0,1,.51,8.76h0a71.3,71.3,0,0,0,1.31,10.3c.52,1.76,1.12,1.8,1.12,1.8h0a17.05,17.05,0,0,0,3.87,1.68c2.86.92,2.8.67,4.1.66a7.41,7.41,0,0,0,3.12-.86v0a3.65,3.65,0,0,0,1.22-.69,2.2,2.2,0,0,0,.52-1.44l-.21-13s.18-6.76,1.16-8.38a7.51,7.51,0,0,1,1.89-2.26l.7-.33h0a5.66,5.66,0,0,0,1.13-.67,10.56,10.56,0,0,1,2.56-.9A9.75,9.75,0,0,1,167.65,84.63Zm14.76,76.89c.37,1.39,1.26,4,.73,5.54s-.33,1.56-1.47,2c0,0-1.28-3-2.34-5.36a9.92,9.92,0,0,0-2.14-3.23,25.13,25.13,0,0,0,3.93-1.4v0a2.89,2.89,0,0,0,1.1-.48C182.45,158.3,182,160.13,182.41,161.52Zm-1,10.75c.37,0,1.33-.1,1.84-.19a1.88,1.88,0,0,0,.84-.3c.45,1-.1,3.14-.71,4.13,0,0-1.26.16-2.89.48,0-.74,0-1.22,0-1.22l.12-2.81a7.26,7.26,0,0,0,.83-.06ZM163,204.92c2,5,4.84,7,7.3,8.1a16.11,16.11,0,0,1-2.64,1.73,1.92,1.92,0,0,0-.3.18,9.37,9.37,0,0,1-4.66,1.11c-3-.06-4.22-.06-5.26-4.22a15.28,15.28,0,0,1-.37-2.32v-.07a5.72,5.72,0,0,0-.12,3.19,11.5,11.5,0,0,0,1.1,3c.31.37-2-.18-3.06-1.41s-2.39-3.91-3.49-11.37-3.77-23.34-4-24.48a1.15,1.15,0,0,0-.12-.32,1.9,1.9,0,0,1,.24-1.88c.77-.77,1.79-.82,4.36-.57s8.68.65,11.82,0,11.7-2.65,13.13-2.73,1.63.9,1.79,2.41l0,1.49c-.42.1-.84.22-1.26.34a34.54,34.54,0,0,0-9.6,4.91c-2.31,1.85-5.23,5.87-5.83,8.39A23.61,23.61,0,0,0,163,204.92Zm1.32,28.21a4,4,0,0,1,1.73-.38,13.58,13.58,0,0,1,3.07.17c.86.29,1.82,2.77,1.77,2.89a52.23,52.23,0,0,1-6.25.17A1.29,1.29,0,0,1,164,235C163.85,234.34,163.74,233.51,164.34,233.13Zm-.55-1.13a.85.85,0,0,1-.24-1,.77.77,0,0,1,.31-.23c1,0,1.91-.07,2.79-.08a1.45,1.45,0,0,1,.52.19c.4.23.72.86.64,1s-1.3,0-2,.08A8.43,8.43,0,0,1,163.79,232Zm4.49-3.79a4.81,4.81,0,0,1-2.87,1.35c-1.16.18-4.65.37-5.93.55a32.74,32.74,0,0,1-5.44.49c-1.28-.12-1.9-2.2-2-3-.06-.4-.14-1.45-.21-2.6l0,.09c1.71,1.9,4.34,2.45,8.38,2.75a36.81,36.81,0,0,0,8.8-.71A3.75,3.75,0,0,1,168.28,228.2Zm-16.05,9.16c.06-.44.81-.83,1.33-1s1.36-.67,1.44-.69a8.42,8.42,0,0,0-.6,2.17,5.56,5.56,0,0,1-1.79.15h0A.58.58,0,0,1,152.23,237.36Zm2.4-3.07a11.1,11.1,0,0,0-2.81,1.66,2.83,2.83,0,0,1,.07-1.39,4.09,4.09,0,0,1,.67-1,9.4,9.4,0,0,1,1.28-1.16,8.23,8.23,0,0,1,.85-.39,2.9,2.9,0,0,1,1.41,0s.08,0-.06.34a7.4,7.4,0,0,0-.34,1.25C155.68,233.91,154.92,234.15,154.63,234.29Zm2.48.73c1.09-1,2.11-1.36,4.71-1.7a8.8,8.8,0,0,0,.64,2.79c.08.17-.11.24-.83.4s-4.66.92-5.6,1A3.49,3.49,0,0,1,157.11,235Zm.41-2.57a5.92,5.92,0,0,1,4.63-1.33h0a3.93,3.93,0,0,0-.29,1,13.72,13.72,0,0,0-4.3.91S157,233.08,157.52,232.46Zm-5.8-9.16c0-.57-.05-1.09-.07-1.51s0-1.09,0-1.7c.93.9,4.11,2.21,7.3,2.44a62.4,62.4,0,0,0,7.89-.12C160.94,225.09,153.35,223.73,151.71,223.3Zm0-5.7a10.28,10.28,0,0,1,.2-1.32c.28-1.19.41-1.91,1.21-2.1a6.68,6.68,0,0,0,2,1.49,21.11,21.11,0,0,0,9.72,1.71,17.26,17.26,0,0,0,5.14-1.16,25.42,25.42,0,0,1-12,2.81C153.48,219,152.15,218.1,151.75,217.59Zm-9.08-45a16.66,16.66,0,0,1-.95-2.19c-.19-.49-1.85-6.1-2.65-7.39l1.3.14c.44,0,4.39,0,7.71-.08a62.87,62.87,0,0,1-2,6.71,6,6,0,0,1-2.54,3.31l0,0A10.12,10.12,0,0,1,142.67,172.55Zm-29.75-25.12a5.66,5.66,0,0,0,1.18-.23c0,.19,0,.46,0,.74s0,.71,0,1.38c0,.12-.13.24-.38.06a21.25,21.25,0,0,1-1.63-1.89Zm-.37-5c.58-.86,2-.7,2.52-.61-.07.17-1.22,2.79-1.28,3.23s-.59,1.09-.94.87A2.56,2.56,0,0,1,112.55,142.45Zm.16,7.81a5.22,5.22,0,0,1,1.21.92,2.47,2.47,0,0,1,.24.42c0,.51,0,.94,0,1.19s0,.19-.17.17a3.2,3.2,0,0,1-1.47-1.45C112.33,150.82,112.5,150.12,112.71,150.26Zm.85,4.33a3.76,3.76,0,0,0,.89.63h0l.07.64-.21-.12c-.37-.2-1.31-.82-1.42-1.3S113.21,154.22,113.56,154.58Zm0,2.61c0-.36.16-.23.51.12a1.06,1.06,0,0,0,.72.29c.06.4.11.75.16,1s.06.31.1.47a3.68,3.68,0,0,1-.65-.33A1.9,1.9,0,0,1,113.52,157.19Zm.38,2.57c.12-.17.35,0,.63.11a4.23,4.23,0,0,0,.79.42c.26.9.52,1.65.52,1.65a1.32,1.32,0,0,1,0,.15,2.18,2.18,0,0,1-1.21-.51A1.67,1.67,0,0,1,113.9,159.76Zm1.31-13.41a3.57,3.57,0,0,0,.87-1.71c0-.22.07,0,.1.43,0,.88-.71,2-1,1.94s0-.65,0-.65Zm1.11,1.81c0,.44,0,.87,0,1.27-.2.75-.61,1-.76,1s-.3-.52-.14-1.08S116.17,148.5,116.33,148.16Zm-.61,5.44c-.2.05-.18-.25-.18-.59s.14-.35.46-.71a2.41,2.41,0,0,0,.42-.76l.06,1.06A1.92,1.92,0,0,1,115.72,153.6ZM116,155c.08-.42.41-.55.54-.75.12,2,.26,4.44.31,5l.05.65C115.91,158.79,115.94,155.48,116,155Zm0-24.19a18.31,18.31,0,0,0-.37,6.39,24.4,24.4,0,0,0,.83,3.33c.18.26-.46,0-.66-.06a.08.08,0,0,0-.06,0c-.37,0-2.11.06-2.78.12a2.84,2.84,0,0,1-2.51-.8c-.86-.89-.89-2.2-.86-4.56a26.34,26.34,0,0,1,1.83-8.75,4.89,4.89,0,0,1,3.33-2.75l0-.07c.76,0,4,0,4.77.18a2.6,2.6,0,0,1,1.53.76c.09.18-.86.06-2.14,1.07S116.54,129.26,116.09,130.79Zm-7.61,25.44v0a7.67,7.67,0,0,0-.66-1.38c-.14-.25,0-.46.37-.23a2.39,2.39,0,0,0,.73.31c0,.26.3,1.64.42,2.59C108.93,157.46,108.47,156.23,108.47,156.23Zm.81-8.42a10.23,10.23,0,0,0,1.13-.13l.51-.07h0c0,.42.15,1.13.17,1.61,0,.31-.12.35-.22.33l-.09,0C110.32,149.43,109.44,148.06,109.28,147.81Zm.73,2.95a11.14,11.14,0,0,0,1.27.13c.49.4.61,1.52.24,1.54s-1.34-1.34-1.63-1.68Zm5.2-28.09,0-.06,1.75-.73c.3.23,1.12.91,1.12.91Zm2,9.75a15.4,15.4,0,0,1,2.23-5.32,4,4,0,0,1,2.36-1.37,7.32,7.32,0,0,0,4.32.66,5.64,5.64,0,0,0,1.92-.47c.91-.43,1.64-1.93,1.94-1.87a8.5,8.5,0,0,0,2.51.85,2.78,2.78,0,0,0,.46,0h0a5.09,5.09,0,0,0,1.63-.52l.22-.08a8.23,8.23,0,0,1,3.09-.73,4,4,0,0,1,3,1.53c.37.67-.06,1.53-.95,2.08a11.71,11.71,0,0,1-3.61.76c-.28,0-.49.28.06.49a2.67,2.67,0,0,0,1.8.15,8.05,8.05,0,0,0,3.27-1.16c.49-.49,1,.31,1.13.83a2,2,0,0,1-.7,2.45,13.88,13.88,0,0,1-3.49,1.07c-.64.12-1.31.4-1.38.58s.21.34.8.43,2.32-.43,3.21-.49a10.34,10.34,0,0,0,1.77-.31,4.16,4.16,0,0,1-.21,2.23c-.46.89-.4,1.13-1,1.25s-3.64.49-4.1.7-.83.43-.67.67.86.06,1.47.06,3-.49,3.21-.31.12.7-.58,1.25-.31,1.13-4.83,2a27,27,0,0,1-8.32.34c-1.16,0-4.46-1.53-6-1.77s-4.16-.89-4.49-.67S116.91,134.27,117.22,132.41Zm3.18-24.76a49.34,49.34,0,0,0,1.9,4.66c.62,1.08,4.3,6.77,4.91,7.68A24.61,24.61,0,0,1,129,122.4c0,.23-.23.55-1,1.42a4.94,4.94,0,0,1-1.87,1.26l-.39.1h0a3,3,0,0,1-1.83-.1c-.83-.34-.92-.95-1-1.62a6.47,6.47,0,0,0-.67-2.84,5.18,5.18,0,0,0-2.17-1.77C120.49,116.36,120.39,110,120.39,107.65Zm-.52-5.58c-.21-.95.66-2.39.71-4,0-.08,0-.17,0-.26,0-.35.28-.26.28-.26.28.27.41,3.52.5,4.79a4.93,4.93,0,0,1-.21,2.54c-.16.11-.55-.69-.77-1.19,0-.24-.08-.38-.15-.38A9.46,9.46,0,0,1,119.88,102.07ZM109.16,35.26l.06-.07a5.19,5.19,0,0,0,1,1.62,8.28,8.28,0,0,0-3.59,4c-.65,1.92-.45,4.53-.65,4.73s-.17,0-.28,0a8.67,8.67,0,0,1-.86-2c-.69-2-1.14-8.44.49-13a37.31,37.31,0,0,1,4.44-8.4c-.61,1.3-1.22,5.54-1.35,8.32A11.59,11.59,0,0,0,109.16,35.26ZM106,48.81a3,3,0,0,1,2.49-1.61c-1.3-1.79-.82-6.2-.82-6.2a3.23,3.23,0,0,1,.94-2.12c.9-.77,3.22-1.43,5.06-1.79s12-2.45,13.25-2.65,2-.45,2.24-.45a13.57,13.57,0,0,0,6,.61s.33,0,.24-1.22,1.43-8.19,2.57-9.54a25.79,25.79,0,0,0,1.59,5.5c.53,1,1.26,6,1.47,6.48s.41.53,1.79,0a72.33,72.33,0,0,1,7.62-1.63c.82-.12,4.57-.86,7.46-.16a45,45,0,0,0,8.64,1.22,9.23,9.23,0,0,0,4-.53c.2,0,.49,1,1.22,1.71A12.52,12.52,0,0,0,173.9,38a13,13,0,0,1,1.76,1.71c.89,1,1.07,2.57,1.59,4.49a3.92,3.92,0,0,0,3.18,2.72c.92.18,1.19-.4,1.77-.61s1.13-.28,2.94.34a3.63,3.63,0,0,1,2.14,2.72s.76,4.19-2.6,6.3l-.06.11,0,0a7.64,7.64,0,0,1-2.78,1.53c-.7,3-2.51,5.32-5.6,8.87a43,43,0,0,1-7.4,6.48,44.91,44.91,0,0,1-5.2,2.85v0l-.21.13h0l-.27.16c-2.85,1.6-7.37,2.75-9.51,3.37a41.57,41.57,0,0,1-16.08-.06c-5.89-1.39-8.71-2.54-13.21-5.76a38.49,38.49,0,0,1-9.42-9.56,35.32,35.32,0,0,1-3.31-5.62s-.37-1.55-.65-1.71a17.77,17.77,0,0,1-2.75-1.49,14.51,14.51,0,0,1-2.26-3.85A3.92,3.92,0,0,1,106,48.81Zm79.9-5.62a17.3,17.3,0,0,1-5.2-3.49s4-.06,5.87,1.8,2.69,3.46,2.69,5.75c0,1.43-.2,1.81-.35,1.9h-.12c-.34-2.48-2-4-3.56-4.11s-4.56.67-5.32,0c-1.64-1.51-1.31-2.69-2.32-4.53a19.86,19.86,0,0,0-2.34-2.85L177,38.81a8.51,8.51,0,0,1,1.68,1,15.65,15.65,0,0,0,3.39,2.54A7,7,0,0,0,185.87,43.19Zm-48,37.41c.92.6,2.64,4.2,3,5l-.16,0a33.24,33.24,0,0,1-3.29-.9A5.3,5.3,0,0,1,134.93,83l-.11-.13Zm-3.56,1.22a4.17,4.17,0,0,1-.09-1.95c.53.11,1.24.23,2.05.35ZM152,96.76c-.73.79-4.47,3.66-4.8,3.92a27.28,27.28,0,0,1-5.1-3.4l4.39-3.62.29.13a29.82,29.82,0,0,0,6,1.94A6,6,0,0,1,152,96.76Zm1.35,0,.12,3.39-.07,2.72a28.28,28.28,0,0,1-4.85-1.34Zm-6.78-5c-2.46-1.41-4.52-2.79-5.82-4.74,0,0-.1-.22,0-.33.42.06,2,.24,3.3.41a23.83,23.83,0,0,0,5.21.08c.71-.13,2.07-.23,3.22-.33-.67.48-2.68,1.95-3.11,2.38S147.66,90.8,146.53,91.81Zm2.54-8.54c-.18-.25-1.42-1.54-1.8-1.93,1.16,0,3.15-.11,5.17-.39-.11.25-.39.92-.54,1.24s-1.73,2.63-1.73,2.63C150,84.49,149.29,83.55,149.07,83.26Zm0,2.43c-1,.09-2.26.19-3.21.18-1.14,0-2.4,0-3.63-.09.62-.79,3.16-4.33,3.16-4.33C146.31,82,148.74,85.22,149.09,85.69Zm-7.37-1.22c-.28-.6-1.94-3.2-2.34-3.82,1.6.2,3.27.38,4.67.51C143.68,81.82,141.72,84.47,141.72,84.47ZM140,88.72c0-.34.06-.58.06-.58A15.43,15.43,0,0,0,145.21,93c-1.06.94-3.58,2.8-4.43,3.42a13.21,13.21,0,0,0,0-2.09C140.56,93.28,140,89.06,140,88.72Zm.66,9.39c.92.73,4.19,3.19,4.75,3.52.05,0,.14,0-1,.66-.59.27-2.94,1.36-3.23,1.51-.23-1.64-.46-5.12-.5-5.68Zm2.68,8.29c-.32-.29-1.82-1.43-1.67-1.53s2.39-1,3.53-1.52a15.6,15.6,0,0,0,1.82-.91l0,0a21.42,21.42,0,0,0,5.29,2,19.09,19.09,0,0,1-2.66,2.81A10.19,10.19,0,0,1,147,109C146.7,108.86,145.68,108.49,143.38,106.4Zm2.64,3.66c-.15,0-1.56-.5-1.65-.55l-.06,0a5.16,5.16,0,0,1-2-1.47,6,6,0,0,1-.65-1.77,35.69,35.69,0,0,0,4.57,3.48C147.06,110.36,146.17,110.1,146,110.07Zm1.44,0c.35-.12,2.15-1.3,2.66-1.63,0,0,3.24-3.22,3.24-3.22.1.78.37,3.23-.19,4.13a4.41,4.41,0,0,1-2.42,1.36,9.34,9.34,0,0,1-3-.24C147.33,110.4,147.06,110.25,147.45,110.11Zm6-15.64a11.43,11.43,0,0,1-5.26-1.71l-.41-.23.65-.54,5.66-4.64A42.57,42.57,0,0,0,153.49,94.47ZM151,85.54a4.49,4.49,0,0,0,.72-.82,31.34,31.34,0,0,0,1.94-3.55c.11-.35.31-.35.31-.35.55,0,3.53,2.74,3.53,2.74a13.2,13.2,0,0,1-1.83,1A26.4,26.4,0,0,1,151,85.54Zm4.65-5.28.26-.09c1.32-.45,2.52-.88,3.45-1.22l.28,2.06c.12.9,0,1.09-.18,1.27a12.1,12.1,0,0,1-1,.83l-.35-.57A7.54,7.54,0,0,0,155.63,80.26ZM109.11,57.48,110.26,59s1.57,2.49,4.51,6.54a60.28,60.28,0,0,0,9.39,9.52,43.44,43.44,0,0,0,6.73,3.6h0l.44.19a2,2,0,0,1,.76,1.05,12.31,12.31,0,0,1,.66,2.54c0,.32-.67.55-.67.55l-1,0c-.78-.32-4-.63-4.86-.83a10.09,10.09,0,0,1-1.82-1.05c-2.2-1.59-8.89-8.52-11.37-12.84a65.34,65.34,0,0,1-4.4-10C108.5,57.85,108,55.93,109.11,57.48Zm25.51,62.32c-.24-.14-1.45-7.18-1.85-8.41s-1-5.43-1.68-5.74a.43.43,0,0,0-.16,0l0-.32c.33-.09.4-.49.59-.69s.37.17.76,1.73,1.65,4.63,1.87,7.94S134.86,119.94,134.62,119.8Zm.09-12.23c.33-.36.43.14.43.14s.41,3.27.36,3.6-.15.25-.24.25a7.67,7.67,0,0,1-.66-2l-.29-1C134.22,108,134.38,107.92,134.71,107.57Zm-3.15,11.24a15.83,15.83,0,0,1,1.28,3.37c.19,1.22-.43,1.85-1,1.71a.92.92,0,0,1-.39-.25,6.54,6.54,0,0,1-.09-2C131.56,121.1,131,118.85,131.56,118.8Zm1.28-.69,0,0c-.3-.53-.63-1.09-.91-1.54a2.18,2.18,0,0,1,0-.65c.07-.36.21-2.11.26-2.54s.52,1.6.62,2.75A6.07,6.07,0,0,1,132.84,118.11Zm-1.71-3a.4.4,0,0,1-.29-.09,10.55,10.55,0,0,1-1.39-2c-.07-.43-.47-1,0-1.37,0,0,.57,0,.76-1.09.14-.84.2-1.88.28-2.54h0s0-.75.36-.28.43,1.15.4,3.65S131.31,115.13,131.13,115.15Zm-5.9-17c-.09-.78-.12-1.33.38-.47a13.66,13.66,0,0,1,.95,2.42,20.07,20.07,0,0,1,0,4.27c-.28.95-.38.73-.81.28v0c-.54-.89-1.1-2.28-1.1-2.16s-.45-.5,0-1.14A6.44,6.44,0,0,0,125.23,98.18Zm0,10.86a14.49,14.49,0,0,1,0-2.23s0-1.37.81.38.66,6.54.71,7.44a2.15,2.15,0,0,1-.32,1.27c-.58-.84-1.3-2.1-1.94-3.27A14.22,14.22,0,0,0,125.19,109Zm.14-14.41a3,3,0,0,0,1.09-2.18c.12-1.52,0-3.32.66-1.33s.95,2.32.95,4.22-.09,3.79-.71,3.22A30.35,30.35,0,0,0,125.33,94.62Zm.78-10.29a2.7,2.7,0,0,1,1.75,2.3c.23,1.55,0,2.17-.09,2.13s-.13-.18-.31-.47c-.65-1.44-1.9-3.49-1.9-3.49l-.07-.36C125.48,84.35,125.47,84,126.11,84.34ZM127.75,105a5.34,5.34,0,0,0,.24-2.13c-.17-.57,0-1.75.62.14s.66,6.45.28,6.54-.08.4-.51-.22c-.25-.59-.8-1.91-1.31-2.88A4.08,4.08,0,0,0,127.75,105Zm1.83-15.69c-.06-.47-.26-1.08.17-.57s.49,2.32.5,3.63,0,1.91-.19,1.92-.19,0-.32-.27l-.89-2a1.47,1.47,0,0,1,0-.74,2.32,2.32,0,0,1,.38-.57A2,2,0,0,0,129.57,89.31Zm-.36,8s.4-.14.66.76a19.61,19.61,0,0,1,.52,3.89c0,1.73-.1,1.64-.32,1.38a21.35,21.35,0,0,0-1.15-2.28,2.18,2.18,0,0,1-.38-1.56A14.1,14.1,0,0,1,129.21,97.33Zm-1,17c0-.81.21-.76.62.19a32.45,32.45,0,0,1,1.47,4.93c.17,1.08-.3.68-.48.95a34.85,34.85,0,0,0-2.4-3.3A11.74,11.74,0,0,0,128.17,114.3Zm2.36-18.44a1.77,1.77,0,0,0,.88-1.28c.14-.95.08-1.88.24-1.94s.51.66.31,3.44-.27,3.27-.4,3.2-.66-2.44-.88-3.2A.46.46,0,0,0,130.53,95.86Zm3.3,9.64c-.07.62-.24.52-.24.52l0,.12c-.2-.67-.4-1.31-.57-1.8a23.63,23.63,0,0,1-.69-2.35s0-.08.43-.43a1.31,1.31,0,0,0,.32-.38C134.44,101,133.91,104.89,133.84,105.5Zm-.59-14.73c-.77-1.59-2-3.85-2.33-4.33-.38-.65-1.19-2.79.43-1.14a6.38,6.38,0,0,1,1.74,2.92,1.38,1.38,0,0,0,0,.21C133.16,88.54,133.74,90.4,133.25,90.78ZM122.67,88.7c.95-.57.9-2.2.95-2.8s-.09-1.66.52-1.14l.17.12a3.21,3.21,0,0,1,.73,1.26c-.26.24.16,1.44.07,3a8.93,8.93,0,0,1-.69,3c-.14.19-.24.69-1.14-.57s-1.19-1.75-1.19-1.75S121.72,89.27,122.67,88.7Zm1,21.9a.22.22,0,0,1-.32,0,16.33,16.33,0,0,1-1.13-3.28,3.07,3.07,0,0,1,0-1.56c.18-.58.45-3.08.45-3.08l.1-.42a8,8,0,0,1,1.28,3.81A16.91,16.91,0,0,1,123.72,110.6Zm-1.33-16.07c-.09-1-.55-3.46.81-1,0,0,.38,4.76.47,5.4s-.26.9-.71.39c-.31-.79-.79-1.85-.92-2.12s0-.31-.08-.54h0A4.65,4.65,0,0,0,122.39,94.53Zm14.31,27.81c-.06.14-.17.3-.38.19s-.07-1.24.34-1.53A8.07,8.07,0,0,1,136.7,122.34Zm0-5.21c-.18.28-.39.57-.52.58s-.69-1.16-.52-2.13.64-1.85.76-1.75a5.52,5.52,0,0,1,.28,1.68h0c0,.07,0,.13,0,.19S136.73,116.46,136.73,117.13ZM133,168.31c-.21,0-.54-.06-.48-.62a3.53,3.53,0,0,1,1.53-1.71.17.17,0,0,1,.09.18,12.91,12.91,0,0,1-.66,2A.49.49,0,0,1,133,168.31Zm.44-.1a2.49,2.49,0,0,1-.15.26Zm-14.92-26.26a.77.77,0,0,0,.8-.15c.37-.34.31-1.59.24-1.74a13,13,0,0,1,4.31.49,22.85,22.85,0,0,0,3.95.53v.06a2.18,2.18,0,0,1,1.94,1.47c.4,1.4-1.11,5-1.9,7s-4.3,9.86-5.74,10.8a7.68,7.68,0,0,1-2.28-.4c-1.59-.73-1.47-3.47-1.63-4.77a3.54,3.54,0,0,0-.12-.53c0-1.38-.09-4.37,0-5.35.06-1.28.43-3.3.46-3.94S118.53,141.95,118.53,141.95Zm12,4.5a2.45,2.45,0,0,0,0-.68c.18,0,.36-.26.67-.58s.66-1.14.78-1.12.21.74,0,1.44a2.75,2.75,0,0,1-1.35,1.37C130.42,146.89,130.53,146.5,130.5,146.45Zm3.17-3.57a.79.79,0,0,1,.71-.9c.81-.09,1.75-.43.95,1.14a7.39,7.39,0,0,1-2.19,2.92c-.09,0,.07-.37.32-.91A7.49,7.49,0,0,0,133.67,142.88Zm.81,3.41c.45-.43.69-.36.28.38a26.37,26.37,0,0,1-2,2.56l0,0c-.13.14-.28.3-.37.3s-.11-.42,0-.71a15,15,0,0,0,.25-1.66A7.25,7.25,0,0,0,134.48,146.3Zm-3,6.35c-.14-.13.75-.86,1-1S134,150,134.18,150s.16.15.17.24a3.46,3.46,0,0,1-.35,2C133.41,153.1,131.44,152.65,131.44,152.65Zm1.92,1.65a6.7,6.7,0,0,0-.5.72,5.45,5.45,0,0,1-1.87,1.21c-.07,0-.44.13-.57,0s.47-1.38.64-1.57a.68.68,0,0,1,.3-.18c.84-.16,2-.56,2.12-.56S133.59,154,133.36,154.3Zm-1.16-11.64a5.61,5.61,0,0,1-1.06,1.13c-.19,0-.18-.15-.18-.17.05-.23,0-1,.29-1.26s1.14-.76,1.23-.28A1,1,0,0,1,132.2,142.66Zm-1.68,5.74c.53-.45,1.23-1.25,1.28-1.12a6.65,6.65,0,0,1-1,2.7,4.32,4.32,0,0,1-2.12,1.82c-.21,0-.19-.27-.21-.36.4-.84.82-1.75,1.13-2.5A3.14,3.14,0,0,0,130.52,148.4Zm-3,7a2.54,2.54,0,0,1-1,.17c.43-.77.87-1.56,1.2-2.21a3.61,3.61,0,0,0,1.41-.24c.64-.28,1.16-1,1.24-.92a3,3,0,0,1-.58,1.69A5,5,0,0,1,127.47,155.35Zm.12,3.3a3.34,3.34,0,0,1-2.75,1,1.39,1.39,0,0,1-.62-.33L125,158l.49-.83a3.5,3.5,0,0,0,1.43-.06,6.14,6.14,0,0,0,1.64-.79C128.66,156.31,128.79,157.57,127.59,158.65Zm-9.11,3.85c.57-.77.45-1.26,3.14-1.26H122c-.45.63-1.88,3.21-2.66,2.93a1.83,1.83,0,0,1-1-1.22A1.17,1.17,0,0,1,118.48,162.5Zm3.36.69c.86-1.23,1.59-2.43,1.59-2.43l.13-.24a3.78,3.78,0,0,0,.91.32,3.53,3.53,0,0,0,1.8-.17c.32-.1.45-.12.38,0a18.73,18.73,0,0,1-2.44,3.18,2.69,2.69,0,0,1-2.31-.05C121.71,163.68,121.79,163.33,121.84,163.19Zm2.53,2.36h0a18.55,18.55,0,0,1,2-2.42h0a4.4,4.4,0,0,0,2.14-.42c.9-.45,1.3-.59.76.24s-.57,1.9-2.65,2.7l-2.42.47C124.14,166,124.21,165.82,124.37,165.55Zm4.56-4.37a9.47,9.47,0,0,1-1,.43h0a.54.54,0,0,1-.46-.14c-.17-.23,1.22-2.63,1.35-2.89l.14-.19.37-.41a1,1,0,0,1,.63-.36,5.26,5.26,0,0,0,1.94-.24c.57-.24.31.12-.19.81A7.28,7.28,0,0,1,128.93,161.18Zm1.37,3.62h0c.36-.45.68-.83.93-1.12a12.41,12.41,0,0,0,2,.28c.23,0,.22.17.24.22a1.07,1.07,0,0,1-.38.91,4.5,4.5,0,0,1-2,.48c-.55,0-.84-.11-.88-.29S130.31,164.8,130.31,164.8Zm3.84-2.24c-.75.58-1.71,0-2.12,0a18.24,18.24,0,0,0,1-2.47,9.52,9.52,0,0,0,2.54-.7S135,161.92,134.15,162.56Zm-.52-3.79a.63.63,0,0,0-.22.09c.44-1.46.74-2.76.84-3.17a4,4,0,0,0,2.37-.28c.69-.36.19,1.59-.66,2.18A8.74,8.74,0,0,1,133.62,158.77Zm2.89-5.5a5.27,5.27,0,0,1-1.73,1.08c-.06,0-.13,0-.09-.2a8.43,8.43,0,0,0,.44-1.87h0a.68.68,0,0,1,.66-.7,7.46,7.46,0,0,0,1.9-.9C138.1,150.49,137.75,152.32,136.52,153.27Zm.66-3.65s-1.16,1.28-1.52.95c0,0,.44-2.48.74-3.71a.53.53,0,0,1,.2-.13c.43-.14.71-.78,1.75-.38C138.36,146.34,138.39,148.57,137.18,149.62Zm.9-5-1.19.62s-.11,0-.17-.19c0-.53,0-1.12-.07-1.84-.09-1.42.14-2,.76-1.9s1.07-.4,1.14,1A3,3,0,0,1,138.08,144.59Zm-19,23.53c.2.05.44.12-.32.56a8.13,8.13,0,0,1-1.24.6,2.36,2.36,0,0,1-1.33-.31,11.12,11.12,0,0,0,1.35-1.09A3.48,3.48,0,0,1,119.11,168.13Zm-.32-1.43c.48-.49.91-.95,1.27-1.29a7.92,7.92,0,0,0,.66-.72,2.1,2.1,0,0,0,1,.88c.56.19,1-.16,1-.05s-.32.32-.59.66-.93.9-1.29.75A10,10,0,0,0,118.79,166.69Zm4,.47c.2-.12.53.07.56.06h0a4.21,4.21,0,0,0,1.76.13c.78-.14,1.94.45-.62,1.75a10,10,0,0,1-2.94.57,3.72,3.72,0,0,1-1.75-.24C119.49,169.1,122.57,167.28,122.77,167.16Zm3,3.05c.32-.34.66-.72,1-1.12,0,0,.06,0,.09,0s0,.35.49.45a5.91,5.91,0,0,0,1.47,0c.23,0,.12.18-.12.36a4.13,4.13,0,0,1-1.64.63c-.77.12-1.32.06-1.38-.05S125.72,170.28,125.77,170.21Zm3,1.23c.45-.44.88-.63,1.08-.56a.72.72,0,0,1,.39.4c0,.08,0,.2-.1.26a24.69,24.69,0,0,1-2.57,1.68l-.53.27s0,0-.06-.08A20.45,20.45,0,0,1,128.75,171.44Zm1.21-3.35a5.14,5.14,0,0,1-2.1.06c-.15-.08-.06-.27,0-.33l1.32-1.61c.16-.1.16,0,.16,0a1.19,1.19,0,0,0,.25.56,1.23,1.23,0,0,0,1.08.32c.3-.08.72-.15.56.07A2.05,2.05,0,0,1,130,168.09Zm1.76.73c.3,0,.49.31.55.42a.65.65,0,0,0,.25.19l-.38.39h0a2.11,2.11,0,0,1-1.21-.09C130.81,169.6,131.42,168.82,131.72,168.82Zm3.23-.57c.83-1.11.93-3.12,1.22-3.29,0,0,0,0,0,0a6.61,6.61,0,0,1,1.15-1.54c.49-.26.57-.43,1.28,1.28s2.71,8.17,2.73,8.38,0,.35-.49.42c-1.7-.14-6.34-.52-7.73-.68l-1.31-.11S134.12,169.36,135,168.25Zm12.17,1.65c.43-1.08,2.06-5.36,2.36-5.77s.89-.57,1.52.6a28.38,28.38,0,0,1,4.23,8.52,21.43,21.43,0,0,1-2.81.08s-5.47.07-7.16.11v0h0A37.56,37.56,0,0,0,147.12,169.9Zm23,1.6c.14.43-.42.66-1,.8a110.75,110.75,0,0,1-11.25,1c.34-.75,4.36-9.66,4.87-9.77S169.87,170.72,170.12,171.49Zm-6.47-8.9c.83,0,1.58-.08,2.19-.13a68.16,68.16,0,0,0,9.44-1.49c-.13.86-1.06,6.32-4,9.91,0,0-.2.16-.94-.53S164.46,164.21,163.65,162.59Zm-7,10s-.12.24-.61-.9c-.41-1-3.7-7.28-3.81-7.48s-.41-.64-.41-.64-.11-.6.11-.69h1.24c1.76,0,5.07-.13,8.21-.23C161,163.67,159.32,169.12,156.62,172.64Zm20.43-2a25.58,25.58,0,0,1-4.17,1l.21-.1a2.9,2.9,0,0,1-.9,0c-.2-.08,3.42-4.85,4.36-9.74,0,0,3,4,3.42,6.73C180,168.6,179.74,169.54,177,170.64ZM161.5,81.48a27.5,27.5,0,0,0-.41-3.18l.07,0,2.42-1.38h0a27.42,27.42,0,0,0,5.41-3,76,76,0,0,0,8.07-6.79c.22-.26.53-.65.89-1.11-.22.76-.59,1.94-.95,2.82a22.43,22.43,0,0,1-2.78,5.69C172.5,77,166.26,80.3,161.5,81.48Zm21.43-8.08c-.61,2.08-3.36,3.73-5.26,4.68a3,3,0,0,0-.53.33,20.79,20.79,0,0,1-7.6,2,21.5,21.5,0,0,0,4-2.63c1.87-1.59,3.52-5,4.68-8.78a38.22,38.22,0,0,1,2-5.69c.18-.33.62-1.14.92-1.69l.39-.54a11,11,0,0,1,2.26-3.21,10.68,10.68,0,0,0,1.42-1.75,13.54,13.54,0,0,0-.32,1.72,12.19,12.19,0,0,1-.92,3.88,9.64,9.64,0,0,0-1.28,3.61C182.6,66.8,183.55,71.32,182.94,73.4Zm2.81-.28-1.25,1.41a16.13,16.13,0,0,0-.15-4.4,8.43,8.43,0,0,1,.61-7.86l.07-.1a41.68,41.68,0,0,0,1.7,5.39A6.06,6.06,0,0,1,185.75,73.13Zm2.37-6.45a8,8,0,0,0-.94-2.48c-.58-.76-.95-3.12-.92-4.62a14.1,14.1,0,0,1,1.62-5.17,9.64,9.64,0,0,0,2-5.35V49c0,.88.11,7.87-.46,9.42,0,0,1.19-1.25,1.5-4.86a28.4,28.4,0,0,0-.15-7.22c-.21-1.1-1.19-3.24-1.28-5.29s.61-2.54.64-5.53a15.11,15.11,0,0,0-.37-3.13c.52.69,4.09,5.61,5.29,9.95,1.28,4.65.76,7.49,1,9.42a8.13,8.13,0,0,1-1.41,6.73c-2,3.09-5.53,5.34-6.58,8.18Zm5-31.56A29.06,29.06,0,0,1,197.8,41a19.56,19.56,0,0,1,1.28,8.84,11.17,11.17,0,0,1-1.75,4.57,37.21,37.21,0,0,0-.21-4.3,34.83,34.83,0,0,0-1.31-8.38A32.65,32.65,0,0,0,193.09,35.12ZM168.88,4.89c1.06.29,2.41.61,2.41.61s3.52.51,8.41,4.27a143.42,143.42,0,0,1,11.56,10.55c-.09.09,2.66,2.66,4.46,5.2s3.88,7.67,4.62,8.68a11.27,11.27,0,0,1,2.45,5.5,62.37,62.37,0,0,1,0,12.2,23.43,23.43,0,0,1-2.94,7.49,64.19,64.19,0,0,1-4.4,6.15A39.62,39.62,0,0,1,189,71.2a9.27,9.27,0,0,1,.86-3.12,1.92,1.92,0,0,0,.17-.62,15.64,15.64,0,0,1,1.85-3.54c1.1-1.41,4.53-5.14,5.11-6a1.24,1.24,0,0,0,.15-.4,13.46,13.46,0,0,0,2-3.42,18.21,18.21,0,0,0,1.1-8.26,17.62,17.62,0,0,0-4.16-9.72,44.23,44.23,0,0,0-4.4-4.07,17.53,17.53,0,0,1-3.09-3.72c-.18-.53-2.38-5.36-2.72-6.19A15.87,15.87,0,0,0,183,16.83c-1.93-2.23-5.08-6.18-7-7.46s-5.59-3.14-5.59-3.14l-2.85-1.47S167.82,4.6,168.88,4.89Zm-5.71-1.79c1.75.29,6.69,3.91,6.69,3.91a30.7,30.7,0,0,1,6.69,4.54,71.2,71.2,0,0,1,6.94,8.78c1.28,1.93,3.58,9.05,3.58,9.05a42.33,42.33,0,0,1,1.13,7.92c0,3.42.31,4.4-.76,3.82s-4.68-2.94-7.46-3.42l-.24,0h0a20.85,20.85,0,0,1-4.09-1,4,4,0,0,1-3-3.73c-.05-1.2.77-8.05.95-9.51h0s.41-4-.33-6.16-4-5.83-5.83-7.71A71.19,71.19,0,0,0,159,2.81S159,2.41,163.18,3.09ZM146.74,2.6a4.24,4.24,0,0,1,2-.94,19.5,19.5,0,0,1,4.85-.12,3.42,3.42,0,0,1,2,.95.48.48,0,0,0,.22.27s1.3,1,2.32,4.69,1.43,9.54,1,10.64c0,0,.29.77.82-3.42s-1.39-9.87-1.39-9.87-.69-1.39.86-.57,6.56,5.18,7.5,6a36.26,36.26,0,0,1,4.65,7.34c.82,2,.61,6.16.61,6.16h0c0,1.74-.1,6-1.2,8.12-1.35,2.63-3.79,2-5.5,2.08a20.15,20.15,0,0,1-6.05-.67,9.77,9.77,0,0,0-2.63-.49l1.22-1.35a5.33,5.33,0,0,0,.86-4.53,18.94,18.94,0,0,1-.55-3.49c-.43.61,0,3.18-1.35,6.18s-3.91,3.06-6.42,3.24a46.71,46.71,0,0,0-6.6,1.28c-1.71.67-1.83-.22-1.83-.22s-.57-2.53-.86-3.51-1.1-3.51-1.39-5.14c-.25-1.4-.37-5.31-.4-6.38a35.36,35.36,0,0,1,1.75-7.61C142.55,7.94,145.64,3.46,146.74,2.6ZM137,2.48c5.06-1.22,7.13-.37,7.13-.37-2.28.82-4.44,3.34-6.77,6.12a19.12,19.12,0,0,0-3.79,7.58c-.45,1.79-.41,2.65-.16,2.65s.37-1.67,1.83-5A28.09,28.09,0,0,1,140,6.56a17.23,17.23,0,0,1,3.18-2.24c.77-.41,1.71-.57.82.45a37,37,0,0,0-4.32,7.71,15.91,15.91,0,0,0-1.31,6.94s-1.22,3.29-2,5a24.87,24.87,0,0,0-1.79,5.87c-.29,1.67.08,2.69-.41,3.14a4.49,4.49,0,0,1-3.18.2c-.57-.33-1.35-.73-.69-2.77s.86-2.69.86-2.69a12.87,12.87,0,0,1-2.53,3.3,13,13,0,0,1-4.73,1.88c-2.36.53-5.83,1.71-6.07,1.79s-1.55,1-2.24-1.22-.94-7.91,0-10.52,3.67-7.5,4.81-8.64A34.94,34.94,0,0,0,123.06,12c.26-.41,4.3-4.32,4.93-4.93a1.23,1.23,0,0,0,.25-.16A20.63,20.63,0,0,1,137,2.48Zm-12.84,5L124,7.41h0c.09.07.17.11.24.09.33-.12,4.61-2.49,4.61-2.49L126.36,6.8a46,46,0,0,0-5.83,5.79,40.12,40.12,0,0,0-5.46,9.7,21.18,21.18,0,0,0-1.55,8.28c.12,1.75,1.22,3.51.9,4.65s-1.18,1.22-1.59,1.43-2.32-.82-2.85-2.53c-.15-.49-.28-.62-.39-.56A7.41,7.41,0,0,1,109.2,30a27,27,0,0,1,6-14.31A38.36,38.36,0,0,1,124.16,7.5Zm-24,21.85a31.86,31.86,0,0,1,7.34-10.93c5-4.65,8.07-5.71,8.07-5.71-.16.41-4.32,6-5.14,7.09a32.83,32.83,0,0,0-4.77,6.56,23.86,23.86,0,0,0-2.74,8.3l0,0a9,9,0,0,1-2.28,2.69c-1.55,1.22-3,4.48-3.14,4.77s-.82,1.71-.86.12S98.11,32.28,100.14,29.35Zm.32,34c-.13-.24-.34-.55-.42-.75-.42-1-1.25-3.3-1.74-4.2a20.25,20.25,0,0,1-1.58-5.5c-.33-2.24-.41-7.26.94-9.09s2.39-5,4.93-6.42c-.08.93-.13,1.81-.16,2.63a13.72,13.72,0,0,0,1.75,7l.2.46a9.6,9.6,0,0,0-1.87,4.23,29.61,29.61,0,0,0,0,10.56c.49,2.41,1.1,5.18,2.36,6.69A57.31,57.31,0,0,1,100.46,63.37Zm18.48,16.94a8,8,0,0,1-4.73-3.63c-1.67-2.65-2.61-5.26-3.14-5.14s.08,1.47.49,2.45,2.08,3.71,3.67,4.57c0,0-1.18.29-3.42-1.83a27.28,27.28,0,0,1-5.54-7.18c-1.47-2.77-3.63-10.84-3.51-13.74,0,0,1.79,8.6,4.81,10.93,0,0-3.71-6.52-3.75-12.8,0-4.15.48-5.45.83-5.85l0,.07a4.72,4.72,0,0,0,.18.68,9.49,9.49,0,0,0,.39,4.17,20.4,20.4,0,0,0,1.57,3.11c.14.39.5,1.35.75,2.15.33,1,1.35,4.36,1.71,5.46s3.22,7.42,6,10.15,6.07,6.28,6.77,6.69A7.76,7.76,0,0,1,118.94,80.31Zm2.12,2.56a.94.94,0,0,1,1,.33l-.14,1.86a.12.12,0,0,0,0,0c0,.52,0,3.27-.52,2.65,0,0-.46-1.91-.85-3.41C120.42,83.7,120.37,83,121.06,82.87Zm-.85,5.78.07,0c.15-.07.5-.13.5.89,0,1.25.3,3.36,0,4.2-.37-.54-.76-1.05-1-1.43l-.09-.22a3.17,3.17,0,0,0-1.05-1.28,1.55,1.55,0,0,1,.48-.76C119.47,89.76,120.09,88.7,120.21,88.65Zm-1.52,12c-.28.07-.31-.5-.9-1.14a4.26,4.26,0,0,1-.64-1.15l.07.11s.19-1.61.19-2.23.43-2.63.33-3.18-.66-2.09-.19-1.71l0,0,.21.31c.73,1,.38,1.28.52,2.13a10.18,10.18,0,0,0,.57,1.75,16.55,16.55,0,0,1,0,2.89C118.88,99.53,119,100.57,118.69,100.64Zm-1.19-15.31A3.86,3.86,0,0,1,118.6,84l.47,1.71s.72,2.23-.19,3.13c-.36.36-1.61-1-1.71-1.14h0l-.29-.37C116.37,86.68,117,86.33,117.51,85.33ZM115,88.46a2.75,2.75,0,0,0,.43.95,14.15,14.15,0,0,1,1.19,3.13,15.51,15.51,0,0,1-.19,3.37.25.25,0,0,1-.43,0,13,13,0,0,1-1.18-3.52,9.47,9.47,0,0,0-.76-3.18C113.48,87.82,115,88.46,115,88.46ZM113.1,94s.11-.18.16.22l-.25-.17ZM95,125a21.19,21.19,0,0,1,.12-4.4c.24-1.92,1.47-4.44,1.83-5.87A43.58,43.58,0,0,1,99.07,108a20.48,20.48,0,0,1,4.4-5.5c1.14-1.1,6.93-5.1,8.24-6.16a15.53,15.53,0,0,0,1.57-1.55v0c0,1.07,2,3.56,2.61,4.74s2.23,4.12,3,5.21a3.33,3.33,0,0,1,.72,1.66c0,.34,0,.67,0,1,0,1.5-.09,2.42-.92,2.63s-1.41-2.45-1.65-2.23-.12.37.18,1.9a14.21,14.21,0,0,1-.25,4.84,1.69,1.69,0,0,1-1.47,1.1c-.53.12-1.47-.2-3.42-.49a19.4,19.4,0,0,0-8,1.3,10.81,10.81,0,0,0-3.71,3.1c-.29.61-3.38,4-3.79,5.38S95.08,125.73,95,125Zm8.44,17.55a28.38,28.38,0,0,0-1.9-3.82c-.12,0-.12.18-.06.76s1.1,3.94,1.1,3.94-.52,0-1.8-.95a6.76,6.76,0,0,1-2.32-3.15,18.48,18.48,0,0,1-.67-3.3,27.49,27.49,0,0,0-1-3.55,9.09,9.09,0,0,1-.86-4.16,5,5,0,0,1,1.65-3.12,23.66,23.66,0,0,1,5.63-6.51,11.62,11.62,0,0,1,7.8-2.11c.28,0,1.71,0,.55.4a17.42,17.42,0,0,0-4.46,2.78,9.4,9.4,0,0,0-1.5,3.33c-.12.86-1,2.84-.89,2.9s.4-.4,1-1.56,1.74-3.64,3.67-4.92a8.17,8.17,0,0,1,5.6-1.65c2.23.12,2,1,2.75,1.47a12.79,12.79,0,0,1,2.75,1.56,3,3,0,0,1,1,2.45s0,.11,0,.18l-2.2-1.87h0a5.91,5.91,0,0,0-1.49-.85,5.91,5.91,0,0,0-2.84.61,12,12,0,0,0-2.78,2c-.64.73-2.45,3.42-3.52,8.35a20,20,0,0,0,0,9.48c.37,2,3,4.68,3,4.68h-.58c-.28,0-1.16.7-1.93.67a8.58,8.58,0,0,1-3.61-1A7.24,7.24,0,0,1,103.44,142.51Zm4.54,6.92c-.33,0-1.45-1.87-1.45-1.87a4.7,4.7,0,0,0,1.46.27C108,148.4,108.24,149.41,108,149.43Zm-1.58,1v0c-.06-.7.46,0,.59,0s.79.46,1.18.72a2,2,0,0,1,.27,1.77c-.68.05-1.86-1.86-1.86-1.86C106.48,150.77,106.4,150.42,106.4,150.42Zm2.86,9.91-.38-1.07c.3.62.76,1.73,1.15,2.68A8.43,8.43,0,0,1,109.26,160.33Zm1-6.16a.36.36,0,0,1,.27-.17c.41.08,1.28.14,1.28.4s.22,1.71.29,2.17c0,.09-.21.15-.86-.31A2.16,2.16,0,0,1,110.28,154.17Zm.58,3.63c-.08-.45.85-.05,1.15.08a1.24,1.24,0,0,1,.36.31,3.45,3.45,0,0,1,0,1.67c-.17.15-.73-.22-1-.66S111,157.8,110.86,157.79Zm.37,3.35.13,0h0l.21.09h0a5.86,5.86,0,0,1,1.26.62.62.62,0,0,1-.08,1.15c-.23.06-.85-.38-1.28-.61l0,0C111.12,162.17,111,161.25,111.22,161.15Zm.51,3.79c-.11-.39-.2-.72-.25-.91l0-.09a5,5,0,0,1,1.25.42c.8.4.75.37.9.85s0,.6-.55.57S111.86,165,111.73,164.94Zm2.74,3.42a1.22,1.22,0,0,1-.6.06,2,2,0,0,1-1.2-1,5.29,5.29,0,0,1-.29-.6c.61.52,1.57.05,1.67.24S114.76,168.22,114.47,168.35Zm.14-5.2c.1-.18.22-.14.63,0a1.1,1.1,0,0,0,.67.09,4.62,4.62,0,0,0,.17.8,2,2,0,0,0,1.26,1.05h0c.33.14.15.28,0,.27a3.38,3.38,0,0,1-1.78-.32A2.09,2.09,0,0,1,114.61,163.15Zm1,4.44a2.65,2.65,0,0,1-.44-1.48c.12,0,.08.15.56.31s1.4,0,1.37.25a1.45,1.45,0,0,1-.35.57h0a5.05,5.05,0,0,1-.51.47s0,0,0,0C116.07,167.85,115.94,167.94,115.66,167.59Zm2,4.92c-1.28-.43-1.52-.95-1.52-.95s-.36-.19.62-.57a1.15,1.15,0,0,0,.28-.16,8,8,0,0,1,1.45-.63.63.63,0,0,1,.28.05,4.5,4.5,0,0,0,2.93.69s1.83-.43-1.52,1.66A4.84,4.84,0,0,1,117.65,172.51ZM123,174c-.39,0-.83,0-1.14,0-.58-.11-1-.22-1.13-.22-.47,0,1.89-1.2,3.44-2.14a.34.34,0,0,1,.34.12,1.83,1.83,0,0,0,1.14.33c.6,0,.69-.18.89-.07s-.25.41-.7.73A9.14,9.14,0,0,1,123,174Zm10.4,47.26c-.21-.91-.39-1.65-.48-2a8.26,8.26,0,0,1-.26-2.52c.45.71,1.3,1.45,3.87,2.34,3.73,1.28,12.41.12,12.41.12s-2.81,2.87-8.93,3.12C135.8,222.5,134,221.7,133.35,221.29Zm-.23-5.84,0,0c3.45,1.47,8.38,2.6,12.74,1.6a19.16,19.16,0,0,0,3.58-1.3c.15,0,.36.08.46.32a7.46,7.46,0,0,1,.1,1.1c-2.12,1.18-7.46,2.23-11.78,1.41C134.86,217.89,133.55,216.21,133.12,215.45ZM137,231.62l.07,0c-.46.07-1.1.2-1.7.31h0s-1.8.26-2-.55S136.61,231.49,137,231.62Zm-2.91-7.13c1,.83,2.89,1.37,5.51,2,3.06.73,9.23-.37,8.75,0a10.41,10.41,0,0,1-2,.86A24.31,24.31,0,0,1,135,228.54v0Zm-8.17,4.24a13.3,13.3,0,0,1,2.48.4l0,0s2.72,1.1,2.84,1.85-1.21.89-1.41,1c-.82.08-2.41,0-2.45-.24a2.59,2.59,0,0,0-.61-1.43C126.37,229.84,125.43,228.9,125.92,228.73Zm-6,1.79c.33-1.67,2.57-2.41,2.57-2.41h0l1.06,0a6.34,6.34,0,0,1,2.29,2.41,1.22,1.22,0,0,1-.37,1.83,21.23,21.23,0,0,1-5.34,1.35C119.11,233.79,119.64,232.2,120,230.53Zm-5.5.43a3,3,0,0,1,.68-1.2,9.89,9.89,0,0,1,4.3-1.49c-1.2,1.07-1.55,5.48-1.55,5.48a4.4,4.4,0,0,1-2.2-.35S114.16,231.87,114.47,231Zm-2.61,5.11a8.23,8.23,0,0,1,.16-1.67,2.39,2.39,0,0,1,.67-.66.93.93,0,0,1,.72.26,8.32,8.32,0,0,0,4.4,1.67,21.89,21.89,0,0,0,0,2.77c.12.49-.13.42-.51.42H117c-2.45-.13-3.87-.58-4.83-2.09A3.38,3.38,0,0,1,111.86,236.07Zm6.77,7.72-.24,0c-2.41-.52-4.82-1.54-5.73-3.25-.07-.37-.06-.71.17-.79.48-.16,2,.9,5.35,1.08a3.77,3.77,0,0,0,.09,1.61C118.49,242.85,118.78,243.59,118.62,243.79Zm1-5.12c-.12-.4-.39-3-.06-3.25,0,0,.2.12,1.55-.08s5-1.22,5.67-.61.82,3,.2,3.51a1.86,1.86,0,0,1-.52.28l-.48.12-.31,0c-1.53.14-3.05.24-4.49.24h-1.35C119.67,238.89,119.63,238.82,119.58,238.67Zm7.48,4.5-.07,0-1.75.3h-.38l.08.05c-1.1.17-2.28.31-3.39.36.08-.13-1-.11-1.22-1.35-.29-1.43,0-1.67.61-1.79l.06,0,2.07-.17,0,0s4-.57,4.53,0A1.92,1.92,0,0,1,127.06,243.17Zm1.39-9.54c.24-.49,1.26-.49,1.26-.49h0c.3,0,1.59-.06,2.14-.05a2.73,2.73,0,0,1,1.16.39c1,.73,1.55,3.55,1.43,3.75a38.33,38.33,0,0,1-5.12.92,3.79,3.79,0,0,0-.13-1.61C128.9,235.46,128.2,234.12,128.45,233.63Zm6.4,7.3a2.22,2.22,0,0,1-1.42,1.26c-1.54.18-3,.37-4.15.57a15,15,0,0,0,.31-1.75c0-.61,0-.9.49-1.06s4.2-.86,4.61-.57S135,240.31,134.85,240.93Zm.9-6.16c-.45-1-.57-1.3-.08-1.3a9.7,9.7,0,0,0,2.36-.08c.9-.2,1.1-.61,1.1-.61a8,8,0,0,1,1.83,3.51v.1c-1.18.26-2.62.53-4.47.79A16.12,16.12,0,0,0,135.75,234.77Zm4.79-2.63a24.3,24.3,0,0,0,4.48.3.49.49,0,0,1,.27.13,10.18,10.18,0,0,1,.89,2.08h0a15.27,15.27,0,0,1-2.11.89c-.43.14-.88.28-1.38.41A7.81,7.81,0,0,0,140.54,232.13Zm-.3,8.87a2.42,2.42,0,0,1-.51.42l-.79.11-1.37.17c-.44,0-1-.11-1-.45,0-.57.2-2,.2-2s-.16-.24.35-.33a34.27,34.27,0,0,0,4.17-.5A5.74,5.74,0,0,1,140.23,241Zm6.17-2.85a4.29,4.29,0,0,1-1.31,2.39l-2.54.44a4,4,0,0,0,.58-2.89,16,16,0,0,0,3.13-1l.24-.12A4.82,4.82,0,0,1,146.4,238.16Zm.24-6a9.52,9.52,0,0,0,2.52-1.15,1.22,1.22,0,0,1,.34.15l.21.16a1.32,1.32,0,0,1-.33,1.06,7,7,0,0,1-1.81,1.5,5.13,5.13,0,0,0-.4-.89Zm2.19,6.16a4.68,4.68,0,0,1-1.23,1.79l-.1,0a5,5,0,0,0,.69-2.66,8.14,8.14,0,0,0-.07-1.29,5.14,5.14,0,0,0,1.81-1.28A12,12,0,0,1,148.83,238.3ZM150,228.2c-.31,1.28-2.57,2.39-2.87,2.51-.07,0,0,0,.11.05a16.71,16.71,0,0,1-4.21.56A13.83,13.83,0,0,1,137,230.1a25.72,25.72,0,0,0,9.05-1.28,17.35,17.35,0,0,0,4.09-2A9.51,9.51,0,0,1,150,228.2Zm-5.44-2.45a23.71,23.71,0,0,1-9.91-2.39c1.1.37,7,.18,9.85-.49a19.32,19.32,0,0,0,5.63-2.69c0,1.16,0,2.43,0,3.62C149.89,224.33,148.77,225.71,144.55,225.76Zm3.36-10.89c-3.06,1.28-8.38,2.14-11.62.49a13.5,13.5,0,0,1-2.08-1.83c-.86-1-3.85-8.38-4-8.26s1,5.81,2.2,6.79c0,0,.67.55.61,1s-2.32-.37-3.42-2.81a43.93,43.93,0,0,1-2.87-14l-.43-6.6s3.3,3.24,3.85,2.69-2-1.9-3.24-3.91a34.38,34.38,0,0,1-2.18-4.69h0l-.15-.52.09,0a3.09,3.09,0,0,1-.24-.5l-.13-.45,0-.07h0a29.25,29.25,0,0,1-1-4.66,8.65,8.65,0,0,1,0-1.95c1.43-.11,3.13-.31,4-.49a14.41,14.41,0,0,0,3-1c2.16.42,5.56,1.08,6.62,1.26a26.76,26.76,0,0,0,3.46.32h.33l2.84.57v0a5.87,5.87,0,0,1,1.75,2.41,1.15,1.15,0,0,0,.14.28,19.35,19.35,0,0,0,.55,1.88c.37,1,2.45,12.54,3,16.27s1.83,11.93,2,13.82S151,213.59,147.92,214.87Zm3,24.65s-.12-.49.55-.18a5.2,5.2,0,0,0,2.63.43h0c.06,0,.2,0,.31.42a8.78,8.78,0,0,1,.2,2.63.66.66,0,0,1-.78.52,3.33,3.33,0,0,1-2.14-.81A3.63,3.63,0,0,1,150.91,239.52Zm3.27,8.33a2.65,2.65,0,0,1-.94-.19,4.12,4.12,0,0,1-2.08-2.8c-.05-.22-.09-.49,0-.54s1.13.47,2.31.58A10.41,10.41,0,0,1,155,245a11.41,11.41,0,0,1,1,2.58C156,247.75,155,247.84,154.18,247.85Zm1.69-6.22c0-.47-.28-1.74.06-2.14s2.77-.55,3.29-.67,3.41-.58,3.81-.58h0s.14,0,.37.37a22.63,22.63,0,0,1,1.36,4.33s.06.49-.8.64-5.57.14-5.57.14-1.68.09-2-.28A3.24,3.24,0,0,1,155.87,241.63Zm9.49,4.59c0,.63,0,1.41-.44,1.67a3.08,3.08,0,0,1-1.38.16c-1.65-.15-3.49-.16-5.15-.15a1.42,1.42,0,0,1-.92-.77,5.62,5.62,0,0,1-.83-2.13c.06-.28.81,0,2.52.11s5.21,0,5.53,0A1,1,0,0,1,165.36,246.22Zm.81-3.88c-.21-.64-1.25-3.79-1.09-4.25s1-.32,1.82-.28,4.13-.4,4.8-.31,1.15,1.18,1.41,1.64.73,1.47.9,1.91h0a1.7,1.7,0,0,1-.2,1.57c-.55.7-1.1,1-3.27,1a13.25,13.25,0,0,1-4-.72C166.71,242.67,166.39,243,166.17,242.33Zm7.19,4.79a3,3,0,0,1-1.07.86,29.82,29.82,0,0,1-3.89.34,1.35,1.35,0,0,1-.92-.91c-.14-.73-.18-2.11.09-2.25s2.75-.08,3.72-.17a17.14,17.14,0,0,0,2.9-.66C174.58,244.2,174.17,246.18,173.36,247.12Zm6-5.63a6.14,6.14,0,0,1-.68,3.47,6,6,0,0,1-3.45,2.33,7.71,7.71,0,0,0,.68-3.38,7.14,7.14,0,0,0,2.75-1.45A2.33,2.33,0,0,0,179.36,241.49Zm-.67-2.93,0,.13a4.55,4.55,0,0,1-1.64,3s-.92.7-1.36.52-.33-1.16-.51-1.54h0a27.29,27.29,0,0,0-1.39-2.71c-.26-.26.06-.35.35-.24S178.07,238.32,178.69,238.56Zm-2.94-3.76c.6.44,1.56,1.21,1.48,1.5s-3.58-.21-3.94-.29a1,1,0,0,1-.81-.54c-.23-.41-1.53-2-1.13-2A22.45,22.45,0,0,1,175.75,234.8ZM171.46,231c1,.36,1.38.69,1.48,1a.44.44,0,0,1-.32.43,4.55,4.55,0,0,1-2.74-.6,5,5,0,0,1-1-1.12A11.19,11.19,0,0,1,171.46,231Zm-1.72-5.58c-.81.54-2.8,1.41-7.21,1.54-6.42.18-8.56-1.77-8.56-1.77a17.83,17.83,0,0,0,7.64.06,40.32,40.32,0,0,0,9.12-3.19A34.33,34.33,0,0,1,169.74,225.38Zm1.53-6,0,.28c-.72.67-2.53,1.55-8.27,1.55-8.13,0-9.66-1.71-9.66-1.71a28.15,28.15,0,0,0,9.54.24,19.19,19.19,0,0,0,8.33-3.12A4.8,4.8,0,0,1,171.28,219.4Zm25.59-25.93a99.42,99.42,0,0,1-1.14,12.3c-.71,4.12-2.67,9.49-4.91,11.59s-5.8,3.31-7.68,2.13-3.48-4.59-4.05-8.68-.53-15.89-.21-17.21.14-3.2-.43-1-1.28,7-1.28,7c0,2.88.11,11.27.43,12.16s0,1.32-.71,1.35a13.63,13.63,0,0,1-5-1.64,18.72,18.72,0,0,1-6.47-5.69c-1.32-2-2.38-7.79-1.92-11a18,18,0,0,1,7.32-12.44,24.76,24.76,0,0,1,11.53-4,1.5,1.5,0,0,0,.56,1.33,1.9,1.9,0,0,0,2.2.1c3.75-1.82,1.45,1.1-.69,3-2.05,2.42-2.76,6.11-3.28,8.89a54.25,54.25,0,0,0-.57,12.59c.36,4.59,1.78,7.11,2.77,8.18s2.74,2.13,4.84-.07,5.65-8.14,6.54-15.93a44.5,44.5,0,0,0-.71-14.22h-.07l.37-.37-.3.36C196.51,183.9,197,190.34,196.86,193.47Zm-11-7.61a7.89,7.89,0,0,0,4.48-.92,21.49,21.49,0,0,0,2.36-1.74l.05.1c.57.92,1,4.52.85,8.68s-.6,6.15-2.42,12.16-3.8,7.86-4.91,8-2.1-.53-3.41-3.41-2.13-7.89-1.14-14.22a33.5,33.5,0,0,1,2.63-9.46l0-.13A2.16,2.16,0,0,0,185.91,185.86ZM197,173.06a14,14,0,0,1-1.14,5.19c-.75,1.6-1.1,1.74-1.56,1.64s.64-1.71,1-2.49.5-1.32-.07-1.14-2.49,3.63-3.13,5a6.87,6.87,0,0,1-2.7,2.92c-1.28,1-3.27,1.28-3.48.5s1-1,2-1.78,1.53-2.63,1.64-4.76-.6-4.52-1.07-4.41-.92,1.32-1.85,3.27-2.67,2.38-3.13,1.78.71-2.2,1.42-3.77.57-3.59.64-6.47a7.69,7.69,0,0,1,1.61-4.59,29.07,29.07,0,0,0,3.08.18,22.94,22.94,0,0,0,4.15-.36,12.48,12.48,0,0,1,1.4,1.78C196.86,167.19,197.18,170.18,197,173.06Zm-12.49-9.57a12.67,12.67,0,0,0,1.36.31,6.46,6.46,0,0,0-1.29,1.5C184.57,164.81,184.54,164.19,184.52,163.49Zm11.85-1.17c-1.81.43-6.44,1.17-8.46.71-1.45-.33-2.79-.66-3.43-.82,0-1.18-.08-2.49-.12-3.82a9.07,9.07,0,0,0,2.56.8c2.17.36,5.33,1.32,7.11,1s3.06-.68,3.56,0S198.18,161.89,196.37,162.32Zm7.82-7.89a10,10,0,0,1-6.12,3.48,29.14,29.14,0,0,1-10.38.07,9.41,9.41,0,0,1-5.19-3.48c-.85-1.07-.07-2.63.57-3.34a2.38,2.38,0,0,0,0-2.56c-.36-.68-.82-2.31-.21-3.13s3.91.11,6.9.36,8.68-1.64,10.38-2.49a9,9,0,0,0,1.36-.85c.14,0,2.24.06,2.48,1.71a4.71,4.71,0,0,1-2.7,4.55,18,18,0,0,1-4,1.14c-.32.11-.43.32.71.28a34.7,34.7,0,0,0,4.48-.85c.82-.18,1.67-.64,2.06.64C204.54,149.95,205.4,152.83,204.19,154.43Z" fill="#692f23"/><circle cx="125.55" cy="46.33" r="0.74" fill="#fff"/><circle cx="156.55" cy="45.96" r="0.74" fill="#fff"/></g></g></svg>