<svg xmlns="http://www.w3.org/2000/svg" width="70" height="70" viewBox="0 0 70 70"><title>обученные-сотрудники</title><g id="Слой_2" data-name="Слой 2"><g id="Слой_1-2" data-name="Слой 1"><rect width="70" height="70" fill="none"/><path d="M23.11,18.83c0-5.11,5.2-9.25,12.21-9.25s12.21,4.14,12.21,9.25c0,5.48-5.2,9.24-12.21,9.24S23.11,24.69,23.11,18.83Z" fill="#dcc19f" stroke="#692f17" stroke-miterlimit="10" stroke-width="1.5"/><path d="M25.29,10.46V13c0,1.22,4.38,2.21,9.77,2.21s9.77-1,9.77-2.21V10.46Z" fill="#e0dbd2" stroke="#692f17" stroke-linecap="round" stroke-linejoin="round" stroke-width="0.75"/><path d="M40,63.4a4.39,4.39,0,0,1,2.58-.55c1.71.07,3.47,1.66,1.78,3.56s-4.6,0-6.19-.28-2-1.21-2-2l0-.79Z" fill="#dcc19f" stroke="#692f17" stroke-miterlimit="10" stroke-width="0.75"/><path d="M32,63.4a4.47,4.47,0,0,0-2.61-.55c-1.73.07-3.51,1.66-1.8,3.56s4.65,0,6.26-.28,2-1.21,2.06-2l0-.79Z" fill="#dcc19f" stroke="#692f17" stroke-miterlimit="10" stroke-width="0.75"/><path d="M40.76,58.32l-.7,4.87a.53.53,0,0,1,0,.07c0,.53-.9,1-2,1s-2-.43-2-1h0V58.32Z" fill="#e0dbd2" stroke="#692f17" stroke-linecap="round" stroke-linejoin="round" stroke-width="0.75"/><path d="M31.2,58.32l.71,4.87a.45.45,0,0,0,0,.07c0,.53.91,1,2,1s2-.43,2-1h0V58.32Z" fill="#e0dbd2" stroke="#692f17" stroke-linecap="round" stroke-linejoin="round" stroke-width="0.75"/><path d="M36,48.81H29.35L30,58c0,1.7,1.34,2.46,3,2.46s3-.76,3-2.46c0,1.7,1.38,2.46,3.08,2.46s3.09-.76,3.09-2.46l.7-9.22Z" fill="#fd8204" stroke="#692f17" stroke-miterlimit="10" stroke-width="1.5"/><path d="M49,43.71s0,0,0-.07,0,0,0-.05.16-6.32-2.05-9.79a10.87,10.87,0,0,0-3.55-3.88,11.66,11.66,0,0,0-7.45-2.26h-.43a11.38,11.38,0,0,0-7.34,2.26,10.81,10.81,0,0,0-3.5,3.88c-2.18,3.48-2,9.79-2,9.79s0,0,0,.05,0,0,0,.07A1.54,1.54,0,0,0,23.39,45l0,.81c0,.31.83.6,1.89.65s1.64-.16,1.66-.46l0-.72a1.77,1.77,0,0,0,.64-.58l-.27,4.11c0,.55,3.63,1,8.2,1h.43c4.64,0,8.32-.48,8.32-1L44,44.7a1.78,1.78,0,0,0,.65.58l0,.72c0,.31.6.52,1.68.46s1.93-.34,1.92-.65l0-.81A1.53,1.53,0,0,0,49,43.71Z" fill="#f5f4f0" stroke="#692f17" stroke-linecap="round" stroke-linejoin="round" stroke-width="1.5"/><path d="M31.73,26.48v1.18c0,.65,1.5,1.18,3.34,1.18s3.34-.53,3.34-1.18V26.48Z" fill="#f6f3ea" stroke="#692f17" stroke-miterlimit="10" stroke-width="0.75"/><path d="M35.08,27c-4.79,0-8.7-3.46-8.7-7.72a6.87,6.87,0,0,1,.69-3,27.36,27.36,0,0,0,8,1.15,27.36,27.36,0,0,0,8-1.15,6.88,6.88,0,0,1,.69,3C43.77,23.51,39.87,27,35.08,27Z" fill="#f7e8d3"/><path d="M27.28,16.71a27.93,27.93,0,0,0,7.8,1.08,27.93,27.93,0,0,0,7.8-1.08,6.47,6.47,0,0,1,.52,2.54c0,4-3.73,7.34-8.32,7.34s-8.32-3.29-8.32-7.34a6.47,6.47,0,0,1,.52-2.54m16-.91A26.68,26.68,0,0,1,35.08,17a26.67,26.67,0,0,1-8.19-1.23A7.33,7.33,0,0,0,26,19.25c0,4.47,4.06,8.09,9.07,8.09s9.07-3.62,9.07-8.09a7.33,7.33,0,0,0-.88-3.45Z" fill="#692f17"/><path d="M37.85,23.46a9,9,0,0,1-3,.47A9.15,9.15,0,0,1,32,23.51" fill="none" stroke="#692f17" stroke-linecap="round" stroke-miterlimit="10" stroke-width="0.7"/><path d="M36.26,24.83a4.48,4.48,0,0,1-1.35.19,4.57,4.57,0,0,1-1.28-.17" fill="#fff" stroke="#692f17" stroke-linecap="round" stroke-miterlimit="10" stroke-width="0.7"/><path d="M35.83,22.12a6.58,6.58,0,0,1-.91.06,6.79,6.79,0,0,1-.86-.05" fill="#fff" stroke="#692f17" stroke-linecap="round" stroke-miterlimit="10" stroke-width="0.5"/><path d="M27.28,14.47a4.7,4.7,0,0,0-.56,2" fill="#fff" stroke="#692f17" stroke-linecap="round" stroke-miterlimit="10" stroke-width="0.75"/><path d="M42.85,14.5a4.39,4.39,0,0,1,.59,1.92" fill="#fff" stroke="#692f17" stroke-linecap="round" stroke-miterlimit="10" stroke-width="0.75"/><polygon points="35.08 5.23 21.18 8.72 21.18 10.16 35.08 13.73 48.98 10.11 48.98 8.72 35.08 5.23" fill="#e0dbd2" stroke="#692f17" stroke-linecap="round" stroke-linejoin="round" stroke-width="0.75"/><polyline points="48.98 8.72 35.08 12.21 21.18 8.72" fill="#e0dbd2" stroke="#692f17" stroke-linecap="round" stroke-linejoin="round" stroke-width="0.7"/><line x1="48.86" y1="9.59" x2="48.86" y2="14.16" fill="#fff" stroke="#692f17" stroke-linecap="round" stroke-miterlimit="10" stroke-width="0.5"/><path d="M48.22,15.57s.64-1.51.64-1.51.64,1.47.64,1.51-.29.08-.64.08S48.22,15.62,48.22,15.57Z" fill="#fff" stroke="#692f17" stroke-linecap="round" stroke-miterlimit="10" stroke-width="0.7"/><line x1="27.92" y1="44.41" x2="28.62" y2="34.87" fill="#fff" stroke="#692f17" stroke-linecap="round" stroke-miterlimit="10" stroke-width="0.75"/><line x1="43.99" y1="44.7" x2="42.26" y2="34.16" fill="#fff" stroke="#692f17" stroke-linecap="round" stroke-miterlimit="10" stroke-width="0.75"/><path d="M27.46,46.47s2.27,1.32,8.55,1,8.42-1,8.42-1" fill="none" stroke="#692f17" stroke-linecap="round" stroke-miterlimit="10" stroke-width="0.75"/><path d="M36.69,28.66v4.9a.59.59,0,0,1-.59.59h-2a.59.59,0,0,1-.59-.59v-4.9" fill="none" stroke="#692f17" stroke-miterlimit="10" stroke-width="0.75"/><path d="M23.67,46.24s0,3.19,1,4,2.4,1.06,2.11.29a15.44,15.44,0,0,1-.53-2.06,1.56,1.56,0,0,1,.69.58c.31.45.48-.08.15-.73s-.84-2.12-.84-2.12Z" fill="#f6f3ea" stroke="#692f17" stroke-miterlimit="10" stroke-width="0.75"/><path d="M47.58,46.24s0,3.19-.93,4-2.31,1.06-2,.29a16,16,0,0,0,.51-2.06,1.51,1.51,0,0,0-.66.58c-.3.45-.46-.08-.14-.73s.81-2.12.81-2.12Z" fill="#f6f3ea" stroke="#692f17" stroke-miterlimit="10" stroke-width="0.75"/><line x1="36.01" y1="58.03" x2="36.01" y2="49.84" fill="none" stroke="#692f17" stroke-linecap="round" stroke-miterlimit="10" stroke-width="0.75"/><path d="M30.93,18.67a2.86,2.86,0,0,0-1.83.92,2.86,2.86,0,0,0,1.83.92,2.85,2.85,0,0,0,1.83-.92A2.86,2.86,0,0,0,30.93,18.67Z" fill="#fff" stroke="#692f17" stroke-miterlimit="10" stroke-width="0.5"/><ellipse cx="30.93" cy="19.59" rx="0.8" ry="0.73" fill="#692f17"/><path d="M38.65,18.67a2.86,2.86,0,0,0-1.83.92,2.86,2.86,0,0,0,1.83.92,2.85,2.85,0,0,0,1.83-.92A2.85,2.85,0,0,0,38.65,18.67Z" fill="#fff" stroke="#692f17" stroke-miterlimit="10" stroke-width="0.5"/><ellipse cx="38.65" cy="19.59" rx="0.8" ry="0.73" fill="#692f17"/></g></g></svg>