<svg xmlns="http://www.w3.org/2000/svg" width="100.5" height="98.5" viewBox="0 0 100.5 98.5"><title>material-responsibility_1</title><path fill="none" d="M10.5 8.5h90v90h-90z"/><path d="M17.61 68.07A14 14 0 0 1 28.5 63.3a14 14 0 0 1 14.19-16.2 14 14 0 0 1 14.18-16.2 14 14 0 0 1 13.2-16.17 42.3 42.3 0 0 0-55.89 63.44 13.93 13.93 0 0 1 3.43-10.1z" fill="none" stroke="#fd8204" stroke-linecap="round" stroke-miterlimit="10" stroke-width="1.64"/><path d="M27.8 62.4C10.23 47 3.62 28.48 11.43 19.57S38.48 14.76 56 30.14M42.69 47.1L11.26 19.58" fill="none" stroke="#fd8204" stroke-linecap="round" stroke-miterlimit="10" stroke-width=".82"/><path d="M81.82 60.43a2.6 2.6 0 0 0 .24 3.68 5.21 5.21 0 1 1-6.86 7.83L43.64 44.31a2.57 2.57 0 0 0-1.07-.55 14 14 0 0 0 .11 3.35 14.09 14.09 0 0 0-3.12.28 2.62 2.62 0 0 0 .64.86l31.57 27.62A10.42 10.42 0 0 0 85.5 60.18a2.61 2.61 0 0 0-3.68.25zM40.15 64.91c-4.53 0-8.21 1.05-8.21 2.35V79c0 1.3 3.68 2.35 8.21 2.35s8.21-1 8.21-2.35V67.26c0-1.26-3.68-2.35-8.21-2.35z" fill="none" stroke="#fd8204" stroke-miterlimit="10" stroke-width="1.64"/><path d="M48.36 70.33c0 1.3-3.68 2.35-8.21 2.35s-8.21-1.05-8.21-2.35M48.36 67.29c0 1.3-3.68 2.35-8.21 2.35s-8.21-1.05-8.21-2.35M48.36 73.08c0 1.3-3.68 2.35-8.21 2.35s-8.21-1.05-8.21-2.35M48.36 75.84c0 1.3-3.68 2.35-8.21 2.35s-8.21-1.05-8.21-2.35" fill="none" stroke="#fd8204" stroke-miterlimit="10" stroke-width=".82"/><path d="M56.57 71.52c-4.53 0-8.21 1.05-8.21 2.35v8.64c0 1.3 3.68 2.35 8.21 2.35s8.21-1.05 8.21-2.35v-8.64c0-1.3-3.67-2.35-8.21-2.35z" fill="none" stroke="#fd8204" stroke-miterlimit="10" stroke-width="1.64"/><path d="M64.78 76.63c0 1.3-3.68 2.35-8.21 2.35s-8.21-1.05-8.21-2.35M64.78 73.87c0 1.3-3.68 2.35-8.21 2.35s-8.21-1.05-8.21-2.35M64.78 79.39c0 1.3-3.68 2.35-8.21 2.35s-8.21-1.05-8.21-2.35" fill="none" stroke="#fd8204" stroke-miterlimit="10" stroke-width=".82"/><path fill="none" d="M0 0h90v90H0z"/></svg>