<svg xmlns="http://www.w3.org/2000/svg" width="300" height="250" viewBox="0 0 300 250"><title>офисный-мастер</title><g id="Слой_2" data-name="Слой 2"><g id="Слой_24" data-name="Слой 24"><rect width="300" height="250" fill="none" opacity="0.48"/><path d="M125.49,36.27s-9.78.7-10.76.91c-1.43.31-1.22,1.22-.58,1.67s9,1.36,13.1,1.38S140,40,142.1,39.9s7.91-.6,9.18-.83,2-.24,2.14-.83a1.71,1.71,0,0,0-1.34-1.63C151.34,36.47,131.3,35.89,125.49,36.27Z" fill="#ddd6ce"/><path d="M211.29,64.33l-.07,38.48s-.28,2.25,2.35,4,7.53,3.09,8.11,3.89a7,7,0,0,1,.81,2.48l14.22.42a2.71,2.71,0,0,1,1.38-2.69c1.63-.83,5.81-2.76,6.53-3.48a10.18,10.18,0,0,0,2.18-6.75c0-3.63-.29-34.34-.29-34.34a5.53,5.53,0,0,0-4.55-5.07c-4.34-.77-27-.3-27-.3S211.69,61.86,211.29,64.33Z" fill="#dff1f7"/><rect x="47.17" y="54.97" width="19.73" height="19.73" fill="#efb000"/><rect x="50.23" y="58.25" width="13.62" height="13.41" fill="#fff"/><rect x="47.17" y="85.61" width="19.73" height="19.73" fill="#efb000"/><rect x="50.23" y="88.89" width="13.62" height="13.41" fill="#fff"/><polygon points="81.25 134.88 82.2 50.39 190.54 50.3 191.12 84.75 190.33 185.4 83.71 185.5 81.25 134.88" fill="#e6d1aa"/><path d="M160.32,153.24l-120.78-.56L39,153.94s-.78,1.42,2.11,1.67,118.07.24,118.07.24Z" fill="#e2ddd3"/><path d="M165.61,192.93l-.21,0,0-37.57-123.89-.13.13,40.08-.42,16.88s1.86,1.3,2.6.68a20.36,20.36,0,0,0,.27-4.8c-.1-2.22,0-9.14.13-12.51l118.09-.71.16,11.88s-.18,5.2,1.07,5.68,2.64-.88,2.64-.88C165.83,210.74,165.61,192.93,165.61,192.93Z" fill="#c7c0b1"/><path d="M51.37,148.3c.12,0,.2,3.51.75,3.91s4.89.59,5.53.47,1.11-1.26,1.14-1.7.61-9.26.47-9.35-8.25,0-8.25,0Z" fill="#fd8204"/><path d="M74.8,145.93,72.9,121c.44-3.55,3.64-5.18,5.21-5.57s22.62-1.63,24.69-1.48,12.76-1.75,14.39,1.66,2,9.21,2.07,9.77,0,2-.06,2.25-33.36,25.64-33.57,25.58-8.5-.44-8.5-.44l.83-1.6-1-1.15.06-3.45-2.07.2Z" fill="#fd8204"/><path d="M85.1,152.44s-.86-.83-.83-5.09-.18-18.06-.18-18.06a3.53,3.53,0,0,1,2.72-2c2-.24,36.71.12,36.71.12s1.84-.5,1.84,2.49,0,21.25-.06,21.61.86,1.33-1.48,1.54S85.31,153.59,85.1,152.44Z" fill="#e2ddd3"/><path d="M67.12,74.11s-.06-18.44-.06-18.63a.89.89,0,0,0-.23-.55c-.15-.19-.7-.21-.7-.21l-18.25.08a1.08,1.08,0,0,0-.61.17c-.3.15-.3.74-.3.74V74.18s0,.53.13.68a.94.94,0,0,0,.53.15l18.84-.08a1.08,1.08,0,0,0,.5-.2C67.1,74.61,67.12,74.11,67.12,74.11Zm-.52.3a.73.73,0,0,1-.47.16l-18,.08a.9.9,0,0,1-.51-.14c-.14-.14-.12-.65-.12-.65V56.2s0-.57.28-.71a1,1,0,0,1,.59-.16l17.46-.08s.53,0,.67.2a.86.86,0,0,1,.22.53c0,.18.06,17.83.06,17.83S66.84,74.23,66.59,74.41Z" fill="#692f23"/><path d="M64.11,71.27s0-12.62,0-12.75a.6.6,0,0,0-.16-.38c-.1-.13-.49-.14-.49-.14l-12.79.06a.77.77,0,0,0-.43.12c-.21.1-.21.51-.21.51V71.32s0,.36.09.46a.67.67,0,0,0,.37.1l13.21-.06a.77.77,0,0,0,.35-.14C64.09,71.62,64.11,71.27,64.11,71.27Zm-.37.2a.52.52,0,0,1-.33.11l-12.64.06a.64.64,0,0,1-.36-.1c-.1-.1-.09-.44-.09-.44V59s0-.39.2-.49a.74.74,0,0,1,.41-.11l12.24-.06s.37,0,.47.14a.58.58,0,0,1,.16.36c0,.12,0,12.2,0,12.2S63.91,71.35,63.74,71.48Z" fill="#692f23"/><path d="M66,56s-17.87-.07-18,0,0,17.9,0,17.9H66.09ZM48.15,73.73s-.07-17.57,0-17.63,17.7,0,17.7,0L66,73.73Z" fill="#692f23"/><path d="M67.12,104.67S67.06,86.23,67.06,86a.89.89,0,0,0-.23-.55c-.15-.19-.7-.21-.7-.21l-18.25.08a1.08,1.08,0,0,0-.61.17c-.3.15-.3.74-.3.74v18.46s0,.53.13.68a.94.94,0,0,0,.53.15l18.84-.08a1.08,1.08,0,0,0,.5-.2C67.1,105.17,67.12,104.67,67.12,104.67Zm-.52.3a.73.73,0,0,1-.47.16l-18,.08a.9.9,0,0,1-.51-.14c-.14-.14-.12-.65-.12-.65V86.76s0-.57.28-.71a1,1,0,0,1,.59-.16l17.46-.08s.53,0,.67.2a.86.86,0,0,1,.22.53c0,.18.06,17.83.06,17.83S66.84,104.79,66.59,105Z" fill="#692f23"/><path d="M64.11,101.83s0-12.62,0-12.75a.6.6,0,0,0-.16-.38c-.1-.13-.49-.14-.49-.14l-12.79.06a.77.77,0,0,0-.43.12c-.21.1-.21.51-.21.51v12.63s0,.36.09.46a.67.67,0,0,0,.37.1l13.21-.06a.77.77,0,0,0,.35-.14C64.09,102.18,64.11,101.83,64.11,101.83Zm-.37.2a.52.52,0,0,1-.33.11l-12.64.06a.64.64,0,0,1-.36-.1c-.1-.1-.09-.44-.09-.44V89.58s0-.39.2-.49a.74.74,0,0,1,.41-.11l12.24-.06s.37,0,.47.14a.58.58,0,0,1,.16.36c0,.12,0,12.2,0,12.2S63.91,101.91,63.74,102Z" fill="#692f23"/><path d="M66,86.54s-17.87-.07-18,0,0,17.9,0,17.9H66.09ZM48.15,104.3s-.07-17.57,0-17.63,17.7,0,17.7,0L66,104.29Z" fill="#692f23"/><path d="M104.78,135.9a1,1,0,0,1-.06-1.2,3.35,3.35,0,0,1,1-.87,2.2,2.2,0,0,0,.85-1v1.35a1,1,0,0,1,0,.37c-.11.29-.44.41-.73.54a3.36,3.36,0,0,0-1.07.79" fill="#692f23"/><path d="M119,125.8" fill="#692f23"/><path d="M78,151.17c-.08-.32-.19-.64-.62-.74v-3.28c0-.49-.26-.59-.36-.59l-14.05.08c-.82,0-1.33-.07-1.49.78a1.77,1.77,0,0,0,.35,1.51c.15.18.64.2,1.11.19l0,.09v1.33a1.1,1.1,0,0,0-.49.43,4.08,4.08,0,0,0,0,1.26.73.73,0,0,0,.33.46,1.42,1.42,0,0,0,.47.21h1l.13-.22-.83-.08c-.12,0-.37,0-.44-.43a4.29,4.29,0,0,1,0-1.14s0-.11.46-.1,13.05-.22,13.35,0,.32.11.31.56,0,1.29,0,1.29l.87,0A10.9,10.9,0,0,0,78,151.17Zm-15.83-3.36a.52.52,0,0,1,.45-.54l14,0c0,.27,0,1,0,1.08l-12.12,0s-1.22,0-1.62,0S62.13,148.18,62.13,147.81Zm1.49,2.63V149.1h0l0,0,13-.12v1.41Z" fill="#692f23"/><path d="M41.11,153.45l102.59,0,.23-.71-104.48-.09-.95.06a.57.57,0,0,0-.36.56c0,.47,0,1.67,0,1.67a.44.44,0,0,0,.49.5c.56,0,1.94-.07,2.12.13a2,2,0,0,1,.38,1.39c0,.86.09,55.24.09,55.24s0,1,1.63,1.18,1.73-.89,1.72-1.48.27-14.61.33-15.19,0-1.33.89-1.33,115.26.09,115.54.12.73-.09.8,1,.13,12.68.12,13.62a7,7,0,0,0,.47,2.72,1.61,1.61,0,0,0,1,.62,4.74,4.74,0,0,0,1.75-.56,13.63,13.63,0,0,0,.74-1.33l-.48-53-.73-.25s.32,53.08.17,53.36-.59.84-1,.71-.86-.22-.92-1.81S163,196,163,196a1.45,1.45,0,0,0-1.54-1.27c-1.45,0-115.61.07-115.69,0a1.68,1.68,0,0,0-1.51,1c-.37.92-.38,15.9-.38,15.9s.07.74-.83.83-.87-.43-.92-1.24-.18-55.36-.18-55.36-.13-1-.77-1.07a16.62,16.62,0,0,0-1.84-.07s-.37,0-.37-.77C39,153.42,39.23,153.37,41.11,153.45Z" fill="#692f23"/><path d="M85.9,152.5a1.78,1.78,0,0,1-1-1.21c-.4-1.08-.34-20.37-.21-21.2s.38-2,1.84-2.13,36.5-.28,37.21-.12,1,.15,1,1.89.15,20.86.12,21.17-.24,1.86-2.58,1.92a13.62,13.62,0,0,0,2.31.33,1.91,1.91,0,0,0,.74-.33s.44-.33.47-1.42,0-22.05,0-22.05S125.7,127,124,127s-38,.12-38,.12-2.25.13-2.49,2.16.15,22,.15,22,0,1.29,1,1.57a5.86,5.86,0,0,0,2.46-.09S86.1,152.74,85.9,152.5Z" fill="#692f23"/><path d="M75.42,146.79s-2.26-22.25-2.07-24.9.67-4.17,3-5.24,6.28-1.52,13.23-1.66,22.85-.75,25.22,0,3.69,3.82,3.82,5.57,0,6.57,0,6.57l1,0,0-.59.15-.92a47.9,47.9,0,0,0-.3-6.31c-.33-1.12-1.55-4.84-4.83-5.48s-31.65.25-34.72.68S74,116,73,118.13s-.61,6.54-.44,8.67,1.84,19.89,1.84,19.89S75.46,147.1,75.42,146.79Z" fill="#692f23"/><path d="M59.91,141.25a.37.37,0,0,0-.23-.27l0,0c-.3-.16-1.69.43-4.06.36a33,33,0,0,1-3.76-.3c-1.23-.21-1.15.24-1.15.24s.46,9,.65,10.27.8,1.2.92,1.3,5.62,0,6.1-.06.62-.41.77-1.15S60.05,141.75,59.91,141.25Zm-1.42,9.53c-.16,1-.31,1.26-1,1.54a11.92,11.92,0,0,1-4.23,0c-.84-.22-1-.62-1-.62s-.52-9-.59-9.85a20.25,20.25,0,0,0,3.16.17l4.17-.18S58.65,149.79,58.48,150.78Z" fill="#692f23"/><path d="M188.14,71V53.8s.13-1-1.33-1.07S85,52.74,85,52.74s-.86,0-.89,1.24,0,60.33,0,60.33h-.83V54.1s-.24-2,1.36-2,102.31,0,102.31,0,1.54-.06,1.66,1.24.2,18.21.2,18.21Z" fill="#692f23"/><polygon points="41.61 155.67 143.17 155.9 143.34 155.04 41.17 154.78 41.61 155.67" fill="#692f23"/><path d="M129.4,17.72s0-2.82,1.5-3.63,3.39-1.69,5.06-.77,3,2.13,2.88,3.44,0,1.72.44,1.81a12.57,12.57,0,0,1,4.79,1.67A38.21,38.21,0,0,1,151.37,27c1.34,1.88,3.48,5.81,3.61,7.21a9.19,9.19,0,0,1-.07,3,.74.74,0,0,1-1,.22c-.27-.21-9.35-1.74-21.32-1.4S116,36.93,115,37.23s-1.28.63-1.43.58-1-.63-.85-1.33,1.83-6.82,2.78-8.35,3.17-5,5.83-6.32S127,18.41,129.4,17.72Z" fill="#cf8a59"/><polygon points="44.96 194.99 44.9 155.52 44.21 155.52 44.07 196.84 44.96 194.99" fill="#692f23"/><path d="M106.75,138.8a2,2,0,0,0,1.14,1.71,3.66,3.66,0,0,1-2,2c-.44.18-.89-.25-1.39-.25s-.93.45-1.33.29a3.65,3.65,0,0,1-2.35-3.41,2.78,2.78,0,0,1,1-2.37c1-.87,1.74-.14,2.68-.14s1.59-.85,2.66.15a3.63,3.63,0,0,1,.41.45A1.74,1.74,0,0,0,106.75,138.8Z" fill="#692f23"/><polygon points="135.09 52.66 135.07 153.03 135.97 152.97 135.97 52.61 135.09 52.66" fill="#692f23"/><path d="M140.27,103c-.35,0-.45.2-.62.66a4.57,4.57,0,0,0-.11,1.26c0,.77,0,1.43,0,2.2,0,2.18,0,3.4,0,5.86,0,.35,0,.79.36.92a.6.6,0,0,0,.68-.27,1.47,1.47,0,0,0,.21-.76c.11-3.27.1-5.77-.06-9,0-.35-.14-.8-.49-.77a.53.53,0,0,0-.55.38" fill="#692f23"/><path d="M130.56,103c-.35,0-.45.2-.62.66a4.57,4.57,0,0,0-.11,1.26c0,.77,0,1.43,0,2.2,0,2.18,0,3.4,0,5.86,0,.35,0,.79.36.92a.6.6,0,0,0,.68-.27,1.47,1.47,0,0,0,.21-.76c.11-3.27.1-5.77-.06-9,0-.35-.14-.8-.49-.77a.53.53,0,0,0-.55.38" fill="#692f23"/><path d="M114.61,39.42c1.85.67,11.35,1.2,20,1.22A92.67,92.67,0,0,0,152.85,39c1.64-.46,2.89-.82,2.82-2.36s-.48-6.68-6.36-12.76-7.4-5.12-9.34-6.17c-.44-.23-.46-.18-.67-1.55a4.42,4.42,0,0,0-1.73-2.8,3.7,3.7,0,0,0-2.67-1.2L135,.57a.57.57,0,0,0-.64-.57c-.55,0-.6.76-.6.76l-.08,11.45a4.16,4.16,0,0,0-3.21,1.62,6.4,6.4,0,0,0-1.26,2.92s-.22,1-.93,1.22A53.25,53.25,0,0,0,123.33,20c-5.43,2.84-6.72,5.16-8.72,8.47s-2.84,8.38-2.53,9S112.76,38.75,114.61,39.42Zm37.65-1.1a53.54,53.54,0,0,1-9.48,1.05c-3.92.11-18.29.32-26-.38-2-.19-2.32-.65-2.36-1s.44-.53,1.18-.67,6.3-.69,9.46-.85c14.83-.73,23.22.22,23.56.26a26.24,26.24,0,0,1,3.92.55C153.23,37.61,152.9,38.05,152.26,38.33Zm-19.73-24.6c2.3-.74,3.52-.07,4.16.38a5.17,5.17,0,0,1,1.74,2.41.9.9,0,0,1-.74,1.08c-.53.13-7,0-7,0a.73.73,0,0,1-.54-.75A3.55,3.55,0,0,1,132.53,13.73ZM116.72,27.17c3.37-5.73,10.19-8,13.39-8.47a28.61,28.61,0,0,1,12.3,1.05c4.13,1.37,10.42,10.09,11.67,13s.55,4.15.25,4.21-3.7-3.58-35.94-1a20.08,20.08,0,0,0-4.22.81c-.54.17-1,.41-1-.05S113.35,32.89,116.72,27.17Z" fill="#692f23"/><polygon points="212.21 69.05 210.9 69.15 211.19 75.97 246.38 76.21 246.57 69 212.21 69.05" fill="#fff"/><path d="M211.19,93.2s-.31-1.19,1.21-2.27,5.61-1.69,9-.68A51.5,51.5,0,0,0,230.16,92c1.16.07,6.22-.87,7.45-.48s6-.85,6.78-.77,2.08.56,2.13.82.85,12.25-.53,14-7.45,4.74-7.91,5.28a10.89,10.89,0,0,0-1.38,2.32c0,.15-13.36.44-13.36.44s-.85-2.71-1.36-2.81-6.8-2.25-7.07-2.42-2.86-2.42-3-3.58S211.19,93.2,211.19,93.2Z" fill="#d1e1e5"/><path d="M214.58,113.63s-1.43-.07-1.79.77-.36,1.48,0,1.74,5.66.39,5.86.39l30-.15s.58-.68.39-1.26-3.22-1.65-3.53-1.6S214.58,113.63,214.58,113.63Z" fill="#e8e8e8"/><path d="M212.23,116.63a7.17,7.17,0,0,0-2.59,1,4.66,4.66,0,0,0-1.69,3.73c-.12,1.86-.29,13.84-.29,13.84l0,70.62a13.5,13.5,0,0,0,5.52,1.11c3.44,0,38-.1,38-.1s2-.31,2.66-1.36.39-14.08.39-14.08l0-69.26s-.44-4.5-3-5.13-8.28-.39-8.28-.39Z" fill="#e8e8e8"/><path d="M253.53,117.87c-1-1.65-3.75-2-3.75-2l-.07-.69a2.52,2.52,0,0,0-1.87-2c-.58-.11-5-.14-10.55-.13a3,3,0,0,1,1.18-1.49c.88-.53,2.61-1.3,4-2.09a10.69,10.69,0,0,0,3.65-3,11.28,11.28,0,0,0,1-4.77c0-1.63,0-33.19,0-33.19S247,63.92,245.43,62s-2.41-1.9-10.92-1.9l0-23.3s.08-.92-.65-1.16c-1.12-.37-29.12-.07-29.12-.07s-1.53-.14-1.57.9-.17,22-.17,22l.28,19.77s0,1.92,1.24,2c1.08,0,4.43.08,6,.1,0,9.12,0,20.68,0,20.68a11.38,11.38,0,0,0,1.15,5.22,9,9,0,0,0,4.1,3.17c1.21.48,4.05,1.15,5.22,1.86a2.42,2.42,0,0,1,1.39,1.89c-4.28,0-7.24.08-7.24.08s-2.37-.11-3,1.09a3.23,3.23,0,0,0-.24,1.09,2.67,2.67,0,0,0,.09.93,6.64,6.64,0,0,0-3.69,2.12,6.8,6.8,0,0,0-1.18,4.21c-.06,1.33,0,78.59,0,78.59s0,1.69.06,3.54a2.41,2.41,0,0,0,2.16,2.5s40.88.17,43.13.11,2.43-1.77,2.43-1.77l.06-2.32v-80.4A11.07,11.07,0,0,0,253.53,117.87Zm-49.35-63.7s-.07-15.68,0-16.44c.06-1,.74-1.1.74-1.1l1.65-.07s24.95-.07,25.58-.1a1.06,1.06,0,0,1,1,.46c.24.22.22,1.4.22,1.4s.26,16.63-.14,17.26c-.23.37-1.33.32-1.33.32H206.12a3.92,3.92,0,0,1-1.32-.22C204.17,55.51,204.18,54.17,204.18,54.17Zm6.29,25.05-5.33,0s-.9-.06-.9-.9,0-19.88,0-19.88-.07-1.66.79-1.68h27.12s1,.08,1.07.9,0,2.13,0,2.42c-8.17,0-17,.25-17,.25a6.53,6.53,0,0,0-4.44,1.57c-.1.1-.86.65-1.17,3.39C210.65,65.32,210.47,77.73,210.47,79.23Zm1.07-13.43a5.27,5.27,0,0,1,1.1-3.14c1.25-1.32,3.41-1.39,4.46-1.43s24.78,0,24.85,0a3.76,3.76,0,0,1,2.84,1.85A14.69,14.69,0,0,1,246,68.44l-34.51,0Zm0,3.66h34.55v6.19l-34.51,0C211.56,72.93,211.55,70.67,211.55,69.46Zm0,7.15H246v14a5.24,5.24,0,0,0-2.32-.28c-1.36.14-4.11.91-5.38.8a15.35,15.35,0,0,0-4.16-.34,34,34,0,0,1-5.76.41c-2.6-.14-7-1.84-9.83-2a10.66,10.66,0,0,0-5.64,1.09c-.46.2-.94.35-1.2.47C211.65,86.12,211.61,80.85,211.59,76.61Zm8,32.88c-1.35-.44-4.37-1.18-6.07-2.72s-1.63-3.24-1.74-4.8c0-.53-.08-4.6-.13-9.74a8.14,8.14,0,0,1,2-1.05,11.32,11.32,0,0,1,4-1,31.13,31.13,0,0,1,6.57,1.43,24.41,24.41,0,0,0,5.92.91c1.38,0,4.31-1,6.1-.57a12.42,12.42,0,0,0,4.73.13c.8-.14,2.42-.88,3.69-.81s1.23.31,1.24.36h0l.14,9s0,4.14-1.42,5.7-4.69,3.21-6,3.8-2.53,1.55-2.63,2.93c-4.15,0-8.72,0-12.53.06a2.17,2.17,0,0,0-.42-1.5A6.88,6.88,0,0,0,219.63,109.49ZM213,114.76c0-.56.77-.5,2.06-.56s32.28.11,32.28.11,1.21.08,1.23.85-.09,1.11-1,1.13c-1.28,0-33-.27-33-.27a3.81,3.81,0,0,1-1.21-.09C213,115.77,212.94,115.36,213,114.76Zm-2.57,3a9.36,9.36,0,0,1,2.4-.78c.38-.07,1.73-.15,1.73-.15h34.83s2,.29,2.61,1.31a4.8,4.8,0,0,1,.88,2.65c-.08.57,0,1.56-3.58,1.56H209.73a1.49,1.49,0,0,1-1.22-1.6A3.56,3.56,0,0,1,210.4,117.79Zm41.23,88.15s-40.35.17-41.67,0-1.5-2.18-1.5-2.18l-.06-2.5-.21-76.41a1.28,1.28,0,0,1,1.31-1.41c.93,0,41.91,0,41.91,0s2.07-.15,2.1,1.48c0,1.37,0,78.4,0,78.4C253.55,206.13,251.64,205.94,251.64,205.94Z" fill="#692f23"/><path d="M108.62,115Z" fill="#692f23"/><path d="M99.49,128l-.07.26Z" fill="#692f23"/><path d="M126.39,115.48h0v0Z" fill="#692f23"/><polygon points="149.34 152.76 160.13 152.76 159.98 153.47 149.13 153.48 149.34 152.76" fill="#692f23"/><polygon points="148.75 155.1 159.62 155.1 159.47 155.79 148.47 155.79 148.75 155.1" fill="#692f23"/><path d="M189.89,49.78c-1.3-.06-105.21,0-105.21,0a3.28,3.28,0,0,0-2.49.59c-1.24.89-1,3.64-.95,3.79s0,60.45,0,60.45h1l-.12-60.45s-.33-3.4,2.43-3.61,104.56,0,104.56,0,1,0,1,.81c0,.25,0,1.77,0,1.77,0,3.76,0,18.92,0,18.92l.89.18V51.14A1.21,1.21,0,0,0,189.89,49.78Z" fill="#692f23"/><polygon points="191.07 77.87 191.07 89.6 190.38 88.94 190.31 78.23 191.07 77.87" fill="#692f23"/><polygon points="189.4 79.07 189.47 88.4 188.76 87.98 188.75 79.54 189.4 79.07" fill="#692f23"/><path d="M191.11,127.93l-.25,56.85,0,1.23-25-.62v-1l23.49.73a.79.79,0,0,0,.83-.87l.33-56.34S191.11,127.17,191.11,127.93Z" fill="#692f23"/><polygon points="189.65 141.72 189.55 181.65 188.87 180.8 189.02 148.03 189.65 141.72" fill="#692f23"/><rect x="222.83" y="135.14" width="4.33" height="1.45" fill="#cb331e"/><rect x="235.27" y="135.14" width="4.33" height="1.45" fill="#aad1ef"/><path d="M139.5,97.21s.23-.62.73-.29a6.88,6.88,0,0,0,1.19.58s-.47-.7,0-1.19.8-.92,1.4-.68a8.53,8.53,0,0,1,2,1.38c.33.34,1.81-.33,2.32-.07a9,9,0,0,1,1.43,1.14s.5.29.77.22.29-.68.75-.65.9.42,1-.56-.17-1.31,1.4-2.23a11.73,11.73,0,0,0,3.8-4.14c1.17-1.83,2.87-4.43,4.6-5.11s3.78-1.67,3.78-1.67l-.1-1.89a19.66,19.66,0,0,1,3.24-.1,20.26,20.26,0,0,0,6-.44c2.13-.52,4.39-1.43,4.5-1.43a22.84,22.84,0,0,1,.48,3c0,.16.22.16,1.16.48a50.34,50.34,0,0,1,6,3.17c1.05.73,4.21,1.61,6.39,4.84S194.21,96,195,97.23s3.24,4.76,3.65,6.63,1.73,4.54,1.23,6.78-1.52,5.52-2.42,6.63a21.28,21.28,0,0,1-4.62,3.56c-.71.3-.65,1.31-.68,1.81s.92,3.16-.12,4.07-4.13,1-4.26,1-5.57,1.29-6.41,1.14-1.84-.44-1.84-.44l-1.91-5.78s2.17-.13,2.77-.19,1.2-1.08,1.27-1.69-.47-4.56-.85-4.94a12.94,12.94,0,0,0-5.08-1.11c-1.5.08-4.63.74-5.11,1.45s-.83,1.28-.65,1.86a12.13,12.13,0,0,0,1.4,2.11s-.15.45,0,.58a2.17,2.17,0,0,0,.68.22s.4.85,0,.87-3.18.35-4.53-.6a56.63,56.63,0,0,0-9.07-4.31,44,44,0,0,0-5.69-.65l-.68-4a6.58,6.58,0,0,1-3.65-.15,16.19,16.19,0,0,1-2-1.16s-1.14.8-1.94.41-2.52-1.61-2.61-1.6-2.2-.59-3-.68-1.33-.28-1.31-1.19a13.84,13.84,0,0,1,.7-2.83s-1.26-.13-1.43-.82-.18-.85.22-1a4.86,4.86,0,0,0,2-2.47c.13-.91.41-3.36.41-3.36Z" fill="#fff"/><path d="M181.23,128.59c-.09-.09-9.55.36-9.55.36l-.91,3.34a16.36,16.36,0,0,1,1.92,3.56c.51,1.58,1.47,7.73,2.54,8.35a16.59,16.59,0,0,0,4.13,1l8.28-.05a19.3,19.3,0,0,0,1.74-4.28,41,41,0,0,0-.62-5.55c0-.11.76-4.16.76-4.5s-.11-3.23-.11-3.23Z" fill="#fd8204"/><path d="M155.23,115.7s-1.74-8-1.69-9.24.21-2.47,1.28-3,1.68-.82,2.18.15,2.13,9.66,2.13,9.75.73,3.75.73,3.75Z" fill="#c7c0b1"/><path d="M166.1,99.84a38.6,38.6,0,0,1,3.29,7.43c.87,3.25,2.66,7.91,2.66,7.91l1.52-.39,1.74-.56s-4.95-13.46-5.74-14.06a13.13,13.13,0,0,0-3.68-1.33C165.88,98.92,165.81,99.17,166.1,99.84Z" fill="#c7c0b1"/><path d="M152.16,131.57,121.3,237.42a3.65,3.65,0,0,0,.94,1,13.77,13.77,0,0,0,2.32.29l.94-2.69,29.26-102.51Z" fill="#c7c0b1"/><path d="M187.49,146.07c.05,0-2,8.19-2.06,8.25s-4.42-.22-4.69-.27-2.94.75-3,.68-1.39-4.84-1.28-5.9a1.39,1.39,0,0,1,1.6-1.19l3.32,0S186.72,145.46,187.49,146.07Z" fill="#d2a274"/><path d="M174.59,122.93s3.77,11,9.42,25.77c12.53,32.74,33,85.13,33.2,85.16l1.88.25a16.19,16.19,0,0,0,.59-1.55c0-.25-42.36-109.81-42.25-110S175.93,121.77,174.59,122.93Z" fill="#c7c0b1"/><path d="M166.31,151.61l3.41,11.83,23.81,69.62a4,4,0,0,0,2.32-.51,3.86,3.86,0,0,0,1.67-2.32s-14.14-41.65-22.23-65.49c-.09-.28,1.64.07,1.55-.2s-2.11-1.44-2.25-1.85c-2.86-8.42-4.8-14.16-4.81-14.21s-2.32-.51-2.61.29S166.31,151.61,166.31,151.61Z" fill="#c7c0b1"/><path d="M173.14,123a10.44,10.44,0,0,0-3.63,4.07c-.49,1-5.15,13-9.37,36.7-6.27,35.28-16.7,82.44-16.7,82.44a14.42,14.42,0,0,0,2-.15c.18-.11,1.23-1.09,1.23-1.09L170,135.85s1.23-6.68,2.25-8.35a8.66,8.66,0,0,1,2.18-2.76C174.7,124.71,175.43,120.75,173.14,123Z" fill="#c7c0b1"/><path d="M172.58,122.7a27.56,27.56,0,0,0-2.47,2.9,34.76,34.76,0,0,0-2.64,6.33c-.33,1.27-3.92,13.87-4.28,16.41s-19.75,97.86-19.75,97.86l-.65.94-2.11-.73.65-3.56,22.37-103.08s1.43-8.17,2.24-9.15,1.6-5.23,3-7,2.65-2.11,3-1.89.81.08.53.93" fill="#e2ddd3"/><path d="M152.76,116.2s-1.42-9.32-1.36-10,.27-3.24.92-4.09A7.26,7.26,0,0,1,155,100.5c.77-.4,5.22-2.35,6.39-2.35s3,.23,3.94,1.21,2.84,5.14,3.56,6.56,2.83,8.66,2.83,8.66l0,.77a5.93,5.93,0,0,1-.8.44c-.1,0-.45-.54-.56-.73s-3.93-10.79-4.26-11.18-2.09-2.76-3.36-2.73-4.73,1.48-4.82,1.5a22.59,22.59,0,0,0-3.22.92,1.81,1.81,0,0,0-1.11,2.3c.38,1.73,1.69,9.83,1.69,9.83Z" fill="#e2ddd3"/><path d="M152.16,131.57,121.3,237.42s-1.71,1.06-2,.15.94-3.92.94-3.92l30.27-102.87S152,130.41,152.16,131.57Z" fill="#e2ddd3"/><path d="M150.09,148.45s10.58-.4,10.93-.22,1-3.16,1-3.16l-12.56,1.09a.81.81,0,0,0-.87,1.05c.21,1.13.64.48,1.52.51" fill="#e2ddd3"/><path d="M148.07,208.94l-14.67-5.66s-1.09.29-.87,1.11,1.94,1.94,2.76,2.23,12.25,4.89,12.25,4.89Z" fill="#e2ddd3"/><path d="M166.57,154.48c.09.16,27,78.59,27,78.59s-.21,1.06-1.39.59-1.8-2.48-1.8-2.48L165.15,157S165.33,152.26,166.57,154.48Z" fill="#e2ddd3"/><path d="M173.39,124.92l14.78,39.53s-.27.84-.94.58-16.77-.44-16.77-.44,0,0,.31.72,8.69.88,8.69.88l10,.36,5.47,16.31s-.27,1.37-.6,1.33-16.92-2.77-17-2.78-1.21-.25-1.14.29-.07,1.29.73,1.55,18.17,3.24,18.17,3.24,1-.07,1.36.51,5.28,13.5,5.28,13.5-.39.63-4.14-.29-14.75-2.89-15-2.86-1.25-.31-.87.6.7,1.36,2.11,1.69,18.8,3.61,18.8,3.61l6.41,15.8-21.32-4.82a2,2,0,0,0,.27,1.65c.53,1.06,3.3,1.49,3.94,1.67s18,3.85,18,3.85l5.08,12.75s1.69.28,1.72.1a3.07,3.07,0,0,0,0-1.36c-.18-.62-7.14-19-7.14-19l-6.95-17.69-6-14.64L189,161.14l-13.38-35.53-.68-.7-1,0Z" fill="#e2ddd3"/><path d="M187.39,163.56c-.06,0-4.67,1-4.67,1s2.34.52,2.42.51l2.71-.17S188.11,163.54,187.39,163.56Z" fill="#c7c0b1"/><path d="M181.32,179c-.06,0-2.07-.22-2.25-.22s-3.41,1.67-3.41,1.67.41.93.9,1S195,184.35,195,184.35s.33-1.6.07-1.81L193.3,181Z" fill="#c7c0b1"/><path d="M185.43,195.46c-.07,0-2,1.86-2,1.86l17.79,3.41s.38-1,.29-1-1.19-2.32-1.19-2.32Z" fill="#c7c0b1"/><path d="M187.83,213.12a4.1,4.1,0,0,0,0,.94c.07,0,21.25,5,21.25,5s-.91-2.7-.94-2.83a11.45,11.45,0,0,0-1.86-.65s-15.52-3.86-15.58-3.85S187.83,213.12,187.83,213.12Z" fill="#c7c0b1"/><path d="M170.13,118.57s-.51-1.36.07-2a6.56,6.56,0,0,1,5.3-2c3,.22,4.65.45,5.12,1.2s1.32,4.76.87,5.41-.62,1.14-1.13,1.23-5.15-.27-5.26-.25a1.92,1.92,0,0,1-1.52.07A3,3,0,0,1,172.3,121a3.62,3.62,0,0,1-.93-.29c-.11-.13,0-.75,0-.75s-.58.08-.68-.44,0-.67,0-.67S170.08,118.66,170.13,118.57Z" fill="#f9e5cc"/><path d="M139.24,97.67l-1.71-4.86a18,18,0,0,0-1.63-1.56s-.36,2.14-.36,2.25,0,.58,0,.58c-.16,0-3.92-3-4.46-2.76s-1.22.69-1,1.42c0,0-1,.71-1.09,1.16a4.13,4.13,0,0,0,.36,1.42s-.38-.18-.36.69a5.92,5.92,0,0,0,.44,1.85s-.44.31,0,1a11.44,11.44,0,0,0,2.65,2.25,10.3,10.3,0,0,0,2.47,1.27,8.77,8.77,0,0,0,1.85.07c.24,0,.33.34.51.51s.49.38,1.2-.44A4.66,4.66,0,0,0,139.24,97.67Z" fill="#f9e5cc"/><path d="M167,126.74c0-.19-3.3-5.06-3.59-5.37s-2.65-5.35-6.79-5.12-5.9,1.32-6.68,2.9-2.09,6-1.16,7.7,2.32,3.9,3.67,4.72a13,13,0,0,0,5,1.16c.78,0,5.19-.24,6-1.05s.8-2,1.2-2.25,1-.13,1.38-.29A2.89,2.89,0,0,0,167,126.74Z" fill="#fd8204"/><path d="M154.77,133.53a12.47,12.47,0,0,0,1.77,2.3,35.19,35.19,0,0,0,5.3,1c.5,0,1.57.1,2-.24a5.78,5.78,0,0,0,1-2.44c0-.31-.38-2.94-.39-3.1s-2.73,1.6-4.74,1.62S154.13,132.47,154.77,133.53Z" fill="#d2a274"/><path d="M156.13,136.65c-.1,0-3.45,1.44-4.09,2.66s-1.37,2.3-1,3.41,1.31,3,2.27,3,6.9-.22,6.9-.22a12.93,12.93,0,0,0,1.6-.27c0-.07,1.67-4.89,1.69-5s0-2.46-.07-2.59S157.74,136.3,156.13,136.65Z" fill="#efb000"/><path d="M177.3,155.07a7.61,7.61,0,0,0-.85,2.3c0,.7-1.38,1.91-1.43,3.41a3.17,3.17,0,0,0,1.45,3.07c1,.57,3.34.67,4.65.7a42.24,42.24,0,0,0,5-.68c.1,0,1.57-.39,1.57-.39l-3.65-9.27S178.27,154.08,177.3,155.07Z" fill="#efb000"/><path d="M131.08,90.55c0-.09-1.77-3-1.36-4.55s1.08-3.1,3-3,4-.36,4.38,1,.8,1.94.51,3.24a13,13,0,0,1-1.38,3.39c-.28.39-2.5.39-2.61.44S131.5,91.4,131.08,90.55Z" fill="#efb000"/><path d="M131.73,91.29a9.45,9.45,0,0,0,1.67,1.56c.54.36,2,1.19,2,1.19a2.4,2.4,0,0,0,.07-.75c0-.35.11-1.84.12-2A10.09,10.09,0,0,0,131.73,91.29Z" fill="#e2ddd3"/><path d="M219.46,233.28s-1.77.92-1.89.92l-2.52,0a1.67,1.67,0,0,0,.48,1.33,4,4,0,0,0,2.71.82c.53-.19,1.72-1.23,1.74-1.79A2.46,2.46,0,0,0,219.46,233.28Z" fill="#c7c0b1"/><path d="M197.63,231.1s-3.22,2.15-3.34,2.18-3-.15-3-.15.36,1.22.76,1.41A10.2,10.2,0,0,0,196,235a4.26,4.26,0,0,0,2.08-1.84C198.26,232.58,198,231.1,197.63,231.1Z" fill="#c7c0b1"/><path d="M145.79,245.77s-2.37,1.52-3,1.38-2.4-.56-2.42-.36-.6,1.72-.1,2.13a7.08,7.08,0,0,0,3,.73,4.72,4.72,0,0,0,2.13-1,5.31,5.31,0,0,0,1.06-2.23C146.42,246.16,145.84,245.48,145.79,245.77Z" fill="#c7c0b1"/><path d="M168,144.89a5.63,5.63,0,0,0-.8,2.29c.05.47,2.05,1,2.72.91L180.58,147s.51-.83.33-1.13a4.5,4.5,0,0,0-.94-1.31C179.58,144.37,168,144.89,168,144.89Z" fill="#e2ddd3"/><path d="M159.88,56.46s-1.21,1.8-1.09,2.59.29,1.8.29,1.8l-1.38.56a18.18,18.18,0,0,1-2.71.68c-.58,0-2.42.06-2.42.06l-.12,2.76s-.23,7.22,3.28,11,7.49,6.26,11.86,6.15,9.16-1,11.23-2.48,4.61-4.12,5.13-5.47l.63-1.24a3.88,3.88,0,0,0,1.67-1.3c.52-.85,1-2.37.52-3.38a1.94,1.94,0,0,0-2.48-.9,3.32,3.32,0,0,0-1.32.62,24.2,24.2,0,0,1-3.4-2.76,38.94,38.94,0,0,1-2.07-3.89,2.06,2.06,0,0,1-1.61.45,16,16,0,0,1-2.88-.11,14.11,14.11,0,0,0-4-1,39.49,39.49,0,0,0-4.55.45c-.58.17-2,.51-2,.51l-.63-1S160.46,56.91,159.88,56.46Z" fill="#f9e5cc"/><path d="M166,67.78s-.21-1.28.65-1.75a5,5,0,0,1,3.67.23c1.09.47,1.82.86,1.75,1.15a2.18,2.18,0,0,1-1.42,1,14.68,14.68,0,0,1-2.94.11,7.12,7.12,0,0,0-1.31-.47C166,68,166,67.78,166,67.78Z" fill="#fff"/><path d="M167,66.14a1.87,1.87,0,0,0-.19,1.33,1.26,1.26,0,0,0,1.21.85,2,2,0,0,0,1.4-.79,1.25,1.25,0,0,0-.1-1.32C169.08,65.9,167.48,65.62,167,66.14Z" fill="#abd2f0"/><path d="M154.78,67.27c0-.08.06-1.3.79-1.43a3.93,3.93,0,0,1,2.19,0A2.62,2.62,0,0,1,159.27,67c.35.47.15.77.15.77s-.1.19-.75.34a3.17,3.17,0,0,1-1.9.17C156.14,68,154.87,67.91,154.78,67.27Z" fill="#fff"/><path d="M155.53,66.44a1.21,1.21,0,0,0,.54,1.24,1.66,1.66,0,0,0,1.63.11,1.33,1.33,0,0,0,.38-1c0-.41.1-.85-.63-.94S155.59,65.65,155.53,66.44Z" fill="#abd2f0"/><path d="M157.27,48.6s-2,2.5-2.61,3.46a15.27,15.27,0,0,1-2.92,2.59,11.76,11.76,0,0,0-2.86,4.74,9.25,9.25,0,0,0-.65,4.08,16.11,16.11,0,0,0-.78,4.51,14.62,14.62,0,0,0,2.06,5.72c.82,1,1.14,1,1.6,1.94a13.88,13.88,0,0,0,4.57,4.85,40.74,40.74,0,0,0,7.41,3.31,2,2,0,0,0,1.49-.19,5.8,5.8,0,0,0,.4-1.45c0-.34-.86-.26-1.35-.62s-4-1.22-6.14-3.91a26.06,26.06,0,0,1-4.12-6.37,42,42,0,0,1-.82-6.35,14.49,14.49,0,0,1,0-1.92,1,1,0,0,1,.9-.79,26.87,26.87,0,0,0,3.7-.49,9,9,0,0,0,2-.6c.15-.21-.11-1.67.13-2.59s1.07-1.56,1.18-1.94.53.83.88,1.52a11.47,11.47,0,0,1,1.07,3.14c-.1.39.67.15,1.45,0s4.78-1,5.87-.73,3.33,1,4.17,1.28A5.11,5.11,0,0,0,177,61.5c.59-.38,1.14,1.17,1.18,1.24s2,3.5,3.51,4.34,2,.39,2.29.38,1.33-.49,2.13-.08A2,2,0,0,1,187,70a27.08,27.08,0,0,1-1.77,2.67,7.23,7.23,0,0,0-.86.58c-.08,0-1.24,3.55-3.43,4.91S178.7,80,178.7,80s.23,3.29.25,3.37a2.78,2.78,0,0,0,2-.24c.93-.49,4.34-1.54,5-1.92A42.5,42.5,0,0,0,190.73,78a26.57,26.57,0,0,0,3.72-4,11.5,11.5,0,0,0,1.28-5.11,46.66,46.66,0,0,0-1.24-8.72,18.73,18.73,0,0,0-3.54-5.19,53,53,0,0,0-6.08-4.66c-.3-.09-4-2.61-5.07-3s-4.25-1.37-4.88-1.62a6.42,6.42,0,0,0-2.76-.49,2.81,2.81,0,0,0-1.18.71,4.7,4.7,0,0,0-2.12-.68c-.9.06-3.81.64-3.81.64a6.61,6.61,0,0,0-2.46.11A12.19,12.19,0,0,0,157.27,48.6Z" fill="#e09c51"/><path d="M160.15,51.16a3,3,0,0,1-1.21,1.35,15.36,15.36,0,0,0-3.46,2.71,8.16,8.16,0,0,0-1.59,4.47,6.6,6.6,0,0,0,.44,2.41l-1.57,0a49.71,49.71,0,0,1,0-5,19.72,19.72,0,0,1,2.71-6.41,16.74,16.74,0,0,1,3.34-3.23,21.34,21.34,0,0,1,3-1.11,23.66,23.66,0,0,1,3.63-.58,26.62,26.62,0,0,0,2.63-.41,3,3,0,0,1,2.15.26c.65.55.79.32.79.32a2,2,0,0,1,1.55-.73,5,5,0,0,1,4,2.27A35.89,35.89,0,0,1,178.37,51s-2.11-3.25-3.94-4-2.63.13-2.63.13.33,2.26.33,2.31a10.23,10.23,0,0,1-.08,2.46,3.6,3.6,0,0,0-3-3.27A5.23,5.23,0,0,0,164.53,50L165,48.6a7.49,7.49,0,0,0-2.34,3.91c-.42,2.31-.36,7.93,0,8.59l.1.23a.26.26,0,0,1-.35.08c-.25-.09-.42-1.37-1-2.14a15.89,15.89,0,0,1-1.46-5C160.06,53.58,160.15,51.16,160.15,51.16Z" fill="#e9b87f"/><path d="M120.81,238.24l3.41.85a2.7,2.7,0,0,1-.09,1.32,3.39,3.39,0,0,1-3,.85c-1.34-.21-2-.66-2.3-1.37a2.57,2.57,0,0,1,.13-1.75Z" fill="#c7c0b1"/><path d="M153,53.72a21.16,21.16,0,0,0-1.73,3.37,8.6,8.6,0,0,0-.31,4.36c.33,1.05.25.3.25.3a8.15,8.15,0,0,1,.65-2.82c.56-1,.92-1.09.92-1.09s.81-3.65.86-3.7S153.54,53.19,153,53.72Z" fill="#e9b87f"/><path d="M150.19,61.93A12.4,12.4,0,0,0,148,66a9.75,9.75,0,0,0,.21,4.66c.4,1.2,1.11,2.9,1.59,3.2s.65-.08.65-.08A10,10,0,0,1,149,69.64c-.29-2.44.88-6.41,2-7.33,0,0,.19-.51-.1-.51A1.09,1.09,0,0,0,150.19,61.93Z" fill="#e9b87f"/><path d="M168,63.68a13.09,13.09,0,0,1,2.14.16,6.53,6.53,0,0,1,1.8,1c.41.37.34.12.34.12a4.34,4.34,0,0,0-1.16-1.2,6.62,6.62,0,0,0-3.49-1s-.66,0-.73.4C166.85,63.29,166.91,63.59,168,63.68Z" fill="#692f23"/><path d="M155.19,64.24s1.29-.47,1.66-.55a4.47,4.47,0,0,1,1.26-.06c.35,0,.59-.06.59-.27a.55.55,0,0,0-.54-.5,8.5,8.5,0,0,0-1.31.26,5.57,5.57,0,0,0-1.29.5,1.5,1.5,0,0,0-.48.48A.13.13,0,0,0,155.19,64.24Z" fill="#692f23"/><path d="M171.37,66.56a6.52,6.52,0,0,0-3.17-1.09c-1.82-.17-2.26.7-2.37,1.2a6.46,6.46,0,0,0,0,.65,3.17,3.17,0,0,0,0,.74c.06.11.33,0,.48.06s1.44.39,1.82.46h.11a6.3,6.3,0,0,0,2.52-.11,3,3,0,0,0,1.44-.75c.26-.25.23-.4.23-.4S172.5,67.09,171.37,66.56Zm-4.26,1.53c-.29-.11-.73-.23-.87-.52a1.55,1.55,0,0,1,.45-1,1.38,1.38,0,0,0-.08.51,1.34,1.34,0,0,0,.65,1.11Zm.09-.37a1.16,1.16,0,0,1-.28-.79c0-.2.08-.58.35-.62h.05a.32.32,0,0,0,.11.62h0a.63.63,0,0,0,.67.54c.37,0,.65-.2.66-.53s0-.33,0-.33,0-.14.14-.19a.36.36,0,0,1,.4.19,1,1,0,0,1-.07.82,1.06,1.06,0,0,1-.91.63A1.3,1.3,0,0,1,167.2,67.72Zm4.42-.24a.57.57,0,0,1-.19.16,4.29,4.29,0,0,1-1.62.64,9.1,9.1,0,0,1-1.07.11,1.55,1.55,0,0,0,.89-.6,1.39,1.39,0,0,0,.18-1.11,1.45,1.45,0,0,0-.22-.49h0a9,9,0,0,1,1.93.91.55.55,0,0,1,.1.12A.21.21,0,0,1,171.63,67.48Z" fill="#692f23"/><path d="M162.25,72.73a2.06,2.06,0,0,0,1.61-.29c.27-.18.38-.42.2-.54s-.47.06-.47.06a3.23,3.23,0,0,1-1.24.16,1.87,1.87,0,0,1-1.24-.41c-.2-.12-.28,0-.07.3A1.6,1.6,0,0,0,162.25,72.73Z" fill="#692f23"/><path d="M159,68.08a2.17,2.17,0,0,1,.66-.06c.17,0,.29-.11.29-.21s-.13-.23-.25-.42-.33-.57-.5-.83a4,4,0,0,0-.81-.66l-.34-.2a3.78,3.78,0,0,0-1.39-.35,2.26,2.26,0,0,0-1.43.37,2.21,2.21,0,0,0-.62.88,1.37,1.37,0,0,0-.14.72c0,.17.28.3.28.3h0a5.33,5.33,0,0,0,1.41.69,5,5,0,0,0,1.67.11A3.63,3.63,0,0,0,159,68.08Zm-3.18-.22c-.18-.08-.66-.37-.66-.37a.56.56,0,0,1-.2-.64.23.23,0,0,1,0-.08.3.3,0,0,1,.26-.05c.12,0,0,.08.13.35a1.78,1.78,0,0,0,.52.81Zm1.51-.25a1.1,1.1,0,0,1-1.24-.17c-.31-.32-.34-.45-.34-.69s.12-.47.12-.47,0-.07.07-.08l.1,0a.35.35,0,0,0,.1.65h0a.59.59,0,0,0,.55.4.69.69,0,0,0,.73-.57.7.7,0,0,0-.2-.53l.12,0,.29,0a.59.59,0,0,1,.22.35A1,1,0,0,1,157.34,67.61Zm.32.26.06,0a1.13,1.13,0,0,0,.6-.81,1.37,1.37,0,0,0-.14-.84h0l.07.06a5.33,5.33,0,0,1,.88.85c.14.18.24.37.06.54s-.43.11-.62.11-.86.09-.86.09Z" fill="#692f23"/><path d="M170.93,74.72a6.75,6.75,0,0,0-2.24.76,13.28,13.28,0,0,1-4.65.76,16.75,16.75,0,0,1-4.23-.89,5,5,0,0,0-1.37-.55.64.64,0,0,0-.52.3c-.17.35.07.48.14.48a4.07,4.07,0,0,1,.91-.11,3.74,3.74,0,0,1,.93.45,12.19,12.19,0,0,0,4.7,1.1,10.61,10.61,0,0,0,4.5-1.1,4.19,4.19,0,0,1,1.58-.66,2.58,2.58,0,0,1,.85.28.54.54,0,0,0,.54,0,.36.36,0,0,0-.06-.41A1.89,1.89,0,0,0,170.93,74.72Z" fill="#692f23"/><path d="M166.29,78a8.39,8.39,0,0,1-2,.17,5.06,5.06,0,0,1-1.91-.33,3,3,0,0,0-.4-.09c-.19,0-.16.12-.16.12a1.59,1.59,0,0,0,.66.59,5.31,5.31,0,0,0,2.69.3c1.21-.12,1.57-.75,1.54-.81S166.45,77.95,166.29,78Z" fill="#692f23"/><path d="M219.89,232l-32.31-83.39c.06-.28.18-.88.23-1.2a4.66,4.66,0,0,0,0-1.06,3,3,0,0,0-.05-.33c.31-.13.86-.53,1.28-1.79a23.12,23.12,0,0,0,.79-6c0-1.12-.76-2.64-.67-3a14.12,14.12,0,0,0,.73-3.43,12.67,12.67,0,0,1,.62-3.65c.22-.37,1-.39,1.85-1.18s.45-2.22.45-2.41-.08-2.24-.1-3a9,9,0,0,1,1.41-1,15.87,15.87,0,0,0,4.21-3.71,19.42,19.42,0,0,0,2-6.49,15,15,0,0,0-1.56-7.33c-1.31-2.95-2-4.63-2.61-5.22a28.14,28.14,0,0,1-2.78-5.43,11.66,11.66,0,0,0-3.15-3.49,7.77,7.77,0,0,0-1.4-1c-1.2-.72-7.14-3.77-7.41-4a.57.57,0,0,1-.23-.53,31.11,31.11,0,0,0,3.4-1.2l2-1,.54-.35c2.43-1.68,6-4.47,7.47-7.39a11,11,0,0,0,.72-6.6c0-.36-.21-2-.21-2.55A16.89,16.89,0,0,0,194,58.88c-1-2-2.77-4.17-6.38-7a28.29,28.29,0,0,0-8.11-5c-3.21-1.34-6.34-2.21-7.37-2.11a2.23,2.23,0,0,0-1.55.55h0a5.72,5.72,0,0,0-.89-.45,2.86,2.86,0,0,0-.94-.15,25,25,0,0,0-2.73.38c-.35.08-1.14.14-2,.22a3.56,3.56,0,0,0-1,.12l-.6.1a15.85,15.85,0,0,0-3.77,1.53A12,12,0,0,0,156,49.42a15.17,15.17,0,0,0-1,1.51,15.44,15.44,0,0,1-1.91,2c-.08.1-1.15,1-1.89,1.76A12.76,12.76,0,0,0,149.62,57s-.18.27-.17.28a9.46,9.46,0,0,0-.67,1.79A24,24,0,0,0,148,62.3c-.45.79-.63,4.47-.63,4.47h0a13.18,13.18,0,0,0,.46,3.87,10,10,0,0,0,2,3.68l0,0c.21.26.36.33.41.41A24.15,24.15,0,0,0,152,77.5a22.49,22.49,0,0,0,3.23,3.09,41.8,41.8,0,0,0,4.29,2.57,12,12,0,0,0,2.38.58c.42.11.75.17.71.31a.4.4,0,0,1-.21.22,5.18,5.18,0,0,1-1.33.78,20.07,20.07,0,0,0-3,2.53,22.16,22.16,0,0,0-2.47,3.4,20,20,0,0,1-2.16,2.48h0a25.59,25.59,0,0,0-2,1.79,2.42,2.42,0,0,0-.62,2.15,1,1,0,0,0-.93,0c-.44.27-.39.66-.56.7s-1.25-1.22-1.68-1.35-2.11.14-2.61-.11-1.46-1.38-2.19-1.36a2.56,2.56,0,0,0-2.11,1.53s-.15-.53-.63-.41-.57.34-.93.21-.86-1.39-.88-2.4c0-.84-1.34-2.43-1.79-2.95.07-.11.15-.23.23-.38A8.52,8.52,0,0,0,138,85.73c-.21-2.61-1.83-2.95-2.91-3s-3.22-.34-4.38.59a3.69,3.69,0,0,0-1.39,3.58A9,9,0,0,0,131,91l0,0a1.11,1.11,0,0,0-.33,0,1.35,1.35,0,0,0-1.12,1.4,1.37,1.37,0,0,0,.07.47h0a1.25,1.25,0,0,0-1,1.24,1.49,1.49,0,0,0,.47,1.24c-.47,0-.59.66-.42,1.39a4.18,4.18,0,0,0,.42.94,1,1,0,0,0-.14.59,3.22,3.22,0,0,0,.36.85,2.87,2.87,0,0,0,.59.73,19.68,19.68,0,0,0,2.13,1.6,16,16,0,0,0,2.57,1.14c.91.23,1.85-.15,1.9.17s-.44.44-.34.88a3.38,3.38,0,0,0,1.7,1.54,5.23,5.23,0,0,0-.49,2.47,1.91,1.91,0,0,0,1.26,1.66c.34.14,1.85.27,2.39.48a24.73,24.73,0,0,0,3.45,1.68,7.15,7.15,0,0,0,1.77-.14,32,32,0,0,0,3.37,1.46,12.24,12.24,0,0,0,2.12,0c.28,1.52.56,3,.66,3.47a4,4,0,0,0-.84.5,8.81,8.81,0,0,0-3.12,4.35c-.93,2.89.11,6.73.42,7.77.12.24.31.57.63,1.21.27.34.44.63.4.82s-.25,1.58-.24,1.57c-.77,2.66-7.87,26.76-7.87,26.76-.13.44-.36,1.27-.36,1.27l-14.07,47.67-.27.93-.4,1.35c-.1.31-.23.79-.23.79L119,236.65a9.14,9.14,0,0,0-.43,2.55c0,1.15,1.2,1.85,2,2.15a5.2,5.2,0,0,0,2.3.11c1.26-.2,2-1.8,2-1.8s9.38-32.24,9.4-32.29c.25-.65.53-.59.53-.59l1.47.53,3.13,1.29,4.51,1.85,2,.82,1.49.61-7.26,34.31v0h0c0,.39-.56,2.27.22,3s2.25,1,4.21.34a3.34,3.34,0,0,0,2.19-2.58l7.49-35.74q.08-.44.19-.92s.28-1.38.38-1.77l5.31-25.38s.88-4.1,1.07-5.09l1.24-5.95s.61-2.74.79-3.65l2.07-9.56s.2-.45.56.73l6.3,20.33L191,233.18a5.71,5.71,0,0,0,1.14,1.36,4.68,4.68,0,0,0,3.57.76,3.44,3.44,0,0,0,2.81-2.22,4.58,4.58,0,0,0-.27-2.43s-3.58-10.28-4-11.25.08-.76.08-.76,13.63,2.8,14.57,2.91a1.51,1.51,0,0,1,1.22.63l.67,2,3.85,10.63a3.67,3.67,0,0,0,2,1.63,3.05,3.05,0,0,0,2.75-.45,2.68,2.68,0,0,0,.87-3A3.31,3.31,0,0,0,219.89,232Zm-.84.42a1,1,0,0,1-.71,1.28,1.24,1.24,0,0,1-1-.44l-17.39-44.28-6.35-16.79-9.77-24.82-8.31-23.25-.16-.3c-.15-.31-.33-.76-.18-.91a1.71,1.71,0,0,1,1.9.29c.51.59,2.08,5.6,2.44,6.65S185,143.77,185,143.77ZM176.13,120.15a3,3,0,0,0-1.52-.11c-.49.06-2,.35-2.19.42s-.88.29-.88,0,.35-.79,1-1a13.36,13.36,0,0,1,3.65-.72s.77-.19-.11-.35a9.07,9.07,0,0,0-3.65.55c-.69.32-1.09.62-1.35.46s-.13-.51.1-.81a4.22,4.22,0,0,1,1.42-1.21,7.58,7.58,0,0,1,2.31-.51c.71,0,1.31,0,1.38,0s.45-.29-.42-.46a6.3,6.3,0,0,0-4.21.8,7,7,0,0,0-1.05,1c-.15.14-.48-.14-.32-.62a2.2,2.2,0,0,1,.37-.69,5.38,5.38,0,0,1,3.08-1.66,31.79,31.79,0,0,1,6.36.48c.27.11.67,1,.76,1.38,0,0,.82,3.33.29,4a3.44,3.44,0,0,1-1.81,1.05,9.78,9.78,0,0,0-1.68-.38c-.56-.08-2,.06-3.15.07l-.74-.05s-1.1-.27-1-.61.48-.44.94-.51,1.89-.25,2-.24S176.32,120.32,176.13,120.15Zm-10.49,8.54a1,1,0,0,1-1.07-.53s-.32-.52-.08-.9.76-1.5,1-1.46.34.7.62.87.76.42.76.42S166.5,128.68,165.65,128.69Zm.17,1.35c-.06.15-.45,1.42-.74,2.44l-.16-2.83a.7.7,0,0,1,.34-.17C165.65,129.45,165.9,129.83,165.81,130Zm-18.57,30.41.26-1,10.9,0-.19.91Zm10.79.84-10,47.25c-1.12-.43-9.37-3.6-12.51-4.85L147,161.33Zm-10.31-2.61,2.28-8.42s.28-1.54.9-1.63,9-.06,9.82-.06l-2.14,10.11Zm2.4-11a1,1,0,0,1-.79-.73c-.11-.59,1.66-.59,1.66-.59a3.65,3.65,0,0,0,.76-.08l9.6-.45c-.1.33-.16.52-.17.52l-.26,1.21Zm7-10.25.1-.08-.1.08a3.29,3.29,0,0,1,1.1-.3,16.56,16.56,0,0,1,1.81,0l-.08.1c-.2.29-.94,2.86-1.12,3.14a.6.6,0,0,1-.65.28c-.27,0-3.12,0-3.45-.06s-.41-.11-.22-.53A33.65,33.65,0,0,1,157.14,137.48Zm-.39-3.14c.81.56,3.71.61,3.78.58h0a7,7,0,0,1-2.26.68,2.94,2.94,0,0,1-1.76-.67s-.22-.25-.44-.54C156.05,134.23,156.1,133.89,156.75,134.33Zm-1.21,10.19c-.52-.32,0-.37.59-.28a10.06,10.06,0,0,0,2.06-.16h.05c.87-.06,1,.31,1.18.81s-.65.42-.65.42l-2.31.06,0,0A5,5,0,0,0,155.54,144.53Zm-2.15-2.33c-.08.84-.52.64-.52.64-1.21-.5-1.25-.91-1.27-1.32a.64.64,0,0,1,.14-.38.54.54,0,0,1,.31-.16,4.62,4.62,0,0,1,1.15.11c.18.06.21.38.2.67h0S153.41,142,153.39,142.2Zm-.4,1.63a3.73,3.73,0,0,1,1.46,1.15,2.43,2.43,0,0,0,.5.43l-.7,0a7.77,7.77,0,0,1-1.83-1.32C151.87,143.46,152.62,143.73,153,143.82Zm1.8-.39c-.51-.18-.65-1.25-.67-1.47a.36.36,0,0,0,0,0c-.07-.46.15-.63.34-.67s3.41.15,3.87.14a.47.47,0,0,1,.51.42,5.87,5.87,0,0,1-.14,1.49l-.06,0h0a2.43,2.43,0,0,1-.6.17v0A9.54,9.54,0,0,1,154.78,143.43Zm.65-5.92c.8-.21.31.28-.51.9a3.2,3.2,0,0,0-1.12,1.71.75.75,0,0,1-.84.48,2.08,2.08,0,0,1-.58-.15c-.41-.3.22-1.05.22-1.05A7.13,7.13,0,0,1,155.43,137.51Zm-1.05-.86c.07-.35.37-1.86.63-2s.87,1.59,1,1.63a.3.3,0,0,0,0,.11A10,10,0,0,0,154.37,136.65Zm-1,.44a10.35,10.35,0,0,0-2,2.92,8.37,8.37,0,0,0-.48,1.77c-.15,1.08.11,2.6-.08,2.92s-.48.6-.56.59-1.34,0-1.82.74c2.24-7.68,3.69-12.64,3.75-12.78.28-.67.55-.67.76-.52a6.21,6.21,0,0,1,1.32,1.14C154.43,134.28,153.45,136.73,153.38,137.09Zm7.36,7.92a.85.85,0,0,1-.73-.7.49.49,0,0,1,.12-.48,2.38,2.38,0,0,0,.36-.08,4.4,4.4,0,0,1,1.14-.12,3.32,3.32,0,0,1-.18.93A.67.67,0,0,1,160.73,145Zm.22-2.22c-.28,0-1,.25-1.15.11s-.17-1-.14-1.29.83-.08,1.35-.08,1.18.09,1.56.14l-.25.88A9.56,9.56,0,0,1,161,142.79Zm1.49-2.22c-.15.22-.18.29-.51.31s-1.4-.1-1.57-.08-.6,0-.7-.11A6.69,6.69,0,0,1,160,139c.08-.35.71-1.22.85-1.69a4.25,4.25,0,0,1,1.34.48c.15.21.87.63.79,1A8.92,8.92,0,0,1,162.45,140.57Zm.32-3.9a6.32,6.32,0,0,0-2.87-.54l2.21-1.15c.31-.17,1.49-.84,1.88-.65a1,1,0,0,1,.49.65l-.12.42C164,136,163.47,136.9,162.77,136.66Zm-.18-2.78a17.33,17.33,0,0,1-4.75,0,3,3,0,0,1-1.34-.93,12.9,12.9,0,0,0,4.1.06,6.31,6.31,0,0,0,3.47-1.57C164.82,131.54,164.65,132.87,162.59,133.88Zm3.73-9a11.84,11.84,0,0,0-1.41-2.6.49.49,0,0,1,.17,0l1.88-.2a2.28,2.28,0,0,0,.53-.09,1.45,1.45,0,0,1,1.34.26c.48.51-.15,1.58-.73,2.36a8.82,8.82,0,0,0-.85,1.63A2.33,2.33,0,0,1,166.32,124.9ZM165,121a.39.39,0,0,0,.39-.39h0c.47.28.93.57,1.34.85.1.39-.68.36-.73.37s-1.08.11-1.35.11l-.38-.5-.14-1.54.68.37a.39.39,0,0,0,.18.74Zm-.73-2.5a34.8,34.8,0,0,0-3.77-1.31c-.19-.78-1-4.19-1.22-5.65-.27-1.66-1.16-6.65-1.18-7a1.77,1.77,0,0,1,.87-1.87,13.23,13.23,0,0,1,3.34-1.17c1.07-.16,2.82,1.08,3.68,3s4.18,11.16,4.29,11.48l-.14.18a3.21,3.21,0,0,0-.42,2c.11,1,.48.82.6.87s0,.57.25.8a.74.74,0,0,0,.58.2s-.22.46,0,.65a1,1,0,0,0,.56.18s-.05.26.09.39a9.08,9.08,0,0,1-2.79-.14C168,120.84,165.77,119.21,164.24,118.47Zm-.56,2.27c-.76-.81-.95-.92-1.15-1.15s-.58-.67.65-.17l.57.26-.07,1.05Zm-8.73-9.35a28.93,28.93,0,0,1-1-4.77c0-1-.13-2.65,1.26-3.06a1.36,1.36,0,0,1,1.8,1.1c.15.59.51,3,.81,4.07.26.92,1.18,5.7,1.35,6.43.11.5.33,1.6.33,1.6a9,9,0,0,0-4-1.15A27.81,27.81,0,0,0,154.95,111.39Zm4.81-50.32a3.21,3.21,0,0,1-.29-1.88,2.8,2.8,0,0,1,.72-1.54,3.87,3.87,0,0,0,.32-.64s.24.76.42,1.4.79,1.72.94,2.09a4.45,4.45,0,0,1,.14,1.22,5.31,5.31,0,0,0,2.48-.42,16.57,16.57,0,0,1,3.24-.38,20.05,20.05,0,0,1,2.07,0,13.58,13.58,0,0,1,1.73.32,15.5,15.5,0,0,0,2.82.77,3.39,3.39,0,0,0,2.57-.55,15.63,15.63,0,0,0,1,2.1,19.17,19.17,0,0,0,2.73,3,15.82,15.82,0,0,0,1.26,1l.14.1a6.93,6.93,0,0,0,1.07.58c.15-.62.91-.75,1.09-.81s2.44-.44,2.38,1.33a5.08,5.08,0,0,1-1.78,3.4.81.81,0,0,1-.78.25,9.1,9.1,0,0,1-1.4,3,15.24,15.24,0,0,1-5.84,4.72,24.43,24.43,0,0,1-8.32,1.61,19.8,19.8,0,0,1-3.62-.26A15,15,0,0,1,159.7,79a20.78,20.78,0,0,1-4.26-4.72,15.72,15.72,0,0,1-1.81-4.1,22.21,22.21,0,0,1-.61-4.91c0-.44.08-2.59.08-2.59a.34.34,0,0,1,.34-.3l2-.08a6.16,6.16,0,0,0,1.69-.41,17.42,17.42,0,0,1,1.9-.53C159.76,61.18,159.75,61.08,159.75,61.08Zm26.38,4.65a11.2,11.2,0,0,1,1.76,3,11,11,0,0,1,0,4.66c-.43,2.45-3.17,4.6-3.17,4.6s-.09-2.23,0-3.45a4.4,4.4,0,0,1,.44-1.72,5.68,5.68,0,0,1,.59-.6A7.23,7.23,0,0,0,187,70,3.07,3.07,0,0,0,187,68a2.34,2.34,0,0,0-1.5-1.08,11,11,0,0,0-2.66.29,1.15,1.15,0,0,1-.94-.44c-.6-.59-2.3-1.69-2.38-2.27,0,0-.13-.41.34-.42s2.85.19,2.85.19a8.58,8.58,0,0,1,2.25.28A5,5,0,0,1,186.13,65.73ZM185.43,55h0s2,2.72,2.22,3a23.59,23.59,0,0,1,1.89,3.46,38,38,0,0,1,1.25,3.77,22.18,22.18,0,0,1,.41,2.84s-.58-.68-.94-1A11.6,11.6,0,0,1,188,65.13a10,10,0,0,1-1.37-2.24,7.93,7.93,0,0,1-.49-2.2c0-.47-.11-1.28-.14-2.38a15.85,15.85,0,0,0-.35-2.52A6.72,6.72,0,0,0,185.43,55ZM176,81.33c.53-.19,1.05-.39,1.52-.6l.29-.14c.44,0,.39.32.39.32l.13,1.9Zm1.88,2.15a3.2,3.2,0,0,1-.61.48,10.55,10.55,0,0,1-2.6.93,17.77,17.77,0,0,1,.7-3ZM168.6,97.83c-.33-.23-1.2-.86-2.13-1.62,1.09-.3,2.11-.55,2.38-.62a6.14,6.14,0,0,0-.08.89C168.77,97.4,168.78,97.7,168.6,97.83Zm1.16-7.61s-1.81.69-3.13,1.24l-2-2.57c.23-.14,1.59-.67,3-1.22C168.65,88.91,169.72,90.19,169.76,90.22Zm-3.52-5.14.05,0c.28.07.61.14,1,.2,1.21.19,3,.38,3.76.44-.63.2-1.94.72-3.2,1.24Zm2.21,10a22.72,22.72,0,0,0-2.46.79,14.33,14.33,0,0,1-2.3-2.26s1.19-.65,2.63-1.35ZM167,91.89A24.75,24.75,0,0,1,170,90.64c-.31,1.2-.72,2.7-1,4h0C169,94.42,168,93.17,167,91.89Zm1.33-4.46c1.49-.55,2.91-1.06,3.16-1.15a1.65,1.65,0,0,1,.45-.1l-.07.1a12.55,12.55,0,0,0-1.57,3.4Zm3.47-2.18a20.73,20.73,0,0,1-2.28-.2,2.49,2.49,0,0,0,.47-.91,5.24,5.24,0,0,1,.83-1.49,15.51,15.51,0,0,1,1.85,1.26c.18.16.94,1,1.15,1.17A10.35,10.35,0,0,1,171.77,85.25Zm-2.73-1s-1.12-1.2-1.64-1.7h1.78l.76,0Zm2.78-1.93c.54-.09,1.05-.19,1.57-.29s.78-.17,1.19-.28L174.09,84S172.46,82.71,171.82,82.34Zm-6.69.09a.22.22,0,0,1,.19-.15l.52.11-.72.8A3.53,3.53,0,0,1,165.13,82.43Zm1.41.31,2,2.16a9,9,0,0,1-3.08-1l0,0Zm-.72,2.75,1.4,1.7-2.45,1-.33.12A16.35,16.35,0,0,1,165.82,85.49Zm.14,6.26-.37.17c-.84.41-1.87.9-2.31,1.17.25-1.3.57-2.79.85-3.78Zm-.67,4.31-2.08.75a2,2,0,0,1-.3-1.2,10.17,10.17,0,0,1,.2-1.6C163.42,94.31,164.34,95.19,165.29,96.06Zm.41.37c.75.68,1.46,1.3,1.84,1.58a8,8,0,0,1-3.52-.56,3.76,3.76,0,0,1-.45-.29A16.55,16.55,0,0,1,165.69,96.43Zm1.08,3s2.36.51,3.2,2.16,4.18,11.5,4.54,12.5a8.32,8.32,0,0,0-2.29.61c-.22-.87-2.71-10.42-5.4-14.19C166.61,100.22,166.15,99.45,166.77,99.46Zm15,26.66-1.43-2.27s0-.38.8-.08a8.44,8.44,0,0,0,1.73.42,11.65,11.65,0,0,0,2-.13l-1.94,3.2a.82.82,0,0,1-.38-.17Zm.67,2.19c-1.09.07-2.37.11-2.44-.12s-1.6-5-1.6-5-.17-.95.76.29,2.15,3.12,2.15,3.12Zm-1.84-5.47a3.17,3.17,0,0,1,1.27-.51c.13,0,1,.85.73,1.2a2.91,2.91,0,0,1-1.3-.24A2.38,2.38,0,0,1,180.57,122.84Zm1.72-2.15a15.51,15.51,0,0,0-.55-3.37.3.3,0,0,0-.05-.1,4.76,4.76,0,0,0-.66-1.54s-.57-1-.21-1.22.88,0,1.35-.13.82-.29,1.14-.13,2.15,2.84,2.15,4.3a3.06,3.06,0,0,1-1.64,2.78C183,121.63,182.26,121.72,182.28,120.69Zm11.13,59.39c-.06.63-.87.39-.87.39s-10.75-2-11.54-2.16a1.58,1.58,0,0,0-.86-.09c-.34,0-.49-1-.49-1l-3.79-10.8c4.76.14,11.85.36,12.44.36.88,0,.93.42.93.42S193.47,179.44,193.42,180.07Zm-3.29-13.28a1.42,1.42,0,0,1,.63.06l2.26,5.58s4,10.68,4.07,11.09.25.58-.08.79-.81-.08-.81-.08l-5.9-16S189.82,166.86,190.13,166.79Zm-7-5.22a10.48,10.48,0,0,1-1.9.32c-.41,0-2.21.23-2.5-.15a3.69,3.69,0,0,1-.2-2c.11-.19.58-.4.62-.41a6.85,6.85,0,0,1,3.92-.14,2.82,2.82,0,0,1,.35,1.35C183.43,160.95,183.34,161.45,183.13,161.57Zm.25,1.35c-.07.38-.09.81-.61,1.07-.95.08-1.82.14-2.22.14a1.91,1.91,0,0,1-1.13-.45c-.46-.46-.44-.95-.11-1.05s1.42.11,2.16,0,1-.48,1.4-.42A.6.6,0,0,1,183.38,162.92Zm-6.14-8.56s-.17.28-.84,1.29-.28,2.39-1,2.92-1,3.37-1,3.37h0l-3.93-12.75s-.48-.59.34-.84a50.55,50.55,0,0,1,5.2-.32C175.7,150.37,177.24,154.35,177.24,154.35Zm2.61-5.53a3.09,3.09,0,0,0,1.63.18l.24.6a1.3,1.3,0,0,1-.29.06,28.19,28.19,0,0,1-3.14-.07,4.88,4.88,0,0,1-1.43-.3c0-.62,0-1.13,0-1.28l1,0A14.15,14.15,0,0,0,179.85,148.82Zm-.62-.9,1.27,0s.37,0,.74.59l-.5,0A6.39,6.39,0,0,1,179.23,147.93Zm-.53,8.91a7.55,7.55,0,0,1-1.13.38c-.62.08-.76-.45-.39-1.12a3.56,3.56,0,0,1,1.78-1.2,1.84,1.84,0,0,0-.4,1.14A1.51,1.51,0,0,0,178.71,156.84Zm-.12.72c-.12.21-.44.77-.61,1.12s-1,.62-1.33.76a2.12,2.12,0,0,0-1,.62,2.42,2.42,0,0,1,.21-.7A5,5,0,0,1,178.58,157.56Zm.25.92a2.1,2.1,0,0,1,.82-1.26c.42-.12.83-.21,1.19-.28a9.57,9.57,0,0,1,1.11-.14,2.34,2.34,0,0,1,1,1c.22.58-1.34.46-2,.52a7.3,7.3,0,0,0-1.9.44C178.72,158.86,178.71,158.75,178.83,158.48Zm.35-2.67a2.82,2.82,0,0,1,.45-1l.11-.15a6,6,0,0,1,.7-.13,4.86,4.86,0,0,1,.56,0,1.66,1.66,0,0,1,.59.6,1.2,1.2,0,0,1-.08,1.11,12.63,12.63,0,0,0-2,.4C179.19,156.52,179.12,156.26,179.18,155.81Zm3,.33a3.42,3.42,0,0,0,0-1,1.16,1.16,0,0,0-.43-.66c.86.06,1.71.19,2.06.16l.59,1.47A9.11,9.11,0,0,0,182.17,156.14Zm1.31-2.18a10.41,10.41,0,0,0-5.33.28s-.3-.67-.6-1.47a2.72,2.72,0,0,0,1.47.67,23.28,23.28,0,0,0,3.52,0,6.78,6.78,0,0,0,.7-.1l.25.62Zm-4.68-1.31a2,2,0,0,1-1.56-.72l-.12-.38a7.66,7.66,0,0,1-.21-1.31,14.5,14.5,0,0,0,3.17,1.29,17.46,17.46,0,0,0,2.52.26l.29.73A13.62,13.62,0,0,1,178.8,152.65Zm.6-2c-1.27-.31-1.34-.53-1.26-.53s1,.11,1.92.14,1.74,0,1.93-.05l.33.83A18,18,0,0,1,179.4,150.7Zm-4.77,12.54c.35.72,1.4.78,1.57,1.17l-4.24-.13c-.28,0-1.17-.21-1.08-.62C171.05,163.63,173.69,163.33,174.64,163.25Zm1.19-1.37a4.3,4.3,0,0,1-.18-.7,1.66,1.66,0,0,1,.07-.29s0-.34.62-.8,1.47-.55,1.52-.35a9.3,9.3,0,0,1,0,1.77.93.93,0,0,1-.86.6A1.39,1.39,0,0,1,175.82,161.88Zm.76,1a2.33,2.33,0,0,1,1.4.07,2.62,2.62,0,0,0,.87,1.1,4.38,4.38,0,0,1-2.07-.68S176.39,163,176.58,162.85Zm6.27-6.09c.77,0,1.44,0,1.76.05l.29.72c-.05.09-.38.65-.68.72s-.56-.37-.72-.8A1.17,1.17,0,0,0,182.85,156.75Zm3.07,4.77c-.38,0-1.28.24-1.68,0s-.44-1.11-.44-1.57-.09-.87.25-1.08a1.49,1.49,0,0,1,1.44.12l.82,2C186.31,161.08,186.27,161.5,185.92,161.53Zm1.06,1.16c.19.64-.25.87-.67.94l-1.13.13s-.79,0-1-.35-.4-.76,0-1a5.28,5.28,0,0,1,2-.1A1.22,1.22,0,0,1,187,162.69Zm.45,1.22.15.39s.12.45-1,.48c-.29,0-1.36-.06-2.9-.11C185.14,164.41,186.77,164.06,187.44,163.91Zm-13.08-38a3.28,3.28,0,0,1,.7-.4l8,22.17c0,.1.07.22.13.35l6.8,16.8-1.19,0-.39-1Zm-1.72,3.59h2.09c.69,1.88,3.37,9.76,4.82,14a1.2,1.2,0,0,1-.62.61c-.48.14-3,.14-3.65-.39s-1.15-2.95-1.4-4.38-1-6.19-2.56-7.29c.25-1,.47-1.79.64-2.44v0Zm-.46-.64.13-.43a4.23,4.23,0,0,1,.84-1.43v0c.1.67.71.87,1.21,1.65Zm.07,7.6c.39,1.49,1.24,4.66,1.4,5.78s.25,1.77.73,2l-6.14.17c.65-2.76,1.82-7.45,2.75-11.07A17.89,17.89,0,0,1,172.24,136.44Zm-3.76,9c.65,0,10.89-.28,10.89-.28a1.15,1.15,0,0,1,.88.4l.24.72s.11.56-1.57.79-10,.51-10.11.51-1.29.48-1.07-1c0-.09,0-.23.08-.42S168.11,145.5,168.48,145.48Zm.67,3.31c.34.31,4.25,13.71,4.25,13.71-1.17.17-2.77.45-2.77.45l-3.83-11.41s-.08-1.85.62-2.3S168.82,148.49,169.16,148.79Zm1.61,16.53c0-.11,0-.32.22-.35a4,4,0,0,1,.81,0l17.75.56c.73.66-.53.59-.53.59s-17.17-.37-17.75-.48S170.76,165.32,170.76,165.32Zm.81.94,2.65.07c.64,0,.86.88.86.88s3.62,9.91,3.76,10.6-.95,1.11-.95,1.11l-2.18.88c-.27.08-.54-.58-.54-.58l-3.83-11.4-.21-.75S170.94,166.26,171.57,166.26Zm4.87,13.87s1.42-.44,2.26-.76a4.12,4.12,0,0,1,2.19.11s12.37,2,12.86,2.27.42.7.51,1.24-.07.94-.73.93-3.5-.63-3.5-.63-13.65-2.5-13.8-2.58C175.71,180.41,176.44,180.13,176.44,180.13Zm-.1,1.88c.06-.34.62-.31.62-.31l12.89,2.19s4.45.77,4.58.87h.06a19.28,19.28,0,0,1,2.58.58c.48.22.67.49.37.76a2.25,2.25,0,0,1-1.1.28S179,183.32,177.86,183,176.29,182.35,176.34,182Zm8.17,14.87s.57-.29,1.05-.51a2.58,2.58,0,0,1,.93-.21l13.28,2a1.3,1.3,0,0,1,.72.52c.31.55.65,1,.41,1.38a.69.69,0,0,1-.8.29c-.13-.06-14.07-2.91-14.87-3.07S184.52,196.88,184.52,196.88Zm-1.85-10.51c-.58-1.21,0-1.29,0-1.29s10.44,1.55,11.92,1.79a3,3,0,0,1,1.94.87s2.89,8,3.06,8.4.21,1-.08,1l-1.06-.14a4.2,4.2,0,0,0-.71-.09c-3.74-.5-11.16-1.47-11.51-1.63s-1-1.76-1-1.76S183.24,187.57,182.67,186.36Zm14.65,1.54c-.14-.42,0-.76.31-.79a.89.89,0,0,1,.79.39c.13.22,1.07,2.36,1.07,2.44h0l3.83,9.31c0,.21,0,.7-.26.8a.81.81,0,0,1-.84-.16C201.48,198.14,197.45,188.29,197.32,187.91Zm-20.19-4a11,11,0,0,0,1.85.42c1.56.16,1.94.94,1.94.94l3.16,8.82c.55,1.45-.33,1.82-.33,1.82a5.83,5.83,0,0,1-1.9.76,1,1,0,0,1-1-.63l-2.71-8s-.8-2.7-1.07-3.48S177.13,183.95,177.13,183.95Zm5.07,13.94a2.18,2.18,0,0,1,1.1,0s18.22,3.52,18.57,3.54.88.12,1.29.19a.58.58,0,0,1,.37.54c0,.41-.08.53-.53.59-2-.36-19.81-3.56-20.29-3.8S181.88,198.08,182.2,197.89ZM207,215.27c-1-.22-14-3.18-14.94-3.44a1.55,1.55,0,0,1-1.1-1.07l-3.09-9-.24-.82,14.05,2.53a.15.15,0,0,0,.1.05c.65.17.72.55.72.55Zm-24.67-15.07c.11-.29,1,0,1,0l3.1.6.47,1.36s2.65,8.26,2.65,8.66-.45.67-.45.67l-2,.8S182.26,200.5,182.37,200.21Zm6,13.06s1.12-.46,1.68-.72a3.11,3.11,0,0,1,1.26-.21l16.09,3.92a15.22,15.22,0,0,1,.93,1.68c.19.51-.42.55-.42.55l-19.29-4.63C188.1,213.64,188.39,213.26,188.39,213.26ZM204,204.38c0-.76.34-.72.34-.72s.55-.31.94.48l0-.08c2.24,5.47,4.34,10.61,4.6,11.36.59,1.66,1,3.35.59,3.45a1.53,1.53,0,0,1-.8,0S204.06,205.13,204,204.38Zm-17.36-58.21.46-.06a1.74,1.74,0,0,1-.14.9Zm1.34-10c0,.06.2-.11.31-.27a5.47,5.47,0,0,1,.79,3.22c-.14,2-.31,4.69-1.52,5.67-.75.61-1.31.09-1.62-.39l-.56-1.44-4.84-12.44s-.56-1.18-.22-1.29,1.1.17,2,0,2.89-.87,4-1,2.36-.17,2.64.22a9.06,9.06,0,0,1-.06,4.27c-.31,1-.63,2-.72,2.55A3.41,3.41,0,0,0,188,136.12Zm.4-8.78a24.73,24.73,0,0,0-3.66.63h-.09c-.61,0-.86,0-.88-.21a12.67,12.67,0,0,1,.8-1.68l1-2a6.53,6.53,0,0,0,1-.08l2.61,2.7S189.27,127.09,188.39,127.34Zm2.84-.46a3.43,3.43,0,0,1-1.07-.42,18.26,18.26,0,0,1-2.23-2.06s-.38-.44.34-.46a6.38,6.38,0,0,0,2.27-.67c.53-.27.84-.72,1.1-.42.09.1.09.06.06,0a5.59,5.59,0,0,1,.43,1.84A2.69,2.69,0,0,1,191.23,126.88Zm1.29-6.91s-1.05,1.73-1.73,2-.61-.8-.51-1.26-.08-1.77-.38-1.43-.21,2.51-1.05,3.2a7.71,7.71,0,0,1-4,.93,2.18,2.18,0,0,1-1.64-1.05c-.23-.34,1.1-.84,1.31-.51s0,.78,0,.93.38.57,1.05-.51a8.24,8.24,0,0,0,.63-4.84,7.13,7.13,0,0,0-2.32-3.79c-1.24-.82-2-1.31-1.81-1.56s.36-1,1.1-.76a5.91,5.91,0,0,1,2.53,1.43c.46.65.84,1.18,1.1,1s.17-1.05-.38-1.81a4.23,4.23,0,0,0-1.43-1.26c-.19-.08.34-.4,1-.25a9.55,9.55,0,0,1,2.13.5,3.05,3.05,0,0,1,.94.77,11.69,11.69,0,0,1,2.11,3.2C191.68,116.29,192.79,119,192.52,120Zm-3.75-31.25c1,.8,3.05,2,3.87,4.42a20.37,20.37,0,0,0,3,6.15,23.42,23.42,0,0,1,3.24,6.28c.42,1.47.25,7.22-.59,9.27a11.72,11.72,0,0,1-3.75,4.21c-.44.27-1.33.48-1.47-.72s-1.1-3.24-1.39-4.42a7.08,7.08,0,0,0-2.15-2.84v0s-.64-.54-1.31-1a.62.62,0,0,1-.16-.76c.27-.42.67-.8,1.85-.8s3,.42,3.37.42.91-.06.51-.38a8.67,8.67,0,0,0-2.91-.8c-.65,0-1.24-.13-.8-.63s2.48-.44,3.16-.42,1.45.19,1.64,0,0-.25-.59-.38a14.89,14.89,0,0,0-4.55,0c-1,.34-1.87.78-2.19.8s-2.13-3.75-2.49-5.1a18.18,18.18,0,0,1-.93-3.66c0-.82.48-1.73.25-1.81s-.46.17-.55.55-.11,1.1-.17,1.35-.42.15-.46,0a4.64,4.64,0,0,1-.29-2s-.44-1.16-.59,0,.74,3.07.93,3.58,3.1,6.72,3.24,7.2.76,1.43.42,2.11a4.86,4.86,0,0,0-2.15.46,6.64,6.64,0,0,1-1.9.84,4.56,4.56,0,0,0-2.65,2.49,2.77,2.77,0,0,0-.38,1.42l0,0s0,.28-.32.25a36.26,36.26,0,0,0-3.85-.67c-.36-1-4.1-11.64-5-12.92a5.3,5.3,0,0,0-3.23-2.48,12.18,12.18,0,0,0,1.53-.14s.48-.06.54-1.16.91-7.41,1.78-9a6.12,6.12,0,0,1,3.4-2.93l.21-.06c.66-.23,2.19-.62,2.77-.89s.62-.26,1.12-.47a1.72,1.72,0,0,1,1.14-.16C181.41,85.07,187.91,88,188.77,88.72Zm-9.48-5.77s-.25-2.34-.19-2.77.83-1,.83-1h0l1.11-.85a11.28,11.28,0,0,0,2.36-2.64c.16-.25.38-.61.6-1V75a8.84,8.84,0,0,1-1.28,5.34A6.48,6.48,0,0,1,179.29,82.95ZM192.1,73.2a6.55,6.55,0,0,1-.86,2.75,6.44,6.44,0,0,1-1.15,1.73l-1,.9a17.24,17.24,0,0,1-6.28,3.24s-.48.11-.66.13c.33-.33,2.51-2.7,3.58-3.88a16.16,16.16,0,0,0,2.81-4.17,9.49,9.49,0,0,0,.17-5.09,9.77,9.77,0,0,0-1.56-3.06,13.15,13.15,0,0,1-.94-1.88,5.73,5.73,0,0,1-.22-1.1,6.58,6.58,0,0,0,1.37,2.53,10.31,10.31,0,0,1,2.23,2.77,10.44,10.44,0,0,1,.52,3.69,17.94,17.94,0,0,1-.13,1.87c0,.18.53-.26.54-2a17.8,17.8,0,0,0-.17-3.19,6.34,6.34,0,0,1,1.25,2A6.76,6.76,0,0,1,192.1,73.2ZM195,68l0,.17a10.13,10.13,0,0,1-.25,3.49,9.24,9.24,0,0,1-2,3.55l-.23.23a9.15,9.15,0,0,0,.08-4.21,23.56,23.56,0,0,1-.89-3.71,28.87,28.87,0,0,0-.6-4.12,11.72,11.72,0,0,0-.62-1.7s-.41-.78.41-.49,2,2,2.62,2.85a8.94,8.94,0,0,1,1.3,3C194.9,67.47,195,67.76,195,68Zm-7.22-15.24A22.92,22.92,0,0,1,193,58.58a13.61,13.61,0,0,1,1.59,5.68,10.45,10.45,0,0,0-1.35-1.87,16.21,16.21,0,0,0-3-2.3,16,16,0,0,1-2.14-2.5c-.71-1-1.62-2.53-1.84-2.85s-.59-.91-.77-1.2A23.72,23.72,0,0,0,183.75,50S187.06,52.15,187.78,52.75Zm-6.94-4.6c2.32,1.26,3,3.21,3.68,5.75,0,0,.5,2.1.61,3s.13,1.75.15,2.09.09,2.12.11,2.62a.85.85,0,0,0,0,.18s0,.4,0,.42a1.12,1.12,0,0,1-.23.89c-.33.3-1.84.32-1.84.32l-3.55,0a1.92,1.92,0,0,1-1.43-1,2,2,0,0,1-.35-1.63,10.05,10.05,0,0,1,.58-1.49,7,7,0,0,0,.52-2.24.24.24,0,0,0,0-.09,15.52,15.52,0,0,0,.18-3.63c-.19-1.7-1.72-5.72-2.83-6.53A9.89,9.89,0,0,1,180.84,48.15Zm-14.26-2.36a6.36,6.36,0,0,0-1.74,2.51,8,8,0,0,0-.43,2.07,12.16,12.16,0,0,1,2.09-3.68,2.91,2.91,0,0,1,2.19-1.3c.57-.08.83,0,1.89.92A6.56,6.56,0,0,1,172,49.45a4.86,4.86,0,0,0-.78-3.42c0-.11,0-.35.57-.5a3.47,3.47,0,0,1,2.89.55,10.49,10.49,0,0,1,3.47,5.73c1,3.56.42,5.38.42,5.38a14.79,14.79,0,0,1-.67,2.53,3.09,3.09,0,0,1-2.34,1.72,4.21,4.21,0,0,1-2.15-.29,2.08,2.08,0,0,0,.52-.21,4.72,4.72,0,0,0,2.43-2.57,5.66,5.66,0,0,0,.23-3.34,8,8,0,0,1-1.08,3.62,3.83,3.83,0,0,1-2.11,1.89,2.4,2.4,0,0,1-1,.27,14.88,14.88,0,0,0-1.81-.48A5.26,5.26,0,0,0,171.91,59a4.07,4.07,0,0,0,.32-1.74c0,.25-.18.46-.56,1.22s-1.62,1.23-2.58,1.5a36.36,36.36,0,0,1-3.63.47c-.68.11-2.85.63-2.85.63a4.2,4.2,0,0,0-.37-1.08c-.15-.34-.37-.89-.48-1.23l-1.12-3.28a8.72,8.72,0,0,1,.47-5.59,6.89,6.89,0,0,1,3.3-3.4A4.19,4.19,0,0,1,166.58,45.79Zm-11.71,6.5c.33-.62.79-1.19,1-1.62s1.17-1.53,1.17-1.53a8.17,8.17,0,0,1,4.1-2.57,7.88,7.88,0,0,0-2.57,2.26,2.65,2.65,0,0,0-.47,1.68,16.65,16.65,0,0,1,1.36-2,9.65,9.65,0,0,1,3.36-2.19,3.16,3.16,0,0,1,1.47-.25,6.57,6.57,0,0,0-3.11,2.4,7,7,0,0,0-1.36,3.81c0,1,.12,3.47.12,3.47a1.9,1.9,0,0,1-.41,1.08,4.14,4.14,0,0,0-.74,1.6,7.24,7.24,0,0,0,0,2.09c.12.5-.26.39-.42.35a3.78,3.78,0,0,1-1.71-1.35,3.34,3.34,0,0,1-.22-2.55c.08-.33.29-.58.24-.6s-.3.08-.49.41a4.56,4.56,0,0,0-.27,2.31c.16.76.6.91.65,1.48s-.24.68-.67,1a4.33,4.33,0,0,1-2.34.29c-.69-.09-.6-.45-.6-.45l0-1.61h0a12.68,12.68,0,0,1,.19-2.15c.21-1.15.39-1.85.53-2.46A18.76,18.76,0,0,1,154.87,52.29Zm-1.73,2.06s.15-.08.19,0,0,.16-.18.6a25.68,25.68,0,0,0-.6,3.06c0,.38,0,1.88,0,1.88.06.79.15,1.48.15,1.88a.66.66,0,0,1-.3.57.87.87,0,0,1-.94-.44s-.22,0-.34-1.07a7,7,0,0,1,.33-2.69,20.61,20.61,0,0,1,1-2.49A4.17,4.17,0,0,1,153.14,54.34Zm-4.28,7.23c.09-.43.37-1.75.45-2a12.58,12.58,0,0,1,.85-2.21l.07-.15c.19-.34,1-1.61,1.2-1.81s.52-.63.63-.59a.16.16,0,0,1,.11.12c-.06.11-.8,1.51-1,1.87a9.09,9.09,0,0,0-.55,1.82,12.89,12.89,0,0,1-.24,1.84,2.45,2.45,0,0,1-.5.89c-.3.38-.69.93-.91,1.28a2.49,2.49,0,0,0-.3.62A16.55,16.55,0,0,1,148.86,61.58Zm1.46,11.77s0,.24-.16.25-.52-.49-.52-.49a10.27,10.27,0,0,1-1.19-3.1c-.61-2.51-.35-3.21-.25-3.66a15.68,15.68,0,0,1,.82-2.22c.18-.34,1.35-1.92,1.35-1.92a.3.3,0,0,1,.38-.1,2.16,2.16,0,0,0,.47.6c.23.15.36.22.37.41s-.36.68-.58,1a4.56,4.56,0,0,0-.78,2.27c0,.29.06.14.16-.11a6.45,6.45,0,0,1,1.32-2,6.21,6.21,0,0,1,.67-.89v0h0c0,.23-.13,1.84-.2,2.34a7.3,7.3,0,0,1-.71,2.26,9.36,9.36,0,0,0-1,2.84C150.42,71.48,150.32,73.35,150.32,73.35Zm1.61,3.07a8.16,8.16,0,0,1-1.14-3s.07-1.85.15-2.33a8.79,8.79,0,0,1,1-2.54c.11-.21.25-.81.59-.35s.25,3,.25,3.41a11.07,11.07,0,0,0,.45,2.8c.31.81.89,2.34,1.24,3A30.28,30.28,0,0,0,156,80.09,11.1,11.1,0,0,1,151.94,76.42Zm8.77,6.26a10.51,10.51,0,0,1-4.13-3,19.72,19.72,0,0,1-2.12-4c-.72-2-.52-2.19-.44-2.22s.15,0,.34.33a16.77,16.77,0,0,0,3.06,4.29,14.31,14.31,0,0,0,6.12,3.71l.53.15c.45.25.38.5.41,1a.51.51,0,0,1-.41.58S163.28,83.66,160.71,82.68Zm-9.1,13.55c.45-.52,3.3-2,3.85-3.31.23-.25,1.8-2.87,2.86-4.41A8.13,8.13,0,0,1,161,86.14s2.71-1.57,4.28-1.4A56.62,56.62,0,0,0,163,91.79a29.36,29.36,0,0,0-.57,5,1.51,1.51,0,0,0,.62.89,5.42,5.42,0,0,0-1.43,0c-.88.15-2.79.67-4.29,1.13,0-.62.14-2.56.13-3.18s.08-1.81-.25-1.88-.44,3.3-.48,3.9-.08.72-.56.7-.37-1.11-.62-1.07,0,2.13,0,2.13a19.52,19.52,0,0,0-2.41,1.38,25.37,25.37,0,0,0-1.66-2.75S151.16,96.75,151.61,96.23Zm-21.42-9.66a2.89,2.89,0,0,1,3.29-3.07c1.52.11,2.95,0,3.41,1.52a7.53,7.53,0,0,1-.55,4.51,6.31,6.31,0,0,1-.73,1.21A3.43,3.43,0,0,1,134,91c-1.65,0-1.9-.31-1.9-.31A6.29,6.29,0,0,1,130.18,86.57Zm3.8,5.37a2.52,2.52,0,0,1-1.33-.29c-.29-.23-.19-.26,0-.27s.59.08,1.54.15c.75.05,1,0,1.13-.19-.11.41-.43.49-.53.88s.13.42.21.8a2.12,2.12,0,0,0,.36.7c-.75-.45-1.86-1.08-1.86-1.08l-.26-.27c0-.08.16-.1.61-.11s.49-.09.56-.19S134.34,91.93,134,91.94Zm-3-.15a5.94,5.94,0,0,1,1.49.87l.73.42a26.14,26.14,0,0,1,2.44,1.4c.34.31.27.8-.2.84a10.25,10.25,0,0,1-3.14-1.07,3.83,3.83,0,0,1-2.08-1.88A.72.72,0,0,1,131,91.79Zm-1.19,1.88a1.19,1.19,0,0,1,.41.13,1.19,1.19,0,0,0,.44.29c.52.17,3.64,1.67,4.24,1.83a1.17,1.17,0,0,1,.93.81c.15.38-.27.79-.67.84a8.94,8.94,0,0,1-3.59-.76,8.75,8.75,0,0,1-2.11-1.91C129,93.74,129.56,93.69,129.84,93.67Zm-.52,2.38a.23.23,0,0,1,.35,0,6.55,6.55,0,0,0,.88.8,7.2,7.2,0,0,0,2.86,1.24c.8.08,1.31,0,1.52.11s.1.39-.42.59A5.86,5.86,0,0,1,133,99a7.9,7.9,0,0,1-1.78-.39l-.16-.05a3.47,3.47,0,0,1-1.29-.92C129.39,97.19,129.13,96.3,129.32,96.06Zm2.07,4a5.42,5.42,0,0,1-1.57-1.26c-.2-.29.08-.44.39-.22a7.22,7.22,0,0,0,1.23.51l.09,0c.42.12,1.31.39,1.49.45.41.14.1.53-.18.61A3.84,3.84,0,0,1,131.39,100Zm5.15,2.06a4.82,4.82,0,0,1-2.61-.34c-1.35-.57-1.6-1.14-1.6-1.14-.07-.28.47-.1.76-.17s.55-.07.65-.42-.08-.39,0-.39a2.31,2.31,0,0,0,1.63-.56c.74-.63.17-1,.17-1a1.67,1.67,0,0,1,.45-.37,1.43,1.43,0,0,0,.53-1.21c0-.62-.65-.84-.65-.84a1.12,1.12,0,0,0,.53-.53c.22-.42-.08-.77-.42-1a3,3,0,0,0,.1-1.24,8.59,8.59,0,0,1-.21-1,5.2,5.2,0,0,1,1.64,2.19,12.66,12.66,0,0,0,.93,3.12,2.76,2.76,0,0,1,.51,1.94,12.82,12.82,0,0,1-.66,2.31,4.87,4.87,0,0,1-.42.72s-.44.61-.74.59S137,102.11,136.54,102.11Zm.51,1.6c0-.23.88-.46,1.39-.93a4,4,0,0,0,.85-1.2,1.47,1.47,0,0,0,.06-.16h0a7.73,7.73,0,0,0,.35-2.3c-.08-.88,0-1.71.21-1.81a3.86,3.86,0,0,1,1.73.8,4,4,0,0,1,.67,1.73c0,.46-.15,3.79-.93,4.59s-1.18.78-1.85.46a4,4,0,0,0-1.39-.55C137.66,104.3,137,103.95,137,103.71Zm1.53,4.93c-.65-.18-.86-1.29-.62-2.11a3.37,3.37,0,0,1,.64-1.19c.27,0,.46.08.47.26a1.65,1.65,0,0,0,.25,1.1c.29.34.73.25.55.93C139.87,107.63,139.22,108.82,138.58,108.64Zm6.8,2.22a4,4,0,0,1-2.47-.67c-.2-.35-.24-.55.28-1s.81-.77.59-.87-1,.76-1.46.87-2.41-.08-2.44-.34.29-.59.76-1.18c.09-.11.12-.18.1-.22.21-.47.74-1.66,1.46-3.4a10.56,10.56,0,0,0,.72-5.77c-.29-.65-.15-.86-.38-1.14s-.29-.27-.42,0-.58.08-.58.08a1.72,1.72,0,0,1,.9-1.15c.7-.27,1.81.63,2.36,1.57a9.42,9.42,0,0,1,1,2.13c0,.28.24.18.11-.53s-.49-1.56-.34-1.77,1.56-.55,2,.31.48,5.07.57,6.51a15.89,15.89,0,0,1-.78,4.63A3.74,3.74,0,0,1,145.37,110.86Zm3.62,1a3.83,3.83,0,0,1-1.61-1c-.2-.2-.14-.42.18-.73a9.53,9.53,0,0,0,1.43-4.38,30,30,0,0,0-.28-6.12c-.15-.39-.37-1-.14-1.1s.72.06,1.12,1.26a37.65,37.65,0,0,1,1.52,4.6l0,0a17.53,17.53,0,0,0,0,5.77c.08.54.2,1.19.31,1.86A9,9,0,0,1,149,111.81Zm2.52-8.51a6.08,6.08,0,0,0-.77-2.44c-.13-.29-.76-1.8-.87-1.94s-.32-.6.11-.79,1.33.76,1.71,1.54.79,1.52.88,1.68A5.64,5.64,0,0,0,151.51,103.3Zm.46,3c-.08-1.91.46-3.8,1.35-4.55s5.85-2.63,7.92-3a4.55,4.55,0,0,1,3.71,1.35,13.68,13.68,0,0,1,2.92,4.24A102.44,102.44,0,0,1,171.59,115a4.64,4.64,0,0,0-.72.44s-3.43-10.38-5.31-13.11a3.33,3.33,0,0,0-3.59-1.6,21,21,0,0,0-4.52,1.64c-1,.42-2.46.53-3.26,1.14-1.14.87-1,2.16-.79,4.44s1.4,6.83,1.38,7.72a10.36,10.36,0,0,0-1.61.32C153,114.7,152,108,152,106.28Zm-2.3,14.21a5.85,5.85,0,0,1,4.3-3.79,8.7,8.7,0,0,1,6.54,2.08c1.54,1.46,3.19,4.66,3.87,5.17s.65.67.65.67-.79,1.26-.79,1.35a3.29,3.29,0,0,1-.53-1.35c0-.49-.28-.59-.36,0s-1.38-2-1.69-1.8,1.17,2.84,1.46,4.16a3.8,3.8,0,0,1-.31,3.12,3.17,3.17,0,0,1-2.84,2c-1.53.06-5.29.25-7.13-1a8.44,8.44,0,0,1-2.95-3.12A10.49,10.49,0,0,1,149.67,120.49ZM120.06,240.23a.29.29,0,0,1-.16.07l-.12-.07a2.14,2.14,0,0,1-.49-.6h0c-.26-.76.08-1.17.22-1.24s.44.18.35.74S120.26,240.09,120.06,240.23Zm0-2.63h0c-.48-.16-.37-1.1-.31-1.47,3.61-12.94,30.71-104.4,30.76-104.35s.2-.56.65-.42a5.25,5.25,0,0,1,.41.34c.16.16,0,.65,0,.65S121.31,235.84,121,236.85C120.76,237.5,120.34,237.61,120.07,237.6Zm3.74,2.41a1.54,1.54,0,0,1-1.78.68c-1.29-.55-1.24-1.36-1.11-1.64a.37.37,0,0,1,.42-.19l2.26.47s.26,0,.33.11S124,239.71,123.82,240Zm.86-2.6c-.25.87-.65,1-.79,1.07a5.48,5.48,0,0,1-1.74-.51c-.51-.28-.28-1.07-.28-1.07s18-61.77,26.24-89.95a1.73,1.73,0,0,0,.55,1.67c.62.45.37.76.06,2.36s-14.38,52.23-14.38,52.23l.21.09-.21-.09a1.59,1.59,0,0,0-2.3.91,1.36,1.36,0,0,0,.61,1.73l1,.39C132.78,209.14,124.92,236.59,124.68,237.41Zm8.66-32.19c-.42-.23-.74-.8-.42-1.14s1,0,1,0l13.9,5.48s-.24,1.36-.24,1.36C146.46,210.45,133.74,205.44,133.34,205.22Zm9,43a.42.42,0,0,0,0,.09c-.32.59-.7.66-1.2.34s-.32-.89-.17-1.28a.72.72,0,0,1,.64-.13C142,247.36,142.48,247.8,142.35,248.21Zm.22-1.6c-.22,0-1.33-.34-1.33-.34s-.08,0-.11-.21L162,147.7s1.52-7.15,1.68-7.92,2.51-8.68,3.06-10.14a49.29,49.29,0,0,1,1.85-4.83,5.55,5.55,0,0,1,1.62-2,2.56,2.56,0,0,1,.89-.52c1.91-.45.88.6.88.6a9.37,9.37,0,0,0-2.64,3.48c-2.19,4.41-5.84,18.7-5.84,18.7s-18.63,91.86-20.66,101.47A.43.43,0,0,1,142.58,246.61Zm2.88,1.19c-.81,1.32-1.57,1.07-1.57,1.07-.2-.09-.27-.37-.29-.7a1.27,1.27,0,0,1,.12-.47,1.4,1.4,0,0,1,.6-.76c.5-.32.87-.71,1.28-.44S145.64,247.53,145.46,247.8ZM162,170.08l-15.83,74.84L144.33,246s-.38.25-.35-.38c2.07-10.29,18.45-91.62,18.71-92.88s3.06-15.05,5.45-21.17c2.23-5.71,2.95-6.37,3-6.45a7.78,7.78,0,0,1,1.75-1.47c.42-.2.79-.38,1,.17.06.22-.65.76-1.24,1.52s-2.47,5.78-3.71,10.39S162,170.08,162,170.08Zm29.5,62.31L172.9,179.51s-6.78-22.24-6.84-22.41a3.5,3.5,0,0,1,.06-2.08c.37-.65.53.11.79,1.24s3,9.62,3,9.59l.53,1.78,6.49,19.94,9.86,27.38,1.07,3h0c.76,2,4.82,13.09,4.93,13.87s.06,1-.42,1.1S191.46,232.38,191.46,232.38Zm1.33,1.88c-.18,0-.49-.26-.65-.61l.87.16h0C193.18,233.9,193,234.22,192.8,234.27Zm4.89-2.47s.41.77-.67,1.71c-1.49,1.29-2.46.77-2.46.77-.19-.12-.07-.49,0-.64a21.51,21.51,0,0,0,2.61-1.76C197.47,231.6,197.68,231.8,197.68,231.8Zm-.83-1.39c.13.69-.13.88-.13.88a7.68,7.68,0,0,1-1.77,1.39.65.65,0,0,1-.84-.29L188.7,217.7c-.06-.22-.08-.46.11-.45a14.66,14.66,0,0,1,1.81.52,19.79,19.79,0,0,1,2,.63c.36.19.63,1.26.63,1.26S196.73,229.71,196.86,230.41Zm13.9-9.35a3.15,3.15,0,0,1-1.26-.08l-18.62-4.09-2.44-.79c-.48-.23-.63-1-.13-1.19a3.69,3.69,0,0,1,1.18.21s21.33,4.78,21.44,5.05S211,220.91,210.75,221.05Zm4.51,12.78c-.27-.6-3.63-10-3.63-10-.08-.23-.65-1.75-.34-2s.8.17.8.17,4.19,11.08,4.32,11.67c.08.36-.35.56-.5.56A.59.59,0,0,1,215.27,233.83Zm1.09,1.94a3,3,0,0,1-1-1.15h0s.79.58,1.26.52c.07.14.13.31.18.45S216.61,235.93,216.36,235.77Zm2.71-.87a1.09,1.09,0,0,1-1.77.19,5,5,0,0,0,1.46-.77l.33-.21A.79.79,0,0,1,219.07,234.9Z" fill="#692f23"/><circle cx="167.4" cy="66.62" r="0.33" fill="#fff"/><circle cx="156.19" cy="66.51" r="0.33" fill="#fff"/><circle cx="167.31" cy="123.49" r="0.46" fill="#692f23"/><circle cx="182.59" cy="125.17" r="0.4" fill="#692f23"/><circle cx="186.28" cy="125.93" r="0.36" fill="#692f23"/><circle cx="190.62" cy="124.71" r="0.33" fill="#692f23"/><path d="M246.93,148.23l-.22-16.31a5.56,5.56,0,0,0-1-2.94c-.8-1.08-2.65-1.16-3.5-1.16l-23.79,0a2.87,2.87,0,0,0-2.23.84c-1,1.17-.85,3.06-.84,4.66l.09,16.1a4.2,4.2,0,0,0,1.08,2.91c1,.85,3.68.76,3.68.76l23.26-.15a4,4,0,0,0,2.47-.94C247.05,151,246.93,148.23,246.93,148.23Zm-30.7-17s0-1.61.71-2.17a3.77,3.77,0,0,1,2.51-.51c.83,0,23.19,0,23.19,0s1.78,0,2.42,1a5.33,5.33,0,0,1,.89,3.09c0,1,.13,12.36.17,15.7a.9.9,0,0,1-.31.53.93.93,0,0,1-.65.22H217.35c-.61,0-.76-.07-1-.25s-.17-.54-.21-.71c0-3.61,0-14.85,0-14.85Zm29.41,20.08a3.61,3.61,0,0,1-2.31.86c-.74,0-23.92.05-23.92.05a4.87,4.87,0,0,1-2.29-.57,2.35,2.35,0,0,1-.84-1.21c-.12-.65.34-.58.34-.58s28.86-.08,29.11-.07a.35.35,0,0,1,.34.31A2,2,0,0,1,245.64,151.33Z" fill="#692f23"/><path d="M227.66,140.37c-.52-.88-1-1.48-1-1.48v-1.75s.07-.2.24-.21h.59V135h-5v1.94h.61a.28.28,0,0,1,.14.21c0,.16,0,1.75,0,1.75a15.37,15.37,0,0,0-1,2,1.62,1.62,0,0,0,0,1.17c.26.44.88,1,2.81,1.08a2.72,2.72,0,0,0,2.86-1.6A1.86,1.86,0,0,0,227.66,140.37Zm-4.56-5h3.85v1H223.1Zm2.85,1.52a.28.28,0,0,1,.14.21c0,.16,0,1.75,0,1.75h-2.18v-1.75s.07-.2.24-.21Zm1.16,4.87c-.31.54-1,.69-1.93.71a3.3,3.3,0,0,1-2.12-.64,1,1,0,0,1-.06-1c.07-.15.34-.66.56-1.13a.78.78,0,0,1,.45-.37,4.28,4.28,0,0,1,1.94,0,1.3,1.3,0,0,1,.65.47,11.62,11.62,0,0,1,.62,1.18A.91.91,0,0,1,227.11,141.8Z" fill="#692f23"/><path d="M240,140.37c-.52-.88-1-1.48-1-1.48v-1.75s.07-.2.24-.21h.59V135h-5v1.94h.61a.28.28,0,0,1,.14.21c0,.16,0,1.75,0,1.75a15.37,15.37,0,0,0-1,2,1.62,1.62,0,0,0,0,1.17c.26.44.88,1,2.81,1.08a2.72,2.72,0,0,0,2.86-1.6A1.86,1.86,0,0,0,240,140.37Zm-4.56-5h3.85v1h-3.85Zm2.85,1.52a.28.28,0,0,1,.14.21c0,.16,0,1.75,0,1.75h-2.18v-1.75s.07-.2.24-.21Zm1.16,4.87c-.31.54-1,.69-1.93.71a3.3,3.3,0,0,1-2.12-.64,1,1,0,0,1-.06-1c.07-.15.34-.66.56-1.13a.78.78,0,0,1,.45-.37,4.28,4.28,0,0,1,1.94,0,1.3,1.3,0,0,1,.65.47,11.62,11.62,0,0,1,.62,1.18A.91.91,0,0,1,239.46,141.8Z" fill="#692f23"/></g></g></svg>