<svg xmlns="http://www.w3.org/2000/svg" width="100" height="100" viewBox="0 0 100 100"><title>день-рождения-2_1</title><ellipse cx="32.46" cy="91.13" rx="2.41" ry="3.66" fill="#dbc19f" stroke="#5d3329" stroke-miterlimit="10" stroke-width="0.47"/><ellipse cx="37.7" cy="91.13" rx="2.41" ry="3.66" fill="#dbc19f" stroke="#5d3329" stroke-miterlimit="10" stroke-width="0.47"/><path d="M19.59,33.22c0-8.05,6-14.58,14.15-14.58s14.15,6.53,14.15,14.58c0,8.65-6,14.58-14.15,14.58S19.59,42.45,19.59,33.22Z" fill="#dbc19f" stroke="#5d3329" stroke-miterlimit="10" stroke-width="0.95"/><path d="M61,54.21a15,15,0,0,1,1.55.24c.52.13.82.08.84.52a8.9,8.9,0,0,1,.18,1.29c0,.53-.36.89-.44,1.46s-.66.84-.89,1.09c-.55.59-4-.3-4.54-.58S57,57,57.07,55.75s1.75-1.49,2-1.84a3.72,3.72,0,0,0,.7-2.09c0-1-.18-1.35.3-1.36s1,1,.95,2.1A11.11,11.11,0,0,0,61,54.21Z" fill="#f7e8d2" stroke="#5d3329" stroke-miterlimit="10" stroke-width="0.47"/><path d="M35,78H30.19l.49,10.37c0,1.92,1,2.77,2.17,2.77S35,90.27,35,88.36c0,1.92,1,2.77,2.24,2.77s2.24-.85,2.24-2.77L40,78Z" fill="#f7e8d2" stroke="#5d3329" stroke-miterlimit="10" stroke-width="0.47"/><path d="M58,53.71l-1-.25c-.19-.76-.57-1.3-1.11-1.41l-6.71-1.59s-5.06-4.11-6.59-4.82a12.38,12.38,0,0,0-2.84-1.27h0a18.43,18.43,0,0,0-5.46-.79c-4,0-7.22.94-9.18,2.68-2.2,1.67-7,19.18-6.41,19.62l-.05,1c0,.4,1.07.77,2.43.84s2.11-.2,2.13-.6l0-.92a2.27,2.27,0,0,0,.83-.75l2.73-11.28c0,.74,2.47,6.8,2.47,6.8s11.79-.29,11.79-1l1.56-6.33a32,32,0,0,0,4.79,2.86c2.29,1,8.1,1.86,8.53,1.38l.86.22c.39.1,1-.89,1.31-2.21S58.39,53.81,58,53.71Z" fill="#ec8213" stroke="#5d3329" stroke-linecap="round" stroke-linejoin="round" stroke-width="0.95"/><path d="M31.53,42.07v1.51c0,.84,1,1.51,2.24,1.51S36,44.42,36,43.59V42.07Z" fill="#dbc19f" stroke="#5d3329" stroke-miterlimit="10" stroke-width="0.47"/><path d="M33.76,42.95A10.26,10.26,0,0,1,23.42,32.79a9.9,9.9,0,0,1,.91-4.14,29.87,29.87,0,0,0,18.86,0,9.91,9.91,0,0,1,.91,4.14A10.26,10.26,0,0,1,33.76,42.95Z" fill="#f7e8d2"/><path d="M24.46,28.94a30.17,30.17,0,0,0,18.61,0,9.65,9.65,0,0,1,.8,3.85,10.1,10.1,0,0,1-20.21,0,9.64,9.64,0,0,1,.8-3.85m18.86-.59a28.45,28.45,0,0,1-9.56,1.59,28.45,28.45,0,0,1-9.55-1.59,10.19,10.19,0,0,0-1,4.44,10.58,10.58,0,0,0,21.16,0,10.2,10.2,0,0,0-1-4.44Z" fill="#5d3329"/><path d="M36.55,38.26a7.92,7.92,0,0,1-3,.56,8.05,8.05,0,0,1-2.88-.5" fill="none" stroke="#5d3329" stroke-linecap="round" stroke-miterlimit="10" stroke-width="0.47"/><path d="M34.94,39.9a4.24,4.24,0,0,1-2.68,0" fill="#fff" stroke="#5d3329" stroke-linecap="round" stroke-miterlimit="10" stroke-width="0.47"/><path d="M34.74,36.48a8.49,8.49,0,0,1-1.17.07,8.76,8.76,0,0,1-1.11-.07" fill="#fff" stroke="#5d3329" stroke-linecap="round" stroke-miterlimit="10" stroke-width="0.24"/><path d="M19.1,67.47s0,4.1,1.25,5.12S23.44,74,23.07,73a19.81,19.81,0,0,1-.68-2.65,2,2,0,0,1,.88.74c.4.58.61-.11.19-.94s-1.08-2.73-1.08-2.73Z" fill="#f7e8d2" stroke="#5d3329" stroke-miterlimit="10" stroke-width="0.47"/><path d="M61,54.21a1.49,1.49,0,0,0-.92,1.72c.31,1.24.92,2.9.92,2.9" fill="none" stroke="#5d3329" stroke-linecap="round" stroke-linejoin="round" stroke-width="0.47"/><line x1="34.98" y1="89.16" x2="34.98" y2="79.95" fill="none" stroke="#5d3329" stroke-linecap="round" stroke-miterlimit="10" stroke-width="0.47"/><path d="M28.44,32a3.67,3.67,0,0,0-2.36,1.18,3.67,3.67,0,0,0,2.36,1.18,3.67,3.67,0,0,0,2.36-1.18A3.67,3.67,0,0,0,28.44,32Z" fill="#fff" stroke="#5d3329" stroke-miterlimit="10" stroke-width="0.47"/><ellipse cx="28.44" cy="33.22" rx="1.03" ry="0.94" fill="#5d3329"/><path d="M38.36,32A3.67,3.67,0,0,0,36,33.22a3.67,3.67,0,0,0,2.36,1.18,3.67,3.67,0,0,0,2.36-1.18A3.67,3.67,0,0,0,38.36,32Z" fill="#fff" stroke="#5d3329" stroke-miterlimit="10" stroke-width="0.47"/><ellipse cx="38.36" cy="33.22" rx="1.03" ry="0.94" fill="#5d3329"/><path d="M41.11,60a25.79,25.79,0,0,1-6.38.66,19.49,19.49,0,0,1-5.81-.78C24.38,63.51,23.7,71.18,23.7,78c0,1.17,5.07,2.11,11.32,2.11S46.34,79.15,46.34,78h.11C46.44,71.21,45.53,63.65,41.11,60Z" fill="#dfdbd1" stroke="#5d3329" stroke-linecap="round" stroke-linejoin="round" stroke-width="0.95"/><path d="M37.58,45.1c0,2.44-1.71,4.41-3.82,4.41s-3.82-2-3.82-4.41" fill="none" stroke="#f5f4f0" stroke-linecap="square" stroke-miterlimit="10" stroke-width="0.95"/><rect x="64.32" y="92.51" width="16.99" height="2.13" rx="0.59" ry="0.59" fill="#dbc19f" stroke="#5d3329" stroke-miterlimit="10" stroke-width="0.95"/><path d="M66.13,92.43a1.36,1.36,0,0,1,1.36-1.36H78.16a1.36,1.36,0,0,1,1.36,1.36" fill="#dfdbd1" stroke="#5d3329" stroke-miterlimit="10" stroke-width="0.95"/><path d="M71.93,86.14V49.46a.89.89,0,0,1,.89-.89h0a.89.89,0,0,1,.89.89V86.14" fill="#dfdbd1" stroke="#5d3329" stroke-linejoin="round" stroke-width="0.47"/><path d="M71.29,91.09v-4a1.53,1.53,0,0,1,1.53-1.53h0a1.53,1.53,0,0,1,1.53,1.53v4" fill="#dfdbd1" stroke="#5d3329" stroke-miterlimit="10" stroke-width="0.95"/><path d="M52.26,76a2.64,2.64,0,0,1,4-2.23l0-.13a3.64,3.64,0,0,1,7.19.68h.07A2.29,2.29,0,0,1,67.36,76H52.26Z" fill="#f5f4f0"/><path d="M57.54,76a2.64,2.64,0,0,0-5.28,0" fill="none" stroke="#5d3329" stroke-miterlimit="10" stroke-width="0.47"/><path d="M67.36,76a2.29,2.29,0,0,0-3.87-1.63" fill="none" stroke="#5d3329" stroke-miterlimit="10" stroke-width="0.47"/><path d="M63.1,76a3.57,3.57,0,0,0,.39-1.64,3.64,3.64,0,0,0-7.2-.72" fill="none" stroke="#5d3329" stroke-miterlimit="10" stroke-width="0.47"/><ellipse cx="63.81" cy="69.61" rx="1.18" ry="1.17" fill="#f5f4f0" stroke="#5d3329" stroke-miterlimit="10" stroke-width="0.47"/><path d="M50.07,76H69.65a.72.72,0,0,1,.73.72v.88a.73.73,0,0,1-.73.72h-1l-1,14.38a2,2,0,0,1-2,2H54a2,2,0,0,1-2-2L51,78.34h-1a.72.72,0,0,1-.73-.72v-.88A.72.72,0,0,1,50.07,76Z" fill="#c6671f" stroke="#5d3329" stroke-linejoin="round" stroke-width="0.95" fill-rule="evenodd"/><line x1="69" y1="78.1" x2="51.04" y2="78.1" fill="none" stroke="#5d3329" stroke-linejoin="round" stroke-width="0.47"/><ellipse cx="61.61" cy="78.42" rx="1.35" ry="1.33" fill="#5d3329"/><path d="M61.7,78.1S57.3,89.36,51.37,88.2C47.13,87.37,51,80,51,80" fill="none" stroke="#5d3329" stroke-linejoin="round" stroke-width="0.95"/><path d="M43.66,22.79,33.6,5.21,23.54,22.79a.83.83,0,0,0-.35.61c0,1.31,4.66,2.37,10.41,2.37S44,24.71,44,23.4A.83.83,0,0,0,43.66,22.79Z" fill="#ec8213" stroke="#5d3329" stroke-linejoin="round" stroke-width="0.95"/><polygon points="29.47 17.9 30.13 19.93 32.27 19.93 30.54 21.19 31.2 23.22 29.47 21.96 27.74 23.22 28.4 21.19 26.67 19.93 28.81 19.93 29.47 17.9" fill="#fff"/><polygon points="33.6 11.1 34.26 13.13 36.4 13.13 34.67 14.39 35.33 16.42 33.6 15.16 31.87 16.42 32.53 14.39 30.8 13.13 32.94 13.13 33.6 11.1" fill="#fff"/><polygon points="37.33 17.9 37.99 19.93 40.13 19.93 38.39 21.19 39.05 23.22 37.33 21.96 35.59 23.22 36.26 21.19 34.52 19.93 36.66 19.93 37.33 17.9" fill="#fff"/><rect width="100" height="100" fill="none"/></svg>