<svg xmlns="http://www.w3.org/2000/svg" width="100" height="100" viewBox="0 0 100 100"><title>глажка</title><path d="M23.55,28.51v0h0c-.18-.35-1.85-3.46-6.63-5.33-5.08-2-7.71-2-7.71-2a39.46,39.46,0,0,0-.88,7.37h0v0h0a37.19,37.19,0,0,0,.88,7.15s2.63,0,7.71-2c4.77-1.82,6.45-4.82,6.63-5.17h0Z" fill="#ec8213" stroke="#5d3329" stroke-miterlimit="10" stroke-width="1.17"/><path d="M26.88,28.51v0h0c.18-.35,1.85-3.46,6.63-5.33,5.08-2,7.71-2,7.71-2a39.4,39.4,0,0,1,.88,7.37h0v0h0a37.14,37.14,0,0,1-.88,7.15s-2.63,0-7.71-2c-4.77-1.82-6.45-4.82-6.63-5.17h0Z" fill="#ec8213" stroke="#5d3329" stroke-miterlimit="10" stroke-width="1.17"/><rect x="3.56" y="58.46" width="41.35" height="9.84" rx="1.66" ry="1.66" fill="#f7e8d2" stroke="#5d3329" stroke-linecap="round" stroke-linejoin="round" stroke-width="1.17"/><path d="M44.52,56.92A1.53,1.53,0,0,1,43,58.46H6.27a1.53,1.53,0,0,1-1.53-1.53h0a1.53,1.53,0,0,1,1.53-1.53H43a1.53,1.53,0,0,1,1.53,1.53Z" fill="#dbc19f" stroke="#5d3329" stroke-linecap="round" stroke-linejoin="round" stroke-width="1.17"/><rect x="4.73" y="46.4" width="40.96" height="8.99" rx="1.66" ry="1.66" fill="#f5f4f0" stroke="#5d3329" stroke-linecap="round" stroke-linejoin="round" stroke-width="1.17"/><rect x="3.56" y="39.98" width="43.03" height="6.42" rx="1.66" ry="1.66" fill="#dfdbd1" stroke="#5d3329" stroke-linecap="round" stroke-linejoin="round" stroke-width="1.17"/><path d="M44.94,38.65A1.52,1.52,0,0,1,43.28,40H6.39a1.52,1.52,0,0,1-1.66-1.33V32.72a1.52,1.52,0,0,1,1.66-1.33H43.28a1.52,1.52,0,0,1,1.66,1.33Z" fill="#f5f4f0" stroke="#5d3329" stroke-linecap="round" stroke-linejoin="round" stroke-width="1.17"/><line x1="5.21" y1="34.81" x2="44.52" y2="34.81" fill="none" stroke="#5d3329" stroke-linecap="round" stroke-linejoin="round" stroke-width="0.59"/><line x1="14.77" y1="37.15" x2="44.52" y2="37.15" fill="none" stroke="#5d3329" stroke-linecap="round" stroke-linejoin="round" stroke-width="0.59"/><line x1="3.56" y1="43.19" x2="36.71" y2="43.19" fill="none" stroke="#5d3329" stroke-linecap="round" stroke-linejoin="round" stroke-width="0.59"/><line x1="44.94" y1="52.56" x2="9.99" y2="52.56" fill="none" stroke="#5d3329" stroke-linecap="round" stroke-linejoin="round" stroke-width="0.59"/><line x1="44.52" y1="63.38" x2="3.91" y2="63.38" fill="none" stroke="#5d3329" stroke-linecap="round" stroke-linejoin="round" stroke-width="0.59"/><path d="M18.9,69.05a7.41,7.41,0,0,1-1-.07C20,65.57,23,61.12,26.05,58.32a7.64,7.64,0,0,1,.6,3A7.76,7.76,0,0,1,18.9,69.05Z" fill="#f7e8d2"/><path d="M25.94,58.83a7.33,7.33,0,0,1,.43,2.47,7.47,7.47,0,0,1-7.46,7.46l-.5,0a52.8,52.8,0,0,1,7.54-9.91m.22-1c-3.21,2.82-6.39,7.49-8.73,11.37a8,8,0,0,0,8.73-11.37Z" fill="#5d3329"/><path d="M21.82,32.19a1.55,1.55,0,0,1,1.42-1.66h3.95a1.55,1.55,0,0,1,1.42,1.66V69.42a1.55,1.55,0,0,1-1.42,1.66H23.24a1.55,1.55,0,0,1-1.42-1.66Z" fill="#ec8213" stroke="#5d3329" stroke-linecap="round" stroke-linejoin="round" stroke-width="1.17"/><path d="M79.41,65.27,76.1,47.5s-24.92-.11-33.53,2.06a37.78,37.78,0,0,0-16.3,8.18c-6.26,5.42-12.48,18-12.48,18H74.71a10.49,10.49,0,0,1,4.7-10.51Zm-28.76-.63c-7,.69-13.75,1-14.24-2S41.13,56.13,48,55s14.4.86,14.89,3.94S61.77,63.55,50.65,64.64Z" fill="#ec8213" stroke="#5d3329" stroke-linecap="round" stroke-linejoin="round" stroke-width="1.17"/><path d="M73.22,47.8h2.64l3.23,17.34a10.91,10.91,0,0,0-2.43,2.26Z" fill="#f7e8d2"/><path d="M75.47,48.08h.15L78.77,65a11.18,11.18,0,0,0-1.93,1.72L73.57,48.09h1.9m0-.59h-2.6l3.61,20.6a10.71,10.71,0,0,1,2.93-2.84L76.1,47.5Z" fill="#5d3329"/><path d="M65.39,58.59C64.7,54.2,58.18,52.24,52,52.24a28,28,0,0,0-4.36.34C40.22,53.75,33.12,57.71,34,63c.73,4.61,6.91,4.61,9.24,4.61s5.28-.24,7.7-.48c8.32-.82,11.86-1.89,13.56-4.08A5.65,5.65,0,0,0,65.39,58.59ZM50.65,64.64c-7,.69-13.75,1-14.24-2S41.13,56.13,48,55s14.4.86,14.89,3.94S61.77,63.55,50.65,64.64Z" fill="#f7e8d2" stroke="#5d3329" stroke-linecap="round" stroke-linejoin="round" stroke-width="0.59"/><path d="M50.65,64.64a60.58,60.58,0,0,0,7.67-1.13l-.08-.9a1.66,1.66,0,0,0-1.79-1.51l-12.9,1.1A1.66,1.66,0,0,0,42,64l.09,1.1A68.53,68.53,0,0,0,50.65,64.64Z" fill="#dfdbd1" stroke="#5d3329" stroke-linecap="round" stroke-linejoin="round" stroke-width="0.59"/><path d="M75.81,77.62a1.25,1.25,0,0,1-1.25,1.25H13.28A1.25,1.25,0,0,1,12,77.62h0a1.25,1.25,0,0,1,1.25-1.25H74.56a1.25,1.25,0,0,1,1.25,1.25Z" fill="#dfdbd1" stroke="#5d3329" stroke-linecap="round" stroke-linejoin="round" stroke-width="0.59"/><path d="M69.66,44.33a3.22,3.22,0,0,0-3.22,3.22s0,0,0,.06c2.51-.06,4.74-.08,6.43-.1A3.22,3.22,0,0,0,69.66,44.33Z" fill="#dfdbd1" stroke="#5d3329" stroke-linecap="round" stroke-linejoin="round" stroke-width="0.59"/><path d="M78,55.08c-.62.11-.77-.47-.88-1.08l-.59-3.27c-.11-.62-.21-1.19.4-1.3l3.78-.23a1.13,1.13,0,0,1,1.32.91l.45,2.51a1.13,1.13,0,0,1-.91,1.32Z" fill="#dfdbd1" stroke="#5d3329" stroke-linecap="round" stroke-linejoin="round" stroke-width="0.59"/><path d="M82.52,50.91s7.28-1.17,8.79,4.18C93.54,63,81.05,65.72,82.52,73.15c1.76,8.92,13.92,4.47,13.92,4.47" fill="none" stroke="#5d3329" stroke-linecap="round" stroke-linejoin="round" stroke-width="1.17"/><line x1="28.25" y1="28.57" x2="34.49" y2="27.17" fill="none" stroke="#5d3329" stroke-linecap="round" stroke-miterlimit="10" stroke-width="0.59"/><line x1="22.23" y1="28.57" x2="15.94" y2="27.17" fill="none" stroke="#5d3329" stroke-linecap="round" stroke-miterlimit="10" stroke-width="0.59"/><path d="M22.67,25.21h5.14a.8.8,0,0,1,.8.8v5.14a.8.8,0,0,1-.8.8H22.67a.79.79,0,0,1-.79-.79V26A.79.79,0,0,1,22.67,25.21Z" fill="#ec8213" stroke="#5d3329" stroke-miterlimit="10" stroke-width="1.17"/><rect width="100" height="100" fill="none"/></svg>