<svg xmlns="http://www.w3.org/2000/svg" width="100" height="100" viewBox="0 0 100 100"><title>Сертификат-2</title><path d="M66.26 74.34V49.15s-14.07-2.7-21.26 8.4C38.23 68 47.39 84.18 47.39 84.18h15" fill="#c6671f" stroke="#5d3329" stroke-linejoin="round" stroke-width="1.1" fill-rule="evenodd"/><ellipse cx="63.01" cy="78.63" rx="5.62" ry="5.55" fill="#dfdbd1" stroke="#5d3329" stroke-miterlimit="10" stroke-width="1.1"/><ellipse cx="63.01" cy="78.63" rx="3.23" ry="3.19" fill="#f5f4f0" stroke="#5d3329" stroke-linejoin="round" stroke-width=".55"/><path d="M54.81 50a14.83 14.83 0 0 1 4 10.17 15.08 15.08 0 0 1-15.17 15" fill="none" stroke="#5d3329" stroke-linejoin="round" stroke-width=".55" fill-rule="evenodd"/><path d="M85.48 77.77h-3.19l-6.68-41.49c-.8-3.71-2.73-6-6.09-6a6.06 6.06 0 0 0-6.08 6v9.86h-3.19v-9.86a9.23 9.23 0 0 1 9.27-9.17c5.12 0 8.27 3.74 9.28 9.17z" fill="#dfdbd1" stroke="#5d3329" stroke-linecap="round" stroke-linejoin="round" stroke-width=".55"/><path d="M58.83 48.87a2.75 2.75 0 0 1 2.77-2.73h.94a2.75 2.75 0 0 1 2.77 2.73" fill="#dfdbd1" stroke="#5d3329" stroke-linejoin="round" stroke-width="1.1"/><path d="M93.93 80.44h-3.57a2.47 2.47 0 0 0-2.46-2.15h-8a2.48 2.48 0 0 0-2.46 2.15h-3.6a1.07 1.07 0 0 0-1.07 1.06v1.72a1.07 1.07 0 0 0 1.07 1.06h20.09A1.06 1.06 0 0 0 95 83.22V81.5a1.06 1.06 0 0 0-1.07-1.06z" fill="#f5f4f0" stroke="#5d3329" stroke-miterlimit="10" stroke-width="1.1"/><path fill="#dfdbd1" stroke="#5d3329" stroke-linejoin="round" stroke-width=".55" d="M76.88 80.74h13.88"/><path fill="#dfdbd1" stroke="#5d3329" stroke-linejoin="round" stroke-width="1.1" d="M80.73 68.56l1.56 9.73h3.19l-1.57-9.73h-3.18z"/><rect x="5.68" y="22.31" width="44.5" height="63.92" rx="1.75" ry="1.75" fill="#f5f4f0" stroke="#5d3329" stroke-linejoin="round" stroke-width="1.1"/><path fill="#ec8213" stroke="#5d3329" stroke-linejoin="round" stroke-width="1.1" fill-rule="evenodd" d="M5 35.22v10.4l23.99-23.99h-10.4L5 35.22z"/><text transform="translate(16.41 46.63)" font-size="4.13" fill="#5d3329" font-family="ElektraTextPro-Bold, ElektraTextPro Bold" font-weight="700">П<tspan x="2.64" y="0" letter-spacing="-.01em">о</tspan><tspan x="4.88" y="0">дар</tspan><tspan x="11.41" y="0" letter-spacing="-.01em">о</tspan><tspan x="13.63" y="0">чный</tspan><tspan x="1.02" y="4.96" letter-spacing="-.01em">с</tspan><tspan x="2.84" y="4.96" letter-spacing="0em">е</tspan><tspan x="4.91" y="4.96" letter-spacing="-.01em">рт</tspan><tspan x="8.9" y="4.96">ифин</tspan><tspan x="18.38" y="4.96" letter-spacing="-.01em">а</tspan><tspan x="20.34" y="4.96" letter-spacing="0em">т</tspan></text><path fill="none" stroke="#dfdbd1" stroke-linecap="round" stroke-miterlimit="10" stroke-width="1.1" d="M16.19 59.41H40.5M16.19 65.59H40.5M16.19 71.77H40.5"/><path fill="#ec8213" stroke="#5d3329" stroke-linejoin="round" stroke-width="1.1" fill-rule="evenodd" d="M35.59 86.79l15.16-15.16V61.19l-25.61 25.6h10.45z"/><path d="M26.14 23.8s.2 3.34-3 8.49a55.69 55.69 0 0 0-3.94 7.14 25.2 25.2 0 0 1-2-4.53 11.31 11.31 0 0 1-.56-3.28s2.6-3.49 5.14-6.24a18.78 18.78 0 0 1 3-3zM27.32 23.8s-.21 3.34 3 8.49a55.39 55.39 0 0 1 4 7.14 25 25 0 0 0 2.06-4.53 11.08 11.08 0 0 0 .62-3.29s-2.65-3.49-5.25-6.24a19 19 0 0 0-3.07-3z" fill="#ec8213" stroke="#5d3329" stroke-miterlimit="10" stroke-width="1.1"/><path d="M25.44 21.34A11.77 11.77 0 0 0 20 15.45c-4.12-2.19-6.26-2.24-6.26-2.24a58 58 0 0 0-.71 8.11 54.62 54.62 0 0 0 .71 7.87s2.14 0 6.26-2.17a11.52 11.52 0 0 0 5.38-5.69zM28.14 21.34a11.77 11.77 0 0 1 5.38-5.87c4.12-2.19 6.26-2.24 6.26-2.24a58.07 58.07 0 0 1 .71 8.11 54.71 54.71 0 0 1-.71 7.87s-2.14 0-6.26-2.17a11.52 11.52 0 0 1-5.38-5.69z" fill="#ec8213" stroke="#5d3329" stroke-miterlimit="10" stroke-width="1.1"/><rect x="24.36" y="18.91" width="4.89" height="4.89" rx=".58" ry=".58" fill="#ec8213" stroke="#5d3329" stroke-miterlimit="10" stroke-width="1.1"/><path fill="none" stroke="#5d3329" stroke-linecap="round" stroke-miterlimit="10" stroke-width=".55" d="M24.36 21.22h-5.11M29.25 21.22h4.79"/><path fill="none" d="M0 0h100v100H0z"/></svg>