<svg xmlns="http://www.w3.org/2000/svg" width="100" height="100" viewBox="0 0 100 100"><title>опаздание-2</title><path d="M12.16,19.83c0-9,8.75-16.21,20.54-16.21s20.54,7.26,20.54,16.21C53.24,29.45,44.49,36,32.7,36S12.16,30.1,12.16,19.83Z" fill="#dbc19f" stroke="#5d3329" stroke-miterlimit="10" stroke-width="1.17"/><path d="M40,90.36a6.88,6.88,0,0,1,4.05-.87c2.68.11,5.45,2.6,2.79,5.58s-7.22-.05-9.72-.43-3.15-1.9-3.2-3.14l-.05-1.25Z" fill="#dbc19f" stroke="#5d3329" stroke-miterlimit="10" stroke-width="0.58"/><path d="M27.47,90.36a7,7,0,0,0-4.1-.87c-2.71.11-5.5,2.6-2.82,5.58s7.3-.05,9.82-.43,3.18-1.9,3.24-3.14l.05-1.25Z" fill="#dbc19f" stroke="#5d3329" stroke-miterlimit="10" stroke-width="0.58"/><path d="M41.23,82.4,40.14,90a.9.9,0,0,1,0,.1c0,.84-1.41,1.52-3.15,1.52s-3.15-.68-3.15-1.52h-.07V82.4Z" fill="#dfdbd1" stroke="#5d3329" stroke-linecap="round" stroke-linejoin="round" stroke-width="0.58"/><path d="M26.23,82.4,27.34,90a.79.79,0,0,0,0,.1c0,.84,1.43,1.52,3.19,1.52S33.7,91,33.7,90.14h.07V82.4Z" fill="#dfdbd1" stroke="#5d3329" stroke-linecap="round" stroke-linejoin="round" stroke-width="0.58"/><path d="M33.77,67.47H23.32l1.06,14.47c0,2.67,2.1,3.86,4.69,3.86s4.69-1.19,4.69-3.86c0,2.67,2.17,3.86,4.84,3.86s4.84-1.19,4.84-3.86l1.09-14.47Z" fill="#c6671f" stroke="#5d3329" stroke-miterlimit="10" stroke-width="1.17"/><path d="M54.17,59.47s0-.07,0-.1,0-.06,0-.09.25-9.91-3.22-15.37c-2.65-4.17-4.32-5.26-5.58-6.09-2.43-2.13-6.75-3.55-11.69-3.55H33c-4.87,0-9.13,1.42-11.52,3.55-1.24.83-2.89,1.93-5.5,6.09-3.42,5.46-3.17,15.37-3.17,15.37s0,.06,0,.09,0,.07,0,.1a2.41,2.41,0,0,0,1.18,2l-.06,1.26c0,.48,1.3.94,3,1s2.57-.24,2.6-.73l.05-1.13a2.78,2.78,0,0,0,1-.91l-.42,6.45c0,.87,5.69,1.57,12.86,1.62h.68c7.28,0,13.06-.75,13.06-1.62L46.31,61a2.8,2.8,0,0,0,1,.91l.06,1.13c0,.48.95.81,2.63.73s3-.54,3-1L53,61.5A2.4,2.4,0,0,0,54.17,59.47Z" fill="#f5f4f0" stroke="#5d3329" stroke-linecap="round" stroke-linejoin="round" stroke-width="1.17"/><path d="M27.07,32.44v1.85c0,1,2.35,1.85,5.24,1.85s5.24-.83,5.24-1.85V32.44Z" fill="#f5f4f0" stroke="#5d3329" stroke-linecap="round" stroke-linejoin="round" stroke-width="1.17"/><path d="M32.31,33.5c-7.69,0-13.94-5.56-13.94-12.4A11.13,11.13,0,0,1,19.6,16a42.47,42.47,0,0,0,12.71,1.87A42.47,42.47,0,0,0,45,16a11.12,11.12,0,0,1,1.23,5.06C46.25,27.94,40,33.5,32.31,33.5Z" fill="#f7e8d2"/><path d="M44.87,16.39A10.8,10.8,0,0,1,46,21.1c0,6.68-6.12,12.11-13.65,12.11S18.67,27.78,18.67,21.1a10.8,10.8,0,0,1,1.09-4.71,42.92,42.92,0,0,0,12.56,1.81,42.92,42.92,0,0,0,12.56-1.81m.3-.71a41.85,41.85,0,0,1-12.86,1.94,41.85,41.85,0,0,1-12.86-1.94,11.5,11.5,0,0,0-1.38,5.42c0,7,6.37,12.7,14.23,12.7s14.23-5.68,14.23-12.7a11.5,11.5,0,0,0-1.38-5.42Z" fill="#5d3329"/><path d="M36.66,27.7a14.07,14.07,0,0,1-4.67.74,14.37,14.37,0,0,1-4.43-.66" fill="none" stroke="#5d3329" stroke-linecap="round" stroke-miterlimit="10" stroke-width="0.58"/><path d="M34.18,29.85a7,7,0,0,1-2.12.3,7.18,7.18,0,0,1-2-.27" fill="#fff" stroke="#5d3329" stroke-linecap="round" stroke-miterlimit="10" stroke-width="0.58"/><path d="M33.5,25.6a10.36,10.36,0,0,1-1.43.09,10.73,10.73,0,0,1-1.35-.08" fill="#fff" stroke="#5d3329" stroke-linecap="round" stroke-miterlimit="10" stroke-width="0.29"/><line x1="21.09" y1="60.56" x2="22.19" y2="45.6" fill="#fff" stroke="#5d3329" stroke-linecap="round" stroke-miterlimit="10" stroke-width="0.58"/><line x1="46.31" y1="61.02" x2="43.58" y2="44.48" fill="#fff" stroke="#5d3329" stroke-linecap="round" stroke-miterlimit="10" stroke-width="0.58"/><path d="M20.36,63.8s3.56,2.07,13.41,1.64S47,63.8,47,63.8" fill="none" stroke="#5d3329" stroke-linecap="round" stroke-miterlimit="10" stroke-width="0.58"/><path d="M34.84,35.87v7.69a.92.92,0,0,1-.92.92H30.71a.92.92,0,0,1-.92-.92V35.87" fill="none" stroke="#5d3329" stroke-linecap="round" stroke-miterlimit="10" stroke-width="0.58"/><path d="M14.42,63.43s0,5,1.52,6.25,3.77,1.67,3.32.46a24.33,24.33,0,0,1-.83-3.23,2.45,2.45,0,0,1,1.08.91c.49.7.75-.13.23-1.14s-1.32-3.33-1.32-3.33Z" fill="#f7e8d2" stroke="#5d3329" stroke-miterlimit="10" stroke-width="0.58"/><path d="M51.93,63.43s0,5-1.46,6.25-3.62,1.67-3.18.46a25,25,0,0,0,.79-3.23,2.37,2.37,0,0,0-1,.91c-.47.7-.72-.13-.22-1.14s1.26-3.33,1.26-3.33Z" fill="#f7e8d2" stroke="#5d3329" stroke-miterlimit="10" stroke-width="0.58"/><line x1="33.77" y1="81.94" x2="33.77" y2="69.09" fill="none" stroke="#5d3329" stroke-linecap="round" stroke-miterlimit="10" stroke-width="0.58"/><path d="M25.81,20.18a4.48,4.48,0,0,0-2.88,1.44,4.48,4.48,0,0,0,2.88,1.44,4.48,4.48,0,0,0,2.88-1.44A4.48,4.48,0,0,0,25.81,20.18Z" fill="#fff" stroke="#5d3329" stroke-miterlimit="10" stroke-width="0.58"/><ellipse cx="25.81" cy="21.63" rx="1.26" ry="1.14" fill="#5d3329"/><path d="M37.92,20.18A4.48,4.48,0,0,0,35,21.63a4.48,4.48,0,0,0,2.88,1.44,4.48,4.48,0,0,0,2.87-1.44A4.48,4.48,0,0,0,37.92,20.18Z" fill="#fff" stroke="#5d3329" stroke-miterlimit="10" stroke-width="0.58"/><ellipse cx="37.92" cy="21.63" rx="1.26" ry="1.14" fill="#5d3329"/><circle cx="18.25" cy="46.59" r="2.11" fill="#ec8213"/><circle cx="18.08" cy="57.54" r="2.11" fill="#ec8213"/><circle cx="27.07" cy="51" r="2.11" fill="#ec8213"/><circle cx="39.36" cy="47.89" r="2.11" fill="#ec8213"/><circle cx="34.84" cy="56.85" r="2.11" fill="#ec8213"/><circle cx="40.8" cy="61.07" r="2.11" fill="#ec8213"/><circle cx="49.24" cy="57.54" r="2.11" fill="#ec8213"/><circle cx="26.23" cy="61.07" r="2.11" fill="#ec8213"/><circle cx="41.47" cy="39.47" r="2.11" fill="#ec8213"/><circle cx="25.81" cy="39.47" r="2.11" fill="#ec8213"/><circle cx="48.66" cy="46.59" r="2.11" fill="#ec8213"/><path d="M39.38,61.86A24.23,24.23,0,1,1,63.6,86.11,24.22,24.22,0,0,1,39.38,61.86Z" fill="#dfdbd1" stroke="#5d3329" stroke-linecap="round" stroke-linejoin="round" stroke-width="1.17"/><path d="M43.53,61.87A20.07,20.07,0,1,1,63.6,82,20.07,20.07,0,0,1,43.53,61.87Z" fill="#f5f4f0" stroke="#5d3329" stroke-linecap="round" stroke-linejoin="round" stroke-width="0.58"/><path d="M63.61,41.81V61.88H83.68A20.07,20.07,0,0,0,63.61,41.81Z" fill="#ec8213" stroke="#5d3329" stroke-linecap="round" stroke-linejoin="round" stroke-width="0.58"/><circle cx="49.79" cy="61.88" r="0.88" fill="#ec8213"/><circle cx="63.61" cy="48.07" r="0.88" fill="#ec8213"/><circle cx="63.61" cy="75.69" r="0.88" fill="#ec8213"/><circle cx="51.64" cy="68.77" r="0.88" transform="translate(-27.43 34.93) rotate(-29.93)" fill="#5d3329"/><circle cx="75.58" cy="54.99" r="0.88" transform="translate(-17.36 45.11) rotate(-29.98)" fill="#5d3329"/><circle cx="56.71" cy="49.91" r="0.88" transform="translate(-17.34 34.98) rotate(-29.95)" fill="#5d3329"/><circle cx="70.5" cy="73.85" r="0.88" transform="translate(-27.46 45.06) rotate(-29.95)" fill="#5d3329"/><circle cx="56.7" cy="73.84" r="0.88" transform="translate(-35.59 86.05) rotate(-60.02)" fill="#5d3329"/><circle cx="70.51" cy="49.92" r="0.88" transform="matrix(0.5, -0.87, 0.87, 0.5, -7.98, 86)" fill="#5d3329"/><circle cx="51.65" cy="54.97" r="0.88" transform="translate(-21.79 72.18) rotate(-59.98)" fill="#5d3329"/><circle cx="75.57" cy="68.79" r="0.88" transform="translate(-21.78 99.86) rotate(-60.01)" fill="#5d3329"/><line x1="63.61" y1="61.88" x2="63.61" y2="45.53" fill="#dfdbd1" stroke="#5d3329" stroke-linecap="round" stroke-linejoin="round" stroke-width="1.17"/><line x1="63.15" y1="61.88" x2="54.47" y2="56.87" fill="#dfdbd1" stroke="#5d3329" stroke-linecap="round" stroke-linejoin="round" stroke-width="1.17"/><circle cx="63.61" cy="61.88" r="1.81" fill="#dfdbd1" stroke="#5d3329" stroke-linecap="round" stroke-linejoin="round" stroke-width="1.17"/><rect width="100" height="100" fill="none"/></svg>