<svg xmlns="http://www.w3.org/2000/svg" width="100" height="100" viewBox="0 0 100 100"><title>график</title><path d="M25.58,33.93a4.68,4.68,0,0,0,5.2,1l16,17.47,3.91-3.91-17.47-16a4.67,4.67,0,0,0-1-5.2" fill="#dfdbd1" stroke="#5d3329" stroke-linecap="round" stroke-linejoin="round" stroke-width="1.12" fill-rule="evenodd"/><path d="M15.9,37l1.92,1.92a2,2,0,0,0,2.77,0l16.6-16.6a2,2,0,0,0,0-2.77l-1.92-1.93" fill="#dfdbd1" stroke="#5d3329" stroke-linejoin="round" stroke-width="1.12" fill-rule="evenodd"/><rect x="10.1" y="23.93" width="28.26" height="4.05" transform="translate(-11.26 24.73) rotate(-45)" fill="#c6671f"/><path d="M32.78,14.93l2.47,2.47L15.67,37,13.2,34.52,32.78,14.93m0-.79L12.41,34.52l3.26,3.26L36,17.4l-3.26-3.26Z" fill="#5d3329"/><path d="M55.76,18.15V15a.4.4,0,0,1,.4-.4h4a.4.4,0,0,1,.4.4v3.15Z" fill="#ec8213"/><path d="M60.17,14.88a.12.12,0,0,1,.12.12v2.87H56V15a.12.12,0,0,1,.12-.12h4m0-.56h-4a.68.68,0,0,0-.68.68v3.43h5.37V15a.68.68,0,0,0-.68-.68Z" fill="#5d3329"/><path d="M45.05,57.91a3.2,3.2,0,0,1-3.2-3.2V33.95c0-1.46,1.1-2.52,3.36-3.22,9.22-2.87,10.55-9.07,10.75-10.8h4.31V54.71a3.2,3.2,0,0,1-3.2,3.2Z" fill="#dbc19f"/><path d="M59.72,20.48V54.71a2.64,2.64,0,0,1-2.63,2.63h-12a2.64,2.64,0,0,1-2.63-2.63V33.95c0-.76.31-1.86,3-2.69C54.15,28.53,56,22.82,56.45,20.48h3.28m1.11-1.12H55.45s0,.07,0,.11S55.32,27,45.05,30.19c-2,.62-3.76,1.68-3.76,3.76V54.71a3.76,3.76,0,0,0,3.76,3.76h12a3.76,3.76,0,0,0,3.76-3.76V19.47a.89.89,0,0,0,0-.11Z" fill="#5d3329"/><path d="M75.56,38.07c-.44-5.76-4.44-10.28-9.32-10.28s-8.88,4.51-9.31,10.28a1.51,1.51,0,0,0,0,.35v19A1.53,1.53,0,0,0,58.42,59H74.08a1.53,1.53,0,0,0,1.53-1.53v-19A1.58,1.58,0,0,0,75.56,38.07Z" fill="#ec8213" stroke="#5d3329" stroke-miterlimit="10" stroke-width="1.12"/><path d="M69.23,24.61h-6a.56.56,0,0,0-.56.55V28h7.07V25.17A.55.55,0,0,0,69.23,24.61Z" fill="#dfdbd1" stroke="#5d3329" stroke-miterlimit="10" stroke-width="0.56"/><path d="M25.69,51.11l2.85,18.06a3.52,3.52,0,0,0,3.52,3.52h40.1a3.52,3.52,0,0,0,3.52-3.52l2.85-18.06Z" fill="#dfdbd1" stroke="#5d3329" stroke-linecap="round" stroke-linejoin="round" stroke-width="1.12"/><rect x="22.02" y="45.9" width="60.17" height="5.21" rx="1.2" ry="1.2" fill="#f5f4f0" stroke="#5d3329" stroke-linecap="round" stroke-linejoin="round" stroke-width="1.12"/><path d="M46.44,45.9,42,50.75s0,3.89-.87,5.66c-.52,1.05-2.65,6.1-4.7,5-1.12-.6,1.32-5.51,1.32-5.51l-7.09,7a1.44,1.44,0,0,1-2-2L27.5,62a1.44,1.44,0,0,1-2-2l1-1a1.43,1.43,0,0,1-1.78-2.23l2.08-2.08a1.44,1.44,0,0,1-2-2L31,46.43C32.9,44.5,32.37,45,32.37,45a26.78,26.78,0,0,1,7.83-.69C45,44.69,46.44,45.9,46.44,45.9Z" fill="#ec8213" stroke="#5d3329" stroke-linecap="round" stroke-linejoin="round" stroke-width="0.56" fill-rule="evenodd"/><line x1="28.71" y1="60.81" x2="32.99" y2="56.53" fill="#ec8213" stroke="#5d3329" stroke-linecap="round" stroke-linejoin="round" stroke-width="0.56"/><line x1="26.42" y1="59.04" x2="31.26" y2="54.2" fill="#ec8213" stroke="#5d3329" stroke-linecap="round" stroke-linejoin="round" stroke-width="0.56"/><line x1="26.82" y1="54.64" x2="29.47" y2="51.98" fill="#ec8213" stroke="#5d3329" stroke-linecap="round" stroke-linejoin="round" stroke-width="0.56"/><line x1="37.3" y1="56.41" x2="39.01" y2="54.7" fill="#ec8213" stroke="#5d3329" stroke-linecap="round" stroke-linejoin="round" stroke-width="0.56"/><path d="M44.25,45.1,44.2,47S41.54,49.81,41,51.67c-.35,1.11-2.28,6.21-.09,6.76,1.2.3,2.81-4.9,2.81-4.9L44,63.29a1.35,1.35,0,0,0,1.44,1.33,1.47,1.47,0,0,0,1.38-1.49l0,1.64a1.35,1.35,0,0,0,1.44,1.33,1.47,1.47,0,0,0,1.38-1.49l0-1.32a1.35,1.35,0,0,0,1.39,1,1.47,1.47,0,0,0,1.38-1.49l-.05-2.89a1.35,1.35,0,0,0,1.44,1.33,1.47,1.47,0,0,0,1.38-1.49L55,51.08c-.05-2.69,0-6.1,0-6.1a21.16,21.16,0,0,0-5.13-.39A28,28,0,0,0,44.25,45.1Z" fill="#ec8213" stroke="#5d3329" stroke-linecap="round" stroke-linejoin="round" stroke-width="0.56" fill-rule="evenodd"/><line x1="46.77" y1="63.09" x2="46.66" y2="57.15" fill="#ec8213" stroke="#5d3329" stroke-linecap="round" stroke-linejoin="round" stroke-width="0.56"/><line x1="49.59" y1="63.3" x2="49.47" y2="56.57" fill="#ec8213" stroke="#5d3329" stroke-linecap="round" stroke-linejoin="round" stroke-width="0.56"/><line x1="52.31" y1="59.82" x2="52.24" y2="56.12" fill="#ec8213" stroke="#5d3329" stroke-linecap="round" stroke-linejoin="round" stroke-width="0.56"/><line x1="43.69" y1="54.22" x2="43.65" y2="51.84" fill="#ec8213" stroke="#5d3329" stroke-linecap="round" stroke-linejoin="round" stroke-width="0.56"/><path d="M21.65,85.57V78.79l-2,.82-.55-1.77,4.63-1.73v9.46Z" fill="#ec8213"/><path d="M33.29,76.53v1.83H29.41v1.56q.45,0,.9,0c2.57,0,3.32.78,3.32,2.83,0,2.36-.92,3-3.57,3a15.8,15.8,0,0,1-3-.31l.39-1.86a9.06,9.06,0,0,0,2.14.25c1.49,0,1.78-.17,1.78-1.05s-.21-1.12-1.77-1.12a18.94,18.94,0,0,0-2.14.13V76.53Z" fill="#ec8213"/><path d="M39.88,79.24c0,2.36-.7,3.06-2.56,3.06s-2.54-.7-2.54-3.06.7-2.93,2.54-2.93S39.88,76.92,39.88,79.24Zm-1.74,0c0-1.4-.16-1.57-.82-1.57s-.82.17-.82,1.57.17,1.66.82,1.66S38.14,80.69,38.14,79.25Zm6.59-2.72-5.79,9h-1.8l5.77-9Zm2.43,6.18c0,2.35-.7,3-2.56,3s-2.54-.7-2.54-3,.69-2.95,2.54-2.95S47.16,80.37,47.16,82.7Zm-1.75,0c0-1.39-.14-1.57-.8-1.57s-.82.18-.82,1.57.17,1.66.82,1.66S45.41,84.15,45.41,82.7Z" fill="#ec8213"/><path d="M61,80.09h1.36c.84,0,1.14-.17,1.14-.89s-.29-.87-1.75-.87a9.63,9.63,0,0,0-2.17.25l-.39-1.83a15.32,15.32,0,0,1,3-.32c2.67,0,3.49.62,3.49,2.35,0,1.26-.32,2-1.95,2.15,1.71.08,2.13.92,2.13,2.34,0,1.95-1.05,2.61-3.68,2.61a16.58,16.58,0,0,1-3.07-.31l.39-1.86a9.8,9.8,0,0,0,2.19.25c1.58,0,1.89-.23,1.89-1s-.34-1-1.23-1H61Z" fill="#ec8213"/><path d="M73.72,76.64v1.83H69.84V80q.45,0,.9,0c2.57,0,3.32.78,3.32,2.83,0,2.36-.92,3-3.57,3a15.79,15.79,0,0,1-3-.31l.39-1.86a9.09,9.09,0,0,0,2.14.25c1.49,0,1.78-.17,1.78-1.05s-.21-1.12-1.76-1.12a19,19,0,0,0-2.14.13V76.64Z" fill="#ec8213"/><path d="M80.32,79.35c0,2.36-.7,3.06-2.56,3.06s-2.54-.7-2.54-3.06.7-2.93,2.54-2.93S80.32,77,80.32,79.35Zm-1.74,0c0-1.4-.16-1.57-.82-1.57s-.82.17-.82,1.57.17,1.66.82,1.66S78.58,80.8,78.58,79.36Zm6.59-2.72-5.79,9h-1.8l5.77-9Zm2.43,6.18c0,2.35-.7,3-2.56,3s-2.54-.7-2.54-3,.69-2.95,2.54-2.95S87.59,80.48,87.59,82.81Zm-1.75,0c0-1.39-.14-1.57-.8-1.57s-.82.18-.82,1.57.17,1.66.82,1.66S85.84,84.26,85.84,82.81Z" fill="#ec8213"/><line x1="50.35" y1="85.77" x2="56.13" y2="76.73" fill="#dfdbd1" stroke="#5d3329" stroke-linecap="round" stroke-linejoin="round" stroke-width="1.12"/><rect width="100" height="100" fill="none"/></svg>