<svg xmlns="http://www.w3.org/2000/svg" width="48" height="48.48" viewBox="0 0 48 48.48"><title>kitchen-desktop-2</title><path d="M8.46 45.11v1.61A1.26 1.26 0 0 1 7.2 48a1.26 1.26 0 0 1-1.26-1.26v-1.63M26.27 45.11v1.61A1.26 1.26 0 0 1 25 48a1.26 1.26 0 0 1-1.26-1.26v-1.63" fill="#e2ddd3" stroke="#682f24" stroke-linejoin="round"/><path d="M30.5 29.83H2.39A1.89 1.89 0 0 0 .5 31.72v11.64a1.89 1.89 0 0 0 1.89 1.89H30.5" fill="#e2ddd3" stroke="#682f24" stroke-linejoin="round"/><path fill="none" stroke="#682f24" stroke-miterlimit="10" stroke-width=".5" d="M15.52 29.71v15.13"/><path d="M22.61 30v-7.66a2.35 2.35 0 1 0-4.71 0V24" fill="none" stroke="#682f24" stroke-linejoin="round"/><path d="M28.51 27.21a.84.84 0 0 1-.84.84h-2.46a.84.84 0 0 1-.84-.84.84.84 0 0 1 .84-.84h2.46a.84.84 0 0 1 .84.84zM20.46 27.21a.84.84 0 0 1-.84.84h-2.46a.84.84 0 0 1-.84-.84.84.84 0 0 1 .84-.84h2.46a.84.84 0 0 1 .84.84z" fill="#e2ddd3" stroke="#682f24" stroke-linejoin="round" stroke-width=".5"/><path fill="none" stroke="#682f24" stroke-linejoin="round" stroke-width="1.26" d="M26.44 29.97v-1.71M18.39 29.97v-1.71"/><path fill="none" stroke="#682f24" stroke-miterlimit="10" stroke-width=".5" d="M15.52 35.27H.5M15.52 39.92H.5"/><circle cx="19.18" cy="34.21" r="1.04" fill="#682f24"/><rect x=".5" y=".5" width="26.15" height="13.53" rx="1.85" ry="1.85" fill="#fd8204" stroke="#682f24" stroke-linejoin="round"/><path fill="none" stroke="#682f24" stroke-linejoin="round" stroke-width=".5" d="M13.86.78v13.2"/><circle cx="16.66" cy="10.94" r="1.01" fill="#682f24"/><circle cx="10.89" cy="10.94" r="1.01" fill="#682f24"/><path d="M4.52 23v4.68A1.48 1.48 0 0 0 6 29.11h4.93a1.48 1.48 0 0 0 1.48-1.48V23z" fill="#dce1e2" stroke="#682f24" stroke-linecap="round" stroke-linejoin="round"/><path d="M11 20.64H5.92a1.52 1.52 0 0 0-1.52 1.52v.73h8.12v-.73A1.52 1.52 0 0 0 11 20.64z" fill="#dce1e2" stroke="#682f24" stroke-miterlimit="10" stroke-width=".5"/><path fill="none" stroke="#682f24" stroke-linecap="round" stroke-linejoin="round" stroke-width="1.26" d="M3.78 22.95h9.36"/><path d="M7.41 20.64a1.05 1.05 0 1 1 2.1 0" fill="none" stroke="#682f24" stroke-miterlimit="10" stroke-width=".5"/><rect x="30.5" y=".58" width="17" height="47.36" rx="2.46" ry="2.46" fill="#dce1e2" stroke="#682f24" stroke-linejoin="round"/><path d="M30.5 32.48h2.7a1.86 1.86 0 0 1 1.86 1.86 1.86 1.86 0 0 1-1.86 1.86h-2.7M34.86 34.33H47.5" fill="none" stroke="#682f24" stroke-miterlimit="10" stroke-width=".5"/></svg>