<svg xmlns="http://www.w3.org/2000/svg" width="30" height="30" viewBox="0 0 30 30"><title>восклицательный</title><g id="Слой_2" data-name="Слой 2"><g id="Слой_1-2" data-name="Слой 1"><rect width="30" height="30" fill="none"/><path d="M15,25.61H5.44a1.85,1.85,0,0,1-1.51-2.77l4.79-8.76L13.5,5.33a1.7,1.7,0,0,1,3,0l4.79,8.76,4.79,8.76a1.85,1.85,0,0,1-1.51,2.77Z" fill="#fd8204" stroke="#692f17" stroke-miterlimit="10" stroke-width="0.8"/><path d="M16.45,12.6a4,4,0,0,1-.11.81q-.11.5-.27,1.18t-.36,1.59q-.2,1-.42,2.36h-.57q-.22-1.42-.42-2.36t-.36-1.58q-.14-.59-.26-1.15a4.46,4.46,0,0,1-.12-.84,1.3,1.3,0,0,1,.42-1,1.42,1.42,0,0,1,1-.4,1.44,1.44,0,0,1,1,.4A1.29,1.29,0,0,1,16.45,12.6Zm0,8.2a1.29,1.29,0,0,1-.43,1,1.44,1.44,0,0,1-2,0,1.29,1.29,0,0,1-.43-1,1.31,1.31,0,0,1,.43-1,1.42,1.42,0,0,1,2,0A1.31,1.31,0,0,1,16.44,20.8Z" fill="#f5f4f0"/></g></g></svg>