<svg xmlns="http://www.w3.org/2000/svg" width="30" height="30" viewBox="0 0 30 30"><g data-name="Слой 1"><path fill="none" d="M0 0h30v30H0z"/><path d="M6.63 17.51v1.66a.82.82 0 0 1 0 .08c0 .84 2.45 1.52 5.46 1.52s5.46-.68 5.46-1.52v-1.74z" fill="#fd8204" stroke="#692f17" stroke-miterlimit="10" stroke-width=".75"/><ellipse cx="12.1" cy="17.46" rx="5.47" ry="1.52" fill="#fd8204" stroke="#692f17" stroke-miterlimit="10" stroke-width=".75"/><path d="M6.55 15.31V17a.82.82 0 0 1 0 .08c0 .84 2.45 1.52 5.46 1.52s5.46-.68 5.46-1.52v-1.77z" fill="#fd8204" stroke="#692f17" stroke-miterlimit="10" stroke-width=".75"/><ellipse cx="12.02" cy="15.26" rx="5.47" ry="1.52" fill="#ffc166" stroke="#692f17" stroke-miterlimit="10" stroke-width=".75"/><path d="M6.85 13.29V15a.82.82 0 0 1 0 .08c0 .84 2.45 1.52 5.46 1.52s5.46-.68 5.46-1.52v-1.79z" fill="#fd8204" stroke="#692f17" stroke-miterlimit="10" stroke-width=".75"/><ellipse cx="12.32" cy="13.24" rx="5.47" ry="1.52" fill="#fd8204" stroke="#692f17" stroke-miterlimit="10" stroke-width=".75"/><path d="M4.82 11.23v1.67a.82.82 0 0 1 0 .08c0 .84 2.45 1.52 5.46 1.52s5.46-.68 5.46-1.52v-1.75z" fill="#fd8204" stroke="#692f17" stroke-miterlimit="10" stroke-width=".75"/><ellipse cx="10.3" cy="11.18" rx="5.47" ry="1.52" fill="#ffc166" stroke="#692f17" stroke-miterlimit="10" stroke-width=".75"/><path d="M6.16 8.91v1.66a.82.82 0 0 1 0 .08c0 .84 2.45 1.52 5.46 1.52s5.46-.68 5.46-1.52V8.91z" fill="#fd8204" stroke="#692f17" stroke-miterlimit="10" stroke-width=".75"/><ellipse cx="11.63" cy="8.86" rx="5.47" ry="1.52" fill="#ffc166" stroke="#692f17" stroke-miterlimit="10" stroke-width=".75"/><path d="M13.82 19.39v1.66a.82.82 0 0 1 0 .08c0 .84 2.45 1.52 5.46 1.52s5.46-.68 5.46-1.52v-1.74z" fill="#fd8204" stroke="#692f17" stroke-miterlimit="10" stroke-width=".75"/><ellipse cx="19.29" cy="19.34" rx="5.47" ry="1.52" fill="#fd8204" stroke="#692f17" stroke-miterlimit="10" stroke-width=".75"/><path d="M14.24 17.19v1.66a.82.82 0 0 1 0 .08c0 .84 2.45 1.52 5.46 1.52s5.46-.68 5.46-1.52v-1.74z" fill="#fd8204" stroke="#692f17" stroke-miterlimit="10" stroke-width=".75"/><ellipse cx="19.71" cy="17.14" rx="5.47" ry="1.52" fill="#ffc166" stroke="#692f17" stroke-miterlimit="10" stroke-width=".75"/><path d="M12 15.17v1.66a.82.82 0 0 1 0 .08c0 .84 2.45 1.52 5.46 1.52S23 17.76 23 16.92v-1.75z" fill="#fd8204" stroke="#692f17" stroke-miterlimit="10" stroke-width=".75"/><ellipse cx="17.51" cy="15.12" rx="5.47" ry="1.52" fill="#ffc166" stroke="#692f17" stroke-miterlimit="10" stroke-width=".75"/><path d="M13.51 13.11v1.66a.82.82 0 0 1 0 .08c0 .84 2.45 1.52 5.46 1.52s5.46-.68 5.46-1.52v-1.74z" fill="#fd8204" stroke="#692f17" stroke-miterlimit="10" stroke-width=".75"/><ellipse cx="18.98" cy="13.06" rx="5.47" ry="1.52" fill="#ffc166" stroke="#692f17" stroke-miterlimit="10" stroke-width=".75"/></g></svg>