<svg xmlns="http://www.w3.org/2000/svg" width="46.49" height="46.28" viewBox="0 0 46.49 46.28"><defs><clipPath id="a" transform="translate(0 -1.86)"><path d="M22.45 0v27.29h9.7a2.58 2.58 0 0 1 2.58 2.58v5h2.55a1.33 1.33 0 0 1 1.37 1.29l-1.37 9.65h14.85V0z" fill="none"/></clipPath></defs><title>General-work-desktop-2</title><g clip-path="url(#a)"><path d="M40.82 40.68v1.16a.89.89 0 0 0 .89.89h1.87a.89.89 0 0 0 .89-.89v-1.16" fill="#ededed" stroke="#682f24" stroke-linejoin="round" stroke-width=".5"/><path d="M25.76 40.68v1.16a.89.89 0 0 0 .89.89h1.87a.89.89 0 0 0 .89-.89v-1.16" fill="none" stroke="#682f24" stroke-linejoin="round" stroke-width=".6"/><path d="M26.6.5h17.16A2.23 2.23 0 0 1 46 2.73v36a2.24 2.24 0 0 1-2.24 2.24H26.6a2.24 2.24 0 0 1-2.24-2.24v-36A2.24 2.24 0 0 1 26.6.5z" fill="#dce1e2" stroke="#682f24" stroke-linecap="round" stroke-linejoin="round"/><path fill="none" stroke="#682f24" stroke-linejoin="round" stroke-width=".5" d="M24.37 6.9h21.62M35.18.5v40.45"/><circle cx="32.4" cy="22.68" r="1.18" fill="#682f24"/><circle cx="37.88" cy="22.68" r="1.18" fill="#682f24"/></g><path d="M30.48 44.64H7.88L4.19 33.42v-5.41a2.58 2.58 0 0 1 2.58-2.58h25.38a2.58 2.58 0 0 1 2.58 2.58v5.42" fill="#e2ddd3" stroke="#682f24" stroke-miterlimit="10"/><path d="M7.87 44.49a1.29 1.29 0 0 1-1.29 1.29H3.15a1.29 1.29 0 0 1-1.29-1.29L.5 34.26a1.29 1.29 0 0 1 1.29-1.29h4.79a1.29 1.29 0 0 1 1.29 1.29zM30.81 44.49a1.33 1.33 0 0 0 1.37 1.29h3.64a1.33 1.33 0 0 0 1.37-1.29l1.45-10.23a1.33 1.33 0 0 0-1.37-1.29h-5.09a1.33 1.33 0 0 0-1.37 1.29z" fill="#e2ddd3" stroke="#682f24" stroke-miterlimit="10"/><path fill="none" stroke="#682f24" stroke-miterlimit="10" stroke-width=".5" d="M7.88 38.72h22.6M7.87 35.62h22.94M19.46 25.88v9.78"/><path d="M15.17 3.86H8.38L6.42 14.14c0 .57 2.39 1 5.35 1s5.35-.47 5.35-1z" fill="#fd8204" stroke="#682f24" stroke-linejoin="round"/><path fill="none" stroke="#682f24" stroke-linejoin="round" d="M11.77 15.57v9.86"/><path fill="none" stroke="#682f24" stroke-linejoin="round" stroke-width=".5" d="M11.77 3.86v11.37M13.42 3.86l1.26 11.2M9.95 3.86l-1.11 11.2"/></svg>