<svg xmlns="http://www.w3.org/2000/svg" width="58.96" height="43.16" viewBox="0 0 58.96 43.16"><g data-name="Слой 1" fill="none" stroke="#682f24" stroke-linecap="round" stroke-miterlimit="10"><path d="M58 33.15v7.2a1.8 1.8 0 0 1-1.8 1.8h-4.92v-2a1.8 1.8 0 0 0-1.8-1.8h-40a1.8 1.8 0 0 0-1.8 1.8v2H2.8A1.8 1.8 0 0 1 1 40.36v-7.2zM53.39 20.26v-6.85C53.39 6.56 42.67 1 29.46 1S5.53 6.56 5.53 13.41v6.84" stroke-width="2"/><path d="M58 33.26v-11.2a1.8 1.8 0 0 0-1.8-1.8H2.8a1.8 1.8 0 0 0-1.8 1.8v11.2" stroke-width="2"/><path d="M58 24.92a274.45 274.45 0 0 1-28.52 1.3A274.69 274.69 0 0 1 1 24.92M27.3 19.86a1.44 1.44 0 0 0 1.44-1.44v-6A1.44 1.44 0 0 0 27.3 11h-3.68a15.24 15.24 0 0 0-8.26 0h-3.67a1.44 1.44 0 0 0-1.44 1.44v6a1.44 1.44 0 0 0 1.44 1.44M48 19.86a1.43 1.43 0 0 0 1.43-1.44v-6A1.44 1.44 0 0 0 48 11h-3.67a15.25 15.25 0 0 0-8.26 0H32.4a1.44 1.44 0 0 0-1.4 1.44v6a1.44 1.44 0 0 0 1.44 1.44"/></g></svg>