<svg xmlns="http://www.w3.org/2000/svg" width="55.25" height="67.58" viewBox="0 0 55.25 67.58"><g data-name="Слой 1"><path d="M34.23 65.91a1.17 1.17 0 0 1-1.16 1.17H1.67A1.17 1.17 0 0 1 .5 65.91V64a1.17 1.17 0 0 1 1.17-1.17h31.4A1.17 1.17 0 0 1 34.23 64z" fill="none" stroke="#682f24" stroke-miterlimit="10"/><path d="M4.08 62a2.69 2.69 0 0 1 2.7-2.69H28A2.69 2.69 0 0 1 30.65 62" fill="none" stroke="#682f24" stroke-linecap="round" stroke-miterlimit="10" stroke-width="1.5"/><path fill="none" stroke="#682f24" stroke-miterlimit="10" d="M19.14 34.23v15.26M15.6 22.31v-20A1.77 1.77 0 0 1 17.37.5a1.77 1.77 0 0 1 1.77 1.77v20M15.6 49.49V34.23"/><path d="M14.33 59.31v-8a3 3 0 0 1 3-3 3 3 0 0 1 3 3v8" fill="none" stroke="#682f24" stroke-linecap="round" stroke-miterlimit="10" stroke-width="1.5"/><path d="M3.57 32.41s3.42-.57 4.37.07a11.82 11.82 0 0 0 5.81 1.75h5.31a1.2 1.2 0 0 0 1.2-1.2v-.27a1.2 1.2 0 0 0-1.2-1.2h1.19a1.39 1.39 0 0 0 1.39-1.39v-.31a1.39 1.39 0 0 0-1.39-1.39h.24a1.39 1.39 0 0 0 1.39-1.39v-.31a1.39 1.39 0 0 0-1.39-1.39h-.86A1.47 1.47 0 0 0 21.17 24v-.3a1.48 1.48 0 0 0-1.55-1.39l-4.73-.19v-2.69a1.76 1.76 0 0 0-2.11.28l-5 4.64-4.2-.08" fill="none" stroke="#682f24" stroke-linecap="round" stroke-linejoin="round" stroke-width="1.5" fill-rule="evenodd"/><circle cx="38.59" cy="41.86" r="1.19" fill="#682f24"/><path d="M25.41 41.85A13.18 13.18 0 1 1 38.59 55a13.18 13.18 0 0 1-13.18-13.15z" fill="none" stroke="#682f24" stroke-miterlimit="10"/><path d="M22.68 41.85a15.91 15.91 0 1 1 15.91 15.92 15.91 15.91 0 0 1-15.91-15.92z" fill="none" stroke="#682f24" stroke-linecap="round" stroke-miterlimit="10" stroke-width="1.5"/><path fill="none" stroke="#682f24" stroke-linecap="round" stroke-miterlimit="10" stroke-width="2" d="M38.59 41.86V31.13M38.29 41.86l-5.7-3.29"/><circle cx="29.52" cy="41.86" r=".58" fill="#682f24"/><circle cx="47.66" cy="41.86" r=".58" fill="#682f24"/><circle cx="38.59" cy="32.79" r=".58" fill="#682f24"/><circle cx="38.59" cy="50.93" r=".58" fill="#682f24"/><circle cx="30.73" cy="46.39" r=".58" transform="rotate(-29.9 30.745 46.385)" fill="#682f24"/><circle cx="46.45" cy="37.34" r=".58" transform="rotate(-29.94 46.438 37.342)" fill="#682f24"/><circle cx="34.06" cy="34" r=".58" transform="rotate(-29.95 34.068 34.01)" fill="#682f24"/><circle cx="43.11" cy="49.72" r=".58" transform="rotate(-29.92 43.113 49.712)" fill="#682f24"/><circle cx="34.05" cy="49.71" r=".58" transform="rotate(-60 34.053 49.718)" fill="#682f24"/><circle cx="43.12" cy="34.01" r=".58" transform="rotate(-60.01 43.123 34.012)" fill="#682f24"/><circle cx="30.74" cy="37.33" r=".58" transform="rotate(-60.02 30.726 37.327)" fill="#682f24"/><circle cx="46.44" cy="46.4" r=".58" transform="rotate(-60 46.443 46.398)" fill="#682f24"/><path d="M3.63 32.75c-.9 0-1.63-2-1.63-4.43s.73-4.43 1.63-4.43" fill="none" stroke="#682f24" stroke-linecap="round" stroke-linejoin="round" fill-rule="evenodd"/></g></svg>