<svg xmlns="http://www.w3.org/2000/svg" width="30" height="30.56" viewBox="0 0 30 30.56"><defs><clipPath id="a"><path fill="none" d="M3.64 1.31h22.59v27.38H3.64z"/></clipPath></defs><g data-name="Слой 1"><path fill="none" d="M0 0h30v30H0z"/><g clip-path="url(#a)"><path d="M5.67 12a9.59 9.59 0 1 1 19.17 0c0 5.86-4.08 9.88-9.58 9.88S5.67 18.3 5.67 12z" fill="#dbc19f" stroke="#692f17" stroke-miterlimit="10" stroke-width=".8"/><path d="M25.46 29.55s-.85-2.5-1.54-4.21c-.52-1.28-1.61-4.4-2.65-4.87a8.38 8.38 0 0 0-1.92-.86 12.48 12.48 0 0 0-3.7-.54c-2.7 0-4.89.64-6.22 1.82C8.4 21.66 6.88 26.37 6 30c1.24.1 2.33 0 3.56.12l1.07-3.89a33.36 33.36 0 0 0 1 3.55s8.85.42 8.85-.08l.87-3.85s.58 2.11 1.09 3.73c.86.04 2.47-.05 3.02-.03z" fill="#f5f4f0" stroke="#692f17" stroke-linecap="round" stroke-linejoin="round" stroke-width=".8"/><path d="M13.76 18v1c0 .57.68 1 1.52 1s1.52-.46 1.52-1v-1z" fill="#f7e8d2" stroke="#692f17" stroke-miterlimit="10" stroke-width=".5"/><path d="M15.27 18.54a6.87 6.87 0 0 1-6.92-6.8 6.61 6.61 0 0 1 .57-2.7 19.72 19.72 0 0 0 6.34 1 19.72 19.72 0 0 0 6.34-1 6.62 6.62 0 0 1 .57 2.7 6.87 6.87 0 0 1-6.9 6.8z" fill="#f7e8d2"/><path d="M9.07 9.36a20.09 20.09 0 0 0 6.2 1 20.09 20.09 0 0 0 6.2-1 6.35 6.35 0 0 1 .46 2.38 6.67 6.67 0 0 1-13.33 0 6.35 6.35 0 0 1 .46-2.38m12.68-.62a19.28 19.28 0 0 1-6.47 1.07A19.28 19.28 0 0 1 8.8 8.74a6.9 6.9 0 0 0-.69 3 7.17 7.17 0 0 0 14.33 0 6.91 6.91 0 0 0-.69-3z" fill="#692f17"/><path d="M17.16 15.46a5.37 5.37 0 0 1-2.05.38 5.46 5.46 0 0 1-1.95-.34" fill="none" stroke="#692f17" stroke-linecap="round" stroke-miterlimit="10" stroke-width=".5"/><path d="M16.07 16.57a2.68 2.68 0 0 1-.93.16 2.71 2.71 0 0 1-.89-.14" fill="#fff" stroke="#692f17" stroke-linecap="round" stroke-miterlimit="10" stroke-width=".25"/><path d="M15.93 14.25a5.73 5.73 0 0 1-.79.05 5.91 5.91 0 0 1-.75 0" fill="#fff" stroke="#692f17" stroke-linecap="round" stroke-miterlimit="10" stroke-width=".5"/><path d="M11.66 11.24a2.49 2.49 0 0 0-1.6.8 2.49 2.49 0 0 0 1.6.8 2.49 2.49 0 0 0 1.6-.8 2.49 2.49 0 0 0-1.6-.8z" fill="#fff" stroke="#692f17" stroke-miterlimit="10" stroke-width=".3"/><ellipse cx="11.66" cy="12.04" rx=".7" ry=".63" fill="#692f17"/><path d="M18.39 11.24a2.49 2.49 0 0 0-1.6.8 2.49 2.49 0 0 0 1.6.8A2.49 2.49 0 0 0 20 12a2.49 2.49 0 0 0-1.61-.76z" fill="#fff" stroke="#692f17" stroke-miterlimit="10" stroke-width=".3"/><ellipse cx="18.39" cy="12.04" rx=".7" ry=".63" fill="#692f17"/><path d="M17.88 19.62a2.82 2.82 0 0 1-2.6 3.15 2.81 2.81 0 0 1-2.59-3" fill="none" stroke="#692f17" stroke-linecap="square" stroke-miterlimit="10" stroke-width=".5"/></g></g></svg>