<svg xmlns="http://www.w3.org/2000/svg" width="64.35" height="53.53" viewBox="0 0 64.35 53.53"><title>Химчитска</title><ellipse cx="32.17" cy="43.22" rx="31.64" ry="9.78" fill="#dfdbd1" stroke="#5d3329" stroke-linejoin="round" stroke-width="1.06"/><ellipse cx="32.17" cy="42.38" rx="26.4" ry="7.32" fill="#f8f3ee" stroke="#5d3329" stroke-linejoin="round" stroke-width=".53"/><path d="M47.47 7.07h-2.86a15.09 15.09 0 0 0-24.87 0h-2.87a3.52 3.52 0 0 0-3.52 3.52v22a3.52 3.52 0 0 0 3.52 3.52h30.6A3.52 3.52 0 0 0 51 32.58v-22a3.52 3.52 0 0 0-3.53-3.51z" fill="#c36f24" stroke="#5d3329" stroke-linejoin="round" stroke-width="1.06"/><ellipse cx="32.17" cy="27.28" rx="19.39" ry="4.76" fill="#ec8213" stroke="#5d3329" stroke-linejoin="round" stroke-width=".53"/><path d="M50 38.26c0 2.07-1.1 3.74-2.47 3.74H16.82c-1.37 0-2.48-1.67-2.48-3.74v-4.73c0-2.07 1.11-3.74 2.48-3.74h30.71c1.37 0 2.48 1.67 2.48 3.74z" fill="#c36f24" stroke="#5d3329" stroke-linejoin="round" stroke-width="1.06"/><path d="M17.08 23.9a5 5 0 1 0-7.16 4.56v13.3a2 2 0 0 0 1.95 1.95h3.27a2 2 0 0 0 1.95-1.95V24v-.06c0-.06-.01-.02-.01-.04zM48 23.89a5.15 5.15 0 0 1 10.29 0 5 5 0 0 1-3 4.55v13.29a2 2 0 0 1-2 1.94H50a2 2 0 0 1-2-1.94V24v-.06-.05z" fill="#ec8213" stroke="#5d3329" stroke-linejoin="round" stroke-width="1.06"/><circle cx="12.04" cy="23.83" r="1.31" fill="#c6671f" stroke="#5d3329" stroke-linejoin="round" stroke-width=".53"/><circle cx="53.17" cy="23.83" r="1.31" fill="#c6671f" stroke="#5d3329" stroke-linejoin="round" stroke-width=".53"/><path d="M42.63 17a53.17 53.17 0 0 1 .37-6.22c-2.84-1.43-6.66.88-10.86.88s-7.93-2.33-10.76-.93a53.1 53.1 0 0 1 .34 6.27 53.11 53.11 0 0 1-.36 6.26c2.83 1.4 6.61-.19 10.76-.19s8 1.56 10.86.14a53.17 53.17 0 0 1-.35-6.21z" fill="#f7e8d2" stroke="#5d3329" stroke-linejoin="round" stroke-width=".53"/></svg>