<svg xmlns="http://www.w3.org/2000/svg" width="70" height="70" viewBox="0 0 70 70"><title>обработка-поверхности</title><g id="Слой_2" data-name="Слой 2"><g id="Слой_1-2" data-name="Слой 1"><rect width="70" height="70" fill="none"/><path d="M56.16,6H48.56a1.73,1.73,0,0,0-1.73,1.73V39.8h1.49v-30h7.85A1.73,1.73,0,0,0,57.89,8V7.72A1.73,1.73,0,0,0,56.16,6Z" fill="#dfdbd1" stroke="#692f17" stroke-linejoin="round" stroke-width="0.75"/><path d="M36,38.05c.47-2.09.8-4,2.73-4h9.55v3.7" fill="#f7e8d2" stroke="#692f17" stroke-linejoin="round" stroke-width="0.75"/><path d="M48,54.23V36.36H38c-1.14,0-1.6,1-2.07,2.07-3.2,7.12-5.46,12.63-5.46,12.63-1,0-7.73,6.42-9.52,8.15H15.09a1,1,0,0,0-1,1v3.18a1,1,0,0,0,1,1H45.87" fill="#fd8204" stroke="#692f17" stroke-linejoin="round" stroke-width="1.5"/><line x1="48" y1="51.4" x2="30.22" y2="51.4" fill="none" stroke="#692f17" stroke-linecap="round" stroke-linejoin="round" stroke-width="0.75"/><line x1="20.96" y1="59.56" x2="41.74" y2="59.56" fill="none" stroke="#692f17" stroke-linecap="round" stroke-linejoin="round" stroke-width="0.75"/><circle cx="46.86" cy="59.22" r="5.79" fill="#dfdbd1" stroke="#692f17" stroke-linejoin="round" stroke-width="1.5"/><circle cx="46.86" cy="59.22" r="2.81" fill="#f8f3ee" stroke="#692f17" stroke-linecap="round" stroke-linejoin="round" stroke-width="0.75"/></g></g></svg>