<svg xmlns="http://www.w3.org/2000/svg" width="300" height="250" viewBox="0 0 300 250"><title>обработка-поверхностей_1</title><g id="Слой_2" data-name="Слой 2"><g id="Слой_24" data-name="Слой 24"><rect width="300" height="250" fill="none"/><rect x="83.44" y="17.35" width="54.89" height="105.63" transform="translate(221.77 140.32) rotate(-180)" fill="#dbe4e1"/><path d="M138.16,123H104.72l5.75,12,112.16,0v-6.62H218V9.9H72l-.06,88.84,11.77-13.8-.22-67.6,54.72,0ZM153.89,17.13h54.69V122.75H153.89Z" fill="#ededed"/><polygon points="83.48 17.39 106.38 17.39 83.48 46.66 83.48 17.39" fill="#e0dede"/><polygon points="83.48 78.53 104.72 123.01 83.48 123.01 83.48 78.53" fill="#e0dede"/><polygon points="138.32 17.15 83.43 17.15 83.43 122.78 138.58 122.78 138.32 17.15" fill="none" stroke="#692f23" stroke-miterlimit="10" stroke-width="0.93"/><path d="M259.26,188.94l-204.14.11H6.67c-.53,0-.85.21-.86.59s.47.53.86.52H259s.9.07.91-.57S259.26,188.94,259.26,188.94Z" fill="#692f23"/><polyline points="77.91 89.9 77.91 13.18 213.04 13.18 213.04 128.12 124.51 128.12 126.09 135 222.62 135 222.62 128.38 218.05 128.38 218.05 9.9 71.95 9.9 71.95 96.4" fill="none" stroke="#692f23" stroke-miterlimit="10" stroke-width="0.93"/><rect x="143.67" y="13.27" width="5.18" height="114.85" fill="none" stroke="#692f23" stroke-miterlimit="10" stroke-width="0.93"/><rect x="154.31" y="17.74" width="54.89" height="105.63" transform="translate(363.5 141.1) rotate(-180)" fill="#dbe4e1"/><polygon points="208.61 17.15 153.72 17.15 153.72 122.78 208.87 122.78 208.61 17.15" fill="none" stroke="#692f23" stroke-miterlimit="10" stroke-width="0.93"/><rect x="103.21" y="140.9" width="93.35" height="35.32" transform="translate(299.76 317.11) rotate(-180)" fill="#e0dede"/><line x1="187.83" y1="140.55" x2="187.83" y2="176.34" fill="none" stroke="#692f23" stroke-miterlimit="10" stroke-width="0.93"/><line x1="178.94" y1="140.63" x2="178.94" y2="176.34" fill="none" stroke="#692f23" stroke-miterlimit="10" stroke-width="0.93"/><line x1="170.04" y1="141.16" x2="170.04" y2="176.34" fill="none" stroke="#692f23" stroke-miterlimit="10" stroke-width="0.93"/><line x1="161.15" y1="141.16" x2="161.15" y2="176.34" fill="none" stroke="#692f23" stroke-miterlimit="10" stroke-width="0.93"/><line x1="152.25" y1="141.16" x2="152.25" y2="176.34" fill="none" stroke="#692f23" stroke-miterlimit="10" stroke-width="0.93"/><line x1="143.35" y1="141.16" x2="143.35" y2="176.34" fill="none" stroke="#692f23" stroke-miterlimit="10" stroke-width="0.93"/><line x1="134.46" y1="141.16" x2="134.46" y2="176.34" fill="none" stroke="#692f23" stroke-miterlimit="10" stroke-width="0.93"/><line x1="125.56" y1="149.45" x2="125.56" y2="176.34" fill="none" stroke="#692f23" stroke-miterlimit="10" stroke-width="0.93"/><path d="M134.58,140.57c.29,0,62.1-.52,62.1-.52s.93,0,.93,1.34V176.5a1.5,1.5,0,0,1-1.63,1.1c-1.45,0-89.19,0-89.19,0l.17-1.34H195.4s1,.06,1.1-2,0-32.1,0-32.1,0-1.16-1-1.22l-1-.06-60.12.81Z" fill="#692f23"/><path d="M153.89,208S204,54.81,204.77,52.81s3.19-6.81,4.85-7.9A14.79,14.79,0,0,1,216,43c1.51,0,6.11.94,7,1.7a9.11,9.11,0,0,1,2.68,8.07C223.6,65.5,180,220.3,180.12,220.53s-1.36.44-1.45-.15S224.13,53.3,224.13,53.3s.59-5.08-1.3-6.07-5.92-.46-6.18-.76a8,8,0,0,0-5.34-.88c-2,.63-3.19,3.09-4.5,6.45s-51.85,156.84-51.95,156.84S153.76,209.44,153.89,208Z" fill="#c7c0b1"/><path d="M178.34,220.59a2.19,2.19,0,0,0,.37,1.57c.53.67,3,1.46,3.75,1.46a3.49,3.49,0,0,0,1.86-.94,8,8,0,0,0,.34-1.29,3.57,3.57,0,0,1-2.83.29c-1.4-.56-3.17-1.31-3.17-1.31S178.53,220.14,178.34,220.59Z" fill="#c7c0b1"/><path d="M153.69,209.26a2,2,0,0,0,1.15,1.77c1.2.63,2.19.89,2.75.6a2.63,2.63,0,0,0,1-1c0-.07-4.29-1.75-4.29-1.75S153.86,208.58,153.69,209.26Z" fill="#c7c0b1"/><path d="M166,190.08c-.06-.07-8.2,1.46-8.42,1.6s.21.56.8.8,21.33,10.11,21.41,10.13,2.66-.31,2.66-.31a9.7,9.7,0,0,0,1.17-.94c0-.1.8-3.23.8-3.23Z" fill="#e2ddd3"/><polygon points="183.21 131.59 203.59 128.56 201.28 135.97 199.58 137.03 182.58 131.71 183.21 131.59" fill="#e2ddd3"/><path d="M210.06,127.84l2.86-.52,13.34,4.09s1,1.61,0,1.51-18.09,3.24-18.09,3.24Z" fill="#e2ddd3"/><path d="M215.24,46.48a6.72,6.72,0,0,0-3.52,3.26c-1.27,2.39-52,158.35-52.3,158.88s-.6,1.56-.77,1.6a6.33,6.33,0,0,1-2.55-.49c-.63-.4-1.25-.86-1.25-.86s52-157.42,52.44-158.48a12.39,12.39,0,0,1,3-4.35,5,5,0,0,1,3.78-.46c.8.37,1.6.77,1.6.77Z" fill="#e2ddd3"/><path d="M224,45.19a21.31,21.31,0,0,1,1.4,5.64A28.8,28.8,0,0,1,224.35,59c-1.06,4.21-43.89,161.63-43.91,161.74a2.66,2.66,0,0,0,1.69.94,2.85,2.85,0,0,0,2.55-.29c.9-.67,44.67-164.39,44.83-165.27s.74-3.35.26-5.1-.6-3.08-2.58-4.72S223.86,44.76,224,45.19Z" fill="#e2ddd3"/><path d="M180.46,132.11s-.46,1.16-.19,1.7S198.55,140,198.55,140l1.76.19,1-3.55-.73.11c-.15,0-7.35-1.22-7.79-1.56s-9.37-3.82-9.58-3.63S180.54,131.59,180.46,132.11Z" fill="#c7c0b1"/><path d="M207.71,136.29c-.06.08-.69,3.13-.69,3.13s21.78-1.89,21.68-2.56-1.53-4.16-1.53-4.16S208.15,135.71,207.71,136.29Z" fill="#e2ddd3"/><path d="M207.94,139.88s16.63,61.57,17.46,61.57,1-.43.69-1.49-16.92-60.21-16.92-60.21S207.91,139.17,207.94,139.88Z" fill="#c7c0b1"/><path d="M210.4,139.26l1.72-.23,17.12,58.57s.52,1.46.11,1.77-2.86,1.72-2.86,1.72l-17.37-61.35S210.06,138.95,210.4,139.26Z" fill="#e2ddd3"/><path d="M219.68,109.32s31.63,101,33.32,101.8.37-1.35.23-2-30.4-95.39-30.4-95.39S221,108.35,219.68,109.32Z" fill="#c7c0b1"/><path d="M216,105.14l-.29,1.09a21.72,21.72,0,0,1,3.21,1.66,13.32,13.32,0,0,1,3.38,4.41c1,2.52,31.05,98.19,31.05,98.19s1,.75,2.67-.5-.11-3.23-.11-3.23l-30.23-96.24s-3.54-7.11-8.48-7.85Z" fill="#e2ddd3"/><path d="M194.6,100.22a1.09,1.09,0,0,0,.52,1.6c1.15.52,4.35,3.55,5,5.21s1.46,6.36,1.95,8.24,1.24,4.64,2.18,5.61a2.14,2.14,0,0,1,.67,1.95l2-6.47s-1.37-3.15-1.55-3.38-1.32-7.82-3.66-10.25-5.16-5.12-5.63-4.93S194.6,100.22,194.6,100.22Z" fill="#e2ddd3"/><path d="M198.67,105.83c.09.29,1.23,8.79,1.83,10.25s3.15,8.3,3.15,8.3c.86.83,1.15-.46,1.15-.46s.11-1.4-.11-1.66a86.52,86.52,0,0,1-3.32-10.42c-.46-2.46-1.55-5.44-2.52-6.53S198.67,105.83,198.67,105.83Z" fill="#c7c0b1"/><path d="M176.74,159.59a89,89,0,0,0-9,1.32c-.29.24-.13.47.6.8s21.24,7.61,21.24,7.61,2.86-1,2.92-1.06a20.83,20.83,0,0,1,.67-2.84C193.44,165.1,176.74,159.59,176.74,159.59Z" fill="#e2ddd3"/><path d="M166.86,161.68c0,.08-.26,1.09.17,1.35s1.72,1.17,2,1.11.11.8.21,1.32,0,1.13,4.18,2.61,17.35,6.56,17.35,6.56,1.89-6,1.89-6.1a7,7,0,0,0-2.26.29c-.16.2-2.07-.31-2.37-.38s-20.76-6.95-20.85-6.95S166.93,161.25,166.86,161.68Z" fill="#c7c0b1"/><path d="M224.29,188s.16.62,1.23.89,22.5,8.85,22.5,8.85l-.89-2.89-22.19-8.45A1,1,0,0,0,224.29,188Z" fill="#e2ddd3"/><path d="M256.65,209.76l-2.6,1.34-1.46.15s.24.86.85,1.07,2.79.08,3.05-.34a5.85,5.85,0,0,0,.61-1.39C257.22,210.18,256.65,209.76,256.65,209.76Z" fill="#c7c0b1"/><path d="M229.74,199.3l-3.44,1.93-1.22.21a2.91,2.91,0,0,0,.29,1.18,1.93,1.93,0,0,0,1.32.31,15.21,15.21,0,0,0,2.35-1.22c.08-.1,1.4-1.11,1.28-1.16A7,7,0,0,1,229.74,199.3Z" fill="#c7c0b1"/><path d="M156.58,192.48a1.51,1.51,0,0,0,.29,1.09,11.75,11.75,0,0,0,2,1.06s.21,1.74.22,2.08,20.13,10.52,20.13,10.52l2.52.83s1.86-6.43,1.83-6.5-2.69,1.79-3.17,1.36-23-10.74-23-10.74S156.68,192.24,156.58,192.48Z" fill="#c7c0b1"/><path d="M257.41,210.11c.06-.13-30.46-97.2-31-98.38a14.8,14.8,0,0,0-4.16-6.64,12.67,12.67,0,0,0-4.87-3.05c2.52-9,7.7-27.44,8-28.61.44-1.55,4-14.18,4.35-17.1s.52-5.38-.34-7.67a5.08,5.08,0,0,0-3.05-3.13c-.71-.36-3.26-1.36-3.26-1.36C222,43.53,217.78,43,216,43c-.93,0-3.93.06-5.31.92a11.51,11.51,0,0,0-3.86,3.89,43.56,43.56,0,0,0-3.49,7.48c-.63,2-2.42,7.33-2.42,7.33l-32,97.84c-.89.19-1.57.35-1.79.43a1.39,1.39,0,0,0-1,1.18c-.11.42-.12.59,0,.71a7,7,0,0,0,1.83.95L159,191H159c-1,.21-1.75.39-2,.47a1.39,1.39,0,0,0-1,1.18c-.11.42-.12.59,0,.71a8.28,8.28,0,0,0,1.83,1.11l-4.35,14.2,0,.08a.19.19,0,0,0,0,.07,2,2,0,0,0,.67,2,6.71,6.71,0,0,0,2,.92,2.54,2.54,0,0,0,2.18-.23,3.32,3.32,0,0,0,.9-1.39c.52-1.21,3.52-9.84,3.88-10.91,4.84,2.56,13.4,7,17.16,8.62a1.19,1.19,0,0,1,.87,1.32.22.22,0,0,0,0,0l-2.91,10.56v0c-.59,1.93.15,2.55,1.22,3.23a6.06,6.06,0,0,0,3.09.7c1.49.1,2.56-1,2.48-1.88l22.1-82,.84-.09c1.41,5.2,15.36,56.76,16.67,60.93l.34,1.28s.12.83.77,1c1,.19,1.07,0,1.2-.06s2.8-1.58,3.09-1.77.25-.45.29-.67a14.23,14.23,0,0,0-.38-1.85h0l-2.44-8.63h0c5.93,2.34,18.95,7.39,20.51,8l4,12.66c.8,2.1,1.51,2.12,2,2.21a4.57,4.57,0,0,0,2.79-1A2.47,2.47,0,0,0,257.41,210.11Zm-33.59-102a44.77,44.77,0,0,1,3.82,9.58l28.93,91.84a1.36,1.36,0,0,1-.53.5c-.4.23-1.87.8-1.87.8a.47.47,0,0,1-.16-.09c-3.09-10.44-31.22-98.31-31.22-98.31a10.38,10.38,0,0,0-4.92-5.53,7.51,7.51,0,0,0-1.65-.66l1-3.52A15.68,15.68,0,0,1,223.82,108.08Zm2.81,23.23a1.23,1.23,0,0,0-.6-.37c-.53-.13-12.56-3.78-12.56-3.78a2.55,2.55,0,0,0-1.11,0,16.91,16.91,0,0,1-1.87.27L216,106.86a6.63,6.63,0,0,1,3.05,1.79C219.86,109.56,225.48,127.61,226.63,131.31ZM168.36,161c.8-.27,7.6-1.11,7.6-1.11s.29-.1,1.15.23,16,5.42,16,5.42l.05-.1-.7,2.53-2.07.85s-.53.34-2.37-.38-19.81-6.91-19.81-6.91S167.56,161.25,168.36,161Zm31.11-21.41s.1-1.43.11-1.83.46-.5.46-.5l1-.47-.78,2.83C199.65,139.87,199.47,139.57,199.47,139.57Zm.59.84-6.74,24.5-16.45-5.69a1.51,1.51,0,0,0-.59-.11L184,135.47c5.15,1.7,14.38,4.72,15,4.83A5.18,5.18,0,0,0,200.06,140.41Zm.17-3.82a1.22,1.22,0,0,1-1,0l-14.66-4.28c-.81-.24-.83-.45-.77-.57s1-.23,1-.23L203.2,129l-1.91,7C201.08,136.1,200.57,136.41,200.23,136.59Zm-14.79-5.74,9.18-28.71c2.66.91,3.55,3.18,4.12,4.95s.67,7.27,1.64,10.08a89.47,89.47,0,0,0,3.72,8.54l-.67,2.43Zm15.57-14a31.52,31.52,0,0,1-1.13-6.68,12.65,12.65,0,0,0-.84-4,8.51,8.51,0,0,1,1.53,3.09c.71,2,.78,4.87,1.34,7.29a28.81,28.81,0,0,0,3,6.35l-.47,1.72A37.35,37.35,0,0,1,201,116.82Zm2.19.84c-1-2.12-.57-3.38-1.26-6.26a18.94,18.94,0,0,0-2.63-6.49c-1.11-1.71-4-3.29-4.45-3.52l1-3h0c4.43,2.69,6.06,5.09,6.72,6.53.9,2,2.27,8.91,3,10.76.46,1.14.77,1.28.95,1.22l-1.36,5C205,121.46,204.11,119.54,203.21,117.66Zm3-2.67c-.78-1.55-1.75-7.64-2.9-10.17a13.5,13.5,0,0,0-4.41-5.19A15.63,15.63,0,0,0,196,97.8l13.42-41.94A36.31,36.31,0,0,1,212.06,50c1.18-1.76,2-3,4.2-3.4a1.78,1.78,0,0,1,1,.31,5,5,0,0,0,2.48.15c.65-.06,2.71-.55,3.28,1a8.29,8.29,0,0,1,.57,6.22c-.33,1.41-7.89,29-16.74,61.23C206.43,115.74,206.22,115,206.22,115Zm8.38-68.76c-1.26.52-4.16,3.8-5.9,8.45S184.52,131,184.52,131l-3.26.63s-.53.15,0-1.41,25.54-78.1,26.45-80,1.62-3.3,2.94-4.08a4.18,4.18,0,0,1,3.63-.23,1.61,1.61,0,0,0,.66.17Zm-33.3,86,.83-.14a1.54,1.54,0,0,1,.39.07s13.68,4.35,15,4.62,1.49.61,1.49.61a6.35,6.35,0,0,1,0,1.95c-.17.71-1,.34-1,.34s-16.91-5.88-17.41-6.11C180.65,133,180.76,132.28,181.3,132.2Zm2,3-8,23.93-.32.05c-.63.11-2.12.4-3.64.71.77-2.33,8.15-24.66,8.55-25.39v0l.3-.24a.47.47,0,0,1,.31,0Zm-10.22,32.85,17.34,6.76s.12.07.09.41l-6.15,22.36-17.59-7.73a1.84,1.84,0,0,0-.81-.11Zm-8,21.76-.23,0c-.6.11-2,.37-3.43.67l7.89-24a3.84,3.84,0,0,0,.39.21l2.79,1.1h0ZM190.34,174c-.6-.17-20.53-7.87-20.53-7.87a1.48,1.48,0,0,1-.16-1.76c6.33,2.54,19.21,7,20.09,7.37a2.73,2.73,0,0,0,1.65.21l-.55,2A.6.6,0,0,1,190.34,174Zm0-3c-.32-.19.08-1.15.08-1.15a1,1,0,0,1,.46-.57,7.79,7.79,0,0,1,1.34-.49l-.55,2C191.43,170.92,190.65,171.18,190.38,171Zm-22.75-8c-.5-.22-.64-.39-.67-.5a.94.94,0,0,0,0-.12s.17-.65.53-.65,22.14,7.69,22.25,8a2,2,0,0,1,0,.88c-.13.23-.38.17-.69.08S168.49,163.39,167.63,163Zm1,1v0l.44.18-.1.14a4.64,4.64,0,0,0-.14,1.63l0,.06-8.32,24.76-.86.18Zm-10.38,27.64c.8-.27,7.6-1.11,7.6-1.11s.29-.1,1.15.23,16.6,7.35,17.16,7.6l-.82,3-2.69,1.19-5.1-2.18c-1.81-.78-17.4-8.2-17.4-8.2S157.42,191.91,158.23,191.64ZM183.12,202l-.56,2c-.33.13-1.19.46-1.45.31s0-.94.1-1.2l.26-.23s.88-.43,1.26-.66Zm-25.62-8.36c-.5-.22-.64-.39-.67-.5a.94.94,0,0,0,0-.12s.17-.65.53-.65,23,10.79,23.07,11.08a.57.57,0,0,1-.08.42c-.13.23-.15.32-.46.23S158.36,194,157.5,193.66Zm1,1.18.32.16a6.24,6.24,0,0,0-.17,1.21l-4.14,12.52a.51.51,0,0,1-.41-.46h0Zm-4.57,14.06a5.26,5.26,0,0,0,.47.25v0a3.47,3.47,0,0,0,0,1.22C153.6,209.72,153.77,209.08,153.91,208.9Zm2.81,2.53a5.64,5.64,0,0,1-2-.73,7.8,7.8,0,0,1,.27-1.32,19.67,19.67,0,0,0,3.26,1.23C157.87,211.25,157.56,211.58,156.72,211.43Zm1.87-1.67c-.41.58-.55.38-.69.38a19.34,19.34,0,0,1-2.58-1.07c-.2-.15-.15-.42-.12-.57l4-11.3a3.61,3.61,0,0,0,.41.22L162.5,199Zm21.61-2.68L159.68,196.8a1.42,1.42,0,0,1-.27-1.5c6.49,3.24,20.22,9.37,21.11,9.71a2.55,2.55,0,0,0,1.76.07l-.59,2.14A1.5,1.5,0,0,1,180.2,207.08Zm-1.55,13.8a.2.2,0,0,1,.12-.17c.1,0,.14,0,.22,0a7.43,7.43,0,0,1,.92.34h0s-.53,1.13.15,1.69C178.33,222,178.66,220.88,178.66,220.88Zm.6-.54c-.24-.13-.18-.47-.14-.69,44.26-162.2,44.14-162.28,45.16-165.27a10.38,10.38,0,0,0-.15-5.84c-.84-1.85-1.7-2.23-2.79-2.25a21.94,21.94,0,0,1-3.21-.08,12.38,12.38,0,0,0-1.77-.25,12,12,0,0,0-3.57-.83c-2.06.06-3.42.82-5.1,3.78S172,155.61,170.52,160.11l-.75.16c1.85-5.53,34.07-106,36.63-110.46s3.78-5.39,6.15-5.93a21.8,21.8,0,0,1,9.62.69c2.26.9,2.1,2.12,2.67,4.52a18.25,18.25,0,0,1,.23,5.23c-1.43,7.59-1.6,7.51-44.94,166.21A2.19,2.19,0,0,1,179.26,220.34Zm3.32,2.81a4.2,4.2,0,0,1-1.89-.23,1.34,1.34,0,0,1-.29-1.63h0a10.36,10.36,0,0,0,2.72.78,2.53,2.53,0,0,0,1.22-.1A1.69,1.69,0,0,1,182.58,223.14Zm1.55-1.7c-.2.19-.3.25-1.29.1a10.27,10.27,0,0,1-2.19-.71C224.66,58.47,225,58.59,225.31,55.94a17.59,17.59,0,0,0-.08-8,10.23,10.23,0,0,0-1-2.71A9.92,9.92,0,0,1,227.64,47c2.21,1.56,1.74,7.33,1.56,8.78S184.12,221.44,184.12,221.44Zm23.19-82.24,3-11.11,2.21-.32a1.39,1.39,0,0,1,1.11.08c.71.29,12.42,3.72,12.71,4.08s-.5.73-2.1.92-15.88,2.63-15.88,2.63l-.23.69s17.92-3.19,18.09-3.24.74-.17.8.27.92,3.4.92,3.4.1.36-1.34.61C225.68,137.36,209.35,139,207.31,139.2Zm21.27-1.76,18.29,57.15c-2-.77-15.79-6.18-20.48-8L212.6,139.39l14.52-1.52A5.86,5.86,0,0,0,228.58,137.44Zm-20.08,2.38.67-.07c1,3.59,16.63,60.05,16.86,60.93s-.63.59-.63.59Zm17.79,62.57a1,1,0,0,1-.73,0,1.55,1.55,0,0,1-.17-.47l0-.17c.37,0,.74,0,.94-.07C226.4,201.94,226.49,202.31,226.3,202.39Zm3.47-2.72c0,.17.07.5.08.69a.49.49,0,0,1-.21.4s-1.69,1.09-2.05,1.24-.54.11-.61,0-.2-.33-.17-.5c.82-.41,2.34-1.34,2.78-1.62A.79.79,0,0,0,229.77,199.67Zm-.57-1.2a1.11,1.11,0,0,1-.69,1.22,5.27,5.27,0,0,1-1.91.88c-.33-.06-15.84-56.65-17-60.86l2.39-.25,13.62,46.89-.78-.28c-.31,0-1,.23-1.18,1.26a1.59,1.59,0,0,0,.88,1.56s.82.34,2.1.85C226.72,190.06,229.2,197.62,229.2,198.46Zm-4.08-10c-.44-.19-.94-.65-.88-1.07a.75.75,0,0,1,.69-.69,9.48,9.48,0,0,1,1.6.55l20.55,8,.63,2C246,196.58,225.54,188.65,225.12,188.46Zm-4.47-77.94c-.07-.14-.17-.39-.3-.68a9.29,9.29,0,0,1,1.95,3.12l31.07,97.52s-.15.88-1-.15C252.41,210.34,221,111.11,220.65,110.52ZM256.76,211h0c-.15.63-1.16,1.2-2.4,1.22a1.9,1.9,0,0,1-1.72-.88l0-.08a2.38,2.38,0,0,0,.58.34c.59.23.9.4,1.11.11a.19.19,0,0,0,0-.07c0-.11.05-.33.47-.47.57-.19,1.91-1.11,2-.84A1.12,1.12,0,0,1,256.76,211Z" fill="#692f23"/><path d="M206.78,204.77a80.7,80.7,0,0,1-9.65,6.21c-.39.2-.65,1,.78,1.62s9.48.39,11,.84a18.6,18.6,0,0,0,7.47.42c2.66-.5,39.17.6,41.26.68s18.54,0,20.42-.05c2.49-.07,3.11-1,3.66-1.72a7.11,7.11,0,0,1,3.49-2.3c1.75-.55,4.18-.68,5.69-2.22a39.68,39.68,0,0,0,3.68-4.71c.47-.68,1.54-2,1.2-2s-10.43-.37-10.82-.34-7-1.44-7.14-1.49-8.45-1-9.47-1.18-7.68-.13-7.89-.26-27.11-.47-27.58-.47S206.78,204.77,206.78,204.77Z" fill="#c7c0b1"/><path d="M231.24,180s-.17,2.82.21,3.32,1.33.68,1.49,1,2.9,21.56,3.84,23.32a4.28,4.28,0,0,0,3.16,2.69c1.83.64,9,.42,12.09.26s6.24-.65,7.1-1.23,1-2,1.23-3,3.16-22.61,3.16-22.61a3.34,3.34,0,0,0,1-1.44,15.58,15.58,0,0,0-.29-3.06c0-.12.05-.76.05-.76S231.63,178.09,231.24,180Z" fill="#fd8204"/><path d="M232.65,177.09c-.14.08-1.31.69-1.23,1.38s.52,1.38,3.11,1.44,17,1,19.09.86a51.7,51.7,0,0,0,8.17-1.12c1.54-.46,2.47-.64,2.51-1.1s-2.27-1.48-3.81-1.72-15.93-1.48-19.87-1.1S233.55,176.59,232.65,177.09Z" fill="#bc6a2e"/><path d="M256,180c0,.08.17-1.78.86-2a1.58,1.58,0,0,1,1.8.47A3.9,3.9,0,0,1,259,180Z" fill="#fd8204"/><path d="M237.71,175.75s.21-1.59,1.07-1.91a1.35,1.35,0,0,1,1.62.55,3.69,3.69,0,0,1,.21,1.33Z" fill="#fd8204"/><path d="M264.92,178.06c-.25-.55-1.34-.87-2.36-1.17a51.91,51.91,0,0,0-5.49-1c-1.12-.11-4.59-.38-6.3-.39-1.95,0-7-.25-9.38-.16h-.11a2.74,2.74,0,0,0-.28-1,1.83,1.83,0,0,0-2.09-1,1.51,1.51,0,0,0-1.39,1.23,5.06,5.06,0,0,0-.19,1.19,28.66,28.66,0,0,0-4.67.92c-1.47.53-2,1.31-2.12,1.69,0,.16.12,4.66.21,4.95a1.28,1.28,0,0,0,.77.71,2.27,2.27,0,0,1,1.18,1.41c0,.24,1.51,11.32,1.51,11.32s2.13,10.5,2.31,11.24a3.66,3.66,0,0,0,1.41,2.08c.67.41,3,1.31,9.87,1.18s9.94-.72,10.84-1.11,1.53-.69,2-2.64c.52-2.35,3.25-23.33,3.25-23.33a2.18,2.18,0,0,1,.8-1.24c.47-.28.42-1,.45-1.49A12.76,12.76,0,0,0,264.92,178.06Zm-26-3.88a1,1,0,0,1,1.45.76,2.3,2.3,0,0,1,0,.51l-.45,0c-.09-.28-.3-.6-.63-.59s-.48.49-.49.71l-.68.08C238.16,175.52,238.13,174.5,238.91,174.17Zm-6.71,3.56c.91-.53,3.54-1.61,11.21-1.64,6.09,0,10.64.34,12.23.46a42.4,42.4,0,0,1,6.23.9s1.68.52,1.71.86-1.72.9-4,1.21l-.36,0a2.21,2.21,0,0,0-.25-1.07,1.77,1.77,0,0,0-1.74-.89,1.56,1.56,0,0,0-1.35,1.09,3.28,3.28,0,0,0-.25,1.11,90.92,90.92,0,0,1-9.35.39c-4.48,0-11.68-.4-13.76-1.07C231.3,178.73,231.29,178.26,232.2,177.73Zm25.89,1.92c0-.27-.21-.62-.56-.62s-.5.51-.5.65-.6.08-.66.08c0-.19,0-1.25.72-1.45a1.23,1.23,0,0,1,1.44.53,2.94,2.94,0,0,1,.11.81A3.66,3.66,0,0,1,258.09,179.65Zm-24.38,5.76c.26-.12,3.06.46,4.86.72a43.77,43.77,0,0,0,5.8.36c1.34-.09,1.7-.73.47-.75a58.94,58.94,0,0,1-9.11-1c-2.26-.43-3.84-1.25-4-1.73a16.19,16.19,0,0,1-.21-2.6s-.15-.77.74-.43a46.4,46.4,0,0,0,5.64.79c4.41.43,14.07.6,17.94.08,0,0,1-.14,1.44-.22a21.26,21.26,0,0,1-.45,3.55c-.2.66-.56.72-1.31.81-1.45.17-5,.55-6.26.67s-1.38.79-.23.84c.62,0,3.53-.16,5-.34,1.12-.15,2.24-.42,2.29-.24s-.31,1-.47,1.27a9.56,9.56,0,0,1-4.72,5.39c-3.37,1.51-5.38,2-10.48,1.55a51.24,51.24,0,0,1-5.45-1.39c.27.07-.75-.11-.85-.75-.36-2.82-.69-5.57-.69-5.57S233.45,185.53,233.71,185.41ZM259.54,208c-.35,1.27-2.48,1.66-2.39,1.63s-1.8.68-9.34.78-9.1-.51-10-1.61-1.34-4-1.5-5.07-1.28-6.79-1.46-7.71c0,0-.18-1-.32-2-.05-.26,0-.47.15-.52.43-.18,2.14.58,3.52,1a17.71,17.71,0,0,0,6.5.63,17.92,17.92,0,0,0,8.12-2.52,11.84,11.84,0,0,0,3.32-3.94,13.51,13.51,0,0,0,1-2.36c.22-.78.29-.6,1.8-1.18.45-.08,3-.84,3.29-1s.8,0,.78.41S260,206.35,259.54,208ZM264,182.14c0,.27-.18.55-1.59.94s-2.67.87-3.24,1l-1.5.4a9.83,9.83,0,0,0,.34-1.65c.06-.48.22-1.26.36-2.33.36-.09,3.83-.58,4.5-.86,1.24-.52.95-.07,1.12.12h0C264,180.62,264,181.94,264,182.14Z" fill="#692f23"/><path d="M234.51,198.45a1.5,1.5,0,0,0-1.08-.24c-.4.06-7.77.6-10,.57s-7.5.18-8,.12a1.56,1.56,0,0,0-1.23.35c-.35.28-6,5-7.83,6.46a33.66,33.66,0,0,1-4.07,2.8,32.42,32.42,0,0,0-3.9,2.59c-.37.44-.36,1,.16,1.21a5.79,5.79,0,0,0,2.66.43c1.79,0,4.57-.52,6.79.18a14,14,0,0,0,5.64.63c1.08,0,9.48-.09,10.56-.07s18.32.65,21,.71c2,0,10.2.16,11.87.17s15.05-.14,17-.13,5.23.12,6.11-.26,2.2-2.39,3.26-3.15a11.79,11.79,0,0,1,4.79-1.74,5,5,0,0,0,3.29-2.14c.51-.68,2.06-2.84,2.49-3.36s1.58-1.59,1.33-1.85-4.84-.4-5.69-.39a28.85,28.85,0,0,1-6.58-.42c-1.81-.35-5.38-1.08-6.32-1.15s-4.43-.16-5.27-.52a23.77,23.77,0,0,0-4.5-.85c-.77,0-4.85-.08-5.05-.07s-.16-.45.07-.5a31.35,31.35,0,0,1,6.95.18,26.8,26.8,0,0,1,3,.78,36.42,36.42,0,0,0,4.72.49,46.68,46.68,0,0,1,6,.9,14.32,14.32,0,0,0,4.21.63c2,0,4.53.15,5.56.16s3.81-.11,4.13.24-1.33,2.12-1.63,2.55-2.32,3-3.15,4a6.94,6.94,0,0,1-3,2.12c-.9.23-4.38.94-5,1.74s-2.16,3-3.54,3.33-8.51,0-10.1.11S246.91,215,244,215s-18.84-.72-23.27-.74-7.84.47-9.69.12-3.26-.78-4.69-1-4.51.28-6.06.07-2.57-.36-3-.92-.87-1.42.82-2.43,4.37-2.38,5.61-3.23,3.17-2.51,4.37-3.36,2.49-2.59,3.53-3.36,2-2.1,3.25-2.15,9,.17,12.34,0c2.16-.14,7-.84,7.27-.72s.14.51.14.51S234.63,198.28,234.51,198.45Z" fill="#692f23"/><path d="M221.77,181.67s0-2.52,0-2.8a1.3,1.3,0,0,1,1-1c.7-.21,2-.2,2.23.2a4.77,4.77,0,0,1,.47,2c0,.73.16,1.56-.1,1.72S222.81,182.52,221.77,181.67Z" fill="#e0dede"/><path d="M221,183.1a19.3,19.3,0,0,1-2.23,1,2.59,2.59,0,0,0-1.55,1.82,4.4,4.4,0,0,0,.37,2,30.41,30.41,0,0,1,.49,4.78c0,1.34-.78,9.68-.63,10.34s.06,3,.71,3.45a11,11,0,0,0,5.25,1.92,15.47,15.47,0,0,0,5.66-.8,2.6,2.6,0,0,0,1.49-1.94c.08-1.13-.72-12.74-.78-13.1a11.79,11.79,0,0,1,.18-3.07c.24-.85.67-2.57.35-3.17a3.59,3.59,0,0,0-1.82-2c-1.13-.46-2.39-1.32-2.53-1.29s.07-.25-.22-.57a11.35,11.35,0,0,0-4.21-.24A1.85,1.85,0,0,0,221,183.1Z" fill="#efb000"/><path d="M218.38,188.4a35.3,35.3,0,0,0,5.93.55,16.29,16.29,0,0,0,5.33-.72l.74-.47a13.75,13.75,0,0,0-.88,3.35c.09.78.64,4.73.72,5.05a7.33,7.33,0,0,1,.16,1.74c-.08,0-3.44,1.82-6.68,1.55a23.08,23.08,0,0,1-6-1.31s.2-3.17.29-4.07a23.58,23.58,0,0,0-.33-4.37C217.56,189.15,217.79,188,218.38,188.4Z" fill="#e0dede"/><path d="M230,192h0a10.05,10.05,0,0,1,.06-1.91c.09-.39.15-.71.3-1.17a4.67,4.67,0,0,0,.3-1.75,4.09,4.09,0,0,0-1.05-2.36,6.1,6.1,0,0,0-1.87-1.14s-1.43-.71-1.46-.71,0-.08,0-.37a.8.8,0,0,0-.34-.67c-.15-.11-.06-.17,0-.46a19.14,19.14,0,0,0-.26-2.84c-.07-.65-.4-1-.63-1a11.85,11.85,0,0,0-1.91,0,3,3,0,0,0-1.2.29c-.34.26-.3.82-.29,1a18.67,18.67,0,0,1-.21,2.65c-.13.32-.34.39-.5.7s0,.69-.08.72a15.39,15.39,0,0,0-2,.86c-.58.37-1.61,1-1.82,1.82a3.18,3.18,0,0,0,.17,2,37,37,0,0,1,.72,4.19c.34,2.86-2.15,13.18.36,15.27a12,12,0,0,0,5.88,1.78,10.22,10.22,0,0,0,5.12-1,2.57,2.57,0,0,0,1.7-2C231.44,201.83,230,192,230,192Zm-11.8-2.22c-.07-.46-.24-1.19-.24-1.2.08-.19.5,0,.5,0a26.38,26.38,0,0,0,5.43.48,24.54,24.54,0,0,0,4.44-.31,3.79,3.79,0,0,0,1.55-.63,3.1,3.1,0,0,1-.11.35,4.88,4.88,0,0,0-.39,1.48c0,.53-.09,1.8-.07,2,0,0,.33,2.73.62,5.78a2.49,2.49,0,0,1-.63.42,15.57,15.57,0,0,1-5.52.93,11.65,11.65,0,0,1-5.24-.87,1.08,1.08,0,0,1-.56-.43c.2-2.12.45-3.85.45-4.17A23.55,23.55,0,0,0,218.16,189.8ZM222,180c0-.35.09-1.55.31-1.72a3.77,3.77,0,0,1,2-.19c.69.1.8.38.81.5s0,0,0,.06.1,1.24.17,1.69.24.84,0,1.19-1.08.51-2.32.42c0,0-.78-.1-.92-.35A4.25,4.25,0,0,1,222,180Zm-2.7,4.14c.13-.34.45-.37,1.06-.56a7.29,7.29,0,0,1,1.68-.21c.37,0,.9.13.94,0s-.58-.16-.73-.18c-.95-.16-.89-.43-.83-.57a.56.56,0,0,1,.56-.26c.24,0,1,.13,1,.13a16.74,16.74,0,0,0,1.7,0c.51-.07.89-.1,1,0s0,.43-.54.57a6.56,6.56,0,0,1-1.27.18c-.14,0-.34.22.33.23a14.76,14.76,0,0,0,1.59-.13,3.73,3.73,0,0,1,1.64.66.38.38,0,0,1,0,.54,3,3,0,0,1-1.85.73,20,20,0,0,1-4.38,0C219.66,184.89,219.13,184.47,219.25,184.12ZM217.34,186a2.64,2.64,0,0,1,1.24-1.69c.09-.09.09,0,.09,0a1.38,1.38,0,0,0,.48.64,5.11,5.11,0,0,0,2.32.75,20.24,20.24,0,0,0,3.78,0c2.17-.32,2.35-.58,2.67-.8a.77.77,0,0,0,.33-.49c.25,0,.55.25.84.48a3.18,3.18,0,0,1,.92,1.75,2.86,2.86,0,0,1,0,.57v0c-.16.75-1.39,1-2.16,1.2a19.66,19.66,0,0,1-4.51.22c-2.85,0-4.51-.14-5-.53A2.19,2.19,0,0,1,217.34,186Zm12.82,19.91c-.84,1.72-3.66,2.19-6.21,2.09a11,11,0,0,1-5.12-1.31,4,4,0,0,1-1-2.61,33.48,33.48,0,0,1,.08-5.49,4.66,4.66,0,0,0,1,.48,16.55,16.55,0,0,0,4.9.67,13.58,13.58,0,0,0,6.16-1.17C230.27,201.84,230.48,205.25,230.16,205.92Z" fill="#692f23"/><path d="M207.68,185.19c-.35,1.59-.2,24.29-.2,24.29s-.35.65,2,.94a33.67,33.67,0,0,0,6.38.08c1.23-.12,2.33-.35,2.62-1a6.44,6.44,0,0,0,.27-2.27c0-.27-.12-17.94-.12-17.94s-.39-1.53-1-1.84-2.25-1.21-2.15-1.61a4.43,4.43,0,0,1,.31-1.33c.22-.27-3.7-2.25-4.35-2.15S208,183.61,207.68,185.19Z" fill="#e0dede"/><path d="M211.37,182a3.14,3.14,0,0,1,.55-1.55,8.89,8.89,0,0,1,1.84-2.13,4.06,4.06,0,0,1,2.66.16c.82.45,1.35.62,1.25,1.88a20.17,20.17,0,0,1-1.27,4.05Z" fill="#fd8204"/><path d="M207.33,190l0,10s.31.59,4,1a20.48,20.48,0,0,0,7.34-.73l0-10.68a12.13,12.13,0,0,1-3.55.73C213.18,190.47,207.55,189.83,207.33,190Z" fill="#d2a274"/><path d="M219.08,208.49c0-.31,0-19,0-19a3.28,3.28,0,0,0-1.08-2.22c-1-.77-2-1-2.1-1.34a.8.8,0,0,1,.34-1.08c.48-.24.75-.2,1-.68a39.75,39.75,0,0,0,.92-4.32.9.9,0,0,0-.28-.77,4.07,4.07,0,0,0-2.91-1.24c-1.69-.06-2,.67-2.15.89s-1.65,2-2,2.37a.94.94,0,0,0-.08.85c.06.25-.32.14-1.06.52a3.72,3.72,0,0,0-2.32,2.35,15.59,15.59,0,0,0-.36,4v20s0,1.12.51,1.5,3.47.66,5.34.69a19.91,19.91,0,0,0,5.23-.56C219.32,210.09,219.09,208.8,219.08,208.49Zm-6.84-28,.84-1.06.2-.22s.45-.7.94-.8a3.6,3.6,0,0,1,2.88.69s.41.23.4.56-.41,1.69-.68,2.67a.28.28,0,0,1-.31.25c-.44,0-.38,0-1.87-.58a10.17,10.17,0,0,1-2.26-1.1A.28.28,0,0,1,212.24,180.47Zm-.41.6c.13,0,.1.07,1.23.74a15.26,15.26,0,0,0,3.08,1.17.91.91,0,0,1,.34.2c.08.07,0,.28,0,.3-.11.26-.44.24-.9.13a25.26,25.26,0,0,1-3.05-1.27c-.09-.06-.53-.38-.62-.46C211.51,181.5,211.72,181.11,211.84,181.07Zm-3.93,4.42a3.09,3.09,0,0,1,1.3-2,3.42,3.42,0,0,1,2.27-.84c.39.06,2.48.9,2.71,1s1.26.49,1.2,1a8.35,8.35,0,0,0-.24,1c0,.42,0,.88,1,1.35a4.42,4.42,0,0,1,2.17,1.73c.25.66,0,.87-.46,1a12.8,12.8,0,0,1-3.87.39,43.86,43.86,0,0,1-4.92-.21s-1.28-.16-1.28-.48A30.6,30.6,0,0,1,207.91,185.49Zm-.09,4.62a8,8,0,0,0,1.39.31c.84.1,3.07.18,4.76.17a22.65,22.65,0,0,0,3.65-.25c.43-.11.61-.31.7-.25s.13,9.23.13,9.23v.81c0,.09-.06.11-.13.13a16.59,16.59,0,0,1-2.6.5,26.52,26.52,0,0,1-5.45-.05,15.93,15.93,0,0,1-2.45-.53.23.23,0,0,1-.18-.25c0-4.57,0-9.17,0-9.17S207.58,190.07,207.82,190.11Zm9.75,19.78a38.83,38.83,0,0,1-4.08.37,18.34,18.34,0,0,1-5.45-.46c-.23-.16-.36-.3-.39-.93,0-.29,0-3.89,0-8,0,0,0-.3.14-.27l.07,0a29.47,29.47,0,0,0,3.25.58,24.56,24.56,0,0,0,5.65-.18c.47-.08.86-.19,1.26-.29l.3,0a.14.14,0,0,1,.14.15l-.06,8.28S218.46,209.75,217.58,209.89Z" fill="#692f23"/><path d="M45.63,191.79c-.21,0-2.8-1.08-2.9-4.88a18.72,18.72,0,0,1,1.66-7.69c.12-.13,1.88-4.28,4.32-9.09s7.66-14.32,8.52-15.66,2.77-4.9,4.44-5.5a17.67,17.67,0,0,1,8.17-.47c3.39.55,9.6,1.78,10.65,2.55s3.17,2,3.58,4.53S79.83,165.88,79.78,166s-3.3,5.33-5.68,8.61-6.87,9.38-8.4,10.71-3.27,3.39-4,4.14a28.69,28.69,0,0,1-5.53,4,8.38,8.38,0,0,1-5.65.33A34.5,34.5,0,0,1,45.63,191.79Z" fill="#f7f5f2"/><path d="M46.9,195.49c-.07.07-3.49,4.76-3.55,4.91s.19,1.45.53,1.6a5.31,5.31,0,0,0,1.54.41c.3,0,1.27-.36,1.39-.62s3-5.83,3.08-5.95.81-1.44.68-1.69a7.7,7.7,0,0,0-2-.71Z" fill="#e2ddd3"/><path d="M4.36,229.36c0,.11-.58,4.06-.09,5.28s1.22,1.86,3.15,2.84S18,240.88,27,241a150.57,150.57,0,0,0,17.53-.53,34.2,34.2,0,0,0,7.19-2.84A9.59,9.59,0,0,0,54.35,235c.16-.44-.27-6.32-.27-6.32a6.22,6.22,0,0,1-2.35,2.19c-1.73,1-9.28,3-22.86,3.55S6.18,231,5.56,229.8,4.5,228.6,4.36,229.36Z" fill="#d2a274"/><path d="M16,222.6c-.21.19-9.84,2.92-10.51,4.28S4.76,229,6,230.11,7.38,232.4,17.77,234s21.17.31,24.9-.13a22.3,22.3,0,0,0,7.86-2.53,8,8,0,0,0,2.71-2.13c.18-.49.27-2-3.06-4.57s-5-2.29-5-2.29-.58,1.12-4.72,2.16c-4.39,1.11-7.57,2-19.44.18C15.81,223.91,16,222.6,16,222.6Z" fill="#e6d1aa"/><path d="M16.07,216.35s-.06,3.69.85,4A29.27,29.27,0,0,0,27,222.06a93.15,93.15,0,0,0,13.41-.92c.38-.13,2.63-.73,2.87-.33s0,1.46,0,1.66a1.3,1.3,0,0,0,1.92-.12,39.24,39.24,0,0,0,3.64-4.23,7.59,7.59,0,0,0,1-2.84c0-.5-.46-6.58-.44-6.72a44.09,44.09,0,0,0-4.68,4.17c-2.19,2.18-6.87,4.3-13.13,4.56S20.88,216.62,18,215.2a5.62,5.62,0,0,1-1.54-1.09A3.52,3.52,0,0,0,16.07,216.35Z" fill="#e6d1aa"/><path d="M16.51,211.41c0,.13.38,2.9.38,2.9.68.64,1.64,1.92,5.12,2.4a97.09,97.09,0,0,0,13.17.3,17.14,17.14,0,0,0,5.74-1.72c.47-.33,3.28-2.53,3.4-2.69s4.2-4.56,4.2-4.56l-2.66-1.33.59-4.14-3.14-1.51s-2.07,2.72-2.13,2.84a4,4,0,0,0,.44,2.25,4.55,4.55,0,0,1,.8,1.45s.86-.33,1.12,0S43.5,210,43.5,210c-.09.3,0,.73-1.18.86s-5.28,1.55-9.59,1.86A40,40,0,0,1,20.95,212C18.11,211.22,16.67,210.23,16.51,211.41Z" fill="#e6d1aa"/><path d="M15.89,208.09a6.28,6.28,0,0,0,.33,2.49c.37.41,3,.95,4.56,1.18a65.27,65.27,0,0,0,10.83,1.09A35.22,35.22,0,0,0,42,210.94a10.3,10.3,0,0,0,2-.74,22.44,22.44,0,0,0-.15-2.87,14.45,14.45,0,0,1-4.08,1.86c-1.86.34-5.15,2.13-13.61,1.24s-9.46-2.8-9.47-2.87S16.05,206.87,15.89,208.09Z" fill="#d2a274"/><path d="M17.93,206.08c0,.08,2.4,1.32,7.28,1.78a87.44,87.44,0,0,0,13.73-.12,5,5,0,0,0,2.25-1.07c.09-.27.46-.89-.15-1.12a26.59,26.59,0,0,0-10.54-2C24,203.36,16.44,203.64,17.93,206.08Z" fill="#e6d1aa"/><path d="M17.13,206.79a6.64,6.64,0,0,0,.33,1.69,23.05,23.05,0,0,0,5,1.15,72.19,72.19,0,0,0,13.17.53c2.29-.31,4.79-.95,4.79-.95A3.91,3.91,0,0,0,42.2,208a13.72,13.72,0,0,0-.15-1.63s-3.79,1.85-15.15,1.3a32.91,32.91,0,0,1-9.47-1.57S17.07,206.17,17.13,206.79Z" fill="#d2a274"/><path d="M29.5,210v-.93l9.26-.46-.18,1.18S30.51,210.54,29.5,210Z" fill="#e2ddd3"/><path d="M17.9,208.3a8.15,8.15,0,0,1,.38-.8l6.21,1.09,0,1.12a19.92,19.92,0,0,1-3.76-.18C20.06,209.28,17.9,208.3,17.9,208.3Z" fill="#e2ddd3"/><path d="M60.75,221.65c.3-2.52.18-6.14-.41-6.51S59,213.94,58,215s-2,5.59-2,5.59c0,.86.34,4,.86,4.53s1.14,1.51,1.48,1.36A8.61,8.61,0,0,0,60.75,221.65Z" fill="#e2ddd3"/><path d="M58.64,221.11a.77.77,0,0,0,.52-.71c.07-.61-.09-1.11-.33-1.05s-.62,0-.65.49S58.19,221.13,58.64,221.11Z" fill="#c7c0b1"/><path d="M55.52,214a28.9,28.9,0,0,0-2,5.42,12.1,12.1,0,0,0,.62,5.68A4.45,4.45,0,0,0,56.85,227a1.89,1.89,0,0,0,1.18-.56,9.36,9.36,0,0,1,.33-11.73c.52-.43,1.72-.39,1.72.31,0,.12.53-.95-.3-1.21S56.73,213.15,55.52,214Z" fill="#fd8204"/><path d="M48.71,218.63c-.06.21-2,2.78-2,2.78l6.66-.24.44-2.9Z" fill="#c7c0b1"/><path d="M16,222.6c.24.15,3,2.16,9.11,2.66a69.15,69.15,0,0,0,16.45-1.18,3.81,3.81,0,0,0,2-1.36l-.24-2.31A76.07,76.07,0,0,1,27,222.06c-7.4-.3-10.83-2-10.83-2Z" fill="#c7c0b1"/><path d="M48.71,198.3c0,.13,3.37,2.12,4,1.85a1.79,1.79,0,0,0,1-1.32,20.9,20.9,0,0,0-2.93-2.43C50.08,196.15,49.08,196.39,48.71,198.3Z" fill="#c7c0b1"/><path d="M52.7,200.15s2.31,3.15,2.22,4.93-.2,4.24-1.42,5.5a17,17,0,0,1-3.84,2.53,6.7,6.7,0,0,0-.16,1.51c.11,0,.42.42,2.62-.71A9.78,9.78,0,0,0,56.21,210c.31-.8,1.4-3.91,1-5.24a20.79,20.79,0,0,0-3.2-5C53.46,199.3,52.7,200.15,52.7,200.15Z" fill="#e2ddd3"/><path d="M41.74,202.15c-.2,0-2.18-.38-3.06.49a12.06,12.06,0,0,1-1.86,1.46s-1.33-.13-1.2-.44a6.51,6.51,0,0,1,1.45-2,7.81,7.81,0,0,1,2.59-1.4,7.83,7.83,0,0,1,3.21-.07C43.13,200.37,41.74,202.15,41.74,202.15Z" fill="#e2ddd3"/><path d="M80.34,174.71s-.53,9.35,1,11.46,5.56,2.82,7.94,2.38a11.17,11.17,0,0,0,4.23-1.85s1.76-5.47,2-5.82a26.62,26.62,0,0,0,1-3.44s-8.38-.44-11.55-1.32S80.34,174.71,80.34,174.71Z" fill="#d2a274"/><path d="M109.35,175.15s.26,7.76.71,9.79,1.5,2.47,1.5,2.47,6-1,8.55-.62,4.06.44,4.06.44,1.41-4.59,1.68-5.73-.18-7.41-.18-7.41a29.5,29.5,0,0,1-6.53,1.23C115.88,175.51,109.35,175.15,109.35,175.15Z" fill="#d2a274"/><path d="M80.87,185.73a15,15,0,0,1-6.17-.88c-4-1.23-9,.44-10.14,1.41s-3,4.14-2.2,6.79,4.32,4.67,7.58,5.64,9.43-.44,10.67-.88,7.5-.62,9.52-1,3.17,0,4.06-1.85,1.68-3,1.15-4.5a30,30,0,0,0-1.85-3.79A4.6,4.6,0,0,1,90,188.38c-2.29,0-7.41-1-8-1.59Z" fill="#efb000"/><path d="M111.21,187.32s-2.29,2.65-2.38,3.79a5.84,5.84,0,0,1-1.06,2.56c-.26.44-1.59,4.59.26,6.61s7.23,2.56,9,2.56,9.79-1.5,11.11-1.59a3.64,3.64,0,0,0,2.65-1.76c.26-.53.62-4.94.18-6s-3.44-2.56-3.7-2.82-2.38-3.44-2.38-3.44S113.15,185.73,111.21,187.32Z" fill="#efb000"/><path d="M86.61,37.24s-1.85,2.82-1.68,4.06.44,2.82.44,2.82L83.25,45a27.37,27.37,0,0,1-4.14,1.06c-.88,0-3.7.09-3.7.09l-.18,4.32s-.35,11.29,5,17.19,11.46,9.79,18.16,9.61,14-1.5,17.19-3.88,7.05-6.44,7.85-8.55l1-1.94a5.94,5.94,0,0,0,2.56-2c.79-1.32,1.59-3.7.79-5.29A2.94,2.94,0,0,0,124,54.17a5.05,5.05,0,0,0-2,1s-4.23-3-5.2-4.32a61.33,61.33,0,0,1-3.17-6.08,3.12,3.12,0,0,1-2.47.71c-1.59-.18-3,.26-4.41-.18s-4.23-1.68-6.08-1.59a59.25,59.25,0,0,0-7,.71c-.88.26-3.09.79-3.09.79l-1-1.59S87.49,37.95,86.61,37.24Z" fill="#f9e5cc"/><path d="M97,54.41s-.32-2,1-2.73,3.94-.38,5.61.35,2.79,1.35,2.67,1.79a3.34,3.34,0,0,1-2.18,1.59,22,22,0,0,1-4.5.18,10.76,10.76,0,0,0-2-.73C97,54.79,97,54.41,97,54.41Z" fill="#fff"/><path d="M98.69,52a3,3,0,0,0-.29,2.09,1.92,1.92,0,0,0,1.85,1.32,3.09,3.09,0,0,0,2.15-1.23,2,2,0,0,0-.15-2.06C101.8,51.58,99.36,51.14,98.69,52Z" fill="#abd2f0"/><path d="M79.46,53.64c0-.13.09-2,1.21-2.23a5.9,5.9,0,0,1,3.35,0,4,4,0,0,1,2.32,1.73c.53.73.24,1.21.24,1.21s-.15.29-1.15.53-1.94.65-2.91.26S79.61,54.64,79.46,53.64Z" fill="#fff"/><path d="M80.73,52.23a1.92,1.92,0,0,0,.82,1.94,2.49,2.49,0,0,0,2.5.18,2.1,2.1,0,0,0,.59-1.56c.06-.65.15-1.32-1-1.47S80.82,51,80.73,52.23Z" fill="#abd2f0"/><path d="M82.17,25s-3.12,3.91-4,5.41-3.76,3.41-4.5,4.06a18.42,18.42,0,0,0-4.41,7.41c-1.38,4.17-1,6.38-1,6.38S66.82,52.73,67,55.26s1.91,7.35,3.17,8.94,1.76,1.56,2.47,3a21.6,21.6,0,0,0,7.05,7.58A62.41,62.41,0,0,0,91.16,80a3,3,0,0,0,2.29-.29,9.17,9.17,0,0,0,.62-2.26c-.06-.53-1.32-.41-2.09-1s-6.11-1.91-9.46-6.11-5.61-7.82-6.35-10S75,51.71,74.91,50.44a23,23,0,0,1,0-3,1.54,1.54,0,0,1,1.38-1.23,40.91,40.91,0,0,0,5.7-.76c1.12-.35,2.79-.62,3-.94s-.18-2.62.21-4.06,1.65-2.44,1.82-3,.82,1.29,1.35,2.38,1.79,4.29,1.65,4.91,1,.24,2.23,0,7.38-1.62,9.05-1.15,5.14,1.62,6.44,2a7.79,7.79,0,0,0,4.76-.44c.91-.59,1.76,1.82,1.82,1.94s3.06,5.47,5.41,6.79,3.12.62,3.53.59,2.06-.76,3.29-.12A3.06,3.06,0,0,1,128,58.38a42.38,42.38,0,0,1-2.73,4.17,11.16,11.16,0,0,0-1.32.91c-.12.06-1.91,5.56-5.29,7.67s-3.41,2.94-3.41,2.94.35,5.14.38,5.26a4.23,4.23,0,0,0,3.12-.38c1.44-.76,6.7-2.41,7.76-3a65.52,65.52,0,0,0,7.29-5.08c1.41-1.32,5.06-4.88,5.73-6.26a18.17,18.17,0,0,0,2-8c-.09-3.41-1.18-11.76-1.91-13.64a29.31,29.31,0,0,0-5.47-8.11,81.86,81.86,0,0,0-9.38-7.29c-.47-.15-6.17-4.09-7.82-4.67s-6.55-2.15-7.52-2.53-3.23-1-4.26-.76a4.34,4.34,0,0,0-1.82,1.12A7.19,7.19,0,0,0,100,19.67c-1.38.09-5.88,1-5.88,1a10.06,10.06,0,0,0-3.79.18C88.4,21.34,84.52,22.58,82.17,25Z" fill="#e09c51"/><path d="M86.69,29a4.68,4.68,0,0,1-1.85,2.12,23.6,23.6,0,0,0-5.29,4.23c-.94,1.29-2.56,4.38-2.44,7a10.51,10.51,0,0,0,.68,3.76l-2.41,0s-.21-5.94.06-7.85,2.5-8.08,4.14-10,4.09-4.64,5.11-5.06a32.25,32.25,0,0,1,4.53-1.73,35.52,35.52,0,0,1,5.56-.91,40,40,0,0,0,4-.65c.26-.06,2.29-.44,3.29.41s1.21.5,1.21.5a3.09,3.09,0,0,1,2.38-1.15c1.29.18,4.47.5,6.17,3.56a56.62,56.62,0,0,1,2.73,5.58s-3.23-5.08-6-6.26-4,.21-4,.21.5,3.53.5,3.62a16.33,16.33,0,0,1-.12,3.85A5.61,5.61,0,0,0,100.39,25a7.92,7.92,0,0,0-7,2.2L94.07,25a11.73,11.73,0,0,0-3.59,6.11c-.65,3.62-.56,12.4,0,13.43l.15.35a.4.4,0,0,1-.53.12c-.38-.15-.65-2.15-1.47-3.35a25.24,25.24,0,0,1-2.23-7.79C86.55,32.75,86.69,29,86.69,29Z" fill="#e9b87f"/><path d="M75.47,33.31a33.34,33.34,0,0,0-2.65,5.26,13.72,13.72,0,0,0-.47,6.82c.5,1.65.38.47.38.47a13,13,0,0,1,1-4.41c.85-1.56,1.41-1.7,1.41-1.7S76.38,34,76.47,34,76.35,32.48,75.47,33.31Z" fill="#e9b87f"/><path d="M71,45.8s-2.88,3.64-3.38,6.32a15.55,15.55,0,0,0,.32,7.29c.62,1.88,1.7,4.53,2.44,5s1-.12,1-.12a15.79,15.79,0,0,1-2.2-6.44c-.44-3.82,1.35-10,3.09-11.46,0,0,.29-.79-.15-.79A1.64,1.64,0,0,0,71,45.8Z" fill="#e9b87f"/><path d="M80.08,147.13a2.91,2.91,0,0,0-.44,3.31c4.35,2.43,4.86,5,4.82,6.07-.06,1.82-4.91,9.94-6,12.19.35,2.35.54,3.24,1.78,4.77s7.76,4,10.05,4.06,4.53.71,5.94-.94,2.29-2.18,2.88-4,1.12-6.05,1.59-7.23,1.29-4.64,2.18-4.64,2.06,3.06,2.06,4,.94,5.53,3.17,7.76,4.47,3.76,9.35,3.35a23.9,23.9,0,0,0,9.17-2.59,12.56,12.56,0,0,0,2.7-5.06c.35-1.7-.35-7.94-.82-9.7s.94-4.64.94-4.82,1-4.82.35-5.94-2.76-1.47-4.17-1.35-9.82,1.76-12.64,1.94-6.29.71-9.05.59-10.4-1.59-10.4-1.59S80.72,146.48,80.08,147.13Z" fill="#fd8204"/><path d="M85.46,147.2s-2.06,10.58-1.65,18.46,1.82,9.17,1.82,9.17L89,147.32l4.35.53s-1.53,9.23-1.7,10.7-.71,10.76-1.53,13.29a19.55,19.55,0,0,1-2.59,4.88s-4.47-.41-5.35-1.94A8.08,8.08,0,0,0,81,173s-.39-3.34-.54-7.94c4.72-7.43,4.75-11.07.61-13.89a37,37,0,0,1,.81-4S84.75,147.08,85.46,147.2Z" fill="#e16702"/><path d="M97.57,149.67a37.58,37.58,0,0,0-2.88,10.88,76.75,76.75,0,0,1-1.12,9.88c-.35,1.41-1.94,5.17-1.88,5.7s1.12,1.06,2.29,1,1.88-1.29,2.23-3.23S97.69,162.6,98,160.43s1.23-7.94,1.82-8.7Z" fill="#e16702"/><path d="M99.45,149.73s3.76,6.41,4.23,8.82,1,7.29,1.59,8.88,1.94,5.23,3.23,6,2.88,2.18,3.06,2.18.65-.76.59-1-.76-2.47-.76-2.47-2.41-3.76-2.76-6.17a62.41,62.41,0,0,0-3.17-10.82c-.94-2-3.64-6.41-3.76-6.64S99.45,148.38,99.45,149.73Z" fill="#e16702"/><path d="M105.92,149a40.81,40.81,0,0,1,2.29,5.17c1.23,3.29,4.41,12.34,4.82,13.64s2.06,6.88,3.82,7.7,4.94,0,5.7-.53a9.35,9.35,0,0,0,2.29-3.53A71.58,71.58,0,0,0,123,161.31c-.59-1.82-1-2.23-1.06-4.41s-.88-8.58-1.53-9.52l-4.23.59s1.18,7.82,1.59,8.88a77.3,77.3,0,0,1,2.59,8.58c.35,2.06,1,6.35-.35,9.23l-.18.65a20.13,20.13,0,0,1-1.94-3.64c-1-2.35-2.76-9.05-3.29-10.58s-1.76-6.76-2.53-8.82-1.12-3.17-1.76-3.53S105.92,149,105.92,149Z" fill="#e16702"/><path d="M122.67,147.14a7.63,7.63,0,0,1,1.65,4.47c.12,2.76-.06,4.47.06,6.17s1.88,5.47,1.82,7.29a21.47,21.47,0,0,1-.82,6.05c-.65,1.82-1,2.41-.76,2.41a7.18,7.18,0,0,0,2-.88c.35-.29,1-.18,1.88-2.94a18.94,18.94,0,0,0,.53-8.35,13.84,13.84,0,0,0-1.65-3.88,17.58,17.58,0,0,0,0-7.41c-.94-3.23-1.29-3.59-1.29-3.59Z" fill="#e16702"/><path d="M134.43,141.15c-.28-.82.21-10,0-10.88s.82-1.91,2.66-4.17a19.67,19.67,0,0,0,2.18-3.77c.9-2.21,1-4.39,1.33-6.75.18-1.59-.75-6-1.51-8.17-.4-1.11-1.24-3.83-1.55-5-.11-.41-2-12.83-7.85-15.29-3.6-1.5-7.5-3.17-7.5-3.17l-5.91-4.41-.79-1.76L115,73.66s-5.47,3.26-10.32,3.53-10.76-.09-10.76-.09l-.09.44c.09.35.18,2.73-1,3.09s-3.88.62-5.29,1.32a15.85,15.85,0,0,0-6.7,4.85,36.67,36.67,0,0,1-6.57,6.52c-1.23,1-5.47,8.58-5.56,8.8l0,.11c-1.36,3.29-3.08,6.52-3.6,10a32.48,32.48,0,0,0-.27,4c0,1.73-1.91,7-2.26,8.68.81.47,1.78,5.54,2.49,6.79,1.69,3,5.61,3,6.68,3.09,2.44.09,6.55-1.4,6.55-1.4a12,12,0,0,0-.42,2.42c-.09,1.32-1.4,6.56-1,7.79s7,3.27,7.33,3.27,11.37.35,14,1.41,11.9.35,14.2.18,12-1.85,14.73-1.85a46,46,0,0,0,5.73-.44s1.41-1.32,1.5-2v-.06C134.1,143.65,134.6,141.66,134.43,141.15Z" fill="#f7f5f2"/><path d="M113.37,115.85a4.08,4.08,0,0,1,.17-4.82,4,4,0,0,1,5.52-1,3.85,3.85,0,0,1,1.21,4.42C120.13,114.85,115.09,114.39,113.37,115.85Z" fill="#fd8204"/><path d="M66.52,120.73c-.08.17-.89,2.6-.89,2.6s.77,3.37,1.42,4a7,7,0,0,0,3,1.83,10.79,10.79,0,0,0,2.49.12,17,17,0,0,0,2.49-.18,3.35,3.35,0,0,0,1.07-1.54c.18-.62,2-5.42,1.89-5.62a4.85,4.85,0,0,0-1.48-1.07c-.21,0-2.66-1.42-2.66-1.42l-3,.12-3,.53S67.06,119.61,66.52,120.73Z" fill="#f9e5cc"/><ellipse cx="135.97" cy="117.99" rx="4.12" ry="3.81" transform="translate(-40.03 155.84) rotate(-53.09)" fill="#fd8204"/><ellipse cx="124.71" cy="132.1" rx="3.01" ry="2.79" transform="translate(-55.81 152.47) rotate(-53.09)" fill="#fd8204"/><ellipse cx="129.55" cy="97.16" rx="4.42" ry="3.97" transform="translate(-25.94 142.39) rotate(-53.09)" fill="#fd8204"/><ellipse cx="83.48" cy="107.92" rx="3.48" ry="4.42" transform="translate(-8.52 7.17) rotate(-4.68)" fill="#fd8204"/><ellipse cx="83.99" cy="87.1" rx="3.71" ry="2.92" transform="translate(-35.59 68.65) rotate(-37.27)" fill="#fd8204"/><path d="M74.28,117.1c-1.93-1.5-2.53-4-1.34-5.47s5.63-2.46,5.63,0c0,2,.5,6.23,0,6.4A4.66,4.66,0,0,1,74.28,117.1Z" fill="#fd8204"/><path d="M120.76,86.21a3.82,3.82,0,1,1-5.39-5.39,4.42,4.42,0,0,1,.9-.69c1.41,1.35,5.06,2.94,5.69,3.89A4.32,4.32,0,0,1,120.76,86.21Z" fill="#fd8204"/><g id="Воротник"><ellipse cx="103.92" cy="80.79" rx="0.47" ry="0.43" fill="#692f23"/><ellipse cx="96.66" cy="79.88" rx="0.47" ry="0.43" fill="#692f23"/><ellipse cx="99.01" cy="83.35" rx="0.47" ry="0.43" fill="#692f23"/><ellipse cx="102.24" cy="86.11" rx="0.47" ry="0.43" fill="#692f23"/><ellipse cx="97.27" cy="88.76" rx="0.47" ry="0.43" fill="#692f23"/><ellipse cx="92.98" cy="91.58" rx="0.47" ry="0.43" fill="#692f23"/><ellipse cx="95.83" cy="95.78" rx="0.47" ry="0.43" fill="#692f23"/><ellipse cx="94.81" cy="100.92" rx="0.47" ry="0.43" fill="#692f23"/><ellipse cx="98.95" cy="99.72" rx="0.47" ry="0.43" fill="#692f23"/><ellipse cx="91.78" cy="98.34" rx="0.47" ry="0.43" fill="#692f23"/><ellipse cx="111.24" cy="79.59" rx="0.5" ry="0.45" fill="#692f23"/><ellipse cx="80.15" cy="138.49" rx="0.6" ry="0.54" fill="#692f23"/><ellipse cx="85.12" cy="144" rx="0.6" ry="0.68" fill="#692f23"/><ellipse cx="92.67" cy="139.79" rx="0.6" ry="0.68" transform="translate(-50.5 227.16) rotate(-87.85)" fill="#692f23"/><ellipse cx="99.46" cy="145.29" rx="0.6" ry="0.68" transform="matrix(0.04, -1, 1, 0.04, -49.46, 239.23)" fill="#692f23"/><ellipse cx="106.96" cy="141.27" rx="0.62" ry="0.57" transform="translate(-38.22 242.85) rotate(-87.85)" fill="#692f23"/><ellipse cx="113.52" cy="145.56" rx="0.62" ry="0.57" transform="translate(-36.2 253.53) rotate(-87.85)" fill="#692f23"/><ellipse cx="125.75" cy="144.15" rx="0.62" ry="0.57" transform="translate(-23.02 264.4) rotate(-87.85)" fill="#692f23"/></g><path d="M77.06,124.43l-.65,1.83s2.83.55,2.9.53S77.18,140,77.18,140a22.88,22.88,0,0,0-.44,3.23,13.48,13.48,0,0,1,.5,2.25s-2,3.7-1.92,3.79a35,35,0,0,0,3.94,1c0-.09,1.27-3.49,1.27-3.49.07-.19,2.57-2,2.57-2s2.66-1.11,2.78-1.21,3.67-5.86,3.67-5.86L92,133.55l2.49-2,1.86-1.72,11.54.8s2.93.62,3.08.41.77-1.2.68-1.48-13-3-13.11-3Z" fill="#c7c0b1"/><ellipse cx="109.66" cy="98.03" rx="4.12" ry="3.81" transform="translate(-37.2 106.25) rotate(-45)" fill="#fd8204"/><ellipse cx="93.99" cy="119.44" rx="4.12" ry="3.81" transform="translate(-57.96 122.86) rotate(-53.09)" fill="#fd8204"/><ellipse cx="111.93" cy="134.36" rx="4.12" ry="3.81" transform="translate(-62.72 143.15) rotate(-53.09)" fill="#fd8204"/><path d="M42.7,207h0Z" fill="#692f23"/><path d="M80.45,129.61c-.12.1-1,5.39-.69,5.73s5.16.74,5.39.69.94-1.38,1-1.53,3.47-6.39,3.48-6.48A5.12,5.12,0,0,0,88,127.1c-.32,0-7-.48-7-.4S80.45,129.61,80.45,129.61Z" fill="#e2ddd3"/><path d="M77.76,184.95h0Z" fill="#692f23"/><path d="M115,159.43c-.5.32,1.41,1,3.24.65a8.62,8.62,0,0,0,3.41-1.71,19.67,19.67,0,0,1-2.29.56C118.52,159,115,159.43,115,159.43Z" fill="#692f23"/><path d="M100.06,48.07a20.42,20.42,0,0,1,3.34.25,10.18,10.18,0,0,1,2.81,1.54c.64.58.53.19.53.19a6.77,6.77,0,0,0-1.81-1.88,10.33,10.33,0,0,0-5.44-1.61s-1,0-1.14.63C98.32,47.46,98.41,47.94,100.06,48.07Z" fill="#692f23"/><path d="M80.13,49s2-.74,2.59-.86a7,7,0,0,1,2-.1c.54.07.92-.09.92-.42a.86.86,0,0,0-.84-.77,13.25,13.25,0,0,0-2,.41,8.69,8.69,0,0,0-2,.78,2.34,2.34,0,0,0-.75.75A.2.2,0,0,0,80.13,49Z" fill="#692f23"/><path d="M105.37,52.56c-1.75-.84-2.1-1.43-4.94-1.7s-3.52,1.09-3.7,1.88a10.08,10.08,0,0,0-.08,1,4.94,4.94,0,0,0,0,1.16c.1.17.51.07.75.1s2.24.61,2.85.72l.18,0a9.83,9.83,0,0,0,3.92-.17,4.68,4.68,0,0,0,2.24-1.17c.41-.39.35-.63.35-.63S107.12,53.4,105.37,52.56Zm-6.64,2.38c-.45-.18-1.14-.35-1.36-.81a2.42,2.42,0,0,1,.71-1.62,2.15,2.15,0,0,0-.12.79A2.09,2.09,0,0,0,99,55Zm.14-.57a1.8,1.8,0,0,1-.43-1.22c0-.31.12-.9.54-1h.08a.5.5,0,0,0,.18,1h0a1,1,0,0,0,1,.84c.57,0,1-.3,1-.82s-.07-.51-.07-.51-.06-.22.21-.29a.56.56,0,0,1,.63.29,1.53,1.53,0,0,1-.1,1.28,1.66,1.66,0,0,1-1.42,1A2,2,0,0,1,98.87,54.37Zm6.89-.37a.89.89,0,0,1-.29.25,6.7,6.7,0,0,1-2.52,1,14.19,14.19,0,0,1-1.67.18,2.42,2.42,0,0,0,1.39-.94,2.17,2.17,0,0,0,.28-1.73,2.26,2.26,0,0,0-.35-.77h0a14,14,0,0,1,3,1.41.85.85,0,0,1,.15.19A.33.33,0,0,1,105.77,54Z" fill="#692f23"/><path d="M91.15,62.19a3.22,3.22,0,0,0,2.5-.45c.42-.29.6-.65.31-.84s-.74.09-.74.09a5,5,0,0,1-1.93.25,2.91,2.91,0,0,1-1.93-.64c-.31-.19-.43,0-.11.46A2.49,2.49,0,0,0,91.15,62.19Z" fill="#692f23"/><path d="M86.09,54.94a3.38,3.38,0,0,1,1-.1c.26,0,.45-.18.45-.32s-.21-.36-.4-.66-.51-.89-.78-1.29a6.31,6.31,0,0,0-1.26-1l-.53-.31a5.9,5.9,0,0,0-2.17-.55,3.53,3.53,0,0,0-2.23.57,3.45,3.45,0,0,0-1,1.38A2.13,2.13,0,0,0,79,53.76c0,.26.44.47.44.47h0l0,0a8.3,8.3,0,0,0,2.2,1.07,7.75,7.75,0,0,0,2.6.17A5.66,5.66,0,0,0,86.09,54.94Zm-5-.34c-.29-.13-1-.57-1-.57a.88.88,0,0,1-.31-1,.35.35,0,0,1,.07-.12.47.47,0,0,1,.4-.09c.19.08.07.13.2.55a2.78,2.78,0,0,0,.81,1.26Zm2.35-.39a1.72,1.72,0,0,1-1.93-.27c-.48-.5-.52-.7-.53-1.07,0-.56.19-.73.19-.73s.06-.11.12-.12l.15,0a.55.55,0,0,0,.16,1h0a.92.92,0,0,0,.85.63,1.08,1.08,0,0,0,1.14-.89,1.09,1.09,0,0,0-.31-.83l.18,0a2.47,2.47,0,0,1,.45,0,.92.92,0,0,1,.34.55A1.53,1.53,0,0,1,83.48,54.21Zm.5.41.1-.05A1.77,1.77,0,0,0,85,53.31,2.13,2.13,0,0,0,84.8,52h0l.1.09a8.31,8.31,0,0,1,1.37,1.32c.22.28.38.57.09.84s-.67.18-1,.18-1.33.14-1.33.14Z" fill="#692f23"/><path d="M104.67,65.29a10.53,10.53,0,0,0-3.49,1.19c-1.63.86-5.45,1.19-7.26,1.19a26.13,26.13,0,0,1-6.6-1.39,7.87,7.87,0,0,0-2.14-.86,1,1,0,0,0-.82.46c-.26.54.11.75.22.75A6.35,6.35,0,0,1,86,66.46a5.83,5.83,0,0,1,1.46.71,19,19,0,0,0,7.32,1.72,16.55,16.55,0,0,0,7-1.72,6.53,6.53,0,0,1,2.47-1,4,4,0,0,1,1.32.44.84.84,0,0,0,.84,0,.55.55,0,0,0-.09-.64A2.94,2.94,0,0,0,104.67,65.29Z" fill="#692f23"/><path d="M97.44,70.4a13.08,13.08,0,0,1-3.19.26,7.89,7.89,0,0,1-3-.51,4.68,4.68,0,0,0-.62-.15c-.29,0-.25.19-.25.19a2.47,2.47,0,0,0,1,.93,8.28,8.28,0,0,0,4.19.47c1.88-.19,2.46-1.16,2.4-1.26S97.69,70.33,97.44,70.4Z" fill="#692f23"/><path d="M90.2,127.24a2,2,0,0,0-1.18-.49l-6.43-.59a7.55,7.55,0,0,0-.86-.07,1,1,0,0,0-1.09.64s-1.11,6.45-1.32,7.84.43,1.27.43,1.27,3.79.52,4.87.5,1.09-.46,1.09-.46,3.56-6.11,3.79-6.57S90.52,127.67,90.2,127.24ZM89,128.38c-.12.24-3.28,6.07-3.6,6.69s-.61.55-.73.52-3.89-.17-4.26-.3a.52.52,0,0,1-.34-.68c.06-.24.87-6.05,1-6.63s.14-.84.43-1a58.86,58.86,0,0,1,6.9.46C89.21,127.61,89.16,128.14,89,128.38Z" fill="#692f23"/><path d="M59.28,219.51a.57.57,0,0,0-.32-.32.76.76,0,0,0-.73.1,1.19,1.19,0,0,0-.28,1.22c.17.44.39.6.68.6a.7.7,0,0,0,.69-.46A1.71,1.71,0,0,0,59.28,219.51Zm-.62,1.1c-.15,0-.32-.17-.31-.53s.25-.49.33-.49h0c.21,0,.27.34.27.6A.37.37,0,0,1,58.67,220.62Z" fill="#692f23"/><path d="M65.7,123.6s.44,2.34.47,2.46a3.35,3.35,0,0,1-1.57-.36c-.1-.18-.75-1.26-.62-1.42A11.08,11.08,0,0,1,65.7,123.6Z" fill="#c7c0b1"/><path d="M90.12,135.2l7.55,2.09,2.44-1.82a2,2,0,0,1,1.6-.49c.91.18,5.42,2.22,5.42,2.22l-.24.67-2.16-.84s-4.12-1.43-4-1.17-1.58,2-1.92,2.31a3.53,3.53,0,0,1-1.55.5c-.24-.07-6.32-.68-6.51-.72-.55-.12-1.78-.23-2.09-.65S88.39,134.58,90.12,135.2Z" fill="#b13824"/><path d="M111.7,120,98.47,123,96,126.68a19.79,19.79,0,0,0-.33,5.08l1.93,1.2,2.09.51,1.62-.42,1.93.07s.18-.09.64-.27,3.35-.53,3.35-.53.53-1.09.4-1.11-1.62-1.11-1.33-1.07,1.42-1.86,1.42-1.86l3.11.36s3.88-1.53,4-1.55,1.4-.82,1.51-.84a4.91,4.91,0,0,0,.67-.44S116,119.31,111.7,120Z" fill="#f9e5cc"/><path d="M97.63,133c.12.12,1.18,1.08,1.89,1.07s.71-.49.71-.49.43.4,1.82.29,1.63-.93,1.86-1a14.44,14.44,0,0,0,2.93.11,2.72,2.72,0,0,0,1.35-1.24,10.39,10.39,0,0,1,.8-1.18l-2.37-.36-.58.36a8.86,8.86,0,0,0,.13,1c.07.2.65-.11.84-.09s.29.37-.2.53a9.63,9.63,0,0,1-2.4,0,1.75,1.75,0,0,1-1.31-.71,8.61,8.61,0,0,1,.47-3.77c.4-1,1.25-3,1.42-3.17s.4-1.13-.4-.16a15.68,15.68,0,0,0-2,4.44,5.67,5.67,0,0,0-.31,3c.26.51.54.64.38,1a1.38,1.38,0,0,1-1.29.44c-.52-.07-.92-.33-1.18-1.62s.51-4,.93-5.15a10.13,10.13,0,0,1,1.27-2.24c.22-.37.33-1-.84.16s-2,5-2,6.13-.27,2.12.27,2.57c0,0-.09.27-.69.07s-1.13-.9-1.33-2.18a12.25,12.25,0,0,1,.62-4.68,7.44,7.44,0,0,1,.93-2c.11-.07-.31-.58-1.2,1.09a9.39,9.39,0,0,0-1,6.61A1.78,1.78,0,0,0,97.63,133Z" fill="#692f23"/><path d="M94.85,132c-.11-.07-2.14-1.25-2.49-1s-.51.93-.31,1.15a16,16,0,0,0,3.28,1.58,14.35,14.35,0,0,0,2.44.64c0-.17.52-.47.29-.78A25,25,0,0,0,94.85,132Z" fill="#b13824"/><path d="M110.06,128.08a6.1,6.1,0,0,0,1.58,0,28.57,28.57,0,0,0,3.42-1.66,3.68,3.68,0,0,1,1.55-.64c.3.07.23,1.08.18,1.09a2.29,2.29,0,0,0-1.49.27c-.72.43-1.48.94-1.53,1a15.79,15.79,0,0,1-2,.73,15.15,15.15,0,0,1-2.31.2c-.12,0-1.8-.29-1.8-.29s-.92,1.51-1.11,1.71-1.07.83-1.4.51.48-.82,1-1.35.74-.67.82-1.22a10.8,10.8,0,0,0,.09-1.51c0-.43.29-.72.44,0l.16.74h0a3,3,0,0,0,1.24-1.08c.19-.42.29.44,0,.78s-.41.52-.16.58S109.52,128,110.06,128.08Z" fill="#692f23"/><path d="M111.5,128.79a2.84,2.84,0,0,0-2,.06c-1,.47-1.54,2.73-1.39,2.77a10.78,10.78,0,0,0,2.77.14,1.17,1.17,0,0,0,1-.6A1.68,1.68,0,0,0,111.5,128.79ZM110,130.28c-.07-.84.59-.81.79-.78h0s.13,0,.27.24a.79.79,0,0,1,.1.62C111.06,130.78,110,131,110,130.28Z" fill="#692f23"/><path d="M135.14,92.46a7.28,7.28,0,0,0-4.66-5.6,8.11,8.11,0,0,0-2.64-.84,4.16,4.16,0,0,0-.8-.55s.05,0,0,0c-.41-.21-3.68-1.38-4.74-1.94s-2.41-1.62-3.24-2.06-1.29-1-1.29-1.38.88-.47.88-.47,6.53-1.65,10.33-4.27,9.3-7,11.65-11.53,1.15-9.74,1.12-10.3-.32-3.06-.32-4a26.35,26.35,0,0,0-1.79-8.44c-1.5-3.15-4.32-6.5-9.94-10.91s-7.65-5.65-12.65-7.74-9.88-3.44-11.5-3.29a3.48,3.48,0,0,0-2.42.86,4.88,4.88,0,0,0-2.88-.95,38.93,38.93,0,0,0-4.27.59c-.91.21-3.77.32-5.59.68a24.71,24.71,0,0,0-5.88,2.38,18.71,18.71,0,0,0-4.12,3.63,23.65,23.65,0,0,0-1.6,2.35,24.08,24.08,0,0,1-3,3.19c-.12.16-1.79,1.6-2.94,2.75a19.91,19.91,0,0,0-2.44,3.47s-.28.43-.27.43a14.77,14.77,0,0,0-1,2.79,30.68,30.68,0,0,0-1.32,6.12,7.78,7.78,0,0,1-.24,1.34A15.27,15.27,0,0,0,66.93,53a21.53,21.53,0,0,0,.72,6.41c.68,2.19,2.18,5,3.07,5.74l0,0c.33.41.57.51.64.64a37.67,37.67,0,0,0,2.78,4.31,35.08,35.08,0,0,0,5,4.82,65.19,65.19,0,0,0,6.69,4,18.76,18.76,0,0,0,3.71.91c.66.18,1.16.26,1.1.49a.62.62,0,0,1-.32.34,17.41,17.41,0,0,0-2.41.57,3.5,3.5,0,0,0-.57.16,14.47,14.47,0,0,0-5.07,3.07c-1.47,1.65-3.64,3.6-4.42,4.42A25.08,25.08,0,0,0,76,91s-.65.67-1,1l-.17.18,0,0s-4.23,5.16-5.24,6.51a31,31,0,0,0-2.6,5.12c-.44,1-1.45,5.18-2.28,7-.76,1.7-.48,7.34-.43,8.29-.26.26-.55.58-.89,1a5.05,5.05,0,0,0-1.27,3.57,6.75,6.75,0,0,0,.5,3,25.51,25.51,0,0,1,1.2,3.11,10.06,10.06,0,0,0,1.63,3.65c1.06,1.48,4.06,1.86,4.65,2a17.1,17.1,0,0,0,4.87-.3,9.85,9.85,0,0,1,2.83-.83h0l-1.43,7.78h0a2.62,2.62,0,0,0,.89,2.77l-2.06,3.79c-5.31-1-9.89-1.21-12.44-.68s-3.85,2.75-5.5,5.27S47.14,171,44.68,177s-2.78,8.76-2.78,8.76a6.22,6.22,0,0,0,.62,3.46,6.43,6.43,0,0,0,3.12,3.29,21.75,21.75,0,0,1,2.18.93l-4.08,5.81s0,0-.08.11c-.18.43-.45.41-.45.41a17.84,17.84,0,0,0-3,.1,6.53,6.53,0,0,0-4.74,3.6,64.43,64.43,0,0,0-14-.18c-2.89.51-3.58,1.16-4,1.69a3.56,3.56,0,0,0-.78,1.58c-1.06,0-1.29,1.29-1.29,1.29a10.58,10.58,0,0,0,0,1.86c.09,1.09.67,1.15.67,1.15v2.18a1.55,1.55,0,0,0-.78,1.09s0,3.09,0,4.11a2.67,2.67,0,0,0,.36,1.46v1.69a2.17,2.17,0,0,0,0,.24l0,.08c-.38.61-.53.65-.92.8a69.59,69.59,0,0,0-8.32,3.23c-2.38,1.32-2.75,2.81-2.75,2.81V232c0,.1,0,1.49,0,1.63a4.11,4.11,0,0,0,.53,2c1.52,2.46,7.19,4.32,12.52,5.16,6.39,1,8.3,1,19.06.8,10.33-.2,14.93-2.73,16.41-3.83,2.6-1.93,2.68-2.72,2.68-2.8s.09-4.22,0-5.68a3.24,3.24,0,0,0-1-2.17,7.76,7.76,0,0,0-1.68-1.62c-.77-.68-3.82-3-4.25-3.31s-.24-.44-.24-.44l5.51,0c0,.13,0,.21,0,.21.25,3,1.12,4.81,2.1,5.21a4.06,4.06,0,0,0,2.49.18c.25,0,1.09-.18,2.19-1.72s1.19-4.28,1.21-7.46c0-2.54-.37-3.16-.66-3.79A2,2,0,0,0,59,213.15a21.05,21.05,0,0,0-2.86,0,2.83,2.83,0,0,0-1.34,1.26c-.58,1-1,2.63-1.24,3.12a1.22,1.22,0,0,1-1.07.68l-3.11.06a.16.16,0,0,1-.06-.11,8.6,8.6,0,0,0,.62-1.45c0-.05,0-.81.07-1.86a5.89,5.89,0,0,0,3.7-1.1,10.13,10.13,0,0,0,3.37-4.82,11.41,11.41,0,0,0,0-4.65A11.06,11.06,0,0,0,55,199.93c-.38-.44-.63-.71-.74-.83s0-.86-1.64-2.1l-2.11-1.42.75-.75a5.61,5.61,0,0,0,3.12,0,26.93,26.93,0,0,0,6-3.49c.44-.33,1-.76,1.57-1.3,0,.15-.06.26-.07.33-.09.59-.35,4.91,1.85,6.5s4.53,2.06,7.68,2.44a23,23,0,0,0,7-.26,40.59,40.59,0,0,1,7.62-1,66.94,66.94,0,0,0,7.35-.71c.62-.15,1.88-.53,2.47-3.59a8.79,8.79,0,0,0-1.32-6.06c-.35-.74-.5-1-.12-1.79a18.68,18.68,0,0,0,.76-1.88c.24-.35,1.41-4.29,1.5-4.38s.06-1.22.17-1.66c.17-.09.24-.18.25-.28a6.49,6.49,0,0,0,1-.86,21.88,21.88,0,0,0,2-4.68c.21-1,.88-4.94,1.65-7.59s1.12-2.59,1.35-2.59.85,1.21,1.53,3.62,1.38,6,3.73,8.64a40.59,40.59,0,0,0,.53,6,45.41,45.41,0,0,0,1.38,6c.47,1.12.18,1.35.18,1.35l-1,1.56c-.76.94-1.21,3.77-1.21,3.77-1.41,1.18-1.53,3.77-1.44,5.71s1.41,2.88,2.29,3.74,2.94.94,4.74,1a52.06,52.06,0,0,0,7.12-.65,43.93,43.93,0,0,1,4.65-.35,17.32,17.32,0,0,0,4.5-.79c.65-.32,1.74-1.74,2.09-4.21a7.09,7.09,0,0,0-1.24-5.32c-.68-.71-1.5-.88-2.47-1.79s-2.83-2.71-2.88-2.76a.49.49,0,0,0,0-.15c-.21-.53,0-.82.41-2.12s.67-10.12.7-11a3.55,3.55,0,0,0,1.06-.87,10.67,10.67,0,0,0,2.18-7.3,44.85,44.85,0,0,0-.88-7.91,4.3,4.3,0,0,1,.65-1.74c.5-.65.56-6.06.65-6.5,0,0,.38-2.56.79-2.74s2.59-.47,2.82-.56a1.46,1.46,0,0,0,.62-.73,7.65,7.65,0,0,0,.27-2.35c0-1.82.22-4.74.3-5.21a30.24,30.24,0,0,0-.21-3.91,37.65,37.65,0,0,1,.3-4.56c.22-.58,2-2.8,2.62-3.77a15.41,15.41,0,0,0,2-3.11c.3-1,1.4-6.29,1.53-7.72a12.74,12.74,0,0,0-.78-6.39C139.53,105.91,135.58,94.21,135.14,92.46Zm-75,123.6c.47,1,.43,4.05.21,5.74a7.5,7.5,0,0,1-.91,3.19c-.53,1.06-1.19.92-1.19.92-.65-.3-1.17-.87-1.54-2.66a16.59,16.59,0,0,1,0-4.4l.06-.25a5.8,5.8,0,0,1,1.89-3.43C59.1,214.86,59.66,215,60.13,216.06Zm-1.34-2.24c.25,0,.8.11.85.27s-.32.2-.74.27a1.88,1.88,0,0,0-1.14.73A7.6,7.6,0,0,0,56,219.43a12,12,0,0,0,1.07,6.63c0,.2,0,.24,0,.24l-.07,0c-1.05-.75-1.41-2.47-1.63-4.11a12.84,12.84,0,0,1,1.07-6.23C57.31,213.73,58,213.84,58.8,213.81Zm-4,2.39A6.68,6.68,0,0,1,56,214.13a1.29,1.29,0,0,1,.49-.28c.26-.08.48-.08.48,0s0,.1-.16.22c-.93.88-1.89,3.74-2.06,5.56a12.5,12.5,0,0,0,.38,4.85c.4,1.24,1.12,2.23.77,2.1s-1-.55-1.48-1.89a13.57,13.57,0,0,1-.55-4.22A16.11,16.11,0,0,1,54.82,216.2ZM116.7,78.62s-.38-3.65-.29-4.32,1.29-1.62,1.29-1.62h0c.61-.47,1.19-.93,1.73-1.33a17.59,17.59,0,0,0,3.68-4.12c.25-.39.6-1,.94-1.54v.6c.06,3.94-.6,6-2,8.33A10.1,10.1,0,0,1,116.7,78.62Zm-5.16-2.51c.58-.2,1.15-.42,1.68-.64a.43.43,0,0,0-.12.3.5.5,0,1,0,.5-.45h0l.31-.14.45-.22c.69,0,.61.5.61.5l.2,3Zm2.93,3.35a5,5,0,0,1-1,.75,16.45,16.45,0,0,1-4.06,1.46A27.71,27.71,0,0,1,110.55,77Zm-1.63-5.12c-5.35,2.44-13,2.52-13,2.52a30.89,30.89,0,0,1-5.65-.41,23.35,23.35,0,0,1-8.09-4,32.42,32.42,0,0,1-6.65-7.37,24.52,24.52,0,0,1-2.82-6.4,34.65,34.65,0,0,1-1-7.66c0-.69.13-4,.13-4a.53.53,0,0,1,.53-.47l3.12-.13a9.6,9.6,0,0,0,2.63-.63,27.17,27.17,0,0,1,3-.82c1.16-.25,1.15-.41,1.15-.41a5,5,0,0,1-.46-2.93,4.37,4.37,0,0,1,1.12-2.4,6,6,0,0,0,.5-1s.37,1.19.66,2.18,1.24,2.68,1.47,3.27a7,7,0,0,1,.22,1.9c1.06.26,2.66-.26,3.87-.66a25.85,25.85,0,0,1,5.06-.59,31.25,31.25,0,0,1,3.24.06,21.18,21.18,0,0,1,2.69.5A24.17,24.17,0,0,0,109,46a5.28,5.28,0,0,0,4-.85,24.38,24.38,0,0,0,1.63,3.28,29.89,29.89,0,0,0,4.25,4.71,24.66,24.66,0,0,0,2,1.55l.21.16a10.81,10.81,0,0,0,1.66.91c.24-1,1.41-1.16,1.71-1.26s3.81-.69,3.71,2.07a7.92,7.92,0,0,1-2.78,5.31,1.27,1.27,0,0,1-1.22.38c-.22,1.78-1.77,4-2.18,4.68A23.76,23.76,0,0,1,112.85,74.34ZM100,101.84c-.51-.37-1.87-1.35-3.33-2.52,1.71-.47,3.29-.86,3.72-1a9.58,9.58,0,0,0-.13,1.38C100.28,101.17,100.3,101.64,100,101.84Zm-4.87-18.3h-.06a7.56,7.56,0,0,1,.59-1l2.19,2.66c-2.06.86-3.82,1.62-3.82,1.62l-.52.19c.34-.78.76-1.87,1.22-2.85a.48.48,0,0,0,.39.19.43.43,0,1,0,0-.86Zm5-4.68a.56.56,0,0,0,.62-.49.44.44,0,0,0-.18-.34h.35c.4,0,.79,0,1.18,0l-1.4,2.68S98.95,78.81,98.14,78h.18l1.38,0a.44.44,0,0,0-.18.34A.56.56,0,0,0,100.13,78.86Zm-6.38,9c.36-.22,2.48-1,4.75-1.9,1.59,1.92,3.25,3.93,3.32,4S99,91,97,91.9C95.31,89.83,93.75,87.89,93.75,87.89Zm6,9.58a35.44,35.44,0,0,0-3.84,1.23,22.36,22.36,0,0,1-3.59-3.52s1.85-1,4.1-2.11ZM96.34,81.94l.08,0c.43.11,1,.22,1.58.31,1.89.29,4.76.59,5.87.68-1,.31-3,1.12-5,1.94Zm3.65-.27a14,14,0,0,1-4.81-1.55l0-.05,1.66-1.77ZM94.57,79a5.5,5.5,0,0,1,0-1.18.34.34,0,0,1,.29-.23l.81.17ZM95.9,92.35l-.58.27c-1.31.64-2.92,1.4-3.61,1.83.38-2,.9-4.36,1.32-5.89Zm-1.05,6.73-3.24,1.16a3.18,3.18,0,0,1-.47-1.87,15.85,15.85,0,0,1,.31-2.5C91.94,96.34,93.38,97.71,94.85,99.08Zm.63.58c1.16,1.06,2.27,2,2.87,2.46-1.53.05-4.13-.11-5.49-.87a5.86,5.86,0,0,1-.7-.46A25.81,25.81,0,0,1,95.49,99.66Zm2-7.09a38.6,38.6,0,0,1,4.77-2c-.48,1.87-1.12,4.21-1.54,6.18h0C100.57,96.51,99.06,94.57,97.48,92.57Zm2.07-7c2.32-.86,4.53-1.66,4.93-1.79a2.58,2.58,0,0,1,.7-.16l-.11.16a19.58,19.58,0,0,0-2.45,5.3Zm5.41-3.4a32.35,32.35,0,0,1-3.55-.31,3.89,3.89,0,0,0,.73-1.43,8.17,8.17,0,0,1,1.29-2.32,24.18,24.18,0,0,1,2.88,2c.28.25,1.47,1.49,1.8,1.82A16.13,16.13,0,0,1,105,82.21Zm.07-4.54c.74-.12,1.47-.26,2.18-.4a.41.41,0,0,0-.14.31.47.47,0,0,0,.94,0,.43.43,0,0,0-.32-.4c.52-.11,1.07-.24,1.63-.39l-.75,3.48S106,78.25,105,77.67Zm22.33-25.91c.22.38,2.43,3.06,2.75,4.74a17.22,17.22,0,0,1-.06,7.27c-.68,3.82-4.94,7.18-4.94,7.18s-.15-3.47-.06-5.38a6.86,6.86,0,0,1,.69-2.68,8.86,8.86,0,0,1,.93-.94,11.28,11.28,0,0,0,2.07-3.57,4.79,4.79,0,0,0-.1-3,3.65,3.65,0,0,0-2.34-1.69c-1.44-.29-3.25.47-4.15.46a1.8,1.8,0,0,1-1.47-.69c-.93-.91-3.59-2.63-3.71-3.54,0,0-.21-.63.53-.65s4.44.29,4.44.29a13.38,13.38,0,0,1,3.52.44A7.77,7.77,0,0,1,127.36,51.76ZM126.27,35h0s3.07,4.24,3.46,4.74a36.8,36.8,0,0,1,2.94,5.4,59.2,59.2,0,0,1,2,5.88,34.6,34.6,0,0,1,.63,4.43s-.9-1.06-1.47-1.62-2.44-1.47-3.57-3a15.63,15.63,0,0,1-2.13-3.49,12.37,12.37,0,0,1-.76-3.43c-.07-.74-.18-2-.22-3.71a24.72,24.72,0,0,0-.54-3.93A10.48,10.48,0,0,0,126.27,35Zm10.4,28.4c-.06,1.63-.51,2.44-1.34,4.29a10,10,0,0,1-1.8,2.7L132,71.83a26.9,26.9,0,0,1-9.8,5.06s-.75.18-1,.2c.52-.51,3.92-4.22,5.59-6.06a25.2,25.2,0,0,0,4.38-6.5,14.8,14.8,0,0,0,.26-7.94A15.24,15.24,0,0,0,129,51.82a20.51,20.51,0,0,1-1.47-2.93,8.94,8.94,0,0,1-.34-1.72,10.26,10.26,0,0,0,2.13,3.94,16.08,16.08,0,0,1,3.47,4.32,16.28,16.28,0,0,1,.81,5.75,28,28,0,0,1-.21,2.91c-.06.28.82-.41.84-3.1a27.76,27.76,0,0,0-.26-5,9.88,9.88,0,0,1,2,3.1A10.54,10.54,0,0,1,136.67,63.43Zm4.53-8.14,0,.27a15.8,15.8,0,0,1-.38,5.44,14.41,14.41,0,0,1-3.18,5.53l-.36.36c.17-.7.9-4,.13-6.56a36.74,36.74,0,0,1-1.38-5.78,45,45,0,0,0-.94-6.43,18.28,18.28,0,0,0-1-2.65s-.63-1.22.63-.76,3.15,3.09,4.09,4.44a13.94,13.94,0,0,1,2,4.75C141,54.49,141.14,54.94,141.2,55.29ZM129.94,31.52c1.12.94,5.88,4.82,8.18,9.09a21.23,21.23,0,0,1,2.47,8.86,16.29,16.29,0,0,0-2.11-2.91A25.28,25.28,0,0,0,133.79,43a25,25,0,0,1-3.34-3.9c-1.1-1.63-2.53-3.94-2.87-4.44s-.93-1.41-1.21-1.87a37,37,0,0,0-2.74-5.47S128.82,30.58,129.94,31.52Zm-10.83-7.18c3.62,2,4.62,5,5.74,9,0,0,.78,3.28,1,4.72s.21,2.74.24,3.27.14,3.3.17,4.08a1.32,1.32,0,0,0,0,.29s0,.63,0,.66a1.74,1.74,0,0,1-.35,1.39c-.51.47-2.87.5-2.87.5l-5.53,0a3,3,0,0,1-2.24-1.5,3.11,3.11,0,0,1-.54-2.54,15.68,15.68,0,0,1,.91-2.32,10.87,10.87,0,0,0,.81-3.49.38.38,0,0,0,0-.15,24.2,24.2,0,0,0,.28-5.66c-.29-2.65-2.68-8.91-4.41-10.18A15.43,15.43,0,0,1,119.11,24.35ZM96.87,20.67a9.92,9.92,0,0,0-2.71,3.91,12.42,12.42,0,0,0-.68,3.24,19,19,0,0,1,3.27-5.74,4.55,4.55,0,0,1,3.41-2c.88-.12,1.29,0,2.94,1.44s2.27,4.88,2.27,4.88A7.58,7.58,0,0,0,104.15,21c0-.18,0-.54.9-.78a5.41,5.41,0,0,1,4.5.85c1.26,1.06,3.88,3.38,5.41,8.94s.65,8.4.65,8.4a23.07,23.07,0,0,1-1,3.94,4.82,4.82,0,0,1-3.65,2.68,6.56,6.56,0,0,1-3.35-.46,3.25,3.25,0,0,0,.81-.32,7.36,7.36,0,0,0,3.79-4,8.83,8.83,0,0,0,.35-5.21,12.51,12.51,0,0,1-1.68,5.65,6,6,0,0,1-3.29,2.94,3.74,3.74,0,0,1-1.62.43,23.22,23.22,0,0,0-2.82-.75,8.2,8.2,0,0,0,2.07-2,6.34,6.34,0,0,0,.5-2.71c0,.38-.28.72-.87,1.9s-2.53,1.91-4,2.34a56.69,56.69,0,0,1-5.66.74c-1.06.18-4.44,1-4.44,1a6.56,6.56,0,0,0-.57-1.69c-.24-.53-.57-1.38-.75-1.91s-1.75-5.12-1.75-5.12c-.65-3.6-.47-6,.74-8.72a10.75,10.75,0,0,1,5.15-5.3A6.53,6.53,0,0,1,96.87,20.67ZM78.6,30.8c.51-1,1.24-1.85,1.63-2.53s1.82-2.38,1.82-2.38a12.74,12.74,0,0,1,6.4-4,12.29,12.29,0,0,0-4,3.53A4.13,4.13,0,0,0,83.72,28a26,26,0,0,1,2.12-3.15,15.06,15.06,0,0,1,5.24-3.41,4.94,4.94,0,0,1,2.29-.38,10.25,10.25,0,0,0-4.85,3.74,11,11,0,0,0-2.12,5.94c0,1.62.19,5.41.19,5.41a3,3,0,0,1-.65,1.69,6.46,6.46,0,0,0-1.15,2.5,11.29,11.29,0,0,0,0,3.27c.19.78-.41.6-.66.54a5.89,5.89,0,0,1-2.66-2.1c-1-1.4-.47-3.46-.34-4s.46-.91.37-.94-.47.12-.76.65a7.11,7.11,0,0,0-.43,3.6c.25,1.19.94,1.41,1,2.31s-.37,1.06-1,1.54a6.76,6.76,0,0,1-3.65.46c-1.07-.15-.94-.71-.94-.71l0-2.52h0A19.78,19.78,0,0,1,76,39.14c.32-1.79.6-2.88.82-3.84A29.26,29.26,0,0,1,78.6,30.8ZM75.91,34c.06,0,.24-.13.29,0s0,.25-.28.94A40.06,40.06,0,0,0,75,39.7c-.06.59-.07,2.93-.07,2.93.09,1.24.24,2.31.24,2.93a1,1,0,0,1-.47.88,1.35,1.35,0,0,1-1.47-.69s-.34,0-.53-1.66a11,11,0,0,1,.51-4.19A32.13,32.13,0,0,1,74.68,36,6.51,6.51,0,0,1,75.91,34ZM69.23,45.29c.15-.68.57-2.74.71-3.12a19.63,19.63,0,0,1,1.32-3.44,2.44,2.44,0,0,0,.12-.24C71.68,38,73,36,73.25,35.67s.81-1,1-.93a.25.25,0,0,1,.17.19c-.09.17-1.25,2.35-1.51,2.91A14.18,14.18,0,0,0,72,40.69a20.1,20.1,0,0,1-.37,2.87,3.82,3.82,0,0,1-.78,1.38c-.47.59-1.07,1.46-1.43,2a3.89,3.89,0,0,0-.47,1A25.8,25.8,0,0,1,69.23,45.29Zm2.28,18.36s0,.37-.25.4-.81-.76-.81-.76a16,16,0,0,1-1.85-4.84c-.95-3.92-.54-5-.4-5.71a24.44,24.44,0,0,1,1.28-3.46c.28-.53,2.1-3,2.1-3a.47.47,0,0,1,.59-.16,3.37,3.37,0,0,0,.74.94c.35.24.56.34.57.65s-.56,1.07-.9,1.6a7.12,7.12,0,0,0-1.22,3.54c0,.46.09.21.25-.18a10.06,10.06,0,0,1,2.06-3.07,9.69,9.69,0,0,1,1-1.38v0h0c0,.36-.2,2.87-.31,3.65a11.38,11.38,0,0,1-1.1,3.53,14.59,14.59,0,0,0-1.54,4.43C71.66,60.74,71.51,63.65,71.51,63.65ZM74,68.44a12.73,12.73,0,0,1-1.78-4.74s.12-2.89.24-3.63a13.71,13.71,0,0,1,1.62-4c.18-.32.4-1.26.93-.54s.38,4.62.4,5.32a17.26,17.26,0,0,0,.71,4.37c.49,1.26,1.38,3.65,1.93,4.71a47.22,47.22,0,0,0,2.28,4.19C79.91,74.06,75.71,71.47,74,68.44Zm13.68,9.77a16.38,16.38,0,0,1-6.44-4.63A30.76,30.76,0,0,1,78,67.32c-1.12-3.13-.81-3.41-.69-3.46s.24,0,.53.51a26.15,26.15,0,0,0,4.78,6.69c2.54,2.31,5,4.43,9.55,5.78l.83.24c.7.39.6.79.64,1.5a.8.8,0,0,1-.65.9S91.72,79.74,87.71,78.21ZM76.47,133.55a20,20,0,0,1-5.73.41,21.31,21.31,0,0,1-2.56-.19,8,8,0,0,1-2.32-1.45,4.46,4.46,0,0,1-.78-2.31,4.53,4.53,0,0,0-.87-2.49A3.43,3.43,0,0,1,63,125a9.91,9.91,0,0,1,1.44-3.73,22.9,22.9,0,0,1,2-2.63,7.36,7.36,0,0,1,3.88-1.57,16.55,16.55,0,0,1,6,1.2c1.31.7,1.86,1.39,1.86,1.79h0a1.66,1.66,0,0,1-.07.32,2.52,2.52,0,0,1-.33.53h0a1.68,1.68,0,0,0-1.12-.83,8,8,0,0,1-.83-.13,6.9,6.9,0,0,0-2.55-1.29,2.46,2.46,0,0,0-1.48.09,1.17,1.17,0,0,1-.47.27,5.07,5.07,0,0,0-1.41-.21c-.61.08-1.19.27-1.55.3a3.17,3.17,0,0,0-1.6.3,1,1,0,0,0-.31.32c-.4.2-1,1.19-1.26,1.47a6,6,0,0,0-.44,1.66c-.08.34-.69.79-1.07,1.41a1.72,1.72,0,0,0,.58,2.12,3.09,3.09,0,0,0,.79.34c.09.59,0,1,1.31,2.74a6.33,6.33,0,0,0,4.37,2.34c1.46.29,5.35.16,6.58-.55s.52,0,.52,0a6.87,6.87,0,0,1-3,1.39,16.28,16.28,0,0,1-5.5,0,9.58,9.58,0,0,1-2.47-1c-.29-.07.36.64,1.35,1.23s3.39.84,6.11.62a6.28,6.28,0,0,0,3.84-1.39A3.76,3.76,0,0,1,76.47,133.55ZM66.36,127a5.24,5.24,0,0,0,.62,1,4.44,4.44,0,0,0,2.1,1.32,3.73,3.73,0,0,0,1.81.18c.07,0,.18-.12.38-.07a3.36,3.36,0,0,0,1.3.34,1.77,1.77,0,0,0,.74-.31c.12,0,.79.27,1.24.12a6,6,0,0,0,1.3-.63c.26,0,.6.58,1.29.79l.33.08a4.1,4.1,0,0,1-.86.54,16.78,16.78,0,0,1-5.28.74,9.16,9.16,0,0,1-3-1.15,7.39,7.39,0,0,1-1.91-1.61,2.84,2.84,0,0,1-.6-1.44A4.6,4.6,0,0,0,66.36,127Zm-.81-1.21c-.38-.08-1.07-.36-1-.86a1.09,1.09,0,0,1,.87-.89.23.23,0,0,1,.26.09c.06.67.19,1.28.25,1.61l0,.13Zm1.81-.62c0,.45,0,1.35-.19,1.31a3.79,3.79,0,0,1-.75-2.55c-.1-1.95.6-3.06,1.08-3.3s.63.07.56.61-.57,2.09-.71,3.33A2.15,2.15,0,0,0,67.35,125.13Zm6.83-4.21c-.23,1.11-.81,2.48-1,3.12a24.81,24.81,0,0,0-.68,3.26c0,.59,0,.88-.22,1.11,0,0-.41.47-1-.13l0,0a4.53,4.53,0,0,1-.54-2.57,6.94,6.94,0,0,1,.64-2.25,26.21,26.21,0,0,1,.56-2.63c.23-.52.5-1,1.08-1.07S74.42,119.82,74.19,120.93Zm.13,2.25s.24-2.12,1.42-2.15,1.29.61,1.29.61A11.48,11.48,0,0,1,77,123s-.53,1.51-.7,2a22.79,22.79,0,0,1-1,3.28c-.3.37-1.07.92-1.67.34A31.56,31.56,0,0,1,74.32,123.17ZM71,120.7c-.2.88-.76,3-.89,3.61a5.81,5.81,0,0,0-.15,1.92,9.92,9.92,0,0,0,.18,2.18s-.07.24-.84.09-.95-.67-1.15-1.89c0,0,0-2.54.21-3.6s.51-2.81,1.23-3.26A.91.91,0,0,1,71,120.7ZM76.87,128l.11-.68,2.08.18-.14.75a1.37,1.37,0,0,1-1.43.72C76.65,128.87,76.87,128,76.87,128Zm.25-1.55a1.24,1.24,0,0,1-.27-.09c-.12-.06.24-1.29.42-1.3l.3,0,1.69.19s.18.13.09.71l-.11.62Zm.3,15a.34.34,0,0,0,0-.13l0-.4L80,126.46a1.23,1.23,0,0,1,1.36-1.15c1.35,0,10.33,1.09,10.33,1.09s.56.16-.15,1.36-9.59,15.66-9.59,15.66a1.92,1.92,0,0,1-.85.59,1.07,1.07,0,0,1-.45.09,8.51,8.51,0,0,1-2.81-.59A2.45,2.45,0,0,1,77.41,141.37ZM124.5,118.9c-.71-1-1.39-2.4-2.93-3s.1-.52.47-.41a14.88,14.88,0,0,1,7.52,3.91c3.6,3.36,3.86,8.74,3.7,10s-.06,2-1.78,3.11a9.5,9.5,0,0,1-2.07,1.15c-.5.06-.64-.21-.55-1.51s-.2-3.61-.24-5.5-.64-2.08-.82-2a13.48,13.48,0,0,0,0,2.84c0,1.29.27,4.85-.47,6.21s-1.21,1.71-2.4,1.89a5.28,5.28,0,0,1-2.84-.38c-.29-.21,0-1,.33-2a12.55,12.55,0,0,0,.44-4.62c-.17-1.6-1.1-6.77-3.15-9.23a6.48,6.48,0,0,0-4.26-2.56s-1.46,0-1.66-.41.3-.71,1.42-1a6.35,6.35,0,0,1,3-.09c.5.15,3.82,1.51,4.62,2.52a16.92,16.92,0,0,0,2.57,2.75C125.65,120.57,125.21,119.9,124.5,118.9ZM113.93,118l.06,0a6.36,6.36,0,0,1,2.72.3c1.62.54,3.45,3.45,4.13,5.24a20.75,20.75,0,0,1,.69,6.37c-.08.9-.3,1.05-1.2,1.66a5.49,5.49,0,0,1-2.77.87c-.43-.07,0-.55.2-1.71a15.13,15.13,0,0,0-.49-6.61,7,7,0,0,0-3.31-4.61c-.79-.48-2-.42-1.6-.81A4.73,4.73,0,0,1,113.93,118Zm7,15a2.43,2.43,0,0,1-1.53,1.11,2.91,2.91,0,0,1-1.82-.58S120.91,133,120.91,133Zm-7.4-12.17a5.33,5.33,0,0,1,1.63,1.85,8.9,8.9,0,0,1,1.55,5.64,3.51,3.51,0,0,1-1.24,2.91c-1.61-.57-1.51-3.31-1.51-3.31l-1.58.73a4.6,4.6,0,0,0,.73,1.55,27.34,27.34,0,0,0,2.86,3.48,28.22,28.22,0,0,0,4,2.46c1.64.75,2.71.65,5.13.27s2.65-1.22,2.91-1.44.51-.06,1.11-.2a20.45,20.45,0,0,0,2.39-1,4.29,4.29,0,0,0,2.32-2.41l.08-.2a11.61,11.61,0,0,0,0,1.67c0,1.53,0,3.57,0,3.57s.21.64-1.6.89-23.31.77-26,.65-4.71-.33-4.71-.33l-1.66-.09a4.78,4.78,0,0,1,.89-1c.49-.38.84-.16,1.63,0s3.51,1.44,4.38,1.39,1.33-.46.06-1.15-5.1-2.18-6.1-2-2.07,1.48-2.6,1.86a1.06,1.06,0,0,1-.89.27l-5.74-1.39,1.7-2.29.12.06,3.7,1.24a1.06,1.06,0,0,0,1.15-.19c.37-.43.37-.76.34-.81s-.46-.32-1-.63l-.45-1.07s-1-.52-1.18-1.15a21.62,21.62,0,0,1,.75-5,5,5,0,0,1,3-2.71c1.49-.33,9.84-2.12,11.45-2.13A20.87,20.87,0,0,0,113.51,120.79ZM88.63,140h0l1.16-1.86,1.52.2s5.32.6,6.33.67a1.45,1.45,0,0,0,.83-.18l-1.75,1.75-.39.51c-1.8,1.9-3.82,4.23-4.13,5.33A66.66,66.66,0,0,1,88.63,140Zm2.56,6.88c-1.5-.13-3.3-.28-3.85-.37s-3.46-.19-5.6-.24a8,8,0,0,1,.71-.49l1.78-1.16a10.77,10.77,0,0,0,2.29-1.27,7.84,7.84,0,0,0,1.31-2l.09-.14Zm-1.64-9.4c-.91-.3-.88-.6-.88-.6l.4-1.15s.21-.28.75-.12c.36.1.93.24,1.29.37,1.6.37,6,1.64,6.63,1.62s2-1.63,2.63-2.19,1.81-.15,1.81-.15,3.65,1.49,4.29,1.83.5.38,0,.36-3.58-1.63-4.5-1.89-.9.1-1.39.33a13.92,13.92,0,0,0-2,2.16,3.84,3.84,0,0,1-2.55.33C94.3,138.12,90.24,137.68,89.55,137.45Zm7.55,4.41h0l3.25-3c.31.83,3.43,6.2,3.43,6.2.36.61.7,1.16,1,1.56a11.6,11.6,0,0,0,1.77,1.91c-.18,0-.91-.06-.91-.06l-6.47-.79s-5.24-.44-5.82-.56l-.45-.06C93.1,146.72,95.09,144.19,97.1,141.86Zm8.24,3.36-3.8-6.62s8.32.3,9.26.27,1.23,0,1.18.3a65.48,65.48,0,0,1-3.34,5.65.8.8,0,0,0-.12.2c-.35.6-.68,1.16-.89,1.53-.65,1.18-.85.85-.85.85A16.57,16.57,0,0,1,105.34,145.23Zm2.18,3.08a34.69,34.69,0,0,0,2.16-3.25s3-4.22,3.39-4.59.56-.46,1,.18,3.3,4.37,3.61,4.84l0,0,1.06,1.36s-3.09.32-4.06.5-6.3,1-6.3,1S107.2,148.52,107.52,148.31Zm-9.81-14.7c.21.19-.08.48-.34.48s-3.5-1.29-3.5-1.29l-.21-.09L92.28,132a.33.33,0,0,1-.12-.39c.12-.24.37-.22.59-.13l1.38.72S97.51,133.42,97.72,133.61Zm-2.44-2.55h0Zm-.22-1.6A6.41,6.41,0,0,0,93.24,131s-.08-.18-.58-.28a.94.94,0,0,0-.93.43c-.34.54-.37,1,.36,1.62L92,133s-1.34,2.13-1.41,2.15-.77-.5-1.37-.31-.62.61-.94,1.18c-.42,1.37,0,1.45,0,1.45l.7.31s-2.76,4.68-3.26,5.15-2.57,2-2.37.85c0,0,8.33-14.72,8.85-15.21a3.37,3.37,0,0,1,2.49-1.24l.83,0A13.8,13.8,0,0,0,95.05,129.46ZM78.07,146a1.47,1.47,0,0,1,1.3-.65c.83.09.53.89.36,1.66-.13.56-.67,2-.95,2.7-1.31-.44-2.58-.79-2.66-.81ZM46.49,196.92l2.33-3.24,1.3.51a33,33,0,0,0-2.05,3.63s-.18.28-.41.28a2.17,2.17,0,0,1-1-.62A.58.58,0,0,1,46.49,196.92Zm-1,1.39.48-.66c0,.47.5.65.92.91a1.06,1.06,0,0,0,.66.22l-.3.55c-.14.11-.43.31-.66.25a2.63,2.63,0,0,1-.89-.52A.78.78,0,0,1,45.49,198.31Zm-1.82,1.94.8-.84c.31-.18.36-.06.36-.06s1,.58,1.39.75a.77.77,0,0,1,.41.49L46.32,202a.6.6,0,0,1-.44.1,3.94,3.94,0,0,1-2-1.11C43.45,200.5,43.67,200.25,43.67,200.25Zm.63,2.59a2.26,2.26,0,0,0,1.76.28,21.46,21.46,0,0,0-.83,3.27c-.06.92.41.87.41.87s.84.19,1.83.49c.18.14.55.4.45.63s-3.65,3.5-3.74,3.57-.57.27-.67-.16a2.64,2.64,0,0,1-.07-.71s0-.41.31-.44a.7.7,0,0,0,.65-.7c0-.47,0-2.25,0-2.25s-.12-.76-1.7-.68c0,0,.07-.59,0-.93s-.32-.56-.81-.74-.74-.35-.75-.61A30.89,30.89,0,0,1,43,201.58C43.23,202,43.21,202.29,44.3,202.84Zm-4.54,1.67s-1.21-.36-1.45-.43-.16-.21-.16-.21a5,5,0,0,1,1.3-1.27,2,2,0,0,1,1.88-.18.17.17,0,0,1,0,.16l-1.16,1.82A.39.39,0,0,1,39.76,204.51Zm.35,0,0,.06h0Zm-3.6-1.23a5.8,5.8,0,0,1,1.27-1.53c1.13-1,3.32-1.13,4.05-1.14s.67.34.67.34l-.24.3a1.16,1.16,0,0,1-.7.24c-.49,0-.86,0-.86,0a4.6,4.6,0,0,0-2.57,1.23A4.89,4.89,0,0,1,37,203.88a.41.41,0,0,1-.59-.12C36.4,203.61,36.59,203.23,36.51,203.31Zm-17.94,1.87c.55-.64,2.42-1.12,3.94-1.27a72.74,72.74,0,0,1,11.84.22,23.34,23.34,0,0,1,5.21,1.09v0l.11,0c.63.21,1.13.43,1.21.71s-.34.55-.34.55A24.21,24.21,0,0,1,34,207.62a48,48,0,0,1-9-.3,25.81,25.81,0,0,1-5.52-1C18.77,206.11,18,205.82,18.57,205.18Zm-1,1.33c.09.09,2,.53,3.46.95a78.51,78.51,0,0,0,9.8,1,44.57,44.57,0,0,0,9.17-.8c1.21-.4,1.64-.81,1.7-1v.87s.08.36-.47.73a8.23,8.23,0,0,1-1.91.83.13.13,0,0,1-.07,0,6.51,6.51,0,0,1-.21-.73c-.09-.25-.55-.1-.78-.09s-2.65.41-4.05.47-3.94.06-4.59.09-.65.36-.65.36v.58a.54.54,0,0,1-.51.22c-1.12-.06-2.24-.14-3.33-.25-.14-.08-.11-.4-.11-.75s-.07-.53-.44-.61-2-.16-3.09-.36-2.56-.64-2.87-.7-.41-.13-.71,0-.06.71-.22.74-.25-.41-.27-.34C17.34,207.18,17.49,206.42,17.58,206.51Zm20.82,2.75a.72.72,0,0,1-.24.15,24.31,24.31,0,0,1-4.49.58c-1.1,0-2.36.05-3.66,0-.25-.08-.31-.19-.24-.43a.44.44,0,0,1,.41-.28s1.69.06,4.13-.09,3.68-.47,4-.43S38.57,209.09,38.4,209.26Zm-14,.29a.1.1,0,0,1-.07,0,26.59,26.59,0,0,1-5.66-1.11l-.07,0-.22-.06c-.18-.13-.12-.23-.09-.38s.13-.36.58-.18a17.72,17.72,0,0,0,3.09.71c1.05.13,2.25.14,2.35.22A.72.72,0,0,1,24.35,209.55Zm-8.09-.94c0-.93.38-.87.38-.87,0,.86,1.67,1.39,1.67,1.39a17,17,0,0,0,3.74.93,49.21,49.21,0,0,0,11.6.52,20.05,20.05,0,0,0,7.64-1.42c1.86-.91,1.69-1.05,1.73-1.18s.31-.09.31.31c0,.57,0,1.18,0,1.18s0,.33-.86.62a38.61,38.61,0,0,1-10.88,2.23c-5.48.24-12.08-.84-14.62-1.94-.73-.32-.76-.84-.76-.84Zm26.25,4.44a1.07,1.07,0,0,1-.43.8c-1.94,1.56-6.49,2.64-9,2.84a49.33,49.33,0,0,1-10.68-.48A18,18,0,0,1,18.59,215l-.17-.08c-1.44-.69-1.57-1.32-1.6-2.29s0-1.38.37-1.41a4.52,4.52,0,0,1,1.29.44c2,.82,2.84,1,6.41,1.35a46.8,46.8,0,0,0,9.41,0,60.36,60.36,0,0,0,7.47-1.61c.56-.17.7-.13.74.19S42.51,213.05,42.51,213.05ZM53,230.26a4.48,4.48,0,0,0,.63-.89.21.21,0,0,1,.31.09s.4,3.31-.12,4.65a5.41,5.41,0,0,1-2.9,2.89A27.29,27.29,0,0,1,40,240.17c-5.21.31-14.21,1.08-22.55-.44-7.35-1.34-10.54-3.37-11.56-4.22a2.83,2.83,0,0,1-1.1-1.69s-.27-3.18-.24-3.79.5,0,.74.12a14.69,14.69,0,0,0,4.62,2.72c6,2.13,13.85,2.78,19.93,2.75a70.24,70.24,0,0,0,14.56-1.69C49.8,232.94,52.2,231.15,53,230.26Zm-2.13-4.53c1.57,1.17,1.75,1.85,1.75,2.59s-.73,1.48-2.07,2.37A22.35,22.35,0,0,1,43.69,233a94.66,94.66,0,0,1-14.83,1.39c-2.64,0-11.55-.58-15.45-1.66s-5.24-1.62-6.29-2.37-1.66-2-1.21-2.87a5.45,5.45,0,0,1,2.37-1.82c.44-.2,5.79-1.95,6.7-2.29a1.45,1.45,0,0,1,1.37.22,5.68,5.68,0,0,0,.65.37c3,1.27,7.81,2.69,16.87,1.78,7.86-.79,10.17-1.93,11.31-2.64h.05a3.73,3.73,0,0,1,1.86-.21C48,223,49.3,224.56,50.87,225.73Zm-34.28-4.38c0-.47.15-.6.33-.57,0,.44,0,1.12,0,1.22a.38.38,0,0,0,.33.42c.28,0,.34-.33.37-.44s0-.53,0-1l.21.07c0,.48,0,1.29,0,1.42a.41.41,0,0,0,.33.46c.28,0,.34-.36.37-.48s0-.65,0-1.15h0l.28.09c0,.44,0,1.42,0,1.56a.41.41,0,0,0,.33.46c.28,0,.34-.36.37-.48s0-.8,0-1.34l.39.1c0,.45,0,1.39,0,1.53a.4.4,0,0,0,.33.45c.28,0,.34-.36.37-.48s0-.81,0-1.35l.46.09c0,.43,0,1.5,0,1.64a.42.42,0,0,0,.33.47c.28,0,.34-.38.37-.5s0-.93,0-1.49l.44.07c0,.3,0,1.55,0,1.7a.41.41,0,0,0,.33.46c.28,0,.34-.36.37-.48s0-1,0-1.57l.4.05a.14.14,0,0,0,0,0s0,1.58,0,1.76a.4.4,0,0,0,.33.45c.28,0,.34-.36.37-.48s0-1.23,0-1.7l.46,0c0,.32,0,1.59,0,1.75a.42.42,0,0,0,.33.47c.28,0,.34-.38.37-.5s0-1.12,0-1.66l.54,0v0s0,1.6,0,1.77a.41.41,0,0,0,.33.46c.28,0,.34-.36.37-.48s0-1.25,0-1.72l.45,0a.13.13,0,0,0,0,.07s0,1.58,0,1.76a.4.4,0,0,0,.33.45c.28,0,.34-.36.37-.48s0-1.36,0-1.77h.37c0,.12,0,1.64,0,1.81a.42.42,0,0,0,.33.47c.28,0,.34-.38.37-.5s0-1.3,0-1.78h.45a.14.14,0,0,0,0,0s0,1.59,0,1.76a.41.41,0,0,0,.33.46c.28,0,.34-.36.37-.48s0-1.37,0-1.78h.47a.14.14,0,0,0,0,0s0,1.58,0,1.76a.4.4,0,0,0,.33.45c.28,0,.34-.36.37-.48s0-1.4,0-1.79l.34,0c0,.4,0,1.54,0,1.68a.42.42,0,0,0,.33.47c.28,0,.34-.38.37-.5s0-1.18,0-1.7l.45,0c0,.18,0,1.58,0,1.75a.41.41,0,0,0,.33.46c.28,0,.34-.36.37-.48s0-1.35,0-1.77l.46,0c0,.21,0,1.57,0,1.73a.4.4,0,0,0,.33.45c.28,0,.34-.36.37-.48s0-1.36,0-1.77l.34,0c0,.4,0,1.53,0,1.68a.42.42,0,0,0,.33.47c.28,0,.34-.38.37-.5s0-1.23,0-1.73l.47-.06h0s0,1.59,0,1.76a.41.41,0,0,0,.33.46c.28,0,.34-.36.37-.48s0-1.49,0-1.84l.46-.06v0s0,1.52,0,1.68a.39.39,0,0,0,.33.44c.28,0,.34-.35.37-.46s0-1.48,0-1.77l.35-.05c0,.19,0,1.52,0,1.68A.39.39,0,0,0,38,224c.28,0,.34-.35.37-.46s0-1.41,0-1.76l.46-.07c0,.42,0,1.45,0,1.59a.41.41,0,0,0,.33.46c.28,0,.34-.36.37-.48s0-1.19,0-1.68l.45-.08c0,.36,0,1.42,0,1.56a.39.39,0,0,0,.33.44c.28,0,.34-.35.37-.46s0-1.23,0-1.66l.35-.06c0,.36,0,1.32,0,1.45a.37.37,0,0,0,.33.41c.28,0,.34-.33.37-.43s0-1.15,0-1.56l.35-.07c0,.21-.13,1.61.28,1.58s.36-1,.36-1,0-.39,0-.64c.38,0,.41.25.4.49a2.78,2.78,0,0,1-.41,1.42,2.64,2.64,0,0,1-.62.41,24.64,24.64,0,0,1-6.49,1.25c-1,.16-7.85,1-12.5,0s-6.34-2.09-6.42-2.23A4.31,4.31,0,0,1,16.58,221.35Zm29.92-.93a11.64,11.64,0,0,1-2.29,1.9c-.35.18-.35-.11-.35-.11a7.42,7.42,0,0,0-.09-1.86c-.18-.67-1.15-.29-1.64-.22a69.78,69.78,0,0,1-13.85,1.64C22,221.68,19,220.55,19,220.55l-.14,0a16.08,16.08,0,0,1-1.51-.6c-1-.52-.95-1-.95-1s0-3.31,0-3.92.78,0,.78,0a3.77,3.77,0,0,0,1.26.8v0A18,18,0,0,0,24,217.36a34,34,0,0,0,9.42.13c5.19-.5,7.67-1.82,8.59-2.41l1.07-.68c.67-.47,1.63-1.49,2.43-2.15s3.12-2.84,3.12-2.84.54-.51.58.18a1.28,1.28,0,0,0,0,.15c0,1.76,0,6-.12,6.61A14.84,14.84,0,0,1,46.5,220.42ZM49.39,219c.41,0,3.94,0,3.94,0s-.1.92-.12,1.54h0l-5.37.14a9.6,9.6,0,0,0,1-1.52A1,1,0,0,1,49.39,219Zm-.55-11.84c-.75-.16-2.73-.16-2.66-.67a36.21,36.21,0,0,1,1.29-5.55,22.64,22.64,0,0,1,1.19-2.22,25.28,25.28,0,0,0,3,1.74c.4.06.51.2.88.21,0,0,0,0,0,.06s2.27,3.13,2,5.6a7.48,7.48,0,0,1-2,4.79,4.29,4.29,0,0,1-2.41,1.08c0-1,0-1.9,0-2.64C50.13,207.05,49.6,207.27,48.84,207.12ZM54,199.9a10,10,0,0,0,.74,1,10.57,10.57,0,0,1,1.76,5.21c-.07,1.83-.16,3.31-1.33,4.82a7.66,7.66,0,0,1-3.11,2.63,3.56,3.56,0,0,1-2,.45c0-.36,0-.75,0-1.14l.36-.07a5.91,5.91,0,0,0,2.71-1.23,8.41,8.41,0,0,0,1.7-8.26,15.72,15.72,0,0,0-1.53-2.83A1.29,1.29,0,0,0,54,199.9Zm-1-1.35s.55.71-.14.93-3.42-1.6-3.65-1.75c.38-.63.67-1.08.67-1.08A8.69,8.69,0,0,1,53,198.55Zm2.44-5.26a6.74,6.74,0,0,1-4.08.18,31.29,31.29,0,0,1-5.07-1.91c-1.7-1-3.06-2.26-3.27-5.48S46.1,176,47.35,173.65,59.33,151.22,61,150s4.76-1.6,7.81-1.07,9.44,1.39,12,2.78a5.26,5.26,0,0,1,2.84,5.5c-.3,1.6-1.66,3.85-4.5,9.23S69.07,181,66.46,184c-.33.38-.71.8-1.12,1.24A6.67,6.67,0,0,0,63,187.63C60.3,190.2,57.16,192.79,55.46,193.3Zm24.21-20.36a28.06,28.06,0,0,1,.15,3.14s0,.07,0,.11l-.09,3.86v0a7.24,7.24,0,0,0,.18,2c.26,1.26.47,2.53.56,2.74-.06.73-1,.78-1.71.72l-.25,0-.4-.07.16,0a17.52,17.52,0,0,1-3-.75,17.33,17.33,0,0,0-8-.19c1.63-1.88,3.46-4.12,5.46-6.75s3.91-5.51,5.55-8.19h0A24.54,24.54,0,0,0,79.66,172.93Zm8.62,12a48.66,48.66,0,0,1-6.53.38s0,0,0,0a16,16,0,0,1-.6-3.37,14.23,14.23,0,0,0,9,2.61Zm5.56-.61h.06c-.12,1.68-1.29,3.27-4.06,3.77s-6.06-1-6.06-1a4.06,4.06,0,0,0-.76-.63,60.38,60.38,0,0,0,6.46-.43A8.34,8.34,0,0,0,93.84,184.35Zm-13-4.86-.18-3s2.18,4.06,10.71,4.09h.17a15.88,15.88,0,0,1-5.67.55A10.46,10.46,0,0,1,80.84,179.49Zm.27,7.73h0s.83.4,1.77.83l-2.65.08a7.49,7.49,0,0,0-1.55-1.87h0ZM68,188.38a6.2,6.2,0,0,1,1.22-1.8c.73-.63,1.06-1.22,1.6-1.48h.36a9.06,9.06,0,0,1,2.13,2.65c.38.71.35,1.18-.09,1.5s-3.74.29-4.62,0-.59-.85-.59-.85ZM64,188a3.46,3.46,0,0,0,2.19,1.69,4.35,4.35,0,0,0-.19.73,17.85,17.85,0,0,0-.2,2.89.54.54,0,0,1-.72.2,4,4,0,0,1-1.56-1.5,4.55,4.55,0,0,1-.42-1.54A7.65,7.65,0,0,1,64,188Zm.64,7.6a4.8,4.8,0,0,1-1.47-2.2A3.88,3.88,0,0,0,66,195.09a5.12,5.12,0,0,0,.41,1.55A6.45,6.45,0,0,1,64.69,195.64Zm.55-8.9.46-.5a8.22,8.22,0,0,1,3.48-1.05,19.84,19.84,0,0,0-2.38,3.28A1.81,1.81,0,0,1,65.24,186.74Zm2.1,6.75a8.72,8.72,0,0,1-.26-2.32.94.94,0,0,1,.79-.92s2.29.41,3.21.44c.58,0,1.79-.06,2.78-.13a12.86,12.86,0,0,1,.37,3v.11a1.19,1.19,0,0,1-1.08.63C72.07,194.41,68.13,194.55,67.34,193.49Zm6.85,4.21c-.15.32-.26.47-.94.5h-.09a25.64,25.64,0,0,1-4.8-.87,9.82,9.82,0,0,1-.78-2.2s4.25.45,6.66.53A10.42,10.42,0,0,1,74.19,197.7Zm.47-9.56c-.43-1-1.11-2.34-1.39-2.89,1.21.14,2.32.33,3.21.51a6.39,6.39,0,0,1,2.45,2.08c.38.47,0,.65,0,.65s-1.41.21-1.94.21S75.22,189.46,74.66,188.14Zm.65,2.3a21.17,21.17,0,0,1,3-.71c.44,0,.94,0,1.42,0A.93.93,0,0,1,80,190,6.24,6.24,0,0,1,81,193s-.06.79-1.82,1.12-3.06.41-3.53.06h0c0-.69,0-1.27-.05-1.53A12.34,12.34,0,0,0,75.31,190.44Zm5.53,5.93a2.78,2.78,0,0,1-1,1.15,36.77,36.77,0,0,1-4.21.71h-.08c0-.49,0-1.52,0-2.58,1.76-.1,4-.35,5.44-.51A2.27,2.27,0,0,1,80.84,196.38Zm5.12-.74a1.67,1.67,0,0,1-.35.88l-.92.09c-.88.1-1.79.27-2.72.46a2.93,2.93,0,0,0,.6-2.23,15.38,15.38,0,0,1,3.15-.7l.27,0A5.48,5.48,0,0,1,86,195.64Zm.21-3h0c0,.09-.22.72-1.62.7s-2.09-.06-2.44-.41a5,5,0,0,0-.29-2,10.25,10.25,0,0,0-.65-1.28l.24-.07A22.85,22.85,0,0,1,85,189.2a4.19,4.19,0,0,1,1.21,2.41C86.4,192.44,86.16,192.67,86.16,192.67Zm1.29-3.49a16.13,16.13,0,0,1,1.65,0,2.56,2.56,0,0,0,.59,0h.05l.19.13a15.71,15.71,0,0,1,1.26,2.29.79.79,0,0,1-.45.85,9.07,9.07,0,0,1-1.91.27,4.38,4.38,0,0,1-1.37-.24,11,11,0,0,0-.49-3.11A.68.68,0,0,0,87.45,189.18Zm3.62,6.4a1.31,1.31,0,0,1-1.26.76h0c-.76,0-1.68,0-2.63.07a11.18,11.18,0,0,0,.23-2.36c1.3,0,2.82-.08,3.88-.15v0A4.56,4.56,0,0,1,91.08,195.58Zm3.06-1c-.59,1.5-1.51,1.71-2.09,1.73a7.74,7.74,0,0,0,.59-2.59h0a5.77,5.77,0,0,0,1.89-.47A7.56,7.56,0,0,1,94.14,194.61Zm.48-4c-.11.38-.47.87-1.51,1.21l-.66.21a6.15,6.15,0,0,0-1.33-3.11,5.29,5.29,0,0,0,1.54-.71c.71-.56.82-.65,1.5.79A5.57,5.57,0,0,1,94.61,190.61Zm-.18-7.32c-.32.26-4.12.32-6.91-.15a13.4,13.4,0,0,1-4.86-1.54,33.25,33.25,0,0,0,9.39,0,6.91,6.91,0,0,0,3.15-1.08h0A11.73,11.73,0,0,1,94.43,183.29Zm1.24-4.68c-.09.47-.09,1.21-2.15,1.15s-6.88,0-9.59-1.62-2.59-2.53-2.59-2.53,0-.18.21-.13a8.6,8.6,0,0,0,2,1,34.71,34.71,0,0,0,11.88,1.7h0S95.75,178.14,95.67,178.61Zm6.12-17.09A68.92,68.92,0,0,0,99.31,169c-.35,1.79-.88,5-2,6.09s-1.32,1.18-2.18,1.35c0,0-1.38.62-2.21.12s-.26-.94-.09-1.47a10,10,0,0,0,1.59-5.38,2,2,0,0,0-.24-1.06s-.88,5.65-3.82,7.3-6.47-.71-7.18-1.35-1.5-4.65-1.12-5.88a3.19,3.19,0,0,0-.5,2.47s.47,1.41,0,1.62-1.35-.21-2.06-2.56c-.1-.34-.25-1.59-.33-2.16,2.46-4.14,4.24-7.63,4.92-8.95a5.88,5.88,0,0,0,.41-4.86c-.28-1-2.38-3.05-3.35-3.57a13,13,0,0,0-1.52-.65c.22-.56.64-1.61,1-2.34.27-.1.61-.18.79-.24l2.39-.11c1.06-.06,6.56.21,9,.5l.74.1a11.65,11.65,0,0,1,7.44,5.78C103.61,158.58,102.28,160.22,101.78,161.52Zm8.33,15.27c4.23,3,10.38,2.41,10.38,2.41-3.67,1.08-9.19.45-10.49.27A14.76,14.76,0,0,1,110.11,176.79Zm15.24-.5c0,.06,0,.29,0,.61-.91,1.57-3.87,1.54-3.87,1.54-6.75-.1-10.26-2.12-11.08-2.66l.14-.2a8.82,8.82,0,0,0,1.93.72,27.74,27.74,0,0,0,10.91-.79c.56-.2,1.06-.39,1.49-.57C125.46,175.24,125.32,176.07,125.35,176.29ZM110.2,181.4l0-.24c.57.55,1.79,1.22,5.3,1.74s8.18-.56,7.91-.32-1.29,1-4.29,1.56a37,37,0,0,1-8.27,0A20,20,0,0,1,110.2,181.4ZM114,191.64c1-.22,2.51-.48,4.19-.67a5.26,5.26,0,0,1,1.07,1.9l0,.1-3.05.16a19.91,19.91,0,0,0-3.32.55l.05-.19A5.3,5.3,0,0,1,114,191.64Zm.12-3.63c.63-.1,1.44-.19,2.54-.28a7.76,7.76,0,0,0,.49,2.08,32,32,0,0,0-3.35.69A8.06,8.06,0,0,1,114.15,188Zm5.05,1.54-.76.09-.09-.09a8.14,8.14,0,0,0-.49-1.92l.66-.05a18,18,0,0,1,2.16,0c.23.34.84,1.23,1.15,1.83C121.07,189.4,120.2,189.45,119.2,189.55Zm-1.44-3.24c-2.88.09-5.91.53-5.91.53s-.25-.49-.56-1.31c.62.13,1.92.38,3,.48,1.47.15,4.27-.12,5.62,0s3.34.51,3.69.58l-.07.19A29.89,29.89,0,0,0,117.76,186.32Zm2.74-1.38a9,9,0,0,0,4.08-1.6c-.17.73-.39,1.48-.59,2.09A19.43,19.43,0,0,0,120.49,184.93Zm-10.18,5.56c.12-1,1.73-1.83,2.27-2.09l.39-.13a4.62,4.62,0,0,0-.24,1.87l.08.66a13.73,13.73,0,0,0-1.65.62C110.74,191.46,110.18,191.55,110.32,190.49Zm-.82,2.82a8.27,8.27,0,0,1,3-1.26l-.06,0,.08,0,0,.07a3.37,3.37,0,0,0-1,2l-.92.28a5.24,5.24,0,0,1-2.28.25A4.79,4.79,0,0,1,109.49,193.32Zm-1.44,3.29c0-.08,0-.16,0-.26.68-.63,2.93-.89,3.38-.94.05.94.15,2.09.32,3.17a8,8,0,0,1-2.06-.17c-.69-.25-1.27-.11-1.71-1.27A3.29,3.29,0,0,0,108.05,196.61Zm.15,2.56-.1-.2a6.7,6.7,0,0,0,2.4.58c.53.05,1,.14,1.5.22a5.28,5.28,0,0,0,.82,2.05C109.9,201.35,108.65,199.94,108.2,199.17Zm11.56,1.53a1.52,1.52,0,0,1-.95,1c-.74.08-1.68.16-2.91.23h-.1a4.64,4.64,0,0,1-2-1.86l-.06-.09a9.8,9.8,0,0,0,1.88-.05c1.84-.22,3.45-.45,4.13-.51C119.9,199.64,119.88,200,119.76,200.7Zm.18-3c-.15.79-.71.5-1,.53s-3.59.59-4.56.56a7.29,7.29,0,0,1-1.26-.14,8.5,8.5,0,0,1-.38-3.51c.69-.62,5.73-1.23,6.44-.88a1.15,1.15,0,0,1,.62.82v0A13.4,13.4,0,0,1,119.94,197.67Zm.56-5a1.55,1.55,0,0,0-.29-1.12,6.39,6.39,0,0,0-.6-.74l1.36-.08c.88,0,1.65,0,2.33,0a3.69,3.69,0,0,1,1.42,1.93c-.93,0-1.95.09-2.19.09s-1.46.1-2,.15C120.52,192.78,120.49,192.7,120.49,192.7Zm4,8.35c-1,.09-1.93.15-2.4.15a5.68,5.68,0,0,0-1.24.22,3.71,3.71,0,0,0,0-2c1.3-.08,3.61-.26,4.14-.37.21,0,.59-.1,1-.16C126,199.74,125.06,200.62,124.51,201.05Zm1.6-3.62h0a8.42,8.42,0,0,1-3.24.46,7.71,7.71,0,0,0-2.06.09s-.09-2.17-.13-3.37c.65-1.22,2.95-1.16,3.51-1.1a1.58,1.58,0,0,1,1.65,1.12A10.71,10.71,0,0,1,126.11,197.44Zm3.91,1.79c-.74,1.24-2.53,1.32-3.32,1.53a17.64,17.64,0,0,0,.44-2c.74-.09,1.47-.16,1.82-.17a4.23,4.23,0,0,0,1.59-.43A6.48,6.48,0,0,1,130,199.23Zm.85-3.85q0,.13,0,.26a1.92,1.92,0,0,1-1.43,1.33,12.13,12.13,0,0,1-2.24.25,20.77,20.77,0,0,0-.47-3.25l1.71.12a6.66,6.66,0,0,1,2.36.73C130.84,195,130.86,195.17,130.88,195.38Zm-.6-2.52a30.69,30.69,0,0,0-4-.19h0a7.76,7.76,0,0,0-.83-1.78,8.49,8.49,0,0,1,2.07.45l-.07-.1C129.36,191.89,129.91,192.36,130.28,192.86Zm-4.14-3.1a11,11,0,0,0-2.94-.39c-.16-.4-.47-1.21-.68-1.63a8.15,8.15,0,0,1,2.45.75A2.31,2.31,0,0,1,126.14,189.76Zm-.62-9.67.07-.39s-.44,1.85-4.62,2.27a21.91,21.91,0,0,1-8.15-.94s1.68.15,5,.09,6.44-2,7.18-2.27a.53.53,0,0,1,.57.1l0,.76A1,1,0,0,1,125.52,180.09Zm2.77-19.63a21.42,21.42,0,0,1,.24,8.24c-.53,2.27-1.35,3.74-3.12,4.32,0,0,1.62-4.38.62-7.3a33,33,0,0,1-.76,3.27c-.44,1.44-1.38,5.35-4,5.85a17.75,17.75,0,0,1-6.71.26c-1.59-.38-2.62-2.82-2.79-3.35s-.44-.12-.29.53a12.22,12.22,0,0,0,.71,2.09c.18.32-.12.53-.59.29a4.83,4.83,0,0,1-2.29-1.82l-.12-.14a14.17,14.17,0,0,1-2.73-5.3c-.88-3.32-1.44-7.82-2.79-10.85a26.78,26.78,0,0,0-3.41-6s-.83-.79.14-1.26a.17.17,0,0,0,.12,0,23.68,23.68,0,0,1,2.5-.09l2.91.06s4.21-.12,5.3-.06a26.63,26.63,0,0,0,3.38-.44c.65,0,5-.91,5-.91s5.44-1.06,7.24-.88,2.07.67,2.16,1.51h0l.06,1.18a18.58,18.58,0,0,1-.71,5.24,10,10,0,0,1-1.65,2.88A5.56,5.56,0,0,1,128.29,160.46Zm-8-13.71s.63-1.28,1.32-2.49a14,14,0,0,1-1.3.56l-.73,1.41-.75-1s-4.11-5.62-4.33-6-.24-.64.59-.62,7.35-.19,7.58,0,0,.34-.21.74-2.15,5.41-2.15,5.41l1.3-.56s2.36-4.94,2.51-5.18a1.36,1.36,0,0,1,1.24-.53c.61.07,2,2.5,3.09,3.68l2.16,3.38Zm13.77-6.63a35.05,35.05,0,0,1-.5,4.56c-.19.27-.09.29-.54.48a2.19,2.19,0,0,1-1.34.12l-1.13-1.79s-3-4.41-3-4.56-.28-.37,1.24-.44,4-.34,4.56.06A1.63,1.63,0,0,1,134.09,140.12Zm5.92-24c-.27,1.86-.86,5.12-1.48,6.21s-3.82,5.65-3.82,5.65-.15.4-.38-.56-.77-5.43-3.67-8.32-5.36-4.07-7.9-4.14c0,0-.93-.24,1.09-.36s5.45,1.67,6.33,1.72,2.38.34,1.09-.65a17.2,17.2,0,0,0-5.06-2c-.71-.15-.9-.62-.3-1s3.15-.22,4.76.21a17.85,17.85,0,0,0,3.2.65c.25,0,.81-.22-.59-.74a31.77,31.77,0,0,0-7.43-1.51c-1.82,0-3.26.28-3.43.8s-.12-.52-.33-1.6a53.4,53.4,0,0,1-.47-8,23.55,23.55,0,0,1,.8-4.38c.24-.53.52-2.37.15-2.34s-.62,1.41-1,1.83-.21-3.12-.27-3.85-.28-.83-.59,0-.49,5.47-.36,8.55.75,9.94.77,10.65.33,1-.92,1.12-2.53.21-4.47.53-2.4.55-3.17,1.3a2.08,2.08,0,0,0-.56,1.78c-2.71,1.67-1.52,2.25-1.52,2.25-.79.2-11.29,2.05-12.54,3s-1.37,1.49-2,2.8l-16.79-1.85c.1-1.31.26-3.19.35-4.06a36.45,36.45,0,0,0-.07-5.85c-.15-1.08-.09-4.77-.09-6.33a41.62,41.62,0,0,1,.84-6c.18-.71.18-6.07.18-6.55s-.15-.26-.15-.26a14.09,14.09,0,0,0-.75,4c.11,1.46-.22,3.15-.93,3a.6.6,0,0,1-.36-.22,6.75,6.75,0,0,1-.41-1.51s-.22-.9-.5.53a14.51,14.51,0,0,0,.47,4.85l0,.08.14.45a55.89,55.89,0,0,1,.62,8.56c0,.7,0,1.38,0,2,0,.18-.09.65-.33.64A12.07,12.07,0,0,0,72,115.75c-4.31,0-4.81,1.38-6.6,2.47,0,0,.44-5.52.59-6.84A40.86,40.86,0,0,1,67.68,105a24.77,24.77,0,0,1,3-5.15,23.41,23.41,0,0,0,2.63-3.34,27.34,27.34,0,0,1,2.28-3.33c.34-.46,1.93-1.94,2.07-2.1a37,37,0,0,0,4.64-5.06c1.65-2.4,6.07-3.94,6.07-3.94a25.13,25.13,0,0,1,6.5-.71,88.32,88.32,0,0,0-3.66,11,45.79,45.79,0,0,0-.88,7.81s.18,1.59,3.31,2.52a17.73,17.73,0,0,0,6.93.26s.75-.09.84-1.81,1.41-11.56,2.78-14a9.54,9.54,0,0,1,5.31-4.58l.33-.09c1-.35,3.41-1,4.32-1.38s1-1.17,2.22-.54a2.39,2.39,0,0,1,.28.33l5.61,3.73h0a11.22,11.22,0,0,0-3.72,1.49,16.89,16.89,0,0,1,4.85-.59,18.34,18.34,0,0,1,3.57.79c1.34.63,2.26,1,3.08,1.49a8.36,8.36,0,0,1,3.08,2.74c1.32,1.94,2.12,6.81,2.84,8.67s3.51,11,3.73,12.13A13.71,13.71,0,0,1,140,116.09Z" fill="#692f23"/><circle cx="99.21" cy="52.66" r="0.48" fill="#fff"/><circle cx="99.24" cy="52.67" r="0.5" fill="#fff"/><circle cx="81.7" cy="52.47" r="0.52" fill="#fff"/></g></g></svg>