<svg xmlns="http://www.w3.org/2000/svg" width="89.802" height="120.34" viewBox="0 0 67.35 90.24"><title>Обработка поверхностей ai</title><path d="M64.25.5H52.81a2.6 2.6 0 0 0-2.6 2.6v48.24h2.24V6.18h11.8a2.6 2.6 0 0 0 2.6-2.6V3.1a2.6 2.6 0 0 0-2.6-2.6z" fill="#e2ddd3" stroke="#682f24" stroke-linejoin="round"/><path d="M33.98 48.71c.7-3.14 1.2-6 4.11-6h14.36v5.57" fill="#fde9d3" stroke="#682f24" stroke-linejoin="round"/><path d="M51.97 73.04V46.16h-15c-1.72 0-2.41 1.54-3.12 3.12-4.81 10.71-8.21 19-8.21 19-1.49 0-11.62 9.66-14.32 12.26H2.45a1.48 1.48 0 0 0-1.48 1.48v4.78a1.48 1.48 0 0 0 1.48 1.48h46.29" fill="#f08119" stroke="#682f24" stroke-linejoin="round" stroke-width="2"/><path fill="none" stroke="#682f24" stroke-linecap="round" stroke-linejoin="round" d="M51.97 68.79H25.24M11.31 81.06h31.24"/><circle cx="50.25" cy="80.54" r="8.7" fill="#e2ddd3" stroke="#682f24" stroke-linejoin="round" stroke-width="2"/><circle cx="50.25" cy="80.54" r="4.22" fill="#fbf4ee" stroke="#682f24" stroke-linecap="round" stroke-linejoin="round"/></svg>