<svg data-name="Слой 1" xmlns="http://www.w3.org/2000/svg" width="26.28" height="24.29" viewBox="0 0 26.28 24.29"><path d="M23.07 15.4a11.4 11.4 0 1 1-.3-7.39" fill="none" stroke="#682f24" stroke-linecap="round" stroke-miterlimit="10" stroke-width="1.5"/><path fill="#682f24" d="M19.62 7.84l3.93 4.31 1.77-5.56-5.7 1.25z"/><g fill="#682f24"><path d="M5.47 7.61a7.51 7.51 0 0 1 2.3-.34c1.7 0 2.53.39 2.53 2 0 1.4-.4 1.86-2.89 3.53h2.87v1.37h-5V12.9c3.19-2.37 3.38-2.56 3.38-3.46 0-.61-.25-.78-1-.78a6.82 6.82 0 0 0-1.8.26zM10.55 12.58v-.53c.73-1.31 2-3.41 2.84-4.61h2v3.84h.89v1.31h-.87v1.61h-1.49v-1.61h-3.34zm3.34-3.7a22.93 22.93 0 0 0-1.48 2.39h1.48V8.88z"/></g><circle cx="20.66" cy="17.77" r="5.62" fill="#ff8300"/><path d="M22.82 15.86a28.58 28.58 0 0 0-2.12 4.65h-1.31a19.45 19.45 0 0 1 1.89-4h-2.43v-1h4v.33z" fill="#fffffe"/></svg>