<svg xmlns="http://www.w3.org/2000/svg" width="70" height="70" viewBox="0 0 70 70"><title>звонков-в-день</title><g id="Слой_2" data-name="Слой 2"><g id="Слой_1-2" data-name="Слой 1"><rect width="70" height="70" fill="none"/><path d="M28.16,62S30,68,25,68c-4.65,0-4.2-7.83-.89-6.29,2.95,1.36-2.87,6.32-6.7,4.36s-.32-9,2-7.34-4,6.9-6.85,2.15,2.76-9.11,4.23-7-6.64,5.69-8,.25,5.11-8.19,5.81-5.88C15.76,52,5.93,51.78,5.93,47c0-6,8.23-5.44,8.1-3s-6.77.63-5.87-3.29c.77-3.35,6.38-4,6.38-4" fill="none" stroke="#692f17" stroke-linecap="round" stroke-linejoin="round" stroke-width="1.5"/><path d="M37.21,3.07c-5.47-1.42-14.55.36-22.34,8.06h0l-.07.07-.07.07h0C7.15,18.95,5.44,27.94,6.9,33.38a12,12,0,0,0,2.9,5.24c1,1,3.62-.11,5.92-2.41s3.38-4.95,2.41-5.91c0,0-3.59-3.32-2.88-6.31a26,26,0,0,1,5.12-7.22,26.68,26.68,0,0,1,7.31-5.21c3-.75,6.34,2.85,6.34,2.85,1,1,3.64-.14,6-2.47s3.44-5,2.47-6A11.91,11.91,0,0,0,37.21,3.07Z" fill="#f5f4f0" stroke="#692f17" stroke-miterlimit="10" stroke-width="1.5"/><rect x="25.67" y="21.33" width="40.69" height="40.69" rx="2.49" ry="2.49" fill="#f5f4f0" stroke="#692f17" stroke-linecap="round" stroke-linejoin="round" stroke-width="1.5"/><path d="M7.88,36.13c1,1.55,3.77,0,6.24-2.29s3.39-4.38,2.41-5.4" fill="none" stroke="#692f17" stroke-linecap="round" stroke-miterlimit="10" stroke-width="0.75"/><path d="M40,4c1.55,1,0,3.8-2.36,6.31s-4.43,3.45-5.46,2.47" fill="none" stroke="#692f17" stroke-linecap="round" stroke-miterlimit="10" stroke-width="0.75"/><rect x="28.77" y="24.5" width="12.17" height="34.69" rx="2.09" ry="2.09" fill="#d9d6cc" stroke="#692f17" stroke-linecap="round" stroke-linejoin="round" stroke-width="0.75"/><circle cx="47.5" cy="32.29" r="1.96" fill="#d9d6cc" stroke="#692f17" stroke-linecap="round" stroke-linejoin="round" stroke-width="0.75"/><circle cx="53.83" cy="32.29" r="1.96" fill="#d9d6cc" stroke="#692f17" stroke-linecap="round" stroke-linejoin="round" stroke-width="0.75"/><circle cx="60.15" cy="32.29" r="1.96" fill="#d9d6cc" stroke="#692f17" stroke-linecap="round" stroke-linejoin="round" stroke-width="0.75"/><circle cx="47.5" cy="38.44" r="1.96" fill="#d9d6cc" stroke="#692f17" stroke-linecap="round" stroke-linejoin="round" stroke-width="0.75"/><circle cx="53.83" cy="38.44" r="1.96" fill="#d9d6cc" stroke="#692f17" stroke-linecap="round" stroke-linejoin="round" stroke-width="0.75"/><circle cx="60.15" cy="38.44" r="1.96" fill="#d9d6cc" stroke="#692f17" stroke-linecap="round" stroke-linejoin="round" stroke-width="0.75"/><circle cx="47.5" cy="44.57" r="1.96" fill="#d9d6cc" stroke="#692f17" stroke-linecap="round" stroke-linejoin="round" stroke-width="0.75"/><circle cx="47.5" cy="52.96" r="1.96" fill="#fd8204" stroke="#692f17" stroke-linecap="round" stroke-linejoin="round" stroke-width="0.75"/><circle cx="53.83" cy="44.57" r="1.96" fill="#d9d6cc" stroke="#692f17" stroke-linecap="round" stroke-linejoin="round" stroke-width="0.75"/><circle cx="60.15" cy="44.57" r="1.96" fill="#d9d6cc" stroke="#692f17" stroke-linecap="round" stroke-linejoin="round" stroke-width="0.75"/><circle cx="53.83" cy="52.96" r="1.96" fill="#fd8204" stroke="#692f17" stroke-linecap="round" stroke-linejoin="round" stroke-width="0.75"/><circle cx="60.15" cy="52.96" r="1.96" fill="#fd8204" stroke="#692f17" stroke-linecap="round" stroke-linejoin="round" stroke-width="0.75"/></g></g></svg>