<svg xmlns="http://www.w3.org/2000/svg" width="80" height="80" viewBox="0 0 80 80"><title>система-обучения</title><g id="Слой_2" data-name="Слой 2"><g id="Слой_1-2" data-name="Слой 1"><rect width="80" height="80" fill="none"/><path d="M15.85,35.75a19.1,19.1,0,0,0-5.63,13.12c0,11.33,8.86,18.7,21.19,20.93" fill="none" stroke="#fd8204" stroke-miterlimit="10" stroke-width="1.5"/><path d="M47.51,70C61,67.73,70.35,59.38,70.35,48a19.47,19.47,0,0,0-6.69-14.35v0" fill="none" stroke="#fd8204" stroke-miterlimit="10" stroke-width="1.5"/><path d="M19.91,42.5a68.71,68.71,0,0,0,19.54,2.74A68.73,68.73,0,0,0,59,42.5a16.44,16.44,0,0,1,1.46,6.75c0,7.63-5.18,14.4-13.21,17.24l-1,.35V70c-.4.49-2.73,1.54-6.79,1.54s-6.39-1-6.79-1.54V66.84l-1-.35c-8-2.84-13.21-9.61-13.21-17.24a16.43,16.43,0,0,1,1.46-6.75m39.87-1.82a66.15,66.15,0,0,1-20.32,3.06,66.14,66.14,0,0,1-20.32-3.06A18.17,18.17,0,0,0,17,49.24C17,57.71,22.84,65,31.16,67.9v2.18c0,1.61,3.71,2.92,8.29,2.92s8.29-1.31,8.29-2.92V67.9C56.06,65,61.95,57.71,61.95,49.24a18.19,18.19,0,0,0-2.17-8.56Z" fill="#fd8204"/><path d="M31.44,67a25.15,25.15,0,0,0,16.06,0" fill="none" stroke="#fd8204" stroke-miterlimit="10"/><path d="M46.32,60.26a22.23,22.23,0,0,1-7.38,1.17,22.66,22.66,0,0,1-7-1" fill="none" stroke="#fd8204" stroke-linecap="round" stroke-miterlimit="10" stroke-width="1.5"/><path d="M40.71,56.62a3.18,3.18,0,0,1-1.61.42,3.22,3.22,0,0,1-1.53-.38" fill="none" stroke="#fd8204" stroke-linecap="round" stroke-miterlimit="10"/><path d="M20.11,37.38a11.64,11.64,0,0,0-1.39,4.85" fill="none" stroke="#fd8204" stroke-linecap="round" stroke-miterlimit="10"/><path d="M58.72,37.46a10.87,10.87,0,0,1,1.47,4.77" fill="none" stroke="#fd8204" stroke-linecap="round" stroke-miterlimit="10"/><path d="M15.18,29.32v4.34c0,3,10.85,5.48,24.24,5.48s24.24-2.45,24.24-5.48V29.25" fill="none" stroke="#fd8204" stroke-miterlimit="10" stroke-width="1.5"/><polyline points="73.93 23.12 39.45 31.77 4.97 23.12" fill="none" stroke="#fd8204" stroke-linecap="round" stroke-linejoin="round"/><line x1="73.63" y1="25.27" x2="73.63" y2="36.62" fill="none" stroke="#fd8204" stroke-linecap="round" stroke-miterlimit="10"/><path d="M72,40.11c0-.12,1.59-3.76,1.59-3.76s1.59,3.64,1.59,3.76-.71.21-1.59.21S72,40.22,72,40.11Z" fill="none" stroke="#fd8204" stroke-linecap="round" stroke-miterlimit="10"/><path d="M29.17,47.79c-2.51,0-4.55,2.28-4.55,2.28s2,2.28,4.55,2.28,4.55-2.28,4.55-2.28S31.68,47.79,29.17,47.79Z" fill="none" stroke="#fd8204" stroke-miterlimit="10"/><ellipse cx="29.17" cy="50.07" rx="1.99" ry="1.81" fill="none" stroke="#fd8204" stroke-miterlimit="10"/><path d="M48.32,47.79c-2.51,0-4.55,2.28-4.55,2.28s2,2.28,4.55,2.28,4.55-2.28,4.55-2.28S50.83,47.79,48.32,47.79Z" fill="none" stroke="#fd8204" stroke-miterlimit="10"/><ellipse cx="48.32" cy="50.07" rx="1.99" ry="1.81" fill="none" stroke="#fd8204" stroke-miterlimit="10"/><polygon points="39.45 14.47 4.97 23.12 4.97 26.7 39.45 35.54 73.93 26.58 73.93 23.12 39.45 14.47" fill="none" stroke="#fd8204" stroke-miterlimit="10" stroke-width="1.5"/></g></g></svg>