<svg xmlns="http://www.w3.org/2000/svg" width="43.33" height="47.61" viewBox="0 0 43.33 47.61"><title>Поддерживающая</title><path d="M19.71 39.07V18.41S8.34 16.19 2.52 25.29c-5.49 8.57 1.93 21.78 1.93 21.78H16.6" fill="#ef8018" stroke="#682f24" stroke-linejoin="round" fill-rule="evenodd"/><circle cx="17.09" cy="42.56" r="4.55" fill="#e1dcd2" stroke="#682f24" stroke-miterlimit="10"/><circle cx="17.09" cy="42.56" r="2.61" fill="#faf4ee" stroke="#682f24" stroke-linejoin="round"/><path d="M10.45 19.13a12.28 12.28 0 0 1-9 20.6" fill="none" stroke="#682f24" stroke-linejoin="round" stroke-width=".7"/><path d="M35.27 41.86h-2.58l-5.41-34c-.65-3-2.21-4.93-4.93-4.93a4.93 4.93 0 0 0-4.92 4.93v8.08h-2.58V7.86a7.52 7.52 0 0 1 7.5-7.51c4.14 0 6.7 3.06 7.51 7.51z" fill="#fce8d2" stroke="#682f24" stroke-linejoin="round" stroke-width=".7"/><path d="M13.7 18.18a2.24 2.24 0 0 1 2.24-2.24h.76a2.24 2.24 0 0 1 2.24 2.24" fill="#e1dcd2" stroke="#682f24" stroke-linejoin="round"/><path d="M42.12 44.07h-2.9a2 2 0 0 0-2-1.76h-6.49a2 2 0 0 0-2 1.76h-2.88a.87.87 0 0 0-.87.87v1.41a.87.87 0 0 0 .87.87h16.27a.87.87 0 0 0 .87-.87v-1.44a.87.87 0 0 0-.87-.84z" fill="#faf4ee" stroke="#682f24" stroke-miterlimit="10" stroke-width=".7"/><path fill="#e1dcd2" stroke="#682f24" stroke-linejoin="round" stroke-width=".7" d="M28.31 44.29h11.24"/><path fill="#e1dcd2" stroke="#682f24" stroke-linejoin="round" d="M31.43 34.31l1.27 7.97h2.57l-1.26-7.97h-2.58z"/></svg>