<svg xmlns="http://www.w3.org/2000/svg" width="70" height="70" viewBox="0 0 70 70"><title>мытье-окон</title><g id="Слой_2" data-name="Слой 2"><g id="Слой_1-2" data-name="Слой 1"><rect width="70" height="70" fill="none"/><path d="M44.83,67.84a17,17,0,0,1-5.55-3.9,11.34,11.34,0,0,1-3.07-4.72l.8-.77,9,8.09Z" fill="#f7e8d2" stroke="#692f17" stroke-miterlimit="10" stroke-width="0.75"/><path d="M45.13,67.67s3-4.25,4.74-4.58a17.83,17.83,0,0,0,8.06-4.33L60,56.64l1.54-1.54,2-2a1.81,1.81,0,0,0,0-2.56l-.29-.28a1.81,1.81,0,0,0-2.56,0L62,49a2.09,2.09,0,0,0,0-3l-.33-.33a2.09,2.09,0,0,0-3,0l.26-.26a2.09,2.09,0,0,0,0-3l-.33-.33a2.1,2.1,0,0,0-3,0l-.92.92a2.22,2.22,0,0,0,.17-3.13l-.33-.33a2.23,2.23,0,0,0-3.13.17l-2.62,2.62-2,2-.18.18v-.23c0-.05,0-.1,0-.16l-.48.48-2.87-2.87a2.65,2.65,0,0,0-1.95,2.55L41,54.59,36.45,59" fill="#f7e8d2" stroke="#692f17" stroke-linecap="round" stroke-linejoin="round" stroke-width="1.5" fill-rule="evenodd"/><path d="M10,28.48q1.53,1.4,3,2.85l3,2.87L21.88,40H21q5.8-6,11.7-11.83T44.58,16.54v.89L38.6,11c-1-1.07-2-2.17-2.94-3.26s-2-2.18-2.91-3.29c1.09,1,2.16,2,3.23,3s2.15,2,3.2,3l6.31,6.1a.62.62,0,0,1,0,.87h0l0,0q-5.82,5.95-11.72,11.81T21.87,40.89l0,0a.6.6,0,0,1-.84,0h0l-5.58-6.14-2.74-3.11Q11.29,30.07,10,28.48Z" fill="#692f17"/><line x1="48.35" y1="42.89" x2="44.15" y2="47.1" fill="none" stroke="#692f17" stroke-linecap="round" stroke-linejoin="round" stroke-width="1.5"/><path d="M36.71,40.1a5.55,5.55,0,0,0,6.18,1.15l3.34,3.34,2.85-2.85L45.74,38.4a5.55,5.55,0,0,0-1.15-6.18" fill="#dfdbd1" stroke="#692f17" stroke-linecap="round" stroke-linejoin="round" stroke-width="1.5" fill-rule="evenodd"/><path d="M25.21,43.73,27.5,46a2.33,2.33,0,0,0,3.29,0L50.51,26.3a2.33,2.33,0,0,0,0-3.29l-2.29-2.29" fill="#dfdbd1" stroke="#692f17" stroke-linejoin="round" stroke-width="1.5" fill-rule="evenodd"/><polygon points="18.21 20.02 21.03 21.85 23.85 20.02 22.02 22.84 23.85 25.66 21.03 23.83 18.21 25.66 20.04 22.84 18.21 20.02" fill="#dbc19f"/><polygon points="18.21 6.58 21.03 8.4 23.85 6.58 22.02 9.39 23.85 12.21 21.03 10.38 18.21 12.21 20.04 9.39 18.21 6.58" fill="#dbc19f"/><polygon points="28.49 10.49 31.31 12.31 34.13 10.49 32.3 13.31 34.13 16.13 31.31 14.3 28.49 16.13 30.32 13.31 28.49 10.49" fill="#dbc19f"/><rect x="18.47" y="28.25" width="33.3" height="4.73" transform="translate(-11.36 33.8) rotate(-45)" fill="#fd8204"/><path d="M45.22,17.7,48,20.51l-23,23L22.2,40.72l23-23m0-1.06L21.14,40.72,25,44.59,49.1,20.51l-3.87-3.87Z" fill="#692f17"/></g></g></svg>