<svg data-name="Слой 1" xmlns="http://www.w3.org/2000/svg" width="32" height="29.89" viewBox="0 0 32 29.89"><title>Свяжись со мной3</title><path d="M16.13 1.06c-6.94 0-12.58 5.15-12.58 11.5s5.64 11.5 12.58 11.5 12.58-5.15 12.58-11.5-5.63-11.5-12.58-11.5zm0 22.41c-4.9 0-8.88-4.27-8.88-9.54a10.07 10.07 0 0 1 .86-4.07 22.84 22.84 0 0 0 16 0 10.07 10.07 0 0 1 .86 4.07c.02 5.26-3.98 9.54-8.84 9.54z" fill="#fd8204"/><circle cx="12.28" cy="14.95" r="1.22" fill="#fd8204"/><circle cx="19.41" cy="14.95" r="1.22" fill="#fd8204"/><path d="M18.53 19.49a7.58 7.58 0 0 1-2.6.43 7.76 7.76 0 0 1-2.47-.38" fill="none" stroke="#fd8204" stroke-linecap="round" stroke-miterlimit="10"/><path d="M31.99 13.33a4.83 4.83 0 0 0-2.75-4.36 14.1 14.1 0 0 0-26.36.25 4.84 4.84 0 0 0 1.95 9.26h.16V11.9a11.31 11.31 0 0 1 22-.94v7.2h.7a12.06 12.06 0 0 1-7.7 8.14 2.26 2.26 0 0 0-1.83-.94h-4a2.27 2.27 0 0 0 0 4.54h4a2.27 2.27 0 0 0 2.27-2.27 13.45 13.45 0 0 0 8.84-9.92 4.83 4.83 0 0 0 2.72-4.38z" fill="#692f17"/></svg>