<svg xmlns="http://www.w3.org/2000/svg" width="62.39" height="58.5" viewBox="0 0 62.39 58.5"><title>недостатки</title><rect x="29.97" y="43.06" width="4.56" height="10.5" rx="1.11" ry="1.11" fill="#ff8300" stroke="#682f24" stroke-linejoin="round"/><rect x="55.17" y="43.06" width="4.56" height="10.5" rx="1.11" ry="1.11" fill="#dce1e2" stroke="#682f24" stroke-linejoin="round"/><rect x="28.34" y=".75" width="33.3" height="50.58" rx="2.8" ry="2.8" fill="#e3ddd3" stroke="#692f17" stroke-linecap="round" stroke-linejoin="round" stroke-width="1.5"/><path fill="none" stroke="#692f17" stroke-linejoin="round" stroke-width=".7" d="M28.34 8.76h33.3M44.99.75v50.58"/><circle cx="41.52" cy="28.49" r="1.48" fill="#692f17"/><circle cx="48.37" cy="28.49" r="1.48" fill="#692f17"/><path fill="#fff" stroke="#692f17" stroke-linecap="round" stroke-linejoin="round" stroke-width="1.5" d="M.75 8.76h22.19v27.29H.75z"/><path fill="none" stroke="#692f17" stroke-linejoin="round" stroke-width=".7" d="M11.85 8.76v27.29M11.85 19.12h11.09"/><g stroke="#692f17"><path d="M25.83 50.47V31.89s10.35-2 15.64 6.18c5 7.7-1.76 19.6-1.76 19.6h-11" fill="#f08119" stroke-linejoin="round" stroke-width="1.5" fill-rule="evenodd"/><ellipse cx="28.22" cy="53.59" rx="4.14" ry="4.09" fill="#f8f4eb" stroke-miterlimit="10" stroke-width="1.5"/><ellipse cx="28.22" cy="53.59" rx="2.38" ry="2.35" fill="#f7f5f2" stroke-linejoin="round" stroke-width=".7"/><path d="M34.26 32.54a10.92 10.92 0 0 0-3 7.48 11.1 11.1 0 0 0 11.17 11" fill="none" stroke-linejoin="round" fill-rule="evenodd"/><path d="M11.68 52.96h2.35l4.92-30.54c.59-2.73 2-4.43 4.48-4.43a4.46 4.46 0 0 1 4.48 4.43v7.25h2.35v-7.26a6.79 6.79 0 0 0-6.82-6.75c-3.76 0-6.09 2.75-6.83 6.75z" fill="#f8f4eb" stroke-linecap="round" stroke-linejoin="round"/><path d="M31.34 31.68a2 2 0 0 0-2-2h-.69a2 2 0 0 0-2 2" fill="#f8f4eb" stroke-linejoin="round" stroke-width="2"/><path d="M5.46 54.92h2.63a1.82 1.82 0 0 1 1.81-1.58h5.91a1.82 1.82 0 0 1 1.81 1.58h2.63a.78.78 0 0 1 .79.78v1.27a.78.78 0 0 1-.79.78H5.46a.78.78 0 0 1-.79-.78V55.7a.78.78 0 0 1 .79-.78z" fill="#f8f4eb" stroke-miterlimit="10" stroke-width="1.5"/><path fill="#e2ddd3" stroke-linejoin="round" d="M18.01 55.15H7.79"/><path fill="#f8f4eb" stroke-linejoin="round" stroke-width="1.5" d="M15.18 46.18l-1.15 7.16h-2.35l1.15-7.16h2.35z"/></g></svg>