<svg xmlns="http://www.w3.org/2000/svg" width="129" height="226.77" viewBox="0 0 129 226.77"><title>Домовенок с щитом</title><path d="M53.06 6.53s6.14-2.52 7.25-3.18a29.11 29.11 0 0 1 9.92-2.07c3.55 0 7.77-1 9.69-.74a6.05 6.05 0 0 1 3.18 1.41s2.22.07 4.07 0 4.66 1.18 5.4 1.41l9 2.66c1.48.44 3.55 2.66 5.48 3.63S118.83 20 119.73 22.88s5.18 8.66 5.62 10.66 2.52 13.47-.81 18.57-9.1 12.51-12.43 14.08-7 4.66-7.92 5.18-6.59 2.59-9.32 2.59h-4.22a14.67 14.67 0 0 0-2.81.52c-.37.15-.52-3.63-.52-3.63s-9.1 2.66-15.1 2.22a75.3 75.3 0 0 1-11.1-1.7s2.26 3.22 1.66 3.74-4.4.59-6 .37-7.55-2-7.55-2l-3.48-1.66a45.05 45.05 0 0 0-4.14-2.7c-.44-.07-9-10.29-10.43-12.88s-2.59-8.58-2.66-13.39a45.34 45.34 0 0 1 3.07-15.76c2-5.48 7.29-11.62 9.66-13s8.48-4.9 8.48-4.9z" fill="#e09c51"/><path d="M67.23 21.27a10.43 10.43 0 0 0-2.19 3c-.47 1.22-.75 5.66-1.19 6.33s-1.69.8-2.53.72a7.25 7.25 0 0 1-2.3-1.14c-.11-.06-5.47 1.61-6.1 1.66s-7.35 1.64-7.8 1.75-3.33.72-3.47.78a5.7 5.7 0 0 0-2.82 3.5 6.38 6.38 0 0 0 .28 4.41 4.57 4.57 0 0 0-1.69 2.14 8.13 8.13 0 0 0 1.19 5.16 22.07 22.07 0 0 0 3.83 2.66c-.31-.14 1.25 3.41 4.05 7.41s6.6 8.16 14.6 11.49 19.06 1.72 19.34 1.69a31.19 31.19 0 0 0 12-4.22s6.24-4.58 8-6.38 5.38-6.22 6.13-8a10.21 10.21 0 0 0 .78-2.16s2.25.22 3.88-2.72.75-6.35-.58-7.08-3.88-.19-4.63-.06-2.61-1.53-3.08-3.55-5.47-7-5.47-7a30.4 30.4 0 0 1-5.85-.11c-2.22-.39-6.55-.89-8.19-1.36s-7 .25-8.07.5-4.72 2-5 1.75-.14-1.55-.14-2.11-2.98-9.06-2.98-9.06z" fill="#fbdfcb"/><path d="M62.16 43.31a3.24 3.24 0 0 0-1.11-2.24 4.24 4.24 0 0 0-3.09-1.22c-.81 0-4.24-.3-4.79 0a13.39 13.39 0 0 0-2.34 2.2.84.84 0 0 0 .31 1.42 6.78 6.78 0 0 0 2.69 1.27 29.21 29.21 0 0 0 4.25-.14c.85-.18 2.46-.85 3.07-.87a1.09 1.09 0 0 0 1.01-.42z" fill="#fff"/><path d="M59.19 40.4a2.38 2.38 0 0 1 .67 2.05 3.41 3.41 0 0 1-2.55 2.28c-1.22.24-2.69-.47-2.86-1s-1.08-1.88-.84-2.56 3.96-3.49 5.58-.77z" fill="#abd2f0"/><path d="M78.89 43.19A3.24 3.24 0 0 1 80 40.95a4.24 4.24 0 0 1 3.09-1.22 24.33 24.33 0 0 1 4.7.59 8.92 8.92 0 0 1 2.44 1.61.84.84 0 0 1-.31 1.42 8.67 8.67 0 0 1-2.89.85 27.65 27.65 0 0 1-4 .28c-.85-.18-2.46-.85-3.07-.87a1.09 1.09 0 0 1-1.07-.42z" fill="#fff"/><path d="M82.77 40.27a2.38 2.38 0 0 0-.67 2.05 3.41 3.41 0 0 0 2.55 2.28c1.22.24 3-.15 3.14-.65s.8-2.2.55-2.89-3.94-3.51-5.57-.79z" fill="#abd2f0"/><path d="M29.83 31.67a27.83 27.83 0 0 0 3.88-4.16c1.17-1.78 3.94-6.83 6.66-9.32a58.36 58.36 0 0 1 4.5-4.11l-2.61 5.66s1.94-2.55 3.66-3.22a10.15 10.15 0 0 1 2.44-.72 34.37 34.37 0 0 0-2.61 4.61c-.39 1.22-.44 6.66-.39 7.55s.28 2.39.28 2.39.67-6.49 3.05-10 3.72-6.55 9.1-9.43 6.44-3.05 7.33-2.89 0 1.83 0 1.83a56.68 56.68 0 0 0-2.44 5.66 18.71 18.71 0 0 1 3.22-3.83 33.44 33.44 0 0 1 4.05-3.05s-2.39 7-2.39 9.21 1 8.44 1 8.44l1.05 2.77a23.45 23.45 0 0 1 1.55-10c2.05-5 3-9.66 6.83-10.82a5.53 5.53 0 0 1 6.77 2.55 23.62 23.62 0 0 1 1.5 4.5s.17-3.88.06-4.77 1.22-1.05 1.94-.83a12.45 12.45 0 0 1 6.6 5.22c2.28 3.72 3.11 9.71 3.11 9.71s1.22-7.49.39-8.94-2.83-4.72-4.38-6c0 0-.33-1.44 2.05-1a16.38 16.38 0 0 1 6.27 2.16s-2.84-2.53-4.23-3.65-7.77-4.72-8.1-4.94a26.85 26.85 0 0 0-3.94-.55l-2.55-.11L81.43.48l-7.49.83-2.77-.5-9.55 1.66-7.27 3.27-6.66 4.66-3.11 1.17-7.33 6.38s-5.49 6.94-5.66 7.83-2 6-2 6zM33.64 34.45s-2.55 7.6-2.11 13.37 3.27 12.82 3.77 13.32-2.44-2-2.61-2.11a61.1 61.1 0 0 1-3.44-8.84c-.5-2.28-.78-7.83.33-10.16a20.34 20.34 0 0 1 4.06-5.58z" fill="#e9b87f"/><path d="M47.83 81.62a70.6 70.6 0 0 1 7.18-4.07 53.3 53.3 0 0 1 6.29-2l1.55-.22-.22-3.7s8.07 1.48 10.14 1.48a103.31 103.31 0 0 0 11.32-1.33 8.37 8.37 0 0 0 2.89-1.33l.52 4.29a51.8 51.8 0 0 1 7.92 1.18s6.81 2 10.29 5.4a65.67 65.67 0 0 1 9.32 12c1.26 2.44 5 12.28 5.85 15.1s2.07 7.77 2.22 8.81 2.22 8 2.52 9.1a32.27 32.27 0 0 0 1.48 3.26c.74 1.78.59 4.51.67 5.33s1.55 2.66.59 4.44a9.86 9.86 0 0 1-6.51 4.66s.44 2.22-.3 2.74a15 15 0 0 1-5.7 1.85 25.66 25.66 0 0 1-5.7-.67s-1.92-.37-1.92-.67a5.41 5.41 0 0 1 .67 3.48c-.22 1.92 0 3.48-1.33 3.63s-11.25 2.59-13.17 3a96.48 96.48 0 0 1-10.51.89c-.3-.07-10.29-.15-10.66-.3l-2.4-.88a57.24 57.24 0 0 0 5.25-5c1-1.41 7.4-10.66 8-14.5s2.15-13.17 1.55-20.5-7-18.06-12.21-22.79a52.51 52.51 0 0 0-25.59-12.68z" fill="#fff"/><ellipse cx="467.53" cy="126.19" rx="4.72" ry="5.24" transform="rotate(-3.46 279.323 6452.829)" fill="#fd8204"/><ellipse cx="442.33" cy="84.51" rx="4.72" ry="5.24" transform="rotate(-19.51 251.71 1196.098)" fill="#fd8204"/><path d="M51.45 79.73c1 2.73-.12 5.88-2.58 6.75a5 5 0 0 1-6.2-3.37c4.68-.99 5.56-2.21 8.78-3.38zM107.61 129.57a4 4 0 0 1-3.11 2c-2.31.14-4.31-2-4.48-4.74s1.57-5.11 3.88-5.25a3.7 3.7 0 0 1 2.39.71c1.16.83 1.87 6.37 1.32 7.28z" fill="#fd8204"/><ellipse cx="43.52" cy="124.13" rx="42.95" ry="42.45" fill="#e7c3a0"/><ellipse cx="43.52" cy="124.3" rx="34.46" ry="33.64" fill="#f4e8db"/><ellipse cx="43.67" cy="162.3" rx="1.62" ry="1.58" fill="#f4e8db"/><ellipse cx="70.47" cy="151.31" rx="1.62" ry="1.58" fill="#f4e8db"/><ellipse cx="16.92" cy="151.2" rx="1.62" ry="1.58" fill="#f4e8db"/><ellipse cx="5.59" cy="124.45" rx="1.62" ry="1.58" fill="#f4e8db"/><ellipse cx="16.75" cy="97.48" rx="1.62" ry="1.58" fill="#f4e8db"/><ellipse cx="43.72" cy="86.54" rx="1.62" ry="1.58" fill="#f4e8db"/><ellipse cx="70.64" cy="97.48" rx="1.62" ry="1.58" fill="#f4e8db"/><ellipse cx="81.51" cy="124.45" rx="1.62" ry="1.58" fill="#f4e8db"/><path d="M61.39 195.55c-.38.28 2.55 12.65 2.55 12.65s5.66 2.44 9.88 2.11 5.11-2.44 5.11-2.44a12.69 12.69 0 0 0 1.78 1.78c.67.44 11.32-.89 11.32-.89s3.66-1.11 3.66-1.44 2.33-6 2.33-6 .55-5.66.22-6.22-4.22 1.33-6.66 1.33-6.22.11-8.1-1-3.22-2-3.22-2-3.43 2.46-6.66 2.76-6.77.22-9.32-.78-2.45-.22-2.89.14z" fill="#d2a274"/><path d="M50.83 206.54s4.55-.44 6.77.44a94.52 94.52 0 0 0 10.66 3c1.44.22 5.55.78 8.66-.67s3.33.78 3.33.78l7.44-.89c1.89-.22 7.33-1.22 9.43-.55s4.66 3.66 5.44 4.44 4 5 3.33 7.21-3.77 5.11-7.44 5.33-12.65 1.33-15.54.78-3.44-2.22-4.33-5l-.89-2.77a24.4 24.4 0 0 1-5.44.89c-2.33 0-12.43 2.89-15.87 2.89s-8.66-.44-10-1c0 0-2.77-2.55-3.11-4.66a9.09 9.09 0 0 1 1.36-6.57c1.33-1.76 2.88-2.87 6.2-3.65z" fill="#efb000"/><path d="M70.93 158.19s10 .33 11.77.22 9-.11 13.87-1.22 7.77-2.33 8.32-.22 1 9.88 0 12.43a13.57 13.57 0 0 0-.67 5.88c0 1.22.67 12.32-1 14.54s-2 4.11-6.33 5-5.55 2.11-8.55 1.66-5-.33-6.22-1.66a13.71 13.71 0 0 0-2.22-2 6.26 6.26 0 0 1-4.33 2.89c-3.33.78-5.55 1.55-9.66.11a19.19 19.19 0 0 1-5.77-2.89s-3.11-4.55-3.77-8.66-.33-12.54-.33-12.54l-2-5.88s7.55-1.55 9.77-3.55 7.12-4.11 7.12-4.11z" fill="#fd8204"/><path d="M102.12 156.82s.28 5.77.33 7.33a30.39 30.39 0 0 1-.11 6.33 39.75 39.75 0 0 0-.61 7c.06 1.44.39 8.1-.11 9.55a24.23 24.23 0 0 1-1.22 2.83 8.12 8.12 0 0 1 .17 2.89c-.28.89.94-.11 1.44-1.17s1.44-1.55 1.72-4a90.39 90.39 0 0 0 .39-11.15c-.22-1.22.55-6.72.72-7.49s.44-9.21.33-11.1-2.16-3.02-3.05-1.02zM93.91 158.09s.5 3.72.94 5.38 1.66 6.44 1.39 9.1a65 65 0 0 0-.61 7.77c0 3.11.33 7.66.28 9.38s.11 3.39-.39 4.61 3.22-2.44 3.22-2.44.28-9.82.44-12.26 1-5.94 1-8.49-1.22-7.38-1.44-9.6a16.89 16.89 0 0 1 .33-4.66zM85.53 159.09s1.55 7 2.33 10.66.55 10 1.11 13.21.5 5.61.78 7.88.83 5.38.83 5.38 2.77-.11 3.22-.72-.67-11-1-12.82.06-6.66-.22-8.49-1.61-9.88-1.94-11a15.19 15.19 0 0 1-.22-4.61c.16-.39-4.89.51-4.89.51zM77.83 158.7s1 6 1.22 7 1.83 7.94 2.33 9.88.94 10 1.05 12.1.67 6.55 2.5 7.94a3.66 3.66 0 0 0 3.39.78 23.49 23.49 0 0 1-1.78-7.1c-.61-4.83-.5-9.71-.89-11.77s-1.5-11.1-2.55-13.54a15.35 15.35 0 0 1-1-5.49zM72.1 159.19s.94 4.83 1.22 6.33 1.83 8.1 2.16 9.93.94 7 1.44 10 1.17 5.83 1.05 7.38a10 10 0 0 1-.28 2.05l-3.05 1.28s0-.83-.17-2.94-1.44-8.6-1.78-10.88-1.5-11.15-1.89-12.88-1.44-8.94-1.11-10.38 2.41.11 2.41.11zM66.1 161.09s2.39 11.93 2.77 13 .67 5.38 1.17 8.38 1.44 8.49 1.83 10.1 1.05 3.27.72 3.77-3 .06-3 .06a14.25 14.25 0 0 1-2.55-6.16c-.44-3.44-1.17-10.16-1.5-12.49s-2.61-15-2.61-15 2.45-1.99 3.17-1.66zM58.83 164.42s1.28 4.55 1.83 5.66a13.82 13.82 0 0 1 1.33 4.05c.33 1.83-.22 5.16.44 8.21s1.72 9.27 3 11.54 2 2.16 2 2.16a49.12 49.12 0 0 1-5.61-2.11c-1.55-.83-3.05-10.82-3.27-13.37s-.06-7.44-.44-8.16-2.61-5.44-2.22-6.94 2.94-1.04 2.94-1.04z" fill="#e16702"/><path d="M111.06 148.49a49.29 49.29 0 0 0-1.33 5.16c-.44 2-.67 5.94-1.17 7s-.94 1.44-.83 1.94 1.17.55 2.22-.28a32.49 32.49 0 0 0 3-3.11 5.09 5.09 0 0 1 .44 3 6 6 0 0 1-2.16 4.33 1.07 1.07 0 0 0-.55 1.5c.11.28 2.94.28 3.88-.55s3.55-2.11 5.16-5.38a13.38 13.38 0 0 0 1.39-8.55c-.5-2.05-1.83-5.61-1.83-5.61z" fill="#fbdfcb"/><ellipse cx="473.19" cy="91.39" rx="4.72" ry="5.24" transform="matrix(.94 -.33 .33 .94 -385.53 163.43)" fill="#fd8204"/><path d="M105.19 81.72a4.74 4.74 0 1 1-7.91-5.14c3.55 1.82 5.9 2.43 7.91 5.14z" fill="#fd8204"/><ellipse cx="478.3" cy="110.7" rx="5.24" ry="4.72" transform="rotate(-69.68 287.343 385.33)" fill="#fd8204"/><path d="M117.2 122.43c-2.62-1.71-3.56-4.9-2.11-7.13s4.76-2.64 7.38-.93c.85 2.1 1.07 3.66 2.11 7.13-1.45 2.22-4.75 2.69-7.38.93zM108.72 97.19c-3-1-4.74-3.78-3.93-6.31s3.88-3.82 6.86-2.86c1.38 1.8 2 3.24 3.93 6.31-.81 2.58-3.88 3.86-6.86 2.86z" fill="#fd8204"/><ellipse cx="478.52" cy="138.78" rx="4.72" ry="5.24" transform="rotate(-3.46 290.21 6465.42)" fill="#fd8204"/><path d="M83.58 34.37s2.33.28 3.11.46a28.63 28.63 0 0 1 4.27 1.66c.81.46 1.55.85.85.13a9 9 0 0 0-4.44-3 5.5 5.5 0 0 0-3.87.13c-.12.09-.67.55.08.62zM49.51 37.02s.13.15 1.2-.46a15.09 15.09 0 0 1 4.75-1.57c1.72-.24 3-.26 3.29-.41s.61-.22.33-.65a2.54 2.54 0 0 0-2.18-.57 11.77 11.77 0 0 0-6 2.15c-2 1.44-1.39 1.51-1.39 1.51zM63.24 42.91a9.08 9.08 0 0 0-2.64-2.89 6.43 6.43 0 0 0-4.47-1.3c-1.19 0-3.34.19-4.29.8a6.38 6.38 0 0 0-2 2.57 1.08 1.08 0 0 0 .23 1 3.87 3.87 0 0 0 .81.75 15.13 15.13 0 0 0 3.05 1.19 14 14 0 0 0 5.06-.06c1.1-.24 2.54-.87 2.83-.87a3.11 3.11 0 0 0 1.23 0 .79.79 0 0 0 .19-1.19zm-8.92 1.38a3.45 3.45 0 0 1-1.11-.18 8.67 8.67 0 0 1-1.69-1.15.76.76 0 0 1-.21-.52 3.53 3.53 0 0 1 .87-1.43 3.27 3.27 0 0 1 1.18-.83c.42-.18.59-.13.53 0a3 3 0 0 0-.47 1.73 2.8 2.8 0 0 0 1.14 2.14s.05.21-.25.24zm5.07-2.37a1.77 1.77 0 0 1-1 1.69 3.32 3.32 0 0 1-2.58.12 2.12 2.12 0 0 1-1.25-1.42 2.36 2.36 0 0 1 .18-1.79.78.78 0 0 1 .36-.28.45.45 0 0 1 .25 0c.35.15.25.31.22.37s.06 1.5.06 1.5a1.55 1.55 0 0 0 1.26.83 1.3 1.3 0 0 0 1.35-.93 1.47 1.47 0 0 0-.12-1 .5.5 0 0 1 .64-.64 1.44 1.44 0 0 1 .62 1.55zm2.69 1.62c-.18.08-.78-.31-1.19-.24a3.86 3.86 0 0 0-1 .4c-.1 0-.19 0-.15-.11a2.06 2.06 0 0 0 .54-1.35 3.22 3.22 0 0 0-.41-2 5.92 5.92 0 0 1 2.05 2.16c.32.69.33 1.06.15 1.15zM90.97 42.19a26.44 26.44 0 0 0-2.19-2 6.73 6.73 0 0 0-2.48-1 8.61 8.61 0 0 0-5.36.12c-1.31.59-2.46 2.92-2.55 3.52a1.89 1.89 0 0 0 0 1 .64.64 0 0 0 .8.45 6.76 6.76 0 0 1 1.8.18c.57.15 2.9.6 3.47.75a8.91 8.91 0 0 0 3.69-.18 6.15 6.15 0 0 0 3.17-1.7c.36-.46-.03-.8-.35-1.14zm-8.14 2c-.54-.14-2.09-.8-2.63-.87a1.14 1.14 0 0 0-.61.07c-.32 0-.18-.45-.18-.45l.23-.51a5.44 5.44 0 0 1 1.5-1.61 5.17 5.17 0 0 1 1.4-.74c-.05.1-.28.31-.37.49a3.16 3.16 0 0 0-.3 1.54 2.8 2.8 0 0 0 1 2.11zm4.83-2a2.15 2.15 0 0 1-1.41 1.91 2.45 2.45 0 0 1-3-1 2.08 2.08 0 0 1-.08-2.21.52.52 0 0 1 .34-.25.87.87 0 0 1 .63.19 1 1 0 0 1-.11.8 1.16 1.16 0 0 0 1 1.47 1.26 1.26 0 0 0 1.61-1c0-.34.07-.87.51-.87s.6.15.51.87zm2.62.86a14 14 0 0 1-2.14 1.12.21.21 0 0 1-.11 0c-.19-.09.33-.44.56-1.48a3.1 3.1 0 0 0-.06-1.73c.45.31 1.3 1 1.72 1.3s.17.52.02.7z" fill="#692f23"/><circle cx="83.98" cy="41.36" r=".68" fill="#fff"/><circle cx="55.9" cy="41.36" r=".68" fill="#fff"/><path d="M67.95 51.91a7.22 7.22 0 0 0 3.77.65c2.68-.06 3.16-.41 3.16-.41s.5-.11 0 .48a2.94 2.94 0 0 1-2.52 1.22 6.53 6.53 0 0 1-4.16-1.05c-.65-.61-1.06-1.37-.25-.89zM56.69 59.27a.38.38 0 0 1 0-.54 3.83 3.83 0 0 1 1.72-1 6.06 6.06 0 0 1 2.44.81c.63.3 4.31 1.65 10.66 1.92s9.39-1.27 9.65-1.27 4.92-2.33 5.49-2.26a.91.91 0 0 1 .92 1.07c-.2.55-.44.52-.83.26a1.4 1.4 0 0 0-1-.28c-.26.06-3.07 2-5.79 3.13s-5.22 1.22-8.34 1.18a26.54 26.54 0 0 1-8.14-1.72 25 25 0 0 0-4.81-1.83c-.83-.1-.66 1.36-1.97.53zM66.21 64.4s-.3-.18 0-.3 2.13.3 6 .44a29.43 29.43 0 0 0 6.6-.63c.15.09-1.24 2-6.47 2s-6.13-1.51-6.13-1.51zM90.52 178.96s4.44-1.22 5.38-1.66 3.27-2.11 3.66-2.05-.83 1.83-3.77 3.11-5.55 1.1-5.27.6zM120.77 146.99l-.46.2a4.68 4.68 0 0 0 .46-.2z" fill="#692f23"/><circle cx="66.74" cy="75.32" r=".69" fill="#692f23"/><circle cx="70.68" cy="74.44" r=".64" fill="#692f23"/><circle cx="78.34" cy="74.55" r=".64" fill="#692f23"/><circle cx="82.11" cy="75.6" r=".64" fill="#692f23"/><circle cx="85.72" cy="73.05" r=".64" fill="#692f23"/><circle cx="74.89" cy="80.76" r=".64" fill="#692f23"/><circle cx="453.07" cy="83.79" r=".64" transform="rotate(-81.96 262.119 303.844)" fill="#692f23"/><circle cx="457.68" cy="87.89" r=".64" transform="rotate(-81.96 266.731 307.952)" fill="#692f23"/><circle cx="462.23" cy="82.84" r=".64" transform="rotate(-81.96 271.278 302.904)" fill="#692f23"/><circle cx="462.34" cy="90.95" r=".64" transform="rotate(-81.96 271.389 311.008)" fill="#692f23"/><circle cx="462.01" cy="98.44" r=".64" transform="rotate(-81.96 271.055 318.495)" fill="#692f23"/><circle cx="458.01" cy="95.11" r=".64" transform="rotate(-81.96 267.06 315.166)" fill="#692f23"/><circle cx="74.4" cy="76.66" r=".69" fill="#692f23"/><path d="M128.93 138.72c-.17-1.22-.5-3.11-.5-3.11h-.06v-4.75a3 3 0 0 0-1.44-2.5 23 23 0 0 1-1.78-5.33c-.44-2.61-2.16-8.88-2.33-10a76.72 76.72 0 0 0-5.27-15.1c-2.83-5.55-4.22-9.93-12.65-17.37-.33-.06-4.11-3.55-8.6-4.41l-2.11-.55s-1.19-.94.28-1a31.45 31.45 0 0 0 8.63-2.28c.23-.11.42-.21.57-.31a46 46 0 0 0 6.61-3.66c2.86-2 4.66-3.25 6-4.08a18.2 18.2 0 0 0 4.27-4.16s2-1.61 4.47-6.58 2.05-10.29 2.22-12a31.28 31.28 0 0 0-.75-7.91c-.53-1.83-4.44-8.38-4.44-8.38a50.05 50.05 0 0 0-4.94-6.8c-2.25-2.36-9.46-9.3-11.85-11.07a15.18 15.18 0 0 0-5.43-2.39l-2-.7a40.21 40.21 0 0 1-6.07-1.85c-1.7-.85-5.48-1.81-7.36-1.11C82.51-.23 79.7-.01 78.96.03s-2.52.44-3.14.48-3.88.33-6.33.26a28.27 28.27 0 0 0-7.92 1.37 45.26 45.26 0 0 0-7.74 3.55s-6.36 3.88-9.88 6.18a39 39 0 0 0-8.66 8.07c-1.15 1.7-3.85 6.22-3.85 6.22A30.12 30.12 0 0 0 28.92 33a64.75 64.75 0 0 0-.78 10.84 41.64 41.64 0 0 0 1.52 8.35 63.29 63.29 0 0 0 2.36 6.45 18.1 18.1 0 0 0 2.9 3.91c1.44 1.26 3.85 4.44 4.81 5.18s4.37 3.44 5.14 3.92 2.81 1 3.22 1.26a23.45 23.45 0 0 0 3.63 1.81c1 .3 4.07.89 4.07.89a20 20 0 0 0 2.12.58l-2.32.86a19.72 19.72 0 0 0-6.35 2.94l-1.74 1.36a44.21 44.21 0 0 0-32.35 10.31c-4.29 3.55-11.25 11-13.47 20.42s-2.59 18.2 1.18 27.6a42.16 42.16 0 0 0 13.1 17.91 43.16 43.16 0 0 0 19.87 9.22 47 47 0 0 0 17.91-.21c.09.18 1.09 2.33 1.09 2.59s-.22 7.44.33 9.71.72 5.22.89 6.22 1.5 7 4.16 8.82l.3.2a27.11 27.11 0 0 0 1.14 6.46c1.11 3.44 2 6.55 1.55 7.21s-5-1.94-9.1-2-7.77.67-9.71 3.39-2.72 6.55-1.22 9.49 4.77 4.61 12.88 4.22c0 0 3-.39 4.55-.72s4.61-1.28 6.94-1.66 6.66-.67 7.94-.94l1.28-.28a8.24 8.24 0 0 0 2.16 5.49c2.33 2.61 7.71 1.89 8.6 1.83s6.38.06 8.77-.17 5.72-1 7.27-2.22 2.94-2.72 2.72-5.44-.17-3.88-2.66-6c0 0-1.66-1.17-2.33-1.55s-1.5-1.66-2.16-2.05a9 9 0 0 0-2.5-1c-.55-.06-.33-1.11.11-1.39s1.05-2.16 1.5-4.05.28-4.72.61-5.83a4.29 4.29 0 0 1 .83-2 7.31 7.31 0 0 0 4.33-5.22c.94-3.88.67-13.87.67-14.93s1-6.27 1.17-7.44 0-8.45 0-8.45l.11-2.55a4.14 4.14 0 0 0 1.41-.22c.31-.17.13-.79.48-1.21l.54-.32a.39.39 0 0 0 .2-.12l.38-.22s-.22 1.78-.28 2.66a12.85 12.85 0 0 1-.22 3.27c-.33.83-1.11 1.72-1.05 2.72a1.11 1.11 0 0 0 1.78.83 9.47 9.47 0 0 0 3.94-3.66s.55 3.11-.61 4.27-3.11 1.83-3.11 2.72.72 2.16 2.94 1.55a11.48 11.48 0 0 0 5.83-3.22 15.91 15.91 0 0 0 3.61-7.6 19.24 19.24 0 0 0-.83-7.77c-.55-1.05-1.11-1.94-.28-2.16.19-.05.17-.08 0-.1a3.92 3.92 0 0 0 1.7-.84 5.16 5.16 0 0 0 0-2.15l.2-.07a23 23 0 0 0 5.38-2.94 2.79 2.79 0 0 0 .96-3.04zm-33.1-62s8 1.44 15.46 11.93 9.66 22.48 10.38 23.75.17 4.11.17 4.61 1.33 1.44 1.61 2.72 1.78 6.38 1.28 8.1a14.7 14.7 0 0 1-7.38 3 21.62 21.62 0 0 1-7.77-.28c-1-.28-1.11-.39-1.44-1.78s-2.16-15.76-2.11-17.93a6 6 0 0 1 .78-3.16 15.53 15.53 0 0 0 .55-4.94c-.17-.94-.55-.61-.61.78s-.33 3.33-1.17 3.5c-.75.17-2.85-10.53-2.85-10.53s-.5-2.16-.55.28a79.36 79.36 0 0 0 1.89 10.93c1.17 3.94.78 6.22.94 8s.72 7.83 1.05 9.93 1.28 4.55.94 5.11-1.11.22-1.22 2 .39 1.83.33 3.44-.61 1.78-.17 3.72 1.39 1.83 1.28 2.55-5.16 2.28-8.44 2.89a145.06 145.06 0 0 1-18 1.4 33.12 33.12 0 0 0 3.32-7.07c.68-1 3.14-8.15 2.59-20.65a34.17 34.17 0 0 0-6.58-18 4.84 4.84 0 0 0 1.72-.83 2 2 0 0 0 .47-1.3l-.19-11.77s.17-6.13 1.05-7.6a6.81 6.81 0 0 1 1.71-2l.63-.3a5.13 5.13 0 0 0 1-.6 9.58 9.58 0 0 1 2.33-.82 25.1 25.1 0 0 1 7 .93zm-16 71.52l.36-.54c1.08 0 5-.07 8.34-.19a32.31 32.31 0 0 1-4.29 9s-.11.22-.55-.81a73 73 0 0 0-3.86-7.44zm3.15 8.86a19.45 19.45 0 0 1-2.55.07s-5 .06-6.5.1c-.18-.18-.15-1.22 4.22-6.7q.48-.6.92-1.21a21.17 21.17 0 0 1 3.89 7.75zm6.77-8.81c.48-.11 6.51 6.51 6.73 7.21.12.39-.38.6-.94.73a100.52 100.52 0 0 1-10.21.93c.28-.66 3.94-8.75 4.4-8.85zm.86-.86c.76 0 1.44-.07 2-.12a61.85 61.85 0 0 0 8.57-1.36c-.12.78-1 5.73-3.65 9 0 0-.18.15-.85-.48s-5.35-5.56-6.09-7.03zM40.99 31.99l.05-.07a4.71 4.71 0 0 0 .91 1.47 7.51 7.51 0 0 0-3.26 3.66c-.59 1.74-.41 4.11-.59 4.29a.21.21 0 0 1-.25 0 7.87 7.87 0 0 1-.78-1.77 22.88 22.88 0 0 1 .44-11.8 33.86 33.86 0 0 1 4-7.62 29.61 29.61 0 0 0-1.22 7.55 10.52 10.52 0 0 0 .7 4.29zm-2.89 12.3a2.73 2.73 0 0 1 2.26-1.46c-1.18-1.64-.74-5.64-.74-5.64a2.93 2.93 0 0 1 .85-1.92 12.46 12.46 0 0 1 4.59-1.63c1.66-.33 10.88-2.22 12-2.4s1.85-.41 2-.41a12.31 12.31 0 0 0 5.44.55s.3 0 .22-1.11 1.29-7.44 2.33-8.66a23.4 23.4 0 0 0 1.44 5c.48.92 1.15 5.48 1.33 5.88s.37.48 1.63 0a65.63 65.63 0 0 1 6.92-1.48 18.89 18.89 0 0 1 6.77-.15 40.88 40.88 0 0 0 7.84 1.11 8.37 8.37 0 0 0 3.59-.48c.18 0 .44.89 1.11 1.55a11.36 11.36 0 0 0 2 1.41 11.84 11.84 0 0 1 1.6 1.55c.8.94 1 2.33 1.44 4.08a3.55 3.55 0 0 0 2.89 2.47c.83.17 1.08-.36 1.61-.55s1-.25 2.66.31a3.29 3.29 0 0 1 1.94 2.47s.69 3.8-2.36 5.72l-.06.1a6.93 6.93 0 0 1-2.53 1.39c-.64 2.69-2.28 4.83-5.08 8a39 39 0 0 1-6.72 5.88 40.74 40.74 0 0 1-4.72 2.59l-.19.12-.25.14c-2.59 1.45-6.68 2.5-8.63 3.06a37.73 37.73 0 0 1-14.6-.06c-5.34-1.26-7.91-2.3-12-5.23a34.93 34.93 0 0 1-8.55-8.67 32 32 0 0 1-3-5.1 4.85 4.85 0 0 0-.59-1.55 16.13 16.13 0 0 1-2.5-1.36 13.17 13.17 0 0 1-2.05-3.49 3.56 3.56 0 0 1 .11-2.03zm72.51-5.1a15.7 15.7 0 0 1-4.72-3.16s3.61-.06 5.33 1.64a6.73 6.73 0 0 1 2.44 5.22c0 1.3-.18 1.65-.32 1.72h-.11c-.31-2.25-1.81-3.65-3.23-3.73s-4.13.61-4.83 0c-1.49-1.37-1.19-2.44-2.11-4.11a18 18 0 0 0-2.12-2.58l1.66 1a7.72 7.72 0 0 1 1.53.92 14.21 14.21 0 0 0 3.08 2.3 6.31 6.31 0 0 0 3.4.78zM81.23 85.73a10.37 10.37 0 0 1-4.78-1.54l-.37-.21.59-.49 5.16-4.22a38.64 38.64 0 0 0-.6 6.46zm-4-8c-.93.08-2.05.17-2.91.17-1 0-2.17 0-3.3-.08.57-.72 2.87-3.93 2.87-3.93a26.18 26.18 0 0 1 3.34 3.87zm-1.65-4c1.05 0 2.86-.1 4.69-.35-.1.22-.36.83-.49 1.12s-1.57 2.39-1.57 2.39c-.18-.29-.8-1.14-1-1.4s-1.28-1.3-1.63-1.69zm-5 2.85c-.26-.55-1.76-2.9-2.13-3.47 1.46.18 3 .34 4.23.46-.36.68-2.14 3.08-2.14 3.08zm2.11 2.43a21.63 21.63 0 0 0 4.73.07c.65-.11 1.88-.21 2.92-.3-.61.44-2.43 1.77-2.83 2.16s-1.55 1.39-2.57 2.3a14.9 14.9 0 0 1-5.28-4.3.28.28 0 0 1 0-.3zm2.44 6a27.06 27.06 0 0 0 5.48 1.76 5.47 5.47 0 0 1-.73.93c-.66.72-4.05 3.33-4.36 3.56a24.76 24.76 0 0 1-4.69-2.98l4-3.28zm6 2.69l.11 3.08-.06 2.47a25.66 25.66 0 0 1-4.41-1.22h-.15a58.61 58.61 0 0 0 4.44-4.22zm-2.11-10.19a4.07 4.07 0 0 0 .65-.75 28.45 28.45 0 0 0 1.76-3.22.35.35 0 0 1 .28-.32c.5 0 3.2 2.48 3.2 2.48a12 12 0 0 1-1.66.93 24 24 0 0 1-4.3.99zm4.22-4.79l.24-.08c1.19-.41 2.29-.8 3.13-1.11l.22 1.99a1.21 1.21 0 0 1-.17 1.15 11 11 0 0 1-.93.75l-.32-.51a6.84 6.84 0 0 0-2.24-2.08zm-19.44-.35c.49.1 1.13.21 1.86.32l-1.83 1.56a3.78 3.78 0 0 1-.11-1.77zm3.23.82c.84.55 2.4 3.81 2.7 4.52h-.14a30.18 30.18 0 0 1-3-.82 4.81 4.81 0 0 1-2.22-1.51l-.1-.12zm2 7.37c0-.31.06-.53.06-.53a14 14 0 0 0 4.64 4.42c-1 .85-3.25 2.54-4 3.1a12 12 0 0 0 0-1.89c-.24-1.02-.74-4.85-.71-5.15zm.6 8.52c.84.66 3.91 3.05 4.37 3.08h.08l-1 .53a45.27 45.27 0 0 0-3.46-3c-.03-.25-.02-.45 0-.66zm5.77 3.93a19.43 19.43 0 0 0 4.8 1.86 19.27 19.27 0 0 0-3 2.36 51.927 51.927 0 0 0-3.2-3.56 9.8 9.8 0 0 0 1.39-.71zm5.7 2.56c.09.71.34 2.94-.17 3.75a2 2 0 0 1-1.4.91q-.63-.9-1.29-1.75zm7.41-21.58a25 25 0 0 0-.37-2.88h.06l2.19-1.25a24.88 24.88 0 0 0 4.91-2.75 69 69 0 0 0 7.33-6.16c.2-.24.48-.59.81-1-.2.69-.53 1.76-.86 2.56a20.36 20.36 0 0 1-2.53 5.16c-1.57 2.22-7.22 5.2-11.55 6.27zm19.45-7.33c-.55 1.89-3.05 3.39-4.77 4.25a2.72 2.72 0 0 0-.48.3 18.86 18.86 0 0 1-6.9 1.81 19.51 19.51 0 0 0 3.64-2.39c1.69-1.44 3.19-4.55 4.25-8a34.68 34.68 0 0 1 1.86-5.16l.84-1.54.35-.49a9.94 9.94 0 0 1 2.08-2.93 9.7 9.7 0 0 0 1.29-1.58 12.28 12.28 0 0 0-.29 1.56 11.06 11.06 0 0 1-.83 3.52 8.75 8.75 0 0 0-1.17 3.27c-.19 1.33.67 5.44.12 7.33zm2.55-.25l-1.14 1.28a14.64 14.64 0 0 0-.14-4 7.65 7.65 0 0 1 .55-7.13l.06-.09a37.82 37.82 0 0 0 1.55 4.89 5.5 5.5 0 0 1-.89 5zm2.15-5.85a7.24 7.24 0 0 0-.85-2.25 9.07 9.07 0 0 1-.83-4.19 12.79 12.79 0 0 1 1.47-4.69 8.75 8.75 0 0 0 1.86-4.86v-.11c0 .8.1 7.14-.42 8.55 0 0 1.08-1.14 1.36-4.41a25.77 25.77 0 0 0-.14-6.55 25.84 25.84 0 0 1-1.17-4.8c-.08-1.86.55-2.3.58-5a13.71 13.71 0 0 0-.33-2.84c.47.62 3.71 5.09 4.8 9 1.17 4.22.69 6.8.94 8.55a7.38 7.38 0 0 1-1.28 6.1c-1.79 2.81-5 4.85-6 7.43zm4.5-28.64a26.37 26.37 0 0 1 4.28 5.38 17.75 17.75 0 0 1 1.17 8 10.14 10.14 0 0 1-1.58 4.15 33.77 33.77 0 0 0-.19-3.9 31.61 31.61 0 0 0-1.19-7.6 29.63 29.63 0 0 0-2.49-6.08zm-22-27.44c1 .26 2.18.55 2.18.55s3.19.46 7.63 3.88a130.14 130.14 0 0 1 10.49 9.57c-.08.08 2.41 2.41 4.05 4.72s3.52 7 4.19 7.88a10.23 10.23 0 0 1 2.22 5 56.6 56.6 0 0 1 0 11.07 21.26 21.26 0 0 1-2.66 6.8 58.26 58.26 0 0 1-4 5.58 36 36 0 0 1-5.83 5.13 8.41 8.41 0 0 1 .78-2.83 1.74 1.74 0 0 0 .16-.56 14.2 14.2 0 0 1 1.68-3.21c1-1.28 4.11-4.66 4.63-5.41a1.12 1.12 0 0 0 .15-.46 12.22 12.22 0 0 0 1.86-3.1 16.52 16.52 0 0 0 1-7.49 16 16 0 0 0-3.77-8.82 40.14 40.14 0 0 0-4-3.69 15.91 15.91 0 0 1-2.8-3.38c-.17-.48-2.16-4.87-2.47-5.61a14.4 14.4 0 0 0-2.61-4.86c-1.75-2-4.61-5.61-6.33-6.77s-5.07-2.85-5.07-2.85l-2.59-1.33a1.66 1.66 0 0 1 1.14.14zm-5.18-1.63c1.59.26 6.07 3.55 6.07 3.55a27.86 27.86 0 0 1 6.07 4.12 64.62 64.62 0 0 1 6.3 8c1.17 1.75 3.25 8.21 3.25 8.21a38.41 38.41 0 0 1 1 7.19c0 3.11.28 4-.69 3.47s-4.15-2.75-6.72-3.2h-.21a18.92 18.92 0 0 1-3.71-.91 3.58 3.58 0 0 1-2.72-3.39c0-1.09.7-7.31.86-8.63s.37-3.66-.3-5.59-3.66-5.29-5.29-7a64.6 64.6 0 0 0-7.7-6.1s.02-.38 3.82.23zm-14.91-.44a3.85 3.85 0 0 1 1.81-.85 17.7 17.7 0 0 1 4.4-.11 3.1 3.1 0 0 1 1.83.86.44.44 0 0 0 .2.25s1.18.89 2.11 4.25 1.29 8.66.92 9.66c0 0 .26.7.74-3.11s-1.26-9-1.26-9-.63-1.26.78-.52a67.53 67.53 0 0 1 6.81 5.48 32.91 32.91 0 0 1 4.22 6.66c.74 1.78.55 5.59.55 5.59 0 1.58-.09 5.42-1.09 7.37-1.22 2.39-3.44 1.78-5 1.89a18.29 18.29 0 0 1-5.49-.61 8.86 8.86 0 0 0-2.39-.44l1.11-1.22a4.84 4.84 0 0 0 .78-4.11 17.19 17.19 0 0 1-.5-3.16c-.39.55 0 2.89-1.22 5.61s-3.55 2.77-5.83 2.94a42.39 42.39 0 0 0-6 1.17c-1.55.61-1.66-.2-1.66-.2s-.52-2.29-.78-3.18-1-3.18-1.26-4.66c-.22-1.27-.34-4.82-.36-5.79a32.09 32.09 0 0 1 1.58-6.9c1.22-3.09 4.03-7.14 5.03-7.92zm-8.84-.11c4.59-1.11 6.47-.33 6.47-.33-2.07.74-4 3-6.14 5.55a17.36 17.36 0 0 0-3.44 6.88c-.41 1.63-.37 2.4-.15 2.4s.37-1.61 1.7-4.61A25.5 25.5 0 0 1 69 5.9a15.63 15.63 0 0 1 2.89-2c.7-.37 1.55-.52.74.41a33.54 33.54 0 0 0-3.92 7 14.44 14.44 0 0 0-1.19 6.3s-1.11 3-1.85 4.5a22.57 22.57 0 0 0-1.63 5.33c-.26 1.52.07 2.44-.37 2.85a4.08 4.08 0 0 1-2.89.18c-.52-.3-1.22-.67-.63-2.52s.78-2.44.78-2.44a11.68 11.68 0 0 1-2.29 3 11.75 11.75 0 0 1-4.29 1.7c-2.15.48-5.29 1.55-5.51 1.63s-1.41.92-2-1.11-.85-7.18 0-9.55 3.33-6.81 4.37-7.84a31.7 31.7 0 0 0 2.4-2.48c.24-.37 3.9-3.92 4.47-4.48a1.11 1.11 0 0 0 .23-.15 18.72 18.72 0 0 1 7.95-3.98zM54.61 6.8l-.11-.07a.24.24 0 0 0 .22.08c.3-.11 4.18-2.26 4.18-2.26l-2.3 1.64a41.7 41.7 0 0 0-5.29 5.25 36.4 36.4 0 0 0-5 8.81 19.22 19.22 0 0 0-1.41 7.51c.11 1.59 1.11 3.18.81 4.22a1.9 1.9 0 0 1-1.44 1.29c-.37.18-2.11-.74-2.59-2.29-.14-.45-.26-.56-.36-.51a6.72 6.72 0 0 1-.29-3.28 24.46 24.46 0 0 1 5.4-13 34.81 34.81 0 0 1 8.18-7.39zM32.83 26.63a28.91 28.91 0 0 1 6.66-9.92c4.55-4.22 7.33-5.18 7.33-5.18-.15.37-3.92 5.48-4.66 6.44a29.79 29.79 0 0 0-4.33 6 21.65 21.65 0 0 0-2.48 7.53 8.12 8.12 0 0 1-2.07 2.44c-1.41 1.11-2.7 4.07-2.85 4.33s-.74 1.55-.78.11 1.31-9.09 3.18-11.75zm.29 30.87c-.12-.22-.31-.5-.38-.68-.38-.95-1.14-3-1.58-3.81a18.38 18.38 0 0 1-1.43-5c-.3-2-.37-6.59.85-8.25s2.17-4.58 4.48-5.82c-.07.84-.11 1.64-.15 2.38a12.45 12.45 0 0 0 1.59 6.33l.18.42a8.71 8.71 0 0 0-1.7 3.84 26.87 26.87 0 0 0 0 9.58c.44 2.18 1 4.7 2.15 6.07a52 52 0 0 1-4.03-5.06zm16.71 15.38a7.29 7.29 0 0 1-4.29-3.29c-1.52-2.4-2.37-4.77-2.85-4.66s.07 1.33.44 2.22 1.89 3.37 3.33 4.14c0 0-1.07.26-3.11-1.66a24.76 24.76 0 0 1-5-6.51c-1.33-2.52-3.29-9.84-3.18-12.47 0 0 1.63 7.81 4.37 9.92 0 0-3.37-5.92-3.4-11.62 0-3.77.44-4.95.75-5.31v.06a4.28 4.28 0 0 0 .16.62 8.61 8.61 0 0 0 .36 3.79 18.51 18.51 0 0 0 1.42 2.8c.13.36.45 1.23.68 1.95.3.92 1.22 4 1.55 5s2.92 6.73 5.48 9.21 5.51 5.7 6.14 6.07a7 7 0 0 1-2.85-.26zm5 .74c-2-1.43-8-7.74-10.29-11.66a59.3 59.3 0 0 1-4-9.1c-.15-.37-.63-2.11.41-.7l1 1.41s1.43 2.26 4.09 5.94a54.7 54.7 0 0 0 8.56 8.68 39.42 39.42 0 0 0 6.11 3.27l.4.17a1.79 1.79 0 0 1 .69 1 11.17 11.17 0 0 1 .6 2.3.92.92 0 0 1-.61.49l-2.18-.07a8.44 8.44 0 0 1-4.78-1.73zm1 4.37s1.05-.08 1.47-.14 4.38-1.58 4.94-1.66a1.36 1.36 0 0 1 1.35.39 7 7 0 0 0 1.69 1.07 2.43 2.43 0 0 0 .77.18 4.09 4.09 0 0 1 1.89 2.68 69.6 69.6 0 0 1 .47 8.23 14.5 14.5 0 0 0-2.45-1.48c-3.4-1.47-8.52-4.74-16.89-5.78.76-.6 3.99-2.94 6.76-3.5zm-3 86.83a43.27 43.27 0 0 1-24-1.7 42.68 42.68 0 0 1-21.31-17.93 34.1 34.1 0 0 1-5.55-17.39c-.3-7.47.37-16.35 4.51-23.68a38.5 38.5 0 0 1 9.77-11.62 46.8 46.8 0 0 1 25-9.79c.18 0 10.88-.28 16.93 2.77s12.23 4.81 19.56 14.71a38.36 38.36 0 0 1 7 27.42c-.7 6.11-2 11.72-2.77 13.39l-.14.19v.1l-.05.13c-3 7.11-6.48 10.66-7.16 11.3l-.07.15a42.08 42.08 0 0 1-7.73 6.44 33.76 33.76 0 0 1-8.21 4.11 44.46 44.46 0 0 1-5.78 1.39zm20.72-9.11a3.13 3.13 0 0 1-.3.45 10.42 10.42 0 0 1-1.55 1.37 15.35 15.35 0 0 0 1.82-1.83zm-10.43 45c-.19-.83-.35-1.5-.43-1.83a7.5 7.5 0 0 1-.24-2.29c.4.65 1.18 1.32 3.51 2.12 3.39 1.17 11.27.11 11.27.11s-2.55 2.61-8.1 2.83c-3.81.16-5.4-.57-6.03-.94zm-.21-5.3c3.13 1.34 7.61 2.36 11.56 1.45a17.39 17.39 0 0 0 3.25-1.18.51.51 0 0 1 .41.29 6.77 6.77 0 0 1 .09 1 19 19 0 0 1-10.67 1.22c-3.09-.56-4.27-2.09-4.66-2.78zm3.52 14.68h.06c-.41.06-1 .18-1.54.28s-1.63.24-1.84-.5 2.94.1 3.3.22zm-2.64-6.47c.9.76 2.62 1.24 5 1.81 2.77.67 8.38-.33 7.94 0a9.45 9.45 0 0 1-1.78.78 22.06 22.06 0 0 1-10.31 1.08zm-7.41 3.85a12.07 12.07 0 0 1 2.25.36s2.47 1 2.58 1.68-1.1.81-1.28.86c-.74.07-2.18 0-2.22-.22a2.35 2.35 0 0 0-.55-1.29c-.4-.39-1.25-1.24-.81-1.39zm-5.4 1.63c.3-1.52 2.33-2.18 2.33-2.18h1a5.75 5.75 0 0 1 2.08 2.19 1.1 1.1 0 0 1-.33 1.66 19.26 19.26 0 0 1-4.85 1.22c-1.03.07-.55-1.38-.26-2.89zm-5 .39a2.72 2.72 0 0 1 .62-1.09 9 9 0 0 1 3.9-1.35c-1.09 1-1.41 5-1.41 5a4 4 0 0 1-2-.31s-1.41-1.42-1.13-2.26zm-2.37 4.64a7.47 7.47 0 0 1 .14-1.52 2.17 2.17 0 0 1 .61-.6.84.84 0 0 1 .65.24 7.55 7.55 0 0 0 4 1.52 19.87 19.87 0 0 0 0 2.52c.11.44-.12.38-.46.38h-.28c-2.22-.12-3.51-.53-4.39-1.89a3.07 3.07 0 0 1-.29-.66zm6.14 7h-.22c-2.19-.48-4.38-1.4-5.2-2.95a.6.6 0 0 1 .15-.71c.44-.15 1.86.82 4.86 1a3.42 3.42 0 0 0 .08 1.46 2 2 0 0 1 .31 1.2zm.87-4.64c-.11-.36-.35-2.72-.06-2.95a3.19 3.19 0 0 0 1.41-.07c1.22-.18 4.55-1.11 5.14-.55s.74 2.74.18 3.18a1.68 1.68 0 0 1-.48.26l-.44.1h-.28c-1.39.13-2.77.21-4.08.21h-1.23a.23.23 0 0 1-.18-.19zm6.79 4.08h-.06l-1.59.27h-.35.08c-1 .15-2.07.28-3.08.33a1.76 1.76 0 0 1-1.11-1.23c-.26-1.29 0-1.52.55-1.63h.06l1.88-.16s3.66-.52 4.11 0a1.74 1.74 0 0 1-.51 2.41zm1.26-8.66a1.5 1.5 0 0 1 1.15-.44c.27 0 1.44-.05 1.94 0a2.48 2.48 0 0 1 1.05.35c.92.67 1.41 3.22 1.29 3.4a34.79 34.79 0 0 1-4.65.84 3.44 3.44 0 0 0-.12-1.46c-.27-1.03-.9-2.25-.68-2.69zm5.81 6.62a2 2 0 0 1-1.28 1.14c-1.4.17-2.73.34-3.77.52a13.61 13.61 0 0 0 .28-1.58c0-.55 0-.81.44-1s3.81-.78 4.18-.52a1.31 1.31 0 0 1 .13 1.44zm.81-5.59c-.41-.92-.52-1.18-.07-1.18a8.81 8.81 0 0 0 2.15-.07 1.42 1.42 0 0 0 1-.55 7.28 7.28 0 0 1 1.66 3.18v.09c-1.07.24-2.37.48-4.06.72a14.64 14.64 0 0 0-.7-2.19zm4.35-2.39a22.05 22.05 0 0 0 4.07.27.44.44 0 0 1 .24.11 9.24 9.24 0 0 1 .8 1.89 13.86 13.86 0 0 1-1.92.81c-.39.13-.8.25-1.26.38a7.09 7.09 0 0 0-1.95-3.46zm-.28 8.05a2.2 2.2 0 0 1-.46.38l-.72.1-1.24.15c-.4 0-.89-.1-.87-.41 0-.52.18-1.78.18-1.78s-.15-.22.31-.3a31.09 31.09 0 0 0 3.79-.46 5.21 5.21 0 0 1-1.01 2.32zm5.6-2.59a3.89 3.89 0 0 1-1.19 2.17l-2.31.4a3.66 3.66 0 0 0 .53-2.62 14.48 14.48 0 0 0 2.84-.93l.22-.11a4.37 4.37 0 0 1-.11 1.1zm.22-5.47a8.64 8.64 0 0 0 2.29-1 1.11 1.11 0 0 1 .31.14l.19.15a1.2 1.2 0 0 1-.3 1 6.31 6.31 0 0 1-1.65 1.36 4.65 4.65 0 0 0-.37-.81zm2 5.59a4.25 4.25 0 0 1-1.12 1.62h-.09a4.5 4.5 0 0 0 .63-2.42 7.38 7.38 0 0 0-.06-1.17 4.67 4.67 0 0 0 1.64-1.16 10.9 10.9 0 0 1-1.03 3.19zm1.05-9.16c-.28 1.17-2.33 2.16-2.61 2.28h.1a15.16 15.16 0 0 1-3.82.51 12.55 12.55 0 0 1-5.49-1.11 23.34 23.34 0 0 0 8.21-1.17 15.74 15.74 0 0 0 3.71-1.82 8.63 8.63 0 0 1-.13 1.33zm-4.94-2.22a21.51 21.51 0 0 1-9-2.16c1 .33 6.33.17 8.94-.44a17.53 17.53 0 0 0 5.11-2.44v3.28c-.24.48-1.25 1.73-5.08 1.78zm3.05-9.88c-2.77 1.17-7.6 1.94-10.54.44a12.25 12.25 0 0 1-1.89-1.66c-.78-.89-3.5-7.6-3.66-7.49s.89 5.27 2 6.16a1.43 1.43 0 0 1 .55.89c-.06.39-2.11-.33-3.11-2.55a39.87 39.87 0 0 1-2.61-12.71l-.39-6s3 2.94 3.5 2.44-1.83-1.72-2.94-3.55a33.66 33.66 0 0 1-2.15-4.72c1.79-.59 4.95-1.65 7.05-2.55a41.24 41.24 0 0 0 7.44-4.4l2.82.56a5.33 5.33 0 0 1 1.59 2.18 1 1 0 0 0 .13.25 17.56 17.56 0 0 0 .5 1.71c.33.89 2.22 11.38 2.72 14.76s1.66 10.82 1.78 12.54-.04 2.55-2.82 3.72zm2.72 22.37s-.11-.44.5-.17a4.72 4.72 0 0 0 2.39.39c.05 0 .18 0 .28.38a8 8 0 0 1 .18 2.39.6.6 0 0 1-.71.47 3 3 0 0 1-1.94-.74 3.29 3.29 0 0 1-.73-2.71zm7.27-15.43a56.63 56.63 0 0 0 7.16-.11c-5.33 2.44-12.22 1.21-13.7.82 0-.51 0-1-.06-1.37s0-1 0-1.54c.79.83 3.68 2.01 6.57 2.22zm-6.5-4.45a9.33 9.33 0 0 1 .18-1.19c.26-1.08.37-1.73 1.1-1.91a6.06 6.06 0 0 0 1.79 1.35 19.16 19.16 0 0 0 8.82 1.55 15.67 15.67 0 0 0 4.66-1.05 23.07 23.07 0 0 1-10.93 2.55c-4.09-.04-5.3-.85-5.62-1.3zm11.42 14.1a3.62 3.62 0 0 1 1.57-.35 12.32 12.32 0 0 1 2.79.15c.78.26 1.65 2.51 1.61 2.62a47.41 47.41 0 0 1-5.67.15 1.18 1.18 0 0 1-.6-.86 1.55 1.55 0 0 1 .27-1.72zm-.5-1a.77.77 0 0 1-.22-.93.69.69 0 0 1 .29-.21c.88 0 1.73-.07 2.53-.07a1.31 1.31 0 0 1 .47.17 1.23 1.23 0 0 1 .58.87c-.07.1-1.18 0-1.78.07a7.65 7.65 0 0 1-1.9.07zm4.08-3.47a4.36 4.36 0 0 1-2.61 1.22c-1.05.17-4.22.33-5.38.5a29.71 29.71 0 0 1-5.01.48c-1.17-.11-1.72-2-1.83-2.72-.06-.36-.13-1.31-.19-2.36v.08c1.55 1.72 3.94 2.22 7.6 2.5a33.41 33.41 0 0 0 8-.64 3.41 3.41 0 0 1-.58.94zm-14.57 8.31a1.92 1.92 0 0 1 1.21-.94c.47-.19 1.23-.61 1.3-.62a7.65 7.65 0 0 0-.54 2 5 5 0 0 1-1.62.14.53.53 0 0 1-.38-.58zm2.18-2.79a10.07 10.07 0 0 0-2.55 1.51 2.57 2.57 0 0 1 .07-1.26 3.71 3.71 0 0 1 .61-.89 8.53 8.53 0 0 1 1.17-1 7.47 7.47 0 0 1 .77-.36 2.63 2.63 0 0 1 1.28 0s.07 0-.06.31a6.71 6.71 0 0 0-.31 1.14 2 2 0 0 1-1.01.55zm2.25.67c1-.87 1.91-1.23 4.28-1.55a8 8 0 0 0 .58 2.53c.07.15-.1.22-.75.36s-4.23.83-5.08.93a3.17 3.17 0 0 1 .93-2.26zm.37-2.33a5.38 5.38 0 0 1 4.2-1.21 3.57 3.57 0 0 0-.26.92 12.45 12.45 0 0 0-3.91.83s-.56.02-.06-.55zm-3 14a2.41 2.41 0 0 1-.86-.18 3.74 3.74 0 0 1-1.88-2.54.64.64 0 0 1 0-.49c.14-.08 1 .43 2.1.53a9.45 9.45 0 0 1 1.42.11 10.36 10.36 0 0 1 .89 2.34 4 4 0 0 1-1.73.19zm1.47-5.66c0-.43-.25-1.58.06-1.94s2.51-.5 3-.61 3.09-.53 3.45-.53a.72.72 0 0 1 .33.34 20.53 20.53 0 0 1 1.23 3.93s.06.44-.72.58-5.05.12-5.05.12a4.07 4.07 0 0 1-1.86-.25 2.94 2.94 0 0 1-.44-1.64zm8.62 4.16c0 .57 0 1.28-.4 1.51a2.8 2.8 0 0 1-1.25.15c-1.5-.14-3.17-.15-4.68-.14a1.29 1.29 0 0 1-.84-.7 5.1 5.1 0 0 1-.75-1.93c.06-.25.74 0 2.29.1s4.73 0 5 0a.94.94 0 0 1 .63.99zm.74-3.52c-.19-.58-1.14-3.44-1-3.86s.89-.29 1.65-.25 3.75-.36 4.36-.28 1 1.07 1.28 1.48.66 1.34.81 1.73a1.55 1.55 0 0 1-.18 1.43c-.5.64-1 .93-3 .87a12 12 0 0 1-3.61-.65c.17-.19-.13.09-.32-.49zm6.52 4.34a2.76 2.76 0 0 1-1 .78 27.06 27.06 0 0 1-3.53.31 1.23 1.23 0 0 1-.84-.83c-.12-.67-.17-1.91.08-2s2.5-.07 3.37-.15a15.56 15.56 0 0 0 2.64-.6c.38-.18.01 1.62-.73 2.51zm5.44-5.11a5.57 5.57 0 0 1-.62 3.15 5.4 5.4 0 0 1-3.13 2.11 7 7 0 0 0 .62-3.07 6.48 6.48 0 0 0 2.5-1.32 2.11 2.11 0 0 0 .61-.89zm-.61-2.66v.12a4.13 4.13 0 0 1-1.48 2.76 1.94 1.94 0 0 1-1.23.47c-.31-.13-.3-1-.46-1.4a24.77 24.77 0 0 0-1.26-2.46c-.24-.24.06-.32.32-.22s3.55.52 4.11.71zm-2.67-3.41c.54.4 1.42 1.1 1.34 1.36s-3.25-.19-3.58-.26a.86.86 0 0 1-.74-.49c-.21-.37-1.39-1.78-1-1.82a20.37 20.37 0 0 1 3.98 1.19zm-3.89-3.48a1.87 1.87 0 0 1 1.35.91.4.4 0 0 1-.29.39 4.13 4.13 0 0 1-2.48-.54 4.5 4.5 0 0 1-1-1 10.15 10.15 0 0 1 2.42.21zm-1.56-5.06c-.74.49-2.54 1.28-6.54 1.4-5.83.14-7.75-1.66-7.75-1.66a16.18 16.18 0 0 0 6.94.06 36.59 36.59 0 0 0 8.28-2.9 31.16 31.16 0 0 1-.93 3.07zm1.39-5.43v.26c-.65.61-2.3 1.41-7.5 1.41-7.38 0-8.77-1.55-8.77-1.55a25.54 25.54 0 0 0 8.66.22 17.42 17.42 0 0 0 7.56-2.83 4.36 4.36 0 0 1 .05 2.46zm6.72-38s0 7.94-.55 10.27a7.72 7.72 0 0 1-1.39 2.94c.06.22.78.11 1.11 2.44s-.11 10.38-.78 12.6a7.21 7.21 0 0 1-3.77 4.55 9.62 9.62 0 0 0 2.22-4.77c.5-3 .06-5.44-.17-5.44s-.22 3.11-.94 5.49-3.94 4.83-5.72 5.72a1.75 1.75 0 0 0-.27.16 8.5 8.5 0 0 1-4.22 1c-2.72-.06-3.83-.06-4.77-3.83a13.87 13.87 0 0 1-.33-2.11v-.06a5.19 5.19 0 0 0-.11 2.89 10.43 10.43 0 0 0 1 2.72c.28.33-1.83-.17-2.77-1.28s-2.16-3.55-3.16-10.32-3.42-21.18-3.63-22.22a1 1 0 0 0-.11-.29 1.72 1.72 0 0 1 .22-1.71c.7-.7 1.63-.74 4-.52s7.88.59 10.73 0 10.62-2.4 11.91-2.48 1.48.81 1.63 2.18zm-1.48-6.23a23.22 23.22 0 0 1-3.78.94l.19-.09a2.63 2.63 0 0 1-.81 0c-.18-.07 3.11-4.4 4-8.84 0 0 2.7 3.59 3.11 6.1-.05 0-.27.85-2.71 1.85zm5.48-2.6a1.58 1.58 0 0 1-1.28 1.17s-1.17-2.68-2.13-4.87a9 9 0 0 0-1.95-2.93 18.75 18.75 0 0 0 4.46-1.75l.18-.11a19.57 19.57 0 0 0 .34 3.79.73.73 0 0 0 .09.54s.67 3.02.29 4.16zm12.43 4.27a8.91 8.91 0 0 1-1.78 6.22 2.14 2.14 0 0 1-.94.83s1.05-3.05 1.55-3.44-.55-.22-1.5 1.22-2.11 4.11-2.83 5a6.5 6.5 0 0 1-3.72 1.55c-.94.06-1.11-.44.33-1.17s2.28-2.22 2.16-5.05-1-3.61-1-3.61-2.39 4.11-3.88 4.44-.83-.72.06-1.33.78-7.38 1.28-9.21a16.35 16.35 0 0 1 1.11-3 27.22 27.22 0 0 0 4.61.11 11.86 11.86 0 0 1 2.77-.5c.33.14 1.61 4.67 1.78 7.91zm-10.83-7.82l.54.09-.43.81s-.03-.41-.11-.9zm10.93-1.65a2.73 2.73 0 0 1-1 .44l.58-.25a10.86 10.86 0 0 1-1.55.45l-.54.08h-.07a18.33 18.33 0 0 1-3.59.24c-4.11-.11-5.11-.72-5.11-.72a.49.49 0 0 0-.15-.11.2.2 0 0 0-.07-.11 3.77 3.77 0 0 1-.55-2.72c.11-1.11.67-.78 1.83-.22a17.41 17.41 0 0 0 5.88 1.33c2.33.11 4.44-.67 4.66-.33a1.75 1.75 0 0 1-.31 1.92zm6.66-6.6c-.39.67-2.22 2.66-8.32 3.44a16.59 16.59 0 0 1-9.88-1.44.61.61 0 0 0-.27-.16 3.31 3.31 0 0 1-1.29-1.89c-.39-1.5.33-3.16.5-4.33s-.89-3-.28-3.77 3.11.89 9.82-.28c5.94-1 7.32-2.28 7.56-2.55.31 0 .9.11 1.54 1.17.94 1.55-.06 3.61-1.83 4.33a17.74 17.74 0 0 1-4.5 1.39c-.61-.06 3.66.39 5.11-.28s1.61-.44 1.94.67a4.67 4.67 0 0 1-.09 3.7z" fill="#692f23"/><path d="M77.52 117.75a32.53 32.53 0 0 0-5.4-12.51 35.49 35.49 0 0 0-15.1-12.21c-5.55-2.22-11.06-4-19.17-2.59a34.21 34.21 0 0 0-15 5.88 40.22 40.22 0 0 0-10.21 11.43 31.87 31.87 0 0 0-3.66 16.72 37.79 37.79 0 0 0 4 15.84c1.33 2.69 7.7 10.51 13.62 13.84a37.13 37.13 0 0 0 20.5 4.44c6.51-.67 11.4-2.22 15.91-5.25s8.25-8.07 9.92-10.66a37.12 37.12 0 0 0 4.77-11.73 33.18 33.18 0 0 0-.18-13.2zm-.7 5.55c.06 7.49-.46 8-2 12.43-1.7 5-6.59 11.69-11 15.32a30.2 30.2 0 0 1-14.87 6.14 38 38 0 0 1-14.36-1c-3.48-.89-7.68-3.63-10.62-5.51-3.11-2-6.77-6.55-8.21-8.66a38.24 38.24 0 0 1-5.22-15.54c-.89-7.47 2.37-15.87 3.48-17.8s5.19-9 11.51-12.62c6-3.44 11.43-4.16 16.09-4.66 4.88-.38 9.55.18 16.95 3.51s12.8 12.06 13.47 13 4.72 8.12 4.79 15.39zM70.46 149.4a1.85 1.85 0 1 0 1.85 1.85 1.85 1.85 0 0 0-1.85-1.85zm0 3.12a1.27 1.27 0 1 1 1.27-1.27 1.27 1.27 0 0 1-1.27 1.27zM43.67 160.42a1.85 1.85 0 1 0 1.85 1.85 1.85 1.85 0 0 0-1.85-1.85zm0 3.12a1.27 1.27 0 1 1 1.27-1.27 1.27 1.27 0 0 1-1.27 1.27zM16.96 149.32a1.85 1.85 0 1 0 1.87 1.87 1.85 1.85 0 0 0-1.87-1.87zm0 3.12a1.27 1.27 0 1 1 1.27-1.25 1.27 1.27 0 0 1-1.27 1.25zM43.75 84.58a1.85 1.85 0 1 0 1.85 1.85 1.85 1.85 0 0 0-1.85-1.85zm0 3.12a1.27 1.27 0 1 1 1.27-1.27 1.27 1.27 0 0 1-1.27 1.26zM16.78 95.57a1.85 1.85 0 1 0 1.85 1.85 1.85 1.85 0 0 0-1.85-1.85zm0 3.12a1.27 1.27 0 1 1 1.27-1.27 1.27 1.27 0 0 1-1.27 1.26zM5.68 122.54a1.85 1.85 0 1 0 1.85 1.85 1.85 1.85 0 0 0-1.85-1.85zm0 3.12a1.27 1.27 0 1 1 1.27-1.27 1.27 1.27 0 0 1-1.27 1.26zM70.6 95.65a1.85 1.85 0 1 0 1.85 1.85 1.85 1.85 0 0 0-1.85-1.85zm0 3.12a1.27 1.27 0 1 1 1.23-1.27 1.27 1.27 0 0 1-1.23 1.27zM81.59 122.62a1.85 1.85 0 1 0 1.85 1.85 1.85 1.85 0 0 0-1.85-1.85zm0 3.12a1.27 1.27 0 1 1 1.27-1.27 1.27 1.27 0 0 1-1.27 1.27z" fill="#692f23"/><circle cx="78.56" cy="155.13" r=".75" fill="#692f23"/><circle cx="84.22" cy="149.91" r=".75" fill="#692f23"/><circle cx="90.88" cy="154.46" r=".75" fill="#692f23"/><circle cx="96.71" cy="149.25" r=".75" fill="#692f23"/><circle cx="102.42" cy="152.58" r=".75" fill="#692f23"/><circle cx="106.42" cy="146.86" r=".75" fill="#692f23"/></svg>