<svg xmlns="http://www.w3.org/2000/svg" width="34.93mm" height="33.55mm" viewBox="0 0 99.03 95.11"><title>Генеральная</title><path d="M55.45 6.13v-5a.6.6 0 0 1 .6-.6h6.47a.6.6 0 0 1 .6.6v5h-7.67z" fill="#f08119"/><path d="M62.52 1a.1.1 0 0 1 .1.1v4.53h-6.67V1.1a.1.1 0 0 1 .1-.1h6.47m0-1h-6.47a1.1 1.1 0 0 0-1.1 1.1v5.53h8.67V1.1a1.1 1.1 0 0 0-1.1-1.1z" fill="#682f24"/><path d="M38.14 70.2a5.07 5.07 0 0 1-5.06-5.06V31.65c0-2.34 1.7-4 5.36-5.11 14.77-4.61 17-14.5 17.39-17.41h6.79v56a5.07 5.07 0 0 1-5.06 5.06H38.14z" fill="#e7c3a0"/><path d="M61.62 10.13v55a4.06 4.06 0 0 1-4.06 4.06H38.14a4.06 4.06 0 0 1-4.06-4.06V31.65c0-.74 0-2.7 4.66-4.15 14-4.37 17.22-13.47 17.94-17.37h4.94m2-2h-8.69a1.72 1.72 0 0 0 0 .18s-.24 12.07-16.79 17.28c-3.2 1-6.06 2.71-6.06 6.06v33.49a6.06 6.06 0 0 0 6.06 6.06h19.41a6.06 6.06 0 0 0 6.06-6.06V8.3a1.48 1.48 0 0 0 0-.18z" fill="#682f24"/><g stroke="#682f24" stroke-miterlimit="10"><rect x="6.49" y="8.3" width="5.07" height="4.45" rx=".7" ry=".7" fill="#f08119"/><path d="M38.95 42.38a14.63 14.63 0 1 0-29.26 0v24.18a6.06 6.06 0 0 0 6.06 6.06h17.1a6.06 6.06 0 0 0 6.06-6.06v-24-.09c0-.03.04-.04.04-.09z" fill="#fde9d3" stroke-width="2"/><path d="M30.69 8.12h-19.5a1.46 1.46 0 0 0-1.5 1.46V13a1.46 1.46 0 0 0 1.46 1.46h7.38l2.77 8.16h6v-8.16h3.39A1.46 1.46 0 0 0 32.15 13V9.58a1.46 1.46 0 0 0-1.46-1.46z" fill="#fbf4ee"/><path d="M27.38 22.19H21.3a1 1 0 0 0-1 1v5.19h8.14v-5.19a1 1 0 0 0-1.06-1zM14.54 14.46a11.1 11.1 0 0 1-3.65 9.15A36.17 36.17 0 0 1 6.08 27l.75.8a21 21 0 0 0 8.16-4.63c4.37-4.37 3.58-8.7 3.58-8.7h-4z" fill="#fbf4ee"/></g><g stroke="#682f24" stroke-miterlimit="10"><path d="M87.34 38.3c-.7-9.29-7.16-16.57-15-16.57s-14.32 7.28-15 16.57a2.41 2.41 0 0 0-.07.56v30.71a2.46 2.46 0 0 0 2.47 2.46H85a2.46 2.46 0 0 0 2.46-2.46V38.86a2.53 2.53 0 0 0-.12-.56z" fill="#f08119" stroke-width="2"/><path d="M77.12 16.6h-9.6a.9.9 0 0 0-.9.89v4.49h11.39v-4.49a.89.89 0 0 0-.89-.89z" fill="#e2ddd3"/></g><path d="M6.92 59.32l4.59 29.12a5.67 5.67 0 0 0 5.67 5.67h64.66a5.67 5.67 0 0 0 5.67-5.67l4.59-29.12H6.92z" fill="#e2ddd3" stroke="#682f24" stroke-linecap="round" stroke-linejoin="round" stroke-width="2"/><rect x="1" y="50.92" width="97.03" height="8.4" rx="1.94" ry="1.94" fill="#fbf4ee" stroke="#682f24" stroke-linecap="round" stroke-linejoin="round" stroke-width="2"/><g stroke="#682f24" stroke-linecap="round" stroke-linejoin="round"><path d="M40.38 50.92l-7.09 7.82s0 6.28-1.4 9.13c-.83 1.7-4.28 9.84-7.58 8.08-1.81-1 2.13-8.88 2.13-8.88L15.01 78.29a2.312 2.312 0 1 1-3.27-3.27l-1.9 1.9a2.32 2.32 0 0 1-3.27-3.28l1.54-1.54a2.31 2.31 0 0 1-2.87-3.59l3.36-3.36a2.312 2.312 0 0 1-3.27-3.27l10.11-10.11c3.12-3.12 2.26-2.28 2.26-2.28a43.19 43.19 0 0 1 12.62-1.11c7.72.6 10.06 2.54 10.06 2.54z" fill="#f08119" fill-rule="evenodd"/><path fill="#ff8300" d="M11.79 74.97l6.9-6.9M8.11 72.11l7.8-7.8M8.74 65.02l4.29-4.29M25.65 67.87l2.76-2.75"/></g><g stroke="#682f24" stroke-linecap="round" stroke-linejoin="round"><path d="M36.85 49.63l-.09 3s-4.28 4.6-5.23 7.61c-.57 1.79-3.67 10-.14 10.9 1.93.48 4.54-7.91 4.54-7.91l.44 15.73a2.18 2.18 0 0 0 2.31 2.15 2.37 2.37 0 0 0 2.23-2.4v2.64a2.18 2.18 0 0 0 2.31 2.15 2.37 2.37 0 0 0 2.23-2.4v-2.13a2.17 2.17 0 0 0 2.24 1.65 2.37 2.37 0 0 0 2.23-2.4l-.09-4.67a2.18 2.18 0 0 0 2.32 2.15 2.37 2.37 0 0 0 2.23-2.4l-.27-14c-.08-4.34 0-9.83 0-9.83s-1.81-.58-8.27-.63a45.23 45.23 0 0 0-8.99.79z" fill="#f08119" fill-rule="evenodd"/><path fill="#ff8300" d="M40.91 78.65l-.18-9.59M45.47 78.98l-.21-10.85M49.85 73.37l-.11-5.96M35.95 64.34l-.07-3.83"/></g></svg>