<svg xmlns="http://www.w3.org/2000/svg" width="46.53mm" height="31.26mm" viewBox="0 0 131.9 88.61"><title>Домашний мастер</title><path d="M86.67 28.87a14.19 14.19 0 1 1 14.19-14.19 14.2 14.2 0 0 1-14.19 14.19zm0-25.06a10.87 10.87 0 1 0 10.87 10.87A10.88 10.88 0 0 0 86.67 3.81z" fill="#e1670f"/><path d="M86.67 1.02a13.69 13.69 0 1 1-13.69 13.69A13.7 13.7 0 0 1 86.67 1.02m0 25.06a11.37 11.37 0 1 0-11.35-11.39 11.38 11.38 0 0 0 11.35 11.33m0-26.06a14.69 14.69 0 1 0 14.65 14.73A14.69 14.69 0 0 0 86.67.02zm0 25.06a10.37 10.37 0 1 1 10.37-10.37 10.37 10.37 0 0 1-10.37 10.37z" fill="#692f17"/><rect x="42.45" y="15.86" width="88.46" height="64.33" rx="7.29" ry="7.29" fill="#f08119" stroke="#692f17" stroke-linejoin="round" stroke-width="2"/><path d="M130.9 32.4v-9.25a7.29 7.29 0 0 0-7.29-7.29H49.74a7.29 7.29 0 0 0-7.29 7.29v9.25" fill="#fde9d3" stroke="#692f17" stroke-linejoin="round" stroke-width="2"/><path fill="#e2ddd3" stroke="#692f17" stroke-linejoin="round" d="M42.45 32.4h88.45"/><g><rect x="73.36" y="28.6" width="26.63" height="7.6" rx="1.87" ry="1.87" fill="#fbf4ee"/><path d="M98.12 29.1a1.37 1.37 0 0 1 1.37 1.37v3.87a1.37 1.37 0 0 1-1.37 1.37H75.23a1.37 1.37 0 0 1-1.37-1.37v-3.87a1.37 1.37 0 0 1 1.37-1.37h22.89m0-1H75.23a2.37 2.37 0 0 0-2.37 2.37v3.87a2.37 2.37 0 0 0 2.37 2.37h22.89a2.37 2.37 0 0 0 2.37-2.37v-3.87a2.37 2.37 0 0 0-2.37-2.37z" fill="#692f17"/></g><path d="M71.76 77.02a10.75 10.75 0 1 1 10.75-10.75 10.76 10.76 0 0 1-10.75 10.75zm0-16.5a5.75 5.75 0 1 0 5.75 5.75 5.76 5.76 0 0 0-5.75-5.7zM.5 52.53a1.88 1.88 0 0 1 1.88-1.87h49.74A1.88 1.88 0 0 1 54 52.54a1.88 1.88 0 0 1-1.87 1.88H2.37A1.88 1.88 0 0 1 .5 52.55z" fill="#e2ddd3" stroke="#692f17" stroke-linejoin="round"/><path d="M86.96 47.78a5.66 5.66 0 0 0-.45-2.21 8.51 8.51 0 0 0-8.14-6H41.1a13 13 0 0 0 0 26H72.08l2.88 16.41a5.67 5.67 0 0 0 5.67 5.67h6.69a5.67 5.67 0 0 0 5.67-5.67z" fill="#e2ddd3" stroke="#692f17" stroke-linejoin="round" stroke-width="2"/><path d="M31 44.62a8.17 8.17 0 1 0 0 15.81V44.62z" fill="#f08119" stroke="#692f17" stroke-linejoin="round"/></svg>