<svg xmlns="http://www.w3.org/2000/svg" width="200" height="200" viewBox="0 0 200 200"><title>ценитель_1</title><g data-name="Слой 2"><path fill="none" d="M0 0h200v200H0z"/><circle cx="112" cy="107.31" r="84.09" fill="#f2f2f2"/><path d="M78.09 117.59s-2.07 17.6-2.71 25.34-.41 24.44-1.05 26.24-1.24 3.16-8.5 3.31a33 33 0 0 1-20.08-6.17c-6.5-4.4-8.65-9.55-8.57-9.93s-1.65 0-4.36-.38-6.09-3.35-6.39-3.83 3.16-3 3.76-4S33 145 33.5 141.66a77.9 77.9 0 0 0 .6-8.57l5.56 2.18s3.83 1.13 5.49.9 5.6-.6 7 .15 4.36 2.56 4.36 2.56 1.69-1.13 2.71-1a7.62 7.62 0 0 0 2.33-.15s-.68-3.23.23-4.29a22.19 22.19 0 0 1 6.32-5c2.78-1.32 6.13-7.67 6.32-7.82s3.52-6.97 3.67-3.03zM97.63 105.07s1.24 5.53 4.15 6.78 11.14.14 14.66-.83 16.47-9.14 16.47-9.14l4.77 4.81s-18.34 17.05-18.61 17.47-8.37 12.1-9 13.42-8.3 13.56-8.3 13.56L98 144.35s-3.66-12.45-3.52-15.71-3.78-18.61-.86-21.77c.49-.48 3.74-3.53 4.01-1.8z" fill="#fff"/><path d="M32.89 133.42c-.64-.73-5.59-5.5-5.67-5.53s-1.75-1.42-1.83-1.42a1.06 1.06 0 0 0-.16.21c-3.33-1.9-11.58-6.55-12.55-6.68-1.23-.17-3.06-1.76-3.37-1.07a8.85 8.85 0 0 0-.39 3.59 14 14 0 0 0 1.08 2.55 25.51 25.51 0 0 0 2.18 2.78 9.24 9.24 0 0 0-2.85-.11s-1.47.95-1.47 1.92a6.8 6.8 0 0 0 .86 2.48 2.13 2.13 0 0 0-1.13 1.05c-.45.85-.75 1.58-.3 2.29s2.05 1.94 2.11 2.9-1 1.55-.79 2.52 1.87 1.41 2.37 2a2.19 2.19 0 0 1 .68 1.5 1.63 1.63 0 0 0 .86 1.73 12.53 12.53 0 0 0 4.56 1.19 5.71 5.71 0 0 1 2.7.83 53.17 53.17 0 0 0 6.67 1c1 0 3.75-1.88 4.53-3a55 55 0 0 0 2.67-5.35c.01-1.31-.12-6.65-.76-7.38zM82.09 39.06l5.93 12 14.74-3.22s7.15.07 10 1.31a14.47 14.47 0 0 0 8.23.61 24.22 24.22 0 0 0 3.85-2.24 34.82 34.82 0 0 0 4 6.91c2.09 2.54 4.85 5.3 5.35 5.77s5.76 2.8 5.76 2.8 3.7-2.67 6.5-1.47 3.56 2.36 3.2 5.53-2.81 5.84-4.36 7.55-2 5.42-4.65 9.29-9.42 10.4-9.42 10.4 2.08 5.3.94 7.42a11.07 11.07 0 0 1-5.5 4.87c-2.37 1-8.21 4.45-15.21 6s-10.39-1.66-10.8-2A33.45 33.45 0 0 1 97.3 106l.31-4.93a23.85 23.85 0 0 1-7.36-1.88c-4.42-1.79-7.77-4.53-11-7S70 81.82 68.94 80.08 65.5 68 65.11 65.95s-.56-10.27-.56-10.27l-.3-1 15.35-3.74a31.19 31.19 0 0 0-.19-4.55c-.29-2.52 1.91-8.25 2.68-7.33z" fill="#f5dcc2"/><path d="M99.49 120a27.84 27.84 0 0 0-1.38 2.9c0 .17 1.07 6.64 1.11 6.85s-2.8 6.26-3 6.57a29 29 0 0 0 1.59 7.61c.76 1.42 4.36 7.82 4.63 7.19s2.49-3.73 2.49-3.73 4.53-8.09 4.7-8.16-1.73-5.53-1.73-5.53l-1.11-4.63 4.08-4.77-.9-2.63-3.18-4.7-4.84.28s-1.7 1.75-2.46 2.75z" fill="#fd8204"/><path d="M33.61 152.64l.32-1.57-1.8-.78-1.61 1.24s0 .88.14.88 1.84 1.15 1.84 1.15z" fill="#f7a834"/><path d="M71.78 66.62s.21-2.68 1.12-3.48 3.47-1.29 5.37-.76 4.19 1.68 4.54 2.66.12 1.87-.33 2.08a19.73 19.73 0 0 1-3.88.74c-1.08.07-4.75-.15-4.75-.15-.3-.01-2.19-.39-2.07-1.09z" fill="#fff"/><path d="M73.66 64.11a3 3 0 0 0 .47 2 2.68 2.68 0 0 0 2.29 1.63c.75 0 2.63-.49 3-1.67a2.56 2.56 0 0 0-.72-2.81 3.2 3.2 0 0 0-2.85-.86 3 3 0 0 0-2.19 1.71z" fill="#c1e3ea"/><path d="M99.66 64.53s.25-3.21 1.33-4.15 4.14-1.54 6.41-.91 5 2 5.43 3.18.14 2.23-.4 2.49a23.57 23.57 0 0 1-4.64.89c-1.29.09-5.68-.18-5.68-.18-.34-.04-2.6-.49-2.45-1.32z" fill="#fff"/><path d="M101.54 62.17a2.74 2.74 0 0 0 .39 2.35 3.4 3.4 0 0 0 3.16 1.64 3.07 3.07 0 0 0 2.91-1.34 2.2 2.2 0 0 0-.22-3.14c-.91-1.1-3.28-1.39-4-1.23a2.64 2.64 0 0 0-2.24 1.72z" fill="#c1e3ea"/><path d="M61.79 35.73c.52-.19 2.78-3.54 3.53-5.07s3.85-8.16 7.5-11.3 7.73-5.49 10.39-6 8.14-2 9.1-2.15 5.21-2.15 7.69-1.48 3.77.9 4.5.58a11.64 11.64 0 0 1 5.36-1.55c2.53.05 4.56 1.36 5.63 1.62a38.82 38.82 0 0 0 7.9 1.62c3 .1 7.69 2.09 10 3.28s7.71 4.66 9.91 5.56 13.8 8.11 15.55 10.61 5.08 5.71 5.92 8.82S168 49.72 168 51.39a13.41 13.41 0 0 0 .71 4.42c.43 1.32 2.95 6.64 1.17 12.3s-.92 7.32-4 10.54-6.64 8.79-7.64 9.42-11 8.26-13.86 9.34-8.73 4.14-10.36 4.51-2.6-2.46-2.76-2.91-.59-5.58-.6-5.71 8.77-8.51 8.77-8.51c1.92-2.39 4.41-7.48 4.49-9s2.2-2.86 2.86-3.9 2.91-4.8 2.39-7.23-1.46-2.93-3.14-3a48 48 0 0 0-6.88.88c-1.62 1-7.22-4.05-7.72-4.37A80.26 80.26 0 0 1 125.8 51c-.16-.45-2-4.11-2-4.11a9.73 9.73 0 0 1-4.61 2.59c-2.42.35-11-1.63-12-1.92s-5.71.15-7.76.67-11.58 3-11.75 3.06a30.34 30.34 0 0 1-2.3-3.57c-.12-.29-3.39-9-3.39-9a46.74 46.74 0 0 0-2.9 4.41c-.17.62-.77 4.62-.4 5.79s.58 2.35-1.19 2.94-5.72 2.65-8 2.87a18.43 18.43 0 0 1-5-.43 22.72 22.72 0 0 0-.51 7.61c.42 3.36 2.76 12.45 3.14 14A38.31 38.31 0 0 0 73 85.64c2.07 2.16 9.25 9.19 11.6 10.49s12.26 4.3 12.38 4.29 1.16.74.94 1.53.67 4.41-.87 4.35-12.66-2-12.66-2c-1.25-.66-16.15-9.2-16.15-9.2-1-1.27-8.33-9.51-8.41-9.64s-5.15-7.14-5.15-7.14-3-7.72-2.46-12.22.68-10.1.78-11.29 2.8-12.46 2.8-12.46c1.03-1.91 3.53-5.73 5.99-6.62z" fill="#df9b50"/><path d="M80.85 18.38a39.46 39.46 0 0 0-6.7 14.24A105.88 105.88 0 0 1 71 43.56a29.25 29.25 0 0 0-3.33-1.75 6 6 0 0 0-4.17-.33s.11-2.3.38-5.79 3.56-8.62 4.73-10.45 4.16-7.09 9.78-9.41a26.65 26.65 0 0 1 10.47-2.38s-6.57 3.55-8.01 4.93zM61.6 34.77c-.6.23-3.5 3.43-5.26 6.63a23.5 23.5 0 0 0-3.11 9.45 44.91 44.91 0 0 0 .06 7.15l1.52.24 4.27-6.17S57.65 42.74 63 36c0 0 .75-2.07-1.4-1.23z" fill="#e9b87f"/><path d="M94.5 11.67a11 11 0 0 0-3.06 4.14 20.19 20.19 0 0 0-8 12.37c-.91 4.47 1 16.74 1 16.74s-3.22-6.06-3.78-8.7-.94-7.5-.94-7.5c-.71-2.53 2.18-7.73 3-9.19s2.74-2.85 4.12-4.06 6.95-3.82 7.66-3.8z" fill="#e9b87f"/><path d="M96.42 10.75c-1 .42-5 5.67-6.05 8.42a9.16 9.16 0 0 0-.84 4.57s.61-4 8.52-6.61c2.08-.69 7.89-.67 9.89 3.37 5.74-2.41 8.88-.88 11.45 1.93 2.94 3.21 5.88 11.24 6.66 14.47 0 0 1.06-1.08.75-3.83a52.67 52.67 0 0 0-2-9c-.18-.26-2.55-4-2.55-4s12-.24 19.92 14.85L139.3 23c-4.06-8.08-12.35-9.63-14-10.09a13.37 13.37 0 0 0-7.58 0l-6.66-3.37c-2.31-.11-5.84 1.36-7.67 1.17s-5.05-.71-6.97.04zM58.68 54.82l2.47 1.44a11.8 11.8 0 0 0-3.74 5.39c-1.24 3.6-1.67 11.91.25 16.66a43.5 43.5 0 0 0 4 7.67 36 36 0 0 1-3.45-2.53c-.85-.82-4.57-8.36-4.57-8.36-1.94-8-1-12 1.39-16.33s3.65-3.94 3.65-3.94z" fill="#e9b87f"/><path d="M142.46 117.59s-2.9 1.92-2.63 12 .75 18.27 3.38 22.48 4 5.49 5.49 6a4.53 4.53 0 0 0 2.93-.08l6.69 9.1-.3 3.76a10.68 10.68 0 0 0 1.2 2.18s-2.52 7.41-2.63 7.82-.08 3.46-.08 3.46 7.22-2.26 9.47-3.23 16.24-8.72 17.82-10.08 4-5.64 3.23-8.8-7.44-16.54-7.44-16.54c-2.33-3.91-16.69-23.39-16.69-23.39s-6.73-8.38-11.5-8.42-7.89 1.94-8.94 3.74z" fill="#fff"/><path d="M156 182s-1.7-7.67-1.7-7.92-.85-9.78-.6-11.53l-1.8-5.11a13.25 13.25 0 0 1-5.82-.6s-2.71-4-5.51-13.43-.1-22.31.9-24.66 6.22-5.26 6.32-5.61-4.91-3.71-4.91-3.71l-1.7-1.5a5.1 5.1 0 0 0-4.11-1.2c-.25.1-5.66 6.47-9.52 9.52a75.7 75.7 0 0 0-9.73 9.73c-.5.63-2.25 3.62-4.22 7.08-.87.81-1.92 1.78-2.39 2.2-.88.78-5.67 10.37-6 10.88s-1.74 3-3.13 3.77c-2.11-.71-5.48-10.47-6.13-12.5A90.42 90.42 0 0 1 94 124.74c-.05-2.11-1.85-17.6-2.11-18.25s-3.81 1-6.22 2.11-7 5.26-7.72 6.62-1.25 10.63-1.1 12-1.45 13.79-1.8 17.95-.3 18.85-.3 19.15-.5 16.44-.5 16.44c-.3 2.41 2.36 4.66 5 6.12s28.62 4.21 41 3.81 33.79-5.61 35.09-6 .86-2.45.66-2.69z" fill="#bab7b6"/><path d="M9.42 117.57l4.41 3 .8 3.81.8.7v3.31l2.81.3v-2.16l-.4-1.85s.4-2.66.35-2.86-.4-1.53-.4-1.65 2.81-2.06 2.81-2.06a20.89 20.89 0 0 0 1.15-7.32c-.08-3.83-2.68-11.4-4.31-14.89s-3.33-4-3.46-4-7.07 2.23-7.47 2.46-1.8 3.41-2 6.37 1.83 11 2 11.33 1.98 4.68 2.91 5.51z" fill="#8f9499"/><path d="M9.87 96s-1.5 10.48.1 13.94a32.91 32.91 0 0 0 4.76 7.47 3.07 3.07 0 0 0 1.8.25s1.23-.38.8-4.41-1.48-11-3.86-14.29-3.13-4.08-3.6-2.96z" fill="#d9e8f9"/><path d="M102.38 54.65c1.64.06 3.36-.51 6.43.43a19.94 19.94 0 0 1 3.89 1.54c.35.09 1 .22.25-.56a17.32 17.32 0 0 0-3.71-2.35 10.67 10.67 0 0 0-3.29-.85c-2.43-.38-4.4-.24-4.94.34s-.26 1.4 1.37 1.45zM99.73 65.46c.44-.08 1.66.88 2.5 1.09a14.45 14.45 0 0 0 5.69.68 22.82 22.82 0 0 0 6-2.45c.34-.23.72-.69.55-1.05a9.78 9.78 0 0 0-3.21-3c-2.07-1.33-3.69-1.4-6.23-1.7s-4.69.5-5.54 1.83A7.94 7.94 0 0 0 98.6 65c.08.44.69.54 1.13.46zm9.14-3.94a5.74 5.74 0 0 1 2.49 1c.76.51 1.87 1.08 1.39 1.4s-1.43.79-1.43.79a17 17 0 0 1-4.07 1.41 3.2 3.2 0 0 0 .78-.56 2.84 2.84 0 0 0 1-1.89 2.71 2.71 0 0 0-.6-1.8c-.32-.44-.1-.42.44-.35zm-6.68.43c.29-.71 1.27-.92 2.88-.61s3.09 1.06 3.08 2.23a2.52 2.52 0 0 1-1.23 1.87 3.73 3.73 0 0 1-1.87.53 3.93 3.93 0 0 1-1.65-.43 2.5 2.5 0 0 1-.81-.66 2.66 2.66 0 0 1-.4-2.93zm-1.43-.24c.33-.26.6-.11.44.86a3.43 3.43 0 0 0 .71 2.8 2.09 2.09 0 0 0 .54.43 7.16 7.16 0 0 1-1.14-.41c-.52-.19-1.53-.67-1.47-1.32a4 4 0 0 1 .92-2.36z" fill="#692f17"/><path d="M104.71 65.22a1.62 1.62 0 0 0 1.7-1.72 1.72 1.72 0 0 0-1.79-1.42 1.57 1.57 0 1 0 .09 3.13zM76.48 64.12a1.38 1.38 0 0 0-1.29 1.79c.29.86 1.44.83 1.44.83.35 0 1.06-.31 1.18-.85a1.3 1.3 0 0 0-1.33-1.77zM71.73 57c-1 1-1.16 2-.9 2s.43-.45 2.15-1.42a29.24 29.24 0 0 1 6.49-2c.91-.16 1.83-.54 1.07-1.1s-1.92-.59-4.06.09A20.81 20.81 0 0 0 71.73 57z" fill="#692f17"/><path d="M75.22 62.06a4.56 4.56 0 0 0-2.84 1.31 3.92 3.92 0 0 0-1.23 2.83c0 .91.07 1.11.47 1.32a8.82 8.82 0 0 0 1.57.41l.65.23a10.05 10.05 0 0 0 3.14.74 8.49 8.49 0 0 0 3.91-.67 3.4 3.4 0 0 1 1.6-.43 1.79 1.79 0 0 0 1.17 0c.36-.25.35-.82-.07-1.69a6.76 6.76 0 0 0-3.21-3.37 9.66 9.66 0 0 0-5.16-.68zm-1.16 5.35s-.11.05-.79-.14a2.27 2.27 0 0 1-.8-.4c-.22-.19-.26-.78-.06-1.8s.59-.94.71-.81 0 .65.11 1.36a2.51 2.51 0 0 0 .65 1.27c.58.62.18.53.18.53zm2.88-.09a3 3 0 0 1-1.31-.14 1.86 1.86 0 0 1-1.33-1.73 1.48 1.48 0 0 1 .83-1.67 3 3 0 0 1 1.33-.21 4.6 4.6 0 0 1 1.7.28 2 2 0 0 1 .76 2.27c-.24.88-1.34 1.11-1.98 1.21zm5.67-.74c-.17.4-1.67.71-1.67.71a8.4 8.4 0 0 1-1.11.26c-.63.07-.72-.14-.58-.35a2.53 2.53 0 0 0 .75-1.32 2.59 2.59 0 0 0-.5-2.22 4 4 0 0 1 2.12 1.1c.69.71 1.16 1.44.99 1.83zM88.57 77.59a5.21 5.21 0 0 0 4.49 1c2.14-.35 3.06-2.27 2.67-2.48s-.92.32-2.7.73a7.64 7.64 0 0 1-3.38 0 7.94 7.94 0 0 1-1.65-.67c-.28-.17-.41.59.57 1.42zM34.49 151l-1.75-1.2s-.69-.44-1.52.46a13.24 13.24 0 0 0-1.29 1.61c-.22.24.14.51.14.51l1.93 1.38s.94.44 1.47.14a6 6 0 0 0 1.29-1.61s.38-.81-.27-1.29zm-1.84 2.21l-1.7-1.21.06-.14.26-.31.09-.1a2.42 2.42 0 0 1 .64-.55c.25-.09 1.66 1 1.66 1zM98.69 91.86a18.08 18.08 0 0 1-5.08-.12c-2-.48-2.15-.57-2.53.05s2.71 1.78 4.54 1.86a29.52 29.52 0 0 0 5.62-.83c1.31-.45 1.81-1.05 1.85-1.49s-.73.11-4.4.53zM83.11 85.54c-1.47.12-2 .53-2.08 1.09a.81.81 0 0 0 .44.84 3.19 3.19 0 0 0 1.36.22 4.1 4.1 0 0 1 1.68-.32c1 0 4.22 1.33 8.55 1.77a27.07 27.07 0 0 0 9.48-.71c3.33-1.07 4.6-2.84 6.36-2.77s2.6.44 3.15.12 1.19-.74.62-1.48-2.2-.63-3.47-.09-5.82 2.61-8.76 3.1a33.61 33.61 0 0 1-10.44-.2c-4-.61-5.42-1.69-6.89-1.57zM108.57 171.9a2.46 2.46 0 0 0-3.62 1.83 2.28 2.28 0 0 0 2.18 2.57 2.42 2.42 0 0 0 2.62-1.5 1.85 1.85 0 0 0-.1-1.72 2.72 2.72 0 0 0-1.08-1.18zm-.32 2.19a.92.92 0 0 1-1.06.7.83.83 0 0 1-.39-1.49 1.09 1.09 0 0 1 .88-.09c.61.24.6.56.58.88zM108.57 157.52a2.46 2.46 0 0 0-3.62 1.83 2.28 2.28 0 0 0 2.18 2.57 2.42 2.42 0 0 0 2.62-1.5 1.85 1.85 0 0 0-.1-1.72 2.72 2.72 0 0 0-1.08-1.18zm-.32 2.19a.92.92 0 0 1-1.06.7.83.83 0 0 1-.39-1.49 1.09 1.09 0 0 1 .88-.09c.61.24.6.56.58.89zM130.77 141.73h-9.89c-.14 0-3.91.1-5.9.11a2 2 0 0 0-2.29 2v2.86c.06 2.59 2.86 2.29 2.86 2.29s13.18.06 15.42 0a2.58 2.58 0 0 0 2.52-2.22v-2.9c0-2.3-2.72-2.14-2.72-2.14zm1.35 4.44c-.11 1.43-1.69 1.13-1.69 1.13h-14.81c-1.77 0-1.73-.86-1.73-.86v-2c.05-1.1 1.35-1.12 1.35-1.12l6-.12h8.79c1.9 0 1.88.79 1.88.79a4.57 4.57 0 0 1 .21 2.18z" fill="#692f17"/><path d="M187.58 160.25a65.67 65.67 0 0 0-7.46-15.33c-3.25-5-9.88-12.91-11.6-15.88s-5-8.08-7.6-10.5-8.93-5.47-9.58-5.76c0 0-11.86-7.17-12-7a13.4 13.4 0 0 1-4.21-3c.89-.57 3.46-1.18 6.47-2.19 3.45-1.15 12.39-7.69 13.24-8.31s3-3.06 5.07-4.53c.44-.31.55-.46.45-.52 1.13-1.3 4.07-4.66 4.78-5.54a37.85 37.85 0 0 0 3.35-5.37 25.09 25.09 0 0 0 1.42-16.58 30.75 30.75 0 0 0-1.26-4 55.53 55.53 0 0 0-2.14-12.27c-1.85-6.37-5.34-9.58-11.18-14.69s-21.78-15-31-17c0 0-6.1-1.68-9.13-2.33s-6-1.25-8.34-.41l-2.38.84s-.63-.74-2.85-1.11-6.2 1-6.2 1S91 10.92 88 11.47a23.68 23.68 0 0 0-8 2.43 25.48 25.48 0 0 0-10.39 8.75s-1 1.3-1.34 1.85-1.77 3.2-2.32 4a16.36 16.36 0 0 1-2.54 3.39A54.18 54.18 0 0 0 59 36.15c-2.36 1.83-5.2 9.38-5.42 10.41a67.38 67.38 0 0 0-1.87 12.32c-.24 5.86.11 12.23.11 12.23a20.18 20.18 0 0 0 2.18 7.1c2 3.67 4.17 6.53 5.69 7.71 0 0 .65.91 1.13 1.68l.18.4c2.55 4.2 10.1 10.27 14.12 12.59 3.63 2.09 12.63 5.61 12.9 5.73 0 0-3.16 1.84-4.31 2.54-.39.23-.75.46-1.06.67a29.91 29.91 0 0 0-5.43 5.66c-1.61 2.07-5.76 8.08-6.77 9.62s-4 3.8-5.57 4.88-2.69 1.54-3.55 3.27 0 2.56-.32 3.59a.93.93 0 0 1-1 .64l-.72-.13a1.18 1.18 0 0 0-1.11.32c-.62.51-.58.6-.87.69a10.36 10.36 0 0 1-2.95-1.24 6.54 6.54 0 0 0-3.59-1.38c-6.06-.68-5.87.18-7.85-.08a3.13 3.13 0 0 0-1.45-.6 2.78 2.78 0 0 0-1.29.09c-.32-.39-.77-.72-.73-.74a11.33 11.33 0 0 0-1.39-.57l-3.31-1.29a1.88 1.88 0 0 0-1.2 0 8.89 8.89 0 0 1-3.11-2.26 25.16 25.16 0 0 0-3.05-3.41c-.87-.74-3.48-2.19-4.53-2.89a19.16 19.16 0 0 0-4.28-2c0-.51-.06-.95-.07-1.11a7.42 7.42 0 0 0 3.49-4.28c.54-1.67.81-5.94-.08-10.53A29.63 29.63 0 0 0 17.29 94c-2.06-2.82-3.58-2.81-3.58-2.81a9.75 9.75 0 0 0-3.38.6 7.79 7.79 0 0 0-4.61 3.06c-1.21 1.57-1.91 5.64-1.78 7.75s.46 7.21 2.08 10.65a36.82 36.82 0 0 0 3.06 5.44c-.64.45-1.3 2.09-.7 4.06a16 16 0 0 0 2.7 4.42c-.63-.05-2.38-.12-3.08.58a2.23 2.23 0 0 0-.84 2.25c.14.62.88 1.26.73 1.76s-.88.35-1.42 1.76a2.66 2.66 0 0 0 1.07 3.18c.85.59.93.9 1 1.1s-.24.58-.48 1.19c-.62.85-.58 2.74.51 3.27s1.59.55 2.12.87.29 1 .14 1.2a.84.84 0 0 0 .08.81 7 7 0 0 0 3.74 2.37c2.42.58 6.91 2.07 8.06 2.26a9 9 0 0 0 3 0 1.7 1.7 0 0 0-.57 2c.44 1.31 1.4 1.76 2.28 2.43a22.49 22.49 0 0 0 5.84 2.43 10.49 10.49 0 0 0 3.41 0c.81 4.27 3.68 6.28 5.54 8a27.63 27.63 0 0 0 15.59 7.92c8.45 1.1 13 .58 14 .25a1 1 0 0 1 .92.09c.76.58.48 4 .41 5.43s-.3 4.7.87 6.22 4.16 2.46 10 3.89 15.17 1.77 15.29 1.8l11.2.62s6 .45 8.6.35a124.25 124.25 0 0 0 13.4-1c4.59-.73 18.89-3.35 22.17-4.28a38.35 38.35 0 0 0 5.52-2c1.31-.52 3.69-1.14 4-1.31 0 0 7.8-2.35 10.7-3.87s9.53-6.42 11.46-9 2.34-5.55 1.24-9.49zm-51.83-54.72c.45.38.43.85-1.15 2.66s-6.86 6.74-8.37 8.15a66.5 66.5 0 0 1-5.38 4.81c-.53.41-2.84 2.09-2.84 2.09s-3 2-4.12 1.82c-1-.15-2.61-3.14-3.16-4.24s-3.91-6.58-3.48-7.07a4.63 4.63 0 0 1 2.16-.74c.11 0 2.58-.33 5.56-.9 11.88-3.67 14.82-7.88 16.27-8.88 1.26-.87 1.84-.25 2-.07s2.05 2 2.5 2.38zm-22.84 26.92l-2.66 4.19c-.76-1.79-2.21-5.22-2.44-6a2 2 0 0 1 .41-1.8l3.25-3.94s1.16 2.2 1.79 2.35c1.39.33 4.59-3 3.48-1.28s-3.83 6.49-3.83 6.49zM97.66 121.4s-1 1.72-1.48 1.59-1.07-2.21-1.74-4.37A43.41 43.41 0 0 1 93 110.7c-.08-1.6-.23-2.66.65-3.16s3.4-1.43 3.77-.68c.23.29.52 1.1 1.53 2.63 1.86 2.82 4.59 3.11 4.61 3.57s-.56 1.17-.56 1.17l-2 2.65zm1.11 8.75c0 .12-2.23 4.05-2.35 4.42a19.17 19.17 0 0 1-.85-4.41s-.55-3.66-.58-5.09c0 0 .63.92 1.18 1s1.36-1.91 1.36-1.91l.55 2.51zM80 48.89c-.1-1.4-.43-3.06.2-4.22a28.81 28.81 0 0 0 1.8-3.5c.16-.63 1.65 3.3 2.24 4.73s2 3.64 2.1 4.74.23 1.53 1.8 1.21 2.43-1.15 7.74-2.14 7.8-1.56 11.24-.91 6.72 1.56 8.86 1.89 5.26 0 7.2-1.87a19.15 19.15 0 0 1 1.69 2.92c2.35 4.65 12.33 11.68 13.06 11.93s1.78 1.32 1.81.74.36-1.39 2.71-2.14 4.14-.53 5.16 1.1.49 3.56 0 5.45-2.49 4.73-3.54 5.24-1.21.13-1.45.43a5 5 0 0 0-.15 1.76c-.59 4.59-6.1 10.6-7.74 12.24a32.4 32.4 0 0 1-10.28 7.17c-1.42.58-2.89 1.11-4.32 1.6 0 0-1.31.39-1.31.43a54.27 54.27 0 0 1-7.2 1.87c-2.37.36-13 2-21.3-1.58S79 90.92 79 90.92s-7.28-6.46-10.53-14-3.84-18.42-3.83-20.22v-1.06s0-.72.92-.67a30.14 30.14 0 0 0 5.42-.4c2.83-.48 4.15-2 6-2.42A15.41 15.41 0 0 0 80.77 51a3.92 3.92 0 0 1-.77-2.11zm68.87 14.21c-1.18-2.59-4-2.48-6-2.19s-4.33 1.08-5.35.76-5-3.4-6.23-4.44-1.06-1.91-.5-2.41 2.09-.11 5.6-.5a25.65 25.65 0 0 1 7.18.4s5.54 3.13 7.31 8.47 2.73 10.88.38 16.59-6 8-6 8-.33-4.55-.7-6.37a12.71 12.71 0 0 1 .18-5.18c.33-1.43 2-2.78 3.64-5.71s1.62-4.82.49-7.42zm-45.18 48a9.67 9.67 0 0 1-5.16-5.82c-.55-1.93-.59-2.83-.35-3.36 2.61.13 11.1.4 17.07-1 1.29-.31 2.56-.68 3.77-1.08 0 0 1.38-.45 1.37-.48 4.84-1.75 8.56-3.79 9-3.72s.68 1.66.68 1.66a18.81 18.81 0 0 1 .2 2.53c.09 2.14-1.57 4.35-6.08 6.71s-7.54 3.31-9.12 4.05c-.88.22-1.77.42-2.56.59-3.41.69-6.66.96-8.82-.05zm2.39 5.06a4.14 4.14 0 0 1-1.17 0 7.22 7.22 0 0 0-1.67 0c.09-.19.7-1.35 1.55-1.35s1.29 1.38 1.29 1.38zm-7.18 6.7a23.65 23.65 0 0 1 2.69-4.07c.73-.9 1.86-1 3.38-.9a2.87 2.87 0 0 1 2.21 1.1s2.38 3.31 2.69 4.07a1.62 1.62 0 0 1-.07 1.38s-1.8 2.31-2.69 3.25-1.31.76-1.31.76-3.07.07-4.07 0a2.73 2.73 0 0 1-1.59-.62s-.67-1.67-.87-2.29a6 6 0 0 1-.37-2.65zm34.51-22.06a.88.88 0 0 1-.74-.86c-.06-.2-.73-5.83-.8-5.85.11-1.37 1.28-1.43 4.94-5a34.75 34.75 0 0 0 6.14-8.8 23.54 23.54 0 0 1-2.06 14.09c-.89 2.15-5.68 5.32-7.47 6.45zm23.2-12.58s-5.13 4.67-8.8 6.6a32.24 32.24 0 0 1-7.6 2.73 33.6 33.6 0 0 0 3.87-5.22 20 20 0 0 1 2.12-2.51 61.81 61.81 0 0 0 6.21-7.93 20.36 20.36 0 0 0 2-14c-1.22-5.38-2.68-7.28-4-8.71S146.28 54 145.85 51c0 0 2.48 4.53 4.16 5.79s5.18 3.57 6.35 7.29 1.84 9.08 1.29 12c0 0 1.55-.53 1-6.59-.48-5.67-1.71-6.67-1.86-6.78a12.55 12.55 0 0 1 5.24 9.44c.67 6.58-.03 10.65-5.42 16.1zM144.57 39l-1.67-7.63s6.59 6.86 9.76 12.3 6.26 12.7 6.72 18.07c0 0-6-4.06-7.73-5.39a19.55 19.55 0 0 1-5.64-9s-.64-4.88-1.44-8.35zM169 62.14a16.31 16.31 0 0 1 .5 3 19.21 19.21 0 0 1-2.3 10.28l-2.49 3.78s-.11-2.42-.56-5.78-2.39-8.07-3.1-10.16-1-8.52-2.27-12.16-2.81-5.33-2.09-5.8 5 3.37 8.3 7.43a21.55 21.55 0 0 1 4.01 9.41zm-21.46-37.35c2.14 1.78 11.34 7.34 14.19 12.26a58 58 0 0 1 5.89 16.42 14.14 14.14 0 0 0-3.51-4.68 56.92 56.92 0 0 0-7.74-5.53c-1-.48-3.49-3.21-5.08-5s-8.68-10.72-8.68-10.72-2.31-7-4-7.88c-.03-.03 6.8 3.34 8.93 5.13zm-27.77-11.72c.08-.47 2.48-.23 3.52.11a.75.75 0 0 0 .29 0 28.4 28.4 0 0 1 8.33 2.33c3.31 1.77 5.49 5 7 7.94a3.16 3.16 0 0 0 .4.67 43.71 43.71 0 0 1 2.69 8.69 8.7 8.7 0 0 0 .32 1.41 53.85 53.85 0 0 1 1.31 11.35l.36 5.61c-.49.61-1 1.34-1.66 1.28a22.39 22.39 0 0 0-3.34-.22c-1.68 0-6.14 1-8 .73a4.29 4.29 0 0 1-2.37-.8 4.19 4.19 0 0 1-2.71-2.94c-.88-2.54.64-4.48 1.2-6.37a28.49 28.49 0 0 0 .94-9.86 30.3 30.3 0 0 0-3-11.41 72.21 72.21 0 0 0-4.31-7.12c-.49-.47-1.05-.94-.97-1.4zm-25.25-1.3c.55.24-.31.44-1.74 2.76s-2.87 6.53-2.36 8.71a23.59 23.59 0 0 1 2.05-5.41s2.35-5.46 5.56-6.68 6-.55 8.08 2.59a15.88 15.88 0 0 1 2.63 6.36c0 .37.4 1 .42-1.18a13.57 13.57 0 0 0-1.89-6.28c-.78-1.14-1-2 0-2.26s4.1-1.13 6.32 0a22.22 22.22 0 0 1 7.72 7.7c1.93 3.37 4.37 8 4.77 12.16s.58 13.58-2 16.16a9.57 9.57 0 0 1-7.08 2.74 7.34 7.34 0 0 1-3-.75 10.19 10.19 0 0 0 5.32-3.57c2.32-2.94 2.63-8.48 2.54-10.06s-.62-2.77-1-.53-.39 6.68-3.48 10.5-7.66 2.89-10.05 2c0 0 .9 0 2-1.39s1.59-2.56 1.59-5.38a10.52 10.52 0 0 1-3 4.19c-1.93 1.41-4.21 2.08-7.18 2.83s-6.81 1.56-8.43 2.02-3.68 1.08-3.84 1.11-.55 0-1-1.08-3.13-6.47-3.6-7.63a38.34 38.34 0 0 1-2.63-7.61 22.16 22.16 0 0 1-.24-6.31l.19-1.17s2.32-10 9.41-12.78c.03 0 3.4-1.99 3.92-1.76zM64.88 38.31c.84-4.56 3.76-13.57 7.18-16.73.14-.13 3-3.13 4-3.94A17.14 17.14 0 0 1 81 14.93s-1.69 1.51-3.45 3.3A8.57 8.57 0 0 0 75 23.91c.08 1.43.84-2.14 3.11-4.24s7.81-7.19 11-6.57c0 0-3.26.93-6.07 5.43s-3.38 8.52-3.31 9.47a30.3 30.3 0 0 0 .11 6.5c.45 3.34.48 3.38.11 4.61s-1.44 2.46-1.7 4.51a14.64 14.64 0 0 0 .3 5.38c.31.76-.28 2.44-2.38.91s-3.64-2.43-4.11-5-.19-3.82.25-4.77-.56-.77-1.2 1.24a9.5 9.5 0 0 0 .22 5.57c.43 1.19.94 2.15 1.24 2.83s1 2.12-1.27 3a16.57 16.57 0 0 1-5.34.9c-1 .09-1.64-.66-1.71-1.86s0-4-.07-4.1a50.89 50.89 0 0 1 .7-9.41zm-1.43-2.53c.91.14-1.62 6.3-1.2 13.52a8.49 8.49 0 0 0 .68 2.7c.38.83.88 2.24-.15 3-.85.63-1.64.13-2.2-.53-.09-.14-.2-.28-.32-.44a7.85 7.85 0 0 1-1.09-4.86 40.83 40.83 0 0 1 .94-6s2.43-7.53 3.34-7.38zm-8.08 10.7a30.84 30.84 0 0 1 3-6.73s2.16-3.34 2.59-3.14-1.3 3.33-1.72 4.83c-1.08 2.85-1.3 8.43-1.34 9.42s-.66 1.69-1.59 2.89L54 57.71s0-7.04 1.37-11.22zm5.19 26.86a25 25 0 0 0-.65 6.28s.3 2.89 0 3.42-5.46-2.35-6.55-15.12a17.23 17.23 0 0 1 1.42-7.12 20.12 20.12 0 0 1 3.13-5.21c.71-.77 1.13-.36 1.4.17s1.65 1 1.65 1 .21.33-.39 1.64a27.09 27.09 0 0 0-2.12 5.69c-.38 2 0 2 .38 1.4s3.93-6.59 4.1-7.13.38 3.69-.12 6.61-1.81 6.12-2.24 8.37zm3.68 16.21s-2.89-4.54-3-9.25.76-8.13 2.6-10.8c0 0 .87-1.36 1.2 1.85A71.49 71.49 0 0 0 66.3 81c.75 3 3.28 9.52 5.57 12.47A18.57 18.57 0 0 1 74.69 98c-7.64-4.1-10.45-8.45-10.45-8.45zm21.21 13.59a41.47 41.47 0 0 1-7.84-4.92 28.91 28.91 0 0 1-4.5-5.4c-1.36-2.44-4-7.07-4.12-10.27 0 0 .23-1.22 1.45 1.56s5.74 7.17 7.41 8.6a41.17 41.17 0 0 0 18.22 9c.31.13.22.76.27 1.35.06.83-.16 2.09-1.42 2.23a11.78 11.78 0 0 1-3.78-.17 39.77 39.77 0 0 1-5.68-1.97zM12.4 92.77a2.07 2.07 0 0 1 1.75.39c.94.66 2.93 3.85 4.19 6.64a27.57 27.57 0 0 1 2.58 11.56c.23 5.83-1.59 6.76-2.13 7.17s-1.34.75-1.58.28.15-1.43.15-1.43a9.78 9.78 0 0 0 .66-2.54c.3-1.85-.45-7.16-1.13-9.35s-2.73-7.78-5-9.9a8.72 8.72 0 0 0-2.4-1.75 5.83 5.83 0 0 1 2.91-1.07zm3.26 24.68a6.4 6.4 0 0 1-1.73-1.35 28.71 28.71 0 0 1-2.73-5 25.74 25.74 0 0 1-1.25-8.85 33.34 33.34 0 0 1 .73-5.66s2.14 1.48 3.81 6.64 2 8 2 9.93.23 3.98-.83 4.28zm1.63 3.46s.22 1.28.31 2.29-.34 1.17-.71 1.24-1.28.28-1.58-.15a13.53 13.53 0 0 1-.56-3c.37-.07 1.11-.19 2.54-.39zM16 125.37h.53a4.48 4.48 0 0 0 .8-.16c.12.49.41 1.89.56 2.66q-.86-.13-1.89-.25zm-8.56-12.54c-1.22-2.32-2.13-8-2.26-10.6a14.9 14.9 0 0 1 1.51-6.68 1.3 1.3 0 0 1 1.14-.79 1.65 1.65 0 0 1 1.67.55s-.91 2.31-.9 7.62a21.27 21.27 0 0 0 1.91 9.3c.36.75 1.74 3.9 2.56 4.56a4.57 4.57 0 0 0 2.21 1.38s0 1.1-.28 1.35a1.94 1.94 0 0 1-1.2.28 3.74 3.74 0 0 1-2.28-1 32.63 32.63 0 0 1-4.08-5.97zM9.52 121c.11-1.62 1.1-1.4 1.13-1.38a7.71 7.71 0 0 0 2.86 1.51 15.27 15.27 0 0 0 .64 3.46 1.33 1.33 0 0 0 .76.6l.09 2.25-1.24-.11c-2.33-1.49-4.35-4.76-4.24-6.33zm-.81 8.25c.24-.55.69-1.1 2.11-.62a30.64 30.64 0 0 0 5.28 1c2.71.38 4.17-.26 6.2.55.83.65 1.46 1.87.31 2.5a11 11 0 0 1-4.33.78 18.15 18.15 0 0 1-6.05-.59c-3.66-.87-3.76-3.04-3.52-3.59zm-.1 4.07c.74-.47 1.55.05 2.07.31s3.3 1.25 8.44 1c1.84 0 2.83-.94 4.65-.64a1.82 1.82 0 0 1 1.57 2.49s-.28 1.38-3.45 2.21a15.13 15.13 0 0 1-5.27.55s-.87-.07-2.23-.23a10.32 10.32 0 0 1-3.39-1.27 9.3 9.3 0 0 1-2.44-1.62c-1.08-1.18-.7-2.3.05-2.76zm1.07 7.47c-.48-1-.3-1.8 1-1.24a16.54 16.54 0 0 0 3 .87 12.83 12.83 0 0 0 4.43.38 17.12 17.12 0 0 0 5.47-1.8c.53-.21.76.28.6 1a3.57 3.57 0 0 1-1.75 2.07c-.87.48-6 1.91-8.06 1.47s-4.21-1.7-4.69-2.71zm11.14 4.88a8.52 8.52 0 0 1-3.27.83c-1.75 0-4.74-.37-5-1.29-.37-.74.14-1.2 1.7-.87a14.41 14.41 0 0 0 5.06-.41c1.5-.28 2 0 2 .83s-.49.95-.49.95zm.46 1.47c-.46-.23 0-.6.38-.82a1.44 1.44 0 0 0 .56-.44c.33-.66-.11-1.63 0-2.19s.58 0 2.3-1.75.87-2.53.83-3.08 1.34-1.57 1.06-3.5-1.66-2.42-2-2.9.44-.53-.23-2.16a2.29 2.29 0 0 0-.34-.57s-.31-.93-4.72-1.73a34 34 0 0 0-.76-3.38.82.82 0 0 0 .3-.48 3.79 3.79 0 0 0 0-.42c.75.28 2.42.9 3.41 1.36 1.28.6 4.23 2.58 4.23 2.58a8 8 0 0 1 2.29 2c1.24 1.57 3.87 3.27 4.14 3.64 0 0 .39 1.66.51 2.58a16.86 16.86 0 0 1-.87 7.18c-1.31 3-3.08 4.65-4.56 5s-5.89-.56-6.53-.88zm11.45 8.06c-1.64-.53-4.13-1.46-4.64-2.11s.45-1.45 1.06-2.18 2.46-2.95 3.18-4a17.5 17.5 0 0 0 2.67-7.05 26.73 26.73 0 0 0-.37-5.39s-.27-.52.1-.46c.12 0 3.31 1.59 3.55 1.61a3.36 3.36 0 0 1 1.72 2.12 20.22 20.22 0 0 1 .69 9 20.5 20.5 0 0 1-3.36 8c-.83 1.26-3.43.88-4.6.5zm41.23-2c.19 2.86 0 8.6-.05 9.62s.39 5-1.34 6.89c-1.69 1.51-4.6 1.84-6.88 1.66S55 170.33 50 168s-9.83-7.8-10.8-9.17a4.86 4.86 0 0 1-1-2.18c.44-.74.82-1.38 1.06-1.83a31 31 0 0 0 2.67-8.1 33.4 33.4 0 0 0-.4-9.12c0-.13.19-.68 1-.57a26.09 26.09 0 0 1 3.21.29 10.83 10.83 0 0 1 .88 2.14c.78 2.76.92 4.42 1.7 4.51s.18-4.14.18-4.14c-.32-1.24-1.2-2.76-.55-3.13s3.36-.23 5.43 1 3.08 1.73 3.73 3 2.72 5.75 3.5 7 1.22.58.74-.64-3-5.76-3.27-7.18c0 0-.39-1.27.74-1.43s2.62 2 3.22 2.85 3.38 5.41 3.78 6.08.62 1.27.74.09-3.22-8.21-4.37-9.9c-.69-1.75-.1-3 .8-4.62s4.89-3.41 6.8-5a20.24 20.24 0 0 0 4.05-4.79c.55-.83 1.47-2.45 2.9-4.56a97.66 97.66 0 0 0-1 10.12c-.28 6.37-2.07 21.68-1.74 24.49zm27.37-.48s-.93 34-.93 35-.59.83-.59.83h-1.49s-2.3-.14-2.31-.13c-6.65-.25-14.73-2-17.17-3.15s-3.31-1.86-3.59-2.81-.12-5.94-.18-7.87.83-10.4.55-13v-9c0 .06.64-8.71.89-11.59s1.48-16.24 1.65-18.75.73-6.05 1.47-7.46a16.25 16.25 0 0 1 3.63-3.53l1.52-1s5.16-2.71 5.66-2.86.9.5 1.08 1.85c.29 2.27.28 4.49.48 5.61s.78 5.41.85 5.92.73 6.87 1.2 10a56.31 56.31 0 0 0 2 8.72c.72 2.49 4.74 10.18 5 11a6.68 6.68 0 0 1 .27 2.23zm0-4.26c-.09-.23-1.15-2.39-2.67-5.89a21.65 21.65 0 0 1-1.75-5.66s3.25-6 3.64-6.54h4.47c1.38 0 1.31.76 1.31.76s2.56 6.18 2.76 7-.66 2.19-.66 2.19-4.29 8.74-5.54 8.93-1.5-.55-1.59-.78zM155 183.18c-.38 1.07-1.14 1.52-4.49 2.35s-18 3.28-22.72 3.59-18.16-.21-18.16-.21c-3.28-.28-5.52-.24-5.52-.24a8.88 8.88 0 0 1-1.52-.14 1 1 0 0 1-.79-.59v-.9s1.17-31.68 1.2-33.06a6.22 6.22 0 0 1 1.1-3.5l5.25-8.56s2-3.87 3.73-6.63c0 0 4-6.55 6.77-10.36s3.86-4.24 5.94-6.07 4.55-2.58 10.8-10.38a2.82 2.82 0 0 1 1.48-1s3.78 2.31 5.74 3.53 2.63 1.75 2.61 2.16-1.45.18-4 2.66c-1.52 1.47-3.11 5.06-3.66 9.27s.53 14.31.85 17a40.06 40.06 0 0 0 3 10.43c1.38 2.83 3.66 6 5.46 6.47a4.48 4.48 0 0 0 3.55-.41l.3.55c1 1.86.73 3.9.69 5.59s.35 10 .76 11.19 1.99 6.19 1.63 7.26zm-.9-18.92l3.8 4a2.42 2.42 0 0 0-.93 2.42 3.2 3.2 0 0 0 1.52 2.56l-2.52 5.49c-.85-3.01-1.89-14.47-1.89-14.47zm29.9 5c-3 3.11-9.88 7.8-19.13 11.46 0 0-5.25 1.9-6.42 2.14s-1.59.38-1.52-.69.83-2 1.66-4.83a15.76 15.76 0 0 1 1.86-4.14c.07-.24 2.11-1.86 2.42-2.35s.38-1-.48-.76-1.79 1.51-2.49 1.38c-1.62-.31-.55-2.42-.55-2.42a29.22 29.22 0 0 0 2.21-2.42c.83-1.07.48-1.38.48-1.38-1-.66-2.9 2.14-2.9 2.14s-3.28-4.59-4.28-6.22-6.35-11-8.15-14.92-.66-6.39-1-6.77-.73 1.73-1.73 1.1-1.38-2.31-1.73-2.62-.24 1.52.69 3.59 2.24 5.42 3.25 6.35 1.35 3.35 1.93 4.7c.33.76 1.19 2.18 2.05 3.61a2.28 2.28 0 0 1-1.45.27c-1.4-.13-4.89-3.41-6.22-8.37a79.84 79.84 0 0 1-2-16.59c.05-3.23-.1-10.2 2.41-13s5-4.44 8.05-3.62a20.57 20.57 0 0 1 3.38 1.07c3.18 1.38 9.6 9.12 10.64 11.19s9.94 13.67 12 16.44 7.46 11.19 8.29 15.61 1.73 6.92-1.27 10.02z" fill="#692f17"/><circle cx="106.17" cy="62.93" r=".78" fill="#fff"/><circle cx="77.78" cy="64.69" r=".75" transform="rotate(-85.76 77.79 64.686)" fill="#fff"/></g></svg>