<svg xmlns="http://www.w3.org/2000/svg" viewBox="0 0 17.91 17.91"><defs><style>.cls-1{fill:none}.cls-2{fill:#ff8200}.cls-3{fill:#fff}</style></defs><title>оценка-единица</title><g id="Слой_2" data-name="Слой 2"><g id="Слой_1-2" data-name="Слой 1"><path class="cls-1" d="M0 0h17.91v17.91H0z"/><path class="cls-2" d="M9.14 11.35l-3.35 1.76a.42.42 0 0 1-.61-.44l.64-3.73-2.71-2.65a.42.42 0 0 1 .23-.71L7.09 5l1.68-3.4a.42.42 0 0 1 .75 0L11.19 5l3.75.54a.42.42 0 0 1 .23.71l-2.55 2.53a.42.42 0 0 0-.12.37l.6 3.52a.42.42 0 0 1-.61.44z"/><path class="cls-3" d="M9.54 10.53H9V6.78v-.89L8.82 6 8 6.75l-.32-.41L9 5.26h.5z"/><path class="cls-2" d="M12.9 16.77a.21.21 0 0 1-.18-.1l-1.14-2a.21.21 0 1 1 .36-.21l1.14 2a.21.21 0 0 1-.18.31zM5.29 16.71h-.1a.21.21 0 0 1-.09-.28l1-2a.21.21 0 0 1 .37.19l-1 2a.21.21 0 0 1-.18.09zM.65 10.9a.21.21 0 0 1-.06-.41l2-.56a.21.21 0 1 1 .11.4l-2 .56zM17.26 10l-2.36-.41a.21.21 0 1 1 .1-.41l2.33.42a.21.21 0 0 1 0 .42zM12.92 3.25a.21.21 0 0 1-.15-.36l1.68-1.7a.21.21 0 0 1 .3.3l-1.68 1.7a.21.21 0 0 1-.15.06zM5 3.52a.21.21 0 0 1-.16-.07L3.19 1.53a.21.21 0 0 1 .32-.27l1.65 1.91a.21.21 0 0 1-.16.35z"/></g></g></svg>