<svg version="1" xmlns="http://www.w3.org/2000/svg" width="722.667" height="722.667" viewBox="0 0 542.000000 542.000000"><path d="M24 .9C15.6 3.5 7.2 10.7 2.9 19L.5 23.5.2 269.2 0 514.9l2 5.5c2.8 7.3 9.7 14.8 16.8 18.3l5.7 2.8h492l5.5-2.6c8-3.7 12.5-8.1 16.2-15.7l3.3-6.7v-492l-2.8-5.7c-3.5-7.1-11-14-18.3-16.7-5.5-2.1-5.7-2.1-249.7-2C136.4.1 25.4.5 24 .9zm236.7 85.6c6.8 2.9 14.6 9.7 41.8 36.4 14.9 14.6 39.2 38.4 54.1 52.8 28.1 27.2 37 36.9 40.3 44.4 2 4.3 2.1 6.4 2.1 109 0 116.7.4 109.7-7.1 118.2-2.1 2.5-6 5.5-8.6 6.8l-4.8 2.4H271c-107.5 0-107.5 0-112.1-2.1-8.6-4-14-11.2-15.9-21.5-1.4-7.2-1.3-201.8 0-209 2.3-12 7.9-20.9 40.6-64.5l20.4-27.2v-11.4c0-15.4 1.6-20.5 8.4-27.3 7.3-7.3 10.8-8.3 29.4-8.4 11.6-.1 16.1.3 18.9 1.4z"/><path d="M228.2 107.6c-2.1 1.4-2.2 2.1-2.2 16.4v14.9l-22.8 30.3c-22.6 29.9-34.2 46-34.2 47.2 0 .3 44.9.6 99.8.6l99.7-.1-22.5-21.7c-12.4-11.9-36-35-52.5-51.2-16.5-16.3-32.4-31.5-35.3-33.8l-5.4-4.2h-11.2c-8.5 0-11.7.4-13.4 1.6zM164 334.8c0 92.6.1 97 1.8 98.5 1.7 1.6 10.5 1.7 105.5 1.7h103.6l1.5-2.2c1.4-2 1.6-13 1.6-98.5V238H164v96.8zm147.1-64.1c3.8 1.2 6.9 3.2 10.5 6.8 8.3 8.2 8.4 9 8.4 50.5 0 39.9-.3 42.5-6.5 49.7-2 2.3-6.1 5.4-9.3 7l-5.7 2.8-35 .3c-30.3.3-35.8.1-41.2-1.3-7.8-2.1-14.6-7.8-17.9-15-2.4-5-2.4-5.3-2.4-42.6 0-25.8.4-38.7 1.2-41 2.6-7.8 9.1-14.3 17.2-17.1 4.5-1.5 9.3-1.7 40.2-1.8 30.5 0 35.9.2 40.5 1.7z"/><path d="M234.7 292.8c-1.5 1.7-1.7 5.6-1.7 35.3 0 28.7.2 33.8 1.6 35.7l1.5 2.2h34.5c33.1 0 34.5-.1 36.4-2 1.9-1.9 2-3.3 2-35.3 0-28.5-.2-33.6-1.6-35.5l-1.5-2.2h-34.8c-32.4 0-34.9.1-36.4 1.8z"/></svg>