<svg xmlns="http://www.w3.org/2000/svg" width="32.26mm" height="37.78mm" viewBox="0 0 91.44 107.1"><title>Мытье окон</title><path d="M58.27 106.39a28.38 28.38 0 0 1-9.25-6.5c-4.22-4.22-5.11-7.87-5.11-7.87l1.33-1.28 15 13.48z" fill="#fde9d3" stroke="#682f24" stroke-linejoin="round"/><path d="M58.72 106.1s5.06-7.09 7.9-7.64a29.72 29.72 0 0 0 13.44-7.21l3.53-3.53 2.57-2.57 3.35-3.35a3 3 0 0 0 0-4.27l-.48-.47a3 3 0 0 0-4.27 0l2.11-2.11a3.49 3.49 0 0 0 0-4.93l-.55-.55a3.49 3.49 0 0 0-4.93 0l.43-.43a3.49 3.49 0 0 0 0-4.93l-.55-.55a3.5 3.5 0 0 0-4.94 0l-1.53 1.53a3.71 3.71 0 0 0 .28-5.22l-.54-.55a3.71 3.71 0 0 0-5.22.28l-4.36 4.36-3.24 3.26-.29.29v-.39-.26l-.8.8-4.78-4.78a4.42 4.42 0 0 0-3.24 4.24l-.67 17.18-7.61 7.34" fill="#fde9d3" stroke="#682f24" stroke-linecap="round" stroke-linejoin="round" stroke-width="2" fill-rule="evenodd"/><path d="M0 40.8q2.55 2.42 5.05 4.88l5 4.92q5 4.95 9.91 10h-1.15l9.86-10 9.93-10 10-9.93 10-9.87v1c-3.39-3.6-6.79-7.2-10.14-10.84l-5-5.48c-1.67-1.83-3.33-3.66-5-5.52q2.73 2.52 5.39 5.11l5.36 5.14c3.55 3.45 7.07 6.93 10.58 10.41a.83.83 0 0 1 0 1.18l-9.87 10-9.93 10-9.97 10-10.05 9.86a.81.81 0 0 1-1.14 0q-4.76-5.16-9.48-10.37l-4.68-5.24Q2.3 43.41 0 40.8z" fill="#682f24"/><path fill="none" stroke="#682f24" stroke-linecap="round" stroke-linejoin="round" stroke-width="2" d="M64.14 64.8l-7 7.01"/><path d="M44.72 60.16a9.26 9.26 0 0 0 10.3 1.91l5.57 5.57 4.75-4.75-5.57-5.57a9.26 9.26 0 0 0-1.91-10.29" fill="#e2ddd3" stroke="#682f24" stroke-linecap="round" stroke-linejoin="round" stroke-width="2" fill-rule="evenodd"/><path d="M25.58 66.22l3.81 3.81a3.88 3.88 0 0 0 5.49 0l32.84-32.87a3.88 3.88 0 0 0 0-5.49l-3.81-3.81" fill="#e2ddd3" stroke="#682f24" stroke-linejoin="round" stroke-width="2" fill-rule="evenodd"/><path fill="#e09c50" d="M13.9 26.69l4.7 3.04 4.7-3.04-3.05 4.7 3.05 4.7-4.7-3.06-4.69 3.06 3.04-4.7-3.05-4.7zM13.9 4.28l4.7 3.05 4.7-3.05-3.05 4.7 3.05 4.7-4.7-3.05-4.69 3.05 3.04-4.7-3.05-4.7zM31.04 10.8l4.69 3.05 4.71-3.05-3.05 4.7 3.04 4.7-4.7-3.05-4.69 3.05 3.05-4.7-3.05-4.7z"/><path fill="#f08119" d="M19.357 61.327L59.004 21.68l5.749 5.748-39.647 39.648z"/><path d="M59.01 22.38l5 5-38.9 38.99-5-5 38.94-38.94m0-1.41L18.66 61.33l6.45 6.47 40.36-40.36-6.46-6.46z" fill="#682f24"/></svg>