<svg xmlns="http://www.w3.org/2000/svg" width="461" height="217.66" viewBox="0 0 461 217.66"><rect x="108.17" y="2" width="271.05" height="172.55" rx="12" ry="12" fill="#fff" stroke="#fd8204" stroke-miterlimit="10" stroke-width="4"/><rect x="122.38" y="13.94" width="242.62" height="138.55" rx="7" ry="7" fill="none" stroke="#fd8204" stroke-miterlimit="10" stroke-width="4"/><path d="M281.17 202h-13a9 9 0 0 1-9-9v-17h-32v17a9 9 0 0 1-9 9h-14a10 10 0 0 0-10 10v3h97v-3a10 10 0 0 0-10-10z" fill="none" stroke="#fd8204" stroke-miterlimit="10" stroke-width="4"/><circle cx="247.41" cy="68" r="28.72" fill="#fd8204"/><g fill="none" stroke="#fff" stroke-linecap="round" stroke-miterlimit="10" stroke-width="4"><path d="M235.21 80.2l24.39-24.39M259.6 80.2l-24.39-24.39"/></g><path fill="none" stroke="#fd8204" stroke-linecap="round" stroke-miterlimit="10" stroke-width="4" d="M206.19 114.79h84.98M213.17 124.79h71.02M206.19 134.79h84.98M459 215.16H2"/><g><rect x="29.82" y="67.66" width="107.5" height="148" rx="12" ry="12" fill="#fff" stroke="#fd8204" stroke-miterlimit="10" stroke-width="4"/><rect x="40.93" y="78.99" width="85.29" height="114.67" rx="8" ry="8" fill="none" stroke="#fd8204" stroke-miterlimit="10" stroke-width="4"/><circle cx="83.57" cy="204.83" r="4.6" fill="#fd8204"/><circle cx="83.57" cy="122.85" r="22.07" fill="#fd8204"/><g fill="none" stroke="#fff" stroke-linecap="round" stroke-miterlimit="10" stroke-width="4"><path d="M74.2 132.22l18.75-18.75M92.95 132.22L74.2 113.47"/></g><path fill="none" stroke="#fd8204" stroke-linecap="round" stroke-miterlimit="10" stroke-width="3" d="M60.12 156.82h46.9M63.97 164.51h39.2M60.12 172.19h46.9"/></g><g><rect x="371.71" y="134.83" width="58.35" height="80.33" rx="9" ry="9" fill="#fff" stroke="#fd8204" stroke-miterlimit="10" stroke-width="4"/><rect x="380.37" y="144.42" width="41.01" height="56.8" rx="5" ry="5" fill="none" stroke="#fd8204" stroke-miterlimit="10" stroke-width="3"/><circle cx="400.88" cy="209.28" r="2.5" fill="#fd8204"/><circle cx="400.88" cy="161.78" r="11.98" fill="#fd8204"/><g fill="none" stroke="#fff" stroke-linecap="round" stroke-miterlimit="10" stroke-width="3"><path d="M395.79 166.87l10.18-10.17M405.97 166.87l-10.18-10.17"/></g><path fill="none" stroke="#fd8204" stroke-linecap="round" stroke-miterlimit="10" stroke-width="3" d="M389.29 181.23h23.18M391.19 187.4h19.38M389.29 193.57h23.18"/></g></svg>