<svg xmlns="http://www.w3.org/2000/svg" width="610" height="265.62" viewBox="0 0 610 265.62"><title>Ошибки 500 ai</title><rect x="85.38" y="50.62" width="271.05" height="172.55" rx="12" ry="12" fill="#fff" stroke="#fd8204" stroke-miterlimit="10" stroke-width="4"/><rect x="99.6" y="62.56" width="242.62" height="138.55" rx="7" ry="7" fill="none" stroke="#fd8204" stroke-miterlimit="10" stroke-width="4"/><path d="M258.38 250.61h-13a9 9 0 0 1-9-9v-17h-32v17a9 9 0 0 1-9 9h-14a10 10 0 0 0-10 10v3h97v-3a10 10 0 0 0-10-10z" fill="none" stroke="#fd8204" stroke-miterlimit="10" stroke-width="4"/><circle cx="224.62" cy="116.62" r="28.72" fill="#fd8204"/><g fill="none" stroke="#fff" stroke-linecap="round" stroke-miterlimit="10" stroke-width="4"><path d="M212.43 128.82l24.39-24.4M236.82 128.82l-24.39-24.4"/></g><path fill="none" stroke="#fd8204" stroke-linecap="round" stroke-miterlimit="10" stroke-width="4" d="M183.41 163.4h84.97M190.38 173.4h71.03M183.41 183.4h84.97M2 263.62h606"/><path d="M387.62 234.33H553v24.29a5 5 0 0 1-5 5H392.62a5 5 0 0 1-5-5v-24.29zM552.95 31.29H387.57V7a5 5 0 0 1 5-5h155.38a5 5 0 0 1 5 5v24.29zM387.62 205.04h165.33v29.29H387.62z" fill="#fff" stroke="#fd8204" stroke-miterlimit="10" stroke-width="4"/><path fill="#fff" stroke="#fd8204" stroke-miterlimit="10" stroke-width="4" d="M387.62 176.13h165.33v29.29H387.62zM387.62 146.84h165.33v29.29H387.62zM387.62 117.55h165.33v29.29H387.62z"/><path fill="#fff" stroke="#fd8204" stroke-miterlimit="10" stroke-width="4" d="M387.62 88.69h165.33v29.29H387.62z"/><path fill="#fff" stroke="#fd8204" stroke-miterlimit="10" stroke-width="4" d="M387.62 60.97h165.33v29.29H387.62zM387.62 31.68h165.33v29.29H387.62z"/><path d="M56.42 50.02A26.63 26.63 0 0 1 83 23.4M64.79 50.02A18.25 18.25 0 0 1 83 31.72M72.57 50.02A10.48 10.48 0 0 1 83 39.54" fill="#fff" stroke="#fd8204" stroke-linecap="round" stroke-miterlimit="10" stroke-width="4"/><circle cx="407.75" cy="16.65" r="5" fill="#fd8204"/><circle cx="407.75" cy="46.33" r="5" fill="#fd8204"/><circle cx="407.75" cy="75.62" r="5" fill="#fd8204"/><circle cx="407.75" cy="104.91" r="5" fill="#fd8204"/><circle cx="428.42" cy="104.91" r="5" fill="#fd8204"/><circle cx="407.75" cy="132.2" r="5" fill="#fd8204"/><circle cx="428.42" cy="131.84" r="5" fill="#fd8204"/><circle cx="449.08" cy="131.48" r="5" fill="#fd8204"/><circle cx="407.75" cy="161.49" r="5" fill="#fd8204"/><circle cx="407.75" cy="190.78" r="5" fill="#fd8204"/><circle cx="407.75" cy="220.07" r="5" fill="#fd8204"/><circle cx="407.75" cy="249.36" r="5" fill="#fd8204"/><g fill="#fd8204"><rect x="477" y="13.72" width="16.33" height="4.67" rx="2.33" ry="2.33"/><rect x="498.5" y="13.72" width="16.33" height="4.67" rx="2.33" ry="2.33"/><rect x="520" y="13.72" width="16.33" height="4.67" rx="2.33" ry="2.33"/></g><g fill="#fd8204"><rect x="477" y="44" width="16.33" height="4.67" rx="2.33" ry="2.33"/><rect x="498.5" y="44" width="16.33" height="4.67" rx="2.33" ry="2.33"/><rect x="520" y="44" width="16.33" height="4.67" rx="2.33" ry="2.33"/></g><g fill="#fd8204"><rect x="477" y="74.27" width="16.33" height="4.67" rx="2.33" ry="2.33"/><rect x="498.5" y="74.27" width="16.33" height="4.67" rx="2.33" ry="2.33"/><rect x="520" y="74.27" width="16.33" height="4.67" rx="2.33" ry="2.33"/></g><g fill="#fd8204"><rect x="477" y="104.54" width="16.33" height="4.67" rx="2.33" ry="2.33"/><rect x="498.5" y="104.54" width="16.33" height="4.67" rx="2.33" ry="2.33"/><rect x="520" y="104.54" width="16.33" height="4.67" rx="2.33" ry="2.33"/></g><g fill="#fd8204"><rect x="477" y="129.15" width="16.33" height="4.67" rx="2.33" ry="2.33"/><rect x="498.5" y="129.15" width="16.33" height="4.67" rx="2.33" ry="2.33"/><rect x="520" y="129.15" width="16.33" height="4.67" rx="2.33" ry="2.33"/></g><g fill="#fd8204"><rect x="477" y="159.16" width="16.33" height="4.67" rx="2.33" ry="2.33"/><rect x="498.5" y="159.16" width="16.33" height="4.67" rx="2.33" ry="2.33"/><rect x="520" y="159.16" width="16.33" height="4.67" rx="2.33" ry="2.33"/></g><g fill="#fd8204"><rect x="477" y="188.45" width="16.33" height="4.67" rx="2.33" ry="2.33"/><rect x="498.5" y="188.45" width="16.33" height="4.67" rx="2.33" ry="2.33"/><rect x="520" y="188.45" width="16.33" height="4.67" rx="2.33" ry="2.33"/></g><g fill="#fd8204"><rect x="477" y="217.35" width="16.33" height="4.67" rx="2.33" ry="2.33"/><rect x="498.5" y="217.35" width="16.33" height="4.67" rx="2.33" ry="2.33"/><rect x="520" y="217.35" width="16.33" height="4.67" rx="2.33" ry="2.33"/></g><g fill="#fd8204"><rect x="477" y="247.03" width="16.33" height="4.67" rx="2.33" ry="2.33"/><rect x="498.5" y="247.03" width="16.33" height="4.67" rx="2.33" ry="2.33"/><rect x="520" y="247.03" width="16.33" height="4.67" rx="2.33" ry="2.33"/></g><path d="M328 247.02h-30.39a8.84 8.84 0 0 1-8.81-8.81v-14.2M356.44 247.03h31.18" fill="none" stroke="#fd8204" stroke-linecap="round" stroke-miterlimit="10" stroke-width="4"/><g fill="none" stroke="#fd8204" stroke-linecap="round" stroke-miterlimit="10"><path d="M340.83 242.89v-3.49M340.83 252.9v-3.56M347.36 246.15h-3.86M337.64 246.15h-3.56M338.9 247.79l-1.41 1.41M344.17 242.22l-1.93 1.93M339.18 244.13l-1.97-1.88M344.49 249.43l-1.98-1.88"/></g></svg>