<svg xmlns="http://www.w3.org/2000/svg" width="116" height="116" viewBox="0 0 116 116"><path d="M45.61 56.77a47.19 47.19 0 0 0-3.21-10.42M33.88 46.44a57.44 57.44 0 0 0-3.46 12.63" fill="none" stroke="#353535" stroke-linejoin="round" stroke-width="2.5"/><path fill="none" stroke="#353535" stroke-linejoin="round" stroke-width="2" d="M34.12 35.23h8.09v3.99h-8.09zM32.87 35.22h12.19v-6.8H21.89v4.65h2a18.2 18.2 0 0 1 5.33.79"/><path d="M29.23 33.87A18.78 18.78 0 0 1 27.46 39a19.23 19.23 0 0 1-3 4.33 11.18 11.18 0 0 0 5-2.73 10.65 10.65 0 0 0 3.37-5.42h-.51a14.78 14.78 0 0 0-3.09-1.31zM42.81 46.51v-7.24h-9.3v7.23h.18s8.02.02 9.12.01zM25.31 28.41v4.68" fill="none" stroke="#353535" stroke-linejoin="round" stroke-width="2"/><path d="M86 28h-7.7a.8.8 0 0 0-.72.86v4.33h9.15v-4.31A.8.8 0 0 0 86 28z" fill="none" stroke="#353535" stroke-miterlimit="10" stroke-width="2.5"/><path fill="none" stroke="#353535" stroke-linejoin="round" stroke-width="2.5" d="M71.14 59.33V45.75h22.03v13.58"/><path fill="none" stroke="#353535" stroke-linejoin="round" stroke-width="2.5" d="M93.16 45.82H71.15l6.13-12.66h9.75l6.13 12.66z"/><path d="M49.6 21h6.46a1.15 1.15 0 0 1 1.09 1.21v6.06H48.5v-6.04A1.16 1.16 0 0 1 49.6 21z" fill="none" stroke="#353535" stroke-miterlimit="10" stroke-width="2"/><path d="M48.67 57.63v-29h8.4s8.94 10.33 14.3 16.55" fill="none" stroke="#353535" stroke-miterlimit="10" stroke-width="2.5"/><path d="M24.83 66h-4.25A1.63 1.63 0 0 1 19 64.33v-3.8a1.63 1.63 0 0 1 1.63-1.63h11.16M63.38 58.9h35.49a1.63 1.63 0 0 1 1.63 1.63v3.8A1.63 1.63 0 0 1 98.87 66H63.35" fill="none" stroke="#353535" stroke-linejoin="round" stroke-width="2.5"/><path d="M25.55 81.54l.9 8.9a4.76 4.76 0 0 0 4.76 4.76h57A4.76 4.76 0 0 0 93 90.44L95.52 66H64" fill="none" stroke="#353535" stroke-linecap="round" stroke-linejoin="round" stroke-width="2.5"/><path d="M43.67 75.68c-1.27 2.38-3.23 5.27-5.13 4.26-1.52-.81 1.8-7.46 1.8-7.46l-9.61 9.43A1.94 1.94 0 0 1 28 79.16l-1.6 1.59A1.94 1.94 0 0 1 23.63 78l1.29-1.29a1.94 1.94 0 0 1-2.41-3l2.82-2.82a1.94 1.94 0 0 1-2.75-2.75l8.5-8.5C33.7 57 33 57.71 33 57.71a36.18 36.18 0 0 1 10.62-1 30.69 30.69 0 0 1 5.28.83" fill="none" stroke="#ff5a19" stroke-linecap="round" stroke-linejoin="round" stroke-width="2" fill-rule="evenodd"/><path fill="#fff" stroke="#ff5a19" stroke-linecap="round" stroke-linejoin="round" stroke-width="2" d="M28.02 79.11l5.8-5.79M24.92 76.71l6.56-6.56M25.45 70.75l3.61-3.6M39.66 73.15l2.32-2.32"/><path d="M49.08 57.82L49 60.33s-3.6 3.87-4.4 6.4c-.47 1.5-3.08 8.42-.12 9.16 1.63.41 3.82-6.64 3.82-6.64l.37 13.22a1.83 1.83 0 0 0 1.94 1.81 2 2 0 0 0 1.88-2v2.22a1.83 1.83 0 0 0 1.94 1.81 2 2 0 0 0 1.88-2v-1.8a1.81 1.81 0 0 0 1.88 1.39 2 2 0 0 0 1.87-2L60 77.94a1.83 1.83 0 0 0 2 1.8 2 2 0 0 0 1.87-2l-.22-11.81c-.07-3.65 0-8.26 0-8.26s-1.52-.49-7-.53a37.76 37.76 0 0 0-7.57.68z" fill="none" stroke="#ff5a19" stroke-linecap="round" stroke-linejoin="round" stroke-width="2" fill-rule="evenodd"/><path fill="#fff" stroke="#ff5a19" stroke-linecap="round" stroke-linejoin="round" stroke-width="2" d="M52.5 82.2l-.16-8.05M56.33 82.48l-.18-9.11M60.01 77.77l-.1-5.01M48.32 70.18l-.06-3.22"/></svg>