<svg xmlns="http://www.w3.org/2000/svg" viewBox="0 0 300 250"><defs><style>.cls-1,.cls-5{fill:none}.cls-2{fill:#dbe4e1}.cls-3{fill:#ededed}.cls-4{fill:#e0dede}.cls-5{stroke:#692f23;stroke-miterlimit:10}.cls-6{fill:#692f23}.cls-7{fill:#c7c0b1}.cls-8{fill:#e2ddd3}.cls-9{fill:#fd8204}.cls-10{fill:#bc6a2e}.cls-11{fill:#efb000}.cls-12{fill:#d2a274}.cls-13{fill:#fbdfcb}.cls-14{fill:#fff}.cls-15{fill:#7a4c2c}.cls-16{fill:#e09c51}.cls-17{fill:#abd2f0}.cls-18{fill:#e9b87f}.cls-19{fill:#f5e0c7}</style></defs><g id="Слой_2" data-name="Слой 2"><g id="Слой_24" data-name="Слой 24"><path class="cls-1" d="M0 0h300v249.22H0z"/><path class="cls-2" transform="rotate(-180 133.855 83.215)" d="M109.44 36.37h48.83v93.68h-48.83z"/><path class="cls-3" d="M158.13 130.08h-29.76l5.11 10.68h99.78v-5.87h-4.06V29.77l-94-.19-5.36 6.83h28.28zm14-93.9h48.65v93.67h-48.66z"/><path class="cls-4" d="M109.47 36.41h20.38l-20.38 25.96V36.41zM109.47 90.64l18.9 39.44h-18.9V90.64z"/><path class="cls-5" d="M158.26 36.2h-48.83v93.68h49.06l-.23-93.68z"/><path class="cls-6" d="M265.86 188.56l-181.62.1h-43.1c-.47 0-.75.19-.76.53s.42.47.76.46h224.51s.8.06.81-.5-.6-.59-.6-.59z"/><path class="cls-5" d="M142.45 32.68h82.3v101.94h-78.78l1.42 6.1h85.88v-5.87h-4.07V29.77h-88.53"/><path class="cls-5" d="M163.02 32.76h4.61v101.86h-4.61z"/><path class="cls-2" transform="rotate(-180 196.9 83.56)" d="M172.49 36.72h48.83v93.68h-48.83z"/><path class="cls-5" d="M220.8 36.2h-48.83v93.68h49.06l-.23-93.68z"/><path class="cls-4" transform="rotate(-180 168.55 161.61)" d="M127.02 145.95h83.05v31.32h-83.05z"/><path class="cls-5" d="M202.32 145.64v31.74M194.4 145.71v31.67M186.49 146.18v31.2M178.57 146.18v31.2M170.66 146.18v31.2M162.74 146.18v31.2M154.83 146.18v31.2M146.91 153.53v23.85"/><path class="cls-6" d="M154.93 145.66c.26 0 55.25-.46 55.25-.46s.83 0 .83 1.19v31.15s-.16 1-1.45 1H130.2l.16-1.19H209s.93.05 1-1.75 0-28.47 0-28.47 0-1-.88-1.08l-.88-.05-53.49.72z"/><path class="cls-7" d="M172.12 205.47S216.74 69.6 217.39 67.82s2.84-6 4.31-7a13.18 13.18 0 0 1 5.69-1.71c1.34 0 5.43.83 6.23 1.51a8.07 8.07 0 0 1 2.38 7.15c-1.87 11.31-40.66 148.6-40.56 148.81s-1.21.39-1.29-.14 40.46-148.18 40.46-148.18.53-4.5-1.15-5.38-5.26-.41-5.5-.68a7.15 7.15 0 0 0-4.75-.78c-1.77.56-2.84 2.74-4 5.72S173.05 206.25 173 206.25s-1 .49-.88-.78z"/><path class="cls-7" d="M193.87 216.63a1.94 1.94 0 0 0 .33 1.4 6.94 6.94 0 0 0 3.34 1.29 3.11 3.11 0 0 0 1.66-.84 7.06 7.06 0 0 0 .31-1.14 3.18 3.18 0 0 1-2.52.25c-1.25-.5-2.82-1.16-2.82-1.16s-.17-.2-.3.2zM171.94 206.58a1.78 1.78 0 0 0 1 1.57c1.07.56 1.95.79 2.45.53a2.33 2.33 0 0 0 .92-.86c0-.06-3.82-1.55-3.82-1.55s-.4-.27-.55.31z"/><path class="cls-8" d="M182.89 189.57c-.05-.06-7.3 1.29-7.49 1.42s.19.5.71.71 19 9 19.05 9 2.37-.28 2.37-.28a8.63 8.63 0 0 0 1-.84c0-.09.71-2.87.71-2.87zM198.2 137.69l18.14-2.69-2.06 6.57-1.51.95-15.13-4.72.56-.11zM222.09 134.37l2.55-.46 11.87 3.63s.9 1.43 0 1.34-16.1 2.88-16.1 2.88z"/><path class="cls-8" d="M226.7 62.21a6 6 0 0 0-3.13 2.89C222.43 67.23 177.29 205.55 177 206s-.53 1.38-.69 1.42a5.64 5.64 0 0 1-2.27-.43c-.56-.36-1.11-.76-1.11-.76s46.35-139.6 46.69-140.54a11 11 0 0 1 2.67-3.86 4.42 4.42 0 0 1 3.36-.41c.71.33 1.43.69 1.43.69zM234.49 61.07a18.85 18.85 0 0 1 1.25 5 25.47 25.47 0 0 1-.94 7.24c-.94 3.73-39 143.35-39.07 143.45a2.37 2.37 0 0 0 1.5.84 2.54 2.54 0 0 0 2.27-.25c.8-.6 39.75-145.8 39.89-146.57a11.11 11.11 0 0 0 .23-4.52c-.43-1.55-.53-2.73-2.29-4.19s-2.96-1.38-2.84-1z"/><path class="cls-7" d="M195.76 138.15s-.41 1-.17 1.51 16.27 5.52 16.27 5.52l1.56.17.88-3.15-.65.1a62.7 62.7 0 0 1-6.93-1.39 74.48 74.48 0 0 0-8.52-3.22c-.2.17-2.38.01-2.44.46z"/><path class="cls-8" d="M220 141.86c-.06.07-.61 2.78-.61 2.78s19.37-1.68 19.29-2.27-1.36-3.69-1.36-3.69-16.93 2.67-17.32 3.18z"/><path class="cls-7" d="M220.21 145s14.8 54.6 15.54 54.6.92-.38.61-1.32-15.05-53.4-15.05-53.4-1.13-.46-1.1.12z"/><path class="cls-8" d="M222.4 144.5l1.53-.2 15.23 51.95s.46 1.29.1 1.57-2.55 1.52-2.55 1.52l-15.46-54.41s.84-.71 1.15-.43z"/><path class="cls-7" d="M230.65 117.94s28.14 89.6 29.65 90.29.33-1.19.2-1.78-27-84.6-27-84.6-1.7-4.77-2.85-3.91z"/><path class="cls-8" d="M227.39 114.24l-.25 1a19.35 19.35 0 0 1 2.85 1.47 11.82 11.82 0 0 1 3 3.91c.92 2.23 27.63 87.09 27.63 87.09s.87.67 2.38-.44-.1-2.86-.1-2.86L236 119s-3.15-6.31-7.55-7zM208.34 109.87a1 1 0 0 0 .46 1.42 13.38 13.38 0 0 1 4.43 4.62c.56 1.47 1.3 5.64 1.73 7.31s1.1 4.11 1.94 5a1.89 1.89 0 0 1 .6 1.73l1.75-5.74s-1.22-2.79-1.38-3-1.17-6.93-3.26-9.09-4.59-4.54-5-4.38-1.27 2.13-1.27 2.13z"/><path class="cls-7" d="M212 114.84c.08.25 1.1 7.79 1.63 9.09s2.8 7.36 2.8 7.36c.76.74 1-.41 1-.41s.1-1.24-.1-1.47a76.56 76.56 0 0 1-3-9.24c-.41-2.18-1.38-4.82-2.24-5.79s-.09.46-.09.46z"/><path class="cls-8" d="M192.44 162.53a79.45 79.45 0 0 0-8 1.17c-.25.22-.11.42.53.71s18.9 6.75 18.9 6.75 2.55-.88 2.6-.94a18.43 18.43 0 0 1 .6-2.52c.24-.29-14.63-5.17-14.63-5.17z"/><path class="cls-7" d="M183.66 164.38c0 .07-.23 1 .15 1.19s1.53 1 1.8 1 .1.71.19 1.17 0 1 3.72 2.31 15.48 5.81 15.48 5.81 1.68-5.34 1.68-5.41a6.2 6.2 0 0 0-2 .25c-.14.18-1.84-.27-2.11-.34S184 164.2 184 164.2s-.28-.2-.34.18z"/><path class="cls-8" d="M234.75 187.76s.14.55 1.1.79 20 7.85 20 7.85l-.79-2.56-19.74-7.49a.86.86 0 0 0-.57 1.41z"/><path class="cls-7" d="M263.54 207l-2.31 1.18-1.3.13s.21.76.75.95 2.48.07 2.72-.3a5.18 5.18 0 0 0 .54-1.24c.06-.32-.4-.72-.4-.72zM239.6 197.75l-3.06 1.71-1.09.19a2.57 2.57 0 0 0 .25 1 1.72 1.72 0 0 0 1.17.27 13.54 13.54 0 0 0 2.09-1.08c.07-.08 1.25-1 1.14-1a6.21 6.21 0 0 1-.5-1.09zM174.51 191.7a1.34 1.34 0 0 0 .25 1 10.47 10.47 0 0 0 1.81.94s.18 1.54.2 1.84 17.91 9.33 17.91 9.33l2.24.74s1.66-5.7 1.63-5.76-2.39 1.59-2.82 1.2-20.49-9.53-20.49-9.53-.64.02-.73.24z"/><path class="cls-6" d="M264.22 207.33c.05-.12-27.1-86.21-27.58-87.26a13.12 13.12 0 0 0-3.7-5.89 11.28 11.28 0 0 0-4.33-2.71c2.24-8 6.85-24.34 7.15-25.37.39-1.37 3.53-12.58 3.87-15.17s.46-4.77-.31-6.8a4.51 4.51 0 0 0-2.72-2.78c-.63-.32-2.9-1.2-2.9-1.2-1-.56-4.75-1.06-6.32-1-.83 0-3.5.05-4.72.81a10.22 10.22 0 0 0-3.43 3.45 38.58 38.58 0 0 0-3.1 6.59c-.56 1.8-2.15 6.5-2.15 6.5l-28.45 86.77c-.79.17-1.4.31-1.59.38a1.24 1.24 0 0 0-.92 1c-.1.37-.11.52 0 .63a6.26 6.26 0 0 0 1.63.84l-8.07 24.25h.05c-.87.19-1.55.34-1.76.42a1.24 1.24 0 0 0-.92 1c-.1.37-.11.52 0 .63a7.37 7.37 0 0 0 1.63 1l-3.87 12.59v.07a.17.17 0 0 0 0 .06 1.73 1.73 0 0 0 .59 1.8 6 6 0 0 0 1.77.81 2.27 2.27 0 0 0 1.94-.2 2.94 2.94 0 0 0 .8-1.24c.47-1.07 3.13-8.73 3.45-9.68 4.31 2.27 11.92 6.24 15.27 7.64a1.06 1.06 0 0 1 .77 1.17l-2.54 9.56a2.08 2.08 0 0 0 1.09 2.87 5.41 5.41 0 0 0 2.75.62c1.32.09 2.28-.88 2.21-1.66l19.67-72.7.74-.08c1.25 4.61 13.67 50.34 14.83 54l.31 1.14s.11.74.69.85c.89.17 1 0 1.07-.05s2.49-1.4 2.75-1.57.22-.4.25-.59a12.59 12.59 0 0 0-.34-1.64l-2.17-7.65c5.27 2.07 16.86 6.56 18.25 7.1l3.6 11.23c.71 1.86 1.34 1.88 1.8 2a4.08 4.08 0 0 0 2.48-.85 2.19 2.19 0 0 0 .48-1.69zm-29.88-90.49a39.63 39.63 0 0 1 3.4 8.5l25.74 81.45a1.21 1.21 0 0 1-.48.44c-.36.2-1.66.71-1.66.71a.42.42 0 0 1-.14-.08c-2.75-9.26-27.77-87.19-27.77-87.19a9.22 9.22 0 0 0-4.38-4.91 6.7 6.7 0 0 0-1.46-.59l.88-3.13a13.94 13.94 0 0 1 5.86 4.8zm2.5 20.61a1.1 1.1 0 0 0-.53-.33c-.48-.12-11.17-3.35-11.17-3.35a2.27 2.27 0 0 0-1 0 15.09 15.09 0 0 1-1.67.24l4.93-18.22a5.91 5.91 0 0 1 2.72 1.59c.69.77 5.69 16.79 6.71 20.07zM185 163.76c.71-.24 6.76-1 6.76-1s.25-.08 1 .2 14.24 4.83 14.24 4.83v-.09l-.62 2.25-1.84.75s-.48.3-2.11-.34-17.62-6.13-17.62-6.13-.53-.23.19-.47zm27.68-19s.08-1.27.1-1.62.41-.44.41-.44l.91-.42-.69 2.51c-.58.21-.74-.02-.74-.02zm.53.75l-6 21.73-14.64-5a1.35 1.35 0 0 0-.52-.09l6.82-21c4.58 1.5 12.79 4.18 13.36 4.28a4.62 4.62 0 0 0 .96.09zm.15-3.39a1.09 1.09 0 0 1-.85 0l-13-3.79c-.72-.21-.74-.4-.68-.5s.85-.21.85-.21L216 135.4l-1.7 6.17c-.2.12-.65.43-.95.56zM200.19 137l8.17-25.46c2.36.8 3.16 2.82 3.66 4.39s.59 6.45 1.46 8.94a79.22 79.22 0 0 0 3.31 7.58l-.59 2.15zM214 124.59a27.88 27.88 0 0 1-1-5.92 11.19 11.19 0 0 0-.75-3.59 7.54 7.54 0 0 1 1.36 2.74c.63 1.76.7 4.32 1.19 6.47a25.52 25.52 0 0 0 2.65 5.64l-.42 1.53a33.07 33.07 0 0 1-3.03-6.87zm2 .74c-.9-1.88-.51-3-1.12-5.55a16.77 16.77 0 0 0-2.34-5.76 12.54 12.54 0 0 0-4-3.12l.86-2.68c3.94 2.39 5.4 4.52 6 5.79.8 1.74 2 7.9 2.68 9.55.41 1 .69 1.14.84 1.08l-1.21 4.4c-.14-.33-.91-2.04-1.71-3.7zm2.68-2.37c-.7-1.37-1.55-6.78-2.58-9a12 12 0 0 0-3.92-4.6 13.91 13.91 0 0 0-2.58-1.62l11.94-37.19a32.15 32.15 0 0 1 2.34-5.18c1.05-1.56 1.82-2.67 3.74-3a1.59 1.59 0 0 1 .92.27 4.44 4.44 0 0 0 2.21.14c.58-.05 2.41-.49 2.92.91a7.33 7.33 0 0 1 .51 5.52c-.3 1.25-7 25.71-14.9 54.31-.42.12-.6-.52-.6-.52zm7.45-61c-1.12.46-3.7 3.37-5.25 7.5s-21.51 67.72-21.51 67.72l-2.9.56s-.48.14 0-1.25 22.72-69.26 23.53-71 1.44-2.93 2.61-3.62a3.73 3.73 0 0 1 3.23-.2 1.43 1.43 0 0 0 .58.15zm-29.63 76.28l.74-.13a1.37 1.37 0 0 1 .35.06s12.17 3.86 13.31 4.1 1.32.54 1.32.54a5.62 5.62 0 0 1 0 1.73c-.15.63-.85.3-.85.3s-15-5.21-15.49-5.42c.05-.42.12-1.12.62-1.18zm1.76 2.7l-7.08 21.23h-.29c-.56.1-1.89.36-3.24.63.68-2.06 7.25-21.87 7.61-22.52l.26-.21a.42.42 0 0 1 .28 0zm-9.09 29.13l15.43 6s.11.06.08.37l-5.47 19.83-15.65-6.86a1.64 1.64 0 0 0-.72-.1zm-7.08 19.3h-.2c-.54.09-1.77.33-3 .59l7-21.27a3.42 3.42 0 0 0 .35.18l2.48 1zm22.46-14c-.53-.15-18.26-7-18.26-7a1.31 1.31 0 0 1-.14-1.56c5.63 2.25 17.09 6.24 17.87 6.53a2.44 2.44 0 0 0 1.47.19l-.49 1.79a.54.54 0 0 1-.46 0zm0-2.66c-.29-.17.07-1 .07-1a.88.88 0 0 1 .41-.51 7 7 0 0 1 1.19-.44l-.49 1.79c-.22.03-.91.25-1.14.12zm-20.24-7.11c-.44-.2-.57-.35-.59-.44a.83.83 0 0 0 0-.1s.15-.58.48-.58 19.7 6.82 19.8 7.08a1.79 1.79 0 0 1 0 .78c-.12.2-.34.15-.61.07s-18.28-6.52-19.04-6.85zm.87.88l.39.16-.09.13a4.11 4.11 0 0 0-.13 1.45v.06l-7.4 22-.77.16zM176 191c.71-.24 6.76-1 6.76-1s.25-.08 1 .2 14.77 6.52 15.27 6.74l-.73 2.66-2.39 1.05-4.53-1.93c-1.61-.69-15.49-7.27-15.49-7.27s-.63-.26.11-.45zm22.15 9.21l-.5 1.8c-.29.12-1.06.41-1.29.27s0-.84.09-1.06l.23-.2s.78-.38 1.12-.58zm-22.79-7.41c-.44-.2-.57-.35-.59-.44a.83.83 0 0 0 0-.1s.15-.58.48-.58 20.43 9.57 20.53 9.83a.5.5 0 0 1-.07.37c-.12.2-.14.29-.41.2s-19.21-8.99-19.97-9.33zm.88 1l.28.14a5.52 5.52 0 0 0-.15 1.07l-3.69 11.11a.46.46 0 0 1-.36-.41zm-4.07 12.47l.42.23a3.07 3.07 0 0 0 0 1.09c-.73-.59-.59-1.17-.45-1.33zm2.5 2.24a5 5 0 0 1-1.8-.65 6.9 6.9 0 0 1 .24-1.17 17.53 17.53 0 0 0 2.9 1.09c-.35.57-.63.86-1.38.73zm1.63-1.51c-.37.52-.49.34-.61.34a17.23 17.23 0 0 1-2.29-.95c-.18-.13-.13-.37-.11-.5l3.53-10a3.21 3.21 0 0 0 .37.2l2.59 1.37zm19.23-2.38l-18.26-9.11a1.26 1.26 0 0 1-.24-1.33c5.78 2.87 18 8.31 18.78 8.61a2.28 2.28 0 0 0 1.57.06l-.52 1.9a1.34 1.34 0 0 1-1.33-.1zm-1.38 12.24a.18.18 0 0 1 .11-.15h.2a6.62 6.62 0 0 1 .82.3s-.48 1 .14 1.5c-1.56-.63-1.27-1.62-1.27-1.62zm.53-.48c-.21-.11-.16-.41-.12-.61 39.38-143.83 39.27-143.9 40.18-146.56a9.18 9.18 0 0 0-.14-5.18c-.75-1.64-1.51-2-2.48-2a19.59 19.59 0 0 1-2.85-.07 11 11 0 0 0-1.58-.23 10.73 10.73 0 0 0-3.18-.74c-1.83.05-3 .73-4.53 3.35S188.22 159 186.91 163l-.67.14c1.64-4.9 30.31-94 32.59-98s3.37-4.78 5.47-5.26a19.45 19.45 0 0 1 8.56.61c2 .8 1.87 1.88 2.38 4a16.14 16.14 0 0 1 .2 4.64c-1.27 6.73-1.43 6.66-40 147.41a2 2 0 0 1-.75-.14zm3 2.49a3.75 3.75 0 0 1-1.68-.2 1.18 1.18 0 0 1-.25-1.45 9.24 9.24 0 0 0 2.42.69 2.26 2.26 0 0 0 1.08-.09 1.5 1.5 0 0 1-1.61 1.07zm1.38-1.51c-.18.17-.27.22-1.15.08a9.16 9.16 0 0 1-1.94-.63c39.16-144 39.42-143.89 39.73-146.24a15.55 15.55 0 0 0-.07-7.07 9.06 9.06 0 0 0-.92-2.41 8.84 8.84 0 0 1 3.06 1.52c2 1.39 1.55 6.5 1.39 7.79S199 217.39 199 217.39zm20.63-72.94l2.67-9.86 2-.28a1.24 1.24 0 0 1 1 .07c.63.25 11.05 3.3 11.31 3.62s-.44.64-1.87.81-14.13 2.34-14.13 2.34l-.2.61s15.94-2.83 16.1-2.88.66-.15.71.24.82 3 .82 3 .08.32-1.19.54c-.91.18-15.45 1.64-17.26 1.82zm18.93-1.57l16.27 50.69c-1.75-.68-14.05-5.48-18.22-7.06l-12.27-41.9 12.92-1.35a5.23 5.23 0 0 0 1.25-.35zM220.71 145l.59-.06c.9 3.18 14.8 53.26 15 54s-.56.52-.56.52zm15.83 55.49a.86.86 0 0 1-.65 0 1.37 1.37 0 0 1-.15-.41v-.15c.33 0 .66 0 .83-.06.06.22.14.54-.03.61zm3.09-2.41c0 .15.06.45.07.61a.44.44 0 0 1-.19.36s-1.5 1-1.83 1.1-.48.1-.54 0-.18-.3-.15-.44c.73-.37 2.08-1.18 2.47-1.44a.7.7 0 0 0 .17-.2zm-.51-1.07a1 1 0 0 1-.61 1.08 4.7 4.7 0 0 1-1.7.78c-.29 0-14.09-50.24-15.12-54l2.13-.22 12.12 41.59-.69-.25c-.27 0-.93.2-1.05 1.12a1.41 1.41 0 0 0 .78 1.39s.73.3 1.87.75c.06.3 2.27 7 2.27 7.75zm-3.63-8.87c-.39-.17-.83-.58-.78-.95a.67.67 0 0 1 .61-.61 8.46 8.46 0 0 1 1.43.49l18.25 7.09.56 1.76c-1.49-.59-19.7-7.62-20.07-7.78zm-4-69.13c-.07-.13-.15-.34-.27-.6a8.23 8.23 0 0 1 1.73 2.77l27.64 86.49s-.14.78-.85-.14c.03 0-27.95-88-28.23-88.53zm32.13 89.1c-.14.56-1 1.07-2.14 1.08a1.69 1.69 0 0 1-1.53-.78v-.07a2.12 2.12 0 0 0 .52.31c.53.2.8.36 1 .1a.17.17 0 0 0 0-.06c0-.1 0-.29.42-.41s1.7-1 1.8-.74a1 1 0 0 1-.05.56z"/><path class="cls-7" d="M42.4 203.88a71.82 71.82 0 0 1-8.58 5.51c-.34.18-.58.9.7 1.44s8.43.35 9.8.74a16.6 16.6 0 0 0 6.64.37c2.37-.44 34.85.53 36.71.6s16.49 0 18.17 0c2.22-.06 2.76-.88 3.25-1.53a6.33 6.33 0 0 1 3.1-2c1.56-.49 3.72-.6 5.06-2a35.21 35.21 0 0 0 3.28-4.18c.42-.6 1.37-1.77 1.07-1.79s-9.28-.32-9.63-.3-6.21-1.27-6.35-1.32-7.52-.88-8.42-1-6.83-.12-7-.23-24.12-.42-24.53-.42-23.27 6.11-23.27 6.11z"/><path class="cls-9" d="M64.16 181.92s-.15 2.5.19 2.94 1.18.6 1.32.93 2.58 19.12 3.42 20.68a3.8 3.8 0 0 0 2.81 2.39c1.63.57 8 .37 10.76.23s5.54-.58 6.34-1.09.91-1.78 1.09-2.66 2.81-20.06 2.81-20.06a3 3 0 0 0 .91-1.27 13.78 13.78 0 0 0-.26-2.71v-.67s-29.05-.41-29.39 1.29z"/><path class="cls-10" d="M65.41 179.33c-.13.07-1.16.61-1.09 1.23s.46 1.23 2.76 1.27 15.11.85 17 .76a46.14 46.14 0 0 0 7.27-1c1.37-.41 2.2-.57 2.23-1s-2-1.31-3.39-1.53-14.17-1.31-17.68-1-6.3.83-7.1 1.27z"/><path class="cls-9" d="M86.2 181.95c0 .07.15-1.57.77-1.74a1.41 1.41 0 0 1 1.6.42 3.45 3.45 0 0 1 .3 1.32zM69.92 178.15s.19-1.41 1-1.69a1.2 1.2 0 0 1 1.44.49 3.27 3.27 0 0 1 .19 1.18z"/><path class="cls-6" d="M94.12 180.19c-.22-.49-1.19-.78-2.1-1a46.31 46.31 0 0 0-4.89-.85c-1-.1-4.08-.34-5.6-.35-1.73 0-6.19-.23-8.35-.14h-.1a2.42 2.42 0 0 0-.24-.89A1.63 1.63 0 0 0 71 176a1.34 1.34 0 0 0-1.23 1.09 4.48 4.48 0 0 0-.17 1.05 25.57 25.57 0 0 0-4.15.81c-1.31.47-1.81 1.16-1.89 1.5 0 .14.1 4.13.18 4.39a1.14 1.14 0 0 0 .69.63 2 2 0 0 1 1 1.25c0 .22 1.34 10 1.34 10s1.9 9.31 2.06 10a3.24 3.24 0 0 0 1.25 1.84c.59.36 2.63 1.16 8.78 1s8.84-.64 9.64-1 1.36-.61 1.74-2.34c.46-2.08 2.89-20.69 2.89-20.69a1.93 1.93 0 0 1 .71-1.1c.42-.25.37-.85.4-1.32a11.28 11.28 0 0 0-.12-2.92zM71 176.75a.88.88 0 0 1 1.29.67 2 2 0 0 1 0 .45h-.4c-.08-.25-.27-.53-.56-.53s-.43.44-.44.63l-.61.07c.03-.1.01-1.04.72-1.29zm-6 3.16c.81-.47 3.15-1.42 10-1.45 5.42 0 9.47.3 10.88.41a37.84 37.84 0 0 1 5.54.8s1.5.46 1.52.76-1.53.8-3.53 1.08h-.32a2 2 0 0 0-.22-1 1.58 1.58 0 0 0-1.55-.79 1.39 1.39 0 0 0-1.2 1 2.9 2.9 0 0 0-.22 1 81.15 81.15 0 0 1-8.32.34c-4 0-10.39-.36-12.24-.95-1.13-.32-1.13-.74-.34-1.21zm23 1.7c0-.24-.18-.55-.5-.55s-.45.45-.45.57-.53.07-.59.07c0-.17 0-1.11.64-1.29a1.09 1.09 0 0 1 1.28.47 2.6 2.6 0 0 1 .1.72 3.27 3.27 0 0 1-.43.01zm-21.69 5.11c.24-.1 2.72.41 4.32.64a39.07 39.07 0 0 0 5.16.32c1.19-.08 1.52-.65.42-.67a52.6 52.6 0 0 1-8.1-.9c-2-.38-3.42-1.11-3.57-1.54a14.32 14.32 0 0 1-.18-2.31s-.14-.68.66-.38a41.41 41.41 0 0 0 5 .7 100.81 100.81 0 0 0 16 .07s.92-.12 1.28-.2a18.8 18.8 0 0 1-.4 3.15c-.17.58-.5.64-1.17.72-1.29.15-4.49.49-5.57.6s-1.23.7-.2.74c.55 0 3.14-.14 4.43-.3 1-.13 2-.37 2-.22s-.28.85-.42 1.13a8.48 8.48 0 0 1-4.2 4.78c-3 1.34-4.79 1.79-9.32 1.37a45.7 45.7 0 0 1-4.85-1.23c.24.06-.67-.1-.76-.67-.32-2.5-.61-4.94-.61-4.94s-.11-.76.13-.87zm23 20.05c-.31 1.12-2.2 1.48-2.13 1.45s-1.6.6-8.31.69-8.1-.45-8.86-1.42-1.2-3.54-1.34-4.49-1.14-6-1.3-6.84c0 0-.16-.9-.28-1.79 0-.23 0-.41.13-.47.38-.16 1.91.51 3.13.86a15.8 15.8 0 0 0 5.78.56 16 16 0 0 0 7.22-2.23 10.51 10.51 0 0 0 3-3.49 12 12 0 0 0 .85-2.09c.19-.69.26-.53 1.6-1 .4-.07 2.67-.75 2.93-.85s.71 0 .69.36-2.67 19.26-3.08 20.74zm4-23c0 .24-.16.49-1.41.83s-2.38.78-2.88.91l-1.34.36a8.69 8.69 0 0 0 .3-1.46c.05-.42.19-1.12.32-2.07.32-.08 3.41-.51 4-.76 1.1-.46.85-.06 1 .1.03.79.03 1.95 0 2.13z"/><path class="cls-6" d="M67.07 198.28a1.34 1.34 0 0 0-1-.21c-.35.05-6.91.53-8.9.5s-6.67.16-7.11.1A1.39 1.39 0 0 0 49 199c-.31.25-5.31 4.45-7 5.73a30 30 0 0 1-3.62 2.48 28.85 28.85 0 0 0-3.47 2.29c-.33.39-.32.85.14 1.07a5.17 5.17 0 0 0 2.37.38c1.59 0 4.06-.47 6 .16a12.45 12.45 0 0 0 5 .56c1 0 8.43-.08 9.4-.06s16.3.58 18.7.63c1.8 0 9.08.14 10.56.15s13.39-.13 15.1-.12 4.65.11 5.44-.23 2-2.12 2.9-2.79a10.51 10.51 0 0 1 4.26-1.54 4.41 4.41 0 0 0 2.93-1.9c.45-.6 1.83-2.52 2.22-3s1.4-1.41 1.18-1.64a30.44 30.44 0 0 0-5.06-.34 25.75 25.75 0 0 1-5.85-.38c-1.61-.31-4.79-1-5.62-1A27.72 27.72 0 0 1 100 199a21.2 21.2 0 0 0-4-.75c-.69 0-4.31-.08-4.5-.06s-.14-.4.06-.44a28 28 0 0 1 6.18.16 23.91 23.91 0 0 1 2.68.69 32.5 32.5 0 0 0 4.2.43 41.65 41.65 0 0 1 5.31.8 12.78 12.78 0 0 0 3.75.56c1.77 0 4 .13 4.95.14s3.39-.1 3.68.21-1.18 1.88-1.45 2.26-2.06 2.63-2.81 3.51a6.17 6.17 0 0 1-2.7 1.88c-.8.2-3.89.83-4.41 1.55s-1.93 2.7-3.15 3-7.57 0-9 .1-20.67 0-23.29 0-16.76-.64-20.7-.66-7 .42-8.63.1-2.9-.69-4.17-.89-4 .25-5.39.06-2.29-.32-2.64-.82-.78-1.26.73-2.15 3.89-2.11 5-2.87 2.82-2.23 3.89-3 2.21-2.3 3.14-3 1.81-1.86 2.89-1.91 8 .15 11 0c1.93-.12 6.22-.75 6.46-.64s.12.45.12.45-.02.42-.13.57z"/><path class="cls-4" d="M55.73 183.39v-2.48a1.15 1.15 0 0 1 .85-.89c.62-.18 1.81-.17 2 .17A4.22 4.22 0 0 1 59 182c0 .65.14 1.38-.09 1.53s-2.25.62-3.18-.14z"/><path class="cls-11" d="M55 184.66a17.2 17.2 0 0 1-2 .85 2.3 2.3 0 0 0-1.38 1.62 3.89 3.89 0 0 0 .33 1.79 26.89 26.89 0 0 1 .44 4.24c0 1.19-.7 8.59-.56 9.17s.05 2.62.63 3.06a9.78 9.78 0 0 0 4.67 1.7 13.8 13.8 0 0 0 5-.71 2.31 2.31 0 0 0 1.32-1.72c.07-1-.64-11.3-.7-11.62a10.42 10.42 0 0 1 .16-2.73c.21-.76.59-2.28.31-2.81a3.19 3.19 0 0 0-1.62-1.79c-1-.41-2.13-1.17-2.25-1.15s.06-.22-.19-.5a10.13 10.13 0 0 0-3.74-.21 1.64 1.64 0 0 0-.42.81z"/><path class="cls-4" d="M52.72 189.37a31.5 31.5 0 0 0 5.28.49 14.54 14.54 0 0 0 4.74-.64l.66-.42a12.16 12.16 0 0 0-.78 3c.08.69.57 4.19.64 4.48a6.48 6.48 0 0 1 .14 1.55 12.89 12.89 0 0 1-5.94 1.37 20.59 20.59 0 0 1-5.3-1.16s.17-2.81.26-3.61a20.85 20.85 0 0 0-.3-3.87c-.12-.56.07-1.56.6-1.19z"/><path class="cls-6" d="M63 192.57a8.89 8.89 0 0 1 .06-1.7c.08-.35.14-.63.27-1a4.13 4.13 0 0 0 .26-1.55 3.63 3.63 0 0 0-.93-2.1 5.43 5.43 0 0 0-1.67-1s-1.27-.63-1.3-.63 0-.07 0-.32a.71.71 0 0 0-.3-.6c-.13-.1-.05-.15 0-.41a16.92 16.92 0 0 0-.23-2.52c-.06-.58-.36-.85-.56-.9a10.58 10.58 0 0 0-1.7 0 2.69 2.69 0 0 0-1.07.25c-.3.23-.26.73-.25.89a16.5 16.5 0 0 1-.18 2.35c-.11.28-.3.34-.45.62s0 .61-.07.64a13.72 13.72 0 0 0-1.8.76c-.52.32-1.43.92-1.62 1.61a2.81 2.81 0 0 0 .15 1.77 32.75 32.75 0 0 1 .64 3.71c.3 2.54-1.91 11.69.32 13.55a10.69 10.69 0 0 0 5.23 1.57 9.12 9.12 0 0 0 4.55-.9 2.28 2.28 0 0 0 1.51-1.74c.48-3.65-.86-12.35-.86-12.35zm-10.5-2c-.06-.41-.21-1.05-.21-1.06.07-.17.45 0 .45 0a23.54 23.54 0 0 0 4.84.43 21.9 21.9 0 0 0 4-.27 3.38 3.38 0 0 0 1.38-.56 2.74 2.74 0 0 1-.1.31 4.32 4.32 0 0 0-.35 1.32c0 .47-.08 1.6-.06 1.79 0 0 .29 2.42.55 5.13a2.22 2.22 0 0 1-.56.37 13.89 13.89 0 0 1-4.91.82 10.4 10.4 0 0 1-4.66-.78 1 1 0 0 1-.5-.38c.17-1.88.4-3.41.4-3.7a20.82 20.82 0 0 0-.25-3.38zm3.38-8.71c0-.31.08-1.38.27-1.53a3.36 3.36 0 0 1 1.85-.13c.62.09.71.34.72.45s0 0 0 .05.09 1.1.15 1.5.21.75 0 1.05-1 .46-2.06.37c0 0-.69-.09-.82-.31a3.76 3.76 0 0 1-.09-1.41zm-2.4 3.68c.11-.3.4-.32.94-.5a6.5 6.5 0 0 1 1.49-.18c.33 0 .8.12.83 0s-.51-.14-.65-.16c-.84-.14-.79-.38-.74-.51a.5.5 0 0 1 .5-.23c.21 0 .92.11.92.11a14.94 14.94 0 0 0 1.51 0c.46-.06.79-.09.92 0s0 .38-.48.51a5.85 5.85 0 0 1-1.13.16c-.12 0-.3.19.29.2a13.17 13.17 0 0 0 1.41-.11 3.32 3.32 0 0 1 1.46.59.33.33 0 0 1 0 .48 2.66 2.66 0 0 1-1.65.65 17.84 17.84 0 0 1-3.9 0c-1.34-.3-1.82-.67-1.71-.98zm-1.7 1.67a2.34 2.34 0 0 1 1.11-1.5c.08-.08.08 0 .08 0a1.22 1.22 0 0 0 .42.57 4.56 4.56 0 0 0 2.06.67 18.07 18.07 0 0 0 3.36 0c1.93-.28 2.09-.52 2.38-.71a.69.69 0 0 0 .29-.43c.22 0 .49.22.74.43a2.82 2.82 0 0 1 .82 1.55 2.52 2.52 0 0 1 0 .51c-.14.67-1.24.91-1.92 1.06a17.54 17.54 0 0 1-4 .19c-2.54 0-4-.12-4.44-.47a1.94 1.94 0 0 1-.89-1.84zM63.2 204.9c-.74 1.53-3.25 1.95-5.53 1.85a9.78 9.78 0 0 1-4.55-1.16 3.57 3.57 0 0 1-.91-2.32 29.6 29.6 0 0 1 .07-4.87 4.16 4.16 0 0 0 .91.42 14.77 14.77 0 0 0 4.36.59 12.12 12.12 0 0 0 5.48-1c.27 2.88.46 5.9.17 6.49z"/><path class="cls-4" d="M43.2 186.52c-.31 1.41-.17 21.54-.17 21.54s-.31.57 1.81.83a30 30 0 0 0 5.68.07c1.1-.1 2.07-.31 2.33-.87a5.69 5.69 0 0 0 .24-2c0-.24-.1-15.91-.1-15.91s-.35-1.35-.91-1.63-2-1.08-1.92-1.42a3.92 3.92 0 0 1 .28-1.18c.19-.24-3.29-2-3.87-1.91s-3.05 1.07-3.37 2.48z"/><path class="cls-9" d="M46.48 183.67a2.78 2.78 0 0 1 .52-1.37 7.89 7.89 0 0 1 1.64-1.89 3.63 3.63 0 0 1 2.37.14c.73.4 1.2.55 1.12 1.67a17.85 17.85 0 0 1-1.13 3.6z"/><path class="cls-12" d="M42.89 190.82v8.89s.28.52 3.58.88a18.27 18.27 0 0 0 6.53-.65v-9.47a10.82 10.82 0 0 1-3.16.65c-1.75.08-6.75-.49-6.95-.3z"/><path class="cls-6" d="M53.34 207.18v-16.83a2.9 2.9 0 0 0-1-2c-.9-.68-1.75-.86-1.87-1.19a.71.71 0 0 1 .3-1c.42-.21.67-.17.87-.61a35.16 35.16 0 0 0 .82-3.83.79.79 0 0 0-.25-.68 3.63 3.63 0 0 0-2.59-1.1c-1.5 0-1.77.59-1.91.79s-1.47 1.77-1.74 2.1a.83.83 0 0 0-.07.75c0 .22-.29.12-.94.46A3.3 3.3 0 0 0 43 186.2a13.79 13.79 0 0 0-.32 3.5v17.77s0 1 .46 1.33 3.09.59 4.75.61a17.77 17.77 0 0 0 4.65-.5c1.01-.31.81-1.45.8-1.73zm-6.08-24.85l.75-.94.17-.2s.4-.62.83-.71a3.21 3.21 0 0 1 2.57.61s.37.21.36.49-.37 1.5-.61 2.37a.25.25 0 0 1-.28.23c-.39 0-.34 0-1.67-.51a9.06 9.06 0 0 1-2-1 .25.25 0 0 1-.12-.34zm-.36.53c.11 0 .09.06 1.09.66a13.6 13.6 0 0 0 2.74 1 .81.81 0 0 1 .31.18c.07.07 0 .25 0 .26-.1.23-.39.21-.8.11a22.51 22.51 0 0 1-2.71-1.07c-.08 0-.47-.34-.55-.4-.38-.35-.19-.7-.08-.73zm-3.49 3.92a2.74 2.74 0 0 1 1.15-1.78 3 3 0 0 1 2-.74c.34.06 2.21.8 2.41.88s1.12.43 1.07.86a7.39 7.39 0 0 0-.21.91c0 .37 0 .78.86 1.2a3.93 3.93 0 0 1 1.93 1.54c.22.58 0 .77-.41.89a11.42 11.42 0 0 1-3.44.35 39.14 39.14 0 0 1-4.38-.18s-1.14-.14-1.14-.42a27.06 27.06 0 0 1 .15-3.51zm-.08 4.1a7.09 7.09 0 0 0 1.23.28c.75.09 2.73.16 4.24.15a20.22 20.22 0 0 0 3.25-.22c.39-.1.55-.28.62-.22s.12 8.19.12 8.18v.72c0 .08-.05.1-.11.12a14.81 14.81 0 0 1-2.31.44 23.67 23.67 0 0 1-4.85 0 14.21 14.21 0 0 1-2.18-.47.2.2 0 0 1-.16-.22v-8.14s-.07-.65.15-.62zM52 208.43a34.65 34.65 0 0 1-3.63.33 16.37 16.37 0 0 1-4.85-.41c-.21-.14-.32-.26-.35-.83v-7.08s0-.27.12-.24h.06a26.29 26.29 0 0 0 2.89.52 21.92 21.92 0 0 0 5-.16c.42-.07.77-.17 1.13-.26h.27a.12.12 0 0 1 .13.13l-.05 7.34s.07.53-.72.66z"/><path class="cls-11" d="M126.72 222.45s1.4-3.93 2.23-4.45a18.79 18.79 0 0 1 6.35-1.88c3.49-.56 8.69-1.18 9.49-.83s3 .7 4.19 1.74a24.87 24.87 0 0 1 3.28 3.34c1.12 1.36 3.84 4.69 3.21 6.88s-1 3.34-1.67 3.62-9.21 2.64-9.42 2.64-10.29.52-12.49-.07-4.12-3.27-4.12-3.27-2 3.06-5 3.34-3.28.28-3.28.28-6.7-.31-12.56-.42-5.79-2.12-6.7-3.2S97.95 226 99 224s3.42-4.42 4.12-5.56 3.94-3.37 5.51-3.2 8.37.76 9.49 1.18 6.66.14 7.26 2.09 1.34 3.94 1.34 3.94z"/><path class="cls-13" d="M83.74 155.48s-1.77 5-1.55 7.11.75 5.66 2.2 7.27 3.27 3.74 4.77 4.44 4.21 1.66 4.61 1.28.67-.64.48-1.07-3.11-2.73-3.11-4a9.25 9.25 0 0 1 .54-3.26c.19-.08 1.8 1.9 2.68 2.19s1.49.51 1.75.05 0-1.9-.47-3.15a33.45 33.45 0 0 1-.8-5.77c0-.61-1.23-5.53-1.77-5.72s-8.31-.39-9.33.63z"/><path class="cls-14" d="M99.18 82.16l4.18-1.16a23 23 0 0 0 2.84-.69c.13-.16 4.23-1 4.23-1v-4a62.61 62.61 0 0 0 13.24 1.18 66.88 66.88 0 0 0 12.22-1.92 31.1 31.1 0 0 1 .54 3.53s6.59.91 7.18 1a67.31 67.31 0 0 1 8.68 3.63c2.22 1.26 9.43 8.52 13.56 15s8 9.35 8.79 11.49 2.41 9.51 2.84 10.31 8.5 15.12 8.68 19.61-2 11.17-3.86 12.88-8.31 4.09-14.53 2.67-8.52-7.59-8.52-7.59a82.23 82.23 0 0 1-2.47-12.56c-.75-6.73-2.14-22.34-2.3-22.55s-3.06-6.23-5.31-8.39S148 91 148 91s-5.07.08-5.25.05.11 6.17-1.82 7.32-25.3 2.47-29 1.35-4.2-5.46-4.2-5.78-7.45.53-7.45.75-.38 12.5-1.34 15.28S97.57 131 96.29 134s.75 4 .75 5.5-.67 10.71-.64 11 .11 2.83-.11 2.78-5.87 3.15-10.67 1.66-3.91-4.38-3.91-4.38S74.2 148.5 74 146a9.22 9.22 0 0 1 1-4.7s-.4-3.77.21-5 2-4.33 2-4.33 2.79-13.31 3.22-15.23 2.84-10.31 5.2-14.64 5.84-11.27 8.47-13.57a60.39 60.39 0 0 0 4.56-4.44s-.66-1.44.52-1.93z"/><ellipse class="cls-9" cx="100.41" cy="92.53" rx="4.66" ry="4.65"/><ellipse class="cls-9" cx="139.54" cy="97.77" rx="4.66" ry="4.65"/><path class="cls-9" d="M165.13 123.67a4.66 4.66 0 0 1-9.33 0c.35-1.24 1 .12 5.24-3.52 2.57.01 4.09.96 4.09 3.52zM167.42 99.15a4.67 4.67 0 0 1-9-1.81 4 4 0 0 1 4.29-4.17c2.61 4.44 4.95 5.42 4.71 5.98zM183.24 130.81a4.67 4.67 0 0 1-6.45-4.3 3.86 3.86 0 0 1 2.48-3.86c2.35 6.22 5.1 7.69 3.97 8.16zM148.51 80a4.67 4.67 0 0 1-9.23-.94c3.28-.73 9.29.64 9.23.94z"/><ellipse class="cls-9" cx="91.94" cy="119.46" rx="4.66" ry="4.65"/><path class="cls-15" d="M99.93 87.7c-.21 0-1.54-4.44-1.14-5s2.5-2.21 3.5-1.42 2.22 4.84 2.22 4.84a5.67 5.67 0 0 1 2.14 1.42 13.79 13.79 0 0 1 1.29 4.35 13.51 13.51 0 0 0 .43 3.49c.39 1 1.5 3.06 2.64 3.63s6.36.85 6.36.85 19.9.36 22.16-.64 2.22-1.89 2.5-3.21.73-5 .73-5-2.45-1.23-2.09-3.4 2.39-3.88 2.43-4.7-.43-3.6.52-3.76 4-.94 4.34.91a24.91 24.91 0 0 1 .21 4.77c0 .32.82.57 1 2.28A7.53 7.53 0 0 1 148 91s-1.13 9.08.09 10.62a79.42 79.42 0 0 1 5.15 7.05c1 1.78 2.36 15 2.64 16.74s1.64 16.6 1.64 19-.61 13.89-.93 17.81a100.67 100.67 0 0 1-2.86 15.46c-.93 2.71.18 16.35 0 19.66s-.68 6.8-.93 9.4.32 8.55-.25 9.19-1.11 2.74-1.39 2.64-2.89-2.89-5.15-3.06a72.89 72.89 0 0 0-15.62 1.49c-1.06.28-1.44.42-1.58-.55s-.14-19.7-.5-21.16a20.4 20.4 0 0 0-2.14-4.2s-1.14 9.58-1.07 12 0 13.47-.36 13.82-13-1.46-14.29-1.5-8 3.21-8.29 3-1.68-1.82-1.25-2.78.14-12.36.11-14.68-.82-16.6-.86-17.81a43.74 43.74 0 0 0-.57-7.48c-.54-2.17-3-13.43-3-15.1s.21-12.33.36-13.54a19.42 19.42 0 0 0-.29-5.2 32.35 32.35 0 0 1-.71-5.63c0-1 1.72-10.29 1.72-12.4s1.5-13 1.32-13.8 1-6 1-7.36.64-7 .38-7.93-2-4.4-1.59-5.11 1.15-1.89 1.15-1.89z"/><ellipse class="cls-9" cx="81.44" cy="131.43" rx="4.66" ry="4.65"/><path class="cls-9" d="M85.67 150.88a4.67 4.67 0 0 1 8.89-2c.28.63-5.35 2.12-8.89 2zM110.55 103.91s-.21 3.29.21 3.69 31.14 0 31.14 0l-.32-4.49-31-.11z"/><path class="cls-16" d="M100.61 7.61S107 5 108.15 4.31a30.37 30.37 0 0 1 10.32-2.15c3.7 0 8.08-1 10.09-.77a6.3 6.3 0 0 1 3.31 1.46s2.31.08 4.23 0 4.85 1.23 5.62 1.46l9.35 2.76c1.54.46 3.7 2.76 5.7 3.76S169.05 21.58 170 24.57s5.39 9 5.85 11.05 2.62 14-.85 19.26-9.47 13-12.93 14.58-7.31 4.84-8.24 5.37-6.85 2.69-9.7 2.69h-4.39a15.3 15.3 0 0 0-2.93.54c-.38.15-.54-3.76-.54-3.76s-9.47 2.76-15.71 2.3A78.57 78.57 0 0 1 109 74.84s2.35 3.34 1.73 3.88-4.58.61-6.27.38-7.85-2-7.85-2L93 75.34a46.89 46.89 0 0 0-4.31-2.8c-.46-.08-9.39-10.67-10.86-13.35S75.12 50.28 75 45.3a46.9 46.9 0 0 1 3.2-16.35c2.08-5.68 7.58-12 10-13.51s8.85-5.07 8.85-5.07z"/><path class="cls-13" d="M115.35 22.9a10.82 10.82 0 0 0-2.28 3.1c-.49 1.27-.78 5.87-1.24 6.56s-1.76.83-2.63.75a7.55 7.55 0 0 1-2.4-1.18c-.12-.06-5.69 1.67-6.35 1.73s-7.65 1.7-8.11 1.81-3.46.75-3.61.81a5.92 5.92 0 0 0-3 3.66 6.6 6.6 0 0 0 .27 4.55 4.74 4.74 0 0 0-1.76 2.22 8.42 8.42 0 0 0 1.24 5.35c1 1.12 4.3 2.91 4 2.76s1.3 3.54 4.22 7.68 6.87 8.46 15.19 11.92 19.84 1.78 20.12 1.76a32.52 32.52 0 0 0 12.5-4.38s6.5-4.75 8.34-6.62 5.6-6.45 6.38-8.29a10.56 10.56 0 0 0 .81-2.24s2.34.23 4-2.82.78-6.59-.61-7.34-4-.2-4.82-.06-2.71-1.58-3.2-3.68-5.69-7.25-5.69-7.25a31.73 31.73 0 0 1-6.09-.12c-2.31-.4-6.81-.92-8.52-1.41s-7.3.26-8.4.52-4.91 2.07-5.2 1.81-.14-1.61-.14-2.19-3.02-9.41-3.02-9.41z"/><path class="cls-14" d="M110.08 45.76a3.36 3.36 0 0 0-1.15-2.32 4.42 4.42 0 0 0-3.21-1.27c-.85 0-4.41-.31-5 0a13.91 13.91 0 0 0-2.44 2.3c-.67.75-.06 1.27.33 1.48s1.75 1.3 2.75 1.31a30.49 30.49 0 0 0 4.43-.14c.89-.19 2.56-.88 3.2-.9s1.01-.22 1.09-.46z"/><path class="cls-17" d="M107 42.74a2.46 2.46 0 0 1 .69 2.13 3.55 3.55 0 0 1-2.69 2.36c-1.27.25-2.8-.49-3-1s-1.13-1.95-.88-2.66 4.18-3.65 5.88-.83z"/><path class="cls-14" d="M127.48 45.6a3.36 3.36 0 0 1 1.15-2.32 4.42 4.42 0 0 1 3.22-1.28 25.39 25.39 0 0 1 4.89.61 9.28 9.28 0 0 1 2.54 1.67c.67.75.06 1.27-.33 1.48a9 9 0 0 1-3 .88c-1 0-3.29.48-4.18.29s-2.56-.88-3.2-.9-.99-.18-1.09-.43z"/><path class="cls-17" d="M131.52 42.61a2.46 2.46 0 0 0-.69 2.13 3.55 3.55 0 0 0 2.66 2.36c1.27.25 3.1-.15 3.27-.67s.83-2.28.58-3-4.12-3.64-5.82-.82z"/><path class="cls-18" d="M76.41 33.69a28.91 28.91 0 0 0 4-4.32c1.21-1.84 4.1-7.08 6.93-9.67a60.66 60.66 0 0 1 4.68-4.26l-2.71 5.87s2-2.65 3.81-3.34a10.59 10.59 0 0 1 2.54-.75A35.62 35.62 0 0 0 93 22c-.4 1.27-.46 6.91-.4 7.83s.29 2.48.29 2.48.69-6.73 3.18-10.42 3.87-6.79 9.47-9.79 6.7-3.17 7.62-3 0 1.9 0 1.9a58.69 58.69 0 0 0-2.54 5.87 19.42 19.42 0 0 1 3.35-4 34.79 34.79 0 0 1 4.22-3.17s-2.48 7.31-2.48 9.56 1 8.75 1 8.75l1.1 2.88a24.25 24.25 0 0 1 1.62-10.42c2.14-5.18 3.12-10 7.1-11.22a5.76 5.76 0 0 1 7 2.65 24.44 24.44 0 0 1 1.56 4.66s.17-4 .06-5 1.27-1.09 2-.86a13 13 0 0 1 6.87 5.41c2.37 3.86 3.23 10.07 3.23 10.07s1.27-7.77.4-9.27-2.94-4.89-4.56-6.22c0 0-.35-1.5 2.14-1a17.08 17.08 0 0 1 6.6 2.31s-2.94-2.53-4.39-3.68-8.08-4.91-8.44-5.14a28 28 0 0 0-4.1-.58l-2.66-.12-2.14-1.15-7.8.86-2.89-.52-9.91 1.74-7.56 3.4L95 11.64l-3.23 1.21-7.62 6.62s-5.72 7.2-5.89 8.12-2.08 6.22-2.08 6.22z"/><path class="cls-14" d="M173.16 127.63l-.39-.26-.4-.22-.5-.14a3.18 3.18 0 0 1-2-.92 3.07 3.07 0 0 0 .66.93 6.5 6.5 0 0 0 2.77.72z"/><circle class="cls-14" cx="103.44" cy="44.17" r=".71"/><circle class="cls-14" cx="132.73" cy="44.15" r=".7"/><path class="cls-13" d="M167.07 132.88c0-.45-3.87-1.64-4.55-2.61s-.74-2.5.91-2.5 4.44 1.08 4.89.68l.46-.4.68 1.53-.11 3.86a1.63 1.63 0 0 0 1.82.57c1.31-.28 1.37-1.82 1.37-1.82l-.23-3.4a4.47 4.47 0 0 1 3.19.34c1.48.85 3.24.91 4 2.72s1.31 4.2 1.82 5.56-.06 3.06-.68 5.22a52 52 0 0 1-2.28 5.67s-4.5.68-6.37.68-4.89-.4-6.26-1.7a2.21 2.21 0 0 1-.68-2.38 13.22 13.22 0 0 1-1.37-3.18c-.28-1.36.57-4.88.57-4.88s-.34-1.82.34-2.16a25.36 25.36 0 0 1 3.19-.91z"/><path class="cls-11" d="M169.82 126.07c-.25-.74 1.12-54.23 1.12-54.23s-.4-3.18 1.37-3.52 1.48 4.31 1.48 4.31L172.42 133s.34.51-1.25 1-1.82-.57-1.82-.57zM168.09 206l1-56.72a5.12 5.12 0 0 1 1.82-.34c1 0 1.25 3.4 1.25 3.74s-.91 53.32-.91 53.32-1.9 3-3.16 0z"/><path class="cls-9" d="M167.22 226.84c-.22.16-16.16 5.16-16.16 5.16s-8.27 2.5-9.63 3.4-2.2 2.34-1.9 3.18a10.76 10.76 0 0 0 1.21 3c.64.79 6.15 7 7.28 7.34s5.61-.42 6.3-.61 41.38-13.08 41.8-13.31 3.07-1.7 3.34-2.65a4.85 4.85 0 0 0 .08-2.95c-.34-1.13-6.45-5.71-6.9-6.05a18.56 18.56 0 0 0-3.72-2c-.49.05-21.7 5.49-21.7 5.49z"/><path class="cls-7" d="M167.87 220.57l-.11 8.74-5.92 2.16s-3.19.17-3.07 1 2.39 3.06 2.39 3.06l3.07 2.72 17.63-5.25a2.18 2.18 0 0 0-.57-1.93c-.85-1.08-4.1-4.42-4.1-4.42l-6.26 1.82-.11-21.1-2.62-.34z"/><path class="cls-19" d="M178.22 226.12s10-2.67 10.58-2.5a68.62 68.62 0 0 1 5.35 4.54 4.05 4.05 0 0 1-2 1.82c-1.19.28-8.53 2.61-8.53 2.61l-1.48-.57-4.89-5.33zM145 236.79l4.55 5.67s3 .68 3.76.34l9.9-4.42-2-2.84-2.39-3.06z"/><path class="cls-6" d="M103.83 62a2.81 2.81 0 0 1 2-1.35c1.27 0 1.87.86 5.16 1.75s10 2 14.57.81c2.42-.63 8.13-3.08 8.74-3.25a1.37 1.37 0 0 1 1.36.29.72.72 0 0 1 .14 1.09c-.32.29-.87-.63-1.07-.66s-5.17 2.57-6.43 3.28c-2 1.12-5.74 1.52-9.06 1.41a26 26 0 0 1-7.9-1.75c-2-.72-4.53-2.16-5.16-2.16a6.25 6.25 0 0 0-2 .75s-.41.56-.35-.21zM114 67.37s0-.43.55-.43a52.58 52.58 0 0 0 5.34.69 24.4 24.4 0 0 0 6.26-.63c.58-.29.89-.14.89 0a14 14 0 0 1-6.11 2.13c-2.85.17-6.4-.98-6.93-1.76zM116 55.44a5.26 5.26 0 0 0 3.58 1.21 6.57 6.57 0 0 0 3.61-1.27c.17-.2.29-.58-.66-.32a8.47 8.47 0 0 1-3 .4 23.59 23.59 0 0 1-3-.29s-.76-.36-.53.27zM131.35 36.41s.23.43 3.09.72 5.62 2.1 5.85 2.13.61 0-.09-.63a19.5 19.5 0 0 0-4.64-2.88c-1.16-.32-4.42-.64-4.21.66zM96.85 38.91c.06.17.36 0 1.74-.69a14.22 14.22 0 0 1 5-1.12c1.24 0 2.71 0 3.14.06s1.93-.69.2-1.32-5.71.2-7 .75a9.11 9.11 0 0 0-2.74 1.64 1 1 0 0 0-.34.68zM111 45.65a9.42 9.42 0 0 0-2.74-3 6.7 6.7 0 0 0-4.64-1.35c-1.24 0-3.48.2-4.46.83a6.61 6.61 0 0 0-2.06 2.66 1.12 1.12 0 0 0 .23 1 4 4 0 0 0 .84.78 15.76 15.76 0 0 0 3.17 1.24 14.64 14.64 0 0 0 5.26-.06c1.14-.24 2.64-.91 2.94-.91s1.07.2 1.28 0 .64-.41.18-1.19zm-9.28 1.43a3.6 3.6 0 0 1-1.15-.18 9 9 0 0 1-1.76-1.19.79.79 0 0 1-.22-.54c0-.27.43-.89.91-1.48a3.4 3.4 0 0 1 1.22-.86c.43-.19.61-.13.56 0a3.1 3.1 0 0 0-.49 1.8 2.9 2.9 0 0 0 1.21 2.23s.08.2-.24.23zm5.28-2.45a1.83 1.83 0 0 1-1 1.75 3.46 3.46 0 0 1-2.68.13A2.2 2.2 0 0 1 102 45a2.44 2.44 0 0 1 .19-1.85.81.81 0 0 1 .37-.29.47.47 0 0 1 .25 0c.36.16.25.32.23.39s.06 1.55.06 1.55a1.62 1.62 0 0 0 1.31.86 1.35 1.35 0 0 0 1.4-1 1.52 1.52 0 0 0-.13-1 .52.52 0 0 1 .66-.66c.61.29.72 1.16.66 1.63zm2.8 1.68c-.19.09-.81-.32-1.24-.24a4 4 0 0 0-1.06.42c-.11 0-.2 0-.16-.12a2.13 2.13 0 0 0 .56-1.39 3.33 3.33 0 0 0-.43-2.09 6.14 6.14 0 0 1 2.13 2.24c.4.71.4 1.1.23 1.18z"/><circle class="cls-14" cx="103.35" cy="44.02" r=".71"/><path class="cls-6" d="M139.86 44.86a27.45 27.45 0 0 0-2.27-2.08 7 7 0 0 0-2.58-1 9 9 0 0 0-5.57.13c-1.37.61-2.56 3-2.65 3.65a2 2 0 0 0 0 1c.14.64.81.46.84.47a7 7 0 0 1 1.87.18c.6.15 3 .62 3.61.78a9.29 9.29 0 0 0 3.84-.19 6.39 6.39 0 0 0 3.3-1.76c.35-.43-.05-.78-.39-1.18zm-8.46 2.07c-.56-.14-2.17-.82-2.73-.9a1.19 1.19 0 0 0-.63.07c-.33 0-.18-.47-.18-.47l.24-.53a5.64 5.64 0 0 1 1.56-1.67 5.38 5.38 0 0 1 1.46-.77c-.05.1-.29.32-.38.5a3.27 3.27 0 0 0-.31 1.6 2.9 2.9 0 0 0 1.07 2.18zm5-2.12a2.23 2.23 0 0 1-1.46 2 2.55 2.55 0 0 1-3.13-1 2.15 2.15 0 0 1-.09-2.29s.15-.25.36-.26a.91.91 0 0 1 .65.2c.16.15 0 .45-.12.82a1.2 1.2 0 0 0 1 1.52 1.31 1.31 0 0 0 1.67-1c0-.35.08-.9.53-.9s.71.17.61.91zm2.72.89a14.55 14.55 0 0 1-2.23 1.16.22.22 0 0 1-.12 0c-.2-.1.35-.46.59-1.53a3.2 3.2 0 0 0-.06-1.8c.47.33 1.35 1 1.78 1.35s.22.64.06.82z"/><circle class="cls-14" cx="132.61" cy="44.01" r=".7"/><circle class="cls-6" cx="114.21" cy="78.71" r=".6"/><circle class="cls-6" cx="118.37" cy="78.2" r=".59"/><ellipse class="cls-6" cx="122.06" cy="80" rx=".48" ry=".58"/><circle class="cls-6" cx="126.18" cy="78.32" r=".63"/><circle class="cls-6" cx="130.28" cy="78.8" r=".61"/><circle class="cls-6" cx="134" cy="76.72" r=".6"/><circle class="cls-6" cx="122.7" cy="84.45" r=".66"/><circle class="cls-6" cx="128" cy="86.8" r=".66"/><circle class="cls-6" cx="123.39" cy="92.09" r=".66"/><circle class="cls-6" cx="118.43" cy="95.77" r=".66"/><path class="cls-6" d="M124 99.42a.66.66 0 0 0-1.13 0z"/><circle class="cls-6" cx="128.09" cy="95.2" r=".66"/><circle class="cls-6" cx="118.46" cy="87.78" r=".66"/><path class="cls-6" d="M130.02 82.16v.01h-.01l.01-.01zM128.88 1.91l-.41-.08a16.79 16.79 0 0 0-4.23.08zM142.43 102.91c-.21-.45-1.63-.52-1.63-.52l-18.24.05s-10.43-.2-11.61-.14a1 1 0 0 0-1.07 1.1s-.09 3 0 4.1 1 1 1 1 29.5-.07 30.55 0 1.07-.57 1.07-.57a40.36 40.36 0 0 0-.07-5.02zm-2 4.24h-28.3c-.95 0-1.07-.32-1.07-.32a17.2 17.2 0 0 1-.07-2.21c.05-1 .5-.93.5-.93h11.08s17.15.16 17.9.07.82.25.82.25v2.39c0 .77-.9.75-.9.75zM108.8 91.92s.04.01 0 0zM145.51 132.39V114a1.27 1.27 0 0 0-1.21-1.2c-1.17-.09-36 0-36 0s-1.42-.07-1.39 1.68 0 22.71 0 22.71a2.67 2.67 0 0 0 3 2.75l30.31-.11a5.56 5.56 0 0 0 3.64-1.52c1.98-1.7 1.65-5.92 1.65-5.92zm-2.65-18.34s.39.12.23 1.12c-.1.59-.5 3.27-1.06 3.91a3.89 3.89 0 0 1-2.57 1.31c-1.11.09-28.49 0-28.49 0s-.56-.07-.86-.88-1.37-4.69-1.37-4.69-.25-.81.39-.83zM144 134.9s-.05 1.92-1.15 2.67-3.31 1-4.9 1h-28s-1.63-.07-1.69-1.58c0-1.13-.15-12.77-.1-18.72.28.93.53 1.73.61 1.94a2.74 2.74 0 0 0 2.71 1.63c1.84.08 27.9 0 27.9 0a3.82 3.82 0 0 0 3.46-1.84 14.19 14.19 0 0 0 1.15-3c.15.14.01 17.9.01 17.9z"/><path class="cls-6" d="M200.17 229.64a2.17 2.17 0 0 0-.74-1.45s-7.92-6.27-9-6.75a6 6 0 0 0-2.57-.34l-16.33 4.15 1.14-62.76.13-7.23s1.65 0 4.32-.14a7.29 7.29 0 0 0 4.81-1.87 32.38 32.38 0 0 0 2.33-4.06c.31-.65 2.18-5.46 2.36-6.13a12.21 12.21 0 0 0 .23-4c-.17-1-.66-3-.86-3.74 0-.1 0-.2-.08-.32a42.49 42.49 0 0 0-4.21-8.22 29.9 29.9 0 0 1-1.76-4.08c-.48-.94-1-1.62-1.65-3a23.75 23.75 0 0 1-1.48-5.22 43 43 0 0 0-2.56-6.81 7.68 7.68 0 0 1-.68-2.21s.31-36 .17-36.59-.94-1.11-2.16-.79-1.25 2-1.25 2-1 30.86-.85 31.14c0 0-2.87-3.43-4.21-5.16s-5.12-7.46-8.25-10.27a36.76 36.76 0 0 0-7.91-5.26 4.55 4.55 0 0 0-3.1-2.12 6.38 6.38 0 0 0-2.83.07c-.42 0-.66-.05-.6-.22a47.55 47.55 0 0 0 7.63-1.56 22.5 22.5 0 0 0 6-2.84 5.27 5.27 0 0 0 .93-.61 18.29 18.29 0 0 0 3.68-2.38c1-1 4.87-2.13 7.5-5.75s5.74-6.24 6.17-7.62 1.5-3.91 2-5.61a43.2 43.2 0 0 0 .92-9.95 23.11 23.11 0 0 0-1.24-7.25c-.63-1.47-5.08-9.26-6.92-12s-7.3-7.82-8-8.68A53.12 53.12 0 0 0 153.27 8a26.24 26.24 0 0 0-6.66-2.53l-3.45-1a45 45 0 0 0-5.23-2.11 20.13 20.13 0 0 0-5.11 0 7.36 7.36 0 0 0-4.63-1.58s-3 .5-3.81.54c0 0-1.81.23-2.46.27s-4.92-.12-6.5 0a29.1 29.1 0 0 0-9.12 2.47V4a66.64 66.64 0 0 0-6.88 3.76 84.12 84.12 0 0 1-7.15 4.52 78.37 78.37 0 0 0-6.85 5.06 43.84 43.84 0 0 0-7 9.16 43 43 0 0 0-3.54 9.85 35.22 35.22 0 0 0-.35 5.55l-.15.31s0 3.14.15 5.87a43.16 43.16 0 0 0 3 11.5 27.78 27.78 0 0 0 5.11 7.71c2.08 2 2.5 2.72 2.85 3 0 0 1.62 1.27 3.11 2.57a18.11 18.11 0 0 0 4.4 2.56c.73.31 4.46 2.34 5.15 2.61a15.6 15.6 0 0 1 2.58.84 2.47 2.47 0 0 0 1.46.2 3.37 3.37 0 0 0 .92.26 19.48 19.48 0 0 0 2 .17c-.67.27-1.64.61-2.7 1a41.06 41.06 0 0 0-4.52 1.5 1.52 1.52 0 0 0-.68 1.6c0 .07.1.26.19.53-.74.73-3.26 3.11-3.26 3.11-3.54 3.47-8.14 11.88-9.72 15.39a113.87 113.87 0 0 0-4.61 13.68c-.46 2.17-2.66 11.9-2.93 13.71a17.48 17.48 0 0 1-.79 3.21 24.55 24.55 0 0 0-1.61 2.49 5.7 5.7 0 0 0-.43 3.7 4.52 4.52 0 0 1 .11 2.1 4.54 4.54 0 0 0-.93 3.7c.16 1.12.21 3.15 6.54 5.13.34.11.68.2 1 .29 0 .21-.09.7-.13 1.24s.13 1.92 2.18 3l.42.18a15 15 0 0 0-1.18 3.17A18.79 18.79 0 0 0 83 168a11.56 11.56 0 0 0 5.18 6c.88.64 3.72 2.1 5.47 2a1.39 1.39 0 0 0 1.29-2.1c-.25-.61-2-1.59-2.61-2.42a3.65 3.65 0 0 1-.86-2.6c-.05-1.35.39-1.18.39-1.18a5.55 5.55 0 0 0 2.86 2.64c1.66.64 2.14-.25 2.14-.25.3-.29-.09-1.67-.32-2.14a24.34 24.34 0 0 1-1.07-4.67c-.09-1.23-.43-4.52-.68-5.84a7.85 7.85 0 0 0-1.11-2.56s2.23-1.67 2-.43A99.2 99.2 0 0 0 97 168.71a28.75 28.75 0 0 0 1.53 4.77c.19 1.21.3 3.77.37 6 .08 2.45.11 7.43.07 10a29.9 29.9 0 0 0 .73 7.11 28.17 28.17 0 0 1 .68 4.83s.13 7.27.2 7.68a10.87 10.87 0 0 1 .07 2.85 19.12 19.12 0 0 0 .21 3.67 11.3 11.3 0 0 0 0 2.46 1.46 1.46 0 0 0 1.14.92 8.51 8.51 0 0 0-1.87 1.36 6.55 6.55 0 0 0-2 3.22 12 12 0 0 0 .23 4.52 6.18 6.18 0 0 0 3.88 4.41 31.65 31.65 0 0 0 6.08 1.57c1.58.27 10.65.31 12.19.27a18.38 18.38 0 0 0 4.5-.58 3.64 3.64 0 0 0 2-2.24 8.11 8.11 0 0 0 1.58 1.82c.88.69 5.31 1 8.5 1h.15l5.58-.36c-.86.26-1.53.48-1.46.47-.63.43-1.91 1.43-2 2.31a8.6 8.6 0 0 0 .91 4.45 84.11 84.11 0 0 0 8.09 8.58 4.63 4.63 0 0 0 2.54 0s47.1-15.46 48.1-15.85a1.76 1.76 0 0 0 1.17-1.2s.06-2.2 0-3.11zM173.5 109.39s1.62 4.62 2.5 6.86.23 2 .23 2a7.52 7.52 0 0 0-2.83-1.25zm-.23 18.15l.11-9.08c0 .24.06.4.06.4a5.37 5.37 0 0 1 3.58 1.93 17.76 17.76 0 0 1 3.07 5.45c.54 1.59 2.3 4.08 3.3 6.47l1.42 3.4a14.6 14.6 0 0 1 .8 6.49 23.71 23.71 0 0 1-2.3 6.66c-1 1.66-3.06 4.45-5.46 4.88a26.87 26.87 0 0 1-5.18.28s0-4.12-.12-5h.15c1.05-.26 3.9-.94 4.44-.45s.4.68.17 1 .65.2 1.88-1 1.62-3.43 2.5-5.73a8.2 8.2 0 0 0 .34-5.56c-.46-1.25-1-2.69-1.31-3.69a7.89 7.89 0 0 0-1.19-2.84c-.83-1.25-4.1-3-6.23-3.12h-.05zm-2-55.13c.06-.91-.23-3.35.91-3.29s1 1.3 1 1.3l-.46 39.42s-.68 22.89-1 23.37-1.65.45-1.65.45 1.1-60.34 1.15-61.25zm.46 62.34a4.93 4.93 0 0 0 2.79-1.47c.54-.71.46-1 0-1.13s-.46.2-.91.57-.57.06-.57.06l.19-3.4c.1-.12.35-.26 1-.17 1 .14 4.41 1.7 5.46 3.57s.14 2.67.4 3.57 1.39 2.38 1.19 3.63a4.94 4.94 0 0 1-1.19 2.33c-.28.43.2 1.59-.11 2.33a4.65 4.65 0 0 1-.8 1.25 3.19 3.19 0 0 1-2 2.33c-1.68.57-5.69.51-7.17.4a11.16 11.16 0 0 1-3.53-1.13c-.77-.31-1.48-1.22-1.14-1.87s1.79.69 3.3 1a5.36 5.36 0 0 0 2.13.11c.48 0 3.71-.09 5.06 0s1.15-.67.63-1a6.78 6.78 0 0 0-3.76-.14 24.52 24.52 0 0 1-2.59.34h-.1a17.86 17.86 0 0 1-2.81-.72 3.6 3.6 0 0 1-2.62-2.27c-.48-1.33.51-1.16.8-1h.07c.27.1 1.29.47 1.61.63a5.68 5.68 0 0 0 3.53 1A7 7 0 0 0 174 143a12.13 12.13 0 0 1 3-.11c.7 0 .83-.27.4-.85s-1.74-.52-2.48-.48-2.18.78-3.1.91a5.2 5.2 0 0 1-3.33-.37 11.79 11.79 0 0 0-2.08-.91.83.83 0 0 0-.34-.06 2.42 2.42 0 0 1-1.54-.88c-.48-.79-.44-1.46 0-1.84a.63.63 0 0 1 .68.09 10.64 10.64 0 0 0 3.73 1c2 .27 6.4-.87 7.2-1s1.79 0 2.16-.11.37-.84 0-1.11-1.64.35-2.93.51a45.26 45.26 0 0 1-7.51.31c-1.63-.12-2.25-.56-2.48-.88 0-.07 0-.18-.14-.34-.8-.91-.6-1.47.34-2s4.85.18 6.1-.13zm9.86 97.25c.46.94-1 1-1.06 1.11s-13.26 3.76-13.86 4-2.37.68-3 .14-3.17-3.42-3.17-3.42-1.06-1.14-.83-1.45 6.91-2.32 7.58-2.52v1c.23 1.31.43 2.68 2.4 2.11a2.54 2.54 0 0 0 1.8-2.62v-1.67c.72-.25 3-1 4-1.26a3.55 3.55 0 0 1 1.89 0s3.8 3.58 4.25 4.58zm-2.57-5.3c.63-.46 8.86-2.19 9.55-2.25s4.49 2.62 4.86 3.56-1 1.25-1 1.25-8 2.65-8.89 2.65a2.89 2.89 0 0 1-1.16-.25c-.38-.45-1-1.18-1.5-1.89a13.22 13.22 0 0 0-2.34-2.22c-.09-.27-.02-.55.46-.87zm-16.29 11.25c-1.31.44-9.89 3.79-10.81 4s-1.06 0-1.63-.46-4.29-3.93-4.29-3.93-.34-.43.54-.8 10.55-3.28 11.21-3.36a1.38 1.38 0 0 1 1.13.26 33.92 33.92 0 0 0 3.19 3.73zm-6.41-12.56a6.63 6.63 0 0 0-2.19-4.91 4.71 4.71 0 0 0-.59-.55s-1-.51-1.63-.84a1.37 1.37 0 0 0 .84-.88c.18-.71-.29-1.62-.18-2.24s.36-1.53.36-1.53.32-3.79.36-4.77.84-4.11.75-5.81.27-8.37.36-9.69 0-9.35 0-9.35a32.15 32.15 0 0 1 .34-6.09c.23-1.11.94-1.49 1.2-4.76s1.43-19.27 1.57-21.05a23 23 0 0 1 .79-4.63c.16-.11 1.47 1.35 1.47 1.35.74 1 2.42 2.92 3.24 3.91s4.61 2 5.23 2a.31.31 0 0 0 .19 0c-.07 4.15-.15 9.17-.18 11.31v.31s-.88 44.89-1 59.38L155 230.17c1-1.17 1.35-2.82 1.32-4.8zm8.08-92.49a3.64 3.64 0 0 1 2.56.85 4.17 4.17 0 0 0-3.36 1.19c-.6.62-.06 2.21-.06 2.21a2.28 2.28 0 0 0-.8 1.22 21.65 21.65 0 0 0-.43 4.88c.06 2.1 0 3.89 1.14 5a7.4 7.4 0 0 0 2.28 1.62s.26 0-.11-.26a5.73 5.73 0 0 1-2.33-4.37 7.47 7.47 0 0 1 .36-3 7.46 7.46 0 0 0 .53 1.39 4.14 4.14 0 0 1 .51 1.7 2.5 2.5 0 0 0 1.59 2.78c1.6.76 2.16 1 2.3 1.06 0 .63-.05 2.58-.09 5-.21 0-3-.26-4.25-1.19s-3.36-4.45-4.15-6a12.4 12.4 0 0 1-1.37-3.69c-.2-1.08.6-5.5 1.31-6.47s1.56-1.7 1.88-2.33a3.56 3.56 0 0 1 2.49-1.61zm-1.4-4.51c.83-.31 3.9.57 4.89.62a3.37 3.37 0 0 0 1.27-.14c0 1.68 0 3.44-.31 3.66a.87.87 0 0 1-.53.14s-.54-.15-1.28-.38a14.9 14.9 0 0 1-3.47-1.48c-1.39-.97-1.42-2.1-.57-2.42zm6.57 34.79c0-4.86.1-11.69.17-12.67.05-.73.32-1 .57-1.09h.56a.81.81 0 0 1 .6.78l-.06 13.44h.06c-.23 11.49-.73 28.79-1 43a1.69 1.69 0 0 1-.74.15 2.9 2.9 0 0 1-1-.3c.19-12.67.57-27.63.78-38.37s0-1.73 0-4.11v-.81zm-.22 44.92a4 4 0 0 0 1.08 0c-.25 12.56-.44 22.32-.45 22.73 0 1.17-.34 1.28-1 1.23s-.63-.88-.63-.88l.34-23.25a1.42 1.42 0 0 0 .64.17zm-20.1-126.59a20.92 20.92 0 0 1 3.31 2.07 40.69 40.69 0 0 1 8.44 8.51c2.59 3.37 2.9 4.71 3.7 5.73s4.07 4.62 4.5 5.16c.09.12.15.1.2 0l-.4 22.75s0 .63.08 1.51a2 2 0 0 1-1.16.59c-1 .14-3.07-.91-4.67-.62s-1.74 1.13-1.76 1.82a2.32 2.32 0 0 0 1.08 2s.31.26-.46.68a7.06 7.06 0 0 0-2.11 3.09c-.37 1-.63 2.86-1.31 3.35s-.76 0-1-.66c-.23-3.22-.62-8-.85-9.07a19.94 19.94 0 0 1-.1-3.3 17.4 17.4 0 0 1 1.69-2.57c.94-1.33 4.15-2.33 5.86-2.84s1.31-1 1.31-1 .11-.65-3.36.4-4.21 3.15-4.21 2.55a16.54 16.54 0 0 1 1.08-2.89c.51-1.45 1.59-1.87 2.33-2.67s.85-1.16.63-1.7-1 .09-2.33 1.3a10 10 0 0 0-2.9 4.65c-.23 1.36-.65 2.67-.74 2s-.46-6.21-.46-7.37.85-2.21 1.08-3.18.74-5.53.23-5.39-.57 1.19-.51 2.16-.48 3.4-1.31 2.84-2.45-8.68-2.67-9.7-.09-2.64-.46-1.93c-.26.51.1 3.94.42 6.35-.67-.61-3.07-2.89-3.47-4.44-.46-1.78.32-9.53-.21-10.37 1-.41 1.29-1.32 1.25-2.56s.11-1.85-1-3.1c.01.08.26-2.78.26-4.15zm-5.51-.12c0-1 .32-1.5.8-1.44S147 80 147 81.4a28.53 28.53 0 0 1-.16 3.29 22.32 22.32 0 0 0-3.19-.65c.05-.69.08-1.98.09-2.64zm-.43 4.27c4.65 0 5.36 1.14 5.36 1.14a6 6 0 0 1 0 2.56 1.13 1.13 0 0 1-1.29.75 17.26 17.26 0 0 0-2.93-.11c-.13-.05-2.22-.11-2.79-.57s-.7-1.18-.43-2.56 1.89-1.2 2.08-1.2zM87.74 34a1.35 1.35 0 0 0 .31.37c.21.4.51.87.77.93 0 0-1.69 1.38-2.23 2a.48.48 0 0 0-.15.25c-1.58 1.35-1.54 4.78-1.54 5.53s-.27.73-.27.73a9.36 9.36 0 0 1-1.15-2.91c-.54-2.07-.35-6.59-.19-8.09a19.74 19.74 0 0 1 2.69-7c.64-1 1.25-1.78 1.72-2.39a27.41 27.41 0 0 0-1 5.23A9.33 9.33 0 0 0 87.74 34zm-2.92 12.8a2.89 2.89 0 0 1 2.27-1.53 11.77 11.77 0 0 1-.92-3.6 5.93 5.93 0 0 1 .95-3.95 8.79 8.79 0 0 1 2.19-1.34c.82-.31 12.46-2.34 13.19-2.61a21.86 21.86 0 0 1 4.11-1.07 9.28 9.28 0 0 0 5.5.61s.19-3.49.77-4.6 1.12-4.35 2.12-5.5a9.84 9.84 0 0 0 .81 3.11 23.46 23.46 0 0 1 1.62 6.1 10.5 10.5 0 0 1 0 2.45c-.12.46.73.77 2-.27s7.81-2 9.58-2.07a17.12 17.12 0 0 1 7 .81c3 1.07 8.54.54 9.38.27a8.66 8.66 0 0 0 2.85 2.8 6.73 6.73 0 0 1 2.88 3.3c.38.81.5 3.49 2.5 4.83a6.54 6.54 0 0 0 1.12.69c.35.12.73-.27 1.19-.61a3.41 3.41 0 0 1 2.85-.27 3.35 3.35 0 0 1 2.5 3.34c.12 2-.31 4.52-2.27 5.64a11.73 11.73 0 0 1-2.88 1.3 21.46 21.46 0 0 1-.77 2.42.4.4 0 0 0 0 .21c-.69 1.37-1.42 1.95-3.3 4.43s-5.5 5.56-9.11 8.17-10.31 6-20.77 6.13-15.84-3.18-20.38-6.25A40.43 40.43 0 0 1 92 59.36a45.22 45.22 0 0 1-2.73-5.56 4.48 4.48 0 0 1-2.81-1.65c-1.46-1.61-2.15-4.02-1.65-5.36zm70.24-8.57a19.85 19.85 0 0 1 4.41.92 6.67 6.67 0 0 1 3.72 5.66 9.52 9.52 0 0 1-.52 2.36c-.31.5.12-2-1.69-3.34 0 0-.73-.73-3-.5s-3.08 1-4-.27-.85-2.84-1.54-3.6a25.76 25.76 0 0 1-2.38-3 7 7 0 0 0 1.38.63 2.36 2.36 0 0 1 1.47.81 9 9 0 0 0 2.65 2.62 8.11 8.11 0 0 0 4.24 1.06 14.85 14.85 0 0 1-4.75-3.36zm-23.63 38c1.31-.38 2.65-.81 3.67-1.15a4.33 4.33 0 0 1 .1 2.81 2.6 2.6 0 0 1-1.16 1 6.25 6.25 0 0 0-2.61-2.71zm-8.7 11l-.1-.06a21.22 21.22 0 0 1-3.73-2.48 11.55 11.55 0 0 1-1.37-2c2.42.17 6.64.31 8.36.31.13 0 1.5-.28 3-.56-1.17.83-3.23 2.28-3.72 2.6s-1.6 1.32-2.44 2.11zm.05 1.47a41.75 41.75 0 0 0 5.92 2.19 38.81 38.81 0 0 1-5.3 4.6 22.32 22.32 0 0 1-4.93-3.34zm-4.33-8.48c-.09-.25-1.4-2.33-2-3.22 1.21.17 2.41.31 3.28.35h.69c-.42.73-1.87 3.05-1.97 2.79zm3.55-2.76c.8.4 2.8 3.16 3.33 3.9a41 41 0 0 1-6.31 0zm1.58-.15a32.54 32.54 0 0 0 5-.43 31.67 31.67 0 0 1-2.2 3.52 36.29 36.29 0 0 0-2.8-3.09zM111.35 76a16.94 16.94 0 0 0 1.82.41c-.52.4-1.41 1.09-1.81 1.45v-.09c-.06-.44-.12-1.39-.14-1.82zm3.54.71c.13.25 1.87 3.51 2.46 4.52a12.21 12.21 0 0 1-2.25-.52 7.72 7.72 0 0 1-3.21-1.84 34.59 34.59 0 0 0 3-2.2zm2 7.09a11.84 11.84 0 0 0 4.86 4.2l.31-.24a1.35 1.35 0 0 1-.31.24l-4.43 3.52c-.1-2.81-.53-6.26-.56-7.09-.05-1.06.1-.67.1-.67zm.42 10v-.89c.55.45 3.74 2.93 4.53 3.38h.09c-1.35.73-3.48 1.64-4.31 2a18.74 18.74 0 0 1-.33-4.49zm6.06 3.2a35.64 35.64 0 0 0 5.3 1.68l-.65.71h-9.26a39.52 39.52 0 0 0 4.61-2.39zm1.35-.94a26.12 26.12 0 0 0 4.39-3.69c.06 1.62.13 3.38.17 5a19.25 19.25 0 0 1-4.56-1.37zm4.3-8.85v2.33a44.09 44.09 0 0 1-5.12-1.77l5.85-4.7a18.41 18.41 0 0 0-.75 4.1zM127.5 81c.76-1.12 2.35-4.18 2.35-4.18a11.42 11.42 0 0 1 3 2.53c-.24.08-.45.15-.61.22-.6.2-3.09.94-4.74 1.43zm2.86 4.8c.54-1.19 1.12-3.35 1.89-3.9a10.27 10.27 0 0 1 4.55-2.43 14 14 0 0 1 5.49-.16 2.22 2.22 0 0 0-.19.76v3.88c-1.05 0-1.39.89-1.72 1.64a7.4 7.4 0 0 0-.29 4 4.25 4.25 0 0 0 1.75 1.85s-.5 3.12-.61 4.35-.13 2.21-1.23 2.78-8.72.75-8.72.75h-1c-.09-5.16-.28-12.78.08-13.57zm6.87-8.33h-.2l-.25-3a52.63 52.63 0 0 0 9.22-5.22 45.8 45.8 0 0 0 6.88-7s-.5 1-1 2.22-.23 2.49-1.46 4.91-4.38 4.18-6.46 5.33a55.68 55.68 0 0 1-6.73 2.71zm19.27-6.13a6.07 6.07 0 0 1-2.15 2.15 29 29 0 0 1-5.88 2.45 10.66 10.66 0 0 1-4 .58 13.61 13.61 0 0 0 3.31-2.15 14.46 14.46 0 0 0 4.27-5.9c.77-1.61 2.12-6.71 2.61-7.74s1.73-3.18 1.73-3.18a9.38 9.38 0 0 1 1.85-2.34 4.61 4.61 0 0 0 1.27-1.38s-.27 1.26-.36 1.86h-.06s-.23.92-.46 2.11-1.23 2.38-1.58 3.72a15.66 15.66 0 0 0 .19 5.75 5.29 5.29 0 0 1-.74 4.01zm4.4-3.88a4.5 4.5 0 0 1-.82 2.13c-.55.69-1.33 1.52-1.33 1.52a3.33 3.33 0 0 0 .06-1.52c.16-2.15-.77-4.38-.84-6.33a6.57 6.57 0 0 1 1.12-3.8s.19.38 1.12 3.14.87 3.57.68 4.8zm-.67-9a10 10 0 0 1 .23-3.05l.08-.05a16 16 0 0 1 1.5-3.49 17.56 17.56 0 0 0 1.73-4.09c.37 2.49-.49 8.24-.49 8.24a20.13 20.13 0 0 0 1.41-3.74 24 24 0 0 0 .26-6.3 26.12 26.12 0 0 0-1.12-4.6 3.63 3.63 0 0 1-.2-2.42c.06-.63.84-4.49-.12-7.68 0 0 1.24.78 2.6 3.71s2.31 3.82 3.29 9.23.37 9 .06 9.75a11.72 11.72 0 0 1-3.2 4.6 20.63 20.63 0 0 0-4.1 4.79c-.47-1.36-1.7-4.04-1.93-4.96zm10.29-13.86c-.75-4.11-2.6-9.14-4-11.16l-.53-.77c2 1.89 5.25 5.65 6 9.11 1 4.54-.17 6.73-.4 8.14a13.55 13.55 0 0 1-.84 2.69 29.56 29.56 0 0 0-.24-8.07zM143.6 5.36c1.21.23 2.68.6 2.68.6s3.72.92 9.78 5.32S167.48 22.72 168 23.12s4.15 7 4.7 8 1.47 2.79 1.9 3.42a12.85 12.85 0 0 1 1.62 5.72 39.19 39.19 0 0 1-.2 8.83 21.47 21.47 0 0 1-2.57 7.56 49.65 49.65 0 0 1-5 6.44A43.72 43.72 0 0 1 162.7 68a18.86 18.86 0 0 1 3.09-7.27c2.48-3.42 4.85-4.69 6.09-7.53h-.08a27 27 0 0 0 2-7.4c0-1.09-.69-6-2-7.94s-2.65-4.05-4.47-5.09a17.66 17.66 0 0 1-3.84-3.83c-.37-.55-.66-1-.78-1.2a67.83 67.83 0 0 1-3.37-8c-1-2.93-4.87-6.56-5.77-7.48a56.84 56.84 0 0 0-5.94-4.49 42.4 42.4 0 0 0-4.41-2.24s-.83-.4.38-.17zm-4.72-1.77a14.63 14.63 0 0 1 3.42 2s1.87 1.25 3.06 2 3.26 2 4.15 2.67a54.75 54.75 0 0 1 5 4.89 39.9 39.9 0 0 1 4.47 7 44.14 44.14 0 0 1 2.86 9 64.89 64.89 0 0 1 .61 7.25 1.69 1.69 0 0 1-.4 1.41c-.26.17-1.53-.92-2.39-1.55a24.46 24.46 0 0 0-6.69-2.44c-1.7-.2-3.69-.55-4.64-2.33s-.55-4-.37-5.26a49.34 49.34 0 0 0 .81-7.88 14.24 14.24 0 0 0-3.14-7.85c-.87-.89-2.12-2.29-2.26-2.37s-6-4.91-8.31-6.56c-.06.05.17-1.21 3.82.01zm-14.8-.89a7.3 7.3 0 0 1 3.8-.7c2.5.08 3.88.92 4.92 3.07a25.22 25.22 0 0 1 2.12 12.69s1.19-.65.62-7.51a32.23 32.23 0 0 0-1-4.64c-.38-.73-.27-1.34.92-.58a64.12 64.12 0 0 1 7 5.75 30 30 0 0 1 4 5.93c1.15 2.65.87 7.45.72 8.57s-.32 5.22-1.67 6.62c-.35-.08-.38.54-1.92.77a27.25 27.25 0 0 1-5.31 0A15.48 15.48 0 0 1 135 32a7.87 7.87 0 0 0-1.92-.5c-.5 0 1.54-.42 1.81-2.84s-.77-5.29-.69-5.75-.5.42-.46 2.19-.65 4.29-2.19 5.37-5.65 1.38-6.85 1.38a19.5 19.5 0 0 0-4.47 1.15c-.38.15-1.35.61-1.5-.81s-1.31-5.18-1.65-6.48a32.27 32.27 0 0 1-.85-6.44 25.82 25.82 0 0 1 .77-4.52 47.87 47.87 0 0 1 2.27-5.64 25.37 25.37 0 0 1 4.81-6.41zM113 3.31a16.48 16.48 0 0 1 7.69-.5 18.77 18.77 0 0 0-4.31 3.45c-1.46 1.8-5.15 5.94-5.65 9.28s-.15 2.88-.15 2.88a25.55 25.55 0 0 1 1.69-4.91c.73-1.07 4.46-6.79 6.5-8s1.62-.12 1.62-.12l-.13.17a24.63 24.63 0 0 0-3.34 6.44 21.39 21.39 0 0 1-.73 2.65s-.92 4.64-1.15 5.75-1.54 2.57-2 4.14-1.46 4.06-1.46 5.41.08 2.19-.54 2.45-2.54.35-3.27-.42 0-3.53.69-4.6a17.68 17.68 0 0 1-2.46 3.15c-1.12 1-3.23 1.19-4.46 1.5a44.09 44.09 0 0 0-4.65 1.53c-.77.35-2.19 1.3-2.88 0s-.85-4.83-.85-4.83A21.92 21.92 0 0 1 94 22.1c1-3.76 6.58-10.31 9.58-13.23s6.04-4.25 9.42-5.56zM99 10a49.79 49.79 0 0 1 6.88-4.19h.08c-.15 0-1.31.58-3.73 2.88a42.77 42.77 0 0 0-7 8.4c-1.62 2.8-3.5 4.75-3 13a20 20 0 0 1 .58 3.07 2.25 2.25 0 0 1-1.31 2c-.69.19-1.62-.35-2.31-1.53a1.27 1.27 0 0 0-.33-.4 13.1 13.1 0 0 1-.86-6.3c.42-4 3.85-9.24 4.81-10.77A32.38 32.38 0 0 1 99 10zM76 40.19a33.4 33.4 0 0 1 3.42-12.34 34 34 0 0 1 9.88-12.34 11.76 11.76 0 0 1 4.5-2.57s-4.15 5.14-4.85 6.67a.92.92 0 0 1 .06-.27s-4.15 4.72-5 6.94-2.15 5.56-2.15 6.94a3.34 3.34 0 0 1-.69 1.38c-.54.61-2.11 1.92-3 3a22.77 22.77 0 0 0-1.65 3.41c-.24.37-.59.56-.52-.82zm6 23.43a34.25 34.25 0 0 1-5.58-10.16 14.27 14.27 0 0 1-.19-10c.5-2 3.77-6.52 5.23-7.59a31.07 31.07 0 0 0 .27 5.33 16.64 16.64 0 0 0 1.56 4.2c-.36.29-1.38 1.34-1.91 4.12a25.93 25.93 0 0 0 .46 11.58 26.47 26.47 0 0 0 1.53 4.22c-.45-.62-.93-1.21-1.37-1.7zm14 12.57c-1.23-.35-2-1.53-3.42-3.26s-1.77-3.37-2.73-4.6-.88.35-.88.35a9.2 9.2 0 0 0 1.15 2.26c.62.73 3.31 3.83 3.31 3.83a2.52 2.52 0 0 1-1.58-.61 24.58 24.58 0 0 1-5.19-4.95 39.6 39.6 0 0 1-3.54-7.67c-1.92-5.25-1.42-8.36-1.42-8.36s1 7.32 4.58 10.43c0 0-3.08-5.64-3.54-10.58s.38-6.56.38-6.56.14-.31.4-.25c0 .23.05.53.06.9 0 1.3.35 3.91 1.12 5a29.41 29.41 0 0 1 2 4.17v.12a34.25 34.25 0 0 0 2.15 6.63 42.66 42.66 0 0 0 5 7.59c1.58 1.8 3.88 3.6 5.35 5.14a8.78 8.78 0 0 1 .7.85 10.56 10.56 0 0 1-3.9-.43zm6.46 1.23a67.17 67.17 0 0 1-6.85-6.1c-2.35-2.38-5.69-9-6-9.58S87.13 55.31 87 55v-.13c-.46-1.27.46-.46.46-.46s.85 1.11 3.15 4.72A71 71 0 0 0 99.2 69.4c2.06 2.16 6.31 4.18 9.21 5.4 1.16.84 1.07 1.42 1.4 2.77S110 78.84 108 79a11.56 11.56 0 0 1-5.5-1.58zm2 4.23l2.5-.89h.09l2.12-.9c.7.32 1.83.83 2.75 1.22.29.15 1.21.49 2.09.8a4.36 4.36 0 0 1 .92 1 5.57 5.57 0 0 1 .77 2.68c0 1.57.65 9.78.65 11.69a11.19 11.19 0 0 0 .27 2.16h-1.48c-1.49-.07-5.06-1.28-5.61-2.14a13 13 0 0 1-1-3.17c.43-.53.25-2.1.25-2.1l-.16-.1.14.07c-.19-.33-.8-3.86-1.15-4.43s-.77-1-1.54-.82c.08-.35-1.69-5.02-1.57-5.07zM107 92a5.55 5.55 0 0 1-3 1.25 6.11 6.11 0 0 1-3.32-.32s-1.18-1.8-.95-2.74a2.54 2.54 0 0 1 .53-.84 5 5 0 0 1 1.53-.69 26.39 26.39 0 0 1 3.14-.61s1.11-.27 1.39.5.75 2.53.75 2.53a1.2 1.2 0 0 1-.07.92zm-5.72-10.19c.95-.18 1.07.45 1.36.68A39.1 39.1 0 0 1 104.3 87l-3.32.54c.1-.22-1.56-3.16-1.7-3.94s1.03-1.6 1.97-1.74zm-21.54 41.94c.14.59 1.52 2 1.36 1.42a28.84 28.84 0 0 1 .32-10.08 98.5 98.5 0 0 1 9.29-21C94.57 88 98 85.82 98 85.82v-.13a15.19 15.19 0 0 0 1 2.52 2 2 0 0 0-.78 1 2.26 2.26 0 0 0-.25 1.67c.25.89 1.57 4 1.57 4s-.29 7.46-.5 11-1.25 5.27-1.72 5.52-1.52-4.27-1.72-4.24a6.24 6.24 0 0 0-.29 3.28 19.08 19.08 0 0 0 1.64 4.81c.57 1.25-.32 12.36-.82 15s.07 5.9-4 6.45-11.79-1.34-12.44-1.64-1.48-.36-1.89-1.6 1.8-10.29 1.94-9.71zm14.47 37.9a15.26 15.26 0 0 0 1.36 6c.83 2 .56 1.87.54 1.85-1.54.89-3.5-2.58-3.75-3s-.38-2-.93-1.82-1 1.89-1 4.35.84 2.92 1.93 4 2.13 1.42 1.47 1.82-1.89.12-3-.5-3.46-2.35-3.83-3.57-.88-2.89-1.43-3.35-.84-.23-.43.28a4 4 0 0 1 .5 2.1c0 .48.54 1.39.36 1.28a8.1 8.1 0 0 1-1.47-2.21 16.7 16.7 0 0 1-1.5-8 24.66 24.66 0 0 1 1.55-5.54 21.09 21.09 0 0 0 7.74-.15 7.41 7.41 0 0 0 .85 1.24c.63.76 1.17 3.69 1.04 5.23zm.93-8.73a10.67 10.67 0 0 1-3.38 1.32 15.93 15.93 0 0 1-7.63-.21s-1.75-.68-1.86-2.07a4.86 4.86 0 0 1 0-1 21 21 0 0 0 9.25-.4 25 25 0 0 0 3.57-1.14s.43 3.06.05 3.51zm.61-5.49a10.71 10.71 0 0 1-3.06 1.93c-.37.13-.77.25-1.22.37h-.13a22.24 22.24 0 0 1-8 .31c-6.22-.77-7.9-3.19-8.68-5a2.39 2.39 0 0 1 1.34-3.26c.59 0 2.09 1.48 4.72 1.64s3.11-.48 2.82-.75-.2.34-3.68-.5-4.06-2.44-4.32-4a4.27 4.27 0 0 1 1.14-3.1 3.83 3.83 0 0 0 1.43 1c1 .41 7.18 2.33 10.93 2.21s5.88-.69 6.36-.25.52 1.75.32 3a2.87 2.87 0 0 0 0 1.64 13.11 13.11 0 0 1 .61 2.89 3.13 3.13 0 0 1-.58 1.88zm1.61-5.56c-.3-.68.7-1.73.79-3.28s-1.23-1.92-1.5-2.67.95-3.56 1.32-6.27.75-16.14.75-16.14c1.23-2.92 1.84-8.05 2.11-10.15s.25-7.82.54-8.34 2.72-.36 3.36-.53 2.18-.59 2.29-.25 1.75 4.33 2.64 5 5.07 1.3 7 1.32 16.24 0 20.08-.21 4.45-.53 5.5-1.78.82-7.2.82-7.2h2.5s1.59-.12 1.61 1-.14 5.84 0 7.66a10.46 10.46 0 0 0 2.57 5.41 18.68 18.68 0 0 1 3.36 4.36c.43 1.94 1.1 4.87 1.17 6 .09 1.45.4 4.71.4 4.71 0 2 .14 4.56.2 5.36.12 1.69 1.57 10.68 1.54 14.44v2a.57.57 0 0 0 0 .11 2 2 0 0 1-1.32 1.75c-.59.29-5.63 2.42-19.37 3.13s-33.79-1.83-34.91-2.17a4.63 4.63 0 0 1-2.54-2 4.37 4.37 0 0 0-.91-1.24zm.36 5.38c.79-1.21 1.89-.62 2.75-.43s15.47 1.64 21.37 1.64 19.81-.21 24.3-.75a40.32 40.32 0 0 0 9-2.42.92.92 0 0 1 1.11.5s.39 2.21-.93 3.13-6 1.87-8.72 2.46a176.81 176.81 0 0 1-21.48 1.42c-6.11-.09-24.73-1.62-26.12-2.56s-2.07-1.76-1.29-2.98zm3.38 43.68c-.19-1.38-.42-8.24-.12-9.35a2.75 2.75 0 0 1 1.15-1.57c.27-.31-.27-.42-.65-1.15a23.83 23.83 0 0 1-1.27-4.45 8.36 8.36 0 0 1-.12-.94s-1-3.65-1.27-4.77a59.72 59.72 0 0 1-1.14-7.23c0-1.57-.38-5.41-.18-7.45s1.3-1.26 2.14-1.53 6.36.29 9.22 1 16.38.43 23.66.28a129.39 129.39 0 0 0 13.65-1s7.06-1.21 8-1.57 2.07-.61 2.18.68-1.09 18.47-1.54 19.95a40.78 40.78 0 0 1-1.46 5 9.05 9.05 0 0 1-1.61 2.81s-.35.36.5.82c.66.36.62 2.77.59 4.38 0 0 .09 6.22-.05 9.44s-.7 10.17-.75 11.65a35.08 35.08 0 0 1-.54 5c-.16.3-.95-.55-2.36-.78s-8.45.85-10.33.82a46.11 46.11 0 0 1-6.9-.43 10.55 10.55 0 0 0-2.57-.32s-.18-10.92-.14-12-.1-5.11-.53-5.91a68.06 68.06 0 0 1-1.31-11c0-2.32.09-6.44.23-9.94.18-.27-.12-7.24-.12-8.71s-.05-1.82-.39-1.76-.4 4.44-.8 4.47-1.32-2.12-1.86-2.12.21 2.19.64 3.42a28.61 28.61 0 0 1 .66 4.7c.06 4.2-.09 11.55-.09 12.93 0 1.11.06 4.66-.26 8a35.38 35.38 0 0 0-.92 6.77c0 2.53.18 10.42-.39 11.29a2.07 2.07 0 0 1-2.14 1.07c-1.07 0-10.93-.78-11.76-.82s-4 0-4 0-3.06-.14-4 .46c0 0-.48-9.69-.59-11.15.01-2.98-.27-7.61-.46-8.98zm28.85 20.8a56 56 0 0 0 5.72.68c2.45.09 8.54-1.05 9.61-1.07s4.07-.43 5.5.71c0 0 1 .45.64 2.39a21.43 21.43 0 0 1-.71 2c-.29.65-.51 1-1 .8a5.78 5.78 0 0 0-4.48-2.79c-2.81-.32-9.72 1-9.72 1-3.13.45-5 .84-5.11.57a6.16 6.16 0 0 1-1.14-2.71c.03-1-.15-1.66.69-1.57zm-28.12 1.14c.32-.64 1.68-.91 3-1a39.7 39.7 0 0 1 6-.25c1.16.25 8.83.93 10.15 1.18s3-.24 3.45.69a11.51 11.51 0 0 1-.42 1.8c-.25.59-.36 1.07-2.57 1s-8.25-1.42-11.15-1.71-5.5 1.5-6.29 1.89-1.72.87-1.64.29.89-.69.39-1.71-1.25-1.53-.93-2.17zm-1.66 10.4a8 8 0 0 1 2.45-3.54l2.72-2.51a7.22 7.22 0 0 1 4.68-1.28c1.41.16 8.56 1.25 9.72 1.35s4 .41 4.57 1.42a17.2 17.2 0 0 1 1.14 5.68 18.4 18.4 0 0 1-.07 2.28c-.05.84-.64 1.12-1.57 1.32 0 0-2.64.14-3 .2-.92.15-10.37.26-10.37.26a28.35 28.35 0 0 1-5-.62 27.32 27.32 0 0 1-3.09-1c-2.79-1.35-2.19-3.55-2.19-3.55zm25.27 7.73c-.11.12-.28.87-3.39 1.63 0 0-4.23.55-7.92.69-6 .2-9.11-.92-9.89-1.21-.27-.1-4.53-1.92-4.72-5.29v-.12a7.74 7.74 0 0 0 3.09 1.83c0 .06 1.94.54 2 .55a23.42 23.42 0 0 0 6.36.88c0 .06 11.08.32 14.1-.65a4.34 4.34 0 0 0 .79-.34 2.15 2.15 0 0 1-.42 2.03zm1.33-9.6a18.39 18.39 0 0 1-.82-4.49c0-1.23.05-5.08 0-5.2s.21-6.09.11-7.52-.14-4.67-.14-6a40.15 40.15 0 0 1 .82-5.45c0-.17.07-.31.1-.43a19.12 19.12 0 0 1 .69 4.56c.05 2.46 0 12.9 0 14.25s0 6.06.43 6.77a5.45 5.45 0 0 0-.82 2c-.14.95-.14 1.63-.37 1.47zm1.07 3.1a12.29 12.29 0 0 1 .36-2.39c.25-.64-.21-1.05.25-2.24s2-1.83 2.29-2.07a13.32 13.32 0 0 1 3.36-.89c3-.61 7.29-1 8.72-1.21s4.59.5 5.29 1.25.95 1.85 1.93 2.42 3.27 3.12 3.5 4.07a2.74 2.74 0 0 1 0 2l-.12.13s-5.32 2.72-8.43 2.88-14.47.9-16.44-1.23a2.91 2.91 0 0 1-.84-1.52 3.6 3.6 0 0 1 .13-1.24zm2.56 7.77c-1.3-.27-2-1.22-2.34-3v-.2a4.46 4.46 0 0 0 .49.14l.39.11s2.13.2 10.15.46 9.15-.57 9.9-.82 4.43-1.31 4.43-1.31a6.24 6.24 0 0 0 1.12-.85s.42 2.68-1.35 3.87a35.09 35.09 0 0 1-8.17 2.18s-10.43.25-14.63-.63zm18.41 15.34a.49.49 0 0 1-.57.12c-1.41-1.38-5.16-5.08-6-6.07a5.73 5.73 0 0 1-1.63-3.45 4.62 4.62 0 0 1 0-.7l8.31 8.67a3.12 3.12 0 0 1-.12 1.39zm-5.49-8.35c-.6-.68-1.69-1.6-1.83-2.37a1.5 1.5 0 0 1 .42-1.28c.64-.33 2.22-.94 3.32-1.35 1.45-.6 3.48-1 5.94-1.77l16.05-5v1.52c-1.23.44-7.81 2.49-8.35 2.8l-1.49.63s-10.43 2.94-11.35 3.31-1.77 1.2-1.46 1.94 4.63 4.67 5.23 5.19a3.31 3.31 0 0 0 2.6.34c.91-.17 12.09-3.88 12.55-4.19.72-.22 16.86-5 18-5.63.74-.24 9.58-3.06 10.78-3.63s1.14-1 1-1.51a25.25 25.25 0 0 0-4-3.88c-1.06-.8-1.74-1.2-2.54-1s-10.86 2.74-10.86 2.74c-.72.05-5.17 1.31-5.79 1.49v-1.38c2.29-.61 15-4 15.77-4.12a5.86 5.86 0 0 1 2.26 0c.49.17 8.58 5.61 9.21 7.41l.08.25a2.7 2.7 0 0 1-1.45 1.06c-1 .37-43.31 14-44.34 14.45a5.71 5.71 0 0 1-3.57.09c-.7-.37-5.58-5.47-6.19-6.15zm54-5.7c-1.52 1-44.74 14.53-46.34 14.88a3.47 3.47 0 0 1-1.27 0 1.37 1.37 0 0 1-.1-1.41c.26-.51 1.2-.48 2.17-.68s44.34-14.11 45.08-14.39a15.47 15.47 0 0 0 2.11-.89 3.24 3.24 0 0 1-1.63 2.45z"/></g></g></svg>