<svg xmlns="http://www.w3.org/2000/svg" width="125.8" height="37" viewBox="0 0 125.8 37"><title>App Store</title><g data-name="Слой 2"><g data-name="Layer 1"><path fill="none" d="M0 0h125.8v37H0z"/><path d="M119.51 36.5H6.48a4.35 4.35 0 0 1-4.33-4.29V4.69A4.27 4.27 0 0 1 6.48.5h113a4.11 4.11 0 0 1 4.14 4.19v27.52a4.24 4.24 0 0 1-4.2 4.29z" fill="none" stroke="#fff" stroke-miterlimit="10" stroke-width=".75"/><path d="M29.36 18.26a5.23 5.23 0 0 1 2.49-4.38 5.33 5.33 0 0 0-4.21-2.28c-1.78-.19-3.49 1.06-4.4 1.06s-2.31-1-3.8-1a5.63 5.63 0 0 0-4.73 2.88c-2 3.53-.51 8.73 1.44 11.58 1 1.4 2.12 3 3.62 2.91s2-.93 3.78-.93 2.26.93 3.79.89 2.56-1.4 3.5-2.81a11.37 11.37 0 0 0 1.6-3.27 5 5 0 0 1-3.08-4.65zM26.48 9.72A5.11 5.11 0 0 0 27.66 6a5.25 5.25 0 0 0-3.39 1.75 4.91 4.91 0 0 0-1.21 3.55 4.35 4.35 0 0 0 3.42-1.58zM50.55 28.82h-2l-1.17-3.52h-3.89l-1.07 3.52h-2l3.86-12h2.38zm-3.51-5l-1-3.13c-.11-.32-.31-1.07-.6-2.26-.12.51-.31 1.26-.57 2.26l-1 3.13zM60.47 24.39a4.91 4.91 0 0 1-1.19 3.49A3.5 3.5 0 0 1 56.63 29a2.64 2.64 0 0 1-2.45-1.22v4.55h-1.96V23c0-.92 0-1.87-.07-2.85h1.69l.16 1.39a3.42 3.42 0 0 1 5.47-.33 4.74 4.74 0 0 1 1 3.18zm-1.95.07a3.57 3.57 0 0 0-.52-2.08 2 2 0 0 0-1.67-.85A1.94 1.94 0 0 0 55 22a2.14 2.14 0 0 0-.76 1.23 2.57 2.57 0 0 0-.09.59v1.44a2.28 2.28 0 0 0 .58 1.59 1.89 1.89 0 0 0 1.5.65 2 2 0 0 0 1.69-.83 3.73 3.73 0 0 0 .6-2.21zM70.42 24.39a4.92 4.92 0 0 1-1.2 3.49A3.5 3.5 0 0 1 66.57 29a2.65 2.65 0 0 1-2.45-1.22v4.55h-1.96V23c0-.92 0-1.87-.07-2.85h1.69l.11 1.37a3.42 3.42 0 0 1 5.47-.33 4.75 4.75 0 0 1 1.06 3.2zm-2 .07a3.57 3.57 0 0 0-.57-2.08 2 2 0 0 0-1.67-.85 1.94 1.94 0 0 0-1.29.47 2.14 2.14 0 0 0-.76 1.23 2.57 2.57 0 0 0-.09.59v1.44a2.32 2.32 0 0 0 .58 1.59 1.91 1.91 0 0 0 1.51.65 2 2 0 0 0 1.68-.83 3.66 3.66 0 0 0 .65-2.21zM81.53 25.46A3.19 3.19 0 0 1 80.47 28a4.72 4.72 0 0 1-3.27 1 5.67 5.67 0 0 1-3.1-.75l.44-1.6a5.26 5.26 0 0 0 2.78.76 2.62 2.62 0 0 0 1.68-.49 1.59 1.59 0 0 0 .6-1.31 1.67 1.67 0 0 0-.5-1.23 4.57 4.57 0 0 0-1.65-.92c-2.1-.79-3.15-1.93-3.15-3.44a3 3 0 0 1 1.1-2.42 4.38 4.38 0 0 1 2.94-1 5.8 5.8 0 0 1 2.72.57l-.48 1.57a4.7 4.7 0 0 0-2.29-.55 2.35 2.35 0 0 0-1.59.49 1.43 1.43 0 0 0-.48 1.09 1.49 1.49 0 0 0 .56 1.23 6 6 0 0 0 1.75.93 5.75 5.75 0 0 1 2.27 1.46 3 3 0 0 1 .73 2.07zM87.88 21.62h-2.11v4.19c0 1.07.37 1.6 1.12 1.6a3.35 3.35 0 0 0 .85-.09l.05 1.46a4.11 4.11 0 0 1-1.49.22 2.32 2.32 0 0 1-1.78-.7 3.38 3.38 0 0 1-.64-2.3v-4.38h-1.26v-1.45h1.26v-1.58l1.89-.59v2.15h2.11zM97.44 24.43a4.76 4.76 0 0 1-1.14 3.27 4.06 4.06 0 0 1-3.17 1.3 3.86 3.86 0 0 1-3-1.26A4.6 4.6 0 0 1 89 24.57a4.72 4.72 0 0 1 1.16-3.29A4 4 0 0 1 93.27 20a4 4 0 0 1 3.06 1.26 4.54 4.54 0 0 1 1.11 3.17zm-2 .06a3.92 3.92 0 0 0-.51-2 2 2 0 0 0-3.49 0 4 4 0 0 0-.51 2.08 3.92 3.92 0 0 0 .51 2.05 2 2 0 0 0 1.74 1 1.93 1.93 0 0 0 1.73-1.05 4 4 0 0 0 .53-2.08zM103.68 21.86a3.86 3.86 0 0 0-.61-.05 1.81 1.81 0 0 0-1.56.77 2.87 2.87 0 0 0-.48 1.7v4.54h-1.92V22.9c0-1 0-1.91-.07-2.73h1.68l.07 1.66a2.9 2.9 0 0 1 1-1.37 2.32 2.32 0 0 1 1.41-.46 3.43 3.43 0 0 1 .48 0zM112.27 24.09a4.37 4.37 0 0 1-.07.87h-5.76a2.52 2.52 0 0 0 .83 2 2.87 2.87 0 0 0 1.89.6 6.44 6.44 0 0 0 2.33-.41l.3 1.33a7.18 7.18 0 0 1-2.9.54 4.24 4.24 0 0 1-3.16-1.18 4.4 4.4 0 0 1-1.15-3.18 5 5 0 0 1 1.07-3.25 3.69 3.69 0 0 1 3-1.39 3.2 3.2 0 0 1 2.82 1.39 4.64 4.64 0 0 1 .8 2.68zm-1.83-.5a2.66 2.66 0 0 0-.38-1.48 1.68 1.68 0 0 0-1.53-.8 1.81 1.81 0 0 0-1.53.79 2.76 2.76 0 0 0-.56 1.49z" fill="#fff"/><text transform="translate(41.8 11.5)" font-size="7.09" fill="#fff" font-family="HelveticaNeueLTW1G-Bd, Helvetica Neue LT W1G" font-weight="700" letter-spacing=".06em">Заг<tspan x="13.17" y="0" letter-spacing=".05em">р</tspan><tspan x="17.84" y="0">узи</tspan><tspan x="30.78" y="0" letter-spacing=".04em">т</tspan><tspan x="34.62" y="0">е в</tspan></text></g></g></svg>