<svg xmlns="http://www.w3.org/2000/svg" width="64" height="64" viewBox="0 0 64 64"><path fill="#ff5a19" d="M0 0h64v64H0z"/><path d="M36.17 46.45h-8.34a3.67 3.67 0 0 1-3.66-3.67v-8.34a3.67 3.67 0 0 1 3.66-3.67h8.34a3.67 3.67 0 0 1 3.67 3.67v8.34a3.67 3.67 0 0 1-3.67 3.67zm-8.34-12.84a.83.83 0 0 0-.83.83v8.34a.83.83 0 0 0 .83.83h8.34a.83.83 0 0 0 .83-.83v-8.34a.83.83 0 0 0-.83-.83z" fill="#fff"/><path d="M42.32 17.42c-.94-.9-1.93-1.84-2.91-2.8s-1.89-1.86-2.75-2.73c-4.06-4.07-5.54-5.47-6.9-5.47h-2.9a3.67 3.67 0 0 0-3.67 3.67v2.61c-.79 1-3 4-5.1 6.78l-.24.32C16.25 22 15 23.74 15 25.31v26.6a3.67 3.67 0 0 0 3.66 3.67H45.3a3.67 3.67 0 0 0 3.7-3.67v-26.6c0-1.43-1.66-3.1-6.68-7.89zm-21.95 3.73c2.52-3.44 5.32-7.06 5.35-7.1l.3-.38v-3.58a.83.83 0 0 1 .83-.83h2.75a41.79 41.79 0 0 1 5 4.64c.87.88 1.81 1.81 2.78 2.76s2 1.91 2.93 2.82c1.54 1.47 3.32 3.16 4.5 4.42H18.47c.51-.85 1.22-1.83 1.66-2.42zm24.93 31.6H18.7a.83.83 0 0 1-.83-.83V26.73h28.26v25.18a.83.83 0 0 1-.83.84z" fill="#fff"/></svg>