<svg xmlns="http://www.w3.org/2000/svg" width="60" height="60" viewBox="0 0 60 60"><title>Кресло кровать</title><g data-name="Слой 2"><g data-name="Слой 1" fill="none"><path d="M0 0h60v60H0z"/><path d="M49.24 22.4V15c0-1.47-1.61-2.67-3.6-2.67H14.32c-2 0-3.6 1.2-3.6 2.67v7.24M14.34 27.77A56.28 56.28 0 0 1 30 25.9a59 59 0 0 1 15 1.67M45.68 45.88l-31.43-.07M14.28 33.32l31.43.06" stroke="#353535" stroke-linejoin="round" stroke-width="1.5"/><path d="M9.37 27.24a1.19 1.19 0 1 1 1.19 1.19 1.19 1.19 0 0 1-1.19-1.19z" stroke="#353535" stroke-linejoin="round" stroke-width=".75"/><rect x="6.25" y="22.31" width="8.63" height="25.38" rx="2" ry="2" stroke="#353535" stroke-linejoin="round" stroke-width="1.5"/><path d="M48.25 27.24a1.19 1.19 0 1 1 1.19 1.19 1.19 1.19 0 0 1-1.19-1.19z" stroke="#353535" stroke-linejoin="round" stroke-width=".75"/><rect x="45.13" y="22.31" width="8.63" height="25.38" rx="2" ry="2" stroke="#353535" stroke-linejoin="round" stroke-width="1.5"/></g></g></svg>