<svg xmlns="http://www.w3.org/2000/svg" width="60" height="60" viewBox="0 0 60 60"><title>Кресло</title><g data-name="Слой 2"><g data-name="Слой 1" fill="none"><path d="M48.76 26.91V16.09a3.75 3.75 0 0 0-3.6-3.89H13.84a3.75 3.75 0 0 0-3.6 3.89v10.57M13.86 32.28a56.33 56.33 0 0 1 15.64-1.87c6.83 0 12.86.84 16.43 2.14M45.2 50.38l-31.42-.06M13.8 37.83l31.43.06" stroke="#353535" stroke-linejoin="round" stroke-width="1.5"/><path d="M14.05 31.83a5.16 5.16 0 1 0-7.33 4.66V50.1a2 2 0 0 0 2 2h3.35a2 2 0 0 0 2-2V31.83zM45.73 31.82a5.27 5.27 0 0 1 10.53 0 5.15 5.15 0 0 1-3 4.66v13.59a2 2 0 0 1-2 2h-3.5a2 2 0 0 1-2-2V31.82z" stroke="#353535" stroke-linejoin="round" stroke-width="1.5"/><path d="M7.55 31.75A1.35 1.35 0 1 1 8.9 33.1a1.34 1.34 0 0 1-1.35-1.35zM49.65 31.75A1.35 1.35 0 1 1 51 33.1a1.34 1.34 0 0 1-1.35-1.35z" stroke="#353535" stroke-linejoin="round"/><path d="M0 0h60v60H0z"/></g></g></svg>