<svg xmlns="http://www.w3.org/2000/svg" width="70" height="70" viewBox="0 0 70 70"><title>Клиент</title><g data-name="Слой 2"><g data-name="Слой 1"><path fill="none" d="M0 0h70v70H0z"/><path d="M25.29 49.78a31.23 31.23 0 0 1-10-4A62.49 62.49 0 0 1 14.3 35s-3.1-28.39 20-28.17c23.48.32 21.56 28.27 21.56 28.27A67.67 67.67 0 0 1 55 46.47c-2.77 1.82-5.76 2.56-10.14 3.42" fill="none" stroke="#ff5722" stroke-linejoin="round" stroke-width="1.5"/><path d="M31.05 48.29c-8.22 1.06-14.3 5.76-14.3 11.2V60A52.86 52.86 0 0 0 53 60v-.53c0-5.55-6.08-10.14-14.3-11.2" fill="none" stroke="#ff5722" stroke-miterlimit="10" stroke-width="1.5"/><path d="M31.05 46.69v1.49c0 1.39 1.71 2.56 3.84 2.56s3.84-1.17 3.84-2.56v-1.49" fill="none" stroke="#ff5722" stroke-miterlimit="10"/><path d="M50.36 32.39c.32-3.31.32-6.51.32-9.82-5.33 1.6-7.25-3.84-7.25-3.84s-3 4.91-8.33 6.08A29.55 29.55 0 0 1 19 23.74a37.94 37.94 0 0 0 .32 8.54c1.07 8 6 14.73 15.58 14.83 9.38 0 15.04-7.04 15.46-14.72z" fill="none" stroke="#ff5722" stroke-miterlimit="10"/><path d="M39.69 39.11a14.21 14.21 0 0 1-5.23 1 15.5 15.5 0 0 1-4.91-.85" fill="none" stroke="#ff5722" stroke-linecap="round" stroke-miterlimit="10" stroke-width=".8"/><path d="M36.92 41.88a6.1 6.1 0 0 1-2.35.43 8.25 8.25 0 0 1-2.24-.31M36.6 36a6 6 0 0 1-2 .32 5.86 5.86 0 0 1-1.95-.32" fill="none" stroke="#ff5722" stroke-linecap="round" stroke-miterlimit="10" stroke-width=".7"/><path d="M29.77 30.47a5.93 5.93 0 0 0-4.06-2 5.91 5.91 0 0 0-4.05 2" fill="none" stroke="#ff5722" stroke-linecap="round" stroke-miterlimit="10"/><path d="M25.71 32.28a1.76 1.76 0 1 1 1.82-1.81 1.74 1.74 0 0 1-1.82 1.81z" fill="#ff5722"/><path d="M46.84 30.47a5.91 5.91 0 0 0-4.05-2 5.93 5.93 0 0 0-4.06 2" fill="none" stroke="#ff5722" stroke-linecap="round" stroke-miterlimit="10"/><path d="M42.79 32.28a1.76 1.76 0 1 1 .1-3.52 1.69 1.69 0 0 1 1.71 1.71 1.87 1.87 0 0 1-1.81 1.81z" fill="#ff5722"/><path d="M41.4 49.78c0 4.16-2.88 7.58-6.51 7.58s-6.51-3.42-6.51-7.58" fill="none" stroke="#ff5722" stroke-linecap="square" stroke-miterlimit="10" stroke-width="1.5"/></g></g></svg>