<svg xmlns="http://www.w3.org/2000/svg" width="80" height="80" viewBox="0 0 80 80"><path d="M46.27 22.18A9.15 9.15 0 0 1 60 33.74M20.19 33.56a9.15 9.15 0 0 1 14-11.26" fill="#dfdbd1" stroke="#5d3329" stroke-linecap="round" stroke-linejoin="round" stroke-width="1.5"/><path d="M18 43.37a22 22 0 1 1 22 22 22 22 0 0 1-22-22z" fill="#ec8213" stroke="#5d3329" stroke-linecap="round" stroke-linejoin="round" stroke-width="1.5"/><circle cx="40" cy="43.38" r="1.65" fill="#dfdbd1" stroke="#5d3329" stroke-linecap="round" stroke-linejoin="round" stroke-width="2"/><path d="M21.78 43.37A18.22 18.22 0 1 1 40 61.6a18.22 18.22 0 0 1-18.22-18.23z" fill="#f5f4f0" stroke="#5d3329" stroke-linecap="round" stroke-linejoin="round"/><circle cx="27.46" cy="43.38" r=".8" fill="#ec8213"/><circle cx="52.54" cy="43.38" r=".8" fill="#ec8213"/><circle cx="40" cy="30.85" r=".8" fill="#ec8213"/><circle cx="40" cy="55.92" r=".8" fill="#ec8213"/><circle cx="29.13" cy="49.64" r=".8" transform="rotate(-29.92 29.137 49.647)" fill="#5d3329"/><circle cx="50.87" cy="37.13" r=".8" transform="rotate(-29.94 50.864 37.123)" fill="#5d3329"/><circle cx="33.74" cy="32.52" r=".8" transform="rotate(-29.94 33.74 32.524)" fill="#5d3329"/><circle cx="46.26" cy="54.25" r=".8" transform="rotate(-29.92 46.249 54.26)" fill="#5d3329"/><circle cx="33.73" cy="54.24" r=".8" transform="rotate(-60.01 33.727 54.24)" fill="#5d3329"/><circle cx="46.27" cy="32.52" r=".8" transform="rotate(-60 46.268 32.521)" fill="#5d3329"/><circle cx="29.14" cy="37.11" r=".8" transform="rotate(-59.98 29.145 37.112)" fill="#5d3329"/><circle cx="50.86" cy="49.65" r=".8" transform="rotate(-60 50.858 49.651)" fill="#5d3329"/><path d="M26.66 20.18a6.55 6.55 0 0 1 6.55-6.55h13.28A6.55 6.55 0 0 1 53 20.18" fill="none" stroke="#5d3329" stroke-linecap="round" stroke-linejoin="round" stroke-width="1.5"/><path d="M29.15 62.78a3.59 3.59 0 1 1-4.36-3.51M55.3 59.14a3.59 3.59 0 1 1-4.43 3.42" fill="#dbc19f" stroke="#5d3329" stroke-linecap="round" stroke-miterlimit="10" stroke-width="1.5"/><path fill="#dfdbd1" stroke="#5d3329" stroke-linecap="round" stroke-linejoin="round" stroke-width="1.5" d="M40 43.38V28.54M39.59 43.38l-7.89-4.54"/><path fill="none" d="M0 0h80v80H0z"/></svg>