<svg data-name="Слой 3" xmlns="http://www.w3.org/2000/svg" xmlns:xlink="http://www.w3.org/1999/xlink" width="574.526" height="99.27mm" viewBox="0 0 430.89 281.39"><defs><radialGradient id="a" data-name="Безымянный градиент 4" cx="1021.78" cy="601.48" r="9.88" gradientTransform="matrix(1.16 -.28 .26 .76 -164.54 -237.06)" gradientUnits="userSpaceOnUse"><stop offset=".42" stop-color="#f8c6b2" stop-opacity=".65"/><stop offset=".49" stop-color="#f8c6b2" stop-opacity=".61"/><stop offset=".62" stop-color="#f8c5b1" stop-opacity=".49"/><stop offset=".78" stop-color="#f8c5af" stop-opacity=".29"/><stop offset=".98" stop-color="#f8c4ad" stop-opacity=".03"/><stop offset="1" stop-color="#f8c4ad" stop-opacity="0"/></radialGradient><radialGradient id="b" cx="1018.71" cy="-157.94" r="9.42" gradientTransform="matrix(.28 1.16 -.76 .26 733.64 -1183.35)" xlink:href="#a"/></defs><title>Иллюстрации Домовенка</title><path d="M34.9 111.37s2.91-6.7 4.56-8.45 9.28-7.46 9.38-8A4.71 4.71 0 0 1 50.65 93c.44-.16 2.58-.49 2.85-1.37s-.38-4.83-.38-4.83 11.8-2.63 13.45-3.4 9.82-5.76 9.82-5.76l2-1.59s1.37 4.12 1.54 4.5 2.25.11 2.25.11-4.88 14.32-5.54 17.95-1.68 20.11-1.57 23-.68 3.74-.47 5.17-.11 2.82 2.47 4.3 3.51 1.54 4 2.31a9.72 9.72 0 0 0 1.32 1.54 53.48 53.48 0 0 1 6.42-2.14c1.54-.22 7.13.11 9.11 2.52s3.9 3.4 3.57 4.61-1.7 1.37-2.2 2.14-3.18 4.39-3.29 7.13a21.14 21.14 0 0 0 .66 6.92c.49 1.21-1.1 1.65-1.1 1.65s-1.15 4.06-1.92 4.23-3.4 1.15-5.32 1-5-2.63-5.71-3-3-.66-3.24-.82-.55 1 .33 4.06 4 16.41 8.4 23 5.32 9.28 5.32 9.28a7.84 7.84 0 0 1-2.36.33c-2.14.16-16.68.22-18.55.05s-14.16-1.32-17.4-2.41a69.71 69.71 0 0 1-11-4.94 5 5 0 0 1-2.14-3.62c0-.16 3.51-7.63 3.84-8.12s1.59-8.45 2-12.29.88-11.42.71-12.07-1.1-3.46-1.1-3.46-2.31-13.17-3-14-3.13-4-3.35-4.39-6.46-6.65-7-9.98-.05-8.36.83-9.24z" fill="#fff"/><path d="M34.95 230.47c-.16-.27-3-5.1-.88-9.44s3.18-6.37 3.79-7.68.6-9.44 1.21-11.58 1.92-9.44 3-10.59.44-2 2.74-1.43 11.74 4.56 16.52 5.32 19.54 1 21.51 1 10-.11 10.21-.11 4.77 5 5.65 7 12.79 15.42 13.5 16.46 4.45 3.46 4.45 3.73-1.32 4.12-1.48 4.77-1.81 7.35-7.24 8-19-2.52-19.81-3.07-4.94-3.4-5.27-8.73a91.37 91.37 0 0 0-1.54-13.39c-.82-3.84-1.87-7.41-1.87-7.41a53.72 53.72 0 0 0-5.1 6.81c-1.15 2.25-3.29 10.7-4.39 13.67s-2.69 6.37-5.27 7.74-8.23 5.6-11.85 5.21-11.69-1.76-13.39-2.91-4.49-3.37-4.49-3.37z" fill="#eb5c0b"/><path d="M32.5 233.98s-2.63 5.71-2.93 7.68-.51 5.93 1 7.32 4.61 3.81 6.59 4.17 6.22.59 7.76.07a24.53 24.53 0 0 0 5.49-3.15c1-.8 2.71-4.32 3.29-5.56s2.12-3.37 2.2-4.54.51-2.34.07-3-9.88.44-12-.73-7.39-4-8-4.24-1.39-.88-1.61-.73-1.86 2.71-1.86 2.71zM88.74 235.01s-1.65 5-1.43 6.66-1 4.5.44 6 4.06 4.28 5.93 4.61 8.23 1.32 10 .77 5.82-.77 5.82-1.65 1.32-7.13 1.54-9.33.66-6 .55-6.48a2 2 0 0 0-1.87-.88 18.58 18.58 0 0 1-8.45 2c-4.17-.22-10.43-2.41-10.76-2.52a2.81 2.81 0 0 0-1.76.8" fill="#cd885f"/><path d="M87.75 263.61c-.11.44-1.65 4.72-1.65 5.82s0 5.49 1.65 6.15a31.64 31.64 0 0 0 8.23 1.43c1.54-.11 5.49-1.1 8.12-1.1s4.5 1 6.7.77 4.83.07 4.94-1.39 1.54-6.29 1.54-9.15-3.73-6.7-4.17-7.24a54.43 54.43 0 0 1-2.85-5.16 16.84 16.84 0 0 1-.77-2.31 15 15 0 0 1-6.26 1.43c-3.51 0-7.9 0-9.55-.55s-2.63-1.87-3.4-1.21-2.2 2.2-2.31 3.73-.22 8.78-.22 8.78zM29.85 248.09c0 .55-1 4-2.47 4.5s-6.75.16-8.56.88-5.27 1.59-5.87 3.73-2.09 4.94-.77 8 1.81 3.68 3.07 5 6.7 4.77 10.1 5 6.53-1 10.21-2.58 8.84-5.71 10.32-6.15 4.77-2.85 5.49-3.46 2.74-1.7 2.69-3.68-.11-4.5-1.21-6.31 0-3.24-2.36-2.47-.49 1.59-4.34 2.36-10 .22-10.54-.16-3.51-3.07-3.84-3.4-1.92-1.37-1.92-1.37" fill="#f19302"/><path d="M44.28 189.27a29.13 29.13 0 0 0-2.93 11.27c-.15 3.3.38 5.55-.29 10.39a32.71 32.71 0 0 1-1.17 5.63c-1.42 4.58-2.73 4.86-3.51 8.42-.3 1.38-1.33 6 1.1 8a4.44 4.44 0 0 0 2.56 1 43.06 43.06 0 0 1 1.83-12.59c1.54-5 2.8-5.63 3.51-10 .83-5.1 0-5.54.44-11.12a26.83 26.83 0 0 1 2.34-8.34zM53.94 194.1s-.88 9.73-1.61 12.51-2.41 8-2.71 8.78-2.41 9.29-2.63 10.32-2.41 7.54-2.63 8-.73 1.39-.73 1.39l4.9 1.24s6.07-16.17 6.29-17.71 1.32-8.63 1.68-10.54a22.18 22.18 0 0 1 1.83-5.93c1-1.83 3-5.42 3-5.93a1.84 1.84 0 0 0-1.39-1.54c-.8-.08-6-.59-6-.59zM69.97 196.3a117.55 117.55 0 0 0-4.83 15.88c-1.43 6.3-1.69 9.93-4.17 14.71a31.85 31.85 0 0 1-7 8.93 11.07 11.07 0 0 0 6.88-1.46 11.37 11.37 0 0 0 4-4.61c2.16-3.93 3.53-8 5.56-16.68 1.22-5.21 1.39-6.59 2.56-9.29a34.25 34.25 0 0 1 4.1-7zM82.61 199.74s2.2 10.9 2.34 13.1 0 6.81.15 9.88.29 5.71 1.24 7.46 1.24 3.15 3.37 3.81a41.45 41.45 0 0 0 5 1.1 17.37 17.37 0 0 1-2.12-2.63c-2.08-3.18-2.58-6.25-3-9.73-1-8.55-.46-9.89-1.24-16a76.71 76.71 0 0 1-.59-7.76v-2.49a2.48 2.48 0 0 0-1.45 0 3.15 3.15 0 0 0-1.4 1c-.46.54-1.22 1.31-2.3 2.26zM94.7 201.42s.73 18.88.73 20.42.73 9.59.73 10.39 0 3.44.51 3.59a29.41 29.41 0 0 0 5.63.29c.44-.22-.15-8.63-.15-10.76s.22-9.29.07-10.68-.88-4.68-1-5.56-6.52-7.69-6.52-7.69zM108.9 217.74a75.93 75.93 0 0 1-1 10.17c-.88 5.2-2.56 7.54-2.56 7.54l5-1.24c.31-.68.69-1.6 1.07-2.72a29.19 29.19 0 0 0 1.2-5c.31-2.07.47-3.15.07-4.54a7.32 7.32 0 0 0-.8-1.83z" fill="#e54411"/><ellipse cx="51.27" cy="167.17" rx="4.35" ry="4.32" fill="#e54411"/><ellipse cx="66.35" cy="174.64" rx="4.94" ry="4.46" fill="#e54411"/><ellipse cx="66.39" cy="157.77" rx="4.61" ry="4.43" fill="#e54411"/><ellipse cx="64.81" cy="102.96" rx="4.79" ry="5.09" fill="#e54411"/><ellipse cx="44.58" cy="104.2" rx="4.68" ry="4.72" fill="#e54411"/><ellipse cx="46.44" cy="130.29" rx="5.09" ry="5.2" fill="#e54411"/><path d="M2.79 68.61A44.13 44.13 0 0 1 .9 50.93a47.21 47.21 0 0 1 3.71-13.86 46.33 46.33 0 0 1 3.54-7c.88-1.42 2.7-4.16 9.89-11.38 5.07-5.09 7.38-8.19 9.69-8.84C29.73 9.27 39 5.11 39 5.11a35.41 35.41 0 0 1 4.28-1.65 34.57 34.57 0 0 1 5.14.07s2.3-2.52 4.54-2.56S63.28.68 64.42.45s17.86 3.36 28.16 10.44 16.12 15.5 17.03 21.72c.26 1.68 3.47 13.86-2.53 22.66a40.77 40.77 0 0 1-5.75 6.43c-3.61 3.2-4.94 3.09-8.18 6.24-2.93 2.85-2.83 3.9-5.65 6.64a29.09 29.09 0 0 1-7.23 5.12l-2.21-4.67s9.46-10 11.6-16.12.25-10.53 2.32-11.53 3.93-5.2 3.39-6.62-3-5.61-3.93-5.44-4.7 1.6-4.7 1.6-3.43-.93-4.62-1.9-6.07-4.62-6.74-4.77-2.58-.85-3.65-.44-11.32 3.54-13.24 3.87-7.7 3.37-10 4.87a15.23 15.23 0 0 0-3.26 2.69L35.8 30.55s-.1 4.54.06 6.53.34 6.21.34 6.21l-6.21.34-15.15 11.15a5.54 5.54 0 0 0-1.52 5.09 32.9 32.9 0 0 0 1.88 5.41s-1.45 2.6-1 3.25 4.26 4.7 6.59 5.44 12 7.25 14 8.73 8.18 3.19 10.49 3.33 5.36-.43 5.81.22 3.11 3.3 3.32 3.84.08 1.81-3.55 3-16.46.81-16.46.81-7.84-2.3-10-3.11-8.43-3.3-9.51-4.52-5-5.46-5.73-6.39-6.13-10.17-6.37-11.27z" fill="#e07d3b"/><path d="M24.29 49.46s-8.32 4.43-9.62 6.36-1.82 1.11-1.33 4a7.87 7.87 0 0 0 2.07 4.32c.52.82-2 1.78-1.85 3.17s1.81 5.24 4.21 6.15 3.91-.48 5.13 1.1 12.6 9.88 22.4 11.43 21.44-1.7 26.84-5.21 10.31-10.94 12.47-13.17 4.5-7.46 5.17-10 3-6.06 2.58-7.13a11.12 11.12 0 0 1-.38-3.13s4.84-3.91 3.39-6.62-2.07-7-6.17-5.4-5.59 1.95-6 1.48-5.7-8.44-10.79-7.31-15.8 4.64-17.01 5.11-8.29 5-8.29 5l-2.8 2.3s-4.51-7.47-5.35-8.58a22.41 22.41 0 0 0-3.15-2.88 11.9 11.9 0 0 0 0 5.32 35.86 35.86 0 0 1 .91 6.61s-3.63 1.19-4.91 1.07-2.43 1.14-3.36 1.91-4.16 4.1-4.16 4.1z" fill="#f4dbc1"/><path d="M28.13 60.77c-.06-.28-.08-3 1.47-3.89a18.9 18.9 0 0 1 4.44-2c.6 0 2.72-.64 3.75-.22a4.46 4.46 0 0 1 2.45 1.72c.49.88-.71 1.75-1.06 2a31.88 31.88 0 0 1-4.74 2.84c-1.34.51-4 1-5 .59a2.7 2.7 0 0 1-1.31-1.04zM60.86 44.69s-2.91 1.73-2.6 3.2-.83 3.44.69 2.85a7.19 7.19 0 0 1 3.33-.92c2.45-.28 4.68-.06 6.15-1.55s2.09-2.14 2.11-2.76 1.14-1.41-.1-1.6-2.48-1.81-4.31-1.1-5.27 1.88-5.27 1.88z" fill="#fff"/><path d="M61.71 45.24a2.42 2.42 0 0 0 .38 2.39 3.65 3.65 0 0 0 2.92 1.41c.88-.11 2.6-.62 2.6-1.23a18.27 18.27 0 0 0-.08-2.2c-.08-.2-.16-2-1-1.68s-4.82 1.31-4.82 1.31zM31.35 56.46a1.74 1.74 0 0 0-.18 1.91c.49 1.27 2.66 2.73 3.77 2.23s2.73-1.28 2.73-2.66.21-2.84-.8-3.07-1.32 0-3 .29a5.19 5.19 0 0 0-2.52 1.3z" fill="#8bcded"/><path d="M35.95 9.61s-1.95 5-1.49 8.35.84 9.09 1.87 11.76 5.5 7.91 5.5 7.91-6.87-22.11 3-24.67c4.51-.51 8.88 1.29 9.43 2.71l-2.13-5.52a9.64 9.64 0 0 1 6.35 0c3.14 1.25 9.51 4.52 11.89 10.16s-1.21-7.92-3.11-8.62-6.5-4.66-9.18-5.26-8.65-2.81-9.68-2.82l-5.14-.07s-5.41 1.88-6 2.51a14.35 14.35 0 0 0-1.31 3.56z" fill="#e8a169"/><path d="M34.41 7.72s-2.07-1.66-6.58 1.51-10.2 12.31-10.17 12.91-4.55 11.57-3.58 15.7 1.07 7.57 1.66 8.57c.38 0-.26-8.36 2.77-16.66.91-2.49 2.32-5.47 5.24-7.13.78-.44 2.14-1.2 3.41-.7 1.45.57 2.33 2.6 2.17 5.1a9.47 9.47 0 0 1 1.43-5.87 3.08 3.08 0 0 1 2-1.6 2.62 2.62 0 0 1 1.91.7 10.42 10.42 0 0 1-.22-4.83c.53-2.65 2-4.07 1.43-5.87a3.72 3.72 0 0 0-1.47-1.83z" fill="#e8a169"/><path d="M15.61 21.08c-1.22 1.08-5.43 10.88-5.43 10.88l-.41 2.65s2.47-4.22 4.07-4.84 2.67-3.69 2.67-3.69l5.1-10.59z" fill="#e8a169"/><path d="M5.83 34.46s-2.86 7.44-3.34 8.86S.28 51.94.72 53.61s3.92-6.83 5.54-8.47 3-9.32 3.43-9.71 1.67-8.42 1.67-8.42zM5.22 62.11s-.71 8.25-.1 9.86 3.5 9.09 6.84 10.87a16.07 16.07 0 0 1 5.09 4.18S7.36 74.59 8.36 68.68a28.79 28.79 0 0 0-.32-10.93l-1.37-.9z" fill="#e8a169"/><ellipse cx="1180.95" cy="-63.01" rx="11.4" ry="8.65" transform="rotate(-42.56 777.258 1408.275)" fill="url(#a)"/><ellipse cx="1133.39" cy="-42.46" rx="8.25" ry="10.87" transform="rotate(-76.52 655.388 713.119)" fill="url(#b)"/><path d="M56.56 25.79s1 3.31.58 4.84a5.83 5.83 0 0 1-2.68 3.54c-1.25.74-4.11 2.09-4.55 2.26a28.94 28.94 0 0 0-2.81 2l-1.75 1.29s-.24.71-1-.16-2.82-4.13-3.26-4.48a32.89 32.89 0 0 1-4.64-8.34c-1.19-3.48-2.05-10.26-.83-13.85s1.21-5.63 2.89-6.84 4.69-1.76 5-2 3 .08 4.61 1.75a30.71 30.71 0 0 1 5 7.58c.68 1.89 1.65 4.28 1.65 4.28s.44-2.57-1.64-6.38a53.79 53.79 0 0 0-3.56-5.79s-1.78-2 1.47-.82 9.71 2.91 12.69 5.35 4.51 4.15 5.44 7.37 2.15 6.79 2.18 7.4 1.51.34 1.51.34-1.84-8.65-2.89-10.29-2.83-5.1-5.11-6-7.71-3.68-8.26-3.78-5.88-1.47-6.05-1.51-1.68-.38-.53-.72a31.69 31.69 0 0 1 3.76-1.14c.38.06 5.14 1 5.14 1l-.87-.94.57-1a61.14 61.14 0 0 0-6.36-.06 36.43 36.43 0 0 0-5.54 1.82c-.63.35-2.25-.26-4.44.28a17.62 17.62 0 0 0-4.77 2.35s-2.38 4-2.43 4.72a29.1 29.1 0 0 0-1.16 8.68c.21 4.67 1.14 11.07 1.9 12.11s1.42 2.22 3.1 4.33 3.38 3.87 3.71 4.71 1.41 2.47 1.35 2.7 1 .18 2.08-1.36 2.73-2.07 4.59-3.1 3.87-2.31 4.23-2.44a13.59 13.59 0 0 1 5.06-1.59 33.66 33.66 0 0 0 7.09-1.5 2 2 0 0 0 1.12-1.86s-3.61 1.39-4.28 1.49-3.81.6-4.7.68a5.39 5.39 0 0 0-1.11.17s1.52-2.17.78-4.09-.35-2-1.39-3.35a8.63 8.63 0 0 1-1.31-2.21z" fill="#5c211a"/><path d="M71.46 24.92s.34 2.48 0 3.07a4.63 4.63 0 0 1-1.92 1.92 9.38 9.38 0 0 1-1.85.76l-.63 1.68a26.65 26.65 0 0 0 3.8-1.41c.73-.49 1.41-.85 1.28-1.06a6.81 6.81 0 0 0 1.73 1.18c1.15.48 3.78.79 4.54 1.43a7.81 7.81 0 0 1 3.22 3.31 5.3 5.3 0 0 0 4.89 2.47c.19-.17 1-1.57 2-1.84s3.24-.63 4.24.26 2.38 3.79 2.06 5.35a8.94 8.94 0 0 1-1.12 3.19 17.47 17.47 0 0 1-2.22 2.34 11.13 11.13 0 0 1-.81 6.81c-1.63 4-3.74 9.67-4.93 11.25s-4.8 6.14-6.19 7.7a21 21 0 0 1-2.62 2.49 5.26 5.26 0 0 1 1.19 1.64c.23.73 1 2.42 1 2.42l1.82-1.26-1.58-2.77s5.42-7 6.05-7.8 5.42-8.63 5.59-11v4.34c0 .41.38 3 .35 3.29a13.13 13.13 0 0 1-1.66 4.73 42.88 42.88 0 0 1-3.87 4.71l1.36.29a10.51 10.51 0 0 1 1.35-1.54 11 11 0 0 1 1.68-1.28c.69-.46 1.41-1.66 2.38-5 1.48-5.06-1.11-10.54.13-15.34s1.31-4.85 1.74-5.58a5.36 5.36 0 0 0 .26 1.48 5.64 5.64 0 0 1 .53 2.45c-.12.76-.61 3.61-.25 4.54a41.4 41.4 0 0 0 2.09 5.44c1.58 3.43 3.51 3.81 3.51 3.81a2.08 2.08 0 0 1 .24-1.55c.08-.12.11-.12.15-.18.48-.82-3.37-3.06-4.47-6.36a7.17 7.17 0 0 1-.12-3.89s3.06 3.83 3.64 4.68 1.1-1.8 1.1-1.8-4.06-3.65-4.62-7 .22-7.4.19-8a22.16 22.16 0 0 0-.39-2.61c-.07-.18 1.47 4.5 2 6a26.36 26.36 0 0 1 .87 3.45 13.3 13.3 0 0 0-.94-7.62c-1.76-4.18-3.37-3.31-3.37-3.31l.51 2.92s-1.25-3.51-3.17-3.59a17.39 17.39 0 0 0-4.94 1s-2.46 1.31-3.87-.1a17.53 17.53 0 0 0-3.57-3.18 22.55 22.55 0 0 1-2.08-1.3 30.77 30.77 0 0 0 3.17.52c.39 0 3.53 1.86 4.9 1.85a16.07 16.07 0 0 0 4.15-.78c.38-.2-3.91-.34-4.53-.87a4.48 4.48 0 0 0-1.86-.72s3.9-1.55 6.47-.34 1.49-1 1.49-1-4.26-.71-5-.65-5.47.26-7 .48-4.11.61-5.17-1.08-1.22-1.32-1.61-3.27a.93.93 0 0 0-.51-.9 1.37 1.37 0 0 0-.8.73z" fill="#5c211a"/><path d="M59.5 2.87s6 .69 8.7 1.87 6.81 2.55 11.31 6.8 6.87 6.56 8.88 10.6a52.37 52.37 0 0 1 3.06 6.75c.08.48.35.78 0 .9a1.85 1.85 0 0 0-.39 1.12 7.49 7.49 0 0 1 3.08 2.7 23.22 23.22 0 0 1 1.07 2.51l2.19 1.31.58.7s-.84-3.92-2.35-5.44-2.77-3.33-3-4.94-.72-4.12-1.49-5.21-1.41-2.07-1.41-2.07 6.18 3.56 9.49 8.57 4.81 8.64 5.17 10.24.69 2.6-.33 6.06a51.1 51.1 0 0 1-2.53 6.45 29.22 29.22 0 0 0-.66 3.32l-.8 1s.54.2 1.07 1.84a5.69 5.69 0 0 1 .18 3.51 20.3 20.3 0 0 1-.68 2l.64-.22a39.28 39.28 0 0 0 3.9-4.19.81.81 0 0 0 .13-.52 1.59 1.59 0 0 0-1.06-1l-.58.63a15.7 15.7 0 0 1-.19-6.07c.53-3.53 3.14-9.65 3.27-10.51s-3.25-7.65-3.93-8.62-4.46-7.74-7.6-9.91-5.88-4.64-7.57-5.73-6.22-7.27-7.94-8.15-4.92-3-6.13-3.57a53.13 53.13 0 0 0-8.39-3.06 38.9 38.9 0 0 0-6.16-.6l-1-.18s4.25-2 12.37.25 17.11 5.79 23.32 10.1 4.6 4.52 7.12 6.26 5.31 4.35 7.21 11 3 9.19 1.94 13.42a67.79 67.79 0 0 1-3.71 11.09c-.78 1.43-2.49 4.43-2.49 4.43l.7.75a2.92 2.92 0 0 0 1.52-1.1c.85-1 3.19-7 3.7-8.74s2.78-7.41 1.44-12.88-2.87-11.58-5.43-15-9.32-8.79-10.33-9.58-12-6.89-13.26-7.22S71.07-.15 67.96.02 59.68.7 59.68.7h-1.57a2.83 2.83 0 0 0-.86 1.1l.77.68z" fill="#5c211a"/><path d="M103.39 28.54a12.88 12.88 0 0 1 2 5s.08.47.37 3.9v2.4l.89 2.06a20.18 20.18 0 0 0 .44-2.89 18.64 18.64 0 0 0-.35-5.63 17.21 17.21 0 0 0-4.21-7.74 20.43 20.43 0 0 0-5.9-4.43c-3.87-2.1-6.26-2-7.18-2.45-.57-.29-.06 1 .5 1.29s5.09 3.26 5.19 3.38-.91-1-.74-1.26 1.18.11 1.52.23a14 14 0 0 1 4.14 2.4 17.14 17.14 0 0 1 3.33 3.74zM34.2 8.1a15.14 15.14 0 0 0-3.64 6.62A52.34 52.34 0 0 0 29.09 25a6 6 0 0 0 .79 3 26.5 26.5 0 0 1 .31-5c.38-1 2.13-8.69 2.65-9.87s1.44-3.16 2.27-3.28 2.77-4.9 2.77-4.9-5.32 2.4-6.3 2.78-6.28 2.42-8.61 4.74-5.5 9.38-5.61 9.62-3.53 7.7-3.6 11.51-.63 7 .56 10.88a14.67 14.67 0 0 0 3.31 6.09c.33.33 1.94 1.71 1.94 1.71l2.42-1.29-1.9-.55a11 11 0 0 1-2.43-2.34 11.12 11.12 0 0 1-1.57-2.88 25.61 25.61 0 0 1-1.3-9.22c.49-8.34 4.11-14.45 5.94-17.53A24.26 24.26 0 0 1 26.05 12a26.93 26.93 0 0 1 2.33-1.69c1.55-1.08 4.11-2.26 5.82-2.21z" fill="#5c211a"/><path d="M24.86 46.83s3.71-2.45 4.13-2.82a9.62 9.62 0 0 0 2.16-4.36 17.88 17.88 0 0 1 .18-1.91s.18 3.51.29 4.08.58 2.18 2.34 1.56 2.51-.66 2.17-2.47-1.19-4.3-1.09-5.77.11-4.9.27-5.68 1.33 1.59 1.33 1.59-.7 4.16-.3 5.74 1.53 6 1.59 6.14a14.42 14.42 0 0 1-3.37 1.35 12 12 0 0 1-2.83 0 15.5 15.5 0 0 1-3.65 2.74c-2.9 1.78-5.78 3.86-6.6 4.12a1.37 1.37 0 0 1-1.39-.44s4.43-3.69 4.77-3.87z" fill="#5c211a"/><path d="M17.41 17.61c-.08.13-7.2 9.88-7.91 10.56a94.64 94.64 0 0 0-6.25 10.08c-2.23 4-3.1 11-3.22 12s0 9.52.63 11.47 3.4 11 4.68 12.83 4.1 6.14 4.82 6.53 1.09-.62 1.09-.62a22.78 22.78 0 0 1-5.94-10C3.8 64.55 6.8 58.64 6.8 58.64l.46-.94a27.49 27.49 0 0 0 1.64 4.38 35.08 35.08 0 0 0 3.83 4.77c.5.37.75-2.18.75-2.18s-3.36-3.82-4.23-6.61-2.17-6.58-1.94-9.17 1.17-8.53 1.17-8.53a28.66 28.66 0 0 0 .87 6.11c.74 2.32 2.57 6.27 3.88 7.15a10.35 10.35 0 0 0 2.41 1.22l4.67-3s-4.19-3.19-3.85-3 2 2.7.94 3.78-3 1.06-4.79-1.69-3.39-7.49-2.52-11.61.66-8.39 2.71-11.17-2.84 3-2.84 3-1.78 7.33-2.2 8.37-2.24 6.13-1.92 9 .58 6.83.58 6.83-.89 2.75-1.43 4.39a27.13 27.13 0 0 0-1 4.52c0 .36-.52 2.24-.87.13S.68 54.33 1.87 49.17 4.23 38.7 5.59 36.38s2.73-5.14 4.38-6.7 3.66-3.51 3.66-3.51a25.9 25.9 0 0 1 3.15-5.1c1.46-1.53 2.59-3.5 3.27-4.12s3.71-5.11 3.71-5.11-5.87 5.04-6.35 5.77z" fill="#5c211a"/><path d="M10.46 29.61a18.21 18.21 0 0 0-.73 2.63c-.14 1 3.47-4.66 3.47-4.66s.66-2.15 1-2.89-3.69 4-3.69 4zM14.33 54.41a13.18 13.18 0 0 0-1.16 2.44c-.05.53-1.06 1.23-.78 3s1 3.82 1 4.17a23.42 23.42 0 0 1-.75 3.51 10.56 10.56 0 0 0 .05 5.45c.62 2.93 2.1 7.07 3.1 8.32s3.93 5.44 4.75 6.1-4.68-2.6-5.21-3.16-4.36-4.15-4.74-4.47-.63 1.16-.63 1.16 4.08 5 7.63 6.94 8.94 4.9 12.32 5.44 2.77.67 4 .73 4.48.48 5.3.62a20.27 20.27 0 0 0 3.89-.27c.48-.08 3.15.07 4.13-.31a9.38 9.38 0 0 1 2.54-.72 9.35 9.35 0 0 0 2.63-.6 5.47 5.47 0 0 0 1.21-.77l.94-.72-1.36-.75a8.68 8.68 0 0 1-5.61 1.9 32 32 0 0 1-14.38-5.46 79.28 79.28 0 0 1-12.34-11.21c-.81-.91-2.78-1.38-2.29-.91a55.44 55.44 0 0 1 5.56 6.61c1.62 2.49 8.29 6.53 8.82 6.84s8.58 4.22 9.29 4.2-3.22 1.34-5 1a18.82 18.82 0 0 1-6.91-4c-1.1-1.26-3.28-2.27-1.92-.59s5.33 4.29 6.12 4.34a12 12 0 0 1-5-1.28c-2.36-1.34-6.38-3.17-8.79-6.23a57.28 57.28 0 0 1-5.11-7.29c-.33-.85-1.23-2.8-1.23-2.8a23 23 0 0 0 5.1 6.07c2.77 2 3.52 2.64 3.7 2.72s-5.22-4.79-6-6.42-3.87-6.08-3.62-8.07.89.07.89.07h1.44s-1.5-1.78-.66-3.17a4.4 4.4 0 0 1 1.36-1.65 10 10 0 0 1-2.36-4c-.75-2.47-.47-3.35 0-4.44s2.21-2.23 3.45-3.12a.44.44 0 0 0 .22-.25c-.31-.19-1.97.41-3.59 1.03z" fill="#5c211a"/><path d="M18.16 72.22a5 5 0 0 0 2.37.72c1.29 0 1.57.22 1.89 0a19.54 19.54 0 0 0 5.45 5.12c3 1.62 11.6 7.3 18.88 7.72s15.09-1.71 17.21-2.33a36.16 36.16 0 0 0 9.43-5 26.9 26.9 0 0 1 4.05-2.89l.66 1.33a54.27 54.27 0 0 1-4.31 3.55 64.67 64.67 0 0 1-9 4.28c-2.6.95-7.19 1.64-8.47 2a23.81 23.81 0 0 1-5.27.8c-1.09 0-9.23-.59-12.43-2.27s-7.66-3-11.94-6.45-6.15-4.54-6.56-4.43.9 1.8 1.46 2.46-2.35-1.19-2.4-1.33a36 36 0 0 1-3.41-3.29 11.57 11.57 0 0 1-1.64-2.54 7.41 7.41 0 0 1 1-.35s2.3 2.72 3.03 2.9z" fill="#5c211a"/><path d="M51.99 88.61a3.53 3.53 0 0 1 1.13 1.44 1.41 1.41 0 0 1-.14.74l.5 1.19s.34-.32 2-.07a17.81 17.81 0 0 0 3.28.16c.66 0 7.25-.79 10-2.05a54.63 54.63 0 0 0 6.82-3.62c.39-.38 2.58-1.87 2.58-1.87a17.75 17.75 0 0 0 3.2-2.78c.27-.3.33-.39 3.15-4.35a27.34 27.34 0 0 1 3.37-4 3.31 3.31 0 0 0 .4-.37 1.78 1.78 0 0 0 .51-.77c-.07-.09-.72.27-2.78 1.79-.88.9-1.65 1.63-2.25 2.18-1.13 1-1.73 2-3 2.54a14.11 14.11 0 0 0-1.59 1.12s-.25 1.77-3.08 3.9a33.39 33.39 0 0 1-9.9 5.38c-4 1.3-6.25 1.71-7.89 1.54s-3.24-.44-3.8-1.61a8.72 8.72 0 0 0-.85-1.51s-.15-.29.49-.61-3.45.29-3.45.29a4.64 4.64 0 0 1 1.3 1.34z" fill="#5c211a"/><path d="M58.94 86.08a31.15 31.15 0 0 1 3.67 2.53c.3.27 1.22-3.81 1.22-3.81l3.07-1.18s3.86 1.85 4 2.19.84-4.7 1.05-4.74 2.26-1.71 2.63-1.55 1.64.37 2.32.64a3.38 3.38 0 0 1 1.47 1.12c.15.29-.83 1.43-.83 1.43a27.24 27.24 0 0 0-4-1.81c-.39.07-.84 4.7-1.27 5.47a1.61 1.61 0 0 1-1.47 1.06c-.42-.11-5-2.67-5.26-2.62s-1.22 4.92-1.69 5.37a2.39 2.39 0 0 1-1.69.19l-4.63-3.66-2.4 3.64-1-.82 2.11-3.19z" fill="#5c211a"/><ellipse cx="1159.4" cy="-25.51" rx=".73" ry=".7" transform="rotate(-21.04 917.423 2997.258)" fill="#5c211a"/><ellipse cx="1163.18" cy="-27.94" rx=".73" ry=".68" transform="matrix(.93 -.36 .36 .93 -1013.79 530.4)" fill="#5c211a"/><ellipse cx="1171.53" cy="-30.9" rx=".61" ry=".59" transform="rotate(-21.04 929.563 2991.88)" fill="#5c211a"/><ellipse cx="1179.04" cy="-35.67" rx=".63" ry=".73" transform="rotate(-21.04 937.081 2987.094)" fill="#5c211a"/><path d="M23.95 54.5a10.85 10.85 0 0 1 2.08-3 8.72 8.72 0 0 1 2.7-1.68 6.48 6.48 0 0 1 2-.21 3.23 3.23 0 0 1-1.21 1.23A29.11 29.11 0 0 0 26.69 53c-.34.39-2.05 1.51-2.23 1.73s-1 .91-.8.46.29-.69.29-.69zM27.49 58.05a5.15 5.15 0 0 1 2.18-2.3 19.86 19.86 0 0 1 4-1.66 8.57 8.57 0 0 1 4.29.11 9.76 9.76 0 0 1 2.89 1.34 2.88 2.88 0 0 1 1 1.14c.29.68.13.92-.48 1.08a4.75 4.75 0 0 0-2 1.23 11.09 11.09 0 0 1-4.06 2.48c-1.6.44-3.83 1.22-4.83 1s-2.6-.58-2.6-.58a.89.89 0 0 1-.94-.84c.08-.8 1.79-1.2 1.79-1.2a.8.8 0 0 0 .25 1.11 4.14 4.14 0 0 0 2.92.41c.93-.31 3.74-1.31 4.48-1.65a8.63 8.63 0 0 0 1.64-1.12 3 3 0 0 1 1-.88 4.53 4.53 0 0 1 1.21-.39c.23 0 .55 0 .34-.44a5.39 5.39 0 0 0-2-1.63 2.84 2.84 0 0 0-1.5-.24c-.55 0-6.55 1.78-6.55 1.78a4.93 4.93 0 0 0-1.12 1.27 6.91 6.91 0 0 1-2.23 1.65 8.51 8.51 0 0 1 .32-1.67z" fill="#5c211a"/><path d="M28.96 58.81l-.44 1.32-1.69 1.13s.26-1.79.29-1.9 2.73-2 2.73-2zM30.67 56.67a2.72 2.72 0 0 0-.26 1.86 3.15 3.15 0 0 0 1.31 1.87 2.48 2.48 0 0 0 1.71.47 28.37 28.37 0 0 0 3.52-1.35 3.4 3.4 0 0 0 1.17-.94 4.67 4.67 0 0 0-.15-2.45c-.46-.92-.42-1.3-.9-1.29a18.66 18.66 0 0 0-2.06.36.6.6 0 0 0 .31.29.72.72 0 0 0 .39 0 1.51 1.51 0 0 1 1 .88 2.56 2.56 0 0 1-.26 2.53 3 3 0 0 1-2.48 1.21 2.83 2.83 0 0 1-2.06-1 2 2 0 0 1-.22-2.11.49.49 0 0 1 .39-.19 3.23 3.23 0 0 0 .32.3.35.35 0 0 0 .22-.1 2.6 2.6 0 0 1 .47-.27.69.69 0 0 1 .62.32.82.82 0 0 1-.17 1.14 3 3 0 0 1-.69.14 2.31 2.31 0 0 0 2.38.26 2.13 2.13 0 0 0 .74-.76 1.92 1.92 0 0 0 .22-.89 2 2 0 0 0-.21-.89 1.36 1.36 0 0 0-.5-.68l-.82-.2a3.92 3.92 0 0 0-3.27.59 3.14 3.14 0 0 0-.72.9zM50.93 63.81c.27-.09 2.28-.44 3.06-.77a16.75 16.75 0 0 0 2.49-1 14.51 14.51 0 0 1 1.45-.81.88.88 0 0 1-.24.91 6.42 6.42 0 0 1-2.63 1.88 8 8 0 0 1-3.32.67 1.81 1.81 0 0 1-1.31-.42c-.3-.49-.07-.27.5-.46zM58.08 46.61a4.05 4.05 0 0 1 2.38-2.78 20.78 20.78 0 0 1 5.51-1.38 13.15 13.15 0 0 1 2.56.22c.23.07 2.54 1.09 2.76 1.26s.93.56.54 1.15a6.33 6.33 0 0 1-2.65 2.94c-2 1.2-4 2.17-5.11 2.14a11.46 11.46 0 0 0-2.81.34c-.66.15-1 .15-1.45.28s-1.5.81-2-.42a4.84 4.84 0 0 1-.08-2.66 3.44 3.44 0 0 1 .33-1.07 1.16 1.16 0 0 1 .3-.42 1.55 1.55 0 0 1 .81-.23 3.13 3.13 0 0 1 .83-.09c.21.23-.69 1-1 2.44a1.91 1.91 0 0 0 .11 1.62.16.16 0 0 0 .08 0 1.56 1.56 0 0 0 .64-.37 1.19 1.19 0 0 1 .42-.09 10.49 10.49 0 0 1 2-.12 11.05 11.05 0 0 0 6.59-2.48c2.44-2.09 1.7-2.42 1.7-2.42a10.75 10.75 0 0 0-2.08-.76 47.48 47.48 0 0 0-5.78.66 7.47 7.47 0 0 0-1.88 1c-.27.23-.86.89-.86.89z" fill="#5c211a"/><path d="M60.86 45.36a4 4 0 0 0 .35 2.3 3.45 3.45 0 0 0 2.08 1.88c1 .24 1.8-.19 3-.8 0 0 .37-.19 2.28-1.44a7.66 7.66 0 0 0-.07-2.45c-.27-.51-.32-1.36-.86-1.38a17.59 17.59 0 0 0-2.19.28c-.35 0-2.79 0-3.83.73a1.36 1.36 0 0 0-.75 1 .52.52 0 0 0 0 .17l1.23-.11a2.3 2.3 0 0 1 1.06-.43.87.87 0 0 1 .76.83 1.53 1.53 0 0 1-.33.66 1 1 0 0 1-.36.14 1.73 1.73 0 0 0 1.84.6 1.81 1.81 0 0 0 1.14-1.23 1.78 1.78 0 0 0-.09-1.09.82.82 0 0 1 .47-.57.57.57 0 0 1 .45.22 1.94 1.94 0 0 1 .4 1.51 2.7 2.7 0 0 1-.89 1.8 2.93 2.93 0 0 1-2.54.52 2.86 2.86 0 0 1-1.4-.89 2.25 2.25 0 0 1-.47-.76 1.64 1.64 0 0 1-.09-1.17 1.37 1.37 0 0 1 .38-.55zM63.14 37.61s3.4-.13 4.07-.06l1.71.19s1.17.06.31-.32a14.37 14.37 0 0 0-5.27-1.35c-1.92 0-3.58.4-4.29 1s-1.09 1.16-.51 1.19a11.45 11.45 0 0 0 2.27-.41c.46-.05 1.71-.24 1.71-.24zM45.06 73.69a46.69 46.69 0 0 0 11.9-2.43c3.94-1.36 6.18-2.14 8.26-4a45.4 45.4 0 0 0 4.48-4.1 19.91 19.91 0 0 1 1.79-1.53 1 1 0 0 1 .58-.3.85.85 0 0 1 .29 0l.91.57a1.76 1.76 0 0 1 0 .47.72.72 0 0 1-1 .27 1.39 1.39 0 0 1-.14-.43c-.32-.21-2.89 3.13-3.32 3.68-3.46 4.42-8.43 6.28-10.71 7.14a24.24 24.24 0 0 1-9.89 1.81c-2.46 0-5.26-.25-5.71-.08a5.37 5.37 0 0 0-1.47 1.31c-.16.24-.7.11-.52-.41a4.56 4.56 0 0 1 1.22-1.67 4.69 4.69 0 0 1 1.95-.39 8.91 8.91 0 0 0 1.38.09zM57.55 75.84s2.25-.87 2.71-1a23.68 23.68 0 0 0 3.26-1.23c.78-.43 1.91-1.22 2.13-1.31l.86-.36s.16.22-.91 1.35a13.26 13.26 0 0 1-5.31 3.27 18.06 18.06 0 0 1-5 1.27 22.93 22.93 0 0 1-2.41-.22s-.39-.36.38-.61 2.7-.76 3.11-.81a6.28 6.28 0 0 0 1.18-.35z" fill="#5c211a"/><ellipse cx="1134.6" cy="-57.1" rx=".79" ry=".8" transform="rotate(-21.04 892.623 2965.663)" fill="#fff"/><ellipse cx="1164.46" cy="-68.76" rx=".97" ry=".93" transform="matrix(.93 -.36 .36 .93 -999.05 528.14)" fill="#fff"/><path d="M47.85 170.76s-.33 2.14 2.8 3.79 10.21 3.24 12.73 3.51c2.07.23 3.09.48 17.73.66a.31.31 0 0 0 .2-.05 2.05 2.05 0 0 0 .15-.66 1 1 0 0 1 .66.59l1.32 2.12c-6.17-.6-10.89-.76-14.12-.79a72.16 72.16 0 0 1-8.78-.66c-1.76-.22-3.4-1-5.65-1.32a25.4 25.4 0 0 1-4.72-1.15c-1-.27-2.31-1.65-2.85-2.09s-1 1-1 1z" fill="#5c211a"/><path d="M42.53 184.37c.27.05.49 1 1.81.27s8.12-6.37 10-6.81 3.73-.33 3.9.38 4 13.78 4.67 14.21 2.52-1.26 2.52-1.26 8.73-9.77 8.62-11.2 1.81.11 1.81.11 5.38 7.9 5.87 8.67 3.84 5.49 4.61 5.38 3.35-3.18 3.35-3.18l1 1.15s-3.35 3.57-4.34 3.62-4.5-4.72-5.43-6.09-5-7.9-5.65-7.9-4.17 4.94-5.49 6.26-4.88 6.75-6.48 6.48-4.17-9.06-4.45-9.6-1.81-5.82-2.52-5.87-6.31 2.85-10 5.76-2.8 3.29-2.8 3.29-1.76-1.65-1.7-2a14.54 14.54 0 0 1 .7-1.67z" fill="#5c211a"/><ellipse cx="47.93" cy="178.72" rx="1.39" ry="1.32" fill="#5c211a"/><ellipse cx="53.18" cy="185.99" rx="1.59" ry="1.34" fill="#5c211a"/><ellipse cx="64.84" cy="183.82" rx="1.56" ry="1.43" fill="#5c211a"/><ellipse cx="74.77" cy="190.7" rx="1.51" ry="1.46" fill="#5c211a"/><ellipse cx="84.79" cy="186.59" rx="1.26" ry="1.23" fill="#5c211a"/><path d="M62.31 91.53a11.62 11.62 0 0 1 2.22 1.62c1.66 1.54 1.54 2.35 3.79 5.65 1.11 1.62 6.67 10.61 6.37 10.94-.07.08-.08-3.64-.15-3.69a56.31 56.31 0 0 1-4-6.18c-.66-1.49-1.32-2.13-3.1-5.68-.36-.71-1.32-2.91-1.32-2.91s0-.66-.05-.82c-.07-.43-1.06-.06-2 .27a12.51 12.51 0 0 0-1.76.8zM74.82 86.43a8.9 8.9 0 0 0 .91 2.55c.52.69.49-.05.52-1.32a8.7 8.7 0 0 1 .14-2.2c.14-.32-1.57.97-1.57.97z" fill="#5c211a"/><path d="M66.35 90.52a1.35 1.35 0 0 0 1 .65 44.23 44.23 0 0 0 7.16 0 .57.57 0 0 1 .05.44c-.06.51.13 1.17-.17 1.25a2 2 0 0 1-.7-.21 24.25 24.25 0 0 0-6-.55s-1.26-.13-.69 1.13c.22.66-1.21.25-1.4-.88-.17-1-.35-1.53-.14-1.77a.43.43 0 0 1 .14-.09 1 1 0 0 1 .75.03z" fill="#5c211a"/><path d="M74.91 86.61a1.82 1.82 0 0 1 .05 1.51c-.19.55-5.52 8.29-5.52 8.29s-.44.64-1.23-.3c-.22-.66 1.7 2.52 1.7 2.52s-.47-.61.25-1.84c.44-.6 5.21-7.49 5.21-7.49s0-.33.63-.11-1.09-2.58-1.09-2.58z" fill="#5c211a"/><ellipse cx="67.31" cy="87.56" rx=".6" ry=".58" fill="#5c211a"/><ellipse cx="66.49" cy="131.17" rx="5.74" ry="5.2" fill="#e54411"/><circle cx="74.76" cy="83.4" r=".59" fill="#5c211a"/><ellipse cx="71.7" cy="89.97" rx=".58" ry=".63" fill="#5c211a"/><ellipse cx="69.01" cy="94.37" rx=".71" ry=".67" fill="#5c211a"/><ellipse cx="73.09" cy="97.26" rx=".71" ry=".67" fill="#5c211a"/><path d="M41.72 187.84a26.43 26.43 0 0 1-.73 3.26 50.76 50.76 0 0 0-2.78 10.61c-.51 4.54-1 7-.29 8.71a22.41 22.41 0 0 0 2.27 4.32c.59.66 1.54 1.76 1.54 1.76a59.84 59.84 0 0 1-2.34-7.24c-.59-2.78.66-10.46 1.32-12.29s1.32-4.9 2.12-5.56a3.75 3.75 0 0 1 2.49-1c1 0-1.68-.8-2.34-2.2s-1.26-.37-1.26-.37z" fill="#5c211b"/><path d="M36.97 212.69c-.1.38-1.24 4.39-2 5.34a15.25 15.25 0 0 0-2 6.11c0 1.65-.07 4.24.77 6s3.37 5.27 9.37 6.51a32.91 32.91 0 0 0 12 .4 15.66 15.66 0 0 0 3.18-.84c1.07-.42 2.78-1.23 6-4.28s4.92-4.61 6.07-7.13a36.58 36.58 0 0 0 1.57-5.38c1.07-4.2.79-4.35 1.43-6.15a20.57 20.57 0 0 1 4.28-7c1.5-1.76 3.66-4.17 5.27-5.67s2-2.52 3.77-3.62 2.2-.88.8-.88c-3.2 0-5.26-.75-6.84.29-1.22.81-.47 1.86-2.23 5.56a31.16 31.16 0 0 1-1.94 3.33c-2.73 4.34-3 3.79-3.91 5.67s-1.38 4.25-2.2 8.74a14 14 0 0 1-.88 3.22 16.61 16.61 0 0 1-2.16 3.6 25.83 25.83 0 0 1-2.27 2.66c-1.82 1.88-3.69 3.07-7.43 5.45a6.56 6.56 0 0 1-3.26.84.2.2 0 0 1-.15-.05c-.19-.22.47-1.07.7-1.27a8.65 8.65 0 0 0 2.16-3.81 4.26 4.26 0 0 0 .37-2.27c-.18-.06-.62 1.39-1.61 3a11.21 11.21 0 0 1-3.29 3.73c-2.49 1.57-5.43.9-7.65.4s-4.76-1.07-6.37-3.33a8.87 8.87 0 0 1-1.46-5 23.7 23.7 0 0 1 .48-3.59 15.64 15.64 0 0 0 .48-2.63 6.75 6.75 0 0 0-1.17 2.45 22.59 22.59 0 0 0-1.13 6.37c0 1.28-.33 1.21-.77 0s-1.06-4.06-.73-5 .88-4.79 2.09-6.26a11.71 11.71 0 0 0 1.9-5 9 9 0 0 0 .29-2 16 16 0 0 0-1-1.87s-.32 2.52-.53 3.36z" fill="#5c211b"/><path d="M47.47 217.61c-.17-.64 2.67 1.68 4.13 1.68a13.26 13.26 0 0 0 3.66-.44 3.83 3.83 0 0 1-4.32 1.54c-2.96-.9-3.04-1.15-3.47-2.78zM79.26 204.27c0 1.24 1.24 3.37 1.83 6.66s1.32 8.56 1.1 10.61a23.64 23.64 0 0 0 .88 6.81 13.15 13.15 0 0 0 3.44 4.39l1.46 1.1a29.85 29.85 0 0 0 13.46 3.29c3.48 0 7.56 0 10.46-2.74a18.2 18.2 0 0 0 3.44-4.87 23.93 23.93 0 0 0 2.12-5.71l-2.93-2.27a10.06 10.06 0 0 1 .18 6 13.41 13.41 0 0 1-1.17 2.56 7.58 7.58 0 0 1-2.31 3 5.19 5.19 0 0 1-1.28.62 10.76 10.76 0 0 0 1.79-3.88c.46-2 .33-4 .07-4s-.28 3.51-2.74 6.7a7.24 7.24 0 0 1-3.26 2.6c-.82.3-1.49.33-3.81.22a37.23 37.23 0 0 1-5.82-.48 9.57 9.57 0 0 1-5.45-3.4 10.4 10.4 0 0 1-1.72-5.67 6.62 6.62 0 0 0 0-1.83 4.77 4.77 0 0 0-.8 2.23 9.45 9.45 0 0 0 .59 5.09 10.6 10.6 0 0 0 1.5 2.23s-3.15-1.83-3.81-2.74a10.5 10.5 0 0 1-3-7.46 79.28 79.28 0 0 0-.8-11.2c-.37-2.38-.88-5.12-1.1-6.73s-.22-3.55.15-4.17a.16.16 0 0 0 0-.14c-.11-.26-1.92-.16-2.59 1a2.47 2.47 0 0 0 .12 2.18z" fill="#5c211b"/><path d="M87.61 234.86c0 .1-.7 3.26-1 5.09a19.91 19.91 0 0 0 .37 7c.44 1 1.83 3.51 2 3.77a.77.77 0 0 0 .18.26c.18.18 2.71 1.1 3 1.28s6 1.94 8.78 1.79a31.33 31.33 0 0 0 8-1.94 2.63 2.63 0 0 0 .7-1.17c.11-.48 2.93-6.4 2.85-9.26s-.11-7.17-.18-7.57-1.46.88-1.46.88a20.1 20.1 0 0 1 .26 6.51 77 77 0 0 1-3.15 9.51c-.26.33-5.82 1.5-8.27 1.21s-7.24-.88-9.07-2.67a9 9 0 0 1-2.85-6.4 51.44 51.44 0 0 1 1-6.48c.26-.84.37-1.72 1.24-1.9s-.91-.88-1.43-1.21-1.13-.59-1.24-.66.48 1.3.27 1.96z" fill="#5c211b"/><path d="M89.69 236s6.84 3 12.11 2.38 8.23-2 8.71-2.74.55.59.55.59a20.21 20.21 0 0 1-6 4.21 21.89 21.89 0 0 1-13 1.32 24.14 24.14 0 0 1-4.35-1.21s5.82 6.22 13.21 6.15 9.37-.48 9.62-.91-.37 1.9-.59 2.23-12.51 3.81-14.89 3.55-2.74-.55-2.74-.55a97.88 97.88 0 0 0 9.77-1.5c2.16-.66 6-1.79 6.33-2s-3.88.26-6.33.11a19.56 19.56 0 0 1-6.11-.84 27.08 27.08 0 0 1-5.74-2.67c-2.92-1.75-3.2-2.5-3.29-2.93a3.2 3.2 0 0 1 .37-2.12 20.82 20.82 0 0 0 16.46.73 14.79 14.79 0 0 0 3-1.39c-.07-.16-3.19 1-5.57 1a31.85 31.85 0 0 1-5.93-.4 28.46 28.46 0 0 1-4.9-1.35 4.59 4.59 0 0 0-2-.4c-.26 0 .44-2.23.44-2.23a2.5 2.5 0 0 0 .87.97z" fill="#5c211b"/><path d="M88.52 251.55a3.69 3.69 0 0 0-.88 2c-.18 1.28-.29 6.18-.26 7a11.75 11.75 0 0 0 .29 1.72c.13.95-1.34 3.21-2 5a9 9 0 0 0 0 6.09 6.43 6.43 0 0 0 1.59 2.42 8.47 8.47 0 0 0 4.48 1.88 13.27 13.27 0 0 0 2.53.3 15.86 15.86 0 0 0 3.76-.44 42.15 42.15 0 0 1 6.9-.37c4.25-.07 5.13.2 7.3-.37a8.33 8.33 0 0 0 3.51-1.46c3.31-2.69 2.53-8.08 2.41-8.87a12.18 12.18 0 0 0-2.58-5.87c-.65-.78-.68-.58-1.34-1.39-1.09-1.35-.94-2.6-2.89-5.67-.7-1.1-1.35-2.45-1.76-2.6s-.8.8-.8.8a11.46 11.46 0 0 1 2.41 4.17c.62 2.27.48 2.71 1 3.7s2.49 1.46 3.26 3.11 2.16 8 0 10.39a6.72 6.72 0 0 1-2.67 2 7.76 7.76 0 0 1-3.33.24c-1.89-.11-3.78.16-5.67.22-6.23.21-6.12 1-9.29.7-2.86-.27-5.37-.51-6.79-2.45-2.05-2.82-.26-7.11 0-7.68a7.12 7.12 0 0 1 1.53-2.3 5.7 5.7 0 0 1 1.07-.81c1.24-.77-.37-1.13-.37-1.13l-1 .11s-.15-3.37-.07-5 .29-3.55.8-4a3.15 3.15 0 0 1 1.5-1.06c.73-.15-1.54-1-1.54-1h-.33z" fill="#5c211b"/><path d="M92.1 262.08c1.83-.78 3.52-1.32 9.07-2a78.91 78.91 0 0 1 8.63-.55 9.67 9.67 0 0 1 3.55 1.1c.51.26-1.32-1.94-1.32-1.94s-7.54-.4-9.81-.37a35.12 35.12 0 0 0-10 2.16c-2.67 1.13-3.55 1.54-3.55 1.54l1.12 1.21a24.56 24.56 0 0 1 2.31-1.15z" fill="#5c211b"/><path d="M92.14 251.97a5.59 5.59 0 0 1 .29 3.11 12.61 12.61 0 0 0-.11 3.77 3.39 3.39 0 0 1 0 1.76.36.36 0 0 0-.05.29.62.62 0 0 0 .55.2l1.92-1.23a1.84 1.84 0 0 1-1-.49 2 2 0 0 1-.46-1.88c.34-1 2-1.09 7.72-1.39a42.44 42.44 0 0 1 8.27.4 6.45 6.45 0 0 1 2 1l.66.77a8.88 8.88 0 0 0-1.43-4.79 1.6 1.6 0 0 1-.35 1.23c-.75.81-2.28.08-6 0h-1c-1.5 0-6.57.23-8.51.88a1.25 1.25 0 0 1-1.05 0 .35.35 0 0 1-.08-.25c0-.51.15-2 .15-2s-.07-.55.88-.55-2.4-.83-2.4-.83z" fill="#5c211b"/><path d="M88.77 256.56a1 1 0 0 0 .26.8c.18.14.7 0 1.74-.33.49-.15 1.44-.44 1.56-.88a.11.11 0 0 1 0-.06 20.91 20.91 0 0 1 0 2.14.8.8 0 0 0-.22-.25.92.92 0 0 0-.55-.16 4.71 4.71 0 0 0-1.66.38 1.86 1.86 0 0 0-.79.37 2 2 0 0 0-.44.93.12.12 0 0 1 0 .06 5.65 5.65 0 0 1-.13-1.38c.07-.31.23-1.62.23-1.62zM98.4 253.67a2.64 2.64 0 0 1 .91.38 2.9 2.9 0 0 1 .88 1 9 9 0 0 1 1 2.52 1.49 1.49 0 0 1-.16.86.08.08 0 0 0 0 .06c0 .2 1.39.13 2.65 0a1.78 1.78 0 0 1-.86-.33 2 2 0 0 1-.59-.79 7.83 7.83 0 0 1-.86-2.67.82.82 0 0 1 .15-.71 3.07 3.07 0 0 0 .4-.26l.06-.05c-.03-.2-3.58-.01-3.58-.01zM104.8 253.23a3.5 3.5 0 0 1 1.1.57 4.07 4.07 0 0 1 1 1.26 25.83 25.83 0 0 1 1.24 2.34 1.13 1.13 0 0 1 0 1.1.14.14 0 0 0-.07.06 9.89 9.89 0 0 0 2.81.14 6.35 6.35 0 0 1-.8-.61 6.45 6.45 0 0 1-.77-.83 10.5 10.5 0 0 1-2.18-4 1.1 1.1 0 0 1 .16-.93s-1.27.43-2.49.9zM92.1 262.08s.4 0 .4.84 0 2.63-.07 3a19.93 19.93 0 0 0 .11 5.42c.44 1.83 1.48 3.76 1 4.45a1 1 0 0 1-.6.49 1.62 1.62 0 0 0-.59 0 .39.39 0 0 0-.05.42c.56 1.14 5.06-.41 3.81-.2a6.15 6.15 0 0 1-1.35-1.87c-.22-.77-1.76-5.31-1.32-7.61a17.48 17.48 0 0 1 1-4.79 1.91 1.91 0 0 1 .55-.88 2.53 2.53 0 0 1 .93-.46 6.08 6.08 0 0 1 .7-.15c0-.08-2.67-.61-4 .71a2.5 2.5 0 0 0-.52.63z" fill="#5c211b"/><path d="M89.07 263.61a3.12 3.12 0 0 0 3 1.55c1.38-.05 2.77.16 4.15.09 3.76-.18 3 0 6-.18 3.34-.2 2.85-.34 5.52-.46 1.41-.06 2.81-.32 4.23-.37a8.12 8.12 0 0 0 2.49-.59 1.82 1.82 0 0 0 1.13-.9 2.6 2.6 0 0 0 0-.86 6.85 6.85 0 0 1 .75 2.73.24.24 0 0 1-.07.2 6.23 6.23 0 0 1-1-.16c-.51 0-8.89 1.46-10.94 1.61s-7.35 0-8.63 0-5.85-.33-6-.37a2.61 2.61 0 0 0-1.54.11 2 2 0 0 0-.6.38c-.53.5-.52 1.11-.71 1.12a1.08 1.08 0 0 1-.42-.88c-.08-1.36 2.1-2.66 2.64-3.02z" fill="#5c211b"/><path d="M86.98 268.69a3 3 0 0 0 1.06 1.61c.66.26 9.44 1.54 13.87 1.17 4.16-.34 8.27-1.2 12.44-1.43.32 0 1.57-.07 2-.8a3.94 3.94 0 0 0 .24-.88c.19-.88.17-1.19.22-1.19a13 13 0 0 1 0 4.15 1.5 1.5 0 0 1-.29.9 2 2 0 0 1-.37-.6c-.52-.68-2-.38-2.27-.33-3 .59-6 .67-9 1.17a34.1 34.1 0 0 1-11.6-.11 51.1 51.1 0 0 0-5.27-.33 1.35 1.35 0 0 0-.7 1 1.86 1.86 0 0 0 .55 1.61 11 11 0 0 1-1.24-3.66 8.13 8.13 0 0 1 .46-4.1 6.28 6.28 0 0 1-.1 1.82z" fill="#5c211b"/><path d="M100.67 260.07s1.72.18 2.09 1.06c.53 1.28.57 1.9 1 4.72.26 1.71.58 5.61.64 7.3a4.64 4.64 0 0 1 0 .68 2.72 2.72 0 0 1-.45 1.43 3.69 3.69 0 0 1-.91.6c0 .34 4.22.19 4.26-.31a3.43 3.43 0 0 0-.59-.53 2.55 2.55 0 0 1-.57-1.26 42 42 0 0 1-.49-4.77 15.14 15.14 0 0 0-.33-2.73c-.47-2-1.57-4.37-1.32-5.4a2.08 2.08 0 0 1 .59-1.15.33.33 0 0 0 .18-.18 2.69 2.69 0 0 0-1.5-.19 6.15 6.15 0 0 0-2.6.73zM109.61 259.45a5.86 5.86 0 0 1 2.63 2.23c1.2 1.61 1.33 3.29 1.5 5.12a19.55 19.55 0 0 1-.37 5s-.55 3.7-1.54 4h-.1a7.86 7.86 0 0 0 2.18-.82c.4-.44 1.06-3.77 1.24-5.56s.07-5.45-.33-6.15a14.87 14.87 0 0 0-2-2.71 7.2 7.2 0 0 0-1-1 19.92 19.92 0 0 0-2.21-.11zM58.99 235.9a8.85 8.85 0 0 0-2 3.24 35.7 35.7 0 0 1-2.36 5.65c-.82 1.48-2.31 3.13-2.58 3.68s-.82 1.65-.88 1.81a14.38 14.38 0 0 1-5.21 2.85c-2.52.66-6.31 1.76-8.07 1.15a30.36 30.36 0 0 1-5.43-2.91 15 15 0 0 1-2.2-2.25 13.57 13.57 0 0 1-1.32-4c-.22-1.87 1-6.59 1.59-7.74s2.47-5.38 2.63-5.82a8.31 8.31 0 0 0 .55-2.36c0-.77 1.1 2 1.21 2.14s-3 5.43-3.4 6.64-2 5.38-1.32 8 4.83 5.1 5.16 5.43 5.76 3.35 10.7.55 6.81-5.6 7.35-6.92a71.83 71.83 0 0 0 2.47-7.3 1.78 1.78 0 0 0-1-1.37 36.88 36.88 0 0 1 4.11-.47z" fill="#5c211b"/><path d="M34.61 234.53a12.13 12.13 0 0 0 7.46 7.1c1.42.49 3.34.48 7.17.48a7.07 7.07 0 0 0 3.73-.73 5.22 5.22 0 0 0 1.39-1.13 6.68 6.68 0 0 0 1-1.79c.8-1.78.86-2.47 1-2.45s.87 3.29-.91 5.34a5.49 5.49 0 0 1-2.27 1.43 14.27 14.27 0 0 1-6.55.84c-3.51-.26-6.61-.49-9.4-2.82-1.65-1.37-2.29-2.77-3.46-5.1a3.53 3.53 0 0 1-.33-2.41 3.11 3.11 0 0 1 .55-.6s.36.92.62 1.84z" fill="#5c211b"/><path d="M54.67 242.51a15.89 15.89 0 0 1-9.35 4c-.37 0-6.15.35-10.48-3.13a14.36 14.36 0 0 1-3.62-4.34l-.71-1.59a6.11 6.11 0 0 0-.05 3.18c1 3.59 5.37 5.33 7.3 6.09.6.24 1.09.39 1.43.49a17.69 17.69 0 0 0 6.57.68c.52 0 8-.83 8.85-4.43a3.06 3.06 0 0 0 .06-.95z" fill="#5c211b"/><path d="M30.05 241.41a.93.93 0 0 1 .26-.62 1.82 1.82 0 0 1 .33 1 15.79 15.79 0 0 0 2.71 5.93 13.89 13.89 0 0 0 7.87 4.28c4 .55 7.58-1.42 7.61-1.32s-2.35 1.11-2.8 1.83a1.07 1.07 0 0 1-.26.29 1.62 1.62 0 0 1-.9.26l-1 .11a13.76 13.76 0 0 1-3.7-.11 11.39 11.39 0 0 1-8.67-6 16.94 16.94 0 0 1-1.41-3.27l-.33-1.15z" fill="#5c211b"/><path d="M13.77 257.75a16.65 16.65 0 0 1 4.45-3.07 12.13 12.13 0 0 1 11.44-.38 28.15 28.15 0 0 1 5.3 3.29c.73.52 1.48 1.09 2.28 1.76a5.4 5.4 0 0 1 .8.82 6.07 6.07 0 0 0-1.37-2.31 26.3 26.3 0 0 0-5-3.9 41.38 41.38 0 0 0-4.94-1.59 16.62 16.62 0 0 0-6.7.49c-2.91.71-4.84 1.19-6.59 3-.2.2-3.51 3.11-2.69 7.08.66 3.18 1.32 5.16 3.57 7.68s4 4.12 9.17 5 8.34-.16 9.71-.88 7.19-4.88 9-5.82c1.1-.57 3.42-1.84 7.3-4 2.59-1.45 3.89-2.2 4.63-3.82a8.65 8.65 0 0 0 .42-4.63 7.65 7.65 0 0 0-1.26-4.28c-.88-1.15-2.09-2.58-2.09-2.58l-2.2 1.92a7.55 7.55 0 0 1 3.35 3.51 6.52 6.52 0 0 1 .38 4.81 5.64 5.64 0 0 1-1.28 2c-2.62 2.74-6.85 4.3-8.16 4.81-6.67 2.62-5.81 4.11-11 6.75-2.69 1.37-9 .71-11-.05s-5.82-2.41-6.86-5.21c-.49-1.32-2.33-3.46-2-6.53a8.64 8.64 0 0 1 1.34-3.87z" fill="#5c211b"/><path d="M27.49 251.11a5 5 0 0 0 1.81-2.14c.05-.14.44-1.43.44-1.43l1.1 2c-.31.25-.78.64-1.32 1.15-1.35 1.27-1.57 1.77-2.36 2.09-1.08.43-2.31.17-2.36-.11s1.18-.38 2.69-1.56z" fill="#5c211b"/><path d="M70.05 98.84a5.78 5.78 0 0 0 1.36 1.56c.69.44 2.94 1.47 2.94 1.47v1.31l-2.15-1.25s-.43-.1-.35.28-1.93-3.54-1.93-3.54z" fill="#5c211a"/><path d="M32.04 250.45c-.71 1-2.52 1.54-3 2.09s-.88.82.88 1.21 3.29-2.52 3.29-2.52zM36.71 253.08a8.33 8.33 0 0 1-1.54 2.52c-.71.77-1.54.55-1 .93a12.65 12.65 0 0 0 1.43.88s2.41-2.74 2.2-3.62a.89.89 0 0 0-1.09-.71zM22.49 252.92a5.75 5.75 0 0 0 2.12 3.69 5.83 5.83 0 0 0 2.28 1 12.08 12.08 0 0 0 4.12.05c1.71-.14 3.13-.26 4.14-.36l1.81 1.4a45.2 45.2 0 0 1-9.08 0s-5.09-.54-6.37-2.47a6.21 6.21 0 0 1-.58-1.34 1.39 1.39 0 0 1-.05-1.23.79.79 0 0 1 .36-.27z" fill="#5c211b"/><path d="M14.26 256.92s0 .08-.09.23a4.81 4.81 0 0 0 0 3.23 5 5 0 0 0 .92 1.43c1.11 1.18 4.92 3.62 12.07 3.57a34.86 34.86 0 0 0 8.89-1.32 41.13 41.13 0 0 0 7.57-2.74 28.47 28.47 0 0 0 5.6-3.62 5.76 5.76 0 0 0 1.76-2.31 3.31 3.31 0 0 0 .22-2.36c-.38-.82 1.65 1.92 1.81 3.07s.22 2.25.22 2.25-.16-1.81-1.59-.71c-.87.67-1.88 1.83-3.67 3.09a21.94 21.94 0 0 1-4.51 2.45 50.57 50.57 0 0 1-16.14 3.62c-5.58.22-8-.66-8.84-1a11 11 0 0 1-4.5-2.69c-1.08-1.17-1.76-2.58-2.31-2.41a1.3 1.3 0 0 0-.44 1.15 11.28 11.28 0 0 1 1.59-3.46 8.71 8.71 0 0 1 1.44-1.47z" fill="#5c211b"/><path d="M47.03 252.48a16.42 16.42 0 0 1 3 3.35 5 5 0 0 1 .66 4.39c-.6 2-.88 3.13-1.65 3.62s3.29-.49 3.35-1 .27-.6-.16-3-.82-4.67-1.43-5.38-2.09-2.52-2.63-2.58a2.73 2.73 0 0 0-1.37.55zM43.61 253.41a2.71 2.71 0 0 0-.6 1.76 31.82 31.82 0 0 1 1.32 4.67 22.17 22.17 0 0 1-.11 5.16 1.9 1.9 0 0 0 .07 1.12v.07a.6.6 0 0 1 0 .48.41.41 0 0 1-.15.15 11.6 11.6 0 0 1-1.88 1.32c-.16.08-1.65.71-1.65.71s1.92-2 2.09-3.73.33-7.85-.33-8.89-1.15-1.87-2.14-2a.21.21 0 0 1-.15-.06 15.09 15.09 0 0 1 3.53-.76z" fill="#5c211b"/><path d="M35.94 257.36a10.23 10.23 0 0 0 3.4-.82c1.43-.71 1.87-.93 2-1.76s.82.66 1.1 1a4.61 4.61 0 0 1 .38 1.59 2.24 2.24 0 0 0-1.81-.22 8.37 8.37 0 0 1-3.24 1.1c-1.1 0-1.26.22-1.59-.16a1 1 0 0 1-.24-.73zM34.61 256.95a9.53 9.53 0 0 0-10 3 12.8 12.8 0 0 0-2.14 8.18c.07.48.44 4.15 2.31 5.16a8.79 8.79 0 0 0 1.81.69 9.18 9.18 0 0 0 1.65.27c.3.13.36.22.36.27 0 .35-2.76.5-5.3 0a14.53 14.53 0 0 1-2.52-.77 2.63 2.63 0 0 0 .47-.75 3.29 3.29 0 0 0 0-2.16 17.92 17.92 0 0 1 .16-8 10 10 0 0 1 5.82-6 25.31 25.31 0 0 0 4.17-1.54 1.44 1.44 0 0 0 .22-.93 6.12 6.12 0 0 1 2.2 1.48 6 6 0 0 1 .79 1.1z" fill="#5c211b"/><path d="M23.37 252.97a5 5 0 0 1-1.21 1.1c-.55.27-4.72 2.69-6 4.28s-2.41 3.24-2.41 4.39-.16 3-.16 3.62a5.39 5.39 0 0 0 2.09 4.12 1.15 1.15 0 0 0 .63.33 2.38 2.38 0 0 0-.49-1.07 10.32 10.32 0 0 1-1.13-5.68 9.62 9.62 0 0 1 3.07-6.2 26.08 26.08 0 0 1 5.16-3.13 18.32 18.32 0 0 1 4.61-1.15 3.82 3.82 0 0 0 1.43-.22z" fill="#5c211b"/><path d="M81 82.4c6.51-12.23 11.91-17 15.75-19 1-.5 8.17-4.17 8.18-4.17l-2.41 3.57a33.23 33.23 0 0 0-4.53 2.43 35.37 35.37 0 0 0-5.19 4.1 116.3 116.3 0 0 0-9.29 9.77z" fill="#5c211a"/><rect x="75.1" y="62.58" width="354.79" height="217.81" rx="31.18" ry="31.18" fill="#fff" stroke="#5b201a" stroke-miterlimit="10" stroke-width="2"/><path d="M72.88 128.69s6.84 2.23 7.59 4.11a10.5 10.5 0 0 0 1.41 2.68s-3.5 4.87-3.84 6-1.36 2.27-1.25 7.33a21.56 21.56 0 0 0 2.08 8.79l-3.25-.68-4.64-1.69z" fill="#fff"/><path d="M153.24 60.15s.77-2.41 1.32-2.31a2.89 2.89 0 0 1 2 1.65.42.42 0 0 0 .15.27c.39.25 1.28-.64 2-1.12a5.67 5.67 0 0 1 3.75-.7l3.29.88a1.49 1.49 0 0 1 .86-.21 1.81 1.81 0 0 1 1.13.64 11.47 11.47 0 0 1 1.56 2 13.25 13.25 0 0 1 1.31 2 5.38 5.38 0 0 1 .33 2.42c-.22 2.74-2.31 6-3.18 5.93a20.49 20.49 0 0 1-2.06-.41l-1.89.3-1-.66-1.32.77-2.09-2.09a2.37 2.37 0 0 0-1.62 0c-.8.33-1.18-1.43-1-2.31s.41-4.39.41-4.39l-4.5-2.69z" fill="#f4dbc1"/><path d="M154.23 61.4c-.15-1.54 0-2.72.42-2.89a1.21 1.21 0 0 1 .38-.09 1.46 1.46 0 0 1 1.34 1.29c.19.55.41 1.1.41 1.1s.36 2.69.38 3.29a17.79 17.79 0 0 1-.25 2.66 10.72 10.72 0 0 0-.19 2.22 1.22 1.22 0 0 0 .8.88 2.75 2.75 0 0 0 1.62-.16 8.33 8.33 0 0 0 1.47-2.09 12.55 12.55 0 0 0 .55-4.09c-.11-1.32-.05-4.34-.05-4.34s-.05-1.54-.44-1.62a4.51 4.51 0 0 0-2 .16 2.37 2.37 0 0 0-1.26 1.21 4.93 4.93 0 0 0 .3 1.51c.08 0 .69-1.67 1.34-1.59s1.18.36 1.18 1.84.44 3.87.14 5a7.57 7.57 0 0 1-1.1 2.72 1.33 1.33 0 0 1-1.37.63c-.41-.16-.38-.77-.27-2.63s.22-5.43.22-5.6a10.42 10.42 0 0 0-1.07-2.91 2 2 0 0 0-1.84-.91 2.62 2.62 0 0 0-1.73 1.34c-.55.93-.81 2.45-.11 2.95a1.26 1.26 0 0 0 1.13.12z" fill="#5c211b"/><path d="M162.61 58.3c.54-.08.91.19 1.43 1.37a10.34 10.34 0 0 1 .38 4.28 27.63 27.63 0 0 1-1.1 4.72c-.44 1-.52 1.34-1 1.56s-.52.49-1 .22a3.35 3.35 0 0 1-1.13-1.84 1.46 1.46 0 0 0-.05-.77 11.08 11.08 0 0 0-.69 1.21 7.48 7.48 0 0 0 .6 1.67 1.34 1.34 0 0 0 1.29.8 2.94 2.94 0 0 0 2.14-1.23 26 26 0 0 0 1-3.13 30.11 30.11 0 0 0 .66-4c-.05-1 .3-4.39.3-4.39a7.47 7.47 0 0 0-1-1.4 4.16 4.16 0 0 0-1.43-.49 2.17 2.17 0 0 0-1.37.14 2 2 0 0 0-1.07.66 9.86 9.86 0 0 0 .27 2.25c.18.13.64-1.46 1.77-1.63z" fill="#5c211b"/><path d="M165.61 57.7a3.34 3.34 0 0 1 2.28.74 2.27 2.27 0 0 1 1 1.37 8.35 8.35 0 0 1-.41 3.68c-.49 1.81-1.26 4.94-1.43 5.54a3.43 3.43 0 0 1-1.23 1.7 3 3 0 0 1-1.95.74 1.39 1.39 0 0 1-.93-.55s-.22-1.07.44-.85 1.56.49 2.09 0 1.78-4.34 1.95-6 .6-4.09.19-4.5a1.08 1.08 0 0 0-1.29-.41c-.41.25-.8-.05-.82.91s-.52 1.84-.55 1.43-.58-3.7-.47-3.79.9.04 1.13-.01z" fill="#5c211b"/><path d="M169.94 60.09a4 4 0 0 1 1.48 2.72 9.35 9.35 0 0 1-1.29 6.83 4.26 4.26 0 0 1-2.25 1.92c-.28.09-1.55.56-1.81-.14-.19-.52-.44-1.13-.16-1.26s.85-.47.88-.25a1.32 1.32 0 0 0-.05.55.74.74 0 0 0 .57.22 2.7 2.7 0 0 0 1.76-1 7.24 7.24 0 0 0 1.56-6.26c0-.1-.27-.54-.74-1.43a1.62 1.62 0 0 0-.64-.66.6.6 0 0 0-.26 0c-.38 0-.49 0-.55-.77a.73.73 0 0 1 .38-.88 2.84 2.84 0 0 1 1.12.41z" fill="#5c211b"/><ellipse cx="86.97" cy="138.52" rx="4.59" ry="4.21" fill="#e54411"/><path d="M99.33 142.05s3.35-.16 4.77-.93 4.61-2.2 4.61-2.2 1.21-.88 1.21 1.1a5.29 5.29 0 0 1-2.63 4.17c-.77.22-.88.66 1.1 1.21a50.55 50.55 0 0 0 6.22 1.21c1.1.11 3.07-.55 3.07 0a5.59 5.59 0 0 0 .55 2.41 1.71 1.71 0 0 1 .11 1.65 6.9 6.9 0 0 1-1.32 1.54 1.16 1.16 0 0 1-.11 1.21 14.56 14.56 0 0 1-6.15 3c-2 .22-5.49.88-7.13.22a61 61 0 0 0-5.82-2 3.57 3.57 0 0 1-1.76-1.32 22.4 22.4 0 0 1 0-5.6c.44-2.2 1.43-4.94 2-5.16z" fill="#f4dbc1"/><path d="M47.25 93.61a8.33 8.33 0 0 1-1.21 3c-.71 1-6.37 4-8.07 7s-6 10.48-4.72 16 9.28 13.61 9.55 14.32 4.74 14.34 4.63 16.65-.07 11.6-.07 12.7a72.66 72.66 0 0 1-1.83 11.78c-1 3.29-4.68 10.24-4.68 10.35s-1 .62.88 2.38 5.93 5.42 18.29 7.65a97.25 97.25 0 0 0 14.75 1.27c.69-.42.61-1 0-1.81a99 99 0 0 1-12.45-1.07c-8.85-1.61-18.48-5.34-19.17-6.7s-.88-1.39.33-4 3.81-8.23 4-9.29.77-5.34.8-6.88c.2-8.26 1.06-12.38.88-13.57a73.23 73.23 0 0 0-2.36-10.26 8.07 8.07 0 0 1-.6-3.49c0-.24 0-.44.05-.57a40.89 40.89 0 0 0 9.6 9.68 46.28 46.28 0 0 0 5.21 3.16 62.59 62.59 0 0 0 9.93 4c1.91.64 3.51 1.4 7.06 2.34a21.38 21.38 0 0 1 2.45.88l-1.13-2.82s-19.47-5.71-24.22-9.66-10.94-14.04-10.94-14.04a75.11 75.11 0 0 1-6.29-6.84c-1.9-2.6-3.88-5.89-3.51-9.51s3.51-10.65 4.87-12.07 7.46-6.37 8.16-6.88a9.65 9.65 0 0 0 1.83-2.56c.15-.33 1.46-1.87 1.54-2-.03-.06-1.63.37-3.56.86z" fill="#5c211a"/><path d="M53.21 107.31c-.43.41 1.5 2.69 4.19 7.35 1.67 2.88 1.2 2.49 2.52 4.67 2.32 3.82 3.78 5.09 3.29 6.37-.22.57-.88 1.31-3.13 1.66a3.42 3.42 0 0 0-1.39.44c0 .24 2.63.06 5.12.15a31.07 31.07 0 0 1 9.66 1.76c2.47.91 7 2.59 7.35 5.6a3.77 3.77 0 0 1-.38 2l2.4-3.09a16.89 16.89 0 0 0-6.07-4.9c-.28-.13-1.71-.68-3.67-1.58l-1.49-.69c-3-1.37-3.81-1.35-5-2s-.69-.78-4.85-6.88a9.56 9.56 0 0 1-1.76-4.18 7.8 7.8 0 0 1-.07-1.09c0-1.32-1-7.1-1-7.76s-.44 1.9-.59 3.29-.15 2-.51 2.34-2-1.9-2.78-2.78c-.17-.13-1.53-.97-1.84-.68z" fill="#5c211a"/><path d="M94.49 137.89a18.8 18.8 0 0 1 2.3-.53 36.68 36.68 0 0 1 3.25 2.3s-2.63-.1-2.73-.16-.92-1-.92-1l-2.2 1-2.1-.3.73-.41z" fill="#5c211b" opacity=".32"/><path d="M86.06 139.85s2.21-3.56 4.18-4.39 3.68-1.17 5.44-.46a12.93 12.93 0 0 1 3.84 2.78 3.53 3.53 0 0 1 .92 2.18 10.39 10.39 0 0 0 1.29.92c.35 0 .45-1.77-.32-3.08a7.62 7.62 0 0 0-1.29-1.48c-.44-.43-.83-.77-1.1-1a11.62 11.62 0 0 0-5.52-3.21c-2.06-.5-3.68-.29-6.36.21a23.73 23.73 0 0 0-3.79 1.22 9.34 9.34 0 0 0-2.27 2.07 18.08 18.08 0 0 0-3.34 5 17.16 17.16 0 0 0-1.4 6.15c0 .85 0 .19.35 5.39.08 1.36.4 2.27.53 3.61a6.35 6.35 0 0 0 4 4.47c1.44.38 2.3.66 2.3.66l.54-1.2s-1.33-3.08-1.54-3.31a11.7 11.7 0 0 1-.76-1.31s-.69-.94-.21.9a18.35 18.35 0 0 0 1 3.17 8.22 8.22 0 0 1-2.94-2.39 8.4 8.4 0 0 1-1-1.9 14.31 14.31 0 0 1-.91-2.93 19 19 0 0 1-.36-2.8 21.65 21.65 0 0 1 .05-2.94 14.29 14.29 0 0 1 .3-2.22 11.35 11.35 0 0 1 1.4-3.21 21.46 21.46 0 0 1 2.74-4.24 9.13 9.13 0 0 1 5-2.6 29.85 29.85 0 0 1 4-.34 5.82 5.82 0 0 0 1.22 0s-3.12 1.47-3.77 1.88a5.76 5.76 0 0 0-2.57 2.94 29.28 29.28 0 0 0-1.29 4.55c-.02.45 1.08-2.7 1.64-3.09z" fill="#5c211b"/><path d="M89.69 147.06s.71-3.72 1.75-4.78 1.1-1.68 3.1-1.86a13.81 13.81 0 0 1 5.33.32l.41.17s-2.54 1.07-3.32 2.57a17.4 17.4 0 0 0-1.88 7.83c.21 2.73.44 4.5.86 5h-5.27l1.19 1.84a1.42 1.42 0 0 1 .94-.51 2.63 2.63 0 0 1 1.45.13 15.21 15.21 0 0 1-1.08 3.31.81.81 0 0 1-.85.43 5.51 5.51 0 0 1-.8-1.28l-1.36.39s.44.6.62.78-1.65.62-1.91.62a12.5 12.5 0 0 1-2.5-.23 3.58 3.58 0 0 1-2-1.38 5.75 5.75 0 0 1-.41-.76l-.54 1.2s1.21 1.3 1.57 1.58a.74.74 0 0 0 .5.24v.09a13.35 13.35 0 0 0 4.87.44c2.62-.28 3.65-.48 4.73-2.41s.8-2.37 1.38-2.8a2.17 2.17 0 0 1 1.19-.44 32.31 32.31 0 0 1-1.17-5.15 21.5 21.5 0 0 1 1.1-6.94c.69-1.4 1.08-2.5 2.76-3.42s1.31-1.17 1.31-1.17-2-1.45-2.09-1.52-2.25-.14-2.6-.14-4.59-.16-4.85 0a15.22 15.22 0 0 0-3.19 5.26 21.72 21.72 0 0 0-1.42 9.26c.32 3.65.85 4.25 1.29 5.08a24.31 24.31 0 0 0 1.47 2.23l1.38-.55a4.1 4.1 0 0 1-.16-1.65 2.41 2.41 0 0 1 .48-.67 11.21 11.21 0 0 1-1.68-2.62 25.13 25.13 0 0 1-.71-4.46c.03-1.48.11-4.03.11-4.03z" fill="#5c211b"/><path d="M94.61 139.28c.12 0 1.74-.79 1.74-.79a6.19 6.19 0 0 0 .92 1c.1 0 2.32-.13 2.32-.13a13.81 13.81 0 0 0-2.84-2 11.29 11.29 0 0 0-4.12 1.51c-.64.49-.44.23-.44.23zM97.73 157.61s.94-1.6 1.8-1.57 5.24 1.29 6.28 1.34 5.49-.41 6.67-1 4.09-1.95 4.5-2.5a4.1 4.1 0 0 0 .91-1.62c0-.33-.41-.22-.41-.22l-1 .71a1.32 1.32 0 0 1-.22 1 11.5 11.5 0 0 1-4 2.11 27.89 27.89 0 0 1-6.56.55c-1.54-.16-4.75-.55-5.82-1.51s-3.16-1.84-3.32-2.25a11.81 11.81 0 0 0 .3 3.18 7.23 7.23 0 0 0 .87 1.78z" fill="#5c211b"/><path d="M100.61 141.94a32.1 32.1 0 0 0 3.18-.6c1-.3 3.73-.85 4.23-1.29a2.33 2.33 0 0 1 1.13-.82 1.3 1.3 0 0 1 .55 1.54 2.71 2.71 0 0 1-1.32 1.87 16.77 16.77 0 0 1-2.55 1.45c-.41.08-1.26.05-1.29.49s1.26.71 1.89.8 1.65.69 2.63.85 2.77.3 3.59.41a32.62 32.62 0 0 0 3.57.08 3.24 3.24 0 0 1 1-.16c.14.14.58.44-.41.91a7.7 7.7 0 0 1-3.29 1 21.82 21.82 0 0 1-3.38-.71c-.69-.16-.88.08-.58.3s.69.52.49.8a7 7 0 0 1-.47.58 6.23 6.23 0 0 1 1.65-.38 22.84 22.84 0 0 1 3 .16 3.43 3.43 0 0 0 2.2-.55c.36-.44.88-.88 1.07-.47s.52.44.25.82a13.13 13.13 0 0 1-2.69 1.26 14.73 14.73 0 0 1-3.87.8 2.63 2.63 0 0 1-1.21-.25c-.19-.08-.8.25-.41.58s.36.74.77.63 2.61-.58 3.27-.66a9.23 9.23 0 0 0 2.17-.41 8.8 8.8 0 0 0 1.65-.85 2.57 2.57 0 0 1 .49-.55s.44.11.25.77-.63.71-1.21 1.21a9.83 9.83 0 0 1-2.85 1.48c-.49.05-2.5.38-2.66.38s-1.13.08-1.34.05-.82-.19-.82-.19a3.87 3.87 0 0 1 .52 1 8.6 8.6 0 0 0 2.39-.25c.91-.14 3.24-.71 3.57-.8a2 2 0 0 0 .71-.47l1.26-.69a2.59 2.59 0 0 0 .8-.93c.05-.36.22-1 .22-1.34a4.52 4.52 0 0 0-.3-1.56 1.6 1.6 0 0 1-.25-.69 1.15 1.15 0 0 0-.08-.93 1.41 1.41 0 0 0-1.73-.58c-1.15.27-5.41-.71-6.64-1s-1.92-.11-2.11-.41 2.28-.77 2.36-1.48 1-3 .44-3.87a1.3 1.3 0 0 0-1.67-.74 13.06 13.06 0 0 1-2.25 1.21 25.78 25.78 0 0 1-4.2 1.45 1 1 0 0 1-.8-.77c-.11-.53-.92 1.52-.92 1.52z" fill="#5c211b"/></svg>