<svg xmlns="http://www.w3.org/2000/svg" width="46.75" height="47.83" viewBox="0 0 46.75 47.83"><title>Санузел</title><g data-name="Слой 2"><g data-name="Слой 1"><path d="M45 27a.3.3 0 0 1 .3.3v1.25a.42.42 0 0 1 0 .09v.15c-.45 2.06-4.05 4.29-9.1 4.29s-8.77-2.21-9.2-4.27v-.14a.39.39 0 0 1 0-.1v-1.25a.3.3 0 0 1 .3-.3H45m0-1.5H27.21a1.8 1.8 0 0 0-1.8 1.8v1.25a1.8 1.8 0 0 0 .09.55c.67 3.08 5.14 5.47 10.57 5.47s9.9-2.39 10.57-5.47a1.78 1.78 0 0 0 .1-.55v-1.25a1.8 1.8 0 0 0-1.8-1.8z" fill="#682f24"/><path d="M45.43 25.75v-.55a1.32 1.32 0 0 0-1.32-1.32H28.06a1.32 1.32 0 0 0-1.32 1.32v.55M46.53 27.56a54.61 54.61 0 0 1-10.45.94 54.59 54.59 0 0 1-10.45-.94" fill="none" stroke="#682f24" stroke-linejoin="round"/><path d="M36.08 23.88v-6.42a2 2 0 1 0-4 0v1.41" fill="none" stroke="#682f24" stroke-linejoin="round" stroke-width="1.5"/><path d="M41.41 22a.73.73 0 0 1-.73.73h-2.15a.73.73 0 0 1-.73-.73.73.73 0 0 1 .73-.73h2.15a.73.73 0 0 1 .73.73z" fill="none" stroke="#682f24" stroke-linejoin="round"/><path fill="none" stroke="#682f24" stroke-linejoin="round" stroke-width="2" d="M39.6 23.88v-1.19"/><path d="M34.1 22a.73.73 0 0 1-.73.73h-2.15a.73.73 0 0 1-.73-.73.73.73 0 0 1 .73-.73h2.15a.73.73 0 0 1 .73.73z" fill="none" stroke="#682f24" stroke-linejoin="round"/><path fill="none" stroke="#682f24" stroke-linejoin="round" stroke-width="2" d="M32.3 23.88v-1.19"/><path d="M39.16 34L40 45.76a1.32 1.32 0 0 1-1.32 1.32h-5.24a1.32 1.32 0 0 1-1.32-1.32L33 34" fill="none" stroke="#682f24" stroke-linejoin="round" stroke-width="1.5"/><path d="M.75 44V3.67A2.92 2.92 0 0 1 3.67.75h16.95a2.92 2.92 0 0 1 2.92 2.92V44" fill="none" stroke="#682f24" stroke-linejoin="round" stroke-width="1.5" fill-rule="evenodd"/><path d="M23.54 43.62a2.92 2.92 0 0 1-2.92 2.92H3.67a2.92 2.92 0 0 1-2.92-2.92" fill="none" stroke="#682f24" stroke-linejoin="round" stroke-width="1.5" fill-rule="evenodd"/><path fill="none" stroke="#682f24" stroke-linejoin="round" d="M18.42.81v42.81"/><path d="M14.85 11.75a5.14 5.14 0 0 0-10.29 0M9.7 6.61V.81M3.68 11.75h12.04" fill="none" stroke="#682f24" stroke-linejoin="round" stroke-width="1.5"/><path d="M11.25 18.89a1.55 1.55 0 0 1-3.11 0c0-.86 1.55-3 1.55-3s1.56 2.11 1.56 3zM15.72 22.28a1.55 1.55 0 1 1-3.11 0c0-.86 1.55-3 1.55-3s1.56 2.15 1.56 3zM6.79 22.28a1.55 1.55 0 1 1-3.11 0c0-.86 1.55-3 1.55-3s1.56 2.15 1.56 3zM.75 43.62h22.79" fill="none" stroke="#682f24" stroke-linejoin="round"/><rect x="26.13" y=".81" width="18.59" height="18.87" rx="1.72" ry="1.72" fill="none" stroke="#682f24" stroke-linejoin="round"/></g></g></svg>