<svg xmlns="http://www.w3.org/2000/svg" width="180.06" height="16" viewBox="0 0 180.06 16"><path fill="none" d="M0 16V0h180.06v16z"/><path fill="none" stroke="#353535" stroke-linecap="round" stroke-miterlimit="10" d="M157.62 11.53L161.34 8l3.72-3.53L168.78 8l3.72 3.53"/><path fill="none" stroke="#353535" stroke-linecap="round" stroke-miterlimit="10" opacity=".5" d="M127.62 11.53L131.34 8l3.72-3.53L138.78 8l3.72 3.53"/><path fill="none" stroke="#fff" stroke-linecap="round" stroke-miterlimit="10" d="M97.62 11.53L101.34 8l3.72-3.53L108.78 8l3.72 3.53"/><path fill="none" stroke="#353535" stroke-linecap="round" stroke-miterlimit="10" d="M22.05 4.68l-3.5 3.33-3.5 3.31-3.5-3.31-3.5-3.33"/><path fill="none" stroke="#353535" stroke-linecap="round" stroke-miterlimit="10" opacity=".5" d="M52.49 4.47l-3.72 3.54-3.72 3.52-3.72-3.52-3.72-3.54"/><path fill="none" stroke="#fff" stroke-linecap="round" stroke-miterlimit="10" d="M82.49 4.47l-3.72 3.54-3.72 3.52-3.72-3.52-3.72-3.54"/></svg>