<svg xmlns="http://www.w3.org/2000/svg" width="55" height="55" viewBox="0 0 55 55"><title>9 лет опыта</title><g data-name="Слой 2"><g data-name="Слой 1"><path fill="none" d="M0 0h55v55H0z"/><path d="M12.79 8.36H9.64a2.25 2.25 0 0 0-2.38 2.08V47a2.25 2.25 0 0 0 2.38 2.08h35.79A2.25 2.25 0 0 0 47.81 47V10.44a2.25 2.25 0 0 0-2.38-2.08h-4.12M15.86 8.36h22.39M38.42 8.48H16.13" fill="none" stroke="#fd8204" stroke-miterlimit="10" stroke-width="1.2"/><path d="M12.61 8.48h-2.49a2.83 2.83 0 0 0-2.82 2.84v5.87h40.47v-5.87a2.83 2.83 0 0 0-2.83-2.83h-3.13" fill="none" stroke="#fd8204" stroke-miterlimit="10" stroke-width="1.2"/><rect x="13.37" y="25.36" width="28.33" height="1.83" rx=".92" ry=".92" fill="#fd8204"/><rect x="13.37" y="29.86" width="28.33" height="1.83" rx=".92" ry=".92" fill="#fd8204"/><rect x="13.37" y="34.36" width="28.33" height="1.83" rx=".92" ry=".92" fill="#fd8204"/><rect x="13.37" y="38.86" width="28.33" height="1.83" rx=".92" ry=".92" fill="#fd8204"/><path d="M16 12.09a1.67 1.67 0 0 1-1.67 1.67 1.67 1.67 0 0 1-1.67-1.67V7.54a1.67 1.67 0 0 1 1.67-1.67A1.67 1.67 0 0 1 16 7.54zM41.5 12.09a1.67 1.67 0 0 1-1.67 1.67 1.67 1.67 0 0 1-1.67-1.67V7.54a1.67 1.67 0 0 1 1.67-1.67 1.67 1.67 0 0 1 1.67 1.67z" fill="none" stroke="#fd8204" stroke-linecap="round" stroke-linejoin="round" stroke-width="1.2"/></g></g></svg>