<svg xmlns="http://www.w3.org/2000/svg" width="300" height="186" viewBox="0 0 300 186"><path fill="none" d="M0 0h300v186H0z"/><path d="M261.73 80.43S285.37 94.37 287.94 99s1.17 33.5.6 40.65c-.46 5.75.42 7.25-7.42 7.29-4.73 0-7.7-.5-14.4-.5-7.19-32.77-41.44-31.4-52.35-.52-39.38-.12-84.94.28-123.76.3 2.28-21-36.19-42.64-49.15-.63-19 0-29.16.29-29.16.29s-7.44.46-6.67-18.68 0-98.94 0-98.94 2.73-2.78 19.81-2.78 167 .26 167 .26 3.41-5.06 28.88 16.7c9.31 7.99 23.4 23.02 40.41 37.99z" fill="#f3dec5"/><path d="M222.91 45.09l-5 .69-2.24.35a24.91 24.91 0 0 0-13.81-4.22C193.84 42 6 41.35 6 41.35s-1.35-7.47 1.1-11.92 9.57-3.51 15.11-3.62 170.37 0 170.37 0 17.88 6.19 30.33 19.28z" fill="#d0a073"/><circle cx="241.47" cy="148.94" r="21.06" fill="#c7c0b1"/><circle cx="241.41" cy="149.23" r="13.94" fill="#e2ddd3"/><circle cx="66.27" cy="148.94" r="21.06" fill="#c7c0b1"/><path d="M265 82.12l-12.78 1.58-9.79-9.19s-18.72-20.72-18.84-21-8.36-7.79-8.08-8 8.06-.84 9.12-.09c.37.19 40.37 36.7 40.37 36.7zM238.06 79.37s-.33 1.27-7.13 1.32L196 81s-12.41 1.16-13.15-1.26-.23-20.71-.17-25.79S182 46 184.3 46c1 0 17.28-1 23 1.07S222.73 56.5 228.22 64a157.75 157.75 0 0 1 9.84 15.37z" fill="#d8e3e5"/><path d="M178.71 41.54s-.15 78.56-.15 87.18v8.07l-2 .28v-6.17c0-22.44-.32-89.38-.32-89.38zM219.16 148.92a22.18 22.18 0 1 1 22.18 22.18 22.2 22.2 0 0 1-22.18-22.18zm2.06 0a20.12 20.12 0 1 0 20.12-20.12 20.15 20.15 0 0 0-20.12 20.12z" fill="#692f17"/><path d="M227 149.28a14.58 14.58 0 1 1 14.58 14.58A14.6 14.6 0 0 1 227 149.28zm1.81 0a12.77 12.77 0 1 0 12.77-12.77 12.79 12.79 0 0 0-12.76 12.77z" fill="#692f17"/><circle cx="66.41" cy="149.23" r="13.94" fill="#e2ddd3"/><path d="M52 149.28a14.58 14.58 0 1 1 14.58 14.58A14.6 14.6 0 0 1 52 149.28zm1.81 0a12.77 12.77 0 1 0 12.77-12.77 12.79 12.79 0 0 0-12.76 12.77z" fill="#692f17"/><path d="M44.14 148.92a22.18 22.18 0 1 1 22.18 22.18 22.2 22.2 0 0 1-22.18-22.18zm2.06 0a20.12 20.12 0 1 0 20.12-20.12 20.15 20.15 0 0 0-20.13 20.12zM237.56 75.59c-5.52-7.25-14.34-17.3-14.34-17.3C213.63 47.37 211 46 204 45.72c-11-.44-18.75-.42-20.5-.43-2.19 0-1.87.81-1.87 5.36v27.06c0 2.38 0 4 2.06 4h52.66c4.45 0 4.54-1.76 1.21-6.12zM186 80.37c-1.88 0-2.44-.25-2.51-.92-.3-2.81-.21-11.27-.27-16.67-.08-6.53 0-11.79-.06-14.72 0-1.31.29-1.62.88-1.63h6.35c8.8.1 11.36.25 15.86.62 2.16.17 2.41.81 2.33 2.88v29.9c-.06.23 0 .55-1.17.57h-1.24s-17.24-.04-20.17-.03zm45.62.12h-18.34s-2.88 0-2.87-.63c0 0-.06-29.11-.07-29.15-.1-2.72 1.71-1.16 1.71-1.16 4.51 3.31 10.52 10.5 10.52 10.5s5.09 5.61 6 6.85 5.3 7.09 7.39 9.63c2.53 3 1.57 3.88-4.3 3.97z" fill="#692f17"/><path d="M214.37 145.91c-27.52 0-99.7.87-121.51 0-.11-3.59-2.83-9.73-2.83-9.73h128.06a22.69 22.69 0 0 0-3.72 9.73z" fill="#d0a073"/><path d="M89 135.09v2.27c.34-.18 129.13 0 129.13 0v-2.23z" fill="#692f17"/><text transform="translate(12.63 77.93)" font-size="15.45" fill="#692f17" font-family="Helvetica Neue, Helvetica" font-weight="200">Заберём и доставим<tspan x="0" y="18.54">бесплатно</tspan></text><path d="M243.17 109.61s-222.17-.14-223.52-.17a1 1 0 0 0-.8 1c0 .67.77.67.77.67l223.6-.27zM243.17 112.95s-222.17-.14-223.52-.17a1 1 0 0 0-.8 1c0 .67.77.67.77.67l223.6-.27z" fill="#692f17"/><path d="M279.35 101.33c3.22 0 5.83 3.85 5.83 8.61s-2.61 8.61-5.83 8.61z" fill="#d0a073"/><path d="M279.35 119.52h-1v-19.18h1c3.82 0 6.81 4.21 6.81 9.59s-2.99 9.59-6.81 9.59zm1-17v14.92c2.18-.74 3.86-3.85 3.86-7.46s-1.7-6.77-3.88-7.51z" fill="#692f17"/><path d="M39.42 145.91c-8.26.06-32.22.18-32.22.18-3 0-5.44-2.18-5.44-4.84 0-2.66 2.45-4.84 5.44-4.84l35.07-.21a70.4 70.4 0 0 0-2.85 9.71z" fill="#d0a073"/><path d="M285.71 144.89a3.92 3.92 0 0 1-1.51.63l-12.85.47a6.43 6.43 0 0 1-2-.29c-.65-.28-1.18-.73-1.54-2.42-1.41-6.66-8-20.76-23.79-21.8.07-3.95.29-35.61.29-37.62 0-1.8-.09-4.17-.06-5.93 2.29 2.61 2.71 2.95 3.45 3.7 1.46 1.5 3.76 3.46 5.82 3.63a20.19 20.19 0 0 0 7.64-.54c3.14-.82 4.59-1.18 5.21-1.27-.81-.41-.54-1.33-2.21-1.47-1.82.24-8.47 1.31-9.65 1-3.71-.91-6.72-4.2-10.22-8-3.75-4-24.36-26-25.7-27.35a11.32 11.32 0 0 0-1.74-1.61s3.5-.41 5.19-.54c-.65-.41-.78-1-1.49-1.69a21.6 21.6 0 0 1-3.22.34c-.6 0-2.69.14-3.54-.45-4.1-3.15-13.44-3.14-19.87-3.44-1.11.02-168.92-.48-187.92-.47.06.21.07 2.13.09 2.42 18.31 0 175.17-.16 183.76 0 9.13.17 12.3.49 17 1.23a17.75 17.75 0 0 1 9.68 4.91s12.36 13 15 16.1c1 1.22 5.27 6 7.76 8.93 2.55 3.43 3 3.15 3 8.77 0 0 .09 3.16-.17 23.07-.08 6-.1 14.27-.13 16.09-18.47.36-24.8 14.21-26.71 20.71a3.67 3.67 0 0 1-1.43 2.33 5.49 5.49 0 0 1-2.43.42l-116 .44s-1.44.06-1.84-.28-.35-.34-.61-1.39c-1.35-5.49-7.08-22.61-26-22.89-13.54-.2-20.57 7.64-24.12 14.45l-35.65.2a6.69 6.69 0 0 0-1.25.13 7.62 7.62 0 0 0-2.3.81 5.85 5.85 0 0 0-3 5c0 3.28 2.94 6 6.56 6h14.68c3.35-.06 14.27-.17 18.64-.2a2.1 2.1 0 0 0 2-1.71c.84-6.22 5.71-22.27 24.21-22 17.53.36 22.25 16.51 23.36 22.1 0 0 .32 1.3.82 1.53 1.14.51 7.07.36 7.07.36h115.55s2.65.12 3.16-.59a6.08 6.08 0 0 0 .86-2.28c1.82-6.71 7.4-21 25-20.74 17.18.26 21.61 16 22.62 22.55a2.28 2.28 0 0 0 2.14 1.91 21.56 21.56 0 0 0 2.87.21h14.23s5.58-.26 5.58-3.88v-2.36c-.82.17-1.64.32-2.46.43-.3 1.57-1.25 1.79-1.83 2.34zm-246-1c-.12.57-.23.57-.4.73s-.57.22-1 .24L7.2 145c-2.39 0-4.33-1.67-4.33-3.73s1.94-3.73 4.34-3.73l34.6-.2a35.77 35.77 0 0 0-2.15 6.57z" fill="#692f17"/><path d="M268.33 147c5.2.49 21 .11 21 .11 2 0 3.62-2.29 3.62-5.1 0-2.8-1.63-5.1-3.62-5.1h-24a31.56 31.56 0 0 1 3 10.09z" fill="#d0a073"/><path d="M289.31 148.41l-21.31-.26-1-2.23 22.38.11c1.33 0 2.5-1.86 2.5-4s-1.17-4-2.51-4l-24.37-.19-.15-2.23 24.55.22c2.6 0 4.73 2.79 4.73 6.21s-2.21 6.37-4.82 6.37z" fill="#692f17"/><rect x="183.16" y="87.94" width="8.31" height="1.88" rx=".91" ry=".91" fill="#692f17"/><path d="M290 137h-2.9c0-.19.08-19.42 0-31.09-.08-10.61-7-13.59-7.3-13.72l-.22-.11-25.08-15.66c-.35-.34-35.43-33.87-44.77-41.36-8.9-7.14-20.46-7.21-20.81-7.21H13.36C8 27.85 6.94 31.33 6.78 32v104.32H3.83V31.61c.4-2.32 2.9-6.7 9.5-6.7H188.9c.49 0 12.87 0 22.67 7.86 9.27 7.44 42.29 39 44.86 41.42L281 89.45c1.17.52 8.92 4.41 9 16.37.13 11.69 0 30.94 0 31.18z" fill="#692f17"/></svg>