<svg width="46" height="62" viewBox="0 0 46 62" fill="none" xmlns="http://www.w3.org/2000/svg"><path d="M29.47 1.54h-15l4 58.09h11V1.54zM29.47 14.71h8.08L35.4 59.63h-5.93V14.71z" fill="#fff" stroke="#F0592B" stroke-width="1.5" stroke-linejoin="round"/><path d="M14.92 8.01L.86 8.56l5.68 51.28 11.91-.41-3.53-51.42z" fill="#fff" stroke="#F0592B" stroke-width="1.5" stroke-linejoin="round"/><path d="M18.24 56.69a.36.36 0 0 1-.24-.09.37.37 0 0 1-.05-.52l.43-.56a.38.38 0 0 1 .53-.08.39.39 0 0 1 .09.56l-.45.58a.37.37 0 0 1-.31.11zm1.62-2.19a.36.36 0 0 1-.22-.07.369.369 0 0 1-.09-.52l.56-.82a.372.372 0 0 1 .62.41c-.187.293-.377.573-.57.84a.37.37 0 0 1-.3.16zm1.62-2.5a.34.34 0 0 1-.19 0 .36.36 0 0 1-.13-.51c.16-.29.33-.58.48-.86a.37.37 0 0 1 .69.064.38.38 0 0 1-.03.286l-.49.89a.38.38 0 0 1-.33.13zm1.34-2.68a.28.28 0 0 1-.13 0 .36.36 0 0 1-.22-.48l.07-.21c.09-.23.18-.48.26-.72a.375.375 0 0 1 .71.24c-.09.25-.17.5-.26.74l-.08.21a.39.39 0 0 1-.35.19v.03zm.92-2.86h-.1a.37.37 0 0 1-.26-.46c.09-.32.17-.64.25-1a.36.36 0 0 1 .45-.27.37.37 0 0 1 .28.45c-.08.33-.17.65-.26 1a.37.37 0 0 1-.36.25v.03zm.69-2.92h-.07a.38.38 0 0 1-.3-.45c.07-.32.13-.64.19-1a.37.37 0 0 1 .43-.3.37.37 0 0 1 .31.43c-.06.33-.13.66-.19 1a.37.37 0 0 1-.37.29v.03zm.49-3h-.05a.38.38 0 0 1-.32-.42c0-.33.08-.65.12-1a.372.372 0 1 1 .74.09c0 .33-.07.66-.12 1a.36.36 0 0 1-.37.34v-.01zm.3-3a.38.38 0 0 1-.35-.4l.06-1a.369.369 0 0 1 .39-.36.37.37 0 0 1 .36.39l-.06 1a.37.37 0 0 1-.4.4v-.03zm.1-3a.367.367 0 0 1-.345-.235.369.369 0 0 1-.025-.145v-1a.38.38 0 0 1 .37-.38.37.37 0 0 1 .37.37v1a.37.37 0 0 1-.37.42v-.03zm-.08-3a.37.37 0 0 1-.37-.35c0-.33 0-.66-.07-1a.37.37 0 0 1 .488-.393.38.38 0 0 1 .262.333c0 .33.05.67.07 1a.38.38 0 0 1-.36.4l-.02.01zm-.28-3a.37.37 0 0 1-.37-.32c0-.33-.09-.66-.14-1a.38.38 0 0 1 .32-.43.37.37 0 0 1 .42.31c.05.33.1.67.14 1a.36.36 0 0 1-.32.42l-.05.02zm-.49-2.95a.39.39 0 0 1-.37-.3c-.06-.33-.13-.65-.21-1a.38.38 0 0 1 .427-.456.371.371 0 0 1 .303.286c.08.33.15.65.22 1a.38.38 0 0 1-.29.45l-.08.02zm-1.77-5.68a.38.38 0 0 1-.34-.23l-.42-.89a.38.38 0 0 1 .68-.33c.14.3.29.61.42.92a.36.36 0 0 1-.19.49.28.28 0 0 1-.15.04zm-1.36-2.68A.37.37 0 0 1 21 17a263.84 263.84 0 0 0-.51-.84.37.37 0 0 1 .12-.52.38.38 0 0 1 .52.12l.52.87a.37.37 0 0 1-.14.51.32.32 0 0 1-.17.09zm-1.63-2.52a.36.36 0 0 1-.3-.15c-.2-.28-.4-.54-.59-.79a.38.38 0 0 1 .192-.598.37.37 0 0 1 .398.138l.61.81a.37.37 0 0 1-.09.52.36.36 0 0 1-.22.07zm-1.87-2.34a.39.39 0 0 1-.28-.13c-.23-.26-.45-.51-.67-.73a.38.38 0 0 1 .55-.52c.22.24.45.49.68.76a.37.37 0 0 1 0 .52.35.35 0 0 1-.28.1zm-2.09-2.16a.39.39 0 0 1-.26-.1c-.45-.41-.73-.63-.73-.64A.37.37 0 0 1 14.7 9a.38.38 0 0 1 .53-.07s.29.24.77.68a.38.38 0 0 1 0 .53.36.36 0 0 1-.25.07z" fill="#F0592B"/><path d="M22.8 23.47l1.78-2.81M25.09 22.96l-2.8-1.78" stroke="#F0592B" stroke-width=".5" stroke-miterlimit="10" stroke-linecap="round"/><path d="M23.51 6.27l-.16-.17a.25.25 0 0 1 0-.36l.07-.05.71-.58a.25.25 0 1 1 .31.38l-.93.78zM22.15 4.7a.24.24 0 0 1-.15-.07l-.69-.73a.254.254 0 1 1 .37-.35l.68.73a.26.26 0 0 1 0 .36.27.27 0 0 1-.21.06zm3.67-.43a.25.25 0 0 1-.19-.09.25.25 0 0 1 0-.35l.77-.64a.252.252 0 0 1 .32.39l-.72.63a.23.23 0 0 1-.18.06zM20.1 2.52a.27.27 0 0 1-.19-.08l-.68-.73a.26.26 0 0 1 .08-.416.24.24 0 0 1 .27.056l.69.73a.25.25 0 0 1 0 .35.28.28 0 0 1-.17.09zm8-.16a.25.25 0 0 1-.19-.09.26.26 0 0 1 0-.36l.69-.57a.25.25 0 0 1 .35 0 .24.24 0 0 1 0 .35l-.69.57a.23.23 0 0 1-.13.1h-.03z" fill="#F0592B"/><path d="M44.14 28.58H25a1 1 0 0 0-1 1v29.88a1 1 0 0 0 1 1h19.14a1 1 0 0 0 1-1V29.58a1 1 0 0 0-1-1z" fill="#fff" stroke="#F0592B" stroke-width="1.5" stroke-linejoin="round"/><path d="M28.66 33.92l-.28-.77h-1.07l-.27.77h-.49l1.05-2.81h.5l1 2.81h-.44zm-.4-1.17L28 32a2.18 2.18 0 0 1-.08-.24 1.669 1.669 0 0 1-.07-.24c-.04.16-.09.33-.15.51l-.26.73.82-.01zM40.6 55.28l.27.78h1.07l.28-.78h.48l-1.05 2.81h-.49l-1-2.81h.44zm.4 1.17l.27.76s0 .13.08.24c.08.11 0 .19.07.25a3.24 3.24 0 0 1 .15-.52l.25-.73H41zM28.7 45.47a3.72 3.72 0 0 0 3.54 3.87 3.34 3.34 0 0 0 2.33-1 3.36 3.36 0 0 0 2.33 1 3.71 3.71 0 0 0 3.54-3.87 4.49 4.49 0 0 0-.44-1.74c-1.48-2.91-5.4-7-5.4-7s-4.9 5-5.66 7.54a3.89 3.89 0 0 0-.24 1.2z" fill="#F0592B"/><path d="M34.57 47.78l-1.94 3.13h3.89l-1.95-3.13z" fill="#F0592B"/></svg>