<svg xmlns="http://www.w3.org/2000/svg" width="120" height="120" viewBox="0 0 120 120"><path fill="none" d="M0 0h120v120H0z"/><path d="M26.19 6.3S29.3 5 29.86 4.69a14.71 14.71 0 0 1 5-1c1.8 0 3.93-.49 4.9-.37a3.06 3.06 0 0 1 1.62.68h2.06a9.16 9.16 0 0 1 2.73.71L50.71 6c.75.22 1.8 1.35 2.77 1.83s6 5.24 6.42 6.7 2.62 4.38 2.84 5.39 1.27 6.81-.41 9.39-4.6 6.32-6.28 7.11a30.77 30.77 0 0 0-4 2.62 15.71 15.71 0 0 1-4.71 1.31h-2.15a7.41 7.41 0 0 0-1.42.26c-.19.07-.26-1.83-.26-1.83s-4.6 1.35-7.63 1.12a38.06 38.06 0 0 1-5.61-.86s1.14 1.63.84 1.89a7.63 7.63 0 0 1-3 .19c-.82-.11-3.82-1-3.82-1l-1.76-.84a22.78 22.78 0 0 0-2.09-1.37 54.66 54.66 0 0 1-5.27-6.51 18 18 0 0 1-1.35-6.77 22.92 22.92 0 0 1 1.55-8 16.22 16.22 0 0 1 4.88-6.58c1.2-.71 4.3-2.47 4.3-2.47z" fill="#cd9a56"/><path d="M33.36 13.76a5.27 5.27 0 0 0-1.11 1.5c-.24.62-.38 2.86-.6 3.2s-.86.41-1.28.36a3.66 3.66 0 0 1-1.16-.58c-.06 0-2.76.81-3.09.84s-3.72.83-3.94.88-1.68.36-1.75.39A2.88 2.88 0 0 0 19 22.14a3.23 3.23 0 0 0 .14 2.23 2.31 2.31 0 0 0-.86 1.08 4.11 4.11 0 0 0 .6 2.61 11.16 11.16 0 0 0 1.94 1.35 12.93 12.93 0 0 0 2 3.75A15.6 15.6 0 0 0 30.23 39c4 1.68 9.64.87 9.78.86a15.77 15.77 0 0 0 6.06-2.13s3.16-2.31 4.05-3.23a21.46 21.46 0 0 0 3.1-4 5.16 5.16 0 0 0 .39-1.09 2.2 2.2 0 0 0 2-1.37c.83-1.49.38-3.21-.29-3.58a4.29 4.29 0 0 0-2.34 0c-.38.07-1.32-.77-1.56-1.8S48.62 19 48.62 19a15.37 15.37 0 0 1-3-.06c-1.12-.2-3.31-.45-4.14-.69a14.62 14.62 0 0 0-4.08.25 21.64 21.64 0 0 1-2.52.88c-.14-.13-.07-.79-.07-1.07s-1.45-4.55-1.45-4.55z" fill="#f2ddca"/><path d="M30.79 24.89a1.64 1.64 0 0 0-.56-1.13 2.14 2.14 0 0 0-1.56-.62 14 14 0 0 0-2.42 0 6.77 6.77 0 0 0-1.19 1.12c-.33.36 0 .62.16.72a3.43 3.43 0 0 0 1.34.64 14.77 14.77 0 0 0 2.15-.07c.43-.09 1.24-.43 1.55-.44s.49-.11.53-.22z" fill="#fff"/><path d="M29.29 23.43a1.2 1.2 0 0 1 .34 1 1.73 1.73 0 0 1-1.29 1.15 1.53 1.53 0 0 1-1.44-.49c-.08-.25-.55-.95-.43-1.3s2-1.74 2.82-.36z" fill="#b5d0ed"/><path d="M39.25 24.82a1.64 1.64 0 0 1 .56-1.13 2.14 2.14 0 0 1 1.56-.62 12.3 12.3 0 0 1 2.38.3 4.51 4.51 0 0 1 1.23.81c.33.36 0 .62-.16.72a4.38 4.38 0 0 1-1.46.43 14 14 0 0 1-2 .14c-.43-.09-1.24-.43-1.55-.44s-.52-.09-.56-.21z" fill="#fff"/><path d="M41.21 23.36a1.2 1.2 0 0 0-.34 1 1.73 1.73 0 0 0 1.29 1.15c.62.12 1.51-.07 1.59-.33a3.39 3.39 0 0 0 .25-1.42c-.09-.34-2-1.76-2.79-.4z" fill="#b5d0ed"/><path d="M14.44 19a14.07 14.07 0 0 0 2-2.1 26 26 0 0 1 3.37-4.71A29.5 29.5 0 0 1 22 10.12L20.72 13a5.93 5.93 0 0 1 1.85-1.63 5.13 5.13 0 0 1 1.24-.37 17.38 17.38 0 0 0-1.32 2.33 22.59 22.59 0 0 0-.2 3.82c0 .45.14 1.21.14 1.21a13.72 13.72 0 0 1 1.57-5.1c1.21-1.8 1.88-3.31 4.6-4.77S31.83 6.95 32.28 7s0 .93 0 .93A28.65 28.65 0 0 0 31 10.82a9.46 9.46 0 0 1 1.63-1.94 16.91 16.91 0 0 1 2-1.54A27.41 27.41 0 0 0 33.51 12c0 1.09.5 4.26.5 4.26l.53 1.4a11.85 11.85 0 0 1 .79-5.08c1-2.52 1.51-4.88 3.45-5.47A2.79 2.79 0 0 1 42.2 8.4a11.94 11.94 0 0 1 .8 2.28s.08-2 0-2.41.62-.53 1-.42a6.29 6.29 0 0 1 3.34 2.64 15.42 15.42 0 0 1 1.57 4.91s.62-3.79.2-4.52a13.71 13.71 0 0 0-2.22-3s-.17-.73 1-.5a8.28 8.28 0 0 1 3.17 1.09s-1.43-1.23-2.13-1.8S45 4.25 44.85 4.14a13.57 13.57 0 0 0-2-.28l-1.29-.06-1-.56-3.79.42-1.4-.25-4.83.84-3.7 1.66-3.37 2.36-1.57.59-3.7 3.23a40.64 40.64 0 0 0-2.86 4c-.08.45-1 3-1 3z" fill="#dbb680"/><path d="M20.24 46.25A8 8 0 0 0 23 45a10.88 10.88 0 0 1 4.43-2.64c1.91-.5 3.25-.84 3.25-.84l.22-1.29.06-1s4.32.67 6.12.73 6.13-1.2 6.43-1.16.26 1.83.26 1.83 2.84.73 3.46 1 5.55 3 6.34 3.37S62 48.61 62 48.61l3.48 1.63 1.4 1 2.47.45.84 1.12-.11.56 1.57.84a35.57 35.57 0 0 0-1.4 5.5 3.59 3.59 0 0 1-.79 2.19 7.77 7.77 0 0 1-.84 2.92 2.76 2.76 0 0 1-2.08 1.12c-.17 0-3.82-1-4-1a7.69 7.69 0 0 1-2.47-.45c-.5-.39-1.29-3-1.29-3l-5.33-1.57a34.82 34.82 0 0 0 .11 4.66c.22.84.39 16.16.39 16.16a48.52 48.52 0 0 1-12.51 2.41c-6.06.17-15.82-1.18-16.83-1.07S24 79.64 24 79.64l-.22-10.1a21.35 21.35 0 0 1-5.5 3.2c-2.41.73-3.2.45-4.21-1.07a7.53 7.53 0 0 0-2.58-2.3L10 65.78s.06-.79 1.12-1-1-5-1-5-1.71-4.89-.12-7.02 6.09-4.26 10.24-6.51z" fill="#fff"/><path d="M70.69 61.12s2 .34 2.41.34.5.79.5.79.28.73 2.3 1.07a5.35 5.35 0 0 0 3.82-1 17.12 17.12 0 0 0 1.07-2.64 4.2 4.2 0 0 0-.56-2.3 8.1 8.1 0 0 1-.67-1.68c-.22-.5-1.23-2-1.12-2.47s.11-3-.67-3.14-1.19.91-1.19 1.91.17 3.59-.28 3.87-2.47-.73-2.47-.73l-2.36-.39s-.73 3.2-1 4.1a5.69 5.69 0 0 0 .22 2.27zM23 70.21c-.22.06-3.59 2.41-3.59 2.41l.5.34-.06.73s-1.07-.22-1.51.11-.22.62-.22.62-.9-.06-1.07.34a.6.6 0 0 0 .17.67 1.77 1.77 0 0 0-.73 1c-.17.67.11 1.46 1.23 2.19a6.13 6.13 0 0 0 4.26.73 4.61 4.61 0 0 0 2-1.4l-.45-8z" fill="#f2e3cb"/><path d="M29 101a49.61 49.61 0 0 0 .9 5 3.09 3.09 0 0 0 1.4 1.74l2.7.26 3.82.34a13.12 13.12 0 0 0 .62-1.57c.06-.34.5-4.32 0-5.5s-1-1.23-1-1.23a5.56 5.56 0 0 1-4 1.8A14.71 14.71 0 0 1 29 101zM39.94 99.84a8.2 8.2 0 0 0 4.77 2 7.34 7.34 0 0 0 4.66-1s-.22 2.86-.45 3.82a7.1 7.1 0 0 1-1.4 2.75 16 16 0 0 1-3.31.62c-1.68.06-3.87.62-3.93.39a20.28 20.28 0 0 1-.56-2.69c-.01-.62-.45-4.6.22-5.89z" fill="#c4a076"/><path d="M31.3 107.75a6 6 0 0 0-2.64.39 3.76 3.76 0 0 0-1.23 1.18s-2 1.4-2.19 2-.39 3.09.34 3.59a32.47 32.47 0 0 0 6.06 1.74l5.16-.06 1.63-.84.45-.84s1.07 1.57 1.85 1.57 5.5.11 5.5.11 3.87 0 4.88-.62a3.67 3.67 0 0 0 1.57-2.13 6 6 0 0 0-.17-2.64 20.42 20.42 0 0 0-2.41-2.47l-1.68-1.07-4.6.5-4 .28-.82 2.96-.9-2.81z" fill="#ddad29"/><path d="M37 82.84s4.71.34 5.39.22 10-1.85 10-1.85a12.47 12.47 0 0 1 .39 4.6 37.56 37.56 0 0 0-.62 4.1s.62 6.56-.28 7.91a6.24 6.24 0 0 1-3.14 2.81c-1.29.39-1.63 1.23-4 1.07a6 6 0 0 1-4.38-2l-1.07-4.43s-1 4-1.74 4.6-1.57 1.68-3.7 1.8-5.67-1.35-5.67-1.35-1.23-.34-1.74-2.81a71.55 71.55 0 0 1-.56-8.81l-.36-6.7a18.59 18.59 0 0 1 4 .34 60.74 60.74 0 0 0 7.48.5z" fill="#e18020"/><path d="M28.72 82.5s.39 4.21.39 5.67-.22 5.72.11 7.35a27.7 27.7 0 0 0 1.29 5.16s-1.57-.67-2-1.46-1.35-5.78-1.74-11.61c0 0-.34-5.33 0-5.5s1.95.39 1.95.39zM30.74 82.78s.34 2.81.45 4.21.45 5.61.39 6.51.39 6.62 1.4 7.86c0 0 1.29.62 1.51.28s-.41-2.19-.74-3.78c-.27-1.32-.27-6.43-.44-8A65 65 0 0 1 33 83s-1.81-.5-2.26-.22zM35.11 82.89a9.36 9.36 0 0 0-.06 3.48c.34 1.85.73 7.91.9 9.65s.17 4.83-.34 5.27 1.46-.39 1.91-1.29-.34-10.32-.39-11.45-.5-4.94-.17-5.61zM40.61 83.23s-.17 6.28-.28 8.42.87 9.8 1.91 9.54a12.36 12.36 0 0 0 2.47.62 4.9 4.9 0 0 0 2.81-1c0-.22-.34-9.15-.45-11.11s-.34-7-.34-7l-2.13.3s.9 14.87.73 16.33a14.7 14.7 0 0 1-.28 1.85s-1.3-.18-1.91-4.18-.39-13.52-.45-13.69a8.76 8.76 0 0 0-2.08-.08zM48.92 82.44s.34 9.76.28 11.11 0 5.11-1.18 6.85c0 0 0 .28.67.34s1.63-.73 2-1.12.73-3.2.73-4.6-.17-9.88-.28-11.05-.28-2.24-.28-2.24z" fill="#c66719"/><path d="M27.8 32.9a1.37 1.37 0 0 1 1-.66c.62 0 .91.42 2.51.86a16.25 16.25 0 0 0 7.08.39c1.18-.31 4-1.5 4.25-1.59a.67.67 0 0 1 .66.14.35.35 0 0 1 .07.53c-.15.14-.42-.31-.52-.32s-2.52 1.25-3.13 1.6a9.58 9.58 0 0 1-4.4.69 12.6 12.6 0 0 1-3.84-.86c-1-.35-2.2-1.05-2.51-1.05A3 3 0 0 0 28 33s-.23.27-.2-.1zM32.75 35.51s0-.21.27-.21a25.5 25.5 0 0 0 2.6.34 11.83 11.83 0 0 0 3-.31c.28-.14.43-.07.43 0a6.81 6.81 0 0 1-3 1 5.42 5.42 0 0 1-3.3-.82zM33.72 29.69a2.55 2.55 0 0 0 1.74.59 3.19 3.19 0 0 0 1.75-.62c.08-.1.14-.28-.32-.15a4.11 4.11 0 0 1-1.46.2 11.44 11.44 0 0 1-1.43-.15s-.39-.18-.28.13zM41.19 20.4s.11.21 1.5.35a8.78 8.78 0 0 1 2.85 1c.11 0 .29 0 0-.31a9.48 9.48 0 0 0-2.26-1.4c-.61-.11-2.19-.27-2.09.36zM24.41 21.62c0 .08.18 0 .85-.34a6.9 6.9 0 0 1 2.42-.55h1.53c.21 0 .94-.34.1-.65a6.77 6.77 0 0 0-3.42.36 4.43 4.43 0 0 0-1.33.8.48.48 0 0 0-.15.38zM31.31 24.91A4.59 4.59 0 0 0 30 23.45a3.25 3.25 0 0 0-2.26-.66 5.24 5.24 0 0 0-2.17.41 3.22 3.22 0 0 0-1 1.3.55.55 0 0 0 .11.48 2 2 0 0 0 .41.38 7.65 7.65 0 0 0 1.54.6 7.1 7.1 0 0 0 2.56 0c.55-.12 1.28-.44 1.43-.44s.52.1.62 0 .27-.23.07-.61zm-4.51.7a1.75 1.75 0 0 1-.56-.09 4.39 4.39 0 0 1-.86-.58.38.38 0 0 1-.11-.27c0-.13.21-.43.44-.72a1.66 1.66 0 0 1 .59-.42c.21-.09.3-.06.27 0a1.52 1.52 0 0 0-.24.88 1.42 1.42 0 0 0 .58 1.08s.09.11-.11.12zm2.56-1.2a.9.9 0 0 1-.52.86 1.68 1.68 0 0 1-1.3.06 1.07 1.07 0 0 1-.63-.72 1.19 1.19 0 0 1 .09-.9.4.4 0 0 1 .18-.14.23.23 0 0 1 .12 0c.18.08.12.15.11.19s0 .76 0 .76a.79.79 0 0 0 .64.42.65.65 0 0 0 .68-.47.74.74 0 0 0-.06-.48.25.25 0 0 1 .32-.32c.33.09.38.51.37.74zm1.36.82c-.09 0-.39-.15-.6-.12a2 2 0 0 0-.51.2c-.05 0-.1 0-.08-.06a1 1 0 0 0 .27-.68 1.63 1.63 0 0 0-.21-1 3 3 0 0 1 1 1.09c.21.34.22.53.13.58z" fill="#5d3328"/><circle cx="27.57" cy="24.12" r=".34" fill="#fff"/><path d="M45.33 24.53a13.36 13.36 0 0 0-1.11-1A3.4 3.4 0 0 0 43 23a4.35 4.35 0 0 0-2.71.06A3.26 3.26 0 0 0 39 24.85a1 1 0 0 0 0 .49c.07.31.4.23.41.23a3.42 3.42 0 0 1 .91.09c.29.07 1.46.3 1.75.38a4.5 4.5 0 0 0 1.87-.09 3.11 3.11 0 0 0 1.6-.86c.15-.2-.05-.37-.21-.56zm-4.11 1c-.27-.07-1.06-.4-1.33-.44a.58.58 0 0 0-.31 0c-.16 0-.09-.23-.09-.23l.12-.26a2.75 2.75 0 0 1 .76-.81 2.61 2.61 0 0 1 .71-.38c0 .05-.14.16-.18.25a1.6 1.6 0 0 0-.15.78 1.42 1.42 0 0 0 .52 1.07zm2.44-1a1.09 1.09 0 0 1-.71 1 1.24 1.24 0 0 1-1.53-.53 1 1 0 0 1 0-1.12s.07-.12.17-.13a.44.44 0 0 1 .32.1c.08.07 0 .22-.06.4a.59.59 0 0 0 .5.74.64.64 0 0 0 .81-.51c0-.17 0-.44.26-.44s.28.1.23.46zm1.32.43a7.07 7.07 0 0 1-1.08.57h-.06c-.1 0 .17-.22.29-.75a1.57 1.57 0 0 0 0-.88c.23.16.66.48.87.66s.05.29 0 .38z" fill="#5d3328"/><circle cx="41.8" cy="24.11" r=".34" fill="#fff"/><circle cx="32.85" cy="41.04" r=".29" fill="#5d3328"/><circle cx="34.87" cy="40.79" r=".29" fill="#5d3328"/><ellipse cx="36.67" cy="41.67" rx=".23" ry=".29" fill="#5d3328"/><circle cx="38.67" cy="40.85" r=".31" fill="#5d3328"/><circle cx="40.67" cy="41.08" r=".3" fill="#5d3328"/><circle cx="42.48" cy="40.07" r=".29" fill="#5d3328"/><circle cx="36.98" cy="43.84" r=".32" fill="#5d3328"/><circle cx="39.56" cy="44.99" r=".32" fill="#5d3328"/><circle cx="37.32" cy="47.57" r=".32" fill="#5d3328"/><circle cx="34.9" cy="49.37" r=".32" fill="#5d3328"/><circle cx="37.34" cy="51.32" r=".32" fill="#5d3328"/><circle cx="39.6" cy="49.09" r=".32" fill="#5d3328"/><circle cx="39.49" cy="52.92" r=".32" fill="#5d3328"/><circle cx="34.92" cy="45.47" r=".32" fill="#5d3328"/><path d="M45.64 92.64A15 15 0 0 0 48 92c.6-.3 1.66-.94 1.89-1s.22.07-.17.47a3.13 3.13 0 0 1-1.7 1.2 6.08 6.08 0 0 1-2.52.3c-.14-.09-.29-.31.14-.33z" fill="#5d3328"/><path d="M80.76 58.18a9.26 9.26 0 0 0-.36-1.51 4.66 4.66 0 0 0-1-1.57 3 3 0 0 1-.79-1.71c0-.34.5-3.45-.79-3.56a1.09 1.09 0 0 0-1.29 1.09s-.25 3.7-.31 4.21a.63.63 0 0 1-.73.59 2.75 2.75 0 0 1-1.12-.53c-.28-.2-1.15-.06-1.46-.25a3.14 3.14 0 0 0-1-.28s.28-.36.08-.59-.79-.08-1.15-.34-.39-1.32-.39-1.32a2.45 2.45 0 0 0-1.32-.93 8.45 8.45 0 0 0-1.91-.36 5.6 5.6 0 0 0-1.29-.73c-.59-.2-1.37-1-1.91-1s-2.24-1.26-3.17-1.71-5.64-1.85-7.52-3a39.18 39.18 0 0 0-4.52-2.78c-1.1-.43-2.3-.76-2.2-1.05a23.06 23.06 0 0 0 3.71-.76 10.93 10.93 0 0 0 2.9-1.38 2.56 2.56 0 0 0 .45-.3 8.89 8.89 0 0 0 1.79-1.16c.46-.49 2.37-1 3.65-2.81s2.79-3 3-3.72.73-1.91 1-2.74a21.14 21.14 0 0 0 .45-4.85A11.31 11.31 0 0 0 63 19.6c-.31-.72-2.47-4.52-3.37-5.86a48.34 48.34 0 0 0-3.9-4.24 25.85 25.85 0 0 0-3.84-3 12.73 12.73 0 0 0-3.24-1.23l-1.72-.47a21.87 21.87 0 0 0-2.54-1 9.76 9.76 0 0 0-2.49 0 3.57 3.57 0 0 0-2.25-.8s-1.44.24-1.85.26c0 0-.88.11-1.2.13s-2.39-.06-3.16 0A14.12 14.12 0 0 0 29 4.62a32.38 32.38 0 0 0-3.35 1.83 40.89 40.89 0 0 1-3.48 2.21 38.13 38.13 0 0 0-3.33 2.47 21.38 21.38 0 0 0-3.39 4.47 21 21 0 0 0-1.72 4.81 17.24 17.24 0 0 0-.17 2.71l-.07.15s0 1.53.07 2.86a21.11 21.11 0 0 0 1.48 5.61 13.56 13.56 0 0 0 2.49 3.76c1 1 1.22 1.33 1.38 1.44 0 0 .79.62 1.51 1.25a8.8 8.8 0 0 0 2.09 1.27c.36.15 2.17 1.14 2.51 1.27a7.57 7.57 0 0 1 1.25.41 1.2 1.2 0 0 0 .71.1 1.64 1.64 0 0 0 .45.13 9.44 9.44 0 0 0 1 .08c-.81.32-2.51.88-3.53 1.42-1.88 1-2.66 2.24-3.38 2.73s-9.65 4-11.31 6S9 56.94 9.3 57.92s1.8 5.78 1.8 6.34-1.15.45-1.23 1.46 1.49 3.65 1.8 4.1 1 .53 1.37.9.39 1 .87 1.68a2.94 2.94 0 0 0 1.63 1.09 8.11 8.11 0 0 0 3.54-.56 1 1 0 0 0 .54.25v.39s-.28-.32-1-.09a1.08 1.08 0 0 0-.8.77 1 1 0 0 0-1 .37 1 1 0 0 0-.17 1 1.21 1.21 0 0 0-.62 1.16 2.08 2.08 0 0 0 1.46 2.13 21.76 21.76 0 0 0 3.1.8 5.5 5.5 0 0 0 2.87-.47 17.57 17.57 0 0 0 .29 2.7.75.75 0 0 0 1 .43h.14c0 .26.08 1.15.13 1.83s0 2.45.09 3a26.48 26.48 0 0 1 .37 3.1c0 1.2.13 3.55.11 4.79a11.8 11.8 0 0 0 .66 3.91 3.05 3.05 0 0 0 1.4 1.55c.43.17.65.24.82.52a9.48 9.48 0 0 1 .37 2.11 9.69 9.69 0 0 0 .65 3c.45.9.54 1.22.41 1.38s-.5 0-1 .32a11.7 11.7 0 0 0-1.31 1.12 13.28 13.28 0 0 0-1.61 1.1 3.2 3.2 0 0 0-1 1.57 5.87 5.87 0 0 0 .11 2.21 3 3 0 0 0 1.91 2.19 15.35 15.35 0 0 0 3 .77c.77.13 5.18.15 5.93.13a8.91 8.91 0 0 0 2.19-.28 1.77 1.77 0 0 0 1-1.09 4 4 0 0 0 .77.89c.43.34 2.58.5 4.13.49H44l4.38-.19a8.94 8.94 0 0 0 3.44-1 3.68 3.68 0 0 0 1.48-3.18 3.24 3.24 0 0 0-1.07-2.39 8.6 8.6 0 0 0-1.7-1.14 11.57 11.57 0 0 1-.82-1 2.22 2.22 0 0 0-1.07-.39h-.11c-.15 0-.33-.12-.25-.37s.4-.58.59-1.17a11.52 11.52 0 0 0 .56-2.51c.06-1 .15-2.08.15-2.08a.53.53 0 0 1 .22-.62 3.45 3.45 0 0 0 1.74-1.33c.82-1.08 1-3.46 1-4.17s-.07-5.46.11-6.47a20.85 20.85 0 0 0 .43-3.42c.1-1.7-.18-2.91 0-3.56a2.41 2.41 0 0 0 1.47-.46 20.3 20.3 0 0 0 0-3.89c-.07-1-.21-5.7-.26-6.7s-.43-5-.58-5.69-.28-3.93.26-4.73c0 0 3.83 1.3 4.11 1.4a.76.76 0 0 0 .42 0 5.45 5.45 0 0 0 .17.88 3.08 3.08 0 0 0 2 2 21.56 21.56 0 0 0 2.55.56 16.45 16.45 0 0 0 3.28.93 3.59 3.59 0 0 0 2.36-.79l.81-3.39a1.56 1.56 0 0 0 .73-.17c.22-.17 0-.53.28-.62a4.5 4.5 0 0 1 1.54.45 2.25 2.25 0 0 0 1 0l-.34-.67s-2 0-2.22-.9a13.07 13.07 0 0 1 1-5 6.41 6.41 0 0 0 1.35.45c.65.11 1.54.06 1.63.2s-.45.17-1.49.59-.53 1.66-.53 1.66a1.35 1.35 0 0 0 .25 1.68 1.75 1.75 0 0 0 0 1.29s.36.48.34.67a1.57 1.57 0 0 0 .11.56c.17.48.62.9 2 1.21a4.42 4.42 0 0 0 3.59-.51 3.33 3.33 0 0 0 1.82-2.64 5.84 5.84 0 0 0 .03-2.18zM44 40.41h-.1L43.85 39a25.57 25.57 0 0 0 4.44-2.53A22.31 22.31 0 0 0 51.64 33s-.24.47-.5 1.08a12.32 12.32 0 0 1-.71 2.39 7.65 7.65 0 0 1-3.14 2.6A27 27 0 0 1 44 40.41zm-2.82-.6c.64-.18 1.29-.4 1.78-.56a2.12 2.12 0 0 1 0 1.37 1.26 1.26 0 0 1-.56.48 3 3 0 0 0-1.18-1.29zm-1.91 2.33c.37-.55 1.14-2 1.14-2a5.56 5.56 0 0 1 1.44 1.23l-.29.11c-.23.08-1.44.44-2.25.66zm1.23.59zM33.18 40c.06.12.91 1.71 1.19 2.21a5.92 5.92 0 0 1-1.1-.25 3.75 3.75 0 0 1-1.56-.9A16.83 16.83 0 0 0 33.18 40zm-1.72.56c0-.21-.06-.68-.07-.89h.07a8.22 8.22 0 0 0 .89.2c-.26.23-.69.56-.88.74zm5.86 8.58a10.86 10.86 0 0 1-2.4-1.63L37 45.88a20.26 20.26 0 0 0 2.88 1.07 18.89 18.89 0 0 1-2.56 2.24zm2.77-1.51c0 .79.06 1.65.08 2.45a9.34 9.34 0 0 1-2.17-.59 12.71 12.71 0 0 0 2.09-1.81zM37 45.16a10.32 10.32 0 0 1-1.81-1.21 5.63 5.63 0 0 1-.67-1c1.18.08 3.23.15 4.06.15.06 0 .73-.14 1.44-.27l-1.86 1.27c-.16.14-.76.67-1.16 1.06zm.41-4.8a15.78 15.78 0 0 0 2.43-.21 15.46 15.46 0 0 1-1.07 1.72 17.69 17.69 0 0 0-1.36-1.51zm.85 2a19.86 19.86 0 0 1-3.07 0l1.45-1.91a10 10 0 0 1 1.62 1.89zm-3.35-.6c0-.12-.68-1.14-1-1.57.59.08 1.17.15 1.6.17h.34c-.19.37-.85 1.51-.94 1.38zm-.77 1.77a5.76 5.76 0 0 0 2.38 2.08l.15-.12a.66.66 0 0 1-.15.12l-2.16 1.69c0-1.37-.26-3.05-.27-3.46s.05-.34.05-.34zm.21 4.9V48c.27.22 1.82 1.43 2.21 1.65-.66.36-1.69.8-2.1 1a9.17 9.17 0 0 1-.11-2.25zm.52 2.8a17.88 17.88 0 0 0 2.44-1.26 17.29 17.29 0 0 0 2.58.82A12.14 12.14 0 0 1 37.38 53zm2.24 2.41A3.88 3.88 0 0 1 35 52.39a5.53 5.53 0 0 1-.18-.59c.5.43 1.83 1.48 2.29 1.81zm3.09-2.46a6.76 6.76 0 0 1-.11 2 3 3 0 0 1-2.43.56l-.29-.07a9.8 9.8 0 0 0 2.83-2.52zm-.15-6v1.14a21.4 21.4 0 0 1-2.49-.87l2.85-2.29a9 9 0 0 0-.36 2.01zm-3.32-5.48a15.31 15.31 0 0 1-9.91-3 19.7 19.7 0 0 1-4.75-5 22.09 22.09 0 0 1-1.33-2.71 2.18 2.18 0 0 1-1.37-.8 3 3 0 0 1-.82-2.62 1.4 1.4 0 0 1 1.1-.75 5.76 5.76 0 0 1-.44-1.82 2.9 2.9 0 0 1 .46-2 4.27 4.27 0 0 1 1.07-.65c.4-.15 6.06-1.14 6.42-1.27a10.6 10.6 0 0 1 2-.52 4.5 4.5 0 0 0 2.67.3 8.9 8.9 0 0 1 .37-2.24 18.08 18.08 0 0 1 1-2.67 4.81 4.81 0 0 0 .39 1.51 11.47 11.47 0 0 1 .79 3 5.14 5.14 0 0 1 0 1.2c-.06.22.36.37 1-.13s3.8-1 4.66-1a8.3 8.3 0 0 1 3.42.39A10.91 10.91 0 0 0 48 19a4.22 4.22 0 0 0 1.38 1.37A3.28 3.28 0 0 1 50.84 22c.19.39.24 1.7 1.22 2.36a3.18 3.18 0 0 0 .54.34c.17.06.36-.13.58-.3a1.65 1.65 0 0 1 1.38-.13 1.63 1.63 0 0 1 1.22 1.63 2.87 2.87 0 0 1-1.1 2.75 5.69 5.69 0 0 1-1.4.64 10.49 10.49 0 0 1-.37 1.18.2.2 0 0 0 0 .1 16.49 16.49 0 0 1-1.6 2.16 22.67 22.67 0 0 1-4.43 4 17.36 17.36 0 0 1-10.15 2.97zM20 19.22a.66.66 0 0 0 .15.18c.1.19.25.42.37.46s-.82.67-1.08 1a.23.23 0 0 0-.07.12c-.77.66-.75 2.33-.75 2.7s-.13.36-.13.36a4.58 4.58 0 0 1-.56-1.42 15.76 15.76 0 0 1-.09-3.95 9.65 9.65 0 0 1 1.31-3.42c.31-.47.61-.87.84-1.17a13.41 13.41 0 0 0-.48 2.55 4.57 4.57 0 0 0 .49 2.59zm32.74 2.07a9.63 9.63 0 0 1 2.15.45 3.26 3.26 0 0 1 1.81 2.76 4.66 4.66 0 0 1-.25 1.15c-.15.24.06-1-.82-1.63 0 0-.36-.36-1.44-.24s-1.5.5-1.93-.13-.41-1.38-.75-1.76a12.56 12.56 0 0 1-1.16-1.47 3.39 3.39 0 0 0 .67.31 1.15 1.15 0 0 1 .72.39 4.4 4.4 0 0 0 1.26 1.3 3.94 3.94 0 0 0 2.06.52 7.22 7.22 0 0 1-2.34-1.65zm.7 16.13a3 3 0 0 1-1 1 14.09 14.09 0 0 1-2.86 1.2 5.17 5.17 0 0 1-1.95.28 6.61 6.61 0 0 0 1.61-1 7.06 7.06 0 0 0 2.01-2.9c.37-.79 1-3.27 1.27-3.78s.84-1.55.84-1.55a4.58 4.58 0 0 1 .9-1.14 2.25 2.25 0 0 0 .62-.67s-.13.61-.17.91-.11.45-.22 1-.6 1.16-.77 1.81a7.66 7.66 0 0 0 .09 2.81 2.59 2.59 0 0 1-.39 2.03zm2.14-1.89a2.2 2.2 0 0 1-.4 1c-.27.34-.65.74-.65.74a1.63 1.63 0 0 0 0-.74 26.29 26.29 0 0 0-.41-3.09 3.21 3.21 0 0 1 .54-1.85s.09.19.54 1.53a4.41 4.41 0 0 1 .36 2.4zm-.32-4.39a4.87 4.87 0 0 1 .11-1.49 7.8 7.8 0 0 1 .73-1.7 8.58 8.58 0 0 0 .84-2 20.37 20.37 0 0 1-.24 4 9.84 9.84 0 0 0 .69-1.82 11.77 11.77 0 0 0 .14-3.13 12.78 12.78 0 0 0-.53-2.2 1.78 1.78 0 0 1-.1-1.18 9.38 9.38 0 0 0-.06-3.75 4.31 4.31 0 0 1 1.26 1.81 13 13 0 0 1 1.6 4.5 10.76 10.76 0 0 1 0 4.76 5.72 5.72 0 0 1-1.56 2.24 10.06 10.06 0 0 0-2 2.34c-.2-.61-.8-1.94-.91-2.39zm5-6.76a17.45 17.45 0 0 0-1.94-5.44l-.32-.38A10.68 10.68 0 0 1 61 23a7.15 7.15 0 0 1-.2 4 6.63 6.63 0 0 1-.41 1.31 14.47 14.47 0 0 0-.16-3.94zM47.15 5.25c.59.11 1.3.29 1.3.29a15.66 15.66 0 0 1 4.76 2.6A39.43 39.43 0 0 1 59 13.92c.25.2 2 3.42 2.29 3.89s.72 1.36.93 1.67a6.28 6.28 0 0 1 .78 2.79 19.18 19.18 0 0 1-.1 4.31 10.5 10.5 0 0 1-1.25 3.69 24.22 24.22 0 0 1-2.41 3.14 21.28 21.28 0 0 1-2.82 2.4 9.22 9.22 0 0 1 1.5-3.55c1.21-1.67 2.36-2.29 3-3.68a13.2 13.2 0 0 0 .95-3.61 9.8 9.8 0 0 0-1-3.87 8 8 0 0 0-2.17-2.48 8.61 8.61 0 0 1-1.87-1.87c-.18-.27-.32-.48-.38-.59a33.15 33.15 0 0 1-1.64-3.9C54.3 10.81 52.39 9 52 8.59a27.65 27.65 0 0 0-2.93-2.19 20.59 20.59 0 0 0-2.15-1.09s-.36-.17.23-.06zm-2.3-.87a7.11 7.11 0 0 1 1.66 1l1.49 1c.58.39 1.59 1 2 1.3A26.66 26.66 0 0 1 52.44 10a19.47 19.47 0 0 1 2.17 3.44A21.58 21.58 0 0 1 56 17.86a31.76 31.76 0 0 1 .29 3.53.83.83 0 0 1-.2.69c-.13.08-.74-.45-1.16-.76a11.87 11.87 0 0 0-3.25-1.19A2.66 2.66 0 0 1 49.42 19a4.26 4.26 0 0 1-.18-2.57 24.15 24.15 0 0 0 .39-3.84 7 7 0 0 0-1.53-3.83c-.42-.43-1-1.12-1.1-1.15s-2.94-2.39-4-3.2c0 0 .07-.62 1.85-.02zM37.65 4a3.54 3.54 0 0 1 1.85-.4 2.39 2.39 0 0 1 2.4 1.5 12.34 12.34 0 0 1 1 6.19s.58-.32.3-3.67a15.77 15.77 0 0 0-.47-2.26c-.19-.36-.13-.65.45-.28a31.2 31.2 0 0 1 3.4 2.81 14.66 14.66 0 0 1 1.94 2.89A10.25 10.25 0 0 1 48.9 15c-.07.55-.15 2.55-.81 3.23-.17 0-.19.26-.94.37a13.21 13.21 0 0 1-2.58 0 7.51 7.51 0 0 1-1.57-.37 3.82 3.82 0 0 0-1-.23c-.24 0 .75-.21.88-1.38a12.14 12.14 0 0 0-.34-2.81c0-.22-.24.21-.22 1.07a3.34 3.34 0 0 1-1.07 2.62 8.08 8.08 0 0 1-3.33.67 9.46 9.46 0 0 0-2.17.6c-.19.07-.65.3-.73-.39s-.64-2.52-.8-3.16a15.79 15.79 0 0 1-.41-3.14 12.63 12.63 0 0 1 .37-2.21 23.4 23.4 0 0 1 1.1-2.75A12.38 12.38 0 0 1 37.65 4zm-5.39.3A8 8 0 0 1 36 4a9.13 9.13 0 0 0-2.09 1.7c-.71.88-2.51 2.9-2.75 4.53s-.07 1.4-.07 1.4a12.5 12.5 0 0 1 .82-2.39c.36-.52 2.17-3.31 3.16-3.91s.79-.06.79-.06l-.06.08a12 12 0 0 0-1.63 3.15 10.46 10.46 0 0 1-.36 1.29l-.56 2.81c-.11.55-.75 1.25-1 2a13.27 13.27 0 0 0-.71 2.64c0 .65 0 1.07-.26 1.2a1.82 1.82 0 0 1-1.59-.21c-.36-.37 0-1.72.34-2.24a8.63 8.63 0 0 1-1.18 1.53 5.24 5.24 0 0 1-2.17.73 21.4 21.4 0 0 0-2.26.75c-.37.17-1.07.64-1.4 0a8.14 8.14 0 0 1-.41-2.36 10.73 10.73 0 0 1 .39-3.22c.49-1.83 3.2-5 4.66-6.45a12.45 12.45 0 0 1 4.6-2.71zm-6.82 3.21a24.2 24.2 0 0 1 3.35-2A6.65 6.65 0 0 0 27 6.88 20.85 20.85 0 0 0 23.59 11c-.79 1.37-1.7 2.32-1.48 6.36a9.8 9.8 0 0 1 .28 1.5 1.1 1.1 0 0 1-.64 1c-.34.09-.79-.17-1.12-.75a.62.62 0 0 0-.16-.19 6.41 6.41 0 0 1-.34-3.1c.21-1.95 1.87-4.51 2.34-5.26a15.77 15.77 0 0 1 2.97-3.05zM14.25 22.25a16.34 16.34 0 0 1 1.66-6 16.55 16.55 0 0 1 4.81-6A5.71 5.71 0 0 1 22.91 9a31.7 31.7 0 0 0-2.36 3.25.45.45 0 0 1 0-.13 18.66 18.66 0 0 0-2.43 3.39 15.29 15.29 0 0 0-1 3.39 1.63 1.63 0 0 1-.34.67c-.26.3-1 .94-1.44 1.48a11.13 11.13 0 0 0-.8 1.66c-.14.12-.31.21-.29-.46zm3 11.43a16.73 16.73 0 0 1-2.71-5 7 7 0 0 1-.09-4.88 10.64 10.64 0 0 1 2.54-3.7 15.21 15.21 0 0 0 .13 2.6 8.13 8.13 0 0 0 .76 2 3.34 3.34 0 0 0-.93 2 12.69 12.69 0 0 0 .22 5.65 12.94 12.94 0 0 0 .74 2.06zM24 39.81c-.6-.17-1-.75-1.66-1.59S21.49 36.58 21 36s-.43.17-.43.17a4.49 4.49 0 0 0 .56 1.1l1.61 1.87a1.22 1.22 0 0 1-.77-.3 12 12 0 0 1-2.52-2.41 19.35 19.35 0 0 1-1.72-3.74 9 9 0 0 1-.69-4.08s.47 3.57 2.23 5.09a16.17 16.17 0 0 1-1.72-5.16 6.56 6.56 0 0 1 .19-3.2s.07-.15.19-.12 0 .26 0 .44a5.79 5.79 0 0 0 .54 2.45 14.37 14.37 0 0 1 .95 2v.06a16.74 16.74 0 0 0 1 3.24A20.82 20.82 0 0 0 23 37.12c.77.88 1.89 1.76 2.6 2.51a4.28 4.28 0 0 1 .34.41 5.12 5.12 0 0 1-1.94-.23zm3.14.6a32.7 32.7 0 0 1-3.33-3 24.25 24.25 0 0 1-2.9-4.68c-.13-.29-1.25-3.13-1.31-3.29v-.06c-.22-.62.22-.22.22-.22s.41.54 1.53 2.3a34.62 34.62 0 0 0 4.19 5A15.1 15.1 0 0 0 30 39.14c.56.41.52.7.68 1.35s.07.62-.9.67a5.61 5.61 0 0 1-2.62-.75zM15.73 72.79c-1.12-.34-.9-.73-1.32-1.63A2.1 2.1 0 0 0 13.23 70s.31 0 1.43-.25a3.68 3.68 0 0 0 1.8-.93c-.31.08-3.56.9-4.12.53s-.65-1-.84-1.46a12.51 12.51 0 0 1-.87-1.46c-.22-.62 0-.81.48-1a28.93 28.93 0 0 1 3.7-.62 23 23 0 0 0 4.57-1.49 17.83 17.83 0 0 0 3-2.1s.45-.07.36.58a2.83 2.83 0 0 1-1 2.06c-.9.9-1 .94-1 1.08s.24.09.49 0 1.29-.79 1.29-.79.15-.24.34 0l.58.84s-.13 2.81-.16 4.28a9.21 9.21 0 0 1-1.42 1.26c-1.48 1.17-5.01 2.6-6.13 2.26zm3.17 1c.39-.07.62-.06.71.34s-.21.39-.21.39c-.43-.24-1 .09-1-.19s.1-.49.5-.56zm-1 1a1.77 1.77 0 0 1 1.63.47 1.59 1.59 0 0 0 .24.67 1.52 1.52 0 0 1 .36.69c0 .15-.07 0-.07 0a1.36 1.36 0 0 1-.8-.09c-.37-.19-.64-.77-1.18-.86s-.75-.06-.86-.43.29-.45.65-.45zm4.79 4A7.63 7.63 0 0 1 19 78.7c-1.07-.28-2-.8-2.26-1.51s.15-.94.43-1a2.45 2.45 0 0 1 1.72.75 2.29 2.29 0 0 0 2 .22 1.14 1.14 0 0 0 .82-.65 1.47 1.47 0 0 1-1.07-.64 2.46 2.46 0 0 1-.5-1.85 3 3 0 0 1 .19-.94.73.73 0 0 1-.26-.5 22.71 22.71 0 0 0 3.18-1.71c.06 2.06.24 6 .26 7.26a1.37 1.37 0 0 1-.85.67zm.84-15.21l-.39-.47s.24 0 .28-1.14-.3-1.65-.52-1.74a.67.67 0 0 0-.44 0v-.31a8.92 8.92 0 0 0 .93-.81 4.81 4.81 0 0 0 .44-.59zm.65 14.21c0-.34.06-.77.82-.88a12.14 12.14 0 0 1 1.81 0c-.35.62-2.09 2.71-2.44 3.13-.12-.89-.22-2.04-.22-2.23zM25 81.9c-.58 0-.41-.36-.5-.6v-.06c.45-1.58 2.64-3.7 2.88-3.6A35 35 0 0 1 29.05 82h-.2c-.96-.08-3.26-.14-3.85-.1zm9.24-4.28c.44 0 2.37.11 3.13.11h.37a10.35 10.35 0 0 1-1.18 3.59c-.59 1-.87 1.23-1.09 1s-1.6-3.74-2-4.73l.78.07zm14.08 3.7a36.71 36.71 0 0 1-3.47-3.82h.5a38.08 38.08 0 0 0 5-.67 8 8 0 0 1-2.02 4.49zm2.64-4s1.6 2.69 1.12 3.28a2.74 2.74 0 0 1-1.1.7c-.76.2-1.54.4-2 .47A28.45 28.45 0 0 0 51 77.28zm-3.12 4.66a41.93 41.93 0 0 1-5.64.56 28.71 28.71 0 0 0 2.4-4.29zm-6.19.34a14.34 14.34 0 0 1-1.37-3 4.19 4.19 0 0 0-1.05-1.58c1.39 0 3.25-.09 4.72-.15a17.57 17.57 0 0 1-2.3 4.69zm-.51.25h-4.82c.83-.82 2.06-4.41 2.27-4.26s2.27 3.69 2.55 4.22zm-2.77 30.53a.19.19 0 0 0 0 .11.53.53 0 0 1 0 .23c0 .22-.52.37-.67.41s-.75.43-.73-.43c0-.31.05-.71.08-1.13a3.38 3.38 0 0 0 .78 0 1.53 1.53 0 0 0 .65-.19 2.24 2.24 0 0 0-.11.96zm-2.08-4.28l-.06-.06h.11s.24-.19 1.08.17a1.47 1.47 0 0 1 .73.82 2.7 2.7 0 0 1 .14.77c-.32-.19-1.17-.7-1.84-1 .06-.14.13-.39-.16-.74zm-3.59-.12h-1.78a1.38 1.38 0 0 0 .28-.36.71.71 0 0 1 .33-.26 8 8 0 0 1 .9 0h-.11s.88.08.39.58zm-1.13-1.15c-.6 0-1-.86-1.22-1.14a5.5 5.5 0 0 0 .85.26 18.19 18.19 0 0 0 5.27-.17 4.2 4.2 0 0 0 1.75-.64 3.51 3.51 0 0 1-.58 2.07v.06s-.32.28-1.85.09-3.61-.55-4.21-.57zm4.06 1.61a19.22 19.22 0 0 0-1.92-.37 2.08 2.08 0 0 0-.11-.61c.6.12 1.26.28 1.54.35a.7.7 0 0 1 .5.59zm-2.19 1.46c.15-.16.2-.12.26-.5a3.39 3.39 0 0 0 0-.82 11.28 11.28 0 0 1 1.37.28 2.07 2.07 0 0 1 1.34 1.78l-.18-.06a19.66 19.66 0 0 0-2.8-.58s.01-.13.02-.15zm3.49-5.35a17.62 17.62 0 0 1-5.58-1 28.71 28.71 0 0 0 3.76 0 6.78 6.78 0 0 0 3.21-1 14.1 14.1 0 0 1 0 1.46 3.42 3.42 0 0 1-1.38.5zm.7 5.63a4.11 4.11 0 0 1 .39.22c.14.19.18.41-.11.47a2.5 2.5 0 0 1-.8-.06 2.6 2.6 0 0 0-.21-1c.33.1.59.26.74.33zm-3-28.35c-.77 0-3-.27-4.54-.42.9-.81 2.51-3.93 2.82-3.9s1.49 3.52 1.74 4.27zm-4.53-1.18c-.42.84-.59.11-.59.11-.3-1-1.37-3.83-1.59-4.41l1.43.11c.36 0 1.72.18 2.92.31-.4.7-1.8 3.12-2.15 3.83zm-2.39 15.87s-.41-.58 0 1.1 1 2 1 2a3.12 3.12 0 0 1-1.42-1.1c-.64-.86-.71-2.77-.8-3.44a28.78 28.78 0 0 1-.06-4.56 1.34 1.34 0 0 1 .56-.77c.13-.15-.13-.21-.32-.56s-.39-1.72-.62-2.17a11.26 11.26 0 0 1-.15-2.62l.14-2.9h.18c.5 0 3.76.64 5.7.84s3.39 0 4.49.21a12.53 12.53 0 0 0 1.44.15 2.72 2.72 0 0 1 .54 1.58c.11 1.22 0 6.66 0 7.5s.07 4.54-.6 6.32-1.48 2.13-2.3 2.34a1.25 1.25 0 0 0 .28-1s0-.54-.32.09a1.6 1.6 0 0 1-1.33 1 5.46 5.46 0 0 1-4.34-1.25 6.12 6.12 0 0 1-2.07-2.76zM38.26 102a3.1 3.1 0 0 1-1.82.68 14.27 14.27 0 0 1-5.56-.86 9 9 0 0 0 3 .18 11.3 11.3 0 0 0 3.63-1.33c.82-.57.71 1.33.75 1.33zm-8.77 1.17a13 13 0 0 1-.08-1.6v-.08c1.51 1.16 2.19 1.14 3.92 1.5a14.78 14.78 0 0 0 4.1.06c-1.09.67-4.74.76-6.26.62a3.29 3.29 0 0 1-1.69-.46zm.13.86c1.66 1.57 5.62 1.57 6.46 1.63s1.49-.14 1.07.06a26.54 26.54 0 0 1-3.09.53c-2.86.13-3.78-.48-4.06-.79a9.85 9.85 0 0 1-.39-1.38zm-1 4.53c.24-.24.47-.34 1.31-.52.51-.11.65-.07.68 0s-.16.13-.42.42a2.22 2.22 0 0 1-1.1.41h-.45s-.26-.02-.02-.26zm-2 1.93c.1-.14.63-.75 2.67-1.15.28 0-.64 1.12-.64 1.12l.94-.07a2.8 2.8 0 0 1 .56-1.08c.39-.41 1.38-.28 1.74-.3h.36a.62.62 0 0 1 .5.58 1.1 1.1 0 0 1-.36.88c-.36 0-.73-.06-1.1-.07a19.56 19.56 0 0 0-4.26.3c-.43.13-.45-.05-.43-.15zm-.69 1.15c.31-.06.92-.1 1.16-.13l1-.11c-.11.29-.35 1.19-.41 1.37s-.23.67-.62.49c-1.34-.61-1.15-1.56-1.15-1.56zm1.16 3.87c-.69-.3-1.27-.64-1.37-2.28v-.06a3.76 3.76 0 0 0 1.5.89c0 1.37.56 1.67.56 1.67a6.61 6.61 0 0 1-.71-.16zm4 .37a.73.73 0 0 1-.47.27c-.42 0-.74 0-.77.05a4.06 4.06 0 0 1-.7-.12 3.71 3.71 0 0 1-.7-.55 1.81 1.81 0 0 1-.32-1.22h.1a18 18 0 0 0 2.91.31 1.84 1.84 0 0 1-.09 1.32zm.39-2.09a6.45 6.45 0 0 1-3 0 1.15 1.15 0 0 1-.07-1.35 4.78 4.78 0 0 1 .68-1.11c.45 0 .92-.05 1.37-.05s1 0 1.58.09c.1.06.17.19.1.45-.14.64-.32 1.78-.69 2.03zM36 115c-.15.47-.36 1-.77 1.07a3.51 3.51 0 0 1-.66.08h-1.7a.92.92 0 0 1-.67-.47.64.64 0 0 1 .36-1h.5c.34 0 1.71 0 2.94-.08v.4zm.11-1a17.64 17.64 0 0 1-3.14 0c-.43-.11-.43-.36-.39-.71a16.86 16.86 0 0 1 .6-1.76c.94.11 1.77.23 2 .28s.57.14 1 .24a.56.56 0 0 1 .33.5c-.05.4.01 1.35-.44 1.45zm2.24 1.35c-.05.06-.07.11-.06.14A2.26 2.26 0 0 1 37 116c-.28 0-.55 0-.55-.11a2.48 2.48 0 0 1 .49-1.16c.19-.11 1-.09 1.23-.21l.38-.16a1.05 1.05 0 0 1-.24.97zm.86-4.66a6.07 6.07 0 0 1-.41-1.8c-.17-1.33.11-6.21 0-7a4.44 4.44 0 0 0-.06-1.7 2.47 2.47 0 0 1 0-1.76 6.31 6.31 0 0 0 .39-1.95 11.91 11.91 0 0 1 .49 2.13 8.55 8.55 0 0 1-.09 1.81v7.63a8 8 0 0 1-.22 1.83 2.64 2.64 0 0 0-.14.79zm.49 1.31c.32.06.17.24.67.3a2.31 2.31 0 0 0 .71 0c0 .52 0 1.08.1 1.46-.46.48-1.27-.18-1.27-.18a1.55 1.55 0 0 1-.5-.83s-.03-.83.29-.75zm4.49-7.61s1.81.06 2.52 0a16.34 16.34 0 0 1-3.55 1.07 5.84 5.84 0 0 1-3.21-.52c0-.51-.05-1.08-.06-1.58a8.26 8.26 0 0 0 4.29 1.01zM39.91 102a3.58 3.58 0 0 1 .23-1.27c.19-.34.6-.32 1 .21s2.24.94 3.83 1a8.28 8.28 0 0 0 2.87-.36 8.18 8.18 0 0 1-2.61.79 10.91 10.91 0 0 1-4 .15c-.72-.06-1.01-.1-1.32-.52zm6.09 7.1h.15a9.43 9.43 0 0 1 1.73.06 1.06 1.06 0 0 1 .42.5 7 7 0 0 0 .47.8h-.42c-1.33 0-2.51.09-2.51.09s-.84-1.25.16-1.45zm-.6-.4a.47.47 0 0 1-.14-.33s0-.28.26-.32a2.91 2.91 0 0 1 1.33 0h.06l.42.56c-.78.02-1.47.06-1.97.09zm1.48-1.25a14.14 14.14 0 0 1-2.69.26c-.73.09-2.3.34-2.92.36a1 1 0 0 1-1-.64c-.24-.43 0-.82-.13-1.37v-.31a8.56 8.56 0 0 0 3.1.91 13.27 13.27 0 0 0 4.66-.24 1.83 1.83 0 0 1-1.06 1.03zm-3.95 1.07a15.63 15.63 0 0 1 1.76-.28v.51a16.2 16.2 0 0 0-2.18.48.56.56 0 0 1 0-.25h.06c-.01 0 .04-.35.32-.46zm-.09 1.16a7.26 7.26 0 0 1 1.79-.44 2.38 2.38 0 0 1 0 .27 4.11 4.11 0 0 0 .15 1.15l-2.89.64a4 4 0 0 1 .25-.93c.08-.09.42-.54.66-.69zm-2-.75a1.37 1.37 0 0 1 1-.22l-.07.45a2.37 2.37 0 0 0 0 .3v.09c-.47.26-1.37.76-1.58.85s-.19-.17-.19-.17a2.34 2.34 0 0 1 .8-1.3zm.54 1.46a6.54 6.54 0 0 0-.22.75 2.12 2.12 0 0 0 0 .24 1.82 1.82 0 0 1-.67.14c-.28 0-.26-.32-.13-.52a4.25 4.25 0 0 1 .98-.61zm-.87 5.48c-.45-.47-.69-.52-.88-1.38v-.1a14.11 14.11 0 0 0 1.81.33 4.74 4.74 0 0 0 .45 1.22s-.98.4-1.43-.07zm1.55-2c-.09-.21-.16-.3-.2-.4a4.49 4.49 0 0 1-.07-1s0-.41.22-.47 3.1-.43 3.1-.43v-.11a7.31 7.31 0 0 1 .75 1.81 1.87 1.87 0 0 0 .06.22.38.38 0 0 1-.21.42 9.45 9.45 0 0 1-2.64.11C42 114 42 113.89 42 113.89zm3.63 2.21a16.37 16.37 0 0 1-2.59-.08l-.19-.06a2.65 2.65 0 0 1-.67-1.33c.26-.06 2.79 0 3.46.06s.41.8.41.8a.52.52 0 0 1-.47.62zm.8-3s-.26-1.18-.36-1.37-.09-.39.37-.43a9 9 0 0 1 2.75 0c.37.28.45.73.58.86a2.13 2.13 0 0 1 .26 1.16c0 .39-.43.5-.71.56a11 11 0 0 1-2.47-.07c-.39-.04-.46-.65-.46-.65zm2.4-3.76zm1.26 5.52a1.61 1.61 0 0 1-1 1.25 2.82 2.82 0 0 1-1.91 0 1.3 1.3 0 0 1-.24-.55 2.55 2.55 0 0 1 .06-.88 8.77 8.77 0 0 0 1.68 0c.79-.11 1.46-.5 1.48-.36a2.06 2.06 0 0 1-.11.6zm1.68.26a3.69 3.69 0 0 1-1.28.6 5.77 5.77 0 0 0 .27-.55 2.93 2.93 0 0 0 .22-1.13 3.76 3.76 0 0 0 1.44-.81 2.07 2.07 0 0 1-.68 1.95zm.47-3.48a1.21 1.21 0 0 1-.3.92 2 2 0 0 1-.94.71c-.22 0-.26-.19-.36-.37s-.58-1.55-.58-1.55l.94.1zm-.67-1.16s.25.33-.32.26a16.82 16.82 0 0 0-1.76-.27l-.65-1.1a4.91 4.91 0 0 1 2.69 1.17zm-2.49-2.3c.52.28.6.6.6.6a10 10 0 0 0-1.48-.17.46.46 0 0 1-.18-.15c-.15-.25-.3-.45-.4-.47a3.42 3.42 0 0 1 1.42.25zm-1-2.63a10.19 10.19 0 0 1-6.09.48s-1-.24-1.14-.47.56.07.9.15a11.12 11.12 0 0 0 4.13-.47 14.07 14.07 0 0 0 2.64-1.22c-.11.47-.27 1.06-.44 1.58zm.7-2.46a1.48 1.48 0 0 1-1.16.62 30.34 30.34 0 0 1-5.35-.13 4.37 4.37 0 0 1-1.67-.63 18.3 18.3 0 0 0 3.37.24 13.1 13.1 0 0 0 4.15-1.08 5.23 5.23 0 0 0 .61-.43 5.25 5.25 0 0 1 .06 1.46zm3.44-16.86a7.68 7.68 0 0 1-1.07 4.06s-.15.09.26.32.3 2.08.3 2.67a10.33 10.33 0 0 1-.36 4.49c-.73 1.76-1 2.06-1.85 2.49 0 0-.41.22.09-.39a5.22 5.22 0 0 0 1-2.82c.07-1.14 0-2-.11-2s-.3 2.43-.73 3.22a5.57 5.57 0 0 1-5.39 3.07 1.62 1.62 0 0 1-1.65-.94 8 8 0 0 1-.52-2s-.21-.47-.06.58a5.21 5.21 0 0 0 .6 2.15 2.33 2.33 0 0 1-2-1.25h-.13l.13-.08S40.22 98.16 40 97a34.48 34.48 0 0 1-.75-5.93c0-2.23.24-7.86.24-7.86s2.47.12 4.75 0a25 25 0 0 0 5-.65c.84-.12 1.95-.45 2.86-.61.09 0 .23.15.23.74-.03.95-.01 2.62-.05 3.57zm1.63-6.79a1.94 1.94 0 0 1-.23.66c-.15.12-.37.21-.53 0s-1.36-2.81-1.87-3.48a7.17 7.17 0 0 0 2.18-1v.52c.1 1.14.6 2.55.45 3.35zM58.5 61a34.08 34.08 0 0 1-4.59-1.45A2 2 0 0 1 53 57c.39-1.49 1.15-1.88 1.23-4 0 0 .08-1.07-.56.48s-1.63 3.06-1.54 3.53-.34-.48-.42-2-.11-4.85-1.15-5.44c0 0 .31 2.33.39 2.95s.22 3 .34 4.15a7.35 7.35 0 0 0 1.46 3.25s.06 3.39.11 4.11.65 5.14.64 7c0 1.29-.07 2.72-.08 3.85a4.24 4.24 0 0 1-1.43.83 4.32 4.32 0 0 1-1.68.48c-.45-.06-3.9.36-5.3.53s-5 .56-5.53.53L34.22 77 31 76.67c-.5-.06-3.33-.17-3.89-.17s-2.34.11-2.82-.79-.22-2.3-.17-3.53-.21-4.66-.15-6 .8-8.66.69-9.89c0-1 .53-3.87.56-4.12s.2-1.09-.06-1.12S23.89 54 24 55s.28 2.1-.25 1.94-.75-2.33-.75-2.72a8.39 8.39 0 0 0-.31-1.91 7.4 7.4 0 0 0 0 3.09 5.49 5.49 0 0 0 .65 2 7 7 0 0 1-.39.93c-.17.28-.87.87-1.26.84a12.74 12.74 0 0 1-3-1 8.27 8.27 0 0 0-2.81-.81c-.93-.11-.5.25-.36.42a9.21 9.21 0 0 0 2.24.84 14.81 14.81 0 0 1 3.11 1.15 1 1 0 0 1 .31 1.43 14.31 14.31 0 0 1-2.52 1.49 19 19 0 0 1-5.19 1.63 4 4 0 0 1-1.68-.08s-1.43-4.91-1.63-5.89-.81-3.25.17-5.3a4.49 4.49 0 0 1 2.75-2.55c.5-.25 7.71-3.65 8.36-4 1.68-.85 2.19-1.91 3.37-2.81a8.23 8.23 0 0 1 3.31-1.18c.47-.13 2.07-.83 2.32-.94.34.16.89.41 1.34.59.14.07.59.24 1 .39a2.13 2.13 0 0 1 .45.49 2.72 2.72 0 0 1 .37 1.31c0 .77.32 4.77.32 5.7a11.91 11.91 0 0 0 .64 2.88c.13.41 2.21 1.27 3.78 1.42a2.49 2.49 0 0 0 2.38-1c.07-.13-.26-8.36 0-8.94s.55-1.64.92-1.9l.28-.23.13-.06a10.58 10.58 0 0 1 2.28-.75h.14c.14 0 1-.16 3.29.79 2.47 1 7.29 3.93 8.11 4.29s6.85 2.47 6.76 2.83-.62.56-1.07 1.21A17.37 17.37 0 0 0 59 56.8a41.46 41.46 0 0 0-.5 4.2zm7.92 4.64c-.7-.08-2.52-.28-3.06-1s-1.37-1-1.6-4.69c0 0-.28-.28-.28 1.68a5 5 0 0 0 .45 2.61 1.88 1.88 0 0 1-1.68-.39c-.81-.67-1.23-1.09-1.07-3.62a27.18 27.18 0 0 1 2-7.63c.67-1.46 1.49-2.72 2.69-2.67a2.43 2.43 0 0 1 1.8.87 3.63 3.63 0 0 0-2 .65 3.77 3.77 0 0 0-1 1.91 2.81 2.81 0 0 1 2.22-2 5 5 0 0 1 1.66.08c1 .2 1.8.45 2.13.5.65.2 1.4.56 1.07.73a6.75 6.75 0 0 0-1 .76 9.53 9.53 0 0 0-2.41 4.52 21.21 21.21 0 0 0 .34 6.82c.16.53.44.95-.26.87zm2.52-2.5c0 .28-.22 1.94-1.07 2s-1-2.47-1-2.47-.36-1.4.59-1.26a8.8 8.8 0 0 1 1.57.36s-.08 1.09-.08 1.37zm2.22-8.22a24.77 24.77 0 0 0-1 4.18c-.11 1.46 0 2.16-.73 2s-2.08-.25-2.5-.76.25-3.23.34-3.56a7.54 7.54 0 0 1 2.16-3.09 3.55 3.55 0 0 1 2 .62c.07.25-.35.61-.27.61zm5.75-3.2c-.06-.11.17-2.3 1.07-.87v2a3.35 3.35 0 0 0 .79 2.47c.06.05-.59.06-1 .34s-1.15.48-1.23.11c-.02-.01.46-3.93.38-4.05zm3.76 7.41a8.84 8.84 0 0 1-.56 1.32 4.45 4.45 0 0 0-.08.9 1.2 1.2 0 0 1-.84.84 2.89 2.89 0 0 1-2 .93 4.72 4.72 0 0 1-2.86-.53c-.39-.39.25-.34.25-.34a7 7 0 0 0 2 .31c1.15 0 1.32-.42 1.32-.42-3 0-3.34-.34-4.07-.76a.76.76 0 0 1-.39-1 3.05 3.05 0 0 0 1.35.45 10.37 10.37 0 0 0 3.45-.08c1.12-.36.34-.28.34-.28a13.56 13.56 0 0 1-4.52-.5c-1.29-.5-1-1.49-1-1.49a1.4 1.4 0 0 0 1 .5 26.42 26.42 0 0 0 3.14.02 2.24 2.24 0 0 0 1.54-.56.34.34 0 0 0 0-.39 1.8 1.8 0 0 1-.79.31 13.35 13.35 0 0 1-3.62-.11c-.84-.22-1.23-.76-1.18-1s.42-.39.93-.62a23.41 23.41 0 0 1 3.14-.06A3.28 3.28 0 0 0 78.4 56a1.09 1.09 0 0 1 1.43.53 4.32 4.32 0 0 1 .22 1.15 2.18 2.18 0 0 1 .63 1.45z" fill="#5d3328"/><circle cx="26.77" cy="80.65" r=".41" fill="#5d3328"/><circle cx="30.06" cy="78.29" r=".41" fill="#5d3328"/><circle cx="32.8" cy="81.25" r=".41" fill="#5d3328"/><circle cx="35.72" cy="78.92" r=".41" fill="#5d3328"/><circle cx="41.67" cy="78.77" r=".41" fill="#5d3328"/><circle cx="45" cy="81.13" r=".41" fill="#5d3328"/><circle cx="48" cy="78.59" r=".41" fill="#5d3328"/><circle cx="50.85" cy="80.12" r=".41" fill="#5d3328"/><circle cx="52.94" cy="77.24" r=".41" transform="rotate(-35.54 52.94 77.231)" fill="#5d3328"/><path d="M62.24 23.5s-.26 2.64-1.06 3.3-1.43 1.1-1.43 2.28.25 2.24 1.25 2.64a2 2 0 0 1 1 .55 26.43 26.43 0 0 0 3.82 5.17c1.87 1.72 7.34 3.41 7.34 3.41.26 0 0 1.72.33 2.39s1.36 1.61 3.52 1.5 2.68-.29 3.12-1.21a4.78 4.78 0 0 0 .26-2.28l4.15-1.58a53.67 53.67 0 0 0 5.8-4.18 29.19 29.19 0 0 0 2-3.6c.18-.22 1.76-.44 2-.62a3 3 0 0 0 .37-2 1.77 1.77 0 0 0-.92-1.14s-1.06-.48-1.5-2.75a4 4 0 0 0-2.42-3.3c-.62-.18-4.88-.48-4.88-.48-.18 0-.7-.4-1.06-1.39S81.33 15 81.33 15c-.84-1-.26 2.83-.37 4s.26 2.05-1.65 2.53a20.5 20.5 0 0 1-6.5.29c-.66-.26-1.47-2.05-1.47-2.05s-.07 1.76-1 2.17-2.94-.26-2.94-.26A2.5 2.5 0 0 1 65.55 23c-1.47.25-3.05-.27-3.31.5z" fill="#efddca"/><path d="M58.13 23a6.51 6.51 0 0 0 1-3.19 9.66 9.66 0 0 1 1.43-4.18 29 29 0 0 1 2.83-3.49 8.3 8.3 0 0 1 3.85-1.91c1.36-.26 3.19-1.28 4.7-1.72a8.71 8.71 0 0 1 5.47 0A5 5 0 0 1 80 8.05a29.44 29.44 0 0 1 8 2.57c2.68 1.39 5.28 5.25 5.58 6s1.17 4.48 1.39 5.28a3.57 3.57 0 0 0 2.35 2.17c1.1.26 2.17.4 2.72-.15s1-1.14 1-1.47-3.27-2.64-3.71-3 1.69-.07 2.46-.81a5.34 5.34 0 0 0 1.21-3.5c-.11-1-.4-.84-.4-.84s-6 2.24-6.13 1.91-1-3.67-1.91-4.81S87.89 5.67 82 5s-11.72.3-13.59 1.07a11.76 11.76 0 0 0-3.23 2.05 9.93 9.93 0 0 0-3.52 1.36 15.16 15.16 0 0 0-3.82 5.76c-.59 2.13-1 4.48-.48 6.13s.33 1.84.77 1.63z" fill="#e18020"/><path d="M81.22 26.86a4.34 4.34 0 0 1 2.57-1.65c1.5-.18 2.28 0 2.83.62s1.14 1 1 1.28-.51.51-1.61.7-1.47.55-2.57.33a3.88 3.88 0 0 1-2.22-1.28z" fill="#fff"/><path d="M82.87 26.11a1.31 1.31 0 0 0 .29 1.39 1.72 1.72 0 0 0 1.87.33 1.16 1.16 0 0 0 .77-1.1c0-.66-.07-1.25-.33-1.32s-2.05-.55-2.6.7z" fill="#b3d0ee"/><path d="M66.76 27.15a4.34 4.34 0 0 1 2.57-1.65c1.5-.18 2.28 0 2.83.62s1.14 1 1 1.28-.51.51-1.61.7-1.47.55-2.57.33a3.88 3.88 0 0 1-2.22-1.28z" fill="#fff"/><path d="M68.41 26.4a1.31 1.31 0 0 0 .29 1.39 1.72 1.72 0 0 0 1.87.33 1.16 1.16 0 0 0 .77-1.1c0-.66-.07-1.25-.33-1.32s-2.01-.55-2.6.7z" fill="#b3d0ee"/><path d="M67.27 44.86a2.29 2.29 0 0 0 .11 1.8 20 20 0 0 0 3.38 5.28 14.79 14.79 0 0 0 2.31 1.76 36.67 36.67 0 0 1 .66 4.3c.15 1.21 0 4.18.18 4.51a3.62 3.62 0 0 0 2.28.77c1.25.15 3.74 0 4-.48s0-1 .22-2.35.22-5.61 1-6.35 3.52-2.72 4.07-3.85a25.18 25.18 0 0 0 1.58-5c.07-.84-.4-1.17-1.17-1s-2.61-.81-3.34-.92a15.81 15.81 0 0 0-2.35 0 3.29 3.29 0 0 1-2.2 1.49c-1.39.11-3.78-.29-4.44-1.17a1.6 1.6 0 0 0-1.91-.4c-.18.07-2.94.88-3.19 1s-1.19.06-1.19.61z" fill="#fff"/><path d="M87.31 44.71c0 .1-.48 4.15-1.91 5.87s-3.85 3.16-4.15 3.89-.62 5.83-.77 6.79 0 1.43-1.43 1.83a11.31 11.31 0 0 1-4.59-.09c-.59-.18-.7-.7-.77-1.47s.07-5.94-.22-6.53-.26-1.06-.59-1.21A11.52 11.52 0 0 1 69.51 51a41.11 41.11 0 0 1-2.42-5.54c-.22-.92-1.65.26-1.87.51a5.81 5.81 0 0 0-.73 2.86c0 1.21-.77 6.2-.55 7.23s.66 6.57.88 7.49a30.23 30.23 0 0 0 1 3.63 27 27 0 0 0 7.45 1.43 73.35 73.35 0 0 0 12.55-1 12.8 12.8 0 0 0 3.63-1.76 1.83 1.83 0 0 0 .55-1.54c-.11-.66-.4-5.32-.59-6.64a62.92 62.92 0 0 1-.07-7.93c.15-1.61.62-3.27.4-4s-1.88-2.74-2.43-1.03z" fill="#e18020"/><ellipse cx="71.51" cy="61.59" rx="2" ry="2.42" transform="rotate(-24.02 71.528 61.599)" fill="#fff"/><ellipse cx="82.37" cy="62.36" rx="2.42" ry="2" transform="rotate(-75 82.21 62.098)" fill="#fff"/><ellipse cx="86.96" cy="52.79" rx="2.42" ry="2" transform="rotate(-75.12 86.962 52.79)" fill="#fff"/><ellipse cx="65.16" cy="51.98" rx="2.42" ry="2" transform="rotate(-75.12 65.162 51.982)" fill="#fff"/><path d="M57.22 17.67l-1.28 3.27c-.29 1.54-.7 6.09-.7 6.09a23.16 23.16 0 0 0-.29 4.77s.07 3.49.4 5.83 1 5 2.13 6.13A3.13 3.13 0 0 0 59.82 45c.37 0 .77.33 1.1.73s1.61 1.5 2.35 1.36a2 2 0 0 0 1.5-1.1c.11-.44 1.25-1 1.69-1.17s4.48-1.32 4.84-1.47a8.22 8.22 0 0 0 1.8-.84c.15-.22.73-1 0-1.5s-6-1.65-8.11-4.44-3.08-4.33-3.08-4.33a2 2 0 0 1-1.65-1.1c-.37-1-.66-2.75-.37-3.23s1.47-1.14 1.61-1.47.77-3 1-3.23-.29-.44.62-.44 2.2.26 3-.11 1.54-1.21 1.91-1.1 1.72.26 1.72.26c.62-.37 1.72-2.53 1.83-2.53s.88 2.5 1.21 2.53a19.69 19.69 0 0 0 5.91-.07c2.05-.55 2.5-1.47 2.5-1.47a17.18 17.18 0 0 0-.2-5.14c-.26-.48 1 .48 1.25 1.21s1.36 4.51 1.94 4.92 4.37.07 5.47.62a3.73 3.73 0 0 1 2 1.87c.62 1.06.62 2.94.92 3.45s1.5.26 1.76 1.06a2.42 2.42 0 0 1 0 2 4.2 4.2 0 0 1-1.25 1.39c-.48.26-1.54 2.64-3.08 4s-5.47 4.22-7.38 4.77-2.46.66-2.42 1-.11 1.17 1.25 1.65a38.6 38.6 0 0 0 4.92.92 10.51 10.51 0 0 1 3.16 1c1.21.66 1.69.92 2 .81s2.05-1 3.16-1.61a7.48 7.48 0 0 0 2.68-3.6 34.84 34.84 0 0 0 .37-7.89c-.18-2.13-.33-7-.92-8.26a9 9 0 0 0-1.39-2.09c-.07-.15-.92-4.59-1-4.77s-3.12-4.48-4.59-5.61a20.84 20.84 0 0 0-9.94-3.63c-4-.15-6.5-.15-6.75-.07s-5.25 2.17-5.91 2.24a21.34 21.34 0 0 0-3.08 1.17c-1.1 1.14-3.19 3.49-3.45 3.82a3.63 3.63 0 0 0-1.1 2.09c-.11 1.14-.33 4-1 4.88s-1.14 1.14-1.14.88-1.33-4.08-.26-5.69z" fill="#ddad29"/><path d="M79.23 9.71a7 7 0 0 0-3.74 1.1A12.28 12.28 0 0 0 72 15a3.65 3.65 0 0 1 .62-4 9.05 9.05 0 0 0-4.32 4.8 10.63 10.63 0 0 0-.77 5.5 11.4 11.4 0 0 1-1.32-3.38 27 27 0 0 1 1-6.31c.22-.44-3.08.92-4.18 4S61.47 21 61.69 22c0 0-.7-.26-.77-1.61s-.29-.7-.29-.81a34.55 34.55 0 0 1-.84 3.78 11.89 11.89 0 0 1-2.24 3.6c-1 1.17-2.05 1.83-2.24 3.41s-.37-1.94.37-3.38 2.2-2.75 2.39-3.23.7-1.61 1-2.5.4-3.67 1.28-5.28A14.34 14.34 0 0 1 64.63 11a12.17 12.17 0 0 1 3.74-1.21s3.85-2.17 5.58-1.91 4.51.76 5.28 1.83zM79 8.35a10.33 10.33 0 0 1 5 .51 22.57 22.57 0 0 1 6.94 3.85 19.3 19.3 0 0 1 2.61 3.6l.4 1a33.85 33.85 0 0 0-4.66-4.4A18.5 18.5 0 0 0 84 10.73c-.33 0 2.72 1.47 3.27 4.92a16.66 16.66 0 0 0-8-5.94zM59.64 32.53a10.52 10.52 0 0 0-2.53 5.69c-.33 3.38.7 6 1.5 6.46s1.36.15 1.36-.4-.92-2.83-1.1-4.07a14.51 14.51 0 0 1 .48-5c.36-.95.84-3.6.29-2.68zM92.85 33.08s1 0 1.87 2.79a14.1 14.1 0 0 1 .4 6.05c-.07 1.1-.07 1.28.44 1.25s-1 1-1.5 1.21-.92-.07-.77-.55 1-2.94 1.21-3.74a13.76 13.76 0 0 0-.62-4.62c-.37-.92-1.03-2.39-1.03-2.39z" fill="#e9c76c"/><path d="M101.33 67.5s-.34-1 .41-1.32 1.18-.4 1.46-.72a2 2 0 0 0 .41-1.9c-.21-1.11-.7-3.18-.08-4.24s.92-1.29 1.38-1.18.55 1.4.61 1.87a5.21 5.21 0 0 0 1.29 2.7c.84.78 3 1.84 3.28 2.34a6.35 6.35 0 0 1 .41 2.2c0 .47.36.65.25 1.4s-.26 1.54-.44 2.28.25.87-.66 1.71-.84 1.36-1.71 1.4a18.6 18.6 0 0 1-5.26-.5 3.18 3.18 0 0 1-1.82-2.75 7.24 7.24 0 0 1-.06-1.57c.11-.22.05-1.75.53-1.72zM58.37 81.73a10.49 10.49 0 0 0 .39 2.92 17.38 17.38 0 0 0 2.31 4.27 2.82 2.82 0 0 0 2.17.85c.26-.08.41-.61.41-1.1a6.16 6.16 0 0 1 .19-1.46 7.6 7.6 0 0 0-.3-2.64 23 23 0 0 0-.66-3c-.18-.18-1.46.54-2 .39s-2.12-.96-2.51-.23z" fill="#f2e3cb"/><path d="M65.2 68.71s-.36.94 1 1.4 5 1.1 10.79 1.18a40.65 40.65 0 0 0 12-1.87c.54-.21 1.09-.3 1.21-1.27s.3-1.25.08-1.87-.62-.4-.88-.44a21.7 21.7 0 0 1-9.14 2.61 91.45 91.45 0 0 1-12.41-.61c-1.79-.51-2.39-.54-2.56-.3s-.01.68-.09 1.17z" fill="#c66719"/><path d="M64 73.61s.19-2.92 1.07-3.33 1.84 0 3.19.36a48.81 48.81 0 0 0 11.64.63 29.77 29.77 0 0 0 8.89-1.73c.76-.34 1.1-.95 1.49-.63a27.75 27.75 0 0 1 1.62 4.24c.15 1.53.41 5.26.74 7.38s.28 4.43-.25 5-.89 1.73-4.6 2-12.29.8-14.23.69a52 52 0 0 1-7.73-.91c-1.65-.47-1.8-.4-2.15-3.11a24.08 24.08 0 0 1-.28-5.2c.17-.59.6-5.39.6-5.39z" fill="#e18020"/><path d="M63.85 87.4a11.3 11.3 0 0 0-.33 2.83 1.93 1.93 0 0 0 1.29 1.65c.89.33 7.75 1 8.67 1.07S83 93 83.88 93s4.32-.55 5.06-.69a22 22 0 0 0 3.06-.89 3.15 3.15 0 0 0 1.29-2.59c-.21-1.36-.36-2.68-.8-2.72a19 19 0 0 1-6 1.46 118.15 118.15 0 0 1-16.18.61c-3.1-.29-5.46-1.24-5.92-1.16s-.49-.02-.54.38z" fill="#fff"/><path d="M68.42 93.07c0 .1.47 1.73 1.18 2.15a18.94 18.94 0 0 0 5 .74 17.68 17.68 0 0 0 2.75-.72s1 .61 4.71.66 4.24-1.27 4.24-1.27a11 11 0 0 0-.06-1.76c-.1-.07-4.62.34-8.86.22s-8.89-.5-8.89-.5-.1.05-.07.48z" fill="#f2e3cb"/><path d="M68.58 95.71a2.42 2.42 0 0 0 .94 1.79c.95.88 2.88 1.09 4.24 1.16a16.84 16.84 0 0 0 3.88-.66s5 .34 6.16.25a3.89 3.89 0 0 0 2.2-1.41s.34-.88-.11-1.13-2.33.19-3.28.19-5-.23-5.28-.3a12.31 12.31 0 0 0-2.09.14 38.29 38.29 0 0 1-5.12-.11c-1.55-.19-1.47-.35-1.54.08z" fill="#fff"/><path d="M69.74 98.63l2.34 8.12s-.08.78 1.07 1.07a13.36 13.36 0 0 0 4.35.11 9.32 9.32 0 0 1 1.49-.22 29.81 29.81 0 0 0 4.29-.5c.45-.26.65-1.67.66-1.76s1.1-5.05 1.29-5.81.32-2.59.33-2.42-.11.66-2.42.83a51.53 51.53 0 0 1-5.5 0 13.09 13.09 0 0 1-4.29.55c-2.35-.14-3.6-.55-3.61.03z" fill="#c4a076"/><path d="M71.86 107.79s-1.39 1.39-1.65 1.6-2 1.17-2.45 2.39a3.73 3.73 0 0 0-.19 3.05 3 3 0 0 0 2.26 1.57 13.85 13.85 0 0 0 4 0 42.5 42.5 0 0 0 4.32-1.51c.41-.17 1.14.4 1.27.5a16.85 16.85 0 0 0 4.18 1.07 9.16 9.16 0 0 0 4.6-1c.89-.5 1.51-1 1.51-2a3.55 3.55 0 0 0-1.35-2.78 30 30 0 0 0-3.16-2.09c-.19-.28-.84-1.09-1.16-1.16s-1.91.18-2.7.22l-4.93.22c-.18.01-4.13-.42-4.55-.08z" fill="#ddad29"/><path d="M64.92 67.32s-.73-6.53-.73-7.08-.22-6-.15-7.52.37-5.25.37-5.25.33-1.36-1 0a8.86 8.86 0 0 0-2.17 3.71 36.15 36.15 0 0 1-1.58 5.47 51.49 51.49 0 0 0-1.91 6.75c-.15 1.1.15 2.68 0 4s-1 2.2-1.1 3.38-1 3.12-.22 4.29a14.91 14.91 0 0 0 1.13 2.12 2.85 2.85 0 0 0 .38.93 2.33 2.33 0 0 0-.19 1.84c.34.65 0 1.35 1.57 1.68s3.62.15 3.83-.17a1.89 1.89 0 0 0 .47-1.07c0-.52-.23-1.13-.19-1.62s.19-1.18.19-1.51c0 0 0-.05-.1-.09a17.28 17.28 0 0 1 .44-3 53.41 53.41 0 0 0 1.32-5.61 1.81 1.81 0 0 0-.36-1.25zM89.72 48.24s-.1-2.5.41-2.56a3.35 3.35 0 0 1 2.17 1.51c.55.84 3 4.5 3.25 5s2.16 4.43 2.45 5a4.65 4.65 0 0 0 1 1.21 17.55 17.55 0 0 1 3.61 1.87 16.93 16.93 0 0 1 .61 2.61 4.63 4.63 0 0 1 .41 1.9c-.12.47-1.17 1-1.27 1s-1 .54-1 .74a4.6 4.6 0 0 1 0 1.29c-.14.33-.56.52-.58 1.1s-.07 1.14-.19 1.13-1.18-.25-1.18-.25-1.13.8-1.93.41a13.91 13.91 0 0 1-2.64-2.34c-.44-.47-3.14-3-3.14-3a14.15 14.15 0 0 1-1.32-2.59c0-.47-.76-4.91-.85-5.67s-.53-7.1.19-8.36z" fill="#fff"/><ellipse cx="67.66" cy="74.03" rx="2.42" ry="2" transform="rotate(-75.5 67.322 73.837)" fill="#fff"/><ellipse cx="71.31" cy="83.24" rx="2.42" ry="2" transform="rotate(-75.29 71.312 83.243)" fill="#fff"/><ellipse cx="81.58" cy="75.46" rx="2" ry="2.42" transform="rotate(-7.6 81.634 75.513)" fill="#fff"/><ellipse cx="89.69" cy="83.68" rx="2" ry="2.42" transform="rotate(-7.6 89.711 83.686)" fill="#fff"/><ellipse cx="89.8" cy="71.68" rx="2" ry="2.42" transform="rotate(-7.6 89.824 71.747)" fill="#fff"/><path d="M66.22 24.43a7.5 7.5 0 0 1 2.09-.85c1.18-.28 2.06-.25 2.17-.47s-.36-.55-1.21-.5a4.39 4.39 0 0 0-3.05 1.82zM84.41 23.05s2.28.61 2.78.83a3.38 3.38 0 0 0 .83.3c.08 0-.17-.69-1.13-1.1s-1.74-.69-2.48-.03zM77 32.22a7 7 0 0 0 1.6-.09c.53-.15.5-.17.59-.07s-.44.48-1 .59a2.91 2.91 0 0 1-1.61 0c-.29-.18-.46-.37-.37-.42a7.83 7.83 0 0 1 .79-.01zM75 37.21s.84.11 1.78.17a9.91 9.91 0 0 0 2.55-.29c.46-.11 1-.15 1 0s-.53.61-2 .81a6.33 6.33 0 0 1-3-.28c-.33-.17-.92-.5-.33-.41zM71.75 34.84a.84.84 0 0 0-.55.18c-.18.17-.39-.18-.17-.44s.62-.15 1.12.06a7.78 7.78 0 0 0 4.42.94 15.18 15.18 0 0 0 5.34-.84 8.13 8.13 0 0 1 1.54-.66 1.06 1.06 0 0 1 .9.5c.06.18-.26.07-.33 0a.83.83 0 0 0-.59-.15 14.33 14.33 0 0 1-4.57 1.74 12.06 12.06 0 0 1-4.4-.13 26.31 26.31 0 0 1-2.71-1.2zM87.27 25.6a3 3 0 0 0-1-.49 4.76 4.76 0 0 0-1-.15 5 5 0 0 0-2.63.58h-.08a2.56 2.56 0 0 0-1.36 1.61c-.18.55.07.72.28.64a1.85 1.85 0 0 1 1.08.11c.5.17 1.06.33 1.06.33a6.84 6.84 0 0 0 3.23-.37 1.63 1.63 0 0 0 1.06-1.1c-.07-.17.09-.58-.64-1.16zm-4.42 1.94a1.5 1.5 0 0 0-.84-.07c-.24.09-.48.06-.33-.31a4.65 4.65 0 0 1 1-1 1.45 1.45 0 0 0 .28 1.45zm1.64.23a2 2 0 0 1-.46 0h-.09a1 1 0 0 1-.88-1 .64.64 0 0 1 .22-.66.3.3 0 0 1 .33 0c.17.12 0 .24 0 .34a.55.55 0 0 0 .08.52.68.68 0 0 0 .65.32.71.71 0 0 0 .59-.49c0-.19-.17-.45 0-.65a.26.26 0 0 1 .38 0c.28.24.18.72 0 1.14a.91.91 0 0 1-.83.48zm2.24-.33a2 2 0 0 1-1.32.4 2 2 0 0 0 .55-.9 1.38 1.38 0 0 0-.19-1.17c.41 0 .95.64 1.14.86s.16.51-.19.82z" fill="#5d3328"/><circle cx="84.79" cy="26.45" r=".28" fill="#fff"/><path d="M73.39 26.8a2.87 2.87 0 0 0-1.55-1.8 5.31 5.31 0 0 0-3.66.43 3.45 3.45 0 0 0-1.76 1.69c-.12.22.08.44.25.52a3.39 3.39 0 0 0 1.64.77 8.74 8.74 0 0 0 1.39.23 8.31 8.31 0 0 0 2.19-.4 2.15 2.15 0 0 1 .85-.19 1.16 1.16 0 0 0 .65-.11c.12-.06.13-.54 0-1.14zm-6.23.68s-.28-.12 0-.41a2.88 2.88 0 0 1 .91-.69 1.53 1.53 0 0 0-.09.82 1.67 1.67 0 0 0 .34.86 6.57 6.57 0 0 1-1.17-.58zm3.84-.37a1.06 1.06 0 0 1-.61.78 1.56 1.56 0 0 1-1.39-.12 1.37 1.37 0 0 1-.51-1.11c0-.1.1-.22.37-.21s.2.12.23.24a.65.65 0 0 0 .07.38.67.67 0 0 0 .67.36.65.65 0 0 0 .73-.45 1.06 1.06 0 0 0-.06-.7s0-.35.47 0a1.34 1.34 0 0 1 .03.83zm1.87.63c-.11 0-.23-.11-.44-.06s-.87.27-1.38.4a1.81 1.81 0 0 0 .54-1 1.69 1.69 0 0 0-.32-1.22h.07A2.4 2.4 0 0 1 73 27.57c0 .14 0 .15-.08.18z" fill="#5d3328"/><circle cx="70.55" cy="26.59" r=".28" fill="#fff"/><circle cx="74.41" cy="53.78" r=".28" fill="#5d3328"/><circle cx="77.37" cy="52.59" r=".28" fill="#5d3328"/><circle cx="79.97" cy="53.66" r=".28" fill="#5d3328"/><circle cx="77.16" cy="56.05" r=".28" fill="#5d3328"/><circle cx="74.64" cy="58.18" r=".28" fill="#5d3328"/><circle cx="79.53" cy="57.97" r=".28" fill="#5d3328"/><circle cx="76.99" cy="60.08" r=".28" fill="#5d3328"/><circle cx="74.62" cy="61.54" r=".28" fill="#5d3328"/><circle cx="79.39" cy="61.48" r=".28" fill="#5d3328"/><circle cx="64.67" cy="88.68" r=".36" fill="#5d3328"/><circle cx="67.41" cy="90.8" r=".36" fill="#5d3328"/><circle cx="70.76" cy="89.37" r=".36" fill="#5d3328"/><circle cx="74.12" cy="91.35" r=".42" fill="#5d3328"/><circle cx="77.88" cy="89.54" r=".42" fill="#5d3328"/><circle cx="81.2" cy="91.26" r=".42" fill="#5d3328"/><circle cx="84.87" cy="89.5" r=".42" fill="#5d3328"/><circle cx="88.16" cy="90.83" r=".42" fill="#5d3328"/><circle cx="90.77" cy="88.25" r=".42" fill="#5d3328"/><path d="M110.75 67.78a6 6 0 0 1-.06-1.68 2.09 2.09 0 0 0-.52-1.71 9 9 0 0 0-1.49-.83l-.66-.44a1.55 1.55 0 0 1-1.1-.52 4.57 4.57 0 0 1-1.13-2.92c0-1.2-.22-1.78-1.1-1.9s-1.51 1.2-1.6 1.71a7.52 7.52 0 0 0-.08 1 16.12 16.12 0 0 0-2.06-1.49 6.09 6.09 0 0 0-1.29-.66 1.44 1.44 0 0 0-.44-.39c-.29-.17-.56-.18-.55-.25s-1.72-3.33-2.23-4.38a56 56 0 0 0-3.09-5.06 4.83 4.83 0 0 0-.74-1s-1.27-1-.58-1.54 1.76-.91 2.83-1.49 1.38-.83 2.39-2.7 1-5.78 1.07-8.17a42.52 42.52 0 0 0-1.08-9 7.25 7.25 0 0 0 1.76.52 1.55 1.55 0 0 0 1.62-.47 4.47 4.47 0 0 0 1.1-2.06c0-.46-2.36-1.52-3.44-2.78h.08l.94-.28a2.11 2.11 0 0 0 .74-.22c1.35-.66 1.35-2.67 1.38-3.5s-.08-2.37-.25-2-.66.39-1.27.63c-.44.18-1.47.47-2 .6a1.09 1.09 0 0 0-.32.08c-1 .41-2.37 1.07-2.72.91s-.39-1.24-.41-1.4a19.74 19.74 0 0 0-2.55-4.27C90.39 8.3 85.13 5.5 82.57 4.7s-9.38-.52-12.3.52S65.5 7 64.48 8.25a5.11 5.11 0 0 0-3.08 1c-1.76 1.18-3.69 5.31-4.16 7.24S56 19 55.73 20.47s-.5 5.5-.55 6.33a.41.41 0 0 0 0 .14 19.35 19.35 0 0 0-.61 5.31A25.76 25.76 0 0 0 55 38.8a13.61 13.61 0 0 0 2.12 4.9 3.94 3.94 0 0 0 3.11 2 5.39 5.39 0 0 0 2.15 1.57s-1 2.37-1.35 3.39a2.18 2.18 0 0 0-.08.24 19.75 19.75 0 0 0-.81 3.91 14.2 14.2 0 0 1-1 2.15 53 53 0 0 0-1.79 6.36 7.74 7.74 0 0 0-.08 3.05c0 .58-.19 1.4-.28 2.26s-.8 2.56-1 3.72a5.19 5.19 0 0 0 0 2.7 17.27 17.27 0 0 0 1.46 2.39 13.59 13.59 0 0 0-.3 1.51 7.87 7.87 0 0 0 0 1.2 5.63 5.63 0 0 0 .77 1c.19.25-.12.6 0 1.6a10.35 10.35 0 0 0 .9 3A15.09 15.09 0 0 0 61 89.43a3.43 3.43 0 0 0 2 .92 2.92 2.92 0 0 0 2.1 2 17.44 17.44 0 0 0 2.64.54c.16.48.68 1.76.68 1.76a3.06 3.06 0 0 0 0 1.74c.07.3 1.07 2.46 1.24 3s.51 2.17.62 2.71a1.05 1.05 0 0 0 0 .15c.2.71 1.08 3.25 1.35 4.17a1.7 1.7 0 0 1 0 1.27c-.17.35-.33.28-.56.56a2.55 2.55 0 0 1-.77.74 13 13 0 0 0-2.1 1.51 5.23 5.23 0 0 0-1.29 3.36 2.55 2.55 0 0 0 1.22 2.37 15 15 0 0 0 6 .68 15 15 0 0 0 4-1.65c.41-.07.21.19 1.51.65a16.49 16.49 0 0 0 5.34.72c1.7-.08 3.65-.89 4.19-1.89a3.32 3.32 0 0 0 .14-3.54c-.81-1.26-2.28-1.65-2.93-2.16a7.84 7.84 0 0 0-1.08-.74s-.77-.69-1.1-1.06-.31-.24-.2-1.24 1.33-5.68 1.58-6.49.42-2.06.59-2.5a2.8 2.8 0 0 0 .23-1.24c0-.57.11-1 .11-1.26s.18-1.25.2-1.42 3.43-.54 4.62-1.06a4.18 4.18 0 0 0 1.77-1.43 1.65 1.65 0 0 0 .34-.48 9.15 9.15 0 0 0-.07-3.07c-.1-.86-.39-3.43-.41-4s-.14-5.9-.25-6.9-.3-2.41-.38-2.8c-.11-.64-.25-1.33-.42-2.05-.65-2.77-1.18-3.62-1.21-4s-.07-1.77-.11-2.43c0-.49.17-.48.27-.43.34.58.69.71.95 1.14a6.62 6.62 0 0 0 1 1.29c.52.55 1.31 1 1.76 1.49a14.62 14.62 0 0 0 1.76 2c.83.66 2.52.4 3.08.28s.52-.41.52-.41.55.08.55.25.19 1 .25 1.4.25.34.47.61a8.14 8.14 0 0 0 .94 1.1 5.93 5.93 0 0 0 2.37.69 13.57 13.57 0 0 0 4-.14 2.26 2.26 0 0 0 1.32-1.1c.11-.26.32-.43.47-.72a4.48 4.48 0 0 0 .19-1.51 18.33 18.33 0 0 1 .44-1.9 1.94 1.94 0 0 0-.18-1.13zM91.84 44.66c-.83.69-.8.77-1.1.69a4.24 4.24 0 0 1-1-.77A3.59 3.59 0 0 0 90.9 43a6.06 6.06 0 0 0-.5-3.69c-.41-.47 0 1.87-.58 3.25a3.43 3.43 0 0 1-1.13 1.71 12.74 12.74 0 0 0-2.69-.68c-1-.06-1 0-1.27 0a23.77 23.77 0 0 0-3-1.07c-.87-.17-1-.13-1-.1l.18-1.13c.52-.18 1.21-.45 2.16-.79a18.87 18.87 0 0 0 5.7-3 24.06 24.06 0 0 0 3.56-4.07c.11 0 .25 0 .43.19A9.23 9.23 0 0 1 93.82 40c-.72 2.79-1.16 4-1.98 4.66zM65.46 68.14c.09-.54.48-.42.53-.36S68 69.24 77.53 68.9s11.58-2.51 12-2.59.43 1.72 0 2.2c-.26.29-1.45 1-4.37 1.55-10.36 1.41-14.49.56-14.49.56s-4.54-.61-5-1.22a1.56 1.56 0 0 1-.18-1.26zm24.27-3.46a10.25 10.25 0 0 1-4.86 2.61c-3.52 1-12.88 1-15.21.59a10.92 10.92 0 0 1-4-1.21 5.71 5.71 0 0 1-.13-.72 66.51 66.51 0 0 1-1-7.71.85.85 0 0 0-.08-.55 39.32 39.32 0 0 1 0-6.08l.28-2.42a7.28 7.28 0 0 1 .61-2.92 2.4 2.4 0 0 1 1.46-.8 13.68 13.68 0 0 0 1.43 3.72A12.24 12.24 0 0 0 71.1 53c.72.47 1.2.78 1.8 1.14a5.34 5.34 0 0 1 .34 2c.14 1.69.18 5.44.15 5.85a1.27 1.27 0 0 0 .66 1.1 2.73 2.73 0 0 0 1.28.37 22.68 22.68 0 0 0 2.79.17 4.29 4.29 0 0 0 2.35-.83c.55-.57.4-2.33.4-2.84a23.27 23.27 0 0 1 .39-4.24 2.53 2.53 0 0 1 1.47-2A15.74 15.74 0 0 0 85.4 51a14.76 14.76 0 0 0 2-5.17l.22-1.07s1.24 0 1.71.63 0 2.34 0 2.34c-.43 1.29-.6 8.38-.45 9.13s.55 1.93.64 2.81.26 4.97.21 5.01zM69.25 46a10.07 10.07 0 0 1-1 1.53 16.71 16.71 0 0 1-.73-1.8 1.6 1.6 0 0 1 0-.22c.48.09 1.75.31 1.73.49zm-1.62-1a.66.66 0 0 1 .18-.26 1 1 0 0 1 .83-.25c.17 0 .3.5.41.8zm-5.57-17.21c-.06-.52-.94-.61-.94-.61a7.58 7.58 0 0 0 1.38-2.31c.22-.52.17-1.18.44-1.4s1.24.17 2.61-.11a2.83 2.83 0 0 0 1.87-1.1.58.58 0 0 0 .39.19 14.72 14.72 0 0 0 2.92 0c.28-.19.33-1.65.69-1.79s.58 1.1.58 1.1.14.33 2.12.55 6.91-.18 7.29-1.21a16.43 16.43 0 0 0 .06-4.18 11.85 11.85 0 0 0-.31-1.36c.07 0 .13-.06.26.09A17.19 17.19 0 0 1 83 19.17c.8 2.26.83 2.56 1.18 2.75s2.31-.3 4.93.52 2.48 2 2.7 2.89.22 2 .83 2.59a3.17 3.17 0 0 0 1.43.66 3.09 3.09 0 0 1 .41 1.21 1.57 1.57 0 0 1-.88 1.46 2.15 2.15 0 0 1-1.38.14 19.81 19.81 0 0 1-3.05 4.82 29.71 29.71 0 0 1-9.38 4.68c-2.37.47-6.05-.33-7.82-.69a14.27 14.27 0 0 1-8.7-6.2 12 12 0 0 1-1-2 2.23 2.23 0 0 1-1.38-.55 2.68 2.68 0 0 1-.8-2.37c.06-1.18.74-1.21 1.16-1.18s.87.41.81-.11zm3.75-13.46a8.48 8.48 0 0 0-.06 3.67c.44 2.39 1.13 2.45 1.24 3.3s-.44.85-1.46 1.1a11.17 11.17 0 0 1-2.86.06c-1-.52-1.16-.83-1.38-3a10.2 10.2 0 0 1 .94-5.34c.74-2 3.47-3.11 4.13-3.33s1.38-.47.58.63a8.86 8.86 0 0 0-1.16 2.92zM74 43.39c-.58-1-.25-2 0-2.09s1 .28 2.17.36a23.79 23.79 0 0 0 3.8-.15c.1 0 .22.16.22.48 0 .58.17 1.54-1.21 1.93a8.51 8.51 0 0 1-3.06.47 2.29 2.29 0 0 1-1.92-1zm.36 1.13a1.58 1.58 0 0 0 .35.13 7.49 7.49 0 0 0 2.54.45 4.72 4.72 0 0 0 2.83-.88c.41-.36.39-.74.88-.88a10.92 10.92 0 0 1 2.89.55c.52.14.85.39.77.94a19 19 0 0 1-2.68 5.05c-.74.67-1.71 1.28-4 1.29a8.38 8.38 0 0 1-5.63-2 7.06 7.06 0 0 1-2.06-3.07c-.1-.33-.12-.34-.12-.34s-.55-1.16-.44-1.43a9 9 0 0 1 3.14-1.16c.46.03.6.88 1.5 1.35zm9.56 7l-.3.29a18.29 18.29 0 0 1-2.12 1.69l-.25-2.1.15-.09zm-1.8-.79a6.71 6.71 0 0 0 1.4-1.6c.08.4.34 1.65.4 1.8s-1.2-.15-1.82-.16zm1.79-2.24l.09-.16a17 17 0 0 1 2-.17l-.1.23a11.61 11.61 0 0 1-1.4 2.42c-.16-.52-.5-1.88-.61-2.28zm1.48-3.27c.06-.31.24-.95.8-.9s.62.29.66.56a9.15 9.15 0 0 0-1.48.38zm1.46.18c-.06.28-.24 1-.47 1.77a6 6 0 0 1-.82-1.48c0-.2.9-.22 1.27-.25zm-1 2.19a7.3 7.3 0 0 0-1.57.17 12.34 12.34 0 0 0 .88-1.85 9 9 0 0 0 .72 1.72zm-10 5.78a9.69 9.69 0 0 0 .94.62 22.85 22.85 0 0 1-3 1.49 13.16 13.16 0 0 0-.35-1.48l-.06-.15v-.1a19.39 19.39 0 0 1 .4-2.09 17.15 17.15 0 0 0 2.06 1.75zm-1.46-1.82a11.75 11.75 0 0 0 2 .44 10.45 10.45 0 0 0 3.35.01 21.34 21.34 0 0 1-2.4 1.72 16.74 16.74 0 0 1-2.96-2.13zm2.76 3l.32-.21c1.18.63 2.44 1.15 2.9 1.34 0 .06-.14.22-.79.64s-1.69 1-2.62 1.53a21.67 21.67 0 0 1-3.09-1.8 27.41 27.41 0 0 0 3.27-1.43zm-.15 4a15.81 15.81 0 0 0 2.86 1c-.13.13-1 .75-1 .75a16.66 16.66 0 0 1-1.68 1 25.11 25.11 0 0 1-2.8-1.52s1.18-.51 2.52-1.22zm-.67-.38l-.82.42c-.62.3-1.15.53-1.42.65v-1.32c0-.39-.07-.8-.13-1.26.33.34 1.47 1.08 2.37 1.62zm-2.29 2c.28.18 1.36.85 2.44 1.49a17 17 0 0 1-1.85.73 1.24 1.24 0 0 1-.51-.56 5.16 5.16 0 0 1-.12-1.59zm2.52 2.12l.55-.28a15.34 15.34 0 0 0 1.56.8h-.4a27 27 0 0 1-2.85-.12 6.24 6.24 0 0 0 1.13-.33zm1.28-.69a21.36 21.36 0 0 0 2.4-1.57A5.12 5.12 0 0 1 80 62a1.44 1.44 0 0 1-.4.51zm2.38-3.6v1.11a14.94 14.94 0 0 1-2.56-.85 19.7 19.7 0 0 0 1.79-1.1 9.76 9.76 0 0 0 1-.74 10.36 10.36 0 0 0-.23 1.58zM78 54a24.4 24.4 0 0 0 2.8-2.28l.31 2.12a3.9 3.9 0 0 0-.4 1.2v.21c-.44-.12-1.46-.55-2.71-1.25zm-6.88-4.69c.4.39 1 .91 1.45 1.3-.53.08-1.89.39-1.89.39zm-1 1.36a15.11 15.11 0 0 1-1.31-2.17 3.19 3.19 0 0 1 1.84.25 1.39 1.39 0 0 0 .14.19 7.59 7.59 0 0 1-.71 1.77zm.68.83c.62 0 2.42-.5 2.46-.35s-.25 1.42-.39 2c-.25-.2-.59-.43-1-.74a5.94 5.94 0 0 1-1.05-1zm-.57-3.49H68.9l.67-1.42c.15.5.43 1.03.61 1.46zm30.54-25.68c.11.74-.25 1.24-1.1 1.43a2.61 2.61 0 0 1-1.17 0h-.12a6.31 6.31 0 0 1-2.15-1.32c-.69-.52-.8-1.38-.52-1.65s.44 0 .88.11 1.43 1 1.4.8a2.27 2.27 0 0 0-.91-1.1c-.58-.39-1.32-.77-1.07-1a2.09 2.09 0 0 1 1.71.39c.89.7 2.9 1.63 3.01 2.38zm-5.83-5.28c.11-.52 3-1.29 3-1.29.88-.25 2.83-1.21 2.83-.88a7.2 7.2 0 0 1-.55 2.92 2.7 2.7 0 0 1-1.59.87h-.11a8.53 8.53 0 0 1-2.89-.06c-.8-.19-.5-.52 0-.83s2.06-.39 1.73-.47a8.54 8.54 0 0 0-1.62.08c-.54.08-.96.21-.85-.31zm-.66 5.56a12.94 12.94 0 0 0 .52 2.53 4.69 4.69 0 0 1 .61-2.5 2.72 2.72 0 0 0 .55.94 2.63 2.63 0 0 0 .28 1.16A11.53 11.53 0 0 1 97.32 29c.25 2.42-.06 6.83 0 8s.08 3.85-1.27 5.31-1.71 1.74-2.23 1.69.28-1.1.44-1.9a10.54 10.54 0 0 0 .33-4.18 14.2 14.2 0 0 0-1.35-4.73 1.75 1.75 0 0 1-.31-1 1.33 1.33 0 0 1 .28-.3c.36-.28.5-.08 1-.33a1.29 1.29 0 0 0 .63-.61 19.3 19.3 0 0 0 .52 2.72c.25.61.22-.85.28-1.13a21.35 21.35 0 0 0-.88-4.35c-.33-.63-1.07-.19-1.76-.94a16.94 16.94 0 0 0-.72-3.25c-.39-.77-1.18-1.51-1.29-1.9a22.64 22.64 0 0 0-.3-3.83 9.21 9.21 0 0 0-2.37-3.94c-.5-.3-.83-.25-.41.3a12.16 12.16 0 0 1 2.2 4.62c.33 2-.17 2.09-.88 2.28a15.29 15.29 0 0 1-4.23-.37c-.69-.19-.72-.47-1.18-1.65s-2.17-5.28-3.16-6.27a2 2 0 0 0-.8-.69c.47.8 1.21 7.16.77 7.84a1.83 1.83 0 0 1-1.38.72c-2.67.61-6.41.66-6.91-.11s-.41-4.38-.58-4.35-1.18 4.46-1.4 4.62-2.48.47-2.89-.3a13.08 13.08 0 0 1-1.13-3.39 11.38 11.38 0 0 1 .32-3.73 2.34 2.34 0 0 0 .07-.29c.22-1.29.83-2.64 3.74-4.1a9.5 9.5 0 0 1 6.58-.52c1.16.19 2.06 1 2.2.74s-.25-.5-.19-.91 1.18-.3 1.18-.3c2.15-.14 6.88 1.76 9.22 3.58A13.47 13.47 0 0 1 94 18.57a16 16 0 0 1 .23 4.07zm-35.11-9.33c1.1-1.9 1.9-3.11 4-3.85a17 17 0 0 1 3.41-.74 3.41 3.41 0 0 0 1.35-.55c0-.08-1.43.22-1.46-.14s0-.69 1.43-1.13 2.2-.87 3.27-1.13A28.9 28.9 0 0 1 78 5.28c2.72.14 3.5.06 4.6.44s3.16 1.49 4.18 1.9 3.36 1.21 4.57 2.92a40.58 40.58 0 0 1 2.17 3.74c.37.91.78 2.95-.05 1.58a34.91 34.91 0 0 0-3.3-4 19.68 19.68 0 0 0-9.83-4.07 7.59 7.59 0 0 0-2.81.22 11.83 11.83 0 0 0-3.83-.52A10.85 10.85 0 0 0 70 8.85c-3 .74-5.28 1.65-6.44 2.67a14.57 14.57 0 0 0-3.74 4.82 22.93 22.93 0 0 0-1.32 4.84 14.1 14.1 0 0 1-.42 1.45 10.18 10.18 0 0 1-.65-3.08 13 13 0 0 1 1.74-6.27zm-2.31 5.5a9.54 9.54 0 0 0 .08 2.42 10.13 10.13 0 0 0 .7 2.36 8.28 8.28 0 0 1-1 1.49l-.35.36a16.33 16.33 0 0 1 .57-6.62zM61.07 45a29.75 29.75 0 0 1-2-4.87c-.14-.52-.47 0-.33.66a16.87 16.87 0 0 0 1 2.72c.28.52.19 1-.17 1.16s-1.21.08-2-1.21a12.34 12.34 0 0 1-2-5.48 64.87 64.87 0 0 1-.22-8.06 5.86 5.86 0 0 1 .88-3c.61-1 1.4-2.15 2-3.16s.9-1.07.91-1.9a1 1 0 0 0 0-.14c0-.9.76-4.86 1.43-5.51s.33.33.06 1.84a9 9 0 0 0 .37 4.04c.33 1.07 1 1.18 1 1.18a9.83 9.83 0 0 1-.63 2.17A3.4 3.4 0 0 1 60 27.15c-.52.5-1.32.69-2 1.54s.11.5.11.5c.36-.47.52-.44 1-.69s.3.44.3.44a4.73 4.73 0 0 0 .08 1.82 3.71 3.71 0 0 0 .47.94 13.07 13.07 0 0 0-1 2.72 7.51 7.51 0 0 0 .22 3.16c.22.25 0-.94.11-1.46a19.83 19.83 0 0 1 1.32-3.91 2.23 2.23 0 0 1 1.21.69c.44.55 2.12 3.33 3.05 4.38s3.61 2.59 7.16 3.85c0 0 .77 0 .85.47s.17 1-.33 1.13-3.91 1.1-4.18 1.24-2.37.47-2.7.66-.74.14-1.21-.77a11.94 11.94 0 0 1-1.76-4.73s-.14-1.49-.39-1.57-.22 2.34-.06 3.28.63 3.28 2.31 4.35a1.33 1.33 0 0 1-.94 1.18c-.79.22-1.56.38-2.55-1.37zm-4.21 30.21c-.66-1.13-.25-2.12.11-3.36a12.43 12.43 0 0 0 .58-2.85c.08-1 .36-1.16 1.16-1.1A23.64 23.64 0 0 1 62 69.07c.66.19.77-.08-.08-.85s-3.16-.74-3.14-1.21.77-.28 1.54-.44 2.53.33 2.39 0-.91-.55-.91-.55a7.78 7.78 0 0 0-3.25.41c-.8.17-.69.17-.8-.74a14.6 14.6 0 0 1 .44-4c.3-1.35 1.68-4.57 1.87-5.12a9.7 9.7 0 0 0 .61-2.28 14 14 0 0 1 .66-2.48v-.08c.1-.22.36-.82.51-1.24A5.24 5.24 0 0 1 63.41 48c.91-.63.83.06.77.36a20.64 20.64 0 0 0-.5 4.49c.14 1.46 0 2.83.11 3.69s-.41.83-.58-.63-.44-1.82-.69-1.13a4.33 4.33 0 0 0 .36 2.56s.94 3.25 1.13 4.4c.17 1 .52 4.36.61 5.24a6 6 0 0 0-.07 1.22c-.05.27.18.85.15 1.21s-.55 2.17-.85 3.36-.5 4.24-.69 5-.39.66-.47.52.3-1 .19-1.16-.22.52-.61.77a2.42 2.42 0 0 1-2.75-.19 2.84 2.84 0 0 1-.91-2.28c-.08-.28-.3-.47-.5.5a2.22 2.22 0 0 0 .55 1.71c.04.42-1.14-1.3-1.8-2.43zm1.07 4.21c0-.5 0-.94.36-1.13s1.18.36 2.09.52a5.48 5.48 0 0 0 2.11.05s.59-.14.72.14a2.36 2.36 0 0 1-.27 1.92 3 3 0 0 1-2.93.45c-1.41-.37-2.01-.54-2.08-1.95zM63.61 86c0 1-.08 1.27-.43 1.53a.63.63 0 0 1-.7 0c-.33-.26-1.24-2.29-1.44-2.44s-.19.51.18 1.6a3.23 3.23 0 0 0 1.4 1.74c.3.21.89.53.79.74s-.32.57-1.56-.29a9.3 9.3 0 0 1-2.25-3.18 10.33 10.33 0 0 1-.83-4 5.71 5.71 0 0 0 2.82.54 3 3 0 0 0 .95-.23s.18-.1.11.43.99 2.49.96 3.56zm.5 4.83c0 .1-.15.29-.36-.25s.08-1.71 0-2.05a4 4 0 0 0 .52-.88c.19-.47.47-.27.47-.27s1.22.4 2.64.71c-.3.2-3.24 2.61-3.28 2.71zm.83.88h-.06c-.22-.09-.52-.34-.32-.68a31.83 31.83 0 0 1 3.27-2.41 38.54 38.54 0 0 1 1.85 3.7v.08a43.43 43.43 0 0 1-4.74-.72zM83.25 96c.45 0 .82 0 1-.05l.42-.08a17 17 0 0 1-.29 1.68c-.42.08-.82.15-1.2.19a14.08 14.08 0 0 0 .07-1.74zm-2.42-.3c-2.6-.18-2.86-.61-2.86-.61s0-1-.09-1.53c0 0 3.19.08 4.64.07a27.72 27.72 0 0 0 3.13-.32c.25 0 .26.41.14 1s-.19.85-1 1.08a22.26 22.26 0 0 1-3.96.3zm.59.33h1.39c0 .47-.1 1.58-.12 1.79-.49 0-.95.07-1.37.08a12.47 12.47 0 0 0 .1-1.9zM79.6 96H81.09a18.15 18.15 0 0 1-.31 1.85c-.43 0-.81 0-1.15-.07.02-.31-.02-1.37-.03-1.78zm-1.49.11a2.73 2.73 0 0 1 1.07-.11c0 .35 0 1.5-.05 1.77a7.75 7.75 0 0 1-1.06-.21s-.35-1.23.04-1.46zm.25 12a14.44 14.44 0 0 0 .23 1.46 4.67 4.67 0 0 0-1.65.07c-.21 0-.54.06-.52-.11s.06-.84.07-1h.63a2.21 2.21 0 0 0 1.23-.46zm6.79-16.17c-.23-.31-3-3.4-3.13-3.56 1.52-.06 2.89-.12 3.29-.12a20.64 20.64 0 0 0 2.28-.26zm-.66.55c-1.42.12-3.07.2-5 .22h-1.11c.52-.68 2.47-4 2.94-4s2.59 2.96 3.16 3.74zm-6.49-.4l-2.89-3.65h2.21c.63 0 2.07 0 3.56-.06A35.79 35.79 0 0 0 78 92.09zm-.6.65H77c-2.44 0-4.52-.16-6.23-.3a45.18 45.18 0 0 1 3.66-3.67 37.82 37.82 0 0 1 2.99 3.97zM76.49 97a2.5 2.5 0 0 0-.25-.93l.69-.21c.37.22.38.77.31 1.31s-.3.69-.79.86h-.09a2.29 2.29 0 0 0 .13-1.03zm-5.69-5.48c-.33.48-.45.29-.45.29l-1.8-3.54a47.88 47.88 0 0 0 5.39.17 36.3 36.3 0 0 0-3.14 3.08zm6.11 2a1.72 1.72 0 0 1 .09 1 1.36 1.36 0 0 1-1.1.9c-2.81.29-5 .14-6-.47a2.67 2.67 0 0 1-1.1-2c1.57.26 8.11.56 8.11.56zm-1.14 3.66a5.76 5.76 0 0 1-.1 1c-.41 0-.93.06-1.48.08 0-.36 0-1.58.05-2h1.28a2.41 2.41 0 0 1 .25.91zm-2.05 1.07h-1.3a9.49 9.49 0 0 1-.15-1.08 4.18 4.18 0 0 1 0-.94H73.63c.06.4.07 1.57.09 2.01zM70.48 96h.19c.23 0 .62.08 1 .11a7.33 7.33 0 0 0 0 1.22 3.11 3.11 0 0 0 .11.78l-.49-.08a4 4 0 0 1-.68-.21 3.68 3.68 0 0 1-.13-1.82zm-1.35.88c-.11-.21-.44-1-.07-1.2a1 1 0 0 1 .78.09 2.57 2.57 0 0 0 0 1.71 4 4 0 0 1-.71-.59zm1.77 4.93a.34.34 0 0 0 0-.1.52.52 0 0 0 0-.12c-.19-.55-.42-2-.56-2.43s-.2-.67 0-.65a9.57 9.57 0 0 0 3.56.34 18.09 18.09 0 0 0 3.09-.32c.16 0 .26.32.32 1.15s0 1.78.11 3.36.59 4.24.59 4.24a7.14 7.14 0 0 1-2.53.36h-.09a7.55 7.55 0 0 1-2.62-.29 12.51 12.51 0 0 1-.65-1.8c-.22-.3-1.05-3.15-1.22-3.73zm3.46 10.42c.18 0 .26.11.23.33s0 1 0 1.26-.36.29-.72.27-2.63.16-3-.11-.28-.56-.23-1.31a1.61 1.61 0 0 1 .17-.68h1.3c.53 0 2.28.25 2.28.25zm-.49-.58l-2.32-.16s-.43-.12 0-.43a11.63 11.63 0 0 0 .92-.86 2 2 0 0 0 .29-.36h1.2a3.06 3.06 0 0 1 1.2.18c.11.14-.12.47-.29.81a3.14 3.14 0 0 0-.23.88zm.23-2.21c-.42-.07-1.12 0-1.15-.29s.33-.71.25-.92c.23 0 1.94.2 1.94.2h.84a1.65 1.65 0 0 1-.18 1 13.62 13.62 0 0 1-1.71.02zm-3-.63a6.6 6.6 0 0 1 .92-.61 2.93 2.93 0 0 1 .71 0 2.81 2.81 0 0 1-.42.86.59.59 0 0 1-.4.25h-.16c-.75-.1-.75-.31-.63-.49zm-1.8 1.56a3.07 3.07 0 0 1 1.92-.56h.74a3.27 3.27 0 0 0-.76.7 6.35 6.35 0 0 1-.62.77 5.26 5.26 0 0 0-1.59 0 2.51 2.51 0 0 0-.95.45 4.77 4.77 0 0 1 1.27-1.36zm-1.68 2.8a1.61 1.61 0 0 1 .58-.95 2.56 2.56 0 0 1 1.87-.41.42.42 0 0 0 .22.09c.06.07 0 .16 0 .34s-.11 1.18-.2 1.51-.7.2-.7.2a3.47 3.47 0 0 1-1.76-.78zm3.13 2.83a3.73 3.73 0 0 1-1.4-.28 2.59 2.59 0 0 1-1.65-1.53 2.15 2.15 0 0 1-.07-.27 6.32 6.32 0 0 0 1.56.41c.45.07.78 0 1 .11s.57 1.15.61 1.38a.18.18 0 0 1-.05.18zm1.33-.08h-.23a3.12 3.12 0 0 1-1.08-1.48 32 32 0 0 0 4 .14c.18.38.41.83.5 1a7.67 7.67 0 0 1-3.18.42zm3.7-.5c-.12-.23-.39-.9-.39-.9l.57-.07c.47-.06 1.58-.31 2-.4a4.38 4.38 0 0 1-2.18 1.42zm2.75-2.64a5.65 5.65 0 0 1-.17.54 4.59 4.59 0 0 1-2.17.63c-.91 0-1-.19-1.1-.56a1.3 1.3 0 0 1 .11-1c.16-.14.68.06 1.44.11a11.79 11.79 0 0 0 2-.12 3.39 3.39 0 0 1-.11.45zm.16-1.11a4.75 4.75 0 0 1-2 .25c-.63-.09-1.34 0-1.47-.23a1.76 1.76 0 0 1 .34-1.33c.3-.47 1.26-.5 2-.45a5.22 5.22 0 0 1 1.21.23 11 11 0 0 1-.08 1.58zm.4-3.72h1.17a7.13 7.13 0 0 1 .12 1 3.44 3.44 0 0 1-.07.59c-.72.16-.79.56-.65.44a1.78 1.78 0 0 1 .59-.2.81.81 0 0 1 .7.32 2.53 2.53 0 0 1 .32 1.38c-.09.2-.86.26-1.15.2s-.6-.16-.8-.23v-1.91a12.66 12.66 0 0 0-.22-1.54zm4.3 1.29c-.67.06-1.59.15-2.28.23a4.27 4.27 0 0 0-.31-1.47s.44-.09 1-.16a3.54 3.54 0 0 1 .6.12 5.14 5.14 0 0 1 1 1.2.08.08 0 0 1 0 .13zm0 .3l.1.06c.18.16 1.32 1 1.42 1.31s-.64.26-1 .32l-.71.14a2.67 2.67 0 0 0-.6 0h-.74a8.92 8.92 0 0 1-.45-1.26c-.05-.17-.06-.36.05-.45zm-1.52 6.29c-.46-.11-2-.33-2.28-.86a2.49 2.49 0 0 1-.29-1 9.15 9.15 0 0 1 2.5.51 1.82 1.82 0 0 1 .09 1.39zm0-2c-.28.17-1.76-.25-1.76-.25a8.17 8.17 0 0 1-.8-.37v-.35-.86h1.93c.22 0 .42.09.59.74s.3.98.02 1.15zm4.06 1.17a2.58 2.58 0 0 1-.72.92 16.84 16.84 0 0 1-2.8 0 2.48 2.48 0 0 0 .07-1.17s-.16-.26.16-.23a27 27 0 0 0 2.91.07c.45-.05.45.13.38.41zm-.52-.83a11.2 11.2 0 0 1-2.62-.07c-.25 0-.32-.14-.43-.61s-.25-1.24-.27-1.31-.1-.2.32-.23a13.79 13.79 0 0 0 1.67-.23s1-.26 1.32-.09a1.84 1.84 0 0 1 .69 1.51c-.02.68-.04.86-.68 1.04zm3.57-.93v.25c-.08 1-.92 1.68-2.37 2.16l-.4.11a2.71 2.71 0 0 0 .36-.74 3.4 3.4 0 0 0 .09-.7 3.22 3.22 0 0 0 2.34-1.06zm-1-2.39a2.82 2.82 0 0 1 .94 1.7 4 4 0 0 1-1.12.9c-.59.25-1.2.63-1.31.16a1.19 1.19 0 0 0 0-.68 3.4 3.4 0 0 0-.59-1.51s.07-.17.54-.27a2.7 2.7 0 0 0 1.29-.45zm-1.23-.9c.12.1.38.37.08.59a2.85 2.85 0 0 1-1.2.34 3.38 3.38 0 0 1-.59-.72c-.1-.15-.28-.39-.5-.66h.39a3.25 3.25 0 0 1 1.82.5zm-1.95-1.64c.38.49 0 .81-.5.89-.49-.58-1-1.21-1.23-1.41a3.07 3.07 0 0 1 1.73.53zm-.16-7.53c-.28 1.2-1.25 3.7-1.33 4.62s0 1.39-.29 1.56a7.05 7.05 0 0 1-2.32.43c-.69 0-1.74 0-1.87-.45s-.53-3.54-.65-5.21-.09-3.25-.09-3.25a30.16 30.16 0 0 0 6.18-.27 3.89 3.89 0 0 0 1-.38 14.1 14.1 0 0 1-.62 2.96zm.88-3.78a1.35 1.35 0 0 1-.6.45c.08-.36.28-1.33.32-1.67.25 0 .44-.05.55.07s.08.75-.27 1.15zm5-5.46a30.53 30.53 0 0 1-4.82.84l2.48-4a14.94 14.94 0 0 1 2.41 3.14zm2.21-3.83a4.16 4.16 0 0 1 .07 1.78 2 2 0 0 1-.72 1.31 3.59 3.59 0 0 1-.58.36c.16-.4.35-1.14.38-1.21a10 10 0 0 0 .86-2.28zm-.38-.36c-.12.42-.9 2.62-.9 2.62-.17.39-.45.73-.59.59s-1.8-2.26-2.15-2.69a7.61 7.61 0 0 0 1.45-.37 8.41 8.41 0 0 1 2-.86c.26.01.32.25.2.67zm-.48-11.57c.08.61.17 1 .18 1.45a4.92 4.92 0 0 1 .1.94v.14s.24 4.68.2 5.39.1 1.59-.63 2.19-2.5 1.26-6.27 1.67-12.68.46-15.08.34a15.32 15.32 0 0 1-5.84-1.4c-.33-.25-.55-.51-.83-2.34a38.1 38.1 0 0 1 .08-6.29 3.78 3.78 0 0 0 .22-1.23 22.93 22.93 0 0 1 1-5c.19-1 .39-1.29.91-1.29a41.86 41.86 0 0 0 4.41.93A53.29 53.29 0 0 0 85.2 71a14.6 14.6 0 0 0 4.34-1.43c.52 0 .72.3.91 1.29s1.14 2.65 1.42 4.88zm5.94-7.91l1.31.22A2.07 2.07 0 0 0 99 69c.06.56.15.69-.25.85a3.07 3.07 0 0 1-2.67-.94 6.33 6.33 0 0 0-1.79-1.84 8.28 8.28 0 0 1-3.56-4.36 5.62 5.62 0 0 1-.14-1.71 29.37 29.37 0 0 1 .59-3.8 6.88 6.88 0 0 0-.18-2.52 13.41 13.41 0 0 0-.61 3.17c-.07 1.14-.31.48-.31.48-.31-.62-.31-1.69-.44-4a24.89 24.89 0 0 1 .15-4.64l.18-2s-.06-1.43.36-1.46 1.49 1.29 1.6 1.51c.07.09.27.42.53.84A32 32 0 0 1 96 53.66c1.31 2.55 1.65 3.47 1.65 3.47a3.53 3.53 0 0 0-1.65-.2 4.22 4.22 0 0 0-1.65.74 5.73 5.73 0 0 1 3.36.3 9 9 0 0 0-3.08 1.68 7 7 0 0 0-1.13 2.15 5.63 5.63 0 0 1 2.67-2.37 5.09 5.09 0 0 1 5.48.69 3.24 3.24 0 0 1 1.16 1.68 5.09 5.09 0 0 1 .08 1.49s-1.11.26-1.46.91a4.16 4.16 0 0 0-1.18-1.9 1.41 1.41 0 0 0-1.49-.36 5.54 5.54 0 0 1 1.6 1.84 1.72 1.72 0 0 1-.52 2.31 3.58 3.58 0 0 1-2.09 1.07 3.24 3.24 0 0 1-1.23-.16s-.02.61 1.29.83zm2.64.63a.91.91 0 0 0 .25 1.18l-.88-.32a5.36 5.36 0 0 1 0-1.27 7 7 0 0 1 2.34-3.5s.77-.69 1-.58.19.5.11.63-.55.52-.61.8-.29.25-.5.33-.8.07-1 .72a2.14 2.14 0 0 0-.11 1.1s-.25.06-.6.87zm10 .72a1.78 1.78 0 0 1-.44.8c-.22.26-.11 1.14-.22 1.65s-.63.91-.77 1.13 0 .36-.74.77-1.82.18-3 .11a7.12 7.12 0 0 1-2.59-.52c-.5-.25-.7-.55-.33-.74s1.16.32 1.65.41a18.19 18.19 0 0 0 2.86 0c.62-.06 1.38-.1 1.21-.44s-.72-.06-.72-.06a10.37 10.37 0 0 1-3.55-.08 6.47 6.47 0 0 1-2.37-.8c-.29-.29-.54-.88-.22-1s.8.28 1.29.44a16.76 16.76 0 0 0 3.36.14 4.26 4.26 0 0 0 1.4-.39c.3-.14 1.42.28 1.54 0s.08-.55-.5-.66-1.16.34-1.82.41a12.32 12.32 0 0 1-4-.25c-1-.4-1.38-.91-1.35-1.29s.26-.66 1.24-.55a34.07 34.07 0 0 0 4.07.36 5.69 5.69 0 0 0 1-.47 12.14 12.14 0 0 0 1.49-.14.31.31 0 0 0 0-.52c-.23-.21-1 .07-1.4.19a12.17 12.17 0 0 1-3.58.14c-1.94-.14-2.17-.44-2.17-.44a.77.77 0 0 1-.14-.72c.12-.44 1.06-.63 1.79-.61a17.27 17.27 0 0 0 2.75-.22c.44-.1.62-.28.63-1.21a14.43 14.43 0 0 1-1.68.83 6.92 6.92 0 0 1-1.57.25 1.27 1.27 0 0 0 .74-1.16c0-.89-.89-2-.74-3.47s.43-2.34 1-2.59.65.58.63 1.54a4.38 4.38 0 0 0 .91 2.45 13.25 13.25 0 0 0 2.17 1.79.65.65 0 0 0 .14.11h.06c.62.4 1.7 1.33 1.76 1.75s-.24.84-.24 1.31.59 1.3.47 1.71z" fill="#5d3328"/></svg>