<svg xmlns="http://www.w3.org/2000/svg" width="120" height="120" viewBox="0 0 120 120"><title>study-2</title><rect width="120" height="120" fill="none"/><path d="M53.37,11.39l-32-.33S20,10.9,19.82,12.81,19.27,72,19.27,72l.05.6-4.38.11a6.6,6.6,0,0,0-.38,1.31c0,.33.05,1.86.93,1.86s5.2.27,5.2.27l.05,33.39,1,.05.33-.88.44-32.62,4,.33L27,104.54s.6.44,1-.05a4.56,4.56,0,0,0,.6-1.42l-.88-26.82,27.69.27-.16-6.62-30.38-1a1.73,1.73,0,0,1-1.59-1.81c0-1.7.55-51,.55-51a10,10,0,0,1,2.24-.49c.55.05,23.59.11,23.59.11Z" fill="#dfdbd1"/><path d="M50,15.66l-25.12-.22S23.76,16,23.76,17s-.44,50-.44,50-.11,1.53.66,1.75S55.28,69.9,55.28,69.9V66.61s-2.41,1.26-3.83,1.09A41.4,41.4,0,0,1,45.92,66a3.66,3.66,0,0,1-1.7.11A6.34,6.34,0,0,1,42,64.75l-3.34-.38s-1-.38-1-1.2a18.31,18.31,0,0,1,.55-2.9L37,59.72s-.55-.44-.27-.93l-.64-.95-.66-.11a10.09,10.09,0,0,1,.33,2.74,1.8,1.8,0,0,1-1.08.91c-.29,0-.55-.42-.64-.84s-.71-3.47-.71-3.47-2.77-1.66-3-1.81-.6-.64-.53-1,.47-.36.47-.36-1-1.13-1-1.42.07-.75.51-.89a2,2,0,0,1-.2-.93,1.86,1.86,0,0,1,.58-1.5c.38-.24.36-.11.36-.11a.79.79,0,0,1-.07-.84c.24-.47.51-.82.95-.77a2.34,2.34,0,0,1,.77.24.88.88,0,0,0,.26-.62c0-.33-1.71-15.89-1.7-15.95s0-.89.38-.84.58,1.77.58,1.77,2.12,11.31,2.21,11.35.11-.33.51-.33.62,1.59.91,2.72,2.57,4,2.72,4.54a14.18,14.18,0,0,0,.58,1.92c.09,0,.91.68,1.26.6s.75.22.93.26,0-.57.42-.8a1.86,1.86,0,0,1,2.1-.31c1.26.49,1.35.95,1.35.95s1.61.05,1.81.11,1.68.68,1.73.68a6.4,6.4,0,0,1,.62.33s-.11-.31.35-.31a2.76,2.76,0,0,0,.82-.13,7.66,7.66,0,0,1,.86-2.35c.46-.47,2.37-1.46,3-2.13s2.66-4.2,3-4.49a16.84,16.84,0,0,1,2.94-2.43,23.19,23.19,0,0,1,3.92-1c.16,0-.57-.55-.57-.55s-3.56-.8-4.56-1.66-4.07-2.39-4.85-3.25a48,48,0,0,1-2.9-4.49,1.31,1.31,0,0,1-.91-.73,23.17,23.17,0,0,1-1.68-4,23,23,0,0,1,.57-5.25C49.11,20.69,50,15.66,50,15.66Z" fill="#f5f4f1"/><path d="M19.38,76.46l-.27,32.46s.11.82.77,1,.77-1.48.77-1.48l.38-32S19.54,75.48,19.38,76.46Z" fill="#f5f4f1"/><path d="M25.18,76.68c.06.27.49,27.8.49,27.8s.49.88,1,.55-.22-25.78-.22-25.78l.16-3.06S25.07,76.19,25.18,76.68Z" fill="#f5f4f1"/><path d="M67.6,109s-1,1-1.42.27a4.85,4.85,0,0,1-.22-2.35v-3.67c0-.16.6-2.13.6-2.13a10.3,10.3,0,0,0,1-1.09C67.65,99.89,67.6,109,67.6,109Z" fill="#f5f4f1"/><path d="M72.58,96.66l-.05,7.28a1.21,1.21,0,0,0,1.15.55c.82-.05.44-2.9.44-2.9s.16-2.41.16-2.57S72.58,96.66,72.58,96.66Z" fill="#f5f4f1"/><path d="M69.29,96.5c.22.49-.11,11.38-.11,11.38s-.44,1-.77,1.15-.77-1.37-.77-1.37l.16-8.76Z" fill="#dfdbd1" opacity="0.9"/><path d="M56.54,99.45s-.33,5.8.6,7.12,3.45,1.75,4.93,1.48a6.93,6.93,0,0,0,2.63-1.15s1.09-3.39,1.26-3.61a16.52,16.52,0,0,0,.6-2.13,52,52,0,0,1-7.17-.82C57.42,99.78,56.54,99.45,56.54,99.45Z" fill="#c4a076"/><path d="M74.55,99.72s.16,4.82.44,6.08.93,1.53.93,1.53a27.08,27.08,0,0,1,5.31-.38c1.59.22,2.52.27,2.52.27s.88-2.85,1-3.56a38.45,38.45,0,0,0-.11-4.6,18.31,18.31,0,0,1-4.05.77C78.6,99.94,74.55,99.72,74.55,99.72Z" fill="#c4a076"/><path d="M56.87,106.29a9.33,9.33,0,0,1-3.83-.55,8.47,8.47,0,0,0-6.29.88,4.69,4.69,0,0,0-1.37,4.21c.49,1.64,2.68,2.9,4.71,3.5s5.86-.27,6.62-.55,4.65-.38,5.91-.6,2,0,2.52-1.15,1-1.86.71-2.79a18.63,18.63,0,0,0-1.15-2.35,2.86,2.86,0,0,1-2.19,1c-1.42,0-4.6-.6-5-1Z" fill="#ddad29"/><path d="M75.7,107.28s-1.42,1.64-1.48,2.35a3.62,3.62,0,0,1-.66,1.59c-.16.27-1,2.85.16,4.1s4.49,1.59,5.58,1.59,6.08-.93,6.9-1a2.26,2.26,0,0,0,1.64-1.09,10.37,10.37,0,0,0,.11-3.72c-.27-.66-2.13-1.59-2.3-1.75s-1.48-2.13-1.48-2.13S76.9,106.29,75.7,107.28Z" fill="#ddad29"/><path d="M60.43,14.12s-1.15,1.75-1,2.52.27,1.75.27,1.75l-1.31.55a17,17,0,0,1-2.57.66c-.55,0-2.3.05-2.3.05l-.11,2.68s-.22,7,3.12,10.67,7.12,6.08,11.27,6,8.7-.93,10.67-2.41,4.38-4,4.87-5.31l.6-1.2a3.69,3.69,0,0,0,1.59-1.26A3.87,3.87,0,0,0,86,25.51a1.83,1.83,0,0,0-2.35-.88,3.14,3.14,0,0,0-1.26.6,23.09,23.09,0,0,1-3.23-2.68,38.07,38.07,0,0,1-2-3.78,1.93,1.93,0,0,1-1.53.44,14.86,14.86,0,0,1-2.74-.11,13.18,13.18,0,0,0-3.78-1,36.78,36.78,0,0,0-4.32.44c-.55.16-1.92.49-1.92.49l-.6-1S61,14.56,60.43,14.12Z" fill="#f2e3cb"/><path d="M66.9,25.11s-.2-1.24.62-1.7a4.69,4.69,0,0,1,3.48.22c1,.46,1.73.84,1.66,1.11a2.08,2.08,0,0,1-1.35,1,13.66,13.66,0,0,1-2.79.11,6.68,6.68,0,0,0-1.24-.46C66.9,25.34,66.9,25.11,66.9,25.11Z" fill="#fff"/><path d="M67.92,23.59a1.84,1.84,0,0,0-.18,1.3,1.19,1.19,0,0,0,1.15.82,1.92,1.92,0,0,0,1.33-.77,1.23,1.23,0,0,0-.09-1.28C69.86,23.36,68.34,23.08,67.92,23.59Z" fill="#b5d0ed"/><path d="M56,24.69c0-.08.05-1.26.75-1.39a3.66,3.66,0,0,1,2.08,0,2.5,2.5,0,0,1,1.44,1.08c.33.46.15.75.15.75s-.09.18-.71.33a3,3,0,0,1-1.81.16C57.29,25.38,56.08,25.31,56,24.69Z" fill="#fff"/><path d="M56.78,23.81a1.19,1.19,0,0,0,.51,1.2,1.55,1.55,0,0,0,1.55.11,1.3,1.3,0,0,0,.36-1c0-.4.09-.82-.6-.91S56.83,23,56.78,23.81Z" fill="#b5d0ed"/><path d="M57.67,6.5s-1.93,2.43-2.5,3.36a14.69,14.69,0,0,1-2.79,2.52A11.43,11.43,0,0,0,49.64,17a9.09,9.09,0,0,0-.62,4,15.83,15.83,0,0,0-.75,4.38,14.31,14.31,0,0,0,2,5.55c.78,1,1.09,1,1.53,1.88a13.41,13.41,0,0,0,4.38,4.71,38.74,38.74,0,0,0,7.1,3.21,1.88,1.88,0,0,0,1.42-.18,5.69,5.69,0,0,0,.38-1.4c0-.33-.82-.26-1.3-.6S60,37.28,57.89,34.67a25.34,25.34,0,0,1-3.94-6.18,41.26,41.26,0,0,1-.78-6.17,14.25,14.25,0,0,1,0-1.86,1,1,0,0,1,.86-.77,25.39,25.39,0,0,0,3.54-.47,8.57,8.57,0,0,0,1.88-.58c.15-.2-.11-1.62.13-2.52s1-1.51,1.13-1.88.51.8.84,1.48a11.24,11.24,0,0,1,1,3c-.09.38.64.15,1.39,0s4.58-1,5.62-.71,3.19,1,4,1.24a4.83,4.83,0,0,0,3-.27c.57-.36,1.09,1.13,1.13,1.2s1.9,3.39,3.36,4.21,1.93.38,2.19.36,1.28-.47,2-.07a1.9,1.9,0,0,1,.88,2.52,26.3,26.3,0,0,1-1.7,2.59,6.93,6.93,0,0,0-.82.57c-.07,0-1.19,3.45-3.28,4.76S78.2,37,78.2,37s.22,3.19.24,3.27A2.63,2.63,0,0,0,80.37,40c.89-.47,4.16-1.5,4.82-1.86A40.67,40.67,0,0,0,89.71,35a25.65,25.65,0,0,0,3.56-3.89,11.28,11.28,0,0,0,1.22-5,45.85,45.85,0,0,0-1.19-8.47,18.19,18.19,0,0,0-3.39-5,50.81,50.81,0,0,0-5.82-4.52c-.29-.09-3.83-2.54-4.85-2.9s-4.07-1.33-4.67-1.57a6.07,6.07,0,0,0-2.65-.47,2.69,2.69,0,0,0-1.13.69,4.46,4.46,0,0,0-2-.66c-.86.05-3.65.62-3.65.62a6.25,6.25,0,0,0-2.35.11A11.61,11.61,0,0,0,57.67,6.5Z" fill="#cd9a56"/><path d="M60.48,9a2.91,2.91,0,0,1-1.15,1.31A14.65,14.65,0,0,0,56,12.92a8,8,0,0,0-1.51,4.34A6.52,6.52,0,0,0,55,19.6l-1.5,0s-.13-3.69,0-4.87a19.35,19.35,0,0,1,2.57-6.22,16.06,16.06,0,0,1,3.17-3.14A20,20,0,0,1,62,4.27a22,22,0,0,1,3.45-.57,24.82,24.82,0,0,0,2.5-.4,2.8,2.8,0,0,1,2,.26c.62.53.75.31.75.31a1.92,1.92,0,0,1,1.48-.71A4.71,4.71,0,0,1,76.1,5.37a35.15,35.15,0,0,1,1.7,3.47s-2-3.16-3.74-3.89-2.5.13-2.5.13.31,2.19.31,2.24a10.14,10.14,0,0,1-.07,2.39A3.48,3.48,0,0,0,69,6.54,4.91,4.91,0,0,0,64.64,7.9l.42-1.4a7.28,7.28,0,0,0-2.23,3.79c-.4,2.24-.35,7.7,0,8.34l.09.22a.25.25,0,0,1-.33.07c-.24-.09-.4-1.33-.91-2.08A15.67,15.67,0,0,1,60.32,12C60.39,11.33,60.48,9,60.48,9Z" fill="#dbb680"/><path d="M53.51,11.68a20.7,20.7,0,0,0-1.64,3.27,8.52,8.52,0,0,0-.29,4.23c.31,1,.24.29.24.29a8.05,8.05,0,0,1,.62-2.74c.53-1,.88-1.06.88-1.06s.77-3.54.82-3.59S54.06,11.17,53.51,11.68Z" fill="#dbb680"/><path d="M50.74,19.43a12.1,12.1,0,0,0-2.1,3.92,9.65,9.65,0,0,0,.2,4.52A8.68,8.68,0,0,0,50.36,31c.46.29.62-.07.62-.07a9.8,9.8,0,0,1-1.37-4c-.27-2.37.84-6.22,1.92-7.12,0,0,.18-.49-.09-.49A1,1,0,0,0,50.74,19.43Z" fill="#dbb680"/><path d="M56,82.41c-.08.08-.62,4.82-.66,5.95a54.87,54.87,0,0,0-.07,6.53,7.93,7.93,0,0,0,1.24,3.79c.77.95,4.82,2.48,6.24,2.52s2.81.44,3.69-.58,1.42-1.35,1.79-2.48.69-3.76,1-4.49.8-2.88,1.35-2.88,1.28,1.9,1.28,2.48a9.11,9.11,0,0,0,2,4.82,6.35,6.35,0,0,0,5.8,2.08,14.83,14.83,0,0,0,5.69-1.61,7.79,7.79,0,0,0,1.68-3.14,24.15,24.15,0,0,0-.51-6c-.29-1.09.58-2.88.58-3s.62-3,.22-3.69-1.71-.91-2.59-.84-6.09,1.09-7.84,1.2-3.9.44-5.62.36-6.46-1-6.46-1S56.36,82,56,82.41Z" fill="#e18020"/><path d="M59.71,82.37a57.8,57.8,0,0,0-1,11.46c.26,4.89,1.13,5.69,1.13,5.69L61.9,82.45l2.7.33s-.95,5.73-1.06,6.64-.44,6.68-.95,8.25a12.13,12.13,0,0,1-1.61,3s-2.77-.26-3.32-1.2a5,5,0,0,0-.73-1.09s-1.13-9.74.55-16.05C57.49,82.34,59.28,82.3,59.71,82.37Z" fill="#c66719"/><path d="M67.23,83.91a23.33,23.33,0,0,0-1.79,6.75,47.64,47.64,0,0,1-.69,6.13c-.22.88-1.2,3.21-1.17,3.54s.69.66,1.42.62,1.17-.8,1.39-2,.91-7,1.09-8.36.77-4.93,1.13-5.4Z" fill="#c66719"/><path d="M68.4,83.94s2.34,4,2.63,5.47.62,4.52,1,5.51,1.2,3.25,2,3.72,1.79,1.35,1.9,1.35.4-.47.36-.62-.47-1.53-.47-1.53A13.4,13.4,0,0,1,74.09,94a38.74,38.74,0,0,0-2-6.71c-.58-1.24-2.26-4-2.34-4.12S68.4,83.1,68.4,83.94Z" fill="#c66719"/><path d="M72.41,83.47a25.33,25.33,0,0,1,1.42,3.21c.77,2,2.74,7.66,3,8.47s1.28,4.27,2.37,4.78a4.83,4.83,0,0,0,3.54-.33,5.8,5.8,0,0,0,1.42-2.19A44.43,44.43,0,0,0,83,91.13a7.19,7.19,0,0,1-.66-2.74c0-1.35-.55-5.33-.95-5.91l-2.63.36s.73,4.85,1,5.51a48,48,0,0,1,1.61,5.33c.22,1.28.62,3.94-.22,5.73l-.11.4a12.5,12.5,0,0,1-1.2-2.26c-.62-1.46-1.71-5.62-2-6.57s-1.09-4.2-1.57-5.47-.69-2-1.09-2.19A10.07,10.07,0,0,0,72.41,83.47Z" fill="#c66719"/><path d="M82.81,82.34a4.73,4.73,0,0,1,1,2.77c.07,1.71,0,2.77,0,3.83S85,92.34,85,93.47a13.33,13.33,0,0,1-.51,3.76c-.4,1.13-.62,1.5-.47,1.5a4.46,4.46,0,0,0,1.24-.55c.22-.18.62-.11,1.17-1.82a11.76,11.76,0,0,0,.33-5.18,8.59,8.59,0,0,0-1-2.41,10.91,10.91,0,0,0,0-4.6,8,8,0,0,0-.8-2.23Z" fill="#c66719"/><path d="M69.57,93.65c0-.11-.15,14.38-.15,14.38a2.43,2.43,0,0,1-1.2,1.39,2.67,2.67,0,0,1-1.53.36l-.66.15a13.55,13.55,0,0,1-.4-1.64c0-.15-.07-3.5-.07-3.5l.77-2.23s0,6.24,0,6.13,0,.77.58.69.69-.55.62-1.42-.15-7.63-.11-7.74.66-1.2.66-1.2l-.15,9s0,.88.47.66.55-1,.51-1.86-.33-9.52-.33-9.52l.88-3.87Z" fill="#5d3328"/><path d="M72.27,96.5l0,7.88a2,2,0,0,0,1.31.66c.69,0,.84-1.24.84-1.24l-.22-1.9-.44-1.19s0,3.36,0,3.54-.82.33-.93-.22.07-6.68.07-6.68Z" fill="#5d3328"/><path d="M14.91,74.49c-.14-1.31.15-1.35.15-1.35a3.27,3.27,0,0,1,1.2-.22c.84,0,39.11,1.09,39.11,1.09l-.18-.44L20.41,72.52s-.6,0-.69-.17-.07-.23-.12-1.38c-.07-1.53.58-58.29.58-58.29s0-1.06,1.3-1.06L53,11.72l.8-.84L21,10.73a2.14,2.14,0,0,0-1.31.29c-.4.36-.33,1.57-.33,1.84S19,70,18.94,72.48l-3.23-.1s-1.17-.18-1.31.73a12.19,12.19,0,0,0,.07,2.59s0,.74,2.63.58c.25,0,.83,0,1.67,0a1.72,1.72,0,0,1,.12.77c0,.82-.15,32.57-.15,32.57a1.3,1.3,0,0,0,1.42.88c1.2,0,1.42-.29,1.42-.29a2.84,2.84,0,0,0,.8-.95c.15-.44.29-32.4.29-32.4a.51.51,0,0,1,.32-.52l1.27,0a.81.81,0,0,1,.53.77c.05.79.55,27.72.55,27.72a1.9,1.9,0,0,0,1.15.57,3.15,3.15,0,0,0,1.45-.16,4.94,4.94,0,0,0,1-1.29c.15-.46-.69-24.77-.78-27.55,11.29.21,27.08.58,27.08.58l.11-.8-39.44-.62S15,75.69,14.91,74.49Zm12.41,2h0a1.06,1.06,0,0,1,.35.6c.08.6.68,26.38.68,26.38a1.18,1.18,0,0,1-.33.77c-.33.33-.44.36-.44.36s-.3.08-.27-1.78l0-1.86h0c0-.45-.46-22.69-.49-24.14C26.86,76.74,26.92,76.48,27.31,76.49Zm-1.34,0c.26,0,.23.16.27.38l.49,26.9s0,.82-.47.85S26,103,26,103L25.6,76.74A.43.43,0,0,1,26,76.49Zm-4.76,1.18a1.3,1.3,0,0,1,.34-1s.47,0,.47.84-.26,30.91-.26,30.91.15.91-.26.91-.51-.22-.47-1.53a23.07,23.07,0,0,0-.07-2.48h0C21,103.46,21.21,78.75,21.21,77.67Zm-1.63-.33c.06-.57.35-1,.59-1s.33.38.33.38l-.05,28.87h0L20.38,109s0,.55-.36.58-.58-.36-.62-2.08S19.58,77.34,19.58,77.34Z" fill="#5d3328"/><path d="M23.54,18.07l0-1.81s0-.91,1.62-.91l24.65,0,.18,0-.33.53L25.16,16s-.73,0-.89.47c-.08.24-.18,16.77-.18,16.77L23.7,67.36a1.44,1.44,0,0,0,.51,1.09c.51.35,3.48.29,3.48.29l27.4.8c0,.05,0,.64,0,.64l-31.16-.89a1,1,0,0,1-.78-.49A5.09,5.09,0,0,1,23,66.67Z" fill="#5d3328"/><path d="M26.84,17.63a.83.83,0,0,0-.77-.47.94.94,0,0,0-.53.13l-.08.07a.76.76,0,0,0-.19.41.85.85,0,0,0,.15.71.82.82,0,0,0,1,.25A.92.92,0,0,0,26.84,17.63Zm-.61.71a.48.48,0,0,1-.53-.79l.09-.05a.6.6,0,0,1,.36,0,.52.52,0,0,1,.35.42A.47.47,0,0,1,26.23,18.34Z" fill="#5d3328"/><path d="M26.47,66.34a.64.64,0,0,0-.6-.36.73.73,0,0,0-.41.1l-.06.05a.59.59,0,0,0-.15.32.66.66,0,0,0,.12.55.64.64,0,0,0,.74.2A.71.71,0,0,0,26.47,66.34Zm-.47.55a.37.37,0,0,1-.41-.61l.07,0a.47.47,0,0,1,.28,0,.4.4,0,0,1,.27.33A.36.36,0,0,1,26,66.89Z" fill="#5d3328"/><path d="M38.33,36.41a11.75,11.75,0,0,1-1.11-3.34c-.05-1.15.68-3.17.58-5.09s-2.15-2.46-2.28-2.5a1.67,1.67,0,0,0-.2-.4.5.5,0,0,0-.33-.24l-.18-3.59a.84.84,0,0,0-.66-.73c-.58-.09-3.23,0-3.23,0s-.53.13-.51,1.08,0,1.79,0,1.79l0,1.68a.49.49,0,0,0-.26.29.72.72,0,0,0,.05.47,4.28,4.28,0,0,0-1.11.53,2.86,2.86,0,0,0-1.06,1.86,4.68,4.68,0,0,0,.26,2.17,13.38,13.38,0,0,1,.8,3,34.9,34.9,0,0,1-.31,3.85c-.09.91-.09,3.19,1,4.27s5.25.71,6,.36,2.37-.71,2.88-1.92S38.42,36.59,38.33,36.41ZM31,22.69l0-.95s0-.33.82-.35.88.05.88.05l1,0s.26,0,.31.35.15,2.65.15,2.65.09.26-.31.4a16.12,16.12,0,0,1-2.54.09s-.18,0-.26-.64A12.15,12.15,0,0,1,31,23h0C31,22.93,31,22.69,31,22.69Zm-.31,4a2.36,2.36,0,0,0,1,.05c.35-.13-.05-.46-.46-.58s-.42-.42-.27-.58.71.27,2,.18,1.53-.36,1.53-.36.35,0,.26.26a1.12,1.12,0,0,1-.66.57c-.26.07-.33.18-.33.26a1,1,0,0,0,.95.18.8.8,0,0,0,.66-.46l1.11.42a4.28,4.28,0,0,1-2.66,1,12.17,12.17,0,0,1-4.43-.33A1.29,1.29,0,0,1,30.69,26.66Zm6.57,13.68c-.62.78-2.66,1.3-4.47,1.24A3.11,3.11,0,0,1,29.52,39c-.33-1.57.36-4,.42-5.22s-.91-2.74-1.17-3.67a3.62,3.62,0,0,1,.18-2,18,18,0,0,0,4.14.51A7.86,7.86,0,0,0,37,27.43a13.25,13.25,0,0,1-.07,2c-.13,1.31-.57,1.66-.44,3.43s1.33,3.61,1.44,4.52A4.17,4.17,0,0,1,37.26,40.35Z" fill="#dfdbd1"/><path d="M47.13,32.86c1-.05,1.55.66,2.33,1.07,1,.52,1.05.55.55,1.54-.26.51-.6,1-.91,1.46-.2.32-.24.63.12.84A1.74,1.74,0,0,1,50,40c-.83,2.79-.45,2.32,1.48,3.65a54.19,54.19,0,0,0,5,2.78,2.94,2.94,0,0,1,1.22,1.09,1.18,1.18,0,0,1,.14,1c-.27.58-.31,1.13-1.27,1.44a2.18,2.18,0,0,1-1-.07,32.11,32.11,0,0,1-6.23-3.24c-1.34-.86-2.27-.72-3.27.71-.79,1.13-1.39,1.32-2.54.57-.49-.31-.69-.17-.91.27-.35.69-.7,1.37-1.09,2-.6,1-.83,1.06-1.82.42-.65-.42-1.71-1-1.86-1.17a.53.53,0,0,1-.09-.63c1.32-2.62,2.61-4.69,4.08-7.23q2.41-4.17,4.75-8.37A1,1,0,0,1,47.13,32.86Zm9.08,16.38c.63,0,.73-.45.81-.85s-.3-.73-.6-1a15.63,15.63,0,0,0-2.79-1.57A24.39,24.39,0,0,1,49.2,43a.85.85,0,0,1-.3-.91,12.41,12.41,0,0,0,.39-2.79,1,1,0,0,0-.7-.91c-.45-.19-.62.3-.76.54-1.46,2.52-2.53,4.61-4,7.14-.3.53-.41,1.24.19,1.54a1.08,1.08,0,0,0,1.21-.34c.42-.53.84-1,1.28-1.55a1.57,1.57,0,0,1,1.84-.38c2,1.08,4,2.18,6,3.28A4,4,0,0,0,56.21,49.23Zm-16.86.24c.11,0,.21-.24.28-.36.16-.28.29-.58.45-.86,2.23-3.88,4.47-7.75,6.68-11.65.43-.76.87-1.51,1.36-2.23a.54.54,0,0,0-.21-.84c-.36-.21-.61,0-.81.25s-.15.22-.24.37c-1.77,2.94-3.28,5.91-5.06,8.85-1.07,1.78-1.94,3.63-3.09,5.56-.1.16-.28.34-.07.53A1.45,1.45,0,0,0,39.35,49.47Zm1.06.77c.26-.08.34-.34.48-.54C42.56,47.26,44,44.64,45.38,42c1.3-2.37,2.6-4.75,3.89-7.13.1-.19.3-.41,0-.57s-.43.06-.56.26a24.05,24.05,0,0,0-1.3,2.14c-1.86,3.66-3.84,7.2-5.94,10.73-.45.75-.88,1.5-1.35,2.24-.08.12-.18.25-.07.41A.36.36,0,0,0,40.41,50.24Z" fill="#dfdbd1" opacity="0.9"/><path d="M64.91,39.14c.05.22.11,1.7-.6,1.92a22.12,22.12,0,0,0-3.28.82,9.84,9.84,0,0,0-4.16,3c-1.42,1.92-2.79,4.38-3.56,5s-1.81.82-2.19,1.48-1,2.08-.82,2.3c.22-.11-.73-.18-1.08.13s-1.17-.24-1.17-.24a6.92,6.92,0,0,0-1.37-.6,12.76,12.76,0,0,1-2-.22c-.44-.16-1.48-1.2-2.63-.77S41.27,53,41.27,53l-1.7-.16-.27,1.31a17.47,17.47,0,0,1-1,3.61c-.49.82-1.59.55-1.59,1a1,1,0,0,0,.88,1.15,2.55,2.55,0,0,1,.33,1c.05.55-.77,1.81.16,2.68a5.13,5.13,0,0,0,2.57.93c.16.11,3,1.64,3,1.64s1.64-.05,2.3-.16,1.48.93,3.39,1.42,5.14,0,5.53-.55.38.33.38.33.33,7.66.27,8.48-.71,5.2-.49,6,3.67.55,3.89.55,7.06.22,8.7.88,7.39.22,8.81.11S83.85,82,85.55,82a28.52,28.52,0,0,0,3.56-.27S90,81,90,80.51A5.42,5.42,0,0,0,89.76,79a3.8,3.8,0,0,0,3.67.55c1.86-.88,2.85-3.45,2.85-3.45l1.2-1.2s.82-2.46,1.09-3.39.6-2.52.66-2.68S100,63.93,98.9,61s-5.58-8.43-5.58-8.43-4-6.35-6.13-7.5a32.88,32.88,0,0,0-4.65-2L78.87,40.4l-.49-1.09L78,36.73a16.91,16.91,0,0,1-6.4,2.19c-3,.16-6.68-.05-6.68-.05Z" fill="#f5f4f1"/><ellipse cx="79.04" cy="61.02" rx="2.55" ry="2.37" transform="translate(-17.22 87.57) rotate(-53.09)" fill="#e18020"/><ellipse cx="87.87" cy="61.6" rx="2.55" ry="2.37" transform="translate(-14.16 94.86) rotate(-53.09)" fill="#e18020"/><ellipse cx="87.08" cy="51.32" rx="2.74" ry="2.46" transform="translate(-6.25 90.12) rotate(-53.09)" fill="#e18020"/><ellipse cx="97.71" cy="63.67" rx="2.2" ry="1.75" transform="translate(-11.88 103.56) rotate(-53.09)" fill="#e18020"/><ellipse cx="92.02" cy="71" rx="2.75" ry="2.16" transform="translate(-20.02 101.93) rotate(-53.09)" fill="#e18020"/><ellipse cx="58.26" cy="54.77" rx="2.16" ry="2.75" transform="translate(-20.77 66.94) rotate(-51.99)" fill="#e18020"/><ellipse cx="58.8" cy="45.07" rx="2.31" ry="1.81" transform="translate(-15.28 44.81) rotate(-37.27)" fill="#e18020"/><ellipse cx="65.16" cy="72.03" rx="2.16" ry="2.75" transform="translate(-31.71 79.01) rotate(-51.99)" fill="#e18020"/><ellipse cx="43.51" cy="64.06" rx="2.01" ry="2.55" transform="translate(-33.75 58.89) rotate(-51.99)" fill="#e18020"/><ellipse cx="56.93" cy="70.67" rx="2.18" ry="1.71" transform="translate(-33.33 80.1) rotate(-57.11)" fill="#e18020"/><path d="M52.78,63.69a2.51,2.51,0,0,1-.83-3.39c.73-.94,3.49-1.53,3.49,0,0,1.23.31,3.87,0,4A2.89,2.89,0,0,1,52.78,63.69Z" fill="#e18020"/><path d="M84.56,70.39a12.84,12.84,0,0,0-2.13.49,19.62,19.62,0,0,1-4,.77c-.71,0-1.37.05-1.42.49s.38,1.09,2,1.59,2.46.55,2.41,1.31-1.81,1.59-2,1.59-2.52.44-3.28.44-1.75.11-1.81.77.82,1.42,2.24,1.64a46.44,46.44,0,0,0,6.08-.16,6.75,6.75,0,0,0,1.81-.93c.66-.55,2.35-2.19,2.35-2.19a11.77,11.77,0,0,0-.05-2.35C86.53,72.8,85.71,70.77,84.56,70.39Z" fill="#f2e3cb"/><path d="M72.08,62.89l2.68,13.85,4,.16c1.64-.6,2.52-1.26,2.63-1.86s-.22-.55-.82-.82-3.5-1.31-3.5-1.31-.44-1.15.38-1.2a21,21,0,0,0,5-.82,21,21,0,0,1,2.19-1c.22-.05-.16-.93-.16-.93a1.49,1.49,0,0,1,1.15-1.31,3.49,3.49,0,0,0,2.46-2.13c.27-1-.82-2.24-.82-2.24l-2.19-3-3.78.44-8.7,1S72.08,62,72.08,62.89Z" fill="#c66719"/><path d="M32.26,47.6l-1.5-16.89s.22-.47.44-.51,2.74,13.59,2.74,13.59L35.85,60s.16.44-.55.88a.87.87,0,0,1-1.15-.05Z" fill="#c4a076"/><path d="M39,53.75a2,2,0,0,0-.22-1.2,7.78,7.78,0,0,1-.71-1.31A13.08,13.08,0,0,0,37,48.82c-.44-.55-1.53-2.35-1.53-2.35s-.6-3.34-.82-3.34a5.25,5.25,0,0,1-.82-.16l.49,4.27s.16,1.09-.33,1.26-1.37-.38-1.37-.38-1.31-1-1.53-.82-.77.47-.77.66A9.47,9.47,0,0,0,30.6,49s-.71-.22-.82.16-.55,1.09-.27,1.59-.11.6-.16,1a1.88,1.88,0,0,0,.27,1.37,4.91,4.91,0,0,0,.51.68s-.66-.18-.47.36,3.25,2.68,3.25,2.68.66-2.17,1.48-1.92c.48.15,1,2.81,1.55,2.77,0,0,.31.78.86.78A1.9,1.9,0,0,0,38.53,57C38.75,56,39,53.75,39,53.75Z" fill="#f2e3cb"/><path d="M81.63,44.52a2.37,2.37,0,1,1-3.35-3.35,2.75,2.75,0,0,1,.56-.43c.88.84,3.14,1.83,3.53,2.41A2.68,2.68,0,0,1,81.63,44.52Z" fill="#e18020"/><ellipse cx="68.85" cy="39.99" rx="0.38" ry="0.3" fill="#5d3328"/><ellipse cx="71.17" cy="41.15" rx="0.29" ry="0.27" fill="#5d3328"/><ellipse cx="66.67" cy="40.59" rx="0.29" ry="0.27" fill="#5d3328"/><ellipse cx="68.13" cy="42.74" rx="0.29" ry="0.27" fill="#5d3328"/><ellipse cx="70.13" cy="44.46" rx="0.29" ry="0.27" fill="#5d3328"/><ellipse cx="67.05" cy="46.1" rx="0.29" ry="0.27" fill="#5d3328"/><ellipse cx="65.77" cy="43.45" rx="0.29" ry="0.27" fill="#5d3328"/><ellipse cx="64.39" cy="47.85" rx="0.29" ry="0.27" fill="#5d3328"/><ellipse cx="66.15" cy="50.46" rx="0.29" ry="0.27" fill="#5d3328"/><ellipse cx="65.52" cy="53.65" rx="0.29" ry="0.27" fill="#5d3328"/><ellipse cx="68.09" cy="52.9" rx="0.29" ry="0.27" fill="#5d3328"/><ellipse cx="63.64" cy="52.05" rx="0.29" ry="0.27" fill="#5d3328"/><ellipse cx="73.45" cy="39.49" rx="0.29" ry="0.27" fill="#5d3328"/><ellipse cx="75.71" cy="40.41" rx="0.31" ry="0.28" fill="#5d3328"/><ellipse cx="77.21" cy="38.36" rx="0.31" ry="0.28" fill="#5d3328"/><ellipse cx="56.42" cy="76.97" rx="0.37" ry="0.34" fill="#5d3328"/><ellipse cx="59.5" cy="80.39" rx="0.37" ry="0.42" fill="#5d3328"/><ellipse cx="64.19" cy="77.78" rx="0.37" ry="0.42" transform="translate(-15.94 139.01) rotate(-87.85)" fill="#5d3328"/><ellipse cx="68.41" cy="81.19" rx="0.37" ry="0.42" transform="translate(-15.29 146.5) rotate(-87.85)" fill="#5d3328"/><ellipse cx="73.06" cy="78.69" rx="0.39" ry="0.36" transform="matrix(0.04, -1, 1, 0.04, -8.32, 148.75)" fill="#5d3328"/><ellipse cx="77.13" cy="81.36" rx="0.39" ry="0.36" transform="translate(-7.06 155.38) rotate(-87.85)" fill="#5d3328"/><ellipse cx="84.72" cy="80.48" rx="0.39" ry="0.36" transform="translate(1.12 162.12) rotate(-87.85)" fill="#5d3328"/><path d="M100,65.13a27.3,27.3,0,0,0-1.61-6.4,30.42,30.42,0,0,0-2.16-3c-.41-.52-3.64-5-4.62-6.62a12.87,12.87,0,0,0-3.69-4,5.47,5.47,0,0,0-2.09-.77,2.58,2.58,0,0,0-.5-.34s0,0,0,0c-.26-.13-2.28-.86-2.94-1.2s-1.5-1-2-1.28-.8-.62-.8-.86.55-.29.55-.29a24.28,24.28,0,0,0,6.4-2.65c2.35-1.62,5.77-4.32,7.22-7.15a10.64,10.64,0,0,0,.69-6.39c0-.35-.2-1.9-.2-2.46a16.34,16.34,0,0,0-1.11-5.24c-.93-2-2.68-4-6.17-6.77A27.36,27.36,0,0,0,79.14,5C76,3.69,73,2.85,72,2.94a2.16,2.16,0,0,0-1.5.53,3,3,0,0,0-1.78-.59,24.14,24.14,0,0,0-2.65.36c-.57.13-2.34.2-3.47.42A15.33,15.33,0,0,0,59,5.15,11.6,11.6,0,0,0,56.41,7.4a14.67,14.67,0,0,0-1,1.46,14.93,14.93,0,0,1-1.85,2c-.07.1-1.11,1-1.82,1.71a12.35,12.35,0,0,0-1.51,2.15l-.17.27a9.15,9.15,0,0,0-.65,1.73,19,19,0,0,0-.82,3.79,4.83,4.83,0,0,1-.15.83,9.47,9.47,0,0,0-.39,2.63,13.35,13.35,0,0,0,.45,4,9.69,9.69,0,0,0,1.91,3.56l0,0c.21.25.35.32.4.39a23.36,23.36,0,0,0,1.72,2.67,21.76,21.76,0,0,0,3.13,3A40.43,40.43,0,0,0,59.83,40a11.64,11.64,0,0,0,2.3.57c.41.11.72.16.68.3a.39.39,0,0,1-.2.21,10.8,10.8,0,0,0-1.5.36,2.17,2.17,0,0,0-.36.1,9,9,0,0,0-3.15,1.91A25.62,25.62,0,0,0,55,47.05a9.8,9.8,0,0,1-2.77,3.12,4.56,4.56,0,0,0-2,1.68c-.29.53-.05,1.37-.27,1.53a.83.83,0,0,1-.6,0,.28.28,0,0,0-.13,0c-.31,0-.51.43-.51.43a1.25,1.25,0,0,0-1.12-.55.67.67,0,0,0-.29-.38l0,0a4.32,4.32,0,0,0-1.46-.35c-1-.09-1.13,0-1.7-.31a2.62,2.62,0,0,0-1.88-.62c-1,.09-1.17.33-1.46.82l0,.46-.77-.46a.44.44,0,0,0-.57.09.74.74,0,0,1-.86-.58,14.39,14.39,0,0,0-.73-2.3,11.78,11.78,0,0,0-1.45-2,8.52,8.52,0,0,1-1.1-2.3,12.28,12.28,0,0,1-.34-2,.67.67,0,0,0-1-.37L32,31.83s-.39-2.08-.75-2.29-.73.08-.74.57.26,5,.26,5l.47,4.49s.4,4.26.43,4.25.43,3.43.43,3.43a.15.15,0,0,1-.21.1,1,1,0,0,0-1-.08,1.37,1.37,0,0,0-.68,1.18,1.31,1.31,0,0,0,.1.44H30.3c-.51,0-.63.7-.63.7a1.65,1.65,0,0,0-.26.88,3.48,3.48,0,0,0,.18.86,1.63,1.63,0,0,0-.43,1.4c.07.42.7,1,.67,1a1.19,1.19,0,0,0-.23.35.92.92,0,0,0,.16.63c.09.06.59.68.92,1a14.2,14.2,0,0,0,1.62,1.22l.93.52s.28,2.1.46,2.78a1.91,1.91,0,0,0,.74,1.28A.77.77,0,0,0,35,61.6l.93-.64s.26-.2.18-.95-.2-.68-.33-1.77a.75.75,0,0,1,.57.18l.31.33a.64.64,0,0,0-.26.66c.11.4.8.8,1.31.91a8.14,8.14,0,0,0-.4,1.9,2,2,0,0,0,2,2.57,5.57,5.57,0,0,1,1.81.31c.31.16,1.37.73,1.75.95a5.35,5.35,0,0,0,1.59.58,6,6,0,0,0,1.3-.1c.3.16,2,.9,2.5,1.14a11.7,11.7,0,0,0,4.28.37A3.09,3.09,0,0,0,54,67.47a.65.65,0,0,1,.82.07c.22.27.11.92.11.92s.05,5.8.09,6a11.41,11.41,0,0,1,0,2.39c-.13.95-.05,2.19-.27,3.34s-.35,1.48.09,1.88a2.82,2.82,0,0,0,.58.43c0,.49-.49,6.94-.49,7.45s-.2,4.71,0,5.66A11.76,11.76,0,0,0,56,98.32a17.4,17.4,0,0,1,.09,2s0,0,0,.07l-.05,2.4h0A4.49,4.49,0,0,0,56.1,104c.16.78.29,1.57.35,1.7,0,.45-.63.48-1.06.45l-.16,0-.25,0,.1,0a10.87,10.87,0,0,1-1.86-.47c-1.31-.44-4.47-.6-6.09.29A4.83,4.83,0,0,0,45,109.1c-.05.36-.22,3,1.15,4a9.5,9.5,0,0,0,4.76,1.51,14.28,14.28,0,0,0,4.34-.16,25.17,25.17,0,0,1,4.73-.64,41.51,41.51,0,0,0,4.56-.44c.38-.09,1.17-.33,1.53-2.23a5.45,5.45,0,0,0-.82-3.76c-.22-.46-.31-.64-.07-1.11a11.59,11.59,0,0,0,.47-1.17c.15-.22.88-2.66.93-2.72s0-.76.1-1c.11-.05.15-.11.15-.18a4,4,0,0,0,.62-.53,13.57,13.57,0,0,0,1.24-2.9c.13-.64.55-3.06,1-4.71s.69-1.61.84-1.61.53.75.95,2.24.85,3.72,2.31,5.36a25.17,25.17,0,0,0,.33,3.71,28.16,28.16,0,0,0,.86,3.7c.29.69.11.84.11.84l-.64,1a7,7,0,0,0-.75,2.34c-.88.73-.95,2.34-.89,3.54a3.31,3.31,0,0,0,1.42,2.32c.55.53,1.82.58,2.94.62a32.28,32.28,0,0,0,4.41-.4,27.25,27.25,0,0,1,2.88-.22,10.74,10.74,0,0,0,2.79-.49,3.6,3.6,0,0,0,1.3-2.61,4.4,4.4,0,0,0-.77-3.3c-.42-.44-.93-.55-1.53-1.11s-1.76-1.68-1.79-1.71a.3.3,0,0,0,0-.09c-.13-.33,0-.51.26-1.31s.42-6.28.44-6.83a2.2,2.2,0,0,0,.66-.54A6.62,6.62,0,0,0,87.14,94a27.81,27.81,0,0,0-.55-4.91A2.67,2.67,0,0,1,87,88c.31-.4.35-3.76.4-4,0,0,.24-1.59.49-1.7s1.61-.29,1.75-.35a1.28,1.28,0,0,0,.53-1.17c0-.46,0-.78,0-1a3.31,3.31,0,0,0,2.27.45.09.09,0,0,0,.1,0A3.56,3.56,0,0,0,95,78.9c.49-.6.71-1.78,1.81-2.87a8.07,8.07,0,0,0,1.64-2.6,3.43,3.43,0,0,0,.11-1,4.74,4.74,0,0,1,.55-1.89A18.29,18.29,0,0,0,100,65.13Zm-21.1-25.3s-.24-2.26-.18-2.68.8-1,.8-1h0l1.07-.82a10.91,10.91,0,0,0,2.28-2.55c.16-.24.37-.59.58-1v.37a8.55,8.55,0,0,1-1.24,5.16A6.26,6.26,0,0,1,78.93,39.83Zm-3.2-1.56c.52-.18,1-.38,1.47-.59l.28-.14c.43,0,.38.31.38.31L78,39.7Zm1.82,2.08a3.09,3.09,0,0,1-.59.47,10.2,10.2,0,0,1-2.52.9,17.18,17.18,0,0,1,.67-2.89Zm-1-3.17a23.63,23.63,0,0,1-8,1.56,19.16,19.16,0,0,1-3.5-.26A14.48,14.48,0,0,1,60,36a20.1,20.1,0,0,1-4.12-4.57,15.21,15.21,0,0,1-1.75-4,21.49,21.49,0,0,1-.59-4.75c0-.43.08-2.51.08-2.51a.33.33,0,0,1,.33-.29l1.93-.08a6,6,0,0,0,1.63-.39,16.85,16.85,0,0,1,1.83-.51c.72-.16.71-.26.71-.26a3.1,3.1,0,0,1-.28-1.82,2.71,2.71,0,0,1,.69-1.49,3.75,3.75,0,0,0,.31-.62s.23.74.41,1.35.77,1.66.91,2a4.31,4.31,0,0,1,.14,1.18,5.13,5.13,0,0,0,2.4-.41,16,16,0,0,1,3.14-.36,19.38,19.38,0,0,1,2,0,13.13,13.13,0,0,1,1.67.31,15,15,0,0,0,2.73.75,3.28,3.28,0,0,0,2.48-.53,15.12,15.12,0,0,0,1,2A18.54,18.54,0,0,0,80.28,24a15.29,15.29,0,0,0,1.22,1l.13.1a6.7,6.7,0,0,0,1,.57c.15-.6.88-.72,1.06-.78s2.36-.43,2.3,1.29a4.91,4.91,0,0,1-1.72,3.29.79.79,0,0,1-.76.24,8.8,8.8,0,0,1-1.35,2.9A14.74,14.74,0,0,1,76.54,37.18Zm-8,17.05c-.32-.23-1.16-.84-2.06-1.56,1.06-.29,2-.53,2.31-.6a5.94,5.94,0,0,0-.08.86C68.75,53.82,68.76,54.1,68.58,54.23Zm-2-14.6,2,2.09a8.7,8.7,0,0,1-3-1l0,0Zm-1.39.43a3.41,3.41,0,0,1,0-.73.21.21,0,0,1,.18-.14l.5.1Zm-.51,5.52c.22-.14,1.54-.65,2.95-1.18,1,1.19,2,2.43,2.06,2.46s-1.75.67-3,1.2Zm3.74,5.94a22,22,0,0,0-2.38.76,13.86,13.86,0,0,1-2.23-2.18s1.15-.63,2.55-1.31ZM66.3,41.89l0,0c.27.07.59.13,1,.19,1.17.18,2.95.36,3.64.42-.61.19-1.87.7-3.09,1.2Zm1.12-2.43h1.72l.73,0L69,41.11S67.92,39.95,67.41,39.46Zm-1.52,2.83,1.36,1.65-2.37,1-.32.12A15.81,15.81,0,0,1,65.89,42.29ZM66,48.34l-.36.17c-.81.39-1.81.87-2.24,1.14.24-1.25.56-2.7.82-3.66Zm-.65,4.17-2,.72a2,2,0,0,1-.29-1.16,9.83,9.83,0,0,1,.19-1.55C63.57,50.82,64.46,51.67,65.38,52.52Zm.39.36c.72.66,1.41,1.26,1.78,1.53a7.73,7.73,0,0,1-3.4-.54,3.64,3.64,0,0,1-.44-.28A16,16,0,0,1,65.77,52.88ZM67,48.48a23.94,23.94,0,0,1,3-1.21c-.3,1.16-.7,2.61-1,3.83h0C68.92,50.92,68,49.72,67,48.48Zm1.29-4.32,3.05-1.11a1.6,1.6,0,0,1,.44-.1l-.07.1a12.14,12.14,0,0,0-1.52,3.29Zm3.36-2.11a20.06,20.06,0,0,1-2.2-.19,2.41,2.41,0,0,0,.45-.88,5.06,5.06,0,0,1,.8-1.44,15,15,0,0,1,1.79,1.22c.17.16.91.92,1.12,1.13A10,10,0,0,1,71.65,42.06Zm0-2.81c.52-.08,1-.18,1.51-.28s.75-.16,1.15-.27l-.46,2.16S72.32,39.6,71.69,39.24ZM85.54,23.17a10.84,10.84,0,0,1,1.71,2.94,10.68,10.68,0,0,1,0,4.51c-.42,2.37-3.06,4.45-3.06,4.45s-.09-2.15,0-3.34a4.26,4.26,0,0,1,.43-1.66,5.5,5.5,0,0,1,.57-.58,7,7,0,0,0,1.29-2.22,3,3,0,0,0-.06-1.85,2.26,2.26,0,0,0-1.45-1,10.62,10.62,0,0,0-2.57.28,1.12,1.12,0,0,1-.91-.43c-.58-.57-2.23-1.63-2.3-2.2,0,0-.13-.39.33-.4s2.75.18,2.75.18a8.3,8.3,0,0,1,2.18.27A4.82,4.82,0,0,1,85.54,23.17Zm-.68-10.38h0s1.91,2.63,2.14,2.94a22.82,22.82,0,0,1,1.82,3.35A36.72,36.72,0,0,1,90,22.73a21.46,21.46,0,0,1,.39,2.75s-.56-.66-.91-1a11.22,11.22,0,0,1-2.22-1.87A9.69,9.69,0,0,1,86,20.44a7.67,7.67,0,0,1-.47-2.13c0-.46-.11-1.24-.14-2.3A15.33,15.33,0,0,0,85,13.58,6.5,6.5,0,0,0,84.86,12.79Zm6.45,17.61a6.34,6.34,0,0,1-.83,2.66,6.23,6.23,0,0,1-1.12,1.67l-.94.87a16.68,16.68,0,0,1-6.08,3.14s-.46.11-.64.13c.32-.32,2.43-2.62,3.46-3.76a15.63,15.63,0,0,0,2.72-4,9.18,9.18,0,0,0,.16-4.93,9.45,9.45,0,0,0-1.51-3,12.72,12.72,0,0,1-.91-1.82,5.55,5.55,0,0,1-.21-1.07,6.36,6.36,0,0,0,1.32,2.44,10,10,0,0,1,2.15,2.68,10.1,10.1,0,0,1,.5,3.57,17.35,17.35,0,0,1-.13,1.81c0,.17.51-.26.52-1.92a17.22,17.22,0,0,0-.16-3.08,6.13,6.13,0,0,1,1.21,1.92A6.53,6.53,0,0,1,91.31,30.41Zm2.81-5,0,.17a9.8,9.8,0,0,1-.24,3.38,8.94,8.94,0,0,1-2,3.43l-.23.22a8.85,8.85,0,0,0,.08-4.07,22.79,22.79,0,0,1-.86-3.58,27.92,27.92,0,0,0-.58-4,11.34,11.34,0,0,0-.6-1.64s-.39-.76.39-.47,2,1.92,2.54,2.75a8.65,8.65,0,0,1,1.26,2.95C94,24.86,94.08,25.15,94.12,25.36Zm-7-14.74a22.17,22.17,0,0,1,5.07,5.64,13.17,13.17,0,0,1,1.53,5.49,10.1,10.1,0,0,0-1.31-1.81,15.68,15.68,0,0,0-2.91-2.23,15.53,15.53,0,0,1-2.07-2.42c-.68-1-1.57-2.44-1.78-2.75s-.57-.88-.75-1.16A23,23,0,0,0,83.23,8S86.44,10,87.14,10.62ZM80.42,6.17c2.24,1.22,2.86,3.1,3.56,5.56,0,0,.48,2,.59,2.93s.13,1.7.15,2,.09,2,.1,2.53a.82.82,0,0,0,0,.18s0,.39,0,.41a1.08,1.08,0,0,1-.22.86c-.32.29-1.78.31-1.78.31l-3.43,0A1.86,1.86,0,0,1,78,20.06a1.93,1.93,0,0,1-.34-1.58A9.73,9.73,0,0,1,78.26,17a6.74,6.74,0,0,0,.5-2.16.23.23,0,0,0,0-.09,15,15,0,0,0,.17-3.51C78.74,9.64,77.27,5.75,76.19,5A9.57,9.57,0,0,1,80.42,6.17ZM66.63,3.89A6.15,6.15,0,0,0,65,6.32a7.7,7.7,0,0,0-.42,2,11.77,11.77,0,0,1,2-3.56,2.82,2.82,0,0,1,2.12-1.26c.55-.07.8,0,1.82.89a6.34,6.34,0,0,1,1.4,3,4.7,4.7,0,0,0-.76-3.31c0-.11,0-.34.56-.48a3.36,3.36,0,0,1,2.79.53,10.14,10.14,0,0,1,3.36,5.55c.95,3.45.4,5.21.4,5.21a14.3,14.3,0,0,1-.65,2.44A3,3,0,0,1,75.34,19a4.07,4.07,0,0,1-2.08-.28,2,2,0,0,0,.5-.2,4.56,4.56,0,0,0,2.35-2.48,5.48,5.48,0,0,0,.22-3.23,7.76,7.76,0,0,1-1,3.5,3.71,3.71,0,0,1-2,1.82,2.32,2.32,0,0,1-1,.26A14.4,14.4,0,0,0,70.5,18a5.08,5.08,0,0,0,1.29-1.27A3.94,3.94,0,0,0,72.09,15c0,.24-.17.45-.54,1.18s-1.57,1.19-2.5,1.45a35.16,35.16,0,0,1-3.51.46c-.66.11-2.75.61-2.75.61a4.07,4.07,0,0,0-.36-1c-.15-.33-.36-.86-.47-1.19l-1.09-3.17a8.43,8.43,0,0,1,.46-5.41A6.66,6.66,0,0,1,64.53,4.6,4.05,4.05,0,0,1,66.63,3.89ZM55.3,10.18c.32-.6.77-1.15,1-1.57s1.13-1.48,1.13-1.48a7.9,7.9,0,0,1,4-2.49,7.62,7.62,0,0,0-2.48,2.19,2.56,2.56,0,0,0-.46,1.62,16.1,16.1,0,0,1,1.31-2A9.34,9.34,0,0,1,63,4.38a3.06,3.06,0,0,1,1.42-.24,6.35,6.35,0,0,0-3,2.32,6.8,6.8,0,0,0-1.31,3.69c0,1,.12,3.36.12,3.36a1.84,1.84,0,0,1-.4,1,4,4,0,0,0-.71,1.55,7,7,0,0,0,0,2c.12.48-.26.37-.41.34a3.65,3.65,0,0,1-1.65-1.3,3.23,3.23,0,0,1-.21-2.46c.08-.32.28-.57.23-.58s-.29.07-.47.4a4.41,4.41,0,0,0-.26,2.23c.16.74.58.88.63,1.43s-.23.66-.65,1a4.19,4.19,0,0,1-2.26.28c-.67-.09-.58-.44-.58-.44l0-1.56h0a12.26,12.26,0,0,1,.18-2.08c.2-1.11.37-1.79.51-2.38A18.15,18.15,0,0,1,55.3,10.18Zm-1.67,2s.15-.08.18,0,0,.16-.17.58a24.84,24.84,0,0,0-.58,3c0,.36,0,1.82,0,1.82.05.77.15,1.43.15,1.82a.64.64,0,0,1-.29.55.84.84,0,0,1-.91-.43s-.21,0-.33-1a6.8,6.8,0,0,1,.32-2.6,19.93,19.93,0,0,1,.92-2.41A4,4,0,0,1,53.63,12.16Zm-4.14,7c.09-.42.36-1.7.44-1.93a12.18,12.18,0,0,1,.82-2.13l.07-.15c.19-.32,1-1.56,1.16-1.75s.5-.61.61-.57a.15.15,0,0,1,.11.12c-.06.11-.78,1.46-.94,1.81a8.79,8.79,0,0,0-.53,1.76A12.47,12.47,0,0,1,51,18.08a2.37,2.37,0,0,1-.48.86c-.29.36-.67.9-.88,1.24a2.41,2.41,0,0,0-.29.6A16,16,0,0,1,49.49,19.16ZM50.9,30.54s0,.23-.16.25-.5-.47-.5-.47a9.93,9.93,0,0,1-1.15-3c-.59-2.43-.34-3.1-.25-3.54a15.16,15.16,0,0,1,.79-2.14c.17-.33,1.3-1.86,1.3-1.86a.29.29,0,0,1,.36-.1,2.09,2.09,0,0,0,.46.58c.22.15.35.21.36.4s-.35.66-.56,1a4.41,4.41,0,0,0-.76,2.2c0,.28.06.13.16-.11a6.24,6.24,0,0,1,1.28-1.91,6,6,0,0,1,.65-.86v0h0c0,.22-.13,1.78-.19,2.26A7.06,7.06,0,0,1,52,25.45a9,9,0,0,0-1,2.75C51,28.74,50.9,30.54,50.9,30.54Zm1.56,3a7.89,7.89,0,0,1-1.1-2.94s.07-1.79.15-2.25a8.5,8.5,0,0,1,1-2.45c.11-.2.25-.78.57-.34s.24,2.86.25,3.3a10.7,10.7,0,0,0,.44,2.71c.3.78.86,2.26,1.19,2.92a29.29,29.29,0,0,0,1.41,2.6A10.73,10.73,0,0,1,52.46,33.52Zm8.48,6.06a10.16,10.16,0,0,1-4-2.87,19.07,19.07,0,0,1-2.05-3.88c-.69-1.94-.5-2.12-.43-2.14s.15,0,.33.32a16.22,16.22,0,0,0,3,4.15,13.84,13.84,0,0,0,5.92,3.58l.52.15c.44.24.37.49.4.93a.5.5,0,0,1-.4.56S63.44,40.52,60.95,39.57Zm-29,.65L31.58,37l-.42-3.79s-.19-1.8.06-1.88S32,35,32,35s.62,3.47.62,3.47l.89,4.85a.2.2,0,0,0,0,.1c0,.26.68,4.66.68,4.66a.41.41,0,0,1-.26.47c-.33.14-1-.49-1.09-.68L32.7,47l-.47-3.9Zm-.78,7.67c.52-.1,1.19.47,1.5.65s1.87,1,2.12,1.1,1.26.66,1.19,1.16a.54.54,0,0,1-.57.47A5.33,5.33,0,0,1,33,50.6a6.71,6.71,0,0,1-1.88-1.28,1.06,1.06,0,0,0-.27-.25,1.77,1.77,0,0,1-.18-.44S30.6,48,31.12,47.89ZM29.77,50l.09-.22a.55.55,0,0,1,.79-.11,11.25,11.25,0,0,0,1.77,1.11c.57.25,1.23.36,2.37.78s1.23.63,1.35.95,0,.69-.5.88a4,4,0,0,1-1.71-.1,18.05,18.05,0,0,1-2.11-.57c-.27-.18-1.33-1.07-1.33-1.07h0a2.63,2.63,0,0,1-.56-.79A2.21,2.21,0,0,1,29.77,50Zm2.91,6.21a2.61,2.61,0,0,1,.32-.11l0,.37A2.6,2.6,0,0,1,32.68,56.21Zm.65-.68a.66.66,0,0,1-.42.33,4.07,4.07,0,0,1-.76,0,5.4,5.4,0,0,1-1.61-.76c-.58-.38-.48-.65-.43-.73s.18-.13.37,0,.78.34.78.34a7.14,7.14,0,0,0,1.84.29A.38.38,0,0,1,33.32,55.53Zm0-.71h-.1a6.5,6.5,0,0,1-1.9-.44,3.65,3.65,0,0,1-1.41-1.23c-.35-.52-.43-.93-.22-1.1s.44.06.59.17a7.21,7.21,0,0,0,1.47,1.09,9.11,9.11,0,0,0,2.54.58c.35,0,.67-.15.78,0a.3.3,0,0,1,.06.28.12.12,0,0,0,0,.05c-.05.16-.05.18-.71.47A2.2,2.2,0,0,1,33.35,54.82ZM35.12,61c-.27.09-.58.19-.73-.18A11.67,11.67,0,0,1,34,59c0-.15-.25-2-.26-2.29s-.16-1,.2-1.17a1,1,0,0,1,.79,0h0a9.37,9.37,0,0,1,.41,2c.22,1.62.38,2.15.38,2.57A1,1,0,0,1,35.12,61Zm1.43-3.33a.56.56,0,0,0-.31,0c-.22,0-.53.05-.64-.4s-.11-1.5-.16-1.75-.09-.39-.13-.55a2.17,2.17,0,0,1,.27-.4c.12-.11.14-.48.14-.48s.08-.22.27-.35a1.18,1.18,0,0,0,.56-.95,1.35,1.35,0,0,0-.56-.92.9.9,0,0,0,.47-.7c0-.48-.36-.95-1-1.49s-.73-.46-.8-1.1-.34-3.34-.34-3.34-.17-1.28-.25-1.44.09-.38.37-.32.37.28.44.77.18,1.61.26,2a5,5,0,0,0,.66,1.56c.36.54,1.32,1.56,1.48,1.82a5.52,5.52,0,0,1,.78,1.78,4.54,4.54,0,0,0,.1,1,2.61,2.61,0,0,1,.66.88,5.87,5.87,0,0,1,0,1.9,8.22,8.22,0,0,1-.95,3s-.36.35-.66.29A1.4,1.4,0,0,1,36.54,57.62Zm.88,2.17c-.18,0-.58-.22-.57-.46s.26-.42.66-.51.46-.13.55-.27a7.08,7.08,0,0,0,1.19-2.43,18.38,18.38,0,0,0,.2-2.35.68.68,0,0,1,.89-.62,2.09,2.09,0,0,0,.57.49,1.64,1.64,0,0,0,.62.15c.18,0,.57.78.66,2.19a7.78,7.78,0,0,1-.55,3.25l-.51.95s-.31.66-.77.58a6.43,6.43,0,0,1-1.3-.49,1.48,1.48,0,0,0-.6-.24A9.21,9.21,0,0,0,37.42,59.79Zm1.5,4c-.47.09-.95-.05-1-1.33s.18-1.48.24-1.53h0a.53.53,0,0,1,.65-.14s.13,0,.18.47.53.95.55,1.39S39.39,63.73,38.92,63.82Zm6.77,1.81a2.42,2.42,0,0,1-1.66.24c-1-.2-1.33-.18-1.48-.86a.44.44,0,0,1,.22-.49,1.33,1.33,0,0,0,.6-.91,6.39,6.39,0,0,1-1.68.82,2.56,2.56,0,0,1-1.26-.29c-.29-.09-.44,0-.66-.09s0-.58.18-.75a5.89,5.89,0,0,0,.88-1.22c.2-.38.71-1.77.71-1.77a6.25,6.25,0,0,0,1.08-3.38,8.62,8.62,0,0,0-.38-3.76s-.07-.31-.24-.31-.24.33-.46.31-.29-.24-.29-.46a1.31,1.31,0,0,1,1.55-.64c1.15.26,2.26,2.65,2.44,3.17a3.38,3.38,0,0,0-.05-1.3s-.51-.91.38-.77a6.35,6.35,0,0,1,1.18.26,1.37,1.37,0,0,1,.64.86,34.26,34.26,0,0,1,.26,4.24,26,26,0,0,1-.53,4.53A6,6,0,0,1,45.69,65.63Zm9.65,15.16s.13-2.08.22-2.63.09-2.34.09-2.34,0-.33.62-.26,3.3.53,3.3.53A57,57,0,0,0,55.34,80.79ZM87.2,74.44A7.29,7.29,0,0,0,85.85,71s-.33-.4-.64-.73c0,0-.26-.2-.11-.37l.18-.08a2.38,2.38,0,0,1,2.05.14c2.82,1.61,2.35,2.63,3,4.27.1.24.2.52.3.81a.36.36,0,0,1-.33.29L88.67,76l-1.45.73s-.55.34-.27-.34A3.79,3.79,0,0,0,87.2,74.44ZM85.88,72a8.22,8.22,0,0,1,.66,3.49c0,.55-2.18,2.68-2.79,3a4.2,4.2,0,0,1-2.16.41c-1.2,0-3.27.15-3.58.19s-2.35.23-3.09-.36a.69.69,0,0,1,.15-1.29c.38-.14,2.07-.08,3.3-.22s1.78-.75,2-.68.23.29,0,.67-.4.38-.4.47.37.16.85-.26A3.77,3.77,0,0,0,81.94,75,1.22,1.22,0,0,0,81,73.84c-.66-.23-1.94-.44-2.42-.59s-1.37-.39-1.25-.93a.38.38,0,0,1,.36-.33h.65a19.17,19.17,0,0,0,1.92-.11c.89-.14,3-1.16,3.67-1.2S85.23,70.53,85.88,72Zm-6.79,7.69c1.12-.06,2.27-.16,2.87-.21-.22.33-1,1.88-1.23,2.31Zm1.13,2.52s-1.92.2-2.52.31-3.9.62-3.9.62-.77.07-.57-.05,2-3.14,2.26-3.5a8.28,8.28,0,0,0,1,.15,15.71,15.71,0,0,0,1.77,0Zm4-12.66v0a.28.28,0,0,1-.21.2c-.27.1-.48.05-.9.16s-1.29.68-1.77.86a11.5,11.5,0,0,1-2.86.53H78.3a2.94,2.94,0,0,0-1.15.21c-.41.22-.38,1.23-.31,1.41a4.49,4.49,0,0,0,2.07,1,5.88,5.88,0,0,1,2.16.83c.1.2-.12.81-.83,1.19a7.75,7.75,0,0,1-3.35.81c-1.66.1-1.71-.07-1.9-.25s-1-5.08-1-5.08h0l-1.41-8.49s-.2-.73.46-.88l.66-.13v0l3.78-.41,6.68-.6c1-.08,1.26.79,2,1.59a6.78,6.78,0,0,1,1.26,3.61c-.08.74-1.37,1.09-2.44,1.51S84.23,69.51,84.23,69.51Zm-11,2,1,5a.6.6,0,0,1,0,.48c-.12.23-.44.05-.73.07a10.09,10.09,0,0,0-1.12.31,3.86,3.86,0,0,1-.56,0l0,.38c-.18-1-.88-5.14-1.16-6.78-.33-1.88-1.11-6.59-1.11-6.59s-.31-1.64.58-2.13,1.59.42,1.79,1.31S73.26,71.55,73.26,71.55Zm-2.54,5.32L71,78.38s0,.73.58.6.4-.59.37-.79a1.9,1.9,0,0,1,.93-.37c.71-.12,1-.08,1.09.11s0,.63.3,1a1.66,1.66,0,0,0,.61.42c-.2.33-1.19,1.95-1.55,2.6s-.53.53-.53.53c-.33-.24-3.58-5.89-3.58-5.89a2.82,2.82,0,0,1,1,0A.68.68,0,0,1,70.72,76.87Zm-1.28,1.42S70.81,81,71.52,82a7.2,7.2,0,0,0,1.09,1.19l-.57,0-4-.49s-3.25-.27-3.61-.35l-.28,0a57.48,57.48,0,0,1,4.65-5.33Zm-5.71,3.58c-.28-.2-2.59-4.71-3-5.6l7.57.32S64.09,80.53,63.73,81.86Zm-.63.28c-.93-.08-2-.18-2.39-.23-.57-.09-4.71-.2-5.13-.15a2.63,2.63,0,0,1,.75-1.31l3.74-3.58ZM55.37,106.6l1.48.58h0l1.1.51-1.64.05a4.65,4.65,0,0,0-1-1.16Zm5.93-.82a30.18,30.18,0,0,1-4.05.24s0,0,0,0a9.94,9.94,0,0,1-.38-2.09,8.82,8.82,0,0,0,5.56,1.62Zm3.45-.38h0c-.07,1-.8,2-2.52,2.34a7.54,7.54,0,0,1-3.76-.62,2.52,2.52,0,0,0-.47-.39,37.44,37.44,0,0,0,4-.27A5.17,5.17,0,0,0,64.75,105.4Zm-8.07-3-.11-1.86s1.35,2.52,6.64,2.54h.1a9.85,9.85,0,0,1-3.52.34A6.49,6.49,0,0,1,56.69,102.39Zm-6.23,3.48h.22A5.62,5.62,0,0,1,52,107.51c.24.44.22.73-.05.93a6.88,6.88,0,0,1-2.86,0c-.55-.2-.36-.53-.36-.53h0a3.84,3.84,0,0,1,.76-1.11C49.91,106.39,50.12,106,50.45,105.87Zm-4.18,1.82a2.14,2.14,0,0,0,1.36,1,2.7,2.7,0,0,0-.12.46,11.07,11.07,0,0,0-.12,1.79.33.33,0,0,1-.44.12,2.48,2.48,0,0,1-1-.93,2.82,2.82,0,0,1-.26-1A4.74,4.74,0,0,1,46.27,107.69Zm.4,4.71a3,3,0,0,1-.91-1.36,2.4,2.4,0,0,0,1.7,1,3.18,3.18,0,0,0,.26,1A4,4,0,0,1,46.67,112.4Zm.34-5.61.12-.1a4.75,4.75,0,0,1,2.33-.77A12.3,12.3,0,0,0,48,108,1.12,1.12,0,0,1,47,106.79Zm1.3,4.28a5.41,5.41,0,0,1-.16-1.44.58.58,0,0,1,.49-.57s1.42.26,2,.27c.36,0,1.11,0,1.72-.08a8,8,0,0,1,.23,1.87v.07a.74.74,0,0,1-.67.39C51.25,111.64,48.8,111.73,48.31,111.07Zm4.25,2.61c-.09.2-.16.29-.58.31h-.06a15.9,15.9,0,0,1-3-.54,6.09,6.09,0,0,1-.48-1.36s2.63.28,4.13.33A6.46,6.46,0,0,1,52.56,113.68Zm.29-5.93c-.27-.63-.69-1.45-.86-1.79.75.09,1.44.21,2,.32a4,4,0,0,1,1.52,1.29c.24.29,0,.4,0,.4s-.88.13-1.2.13S53.2,108.57,52.85,107.75Zm.4,1.43a13.13,13.13,0,0,1,1.86-.44c.27,0,.58,0,.88,0a.57.57,0,0,1,.14.14,3.87,3.87,0,0,1,.64,1.9s0,.49-1.13.69a3.72,3.72,0,0,1-2.19,0h0c0-.43,0-.79,0-.95A7.65,7.65,0,0,0,53.26,109.18Zm3.43,3.68a1.73,1.73,0,0,1-.6.71,22.8,22.8,0,0,1-2.61.44h-.05c0-.3,0-.95,0-1.6,1.09-.06,2.51-.22,3.37-.32A1.41,1.41,0,0,1,56.69,112.86Zm3.17-.46a1,1,0,0,1-.22.55l-.57.06c-.55.06-1.11.17-1.69.28a1.82,1.82,0,0,0,.37-1.38,9.54,9.54,0,0,1,2-.43h.17A3.4,3.4,0,0,1,59.86,112.4Zm.13-1.84h0c0,.05-.13.45-1,.43s-1.3,0-1.51-.26a3.12,3.12,0,0,0-.18-1.26,6.36,6.36,0,0,0-.4-.8l.15,0a14.17,14.17,0,0,1,2.24-.24,2.6,2.6,0,0,1,.75,1.5C60.13,110.42,60,110.56,60,110.56Zm.8-2.16a10,10,0,0,1,1,0,1.59,1.59,0,0,0,.36,0h0l.12.08a9.74,9.74,0,0,1,.78,1.42.49.49,0,0,1-.28.52,5.62,5.62,0,0,1-1.18.17,2.72,2.72,0,0,1-.85-.15,6.79,6.79,0,0,0-.3-1.93A.42.42,0,0,0,60.79,108.4Zm2.25,4a.81.81,0,0,1-.78.47h0c-.47,0-1,0-1.63,0a6.93,6.93,0,0,0,.14-1.46c.81,0,1.75,0,2.41-.09h0A2.83,2.83,0,0,1,63,112.37Zm1.9-.6c-.37.93-.94,1.06-1.3,1.08a4.8,4.8,0,0,0,.37-1.6h0a3.58,3.58,0,0,0,1.17-.29A4.69,4.69,0,0,1,64.93,111.77Zm.3-2.48c-.07.24-.29.54-.93.75l-.41.13a3.81,3.81,0,0,0-.82-1.93,3.28,3.28,0,0,0,1-.44c.44-.35.51-.4.93.49A3.46,3.46,0,0,1,65.23,109.28Zm-.11-4.54a13.52,13.52,0,0,1-4.29-.09,8.31,8.31,0,0,1-3-1,20.62,20.62,0,0,0,5.82,0,4.29,4.29,0,0,0,2-.67h0A7.28,7.28,0,0,1,65.11,104.74Zm.77-2.9c-.05.29-.05.75-1.33.71s-4.27,0-5.95-1S57,100,57,100s0-.11.13-.08a5.33,5.33,0,0,0,1.24.63,21.52,21.52,0,0,0,7.37,1.05h0S65.94,101.55,65.88,101.84Zm3.79-10.6a42.74,42.74,0,0,0-1.53,4.62c-.22,1.11-.55,3.08-1.22,3.78s-.82.73-1.35.84c0,0-.86.38-1.37.07s-.16-.58-.05-.91a6.19,6.19,0,0,0,1-3.34,1.23,1.23,0,0,0-.15-.66s-.55,3.5-2.37,4.52-4-.44-4.45-.84a6.41,6.41,0,0,1-.69-3.65,2,2,0,0,0-.31,1.53s.29.88,0,1-.84-.13-1.28-1.59a13.44,13.44,0,0,1-.05-5.25,3.61,3.61,0,0,0,.66.4c.49.26-.62-1.61-.6-3.06a39.73,39.73,0,0,1,.31-5.13c.16-.51.34-.91.87-1.08l1.48-.07c.66,0,4.07.13,5.6.31l.46.06a7.22,7.22,0,0,1,4.61,3.59C70.81,89.42,70,90.44,69.68,91.24Zm5.16,9.47c2.63,1.84,6.44,1.49,6.44,1.49a18.64,18.64,0,0,1-6.5.17A9.15,9.15,0,0,1,74.84,100.71Zm9.45-.31s0,.18,0,.38c-.56,1-2.4,1-2.4,1-4.19-.06-6.36-1.32-6.87-1.65l.09-.12a5.47,5.47,0,0,0,1.2.44,17.2,17.2,0,0,0,6.77-.49l.92-.35C84.36,99.75,84.27,100.27,84.29,100.4Zm-9.4,3.17,0-.15c.35.34,1.11.76,3.29,1.08s5.07-.35,4.91-.2a5.64,5.64,0,0,1-2.66,1,23,23,0,0,1-5.13,0A12.38,12.38,0,0,1,74.89,103.57Zm2.37,6.35c.65-.13,1.55-.3,2.6-.41a3.26,3.26,0,0,1,.66,1.18v.06l-1.89.1a12.35,12.35,0,0,0-2.06.34l0-.12A3.29,3.29,0,0,1,77.27,109.92Zm.07-2.25c.39-.06.89-.12,1.57-.17a4.81,4.81,0,0,0,.3,1.29,19.84,19.84,0,0,0-2.08.43A5,5,0,0,1,77.34,107.67Zm3.13,1-.47.05-.05-.05a5,5,0,0,0-.3-1.19l.41,0a11.16,11.16,0,0,1,1.34,0c.15.21.52.76.71,1.13C81.64,108.53,81.1,108.56,80.48,108.63Zm-.89-2c-1.79.05-3.67.33-3.67.33s-.15-.3-.35-.81c.38.08,1.19.23,1.86.3.91.09,2.65-.07,3.48,0s2.07.32,2.29.36l0,.12A18.54,18.54,0,0,0,79.58,106.62Zm1.7-.86a5.57,5.57,0,0,0,2.53-1c-.11.45-.24.92-.37,1.3A12,12,0,0,0,81.28,105.76ZM75,109.21c.08-.59,1.08-1.13,1.41-1.3l.24-.08a2.87,2.87,0,0,0-.15,1.16l0,.41a8.52,8.52,0,0,0-1,.38C75.23,109.81,74.88,109.86,75,109.21ZM74.46,111a5.13,5.13,0,0,1,1.86-.78l0,0h.05l0,0a2.09,2.09,0,0,0-.62,1.25l-.57.17a3.25,3.25,0,0,1-1.41.15A3,3,0,0,1,74.46,111Zm-.89,2s0-.1,0-.16a5.13,5.13,0,0,1,2.1-.58c0,.58.09,1.29.2,2a5,5,0,0,1-1.28-.11c-.43-.15-.79-.07-1.06-.79A2,2,0,0,0,73.56,113Zm.09,1.59-.06-.12a4.16,4.16,0,0,0,1.49.36c.33,0,.63.09.93.14a3.27,3.27,0,0,0,.51,1.27A3.85,3.85,0,0,1,73.65,114.59Zm7.17.95a.94.94,0,0,1-.59.64c-.46.05-1,.1-1.8.14h-.06a2.88,2.88,0,0,1-1.24-1.15l0-.06a6.08,6.08,0,0,0,1.17,0c1.14-.14,2.14-.28,2.56-.32C80.91,114.89,80.9,115.11,80.82,115.54Zm.11-1.88c-.09.49-.44.31-.64.33s-2.23.36-2.83.35a4.52,4.52,0,0,1-.78-.09,5.27,5.27,0,0,1-.24-2.18,9.19,9.19,0,0,1,4-.54.71.71,0,0,1,.38.51v0A8.31,8.31,0,0,1,80.93,113.66Zm.35-3.08a1,1,0,0,0-.18-.69,4,4,0,0,0-.37-.46l.84-.05c.54,0,1,0,1.45,0a2.29,2.29,0,0,1,.88,1.2l-1.36.06c-.2,0-.91.06-1.23.09Zm2.49,5.18c-.59.05-1.2.09-1.49.09a3.52,3.52,0,0,0-.77.14,2.3,2.3,0,0,0,0-1.26c.8-.05,2.24-.16,2.57-.23l.64-.1C84.72,114.95,84.11,115.49,83.77,115.76Zm1-2.24h0a5.22,5.22,0,0,1-2,.28,4.78,4.78,0,0,0-1.28.05s-.06-1.34-.08-2.09c.41-.75,1.83-.72,2.18-.68a1,1,0,0,1,1,.69A6.64,6.64,0,0,1,84.76,113.52Zm2.43,1.11c-.46.77-1.57.82-2.06.95a10.94,10.94,0,0,0,.27-1.26c.46-.05.91-.1,1.13-.11a2.62,2.62,0,0,0,1-.27A4,4,0,0,1,87.19,114.63Zm.53-2.39q0,.08,0,.16a1.19,1.19,0,0,1-.89.83,7.52,7.52,0,0,1-1.39.16,12.88,12.88,0,0,0-.29-2l1.06.07a4.13,4.13,0,0,1,1.46.45C87.7,112,87.71,112.11,87.72,112.24Zm-.37-1.56a19,19,0,0,0-2.51-.12h0a4.81,4.81,0,0,0-.52-1.1,5.26,5.26,0,0,1,1.28.28l0-.06C86.77,110.08,87.12,110.37,87.35,110.68Zm-2.57-1.92a6.8,6.8,0,0,0-1.82-.24c-.1-.25-.29-.75-.42-1a5.05,5.05,0,0,1,1.52.47A1.43,1.43,0,0,1,84.78,108.75Zm-.38-6,0-.24s-.27,1.15-2.86,1.4a13.59,13.59,0,0,1-5.05-.58s1,.09,3.08.05a11.89,11.89,0,0,0,4.45-1.4.33.33,0,0,1,.35.06l0,.47A.65.65,0,0,1,84.39,102.76Zm1.72-12.17a13.28,13.28,0,0,1,.15,5.11c-.33,1.4-.84,2.32-1.93,2.68,0,0,1-2.72.38-4.52a20.45,20.45,0,0,1-.47,2c-.27.89-.86,3.32-2.46,3.63a11,11,0,0,1-4.16.16c-1-.24-1.62-1.75-1.73-2.08s-.27-.07-.18.33a7.58,7.58,0,0,0,.44,1.3c.11.2-.07.33-.36.18a3,3,0,0,1-1.42-1.13l-.08-.09a8.79,8.79,0,0,1-1.69-3.29c-.55-2.06-.89-4.85-1.73-6.73a16.61,16.61,0,0,0-2.12-3.74s-.51-.49.09-.78a.11.11,0,0,0,.07,0,14.68,14.68,0,0,1,1.55-.05l1.81,0s2.61-.07,3.28,0a16.51,16.51,0,0,0,2.1-.27c.4,0,3.08-.57,3.08-.57a27.13,27.13,0,0,1,4.49-.55c1,.1,1.29.41,1.34.94h0l0,.73a11.52,11.52,0,0,1-.44,3.25,6.17,6.17,0,0,1-1,1.79A3.45,3.45,0,0,1,86.11,90.58Zm-4.94-8.5a16.37,16.37,0,0,1,1.64-2.75c.26-.06.54-.14.7-.17a13,13,0,0,0,1.83-1.3h0l2.24,3.5Zm8.1-1.28c-.13.57-1,.36-1,.36l-2.35-3.71.47-.3s.17.2.25.21c.23,0,.63-.37.9-.22A10.47,10.47,0,0,1,89,78.83l.16.2A5.69,5.69,0,0,1,89.27,80.81Zm2-1.33a4.37,4.37,0,0,1-1.81-1.05l-.22-.3s-.12-.31,0-.4A3.52,3.52,0,0,1,91,77.34a.72.72,0,0,1,.41.24c.23.89.38,1.56.38,1.56C91.76,79.69,91.27,79.47,91.27,79.47Zm6.51-6.25a.25.25,0,0,0,0,.12c0,.47-.88,2.13-1.37,2.16s-1.18-3.37-1.81-4.43-.74-.77-.74-.77.93,2.52,1,2.71a7.84,7.84,0,0,1,.63,3.67,4,4,0,0,1-2.3,2.79c-.37.09-.49-.08-.52-.26V79a.89.89,0,0,1,0-.14l0-.09c0-.35-.09-.73-.15-1.12a20.73,20.73,0,0,0-3.12-7.12c-1.61-2-4.16-1.45-4.41-1.53s-.25-.57.08-1,2.33-.71,2.52-.82,1.07-1.07,1.23-1.09.79-.55,3.75.27a8,8,0,0,1,4.33,3.1.21.21,0,0,0,0,.07,5.35,5.35,0,0,1,.77,1.59A4,4,0,0,1,97.78,73.23ZM99.26,67a27,27,0,0,1-.77,3.48c-.14.68-.3.9-.63.05a5.4,5.4,0,0,0-.29-.61A8.92,8.92,0,0,0,95,66.75a6.54,6.54,0,0,0-4.65-1.31c-.55,0-2,.44-2-.08s1-1.15,1.59-1.34a8.85,8.85,0,0,1,2.24-.14c.6,0,1.83-.14,1.83-.36s-.93-.33-1.59-.36-2.24,0-2.33-.22.11-.41.68-.68a22.45,22.45,0,0,1,3.56-.71c1.15-.19.44-.27.44-.27a14.48,14.48,0,0,0-4.6.47c-1.61.36-1.56,1.23-2.33,1.45s-1.18-.79-1.18-.79-2.35-4.32-3-5.56a3.94,3.94,0,0,1-.3-2.52s-.38.55-.85.44-.68-1-.68-1a9.42,9.42,0,0,0,.66,2.3,35.62,35.62,0,0,1,1.83,3.37c.16.74-.41.74-.41.74L73.4,61.39s-3.06.3-3.63.37a2.06,2.06,0,0,0-1.22,1.86c.07.48,1.34,8.21,2,12.28a20.57,20.57,0,0,1-2.44.12s-7.33-.26-8.23-.33-3.47,0-4-1.06-.29-5.95-.29-5.95.19-2.52.29-3.39a22.6,22.6,0,0,0,0-3.63c-.1-.67-.05-3-.05-3.93A25.82,25.82,0,0,1,56.32,54c.11-.44.11-3.76.11-4.06s-.1-.16-.1-.16a8.74,8.74,0,0,0-.47,2.5c.07.9-.14,2-.57,1.89S54.72,53,54.72,53a4.92,4.92,0,0,0-.21,1.41,6.44,6.44,0,0,0,.38,2.34,34.66,34.66,0,0,1,.38,5.31A18.46,18.46,0,0,1,55,65.74c-.05.1-.53,1.51-3.87,1.44s-4.61-1.49-4.61-1.49,0-.21.59-.74.94-2.5,1.19-3.89a23.13,23.13,0,0,0-.19-5.43c-.18-1.29-.34-1.41-.08-1.49s.52.34.52.34l1.19,2.8a5.36,5.36,0,0,1,.55,2.46c.33-.51.42-.78.22-1.87a12.8,12.8,0,0,0-1.23-2.78c-.08-.25-.33-.94,0-1.12a.57.57,0,0,1,.62.08h0a12.81,12.81,0,0,1,1.35,1.83,15.63,15.63,0,0,1,1.26,3,9,9,0,0,0-.6-3.25,8.72,8.72,0,0,0-1.09-1.61,1.8,1.8,0,0,1-.08-1.73,7.6,7.6,0,0,1,2.55-2.22A6.5,6.5,0,0,0,55,48.28c.22-.25,1.63-2.34,2.65-3.83S61.37,42,61.37,42a15.58,15.58,0,0,1,4-.44,54.77,54.77,0,0,0-2.27,6.82,28.4,28.4,0,0,0-.55,4.84s.11,1,2.05,1.56a11,11,0,0,0,4.3.16s.47-.05.52-1.12.88-7.17,1.72-8.7a5.92,5.92,0,0,1,3.29-2.84l.2-.05c.64-.22,2.12-.6,2.68-.86s.6-.73,1.37-.33a1.48,1.48,0,0,1,.18.21l3.48,2.32h0a7,7,0,0,0-2.31.93,10.47,10.47,0,0,1,3-.37,11.38,11.38,0,0,1,2.22.49c1.94.91,2.48,1,4,2.75a22.83,22.83,0,0,1,2.76,4.05c.38.63,3.28,4.32,3.94,5.31a12.26,12.26,0,0,1,2.49,4.16A14.46,14.46,0,0,1,99.26,67Z" fill="#5d3328"/><path d="M55,106.08h0Z" fill="#5d3328"/><path d="M78.09,90.26s2.17-.24,2.7-.31a12.2,12.2,0,0,0,1.42-.35,5.35,5.35,0,0,1-2.12,1.06C79,90.88,77.78,90.46,78.09,90.26Z" fill="#5d3328"/><path d="M67.76,20.65c0,.16,0,.46,1.05.54a12.66,12.66,0,0,1,2.07.16,6.31,6.31,0,0,1,1.74,1c.4.36.33.12.33.12a4.2,4.2,0,0,0-1.12-1.16,6.41,6.41,0,0,0-3.37-1S67.83,20.25,67.76,20.65Z" fill="#5d3328"/><path d="M56.45,21.74s1.25-.46,1.61-.53a4.33,4.33,0,0,1,1.22-.06c.34,0,.57-.05.57-.26a.53.53,0,0,0-.52-.48,8.22,8.22,0,0,0-1.27.25,5.39,5.39,0,0,0-1.25.49,1.45,1.45,0,0,0-.47.47A.12.12,0,0,0,56.45,21.74Z" fill="#5d3328"/><path d="M72.1,24A6.31,6.31,0,0,0,69,22.92c-1.77-.16-2.18.68-2.29,1.16a6.25,6.25,0,0,0,0,.63,3.06,3.06,0,0,0,0,.72c.06.1.31,0,.47.06s1.39.38,1.77.44H69a6.09,6.09,0,0,0,2.43-.11,2.9,2.9,0,0,0,1.39-.73c.25-.24.22-.39.22-.39S73.19,24.5,72.1,24Zm-2.95,1.46a1.26,1.26,0,0,1-1.08-.34,1.12,1.12,0,0,1-.27-.76c0-.19.08-.56.34-.6a1,1,0,0,1,.39.13.51.51,0,0,0-.21.46.6.6,0,0,0,.65.53c.36,0,.63-.19.64-.51s0-.32,0-.32,0-.14.13-.18a.35.35,0,0,1,.39.18,1,1,0,0,1-.06.79A1,1,0,0,1,69.16,25.43Zm-2-.48a1.5,1.5,0,0,1,.44-1,1.33,1.33,0,0,0-.08.49,1.3,1.3,0,0,0,.63,1.07L68,25.45C67.71,25.34,67.28,25.24,67.14,25Zm5.21-.08a.55.55,0,0,1-.18.15,4.15,4.15,0,0,1-1.56.62,8.8,8.8,0,0,1-1,.11,1.5,1.5,0,0,0,.86-.58,1.35,1.35,0,0,0,.17-1.07,1.4,1.4,0,0,0-.22-.48h0a8.68,8.68,0,0,1,1.87.88.53.53,0,0,1,.1.12A.2.2,0,0,1,72.35,24.87Z" fill="#5d3328"/><path d="M62.18,29a1.81,1.81,0,0,0,1.2.4,3.12,3.12,0,0,0,1.2-.16s.28-.17.46-.05.07.34-.19.52a2,2,0,0,1-1.55.28,1.55,1.55,0,0,1-1.18-.7C61.91,29,62,28.85,62.18,29Z" fill="#5d3328"/><path d="M60.82,24.78c-.12-.18-.31-.55-.49-.8a3.91,3.91,0,0,0-.78-.64l-.33-.19a3.66,3.66,0,0,0-1.35-.34,2.19,2.19,0,0,0-1.38.36,2.14,2.14,0,0,0-.6.86,1.32,1.32,0,0,0-.14.7c0,.16.27.29.27.29h0a5.15,5.15,0,0,0,1.36.66,4.8,4.8,0,0,0,1.61.1,3.51,3.51,0,0,0,1.12-.34,2.1,2.1,0,0,1,.64-.06c.16,0,.28-.11.28-.2S60.93,25,60.82,24.78Zm-3.74.46c-.18-.08-.64-.36-.64-.36a.54.54,0,0,1-.19-.62.22.22,0,0,1,0-.08.29.29,0,0,1,.25-.05c.12,0,0,.08.12.34a1.72,1.72,0,0,0,.5.78ZM58.53,25a1.07,1.07,0,0,1-1.2-.17c-.3-.31-.32-.43-.33-.66s.12-.45.12-.45,0-.07.07-.08a.21.21,0,0,1,.12,0c.09,0,.08.63.08.63a.57.57,0,0,0,.53.39.67.67,0,0,0,.7-.55.68.68,0,0,0-.2-.51l.11,0,.28,0a.57.57,0,0,1,.21.34A1,1,0,0,1,58.53,25Zm1.79,0c-.18.16-.42.11-.6.11s-.83.09-.83.09l-.06,0,.06,0a1.1,1.1,0,0,0,.58-.78,1.32,1.32,0,0,0-.13-.81h0l.06.05a5.16,5.16,0,0,1,.85.82C60.41,24.67,60.5,24.86,60.32,25Z" fill="#5d3328"/><circle cx="68.3" cy="24.03" r="0.31" fill="#fff"/><circle cx="57.44" cy="23.93" r="0.34" fill="#fff"/><path d="M59.09,32.24a.62.62,0,0,1,.51-.29,4.88,4.88,0,0,1,1.33.53,16.2,16.2,0,0,0,4.09.86,12.85,12.85,0,0,0,4.5-.74,6.53,6.53,0,0,1,2.16-.74,1.83,1.83,0,0,1,1,.4.34.34,0,0,1,.05.4.52.52,0,0,1-.52,0,2.49,2.49,0,0,0-.82-.27,4.05,4.05,0,0,0-1.53.64,10.26,10.26,0,0,1-4.35,1.07A11.79,11.79,0,0,1,61,33a3.62,3.62,0,0,0-.9-.44,3.94,3.94,0,0,0-.88.11C59.15,32.71,58.92,32.58,59.09,32.24Z" fill="#5d3328"/><path d="M63.35,34.89a4.9,4.9,0,0,0,1.85.32,8.11,8.11,0,0,0,2-.16c.16,0,.32-.11.36,0s-.32.67-1.49.78a5.13,5.13,0,0,1-2.6-.29,1.53,1.53,0,0,1-.64-.57s0-.15.16-.12A2.91,2.91,0,0,1,63.35,34.89Z" fill="#5d3328"/><ellipse cx="74.73" cy="51.86" rx="2.55" ry="2.37" transform="translate(-14.78 68.03) rotate(-45)" fill="#e18020"/><ellipse cx="64.74" cy="61.67" rx="2.55" ry="2.37" transform="matrix(0.6, -0.8, 0.8, 0.6, -23.45, 76.39)" fill="#e18020"/></svg>