<svg xmlns="http://www.w3.org/2000/svg" width="120" height="120" viewBox="0 0 120 120"><title>carees-2</title><path fill="none" d="M0 0h120v120H0z"/><path d="M57.28 20.9a13.08 13.08 0 0 0 2-1.73c.18-.34 3.66.29 4.15.26a2.34 2.34 0 0 0 1-.36s.7-4.21 2.36-5.46a3.59 3.59 0 0 1 1 2.09 24.32 24.32 0 0 1 0 3.76 74.87 74.87 0 0 0 8.47 1c3.29.08 3.12-.11 3.29.08s2.27 2.45 8 3.12l1.86.26a38.43 38.43 0 0 0 .52 3.86c.16.23 1 3 1 3l.78.75a2.23 2.23 0 0 1 2.32-1.14c1.47.38 2.14.75 1.83 2.33a4.63 4.63 0 0 1-1.7 2.67c-.18.11-5.62 6.13-6.6 6.9s-1.83 1.1-1.93 1.34-.64 1.6-.07 1.73 4.48 0 4.48 0 2.29.12 2.45.06 4.18-2 5.16-2.71 2.56-.91 3.45-2.53 3.36-6.52 3.57-7.89.95-4.9.46-7.16a45.05 45.05 0 0 0-3.2-8.86 39.86 39.86 0 0 0-3.63-3.86c-.08-.07-1.24-.59-1.24-.59s-4.82-3.67-5.56-4.2a19.15 19.15 0 0 0-3.73-1.24c-.1 0-3.45-2.5-4.09-2.42s-4.73-1-6-.75-5.41.52-5.56.59-1.16.9-1.37.88-1.31-.87-4.45.07-5.8 2.47-7.06 4.45a25.77 25.77 0 0 1-4.38 4.64A13.43 13.43 0 0 0 52 19.91c-.16 1.6 0 4.54 0 6.31s.23 5.08.23 5.08c.83 1.95 2 5 2.88 5.87a12 12 0 0 1 2 3.07c.29.6 1.88 3.15 3.46 4a51 51 0 0 0 4.85 2 4.36 4.36 0 0 0 2.42-.52 3.06 3.06 0 0 0 .54-1.18c0-.25-6.42-2.34-9.64-7.81s-2.81-7.06-2.81-7.06a4.86 4.86 0 0 1-1.31-2.87 1.65 1.65 0 0 1 1.08-1.64c.09-.08 1.58-4.26 1.58-4.26z" fill="#c77a41"/><path d="M67 5.53s-4.56 3.32-5.75 7.81-1 5.74-1 5.74-1.44-.88-2-1.16a1.94 1.94 0 0 0-1.7-.29 8.39 8.39 0 0 1 0-3.17c.33-1.85 2.35-4.41 3.07-5.33a8.51 8.51 0 0 1 4.87-3.76c3.12-.94 3.7-1.05 5-1A9.17 9.17 0 0 0 67 5.53zM56.24 12.54a13.17 13.17 0 0 0-2.82 3.55 12.6 12.6 0 0 0-1.67 5.07 24.09 24.09 0 0 0 0 3.82l.82.13 1.08-1.44s0-6.93 2.91-10.56c.03.01.84-1.02-.32-.57zM74 3.37a10.07 10.07 0 0 0-1.9 2.48c-.46 1.1-1.21 6.29-1.93 8.63a47.07 47.07 0 0 1-1.9 4.9s-.16-.82-.33-2.26-.56-4.84-.56-4.84a9.15 9.15 0 0 1 .95-4.71 10.47 10.47 0 0 1 2.12-2.48A13.77 13.77 0 0 1 74 3.37zM76.14 3.34c-.58.17-2.17 2.14-2.78 3.6a26.39 26.39 0 0 0-1.08 4.35 9.05 9.05 0 0 1 6-4.94c4.36-1 7.71 2.29 9.32 4a19.74 19.74 0 0 1 3.63 7.78A2.39 2.39 0 0 0 91.5 16c-.38-1.44-1.19-5-1.27-5.13s-.69-1.5-.69-1.5a10.89 10.89 0 0 1 7 3.27l-.59-1.67c-.64-1-3.94-3.22-4.77-3.6a17 17 0 0 0-3.2-.65l-3.5-2.63c-1.23-.18-3.38-.52-4.35-.72a10.54 10.54 0 0 0-3.99-.03z" fill="#d49d6b"/><path d="M56.36 24.31a8.23 8.23 0 0 1 .64-2.62 20.73 20.73 0 0 1 1.7-1.93c.2-.1 1.42-.62 1.75-.47a25.54 25.54 0 0 0 3.38.31 3.34 3.34 0 0 0 1.24-1.8 7.3 7.3 0 0 1 .95-2.75c.47-.51.59-1.18.92-1.24s.6 1.45.65 2.12.6 3.15.62 3.37a2.2 2.2 0 0 0 1.63.88c.75 0 8 .72 8.86.69a2.29 2.29 0 0 1 1.7.78 12.42 12.42 0 0 0 5.49 2.06c2.91.36 3.69.39 3.69.39a26.34 26.34 0 0 0 1 5.16 8.73 8.73 0 0 0 1.11 2.26c.23.23 1.21-1 2.26-1s2.47.57 2.22 1.77a8.78 8.78 0 0 1-1.8 3.3c-.7.9-3 5-5.75 6.64s-6.6 3.33-9.58 3.63-10.86-1.56-12.38-2.14a19.21 19.21 0 0 1-5-3.46A38.63 38.63 0 0 1 58 35.58c-.54-1.13-1.83-5.72-1.83-5.72a5.68 5.68 0 0 1-.92-1.31c-.29-.65-.82-1.7-.49-2.22s1.6-2.02 1.6-2.02z" fill="#eddac1"/><path d="M61.1 25.41a3.74 3.74 0 0 0-1 1.41.94.94 0 0 0 .26.85 22.23 22.23 0 0 0 2.26.78 7.53 7.53 0 0 0 2.12-.16c.38-.15.69.16.62-.36s0-.62-.16-1a3.44 3.44 0 0 0-1.54-1.21 11.26 11.26 0 0 0-2.56-.31zM74.35 26.68a3.79 3.79 0 0 0-1.12 1.41c-.17.44.3.85.3.85.28.07 2 .74 2.57.78a9.76 9.76 0 0 0 2.42-.16c.43-.15.78.16.71-.36s.06-.62-.19-1A3.88 3.88 0 0 0 77.3 27a14.55 14.55 0 0 0-2.95-.32z" fill="#fcfbfa"/><path d="M63.92 26.45c0 .18 0 1.24-.75 1.54a1.83 1.83 0 0 1-1.8-.49c-.13-.21-.51-1.21-.26-1.57a1 1 0 0 1 1.21-.52c.68.18 1.43-.15 1.6 1.04zM77.35 28c0 .2 0 1.37-.83 1.69a2 2 0 0 1-2-.54c-.14-.23-.56-1.33-.29-1.73a1.1 1.1 0 0 1 1.33-.58c.75.22 1.61-.14 1.79 1.16z" fill="#a1cbea"/><path d="M65.39 37.66c.1 0 1.83.26 2.42.29s6.15.8 7.09.62a6.83 6.83 0 0 1 1.34-.16 2.32 2.32 0 0 1-.75 1c-.46.26-3.5 1.67-3.5 1.67a14.6 14.6 0 0 1-4.25-.62 14.16 14.16 0 0 1-1.86-1.86c-.1-.22-.49-.94-.49-.94z" fill="#fcfbfa"/><path d="M40.8 79.93a49.9 49.9 0 0 0-4.18 2.94 28.75 28.75 0 0 0-2.35 3.69c-.2.34-1.83 2.39-1.27 2.91a1.48 1.48 0 0 0 1.77.29c.54-.29.92.31 1.6.1s1.24-.54 1.54-.46a1.33 1.33 0 0 0 .75 0 .47.47 0 0 1 .59.23c.11.25 0 1.24.65.88s1 .39 1.14-.72.57-3.42 1.24-4.18 2.14-1.72 2.32-2.06a1.72 1.72 0 0 0 .23-.78c0-.18-2.34-1.47-2.84-2.29s-.3-.65-1.19-.55zM84.08 83a38.39 38.39 0 0 0-2.55 3.86 2.93 2.93 0 0 0 2.32.56c.72-.36 1.6-.74 1.6-1.83s0-1.45-.52-1.9a7 7 0 0 0-.85-.69zM102.52 67.54c-.17.12 0 .95.52 1.34s1.16 1.1 1.21 1.54a5.38 5.38 0 0 1-.88 3.17c-.85 1.24-2 2-2.19 2.45s-.59 1 .07 1.14a9.39 9.39 0 0 0 2.26 0s2.17-2 2.32-2a4 4 0 0 1 .42 1.9c-.15.13-2.06.08-2.19.16s-1.73.47-1.08 1.11 2.94 1.44 3.6 1.14 1.65-.83 2-.72a2.32 2.32 0 0 0 2-.85c.31-.65 1.08-1 1.27-1.14a4.8 4.8 0 0 0 1.08-2c.26-1 .59-2.39.59-2.39-.16-1.1-.16-1.86-1.24-2.48a19.35 19.35 0 0 1-3.82-3.69c-.02-.33-3.36-.56-5.94 1.32z" fill="#eddac1"/><path d="M68.3 45.12a5.7 5.7 0 0 1-.36 2.26c-.44 1.08-1.47 3.63-1.34 4.94s.57 3.14 1.86 3.43a13.75 13.75 0 0 0 5.72-.13c1.21-.51 3.92-3.3 5.1-4.15s4.18-3.62 4.72-4.07 1.49-1.23 1.54-2.29-1.11-1-1.11-1a15 15 0 0 1-7.91 1.73 37.12 37.12 0 0 1-7.91-1s-.14-.54-.31.28zM60.61 50.9c0 .1-.62 5.3-1.14 6A9.1 9.1 0 0 0 58 59.37a13 13 0 0 1-.75 2.39 2.88 2.88 0 0 1-1.6.42c-.52-.07-4-.85-4.15-.82s4.58-6.86 4.9-7.26 3.6-3.16 3.6-3.16.56-1.49.61-.04zM95.59 48.19c-.29-.08-2-1.54-2.58-1.7a4.69 4.69 0 0 0-2.68.88c-.34.36-3.56 5.12-5.13 7.68s-2.7 5.87-2.45 7.68.44 4.15 2.81 4.28 4.45-2.75 4.61-2.75a3.42 3.42 0 0 0 2 1.21 22.4 22.4 0 0 1 3.79 1.11 1.78 1.78 0 0 1 1.18 1.63c0 .75.93 3.66 1.86 4.54a3.27 3.27 0 0 0 2.52 1.11c.92 0 1.37.23 1.63 0a3.47 3.47 0 0 0 .78-2.06c0-.88.42-2.09-.46-2.62s-1.67-.62-1.21-1a6.84 6.84 0 0 1 5.36-2.29l1.27 1.37a16.76 16.76 0 0 0 2.48 1.67c.7 0 1.37 0 1.31-.69s-.36-2.48-1.18-3a53.9 53.9 0 0 1-4.45-4.9c-.25-.33-1.36-1.94-2.32-3.27s-8.34-6.77-8.76-7.39a2.42 2.42 0 0 1-.38-1.49zM42 77.74c.11-.07 2.79 2.48 3.73 3.07s1.37 1.41.23 1.7-4.07-1.34-4.28-2.42a4.76 4.76 0 0 1 .32-2.35z" fill="#fff"/><ellipse cx="23.14" cy="26.7" rx="16.62" ry="16.75" fill="#fff"/><path d="M32.08 42.78a11.48 11.48 0 0 0-1.86 4.51c-.32 2.33.32 10.84.39 11s.37 4.93 1.81 5.93 3.9 1.84 4.76 1.23 2.21-1.15 2.45-1.81a35.89 35.89 0 0 0 1.23-4.36c.17-1.1 1.4-6.25 1.52-6.91a20.25 20.25 0 0 0 .15-4.46c-.1-2.75-.17-5-2.4-6.28s-6.31-1.42-8.05 1.15z" fill="#b6b2a3"/><path d="M42.57 42.44a7 7 0 0 1 2 4.66c.15 2.89-.91 7.94-.88 8.24a51.14 51.14 0 0 1-.49 6.13 3.15 3.15 0 0 1-1.69 2.43c-1.81 1-2.06.78-2.4.78s1.4-1.54 1.59-3.46.66-4.54.88-5.79 1.27-2.92 1.13-4.71.54-3.11-.54-6.15-1.27-3.57.4-2.13z" fill="#d7d4cb"/><path d="M37.18 65.48a14.13 14.13 0 0 0 .69 3c.37.61 1.84 2.72 2.06 2.94s1.79 2 2.26 2.35a5.69 5.69 0 0 0 4.66-.25A7.88 7.88 0 0 0 50.17 69a8.64 8.64 0 0 0-.15-5.2 16.2 16.2 0 0 0-1.77-3c-.15-.27-3.78-3.21-4.46-3.14s-.12 1.2-.39 2.21-.2 2.87-1.57 3.87-4.02 2.01-4.65 1.74zM75.47 91.42S75.08 96 74 97.25s-4.85 3.24-4.85 3.24a3.41 3.41 0 0 0 1.62 1.27 13.11 13.11 0 0 0 6.18-.29c1.47-.66 2.6-.91 2.84-2.65s.91-1.35.25-3-.84-2.1-1.78-2.82-2.2-1.95-2.79-1.58z" fill="#b98661"/><path d="M72.38 103.68l.69-1.47s2-.39 2.79-.49 2.84-.93 3.38-1.91 1-.93.93-2.21a30.2 30.2 0 0 0-.68-3.6c-.2-.27 1.42-.34 1.42-.34 1.59.71 3.58 1.79 4.36 3.92S85 104.83 85 105s-2.16 8.19-2.16 8.19c-.83 1.37-3.78 3-3.78 3a16 16 0 0 1-7.35 0c-1.52-.32-3.7-1.1-3.78-3s.2-4.07 1.18-4.9a26.73 26.73 0 0 1 3-2s1.84-.34 2-.34a40.28 40.28 0 0 1 4.07.34c.83.2 1.79 0 1.91-.34a.76.76 0 0 0-.83-.88c-.61 0-4.19-.37-5.64 0s-1.57.78-1.57.78l.54-1.52a5.23 5.23 0 0 1 1.52-.44 19.19 19.19 0 0 1 3.43 0c1.64.15 2-.12 2.11-.39s-.15-.81-1.13-.88a11.76 11.76 0 0 0-3.87 0c-1.48.32-1.93.54-2.27 1.06z" fill="#d7d4cb"/><path d="M61.35 50s-1.72 6.13-2.21 7.26-2.42 4.74-2.5 4.84 0 .2 1.42.93S65 67 65 67s3.48.54 5.2 2.11 4.83 4.17 5 4.17a16.19 16.19 0 0 1 3.8 2.55c1.23 1.25 5.47 5.41 6 7.83s1.13 2.25 1.32 2.08a3 3 0 0 0 1.23-2.26c.22-1.62 2-10.2 2-10.2s1.84-7.38 1.86-7.6-1.08-1-1.08-1L86.75 67c-1.19.07-3.65 0-3.92-3.19s1.26-6.64 2.37-8.71l1.11-2.1A29.76 29.76 0 0 1 89 49.1c.91-.91 2.28-2.23 2.45-2.5s.44-1.08-.2-1.08h-5.3s-3.95 4.07-5 5-5.49 6-10.44 5.49-4.36-3.36-4.12-4.17 2.08-4.61 2.16-4.85a4.55 4.55 0 0 0-.2-1.23s-2.43 1-3.73 1.47S62 48 61.35 50z" fill="#d78424"/><path d="M77.19 74.25c-.28-.2-5.79-4.56-7-5.19s-6.57-2.59-6.57-2.59-4.48-3.83-9.38-4.47c0 0-3.53-.65-4.18.13s.26 1.86.39 3 .26 4.18-1.37 6.34-5 2.94-5 2.94c-.69 0-2.26-.2-2.29 0a4.78 4.78 0 0 0 .39 2.22 7.27 7.27 0 0 0 3 4.05 16.88 16.88 0 0 0 6.15 2.62c1.57.2 1 1.37 1 1.37s-1.57 4.64-.72 7.19 1 3.4 2.22 4.25 5.56 3.33 8.56 3.73 5.92.92 8.24 0a7.55 7.55 0 0 0 3.79-4.05 15.57 15.57 0 0 0 .58-3.3c0-.75.26-2.39.26-2.68s.59-.16 2.42-1 4.71-2.32 5.3-3.4a10.08 10.08 0 0 0 1.1-2.41c.13-.65-4.8-7.28-6.89-8.75z" fill="#cd5c22"/><path d="M50.32 70.65A16.41 16.41 0 0 0 56 73.79c3.3 1 9.19 2.29 11 3.14s8.56 2.65 10.26 3.6a11.55 11.55 0 0 0 6.4 1.47s.82.35.42.94a1.91 1.91 0 0 1-.88.76 52.22 52.22 0 0 1-7.58-.59c-2.19-.52-5-1.83-7.78-2.62s-13.08-2.45-14.71-3.2-4.74-2.88-5.3-4.25 2.49-2.39 2.49-2.39zM50.58 68.43s5.16.07 8.11 1.44 6 3.11 7.45 3.79 6.64 2.29 8.11 3.07 3.69 2.52 7.26 2.88l-.78-1.7S80 78.33 77 76.6s-4.42-4.28-8-5.6-3.11-.39-4.25-.72-2.58-2.06-5.16-2.81-7.06-2.12-9.09-1.5zM50 64.25a18.63 18.63 0 0 1 8.69-.46A5.86 5.86 0 0 0 54.83 62c-2.78-.36-4.09-.72-4.77.07S50 64.25 50 64.25z" fill="#c4441d"/><path d="M45.94 73.86a3.68 3.68 0 0 0 1.9 3.92c2.42 1.6 7.94 1.24 15 3.92s10.66 3.66 13.47 4.12a17 17 0 0 0 5.69-.2 12.7 12.7 0 0 1-2.81 2.55c-1.08.49-4.9 0-7.52-.65s-5.07-2.16-7-2.55-7.13-2.22-11.31-2.75a14 14 0 0 1-8.69-4.38c-1.63-1.8-1.27-3.63-1.11-3.6s2.38-.38 2.38-.38zM54.7 84.12s-2.12 3.56-1.5 6.67a21.07 21.07 0 0 0 2.35 5.95l4.45 2s-2-1-3.86-4.9S57.57 85 57.57 85z" fill="#c4441d"/><path d="M59.73 85.88a5.24 5.24 0 0 0-1.24 5.56 10.7 10.7 0 0 0 4.45 5.69c4.12 1.47 6.37 2.29 8.56 2s2.94-3.33 2.94-3.33-1.67 1.37-7 .52-6-4.35-6.21-5.43 2.41-3.57 1-3.73a26.83 26.83 0 0 1-2.5-1.28z" fill="#c4441d"/><path d="M64.76 88a5.9 5.9 0 0 0 .39 4.38c1.18 2 2.55 1 3.6 1s6.37.36 6.41.2.31-2.18.31-2.18-1.81-.21-3.51-.3-3.63.78-4.31.07S68 89 68 89z" fill="none" stroke="#cd5c22" stroke-miterlimit="10" stroke-width=".1"/><ellipse cx="55.3" cy="58.07" rx="1.75" ry="2.39" fill="#cd5c22"/><ellipse cx="93.61" cy="62.99" rx="2.76" ry="2" transform="rotate(-53.26 93.616 62.989)" fill="#cd5c22"/><path d="M100.33 69.83c.51 1.44.09 2.9-1 3.28s-2.9-4.83-1.86-5.21 2.35.5 2.86 1.93zM100.51 53.34c-.91 1.22-2.37 1.68-3.26 1s-.86-2.19 0-3.41c1.48.31 1.67.7 3.26 2.41zM101.92 62.14c-.56-1.74-.15-3.43.9-3.76s2.36.8 2.91 2.54c-1.03 1.08-1.47 1-3.81 1.22zM87.92 52.71c.76 1.08.73 2.4-.06 3s-2 .13-2.8-.94c.92-2.25 1.41-2.09 1.47-3.1a2.87 2.87 0 0 1 1.39 1.04z" fill="#cd5c22"/><path d="M60.44 23.34a6.27 6.27 0 0 1 2.6-.66c1.7-.12 2.21-.09 2.3-.22s.34-.75-.86-.66a7 7 0 0 0-3.75 1c-1.04.78-.29.54-.29.54zM76.63 23.16A2.48 2.48 0 0 0 75.1 23c-.5.23-.34.67.34.81a15.82 15.82 0 0 1 3.43.93 17.07 17.07 0 0 1 1.47 1c.17.07.22 0-.07-.34a8.45 8.45 0 0 0-3.64-2.24zM67.11 32.91a4.17 4.17 0 0 0 2.06.61c1.16 0 1.09-.28 1.32-.22s.36.49-.54.78a3.13 3.13 0 0 1-2 0 2.26 2.26 0 0 1-1.08-.86c-.19-.3-.24-.71.24-.31zM78.8 37.49a2.87 2.87 0 0 0-2 .07 21.59 21.59 0 0 1-6.57.51 16.75 16.75 0 0 1-5-1.13c-.45-.25-1-.77-1.57-.74s-.83.36-.71.59.69.22 1.05.32a12 12 0 0 1 1.86 1.74l.15.17.15.17A5.41 5.41 0 0 0 68 40.78a7.69 7.69 0 0 0 3.75.39 11.23 11.23 0 0 0 3.6-1.35c1.1-.7 2.32-1.85 2.94-1.77s.82.28 1.08.12-.1-.54-.57-.68zm-5 2.5a9.45 9.45 0 0 1-5.12.34 3.81 3.81 0 0 1-2.1-1.17 3.71 3.71 0 0 1-.36-.47s-.51-.63-.29-.78.34.38 4.56.76a24.2 24.2 0 0 0 5.25 0c.12.12-.88.88-1.96 1.33zM80 29.33a5.64 5.64 0 0 0-2.62-2.79 3.22 3.22 0 0 0-3.24-.29c-1.39.55-1.27 2.7-1.27 2.7h.25a3.47 3.47 0 0 1 .65.39 5.76 5.76 0 0 0 1.48.74 8.67 8.67 0 0 0 1.42.17h.12a15.32 15.32 0 0 0 3-.61c.3-.19.21-.31.21-.31zm-6.17-1.88c.25-.44.35-.39.42-.37s.12.1 0 .23A1.17 1.17 0 0 0 74 28a2.08 2.08 0 0 0 .16 1l.05.08-.38-.21c-.07-.07-.34-.26-.36-.39a2.36 2.36 0 0 1 .32-1.03zm1 1.68a1.23 1.23 0 0 1-.5-1.13.68.68 0 0 1 .47-.66c.17 0 .28.13.18.33a1 1 0 0 0 0 .71c.07.34.44.49.93.49s.63-.28.77-.66.08-.79.28-.75.52.55.12 1.34a1.29 1.29 0 0 1-1 .73h-.38a1.86 1.86 0 0 1-.93-.4zm4.17-.07a2.75 2.75 0 0 1-1.62.66s-.24 0-.28-.1 0-.18.12-.31a1.56 1.56 0 0 0 .22-.33 2 2 0 0 0 .17-1.21c-.1-.51.36-.09.47 0 1.07.53.92 1.29.92 1.29zM65.71 27.65a4.56 4.56 0 0 0-1.21-1.86 3 3 0 0 0-2.4-.89 2.2 2.2 0 0 0-1.52.56 2.52 2.52 0 0 0-.76 1.54c0 .43 0 .53.15.65a4.21 4.21 0 0 0 .72.28l.29.15a4.79 4.79 0 0 0 1.45.53 4.05 4.05 0 0 0 1.89-.1l.78-.12c.14.06.38.15.51.08s.26-.39.1-.82zm-4.58.1s-.06 0-.37-.11a1.08 1.08 0 0 1-.36-.23c-.09-.1-.08-.39.07-.86s.33-.41.38-.34-.06.31 0 .65a1.2 1.2 0 0 0 .24.64c.22.31.04.25.04.25zm1.4.13h-.25a1.68 1.68 0 0 1-.32-.16c-.42-.2-.51-.42-.63-.92s.18-.86.43-.85.23.21.1.53a.49.49 0 0 0 .2.64A.83.83 0 0 0 63 27c.37-.3.23-1 .53-.92s.37.78.06 1.3a1.14 1.14 0 0 1-1.06.5zm2.7 0c-.1.18-1 .25-1 .25a2.24 2.24 0 0 0-.4.06c-.17 0-.25-.08-.26-.2s.3-.1.61-.59a1.37 1.37 0 0 0 0-1.16s.36.34.69.69.46.72.35.9zM93.37 32.66c.11.34.34.87.07 1.18 0 0 .44-.07.51-.76a.87.87 0 0 0-.42-.91 1.51 1.51 0 0 1 1-.54c.58 0 .13-.34-.27-.32a1.62 1.62 0 0 0-1.4 1s.4.01.51.35z" fill="#5d3328"/><path d="M113.32 70.49l-1.22-1.15a1.27 1.27 0 0 0 .88-1.1A4.45 4.45 0 0 0 112 65a20.68 20.68 0 0 0-1.84-2c-.32-.33-.51-1-1-1.3a4.24 4.24 0 0 1-1.35-1.23 70.63 70.63 0 0 0-5.25-6 51.69 51.69 0 0 0-5.22-4.27s-.8-.58-.86-.86a6 6 0 0 0-.76-3.43c-.34-.42-1-.69-.93-.91s2.76-1.54 3.87-2.28a20 20 0 0 0 5.22-6.72 21.34 21.34 0 0 0 2-9.46c-.13-2.48-1.94-7.44-3.06-9.54a16.37 16.37 0 0 0-4.22-4.63c-1.05-.83-1.88-1.24-1.8-1.09-.42-.52-2.84-3.24-4.12-3.79s-3.33-1.18-3.33-1.18-.72.16-1 0a20.82 20.82 0 0 0-3-2.21 5.87 5.87 0 0 0-2.55-.56 2.41 2.41 0 0 0-.34.22s-.21-.53-1.3-.71a27.16 27.16 0 0 0-6.72 0 11.76 11.76 0 0 0-3.36 1 7.33 7.33 0 0 0-2.52-.29A13.27 13.27 0 0 0 62 6.09a18.93 18.93 0 0 0-4.25 4.54 11.79 11.79 0 0 0-2.22 1.86 13.11 13.11 0 0 0-2.68 4.05 19.82 19.82 0 0 0-1.47 4.33 20.5 20.5 0 0 0-.11 3.73c.11.73.15 1.37.15 1.37s.08.69.13 1.32a14 14 0 0 0 .1 2c.13.44.41 1.86.52 2.55a12.51 12.51 0 0 0 1.73 4.54A28.74 28.74 0 0 0 56.17 39c.05 0 .08 0 .09-.12a4.11 4.11 0 0 0 .36 1.06 11.87 11.87 0 0 0 3.87 4.54 23.52 23.52 0 0 0 4.66 1.89 12.31 12.31 0 0 0-1.69.76 5.77 5.77 0 0 0-2.38 2.7 6 6 0 0 0-2.79 2.33s-1.36.33-3.16 2.62a52.56 52.56 0 0 0-4 6.45 2.66 2.66 0 0 0-1.49.49 36.36 36.36 0 0 0-3.38-3.09 18.36 18.36 0 0 0-2-1.35 2.2 2.2 0 0 1-.54-.22 8.64 8.64 0 0 1 .34-2.18 19.66 19.66 0 0 0 .76-3.26A17.88 17.88 0 0 0 45 46a6.85 6.85 0 0 0-3.82-5.07l-.18-.06a5.39 5.39 0 0 0-.83-.27 8.68 8.68 0 0 0-3.68-.32 6.75 6.75 0 0 0-4.15 2 12 12 0 0 0-2.48 4.31 15.92 15.92 0 0 0-.33 5.41c.21 1.32.42 3 .62 5.43a26.2 26.2 0 0 0 .85 5.34 3.88 3.88 0 0 0 2.09 2.78 10.14 10.14 0 0 0 3.19.65s.44.11.76 1a12.76 12.76 0 0 0 1.2 2.67c.47.63 1.59 2.3 1.89 2.65s.88.63 1 1.2a3.6 3.6 0 0 1 .17 1.54 4.75 4.75 0 0 0 .37 2.26c-.69.61-.6 1.69-.69 1.94s-.46.29-.92.62-3.22 1.8-3.27 1.9a4 4 0 0 0-1.14 1.5 41.13 41.13 0 0 0-2.71 5.1c-.23 1-.31 1.37.23 1.7A1.8 1.8 0 0 0 35 90a1.06 1.06 0 0 0 .69 0 5.58 5.58 0 0 0 2-.49s.34.33 1.07.06a4.4 4.4 0 0 0 .27.72c.34.69.74.49 1.27.39a1.59 1.59 0 0 0 1.31-1.7 4.58 4.58 0 0 1 .88-2.32 8.52 8.52 0 0 1 1.8-2.35 3.85 3.85 0 0 0 1-1.44c1-.2 1.31-.64 1.4-.85a18.25 18.25 0 0 0 5.69 1.7 23.51 23.51 0 0 0-1.21 4.41 8.14 8.14 0 0 0 .52 4.54c.78 2.32 1.26 3.14 2.22 3.76a33.74 33.74 0 0 0 7.71 3.5c3 .83 5.19 1.29 6.67 1.13a5.7 5.7 0 0 1 1.79.34 3.53 3.53 0 0 0 1.64.39c.47 0 .93.11 1 .34a2.85 2.85 0 0 1-.29 1.18l-.61 2.11a14 14 0 0 0-2.94 2.6c-1 1.31-1.72 2.91-1.42 4.19s.33 2.6 3.16 4 7.51.69 8.14.51a6.5 6.5 0 0 0 3.8-2.28c1.43-1.79 2.28-7.06 2.28-7.06s1.3-5.38 1.2-6.86.28-3.36-1.91-5.44-3.15-2.26-5.27-2.28a12.25 12.25 0 0 1-1.5-1.25 3.78 3.78 0 0 0-1.79-1.3v-.69a38.14 38.14 0 0 0 4-1.4 9.66 9.66 0 0 0 1.5-1c.11 0 .24.14.5.27h.07c1.39.63 3.48-.43 3.48-.43A5.76 5.76 0 0 0 87 85.27a9.64 9.64 0 0 0 1-2.67 16.59 16.59 0 0 0 .54-3c.13-1 .83-3.67 1-4.44s1.25-5.05 1.25-5.05.61-2.76.71-3.38.39-.71.39-.71c.67.56 4 1.1 4 1.1a2.66 2.66 0 0 0 .29.61c.16.21.6.16.49 1a5.73 5.73 0 0 0 .69 2.38s.87 1.5 1.18 1.86a3 3 0 0 0 1.57 1.13c.74.15 1.85.11 2 .29s0 .31-.47.54-1.1.75-1.18 1.25a1.16 1.16 0 0 0 .44 1.27 2.39 2.39 0 0 0 2.08.12s-.39.45-.29.81.51 1.5 2.5 1.69 2.23-.92 2.77-.91.88.38 1.94-.17 1-1.09 1.18-1.27a5 5 0 0 0 1.23-1c.31-.45.16-.58.39-.76a5.59 5.59 0 0 0 1.08-3c.12-1.43.16-1.91-.46-2.47zM111.68 68a.64.64 0 0 1-.44.47l.73.73c-.37-.36-.68-.66-.73-.73a22.23 22.23 0 0 1-1.79-1.64s-.12-.31.29-.22 2.26.18 1.94 1.39zM95 47s-1.5-.83-2-1.05a6.6 6.6 0 0 1 1.74.22c.45.18.26.83.26.83zm2.94-34.32c.38-.17 1.81 1.74 1.81 1.74 2.35 2.51 3.13 5.34 4.19 8s.67 4.87.71 6.77a18.28 18.28 0 0 1-2.6 8.46c-1.81 3.09-5.65 5.59-7.18 6.4a9.44 9.44 0 0 1-3.21 1.15c-.19 0-.1-.31-.06-.41l.57-.57A8.9 8.9 0 0 0 94 41.1c.21-.72.49-.88 1.27-1.67.18-.18.36-.38.55-.58a20.09 20.09 0 0 1 2-1.47 8.63 8.63 0 0 0 2.62-2.94c.88-1.47 1.29-4.22 1.54-6.06a14.84 14.84 0 0 0-.32-7A43.91 43.91 0 0 0 99 16.26l-1.28-3.05v-.12a.42.42 0 0 1 .21-.43zm-6.6 31.23a3.86 3.86 0 0 1-2.61 1.24 13.45 13.45 0 0 1-2.91-.15 2.12 2.12 0 0 1 .94-1.38l.24-.12a19 19 0 0 0 4.76-4.19c1.41-1.91 1.57-2.44 2-2.87a40.42 40.42 0 0 0-.56 4.5 9.82 9.82 0 0 1-1.86 2.97zm4.8-12.31c-.4-1.27-.61-1.69-2-1.69s-2.08 1-2.48 1-.88-.29-1.3-2.11-.31-3.38-.76-4.34a3 3 0 0 0 1-.2c.38 1 2 1.33 2.82 1.56a9.28 9.28 0 0 1 3.14 1.31c.69.62 1.26 2 1.21 4.71a9.55 9.55 0 0 1-1.63 5c-.31.54-1.26 1.94-1.54 1.86s-.26-.57-.16-1.34a12.1 12.1 0 0 1 .56-2 2.71 2.71 0 0 0 .54-.7 3.82 3.82 0 0 0 .6-3.05zM98 27c-.07-.8.44-2.4.59-3.92a36.4 36.4 0 0 0 0-5.65 17.82 17.82 0 0 0 1.43 2.59 12.79 12.79 0 0 1 1.25 6.74 21.82 21.82 0 0 1-1.77 7.28 4.55 4.55 0 0 1-1.9 2.21 12.89 12.89 0 0 0 1-5A16.2 16.2 0 0 0 98 27zM89.32 7.19a16.73 16.73 0 0 1 6.17 4.07 13.18 13.18 0 0 1 2.19 6 54 54 0 0 1-.1 7.35c-.1 2.4-.46 1.6-.46 1.6-1.13-1-2.6-1.1-4.12-1.5a3.69 3.69 0 0 1-2-1.1s.48-.36.74-1.79a20.27 20.27 0 0 0 0-7 24.52 24.52 0 0 0-2.61-6.92c-.31-.66-.42-.9.19-.71zm-15-3.41c.47.15.45.36 0 .76a7.75 7.75 0 0 0-1.89 4.17 7.76 7.76 0 0 0-.12 2.55s.54-2.51.78-3.16S75 4.35 76.3 3.81a8.34 8.34 0 0 1 5 .22 5.31 5.31 0 0 1 3.36 3.82s.15.71.27 0a5.41 5.41 0 0 0-.93-2.7c-.33-.42-.42-.83.37-.59s1.9.69 4 3.63a15.56 15.56 0 0 1 2.79 9.12 20.89 20.89 0 0 1-.51 5.37c-.16.26-.25.64-1.84.51s-5.51-.19-8.63-2.37c0 0 2.68-.21 3.7-1.64 0 0 .65-.89-.07-.37a10.82 10.82 0 0 1-5.54 1.42 54.37 54.37 0 0 1-6.5-.83c-1.34-.1-3 .16-3.48-.42a3 3 0 0 1-.1-1.4 36.16 36.16 0 0 0-.52-4.89 17.75 17.75 0 0 1 .1-2.53 1.81 1.81 0 0 1 .05-.4v-.22a3.46 3.46 0 0 1 .21-.6 9.49 9.49 0 0 1 2.3-3.58c1.47-1.08 3.5-1.73 3.96-1.58zM57 13.74a12.28 12.28 0 0 1 1.57-2.81 27.73 27.73 0 0 1 1.9-2.62 11.12 11.12 0 0 1 2.47-1.94 14.28 14.28 0 0 1 5-1.57c1.35-.13 2-.15 2.25-.15l-.75.5a27.58 27.58 0 0 0-4 3.7 10.06 10.06 0 0 0-2 3.51c-.2.85-.09 1.84 0 1.77a15.94 15.94 0 0 1 1-2.35A15.33 15.33 0 0 1 68.34 7a6.64 6.64 0 0 0-1.18 2.16A8 8 0 0 0 66.8 11l-.1 1.74a5.67 5.67 0 0 0-1.44 2.18c-.56 1.45-1.2 3.79-1.32 4s-.87.23-2 .11a15.38 15.38 0 0 1-3.79-.95c-.67-.35-.78-.41-.78-.31a2.7 2.7 0 0 0 .88 1.06c.4.23.42.51.15.75a6 6 0 0 1-1.34.67c-.14 0-.51.21-.52-.51s-.06-4.58.46-6zm-4.9 11a21.59 21.59 0 0 1-.08-2.6 17.49 17.49 0 0 1 1.42-5.23 11.75 11.75 0 0 1 2.39-3.56s.43-.42.57-.38-.12.47-.25.82a22.37 22.37 0 0 0-.47 4.94c.11 1.67.3 2 0 2.62a5 5 0 0 1-1.5 1.49.41.41 0 0 0-.18.16 20.26 20.26 0 0 0-1.92 1.74zm4.49 9.37c-.07.37-.36 2.85-.37 3.79A16.84 16.84 0 0 1 53 32.44c-1.24-3.42-.7-5.15-.39-5.82a9.77 9.77 0 0 1 1.78-2.75l.08-.07a9.54 9.54 0 0 1 1.46-1.17 11.37 11.37 0 0 1-.29 2s0-.17-.44.08a1.84 1.84 0 0 0-1 1.67 6.3 6.3 0 0 0 1 3.14 12.27 12.27 0 0 1 1.29 3.41v.09a5.08 5.08 0 0 1 .08 1.09zm-1.09-8.78v3.27s-1.3-2.25-.02-3.27zm.83 3.24a28.93 28.93 0 0 1 0-4A11.44 11.44 0 0 1 57.61 21a1.44 1.44 0 0 1 .65-.52 1.87 1.87 0 0 0 .85-.6c.25-.34.34-.47.72-.46S63.51 20 64 20a2.66 2.66 0 0 0 .65 0 16.12 16.12 0 0 1 .47-2.65 9.56 9.56 0 0 1 1.68-3.19c.07.25.54 2.17.64 2.94s.1 2.5.1 2.5-.12.28.29.44 4.63.34 5.52.56a27.71 27.71 0 0 0 5.59.37 8.23 8.23 0 0 0 1.45 1.23 16.75 16.75 0 0 0 6.33 1.91s1.67.15 2.21.12c0 0 .07.92.17 1.52s.61 2 .76 2.89a5.06 5.06 0 0 0 1.45 3A7.41 7.41 0 0 0 92 32a.47.47 0 0 1 .12-.51 2.58 2.58 0 0 1 2.28-.81c1.08.27 1.35.7 1.35 1.62A4.65 4.65 0 0 1 94 35.11a8.12 8.12 0 0 0-1.64 2.18A21.71 21.71 0 0 1 87.48 42a32.71 32.71 0 0 1-6.84 2.87 23 23 0 0 1-8.87 0 17.35 17.35 0 0 1-9.32-4.54 17.91 17.91 0 0 1-5.14-7.27 19.62 19.62 0 0 1-.99-4.49zM67.2 53.84a3.32 3.32 0 0 1-.2-1.33 15.88 15.88 0 0 1 1-4.05c.38-.87.69-1 1.11-1 .36.22.15.31.15.31a11.94 11.94 0 0 0-2 4.88v.08a2.52 2.52 0 0 0-.06 1.11zm9.84-5a18.15 18.15 0 0 1-2.14 0 11.48 11.48 0 0 1-2.15-.39c.71-.35 2-2 2.48-1.93s1.46 1.83 1.77 2.33zm-1-2.67a29.75 29.75 0 0 0 3.05 0c-.31.5-1.37 2-1.37 2s-1.28-1.56-1.72-1.99zm-5.28 2.2h.11a20.23 20.23 0 0 0 4.78 1 17 17 0 0 1-3.54 1.33c-.4.01-1-1.56-1.37-2.32zm.59 2.69l-3.24 1.64a.47.47 0 0 1 0-.31c.2-.53 1.6-4.24 1.72-4zm.79-3.37l-.94-2.1c1.23.28 2 .36 2 .36l1 .09a7.42 7.42 0 0 1-2.08 1.67zm-.83.23a9.14 9.14 0 0 1-1.19-.56 2.47 2.47 0 0 1-.78-.8c.33-.22.91-.71 1.2-.64s.62 1.46.75 2.02zM69 46c0-.1-.08-.21-.11-.31-.16-.54.39-.51.5-.49l.53.15zm-1 7.77c.2.09 1.32 1.55 1.72 2h-.23a3.11 3.11 0 0 1-1.63-.89c-.07-.45-.1-1.25.08-1.16zm.47-.44l3.34-1.4s.06 0 .09.08a28.13 28.13 0 0 1 1.75 2.77l-.08.1s-.63.38-.91.6a10.8 10.8 0 0 1-1.85.32zm4.12-1.72c1.79-.75 3.47-1.45 3.41-1.41s-1.77 3.92-1.77 3.92-1.41-2.18-1.71-2.57zm3.21.82a20.73 20.73 0 0 1 1.65-2.85c1.78 0 3.56-.18 3.56-.18l-.69.65c-.6.38-2.58 2.76-4.25 4a7.55 7.55 0 0 1-1.12.65c.05-.54.46-1.51.79-2.33zm2.55-3.62c.55-.65 1.57-2.44 1.9-2.45a10.31 10.31 0 0 1 2.17 1.25 9.89 9.89 0 0 1-.93.45 11.44 11.44 0 0 1-3.2.69zm3.1-3a24.37 24.37 0 0 0 3.11-1.12 11 11 0 0 0-.42 1.21 2.58 2.58 0 0 1-1 1.18zm-18.67-1a8.83 8.83 0 0 1-3.87-3.38c-1.42-2-1.52-2.55-1.72-3.53a7.77 7.77 0 0 1 0-2.72c.1-.25.32.18.64.71a24.16 24.16 0 0 0 3.17 4.2 18.63 18.63 0 0 0 7 4.65v.8a1.57 1.57 0 0 1-.86.51c-.77.2-3.14-.63-4.42-1.23zm-9.3 13.76a38.78 38.78 0 0 1 4.17-5.22c1.25-1.4 2.15-2 2.4-1.94s.12.31 0 .83a21.57 21.57 0 0 0-.69 2.7 10.32 10.32 0 0 1-.51 1.86 4.26 4.26 0 0 0-.37-1.45c-.25-.27-.37 0-.44.29s0 2.55 0 2.55c-.59 1.08-1.65 3.36-1.78 3.76a18.43 18.43 0 0 0-4.18-.78c.21-.37.86-1.55 1.4-2.6zm-9.86-14.2a11.43 11.43 0 0 1 .59 4.15C44.12 51 44 52 44 52s-.65 2.78-.74 3.58-.26 3.42-.52 4.73-.27 2.06-1.13 2.89a6.94 6.94 0 0 1-2.13 1.3 10.44 10.44 0 0 0 1.26-2.26 20.51 20.51 0 0 0 1-5 23.2 23.2 0 0 1 .9-4.24 25.73 25.73 0 0 0 .36-7.16 5.83 5.83 0 0 0-1.3-3.6c.16.02.85.19 1.92 2.13zM35 65.16c-1.26-.2-1.54-.2-2.68-2S30.7 57 30.67 55.68a56.12 56.12 0 0 1-.13-7.81c.29-2.91.75-3.48 2.26-5.16a5.44 5.44 0 0 1 4.35-1.63l.6.05a5.48 5.48 0 0 1 2.06.95l.07.07a1 1 0 0 0 .2.16 9.31 9.31 0 0 1 1.24 1.47A5.39 5.39 0 0 1 42.41 47a39 39 0 0 1-.46 5.85c-.25 1.32-1 3.14-1.14 4.12s-.57 3.25-.59 4.28-.82 2-1.9 3a3.39 3.39 0 0 1-3.32.91zm2.66 1.28l2-.78a22.18 22.18 0 0 0 2.7-1.54 4.87 4.87 0 0 0 1.4-2.75 15.76 15.76 0 0 0 0-2.7c-.16-.38.21-.71.56-.39s.6.39.74 2.11a6.6 6.6 0 0 1-1 4 8.5 8.5 0 0 1-3.11 2.53 6.52 6.52 0 0 1-2.79.25c-.43-.08-.52-.73-.52-.73zm.52 1.56c-.12-.28-.17-.61 0-.56s.32.4 2.11.2a6.89 6.89 0 0 0 4.85-3.8 13.08 13.08 0 0 0 .69-4.24 10.21 10.21 0 0 1 .34 2.77c0 1.4.12 3.08-1.42 4.71a6.8 6.8 0 0 1-4.29 2.08 2.22 2.22 0 0 1-1.88-.57c-.24-.27-.37-.49-.4-.59zm1.9 3l-.78-1.16a11.91 11.91 0 0 0 2.28-.32 8.11 8.11 0 0 0 3.8-2 4.49 4.49 0 0 0 1.52-3.06 20.12 20.12 0 0 0-.29-4.54 2.75 2.75 0 0 1 1.6 1.08 14.62 14.62 0 0 1 .22 4.36 6.3 6.3 0 0 1-2.11 3.92 10.17 10.17 0 0 1-4.07 1.89 4.12 4.12 0 0 1-2.17-.17zm.75 1a7 7 0 0 0 2.66-.4 7.46 7.46 0 0 0 3.87-2.67 6.74 6.74 0 0 0 1.77-3.6c.07-.83-.07-3-.07-3a7 7 0 0 1 1 4A6.68 6.68 0 0 1 49 70.49a7.85 7.85 0 0 1-2.79 2.67 4.43 4.43 0 0 1-3.21.56c-.75-.08-1.54-.94-2.16-1.72zm-3.36 17.09c-.57.33-1.68.52-.85-.26a5.41 5.41 0 0 0 .92-1.44 7.28 7.28 0 0 1 .78-1.08 8.27 8.27 0 0 1 .13 1.57 3.15 3.15 0 0 1-.98 1.21zm.76.07l.3-.26v.22a2.77 2.77 0 0 1-.3.04zM43.65 84a4.8 4.8 0 0 1 .1-.78c.1-.52-.39-.13-.39-.13a4.41 4.41 0 0 0-.56 1c-.33.72-1.34 1.72-1.54 2.29a10.23 10.23 0 0 0-.46 2.45c0 .8-.16 1.19-.69 1.21s-.64-.23-.78-.78 0-2.52-.13-3.3a7.51 7.51 0 0 1 .1-2 11 11 0 0 0-1.54 1.44 13.3 13.3 0 0 0-1.76 3c-.59.77-.92.78-1.83 1.14s-.7-.38-.46-.75.9-1.73 1.37-2.62A12.66 12.66 0 0 1 37 82.94a9.78 9.78 0 0 1 2.48-1.57 7.66 7.66 0 0 0 1.7-1.21l.36.69c2.3 2.29 2.94 2 2.94 2zm.65-2.06a7.84 7.84 0 0 1-2.35-2.09 1.69 1.69 0 0 1 .2-1.7S42 78.76 45 81a9.9 9.9 0 0 0 .85.59c-.5.41-1.2.59-1.55.34zm25.47 17.74c-1.31.56-2.68.46-6.54-.23a26.72 26.72 0 0 1-9.09-3.82 5 5 0 0 1-1.77-2.84 12.79 12.79 0 0 1-.2-5c.23-1.59.8-3.12 1.54-3.43s1.36 0 2.16.23 7 3.2 8.3 3.6 4.64 1.21 4.64 1.21a12.48 12.48 0 0 1-.33 2.29c-.23.64-2.47 2-3.4 2.16s-.13.29-.13.29a5.22 5.22 0 0 0 2.71-.78c-.11 1.37-1.5 2.4-1.27 2.32a2.7 2.7 0 0 0 2.26-3.07 3.37 3.37 0 0 0 .72-1.11 6.1 6.1 0 0 0 .13-2 37.85 37.85 0 0 0 4.77.49h.23s.5-.13.55 1.06a9.08 9.08 0 0 1-1.69 5.89 1.64 1.64 0 0 0-.27.34 6.93 6.93 0 0 1-3.32 2.4zm3 5.89c.76-.51 4.12-.33 4.85-.32s2.06.17 2.18.42-.28.55-2.82.25a11.16 11.16 0 0 0-4.14.17.29.29 0 0 1-.09-.52zm.39-2.3a12.09 12.09 0 0 1 5.69-.32s.74.06.47.47-1.26.12-1.81.1a10.18 10.18 0 0 0-3.6.22l-.38.15a1.05 1.05 0 0 1-.6.07c-.3-.12-.22-.57.21-.69zm8.21-9.17a7.42 7.42 0 0 1 3.46 3.6 13.11 13.11 0 0 1 .29 4.66c0 .81-1.18 5.59-1.3 6.4A13.24 13.24 0 0 1 81.6 114a9 9 0 0 1-7.33 2.33c-3.29-.32-4-.65-5-2.08a4.23 4.23 0 0 1-.91-3.58 5.42 5.42 0 0 1 1.77-2.72 16.42 16.42 0 0 1 1.77-1.25c1.13-.66 3.57-.48 4-.42a22.51 22.51 0 0 0 3.92.1c.73-.1.92-.38.76-.81s-1-.87-3.11-.93a12.57 12.57 0 0 0-3.91.28 6 6 0 0 0-.68.24l.12-.78s.64-.18.88-.22a4.81 4.81 0 0 1 .67-.12 15.39 15.39 0 0 1 3.05.1c1.63.22 2.48-.2 2.57-.59s-.31-1-1.74-1.25a8.24 8.24 0 0 0-5.07.47l.17-.66c.18.28 1.84 0 2.77-.22s2.92-.89 3.7-2.6a4.46 4.46 0 0 0 .49-3.48c-.25-.76-.74-1.86-.74-1.86s-.12-.77 1.6.15zm-1.59 2.38a4.15 4.15 0 0 1-1.17 3.52 7.7 7.7 0 0 1-3.26 1.27 8.55 8.55 0 0 0 2.08-2.06c1-1.35 1.24-2.46 1.1-5.32a3.5 3.5 0 0 1 1.23 2.59zm-3.28-4.37a2 2 0 0 1 1.27 1.72c.2 1.39.51 2.77-.42 4.22a9.05 9.05 0 0 1-2.35 2.76l-1 .49s-1.09.26-.27-.54a6.63 6.63 0 0 0 2.38-3.24 7.51 7.51 0 0 0 .39-5.41zm-.91.47s0-.94.25.07a8 8 0 0 1 0 3.78A8.39 8.39 0 0 1 74 100a3.85 3.85 0 0 1-2.6 1 3.38 3.38 0 0 1-1.14-.37 13.37 13.37 0 0 0 1.32-.74 13.13 13.13 0 0 0 2.55-2.45 5.31 5.31 0 0 0 .87-1.72 15.17 15.17 0 0 0 .59-3.14zM81 86.4c-1.07.76-2.35 2-6.89 2.62-3.44.1-6.12-1-7.51-1.24a62.48 62.48 0 0 1-8.4-3.17 23.73 23.73 0 0 0-6.31-1.77 12.77 12.77 0 0 1-4.31-1.41A23.6 23.6 0 0 1 44 79.12a8.4 8.4 0 0 1-1.32-1.69 7.45 7.45 0 0 1-.45-2.43s0-.43.27-.59c0 0 .18.44 2 .07a3.81 3.81 0 0 0 .81 3.31s.26.26 0-.51-.55-1.75-.1-2.4a2.46 2.46 0 0 1 1.32-1 3.78 3.78 0 0 0 1.56-.88 5.66 5.66 0 0 0 1 2c.7.81 1.26 1.29 1.47.91s-1.19-1.34-1.4-1.81-.66-1.29-.25-1.91A19.54 19.54 0 0 0 50 70.46c.49-.87.7-2.15 1.08-2.5a2.49 2.49 0 0 1 1.84-.37 4.45 4.45 0 0 1 2.26.66s.32-.15-.27-.66a4.73 4.73 0 0 0-2.26-.78c-.33 0-1.34.33-1.72-.69s-.53-1.48-.15-1.72a3.27 3.27 0 0 1 2.06-.51c1.39 0 1.45-.48.93-.56a4.11 4.11 0 0 0-2.11 0 7.52 7.52 0 0 0-1.1.59 5.49 5.49 0 0 1-.42-1.42s0-.45 1.2-.47 3.22-.26 4.51.34a45.39 45.39 0 0 1 5.93 3 8.29 8.29 0 0 1 2.92 3.21 12 12 0 0 1 .81 4c0 .33.7-.17.64-1.4s-1-2.93-.81-3.29.34-.63 1.37-.17a11.6 11.6 0 0 1 5.91 3.92c2.91 3.29 3.4 5.59 3.53 6.18s.23 1.39.44 1.32.33-.06.27-.78a16 16 0 0 0-1.18-4c-.39-.58 0-.69.34-.2S78.33 77 78.56 78s.38-.23.27-.74a4.61 4.61 0 0 0-.59-1.45c-.4-.65 2.28 2.29 3.26 3.46a26.52 26.52 0 0 1 2.23 3.19c.16.3-1.73 3.18-2.73 3.94zm2 .69a1.72 1.72 0 0 1-.83-.22c-.16-.1.81-.64 1.47-1.89s.77-1.46.86-1.25a3.41 3.41 0 0 1 .31 1.58c-.07.3-.16 1.46-1.86 1.78zm7.87-20.86c-.1.51-1 3.46-1 3.46s-1.09 4.6-1.23 5.59-.51 3.71-.86 5.27a29.59 29.59 0 0 1-1.42 4.73c-.25.31-.69.49-.76-.47a9.35 9.35 0 0 0-1.77-4c-1.05-1.5-2.4-2.65-4.19-4.93a18.51 18.51 0 0 0-5.52-4.17 10.69 10.69 0 0 1-1.74-1.4 19 19 0 0 0-4.73-3c-2-.86-2.91-.74-3.78-1.42s-4.77-2.7-5.61-3.14a10.27 10.27 0 0 0-1.17-.5c.37-.69 2-4 2.55-5.19a22.43 22.43 0 0 0 1.25-4.61c.1-.53.8-2.21.83-2.5a3.37 3.37 0 0 1 .81-1.52 16 16 0 0 1 4.22-1.62 6.23 6.23 0 0 0 1.32-.49 41 41 0 0 0-1.77 4.5 2.59 2.59 0 0 0-.1.39c-.25 1.39-.33 3.19.78 4.35s3 1 5.39.85 5.95-3.29 6.64-3.92L81.76 50c1-1 3.69-3.92 4.58-4.18s2.94.31 3.79 0c.8-.13.87.41.61.63L89 48c-2.22 2.5-3.8 6-5.29 9.27a12.31 12.31 0 0 0-1.42 6.52c0 2 1.29 3.43 2.23 3.6a4.83 4.83 0 0 0 4-1c2-1.27 1.73-1.72 1.91-1.57a1.8 1.8 0 0 1 .39 1.4zm6.35.54c-.4.32-.7 0-1.05-.86s.27-2.29.74-3.58 1.8-2.54 1.67-2.6a7.9 7.9 0 0 0-2.06 1.86c-1 1.1-1.39 4.4-1.39 4.4l-1-.31c-1-.31-3.11-1.27-3.75-2.45s-.31-3.38 0-4.51a7.13 7.13 0 0 1 .62-1.89 6.27 6.27 0 0 0-1.4 1.72 7.49 7.49 0 0 0-.49 2.92c-.5-.54-.34-3.71-.49-3.8s-.45 1.19-.48 2.32a9.05 9.05 0 0 0 .58 2.44 12.2 12.2 0 0 1 0 2.3c-.18.61-1.78 1.94-2.84 1.67a3.07 3.07 0 0 1-2.62-2.45c-.55-1.86.32-4.87 2-8.51s4.67-6.7 4.71-6.91a13.45 13.45 0 0 1 1.71-1.61.71.71 0 0 1 .89 0 3.75 3.75 0 0 1 2.4 1.69 3 3 0 0 0-1.27.15c-.39.22-.71.43-.32.69s1.18-.11 2.28.56c0 0 2.53 1.81 5.74 4.24a25.46 25.46 0 0 1 5.59 6.52 16.12 16.12 0 0 0-6.86 2.3c-2.38 1.6-2.56 3.37-2.96 3.69zm3 2.94a7.43 7.43 0 0 0-.22 2.94s-.13.38-.69-.37a15.4 15.4 0 0 1-1.57-2.89 6.18 6.18 0 0 1 2.43-5.57 12.54 12.54 0 0 1 4.78-1.91 5.06 5.06 0 0 1 2.84 0 34.87 34.87 0 0 1 3.7 3.8s-.11-.17-1.3-.32-4.46-.28-6.42.76a9.33 9.33 0 0 0-3.64 3.55zm.64 2.4c-.53-2.34 1.14-3.29 1.45-3.19a3.36 3.36 0 0 1 1.52 1.18 2.73 2.73 0 0 1-.27 2.06 3.42 3.42 0 0 0-.2.58c-.12.29-.3.58-.51.62-.51.08-1.55 1.09-2.08-1.25zm11.67 3.11c-.12.48-.48 1.24-.61 1.25s-.27-.78 0-1.62.13-1.09 0-1.08-.5.39-.64 1.15-.51 1.41-.61 2.16a4.79 4.79 0 0 1-.93 1.23c-.43.31-.72.4-.86.29s.27-.45.42-.74.58-2 .86-2.45.66-.75.61-1 0-.45-.25-.32a3.45 3.45 0 0 0-1.39 1.91 4.31 4.31 0 0 1-1.08 2.3 5.26 5.26 0 0 1-3.65.42c-1.51-.36-1-1.05-.78-1.13a2.62 2.62 0 0 1 1.89 0 1.18 1.18 0 0 1 .56.25c.25.21.48-1.09.37-1.64s-.22-1.15-.69-1.37-.86.71-.86.71l-.49.54a6.55 6.55 0 0 1-1.74.88 1.47 1.47 0 0 1-1.45-.29.56.56 0 0 1 .34-.69 4.12 4.12 0 0 0 1.92-1.98 2.43 2.43 0 0 0 .17-.6c.29-.59 1-2 1.05-2.34a1.79 1.79 0 0 0-.22-1 8.34 8.34 0 0 0-1.32-1.62.52.52 0 0 1 0-1c.55-.27 1.3-.93 4.55-1.27a4.19 4.19 0 0 0 1.11 1.35c.12.07 2.11 1.9 2.75 2.33a4.39 4.39 0 0 1 1.62 2 14.71 14.71 0 0 1-.74 3.37zm-7.06 1s.26-.2.25-.42l.15.61z" fill="#5d3328"/><path d="M39.86 23.12a17.24 17.24 0 0 0-6-9.77 17.68 17.68 0 0 0-9.12-3.69c-4.59-.25-6.86.85-6.86.85a13.55 13.55 0 0 0-5.16 2.78A12.9 12.9 0 0 0 9.16 17c-1.32 2-3.22 6.28-3 9.74a18.77 18.77 0 0 0 1 5.49A27.1 27.1 0 0 0 8.84 36a34.33 34.33 0 0 0 3 3.5 31.28 31.28 0 0 0 3.76 2.55 20.55 20.55 0 0 0 5.26 1.62H21c.92.1 1.75.1 1.9.1h.07a17 17 0 0 0 8.49-2.08c5.54-2.78 7.42-7.69 8.4-10.85a15.32 15.32 0 0 0 0-7.72zm-6.6 7.06s-3.63.83-4.58.16-3.6-6.08-3.6-6.08S26.49 21 26.81 20s.85-1 .85-1a25.3 25.3 0 0 1 5.75.26s1.26.59 3.11 5.07a50.81 50.81 0 0 0-3.27 5.85zM21.81 36c-3 .07-3.61-.15-4.05-.72s-2.29-3.5-2.29-3.5a5.44 5.44 0 0 1-.52-1.41c0-.34 2.24-5.08 3.14-5.59a30.52 30.52 0 0 1 6.34.26s3.24 5.07 3.37 5.72-2.26 4.17-2.65 4.74c0-.02-.33.41-3.34.5zm12-21.67a6.26 6.26 0 0 1 1.5 1.5l-1.77-.33A8.7 8.7 0 0 0 32 13.15zm-11.17-2.38s3.91-.87 4.27-.85a9.92 9.92 0 0 1 1.7.62 13.38 13.38 0 0 1 4.67 4.45 3.13 3.13 0 0 1-.23 2c-5-.26-6.11.2-6.11.2A15.34 15.34 0 0 0 22 15.12a17.59 17.59 0 0 1 .64-3.17zm-11.32 3.69a1.41 1.41 0 0 1 .33-.72l.78-.82s3.79-2.79 5.85-2.94l3.69.78s-.34 1.41-.56 2.65-.59 1.18-.59 1.18a9.12 9.12 0 0 0-4.12 2.58c-1.5-.56-4.48-.28-4.9-.33a.52.52 0 0 1-.49-.36s-.02-1.66.01-2.02zm-2.91 8s2-3.56 2.48-4.35.92-.65.92-.65 2.84.1 3.82.26.92.56.92.56l.72 3.6.23 1.21a16.11 16.11 0 0 0-3.37 6.11l-3.66-.13a30.83 30.83 0 0 1-2-5.68.71.71 0 0 0 0-.14 1.19 1.19 0 0 1-.06-.75zm-1.18 5.63a31.51 31.51 0 0 1-.2-5.2h.47l.46 2a14.57 14.57 0 0 0 1.9 4.74 13.27 13.27 0 0 0 .56 3.86l-.82.65a30.55 30.55 0 0 1-2.37-6.05zM15.5 41a12.37 12.37 0 0 1-5.5-5.09l.75-.36a18.47 18.47 0 0 0 2.68 2.68 8.45 8.45 0 0 0 2.42 1.08 5 5 0 0 0 2 2.6A12.91 12.91 0 0 1 15.5 41zm9.9 1.59s-5 .38-6.54-.56a4.47 4.47 0 0 1-2.35-3c0-.87 1.57-2.39 1.57-2.39a12.64 12.64 0 0 0 7.24-.06 15.64 15.64 0 0 0 2.4 3s.17 1.67-2.31 3.03zm1.44-.2A7.05 7.05 0 0 0 29 39.73v-.09a31.63 31.63 0 0 0 5-3.34s1.06.49 1.63.72-4.03 4.77-8.78 5.39zm11.41-9.77c-1.23 3-1.63 3.64-1.93 3.73a3 3 0 0 1-2.23-1c0-.32.07-.65.08-.89a14.25 14.25 0 0 0-.17-2.87c-.2-.85-.29-1.24 0-1.77s3-5.26 3-5.26a5.2 5.2 0 0 0 2.09-.49 5 5 0 0 1 .1.82c-.01.11.29 4.77-.93 7.75z" fill="#5d3328"/><circle cx="74.97" cy="47.77" r=".31" fill="#5d3328"/><circle cx="77.65" cy="46.84" r=".31" fill="#5d3328"/><circle cx="80.52" cy="47.58" r=".31" fill="#5d3328"/><circle cx="83.17" cy="45.92" r=".31" fill="#5d3328"/><circle cx="72.51" cy="46.51" r=".31" fill="#5d3328"/><circle cx="70.27" cy="46.79" r=".31" fill="#5d3328"/><circle cx="72.49" cy="49.72" r=".31" fill="#5d3328"/><circle cx="69.59" cy="50.69" r=".31" fill="#5d3328"/><circle cx="71.13" cy="53.95" r=".31" fill="#5d3328"/><circle cx="74.15" cy="51.97" r=".31" fill="#5d3328"/><circle cx="76.82" cy="27.88" r=".34" fill="#fbfaf9"/><circle cx="63.35" cy="26.58" r=".34" fill="#fbfaf9"/></svg>