<svg xmlns="http://www.w3.org/2000/svg" width="116" height="116" viewBox="0 0 116 116"><title>Ковер_1</title><g data-name="Слой 2"><g data-name="Слой 1"><path d="M41.26 71.63a11.7 11.7 0 0 1-16.55 0 9.37 9.37 0 0 1 0-13.24 7.48 7.48 0 0 1 10.59 0 6 6 0 0 1 0 8.47 4.79 4.79 0 0 1-6.77 0 3.83 3.83 0 0 1 0-5.42 3.05 3.05 0 0 1 4.33 0 2.45 2.45 0 0 1 0 3.47 2 2 0 0 1-2.77 0 1.56 1.56 0 0 1 0-2.22" fill="none" stroke="#353535" stroke-linecap="round" stroke-linejoin="round" stroke-width="2"/><circle cx="31.75" cy="64.77" r="16" fill="none" stroke="#353535" stroke-linejoin="round" stroke-width="2"/><path d="M56.92 35.6a15.12 15.12 0 0 1 2.47-1 15.32 15.32 0 0 1 12.33 27.8l-.56.33a15.21 15.21 0 0 1-1.41.68M23.94 50.78l33.7-15.52M38.36 79.36l32.68-16.57M31.75 80.78h31.04l32.94-17.65H70.45" fill="none" stroke="#353535" stroke-linejoin="round" stroke-width="2"/><path fill="none" stroke="#353535" stroke-linecap="round" stroke-linejoin="round" stroke-width="2" d="M64.48 79.82h7.12M70.6 76.67h7.12M76.72 73.52h7.12M82.85 70.38h7.12M88.97 67.23h7.12M95.09 64.08h7.12"/><path fill="#ff5a19" d="M85.57 64.22l-7.48-.02-28.35 15.48 7.47-.02 28.36-15.44z"/><path fill="none" d="M0 0h116v116H0z"/></g></g></svg>