<svg xmlns="http://www.w3.org/2000/svg" width="60" height="60" viewBox="0 0 60 60"><title>С тканевой спинкой</title><g data-name="Слой 2"><g data-name="Слой 1" fill="none"><path d="M0 0h60v60H0z"/><path d="M19.44 31l-.12-2.8-.91-19.71a3.2 3.2 0 0 1 3.11-3.26h17a3.2 3.2 0 0 1 3.11 3.26l-.88 19.78-.12 2.73M21.67 40.21v-4.55M23.35 42.11v9.32a.77.77 0 0 1-.77.77h-.15a.77.77 0 0 1-.76-.77v-9.62M23.35 35.66v4.49M37.04 40.17v-4.44M38.71 42.15v9.36a.76.76 0 0 1-.76.76h-.15a.76.76 0 0 1-.76-.76v-9.36M38.71 35.73v4.48M20.18 40.33h19.78M39.96 42.01H20.18M20.11 35.23V54a.76.76 0 0 1-.76.76h-.15a.77.77 0 0 1-.77-.76V35.23" stroke="#353535" stroke-linejoin="round"/><path d="M42.75 33.07v-.66c0-1.27-5.71-2.3-12.75-2.3s-12.74 1-12.74 2.3v1.1M42 35.34V54a.78.78 0 0 1-.78.78h-.28a.77.77 0 0 1-.77-.78V35.34" stroke="#353535" stroke-linejoin="round"/><path stroke="#353535" stroke-linejoin="round" d="M17.26 33.07h25.51v2.38H17.26zM37.69 7.36H22.28a2 2 0 0 0-2 2l1 16.62a2 2 0 0 0 2 2h13.41a2 2 0 0 0 2-2l1-16.62a2 2 0 0 0-2-2z"/></g></g></svg>