<svg xmlns="http://www.w3.org/2000/svg" width="60" height="60" viewBox="0 0 60 60"><title>Офисный стул</title><g data-name="Слой 2"><g data-name="Слой 1" fill="none"><path d="M0 0h60v60H0z"/><path d="M24.75 32.7h12.49a4 4 0 0 1 4 4V38H20.75v-1.3a4 4 0 0 1 4-4zM41.24 25.72v2.54H20.75V25.8M20.75 23.42v-10.5a3.48 3.48 0 0 1 3.46-3.47h13.57a3.48 3.48 0 0 1 3.46 3.47v10.65" stroke="#353535" stroke-linejoin="round" stroke-width="1.5"/><path stroke="#353535" stroke-linejoin="round" d="M29.43 28.16h3.14v4.48h-3.14zM32.56 45.88v-7.96h-3.13v7.96M20.72 38.16a1.34 1.34 0 0 1-1.33-1.34V25.64M41.26 38.16a1.34 1.34 0 0 0 1.33-1.34V25.64"/><rect x="16.88" y="23.44" width="5.3" height="2.27" rx=".91" ry=".91" stroke="#353535" stroke-linejoin="round"/><rect x="40.01" y="23.44" width="5.3" height="2.27" rx=".91" ry=".91" stroke="#353535" stroke-linejoin="round"/><path d="M29.25 44.17l-7.62 2a.9.9 0 0 0-.63 1.06.88.88 0 0 0 1.09.64l7.53-2" stroke="#353535" stroke-linejoin="round"/><rect x="20.29" y="47.99" width="2.58" height="1.84" rx=".91" ry=".91" stroke="#353535" stroke-linejoin="round"/><rect x="29.75" y="48.62" width="2.58" height="1.84" rx=".91" ry=".91" stroke="#353535" stroke-linejoin="round"/><path d="M32.8 44.23l7.2 1.85a.9.9 0 0 1 .64 1.09.88.88 0 0 1-1.09.64l-7.19-2" stroke="#353535" stroke-linejoin="round"/><rect x="38.7" y="47.99" width="2.58" height="1.84" rx=".91" ry=".91" transform="rotate(-180 39.995 48.915)" stroke="#353535" stroke-linejoin="round"/><rect x="29.61" y="44.24" width="2.95" height="4.06" rx="1.21" ry="1.21" stroke="#353535" stroke-linejoin="round"/></g></g></svg>