<svg xmlns="http://www.w3.org/2000/svg" width="60" height="60" viewBox="0 0 60 60"><title>проверка-сотрудников</title><g data-name="Слой 2"><g data-name="Слой 1"><path d="M36.58 24a8.91 8.91 0 0 1 3.17-1.29v-2.55a5.08 5.08 0 0 1-2.87-4.55V13a5.14 5.14 0 1 1 10.29 0v2.57a4.9 4.9 0 0 1-3 4.55v2.57a10.1 10.1 0 0 1 8 10H35.69M23.32 24a9.71 9.71 0 0 0-3.17-1.29v-2.55a5.17 5.17 0 0 0 3-4.55V13a5.14 5.14 0 1 0-10.29 0v2.57a5.19 5.19 0 0 0 2.87 4.55v2.57a10.12 10.12 0 0 0-7.91 10h15.5" fill="#fff" stroke="#fd8204" stroke-linejoin="round" stroke-width="1.5"/><path d="M43.31 52.11a13.57 13.57 0 0 0-10.69-13.26v-3.36a6.73 6.73 0 0 0 3.86-6.13V26A6.73 6.73 0 1 0 23 26v3.36a6.78 6.78 0 0 0 3.76 6v3.46A13.59 13.59 0 0 0 16.3 52.11z" fill="#fff" stroke="#fd8204" stroke-linejoin="round" stroke-width="1.5"/><path fill="none" d="M0 0h60v60H0z"/></g></g></svg>