<svg xmlns="http://www.w3.org/2000/svg" width="80" height="80" viewBox="0 0 80 80"><title>химия</title><g id="Слой_2" data-name="Слой 2"><g id="Слой_1-2" data-name="Слой 1"><rect width="80" height="80" fill="none"/><path d="M59,41.82c0,1.36-4.47,2.47-10,2.47s-10-1.11-10-2.47" fill="none" stroke="#fd8204" stroke-linejoin="round"/><path d="M41.6,37.9c0,.91-4.4,1.65-9.82,1.65S22,38.81,22,37.9" fill="none" stroke="#fd8204" stroke-linejoin="round"/><path d="M39.06,58.15a32.59,32.59,0,0,1-7.28.51C26.35,58.66,22,57.92,22,57" fill="none" stroke="#fd8204" stroke-linejoin="round"/><path d="M49.05,28.4a13.73,13.73,0,0,1,2.58.22V36.7a15.37,15.37,0,0,1-5.17,0V28.62a13.73,13.73,0,0,1,2.58-.22m0-2c-2.53,0-4.58.48-4.58,1.07V37.85c0,.59,2.05,1.07,4.58,1.07s4.58-.48,4.58-1.07V27.48c0-.59-2.05-1.07-4.58-1.07Z" fill="#fd8204"/><path d="M49.05,28a12.57,12.57,0,0,1,3.08.32v8.88a12.59,12.59,0,0,1-3.08.32A12.59,12.59,0,0,1,46,37.15V28.27A12.57,12.57,0,0,1,49.05,28m0-1.5c-2.53,0-4.58.48-4.58,1.07V37.9c0,.59,2.05,1.07,4.58,1.07s4.58-.48,4.58-1.07V27.53c0-.59-2.05-1.07-4.58-1.07Z" fill="#fd8204"/><path d="M38.88,13.92c1.15,0,2.07,0,2.69.08v4.37c-.63,0-1.54.08-2.69.08s-2.07,0-2.69-.08V14c.63,0,1.54-.08,2.69-.08m0-1.5c-2.1,0-4.19.12-4.19.37v6.8c0,.25,2.1.37,4.19.37s4.19-.12,4.19-.37v-6.8c0-.25-2.1-.37-4.19-.37Z" fill="#fd8204"/><path d="M53.15,37.69a11.2,11.2,0,0,1-4.1.6,11.2,11.2,0,0,1-4.1-.6c-3.47.83-5.9,2.67-5.9,4.82V66.62c0,1.36,4.47,2.47,10,2.47S59,68,59,66.62V42.5C59,40.36,56.63,38.51,53.15,37.69Z" fill="none" stroke="#fd8204" stroke-linejoin="round" stroke-width="1.5"/><path d="M51.66,52.21c3.08,3.08,1.24,7.34,1.24,7.34s-4.25,1.85-7.34-1.24S43,49.68,43,49.68,48.58,49.13,51.66,52.21Z" fill="none" stroke="#fd8204" stroke-linejoin="round"/><path d="M44.11,50.62a33,33,0,0,0,2.78,3.32A28.69,28.69,0,0,0,50,56.88a31.22,31.22,0,0,0,3.53,2.34,19.56,19.56,0,0,0,3.89,1.71V61a9.07,9.07,0,0,1-4.34-.92,14.8,14.8,0,0,1-3.59-2.62A30.84,30.84,0,0,1,44,50.68Z" fill="#fd8204"/><path d="M32.53,45.77a2,2,0,0,0-.42.63H32a2,2,0,1,0-2.6,2.6s0,.09,0,.14a2,2,0,0,0-.63.42,2,2,0,1,0,2.81,2.81,2,2,0,0,0,.42-.63h.14a2,2,0,1,0,2.6-2.6s0-.09,0-.14a2,2,0,1,0-2.18-3.23Z" fill="none" stroke="#fd8204" stroke-linejoin="round"/><circle cx="32.04" cy="49.07" r="1.57" transform="translate(-25.31 37.02) rotate(-44.99)" fill="none" stroke="#fd8204" stroke-linejoin="round"/><path d="M39.06,42.5c0-1.45,1.1-2.75,2.88-3.7V19.47H36s.61,3.68-4.68,8c-4.08,3.37-9,6.08-9.26,11.31a2.86,2.86,0,0,0-.06.55V62.32c0,1.36,4.47,2.47,10,2.47a30.73,30.73,0,0,0,7.11-.74Z" fill="none" stroke="#fd8204" stroke-linejoin="round" stroke-width="1.5"/></g></g></svg>