<svg xmlns="http://www.w3.org/2000/svg" width="80" height="80" viewBox="0 0 80 80"><g data-name="Слой 2"><g data-name="Слой 1"><path fill="none" d="M0 0h80v80H0z"/><path d="M59 41.82c0 1.36-4.47 2.47-10 2.47s-10-1.11-10-2.47M41.6 37.9c0 .91-4.4 1.65-9.82 1.65S22 38.81 22 37.9M39.06 58.15a32.59 32.59 0 0 1-7.28.51c-5.43 0-9.78-.74-9.78-1.66" fill="none" stroke="#fd8204" stroke-linejoin="round"/><path d="M49.05 28.4a13.73 13.73 0 0 1 2.58.22v8.08a15.37 15.37 0 0 1-5.17 0v-8.08a13.73 13.73 0 0 1 2.58-.22m0-2c-2.53 0-4.58.48-4.58 1.07v10.38c0 .59 2.05 1.07 4.58 1.07s4.58-.48 4.58-1.07V27.48c0-.59-2.05-1.07-4.58-1.07z" fill="#fd8204"/><path d="M49.05 28a12.57 12.57 0 0 1 3.08.32v8.88a12.59 12.59 0 0 1-3.08.32 12.59 12.59 0 0 1-3.05-.37v-8.88a12.57 12.57 0 0 1 3.05-.27m0-1.5c-2.53 0-4.58.48-4.58 1.07V37.9c0 .59 2.05 1.07 4.58 1.07s4.58-.48 4.58-1.07V27.53c0-.59-2.05-1.07-4.58-1.07zM38.88 13.92c1.15 0 2.07 0 2.69.08v4.37c-.63 0-1.54.08-2.69.08s-2.07 0-2.69-.08V14c.63 0 1.54-.08 2.69-.08m0-1.5c-2.1 0-4.19.12-4.19.37v6.8c0 .25 2.1.37 4.19.37s4.19-.12 4.19-.37v-6.8c0-.25-2.1-.37-4.19-.37z" fill="#fd8204"/><path d="M53.15 37.69a11.2 11.2 0 0 1-4.1.6 11.2 11.2 0 0 1-4.1-.6c-3.47.83-5.9 2.67-5.9 4.82v24.11c0 1.36 4.47 2.47 10 2.47S59 68 59 66.62V42.5c0-2.14-2.37-3.99-5.85-4.81z" fill="none" stroke="#fd8204" stroke-linejoin="round" stroke-width="1.5"/><path d="M51.66 52.21c3.08 3.08 1.24 7.34 1.24 7.34s-4.25 1.85-7.34-1.24S43 49.68 43 49.68s5.58-.55 8.66 2.53z" fill="none" stroke="#fd8204" stroke-linejoin="round"/><path d="M44.11 50.62a33 33 0 0 0 2.78 3.32A28.69 28.69 0 0 0 50 56.88a31.22 31.22 0 0 0 3.53 2.34 19.56 19.56 0 0 0 3.89 1.71V61a9.07 9.07 0 0 1-4.34-.92 14.8 14.8 0 0 1-3.59-2.62A30.84 30.84 0 0 1 44 50.68z" fill="#fd8204"/><path d="M32.53 45.77a2 2 0 0 0-.42.63H32a2 2 0 1 0-2.6 2.6v.14a2 2 0 0 0-.63.42 2 2 0 1 0 2.81 2.81 2 2 0 0 0 .42-.63h.14a2 2 0 1 0 2.6-2.6V49a2 2 0 1 0-2.18-3.23z" fill="none" stroke="#fd8204" stroke-linejoin="round"/><circle cx="32.04" cy="49.07" r="1.57" transform="rotate(-44.99 32.043 49.07)" fill="none" stroke="#fd8204" stroke-linejoin="round"/><path d="M39.06 42.5c0-1.45 1.1-2.75 2.88-3.7V19.47H36s.61 3.68-4.68 8c-4.08 3.37-9 6.08-9.26 11.31a2.86 2.86 0 0 0-.06.55v22.99c0 1.36 4.47 2.47 10 2.47a30.73 30.73 0 0 0 7.11-.74z" fill="none" stroke="#fd8204" stroke-linejoin="round" stroke-width="1.5"/></g></g></svg>