<svg xmlns="http://www.w3.org/2000/svg" viewBox="0 0 70 70"><defs><style>.cls-1{fill:none}.cls-2,.cls-3,.cls-4{fill:#fff;stroke:#f0592b}.cls-2,.cls-3{stroke-miterlimit:10}.cls-3,.cls-4{stroke-width:1.5px}.cls-4{stroke-linejoin:round}</style></defs><title>кино@1x</title><g id="Слой_2" data-name="Слой 2"><g id="Слой_1-2" data-name="Слой 1"><path class="cls-1" d="M0 0h70v70H0z"/><rect class="cls-2" x="12.77" y="61.38" width="6.77" height="4.31" rx="1" ry="1"/><rect class="cls-2" x="44.43" y="61.38" width="6.77" height="4.31" rx="1" ry="1"/><rect class="cls-3" x="9.4" y="33.07" width="45.57" height="29.57" rx="4" ry="4"/><ellipse class="cls-3" cx="18.03" cy="19.7" rx="10.45" ry="10.25"/><ellipse class="cls-3" cx="46.86" cy="17.11" rx="12.79" ry="12.55"/><ellipse class="cls-2" cx="46.71" cy="24.41" rx="2.78" ry="2.73"/><ellipse class="cls-2" cx="38.76" cy="17.09" rx="2.78" ry="2.73"/><ellipse class="cls-2" cx="46.71" cy="10.12" rx="2.78" ry="2.73"/><ellipse class="cls-2" cx="54.22" cy="17.09" rx="2.78" ry="2.73"/><ellipse class="cls-2" cx="18.19" cy="24.89" rx="2.07" ry="2.03"/><ellipse class="cls-2" cx="12.27" cy="19.43" rx="2.07" ry="2.03"/><ellipse class="cls-2" cx="18.19" cy="14.23" rx="2.07" ry="2.03"/><ellipse class="cls-2" cx="23.79" cy="19.43" rx="2.07" ry="2.03"/><path class="cls-4" d="M62.42 56.62l-7.45-2.3V42.56l7.45-1.72v15.78z"/></g></g></svg>