<svg xmlns="http://www.w3.org/2000/svg" width="60" height="60" viewBox="0 0 60 60"><title>Класс офиса</title><g data-name="Слой 2"><g data-name="Слой 1"><path d="M6.24 8h47.52a2.4 2.4 0 0 1 2.31 2.47v30.65a2.4 2.4 0 0 1-2.31 2.47H6.24a2.4 2.4 0 0 1-2.31-2.47V10.51A2.4 2.4 0 0 1 6.24 8z" fill="#fff" stroke="#fd8204" stroke-miterlimit="10" stroke-width="1.5"/><path d="M8 10.49h44a1.4 1.4 0 0 1 1.35 1.44v25.68A1.4 1.4 0 0 1 52 39H8a1.4 1.4 0 0 1-1.35-1.44V11.94A1.4 1.4 0 0 1 8 10.49z" fill="none" stroke="#fd8204" stroke-miterlimit="10"/><path d="M37.93 49.25h-2.67a1.85 1.85 0 0 1-1.86-1.85v-3.5h-6.6v3.5a1.85 1.85 0 0 1-1.8 1.85h-2.93A2.06 2.06 0 0 0 20 51.31v.62h20v-.62a2.06 2.06 0 0 0-2.07-2.06z" fill="#fff" stroke="#fd8204" stroke-miterlimit="10" stroke-width="1.5"/><path fill="#fff" stroke="#fd8204" stroke-linecap="round" stroke-miterlimit="10" stroke-width="1.5" d="M51.86 51.97H8.14"/><path fill="none" d="M0 0h60v60H0z"/></g></g></svg>