<svg xmlns="http://www.w3.org/2000/svg" width="60" height="60" viewBox="0 0 60 60"><title>Класс офиса</title><g id="Слой_2" data-name="Слой 2"><g id="Слой_1-2" data-name="Слой 1"><path d="M6.24,8H53.76a2.4,2.4,0,0,1,2.31,2.47V41.12a2.4,2.4,0,0,1-2.31,2.47H6.24a2.4,2.4,0,0,1-2.31-2.47V10.51A2.4,2.4,0,0,1,6.24,8Z" fill="#fff" stroke="#fd8204" stroke-miterlimit="10" stroke-width="1.5"/><path d="M8,10.49H52a1.4,1.4,0,0,1,1.35,1.44V37.61A1.4,1.4,0,0,1,52,39H8a1.4,1.4,0,0,1-1.35-1.44V11.94A1.4,1.4,0,0,1,8,10.49Z" fill="none" stroke="#fd8204" stroke-miterlimit="10"/><path d="M37.93,49.25H35.26A1.85,1.85,0,0,1,33.4,47.4V43.9h-6.6v3.5A1.85,1.85,0,0,1,25,49.25H22.07A2.06,2.06,0,0,0,20,51.31v.62H40v-.62A2.06,2.06,0,0,0,37.93,49.25Z" fill="#fff" stroke="#fd8204" stroke-miterlimit="10" stroke-width="1.5"/><line x1="51.86" y1="51.97" x2="8.14" y2="51.97" fill="#fff" stroke="#fd8204" stroke-linecap="round" stroke-miterlimit="10" stroke-width="1.5"/><rect width="60" height="60" fill="none"/></g></g></svg>