<svg xmlns="http://www.w3.org/2000/svg" width="48.83mm" height="35.72mm" viewBox="0 0 138.43 101.26"><title>Уборка коттеджей</title><path d="M76.67 100.26v-18.6a7.46 7.46 0 1 0-14.91 0v18.6H14.62a3.28 3.28 0 0 1-3.28-3.28V59.14h115.73v37.84a3.28 3.28 0 0 1-3.28 3.28H76.67z" fill="#e2ddd3"/><path d="M126.07 60.14v36.84a2.28 2.28 0 0 1-2.28 2.28H77.67v-17.6a8.46 8.46 0 1 0-16.91 0v17.6H14.62a2.28 2.28 0 0 1-2.28-2.28V60.14h113.73m2-2H10.34v38.84a4.28 4.28 0 0 0 4.28 4.28h48.13v-19.6a6.46 6.46 0 1 1 12.91 0v19.6h48.13a4.28 4.28 0 0 0 4.28-4.28V58.14z" fill="#682f24"/><path fill="#e1670f" stroke="#682f24" stroke-linejoin="round" d="M27.59 35.05h82.71L69.22 5.06 27.59 35.05z"/><path fill="#f08119" stroke="#682f24" stroke-linejoin="round" d="M27.59 35.05l-2.88-3.25L69.83.5l43.23 31.25-2.76 3.3L69.8 5.17 27.59 35.05z"/><path fill="#f08119" stroke="#682f24" stroke-linejoin="round" stroke-width="2" d="M95.48 36.28v-.23l-.25.11-.24-.11v.22l-25.3 11.88-24.35-11.87v-.23l-.25.11-.24-.11v.22L1 60.14h136.43L95.48 36.28z"/><path fill="#fbf4ee" d="M40.71 57.14v-30.3l29.08-20.2 27.93 20.19v30.31H40.71z"/><path d="M69.77 7.86l26.95 19.52v28.8h-55v-28.8l28.07-19.5m0-2.45L39.7 26.34v31.83h59V26.32L69.8 5.38z" fill="#682f24"/><path d="M76.67 100.26v-18.6a7.46 7.46 0 1 0-14.91 0v18.6H40.7V59.14h57v41.12H76.67z" fill="#fbf4ee"/><path d="M96.72 60.14v39.12H77.67v-17.6a8.46 8.46 0 1 0-16.91 0v17.6H41.7V60.14h55m2-2h-59v43.12h23.05v-19.6a6.46 6.46 0 1 1 12.91 0v19.6h23.05V58.14z" fill="#682f24"/><path d="M26.31 70.77a5.28 5.28 0 0 0-5.28 5.28v12h10.56v-12a5.28 5.28 0 0 0-5.28-5.28zM113.39 70.77a5.28 5.28 0 0 0-5.28 5.28v12h10.56v-12a5.28 5.28 0 0 0-5.28-5.28z" fill="#fbf4ee" stroke="#682f24" stroke-linejoin="round"/><path d="M68.96 24.17a5.28 5.28 0 0 0-5.28 5.28v12h10.56v-12a5.28 5.28 0 0 0-5.28-5.28z" fill="#e2ddd3" stroke="#682f24" stroke-linejoin="round"/><g><path fill="#f08119" d="M40.71 49.59h57.01v15.79H40.71z"/><path d="M96.72 50.59v13.79h-55V50.59h55m2-2h-59v17.79h59V48.59z" fill="#682f24"/></g></svg>