<svg xmlns="http://www.w3.org/2000/svg" width="300" height="250" viewBox="0 0 300 250"><title>чистка-басейна</title><g data-name="Слой 2"><path fill="none" d="M0 0h300v250H0z"/><path d="M112.34 173.88a1.5 1.5 0 0 1-.15-1.68 12.9 12.9 0 0 1 3.17-3.69 9.71 9.71 0 0 1 4.74.78c1.31.71.19 2.46 0 3.54s-.67 4.06-1.19 3.88-6.57-2.83-6.57-2.83z" fill="#fd8204"/><path d="M107 177.84c.07-.15 1.64-3.36 4.25-3.51a8.33 8.33 0 0 1 5.07 1.08c.9.56 1.34.56 1.19 1.49s-1 1.53 0 2.2a25.61 25.61 0 0 1 3.1 1.9c.56.6 1.34 1.79 1 2.2s.07 1.23-1.9 1.45a84.56 84.56 0 0 1-11.93-.48c-1-.3-1-.9-1.08-1.19s.3-5.14.3-5.14z" fill="#e2ddd3"/><path d="M106.75 185a5.21 5.21 0 0 0 1.57 1.86 4.06 4.06 0 0 1 1.72 2.95c0 .9.41 9.17.41 9.17s11.45-1.34 11.45-1.53-.15-13-.07-13.24-.71 0-1.75.11-9.06.86-11.71 0-1.62.68-1.62.68z" fill="#d2a274"/><path d="M99.59 184.81s-.15 1.19 1.94 1.31 4.85-.3 5-.93a3.87 3.87 0 0 0-.45-2.2 22.71 22.71 0 0 0-5.11-.41 2.88 2.88 0 0 0-1.38 2.23z" fill="#f5e0c7"/><path d="M97.8 190.18s-1.31-1.45-.34-2.65a3.36 3.36 0 0 1 3-1.6c1.38 0 6 .19 6.23.19a2.48 2.48 0 0 1 2.13 1.19 12.85 12.85 0 0 1 1.6 5.3v6.34l-8.5 1.23-2.2-1.38s0-2.2-.07-2.65-1.07-4.96-1.85-5.97z" fill="#e2ddd3"/><path d="M99.51 193.05a14.9 14.9 0 0 0 5 .37c2.72-.34 2.91-.34 2.91-.34s.37.07.41 2.27 0 4 0 4l-6.3.9a10.53 10.53 0 0 1-1.9-1.27c.03-.26-.12-5.93-.12-5.93z" fill="#fff"/><path d="M82 183.84a1.84 1.84 0 0 1-1.34-1.68 14.89 14.89 0 0 1 .6-4.7 6 6 0 0 1 2.8-.56c1.34 0 2.65.34 2.65.78s.22 1.72.22 2.27.11 2.69.11 2.91.26.67-.22.78-4.82.2-4.82.2z" fill="#e2ddd3"/><path d="M80 185.48s-2.76.63-3.1 1.23-.63 1-.34 1.34 1.68 1.38 4.74 1.45a38.81 38.81 0 0 0 7.38-.41c1.49-.3 2.46-.48 2.46-1.16s-.93-1.12-1.72-1.57-1.64-.82-1.64-.82.6-1 0-1.31a10.56 10.56 0 0 0-3.06-.19c-.6 0-4.18-.22-4.48 0s-.79.66-.24 1.44z" fill="#f7f5f2"/><path d="M75 187.94c-.09.14-1.64.86-1.72 2.27a9.46 9.46 0 0 0 .9 3.69 24.67 24.67 0 0 1 .34 3.21c.07.45-.11 1.79.45 2.09a14.28 14.28 0 0 0 3.84.78H80a25.77 25.77 0 0 0 2.76.56 31.07 31.07 0 0 0 5-.78 19.11 19.11 0 0 1 4.74-.22c.86.15 1-.15 1.23-1s1.12-4.21 1.27-4.85-.71-5.22-2.2-5.48a4.12 4.12 0 0 0-2.69.3 14.75 14.75 0 0 1-7.57 1.23c-4.14-.41-5.59-.86-5.93-1.42s-.22-1.23-.34-1.19a2.07 2.07 0 0 0-1.27.81z" fill="#efb000"/><path d="M89 185.52s1.38-1.23 1.42-1.34c-.63 0-.78-1.19-.82-1.6-.11-1.07-.26-3.11.52-3.24h2.57c.2 0 2.27-.07 2.5 0s.63.19.71 1.31.19 3.14-.25 3.15c-1.61 0-.16 2 .14 2.7s2 4.77 2.35 5.33a19.75 19.75 0 0 1 1.6 5.37c0 1-.41 1.49-.71 1.45s-3.73.56-3.88.52-1.53 0-1.53-.19 1-4.14 1.23-5.44a9.56 9.56 0 0 0-.86-4.25c-.3-.41-3.51-2.24-3.84-2.54s-1.26-.86-1.15-1.23z" fill="#fd8204"/><path d="M90.53 178.17a3 3 0 0 0-1.34-2.24c-1.31-.86-1.49-.75-1.38-2s1.6-1.83 2.91-2.39 8.35-2.91 8.35-2.91 2.5-1.12 3.32-1a2 2 0 0 1 1.72 2.13c0 1.38-1.6 2.24-2.09 2.35s-3.47 1.34-3.47 1.34a5.65 5.65 0 0 0 .07 2.76c.45 1 1.08 2.35 2.16 2.72s2.46.71 2.2 1.19a2.09 2.09 0 0 1-2.27 1.31c-1.38-.26-4.29-2.72-4.81-3.36a11.3 11.3 0 0 0-1-1 3.82 3.82 0 0 0 .3 2.24c.52.67-4.74-.22-4.74-.22z" fill="#efb000"/><path d="M73.56 195l-12.64 1.75a5.25 5.25 0 0 0-.45 1.27c0 .34.15 1.53.15 1.53a2.83 2.83 0 0 0 1.68 1.31c1 .15 1.79.3 1.79.3l.19 4.92s1.16 9.06 1.38 11.56.36 6 1.44 7.25 16.6 4 21.27 4.46 5.52.56 5.63.07-6.82-18.68-9.29-20-9.81-10.29-9.85-10.42-1.3-4-1.3-4z" fill="#e16702"/><path d="M101.6 200.21c-.21-.17 19.09-2.46 19.09-2.46l2.24-.48s-.9-.67-.9-.78.56-.52.82-.41 6.79.9 7.2 1.27a2.06 2.06 0 0 1 0 2.35c-.56.63-2.57.78-2.61 1s-2.54 20.77-3.06 22.15-1.9 2.24-4.89 2.69-17.56 2.31-17.94 2.31-.48.22-1.16-1.31-1.68-6.12-1.42-8.13c0 0 .15-.56 1.16.15s3 1.9 3.77.9 1.16-1.16.86-2.69-1.83-4.06-2.35-5.07a16.75 16.75 0 0 1-.67-6.64c.31-2.06.53-4.29-.14-4.85z" fill="#fd8204"/><path d="M82.4 200.55a25 25 0 0 0-3.92-.6c-1.68 0-3.84-.78-5.26-.63a5.3 5.3 0 0 0-4.29 2.35c-1.12 1.79-3.65 5-4.33 5.85s-2.2 2-2.39 3.77-.07 2.65 1.53 2.35 2.65-.34 3.54-1.6 4.21-6.34 5-6 1.42 1.42.9 3.51-1.34 4.62-2.46 5.78-4.48 4-4.55 4.92 0 2.39 1.64 2.05 4.77-1.86 5.71-3 .63.93.52 1.57-2.39 2.95-3.1 4-1.75 2.16-1.53 2.91.78 1.27 2.39.67a5.86 5.86 0 0 0 2.95-1.75c.56-.75-.3 3.54.6 4.4s.67 1.34 1.6.67a5.74 5.74 0 0 0 1.94-2c.45-.82.82-2.2 1-1.57s0 1.45.93 1.12 1.34-.41 1.6-.9 1.53-4.92 1.86-5.71 1.23-3.21 1.75-3.28.75 1.08.6 3-.82 6.49-.52 7.5 1.23 1.86 2 1.83 1.19.15 1.64-1.12a28.4 28.4 0 0 0 .86-3.62c.3-1.34.26-2.95.45-2.91s1 5.52 2.87 6.75 2.46 1.08 2.83.45-.41-2.46-.41-3.24.78.71 2 1 1.42.34 1.79-.71a3.33 3.33 0 0 0 .22-2.5c-.26-1.27-1.9-6.27-1.45-7.61s.71-.71.71-.71 1.6 2.46 3.39 2 2.2-1 2-2.13-1.83-3.21-2.05-4.92-1.19-3.88-1-8-1.08-5.41-2.54-5.63-5.26.6-6.45.71-9.97.94-10.57.98z" fill="#f5e0c7"/><path d="M104 207.63s1.16-1 1.53-.48 0 4.92 0 4.92.6 1.64 0 1.9-1.23.22-1.38-.22-.15-6.12-.15-6.12z" fill="#e16702"/><path d="M103.54 207.33c-.12 0-1.31.3-1.38.6s.22 3 .26 3.51a12.06 12.06 0 0 0 1.23 2.35s.19-1.75.26-2.13.27-4.36-.37-4.33z" fill="#d2a274"/><path d="M110 206.78s1.16-1 1.53-.48 0 4.92 0 4.92.6 1.64 0 1.9-1.23.22-1.38-.22-.15-6.12-.15-6.12z" fill="#e16702"/><path d="M109.88 206.44c-.12 0-1.45.3-1.53.6s.07 6 .11 6.45 1.72-.22 1.72-.22-.07-2 0-2.35.34-4.52-.3-4.48z" fill="#d2a274"/><path d="M116 206s1.16-1 1.53-.48 0 4.92 0 4.92.6 1.64 0 1.9-1.23.22-1.38-.22S116 206 116 206z" fill="#e16702"/><path d="M115.89 205.66c-.12 0-1.45.3-1.53.6s.07 6 .11 6.45 1.72-.22 1.72-.22-.07-2 0-2.35.33-4.52-.3-4.48z" fill="#d2a274"/><path d="M121.67 205.36s1.16-1 1.53-.48 0 4.92 0 4.92.6 1.64 0 1.9-1.23.22-1.38-.22-.15-6.12-.15-6.12z" fill="#e16702"/><path d="M121.52 205c-.12 0-1.45.3-1.53.6s.07 6 .11 6.45 1.72-.22 1.72-.22-.07-2 0-2.35.33-4.48-.3-4.48z" fill="#d2a274"/><path d="M120.47 215.78s1.23-.79 1.58-.33-.2 4.21-.2 4.21-.09 1.68-.14 1.67c-.63-.17-1.22.08-1.35-.31s.11-5.24.11-5.24z" fill="#e16702"/><path d="M120.56 215.49c-.12 0-1.5.17-1.59.42s-.21 5.1-.19 5.52 1.76-.09 1.76-.09a17.47 17.47 0 0 1 .11-2c.09-.34.56-3.85-.09-3.85z" fill="#d2a274"/><path d="M115.18 216.38s1.23-.79 1.58-.33-.2 4.21-.2 4.21.53 1.44-.09 1.63-1.27.12-1.4-.27.11-5.24.11-5.24z" fill="#e16702"/><path d="M115.26 216.08c-.12 0-1.5.17-1.59.42s-.21 5.1-.19 5.52 1.76-.09 1.76-.09a17.47 17.47 0 0 1 .11-2c.1-.32.56-3.84-.09-3.85z" fill="#d2a274"/><path d="M109.58 217.31s1.23-.79 1.58-.33-.2 4.21-.2 4.21.53 1.44-.09 1.63-1.27.12-1.4-.27.11-5.24.11-5.24z" fill="#e16702"/><path d="M109.67 217c-.12 0-1.5.17-1.59.42s-.21 5.1-.19 5.52 1.76-.09 1.76-.09a17.47 17.47 0 0 1 .11-2c.09-.31.56-3.85-.09-3.85z" fill="#d2a274"/><path d="M104.18 218.1s1-.84 1.35-.37.14 4.3.14 4.3 0 1.52-.2 1.58c-.62.18-1.27.12-1.4-.27s.11-5.24.11-5.24z" fill="#e16702"/><path d="M104.26 217.8c.06 1.84-1.64 1.89-1.73 2.14s-.07 3.39-.05 3.8 1.76-.09 1.76-.09a17.47 17.47 0 0 1 .11-2c.1-.32-.11-4.5-.09-3.85z" fill="#d2a274"/><path d="M112 206.31a.38.38 0 0 0-.41-.37s-2.61.28-3.06.35-.47.34-.47.34v1.31s-.15 4.08-.07 5 .58.88.58.88 2.59-.26 3-.34.34-.37.34-.37.09-6.41.09-6.8zm-2.05 6.36c0 .54-.22.65-.76.62a.64.64 0 0 1-.62-.5v-5.26c0-.93.71-.76.71-.76.75 0 .75.37.75.37s-.03 4.99-.09 5.53zm1.53-5.71v5.28c0 .54-.26.71-.6.69a.36.36 0 0 1-.34-.37s0-4.89.06-5.39.39-.41.39-.41c.57-.02.48.24.48.24zM117.92 205.66a.38.38 0 0 0-.41-.37s-2.61.28-3.06.35-.47.34-.47.34v1.31s-.15 4.08-.07 5 .58.88.58.88 2.59-.26 3-.34.34-.37.34-.37.11-6.46.09-6.8zm-2.05 6.34c0 .54-.22.65-.76.62a.64.64 0 0 1-.62-.5v-5.26c0-.93.71-.76.71-.76.75 0 .75.37.75.37s-.05 5-.08 5.53zm1.53-5.71v5.28c0 .54-.26.71-.6.69a.36.36 0 0 1-.34-.37s0-4.89.06-5.39.39-.41.39-.41c.58 0 .49.22.49.22zM122.18 215.42a.33.33 0 0 0-.34-.32s-2.23.2-2.61.26-.4.28-.4.28v1.11s-.18 3.48-.13 4.24.48.75.48.75 2.21-.19 2.56-.25.29-.31.29-.31.16-5.43.15-5.76zm-1.83 5.39c0 .46-.2.55-.66.51a.54.54 0 0 1-.52-.44s0-3.69.1-4.48.61-.64.61-.64c.64 0 .63.33.63.33s-.13 4.26-.16 4.72zm1.38-4.84s-.1 4-.1 4.5-.23.6-.52.58a.31.31 0 0 1-.28-.32s.1-4.16.12-4.59.34-.34.34-.34c.52-.02.44.2.44.2zM116.9 216.09a.33.33 0 0 0-.34-.32s-2.23.2-2.61.26-.4.28-.4.28v1.11s-.12 3.48-.13 4.24a.72.72 0 0 0 .48.75s2.21-.19 2.56-.25.29-.31.29-.31.16-5.43.15-5.76zm-1.83 5.39c0 .46-.2.55-.66.51a.54.54 0 0 1-.52-.44l.1-4.48a.63.63 0 0 1 .61-.64c.64 0 .63.33.63.33s-.12 4.24-.16 4.72zm1.38-4.84s-.1 4-.1 4.5-.23.6-.52.58a.31.31 0 0 1-.28-.32s.09-4.17.12-4.59a.33.33 0 0 1 .34-.34c.44-.02.44.17.44.17zM111.37 217a.33.33 0 0 0-.34-.32s-2.23.2-2.61.26-.4.28-.4.28v1.11s-.18 3.48-.13 4.24.48.75.48.75 2.21-.19 2.56-.25.29-.31.29-.31.16-5.39.15-5.76zm-1.83 5.39c0 .46-.2.55-.66.51a.54.54 0 0 1-.52-.44s0-3.69.1-4.48.61-.64.61-.64c.64 0 .63.33.63.33s-.13 4.33-.17 4.76zm1.38-4.84s-.1 4-.1 4.5-.23.6-.52.58a.31.31 0 0 1-.28-.32s.1-4.16.12-4.59.34-.34.34-.34c.52.02.43.21.43.21zM123.59 205a.38.38 0 0 0-.41-.37s-2.61.28-3.06.35-.47.34-.47.34v1.31s-.15 4.08-.07 5 .58.88.58.88 2.59-.26 3-.34.34-.37.34-.37.11-6.44.09-6.8zm-2.05 6.36c0 .54-.22.65-.76.62a.64.64 0 0 1-.62-.5v-5.26c0-.93.71-.76.71-.76.75 0 .75.37.75.37s-.05 4.95-.08 5.49zm1.53-5.71v5.28c0 .54-.26.71-.6.69a.36.36 0 0 1-.34-.37s0-4.89.06-5.39.39-.41.39-.41c.58-.05.48.17.48.17z" fill="#692f23"/><path d="M130.94 197.54c-.06-.22-.34-.4-.94-.59s-6.75-1.08-6.75-1.08l-.91-.19v-12.1a4.37 4.37 0 0 0-1.44-3c-1.34-1-2.63-1.29-2.8-1.79a1.07 1.07 0 0 1 .45-1.44c.63-.32 1-.26 1.31-.91a53 53 0 0 0 1.23-5.76 1.19 1.19 0 0 0-.37-1 5.44 5.44 0 0 0-3.88-1.66c-2.26-.07-2.65.9-2.87 1.19a42.87 42.87 0 0 0-2.69 3.51.93.93 0 0 0 0 .78c.11.32-.43.19-1.42.69a5.75 5.75 0 0 0-3.23 3.45 16.62 16.62 0 0 0-.35 5s-.09-.22-.76-.37-5.3.07-5.3.07a.86.86 0 0 0-.76.73c-.09.65.07 2.11 0 2.42s-.37.52-.86.71a3.79 3.79 0 0 0-1.58 1 3.59 3.59 0 0 1-.41.42c0-.19-.27-.72-.41-1.13-.22-.66-.79-1.82-.67-2.16s.38-.11.61-.74a5.4 5.4 0 0 0 .22-2.09 7.11 7.11 0 0 0-.36-2 .94.94 0 0 0-.54-.45 1 1 0 0 0 0-.33v-.63a8.69 8.69 0 0 0 3.2 2.91 4.56 4.56 0 0 0 3.15.45 5.2 5.2 0 0 0 1.92-1.25c.21-.35.21-.71-1-1s-2.54-.62-3.15-2.05-1-1.77-.65-3.28l5.09-2.07s.65-.35.62-1.9a2.77 2.77 0 0 0-1.57-2.41 1.36 1.36 0 0 0-.59-.12 6.21 6.21 0 0 0-2.05.49c-.58.26-8.58 2.76-10.39 3.43s-2.5 1-2.7 1.58a6.39 6.39 0 0 0 .06 2.52c.13.65.35 1 1.36 1.21s1.19.76 1.16 1.27a3.08 3.08 0 0 1-.26 1 1 1 0 0 0-.62.9 35 35 0 0 0 .09 3.67c0 .17 0 .45.24.62s-.32.5-.56.82-.43.58-.63.62 0-.13 0-.6a1.31 1.31 0 0 0-.56-1.1c-.24-.19-.09-.28-.07-.75a31.25 31.25 0 0 0-.43-4.64c-.11-1.06-.65-1.57-1-1.66a19.36 19.36 0 0 0-3.11 0 4.93 4.93 0 0 0-2 .47c-.56.43-.48 1.34-.47 1.64a30.48 30.48 0 0 1-.34 4.33c-.21.52-.56.63-.82 1.14s0 1.12-.13 1.17a25.12 25.12 0 0 0-3.3 1.4c-1 .6-2.63 1.7-3 3a5.19 5.19 0 0 0 .28 3.26 7.59 7.59 0 0 1 .41 1.85c-.89.1-11.89 1.35-12.71 1.76a.91.91 0 0 0-.76.8 12.18 12.18 0 0 0 .21 2.67c.09.32.39.56 1 .69l1.94.43a37.94 37.94 0 0 1 .69 6.15c0 .06-2.22 2.86-2.52 4.21a3 3 0 0 0 .24 2.54c.39.65 1.52.87 2.87.73a.88.88 0 0 0 .23 0c0 .82 1 10 1.16 10.41a2.2 2.2 0 0 0 1.36 1.23c1.4.54 1.32.52 1.31 1a2 2 0 0 0 .63 1.6 1.94 1.94 0 0 0 2.14.35 13.86 13.86 0 0 0 3.21-1.64 8.94 8.94 0 0 0-.24 3.62c.26.78.73 1.38 1.6 1.31a4.5 4.5 0 0 0 3-1.77 5.6 5.6 0 0 0 .83-1.45 1.41 1.41 0 0 0 1.05.51 1.86 1.86 0 0 0 1.55-.76s2.91.59 3.06 1a3.07 3.07 0 0 0 2.22 2.09c1.4.13 2-.19 2.41-.86a4.47 4.47 0 0 0 .34-1.15 11.63 11.63 0 0 0 2.31.24 4.88 4.88 0 0 0 .67.77c1.73 1.58 3.15.86 3.49.62a1.71 1.71 0 0 0 0-2.13s0-.37.82-.22 1 .43 1.7.19.73-.45 1.21-.91 14.8-2 15.31-2.14 6.19-.76 7.53-1.42 1.45-1.29 1.66-2.59 2.8-20 2.85-20.42-.07-1.38.78-1.58 1.47-.34 1.81-1a4.39 4.39 0 0 0 .34-2.35zm-8.06-.66c-.24 0-.6-.29-.41-.37.62.08 6.07.78 6.6.92l.22.07-26.68 3.5s0 .06-.17 0c0 0-.43-.43.19-.6s8.63-1.19 8.63-1.19l12.56-1.51s.93-.09 1-.34-1.66-.43-1.94-.49zm-21-3.17a21.53 21.53 0 0 0 4.9-.26c.48-.11.62 0 .63.13s.15 4.74.18 5.56c-2.31.31-5.58.74-5.72.7s-1.29-.88-1.79-1.14a47.62 47.62 0 0 0-.43-5.23c.35.03 1.02.13 2.27.23zm-2.46-1.08a10.74 10.74 0 0 0-1.34-2.39.36.36 0 0 1 0-.29 22.59 22.59 0 0 0 6.38.51c3.28-.28 3.86-1 4.2-1.12s.6-.09 1 1.27.3 8.22.3 8.22l-1.62.22c0-.28-.06-3.38-.17-4.71s-.11-1.7-.37-1.83-.37-.1-.71 0a24.36 24.36 0 0 1-5 .38c-1.97-.02-2.53-.16-2.63-.26zm13.76-21.11l1.12-1.42.26-.3s.6-.93 1.25-1.06a5.15 5.15 0 0 1 4 1.34c.23.2.26.55.18 1.11s-.47 1.82-.83 3.14a.16.16 0 0 1-.13.06 17.45 17.45 0 0 1-2.69-.86 13.56 13.56 0 0 1-3-1.47.38.38 0 0 1-.12-.54zm-.54.8c.17-.06.13.09 1.64 1a23.66 23.66 0 0 0 4.51 1.66c.09 0 .19.08.16.2v.12c-.11.43 0 .62-.63.47a26.38 26.38 0 0 1-5.22-2.32c-.26-.19-.73-.5-.75-.61a.63.63 0 0 1 .33-.52zm-5.24 5.89a4 4 0 0 1 2-2.55 9.9 9.9 0 0 1 3.41-1.08 19.85 19.85 0 0 1 3 1.25c.32.11 1.48.73 1.39 1.09-.14.53-.42.52-.38 1.39s.24 1.29 1.53 1.92 2.55 1.44 2.89 2.31 0 1.16-.62 1.34a17.08 17.08 0 0 1-5.16.52 64.87 64.87 0 0 1-6.6-.17c-.46-.06-1.45-.22-1.68-.75a40.83 40.83 0 0 1 .26-5.27zm-.12 6.17a7 7 0 0 0 1.85.47 56.22 56.22 0 0 0 6.36.17 26 26 0 0 0 4.57-.29c.65-.1 1.12-.54 1.37-.29.4.41 0 12.71 0 12.71s0 .21-.58.28l-10 1.27a72 72 0 0 0-.35-8.33 7 7 0 0 0-2.27-4 4.06 4.06 0 0 1-1.06-.82 1.36 1.36 0 0 1-.13-.62s-.04-.43.28-.55zm-6.9-1.19c.37-.37 4.75-.38 5.29 0s.38.81.39 1.1 0 .95-.24 1.18-.54.26-1.81.26a16.51 16.51 0 0 1-3.47-.15c-.28-.15-.43-.26-.48-.8a1.91 1.91 0 0 1 .36-1.59zm-.29 3.28a20.49 20.49 0 0 1 3.17.13 11.34 11.34 0 0 0 2.61-.11 3.12 3.12 0 0 1 1.88.26 1.21 1.21 0 0 1 .24 1.83c-.34.28-1.68.73-4.14 1a14.6 14.6 0 0 1-5-.32s-1.27-.34-1.38-1.29 2.16-1.39 2.66-1.5zM99 178.3c1.55 1.75 3 1.27 3.34 1.49s-.11.88-1.16 1a5.38 5.38 0 0 1-3.24-1 4.93 4.93 0 0 1-2.47-3.33v-.43a2.85 2.85 0 0 1 1.53-1.57 4.49 4.49 0 0 1 .63-.28A6.2 6.2 0 0 0 99 178.3zm1-5.71c-.47.13-.69.06-1.17-.6a2.4 2.4 0 0 1-.5-1.83 1.8 1.8 0 0 1 .44-.95l1.19-.42c.14 0 .27 0 .3.12s-.15.58 0 1.27a3.59 3.59 0 0 0 .63 1.51c.28.31-.39.78-.89.91zm3.34-4s.93 1.34.43 2.13a1.34 1.34 0 0 1-1.92.48 2.21 2.21 0 0 1-.69-2 1.23 1.23 0 0 1 .68-1 1.63 1.63 0 0 1 .54-.11 1.52 1.52 0 0 1 .99.48zm-14.47 7.1a1.48 1.48 0 0 1-.75-1.73 1.81 1.81 0 0 1 1-1.42c.63-.34 7-2.35 7-2.35l.95-.33c.14 0 .27 0 .32.13.15.34-.07 1.1.22 1.83s.8.88.82 1.06-.22.3-.84.62H97.44a5.91 5.91 0 0 0-2.76 2.07 7 7 0 0 0-.39 2.7c0 .37-.21.6-.47.63s-1.42 0-1.83 0-1-.06-1-.62a4 4 0 0 0-.69-2.07 4.8 4.8 0 0 0-1.39-.54zm6 7.12v-2.91-.12a.59.59 0 0 1 .41.46 3.18 3.18 0 0 1-.39 2.56zm-.31-2.81v3a3.14 3.14 0 0 1-.85.32v-3.44a.18.18 0 0 1 .14-.19h.53c.08.03.14.05.18.31zm-1.22 0v3.31a.23.23 0 0 1 0 .11h-.74v-3.57s0-.16.08-.16h.51c.13.05.15.07.15.31zm-1.09 0v3.31s0 .17-.08.16a4.41 4.41 0 0 1-.83-.11.15.15 0 0 1-.07-.15v-3.28s0-.17.12-.17h.7c.14-.01.15.06.16.24zM91 180v3s0 .12-.09.15a1 1 0 0 1-.5-.42 6.1 6.1 0 0 1-.3-2.13.82.82 0 0 1 .65-.88.26.26 0 0 1 .24.28zm-.26 4.36c.39 0 2.63.09 3.21.11s.71.69 1 1.51.54 1.45.76 1.92a18.16 18.16 0 0 0 1.12 2.1 17.33 17.33 0 0 1 2.27 5.91c.13 1 .21 1.9-.13 2.27s-.37.28-.93.17a7.8 7.8 0 0 0-2.07.06c-.65.07-1.58.5-1.72.32a6 6 0 0 1 0-1.49 7 7 0 0 1 .62-2.05 7.63 7.63 0 0 0 .48-2.85 6.69 6.69 0 0 0-1.72-3.86 10 10 0 0 0-3.06-1.86s-1.1-.37-1.08-.8a2.22 2.22 0 0 1 1.21-1.46zm-9.49-3.84c.07-.58.15-2.54.5-2.82a6.16 6.16 0 0 1 3.34-.32c1.13.16 1.3.62 1.32.82v.09c0 .03.17 2 .28 2.76s.39 1.38 0 1.94-1.77.84-3.79.69c0 0-1.27-.17-1.51-.58a6.94 6.94 0 0 1-.19-2.58zm-4.55 6.88c.21-.56.88-.71 1.86-1a11.9 11.9 0 0 1 2.74-.34c.6-.06 1.47.22 1.53-.07s-.94-.25-1.19-.3c-1.55-.27-1.45-.71-1.36-.93a.92.92 0 0 1 .91-.43c.39.07 1.7.21 1.7.21a27.36 27.36 0 0 0 2.78-.07c.84-.11 1.45-.17 1.7.06s0 .71-.88.93a10.71 10.71 0 0 1-2.07.3c-.22 0-.56.35.54.37a24.09 24.09 0 0 0 2.59-.21 6.09 6.09 0 0 1 2.64 1.08.62.62 0 0 1 .07.88 3 3 0 0 1-1.23.73 17.33 17.33 0 0 1-1.79.47 32.5 32.5 0 0 1-7.16-.06c-2.62-.48-3.63-1.02-3.43-1.62zm-3 3a4.3 4.3 0 0 1 2-2.76c.15-.15.15 0 .15 0a2.24 2.24 0 0 0 .77 1.21 9.8 9.8 0 0 0 3.87 1.15 36.71 36.71 0 0 0 6.1-.06 7.35 7.35 0 0 0 2.73-.55h.16c1.21-.37 1.32-.78 1.73-.91a1.58 1.58 0 0 1 1.47.13 4.48 4.48 0 0 1 1.68 2.93 4.66 4.66 0 0 1 0 .93v.06c-.26 1.23-2.27 1.68-3.52 2s-2.7.41-7.37.35-7.37-.22-8.15-.86a3.58 3.58 0 0 1-1.65-3.65zm20.43 3.54a5.06 5.06 0 0 1-.18.58 8 8 0 0 0-.63 2.42c-.09 1.12-.15 2.05-.45 2.24s-.58.3-1.85.13a54.69 54.69 0 0 0-5.63-.15 4 4 0 0 0-2.31.63s-.21.07-.3 0a5.78 5.78 0 0 0-1.9-.67c-.76-.07-2.18.41-3.37.37a3.74 3.74 0 0 1-2.13-.63 17.57 17.57 0 0 0-.32-2.22v-.06a18.86 18.86 0 0 0-.41-1.91v-.05c.13-.32.82.06.82.06 1.73.54 5.91.75 8.88.78a40.09 40.09 0 0 0 7.25-.5 6.19 6.19 0 0 0 2.5-1.05zm-20.29 3a.31.31 0 0 1 .28.25l.07 1.2a.41.41 0 0 1-.08.21c-.27.22-.53.16-1.29.09a35.75 35.75 0 0 1-4.64-1c.1-.06 4.61-.69 5.63-.77zm-12.59.29s10.7-1.72 11.52-1.72 1.12.43.9.67-9.79 1-9.77 1.4 6.73 1.77 6.52 2a2.19 2.19 0 0 1-.85.27c-1.19-.22-5.71-1.22-6.62-1.5s-1.86-.53-1.83-1a.39.39 0 0 1 .1-.14zm.67 2.93c-.63-.21-1-.11-1.1-.69s-.15-1 .28-.9 7.79 1.92 8 2.09-.07.55-.11.6-.3.55-.58.46-2.82-.78-2.82-.78-3.07-.6-3.7-.8zm5.72 2.26a17.79 17.79 0 0 0-1.17 1.89c-.34.71-.88 1.59-1.24 1.63s-.3-.37-.35-1-.14-1.33-.21-1.77a13.9 13.9 0 0 1-.12-1.62c.38.08 3.06.84 3.06.84zm-1.45 15.51c-.09-.71-.29-2.28-.29-2.79a4 4 0 0 1 .16-1.14l.21-.21a41.76 41.76 0 0 0 3.11-3.15c.69-.9 1.85-3.1 2.29-3.39s.69-.39.8.41a8.41 8.41 0 0 1-1.29 5.61 27.38 27.38 0 0 1-4.18 5.2c-.54.42-.79-.04-.84-.56zM68 225a3.06 3.06 0 0 1-1.09-2.24v-.07a2.83 2.83 0 0 0 1.92.09 10.81 10.81 0 0 0 4-2.33c.58-.71 1-1.23 1.06-1.06a.48.48 0 0 1 0 .25.72.72 0 0 0-.06.18c0 .08 0 .17-.08.27v.09a8.45 8.45 0 0 1-1.16 2.22 24.62 24.62 0 0 1-2.18 2.6 1.78 1.78 0 0 1-2.41 0zm11.45-1.66a40.66 40.66 0 0 0-.19 4.49 5.18 5.18 0 0 1-1.1 2.59c-.75 1-1.64 1.27-2.24.71s-.69-2.22-.41-3.17 1.49-4.29 1.49-4.29c.07-.24 1.12-2.63 1.34-3.49s.11-1.27-.19-1.45-1.42 3.45-1.72 4.33a10.73 10.73 0 0 1-2.31 3.41 6.15 6.15 0 0 1-2.59 1.64c-.73.19-1.68.3-1.73-.45s.58-1.42 1.08-2 2.8-3.24 3.13-3.77a7.87 7.87 0 0 0 .54-2.13s.48-1.92.6-2.57.09-1.49 0-1.38-1.7 3.17-3 4-3.39 2.27-4.33 2.16a1.15 1.15 0 0 1-.88-1.92c.65-1 2-1.86 4.46-5a10.25 10.25 0 0 0 2.26-6.94c0-.71-.21-2.8-1-2.85s-3 2.83-3.84 3.84-2.07 3.77-4.42 4.12-2.2-.94-2-1.44a31.49 31.49 0 0 1 2.5-3.73.74.74 0 0 0 .12-.21s2.85-4.15 3.3-4.74l1-1.32a13.6 13.6 0 0 1 1.6-1.47 6.19 6.19 0 0 1 2.43-.58c1 0 3.34.67 4.55.76s2.88-.1 3.41 0 .69 1.25.69 1.25v1.49a18.39 18.39 0 0 1-.37 2.8 42.89 42.89 0 0 0-.5 4.51c-.09 1.4-.56 5.11-.58 5.84s-.82 5.72-1.1 7.01zm6.38 2.66c-.08.56-.26 1.38-.32 2s-.56.52-.93.5a3.43 3.43 0 0 1-1.4-.52c-.15-.17.08-.78.08-.78a30.79 30.79 0 0 1 1.27-4.42c.56-1.16 1-2.54 1.42-2.55a5.28 5.28 0 0 1 .17 1c.01.77-.2 4.16-.29 4.77zm4.91 3a25.58 25.58 0 0 0 .25-3.14 16.78 16.78 0 0 0 1.11 3.25zm9.25-2c-.22 1.06-.11 1.34-.8 1.58a1.56 1.56 0 0 1-1.79-.82 10.16 10.16 0 0 1-1.23-4.77c-.13-2.72.28-4 .06-4.21s-.45-.13-.8.76a11.49 11.49 0 0 0-.5 4.66 22.62 22.62 0 0 0 1 5c.45 1.4.45 1.81-.06 2.14s-1.14-.07-1.75-.67-1.75-2.85-2.35-6.41-.65-5.95-1-6-.35.21-.47 1-.17 4.7-.15 6 .21 4.81-1.25 5.78c-1.16.77-2.65-1.19-2.63-2.27s.54-3.1.82-4.83a23.89 23.89 0 0 0 .09-4.51c0-.45-.17-1.6-.37-1.55a9.3 9.3 0 0 0-1.19.91 4.14 4.14 0 0 0-.63 1c0 .09-2.61 7-2.74 7.89a1.88 1.88 0 0 1-.67 1.12c-.43.22-1.25-.5-1.25-.5.06-.75-.06-2.46.06-3.62s.78-4.08.93-5.15.73-7 .78-7.94.43-4.72.45-5.63.44-3.69.47-3.86c.21-1.4 1.55-1.55 2.93-1.75s6.27-.15 7.35-.19 2.69-.93 4-1a12.59 12.59 0 0 1 1.7-.08 1.1 1.1 0 0 1 .25 0 3.28 3.28 0 0 1 1.48.82 3.82 3.82 0 0 1 .59 1.78.58.58 0 0 0 0 .09s.07 1.4.09 2.11.07 3.41.09 4.27a8 8 0 0 0 .63 3.39c.63 1.49 2.35 4.59 2.22 5.58s0 2-1.42 2-2.22-.21-3-1.73a18 18 0 0 1-1.47-4 13.22 13.22 0 0 0-.86-2.83 4.45 4.45 0 0 1-.73-2.16c0-1.06.11-1.94-.13-1.88s-.54.58-.5 2.07a8.88 8.88 0 0 0 .86 3.45 10.61 10.61 0 0 1 1 4.2 31.7 31.7 0 0 0 .73 5.41c.37 1.55 1.39 4.35 1.17 5.43zm3.78-13.77a16.3 16.3 0 0 1-1.14-3.07c0-.12-.05-.25-.08-.39s0-.1 0-.17-.17-1.58 0-1.72.17-.37.56-.37.67.11.65.86.02 4.17.02 4.94zm.6-5.36s.13-.48.56-.52a.53.53 0 0 1 .6.44v5.56s0 .39-.84.37c0 0-.37-.19-.41-.48s.1-5.29.1-5.29zm-.45 15.42c-.11.34-1 .3-1 .3s-.32 0-.33-.9 0-2 0-2.41a3.41 3.41 0 0 0 1-.11 1.13 1.13 0 0 0 .34-.18 32.09 32.09 0 0 1 0 3.38zm20.23-1.31a2.89 2.89 0 0 1-.94 1.69c-.63.41-3.76 1-6 1.35s-15 2.11-15.4 2.11-.6.11-1-.91-.88-3.34-1.06-4a13.23 13.23 0 0 1-.3-3.67c.19-.24 1 .93 1.68 1.34a2.55 2.55 0 0 0 1 .32l.09 3.06s0 .63.43.69a27.42 27.42 0 0 0 2.93-.34s.24 0 .26-.8 0-5.28 0-5.28a.38.38 0 0 0-.37-.35 1.11 1.11 0 0 0-.35 0 4.83 4.83 0 0 0-.57-2.56l-.16-.24 1.22-.13s.47 0 .45-.84 0-5.46 0-5.46V207s0-.28-.62-.22-2.56.33-3.22.42a12.45 12.45 0 0 1 0-1.8.67.67 0 0 1 .6-.69c.65-.14 11.4-1.47 11.4-1.47l11.13-1.69c.41-.06 1.39-.26 1.48.44.11.37-2.63 19.74-2.67 20.07zm-19.58-2.67a3.62 3.62 0 0 0 .51-1.47c.09 0 .22 0 .25.15a42.19 42.19 0 0 1 .06 5.18c0 .2-.65.34-.8.06a36.83 36.83 0 0 1 0-3.83zm25.12-19.78a22.47 22.47 0 0 1-3 .54l-12.29 1.79-1.14.17-10.12 1.31s-.54.09-.65-.73.93-.86 1.1-.86 26.23-3.65 26.23-3.65a1.94 1.94 0 0 1 .29 0c.12 0 .13.19.13.32-.01.5.04.95-.54 1.19z" fill="#692f23"/><path d="M165.34 221.51s1.41-4 2.26-4.52a19 19 0 0 1 6.43-1.91c3.53-.57 8.8-1.2 9.61-.85s3 .71 4.24 1.77a25.23 25.23 0 0 1 3.32 3.39c1.13 1.38 3.89 4.77 3.25 7s-1 3.39-1.7 3.67-9.33 2.69-9.54 2.69-10.42.53-12.65-.07-4.17-3.32-4.17-3.32-2 3.11-5 3.39-3.32.28-3.32.28-6.78-.32-12.72-.42-5.86-2.16-6.78-3.25-2.37-4.2-1.34-6.22 3.46-4.49 4.17-5.65 4-3.43 5.58-3.25 8.48.78 9.61 1.2 6.75.14 7.35 2.12 1.4 3.95 1.4 3.95z" fill="#efb000"/><path d="M121.81 153.46s-1.79 5.1-1.57 7.22.76 5.75 2.23 7.38 3.31 3.8 4.83 4.51 4.26 1.68 4.67 1.3.68-.65.49-1.09-3.15-2.77-3.15-4a9.43 9.43 0 0 1 .54-3.31c.19-.08 1.82 1.93 2.71 2.23s1.51.52 1.77.05 0-1.93-.47-3.2a34.09 34.09 0 0 1-.81-5.86c0-.62-1.25-5.62-1.79-5.81s-8.42-.45-9.45.58z" fill="#fbdfcb"/><path d="M225.56 136.9c-.19-4.56-8.36-19.11-8.8-19.92s-2.09-8.31-2.88-10.48-4.72-5.13-8.9-11.67-11.48-13.93-13.74-15.21a68.06 68.06 0 0 0-8.8-3.69c-.6-.11-7.28-1-7.28-1s0-2.87-.12-3.76c0 0-1.9.94-7.73 2.08-.7.14-4.22.42-4.95.46a36.32 36.32 0 0 1-6.38-.31c-1.75-.25-6.91-1.42-6.91-1.42l-.24 4.16-4.29 1-2.88.71-4.22 1.15c-1.19.49-.54 2-.54 2a61.26 61.26 0 0 1-4.61 4.51c-2.66 2.33-6.19 9.39-8.58 13.79s-4.83 12.92-5.27 14.88-3.26 15.47-3.26 15.47-1.38 3.12-2 4.4-.22 5.1-.22 5.1a9.4 9.4 0 0 0-1 4.78c.22 2.52 7.82 4.61 7.82 4.61s-.9 2.93 4 4.45 10.59-1.74 10.8-1.68.14-2.52.11-2.82.65-9.69.65-11.18-2.06-2.58-.76-5.59 1.74-21.61 2.71-24.43 1.36-15.31 1.36-15.53 7.55-1.09 7.55-.76.54 4.74 4.26 5.88 27.39-.2 29.35-1.37 1.58-7.51 1.77-7.51 5.32-.05 5.32-.05-1.09 10.67 1.19 12.87 5.21 8.31 5.37 8.52 1.57 16.07 2.33 22.91A83.78 83.78 0 0 0 198.3 145s2.33 6.27 8.63 7.71 12.81-1 14.71-2.71 4.11-8.54 3.92-13.1z" fill="#fff"/><circle cx="138.69" cy="89.5" r="4.72" fill="#fd8204"/><circle cx="178.32" cy="94.82" r="4.72" fill="#fd8204"/><path d="M204.23 121.15a4.72 4.72 0 1 1-9.45 0c.35-1.26 1 .12 5.31-3.57 2.61-.01 4.14.96 4.14 3.57zM206.56 96.23a4.72 4.72 0 0 1-9.08-1.84 4 4 0 0 1 4.34-4.23c2.62 4.5 4.98 5.5 4.74 6.07zM222.58 128.4a4.73 4.73 0 0 1-6.53-4.37 3.92 3.92 0 0 1 2.51-3.92c2.38 6.31 5.17 7.81 4.02 8.29zM187.4 76.77a4.72 4.72 0 0 1-9.35-1c3.32-.7 9.41.7 9.35 1z" fill="#fd8204"/><circle cx="130.11" cy="116.87" r="4.72" fill="#fd8204"/><path d="M138.2 84.6c-.22 0-1.56-4.51-1.16-5.07s2.53-2.24 3.55-1.45 2.24 4.92 2.24 4.92a5.74 5.74 0 0 1 2.17 1.45 14 14 0 0 1 1.3 4.42 13.77 13.77 0 0 0 .43 3.55c.4 1 1.52 3.11 2.68 3.69s6.44.87 6.44.87 20.16.36 22.44-.65 2.24-1.92 2.53-3.26.74-5.09.74-5.09-2.48-1.25-2.12-3.46 2.43-3.95 2.46-4.78-.43-3.66.52-3.82 4.07-1 4.4.92a25.39 25.39 0 0 1 .22 4.85c0 .33.83.58 1 2.32a7.67 7.67 0 0 1-1.18 3.91s-1.14 9.23.09 10.79a80.68 80.68 0 0 1 5.21 7.17c1 1.81 2.39 15.24 2.68 17s1.66 16.87 1.66 19.33-.62 14.12-.94 18.1a102.57 102.57 0 0 1-2.9 15.71c-.94 2.75.18 16.61 0 20s-.69 6.91-.94 9.56.33 8.69-.25 9.34-1.12 2.79-1.41 2.68-2.93-2.93-5.21-3.11A73.61 73.61 0 0 0 169 216c-1.07.28-1.46.42-1.6-.55s-.14-20-.51-21.5a20.75 20.75 0 0 0-2.17-4.27s-1.16 9.74-1.09 12.16 0 13.68-.36 14-13.17-1.52-14.48-1.52c-4.55 0-8.07 3.26-8.4 3s-.52-1.74-.65-3.19c-.1-1.06-.47-12.19-.51-14.55s-.83-16.87-.87-18.1a44.57 44.57 0 0 0-.58-7.6c-.54-2.21-3-13.65-3-15.35s.22-12.52.36-13.75a19.79 19.79 0 0 0-.29-5.28 33 33 0 0 1-.72-5.72c0-1 1.74-10.46 1.74-12.6s1.52-13.21 1.34-14 1-6.06 1-7.47.65-7.09.38-8.05-2-4.47-1.61-5.19 1.22-1.87 1.22-1.87z" fill="#7a4c2c"/><circle cx="119.47" cy="129.03" r="4.72" fill="#fd8204"/><path d="M123.76 148.79a4.72 4.72 0 0 1 9-2c.24.6-5.42 2.21-9 2zM149 101.07s-.22 3.34.22 3.75 31.54 0 31.54 0l-.33-4.56-31.43-.12z" fill="#fd8204"/><path d="M156.76 73.11c.75.08 1.53.15 2.33.21a29.73 29.73 0 0 0 5.53-.21zM175.14 73.11c.09.92.22 1.77.4 1.69a15.46 15.46 0 0 1 3-.55h4.45a22.23 22.23 0 0 0 5.61-1.15z" fill="#e09c51"/><path d="M154.3 73.11a53.81 53.81 0 0 0 13.22 0z" fill="#fbdfcb"/><path d="M212.38 125.17l-.4-.26-.41-.22-.51-.14a3.22 3.22 0 0 1-2-.94 3.12 3.12 0 0 0 .67.94 6.57 6.57 0 0 0 2.81.73z" fill="#fff"/><path d="M206.2 130.5c0-.46-3.92-1.67-4.61-2.65s-.75-2.54.92-2.54 4.5 1.09 5 .69l.46-.4.69 1.56-.12 3.92a1.65 1.65 0 0 0 1.84.58c1.33-.29 1.38-1.84 1.38-1.84l-.23-3.46a4.52 4.52 0 0 1 3.23.35c1.5.86 3.28.92 4 2.77s1.33 4.26 1.84 5.65-.06 3.11-.69 5.3a52.9 52.9 0 0 1-2.31 5.76s-4.55.69-6.45.69-5-.4-6.34-1.73a2.25 2.25 0 0 1-.69-2.42 13.46 13.46 0 0 1-1.38-3.23c-.29-1.38.58-5 .58-5s-.35-1.84.35-2.19a25.62 25.62 0 0 1 3.23-.92z" fill="#fbdfcb"/><path d="M209 123.58c-.25-.75 1.13-55.1 1.13-55.1s-.4-3.23 1.38-3.57 1.5 4.38 1.5 4.38l-1.38 61.32s.35.52-1.27 1-1.84-.58-1.84-.58zM207.24 204.84l1-57.63a5.17 5.17 0 0 1 1.84-.35c1 0 1.27 3.46 1.27 3.8s-.92 54.17-.92 54.17-1.92 3.01-3.19.01z" fill="#efb000"/><path d="M206.36 226c-.27.12-16.37 5.23-16.37 5.23s-8.38 2.54-9.76 3.46-2.23 2.38-1.92 3.23a11 11 0 0 0 1.23 3.07c.65.81 6.22 7.11 7.38 7.45s5.69-.42 6.38-.61 41.86-13.65 42.29-13.88 3.17-1.38 3.44-2.34a4.94 4.94 0 0 0 .08-3c-.35-1.15-6.53-5.8-7-6.15a18.77 18.77 0 0 0-3.77-2c-.5-.02-21.98 5.54-21.98 5.54z" fill="#fd8204"/><path d="M207 219.59l-.12 8.88-6 2.19s-3.23.17-3.11 1 2.42 3.11 2.42 3.11l3.11 2.77 17.87-5.3a2.22 2.22 0 0 0-.58-2c-.86-1.09-4.15-4.5-4.15-4.5l-6.34 1.84-.1-21.36-2.65-.35z" fill="#c7c0b1"/><path d="M217.5 225.24s10.14-2.71 10.72-2.54 5.42 4.61 5.42 4.61a4.11 4.11 0 0 1-2.07 1.84c-1.21.29-8.64 2.65-8.64 2.65l-1.5-.58-5-5.42zM183.84 236.08l4.61 5.76s3 .69 3.8.35 10-4.5 10-4.5l-2.07-2.88-2.42-3.11z" fill="#f5e0c7"/><circle cx="152.82" cy="75.51" r=".61" fill="#692f23"/><circle cx="157.35" cy="74.94" r=".59" fill="#692f23"/><ellipse cx="160.98" cy="77.01" rx=".61" ry=".59" fill="#692f23"/><circle cx="165.39" cy="75.01" r=".64" fill="#692f23"/><circle cx="169.6" cy="75.59" r=".62" fill="#692f23"/><circle cx="173.05" cy="73.31" r=".62" fill="#692f23"/><circle cx="161.37" cy="81.51" r=".67" fill="#692f23"/><circle cx="166.05" cy="84.05" r=".67" fill="#692f23"/><circle cx="161.96" cy="89.06" r=".67" fill="#692f23"/><circle cx="157.48" cy="93" r=".67" fill="#692f23"/><path d="M162.59 96.51a.67.67 0 0 0-1.14 0z" fill="#692f23"/><circle cx="166.51" cy="92.4" r=".67" fill="#692f23"/><circle cx="157.17" cy="84.84" r=".67" fill="#692f23"/><path fill="#692f23" d="M168.68 78.97v.01l-.01-.01h.01zM181.18 100.11c-.3-.53-1.58-.49-1.58-.49h-18.48s-10.57-.2-11.76-.14a1 1 0 0 0-1.09 1.12s-.09 3.06 0 4.16 1 1 1 1 29.88-.07 30.95 0 1.09-.58 1.09-.58.31-4.3-.13-5.07zm-2 4.25h-28.66c-1 0-1.09-.33-1.09-.33a17.54 17.54 0 0 1-.07-2.24c.05-1 .51-.94.51-.94h11.22s17.37 0 18.13.07.84.49.84.49v2.19c0 .78-.87.76-.87.76zM147.19 88.88s.03.02 0 0zM184.13 134.72l.23-23.45a1.29 1.29 0 0 0-1.22-1.22c-1.18-.1-36.48 0-36.48 0s-1.44-.07-1.41 1.71 0 23.07 0 23.07a2.71 2.71 0 0 0 3 2.8l32.43-.32c3.68-.03 3.45-2.59 3.45-2.59zm-2.45-23.35s.39.12.23 1.14a30.22 30.22 0 0 1-1.07 4c-.41 1-.46 1.26-1.59 1.35s-29.87 0-29.87 0-.57-.07-.87-.9-1.38-4.76-1.38-4.76-.26-.83.39-.84zm1 22.61s.25 2.08-3.45 2.17c-1.61 0-30.82.16-30.82.16s-1.66-.07-1.71-1.6c0-1.14-.15-13-.11-19 .29.94.54 1.76.62 2a2.77 2.77 0 0 0 2.74 1.66c1.86.08 20.65.18 28.49.12 2.12 0 2.7 0 3.53-2.2s.8-3 .91-2.86-.22 19.57-.22 19.57z"/><path d="M239.73 228.82a2.2 2.2 0 0 0-.75-1.48s-8-6.37-9.12-6.86a6.07 6.07 0 0 0-2.61-.35l-16.54 4.22 1.16-63.77.13-7.35s1.67 0 4.38-.14a7.38 7.38 0 0 0 4.87-1.9 32.92 32.92 0 0 0 2.36-4.12c.32-.66 2.2-5.55 2.39-6.22a12.45 12.45 0 0 0 .23-4c-.17-1-.67-3-.87-3.8 0-.1 0-.2-.08-.32a43.22 43.22 0 0 0-4.26-8.36 30.44 30.44 0 0 1-1.79-4.15c-.49-1-1-1.64-1.67-3.05a24.18 24.18 0 0 1-1.5-5.3 43.74 43.74 0 0 0-2.59-6.92A3.72 3.72 0 0 1 213 103s.52-35.31.28-36.78a1.8 1.8 0 0 0-2.52-1.5c-1.24.32-1.27 2.07-1.27 2.07s-1 31.35-.86 31.64c0 0-2.91-3.49-4.26-5.24s-5.19-7.58-8.36-10.43a37.23 37.23 0 0 0-8-5.34 4.61 4.61 0 0 0-3.14-2.15 6.45 6.45 0 0 0-2.87.07c-.43 0-17 3.51-18.27 3.21-1.42.12-7.34-.07-7.93-.37 0 0-1.55-.44-2.2-.67a11.57 11.57 0 0 1-3.23-1.87 3.87 3.87 0 0 1-.61-.93 7.16 7.16 0 0 1-3 1.25 15 15 0 0 1-3.67.37 17 17 0 0 1-2.36 1 44.08 44.08 0 0 0-4.55 1.55 1.32 1.32 0 0 0-.69 1.63c0 .07.1.26.19.54-.75.74-3.3 3.16-3.3 3.16-3.58 3.57-8.27 12.11-9.84 15.67a116 116 0 0 0-4.67 13.9c-.47 2.21-2.7 12.09-3 13.93a17.81 17.81 0 0 1-.8 3.26 25 25 0 0 0-1.63 2.53 5.81 5.81 0 0 0-.43 3.76 4.6 4.6 0 0 1 .11 2.14 4.62 4.62 0 0 0-.94 3.76c.16 1.14.22 3.2 6.62 5.21.35.11.69.21 1 .29 0 .21-.09.71-.13 1.26s.13 2 2.21 3l.43.18a15.25 15.25 0 0 0-1.19 3.22 19.15 19.15 0 0 0 .94 10 11.73 11.73 0 0 0 5.25 6.12c.89.65 3.76 2.14 5.54 2a1.41 1.41 0 0 0 1.3-2.14c-.25-.62-2-1.61-2.64-2.46a3.72 3.72 0 0 1-.87-2.64c-.05-1.38.4-1.19.4-1.19a5.63 5.63 0 0 0 2.9 2.68c1.68.65 2.17-.25 2.17-.25.31-.29-.09-1.7-.33-2.17a24.8 24.8 0 0 1-1.09-4.74c-.09-1.25-.43-4.6-.69-5.94a8 8 0 0 0-1.12-2.61s2.26-1.7 2.06-.43a101.1 101.1 0 0 0 1.3 14.48 29.28 29.28 0 0 0 1.55 4.85c.2 1.23.3 3.83.37 6.12.08 2.49.11 7.55.07 10.12a30.46 30.46 0 0 0 .74 7.22 28.71 28.71 0 0 1 .69 4.9s.13 7.38.2 7.8a11.07 11.07 0 0 1 .07 2.9 19.48 19.48 0 0 0 .22 3.73 11.52 11.52 0 0 0 0 2.5 1.48 1.48 0 0 0 1.08 1 8.62 8.62 0 0 0-1.89 1.38 6.65 6.65 0 0 0-2 3.27 12.22 12.22 0 0 0 .23 4.6 6.28 6.28 0 0 0 3.93 4.48 32 32 0 0 0 6.15 1.6c1.6.27 10.79.31 12.35.27a18.56 18.56 0 0 0 4.56-.58 3.7 3.7 0 0 0 2-2.27 5.29 5.29 0 0 0 1.6 1.85c2.07 1.19 5.38 1.05 8.61 1h.23l4.17.12c-.63.44-1.94 1.45-2 2.35a8.76 8.76 0 0 0 .93 4.52 85.36 85.36 0 0 0 8.19 8.72 4.68 4.68 0 0 0 2.58 0s47.72-15.72 48.76-16.13a1.79 1.79 0 0 0 1.19-1.22s-.03-2.39-.09-3.31zM212.92 107.1s1.44 4.23 2.34 6.51.23 2 .23 2a5.38 5.38 0 0 0-2.61-1.16zm0 9.21c2 .32 2.35.9 3.41 1.91a18.06 18.06 0 0 1 3.11 5.53c.55 1.61 2.33 4.15 3.34 6.57l1.44 3.46a14.88 14.88 0 0 1 .81 6.6 24.14 24.14 0 0 1-2.33 6.77c-1 1.69-3.1 4.52-5.53 5a27.14 27.14 0 0 1-5.24.29s0-4.18-.12-5.1h.15c1.07-.26 3.95-1 4.5-.46s.4.69.17 1 .66.2 1.9-1 1.64-3.49 2.54-5.82a8.35 8.35 0 0 0 .35-5.65c-.46-1.27-1-2.74-1.33-3.75a8 8 0 0 0-1.21-2.88c-.84-1.27-4.15-3-6.31-3.17-.07-.07.31-9.3.31-9.3zm-2.46-47.25c.06-.92-.23-3.4.92-3.34s1 1.33 1 1.33l-.46 40.05s-.69 23.25-1 23.74-1.67.46-1.67.46 1.1-61.3 1.16-62.24zm.46 63.34a5 5 0 0 0 2.82-1.5c.55-.72.46-1 0-1.15s-.46.2-.92.58-.58.06-.58.06l.19-3.45c.1-.13.35-.26 1-.18 1 .14 4.47 1.73 5.53 3.63s.14 2.71.4 3.63 1.41 2.42 1.21 3.69a5 5 0 0 1-1.21 2.36c-.29.43.2 1.61-.12 2.36a4.72 4.72 0 0 1-.81 1.27 3.24 3.24 0 0 1-2 2.36c-1.7.58-5.76.52-7.26.4a11.28 11.28 0 0 1-3.57-1.15c-.78-.32-1.5-1.24-1.15-1.9s1.82.7 3.34 1a7.14 7.14 0 0 0 2.16.12c.49 0 3.76-.09 5.13 0s1.17-.68.63-1a7.07 7.07 0 0 0-3.8-.14c-3.21.51-4.43 0-5.56-.4a3.65 3.65 0 0 1-2.65-2.31c-.49-1.35.52-1.18.81-1h.07c.28.1 1.31.48 1.63.64a5.74 5.74 0 0 0 3.57 1 7.11 7.11 0 0 0 3.57-.66 12.25 12.25 0 0 1 3-.12c.71 0 .84-.27.4-.86s-1.76-.53-2.51-.49-2.2.79-3.14.92a5.25 5.25 0 0 1-3.37-.37 11.92 11.92 0 0 0-2.1-.92.84.84 0 0 0-.35-.06 2.45 2.45 0 0 1-1.56-.89c-.49-.81-.45-1.48 0-1.87a.63.63 0 0 1 .69.09 10.76 10.76 0 0 0 3.77 1c2 .27 6.48-.88 7.29-1s1.82 0 2.19-.12.37-.85 0-1.12-1.66.36-3 .52a45.71 45.71 0 0 1-7.61.32 4.77 4.77 0 0 1-2.55-.71 2.56 2.56 0 0 1-.56-.54c-.66-.93-.27-1.63.81-2s4.86.27 6.12-.04zm10 98.79c.35.64-.94 1.07-1.07 1.13s-13.43 3.82-14 4.05-2.4.69-3.07.14-3.21-3.47-3.21-3.47-1-1-.75-1.3 6.91-2.54 7.59-2.74v1.05c.06 1.52.34 2.23 2.43 2.14 1.83-.08 1.82-2.66 1.82-2.66v-1.7c.73-.25 3.3-1 4.3-1.16 1.53-.32 2 .17 2 .17a43.81 43.81 0 0 1 3.95 4.35zm-2.62-5.45c.73-.29 9-2.16 9.68-2.22s4.22 2.77 4.6 3.72-.69 1.17-.69 1.17-8.08 2.69-9 2.69a2.92 2.92 0 0 1-1.17-.25c-.39-.46-1-1.2-1.52-1.92a13.4 13.4 0 0 0-2.37-2.26c-.29-.2-.28-.67.46-.93zm-16.21 11.73c-1.33.45-10.29 3.61-11.22 3.83s-1.07 0-1.65-.46-4.34-4-4.34-4-.35-.43.55-.81 10.68-3.33 11.35-3.42a1.39 1.39 0 0 1 1.14.27 34.41 34.41 0 0 0 3.23 3.78zm-7-12.87a5.76 5.76 0 0 0-2-4.6 12.52 12.52 0 0 0-1-.86 6.6 6.6 0 0 0-1.31-1.05 1.39 1.39 0 0 0 .86-.9c.18-.72-.29-1.65-.18-2.28s.36-1.56.36-1.56.33-3.85.36-4.85.85-4.18.76-5.9.27-8.51.36-9.84 0-9.5 0-9.5a32.77 32.77 0 0 1 .34-6.19c.24-1.13 1-1.52 1.22-4.84s1.45-19.58 1.59-21.39a23.49 23.49 0 0 1 .8-4.71c.16-.11 1.49 1.37 1.49 1.37.75 1 2.45 3 3.29 4s4.67 2 5.3 2a.31.31 0 0 0 .2 0c-.07 4.22-.15 9.32-.18 11.49v.32s-.89 45.61-1 60.34l-12.35 3.7c1-1.16 1.13-2.74 1.1-4.76zm8.4-94.1a3.68 3.68 0 0 1 2.59.86c-1.79-.06-3 .35-3.4 1.21a4.54 4.54 0 0 0-.06 2.25 2.32 2.32 0 0 0-.81 1.24 22.06 22.06 0 0 0-.43 5c.06 2.13 0 3.95 1.15 5.13a7.5 7.5 0 0 0 2.31 1.64s.12-.1-.12-.26a5.82 5.82 0 0 1-2.36-4.44 7.62 7.62 0 0 1 .36-3 7.6 7.6 0 0 0 .53 1.42 4.22 4.22 0 0 1 .52 1.73 2.55 2.55 0 0 0 1.61 2.82c1.62.78 2.19 1 2.33 1.08 0 .64-.05 2.63-.09 5.09-.21 0-3.06-.27-4.31-1.21s-3.4-4.52-4.21-6.05a12.62 12.62 0 0 1-1.38-3.75c-.2-1.09 1-5 1.45-6.1a21.1 21.1 0 0 1 1.78-2.84 3.6 3.6 0 0 1 2.55-1.82zm-1.44-4.55c.84-.32 3.95.58 5 .63a3.4 3.4 0 0 0 1.29-.14c0 1.7 0 3.5-.31 3.72a.88.88 0 0 1-.54.14s-.55-.15-1.29-.39a15.07 15.07 0 0 1-3.52-1.51c-1.43-.99-1.46-2.14-.62-2.46zm6.66 35.35c0-4.93.1-11.88.17-12.87.06-.74.32-1 .58-1.11h.57a.82.82 0 0 1 .61.79l-.06 13.66h.06c-.24 11.68-.74 29.25-1 43.64a1.71 1.71 0 0 1-.75.15 2.93 2.93 0 0 1-1-.31c.19-12.88.58-28.08.79-39s0-1.76 0-4.17v-.82zm-.22 45.64a4.07 4.07 0 0 0 1.09 0c-.25 12.76-.45 22.68-.46 23.09 0 1.19-.35 1.3-1 1.25s-.64-.9-.64-.9l.35-23.63a1.44 1.44 0 0 0 .66.18zm-20.33-128.1a25.45 25.45 0 0 1 3.68 2.3 36.15 36.15 0 0 1 8.08 8c2.62 3.43 3 4.45 4.21 6 .78 1.06 3.95 4.5 4.38 5 .09.12-.35 23-.35 23s0 .64.08 1.53a2 2 0 0 1-1.18.6c-1 .14-3.11-.92-4.73-.63s-1.76 1.15-1.79 1.84a2.36 2.36 0 0 0 1.1 2s.32.26-.46.69a7.17 7.17 0 0 0-2.13 3.17c-.37 1.07-.63 2.91-1.33 3.4s-.77 0-1-.67c-.24-3.27-.72-7.93-.87-9.21-.06-.53-.43-2.51-.1-3.35a17.68 17.68 0 0 1 1.75-2.51c1-1.35 4.21-2.36 5.94-2.88s1.33-1 1.33-1-.31-.71-3.44.28c-3.5 1.11-4.22 3.32-4.22 2.72a6.64 6.64 0 0 1 .8-3 14.71 14.71 0 0 1 2.12-2.86c.75-.81 1.28-1.36 1.17-1.5s-1.11.08-2.48 1.3a8.63 8.63 0 0 0-2.82 4.75c-.23 1.38-.66 2.71-.75 2.07s-.46-6.31-.46-7.49.86-2.25 1.09-3.23.75-5.62.23-5.48-.58 1.21-.52 2.19-.49 3.46-1.33 2.88-2.45-8.8-2.6-9.85-.2-2.68-.57-2c-.27.51.1 4 .42 6.45-.68-.62-3.11-2.93-3.52-4.51-.47-1.81.33-9.68-.22-10.53 1-.42 1.17-1.34 1.27-2.61.11-1.41.38-3.28-.89-4 0 .06.12-1.47.11-2.86zm-5.59-.64c0-1 .33-1.42.81-1.47 1-.1 3 .11 3.09 1.49a29.87 29.87 0 0 1 0 3.12c-1.46-.26-3-.33-3.93-.46-.01-.7.02-2.02.04-2.69zm-.43 4.34c5.6.09 5.44 1 5.44 1a8.84 8.84 0 0 1-.21 2.76c-.34 1-1.1.74-1.1.74s-2.29 0-3-.11-2.08-.08-2.59-.62-.66-1.18-.5-2.6 1.76-1.18 1.96-1.17zm-13.14.07c.35-2.74 1-3.57 1.8-4.12a12.23 12.23 0 0 1 4.72-2.32 14.13 14.13 0 0 1 5.58-.17 2.26 2.26 0 0 0-.19.77v3.95c-1.07 0-1.55.84-1.83 1.62a7.74 7.74 0 0 0-.2 4.06 4.31 4.31 0 0 0 1.77 1.88s-.51 3.17-.62 4.42-.18 2.35-1.27 2.93-8.83.76-8.83.76h-1c-.08-5.23-.02-12.91.07-13.78zm-.62-2.77a18.77 18.77 0 0 0-.74 4.21v2.37a44.55 44.55 0 0 1-5.19-1.8zm-8 13.48h.09c-1.37.74-3.52 1.67-4.37 2a36.75 36.75 0 0 1-.36-4.6v-.9c.64.52 3.86 3.05 4.67 3.51zM157 89l4.36-3.51a42.2 42.2 0 0 0 6 2.23 39.34 39.34 0 0 1-5.36 4.71 22.61 22.61 0 0 1-5-3.43zm5 5a36 36 0 0 0 5.37 1.71l-.66.72h-9.38a40 40 0 0 0 4.61-2.43zm1.36-1a26.48 26.48 0 0 0 4.44-3.75c.06 1.64.13 3.43.18 5.11a19.45 19.45 0 0 1-4.67-1.36zm1.12-13.51a22 22 0 0 0 3.07-.34c-1.18.84-3 2.3-3.44 2.65s-1.87 1.47-2.78 2.21h-.09a29.8 29.8 0 0 1-3.38-2.75 22.84 22.84 0 0 1-1.86-1.81c2.47.17 6.68.08 8.42.08zm-9.07 1.05s1.68 1.59 4.95 4.32l-4.49 3.58c-.1-2.85-.51-6.36-.57-7.2s.05-.65.05-.65zm-12.52-2.14l2.72-1c1-.41 1.8-.72 2.05-.83.7.32 1.86.85 2.78 1.23.29.15 1.22.5 2.12.82a1.92 1.92 0 0 1 1.19.9 5.75 5.75 0 0 1 .53 2.84c0 1.6.41 9.12.66 11.88a19 19 0 0 0 .28 2.2h-1.5c-1.51-.07-4.22-.36-5.18-1.71C146.86 92.45 147 91 147 91c.75-.29.4-2.38.4-2.38a35.29 35.29 0 0 0-1.25-4.35c-.38-.6-.64-1.07-1.68-1-.11-.22-1.76-4.77-1.64-4.82zm2.44 10.6c-.29.39-1.21.88-3 1.27s-3 .69-3.44-.1c0 0-1.23-2.26-1-3.21a1.59 1.59 0 0 1 .66-.74 5.23 5.23 0 0 1 1.54-.61c1.36-.38 3.15-.72 3.15-.72s1.22-.3 1.56.6 1.02 2.86.53 3.51zm-5.79-10.35c.94-.26 1.16.34 1.38.69s1.4 3.41 1.68 4.22a16.57 16.57 0 0 0-4 1.05 21.79 21.79 0 0 1-1.56-4.07c-.11-.82.43-1.31 2.5-1.88zm-21.79 42.56c.14.6 1.54 2 1.38 1.45a29.39 29.39 0 0 1 .33-10.24 100.24 100.24 0 0 1 9.41-21.32c3.91-6.21 7.35-8.43 7.35-8.43a24.85 24.85 0 0 0 1 2.43 2.88 2.88 0 0 0-.86.9 3.05 3.05 0 0 0-.18 1.85c.25.9 1.59 4.09 1.59 4.09s-.29 7.58-.51 11.15-1.27 5.36-1.74 5.61-1.54-4.34-1.74-4.31-.49 1.76-.29 3.33a19.43 19.43 0 0 0 1.66 4.89c.58 1.27-.33 12.56-.83 15.27s.07 6-4 6.55-11.94-1.36-12.6-1.66-1.5-.36-1.92-1.63 1.81-10.51 1.95-9.91zm14.66 38.51a15.55 15.55 0 0 0 1.38 6.12c.84 2.07.56 1.9.54 1.88-1.56.9-3.55-2.62-3.8-3.08s-.38-2-.94-1.85-1 1.92-1 4.42.85 3 2 4.09 2.15 1.45 1.48 1.85-1.92.13-3-.51-3.49-2.37-3.91-3.66-.89-2.93-1.45-3.4-.85-.24-.43.29a4.11 4.11 0 0 1 .51 2.14c0 .49.54 1.41.36 1.3a8.23 8.23 0 0 1-1.48-2.24A17 17 0 0 1 121 159a25.12 25.12 0 0 1 1.57-5.63 21.29 21.29 0 0 0 7.84-.15 7.53 7.53 0 0 0 .86 1.26c.73.72 1.27 3.7 1.14 5.26zm.94-8.87a10.79 10.79 0 0 1-3.42 1.34 18 18 0 0 1-7.73-.22 2.18 2.18 0 0 1-1.88-2.1 5 5 0 0 1 0-1 21.17 21.17 0 0 0 9.37-.4 25.27 25.27 0 0 0 3.62-1.16s.42 3.11.04 3.56zm.62-5.57c-2.8 2.15-9.11 3.11-12.6 2.68-6.3-.78-8.18-3.24-8.86-4.46-1-1.77.8-4 1.4-4s2.12 1.5 4.78 1.66 3.15-.49 2.86-.76-.2.34-3.73-.51-4.11-2.48-4.38-4.09a4.35 4.35 0 0 1 1.16-3.15 3.88 3.88 0 0 0 1.45 1c1 .42 7.28 2.37 11.08 2.24s6-.71 6.44-.25.52 1.77.33 3a2.92 2.92 0 0 0 0 1.66 13.35 13.35 0 0 1 .62 2.93 3.18 3.18 0 0 1-.52 2.07zm1.14-5.59c0-.75.5-1.69.59-3.27s-.56-2.07-.83-2.83.78-3.82 1.16-6.57.94-16.2.94-16.2c1.25-3 1.86-8.18 2.14-10.32s.19-7.49.48-8 1.51-.73 3.16-1.07c.88-.18 2.52-.53 2.63-.18s1.82 4.34 2.68 5.07c1.4 1.18 5.14 1.32 7.13 1.34s16.45 0 20.34-.22 4.06-.34 5.23-1.51c.85-.85 1-6.93 1.25-7.49.14-.28 2.47-.12 2.47-.12s2-.06 2 1.11-.1 5.89 0 7.74c.13 3.79 1.2 4.41 2.25 5.48a19 19 0 0 1 3.4 4.43c.44 2 1.12 4.95 1.18 6.06.09 1.47.4 4.78.4 4.78 0 2.05.15 4.63.2 5.45.12 1.71 1.6 10.85 1.56 14.67 0 .67-.09 3.06-1.61 3.68-.61.25-5.44 2.7-19.36 3.43s-34.19-2-35.36-2.21c-1.32-.24-2.52-.28-3.24-1.27a4.81 4.81 0 0 1-.79-1.97zm59.23 7.11c-1.34.94-6.1 1.9-8.83 2.5a178.53 178.53 0 0 1-21.75 1.45c-6.19-.09-25-1.65-26.46-2.61s-2.14-1.81-1.34-3 1.92-.63 2.79-.43 15.57 1.71 21.54 2a145.38 145.38 0 0 0 24.71-1.12 46.42 46.42 0 0 0 9.16-2.46c.8-.24 1 .64 1 .64s.52 2.11-.82 3.05zm-55.15 42.91c-.19-1.4-.43-8.37-.12-9.5a2.79 2.79 0 0 1 1.17-1.6c.27-.31-.27-.43-.66-1.17a24.27 24.27 0 0 1-1.29-4.52 8.53 8.53 0 0 1-.12-1s-1-3.71-1.29-4.85a60.85 60.85 0 0 1-1.16-7.35c0-1.59-.38-5.5-.18-7.56s1.08-1.6 2.17-1.56c.89 0 4.54.49 9.34 1 3.51.39 16.63 1 24 .81a96.48 96.48 0 0 0 13.9-1.35s7-1.45 8-1.81 2.1-.62 2.21.69-1.1 18.77-1.56 20.27a41.53 41.53 0 0 1-1.48 5.07 9.2 9.2 0 0 1-1.63 2.86s-.35.37.51.83c.67.36.63 2.81.6 4.45 0 0 .09 6.32-.05 9.59s-.71 10.33-.76 11.84a35.77 35.77 0 0 1-.54 5.07c-.16.31-1-.56-2.39-.8s-8.56.87-10.46.83a46.55 46.55 0 0 1-7-.43 9.35 9.35 0 0 0-2.23-.33s-.55-11.09-.52-12.16-.1-5.19-.54-6a69.36 69.36 0 0 1-1.32-11.19c0-2.36.09-6.55.23-10.1.18-.27-.12-7.36-.12-8.85s-.05-1.85-.4-1.79-.41 4.51-.81 4.54-1.34-2.15-1.88-2.15.22 2.23.65 3.47a29.15 29.15 0 0 1 .67 4.78c.06 4.26-.09 11.74-.09 13.13 0 1.13.06 4.74-.26 8.15a36 36 0 0 0-.93 6.88c0 2.57.18 10.59-.4 11.47a2.09 2.09 0 0 1-2.17 1.09c-1.09 0-11.08-.8-11.91-.83s-4 0-4 0-3.09-.14-4.05.47c0 0-.49-9.84-.6-11.33-.05-2.95-.34-7.65-.53-9.04zm29.41 20.9a56.49 56.49 0 0 0 5.79.69c2.48.09 8.65-1.07 9.74-1.09s4.13-.43 5.57.72c0 0 1 .45.65 2.43a21.82 21.82 0 0 1-.72 2.06c-.3.66-.52 1-1 .81a5.85 5.85 0 0 0-4.54-2.84c-2.84-.33-9.84 1-9.84 1-3.17.45-5 .85-5.18.58a6.27 6.27 0 0 1-1.16-2.75c.02-1.01-.16-1.68.69-1.59zm-28.49 1.16c.33-.65 1.7-.92 3.08-1a40.09 40.09 0 0 1 6.08-.25c1.18.25 8.94.94 10.28 1.19s3.07-.25 3.5.7a11.73 11.73 0 0 1-.42 1.83c-.25.6-.36 1.09-2.61 1s-8.36-1.45-11.29-1.74-5.57 1.52-6.37 1.92-1.74.89-1.66.29.9-.71.4-1.74-1.31-1.53-.98-2.18zm-1.68 10.57a8.1 8.1 0 0 1 2.48-3.6l2.75-2.55a7.3 7.3 0 0 1 4.74-1.3c1.43.16 8.67 1.27 9.84 1.38s4 .42 4.63 1.45a17.53 17.53 0 0 1 1.16 5.77 18.76 18.76 0 0 1-.07 2.32c-.05.85-.65 1.14-1.59 1.34 0 0-2.67.15-3 .2-.93.16-10.5.27-10.5.27a28.63 28.63 0 0 1-5.07-.63 27.6 27.6 0 0 1-3.13-1c-2.85-1.4-2.23-3.64-2.23-3.64zm25.6 7.8c-.11.13-.29 1.19-3.43 1.66a76.25 76.25 0 0 1-8.19.45c-6.07-.09-9.28-1.12-10.07-1.42-.27-.1-4.36-1.51-4.55-4.94v-.12a7.84 7.84 0 0 0 3.13 1.86c0 .06 2 .54 2 .56a23.65 23.65 0 0 0 6.44.89c0 .06 11.22.33 14.28-.66a4.39 4.39 0 0 0 .8-.34 2.19 2.19 0 0 1-.44 2.08zm1.35-9.76a18.74 18.74 0 0 1-.83-4.56c0-1.25.05-5.16 0-5.28s.22-6.19.11-7.64-.14-4.74-.14-6.08a40.9 40.9 0 0 1 .83-5.54c0-.17.07-.32.1-.43a19.48 19.48 0 0 1 .7 4.63c.05 2.5 0 13.1 0 14.48s0 6.15.43 6.88a5.55 5.55 0 0 0-.83 2c-.13 1.03-.15 1.72-.37 1.56zm.93 4.33a18.87 18.87 0 0 1 .19-3.13 10 10 0 0 1 .58-2.75c.47-1.21 2-1.86 2.32-2.1a13.45 13.45 0 0 1 3.4-.9c3-.62 7.38-1 8.83-1.23s4.65.51 5.36 1.27 1 1.88 2 2.46 3.31 3.17 3.55 4.14a2.79 2.79 0 0 1 0 2c-.73 1.39-5.52 2.9-8.66 3.06s-14.66.91-16.65-1.25a3 3 0 0 1-.92-1.55zm2.75 6.71c-1.32-.28-2-1.24-2.37-3v-.2a4.5 4.5 0 0 0 .49.14l.4.11s2.12.49 10.28.47 9.52-.52 10.31-.65a21.3 21.3 0 0 0 4.2-1.52 4.86 4.86 0 0 0 1.14-.86s.43 2.73-1.36 3.93a35.45 35.45 0 0 1-8.28 2.21s-10.56.28-14.81-.61zM187.7 247a.49.49 0 0 1-.58.12c-1.43-1.4-5.23-5.16-6-6.17a5.83 5.83 0 0 1-1.65-3.5 4.71 4.71 0 0 1 0-.71l8.42 8.81a3.18 3.18 0 0 1-.19 1.45zm-5.56-8.48c-.61-.69-1.71-1.62-1.85-2.4s0-1 .43-1.3c.65-.33 2.25-1 3.37-1.37 1.47-.6 3.52-1 6-1.8l16.26-5.07v1.54c-1.24.45-7.91 2.53-8.46 2.84 0 0-12.05 3.67-13 4-1.7.58-1.8 1.22-1.48 2s4.69 4.75 5.3 5.27a3.35 3.35 0 0 0 2.63.35c.93-.17 40.65-13.08 41.87-13.67s1.25-1.12 1-1.53a37 37 0 0 0-4.08-3.94c-1.07-.81-1.77-1.22-2.58-1s-16.24 4.11-16.86 4.29v-1.41c2.32-.62 15.21-4.08 16-4.19a5.92 5.92 0 0 1 2.29 0c.49.17 8.69 5.7 9.32 7.53 0 .09.26.8-1.39 1.33-1 .33-43.87 14.25-44.91 14.68s-2.83.63-3.62.09c-.63-.45-5.63-5.52-6.24-6.22zm55-5.76c-1.75.6-45.54 14.74-47.17 15.09a3.5 3.5 0 0 1-1.29 0 1.39 1.39 0 0 1-.1-1.43c.26-.52 1.19-.69 2.19-.84s44.92-14.19 45.68-14.48a17.84 17.84 0 0 0 2.3-1 2.34 2.34 0 0 1-1.65 2.68z" fill="#692f23"/><path d="M114.52 36.59s-.7-7.14 1.91-11.31a76.16 76.16 0 0 1 7.31-9.22s5.74-3.66 6.27-4l5.4-3.66a71.23 71.23 0 0 1 8.35-4.18c2.61-.87 8-4.18 12.53-3.31s9.57-.35 10.09 0 1.74.7 4.53 1.22S180 3.52 182.4 4.22s11.49 6.09 12.36 6.79 9.92 10.44 11.84 13.58 9.22 8 6.09 27-33.59 24.37-33.59 24.37a5 5 0 0 1-2.27 0c-.79-.22-.84-.67-1-.88l.52-4.18s10.09-7.66 11-8.7 6.61-7.66 7.31-10.44c0 0 3.89-2.78 4.24-4.41s.46-4.64-.81-5.22a12.47 12.47 0 0 0-2.9-.81 29.14 29.14 0 0 0-8.35-8.35c-5.11-3.13-3.6-2.9-3.6-2.9a37.47 37.47 0 0 1-6.5 1.16 56.84 56.84 0 0 1-7.89-1.39l-7.19 2-6 1.39L153 20.52a11.36 11.36 0 0 0-2 2.55 57.43 57.43 0 0 0-1.39 6.73c-.12 1.16-1 2.2-2 1.86a18.51 18.51 0 0 1-5.73-1.22s-7.84.87-10.4 3.2-4.24 8.7-4.24 8.7-1.91-.23-2.72.93a5.7 5.7 0 0 0-.12 4.76c.58.81 1.62 2.91 2.54 2.91a5.06 5.06 0 0 1 2.21.92s7.43 11.6 8.7 12.3 8.24 6.38 9.4 7S149 72.5 149 73s1.62 3-1.16 3.13-7.89-.23-7.89-.23-8.24-2.9-10.91-5-9.75-8.59-12.07-12.3-4.87-8.93-3.95-12.65.23-7.43.81-7.66.69-1.7.69-1.7z" fill="#df7c3c"/><path d="M152.35 21.19a7.24 7.24 0 0 0-2 4c-.26 2.35-1 5.74-1 5.74a9.28 9.28 0 0 1-3.36.66 5.71 5.71 0 0 1-3.74-1.42 47.46 47.46 0 0 0-5.43 1.45c-.78.44-5.92 2.52-6.61 4.26s-3 5.92-3 5.92-2.44.7-2.44 1-1.57 2.26-.52 4.35 1.57 3.74 3.74 4.53 4.35 4.53 4.61 5.57 8.44 9.75 8.88 10 7.13 4.46 11.75 5.4a39.53 39.53 0 0 0 14.53.35 49.44 49.44 0 0 0 9.4-2.78c1.91-.87 8.88-6.7 9.22-7s5.31-5 5.91-6.85a29.59 29.59 0 0 1 2.27-4.55s3.13-2.63 3.48-3.13c.61-.88 1.57-3.92 1.13-4.87a4 4 0 0 0-2.35-2.26c-1-.17-1.71-.07-2.15-.59s-2.72-3.32-4-4.8a77.22 77.22 0 0 0-6.44-5.4l-1.1-.77a8.76 8.76 0 0 1-4.67 1.25 23.46 23.46 0 0 1-7.4-1.13c-1.13-.52-3.31.09-3.83.35s-6.35 1.31-6.35 1.31l-5.37 1.36s-.29-2-.29-2.23-1.91-8.62-1.91-8.62z" fill="#f4dbc1"/><path d="M116.45 34.07a21 21 0 0 0-2.61 5.37c-1.27 3.92-.88 6.74-.28 10.29a39.38 39.38 0 0 0 2.09 7.57 23.94 23.94 0 0 1 8.27-25.15v-4.78a24.59 24.59 0 0 0-3.31 2.18 22.23 22.23 0 0 0-4.16 4.52zM153 12.33c-.26.91-.39 1.62-.46 1.95.22-.74.38-1.39.46-1.95zM152.58 14.28l-.05.2a.84.84 0 0 0 .05-.2z" fill="#e69b5f"/><path d="M184.59 8.55a35.22 35.22 0 0 1 4.89 2.4 24.27 24.27 0 0 0-9.8-7.19c-1.88-.72-6-2-6.55-1a1.18 1.18 0 0 0-.1.66 8.81 8.81 0 0 0-2.21-1c-.29-.07-1.92-.64-3.62-1.26a7.4 7.4 0 0 0-3.34-.26c-1.37.13-2.62.37-2.62.37s-3.77.07-5.77.27c-10.73 1-15.69 3.58-18 5a41.4 41.4 0 0 0-4.66 3.78S126.58 14 125 15.25c-10 7.53-10.11 15.38-10.61 17.94a13.08 13.08 0 0 1 11.14-10c.29-.85 2.24-4.94 5-5.92a7.37 7.37 0 0 1 2.6-.44c-.65 1.36-1.23 2.43-1.64 3.17a11.75 11.75 0 0 0-1.22 2.61c-.16.53-.53 1.92-.29 2s1.64-2.92 3.71-5.69c3.13-4.18 9-8.91 12.94-7.31a4.88 4.88 0 0 1 2.26 2 6 6 0 0 1 2.49-3.42c.27-.17 1-.43 1.39-.06.79.73.37 5.88.29 7.6a23.11 23.11 0 0 0 1.91 10.33 13.67 13.67 0 0 1-.52-6.9c.32-1.64 2.77-12.09 9.24-12.88 5.91-.72 8.42 4.38 8.68 5.1a13.82 13.82 0 0 0 0-3.89c-.06-.4-.13-.77-.21-1.13 1.4-.65 2.84-.2 4.46.66a19.56 19.56 0 0 1 7.53 7.9 15.89 15.89 0 0 0-3-6c-1-1.25-2.28-3-2.28-3a9.21 9.21 0 0 1 5.72.63z" fill="#e69b5f"/><path d="M146 59.28c0-.47.33-.78 1.19-.78 1.62 0 2.71 1.27 5.79 2.38a16.51 16.51 0 0 0 2.13.6 20.92 20.92 0 0 0 3.46.41 26.46 26.46 0 0 0 4.57-.07 16.35 16.35 0 0 0 5.77-1.39 31 31 0 0 0 4.72-2.51 2.7 2.7 0 0 1 1.11-.44 1.52 1.52 0 0 1 1 .15c.24.14.37.21.42.49a.6.6 0 0 1-.8.59c-.58-.23-.27-.56-.39-.6-.58-.18-1.21.3-1.7.66a35.63 35.63 0 0 1-4.18 2.52 14.63 14.63 0 0 1-3 1.13 21 21 0 0 1-4.92.74 23.42 23.42 0 0 1-7.67-1.06 14.58 14.58 0 0 1-3.66-1.67 21.62 21.62 0 0 0-2.22-1.43c-.12 0-.3-.11-.53.16s-.22.56-.44.58a.49.49 0 0 1-.65-.46z" fill="#692f23"/><path d="M192.37 55.91a.75.75 0 0 0 0 .13l.41-.74a1.09 1.09 0 0 0-.41.61z" fill="#5c211b"/><path d="M141.53 43.72a7.09 7.09 0 0 1 2.67-2.37c1.52-.62 4.35-1.3 6-.59a8.11 8.11 0 0 1 3.56 3.43c.22.73.49 1.14-.12 1.31a28.63 28.63 0 0 0-3.16.36 14.35 14.35 0 0 1-4.47.43c-1.48-.1-4.19-.69-4.48-2.57z" fill="#fff"/><path d="M144 42.59s-.13 1.86.75 2.65a4.88 4.88 0 0 0 3.2.95 2.89 2.89 0 0 0 2.39-.93c.39-.67 1.18-2.73-.23-3.82a4.77 4.77 0 0 0-3.79-.9 2.77 2.77 0 0 0-2.32 2.05z" fill="#88cceb"/><path d="M154.51 44.83c-.06-.14-.55-.94-.72-1.21a10.48 10.48 0 0 0-1.88-2.09 8.63 8.63 0 0 0-1.71-1 5.21 5.21 0 0 0-2-.4 13.26 13.26 0 0 0-2.58.12l-.41.09c-.22.06-.38.12-.49.16a9 9 0 0 0-1.8.8 7.22 7.22 0 0 0-.84.62 5.57 5.57 0 0 0-.62.58 3.25 3.25 0 0 0-.81 1.32 3.84 3.84 0 0 0 1.91 1.93 6.28 6.28 0 0 0 2.65.67 16.15 16.15 0 0 0 3.57.05 13.06 13.06 0 0 0 2.36-.45c.38-.09 1.09-.24 1.2-.26 1.21-.12 1.73.15 2.08-.17a.71.71 0 0 0 .09-.76zm-2.49.42a12.68 12.68 0 0 0-2.62.47 12 12 0 0 1-5.21 0 3.5 3.5 0 0 1-1.33-.59 2.44 2.44 0 0 1-.74-.68c-.12-.19-.33-.73-.18-.92a3.39 3.39 0 0 1 .81-1 4 4 0 0 1 2.33-1.35c.34 0 1.35-.19 3.45-.25a2.31 2.31 0 0 1 1.09.07 8.66 8.66 0 0 1 1.58 1 7.27 7.27 0 0 1 1.8 1.68s.68.86.61 1.25-1.44.3-1.61.32z" fill="#692f23"/><circle cx="147.65" cy="42.97" r="2.14" transform="rotate(-78.95 147.653 42.97)" fill="#692f23"/><path d="M151.33 42.31a2.53 2.53 0 0 0-1.51-1.6 2.48 2.48 0 0 0-1.26 0 2.1 2.1 0 0 0-.46.16c-.07 0 .64.38.64.38a1.64 1.64 0 0 1 .83.14 1.54 1.54 0 0 1 1 1.31 3.72 3.72 0 0 1-.09 1.42 2.57 2.57 0 0 1-.9 1.23 3.92 3.92 0 0 1-2.75.4 2.61 2.61 0 0 1-1.51-.83 2.43 2.43 0 0 1-.67-1.46 2.79 2.79 0 0 1 .14-1.33 1.3 1.3 0 0 1 .44-.63c.37-.27 1.11-.33.92-.08s2.24-.79-.64-.61a4.1 4.1 0 0 0-.88.35 3 3 0 0 0-.66 2 2.71 2.71 0 0 0 1.39 2.62c1.32.8 4.93.09 5.35-.43l.12-.16a4 4 0 0 0 .5-2.88z" fill="#692f23"/><circle cx="148.88" cy="42.04" r=".75" transform="rotate(-78.95 148.883 42.046)" fill="#fff"/><path d="M180.64 43.83a7.09 7.09 0 0 0-2.64-2.42c-1.51-.64-4.33-1.38-6-.69a8.11 8.11 0 0 0-3.62 3.36c-.23.72-.51 1.13.1 1.31a28.63 28.63 0 0 1 3.15.42 14.35 14.35 0 0 0 4.47.51c1.5-.07 4.22-.62 4.54-2.49z" fill="#fff"/><path d="M178.17 42.65s.1 1.86-.8 2.64a4.88 4.88 0 0 1-3.21.89 2.89 2.89 0 0 1-2.38-1c-.38-.68-1.13-2.75.3-3.81a4.77 4.77 0 0 1 3.81-.83 2.77 2.77 0 0 1 2.28 2.11z" fill="#88cceb"/><path d="M167.74 45.44c.35.33.87.06 2.08.21.1 0 .82.18 1.19.28a13.06 13.06 0 0 0 2.35.49 16.15 16.15 0 0 0 3.57 0 14.07 14.07 0 0 0 2.25-.38 3.75 3.75 0 0 0 1.63-1c.65-.73.65-1.25.63-1.31a3.08 3.08 0 0 0-.68-1.14 5.57 5.57 0 0 0-.61-.59 7.22 7.22 0 0 0-.83-.64 9 9 0 0 0-1.79-.84c-.1 0-.27-.1-.49-.17l-.41-.1a13.26 13.26 0 0 0-2.58-.16 5.21 5.21 0 0 0-2 .36 8.63 8.63 0 0 0-1.73 1 10.48 10.48 0 0 0-1.92 2.06c-.17.27-.67 1.06-.74 1.2a.71.71 0 0 0 .08.73zm.83-.62c-.06-.39.64-1.24.64-1.24a7.27 7.27 0 0 1 1.79-1.73 8.66 8.66 0 0 1 1.6-.93 2.31 2.31 0 0 1 1.09-.05 20.68 20.68 0 0 1 3.4.31 4 4 0 0 1 2.35 1.39 4.27 4.27 0 0 1 .76 1.07 1.42 1.42 0 0 1-.16.83 1.89 1.89 0 0 1-.67.76 4.26 4.26 0 0 1-1.47.54 11.76 11.76 0 0 1-5.16-.09 12.68 12.68 0 0 0-2.61-.52c-.13 0-1.52-.07-1.56-.34z" fill="#692f23"/><circle cx="174.69" cy="42.96" r="2.14" transform="rotate(-10.05 174.666 42.979)" fill="#692f23"/><path d="M171 42.23a2.53 2.53 0 0 1 1.53-1.57 2.48 2.48 0 0 1 1.26.07.74.74 0 0 1 .34.12l.15.07h-.22l-.69.39a1.37 1.37 0 0 0-.61.08 1.54 1.54 0 0 0-1 1.29 3.72 3.72 0 0 0 .06 1.43 2.57 2.57 0 0 0 .88 1.25 3.92 3.92 0 0 0 2.75.45A2.61 2.61 0 0 0 177 45a2.43 2.43 0 0 0 .7-1.45 2.79 2.79 0 0 0-.11-1.33 1.46 1.46 0 0 0-.32-.6.88.88 0 0 0-.6-.31 1.08 1.08 0 0 0-.71 0c-.13 0-1.68-.62 1-.42a3.63 3.63 0 0 1 .84.36 2.52 2.52 0 0 1 .63 2 2.79 2.79 0 0 1-1.43 2.61 3 3 0 0 1-2.18.52l-1.95-.14a3 3 0 0 1-1.22-.91l-.12-.16a3.94 3.94 0 0 1-.53-2.94z" fill="#692f23"/><circle cx="176.21" cy="42" r=".75" transform="rotate(-10.05 176.183 42.023)" fill="#fff"/><path d="M213.66 42.56c-.32-6.51-1.22-9.86-2.67-12.33-1.9-3.24-7-10.85-9.53-13.35a74.77 74.77 0 0 0-10.17-9s-4.8-3.45-8.23-4c-.14 0-1-.15-2.09-.39-1.61-.34-1.72-.45-2.87-.7a33.25 33.25 0 0 0-4.54-.61l-2.21-.39a14.78 14.78 0 0 0-1.6-.68 5.35 5.35 0 0 0-2.08-.21c-.47 0-1-.28-1.74-.32a20.3 20.3 0 0 0-2.41 0c-1.29.07-1.44.41-2.48.42s-1.1-.2-2.27-.26c-1-.06-2.38.1-3.57 0a16.43 16.43 0 0 0-7.32 1.32 24 24 0 0 0-10.31 4 37.41 37.41 0 0 0-4.67 3.35c-1.45.85-2.93 1.74-4.42 2.7s-2.72 1.78-4 2.67a24.84 24.84 0 0 0-7 7.45 30.46 30.46 0 0 0-3.83 13.23s0 .37-.11 3.29c-.09.27-.19.54-.27.82a22.9 22.9 0 0 0-.51 10.37 30.77 30.77 0 0 0 2.9 8 37.28 37.28 0 0 0 7.28 8.47 65.86 65.86 0 0 0 10 7 39.07 39.07 0 0 0 7.56 2.86 14.46 14.46 0 0 0 1.76.35l-.83.35a2.35 2.35 0 0 1 1.57 1.41c1.16-.4 3.47-1.26 3.47-1.26l1.94-.65a4.92 4.92 0 0 1 1.33.58 14.18 14.18 0 0 0 2.54 1.14 28.06 28.06 0 0 0 3.16 1.11c.31 0 .7.31 6.61.39 2.5 0 7.06-.68 7-.23l.27 1.62a3.86 3.86 0 0 1 1.94-2.75 30.33 30.33 0 0 1 4.39-1.75 6.34 6.34 0 0 1 3.6.1s.65.26 1.67.56c0 0 1.22-.59 1.9-.85.31-.1.82-1 1.6-1.26 0 0 1-.22 1.77-.42 2.08-.56 2.27-.6 3.54-1a22.38 22.38 0 0 0 2.61-1 35.47 35.47 0 0 0 4.3-2.35c6.25-3.94 9.18-5.9 9.61-6.31a24.49 24.49 0 0 0 6.43-10.88 29.09 29.09 0 0 0 .98-10.61zM173.57 2.87a21.72 21.72 0 0 1 6.52 1.69 36.13 36.13 0 0 1 12.41 10.35c5.65 7.62 6.18 13 6.59 15.27a16.6 16.6 0 0 1 .06 4.2 20.09 20.09 0 0 1-1.71 6.55 2.77 2.77 0 0 0-2.1-.3c-.19 0-.49-.39-1.51-2a16.9 16.9 0 0 0-3.84-4h.74a8.07 8.07 0 0 1 3.48.82c.53.27 2 1.58 2 1.48s-.28-.76-.79-1.29a5.44 5.44 0 0 0-2.54-1.39 24.05 24.05 0 0 0-4.53-.89c-1.65-1.36-3.75-3.41-4-3.63a.35.35 0 0 1-.09-.33 5.28 5.28 0 0 0 .66-1.4 15.24 15.24 0 0 0 .63-6.71 17.54 17.54 0 0 0-.49-3.83c-.32-1.21-.9-2.68-3-5.66a36.43 36.43 0 0 0-5.83-6.88s-1.26-1-3-2.05c-.01-.06.27-.01.34 0zm-9.86-1.28a10.64 10.64 0 0 1 2.79-.06 4.81 4.81 0 0 1 2.06 1.26 11.69 11.69 0 0 1 2.89 4.66 16.28 16.28 0 0 1 .52 7.73c0 .14.06.21.13.15a.55.55 0 0 0 .11-.22 16.69 16.69 0 0 0 .55-4.22 22.21 22.21 0 0 0-.23-2.51A14 14 0 0 0 170.4 3l1.1.48a19 19 0 0 1 3 1.76 30.31 30.31 0 0 1 5 4.82 22 22 0 0 1 4 6.2 18 18 0 0 1 1 8.82c-.22 2.47-.77 3.65-1.67 4.39a5 5 0 0 1-1.86.86 17.7 17.7 0 0 1-5.29.57 22.85 22.85 0 0 1-5.34-1.29 5.09 5.09 0 0 0 1.38-2.19 7 7 0 0 0-.19-4.1c-.12-.38-.64-1.56-1.06-1.77s-.2.31-.18.34a8 8 0 0 1 .67 4.82 4.8 4.8 0 0 1-1.91 2.43c-1.78 1.37-3 .9-6.25 1.72-3.86 1-5.31 1.68-6.55 1.59-.14 0-.4 0-.46-.64-.08-1-.22-1.92-.39-2.87-.44-2.42-1.69-5.73-2.13-8.78-.86-5.88 2.64-12.09 3.47-13.25 2.15-3 3.24-3.35 5-4.61a7.35 7.35 0 0 1 1.97-.71zm-29.55 9.57a18.62 18.62 0 0 1 5.84-4.9c.95-.5 3.9-2.41 4.57-2.2a24.57 24.57 0 0 0-4.73 3.42 35.36 35.36 0 0 0-5.7 6.61 29.85 29.85 0 0 0-4 8.38 14.06 14.06 0 0 0-.64 4.07c.14 0 1.1-3.7 2.83-7a28.49 28.49 0 0 1 2.57-4.19 42.17 42.17 0 0 1 6.35-7.11c2.35-2.1 7.44-5.09 9.34-5.59a25.53 25.53 0 0 1 5.59-.51c.76 0-2.18.77-4.46 3.78A17.45 17.45 0 0 0 148 14.2c-.38 2.55 0 3.32 0 3.32A23.07 23.07 0 0 1 152.57 7 13.5 13.5 0 0 1 158 2.64a12 12 0 0 1 3-.83 10.82 10.82 0 0 0-1.31.62 13.41 13.41 0 0 0-5.29 6.2 20.07 20.07 0 0 0-2.11 8.37 14.87 14.87 0 0 0 0 2.95 8.2 8.2 0 0 0-1.21 1.33 11.62 11.62 0 0 0-1.48 4c-.21 1.17-.33 4.47-.52 5s-1.39.66-2.85.7c-.73 0-2.09.1-2.38-.68a4.47 4.47 0 0 0 1.29-1.57 9.43 9.43 0 0 0 .51-2.73 24.64 24.64 0 0 1-1.21 2.22 4.77 4.77 0 0 1-2.67 1.65c-.89.25-3 .59-4.39 1a17.31 17.31 0 0 0-5.52 2.23c-1.25.81-3 3.35-3.85 5.3a1.76 1.76 0 0 1-2.16-.41 6.13 6.13 0 0 1-1.25-3.62 26.37 26.37 0 0 1-.19-6.24c.2-2.78 1.41-5.13 3.23-8.59 2.01-3.83 4.85-6.27 6.52-8.39zM115.19 32c.07-1.86.72-3.3 1.68-5.83a23.84 23.84 0 0 1 7.66-10 66.24 66.24 0 0 1 8.33-5.35A51 51 0 0 0 127 18.3c-2.44 4.53-3.23 7.28-3.37 8.33-1.86.83-5.78 4-8.54 8.73a15.11 15.11 0 0 1 .1-3.36zm21 41.94a37.78 37.78 0 0 1-6.23-3.46 36.17 36.17 0 0 1-10.3-9 27.56 27.56 0 0 1-4.82-8.25 22.59 22.59 0 0 1-1.33-7.77 19.43 19.43 0 0 1 5.27-13.08 24.29 24.29 0 0 1 4.6-4 29.67 29.67 0 0 0-.09 3.13 22.56 22.56 0 0 0 .7 5.17 4.4 4.4 0 0 0 .24.77 14.53 14.53 0 0 0-3.35 4.7 21.78 21.78 0 0 0-1.68 8.12 43.06 43.06 0 0 0 .43 4.69c.25 1.59 1.06 5.2 1.44 5.49s-1.1-7.23-.21-12.25 2-6.63 2.71-7.54A11 11 0 0 1 125 39a1.89 1.89 0 0 0 .21.19 3 3 0 0 0 2.17.63 8 8 0 0 0-.52 1.87c0 .08-.09.28-.22.29h-.41a2.78 2.78 0 0 0-.84.16 3.13 3.13 0 0 0-1.62 1.58c-.91 1.74.07 4.36 1.38 6a1.2 1.2 0 0 1 .16.6c0 .77 0 1.78-.1 3.09a14.92 14.92 0 0 0 .42 4.63 16 16 0 0 0 1.8 3.88 37.87 37.87 0 0 0 3.55 5c3.57 4.33 3.73 4.57 6.15 6.67.71.58-.07.64-.96.32zm12.14.71a1.36 1.36 0 0 1-1 1 9.56 9.56 0 0 1-1.3.31 23.63 23.63 0 0 1-2.81 0 15.23 15.23 0 0 1-2-.45 4.8 4.8 0 0 1-1.2-.57 20.12 20.12 0 0 1-3.34-3.11c-4.39-4.84-7.22-7.91-9.33-12-.83-1.6-1.17-4.27-1-8.19 0-.72.14-.6.15-.64a6.13 6.13 0 0 0 2.29 1.21s1.56 2.81 2.19 3.82a69.23 69.23 0 0 0 5.85 7.7 57.39 57.39 0 0 0 10.35 7.75 2.1 2.1 0 0 1 .9 1.21 7.39 7.39 0 0 1 .23 1.93zm1.16-1.85s0-.54.29-.37c.62.19 1.43.53 2.09.69l-2 1.55c-.28-1.34-.4-1.9-.4-1.9zm3.15 4.17a6.73 6.73 0 0 1-2.21-1.49s2.85-2.08 2.88-2.08l2.61 4.51a10 10 0 0 1-3.3-.96zm4.32.57c-.13-.27-1.52-2.84-2.09-4a24 24 0 0 0 4.91.34c-.5.69-2.7 3.93-2.84 3.64zm3.12.74c-.76 0-1.43-.09-2.07-.14.88-.94 2.8-4 3-4s3 3.05 3.81 3.91a31.24 31.24 0 0 1-4.76.21zm5.5-.95c-.28 0-2.84-2.79-3.42-3.4 1.18 0 2.21 0 3-.08 1.24-.1 2.08-.25 3-.39-.6.85-2.31 3.83-2.6 3.85zm5-.43a41.35 41.35 0 0 1-4.15 1c.69-.69 2.72-4.47 3.08-4.55s2.39 2.4 2.85 2.92a15.16 15.16 0 0 1-1.8.61zm4.21-2.05a4.22 4.22 0 0 1-1.49.88 6 6 0 0 1-1.15-1.21c-.44-.52-1-1.18-1.3-1.52a11.49 11.49 0 0 0 4-1.39zm-2.51-3.31a35.05 35.05 0 0 1-11.66 1.57 32.37 32.37 0 0 1-6.32-.46 25.06 25.06 0 0 1-10.85-4.76 41.75 41.75 0 0 1-6.85-6.32 47.35 47.35 0 0 1-6.83-10.27l-1.55-.43a5.25 5.25 0 0 1-2.69-2.12 9.07 9.07 0 0 1-.91-1.6 4.33 4.33 0 0 1-.21-2.55 2.49 2.49 0 0 1 .81-1.36 2 2 0 0 1 1.87-.33 3.28 3.28 0 0 0 .57 0 .53.53 0 0 0 .43-.41.58.58 0 0 0 0-.19 20 20 0 0 1 1.14-3.62c.64-1.91 1.65-3.24 4.13-4.83s5.72-2 7.63-2.61c.45-.15.8-.26 1.09-.33.05.07.56.91 3.24 1.1 3.07.22 4.74-.2 4.7-.76s.31-4.32.59-6.21a8.65 8.65 0 0 1 1.73-3.61 24.86 24.86 0 0 0 1.22 4.28 65 65 0 0 1 1.35 7.58c.05.39.3.44.3.44a3.38 3.38 0 0 0 1.07-.12c.61-.17 1.19-.32 2.12-.64 1.81-.62 4.84-1 6.46-1.44a37.6 37.6 0 0 1 4.39-.91c.38 0 4.48 1.1 6.2 1.29a19.4 19.4 0 0 0 5.72-.29 4.74 4.74 0 0 0 1.83-.83s.88.82 1.78 1.4a32.31 32.31 0 0 1 5.28 3.86c1.3 1.46 4.57 5.87 4.57 5.87 1.14-.64 3.43.13 4.07 2.29.7 2.39-1.48 4.79-1.91 5.28a8.6 8.6 0 0 1-2.61 2 32.76 32.76 0 0 1-5 8.22 36.51 36.51 0 0 1-7.89 6.9 33.64 33.64 0 0 1-9.03 4.89zm7.42 3.13a9.57 9.57 0 0 1-2.67.54.58.58 0 0 1-.54-.38 4.57 4.57 0 0 1-.24-1.94c.11-1.45.6-2.08.86-2.2.45-.29 1.23-.66 1.67-.92a49.92 49.92 0 0 0 7.22-5.23 30.09 30.09 0 0 0 4.46-4.41c.35-.42.65-.86.95-1.28a33.59 33.59 0 0 1-1.09 4.82 17.11 17.11 0 0 1-2.09 4.68 13.15 13.15 0 0 1-2.06 2.59 15 15 0 0 1-4.17 2.92 10.45 10.45 0 0 1-2.32.79zm28.7-16.36a14.88 14.88 0 0 1-4.67 6c-2.78 1.86-6.6 4.1-8 4.93a37.82 37.82 0 0 1-6.48 3.43c-1.43.48-3.74 1.11-5.89 1.76a20.16 20.16 0 0 0 3.53-2.56 17.07 17.07 0 0 0 4.26-6.83 37.54 37.54 0 0 0 1.58-5.57c.25-1.11.38-3.11.47-3.3a19 19 0 0 0 1.69-3.6 11.1 11.1 0 0 0 2.52-2c1.9-1.86 2.31-2.72 2.55-4.62a4.77 4.77 0 0 0-1.5-4.4 17.58 17.58 0 0 0 .8-2.11 30.73 30.73 0 0 0 .82-4.26 21.47 21.47 0 0 0 .21-4.82c-.07-.48-.16-1.51.18-1.28a20.94 20.94 0 0 1 3.94 7.27 26.49 26.49 0 0 1 .55 4.69 32.21 32.21 0 0 1-.18 7.29 28.82 28.82 0 0 1-.63 3.59 12.49 12.49 0 0 1-.9 2.79 10.07 10.07 0 0 1-1.09 1.71c-.78 1-2.63 3-3 3.67a13 13 0 0 0 4.62-4.48 17.49 17.49 0 0 0 2.22-6.72 27.8 27.8 0 0 0 .14-6.46c-.16-1.43.19-.8.2-.8a55.91 55.91 0 0 1 1.77 7.86c.45 3.25.89 6.85.29 8.82zm2.6-3.87a11.38 11.38 0 0 1-1.14 2.67c.35-2.06 0-4.81-.47-8a48.7 48.7 0 0 0-2.27-8.95c-.73-2.07-1.65-6.27-4.45-10a54.12 54.12 0 0 1-3.94-6.57c-.39-.78-.81-1.88-1.53-3.4a22 22 0 0 0-2.87-4.6c-1.43-1.89-2.1-2.85-3.06-3.9a33.57 33.57 0 0 0-5-4.43 23.48 23.48 0 0 0-2.32-1.45c-.33-.4 1.56.16 2.47.64a48.68 48.68 0 0 1 11 8.15 45.18 45.18 0 0 1 8.77 10.79c2 3.3 3.67 5.34 4.57 7.77a24 24 0 0 1 1.48 6.55c.33 3.84.64 9.29-1.24 14.73z" fill="#692f23"/><path d="M161.19 65.92a25.41 25.41 0 0 0 4.64-.42c.41-.1.73-.21.8-.08s.06.22-.2.41a10.78 10.78 0 0 1-5.38 1.17c-3.24 0-4.57-1.25-4.57-1.25s-.18-.16-.06-.32.29-.06.62 0a12.66 12.66 0 0 0 4.15.49zM161.46 53.83a6.18 6.18 0 0 0 2.23-.29c.88-.26 1-.34 1.13-.29s-.22 1.16-2.69 1.45a4.2 4.2 0 0 1-3.86-1.16s-.41-.55.43-.19a6.19 6.19 0 0 0 2.76.48zM169.86 34.36c.55-.23 1.72-.87 6-.4a12.2 12.2 0 0 1 5.47 2.63c.59.65.25.71.25.71a29.06 29.06 0 0 0-5-1.88 16.53 16.53 0 0 0-4.73-.32 7.74 7.74 0 0 1-2.23.22c-.36-.13-.28-.74.24-.96zM150.66 34.43c-.55-.23-1.72-.87-6-.4a12.2 12.2 0 0 0-5.47 2.63c-.59.65-.25.71-.25.71a29.06 29.06 0 0 1 5-1.88 16.53 16.53 0 0 1 4.73-.32 7.74 7.74 0 0 0 2.23.22c.37-.13.29-.74-.24-.96z" fill="#692f23"/></g></svg>