<svg xmlns="http://www.w3.org/2000/svg" width="300" height="250" viewBox="0 0 300 250"><g data-name="Слой 2"><path fill="none" opacity=".48" d="M0 0h300v250H0z" data-name="Слой 24"/><g data-name="Слой 26"><path d="M111.05 42s-.56 5.77-2.32 7.22-3.13 2.41-3.13 5 .48 4.89 2.65 5.77a4.4 4.4 0 0 1 2.08 1.2c.56.8 4.25 7.54 8.34 11.3s16 7.46 16 7.46c.56.08.08 3.77.72 5.21s3 3.53 7.7 3.29 5.85-.64 6.81-2.65a10.44 10.44 0 0 0 .56-5l9.06-3.45c3-1.36 12.67-9.14 12.67-9.14 2.16-2.81 4-7.38 4.41-7.86s3.85-1 4.33-1.36 1.12-2.73.8-4.41a3.87 3.87 0 0 0-2-2.49s-2.32-1-3.29-6-3.93-6.81-5.29-7.22-10.66-1-10.66-1c-.4 0-1.52-.88-2.32-3s-5.45-11.3-5.45-11.3c-1.84-2.16-.56 6.17-.8 8.74s.56 4.49-3.61 5.53-12.75 1.2-14.19.64-3.21-4.49-3.21-4.49-.16 3.85-2.08 4.73-6.41-.56-6.41-.56a5.46 5.46 0 0 1-4.17 2.81c-3.19.46-6.64-.66-7.2 1.03z" fill="#f7dfcb"/><path d="M102.31 40.79c.74-.43 1.92-4.25 2.08-7a21.1 21.1 0 0 1 3.13-9.14 63.42 63.42 0 0 1 6.17-7.62 18.13 18.13 0 0 1 8.42-4.17c3-.56 7-2.81 10.26-3.77s8.34-1.52 11.95.08a10.83 10.83 0 0 1 5.85-1 64.33 64.33 0 0 1 17.56 5.61c5.85 3 11 12 11.6 13.66s3.15 9.27 3.63 11a7.8 7.8 0 0 0 5.13 4.73c2.41.56 4.73.88 5.93-.32s2.16-2.49 2.08-3.21S189 34 188 33.25s3.69-.16 5.37-1.76 2.81-5.69 2.57-7.78-.88-1.84-.88-1.84S182 26.76 181.68 26s-2.08-8-4.17-10.5-13.27-12.87-26.09-14.31-22.57 1-26.66 2.72a25.7 25.7 0 0 0-7.06 4.49s-5.45 1-7.7 3-7.06 7.94-8.34 12.59-2.24 9.78-1 13.39.68 3.97 1.65 3.41z" fill="#fd8204"/><path d="M152.39 50.18s2.13-4.14 5.42-4.54 5 .08 6.17 1.36 2.49 2.08 2.24 2.81-1.12 1.12-3.53 1.52-3.21 1.2-5.61.72-4.21-1.05-4.69-1.87z" fill="#fff"/><path d="M155.64 47.92a2.85 2.85 0 0 0 .64 3c1.2 1.52 3.53 1 4.09.72a2.54 2.54 0 0 0 1.68-2.41c-.08-1.44-.16-2.73-.72-2.89s-4.48-1.15-5.69 1.58z" fill="#a9d2f1"/><path d="M120.91 50s2.32-3.21 5.61-3.61 5 .08 6.17 1.36 2.49 2.08 2.24 2.81-1.12 1.12-3.53 1.52-3.21 1.2-5.61.72a8.48 8.48 0 0 1-4.88-2.8z" fill="#fff"/><path d="M124.52 48.33a2.85 2.85 0 0 0 .64 3c1.2 1.52 3.53 1 4.09.72a2.54 2.54 0 0 0 1.68-2.41c-.08-1.44-.16-2.73-.72-2.89s-4.49-1.15-5.69 1.58z" fill="#a9d2f1"/><path d="M122 88.65s-.72 1.28.24 3.93 4.81 9.06 7.38 11.54a32.3 32.3 0 0 0 5.08 3.88c.32.32 1.12 6.65 1.44 9.3s-.08 9.14.4 9.86 2.24 1.36 5 1.68 8.18 0 8.82-1 .08-2.24.48-5.13.48-12.27 2.24-13.87 7.7-5.93 8.9-8.42a55 55 0 0 0 3.45-11c.16-1.84-.88-2.57-2.57-2.08s-5.69-1.76-7.3-2a34.53 34.53 0 0 0-5.13 0s-1.84 3-4.89 3.29-8.26-.64-9.7-2.57-3.77-1-4.17-.88-6.41 1.92-7 2.08-2.67.19-2.67 1.39z" fill="#fff"/><path d="M165.81 88.33c-.07.23-1 9.06-4.17 12.83s-8.42 6.89-9.06 8.5-1.36 12.75-1.68 14.83.08 3.13-3.13 4-8.74.08-10-.32-1.52-1.52-1.68-3.21.16-13-.48-14.27-.56-2.32-1.28-2.65-6-3.69-7.38-6.09a89.83 89.83 0 0 1-5.29-12.11c-.48-2-3.61.56-4.09 1.12a12.68 12.68 0 0 0-1.6 6.25c.08 2.65-1.68 13.55-1.2 15.79s1.44 14.35 1.92 16.35.62 7 1 7.52 10 3.14 17.5 3.54 24.61-1.28 27.42-2.08 7.22-3 7.94-3.85a4 4 0 0 0 1.2-3.37c-.24-1.44-.88-11.62-1.28-14.51a137.45 137.45 0 0 1-.16-17.32c.32-3.53 1.36-7.14.88-8.66s-4.19-6.06-5.38-2.29z" fill="#fd8204"/><ellipse cx="131.3" cy="125.21" rx="4.37" ry="5.29" transform="rotate(-24.02 131.324 125.222)" fill="#fff"/><ellipse cx="155.03" cy="126.89" rx="5.29" ry="4.37" transform="rotate(-75.12 155.03 126.894)" fill="#fff"/><ellipse cx="165.05" cy="105.97" rx="5.29" ry="4.37" transform="rotate(-75.12 165.055 105.973)" fill="#fff"/><ellipse cx="117.43" cy="104.21" rx="5.29" ry="4.37" transform="rotate(-75.12 117.43 104.209)" fill="#fff"/><path d="M100.07 29.25l-2.81 7.14c-.64 3.37-1.52 13.31-1.52 13.31-.4 3-1 7.38-.64 10.42 0 0 .16 7.62.88 12.75s2.24 10.82 4.65 13.39 4.33 2.89 5.13 2.81 1.68.72 2.41 1.6 3.53 3.29 5.13 3 3-1.44 3.29-2.41 2.73-2.16 3.69-2.57 9.78-2.89 10.58-3.21 3.61-1.36 3.93-1.84 1.6-2.24 0-3.29-13.07-3.61-17.72-9.7-6.73-9.46-6.73-9.46-2.81-.16-3.61-2.41-1.44-6-.8-7.06 3.21-2.49 3.53-3.21 1.68-6.49 2.16-7.06-.64-1 1.36-1 4.81.56 6.57-.24 3.37-2.65 4.17-2.41 3.77.56 3.77.56c1.36-.8 3.77-5.53 4-5.53s1.92 5.45 2.65 5.53 8.42 1 12.91-.16 5.45-3.2 5.45-3.2c.56-1.6.16-10.26-.4-11.3s2.24 1 2.73 2.65 3 9.86 4.25 10.74 9.54.16 11.95 1.36a8.16 8.16 0 0 1 4.41 4.09c1.36 2.32 1.36 6.41 2 7.54s3.29.56 3.85 2.32.8 3.29.08 4.41a9.19 9.19 0 0 1-2.73 3c-1 .56-3.37 5.77-6.73 8.74S160 77.83 155.79 79s-5.37 1.44-5.29 2.16-.24 2.57 2.73 3.61 9.54 1.76 10.74 2a23 23 0 0 1 6.89 2.08c2.65 1.44 3.69 2 4.33 1.76s4.49-2.16 6.89-3.53 5.05-5.29 5.85-7.86 1.2-12.59.8-17.24-.72-15.23-2-18a19.67 19.67 0 0 0-3-4.57c-.16-.32-2-10-2.24-10.42s-6.81-9.78-10-12.27-13.14-7.6-21.79-7.92-14.19-.32-14.75-.16-11.47 4.73-12.95 4.89-6.73 2.57-6.73 2.57c-2.41 2.49-7 7.62-7.54 8.34a7.93 7.93 0 0 0-2.37 4.56c-.24 2.49-.72 8.82-2.24 10.66s-2.49 2.49-2.49 1.92-2.89-8.81-.56-12.33z" fill="#efb000"/><path d="M148.17 11.85a15.36 15.36 0 0 0-8.17 2.4 26.84 26.84 0 0 0-7.54 9.14s-2.32-4 1.36-8.74a19.77 19.77 0 0 0-9.54 10.5c-2.73 7.46-1.68 12-1.68 12s-2.43-4.43-2.89-7.38A22.31 22.31 0 0 1 121.8 16c.48-1-6.73 2-9.14 8.74s-3.29 11.7-2.81 13.87c0 0-1.52-.56-1.68-3.53s-.64-1.52-.64-1.76a75.48 75.48 0 0 1-1.84 8.26 26 26 0 0 1-4.89 7.86c-2.16 2.57-4.49 4-4.89 7.46s-.8-4.25.8-7.38 4.12-6 4.52-7 1.42-3.24 2-5.16 1.68-8.33 3.6-11.85 5.93-8.74 9.46-10.74a26.58 26.58 0 0 1 8.18-2.65s8.42-4.73 12.19-4.17 9.83 1.57 11.51 3.9z" fill="#f6c966"/><path d="M147.3 8.92s4.25-1 10.82 1.12a49.31 49.31 0 0 1 15.15 8.42c2.32 2 5.69 7.86 5.69 7.86l.88 2.08s-6.09-6.89-10.18-9.62a40.41 40.41 0 0 0-11.38-4.65c-.72-.08 5.93 3.21 7.14 10.74a36.4 36.4 0 0 0-17.56-13zM105.36 61.72a23 23 0 0 0-5.53 12.43c-.72 7.38 1.52 13.15 3.29 14.11s3 .32 3-.88-2-6.17-2.41-8.9a31.71 31.71 0 0 1 1-10.82c.81-2.18 1.85-7.95.65-5.94zM177.92 62.92S180.08 63 182 69s1 10.82.88 13.23-.16 2.81 1 2.73-2.16 2.16-3.29 2.65-2-.16-1.68-1.2 2.24-6.41 2.65-8.18-.56-8.1-1.36-10.1-2.28-5.21-2.28-5.21z" fill="#f6c966"/><path d="M117.51 140.76s-.78 2 2.28 3.07 10.85 2.41 23.57 2.59a88.81 88.81 0 0 0 26.28-4.09c1.17-.45 2.38-.66 2.65-2.77s.66-2.74.18-4.09-1.35-.87-1.92-1-7.94 5.2-20 5.71-27.12-1.32-27.12-1.32c-3.91-1.11-5.23-1.17-5.59-.66s-.15 1.48-.33 2.56z" fill="#e16702"/><path d="M115 151.47s.42-6.37 2.34-7.28 4 0 7 .78 14.61 2.1 25.43 1.38 17.77-3 19.42-3.79 2.41-2.07 3.25-1.38 3.55 9.26 3.55 9.26c.33 3.34.21 10.93.93 15.56s.93 9.14.15 11.44c-.53 1.57-4.11 3.12-10 4.39-7.93 1.7-26.85 1.74-31.09 1.5s-9.95-.44-13.56-1.47c-3-2.07-6.06-5.65-9.29-6.9a34.11 34.11 0 0 1 .66-11.78C114 162 115 151.47 115 151.47z" fill="#fd8204"/><path d="M114.56 181.59s-1.05 4.63-.72 6.19a4.22 4.22 0 0 0 2.83 3.61c2 .72 16.93 2.19 18.94 2.34s20.77.18 22.73.18 9.44-1.2 11.06-1.5a48.09 48.09 0 0 0 6.73-2c.36-.27 3.28-2.68 2.83-5.65s-.78-5.86-1.74-6-2.71 2.07-13 3.19-28.59 2-35.36 1.32-11.94-2.71-12.93-2.53-1.25.04-1.37.85z" fill="#fff"/><path d="M124.54 194c0 .22 1 3.79 2.59 4.69s9.32 1.71 10.94 1.62a38.63 38.63 0 0 0 6-1.56s2.19 1.32 10.28 1.44 9.26-2.77 9.26-2.77a24 24 0 0 0-.12-3.85c-.21-.15-10.1.75-19.36.48S124.72 193 124.72 193s-.24 0-.18 1z" fill="#f9e5cc"/><path d="M124.9 199.75c0 .19 0 2 2 3.91s6.28 2.38 9.26 2.53 8.48-1.38 8.48-1.38 10.85.75 13.47.54 4.87-3.13 4.87-3.13.75-1.92-.24-2.47-5.08.42-7.16.42-11-.51-11.54-.66a26.9 26.9 0 0 0-4.57.3 83.67 83.67 0 0 1-11.18-.24c-3.42-.42-3.24-.75-3.39.18z" fill="#fff"/><path d="M127.43 206.12l5.11 17.74s-.18 1.71 2.34 2.34a29.19 29.19 0 0 0 9.5.24 20.37 20.37 0 0 1 3.25-.48s8.39-.51 9.38-1.08 1.41-3.64 1.44-3.85 2.41-11 2.83-12.69.69-5.65.72-5.29-.24 1.44-5.29 1.8a112.59 112.59 0 0 1-12-.06 28.61 28.61 0 0 1-9.38 1.2c-5.11-.23-7.87-1.13-7.9.13z" fill="#d2a274"/><path d="M131.59 225.91s-3 3-3.61 3.49-4.3 2.56-5.35 5.23-1.32 5.14-.42 6.67a6.66 6.66 0 0 0 4.93 3.43 30.26 30.26 0 0 0 8.72 0 92.84 92.84 0 0 0 9.44-3.31c.9-.36 2.5.87 2.77 1.08a36.82 36.82 0 0 0 9.14 2.34 20 20 0 0 0 10-2.28c2-1.08 3.31-2.22 3.31-4.33a7.75 7.75 0 0 0-2.95-6.07 65.47 65.47 0 0 0-6.91-4.57c-.42-.6-1.83-2.38-2.53-2.53s-4.18.39-5.89.48-10.76.48-10.76.48c-.33.07-8.96-.86-9.89-.11z" fill="#efb000"/><path d="M116.91 137.72s-1.6-14.27-1.6-15.47-.48-13.15-.32-16.44.8-11.46.8-11.46.72-3-2.24 0c-.41.41-3.93 4.17-4.73 8.1a79 79 0 0 1-3.45 11.95 112.5 112.5 0 0 0-4.17 14.75c-.32 2.41.32 5.85.08 8.66s-2.19 1.77-4.28 3.69c-1.9 1.74-3.64 3.7-3.61 6.41 0 1.84 20.93 6.39 21.44 4.66a116.69 116.69 0 0 0 2.89-12.27 4 4 0 0 0-.81-2.58zM171.08 96s-.21-5.47.9-5.59 3.55 1.47 4.75 3.31 6.64 9.83 7.1 10.82 4.72 9.68 5.35 11a10.15 10.15 0 0 0 2.16 2.65c1 .3 7.28 3.22 7.88 4.09s.84 4 1.32 5.71 1.17 3.13.9 4.15-2.56 2.1-2.77 2.28-2.19 1.17-2.22 1.62a10.06 10.06 0 0 1-.06 2.83c-.3.72-1.23 1.14-1.26 2.41s-.15 2.5-.42 2.47-2.59-.54-2.59-.54-2.47 1.74-4.21.9-4.81-4.09-5.77-5.11-6.85-6.49-6.85-6.49c-.24-.42-2.83-4.63-2.89-5.65s-1.65-10.73-1.86-12.39-.96-15.68.54-18.47z" fill="#fff"/><ellipse cx="122.88" cy="152.39" rx="5.29" ry="4.37" transform="rotate(-75.29 122.886 152.387)" fill="#fff"/><ellipse cx="130.86" cy="172.51" rx="5.29" ry="4.37" transform="rotate(-75.29 130.86 172.516)" fill="#fff"/><ellipse cx="153.3" cy="155.52" rx="4.37" ry="5.29" transform="rotate(-7.6 153.363 155.586)" fill="#fff"/><ellipse cx="171.02" cy="173.47" rx="4.37" ry="5.29" transform="rotate(-7.6 171.073 173.548)" fill="#fff"/><ellipse cx="171.26" cy="147.26" rx="4.37" ry="5.29" transform="rotate(-7.6 171.378 147.33)" fill="#fff"/><circle cx="160.31" cy="48.43" r=".62" fill="#fff"/><circle cx="129.2" cy="48.73" r=".62" fill="#fff"/><circle cx="137.63" cy="108.13" r=".62" fill="#692f23"/><circle cx="144.1" cy="105.55" r=".62" fill="#692f23"/><circle cx="149.78" cy="107.87" r=".62" fill="#692f23"/><circle cx="143.64" cy="113.1" r=".62" fill="#692f23"/><circle cx="138.13" cy="117.75" r=".62" fill="#692f23"/><circle cx="148.81" cy="117.29" r=".62" fill="#692f23"/><circle cx="143.26" cy="121.9" r=".62" fill="#692f23"/><circle cx="138.09" cy="125.09" r=".62" fill="#692f23"/><circle cx="148.51" cy="124.97" r=".62" fill="#692f23"/><circle cx="116.35" cy="184.39" r=".79" fill="#692f23"/><circle cx="122.34" cy="189.02" r=".79" fill="#692f23"/><circle cx="129.65" cy="185.9" r=".79" fill="#692f23"/><circle cx="137" cy="190.22" r=".92" fill="#692f23"/><circle cx="145.2" cy="186.28" r=".92" fill="#692f23"/><circle cx="152.47" cy="190.02" r=".92" fill="#692f23"/><path d="M166.17 162.68c.06-.29 67.08-.35 67.08-.35s2.62-.52 1.4-2.8A62.19 62.19 0 0 0 230 153l-15.72-.58L80.8 152s-10.19-.41-13.39 1.51-5.12 3.67-4.31 5.24 3 3.2 6.17 3.61 54.85.35 54.85.35z" fill="#e2ddd3"/><circle cx="160.48" cy="186.18" r=".92" fill="#692f23"/><circle cx="167.67" cy="189.08" r=".92" fill="#692f23"/><circle cx="173.38" cy="183.44" r=".92" fill="#692f23"/><path d="M92.51 149.06c-.06.06-1 1.48-1 1.48a3 3 0 0 0-1.69 1.11 4.47 4.47 0 0 0 .17 3.17 3.4 3.4 0 0 0 1.51 1.63 4.29 4.29 0 0 1 1.92.9 1.7 1.7 0 0 0 1.31.64 2 2 0 0 0 1.22-.61c.2-.25 1.08.38 1.63.44s1 .06 1.11-.73.06-4.54.06-4.54l.73-.49 1.31.76s.73 3.71 1.6 4.43a1.44 1.44 0 0 0 2 .06 6.66 6.66 0 0 0 .47-2.53c0-.26-.06-2.56-.06-2.56a8.19 8.19 0 0 1 3.32.12c1 .47 2.4 1.6 2.56 1.66a16.58 16.58 0 0 0 2.15-.64s.17-2 .12-2.21-1.18-.93-1.48-1.22-4.06-2.14-5.42-2.94-1.78-1.76-3.52-1.57c0 0-6.16 1.46-7.54 2.3s-1.99.81-2.48 1.34z" fill="#f7dfcb"/><path d="M154.39 207.56l48.35-39.87 1.71-1.35-4.3-.09-47.93 39.58-48.94-39.06c-.74-.43-1.9.31-1.9.31l1 1.09 48.19 39L103 246.42s-.93 1.4-.12 2.1 2.8-.82 2.8-.82l47-38.73c8.17 6.69 48.55 39.75 49.11 40.13s1.73.66 2.21.08-.27-1.51-.27-1.51z" fill="#e0dede"/><path d="M201.11 120s-4 8.25-4.74 13.66-1.51 12.85-1.16 13.94 0 2.08 1.09 2.37 15.33.41 17-.23 1.49-1.3 1.51-3.65-.14-10.81-1.32-14.87-4.66-13.51-5.67-14.71-1.86-2.62-3.07-1.32-3.64 4.81-3.64 4.81z" fill="#bfbebe"/><path d="M196.18 151.23c0 .12.12 3.49 1.13 4.74s3.84 1.36 4.85 1.36 10.09-.31 10.09-.31 1.15 0 1.24-1.94a48.11 48.11 0 0 0-.16-5s-2.83.41-3.69.39l-12.93-.19a1.2 1.2 0 0 0-.53.95z" fill="#fff"/><path d="M168.38 166.17c-.29-.06-80.36.47-80.36.47l-17.24-1.28-4.31-3.14 4.66.23H203l31.09-.23s2.45.17 2.33 1.86-.76 1.92-3.26 2.21-64.78-.12-64.78-.12z" fill="#c7c0b1"/><path d="M111 154.7c-.06.14.7 9.55.7 9.55l-.12 11.94h2.45c.15 0 6.29-1 9.55.23s14.64 4.31 16.94 5.65 17.06 2.85 19 3.14a17.28 17.28 0 0 0 5.07.17s.84-.23 1.28-1.63 0-8.73 0-8.73l-1.51-19.16A29 29 0 0 0 163 153c-.17-.09-49.15-.23-49.15-.23a3.12 3.12 0 0 0-2.85 1.93z" fill="#efb000"/><path d="M141.9 61.77c.64.4 2.28.32 3.52.08s2.4-1.08 2.2-1.28-.12-.16-1.28.16a15.26 15.26 0 0 1-3.48.2 17.07 17.07 0 0 0-1.76-.08c-.2.15.16.52.8.92zM148 71.54a21.63 21.63 0 0 1-5.56.64c-2-.12-3.88-.36-3.88-.36-1.24-.2 0 .52.76.8a13.82 13.82 0 0 0 6.48.6c3.28-.44 4.6-1.52 4.44-1.76s-1.24-.16-2.24.08zM129.94 66.09c-.48.56 0 1.32.36 1a1.83 1.83 0 0 1 1.2-.4c.52.08 4.36 2.36 5.92 2.64a26.3 26.3 0 0 0 9.61.28c5-.72 9.57-3.64 10-3.8a1.81 1.81 0 0 1 1.28.32c.16.12.84.36.72 0A2.32 2.32 0 0 0 157 65c-.88 0-2.56 1.16-3.36 1.44A33.13 33.13 0 0 1 142 68.26c-6.8 0-8.57-1.6-9.65-2s-1.93-.73-2.41-.17zM152.55 51.36a4 4 0 0 1 2.36.24c1.08.36 2.32.72 2.32.72a14.93 14.93 0 0 0 7-.8 3.55 3.55 0 0 0 2.32-2.4c0-.48.36-1.36-1.24-2.64a6.44 6.44 0 0 0-2.27-1.07 10.39 10.39 0 0 0-2.26-.32 11 11 0 0 0-5.74 1.26l-.17.09A5.58 5.58 0 0 0 152 50c-.45 1.16.11 1.52.55 1.36zm9.45-4.47c.89.08 2.06 1.4 2.49 1.87s.44 1.08-.32 1.76a4.35 4.35 0 0 1-2.88.88h-.07a4.41 4.41 0 0 0 1.19-2 3 3 0 0 0-.41-2.51zm-5.35.64a.65.65 0 0 1 .72 0c.38.27.11.52 0 .75a1.21 1.21 0 0 0 .18 1.13 1.49 1.49 0 0 0 1.42.69 1.55 1.55 0 0 0 1.29-1.1c.1-.41-.38-1-.05-1.41a.57.57 0 0 1 .83-.06c.6.52.4 1.56-.08 2.48a2 2 0 0 1-1.68 1.19 4.31 4.31 0 0 1-1-.1l-.19-.05a2.28 2.28 0 0 1-1.94-2.05 1.39 1.39 0 0 1 .49-1.47zm-3.49 2.35a10.15 10.15 0 0 1 2.08-2.28c-.41 1.91.26 2.83.62 3.17h-.15a3.27 3.27 0 0 0-1.84-.16c-.52.15-1.04.07-.72-.73zM120.42 51a7.39 7.39 0 0 0 3.58 1.7 19.07 19.07 0 0 0 3 .51 18.13 18.13 0 0 0 4.77-.87 4.7 4.7 0 0 1 1.86-.42 2.53 2.53 0 0 0 1.41-.24c.27-.21.3-1.26 0-2.58a6.26 6.26 0 0 0-3.36-3.84c-1.62-.63-5.1-.48-8 .93a7.54 7.54 0 0 0-3.84 3.69c-.23.48.22.96.58 1.12zm10.84-1.38a3.69 3.69 0 0 0-.69-2.65h.15a5.23 5.23 0 0 1 3.48 3.75c0 .3.09.33-.15.39s-.51-.24-1-.12-1.9.58-3 .87a3.94 3.94 0 0 0 1.21-2.22zm-6.93-.84c.09-.21.21-.48.81-.45.29 0 .43.27.5.53a1.42 1.42 0 0 0 .15.84 1.45 1.45 0 0 0 1.47.8 1.42 1.42 0 0 0 1.59-1 2.3 2.3 0 0 0-.15-1.5s.06-.77 1-.06a2.92 2.92 0 0 1 .18 1.81 2.31 2.31 0 0 1-1.32 1.71 3.4 3.4 0 0 1-3.21-.27 3 3 0 0 1-1.03-2.39zm-2.91.81a6.29 6.29 0 0 1 2-1.5 3.34 3.34 0 0 0-.19 1.79 3.64 3.64 0 0 0 .74 1.87 14.34 14.34 0 0 1-2.51-1.17l-.08-.07s-.6-.27.03-.9z" fill="#692f23"/><path d="M236.92 161.92l-5.76-9.43s-.47-1.22-4.54-1.28c-3.14 0-9.57 0-12.35.09l-.11-1.1a3.22 3.22 0 0 0 .87-.64 5.83 5.83 0 0 0 .6-3c0-1.17-.12-4.75-.27-7.26a46 46 0 0 0-2.1-11.06 79.77 79.77 0 0 0-4.43-10.87c-1.59-3.08-2.57-3.41-3.09-3.42a3.43 3.43 0 0 0-2 1.51c-.46.74-3.26 4.3-3.9 5.59-.16.33-.38.77-.62 1.27a33.94 33.94 0 0 0-4-2.83 13.28 13.28 0 0 0-2.82-1.44 3.15 3.15 0 0 0-1-.84c-.63-.36-1.23-.39-1.2-.54s-3.75-7.27-4.86-9.55a122.22 122.22 0 0 0-6.74-11 10.55 10.55 0 0 0-1.6-2.23s-2.76-2.28-1.26-3.36 3.84-2 6.18-3.24 3-1.8 5.22-5.88 2.16-12.61 2.34-17.83c.17-5-1.43-17.34-2.36-19.7A15.81 15.81 0 0 0 191 45c1.86.24 2.52 0 3.54-1s2.4-3.48 2.4-4.5-5.14-3.32-7.51-6.06h.18l2.05-.6a4.61 4.61 0 0 0 1.61-.48c2.94-1.44 2.94-5.82 3-7.63s-.18-5.16-.54-4.32-1.44.84-2.76 1.38c-1 .4-3.22 1-4.36 1.32a2.37 2.37 0 0 0-.69.18c-2.28.9-5.16 2.34-5.94 2s-.84-2.7-.9-3.06v-.05a43.06 43.06 0 0 0-5.56-9.31c-3.3-4-14.77-10.09-20.35-11.83s-20.49-1.17-26.86 1.11S117.87 6 115.65 8.63c0 0-2.88-.3-6.72 2.28s-8 11.59-9.07 15.79S97 32 96.55 35.29s-1.08 12-1.2 13.81a.9.9 0 0 0 0 .32c-.84 2-1.26 7.14-1.32 11.59s-.18 9.13 1 14.23A29.69 29.69 0 0 0 99.67 86c1.5 2 2.7 3.9 6.78 4.44a11.76 11.76 0 0 0 4.68 3.42S109 99 108.2 101.22a4.75 4.75 0 0 0-.17.53 43.1 43.1 0 0 0-1.76 8.54c-.06 1-1.62 3.3-2.16 4.68a115.66 115.66 0 0 0-3.9 13.87c-.9 4.8-.12 5.4-.18 6.66 0 .9-.24 2.08-.41 3.37a2 2 0 0 1-.88.84c-.48.23-3.89 2.21-4.86 4.31a12.67 12.67 0 0 0-1.08 4.22 5 5 0 0 1-1.16 1.28 1.84 1.84 0 0 0-.38.52.61.61 0 0 1-.53.32 2.19 2.19 0 0 0-1 .76c-1.45 0-10.46-.06-15.55.18-5.55.26-8.39 1.78-10.13 3.12a4.6 4.6 0 0 0-1.91 4.11c.2 1.89 1.86 4 5.1 6a14.33 14.33 0 0 0 7.86 2.27c5.52.25 16.21.25 24.52.2l10.69 8.12-.22 1.52c0 .36 0 1.35.44 1.37a9.91 9.91 0 0 0 1.6-.45 55.85 55.85 0 0 0-.26 7.23 16.33 16.33 0 0 0 .76 3.6c1.52 3.14 4.13 3.72 4.29 3.67a38 38 0 0 0 5.76 1.18c.34 1.06 1.48 3.84 1.48 3.84a6.67 6.67 0 0 0 .1 3.79c.15.66 2.34 5.36 2.71 6.44.31.91 1.12 4.75 1.36 5.91a2.29 2.29 0 0 0 .07.34c.44 1.55 2.36 7.08 3 9.1l.06.14-25.86 21.09a18 18 0 0 0-3 2.74c-.44.92-.38 2 .58 2.39a3 3 0 0 0 2.21-.41l16.43-13.58a10.9 10.9 0 0 0-.77 4c0 3.1 1.55 4.53 2.66 5.17s8.63 2.21 13.18 1.48 7.87-3.44 8.76-3.59.47.42 3.3 1.43a36 36 0 0 0 11.66 1.57c3.71-.17 8-1.94 9.15-4.13s2.07-5 .3-7.72-5-3.59-6.39-4.72a17.1 17.1 0 0 0-2.36-1.62s-1.67-1.5-2.41-2.31-.81-.57-.49-2.61c.15-.94.82-3.9 1.51-6.71-.2-.13-.33-.32-.52-.47s-.52-.29-.78-.48a42.44 42.44 0 0 0-1.79 6.33c-.17 2 0 3-.64 3.39a15.39 15.39 0 0 1-5.07.93c-1.5 0-3.79-.1-4.08-1-.23-.7-.82-5.13-1.19-8.75l6.83-5.65L202 249.79s1.41.42 2 .07a1.75 1.75 0 0 0 .61-1.9c-.12-.28-22.66-18.58-44-35.9.5-2 .94-3.67 1.13-4.29.54-1.77.91-4.5 1.28-5.46a5.9 5.9 0 0 0 .46-1.84l40.21-32.94a4.6 4.6 0 0 1 2.17-.78h31.04c.67-.1 1-.87 1-2.13a3.32 3.32 0 0 0-.98-2.7zm-83.28 81.51c-1-.25-4.28-.71-5-1.87a5.44 5.44 0 0 1-.64-2.24c1.06.12 5.16.61 5.46 1.1a4 4 0 0 1 .17 3.02zm-.1-4.33c-.61.37-3.84-.54-3.84-.54a17.82 17.82 0 0 1-1.73-.81v-.77-1.87c.83 0 3.72 0 4.21.1s.91.2 1.28 1.62.69 1.91.07 2.28zm-.72-9.05c1.25-.11 2.73-.23 4.14-.34a1 1 0 0 1 .22.14c.39.34 2.88 2.12 3.1 2.85s-1.4.57-2.12.69l-1.55.3a5.82 5.82 0 0 0-1.3.1h-1.62a19.45 19.45 0 0 1-1-2.75c-.11-.37-.12-.79.13-.98zm9.62 11.51a5.63 5.63 0 0 1-1.57 2 36.74 36.74 0 0 1-6.1 0 5.4 5.4 0 0 0 .15-2.56s-.34-.57.34-.49a58.83 58.83 0 0 0 6.35.15c.98-.13 1.05.27.83.91zm.34-4c0 1.43-.07 1.87-1.48 2.21a24.44 24.44 0 0 1-5.71-.15c-.54-.07-.69-.3-.93-1.33s-.54-2.71-.59-2.85-.22-.44.69-.49a30.08 30.08 0 0 0 3.64-.49s2.16-.57 2.88-.2a4 4 0 0 1 1.5 3.27zm6.32.19v.55c-.17 2.29-2 3.66-5.17 4.72-.27.09-.57.17-.88.24a5.91 5.91 0 0 0 .78-1.62 7.41 7.41 0 0 0 .2-1.52s3.53-.12 5.07-2.4zm-2.18-5.21a6.16 6.16 0 0 1 2 3.7 8.68 8.68 0 0 1-2.44 2c-1.28.54-2.61 1.38-2.85.34a2.6 2.6 0 0 0 .1-1.48 7.42 7.42 0 0 0-1.28-3.3s.15-.37 1.18-.59 2.25-.38 2.82-1zm-2.69-2c.26.22.82.8.18 1.29a6.23 6.23 0 0 1-2.61.74 7.38 7.38 0 0 1-1.28-1.57c-.22-.33-.62-.85-1.09-1.43h.84a7.08 7.08 0 0 1 3.96.97zM160 227c.83 1.06 0 1.77-1.1 1.94-1.06-1.27-2.28-2.64-2.69-3.07A6.7 6.7 0 0 1 160 227zm-6.57-1a7.72 7.72 0 0 1 1.3.26 11.22 11.22 0 0 1 2.21 2.61.18.18 0 0 1 0 .2c-1.47.13-3.46.32-5 .5a9.32 9.32 0 0 0-.67-3.21s.97-.19 2.14-.36zm-3.33.34a15.56 15.56 0 0 1 .25 2.19 7.52 7.52 0 0 1-.15 1.28c-1.57.35-1.73 1.22-1.43 1a3.88 3.88 0 0 1 1.28-.44 1.77 1.77 0 0 1 1.52.69 5.53 5.53 0 0 1 .69 3c-.2.44-1.87.57-2.51.44-.46-.09-1.31-.36-1.75-.5 0-1.52 0-3.13-.07-4.17a27.62 27.62 0 0 0-.39-3.54c.34.01 1.59.04 2.54.06zm64.3-72.81l12.58-.23a4 4 0 0 1 3.67 1.75 46.89 46.89 0 0 1 2.45 4.13 2.83 2.83 0 0 1-.06 1.86c-.41.73-2.27.58-3.49.64l-62.17.23h-.86a23.78 23.78 0 0 0-1.43-6.06c-.09-.19-.54-1.7-.23-2s31-.29 31-.29a10.7 10.7 0 0 0 .35 2.45 4.79 4.79 0 0 0 3 1.63c1.63.35 12.75.17 12.75.17a2.29 2.29 0 0 0 2-1.81c.31-1.59.42-2.46.42-2.46zm-37.92 27.57c-.27.91-2 5.71-2 5.71L173.1 188c-.67-.81-3.87-4.86-4.57-5.75a16.6 16.6 0 0 0 3.16-.81c1.8-.81 3.84-2 4.38-1.87s.66.63.39 1.54zm.84.79a10.83 10.83 0 0 1 .31 2.36l-1.63 1.32a21.28 21.28 0 0 0 1.29-3.67zM162 192.09l3.5-5.65h.05c2.1.14 2-1 2-1l-.08-2-.06-.26a1.7 1.7 0 0 1 .06.26 28.79 28.79 0 0 1 4.42 5.54l-2.4 2c-1.86.35-4.37.76-7.49 1.11zm4.87 1.06l-2.9 2.39c.12-.76.26-1.57.29-1.78a9.28 9.28 0 0 1 2.56-.62zm-10.23 6.93c1 0 1.8-.07 2.21-.12s.63-.1.92-.17v.12l-3.12 2.45c-.04-.92-.05-1.87-.06-2.29zm-5.51-.88c-5.68-.39-6-1.11-6-1.11 0-.17-.07-2.21-.2-3.34 0 0 7 .17 10.13.15a60.47 60.47 0 0 0 6.84-.69c.54 0 .57.89.3 2.26s-.37 2-2.12 2.36a69.77 69.77 0 0 1-8.99.36zm1.52.94h3c0 .74-.1 2.23-.19 3.17l-1 .83c-.71.05-1.38.08-2 .09a27.2 27.2 0 0 0 .15-4.09zm-.74 0a39.58 39.58 0 0 1-.68 4h-.32l-2.18-1.76c0-.87 0-1.83-.06-2.34.69 0 1.22.08 1.22.08zm-4.16 1.47l-1.82-1.48a10.27 10.27 0 0 1 1.83-.1c-.02.32-.03.97-.05 1.58zm-4.89-8.61q-3.22-.05-6.06-.18l-4.53-3.66c2.19-2.29 4.67-4.82 5-4.82.51 0 5.61 7.22 6.61 8.66zm.1 3.94a3.19 3.19 0 0 1-.3.62l-3.8-3.07 3.9.19a3.75 3.75 0 0 1 .24 2.22zm-6.69-13.31c-.72.57-3.21 2.91-5 4.71l-6.2-5c2.5.25 7.11.27 11.2.26zm-13.37-2.05l-6.61-4.92a40.61 40.61 0 0 1 9.81 1.58c3.07.88 10.77 3.57 12.93 4.21-4.57 0-8.49 0-10.44-.12a37.84 37.84 0 0 1-5.69-.78zm16 2h5.7s3 .79 5.55 1.29c-2 2.44-5 6.61-5 6.61zm20.4 8.76c-3.1.26-6.71.45-10.81.48l-2.43.1c.88-1.14 3.62-5.77 5.28-7.77.51.08 1 .14 1.37.17l1.16.09c1.76 1.94 4.5 5.67 5.41 6.93zm-3.43-6.76c2.55.23 5.78.53 7.91.72l-3 4.85c-.39-.44-3.03-3.43-4.93-5.57zm20.71-12.44c-.07 1.55.22 3.47-1.38 4.77-1.17 1-3.57 2-8 2.83 0-.89 0-5.18-.2-6.62-.17-1.62-.67-6.42-.35-6.87s1.14-.49 1.14-.49h8.62c.07 2.69.18 5.61.15 6.38zm-60.91-56.73a85.77 85.77 0 0 1-.06-13.27l.6-5.28s.12-4.8 1.32-6.36a5.23 5.23 0 0 1 3.18-1.74 29.84 29.84 0 0 0 3.12 8.11c2.4 4.29 4.71 7.3 6.27 8.32s2.61 1.71 3.93 2.49c0 0 .45.63.75 4.32s.39 11.86.33 12.76a2.76 2.76 0 0 0 1.44 2.4 6 6 0 0 0 2.79.81 49.47 49.47 0 0 0 6.09.38c1.36-.16 3.92-.56 5.12-1.8s.88-5.08.88-6.2a50.77 50.77 0 0 1 .84-9.25c.72-2.92 1.2-3 3.2-4.44a34.34 34.34 0 0 0 5.8-5.76c1.68-2 4.12-8.89 4.32-11.29l.48-2.34s2.7 0 3.72 1.38.06 5.1.06 5.1c-.94 2.82-1.3 18.27-1 19.91s1.2 4.2 1.4 6.12.56 10.89.44 11-2.92 3.48-10.61 5.68-28.1 2.16-33.18 1.28-8.61-2.2-8.77-2.64a12.45 12.45 0 0 1-.28-1.58v-.06c-1.26-5-2.1-16.81-2.1-16.81a1.86 1.86 0 0 0-.1-1.24zM126.05 91a22 22 0 0 1-2.05 3.36 36.47 36.47 0 0 1-1.6-3.92 3.5 3.5 0 0 1 0-.47c.94.16 3.69.64 3.65 1.03zm-3.54-2.16a1.44 1.44 0 0 1 .39-.56 2.28 2.28 0 0 1 1.8-.54c.36 0 .66 1.08.9 1.74zm-12.15-37.58c-.12-1.14-2-1.32-2-1.32 1.08-.78 2.52-3.9 3-5s.36-2.58 1-3.06 2.7.36 5.7-.24a6.17 6.17 0 0 0 4.08-2.4 1.26 1.26 0 0 0 .84.42c.48 0 5.76.48 6.36.06s.72-3.6 1.5-3.9 1.26 2.4 1.26 2.4.3.72 4.62 1.2 15.08-.4 15.91-2.64c.6-1.62.3-7.75.12-9.13a25.86 25.86 0 0 0-.68-3c.14-.06.29-.14.56.19a37.5 37.5 0 0 1 3.54 7.63c1.74 4.92 1.8 5.58 2.58 6s5-.66 10.75 1.14 5.4 4.26 5.88 6.3.48 4.32 1.8 5.64 3.06 1.26 3.12 1.44a6.75 6.75 0 0 1 .9 2.64 3.43 3.43 0 0 1-1.92 3.18 4.69 4.69 0 0 1-3 .3s-3.36 7.39-6.66 10.51-15.31 9.19-20.47 10.21-13.21-.72-17.05-1.5a31.13 31.13 0 0 1-19-13.63 26.15 26.15 0 0 1-2.22-4.38 4.87 4.87 0 0 1-3-1.2C106.7 58 105.92 57 106 54c.12-2.58 1.62-2.64 2.52-2.58s1.96.98 1.84-.16zm8.19-29.37a18.5 18.5 0 0 0-.15 8c1 5.22 2.46 5.34 2.7 7.21s-1 1.86-3.18 2.4a24.36 24.36 0 0 1-6.24.12c-2.22-1.14-2.52-1.8-3-6.6s.42-7.21 2-11.65 7.57-6.78 9-7.27 3-1 1.26 1.38a19.34 19.34 0 0 0-2.52 6.36zm17.81 63.41c-1.26-2.22-.54-4.38 0-4.56s2.1.6 4.74.78a51.91 51.91 0 0 0 8.29-.32c.23.09.48.35.48 1 0 1.26.36 3.36-2.64 4.2a18.56 18.56 0 0 1-6.69 1l.08-.07s-3 .2-4.26-2.02zm.78 2.46a3.44 3.44 0 0 0 .76.29 16.33 16.33 0 0 0 5.54 1 10.31 10.31 0 0 0 6.18-1.92c.9-.78.84-1.62 1.92-1.92s5.16.9 6.3 1.2 1.86.84 1.68 2c-.39 1.83-4.23 9.55-5.85 11s-3.72 2.79-8.74 2.82a18.29 18.29 0 0 1-12.28-4.35 15.4 15.4 0 0 1-4.5-6.69c-.21-.72-.27-.75-.27-.75s-1.2-2.52-1-3.12 5.76-2.58 6.84-2.52 1.44 1.95 3.42 2.97zM158 103.13c-.21.21-.42.42-.65.63a39.89 39.89 0 0 1-4.59 3.59l-.54-4.59.33-.21zm-3.93-1.72a14.63 14.63 0 0 0 3.05-3.5c.18.88.73 3.6.87 3.93s-2.55-.41-3.91-.44zm3.9-4.89l.2-.35a37.1 37.1 0 0 1 4.44-.36l-.22.51a25.32 25.32 0 0 1-3.06 5.29c-.33-1.25-1.2-4.21-1.33-5.1zm3.23-7.13c.12-.68.53-2.06 1.75-2 1.07.08 1.35.63 1.44 1.21a20 20 0 0 0-3.18.78zm3.19.39c-.14.61-.52 2.22-1 3.86-.58-.9-1.81-2.74-1.78-3.24s1.97-.57 2.79-.63zm-2.09 4.79a15.92 15.92 0 0 0-3.43.36 26.92 26.92 0 0 0 1.93-4 19.68 19.68 0 0 0 1.52 3.62zm-21.9 12.61a21.13 21.13 0 0 0 2 1.36 49.86 49.86 0 0 1-6.55 3.24 28.69 28.69 0 0 0-.73-3.31 2.79 2.79 0 0 0-.13-.32v-.05-.16a42.29 42.29 0 0 1 .87-4.56 37.4 37.4 0 0 0 4.56 3.78zm-3.17-4a25.63 25.63 0 0 0 4.46 1 22.81 22.81 0 0 0 7.24-.15 46.55 46.55 0 0 1-5.23 3.76h-.09a36.51 36.51 0 0 1-6.36-4.59zm6 6.6l.7-.45c2.58 1.37 5.32 2.52 6.33 2.93 0 .13-.31.48-1.71 1.4s-3.68 2.24-5.71 3.35a47.27 47.27 0 0 1-6.73-3.93V113a59.79 59.79 0 0 0 7.15-3.2zm-.32 8.81a34.5 34.5 0 0 0 6.24 2.12c-.28.28-2.08 1.64-2.08 1.64a36.35 36.35 0 0 1-3.66 2.15 54.79 54.79 0 0 1-6.1-3.31s2.57-1.12 5.51-2.65zm-1.45-.83c-.7.37-1.32.68-1.79.91-1.35.65-2.5 1.15-3.11 1.41 0-1 .08-2 0-2.88s-.15-1.75-.29-2.76c.73.56 3.26 2.17 5.22 3.34zm-5 4.29c.61.38 3 1.86 5.33 3.24a37 37 0 0 1-4 1.59 2.7 2.7 0 0 1-1.12-1.22 11.26 11.26 0 0 1-.18-3.59zm5.54 4.65c.35-.17.75-.37 1.19-.61a33.46 33.46 0 0 0 3.4 1.74c-.28 0-.57.06-.86.07a58.81 58.81 0 0 1-6.22-.26 13.62 13.62 0 0 0 2.49-.94zm2.8-1.51a46.59 46.59 0 0 0 5.23-3.42 11.17 11.17 0 0 1-.46 4.17 3.14 3.14 0 0 1-.88 1.11c-.69-.31-2.19-1.05-3.91-1.87zm5.21-8v2.42a32.59 32.59 0 0 1-5.58-1.86 43 43 0 0 0 3.91-2.4 21.3 21.3 0 0 0 2.07-1.62 22.6 22.6 0 0 0-.41 3.44zm-4.86-8.63a53.24 53.24 0 0 0 6.1-5l.67 4.63a8.51 8.51 0 0 0-.87 2.61l-.1.45c-.87-.34-3.1-1.25-5.82-2.71zm-15-10.23c.87.84 2.11 2 3.17 2.84-1.16.18-4.12.84-4.12.84zm-2.28 3a33 33 0 0 1-2.87-4.79 7 7 0 0 1 4 .55 3 3 0 0 0 .31.41 16.57 16.57 0 0 1-1.46 3.78zm1.48 1.8c1.36 0 5.28-1.08 5.36-.76s-.54 3.09-.84 4.47c-.55-.44-1.29-.94-2.27-1.61a13 13 0 0 1-2.29-2.1zm-1.25-7.61h-2.91l1.46-3.1c.43.96.95 2.1 1.43 3.05zm-10.31 43.82c.2-1.18 1-.91 1.16-.79s4.48 3.2 25.18 2.44 25.26-5.48 26.26-5.64.94 3.74 0 4.8c-.57.64-3.15 2.22-9.52 3.38-22.6 3.07-31.6 1.23-31.6 1.23s-9.91-1.33-11-2.66a3.41 3.41 0 0 1-.4-2.74zm.87 4.86a91.32 91.32 0 0 0 9.61 2c11.65 2 31 .09 32.58-.64a31.85 31.85 0 0 0 9.48-3.12c1.14 0 1.56.66 2 2.82.29 1.49 1.36 3.66 2.19 6.46h-59.1c.49-1.94 1-3.65 1.25-4.72.41-2.19.83-2.85 1.97-2.85zm74.34-.48a5.69 5.69 0 0 0 1.64.43c0 1-.1 4.14-.11 4.7a1.09 1.09 0 0 0 .41.93l1 .52v.89s.07.54-.7.54h-18.65c-.07-.48-.14-.86-.18-1.08 0 0 0-.06 0 0-.24-1.4-.54-2.9-.91-4.48-1.41-6-2.57-7.9-2.63-8.68s-.16-3.87-.24-5.31c-.06-1.07.37-1 .59-.95.75 1.26 1.5 1.56 2.07 2.49a14.45 14.45 0 0 0 2.16 2.82c1.14 1.2 2.85 2.19 3.84 3.24a31.9 31.9 0 0 0 3.84 4.26c1.8 1.44 5.49.87 6.72.6s1.15-.97 1.15-.97zm-.24-4.56a15.31 15.31 0 0 1 3-5.59c0 .19-.06.37-.09.55-.31 2.11-.92 7.78-1 8.5a5.51 5.51 0 0 1-1.88-.69 11.7 11.7 0 0 1-.05-2.83zm4.24 11.58a51.75 51.75 0 0 0 7.9.49c4.78.06 6.81-.51 7.38-.7s.56.33.56.33l.08.47s.07 3.08-.06 3.75-.65 1.4-2.08 1.46-11.55 0-11.55 0a3.86 3.86 0 0 1-1.86-1c-.66-.85-.37-4.8-.37-4.8zm6.91-33.54c1-1.21 1.53-1.81 2-1.73s2.37 3.74 3 5.28 1.65 4 2.35 6.19a78.38 78.38 0 0 1 2.21 9.8c.22 2 .39 7.42.45 8.81a8.67 8.67 0 0 1-.23 2.83 2.05 2.05 0 0 1-1.4.93 54.75 54.75 0 0 1-7.34.58c-3.1 0-7.12-.21-8.07-.66a1.36 1.36 0 0 1-.85-1.32s-.06-3 0-4a99.41 99.41 0 0 1 1.74-13.25 39.64 39.64 0 0 1 6.15-13.46zm-28.28-22.53v.06c.15.2.58.92 1.16 1.84a69.76 69.76 0 0 1 7.57 11.13c2.85 5.55 3.6 7.57 3.6 7.57a7.7 7.7 0 0 0-3.66-.42 9.2 9.2 0 0 0-3.6 1.62 12.51 12.51 0 0 1 7.33.66s-5.07 1.68-6.72 3.66a15.21 15.21 0 0 0-2.46 4.68s2.1-3.84 5.82-5.16 7.39-2 11.95 1.5a8.53 8.53 0 0 1 1.86 2 27.49 27.49 0 0 0-1.2 3.08c-.25.85-.59 2.1-.91 3.43a2.24 2.24 0 0 0-.23.34 9.08 9.08 0 0 0-2.58-4.14c-1.86-1.5-3.24-.78-3.24-.78a12.09 12.09 0 0 1 3.48 4c1.17 2.4.21 3.84-1.14 5a7.82 7.82 0 0 1-4.56 2.34 7.07 7.07 0 0 1-2.58-.3s0 1.26 2.82 1.74l2.85.48a4.51 4.51 0 0 0-.27 2.1c.12 1.23.33 1.5-.54 1.86s-4.59-.18-5.82-2a13.81 13.81 0 0 0-3.9-4c-.9-.45-5.28-3.1-7.78-9.52a12.26 12.26 0 0 1-.29-3.75c0-3.36 1.08-6 1.28-8.29s0-5.76-.28-5.52-1.16 4.44-1.32 6.92-.68 1-.68 1c-.68-1.36-.68-3.68-1-8.81A54.3 54.3 0 0 1 171 99l.4-4.4s-.12-3.12.78-3.18 3.21 2.77 3.45 3.25zm-.3-6.6c-1.8 1.5-1.74 1.68-2.4 1.5a9.26 9.26 0 0 1-2.16-1.68 7.83 7.83 0 0 0 2.52-3.48c.66-2.1-.18-7-1.08-8s-.06 4.08-1.26 7.08-2.46 3.72-2.46 3.72a27.79 27.79 0 0 0-5.82-1.44c-2.16-.12-2.22.06-2.76-.06s-4.14-1.86-6.6-2.34c-1.91-.37-2.23-.28-2.28-.21l.38-2.46c1.14-.39 2.64-1 4.72-1.71 3.36-1.2 9.31-3.6 12.43-6.48s6.85-7.17 7.77-8.88c.24-.08.55 0 .93.42.84 1 4 7.87 2.4 13.93s-2.53 8.59-4.33 10.09zm19.39-48.63c.24 1.62-.54 2.7-2.4 3.12a5.69 5.69 0 0 1-2.56.08.76.76 0 0 0-.26-.08c-1.44-.24-3.18-1.74-4.68-2.88s-1.74-3-1.14-3.6 1 0 1.92.24 3.12 2.1 3.06 1.74a5 5 0 0 0-2-2.4c-1.26-.84-2.88-1.68-2.34-2.1a4.56 4.56 0 0 1 3.72.84c2.06 1.37 6.44 3.41 6.68 5.03zM182 27.91c.24-1.14 6.54-2.82 6.54-2.82 1.92-.54 6.18-2.64 6.18-1.92s-.12 4.68-1.2 6.36c-.68 1.06-2.34 1.62-3.48 1.89h-.24a18.61 18.61 0 0 1-6.3-.12c-1.74-.42-1.08-1.14-.06-1.8s4.5-.84 3.78-1a18.63 18.63 0 0 0-3.54.18c-1.03.07-1.93.32-1.68-.77zM180.55 40a28.24 28.24 0 0 0 1.14 5.52A10.24 10.24 0 0 1 183 40.1a5.93 5.93 0 0 0 1.2 2 5.73 5.73 0 0 0 .6 2.52 25.15 25.15 0 0 1 2.46 9.25c.54 5.28-.12 14.89.06 17.53s.18 8.41-2.76 11.59-3.78 3.72-4.92 3.54.6-2.4 1-4.14a23 23 0 0 0 .72-9.13A31 31 0 0 0 178.39 63a3.83 3.83 0 0 1-.67-2.22 2.9 2.9 0 0 1 .61-.66c.78-.6 1.08-.18 2.16-.72a2.81 2.81 0 0 0 1.38-1.4 42.1 42.1 0 0 0 1.13 6c.54 1.32.48-1.86.6-2.46s-1.2-8.11-1.92-9.49-2.34-.42-3.84-2c0 0-.72-5.4-1.56-7.08s-2.58-3.3-2.82-4.14.24-4.8-.66-8.35-4.08-7.93-5.16-8.59-1.8-.54-.9.66 4.08 5.7 4.8 10.09-.36 4.56-1.92 5-7.63-.36-9.13-.78-1.56-1-2.58-3.6-4.74-11.6-6.91-13.76a4.32 4.32 0 0 0-1.74-1.5c1 1.74 2.64 15.61 1.68 17.11a4 4 0 0 1-3 1.56c-5.82 1.32-14 1.44-15.07-.24s-.9-9.55-1.26-9.49S129 36.67 128.55 37s-5.4 1-6.3-.66a28.53 28.53 0 0 1-2.46-7.34c-.48-2.4.34-6.55.69-8.13a5.1 5.1 0 0 0 .15-.63c.48-2.82 1.8-5.76 8.17-8.95s11.83-1.56 14.35-1.14 4.5 2.22 4.8 1.62-.54-1.08-.42-2 2.58-.66 2.58-.66c4.68-.3 15 3.84 20.11 7.81s9.13 10.45 9.91 14.23a34.81 34.81 0 0 1 .42 8.85zm-76.49-20.38c2.4-4.14 4.14-6.78 8.71-8.41s5.58-1.08 7.45-1.62 2.94-1 2.94-1.2-3.12.48-3.18-.3-.06-1.5 3.12-2.46 4.8-1.86 7.15-2.46a63 63 0 0 1 14.89-1c5.94.3 7.63.12 10 1s6.9 3.24 9.13 4.14 7.33 2.64 10 6.36a88.56 88.56 0 0 1 4.73 8.11h.06c.82 2 1.71 6.43-.12 3.45s-7.21-8.65-7.21-8.65a43 43 0 0 0-21.43-8.89 16.57 16.57 0 0 0-6.12.48c-1.08-.06-4.38-1.56-8.35-1.14a23.68 23.68 0 0 0-8.12 2.97c-6.48 1.62-11.53 3.6-14 5.82s-6.18 5.94-8.17 10.51a50 50 0 0 0-2.88 10.57 30.75 30.75 0 0 1-.96 3.1 22.22 22.22 0 0 1-1.43-6.73c-.18-3.8 1.39-9.51 3.79-13.65zm-5 12a20.81 20.81 0 0 0 .18 5.28 22.11 22.11 0 0 0 1.52 5.16 18.06 18.06 0 0 1-2.24 3.25l-.76.79c-.24-1.1-.92-6.48 1.24-14.47zm9.19 57.1a64.91 64.91 0 0 1-4.44-10.63c-.3-1.14-1 .06-.72 1.44a36.8 36.8 0 0 0 2.22 5.94c.6 1.14.42 2.1-.36 2.52s-2.64.18-4.32-2.64-4-6.72-4.38-11.95-.9-14.4-.54-17.57.6-4.44 1.92-6.54 3.06-4.68 4.32-6.9 2-2.33 2-4.14a2.1 2.1 0 0 0 0-.3v-.1c-.05-2 1.65-10.61 3.13-12s.72.72.12 4a19.64 19.64 0 0 0 .78 9c.72 2.34 2.28 2.58 2.28 2.58a21.44 21.44 0 0 1-1.38 4.74c-1.26 2.82-1.8 2.64-2.94 3.72s-2.88 1.5-4.26 3.36.24 1.08.24 1.08c.78-1 1.14-1 2.22-1.5s.66 1 .66 1a10.31 10.31 0 0 0 .18 4 8.1 8.1 0 0 0 1 2 28.51 28.51 0 0 0-2.22 5.94c-.36 2.22 0 6.36.48 6.9s.06-2 .24-3.18a43.25 43.25 0 0 1 2.88-8.53 4.87 4.87 0 0 1 2.64 1.5c1 1.2 4.62 7.27 6.66 9.55s7.87 5.64 15.61 8.41c0 0 1.68-.06 1.86 1s.36 2.1-.72 2.46-8.53 2.4-9.13 2.7-5.16 1-5.88 1.44-1.62.3-2.64-1.68-2.52-3.48-3.84-10.33c0 0-.3-3.24-.84-3.42s-.48 5.1-.12 7.14 1.38 7.15 5 9.49a2.89 2.89 0 0 1-2 2.58c-1.96.47-3.6.83-5.76-3.07zm-14.11 58.36a6.39 6.39 0 0 1 2-3.73 27.1 27.1 0 0 1 4.57-3.32c.32-1.07 1-1.26 2.32-1.16 1.74.12 5.82 2 7.27 2.46s1.68-.18-.18-1.86-6.9-1.62-6.84-2.64 1.68-.6 3.36-1 5.52.72 5.22 0-2-1.2-2-1.2c-3.78-.36-5.34.54-7.08.9s-1.5.36-1.74-1.62a31.85 31.85 0 0 1 1-8.65c.66-2.94 3.66-10 4.08-11.17a21.16 21.16 0 0 0 1.32-5 30.43 30.43 0 0 1 1.44-5.4v-.18c.21-.47.78-1.78 1.12-2.7.42-1.14 1.32-4.14 3.3-5.52s1.8.12 1.68.78-1.38 6.6-1.08 9.79-.06 6.18.24 8-.9 1.8-1.26-1.38-1-4-1.5-2.46.24 4.62.78 5.58c0 0 2 7.08 2.46 9.61.36 2.19 1.13 9.51 1.33 11.43a13.07 13.07 0 0 0-.15 2.66h.05c-.12.59.38 1.86.33 2.63s-1.2 4.74-1.86 7.33c-.15.58-.44 2.32-.44 2.32a4.83 4.83 0 0 1-.66-.54l-.22-.58a.57.57 0 0 0-.11-.3 4.62 4.62 0 0 0-2.56-1.66 22 22 0 0 1-4.28-2.3 6.77 6.77 0 0 0-4.28-1.4c-1.85.12-5.66 1.82-6.41 2.13s-1.36 1-1.22.15zm3.75 3.4c.14.65.71 5.11.66 5.8a.59.59 0 0 1-.35.53 1.19 1.19 0 0 1-1.53-.27c-.48-.67-1.34-3.61-1.75-4.51s-.76-2.47-.12-3.26 2.34-1.31 3.2-1.66c.35-.14 1-.43 1.75-.7-.09.47 0 1.69-.08 2.5s-.56 1.15-1 1-.56-1-.82-.89-.1.8.03 1.45zM100 150s0 .49.12 1.34l-.62-.09h-.4v-.45zm-7.52 0c.74-.8.9-.09.9-.09l.05.33a9.12 9.12 0 0 0 .56 2.49 39.85 39.85 0 0 0 1.69 4.23c-.13.38-.53.87-1.55.43s-2.08-2.71-2.24-4.08-.15-2.55.59-3.31zM90 152.65a1.7 1.7 0 0 1 .7-1.25c.31-.07.18.89.2 1.18a15.48 15.48 0 0 0 .58 2.65c0 .11.14.54 0 .63s-.53-.2-.95-.84a5 5 0 0 1-.53-2.37zm-25.54 6.48c-.87-1.67-.16-3.4 2.11-4.57s5.21-1.66 9-1.76c3.38-.09 13.63-.08 13.63-.08a5.09 5.09 0 0 0 .35 2.19 4.7 4.7 0 0 0 2.1 2.07 2.33 2.33 0 0 0 .72.11c.61.78 1 1.41 1.84 1.61a1.74 1.74 0 0 0 1.87-.78c.11-.27.14-.3.4.11a1.39 1.39 0 0 0 1.31.41 1.69 1.69 0 0 0 1.6-1.92c0-.36 0-1.75-.11-3.3h1.12a11 11 0 0 0 1.34 4.11 2.25 2.25 0 0 0 2.52.78c.87-.27.89-1.13 1.13-2s-.27-3.16 0-3.34a7.54 7.54 0 0 1 3.11.23 14.57 14.57 0 0 0 1.44 1.06c0 .49 0 2.34.11 4.18.05 1.29.22 2.61.37 3.64-2.19 0-20.66.17-22.47.2s-12.49-.26-15.93-.58-6.69-.7-7.56-2.37zm9.47 6.11c-3.8-.61-4.91-1.21-5.27-1.57s-.07-.44 0-.48a76.49 76.49 0 0 0 8.48.48l33.45-.2c0 .46.06 1.38.08 2.1-2.83.02-33.12.26-36.74-.33zm36.48 8.91c-.52-.42-8-6.13-8.21-6.35a.52.52 0 0 1 0-.79c.39-.25 1.1.26 1.1.26l7.23 5.61c-.01.4-.06.84-.12 1.28zm.24-2.46l-5.92-4.69 6-.06c-.04.97-.06 3.69-.08 4.75zm.43-18.29a3 3 0 0 1-2.1-1.82c-.29-.78-.25-2-.47-2.06s-.27.49-.23 1-.54.47-.54.47l-1-.19c-.31-.06-1.65-.19-1.67-.54s.31-1.79.12-1.82-.74.7-.82 1.71 0 4.29.12 5.4-.35 1.53-.78 1.55-.72 0-1.36-.82-1.63-6-1.59-8.23a3.4 3.4 0 0 1 .46-2.12 4.75 4.75 0 0 1 1.62-.22c1.27.15 2.21 1.27 3.73 2.21a34 34 0 0 0 4.28 1.92 7.12 7.12 0 0 1 1.37 1c.78 1.9-.28 2.64-1.14 2.56zm2 .75a4 4 0 0 1 1.27-.4h45.9s2.11 0 2.87 1.44.89 5.47.89 5.47a2.54 2.54 0 0 1 0 .89c-.11.21-.5.38-1.26.39h-50s-.51-4.52-.55-5.61a2.43 2.43 0 0 1 .92-2.18zm-.76 21.4c-.31-.48.2-4.16.12-5.33s-.06-5.15-.06-5.15a2.17 2.17 0 0 1 .29-1.25c.33-.36 1-.28 2.24-.32s48.29-.1 48.39 0 .79.19.93.49a5.36 5.36 0 0 1 .26 1.83l.75 15.17a10.41 10.41 0 0 1-.17 3.11 2.65 2.65 0 0 1-2.1.62c-1-.06-11.39-.76-13-1s-6.63-1.41-6.63-1.41a.34.34 0 0 0-.19-.06c-1.56-.47-5.91-1.8-8.67-2.85a82.49 82.49 0 0 0-13.07-3.76c-4.63-.85-7.32-.25-7.69-.09s-1.05.45-1.36 0zm1.81 11.24a12.91 12.91 0 0 1 1-5c.42-1 1-.59 1-.59s.94.31 2.36.7l2.23 1.81c-2 1.72-5.84 5-6 5-.29-.06-.52-.65-.55-1.92zm2.47 3.87h-.13c-.47-.2-1.13-.74-.7-1.48s4.18-3.26 6.08-4.55l2.63 2.14c1.23 2.44 2.45 5.21 2.45 5.21a.9.9 0 0 0 .07.18 94.75 94.75 0 0 1-10.36-1.51zm17 3.52l5.89 4.79c-5.65.5-10.08.13-12.2-1.13s-2.41-4.33-2.41-4.33c1.63.21 5.23.49 8.8.66zm-6.13-5l1.7 1.38c-.57.73-.8.38-.8.38zm1.71 3.13l.92-1 1.43 1.16zm10.47 8.19a5.27 5.27 0 0 1 .54 2.12 12.56 12.56 0 0 1-.22 2.14c-.89.08-2 .14-3.22.17.06-.79.1-3.46.11-4.38zm-3.85 4.5c-1 0-1.95 0-2.84-.06a20.7 20.7 0 0 1-.33-2.35 9.11 9.11 0 0 1 .06-2c.92 0 1.77.08 2.25.08h.79c0 .78.02 3.33.07 4.33zm-7.07-4.86l.41.09c.51.09 1.35.17 2.25.23a16 16 0 0 0-.09 2.67 6.79 6.79 0 0 0 .24 1.69c-.4 0-.76-.1-1.07-.17a8.64 8.64 0 0 1-1.49-.47h.07a8 8 0 0 1-.32-4.08zm-2.94 1.86c-.25-.47-1-2.16-.15-2.61a2.18 2.18 0 0 1 1.7.19 5.61 5.61 0 0 0 .06 3.73 8.81 8.81 0 0 1-1.61-1.31zm3.85 10.75a.75.75 0 0 0-.06-.22 1.13 1.13 0 0 0-.1-.25c-.41-1.2-.91-4.26-1.23-5.3s-.44-1.45-.1-1.43 2.07.93 7.77.74a39.47 39.47 0 0 0 6.74-.69c.34.1.57.69.69 2.51.09 1.33.07 2.79.14 4.81l-11 9c-.14-.38-.36-.87-.41-1-.24-.66-2.08-6.92-2.44-8.15zm12.21-10.5a6.64 6.64 0 0 0-.43-1.79s2.13 2 2.1 2 0 .13 0 .2c-.15 1.21-.66 1.5-1.72 1.87l-.2.05a5 5 0 0 0 .25-2.32zm-19.34 35.27a3.52 3.52 0 0 1 1.26-2.07 5.57 5.57 0 0 1 4.08-.89.92.92 0 0 0 .48.2c.13.15 0 .34-.08.73-.1.59-.25 2.58-.44 3.3s-1.52.44-1.52.44c-2.48-.61-3.42-1.29-3.78-1.7zm12.13-10.77c.49.1 4.23.44 4.23.44s.76.08 1.83.09a3.6 3.6 0 0 1-.4 2.12 29.71 29.71 0 0 1-3.69 0c-.91-.15-2.43 0-2.51-.64s.72-1.53.55-2zm4.72-1.27h-.19a25.68 25.68 0 0 1-5.32-.44l9.87-8.16c.34 3.41 1.16 7.81 1.16 7.81a15.57 15.57 0 0 1-5.52.8zm-3.09 4.86c.76 0 2.36.1 2.61.39s-.27 1-.64 1.77a6.85 6.85 0 0 0-.49 1.92l-1.62-.2-5.07-.34s-.93-.27 0-.93a25.38 25.38 0 0 0 2-1.87 4.39 4.39 0 0 0 .63-.78zm.92 5.14c.38.06.56.24.5.71-.07.64.07 2.21 0 2.75s-.79.64-1.57.59-5.73.34-6.54-.25-.61-1.23-.49-2.85a3.5 3.5 0 0 1 .36-1.48h2.83c1.16 0 5 .54 5 .54zm-4.42-7a1.28 1.28 0 0 1-.87.54l-.36-.05c-1.33-.1-1.66-.47-1.54-.81l1-.85c.54-.34 1.1-.66 1.1-.66a6.4 6.4 0 0 1 1.55-.06 6.12 6.12 0 0 1-.87 1.94zm-2.41 1.67c.42.06 1 .08 1.61.09a7.14 7.14 0 0 0-1.66 1.53 13.86 13.86 0 0 1-1.36 1.69 11.48 11.48 0 0 0-3.46 0 5.47 5.47 0 0 0-2.07 1 10.4 10.4 0 0 1 2.75-3.1 6.7 6.7 0 0 1 4.2-1.16zm-1 13.6a8.13 8.13 0 0 1-3-.62c-2.41-1.06-3.2-2.21-3.59-3.34a4.69 4.69 0 0 1-.16-.59 13.8 13.8 0 0 0 3.41.89c1 .15 1.7.1 2.21.25s1.25 2.51 1.33 3a.38.38 0 0 1-.23.47zm2.91-.17h-.51a6.81 6.81 0 0 1-2.35-3.24c1.94.42 8.71.3 8.71.3.39.82.89 1.8 1.09 2.17a16.74 16.74 0 0 1-6.97.82zm8.07-1.08c-.27-.49-.86-2-.86-2l1.25-.15c1-.12 3.46-.67 4.32-.86a9.55 9.55 0 0 1-4.75 3.06zm6-5.76a12.33 12.33 0 0 1-.38 1.17 10 10 0 0 1-4.74 1.38c-2 0-2.21-.42-2.41-1.23a2.83 2.83 0 0 1 .25-2.21c.34-.3 1.48.12 3.15.25a25.73 25.73 0 0 0 4.32-.27 7.4 7.4 0 0 1-.23.97zm.35-2.42a10.37 10.37 0 0 1-4.43.55c-1.38-.2-2.93 0-3.2-.49s.07-1.87.74-2.9 2.75-1.08 4.28-1a11.38 11.38 0 0 1 2.64.5 24 24 0 0 1-.07 3.4zm-.74-8a31.52 31.52 0 0 0 .51 3.18c-1-.4-3.19.16-3.61.16s-1.18.12-1.13-.25.12-1.84.14-2.22c.45 0 .92 0 1.38-.09 2.1-.1 2.67-.68 2.67-.68zm-19.13 3.37c-.72.57-1.51 1.07-2.2 1.68s-1.2 1-1.8 1.53l-.13.22-17.49 14.46c-.79.64-1.44.93-1.89.44s.2-1.19.2-1.19l47.31-38.7 1.13.92zm18.54-24.28c.8.05 1.6.08 2.41.1l2.37 1.93-4.67 3.8c-.21-3.04-.15-5.73-.15-5.73zm58.3 43.23c-.15.32-.28.4-.75.31a7.09 7.09 0 0 1-1.67-1.14l-83-67.6c-1.13-1-3.78-2.91-4.27-3.32.28-.07.8-.14 1.07-.2l3.61 2.59 24.82 20.1c.09.1 60.24 48.8 60.24 48.8s.05.24-.09.56zm-44-38.22c0 .19-.1.39-.16.61l-4.53-3.67 2.91-2.39a7.83 7.83 0 0 0 .94-.16 8.49 8.49 0 0 0 2.12-.84c.37-.25-.69 3.95-1.31 6.56zm1.92-8.36a3 3 0 0 1-1.31 1l1.6-1.31a3.24 3.24 0 0 1-.32.42zm40-34.15l-47.22 38.91-1.11-.85s46.76-38.75 47.14-39a2.21 2.21 0 0 1 1.49-.42 3 3 0 0 1 1.14.14zm-23.87-1.31h21.17L179 183.14c-.09-1-.2-1.88-.28-2.57-.22-1.87-.86-7.48-.89-8.81-.05-.51-.1-2.59-.17-5.06zm57.71-1.32H167l-.23-1.43.08-.31 62.81-.21h5c.71 0 1.5.33 1.46 1a1.06 1.06 0 0 1-.75 1.06z" fill="#692f23"/><path d="M120.53 44s3.3-2.06 5.24-2.17a24.8 24.8 0 0 0 3.57-.27c.41-.16.25-1-.31-1.24a8 8 0 0 0-3.92.12 11.44 11.44 0 0 0-4.77 3.18s-.34.38.19.38zM160.52 40.92a19.75 19.75 0 0 1 4.48 1.2 20 20 0 0 0 2.3 1c.31 0 .83.06.09-.73a8.46 8.46 0 0 0-6.2-2.77s-1.11.31-1.16.7c-.03.05-.36.47.49.6z" fill="#692f23"/><circle cx="205.49" cy="120.12" r=".6" fill="#692f23"/><circle cx="202.27" cy="123.12" r=".6" fill="#692f23"/><circle cx="208.27" cy="123.12" r=".6" fill="#692f23"/><circle cx="200.95" cy="126.32" r=".6" fill="#692f23"/><circle cx="209.1" cy="126.5" r=".6" fill="#692f23"/><circle cx="200.07" cy="129.76" r=".6" fill="#692f23"/><circle cx="210.32" cy="130.03" r=".6" fill="#692f23"/></g></g></svg>