<svg xmlns="http://www.w3.org/2000/svg" width="300" height="250" viewBox="0 0 300 250"><g data-name="Слой 24"><path fill="none" opacity=".48" d="M0 0h300v250H0z"/><path d="M196.38 222.25s1.36-3.84 2.18-4.36a18.29 18.29 0 0 1 6.19-1.84c3.4-.54 8.47-1.16 9.25-.82s2.89.68 4.08 1.7a24.3 24.3 0 0 1 3.2 3.27c1.09 1.33 3.74 4.59 3.13 6.74s-1 3.27-1.63 3.54-9 2.59-9.19 2.59-10 .51-12.18-.07-4-3.2-4-3.2-2 3-4.83 3.27-3.2.27-3.2.27-6.53-.31-12.25-.41-5.65-2.08-6.53-3.13-2.28-4-1.29-6 3.33-4.32 4-5.44 3.84-3.3 5.38-3.13 8.17.75 9.25 1.16 6.5.14 7.08 2 1.36 3.86 1.36 3.86z" fill="#efb000"/><path d="M154.45 156.71s-1.73 4.91-1.52 7 .73 5.54 2.14 7.11 3.19 3.66 4.65 4.34 4.1 1.62 4.5 1.25.65-.63.47-1-3-2.67-3-3.87a9.08 9.08 0 0 1 .52-3.19c.18-.08 1.75 1.86 2.61 2.14s1.46.5 1.71.05 0-1.86-.45-3.09a32.83 32.83 0 0 1-.78-5.65c0-.6-1.2-5.41-1.73-5.59s-8.12-.49-9.12.5z" fill="#fbdfcb"/><path d="M254.37 140.77c-.18-4.39-8.05-18.4-8.47-19.19s-2-8-2.77-10.09-4.55-4.94-8.57-11.24-11.06-13.42-13.23-14.65a65.55 65.55 0 0 0-8.47-3.6c-.58-.1-7-1-7-1s0-2.77-.11-3.63c0 0-1.83.9-7.45 2-.68.13-4.06.4-4.76.44a35 35 0 0 1-6.14-.3c-1.68-.24-6.66-1.37-6.66-1.37l-.23 4-4.13.94-2.77.68-4.1 1.24c-1.15.47-.52 1.88-.52 1.88a59 59 0 0 1-4.44 4.34c-2.56 2.25-6 9-8.26 13.28s-4.65 12.44-5.07 14.33-3.14 14.9-3.14 14.9-1.33 3-1.93 4.24-.21 4.91-.21 4.91a9 9 0 0 0-1 4.6c.21 2.43 7.53 4.44 7.53 4.44s-.86 2.82 3.82 4.29 10.2-1.67 10.41-1.62.13-2.43.1-2.72.63-9.33.63-10.77-2-2.48-.73-5.39 1.67-20.81 2.61-23.53 1.31-14.74 1.31-15 7.27-1 7.27-.73.52 4.56 4.1 5.66 26.38-.2 28.26-1.32 1.59-7.19 1.78-7.16 5.12-.05 5.12-.05-1 10.27 1.15 12.39 5 8 5.18 8.21 1.52 15.48 2.25 22.06a80.68 80.68 0 0 0 2.41 12.29s2.25 6 8.31 7.42 12.34-.94 14.17-2.61 3.93-8.18 3.75-12.57z" fill="#fff"/><circle cx="170.71" cy="95.12" r="4.55" fill="#fd8204"/><circle cx="208.88" cy="100.24" r="4.55" fill="#fd8204"/><path d="M233.84 125.59a4.55 4.55 0 0 1-9.1 0c.34-1.21 1 .11 5.11-3.44 2.51 0 3.99.93 3.99 3.44zM236.08 101.6a4.55 4.55 0 0 1-8.74-1.77 3.87 3.87 0 0 1 4.18-4.08c2.48 4.34 4.79 5.3 4.56 5.85zM251.51 132.58a4.55 4.55 0 0 1-6.29-4.21 3.78 3.78 0 0 1 2.42-3.78c2.29 6.08 4.97 7.53 3.87 7.99zM217.63 82.86a4.55 4.55 0 0 1-9-.92c3.19-.72 9.06.62 9 .92z" fill="#fd8204"/><circle cx="162.45" cy="121.47" r="4.55" fill="#fd8204"/><path d="M170.24 90.4c-.21 0-1.5-4.34-1.12-4.88s2.44-2.16 3.42-1.39 2.16 4.74 2.16 4.74a5.53 5.53 0 0 1 2.09 1.39 13.52 13.52 0 0 1 1.25 4.25 13.26 13.26 0 0 0 .42 3.42c.38 1 1.46 3 2.58 3.56s6.2.84 6.2.84 19.42.35 21.61-.63 2.16-1.85 2.44-3.14.71-4.9.71-4.9-2.39-1.2-2-3.33 2.34-3.8 2.37-4.6-.42-3.52.51-3.68 3.92-.92 4.24.89a24.45 24.45 0 0 1 .21 4.67c0 .31.8.56 1 2.23a7.39 7.39 0 0 1-1.13 3.76s-1.1 8.89.09 10.39a77.7 77.7 0 0 1 5 6.9c1 1.74 2.3 14.68 2.58 16.38s1.6 16.24 1.6 18.61-.59 13.59-.91 17.43a98.78 98.78 0 0 1-2.79 15.13c-.91 2.65.17 16 0 19.24s-.66 6.66-.91 9.2.31 8.37-.24 9-1.08 2.68-1.36 2.58-2.82-2.82-5-3a70.89 70.89 0 0 0-15.26 1.45c-1 .27-1.4.41-1.54-.53s-.14-19.28-.49-20.71a20 20 0 0 0-2.09-4.11s-1.12 9.38-1 11.71 0 13.18-.35 13.52-12.69-1.46-13.94-1.46c-4.38 0-7.77 3.14-8.09 2.93s-.5-1.67-.62-3.07c-.09-1-.46-11.74-.49-14s-.8-16.24-.84-17.43a42.93 42.93 0 0 0-.56-7.32c-.52-2.13-2.89-13.14-2.93-14.78s.21-12.06.35-13.25a19.06 19.06 0 0 0-.28-5.09 31.75 31.75 0 0 1-.7-5.51c0-.94 1.67-10.07 1.67-12.13s1.46-12.72 1.29-13.51.94-5.84.94-7.2.63-6.83.37-7.76-1.93-4.3-1.55-5 1.09-1.81 1.09-1.81z" fill="#7a4c2c"/><circle cx="152.2" cy="133.18" r="4.55" fill="#fd8204"/><path d="M156.33 152.22a4.55 4.55 0 0 1 8.67-1.93c.28.58-5.21 2.08-8.67 1.93zM180.61 106.26s-.21 3.22.21 3.61 30.38 0 30.38 0l-.31-4.39-30.27-.1z" fill="#fd8204"/><path d="M188.12 79.34c.73.08 1.48.15 2.24.2a28.63 28.63 0 0 0 5.33-.2zM205.81 79.34c.08.88.21 1.7.39 1.63a14.89 14.89 0 0 1 2.85-.53h4.28a21.41 21.41 0 0 0 5.4-1.11z" fill="#e09c51"/><path d="M185.74 79.34a51.83 51.83 0 0 0 12.73 0z" fill="#fbdfcb"/><path d="M241.68 129.47l-.38-.25-.39-.21-.49-.13a3.1 3.1 0 0 1-2-.9 3 3 0 0 0 .64.91 6.33 6.33 0 0 0 2.7.7z" fill="#fff"/><path d="M235.74 134.6c0-.44-3.77-1.61-4.44-2.55s-.72-2.44.89-2.44 4.33 1.05 4.77.67l.44-.39.67 1.5-.11 3.77a1.59 1.59 0 0 0 1.78.56c1.28-.28 1.33-1.78 1.33-1.78l-.22-3.33a4.35 4.35 0 0 1 3.11.33c1.44.83 3.16.89 3.89 2.66s1.28 4.11 1.78 5.44-.06 3-.67 5.11a51 51 0 0 1-2.22 5.55s-4.38.67-6.22.67-4.77-.39-6.11-1.67a2.17 2.17 0 0 1-.67-2.33 13 13 0 0 1-1.33-3.11c-.28-1.33.56-4.77.56-4.77s-.33-1.78.33-2.11a24.68 24.68 0 0 1 3.11-.89z" fill="#fbdfcb"/><path d="M238.42 127.94c-.24-.72 1.09-53.06 1.09-53.06s-.39-3.11 1.33-3.44 1.44 4.22 1.44 4.22L241 134.71s.33.5-1.22 1-1.78-.56-1.78-.56zM236.73 206.2l1-55.5a5 5 0 0 1 1.78-.33c1 0 1.22 3.33 1.22 3.66s-.89 52.17-.89 52.17-1.84 2.88-3.11 0z" fill="#efb000"/><path d="M235.88 226.55c-.26.11-15.76 5-15.76 5s-8.07 2.44-9.4 3.33-2.15 2.29-1.85 3.11a10.55 10.55 0 0 0 1.18 3c.63.78 6 6.85 7.1 7.18s5.48-.41 6.14-.59 40.33-13.16 40.71-13.38 3-1.33 3.31-2.25a4.76 4.76 0 0 0 .07-2.89c-.33-1.11-6.29-5.59-6.73-5.92a18.08 18.08 0 0 0-3.63-1.92c-.45 0-21.14 5.33-21.14 5.33z" fill="#fd8204"/><path d="M236.51 220.41l-.11 8.59-5.77 2.11s-3.11.17-3 1 2.33 3 2.33 3l3 2.66 17.21-5.11a2.14 2.14 0 0 0-.56-1.89c-.83-1.05-4-4.33-4-4.33l-6.11 1.78-.11-20.65-2.55-.33z" fill="#c7c0b1"/><path d="M246.61 225.85s9.77-2.61 10.32-2.44a67 67 0 0 1 5.22 4.44 4 4 0 0 1-2 1.78c-1.17.28-8.33 2.55-8.33 2.55l-1.44-.56-4.77-5.22zM214.2 236.28l4.44 5.55s2.89.67 3.66.33 9.66-4.33 9.66-4.33l-2-2.78-2.33-3z" fill="#f5e0c7"/><circle cx="184.32" cy="81.64" r=".59" fill="#692f23"/><circle cx="188.68" cy="81.1" r=".57" fill="#692f23"/><ellipse cx="192.18" cy="83.08" rx=".58" ry=".57" fill="#692f23"/><circle cx="196.43" cy="81.16" r=".61" fill="#692f23"/><circle cx="200.48" cy="81.72" r=".6" fill="#692f23"/><circle cx="203.81" cy="79.52" r=".6" fill="#692f23"/><circle cx="192.56" cy="87.42" r=".65" fill="#692f23"/><circle cx="197.07" cy="89.87" r=".65" fill="#692f23"/><circle cx="193.13" cy="94.69" r=".65" fill="#692f23"/><circle cx="188.81" cy="98.49" r=".65" fill="#692f23"/><path d="M193.73 101.86a.65.65 0 0 0-1.1 0z" fill="#692f23"/><circle cx="197.5" cy="97.91" r=".65" fill="#692f23"/><circle cx="188.51" cy="90.63" r=".65" fill="#692f23"/><path fill="#692f23" d="M199.6 84.98h-.01.01zM211.64 105.33c-.29-.51-1.52-.47-1.52-.47h-17.8s-10.18-.19-11.33-.14a1 1 0 0 0-1 1.08s-.09 2.95 0 4 1 1 1 1 28.78-.07 29.8 0 1-.56 1-.56.26-4.16-.15-4.91zm-1.92 4.1h-27.61c-.92 0-1-.31-1-.31A16.89 16.89 0 0 1 181 107c.05-.94.49-.91.49-.91h10.81s16.73 0 17.46.07.8.47.8.47v2.11c0 .75-.85.69-.85.69zM178.9 94.52s.03.02 0 0zM214.47 138.67l.23-22.58a1.24 1.24 0 0 0-1.18-1.18c-1.14-.09-35.14 0-35.14 0s-1.39-.07-1.36 1.65 0 22.22 0 22.22a2.61 2.61 0 0 0 2.93 2.69l31.23-.3c3.52-.03 3.29-2.5 3.29-2.5zm-2.36-22.49s.38.12.22 1.1a29.1 29.1 0 0 1-1 3.83c-.4.92-.44 1.21-1.53 1.3s-28.77 0-28.77 0-.55-.07-.84-.86-1.33-4.59-1.33-4.59-.25-.8.38-.81zm.95 21.77s.24 2-3.32 2.09c-1.56 0-29.68.15-29.68.15s-1.59-.07-1.65-1.54c0-1.1-.14-12.5-.1-18.32.28.91.52 1.7.6 1.9a2.67 2.67 0 0 0 2.64 1.59c1.79.08 19.89.17 27.44.11 2 0 2.6 0 3.4-2.12s.78-2.88.88-2.75-.21 18.94-.21 18.94z"/><path d="M268 229.29a2.12 2.12 0 0 0-.73-1.42s-7.72-6.13-8.78-6.61a5.85 5.85 0 0 0-2.51-.33l-15.9 4.07 1.11-61.42.13-7.08s1.61 0 4.22-.14a7.1 7.1 0 0 0 4.69-1.83 31.71 31.71 0 0 0 2.28-4c.31-.64 2.12-5.34 2.3-6a12 12 0 0 0 .22-3.89c-.17-1-.65-2.91-.84-3.66 0-.1 0-.2-.08-.31a41.62 41.62 0 0 0-4.11-8 29.32 29.32 0 0 1-1.72-4c-.47-.92-.94-1.58-1.61-2.94a23.29 23.29 0 0 1-1.44-5.11 42.13 42.13 0 0 0-2.5-6.66 3.59 3.59 0 0 1-.45-1.87s.5-34 .27-35.42a1.74 1.74 0 0 0-2.43-1.44c-1.19.31-1.22 2-1.22 2s-.94 30.19-.83 30.47c0 0-2.8-3.36-4.11-5.05s-5-7.3-8-10a35.85 35.85 0 0 0-7.71-5.14 4.44 4.44 0 0 0-3-2.07 6.21 6.21 0 0 0-2.76.07c-.41 0-16.34 3.38-17.6 3.09a44 44 0 0 1-7.64-.36s-1.5-.42-2.12-.64a11.14 11.14 0 0 1-3.11-1.8 3.73 3.73 0 0 1-.59-.9 6.9 6.9 0 0 1-2.99 1.1 14.47 14.47 0 0 1-3.54.36 16.37 16.37 0 0 1-2.27.94 42.46 42.46 0 0 0-4.38 1.49 1.27 1.27 0 0 0-.66 1.57c0 .07.09.25.18.52-.72.71-3.18 3-3.18 3-3.45 3.43-8 11.66-9.48 15.09a111.66 111.66 0 0 0-4.5 13.39c-.45 2.13-2.6 11.64-2.86 13.42a17.15 17.15 0 0 1-.77 3.14 24 24 0 0 0-1.57 2.44A5.59 5.59 0 0 0 145 141a4.43 4.43 0 0 1 .1 2.06 4.45 4.45 0 0 0-.91 3.63c.16 1.1.21 3.08 6.38 5l1 .28c0 .21-.09.68-.12 1.22s.12 1.88 2.13 2.89l.41.18a14.69 14.69 0 0 0-1.15 3.1 18.44 18.44 0 0 0 .91 9.62 11.29 11.29 0 0 0 5.05 5.89c.85.63 3.63 2.06 5.33 1.92a1.36 1.36 0 0 0 1.25-2.06c-.24-.59-1.93-1.55-2.54-2.37a3.58 3.58 0 0 1-.84-2.54c-.05-1.32.38-1.15.38-1.15a5.42 5.42 0 0 0 2.79 2.58c1.62.63 2.09-.24 2.09-.24.3-.28-.09-1.64-.31-2.09a23.88 23.88 0 0 1-1-4.57c-.09-1.2-.42-4.43-.66-5.72a7.7 7.7 0 0 0-1.08-2.51s2.18-1.64 2-.42a97.37 97.37 0 0 0 1.25 13.94 28.2 28.2 0 0 0 1.49 4.67c.19 1.19.29 3.69.36 5.89.07 2.4.11 7.27.07 9.74a29.34 29.34 0 0 0 .71 7 27.65 27.65 0 0 1 .66 4.72s.12 7.11.19 7.51a10.66 10.66 0 0 1 .07 2.79 18.77 18.77 0 0 0 .21 3.59 11.1 11.1 0 0 0 0 2.41 1.43 1.43 0 0 0 1 .92 8.3 8.3 0 0 0-1.82 1.33 6.41 6.41 0 0 0-2 3.15 11.77 11.77 0 0 0 .22 4.43 6 6 0 0 0 3.79 4.31 30.79 30.79 0 0 0 5.93 1.54c1.54.26 10.39.3 11.89.26a17.87 17.87 0 0 0 4.39-.56 3.56 3.56 0 0 0 2-2.19 5.1 5.1 0 0 0 1.54 1.78c2 1.15 5.18 1 8.29 1h.15l4 .11c-.61.43-1.87 1.4-1.93 2.26a8.44 8.44 0 0 0 .89 4.35 82.21 82.21 0 0 0 7.89 8.39 4.51 4.51 0 0 0 2.48 0s46-15.14 47-15.53a1.72 1.72 0 0 0 1.14-1.17s.01-2.16-.07-3.05zm-25.8-117.22s1.39 4.08 2.25 6.27.22 1.94.22 1.94a5.18 5.18 0 0 0-2.51-1.12zm0 8.87c2 .31 2.26.87 3.29 1.84a17.4 17.4 0 0 1 3 5.33c.53 1.55 2.25 4 3.22 6.33l1.39 3.33a14.33 14.33 0 0 1 .78 6.36 23.25 23.25 0 0 1-2.25 6.52c-1 1.62-3 4.36-5.33 4.77a26.13 26.13 0 0 1-5.05.28s0-4-.12-4.91h.14c1-.25 3.8-.92 4.33-.44s.39.67.17 1 .64.19 1.83-1 1.58-3.36 2.44-5.61a8 8 0 0 0 .33-5.44c-.44-1.22-1-2.64-1.28-3.61a7.74 7.74 0 0 0-1.17-2.78c-.8-1.22-4-2.91-6.08-3.05-.05-.04.32-8.92.32-8.92zm-2.37-45.51c.06-.89-.22-3.27.89-3.22s.94 1.28.94 1.28l-.44 38.57s-.67 22.4-.94 22.87-1.61.44-1.61.44 1.06-59.05 1.12-59.94zm.44 61A4.8 4.8 0 0 0 243 135c.53-.69.44-1 0-1.11s-.44.19-.89.56-.56.06-.56.06l.18-3.33c.1-.12.34-.25.93-.17 1 .14 4.3 1.67 5.33 3.5s.14 2.61.39 3.5 1.36 2.33 1.17 3.55a4.83 4.83 0 0 1-1.17 2.28c-.28.42.19 1.55-.11 2.28a4.55 4.55 0 0 1-.78 1.22 3.12 3.12 0 0 1-1.94 2.28c-1.64.56-5.55.5-7 .39a10.86 10.86 0 0 1-3.44-1.11c-.75-.31-1.44-1.19-1.11-1.83s1.75.68 3.22 1a6.88 6.88 0 0 0 2.08.11c.47 0 3.62-.08 4.94 0s1.12-.65.61-1a6.81 6.81 0 0 0-3.66-.14 8.81 8.81 0 0 1-5.36-.39 3.52 3.52 0 0 1-2.55-2.22c-.47-1.3.5-1.14.78-.94h.07c.27.1 1.26.46 1.57.61a5.53 5.53 0 0 0 3.44 1 6.84 6.84 0 0 0 3.44-.64 11.8 11.8 0 0 1 2.91-.11c.68 0 .8-.26.39-.83s-1.69-.51-2.41-.47-2.12.76-3 .89a5.06 5.06 0 0 1-3.25-.36 11.48 11.48 0 0 0-2-.89.8.8 0 0 0-.33-.06 2.36 2.36 0 0 1-1.5-.86c-.47-.78-.43-1.43 0-1.8a.61.61 0 0 1 .67.08 10.36 10.36 0 0 0 3.64 1c2 .26 6.24-.85 7-.94s1.75 0 2.11-.11.36-.82 0-1.08-1.6.35-2.86.5a44 44 0 0 1-7.33.31 4.6 4.6 0 0 1-2.45-.69 2.46 2.46 0 0 1-.54-.52c-.64-.89-.26-1.57.78-1.93s4.59.15 5.82-.16zm9.67 95.14c.33.62-.9 1-1 1.09s-12.94 3.68-13.52 3.9-2.31.67-3 .14-3.1-3.35-3.1-3.35-.95-.94-.73-1.25 6.66-2.44 7.31-2.64v1c.06 1.47.32 2.15 2.34 2.06C240 232.47 240 230 240 230v-1.64c.71-.24 3.18-.92 4.14-1.12 1.47-.31 1.9.16 1.9.16a42.19 42.19 0 0 1 3.86 4.17zm-2.52-5.25c.71-.28 8.66-2.08 9.33-2.14s4.07 2.66 4.43 3.58-.67 1.13-.67 1.13-7.78 2.59-8.67 2.59a2.82 2.82 0 0 1-1.13-.24c-.37-.44-1-1.16-1.47-1.85a12.91 12.91 0 0 0-2.28-2.17c-.31-.22-.3-.62.42-.9zm-15.61 11.3c-1.28.43-9.91 3.48-10.81 3.69s-1 0-1.59-.45-4.18-3.85-4.18-3.85-.33-.42.53-.78 10.24-3.23 10.88-3.29a1.34 1.34 0 0 1 1.1.26 33.14 33.14 0 0 0 3.11 3.65zm-6.81-12.4a5.54 5.54 0 0 0-1.89-4.43 12.05 12.05 0 0 0-.95-.83 6.36 6.36 0 0 0-1.26-1 1.33 1.33 0 0 0 .82-.86c.17-.7-.28-1.59-.17-2.2s.35-1.5.35-1.5.31-3.71.35-4.67.82-4 .73-5.68.26-8.19.35-9.48 0-9.15 0-9.15a31.56 31.56 0 0 1 .33-6c.23-1.09.92-1.46 1.17-4.66s1.39-18.86 1.53-20.6a22.62 22.62 0 0 1 .77-4.53c.16-.1 1.43 1.32 1.43 1.32.72.94 2.36 2.86 3.16 3.83s4.5 1.91 5.11 1.94a.3.3 0 0 0 .19 0c-.07 4.06-.14 9-.17 11.07v.3s-.85 43.93-1 58.11L224 229.8c1-1.11 1.07-2.64 1-4.58zm8.09-90.62a3.54 3.54 0 0 1 2.5.83c-1.72-.06-2.89.34-3.27 1.17a4.37 4.37 0 0 0-.06 2.16 2.23 2.23 0 0 0-.78 1.19 21.25 21.25 0 0 0-.42 4.77c.06 2.05 0 3.8 1.11 4.94a7.22 7.22 0 0 0 2.22 1.58s.12-.09-.11-.25a5.61 5.61 0 0 1-2.28-4.27 7.34 7.34 0 0 1 .35-2.89 7.32 7.32 0 0 0 .51 1.36 4.07 4.07 0 0 1 .5 1.67 2.45 2.45 0 0 0 1.55 2.72c1.56.75 2.11 1 2.24 1 0 .61 0 2.53-.09 4.9-.21 0-2.95-.26-4.15-1.16s-3.27-4.36-4.05-5.83a12.16 12.16 0 0 1-1.33-3.61c-.19-1.05.92-4.8 1.39-5.87a20.32 20.32 0 0 1 1.72-2.73 3.47 3.47 0 0 1 2.49-1.68zm-1.39-4.38c.8-.31 3.8.55 4.77.61a3.28 3.28 0 0 0 1.24-.14c0 1.64 0 3.37-.3 3.58a.85.85 0 0 1-.52.13s-.53-.14-1.25-.37a14.51 14.51 0 0 1-3.39-1.45c-1.25-.95-1.32-2.06-.51-2.37zm6.41 34c0-4.75.09-11.44.16-12.4.05-.72.31-1 .56-1.07h.55a.79.79 0 0 1 .59.76l.03 13.23h.06c-.23 11.25-.72 28.17-1 42a1.65 1.65 0 0 1-.72.15 2.82 2.82 0 0 1-1-.29c.18-12.4.56-27 .76-37.55s0-1.69 0-4v-.79zm-.21 44a3.92 3.92 0 0 0 1.05 0c-.24 12.29-.43 21.84-.44 22.24 0 1.14-.33 1.25-1 1.2s-.61-.86-.61-.86l.4-22.8a1.38 1.38 0 0 0 .64.21zM218.36 84.85a24.51 24.51 0 0 1 3.54 2.22 34.81 34.81 0 0 1 7.78 7.72c2.53 3.3 2.93 4.28 4.05 5.82.75 1 3.8 4.33 4.22 4.86.09.11-.33 22.15-.33 22.15s0 .62.08 1.47a1.93 1.93 0 0 1-1.13.58c-.94.14-3-.89-4.55-.61s-1.69 1.11-1.72 1.78a2.27 2.27 0 0 0 1.05 1.94s.31.25-.44.67a6.9 6.9 0 0 0-2.05 3.05c-.36 1-.61 2.8-1.28 3.27s-.74 0-.94-.65c-.23-3.15-.7-7.64-.83-8.87a9 9 0 0 1-.09-3.23 17 17 0 0 1 1.65-2.52c.92-1.3 4.05-2.28 5.72-2.78s1.28-.94 1.28-.94-.3-.68-3.31.27c-3.37 1.06-4.07 3.2-4.07 2.61a6.4 6.4 0 0 1 .77-2.9 14.17 14.17 0 0 1 2-2.76c.72-.78 1.23-1.31 1.13-1.44s-1.07.08-2.39 1.25a8.31 8.31 0 0 0-2.71 4.58c-.22 1.33-.64 2.61-.72 2s-.44-6.08-.44-7.22.83-2.16 1.05-3.11.72-5.41.22-5.27-.56 1.17-.5 2.11-.47 3.33-1.28 2.78-2.36-8.48-2.5-9.49-.19-2.58-.55-1.89c-.26.5.09 3.85.41 6.22-.66-.6-3-2.82-3.39-4.35-.45-1.74.31-9.32-.21-10.14 1-.4 1.12-1.29 1.22-2.51s.36-3.16-.86-3.85c.02-.01.12-1.48.12-2.82zm-5.36-.62c0-1 .31-1.36.78-1.41.92-.1 2.92.11 3 1.43a28.77 28.77 0 0 1 0 3c-1.4-.25-2.85-.31-3.78-.44-.06-.67 0-1.94 0-2.58zm-.42 4.18c5.4.09 5.24 1 5.24 1a8.51 8.51 0 0 1-.2 2.66c-.33.92-1.06.71-1.06.71s-2.21 0-2.86-.1-2-.08-2.5-.6-.64-1.14-.48-2.5 1.65-1.17 1.84-1.17zm-12.63.08c.34-2.64 1-3.43 1.74-4a11.77 11.77 0 0 1 4.54-2.23 13.61 13.61 0 0 1 5.35-.16 2.18 2.18 0 0 0-.19.74v3.8c-1 0-1.49.81-1.76 1.56a7.45 7.45 0 0 0-.19 3.91 4.15 4.15 0 0 0 1.73 1.89s-.49 3.05-.59 4.25-.17 2.27-1.22 2.82-8.51.73-8.51.73h-1c-.09-5.09-.03-12.48.08-13.31zm-.6-2.67a18.07 18.07 0 0 0-.71 4.06v2.28a42.91 42.91 0 0 1-5-1.74zm-7.69 13h.09c-1.32.72-3.39 1.61-4.21 1.95a35.39 35.39 0 0 1-.34-4.43v-.87c.55.46 3.66 2.89 4.44 3.33zm-3.3-4.13l4.2-3.38a40.64 40.64 0 0 0 5.78 2.15 37.89 37.89 0 0 1-5.17 4.5 21.77 21.77 0 0 1-4.84-3.29zm4.77 4.77a34.68 34.68 0 0 0 5.17 1.64l-.63.69h-9a38.51 38.51 0 0 0 4.44-2.34zm1.31-.92a25.5 25.5 0 0 0 4.28-3.61c.06 1.58.12 3.31.17 4.92a18.74 18.74 0 0 1-4.47-1.32zm1.08-13a21.21 21.21 0 0 0 3-.33c-1.14.81-2.85 2.21-3.31 2.56s-1.8 1.41-2.67 2.13h-.09a28.7 28.7 0 0 1-3.26-2.65 22 22 0 0 1-1.72-1.74c2.3.09 6.35.01 8.03.01zm-8.74 1s1.62 1.53 4.76 4.16l-4.33 3.45c-.09-2.75-.5-6.13-.55-6.93s.1-.69.1-.69zm-12.08-2.07l2.62-1c.95-.4 1.73-.69 2-.8.68.31 1.79.82 2.68 1.19.28.14 1.18.48 2 .79a1.85 1.85 0 0 1 1.14.87 5.54 5.54 0 0 1 .51 2.73c0 1.54.4 8.78.64 11.44a18.34 18.34 0 0 0 .27 2.11h-1.45c-1.46-.07-4.07-.35-5-1.64-1.55-2.19-1.46-3.55-1.46-3.55.73-.28.39-2.29.39-2.29a34 34 0 0 0-1.2-4.19c-.37-.58-.61-1-1.62-.93-.04-.29-1.64-4.68-1.52-4.73zm2.41 10.18c-.28.38-1.17.84-2.89 1.22s-2.92.67-3.31-.1c0 0-1.19-2.17-1-3.1a1.53 1.53 0 0 1 .63-.72 5 5 0 0 1 1.48-.59c1.31-.37 3-.7 3-.7s1.17-.29 1.5.57 1.06 2.77.59 3.42zm-5.58-10c.91-.25 1.12.33 1.32.66s1.35 3.28 1.62 4.07a16 16 0 0 0-3.81 1 21 21 0 0 1-1.51-3.92c-.15-.76.39-1.24 2.38-1.78zm-21 41c.14.58 1.48 2 1.32 1.39a28.3 28.3 0 0 1 .31-9.86 96.53 96.53 0 0 1 9.06-20.53c3.76-6 7.08-8.12 7.08-8.12a23.93 23.93 0 0 0 .94 2.34 2.77 2.77 0 0 0-.82.87 2.94 2.94 0 0 0-.18 1.79c.24.87 1.53 3.94 1.53 3.94s-.28 7.3-.49 10.74-1.22 5.16-1.67 5.4-1.48-4.18-1.67-4.15a6.12 6.12 0 0 0-.28 3.21 18.71 18.71 0 0 0 1.6 4.71c.56 1.22-.31 12.1-.8 14.71s.07 5.77-3.87 6.31-11.5-1.31-12.13-1.6-1.45-.35-1.85-1.57 1.8-10.13 1.94-9.56zm14.12 37.09a15 15 0 0 0 1.32 5.89c.81 2 .54 1.83.52 1.81-1.5.87-3.42-2.53-3.66-3s-.37-2-.91-1.78-1 1.85-1 4.25.82 2.86 1.88 3.94 2.07 1.39 1.43 1.78-1.85.12-2.93-.49-3.36-2.28-3.76-3.52-.85-2.82-1.39-3.28-.82-.23-.42.28a4 4 0 0 1 .49 2.06c0 .47.52 1.36.35 1.25a7.92 7.92 0 0 1-1.43-2.16 16.39 16.39 0 0 1-1.46-7.81 24.19 24.19 0 0 1 1.51-5.42 20.5 20.5 0 0 0 7.55-.14 7.25 7.25 0 0 0 .83 1.21c.69.78 1.22 3.65 1.1 5.15zm.91-8.54a10.39 10.39 0 0 1-3.29 1.29 17.32 17.32 0 0 1-7.44-.21 2.1 2.1 0 0 1-1.81-2 4.77 4.77 0 0 1 0-1 20.39 20.39 0 0 0 9-.39 24.34 24.34 0 0 0 3.49-1.12s.43 3.02.06 3.45zm.59-5.37c-2.69 2.07-8.77 3-12.13 2.58-6.07-.75-7.88-3.12-8.53-4.3-.94-1.71.78-3.84 1.35-3.83s2 1.45 4.6 1.6 3-.47 2.75-.73-.19.33-3.59-.49-4-2.39-4.22-3.94a4.19 4.19 0 0 1 1.12-3 3.74 3.74 0 0 0 1.39 1c.94.4 7 2.28 10.67 2.16s5.73-.68 6.2-.24.51 1.71.31 2.89a2.82 2.82 0 0 0 0 1.6 12.86 12.86 0 0 1 .59 2.82 3.07 3.07 0 0 1-.5 1.9zm1.1-5.39c0-.72.49-1.63.57-3.15a4.81 4.81 0 0 0-.8-2.73c-.26-.73.75-3.68 1.12-6.33s.9-15.6.9-15.6c1.2-2.86 1.8-7.88 2.06-9.93s.18-7.21.46-7.71 1.46-.7 3-1c.85-.18 2.42-.51 2.53-.18s1.75 4.18 2.58 4.88c1.35 1.13 4.95 1.27 6.87 1.29s15.84 0 19.59-.21 3.91-.33 5-1.45c.82-.82 1-6.67 1.2-7.22.14-.27 2.37-.11 2.37-.11s1.9-.06 1.91 1.07-.1 5.67 0 7.45c.12 3.65 1.16 4.25 2.17 5.28a18.27 18.27 0 0 1 3.27 4.26c.42 1.9 1.08 4.76 1.14 5.84.08 1.42.39 4.61.39 4.61 0 2 .14 4.46.19 5.25.11 1.65 1.54 10.45 1.5 14.13 0 .65-.09 2.95-1.55 3.55-.59.24-5.24 2.6-18.65 3.3s-32.93-1.92-34.06-2.13-2.43-.27-3.12-1.23a4.63 4.63 0 0 1-.62-1.9zm57 6.85c-1.29.91-5.87 1.83-8.51 2.41a171.94 171.94 0 0 1-20.95 1.39c-6-.09-24.12-1.59-25.48-2.51s-2.06-1.74-1.29-2.93 1.85-.61 2.68-.42 15 1.65 20.74 1.89a140 140 0 0 0 23.81-1 44.7 44.7 0 0 0 8.82-2.37c.77-.23 1 .62 1 .62s.53 2.04-.76 2.95zm-53.11 41.33c-.19-1.35-.41-8.07-.11-9.15a2.69 2.69 0 0 1 1.13-1.54c.26-.3-.26-.41-.64-1.13a23.38 23.38 0 0 1-1.24-4.35 8.21 8.21 0 0 1-.11-.92s-1-3.57-1.24-4.67a58.6 58.6 0 0 1-1.12-7.08c0-1.53-.37-5.3-.17-7.29s1-1.55 2.09-1.5c.86 0 4.37.47 9 1 3.38.37 16 .92 23.11.78a92.91 92.91 0 0 0 13.38-1.3s6.79-1.39 7.67-1.74 2-.59 2.13.66-1.06 18.07-1.5 19.52a40 40 0 0 1-1.43 4.88 8.86 8.86 0 0 1-1.57 2.75s-.34.35.49.8c.64.35.6 2.71.58 4.29 0 0 .09 6.08-.05 9.24s-.68 10-.73 11.4a34.45 34.45 0 0 1-.52 4.88c-.16.3-.92-.54-2.3-.77s-8.24.84-10.07.8a44.83 44.83 0 0 1-6.73-.42 9 9 0 0 0-2.15-.32s-.53-10.68-.5-11.71-.1-5-.52-5.79a66.8 66.8 0 0 1-1.27-10.77c0-2.27.09-6.3.22-9.72.17-.26-.12-7.08-.12-8.52s-.05-1.78-.38-1.73-.39 4.34-.78 4.37-1.29-2.07-1.81-2.07.21 2.14.63 3.35a28.07 28.07 0 0 1 .65 4.6c.06 4.11-.09 11.3-.09 12.65 0 1.09.06 4.56-.26 7.85a34.71 34.71 0 0 0-.9 6.62c0 2.47.17 10.2-.38 11a2 2 0 0 1-2.09 1c-1 0-10.67-.77-11.47-.8s-3.87 0-3.87 0-3-.14-3.9.45c0 0-.47-9.48-.58-10.91.04-2.8-.24-7.31-.43-8.67zm28.33 20.13a54.41 54.41 0 0 0 5.58.66c2.39.09 8.33-1 9.38-1s4-.42 5.37.7c0 0 1 .44.63 2.34a21 21 0 0 1-.7 2c-.28.63-.5 1-1 .78a5.64 5.64 0 0 0-4.37-2.73c-2.74-.31-9.48 1-9.48 1-3.05.44-4.85.82-5 .56a6 6 0 0 1-1.12-2.65c.12-1.08-.06-1.73.76-1.64zm-27.43 1.12c.31-.63 1.64-.89 3-1a38.61 38.61 0 0 1 5.86-.24c1.13.24 8.61.91 9.9 1.15s3-.24 3.37.68a11.29 11.29 0 0 1-.41 1.76c-.24.58-.35 1-2.51.94s-8.05-1.39-10.88-1.67-5.37 1.46-6.14 1.85-1.67.85-1.6.28.87-.68.38-1.67-1.23-1.44-.92-2.06zm-1.62 10.18a7.8 7.8 0 0 1 2.39-3.47l2.65-2.46a7 7 0 0 1 4.57-1.25c1.38.16 8.35 1.22 9.48 1.32s3.87.4 4.46 1.39a16.88 16.88 0 0 1 1.12 5.56 18.07 18.07 0 0 1-.07 2.23c-.05.82-.63 1.1-1.53 1.29 0 0-2.57.14-2.9.2-.9.15-10.11.26-10.11.26a27.57 27.57 0 0 1-4.88-.61 26.58 26.58 0 0 1-3-1c-2.72-1.29-2.13-3.44-2.13-3.44zm24.65 7.52c-.1.12-.28 1.14-3.3 1.6a73.43 73.43 0 0 1-7.89.44c-5.84-.09-8.94-1.08-9.7-1.37-.26-.1-4.2-1.46-4.38-4.76v-.12a7.55 7.55 0 0 0 3 1.79c0 .06 1.89.52 2 .54a22.78 22.78 0 0 0 6.2.86c0 .06 10.81.31 13.76-.64a4.23 4.23 0 0 0 .77-.33 2.11 2.11 0 0 1-.41 2zm1.3-9.4a18 18 0 0 1-.8-4.39c0-1.2.05-5 0-5.09s.21-6 .1-7.35-.14-4.57-.14-5.86a39.39 39.39 0 0 1 .8-5.33l.1-.42a18.76 18.76 0 0 1 .67 4.46c.05 2.41 0 12.62 0 13.94s0 5.93.42 6.62a5.34 5.34 0 0 0-.8 1.92c-.07 1.01-.09 1.67-.3 1.51zm.89 4.17a18.17 18.17 0 0 1 .19-3 9.58 9.58 0 0 1 .56-2.65c.45-1.17 2-1.8 2.23-2a13 13 0 0 1 3.28-.87c2.89-.59 7.11-.94 8.51-1.19s4.48.49 5.16 1.22.92 1.81 1.88 2.37a11.62 11.62 0 0 1 3.42 4 2.69 2.69 0 0 1 0 1.93c-.7 1.34-5.31 2.79-8.34 2.95s-14.12.88-16-1.21a2.84 2.84 0 0 1-.84-1.54zm2.65 6.46c-1.27-.27-1.91-1.2-2.28-2.92v-.19a4.34 4.34 0 0 0 .47.13l.38.11s2 .47 9.9.45 9.17-.5 9.93-.62a20.51 20.51 0 0 0 4-1.46 4.68 4.68 0 0 0 1.09-.83s.41 2.63-1.31 3.79a34.14 34.14 0 0 1-8 2.13s-10.04.28-14.09-.58zm18 15a.47.47 0 0 1-.56.11c-1.38-1.35-5-5-5.83-5.94a5.61 5.61 0 0 1-1.59-3.37 4.54 4.54 0 0 1 0-.68l8.11 8.49a3.06 3.06 0 0 1-.12 1.42zm-5.35-8.17c-.59-.67-1.65-1.56-1.78-2.31s0-1 .41-1.25c.62-.32 2.17-.92 3.24-1.32 1.41-.58 3.39-1 5.8-1.73l15.66-4.88v1.48c-1.2.43-7.61 2.43-8.15 2.74 0 0-11.61 3.54-12.52 3.85-1.63.56-1.73 1.17-1.42 1.9s4.52 4.57 5.1 5.08a3.22 3.22 0 0 0 2.54.33c.89-.17 39.15-12.6 40.32-13.16s1.21-1.08.95-1.48a35.66 35.66 0 0 0-3.93-3.79c-1-.78-1.7-1.17-2.48-1s-15.64 4-16.24 4.13v-1.35c2.23-.6 14.65-3.93 15.38-4a5.7 5.7 0 0 1 2.2 0c.47.17 8.37 5.49 9 7.25 0 .08.25.77-1.34 1.28-1 .32-42.25 13.72-43.25 14.14s-2.73.61-3.49.08c-.56-.41-5.41-5.29-6-5.96zm52.92-5.55c-1.69.58-43.86 14.2-45.42 14.53a3.37 3.37 0 0 1-1.24 0 1.34 1.34 0 0 1-.1-1.38c.25-.5 1.15-.66 2.1-.81s43.26-13.67 44-13.95a17.18 17.18 0 0 0 2.22-1 2.26 2.26 0 0 1-1.55 2.64z" fill="#692f23"/><path d="M147.44 44.16s-.67-6.87 1.84-10.9a73.35 73.35 0 0 1 7-8.88s5.53-3.52 6-3.86l5.2-3.52a68.6 68.6 0 0 1 8-4c2.51-.84 7.71-4 12.07-3.18s9.22-.34 9.72 0 1.68.67 4.36 1.17 8.72 1.34 11.06 2 11.06 5.87 11.9 6.54 9.55 10.06 11.4 13.07 8.88 7.71 5.87 26S209.63 82 209.63 82a4.86 4.86 0 0 1-2.18 0c-.76-.21-.81-.64-1-.85l.5-4s9.72-7.38 10.56-8.38 6.37-7.38 7-10.06c0 0 3.74-2.68 4.08-4.25s.45-4.47-.78-5a12 12 0 0 0-2.79-.78 28.06 28.06 0 0 0-8-8c-4.92-3-3.46-2.79-3.46-2.79a36.09 36.09 0 0 1-6.28 1.11 54.74 54.74 0 0 1-7.6-1.34l-6.93 1.9-5.81 1.34-2.46-12.18a10.94 10.94 0 0 0-1.9 2.46 55.3 55.3 0 0 0-1.34 6.48c-.11 1.12-1 2.12-1.9 1.79a17.83 17.83 0 0 1-5.52-1.18s-7.56.84-10 3.08-4.08 8.38-4.08 8.38-1.84-.22-2.62.89a5.49 5.49 0 0 0-.11 4.58c.56.78 1.56 2.8 2.45 2.8a4.88 4.88 0 0 1 2.13.89S168.73 70 170 70.7s7.93 6.15 9.05 6.7 1.68 1.34 1.68 1.79 1.56 2.91-1.12 3S172 82 172 82s-7.93-2.79-10.5-4.81-9.39-8.27-11.62-11.85-4.69-8.6-3.8-12.18.22-7.15.78-7.38.58-1.62.58-1.62z" fill="#df7c3c"/><path d="M183.87 29.33a7 7 0 0 0-1.93 3.86c-.25 2.26-1 5.53-1 5.53a8.94 8.94 0 0 1-3.23.64A5.5 5.5 0 0 1 174.1 38a45.7 45.7 0 0 0-5.23 1.4c-.75.42-5.7 2.43-6.37 4.11s-2.85 5.7-2.85 5.7-2.35.67-2.35.92-1.51 2.18-.5 4.19 1.51 3.6 3.6 4.36 4.19 4.32 4.44 5.32 8.13 9.39 8.55 9.64 6.87 4.3 11.31 5.2a38.07 38.07 0 0 0 14 .34 47.62 47.62 0 0 0 9.05-2.68c1.84-.84 8.55-6.45 8.88-6.79s5.11-4.83 5.7-6.59a28.5 28.5 0 0 1 2.18-4.39s3-2.53 3.35-3c.59-.85 1.51-3.77 1.09-4.69a3.85 3.85 0 0 0-2.26-2.18c-.92-.17-1.65-.06-2.07-.57s-2.62-3.2-3.88-4.63a74.37 74.37 0 0 0-6.2-5.2l-1-.61A8.44 8.44 0 0 1 209 39a22.59 22.59 0 0 1-7.11-1c-1.09-.5-3.18.08-3.69.34s-6.12 1.26-6.12 1.26l-5.17 1.31s-.28-1.9-.28-2.15-1.84-8.3-1.84-8.3z" fill="#f4dbc1"/><path d="M149.29 41.73a20.27 20.27 0 0 0-2.51 5.18c-1.22 3.77-.85 6.49-.27 9.91a37.93 37.93 0 0 0 2 7.29 23.05 23.05 0 0 1 8-24.22v-4.61a23.68 23.68 0 0 0-3.18 2.1 21.41 21.41 0 0 0-4.04 4.35z" fill="#e9b87f"/><path d="M184.54 20.79c-.25.88-.38 1.56-.44 1.88.17-.67.32-1.33.44-1.88zM184.09 22.67v.2a.81.81 0 0 0 0-.2z" fill="#e69b5f"/><path d="M214.92 17.16a33.92 33.92 0 0 1 4.71 2.31 23.37 23.37 0 0 0-9.44-6.93c-1.81-.69-5.76-1.91-6.31-.95a1.14 1.14 0 0 0-.1.64 8.48 8.48 0 0 0-2.13-.94c-.28-.07-1.85-.62-3.48-1.21a7.12 7.12 0 0 0-3.17-.29c-1.32.12-2.52.35-2.52.35s-3.63.07-5.56.26c-10.33 1-15.11 3.44-17.35 4.84a39.88 39.88 0 0 0-4.57 3.65s-6 3.56-7.54 4.73c-9.67 7.26-9.74 14.81-10.22 17.28A12.6 12.6 0 0 1 158 31.25c.28-.82 2.16-4.75 4.78-5.7a7.1 7.1 0 0 1 2.51-.42c-.62 1.31-1.18 2.34-1.58 3a11.31 11.31 0 0 0-1.17 2.51c-.15.51-.51 1.85-.28 2s1.58-2.81 3.58-5.48c3-4 8.71-8.58 12.46-7a4.7 4.7 0 0 1 2.18 2 5.78 5.78 0 0 1 2.4-3.3c.26-.16 1-.42 1.34-.06.76.7.36 5.66.28 7.32a22.25 22.25 0 0 0 1.83 9.88 13.17 13.17 0 0 1-.5-6.65c.3-1.58 2.67-11.64 8.9-12.4a8.07 8.07 0 0 1 8.36 4.91 13.31 13.31 0 0 0 0-3.74c-.05-.38-.12-.75-.2-1.09 1.35-.62 2.73-.19 4.29.63a18.84 18.84 0 0 1 7.26 7.61 15.31 15.31 0 0 0-2.85-5.76c-1-1.2-2.2-2.89-2.2-2.89a8.87 8.87 0 0 1 5.53.54z" fill="#e69b5f"/><path d="M177.78 66c0-.45.32-.75 1.14-.75 1.56 0 2.61 1.23 5.58 2.29a15.9 15.9 0 0 0 2 .57 20.15 20.15 0 0 0 3.33.4 25.48 25.48 0 0 0 4.4-.06 15.75 15.75 0 0 0 5.55-1.34 29.9 29.9 0 0 0 4.54-2.42 2.6 2.6 0 0 1 1.07-.42 1.47 1.47 0 0 1 1 .14c.23.13.35.2.41.47a.58.58 0 0 1-.77.56c-.55-.22-.26-.54-.38-.58-.56-.18-1.16.29-1.64.64A34.31 34.31 0 0 1 200 68a14.09 14.09 0 0 1-2.9 1.09 20.23 20.23 0 0 1-4.74.72 22.55 22.55 0 0 1-7.38-1 14 14 0 0 1-3.53-1.61 20.82 20.82 0 0 0-2.18-1.38c-.12 0-.29-.11-.51.16s-.21.54-.43.56a.48.48 0 0 1-.55-.54z" fill="#692f23"/><path d="M222.41 62.76a.72.72 0 0 0 0 .13l.39-.72a1 1 0 0 0-.39.59z" fill="#5c211b"/><path d="M173.45 51a6.83 6.83 0 0 1 2.55-2.26c1.46-.59 4.19-1.25 5.78-.57a7.81 7.81 0 0 1 3.43 3.3c.21.7.48 1.09-.12 1.26a27.57 27.57 0 0 0-3 .35 13.82 13.82 0 0 1-4.31.41c-1.44-.08-4.06-.65-4.33-2.49z" fill="#fff"/><path d="M175.85 49.94s-.13 1.79.72 2.55a4.7 4.7 0 0 0 3.08.91 2.78 2.78 0 0 0 2.3-.9c.38-.65 1.14-2.63-.22-3.68a4.6 4.6 0 0 0-3.65-.87 2.67 2.67 0 0 0-2.23 1.99z" fill="#88cceb"/><path d="M186 52.1c-.06-.14-.53-.91-.69-1.17a10.1 10.1 0 0 0-1.81-2 8.31 8.31 0 0 0-1.65-1 5 5 0 0 0-2-.38 12.77 12.77 0 0 0-2.48.11l-.39.09c-.21.06-.37.11-.47.15a8.67 8.67 0 0 0-1.73.77 7 7 0 0 0-.81.6 5.37 5.37 0 0 0-.6.56 3.13 3.13 0 0 0-.78 1.27 3.7 3.7 0 0 0 1.84 1.86 6 6 0 0 0 2.56.65 15.56 15.56 0 0 0 3.44.05 12.58 12.58 0 0 0 2.27-.44c.36-.09 1.05-.24 1.15-.25 1.16-.12 1.66.14 2-.17a.68.68 0 0 0 .15-.7zm-2.4.4a12.21 12.21 0 0 0-2.52.45 11.55 11.55 0 0 1-5 0 3.37 3.37 0 0 1-1.28-.57 2.35 2.35 0 0 1-.71-.66c-.12-.19-.32-.7-.17-.88a3.26 3.26 0 0 1 .78-1 3.86 3.86 0 0 1 2.25-1.3c.33 0 1.3-.18 3.32-.24a2.22 2.22 0 0 1 1 .07 8.34 8.34 0 0 1 1.52.92 7 7 0 0 1 1.7 1.7s.66.83.59 1.2-1.38.3-1.53.31z" fill="#692f23"/><circle cx="179.35" cy="50.3" r="2.06" transform="rotate(-78.95 179.344 50.302)" fill="#692f23"/><circle cx="177.61" cy="49.57" r=".73" transform="rotate(-78.95 177.603 49.571)" fill="#fff"/><path d="M182.88 49.67a2.43 2.43 0 0 0-1.45-1.54 2.39 2.39 0 0 0-1.22 0 1.26 1.26 0 0 0-.44.16 5.53 5.53 0 0 0 .83.41 1.32 1.32 0 0 1 .59.09 1.49 1.49 0 0 1 .95 1.26 3.59 3.59 0 0 1-.09 1.37 2.48 2.48 0 0 1-.87 1.19 3.77 3.77 0 0 1-2.65.39 2.51 2.51 0 0 1-1.45-.8 2.34 2.34 0 0 1-.65-1.41 2.69 2.69 0 0 1 .13-1.28 1.2 1.2 0 0 1 .34-.56 1.52 1.52 0 0 1 1.25-.28c.12 0 1.85-.59-.93-.42a3.52 3.52 0 0 0-.81.33 2.9 2.9 0 0 0-.64 1.93 2.61 2.61 0 0 0 1.34 2.52c1.28.77 4.75.09 5.15-.41l.12-.15a3.8 3.8 0 0 0 .5-2.8z" fill="#692f23"/><path d="M211.11 51.13a6.83 6.83 0 0 0-2.53-2.33c-1.45-.62-4.17-1.33-5.77-.67a7.81 7.81 0 0 0-3.49 3.24c-.22.69-.5 1.09.1 1.26a27.57 27.57 0 0 1 3 .4 13.82 13.82 0 0 0 4.3.49c1.46-.06 4.09-.58 4.39-2.39z" fill="#fff"/><path d="M208.73 50s.1 1.79-.77 2.54a4.7 4.7 0 0 1-3.1.86 2.78 2.78 0 0 1-2.29-.94c-.37-.65-1.09-2.65.29-3.67a4.6 4.6 0 0 1 3.67-.8 2.67 2.67 0 0 1 2.2 2.01z" fill="#88cceb"/><path d="M198.69 52.69c.33.31.84.06 2 .2.1 0 .79.17 1.15.27a12.58 12.58 0 0 0 2.27.48 15.56 15.56 0 0 0 3.44 0 13.55 13.55 0 0 0 2.16-.36 3.61 3.61 0 0 0 1.57-1c.62-.7.62-1.2.6-1.27a3 3 0 0 0-.66-1.1 5.37 5.37 0 0 0-.59-.57 7 7 0 0 0-.8-.61 8.67 8.67 0 0 0-1.72-.8c-.1 0-.26-.1-.47-.16l-.39-.1a12.77 12.77 0 0 0-2.48-.16 5 5 0 0 0-2 .35 8.31 8.31 0 0 0-1.66 1 10.1 10.1 0 0 0-1.85 2c-.17.26-.65 1-.71 1.16a.68.68 0 0 0 .14.67zm.8-.59c-.06-.38.61-1.19.61-1.19a7 7 0 0 1 1.73-1.67 8.34 8.34 0 0 1 1.54-.9 2.22 2.22 0 0 1 1 0 19.92 19.92 0 0 1 3.28.3 3.89 3.89 0 0 1 2.35 1.28 4.12 4.12 0 0 1 .74 1 1.37 1.37 0 0 1-.16.8 1.82 1.82 0 0 1-.65.73 4.1 4.1 0 0 1-1.41.52 11.32 11.32 0 0 1-5-.08 12.21 12.21 0 0 0-2.51-.5c-.17.02-1.48-.04-1.52-.3z" fill="#692f23"/><circle cx="205.39" cy="50.29" r="2.06" transform="rotate(-10.05 205.314 50.258)" fill="#692f23"/><circle cx="203.73" cy="49.69" r=".73" transform="rotate(-10.05 203.7 49.715)" fill="#fff"/><path d="M201.86 49.59a2.43 2.43 0 0 1 1.48-1.52 2.39 2.39 0 0 1 1.22.07.71.71 0 0 1 .33.11l.14.06h-.21l-.66.38a1.32 1.32 0 0 0-.59.08 1.49 1.49 0 0 0-1 1.24 3.59 3.59 0 0 0 .06 1.37 2.48 2.48 0 0 0 .85 1.2 3.77 3.77 0 0 0 2.64.43 2.51 2.51 0 0 0 1.47-.78 2.34 2.34 0 0 0 .67-1.4 2.69 2.69 0 0 0-.11-1.28 1.4 1.4 0 0 0-.3-.58.85.85 0 0 0-.58-.3 1 1 0 0 0-.69 0c-.12 0-1.62-.6.93-.41a3.5 3.5 0 0 1 .8.35 2.43 2.43 0 0 1 .6 1.94 2.68 2.68 0 0 1-1.38 2.5 2.88 2.88 0 0 1-2.1.5l-1.88-.13a2.92 2.92 0 0 1-1.17-.87l-.11-.15a3.8 3.8 0 0 1-.41-2.81z" fill="#692f23"/><path d="M242.92 49.91c-.31-6.27-1.18-9.5-2.57-11.88-1.83-3.12-6.73-10.44-9.18-12.86a72 72 0 0 0-9.79-8.69s-4.62-3.33-7.93-3.88c-.13 0-.93-.15-2-.38-1.55-.33-1.66-.44-2.77-.67a32 32 0 0 0-4.37-.59l-2.13-.37a14.23 14.23 0 0 0-1.54-.66 5.15 5.15 0 0 0-2-.2c-.45 0-1-.27-1.68-.31a19.55 19.55 0 0 0-2.32 0c-1.24.07-1.39.39-2.39.4s-1.05-.15-2.18-.21c-1-.05-2.29.1-3.44 0a15.82 15.82 0 0 0-7 1.27 23.11 23.11 0 0 0-9.93 3.82 36 36 0 0 0-4.5 3.23c-1.4.82-2.82 1.68-4.26 2.6s-2.62 1.71-3.86 2.57a23.92 23.92 0 0 0-6.78 7.18 29.34 29.34 0 0 0-3.69 12.74s0 .35-.1 3.17c-.09.26-.19.52-.26.79a22.06 22.06 0 0 0-.49 10 29.63 29.63 0 0 0 2.79 7.75 35.91 35.91 0 0 0 7 8.15 63.42 63.42 0 0 0 9.61 6.73 37.62 37.62 0 0 0 7.28 2.75 13.92 13.92 0 0 0 1.69.33l-.8.33a2.26 2.26 0 0 1 1.57 1.32c1.11-.39 3.34-1.22 3.34-1.22l1.87-.62a4.74 4.74 0 0 1 1.28.56 13.65 13.65 0 0 0 2.44 1.1 27 27 0 0 0 3 1.07c.3 0 .67.3 6.36.38 2.4 0 6.8-.65 6.75-.22l.26 1.61a3.71 3.71 0 0 1 1.87-2.65 29.21 29.21 0 0 1 4.23-1.68 6.11 6.11 0 0 1 3.47.1s.62.25 1.61.54c0 0 1.17-.57 1.83-.82.3-.1.79-.93 1.54-1.22 0 0 1-.21 1.7-.41 2-.54 2.19-.58 3.41-1a21.55 21.55 0 0 0 2.51-1 34.16 34.16 0 0 0 4.14-2.26c6-3.79 8.84-5.68 9.25-6.07a23.58 23.58 0 0 0 6.19-10.48 28 28 0 0 0 .97-10.14zM204.3 11.68a20.92 20.92 0 0 1 6.28 1.62 34.79 34.79 0 0 1 12 10c5.44 7.34 5.95 12.53 6.35 14.7a16 16 0 0 1 .05 4 19.35 19.35 0 0 1-1.64 6.31 2.67 2.67 0 0 0-2-.29c-.18 0-.47-.38-1.45-2a16.27 16.27 0 0 0-3.7-3.81h.71a7.77 7.77 0 0 1 3.35.79c.51.26 1.88 1.52 1.93 1.43s-.27-.74-.76-1.24a5.24 5.24 0 0 0-2.45-1.34 23.16 23.16 0 0 0-4.36-.85c-1.59-1.31-3.61-3.28-3.83-3.5a.33.33 0 0 1-.09-.32 5.09 5.09 0 0 0 .63-1.35 14.68 14.68 0 0 0 .61-6.46 16.89 16.89 0 0 0-.47-3.68 16.51 16.51 0 0 0-2.88-5.45 35.09 35.09 0 0 0-5.61-6.62s-1.21-.93-2.93-2c-.04.01.2.05.26.06zm-9.49-1.23a10.24 10.24 0 0 1 2.69-.06 4.63 4.63 0 0 1 2 1.21 11.26 11.26 0 0 1 2.78 4.48 15.68 15.68 0 0 1 .5 7.44c0 .13.06.2.13.15a.53.53 0 0 0 .11-.21 16.08 16.08 0 0 0 .53-4.06 21.39 21.39 0 0 0-.22-2.42 13.52 13.52 0 0 0-2.06-5.21l1.06.46a18.31 18.31 0 0 1 2.85 1.7 29.19 29.19 0 0 1 4.82 4.63 21.2 21.2 0 0 1 3.86 6 17.34 17.34 0 0 1 1 8.49c-.21 2.38-.74 3.51-1.61 4.22a4.79 4.79 0 0 1-1.79.83 17 17 0 0 1-5.1.55 22 22 0 0 1-5.14-1.24 4.91 4.91 0 0 0 1.33-2.11 6.78 6.78 0 0 0-.18-3.95c-.12-.36-.61-1.5-1-1.7s-.19.3-.17.33a7.69 7.69 0 0 1 .64 4.64 4.62 4.62 0 0 1-1.84 2.31c-1.72 1.32-2.86.86-6 1.65-3.72.93-5.11 1.62-6.31 1.53-.13 0-.39 0-.44-.61a28.6 28.6 0 0 0-.38-2.76c-.43-2.33-1.62-5.52-2.05-8.46-.83-5.66 2.54-11.64 3.34-12.76 2.07-2.89 3.12-3.23 4.83-4.44a7.08 7.08 0 0 1 1.82-.63zm-28.46 9.21a17.93 17.93 0 0 1 5.59-4.66c.91-.48 3.76-2.32 4.4-2.12a23.66 23.66 0 0 0-4.56 3.29 34.06 34.06 0 0 0-5.49 6.37 28.74 28.74 0 0 0-3.88 8.07 13.54 13.54 0 0 0-.61 3.92c.14 0 1.06-3.56 2.73-6.75a27.44 27.44 0 0 1 2.47-4 40.62 40.62 0 0 1 6.12-6.85c2.27-2 7.16-4.9 9-5.39a24.59 24.59 0 0 1 5.39-.49c.73 0-2.1.75-4.3 3.64a16.81 16.81 0 0 0-3.55 8c-.37 2.46 0 3.19 0 3.19a22.22 22.22 0 0 1 4.41-10.1 13 13 0 0 1 5.2-4.22 11.58 11.58 0 0 1 2.94-.8 10.42 10.42 0 0 0-1.27.6 12.92 12.92 0 0 0-5.1 6 19.32 19.32 0 0 0-2.07 8.08 14.32 14.32 0 0 0 0 2.84 7.89 7.89 0 0 0-1.17 1.28 11.19 11.19 0 0 0-1.43 3.89c-.2 1.13-.32 4.31-.5 4.8s-1.34.64-2.74.67c-.71 0-2 .1-2.29-.65a4.3 4.3 0 0 0 1.25-1.51 9.08 9.08 0 0 0 .49-2.63 23.73 23.73 0 0 1-1.16 2.14 4.6 4.6 0 0 1-2.57 1.59c-.86.24-2.91.57-4.22.92a16.67 16.67 0 0 0-5.32 2.14c-1.2.78-2.86 3.22-3.7 5.11a1.69 1.69 0 0 1-2.08-.4 5.9 5.9 0 0 1-1.2-3.48 25.4 25.4 0 0 1-.18-6c.19-2.68 1.36-4.94 3.11-8.27 1.94-3.83 4.69-6.18 6.29-8.21zm-18.27 20c.07-1.79.69-3.17 1.62-5.61a23 23 0 0 1 7.38-9.6 63.8 63.8 0 0 1 8-5.15 49.11 49.11 0 0 0-5.67 7.19c-2.35 4.36-3.11 7-3.25 8-1.79.8-5.57 3.84-8.22 8.41a14.56 14.56 0 0 1 .14-3.19zm20.21 40.44a36.39 36.39 0 0 1-6-3.33 34.84 34.84 0 0 1-9.92-8.7 26.54 26.54 0 0 1-4.64-7.94 21.76 21.76 0 0 1-1.28-7.48 18.71 18.71 0 0 1 5.07-12.6 23.4 23.4 0 0 1 4.43-3.9 28.58 28.58 0 0 0-.08 3 21.73 21.73 0 0 0 .68 5 4.24 4.24 0 0 0 .23.74 14 14 0 0 0-3.23 4.53 21 21 0 0 0-1.61 7.82 41.47 41.47 0 0 0 .41 4.52c.24 1.53 1 5 1.39 5.29s-1.06-7-.2-11.8 1.9-6.38 2.61-7.26a10.59 10.59 0 0 1 1.43-1.51 1.82 1.82 0 0 0 .2.18 2.87 2.87 0 0 0 2.09.61 7.74 7.74 0 0 0-.5 1.81c0 .08-.08.27-.21.28h-.4a2.68 2.68 0 0 0-.8.16 3 3 0 0 0-1.59 1.48c-.88 1.68.07 4.2 1.33 5.73a1.15 1.15 0 0 1 .16.58c0 .74 0 1.72-.1 3a14.37 14.37 0 0 0 .4 4.46 15.37 15.37 0 0 0 1.74 3.74 36.47 36.47 0 0 0 3.42 4.85c3.44 4.17 3.59 4.41 5.92 6.42.66.57-.1.63-.95.32zm11.69.68a1.31 1.31 0 0 1-.93.94 9.21 9.21 0 0 1-1.25.3 22.76 22.76 0 0 1-2.71 0 14.67 14.67 0 0 1-1.9-.43A4.62 4.62 0 0 1 172 81a19.38 19.38 0 0 1-3.21-3c-4.22-4.66-7-7.62-9-11.54-.8-1.54-1.13-4.11-1-7.89 0-.69.13-.58.14-.62a5.9 5.9 0 0 0 2.21 1.16s1.51 2.7 2.11 3.68a66.68 66.68 0 0 0 5.64 7.41 55.27 55.27 0 0 0 10 7.46 2 2 0 0 1 .87 1.17 7.12 7.12 0 0 1 .24 1.96zm1.11-1.78s0-.52.28-.36c.6.18 1.37.51 2 .66l-1.89 1.49c-.27-1.25-.39-1.79-.39-1.79zm3 4a6.48 6.48 0 0 1-2.09-1.4s2.75-2 2.78-2l2.52 4.34a9.58 9.58 0 0 1-3.18-.94zm4.16.55c-.13-.26-1.46-2.74-2-3.84a23.14 23.14 0 0 0 4.72.33c-.42.7-2.54 3.82-2.68 3.54zm3 .71c-.73 0-1.38-.08-2-.14.84-.91 2.7-3.87 2.89-3.84s2.88 2.94 3.67 3.77a30.08 30.08 0 0 1-4.52.24zm5.3-.91a30.39 30.39 0 0 1-3.29-3.28c1.14 0 2.13 0 2.92-.08 1.19-.09 2-.24 2.9-.37-.56.87-2.21 3.74-2.49 3.76zm4.82-.42a39.82 39.82 0 0 1-4 .92c.66-.67 2.62-4.31 3-4.39s2.3 2.31 2.74 2.81a14.6 14.6 0 0 1-1.7.73zm4.05-2a4.07 4.07 0 0 1-1.44.84 5.8 5.8 0 0 1-1.1-1.16c-.43-.5-1-1.14-1.26-1.47a11.06 11.06 0 0 0 3.89-1.34zM203 77.79a33.76 33.76 0 0 1-11.23 1.51 31.17 31.17 0 0 1-6.09-.45 24.14 24.14 0 0 1-10.45-4.58 40.21 40.21 0 0 1-6.59-6.09 45.6 45.6 0 0 1-6.57-9.89l-1.49-.42a5.06 5.06 0 0 1-2.59-2 8.73 8.73 0 0 1-.88-1.54 4.17 4.17 0 0 1-.2-2.46 2.4 2.4 0 0 1 .78-1.31 1.89 1.89 0 0 1 1.8-.32 3.16 3.16 0 0 0 .55 0 .51.51 0 0 0 .42-.4.55.55 0 0 0 0-.18 19.21 19.21 0 0 1 1.1-3.49c.61-1.84 1.59-3.12 4-4.65s5.51-1.9 7.35-2.51c.44-.15.77-.25 1-.32.05.07.54.87 3.12 1.06 3 .21 4.57-.19 4.53-.73s.29-4.16.57-6a8.33 8.33 0 0 1 1.67-3.47 23.94 23.94 0 0 0 1.2 4.07 62.65 62.65 0 0 1 1.3 7.3c.05.37.28.42.28.42a3.26 3.26 0 0 0 1-.12c.59-.17 1.14-.31 2-.62 1.74-.6 4.66-1 6.22-1.39a36.22 36.22 0 0 1 4.22-.87c.37 0 4.32 1.06 6 1.24a18.69 18.69 0 0 0 5.51-.28 4.56 4.56 0 0 0 1.78-.73s.85.79 1.71 1.35a31.11 31.11 0 0 1 5.09 3.72c1.25 1.4 4.4 5.65 4.4 5.65 1.1-.61 3.31.12 3.92 2.2.68 2.3-1.42 4.62-1.84 5.08a8.29 8.29 0 0 1-2.51 1.9 31.55 31.55 0 0 1-4.82 7.92 35.16 35.16 0 0 1-7.6 6.65 32.4 32.4 0 0 1-8.66 4.75zm7.15 3a9.22 9.22 0 0 1-2.57.52.56.56 0 0 1-.52-.36 4.41 4.41 0 0 1-.23-1.87c.11-1.4.58-2 .83-2.12.43-.28 1.19-.64 1.61-.88a48.08 48.08 0 0 0 7-5 29 29 0 0 0 4.3-4.25c.34-.41.63-.83.91-1.24a32.35 32.35 0 0 1-1.05 4.64 16.47 16.47 0 0 1-2 4.51 12.66 12.66 0 0 1-2 2.49 14.44 14.44 0 0 1-4.07 2.82 10.07 10.07 0 0 1-2.17.76zm27.66-15.73a14.33 14.33 0 0 1-4.5 5.8c-2.68 1.79-6.35 4-7.7 4.75a36.42 36.42 0 0 1-6.24 3.31c-1.37.46-3.6 1.07-5.68 1.69a19.42 19.42 0 0 0 3.4-2.47 16.44 16.44 0 0 0 4.1-6.58 36.15 36.15 0 0 0 1.52-5.36c.24-1.07.37-3 .45-3.18a18.27 18.27 0 0 0 1.63-3.46 10.69 10.69 0 0 0 2.42-1.95c1.83-1.79 2.22-2.62 2.46-4.45a4.59 4.59 0 0 0-1.45-4.24 16.93 16.93 0 0 0 .77-2 29.59 29.59 0 0 0 .79-4.1 20.68 20.68 0 0 0 .21-4.64c-.07-.46-.16-1.45.17-1.23a20.17 20.17 0 0 1 3.79 7 25.51 25.51 0 0 1 .53 4.51 31 31 0 0 1-.17 7 27.75 27.75 0 0 1-.61 3.46 12 12 0 0 1-.86 2.69 9.7 9.7 0 0 1-1 1.64c-.75 1-2.54 2.85-2.93 3.53a12.49 12.49 0 0 0 4.45-4.31 16.85 16.85 0 0 0 2.15-6.47 26.77 26.77 0 0 0 .13-6.22c-.15-1.37.19-.77.19-.77a53.85 53.85 0 0 1 1.71 7.57c.46 3.13.92 6.6.31 8.5zm2.49-3.72a11 11 0 0 1-1.1 2.57 26.9 26.9 0 0 0-.45-7.67 46.9 46.9 0 0 0-2.18-8.62c-.7-2-1.59-6-4.28-9.66a52.12 52.12 0 0 1-3.8-6.33c-.38-.75-.78-1.81-1.48-3.28a21.17 21.17 0 0 0-2.77-4.43c-1.38-1.82-2-2.75-2.95-3.76a32.33 32.33 0 0 0-4.82-4.26 22.61 22.61 0 0 0-2.23-1.4c-.32-.38 1.5.15 2.38.61A46.89 46.89 0 0 1 227.23 23a43.52 43.52 0 0 1 8.45 10.4c1.94 3.18 3.54 5.14 4.4 7.49a23.07 23.07 0 0 1 1.42 6.31c.36 3.66.66 8.95-1.16 14.16z" fill="#692f23"/><path d="M192.39 72.41a24.47 24.47 0 0 0 4.47-.41c.4-.09.7-.2.77-.08s.06.21-.19.4a10.38 10.38 0 0 1-5.18 1.13c-3.12 0-4.4-1.2-4.4-1.2s-.18-.15-.06-.3.28-.06.6 0a12.19 12.19 0 0 0 3.99.46zM192.64 60.76a6 6 0 0 0 2.14-.28c.85-.25 1-.32 1.09-.28s-.21 1.12-2.59 1.4a4 4 0 0 1-3.72-1.12s-.39-.53.41-.18a6 6 0 0 0 2.67.46zM200.74 42c.53-.22 1.66-.84 5.82-.38a11.75 11.75 0 0 1 5.26 2.53c.57.62.24.68.24.68a28 28 0 0 0-4.84-1.83 15.92 15.92 0 0 0-4.56-.31 7.45 7.45 0 0 1-2.15.21c-.36-.09-.28-.68.23-.9zM182.24 42.08c-.53-.22-1.66-.84-5.82-.38a11.75 11.75 0 0 0-5.26 2.53c-.57.62-.24.68-.24.68a28 28 0 0 1 4.85-1.81 15.92 15.92 0 0 1 4.56-.31 7.45 7.45 0 0 0 2.15.21c.34-.12.27-.71-.24-.92z" fill="#692f23"/><path d="M82.13 7.58S88.5 5 89.65 4.28a30.18 30.18 0 0 1 10.28-2.15c3.68 0 8.06-1 10.05-.77a6.28 6.28 0 0 1 3.3 1.46s2.3.08 4.22 0 4.83 1.23 5.6 1.46L132.42 7c1.53.46 3.68 2.76 5.68 3.76s12.24 10.74 13.16 13.73 5.37 9 5.83 11 2.61 14-.84 19.26-9.44 13-12.89 14.58-7.29 4.83-8.21 5.37-6.83 2.69-9.67 2.69h-4.37a15.21 15.21 0 0 0-2.92.54c-.38.15-.54-3.76-.54-3.76S108.22 77 102 76.56a78.08 78.08 0 0 1-11.51-1.76s2.34 3.34 1.73 3.87-4.57.61-6.25.38-7.83-2-7.83-2l-3.61-1.73a46.72 46.72 0 0 0-4.3-2.8c-.46-.08-9.36-10.67-10.82-13.35s-2.69-8.9-2.76-13.89a47 47 0 0 1 3.18-16.34c2.07-5.68 7.56-12 10-13.5s8.82-5.06 8.82-5.06z" fill="#e09c51"/><path d="M96.73 22.59a10.81 10.81 0 0 0-2.27 3.08c-.49 1.27-.78 5.87-1.24 6.56s-1.76.83-2.62.75a7.52 7.52 0 0 1-2.39-1.18c-.12-.06-5.67 1.67-6.33 1.73s-7.62 1.7-8.09 1.81-3.45.75-3.6.81a5.91 5.91 0 0 0-3 3.65 6.62 6.62 0 0 0 .29 4.57 4.74 4.74 0 0 0-1.76 2.22A8.44 8.44 0 0 0 67 51.94c.95 1.12 4.29 2.91 4 2.76s1.29 3.54 4.2 7.68 6.8 8.46 15.11 11.91 19.77 1.78 20.05 1.76a32.34 32.34 0 0 0 12.43-4.37s6.47-4.75 8.32-6.62 5.58-6.45 6.36-8.29a10.58 10.58 0 0 0 .81-2.24s2.33.23 4-2.82.78-6.59-.6-7.34-4-.2-4.81-.06-2.7-1.58-3.19-3.68-5.68-7.25-5.68-7.25a31.52 31.52 0 0 1-6.07-.12c-2.3-.4-6.79-.92-8.49-1.41s-7.28.26-8.37.52-4.89 2.07-5.18 1.81-.14-1.61-.14-2.19-3.02-9.4-3.02-9.4z" fill="#fbdfcb"/><path d="M91.6 46.37a3.36 3.36 0 0 0-1.15-2.32 4.4 4.4 0 0 0-3.2-1.27c-.84 0-4.39-.31-5 0a13.88 13.88 0 0 0-2.44 2.3c-.67.75-.06 1.27.33 1.48s1.75 1.29 2.74 1.31a30.29 30.29 0 0 0 4.41-.14c.88-.19 2.55-.88 3.18-.9s1.04-.21 1.13-.46z" fill="#fff"/><path d="M88.52 43.17a2.47 2.47 0 0 1 .69 2.13 3.54 3.54 0 0 1-2.65 2.36c-1.27.25-2.79-.49-3-1s-1.12-1.95-.87-2.66 4.15-3.65 5.83-.83z" fill="#abd2f0"/><path d="M108.81 46.37a3.36 3.36 0 0 1 1.19-2.32 4.4 4.4 0 0 1 3.2-1.27 25.22 25.22 0 0 1 4.87.61 9.24 9.24 0 0 1 2.53 1.67c.67.75.06 1.27-.33 1.48a9 9 0 0 1-3 .88c-1 0-3.28.48-4.16.29s-2.55-.88-3.18-.9-1.02-.19-1.12-.44z" fill="#fff"/><path d="M112.75 43.23a2.47 2.47 0 0 0-.69 2.13 3.54 3.54 0 0 0 2.65 2.36c1.27.25 3.09-.15 3.26-.67s.82-2.28.58-3-4.12-3.64-5.8-.82z" fill="#abd2f0"/><path d="M58.27 33.87a28.86 28.86 0 0 0 4-4.32c1.21-1.84 4.09-7.08 6.91-9.67a60.52 60.52 0 0 1 4.66-4.26l-2.7 5.87s2-2.65 3.8-3.34a10.53 10.53 0 0 1 2.53-.75 35.64 35.64 0 0 0-2.7 4.78c-.4 1.27-.46 6.91-.4 7.83s.29 2.47.29 2.47.69-6.73 3.17-10.42 3.86-6.79 9.44-9.78 6.68-3.17 7.6-3 0 1.9 0 1.9a58.77 58.77 0 0 0-2.53 5.87 19.4 19.4 0 0 1 3.34-4 34.68 34.68 0 0 1 4.2-3.17s-2.47 7.31-2.47 9.55 1 8.75 1 8.75l1.09 2.88a24.31 24.31 0 0 1 1.61-10.42c2.13-5.18 3.11-10 7.08-11.22a5.73 5.73 0 0 1 7 2.65 24.49 24.49 0 0 1 1.55 4.66s.17-4 .06-4.95 1.27-1.09 2-.86a12.91 12.91 0 0 1 6.85 5.41c2.36 3.86 3.22 10.07 3.22 10.07s1.27-7.77.4-9.26-2.93-4.89-4.55-6.22c0 0-.35-1.5 2.13-1a17 17 0 0 1 6.5 2.24s-2.86-2.52-4.35-3.67-8-4.89-8.35-5.12a27.84 27.84 0 0 0-4.09-.58l-2.65-.12-2.13-1.15-7.78.87-2.88-.52-9.88 1.73L83.7 7l-6.9 4.83L73.58 13 66 19.66s-5.7 7.19-5.87 8.11S58 34 58 34zM62 37.09S59.34 45 59.8 51s3.4 13.29 3.91 13.81-2.53-2.11-2.71-2.22a63.36 63.36 0 0 1-3.57-9.15c-.52-2.36-.81-8.11.35-10.53A21.09 21.09 0 0 1 62 37.09z" fill="#e9b87f"/><path d="M155.66 113.83c-.33-1.5-5.91-16.49-6.77-17.63-1.58-2-23.33-16.73-23.33-16.73a53.71 53.71 0 0 0-8.21-1.23l-.54-4.45a8.68 8.68 0 0 1-3 1.38 107.13 107.13 0 0 1-11.74 1.38c-2.14.01-10.5-1.55-10.5-1.55l.23 3.84-1.61.23a55.27 55.27 0 0 0-6.52 2.07 73.21 73.21 0 0 0-7.44 4.22c-6 6.54-11.8 8.71-15.79 14.25a30.22 30.22 0 0 0-5.29 17.55c.14 3.44 1.64 6.38 2 9.5 1 8.17 5.64 10.93 13.35 12.31 2.71.48 4.47-3.7 5.35-3.22 1.47.8.94 6.59 1.32 11.34.61 7.6.61 11 0 15s25 2.34 25.36 2.49 10.74.23 11 .31a100 100 0 0 0 10.9-.92c2-.46 12.28-3 13.66-3.15s1.15-1.76 1.38-3.76a5.67 5.67 0 0 0-.69-3.61v-4.2s1.35-3.52.58-5.36 5.19 2 4.88.85c0-.18 3 4.18 5.52-2.12.88-2.18 3.47-4.28 2-10.48-.25-1 1.27-2.12 2-5.12a7 7 0 0 1 .32-2.46c.36-.93 1.79-8.17 1.58-10.73z" fill="#fff"/><path d="M90.19 203.11c-.39.29 2.65 13.12 2.65 13.12s5.87 2.53 10.24 2.19 5.29-2.53 5.29-2.53a13.16 13.16 0 0 0 1.84 1.84c.69.46 11.74-.92 11.74-.92s3.8-1.15 3.8-1.5 2.42-6.22 2.42-6.22.58-5.87.23-6.45-4.4 1.36-6.9 1.36-6.45.12-8.4-1-3.34-2.07-3.34-2.07-3.57 2.53-6.91 2.88-7 .23-9.67-.81-2.53-.23-2.99.11z" fill="#d2a274"/><path d="M79.26 214.51s4.72-.46 7 .46a98 98 0 0 0 11 3.11c1.5.23 5.75.81 9-.69s3.45.81 3.45.81l7.71-.92c2-.23 7.6-1.27 9.78-.58s4.83 3.8 5.64 4.6 4.14 5.18 3.45 7.48-3.91 5.29-7.71 5.52-13.12 1.38-16.11.81-3.57-2.3-4.49-5.18l-.92-2.88a25.3 25.3 0 0 1-5.64.92c-2.42 0-12.89 3-16.46 3-.78 0-1.65 0-2.54-.06-3.2-.14-11.12-6.41-11.14-6.72a9.09 9.09 0 0 1 1.48-5.88c1.44-1.85 3.05-3 6.5-3.8z" fill="#efb000"/><path d="M100.09 164.8s10.36.34 12.2.23 9.32-.11 14.39-1.25 8.06-2.39 8.63-.23 1 10.12 0 12.74a13.75 13.75 0 0 0-.69 6c0 1.25.69 12.62-1 14.9s-2.07 4.21-6.56 5.12-5.75 2.16-8.86 1.71-5.18-.34-6.45-1.71a14.17 14.17 0 0 0-2.3-2s-1 2.16-4.49 3-5.75 1.59-10 .11a20 20 0 0 1-6-3s-3.22-4.66-3.91-8.87-.35-12.85-.35-12.85l-2.07-6s-2.47-6.44-.17-8.49 17.63.59 17.63.59z" fill="#fd8204"/><path d="M132.43 162.95s.29 6 .35 7.6a31.51 31.51 0 0 1-.12 6.56 41.22 41.22 0 0 0-.63 7.25c.06 1.5.4 8.4-.12 9.9a25.12 25.12 0 0 1-1.27 2.93 8.42 8.42 0 0 1 .17 3c-.29.92 1-.12 1.5-1.21s1.5-1.61 1.78-4.14a93.73 93.73 0 0 0 .4-11.57c-.23-1.27.58-7 .75-7.77s.46-9.55.35-11.51-2.24-3.12-3.16-1.04z" fill="#e16702"/><ellipse cx="86.32" cy="119.46" rx="4.99" ry="6.02" fill="#fd8204"/><path d="M123.92 164.27s.52 3.86 1 5.58 1.73 6.68 1.44 9.44a67.37 67.37 0 0 0-.63 8.06c0 3.22.35 7.94.29 9.73s.12 3.51-.4 4.78 3.34-2.53 3.34-2.53.29-10.19.46-12.72 1-6.16 1-8.8-1.27-7.65-1.5-10a17.51 17.51 0 0 1 .35-4.83zM115.23 165.3s1.61 7.31 2.42 11 .58 10.36 1.15 13.7.52 5.81.81 8.17.86 5.58.86 5.58 2.88-.12 3.34-.75-.69-11.45-1-13.29.06-6.91-.23-8.8-1.67-10.24-2-11.45a15.75 15.75 0 0 1-.23-4.78c.11-.35-5.12.62-5.12.62zM107.29 165.4s1 6.14 1.27 7.22 1.9 8.13 2.42 10.11 1 10.23 1.09 12.39.69 6.7 2.59 8.13a3.83 3.83 0 0 0 3.51.8 23.82 23.82 0 0 1-1.84-7.27c-.63-4.94-.52-9.94-.92-12s-1.55-11.36-2.65-13.86a15.54 15.54 0 0 1-1-5.63zM101.3 165.36s1 5 1.27 6.56 1.9 8.4 2.24 10.3 1 7.25 1.5 10.36 1.21 6 1.09 7.65a10.37 10.37 0 0 1-.29 2.13l-3.17 1.32s0-.86-.17-3-1.5-8.92-1.84-11.28-1.55-11.57-2-13.35-1.5-9.26-1.15-10.76 2.52.07 2.52.07zM94.86 164.65s2.7 15.1 3.11 16.19.69 5.58 1.21 8.69 1.5 8.8 1.9 10.47 1.09 3.4.75 3.91-3.11.06-3.11.06a14.77 14.77 0 0 1-2.65-6.39c-.46-3.57-1.21-10.53-1.55-12.95s-3.74-20.74-3.74-20.74a27.53 27.53 0 0 1 4.08.76zM85.59 163.1s3.28 12.45 3.86 13.6a14.33 14.33 0 0 1 1.38 4.2c.35 1.9-.23 5.35.46 8.52s1.78 9.61 3.11 12 2.07 2.24 2.07 2.24a50.94 50.94 0 0 1-5.81-2.19c-1.61-.86-3.17-11.22-3.4-13.87s-.06-7.71-.46-8.46-4.26-13.6-3.86-15.15 2.65-.89 2.65-.89z" fill="#e16702"/><path d="M75.94 127.85c0-.18.63-5.12 1.9-7a6.55 6.55 0 0 1 3.51-2.65c.35 0 .75.81 1.78.63s2 .63 4-.69 3.22-1.15 4.49-3.8.81-7 2.36-7.19a2.43 2.43 0 0 1 2.59 2.53c.06 1.32.35 6.62.35 6.62s2.36.58 2.65 1.84a7.1 7.1 0 0 0 1.5 2.59c.35 1.5 1 5.29.06 7.48a6.69 6.69 0 0 1-5.35 4.32 47.11 47.11 0 0 1-11.28.35c-2.36-.4-7-1.73-7.25-1.67s-1.42-2.1-1.31-3.36zM116.13 146.57s.87-3 2-4 5.62-3.87 5.62-3.87 2-1.56 3.92-.9 5 1.77 5.71 3.54 2 3.75 1.89 4.62a30.7 30.7 0 0 1-1.79 4.53c-.19.35-3.09 4-5.19 4.29a14.45 14.45 0 0 1-3.21-.14c-.57-.26-1.75-.83-1.56-1.23s1.84-2.6 1.84-2.6-.85-5.76-1.32-5.95a6.89 6.89 0 0 0-2.27-.09c-.21.07-4.44 2.12-4.44 2.12s-.96.98-1.2-.32z" fill="#fbdfcb"/><path d="M42.8 202.54a39.66 39.66 0 0 0 .69 7.53c.28 1.21 2.8-1.46 3.5-1.12 5.1 2.48 13.9 7.67 13.59 8.82-.48 1.75 15.35-3.29 18.09-4.56s8.12-4.48 8.12-4.48 1.09-6.72 1.51-7.64-.38-2-.61-2.69-3.3-12.74-3.3-12.74l-3.59-1a12.31 12.31 0 0 1-1.46 2c-.26.07-9.18-1.6-9.63-1.6s-5.57-1.56-5.76-1.65-2.17-8.21-2.17-8.21-.42-.57-.57-.57-14.53 7.5-14.53 7.5-3.94 3.85-4 4.06a8.92 8.92 0 0 0-1.6 5.9c.33 3.44 1.72 10.45 1.72 10.45z" fill="#efb000"/><path d="M68.16 169.63s.8 1.62 1.57 1.48a19.28 19.28 0 0 0 3.18-1.57 20.93 20.93 0 0 1 4.18-1 13.61 13.61 0 0 1 2.93.63 12.79 12.79 0 0 1 2.3 1c0 .2 1.87 6 1.79 6.73s-.25 1.78-.25 2.61.39 4-.66 4.91-1.2 1.73-3.2 2.26-9.09-1-9.37-1.16-6.65-1.26-7.11-2.11-1.37-9.48-1.35-9.69 5.45-5.16 5.99-4.09z" fill="#9e9b95"/><path d="M134.35 150.53s7.17 4.72 8.59 6.23 1.89 4.25 2 6.89-1 3.59-2 5.1a6.71 6.71 0 0 1-2 2.08l-3 1.6-2.36 1.13-1 6.51a9 9 0 0 0 3.68-.57c2.22-.76 7.27-2.45 9.44-4.62s4-5.9 5-9.72.38-10-.57-11.51-3.07-6.46-6.7-7.74-3.68-2.93-3.68-2.93-3.29 3-3.87 2.83-2.17.76-2.45 1-2.03 2.31-1.08 3.72zM49.31 195.27a4.09 4.09 0 0 1 .19 4.34c-1.32 2.36-2.6 2-3.59 1.89s-6.28-.09-9.15-2.55a11.12 11.12 0 0 1-4.15-8.31 9.35 9.35 0 0 1 3.3-6.61 33.29 33.29 0 0 1 10.38-5.38 67.3 67.3 0 0 1 13.4-1.89c1.51.09 16.23.76 16.23.76l8.74 1.15s.08 2.25.13 2.82-.14 2.88-.66 2.93-2.93.57-2.93.57-10.38-2-14.72-2-14.38-.46-19.48 1.71-6 4.34-5.57 6.42 1.13 3 2.27 3.3 5.61.85 5.61.85z" fill="#c7c0b1"/><path d="M62.53 218.49s-2 2.6-1.23 4.15 1.49 2.52 2.27 2.6a5.53 5.53 0 0 0 2.55-.47 2 2 0 0 0 1.13-1.65c0-.92 0-1.68-.09-2.69a3.47 3.47 0 0 0-.85-2.31c-.41-.3-2.84-.67-3.78.37zM88.29 201.07a8.39 8.39 0 0 0-1.29 4.55c.09 2.49-.87 4.84.06 5.51a6.28 6.28 0 0 0 3.4 1.2c1.26 0 2.15.33 2-.38s-2.53-10.37-2.46-10.48-1.71-1.09-1.71-.4z" fill="#5e5e5e"/><ellipse cx="85.75" cy="144.23" rx="4.3" ry="5.18" transform="rotate(-9.46 85.779 144.236)" fill="#fd8204"/><path d="M135.51 85.46a4.53 4.53 0 0 1-3.51 3.91c-2.43.4-4.79-1.64-5.28-4.57a6.05 6.05 0 0 1 .44-3.53c.61-1.27 8.47 3.52 8.35 4.19zM123.8 129.75a5.21 5.21 0 0 1-2.75-5.12 5.29 5.29 0 0 1 5.9-4.61 5.45 5.45 0 0 1 3.26 1.54c1.09 1.08-5.8 8.52-6.41 8.19z" fill="#fd8204"/><ellipse cx="105.47" cy="128.78" rx="4.48" ry="5.4" fill="#fd8204"/><ellipse cx="118.45" cy="102.99" rx="4.99" ry="6.02" fill="#fd8204"/><ellipse cx="110.95" cy="148.16" rx="4.19" ry="5.05" transform="rotate(-14 110.94 148.17)" fill="#fd8204"/><path d="M154.33 125.47a5 5 0 0 1-3 4.84c-.37.13-5.24-6.2-5-6.81a4.26 4.26 0 0 1 3.86-3.08c2.26.01 4.14 2.27 4.14 5.05zM149 142.65c0 2.3-.85 3.59-2.59 4.2-.26.09-6.23-2.56-4.47-4.32s-.19-3.45.43-4a3.71 3.71 0 0 1 2.44-.95c2.36.02 4.19 2.28 4.19 5.07z" fill="#fd8204"/><ellipse cx="73.84" cy="105.47" rx="4.66" ry="5.62" fill="#fd8204"/><ellipse cx="90.45" cy="84.33" rx="5.62" ry="4.66" transform="rotate(-63.62 90.448 84.331)" fill="#fd8204"/><path d="M63.39 133.4a6.49 6.49 0 0 1-1.79 2.23c-1.47 1.15-5.07-8.49-4.07-9.07a4.41 4.41 0 0 1 4.18-.26c2.29 1.14 3.06 4.32 1.68 7.1z" fill="#fd8204"/><path d="M91.22 47.2c.3 0 1.06.2 1.28 0s.57-.46.16-1.24a9.41 9.41 0 0 0-2.73-3 6.66 6.66 0 0 0-4.63-1.35c-1.24 0-3.46.2-4.44.83a6.6 6.6 0 0 0-2.05 2.66 1.12 1.12 0 0 0 .23 1 4 4 0 0 0 .84.78A15.67 15.67 0 0 0 83 48.16a14.54 14.54 0 0 0 5.25-.06c1.17-.24 2.67-.9 2.97-.9zM89 46.71a2.13 2.13 0 0 0 .56-1.39 3.34 3.34 0 0 0-.43-2.09 6.13 6.13 0 0 1 2.13 2.24c.33.7.34 1.09.16 1.18s-.8-.32-1.24-.24a4 4 0 0 0-1.05.42c-.08.01-.13-.01-.13-.12zm-5.59.72a3.57 3.57 0 0 1-1.15-.18 9 9 0 0 1-1.75-1.19.79.79 0 0 1-.22-.54c0-.27.43-.89.91-1.48a3.39 3.39 0 0 1 1.22-.86c.43-.19.61-.13.55 0a3.11 3.11 0 0 0-.49 1.8 2.9 2.9 0 0 0 1.18 2.21s.06.21-.25.24zm4.18-.7a3.43 3.43 0 0 1-2.67.13 2.2 2.2 0 0 1-1.29-1.47 2.45 2.45 0 0 1 .19-1.85.81.81 0 0 1 .37-.29.47.47 0 0 1 .25 0c.36.16.25.32.23.39a2.21 2.21 0 0 0 0 1.49 1.63 1.63 0 0 0 1.39.93 1.34 1.34 0 0 0 1.39-1 1.52 1.52 0 0 0-.13-1 .52.52 0 0 1 .66-.66c.62.2.73 1.06.7 1.54a1.84 1.84 0 0 1-1.08 1.79zM121.67 46.35c.33-.4-.08-.75-.41-1.15a27.38 27.38 0 0 0-2.26-2.08 7 7 0 0 0-2.57-1 8.92 8.92 0 0 0-5.55.13c-1.36.61-2.55 3-2.64 3.65a2 2 0 0 0 0 1c.14.64.81.46.83.47a7 7 0 0 1 1.87.18c.59.15 3 .62 3.59.78a9.23 9.23 0 0 0 3.82-.19 6.37 6.37 0 0 0 3.32-1.79zm-8.84.92c-.56-.14-2.17-.82-2.72-.9a1.18 1.18 0 0 0-.63.07c-.33 0-.18-.47-.18-.47l.24-.53a5.63 5.63 0 0 1 1.55-1.67 5.35 5.35 0 0 1 1.45-.77c-.05.1-.29.32-.38.5a3.28 3.28 0 0 0-.31 1.6 2.9 2.9 0 0 0 1.07 2.18zm5-2.12a2.23 2.23 0 0 1-1.46 2 2.54 2.54 0 0 1-3.12-1 2.15 2.15 0 0 1-.09-2.29s.15-.25.35-.26a.9.9 0 0 1 .65.2c.16.15 0 .45-.11.82a1.2 1.2 0 0 0 1 1.52 1.31 1.31 0 0 0 1.67-1c0-.35.08-.9.53-.9s.68.17.58.92zm2.71.89a14.49 14.49 0 0 1-2.22 1.16.22.22 0 0 1-.12 0c-.2-.1.34-.46.58-1.53a3.21 3.21 0 0 0-.06-1.8c.47.33 1.35 1 1.78 1.35s.2.64.04.78zM97.58 56a6.76 6.76 0 0 0 4.31 1.09 3 3 0 0 0 2.61-1.26c.52-.61 0-.5 0-.5s-.5.36-3.28.42a7.48 7.48 0 0 1-3.91-.67c-.84-.49-.42.33.27.92zM116.45 60.12c-.59-.08-5.42 2.26-5.69 2.34s-3.41 1.65-10 1.36-10.38-1.69-11-2a6.28 6.28 0 0 0-2.55-.82 4 4 0 0 0-1.78 1 .39.39 0 0 0 0 .56c1.36.86 1.23-.65 2-.59a25.86 25.86 0 0 1 5 1.9 27.49 27.49 0 0 0 8.43 1.78c3.24 0 6-.08 8.64-1.23 2.82-1.21 5.73-3.18 6-3.24a1.45 1.45 0 0 1 1.05.29c.4.27.65.31.86-.27s-.41-1-.96-1.08zM108.36 67.18a30.48 30.48 0 0 1-6.84.65c-4-.15-5.94-.57-6.25-.46s0 .31 0 .31 1 1.55 6.38 1.57 6.87-1.98 6.71-2.07zM114 36.93a18.71 18.71 0 0 1 3.51.62 27 27 0 0 1 3.91 1.72c.3.17.86.33.43-.1a9.72 9.72 0 0 0-2.69-2.31 7.89 7.89 0 0 0-5.46-.89s-.6.09-.66.46.4.4.96.5zM84.79 37.42c.55-.13.8-.09.91-.17s.14-.24-.4-.43a5.18 5.18 0 0 0-2.9-.29 8.47 8.47 0 0 0-4.07 2.39s-.53.49-.46.59.3 0 .68-.24 2.79-.8 3.35-1 2.34-.72 2.89-.85z" fill="#692f23"/><circle cx="95.8" cy="79.04" r=".71" fill="#692f23"/><circle cx="99.9" cy="78.05" r=".71" fill="#692f23"/><circle cx="103.65" cy="80.39" r=".71" fill="#692f23"/><circle cx="107.79" cy="78.26" r=".71" fill="#692f23"/><circle cx="111.84" cy="79.41" r=".71" fill="#692f23"/><circle cx="115.47" cy="76.77" r=".71" fill="#692f23"/><circle cx="104.22" cy="84.73" r=".71" fill="#692f23"/><circle cx="100.07" cy="88.02" r=".71" fill="#692f23"/><circle cx="105.01" cy="92.3" r=".71" fill="#692f23"/><circle cx="100.04" cy="96.1" r=".71" fill="#692f23"/><circle cx="105.01" cy="100.03" r=".71" fill="#692f23"/><circle cx="109.7" cy="95.55" r=".71" fill="#692f23"/><circle cx="109.41" cy="103.31" r=".71" fill="#692f23"/><circle cx="109.6" cy="87.03" r=".71" fill="#692f23"/><circle cx="83.15" cy="160.06" r=".79" fill="#692f23"/><circle cx="90.12" cy="155.23" r=".79" fill="#692f23"/><circle cx="95.76" cy="161.28" r=".79" fill="#692f23"/><circle cx="101.7" cy="156.72" r=".79" fill="#692f23"/><circle cx="120.74" cy="161.21" r=".79" fill="#692f23"/><circle cx="132.77" cy="159.17" r=".79" fill="#692f23"/><path d="M129.73 182.68c-.42-.27-3.37 1.76-4.56 2.22s-4.56 1.57-4.56 1.57c.19 1 3.8.14 5.44-.42a7.89 7.89 0 0 0 3.1-1.84c.92-.68 1-1.21.58-1.53zM133.26 149.34z" fill="#692f23"/><circle cx="114" cy="44.48" r=".82" fill="#fff"/><path d="M115.91 149.8l-4.34 4.44s-.18 1 1.1 1.41a9.23 9.23 0 0 1 3.29 2.56c.08.26.37 1 1.93.1s6.22-6 6.27-6.12 1.75-2.35 1.36-3.87-.94-3-1.51-3.42-5.12.67-8.1 4.9zM60.17 217l-11.9-7.65a6.07 6.07 0 0 0-3.89.51c-2.22.94-7.32 2.89-7.53 3s-1.57 1.3-1 2.11a8.55 8.55 0 0 0 2.74 2.84C39.77 218.47 74.8 242 74.8 242a2.92 2.92 0 0 0 1.83 0c.8-.37 8.71-5.27 9.06-5.71s1-1.19.45-1.92-19-13.82-19-13.82z" fill="#c7c0b1"/><path d="M106.45 163.31l5.65-7.41s2-.51 3 .82-.66 3-1 3.73-46.29 58.77-46.38 58.86-1.2 1.86-.21 3.07 3.54 3.1 2.79 4.46-4.57 3.76-4.57 3.76-6.15-3.54-6.8-3.87-7.68-5.73-7.68-5.73a15.32 15.32 0 0 1 2.75-3c1.06-.66 3.29 0 4.29.14s5.16-.4 6-1.22 42.16-53.61 42.16-53.61z" fill="#c7c0b1"/><path d="M38.23 217.18L35.81 215s-1.6.83-1.39 1.69a2.92 2.92 0 0 0 1.36 2c.81.47 37.79 25.72 37.79 25.72a3.35 3.35 0 0 0 2 .57c1.1-.1 9.51-5.38 9.51-5.38s1.23-2.85 1.31-3.24-.21-.68-1.46 0-9.15 5.75-9.15 5.75a55.1 55.1 0 0 1-5.12-2.93c-1.07-.86-32.43-22-32.43-22z" fill="#c7c0b1"/><circle cx="84.55" cy="44.18" r=".82" fill="#fff"/><path d="M158 35.64c-.55-1.9-4.6-8.68-4.6-8.68a51.84 51.84 0 0 0-5.12-7c-2.33-2.44-9.8-9.63-12.27-11.47A15.72 15.72 0 0 0 130.35 6l-2.17-.72a41.65 41.65 0 0 1-6.28-1.92c-1.76-.88-5.67-1.88-7.63-1.15-2-1.61-4.87-1.38-5.63-1.34s-2.61.46-3.26.5-4 .34-6.55.27A29.28 29.28 0 0 0 90.64 3a46.88 46.88 0 0 0-8 3.68s-6.59 4-10.23 6.4a40.42 40.42 0 0 0-9 8.35c-1.19 1.76-4 6.44-4 6.44A31.2 31.2 0 0 0 56.84 35 67.07 67.07 0 0 0 56 46.2a43.13 43.13 0 0 0 1.6 8.62 65.55 65.55 0 0 0 2.45 6.68 18.75 18.75 0 0 0 3 4.05c1.49 1.3 4 4.6 5 5.36s4.52 3.56 5.33 4.06 2.91 1 3.33 1.3a24.29 24.29 0 0 0 3.76 1.88c1 .31 4.22.92 4.22.92a20.66 20.66 0 0 0 2.19.6l-2.4.89a20.42 20.42 0 0 0-6.58 3l-.77.6c-.39.34-4.09 3.74-4.75 4.46s-3.82 3.39-4.6 4-3.31 1.87-4.28 2.82a23.81 23.81 0 0 0-4.17 5c-.83 1.7-2 3.1-2.18 3.91a30.18 30.18 0 0 0-1 4.08c0 .8-.83 4.11-1.09 5.55a26.44 26.44 0 0 0-.32 5 8.94 8.94 0 0 0 .92 4.17 18.15 18.15 0 0 1 1.47 3.68c.29.86.75 4.22 1 5.43s.8 2.24 2.64 3.65a6 6 0 0 0 3.54 1.35 5.41 5.41 0 0 0 2.59 2.18 8.39 8.39 0 0 0 3.65.11c.6-.11 2.36-.23 2.36-.23a3.49 3.49 0 0 0 1.77-.58 4 4 0 0 0 1.21-2c.14-.84.27 4.86.31 6.23a.38.38 0 0 0 0 .21s.36 6.36.44 7.24.27 3.14.23 4.25.34 5.25.38 6.09a5 5 0 0 0 .34 2.18c.34.65 1.15.61 1.84 1s1.19 2.46 1.66 4.81l-4.37-1.19c-.71-.19-6.68 2.24-7.17 2.83 0 0-.87-1.72-1.46-1.75s-3.07 1.51-4.39 2.6a26.21 26.21 0 0 0-2.11 2.29l-.67.16a20 20 0 0 0-3.44 1.7c-.5.19-2.05.19-3.59.38a2.78 2.78 0 0 0-2.05 1.14c-8.68 1.48-13.11 4-16.87 7.31a9 9 0 0 0-2.64 9.2 12.85 12.85 0 0 0 5.52 6.94c1.29.71 3.73 1 4 1.7s.26 3.85.61 5.9c.1.58.23 1.17.37 1.72-3 1.16-7.22 2.83-7.54 3.4a3.32 3.32 0 0 0-.3.71c-.35.83-.89 2.15-1 2.52a1.73 1.73 0 0 0 .48 1.76c.55.43 39.88 27.79 39.88 27.79s.72.53 2-.18 9.05-5.83 9.05-5.83a3.74 3.74 0 0 0 1.27-2.19 5.45 5.45 0 0 0 .17-3 9.21 9.21 0 0 0-2.39-2.86h.3s3.1-.4 4.71-.75 4.77-1.32 7.19-1.72 6.9-.69 8.22-1l1.32-.29a8.53 8.53 0 0 0 2.24 5.69c2.41 2.7 8 2 8.91 1.9s6.61.06 9.08-.17 5.92-1 7.53-2.3 3-2.82 2.82-5.63-.17-4-2.76-6.27c0 0-1.72-1.21-2.41-1.61s-1.55-1.72-2.24-2.13a9.33 9.33 0 0 0-2.59-1c-.57-.06-.34-1.15.11-1.44s1.09-2.24 1.55-4.2.29-4.89.63-6a4.44 4.44 0 0 1 .86-2.07 7.57 7.57 0 0 0 4.48-5.4c1-4 .69-14.37.69-15.46v-.41c.46-.18 1.88-.8 2.91-1.2a45.89 45.89 0 0 0 7.49-3.21 16 16 0 0 0 6.53-7.72 28.2 28.2 0 0 0 1.53-11.21 18.16 18.16 0 0 0-1.29-5.29 18.74 18.74 0 0 0-4.53-6.14c.06-.07 1.06-1.17 1.92-1.95s.76-2.82 1.57-3.68 1.65-1.1 2-2.74a9 9 0 0 0-.47-4.81c-.41-.71.63-3.22 1-4.72.42-1.83 1.89-7.8 2-8.58a37.29 37.29 0 0 0 .38-6.48c-.19-1.64-1.34-4.8-1.38-6.29a19.36 19.36 0 0 0-2.17-6.57c-1.24-2.52-3.68-5-5.1-6.64a102.75 102.75 0 0 0-10.14-8.43l-.17-.1c-2.19-1.34-5.42-3.45-6.23-3.84-1-.48-6.09-2.79-6.74-2.93-.28-.28-.68-.84.46-.91a32.57 32.57 0 0 0 8.94-2.36c.24-.11.43-.22.59-.32a47.64 47.64 0 0 0 6.85-3.79c3-2.1 4.83-3.36 6.27-4.22a18.85 18.85 0 0 0 4.51-4.41s2.1-1.67 4.63-6.81 2.13-10.66 2.3-12.39a32.4 32.4 0 0 0-.75-8.16zM120.14 3.7c1.65.27 6.28 3.68 6.28 3.68a28.86 28.86 0 0 1 6.28 4.26 66.93 66.93 0 0 1 6.52 8.25c1.21 1.81 3.36 8.51 3.36 8.51a39.79 39.79 0 0 1 1.06 7.44c0 3.22.29 4.14-.72 3.59s-4.4-2.76-7-3.22h-.22a19.59 19.59 0 0 1-3.84-.94 3.71 3.71 0 0 1-2.86-3.54c-.05-1.13.72-7.57.89-8.94s.38-3.79-.31-5.79-3.79-5.48-5.48-7.24a66.91 66.91 0 0 0-8-6.32s.11-.38 4.04.26zm-23.8 72.85c.87.57 2.49 3.95 2.79 4.69h-.15a31.25 31.25 0 0 1-3.09-.85 5 5 0 0 1-2.3-1.57l-.1-.13zM93 77.7a3.92 3.92 0 0 1-.08-1.83c.5.1 1.17.21 1.93.33zm16.61 14c-.69.74-4.2 3.44-4.52 3.69a25.64 25.64 0 0 1-4.8-3.2l4.13-3.4.27.12a28 28 0 0 0 5.67 1.82 5.66 5.66 0 0 1-.76 1.01zm1.26 0l.11 3.19-.06 2.56a26.57 26.57 0 0 1-4.56-1.26zm-6.37-4.66c-2.32-1.32-4.25-2.62-5.47-4.45 0 0-.1-.21 0-.31.4.06 1.93.23 3.1.39a22.41 22.41 0 0 0 4.9.07c.67-.12 1.94-.22 3-.31-.63.46-2.52 1.83-2.93 2.24s-1.54 1.47-2.6 2.41zm2.39-8c-.17-.23-1.33-1.44-1.69-1.82 1.09 0 3-.1 4.86-.37-.1.23-.37.86-.51 1.16s-1.62 2.47-1.62 2.47c-.19-.28-.84-1.16-1.04-1.43zm0 2.29c-1 .09-2.12.18-3 .17-1.07 0-2.25 0-3.41-.09.59-.75 3-4.07 3-4.07a27.11 27.11 0 0 1 3.42 4zM100 80.19c-.26-.57-1.83-3-2.2-3.59 1.51.19 3.07.36 4.39.48-.37.62-2.19 3.11-2.19 3.11zm-1.58 4c0-.32.06-.55.06-.55a14.51 14.51 0 0 0 4.8 4.58c-1 .88-3.36 2.63-4.16 3.21a12.41 12.41 0 0 0 0-2c-.24-.97-.75-4.93-.72-5.25zM99 93c.87.68 3.94 3 4.46 3.31 0 0 .13 0-1 .62-.55.25-2.76 1.28-3 1.42-.22-1.54-.44-4.82-.47-5.34zm2.51 7.79c-.3-.27-1.71-1.34-1.57-1.44s2.25-1 3.32-1.43a14.67 14.67 0 0 0 1.71-.85A20.12 20.12 0 0 0 110 99a17.94 17.94 0 0 1-2.5 2.64 9.57 9.57 0 0 1-2.53 1.55 10.62 10.62 0 0 1-3.44-2.39zm2.48 3.44c-.14 0-1.47-.47-1.55-.52h-.05a4.85 4.85 0 0 1-1.89-1.38 5.6 5.6 0 0 1-.61-1.66 33.54 33.54 0 0 0 4.29 3.27c.82.58-.02.33-.18.3zm1.35 0c.33-.11 2-1.22 2.5-1.53l3-3c.1.73.35 3-.18 3.88a4.15 4.15 0 0 1-2.27 1.28 8.78 8.78 0 0 1-2.79-.23c-.35-.07-.6-.21-.23-.34zM111 89.58a10.74 10.74 0 0 1-4.9-1.58l-.38-.21.61-.51 5.32-4.36a40 40 0 0 0-.65 6.66zm-2.36-8.39a4.22 4.22 0 0 0 .68-.77 29.46 29.46 0 0 0 1.82-3.33c.1-.33.29-.33.29-.33.52 0 3.32 2.57 3.32 2.57a12.41 12.41 0 0 1-1.72 1 24.81 24.81 0 0 1-4.35.86zm4.37-5l.25-.08c1.24-.42 2.37-.83 3.24-1.15l.27 1.94c.11.85 0 1-.17 1.19a11.36 11.36 0 0 1-1 .78l-.33-.53a7.09 7.09 0 0 0-2.22-2.11zm-1.92-1.06A39.08 39.08 0 0 1 96 75.11c-5.53-1.31-8.19-2.39-12.42-5.42a36.17 36.17 0 0 1-8.85-9 33.2 33.2 0 0 1-3.11-5.28S71.28 54 71 53.82a16.71 16.71 0 0 1-2.59-1.4 13.64 13.64 0 0 1-2.11-3.62 3.69 3.69 0 0 1 .07-2.13 2.83 2.83 0 0 1 2.34-1.51c-1.23-1.69-.77-5.82-.77-5.82a3 3 0 0 1 .88-2c.84-.73 3-1.34 4.75-1.69S84.85 33.36 86 33.17s1.92-.42 2.11-.42a12.76 12.76 0 0 0 5.63.57s.31 0 .23-1.15 1.34-7.7 2.41-9a24.24 24.24 0 0 0 1.49 5.17c.5 1 1.19 5.67 1.38 6.09s.38.5 1.69 0a68 68 0 0 1 7.17-1.53 19.57 19.57 0 0 1 7-.15 42.34 42.34 0 0 0 8.12 1.15 8.67 8.67 0 0 0 3.72-.5c.19 0 .46.92 1.15 1.61a11.77 11.77 0 0 0 2.07 1.46 12.26 12.26 0 0 1 1.66 1.61c.83 1 1 2.41 1.49 4.22a3.68 3.68 0 0 0 3 2.56c.86.17 1.12-.37 1.67-.57s1.06-.26 2.76.32a3.41 3.41 0 0 1 2 2.56s.72 3.94-2.44 5.92l-.06.1a7.18 7.18 0 0 1-2.62 1.44c-.66 2.79-2.36 5-5.26 8.33a40.41 40.41 0 0 1-7 6.09 42.2 42.2 0 0 1-4.89 2.68l-.2.12-.26.15c-2.63 1.51-6.87 2.59-8.89 3.17zm-41.72-41.2l.05-.07a4.88 4.88 0 0 0 .94 1.52 7.78 7.78 0 0 0-3.36 3.8c-.61 1.8-.42 4.25-.61 4.45s-.16 0-.26 0a8.16 8.16 0 0 1-.81-1.84 23.7 23.7 0 0 1 .46-12.22 35.07 35.07 0 0 1 4.18-7.89c-.57 1.23-1.15 5.21-1.26 7.82a10.89 10.89 0 0 0 .67 4.43zm71.48 9.21c-1.49-.09-4.28.63-5 0-1.54-1.42-1.24-2.53-2.18-4.25a18.67 18.67 0 0 0-2.2-2.68l1.71 1.08a8 8 0 0 1 1.58 1 14.72 14.72 0 0 0 3.19 2.39 6.53 6.53 0 0 0 3.54.78 16.27 16.27 0 0 1-4.89-3.28s3.74-.06 5.52 1.7a7 7 0 0 1 2.53 5.4c0 1.35-.19 1.71-.33 1.79h-.11c-.34-2.39-1.89-3.85-3.37-3.93zM104.7 3.24a4 4 0 0 1 1.88-.88 18.33 18.33 0 0 1 4.56-.11 3.21 3.21 0 0 1 1.9.89.45.45 0 0 0 .21.26s1.23.92 2.18 4.41 1.34 9 1 10c0 0 .27.73.77-3.22s-1.3-9.27-1.3-9.27-.65-1.3.8-.54a69.94 69.94 0 0 1 7.05 5.67 34.08 34.08 0 0 1 4.37 6.9c.77 1.84.57 5.79.57 5.79 0 1.64-.1 5.61-1.13 7.63-1.26 2.47-3.56 1.84-5.17 2a18.94 18.94 0 0 1-5.69-.63 9.18 9.18 0 0 0-2.47-.46l1.15-1.26c1.15-1.26 1.12-3.81 1-4.4-.41-3.15-.76-3.13-.76-3.13-.4.57 0 3-1.26 5.81s-3.68 2.87-6 3a43.9 43.9 0 0 0-6.21 1.21c-1.61.63-1.72-.21-1.72-.21s-.54-2.38-.8-3.3-1-3.3-1.3-4.83c-.23-1.32-.35-5-.38-6a33.24 33.24 0 0 1 1.64-7.15c1.16-3.16 4.07-7.42 5.11-8.18zm-9.16-.11c4.75-1.15 6.71-.34 6.71-.34-2.15.77-4.18 3.14-6.36 5.75a18 18 0 0 0-3.56 7.13c-.42 1.69-.38 2.49-.15 2.49s.34-1.57 1.72-4.68A26.41 26.41 0 0 1 98.38 7a16.19 16.19 0 0 1 3-2.11c.73-.38 1.61-.54.77.42a34.73 34.73 0 0 0-4.06 7.24A15 15 0 0 0 96.84 19s-1.15 3.09-1.91 4.66a23.38 23.38 0 0 0-1.69 5.52c-.27 1.57.08 2.53-.38 3a4.22 4.22 0 0 1-3 .19c-.54-.31-1.26-.69-.65-2.61s.8-2.53.8-2.53a12.1 12.1 0 0 1-2.38 3.1 12.17 12.17 0 0 1-4.45 1.76c-2.22.5-5.48 1.61-5.71 1.69s-1.46 1-2.11-1.15-.88-7.43 0-9.89 3.45-7.05 4.52-8.12a32.85 32.85 0 0 0 2.49-2.57c.25-.39 4-4.06 4.63-4.63a1.16 1.16 0 0 0 .23-.16 19.39 19.39 0 0 1 8.31-4.14zM83.47 7.84l-.11-.08c.08.07.16.11.22.08.31-.11 4.33-2.34 4.33-2.34l-2.37 1.69a43.19 43.19 0 0 0-5.48 5.44 37.71 37.71 0 0 0-5.13 9.12 19.9 19.9 0 0 0-1.46 7.78c.11 1.65 1.15 3.3.84 4.37s-1.11 1.1-1.49 1.34-2.18-.77-2.68-2.38c-.14-.46-.27-.58-.37-.53a7 7 0 0 1-.36-3.33A25.34 25.34 0 0 1 75 15.54a36.05 36.05 0 0 1 8.47-7.7zM60.9 28.38a29.94 29.94 0 0 1 6.9-10.27c4.71-4.37 7.59-5.36 7.59-5.36-.15.38-4.06 5.67-4.83 6.67a30.86 30.86 0 0 0-4.48 6.17 22.42 22.42 0 0 0-2.57 7.8 8.41 8.41 0 0 1-2.15 2.53c-1.46 1.15-2.8 4.22-3 4.48s-.77 1.61-.8.11S59 31.14 60.9 28.38zm.3 32c-.12-.23-.32-.52-.39-.71-.39-1-1.18-3.1-1.64-3.95a19 19 0 0 1-1.48-5.17c-.31-2.11-.38-6.82.88-8.55s2.25-4.74 4.63-6c-.07.87-.12 1.7-.15 2.47A12.89 12.89 0 0 0 64.69 45l.18.43a9 9 0 0 0-1.76 4 27.83 27.83 0 0 0 0 9.92c.46 2.26 1 4.87 2.22 6.28a53.87 53.87 0 0 1-4.13-5.28zm17.37 15.9a7.55 7.55 0 0 1-4.45-3.41c-1.57-2.49-2.45-4.94-3-4.83s.08 1.38.46 2.3 2 3.49 3.45 4.29c0 0-1.11.27-3.22-1.72a25.64 25.64 0 0 1-5.21-6.74c-1.38-2.61-3.41-10.19-3.3-12.91 0 0 1.69 8.09 4.52 10.27 0 0-3.49-6.13-3.53-12 0-3.9.45-5.12.78-5.5v.06a4.43 4.43 0 0 0 .17.64 8.92 8.92 0 0 0 .37 3.92 19.18 19.18 0 0 0 1.48 2.93c.14.37.47 1.27.7 2 .31 1 1.26 4.1 1.61 5.13s3 7 5.67 9.54 5.71 5.9 6.36 6.28a7.29 7.29 0 0 1-2.86-.25zm5.17.77C81.67 75.55 75.38 69 73 65a61.41 61.41 0 0 1-4.14-9.43c-.15-.38-.65-2.18.42-.73l1.07 1.46s1.48 2.34 4.24 6.15a56.66 56.66 0 0 0 8.82 9 40.82 40.82 0 0 0 6.33 3.38l.41.18a1.85 1.85 0 0 1 .71 1 11.57 11.57 0 0 1 .62 2.39c0 .3-.63.51-.63.51l-2.26-.08A8.74 8.74 0 0 1 83.74 77zM71 137.93c-.26 0-1.09.66-1.81.63a8.06 8.06 0 0 1-3.39-.95 6.8 6.8 0 0 1-1.8-2.87 26.67 26.67 0 0 0-1.78-3.59c-.11 0-.11.17-.06.72s1 3.71 1 3.71-.49 0-1.7-.89a6.36 6.36 0 0 1-2.18-3 17.37 17.37 0 0 1-.63-3.1 25.84 25.84 0 0 0-1-3.33 8.55 8.55 0 0 1-.8-3.91 4.72 4.72 0 0 1 1.55-2.93 22.24 22.24 0 0 1 5.29-6.12 10.92 10.92 0 0 1 7.33-2c.26 0 1.61 0 .52.37a16.37 16.37 0 0 0-4.2 2.62 8.83 8.83 0 0 0-1.34 3.17c-.11.8-1 2.67-.83 2.73s.37-.37.92-1.47 1.64-3.42 3.45-4.63a7.68 7.68 0 0 1 5.26-1.55c2.1.11 1.93.95 2.59 1.38a12 12 0 0 1 2.59 1.47 2.84 2.84 0 0 1 .92 2.3v.17l-2.07-1.76a5.56 5.56 0 0 0-1.4-.8 5.55 5.55 0 0 0-2.67.57 11.28 11.28 0 0 0-2.62 1.9c-.6.69-2.3 3.22-3.31 7.85a18.81 18.81 0 0 0 0 8.91c.34 1.87 2.79 4.4 2.79 4.4zm6.74-21.74l-2.71-.11v-.05l1.64-.69c.33.21 1.11.85 1.11.85zm-4.05 21c-.06.43-.56 1-.88.81a2.4 2.4 0 0 1-.29-3.28c.54-.81 1.91-.65 2.37-.58-.03.12-1.11 2.58-1.16 3zm1.81-7.41a22.93 22.93 0 0 0 .78 3.13c.17.24-.43 0-.62-.05a.07.07 0 0 0-.06 0c-.34 0-2 .06-2.62.11a2.67 2.67 0 0 1-2.36-.75c-.8-.83-.83-2.07-.8-4.28a24.76 24.76 0 0 1 1.72-8.22 4.59 4.59 0 0 1 3.13-2.59v-.07c.71 0 3.79 0 4.48.17a2.44 2.44 0 0 1 1.44.72c.09.17-.8.06-2 1s-2.33 3.39-2.76 4.83a17.21 17.21 0 0 0-.29 5.95zm1.55.57c-.32.2-.43-3.31-.14-5.06a14.47 14.47 0 0 1 2.1-5 3.81 3.81 0 0 1 2.26-1.29 6.86 6.86 0 0 0 4.31.57c2.5-.46 2.41-.69 4.91-2.64s2.56-4.68 3-5.86.26-3.42 1.61-3.19 1.26 2.73 1.44 4.17a16 16 0 0 1-.2 3.62h-.11c-.41.18-1.82.8-2.31 1-.66.32-1.09.4-1.09.78s.26.32.72.14a7.73 7.73 0 0 1 2.9-.69 3.73 3.73 0 0 1 2.85 1.44c.34.63-.06 1.44-.89 2A11 11 0 0 1 95 121c-.26 0-.46.26.06.46a2.51 2.51 0 0 0 1.7.14 7.57 7.57 0 0 0 3.08-1.09c.46-.46.92.29 1.06.78a1.84 1.84 0 0 1-.66 2.3 13 13 0 0 1-3.28 1c-.6.12-1.24.37-1.29.55s.2.32.75.4 2.18-.4 3-.46a9.72 9.72 0 0 0 1.67-.29 3.91 3.91 0 0 1-.2 2.1c-.43.83-.37 1.06-.95 1.18s-3.42.46-3.85.66-.78.4-.63.63.8.06 1.38.06a22.28 22.28 0 0 1 3-.29c.2.17.11.66-.55 1.18s-.29 1.06-4.54 1.93a25.37 25.37 0 0 1-7.82.32c-1.09 0-4.2-1.44-5.6-1.67s-3.92-.79-4.24-.59zm1.31 26.1c-.23-1.15-.8-2.15-.27-2.87s.42-1.19 3-1.19c.63 0 1.43 0 2.29.1-.52.65-3.92 5-4.8 6.27a17.79 17.79 0 0 0-.18-2.36zm2.45 6.25c-1.16 0-1.75.07-2-.48.08-.26.08-1.18.25-1.8.23-.84 4.62-7.09 5.19-7.24s.92.71 1.46 2 2 5.46 2.18 6.38a12.6 12.6 0 0 1 .24 1.41c-2.87-.21-6.43-.35-7.28-.33zm30-7.78a2.48 2.48 0 0 0 .33.8v.07a.23.23 0 0 1 0 .19l-.4.5a6.73 6.73 0 0 1-1-1.27c-.13-.22-.38-.6-.38-.6s-.46-.67.1-.65h1.71l-.13.14a1.09 1.09 0 0 0-.15.76zm29.44 2.34c0-.2 0-.73-.08-1.47h.06a8 8 0 0 1 3.15 3.9 11.9 11.9 0 0 1 .11 6.44 7.27 7.27 0 0 1-2.62 3.5 14.6 14.6 0 0 1-4.49 2.66c0-2.64-.09-6.81-.09-6.81l.11-2.64a6.84 6.84 0 0 0 .78-.05c.35 0 1.25-.09 1.73-.18s1-.23 1.19-.92a17.77 17.77 0 0 0 .23-4.49zm-1.22.49a2.13 2.13 0 0 1-1.58 2s-1.21-2.78-2.2-5a9.37 9.37 0 0 0-2-3s1.68.66 2.16.91l.74.37v.05a.79.79 0 0 0 .79.79.77.77 0 0 0 .48-.17 11.25 11.25 0 0 1 1.21.76 8.39 8.39 0 0 1 .48 3.24zm-.2-6.59a1.63 1.63 0 0 1-1.12.54c-.74 0-2.63-1.54-3-1.76s-.5-.66-.09-1.32a4.52 4.52 0 0 1 2.42-2.08A8.56 8.56 0 0 0 140 145c.63-.52.8-1.07 1.23-.91 0 0 .91.63.91 1.42s0 1-.85 2.58a10.19 10.19 0 0 1-2.3 3zm3-9.21c-.69.69-2.94 1.84-3.37 2.42a4 4 0 0 1-1.26 1.29 1.31 1.31 0 0 1-1.57-.28c-.35-.35-.21-.95-.72-2.22a15.84 15.84 0 0 0-1.43-2.63 8.51 8.51 0 0 0-5.52-3.37 13.32 13.32 0 0 1-1.73-.25c-.35-.13-.25-.77.28-1.57s1.23-2.15 1.48-2.58a3 3 0 0 1 2.3-1.45 10.93 10.93 0 0 1 5.13 1c1.53.71 2.66 1.26 3.15 2s.61 1.79 1.38 2.64a11.75 11.75 0 0 1 2.17 3c.37.88.45 1.25-.24 1.95zm-13.34-3.52a10.57 10.57 0 0 1 3.52 2.74l.31.31s1.53 2.25 1.76 2.74a7.25 7.25 0 0 1 .63 2c0 .69-1.32 2.41-1.45 3.11a1.7 1.7 0 0 1-.22.58c.1-.27.18-.47.2-.55a7 7 0 0 1-.32.71l-.05.07v.09a7.86 7.86 0 0 1-4.18 3.57 15.59 15.59 0 0 1-4.28.35c-.82-.3-.28-.86-.21-1a9.13 9.13 0 0 0 1.82-1.31c.07-.11.16-.26.34-.52a1.73 1.73 0 0 0 .19-.36 1.65 1.65 0 0 0 .34-.47 13.59 13.59 0 0 0-.5-4.92 8.86 8.86 0 0 1-.65-2.22c-.05-.27-.33-.49-.46-.46s-.12.08-.2.2a5.82 5.82 0 0 1-.19-.59c-.13-.55-.83-1.13-.79-.31a1.53 1.53 0 0 1-.5 1.45c-.14.09-.78.24-1.64.55a8.63 8.63 0 0 0-3.29 1.73c-.35.14-1.39.52-1.49.27s-.14-.71.53-1.82a15.18 15.18 0 0 1 4.84-4c1.24-.46 2.49-1.79 3-1.92a5.37 5.37 0 0 1 2.99-.08zm-6.63 17.08l.27-.31a5.27 5.27 0 0 0 .38-.58l.16-.16a2.47 2.47 0 0 0 1.23 1.12 7.43 7.43 0 0 0 2.17.29.79.79 0 0 0 1.57-.09 4.61 4.61 0 0 0 .56-.14c.8-.26 2-.8 2.78-1.16a18.91 18.91 0 0 1-3.3 7s-.19.15-.88-.5c-.44-.55-3.16-3.42-4.88-5.53zm3.77 7.28c-2.53.36-5.1 1.14-8.05 1.32 0 0-4.62.24-5.66-.16l3.25-4.18a.86.86 0 0 1 .89-.19c1.59.53 4.25-2.21 5.33-3.52a50.2 50.2 0 0 1 5.21 6c.19.32-.33.54-.91.68zM120 146.66a4.77 4.77 0 0 1 2.22-1 2.42 2.42 0 0 1 1.68.54 4.12 4.12 0 0 1 .45 1.17 3.58 3.58 0 0 1 .13 2.64 13 13 0 0 1-1.33 1.94l-.12.16-.13.17c-1.87 2-4.45 4.67-4.56 4.76s-1.16 1.16-1.57 1.13-.63-.66-1.17-1.51a6.18 6.18 0 0 0-2-1.59l-.19-.07a4 4 0 0 1-.73-.46c-.09-.13-.23-.14.48-.9s6.84-6.98 6.84-6.98zm-6.31 9.93a2.11 2.11 0 0 1 1.16 1.4 7 7 0 0 1-1.2 2.08c-.45.67-14.92 19.15-26.35 33.76 0 .07-1.05 1.36-1.8 2.31-5.35 6.85-9.78 12.51-11.33 14.52s-.55.65-.88.42a3.91 3.91 0 0 0-1.28-.79s-.78-.11-.64-.51 2.54-3.5 2.54-3.5l10.89-14.12 22.92-29.73 4.47-5.77a1.43 1.43 0 0 1 1.48-.07zm-18.64 50.13c3.51 1.21 11.67.11 11.67.11s-2.64 2.7-8.39 2.93c-3.92.16-5.57-.59-6.22-1-.2-.86-.36-1.56-.45-1.89a7.77 7.77 0 0 1-.25-2.37c.42.69 1.23 1.39 3.64 2.22zm-3.16-3.43c3.25 1.38 7.88 2.44 12 1.5a18 18 0 0 0 3.36-1.22c.14 0 .34.07.43.3a7 7 0 0 1 .09 1c-2 1.11-7 2.1-11.07 1.32-3.17-.6-4.4-2.19-4.81-2.9zm.24 15c-.21-.77 3 .1 3.41.22h.07c-.43.07-1 .18-1.6.29s-1.67.2-1.88-.53zm1.54-2.7l-.87-3.78c.93.78 2.72 1.29 5.18 1.88 2.87.69 8.68-.34 8.22 0a9.79 9.79 0 0 1-1.84.8 22.85 22.85 0 0 1-10.68 1.12zM91.92 213c.4 1.58.58 2.75.32 3.14-.46.69-5.17-2-9.43-2.07a21.84 21.84 0 0 0-4.74.39c2.61-1.28 6.7-3.72 7.25-4s.83-.52.9.09a2.4 2.4 0 0 0 1.78 1.9 10 10 0 0 0 2.93.42 9.93 9.93 0 0 0 .99.13zm-25.32 8.87a16.85 16.85 0 0 0 .95 1.44c.84 1.16 1.92 2.57 2 2.81s0 .72-.46 1.36a5.92 5.92 0 0 1-1.89 1.76c-.92.52-1.36.82-1.83.75s-12.72-8.31-13.12-8.54-.55-.65.09-1.17c.46-.38 1.9-1.36 2.64-1.86.83-.69 2.1.49 6.26.41a4 4 0 0 0 1.65-.47c1.21-.63 6.55-6.46 6.55-6.46a2.29 2.29 0 0 1 1.68.27 1.4 1.4 0 0 1 .44 1.58c0 .13-1.06 1.37-1.93 2.42s-4.22 3.92-3.03 5.7zM50.12 195.5c-.52-1.34-3.23-1.25-4.44-1.46s-2.6-.14-3.35-1.37-.19-4.22.38-4.34 1.84 1 4.62 2.22 9.58 2.12 14.68 2.17 10.95-1.39 12.88-2.36c0 0 5.36-2.45 6-2.83s2.29-1.2 2.6-1 .5.25.63.6c.19 1 .33 2 .43 3l-15 19.15-1.27 1.57s-3.49 4.43-3.67 4.59a2.23 2.23 0 0 1-.63.43l-.54.21-1 .34a3.38 3.38 0 0 1-2 0c-.78-.38-10.23-6.58-11.74-7.43a3.73 3.73 0 0 0-2.71-.5l-1.53.56c-.31-1.28-.63-2.71-.78-3.75-.35-2.36 0-3.33.28-3.35s3.16 0 4.2 0 1.58-1 2-2a7.46 7.46 0 0 0-.04-4.45zm12.55-11.42a1.25 1.25 0 0 0 .76 1.13c.61.35 6.06.78 7.69 1s3.8.78 3.73 1-.19.57-1.18 1.18c-.26.18-2.42 1.57-7.71 2.06-5.66.52-11.94 0-15.34-1.06-2.8-.91-6-2.67-6.51-2.81a16.63 16.63 0 0 1 7.08-2.27c3.86-.39 9.19-.86 10.86-.9-.05.27.55.18.62.68zm2.31-.42c3.61.18 9.88.49 10.48.8.83.42 1.09.85.9 1.65-.66-.07-9.11-2.19-10-2.12s-1.24-.11-1.36-.33zM78 186c0-.36.13-1.21.46-1.21a7.55 7.55 0 0 1 1.32.26c-.51.34-.86.68-1.09.78a3 3 0 0 1-.69.17zm5.47-14.1a26.06 26.06 0 0 1-.86-4.36c-.08-1.57-.11-2.53 1-3a9.1 9.1 0 0 1 4.14-.61c1.11.23 5.36.92 6.7 1.15.9.15 2.84.41 4 .5 2.21.18 4.5.31 5 .24l-17.34 22.27q-.16-1.37-.26-2.87l-.4-6.21s3.1 3 3.62 2.53-1.9-1.78-3-3.68a32.31 32.31 0 0 1-2-4.41l-.59-1.5zm.07 6.15c-.74-.11-3-.43-6-.78a38.71 38.71 0 0 1 5.05-2.11 1.27 1.27 0 0 1 .63.17 6.78 6.78 0 0 1 .3.75c.05.15.04.92.03 2.02zm-14.38 40.41l1-1.09c1.6-.47 3.09-1 4.32-1.44a6.82 6.82 0 0 0-1.7 1.66c-1.14 1.6-2 2.67-1.9 5.17l-.47-.34a17.15 17.15 0 0 1-2.29-2.08c-.21-.34.54-1.34 1.04-1.88zm2.9 2.64c.17-.48.3-.65.63-.62a2 2 0 0 1 .91.42 7.65 7.65 0 0 0 3.91 1.39 20.58 20.58 0 0 0 0 2.61c.11.46-.12.39-.48.4h-.29c-2.3-.12-3.64-.54-4.54-2a3.18 3.18 0 0 1-.33-.66 7.74 7.74 0 0 1 .19-1.54zm5.78 6v.27l-.52-.31zm-.26-6.61a4.14 4.14 0 0 1-2.07-.33 1.91 1.91 0 0 1-1.15-2.3 2.88 2.88 0 0 1 .64-1.12 9.3 9.3 0 0 1 4-1.4c-1.09 1.01-1.42 5.15-1.42 5.15zm1.53 1.57s.19.11 1.46-.08 4.71-1.15 5.33-.57.77 2.84.19 3.3a1.75 1.75 0 0 1-.49.27l-.45.11h-.29c-1.44.14-2.87.22-4.22.22h-1.29c-.1 0-.14-.08-.18-.22-.11-.35-.37-2.79-.06-3.02zm2.83-6.87h1a6 6 0 0 1 2.15 2.26 1.14 1.14 0 0 1-.34 1.72 20 20 0 0 1-5 1.26c-1 0-.5-1.46-.19-3s2.41-2.26 2.41-2.26zm4 2c-.42-.42-1.3-1.3-.84-1.46a12.5 12.5 0 0 1 2.33.37s2.56 1 2.67 1.74-1.14.84-1.32.89c-.77.08-2.26 0-2.3-.23a2.43 2.43 0 0 0-.48-1.26zm5.34-6.35c-.07.54.12.66-.76.57s-2.71-.54-3-1.23a15.4 15.4 0 0 1 .19-5.8c.36-1.8.92-2.39 1.32-2.67l.31.2a28.08 28.08 0 0 0 1.18 6.69c.24.75.48 1.49.69 2.2zm-5.38-5c-.09.94 0 1.82-.28 2s-3.07 2.22-7.31 4.67a37.58 37.58 0 0 1-6.64 3l2.39-2.76 12.06-15.56a14.45 14.45 0 0 0 1.62 3.13c-1.09 1.51-1.74 4.68-1.81 5.61zm24-48.38l-4.9 6.27h-1.77a35.32 35.32 0 0 0 1.77-3.31c.4-1 1.94-5 2.22-5.42s.84-.53 1.43.57c.05.06.83 1.23 1.35 1.98zm-5.89 2.77a5.6 5.6 0 0 1-2.39 3.11.53.53 0 0 1-.45 0 1 1 0 0 1-.37-.46 15.66 15.66 0 0 1-.89-2.06c-.18-.46-1.74-5.73-2.49-6.95l1.22.13c.42 0 4.13 0 7.24-.08a59.09 59.09 0 0 1-1.8 6.4zm-4.43 3.1c0 .18 0 .33-.46.39-1.6-.13-6-.49-7.26-.64-.29 0-.78-.07-1.41-.12a17.68 17.68 0 0 0 2.31-3.6 21.7 21.7 0 0 1 3-5.12c.46-.25.54-.4 1.21 1.21s2.66 7.79 2.68 7.98zm-10-1.19c-.54.46-2.66-8.26-3.86-9.58 1.76.18 3.3.38 3.61.44s2.79.32 5.1.56c-.43 1.05-4.22 8.23-4.74 8.68zm-10.41 7.59a19.34 19.34 0 0 0 2.17.8 13.29 13.29 0 0 0 .8 2.84c-.68-.07-2.59-.09-2.45-.57a2.15 2.15 0 0 0-.24-1.32l-.94-1.51s-.51-.7.77-.14zm-2.69-.14c.17 0 1 1.93 1 1.93.09.33.61.92.14 1.09s-.71-.76-.71-.76a10.45 10.45 0 0 1-.32-2.16zm-4.44 1.13s2.48-1.09 2.88-.8a5.4 5.4 0 0 1 .8 2.41c-.06.27-.19.58-.48.58-.47 0-4.6-1.18-4.72-1.51s1.63-.57 1.63-.57zm-1.7 3.11a.57.57 0 0 1 .8-.42 23.85 23.85 0 0 0 4.67 1.27 5.22 5.22 0 0 0 2.78-.94c.45-.21.92.14 1.27.52s-.61.76-.61.76L75 177c-1.42-.15-2.95-.3-4.51-.43a14.11 14.11 0 0 1-.04-2.63zm-6.75-.66a9.59 9.59 0 0 1 4.15-2.88c.23.05.52.6.65.86a.52.52 0 0 0 .06.14 7.13 7.13 0 0 1 .38 3.35c-.12.66-.31.92-.76.9s-4.88-.61-5.1-1 .74-1.26.74-1.26zm-3.4 2.36a1.66 1.66 0 0 1 1-.42c-.13.33.17.72.36.93h-2.21a4.41 4.41 0 0 0 .97-.4zm-18.26 25a4.64 4.64 0 0 0 .47-.39 5 5 0 0 0 1.2-2.86c.11-1.09-.3-.35-.41-.22a8.54 8.54 0 0 1-1.1 2 3.62 3.62 0 0 1-1.63 1.21 5.77 5.77 0 0 1-.67-.25 13.14 13.14 0 0 1-1.36-.62l-.17-.1a3.3 3.3 0 0 0 1-.78c.55-.53.87-1.32.66-1.42s-.94.85-1.64 1.23a2.4 2.4 0 0 1-1 .33 10.94 10.94 0 0 1-3.28-4.4 4.11 4.11 0 0 0 1.67.48 2.42 2.42 0 0 0 1.87-.52c.5-.42.08-.52.08-.52a3.31 3.31 0 0 1-2 .16 7.59 7.59 0 0 1-2.2-1.43 7.67 7.67 0 0 1 0-3.56 2.94 2.94 0 0 0 1.93 1.62c.69.2 1.05.27 1.2 0s-.57-.3-1.38-1.1a5.64 5.64 0 0 1-1.18-2 11.39 11.39 0 0 1 3.79-4 4 4 0 0 0 2.07 2.71c1.42.66.66-.22.66-.22a15.64 15.64 0 0 1-1.27-1.45 2.62 2.62 0 0 1-.53-1.64c.69-.43 1.46-.85 2.3-1.27.51-.16 1.21-.57 2.62-1.11a4.13 4.13 0 0 0 1.07 2.92c.94.76.47-.13.47-.13a3.52 3.52 0 0 1-.72-1.67 2.52 2.52 0 0 1 .2-1.5 44.37 44.37 0 0 1 4.59-1.24 4.24 4.24 0 0 0 .53 3.27c.82.88.47 0 .47 0a9.57 9.57 0 0 1-.31-1.67 2 2 0 0 1 .49-1.82c1.14-.23 2.43-.46 3.88-.69a46.7 46.7 0 0 1 7.89-.39 4.49 4.49 0 0 0-.27 1.93c.08 1.09 1 2 1.32 1.89s-.49-1-.5-2c0-1.17.32-1.62.85-1.8 1.49.05 3 .14 4.48.25a3.12 3.12 0 0 0-.23.92 2.85 2.85 0 0 0 .6 2.08c.41.46.09-.42 0-.94a3.1 3.1 0 0 1 .43-2c1.92.16 3.79.35 5.51.54a6 6 0 0 0-.27.66 4.93 4.93 0 0 0 0 2.8c.13.29.46.9.38 0a7 7 0 0 1 .56-3.19l.12-.21c1.7.2 3.22.41 4.46.58a5.79 5.79 0 0 0-.18 1.33 4.93 4.93 0 0 0 .85 2.66c.21.24.71.72.38-.08a7 7 0 0 1-.42-3.21 2.77 2.77 0 0 1 .18-.59c1.58.23 2.54.39 2.54.39a.68.68 0 0 1 .48.51c0 1 0 2 .05 2.94a3 3 0 0 1-2 1.27s-2.1-.27-4.52-.6a2.11 2.11 0 0 1-.19-.48 5 5 0 0 1 .14-2.31c.2-.58-.13-.23-.27-.05a3.42 3.42 0 0 0-.48 1.93 4.34 4.34 0 0 0 .15.83c-1.13-.16-2.3-.33-3.32-.49l-1.21-.05a2.4 2.4 0 0 1-.54-1.32c-.1-.74.27-1.81.09-1.86-.41-.11-.85 1-.85 1.82a2.16 2.16 0 0 0 .28 1.25c-1.54-.15-3.36-.26-5.21-.33a.78.78 0 0 1-.44-.88 2.2 2.2 0 0 1 .63-1.29c.3-.24.19-.53-.6.06s-1 1.59-.4 2.12c-1.84-.06-3.67-.08-5.27-.05a2.61 2.61 0 0 1-.74-1.75 4.78 4.78 0 0 1 .16-1.82s.08-.72-.57.13a3.76 3.76 0 0 0 0 3.48c-.6 0-1.27.05-2 .11a3.08 3.08 0 0 1-.91-2.23c.14-1.23-.08-1.15-.5-.66a3.14 3.14 0 0 0 .12 3 53.8 53.8 0 0 0-7 1.09 2.26 2.26 0 0 1-.65-1.34 3.61 3.61 0 0 1 0-1.35s-.31-1-.68.66A3.05 3.05 0 0 0 47 184a12.76 12.76 0 0 0-3 1.16 4.15 4.15 0 0 1-1.8-1c-.71-.72-.8-.57-.75-.09a3.83 3.83 0 0 0 1.64 1.69 6.3 6.3 0 0 0-2.24 3 5.41 5.41 0 0 1-3-1c-.22-.13-.57.19.6 1.07a4.82 4.82 0 0 0 2.16.93 10.68 10.68 0 0 0-.13 1.14c-.08.17-.3 1-1 1.24a4.36 4.36 0 0 1-1.7 0c-.19 0-.5.27.13.47a5.3 5.3 0 0 0 2.11.06 1.18 1.18 0 0 0 .58-.26 3.64 3.64 0 0 0 .43 1.12 1.74 1.74 0 0 1-.89.84 4.39 4.39 0 0 1-1.54.47c-.36 0-.74.33.19.44a3.83 3.83 0 0 0 2.17-.28 2.43 2.43 0 0 0 .78-.66 2.93 2.93 0 0 0 1 .49 13.87 13.87 0 0 0 2.22.31 1.81 1.81 0 0 1 .22 1.53 4.88 4.88 0 0 1-.57 1.57c0 .08-.22.52.5-.06a2.62 2.62 0 0 0 1-2.14 2.43 2.43 0 0 0-.11-.82 6.45 6.45 0 0 1 2.28.41c.76.5 1.39 1.27.85 3s-1 1.86-2.41 2a22.7 22.7 0 0 1-4.67.03zm33.13 42.89c-.1.68-.27 1-.54 1S35.49 218 35.49 218a1.55 1.55 0 0 1-.68-.91 1.25 1.25 0 0 1 .23-1 .53.53 0 0 1 .46-.07 4.87 4.87 0 0 0 1 .8c1 .58 34.4 23.3 35.87 24.33a16.92 16.92 0 0 0 2.63 1.56s.29.16.18.84zm10.59-6.67c.07.29.17 1.07-1.52 2.42a61.08 61.08 0 0 1-7.11 4.52c-.51.15-1.13.53-1.28.14a1.56 1.56 0 0 1 .07-1.09l.33-.17a.13.13 0 0 0 .12-.07c.7-.42 1.78-1.19 2.77-1.74 1.25-.69 4.51-2.83 5.95-3.84s.72-.33.8-.04zM85.3 235a2.59 2.59 0 0 1-1.16 1.67c-.86.6-7.07 3.5-7.86 4a1.79 1.79 0 0 1-1.49.36l-32.86-22-3.08-2.06c-.34-.23-2.65-1.74-2.66-2.54s.63-1 1.08-1.19c.26-.13 3.29-1.46 5.9-2.52 0 .05 3-1.42 3.8-1.34a5.72 5.72 0 0 1 1.75.7s11.38 7.34 11.28 7.5-.37.57-3.43-.66c-.28-.11-.43-.2-.46-.2a1.44 1.44 0 0 0-1.17 0c-.05 0-4.4 3.11-4.4 3.11s-.61.66-.23 1.25 13.68 9.71 13.74 9.74a3 3 0 0 0 2.25.34 16.69 16.69 0 0 0 3.34-2.07 5.23 5.23 0 0 0 1.55-1.82s.19-1-.13-1.39c-.47-.54-2.38-2.39-2.88-3.1s-.32-1.26.19-.79c0 0 3.18 2.9 3.39 3.06.39.29 3.59 2.26 4 2.5l2.46 1.55s4.32 2.81 4.41 2.88c1.01.91 2.72 2.71 2.67 3.02zm.9-5.69h-.06c-.51.1-3.36.53-4.09.59l-.47-.31c-.34-.22-1-.6-1.73-1.07-.21-1.18.1-1.4.61-1.51 0 0 2-.17 2-.15s3.79-.54 4.25 0a1.8 1.8 0 0 1-.51 2.49zm1.3-9c.23-.46 1.19-.46 1.19-.46.28 0 1.49-.06 2-.05a2.57 2.57 0 0 1 1.09.37c1 .69 1.46 3.33 1.34 3.53a36 36 0 0 1-4.82.87 3.57 3.57 0 0 0-.13-1.52c-.25-.95-.9-2.21-.67-2.67zm6 6.86a2.08 2.08 0 0 1-1.33 1.18c-1.45.17-2.83.35-3.9.53a14.1 14.1 0 0 0 .29-1.64c0-.57 0-.84.46-1s3.95-.8 4.33-.54.32.96.17 1.54zm.84-5.79c-.42-1-.54-1.23-.08-1.23a9.12 9.12 0 0 0 2.22-.08c.84-.19 1-.57 1-.57a7.54 7.54 0 0 1 1.72 3.3v.1c-1.11.25-2.46.5-4.2.74a15.16 15.16 0 0 0-.64-2.19zm4.5-2.48a22.85 22.85 0 0 0 4.21.28.46.46 0 0 1 .25.12 9.57 9.57 0 0 1 .83 2 14.36 14.36 0 0 1-2 .84c-.4.13-.83.26-1.3.39a7.35 7.35 0 0 0-1.97-3.53zm-.29 8.34a2.28 2.28 0 0 1-.48.4l-.75.1-1.28.16c-.41 0-.92-.11-.9-.43 0-.54.19-1.84.19-1.84s-.15-.23.33-.31a32.22 32.22 0 0 0 3.92-.47 5.39 5.39 0 0 1-1 2.47zm5.8-2.68a4 4 0 0 1-1.23 2.24l-2.39.41a3.79 3.79 0 0 0 .55-2.72 15 15 0 0 0 2.94-1l.23-.11a4.53 4.53 0 0 1-.07 1.26zm.23-5.66a9 9 0 0 0 2.42-1 1.15 1.15 0 0 1 .32.14l.2.15a1.24 1.24 0 0 1-.31 1 6.54 6.54 0 0 1-1.7 1.41 4.82 4.82 0 0 0-.38-.84zm2.06 5.79a4.4 4.4 0 0 1-1.16 1.68h-.1a4.66 4.66 0 0 0 .65-2.5 7.65 7.65 0 0 0-.06-1.21 4.83 4.83 0 0 0 1.7-1.2 11.29 11.29 0 0 1-1.01 3.31zm1.09-9.48c-.29 1.21-2.41 2.24-2.7 2.36-.06 0 0 0 .1.05a15.7 15.7 0 0 1-4 .52 13 13 0 0 1-5.69-1.15 24.17 24.17 0 0 0 8.51-1.21 16.3 16.3 0 0 0 3.85-1.88 8.94 8.94 0 0 1-.04 1.38zm-5.12-2.3a22.28 22.28 0 0 1-9.31-2.24c1 .34 6.55.17 9.25-.46a18.16 18.16 0 0 0 5.29-2.52v3.4c-.19.55-1.24 1.85-5.2 1.91zm6 12.93s-.11-.46.52-.17a4.89 4.89 0 0 0 2.47.4c.05 0 .19 0 .29.39a8.25 8.25 0 0 1 .19 2.47.62.62 0 0 1-.73.49 3.13 3.13 0 0 1-2-.76 3.41 3.41 0 0 1-.73-2.74zm7.53-16a58.65 58.65 0 0 0 7.41-.12c-5.52 2.53-12.66 1.26-14.19.85 0-.53 0-1-.06-1.42s0-1 0-1.6c.86.95 3.85 2.17 6.85 2.39zm-6.74-4.63a9.66 9.66 0 0 1 .19-1.24c.27-1.12.39-1.79 1.14-2a6.28 6.28 0 0 0 1.85 1.4 19.85 19.85 0 0 0 9.14 1.61 16.22 16.22 0 0 0 4.83-1.09 23.9 23.9 0 0 1-11.32 2.64c-4.23.09-5.45-.75-5.82-1.22zm11.83 14.6a3.75 3.75 0 0 1 1.62-.36 12.76 12.76 0 0 1 2.89.16c.8.27 1.71 2.6 1.67 2.72a49.1 49.1 0 0 1-5.88.16 1.22 1.22 0 0 1-.62-.89c-.14-.6-.24-1.33.32-1.69zm-.52-1.06a.8.8 0 0 1-.23-1 .72.72 0 0 1 .3-.22c.91 0 1.79-.07 2.62-.08a1.36 1.36 0 0 1 .49.18c.37.22.68.8.6.91s-1.22 0-1.84.07a7.92 7.92 0 0 1-1.93.24zm4.22-3.56a4.52 4.52 0 0 1-2.7 1.26c-1.09.17-4.37.34-5.58.52a30.78 30.78 0 0 1-5.12.46c-1.21-.12-1.78-2.07-1.9-2.82-.06-.38-.13-1.36-.19-2.44v.09c1.61 1.78 4.08 2.3 7.87 2.59a34.61 34.61 0 0 0 8.27-.66 3.53 3.53 0 0 1-.64 1.09zm-15.09 8.61c.06-.42.76-.78 1.25-1s1.28-.63 1.35-.65a7.92 7.92 0 0 0-.56 2 5.23 5.23 0 0 1-1.68.15.55.55 0 0 1-.35-.41zm2.26-2.89a10.43 10.43 0 0 0-2.64 1.56 2.66 2.66 0 0 1 .07-1.3 3.84 3.84 0 0 1 .63-.92 8.84 8.84 0 0 1 1.21-1.09 7.73 7.73 0 0 1 .8-.37 2.73 2.73 0 0 1 1.33 0s.07 0-.06.32a7 7 0 0 0-.32 1.18c-.02.35-.74.58-1.01.71zm2.33.69c1-.9 2-1.28 4.43-1.6a8.27 8.27 0 0 0 .6 2.62c.07.16-.1.23-.78.37s-4.38.86-5.26 1a3.28 3.28 0 0 1 1.02-2.3zm.39-2.41a5.57 5.57 0 0 1 4.35-1.25 3.69 3.69 0 0 0-.27 1 12.89 12.89 0 0 0-4 .86s-.59.07-.07-.52zm-3.14 14.47a2.49 2.49 0 0 1-.89-.18 3.87 3.87 0 0 1-2-2.63c0-.21-.08-.46 0-.5s1.06.45 2.17.55a9.79 9.79 0 0 1 1.47.11 10.73 10.73 0 0 1 .92 2.43c.05.21-.93.3-1.66.3zm1.59-5.85c0-.45-.26-1.64.06-2s2.6-.52 3.09-.63 3.2-.55 3.58-.55.13 0 .34.35a21.27 21.27 0 0 1 1.28 4.07s.06.46-.75.6-5.23.13-5.23.13-1.58.09-1.93-.26a3 3 0 0 1-.44-1.62zm8.92 4.31c0 .59 0 1.32-.42 1.57a2.9 2.9 0 0 1-1.3.15c-1.55-.14-3.28-.15-4.84-.14a1.33 1.33 0 0 1-.87-.73 5.29 5.29 0 0 1-.78-2c.06-.26.76 0 2.37.1s4.9 0 5.2 0a1 1 0 0 1 .65 1.14zm.76-3.65c-.2-.6-1.18-3.56-1-4s.92-.3 1.71-.26 3.88-.37 4.51-.29 1.08 1.11 1.32 1.54.68 1.38.84 1.79a1.6 1.6 0 0 1-.19 1.48c-.52.66-1 1-3.08.91a12.45 12.45 0 0 1-3.74-.68c.14-.08-.16.2-.32-.4zm6.75 4.5a2.86 2.86 0 0 1-1 .81 28 28 0 0 1-3.66.32 1.27 1.27 0 0 1-.87-.86c-.13-.69-.17-2 .09-2.11s2.59-.07 3.49-.16a16.12 16.12 0 0 0 2.73-.62c.38-.04-.01 1.83-.77 2.71zm5.64-5.29a5.77 5.77 0 0 1-.64 3.26 5.6 5.6 0 0 1-3.24 2.19 7.25 7.25 0 0 0 .64-3.18 6.71 6.71 0 0 0 2.59-1.37 2.19 2.19 0 0 0 .66-.81zm-.63-2.76v.13a4.27 4.27 0 0 1-1.54 2.86s-.86.66-1.28.49-.31-1.09-.48-1.45a25.66 25.66 0 0 0-1.31-2.54c-.24-.24.06-.33.33-.23s3.71.61 4.3.82zm-2.71-3.44c.56.41 1.47 1.14 1.39 1.41s-3.36-.2-3.71-.27a.89.89 0 0 1-.76-.5c-.22-.39-1.44-1.84-1.06-1.88a21.11 21.11 0 0 1 4.14 1.24zm-4-3.61c1 .34 1.29.65 1.39.95a.41.41 0 0 1-.3.4 4.27 4.27 0 0 1-2.57-.56 4.66 4.66 0 0 1-1-1.05 10.52 10.52 0 0 1 2.41.26zm-1.61-5.24c-.76.5-2.63 1.33-6.78 1.45-6 .17-8-1.67-8-1.67a16.76 16.76 0 0 0 7.19.06 37.9 37.9 0 0 0 8.57-3 32.28 32.28 0 0 1-1.05 3.16zm1.44-5.62v.27c-.68.63-2.38 1.46-7.77 1.46-7.64 0-9.08-1.61-9.08-1.61a26.46 26.46 0 0 0 9 .23 18 18 0 0 0 7.83-2.94 4.51 4.51 0 0 1-.05 2.58zm7-39.37s0 8.22-.57 10.63a8 8 0 0 1-1.44 3c.06.23.8.11 1.15 2.53s-.11 10.75-.8 13a7.46 7.46 0 0 1-3.91 4.71 10 10 0 0 0 2.3-4.94c.52-3.1.06-5.63-.17-5.63s-.23 3.22-1 5.69-4.08 5-5.92 5.92a1.81 1.81 0 0 0-.28.17 8.8 8.8 0 0 1-4.38 1c-2.82-.06-4-.06-4.94-4a14.36 14.36 0 0 1-.34-2.18v-.06a5.38 5.38 0 0 0-.12 3 10.81 10.81 0 0 0 1 2.82c.29.34-1.9-.17-2.87-1.32s-2.24-3.68-3.28-10.69c-.44-3-2.5-16-3.19-20.23-.43.15-1 1.27-1 1.34 0 .24 1.07 8.18 1 8.43.36 2 .66 3.89.83 5 .52 3.51 1.72 11.21 1.84 13s0 2.59-2.87 3.79-7.87 2-10.92.46a12.69 12.69 0 0 1-2-1.72c-.8-.92-3.62-7.87-3.79-7.76a19 19 0 0 0 1.81 6.08 1.33 1.33 0 0 1 .14.75c-.06.4-1.49.12-2.53-2.18a22.19 22.19 0 0 1-1-2.92l22.55-29.09s.22-.28.24-.28 4.56.16 7.18 0a20.61 20.61 0 0 0 3.27-.29c3-.57 11-2.49 12.34-2.57s1.53.84 1.69 2.26zm-1.53-6.46a24.06 24.06 0 0 1-3.92 1c.08 0-.45 0-.64-.06s3.22-4.56 4.1-9.16c0 0 2.8 3.72 3.22 6.32-.12-.02-.35.86-2.88 1.89zm15-11.87a3.25 3.25 0 0 1-.44 1.51 6.76 6.76 0 0 1-2.38 2c-.76.35-.09.34.21.31a4.7 4.7 0 0 0 2.34-1.34 4.57 4.57 0 0 0 1-1.72 8.15 8.15 0 0 1 .78 1.09 20.68 20.68 0 0 1 1.4 3.31 3.08 3.08 0 0 1-.41 1.18 6.76 6.76 0 0 1-2.38 2c-.76.35-.09.34.21.31a4.7 4.7 0 0 0 2.34-1.34 5.78 5.78 0 0 0 .65-.91c.19.64.35 1.24.46 1.71a24.42 24.42 0 0 1-.13 6.89 18.47 18.47 0 0 1-1.25 4.56h-.09a6.76 6.76 0 0 1-3.1-.45c-.76-.33-.32.15-.09.36a4.7 4.7 0 0 0 2.55.87h.39a12.83 12.83 0 0 1-2.12 3.37 3 3 0 0 1-1.06.14 6.76 6.76 0 0 1-2.92-1.13c-.67-.5-.34.08-.17.33a4.7 4.7 0 0 0 2.3 1.41 5.86 5.86 0 0 0 .93.13 21.82 21.82 0 0 1-5.16 3.26 3 3 0 0 1-1.09-.25 6.76 6.76 0 0 1-2.33-2.09c-.45-.7-.35 0-.28.25a4.7 4.7 0 0 0 1.65 2.13 5.83 5.83 0 0 0 .89.48 37.28 37.28 0 0 1-5.39 1.78c.32-2 .8-4.56.91-5.35l.05-.36a17 17 0 0 0 4-1.75 6 6 0 0 0 .28.62 4.93 4.93 0 0 0 2 1.93c.3.11 1 .3.29-.25a7 7 0 0 1-1.9-2.62v-.11l.36-.27a15.33 15.33 0 0 0 2.46-2.61 5.77 5.77 0 0 0 .88 1 4.93 4.93 0 0 0 2.55 1.15c.32 0 1 0 .19-.33a7 7 0 0 1-2.66-1.84 2.92 2.92 0 0 1-.43-.81 6.86 6.86 0 0 0 .93-2.22 14.54 14.54 0 0 0 .21-1.52 5.88 5.88 0 0 0 1 .76 4.93 4.93 0 0 0 2.72.64c.32-.06 1-.23.13-.36a7 7 0 0 1-3-1.3 3.14 3.14 0 0 1-.78-1.11 16.88 16.88 0 0 0-.17-2.93 5.88 5.88 0 0 0 1.2.3 4.93 4.93 0 0 0 2.75-.53c.26-.18.8-.62 0-.38a7 7 0 0 1-3.24 0 3 3 0 0 1-1-.56c-.1-.23-.22-.51-.38-.8a5.74 5.74 0 0 0 1.35-.38 4.93 4.93 0 0 0 2.1-1.85c.13-.29.38-.94-.22-.31a7 7 0 0 1-2.78 1.66 2.93 2.93 0 0 1-.95.06 10.52 10.52 0 0 0-2.46-2.23 4.4 4.4 0 0 0 .69-.5 4.86 4.86 0 0 0 1.31-2.4c.17-.64-.09-.78-.26-.19a5.54 5.54 0 0 1-2.12 2.34 1.1 1.1 0 0 1-.55.09c-.35-.23-.73-.45-1.15-.67l-.69-.44s-.39-.28.22-.66a.42.42 0 0 0 .11-.1 10.25 10.25 0 0 0 2.78-3.05 12.21 12.21 0 0 0 1-2.89c0-.24.38-.36.82 0a7.17 7.17 0 0 1-.06 2.18c-.22.9-.32 1.3-.07 1.2a2.58 2.58 0 0 0 .81-1.45 4.21 4.21 0 0 0 .1-1.42 20.2 20.2 0 0 1 3.25 2.46zm2.94-10.59c-.31.19-.91.2-1.67-1.1s-1.79-1.1-1.79-.85 0 .38.5 1a5.54 5.54 0 0 1 1.16 3 4.6 4.6 0 0 1-1 3.62c-.77.82-1.35 1.37-1.46 1.46a21.72 21.72 0 0 0-4-2.65c-.21-.17-.32-.47-.2-.64a1.13 1.13 0 0 1 1.29.15c.8.54.58-.43.54-.68a17 17 0 0 0-1.23-4 18.48 18.48 0 0 0-4.88-6c-2.6-2-6.53-2.25-7.49-2.27s-2.83.83-3.46.91-1.34-.25-1.67-.06-.41.47 0 .94.77.77.72 1.35a7 7 0 0 1-1.09 1.81c-.34-.08-1.07-.4-1.39-1.72-.42-1.75 1.15-3.76 1.82-4.34a7.69 7.69 0 0 1 5.35-2.45 10.32 10.32 0 0 1 4.69.6c.27 0 .64-.06-.19-.79a5 5 0 0 0-3.27-1.32 10.88 10.88 0 0 0-2.89.13s-.64.14 0-.47 2.11-2.72 7-2.86 9.25 1.56 11.42 5.38 3.43 7 3.65 9-.26 2.66-.57 2.85zm-26.89-58.39l.35.2c.84.48 4.79 1.94 6 2.68s3.22 2.34 4.48 3c.64.32 1.27.65 1.94 1a43.91 43.91 0 0 1 5.88 4.63 46.49 46.49 0 0 1 6 7.2 18.26 18.26 0 0 1 3.68 5.51c.94 2.58.71 3.9 1.1 5a17.89 17.89 0 0 1 1 5.32c0 1.75-1.7 9.94-1.7 9.94s-.88 4.53-1 5-.47-.06-.72-.6-2.83-5.1-4.59-6.57a12.58 12.58 0 0 0-8.81-2.71c-3.85.28-4.44.88-4.44.88s-1.42.64-.85-.76c0-.07 1.73-3.07 3.52-4.18a11.77 11.77 0 0 1 5.82-1.7s1.34-.24-.06-.63a8.49 8.49 0 0 0-3.21.09c-.25 0-.38-.25.09-.5s2.82-1.37 3.55-1.2.53-.57-.25-.76a6.45 6.45 0 0 0-5.28 2.3 11.81 11.81 0 0 0 0-2.2c-.09-.83-.2-2.33-.2-2.33.06-.56.15-1.24.29-2s.42-2.14.47-2.74.35-1.31 0-1.31c-.61 0-.61 1.65-1.05 1.81-.22.08-.66-.68-.71-1.7 0-.73-.35-2.27-.49-3.22s-.27-2.06-.68-1.6 0 3 .13 4.66.69 6 .72 7.09a17 17 0 0 1-.06 1.9 12.22 12.22 0 0 1-.61 1.48l-.12.22c-1.19 2.5-3.38 6.45-3.65 6.77-.47.53-2.11 1.13-2.89 2.27s-.46 1.51-1.23 2.42-3.21 3.49-3.84 5.54-.72 4-.22 5a1.81 1.81 0 0 0 1.29 1 2.55 2.55 0 0 1-.94 1.51c-.82.69-2.77 2-2.77 2a6.13 6.13 0 0 0-1.86 1.29 17 17 0 0 0-2.8 3.74 3.3 3.3 0 0 0-.16 2.3 1 1 0 0 0 1.1.41v.06l.22-.07c-.35.45-.63.84-.87 1.09-.61.63-3.25 3.45-3.91 4.17h-1.31s-8.93 0-11.8-.23-7.74-.84-9.89-1-8.16.11-9.66-.57-1.38-3.26-1.53-4.48a3.33 3.33 0 0 0-.11-.5c0-1.29-.09-4.11 0-5 .06-1.21.4-3.1.43-3.71s0-3.22 0-3.22a.73.73 0 0 0 .75-.14c.34-.32.29-1.49.23-1.64a12.26 12.26 0 0 1 4.05.46 47.58 47.58 0 0 0 9 .69 14.2 14.2 0 0 0 7.28-1.69 6.35 6.35 0 0 0 2.24-2.9 5.42 5.42 0 0 0 .57-3.22c0-.92-.34-1.64-.37-2.39a9.1 9.1 0 0 0 0-2.64 3.39 3.39 0 0 0-1-1.44 2.19 2.19 0 0 0-.57-2 4.06 4.06 0 0 0-2.3-1.21c-.44-.19-.7-.08-.63-1.1a.31.31 0 0 0 0-.15c-.09-.52.06-3-.17-4.94a3.69 3.69 0 0 0-1.61-2.82c-.32-.23-2.64-1.47-3 1.38a14.85 14.85 0 0 1-1.93 5.95c-.8 1.52-3.25 2.85-4.51 3.48a3.53 3.53 0 0 1-3 .37c-.78-.32-.86-.89-.92-1.52a6.08 6.08 0 0 0-.63-2.67 4.87 4.87 0 0 0-2-1.67c.49-2.73.29-10.46.34-11.27s.11-3.45-.17-3.36-.57 2.41-.57 3.82-.09 2.27-.86 2.47-1.32-2.3-1.55-2.1-.11.34.17 1.78a13.35 13.35 0 0 1-.24 4.55 1.59 1.59 0 0 1-1.38 1 16.74 16.74 0 0 1-3.22-.46 18.23 18.23 0 0 0-7.51 1.23 10.16 10.16 0 0 0-3.49 2.91c-.27.57-3.18 3.72-3.56 5.06s-1.42.8-1.49.08a19.92 19.92 0 0 1 .11-4.14c.23-1.8 1.38-4.18 1.72-5.52a41 41 0 0 1 2-6.32A19.25 19.25 0 0 1 64 97.09c1.07-1 6.51-4.79 7.74-5.79a40.25 40.25 0 0 0 3.37-3.64c.42-.42 3-2.8 3-2.8a19.43 19.43 0 0 1 6.58-3.29s1.09-.09 1.52-.14 4.54-1.64 5.12-1.72a1.41 1.41 0 0 1 1.39.4 7.22 7.22 0 0 0 1.75 1.11 2.52 2.52 0 0 0 .8.19 4.23 4.23 0 0 1 2 2.77 68.51 68.51 0 0 1 .48 8.23A67 67 0 0 0 99 102.1c.49 1.65 1 1.7 1 1.7a16 16 0 0 0 3.64 1.58c2.69.86 2.63.63 3.85.62a7 7 0 0 0 2.93-.81 3.43 3.43 0 0 0 1.15-.64 2.06 2.06 0 0 0 .49-1.35L112 91s.17-6.35 1.09-7.87a7.05 7.05 0 0 1 1.74-2.13l.66-.31a5.32 5.32 0 0 0 1.06-.63 9.92 9.92 0 0 1 2.41-.85 9.16 9.16 0 0 1 5.39 1.12zm-5.78-3a25.85 25.85 0 0 0-.38-3h.07l2.27-1.3a25.77 25.77 0 0 0 5.09-2.85 71.42 71.42 0 0 0 7.59-6.38c.21-.24.5-.61.83-1-.21.71-.55 1.82-.89 2.65a21.08 21.08 0 0 1-2.62 5.35c-1.62 2.38-7.53 5.47-11.96 6.58zm20.15-7.59c-.57 2-3.16 3.51-4.94 4.4a2.81 2.81 0 0 0-.5.31 19.54 19.54 0 0 1-7.14 1.88 20.2 20.2 0 0 0 3.76-2.47c1.75-1.49 3.31-4.71 4.4-8.25a35.92 35.92 0 0 1 1.93-5.35l.87-1.59.37-.51a10.29 10.29 0 0 1 2.13-3 10 10 0 0 0 1.34-1.64 12.72 12.72 0 0 0-.3 1.61 11.46 11.46 0 0 1-.86 3.65 9.06 9.06 0 0 0-1.21 3.39c-.17 1.4.72 5.66.15 7.61zm2.64-.26l-1.18 1.32a15.16 15.16 0 0 0-.14-4.14 7.92 7.92 0 0 1 .57-7.39l.06-.09a39.18 39.18 0 0 0 1.6 5.06 5.69 5.69 0 0 1-.91 5.28zm2.23-6.06a7.5 7.5 0 0 0-.88-2.33 9.39 9.39 0 0 1-.86-4.34 13.25 13.25 0 0 1 1.52-4.86 9.06 9.06 0 0 0 1.93-5v-.06c0 .83.11 7.4-.43 8.85 0 0 1.12-1.18 1.41-4.57a26.69 26.69 0 0 0-.14-6.78c-.2-1-1.12-3-1.21-5s.57-2.39.6-5.2a14.2 14.2 0 0 0-.34-2.94c.49.65 3.84 5.27 5 9.35 1.21 4.37.72 7 1 8.85a7.64 7.64 0 0 1-1.32 6.32c-1.85 2.91-5.2 5-6.18 7.69zm4.66-29.66a27.31 27.31 0 0 1 4.43 5.57 18.39 18.39 0 0 1 1.21 8.31 10.5 10.5 0 0 1-1.64 4.3 35 35 0 0 0-.2-4 32.74 32.74 0 0 0-1.24-7.87 30.69 30.69 0 0 0-2.55-6.27zm9.08 15.78a22 22 0 0 1-2.76 7 60.34 60.34 0 0 1-4.14 5.78 37.24 37.24 0 0 1-6 5.32 8.71 8.71 0 0 1 .8-2.93 1.8 1.8 0 0 0 .16-.58 14.7 14.7 0 0 1 1.74-3.33c1-1.32 4.25-4.83 4.8-5.6a1.16 1.16 0 0 0 .14-.38 12.65 12.65 0 0 0 1.93-3.14 17.11 17.11 0 0 0 1-7.76 16.56 16.56 0 0 0-3.91-9.14A41.57 41.57 0 0 0 147 31a16.48 16.48 0 0 1-2.9-3.5c-.17-.5-2.24-5-2.56-5.82a14.92 14.92 0 0 0-2.7-5c-1.81-2.1-4.77-5.81-6.55-7s-5.25-3-5.25-3l-2.68-1.38s.19-.15 1.19.11 2.26.57 2.26.57 3.31.48 7.9 4a134.79 134.79 0 0 1 10.86 9.92c-.09.09 2.5 2.5 4.2 4.89s3.65 7.21 4.34 8.16a10.6 10.6 0 0 1 2.3 5.17 58.62 58.62 0 0 1-.07 11.46z" fill="#692f23"/></g></svg>