<svg xmlns="http://www.w3.org/2000/svg" width="300" height="250" viewBox="0 0 300 250"><title>фасад_1</title><g data-name="Слой 2"><g data-name="Слой 24"><path fill="none" opacity=".48" d="M0 0h300v250H0z"/><path fill="#fcf3e6" d="M15.02 0l.09 176.91h28.24V0H15.02z"/><path d="M50.75 178.49l.31 68A17.28 17.28 0 0 0 55.2 241c1.15-2.91 45.55-103.53 45.55-103.53s.08-11-.15-11 0-.69-2.19 1.72-47.89 49.11-47.89 49.11z" fill="#c7c0b1"/><path d="M15.11 176.91c.08.31 34.87.43 34.87.43a10.92 10.92 0 0 1 .84 4v63s-.77 3.22-1.46 3.6S16 249 16 249z" fill="#c7c0b1"/><path d="M101.26 111.86h.54L99.57 0h-56.3c0 69.46 0 176.18.16 176.1 0 0 3 .82 3.19.86s5.21-.15 5.21-.15 44.59-46.66 46.59-48.58a6.62 6.62 0 0 1 2.85-1.72z" fill="#fcf3e6"/><path d="M75.54 33.84l-2.3 1.6-.45 2.11 3.33 3.26 5.7 2.82 2.58-2.27a3 3 0 0 0-.4-1.7c-.45-.5-8.46-5.82-8.46-5.82z" fill="#c7c0b1"/><path d="M74.06 39.73v.95a1.33 1.33 0 0 1-.46.77c-.4.34-4 3.18-4 3.18s-.75.36-.72-.63 0-17 0-17 0-1.28.75-.59S74 29.67 74 29.67s.26.4.27.68-.1 3.47-.1 3.47l.74-.45v-3.46a1.39 1.39 0 0 0-.6-1.09c-.65-.56-5.06-3.52-5.06-3.52s-1.17-.63-1.28.59.13 19 .13 19-.06 1.16 1.1.64 5.29-4.21 5.29-4.21.4-.19.24-1.26-.73-.64-.67-.33z" fill="#692f23"/><path d="M209.85 203.83s-.57 10 1 12.27 5.95 3 8.5 2.55a12 12 0 0 0 4.53-2s1.89-5.85 2.17-6.23a28.5 28.5 0 0 0 1-3.68s-9-.47-12.37-1.42-4.83-1.49-4.83-1.49z" fill="#d2a274"/><path d="M180 106.08c-1.12-.91-5.75-2.66-5.75-2.66-1-.61-2.66-3.38-3.47-3.08s-1.67 1-1.56 1.61.42 3.87-.17 4.52-1.52.93-1.73 1.77.89 1.94.89 1.94a1.81 1.81 0 0 0-1.18 1.1 2.61 2.61 0 0 0 1.23 2.7c.87.32-.51.74-.34 1.52a3.43 3.43 0 0 0 1.56 2.11c.74.38 0 1.08.42 1.52s1.63 1.94 3.21 1.94a21.47 21.47 0 0 1 3.85.55c.19 0 3.47.7 3.59.63s3.89-4.14 4-4.18 2.58-3.68 2.58-3.68-6.03-7.39-7.13-8.31z" fill="#f9e5cc"/><path d="M240.9 204.3s.28 8.31.76 10.48 1.6 2.64 1.6 2.64 6.42-1 9.16-.66 4.34.47 4.34.47 1.51-4.91 1.79-6.14-.19-7.93-.19-7.93a31.58 31.58 0 0 1-7 1.32c-3.47.2-10.46-.18-10.46-.18z" fill="#d2a274"/><path fill="#efb000" d="M169.47 106.64l4.3 1.24 2.44-.24-91.74-66.22-1.77 1.8 86.77 63.42zM210.41 215.63a16.1 16.1 0 0 1-6.61-.94c-4.25-1.32-9.63.47-10.86 1.51s-3.21 4.44-2.36 7.27 4.63 5 8.12 6 10.1-.47 11.42-.94 8-.66 10.19-1 3.4 0 4.34-2 1.79-3.21 1.23-4.81a32.13 32.13 0 0 0-2-4.06 4.92 4.92 0 0 1-3.78 1.79c-2.45 0-7.93-1-8.59-1.7zM242.88 217.33s-2.45 2.83-2.55 4.06a6.25 6.25 0 0 1-1.13 2.74c-.28.47-1.7 4.91.28 7.08s7.74 2.74 9.63 2.74 10.48-1.6 11.89-1.7a3.9 3.9 0 0 0 2.83-1.89c.28-.57.66-5.29.19-6.42s-3.68-2.74-4-3-2.55-3.68-2.55-3.68-12.47-1.63-14.59.07z"/><path d="M216.55 56.67s-2 3-1.79 4.34l.47 3L213 65a29.3 29.3 0 0 1-4.44 1.13c-.94 0-4 .09-4 .09l-.19 4.63s-.38 12.08 5.38 18.41S222 99.71 229.2 99.52s15-1.6 18.41-4.15 7.55-6.89 8.4-9.16l1-2.08a6.36 6.36 0 0 0 2.77-2.13c.85-1.42 1.7-4 .85-5.66s-2.45-2-4.06-1.51a5.41 5.41 0 0 0-2.17 1s-4.53-3.21-5.57-4.63a65.66 65.66 0 0 1-3.4-6.51 3.34 3.34 0 0 1-2.64.76c-1.7-.19-3.21.28-4.72-.19s-4.53-1.79-6.51-1.7a63.43 63.43 0 0 0-7.46.76c-.94.28-3.3.85-3.3.85l-1-1.7s-2.31-6.05-3.25-6.8z" fill="#f9e5cc"/><path d="M227.72 75.61s-.35-2.14 1.07-2.93 4.22-.41 6 .38 3 1.45 2.86 1.92a3.58 3.58 0 0 1-2.33 1.7 23.56 23.56 0 0 1-4.81.19 11.52 11.52 0 0 0-2.14-.79c-.65-.08-.65-.47-.65-.47z" fill="#fff"/><path d="M229.48 73a3.18 3.18 0 0 0-.31 2.23 2.06 2.06 0 0 0 2 1.42 3.31 3.31 0 0 0 2.3-1.32 2.12 2.12 0 0 0-.16-2.2c-.49-.54-3.11-1.01-3.83-.13z" fill="#abd2f0"/><path d="M208.9 74.89c0-.14.09-2.17 1.29-2.39a6.31 6.31 0 0 1 3.59 0 4.31 4.31 0 0 1 2.49 1.86c.57.79.25 1.29.25 1.29s-.16.31-1.23.57-2.08.69-3.12.28-3.11-.5-3.27-1.61z" fill="#fff"/><path d="M210.26 73.38a2.05 2.05 0 0 0 .88 2.08 2.67 2.67 0 0 0 2.67.19 2.25 2.25 0 0 0 .63-1.67c.06-.69.16-1.42-1-1.57s-3.09-.36-3.18.97z" fill="#abd2f0"/><path d="M216.64 47.79a5 5 0 0 1-2 2.27 25.26 25.26 0 0 0-5.64 4.53c-1 1.38-2.74 4.69-2.61 7.49a11.25 11.25 0 0 0 .72 4h-2.58s-.22-6.36.06-8.4S207.27 49 209 46.95s4.37-5 5.47-5.41a34.53 34.53 0 0 1 4.85-1.86 38 38 0 0 1 5.95-1 42.8 42.8 0 0 0 4.31-.69c.28-.06 2.45-.47 3.52.44s1.29.53 1.29.53a3.3 3.3 0 0 1 2.61-1.2c1.38.19 4.78.53 6.61 3.81a60.62 60.62 0 0 1 2.93 6s-3.46-5.44-6.45-6.7-4.31.22-4.31.22.53 3.78.53 3.87a17.48 17.48 0 0 1-.13 4.12 6 6 0 0 0-4.85-5.47 8.48 8.48 0 0 0-7.49 2.36l.72-2.42a12.56 12.56 0 0 0-3.84 6.54c-.69 3.87-.6 13.28 0 14.38l.16.38a.43.43 0 0 1-.57.13c-.41-.16-.69-2.3-1.57-3.59s-2.52-7.17-2.39-8.34.29-5.26.29-5.26z" fill="#e9b87f"/><path d="M204.62 52.45a35.69 35.69 0 0 0-2.83 5.63 14.69 14.69 0 0 0-.5 7.3c.53 1.76.41.5.41.5a13.89 13.89 0 0 1 1.07-4.72c.91-1.67 1.51-1.82 1.51-1.82s1.32-6.1 1.42-6.2-.13-1.57-1.08-.69zM199.84 65.82s-3.08 3.9-3.62 6.77a16.64 16.64 0 0 0 .35 7.8c.66 2 1.82 4.85 2.61 5.35s1.07-.13 1.07-.13a16.9 16.9 0 0 1-2.36-6.89c-.47-4.09 1.45-10.73 3.3-12.27 0 0 .31-.85-.16-.85a1.75 1.75 0 0 0-1.19.22z" fill="#e9b87f"/><path d="M208.84 174.44c-.13.13-1.07 8.31-1.13 10.26s-.5 8.75-.13 11.26.82 4.91 2.14 6.54 8.31 4.28 10.76 4.34 4.85.76 6.36-1 2.45-2.33 3.08-4.28 1.2-6.48 1.7-7.74 1.38-5 2.33-5 2.2 3.27 2.2 4.28 1 5.92 3.4 8.31 4.78 4 10 3.59a25.58 25.58 0 0 0 9.82-2.77c.69-.44 2.52-3.59 2.89-5.41s-.38-8.5-.88-10.38 1-5 1-5.16 1.07-5.16.38-6.36-3-1.57-4.47-1.45-10.51 1.89-13.53 2.08-6.73.76-9.69.63-11.14-1.7-11.14-1.7-14.4-.73-15.09-.04z" fill="#fd8204"/><path d="M215.32 174.38s-2.2 11.33-1.76 19.76 2 9.82 2 9.82l3.59-29.45 4.66.57s-1.64 9.88-1.82 11.45-.76 11.52-1.64 14.22a20.93 20.93 0 0 1-2.77 5.22s-4.78-.44-5.73-2.08a8.64 8.64 0 0 0-1.26-1.89s-2-16.8.94-27.69c-.05.01 3.04-.06 3.79.07zM228.28 177a40.23 40.23 0 0 0-3.08 11.64 82.16 82.16 0 0 1-1.2 10.57c-.38 1.51-2.08 5.54-2 6.1s1.2 1.13 2.45 1.07 2-1.38 2.39-3.46 1.57-12.08 1.89-14.41 1.32-8.5 2-9.31zM230.3 177.09s4 6.86 4.53 9.44 1.07 7.8 1.7 9.5 2.08 5.6 3.46 6.42 3.08 2.33 3.27 2.33.69-.82.63-1.07-.82-2.64-.82-2.64-2.58-4-3-6.61a66.81 66.81 0 0 0-3.4-11.58c-1-2.14-3.9-6.86-4-7.11s-2.37-.13-2.37 1.32zM237.22 176.27a43.69 43.69 0 0 1 2.45 5.54c1.32 3.52 4.72 13.22 5.16 14.6s2.2 7.36 4.09 8.24 5.29 0 6.1-.57a10 10 0 0 0 2.45-3.78 76.63 76.63 0 0 0-2-10.82c-.63-2-1.07-2.39-1.13-4.72s-.94-9.19-1.64-10.19l-4.53.63s1.26 8.37 1.7 9.5a82.75 82.75 0 0 1 2.77 9.19c.38 2.2 1.07 6.8-.38 9.88l-.19.69a21.55 21.55 0 0 1-2.08-3.9c-1.07-2.52-3-9.69-3.52-11.33s-1.89-7.24-2.71-9.44-1.2-3.4-1.89-3.78-4.65.26-4.65.26z" fill="#e16702"/><path d="M255.16 174.32a8.17 8.17 0 0 1 1.76 4.78c.13 3-.06 4.78.06 6.61s2 5.85 2 7.8a23 23 0 0 1-.88 6.48c-.69 2-1.07 2.58-.82 2.58a7.69 7.69 0 0 0 2.14-.94c.38-.31 1.07-.19 2-3.15a20.27 20.27 0 0 0 .57-8.94 14.82 14.82 0 0 0-1.76-4.15s1-4.47 0-7.93-1.38-3.84-1.38-3.84z" fill="#e16702"/><path d="M224.29 99.81c.09.38.19 2.93-1 3.3s-4.15.66-5.66 1.42-4.72 1.89-7.17 5.19-4.81 7.55-6.14 8.59a14.91 14.91 0 0 0-3.06 4.08c-.66 1.13-1.58-2.22-2.3-3a8.56 8.56 0 0 1-2.62-1.29c-1-.82-.93-2.36-3.49-3.66-.59-.3-2.45.57-3 1.2-.08.09-.68-2.12-2.24-1s-3 3.52-4.75 5.62c-2.67 3.12-5.63 6.81-6 9.78.65 1.85 2.61 2.64 5.24 4.83.73 3.1 4.68 5 5.47 5.06 1.14.14 6.54 7.82 9.84 8.67s8.87 0 9.53-.94.66.57.66.57.57 13.22.47 14.63-1.23 9-.85 10.29 6.32.94 6.7.94 12.18.38 15 1.51 12.74.38 15.2.19 12.84-2 15.76-2a49.19 49.19 0 0 0 6.14-.47s1.51-1.42 1.6-2.17a9.34 9.34 0 0 0-.47-2.55s3.12 2.45 6.32.94 4.91-5.95 4.91-5.95l2.08-2.08s1.42-4.25 1.89-5.85 1-4.34 1.13-4.63 1.32-8.5-.57-13.5-9.63-14.53-9.63-14.53-6.89-10.95-10.57-12.93a56.71 56.71 0 0 0-8-3.4l-6.35-4.67-.85-1.89-.57-4.44s-5.85 3.49-11 3.78-11.52-.09-11.52-.09z" fill="#f7f5f2"/><ellipse cx="248.65" cy="137.54" rx="4.41" ry="4.08" transform="rotate(-53.09 248.632 137.54)" fill="#fd8204"/><ellipse cx="242.66" cy="155.7" rx="4.41" ry="4.08" transform="rotate(-53.09 242.65 155.7)" fill="#fd8204"/><ellipse cx="263.88" cy="136.65" rx="4.41" ry="4.08" transform="rotate(-53.09 263.863 136.643)" fill="#fd8204"/><ellipse cx="262.52" cy="120.81" rx="4.73" ry="4.25" transform="rotate(-53.09 262.506 120.808)" fill="#fd8204"/><ellipse cx="279.62" cy="142.92" rx="5.42" ry="4.31" transform="rotate(-53.09 279.6 142.917)" fill="#fd8204"/><ellipse cx="271.24" cy="154.6" rx="4.74" ry="3.72" transform="rotate(-53.09 271.229 154.593)" fill="#fd8204"/><ellipse cx="212.82" cy="126.76" rx="3.72" ry="4.74" transform="rotate(-51.99 212.801 126.765)" fill="#fd8204"/><ellipse cx="213.75" cy="110.04" rx="3.98" ry="3.13" transform="rotate(-37.27 213.745 110.043)" fill="#fd8204"/><ellipse cx="224.71" cy="156.53" rx="3.72" ry="4.74" transform="rotate(-51.99 224.69 156.524)" fill="#fd8204"/><ellipse cx="187.37" cy="135.37" rx="3.46" ry="4.4" transform="rotate(-51.99 187.351 135.36)" fill="#fd8204"/><ellipse cx="210.52" cy="154.19" rx="3.75" ry="2.95" transform="rotate(-57.11 210.51 154.192)" fill="#fd8204"/><path d="M256.25 156.91a2.75 2.75 0 0 1-3 2.11c-2.7-.08-3.72-.06-4.86-1s-2.79-3.34-3.42-3.59-1.61.72-1.44 1.1 4 3.61 4.27 3.8 1.27.76 1.27.76-2.94.59-3.93 1.77-.51 3.49-.42 4 1.08 2 1.18 2.62a3.6 3.6 0 0 0 1 1.65c.44.49.87 1.46 1.52 1.69a8.12 8.12 0 0 0 4.08 0 33.77 33.77 0 0 0 6.19-3.72c.57-.51 3.61-3.4 4.23-4.06s1.48-.57 1.44-1.61-4.67-8.31-8.11-5.52z" fill="#f9e5cc"/><path d="M203.35 142.16c-2.06-1.61-2.71-4.23-1.44-5.85s6-2.63 6 0c0 2.13.53 6.67 0 6.85a5 5 0 0 1-4.56-1zM253.11 109.09a4.09 4.09 0 1 1-5.77-5.77 4.73 4.73 0 0 1 1-.74c1.51 1.45 5.41 3.15 6.09 4.16a4.62 4.62 0 0 1-1.32 2.35z" fill="#fd8204"/><path d="M207.39 215.28zM247.2 188s3.74-.41 4.65-.53a21 21 0 0 0 2.45-.6 9.22 9.22 0 0 1-3.65 1.82c-1.94.39-3.98-.33-3.45-.69z" fill="#692f23"/><path data-name="Правая бровь" d="M229.41 68.07c0 .28 0 .79 1.82.93a21.82 21.82 0 0 1 3.57.27 10.88 10.88 0 0 1 3 1.65c.68.62.57.2.57.2a7.24 7.24 0 0 0-1.93-2 11 11 0 0 0-5.81-1.72s-1.1-.02-1.22.67z" fill="#692f23"/><path data-name="левая бровь" d="M209.92 69.94s2.16-.79 2.77-.92a7.45 7.45 0 0 1 2.1-.11c.58.07 1-.09 1-.45a.92.92 0 0 0-.9-.83 14.16 14.16 0 0 0-2.18.44 9.29 9.29 0 0 0-2.16.84 2.5 2.5 0 0 0-.8.8.21.21 0 0 0 .17.23z" fill="#692f23"/><path data-name="Правый глаз" d="M236.89 73.8c-1.87-.9-2.24-1.53-5.28-1.82s-3.76 1.17-3.95 2a10.78 10.78 0 0 0-.08 1.08 5.28 5.28 0 0 0 0 1.24c.11.18.54.07.8.11s2.39.65 3 .77h.19a10.5 10.5 0 0 0 4.23-.18 5 5 0 0 0 2.39-1.25c.44-.41.38-.67.38-.67s.2-.39-1.68-1.28zm-5.08 2.51a2.16 2.16 0 0 1-1.86-.58 1.93 1.93 0 0 1-.46-1.31c0-.33.13-1 .58-1a1.7 1.7 0 0 1 .68.22.88.88 0 0 0-.37.79 1 1 0 0 0 1.12.92c.61 0 1.08-.33 1.11-.88s-.07-.55-.07-.55-.06-.24.23-.31a.6.6 0 0 1 .67.31 1.63 1.63 0 0 1-.11 1.36 1.77 1.77 0 0 1-1.52 1.03zm-3.47-.83a2.58 2.58 0 0 1 .75-1.73 2.3 2.3 0 0 0-.13.84 2.23 2.23 0 0 0 1.04 1.85l-.25-.1c-.44-.19-1.17-.34-1.4-.86zm9-.15a1 1 0 0 1-.31.26 7.16 7.16 0 0 1-2.69 1.06 15.17 15.17 0 0 1-1.79.19 2.59 2.59 0 0 0 1.49-1 2.32 2.32 0 0 0 .29-1.85 2.41 2.41 0 0 0-.37-.82 15 15 0 0 1 3.22 1.51.91.91 0 0 1 .17.2.35.35 0 0 1-.03.46z" fill="#692f23"/><path d="M219.79 82.39a3.11 3.11 0 0 0 2.06.68 5.38 5.38 0 0 0 2.06-.27s.49-.29.79-.09.12.59-.33.9a3.44 3.44 0 0 1-2.68.48 2.66 2.66 0 0 1-2-1.2c-.36-.49-.23-.7.1-.5zM217.44 75.19c-.2-.32-.54-1-.84-1.38a6.74 6.74 0 0 0-1.34-1.1l-.57-.33a6.31 6.31 0 0 0-2.32-.59 3.77 3.77 0 0 0-2.38.61 3.69 3.69 0 0 0-1 1.47 2.28 2.28 0 0 0-.24 1.2c0 .28.47.51.47.51a8.88 8.88 0 0 0 2.35 1.14 8.28 8.28 0 0 0 2.78.18 6 6 0 0 0 1.92-.59 3.61 3.61 0 0 1 1.1-.11c.28 0 .48-.19.48-.34s-.21-.35-.41-.67zM211 76c-.31-.14-1.11-.61-1.11-.61a.94.94 0 0 1-.33-1.06.38.38 0 0 1 .08-.13.51.51 0 0 1 .43-.09c.2.08.07.14.21.59a3 3 0 0 0 .86 1.35zm2.51-.42a1.84 1.84 0 0 1-2.06-.29c-.52-.54-.56-.75-.57-1.14 0-.6.2-.78.2-.78s.07-.11.12-.13a.35.35 0 0 1 .2 0c.16.07.13 1.09.13 1.09a1 1 0 0 0 .91.67 1.15 1.15 0 0 0 1.21-.95 1.17 1.17 0 0 0-.34-.89h.19a2.64 2.64 0 0 1 .48 0 1 1 0 0 1 .37.59 1.64 1.64 0 0 1-.85 1.81zm3.09 0c-.31.28-.72.19-1 .19s-1.43.15-1.43.15L214 76l.1-.06a1.89 1.89 0 0 0 1-1.34 2.28 2.28 0 0 0-.23-1.4l.11.09a8.89 8.89 0 0 1 1.46 1.41c.29.3.46.62.15.9z" fill="#692f23"/><g data-name="Блик на глазах" fill="#fff"><circle cx="230.34" cy="73.9" r=".54"/><circle data-name="Блик" cx="211.63" cy="73.71" r=".58"/></g><path d="M214.46 88a1.06 1.06 0 0 1 .87-.5 8.41 8.41 0 0 1 2.29.92 27.92 27.92 0 0 0 7.05 1.49c1.93 0 6-.35 7.76-1.27a11.26 11.26 0 0 1 3.73-1.27 3.15 3.15 0 0 1 1.79.68.59.59 0 0 1 .09.68.9.9 0 0 1-.9 0 4.3 4.3 0 0 0-1.41-.47c-.8 0-2.07.83-2.64 1.11a17.69 17.69 0 0 1-7.5 1.84 20.31 20.31 0 0 1-7.83-1.84 6.23 6.23 0 0 0-1.56-.75 6.78 6.78 0 0 0-1.51.19c-.11.03-.51-.19-.23-.81zM221.81 92.6a8.44 8.44 0 0 0 3.19.55 14 14 0 0 0 3.41-.28c.27-.08.55-.19.61-.08s-.55 1.15-2.56 1.35a8.85 8.85 0 0 1-4.48-.5 2.64 2.64 0 0 1-1.1-1s0-.25.27-.2a5 5 0 0 1 .66.16z" fill="#692f23"/><ellipse cx="241.22" cy="121.75" rx="4.41" ry="4.08" transform="rotate(-45 241.227 121.74)" fill="#fd8204"/><ellipse cx="223.98" cy="138.67" rx="4.41" ry="4.08" transform="rotate(-53.09 223.965 138.674)" fill="#fd8204"/><path d="M199.73 131.58z" fill="#692f23"/><path d="M260.67 172l11.5 7.92s1.28.48 1.62-.48 0-1.32-.57-1.84-13.15-10.14-13.15-10.14a3 3 0 0 0-1.45.51c-.87.52-1.48 1-1.18 1.46s3.23 2.57 3.23 2.57zM248.31 160.16l-69.97-51.15-.38 1.71 1.32.98.77 2.16 65.85 46.68 2.41-.38z" fill="#efb000"/><circle cx="245.45" cy="172.75" r=".76" fill="#692f23"/><circle cx="238.4" cy="168.15" r=".76" fill="#692f23"/><circle cx="230.41" cy="172.44" r=".76" fill="#692f23"/><circle cx="223.19" cy="166.57" r=".76" fill="#692f23"/><circle cx="215.07" cy="171.19" r=".76" fill="#692f23"/><circle cx="209.83" cy="165.22" r=".76" fill="#692f23"/><circle cx="227.43" cy="102.46" r=".64" fill="#692f23"/><circle cx="231.31" cy="101.41" r=".64" fill="#692f23"/><circle cx="235.27" cy="103.38" r=".64" fill="#692f23"/><circle cx="229.95" cy="106.09" r=".64" fill="#692f23"/><circle cx="233.45" cy="109.1" r=".64" fill="#692f23"/><circle cx="228.21" cy="111.78" r=".64" fill="#692f23"/><circle cx="223.55" cy="115.04" r=".64" fill="#692f23"/><circle cx="231.11" cy="116.82" r=".64" fill="#692f23"/><circle cx="226.59" cy="119.46" r=".64" fill="#692f23"/><circle cx="222.34" cy="122.14" r=".64" fill="#692f23"/><circle cx="225.46" cy="124.98" r=".64" fill="#692f23"/><circle cx="229.93" cy="123.74" r=".64" fill="#692f23"/><circle cx="226.1" cy="107.74" r=".64" fill="#692f23"/><circle cx="239.12" cy="100.59" r=".64" fill="#692f23"/><circle cx="243.05" cy="101.97" r=".64" fill="#692f23"/><circle cx="245.73" cy="98.59" r=".64" fill="#692f23"/><path d="M207 95.67a.5.5 0 0 1 .5.5" fill="#c7c0b1"/><path d="M211.8 43.52s-3.34 4.18-4.31 5.79-4 3.65-4.81 4.34a19.72 19.72 0 0 0-4.68 7.93c-1.48 4.47-1.07 6.83-1.07 6.83s-1.51 4.85-1.29 7.55 2 7.87 3.4 9.57 1.89 1.67 2.64 3.24a23.12 23.12 0 0 0 7.55 8.12 66.82 66.82 0 0 0 12.24 5.54 3.25 3.25 0 0 0 2.45-.31 9.81 9.81 0 0 0 .66-2.42c-.06-.57-1.42-.44-2.23-1s-6.54-2-10.13-6.54-6-8.37-6.8-10.67-1.27-9.34-1.42-10.69a24.58 24.58 0 0 1 0-3.21 1.65 1.65 0 0 1 1.48-1.32 43.8 43.8 0 0 0 6.1-.82c1.2-.38 3-.66 3.24-1s-.19-2.8.22-4.34 1.76-2.61 2-3.24.88 1.38 1.45 2.55 1.92 4.59 1.76 5.25 1.1.25 2.39 0 7.9-1.73 9.69-1.23 5.51 1.73 6.89 2.14a8.34 8.34 0 0 0 5.1-.47c1-.63 1.89 2 2 2.08s3.2 5.81 5.68 7.26 3.34.66 3.78.63 2.2-.82 3.52-.13a3.28 3.28 0 0 1 1.51 4.34 45.36 45.36 0 0 1-2.93 4.47 11.94 11.94 0 0 0-1.42 1c-.13.06-2 5.95-5.66 8.21s-3.65 3.15-3.65 3.15.38 5.51.41 5.63a4.53 4.53 0 0 0 3.34-.41c1.54-.82 7.17-2.58 8.31-3.21a70.14 70.14 0 0 0 7.8-5.44c1.51-1.42 5.41-5.22 6.14-6.7a19.45 19.45 0 0 0 2.11-8.56c-.09-3.65-1.26-12.59-2-14.6a31.38 31.38 0 0 0-5.85-8.68 87.63 87.63 0 0 0-10-7.8c-.5-.16-6.61-4.37-8.37-5s-7-2.3-8.06-2.71-3.46-1.1-4.56-.82a4.64 4.64 0 0 0-2 1.2 7.7 7.7 0 0 0-3.49-1.13c-1.48.09-6.29 1.07-6.29 1.07a10.77 10.77 0 0 0-4.06.19c-2.11.5-6.27 1.85-8.78 4.37z" fill="#e09c51"/><path d="M72.52 36.1s-1.15-1.85-.05-2.35c.36-.16.93.24 1.32.64.21.22.68-.46.68-.46l-.18-.19A6.35 6.35 0 0 0 72.9 33a1.34 1.34 0 0 0-1.71 1.26 4.77 4.77 0 0 0 .59 2.57c.45 1.05.74-.73.74-.73z" fill="#692f23"/><path d="M282.19 133.8a52.44 52.44 0 0 0-3.73-5.09c-.17-.22-.63-.84-1.24-1.69a8.42 8.42 0 0 0-.83-1.17c.08.12-1.43-2-2.32-3.26l-.63-.9c-1.22-1.75-2.34-3.4-3-4.39-1.7-2.74-4.29-5.64-6.37-6.84a9.43 9.43 0 0 0-3.61-1.32 4.45 4.45 0 0 0-.86-.58c-1.3-.63-3.91-1.51-5-2.1s-2.37-1.57-3.26-2.09v-2.27c1.82-.51 7.08-2.1 10.39-4.38a62 62 0 0 0 6.82-5.4c.25-.29.53-.48 1.08-1s1.24-1.28 1.81-1.94l1-1.25a18.7 18.7 0 0 0 1.73-2.7c2.52-4.87 1.23-10.41 1.19-11 0-.26-.08-.92-.15-1.66a6.13 6.13 0 0 1-.11-1.15c0-.58-.09-1.11-.09-1.44s0-.82-.11-1.55c0 0-.07-.63-.15-1.22a23.49 23.49 0 0 0-1.65-6.25c-1.6-3.36-4.62-6.95-10.63-11.66-4.47-3.51-6.82-5.14-9.93-6.67L249 41.18c-.75-.32-3.54-1.37-3.54-1.37-4-1.43-7.41-2.27-8.75-2.15a3.72 3.72 0 0 0-2.59.92 5.21 5.21 0 0 0-3.07-1 41.6 41.6 0 0 0-4.56.63c-.45.1-1.34.18-2.36.28 0 0-2.91.28-3.61.45a19.14 19.14 0 0 0-8.13 3.86 27 27 0 0 0-2.56 2.57 25.28 25.28 0 0 0-1.71 2.52 25.73 25.73 0 0 1-3.19 3.41c-.13.17-1.92 1.71-3.14 2.94a21.28 21.28 0 0 0-2.61 3.71l-.29.46a15.77 15.77 0 0 0-1.11 3 32.79 32.79 0 0 0-1.41 6.54 8.32 8.32 0 0 1-.25 1.43 16.32 16.32 0 0 0-.68 4.53 23 23 0 0 0 .77 6.85c.72 2.34 2.33 5.38 3.29 6.13.36.44.6.55.68.68a40.25 40.25 0 0 0 3 4.61 37.49 37.49 0 0 0 5.39 5.16 69.66 69.66 0 0 0 7.15 4.28 20.06 20.06 0 0 0 4 1c.71.19 1.24.28 1.18.52a.66.66 0 0 1-.35.36 18.61 18.61 0 0 0-2.58.61 3.74 3.74 0 0 0-.61.17 15.47 15.47 0 0 0-5.42 3.29 44.16 44.16 0 0 0-4.5 6.16c-.44.94-2.95 3-4.4 4.79-.3.38-1.17 1.14-1.67 1.85a3 3 0 0 0-.51 1.67s-.85-.61-.85-.76a1.53 1.53 0 0 0-.34-1.31c-.53-.8-2.13-1.31-2.92-1.94s-1.82-2.64-3.3-3.3-2.41-.93-3-.46a1.82 1.82 0 0 0-.74.9 2.63 2.63 0 0 0-2.39-1.45 2.38 2.38 0 0 1-1.73-1c-.53-.55-4.63-6-5.39-6.85a11.42 11.42 0 0 0-4.23-2.16 5.59 5.59 0 0 1-2.43-1.23c-.43-.37-1.61-1.7-2-1.94a2.49 2.49 0 0 0-1.9-.17c-.74.2-.9 1.18-.93 1.36l-8.79-6.33-5.21-3.75-29.48-21.19-1.6-1.15-22.42-16.15V0h-1.64l.11 52.06-14.95-10.77.13-.18a.93.93 0 0 0 0-1.23c-.44-.55-6.49-4.64-8.47-6v-4.02a2.11 2.11 0 0 0-.73-1.55c-.78-.73-7.59-5.56-7.59-5.56H64.6s-1 .07-1 1.4v24.23a1 1 0 0 0 1.07 1c1.12.05 2.23 0 2.23 0s.33 0 1.16-.78 7.85-6.6 7.85-6.6a1.65 1.65 0 0 0 .41-.58l4 2.73s1.34.78 2 0l17.36 12.49v.06l.23 68.81s-42.3 44.82-44.67 47.28-3.95 3-5.06 3.08a14.42 14.42 0 0 1-4.71-.47c-.74-.37-.94-1.76-.93-2.45L44.26.01h-1.78c.16 67.71.39 171.84.35 172.73-.06 1.32.28 2.85-.64 3.26s-22.82.17-24.28.17c-1.27 0-2.83-.1-2.8.75a.57.57 0 0 0 .55.63s28.53.25 31.4.25 2.76 2 2.76 2 .06 61.66 0 64.13-1.27 3.6-2.65 3.89-25.81 0-29.6.11c-.74 0-1.61.17-1.57 1.09a1 1 0 0 0 .82 1h30.6a9.08 9.08 0 0 0 5.52-3.79l48.33-107.38v-16.44c-.08-9.89-.05-60.47-.05-64.67l18.24 13.12L147 90.68l7.72 5.55 4.13 3 .85.61 7.16 5.15 1.87 1.46a2.21 2.21 0 0 0-1.49.81 2.09 2.09 0 0 0-.06 2.42 2 2 0 0 0 .49.39 1.77 1.77 0 0 0-.68.45 2.79 2.79 0 0 0-.25 2.37 3.74 3.74 0 0 0 1.06 1.31s-.52.26-.4 1.72a1.81 1.81 0 0 0 .69 1.3c.48.47 1.17.74 1.27 1a3.67 3.67 0 0 0 .34 1.44 4.91 4.91 0 0 0 2.39 1.49h.08a29.31 29.31 0 0 0 4.63 1.25c.92.1 3.17.25 3.23.7s-.63.94-1.25 1.52a9 9 0 0 0-1 1.26L177 127a5 5 0 0 0-1 2.85 3.48 3.48 0 0 0 1.58 2.47c.64.46 2 1.27 2 1.27a8 8 0 0 1 2.3 2.66l1.16 1.63a12.19 12.19 0 0 0 1.7 1.65c.72.54 2 .56 2.28 1.1s3.21 3.87 3.21 3.87c3.35 3.2 8.3 5.47 8.84 5.26a14.81 14.81 0 0 0 4.12 0 5.33 5.33 0 0 0 2.5-1 1.12 1.12 0 0 1 1.41.12c.38.47.19 1.58.19 1.58s.09 10 .16 10.37a19.65 19.65 0 0 1 0 4.12c-.22 1.63-.09 3.77-.47 5.75s-.6 2.55.16 3.24a4.87 4.87 0 0 0 1 .75c-.06.85-.85 12-.85 12.84s-.35 8.11-.06 9.75A20.26 20.26 0 0 0 209 202a30 30 0 0 1 .16 3.36v.12l-.09 4.13a7.74 7.74 0 0 0 .19 2.15c.28 1.35.5 2.7.6 2.92-.06.78-1.09.84-1.83.77h-.27l-.43-.07h.17a18.73 18.73 0 0 1-3.21-.8c-2.26-.75-7.7-1-10.5.5a8.33 8.33 0 0 0-3.74 5.47c-.09.63-.38 5.25 2 6.95s4.84 2.2 8.21 2.61a24.61 24.61 0 0 0 7.48-.28 43.38 43.38 0 0 1 8.14-1.1 71.54 71.54 0 0 0 7.86-.75c.66-.16 2-.57 2.64-3.84a9.4 9.4 0 0 0-1.41-6.48c-.38-.79-.53-1.1-.13-1.92a20 20 0 0 0 .82-2c.25-.38 1.51-4.59 1.6-4.68s.07-1.31.18-1.77c.18-.09.26-.19.26-.3a6.94 6.94 0 0 0 1.07-.92 23.39 23.39 0 0 0 2.14-5c.22-1.1.94-5.28 1.76-8.11s1.19-2.77 1.45-2.77.91 1.29 1.63 3.87 1.47 6.41 4 9.23a43.38 43.38 0 0 0 .57 6.39 48.53 48.53 0 0 0 1.48 6.38c.5 1.19.19 1.45.19 1.45l-1.1 1.67c-.82 1-1.29 4-1.29 4-1.51 1.26-1.63 4-1.54 6.1s1.51 3.08 2.45 4 3.14 1 5.06 1.07a55.64 55.64 0 0 0 7.61-.69 46.93 46.93 0 0 1 5-.38 18.51 18.51 0 0 0 4.81-.85c.69-.35 1.85-1.85 2.23-4.5a7.58 7.58 0 0 0-1.32-5.69c-.72-.75-1.6-.94-2.64-1.92s-3-2.9-3.08-3a.53.53 0 0 0 0-.16c-.22-.57 0-.88.44-2.26s.72-10.82.75-11.77a3.79 3.79 0 0 0 1.13-.93 11.41 11.41 0 0 0 2.33-7.8 47.93 47.93 0 0 0-.94-8.46 4.6 4.6 0 0 1 .69-1.85c.53-.69.6-6.48.69-6.95a18.84 18.84 0 0 1 .46-2.16c1.46 1 7.77 5.54 8.33 5.71a2 2 0 0 0 2.39-.79c.58-.82-.17-2-.43-2.26s-5.9-4.4-6.28-4.68a2.87 2.87 0 0 0 .31-1.36c0-.79 0-1.35-.07-1.65a5.7 5.7 0 0 0 3.91.78.16.16 0 0 0 .18 0c2.59-.47 3.49-1.23 4.34-2.26s1.23-3.07 3.11-5a13.91 13.91 0 0 0 2.83-4.48 5.91 5.91 0 0 0 .19-1.79 8.17 8.17 0 0 1 .94-3.25 31.53 31.53 0 0 0 1.56-9.24 38.14 38.14 0 0 0-1.54-7.38l-.34-1.14a22.38 22.38 0 0 0-.97-2.39zM66.32 47.5s0 .55-.78.63-.75-.55-.73-1-.08-22.8-.08-22.8a1.08 1.08 0 0 1 .79-.5h.45a.77.77 0 0 1 .41.58c.1.59-.06 23.09-.06 23.09zm182.29 53.74s-.41-3.9-.31-4.62 1.38-1.73 1.38-1.73c.65-.5 1.28-1 1.85-1.42a18.8 18.8 0 0 0 3.93-4.4c.27-.41.64-1 1-1.64v.64c.06 4.21-.64 6.42-2.14 8.9a10.79 10.79 0 0 1-5.71 4.26zm1.57 1.16v1.14a1.22 1.22 0 0 1-.41-.76c0-.19.23-.31.41-.39zm-7.08-3.84c.89-.31 1.75-.65 2.53-1l.48-.24c.74 0 .65.54.65.54L247 101zm3.14 3.58a5.33 5.33 0 0 1-1 .8 17.58 17.58 0 0 1-4.34 1.56c0-.28.74-4.38 1.16-5zm-1.74-5.47c-5.72 2.61-13.86 2.69-13.86 2.69a33 33 0 0 1-6-.44 25 25 0 0 1-8.65-4.26 34.65 34.65 0 0 1-7.11-7.88 26.21 26.21 0 0 1-3-6.84 37 37 0 0 1-1-8.19c0-.74.14-4.32.14-4.32a.57.57 0 0 1 .57-.5l3.33-.14a10.26 10.26 0 0 0 2.81-.68 29.05 29.05 0 0 1 3.16-.88c1.24-.27 1.23-.44 1.23-.44a5.35 5.35 0 0 1-.49-3.13 4.67 4.67 0 0 1 1.19-2.56 6.46 6.46 0 0 0 .53-1.07s.39 1.27.71 2.33 1.32 2.86 1.57 3.49a7.43 7.43 0 0 1 .24 2c1.13.28 2.85-.28 4.13-.71a27.63 27.63 0 0 1 5.41-.63 33.41 33.41 0 0 1 3.46.06 22.63 22.63 0 0 1 2.88.53 25.84 25.84 0 0 0 4.7 1.29 5.65 5.65 0 0 0 4.28-.91 26.06 26.06 0 0 0 1.66 3.52 31.94 31.94 0 0 0 4.54 5 26.34 26.34 0 0 0 2.1 1.65l.23.17a11.55 11.55 0 0 0 1.78 1c.25-1 1.51-1.24 1.82-1.35s4.07-.74 4 2.22a8.46 8.46 0 0 1-3 5.67 1.36 1.36 0 0 1-1.3.41c-.24 1.9-1.89 4.23-2.33 5a25.4 25.4 0 0 1-9.74 7.89zM230.79 126c-.55-.39-2-1.44-3.56-2.69 1.82-.5 3.52-.91 4-1a10.24 10.24 0 0 0-.14 1.48c-.02 1.54 0 2.04-.3 2.21zm-3.43-25.16l3.39 3.61a15 15 0 0 1-5.14-1.66v-.06zm-2.39.74a5.87 5.87 0 0 1 0-1.26.36.36 0 0 1 .31-.25l.86.18zm-.88 9.52c.38-.24 2.65-1.12 5.08-2 1.7 2.05 3.48 4.2 3.55 4.24s-3 1.15-5.21 2.07c-1.76-2.2-3.42-4.27-3.42-4.27zm6.44 10.23a37.88 37.88 0 0 0-4.11 1.31 23.89 23.89 0 0 1-3.84-3.76s2-1.08 4.39-2.26zm-3.68-16.59h.08c.46.11 1 .23 1.68.33 2 .31 5.08.63 6.27.73-1 .33-3.23 1.2-5.33 2.07zm1.93-4.19h4.26l-1.5 2.87s-1.9-1.99-2.77-2.82zm-2.62 4.87l2.34 2.84c-2.21.92-4.08 1.73-4.08 1.73l-.56.2a27.25 27.25 0 0 1 2.29-4.72zm.23 10.44l-.62.29c-1.4.68-3.12 1.49-3.85 2 .41-2.16 1-4.66 1.41-6.3zm-1.12 7.19l-3.46 1.24a3.4 3.4 0 0 1-.5-2 17 17 0 0 1 .33-2.67c.51.55 2.04 2.02 3.62 3.47zm.68.62c1.24 1.13 2.43 2.17 3.07 2.63-1.64.06-4.41-.12-5.87-.93a6.26 6.26 0 0 1-.75-.49 27.59 27.59 0 0 1 3.54-1.17zm2.13-7.57a41.26 41.26 0 0 1 5.1-2.09c-.51 2-1.2 4.5-1.65 6.6-.16-.26-1.77-2.33-3.46-4.47zm2.21-7.44c2.48-.92 4.84-1.77 5.26-1.92a2.76 2.76 0 0 1 .75-.17l-.12.17a20.92 20.92 0 0 0-2.62 5.66zm5.78-3.63a34.58 34.58 0 0 1-3.8-.33 4.15 4.15 0 0 0 .78-1.52 8.73 8.73 0 0 1 1.38-2.48 25.84 25.84 0 0 1 3.08 2.11c.3.27 1.57 1.59 1.92 2a17.24 17.24 0 0 1-3.36.26zm.08-4.85c.89-.14 1.76-.31 2.61-.48.63-.12 1.3-.28 2-.46l-.8 3.72s-2.74-2.12-3.82-2.74zM260 72.53c.24.41 2.59 3.27 2.94 5.06a18.41 18.41 0 0 1-.06 7.77c-.72 4.09-5.28 7.67-5.28 7.67s-.16-3.71-.06-5.75a7.33 7.33 0 0 1 .74-2.86 9.48 9.48 0 0 1 1-1 12.06 12.06 0 0 0 2.22-3.82 5.12 5.12 0 0 0-.11-3.19 3.9 3.9 0 0 0-2.5-1.81c-1.54-.31-3.47.5-4.43.49a1.92 1.92 0 0 1-1.57-.74c-1-1-3.84-2.81-4-3.79 0 0-.22-.68.57-.69s4.75.31 4.75.31a14.31 14.31 0 0 1 3.76.47 8.3 8.3 0 0 1 2.03 1.88zm-1.16-17.89s3.29 4.53 3.69 5.06a39.32 39.32 0 0 1 3.14 5.77 63.27 63.27 0 0 1 2.09 6.29 37 37 0 0 1 .68 4.73s-1-1.13-1.57-1.73-2.61-1.57-3.82-3.22a16.7 16.7 0 0 1-2.28-3.73 13.22 13.22 0 0 1-.82-3.66c-.08-.79-.19-2.14-.24-4a26.42 26.42 0 0 0-.58-4.2 11.21 11.21 0 0 0-.29-1.31zM270 85c-.06 1.74-.55 2.61-1.43 4.59a10.2 10.2 0 0 1-1 1.7 6 6 0 0 1-1 1.18L265 94a28.74 28.74 0 0 1-10.47 5.41s-.8.19-1.1.22c.55-.55 4.18-4.51 6-6.47s4.15-5.31 4.68-6.95a15.82 15.82 0 0 0 .28-8.49 16.29 16.29 0 0 0-2.59-5.09 21.92 21.92 0 0 1-1.57-3.13 9.56 9.56 0 0 1-.36-1.84 11 11 0 0 0 2.28 4.21 17.19 17.19 0 0 1 3.71 4.62 17.4 17.4 0 0 1 .86 6.15 29.9 29.9 0 0 1-.22 3.11c-.06.3.88-.44.9-3.32a29.67 29.67 0 0 0-.28-5.31 10.56 10.56 0 0 1 2.09 3.32A11.26 11.26 0 0 1 270 85zm4.84-8.7v.29a15.15 15.15 0 0 1-3.38 11.55c-1.06 1.26-.68 0-.68 0a14.36 14.36 0 0 0 0-6.41 39.27 39.27 0 0 1-1.48-6.18 48.11 48.11 0 0 0-1-6.87 19.54 19.54 0 0 0-1-2.83s-.68-1.3.68-.82 3.36 3.3 4.37 4.75a14.9 14.9 0 0 1 2.17 5.08c.1.58.21 1.07.28 1.44zm-12-25.4c1.19 1 6.29 5.16 8.74 9.71a22.69 22.69 0 0 1 2.65 9.47 17.41 17.41 0 0 0-2.34-3.08c-1.74-2-4.45-3.36-5-3.84a26.76 26.76 0 0 1-3.58-4.16c-1.18-1.74-2.7-4.21-3.07-4.75s-1-1.51-1.29-2c0 0-2-4.75-2.92-5.85-.03-.03 5.53 3.49 6.73 4.5zm-11.57-7.67c3.87 2.11 4.94 5.34 6.13 9.59 0 0 .83 3.51 1 5s.22 2.92.25 3.49.15 3.53.18 4.36a1.42 1.42 0 0 0 0 .3v.7a1.86 1.86 0 0 1-.38 1.48c-.55.5-3.07.53-3.07.53h-5.91a3.21 3.21 0 0 1-2.39-1.6 3.32 3.32 0 0 1-.58-2.72 16.76 16.76 0 0 1 1-2.48 11.61 11.61 0 0 0 .86-3.73.4.4 0 0 0 0-.16 25.87 25.87 0 0 0 .3-6.05c-.31-2.83-2.86-9.53-4.72-10.88a16.49 16.49 0 0 1 7.25 2.17zm-23.85-3.93a10.61 10.61 0 0 0-2.89 4.18 13.28 13.28 0 0 0-.72 3.46 20.27 20.27 0 0 1 3.49-6.13 4.86 4.86 0 0 1 3.65-2.17c.94-.13 1.38 0 3.14 1.54s2.42 5.22 2.42 5.22a8.1 8.1 0 0 0-1.3-5.71c0-.19 0-.58 1-.83a5.79 5.79 0 0 1 4.81.91c1.35 1.13 4.15 3.62 5.78 9.56s.69 9 .69 9a24.65 24.65 0 0 1-1.12 4.21 5.16 5.16 0 0 1-3.9 2.86 7 7 0 0 1-3.58-.49 3.48 3.48 0 0 0 .86-.35 7.86 7.86 0 0 0 4.06-4.28 9.44 9.44 0 0 0 .38-5.56 13.36 13.36 0 0 1-1.79 6 6.39 6.39 0 0 1-3.52 3.14 4 4 0 0 1-1.74.46 24.81 24.81 0 0 0-3-.8 8.76 8.76 0 0 0 2.22-2.19 6.78 6.78 0 0 0 .53-2.89c0 .41-.3.77-.93 2s-2.7 2-4.31 2.5a60.57 60.57 0 0 1-6.05.79c-1.13.19-4.75 1.05-4.75 1.05a7 7 0 0 0-.61-1.81c-.25-.57-.61-1.48-.8-2s-1.87-5.47-1.87-5.47c-.69-3.85-.5-6.43.79-9.32a11.49 11.49 0 0 1 5.5-5.66c2.33-1.35 3.56-1.22 3.56-1.22zM207.9 50.13c.55-1 1.32-2 1.74-2.7s1.95-2.55 1.95-2.55a13.62 13.62 0 0 1 6.84-4.29 13.13 13.13 0 0 0-4.28 3.77 4.42 4.42 0 0 0-.79 2.8 27.75 27.75 0 0 1 2.26-3.36 16.09 16.09 0 0 1 5.6-3.65 5.27 5.27 0 0 1 2.45-.41 11 11 0 0 0-5.19 4 11.72 11.72 0 0 0-2.26 6.35c0 1.73.2 5.78.2 5.78a3.17 3.17 0 0 1-.69 1.81 6.91 6.91 0 0 0-1.23 2.67 12.06 12.06 0 0 0 0 3.49c.2.83-.44.64-.71.58a6.29 6.29 0 0 1-2.79-2.25c-1-1.49-.5-3.69-.36-4.24s.49-1 .39-1-.5.13-.82.69a7.6 7.6 0 0 0-.46 3.85c.27 1.27 1 1.51 1.08 2.47s-.39 1.13-1.12 1.65a7.22 7.22 0 0 1-3.9.49c-1.15-.16-1-.75-1-.75v-2.69a21.13 21.13 0 0 1 .29-3.64c.35-1.92.64-3.08.88-4.1a31.27 31.27 0 0 1 1.92-4.77zm-2.9 3.42c.06 0 .25-.14.31 0s0 .27-.3 1a42.8 42.8 0 0 0-1 5.09c-.06.63-.08 3.13-.08 3.13.09 1.32.25 2.47.25 3.13a1.1 1.1 0 0 1-.5.94 1.44 1.44 0 0 1-1.57-.74s-.36 0-.57-1.78a11.72 11.72 0 0 1 .55-4.48 34.34 34.34 0 0 1 1.59-4.15 7 7 0 0 1 1.32-2.14zm-7.14 12.06c.16-.72.61-2.92.75-3.33a21 21 0 0 1 1.41-3.68 2.61 2.61 0 0 0 .12-.25c.32-.56 1.75-2.69 2-3s.86-1.05 1.05-1a.27.27 0 0 1 .18.2c-.1.19-1.34 2.51-1.61 3.11a15.15 15.15 0 0 0-.91 3 21.49 21.49 0 0 1-.39 3.07 4.08 4.08 0 0 1-.83 1.48c-.5.63-1.15 1.56-1.52 2.14a4.16 4.16 0 0 0-.5 1 27.57 27.57 0 0 1 .27-2.74zm2.44 19.62s0 .39-.27.42-.86-.82-.86-.82a17.11 17.11 0 0 1-2-5.17c-1-4.18-.58-5.34-.42-6.1a26.13 26.13 0 0 1 1.37-3.69c.3-.57 2.25-3.21 2.25-3.21a.5.5 0 0 1 .63-.17 3.6 3.6 0 0 0 .79 1c.38.25.6.36.61.69s-.6 1.14-1 1.71a7.6 7.6 0 0 0-1.3 3.79c.05.49.1.23.27-.19a10.75 10.75 0 0 1 2.2-3.29 10.36 10.36 0 0 1 1.11-1.48c0 .38-.22 3.07-.33 3.9a12.16 12.16 0 0 1-1.18 3.77 15.59 15.59 0 0 0-1.65 4.73c-.05 1-.2 4.11-.2 4.11zm2.7 5.12a13.6 13.6 0 0 1-1.9-5.06s.12-3.09.25-3.88a14.65 14.65 0 0 1 1.73-4.23c.19-.35.42-1.35 1-.58s.41 4.94.42 5.69a18.45 18.45 0 0 0 .75 4.67c.52 1.35 1.48 3.9 2.06 5a50.48 50.48 0 0 0 2.44 4.48c-.45-.08-4.95-2.85-6.75-6.09zm14.62 10.44a17.51 17.51 0 0 1-6.89-5 32.87 32.87 0 0 1-3.54-6.68c-1.19-3.35-.86-3.65-.74-3.69s.25 0 .57.55a28 28 0 0 0 5.11 7.15c2.72 2.47 5.3 4.73 10.2 6.18l.89.25c.75.42.64.84.68 1.6a.86.86 0 0 1-.69 1s-1.29.28-5.58-1.36zm-17.69 21.84c.39.13.5 1.31.53 1.88l-1.12-.79c.05-.38.19-1.23.6-1.09zm-4.06-3.39c.24-.27.49 0 1 .22s1.51.78 1.68 1.27a8.73 8.73 0 0 1-.11 2.33l-3-2.09a6.13 6.13 0 0 1 .44-1.73zm-5-4.06a2 2 0 0 1 2.12 0 3.77 3.77 0 0 1 1.62 2.82 9.84 9.84 0 0 1 .13 2.45l-3.21-2.26a2.84 2.84 0 0 0 .29-1.58c-.19-.67-1-.48-1.27-.48s-.25-.52.29-.95zm-1.65 1l.45.72-2.37-1.71c.86-1.19 1.89.94 1.89.94zm18.09 14.62l41 29.52c-.2 0-2.12.32-2.41.38l-38.28-27.4-23.22-16.82s-4.46-3.16-4.5-3.27a.84.84 0 0 1 0-.7c.16-.22-.15-.88-.85-1.29s-.48-.54-.36-.68.37-.14.65.06zm57.83 32.48a12 12 0 0 0-2-4.31 8.6 8.6 0 0 0-4.18-2.75c-.83-.27-2.29.13-1.42-.55s3.63-3 3.63-3a4.83 4.83 0 0 1 2 .56c4.86 2.78 4.06 4.53 5.23 7.36.17.41.35.89.52 1.39a.63.63 0 0 1-.57.49l-.66.26c-.64.2-2.38.77-2.58.51zm1.06 5.56a9.8 9.8 0 0 1 .27 3.05.81.81 0 0 1-.09.23l-2.49-1.72-1.7-2.76-.06-.09c-.53-.7-.61-1.06-.53-1.31a3.18 3.18 0 0 1 1.31-1 .52.52 0 0 1 .68.19c.11.09 2.55 3.33 2.58 3.36zm-6-11.18c2.17 1.51 3.58 3.87 3.55 4.52s0 .65-.53 1.12-2.47 2.06-3.3 3a33.38 33.38 0 0 1-2.45 2.41 39.93 39.93 0 0 1-4 1.94 6.16 6.16 0 0 1-4.08.8c-.69-.27-.82-.58-.63-.7a7.63 7.63 0 0 0 1.63-.53c.75-.42 1.13-1 1-1.2s-.56.27-1.46.7a4.36 4.36 0 0 1-2.37.59 2.13 2.13 0 0 1-1.37-1.54c-.06-.49.53-.46.53-.46a6.51 6.51 0 0 0 3.23-1.54c.22-.48-.06-.54-.46-.25a4.37 4.37 0 0 1-2.47.8c-1.33.06-1.73-.25-2-1s-.08-1.11.11-1.18a17.3 17.3 0 0 0 2.24-.19 1.82 1.82 0 0 0 1.63-1.18c.22-.37.1-.4-.55.13a3.82 3.82 0 0 1-2.3.68c-.68 0-2-.74-1-2a4.19 4.19 0 0 1 2.51-1.44c.42-.14 1.9-.44 2.16-.57s0-.23 0-.23L243.9 156v-.07c-.17-.36-.18-.76.38-.93s.8.41 1.31 1a23.54 23.54 0 0 0 3.21 2.81 7.52 7.52 0 0 0 4.1.65c2-.14 3.79-2 4-2.28s1.1-1.07 3.26.44zm-1.69 14.16a.71.71 0 0 0 .91 0l1.84 1.28-8.75 1s1.27-2.58 1.39-2.64 2.84-1.54 2.89-1.53 1.54 1.1 1.54 1.1a.67.67 0 0 0 .14.74zm-6.07.39a7.41 7.41 0 0 1-.68 1.32l-.84-1.07a2.7 2.7 0 0 0 1.5-.55s.1-.07-.01.25zm-43.55-33.29a34 34 0 0 1-.11-3.45L245 161.55a11.92 11.92 0 0 0-1 1.94.7.7 0 0 1-.3.44l-11.9-.35h-1.76s-12.64-.44-14.18-.57-6 0-6.89-1.82-.5-10.25-.5-10.25.33-4.34.5-5.85a39 39 0 0 0-.12-6.22zm7.28 26.21l5.21 9.07c-1.6-.14-3.53-.3-4.11-.4-1-.16-8.11-.35-8.83-.25a4.53 4.53 0 0 1 1.29-2.26zm1-1.06l13 .56s-7.17 6.79-7.8 9.09c-.43-.39-4.37-8.17-5.19-9.72zm14 1.11l1.11 2.37s2.36 4.62 3.58 6.35a12.39 12.39 0 0 0 1.89 2c-.19 0-1-.06-1-.06l-6.92-.85s-5.6-.47-6.22-.6l-.48-.06c.41-.51 5.65-7.17 8.02-9.19zm4.13 5.32c-.22-.31-1.3-2-2.19-3.61-.68-1.21-1.25-2.27-1.25-2.27.16 0 11.34.25 11.7.36s.2.41-.11.87-2.92 5.29-2.92 5.29c-.59 1-1.26 2.11-1.6 2.73-.69 1.26-.91.91-.91.91a40.71 40.71 0 0 1-2.73-4.32zm3.51 5.25c.22-.14 1.78-2.62 2.87-4.38.25-.33 2.47-4.89 2.67-4.8a12.81 12.81 0 0 1 1 1.75c.17.24 0 1.21.55 1.82a5.13 5.13 0 0 0 1.1.86c.25.18.05.49.57.76a3.93 3.93 0 0 0 1.63.57h.16l1.44 1.85s-3.3.35-4.34.53-6.73 1.07-6.73 1.07-1.27.15-.93-.07zm-49.71-54c-.18.25-3.38 4.87-4.39 5.3a4.44 4.44 0 0 1-2.94.19 3.65 3.65 0 0 1-1.58-1.82 1.14 1.14 0 0 1 .18-.85l2.59-3.4.15-.15 2.35-2.62s3.35 2.33 3.57 2.58a.56.56 0 0 1 .06.76zm-19.3-20.23c.14-.23.38-.39 1.08-.3s2.35 2 3.11 2.64 1.29.51 2.58 1.23a16 16 0 0 1 3.85 2.79c.76.92 2.22 2.91 2.73 3.38s1.66 1.8 2.36 2.59l-7.71-5.55-7.9-5.69a1.77 1.77 0 0 1-.1-1.09zM75 41.72c-.59.55-6.56 5.4-7 5.68s-.71 0-.74-.54-.06-22.26 0-22.32 0-.64.5-.77a3.08 3.08 0 0 1 .76.19 58.47 58.47 0 0 1 6.58 4.92 1.62 1.62 0 0 1 .45 1.26v3.27a1.3 1.3 0 0 0-1.25.33l-2.15 2.55a1.57 1.57 0 0 0-.15 1.93A21.48 21.48 0 0 0 74.27 40l1.22.83a1.33 1.33 0 0 1-.49.89zm7.2 1.08a1.29 1.29 0 0 1-.51.33c-.48.11-.5.07-1.2-.23-.91-.38-5.18-3.57-5.18-3.57s-.57-.42-1-.8l-1-.73s-.42-.31.07-1 .9-1.18.9-1.18a2.52 2.52 0 0 1 .49-.54 1.35 1.35 0 0 1 1.67.18c.87.65 6.92 4.92 6.92 4.92s.49.39 0 1.11a12.9 12.9 0 0 1-1.16 1.52zm-29 199.86c-1.07 2.34-1.76 2.22-1.76 2.22V181a6.69 6.69 0 0 1 2.06-4.75c.12-.15 43.24-45.09 46.41-48.39l.18 9.62S54.32 240.33 53.24 242.66zm114.7-138.1L83.22 43.27l.89-1.14 91.25 65.59-1-.2c-1-.17-2.13.08-2.88-.29a41.88 41.88 0 0 1-3.58-2.67zm.7 3c.88.07 2.67.47 4.25.71s3.24.25 3.64.35a1.66 1.66 0 0 1 .75.54s.71.37.27 1a3.13 3.13 0 0 1-2.51 1.1c-1.27.06-4.61-.19-5.66-.93a2 2 0 0 0-.87-.36 1.17 1.17 0 0 1-.65-.7c-.18-.61-.11-1.75.77-1.68zm-1.35 3.9s.25-.72.89-.61a11 11 0 0 0 3.7 1 27.77 27.77 0 0 0 5.28-.4c.56 0 1.88 0 2 1a1.54 1.54 0 0 1-1.2 1.9 11.14 11.14 0 0 1-4.12.72 11 11 0 0 1-5.38-1.35l-.22-.14a2.2 2.2 0 0 1-.96-2.09zm1.86 5.56s-1.55-1.57-.53-1.88a2.27 2.27 0 0 1 1.44.32 6.92 6.92 0 0 0 2.56.59 9.23 9.23 0 0 0 3.68-.32s1.41-.76 1.73-.65.79.18.08 1a4.53 4.53 0 0 1-2.07 1.52 9.2 9.2 0 0 1-3.38.63 5.66 5.66 0 0 1-3.52-1.18zm6.51 2.68a5.35 5.35 0 0 1-2.81.49 4.19 4.19 0 0 1-2-.61c-.73-.56-.4-.93.15-.91a13.72 13.72 0 0 0 5.18-.23 1.15 1.15 0 0 1-.53 1.29zm1.84 1.54c-.67-.11-1.43-.42-1.31-.72s.54-.42.91-1.06a1 1 0 0 0 0-1.12l-.23-.09c2.3-.73 2.52-2 2.54-2.53s-.18-1.26.11-1.48 4.1 2.69 4.67 3.23a.62.62 0 0 1 .15.72l-1.9 1.86c-.22.26-.68 1.11-1.44 1.31a12.84 12.84 0 0 1-3.51-.08zm1.52 9.59a1.58 1.58 0 0 1-1.73-1.08c-.21-.81.76-2.21 1.42-3 .09-.11.29-.26.51-.48s.32-.12.32-.12a8 8 0 0 1 1.31 1.8 2.16 2.16 0 0 1-.4 2.07 2.69 2.69 0 0 1-1.41.85zm7.73 7.94a4.55 4.55 0 0 1-3.38-2.2c-.68-.85-.13-1.39-.13-1.39a5.39 5.39 0 0 0 2-1.23c.23-.56-.12-.24-.3-.11a2.81 2.81 0 0 1-2.24.3 6.23 6.23 0 0 1-1.84-1.06c-.35-.27-1.25-.92-1.27-1.37s.3-.57.5-.71a.58.58 0 0 0 .16-.1c.44-.38 3-1.8 4.39-2.79a32.45 32.45 0 0 0 4.82-5.37c.63-1 .85-.89.85-.89s3.93 2.87 4.27 3.25 2.47 1.2 2.28 1.69-1.52 3.34-2 4.18a58.27 58.27 0 0 1-3.89 5.66c-1.36 1.67-2.26 2.37-4.23 2.18zm20.72 7.06c-.09.17-.92 2.59-6.67 2.48a18.67 18.67 0 0 1-2-.14c-6.68-3.21-9.59-7.22-9.88-7.64s-.45-.92-.15-1a6.1 6.1 0 0 0 1.77-1 26.75 26.75 0 0 0 4.16-4.31 31.5 31.5 0 0 0 3.17-6.32c.29-.54.51-.25.51-.25l1.52 1.18a5.63 5.63 0 0 1-.65 3.91c-.58 1.16.21.32.21.32a5.07 5.07 0 0 0 1.52-3.63 27.94 27.94 0 0 1 3.21 2.54 1.81 1.81 0 0 1 .23 1 1.33 1.33 0 0 0 .21-.82s2.59 2.14 3.08 2.42c.1 1.63.17 3.43.19 4.94a31.81 31.81 0 0 1-.44 6.37zm.54 25.94s.22-3.58.38-4.53.16-4 .16-4 .06-.57 1.07-.44 5.69.91 5.69.91c-.9.4-7.27 8.1-7.27 8.1zm.03 44.53l2.55 1s.89.43 1.89.88l-2.83.09a8 8 0 0 0-1.66-2zm10.22-1.41a52 52 0 0 1-7 .41 17.14 17.14 0 0 1-.65-3.6 15.2 15.2 0 0 0 9.59 2.79zm5.94-.66h.06c-.13 1.79-1.38 3.49-4.34 4s-6.48-1.07-6.48-1.07a4.34 4.34 0 0 0-.81-.67 64.54 64.54 0 0 0 6.91-.46 8.91 8.91 0 0 0 4.68-1.8zM210.29 209l-.19-3.21s2.33 4.34 11.44 4.37h.18a17 17 0 0 1-6.06.59 11.18 11.18 0 0 1-5.37-1.75zm-10.74 6h.39a9.68 9.68 0 0 1 2.28 2.83c.41.75.38 1.26-.09 1.6s-4 .31-4.94 0-.63-.91-.63-.91a6.62 6.62 0 0 1 1.31-1.92c.74-.66 1.13-1.29 1.67-1.6zm-7.2 3.14a3.69 3.69 0 0 0 2.34 1.8 4.65 4.65 0 0 0-.2.78 19.08 19.08 0 0 0-.21 3.09.58.58 0 0 1-.77.21 4.27 4.27 0 0 1-1.67-1.6 4.87 4.87 0 0 1-.45-1.65 8.18 8.18 0 0 1 .95-2.59zm.69 8.12a5.13 5.13 0 0 1-1.57-2.35 4.14 4.14 0 0 0 2.94 1.76 5.47 5.47 0 0 0 .44 1.66 6.89 6.89 0 0 1-1.85-1.03zm.59-9.68l.2-.16a8.19 8.19 0 0 1 4-1.32 21.2 21.2 0 0 0-2.54 3.51 1.93 1.93 0 0 1-1.68-1.99zm2.24 7.38a9.32 9.32 0 0 1-.28-2.48 1 1 0 0 1 .85-1s2.45.44 3.43.47c.62 0 1.91-.06 3-.14a13.74 13.74 0 0 1 .4 3.22v.11a1.28 1.28 0 0 1-1.16.67c-1.19.19-5.41.33-6.26-.81zm7.33 4.5c-.16.35-.28.5-1 .53h-.1a27.4 27.4 0 0 1-5.13-.93 10.5 10.5 0 0 1-.84-2.35s4.54.48 7.12.56a11.14 11.14 0 0 1-.07 2.23zm.5-10.22c-.46-1.09-1.18-2.5-1.49-3.08 1.29.15 2.48.36 3.43.55a6.82 6.82 0 0 1 2.62 2.22c.41.5 0 .69 0 .69s-1.51.22-2.07.22-1.91.86-2.51-.56zm.69 2.46a22.64 22.64 0 0 1 3.2-.76h1.52a1 1 0 0 1 .24.24 6.67 6.67 0 0 1 1.1 3.27s-.06.85-1.95 1.19-3.27.44-3.77.06c0-.74 0-1.36-.05-1.63a13.19 13.19 0 0 0-.3-2.33zm5.91 6.34a3 3 0 0 1-1 1.22 39.29 39.29 0 0 1-4.49.76h-.09v-2.76c1.88-.11 4.33-.37 5.81-.55a2.42 2.42 0 0 1-.24 1.37zm5.47-.79a1.78 1.78 0 0 1-.37.94l-1 .1c-.94.11-1.91.29-2.9.49a3.13 3.13 0 0 0 .64-2.38 16.43 16.43 0 0 1 3.36-.75h.29a5.86 5.86 0 0 1-.03 1.65zm.22-3.18c0 .09-.23.77-1.73.74s-2.23-.06-2.61-.44a5.37 5.37 0 0 0-.31-2.17 11 11 0 0 0-.7-1.37l.26-.07a24.42 24.42 0 0 1 3.87-.41c.63.35 1.1 1.7 1.29 2.58s-.06 1.19-.06 1.19zm1.38-3.73a17.24 17.24 0 0 1 1.76 0 2.74 2.74 0 0 0 .63 0h.05l.2.14a16.79 16.79 0 0 1 1.35 2.45.84.84 0 0 1-.48.9 9.69 9.69 0 0 1-2 .29 4.68 4.68 0 0 1-1.46-.26 11.71 11.71 0 0 0-.52-3.33.73.73 0 0 0 .46-.13zm3.87 6.84a1.4 1.4 0 0 1-1.35.82c-.82 0-1.8 0-2.81.08a12 12 0 0 0 .24-2.52c1.39 0 3-.08 4.15-.16a4.87 4.87 0 0 1-.24 1.84zm3.27-1c-.63 1.6-1.62 1.83-2.24 1.85a8.28 8.28 0 0 0 .63-2.76 6.23 6.23 0 0 0 2-.51 8.07 8.07 0 0 1-.4 1.44zm.51-4.28c-.12.41-.5.93-1.61 1.29l-.7.22a6.57 6.57 0 0 0-1.42-3.33 5.65 5.65 0 0 0 1.65-.76c.75-.6.88-.69 1.6.85a6 6 0 0 1 .46 1.75zm-.19-7.83c-.35.28-4.4.35-7.39-.16a14.32 14.32 0 0 1-5.19-1.64 35.53 35.53 0 0 0 10 0 7.39 7.39 0 0 0 3.37-1.15 12.54 12.54 0 0 1-.81 2.97zm1.32-5c-.09.5-.09 1.29-2.3 1.23s-7.36 0-10.25-1.73-2.77-2.7-2.77-2.7 0-.19.22-.14a9.19 9.19 0 0 0 2.13 1.08 37.09 37.09 0 0 0 12.7 1.82s.35-.04.25.47zm6.54-18.27a73.66 73.66 0 0 0-2.64 8c-.38 1.92-.94 5.31-2.11 6.51s-1.41 1.26-2.33 1.45c0 0-1.48.66-2.36.13s-.28-1-.09-1.57a10.67 10.67 0 0 0 1.7-5.75 2.13 2.13 0 0 0-.25-1.13s-.94 6-4.09 7.8-6.92-.75-7.67-1.45-1.6-5-1.19-6.29a3.41 3.41 0 0 0-.53 2.64s.5 1.51 0 1.73-1.45-.22-2.2-2.74a23.16 23.16 0 0 1-.09-9.05 6.22 6.22 0 0 0 1.13.69c.85.44-1.07-2.77-1-5.28a68.46 68.46 0 0 1 .53-8.83c.28-.88.59-1.57 1.5-1.87l2.56-.11c1.13-.06 7 .22 9.65.53l.79.11a12.45 12.45 0 0 1 8 6.18c2.62 5.18 1.2 6.95.67 8.33zm8.9 16.32c4.52 3.16 11.1 2.57 11.1 2.57-3.92 1.16-9.82.48-11.21.29a15.77 15.77 0 0 1 .09-2.83zm16.28-.54c0 .07 0 .31.05.65-1 1.68-4.14 1.65-4.14 1.65-7.22-.11-11-2.27-11.84-2.85l.15-.22a9.42 9.42 0 0 0 2.07.77 29.65 29.65 0 0 0 11.66-.85c.6-.21 1.13-.41 1.59-.61.59.37.41 1.26.44 1.49zm-16.19 5.47v-.26c.61.59 1.91 1.3 5.66 1.86s8.74-.6 8.46-.35-1.38 1.07-4.59 1.67-8.45 0-8.84 0a21.34 21.34 0 0 1-.71-2.89zm4.07 10.95c1.11-.23 2.68-.51 4.48-.71a5.62 5.62 0 0 1 1.14 2v.11l-3.26.17a21.28 21.28 0 0 0-3.55.58l.06-.21a5.66 5.66 0 0 1 1.13-1.94zm.13-3.88c.68-.11 1.54-.2 2.71-.3a8.29 8.29 0 0 0 .52 2.23 34.18 34.18 0 0 0-3.58.74 8.62 8.62 0 0 1 .35-2.65zm5.4 1.65l-.82.09-.09-.09a8.69 8.69 0 0 0-.52-2.05l.71-.05a19.23 19.23 0 0 1 2.3 0c.25.36.89 1.31 1.23 2-.81-.05-1.74.01-2.81.12zm-1.54-3.46c-3.08.09-6.32.57-6.32.57s-.26-.52-.59-1.4c.66.13 2 .4 3.2.52 1.57.16 4.56-.13 6 0s3.57.55 3.94.62l-.07.2a31.94 31.94 0 0 0-6.16-.49zm2.92-1.48a9.6 9.6 0 0 0 4.36-1.71c-.19.78-.42 1.58-.63 2.23a20.76 20.76 0 0 0-3.72-.5zm-10.88 5.94c.13-1 1.85-2 2.43-2.24l.41-.14a4.94 4.94 0 0 0-.26 2l.08.7a14.67 14.67 0 0 0-1.77.66c-.43.08-1.03.17-.88-.95zm-.88 3a8.84 8.84 0 0 1 3.21-1.35h-.06.09v.07a3.6 3.6 0 0 0-1.06 2.16l-1 .3a5.6 5.6 0 0 1-2.43.27 5.12 5.12 0 0 1 1.26-1.41zm-1.54 3.52v-.27c.73-.67 3.13-1 3.62-1 .06 1 .16 2.23.34 3.38a8.54 8.54 0 0 1-2.2-.18c-.74-.26-1.36-.12-1.82-1.36a3.52 3.52 0 0 0 .07-.52zm.16 2.74l-.11-.21a7.17 7.17 0 0 0 2.56.62c.56.06 1.08.15 1.6.24a5.64 5.64 0 0 0 .87 2.19c-3.09-.47-4.44-1.98-4.92-2.8zm12.36 1.63a1.62 1.62 0 0 1-1 1.11c-.79.09-1.79.17-3.11.25h-.1a5 5 0 0 1-2.13-2l-.06-.1a10.48 10.48 0 0 0 2-.06c2-.24 3.68-.48 4.42-.55.1.27.1.69-.02 1.4zm.19-3.24c-.16.85-.75.53-1.1.57s-3.84.63-4.87.6a7.8 7.8 0 0 1-1.35-.15 9.09 9.09 0 0 1-.41-3.75c.74-.66 6.13-1.32 6.88-.94a1.23 1.23 0 0 1 .66.87 14.32 14.32 0 0 1 .19 2.85zm.6-5.31a1.65 1.65 0 0 0-.31-1.19 6.83 6.83 0 0 0-.64-.79l1.45-.09h2.49a3.94 3.94 0 0 1 1.52 2.06c-1 0-2.08.1-2.34.1s-1.56.11-2.12.16c-.03-.12-.05-.21-.05-.21zm4.29 8.93c-1 .09-2.06.16-2.56.16a6.06 6.06 0 0 0-1.33.23 4 4 0 0 0 0-2.17c1.39-.09 3.86-.27 4.43-.39.23 0 .63-.11 1.1-.17 0 .98-1.05 1.92-1.6 2.38zm1.71-3.87a9 9 0 0 1-3.46.49 8.24 8.24 0 0 0-2.2.09s-.1-2.32-.14-3.6c.7-1.3 3.15-1.24 3.75-1.18a1.69 1.69 0 0 1 1.76 1.19 11.45 11.45 0 0 1 .29 3.06zm4.18 1.92c-.79 1.32-2.7 1.41-3.55 1.63a18.85 18.85 0 0 0 .47-2.17c.79-.09 1.57-.17 1.95-.18a4.52 4.52 0 0 0 1.7-.46 6.92 6.92 0 0 1-.57 1.22zm.91-4.12v.27a2.05 2.05 0 0 1-1.53 1.42 13 13 0 0 1-2.39.27 22.2 22.2 0 0 0-.5-3.48l1.82.13a7.12 7.12 0 0 1 2.52.78c.05.23.07.43.08.64zm-.64-2.69a32.79 32.79 0 0 0-4.32-.2 8.29 8.29 0 0 0-.89-1.9 9.07 9.07 0 0 1 2.21.49l-.07-.1c2.09.72 2.68 1.22 3.07 1.75zm-4.43-3.28a11.72 11.72 0 0 0-3.14-.41c-.17-.43-.51-1.29-.73-1.74a8.7 8.7 0 0 1 2.62.81 2.47 2.47 0 0 1 1.25 1.34zm-.69-10.33l.07-.42s-.47 2-4.94 2.42a23.42 23.42 0 0 1-8.71-1s1.79.16 5.31.09 6.89-2.17 7.67-2.42a.57.57 0 0 1 .61.1c0 .37 0 .67.05.81a1.12 1.12 0 0 1-.06.42zm3-21a22.89 22.89 0 0 1 .25 8.8c-.57 2.42-1.45 4-3.33 4.62 0 0 1.73-4.68.66-7.8a35.24 35.24 0 0 1-.82 3.49c-.47 1.54-1.48 5.72-4.24 6.26a19 19 0 0 1-7.17.28c-1.7-.41-2.8-3-3-3.58s-.47-.13-.31.57a13.06 13.06 0 0 0 .75 2.23c.19.35-.13.57-.63.31a5.16 5.16 0 0 1-2.45-1.95l-.13-.15a15.15 15.15 0 0 1-2.92-5.67c-.94-3.55-1.54-8.36-3-11.6a28.62 28.62 0 0 0-3.65-6.45s-.89-.84.15-1.35a.18.18 0 0 0 .13 0 25.29 25.29 0 0 1 2.67-.09l3.11.06s4.5-.13 5.66-.06a28.46 28.46 0 0 0 3.62-.47c.69 0 5.31-1 5.31-1s5.82-1.13 7.73-.94 2.22.71 2.31 1.61l.06 1.26a19.85 19.85 0 0 1-.75 5.6 10.64 10.64 0 0 1-1.76 3.08 5.94 5.94 0 0 1 1.75 2.97zM272.76 178c.4.37.62.85.44 1.16a.68.68 0 0 1-1 .32c-.42-.24-9.41-6.63-9.41-6.63s-4.65-3.3-4.76-3.4-.25-.35.19-.69c.14-.11.32-.21.6-.43s.82.15 1 .31 12.57 9.07 12.94 9.36zm-2.88-8.5a8.41 8.41 0 0 1-3.1-1.8s-.72-.67-.3-1.15a5 5 0 0 1 2.93-.72 1.24 1.24 0 0 1 .71.42c.4 1.53.66 2.7.66 2.7-.05.98-.9.6-.9.6zm11.22-10.76a.43.43 0 0 0 0 .2c0 .8-1.51 3.68-2.36 3.73s-2-5.8-3.11-7.64-1.27-1.32-1.27-1.32 1.6 4.34 1.7 4.67 1.6 3.82 1.08 6.32-2.78 4.53-4 4.81c-.63.15-.84-.14-.9-.45 0-.1-.21-2-.32-2.62-.33-2-2.59-8.82-5.38-12.26a7.33 7.33 0 0 0-5.42-2.63c-2 .33-2.78-.53-2.21-1.24a4.08 4.08 0 0 1 2.3-1.26 14 14 0 0 0 2.39-.83c1-.46 1.67-1.58 2-1.63s1.37-.94 6.46.47a13.74 13.74 0 0 1 7.47 5.35.37.37 0 0 0 .08.12 9.22 9.22 0 0 1 1.32 2.74 6.89 6.89 0 0 1 .17 3.52zm2.55-10.74a46.53 46.53 0 0 1-1.32 6c-.24 1.18-.52 1.56-1.08.09a9.31 9.31 0 0 0-.49-1.06 15.37 15.37 0 0 0-4.46-5.45 11.28 11.28 0 0 0-8-2.26c-.94 0-3.44.75-3.44-.14s1.7-2 2.74-2.31a15.24 15.24 0 0 1 3.87-.24c1 0 3.16-.24 3.16-.61s-1.6-.57-2.74-.61-3.87 0-4-.38.19-.71 1.18-1.18a38.69 38.69 0 0 1 6.13-1.23c2-.33.75-.47.75-.47-1.27-.38-5.14.19-7.92.8s-2.69 2.12-4 2.5-2-1.37-2-1.37-4.06-7.45-5.14-9.57a6.78 6.78 0 0 1-.52-4.34s-.66.94-1.46.75-1.18-1.7-1.18-1.7a16.23 16.23 0 0 0 1.13 4c.42 1 2.88 4.53 3.16 5.8a23.81 23.81 0 0 0 3 5.28 11.69 11.69 0 0 1 2.17 6.23c-.09.8-1 1.34-2.13 1.81-2.6.48-3.17 1.74-3.33 2.34a10.63 10.63 0 0 0 .08 2.41.9.9 0 0 1-.38.72c-.29.25-2 2.06-2.13 2.64s.31.72.15 1a4.73 4.73 0 0 1-2.62 1.16 7 7 0 0 1-4.37-.87 18.88 18.88 0 0 1-2.73-2.83c-.24-.26-.83-1.26-1.84-1a1.21 1.21 0 0 0-.85 1.34l-34.09-24.93c.21-1.85.63-4.15.77-4.71.19-.75.19-6.48.19-7s-.17-.28-.17-.28a15.06 15.06 0 0 0-.8 4.32c.12 1.56-.24 3.37-1 3.25s-1-2-1-2a8.49 8.49 0 0 0-.35 2.43 9.18 9.18 0 0 0 .25 2.57l-3.23-2.28a7.33 7.33 0 0 1-1.19-4.75 5.09 5.09 0 0 1 1.85-3 34.15 34.15 0 0 0 3.07-3.18c.38-.42 2.81-4 4.57-6.6s6.49-4.21 6.49-4.21a26.85 26.85 0 0 1 6.95-.75A94.39 94.39 0 0 0 221.4 116a48.94 48.94 0 0 0-.94 8.35s.19 1.7 3.54 2.69a19 19 0 0 0 7.4.28s.8-.09.9-1.93 1.51-12.36 3-15a10.2 10.2 0 0 1 5.67-4.89l.35-.09c1.1-.38 3.65-1 4.62-1.48s1-1.25 2.37-.58a2.56 2.56 0 0 1 .3.36l6 4a12 12 0 0 0-4 1.6 18 18 0 0 1 5.18-.63 19.6 19.6 0 0 1 3.82.85c3.35 1.57 4.27 1.77 6.91 4.74a39.34 39.34 0 0 1 4.76 7c.66 1.08 5.66 7.45 6.79 9.15s2.78 2.78 4.29 7.17a24.91 24.91 0 0 1 1.29 10.41z" fill="#692f23"/></g></g></svg>