<svg xmlns="http://www.w3.org/2000/svg" width="300" height="250" viewBox="0 0 300 250"><title>уборка-офиса</title><g data-name="Слой 2"><g data-name="Слой 24"><path fill="none" d="M0 0h300v250H0z"/><path fill="#e6d1aa" d="M76.58 88.54L77.88.87l146.97-.8 1.68 36.46-40.38 103.97-106.21.56-3.36-52.52z"/><path d="M159.81 141.55L19.54 140.5l-.67 1.72s-.92 1.94 2.48 2.28 139.36.32 139.36.32z" fill="#e2ddd3"/><path d="M191.71 195.44l-.29.05-2.32-51.08-166.7-.36.18 54.7-.58 23s2.53 1.77 3.55.92a27.79 27.79 0 0 0 .36-6.54c-.14-3 .07-12.47.18-17.07l161.16-1 .22 16.21s-.24 7.09 1.45 7.76 3.61-1.21 3.61-1.21c-.53-1.08-.82-25.38-.82-25.38z" fill="#c7c0b1"/><path d="M35.81 134.52c.16 0 .27 4.79 1 5.33s6.68.81 7.54.65 1.51-1.72 1.56-2.32.83-12.63.65-12.77-11.26-.05-11.26-.05zM67.78 131.28l-2.59-34c.61-4.85 5-7.07 7.11-7.6s30.87-2.22 33.69-2 17.41-2.38 19.63 2.26 2.79 12.56 2.83 13.33 0 2.67-.08 3.07-45.53 35-45.81 34.91-11.56-.63-11.56-.63l1.13-2.18-1.41-1.58.08-4.71-2.83.27z" fill="#fd8204"/><path d="M81.84 140.17s-1.17-1.13-1.13-6.95-.24-24.64-.24-24.64a4.82 4.82 0 0 1 3.72-2.67c2.71-.32 50.1.16 50.1.16s2.5-.69 2.5 3.39 0 29-.08 29.49 1.17 1.82-2 2.1-52.59.7-52.87-.88z" fill="#e2ddd3"/><path d="M264.89 148.53c-.46-2.94-4.55-10.27-5.77-11.74s-2.33-7.39-2.94-9.21a44.23 44.23 0 0 0-4.76-8.5 62.06 62.06 0 0 1-4.35-5.67c-.71-1.06-5.16-7.24-8.7-10.22a28.59 28.59 0 0 0-7.49-4.76 11.76 11.76 0 0 0-5-.65l-1.33-.36-3.13-.82s.07-3.29-.48-3.36-8.49 2.23-11.78 2.12S198 94 198 94l-.1 1.75-.41 2.36s-2.47.62-6 1.54a19.93 19.93 0 0 0-8.12 4.83c-1.44 1.44-4.76 2.22-5 2.36-7.6 4.11-15.72 8-18.7 11.92s.21 12.94.21 12.94 3.8 8.83 1.85 9.14-2.05 1.75-2.05 1.75l2.67 6.57a13.78 13.78 0 0 1 4.73 4.21c1.85 2.77 3.29 3.29 7.7 2s10.07-5.86 10.07-5.86l.41 18.49s-.62 4.62 1.23 4.42 19.72 2.26 30.82 2 22.91-4.42 22.91-4.42-.1-9-.26-17.14c.51 2.39 1.2 5.22 1.54 6.16.61 1.67 3.8 4.86 5.16 5.67s6 .86 7.9.71 4.1-.81 7.19-3 3.59-10.93 3.14-13.87z" fill="#fff"/><path d="M189.27 33.72S195 31.4 196 30.78a26.94 26.94 0 0 1 9.18-1.92c3.29 0 7.19-.89 9-.68a5.6 5.6 0 0 1 2.94 1.3s2.05.07 3.77 0 4.31 1.1 5 1.3l8.32 2.47c1.37.41 3.29 2.47 5.07 3.36s10.87 9.58 11.72 12.25 4.79 8 5.2 9.86 2.33 12.46-.75 17.19-8.42 11.57-11.5 13-6.51 4.31-7.33 4.79-6.09 2.4-8.63 2.4h-3.9a13.57 13.57 0 0 0-2.6.48c-.34.14-.48-3.36-.48-3.36s-8.42 2.47-14 2.05a69.69 69.69 0 0 1-10.27-1.58s2.09 3 1.54 3.46-4.07.55-5.58.34-7-1.81-7-1.81l-3.22-1.54a41.7 41.7 0 0 0-3.83-2.5c-.41-.07-8.35-9.52-9.66-11.92s-2.4-7.94-2.47-12.4a42 42 0 0 1 2.84-14.59c1.85-5.07 6.75-10.75 8.94-12.05s7.88-4.52 7.88-4.52z" fill="#e09c51"/><path d="M202.39 47.37a9.65 9.65 0 0 0-2 2.75c-.44 1.13-.69 5.24-1.1 5.86s-1.57.74-2.34.67a6.71 6.71 0 0 1-2.13-1.05c-.1-.05-5.06 1.49-5.65 1.54s-6.81 1.52-7.22 1.62-3.08.67-3.21.72a5.28 5.28 0 0 0-2.65 3.26 5.9 5.9 0 0 0 .26 4.08 4.23 4.23 0 0 0-1.57 2 7.53 7.53 0 0 0 1.1 4.78 20.42 20.42 0 0 0 3.52 2.4c-.28-.13 1.16 3.16 3.75 6.86s6.11 7.55 13.51 10.63 17.64 1.59 17.9 1.57a28.86 28.86 0 0 0 11.09-3.9s5.78-4.24 7.42-5.91 5-5.75 5.68-7.4a9.45 9.45 0 0 0 .72-2s2.08.21 3.6-2.52.69-5.88-.54-6.55-3.6-.18-4.29-.05-2.41-1.41-2.85-3.29-5.06-6.44-5.06-6.44a28.13 28.13 0 0 1-5.42-.1c-2.05-.36-6.06-.82-7.58-1.26s-6.5.23-7.47.46-4.37 1.85-4.62 1.62-.13-1.44-.13-2-2.72-8.35-2.72-8.35z" fill="#fbdfcb"/><path d="M197.7 67.76a3 3 0 0 0-1-2.07 3.93 3.93 0 0 0-2.86-1.13c-.75 0-3.92-.27-4.43 0a12.39 12.39 0 0 0-2.17 2.05c-.6.67-.05 1.13.29 1.32a6.27 6.27 0 0 0 2.45 1.17 27 27 0 0 0 3.94-.13c.79-.17 2.28-.79 2.84-.8s.85-.17.94-.41z" fill="#fff"/><path d="M194.95 65.07a2.2 2.2 0 0 1 .62 1.9 3.16 3.16 0 0 1-2.36 2.11 2.8 2.8 0 0 1-2.65-.9c-.15-.46-1-1.74-.78-2.37s3.66-3.25 5.17-.74z" fill="#abd2f0"/><path d="M213.17 67.62a3 3 0 0 1 1-2.07 3.93 3.93 0 0 1 2.86-1.13 22.51 22.51 0 0 1 4.35.55 8.25 8.25 0 0 1 2.26 1.49c.6.67.05 1.13-.29 1.32a8 8 0 0 1-2.67.79 25.59 25.59 0 0 1-3.72.26c-.79-.17-2.28-.79-2.84-.8s-.86-.18-.95-.41z" fill="#fff"/><path d="M216.77 65a2.2 2.2 0 0 0-.62 1.9 3.16 3.16 0 0 0 2.36 2.1c1.13.22 2.76-.14 2.91-.6s.74-2 .51-2.67-3.66-3.29-5.16-.73z" fill="#abd2f0"/><path d="M167.75 57a25.76 25.76 0 0 0 3.6-3.85c1.08-1.64 3.65-6.32 6.16-8.63a54 54 0 0 1 4.16-3.8l-2.41 5.24s1.8-2.36 3.39-3a9.4 9.4 0 0 1 2.26-.67 31.81 31.81 0 0 0-2.41 4.26 41.36 41.36 0 0 0-.36 7c.05.82.26 2.21.26 2.21s.62-6 2.82-9.3 3.44-6.06 8.42-8.73 6-2.82 6.78-2.67 0 1.69 0 1.69a52.45 52.45 0 0 0-2.26 5.25 17.32 17.32 0 0 1 3-3.54 31 31 0 0 1 3.75-2.82s-2.21 6.52-2.21 8.53.92 7.81.92 7.81l1 2.57a21.7 21.7 0 0 1 1.44-9.3c1.9-4.62 2.77-8.94 6.32-10a5.12 5.12 0 0 1 6.27 2.36 21.86 21.86 0 0 1 1.35 4.13s.15-3.6.05-4.42 1.13-1 1.8-.77a11.52 11.52 0 0 1 6.11 4.83c2.11 3.44 2.88 9 2.88 9s1.13-6.93.36-8.27-2.62-4.37-4.06-5.55c0 0-.31-1.34 1.9-.92a15.16 15.16 0 0 1 5.8 2s-2.62-2.26-3.9-3.29-7.19-4.37-7.5-4.57a24.85 24.85 0 0 0-3.65-.51l-2.36-.1-1.9-1-6.93.77-2.6-.51-8.82 1.57-6.73 3-6.16 4.31-2.88 1.08-6.78 5.91s-5.08 6.42-5.24 7.24-1.85 5.55-1.85 5.55z" fill="#e9b87f"/><path d="M253.81 140.81l-.35-.23-.36-.19-.45-.12a2.83 2.83 0 0 1-1.78-.82 2.74 2.74 0 0 0 .59.83 5.77 5.77 0 0 0 2.46.64z" fill="#fff"/><path d="M183.42 150.73c-.41.1-6.57 4.42-6.57 4.42l.92.62-.1 1.34s-2-.41-2.77.21-.41 1.13-.41 1.13-1.64-.1-2 .62a1.1 1.1 0 0 0 .31 1.23 3.24 3.24 0 0 0-1.34 1.85c-.31 1.23.21 2.67 2.26 4a11.22 11.22 0 0 0 7.81 1.34 8.44 8.44 0 0 0 3.6-2.57l-.82-14.69z" fill="#f9e5cc"/><path d="M194.41 207a90.83 90.83 0 0 0 1.64 9.25 5.65 5.65 0 0 0 2.57 3.18l5 .41 7 .62a24 24 0 0 0 1.13-2.88c.1-.62.92-7.91 0-10.07s-1.75-2.26-1.75-2.26a10.17 10.17 0 0 1-7.4 3.29 26.93 26.93 0 0 1-8.19-1.54zM214.44 205a15 15 0 0 0 8.73 3.6c5.44.41 8.53-1.85 8.53-1.85s-.41 5.24-.82 7-2.16 5-2.57 5a29.32 29.32 0 0 1-6.06 1.13c-3.08.1-7.09 1.13-7.19.72a37.13 37.13 0 0 1-1-4.93c-.06-1.05-.85-8.34.38-10.67z" fill="#d2a274"/><path d="M198.62 219.45s-3.29-.21-4.83.72a6.88 6.88 0 0 0-2.26 2.16s-3.6 2.57-4 3.7 0 4.39.53 5.91c.91 2.44 10.35 3.84 11.18 3.84l9.45-.1 3-1.54.82-1.54s2 2.88 3.39 2.88 10.07.21 10.07.21a61.59 61.59 0 0 0 7.42-1.58c4.55-1.65 4.09-2.43 4.4-3.45a10.91 10.91 0 0 0-.31-4.83c-.41-.92-4.42-4.52-4.42-4.52l-3.08-2-8.42.92-7.4.51-1.44 5.34L211 221z" fill="#efb000"/><path d="M209 173.84s8.63.62 9.86.41 18.28-3.39 18.28-3.39 1.44 5.34.72 8.42a68.76 68.76 0 0 0-1.13 7.5s1.13 12-.51 14.48-3.39 4.42-5.75 5.14-3 2.26-7.29 2-7.29-2.36-8-3.6l-2-8.12s-1.75 7.4-3.18 8.42-2.88 3.08-6.78 3.29-10.37-2.47-10.37-2.47-2.26-.62-3.18-5.14-1-16.13-1-16.13L188 172.3a34 34 0 0 1 7.4.62c2.6.71 13.6.92 13.6.92z" fill="#fd8204"/><path d="M193.9 173.22s.72 7.7.72 10.37-.41 10.48.21 13.46 1.34 7.4 2.36 9.45c0 0-2.88-1.23-3.6-2.67s-2.47-10.58-3.18-21.26c0 0-.62-9.76 0-10.07s3.49.72 3.49.72zM197.59 173.74s.62 5.14.82 7.7.82 10.27.72 11.92.72 12.12 2.57 14.38c0 0 2.36 1.13 2.77.51s-.75-4-1.35-6.93c-.5-2.42-.5-11.77-.8-14.65a119 119 0 0 1-.62-12.53s-3.28-.92-4.11-.4zM205.61 173.94a17.14 17.14 0 0 0-.1 6.37c.62 3.39 1.34 14.48 1.64 17.67s.31 8.83-.62 9.66 2.67-.72 3.49-2.36-.62-18.9-.72-21-.92-9-.31-10.27zM215.67 174.56s-.31 11.5-.51 15.41 1.59 17.94 3.49 17.46c.41-.1 2.47 1.13 4.52 1.13s5.14-1.34 5.14-1.75-.62-16.74-.82-20.34-.62-12.84-.62-12.84l-3.9.51s1.64 27.22 1.34 29.89a26.92 26.92 0 0 1-.51 3.39s-2.36-.31-3.49-7.6-.72-24.76-.82-25.06-3.82-.2-3.82-.2zM230.88 173.12s.62 17.87.51 20.34 0 9.35-2.16 12.53c0 0 0 .51 1.23.62s3-1.34 3.7-2.05 1.34-5.86 1.34-8.42-.31-18.08-.51-20.24-.51-4.11-.51-4.11z" fill="#e16702"/><ellipse cx="201.44" cy="125.42" rx="3.38" ry="3.99" transform="rotate(-30 201.435 125.414)" fill="#fd8204"/><ellipse cx="189.85" cy="141.66" rx="3.38" ry="4.24" transform="rotate(-30 189.859 141.673)" fill="#fd8204"/><ellipse cx="234.02" cy="136.53" rx="3.38" ry="4.24" transform="rotate(-30 234.018 136.525)" fill="#fd8204"/><ellipse cx="242.96" cy="125.74" rx="3.38" ry="4.24" transform="rotate(-30 242.967 125.743)" fill="#fd8204"/><path d="M220 102.42c1.15 2 .79 4.34-.79 5.26a3.53 3.53 0 0 1-4.29-1c-.25-.27.92-6.5 1.34-6.52a4.26 4.26 0 0 1 3.74 2.26z" fill="#fd8204"/><ellipse cx="209.78" cy="139.51" rx="4.24" ry="3.38" transform="rotate(-56.56 209.765 139.504)" fill="#fd8204"/><ellipse cx="236.34" cy="151.36" rx="4.24" ry="3.38" transform="rotate(-56.56 236.32 151.358)" fill="#fd8204"/><ellipse cx="198.69" cy="154.19" rx="4.24" ry="3.38" transform="rotate(-56.56 198.664 154.192)" fill="#fd8204"/><ellipse cx="218.55" cy="153.91" rx="3.38" ry="4.24" transform="rotate(-35 219.25 154.763)" fill="#fd8204"/><ellipse cx="221.59" cy="127.18" rx="4.24" ry="3.38" transform="rotate(-56.56 221.575 127.175)" fill="#fd8204"/><ellipse cx="229.81" cy="109.3" rx="4.24" ry="3.38" transform="rotate(-56.56 229.797 109.309)" fill="#fd8204"/><ellipse cx="190.37" cy="108.18" rx="4.24" ry="3.38" transform="rotate(-56.56 190.348 108.17)" fill="#fd8204"/><ellipse cx="166.02" cy="145.67" rx="4.24" ry="3.38" transform="rotate(-56.56 166.004 145.669)" fill="#fd8204"/><ellipse cx="163.76" cy="120.71" rx="3.38" ry="4.24" transform="rotate(-55.07 163.747 120.704)" fill="#fd8204"/><path d="M178.87 106.54a2.7 2.7 0 0 1-2.33 1.48h-.1a2.62 2.62 0 0 1-.67-.09 2.7 2.7 0 0 1-2.51 1.94h-.39a5 5 0 0 0 1.61 1.82c1.92 1.34 4.35 1.19 5.42-.34.94-1.41.47-3.44-1.03-4.81zM175.92 155.07a2.7 2.7 0 0 1 2.51-1.14h.1a2.62 2.62 0 0 1 .65.18 2.7 2.7 0 0 1 2.76-1.57h.1l.29.06a5 5 0 0 0-1.34-2c-1.72-1.6-4.14-1.78-5.41-.42s-.96 3.33.34 4.89z" fill="#fd8204"/><ellipse cx="180.66" cy="124.31" rx="3.69" ry="2.95" transform="matrix(.55 -.83 .83 .55 -22.64 206.55)" fill="#fd8204"/><circle cx="191.79" cy="66.34" r=".63" fill="#fff"/><circle cx="217.85" cy="66.33" r=".62" fill="#fff"/><path d="M248.39 145.49c0-.4-3.44-1.47-4-2.33s-.66-2.23.81-2.23 3.95 1 4.35.61l.4-.35.61 1.37-.1 3.44a1.45 1.45 0 0 0 1.62.51c1.16-.25 1.21-1.62 1.21-1.62l-.2-3a4 4 0 0 1 2.83.3c1.32.76 2.88.81 3.54 2.43s1.16 3.75 1.62 5-.05 2.73-.61 4.66a46.45 46.45 0 0 1-2 5.06s-4 .61-5.67.61-4.35-.35-5.57-1.52a2 2 0 0 1-.61-2.13 11.82 11.82 0 0 1-1.21-2.83 15.76 15.76 0 0 1 .51-4.35s-.3-1.62.3-1.92a22.5 22.5 0 0 1 2.83-.81z" fill="#fbdfcb"/><path d="M250.83 139.42c-.22-.66 1-48.38 1-48.38s-.35-2.83 1.21-3.14 1.32 3.85 1.32 3.85l-1.21 53.85s.3.46-1.11.91-1.62-.51-1.62-.51zM249.3 210.78l.91-50.61a4.54 4.54 0 0 1 1.62-.3c.91 0 1.11 3 1.11 3.34s-.81 47.57-.81 47.57-1.72 2.63-2.83 0z" fill="#efb000"/><path d="M248.52 229.34c-.24.1-14.37 4.59-14.37 4.59s-7.36 2.23-8.57 3-2 2.09-1.69 2.83a9.62 9.62 0 0 0 1.08 2.7c.57.71 5.47 6.24 6.48 6.55s5-.37 5.6-.54 36.81-11.67 37.18-11.88 2.73-1.52 3-2.36a4.34 4.34 0 0 0 .07-2.63c-.3-1-5.74-5.09-6.14-5.4a16.49 16.49 0 0 0-3.31-1.75c-.47.03-19.33 4.89-19.33 4.89z" fill="#fd8204"/><path d="M249.1 223.74l-.1 7.79-5.26 1.92s-2.83.15-2.73.91 2.13 2.73 2.13 2.73l2.73 2.43 15.69-4.66a2 2 0 0 0-.51-1.72c-.76-1-3.64-3.95-3.64-3.95l-5.57 1.62-.1-18.83-2.33-.3z" fill="#c7c0b1"/><path d="M258.31 228.7s8.91-2.38 9.41-2.23a61.08 61.08 0 0 1 4.76 4 3.61 3.61 0 0 1-1.82 1.62c-1.06.25-7.59 2.33-7.59 2.33l-1.32-.51-4.35-4.76zM228.75 238.21l4 5.06s2.63.61 3.34.3 8.81-3.95 8.81-3.95l-1.82-2.53-2.08-2.73z" fill="#f5e0c7"/><path d="M192.14 82.28a2.5 2.5 0 0 1 1.86-1.21c1.13 0 1.67.77 4.59 1.56s8.93 1.77 13 .72c2.16-.56 7.23-2.74 7.77-2.9a1.22 1.22 0 0 1 1.21.26.64.64 0 0 1 .13 1c-.28.26-.77-.56-.95-.59s-4.6 2.29-5.72 2.92c-1.77 1-5.11 1.36-8.06 1.26a23 23 0 0 1-7-1.56c-1.77-.64-4-1.92-4.59-1.92a5.55 5.55 0 0 0-1.74.67s-.55.45-.5-.21zM201.19 87s0-.38.49-.38a46.63 46.63 0 0 0 4.75.62 21.64 21.64 0 0 0 5.57-.56c.51-.26.8-.13.8 0a12.46 12.46 0 0 1-5.44 1.9c-2.55.19-5.7-.84-6.17-1.58zM203 76.4a4.67 4.67 0 0 0 3.18 1.08 5.84 5.84 0 0 0 3.21-1.13c.15-.18.26-.51-.59-.28a7.51 7.51 0 0 1-2.67.36 20.92 20.92 0 0 1-2.69-.26s-.68-.33-.44.23zM216.61 59.42s.21.38 2.74.64a16 16 0 0 1 5.21 1.9c.21 0 .54 0-.08-.56a17.34 17.34 0 0 0-4.13-2.57c-1.02-.28-3.92-.57-3.74.59zM185.93 61.65c.05.15.32 0 1.55-.62a12.62 12.62 0 0 1 4.43-1c1.1 0 2.41 0 2.8.05s1.72-.62.18-1.18-5.08.18-6.26.67a8.1 8.1 0 0 0-2.44 1.43.88.88 0 0 0-.26.65zM198.55 67.67a8.4 8.4 0 0 0-2.44-2.67 5.94 5.94 0 0 0-4.11-1.21 9.58 9.58 0 0 0-4 .74 5.9 5.9 0 0 0-1.83 2.37 1 1 0 0 0 .21.88 3.57 3.57 0 0 0 .75.7A14 14 0 0 0 190 69.6a13 13 0 0 0 4.68-.05c1-.22 2.35-.81 2.62-.81s.95.18 1.14 0 .48-.38.11-1.07zm-8.25 1.28a3.19 3.19 0 0 1-1-.16 8 8 0 0 1-1.56-1.06.7.7 0 0 1-.2-.49c0-.24.38-.8.81-1.32a3 3 0 0 1 1.09-.77c.38-.17.54-.12.49 0a2.78 2.78 0 0 0-.44 1.6 2.59 2.59 0 0 0 1.05 2s.04.17-.24.2zm4.7-2.19a1.64 1.64 0 0 1-.95 1.56 3.07 3.07 0 0 1-2.39.12 2 2 0 0 1-1.15-1.31 2.18 2.18 0 0 1 .17-1.65.72.72 0 0 1 .33-.26.42.42 0 0 1 .23 0c.32.14.23.28.2.35s.05 1.39.05 1.39a1.44 1.44 0 0 0 1.17.77 1.2 1.2 0 0 0 1.24-.86 1.36 1.36 0 0 0-.12-.89.46.46 0 0 1 .59-.59c.54.17.63.94.63 1.37zm2.49 1.5c-.17.08-.72-.28-1.1-.22a3.57 3.57 0 0 0-.94.37c-.1 0-.17 0-.14-.1a1.9 1.9 0 0 0 .5-1.24 3 3 0 0 0-.38-1.87 5.47 5.47 0 0 1 1.9 2c.3.63.31.98.14 1.06z" fill="#692f23"/><circle cx="191.71" cy="66.21" r=".63" fill="#fff"/><path d="M224.19 67a24.44 24.44 0 0 0-2-1.86 6.22 6.22 0 0 0-2.29-.92 8 8 0 0 0-5 .12 6 6 0 0 0-2.36 3.26 1.75 1.75 0 0 0 0 .9c.13.57.72.41.74.42A6.25 6.25 0 0 1 215 69c.53.14 2.68.56 3.21.69a8.24 8.24 0 0 0 3.41-.17 5.68 5.68 0 0 0 2.94-1.52c.29-.37-.07-.68-.37-1zm-7.53 1.85c-.5-.13-1.93-.74-2.43-.8a1.05 1.05 0 0 0-.56.06c-.3 0-.16-.42-.16-.42l.22-.47a5 5 0 0 1 1.39-1.49 4.78 4.78 0 0 1 1.3-.69c0 .09-.26.29-.34.45a2.92 2.92 0 0 0-.27 1.43 2.59 2.59 0 0 0 1 1.95zm4.46-1.89a2 2 0 0 1-1.3 1.76 2.27 2.27 0 0 1-2.79-.89 1.92 1.92 0 0 1-.08-2s.14-.23.32-.23a.81.81 0 0 1 .58.18c.15.14 0 .4-.1.74a1.07 1.07 0 0 0 .92 1.36 1.17 1.17 0 0 0 1.49-.93c0-.32.07-.8.47-.8s.58.1.5.77zm2.42.8a12.93 12.93 0 0 1-2 1 .2.2 0 0 1-.1 0c-.18-.09.31-.41.52-1.37a2.87 2.87 0 0 0-.06-1.6c.42.29 1.2.88 1.59 1.2s.19.56.06.72z" fill="#692f23"/><circle cx="217.74" cy="66.2" r=".62" fill="#fff"/><circle cx="201.37" cy="97.16" r=".53" fill="#692f23"/><circle cx="205.07" cy="96.71" r=".52" fill="#692f23"/><ellipse cx="208.35" cy="98.32" rx=".43" ry=".52" fill="#692f23"/><circle cx="212.02" cy="96.82" r=".56" fill="#692f23"/><circle cx="215.66" cy="97.24" r=".55" fill="#692f23"/><circle cx="218.97" cy="95.39" r=".53" fill="#692f23"/><circle cx="208.92" cy="102.28" r=".59" fill="#692f23"/><circle cx="213.64" cy="104.39" r=".59" fill="#692f23"/><circle cx="209.54" cy="109.11" r=".59" fill="#692f23"/><circle cx="205.12" cy="112.39" r=".59" fill="#692f23"/><circle cx="209.59" cy="115.96" r=".59" fill="#692f23"/><circle cx="213.72" cy="111.88" r=".59" fill="#692f23"/><circle cx="213.51" cy="118.88" r=".59" fill="#692f23"/><circle cx="205.15" cy="105.26" r=".59" fill="#692f23"/><path d="M224.77 191.52a27.35 27.35 0 0 0 4.31-1.2c1.09-.55 3-1.71 3.45-1.88s.41.14-.31.86a5.73 5.73 0 0 1-3.11 2.19 11.12 11.12 0 0 1-4.62.55c-.24-.04-.49-.48.28-.52zM215.44 100.25h-.01.01zM230.63 222.13z" fill="#692f23"/><circle cx="190.24" cy="169.59" r=".75" fill="#692f23"/><circle cx="196.27" cy="165.28" r=".75" fill="#692f23"/><circle cx="201.27" cy="170.69" r=".75" fill="#692f23"/><circle cx="206.61" cy="166.44" r=".75" fill="#692f23"/><circle cx="217.5" cy="166.17" r=".75" fill="#692f23"/><circle cx="223.6" cy="170.49" r=".75" fill="#692f23"/><circle cx="229.08" cy="165.83" r=".75" fill="#692f23"/><circle cx="234.28" cy="168.64" r=".75" fill="#692f23"/><circle cx="238.12" cy="163.36" r=".75" transform="rotate(-35.54 238.111 163.362)" fill="#692f23"/><path d="M277.83 231.84a1.94 1.94 0 0 0-.66-1.3s-7-5.59-8-6a5.34 5.34 0 0 0-2.29-.31l-14.52 3.71 1-56 .11-6.45s1.47 0 3.85-.13a6.48 6.48 0 0 0 4.28-1.67 28.92 28.92 0 0 0 2.08-3.62c.28-.58 1.94-4.87 2.1-5.47a10.93 10.93 0 0 0 .22-3.6c-.15-.88-.59-2.65-.76-3.34 0-.09 0-.18-.07-.28a38 38 0 0 0-3.75-7.34 26.71 26.71 0 0 1-1.57-3.64c-.43-.84-.86-1.44-1.47-2.68a21.24 21.24 0 0 1-1.38-4.62 38.41 38.41 0 0 0-2.28-6.07 6.87 6.87 0 0 1-.61-2s.28-32.14.15-32.64-.84-1-1.92-.71-1.11 1.82-1.11 1.82-.86 27.53-.76 27.78c0 0-2.56-3.06-3.75-4.61s-4.55-6.66-7.34-9.16a31.3 31.3 0 0 0-10-5.92c-1.59-.84-3-.44-2.85-.79a42.18 42.18 0 0 0 6.79-1.39 20 20 0 0 0 5.3-2.53 4.69 4.69 0 0 0 .83-.54 16.26 16.26 0 0 0 3.27-2.12c.85-.9 4.34-1.9 6.67-5.13s5.11-5.57 5.49-6.8 1.33-3.49 1.77-5a38.66 38.66 0 0 0 .82-8.88 20.68 20.68 0 0 0-1.1-6.46c-.56-1.31-4.52-8.26-6.16-10.72s-6.49-7-7.13-7.75a47.27 47.27 0 0 0-7-5.41 23.29 23.29 0 0 0-5.93-2.26l-3.07-.93a40 40 0 0 0-4.62-1.88 17.85 17.85 0 0 0-4.55 0 6.54 6.54 0 0 0-4.1-1.37s-2.63.44-3.39.48c0 0-1.61.21-2.19.24s-4.38-.1-5.78 0a25.82 25.82 0 0 0-8.11 2.2 59.22 59.22 0 0 0-6.12 3.35 74.78 74.78 0 0 1-6.36 4 69.74 69.74 0 0 0-6.09 4.52 39.1 39.1 0 0 0-6.19 8.18 38.42 38.42 0 0 0-3.15 8.79 31.52 31.52 0 0 0-.31 5l-.13.28s0 2.8.14 5.23a38.61 38.61 0 0 0 2.7 10.26 24.8 24.8 0 0 0 4.55 6.84c1.85 1.78 2.22 2.43 2.53 2.63 0 0 1.44 1.13 2.77 2.29a16.1 16.1 0 0 0 3.83 2.33c.65.27 4 2.09 4.58 2.33a13.85 13.85 0 0 1 2.29.75 2.19 2.19 0 0 0 1.3.18 3 3 0 0 0 .82.23 17.27 17.27 0 0 0 1.76.15c-1.48.59-4.58 1.62-6.46 2.6-3.44 1.8-4.86 4.1-6.17 5-1.08.73-17.65 7.39-20.68 11s-2.15 9.75-1.64 11.54 3.28 10.57 3.28 11.6-2.1.82-2.26 2.67 2.72 6.67 3.28 7.49 1.74 1 2.51 1.64.72 1.9 1.59 3.08a5.39 5.39 0 0 0 3 2 14.84 14.84 0 0 0 6.47-1 1.85 1.85 0 0 0 1 .46v.72s-.51-.58-1.74-.17a2 2 0 0 0-1.47 1.4 1.87 1.87 0 0 0-1.74.68 1.9 1.9 0 0 0-.31 1.85 2.21 2.21 0 0 0-1.13 2.12 3.8 3.8 0 0 0 2.67 3.9 39.8 39.8 0 0 0 5.68 1.47c1.4.1 4 0 5.25-.86a30.2 30.2 0 0 0 .53 4.93c.19.58.12.64 1.85.79.08 0 .59-.07.66.38a26.87 26.87 0 0 0-.18 2.9c.1 1.47 0 4.48.17 5.4a48.43 48.43 0 0 1 .68 5.68c.07 2.19.24 6.5.21 8.76a21.58 21.58 0 0 0 1 7.18 5.58 5.58 0 0 0 2.57 2.84c.79.31 1.2.44 1.51 1a17.33 17.33 0 0 1 .68 3.87 17.72 17.72 0 0 0 1.2 5.44c.82 1.64 1 2.22.75 2.53s-.92 0-1.85.58a21.4 21.4 0 0 0-2.39 2.22c-.75.65-1.74.86-2.94 2a5.84 5.84 0 0 0-1.78 2.87 10.73 10.73 0 0 0 .21 4 5.51 5.51 0 0 0 3.45 3.93 28.08 28.08 0 0 0 5.4 1.4c1.4.24 9.47.27 10.84.24a16.3 16.3 0 0 0 4-.51 3.25 3.25 0 0 0 1.78-2 7.23 7.23 0 0 0 1.4 1.62c.79.62 4.72.92 7.56.89h.14l5-.32c-.76.24-1.36.43-1.3.42-.56.39-1.7 1.28-1.76 2.06a7.7 7.7 0 0 0 .81 4 75 75 0 0 0 7.2 7.65 4.11 4.11 0 0 0 2.26 0s41.9-13.81 42.82-14.16a1.57 1.57 0 0 0 1-1.07s.01-1.95-.04-2.76zm-16.53 2.09c.41.84-.86.92-.94 1s-11.8 3.36-12.33 3.56-2.11.61-2.7.13-2.82-3.05-2.82-3.05-.94-1-.74-1.3 6.15-2.07 6.74-2.25v.93c.2 1.17.38 2.39 2.14 1.88a2.27 2.27 0 0 0 1.6-2.34V231c.64-.22 2.67-.91 3.54-1.13a3.15 3.15 0 0 1 1.68 0 37.72 37.72 0 0 1 3.84 4.05zm-2.3-4.74c.56-.41 7.88-2 8.49-2s4 2.34 4.32 3.18-.89 1.12-.89 1.12-7.09 2.36-7.91 2.36a2.57 2.57 0 0 1-1-.22c-.34-.4-.88-1.05-1.34-1.69a11.77 11.77 0 0 0-2.08-2c-.08-.21-.02-.42.41-.75zm-14.49 10c-1.17.4-8.79 3.38-9.61 3.57s-.94 0-1.45-.41-3.81-3.51-3.81-3.51-.31-.38.48-.71 9.38-2.92 10-3a1.22 1.22 0 0 1 1 .24 30.24 30.24 0 0 0 2.83 3.32zm-17.13-7.31a16 16 0 0 0 3.08-.07c1.44-.21 2.67-.92 2.7-.65a3.76 3.76 0 0 1-.24 1 3.34 3.34 0 0 1-1.06 1.92c-.42.09-1.41.43-2 .62a3.57 3.57 0 0 1-2.19-.25 2.38 2.38 0 0 1-.45-1h.07a4.67 4.67 0 0 1 .11-1.53zm-7.66-11.36a28.58 28.58 0 0 1 3.22-.51v.93a29.63 29.63 0 0 0-4 .87.11.11 0 0 0 0-.05 1 1 0 0 1 0-.45h.12s.16-.54.68-.75zm-.17 2.12a13.27 13.27 0 0 1 3.28-.8 4.36 4.36 0 0 1-.06.5 7.52 7.52 0 0 0 .28 2.11l-5.28 1.17a7.32 7.32 0 0 1 .45-1.71c.29-.13.9-.91 1.35-1.22zm2.46-3.59c-1.33.17-4.21.62-5.34.65a1.74 1.74 0 0 1-1.88-1.16c-.44-.79 0-1.51-.24-2.5 0-.15-.06-.34-.09-.56a15.65 15.65 0 0 0 5.66 1.66 24.26 24.26 0 0 0 8.52-.44 3.35 3.35 0 0 1-1.71 1.88c-1.21.51-3.57.34-4.93.51zm-7.44 4.95c-.48.21-.34-.31-.34-.31a4.29 4.29 0 0 1 1.71-2.38 2.5 2.5 0 0 1 1.77-.4l-.13.81a4.33 4.33 0 0 0 0 .55l-.06.16c-.92.48-2.52 1.39-2.95 1.57zm2.31 0a12 12 0 0 0-.4 1.36 3.88 3.88 0 0 0-.05.44 3.32 3.32 0 0 1-1.22.26h-.08c-.51-.07-.48-.58-.24-1a7.77 7.77 0 0 1 2-1.06zm-5.43 4.89a.35.35 0 0 0 .09.2 1 1 0 0 1 0 .42c-.07.41-1 .68-1.23.75 0 0-1.37.79-1.33-.79 0-.57.1-1.3.15-2.07a6.18 6.18 0 0 0 1.43 0 2.8 2.8 0 0 0 1.2-.35 4.09 4.09 0 0 0-.3 1.83zm-3.8-7.83l-.1-.11h.21s.44-.34 2 .31a2.69 2.69 0 0 1 1.33 1.51 4.94 4.94 0 0 1 .25 1.4c-.58-.35-2.14-1.29-3.36-1.88.08-.15.22-.61-.32-1.29zm-6.56-.22h-3.26a2.52 2.52 0 0 0 .51-.65 1.29 1.29 0 0 1 .61-.47 14.58 14.58 0 0 1 1.65-.06h-.2s1.6.25.71 1.17zm-2.09-2.12c-1.09 0-1.88-1.57-2.22-2.09a10.06 10.06 0 0 0 1.56.48 33.26 33.26 0 0 0 9.65-.31 7.67 7.67 0 0 0 3.2-1.18c-.11 1.49-.32 3-1.07 3.78v.11l-.08-.08s-.58.51-3.39.17-6.51-.85-7.65-.88zm7.42 2.94h-.06a35.15 35.15 0 0 0-3.51-.68 3.8 3.8 0 0 0-.2-1.12c1.1.21 2.31.51 2.81.63a1.28 1.28 0 0 1 1.01 1.17zm-4 2.67c.27-.29.37-.22.48-.92a6.19 6.19 0 0 0 0-1.5 20.63 20.63 0 0 1 2.5.51 3.79 3.79 0 0 1 2.46 3.26l-.34-.11a36 36 0 0 0-5.13-1.07c.06-.08.05-.15.07-.17zm6.38-9.78a32.23 32.23 0 0 1-10.21-1.74 52.5 52.5 0 0 0 6.88.05 12.4 12.4 0 0 0 5.88-1.82 25.79 25.79 0 0 1 0 2.66 6.25 6.25 0 0 1-2.51.84zm1.28 10.3a7.52 7.52 0 0 1 .71.4c.25.35.33.75-.2.86a4.57 4.57 0 0 1-1.46-.12 4.75 4.75 0 0 0-.38-1.91c.63.34 1.11.63 1.38.76zm-8.62-59.76c.55 0 2.7 6.52 3.15 7.9-1.41-.08-5-.52-7.77-.79 1.16-2.01 4.1-7.2 4.67-7.12zm-6.07 5.83c-.55-1.84-2.45-6.86-2.85-7.93l2.42.18c.67 0 3.15.32 5.35.57-.78 1.36-3.33 5.8-4 7.09-.7 1.54-.88.09-.88.09zm7.36-7c.67.07 2 .13 2 .13.81 0 3.52.16 4.92.16h1.07c-1 2.26-2 4.82-3 6.49-1.08 1.85-1.36 2.15-1.77 1.69s-2.46-6.6-3.18-8.39zm9.08 1.32c.38.29 4.15 6.86 4.66 7.75-3.47.08-6.56.08-8.81 0 1.56-1.42 3.81-7.99 4.19-7.7zm24.68 4.16a5 5 0 0 1-2 1.29c-1.4.37-2.82.72-3.6.87 1.07-2.54 3.44-8.31 3.44-8.31s3.07 5.12 2.2 6.19zm-1.07-7.38a8.73 8.73 0 0 0 3.63-1.33 6.75 6.75 0 0 1 .17 1.32c.14 2.09.35 3.36.39 5.15a3.31 3.31 0 0 1-.21 1.46c-.28.23-.67.38-1-.08-.37-.68-2.25-4.91-2.94-6.48zm-5.81 8.77c-1.85-1.48-5.18-6.13-5.9-7l1.65-.08a54.5 54.5 0 0 0 7.88-1.15 45.52 45.52 0 0 1-3.59 8.27zm-.88 1.13a76.68 76.68 0 0 1-10.32 1c1.34-1.37 4.4-7.85 4.4-7.85zm-10.94-.08c-.61-.05-1.85-2.35-2.94-4.18-.86-1.45-1.43-2.58-1.89-3.5 2.54-.07 6.37-.14 9-.25-1.68 3.57-3.59 8.01-4.13 7.97zm-4.38 2.44s4.52.22 8.69.07a45.72 45.72 0 0 0 9.13-1.2c1.54-.23 3.56-.83 5.22-1.11.17 0 .42.27.42 1.35v6.43a14 14 0 0 1-1.95 7.42s-.27.17.48.58.55 3.8.55 4.89.68 5-.65 8.21-1.92 3.76-3.39 4.55c0 0-.75.41.17-.72a9.56 9.56 0 0 0 1.81-5.17c.14-2.09.07-3.73-.21-3.66s-.55 4.45-1.33 5.88a10.18 10.18 0 0 1-9.85 5.61c-1-.07-2.29-.1-3-1.71a14.59 14.59 0 0 1-1-3.63s-.38-.86-.1 1.06a9.54 9.54 0 0 0 1.09 3.93 4.27 4.27 0 0 1-3.66-2.29h-.24l.24-.14s-1.06-3.11-1.51-5.2a63 63 0 0 1-1.34-10.75c0-4.07.48-14.36.48-14.36zM222.1 213s3.32.1 4.62 0a29.88 29.88 0 0 1-6.5 1.95c-2.27.22-4.88-.26-5.87-.95-.06-.93-.1-2-.11-2.89.76.67 3.63 1.69 7.86 1.89zm-7.82-4.25a6.54 6.54 0 0 1 .43-2.32c.34-.62 1.09-.58 1.88.38s4.1 1.71 7 1.92a15.13 15.13 0 0 0 5.24-.66 15 15 0 0 1-4.77 1.45 20 20 0 0 1-7.25.27c-1.44-.3-1.97-.37-2.53-1.07zm3.47 6.78a20.33 20.33 0 0 0 7.56-.86 25.74 25.74 0 0 0 4.82-2.29c-.24.84-.53 1.92-.83 2.88a18.63 18.63 0 0 1-11.14.88s-1.92-.44-2.09-.86 1.07.09 1.68.22zm10.74-3.66a55.48 55.48 0 0 1-9.78-.24 8 8 0 0 1-3.06-1.16 33.46 33.46 0 0 0 6.17.44 24 24 0 0 0 7.59-2 9.57 9.57 0 0 0 1.12-.78 9.6 9.6 0 0 1 .09 2.58 2.71 2.71 0 0 1-2.13 1.13zm-4 7.87a5.32 5.32 0 0 1 2.43 0h.1l.76 1c-1.34 0-2.6.07-3.51.13a.86.86 0 0 1-.26-.61s-.01-.48.45-.55zm.89 1.92h.27a17.25 17.25 0 0 1 3.16.11 1.94 1.94 0 0 1 .77.92 12.86 12.86 0 0 0 .86 1.47h-.76c-2.43.07-4.58.17-4.58.17s-1.46-2.33.25-2.71zm4.13-.82a.84.84 0 0 1-.34-.28c-.28-.46-.56-.81-.73-.85a6.25 6.25 0 0 1 2.68.34c1 .51 1.09 1.09 1.09 1.09a18.36 18.36 0 0 0-2.73-.33zm6.16 3.42s.46.61-.59.48a30.76 30.76 0 0 0-3.21-.49l-1.19-2a9 9 0 0 1 4.96 1.97zm-1 1.75l2.26.34a2.21 2.21 0 0 1-.55 1.68 3.67 3.67 0 0 1-1.71 1.3c-.41 0-.48-.34-.65-.68s-1.06-2.84-1.06-2.84zm1.4 6.73l-.34.22-1.88.66c.1-.18.22-.43.37-.77a5.35 5.35 0 0 0 .41-2.07 6.88 6.88 0 0 0 2.63-1.49s.33 2.36-1.26 3.42zm2.8-4.69a5.92 5.92 0 0 0-1.95-4.38 15.73 15.73 0 0 0-3.11-2.09 21.16 21.16 0 0 1-1.51-1.88 4.06 4.06 0 0 0-2-.71h-.29c-.28-.06-.6-.23-.46-.69.23-.72.74-1.07 1.08-2.15a21.06 21.06 0 0 0 1-4.58c.1-1.92.27-3.8.27-3.8a1 1 0 0 1 .41-1.13 6.3 6.3 0 0 0 3.18-2.43c1.51-2 1.81-6.33 1.88-7.63s-.14-10 .21-11.84a38.14 38.14 0 0 0 .79-6.26c.19-3.12-.33-5.32 0-6.52a4.4 4.4 0 0 0 2.69-.83c.31-.34.14-5.3 0-7.11-.06-.75-.19-2.65-.34-4.74a8.72 8.72 0 0 1 1.17 1.21c.66.86 2.15 2.61 2.88 3.49s4.1 1.75 4.66 1.77a.27.27 0 0 0 .17 0c-.06 3.71-.13 8.18-.16 10.09v.16s-.78 40.06-.92 53l-10.86 3.31a6.16 6.16 0 0 0 1.16-4.31zm7.13-82.56a3.23 3.23 0 0 1 2.28.76 3.7 3.7 0 0 0-3 1.06c-.53.56-.05 2-.05 2a2 2 0 0 0-.71 1.09 19.38 19.38 0 0 0-.38 4.35c.05 1.87 0 3.47 1 4.5a6.58 6.58 0 0 0 2 1.44s.23 0-.1-.23a5.12 5.12 0 0 1-2.08-3.9 6.69 6.69 0 0 1 .32-2.64 6.67 6.67 0 0 0 .47 1.24 3.71 3.71 0 0 1 .46 1.52 2.24 2.24 0 0 0 1.42 2.48c1.43.68 1.92.9 2 .95 0 .56 0 2.31-.08 4.47a9.28 9.28 0 0 1-3.78-1.06c-1.14-.86-3-4-3.69-5.31a11.09 11.09 0 0 1-1.21-3.29 14.34 14.34 0 0 1 1.16-5.77c.63-.86 1.39-1.52 1.67-2.08a3.16 3.16 0 0 1 2.3-1.58zm-1.27-4c.73-.28 3.47.51 4.35.56a3 3 0 0 0 1.13-.13c0 1.5 0 3.07-.27 3.26a.77.77 0 0 1-.47.12s-.48-.13-1.14-.34a13.23 13.23 0 0 1-3.09-1.32c-1.24-.85-1.24-1.87-.5-2.14zm5.07 70.94a1.26 1.26 0 0 0 .58.18 3.58 3.58 0 0 0 1 0c-.22 11.21-.39 19.92-.4 20.28 0 1-.31 1.14-.89 1.09s-.56-.79-.56-.79zm1.57-1.15a1.5 1.5 0 0 1-.66.13 2.57 2.57 0 0 1-.9-.27c.17-11.31.51-24.66.69-34.24s0-1.54 0-3.67v-.72c0-4.33.08-10.43.15-11.3 0-.65.28-.9.51-1h.5a.72.72 0 0 1 .54.69l-.05 12h.05c-.12 10.31-.57 25.75-.82 38.38zm2.72-86.74s1.44 4.12 2.23 6.12.2 1.77.2 1.77a6.68 6.68 0 0 0-2.51-1.1zm-.2 16.2l.1-8.1c0 .21.05.36.05.36a4.78 4.78 0 0 1 3.19 1.72 15.86 15.86 0 0 1 2.73 4.86c.48 1.42 2 3.64 2.94 5.77l1.27 3a13.06 13.06 0 0 1 .71 5.79 21.2 21.2 0 0 1-2 5.95c-.91 1.48-2.72 4-4.86 4.35a23.83 23.83 0 0 1-4.61.25s0-3.67-.11-4.48h.13c.94-.23 3.47-.84 3.95-.4s.35.61.15.91.58.18 1.67-.91 1.44-3.06 2.23-5.11a7.34 7.34 0 0 0 .3-5c-.4-1.11-.91-2.4-1.16-3.29a7.06 7.06 0 0 0-1.06-2.53c-.73-1.11-3.64-2.66-5.54-2.78zm-1.82-49.19c.05-.81-.2-3 .81-2.94s.86 1.16.86 1.16l-.4 35.17s-.61 20.42-.86 20.85-1.47.4-1.47.4.99-53.84 1.07-54.65zm.4 55.62a4.38 4.38 0 0 0 2.48-1.32c.48-.63.4-.89 0-1s-.4.18-.81.51-.51.05-.51.05l.16-3c.09-.11.31-.23.85-.15.91.13 3.92 1.52 4.86 3.19s.13 2.38.35 3.19 1.24 2.13 1.06 3.24a4.41 4.41 0 0 1-1.06 2.08c-.25.38.18 1.42-.1 2.08a4.15 4.15 0 0 1-.71 1.11 2.85 2.85 0 0 1-1.77 2.08 22.89 22.89 0 0 1-6.38.35 9.9 9.9 0 0 1-3.14-1c-.68-.28-1.32-1.09-1-1.67s1.6.62 2.94.88a4.75 4.75 0 0 0 1.9.1c.43 0 3.3-.08 4.5 0s1-.59.56-.89a6 6 0 0 0-3.34-.13 21.75 21.75 0 0 1-2.3.3h-.09a15.84 15.84 0 0 1-2.5-.64 3.21 3.21 0 0 1-2.33-2c-.43-1.19.46-1 .71-.86h.06c.24.09 1.15.42 1.43.56a5 5 0 0 0 3.14.91 6.24 6.24 0 0 0 3.14-.58 10.76 10.76 0 0 1 2.66-.1c.62 0 .73-.24.35-.76s-1.54-.47-2.2-.43-1.94.7-2.76.81a4.61 4.61 0 0 1-3-.33 10.47 10.47 0 0 0-1.85-.81.74.74 0 0 0-.3-.05 2.15 2.15 0 0 1-1.37-.78c-.43-.71-.39-1.3 0-1.64a.56.56 0 0 1 .61.08 9.44 9.44 0 0 0 3.31.91c1.8.24 5.69-.77 6.4-.86s1.59 0 1.92-.1.33-.75 0-1-1.46.32-2.61.46a40.13 40.13 0 0 1-6.68.28c-1.45-.11-2-.5-2.2-.78 0-.07 0-.16-.12-.3-.71-.81-.53-1.32.3-1.77s4.34.05 5.46-.23zM221.85 96h-.18l-.22-2.69a46.77 46.77 0 0 0 8.12-4.63 40.81 40.81 0 0 0 6.12-6.23s-.44.86-.92 2-.21 2.22-1.3 4.38-3.9 3.73-5.75 4.75a49.42 49.42 0 0 1-5.87 2.42zm-5.16-1.11c1.16-.34 2.35-.72 3.26-1a3.88 3.88 0 0 1 .09 2.51 2.31 2.31 0 0 1-1 .87 5.57 5.57 0 0 0-2.36-2.37zm-14.69.45c.12.22 1.66 3.14 2.18 4a10.84 10.84 0 0 1-2-.46 6.86 6.86 0 0 1-2.85-1.64 30.77 30.77 0 0 0 2.67-1.9zm-3.14 1v-.08c-.05-.39-.1-1.24-.13-1.62h.13a15 15 0 0 0 1.62.36c-.48.43-1.28 1.05-1.64 1.37zm10.71 15.7a19.85 19.85 0 0 1-4.38-3L209 106a37.06 37.06 0 0 0 5.27 2 34.55 34.55 0 0 1-4.72 4.07zm5.07-2.76c.05 1.44.11 3 .15 4.49a17.08 17.08 0 0 1-4.05-1.19 23.25 23.25 0 0 0 3.88-3.27zm-5.67-4.62l-.09-.05a18.87 18.87 0 0 1-3.32-2.22 10.31 10.31 0 0 1-1.22-1.79c2.15.15 5.9.27 7.43.27.12 0 1.34-.25 2.64-.5-1 .74-2.87 2-3.31 2.32s-1.4 1.31-2.15 2zm.75-8.77a28.86 28.86 0 0 0 4.45-.39 28.27 28.27 0 0 1-2 3.14 32.35 32.35 0 0 0-2.47-2.72zm1.56 3.61a36.31 36.31 0 0 1-5.61 0l2.65-3.49c.68.4 2.47 2.86 2.94 3.52zm-6.12-1.09c-.08-.22-1.25-2.08-1.75-2.88 1.08.15 2.14.28 2.92.31h.61c-.44.76-1.71 2.83-1.8 2.6zm-1.42 3.23a10.54 10.54 0 0 0 4.34 3.8l.28-.22a1.21 1.21 0 0 1-.28.22l-3.94 3.14c-.09-2.5-.48-5.59-.5-6.32-.05-.94.09-.59.09-.59zm.38 9v-.79c.49.4 3.32 2.62 4 3h.08c-1.2.65-3.09 1.46-3.84 1.78a16.77 16.77 0 0 1-.25-4zm1 5.12a32.7 32.7 0 0 0 4.45-2.31 31.63 31.63 0 0 0 4.71 1.5s-3.22 3.63-4.58 4.1zm4.09 4.41c-1.81-.54-3.61-1.46-3.92-2.24a10.11 10.11 0 0 1-.33-1.07c.92.76 3.35 2.68 4.2 3.29zm5.66-4.51a12.36 12.36 0 0 1-.21 3.74 5.41 5.41 0 0 1-4.45 1l-.53-.13c.82-.4 4.22-2.96 5.13-4.62zm-.28-10.94v2.08a39.13 39.13 0 0 1-4.56-1.58l5.2-4.19a16.47 16.47 0 0 0-.69 3.68zm-1.35-5.55c.68-1 2.09-3.73 2.09-3.73a10.17 10.17 0 0 1 2.63 2.26c-.21.07-.4.14-.54.2-.55.21-2.76.87-4.23 1.26zm-4.72-4.45a28 28 0 0 1-18.13-5.58 36 36 0 0 1-8.69-9.24 40.41 40.41 0 0 1-2.43-5 4 4 0 0 1-2.5-1.47c-1.33-1.44-1.95-3.59-1.51-4.79a2.57 2.57 0 0 1 2-1.37 10.53 10.53 0 0 1-.82-3.22 5.3 5.3 0 0 1 .84-3.52 7.81 7.81 0 0 1 1.95-1.2C180 59.1 190.31 57.29 191 57a19.39 19.39 0 0 1 3.66-1 8.23 8.23 0 0 0 4.89.55 16.28 16.28 0 0 1 .68-4.1c.51-1 1-3.87 1.85-4.89a8.8 8.8 0 0 0 .72 2.77 21 21 0 0 1 1.44 5.44 9.4 9.4 0 0 1 0 2.19c-.1.41.65.68 1.81-.24S213 56 214.56 56a15.18 15.18 0 0 1 6.26.72c2.63 1 7.59.48 8.35.24a7.72 7.72 0 0 0 2.53 2.5 6 6 0 0 1 2.57 2.94c.34.72.44 3.11 2.22 4.31a5.81 5.81 0 0 0 1 .62c.31.1.65-.24 1.06-.55a3 3 0 0 1 2.53-.24 3 3 0 0 1 2.22 3c.1 1.78-.27 4-2 5a10.41 10.41 0 0 1-2.57 1.16 19.19 19.19 0 0 1-.68 2.15.36.36 0 0 0 0 .19c-.61 1.22-1.26 1.74-2.93 4a41.46 41.46 0 0 1-8.11 7.29c-3.28 2.23-9.24 5.24-18.54 5.38zm-30.7-37.46a1.2 1.2 0 0 0 .27.33c.19.35.45.78.69.83 0 0-1.51 1.23-2 1.74a.43.43 0 0 0-.13.23c-1.4 1.2-1.37 4.26-1.37 4.94s-.24.65-.24.65a8.37 8.37 0 0 1-1-2.6 28.82 28.82 0 0 1-.17-7.22 17.65 17.65 0 0 1 2.39-6.26c.57-.86 1.11-1.59 1.53-2.13a24.53 24.53 0 0 0-.88 4.66 8.35 8.35 0 0 0 .91 4.83zM237.7 61a17.61 17.61 0 0 1 3.93.82 6 6 0 0 1 3.31 5.05 8.52 8.52 0 0 1-.46 2.1c-.27.44.1-1.78-1.51-3 0 0-.65-.65-2.63-.44s-2.74.92-3.52-.24-.75-2.53-1.37-3.22a23 23 0 0 1-2.12-2.68 6.2 6.2 0 0 0 1.23.56 2.09 2.09 0 0 1 1.31.72 8 8 0 0 0 2.36 2.33 7.2 7.2 0 0 0 3.77.95 13.2 13.2 0 0 1-4.3-2.95zm1.3 29.54a5.41 5.41 0 0 1-1.92 1.92 25.77 25.77 0 0 1-5.23 2.19 9.46 9.46 0 0 1-3.56.51 12.09 12.09 0 0 0 2.94-1.92A12.9 12.9 0 0 0 235 88c.68-1.44 1.88-6 2.33-6.91s1.54-2.84 1.54-2.84a8.37 8.37 0 0 1 1.64-2.09 4.11 4.11 0 0 0 1.13-1.23s-.24 1.12-.32 1.66h-.06s-.21.82-.41 1.88-1.09 2.12-1.4 3.32a14 14 0 0 0 .17 5.13 4.73 4.73 0 0 1-.62 3.62zm3.91-3.46a4 4 0 0 1-.73 1.9c-.49.62-1.18 1.36-1.18 1.36a3 3 0 0 0 0-1.34c.14-1.92-.68-3.91-.74-5.65a5.87 5.87 0 0 1 1-3.39s.17.34 1 2.8.8 3.24.63 4.31zm-.59-8a8.91 8.91 0 0 1 .2-2.73h.07a14.27 14.27 0 0 1 1.33-3.11 15.7 15.7 0 0 0 1.54-3.65c.33 2.22-.44 7.35-.44 7.35a18 18 0 0 0 1.26-3.34 21.52 21.52 0 0 0 .23-5.62 23.37 23.37 0 0 0-1-4.1 3.25 3.25 0 0 1-.18-2.15c.05-.56.74-4-.1-6.85 0 0 1.1.69 2.31 3.31s2.05 3.41 2.92 8.23.33 8.06.05 8.7a10.46 10.46 0 0 1-2.85 4.1 18.39 18.39 0 0 0-3.66 4.2c-.4-1.13-1.49-3.56-1.7-4.42zm9.15-12.37c-.67-3.67-2.31-8.16-3.54-10l-.47-.69c1.75 1.68 4.67 5 5.37 8.12.92 4.05-.15 6-.36 7.26a12.12 12.12 0 0 1-.74 2.4 26.46 26.46 0 0 0-.28-7.12zm-23.94-35c1.08.21 2.39.54 2.39.54s3.31.82 8.7 4.75 10.16 10.21 10.62 10.57 3.69 6.26 4.18 7.11 1.31 2.49 1.69 3.05a11.49 11.49 0 0 1 1.44 5.11 35.08 35.08 0 0 1-.18 7.88 19.2 19.2 0 0 1-2.28 6.75 44.29 44.29 0 0 1-4.41 5.75 38.91 38.91 0 0 1-5.16 4.39 16.86 16.86 0 0 1 2.74-6.49c2.21-3.05 4.31-4.18 5.41-6.72h-.07a24.14 24.14 0 0 0 1.74-6.6c0-1-.62-5.39-1.8-7.08s-2.36-3.62-4-4.54a15.74 15.74 0 0 1-3.41-3.41c-.33-.49-.58-.88-.69-1.08a60.64 60.64 0 0 1-3-7.13c-.85-2.62-4.34-5.85-5.13-6.67a50.57 50.57 0 0 0-5.28-4 37.66 37.66 0 0 0-3.93-2s-.66-.38.41-.18zm-4.2-1.58a13 13 0 0 1 3 1.78s1.67 1.09 2.75 1.78 2.9 1.74 3.69 2.39a48.77 48.77 0 0 1 4.41 4.36 35.61 35.61 0 0 1 4 6.29 39.47 39.47 0 0 1 2.54 8.06 58.08 58.08 0 0 1 .54 6.46 1.51 1.51 0 0 1-.36 1.26c-.23.15-1.36-.82-2.13-1.39a21.72 21.72 0 0 0-6-2.18c-1.51-.18-3.28-.49-4.13-2.08s-.49-3.59-.33-4.69a44.16 44.16 0 0 0 .72-7 12.73 12.73 0 0 0-2.8-7c-.77-.8-1.89-2-2-2.11s-5.37-4.38-7.39-5.85c.02-.05.23-1.21 3.48-.08zm-13.17-.79a6.48 6.48 0 0 1 3.39-.65 4.36 4.36 0 0 1 4.38 2.74 22.57 22.57 0 0 1 1.88 11.32s1.06-.58.55-6.7a28.84 28.84 0 0 0-.86-4.14c-.34-.65-.24-1.2.82-.51a57.07 57.07 0 0 1 6.23 5.13 26.81 26.81 0 0 1 3.55 5.29c1 2.36.77 6.64.64 7.64s-.28 4.66-1.49 5.91c-.31-.07-.34.48-1.71.68a24.16 24.16 0 0 1-4.72 0 13.73 13.73 0 0 1-2.94-.62 7 7 0 0 0-1.71-.44c-.44 0 1.37-.38 1.61-2.53s-.68-4.72-.62-5.13-.44.38-.41 1.95-.58 3.83-1.95 4.79-5 1.23-6.09 1.23a17.3 17.3 0 0 0-4 1.09c-.34.14-1.2.55-1.33-.72s-1.16-4.62-1.47-5.78a28.88 28.88 0 0 1-.75-5.75 23.1 23.1 0 0 1 .68-4 42.79 42.79 0 0 1 2-5 22.63 22.63 0 0 1 4.31-5.8zm-9.85.55a14.61 14.61 0 0 1 6.84-.44 16.7 16.7 0 0 0-3.83 3.08c-1.3 1.61-4.58 5.3-5 8.28s-.14 2.57-.14 2.57a22.85 22.85 0 0 1 1.47-4.38c.65-1 4-6.05 5.78-7.15s1.44-.1 1.44-.1l-.12.15a22 22 0 0 0-3 5.78 19.13 19.13 0 0 1-.65 2.36s-.82 4.14-1 5.13-1.37 2.29-1.78 3.69-1.3 3.63-1.3 4.82.07 1.95-.48 2.19a3.33 3.33 0 0 1-2.91-.38c-.65-.68 0-3.15.62-4.1a15.78 15.78 0 0 1-2.15 2.8c-1 .89-2.87 1.06-4 1.33a39.13 39.13 0 0 0-4.1 1.36c-.68.31-1.95 1.16-2.57 0s-.75-4.31-.75-4.31a19.62 19.62 0 0 1 .68-6c.89-3.35 5.85-9.2 8.52-11.8a22.77 22.77 0 0 1 8.42-4.88zm-12.48 6a44.26 44.26 0 0 1 6.12-3.74h.05a12.16 12.16 0 0 0-3.32 2.57 38.14 38.14 0 0 0-6.26 7.49c-1.44 2.5-3.11 4.24-2.7 11.63a17.92 17.92 0 0 1 .51 2.74 2 2 0 0 1-1.16 1.81c-.62.17-1.44-.31-2.05-1.37a1.14 1.14 0 0 0-.3-.36 11.73 11.73 0 0 1-.62-5.66c.38-3.56 3.42-8.24 4.28-9.61a28.85 28.85 0 0 1 5.43-5.55zm-20.45 27a29.88 29.88 0 0 1 3-11 30.27 30.27 0 0 1 8.79-11 10.45 10.45 0 0 1 4-2.29 58 58 0 0 0-4.31 6 .82.82 0 0 1 .05-.24s-3.69 4.21-4.45 6.19-1.92 5-1.92 6.19a3 3 0 0 1-.62 1.23c-.48.55-1.88 1.71-2.63 2.7a20.35 20.35 0 0 0-1.47 3c-.19.19-.5.33-.46-.87zm5.4 20.9a30.59 30.59 0 0 1-5-9.06 12.77 12.77 0 0 1-.17-8.93c.44-1.78 3.35-5.81 4.65-6.77a27.81 27.81 0 0 0 .24 4.75 14.87 14.87 0 0 0 1.39 3.74c-.32.26-1.22 1.2-1.7 3.68a23.21 23.21 0 0 0 .41 10.33 23.67 23.67 0 0 0 1.4 3.67zm12.45 11.22c-1.09-.31-1.74-1.37-3-2.91s-1.57-3-2.43-4.1-.79.31-.79.31a8.22 8.22 0 0 0 1 2c.55.65 2.94 3.42 2.94 3.42a2.24 2.24 0 0 1-1.4-.55 21.89 21.89 0 0 1-4.62-4.41 35.38 35.38 0 0 1-3.15-6.84c-1.71-4.69-1.27-7.46-1.27-7.46s.86 6.53 4.07 9.3c0 0-2.74-5-3.15-9.44s.34-5.85.34-5.85.13-.27.35-.23c0 .21 0 .47.06.81a10.58 10.58 0 0 0 1 4.48 26.28 26.28 0 0 1 1.74 3.72v.11a30.63 30.63 0 0 0 1.92 5.92A38.07 38.07 0 0 0 183.3 90c1.4 1.61 3.45 3.22 4.75 4.58a7.82 7.82 0 0 1 .63.75 9.36 9.36 0 0 1-3.47-.41zM191 96a59.81 59.81 0 0 1-6.09-5.44c-2.09-2.12-5.06-8-5.3-8.55s-2.28-5.73-2.39-6v-.11c-.41-1.13.41-.41.41-.41s.75 1 2.8 4.21a63.31 63.31 0 0 0 7.57 9.16c1.83 1.92 5.62 3.73 8.19 4.82 1 .75 1 1.27 1.25 2.47s.14 1.13-1.64 1.23A10.26 10.26 0 0 1 191 96zm-20.9 59.22c-2.05-.62-1.64-1.33-2.41-3a3.85 3.85 0 0 0-2.15-2.05s.56-.05 2.62-.46a6.73 6.73 0 0 0 3.28-1.69c-.56.15-6.52 1.64-7.54 1s-1.18-1.9-1.54-2.67a22.87 22.87 0 0 1-1.59-2.67c-.41-1.13.05-1.49.87-1.9s4.21-.72 6.77-1.13a42.08 42.08 0 0 0 8.36-2.72 32.62 32.62 0 0 0 5.49-3.85s.82-.14.65 1.06a5.18 5.18 0 0 1-1.81 3.76c-1.64 1.64-1.78 1.71-1.85 2s.44.17.89 0 2.36-1.44 2.36-1.44.27-.44.62 0 1.06 1.54 1.06 1.54-.25 5.15-.3 7.83a16.85 16.85 0 0 1-2.59 2.31c-2.72 2.09-9.18 4.71-11.24 4.09zm5.8 1.78c.72-.14 1.13-.1 1.3.62s-.38.72-.38.72c-.79-.44-1.74.17-1.88-.34s.19-.85.91-1zm-1.9 1.89a3.23 3.23 0 0 1 3 .86 2.92 2.92 0 0 0 .44 1.23 2.78 2.78 0 0 1 .65 1.27c0 .27-.14 0-.14 0a2.49 2.49 0 0 1-1.47-.17c-.68-.34-1.16-1.4-2.15-1.57s-1.37-.1-1.57-.79.56-.83 1.24-.83zm8.76 7.32A14 14 0 0 1 176 166c-1.95-.51-3.73-1.47-4.14-2.77s.27-1.71.79-1.92 2.15.41 3.15 1.37 2.84.65 3.73.41a2.08 2.08 0 0 0 1.51-1.2 2.69 2.69 0 0 1-1.95-1.16 4.49 4.49 0 0 1-.92-3.39 5.56 5.56 0 0 1 .34-1.71 1.33 1.33 0 0 1-.48-.91 41.54 41.54 0 0 0 5.82-3.13c.12 3.76.44 11 .47 13.27a2.51 2.51 0 0 1-1.59 1.35zm1.54-27.81l-.72-.86s.44 0 .51-2.09-.55-3-1-3.18a1.23 1.23 0 0 0-.8 0l-.09-.56a16.3 16.3 0 0 0 1.69-1.49 8.8 8.8 0 0 0 .8-1.08zm1.06 15.7c.1-2.26-.38-8.52-.27-11s1.47-15.84 1.27-18.09c0-1.85 1-7.08 1-7.54s.36-2-.1-2.05-2.26 5.49-2 7.23.51 3.85-.46 3.54-1.33-4.16-1.33-4.87a15.34 15.34 0 0 0-.56-3.49 13.52 13.52 0 0 0-.05 5.64 10 10 0 0 0 1.18 3.64 12.81 12.81 0 0 1-.72 1.69c-.31.51-1.59 1.59-2.31 1.54a23.3 23.3 0 0 1-5.54-1.8 15.12 15.12 0 0 0-5.13-1.49c-1.69-.21-.92.46-.67.77a16.84 16.84 0 0 0 4.1 1.54 27.08 27.08 0 0 1 5.7 2.1A1.81 1.81 0 0 1 180 134a26.16 26.16 0 0 1-4.62 2.72 34.8 34.8 0 0 1-9.49 3 7.38 7.38 0 0 1-3.08-.15s-2.62-9-3-10.77-1.49-6 .31-9.7a8.21 8.21 0 0 1 5-4.67c.92-.46 14.1-6.68 15.29-7.29 3.08-1.56 4-3.49 6.16-5.13s5.13-1.9 6.05-2.15 3.79-1.52 4.25-1.72c.62.29 1.63.74 2.44 1.08.26.13 1.07.44 1.86.72a3.89 3.89 0 0 1 .82.89 5 5 0 0 1 .68 2.39c0 1.4.58 8.72.58 10.43a21.78 21.78 0 0 0 1.16 5.27c.24.75 4 2.33 6.91 2.6a4.56 4.56 0 0 0 4.34-1.74c.14-.24-.48-15.29 0-16.35s1-3 1.68-3.48a9.13 9.13 0 0 1 4-2.17 12.19 12.19 0 0 1 6.63.3l.56.13a18.33 18.33 0 0 1 6.83 3.29 36.25 36.25 0 0 1 7.64 7.6 54.09 54.09 0 0 1 3.29 5.11c.71.91 3.62 4.12 4 4.61.08.1.14.09.17 0l-.38 20.28s0 .56.07 1.34a1.76 1.76 0 0 1-1 .53c-.86.13-2.73-.81-4.15-.56s-1.54 1-1.57 1.62a2.07 2.07 0 0 0 1 1.77s.28.23-.4.61a6.3 6.3 0 0 0-1.87 2.78c-.33.94-.56 2.56-1.16 3s-.67 0-.86-.59c-.21-2.87-.56-7.15-.76-8.09a17.84 17.84 0 0 1-.09-2.94 15.53 15.53 0 0 1 1.5-2.3c.84-1.19 3.69-2.08 5.21-2.53s1.16-.86 1.16-.86.1-.58-3 .35-3.75 2.81-3.75 2.28a14.79 14.79 0 0 1 1-2.58c.46-1.29 1.42-1.67 2.08-2.38s.76-1 .56-1.52-.89.08-2.08 1.16a8.93 8.93 0 0 0-2.58 4.15c-.2 1.21-.58 2.38-.66 1.82s-.4-5.54-.4-6.58.76-2 1-2.83.66-4.93.2-4.81-.51 1.06-.46 1.92-.43 3-1.16 2.53-2.18-7.74-2.38-8.65-.08-2.35-.4-1.72.43 6.38.66 7.59 1.24 5.34 1.32 6.63.35 4.2.35 4.2c0 1.8.13 4.07.18 4.78.1 1.51 1.4 9.53 1.37 12.88 0 2.36.17 4.86.15 6.93a7.75 7.75 0 0 1-2.61 1.52 21.64 21.64 0 0 1-3.08.87 91.29 91.29 0 0 1-9.91 1.29c-2.58.17-8.68.44-10 .44-1.69 0-9.57-.28-9.57-.28s-5-.48-6-.58-6.58-.32-7.61-.37c-1.61-.08-4.22-.22-4.67-1.37s-.49-4.19-.38-6.45zm.14 10.3c0-.62.1-1.4 1.51-1.61a19.12 19.12 0 0 1 3 0c-.63 1.13-3.57 5-4.21 5.71-.16-1.65-.34-3.73-.34-4.1zm1.57 7.49c-1.06.07-.75-.65-.92-1.09v-.11c1.87-3 4.31-6.81 5.15-6.79s2.81 7 3.19 8.15h-.37c-1.81-.13-6.02-.23-7.12-.16zm4.93 28s-.75-1.06 0 2 1.81 3.66 1.81 3.66a5.7 5.7 0 0 1-2.6-2c-1.16-1.57-1.3-5.06-1.47-6.29a52.63 52.63 0 0 1-.1-8.35 2.45 2.45 0 0 1 1-1.4c.24-.27-.24-.38-.58-1a21.31 21.31 0 0 1-1.13-4c-.19-.9-.27-4.69-.27-4.79s.07-3.53.12-4.68c1 0 7.33.54 10.89.92s5 .16 8.21.38c.75.05 1.71.22 2.64.28a5 5 0 0 1 1 3c.21 2.22 0 12.18 0 13.72s.14 8.31-1.09 11.56-2.7 3.9-4.21 4.28a2.29 2.29 0 0 0 .51-1.78s-.07-1-.58.17a2.92 2.92 0 0 1-2.43 1.78c-1 .14-5.13.38-7.94-2.43a11.19 11.19 0 0 1-3.78-4.98zm19.29 8.79a5.67 5.67 0 0 1-3.33 1.25c-5.83 0-9-1.06-10.16-1.57a16.48 16.48 0 0 0 5.46.32c2.12-.48 5.1-1.3 6.64-2.43s1.29 2.41 1.35 2.48zm-16 2.13a23.75 23.75 0 0 1-.14-2.92v-.15c2.76 2.13 4 2.09 7.18 2.75a27 27 0 0 0 7.49.1c-2 1.23-8.67 1.39-11.44 1.13a6 6 0 0 1-3.17-.86zm.23 1.58c3 2.87 10.27 2.88 11.81 3s2.72-.26 1.95.1a48.53 48.53 0 0 1-5.64 1c-5.22.23-6.92-.88-7.43-1.44a18 18 0 0 1-.77-2.61zm-1.81 8.29c.44-.44.86-.62 2.39-1 .94-.21 1.19-.14 1.24 0-.2.08-.29.23-.76.77a4.07 4.07 0 0 1-2 .75h-.82s-.57-.02-.12-.46zm-3.69 3.54c.18-.26 1.15-1.38 4.89-2.1.51 0-1.16 2.05-1.16 2.05l1.71-.14a5.12 5.12 0 0 1 1-2c.72-.75 2.53-.51 3.18-.55a6.13 6.13 0 0 1 .65 0 1.13 1.13 0 0 1 .92 1.07 2 2 0 0 1-.66 1.61c-.67-.06-1.34-.11-2-.13a35.77 35.77 0 0 0-7.8.55c-.8.21-.84-.12-.81-.31zm-1.27 2.11c.56-.11 1.67-.19 2.12-.24.27 0 1-.12 1.92-.21-.21.53-.64 2.19-.76 2.5s-.42 1.23-1.13.89c-2.56-1.15-2.22-2.89-2.22-2.89zm2.12 7.08c-1.27-.55-2.33-1.16-2.5-4.17v-.11a6.88 6.88 0 0 0 2.75 1.63c-.08 2.5 1 3.06 1 3.06h.06a12.09 12.09 0 0 1-1.38-.36zm7.29.68a1.34 1.34 0 0 1-.85.49c-.77 0-1.36.07-1.4.09a7.43 7.43 0 0 1-1.29-.22 6.79 6.79 0 0 1-1.28-1 3.3 3.3 0 0 1-.59-2.23h.18a32.92 32.92 0 0 0 5.32.57 3.37 3.37 0 0 1-.16 2.35zm.72-3.83c-.68.44-5 .38-5.47 0a2.11 2.11 0 0 1-.14-2.46 8.75 8.75 0 0 1 1.25-2c.82-.06 1.69-.09 2.51-.09s1.82.07 2.89.17c.18.12.3.35.18.82-.34 1.08-.61 3.17-1.3 3.61zm8.12 2.14c-.27.86-.65 1.74-1.4 1.95a6.42 6.42 0 0 1-1.21.15h-3.11a1.68 1.68 0 0 1-1.22-.86 1.17 1.17 0 0 1 .67-1.74h.91c.62 0 3.12 0 5.37-.14.13.05.16.24-.01.64zm.21-1.85a32.26 32.26 0 0 1-5.75 0c-.79-.21-.79-.65-.72-1.3a30.83 30.83 0 0 1 1.1-3.21c1.71.2 3.23.42 3.73.51s1 .26 1.76.45a1 1 0 0 1 .6.92c.07.75.14 2.5-.68 2.63zm4.1 2.46c-.09.11-.12.2-.1.26a4.13 4.13 0 0 1-2.32.93c-.51 0-1 0-1-.21a4.54 4.54 0 0 1 .89-2.12c.34-.21 1.74-.17 2.26-.38a7.56 7.56 0 0 0 .7-.3 1.93 1.93 0 0 1-.38 1.81zm1.57-8.52a11.1 11.1 0 0 1-.75-3.28c-.31-2.43.21-11.36 0-12.76a8.12 8.12 0 0 0-.1-3.11 4.51 4.51 0 0 1 0-3.22 11.55 11.55 0 0 0 .72-3.56 21.78 21.78 0 0 1 .89 3.9 15.63 15.63 0 0 1-.17 3.32c-.07.62 0 13.31.07 14a14.56 14.56 0 0 1-.41 3.35 4.83 4.83 0 0 0-.2 1.37zm1 2.39c.58.1.31.44 1.23.55a4.23 4.23 0 0 0 1.3 0c0 .94.09 2 .17 2.66-.84.88-2.33-.32-2.33-.32a2.83 2.83 0 0 1-.91-1.52s-.03-1.46.55-1.36zm1.4 7.11c-.82-.86-1.27-1-1.61-2.53v-.17a25.81 25.81 0 0 0 3.3.6 8.67 8.67 0 0 0 .82 2.23s-1.68.74-2.5-.12zm2.84-3.63h-.08c-.17-.38-.29-.56-.37-.73a8.21 8.21 0 0 1-.12-1.82s0-.75.41-.86 5.68-.79 5.68-.79l-.06-.2a13.36 13.36 0 0 1 1.38 3.31.34.34 0 0 0 0 .07 3.42 3.42 0 0 0 .11.4.7.7 0 0 1-.38.77c-.44.31-3 .27-4.82.21s-1.74-.34-1.74-.34zm6.64 4a29.94 29.94 0 0 1-4.65-.12l-.35-.11a4.85 4.85 0 0 1-1.23-2.43c.48-.1 5.1 0 6.33.1s.75 1.47.75 1.47a1 1 0 0 1-.84 1.15zm1.47-5.4s-.48-2.15-.65-2.5-.17-.72.68-.79 4.38-.38 5 .07.82 1.33 1.06 1.57a3.89 3.89 0 0 1 .48 2.12c-.07.72-.79.92-1.3 1a20.19 20.19 0 0 1-4.52-.14c-.61-.15-.74-1.29-.74-1.29zm5.9 18.82a.43.43 0 0 1-.51.1c-1.25-1.23-4.59-4.53-5.31-5.42a5.12 5.12 0 0 1-1.45-3.08 4.14 4.14 0 0 1 0-.62l7.39 7.74a2.79 2.79 0 0 1-.11 1.33zm-4.88-7.45c-.53-.61-1.5-1.42-1.63-2.11a1.34 1.34 0 0 1 .38-1.14c.57-.29 2-.84 3-1.2 1.29-.53 3.1-.89 5.29-1.58l14.28-4.45v1.35c-1.09.39-6.94 2.22-7.43 2.5l-1.32.56s-9.28 2.62-10.09 2.95-1.58 1.07-1.3 1.73 4.12 4.17 4.65 4.63a2.94 2.94 0 0 0 2.31.31c.81-.15 10.76-3.46 11.16-3.74.64-.2 15-4.5 16-5 .66-.21 8.52-2.73 9.59-3.24s1-.89.86-1.35a22.49 22.49 0 0 0-3.59-3.46c-.94-.71-1.55-1.07-2.26-.92s-9.66 2.44-9.66 2.44c-.64 0-4.6 1.17-5.15 1.33v-1.24c2-.55 13.36-3.59 14-3.68a5.19 5.19 0 0 1 2 0c.43.15 7.63 5 8.19 6.61l.07.22a2.4 2.4 0 0 1-1.29.94c-.89.33-38.52 12.51-39.44 12.89a5.06 5.06 0 0 1-3.18.08c-.55-.24-4.9-4.76-5.43-5.38zm48.06-5.09c-1.35.92-39.79 13-41.22 13.27a3.07 3.07 0 0 1-1.13 0 1.22 1.22 0 0 1-.09-1.26c.23-.46 1.07-.43 1.93-.61s39.44-12.59 40.1-12.84a13.73 13.73 0 0 0 1.88-.79 2.89 2.89 0 0 1-1.46 2.28z" fill="#692f23"/><path d="M214.42 28.64l-.37-.07a14.88 14.88 0 0 0-3.76.07zM108.69 117.6a1.33 1.33 0 0 1-.08-1.64 4.57 4.57 0 0 1 1.3-1.19 3 3 0 0 0 1.17-1.31v1.84a1.39 1.39 0 0 1-.06.51c-.15.4-.6.56-1 .74a4.59 4.59 0 0 0-1.47 1.07M72.1 138.44c-.11-.43-.26-.88-.85-1V133c0-.67-.35-.81-.48-.81l-19.18.11c-1.12 0-1.82-.1-2 1.06a2.41 2.41 0 0 0 .47 2.06c.21.25.87.27 1.51.26V137.63a1.5 1.5 0 0 0-.67.59 5.56 5.56 0 0 0-.06 1.72 1 1 0 0 0 .44.63 1.94 1.94 0 0 0 .65.28h1.31l.18-.3-1.13-.11c-.16 0-.51.05-.61-.59a5.86 5.86 0 0 1 .06-1.56s.05-.15.63-.14 17.82-.3 18.22 0 .43.15.42.77-.06 1.76-.06 1.76l1.19-.06a14.87 14.87 0 0 0-.04-2.18zm-21.6-4.59a.7.7 0 0 1 .61-.73h19v1.47H53.57s-1.67.05-2.21 0-.86-.23-.86-.74zm2 3.6v-1.83h.06l17.72-.16v1.92z" fill="#692f23"/><path d="M21.8 141.55h138l1.05-.89-141.31-.16-1.29.08a.78.78 0 0 0-.48.77v2.28a.6.6 0 0 0 .67.69c.77 0 2.65-.1 2.89.18a2.7 2.7 0 0 1 .53 1.9c0 1.17.12 75.39.12 75.39s0 1.39 2.22 1.62 2.36-1.21 2.34-2 .36-19.94.44-20.73-.06-1.82 1.21-1.82 157.3.12 157.68.16 1-.12 1.09 1.33.18 17.31.16 18.58a9.52 9.52 0 0 0 .65 3.72 2.19 2.19 0 0 0 1.33.85 6.47 6.47 0 0 0 2.38-.77 18.61 18.61 0 0 0 1-1.82l-.12-15-1.21-.61s.12 15.41-.08 15.8-.81 1.15-1.33 1-1.17-.3-1.25-2.46-.4-20-.4-20a2 2 0 0 0-2.1-1.74c-2-.06-157.78.1-157.88 0a2.29 2.29 0 0 0-2.06 1.41c-.51 1.25-.53 21.69-.53 21.69s.1 1-1.13 1.13-1.19-.59-1.25-1.7-.24-75.55-.24-75.55-.18-1.33-1.05-1.45a22.69 22.69 0 0 0-2.5-.1s-.51 0-.51-1.05c.03-.78.4-.83 2.96-.73z" fill="#692f23"/><path d="M82.93 140.25a2.43 2.43 0 0 1-1.37-1.66c-.55-1.47-.46-27.8-.28-28.93s.53-2.73 2.5-2.91 49.81-.38 50.78-.16 1.37.2 1.37 2.59.2 28.46.16 28.89-.32 2.55-3.51 2.63a18.58 18.58 0 0 0 3.15.44 2.6 2.6 0 0 0 1-.44s.61-.44.65-1.94 0-30.1 0-30.1-.14-3.25-2.46-3.27-51.79.16-51.79.16-3.07.18-3.39 2.95.2 30.06.2 30.06 0 1.76 1.33 2.14a8 8 0 0 0 3.35-.12s-1.41 0-1.69-.33z" fill="#692f23"/><path d="M68.63 132.46s-3.09-30.36-2.83-34 .91-5.7 4.12-7.15 8.56-2.06 18.08-2.24 31.19-1 34.42 0 5 5.21 5.21 7.6 0 9 0 9h1.41v-.81l.2-1.25s0-7.07-.4-8.61-2.12-6.61-6.59-7.47-43.19.34-47.39.93-8.24 2.16-9.66 5-.83 8.93-.61 11.84 2.5 27.15 2.5 27.15 1.6.43 1.54.01zM47.46 124.9a.51.51 0 0 0-.32-.37c-.4-.22-2.3.59-5.53.48a45 45 0 0 1-5.13-.4c-1.68-.28-1.58.32-1.58.32s.63 12.22.89 14 1.09 1.64 1.25 1.78 7.68 0 8.32-.08.85-.57 1.05-1.58 1.25-13.46 1.05-14.15zm-1.94 13c-.22 1.35-.42 1.72-1.33 2.1a16.27 16.27 0 0 1-5.78 0c-1.15-.3-1.41-.85-1.41-.85s-.72-12.23-.8-13.44a27.64 27.64 0 0 0 4.32.23c2.14-.1 5.45-.24 5.7-.24-.02.05-.48 10.86-.7 12.21z" fill="#692f23"/><path d="M222.46 29V5.56s.17-1.41-1.81-1.45-138.9 0-138.9 0-1.17 0-1.21 1.7 0 82.34 0 82.34h-1.13V6s-.32-2.67 1.86-2.75 139.62 0 139.62 0 2.1-.08 2.26 1.7.27 24.86.27 24.86z" fill="#692f23"/><path d="M226.47 30.69V1.92a1.66 1.66 0 0 0-1.62-1.86C223.08 0 81.27.06 81.27.06a4.48 4.48 0 0 0-3.39.81c-1.7 1.21-1.33 5-1.29 5.17s0 82.5 0 82.5H78L77.8 6s-.44-4.65 3.31-4.93 142.69 0 142.69 0 1.48 0 1.54 2.59c0 2.18-.08 26.74-.08 26.74zM22.49 144.58l138.23.24-.95-1.05-137.89-.4.61 1.21z" fill="#692f23"/><path fill="#692f23" d="M27.05 198.24l-.08-53.86h-.94l-.19 56.39 1.21-2.53zM111.38 121.56a2.78 2.78 0 0 0 1.55 2.34 5 5 0 0 1-2.71 2.79c-.6.25-1.21-.34-1.9-.34s-1.26.61-1.81.4a5 5 0 0 1-3.21-4.66 3.8 3.8 0 0 1 1.35-3.24c1.31-1.19 2.37-.19 3.65-.19s2.17-1.17 3.63.21a5 5 0 0 1 .56.62 2.37 2.37 0 0 0-1.11 2.07zM150.06 4l-.03 136.98 1.24-.08V3.93l-1.21.07zM157.14 72.74c-.48.06-.61.27-.84.91a6.23 6.23 0 0 0-.14 1.72v3c0 3 0 4.64.06 8 0 .48 0 1.07.49 1.25a.82.82 0 0 0 .93-.37 2 2 0 0 0 .29-1c.15-4.46.13-7.87-.09-12.27 0-.48-.19-1.09-.67-1a.73.73 0 0 0-.75.52M143.89 72.74c-.48.06-.61.27-.84.91a6.23 6.23 0 0 0-.14 1.72v3c0 3 0 4.64.06 8 0 .48 0 1.07.49 1.25a.82.82 0 0 0 .93-.37 2 2 0 0 0 .29-1c.15-4.46.13-7.87-.09-12.27 0-.48-.19-1.09-.67-1a.73.73 0 0 0-.75.52"/><path fill="#efb000" d="M24.67 9.51h30.9v30.9h-30.9z"/><path fill="#fff" d="M29.45 14.64h21.33v20.99H29.45z"/><path fill="#efb000" d="M24.67 57.48h30.9v30.9h-30.9z"/><path fill="#fff" d="M29.45 62.61h21.33V83.6H29.45z"/><path d="M55.9 39.48l-.1-29.17a1.4 1.4 0 0 0-.36-.86c-.23-.3-1.09-.33-1.09-.33l-28.58.13a1.7 1.7 0 0 0-1 .27c-.46.23-.46 1.16-.46 1.16v28.9s0 .83.2 1.06a1.47 1.47 0 0 0 .83.23l29.51-.13a1.69 1.69 0 0 0 .78-.32c.24-.16.27-.94.27-.94zm-.82.47a1.15 1.15 0 0 1-.73.25l-28.23.13a1.41 1.41 0 0 1-.79-.22c-.22-.22-.19-1-.19-1V11.43s0-.89.44-1.11a1.62 1.62 0 0 1 .92-.25l27.35-.13s.82 0 1 .32a1.34 1.34 0 0 1 .35.82c0 .29.1 27.92.1 27.92s.16.66-.22.95z" fill="#692f23"/><path d="M51.18 35l-.07-20a1 1 0 0 0-.26-.59c-.16-.2-.77-.23-.77-.23l-20 .09a1.21 1.21 0 0 0-.67.18c-.33.16-.33.79-.33.79V35.1s0 .57.14.73a1.05 1.05 0 0 0 .58.16l20.68-.09a1.21 1.21 0 0 0 .54-.22c.14-.11.16-.68.16-.68zm-.58.32a.82.82 0 0 1-.51.17l-19.79.09a1 1 0 0 1-.56-.15c-.16-.15-.13-.69-.13-.69V15.85s0-.61.31-.76a1.16 1.16 0 0 1 .64-.17l19.17-.09s.58 0 .73.22a.9.9 0 0 1 .24.56l.07 19.1s.1.45-.16.64z" fill="#692f23"/><path d="M54.16 11.09s-28-.11-28.13 0 0 28 0 28h28.3zm-28 27.8s-.11-27.51 0-27.6 27.71 0 27.71 0L54 38.87zM55.9 87.33l-.1-29.17a1.4 1.4 0 0 0-.36-.86c-.24-.3-1.1-.3-1.1-.3l-28.58.13a1.7 1.7 0 0 0-1 .27c-.46.23-.46 1.16-.46 1.16v28.87s0 .83.2 1.06a1.47 1.47 0 0 0 .83.23l29.51-.13a1.69 1.69 0 0 0 .78-.32c.25-.15.28-.94.28-.94zm-.82.47a1.15 1.15 0 0 1-.73.25l-28.23.13a1.41 1.41 0 0 1-.79-.22c-.22-.22-.19-1-.19-1V59.28s0-.89.44-1.11a1.62 1.62 0 0 1 .92-.25l27.35-.13s.82 0 1 .32a1.34 1.34 0 0 1 .35.82c0 .29.1 27.92.1 27.92s.16.66-.22.95z" fill="#692f23"/><path d="M51.18 82.89l-.07-20a1 1 0 0 0-.26-.59c-.16-.2-.77-.23-.77-.23l-20 .09a1.21 1.21 0 0 0-.67.18c-.33.16-.33.79-.33.79V83s0 .57.14.73a1.05 1.05 0 0 0 .58.16l20.68-.09a1.21 1.21 0 0 0 .54-.22c.14-.16.16-.69.16-.69zm-.58.32a.82.82 0 0 1-.51.17l-19.79.09a1 1 0 0 1-.56-.15c-.16-.15-.13-.69-.13-.69V63.7s0-.61.31-.76a1.16 1.16 0 0 1 .64-.17l19.17-.09s.58 0 .73.22a.9.9 0 0 1 .24.56l.07 19.1s.1.44-.16.65z" fill="#692f23"/><path d="M54.16 58.94s-28-.11-28.13 0 0 28 0 28h28.3zm-28 27.8s-.11-27.51 0-27.6 27.71 0 27.71 0L54 86.72z" fill="#692f23"/></g></g></svg>