<svg xmlns="http://www.w3.org/2000/svg" width="300" height="249.22" viewBox="0 0 300 249.22"><title>коттедж</title><g id="Слой_2" data-name="Слой 2"><g id="Слой_24" data-name="Слой 24"><rect width="300" height="249.22" fill="none"/><path d="M192.88,186.75l-.29-58.16s9.27.18,9.27-.14a18.73,18.73,0,0,0-.14-3.18c-.18-.32-9.42-11.34-9.53-11.56s.51-55.83.51-55.83l5.06-.29,15.38,3.76,2.17,1.73-.43,50.41,29.55,3.65s.07,10.17,0,14.36.28,26,.1,26,0,22.89,0,22.89l-29.65,1.88s.29,3.32-.36,3.32S192.88,186.75,192.88,186.75Z" fill="#eed0a8"/><path d="M198,71.11l11.12,2.82a6.72,6.72,0,0,1,.29,2.46c0,1.66-.22,19.72-.22,19.72s-3.9-.32-4.48-.36a69.1,69.1,0,0,1-7-1.16C197.78,94.4,198,71.11,198,71.11Z" fill="#8b5721"/><polygon points="150.59 125.8 150.57 182.04 170.97 184.18 172.22 185.04 173.77 185.24 173.96 127.36 150.59 125.8" fill="#d0a074"/><path d="M15.32,117.18l19.07-48-1.59-3.18-8.38-.87,2.89-6.07,5.49.29,6.37-2.71.28,6.61,3.76-1.44.14-18.63,3.61,3.9L95.19,117.9l.14,42.75,12.28,1V123.39s2.53-.36,2.6,0,0,71.07,0,71.07l-4.09-.29L52.8,186.58l-.14-61,7.08-.79-.43-2.46-.07-1.37L44.71,103l-9.46,1.95Z" fill="#edd1a9"/><path d="M64.72,161.14,64.33,164l-1.64,0V126.71s.36-.82,2.65-.87,16.8-1.35,16.8-1.35l.34,2.21c.07.39-.19,36.88-.19,36.88s-.41.72-.58.72-1.59-.34-1.59-.34l-.53-3.27Z" fill="#997055"/><path d="M152.44,56,176.13,32.2a13.41,13.41,0,0,0-5.78,1.06C167.22,34.56,140,44.63,140,44.63s-2.89,2.94-3.56,4.53S129,62.54,129,62.54a9.92,9.92,0,0,0,3.95-.48C135.59,61.33,152.44,56,152.44,56Z" fill="#704116"/><path d="M55.62,99.45,55.43,71A4.07,4.07,0,0,0,54,70.71C53.7,70.83,39,76,39,76s-.16,2.76-.11,3,0,23.54,0,23.54.09.76,1.16.61,1.08-1.37,1.08-1.37l11.77-3.18s-.07,1.86.69,1.91S55.42,100.26,55.62,99.45Z" fill="#997055"/><path d="M11.27,120.79l18-1,13.87-14.25,1-2a3.4,3.4,0,0,0-3-.29c-1.69.63-6.93,2.12-6.93,2.12Z" fill="#704116"/><polygon points="42.51 79.27 53.12 75.55 52.84 73.6 40.52 77.28 40.77 96.78 42.26 96.6 42.18 95.01 42.51 79.27" fill="#edd1a9"/><path d="M79.19,128.52c-.09.09-12.57,1.23-12.57,1.23l-.11,25.85-1.81,0-.29-27.3,1.08-.72,13.79-1.19.07,1.66Z" fill="#edd1a9"/><path d="M217,131.19l-.07,25,.22,4.84s1.34.23,1.34.11.51-2.53.51-2.53l14,.29a11.37,11.37,0,0,0,.83,2.17c.16,0,1.52,0,1.52-.25s.23-4.6.14-4.69,0-17.91,0-17.91v-6.1S217.4,130,217,131.19Z" fill="#9b6743"/><path d="M207.56,131.19l.29,23.11-1.11.43-.91-1.64.14-22.24S207.37,130.08,207.56,131.19Z" fill="#9b6743"/><path d="M231.2,134.13l.19,19.5s.31,1.4.82,1.49.75-1.2.77-1.35-.1-19.4-.1-19.4S231.69,131.82,231.2,134.13Z" fill="#9b6743"/><path d="M215.29,63.09l-.14,11.12,2.89.29s7.62-6.28,8.45-7.87S216.12,61.86,215.29,63.09Z" fill="#704116"/><path d="M153.18,55.87l43.48-1.44,29.54,7.66-.36-1.3s-48.35-29.14-48.6-29.25S153.18,55.87,153.18,55.87Z" fill="#8b5721"/><path d="M182.87,82.23c0,.18-.07,11.41-.07,11.41s.07,1-3,1.37S165,94.87,165,94.87L165,90s-.18-19.14.29-19.35,16.9-.79,16.9-.79C182.4,70.31,182.54,80.93,182.87,82.23Z" fill="#997055"/><path d="M180.12,90.32s.11,2.09-.65,2.09-12.49.43-12.49.43l-.07-19.43,3.18-.43,9.89-.14S180.23,90.71,180.12,90.32Z" fill="#d8d5c9"/><polygon points="197.96 73.27 198.03 92.41 205.18 93.93 205.11 75.08 197.96 73.27" fill="#d8d5c9"/><path d="M215.29,74.79l-.14,34.45s31.88,4.49,39.52,5.18c3.5.32,1.46-2,1.46-2S221.9,75.15,221.36,75.08,215.87,73.13,215.29,74.79Z" fill="#8b5721"/><path d="M190.88,112.27,201.71,124a37,37,0,0,1-5.71.36c-4,0-94-7.22-94-7.22L37.49,23.44l1.73-.72,99,21.74s1.23,1.12.22,2.17-10.26,17-10.26,17l.51,2c1.44.07,12.13-2.53,12.13-2.53l-.36,7,14.44,18.34Z" fill="#8b5721"/><path d="M198.43,128.66a15.7,15.7,0,0,0,.22,1.95l8.74.22.47,9.32V154.3l-9.39.43.25,1.73,9.53.22.9-.94.22-26.29Z" fill="#9b6743"/><path d="M218.83,134.44l.14,19.93s-.42.83,6.25.79,6.17-1.54,6.17-1.54-.19-19.27-.19-19.5S218.72,130.85,218.83,134.44Z" fill="#d8d5c9"/><polygon points="188.84 160.66 176.13 160.66 175.74 127.15 192.59 128.59 192.88 186.75 189.99 187.04 189.99 160.75 188.84 160.66" fill="#d0a074"/><path d="M198.5,131l.11,23.36,3.65.32,3.61-.54-.29-23.29S199,130.25,198.5,131Z" fill="#d8d5c9"/><path d="M79.41,128.84c.11,0-12.78.9-12.78.9l-.11,25.85,12.49.25Z" fill="#b3ad9c"/><path d="M181,150.8s0-20.46-.18-20.51-13.36-.11-13.36-.11l.13,25.26,12.84-.09Z" fill="#b3ad9c"/><path d="M52.65,94.22c0-.11.47-12.8.36-18.13l-5.71,1.7.43,17.37Z" fill="#b3ad9c"/><path d="M46.84,95.55c-.13,0-4.33.9-4.33.9L42.4,79.52l4.91-1.73L47.2,95.41Z" fill="#d8d5c9"/><path d="M36,127v59.73s5.13.29,5.49.29,11.34-.43,11.34-.43l-.14-61L37,125.27S35.83,124.3,36,127Z" fill="#edd1a9"/><path d="M35.76,151.2l.07-26.07-15.89,1.16.29,57.05s.18,1,1.81,1.44,11.34,2.49,11.56,2.38,2.38-.43,2.38-.43Z" fill="#d0a074"/><path d="M41.12,143l.14,12.52,2.21.1,1.73.19-.14-24.36s-3.9,0-4,.1S41.12,143,41.12,143Z" fill="#b3ae9d"/><path d="M25.33,144.14c0,.14.19,11.8.19,11.8l4.86,0,.24-6.26s.58-17.48-.1-18.05-3.92-.22-4.09-.19a8.55,8.55,0,0,0-1.16.82Z" fill="#b3ae9d"/><path d="M45.55,155.7c.12-.07,2.12-.14,2.12-.14V131.63s-2,0-2.12.34S45.55,155.7,45.55,155.7Z" fill="#edd1a9"/><path d="M25.43,155.51s-.07-23.59-.19-23.64a.89.89,0,0,0-1.3.91c0,1.32,0,22.51.24,22.87S25.43,155.51,25.43,155.51Z" fill="#edd1a9"/><path d="M28.68,125.05S46.3,125,48,125.2s11.27.32,11.7-.43a2.77,2.77,0,0,0-.43-2.46c-.25-.18-30-2.48-30-2.48L10,121.59l.29,4.19,1.16.87C16.08,126.39,28.68,125.05,28.68,125.05Z" fill="#f3dbbe"/><path d="M173.91,183.77l.39,1.25,1.7.85,1.38.79a21,21,0,0,0,2.6,1.44c.29,0,10-1.06,10-1.06V160.75l-13.87-.1s-.24-33.94-.39-33.51-1.93,0-1.93,0Z" fill="#eed0a8"/><path d="M177.67,170.86l.19,9.73s4.48.43,4.72.39,4.57-.58,4.62-1-.1-14-.1-14-9.29-.25-9.33,0S177.67,170.86,177.67,170.86Z" fill="#d0a074"/><path d="M110.07,193.44l-.1-30.67,32.4-1-.08-36.32,3,.09v36.37s1.8.42,1.82.44c.24.24.1,30,.1,30l-6.74.58s-3.92.12-8.84.35c-5.74.28-15.9.86-19,1C109.87,194.31,110.07,193.44,110.07,193.44Z" fill="#ecd0a8"/><path d="M104.48,169.61v13.67L96,181.94l-.29-15.5s3.61,0,3.95.1,4.81.87,4.81.87Z" fill="#d0a074"/><path d="M120.76,167.4l.19,15.21s.58.67,4.91.58,9.05-.48,9.05-.48l.29-5.87-.29-9.82S121.48,166,120.76,167.4Z" fill="#d0a074"/><path d="M108,161.76s-.48-38-.43-38.37-9.29-1-9.29-1l-.1,37.94Z" fill="#ae693b"/><path d="M20.18,185.16c0,.14,0,4.57,0,4.57l5.58,1.44,10,2.36L54,192.82l56.33,9,0-6.93L52.2,186.51l-18.61.65-13.12-2.67Z" fill="#b2ad9c"/><path d="M148.63,192.19l-38.52,2.65.19,6.93,27.88-1.83s5.5-.56,5.77-.56,6.07-.52,6.07-.52Z" fill="#d7d4c9"/><path d="M114.11,162.29l26.19-.39-.19-36.69-41.79-2.79-.1,37.94s-1.64.58,7.51,1.44S114.11,162.29,114.11,162.29Z" fill="#d0a074"/><path d="M247,182.08c0-1,0-1.2-.67-1.73s-21.88,1.08-23.16,1.35-7.85.67-7.85.67l-.34,2.89s-35.48,3-35.65,2.71a3.7,3.7,0,0,0-.89-.73l-1.93-1a3.58,3.58,0,0,1-.53-.72,19.29,19.29,0,0,0-3-.67c-1.3-.14-1.78-.89-2.17-.91s-18.74-1.36-19-1.56a3.42,3.42,0,0,0-2.09-.42l-2.12.67s-.07,4.26-.1,4.38a9.37,9.37,0,0,0,.87,1.3s2.91,1.18,3.13,1.25.58,1.3.58,1.3.17,1.56.48,1.54,3.51.82,3.51.82l.48,1.64.52,1.45,3,1.82,0,3.27,12.23-1v0s7-.26,9.15-.58,5.35-.66,5.47-.76.05-3.92.05-3.92S200.41,193,200.87,193s21.93-3.84,22.13-3.77,21.14-2.8,22.7-3.29S247,182.08,247,182.08Z" fill="#d7d4c9"/><polygon points="172.25 129.39 172.1 156.4 173.33 156.25 173.33 129.53 172.25 129.39" fill="#d0a074"/><path d="M247.65,117.59c.1.51-.2,63-.52,62.87s-3-.32-2.91,0,.19-63.31.19-63.31S245.19,116.67,247.65,117.59Z" fill="#eed0a8"/><path d="M141.65,161.72s.77.39.67-1.64,0-34.76,0-34.76l-2.17-.1.19,36.69Z" fill="#c49474"/><path d="M145.31,161.91l2.41.58s-.48,20.51,0,20.17,3-.24,2.89-.89-.34-5.13-.34-5.13l.3-50.71-5.65-.37Z" fill="#d0a074"/><path d="M98.32,158.54a9.76,9.76,0,0,1-.24,2.21c-.17,0-2.74-.1-2.74-.1V118.39A9.62,9.62,0,0,0,93.6,115C92.28,113.31,44,42.89,44,42.7s0,19.14-.1,19.16-2.74,1.06-2.89,1-1,.31-1.11,0a36.82,36.82,0,0,1-.53-8c.29-2.38.22-17.93.14-18.15s-1.83-2.36-1.88-2.5S4.53,117.09,4.53,117.09s-2.43-1.9-2.55-2S36.26,22.57,36.26,22.57l3,3.8L101.74,117a12.17,12.17,0,0,0,2.84.72c1.32.12,97.3,7.13,97.3,7.13l0,3.27s-.07.6-1.73.34-101.44-5.92-101.44-5.92Z" fill="#f3dbbe"/><path d="M129.81,66c0,.12,23-6.45,23-6.45l2.26,0-.48,28.55,3.37,2-.19-30.57,35-1.71s5.9-.24,8.71.51,26.91,7.08,27,6.93.82-.84.72-1.35-1.49-1.25-4.24-2.12-26.19-6.88-26.43-7a14,14,0,0,0-4-.29c-2.29.1-40.44,1.54-41.89,1.83s-23.64,6.69-23.64,6.69-1.2,1-.72,2.07A1.59,1.59,0,0,0,129.81,66Z" fill="#f3dbbe"/><path d="M140.83,63.16l-.19,7.46,12.42,15.55,1.4,1.16s.89-27.66.58-27.73a28.43,28.43,0,0,0-2.89.24Z" fill="#d0a074"/><path d="M165,94.87l-7.1-4.69.1-30.81,34.67-1.47s.07,56.52-.1,56.21a10.77,10.77,0,0,0-3.42-3.38C181.59,105.36,166,95.37,166,95.37l16.32-.67a2.3,2.3,0,0,0,.58-1.73c-.12-1-.29-22.72-.29-22.72s-.14-.55-1.69-.53-14.68.58-14.68.58-1-.31-1,2.07S165,94.87,165,94.87Z" fill="#d0a074"/><path d="M15.32,117.18l19.07-48-1.59-3.18-7.66-.43L4.53,117.09s.39.53,3.27.82A31.07,31.07,0,0,0,15.32,117.18Z" fill="#d0a074"/><polygon points="39.49 36.68 39.39 56.57 33.71 59.36 27.31 59.12 37.61 34.18 39.49 36.68" fill="#c49474"/><polygon points="44.98 103.51 29.28 119.83 59.52 121.47 44.98 103.51" fill="#8b5721"/><path d="M147.78,188.39a30.53,30.53,0,0,0,.35,3.41s1.21.61,1.21.81.07,6,.07,6l10.2,2.89v-3.42L157,196.22l-.47-2.34L152.81,192a5.87,5.87,0,0,1-.35-1.78A12.71,12.71,0,0,0,147.78,188.39Z" fill="#d0a074"/><path d="M215.18,110.11a31.1,31.1,0,0,0,.11,3.58L251,117.46l.19-3.43Z" fill="#f3dbbe"/><path d="M104.89,166.72c-.29-.18-7.84-.94-8.65-1a.82.82,0,0,0-1,.83l0,14.88a1.25,1.25,0,0,0,.22.83c.53.61,8.41,1.88,8.41,1.88s1.17.25,1.16-.51.07-12.6.07-12.6.05-2.38.07-3.12S105.18,166.9,104.89,166.72Zm-8.47.19a6.47,6.47,0,0,1,1,.12c0,.13,0,12.81-.05,14.81l-1-.18Zm7.8,16.2L98.08,182l0-14.89s4.76.38,5.43.49.61.36.61.36l0,3.18v.69Z" fill="#693023"/><path d="M29.94,130.47c-1.19,0-5.86.82-5.86.82s-.69,0-.7,1.47.14,22.22.14,22.22a1.31,1.31,0,0,0,.38,1.07c.53.44,4.69.51,4.69.51s1.81,0,2-.08c.4-.11.45-.23.48-1s.1-23.92.1-23.92A1.17,1.17,0,0,0,29.94,130.47ZM24.56,132c.32-.07.51,0,.51.4s0,22.25,0,22.95l-.87,0,0-22.65S24.26,132,24.56,132Zm1.16,23.37,0-22.86a.62.62,0,0,1,.61-.65c.9-.13,1.22,0,1.23.79,0,1,0,22.79,0,22.79Zm2.74.07v-.76l.12-21.91a4.46,4.46,0,0,1,0-.72c.14-.4.63-.33.63-.33a.69.69,0,0,1,.75.18.86.86,0,0,1,.13.47l.07,23.11Z" fill="#693023"/><path d="M47.18,131l-5.86,0s-.69,0-.7,1.47.14,22.22.14,22.22a1.31,1.31,0,0,0,.38,1.07c.53.44,4.69.51,4.69.51s1.81,0,2-.08c.4-.11.45-.23.48-1s.1-23.06.1-23.06A1.17,1.17,0,0,0,47.18,131Zm-5.38.61c.32-.07.51,0,.51.4s0,22.25,0,22.95l-.87,0,0-22.65S41.5,131.72,41.8,131.66ZM43,155l0-22.66a.77.77,0,0,1,.76-.68c1,0,1.11.13,1.07,1.49,0,1,0,21.92,0,21.92Zm2.74.07v-.76l.11-21.25A2,2,0,0,1,46,132a.73.73,0,0,1,.61-.18.82.82,0,0,1,.58.31,1.07,1.07,0,0,1,.13.54l.09,22.44Z" fill="#693023"/><path d="M90.29,112l0,.06Z" fill="#693023"/><path d="M187.61,180c0-.07,0-12.76,0-12.76a4,4,0,0,0-.15-1.45c-.14-.32-1-.29-1-.29l-7.8,0h0c-.2,0-.57,0-.72,0a.77.77,0,0,0-.59.3,1.28,1.28,0,0,0-.16.61s.23,13.49.25,14.14a.83.83,0,0,0,.85.78s8.55-.65,8.87-.7S187.63,180,187.61,180Zm-1-.1-8.38.53-.14-14,8.57-.19Z" fill="#693023"/><path d="M180.12,72.46c-.23-.22-1-.15-1-.15l-11.51.22a1.37,1.37,0,0,0-.74.17.83.83,0,0,0-.33.75V92.27a1.68,1.68,0,0,0,.2.77,1.41,1.41,0,0,0,.7.22s7.24-.27,11.95-.37c1.14-.1,1.15-1,1.15-1l-.11-18.64A1.14,1.14,0,0,0,180.12,72.46ZM167.77,92.09c-.24-.23-.27-.25-.27-1.08,0-4-.13-15.63-.11-16.7a.76.76,0,0,1,.79-.84l4.77-.06,0,18.65-4,.23S168,92.33,167.77,92.09Zm6.29-.1,0-18.6,4.84-.06a.79.79,0,0,1,.63.73c.07,4.41.05,16.87.05,16.87a.78.78,0,0,1-.71.91C177.48,92,174.06,92,174.06,92Z" fill="#693023"/><path d="M219.81,155.57c1.55.05,11.88,0,11.88,0a4.75,4.75,0,0,0,1.44-.1c.2-.08.37-.57.39-1.47s0-17.39,0-17.39v-2.42s.13-1-1.16-1-11-.65-11-.65l-1.37,0-1-.07s-.61-.09-.65.76.11,21.27.11,21.27S218.25,155.51,219.81,155.57ZM231.61,146l0-11.48s.06-.64.65-.54.4,2.2.4,2.2l.08,17.84a.44.44,0,0,1-.47.43c-.48,0-.61.08-.7-.72S231.61,146,231.61,146Zm-.79-11.92.07,11.88,0,1.24-.06,7.1-4.51.07-.11-20.55Zm-11.3-.65,2,.14,3.59.25.1,20.15s-.05.32-.54.47a35.72,35.72,0,0,1-4.42.1c-.38,0-.9,0-1-.07s-.13-.72-.13-.72l0-19.92A.43.43,0,0,1,219.52,133.43Z" fill="#693023"/><path d="M208.43,73.2c-1.54-.4-10.83-2.49-10.83-2.49l0,5L197.27,93l.07,1.55a1.25,1.25,0,0,0,1,.9c.92.2,10.11,1.41,10.11,1.41a.8.8,0,0,0,.87-.76c.14-.85.36-21.85.36-21.85S209.69,73.53,208.43,73.2Zm-10.09.59,3.73.87V93l-3.76-.62V76Zm8.28,1.94,0,18-.87-.14,0-18Zm-1.95,17.67-1.7-.28V74.87l1.73.41Zm4,2.34-10.33-1.44v-.86l8.45,1.44s.81.14.9-.83,0-18.16,0-18.16,0-1-.83-1.19-8.38-2-8.38-2v-1L209,74.14Z" fill="#693023"/><path d="M78.8,125.88c-.72,0-13.69,1.41-13.69,1.41l-.88.13a.59.59,0,0,0-.25.47c0,.31.2,26.7.2,26.7v1.34a1,1,0,0,0,1,.61l13.29-.18a.93.93,0,0,0,1.12-.9c.11-1.1.11-28.78.11-28.78A.82.82,0,0,0,78.8,125.88Zm-11.7,29.5h0L67,129.93l4.87-.36.07,25.85Zm11.74-.14-5.89.11,0-25.6v0l0-.35,6-.32Zm-.65-26.83c-1.17.16-12.06.92-12.06.92l-.05,26.07-1.07,0-.13-27a.4.4,0,0,1,.31-.37l13.39-1.34s.5,0,.54.64C79.15,127.81,79.36,128.25,78.18,128.41Z" fill="#693023"/><path d="M135.45,168.3s0-.67,0-1.2a.7.7,0,0,0-.79-.79h-6.16l-1.78-.06-5.65,0s-.73.11-.79,1.23c-.05.87,0,14.78,0,14.78s0,1.07,1.39,1.19,13-.4,13-.4a1,1,0,0,0,.79-1C135.51,181.29,135.45,168.3,135.45,168.3Zm-5.52,14.14-8.26.28s-.6,0-.64-1,.15-13.71.15-13.71a.82.82,0,0,1,.92-.75l6.58,0,1.24,0Zm4.72-.82c-.28.48-.61.76-1.72.8s-2.16,0-2.16,0l-.16-15.14h3.74a.68.68,0,0,1,.4.6c0,.43,0,1.27,0,1.27S134.93,181.14,134.65,181.62Z" fill="#693023"/><path d="M49.73,77.24" fill="#693023"/><path d="M52.4,72.95C51.23,73.36,41,76.7,41,76.7a1.11,1.11,0,0,0-.66.49,2,2,0,0,0-.17,1c0,1.07,0,18.52,0,18.52s-.18.7,1.08.65,11.81-2.49,11.81-2.49a1,1,0,0,0,.32-.65.24.24,0,0,0,0-.1L53.3,93l.22-19.39S53.58,72.53,52.4,72.95ZM42.58,95.41s0-13.9,0-14.8.52-1.22.52-1.22l3.71-1c0,1,.13,15.49.17,16.89l-3.76,1C42.6,96.27,42.58,95.41,42.58,95.41Zm9.79-2.27A.86.86,0,0,1,52,94l-4,1V78l4.66-1.46L52.37,93A.16.16,0,0,0,52.37,93.13Zm.27-17.94c-1.06.37-8.55,3-9.62,3.28s-1.12,1-1.12,1L42,96.51l-.79.2-.11-18.89L52.65,74Z" fill="#693023"/><path d="M102.62,198l.12.06Z" fill="#693023"/><path d="M62.25,164c0,.58.25.54.25.54s1.38.06,1.79.05a.42.42,0,0,0,.43-.38s0-1.28,0-1.82a1,1,0,0,1,.79-1c.47-.14,13.92-.16,13.92-.16s.06,1.63.11,2.51.6.88.6.88,1.49.05,2,0,.47-.65.47-.65l.05-3.84,0-35.26a.76.76,0,0,0-.74-.76c-.74-.05-6,.52-6,.52S63.81,125.86,63,125.9s-.79.72-.79.72l.05,6.55,0,18.16S62.21,163.38,62.25,164Zm.81-36.76c0-.58.42-.61.42-.61l1.26-.14,11.56-1.14.32,0,4.95-.4a.55.55,0,0,1,.43.45c0,.37-.05,34.79-.05,34.79a26.58,26.58,0,0,1,0,3.48c-.15.44-.7.28-1,.25s-.38-.38-.38-.38,0-2,0-2.78a.57.57,0,0,0-.72-.58s-14.66.18-15.2.16a.46.46,0,0,0-.51.51s-.08,2.11-.05,2.29,0,.64-.47.63-.51-.34-.51-.34S63,127.78,63.07,127.2Z" fill="#693023"/><path d="M87.71,129.3" fill="#693023"/><path d="M219.4,160.57h.06v-1.29l12.64-.19c.29,0,.9.16.91.65s0,.43,0,.49a4.1,4.1,0,0,0,.16.79l.22.38a6.69,6.69,0,0,0,2.16.07.33.33,0,0,0,.19-.1L236,161a1.8,1.8,0,0,0,.06-.53c0-.55.07-28.55.07-28.55v-.3l-2-.23L218,129.94a3,3,0,0,0-1-.07,1.23,1.23,0,0,0-.3.27v31.6l2.77-.07Zm-.85-2.25c-.16.17-.14.55-.14.89v1.28s0,.41-.22.41-.48,0-.48,0-.13,0-.17-.48,0-28.94,0-28.94a.48.48,0,0,1,.51-.46c.48,0,16.25,1.35,16.25,1.35l.54.06s.33,0,.32.51,0,27.37,0,27.37,0,.29-.34.34a2.62,2.62,0,0,1-.67,0s-.18,0-.19-.34,0-1.47,0-1.47,0-.7-1-.7l-13.65.07S218.7,158.15,218.54,158.32Z" fill="#693023"/><path d="M257.78,114.05a4.8,4.8,0,0,0-1.42-2l-34.61-37.4s-.28-.05-1.85-.47l8.3-8.11s1-.61,1.23-1a2.09,2.09,0,0,0-.79-3c-1.81-.9-43.15-26.32-43.15-26.32s-7.07-4.51-7.73-4.69-.79-.29-2.35.25-33.76,12.13-33.76,12.13a6,6,0,0,1-2.91.51C137.58,43.7,37.21,21.71,37.21,21.71s-.79-.22-1.16.14S.87,115.2.89,115.48s.58.61.79.76,1.59.87,2.07,1.14a13.61,13.61,0,0,0,3,1c.25,0,6-.23,6.64-.23l-3.08,1.93a3,3,0,0,0-.61.57,3.56,3.56,0,0,0-.16.88L9.66,126s-.08,1.2,1.37,1.15,8.38-.5,8.38-.5l.14,11.12s.22,51.26.22,51.35c0,1.24.53,1.42.53,1.42s10.16,2.6,13.53,3.52c0,0,2.4.22,2.46.21l17.42-.88,31.84,4.87,24,4.06a8.33,8.33,0,0,0,1.92,0c.73-.1,7.89-.68,9.66-.79v0s24.73-1.84,27.6-2l7.63,1.65h0s2.35.7,3.15.83a7.12,7.12,0,0,0,1.6,0l11.32-1h0L186,199.65c1-.1,1.22-.27,1.24-.8s-.12-3.23-.14-3.42l56.81-8.13c1-.1,2.64-.34,3.19-1a2.8,2.8,0,0,0,.58-1.88c0-.87.3-62.12.32-66.58l3.11.35a1.06,1.06,0,0,0,.34,0c.07,0,.14-.05.19-.25s0-2.59.06-3.36c5.67.67,1.86.24,5.19.64C258,115.32,257.78,114.05,257.78,114.05ZM226.1,66.7c-.76.79-7.78,7.45-7.78,7.45l-2.48-.3.21-10.76,9.54,2.53S226.86,65.91,226.1,66.7Zm1.66-3.39s.9,1.12-.14,1.3a35,35,0,0,1-4.22-.9c-2.44-.67-23.87-6.32-23.87-6.32a5.61,5.61,0,0,0-2.13-.4C196.2,57,151.86,59,151.86,59L129.8,65.44a.83.83,0,0,1-1-.57c-.3-.74.54-1.19,1-1.38s21.56-6.5,22.46-6.61,44.25-1.68,44.85-1.62a6.48,6.48,0,0,1,1.7.43c.45.18,26.5,6.72,26.5,6.72ZM215,62.82l-.54,121.74s-.45.05-1.55.11l-.4-122.51Zm-107.49,59.9h0l-5.39-.37s-1.73.06-2-.25.15-1,.15-1l1.09-2.25s.28-.73.55-.84c.5-.21.79-.15,2.12-.06l96.76,7.24s.69-.05.69.83c0,.63,0,1.32,0,1.66s-.14.48-.32.51C200.61,128.3,107.52,122.72,107.52,122.72Zm87.34,63.58-1.55.13-.21-57.77,1.52.09Zm-2.52.23-1.73.17V128.51l1.83.11-.29,0Zm-35.19,7-3.77-1.43L178.78,190s4.71,1.54,4.84,1.57S157.15,193.57,157.15,193.57ZM184,192s.17,0,.17.27.07,1.54.07,1.54-22.31,1.93-27,2.32c-.08-.41-.09-2.09-.09-2.09Zm-73-29.26,2.88,0,.25,31.12-3.32.22c0-.28,0-1,0-1Zm-.16-38.92,2.38.14.14,37.77c-1,0-2.23,0-2.38,0Zm3.23,37.91,0-6h0v-1.83h0v-9.22h0v-.45h0V135h0v-.48h0v-8.71h0v-.49h0V124l16,.94v29.18h0v.51h0l0,6.91C124.47,161.62,117.74,161.71,114.07,161.74Zm24.6.54h2.55v2.26l-26.29.34v-2.2Zm.89-.84c-.57,0-7.38.08-8.83.1l.18-36.55,8.65.53S139.56,159.55,139.56,161.43Zm.87-35.87,1.44.09,0,35.83-1.44,0Zm.8,39.72.11,22.32L115,188.67l0-23.11Zm1.52,23.37v3.11l-27.7,2,0-4.08S140.68,188.89,142.75,188.65Zm-.66-1.12V162.28h.33s.48,0,.46.9-.13,21.72-.13,21.72v2.54Zm.65-26-.1-35.8,2.37.12-.26,35.72Zm.73.84,3.5.06v29.33s-3.4.36-3.48.3,0-8.06,0-8.06Zm3.35-.75-1.2,0c0-.06,0-.11,0-.11l.14-35.57,4.29.25c0,3.91,0,51.09,0,52.32s0,2.67-.24,3a4.27,4.27,0,0,1-1.64.72h-.08l0-19.9S148.12,161.61,146.82,161.58Zm22.78,22.63L148,186l0-3a3.83,3.83,0,0,0,2.15-.43Zm-18.73-2.27.28-55.74,2,.12V182Zm3.24.12.08-55.68,3.61.21,0,55.71Zm4.53-55.42,12.3.72v2.18c-1.13,0-4.74.06-5.49.14s-.77,1.06-.77,1.06.07,23.18,0,24.17.72,1,.72,1l5.49,0v27.6l-12.44-1.19.15-55.73Zm12.3,3.72V154.9h-2.89l0-24.45Zm-3.56,24s0,.56-.33.58h-1.5V130.54l1.3,0c.24,0,.41,0,.41.4s0,1.09,0,1.09Zm4,30.4,3.95.83.69.69-26.22,2-1.8-.83,0-.86Zm.63-.3.14-57,1.16.07-.1,57.08Zm2.21.27,0-57.14,1.16.07.24,57.25Zm2.53,2,1.8,1.11L153,189.93l-2.48-1.22Zm3.73-30.83a.69.69,0,0,0,.67-.58c.14-.6,0-24.94,0-24.94a.85.85,0,0,0-.83-.81c-.67-.06-3-.1-3.88-.14v-1.67l13,.79-.11,31.69-12.83-.11v-4.14Zm-3.93-.65-.06-24.62,3.86.07.08,23.77s0,.64-.89.74A22.52,22.52,0,0,1,176.6,155.16Zm2.46,33c0,.3,0,.83,0,1.22l-26,2.27,0-1.23Zm-2.38-2.12c0-.09-.06-25.06-.06-25.06,1.09.05,12.87.14,12.87.14l.28,25.6-10.51.94Zm-82.38.49-.07-22.63L107,165.35l-.18,23.25Zm12.51,2.93,0,4.11-12.51-2,0-4.26ZM94.22,163v-1.69c0-.18.09-.31.35-.31.87,0,12.43,1.26,12.43,1.26v2.21Zm0-2.67L94.16,117l.65.94-.1,42.39Zm1.53-41,2.07,3.15v38.11l-1.95-.12Zm3.08,41.38-.08-3.43.13-34.32,8.76.57,0,.43v8.28c0,.62,0,1.25,0,1.92h0v.39h0c0,3,.17,25.39.16,25.72,0,1.32-.43,1.16-.43,1.16Zm100.08-5.44s8.08-.1,8.59-.07.83-.31.83-1c0-.54-.18-22.87-.18-22.87s.27-1.19-.9-1.19h-8.38V129l10.26.6-.33,26.47-9.89.22Zm-.07-1,0-23.2,3.4,0,.23,23.18Zm4.48,0V131l2.27,0v23.14Zm4.15-.63s-.14.61-.61.7c0,0-.63.07-.61-1.08s0-21.77,0-21.77-.05-.34.22-.36l.06,0c.17,0,.67-.09.63.81C207.05,132.92,207.47,153.56,207.47,153.56Zm-9.68-24.62.32,27.46s0,.79,1.17.85,9.84-.13,9.84-.13.65,0,.67-.87,0-26.49,0-26.49.16-1-.7-1l-6.39-.33s-.32,0-.32-.83c0,0,0,0,0-.06.12-.79.35-2.36.36-2.62s0-.78-1.19-1.88c-.37-.35-1.56-1.58-3-3.1l-.48-.5-2.67-2.82.29-58.24c.85,0,1.86-.09,2-.08s7.17,1.82,14,3.62l.1,122.86-16,1.46v-3.42l-.2-54ZM194.5,58.43l0,57.17-1.41-1.52.11-55.68Zm-2.28,54.73a11.47,11.47,0,0,1-1.26-1.53,14.56,14.56,0,0,1-.4-3.21c0-1.19,0-49.87,0-49.87l1.48,0ZM181.47,95.33s1.32,0,1.62-.65a11.62,11.62,0,0,0,.11-3.18l0-21.34s0-.91-1.53-.86-15.86.77-15.86.77a.89.89,0,0,0-1,1c0,1-.13,16.58-.14,19.79v0s0,2.39,0,2.49c0,1-.41.89-.41.89L158.15,90l.14-30.25L189,58.61s.72-.11.76,1,.18,50.88.18,50.88-23.32-14.84-23.23-14.84Zm-15.27-.76a.65.65,0,0,1-.69-.69l.17-22.75,16.42-.63V91.65s0,.75.06,1.41a1.11,1.11,0,0,1-1.06,1.15ZM157.32,59.8V89.51a26.24,26.24,0,0,1-2.19-1.67l.2-27.91C155.74,59.91,156.73,59.82,157.32,59.8Zm-3,.15-.17,26.89-.79-1L153.52,60C153.72,60,154.16,60,154.34,59.95Zm-1.84.19-.21,24.4c-4-4.94-11.19-14-11.19-14l.16-7Zm29.4-25.47c1.52.89,41.86,25.68,41.86,25.68s1.55.92,1.22,1.19c0,0-25.87-7.1-26.4-7.22a6.13,6.13,0,0,1-2.17-1.55C196,52.22,181.32,35,181.32,35S180.39,33.79,181.9,34.67Zm-5.42-2.06a1.68,1.68,0,0,1,.79-.47c.56-.06,19,21.88,19,21.88l-42.65,1.66ZM139.08,46.44A4.7,4.7,0,0,1,141.42,45L173,33s1.12-.65,1.44-.29-23.18,23.43-23.18,23.43-20.4,6.14-20.76,6.14-1.12.16.11-1.63S138.23,47.38,139.08,46.44Zm-99.81-23c.52,0,99.19,21.85,99.19,21.85s-10.18,16.65-10.65,17.44a3.43,3.43,0,0,0-.07,2.6A2.22,2.22,0,0,0,130,66.56c1.53,0,10.18-2.74,10.18-2.74l-.19,7s13.75,17.11,13.87,17.43a2.14,2.14,0,0,0,.65.69l9.79,6.61.51.33s23.29,14.64,23.87,15,11.57,12.46,11.63,12.71.23.58-.43.61-96-7.08-97.32-7.4S39.78,26,39.78,26s-.94-1.29-1.25-1.86C38,23.12,39.27,23.44,39.27,23.44Zm-36.51,92c-.31-.18-.22-1.16.4-2.46s32.61-88.2,32.9-88.72.9-.33,1.23.05c.76,1,1.62,2.22,1.62,2.22l61.4,89.56a3.8,3.8,0,0,1,.6,1.13,3,3,0,0,1-.23.81l-1.38,2.78s-.2.37-.44.38-.41-.13-.69-.54c-6.69-9.91-59.39-87.77-60.71-87.85,0,0-.22-.1-.75,1.13L26.34,59.73l-2.09,5.16L6.16,111.73h0A39.8,39.8,0,0,1,4.28,116C4,116.19,3.07,115.66,2.76,115.48Zm90.53,74.9c0,.87-.35,1.31-.91,1.25-.74-.07-.67-.63-.67-.63l.1-77.37,1.26,1.79C93.07,120,93.29,189.55,93.29,190.39Zm-2.55-.1c0,.73,0,1.1-.38,1.08l-1.6-.22c-.23-2.21-.12-76.92-.11-82.1l2,3s.07.06,0,.06S90.74,189,90.74,190.29ZM49.52,52.2l2.06,3-4.22,1.68L47.29,53ZM47.33,49l1.5,2.17-1.47.59Zm0,8.94,4.9-1.77,2.36,3.43-7.26,3.25ZM35.22,68.29c-.3-.2-1.42-.54-1.44-1s.88-3.54,1.55-4a28.8,28.8,0,0,1,3.57-1.37s0,1,.08,1.38a2.35,2.35,0,0,0,.72,1.25,13.11,13.11,0,0,0,2.2.73Zm3,0-19.49,46.5-2.68,1.68,19-46.7,0-.13ZM32.7,59c-.65-.07-4.48-.65-4.48-.65l9.24-23.18c.08-.22.27,0,.51.25L39.05,37l-.11,19.2Zm6.23-1.65,0,3.53a18.74,18.74,0,0,1-3,.94c-.58,0-1.17-1.26-1.48-1.55L34,59.86ZM33,60.09A2.81,2.81,0,0,1,34.5,62a18.65,18.65,0,0,1-1,3.07s-.34.61-1.62.43-6-.76-6-.76h-.12l2.07-5.14S32.17,59.69,33,60.09Zm9.71,1.84a10.7,10.7,0,0,1-2.13.58s-.54.07-.65-.72,0-19.24,0-23.43l3.36,4.88L43.28,61A1.09,1.09,0,0,1,42.74,61.93Zm-2.31,1.73,2.89-.83,2.49.72L43,64.81Zm3.76-1.77,0-17.4,2.06,3,.25,14.15a.67.67,0,0,1-.72.69A5.06,5.06,0,0,1,44.18,61.9ZM6.66,117a1.05,1.05,0,0,1-1.11-1.09c0-.72,1.87-4.59,1.87-4.59l.22-.76,17.8-44.67,6.39.36a1.27,1.27,0,0,1,.78.36,9.89,9.89,0,0,1,1.09,1.92c.14.36.43.47,0,1.66s-18,44.83-18,44.83a4.67,4.67,0,0,1-1.17,1.67C13.83,117.14,7.36,117,6.66,117Zm29.43-11.85c1.12-.25,5.52-1.66,6.36-1.52,1.29.22.9.8.29,1.66S29.52,118.88,29.23,119s-12.42,1.23-12.42,1.23l-4.33.14C12.26,120.36,35,105.37,36.09,105.12ZM40,76.27c.78-.29,14.3-5.13,14.3-5.13s.58-.09.61.76S55.12,99,55.12,99s0,.7-.47.87-.94,0-.9-.83,0-1.19-.9-.94-11.45,3-11.45,3a.8.8,0,0,0-.87.79c0,.6,0,1,0,1.22l-.73.15.05,0s-.6.11-.65-.72.14-25.28.14-25.28S39.22,76.56,40,76.27Zm-6.5,48-3.5,0,0-3.75,28.13,1.95s1-.1,1,1.1a5.74,5.74,0,0,1,0,1H52.27Zm18.78,1.42v60.22l-1.66-.07s0-60.16.07-60.16Zm-13.34,1.22c0-.94.32-1.22.48-1.31,4.88-.07,9.62-.12,9.85-.1.49.05.74.45.72,1.37s0,33,0,40.69h0v17.25s-.06.47-.07.55a1,1,0,0,1-.87.83c-.35.07-6.06.26-10.06.39,0-.29-.07-1.78-.07-1.78V167.58h0C38.94,150.4,38.89,127.79,38.93,126.93Zm-.82-.67v60.38l-1.83.06V126.88c0-1.28.55-1.23.68-1.25h.6C38,125.65,38.11,126.13,38.11,126.26Zm-5.25,43.09v13.72h0v.31h0v2.87s0,.3-.28.28c0,0-8.87-1.69-9.18-1.91l-.25-.06V171q0-.9,0-1.83h0v-.47h0c-.08-17-.07-41.51-.07-41.51a.88.88,0,0,1,.58-1l.06,0,4.88-.41h.5a3.75,3.75,0,0,0,.61,0l2.82,0a.87.87,0,0,1,.33.73v42.42h0v.48Zm-2-50.07,14.11-15L58.7,120.86ZM12,125.92s-1.23.24-1.44-1.59c-.24-2,.1-2.22.51-2.38a15.24,15.24,0,0,1,2.57-.4c1.41-.15,2.85-.25,2.85-.25l12.36-.79s0,2.29,0,3.81l-6.42.76Zm8.59,11.27.07-9.53s0-1.16.43-1.23c0,0,.9-.11.94,1s.12,57,.12,57l-1.06-.27s-.58-.14-.65-1.66C20.41,180.7,20.64,137.19,20.64,137.19Zm14.64,55.95c0-.22-14.44-3.9-14.44-3.9l0-3.95s0-.36.77-.24,11,2.29,11,2.29,2.19.58,2.7.31Zm-.08-6.4c-.5,0-.82,0-1.41,0,.3-4.76-.19-61-.19-61l0-.07,1.65,0a1.08,1.08,0,0,1,.15.72l.1,60.32Zm.76,6.35.07-5.45,16.25-.47.14,5.35Zm17.12-15.21h0v-1.31h0c0-2.19,0-8,0-8,0-2.63,0-8.71,0-8.71,0-2.86,0-33.48,0-33.48s.07-.58,1.08-.65l5.13-.07a1.23,1.23,0,0,0,.94-1.23c0-.19.11-.79.11-1.05a7.12,7.12,0,0,0-.11-1.84s-5-6.25-5.06-6.25c-1.85-2.3-5.92-7.28-6-7.54-1.12-1.42-2-2.53-2.33-3-1.59-2.27-2.38-2.24-2.38-2.24a11.88,11.88,0,0,0-2.92.33v-.77l11.3-2.89.07,1.23a1,1,0,0,0,1,.65,3,3,0,0,0,1.55-.36s.47-.13.47-.87V71.65h0c0-.17.05-1.42-.34-1.62a2.74,2.74,0,0,0-1.77.14c-.42.2-14.81,5.34-14.81,5.34s-.67.17-.65,1.23l-.11,26.14,0,.4s0,.12.18.19c-1.55.34-2.78.64-2.78.64l-15.58,9.77,7-16.78h0c0-.15,11.21-26.68,11.21-26.68l1.19-2.78,15.8-7,1.92,2.79.34.49,3.67,5.37c.12.13,4.61,6.65,4.61,6.65.26.21,5.71,8.29,5.71,8.29.22.19,6,8.76,6,8.76s6.08,8.76,6.17,9h0l3.85,5.59c0,.25.16,82.61.14,82.82-.06.55-.28.47-.44.56l-33.72-4.6s-.58.18-.58-1.73C53.06,184.25,53.07,181.7,53.07,177.87Zm56.83,22.69s0,.43-.19.53a2.38,2.38,0,0,1-1.08,0l-23.54-4.05v0l-31.89-5-.07-4.91,56.82,8ZM110,194c-.37,0-1.8-.25-2.05-.32l0-31.34,2.29.24ZM108.5,161.6l0-36.78,0-1.22,1.75.23.07,37.87C109.22,161.65,108.5,161.6,108.5,161.6Zm12.66,38.91v0l-9.79.78s-.58,0-.63-.5c0-.1,0-4.38,0-5.63l37.55-2.46s.3,5.48.32,5.93C141.64,199.25,124.36,200.35,121.16,200.51Zm38.1.37a.81.81,0,0,1-.29,0s-7.37-1.89-8.17-2a.92.92,0,0,1-.92-.72s-.06-5.55-.45-6.14-.83-.37-1-.75a3.55,3.55,0,0,1,.17-2.29c.31-.23.63-.27,1.39.16a21,21,0,0,0,2.2,1l0,2.19s3.62,1.18,3.89,1.63a21.57,21.57,0,0,1,.22,2.6c.06.16,2.77,1.31,2.88,1.57S159.51,200.79,159.26,200.88Zm-1.64-4.26c7-.5,26.81-2.4,26.81-2.4s1.44.89,1.64,1c-.16.05-13.76,1.42-15,1.54-3.87.39-7.19.82-11,1A14.58,14.58,0,0,1,157.62,196.62Zm28.18,2.2c-.66,0-25.13,2.45-25.34,2.23a7.76,7.76,0,0,1-.26-2.57c0-.22.31-.2.31-.2l10-.9c2.49-.22,14.73-1.52,16-1.5.07.5,0,1.17,0,1.92S186.31,198.78,185.79,198.81Zm60.88-14.18a1.75,1.75,0,0,1-1.34,1.36c-.41.12-3.58.56-3.58.56-8.67,1.27-51,7.41-55.43,8a5.58,5.58,0,0,1-1.52-.87,20.5,20.5,0,0,1-.2-2.07c-.09-.31-.33-.39-1.94-.88a21.88,21.88,0,0,1-3.11-1.09,6.46,6.46,0,0,1,0-1c0-.45.94-.51,1.83-.53s32.85-2.63,32.85-2.63,1.19-.25,1.3-.56a6.08,6.08,0,0,0,.17-2l28.45-2a8.28,8.28,0,0,1,2.28.05C246.83,181.22,246.68,184.27,246.68,184.63Zm-31.14-2.75,0-5.49,0-7.53.06-40.34h0l0-14.23,28.09,3.08.07,51,.07,11.75ZM246.73,180l-1.8.05c-.25-.25.07-59.64.09-62.58l1.72.19Zm4.21-63.49s0,.28-.39.26l-34.92-3.89v-2.6l35.24,4.13Zm4.52-2.84-39.9-4.83.21-34.12,5.46.73L255.66,113s.32.26.29.5S255.61,113.71,255.45,113.71Z" fill="#693023"/><path d="M190.89,28.46s5.38-2.2,6.35-2.79a25.48,25.48,0,0,1,8.68-1.81c3.11,0,6.8-.84,8.49-.65a5.3,5.3,0,0,1,2.79,1.23s1.94.06,3.56,0,4.08,1,4.73,1.23L233.35,28c1.3.39,3.11,2.33,4.79,3.17s10.33,9.07,11.11,11.6,4.53,7.58,4.92,9.33,2.2,11.79-.71,16.26-8,10.95-10.88,12.31-6.15,4.08-6.93,4.53-5.77,2.27-8.16,2.27H223.8a12.84,12.84,0,0,0-2.46.45c-.32.13-.45-3.17-.45-3.17s-8,2.33-13.21,1.94a65.92,65.92,0,0,1-9.72-1.49s2,2.82,1.46,3.27-3.85.52-5.28.32a65.27,65.27,0,0,1-6.42-1.93l-3.23-1.25a39.44,39.44,0,0,0-3.63-2.36A94.65,94.65,0,0,1,171.71,72c-1.23-2.27-2.27-7.51-2.33-11.72a39.69,39.69,0,0,1,2.69-13.8c1.75-4.79,6.38-10.17,8.45-11.4S188,30.79,188,30.79Z" fill="#dd9a51"/><path d="M203.29,41.37a9.13,9.13,0,0,0-1.92,2.6c-.41,1.07-.66,5-1,5.54s-1.48.7-2.21.63a6.35,6.35,0,0,1-2-1c-.1,0-4.79,1.41-5.34,1.46s-6.44,1.43-6.83,1.53-2.91.63-3,.68a5,5,0,0,0-2.5,3.08,5.58,5.58,0,0,0,.24,3.86,4,4,0,0,0-1.48,1.87,7.12,7.12,0,0,0,1,4.52,19.32,19.32,0,0,0,3.35,2.33c-.27-.12,1.09,3,3.55,6.49A27,27,0,0,0,197.88,85c7,2.91,16.69,1.51,16.93,1.48a27.3,27.3,0,0,0,10.49-3.69s5.47-4,7-5.59,4.71-5.44,5.37-7a8.93,8.93,0,0,0,.68-1.89s2,.19,3.4-2.38.66-5.56-.51-6.19-3.4-.17-4.06,0-2.28-1.34-2.7-3.11-4.79-6.12-4.79-6.12a26.61,26.61,0,0,1-5.13-.1c-1.94-.34-5.73-.78-7.17-1.19s-6.15.22-7.07.44-4.13,1.75-4.37,1.53-.12-1.36-.12-1.85S203.29,41.37,203.29,41.37Z" fill="#f9ddc9"/><path d="M198.86,60.66a2.84,2.84,0,0,0-1-2,3.71,3.71,0,0,0-2.7-1.07c-.71,0-3.71-.26-4.19,0a11.72,11.72,0,0,0-2.06,1.94c-.57.63,0,1.07.28,1.25a5.93,5.93,0,0,0,2.32,1.11,25.57,25.57,0,0,0,3.72-.12c.74-.16,2.15-.74,2.69-.76S198.78,60.87,198.86,60.66Z" fill="#fff"/><path d="M196.26,58.11a2.08,2.08,0,0,1,.58,1.8,3,3,0,0,1-2.23,2,2.65,2.65,0,0,1-2.5-.85c-.15-.44-.95-1.64-.74-2.24S194.83,55.73,196.26,58.11Z" fill="#a9d0ee"/><path d="M213.5,60.53a2.84,2.84,0,0,1,1-2,3.71,3.71,0,0,1,2.7-1.07,21.3,21.3,0,0,1,4.11.52,7.8,7.8,0,0,1,2.14,1.41c.57.63,0,1.07-.28,1.25a7.59,7.59,0,0,1-2.53.74,24.2,24.2,0,0,1-3.51.24c-.74-.16-2.15-.74-2.69-.76S213.58,60.74,213.5,60.53Z" fill="#fff"/><path d="M216.9,58a2.08,2.08,0,0,0-.58,1.8,3,3,0,0,0,2.23,2c1.07.21,2.61-.13,2.75-.57a5.87,5.87,0,0,0,.49-2.53C221.58,58.1,218.32,55.62,216.9,58Z" fill="#a9d0ee"/><path d="M170.53,50.47a24.36,24.36,0,0,0,3.4-3.64c1-1.55,3.45-6,5.83-8.16a51.09,51.09,0,0,1,3.94-3.6l-2.28,5a10.26,10.26,0,0,1,3.21-2.82,8.89,8.89,0,0,1,2.14-.63,30.09,30.09,0,0,0-2.28,4,39.12,39.12,0,0,0-.34,6.61c0,.78.24,2.09.24,2.09s.58-5.68,2.67-8.79,3.26-5.73,8-8.26,5.64-2.67,6.41-2.53,0,1.6,0,1.6a49.61,49.61,0,0,0-2.14,5,16.38,16.38,0,0,1,2.82-3.35,29.27,29.27,0,0,1,3.55-2.67s-2.09,6.17-2.09,8.06.87,7.38.87,7.38l.92,2.43a20.53,20.53,0,0,1,1.36-8.79c1.8-4.37,2.62-8.45,6-9.47a4.84,4.84,0,0,1,5.93,2.23A20.67,20.67,0,0,1,219.94,36s.15-3.4,0-4.18,1.07-.92,1.7-.73a10.9,10.9,0,0,1,5.78,4.57c2,3.26,2.72,8.5,2.72,8.5s1.07-6.56.34-7.82a23.73,23.73,0,0,0-3.84-5.25s-.29-1.26,1.8-.87A14.34,14.34,0,0,1,234,32.15S231.5,30,230.29,29s-6.8-4.13-7.09-4.32a23.5,23.5,0,0,0-3.45-.49l-2.23-.1-1.8-1-6.56.73-2.43-.44-8.36,1.46L192,27.78l-5.83,4.08-2.72,1L177,38.47s-4.81,6.07-5,6.85-1.75,5.25-1.75,5.25Z" fill="#e8b67e"/><path d="M173.88,52.9s-2.23,6.66-1.85,11.71,2.87,11.22,3.3,11.66-2.14-1.75-2.28-1.85a53.49,53.49,0,0,1-3-7.72c-.44-2-.68-6.85.29-8.89A17.81,17.81,0,0,1,173.88,52.9Z" fill="#e8b67e"/><path d="M186.14,94.19a61.81,61.81,0,0,1,6.28-3.56,46.66,46.66,0,0,1,5.51-1.75l1.36-.19-.19-3.24s7.06,1.3,8.87,1.3a90.44,90.44,0,0,0,9.91-1.17,7.33,7.33,0,0,0,2.53-1.17l.45,3.76s4.65,1,6.65,1.62c0,0,6.21,1.85,9.26,4.83s7.94,3.3,11,5.14c2.05,1.26,4.38.76,5.68,2.33.68.82,5.05,2.33,8.31,4,2.47,1.25,5.24,1.47,5.3,1.85a4.43,4.43,0,0,0,.34,2.43c.55,1.29,3.64-.15,1.36,4.71-1.44,3.07-2.32,14.79-5.54,16.28-2.54,1.17-9.4-.53-13.94-3.3-1.82-1.11-1.21-3.15-3-4.08a15.73,15.73,0,0,0-8-1.8c.26,1-.5,12.78.15,14.33s.63,11.61.63,11.61,0,3.81,0,3.55a4.73,4.73,0,0,1,.58,3c-.19,1.68,0,3-1.17,3.17s-9.85,2.27-11.53,2.66a84.46,84.46,0,0,1-9.2.78c-.26-.06-9-.13-9.33-.26s-21.93,1.26-21.41-2.1.52-6.22,0-12.63c-.32-4,.13-8.9-1.12-9.57-.75-.4-2.23,3.13-4.52,2.72-6.51-1.17-10.45-3.5-11.27-10.4-.31-2.63-1.58-5.11-1.7-8a25.51,25.51,0,0,1,4.47-14.82C176.18,101.55,181.08,99.72,186.14,94.19Z" fill="#fff"/><ellipse cx="200.7" cy="135.76" rx="4.13" ry="4.59" transform="translate(-7.82 12.35) rotate(-3.46)" fill="#fb8005"/><ellipse cx="188.93" cy="143.85" rx="2.95" ry="4.92" transform="translate(-8.33 11.66) rotate(-3.46)" fill="#fb8005"/><ellipse cx="212.12" cy="147.51" rx="4.59" ry="4.13" transform="translate(10.14 308.64) rotate(-73.4)" fill="#fb8005"/><ellipse cx="196.33" cy="97.76" rx="4.13" ry="4.59" transform="translate(-21.38 71.16) rotate(-19.51)" fill="#fb8005"/><path d="M238.64,136.17a3.46,3.46,0,0,1-2.72,1.76c-2,.12-3.77-1.74-3.92-4.15s1.37-4.47,3.39-4.6a3.24,3.24,0,0,1,2.09.62C238.5,130.53,239.12,135.38,238.64,136.17Z" fill="#fb8005"/><ellipse cx="206.28" cy="108.07" rx="1.42" ry="1.39" fill="#f2e6d9"/><path d="M198.18,193.93c-.33.25,2.23,11.08,2.23,11.08s5,2.14,8.65,1.85,4.47-2.14,4.47-2.14a11.11,11.11,0,0,0,1.55,1.55c.58.39,9.91-.78,9.91-.78s3.21-1,3.21-1.26,2-5.25,2-5.25.49-5,.19-5.44-3.69,1.17-5.83,1.17-5.44.1-7.09-.87-2.82-1.75-2.82-1.75a14.81,14.81,0,0,1-5.83,2.43,18.66,18.66,0,0,1-8.16-.68C198.47,193,198.56,193.64,198.18,193.93Z" fill="#d0a074"/><path d="M188.95,203.55s4-.39,5.93.39a82.74,82.74,0,0,0,9.33,2.62c1.26.19,4.86.68,7.58-.58s2.91.68,2.91.68l6.51-.78c1.65-.19,6.41-1.07,8.26-.49s4.08,3.21,4.76,3.89,3.5,4.37,2.91,6.32-3.3,4.47-6.51,4.66-11.08,1.17-13.6.68-3-1.94-3.79-4.37l-.78-2.43a21.36,21.36,0,0,1-4.76.78c-2,0-10.88,2.53-13.89,2.53s-7.58-.39-8.74-.87c0,0-2.43-2.23-2.72-4.08s-.53-4.27.64-5.82S186,204.23,188.95,203.55Z" fill="#edae02"/><path d="M206.53,161.19s8.74.29,10.3.19,7.87-.1,12.15-1.07,6.8-2,7.29-.19.87,8.65,0,10.88a15.16,15.16,0,0,0-.95,5.47c0,1.07.51,11.4-.95,13.34s-1.31,2.66-5.1,3.44-4.86,1.85-7.48,1.46-4.37-.29-5.44-1.46a12,12,0,0,0-1.94-1.75,5.48,5.48,0,0,1-3.79,2.53c-2.91.68-4.86,1.36-8.45.1a16.8,16.8,0,0,1-5.05-2.53s-2.72-4-3.3-7.58a77.6,77.6,0,0,1-.29-11l-1.75-5.15s-2.09-5.51-.15-7.25S206.53,161.19,206.53,161.19Z" fill="#fb8005"/><path d="M233.84,160s.24,5.05.29,6.41A26.61,26.61,0,0,1,234,172a34.8,34.8,0,0,0-.53,6.12,69.12,69.12,0,0,1-.1,8.36,13.82,13.82,0,0,1-3.21,6.62,7.61,7.61,0,0,0,2-.83,4.13,4.13,0,0,0,1.52-1.8c.44-.92,1.26-1.36,1.51-3.5a79.13,79.13,0,0,0,.34-9.77,38.52,38.52,0,0,1,.63-6.56c.15-.68.39-8.06.29-9.72S234.61,158.27,233.84,160Z" fill="#df6702"/><path d="M226.65,161.14s.44,3.26.83,4.71,1.46,5.64,1.21,8a56.87,56.87,0,0,0-.53,6.8c0,2.72.29,6.7.24,8.21a12.88,12.88,0,0,1-.34,4c-.44,1.07,2.82-2.14,2.82-2.14s.24-8.6.39-10.74.87-5.2.87-7.43-1.07-6.46-1.26-8.4a14.78,14.78,0,0,1,.29-4.08Z" fill="#df6702"/><path d="M219.31,162s1.36,6.17,2,9.33.49,8.74,1,11.56.44,4.91.68,6.9.73,4.71.73,4.71,2.43-.1,2.82-.63-.58-9.67-.87-11.22,0-5.83-.19-7.43-1.41-8.65-1.7-9.67a13.3,13.3,0,0,1-.19-4C223.73,161.19,219.31,162,219.31,162Z" fill="#df6702"/><path d="M212.61,161.68s.87,5.25,1.07,6.17,1.6,6.95,2,8.65.83,8.74.92,10.59.58,5.73,2.19,6.95a3.2,3.2,0,0,0,3,.68,20.57,20.57,0,0,1-1.55-6.22c-.53-4.23-.44-8.5-.78-10.3s-1.31-9.72-2.23-11.85a13.44,13.44,0,0,1-.87-4.81Z" fill="#df6702"/><path d="M207.55,162.06s.83,4.23,1.07,5.54,1.6,7.09,1.89,8.7.83,6.12,1.26,8.74,1,5.1.92,6.46a8.76,8.76,0,0,1-.24,1.8l-2.67,1.12s0-.73-.15-2.57-1.26-7.53-1.55-9.52-1.31-9.77-1.65-11.27-1.26-7.82-1-9.08S207.55,162.06,207.55,162.06Z" fill="#df6702"/><path d="M202.11,161.46s2.28,12.74,2.62,13.67.58,4.71,1,7.34,1.26,7.43,1.6,8.84.92,2.87.63,3.3-2.62,0-2.62,0a12.47,12.47,0,0,1-2.23-5.39c-.39-3-1-8.89-1.31-10.93s-3.16-17.51-3.16-17.51A23.24,23.24,0,0,1,202.11,161.46Z" fill="#df6702"/><path d="M194.29,160.15s2.77,10.51,3.25,11.48a12.1,12.1,0,0,1,1.17,3.55c.29,1.6-.19,4.52.39,7.19s1.51,8.11,2.62,10.11,1.75,1.89,1.75,1.89a43,43,0,0,1-4.91-1.85c-1.36-.73-2.67-9.47-2.87-11.71s0-6.51-.39-7.14-3.59-11.48-3.25-12.79S194.29,160.15,194.29,160.15Z" fill="#df6702"/><ellipse cx="224.12" cy="102.91" rx="4.13" ry="4.59" transform="translate(-21.5 80.74) rotate(-19.51)" fill="#fb8005"/><ellipse cx="241.28" cy="110.82" rx="4.59" ry="4.13" transform="translate(54.03 299.05) rotate(-69.82)" fill="#fb8005"/><ellipse cx="256.82" cy="117.71" rx="4.84" ry="3.75" transform="matrix(0.35, -0.94, 0.94, 0.35, 57.74, 318.15)" fill="#fb8005"/><ellipse cx="194.53" cy="113.41" rx="4.59" ry="4.13" transform="translate(13.51 247.33) rotate(-66.73)" fill="#fb8005"/><ellipse cx="184.99" cy="110.26" rx="3.98" ry="3.58" transform="translate(10.63 236.65) rotate(-66.73)" fill="#fb8005"/><ellipse cx="174.25" cy="130.33" rx="4.42" ry="3.88" transform="translate(-14.31 238.93) rotate(-66.73)" fill="#fb8005"/><path d="M174.44,103.12a4.32,4.32,0,0,1-.19.46,6.61,6.61,0,0,1-1.42,1.75l0,0-.35.48a10.09,10.09,0,0,0-.56.84l-.12.19-.06.16-.09.24c-.12.35-.23.71-.32,1.07-.19.71-.35,1.42-.58,2.12a2.71,2.71,0,0,1-.43.82l.33.16a4.63,4.63,0,0,0,3.83-8.34Z" fill="#fb8005"/><path d="M190.9,91.18a4.32,4.32,0,0,1-.38.33,6.61,6.61,0,0,1-2.07.9l0,0-.53.26a10.09,10.09,0,0,0-.89.49l-.19.11-.13.11-.19.18c-.27.26-.53.53-.78.8-.49.54-1,1.1-1.49,1.62a2.71,2.71,0,0,1-.76.53c.07.1.14.2.22.29a4.63,4.63,0,0,0,7.24-5.64Z" fill="#fb8005"/><path d="M236.34,94.53a4.15,4.15,0,1,1-6.92-4.5C232.53,91.62,234.57,92.16,236.34,94.53Z" fill="#fb8005"/><ellipse cx="228.59" cy="119.82" rx="4.59" ry="4.13" transform="translate(36.84 292.57) rotate(-69.68)" fill="#fb8005"/><path d="M247.09,118.88a4.38,4.38,0,0,0-5.47,2.87c0,.13-.09.26-.13.39a2.38,2.38,0,0,1,1.27.7,2.4,2.4,0,0,1,.61.42h0a2.37,2.37,0,0,1,1.47.51,2.27,2.27,0,0,1,.47-.05,2.46,2.46,0,0,1,2.37,1.9,2.55,2.55,0,0,1,.56.72,5,5,0,0,0,1.07-1.72A4.38,4.38,0,0,0,247.09,118.88Z" fill="#fb8005"/><path d="M251,105.21a3.25,3.25,0,0,0,4-2.33c0-.1.06-.2.08-.3a1.77,1.77,0,0,1-1-.48,1.79,1.79,0,0,1-.47-.29h0a1.76,1.76,0,0,1-1.11-.32,1.69,1.69,0,0,1-.35.06,1.83,1.83,0,0,1-1.83-1.33,1.89,1.89,0,0,1-.44-.51,3.71,3.71,0,0,0-.73,1.32A3.25,3.25,0,0,0,251,105.21Z" fill="#fb8005"/><ellipse cx="212.12" cy="118.61" rx="4.13" ry="4.59" transform="translate(-21.08 50.19) rotate(-12.86)" fill="#fb8005"/><ellipse cx="218.68" cy="133.52" rx="4.13" ry="4.59" transform="translate(-24.23 52.03) rotate(-12.86)" fill="#fb8005"/><ellipse cx="228.78" cy="144.4" rx="4.13" ry="4.59" transform="translate(-8.29 14.06) rotate(-3.46)" fill="#fb8005"/><circle cx="217.96" cy="58.95" r="0.59" fill="#fff"/><circle cx="193.37" cy="58.95" r="0.59" fill="#fff"/><circle cx="202.86" cy="88.68" r="0.61" fill="#693023"/><circle cx="206.31" cy="87.9" r="0.56" fill="#693023"/><circle cx="213.02" cy="88" r="0.56" fill="#693023"/><circle cx="216.32" cy="88.92" r="0.56" fill="#693023"/><circle cx="219.48" cy="86.69" r="0.56" fill="#693023"/><circle cx="210.01" cy="93.44" r="0.56" fill="#693023"/><circle cx="206.51" cy="96.26" r="0.56" transform="translate(82.33 287.28) rotate(-81.96)" fill="#693023"/><circle cx="210.54" cy="99.85" r="0.56" transform="translate(82.24 294.37) rotate(-81.96)" fill="#693023"/><circle cx="214.52" cy="95.43" r="0.56" transform="translate(90.04 294.51) rotate(-81.96)" fill="#693023"/><circle cx="214.62" cy="102.53" r="0.56" transform="translate(83.1 300.71) rotate(-81.96)" fill="#693023"/><circle cx="214.33" cy="109.08" r="0.56" transform="translate(76.35 306.06) rotate(-81.96)" fill="#693023"/><circle cx="210.83" cy="106.17" r="0.56" transform="translate(76.23 300.09) rotate(-81.96)" fill="#693023"/><circle cx="209.57" cy="89.85" r="0.61" fill="#693023"/><circle cx="213.21" cy="158.54" r="0.66" fill="#693023"/><circle cx="218.17" cy="153.97" r="0.66" fill="#693023"/><circle cx="224" cy="157.96" r="0.66" fill="#693023"/><circle cx="234.1" cy="156.31" r="0.66" fill="#693023"/><circle cx="237.52" cy="151.74" r="0.66" fill="#693023"/><path d="M185.79,130c0-.15.53-4.32,1.6-5.88a5.53,5.53,0,0,1,3-2.23c.29,0,.63.68,1.51.53s1.7.53,3.4-.58,2.72-1,3.79-3.21.68-5.88,2-6.07a2.05,2.05,0,0,1,2.19,2.14c0,1.12.29,5.59.29,5.59s2,.49,2.23,1.55a6,6,0,0,0,1.26,2.19c.29,1.26.87,4.47,0,6.32a5.65,5.65,0,0,1-4.52,3.64,39.78,39.78,0,0,1-9.52.29c-2-.34-5.88-1.46-6.12-1.41S185.69,131.1,185.79,130Z" fill="#f9ddc9"/><path d="M269.69,112.2a41.34,41.34,0,0,0-2,6.66c-.29,1.85-.1,3.64.58,4.08a15.54,15.54,0,0,0,3.45,1,3.07,3.07,0,0,1,1.8,1.51c.39.87,2.72,2,4.37,2a6.86,6.86,0,0,0,3.74-.83,5.25,5.25,0,0,0,2.57-2.19,9.23,9.23,0,0,0,1.36-4c.19-1.55.39-2.33-.53-3.4s-1.46-3.16-1.85-3.69-1.21,0-1.31-.92-.1-4.57-.39-6-1.6-2.14-2-2-1.17,2.87-1.41,4.32.29,4.66-.24,5.15-1.17,1.41-1.85.68-1.36-1.51-1.55-1.41S269.69,112.2,269.69,112.2Z" fill="#f9ddc9"/><path d="M275.81,112.35l3.6-41.88,2.33.19-4.08,43.58s-1.41,1.21-1.65.53A10.09,10.09,0,0,1,275.81,112.35Z" fill="#edae02"/><path d="M273.77,130.57c-.1-.24.15-3.79,1-3.84s1.94,0,1.94,1-4.91,55.68-4.91,55.68l-2.14-.29Z" fill="#edae02"/><path d="M269.45,183.52c0,.15-.24,5.39-.15,5.73s1,.58,1.31.53,1.17-1.6,1.17-2.62.19-3.16-.15-3.4S269.54,182.89,269.45,183.52Z" fill="#e0dbd1"/><path d="M266.68,206.6s-13.89-2-15.16-2.09-2.09-.19-2.91.49-7.14,7-7.58,7.92a6.77,6.77,0,0,0,0,3.55c.19.58,3.84,1.6,5.59,1.94s41,8.26,42.41,8.36a4.31,4.31,0,0,0,3.74-1.26c1.17-1.17,5.83-7.87,5.93-8.89s-1.65-4.08-3-4.71-22.88-4-22.88-4Z" fill="#fb8005"/><path d="M261.62,208.1a10.48,10.48,0,0,1-3.74-.29c-2.23-.53-6.36-1.31-7.24-.87s-4.42,3-4.62,4.18-.83,1.41,6.56,2.82,29.78,5.83,31,6.12,4.66,1,5.73.34,2.38-3.26,2.87-3.84,2-.83,1-1.75S261.62,208.1,261.62,208.1Z" fill="#e0dbd1"/><path d="M268.86,190.18s-1.65,19.19-1.8,19.14-4.47-1.17-5.2-.83-3.74,4.71-3.74,4.71c-.1.29-1.41,1.17-.1,1.7s13.07,2.57,13.89,2.77,4.13-.1,4.86-.73a26.12,26.12,0,0,0,3-4.86c0-.24-2.53-1.07-2.53-1.07-1.7-.34-7.63-1.41-7.63-1.41l1.7-19.87-2.48-.15Z" fill="#c5beaf"/><path d="M279.92,70.79a2,2,0,0,1-.42-1.85c.26-1.2.62-5.89.62-5.89s.13-.49,1.17-.26.68.78.71,1.62-.36,5.7-.36,5.83-.32.78-.84.81A1.35,1.35,0,0,1,279.92,70.79Z" fill="#dd9a51"/><path d="M198.63,61.77c.26,0,.9.17,1.08,0s.49-.39.13-1a8,8,0,0,0-2.31-2.53,5.63,5.63,0,0,0-3.91-1.14,9.07,9.07,0,0,0-3.75.7A5.58,5.58,0,0,0,188.14,60a1,1,0,0,0,.2.83h0a3.38,3.38,0,0,0,.71.66,13.24,13.24,0,0,0,2.67,1,12.29,12.29,0,0,0,4.43,0C197.11,62.33,198.38,61.77,198.63,61.77Zm-1.87-.41a1.8,1.8,0,0,0,.47-1.18,2.82,2.82,0,0,0-.36-1.77h0a5.18,5.18,0,0,1,1.8,1.89c.28.6.29.92.13,1s-.68-.27-1-.21a3.38,3.38,0,0,0-.89.35C196.8,61.46,196.73,61.45,196.76,61.36ZM192,62a3,3,0,0,1-1-.16,7.59,7.59,0,0,1-1.48-1h0a.66.66,0,0,1-.19-.46.09.09,0,0,0,0,0c0-.23.36-.75.77-1.25a2.87,2.87,0,0,1,1-.73c.36-.16.51-.11.47,0l0,0a2.63,2.63,0,0,0-.41,1.52,2.45,2.45,0,0,0,1,1.87S192.3,61.94,192,62Zm3.54-.59a2.9,2.9,0,0,1-2.26.11,1.86,1.86,0,0,1-1.09-1.24,2.07,2.07,0,0,1,.16-1.57.69.69,0,0,1,.31-.25.4.4,0,0,1,.21,0c.3.13.21.27.19.33s0,1.31,0,1.31a1.36,1.36,0,0,0,1.11.73,1.13,1.13,0,0,0,1.18-.81,1.29,1.29,0,0,0-.11-.84.44.44,0,0,1,.56-.56c.52.17.62.9.6,1.3A1.55,1.55,0,0,1,195.57,61.37Z" fill="#693023"/><path d="M224.37,61.05c.28-.34-.06-.63-.35-1a23.14,23.14,0,0,0-1.91-1.76,5.89,5.89,0,0,0-2.17-.87,7.54,7.54,0,0,0-4.69.11A5.64,5.64,0,0,0,213,60.65a1.65,1.65,0,0,0,0,.85c.12.54.68.39.7.4a5.92,5.92,0,0,1,1.58.15c.5.13,2.53.53,3,.66a7.8,7.8,0,0,0,3.23-.16A5.38,5.38,0,0,0,224.37,61.05Zm-7.47.78c-.47-.12-1.83-.7-2.3-.76a1,1,0,0,0-.53.06h0c-.28,0-.15-.4-.15-.4l.2-.45a4.76,4.76,0,0,1,1.31-1.41,4.52,4.52,0,0,1,1.23-.65c0,.09-.24.27-.32.43a2.77,2.77,0,0,0-.26,1.35,2.46,2.46,0,0,0,.9,1.85ZM221.13,60a1.89,1.89,0,0,1-1.23,1.67,2.15,2.15,0,0,1-2.64-.84,1.82,1.82,0,0,1-.07-1.94s.13-.21.3-.22a.76.76,0,0,1,.55.17c.14.13,0,.38-.1.7a1,1,0,0,0,.87,1.29,1.1,1.1,0,0,0,1.41-.88c0-.3.06-.76.45-.76S221.21,59.41,221.13,60Zm2.29.75a12.24,12.24,0,0,1-1.88,1h-.1c-.17-.08.29-.39.49-1.3a2.71,2.71,0,0,0-.05-1.52c.39.28,1.14.83,1.5,1.14S223.55,60.64,223.42,60.8Z" fill="#693023"/><path d="M204,69.21a5.72,5.72,0,0,0,3.64.92,2.57,2.57,0,0,0,2.2-1.07c.44-.52,0-.42,0-.42s-.42.31-2.77.36a6.32,6.32,0,0,1-3.3-.57C203.07,68,203.42,68.71,204,69.21Z" fill="#693023"/><path d="M220,72.69c-.5-.06-4.58,1.91-4.81,2s-2.88,1.39-8.44,1.15a28.3,28.3,0,0,1-9.33-1.68,5.3,5.3,0,0,0-2.14-.71,3.35,3.35,0,0,0-1.51.89.33.33,0,0,0,0,.47c1.15.73,1-.55,1.72-.5a21.86,21.86,0,0,1,4.21,1.6,23.23,23.23,0,0,0,7.13,1.51,17.36,17.36,0,0,0,7.3-1c2.38-1,4.84-2.69,5.07-2.74a1.22,1.22,0,0,1,.89.24c.34.23.55.26.73-.23S220.46,72.76,220,72.69Z" fill="#693023"/><path d="M207.34,79.2c-3.42-.13-5-.49-5.28-.39s0,.26,0,.26.81,1.31,5.39,1.33,5.8-1.67,5.67-1.75A25.76,25.76,0,0,1,207.34,79.2Z" fill="#693023"/><path d="M217.86,53.09a15.81,15.81,0,0,1,3,.52,22.82,22.82,0,0,1,3.3,1.46c.26.15.73.28.36-.09a8.22,8.22,0,0,0-2.27-2,6.67,6.67,0,0,0-4.62-.75s-.51.07-.56.39S217.41,53,217.86,53.09Z" fill="#693023"/><path d="M193.2,53.5c.46-.11.68-.07.77-.15s.12-.21-.34-.36a4.38,4.38,0,0,0-2.45-.24,7.16,7.16,0,0,0-3.44,2s-.45.41-.39.5.26,0,.57-.21,2.36-.68,2.83-.84S192.73,53.61,193.2,53.5Z" fill="#693023"/><circle cx="202.51" cy="88.68" r="0.6" fill="#693023"/><circle cx="205.97" cy="87.84" r="0.6" fill="#693023"/><circle cx="209.14" cy="89.82" r="0.6" fill="#693023"/><circle cx="212.64" cy="88.03" r="0.6" fill="#693023"/><circle cx="216.06" cy="89" r="0.6" fill="#693023"/><circle cx="219.13" cy="86.76" r="0.6" fill="#693023"/><circle cx="209.62" cy="93.49" r="0.6" fill="#693023"/><circle cx="206.11" cy="96.27" r="0.6" fill="#693023"/><circle cx="210.29" cy="99.89" r="0.6" fill="#693023"/><circle cx="206.09" cy="103.1" r="0.6" fill="#693023"/><circle cx="210.29" cy="106.43" r="0.6" fill="#693023"/><circle cx="214.25" cy="102.64" r="0.6" fill="#693023"/><circle cx="214.01" cy="109.2" r="0.6" fill="#693023"/><circle cx="214.17" cy="95.44" r="0.6" fill="#693023"/><path d="M299,213.73c-.16-.84-1.21-1.84-3-2.31-.43-.11-25.72-4.51-25.72-4.51,1.64-18.49,6.58-74.33,6.61-74.79,0,0,.29-4.24.37-4.28a9.41,9.41,0,0,0,2.35,0,6.61,6.61,0,0,0,3.16-1.25,6.1,6.1,0,0,0,2.23-2.77,9.25,9.25,0,0,0,.74-3.56,4.73,4.73,0,0,0-.36-2.43c-.24-.45-.44-2-.7-2.41a9.08,9.08,0,0,0-1.39-2.22,6.42,6.42,0,0,1-1.51-3.09c-.08-.7.16-4.06,0-4.74a1.94,1.94,0,0,0-1.26-1.43,2.61,2.61,0,0,0-1.43.18l.74-8.3,2.84-32.11a1.23,1.23,0,0,0-1.36-1.21c-1.38,0-1.72.46-1.77.95s-3.93,45.85-4.12,48.08h0v.08h0c0,.28.08,1.22-.35,1.36a5,5,0,0,1-2.75-.28,12.69,12.69,0,0,0-2.2-.55s.5-.24.37-.65-1.43-.49-1.75-.7l-.07,0a1.42,1.42,0,0,1-.69-.71s-.23-1.09-.28-1.46a1.14,1.14,0,0,0-.65-1,10,10,0,0,0-2.95-1.23c-1.23-.29-1.94-.23-2.09-.32a3.51,3.51,0,0,0-1.12-.84,22.43,22.43,0,0,1-2.09-1.05,7.47,7.47,0,0,0-2.28-1,2.9,2.9,0,0,0-.84-.11s-2.23-1.47-3.09-2-.92-.4-2-.92c-.81-.41-4.29-1.7-5.18-2.07s-5.07-2.09-6.79-3c-1.55-.85-5.57-3.51-6.41-3.92s-5.15-2.36-5.7-2.47c-.23-.24-.58-.71.39-.77a27.53,27.53,0,0,0,7.55-2c.2-.1.37-.19.5-.27a40.26,40.26,0,0,0,5.79-3.21c2.5-1.77,4.08-2.84,5.3-3.57a15.93,15.93,0,0,0,3.74-3.64s1.77-1.41,3.91-5.76,1.8-9,1.94-10.47a27.38,27.38,0,0,0-.66-6.92c-.46-1.6-3.89-7.34-3.89-7.34a43.82,43.82,0,0,0-4.32-6c-2-2.06-8.28-8.14-10.37-9.69A13.29,13.29,0,0,0,231.67,27l-1.83-.61a35.2,35.2,0,0,1-5.31-1.62c-1.49-.74-4.79-1.59-6.45-1-1.65-1.36-4.11-1.17-4.76-1.13s-2.2.39-2.75.42-3.4.29-5.54.23a24.75,24.75,0,0,0-6.93,1.2,39.62,39.62,0,0,0-6.77,3.11S185.76,31,182.68,33a34.16,34.16,0,0,0-7.58,7.06c-1,1.49-3.37,5.44-3.37,5.44a26.37,26.37,0,0,0-2.2,6,56.69,56.69,0,0,0-.68,9.49,36.45,36.45,0,0,0,1.35,7.29,55.41,55.41,0,0,0,2.07,5.64,15.85,15.85,0,0,0,2.54,3.42c1.26,1.1,3.37,3.89,4.21,4.53s3.82,3,4.5,3.43,2.46.87,2.82,1.1A20.53,20.53,0,0,0,189.52,88c.87.26,3.56.78,3.56.78a17.47,17.47,0,0,0,1.85.5l-2,.75a17.26,17.26,0,0,0-5.56,2.57l-.65.51c-.33.29-3.46,3.16-4,3.77s-3.23,2.87-3.89,3.38a41.59,41.59,0,0,0-3.62,2.38,20.13,20.13,0,0,0-3.52,4.2c-.7,1.43-1.65,2.62-1.85,3.3a25.51,25.51,0,0,0-.85,3.45c0,.68-.7,3.47-.92,4.69a22.34,22.34,0,0,0-.27,4.25,7.55,7.55,0,0,0,.78,3.52,15.34,15.34,0,0,1,1.24,3.11c.24.73.63,3.57.85,4.59a5,5,0,0,0,2.23,3.08,5.09,5.09,0,0,0,3,1.14,4.57,4.57,0,0,0,2.19,1.85,7.09,7.09,0,0,0,3.08.1c.51-.1,2-.19,2-.19a3,3,0,0,0,1.5-.49,3.38,3.38,0,0,0,1-1.72c.11-.71.23,4.11.26,5.27a.32.32,0,0,0,0,.17s.31,5.38.37,6.12.23,2.66.19,3.6.29,4.44.32,5.15a4.18,4.18,0,0,0,.29,1.85c.29.55,1,.52,1.55.84s1.2,2.82,1.62,5.21a22.23,22.23,0,0,0,1.86,5.09c0,.24-.19,6.51.29,8.5s.63,4.57.78,5.44,1.31,6.12,3.64,7.72l.26.17a23.73,23.73,0,0,0,1,5.66c1,3,1.75,5.73,1.36,6.32s-4.37-1.7-8-1.75-6.8.58-8.5,3-2.38,5.73-1.07,8.31,4.18,4,11.27,3.69c0,0,2.62-.34,4-.63s4-1.12,6.07-1.46,5.83-.58,6.95-.83l1.12-.24a7.21,7.21,0,0,0,1.89,4.81c2,2.28,6.75,1.65,7.53,1.6s5.59,0,7.68-.15,5-.87,6.36-1.94a5.13,5.13,0,0,0,2.38-4.76c-.19-2.38-.15-3.4-2.33-5.3,0,0-1.46-1-2-1.36s-1.31-1.46-1.89-1.8a7.89,7.89,0,0,0-2.19-.87c-.49,0-.29-1,.1-1.21s.92-1.89,1.31-3.55.24-4.13.53-5.1a3.75,3.75,0,0,1,.73-1.75h0a6.4,6.4,0,0,0,3.79-4.57c.83-3.4.58-12.15.58-13.07s.87-5.49,1-6.51,0-7.4,0-7.4l.1-2.23a5.78,5.78,0,0,0,.66,0v0c.29,0,1.05-.08,1.47-.15s.81-.19,1-.78a15,15,0,0,0,.13-3.72c-.1-1-.42-12-.42-13.12a40.69,40.69,0,0,0-.39-5.34c-.26-1.39-.84-8.42-.81-10.43s.32-3.6.84-3.69,4,1.39,4.7,1.72a14.24,14.24,0,0,0,2.82.81,6.89,6.89,0,0,0,.36,1.78c.74,2.07,3,3.11,3.66,3.37a29.07,29.07,0,0,0,3.17.49,36.47,36.47,0,0,1,3.63,1.26,10.89,10.89,0,0,0,4.34.65,12.43,12.43,0,0,0,2.79-1.17c.39-.23.71-2.46.84-3.11s.49-2.72.87-3,.71.13,1-.16-.23-1,.1-1.07,2.33.52,3.47.65,1.26-.13,1.46.16.08.53.4,1.07,1,.66,1,.92a.06.06,0,0,0,0,0h0c.1.37-.53,4.49-.53,4.49s-4.81,57.22-6.41,75.17l-16.1-2.16a5.77,5.77,0,0,0-2.42.62c-1,.59-7.84,7.48-7.84,7.48a2.09,2.09,0,0,0-.55,1.48c0,.88.32,3,.32,3a1.7,1.7,0,0,0,1.25,1c1,.27,47.76,9.8,47.76,9.8a4.44,4.44,0,0,0,2.43-.31,81,81,0,0,0,6.76-9.12A8.32,8.32,0,0,0,299,213.73Zm-19.7-108.61c.34-.31.79-.42,1.39.26s.06,2.06,0,3.13a11.48,11.48,0,0,0,.47,3.55c.24.68.89,1.3.83,1.39s-.24,0-.6,0a2.71,2.71,0,0,0-.87.29l0,.09a2.88,2.88,0,0,1-1.06.67c-.5.11-.87.26-1.1-.16l-.11-.19.75-8.34A1.58,1.58,0,0,1,279.29,105.11Zm1.08-41.64s0-.39.53-.39,1,0,1.09.46c0,.11-.2,2.71-.55,6.68a1.76,1.76,0,0,1-1.51,0l-.14-.12Zm-4.12,47.76L279.71,71a1.29,1.29,0,0,0,1.64.15c-.85,9.54-2.33,25.75-3.19,35.09l0,.13h0l-.64,6.92h0a1.1,1.1,0,0,1-1,.79C275.73,114.12,276.25,111.24,276.25,111.24ZM221.71,87.35a21.84,21.84,0,0,0-.32-2.52l.06,0,1.92-1.1h0a21.78,21.78,0,0,0,4.3-2.4,60.36,60.36,0,0,0,6.41-5.39c.18-.21.42-.52.71-.88-.18.6-.46,1.54-.75,2.24a17.82,17.82,0,0,1-2.21,4.52C230.45,83.8,225.49,86.41,221.71,87.35Zm-18.79-.7c.73.48,2.1,3.34,2.36,4l-.13,0a26.42,26.42,0,0,1-2.61-.72,4.21,4.21,0,0,1-1.94-1.32l-.09-.11Zm-2.83,1a3.31,3.31,0,0,1-.07-1.55c.42.09,1,.18,1.63.28Zm14,11.87c-.58.63-3.55,2.91-3.82,3.12a21.67,21.67,0,0,1-4.05-2.7L209.75,97l.23.1a23.69,23.69,0,0,0,4.79,1.54A4.78,4.78,0,0,1,214.13,99.49Zm1.07,0,.1,2.7-.05,2.16a22.46,22.46,0,0,1-3.86-1.07Zm-5.38-3.94a13,13,0,0,1-4.63-3.76s-.08-.18,0-.27l2.62.33a18.94,18.94,0,0,0,4.14.06c.57-.1,1.64-.18,2.56-.26-.53.38-2.13,1.55-2.47,1.89S210.71,94.75,209.82,95.55Zm2-6.79c-.14-.19-1.13-1.22-1.43-1.54.92,0,2.5-.09,4.11-.31-.08.2-.31.73-.43,1S212.71,90,212.71,90C212.55,89.73,212,89,211.84,88.76Zm0,1.93c-.81.07-1.8.15-2.55.14-.91,0-1.9,0-2.88-.07.5-.63,2.51-3.44,2.51-3.44A22.92,22.92,0,0,1,211.85,90.69Zm-5.86-1c-.22-.48-1.54-2.54-1.86-3,1.27.16,2.6.3,3.71.4C207.55,87.62,206,89.72,206,89.72Zm-1.34,3.38c0-.27,0-.46,0-.46a12.26,12.26,0,0,0,4.06,3.87c-.84.75-2.84,2.22-3.52,2.72a10.49,10.49,0,0,0,0-1.66C205.07,96.72,204.63,93.36,204.66,93.1Zm.53,7.46c.73.58,3.33,2.53,3.77,2.79,0,0,.11,0-.81.52-.47.22-2.34,1.08-2.57,1.2-.19-1.3-.37-4.07-.4-4.51Zm2.13,6.59c-.26-.23-1.45-1.13-1.33-1.22s1.9-.83,2.81-1.21a12.39,12.39,0,0,0,1.44-.72l0,0a17,17,0,0,0,4.2,1.63,15.17,15.17,0,0,1-2.11,2.23,8.09,8.09,0,0,1-2.14,1.31A9,9,0,0,1,207.31,107.14Zm2.1,2.91c-.12,0-1.24-.4-1.31-.44h0a4.1,4.1,0,0,1-1.59-1.17,4.73,4.73,0,0,1-.52-1.4,28.35,28.35,0,0,0,3.63,2.77C210.23,110.28,209.53,110.08,209.41,110.05Zm1.14,0c.28-.1,1.71-1,2.11-1.29,0,0,2.57-2.56,2.57-2.56.08.62.3,2.57-.15,3.28a3.51,3.51,0,0,1-1.92,1.08,7.42,7.42,0,0,1-2.36-.19C210.45,110.32,210.23,110.2,210.55,110.09Zm4.8-12.43a9.08,9.08,0,0,1-4.18-1.36l-.32-.18.52-.43L215.86,92A33.82,33.82,0,0,0,215.35,97.66Zm-2-7.09a3.57,3.57,0,0,0,.57-.65,24.9,24.9,0,0,0,1.54-2.82c.09-.28.24-.28.24-.28.44,0,2.81,2.17,2.81,2.17a10.49,10.49,0,0,1-1.46.81A21,21,0,0,1,213.35,90.57ZM217,86.38l.21-.07c1-.36,2-.7,2.74-1l.22,1.64c.1.72,0,.86-.15,1a9.61,9.61,0,0,1-.81.66l-.28-.45A6,6,0,0,0,217,86.38Zm-1.63-.89a33,33,0,0,1-12.78,0c-4.68-1.11-6.92-2-10.49-4.58a30.57,30.57,0,0,1-7.48-7.59A28.06,28.06,0,0,1,182,68.8s-.29-1.23-.52-1.36a14.12,14.12,0,0,1-2.19-1.19,11.53,11.53,0,0,1-1.8-3.06,3.12,3.12,0,0,1,.06-1.8,2.39,2.39,0,0,1,2-1.28c-1-1.43-.65-4.92-.65-4.92a2.57,2.57,0,0,1,.74-1.68,10.91,10.91,0,0,1,4-1.43c1.46-.29,9.52-1.94,10.53-2.11s1.62-.36,1.78-.36a10.78,10.78,0,0,0,4.76.49s.26,0,.19-1,1.13-6.51,2-7.58a20.49,20.49,0,0,0,1.26,4.37c.42.81,1,4.79,1.17,5.15s.32.42,1.43,0a57.45,57.45,0,0,1,6.06-1.3,16.54,16.54,0,0,1,5.93-.13,35.79,35.79,0,0,0,6.87,1,7.33,7.33,0,0,0,3.14-.42c.16,0,.39.78,1,1.36a10,10,0,0,0,1.75,1.23,10.37,10.37,0,0,1,1.4,1.36c.7.83.85,2,1.26,3.57a3.11,3.11,0,0,0,2.53,2.16c.73.15.95-.32,1.41-.49s.9-.22,2.33.27a2.88,2.88,0,0,1,1.7,2.16s.61,3.33-2.06,5l0,.09h0a6.07,6.07,0,0,1-2.21,1.21c-.56,2.36-2,4.23-4.45,7a34.16,34.16,0,0,1-5.88,5.15,35.67,35.67,0,0,1-4.13,2.26v0l-.17.1h0l-.22.13A39,39,0,0,1,215.42,85.48Zm-35.3-34.85,0-.06a4.13,4.13,0,0,0,.8,1.29,6.58,6.58,0,0,0-2.85,3.21c-.52,1.52-.36,3.6-.52,3.76s-.14,0-.22,0a6.89,6.89,0,0,1-.69-1.55,20,20,0,0,1,.39-10.33,29.64,29.64,0,0,1,3.53-6.67,25.92,25.92,0,0,0-1.07,6.61A9.21,9.21,0,0,0,180.12,50.63Zm60.95,6.3a13.75,13.75,0,0,1-4.13-2.77s3.16,0,4.66,1.43a5.89,5.89,0,0,1,2.14,4.57c0,1.14-.16,1.44-.28,1.51h-.09c-.27-2-1.59-3.2-2.83-3.27s-3.62.53-4.23,0c-1.3-1.2-1-2.14-1.85-3.6a15.78,15.78,0,0,0-1.86-2.26l1.45.92a6.76,6.76,0,0,1,1.34.81,12.44,12.44,0,0,0,2.7,2A5.52,5.52,0,0,0,241.07,56.93Zm-2.33,24c-.49,1.65-2.67,3-4.18,3.72a2.38,2.38,0,0,0-.42.26,16.51,16.51,0,0,1-6,1.59,17.08,17.08,0,0,0,3.18-2.09c1.48-1.26,2.79-4,3.72-7a30.36,30.36,0,0,1,1.63-4.52l.73-1.34.31-.43a8.7,8.7,0,0,1,1.8-2.55,8.49,8.49,0,0,0,1.13-1.39,10.75,10.75,0,0,0-.25,1.36,9.69,9.69,0,0,1-.73,3.08,7.66,7.66,0,0,0-1,2.87C238.47,75.68,239.23,79.28,238.74,80.93Zm2.23-.22-1,1.12a12.81,12.81,0,0,0-.12-3.5,6.69,6.69,0,0,1,.49-6.24l.05-.08a33.11,33.11,0,0,0,1.35,4.28A4.81,4.81,0,0,1,241,80.71Zm1.89-5.12a6.34,6.34,0,0,0-.74-2,7.94,7.94,0,0,1-.73-3.67,11.2,11.2,0,0,1,1.29-4.11,7.66,7.66,0,0,0,1.63-4.25v0c0,.7.09,6.25-.37,7.48,0,0,.95-1,1.19-3.86a22.56,22.56,0,0,0-.12-5.73,22.62,22.62,0,0,1-1-4.2c-.07-1.63.49-2,.51-4.4a12,12,0,0,0-.29-2.49,28.71,28.71,0,0,1,4.2,7.9c1,3.69.61,6,.83,7.48a6.46,6.46,0,0,1-1.12,5.34c-1.57,2.46-4.39,4.24-5.22,6.5Zm3.94-25.07a23.09,23.09,0,0,1,3.74,4.71,15.54,15.54,0,0,1,1,7,8.87,8.87,0,0,1-1.39,3.63,29.56,29.56,0,0,0-.17-3.41,27.67,27.67,0,0,0-1-6.66A25.94,25.94,0,0,0,246.8,50.52Zm-19.23-24c.84.23,1.91.49,1.91.49s2.79.4,6.68,3.39a113.93,113.93,0,0,1,9.18,8.38c-.07.07,2.11,2.11,3.55,4.13s3.08,6.1,3.67,6.9a9,9,0,0,1,1.94,4.37,49.55,49.55,0,0,1,0,9.69,18.61,18.61,0,0,1-2.33,6,51,51,0,0,1-3.5,4.88,31.47,31.47,0,0,1-5.1,4.49,7.36,7.36,0,0,1,.68-2.48,1.53,1.53,0,0,0,.14-.49,12.43,12.43,0,0,1,1.47-2.81c.87-1.12,3.6-4.08,4.06-4.74a1,1,0,0,0,.12-.32,10.69,10.69,0,0,0,1.63-2.72,14.46,14.46,0,0,0,.87-6.56,14,14,0,0,0-3.3-7.72,35.14,35.14,0,0,0-3.5-3.23,13.93,13.93,0,0,1-2.45-3c-.14-.42-1.89-4.26-2.16-4.92A12.61,12.61,0,0,0,238.81,36c-1.53-1.77-4-4.91-5.54-5.93s-4.44-2.49-4.44-2.49l-2.27-1.17S226.73,26.27,227.57,26.5ZM223,25.07c1.39.23,5.31,3.11,5.31,3.11a24.39,24.39,0,0,1,5.31,3.6,56.57,56.57,0,0,1,5.51,7c1,1.53,2.84,7.19,2.84,7.19a33.63,33.63,0,0,1,.9,6.29c0,2.72.24,3.5-.61,3s-3.72-2.33-5.93-2.72l-.19,0h0a16.56,16.56,0,0,1-3.25-.79,3.13,3.13,0,0,1-2.38-3c0-1,.61-6.4.75-7.56h0a15.21,15.21,0,0,0-.26-4.89c-.58-1.68-3.21-4.63-4.63-6.12a56.55,56.55,0,0,0-6.74-5.34S219.71,24.53,223,25.07ZM210,24.68a3.37,3.37,0,0,1,1.59-.74,15.49,15.49,0,0,1,3.85-.1,2.71,2.71,0,0,1,1.6.75.38.38,0,0,0,.18.22s1,.78,1.85,3.72,1.13,7.58.81,8.45c0,0,.23.62.65-2.72s-1.1-7.84-1.1-7.84-.55-1.1.68-.45a59.11,59.11,0,0,1,6,4.79,28.81,28.81,0,0,1,3.69,5.83,15.51,15.51,0,0,1,.49,4.89h0c0,1.39-.08,4.74-1,6.45-1.07,2.09-3,1.55-4.37,1.65a16,16,0,0,1-4.81-.53,7.76,7.76,0,0,0-2.09-.39l1-1.07a4.24,4.24,0,0,0,.68-3.6,15,15,0,0,1-.44-2.77c-.34.49,0,2.53-1.07,4.91s-3.11,2.43-5.1,2.57a37.11,37.11,0,0,0-5.25,1c-1.36.53-1.46-.18-1.46-.18s-.45-2-.68-2.79-.87-2.79-1.1-4.08c-.2-1.12-.29-4.22-.32-5.07a28.09,28.09,0,0,1,1.39-6A23.08,23.08,0,0,1,210,24.68Zm-7.74-.1c4-1,5.67-.29,5.67-.29-1.81.65-3.53,2.66-5.38,4.86a15.19,15.19,0,0,0-3,6c-.36,1.43-.32,2.11-.13,2.11s.29-1.33,1.46-4a22.32,22.32,0,0,1,3.79-5.51A13.69,13.69,0,0,1,207.17,26c.62-.32,1.36-.45.65.36a29.36,29.36,0,0,0-3.43,6.12,12.64,12.64,0,0,0-1,5.52s-1,2.61-1.62,3.94a19.76,19.76,0,0,0-1.43,4.66c-.23,1.33.06,2.14-.32,2.49a3.57,3.57,0,0,1-2.53.16c-.45-.26-1.07-.58-.55-2.2l.68-2.14a10.22,10.22,0,0,1-2,2.62,10.29,10.29,0,0,1-3.76,1.49c-1.88.42-4.63,1.36-4.83,1.43s-1.23.81-1.78-1-.74-6.28,0-8.36a30.14,30.14,0,0,1,3.82-6.87,27.76,27.76,0,0,0,2.11-2.17c.21-.33,3.41-3.43,3.92-3.92a1,1,0,0,0,.2-.13A16.39,16.39,0,0,1,202.25,24.59Zm-10.2,4-.1-.06h0c.07.06.14.09.19.07.26-.1,3.66-2,3.66-2l-2,1.43a36.51,36.51,0,0,0-4.63,4.6,31.87,31.87,0,0,0-4.34,7.71,16.82,16.82,0,0,0-1.23,6.57c.1,1.39,1,2.79.71,3.69s-.94,1-1.26,1.13-1.85-.65-2.27-2c-.12-.39-.23-.49-.31-.45a5.89,5.89,0,0,1-.3-2.83,21.42,21.42,0,0,1,4.73-11.37A30.47,30.47,0,0,1,192,28.57ZM173,45.93a25.31,25.31,0,0,1,5.83-8.68c4-3.69,6.41-4.53,6.41-4.53-.13.32-3.43,4.79-4.08,5.64a26.08,26.08,0,0,0-3.79,5.21,19,19,0,0,0-2.17,6.59h0a7.11,7.11,0,0,1-1.81,2.14c-1.23,1-2.36,3.56-2.49,3.79s-.65,1.36-.68.1S171.35,48.26,173,45.93Zm.25,27c-.11-.19-.27-.44-.33-.6-.33-.83-1-2.62-1.38-3.34a16.09,16.09,0,0,1-1.26-4.37c-.26-1.78-.32-5.77.74-7.22s1.9-4,3.92-5.1c-.06.74-.1,1.44-.13,2.09A10.9,10.9,0,0,0,176.17,60l.16.36a7.63,7.63,0,0,0-1.48,3.36,23.52,23.52,0,0,0,0,8.39c.39,1.91.87,4.11,1.88,5.31A45.53,45.53,0,0,1,173.22,73ZM187.9,86.42a6.38,6.38,0,0,1-3.76-2.88c-1.33-2.11-2.07-4.18-2.49-4.08s.06,1.17.39,1.94A9.19,9.19,0,0,0,185,85s-.94.23-2.72-1.46a21.67,21.67,0,0,1-4.4-5.7c-1.17-2.2-2.88-8.62-2.79-10.91,0,0,1.43,6.83,3.82,8.68,0,0-2.95-5.18-3-10.17,0-3.3.38-4.33.66-4.65l0,.05a3.75,3.75,0,0,0,.14.54,7.54,7.54,0,0,0,.31,3.32,16.21,16.21,0,0,0,1.25,2.47c.11.31.39,1.08.6,1.7.26.81,1.07,3.47,1.36,4.34s2.56,5.89,4.79,8.06,4.83,5,5.38,5.31A6.17,6.17,0,0,1,187.9,86.42Zm4.37.65c-1.78-1.1-7.09-6.62-9-10.2a66.62,66.62,0,0,1-3.5-8c-.13-.32-.55-1.85.36-.62l.91,1.23s1.25,2,3.58,5.2A47.89,47.89,0,0,0,192,82.27a34.51,34.51,0,0,0,5.35,2.86h0l.35.15a1.57,1.57,0,0,1,.6.84,9.78,9.78,0,0,1,.52,2c0,.26-.53.43-.53.43l-1.91-.06A8.84,8.84,0,0,1,192.27,87.06Zm-10.74,51.46c-.22,0-.92.56-1.53.53a6.82,6.82,0,0,1-2.87-.8,5.75,5.75,0,0,1-1.55-2.43,22.54,22.54,0,0,0-1.51-3c-.1,0-.1.15,0,.61s.87,3.13.87,3.13-.41,0-1.43-.75a5.37,5.37,0,0,1-1.85-2.5,14.68,14.68,0,0,1-.53-2.62,21.84,21.84,0,0,0-.83-2.82,7.22,7.22,0,0,1-.68-3.3,4,4,0,0,1,1.31-2.48,18.79,18.79,0,0,1,4.47-5.17,9.23,9.23,0,0,1,6.19-1.68c.22,0,1.36,0,.44.32a13.84,13.84,0,0,0-3.55,2.21,7.47,7.47,0,0,0-1.19,2.65c-.1.68-.83,2.26-.7,2.31s.32-.32.78-1.24a10,10,0,0,1,2.91-3.91,6.49,6.49,0,0,1,4.45-1.31c1.77.1,1.63.8,2.19,1.17a10.17,10.17,0,0,1,2.19,1.24,2.4,2.4,0,0,1,.78,1.94s0,.09,0,.14l-1.75-1.49h0a2.58,2.58,0,0,0-3.44-.19,9.54,9.54,0,0,0-2.21,1.6,18.59,18.59,0,0,0-2.79,14.16c.29,1.58,2.36,3.72,2.36,3.72Zm5.7-18.37-2.29-.09,0,0,1.39-.58C186.59,119.61,187.23,120.15,187.23,120.15Zm-3.43,17.71c0,.36-.47.87-.74.69a2,2,0,0,1-.24-2.77c.46-.68,1.61-.55,2-.49C184.77,135.43,183.86,137.51,183.81,137.86Zm1.53-6.27a19.38,19.38,0,0,0,.66,2.65c.14.21-.37,0-.53,0l0,0c-.29,0-1.68,0-2.21.1a2.25,2.25,0,0,1-2-.63c-.68-.7-.7-1.75-.68-3.62a20.92,20.92,0,0,1,1.46-6.95,3.88,3.88,0,0,1,2.65-2.19l0-.06c.6,0,3.21,0,3.79.14a2.06,2.06,0,0,1,1.21.61c.07.15-.68,0-1.7.85a9.66,9.66,0,0,0-2.33,4.08A14.55,14.55,0,0,0,185.34,131.59Zm1.31.49c-.27.17-.36-2.79-.12-4.28a12.23,12.23,0,0,1,1.77-4.23,3.22,3.22,0,0,1,1.88-1.09,5.8,5.8,0,0,0,3.64.49c2.11-.39,2-.58,4.15-2.23s2.16-4,2.5-5,.22-2.89,1.36-2.7,1.07,2.31,1.21,3.52a13.48,13.48,0,0,1-.17,3.06l-.09,0c-.34.15-1.54.67-2,.87s-.92.34-.92.66.22.27.61.12a6.54,6.54,0,0,1,2.45-.58,3.15,3.15,0,0,1,2.4,1.21c.29.53,0,1.21-.75,1.65a9.3,9.3,0,0,1-2.87.61c-.22,0-.39.22,0,.39a2.12,2.12,0,0,0,1.43.12,6.4,6.4,0,0,0,2.6-.92c.39-.39.78.24.9.66a1.55,1.55,0,0,1-.56,1.94,11,11,0,0,1-2.77.85c-.51.1-1,.32-1.09.46s.17.27.63.34,1.85-.34,2.55-.39a8.22,8.22,0,0,0,1.41-.24,3.3,3.3,0,0,1-.17,1.77c-.36.7-.32.9-.8,1s-2.89.39-3.26.56-.66.34-.53.53.68,0,1.17,0a18.85,18.85,0,0,1,2.55-.24c.17.15.1.56-.46,1s-.24.9-3.84,1.63A21.44,21.44,0,0,1,195,134c-.92,0-3.55-1.21-4.74-1.41S186.92,131.91,186.65,132.08Zm1.11,22.06c-.19-1-.68-1.81-.23-2.43s.36-1,2.49-1c.54,0,1.21,0,1.94.09-.44.55-3.31,4.18-4.06,5.3A15,15,0,0,0,187.76,154.13Zm2.07,5.28c-1,0-1.48.06-1.7-.4.07-.22.06-1,.21-1.52.19-.71,3.9-6,4.39-6.12s.78.6,1.23,1.7,1.65,4.62,1.85,5.39a10.65,10.65,0,0,1,.2,1.19C193.55,159.52,190.55,159.39,189.83,159.41Zm38.72-.56c.11.34-.33.52-.83.64a88,88,0,0,1-8.94.81c.27-.6,3.46-7.67,3.87-7.76S228.36,158.24,228.55,158.85Zm-4.82-7c.66,0,.94-.09,1.42-.13a54.15,54.15,0,0,0,7.5-1.19c-.1.68-.84,5-3.19,7.88,0,0-.29-.24-.87-.8A44.48,44.48,0,0,1,223.73,151.81Zm-5.9,8s-.1.19-.49-.71-2.94-5.79-3-5.94-.32-.51-.32-.51-.09-.47.09-.55h1c1.4,0,4-.1,6.52-.18A28.28,28.28,0,0,1,217.83,159.76Zm-1.1.49a17,17,0,0,1-2.23.06s-4.35.05-5.69.09v0h0a29.85,29.85,0,0,0,1.5-2.8c.34-.86,1.64-4.26,1.88-4.58s.71-.45,1.21.48A22.55,22.55,0,0,1,216.73,160.25Zm-7.27-2.79a4.73,4.73,0,0,1-2,2.63l0,0a8,8,0,0,1-.72-.36A13.24,13.24,0,0,1,206,158a52.89,52.89,0,0,0-2.1-5.87l1,.11c.35,0,3.49,0,6.12-.07A50,50,0,0,1,209.46,157.45Zm-3.74,2.62c0,.15,0,.28-.39.33-1.35-.11-5-.41-6.14-.54l-1.19-.1a15,15,0,0,0,2-3,18.33,18.33,0,0,1,2.57-4.32c.39-.21.45-.34,1,1S205.7,159.92,205.72,160.08Zm-8.42-1c-.45.39-2.25-7-3.26-8.1,1.49.15,2.79.32,3.05.37s2.36.27,4.31.48C201,152.63,197.74,158.7,197.3,159.07Zm2,39.34c-.17-.73-.31-1.31-.38-1.6a6.57,6.57,0,0,1-.21-2c.35.57,1,1.15,3.08,1.86,3,1,9.86.1,9.86.1s-2.23,2.28-7.09,2.48C201.29,199.37,199.9,198.74,199.35,198.41Zm-.18-4.64,0,0A17.39,17.39,0,0,0,209.31,195a15.22,15.22,0,0,0,2.84-1c.12,0,.29.06.36.25a5.93,5.93,0,0,1,.08.88,16.66,16.66,0,0,1-9.36,1.12C200.54,195.71,199.5,194.38,199.16,193.77Zm3.08,12.85.06,0-1.35.24h0s-1.43.21-1.61-.44S201.93,206.51,202.25,206.62ZM199.94,201c.79.66,2.3,1.09,4.38,1.59,2.43.58,7.34-.29,6.95,0a8.27,8.27,0,0,1-1.55.68,19.31,19.31,0,0,1-9,.94v0Zm-6.49,3.37a10.57,10.57,0,0,1,2,.31l0,0s2.16.88,2.26,1.47-1,.71-1.12.76c-.65.06-1.91,0-1.94-.19a2.06,2.06,0,0,0-.49-1.13C193.8,205.2,193.06,204.46,193.44,204.33Zm-4.73,1.43c.26-1.33,2-1.91,2-1.91h0l.84,0a5,5,0,0,1,1.82,1.91,1,1,0,0,1-.29,1.46,16.86,16.86,0,0,1-4.24,1.07C188,208.34,188.46,207.08,188.72,205.75Zm-4.37.34a2.38,2.38,0,0,1,.54-1,7.86,7.86,0,0,1,3.41-1.18c-1,.85-1.23,4.35-1.23,4.35a2,2,0,0,1-1.75-.28C184.86,207.74,184.1,206.82,184.34,206.09Zm-2.07,4.06a6.54,6.54,0,0,1,.13-1.33,1.9,1.9,0,0,1,.53-.53.74.74,0,0,1,.57.21,6.61,6.61,0,0,0,3.5,1.33,17.39,17.39,0,0,0,0,2.2c.1.39-.11.33-.41.34h-.24c-1.94-.1-3.07-.46-3.84-1.66A2.68,2.68,0,0,1,182.27,210.15Zm5.38,6.13-.19,0c-1.92-.42-3.83-1.23-4.55-2.58-.06-.29,0-.56.13-.63.38-.13,1.63.72,4.25.86a3,3,0,0,0,.07,1.28C187.54,215.54,187.77,216.13,187.65,216.28Zm.76-4.07c-.1-.32-.31-2.39,0-2.58,0,0,.16.1,1.23-.06s4-1,4.5-.49.65,2.4.16,2.79a1.47,1.47,0,0,1-.42.22l-.38.09-.25,0c-1.22.11-2.43.19-3.57.19h-1.07C188.48,212.4,188.45,212.34,188.41,212.22Zm5.94,3.57-.05,0-1.39.24h-.3l.07,0c-.88.13-1.81.24-2.69.29.06-.11-.77-.09-1-1.07s0-1.33.49-1.43l0,0,1.64-.14,0,0s3.21-.45,3.6,0A1.53,1.53,0,0,1,194.35,215.79Zm1.1-7.58c.19-.39,1-.39,1-.39h0c.24,0,1.26,0,1.7,0a2.17,2.17,0,0,1,.92.31,4.86,4.86,0,0,1,1.13,3,30.45,30.45,0,0,1-4.07.73,3,3,0,0,0-.11-1.28C195.81,209.67,195.26,208.6,195.45,208.21Zm5.08,5.8a1.76,1.76,0,0,1-1.12,1c-1.23.15-2.39.29-3.3.45a11.92,11.92,0,0,0,.24-1.39c0-.49,0-.71.39-.84s3.34-.68,3.66-.45S200.67,213.52,200.54,214Zm.71-4.89c-.36-.81-.45-1-.06-1a7.71,7.71,0,0,0,1.88-.06c.71-.16.87-.49.87-.49a6.37,6.37,0,0,1,1.46,2.79v.08c-.94.21-2.08.42-3.55.63A12.81,12.81,0,0,0,201.25,209.12Zm3.8-2.09a19.31,19.31,0,0,0,3.56.24.39.39,0,0,1,.21.1,8.09,8.09,0,0,1,.7,1.65h0a12.13,12.13,0,0,1-1.68.71l-1.1.33A6.21,6.21,0,0,0,205.05,207Zm-.24,7a1.92,1.92,0,0,1-.41.33l-.63.09-1.09.13c-.35,0-.78-.09-.76-.36,0-.45.16-1.55.16-1.55s-.13-.19.28-.26a27.22,27.22,0,0,0,3.32-.4A4.56,4.56,0,0,1,204.81,214.08Zm4.9-2.26a3.41,3.41,0,0,1-1,1.9l-2,.35a3.2,3.2,0,0,0,.46-2.3,12.68,12.68,0,0,0,2.49-.81l.19-.09A3.83,3.83,0,0,1,209.72,211.81Zm.19-4.78a7.57,7.57,0,0,0,2-.91,1,1,0,0,1,.27.12l.17.13a1,1,0,0,1-.26.84,5.52,5.52,0,0,1-1.44,1.19,4.07,4.07,0,0,0-.32-.71Zm1.74,4.89a3.72,3.72,0,0,1-1,1.42l-.08,0a3.94,3.94,0,0,0,.55-2.12,6.46,6.46,0,0,0-.05-1,4.09,4.09,0,0,0,1.44-1A9.54,9.54,0,0,1,211.65,211.92Zm.92-8c-.24,1-2,1.89-2.28,2-.05,0,0,0,.09,0a13.27,13.27,0,0,1-3.34.44,11,11,0,0,1-4.81-1,20.43,20.43,0,0,0,7.19-1,13.78,13.78,0,0,0,3.25-1.59A7.56,7.56,0,0,1,212.57,203.91ZM208.25,202a18.83,18.83,0,0,1-7.87-1.89,26.71,26.71,0,0,0,7.82-.39,15.35,15.35,0,0,0,4.47-2.13c0,.92,0,1.93,0,2.87C212.48,200.83,211.59,201.92,208.25,202Zm2.67-8.65c-2.43,1-6.66,1.7-9.23.39a10.73,10.73,0,0,1-1.65-1.46c-.68-.78-3.06-6.66-3.21-6.56s.78,4.62,1.75,5.39c0,0,.53.44.49.78s-1.85-.29-2.72-2.23a34.9,34.9,0,0,1-2.28-11.13l-.34-5.25s2.62,2.57,3.06,2.14-1.6-1.51-2.57-3.11a27.31,27.31,0,0,1-1.73-3.73h0l-.36-1.25a34.32,34.32,0,0,1-.81-3.7c-.06-1.33-.1-2.14.81-2.49a7.69,7.69,0,0,1,3.5-.52c.94.19,5.44,1.07,6.57,1.26a21.25,21.25,0,0,0,2.75.25h.26l2.25.45v0a4.66,4.66,0,0,1,1.39,1.91.91.91,0,0,0,.11.22,15.37,15.37,0,0,0,.44,1.49c.29.78,1.94,10,2.38,12.92s1.46,9.47,1.55,11S213.35,192.29,210.92,193.31Zm2.38,19.58s-.1-.39.44-.15a4.13,4.13,0,0,0,2.09.34h0s.16,0,.25.33a7,7,0,0,1,.16,2.09.53.53,0,0,1-.62.41,2.64,2.64,0,0,1-1.7-.64A2.88,2.88,0,0,1,213.3,212.89Zm6.36-13.51a49.58,49.58,0,0,0,6.27-.1c-4.66,2.14-10.7,1.06-12,.72,0-.45,0-.87-.05-1.2s0-.87,0-1.35A11.35,11.35,0,0,0,219.66,199.39Zm-5.7-3.91a8.16,8.16,0,0,1,.16-1c.23-.95.33-1.52,1-1.67a5.31,5.31,0,0,0,1.57,1.19,16.77,16.77,0,0,0,7.72,1.36,13.71,13.71,0,0,0,4.08-.92,20.2,20.2,0,0,1-9.57,2.23C215.34,196.58,214.28,195.88,214,195.48Zm10,12.34a3.17,3.17,0,0,1,1.37-.3,10.79,10.79,0,0,1,2.44.13c.68.23,1.45,2.2,1.41,2.3a41.5,41.5,0,0,1-5,.13,1,1,0,0,1-.52-.75C223.57,208.78,223.49,208.12,224,207.82Zm-.44-.9a.68.68,0,0,1-.19-.81.61.61,0,0,1,.25-.18c.77,0,1.52-.06,2.21-.07a1.15,1.15,0,0,1,.41.15c.32.18.57.68.51.77s-1,0-1.55.06A6.7,6.7,0,0,1,223.53,206.92Zm3.57-3a3.82,3.82,0,0,1-2.28,1.07c-.92.15-3.69.29-4.71.44a26,26,0,0,1-4.32.39c-1-.1-1.51-1.75-1.6-2.38,0-.32-.11-1.15-.16-2.07l0,.07c1.36,1.51,3.45,1.94,6.66,2.19a29.25,29.25,0,0,0,7-.56A3,3,0,0,1,227.1,203.91Zm-12.75,7.28c0-.35.64-.66,1.06-.83s1.08-.53,1.14-.55a6.69,6.69,0,0,0-.47,1.72,4.42,4.42,0,0,1-1.42.12h0A.46.46,0,0,1,214.34,211.18Zm1.91-2.44a8.82,8.82,0,0,0-2.23,1.32,2.25,2.25,0,0,1,.06-1.1,3.25,3.25,0,0,1,.53-.78,7.47,7.47,0,0,1,1-.92,6.54,6.54,0,0,1,.68-.31,2.3,2.3,0,0,1,1.12,0s.06,0,0,.27a5.88,5.88,0,0,0-.27,1C217.09,208.44,216.48,208.63,216.25,208.74Zm2,.58c.87-.76,1.68-1.08,3.74-1.35a7,7,0,0,0,.51,2.22c.06.13-.09.19-.66.32s-3.7.73-4.45.81A2.77,2.77,0,0,1,218.22,209.32Zm.33-2a4.71,4.71,0,0,1,3.68-1.06h0a3.12,3.12,0,0,0-.23.8,10.9,10.9,0,0,0-3.42.72S218.11,207.78,218.55,207.28Zm-2.65,12.23a2.11,2.11,0,0,1-.75-.15,3.27,3.27,0,0,1-1.65-2.22c0-.18-.07-.39,0-.43s.9.38,1.83.46a8.27,8.27,0,0,1,1.24.1,9.07,9.07,0,0,1,.78,2.05C217.34,219.43,216.51,219.51,215.89,219.51Zm1.34-4.94c0-.38-.22-1.38,0-1.7s2.2-.44,2.61-.53,2.71-.46,3-.46h0s.11,0,.29.29a18,18,0,0,1,1.08,3.44s0,.39-.63.51-4.42.11-4.42.11-1.34.07-1.63-.22A2.57,2.57,0,0,1,217.23,214.57Zm7.54,3.64c0,.5,0,1.12-.35,1.32a2.45,2.45,0,0,1-1.1.13c-1.31-.12-2.77-.13-4.09-.12a1.13,1.13,0,0,1-.73-.62,4.47,4.47,0,0,1-.66-1.69c0-.22.64,0,2,.09s4.14,0,4.4,0A.83.83,0,0,1,224.78,218.21Zm.64-3.08a15.7,15.7,0,0,1-.86-3.38c.13-.36.78-.26,1.45-.22s3.28-.32,3.81-.24.91.94,1.12,1.3.58,1.17.71,1.51h0a1.35,1.35,0,0,1-.16,1.25c-.44.56-.87.81-2.6.77a10.53,10.53,0,0,1-3.16-.57C225.85,215.39,225.59,215.64,225.42,215.13Zm5.71,3.8a2.42,2.42,0,0,1-.85.69,23.69,23.69,0,0,1-3.09.27,1.08,1.08,0,0,1-.73-.72c-.11-.58-.15-1.68.07-1.79s2.19-.06,3-.13a13.62,13.62,0,0,0,2.31-.52C232.1,216.61,231.77,218.19,231.13,218.93Zm4.77-4.47a4.88,4.88,0,0,1-.54,2.76,4.73,4.73,0,0,1-2.74,1.85,6.12,6.12,0,0,0,.54-2.69,5.67,5.67,0,0,0,2.19-1.15A1.85,1.85,0,0,0,235.89,214.46Zm-.53-2.33,0,.11a3.61,3.61,0,0,1-1.3,2.42s-.73.56-1.08.41-.26-.92-.41-1.22h0a21.68,21.68,0,0,0-1.11-2.15c-.21-.21,0-.28.28-.19S234.87,211.94,235.36,212.13Zm-2.34-3c.47.35,1.24,1,1.17,1.19s-2.84-.17-3.13-.23a.75.75,0,0,1-.64-.43c-.18-.33-1.21-1.55-.9-1.59A17.84,17.84,0,0,1,233,209.14Zm-3.41-3.05c.82.29,1.09.55,1.18.8a.35.35,0,0,1-.25.34,3.61,3.61,0,0,1-2.17-.47,3.94,3.94,0,0,1-.83-.89A8.89,8.89,0,0,1,229.62,206.09Zm-1.36-4.43c-.64.43-2.22,1.12-5.73,1.22-5.1.15-6.8-1.41-6.8-1.41a14.17,14.17,0,0,0,6.07,0A32,32,0,0,0,229,199,27.28,27.28,0,0,1,228.26,201.66Zm1.22-4.75,0,.23c-.57.53-2,1.23-6.57,1.23-6.46,0-7.68-1.36-7.68-1.36a22.36,22.36,0,0,0,7.58.19,15.25,15.25,0,0,0,6.62-2.48A3.82,3.82,0,0,1,229.48,196.91Zm5.88-33.28s0,6.95-.49,9a6.75,6.75,0,0,1-1.21,2.57c0,.19.68.1,1,2.14a46.47,46.47,0,0,1-.68,11,6.31,6.31,0,0,1-3.3,4,8.42,8.42,0,0,0,1.94-4.18c.44-2.62,0-4.76-.15-4.76s-.19,2.72-.83,4.81-3.45,4.23-5,5l-.24.14a7.44,7.44,0,0,1-3.7.88c-2.38,0-3.35,0-4.18-3.35a12.14,12.14,0,0,1-.29-1.85V189a4.54,4.54,0,0,0-.1,2.53,9.13,9.13,0,0,0,.87,2.38c.24.29-1.6-.15-2.43-1.12s-1.89-3.11-2.77-9-3-18.54-3.17-19.45a.91.91,0,0,0-.09-.25,1.51,1.51,0,0,1,.19-1.5c.62-.62,1.43-.65,3.47-.45s6.9.52,9.39,0S232.86,160,234,160s1.3.71,1.43,1.91Zm-1.3-5.46a20.33,20.33,0,0,1-3.31.83l.17-.08a2.3,2.3,0,0,1-.71,0c-.16-.06,2.72-3.85,3.47-7.74,0,0,2.36,3.14,2.72,5.34C236.39,156.55,236.2,157.3,234.06,158.17Zm5.08-2.87c0,.89-.49,1.27-1.4,1.62,0,0-1-2.35-1.86-4.26a7.88,7.88,0,0,0-1.7-2.56,27.81,27.81,0,0,0,4-1.51c.19-.23.45,1.27.64,2.47A33.22,33.22,0,0,1,239.14,155.31Zm8-35.67c-.08,1.12-.26,2.42-.3,3.71h0a12.12,12.12,0,0,0-2.46-.94c-1.55-.52-4.86-.58-6.06-2.2s-1.46-2.43-.42-4.66,2-6,1.81-6.45-.52.65-1,1.68-2,3.89-2.27,4.47a5.1,5.1,0,0,0-.45,1c0,.1-.29.23-.71-2.36s.06-3.85-.39-5.77-1.46-5.64-1.55-4.08c0,0,.49,3.34.68,5.25s.29,5.51.55,6.45,2.2,4.76,2.46,5.77a53.21,53.21,0,0,1,.19,6.35c.06,2.62.49,4.37.71,7.16s.55,11.08.52,11.63-.74,1.05-1.29,1.44c0,0-4.42,1.44-6.54,1.84a130.73,130.73,0,0,1-15.46,1.33h0s-7.55,0-10-.19-6.54-.71-8.36-.87-6.9.1-8.16-.49-1.17-2.75-1.3-3.79a2.81,2.81,0,0,0-.09-.42c0-1.09-.07-3.47,0-4.25,0-1,.34-2.62.36-3.13s0-2.72,0-2.72a.61.61,0,0,0,.63-.12c.29-.27.24-1.26.19-1.38a10.36,10.36,0,0,1,3.43.39,40.22,40.22,0,0,0,7.63.58,12,12,0,0,0,6.1-1.34,5.37,5.37,0,0,0,1.89-2.45,4.58,4.58,0,0,0,.49-2.72c0-.78-.29-1.38-.32-2a7.69,7.69,0,0,0,0-2.23,2.87,2.87,0,0,0-.85-1.21,1.85,1.85,0,0,0-.49-1.7,3.43,3.43,0,0,0-1.94-1c-.37-.16-.59-.07-.54-.93a.26.26,0,0,0,0-.13c-.07-.44,0-2.57-.15-4.18a3.12,3.12,0,0,0-1.36-2.38c-.27-.19-2.23-1.24-2.5,1.17a12.55,12.55,0,0,1-1.63,5c-.68,1.29-2.74,2.4-3.81,2.94a3,3,0,0,1-2.53.32c-.66-.27-.73-.75-.78-1.29a5.14,5.14,0,0,0-.53-2.26,4.12,4.12,0,0,0-1.72-1.41c.41-2.31.24-8.84.29-9.52s.1-2.91-.15-2.84-.49,2-.49,3.23-.07,1.92-.73,2.09-1.12-1.94-1.31-1.77-.1.29.15,1.51a11.29,11.29,0,0,1-.2,3.85,1.35,1.35,0,0,1-1.17.87,14.15,14.15,0,0,1-2.72-.39,15.41,15.41,0,0,0-6.35,1,8.59,8.59,0,0,0-2.95,2.46c-.23.49-2.69,3.14-3,4.28s-1.2.68-1.26.06a16.84,16.84,0,0,1,.1-3.5,38.07,38.07,0,0,1,1.46-4.66,34.62,34.62,0,0,1,1.68-5.34,16.27,16.27,0,0,1,3.5-4.37c.91-.87,5.51-4,6.54-4.89A34,34,0,0,0,185,96c.36-.36,2.57-2.37,2.57-2.37a16.42,16.42,0,0,1,5.56-2.78s.92-.07,1.29-.12,3.84-1.38,4.32-1.46a1.19,1.19,0,0,1,1.18.34,6.1,6.1,0,0,0,1.48.94,2.13,2.13,0,0,0,.68.16h0a3.58,3.58,0,0,1,1.65,2.34,57.91,57.91,0,0,1,.4,7h0a56.64,56.64,0,0,0,1,8.18c.41,1.4.89,1.43.89,1.43h0a13.55,13.55,0,0,0,3.07,1.33,6.26,6.26,0,0,0,3.26.52,5.89,5.89,0,0,0,2.48-.69h0a2.9,2.9,0,0,0,1-.55,1.74,1.74,0,0,0,.41-1.14l-.17-10.3s.15-5.37.92-6.66a6,6,0,0,1,1.5-1.79l.55-.26h0a4.5,4.5,0,0,0,.89-.53,8.39,8.39,0,0,1,2-.71,7.75,7.75,0,0,1,4.57.93h0l.3.17c.71.4,4,1.64,5.1,2.27s2.72,2,3.79,2.51,2.09,1.1,3.48,1.89c.64.37,2.11,1.05,2.95,1.44s5.62,1.89,6.87,2.43,4,1.8,4.55,2.17.34.79.19,1-.61.31-.89.62a18.53,18.53,0,0,0-3.11,4.81A56,56,0,0,0,247.11,119.64Zm14.43,10.95c-.08.34-.08.66-1.23.5a11.82,11.82,0,0,1-3.35-.71,5.78,5.78,0,0,1-2.93-2.27c-.92-1.6-1.41-5.93-1.46-6.46s-.45-.7-.39.23-.15,3.58-.1,4.44a7.84,7.84,0,0,0,.65,2.33c.13.24-.29.37-.76.29A5.9,5.9,0,0,1,248.8,127c-1-1.26-.65-4.76-.63-5.6s.49-4.74.66-5.52,1.2-3.47,1.7-4.71a29.15,29.15,0,0,1,3-5.72,3.23,3.23,0,0,1,3.08-1.47,23.74,23.74,0,0,1,2.57,1.28c.31.23.58.34-.21.42a5,5,0,0,0-2.8.89,5.42,5.42,0,0,0-1.78,2.49c0,.31.21-.06.4-.42a4.15,4.15,0,0,1,1.89-1.88,7,7,0,0,1,4.37-.1c1.85.52,3.3.7,3.79.86s1.93.37,1.93.78-.15.19-1.43,1.21a14.62,14.62,0,0,0-2.51,2.82,16.72,16.72,0,0,0-2.51,7.14,31.26,31.26,0,0,0,0,5.41,20.31,20.31,0,0,0,.34,3.45C261,129.41,261.62,130.25,261.54,130.59Zm3.55-4.57a19.08,19.08,0,0,1-.81,3.68c-.4.62-1,1-1.39.91s-.76-.28-1.2-2.23a12.2,12.2,0,0,1-.06-3.89h0a.6.6,0,0,1,.31-.52c.31-.19,1,.08,1,.08a8.51,8.51,0,0,1,2.28.62C265.49,125,265.17,125.73,265.09,126Zm2.44-8.13h0s-.44,2.46-.52,3.66-.1,1.68-.42,1.81a6.83,6.83,0,0,1-2.17-.1h-.06c-2.67-.53-3-1.13-3.06-1.38a12.32,12.32,0,0,1,.18-3.76,23.53,23.53,0,0,1,1.89-5,1.37,1.37,0,0,1,.31-.45s1.33-1.41,1.73-1.73a1.34,1.34,0,0,1,1-.34h0l1.9.63v0s.79.1.86.44a7.87,7.87,0,0,1-.54,1.95.42.42,0,0,0,0,.11S267.68,116.92,267.53,117.89Zm4.43-2.3a2.07,2.07,0,0,0-.53,1.83c.06.31.26.45.23.58a1.93,1.93,0,0,0-.49,1.18c0,.83.76,1.6.76,1.86s-.19.44-.24.94a3.33,3.33,0,0,0,.21,1.25c0,.15-.06.21-1.23-.08s-2-.36-2.54-1.38.24-4.19.24-4.19l1-3.32.5-1.1s1.3.45,1.7.55a8.91,8.91,0,0,0,2.12.39c.83,0,1.34,0,1.34.15s-.55.37-.71.53S272.65,114.7,272,115.59Zm1,7.84a1.91,1.91,0,0,1,0-1.33,9.93,9.93,0,0,0,3.64,1,13.19,13.19,0,0,0,5.31-.57c.29-.16.55-.36-.34-.24a25.26,25.26,0,0,1-6.51-.53c-1.75-.52-2.17-1-2.61-2.2,0,0-.18-.68,0-.76s.62.49,1.47.78a18,18,0,0,0,4.91.29,6,6,0,0,0,3.13-.83c.31-.36.37-.78.08-.83a14.05,14.05,0,0,1-3.42.57,10.32,10.32,0,0,1-5.47-.84c-.86-.44-.94-1-.78-1.26a1.9,1.9,0,0,1,1.43-.86c.86-.1,4.24-.13,5.13-.15a4.16,4.16,0,0,0,1.94-.68.23.23,0,0,0,.11-.11,2.22,2.22,0,0,1,2.43,0c.74.4.86,1.54.86,2a1.78,1.78,0,0,0,.65,1.3,2.58,2.58,0,0,1,.45,2c0,.83-.68,1.43-.87,2.07s0,1.46-.37,2.06a2.7,2.7,0,0,1-1.1.92c-.32.23-.47.44-.94.83a5.76,5.76,0,0,1-3.76,1,8.88,8.88,0,0,1-3.43-.66,3.29,3.29,0,0,1-.4-.29s-.5-.44-.15-.68,1,.34,2,.55a10,10,0,0,0,3.64-.11c.68-.23,1.15-.52,1-.6a13.52,13.52,0,0,1-3.19,0C276.26,124.89,275,125.37,272.91,123.43Zm1.44,7.76s.16-2.28.24-3.22.44-.76.44-.76a3.45,3.45,0,0,1,1,.21.59.59,0,0,1,.37.62s-.39,4.31-.39,4.31-2.47,27.92-4.46,50.42c-1.12.18-1.41-.25-1.43-.28ZM270,183.79a3,3,0,0,0,1.44.1L271,189c-1.07.16-1.37-.24-1.4-.29Zm-2.32,28,1.8-21.74a3,3,0,0,0,1.41.11c-1,11.29-1.75,19.9-1.8,20.52-.15,1.89-.34,2.33-.92,2.28S267.66,211.75,267.66,211.75Zm1.07,2.28c1.12,0,1-1.26,1-1.26L270,210c2.17.4,8.92,1.59,9.11,1.79s-.63,1.49-.63,1.49-2.08,3-2.65,3.63-2.31.35-2.91.2-13.6-2.19-13.69-2.27-1.47,0-1.14-.95,3.55-4.87,3.55-4.87a3.4,3.4,0,0,1,1.8-.18c.75.09,2.28.41,3.26.62-.12,1.26-.19,2-.22,2.17-.29,1.7.15,1.89.15,1.89A4.87,4.87,0,0,0,268.73,214ZM280,212.93a1.32,1.32,0,0,1,1-.38c.64,0,10.19,1.71,11.08,2s.61.7.61.7-3.15,3.77-3.65,4.25-.52.73-1.5.62-9.47-2.34-10.77-2.62l.57-.61A32.69,32.69,0,0,0,280,212.93Zm-22.67.73a2.77,2.77,0,0,1-1.08.37c-.87.1-8.79-1.54-8.79-1.54s-1.35-.15-1.1-1.09,3.58-3.94,4.24-4,8.72.72,9.37,1.09.61.51.56.77a12.73,12.73,0,0,0-2,2.39C258.12,212.41,257.62,213.18,257.31,213.66Zm-15.87-.25c.4-1.79,7.51-7.91,8-8.13a5.62,5.62,0,0,1,2.15-.28c.67,0,11.33,1.57,14.79,2.07a2,2,0,0,0,.59,0l-.12,1.38c-1.59-.26-4.72-.78-5.25-.75,0,0-9.9-1.33-10.68-1.4s-1.39.39-2.31,1.27a24.32,24.32,0,0,0-3.41,4.17c-.11.51-.17.91,1.1,1.34s10,2.12,10.71,2.27c1.16.43,17.11,3.24,17.83,3.37.47.25,11.56,2.54,12.46,2.6a3.18,3.18,0,0,0,2.45-.62c.52-.56,4.2-4.81,4.41-5.56s-.7-1.44-1.61-1.69-11.21-1.89-11.21-1.89l-1.49-.43c-.42-.18-7-1.49-9.7-2l.12-1.36,17,3.17c3,.47,4.38.73,5.87,1,1.1.27,2.68.68,3.32.92a1.45,1.45,0,0,1,.55,1.18c0,.75-1,1.75-1.48,2.47s-4.59,6.13-5.18,6.53a5.47,5.47,0,0,1-3.42.32c-1-.29-43-8.62-44-8.86a2.6,2.6,0,0,1-1.51-.85C241.4,213.58,241.42,213.49,241.44,213.41Zm48.94,12.67a3.32,3.32,0,0,1-1.22.1c-1.57-.15-44.36-8.24-45.93-9a3.12,3.12,0,0,1-1.86-2.17,14.84,14.84,0,0,0,2.12.61c.74.19,43.72,8.64,44.67,8.73s1.85-.05,2.15.41A1.32,1.32,0,0,1,290.38,226.08Zm6.37-7.38c-.66,1-3.83,5-5,6.49a.47.47,0,0,1-.56,0,3,3,0,0,1-.32-1.35l7-9.24a4.47,4.47,0,0,1,.11.66A5.53,5.53,0,0,1,296.75,218.7Z" fill="#693023"/><circle cx="191.81" cy="157.16" r="0.66" fill="#693023"/><circle cx="197.71" cy="153.08" r="0.66" fill="#693023"/><circle cx="202.47" cy="158.19" r="0.66" fill="#693023"/><circle cx="207.49" cy="154.34" r="0.66" fill="#693023"/><circle cx="228.77" cy="153.56" r="0.66" fill="#693023"/><path d="M231.18,176.28c-.36-.23-2.85,1.49-3.85,1.88s-3.85,1.33-3.85,1.33c.16.81,3.22.11,4.6-.36a6.67,6.67,0,0,0,2.62-1.55C231.47,177,231.54,176.51,231.18,176.28Z" fill="#693023"/><path d="M165.14,164.26a1.48,1.48,0,0,1-.15-1.66,12.76,12.76,0,0,1,3.14-3.65,9.6,9.6,0,0,1,4.68.77c1.29.7.18,2.43,0,3.5s-.66,4-1.18,3.84S165.14,164.26,165.14,164.26Z" fill="#fb8005"/><path d="M159.9,168.17c.07-.15,1.62-3.32,4.21-3.47a8.24,8.24,0,0,1,5,1.07c.89.55,1.33.55,1.18,1.48s-1,1.51,0,2.18a25.33,25.33,0,0,1,3.06,1.88c.55.59,1.33,1.77,1,2.18s.07,1.22-1.88,1.44a83.64,83.64,0,0,1-11.8-.48c-1-.3-1-.89-1.07-1.18S159.9,168.17,159.9,168.17Z" fill="#e0dbd1"/><path d="M159.61,175.21a5.15,5.15,0,0,0,1.55,1.84,4,4,0,0,1,1.7,2.91c0,.89.41,9.07.41,9.07s11.32-1.33,11.32-1.51-.15-12.87-.07-13.09-.7,0-1.73.11-9,.85-11.58,0S159.61,175.21,159.61,175.21Z" fill="#d0a074"/><path d="M152.53,175.07s-.15,1.18,1.92,1.29,4.8-.3,4.94-.92a3.83,3.83,0,0,0-.44-2.18,22.46,22.46,0,0,0-5.05-.41A2.85,2.85,0,0,0,152.53,175.07Z" fill="#f3dec5"/><path d="M150.75,180.38s-1.29-1.44-.33-2.62a3.32,3.32,0,0,1,3-1.59c1.36,0,5.9.18,6.16.18a2.45,2.45,0,0,1,2.1,1.18,12.71,12.71,0,0,1,1.59,5.24c0,1.36,0,6.27,0,6.27l-8.41,1.22-2.18-1.36s0-2.18-.07-2.62S151.53,181.37,150.75,180.38Z" fill="#e0dbd1"/><path d="M152.45,183.22a14.74,14.74,0,0,0,5,.37c2.69-.33,2.88-.33,2.88-.33s.37.07.41,2.25,0,3.91,0,3.91l-6.23.89a10.41,10.41,0,0,1-1.88-1.25C152.6,188.83,152.45,183.22,152.45,183.22Z" fill="#fff"/><path d="M135.11,174.11a1.82,1.82,0,0,1-1.33-1.66,14.73,14.73,0,0,1,.59-4.65,6,6,0,0,1,2.77-.55c1.33,0,2.62.33,2.62.77s.22,1.7.22,2.25.11,2.66.11,2.88.26.66-.22.77S135.11,174.11,135.11,174.11Z" fill="#e0dbd1"/><path d="M133.16,175.73s-2.73.63-3.06,1.22-.63,1-.33,1.33,1.66,1.36,4.68,1.44a38.39,38.39,0,0,0,7.3-.41c1.48-.3,2.43-.48,2.43-1.14s-.92-1.11-1.7-1.55-1.62-.81-1.62-.81.59-1,0-1.29a10.45,10.45,0,0,0-3-.18c-.59,0-4.13-.22-4.43,0S132.61,175,133.16,175.73Z" fill="#f5f3f0"/><path d="M128.22,178.16c-.09.14-1.62.85-1.7,2.25a9.36,9.36,0,0,0,.89,3.65,24.4,24.4,0,0,1,.33,3.17c.07.44-.11,1.77.44,2.07a14.13,14.13,0,0,0,3.8.77h1.18a25.49,25.49,0,0,0,2.73.55,30.74,30.74,0,0,0,4.94-.77,18.9,18.9,0,0,1,4.68-.22c.85.15,1-.15,1.22-1s1.11-4.17,1.25-4.8-.7-5.16-2.18-5.42a4.08,4.08,0,0,0-2.66.3,14.59,14.59,0,0,1-7.49,1.22c-4.09-.41-5.53-.85-5.86-1.4s-.22-1.22-.33-1.18A2,2,0,0,0,128.22,178.16Z" fill="#edae02"/><path d="M142.09,175.77s1.36-1.22,1.4-1.33-.85-1.18-.81-1.59a21.66,21.66,0,0,1,.52-3.21c.15-.07,2.36.07,2.55,0a18.33,18.33,0,0,1,2.47,0c.22,0,.63.18.7,1.29s.41,3-1.18,3.21.77,1.92,1.07,2.58,2,4.72,2.32,5.27a19.53,19.53,0,0,1,1.59,5.31c0,1-.41,1.48-.7,1.44s-3.69.55-3.84.52-1.51,0-1.51-.18,1-4.09,1.22-5.39a9.46,9.46,0,0,0-.85-4.21c-.3-.41-3.47-2.21-3.8-2.51S141.94,176.14,142.09,175.77Z" fill="#fb8005"/><path d="M143.56,168.5a2.94,2.94,0,0,0-1.33-2.21c-1.29-.85-1.48-.74-1.36-2s1.59-1.81,2.88-2.36,8.26-2.88,8.26-2.88,2.47-1.11,3.28-1a2,2,0,0,1,1.7,2.1c0,1.36-1.59,2.21-2.07,2.32s-3.43,1.33-3.43,1.33a5.59,5.59,0,0,0,.07,2.73c.44,1,1.07,2.32,2.14,2.69s2.43.7,2.18,1.18a2.06,2.06,0,0,1-2.25,1.29c-1.36-.26-4.24-2.69-4.76-3.32a11.18,11.18,0,0,0-1-1,3.77,3.77,0,0,0,.3,2.21c.52.66-4.68-.22-4.68-.22Z" fill="#edae02"/><path d="M126.78,185.17l-12.5,1.73a5.19,5.19,0,0,0-.44,1.25c0,.33.15,1.51.15,1.51a2.8,2.8,0,0,0,1.66,1.29c1,.15,1.77.3,1.77.3l.18,4.87s1.14,9,1.36,11.43,0,5.5,1.07,6.75,16.78,4.39,21.39,4.83,5.46.55,5.57.07-6.75-18.48-9.18-19.81-9.7-10.18-9.74-10.33S126.78,185.17,126.78,185.17Z" fill="#df6702"/><path d="M125.71,186.72c-.26,0-5.86.81-5.86.81l4.5,1.55s-1.29,1.4-1.36,1.51-8.71-2.51-8.71-2.62-.74-.7.44-1,11.91-2.29,12.17-1.7.52,1,.3,1.07A14.17,14.17,0,0,1,125.71,186.72Z" fill="#fb8005"/><path d="M154.52,190.3c-.2-.17,18.89-2.43,18.89-2.43l2.21-.48s-.89-.66-.89-.77.55-.52.81-.41,6.71.89,7.12,1.25a2,2,0,0,1,0,2.32c-.55.63-2.55.77-2.58,1s-2.51,20.55-3,21.91-1.88,2.21-4.83,2.66-17.37,2.29-17.74,2.29-.48.22-1.14-1.29-1.66-6-1.4-8c0,0,.15-.55,1.14.15s3,1.88,3.73.89,1.14-1.14.85-2.66a24.4,24.4,0,0,0-2.32-5,16.57,16.57,0,0,1-.66-6.57C155,193.07,155.18,190.85,154.52,190.3Z" fill="#fb8005"/><path d="M135.52,190.63a24.68,24.68,0,0,0-3.87-.59c-1.66,0-3.8-.77-5.2-.63a5.25,5.25,0,0,0-4.24,2.32c-1.11,1.77-3.61,5-4.28,5.79s-2.18,2-2.36,3.73-.07,2.62,1.51,2.32,2.62-.33,3.5-1.59,4.17-6.27,4.91-5.9,1.4,1.4.89,3.47-1.33,4.57-2.43,5.72-4.43,3.95-4.5,4.87,0,2.36,1.62,2,4.72-1.84,5.64-3,.63.92.52,1.55-2.36,2.91-3.06,4-1.73,2.14-1.51,2.88.77,1.25,2.36.66a5.79,5.79,0,0,0,2.91-1.73c.55-.74-.3,3.5.59,4.35s.66,1.33,1.59.66a5.67,5.67,0,0,0,1.92-2c.44-.81.81-2.18,1-1.55s0,1.44.92,1.11,1.33-.41,1.59-.89,1.51-4.87,1.84-5.64,1.22-3.17,1.73-3.25.74,1.07.59,3-.81,6.42-.52,7.41,1.22,1.84,2,1.81,1.18.15,1.62-1.11a28.1,28.1,0,0,0,.85-3.58c.3-1.33.26-2.91.44-2.88s1,5.46,2.84,6.68,2.43,1.07,2.8.44-.41-2.43-.41-3.21.77.7,2,1,1.4.33,1.77-.7a3.3,3.3,0,0,0,.22-2.47c-.26-1.25-1.88-6.2-1.44-7.52s.7-.7.7-.7,1.59,2.43,3.36,2,2.18-1,2-2.1-1.81-3.17-2-4.87-1.18-3.84-1-7.93-1.07-5.35-2.51-5.57-5.2.59-6.38.7S136.07,190.6,135.52,190.63Z" fill="#f3dec5"/><path d="M156.88,197.64s1.14-1,1.51-.48,0,4.87,0,4.87.59,1.62,0,1.88-1.22.22-1.36-.22S156.88,197.64,156.88,197.64Z" fill="#df6702"/><path d="M156.44,197.35c-.12,0-1.29.3-1.36.59s.22,3,.26,3.47a11.93,11.93,0,0,0,1.22,2.32s.18-1.73.26-2.1S157.06,197.31,156.44,197.35Z" fill="#d0a074"/><path d="M162.85,196.79s1.14-1,1.51-.48,0,4.87,0,4.87.59,1.62,0,1.88-1.22.22-1.36-.22S162.85,196.79,162.85,196.79Z" fill="#df6702"/><path d="M162.71,196.46c-.12,0-1.44.3-1.51.59s.07,5.9.11,6.38,1.7-.22,1.7-.22-.07-2,0-2.32S163.33,196.42,162.71,196.46Z" fill="#d0a074"/><path d="M168.79,196s1.14-1,1.51-.48,0,4.87,0,4.87.59,1.62,0,1.88-1.22.22-1.36-.22S168.79,196,168.79,196Z" fill="#df6702"/><path d="M168.64,195.69c-.12,0-1.44.3-1.51.59s.07,5.9.11,6.38,1.7-.22,1.7-.22-.07-2,0-2.32S169.27,195.65,168.64,195.69Z" fill="#d0a074"/><path d="M175.13,195.3s1.16-1,1.53-.49,0,4.93,0,4.93.6,1.64,0,1.91-1.23.22-1.38-.22S175.13,195.3,175.13,195.3Z" fill="#df6702"/><path d="M175,195c-.12,0-1.46.3-1.53.6s.07,6,.11,6.46,1.72-.22,1.72-.22-.07-2,0-2.35S175.61,194.93,175,195Z" fill="#d0a074"/><path d="M173.93,205.74s1.23-.8,1.58-.33-.2,4.22-.2,4.22.53,1.44-.09,1.63-1.27.12-1.4-.27S173.93,205.74,173.93,205.74Z" fill="#df6702"/><path d="M174,205.45c-.12,0-1.5.17-1.59.42s-.21,5.11-.19,5.53,1.76-.09,1.76-.09a17.5,17.5,0,0,1,.11-2C174.2,209,174.67,205.45,174,205.45Z" fill="#d0a074"/><path d="M167.94,206.29s1.21-.79,1.56-.32-.2,4.16-.2,4.16.52,1.42-.09,1.61-1.25.12-1.38-.27S167.94,206.29,167.94,206.29Z" fill="#df6702"/><path d="M168,206c-.12,0-1.48.17-1.57.42s-.21,5-.19,5.46,1.74-.09,1.74-.09a17.28,17.28,0,0,1,.11-2C168.21,209.49,168.67,206,168,206Z" fill="#d0a074"/><path d="M162.41,207.22s1.21-.79,1.56-.32-.2,4.16-.2,4.16.52,1.42-.09,1.61-1.25.12-1.38-.27S162.41,207.22,162.41,207.22Z" fill="#df6702"/><path d="M162.5,206.92c-.12,0-1.48.17-1.57.42s-.21,5-.19,5.46,1.74-.09,1.74-.09a17.28,17.28,0,0,1,.11-2C162.68,210.41,163.14,206.93,162.5,206.92Z" fill="#d0a074"/><path d="M157.06,208s1.21-.79,1.56-.32-.2,4.16-.2,4.16.52,1.42-.09,1.61-1.25.12-1.38-.27S157.06,208,157.06,208Z" fill="#df6702"/><path d="M157.15,207.7c.06,1.82-1.62,1.87-1.71,2.12s-.07,3.35-.05,3.76,1.74-.09,1.74-.09a17.28,17.28,0,0,1,.11-2C157.33,211.19,157.13,207.06,157.15,207.7Z" fill="#d0a074"/><path d="M164.79,196.33a.38.38,0,0,0-.41-.37s-2.58.28-3,.35-.46.33-.46.33l0,1.29s-.15,4-.07,4.92.57.87.57.87,2.56-.26,3-.33.33-.37.33-.37S164.81,196.72,164.79,196.33Zm-2,6.29c0,.53-.22.65-.76.61a.63.63,0,0,1-.61-.5s0-4.28,0-5.2.7-.76.7-.76c.74,0,.74.37.74.37S162.8,202.09,162.76,202.62Zm1.51-5.64s0,4.68,0,5.22-.26.7-.59.68a.36.36,0,0,1-.33-.37s0-4.83.06-5.33.39-.41.39-.41C164.37,196.76,164.27,197,164.27,197Z" fill="#693023"/><path d="M170.65,195.69a.38.38,0,0,0-.41-.37s-2.58.28-3,.35-.46.33-.46.33l0,1.29s-.15,4-.07,4.92.57.87.57.87,2.56-.26,3-.33.33-.37.33-.37S170.67,196.07,170.65,195.69Zm-2,6.29c0,.53-.22.65-.76.61a.63.63,0,0,1-.61-.5s0-4.28,0-5.2.7-.76.7-.76c.74,0,.74.37.74.37S168.66,201.44,168.63,202Zm1.51-5.64s0,4.68,0,5.22-.26.7-.59.68a.36.36,0,0,1-.33-.37s0-4.83.06-5.33.39-.41.39-.41C170.23,196.11,170.14,196.33,170.14,196.33Z" fill="#693023"/><path d="M175.64,205.38a.33.33,0,0,0-.35-.32s-2.23.2-2.62.26-.4.28-.4.28l0,1.11s-.18,3.49-.13,4.25.48.76.48.76,2.22-.19,2.57-.25.29-.31.29-.31S175.65,205.71,175.64,205.38Zm-1.84,5.4c0,.46-.2.55-.66.52a.54.54,0,0,1-.52-.44s0-3.7.1-4.49.62-.64.62-.64c.64,0,.63.33.63.33S173.84,210.32,173.8,210.78Zm1.38-4.85s-.1,4-.1,4.51-.23.6-.52.58a.31.31,0,0,1-.28-.32s.1-4.17.12-4.6.34-.35.34-.35C175.27,205.74,175.19,205.93,175.19,205.93Z" fill="#693023"/><path d="M169.65,206a.32.32,0,0,0-.34-.32s-2.21.2-2.58.26-.4.28-.4.28l0,1.1s-.18,3.44-.13,4.2.48.75.48.75,2.19-.19,2.54-.24.29-.31.29-.31S169.66,206.34,169.65,206Zm-1.81,5.34c0,.46-.2.55-.65.51a.54.54,0,0,1-.51-.43s0-3.65.1-4.43.61-.64.61-.64c.63,0,.62.32.62.32S167.88,210.89,167.84,211.34Zm1.37-4.79s-.09,4-.1,4.45-.23.59-.51.57a.31.31,0,0,1-.28-.32s.1-4.12.12-4.54.34-.34.34-.34C169.28,206.36,169.2,206.55,169.2,206.55Z" fill="#693023"/><path d="M164.17,206.95a.32.32,0,0,0-.34-.32s-2.21.2-2.58.26-.4.28-.4.28l0,1.1s-.18,3.44-.13,4.2.48.75.48.75,2.19-.19,2.54-.24.29-.31.29-.31S164.18,207.28,164.17,206.95Zm-1.81,5.34c0,.46-.2.55-.65.51a.54.54,0,0,1-.51-.43s0-3.65.1-4.43.61-.64.61-.64c.63,0,.62.32.62.32S162.4,211.83,162.36,212.28Zm1.37-4.79s-.09,4-.1,4.45-.23.59-.51.57a.31.31,0,0,1-.28-.32s.1-4.12.12-4.54.34-.34.34-.34C163.81,207.3,163.72,207.49,163.72,207.49Z" fill="#693023"/><path d="M177.05,194.91a.38.38,0,0,0-.41-.37s-2.62.28-3.06.35-.47.34-.47.34l0,1.31s-.15,4.09-.07,5,.58.88.58.88,2.6-.26,3-.34.34-.37.34-.37S177.07,195.3,177.05,194.91ZM175,201.28c0,.54-.22.65-.77.62a.64.64,0,0,1-.62-.5s0-4.33,0-5.27.71-.77.71-.77c.75,0,.75.37.75.37S175,200.74,175,201.28Zm1.53-5.72s0,4.74,0,5.29-.26.71-.6.69a.37.37,0,0,1-.34-.37s0-4.89.06-5.4.39-.41.39-.41C176.62,195.34,176.53,195.56,176.53,195.56Z" fill="#693023"/><path d="M183.45,187.63c-.06-.22-.26-.37-.85-.55s-6.68-1.07-6.68-1.07l-.9-.18,0-12a4.32,4.32,0,0,0-1.42-2.93c-1.33-1-2.6-1.27-2.77-1.77a1.06,1.06,0,0,1,.44-1.42c.63-.31,1-.26,1.29-.9a52.46,52.46,0,0,0,1.22-5.7,1.18,1.18,0,0,0-.37-1,5.38,5.38,0,0,0-3.84-1.64c-2.23-.07-2.62.89-2.84,1.18s-2.3,3-2.66,3.47c-.12,0-.08.47,0,.77s-.42.18-1.4.68A5.68,5.68,0,0,0,159.5,168a16.44,16.44,0,0,0-.35,4.91s-.09-.22-.76-.37-5.24.07-5.24.07a.85.85,0,0,0-.76.72c-.09.65.07,2.08,0,2.4s-.37.52-.85.7a3.74,3.74,0,0,0-1.57.94,2.24,2.24,0,0,1-.35.31c0-.18-.41-.32-.52-.73a10.74,10.74,0,0,1-.61-2.42c.11-.33.41-.24.63-.87a.31.31,0,0,0,0-.22c0-.36,0-1.06.05-1.44a7.09,7.09,0,0,0-.18-2.18.93.93,0,0,0-.53-.45,1,1,0,0,0,0-.33c0-.08,0-.32,0-.62a8.59,8.59,0,0,0,3.15,2.89,4.51,4.51,0,0,0,3.12.44,5.15,5.15,0,0,0,1.9-1.24c.2-.35.2-.7-1-1s-2.51-.61-3.12-2-1-1.75-.65-3.25l5-2s.64-.35.61-1.88a2.74,2.74,0,0,0-1.55-2.39,1.34,1.34,0,0,0-.59-.12,6.14,6.14,0,0,0-2,.48c-.57.26-8.48,2.73-10.27,3.39s-2.47,1-2.67,1.57a6.32,6.32,0,0,0,.06,2.49c.13.65.35,1,1.35,1.2s1.18.76,1.14,1.25a3,3,0,0,1-.26,1,1,1,0,0,0-.61.89,34.58,34.58,0,0,0,.09,3.63c0,.17,0,.44.24.61s-.31.5-.55.81-.42.57-.63.61,0-.13,0-.59a1.3,1.3,0,0,0-.55-1.09c-.24-.18-.09-.28-.07-.74a30.91,30.91,0,0,0-.42-4.59c-.11-1.05-.65-1.55-1-1.64a19.15,19.15,0,0,0-3.08,0,4.87,4.87,0,0,0-1.94.46c-.55.42-.48,1.33-.46,1.62a30.15,30.15,0,0,1-.33,4.28c-.2.52-.55.63-.81,1.13s0,1.11-.13,1.16a24.85,24.85,0,0,0-3.26,1.38c-.94.59-2.6,1.68-2.93,2.93a5.14,5.14,0,0,0,.28,3.23,7.51,7.51,0,0,1,.4,1.83c-.88.1-11.76,1.34-12.58,1.75a.9.9,0,0,0-.76.79,12.05,12.05,0,0,0,.2,2.64c.09.31.39.55,1,.68l1.92.42a37.53,37.53,0,0,1,.68,6.09c0,.06-2.29,2.88-2.49,4.17a3.29,3.29,0,0,0,.24,2.51c.39.65,2.43.7,2.84.72a.58.58,0,0,0,.23,0c0,.81.19,3.18.19,3.18h0c.13,1.05.81,6.68.94,7.12,0,0,0,.05,0,.05.1.41.23.75,1.3,1.16,1.38.53,1.31.52,1.29.94a2,2,0,0,0,.63,1.59c.59.57.74.44,2.12.35a7.29,7.29,0,0,0,3.17-1.62,8.84,8.84,0,0,0-.24,3.58c.26.77.72,1.36,1.59,1.29a4.49,4.49,0,0,0,2.88-1.86,12.65,12.65,0,0,0,.91-1.32,1.39,1.39,0,0,0,1,.51,1.84,1.84,0,0,0,1.53-.76s2.82.61,3,1a7.61,7.61,0,0,1,.44,1.07h0v0a.43.43,0,0,1,0,.13l0,0a2.13,2.13,0,0,0,1.69.89c1.38.13,2-.18,2.38-.85a4.42,4.42,0,0,0,.34-1.14,11.51,11.51,0,0,0,2.29.24,4.82,4.82,0,0,0,.66.76c1.72,1.57,3.12.85,3.45.61a1.69,1.69,0,0,0,0-2.1s0-.37.81-.22,1,.42,1.68.18.72-.44,1.2-.9,14.64-2,15.14-2.12,6.12-.76,7.45-1.4,1.44-1.27,1.64-2.56,2.77-19.83,2.82-20.2-.07-1.36.77-1.57,1.46-.33,1.79-.94A4.24,4.24,0,0,0,183.45,187.63Zm-7.89-.63c-.24,0-.59-.28-.4-.36.61.08,6,.78,6.53.91l.21.07-26.38,3.49s0,.06-.17,0c0,0-.42-.42.18-.59s8.54-1.18,8.54-1.18v0l12.43-1.49s.92-.09.94-.33S175.84,187.05,175.56,187Zm-20.73-3.14a21.3,21.3,0,0,0,4.85-.26c.48-.11.65.06.63.13s.15,4.69.18,5.5c-2.28.31-5.52.73-5.66.69s-1.27-.87-1.77-1.13l0,0a47.11,47.11,0,0,0-.43-5.18C152.92,183.67,153.6,183.76,154.83,183.86Zm-2.44-1.07a10.62,10.62,0,0,0-1.33-2.36.35.35,0,0,1,0-.29,22.35,22.35,0,0,0,6.31.51c3.25-.28,3.82-1,4.15-1.11s.59-.09.94,1.25.3,8.13.3,8.13l-1.6.22c0-.28-.06-3.34-.17-4.66s-.17-1.75-.42-1.88-.31,0-.65.07a16.79,16.79,0,0,1-4.94.47A9,9,0,0,1,152.4,182.8ZM166,161.92l1.11-1.4.26-.3s.59-.92,1.24-1.05a5.12,5.12,0,0,1,4,.9.68.68,0,0,1,.35.74c-.05.41-.64,2.59-1,3.89a.16.16,0,0,1-.13.06,17.26,17.26,0,0,1-2.66-.85,13.42,13.42,0,0,1-3-1.46A.37.37,0,0,1,166,161.92Zm-.53.79c.17-.06.13.09,1.62,1a26.57,26.57,0,0,0,4.46,1.64,2.5,2.5,0,0,1,.16.19l0,.12c-.11.42,0,.61-.63.46a31.25,31.25,0,0,1-4.85-2.08,2,2,0,0,0-.31-.21C165.34,163.31,165.31,162.76,165.47,162.71Zm-5.18,5.83a4,4,0,0,1,1.94-2.53,9.79,9.79,0,0,1,3.38-1.07,19.63,19.63,0,0,1,3,1.24c.31.11,1.51.28,1.44.81s-.48.77-.44,1.64.24,1.27,1.51,1.9,2.53,1.42,2.86,2.29,0,1.14-.61,1.33a16.9,16.9,0,0,1-5.11.52,56.57,56.57,0,0,1-6.58-.31s-1.39-.08-1.61-.6A40.39,40.39,0,0,1,160.29,168.54Zm-.11,6.1c.35,0,1.23.12,2.09.26a44.08,44.08,0,0,0,6,.37,29.9,29.9,0,0,0,4.81-.33c.57-.15.61-.48.92-.33s.17,12.67.17,12.67,0,.2-.57.28l-9.89,1.25s-.24-7.6-.35-8.24a6.86,6.86,0,0,0-2.25-3.95,4,4,0,0,1-1.05-.81,1.34,1.34,0,0,1-.13-.61S159.88,174.76,160.18,174.64Zm-7-1.14c.37-.37,4.89-.26,5.37-.07s.35.89.39,1.09c0,0,.15.76-.22,1.14l-.05.06a3.75,3.75,0,0,1-1.76.21,16.33,16.33,0,0,1-3.43-.15c-.28-.15-.42-.26-.48-.79S152.84,173.87,153.21,173.5Zm-.15,3.21a20.27,20.27,0,0,1,3.14.13,11.22,11.22,0,0,0,2.58-.11,3.09,3.09,0,0,1,1.86.26,1.19,1.19,0,0,1,.24,1.81c-.33.28-1.66.72-4.09,1a14.45,14.45,0,0,1-4.91-.31s-1.25-.33-1.36-1.27S152.56,176.82,153.06,176.71ZM152,168.63c1.53,1.73,3,1.25,3.3,1.48s-.11.87-1.14,1a5.32,5.32,0,0,1-3.21-1,4.88,4.88,0,0,1-2.44-3.3c0-.18,0-.33,0-.43a2.81,2.81,0,0,1,1.46-1.53,4.44,4.44,0,0,1,.63-.27A6.13,6.13,0,0,0,152,168.63Zm1-5.64c-.46.13-.68.06-1.16-.59a2.37,2.37,0,0,1-.5-1.81,1.79,1.79,0,0,1,.43-.94l1.17-.41c.14,0,.27,0,.29.11s-.15.57,0,1.25a3.55,3.55,0,0,0,.63,1.49C154.09,162.41,153.43,162.86,153,163Zm3.3-4s.92,1.33.42,2.1a1.33,1.33,0,0,1-1.9.48,2.19,2.19,0,0,1-.68-2,1.22,1.22,0,0,1,.67-1,1.62,1.62,0,0,1,.53-.11A1.5,1.5,0,0,1,156.27,159ZM142,166a1.46,1.46,0,0,1-.74-1.72,1.79,1.79,0,0,1,1-1.4c.63-.33,6.88-2.32,6.88-2.32l.94-.33c.14,0,.27,0,.32.13.15.33-.07,1.09.22,1.81s.79.87.81,1.05-.22.3-.83.61l-.07,0-.08,0a5.84,5.84,0,0,0-2.73,2,6.93,6.93,0,0,0-.39,2.67c0,.37-.2.59-.46.63s-1.4,0-1.81,0-1-.06-1-.61a4,4,0,0,0-.68-2A4.74,4.74,0,0,0,142,166Zm5.92,7h0c0-1,0-2.88,0-2.88a.19.19,0,0,1,0-.1.75.75,0,0,1,.38.43A3.14,3.14,0,0,1,147.88,173.07Zm-.33-2.78c0,.2,0,2.24,0,3a3.1,3.1,0,0,1-.84.31c0-.67,0-3.4,0-3.4a.17.17,0,0,1,.14-.18h.52v0S147.51,170,147.55,170.29Zm-1.2,0c0,.24,0,3.28,0,3.28a.23.23,0,0,1,0,.11l-.51,0h-.23c0-.3,0-3.53,0-3.53a.17.17,0,0,1,.08-.16h.48A.29.29,0,0,1,146.35,170.29Zm-1.08,0c0,.24,0,3.28,0,3.28a.19.19,0,0,1-.08.16,4.36,4.36,0,0,1-.82-.11s-.07-.09-.07-.14,0-3.25,0-3.25a.16.16,0,0,1,.12-.17h.7A.31.31,0,0,1,145.27,170.29Zm-1.28,0c0,.22,0,3,0,3s0,.12-.09.15a1,1,0,0,1-.5-.42,6,6,0,0,1-.3-2.1.82.82,0,0,1,.65-.87A.26.26,0,0,1,144,170.31Zm-.26,4.32c.39,0,2.6.09,3.17.11s.7.68,1,1.49.76,1.9.76,1.9.57,1.05.9,1.57l.08.1a1.94,1.94,0,0,1,.12.36c.94,1.05,2.12,4.85,2.25,5.85s.2,1.88-.13,2.25-.37.28-.92.17a7.71,7.71,0,0,0-2,.06c-.65.07-1.57.5-1.7.31a5.92,5.92,0,0,1,0-1.48,7,7,0,0,1,.61-2,7.55,7.55,0,0,0,.48-2.82,6.61,6.61,0,0,0-1.7-3.82,9.85,9.85,0,0,0-3-1.84s-1.09-.37-1.07-.79A2.2,2.2,0,0,1,143.73,174.62Zm-9.39-3.8c.07-.57.15-2.51.5-2.78a6.09,6.09,0,0,1,3.3-.31c1.12.16,1.29.62,1.31.81,0,0,0,.06,0,.09s.17,2,.28,2.73.39,1.36,0,1.92-1.75.83-3.74.68c0,0-1.25-.17-1.49-.57A6.86,6.86,0,0,1,134.34,170.82Zm-4.5,6.81c.2-.55.87-.7,1.84-1a11.77,11.77,0,0,1,2.71-.33c.59-.06,1.45.22,1.51-.07s-.93-.25-1.18-.3c-1.53-.26-1.44-.7-1.35-.92a.91.91,0,0,1,.9-.42c.39.07,1.68.2,1.68.2a27.06,27.06,0,0,0,2.75-.07c.83-.11,1.44-.17,1.68.06s0,.7-.87.92a10.59,10.59,0,0,1-2,.3c-.22,0-.55.35.53.37a23.83,23.83,0,0,0,2.56-.2,6,6,0,0,1,2.66,1.07.61.61,0,0,1,.07.87,5.05,5.05,0,0,1-3,1.18,32.57,32.57,0,0,1-7.08-.06C130.63,178.75,129.64,178.18,129.84,177.63Zm-3,2.93a4.26,4.26,0,0,1,2-2.73c.15-.15.15,0,.15,0a2.9,2.9,0,0,0,1,1.2,7.62,7.62,0,0,0,3.54,1.05,21.78,21.78,0,0,0,6.1,0,8.75,8.75,0,0,0,4.57-1.49,1.56,1.56,0,0,1,1.46.13,4.43,4.43,0,0,1,1.66,2.9,4.61,4.61,0,0,1,0,.92v.06c-.26,1.22-2.25,1.66-3.49,1.94s-2.67.41-7.29.35-7.29-.22-8.06-.85A3.54,3.54,0,0,1,126.89,180.56Zm20.2,3.5a5,5,0,0,1-.17.57,7.89,7.89,0,0,0-.63,2.4c-.09,1.11-.15,2-.44,2.21s-.57.3-1.83.13a54.09,54.09,0,0,0-5.57-.15,4,4,0,0,0-2.29.63s-.2.07-.3,0a5.72,5.72,0,0,0-1.88-.66c-.76-.07-2.16.41-3.34.37a3.7,3.7,0,0,1-2.1-.63,17.38,17.38,0,0,0-.31-2.19l0-.06a18.66,18.66,0,0,0-.41-1.88l0-.05c.13-.31.81.06.81.06,1.72.53,5.85.74,8.78.77a39.65,39.65,0,0,0,7.17-.5A6.12,6.12,0,0,0,147.09,184.07ZM127,187a.31.31,0,0,1,.27.25l.07,1.21,0,0c-.15.26-.55.3-1.31.22a35.36,35.36,0,0,1-4.59-.94C121.56,187.75,126,187.17,127,187Zm-12.45.29s10.59-1.7,11.4-1.7,1.11.42.89.66-10,1.2-10,1.36,7,1.77,6.75,2a2.16,2.16,0,0,1-.84.26c-1.18-.22-5.86-1.09-6.63-1.41s-1.76-.61-1.73-1A.39.39,0,0,1,114.57,187.33Zm.66,2.9c-.63-.2-1-.11-1.09-.68s-.15-1,.28-.89,7.71,1.9,7.88,2.07-.41,1.14-.68,1.05-2.78-.77-2.78-.77S115.86,190.43,115.23,190.23Zm5.66,2.23a14.43,14.43,0,0,0-1.36,2c-.33.7-.66,1.48-1,1.51s-.3-.37-.35-.94-.16-1.32-.2-1.75c-.06-.61-.25-1.23.05-1.5S120.89,192.46,120.89,192.46Zm-1.44,15.34v0c-.09-.7-.29-2.25-.29-2.76a3.92,3.92,0,0,1,.16-1.12l.21-.2a41.31,41.31,0,0,0,3.08-3.12c.68-.89,1.83-3.06,2.27-3.36s.68-.39.79.41a8.32,8.32,0,0,1-1.27,5.55,27.08,27.08,0,0,1-4.13,5.2C119.75,208.78,119.51,208.32,119.46,207.8Zm1.83,7.06a3,3,0,0,1-1.08-2.22v-.07a2.8,2.8,0,0,0,1.9.09,10.69,10.69,0,0,0,3.95-2.31c.57-.7,1-1.22,1.05-1.05a.47.47,0,0,1,0,.25.72.72,0,0,0-.06.17c0,.08,0,.17-.08.26l0,.09h0a8.36,8.36,0,0,1-1.15,2.2,24.35,24.35,0,0,1-2.12,2.53A1.76,1.76,0,0,1,121.28,214.87Zm11.32-1.64a40.22,40.22,0,0,0-.18,4.44,7,7,0,0,1-1.09,2.56c-.61,1-1.62,1.25-2.21.7s-.68-2.19-.41-3.14,1.48-4.3,1.48-4.3c.07-.24,1.11-2.6,1.33-3.45s.11-1.25-.18-1.44-1.4,3.41-1.7,4.28a10.61,10.61,0,0,1-2.29,3.38,6.08,6.08,0,0,1-2.56,1.62c-.72.18-1.66.3-1.72-.44s.57-1.4,1.07-2,2.77-3.21,3.1-3.73a7.78,7.78,0,0,0,.53-2.1s.48-1.9.59-2.55.09-1.48,0-1.36-1.68,3.14-3,4-3.36,2.25-4.28,2.14a1.14,1.14,0,0,1-.87-1.9c.65-1,2-1.84,4.41-4.91a10.14,10.14,0,0,0,2.23-6.86c0-.7-.2-2.77-1-2.82s-3,2.8-3.8,3.8-2,3.73-4.37,4.08-2.14-.81-2-1.42a23.4,23.4,0,0,1,2.47-3.69.73.73,0,0,0,.12-.21l0,0s2.82-4.1,3.26-4.69h0l.94-1.31a13.46,13.46,0,0,1,1.59-1.46l0,0a6.13,6.13,0,0,1,2.4-.57c1,0,3.3.66,4.5.76s2.88-.18,3.38,0,.68,1.24.68,1.24,0,.85,0,1.48a18.19,18.19,0,0,1-.37,2.77,42.43,42.43,0,0,0-.5,4.46c-.09,1.38-.55,5.05-.57,5.77S132.88,212,132.61,213.23Zm6.51.89s-.33,1.13-.48,1.66a15.16,15.16,0,0,0,0,2.07c-.06.63-.55.52-.92.5a3.39,3.39,0,0,1-1.38-.52c-.15-.17.13-.5.13-.5a29.59,29.59,0,0,1,1.2-4.65c.55-1.14.94-2.51,1.4-2.53a5.22,5.22,0,0,1,.17,1A15.46,15.46,0,0,1,139.12,214.11Zm4.66,4.71a25.3,25.3,0,0,0,.25-3.1,16.6,16.6,0,0,0,1.1,3.22Zm9.15-1.94c-.22,1.05-.11,1.33-.79,1.57a1.54,1.54,0,0,1-1.77-.81,10,10,0,0,1-1.22-4.72c-.13-2.69.28-3.93.06-4.17s-.44-.13-.79.76a11.37,11.37,0,0,0-.5,4.61,22.38,22.38,0,0,0,1,4.91c.44,1.38.44,1.79-.06,2.12s-1.13-.07-1.73-.66-1.73-2.82-2.32-6.34-.65-5.88-1-6-.35.2-.46,1-.17,4.65-.15,5.94.2,4.76-1.24,5.72c-1.15.77-1.67-.18-2.05-.74v0a2,2,0,0,1-.55-1.5c0-1.07.53-3.06.81-4.78a23.63,23.63,0,0,0,.09-4.46c0-.44-.17-1.59-.37-1.53a9.2,9.2,0,0,0-1.18.9,4.09,4.09,0,0,0-.63,1c0,.09-2.58,6.93-2.71,7.8a1.86,1.86,0,0,1-.66,1.11c-.42.22-1.24-.5-1.24-.5.06-.74-.06-2.43.06-3.58s.77-4,.92-5.09.72-6.92.77-7.86.42-4.67.44-5.57.28-2.83.36-3.44a1.42,1.42,0,0,0,.1-.38c.2-1.38,1.53-1.53,2.9-1.73s6.2-.15,7.27-.18,2.66-.92,3.95-1a11.44,11.44,0,0,1,1.84-.06l.09,0a3.24,3.24,0,0,1,1.46.81,3.78,3.78,0,0,1,.59,1.76.58.58,0,0,0,0,.08s.07,1.38.09,2.08.07,3.38.09,4.22a7.93,7.93,0,0,0,.63,3.36c.63,1.48,2.32,4.54,2.19,5.51s0,2-1.4,2-2.19-.2-2.93-1.72a17.84,17.84,0,0,1-1.46-3.95,13.08,13.08,0,0,0-.85-2.8,4.4,4.4,0,0,1-.72-2.14c0-1.05.11-1.92-.13-1.86s-.53.57-.5,2A8.78,8.78,0,0,0,150,202a10.5,10.5,0,0,1,1,4.15,31.35,31.35,0,0,0,.72,5.35C152.14,213,153.15,215.83,152.93,216.88Zm3.74-13.62a16.12,16.12,0,0,1-1.12-3c0-.12-.05-.25-.07-.38s0-.1,0-.17-.17-1.57,0-1.7.17-.37.55-.37.66.11.65.85S156.67,202.5,156.67,203.26Zm.59-5.3s.13-.48.55-.52a.52.52,0,0,1,.59.44s0,0,0,.06v5.44s0,.39-.83.37c0,0-.37-.18-.41-.48S157.26,198,157.26,198Zm-.44,15.25c-.11.33-.92.26-.92.26s-.33.15-.35-.85c0-.82,0-2,0-2.38a3.37,3.37,0,0,0,1-.11,1.11,1.11,0,0,0,.33-.18A31.74,31.74,0,0,1,156.82,213.21Zm20-1.29a2.75,2.75,0,0,1-.85,1.53c-.55.5-3.8,1.11-6,1.48S155.14,217,154.76,217s-.59.11-1-.9-.87-3.3-1.05-3.91a13.09,13.09,0,0,1-.3-3.63c.18-.24,1,.92,1.66,1.33a2.52,2.52,0,0,0,1,.31l.09,3s0,.63.42.68a27.12,27.12,0,0,0,2.9-.33s.24,0,.26-.79,0-5.22,0-5.22a.38.38,0,0,0-.37-.35,1.1,1.1,0,0,0-.34,0,4.78,4.78,0,0,0-.56-2.53l-.16-.24,1.21-.13s.46,0,.44-.83,0-5.4,0-5.4V197s0-.28-.61-.22-2.53.32-3.19.41a12.31,12.31,0,0,1,0-1.78v.07s-.06-.89.63-1S166,193.1,167.1,193h0l11-1.57c.41-.06,1.18-.22,1.44.07S176.87,211.58,176.83,211.92Zm-19.36-2.64a3.58,3.58,0,0,0,.51-1.45c.08,0,.22,0,.25.15s-.2,5-.2,5-.22.35-.37.07A28.67,28.67,0,0,1,157.47,209.28Zm24.84-19.57a22.22,22.22,0,0,1-3,.53L167.17,192l-1.13.17-10,1.29s-.53.09-.65-.72.92-.85,1.09-.85,25.95-3.61,25.95-3.61a.62.62,0,0,1,.25,0,.73.73,0,0,1,.06.23C182.77,189,182.88,189.47,182.31,189.71Z" fill="#693023"/></g></g></svg>