<svg xmlns="http://www.w3.org/2000/svg" width="300" height="250" viewBox="0 0 300 250"><title>уборка-территории</title><g data-name="Слой 2"><path fill="none" d="M0 0h300v250H0z"/><path d="M194.36 203.37c-.25.25-.1 1.5-.51 2s-1.34 1.14-1.7 2-1.14 2.94-.71 3.63a4.9 4.9 0 0 0 2.84 1.66 19.62 19.62 0 0 0 4.58 0c.79-.06 2.09 0 2.29-.87a9.62 9.62 0 0 0-.83-4 14.74 14.74 0 0 0-1.42-2.33s-.6-1.68-.76-2-3.39-.46-3.78-.09z" fill="#c7c0b1"/><path d="M190.19 212.2a4.55 4.55 0 0 0-1.54 2.47c-1.28 4.55-2.74 6-3.33 8.56s-1.59 3.71-1.85 4.94-.71 4-1.21 5.67-.55 3.71-1.1 5.8-1.35 2.52-.71 3.46a5.15 5.15 0 0 0 2.35 2.1c1.09.47 1.62 1.33 2.94 2.13a8 8 0 0 0 4.51 1.67c2.14.05 3.75-.34 6-.3s3.29.7 5.48.3 4.48-1.13 6.61-1.75 1.66-1.71 1.54-2.79-1.2-5.7-1.52-8.76c-.39-3.68-1.17-8.38-1.59-10.35a48.36 48.36 0 0 0-2.18-7.58c-.8-2-2.54-6.28-3.61-5.84a8.89 8.89 0 0 1-4.66 1.07 11.16 11.16 0 0 1-4.53-1.36c-.44-.29-1.01.23-1.6.56z" fill="#f5e0c7"/><path d="M194.52 226.77v-.42s0-.27.15-.27.25.18.26.43.27 3.41.18 7.32c0 .93-.17 4.32-.26 4.7s-.43.37-.39-.18.06-11.58.06-11.58zM185.3 228.55s.07-.31-.13-.38-.19.17-.28.53c-.22.81-1.3 8-1.36 8.46s.18.33.3 0 1.47-8.61 1.47-8.61zM192.58 221.11s-.18-.41-.34.43a18.28 18.28 0 0 0 0 2.94c0 .75-.09 2 .07 2s.18-.33.22-1.14.14-4.01.05-4.23zM200.15 223.17s-.3-.07-.12.8.66 4 .82 5.47c.18 1.7.42 5.86.49 6.5s.57.28.48-.39-.07-3.93-.42-6.44-.82-5.73-1.25-5.94z" fill="#692f23"/><path d="M213 144.22c-.54-3.49-5.41-12.21-6.86-14s-2.77-8.78-3.49-11-4.65-9.05-5.65-10.01a73.77 73.77 0 0 1-5.17-6.74c-.84-1.26-6.14-8.6-10.35-12.15a34 34 0 0 0-8.9-5.66c-2.29-1.08-5.89-.78-5.89-.78l-1.58-.43c-1.89-.51-3.73-1-3.73-1s.08-3.91-.57-4-10.1 2.65-14 2.52-13.31-1.59-13.31-1.59l-.12 2.08-.49 2.81s-2.93.73-7.08 1.83a23.69 23.69 0 0 0-9.65 5.74c-1.71 1.71-5.66 2.63-6 2.81-9 4.88-18.68 9.53-22.23 14.17s.24 15.39.24 15.39 4.52 10.5 2.2 10.87-2.44 2.08-2.44 2.08l3.16 7.84a16.39 16.39 0 0 1 5.62 5c2.2 3.3 3.91 3.91 9.16 2.32s12-7 12-7l.49 22s-.73 5.5 1.47 5.25 23.45 2.69 36.64 2.32 27.23-5.25 27.23-5.25-.12-10.75-.31-20.38c.6 2.84 1.43 6.21 1.83 7.32.72 2 4.51 5.78 6.14 6.74s7.1 1 9.39.84 4.87-1 8.54-3.61 4.23-12.84 3.71-16.33z" fill="#fff"/><path d="M123.08 7.74s6.76-2.77 8-3.5S138.06 2 142 2s8.55-1.06 10.66-.81a6.66 6.66 0 0 1 3.5 1.55s2.44.08 4.48 0 5.13 1.3 5.94 1.55l9.89 2.93c1.63.49 3.91 2.93 6 4s13 11.4 14 14.57 5.7 9.53 6.19 11.72 2.77 14.82-.9 20.43-10 13.76-13.68 15.47-7.73 5.13-8.71 5.7-7.25 2.85-10.26 2.85h-4.64a16.14 16.14 0 0 0-3.09.57c-.41.16-.57-4-.57-4s-10 2.93-16.61 2.44a82.84 82.84 0 0 1-12.2-1.91s2.48 3.54 1.83 4.11-4.84.65-6.64.41-8.3-2.16-8.3-2.16L115 79.59a49.57 49.57 0 0 0-4.56-3C110 76.53 100.53 65.3 99 62.45S96.14 53 96.05 47.71a49.88 49.88 0 0 1 3.38-17.34c2.2-6 8-12.78 10.62-14.33s9.36-5.37 9.36-5.37z" fill="#e09c51"/><path d="M138.7 24a11.47 11.47 0 0 0-2.41 3.27c-.52 1.34-.82 6.23-1.31 7s-1.86.89-2.78.79a8 8 0 0 1-2.53-1.25c-.12-.06-6 1.77-6.72 1.83s-8.09 1.8-8.58 1.92-3.66.79-3.82.85a6.28 6.28 0 0 0-3.14 3.88 7 7 0 0 0 .31 4.85 5 5 0 0 0-1.86 2.35 9 9 0 0 0 1.31 5.68c1 1.19 4.55 3.08 4.21 2.93s1.37 3.76 4.46 8.15 7.27 9 16.06 12.64 21 1.89 21.28 1.86A34.31 34.31 0 0 0 166.36 76s6.87-5 8.82-7 5.92-6.84 6.75-8.79a11.23 11.23 0 0 0 .85-2.38s2.47.24 4.27-3 .82-7-.64-7.79-4.27-.21-5.1-.06-2.87-1.68-3.39-3.91-6-7.69-6-7.69a33.44 33.44 0 0 1-6.44-.12c-2.44-.43-7.2-1-9-1.5s-7.72.27-8.88.55-5.19 2.2-5.5 1.92-.15-1.71-.15-2.32S138.7 24 138.7 24z" fill="#fbdfcb"/><path d="M133.19 48.56A3.57 3.57 0 0 0 132 46.1a4.67 4.67 0 0 0-3.4-1.34c-.9 0-4.66-.33-5.27 0a14.73 14.73 0 0 0-2.58 2.44c-.71.79-.06 1.34.35 1.57s1.85 1.37 2.91 1.39a32.14 32.14 0 0 0 4.68-.15c.94-.2 2.71-.94 3.38-1s1.01-.19 1.12-.45z" fill="#fff"/><path d="M129.83 45a2.62 2.62 0 0 1 .73 2.26 3.76 3.76 0 0 1-2.81 2.5c-1.34.26-3-.52-3.14-1.07s-1.19-2.07-.93-2.82S128 42 129.83 45z" fill="#abd2f0"/><path d="M151.47 48.43a3.57 3.57 0 0 1 1.22-2.43 4.67 4.67 0 0 1 3.4-1.34 26.76 26.76 0 0 1 5.17.65 9.81 9.81 0 0 1 2.68 1.69c.71.79.06 1.34-.35 1.57a9.54 9.54 0 0 1-3.18.94c-1.06 0-3.48.51-4.42.31s-2.71-.94-3.38-1-1.04-.13-1.14-.39z" fill="#fff"/><path d="M155.65 45.1a2.62 2.62 0 0 0-.73 2.26 3.76 3.76 0 0 0 2.81 2.5c1.34.26 3.28-.16 3.46-.71s.88-2.42.61-3.18-4.36-3.86-6.15-.87z" fill="#abd2f0"/><path d="M97.5 35.4a30.62 30.62 0 0 0 4.27-4.58c1.28-2 4.34-7.51 7.33-10.26s3.85-3.78 4.9-4.56l-2.87 6.23s2.14-2.81 4-3.54a11.17 11.17 0 0 1 2.69-.79A37.82 37.82 0 0 0 115 23c-.43 1.34-.49 7.33-.43 8.3s.31 2.63.31 2.63.73-7.14 3.36-11.05 4.09-7.2 10-10.38 7.08-3.36 8.06-3.18 0 2 0 2a62.36 62.36 0 0 0-2.69 6.23 20.59 20.59 0 0 1 3.54-4.21 36.79 36.79 0 0 1 4.5-3.34S139 17.75 139 20.14s1.1 9.28 1.1 9.28l1.16 3.05A25.8 25.8 0 0 1 143 21.42c2.26-5.5 3.3-10.62 7.51-11.91a6.08 6.08 0 0 1 7.45 2.81 26 26 0 0 1 1.65 4.95s.18-4.27.06-5.25 1.34-1.16 2.14-.92a13.7 13.7 0 0 1 7.27 5.74c2.5 4.09 3.42 10.69 3.42 10.69s1.34-8.24.43-9.83-3.11-5.19-4.82-6.59c0 0-.37-1.59 2.26-1.1a18 18 0 0 1 6.9 2.38s-3.11-2.69-4.64-3.91-8.58-5.2-8.94-5.48a29.54 29.54 0 0 0-4.34-.61l-2.81-.12-2.26-1.22L146 2l-3-.55-10.5 1.83-8 3.6-7.34 5.12-3.42 1.28-8.06 7s-6 7.63-6.23 8.61-2.2 6.59-2.2 6.59z" fill="#e9b87f"/><path d="M199.8 135.05l-.42-.27-.42-.23-.53-.15a3.36 3.36 0 0 1-2.12-1 3.25 3.25 0 0 0 .7 1 6.86 6.86 0 0 0 2.93.76z" fill="#fff"/><path d="M116.12 146.83c-.49.12-7.82 5.25-7.82 5.25l1.1.73-.12 1.59s-2.32-.49-3.3.24-.49 1.34-.49 1.34-2-.12-2.32.73a1.3 1.3 0 0 0 .37 1.47 3.85 3.85 0 0 0-1.59 2.2c-.37 1.47.24 3.18 2.69 4.76s6.84 2.32 9.28 1.59a10 10 0 0 0 4.27-3.05l-1-17.46z" fill="#f9e5cc"/><path d="M129.19 213.75s1.1 8.3 2 11a6.72 6.72 0 0 0 3.05 3.79l6 .49 8.3.73a28.55 28.55 0 0 0 1.34-3.42c.12-.73 1.1-9.4 0-12s-2.08-2.69-2.08-2.69a12.09 12.09 0 0 1-8.79 3.91 32 32 0 0 1-9.82-1.81zM153 211.31a17.85 17.85 0 0 0 10.38 4.27c6.47.49 10.14-2.2 10.14-2.2s-.49 6.23-1 8.3-2.56 6-3.05 6a34.86 34.86 0 0 1-7.2 1.34c-3.66.12-8.43 1.34-8.55.85a44.14 44.14 0 0 1-1.22-5.86c.01-1.22-.96-9.89.5-12.7z" fill="#d2a274"/><path d="M134.2 228.53s-3.91-.24-5.74.85a8.18 8.18 0 0 0-2.69 2.56s-4.27 3.05-4.76 4.4 0 5.22.64 7c1.08 2.91 12.31 4.57 13.29 4.57s11.23-.12 11.23-.12l3.53-1.79 1-1.83s2.32 3.42 4 3.42 12 .24 12 .24a73.22 73.22 0 0 0 8.82-1.88c5.41-2 4.86-2.88 5.23-4.1a13 13 0 0 0-.37-5.74c-.49-1.1-5.25-5.37-5.25-5.37a18.72 18.72 0 0 0-3.66-2.32c-2.28-.61-9.41.42-9.41.42l-9.39 1.29-1.71 6.35-2-6.11z" fill="#efb000"/><path d="M146.53 174.31s10.26.73 11.72.49 21.74-4 21.74-4 1.71 6.35.85 10a81.75 81.75 0 0 0-1.34 8.91s1.34 14.29-.61 17.22-4 5.25-6.84 6.11-3.54 2.69-8.67 2.32-8.67-2.81-9.53-4.27l-2.32-9.65s-2.08 8.79-3.79 10-3.42 3.66-8.06 3.91-12.33-2.93-12.33-2.93-2.69-.73-3.79-6.11-1.22-19.17-1.22-19.17l-.73-14.65s5.74-.12 8.79.73 16.13 1.09 16.13 1.09z" fill="#fd8204"/><path d="M128.58 173.58s.85 9.16.85 12.33-.49 12.46.24 16 1.59 8.79 2.81 11.23c0 0-3.42-1.47-4.27-3.18s-2.93-12.58-3.79-25.28c0 0-.73-11.6 0-12s4.16.9 4.16.9zM133 174.19s.73 6.11 1 9.16 1 12.21.85 14.17.85 14.41 3.05 17.1c0 0 2.81 1.34 3.3.61s-.89-4.77-1.61-8.23c-.6-2.87-.59-14-1-17.41s-1-13.31-.73-14.9c0-.01-3.86-1.11-4.86-.5zM142.5 174.43a20.37 20.37 0 0 0-.12 7.57c.73 4 1.59 17.22 2 21s.37 10.5-.73 11.48 3.18-.85 4.15-2.81-.73-22.47-.85-24.91-1.1-10.75-.37-12.21zM154.47 175.16s-.37 13.68-.61 18.32 1.89 21.33 4.15 20.76c.49-.12 2.93 1.34 5.37 1.34s6.11-1.59 6.11-2.08-.73-19.91-1-24.18-.73-15.26-.73-15.26l-4.64.61s2 32.36 1.59 35.54a32 32 0 0 1-.61 4s-2.81-.37-4.15-9-.85-29.43-1-29.8-4.48-.25-4.48-.25zM172.54 173.45s.73 21.25.61 24.18 0 11.11-2.56 14.9c0 0 0 .61 1.47.73s3.54-1.59 4.4-2.44 1.59-7 1.59-10-.37-21.49-.61-24.06-.61-4.88-.61-4.88z" fill="#e16702"/><ellipse cx="137.54" cy="116.75" rx="4.02" ry="4.74" transform="rotate(-30 137.536 116.753)" fill="#fd8204"/><ellipse cx="123.77" cy="136.06" rx="4.02" ry="5.04" transform="rotate(-30 123.781 136.067)" fill="#fd8204"/><ellipse cx="176.28" cy="129.95" rx="4.02" ry="5.04" transform="rotate(-30 176.279 129.954)" fill="#fd8204"/><ellipse cx="186.91" cy="117.13" rx="4.02" ry="5.04" transform="rotate(-30 186.917 117.124)" fill="#fd8204"/><path d="M159.6 89.41c1.36 2.36.94 5.16-.94 6.25-1.57.9-3.65.34-5.1-1.23-.29-.32 1.09-7.72 1.59-7.76a5.06 5.06 0 0 1 4.45 2.74z" fill="#fd8204"/><ellipse cx="147.46" cy="133.49" rx="5.04" ry="4.02" transform="rotate(-56.56 147.448 133.493)" fill="#fd8204"/><ellipse cx="179.04" cy="147.59" rx="5.04" ry="4.02" transform="rotate(-56.56 179.025 147.593)" fill="#fd8204"/><ellipse cx="134.28" cy="150.96" rx="5.04" ry="4.02" transform="rotate(-56.56 134.257 150.95)" fill="#fd8204"/><ellipse cx="157.89" cy="150.62" rx="4.02" ry="5.04" transform="rotate(-35 158.35 151.391)" fill="#fd8204"/><ellipse cx="161.51" cy="118.84" rx="5.04" ry="4.02" transform="rotate(-56.56 161.49 118.842)" fill="#fd8204"/><ellipse cx="171.28" cy="97.59" rx="5.04" ry="4.02" transform="rotate(-56.56 171.258 97.589)" fill="#fd8204"/><ellipse cx="124.38" cy="96.25" rx="5.04" ry="4.02" transform="matrix(.55 -.83 .83 .55 -24.48 146.99)" fill="#fd8204"/><ellipse cx="95.44" cy="140.82" rx="5.04" ry="4.02" transform="rotate(-56.56 95.432 140.812)" fill="#fd8204"/><ellipse cx="92.76" cy="111.15" rx="4.02" ry="5.04" transform="rotate(-55.07 92.742 111.142)" fill="#fd8204"/><path d="M110.71 94.31a3.21 3.21 0 0 1-2.77 1.76h-.12a3.12 3.12 0 0 1-.8-.1 3.21 3.21 0 0 1-3 2.3h-.47a6 6 0 0 0 1.91 2.16c2.28 1.6 5.17 1.41 6.44-.41 1.16-1.67.6-4.08-1.19-5.71zM107.21 152a3.21 3.21 0 0 1 3-1.35h.12a3.12 3.12 0 0 1 .78.22 3.21 3.21 0 0 1 3.28-1.86h.12l.34.07a6 6 0 0 0-1.59-2.41c-2-1.9-4.92-2.12-6.43-.49-1.38 1.49-1.17 3.96.38 5.82z" fill="#fd8204"/><ellipse cx="112.25" cy="115.5" rx="4.39" ry="3.5" transform="rotate(-56.56 112.23 115.492)" fill="#fd8204"/><path d="M125.33 46.52a.75.75 0 1 1 .75.75" fill="#fff"/><path d="M193.36 140.61c0-.48-4.09-1.74-4.81-2.77s-.78-2.65 1-2.65 4.69 1.14 5.17.72l.48-.42.72 1.62-.12 4.09a1.73 1.73 0 0 0 1.93.6c1.38-.3 1.44-1.93 1.44-1.93l-.24-3.61a4.72 4.72 0 0 1 3.37.36c1.56.9 3.43 1 4.21 2.89s1.38 4.45 1.93 5.9-.06 3.25-.72 5.54a55.23 55.23 0 0 1-2.41 6s-4.75.72-6.74.72-5.17-.42-6.62-1.8a2.35 2.35 0 0 1-.72-2.53 14 14 0 0 1-1.44-3.37c-.3-1.44.6-5.17.6-5.17s-.36-1.93.36-2.29a26.75 26.75 0 0 1 3.37-1z" fill="#fbdfcb"/><path d="M196.27 133.39c-.26-.78 1.18-57.52 1.18-57.52s-.42-3.37 1.44-3.73 1.56 4.57 1.56 4.57l-1.44 64s.36.54-1.32 1.08-1.93-.6-1.93-.6zM195.84 205.49a2.26 2.26 0 0 1 1.62 1.54h.54c.28-16.41.77-45.08.77-45.34s-.24-4-1.32-4a5.4 5.4 0 0 0-1.93.36l-.85 47.3a6.58 6.58 0 0 1 1.17.14z" fill="#efb000"/><path d="M126.49 65.46a3 3 0 0 1 2.16-1.46c1.34 0 2 .91 5.46 1.86s10.61 2.1 15.4.85c2.56-.67 8.6-3.26 9.24-3.45a1.45 1.45 0 0 1 1.43.3.76.76 0 0 1 .15 1.16c-.34.3-.91-.67-1.13-.7s-5.47 2.72-6.8 3.48c-2.1 1.19-6.07 1.62-9.58 1.49a27.39 27.39 0 0 1-8.36-1.86c-2.1-.76-4.79-2.29-5.46-2.29a6.6 6.6 0 0 0-2.07.79s-.5.62-.44-.17zM137.26 71.13s0-.46.58-.46a55.43 55.43 0 0 0 5.64.73 25.73 25.73 0 0 0 6.62-.67c.61-.3.95-.15.95 0a14.81 14.81 0 0 1-6.48 2.27c-3.01.18-6.77-1-7.31-1.87zM139.36 58.48a5.55 5.55 0 0 0 3.78 1.28 6.94 6.94 0 0 0 3.86-1.34c.18-.21.3-.61-.7-.34a8.93 8.93 0 0 1-3.17.43 24.86 24.86 0 0 1-3.2-.3s-.81-.4-.57.27zM155.58 38.29s.24.46 3.26.76 5.95 2.23 6.19 2.26.64 0-.09-.67a20.61 20.61 0 0 0-4.91-3c-1.21-.39-4.66-.73-4.45.65zM119.11 40.94c.06.18.38 0 1.85-.73a15 15 0 0 1 5.25-1.21c1.31 0 2.87 0 3.32.06s2-.73.21-1.4-6 .21-7.44.79a9.63 9.63 0 0 0-2.9 1.74 1 1 0 0 0-.29.75zM134.11 48.09a10 10 0 0 0-2.9-3.17 7.07 7.07 0 0 0-4.91-1.43c-1.31 0-3.67.21-4.71.88a7 7 0 0 0-2.18 2.82 1.19 1.19 0 0 0 .25 1 4.25 4.25 0 0 0 .89.83 13.1 13.1 0 0 0 3.08 1.32 16.66 16.66 0 0 0 5.77 0c1.2-.26 2.87-1.06 3.19-1.06s1.13.21 1.36 0 .61-.36.16-1.19zm-9.81 1.52a2.06 2.06 0 0 1-1.22-.19 9.53 9.53 0 0 1-1.86-1.27.83.83 0 0 1-.23-.58.11.11 0 0 0 0-.05c0-.29.46-.95 1-1.57a3.6 3.6 0 0 1 1.29-.92c.46-.2.64-.14.59.05a3.3 3.3 0 0 0-.57 1.92 3.08 3.08 0 0 0 1.25 2.35s.09.23-.24.26zm5.57-2.6a2 2 0 0 1-1.23 1.85 3.42 3.42 0 0 1-2.74.15 2.33 2.33 0 0 1-1.37-1.56 2.59 2.59 0 0 1 .2-2 .86.86 0 0 1 .39-.31.5.5 0 0 1 .27 0c.38.17.27.34.24.41s.06 1.65.06 1.65a1.71 1.71 0 0 0 1.39.91 1.42 1.42 0 0 0 1.48-1 1.61 1.61 0 0 0-.14-1.05.55.55 0 0 1 .7-.7c.66.23.79 1.15.75 1.64zm3 1.78c-.2.09-.6-.2-1.14-.2a3.58 3.58 0 0 0-1.29.38c-.11 0-.21 0-.16-.12a3.39 3.39 0 0 0 .59-1.48 3 3 0 0 0-.45-2.22 6.51 6.51 0 0 1 2.26 2.38c.32.76.32 1.17.15 1.26z" fill="#692f23"/><circle cx="125.99" cy="46.39" r=".75" fill="#fff"/><path d="M164.59 47.25a29.06 29.06 0 0 0-2.4-2.21 7.39 7.39 0 0 0-2.73-1.04 9.46 9.46 0 0 0-5.89.14c-1.44.65-2.7 3.21-2.81 3.87a2.08 2.08 0 0 0 0 1.07c.15.68.86.49.88.5a7.43 7.43 0 0 1 2 .19l3.32.85a10.53 10.53 0 0 0 4.53-.16 7.19 7.19 0 0 0 3.5-1.93c.38-.53-.04-.85-.4-1.28zm-8.95 2.2c-.59-.15-2.12-.9-2.71-1a2 2 0 0 0-.84.1c-.35 0-.19-.5-.19-.5l.26-.56a6 6 0 0 1 1.65-1.77 5.68 5.68 0 0 1 1.54-.82c-.06.11-.3.34-.4.53a3.48 3.48 0 0 0-.33 1.7 3.08 3.08 0 0 0 1.13 2.32zM161 47.2a2.33 2.33 0 0 1-1.56 2.05c-1 .28-2.68.26-3.3-1a2.53 2.53 0 0 1-.09-2.43s.16-.27.38-.27.34 0 .51.16.16.53.06.93a1.27 1.27 0 0 0 1 1.6 1.39 1.39 0 0 0 1.77-1.11c0-.38.08-1 .56-1s.72.28.67 1.07zm2.88.95a15.37 15.37 0 0 1-2.36 1.23.23.23 0 0 1-.12 0c-.21-.1.37-.49.62-1.63a3.41 3.41 0 0 0-.07-1.91c.5.35 1.43 1 1.89 1.43s.16.73-.01.88z" fill="#692f23"/><circle cx="156.92" cy="46.35" r=".74" fill="#fff"/><circle cx="137.47" cy="83.15" r=".64" fill="#692f23"/><circle cx="141.86" cy="82.62" r=".62" fill="#692f23"/><ellipse cx="145.76" cy="84.53" rx=".51" ry=".62" fill="#692f23"/><circle cx="150.13" cy="82.75" r=".67" fill="#692f23"/><circle cx="154.46" cy="83.25" r=".65" fill="#692f23"/><circle cx="158.39" cy="81.05" r=".64" fill="#692f23"/><circle cx="146.44" cy="89.24" r=".7" fill="#692f23"/><circle cx="152.05" cy="91.74" r=".7" fill="#692f23"/><circle cx="147.17" cy="97.36" r=".7" fill="#692f23"/><circle cx="141.93" cy="101.26" r=".7" fill="#692f23"/><circle cx="147.23" cy="105.5" r=".7" fill="#692f23"/><circle cx="152.14" cy="100.65" r=".7" fill="#692f23"/><circle cx="151.9" cy="108.98" r=".7" fill="#692f23"/><circle cx="141.96" cy="92.78" r=".7" fill="#692f23"/><path d="M165.28 195.34a32.52 32.52 0 0 0 5.12-1.42c1.3-.65 3.62-2 4.11-2.24s.49.16-.37 1a6.81 6.81 0 0 1-3.7 2.6 13.22 13.22 0 0 1-5.49.65c-.28-.07-.61-.55.33-.59zM154.19 86.82l-.01.01v-.01h.01zM172.25 231.72z" fill="#692f23"/><circle cx="124.24" cy="169.27" r=".9" fill="#692f23"/><circle cx="131.4" cy="164.14" r=".9" fill="#692f23"/><circle cx="137.34" cy="170.57" r=".9" fill="#692f23"/><circle cx="143.7" cy="165.52" r=".9" fill="#692f23"/><circle cx="156.64" cy="165.19" r=".9" fill="#692f23"/><circle cx="163.89" cy="170.32" r=".9" fill="#692f23"/><circle cx="170.4" cy="164.79" r=".9" fill="#692f23"/><circle cx="176.59" cy="168.13" r=".9" fill="#692f23"/><circle cx="181.15" cy="161.86" r=".9" transform="rotate(-35.54 181.149 161.863)" fill="#692f23"/><path d="M153 1.69l-.43-.08a17.69 17.69 0 0 0-4.47.08z" fill="#692f23"/><path d="M214.27 147.2c-.18-1-.7-3.15-.91-4 0-.1-.05-.21-.08-.33a45.13 45.13 0 0 0-4.45-8.72c-.93-1.38-1.35-3.34-1.87-4.33s-1-1.71-1.74-3.19a25.26 25.26 0 0 1-1.56-5.54 45.66 45.66 0 0 0-2.71-7.22 8.16 8.16 0 0 1-.72-2.35s.33-38.21.18-38.81-1-1.17-2.29-.84-1.32 2.17-1.32 2.17-1 32.73-.9 33c0 0-3-3.64-4.45-5.48s-5.41-7.91-8.72-10.89a37.21 37.21 0 0 0-11.88-7c-1.9-1-3.54-.53-3.39-.94a50.15 50.15 0 0 0 8.07-1.66 23.76 23.76 0 0 0 6.3-3 5.57 5.57 0 0 0 1-.65 19.33 19.33 0 0 0 3.89-2.52c1-1.07 5.15-2.26 7.93-6.1s6.07-6.62 6.53-8.08 1.59-4.15 2.1-5.95a46 46 0 0 0 1-10.55 24.58 24.58 0 0 0-1.31-7.69c-.67-1.56-5.37-9.82-7.32-12.75s-7.72-8.3-8.48-9.21a56.2 56.2 0 0 0-8.36-6.44 27.69 27.69 0 0 0-7-2.68l-3.65-1.11a47.55 47.55 0 0 0-5.53-2.24 21.22 21.22 0 0 0-5.41 0 7.77 7.77 0 0 0-4.97-1.6s-3.13.53-4 .57c0 0-1.91.24-2.6.28s-5.2-.12-6.87 0A30.69 30.69 0 0 0 129.11 4v-.08a70.41 70.41 0 0 0-7.28 4 88.89 88.89 0 0 1-7.56 4.8 82.89 82.89 0 0 0-7.27 5.35 46.49 46.49 0 0 0-7.36 9.72 45.68 45.68 0 0 0-3.74 10.45 37.48 37.48 0 0 0-.37 5.89c.09 1-.16 3.67 0 6.55a45.9 45.9 0 0 0 3.21 12.2 29.48 29.48 0 0 0 5.41 8.17c2.2 2.11 2.64 2.89 3 3.13 0 0 1.71 1.34 3.29 2.72a19.14 19.14 0 0 0 4.56 2.77c.77.33 4.72 2.48 5.45 2.77a16.46 16.46 0 0 1 2.72.89 2.6 2.6 0 0 0 1.55.21 3.56 3.56 0 0 0 1 .28 20.52 20.52 0 0 0 2.09.18c-1.76.7-5.45 1.92-7.69 3.09-4.09 2.13-5.77 4.88-7.34 5.94-1.29.87-21 8.78-24.58 13.11s-2.56 11.59-2 13.72 3.9 12.57 3.9 13.78-2.5 1-2.68 3.17 3.23 7.93 3.9 8.91 2.07 1.16 3 2 .85 2.26 1.89 3.66a6.4 6.4 0 0 0 3.54 2.38c.93.22 3.87.09 7.69-1.21a2.2 2.2 0 0 0 1.18.54v.85s-.61-.69-2.07-.2a2.34 2.34 0 0 0-1.75 1.67 2.22 2.22 0 0 0-2.07.81 2.26 2.26 0 0 0-.37 2.2 2.63 2.63 0 0 0-1.34 2.52 4.52 4.52 0 0 0 3.17 4.64 47.31 47.31 0 0 0 6.75 1.75c1.67.12 4.81 0 6.24-1v.87h1v-16.92h.1c0-3-.45-9.75-.34-12.56.09-2.29 1.05-12 1.4-17.66a1.32 1.32 0 0 1-.73-.9c-.16-.6.65-1.63.46-2.21a1.2 1.2 0 0 1-.85.42c-1.17-.32-2.2-4.7-2.2-5.55a18.23 18.23 0 0 0-.67-4.15c-.18 0-.67 3.48-.06 6.71a12 12 0 0 0 1.4 4.33 15.22 15.22 0 0 1-.85 2c-.37.61-1.89 1.89-2.74 1.83a27.7 27.7 0 0 1-6.59-2.13 18 18 0 0 0-6.1-1.77c-2-.24-1.1.55-.79.91a20 20 0 0 0 4.88 1.83 32.19 32.19 0 0 1 6.77 2.5 2.15 2.15 0 0 1 .67 3.11c-.43.43-1.77 1.28-5.49 3.23a41.37 41.37 0 0 1-11.28 3.54 8.77 8.77 0 0 1-3.66-.18s-3.11-10.67-3.54-12.81-1.77-7.08.37-11.53a9.77 9.77 0 0 1 6-5.55c1.1-.55 16.76-7.94 18.18-8.66 3.66-1.85 4.76-4.15 7.32-6.1s6.1-2.26 7.2-2.56 4.5-1.8 5-2c.74.34 1.94.89 2.91 1.29.3.16 1.27.52 2.21.85a4.63 4.63 0 0 1 1 1.06 5.92 5.92 0 0 1 .81 2.85c0 1.67.52 10.38.69 12.4.21 2.41.48 5.5.69 6.42.37 1.64 5.49 2.61 8.91 2.93a5.42 5.42 0 0 0 5.16-2.07c.16-.28-.57-18.18 0-19.44s1.19-3.56 2-4.14a10.86 10.86 0 0 1 4.81-2.58 14.49 14.49 0 0 1 7.88.36l.66.15a21.8 21.8 0 0 1 8.23 3.88 43.1 43.1 0 0 1 9 9c2.74 3.58 3.07 5 3.91 6.08s4.42 5 4.87 5.54c.1.12-.36 24.07-.36 24.07s0 .67.09 1.6a2.09 2.09 0 0 1-1.23.63c-1 .15-3.25-1-4.93-.66s-1.84 1.2-1.87 1.93a2.46 2.46 0 0 0 1.14 2.11s.33.27-.48.72a7.49 7.49 0 0 0-2.23 3.31c-.39 1.11-.66 3-1.38 3.55-.57.4-.8 0-1-.7-.25-3.41-.66-8.5-.9-9.62a21.21 21.21 0 0 1-.1-3.5 18.47 18.47 0 0 1 1.79-2.73c1-1.41 4.39-2.47 6.2-3s1.38-1 1.38-1 .12-.69-3.55.42-4.45 3.34-4.45 2.71.6-1.53 1.14-3.07 1.68-2 2.47-2.83.9-1.23.66-1.8-1.05.09-2.47 1.38a10.62 10.62 0 0 0-3.07 4.93c-.24 1.44-.69 2.83-.78 2.17s-.48-6.59-.48-7.82.9-2.35 1.14-3.37.78-5.87.24-5.72-.6 1.26-.54 2.29-.51 3.61-1.38 3-2.59-9.21-2.83-10.29-.09-2.8-.48-2 .51 7.58.78 9 1.47 6.35 1.56 7.88.42 5 .42 5c0 2.14.15 4.84.21 5.69.12 1.79 1.67 11.33 1.62 15.31v2.74h.72s3.14 8.1 3.57 8.65c.78 1 1.82 1.58 2.69 2.63s4.87 2.08 5.54 2.11a.32.32 0 0 0 .2-.05c-.07 4.41-.15 9.73-.19 12v.33s-.21 11-.45 24.15v2c-.19 0-.35.24-.41.51l-.37 1.56a4.49 4.49 0 0 0-1.47 1.39 6 6 0 0 0-1 2.83c0 .23-.26 1.9-.32 2.18s-.78.56-1 .85a7 7 0 0 0-1.24 1.75 9.4 9.4 0 0 0-.53 2l-1 2.63s-1.77 3.94-1.85 4.39c-.17 1-1 3.61-1.56 5.31-.33.81-.72 2.17-1 3-.45 1.59-.86 2.75-1.15 3.77v.23a10.48 10.48 0 0 0-1.55-2A18.7 18.7 0 0 0 176 231a25.17 25.17 0 0 1-1.79-2.24 4.4 4.4 0 0 0-2.13-.81h-7.91c-.79 0-1.54 0-2.12.12-1.59.2-5 .73-6.34.77a1.89 1.89 0 0 1-1.94-.89H152v.89a17.3 17.3 0 0 1-.49 4 5.73 5.73 0 0 0-.28 1.67 13.19 13.19 0 0 1-.89-3.9 25.25 25.25 0 0 1-.12-2.64h-1.91a2.54 2.54 0 0 1-.37.48v.13l-.09-.09s-.69.61-4 .2L138 228h-8.3a3 3 0 0 0-.82.36A25.44 25.44 0 0 0 126 231c-.89.77-2.07 1-3.5 2.4a7 7 0 0 0-2.11 3.42 12.76 12.76 0 0 0 .24 4.8 6.55 6.55 0 0 0 4.11 4.68 33.37 33.37 0 0 0 6.46 1.7c1.67.28 11.26.33 12.89.28a19.38 19.38 0 0 0 4.76-.61 3.86 3.86 0 0 0 2.12-2.37 8.59 8.59 0 0 0 1.67 1.93c.94.73 5.61 1.1 9 1.06h8.25a26.35 26.35 0 0 0 5.46-1.11 14.26 14.26 0 0 0 5-3.09 4.58 4.58 0 0 0 1.22 1.09 26.92 26.92 0 0 1 3.14 1.73c1.17.9 2.8 2.43 5.12 2.56s2.52-.24 4.31-.21 5 .32 6.8.25a15.65 15.65 0 0 0 4.1-.74c.7-.22 4.9-1.31 5.5-1.92s.21-1.28.15-2a13.6 13.6 0 0 0-.23-1.76c-.17-.86-.38-2.48-.63-3.68-.27-1.49-.6-3.55-.8-4.81-.24-1.45-.4-2.87-.55-3.6-.18-.88-.46-2.7-.63-3.53-.2-1-.51-2.79-.78-4.11a40.39 40.39 0 0 0-1.3-4.1c-.26-.64-1.59-4.12-1.86-4.83a10 10 0 0 0-1.38-2.5c-.22-.24-.47-.34-.51-.41-.23-.36-1.14-4.59-1.77-5.46s-.86-.93-.86-.93-.13-1.85-.6-2.09v-2.48l.52-28.57.14-7.67s1.74 0 4.57-.15a7.7 7.7 0 0 0 5.08-2 34.39 34.39 0 0 0 2.47-4.3c.33-.69 2.3-5.79 2.5-6.5a13 13 0 0 0 .2-4.17zm-107.14 7.1c.85-.16 1.34-.12 1.55.73s-.45.85-.45.85c-.94-.53-2.07.2-2.24-.41s.28-1 1.14-1.16zm-2.24 2.24a3.84 3.84 0 0 1 3.54 1A3.47 3.47 0 0 0 109 159a3.3 3.3 0 0 1 .77 1.5c0 .33-.16 0-.16 0a3 3 0 0 1-1.75-.2c-.81-.41-1.38-1.67-2.56-1.87s-1.63-.12-1.87-.94.69-.95 1.46-.95zm10.41 8.7c-2.11.69-5.65.41-8-.2s-4.43-1.75-4.92-3.29.33-2 .94-2.28 2.56.49 3.74 1.63 3.38.77 4.43.49a2.47 2.47 0 0 0 1.79-1.42 3.2 3.2 0 0 1-2.32-1.38 5.34 5.34 0 0 1-1.1-4 6.6 6.6 0 0 1 .41-2 1.58 1.58 0 0 1-.57-1.08 49.39 49.39 0 0 0 6.92-3.73c.14 4.47.52 13.12.56 15.78a3 3 0 0 1-1.88 1.48zm1.4-42.82a10.48 10.48 0 0 0 .95-1.29l-.52 11-.85-1s.53 0 .61-2.48-.65-3.58-1.14-3.78a1.46 1.46 0 0 0-1 0l-.1-.67a19.39 19.39 0 0 0 2.05-1.77zm-18.48 12.45a50 50 0 0 0 9.94-3.23c2.38-1 6.53-4.57 6.53-4.57s1-.16.77 1.26a6.16 6.16 0 0 1-2.16 4.47c-2 2-2.11 2-2.2 2.36s.53.2 1.06 0 2.81-1.71 2.81-1.71.33-.53.73 0 1.26 1.83 1.26 1.83-.29 6.12-.35 9.31a20 20 0 0 1-3.08 2.74c-3.17 2.44-10.86 5.55-13.3 4.82s-2-1.59-2.87-3.54a4.57 4.57 0 0 0-2.56-2.44s.67-.06 3.11-.55a8 8 0 0 0 3.9-2c-.67.18-7.75 2-9 1.16s-1.4-2.26-1.83-3.17a27.19 27.19 0 0 1-1.89-3.17c-.49-1.34.06-1.77 1-2.26s5.08-.82 8.13-1.31zm84-59.59a6.43 6.43 0 0 1-2.28 2.28 30.63 30.63 0 0 1-6.22 2.6 11.24 11.24 0 0 1-4.23.61 14.38 14.38 0 0 0 3.5-2.28 15.34 15.34 0 0 0 4.51-6.26c.81-1.71 2.24-7.12 2.77-8.21s1.83-3.38 1.83-3.38a10 10 0 0 1 2-2.48 4.89 4.89 0 0 0 1.34-1.46s-.29 1.33-.38 2h-.07s-.24 1-.49 2.24-1.3 2.52-1.67 3.94A16.66 16.66 0 0 0 183 71a5.62 5.62 0 0 1-.82 4.28zm4.65-4.12a4.78 4.78 0 0 1-.87 2.26c-.58.73-1.4 1.62-1.4 1.62a3.54 3.54 0 0 0 .06-1.62h-.05c.17-2.28-.81-4.64-.88-6.72a7 7 0 0 1 1.18-4s.2.41 1.18 3.33.91 3.83.74 5.13zm-.71-9.55a10.59 10.59 0 0 1 .24-3.24l.08-.05a17 17 0 0 1 1.59-3.7 18.66 18.66 0 0 0 1.83-4.34c.39 2.64-.52 8.74-.52 8.74a21.39 21.39 0 0 0 1.49-4 25.58 25.58 0 0 0 .27-6.68 27.78 27.78 0 0 0-1.19-4.88 3.86 3.86 0 0 1-.21-2.56c.06-.67.88-4.76-.12-8.14 0 0 1.31.82 2.74 3.93s2.44 4.06 3.48 9.79.4 9.58.06 10.34-1.49 3.51-3.39 4.88a21.86 21.86 0 0 0-4.33 5.08c-.51-1.3-1.81-4.19-2.06-5.16zm-5.47-21.41a20.93 20.93 0 0 1 4.67 1 7.08 7.08 0 0 1 3.93 6v.05a10.12 10.12 0 0 1-.55 2.5c-.33.53.12-2.11-1.79-3.54 0 0-.77-.77-3.13-.53s-3.25 1.1-4.19-.28-.89-3-1.63-3.82a27.32 27.32 0 0 1-2.52-3.19 7.37 7.37 0 0 0 1.46.67 2.49 2.49 0 0 1 1.56.85 9.57 9.57 0 0 0 2.81 2.78 8.55 8.55 0 0 0 4.48 1.13 15.7 15.7 0 0 1-5.14-3.61zM197 46.92c-.79-4.36-2.74-9.7-4.21-11.83l-.56-.81c2.08 2 5.55 6 6.39 9.66 1.1 4.82-.18 7.14-.43 8.63a14.41 14.41 0 0 1-.88 2.85 31.45 31.45 0 0 0-.31-8.5zM168.55 5.35c1.28.24 2.84.64 2.84.64s3.93 1 10.34 5.64 12.07 12.14 12.62 12.57 4.39 7.44 5 8.45 1.56 3 2 3.63a13.66 13.66 0 0 1 1.65 6.06 41.7 41.7 0 0 1-.21 9.36 22.82 22.82 0 0 1-2.71 8 52.66 52.66 0 0 1-5.25 6.83 46.27 46.27 0 0 1-6.13 5.22 20 20 0 0 1 3.3-7.69c2.62-3.63 5.12-5 6.43-8h-.08a28.7 28.7 0 0 0 2.06-7.85c0-1.16-.73-6.4-2.13-8.42s-2.81-4.3-4.73-5.4a18.71 18.71 0 0 1-4.06-4.06c-.39-.59-.69-1-.82-1.28a72.08 72.08 0 0 1-3.57-8.48c-1-3.11-5.15-7-6.1-7.93a60.14 60.14 0 0 0-6.28-4.76 44.78 44.78 0 0 0-4.67-2.38s-.79-.39.5-.15zm-5-1.88a15.45 15.45 0 0 1 3.62 2.11s2 1.32 3.23 2.11 3.45 2.07 4.39 2.84a58 58 0 0 1 5.21 5.19 42.33 42.33 0 0 1 4.73 7.47 46.93 46.93 0 0 1 3 9.58 69.05 69.05 0 0 1 .64 7.69 1.8 1.8 0 0 1-.43 1.49c-.27.18-1.62-1-2.53-1.65a25.81 25.81 0 0 0-7.08-2.59c-1.8-.21-3.9-.58-4.91-2.47s-.58-4.27-.4-5.58a52.5 52.5 0 0 0 .85-8.36 15.13 15.13 0 0 0-3.25-8.3c-.91-.95-2.25-2.43-2.39-2.51s-6.38-5.2-8.78-7c0 .02.24-1.32 4.1-.02zm-15.65-.94a7.7 7.7 0 0 1 4-.77c2.64.08 4.11 1 5.2 3.25a26.83 26.83 0 0 1 2.24 13.46s1.26-.69.65-8a34.28 34.28 0 0 0-1-4.92c-.41-.77-.28-1.42 1-.61a67.85 67.85 0 0 1 7.4 6.1 31.87 31.87 0 0 1 4.22 6.29c1.22 2.81.91 7.9.76 9.09s-.34 5.54-1.77 7c-.37-.08-.41.57-2 .81a28.72 28.72 0 0 1-5.61 0 16.32 16.32 0 0 1-3.5-.73 8.3 8.3 0 0 0-2-.53c-.53 0 1.63-.45 1.91-3s-.81-5.61-.73-6.1-.53.45-.49 2.32-.69 4.55-2.32 5.69-6 1.46-7.24 1.46a20.57 20.57 0 0 0-4.72 1.3c-.41.16-1.42.65-1.59-.85s-1.38-5.49-1.75-6.87a34.33 34.33 0 0 1-.89-6.83 27.45 27.45 0 0 1 .81-4.8 50.86 50.86 0 0 1 2.4-6 26.91 26.91 0 0 1 5.02-6.76zm-11.71.65c3.58-1.38 8.13-.53 8.13-.53a19.85 19.85 0 0 0-4.55 3.66c-1.55 1.91-5.35 6.32-6.15 9.82s0 3.07 0 3.07 1.44-4 2.09-5.25c.77-1.45 4.42-7.15 6.57-8.45s1.72-.12 1.72-.12l-.14.18a29.16 29.16 0 0 0-3.54 6.87c-.67 2.41-1 3.14-1.12 3.87-.28 1.53-.63 3.86-.87 5s-1.63 2.72-2.11 4.39-1.55 4.31-1.55 5.73.08 2.32-.57 2.6-2.68.37-3.46-.45.48-4.36.4-4.94c-.13-1-1.05 2.34-2.23 3.4a11.29 11.29 0 0 1-4.42 2.09c-1.3.33-3.65 1-4.72 1.31-.86.23-2.81 1.19-3.54-.15s-.89-5.12-.89-5.12a23.32 23.32 0 0 1 .81-7.08c1.06-4 7-10.94 10.13-14s6.43-4.51 10.01-5.9zm-14.84 7.08a52.61 52.61 0 0 1 7.27-4.45h.09c-.16 0-1.38.61-3.94 3a45.34 45.34 0 0 0-7.44 8.91c-1.71 3-3.7 5-3.21 13.83a21.3 21.3 0 0 1 .61 3.25 2.39 2.39 0 0 1-1.4 2.2c-.73.2-1.71-.37-2.44-1.63a1.35 1.35 0 0 0-.35-.42 13.94 13.94 0 0 1-.75-6.73c.45-4.23 4.07-9.8 5.08-11.43a34.3 34.3 0 0 1 6.48-6.53zm-14.89 35.05c0 .81-.28.77-.28.77A10 10 0 0 1 105 43c-.57-2.2-.37-7-.2-8.58a21 21 0 0 1 2.8-7.42c.68-1 1.32-1.89 1.82-2.54a29.16 29.16 0 0 0-1.05 5.54 9.93 9.93 0 0 0 1.1 5.73 1.43 1.43 0 0 0 .32.39c.22.42.54.92.82 1 0 0-1.79 1.46-2.36 2.07a.51.51 0 0 0-.16.27c-1.67 1.41-1.63 5.05-1.63 5.85zM97 42.3a35.51 35.51 0 0 1 3.62-13.09 36 36 0 0 1 10.48-13.1 12.42 12.42 0 0 1 4.76-2.72s-4.39 5.45-5.12 7.08a1 1 0 0 1 .06-.29s-4.39 5-5.29 7.36-2.28 5.9-2.28 7.36a3.55 3.55 0 0 1-.73 1.46c-.57.65-2.24 2-3.13 3.21a24.18 24.18 0 0 0-1.75 3.62c-.27.37-.62.58-.62-.89zm6.42 24.85a36.36 36.36 0 0 1-5.9-10.78 15.18 15.18 0 0 1-.2-10.61c.53-2.11 4-6.91 5.53-8.05a33.07 33.07 0 0 0 .28 5.65 13.53 13.53 0 0 0 1.37 3.86 16.94 16.94 0 0 0-1.74 5 27.59 27.59 0 0 0 .49 12.28 28.15 28.15 0 0 0 1.61 4.47c-.48-.67-.99-1.3-1.41-1.82zm14.8 13.34c-1.3-.37-2.07-1.63-3.62-3.46s-1.87-3.58-2.89-4.88-.94.37-.94.37a9.77 9.77 0 0 0 1.22 2.4c.65.77 3.5 4.07 3.5 4.07a2.66 2.66 0 0 1-1.67-.65c-2.56-1.5-5.49-5.25-5.49-5.25a42.06 42.06 0 0 1-3.7-8.09c-2-5.57-1.5-8.86-1.5-8.86s1 7.77 4.84 11.06c0 0-3.25-6-3.74-11.22s.41-7 .41-7a2.45 2.45 0 0 1 .4-.48c0 .25.07.77.08 1.17 0 1.38.37 4.15 1.18 5.33a31.26 31.26 0 0 1 2.06 4.43v.13a36.41 36.41 0 0 0 2.28 7 45.26 45.26 0 0 0 5.36 8.07c1.67 1.91 4.11 3.82 5.65 5.45a9.3 9.3 0 0 1 .74.9 11.13 11.13 0 0 1-4.13-.49zm12.61 2.93a12.2 12.2 0 0 1-5.77-1.63 71.12 71.12 0 0 1-7.24-6.47c-2.48-2.52-6-9.52-6.3-10.17s-2.71-6.81-2.84-7.14v-.14c-.49-1.34.49-.49.49-.49s.89 1.18 3.33 5a75.27 75.27 0 0 0 9.11 10.9c2.18 2.29 6.68 4.44 9.74 5.73 1.23.89 1.14 1.51 1.48 2.93s.17 1.35-1.97 1.47zm3.58-1.3c-.06-.46-.12-1.47-.15-1.93l.15.06a17.87 17.87 0 0 0 1.93.43c-.55.43-1.49 1.16-1.91 1.54zm4 3.13a8.16 8.16 0 0 1-3.41-1.96 36.57 36.57 0 0 0 3.15-2.3c.14.26 2 3.73 2.6 4.8a12.88 12.88 0 0 1-2.33-.55zm10.15 16.27c1.59-1.22 3.78-2.74 4.64-3.92.06 1.71.13 3.59.18 5.33a20.31 20.31 0 0 1-4.8-1.41zm4.18 2.77s-3.82 4.31-5.45 4.88l-5.45-3.92a38.88 38.88 0 0 0 5.29-2.74 37.6 37.6 0 0 0 5.62 1.78zm-5.57-3.41a23.61 23.61 0 0 1-5.17-3.54l4.55-3.67a44.05 44.05 0 0 0 6.24 2.33 41.07 41.07 0 0 1-5.6 4.88zm-.71-8.77l-.1-.06a22.43 22.43 0 0 1-3.94-2.63 12.25 12.25 0 0 1-1.42-2.1c2.56.18 7 .32 8.84.32.14 0 1.59-.3 3.14-.59-1.24.88-3.42 2.42-3.93 2.76s-1.69 1.46-2.58 2.3zm.9-10.43a34.31 34.31 0 0 0 5.29-.46 33.61 33.61 0 0 1-2.33 3.73 38.48 38.48 0 0 0-2.95-3.27zm1.86 4.32a43.16 43.16 0 0 1-6.67 0l3.15-4.15c.85.41 2.97 3.34 3.52 4.15zM142 84.67c-.1-.26-1.49-2.48-2.08-3.42 1.28.18 2.54.33 3.47.37h.73c-.55.87-2.07 3.38-2.12 3.05zm-1.8 4.57c0-1.14.12-.73.12-.73a12.53 12.53 0 0 0 5.11 4.49l.33-.26a1.43 1.43 0 0 1-.33.26l-4.69 3.74c-.1-2.96-.56-6.62-.59-7.5zm.57 9.92v-.94c.58.47 3.95 3.11 4.8 3.59l.1.05c-1.43.78-3.68 1.74-4.56 2.11a19.94 19.94 0 0 1-.39-4.8zm.81 9.47a8.71 8.71 0 0 1-.16-2.37c1.17.92 4.34 3.5 5.35 4.22-2.52-.31-4.67-.48-5.24-1.84zm11.67.94a6.44 6.44 0 0 1-5.29 1.22l-.63-.15c1-.5 5.08-3.53 6.16-5.51-.01 2.38-.05 4.19-.29 4.45zm-.08-17.44v2.47a46.53 46.53 0 0 1-5.42-1.88l6.19-5a19.58 19.58 0 0 0-.82 4.41zm3.31-8.13c-.59.26-3.21 1-5 1.51.81-1.19 2.48-4.43 2.48-4.43a12.09 12.09 0 0 1 3.12 2.68c-.21.11-.44.19-.6.24zm3.17-1.79a2.75 2.75 0 0 1-1.23 1 6.62 6.62 0 0 0-2.78-2.77c1.38-.4 2.8-.86 3.88-1.22a4.61 4.61 0 0 1 .13 3.01zm-13.74-2c-11.06.16-16.75-3.38-21.55-6.63s-9-8.86-10.33-11a48 48 0 0 1-2.89-5.9 4.73 4.73 0 0 1-3-1.75c-1.59-1.71-2.32-4.27-1.79-5.69a3.05 3.05 0 0 1 2.4-1.63 12.52 12.52 0 0 1-1-3.82 6.3 6.3 0 0 1 1-4.19 9.29 9.29 0 0 1 2.32-1.42c.87-.33 13.18-2.48 13.95-2.77a23.05 23.05 0 0 1 4.35-1.14 9.78 9.78 0 0 0 5.82.65s.2-3.7.81-4.88 1.22-4.59 2.2-5.81a10.47 10.47 0 0 0 .85 3.29 25 25 0 0 1 1.77 6.48 11.18 11.18 0 0 1 0 2.6c-.12.49.77.81 2.16-.28s8.25-2.16 10.13-2.2a18 18 0 0 1 7.44.85c3.13 1.14 9 .57 9.92.28a9.17 9.17 0 0 0 3 3 7.14 7.14 0 0 1 3 3.5c.41.85.53 3.7 2.64 5.12a6.91 6.91 0 0 0 1.18.73c.37.12.77-.28 1.26-.65a3.6 3.6 0 0 1 3-.28 3.55 3.55 0 0 1 2.64 3.54c.12 2.11-.33 4.8-2.4 6a12.37 12.37 0 0 1-3 1.38 22.82 22.82 0 0 1-.81 2.56.43.43 0 0 0 0 .22c-.73 1.45-1.5 2.07-3.49 4.7s-5.81 5.9-9.64 8.66-10.85 6.35-21.94 6.51zm15.95 1.54h-.21l-.26-3.19a55.6 55.6 0 0 0 9.61-5.43 48.51 48.51 0 0 0 7.28-7.4s-.53 1-1.1 2.36-.24 2.64-1.55 5.2-4.64 4.43-6.83 5.65a58.75 58.75 0 0 1-7 2.85zm-12.39 158a.41.41 0 0 0 .11.24 1.15 1.15 0 0 1 0 .5c-.08.49-1.14.81-1.46.89 0 0-1.63.94-1.59-.94 0-.68.11-1.55.18-2.47a7.34 7.34 0 0 0 1.69 0 3.34 3.34 0 0 0 1.42-.41 4.86 4.86 0 0 0-.36 2.18zm-3.18-5.75c.69.41 1.27.76 1.58.91a8.94 8.94 0 0 1 .84.48c.3.42.39.9-.23 1a5.44 5.44 0 0 1-1.73-.14 5.65 5.65 0 0 0-.46-2.25zm-1.23-3.68s.53-.41 2.36.37a3.2 3.2 0 0 1 1.58 1.81 5.86 5.86 0 0 1 .3 1.67c-.68-.42-2.55-1.53-4-2.24.1-.2.26-.74-.38-1.5l-.12-.13zm-2.69-.52a1.52 1.52 0 0 1 1.14 1.33l-.07.05a41.76 41.76 0 0 0-4.17-.8 4.52 4.52 0 0 0-.24-1.34c1.32.28 2.75.63 3.35.79zm-3.62 4.51c.33-.35.44-.26.57-1.1a7.36 7.36 0 0 0 0-1.78 24.52 24.52 0 0 1 3 .6 4.51 4.51 0 0 1 2.92 3.88l-.4-.13a42.75 42.75 0 0 0-6.1-1.27c.01-.07 0-.15.03-.18zm-4.88-4.92a1.54 1.54 0 0 1 .72-.56 17.33 17.33 0 0 1 2-.07h-.24s1.89.28.83 1.37h-3.88a3 3 0 0 0 .59-.72zm-5.61.65c.53-.53 1-.73 2.85-1.14 1.12-.25 1.42-.16 1.48-.06-.23.09-.35.28-.91.91a4.83 4.83 0 0 1-2.4.89h-1s-.53-.05-.01-.58zm-4.39 4.21c.21-.3 1.37-1.64 5.82-2.5.61 0-1.38 2.44-1.38 2.44l2-.16a6.09 6.09 0 0 1 1.22-2.36c.85-.89 3-.61 3.78-.65a7.28 7.28 0 0 1 .78 0 1.35 1.35 0 0 1 1.09 1.27 2.4 2.4 0 0 1-.79 1.91c-.79-.08-1.59-.13-2.38-.16a42.52 42.52 0 0 0-9.27.65c-.86.2-.9-.2-.86-.42zm-1.5 2.5c.66-.13 2-.23 2.52-.28.32 0 1.17-.14 2.28-.25-.25.64-.76 2.6-.9 3s-.5 1.46-1.34 1.06c-2.93-1.43-2.55-3.51-2.55-3.51zm2.52 8.42c-1.5-.65-2.77-1.38-3-5v-.13a8.18 8.18 0 0 0 3.27 1.94c-.1 3 1.23 3.64 1.23 3.64l.07.05a14.37 14.37 0 0 1-1.56-.48zm8.66.81a1.6 1.6 0 0 1-1 .58c-.91 0-1.62.08-1.67.11a8.82 8.82 0 0 1-1.53-.26 8.07 8.07 0 0 1-1.52-1.2 3.92 3.92 0 0 1-.71-2.65h.22a39.14 39.14 0 0 0 6.32.68 4 4 0 0 1-.1 2.76zm.85-4.55c-.81.53-6 .45-6.51 0a2.5 2.5 0 0 1-.16-2.93 10.4 10.4 0 0 1 1.49-2.41c1-.07 2-.11 3-.11s2.16.08 3.44.2c.21.14.36.42.22 1-.33 1.26-.65 3.74-1.47 4.27zm9.8 2.48c-.33 1-.77 2.07-1.67 2.32a7.63 7.63 0 0 1-1.44.18h-3.7a2 2 0 0 1-1.45-1 1.39 1.39 0 0 1 .79-2.07h1.08c.74 0 3.71-.05 6.39-.17.12.05.16.29.01.76zm.24-2.2a38.35 38.35 0 0 1-6.83 0c-.94-.24-.94-.77-.85-1.55a36.67 36.67 0 0 1 1.3-3.82c2 .24 3.84.5 4.43.6s1.24.31 2.09.53a1.22 1.22 0 0 1 .72 1.1c.01.93.13 3-.84 3.16zm5.08 2.79a1.74 1.74 0 0 1-.32.46 4.91 4.91 0 0 1-2.76 1.11c-.61 0-1.21 0-1.21-.25a5.39 5.39 0 0 1 1.06-2.52c.41-.24 2.07-.2 2.68-.45a9 9 0 0 0 .84-.36 2.1 2.1 0 0 1-.28 2.03zm28.67-10.31s.54.72-.7.57a31.13 31.13 0 0 0-3.82-.62l-1.42-2.38c.15.02 3.84.33 5.96 2.45zm-5.41-5c1.14.61 1.3 1.3 1.3 1.3a16.77 16.77 0 0 0-3.22-.36 1 1 0 0 1-.4-.33c-.33-.55-.66-1-.87-1a7.43 7.43 0 0 1 3.21.41zM172 234h-.91c-2.89.08-5.45.2-5.45.2s-1.71-2.68.33-3.13H166.3a20.51 20.51 0 0 1 3.76.13 2.31 2.31 0 0 1 .91 1.09A15.28 15.28 0 0 0 172 234zm-7.09-5.21c.53-.08 2.36-.32 3 .18a8 8 0 0 1 .91 1.08c-1.59 0-3.09.08-4.17.15a1 1 0 0 1-.31-.72s.04-.56.57-.64zm-6.63 2.39v-.44a5.82 5.82 0 0 1 .11-.58c.05-.12.1-.24 3.71-1a1.89 1.89 0 0 1 1 0s0 .51-.05 1.1a35.23 35.23 0 0 0-4.74 1s-.04.13-.03-.03zm-.77 2.66a4.15 4.15 0 0 1 1.59-1.5 15.78 15.78 0 0 1 3.9-1 5.19 5.19 0 0 1-.08.59 9 9 0 0 0 .33 2.51l-6.25 1.47a8.71 8.71 0 0 1 .51-2.02zm-4.79-.31a5.1 5.1 0 0 1 2-2.83 3 3 0 0 1 2.11-.48c0 .17-.06.67-.08.94s-.05.51-.05.67a.2.2 0 0 1-.14.2c-1 .56-3 1.65-3.42 1.84s-.41-.3-.43-.29zm3.2.35a14.22 14.22 0 0 0-.47 1.62 4.59 4.59 0 0 0-.06.53 4 4 0 0 1-1.45.31h-.09c-.61-.08-.57-.69-.28-1.14a9.23 9.23 0 0 1 2.34-1.27zm-3.57 3.45c.69.12.37.53 1.46.65a5 5 0 0 0 1.54 0c0 1.12.11 2.35.21 3.17-1 1-2.77-.38-2.77-.38a3.37 3.37 0 0 1-1.08-1.81s-.05-1.7.64-1.58zm1.67 8.46c-1-1-1.5-1.14-1.91-3v-.21a30.68 30.68 0 0 0 3.93.71 10.31 10.31 0 0 0 1 2.65s-2.04.92-3.04-.1zm3.38-4.31h-.09c-.2-.46-.34-.66-.43-.87a9.77 9.77 0 0 1-.14-2.16s0-.89.49-1 6.75-.94 6.75-.94a17 17 0 0 1 1.57 3.69.41.41 0 0 0 0 .09 4.08 4.08 0 0 0 .13.47.84.84 0 0 1-.45.91c-.53.37-3.62.33-5.73.24s-2.11-.38-2.11-.38zm9.19 3.57a1.48 1.48 0 0 1-1.3 1.23 35.59 35.59 0 0 1-5.52-.15 2.74 2.74 0 0 0-.41-.14c-.2 0-.94-1.1-1.46-2.89.57-.12 6.06 0 7.52.12s1.16 1.88 1.16 1.88zm.45-5.2s-.57-2.56-.77-3-.2-.85.81-.94 5.2-.45 6 .08a4 4 0 0 1 1.26 1.87 5.86 5.86 0 0 1 .57 2.52c-.08.85-.94 1.1-1.55 1.22a24 24 0 0 1-5.37-.16c-.8-.2-.99-1.54-.99-1.54zm8 3.82a4 4 0 0 1-1.26 2.28 4.44 4.44 0 0 1-2.4.74c-1.28.13-2.26.08-2.6-.29a2.62 2.62 0 0 1-.45-1.18c-.34-2 .12-1.91.12-1.91a19.06 19.06 0 0 0 3.66-.08c1.71-.24 3.17-1.1 3.21-.77a4.48 4.48 0 0 1-.32 1.26zm0-7.64l2 .21 2.68.44a2.62 2.62 0 0 1-.65 2 4.37 4.37 0 0 1-2 1.55c-.49 0-.57-.41-.77-.81s-1.3-3.34-1.3-3.34zm3.7 8.21l-.41.26-2.23.78c.12-.22.26-.52.44-.92a6.36 6.36 0 0 0 .49-2.46 8.18 8.18 0 0 0 3.13-1.77s.37 2.87-1.5 4.16zm21.5-128.59s1.71 4.9 2.65 7.28.24 2.11.24 2.11a7.94 7.94 0 0 0-3-1.31zm-2.41-39.23c.06-1-.24-3.55 1-3.49s1 1.38 1 1.38l-.48 41.82s-.72 24.28-1 24.79-1.74.48-1.74.48 1.08-63.96 1.14-64.92zM189 135.86c.87-.33 4.12.6 5.17.66a3.55 3.55 0 0 0 1.35-.15c0 1.78 0 3.65-.32 3.88a.92.92 0 0 1-.56.14s-.57-.16-1.35-.4a15.73 15.73 0 0 1-3.67-1.57c-1.43-1.03-1.46-2.23-.62-2.56zm1.35 26.14c-1.35-1-3.55-4.72-4.39-6.32a13.18 13.18 0 0 1-1.44-3.91c-.21-1.14.63-5.84 1.38-6.86s1.65-1.8 2-2.47a3.76 3.76 0 0 1 2.65-1.87 3.84 3.84 0 0 1 2.71.9 4.4 4.4 0 0 0-3.55 1.26c-.63.66-.06 2.35-.06 2.35a2.42 2.42 0 0 0-.84 1.29 23 23 0 0 0-.45 5.17c.06 2.23 0 4.12 1.2 5.35a7.83 7.83 0 0 0 2.41 1.71s.27 0-.12-.27a6.08 6.08 0 0 1-2.47-4.63 8 8 0 0 1 .38-3.13 7.93 7.93 0 0 0 .56 1.48 4.41 4.41 0 0 1 .54 1.8 2.66 2.66 0 0 0 1.68 2.95c1.7.81 2.28 1.07 2.43 1.13 0 .67-.05 2.74-.1 5.31-.24.04-3.22-.24-4.52-1.24zm4.7 41.5a4.11 4.11 0 0 1 2.31-.07 1.5 1.5 0 0 1 .82 1.16c0 .49 0 .85-.44 1h-2.62s-.65 0-.65-.52.14-1.3.58-1.54zm.37-3.1c.17-8.09.36-16 .48-22.47s0-1.84 0-4.36v-.86c0-5.15.1-12.4.18-13.44.06-.78.33-1.07.61-1.16h.59a.85.85 0 0 1 .64.83l-.06 14.26h.06c-.15 7.5-.55 28.94-.55 28.94s0 .31-.42.3-1.63.12-1.63-.25v-1.83zM189 240.66a52 52 0 0 1-.75 6.14c-.19.42-.9.22-1.12.15a12.54 12.54 0 0 1-2.27-1.32c-.07-.07-.24-.18-.27-.68s.89-3.92 1.38-6.38c.29-1.34-.06-1.74-.29-1.34a9.52 9.52 0 0 0-.36 1.23 54.67 54.67 0 0 1-1.46 5.77.52.52 0 0 1-.38.36c-.81-.55-1.79-1-2-1.45a1.53 1.53 0 0 1 0-.9 7.14 7.14 0 0 0 .29-1.14 10.14 10.14 0 0 0 .27-1.3 56.59 56.59 0 0 1 .84-6.35c.4-1.27 1.93-6.69 2.14-7.4.32-1.11 2.18-5.54 2.29-5.71s.24.19.25.8c0 0-.07 2.55-.18 3.61 0 0-.07.64.1.61s.24-.16.29-.61c.24-2.63.4-5.55.57-7.41.23-2.49.84-2.82 1.44-3.57.33-.41 1.13-.93 1.48-.82s.32.62.07.9a4.21 4.21 0 0 0-.81 1.31c-.67 1.29-.88 9.45-.85 11s-.22 7.62-.27 9.36c.02 1.11-.28 4.34-.4 5.14zm8.26 5.48c0 .49.06 1.83-1 2s-2.58.1-3.61.18c-.36-.06-.48-1.68-.52-2.39s0-2.51 0-2.85c0-.57-.31-.06-.32.62 0 .36 0 3.33-.08 4s-.29.78-.29.78a1.71 1.71 0 0 1-1.47-.16c-.6-.45-.37-1.61-.37-2.55s.91-6.34 1.07-9.73c0-1.05.24-7.32.18-9s.22-7.85.28-9.48a5.25 5.25 0 0 1 .58-2.65 2.76 2.76 0 0 1 2.14-1.66c.54 0-.56 0-1.31 2.18a20.52 20.52 0 0 0-.2 3.63c.1 2.64.6.4.67-.41s.21-2.32.37-3.07a3.19 3.19 0 0 1 1.45-2.12c.17-.09.37-.1 1 0 .28.09.58.24.61 1.08 0 .68.06 6.93.15 7.43s.7 13.73.71 15.18.03 8.48-.01 8.99zm8.92 1.08a5.15 5.15 0 0 1-3.27.85 2.26 2.26 0 0 1-1-.1c-.5-.28-.19-.87-.17-1.84s0-2.13-.28-2.19-.14.81-.16 1.71a6 6 0 0 1-.24 2 .81.81 0 0 1-.58.35h-.33c-.2 0-1-.09-1.24-.63a24.19 24.19 0 0 1-.42-3.4s-.34-11.14-.5-12.34-.81-12.71-.8-13.2-.09-3.14-.09-3.14 0-.55-.06-1.07a.72.72 0 0 1 .49-.79 4.83 4.83 0 0 1 .91-.12 1.09 1.09 0 0 1 .78.2 2.55 2.55 0 0 1 .35.33c.95 1.27 3.27 11.11 3.67 13s1.46 7.81 1.66 8.52a27.41 27.41 0 0 1 .51 4.22 41.26 41.26 0 0 0 .68 6.18c.12.38.44 1.24.11 1.46zm-5.18-33.6a16.58 16.58 0 0 1 1.49 3.35s.12.21.24.15.13-.1 0-.52a28.36 28.36 0 0 0-1.52-3.31c-.24-.33-.25-.54-.15-.62s.55 0 1 .35a3.81 3.81 0 0 1 .46.69c.32.58.62 1.19 1.15 2.38s1.28 3.47 2.21 6 3.47 20.28 3.54 20.9c.29 2.77.3 3.32.15 3.38l-.72.19c-1.22.38-1.56.16-1.62.08a25.09 25.09 0 0 1-1.07-6.91c-.1-3.55-.95-8.33-2.88-16.42s-3.06-9.51-3.33-9.88c-.11-.15-.27-.44.17-.51s.74.35.88.7zm-1.28-5.8a10.51 10.51 0 0 1 .67 3.14 1.65 1.65 0 0 1-1.57 1.13 21.24 21.24 0 0 1-4.57-.08c-1.38-.25-1.66-.35-2-.86s-.15-1.56-.12-2.15a2.85 2.85 0 0 1 .78-1.88 2.35 2.35 0 0 1 1.34-.82h.18l2.44-.09h1.45c.24 0 .99.12 1.44 1.61zm-3.39-50.54a11.77 11.77 0 0 1-3.73-1.2c-.81-.33-1.56-1.29-1.2-2s1.9.73 3.49 1.05a5.65 5.65 0 0 0 2.26.12c.51 0 3.93-.09 5.35 0s1.22-.71.66-1.05a7.15 7.15 0 0 0-4-.15 25.87 25.87 0 0 1-2.74.36h-.1a18.83 18.83 0 0 1-3-.76c-1.38-.51-2.26-1-2.77-2.41s.54-1.23.84-1h.07c.29.1 1.37.5 1.7.67A6 6 0 0 0 197 152a7.42 7.42 0 0 0 3.73-.69 12.79 12.79 0 0 1 3.16-.12c.74 0 .87-.29.42-.9s-1.84-.56-2.62-.51-2.3.83-3.28 1a5.49 5.49 0 0 1-3.52-.39 12.45 12.45 0 0 0-2.2-1 .87.87 0 0 0-.36-.06 2.56 2.56 0 0 1-1.63-.93c-.51-.84-.47-1.55 0-2a.66.66 0 0 1 .72.09 11.23 11.23 0 0 0 3.94 1.08c2.14.29 6.77-.92 7.61-1s1.9 0 2.29-.12.39-.89 0-1.17-1.73.38-3.1.54a47.71 47.71 0 0 1-7.94.33c-1.73-.13-2.37-.6-2.62-.93 0-.08 0-.19-.15-.36-.84-1-.63-1.56.36-2.11s5.05.15 6.38-.18a5.21 5.21 0 0 0 2.95-1.56c.57-.75.48-1.05 0-1.2s-.48.21-1 .6-.6.06-.6.06l.2-3.61c.11-.13.37-.27 1-.18 1.08.15 4.66 1.8 5.78 3.79s.15 2.83.42 3.79 1.47 2.53 1.26 3.85a5.24 5.24 0 0 1-1.2 2.49c-.3.45.21 1.68-.12 2.47a4.93 4.93 0 0 1-.84 1.32 3.38 3.38 0 0 1-2.11 2.47c-1.76.6-6 .54-7.56.42zm16.67-6.35a25.2 25.2 0 0 1-2.44 7.07c-1.08 1.76-3.23 4.72-5.78 5.17a28.33 28.33 0 0 1-5.48.3s0-4.37-.13-5.32h.16c1.11-.27 4.12-1 4.69-.48s.42.72.18 1.08.69.21 2-1.08 1.71-3.64 2.65-6.08a8.72 8.72 0 0 0 .36-5.9c-.48-1.32-1.08-2.86-1.38-3.91a8.39 8.39 0 0 0-1.26-3c-.87-1.32-4.33-3.16-6.59-3.31h-.06v-.48l.12-9.63c0 .25.06.43.06.43a5.68 5.68 0 0 1 3.79 2 18.86 18.86 0 0 1 3.25 5.78c.57 1.68 2.44 4.33 3.49 6.86l1.5 3.61a15.53 15.53 0 0 1 .87 6.89z" fill="#692f23"/><path d="M118.07 156.32c-.15 1.31-.42 12.83-.39 14.64s2.66 14 3.24 16.33a47.44 47.44 0 0 1 .62 8.09c0 1.31.89 16.76.92 19.26s.44 14.35.54 15.48c.06.63.13 1.28.21 1.84h3.32a13.28 13.28 0 0 1 6.1-1.68c1.39 0 15 2 15.41 1.62s.46-12.37.39-14.95 1.15-12.95 1.15-12.95a22.09 22.09 0 0 1 2.31 4.55c.39 1.58.39 21.84.54 22.88a1.7 1.7 0 0 0 .15.52h1.84a79.46 79.46 0 0 1 16.58-1.51 7.19 7.19 0 0 1 3.35 1.52h3.11a4.33 4.33 0 0 1 .59-1.06c.62-.69 0-7.13.27-9.94s.81-6.59 1-10.17-1-18.34 0-21.26a109.17 109.17 0 0 0 3.08-16.72c.35-4.24 1-16.64 1-19.26s-1.46-18.68-1.77-20.57-1.77-16.18-2.85-18.1a85.87 85.87 0 0 0-5.55-7.63c-1.31-1.66-.1-11.48-.1-11.48s1.44-2.31 1.25-4.16-1.12-2.12-1.08-2.47a27 27 0 0 0-.23-5.16c-.35-2-3.66-1.16-4.68-1s-.52 3.18-.56 4.06-2.23 2.73-2.62 5.08 2.25 3.68 2.25 3.68-.48 4-.79 5.41-.27 2.39-2.7 3.47-23.88.69-23.88.69-5.62-.31-6.86-.92-2.43-2.85-2.85-3.93a14.66 14.66 0 0 1-.46-3.78 15 15 0 0 0-1.39-4.7 6.11 6.11 0 0 0-2.31-1.54s-1.31-4.39-2.39-5.24-3.35.94-3.78 1.54 1 5.39 1.23 5.39c0 0-.89 1.23-1.31 2s1.43 4.51 1.71 5.53-.4 7.07-.4 8.57-1.23 7.09-1 8-1.43 12.65-1.43 14.93-1.85 12.35-1.85 13.39a35.08 35.08 0 0 0 .77 6.09 21.07 21.07 0 0 1 .3 5.62z" fill="#7a4c2c"/><path d="M132.76 109.75s-.23 3.55.23 4 33.57 0 33.57 0l-.35-4.85-33.46-.12z" fill="#fd8204"/><path d="M147.26 104.9a.71.71 0 0 0-1.21 0zM167.12 108.67c-.23-.48-1.75-.56-1.75-.56l-19.67.06s-11.25-.21-12.52-.15a1.09 1.09 0 0 0-1.16 1.19s-.1 3.26 0 4.43 1.08 1.08 1.08 1.08 31.8-.08 32.94 0 1.16-.62 1.16-.62a43.78 43.78 0 0 0-.08-5.43zm-2.2 4.58h-30.5c-1 0-1.16-.35-1.16-.35a18.66 18.66 0 0 1-.08-2.39c.06-1 .54-1 .54-1h11.94s18.49.17 19.3.08.89.27.89.27v2.58c0 .83-.93.82-.93.82zM130.87 96.78s.04.02 0 0zM170.43 140.55v-19.93a1.37 1.37 0 0 0-1.3-1.3c-1.26-.1-38.83 0-38.83 0s-1.53-.07-1.5 1.82 0 24.56 0 24.56a2.89 2.89 0 0 0 3.24 3l32.68-.12a6 6 0 0 0 3.93-1.65c2.14-1.82 1.78-6.38 1.78-6.38zm-2.86-19.83s.42.13.25 1.21a32.16 32.16 0 0 1-1.14 4.23c-.44 1-.49 1.34-1.69 1.44s-31.8 0-31.8 0-.61-.07-.92-1-1.47-5.07-1.47-5.07-.27-.88.42-.9zm1.27 22.55s-.06 2.08-1.24 2.89-3.57 1.08-5.29 1.1-30.16 0-30.16 0-1.76-.07-1.82-1.7c0-1.22-.16-13.81-.11-20.24.31 1 .58 1.87.66 2.1a3 3 0 0 0 2.92 1.76c2 .09 22 .19 30.32.12 2.25 0 2.87 0 3.75-2.34s.86-3.19 1-3-.03 19.31-.03 19.31z" fill="#692f23"/><path d="M186.4 123.53V122c-.22.16-.45.35-.7.57a9.18 9.18 0 0 0-3 5.06c-.25 1.47-.71 2.88-.8 2.21s-.49-6.72-.49-8 .92-2.39 1.17-3.43.8-6 .25-5.83-.61 1.29-.55 2.33-.52 3.68-1.41 3.07-2.61-9.37-2.76-10.49-.21-2.85-.61-2.09c-.28.55.1 4.26.45 6.87-.73-.66-3.31-3.12-3.74-4.8-.5-1.93.35-10.3-.23-11.21 1.12-.44 1.24-1.43 1.35-2.77.12-1.51.31-3.27-1-4 0 0 .2-2.16.19-3.64-.06-.41-.12-.82-.15-1.24h-.07a4.9 4.9 0 0 0-3.3-2.36 7.89 7.89 0 0 0-1.21-.13h-.45a5.92 5.92 0 0 0-1.4.2 2.49 2.49 0 0 1-.55-.08 1.2 1.2 0 0 1-.09.24 5.73 5.73 0 0 0-.5 1.63v4c-1.14 0-1.65.9-1.95 1.73a8.24 8.24 0 0 0-.21 4.32 4.58 4.58 0 0 0 1.89 2s-.54 3.37-.65 4.7-.19 2.5-1.35 3.12-9.4.81-9.4.81H154v-.14a10 10 0 0 1-2.26-.07l-.21.22h-9.76a10.42 10.42 0 0 1-2.5-.13v.13h-1.6c-1.61-.08-4.5-.38-5.51-1.82-1.72-2.42-1.61-3.92-1.61-3.92.8-.31.43-2.53.43-2.53a37.56 37.56 0 0 0-1.33-4.63A1.49 1.49 0 0 0 128 91c0-.33-1.85-5.31-1.72-5.37l.19-.07a4.8 4.8 0 0 0-1.63-1.54l-.85.31a46.92 46.92 0 0 0-4.88 1.67 1.4 1.4 0 0 0-.73 1.73c0 .07.1.28.2.57a1.72 1.72 0 0 1 .12.29c.16.53.37 1.05.48 1.55h.05a26.45 26.45 0 0 0 1 2.58 3.07 3.07 0 0 0-.91 1 3.25 3.25 0 0 0-.2 2c.27 1 1.69 4.35 1.69 4.35s-.31 8.07-.54 11.86-1.35 5.7-1.85 6-1.92-4.78-2.13-4.74-.23 2 0 3.7a20.68 20.68 0 0 0 1.77 5.2c.62 1.35-.35 13.37-.89 16.26-.47 2.52-1 8-.73 8.28.52.48.56 1.89.35 3.2a3.11 3.11 0 0 0 0 1.77 14.21 14.21 0 0 1 .65 3.12 3.39 3.39 0 0 1-.62 2.12c-.25.19-.33 2.46-.25 3.48v.28c.07 1.31 0 3.74.1 4.3.35 2.91 1 11.39 1 11.54.18 1.45.36 2.67.52 3.4a31.16 31.16 0 0 0 1.65 5.16c.21 1.31.32 4.07.39 6.51.08 2.65.12 8 .08 10.77a32.43 32.43 0 0 0 .79 7.69 30.56 30.56 0 0 1 .73 5.22s.13 7.86.21 8.3a11.78 11.78 0 0 1 .08 3.08 20.75 20.75 0 0 0 .23 4 8.13 8.13 0 0 1-.09 1.45H124a.25.25 0 0 1-.08-.25c.08-.64 1-.75.42-1.85s-1.39-1.58-1-2.27 1.81-1 3.27-1.12c0 0 5.22-.54 6.47-.27s9.51 1 10.94 1.27 3.27-.26 3.72.75a12.47 12.47 0 0 1-.45 1.95c-.27.64-.39 1.16-2.77 1s-8.9-1.54-12-1.85-5.93 1.62-6.78 2a8.43 8.43 0 0 1-1.27.56h3.08a8.3 8.3 0 0 1 4.62-1.06c1 .11 4.71.67 7.47 1.06h9.71v-.06c0-1.33.06-5.49 0-5.62s.23-6.59.12-8.13-.15-5-.15-6.47a43.55 43.55 0 0 1 .89-5.89c0-.18.08-.34.11-.46a20.73 20.73 0 0 1 .74 4.93c.06 2.66 0 13.94 0 15.41 0 1.15 0 4.53.24 6.3h6.52l.29-.06c3.2-.65 7.86-1 9.4-1.31s4.95.54 5.7 1.35h1.48a6.2 6.2 0 0 0-4.58-2.64c-3-.35-10.48 1.12-10.48 1.12-3.37.48-5.35.91-5.51.62a6.68 6.68 0 0 1-1.23-2.93c0-1.16-.17-1.87.73-1.77a60.12 60.12 0 0 0 6.16.73c2.64.1 9.21-1.14 10.36-1.16s4.39-.46 5.93.77c0 0 1.12.48.69 2.58a23.22 23.22 0 0 1-.77 2.2c-.08.18-.16.35-.24.48h2.34a3.08 3.08 0 0 1-.1-1.06c.12-.67.39-1.66.39-1.66s.35-4.1.39-5.16.91-4.45.81-6.28.29-9.05.39-10.48 0-10.11 0-10.11a34.89 34.89 0 0 1 .37-6.59c.25-1.2 1-1.61 1.29-5.15s1.54-20.84 1.7-22.77a25 25 0 0 1 .85-5c.17-.12 1.58 1.46 1.58 1.46l.57.72V157l-.26-.49a13.44 13.44 0 0 1-1.47-4c-.21-1.17.64-5.95 1.41-7l.32-.42v-2.68a7.93 7.93 0 0 0-.32.77c-.4 1.13-.67 3.1-1.41 3.62-.58.41-.82 0-1-.71-.25-3.48-.77-8.44-.92-9.8-.06-.57-.46-2.68-.1-3.56a18.81 18.81 0 0 1 1.82-2.78 5.38 5.38 0 0 1 2-1.47V127c-1.95 1.16-2.41 2.47-2.41 2a7.07 7.07 0 0 1 .85-3.21 13.52 13.52 0 0 1 1.56-2.26zm-17.87-38.12c0-1.08.35-1.51.87-1.56 1-.11 3.23.12 3.29 1.58a33.48 33.48 0 0 1-.06 3.45c-1.38-.32-3.13-.48-4.16-.62.02-.74.05-2.14.06-2.85zm-2.53 5.9c.18-1.52 1.85-1.28 2.06-1.28 6 .1 5.78 1.23 5.78 1.23a6.55 6.55 0 0 1 0 2.77 1.22 1.22 0 0 1-1.39.81s-2.44 0-3.16-.12-2.21-.08-2.76-.66-.69-1.25-.53-2.75zm-39.3 1.34s1.32-.31 1.63.52 1.08 3.05.57 3.76a5.58 5.58 0 0 1-3.2 1.35c-1.83.33-3.09.27-3.58-.35 0 0-1.39-2.16-1.14-3.18a1.69 1.69 0 0 1 .7-.79 5.57 5.57 0 0 1 1.64-.65 28.38 28.38 0 0 1 3.38-.66zm-6.59-4.73c-.15-.89.42-1.41 2.62-2 1-.27 1.23.36 1.46.73s1.54 3.83 1.84 4.7a15.79 15.79 0 0 0-4.26.92 23.19 23.19 0 0 1-1.66-4.35zm60.12 95.5a44.22 44.22 0 0 1-1.58 5.39 9.8 9.8 0 0 1-1.73 3s-.37.39.54.89c.71.39.67 3 .64 4.74 0 0 .1 6.72-.06 10.21s-.75 11-.81 12.6a38 38 0 0 1-.58 5.39c-.17.33-1-.6-2.54-.85s-9.11.92-11.13.89a49.54 49.54 0 0 1-7.43-.46 10 10 0 0 0-2.38-.35s-.59-11.8-.55-12.94-.11-5.53-.58-6.39a73.81 73.81 0 0 1-1.41-11.91c0-2.51.1-7 .25-10.74.19-.29-.13-7.83-.13-9.42s-.06-2-.42-1.91-.43 4.8-.87 4.83-1.43-2.29-2-2.29.23 2.37.69 3.7a31 31 0 0 1 .72 5.08c.06 4.54-.1 12.49-.1 14 0 1.2.07 5-.28 8.67a38.37 38.37 0 0 0-1 7.32c0 2.73.19 11.27-.42 12.21a2.23 2.23 0 0 1-2.31 1.16c-1.16 0-11.79-.85-12.67-.89s-4.28 0-4.28 0-3.29-.15-4.31.5c0 0-.52-10.48-.64-12.06 0-3.18-.29-8.18-.5-9.66s-.46-8.91-.12-10.11a3 3 0 0 1 1.24-1.7c.29-.33-.29-.46-.7-1.24a25.84 25.84 0 0 1-1.37-4.81 9.08 9.08 0 0 1-.13-1s-1.08-3.95-1.37-5.16a64.78 64.78 0 0 1-1.23-7.82c0-1.69-.4-5.86-.19-8.05s1.15-1.71 2.31-1.66c.95 0 4.83.52 9.94 1.08 3.74.41 17.7 1 25.54.86a102.68 102.68 0 0 0 14.78-1.52s7.5-1.54 8.48-1.93 2.23-.65 2.35.73-1.18 20.02-1.66 21.62zm.82-25c-1.43 1-6.49 2-9.4 2.66a190 190 0 0 1-23.15 1.54c-6.59-.1-26.66-1.75-28.16-2.77s-2.27-1.93-1.43-3.24 2-.67 3-.46 16.57 1.82 22.92 2.09a154.73 154.73 0 0 0 26.31-1.13 49.4 49.4 0 0 0 9.75-2.62 1 1 0 0 1 1.19.54s.4 2.41-1.03 3.41zm1.12-7a2.11 2.11 0 0 1-1.43 1.89c-.64.31-6.07 2.62-20.88 3.39s-36.39-2.12-37.64-2.35c-1.41-.26-2.68-.3-3.45-1.36a5.12 5.12 0 0 1-.76-2.09c-.05-.8.54-1.8.63-3.48s-.6-2.2-.89-3 .83-4.06 1.24-7 1-17.24 1-17.24c1.33-3.16 2-8.71 2.27-11s.27-8.46.58-9 1.8-.49 3.57-.74c.71-.1 2.4-.47 2.52-.1s1.93 4.62 2.85 5.39c1.49 1.25 5.47 1.41 7.59 1.43s17.51 0 21.65-.23 4.32-.36 5.57-1.61c.9-.9 1.05-7.37 1.33-8 .15-.3 2.62-.13 2.62-.13s1.71-.13 1.73 1.12-.15 6.32 0 8.28a11.33 11.33 0 0 0 2.77 5.86 20.18 20.18 0 0 1 3.62 4.71c.47 2.1 1.19 5.26 1.26 6.45.09 1.56.43 5.09.43 5.09 0 2.19.16 4.93.21 5.8.12 1.82 1.7 11.55 1.66 15.61v2.17a.6.6 0 0 0-.05.11z" fill="#692f23"/></g></svg>