<svg xmlns="http://www.w3.org/2000/svg" width="52.5" height="60.4" viewBox="0 0 52.5 60.4"><title>Мытье духовки_1</title><g id="Слой_2" data-name="Слой 2"><g id="Слой_1-2" data-name="Слой 1"><rect x="0.75" y="4.2" width="51" height="51" rx="5.03" ry="5.03" fill="none" stroke="#682f24" stroke-linecap="round" stroke-miterlimit="10" stroke-width="1.5"/><rect x="5.81" y="24.47" width="40.89" height="22.66" rx="2.72" ry="2.72" fill="none" stroke="#682f24" stroke-linecap="round" stroke-miterlimit="10" stroke-width="1.5"/><path d="M4.5,3.39A2.9,2.9,0,0,1,7.4.5H45.11A2.89,2.89,0,0,1,48,3.39" fill="none" stroke="#682f24" stroke-linecap="round" stroke-miterlimit="10"/><line x1="0.75" y1="19.81" x2="51.75" y2="19.81" fill="none" stroke="#682f24" stroke-linecap="round" stroke-miterlimit="10" stroke-width="1.5"/><circle cx="11.48" cy="12.79" r="2.67" fill="none" stroke="#682f24" stroke-linecap="round" stroke-miterlimit="10"/><circle cx="40.64" cy="12.79" r="2.67" fill="none" stroke="#682f24" stroke-linecap="round" stroke-miterlimit="10"/><circle cx="30.92" cy="12.79" r="2.67" fill="none" stroke="#682f24" stroke-linecap="round" stroke-miterlimit="10"/><circle cx="21.2" cy="12.79" r="2.67" fill="none" stroke="#682f24" stroke-linecap="round" stroke-miterlimit="10"/><path d="M8.81,55.2v1.74A2.71,2.71,0,0,1,6.1,59.65h0a2.71,2.71,0,0,1-2.71-2.71V55.2" fill="none" stroke="#682f24" stroke-linecap="round" stroke-miterlimit="10" stroke-width="1.5"/><path d="M48.73,55.2v1.74A2.71,2.71,0,0,1,46,59.65h0a2.71,2.71,0,0,1-2.71-2.71V55.2" fill="none" stroke="#682f24" stroke-linecap="round" stroke-miterlimit="10" stroke-width="1.5"/><line x1="5.81" y1="44.41" x2="46.02" y2="44.41" fill="none" stroke="#682f24" stroke-linecap="round" stroke-miterlimit="10" stroke-width="1.5"/><line x1="11.48" y1="24.47" x2="11.48" y2="44" fill="none" stroke="#682f24" stroke-linecap="round" stroke-miterlimit="10"/><line x1="40.64" y1="24.94" x2="40.64" y2="44" fill="none" stroke="#682f24" stroke-linecap="round" stroke-miterlimit="10"/></g></g></svg>