<svg xmlns="http://www.w3.org/2000/svg" width="300" height="250" viewBox="0 0 300 250"><g data-name="Слой 2"><g data-name="Слой 24"><path fill="none" opacity=".48" d="M0 0h300v250H0z"/><path d="M105.32 191s-.19 3.07.64 4.41 1.36 2.84 3.52 3.18 28.88 2.73 38.74 1.53 12.29-2.44 12.5-2.88 2.12-5.32 2.12-5.51-1.25-.72-1.57-.68-3.35.17-3.09-.85 1-1.7.64-1.82-18.35 2.82-30.43 2.52a126 126 0 0 1-21.4-2.44 3.63 3.63 0 0 0-1.67 2.54z" fill="#fff"/><path d="M86.88 102.47a71.87 71.87 0 0 0 1.31-7.37 13.26 13.26 0 0 0-2.33-6.19c-1.12-1.21-7.48-6.7-10.89-7s-9.72-.15-10.97 2.16a89 89 0 0 0-4.37 11.36c0 .81-.81 4.64-.21 5.85s.13 4.13 1 5.51 1.55 2.52 1.4 3.94-1.27 7.93-1.14 9.07.34 2.2 1.06 2.12a8.24 8.24 0 0 0 3.26-2.25c.7-.85 3.56-2.42 5.21-3.22a89.2 89.2 0 0 0 9.07-5c2.2-1.45 6.42-6.65 7.6-8.98z" fill="#fd8204"/><path d="M86.08 112.3s1.55-8 1.36-8.86-2 2.86-3.69 4.41-9.09 6.55-9.28 6.7.25 1.1.42 1.36 3.92-.34 5-.25 5.72-2.87 6.19-3.36z" fill="#f7dfcb"/><path d="M106.89 111.32s-7.46 8-8.73 10.68-3.56 7.21-3.56 7.21-2-4-3-5.59c0 0-2.73-3.73-3.22-4.11s-1.48-4.75-2.29-5.34-4.57 1.83-5.31 1.83-5.23.13-5.55 1a6 6 0 0 0-.42 3.43c.32 1.27-.85 4.87-.68 7s.13 8.88 2.29 12 4.64 8.94 5.76 10.21 5.68 3.56 8.18 4.11 3.54.38 5.38-.55a86.24 86.24 0 0 0 9.92-6.91c1-1.06 1.93-1.59 2.29-3.35s.87-7.52 1.14-8.82a37.3 37.3 0 0 0 .93-6.23c0-1.84-.47-10.45-.76-12.33s-.38-6.33-2.37-4.24z" fill="#fff"/><path d="M104.6 66.19s-.49 5.05-2 6.31-2.74 2.1-2.74 4.35.42 4.28 2.31 5.05A3.85 3.85 0 0 1 104 83c.49.7 3.72 6.59 7.29 9.89s14 6.52 14 6.52c.49.07.07 3.3.63 4.56s2.6 3.09 6.73 2.88 5.12-.56 6-2.31a9.14 9.14 0 0 0 .49-4.35l7.93-3c2.67-1.19 11.08-8 11.08-8 1.89-2.45 3.51-6.45 3.86-6.87s3.37-.84 3.79-1.19a5.73 5.73 0 0 0 .7-3.86 3.39 3.39 0 0 0-1.79-2.27s-2-.91-2.88-5.26-3.44-6-4.63-6.31-9.33-.91-9.33-.91c-.35 0-1.33-.77-2-2.67S141.08 50 141.08 50c-1.61-1.89-.49 5.4-.7 7.65s.49 3.93-3.16 4.84-11.15 1.05-12.41.56S122 59.1 122 59.1s-.14 3.37-1.82 4.14-5.61-.49-5.61-.49a4.78 4.78 0 0 1-3.65 2.45c-2.81.5-5.83-.48-6.32.99z" fill="#f7dfcb"/><path d="M113.46 107.43l4.83-1.78s6.27-2.6 7-2.16 1.1 2.44 4.45 3.18 5 .36 6-.21 3.09-2.35 3.64-2.67 6.27.42 6.82.72 5.13 1.29 5.38 1.36 1.08.11 1.1.47-2.18 9.21-3.8 11.63-7.4 6.64-7.93 7.43-1.86 5.24-1.5 7.68-.81 8.39-.81 8.39a23 23 0 0 1-8.43 1.1c-2.08-.36-4.17-1.38-4.37-2.5s-.15-13.12-.38-13.77-2-2.23-3.69-3.48-7.33-9.75-8.05-12.33-.26-3.06-.26-3.06z" fill="#fff"/><path d="M96.37 64.67c.63-.38 1.63-3.67 1.82-6.1a18.46 18.46 0 0 1 2.74-8 55.48 55.48 0 0 1 5.4-6.66 15.86 15.86 0 0 1 7.36-3.65c2.6-.49 6.1-2.45 9-3.3s7.29-1.33 10.45.07a9.47 9.47 0 0 1 5.12-.84 56.28 56.28 0 0 1 15.34 4.91c5.12 2.67 10.1 10 10.66 11.5s2.88 8.1 3.3 9.64 1.75 4.11 3.86 4.6 5.05 1.22 6.1.17 2-2.25 1.93-2.88-7.26-5.42-8.1-6.05 4.49-.38 6-1.79 2-4.79 1.8-6.61-1.59-1.56-1.59-1.56-11.43 4.28-11.71 3.65-1.82-7-3.65-9.19-8.95-10.95-20.2-12.21-22.44.56-26 2a22.48 22.48 0 0 0-6.17 3.93s-4.77.91-6.73 2.6-6.17 6.94-7.29 11-2 8.56-.91 11.71.62 3.55 1.47 3.06z" fill="#fd8204"/><path d="M140.86 72.61s2-2.81 4.91-3.16 4.35.07 5.4 1.19 2.17 1.82 2 2.45-1 1-3.09 1.33-2.81 1.05-4.91.63a7.42 7.42 0 0 1-4.31-2.44z" fill="#fff"/><path d="M144 71.17a2.5 2.5 0 0 0 .56 2.67c1.05 1.33 3.09.84 3.58.63a2.23 2.23 0 0 0 1.47-2.1c-.07-1.26-.14-2.38-.63-2.53s-3.91-1.06-4.98 1.33z" fill="#a9d2f1"/><path d="M113.23 73.17s2-2.81 4.91-3.16 4.35.07 5.4 1.19 2.17 1.82 2 2.45-1 1-3.09 1.33-2.81 1.05-4.91.63a7.42 7.42 0 0 1-4.31-2.44z" fill="#fff"/><path d="M116.39 71.73a2.5 2.5 0 0 0 .56 2.67c1.05 1.33 3.09.84 3.58.63a2.23 2.23 0 0 0 1.47-2.1c-.07-1.26-.14-2.38-.63-2.53s-3.93-1.06-4.98 1.33z" fill="#a9d2f1"/><path d="M152.51 106.73c-.06.2-.91 7.93-3.65 11.22s-7.36 6-7.93 7.43-1.19 11.15-1.47 13 .07 2.74-2.74 3.51-7.65.07-8.77-.28-1.33-1.33-1.47-2.81.14-11.36-.42-12.48-.49-2-1.12-2.31-5.34-3.39-6.78-5.33a45.23 45.23 0 0 1-5-10.13c-.42-1.75-2.48 0-2.9.52s-1.58.28-1.51 2.6.87 13.76 1.29 15.72-2.14 13.44-1.72 15.19.88 7.1 1.23 7.52 9.61 1.89 16.13 2.24 21.53-1.12 24-1.82 6.31-2.67 6.94-3.37a3.5 3.5 0 0 0 1.05-2.95c-.21-1.26.17-9.78-.18-12.3s.31-12 .59-15.07a24.11 24.11 0 0 0-.9-8.05c-.39-1.35-3.62-5.35-4.67-2.05z" fill="#fd8204"/><path d="M94.57 54.4l-2.45 6.24c-.56 2.95-1.33 11.64-1.33 11.64-.35 2.67-1.49 6.54-1.21 9.2a116.48 116.48 0 0 0 .7 11.74c.63 4.49 2.09 9.28 4.2 11.53s3.6 2.8 4.3 2.73 2.25-.13 2.88.64 3.09 2.88 4.49 2.6 3-.27 3.25-1.11 1.91-1.45 2.75-1.8 8.26-3 9-3.26 3.64-1.17 3.92-1.59 1.31-3-.09-3.88-12.46-3.49-16.53-8.82-4.87-7.94-4.87-7.94-3.84-.54-4.54-2.5a8.34 8.34 0 0 1 .65-5.82c.56-.91 2.11-2.64 2.39-3.27s2.17-5.21 2.59-5.7-.56-.84 1.19-.84 4.21.49 5.75-.21 2.95-2.31 3.65-2.1 3.3.49 3.3.49c1.19-.7 3.3-4.84 3.51-4.84s1.68 4.77 2.31 4.84 7.36.91 11.29-.14 4.77-2.81 4.77-2.81c.49-1.4.14-9-.35-9.89s2 .91 2.38 2.31 3.94 9.49 5.06 10.26 7.9.11 10 1.17 1.77.7 3 2.74 1.19 5.61 1.75 6.59 3.86 2.16 4.35 3.7a5 5 0 0 1-.42 4.09c-.63 1-2.5 1.1-3.41 1.59s-2.61 5.61-5.55 8.2-10.63 7.31-14.25 8.37-4.36.67-4.29 1.3-.21 2.24 2.38 3.16 8.42 2.47 9.47 2.68a13.77 13.77 0 0 1 5.21 1.42c2.31 1.26 3.22 2 3.78 1.83a68.78 68.78 0 0 0 6.75-3.06 15.43 15.43 0 0 0 5.55-7c.7-2.24.65-11.75.3-15.82s-.63-13.33-1.75-15.78a17.21 17.21 0 0 0-2.67-4c-.14-.28-1.75-8.77-2-9.12s-6-8.56-8.77-10.73-11.43-6.66-19-6.94-12.41-.28-12.91-.14-10 4.14-11.29 4.28-5.89 2.24-5.89 2.24c-2.1 2.17-6.1 6.66-6.59 7.29a6.94 6.94 0 0 0-2.1 4c-.21 2.17-1 3.18-1.82 8.76-.31 2.07-2.31 2.75-2.31 2.26s-2.51-7.69-.48-10.78z" fill="#efb000"/><path d="M136.74 39.56a13.44 13.44 0 0 0-7.15 2.1 23.48 23.48 0 0 0-6.59 8s-2-3.51 1.19-7.65a17.3 17.3 0 0 0-8.35 9.19c-2.38 6.52-1.47 10.52-1.47 10.52s-2.24-3.86-2.53-6.45a25.51 25.51 0 0 1 1.82-12.06c.42-.84-5.89 1.75-8 7.65s-2.87 10.23-2.45 12.14c0 0-1.33-.49-1.47-3.09s-.56-1.33-.56-1.54a66 66 0 0 1-1.61 7.22 22.73 22.73 0 0 1-4.28 6.87C93.39 74.7 91.36 76 91 79s-.7-3.72.7-6.45 4.21-5.26 4.56-6.17.93-4 1.42-5.66 1.17-6.13 2.85-9.21 5.19-7.65 8.28-9.4a23.25 23.25 0 0 1 7.19-2.34s7.36-4.14 10.66-3.65 8.61 1.41 10.08 3.44zM136.25 37s3.72-.84 9.47 1A43.14 43.14 0 0 1 159 45.31c2 1.75 5 6.87 5 6.87l.77 1.82s-5.33-6-8.91-8.42a35.35 35.35 0 0 0-10-4.07c-.63-.07 5.19 2.81 6.24 9.4a31.84 31.84 0 0 0-15.36-11.36zM99.33 83.57a20.11 20.11 0 0 0-4.84 10.87c-.63 6.45 1.33 11.5 2.88 12.34s2.6.28 2.6-.77-1.75-5.4-2.1-7.79a27.74 27.74 0 0 1 .91-9.47c.69-1.88 1.6-6.93.55-5.18zM163.1 84.49s1.89.07 3.58 5.33a26.94 26.94 0 0 1 .77 11.57c-.14 2.1-.14 2.45.84 2.38s-1.89 1.89-2.88 2.31-1.75-.14-1.47-1.05 2-5.61 2.31-7.15-.49-7.08-1.19-8.84-1.96-4.55-1.96-4.55z" fill="#f6c966"/><path d="M109.18 152.54A4.05 4.05 0 0 0 112 156c2.68.89 7.69 1.94 18.82 2.1s24-3.73 25-4.13.21-.24.45-2.08.63-2.44.21-3.62.63-1.05.13-1.13-6.94 4.55-17.46 5a174.79 174.79 0 0 1-23.69-1.14c-3.42-1-4.58-1-4.89-.58s-1.23 1.17-1.39 2.12z" fill="#e16702"/><path d="M107.53 162.3s.37-5.58 2.05-6.37 2.63 1 5.21 1.73 13.67.79 23.14.16 15.54-2.66 17-3.31 2.1-1.81 2.84-1.21 3.1 8.1 3.1 8.1c.29 2.92.79 10 1.42 14.1s.53 8.47-.47 9.52-3 3.94-10 4.7a250.25 250.25 0 0 1-26.49 1.28c-3.71-.21-11.68-.84-14.83-1.74s-4.26-1.26-4.92-6.44a37.32 37.32 0 0 1 .32-10.91c.2-1.12 1.63-9.61 1.63-9.61z" fill="#fd8204"/><path d="M115.39 200.43c0 .19.89 3.31 2.26 4.1s8.15 1.5 9.57 1.42a33.8 33.8 0 0 0 5.26-1.37s1.92 1.16 9 1.26 8.1-2.42 8.1-2.42a21 21 0 0 0-.11-3.37c-.18-.13-8.84.66-16.94.42s-17-.95-17-.95-.2.09-.14.91z" fill="#f9e5cc"/><path d="M115.79 205.39a4.62 4.62 0 0 0 1.79 3.42c1.81 1.68 5.5 2.08 8.1 2.21s7.42-1.21 7.42-1.21 9.5.66 11.78.47 4.26-2.74 4.26-2.74.66-1.68-.21-2.16-4.45.37-6.26.37-9.6-.45-10.1-.58a23.54 23.54 0 0 0-4 .26 73.2 73.2 0 0 1-9.78-.21c-3.03-.35-2.87-.64-3 .17z" fill="#fff"/><path d="M117.91 211l4.47 15.52s-.16 1.5 2.05 2.05a25.54 25.54 0 0 0 8.31.21 17.82 17.82 0 0 1 2.84-.42s7.34-.45 8.21-.95 1.24-3.18 1.26-3.37 2.1-9.65 2.47-11.1.6-4.94.63-4.63-.21 1.26-4.63 1.58a98.5 98.5 0 0 1-10.52-.05 25 25 0 0 1-8.21 1.05c-4.43-.24-6.85-1.03-6.88.11z" fill="#d2a274"/><path d="M122.47 229s-2.66 2.66-3.16 3.05-3.76 2.24-4.68 4.58-1.16 4.5-.37 5.84a5.82 5.82 0 0 0 4.31 3 26.47 26.47 0 0 0 7.63 0 81.23 81.23 0 0 0 8.26-2.89c.79-.32 2.18.76 2.42.95a32.21 32.21 0 0 0 8 2.05 17.5 17.5 0 0 0 8.78-2c1.71-.95 2.89-1.95 2.89-3.79a6.78 6.78 0 0 0-2.58-5.31 57.28 57.28 0 0 0-6-4c-.37-.53-1.6-2.08-2.21-2.21s-3.66.34-5.16.42-9.42.42-9.42.42c-.35.04-7.89-.77-8.71-.11z" fill="#efb000"/><circle cx="147.7" cy="71.82" r=".54" fill="#fff"/><circle cx="120.48" cy="72.08" r=".54" fill="#fff"/><path d="M169.07 175.36a20.05 20.05 0 0 1-.74 5.58 33.22 33.22 0 0 1-4.42 8.15 5.39 5.39 0 0 1-4.16 1.63c-.5-.16-.79-1.16-.79-2.1s.63-2.18.39-3.21.37-2.45.85-4.58-.11-5.5.24-5.84 2.79 1 3.79.74 4.1-1.84 4.84-.37z" fill="#f9e5cc"/><path d="M156.59 146.88s1.4-12.48 1.4-13.54.42-11.5.28-14.38-.7-10-.7-10-.63-2.6 2 0c.36.36 3.44 3.65 4.14 7.08a69.09 69.09 0 0 0 3 10.45 98.42 98.42 0 0 1 3.65 12.91c.28 2.1-.28 5.12-.07 7.58s1.89 4.21 2.1 6.45 1.89 6 .42 8.21c-.88 1.35-1.06 2.82-2.17 4.05a5.45 5.45 0 0 1-.73 1.77 4.46 4.46 0 0 1 .37 3.52c-.66 1.24 0 3.54-3 4.17s-6.43.47-6.82-.14a8.65 8.65 0 0 1-1.38-3.19c-.05-1 .45-2.16.37-3.1s-.37-2.26-.37-2.89c0 0 .07-.1.18-.16a33 33 0 0 0-.83-5.78 79.86 79.86 0 0 1-2-10.11 14.88 14.88 0 0 1 .16-2.9z" fill="#fff"/><path d="M119.72 65.22c.21-.43-.69-1.06-2.34-1s-5 1.59-5.9 3.51a14.48 14.48 0 0 1 4-1.65c2.32-.49 4.02-.44 4.24-.86zM153.57 67.29c.16 0-.32-1.33-2.18-2.13s-3.35-1.33-4.78-.05c0 0 4.41 1.17 5.37 1.59a6.53 6.53 0 0 0 1.59.59zM131.37 83.55a5.63 5.63 0 0 0 3.12.07c1.1-.21 2.13-1 1.95-1.13s-.11-.14-1.13.14a13.51 13.51 0 0 1-3.08.18 15.11 15.11 0 0 0-1.56-.07c-.18.1.14.46.7.81zM136.76 92.2a19.14 19.14 0 0 1-4.92.57c-1.81-.11-3.44-.32-3.44-.32-1.1-.18 0 .46.67.71a12.23 12.23 0 0 0 5.74.53c2.91-.39 4.07-1.35 3.93-1.56s-1.1-.13-1.98.07zM144.76 86.39c-.78 0-2.27 1-3 1.28a29.32 29.32 0 0 1-10.31 1.63c-6 0-7.58-1.42-8.54-1.81s-1.74-.6-2.16-.11 0 1.17.32.85a1.62 1.62 0 0 1 1.06-.35c.46.07 3.86 2.09 5.24 2.34a23.28 23.28 0 0 0 8.5.25 27.67 27.67 0 0 0 8.82-3.37 1.6 1.6 0 0 1 1.13.28c.14.11.74.32.64 0a2.05 2.05 0 0 0-1.7-.99zM140.8 74.34a3.58 3.58 0 0 1 2.09.21c1 .32 2.05.64 2.05.64a13.21 13.21 0 0 0 6.24-.71 3.14 3.14 0 0 0 2.05-2.13c0-.43.32-1.2-1.1-2.34a5.7 5.7 0 0 0-2-.95 9.2 9.2 0 0 0-2-.28A9.75 9.75 0 0 0 143 69.9l-.15.08a4.94 4.94 0 0 0-2.62 3.12c-.32 1.06.18 1.38.57 1.24zm8.36-4c.79.07 1.82 1.24 2.2 1.66s.39 1-.28 1.56a3.85 3.85 0 0 1-2.55.78h-.06a3.9 3.9 0 0 0 1.06-1.74 2.67 2.67 0 0 0-.38-2.22zm-4.74.56a.57.57 0 0 1 .64 0c.34.24.09.46 0 .66a1.07 1.07 0 0 0 .16 1 1.32 1.32 0 0 0 1.25.61 1.37 1.37 0 0 0 1.13-1c.08-.36-.34-.88 0-1.25a.51.51 0 0 1 .73-.05c.53.46.36 1.38-.07 2.2a1.75 1.75 0 0 1-1.48 1.05 3.82 3.82 0 0 1-.9-.09h-.17a2 2 0 0 1-1.7-1.88 1.23 1.23 0 0 1 .41-1.21zm-3.09 2.1a9 9 0 0 1 1.84-2 2.8 2.8 0 0 0 .55 2.8h-.13a2.89 2.89 0 0 0-1.63-.14c-.45.15-.96.08-.63-.66zM124.07 74.84a2.24 2.24 0 0 0 1.25-.21c.24-.19.27-1.12 0-2.29a5.54 5.54 0 0 0-3-3.4c-1.43-.56-4.52-.43-7.07.82a6.67 6.67 0 0 0-3.4 3.27c-.24.43.16.85.48 1a6.54 6.54 0 0 0 3.16 1.49 16.88 16.88 0 0 0 2.68.45 16 16 0 0 0 4.23-.77 4.16 4.16 0 0 1 1.67-.36zm-10.79-1.18l-.07-.06s-.54-.24 0-.8a5.57 5.57 0 0 1 1.79-1.34 3 3 0 0 0-.17 1.58 3.23 3.23 0 0 0 .66 1.66 12.7 12.7 0 0 1-2.21-1.05zm7.52-.7a2 2 0 0 1-1.17 1.51 3 3 0 0 1-2.84-.24 2.64 2.64 0 0 1-1-2.15c.08-.19.19-.43.72-.4.25 0 .38.24.44.47a1.26 1.26 0 0 0 .13.74 1.28 1.28 0 0 0 1.3.7 1.25 1.25 0 0 0 1.41-.86 2 2 0 0 0-.12-1.36s.05-.68.92-.05a2.58 2.58 0 0 1 .21 1.63zm1.14-.13a3.27 3.27 0 0 0-.61-2.35h.13a4.63 4.63 0 0 1 3.08 3.32c0 .27.08.29-.13.35s-.45-.21-.85-.11-1.69.51-2.66.77a3.49 3.49 0 0 0 1.05-1.99z" fill="#692e21"/><path d="M173.66 58.47h.16l1.82-.53a4.08 4.08 0 0 0 1.43-.42c2.6-1.28 2.6-5.16 2.66-6.75s-.16-4.57-.48-3.83-1.28.74-2.44 1.22c-.86.35-2.85.9-3.86 1.17a2.1 2.1 0 0 0-.61.16c-2 .8-4.57 2.07-5.26 1.75s-.74-2.39-.8-2.71a38.12 38.12 0 0 0-4.92-8.24c-2.92-3.51-13.07-8.93-18-10.47s-18.12-1-23.76 1-9.25 3.4-11.21 5.74c0 0-2.55-.27-6 2s-7.12 10.26-8 14-2.5 4.73-2.92 7.6-1 10.63-1.06 12.22a.8.8 0 0 0 0 .28c-.74 1.75-1.12 6.32-1.17 10.26a49.74 49.74 0 0 0 .9 12.6 26.28 26.28 0 0 0 4.07 9.48l.33.45a8.18 8.18 0 0 0 5.41 3s2.18 3.07 4.44 3.62c0 0-5 7.13-5.91 8.31a45.24 45.24 0 0 0-3.84 7.18 11.8 11.8 0 0 1-1.1-2c-.31-.85-3.36-5.68-4.69-6.39a2.84 2.84 0 0 1-.68-1.07c-.11-.51-.51-2.57-.62-3.33a2.88 2.88 0 0 0-1.46-1.9 16.65 16.65 0 0 0 1.69-5.11c.21-2.33.78-4.34.17-6.27 0 0 .72-4.81.76-5.68a6.21 6.21 0 0 0-.08-2.84 19.11 19.11 0 0 0-3.86-6 24.52 24.52 0 0 0-5.34-3.86c-2.2-1.14-3.22-2.71-6.65-2.46s-6.82-.28-9.75 3.81a9.73 9.73 0 0 0-1.24 2.11 2.12 2.12 0 0 0-.16.26c-.64 1.23-2.23 7.33-2.46 8a22.18 22.18 0 0 0-.72 6.44c.08 3.07 2.52 7.31 2.75 8.14a17.89 17.89 0 0 1-.21 5.85 29.36 29.36 0 0 0-.68 4.57 1.46 1.46 0 0 0 0 .48 2.18 2.18 0 0 0 1.7 2 2.5 2.5 0 0 0 2.37-.81c.49-.4 1.86-2.39 2.5-2.84s3.28-1.59 4.24-2c.5-.23 1.43-.58 2.36-1l.72 1c-.5 1.54.34 5.2.34 5.2a19.44 19.44 0 0 0-1.19 6.78s.79 6.39 1.81 9.1 6 11.67 7.69 13.51 6.64 3.7 9.61 3.9 9.35-4.52 10.74-5.42a30.72 30.72 0 0 0 4.52-3.39c.25-.48 0 2.06.11 2.66a3.59 3.59 0 0 0 .4 1.13s-.2 3.16-.11 3.9a2.55 2.55 0 0 0 .62 1.3c.12 1.31-2.51 8.65-2.79 10.88-.2 1.58-.47 4.77-.47 4.77-.33 2.63-.56 8.22-.6 9s-.73 12.36.07 15.25h.05c1.28 3.29 3.9 3.88 4 3.83a33.66 33.66 0 0 0 5.09 1c.3.94 1.31 3.4 1.31 3.4a5.91 5.91 0 0 0 .09 3.35c.13.59 2.07 4.75 2.39 5.7s1 4.2 1.2 5.23a2 2 0 0 0 .06.3c.39 1.37 2.09 6.27 2.61 8.06a3.27 3.27 0 0 1 0 2.44v.08c-.33.67-.63.54-1.09 1.09a4.93 4.93 0 0 1-1.48 1.44 25.09 25.09 0 0 0-4 2.92 10.11 10.11 0 0 0-2.48 6.49A4.92 4.92 0 0 0 115 245a28.94 28.94 0 0 0 11.67 1.31c4-.65 7-3 7.75-3.18s.41.37 2.92 1.26a31.84 31.84 0 0 0 10.32 1.39c3.29-.15 7.05-1.72 8.1-3.66s1.83-4.4.26-6.84-4.4-3.18-5.66-4.18a15.14 15.14 0 0 0-2.09-1.44s-1.48-1.33-2.13-2-.72-.5-.44-2.31 2.57-11 3-12.54.81-4 1.13-4.83a5.42 5.42 0 0 0 .44-2.39c0-1.11.22-1.89.22-2.44s.35-2.42.39-2.74 6.42-1.06 9-2a4.34 4.34 0 0 0 2.56-1.79c.82-1.22 1-4.78 1.09-6a2.92 2.92 0 0 0 .6-.48 16.67 16.67 0 0 0 4-6.81 20 20 0 0 0 1.74-5.7c.24-1.94-.37-2.61 0-3.09s1.05-.73 1.48-1.92a7 7 0 0 0 0-2.32 26.24 26.24 0 0 0-.58-2.92 33.34 33.34 0 0 0 2.82-4.62 10 10 0 0 0 0-5.21c-.43-2.23-1.81-5.53-2-7.17s-.48-3.24-.53-4.36.64-1.65-.16-5.9a102.37 102.37 0 0 0-3.45-12.28c-.48-1.22-1.86-3.24-1.91-4.15a38.15 38.15 0 0 0-1.56-7.56 4.22 4.22 0 0 0-.15-.47c-.69-1.81-2.32-5.83-2.57-6.46 0-.06 3.7-2 5.68-3.06s2.66-1.59 4.62-5.21 1.91-11.16 2.07-15.78c.15-4.45-1.27-15.35-2.09-17.44a14 14 0 0 0 3.4 1c1.65.21 2.23 0 3.14-.9a8.64 8.64 0 0 0 2.13-4c.09-.87-4.46-2.92-6.55-5.34zm-6.59-4.9c.21-1 5.79-2.5 5.79-2.5 1.7-.48 5.47-2.34 5.47-1.7s-.11 4.15-1.06 5.63a5.21 5.21 0 0 1-3.08 1.67h-.22a16.47 16.47 0 0 1-5.58-.11c-1.54-.37-1-1-.05-1.59s4-.74 3.35-.9a16.5 16.5 0 0 0-3.14.16c-.9.09-1.69.36-1.48-.65zm-69-7.33c2.13-3.67 3.67-6 7.71-7.44s4.94-1 6.59-1.43 2.6-.9 2.6-1.06-2.76.43-2.82-.27-.05-1.33 2.76-2.18 4.25-1.65 6.32-2.18a55.8 55.8 0 0 1 13.18-.9c5.26.27 6.75.11 8.88.85s6.11 2.87 8.08 3.67 6.48 2.34 8.82 5.63a78.37 78.37 0 0 1 4.2 7.23h.05c.72 1.75 1.52 5.69-.11 3.05a67.41 67.41 0 0 0-6.33-7.62 38 38 0 0 0-19-7.87 14.67 14.67 0 0 0-5.42.43c-1-.05-3.88-1.38-7.39-1a21 21 0 0 0-7.19 2.54c-5.74 1.43-10.2 3.19-12.44 5.16a28.15 28.15 0 0 0-7.23 9.3 44.28 44.28 0 0 0-2.55 9.35 27.22 27.22 0 0 1-.82 2.8 19.67 19.67 0 0 1-1.26-6c-.12-3.3 1.3-8.39 3.39-12.06zm12.83 2a16.38 16.38 0 0 0-.13 7.07c.85 4.62 2.18 4.73 2.39 6.38s-.85 1.65-2.82 2.13a21.56 21.56 0 0 1-5.53.11c-2-1-2.23-1.59-2.66-5.85s.37-6.38 1.81-10.31 6.7-6 8-6.43 2.66-.9 1.12 1.22a17.12 17.12 0 0 0-2.23 5.63zm30.22 5.06a22.89 22.89 0 0 0-.61-2.62c.13-.05.26-.12.5.17a33.19 33.19 0 0 1 3.14 6.75c1.54 4.36 1.59 4.94 2.29 5.31s4.46-.58 9.51 1 4.78 3.77 5.21 5.58.43 3.83 1.59 5a6.12 6.12 0 0 0 2.76 1.28 6 6 0 0 1 .8 2.34 3 3 0 0 1-1.7 2.82 4.15 4.15 0 0 1-2.66.27s-3 6.54-5.9 9.3-13.55 8.13-18.12 9-11.69-.64-15.09-1.33A27.56 27.56 0 0 1 106 86.16a23.14 23.14 0 0 1-2-3.88 4.31 4.31 0 0 1-2.66-1.06c-1-1-1.65-1.91-1.54-4.57.11-2.29 1.43-2.34 2.23-2.29s1.7.9 1.59-.11-1.81-1.17-1.81-1.17c1-.69 2.23-3.45 2.66-4.46s.32-2.29.85-2.71 2.39.32 5-.21a5.46 5.46 0 0 0 3.68-2.13 1.12 1.12 0 0 0 .74.37c.43 0 5.1.43 5.63.05s.64-3.19 1.33-3.45 1.12 2.13 1.12 2.13.27.64 4.09 1.06 13.35-.35 14.08-2.34c.57-1.39.3-6.86.14-8.08zm15.58 74.76a55.23 55.23 0 0 0 0 7.48c-.19 1.89-.43 4-.72 5.93v5a23.18 23.18 0 0 1-8.26 4c-4.21 1.21-12.73 1.65-19.68 1.63a61.82 61.82 0 0 1-11.88-1.35c-.29-.06-5.14-.68-5.93-1.58s0-2-.45-4.13a19.36 19.36 0 0 1-.68-4.58 36.11 36.11 0 0 1 1.64-9.1c1.1-2.94-.25-13.17-.25-13.17s-1.16-7.71-1-8.05a13.27 13.27 0 0 1 2.75-1.75 57.34 57.34 0 0 0 5.36 10.14 25.37 25.37 0 0 0 6.16 6.16c.79.57 1.33.88 1.19 3.05s0 12.15 1 13.51a3.55 3.55 0 0 0 2.1 1.52 6.62 6.62 0 0 0 1.29.2 43.8 43.8 0 0 0 5.39.34c1.2-.14 3.47-.5 4.54-1.59s.78-4.5.78-5.49a44.94 44.94 0 0 1 .74-8.18c.64-2.59 1.06-2.69 2.83-3.93a30.4 30.4 0 0 0 5.14-5.1c1.49-1.77 3.65-7.87 3.83-10L153 107s2.39 0 3.3 1.22c.13.18.56 4.47.56 4.47v.58c1.14 7.73.14 11.9-.15 14.8zM156 149v4.45a24.14 24.14 0 0 1-7.62 2.38 151 151 0 0 1-20.38 1.62c-12.35-.3-13.88-.79-16.43-2.47a3.59 3.59 0 0 1-1.38-2.71c.2-.82.45-1.21 1.36-.73s9.88 2 16.46 2.21c1.67 0 3.5 0 5.51-.11 15.14-.56 20.48-3.51 22.48-4.64zm-38.56-40s-1.29 3.32-1.77 4.38c-1.84-4.17-1.71-5.28-1.71-5.28a19.53 19.53 0 0 0 3.48.9zm-2.37-1.89q.65-.28 1.36-.56a4.33 4.33 0 0 1 .73 1.49s-1.38-.62-2.09-.95zm1.75 6.7l1.22-3.57a33.51 33.51 0 0 0 2.24 3.72 21.66 21.66 0 0 0-3.46-.18zm2.77 1c0 .12-.23 3.13-.31 4.24a20.35 20.35 0 0 1-2.85-4.09 21.62 21.62 0 0 1 3.16-.22zm1.24 4.86s-.11-3.78-.12-5.05a22.68 22.68 0 0 0 2.26 2.79 10.41 10.41 0 0 0 1.6 1.19zm4.58.11c0 .16-.77 3.4-.84 4-.44-.41-.93-.82-1.42-1.22s-1.08-.86-1.8-1.5a36.34 36.34 0 0 1 4.06-1.34zm7 12.75A43.39 43.39 0 0 1 128 130a13.35 13.35 0 0 1-1.5-1.24c.55-.16 1.25-.37 1.5-.48a41.37 41.37 0 0 0 4.77-2.23l.62-.4c2.28 1.22 4.71 2.23 5.61 2.59 0 .11-.27.42-1.52 1.24s-3.24 2.01-5.03 2.99zm.06 1.39a30.54 30.54 0 0 0 5.53 1.88c-.25.25-1.84 1.45-1.84 1.45a32.16 32.16 0 0 1-3.24 1.91c-1.93-1-3.91-2-4.93-2.61 0 0-.61-.21 0-.54.8-.36 2.52-1.15 4.4-2.14zm-4.47-2.8c.94.61 2.15 1.38 3.2 2-.62.33-1.17.61-1.58.81l-1.61.75s-.93.49-1.43.81a22.94 22.94 0 0 1-.45-3.4c0-.58 0-1.41.09-2.27a7 7 0 0 0 1.78 1.3zm0 6.56c.92.57 2.2 1.35 3.49 2.11a33.13 33.13 0 0 1-3.49 1.38s-.41.13-.75-.72a17 17 0 0 1-.4-3.56zm3.63 3.33c.31-.15.67-.33 1.05-.54a29.61 29.61 0 0 0 3 1.54c-.25 0-.5.05-.76.06a52.06 52.06 0 0 1-5.51-.23 12.06 12.06 0 0 0 2.25-.84zm2.47-1.34a41.25 41.25 0 0 0 4.63-3 9.89 9.89 0 0 1-.41 3.69 2.78 2.78 0 0 1-.78 1c-.54-.31-1.89-.94-3.41-1.68zm4.61-7.09v2.14a28.85 28.85 0 0 1-4.94-1.65 38.06 38.06 0 0 0 3.46-2.12 18.86 18.86 0 0 0 1.83-1.44 20 20 0 0 0-.32 3.08zm-4.3-7.63a47.12 47.12 0 0 0 5.4-4.41l.59 4.1a7.53 7.53 0 0 0-.77 2.31l-.09.4c-.72-.35-2.69-1.13-5.1-2.35zm-1.26-.68h-.08a33.15 33.15 0 0 1-5.09-3.52s-.32-.3-.58-.6l.58.28a22.8 22.8 0 0 0 3.39.68 20.19 20.19 0 0 0 6.41-.13 41.2 41.2 0 0 1-4.59 3.29zm-5.15-2.34c.57.48 1.31 1.08 2.25 1.8a18.7 18.7 0 0 0 1.81 1.2c-1.59.93-3 1.63-4.07 2.12 0 0-1.09.48-1.7.71v-1.33a3.18 3.18 0 0 0-.83-1.72c.21-.81.81-2.86 1.07-4.19a10.38 10.38 0 0 0 1.47 1.41zm17.83-2.93c.12.31-2.26-.36-3.47-.39a13 13 0 0 0 2.7-3.09c.16.79.65 3.2.77 3.48zm0-4.71l.17-.29a32.84 32.84 0 0 1 3.93-.32l-.19.45a22.41 22.41 0 0 1-2.71 4.68c-.34-1.1-1.08-3.73-1.22-4.51zm0 5.85c-.18.19-.37.38-.57.56a35.31 35.31 0 0 1-4.07 3.18l-.48-4.06.29-.18zm4.76-8.41a11.54 11.54 0 0 1-1.58-2.86c0-.45 1.76-.5 2.48-.55-.11.55-.49 1.97-.9 3.43zm-1.92-3.73c.11-.6.47-1.83 1.55-1.75s1.2.55 1.28 1.07a17.68 17.68 0 0 0-2.83.68zm1 4.58a14.09 14.09 0 0 0-3 .32 23.83 23.83 0 0 0 1.7-3.58 17.42 17.42 0 0 0 1.29 3.25zm-2.46-5.42c-.35 1.62-3.75 8.45-5.18 9.75s-3 2.94-7.4 3a20.73 20.73 0 0 1-7-1 15.2 15.2 0 0 1-6.43-5.33c-1.41-2.09-3-5.93-2.88-6.72a1.79 1.79 0 0 1 1.31-1.41 19.14 19.14 0 0 1 4.74-1.46c.62 0 .95.73 1.57 1.46a5.32 5.32 0 0 0 2.06 1.39 14.46 14.46 0 0 0 4.9.86 9.12 9.12 0 0 0 5.47-1.7c.8-.69.74-1.43 1.7-1.7s4.57.8 5.58 1.06 1.7.72 1.54 1.79zM128 105.67a3.2 3.2 0 0 1-.43-.25 3.23 3.23 0 0 1-.94-1c-1.12-2-.48-3.88 0-4s1.86.53 4.2.69a46 46 0 0 0 7.33-.28c.2.08.42.31.42.92 0 1.12.32 3-2.34 3.72a16.42 16.42 0 0 1-5.92.91l.07-.06a5.29 5.29 0 0 1-2.39-.65zm-34.4-48.8a18.42 18.42 0 0 0 .16 4.68 19.57 19.57 0 0 0 1.35 4.57 16 16 0 0 1-2 2.87l-.68.7c-.13-1.02-.73-5.74 1.19-12.82zm9.58 52.62a23.64 23.64 0 0 1-2.46-4.07 59.08 59.08 0 0 1-2.9-7.42c-.27-1-.9.05-.64 1.28a32.58 32.58 0 0 0 2 5.26 2.69 2.69 0 0 1 .3.88s.38 1-.43 1.1a6 6 0 0 1-3.33-1.1 8 8 0 0 1-.68-1 23.83 23.83 0 0 1-3.88-10.58c-.37-4.62-.74-12.75-.43-15.57s.53-3.93 1.7-5.79 2.71-4.15 3.83-6.11S98 64.33 98 62.72a1.86 1.86 0 0 0 0-.27v-.09c0-1.73 1.46-9.39 2.77-10.65s.64.64.11 3.56a17.39 17.39 0 0 0 .69 8c.64 2.07 2 2.29 2 2.29a19 19 0 0 1-1.22 4.2c-1.12 2.5-1.59 2.34-2.6 3.3S97.18 74.36 96 76s.21 1 .21 1c.69-.9 1-.85 2-1.33s.58.85.58.85a9.13 9.13 0 0 0 .09 3.48 7.17 7.17 0 0 0 .9 1.81 25.23 25.23 0 0 0-2 5.26c-.32 2 0 5.63.43 6.11s.05-1.81.21-2.82a38.28 38.28 0 0 1 2.58-7.55 4.31 4.31 0 0 1 2.34 1.33c.85 1.06 4.09 6.43 5.9 8.45s7 5 13.82 7.44c0 0 1.49-.05 1.65.9s.32 1.86-.64 2.18-6.63 1.87-7.87 2.31a31.25 31.25 0 0 0-5 1.84c-1.07.71-2.71-1.84-2.71-1.84l-.07-.13a23.06 23.06 0 0 1-3.4-9.14s-.27-2.87-.74-3-.43 4.52-.11 6.32a16.59 16.59 0 0 0 2.11 6 17.7 17.7 0 0 0 2.37 2.6s-.47 1.6-1.47 2-2.99.46-3.98-.58zm-17 6.89c.11 1.75.65 3-1.53 3.79a15.72 15.72 0 0 1-6.89 1.3c-2.49-.2-2.43-.45-2.43-.45a4 4 0 0 1 .28-3.62 1.58 1.58 0 0 1 1.3-.62 16.48 16.48 0 0 0 5.26-.62c1.72-.57 2.2-1.78 2.66-1.81s1.25.28 1.36 2.03zm-1-3.76a1.38 1.38 0 0 0-1.14.08c-.88.37-3.16 2.23-4.63 2.6a17 17 0 0 1-3.56.34l-.85-.74c.26-.12.49-.24.68-.36 1.12-.68 3.9-2.33 5.09-3.22s5.38-3.56 6.15-7.84c-.02-.1-.92 7.63-1.73 9.15zm-16.11 3.83a5.83 5.83 0 0 0-3.35 1.86c-.81.87-1.4 2.78-2.88 2.71s-2.06-.64-1.48-2.84c.25-.49.81-5.19 1.23-7.76s1.14-3.33 1.95-5 4.58-4.47 5.59-5.76.78-1.36.51-1-1.08.91-1.78 1.61-3.48 2.31-4.7 3.77a17.52 17.52 0 0 0-2.25 4.32 28.69 28.69 0 0 1-1.65-4c-.42-1.57-.78-6.78-.08-9.07s2.55-7.81 2.62-8a12 12 0 0 1 4.11-4.11c2.25-1.14 8.14-.42 8.94-.25a40.32 40.32 0 0 1 7.37 4c1.1 1 4.43 5.72 4.49 7s-1.31 9-2.5 10.89a23.92 23.92 0 0 1-8.52 7.63c-4.15 2.05-6.21 3.79-7.61 4zm39.09 18.3a13.54 13.54 0 0 1-1.24-5c-.25-3.22-.65-2.8-.9-2.6s.42 5.42.68 7.23 1.21 5.2.9 6.78-1.78 2.88-2.49 4a12.59 12.59 0 0 1-3.5 4c-2.15 1.61-4.55 3.31-6.67 3.79s-3.25 1.24-6.33-.11-4.58-1.81-5-2.32a54.41 54.41 0 0 1-7.74-15.6 29.94 29.94 0 0 1-1.07-5.64 4.65 4.65 0 0 0-.05-.5 25 25 0 0 1 .39-5.38c.37-.79.73-.54 1.36-.57s2.6-.06 2.6-.06a9.43 9.43 0 0 0 .17 2.94c.34.71.59.65.79-.57s.25-2.12.68-2.37 1.78-.11 2.26-.28.62-.57 1.07-.45a3.52 3.52 0 0 1 1.7 1.75c.28.76.42 2.49.9 2.77s.2-1 .28-1.64a4.36 4.36 0 0 0-1.36-3.16c-1-.79-.37-.9.51-1.41a3.52 3.52 0 0 1 1.41-.45c.48.06 3.25 2.63 4.69 6.16s1.86 10.4 1.53 13.34-.4 3.81-.06 3.73 1.3-2.26 1.24-3.62a21.16 21.16 0 0 0 .23-3.28c-.11-.76.06-1.53.23-1.36a30.73 30.73 0 0 1 1.63 4.68c.06.68.48.23.45-1.13s-.9-5.45-2.09-6.67.37-3.11.37-3.11a58.46 58.46 0 0 1 3.42-6.84c1.13-1.54 4.44-5.85 4.69-6.36s2.19-3.38 3.42-3.81 1.68 6.12 1.72 6.67a57.47 57.47 0 0 1 .23 10.17 39.3 39.3 0 0 1-1.04 6.28zm-1.57 36.63a2.35 2.35 0 0 0 0-.52 57.82 57.82 0 0 1 1.68-9.09c.4-1.4.91-5 1.48-5.17a10.41 10.41 0 0 1 2.63.34C118.35 159.15 128 159 128 159c9.27.25 19.26-.81 20.32-1.3a28.6 28.6 0 0 0 7.85-2.48c.08.27.15.59.22 1 .37 1.91 2 6.16 1.91 9.62a7.31 7.31 0 0 0 .26 2.28 12.34 12.34 0 0 0 .38 7.4 8 8 0 0 1 .57 2.82 18.81 18.81 0 0 1-.42 4.85s-.89 2.57-.69 3.44a4.21 4.21 0 0 0 .19.59 40.68 40.68 0 0 1-10.11 2.42c-7.27.78-24.49.89-29.13.65-5.78-.3-10.65-2.22-11.28-2.7s-1.07-1-1.61-4.53c-.46-3.06-.03-9.52.14-11.68zM144.16 206c.87 0 1.59-.06 2-.1s.55-.09.81-.15a32.77 32.77 0 0 1-.55 3.25c-.8.16-1.58.28-2.32.38a27.18 27.18 0 0 0 .06-3.38zm-4.66-.58c-5-.35-5.53-1.18-5.53-1.18 0-.15-.07-2-.17-3 0 0 6.16.15 9 .13a53.52 53.52 0 0 0 6.05-.61c.48 0 .5.78.26 2s-.37 1.63-1.87 2.09-6.14.53-7.75.53zm1.14.64h2.68c0 .9-.19 3-.24 3.46-.95.09-1.83.14-2.65.15a24.07 24.07 0 0 0 .2-3.67zm-3.52-.06c.61 0 1.08.07 1.08.07h1.8a35 35 0 0 1-.6 3.57c-.83 0-1.57-.06-2.21-.13.01-.7-.05-2.76-.08-3.51zm-2.88.21a5.27 5.27 0 0 1 2.07-.23c.06.68-.07 2.89-.11 3.42a15 15 0 0 1-2.05-.41s-.66-2.39.08-2.83zm.48 23.12a27.88 27.88 0 0 0 .45 2.82c-.88-.35-2.82.14-3.2.14s-1 .11-1-.22.11-1.63.13-2c.4 0 .81 0 1.22-.08a4.27 4.27 0 0 0 2.38-.71zm-3.59-21.38a4.82 4.82 0 0 0-.48-1.79l1.34-.4c.71.43.73 1.5.6 2.54s-.59 1.33-1.52 1.65h-.18a4.43 4.43 0 0 0 .22-2.04zm.89-8.23c-4.71-.07-8.73-.3-12-.58 1.45-1.55 6.64-7.09 7.07-7.09s5 6.39 5.86 7.66zm-12.76-1.79l-3.48-6.84a92.45 92.45 0 0 0 10.41.33 70.07 70.07 0 0 0-6.05 5.94c-.65.9-.89.53-.89.53zm9.23-6.52h4.27c1.21.06 4 0 6.88-.12-1.5 1.29-5.57 7.13-5.57 7.13zm12 .55c.85.09 4.94 5.68 6 7.2-2.74.23-5.94.4-9.57.42l-2.15.08c1.06-1.34 4.83-7.83 5.73-7.73zm7.31 6.14c-.45-.59-5.77-6.56-6-6.87 2.93-.11 5.59-.23 6.35-.23a39.86 39.86 0 0 0 4.42-.45zm-40.62-2.13c-.07.2-.28.57-.7-.48a5.69 5.69 0 0 1 0-4 3.16 3.16 0 0 1 .77-1.68c.64-.75 1.15-.54 1.15-.54s2.36.78 5.11 1.37c-.57.44-6.26 5.1-6.32 5.29zm1.61 1.7h-.12c-.42-.18-1-.65-.62-1.31s6.31-4.66 6.31-4.66a74.42 74.42 0 0 1 3.57 7.14.79.79 0 0 0 .07.16 83.86 83.86 0 0 1-9.2-1.37zm23.12 3.53a3.32 3.32 0 0 1 .17 2 2.62 2.62 0 0 1-2.08 1.7c-5.42.57-9.69.26-11.67-.91a5.16 5.16 0 0 1-2.13-3.83c3.09.43 15.72 1 15.72 1zm-2.2 7.08a11.12 11.12 0 0 1-.19 1.9c-.79.07-1.79.12-2.85.15.06-.7.09-3.06.1-3.88h2.46a4.66 4.66 0 0 1 .49 1.78zm-4 2.06h-2.51a18.33 18.33 0 0 1-.29-2.08 8.07 8.07 0 0 1 .05-1.81c.82 0 1.57.07 2 .07h.7c.04.67.05 2.93.09 3.77zM119.5 206l.36.08c.45.08 1.2.15 2 .21a14.16 14.16 0 0 0-.08 2.36 6 6 0 0 0 .21 1.5c-.36 0-.68-.09-1-.15a7.66 7.66 0 0 1-1.32-.41h.06a7.1 7.1 0 0 1-.23-3.59zm-2.6 1.69c-.22-.41-.85-1.92-.13-2.31a1.93 1.93 0 0 1 1.5.17 5 5 0 0 0 .05 3.3 7.8 7.8 0 0 1-1.42-1.16zm3.41 9.52a.66.66 0 0 0-.06-.2 1 1 0 0 0-.09-.23c-.36-1.06-.81-3.77-1.09-4.69s-.39-1.28-.09-1.26 1.83.83 6.88.65a34.94 34.94 0 0 0 6-.61c.3.09.5.61.61 2.22s0 3.44.22 6.49 1.13 8.19 1.13 8.19a13.78 13.78 0 0 1-4.88.7h-.17c-1.61 0-4.72-.13-5.05-.57a24.15 24.15 0 0 1-1.26-3.48c-.21-.59-1.83-6.09-2.15-7.22zm6.69 20.11c.34.05.49.21.44.63s.07 2 0 2.44-.7.57-1.39.52-5.07.3-5.79-.22-.54-1.09-.44-2.53a3.1 3.1 0 0 1 .32-1.31h2.51c1 0 4.4.48 4.4.48zm-.95-1.11l-4.48-.3s-.83-.24 0-.83a22.47 22.47 0 0 0 1.79-1.65 3.88 3.88 0 0 0 .55-.69h2.32a5.91 5.91 0 0 1 2.31.35c.22.26-.24.91-.57 1.57a6.06 6.06 0 0 0-.44 1.7zm.44-4.27c-.81-.13-2.16 0-2.22-.57s.63-1.37.48-1.79c.44.09 3.74.39 3.74.39s.68.07 1.62.08a3.19 3.19 0 0 1-.36 1.88 26.31 26.31 0 0 1-3.27.01zm-5.75-1.22a12.76 12.76 0 0 1 1.79-1.18 5.67 5.67 0 0 1 1.37 0 5.42 5.42 0 0 1-.81 1.66 1.14 1.14 0 0 1-.77.48H122c-1.4-.2-1.55-.68-1.27-.96zm-3.48 3a5.93 5.93 0 0 1 3.7-1.09c.37 0 .93.07 1.43.08a6.32 6.32 0 0 0-1.47 1.36 12.27 12.27 0 0 1-1.2 1.49 10.16 10.16 0 0 0-3.06 0 4.84 4.84 0 0 0-1.83.87 9.2 9.2 0 0 1 2.41-2.7zm-3.25 5.4a3.12 3.12 0 0 1 1.12-1.83 4.93 4.93 0 0 1 3.61-.78.82.82 0 0 0 .42.18c.12.13 0 .3-.07.65-.09.52-.22 2.29-.39 2.92s-1.35.39-1.35.39c-2.21-.56-3.04-1.16-3.35-1.52zm6 5.55a7.2 7.2 0 0 1-2.7-.55c-2.13-.94-2.83-2-3.18-3a4.15 4.15 0 0 1-.14-.53 12.21 12.21 0 0 0 3 .79c.87.13 1.5.09 2 .22s1.11 2.22 1.18 2.66a.34.34 0 0 1-.17.42zm2.57-.15h-.45a6 6 0 0 1-2.08-2.86 61.87 61.87 0 0 0 7.71.26c.35.73.78 1.59 1 1.92a14.81 14.81 0 0 1-6.16.68zm7.14-1c-.24-.44-.76-1.74-.76-1.74l1.11-.13c.91-.11 3.06-.59 3.82-.76a8.46 8.46 0 0 1-4.15 2.68zm5.31-5.09a10.9 10.9 0 0 1-.34 1 8.87 8.87 0 0 1-4.19 1.22c-1.76 0-2-.37-2.13-1.09a2.51 2.51 0 0 1 .22-2c.3-.26 1.31.11 2.79.22a22.77 22.77 0 0 0 3.82-.24 6.54 6.54 0 0 1-.15.93zm.31-2.14a9.18 9.18 0 0 1-3.92.48c-1.22-.17-2.59 0-2.83-.44a3.4 3.4 0 0 1 .65-2.57c.59-.91 2.44-1 3.79-.87a10.07 10.07 0 0 1 2.34.44 21.25 21.25 0 0 1-.01 3zm.78-7.18c.31 0 1.41.05 2.26.07a13.77 13.77 0 0 1 .23 1.93 6.65 6.65 0 0 1-.13 1.13c-1.39.31-1.53 1.08-1.26.86a3.44 3.44 0 0 1 1.13-.39 1.57 1.57 0 0 1 1.35.61 4.89 4.89 0 0 1 .61 2.66c-.17.39-1.65.5-2.22.39-.41-.08-1.16-.32-1.55-.44 0-1.34 0-2.77-.07-3.69a24.44 24.44 0 0 0-.33-3.09zm8.3 2.48c-1.3.12-3.07.29-4.39.44a8.25 8.25 0 0 0-.6-2.84s.85-.18 1.89-.32a6.84 6.84 0 0 1 1.15.23 9.93 9.93 0 0 1 2 2.31.16.16 0 0 1-.03.23zm0 .57a.84.84 0 0 1 .19.12c.35.3 2.55 1.87 2.74 2.53s-1.24.5-1.87.61l-1.37.26a5.15 5.15 0 0 0-1.15.09h-1.44a17.21 17.21 0 0 1-.87-2.44c-.1-.33-.12-.7.1-.87 1.18-.05 2.48-.16 3.73-.25zm-2.94 12.14c-.89-.22-3.79-.63-4.4-1.65a4.82 4.82 0 0 1-.56-2c.94.11 4.57.54 4.83 1a3.51 3.51 0 0 1 .19 2.7zm-.09-3.83c-.54.33-3.4-.48-3.4-.48a15.78 15.78 0 0 1-1.54-.71v-.68-1.65c.73 0 3.29 0 3.72.09s.81.17 1.13 1.44.7 1.71.15 2.04zm7.88 2.18a5 5 0 0 1-1.39 1.77 32.51 32.51 0 0 1-5.4 0 4.78 4.78 0 0 0 .13-2.26s-.3-.5.3-.44a52.07 52.07 0 0 0 5.62.13c.93-.07 1 .28.8.85zm.3-3.57c0 1.26-.07 1.65-1.31 2a21.63 21.63 0 0 1-5.05-.13c-.48-.07-.61-.26-.83-1.18s-.48-2.39-.52-2.53-.2-.39.61-.44a26.64 26.64 0 0 0 3.22-.44s1.92-.5 2.55-.17a3.55 3.55 0 0 1 1.4 2.94zm5.59.17v.49c-.15 2-1.79 3.24-4.57 4.18-.24.08-.5.15-.78.22a5.23 5.23 0 0 0 .69-1.43 6.56 6.56 0 0 0 .17-1.35s3.2-.06 4.56-2.07zm-1.93-4.61a5.45 5.45 0 0 1 1.81 3.28 7.68 7.68 0 0 1-2.16 1.73c-1.13.48-2.31 1.22-2.53.3a2.3 2.3 0 0 0 .09-1.31 6.57 6.57 0 0 0-1.13-2.92s.13-.33 1-.52a5.21 5.21 0 0 0 2.49-.87zm-2.38-1.75c.23.2.73.71.16 1.14a5.51 5.51 0 0 1-2.31.65 6.53 6.53 0 0 1-1.13-1.39c-.19-.29-.54-.75-1-1.27h.75a6.27 6.27 0 0 1 3.6.92zm-3.76-3.17c.73.94 0 1.57-1 1.72-.94-1.13-2-2.34-2.38-2.72a5.93 5.93 0 0 1 3.45 1.04zm-.3-14.54c-.54 2.31-2.42 7.14-2.57 8.93s0 2.68-.57 3a13.62 13.62 0 0 1-4.48.83c-1.33 0-3.35-.09-3.61-.87s-1-6.84-1.26-10.06-.17-6.27-.17-6.27a58.25 58.25 0 0 0 11.93-.52 7.52 7.52 0 0 0 1.87-.74c.4-.29-.53 3.43-1.08 5.74zm1.7-7.4a2.61 2.61 0 0 1-1.16.86c.15-.7.54-2.58.62-3.22.48-.1.85-.11 1.06.14.5.56.22 1.56-.46 2.26zm9.67-10.54a59 59 0 0 1-9.31 1.62c1.25-2 4.79-7.71 4.79-7.71a28.84 28.84 0 0 1 4.66 6.06zM160 195c-.33.26-.94.42-1.07.28s-3.48-4.36-4.15-5.2a14.7 14.7 0 0 0 2.8-.72l.68-.32c-1.26 2.56 1 2.89 3.15 2.39A18.83 18.83 0 0 1 160 195zm6.79-11.85s-2 4.46-4.35 6.14-2.81 1-3 .57.94-1 1.52-1.44a6.23 6.23 0 0 0 2.7-3.35c.72-2.11.74-3.37.35-3.09s-2.16 4.2-2.79 4.7a1.22 1.22 0 0 1-1.35 0c-.67-.5.06-1.55.63-3.5a17.81 17.81 0 0 0 .41-6.39c-.13-1 .22-.83.22-.83a5.69 5.69 0 0 0 1.83.44 11 11 0 0 0 5.44-1 20 20 0 0 1-1.65 7.79zm-.78-8.27c-2.7.65-4.79.15-5.66-.87a4.56 4.56 0 0 1-.52-3.7c.26-.52 1.39-.26 1.39-.26a10.58 10.58 0 0 0 4.07-.11c1.75-.32 3.4-1.38 4-1s.64 1.22.69 2.18c-.13 2.75-1.31 3.15-3.98 3.8zm-3.66-59.58c.3.81.81 2 1 2.39v.16a26.94 26.94 0 0 1 1.28 4.78 18.73 18.73 0 0 0 1.17 4.41c.37 1.06 3 7.28 3.61 9.89a28.2 28.2 0 0 1 .85 7.65c-.21 1.75 0 1.75-1.54 1.43s-2.92-1.12-6.27-.8c0 0-1.49.43-1.75 1.06s3.14-.32 4.62 0 2.92-.05 3 .85-4.41.85-6.06 2.34-1.43 2-.16 1.65 4.89-2.07 6.43-2.18 2.07.21 2.23 2.13a24 24 0 0 0 1.12 5.42c.69 2.39 1.49 4.3.21 6.48s-3.56 5.51-3.56 4.62c0-.16 1.43-1.43 1.06-3.3s-.8-1.49-1-1 .32 2.66-1.75 4.41a4.67 4.67 0 0 1-5.31.37c-.74-.48-1-1.86-1.17-1.49s.53 2 .37 2.23-.53.43-.9-1-.74-7.33-1.33-9.62-1.59-5.79-1.65-6.48a16.18 16.18 0 0 1 .13-2.44c.07-.59 0-1.44.07-2.27.16-1.58.77-7.35 1.11-9.68h.11a11.08 11.08 0 0 0 .22-1.11c.12-.85 1.07-4.37 1.19-5.17s1.56-4 1.57-6.17a5.11 5.11 0 0 0 0-.91c-.05-.56-.15-.81-.29-.9-.24-.42-.48-.35-.69.2a2.77 2.77 0 0 0-.25.91c-.08.4-.15.88-.22 1.45-.16 1.41-.5 2.12-.78 2.28a3.81 3.81 0 0 1-.31-1.28 24.45 24.45 0 0 0 .07-3c.26-3.67.38-4.51.19-5.86l-.18-1.27c-.12-1.16-.3-2.34-.47-3.31l-.09-.62c-.1-.71-.61-2.39.19-2.45 0 0 1 .3 1 .29 1.73 1.3 2.52 3.94 2.89 4.95zm-1.14-8.51c-1.59 1.33-1.54 1.49-2.13 1.33a8.2 8.2 0 0 1-1.91-1.49 6.93 6.93 0 0 0 2.23-3.08c.58-1.86-.16-6.22-1-7.12s-.05 3.61-1.12 6.27-2.18 3.29-2.18 3.29a24.59 24.59 0 0 0-5.16-1.28c-1.91-.11-2 .05-2.44-.05a45.89 45.89 0 0 0-5.85-2.07c-1.69-.33-2-.24-2-.19l.34-2.17c1-.35 2.34-.86 4.17-1.52 3-1.06 8.24-3.19 11-5.74a46.46 46.46 0 0 0 6.84-7.82c.21-.07.49 0 .83.37.74.9 3.51 7 2.13 12.33s-2.2 7.65-3.79 8.98zm10.58-30.24c.48 4.68-.11 13.18.05 15.52s.16 7.44-2.44 10.26-3.4 3.33-4.4 3.17.53-2.13.85-3.67a20.36 20.36 0 0 0 .64-8.08 27.43 27.43 0 0 0-2.6-9.14 3.39 3.39 0 0 1-.59-2 2.56 2.56 0 0 1 .54-.58c.69-.53 1-.16 1.91-.64a2.49 2.49 0 0 0 1.25-1.13 37.26 37.26 0 0 0 1 5.26c.48 1.17.43-1.65.53-2.18a41.22 41.22 0 0 0-1.7-8.4c-.64-1.22-2.07-.37-3.4-1.81 0 0-.64-4.78-1.38-6.27s-2.29-2.92-2.5-3.67.21-4.25-.58-7.39-3.61-7-4.57-7.6-1.59-.48-.8.58 3.61 5 4.25 8.93-.32 4-1.7 4.41-6.75-.32-8.08-.69-1.38-.9-2.29-3.19-4.2-10.2-6.11-12.12a3.83 3.83 0 0 0-1.54-1.33c.9 1.54 2.34 13.82 1.49 15.15a3.54 3.54 0 0 1-2.66 1.38c-5.16 1.17-12.38 1.28-13.34-.21s-.8-8.45-1.12-8.4-2.29 8.61-2.71 8.93-4.78.9-5.58-.58a25.26 25.26 0 0 1-2.21-6.53c-.42-2.12.3-5.8.61-7.2a4.51 4.51 0 0 0 .13-.56c.43-2.5 1.59-5.1 7.23-7.92s10.47-1.38 12.7-1 4 2 4.25 1.43-.48-1-.37-1.75 2.29-.58 2.29-.58c4.15-.27 13.29 3.4 17.8 6.91s8.08 9.25 8.77 12.6a30.82 30.82 0 0 1 .37 7.87 25 25 0 0 0 1 4.89 9.06 9.06 0 0 1 1.22-4.85 5.25 5.25 0 0 0 1 1.8 5.07 5.07 0 0 0 .53 2.23 22.26 22.26 0 0 1 2.22 8.19zm4.46-10a5 5 0 0 1-2.27.07.67.67 0 0 0-.23-.07c-1.28-.21-2.82-1.54-4.15-2.55s-1.54-2.66-1-3.19.85 0 1.7.21 2.7 1.86 2.7 1.54a4.38 4.38 0 0 0-1.75-2.13c-1.12-.74-2.55-1.49-2.07-1.86a4 4 0 0 1 3.3.74c1.81 1.22 5.69 3 5.9 4.46s-.52 2.4-2.17 2.77z" fill="#692e21"/><path d="M71.33 93.27c-.19 0-3.35 1.21-5.09 1s-2.23.38-1.53.76a6.25 6.25 0 0 0 3.9.21c1.62-.4 4.48-2.33 2.72-1.97zM72.05 106.41a10.43 10.43 0 0 0 5.42.51 11.94 11.94 0 0 0 4.66-2.12c.66-.53 1.29-.72.64.21a8.46 8.46 0 0 1-5.17 3.05 9.21 9.21 0 0 1-5.72-.55c-1.21-.61-1.78-1.78.17-1.1z" fill="#692e21"/><circle cx="115.75" cy="110.25" r=".34" fill="#692e21"/><circle cx="118.46" cy="112.69" r=".34" fill="#692e21"/><circle cx="118.32" cy="116.03" r=".34" transform="rotate(-60.23 118.314 116.032)" fill="#692e21"/><circle cx="121.98" cy="117.7" r=".34" transform="rotate(-60.23 121.98 117.698)" fill="#692e21"/><circle cx="123.84" cy="121.62" r=".34" transform="rotate(-60.23 123.84 121.622)" fill="#692e21"/><circle cx="142.66" cy="121.45" r=".34" transform="rotate(-60.23 142.657 121.454)" fill="#692e21"/><circle cx="144.39" cy="117.97" r=".34" transform="rotate(-60.23 144.392 117.967)" fill="#692e21"/><circle cx="147.53" cy="115.52" r=".34" transform="rotate(-60.23 147.54 115.519)" fill="#692e21"/><circle cx="148.2" cy="111.57" r=".34" transform="rotate(-60.23 148.204 111.573)" fill="#692e21"/><circle cx="150.47" cy="109.54" r=".34" transform="rotate(-60.23 150.473 109.548)" fill="#692e21"/><circle cx="127.76" cy="124.4" r=".57" fill="#692e21"/><circle cx="132.95" cy="122.34" r=".57" fill="#692e21"/><circle cx="132.66" cy="129.87" r=".57" fill="#692e21"/><circle cx="138.42" cy="124.44" r=".57" fill="#692e21"/><circle cx="137.66" cy="132.33" r=".57" fill="#692e21"/><circle cx="133.17" cy="136.29" r=".57" fill="#692e21"/><circle cx="137.25" cy="139.29" r=".57" fill="#692e21"/><circle cx="127.81" cy="132.96" r=".57" fill="#692e21"/><circle cx="128.42" cy="139.29" r=".57" fill="#692e21"/><circle cx="126.66" cy="196.51" r=".96" fill="#692e21"/><circle cx="134.01" cy="193.69" r=".96" fill="#692e21"/><circle cx="140.51" cy="196.68" r=".96" fill="#692e21"/><circle cx="147.46" cy="193.24" r=".96" fill="#692e21"/><circle cx="153.73" cy="195.84" r=".96" fill="#692e21"/><circle cx="159.32" cy="191.6" r=".96" fill="#692e21"/><circle cx="119.88" cy="193.24" r=".96" fill="#692e21"/><circle cx="112.93" cy="195.84" r=".96" fill="#692e21"/><circle cx="108.58" cy="191.82" r=".96" fill="#692e21"/><g opacity=".5"><path d="M176.07 133.76s.76 2.48-6.48 4.83-25-4-27.84-5.21a5.91 5.91 0 0 0-6 .38c-1.37.81-12.65 5.91-18.94 5.72s-14.68-4.83-22.38-5.47-34.26 2.35-37.13 2.8-6.17 1-12-1.91-6.87-9.79-8.65-11.57a30.53 30.53 0 0 1-6.48-9c-2.16-4.58-1.33-10.49 3.56-17s10.36-4 13.73-6.48 6.74-6 11.57-7.5 16.4-5.4 26.19-3.69c9.95 1.74 14.24 3.5 18.8 3.3s12.23-2.92 23.54-4.32 35.71 4.69 39.16 6.87 14 7.12 14 7.12a61 61 0 0 1 12.08 4.07c5.28 2.61 3.88 7.5 6.74 7.76 1.89.17 6.12 1.67 8.77 2.67V6.75L14.56 9.57l-.39 222.65 2.73 1.19L208.36 237v-94.3a33.2 33.2 0 0 1-10.93-2.55c-6.99-2.83-21.36-6.39-21.36-6.39z" fill="#ebe8e7" opacity=".48"/></g><path d="M14.58.26l-.07 9.45s187.31-.11 188-.14c.37 0 4-.44 3.88 3.11-.12 4.32-.18 217.11-.18 217.11s.82 1.86-6.81 2l-7.63.13-177.59-.05.17 17.85 198.27-.24s1.19-.22 1.11-3.57-.07-243.79-.07-243.79.87-1.68-3.22-1.64C207 .5 14.58.26 14.58.26z" fill="#cb875f"/><path d="M14.82 10l190 .06s.82-.14.79 1.3 0 218.35 0 218.35.23 1.19-.85 1.19H14.25v1.05c0 .11 5.71 0 5.71 0h184.89s2.06.37 2-2 0-219.26 0-219.26S207 9 204.73 9H14.58a.44.44 0 0 0-.33.21c-.2.28.06.79.57.79z" fill="#692e21"/><path d="M285.74 8.75c-.77-1.88-69-.89-69-.89l.51 226.85 68.51-2.6z" fill="#ebe8e7" opacity=".48"/><path d="M286 .47L213.55 0l.21 249.38 72.06.19v-18.15s-56.11 2.23-55.45-.9a1.13 1.13 0 0 0 0-.23c.07-13-.18-220.15-.18-220.15L286 9.69z" fill="#cb875f"/><path d="M286 .11a2.16 2.16 0 0 0-.5-.11H14.58c-.42 0-.65.21-.61.47s.07.41.53.42h197.71C213.16.89 213 2 213 2v245.67c0 1.53-.93 1.31-.93 1.31H14.4c-.13.07-.08.93-.08.93l196.31.07h1.7l73.63-.06a9.38 9.38 0 0 1 0-1c.08-.28-1.42-.09-1.42-.09h-69.28a1.18 1.18 0 0 1-1.07-.89l.08-245.77c-.06-1 .57-.9.57-.9l70.73-.17c.45 0 .48-.25.46-.63s.06-.3-.03-.36z" fill="#692e21"/><path d="M231.6 9.38l54.4.13v.9c-1.91.25-53.7 0-53.7 0s-1.18-.13-1.18 2.54v216.43a2.19 2.19 0 0 0 1.94 1.53H286v1c-2.54.25-52.43.13-52.43.13s-3.81.51-3.94-2.8.22-217.11.22-217.11a3.82 3.82 0 0 1 .41-2 2.47 2.47 0 0 1 1.34-.75zM286 249.94a9.38 9.38 0 0 1 0-1c.08-.28-1.42-.09-1.42-.09" fill="#692e21"/><circle cx="223.11" cy="117.71" r="2.49" fill="#c7c0b1"/><circle cx="223.67" cy="156.24" r="2.83" fill="#c7c0b1"/><path d="M223.09 114.11a3.45 3.45 0 1 0 3.45 3.45 3.45 3.45 0 0 0-3.45-3.45zm0 5.77a2.3 2.3 0 1 1 2.3-2.3 2.3 2.3 0 0 1-2.32 2.3zM223.67 152.62a3.45 3.45 0 1 0 3.45 3.45 3.45 3.45 0 0 0-3.45-3.45zm0 5.79a2.34 2.34 0 1 1 2.34-2.34 2.34 2.34 0 0 1-2.35 2.34z" fill="#692e21"/><path d="M223.52 119l9.61.61.06 34.55s-4.14.67-4.44.64-5.62-.22-5.62-.22-.81 2-.57 2.2a20.44 20.44 0 0 0 2 1.15l12.61-.42v-41.07l-14-.26s-1.25 1.26-1 1.81 1.35 1.01 1.35 1.01z" fill="#c7c0b1"/><path d="M236.92 115.55h-12.8a2.58 2.58 0 0 0-2.15.9 2.23 2.23 0 0 0 .11 2.6 4 4 0 0 0 2 .83l7.68.05c.62 0 1 .2 1 .63l-.25 31.27c0 1.68-.14 2.17-.73 2.16 0 0-7.8-.1-7.9-.09a2.2 2.2 0 0 0 .21 4.35h.36l12.08-.12a1.19 1.19 0 0 0 1.1-1.17l.34-40.37a1.08 1.08 0 0 0-1.05-1.04zm-.46 40.19a1.39 1.39 0 0 1-1.41 1.43l-10.9.08a1.2 1.2 0 0 1-1-1.22c0-.87 1.09-.91 1.09-.91l8.88.06c.42 0 .71-.46.71-.95l.2-34.77c0-.49-.47-.61-1.28-.65l-8.66-.13s-1.09-.05-1.12-.87c-.05-1.17 1.19-1.11 1.19-1.11l10.87-.14a1.35 1.35 0 0 1 1.54 1.16z" fill="#692e21"/></g></g></svg>