<svg xmlns="http://www.w3.org/2000/svg" width="300" height="250" viewBox="0 0 300 250"><title>Ресурс 83</title><g id="Слой_2" data-name="Слой 2"><g id="Слой_24" data-name="Слой 24"><rect width="300" height="250" fill="none" opacity="0.48"/><path d="M196.38,222.25s1.36-3.84,2.18-4.36a18.29,18.29,0,0,1,6.19-1.84c3.4-.54,8.47-1.16,9.25-.82s2.89.68,4.08,1.7a24.3,24.3,0,0,1,3.2,3.27c1.09,1.33,3.74,4.59,3.13,6.74s-1,3.27-1.63,3.54-9,2.59-9.19,2.59-10,.51-12.18-.07-4-3.2-4-3.2-2,3-4.83,3.27-3.2.27-3.2.27-6.53-.31-12.25-.41-5.65-2.08-6.53-3.13-2.28-4-1.29-6,3.33-4.32,4-5.44,3.84-3.3,5.38-3.13,8.17.75,9.25,1.16,6.5.14,7.08,2S196.38,222.25,196.38,222.25Z" fill="#efb000"/><path d="M154.45,156.71s-1.73,4.91-1.52,7,.73,5.54,2.14,7.11,3.19,3.66,4.65,4.34,4.1,1.62,4.5,1.25.65-.63.47-1-3-2.67-3-3.87a9.08,9.08,0,0,1,.52-3.19c.18-.08,1.75,1.86,2.61,2.14s1.46.5,1.71.05,0-1.86-.45-3.09a32.83,32.83,0,0,1-.78-5.65c0-.6-1.2-5.41-1.73-5.59S155.45,155.72,154.45,156.71Z" fill="#fbdfcb"/><path d="M254.37,140.77c-.18-4.39-8.05-18.4-8.47-19.19s-2-8-2.77-10.09-4.55-4.94-8.57-11.24S223.5,86.83,221.33,85.6A65.55,65.55,0,0,0,212.86,82c-.58-.1-7-1-7-1s0-2.77-.11-3.63c0,0-1.83.9-7.45,2-.68.13-4.06.4-4.76.44a35,35,0,0,1-6.14-.3c-1.68-.24-6.66-1.37-6.66-1.37l-.23,4-4.13.94-2.77.68L169.51,85c-1.15.47-.52,1.88-.52,1.88a59,59,0,0,1-4.44,4.34c-2.56,2.25-6,9-8.26,13.28s-4.65,12.44-5.07,14.33-3.14,14.9-3.14,14.9-1.33,3-1.93,4.24-.21,4.91-.21,4.91a9,9,0,0,0-1,4.6c.21,2.43,7.53,4.44,7.53,4.44s-.86,2.82,3.82,4.29,10.2-1.67,10.41-1.62.13-2.43.1-2.72.63-9.33.63-10.77-2-2.48-.73-5.39,1.67-20.81,2.61-23.53,1.31-14.74,1.31-15,7.27-1,7.27-.73.52,4.56,4.1,5.66,26.38-.2,28.26-1.32,1.59-7.19,1.78-7.16,5.12-.05,5.12-.05-1,10.27,1.15,12.39,5,8,5.18,8.21,1.52,15.48,2.25,22.06a80.68,80.68,0,0,0,2.41,12.29s2.25,6,8.31,7.42,12.34-.94,14.17-2.61S254.55,145.16,254.37,140.77Z" fill="#fff"/><circle cx="170.71" cy="95.12" r="4.55" fill="#fd8204"/><circle cx="208.88" cy="100.24" r="4.55" fill="#fd8204"/><path d="M233.84,125.59a4.55,4.55,0,0,1-9.1,0c.34-1.21,1,.11,5.11-3.44C232.36,122.15,233.84,123.08,233.84,125.59Z" fill="#fd8204"/><path d="M236.08,101.6a4.55,4.55,0,0,1-8.74-1.77,3.87,3.87,0,0,1,4.18-4.08C234,100.09,236.31,101.05,236.08,101.6Z" fill="#fd8204"/><path d="M251.51,132.58a4.55,4.55,0,0,1-6.29-4.21,3.78,3.78,0,0,1,2.42-3.78C249.93,130.67,252.61,132.12,251.51,132.58Z" fill="#fd8204"/><path d="M217.63,82.86a4.55,4.55,0,0,1-9-.92C211.82,81.22,217.69,82.56,217.63,82.86Z" fill="#fd8204"/><circle cx="162.45" cy="121.47" r="4.55" fill="#fd8204"/><path d="M170.24,90.4c-.21,0-1.5-4.34-1.12-4.88s2.44-2.16,3.42-1.39,2.16,4.74,2.16,4.74a5.53,5.53,0,0,1,2.09,1.39,13.52,13.52,0,0,1,1.25,4.25,13.26,13.26,0,0,0,.42,3.42c.38,1,1.46,3,2.58,3.56s6.2.84,6.2.84,19.42.35,21.61-.63,2.16-1.85,2.44-3.14.71-4.9.71-4.9-2.39-1.2-2-3.33,2.34-3.8,2.37-4.6-.42-3.52.51-3.68,3.92-.92,4.24.89a24.45,24.45,0,0,1,.21,4.67c0,.31.8.56,1,2.23a7.39,7.39,0,0,1-1.13,3.76s-1.1,8.89.09,10.39a77.7,77.7,0,0,1,5,6.9c1,1.74,2.3,14.68,2.58,16.38s1.6,16.24,1.6,18.61-.59,13.59-.91,17.43a98.78,98.78,0,0,1-2.79,15.13c-.91,2.65.17,16,0,19.24s-.66,6.66-.91,9.2.31,8.37-.24,9-1.08,2.68-1.36,2.58-2.82-2.82-5-3A70.89,70.89,0,0,0,200,216.91c-1,.27-1.4.41-1.54-.53s-.14-19.28-.49-20.71a20,20,0,0,0-2.09-4.11s-1.12,9.38-1,11.71,0,13.18-.35,13.52-12.69-1.46-13.94-1.46c-4.38,0-7.77,3.14-8.09,2.93s-.5-1.67-.62-3.07c-.09-1-.46-11.74-.49-14s-.8-16.24-.84-17.43a42.93,42.93,0,0,0-.56-7.32c-.52-2.13-2.89-13.14-2.93-14.78s.21-12.06.35-13.25a19.06,19.06,0,0,0-.28-5.09,31.75,31.75,0,0,1-.7-5.51c0-.94,1.67-10.07,1.67-12.13s1.46-12.72,1.29-13.51.94-5.84.94-7.2.63-6.83.37-7.76-1.93-4.3-1.55-5S170.24,90.4,170.24,90.4Z" fill="#7a4c2c"/><circle cx="152.2" cy="133.18" r="4.55" fill="#fd8204"/><path d="M156.33,152.22a4.55,4.55,0,0,1,8.67-1.93C165.28,150.87,159.79,152.37,156.33,152.22Z" fill="#fd8204"/><path d="M180.61,106.26s-.21,3.22.21,3.61,30.38,0,30.38,0l-.31-4.39-30.27-.1Z" fill="#fd8204"/><path d="M188.12,79.34c.73.08,1.48.15,2.24.2a28.63,28.63,0,0,0,5.33-.2Z" fill="#e09c51"/><path d="M205.81,79.34c.08.88.21,1.7.39,1.63a14.89,14.89,0,0,1,2.85-.53h4.28a21.41,21.41,0,0,0,5.4-1.11Z" fill="#e09c51"/><path d="M185.74,79.34a51.83,51.83,0,0,0,12.73,0Z" fill="#fbdfcb"/><path d="M241.68,129.47l0,0-.38-.25-.39-.21h0l-.49-.13h0a3.1,3.1,0,0,1-2-.9,3,3,0,0,0,.64.91,6.33,6.33,0,0,0,2.7.7Z" fill="#fff"/><path d="M235.74,134.6c0-.44-3.77-1.61-4.44-2.55s-.72-2.44.89-2.44,4.33,1.05,4.77.67l.44-.39h0l.67,1.5-.11,3.77a1.59,1.59,0,0,0,1.78.56c1.28-.28,1.33-1.78,1.33-1.78l-.22-3.33a4.35,4.35,0,0,1,3.11.33c1.44.83,3.16.89,3.89,2.66s1.28,4.11,1.78,5.44-.06,3-.67,5.11a51,51,0,0,1-2.22,5.55s-4.38.67-6.22.67-4.77-.39-6.11-1.67a2.17,2.17,0,0,1-.67-2.33,13,13,0,0,1-1.33-3.11c-.28-1.33.56-4.77.56-4.77s-.33-1.78.33-2.11a24.68,24.68,0,0,1,3.11-.89Z" fill="#fbdfcb"/><path d="M238.42,127.94c-.24-.72,1.09-53.06,1.09-53.06s-.39-3.11,1.33-3.44,1.44,4.22,1.44,4.22L241,134.71s.33.5-1.22,1-1.78-.56-1.78-.56Z" fill="#efb000"/><path d="M236.73,206.2l1-55.5a5,5,0,0,1,1.78-.33c1,0,1.22,3.33,1.22,3.66s-.89,52.17-.89,52.17S238,209.08,236.73,206.2Z" fill="#efb000"/><path d="M235.88,226.55c-.26.11-15.76,5-15.76,5s-8.07,2.44-9.4,3.33-2.15,2.29-1.85,3.11a10.55,10.55,0,0,0,1.18,3c.63.78,6,6.85,7.1,7.18s5.48-.41,6.14-.59S263.62,234.42,264,234.2s3-1.33,3.31-2.25a4.76,4.76,0,0,0,.07-2.89c-.33-1.11-6.29-5.59-6.73-5.92a18.08,18.08,0,0,0-3.63-1.92C256.57,221.22,235.88,226.55,235.88,226.55Z" fill="#fd8204"/><path d="M236.51,220.41,236.4,229l-5.77,2.11s-3.11.17-3,1,2.33,3,2.33,3l3,2.66,17.21-5.11a2.14,2.14,0,0,0-.56-1.89c-.83-1.05-4-4.33-4-4.33l-6.11,1.78-.11-20.65-2.55-.33Z" fill="#c7c0b1"/><path d="M246.61,225.85s9.77-2.61,10.32-2.44a67,67,0,0,1,5.22,4.44,4,4,0,0,1-2,1.78c-1.17.28-8.33,2.55-8.33,2.55l-1.44-.56-4.77-5.22Z" fill="#f5e0c7"/><path d="M214.2,236.28l4.44,5.55s2.89.67,3.66.33,9.66-4.33,9.66-4.33l-2-2.78-2.33-3Z" fill="#f5e0c7"/><circle cx="184.32" cy="81.64" r="0.59" fill="#692f23"/><circle cx="188.68" cy="81.1" r="0.57" fill="#692f23"/><ellipse cx="192.18" cy="83.08" rx="0.58" ry="0.57" fill="#692f23"/><circle cx="196.43" cy="81.16" r="0.61" fill="#692f23"/><circle cx="200.48" cy="81.72" r="0.6" fill="#692f23"/><circle cx="203.81" cy="79.52" r="0.6" fill="#692f23"/><circle cx="192.56" cy="87.42" r="0.65" fill="#692f23"/><circle cx="197.07" cy="89.87" r="0.65" fill="#692f23"/><circle cx="193.13" cy="94.69" r="0.65" fill="#692f23"/><circle cx="188.81" cy="98.49" r="0.65" fill="#692f23"/><path d="M193.73,101.86a.65.65,0,0,0-1.1,0Z" fill="#692f23"/><circle cx="197.5" cy="97.91" r="0.65" fill="#692f23"/><circle cx="188.51" cy="90.63" r="0.65" fill="#692f23"/><polygon points="199.6 84.98 199.59 84.98 199.59 84.98 199.6 84.98" fill="#692f23"/><path d="M211.64,105.33c-.29-.51-1.52-.47-1.52-.47l-17.8,0s-10.18-.19-11.33-.14a1,1,0,0,0-1,1.08s-.09,2.95,0,4,1,1,1,1,28.78-.07,29.8,0,1-.56,1-.56S212.05,106.08,211.64,105.33Zm-1.92,4.1H182.11c-.92,0-1-.31-1-.31A16.89,16.89,0,0,1,181,107c.05-.94.49-.91.49-.91l10.81,0s16.73,0,17.46.07.8.47.8.47,0,1.36,0,2.11S209.71,109.43,209.71,109.43Z" fill="#692f23"/><path d="M178.9,94.52l0,0S178.93,94.54,178.9,94.52Z" fill="#692f23"/><path d="M214.47,138.67l.23-22.58a1.24,1.24,0,0,0-1.18-1.18c-1.14-.09-35.14,0-35.14,0s-1.39-.07-1.36,1.65,0,22.22,0,22.22a2.61,2.61,0,0,0,2.93,2.69l31.23-.3C214.7,141.14,214.47,138.67,214.47,138.67Zm-2.36-22.49s.38.12.22,1.1a29.1,29.1,0,0,1-1,3.83c-.4.92-.44,1.21-1.53,1.3s-28.77,0-28.77,0-.55-.07-.84-.86-1.33-4.59-1.33-4.59-.25-.8.38-.81Zm.95,21.77s.24,2-3.32,2.09c-1.56,0-29.68.15-29.68.15s-1.59-.07-1.65-1.54c0-1.1-.14-12.5-.1-18.32.28.91.52,1.7.6,1.9a2.67,2.67,0,0,0,2.64,1.59c1.79.08,19.89.17,27.44.11,2,0,2.6,0,3.4-2.12s.78-2.88.88-2.75S213.06,138,213.06,138Z" fill="#692f23"/><path d="M268,229.29a2.12,2.12,0,0,0-.73-1.42s-7.72-6.13-8.78-6.61a5.85,5.85,0,0,0-2.51-.33L240.08,225l1.11-61.42h0l.13-7.08s1.61,0,4.22-.14a7.1,7.1,0,0,0,4.69-1.83,31.71,31.71,0,0,0,2.28-4c.31-.64,2.12-5.34,2.3-6a12,12,0,0,0,.22-3.89c-.17-1-.65-2.91-.84-3.66,0-.1,0-.2-.08-.31a41.62,41.62,0,0,0-4.11-8,29.32,29.32,0,0,1-1.72-4c-.47-.92-.94-1.58-1.61-2.94a23.29,23.29,0,0,1-1.44-5.11,42.13,42.13,0,0,0-2.5-6.66,3.59,3.59,0,0,1-.45-1.87s.5-34,.27-35.42a1.74,1.74,0,0,0-2.43-1.44c-1.19.31-1.22,2-1.22,2s-.94,30.19-.83,30.47c0,0-2.8-3.36-4.11-5.05s-5-7.3-8-10a35.85,35.85,0,0,0-7.71-5.14,4.44,4.44,0,0,0-3-2.07,6.21,6.21,0,0,0-2.76.07c-.41,0-16.34,3.38-17.6,3.09a44,44,0,0,1-7.64-.36s-1.5-.42-2.12-.64a11.14,11.14,0,0,1-3.11-1.8l0,0a3.73,3.73,0,0,1-.59-.9A6.9,6.9,0,0,1,178.44,82a14.47,14.47,0,0,1-3.54.36,16.37,16.37,0,0,1-2.27.94,42.46,42.46,0,0,0-4.38,1.49,1.27,1.27,0,0,0-.66,1.57c0,.07.09.25.18.52-.72.71-3.18,3-3.18,3-3.45,3.43-8,11.66-9.48,15.09a111.66,111.66,0,0,0-4.5,13.39c-.45,2.13-2.6,11.64-2.86,13.42a17.15,17.15,0,0,1-.77,3.14,24,24,0,0,0-1.57,2.44A5.59,5.59,0,0,0,145,141a4.43,4.43,0,0,1,.1,2.06,4.45,4.45,0,0,0-.91,3.63c.16,1.1.21,3.08,6.38,5l1,.28c0,.21-.09.68-.12,1.22s.12,1.88,2.13,2.89l.41.18a14.69,14.69,0,0,0-1.15,3.1,18.44,18.44,0,0,0,.91,9.62,11.29,11.29,0,0,0,5.05,5.89c.85.63,3.63,2.06,5.33,1.92a1.36,1.36,0,0,0,1.25-2.06c-.24-.59-1.93-1.55-2.54-2.37a3.58,3.58,0,0,1-.84-2.54c-.05-1.32.38-1.15.38-1.15a5.42,5.42,0,0,0,2.79,2.58c1.62.63,2.09-.24,2.09-.24.3-.28-.09-1.64-.31-2.09a23.88,23.88,0,0,1-1-4.57c-.09-1.2-.42-4.43-.66-5.72a7.7,7.7,0,0,0-1.08-2.51s2.18-1.64,2-.42a97.37,97.37,0,0,0,1.25,13.94,28.2,28.2,0,0,0,1.49,4.67c.19,1.19.29,3.69.36,5.89.07,2.4.11,7.27.07,9.74a29.34,29.34,0,0,0,.71,7,27.65,27.65,0,0,1,.66,4.72s.12,7.11.19,7.51a10.66,10.66,0,0,1,.07,2.79,18.77,18.77,0,0,0,.21,3.59,11.1,11.1,0,0,0,0,2.41,1.43,1.43,0,0,0,1,.92,8.3,8.3,0,0,0-1.82,1.33,6.41,6.41,0,0,0-2,3.15,11.77,11.77,0,0,0,.22,4.43,6,6,0,0,0,3.79,4.31,30.79,30.79,0,0,0,5.93,1.54c1.54.26,10.39.3,11.89.26a17.87,17.87,0,0,0,4.39-.56,3.56,3.56,0,0,0,2-2.19,5.1,5.1,0,0,0,1.54,1.78c2,1.15,5.18,1,8.29,1h.15l4,.11c-.61.43-1.87,1.4-1.93,2.26a8.44,8.44,0,0,0,.89,4.35,82.21,82.21,0,0,0,7.89,8.39,4.51,4.51,0,0,0,2.48,0s46-15.14,47-15.53a1.72,1.72,0,0,0,1.14-1.17S268.08,230.18,268,229.29ZM242.2,112.07s1.39,4.08,2.25,6.27.22,1.94.22,1.94a5.18,5.18,0,0,0-2.51-1.12Zm0,8.87c2,.31,2.26.87,3.29,1.84a17.4,17.4,0,0,1,3,5.33c.53,1.55,2.25,4,3.22,6.33l1.39,3.33a14.33,14.33,0,0,1,.78,6.36,23.25,23.25,0,0,1-2.25,6.52c-1,1.62-3,4.36-5.33,4.77a26.13,26.13,0,0,1-5.05.28s0-4-.12-4.91l.14,0c1-.25,3.8-.92,4.33-.44s.39.67.17,1,.64.19,1.83-1,1.58-3.36,2.44-5.61a8,8,0,0,0,.33-5.44c-.44-1.22-1-2.64-1.28-3.61a7.74,7.74,0,0,0-1.17-2.78c-.8-1.22-4-2.91-6.08-3.05C241.79,129.82,242.16,120.94,242.16,120.94Zm-2.37-45.51c.06-.89-.22-3.27.89-3.22s.94,1.28.94,1.28l-.44,38.57s-.67,22.4-.94,22.87-1.61.44-1.61.44S239.73,76.32,239.79,75.43Zm.44,61A4.8,4.8,0,0,0,243,135c.53-.69.44-1,0-1.11s-.44.19-.89.56-.56.06-.56.06l.18-3.33c.1-.12.34-.25.93-.17,1,.14,4.3,1.67,5.33,3.5s.14,2.61.39,3.5,1.36,2.33,1.17,3.55a4.83,4.83,0,0,1-1.17,2.28c-.28.42.19,1.55-.11,2.28a4.55,4.55,0,0,1-.78,1.22,3.12,3.12,0,0,1-1.94,2.28c-1.64.56-5.55.5-7,.39a10.86,10.86,0,0,1-3.44-1.11c-.75-.31-1.44-1.19-1.11-1.83s1.75.68,3.22,1a6.88,6.88,0,0,0,2.08.11c.47,0,3.62-.08,4.94,0s1.12-.65.61-1a6.81,6.81,0,0,0-3.66-.14,8.81,8.81,0,0,1-5.36-.39,3.52,3.52,0,0,1-2.55-2.22c-.47-1.3.5-1.14.78-.94l.07,0c.27.1,1.26.46,1.57.61a5.53,5.53,0,0,0,3.44,1,6.84,6.84,0,0,0,3.44-.64,11.8,11.8,0,0,1,2.91-.11c.68,0,.8-.26.39-.83s-1.69-.51-2.41-.47-2.12.76-3,.89a5.06,5.06,0,0,1-3.25-.36,11.48,11.48,0,0,0-2-.89.8.8,0,0,0-.33-.06,2.36,2.36,0,0,1-1.5-.86c-.47-.78-.43-1.43,0-1.8a.61.61,0,0,1,.67.08,10.36,10.36,0,0,0,3.64,1c2,.26,6.24-.85,7-.94s1.75,0,2.11-.11.36-.82,0-1.08-1.6.35-2.86.5a44,44,0,0,1-7.33.31,4.6,4.6,0,0,1-2.45-.69,2.46,2.46,0,0,1-.54-.52c-.64-.89-.26-1.57.78-1.93S239,136.74,240.23,136.43Zm9.67,95.14c.33.62-.9,1-1,1.09s-12.94,3.68-13.52,3.9-2.31.67-3,.14-3.1-3.35-3.1-3.35-.95-.94-.73-1.25,6.66-2.44,7.31-2.64c0,.58,0,.93,0,1,.06,1.47.32,2.15,2.34,2.06C240,232.47,240,230,240,230l0-1.64c.71-.24,3.18-.92,4.14-1.12,1.47-.31,1.9.16,1.9.16A42.19,42.19,0,0,1,249.9,231.57Zm-2.52-5.25c.71-.28,8.66-2.08,9.33-2.14s4.07,2.66,4.43,3.58-.67,1.13-.67,1.13-7.78,2.59-8.67,2.59a2.82,2.82,0,0,1-1.13-.24c-.37-.44-1-1.16-1.47-1.85a12.91,12.91,0,0,0-2.28-2.17C246.65,227,246.66,226.6,247.38,226.32Zm-15.61,11.3c-1.28.43-9.91,3.48-10.81,3.69s-1,0-1.59-.45-4.18-3.85-4.18-3.85-.33-.42.53-.78S226,233,226.64,232.94a1.34,1.34,0,0,1,1.1.26,33.14,33.14,0,0,0,3.11,3.65ZM225,225.22a5.54,5.54,0,0,0-1.89-4.43,12.05,12.05,0,0,0-.95-.83,6.36,6.36,0,0,0-1.26-1,1.33,1.33,0,0,0,.82-.86c.17-.7-.28-1.59-.17-2.2s.35-1.5.35-1.5.31-3.71.35-4.67.82-4,.73-5.68.26-8.19.35-9.48,0-9.15,0-9.15a31.56,31.56,0,0,1,.33-6c.23-1.09.92-1.46,1.17-4.66h0s1.39-18.86,1.53-20.6a22.62,22.62,0,0,1,.77-4.53c.16-.1,1.43,1.32,1.43,1.32.72.94,2.36,2.86,3.16,3.83s4.5,1.91,5.11,1.94a.3.3,0,0,0,.19,0c-.07,4.06-.14,9-.17,11.07l0,.3s-.85,43.93-1,58.11L224,229.8C225,228.69,225.07,227.16,225,225.22Zm8.09-90.62a3.54,3.54,0,0,1,2.5.83c-1.72-.06-2.89.34-3.27,1.17a4.37,4.37,0,0,0-.06,2.16,2.23,2.23,0,0,0-.78,1.19,21.25,21.25,0,0,0-.42,4.77c.06,2.05,0,3.8,1.11,4.94a7.22,7.22,0,0,0,2.22,1.58s.12-.09-.11-.25a5.61,5.61,0,0,1-2.28-4.27,7.34,7.34,0,0,1,.35-2.89,7.32,7.32,0,0,0,.51,1.36,4.07,4.07,0,0,1,.5,1.67,2.45,2.45,0,0,0,1.55,2.72c1.56.75,2.11,1,2.24,1,0,.61,0,2.53-.09,4.9-.21,0-2.95-.26-4.15-1.16s-3.27-4.36-4.05-5.83a12.16,12.16,0,0,1-1.33-3.61c-.19-1.05.92-4.8,1.39-5.87a20.32,20.32,0,0,1,1.72-2.73A3.47,3.47,0,0,1,233.13,134.6Zm-1.39-4.38c.8-.31,3.8.55,4.77.61a3.28,3.28,0,0,0,1.24-.14c0,1.64,0,3.37-.3,3.58a.85.85,0,0,1-.52.13l0,0s-.53-.14-1.25-.37l0,0h0a14.51,14.51,0,0,1-3.39-1.45C231,131.63,230.93,130.52,231.74,130.21Zm6.41,34c0-4.75.09-11.44.16-12.4.05-.72.31-1,.56-1.07l.55,0a.79.79,0,0,1,.59.76L240,164.74l.06,0c-.23,11.25-.72,28.17-1,42a1.65,1.65,0,0,1-.72.15,2.82,2.82,0,0,1-1-.29c.18-12.4.56-27,.76-37.55h0s0-1.69,0-4v-.79Zm-.21,44a3.92,3.92,0,0,0,1.05,0c-.24,12.29-.43,21.84-.44,22.24,0,1.14-.33,1.25-1,1.2s-.61-.86-.61-.86L237.3,208A1.38,1.38,0,0,0,237.94,208.21ZM218.36,84.85a24.51,24.51,0,0,1,3.54,2.22,34.81,34.81,0,0,1,7.78,7.72c2.53,3.3,2.93,4.28,4.05,5.82.75,1,3.8,4.33,4.22,4.86.09.11-.33,22.15-.33,22.15s0,.62.08,1.47a1.93,1.93,0,0,1-1.13.58c-.94.14-3-.89-4.55-.61s-1.69,1.11-1.72,1.78a2.27,2.27,0,0,0,1.05,1.94s.31.25-.44.67a6.9,6.9,0,0,0-2.05,3.05c-.36,1-.61,2.8-1.28,3.27s-.74,0-.94-.65c-.23-3.15-.7-7.64-.83-8.87a9,9,0,0,1-.09-3.23,17,17,0,0,1,1.65-2.52c.92-1.3,4.05-2.28,5.72-2.78s1.28-.94,1.28-.94-.3-.68-3.31.27c-3.37,1.06-4.07,3.2-4.07,2.61a6.4,6.4,0,0,1,.77-2.9,14.17,14.17,0,0,1,2-2.76c.72-.78,1.23-1.31,1.13-1.44s-1.07.08-2.39,1.25a8.31,8.31,0,0,0-2.71,4.58c-.22,1.33-.64,2.61-.72,2s-.44-6.08-.44-7.22.83-2.16,1.05-3.11.72-5.41.22-5.27-.56,1.17-.5,2.11-.47,3.33-1.28,2.78-2.36-8.48-2.5-9.49-.19-2.58-.55-1.89c-.26.5.09,3.85.41,6.22-.66-.6-3-2.82-3.39-4.35-.45-1.74.31-9.32-.21-10.14,1-.4,1.12-1.29,1.22-2.51s.36-3.16-.86-3.85C218.26,87.66,218.36,86.19,218.36,84.85ZM213,84.23c0-1,.31-1.36.78-1.41.92-.1,2.92.11,3,1.43a28.77,28.77,0,0,1,0,3c-1.4-.25-2.85-.31-3.78-.44C212.94,86.14,213,84.87,213,84.23Zm-.42,4.18c5.4.09,5.24,1,5.24,1a8.51,8.51,0,0,1-.2,2.66c-.33.92-1.06.71-1.06.71s-2.21,0-2.86-.1-2-.08-2.5-.6-.64-1.14-.48-2.5S212.37,88.41,212.56,88.41Zm-12.63.08c.34-2.64,1-3.43,1.74-4a11.77,11.77,0,0,1,4.54-2.23,13.61,13.61,0,0,1,5.35-.16,2.18,2.18,0,0,0-.19.74c0,.26,0,3.21,0,3.8-1,0-1.49.81-1.76,1.56a7.45,7.45,0,0,0-.19,3.91A4.15,4.15,0,0,0,211.17,94s-.49,3.05-.59,4.25-.17,2.27-1.22,2.82-8.51.73-8.51.73h-1C199.76,96.71,199.82,89.32,199.93,88.49Zm-.6-2.67a18.07,18.07,0,0,0-.71,4.06c0,.5,0,1.3,0,2.28a42.91,42.91,0,0,1-5-1.74Zm-7.69,13,.09,0c-1.32.72-3.39,1.61-4.21,1.95a35.39,35.39,0,0,1-.34-4.43c0-.27,0-.56,0-.87C187.75,95.93,190.86,98.36,191.64,98.8Zm-3.3-4.13,4.2-3.38a40.64,40.64,0,0,0,5.78,2.15,37.89,37.89,0,0,1-5.17,4.5A21.77,21.77,0,0,1,188.33,94.67Zm4.77,4.77a34.68,34.68,0,0,0,5.17,1.64l-.63.69-9,0A38.51,38.51,0,0,0,193.11,99.45Zm1.31-.92a25.5,25.5,0,0,0,4.28-3.61c.06,1.58.12,3.31.17,4.92A18.74,18.74,0,0,1,194.42,98.53Zm1.08-13a21.21,21.21,0,0,0,3-.33c-1.14.81-2.85,2.21-3.31,2.56s-1.8,1.41-2.67,2.13l-.09,0a28.7,28.7,0,0,1-3.26-2.65,22,22,0,0,1-1.72-1.74C189.77,85.6,193.82,85.52,195.5,85.52Zm-8.74,1s1.62,1.53,4.76,4.16l-4.33,3.45c-.09-2.75-.5-6.13-.55-6.93S186.76,86.53,186.76,86.53ZM174.7,84.47l2.62-1c.95-.4,1.73-.69,2-.8.68.31,1.79.82,2.68,1.19.28.14,1.18.48,2,.79a1.85,1.85,0,0,1,1.14.87,5.54,5.54,0,0,1,.51,2.73c0,1.54.4,8.78.64,11.44a18.34,18.34,0,0,0,.27,2.11l-1.45,0c-1.46-.07-4.07-.35-5-1.64-1.55-2.19-1.46-3.55-1.46-3.55.73-.28.39-2.29.39-2.29a34,34,0,0,0-1.2-4.19c-.37-.58-.61-1-1.62-.93C176.18,88.91,174.58,84.52,174.7,84.47Zm2.41,10.18c-.28.38-1.17.84-2.89,1.22s-2.92.67-3.31-.1c0,0-1.19-2.17-1-3.1a1.53,1.53,0,0,1,.63-.72,5,5,0,0,1,1.48-.59c1.31-.37,3-.7,3-.7s1.17-.29,1.5.57S177.58,94,177.11,94.65Zm-5.58-10c.91-.25,1.12.33,1.32.66s1.35,3.28,1.62,4.07a16,16,0,0,0-3.81,1,21,21,0,0,1-1.51-3.92C169,85.7,169.54,85.22,171.53,84.68Zm-21,41c.14.58,1.48,2,1.32,1.39a28.3,28.3,0,0,1,.31-9.86,96.53,96.53,0,0,1,9.06-20.53c3.76-6,7.08-8.12,7.08-8.12a23.93,23.93,0,0,0,.94,2.34l0,0a2.77,2.77,0,0,0-.82.87,2.94,2.94,0,0,0-.18,1.79c.24.87,1.53,3.94,1.53,3.94s-.28,7.3-.49,10.74-1.22,5.16-1.67,5.4-1.48-4.18-1.67-4.15a6.12,6.12,0,0,0-.28,3.21,18.71,18.71,0,0,0,1.6,4.71c.56,1.22-.31,12.1-.8,14.71s.07,5.77-3.87,6.31-11.5-1.31-12.13-1.6-1.45-.35-1.85-1.57S150.41,125.1,150.55,125.67Zm14.12,37.09a15,15,0,0,0,1.32,5.89c.81,2,.54,1.83.52,1.81h0c-1.5.87-3.42-2.53-3.66-3s-.37-2-.91-1.78-1,1.85-1,4.25.82,2.86,1.88,3.94,2.07,1.39,1.43,1.78-1.85.12-2.93-.49-3.36-2.28-3.76-3.52-.85-2.82-1.39-3.28-.82-.23-.42.28a4,4,0,0,1,.49,2.06c0,.47.52,1.36.35,1.25a7.92,7.92,0,0,1-1.43-2.16,16.39,16.39,0,0,1-1.46-7.81,24.19,24.19,0,0,1,1.51-5.42,20.5,20.5,0,0,0,7.55-.14,7.25,7.25,0,0,0,.83,1.21C164.26,158.39,164.79,161.26,164.67,162.76Zm.91-8.54a10.39,10.39,0,0,1-3.29,1.29,17.32,17.32,0,0,1-7.44-.21,2.1,2.1,0,0,1-1.81-2,4.77,4.77,0,0,1,0-1,20.39,20.39,0,0,0,9-.39,24.34,24.34,0,0,0,3.49-1.12S165.94,153.79,165.57,154.22Zm.59-5.37c-2.69,2.07-8.77,3-12.13,2.58-6.07-.75-7.88-3.12-8.53-4.3-.94-1.71.78-3.84,1.35-3.83s2,1.45,4.6,1.6,3-.47,2.75-.73-.19.33-3.59-.49-4-2.39-4.22-3.94a4.19,4.19,0,0,1,1.12-3,3.74,3.74,0,0,0,1.39,1c.94.4,7,2.28,10.67,2.16s5.73-.68,6.2-.24.51,1.71.31,2.89a2.82,2.82,0,0,0,0,1.6,12.86,12.86,0,0,1,.59,2.82A3.07,3.07,0,0,1,166.16,148.85Zm1.1-5.39c0-.72.49-1.63.57-3.15a4.81,4.81,0,0,0-.8-2.73c-.26-.73.75-3.68,1.12-6.33s.9-15.6.9-15.6c1.2-2.86,1.8-7.88,2.06-9.93s.18-7.21.46-7.71,1.46-.7,3-1c.85-.18,2.42-.51,2.53-.18s1.75,4.18,2.58,4.88c1.35,1.13,4.95,1.27,6.87,1.29s15.84,0,19.59-.21,3.91-.33,5-1.45c.82-.82,1-6.67,1.2-7.22.14-.27,2.37-.11,2.37-.11s1.9-.06,1.91,1.07-.1,5.67,0,7.45c.12,3.65,1.16,4.25,2.17,5.28a18.27,18.27,0,0,1,3.27,4.26c.42,1.9,1.08,4.76,1.14,5.84.08,1.42.39,4.61.39,4.61,0,2,.14,4.46.19,5.25.11,1.65,1.54,10.45,1.5,14.13,0,.65-.09,2.95-1.55,3.55-.59.24-5.24,2.6-18.65,3.3s-32.93-1.92-34.06-2.13-2.43-.27-3.12-1.23A4.63,4.63,0,0,1,167.27,143.47Zm57,6.85c-1.29.91-5.87,1.83-8.51,2.41a171.94,171.94,0,0,1-20.95,1.39c-6-.09-24.12-1.59-25.48-2.51s-2.06-1.74-1.29-2.93,1.85-.61,2.68-.42,15,1.65,20.74,1.89a140,140,0,0,0,23.81-1,44.7,44.7,0,0,0,8.82-2.37c.77-.23,1,.62,1,.62S225.6,149.41,224.31,150.32Zm-53.11,41.33c-.19-1.35-.41-8.07-.11-9.15a2.69,2.69,0,0,1,1.13-1.54c.26-.3-.26-.41-.64-1.13a23.38,23.38,0,0,1-1.24-4.35,8.21,8.21,0,0,1-.11-.92s-1-3.57-1.24-4.67a58.6,58.6,0,0,1-1.12-7.08c0-1.53-.37-5.3-.17-7.29s1-1.55,2.09-1.5c.86,0,4.37.47,9,1,3.38.37,16,.92,23.11.78a92.91,92.91,0,0,0,13.38-1.3s6.79-1.39,7.67-1.74,2-.59,2.13.66-1.06,18.07-1.5,19.52a40,40,0,0,1-1.43,4.88,8.86,8.86,0,0,1-1.57,2.75s-.34.35.49.8c.64.35.6,2.71.58,4.29,0,0,.09,6.08-.05,9.24s-.68,10-.73,11.4a34.45,34.45,0,0,1-.52,4.88c-.16.3-.92-.54-2.3-.77s-8.24.84-10.07.8a44.83,44.83,0,0,1-6.73-.42,9,9,0,0,0-2.15-.32s-.53-10.68-.5-11.71-.1-5-.52-5.79a66.8,66.8,0,0,1-1.27-10.77c0-2.27.09-6.3.22-9.72.17-.26-.12-7.08-.12-8.52s-.05-1.78-.38-1.73-.39,4.34-.78,4.37-1.29-2.07-1.81-2.07.21,2.14.63,3.35a28.07,28.07,0,0,1,.65,4.6c.06,4.11-.09,11.3-.09,12.65,0,1.09.06,4.56-.26,7.85a34.71,34.71,0,0,0-.9,6.62c0,2.47.17,10.2-.38,11a2,2,0,0,1-2.09,1c-1,0-10.67-.77-11.47-.8s-3.87,0-3.87,0-3-.14-3.9.45c0,0-.47-9.48-.58-10.91C171.66,197.51,171.38,193,171.19,191.64Zm28.33,20.13a54.41,54.41,0,0,0,5.58.66c2.39.09,8.33-1,9.38-1s4-.42,5.37.7c0,0,1,.44.63,2.34a21,21,0,0,1-.7,2c-.28.63-.5,1-1,.78a5.64,5.64,0,0,0-4.37-2.73c-2.74-.31-9.48,1-9.48,1-3.05.44-4.85.82-5,.56a6,6,0,0,1-1.12-2.65C198.88,212.33,198.7,211.68,199.52,211.77Zm-27.43,1.12c.31-.63,1.64-.89,3-1a38.61,38.61,0,0,1,5.86-.24c1.13.24,8.61.91,9.9,1.15s3-.24,3.37.68a11.29,11.29,0,0,1-.41,1.76c-.24.58-.35,1-2.51.94s-8.05-1.39-10.88-1.67-5.37,1.46-6.14,1.85-1.67.85-1.6.28.87-.68.38-1.67S171.78,213.51,172.09,212.89Zm-1.62,10.18a7.8,7.8,0,0,1,2.39-3.47l2.65-2.46a7,7,0,0,1,4.57-1.25c1.38.16,8.35,1.22,9.48,1.32s3.87.4,4.46,1.39a16.88,16.88,0,0,1,1.12,5.56,18.07,18.07,0,0,1-.07,2.23c-.05.82-.63,1.1-1.53,1.29,0,0-2.57.14-2.9.2-.9.15-10.11.26-10.11.26a27.57,27.57,0,0,1-4.88-.61,26.58,26.58,0,0,1-3-1C169.88,225.22,170.47,223.07,170.47,223.07Zm24.65,7.52c-.1.12-.28,1.14-3.3,1.6a73.43,73.43,0,0,1-7.89.44c-5.84-.09-8.94-1.08-9.7-1.37-.26-.1-4.2-1.46-4.38-4.76l0-.12a7.55,7.55,0,0,0,3,1.79c0,.06,1.89.52,2,.54a22.78,22.78,0,0,0,6.2.86c0,.06,10.81.31,13.76-.64a4.23,4.23,0,0,0,.77-.33l0,0A2.11,2.11,0,0,1,195.12,230.58Zm1.3-9.4a18,18,0,0,1-.8-4.39c0-1.2.05-5,0-5.09s.21-6,.1-7.35-.14-4.57-.14-5.86a39.39,39.39,0,0,1,.8-5.33l.1-.42a18.76,18.76,0,0,1,.67,4.46c.05,2.41,0,12.62,0,13.94s0,5.93.42,6.62a5.34,5.34,0,0,0-.8,1.92C196.65,220.68,196.63,221.34,196.42,221.18Zm.89,4.17a18.17,18.17,0,0,1,.19-3,9.58,9.58,0,0,1,.56-2.65c.45-1.17,2-1.8,2.23-2a13,13,0,0,1,3.28-.87c2.89-.59,7.11-.94,8.51-1.19s4.48.49,5.16,1.22.92,1.81,1.88,2.37a11.62,11.62,0,0,1,3.42,4,2.69,2.69,0,0,1,0,1.93c-.7,1.34-5.31,2.79-8.34,2.95s-14.12.88-16-1.21A2.84,2.84,0,0,1,197.31,225.35Zm2.65,6.46c-1.27-.27-1.91-1.2-2.28-2.92l0-.19h0s0,0,0,0a4.34,4.34,0,0,0,.47.13l.38.11s2,.47,9.9.45,9.17-.5,9.93-.62a20.51,20.51,0,0,0,4-1.46,4.68,4.68,0,0,0,1.09-.83s.41,2.63-1.31,3.79a34.14,34.14,0,0,1-8,2.13S204.05,232.67,200,231.81Zm18,15a.47.47,0,0,1-.56.11c-1.38-1.35-5-5-5.83-5.94a5.61,5.61,0,0,1-1.59-3.37,4.54,4.54,0,0,1,0-.68l8.11,8.49A3.06,3.06,0,0,1,217.92,246.83Zm-5.35-8.17c-.59-.67-1.65-1.56-1.78-2.31s0-1,.41-1.25c.62-.32,2.17-.92,3.24-1.32,1.41-.58,3.39-1,5.8-1.73l15.66-4.88q0,.84,0,1.48c-1.2.43-7.61,2.43-8.15,2.74,0,0-11.61,3.54-12.52,3.85-1.63.56-1.73,1.17-1.42,1.9s4.52,4.57,5.1,5.08a3.22,3.22,0,0,0,2.54.33c.89-.17,39.15-12.6,40.32-13.16s1.21-1.08.95-1.48a35.66,35.66,0,0,0-3.93-3.79c-1-.78-1.7-1.17-2.48-1s-15.64,4-16.24,4.13l0-1.35c2.23-.6,14.65-3.93,15.38-4a5.7,5.7,0,0,1,2.2,0c.47.17,8.37,5.49,9,7.25,0,.08.25.77-1.34,1.28-1,.32-42.25,13.72-43.25,14.14s-2.73.61-3.49.08C218,244.21,213.15,239.33,212.56,238.66Zm52.92-5.55c-1.69.58-43.86,14.2-45.42,14.53a3.37,3.37,0,0,1-1.24,0,1.34,1.34,0,0,1-.1-1.38c.25-.5,1.15-.66,2.1-.81s43.26-13.67,44-13.95a17.18,17.18,0,0,0,2.22-1A2.26,2.26,0,0,1,265.49,233.11Z" fill="#692f23"/><path d="M147.44,44.16s-.67-6.87,1.84-10.9a73.35,73.35,0,0,1,7-8.88s5.53-3.52,6-3.86l5.2-3.52a68.6,68.6,0,0,1,8-4c2.51-.84,7.71-4,12.07-3.18s9.22-.34,9.72,0,1.68.67,4.36,1.17,8.72,1.34,11.06,2,11.06,5.87,11.9,6.54,9.55,10.06,11.4,13.07,8.88,7.71,5.87,26S209.63,82,209.63,82a4.86,4.86,0,0,1-2.18,0c-.76-.21-.81-.64-1-.85l.5-4s9.72-7.38,10.56-8.38,6.37-7.38,7-10.06c0,0,3.74-2.68,4.08-4.25s.45-4.47-.78-5a12,12,0,0,0-2.79-.78,28.06,28.06,0,0,0-8-8c-4.92-3-3.46-2.79-3.46-2.79A36.09,36.09,0,0,1,207.28,39a54.74,54.74,0,0,1-7.6-1.34l-6.93,1.9-5.81,1.34-2.46-12.18a10.94,10.94,0,0,0-1.9,2.46,55.3,55.3,0,0,0-1.34,6.48c-.11,1.12-1,2.12-1.9,1.79a17.83,17.83,0,0,1-5.52-1.18s-7.56.84-10,3.08-4.08,8.38-4.08,8.38-1.84-.22-2.62.89a5.49,5.49,0,0,0-.11,4.58c.56.78,1.56,2.8,2.45,2.8a4.88,4.88,0,0,1,2.13.89S168.73,70,170,70.7s7.93,6.15,9.05,6.7,1.68,1.34,1.68,1.79,1.56,2.91-1.12,3S172,82,172,82s-7.93-2.79-10.5-4.81-9.39-8.27-11.62-11.85-4.69-8.6-3.8-12.18.22-7.15.78-7.38S147.44,44.16,147.44,44.16Z" fill="#df7c3c"/><path d="M183.87,29.33a7,7,0,0,0-1.93,3.86c-.25,2.26-1,5.53-1,5.53a8.94,8.94,0,0,1-3.23.64A5.5,5.5,0,0,1,174.1,38a45.7,45.7,0,0,0-5.23,1.4c-.75.42-5.7,2.43-6.37,4.11s-2.85,5.7-2.85,5.7-2.35.67-2.35.92-1.51,2.18-.5,4.19,1.51,3.6,3.6,4.36S164.59,63,164.84,64s8.13,9.39,8.55,9.64,6.87,4.3,11.31,5.2a38.07,38.07,0,0,0,14,.34,47.62,47.62,0,0,0,9.05-2.68c1.84-.84,8.55-6.45,8.88-6.79s5.11-4.83,5.7-6.59a28.5,28.5,0,0,1,2.18-4.39s3-2.53,3.35-3c.59-.85,1.51-3.77,1.09-4.69a3.85,3.85,0,0,0-2.26-2.18c-.92-.17-1.65-.06-2.07-.57s-2.62-3.2-3.88-4.63a74.37,74.37,0,0,0-6.2-5.2l-1-.61A8.44,8.44,0,0,1,209,39,22.59,22.59,0,0,1,201.89,38c-1.09-.5-3.18.08-3.69.34s-6.12,1.26-6.12,1.26l-5.17,1.31s-.28-1.9-.28-2.15-1.84-8.3-1.84-8.3Z" fill="#f4dbc1"/><path d="M149.29,41.73a20.27,20.27,0,0,0-2.51,5.18c-1.22,3.77-.85,6.49-.27,9.91a37.93,37.93,0,0,0,2,7.29,23.05,23.05,0,0,1,8-24.22V35.28a23.68,23.68,0,0,0-3.18,2.1A21.41,21.41,0,0,0,149.29,41.73Z" fill="#e9b87f"/><path d="M184.54,20.79c-.25.88-.38,1.56-.44,1.88C184.27,22,184.42,21.34,184.54,20.79Z" fill="#e69b5f"/><path d="M184.09,22.67l0,.2A.81.81,0,0,0,184.09,22.67Z" fill="#e69b5f"/><path d="M214.92,17.16a33.92,33.92,0,0,1,4.71,2.31,23.37,23.37,0,0,0-9.44-6.93c-1.81-.69-5.76-1.91-6.31-.95a1.14,1.14,0,0,0-.1.64,8.48,8.48,0,0,0-2.13-.94c-.28-.07-1.85-.62-3.48-1.21A7.12,7.12,0,0,0,195,9.79c-1.32.12-2.52.35-2.52.35s-3.63.07-5.56.26c-10.33,1-15.11,3.44-17.35,4.84A39.88,39.88,0,0,0,165,18.89s-6,3.56-7.54,4.73c-9.67,7.26-9.74,14.81-10.22,17.28A12.6,12.6,0,0,1,158,31.25c.28-.82,2.16-4.75,4.78-5.7a7.1,7.1,0,0,1,2.51-.42c-.62,1.31-1.18,2.34-1.58,3a11.31,11.31,0,0,0-1.17,2.51c-.15.51-.51,1.85-.28,2s1.58-2.81,3.58-5.48c3-4,8.71-8.58,12.46-7a4.7,4.7,0,0,1,2.18,2,5.78,5.78,0,0,1,2.4-3.3c.26-.16,1-.42,1.34-.06.76.7.36,5.66.28,7.32A22.25,22.25,0,0,0,186.33,36a13.17,13.17,0,0,1-.5-6.65c.3-1.58,2.67-11.64,8.9-12.4a8.07,8.07,0,0,1,8.36,4.91,13.31,13.31,0,0,0,0-3.74c-.05-.38-.12-.75-.2-1.09,1.35-.62,2.73-.19,4.29.63a18.84,18.84,0,0,1,7.26,7.61,15.31,15.31,0,0,0-2.85-5.76c-1-1.2-2.2-2.89-2.2-2.89A8.87,8.87,0,0,1,214.92,17.16Z" fill="#e69b5f"/><path d="M177.78,66c0-.45.32-.75,1.14-.75,1.56,0,2.61,1.23,5.58,2.29a15.9,15.9,0,0,0,2,.57,20.15,20.15,0,0,0,3.33.4,25.48,25.48,0,0,0,4.4-.06,15.75,15.75,0,0,0,5.55-1.34,29.9,29.9,0,0,0,4.54-2.42,2.6,2.6,0,0,1,1.07-.42,1.47,1.47,0,0,1,1,.14c.23.13.35.2.41.47a.58.58,0,0,1-.77.56c-.55-.22-.26-.54-.38-.58-.56-.18-1.16.29-1.64.64A34.31,34.31,0,0,1,200,68a14.09,14.09,0,0,1-2.9,1.09,20.23,20.23,0,0,1-4.74.72,22.55,22.55,0,0,1-7.38-1,14,14,0,0,1-3.53-1.61,20.82,20.82,0,0,0-2.18-1.38c-.12,0-.29-.11-.51.16s-.21.54-.43.56A.48.48,0,0,1,177.78,66Z" fill="#692f23"/><path d="M222.41,62.76a.72.72,0,0,0,0,.13l.39-.72A1,1,0,0,0,222.41,62.76Z" fill="#5c211b"/><path d="M173.45,51A6.83,6.83,0,0,1,176,48.74c1.46-.59,4.19-1.25,5.78-.57a7.81,7.81,0,0,1,3.43,3.3c.21.7.48,1.09-.12,1.26a27.57,27.57,0,0,0-3,.35,13.82,13.82,0,0,1-4.31.41C176.34,53.41,173.72,52.84,173.45,51Z" fill="#fff"/><path d="M175.85,49.94s-.13,1.79.72,2.55a4.7,4.7,0,0,0,3.08.91,2.78,2.78,0,0,0,2.3-.9c.38-.65,1.14-2.63-.22-3.68a4.6,4.6,0,0,0-3.65-.87A2.67,2.67,0,0,0,175.85,49.94Z" fill="#88cceb"/><path d="M186,52.1c-.06-.14-.53-.91-.69-1.17a10.1,10.1,0,0,0-1.81-2,8.31,8.31,0,0,0-1.65-1,5,5,0,0,0-2-.38,12.77,12.77,0,0,0-2.48.11l-.39.09c-.21.06-.37.11-.47.15a8.67,8.67,0,0,0-1.73.77,7,7,0,0,0-.81.6,5.37,5.37,0,0,0-.6.56,3.13,3.13,0,0,0-.78,1.27,3.7,3.7,0,0,0,1.84,1.86,6,6,0,0,0,2.56.65,15.56,15.56,0,0,0,3.44.05,12.58,12.58,0,0,0,2.27-.44c.36-.09,1.05-.24,1.15-.25,1.16-.12,1.66.14,2-.17A.68.68,0,0,0,186,52.1Zm-2.4.4a12.21,12.21,0,0,0-2.52.45,11.55,11.55,0,0,1-5,0,3.37,3.37,0,0,1-1.28-.57,2.35,2.35,0,0,1-.71-.66c-.12-.19-.32-.7-.17-.88a3.26,3.26,0,0,1,.78-1,3.86,3.86,0,0,1,2.25-1.3c.33,0,1.3-.18,3.32-.24a2.22,2.22,0,0,1,1,.07,8.34,8.34,0,0,1,1.52.92,7,7,0,0,1,1.7,1.7s.66.83.59,1.2S183.7,52.49,183.55,52.5Z" fill="#692f23"/><circle cx="179.35" cy="50.3" r="2.06" transform="translate(95.6 216.68) rotate(-78.95)" fill="#692f23"/><circle cx="177.61" cy="49.57" r="0.73" transform="translate(94.91 214.38) rotate(-78.95)" fill="#fff"/><path d="M182.88,49.67a2.43,2.43,0,0,0-1.45-1.54,2.39,2.39,0,0,0-1.22,0,1.26,1.26,0,0,0-.44.16,5.53,5.53,0,0,0,.83.41,1.32,1.32,0,0,1,.59.09,1.49,1.49,0,0,1,.95,1.26,3.59,3.59,0,0,1-.09,1.37,2.48,2.48,0,0,1-.87,1.19,3.77,3.77,0,0,1-2.65.39,2.51,2.51,0,0,1-1.45-.8,2.34,2.34,0,0,1-.65-1.41,2.69,2.69,0,0,1,.13-1.28,1.2,1.2,0,0,1,.34-.56,1.52,1.52,0,0,1,1.25-.28c.12,0,1.85-.59-.93-.42a3.52,3.52,0,0,0-.81.33,2.9,2.9,0,0,0-.64,1.93,2.61,2.61,0,0,0,1.34,2.52c1.28.77,4.75.09,5.15-.41l.12-.15h0A3.8,3.8,0,0,0,182.88,49.67Z" fill="#692f23"/><path d="M211.11,51.13a6.83,6.83,0,0,0-2.53-2.33c-1.45-.62-4.17-1.33-5.77-.67a7.81,7.81,0,0,0-3.49,3.24c-.22.69-.5,1.09.1,1.26a27.57,27.57,0,0,1,3,.4,13.82,13.82,0,0,0,4.3.49C208.18,53.46,210.81,52.94,211.11,51.13Z" fill="#fff"/><path d="M208.73,50s.1,1.79-.77,2.54a4.7,4.7,0,0,1-3.1.86,2.78,2.78,0,0,1-2.29-.94c-.37-.65-1.09-2.65.29-3.67a4.6,4.6,0,0,1,3.67-.8A2.67,2.67,0,0,1,208.73,50Z" fill="#88cceb"/><path d="M198.69,52.69c.33.31.84.06,2,.2.1,0,.79.17,1.15.27a12.58,12.58,0,0,0,2.27.48,15.56,15.56,0,0,0,3.44,0,13.55,13.55,0,0,0,2.16-.36,3.61,3.61,0,0,0,1.57-1c.62-.7.62-1.2.6-1.27a3,3,0,0,0-.66-1.1,5.37,5.37,0,0,0-.59-.57,7,7,0,0,0-.8-.61,8.67,8.67,0,0,0-1.72-.8c-.1,0-.26-.1-.47-.16l-.39-.1a12.77,12.77,0,0,0-2.48-.16,5,5,0,0,0-2,.35,8.31,8.31,0,0,0-1.66,1,10.1,10.1,0,0,0-1.85,2c-.17.26-.65,1-.71,1.16A.68.68,0,0,0,198.69,52.69Zm.8-.59c-.06-.38.61-1.19.61-1.19a7,7,0,0,1,1.73-1.67,8.34,8.34,0,0,1,1.54-.9,2.22,2.22,0,0,1,1,0,19.92,19.92,0,0,1,3.28.3A3.89,3.89,0,0,1,210,49.92a4.12,4.12,0,0,1,.74,1,1.37,1.37,0,0,1-.16.8,1.82,1.82,0,0,1-.65.73,4.1,4.1,0,0,1-1.41.52,11.32,11.32,0,0,1-5-.08,12.21,12.21,0,0,0-2.51-.5C200.84,52.41,199.53,52.35,199.49,52.09Z" fill="#692f23"/><circle cx="205.39" cy="50.29" r="2.06" transform="translate(-5.62 36.6) rotate(-10.05)" fill="#692f23"/><circle cx="203.73" cy="49.69" r="0.73" transform="translate(-5.55 36.31) rotate(-10.05)" fill="#fff"/><path d="M201.86,49.59a2.43,2.43,0,0,1,1.48-1.52,2.39,2.39,0,0,1,1.22.07.71.71,0,0,1,.33.11l.14.06h-.21l-.66.38a1.32,1.32,0,0,0-.59.08,1.49,1.49,0,0,0-1,1.24,3.59,3.59,0,0,0,.06,1.37,2.48,2.48,0,0,0,.85,1.2,3.77,3.77,0,0,0,2.64.43,2.51,2.51,0,0,0,1.47-.78,2.34,2.34,0,0,0,.67-1.4,2.69,2.69,0,0,0-.11-1.28,1.4,1.4,0,0,0-.3-.58.85.85,0,0,0-.58-.3,1,1,0,0,0-.69,0c-.12,0-1.62-.6.93-.41a3.5,3.5,0,0,1,.8.35,2.43,2.43,0,0,1,.6,1.94,2.68,2.68,0,0,1-1.38,2.5,2.88,2.88,0,0,1-2.1.5l-1.88-.13a2.92,2.92,0,0,1-1.17-.87l-.11-.15h0A3.8,3.8,0,0,1,201.86,49.59Z" fill="#692f23"/><path d="M242.92,49.91c-.31-6.27-1.18-9.5-2.57-11.88-1.83-3.12-6.73-10.44-9.18-12.86a72,72,0,0,0-9.79-8.69s-4.62-3.33-7.93-3.88c-.13,0-.93-.15-2-.38-1.55-.33-1.66-.44-2.77-.67a32,32,0,0,0-4.37-.59l-2.13-.37a14.23,14.23,0,0,0-1.54-.66,5.15,5.15,0,0,0-2-.2c-.45,0-1-.27-1.68-.31a19.55,19.55,0,0,0-2.32,0c-1.24.07-1.39.39-2.39.4s-1.05-.15-2.18-.21c-1-.05-2.29.1-3.44,0a15.82,15.82,0,0,0-7,1.27,23.11,23.11,0,0,0-9.93,3.82,36,36,0,0,0-4.5,3.23c-1.4.82-2.82,1.68-4.26,2.6s-2.62,1.71-3.86,2.57a23.92,23.92,0,0,0-6.78,7.18,29.34,29.34,0,0,0-3.69,12.74s0,.35-.1,3.17c-.09.26-.19.52-.26.79a22.06,22.06,0,0,0-.49,10,29.63,29.63,0,0,0,2.79,7.75,35.91,35.91,0,0,0,7,8.15,63.42,63.42,0,0,0,9.61,6.73,37.62,37.62,0,0,0,7.28,2.75,13.92,13.92,0,0,0,1.69.33l-.8.33a2.26,2.26,0,0,1,1.57,1.32c1.11-.39,3.34-1.22,3.34-1.22l1.87-.62a4.74,4.74,0,0,1,1.28.56,13.65,13.65,0,0,0,2.44,1.1,27,27,0,0,0,3,1.07c.3,0,.67.3,6.36.38,2.4,0,6.8-.65,6.75-.22L200.2,87a3.71,3.71,0,0,1,1.87-2.65,29.21,29.21,0,0,1,4.23-1.68,6.11,6.11,0,0,1,3.47.1s.62.25,1.61.54c0,0,1.17-.57,1.83-.82.3-.1.79-.93,1.54-1.22,0,0,1-.21,1.7-.41,2-.54,2.19-.58,3.41-1a21.55,21.55,0,0,0,2.51-1,34.16,34.16,0,0,0,4.14-2.26c6-3.79,8.84-5.68,9.25-6.07a23.58,23.58,0,0,0,6.19-10.48A28,28,0,0,0,242.92,49.91ZM204.3,11.68a20.92,20.92,0,0,1,6.28,1.62,34.79,34.79,0,0,1,12,10c5.44,7.34,5.95,12.53,6.35,14.7a16,16,0,0,1,.05,4,19.35,19.35,0,0,1-1.64,6.31,2.67,2.67,0,0,0-2-.29c-.18,0-.47-.38-1.45-2a16.27,16.27,0,0,0-3.7-3.81c.22,0,.45,0,.71,0a7.77,7.77,0,0,1,3.35.79c.51.26,1.88,1.52,1.93,1.43s-.27-.74-.76-1.24a5.24,5.24,0,0,0-2.45-1.34,23.16,23.16,0,0,0-4.36-.85c-1.59-1.31-3.61-3.28-3.83-3.5a.33.33,0,0,1-.09-.32,5.09,5.09,0,0,0,.63-1.35,14.68,14.68,0,0,0,.61-6.46,16.89,16.89,0,0,0-.47-3.68,16.51,16.51,0,0,0-2.88-5.45,35.09,35.09,0,0,0-5.61-6.62s-1.21-.93-2.93-2C204,11.63,204.24,11.67,204.3,11.68Zm-9.49-1.23a10.24,10.24,0,0,1,2.69-.06,4.63,4.63,0,0,1,2,1.21,11.26,11.26,0,0,1,2.78,4.48,15.68,15.68,0,0,1,.5,7.44c0,.13.06.2.13.15a.53.53,0,0,0,.11-.21,16.08,16.08,0,0,0,.53-4.06,21.39,21.39,0,0,0-.22-2.42,13.52,13.52,0,0,0-2.06-5.21l1.06.46a18.31,18.31,0,0,1,2.85,1.7A29.19,29.19,0,0,1,210,18.56a21.2,21.2,0,0,1,3.86,6,17.34,17.34,0,0,1,1,8.49c-.21,2.38-.74,3.51-1.61,4.22a4.79,4.79,0,0,1-1.79.83,17,17,0,0,1-5.1.55,22,22,0,0,1-5.14-1.24,4.91,4.91,0,0,0,1.33-2.11,6.78,6.78,0,0,0-.18-3.95c-.12-.36-.61-1.5-1-1.7s-.19.3-.17.33a7.69,7.69,0,0,1,.64,4.64A4.62,4.62,0,0,1,200,36.93c-1.72,1.32-2.86.86-6,1.65-3.72.93-5.11,1.62-6.31,1.53-.13,0-.39,0-.44-.61-.08-.92-.21-1.85-.38-2.76-.43-2.33-1.62-5.52-2.05-8.46-.83-5.66,2.54-11.64,3.34-12.76,2.07-2.89,3.12-3.23,4.83-4.44A7.08,7.08,0,0,1,194.81,10.45Zm-28.46,9.21A17.93,17.93,0,0,1,171.94,15c.91-.48,3.76-2.32,4.4-2.12a23.66,23.66,0,0,0-4.56,3.29,34.06,34.06,0,0,0-5.49,6.37,28.74,28.74,0,0,0-3.88,8.07,13.54,13.54,0,0,0-.61,3.92h0c.14,0,1.06-3.56,2.73-6.75a27.44,27.44,0,0,1,2.47-4,40.62,40.62,0,0,1,6.12-6.85c2.27-2,7.16-4.9,9-5.39a24.59,24.59,0,0,1,5.39-.49c.73,0-2.1.75-4.3,3.64a16.81,16.81,0,0,0-3.55,8c-.37,2.46,0,3.19,0,3.19a22.22,22.22,0,0,1,4.41-10.1,13,13,0,0,1,5.2-4.22,11.58,11.58,0,0,1,2.94-.8h0a10.42,10.42,0,0,0-1.27.6,12.92,12.92,0,0,0-5.1,6,19.32,19.32,0,0,0-2.07,8.08,14.32,14.32,0,0,0,0,2.84,7.89,7.89,0,0,0-1.17,1.28,11.19,11.19,0,0,0-1.43,3.89c-.2,1.13-.32,4.31-.5,4.8s-1.34.64-2.74.67c-.71,0-2,.1-2.29-.65a4.3,4.3,0,0,0,1.25-1.51,9.08,9.08,0,0,0,.49-2.63,23.73,23.73,0,0,1-1.16,2.14,4.6,4.6,0,0,1-2.57,1.59c-.86.24-2.91.57-4.22.92a16.67,16.67,0,0,0-5.32,2.14c-1.2.78-2.86,3.22-3.7,5.11a1.69,1.69,0,0,1-2.08-.4,5.9,5.9,0,0,1-1.2-3.48,25.4,25.4,0,0,1-.18-6c.19-2.68,1.36-4.94,3.11-8.27C162,24.05,164.75,21.7,166.35,19.67Zm-18.27,20c.07-1.79.69-3.17,1.62-5.61a23,23,0,0,1,7.38-9.6,63.8,63.8,0,0,1,8-5.15,49.11,49.11,0,0,0-5.67,7.19c-2.35,4.36-3.11,7-3.25,8-1.79.8-5.57,3.84-8.22,8.41A14.56,14.56,0,0,1,148.08,39.71ZM168.29,80.1a36.39,36.39,0,0,1-6-3.33,34.84,34.84,0,0,1-9.92-8.7,26.54,26.54,0,0,1-4.64-7.94,21.76,21.76,0,0,1-1.28-7.48,18.71,18.71,0,0,1,5.07-12.6,23.4,23.4,0,0,1,4.43-3.9,28.58,28.58,0,0,0-.08,3,21.73,21.73,0,0,0,.68,5,4.24,4.24,0,0,0,.23.74,14,14,0,0,0-3.23,4.53,21,21,0,0,0-1.61,7.82,41.47,41.47,0,0,0,.41,4.52c.24,1.53,1,5,1.39,5.29s-1.06-7-.2-11.8,1.9-6.38,2.61-7.26a10.59,10.59,0,0,1,1.43-1.51,1.82,1.82,0,0,0,.2.18,2.87,2.87,0,0,0,2.09.61,7.74,7.74,0,0,0-.5,1.81c0,.08-.08.27-.21.28h-.4a2.68,2.68,0,0,0-.8.16A3,3,0,0,0,156.37,51c-.88,1.68.07,4.2,1.33,5.73a1.15,1.15,0,0,1,.16.58c0,.74,0,1.72-.1,3a14.37,14.37,0,0,0,.4,4.46,15.37,15.37,0,0,0,1.74,3.74,36.47,36.47,0,0,0,3.42,4.85c3.44,4.17,3.59,4.41,5.92,6.42C169.9,80.35,169.14,80.41,168.29,80.1Zm11.69.68a1.31,1.31,0,0,1-.93.94,9.21,9.21,0,0,1-1.25.3,22.76,22.76,0,0,1-2.71,0,14.67,14.67,0,0,1-1.9-.43A4.62,4.62,0,0,1,172,81a19.38,19.38,0,0,1-3.21-3c-4.22-4.66-7-7.62-9-11.54-.8-1.54-1.13-4.11-1-7.89,0-.69.13-.58.14-.62a5.9,5.9,0,0,0,2.21,1.16s1.51,2.7,2.11,3.68a66.68,66.68,0,0,0,5.64,7.41,55.27,55.27,0,0,0,10,7.46,2,2,0,0,1,.87,1.17A7.12,7.12,0,0,1,180,80.79ZM181.09,79s0-.52.28-.36c.6.18,1.37.51,2,.66l-1.89,1.49C181.21,79.54,181.09,79,181.09,79Zm3,4A6.48,6.48,0,0,1,182,81.6s2.75-2,2.78-2l2.52,4.34A9.58,9.58,0,0,1,184.12,83Zm4.16.55c-.13-.26-1.46-2.74-2-3.84a23.14,23.14,0,0,0,4.72.33C190.55,80.74,188.43,83.86,188.29,83.58Zm3,.71c-.73,0-1.38-.08-2-.14.84-.91,2.7-3.87,2.89-3.84s2.88,2.94,3.67,3.77A30.08,30.08,0,0,1,191.29,84.29Zm5.3-.91a30.39,30.39,0,0,1-3.29-3.28c1.14,0,2.13,0,2.92-.08,1.19-.09,2-.24,2.9-.37C198.52,80.49,196.87,83.36,196.59,83.38Zm4.82-.42a39.82,39.82,0,0,1-4,.92c.66-.67,2.62-4.31,3-4.39s2.3,2.31,2.74,2.81A14.6,14.6,0,0,1,201.41,83Zm4.05-2a4.07,4.07,0,0,1-1.44.84,5.8,5.8,0,0,1-1.1-1.16c-.43-.5-1-1.14-1.26-1.47a11.06,11.06,0,0,0,3.89-1.34ZM203,77.79a33.76,33.76,0,0,1-11.23,1.51,31.17,31.17,0,0,1-6.09-.45,24.14,24.14,0,0,1-10.45-4.58,40.21,40.21,0,0,1-6.59-6.09,45.6,45.6,0,0,1-6.57-9.89l-1.49-.42a5.06,5.06,0,0,1-2.59-2,8.73,8.73,0,0,1-.88-1.54,4.17,4.17,0,0,1-.2-2.46,2.4,2.4,0,0,1,.78-1.31,1.89,1.89,0,0,1,1.8-.32,3.16,3.16,0,0,0,.55,0,.51.51,0,0,0,.42-.4.55.55,0,0,0,0-.18,19.21,19.21,0,0,1,1.1-3.49c.61-1.84,1.59-3.12,4-4.65s5.51-1.9,7.35-2.51c.44-.15.77-.25,1-.32.05.07.54.87,3.12,1.06,3,.21,4.57-.19,4.53-.73s.29-4.16.57-6a8.33,8.33,0,0,1,1.67-3.47A23.94,23.94,0,0,0,185,33.62a62.65,62.65,0,0,1,1.3,7.3c.05.37.28.42.28.42a3.26,3.26,0,0,0,1-.12c.59-.17,1.14-.31,2-.62,1.74-.6,4.66-1,6.22-1.39a36.22,36.22,0,0,1,4.22-.87c.37,0,4.32,1.06,6,1.24a18.69,18.69,0,0,0,5.51-.28,4.56,4.56,0,0,0,1.78-.73s.85.79,1.71,1.35a31.11,31.11,0,0,1,5.09,3.72c1.25,1.4,4.4,5.65,4.4,5.65,1.1-.61,3.31.12,3.92,2.2.68,2.3-1.42,4.62-1.84,5.08a8.29,8.29,0,0,1-2.51,1.9,31.55,31.55,0,0,1-4.82,7.92,35.16,35.16,0,0,1-7.6,6.65A32.4,32.4,0,0,1,203,77.79Zm7.15,3a9.22,9.22,0,0,1-2.57.52.56.56,0,0,1-.52-.36,4.41,4.41,0,0,1-.23-1.87c.11-1.4.58-2,.83-2.12.43-.28,1.19-.64,1.61-.88a48.08,48.08,0,0,0,7-5,29,29,0,0,0,4.3-4.25c.34-.41.63-.83.91-1.24a32.35,32.35,0,0,1-1.05,4.64,16.47,16.47,0,0,1-2,4.51,12.66,12.66,0,0,1-2,2.49,14.44,14.44,0,0,1-4.07,2.82A10.07,10.07,0,0,1,210.19,80.81Zm27.66-15.73a14.33,14.33,0,0,1-4.5,5.8c-2.68,1.79-6.35,4-7.7,4.75a36.42,36.42,0,0,1-6.24,3.31c-1.37.46-3.6,1.07-5.68,1.69a19.42,19.42,0,0,0,3.4-2.47,16.44,16.44,0,0,0,4.1-6.58,36.15,36.15,0,0,0,1.52-5.36c.24-1.07.37-3,.45-3.18a18.27,18.27,0,0,0,1.63-3.46,10.69,10.69,0,0,0,2.42-1.95c1.83-1.79,2.22-2.62,2.46-4.45a4.59,4.59,0,0,0-1.45-4.24,16.93,16.93,0,0,0,.77-2,29.59,29.59,0,0,0,.79-4.1,20.68,20.68,0,0,0,.21-4.64c-.07-.46-.16-1.45.17-1.23a20.17,20.17,0,0,1,3.79,7,25.51,25.51,0,0,1,.53,4.51,31,31,0,0,1-.17,7,27.75,27.75,0,0,1-.61,3.46,12,12,0,0,1-.86,2.69,9.7,9.7,0,0,1-1,1.64c-.75,1-2.54,2.85-2.93,3.53,0,0,0,0,0,0a12.49,12.49,0,0,0,4.45-4.31A16.85,16.85,0,0,0,235.51,56a26.77,26.77,0,0,0,.13-6.22c-.15-1.37.19-.77.19-.77a53.85,53.85,0,0,1,1.71,7.57C238,59.71,238.46,63.18,237.85,65.08Zm2.49-3.72a11,11,0,0,1-1.1,2.57,26.9,26.9,0,0,0-.45-7.67,46.9,46.9,0,0,0-2.18-8.62c-.7-2-1.59-6-4.28-9.66a52.12,52.12,0,0,1-3.8-6.33c-.38-.75-.78-1.81-1.48-3.28a21.17,21.17,0,0,0-2.77-4.43c-1.38-1.82-2-2.75-2.95-3.76a32.33,32.33,0,0,0-4.82-4.26,22.61,22.61,0,0,0-2.23-1.4c-.32-.38,1.5.15,2.38.61A46.89,46.89,0,0,1,227.23,23a43.52,43.52,0,0,1,8.45,10.4c1.94,3.18,3.54,5.14,4.4,7.49a23.07,23.07,0,0,1,1.42,6.31C241.86,50.86,242.16,56.15,240.34,61.36Z" fill="#692f23"/><path d="M192.39,72.41a24.47,24.47,0,0,0,4.47-.41c.4-.09.7-.2.77-.08s.06.21-.19.4a10.38,10.38,0,0,1-5.18,1.13c-3.12,0-4.4-1.2-4.4-1.2s-.18-.15-.06-.3.28-.06.6,0A12.19,12.19,0,0,0,192.39,72.41Z" fill="#692f23"/><path d="M192.64,60.76a6,6,0,0,0,2.14-.28c.85-.25,1-.32,1.09-.28s-.21,1.12-2.59,1.4a4,4,0,0,1-3.72-1.12s-.39-.53.41-.18A6,6,0,0,0,192.64,60.76Z" fill="#692f23"/><path d="M200.74,42c.53-.22,1.66-.84,5.82-.38a11.75,11.75,0,0,1,5.26,2.53c.57.62.24.68.24.68A28,28,0,0,0,207.22,43a15.92,15.92,0,0,0-4.56-.31,7.45,7.45,0,0,1-2.15.21C200.15,42.81,200.23,42.22,200.74,42Z" fill="#692f23"/><path d="M182.24,42.08c-.53-.22-1.66-.84-5.82-.38a11.75,11.75,0,0,0-5.26,2.53c-.57.62-.24.68-.24.68a28,28,0,0,1,4.85-1.81,15.92,15.92,0,0,1,4.56-.31,7.45,7.45,0,0,0,2.15.21C182.82,42.88,182.75,42.29,182.24,42.08Z" fill="#692f23"/><path d="M233.77,56.05" fill="#692f23"/><path d="M170.2,149" fill="#692f23"/><path d="M82.13,7.58S88.5,5,89.65,4.28A30.18,30.18,0,0,1,99.93,2.13c3.68,0,8.06-1,10.05-.77a6.28,6.28,0,0,1,3.3,1.46s2.3.08,4.22,0,4.83,1.23,5.6,1.46L132.42,7c1.53.46,3.68,2.76,5.68,3.76s12.24,10.74,13.16,13.73,5.37,9,5.83,11,2.61,14-.84,19.26-9.44,13-12.89,14.58-7.29,4.83-8.21,5.37-6.83,2.69-9.67,2.69h-4.37a15.21,15.21,0,0,0-2.92.54c-.38.15-.54-3.76-.54-3.76S108.22,77,102,76.56A78.08,78.08,0,0,1,90.49,74.8s2.34,3.34,1.73,3.87-4.57.61-6.25.38-7.83-2-7.83-2l-3.61-1.73a46.72,46.72,0,0,0-4.3-2.8c-.46-.08-9.36-10.67-10.82-13.35s-2.69-8.9-2.76-13.89a47,47,0,0,1,3.18-16.34c2.07-5.68,7.56-12,10-13.5s8.82-5.06,8.82-5.06Z" fill="#e09c51"/><path d="M96.73,22.59a10.81,10.81,0,0,0-2.27,3.08c-.49,1.27-.78,5.87-1.24,6.56s-1.76.83-2.62.75a7.52,7.52,0,0,1-2.39-1.18c-.12-.06-5.67,1.67-6.33,1.73s-7.62,1.7-8.09,1.81-3.45.75-3.6.81a5.91,5.91,0,0,0-3,3.65,6.62,6.62,0,0,0,.29,4.57,4.74,4.74,0,0,0-1.76,2.22A8.44,8.44,0,0,0,67,51.94c.95,1.12,4.29,2.91,4,2.76s1.29,3.54,4.2,7.68S82,70.84,90.31,74.29s19.77,1.78,20.05,1.76a32.34,32.34,0,0,0,12.43-4.37s6.47-4.75,8.32-6.62,5.58-6.45,6.36-8.29a10.58,10.58,0,0,0,.81-2.24s2.33.23,4-2.82.78-6.59-.6-7.34-4-.2-4.81-.06-2.7-1.58-3.19-3.68S128,33.38,128,33.38a31.52,31.52,0,0,1-6.07-.12c-2.3-.4-6.79-.92-8.49-1.41s-7.28.26-8.37.52-4.89,2.07-5.18,1.81-.14-1.61-.14-2.19S96.73,22.59,96.73,22.59Z" fill="#fbdfcb"/><path d="M91.6,46.37a3.36,3.36,0,0,0-1.15-2.32,4.4,4.4,0,0,0-3.2-1.27c-.84,0-4.39-.31-5,0a13.88,13.88,0,0,0-2.44,2.3c-.67.75-.06,1.27.33,1.48s1.75,1.29,2.74,1.31a30.29,30.29,0,0,0,4.41-.14c.88-.19,2.55-.88,3.18-.9S91.51,46.62,91.6,46.37Z" fill="#fff"/><path d="M88.52,43.17a2.47,2.47,0,0,1,.69,2.13,3.54,3.54,0,0,1-2.65,2.36c-1.27.25-2.79-.49-3-1s-1.12-1.95-.87-2.66S86.84,40.35,88.52,43.17Z" fill="#abd2f0"/><path d="M108.81,46.37A3.36,3.36,0,0,1,110,44.05a4.4,4.4,0,0,1,3.2-1.27,25.22,25.22,0,0,1,4.87.61,9.24,9.24,0,0,1,2.53,1.67c.67.75.06,1.27-.33,1.48a9,9,0,0,1-3,.88c-1,0-3.28.48-4.16.29s-2.55-.88-3.18-.9S108.91,46.62,108.81,46.37Z" fill="#fff"/><path d="M112.75,43.23a2.47,2.47,0,0,0-.69,2.13,3.54,3.54,0,0,0,2.65,2.36c1.27.25,3.09-.15,3.26-.67s.82-2.28.58-3S114.43,40.41,112.75,43.23Z" fill="#abd2f0"/><path d="M58.27,33.87a28.86,28.86,0,0,0,4-4.32c1.21-1.84,4.09-7.08,6.91-9.67a60.52,60.52,0,0,1,4.66-4.26l-2.7,5.87s2-2.65,3.8-3.34a10.53,10.53,0,0,1,2.53-.75,35.64,35.64,0,0,0-2.7,4.78c-.4,1.27-.46,6.91-.4,7.83s.29,2.47.29,2.47.69-6.73,3.17-10.42,3.86-6.79,9.44-9.78,6.68-3.17,7.6-3,0,1.9,0,1.9a58.77,58.77,0,0,0-2.53,5.87,19.4,19.4,0,0,1,3.34-4,34.68,34.68,0,0,1,4.2-3.17s-2.47,7.31-2.47,9.55,1,8.75,1,8.75l1.09,2.88a24.31,24.31,0,0,1,1.61-10.42c2.13-5.18,3.11-10,7.08-11.22a5.73,5.73,0,0,1,7,2.65,24.49,24.49,0,0,1,1.55,4.66s.17-4,.06-4.95,1.27-1.09,2-.86a12.91,12.91,0,0,1,6.85,5.41c2.36,3.86,3.22,10.07,3.22,10.07s1.27-7.77.4-9.26-2.93-4.89-4.55-6.22c0,0-.35-1.5,2.13-1a17,17,0,0,1,6.5,2.24S130.49,9.64,129,8.49,121,3.6,120.65,3.37a27.84,27.84,0,0,0-4.09-.58l-2.65-.12-2.13-1.15L104,2.39l-2.88-.52L91.24,3.6,83.7,7,76.8,11.83,73.58,13,66,19.66s-5.7,7.19-5.87,8.11S58,34,58,34Z" fill="#e9b87f"/><path d="M62,37.09S59.34,45,59.8,51s3.4,13.29,3.91,13.81S61.18,62.7,61,62.59a63.36,63.36,0,0,1-3.57-9.15c-.52-2.36-.81-8.11.35-10.53A21.09,21.09,0,0,1,62,37.09Z" fill="#e9b87f"/><path d="M155.66,113.83c-.33-1.5-5.91-16.49-6.77-17.63-1.58-2-23.33-16.73-23.33-16.73a53.71,53.71,0,0,0-8.21-1.23l-.54-4.45a8.68,8.68,0,0,1-3,1.38,107.13,107.13,0,0,1-11.74,1.38C99.93,76.56,91.57,75,91.57,75l.23,3.84-1.61.23a55.27,55.27,0,0,0-6.52,2.07,73.21,73.21,0,0,0-7.44,4.22c-6,6.54-11.8,8.71-15.79,14.25a30.22,30.22,0,0,0-5.29,17.55c.14,3.44,1.64,6.38,2,9.5,1,8.17,5.64,10.93,13.35,12.31,2.71.48,4.47-3.7,5.35-3.22,1.47.8.94,6.59,1.32,11.34.61,7.6.61,11,0,15s25,2.34,25.36,2.49,10.74.23,11,.31a100,100,0,0,0,10.9-.92c2-.46,12.28-3,13.66-3.15s1.15-1.76,1.38-3.76a5.67,5.67,0,0,0-.69-3.61c0-.31,0-4.2,0-4.2s1.35-3.52.58-5.36,5.19,2,4.88.85c0-.18,3,4.18,5.52-2.12.88-2.18,3.47-4.28,2-10.48-.25-1,1.27-2.12,2-5.12a7,7,0,0,1,.32-2.46C154.44,123.63,155.87,116.39,155.66,113.83Z" fill="#fff"/><path d="M90.19,203.11c-.39.29,2.65,13.12,2.65,13.12s5.87,2.53,10.24,2.19,5.29-2.53,5.29-2.53a13.16,13.16,0,0,0,1.84,1.84c.69.46,11.74-.92,11.74-.92s3.8-1.15,3.8-1.5,2.42-6.22,2.42-6.22.58-5.87.23-6.45S124,204,121.5,204s-6.45.12-8.4-1-3.34-2.07-3.34-2.07-3.57,2.53-6.91,2.88-7,.23-9.67-.81S90.65,202.77,90.19,203.11Z" fill="#d2a274"/><path d="M79.26,214.51s4.72-.46,7,.46a98,98,0,0,0,11,3.11c1.5.23,5.75.81,9-.69s3.45.81,3.45.81l7.71-.92c2-.23,7.6-1.27,9.78-.58s4.83,3.8,5.64,4.6,4.14,5.18,3.45,7.48-3.91,5.29-7.71,5.52-13.12,1.38-16.11.81-3.57-2.3-4.49-5.18l-.92-2.88a25.3,25.3,0,0,1-5.64.92c-2.42,0-12.89,3-16.46,3-.78,0-1.65,0-2.54-.06-3.2-.14-11.12-6.41-11.14-6.72a9.09,9.09,0,0,1,1.48-5.88C74.2,216.46,75.81,215.31,79.26,214.51Z" fill="#efb000"/><path d="M100.09,164.8s10.36.34,12.2.23,9.32-.11,14.39-1.25,8.06-2.39,8.63-.23,1,10.12,0,12.74a13.75,13.75,0,0,0-.69,6c0,1.25.69,12.62-1,14.9s-2.07,4.21-6.56,5.12-5.75,2.16-8.86,1.71-5.18-.34-6.45-1.71a14.17,14.17,0,0,0-2.3-2s-1,2.16-4.49,3-5.75,1.59-10,.11a20,20,0,0,1-6-3s-3.22-4.66-3.91-8.87-.35-12.85-.35-12.85l-2.07-6s-2.47-6.44-.17-8.49S100.09,164.8,100.09,164.8Z" fill="#fd8204"/><path d="M132.43,162.95s.29,6,.35,7.6a31.51,31.51,0,0,1-.12,6.56,41.22,41.22,0,0,0-.63,7.25c.06,1.5.4,8.4-.12,9.9a25.12,25.12,0,0,1-1.27,2.93,8.42,8.42,0,0,1,.17,3c-.29.92,1-.12,1.5-1.21s1.5-1.61,1.78-4.14a93.73,93.73,0,0,0,.4-11.57c-.23-1.27.58-7,.75-7.77s.46-9.55.35-11.51S133.35,160.87,132.43,162.95Z" fill="#e16702"/><ellipse cx="86.32" cy="119.46" rx="4.99" ry="6.02" fill="#fd8204"/><path d="M123.92,164.27s.52,3.86,1,5.58,1.73,6.68,1.44,9.44a67.37,67.37,0,0,0-.63,8.06c0,3.22.35,7.94.29,9.73s.12,3.51-.4,4.78,3.34-2.53,3.34-2.53.29-10.19.46-12.72,1-6.16,1-8.8-1.27-7.65-1.5-10a17.51,17.51,0,0,1,.35-4.83Z" fill="#e16702"/><path d="M115.23,165.3s1.61,7.31,2.42,11,.58,10.36,1.15,13.7.52,5.81.81,8.17.86,5.58.86,5.58,2.88-.12,3.34-.75-.69-11.45-1-13.29.06-6.91-.23-8.8-1.67-10.24-2-11.45a15.75,15.75,0,0,1-.23-4.78C120.46,164.33,115.23,165.3,115.23,165.3Z" fill="#e16702"/><path d="M107.29,165.4s1,6.14,1.27,7.22,1.9,8.13,2.42,10.11,1,10.23,1.09,12.39.69,6.7,2.59,8.13a3.83,3.83,0,0,0,3.51.8,23.82,23.82,0,0,1-1.84-7.27c-.63-4.94-.52-9.94-.92-12s-1.55-11.36-2.65-13.86a15.54,15.54,0,0,1-1-5.63Z" fill="#e16702"/><path d="M101.3,165.36s1,5,1.27,6.56,1.9,8.4,2.24,10.3,1,7.25,1.5,10.36,1.21,6,1.09,7.65a10.37,10.37,0,0,1-.29,2.13l-3.17,1.32s0-.86-.17-3-1.5-8.92-1.84-11.28-1.55-11.57-2-13.35-1.5-9.26-1.15-10.76S101.3,165.36,101.3,165.36Z" fill="#e16702"/><path d="M94.86,164.65s2.7,15.1,3.11,16.19.69,5.58,1.21,8.69,1.5,8.8,1.9,10.47,1.09,3.4.75,3.91-3.11.06-3.11.06a14.77,14.77,0,0,1-2.65-6.39c-.46-3.57-1.21-10.53-1.55-12.95s-3.74-20.74-3.74-20.74A27.53,27.53,0,0,1,94.86,164.65Z" fill="#e16702"/><path d="M85.59,163.1s3.28,12.45,3.86,13.6a14.33,14.33,0,0,1,1.38,4.2c.35,1.9-.23,5.35.46,8.52s1.78,9.61,3.11,12,2.07,2.24,2.07,2.24a50.94,50.94,0,0,1-5.81-2.19c-1.61-.86-3.17-11.22-3.4-13.87s-.06-7.71-.46-8.46-4.26-13.6-3.86-15.15S85.59,163.1,85.59,163.1Z" fill="#e16702"/><path d="M75.94,127.85c0-.18.63-5.12,1.9-7a6.55,6.55,0,0,1,3.51-2.65c.35,0,.75.81,1.78.63s2,.63,4-.69,3.22-1.15,4.49-3.8.81-7,2.36-7.19a2.43,2.43,0,0,1,2.59,2.53c.06,1.32.35,6.62.35,6.62s2.36.58,2.65,1.84a7.1,7.1,0,0,0,1.5,2.59c.35,1.5,1,5.29.06,7.48a6.69,6.69,0,0,1-5.35,4.32,47.11,47.11,0,0,1-11.28.35c-2.36-.4-7-1.73-7.25-1.67S75.83,129.11,75.94,127.85Z" fill="#fbdfcb"/><path d="M116.13,146.57s.87-3,2-4,5.62-3.87,5.62-3.87,2-1.56,3.92-.9,5,1.77,5.71,3.54,2,3.75,1.89,4.62a30.7,30.7,0,0,1-1.79,4.53c-.19.35-3.09,4-5.19,4.29a14.45,14.45,0,0,1-3.21-.14c-.57-.26-1.75-.83-1.56-1.23s1.84-2.6,1.84-2.6-.85-5.76-1.32-5.95a6.89,6.89,0,0,0-2.27-.09c-.21.07-4.44,2.12-4.44,2.12S116.37,147.87,116.13,146.57Z" fill="#fbdfcb"/><path d="M42.8,202.54a39.66,39.66,0,0,0,.69,7.53c.28,1.21,2.8-1.46,3.5-1.12,5.1,2.48,13.9,7.67,13.59,8.82-.48,1.75,15.35-3.29,18.09-4.56s8.12-4.48,8.12-4.48,1.09-6.72,1.51-7.64-.38-2-.61-2.69-3.3-12.74-3.3-12.74l-3.59-1a12.31,12.31,0,0,1-1.46,2c-.26.07-9.18-1.6-9.63-1.6s-5.57-1.56-5.76-1.65-2.17-8.21-2.17-8.21-.42-.57-.57-.57-14.53,7.5-14.53,7.5-3.94,3.85-4,4.06a8.92,8.92,0,0,0-1.6,5.9C41.41,195.53,42.8,202.54,42.8,202.54Z" fill="#efb000"/><path d="M68.16,169.63s.8,1.62,1.57,1.48a19.28,19.28,0,0,0,3.18-1.57,20.93,20.93,0,0,1,4.18-1,13.61,13.61,0,0,1,2.93.63,12.79,12.79,0,0,1,2.3,1c0,.2,1.87,6,1.79,6.73s-.25,1.78-.25,2.61.39,4-.66,4.91S82,186.15,80,186.68s-9.09-1-9.37-1.16-6.65-1.26-7.11-2.11-1.37-9.48-1.35-9.69S67.62,168.56,68.16,169.63Z" fill="#9e9b95"/><path d="M134.35,150.53s7.17,4.72,8.59,6.23,1.89,4.25,2,6.89-1,3.59-2,5.1a6.71,6.71,0,0,1-2,2.08l-3,1.6-2.36,1.13-1,6.51a9,9,0,0,0,3.68-.57c2.22-.76,7.27-2.45,9.44-4.62s4-5.9,5-9.72.38-10-.57-11.51-3.07-6.46-6.7-7.74-3.68-2.93-3.68-2.93-3.29,3-3.87,2.83-2.17.76-2.45,1S133.4,149.12,134.35,150.53Z" fill="#c7c0b1"/><path d="M49.31,195.27a4.09,4.09,0,0,1,.19,4.34c-1.32,2.36-2.6,2-3.59,1.89s-6.28-.09-9.15-2.55a11.12,11.12,0,0,1-4.15-8.31,9.35,9.35,0,0,1,3.3-6.61,33.29,33.29,0,0,1,10.38-5.38,67.3,67.3,0,0,1,13.4-1.89c1.51.09,16.23.76,16.23.76l8.74,1.15s.08,2.25.13,2.82-.14,2.88-.66,2.93-2.93.57-2.93.57-10.38-2-14.72-2S52.1,182.53,47,184.7s-6,4.34-5.57,6.42,1.13,3,2.27,3.3S49.31,195.27,49.31,195.27Z" fill="#c7c0b1"/><path d="M62.53,218.49s-2,2.6-1.23,4.15,1.49,2.52,2.27,2.6a5.53,5.53,0,0,0,2.55-.47,2,2,0,0,0,1.13-1.65c0-.92,0-1.68-.09-2.69a3.47,3.47,0,0,0-.85-2.31C65.9,217.82,63.47,217.45,62.53,218.49Z" fill="#5e5e5e"/><path d="M88.29,201.07A8.39,8.39,0,0,0,87,205.62c.09,2.49-.87,4.84.06,5.51a6.28,6.28,0,0,0,3.4,1.2c1.26,0,2.15.33,2-.38S89.93,201.58,90,201.47,88.29,200.38,88.29,201.07Z" fill="#5e5e5e"/><ellipse cx="85.75" cy="144.23" rx="4.3" ry="5.18" transform="translate(-22.54 16.06) rotate(-9.46)" fill="#fd8204"/><path d="M135.51,85.46A4.53,4.53,0,0,1,132,89.37c-2.43.4-4.79-1.64-5.28-4.57a6.05,6.05,0,0,1,.44-3.53C127.77,80,135.63,84.79,135.51,85.46Z" fill="#fd8204"/><path d="M123.8,129.75a5.21,5.21,0,0,1-2.75-5.12,5.29,5.29,0,0,1,5.9-4.61,5.45,5.45,0,0,1,3.26,1.54C131.3,122.64,124.41,130.08,123.8,129.75Z" fill="#fd8204"/><ellipse cx="105.47" cy="128.78" rx="4.48" ry="5.4" fill="#fd8204"/><ellipse cx="118.45" cy="102.99" rx="4.99" ry="6.02" fill="#fd8204"/><ellipse cx="110.95" cy="148.16" rx="4.19" ry="5.05" transform="translate(-32.55 31.24) rotate(-14)" fill="#fd8204"/><path d="M154.33,125.47a5,5,0,0,1-3,4.84c-.37.13-5.24-6.2-5-6.81a4.26,4.26,0,0,1,3.86-3.08C152.45,120.43,154.33,122.69,154.33,125.47Z" fill="#fd8204"/><path d="M149,142.65c0,2.3-.85,3.59-2.59,4.2-.26.09-6.23-2.56-4.47-4.32s-.19-3.45.43-4a3.71,3.71,0,0,1,2.44-.95C147.17,137.6,149,139.86,149,142.65Z" fill="#fd8204"/><ellipse cx="73.84" cy="105.47" rx="4.66" ry="5.62" fill="#fd8204"/><ellipse cx="90.45" cy="84.33" rx="5.62" ry="4.66" transform="translate(-25.29 127.89) rotate(-63.62)" fill="#fd8204"/><path d="M63.39,133.4a6.49,6.49,0,0,1-1.79,2.23c-1.47,1.15-5.07-8.49-4.07-9.07a4.41,4.41,0,0,1,4.18-.26C64,127.44,64.77,130.62,63.39,133.4Z" fill="#fd8204"/><path d="M91.22,47.2c.3,0,1.06.2,1.28,0s.57-.46.16-1.24a9.41,9.41,0,0,0-2.73-3,6.66,6.66,0,0,0-4.63-1.35c-1.24,0-3.46.2-4.44.83a6.6,6.6,0,0,0-2.05,2.66,1.12,1.12,0,0,0,.23,1h0a4,4,0,0,0,.84.78A15.67,15.67,0,0,0,83,48.16a14.54,14.54,0,0,0,5.25-.06C89.42,47.86,90.92,47.2,91.22,47.2ZM89,46.71a2.13,2.13,0,0,0,.56-1.39,3.34,3.34,0,0,0-.43-2.09h0a6.13,6.13,0,0,1,2.13,2.24c.33.7.34,1.09.16,1.18s-.8-.32-1.24-.24a4,4,0,0,0-1.05.42C89.05,46.84,89,46.82,89,46.71Zm-5.59.72a3.57,3.57,0,0,1-1.15-.18,9,9,0,0,1-1.75-1.19h0a.79.79,0,0,1-.22-.54.1.1,0,0,0,0,0c0-.27.43-.89.91-1.48a3.39,3.39,0,0,1,1.22-.86c.43-.19.61-.13.55,0l0,0a3.11,3.11,0,0,0-.49,1.8,2.9,2.9,0,0,0,1.18,2.21S83.72,47.4,83.41,47.43Zm4.18-.7a3.43,3.43,0,0,1-2.67.13,2.2,2.2,0,0,1-1.29-1.47,2.45,2.45,0,0,1,.19-1.85.81.81,0,0,1,.37-.29.47.47,0,0,1,.25,0c.36.16.25.32.23.39a2.21,2.21,0,0,0,0,1.49,1.63,1.63,0,0,0,1.39.93,1.34,1.34,0,0,0,1.39-1,1.52,1.52,0,0,0-.13-1,.52.52,0,0,1,.66-.66c.62.2.73,1.06.7,1.54A1.84,1.84,0,0,1,87.6,46.73Z" fill="#692f23"/><path d="M121.67,46.35c.33-.4-.08-.75-.41-1.15A27.38,27.38,0,0,0,119,43.12a7,7,0,0,0-2.57-1,8.92,8.92,0,0,0-5.55.13c-1.36.61-2.55,3-2.64,3.65a2,2,0,0,0,0,1c.14.64.81.46.83.47a7,7,0,0,1,1.87.18c.59.15,3,.62,3.59.78a9.23,9.23,0,0,0,3.82-.19A6.37,6.37,0,0,0,121.67,46.35Zm-8.84.92c-.56-.14-2.17-.82-2.72-.9a1.18,1.18,0,0,0-.63.07h0c-.33,0-.18-.47-.18-.47l.24-.53a5.63,5.63,0,0,1,1.55-1.67,5.35,5.35,0,0,1,1.45-.77c-.05.1-.29.32-.38.5a3.28,3.28,0,0,0-.31,1.6,2.9,2.9,0,0,0,1.07,2.18Zm5-2.12a2.23,2.23,0,0,1-1.46,2,2.54,2.54,0,0,1-3.12-1,2.15,2.15,0,0,1-.09-2.29s.15-.25.35-.26a.9.9,0,0,1,.65.2c.16.15,0,.45-.11.82a1.2,1.2,0,0,0,1,1.52,1.31,1.31,0,0,0,1.67-1c0-.35.08-.9.53-.9S117.93,44.41,117.83,45.16Zm2.71.89a14.49,14.49,0,0,1-2.22,1.16.22.22,0,0,1-.12,0c-.2-.1.34-.46.58-1.53a3.21,3.21,0,0,0-.06-1.8c.47.33,1.35,1,1.78,1.35S120.7,45.86,120.54,46Z" fill="#692f23"/><path d="M97.58,56a6.76,6.76,0,0,0,4.31,1.09,3,3,0,0,0,2.61-1.26c.52-.61,0-.5,0-.5s-.5.36-3.28.42a7.48,7.48,0,0,1-3.91-.67C96.47,54.59,96.89,55.41,97.58,56Z" fill="#692f23"/><path d="M116.45,60.12c-.59-.08-5.42,2.26-5.69,2.34s-3.41,1.65-10,1.36-10.38-1.69-11-2A6.28,6.28,0,0,0,87.21,61,4,4,0,0,0,85.43,62a.39.39,0,0,0,0,.56c1.36.86,1.23-.65,2-.59a25.86,25.86,0,0,1,5,1.9,27.49,27.49,0,0,0,8.43,1.78c3.24,0,6-.08,8.64-1.23,2.82-1.21,5.73-3.18,6-3.24a1.45,1.45,0,0,1,1.05.29c.4.27.65.31.86-.27S117,60.2,116.45,60.12Z" fill="#692f23"/><path d="M108.36,67.18a30.48,30.48,0,0,1-6.84.65c-4-.15-5.94-.57-6.25-.46s0,.31,0,.31,1,1.55,6.38,1.57S108.52,67.27,108.36,67.18Z" fill="#692f23"/><path d="M114,36.93a18.71,18.71,0,0,1,3.51.62,27,27,0,0,1,3.91,1.72c.3.17.86.33.43-.1a9.72,9.72,0,0,0-2.69-2.31,7.89,7.89,0,0,0-5.46-.89s-.6.09-.66.46S113.44,36.83,114,36.93Z" fill="#692f23"/><path d="M84.79,37.42c.55-.13.8-.09.91-.17s.14-.24-.4-.43a5.18,5.18,0,0,0-2.9-.29,8.47,8.47,0,0,0-4.07,2.39s-.53.49-.46.59.3,0,.68-.24,2.79-.8,3.35-1S84.24,37.55,84.79,37.42Z" fill="#692f23"/><circle cx="95.8" cy="79.04" r="0.71" fill="#692f23"/><circle cx="99.9" cy="78.05" r="0.71" fill="#692f23"/><circle cx="103.65" cy="80.39" r="0.71" fill="#692f23"/><circle cx="107.79" cy="78.26" r="0.71" fill="#692f23"/><circle cx="111.84" cy="79.41" r="0.71" fill="#692f23"/><circle cx="115.47" cy="76.77" r="0.71" fill="#692f23"/><circle cx="104.22" cy="84.73" r="0.71" fill="#692f23"/><circle cx="100.07" cy="88.02" r="0.71" fill="#692f23"/><circle cx="105.01" cy="92.3" r="0.71" fill="#692f23"/><circle cx="100.04" cy="96.1" r="0.71" fill="#692f23"/><circle cx="105.01" cy="100.03" r="0.71" fill="#692f23"/><circle cx="109.7" cy="95.55" r="0.71" fill="#692f23"/><circle cx="109.41" cy="103.31" r="0.71" fill="#692f23"/><circle cx="109.6" cy="87.03" r="0.71" fill="#692f23"/><circle cx="83.15" cy="160.06" r="0.79" fill="#692f23"/><circle cx="90.12" cy="155.23" r="0.79" fill="#692f23"/><circle cx="95.76" cy="161.28" r="0.79" fill="#692f23"/><circle cx="101.7" cy="156.72" r="0.79" fill="#692f23"/><circle cx="120.74" cy="161.21" r="0.79" fill="#692f23"/><circle cx="132.77" cy="159.17" r="0.79" fill="#692f23"/><path d="M129.73,182.68c-.42-.27-3.37,1.76-4.56,2.22s-4.56,1.57-4.56,1.57c.19,1,3.8.14,5.44-.42a7.89,7.89,0,0,0,3.1-1.84C130.07,183.53,130.15,183,129.73,182.68Z" fill="#692f23"/><path d="M133.26,149.34v0Z" fill="#692f23"/><circle cx="114" cy="44.48" r="0.82" fill="#fff"/><path d="M115.91,149.8l-4.34,4.44s-.18,1,1.1,1.41a9.23,9.23,0,0,1,3.29,2.56c.08.26.37,1,1.93.1s6.22-6,6.27-6.12,1.75-2.35,1.36-3.87-.94-3-1.51-3.42S118.89,145.57,115.91,149.8Z" fill="#c7c0b1"/><path d="M60.17,217l-11.9-7.65a6.07,6.07,0,0,0-3.89.51c-2.22.94-7.32,2.89-7.53,3s-1.57,1.3-1,2.11a8.55,8.55,0,0,0,2.74,2.84C39.77,218.47,74.8,242,74.8,242a2.92,2.92,0,0,0,1.83,0c.8-.37,8.71-5.27,9.06-5.71s1-1.19.45-1.92-19-13.82-19-13.82Z" fill="#c7c0b1"/><path d="M106.45,163.31l5.65-7.41s2-.51,3,.82-.66,3-1,3.73-46.29,58.77-46.38,58.86-1.2,1.86-.21,3.07,3.54,3.1,2.79,4.46-4.57,3.76-4.57,3.76-6.15-3.54-6.8-3.87S51.25,221,51.25,221A15.32,15.32,0,0,1,54,218c1.06-.66,3.29,0,4.29.14s5.16-.4,6-1.22S106.45,163.31,106.45,163.31Z" fill="#c7c0b1"/><path d="M38.23,217.18,35.81,215s-1.6.83-1.39,1.69a2.92,2.92,0,0,0,1.36,2c.81.47,37.79,25.72,37.79,25.72a3.35,3.35,0,0,0,2,.57c1.1-.1,9.51-5.38,9.51-5.38s1.23-2.85,1.31-3.24-.21-.68-1.46,0-9.15,5.75-9.15,5.75a55.1,55.1,0,0,1-5.12-2.93C69.59,238.32,38.23,217.18,38.23,217.18Z" fill="#c7c0b1"/><circle cx="84.55" cy="44.18" r="0.82" fill="#fff"/><path d="M158,35.64c-.55-1.9-4.6-8.68-4.6-8.68a51.84,51.84,0,0,0-5.12-7c-2.33-2.44-9.8-9.63-12.27-11.47A15.72,15.72,0,0,0,130.35,6l-2.17-.72a41.65,41.65,0,0,1-6.28-1.92c-1.76-.88-5.67-1.88-7.63-1.15-2-1.61-4.87-1.38-5.63-1.34s-2.61.46-3.26.5-4,.34-6.55.27A29.28,29.28,0,0,0,90.64,3a46.88,46.88,0,0,0-8,3.68s-6.59,4-10.23,6.4a40.42,40.42,0,0,0-9,8.35c-1.19,1.76-4,6.44-4,6.44A31.2,31.2,0,0,0,56.84,35,67.07,67.07,0,0,0,56,46.2a43.13,43.13,0,0,0,1.6,8.62,65.55,65.55,0,0,0,2.45,6.68,18.75,18.75,0,0,0,3,4.05c1.49,1.3,4,4.6,5,5.36s4.52,3.56,5.33,4.06,2.91,1,3.33,1.3a24.29,24.29,0,0,0,3.76,1.88c1,.31,4.22.92,4.22.92a20.66,20.66,0,0,0,2.19.6l-2.4.89a20.42,20.42,0,0,0-6.58,3l-.77.6c-.39.34-4.09,3.74-4.75,4.46s-3.82,3.39-4.6,4-3.31,1.87-4.28,2.82a23.81,23.81,0,0,0-4.17,5c-.83,1.7-2,3.1-2.18,3.91a30.18,30.18,0,0,0-1,4.08c0,.8-.83,4.11-1.09,5.55a26.44,26.44,0,0,0-.32,5,8.94,8.94,0,0,0,.92,4.17,18.15,18.15,0,0,1,1.47,3.68c.29.86.75,4.22,1,5.43s.8,2.24,2.64,3.65a6,6,0,0,0,3.54,1.35,5.41,5.41,0,0,0,2.59,2.18,8.39,8.39,0,0,0,3.65.11c.6-.11,2.36-.23,2.36-.23a3.49,3.49,0,0,0,1.77-.58,4,4,0,0,0,1.21-2c.14-.84.27,4.86.31,6.23a.38.38,0,0,0,0,.21s.36,6.36.44,7.24.27,3.14.23,4.25.34,5.25.38,6.09a5,5,0,0,0,.34,2.18c.34.65,1.15.61,1.84,1s1.19,2.46,1.66,4.81l-4.37-1.19c-.71-.19-6.68,2.24-7.17,2.83,0,0-.87-1.72-1.46-1.75s-3.07,1.51-4.39,2.6a26.21,26.21,0,0,0-2.11,2.29l-.67.16a20,20,0,0,0-3.44,1.7c-.5.19-2.05.19-3.59.38a2.78,2.78,0,0,0-2.05,1.14c-8.68,1.48-13.11,4-16.87,7.31a9,9,0,0,0-2.64,9.2,12.85,12.85,0,0,0,5.52,6.94c1.29.71,3.73,1,4,1.7s.26,3.85.61,5.9c.1.58.23,1.17.37,1.72-3,1.16-7.22,2.83-7.54,3.4a3.32,3.32,0,0,0-.3.71c-.35.83-.89,2.15-1,2.52a1.73,1.73,0,0,0,.48,1.76c.55.43,39.88,27.79,39.88,27.79s.72.53,2-.18,9.05-5.83,9.05-5.83a3.74,3.74,0,0,0,1.27-2.19,5.45,5.45,0,0,0,.17-3,9.21,9.21,0,0,0-2.39-2.86h.3s3.1-.4,4.71-.75,4.77-1.32,7.19-1.72,6.9-.69,8.22-1l1.32-.29a8.53,8.53,0,0,0,2.24,5.69c2.41,2.7,8,2,8.91,1.9s6.61.06,9.08-.17,5.92-1,7.53-2.3,3-2.82,2.82-5.63-.17-4-2.76-6.27c0,0-1.72-1.21-2.41-1.61s-1.55-1.72-2.24-2.13a9.33,9.33,0,0,0-2.59-1c-.57-.06-.34-1.15.11-1.44s1.09-2.24,1.55-4.2.29-4.89.63-6a4.44,4.44,0,0,1,.86-2.07h0a7.57,7.57,0,0,0,4.48-5.4c1-4,.69-14.37.69-15.46,0-.1,0-.24,0-.41.46-.18,1.88-.8,2.91-1.2a45.89,45.89,0,0,0,7.49-3.21,16,16,0,0,0,6.53-7.72,28.2,28.2,0,0,0,1.53-11.21,18.16,18.16,0,0,0-1.29-5.29,18.74,18.74,0,0,0-4.53-6.14c.06-.07,1.06-1.17,1.92-1.95s.76-2.82,1.57-3.68,1.65-1.1,2-2.74a9,9,0,0,0-.47-4.81c-.41-.71.63-3.22,1-4.72.42-1.83,1.89-7.8,2-8.58a37.29,37.29,0,0,0,.38-6.48c-.19-1.64-1.34-4.8-1.38-6.29a19.36,19.36,0,0,0-2.17-6.57c-1.24-2.52-3.68-5-5.1-6.64a102.75,102.75,0,0,0-10.14-8.43l-.17-.1c-2.19-1.34-5.42-3.45-6.23-3.84-1-.48-6.09-2.79-6.74-2.93-.28-.28-.68-.84.46-.91a32.57,32.57,0,0,0,8.94-2.36c.24-.11.43-.22.59-.32a47.64,47.64,0,0,0,6.85-3.79c3-2.1,4.83-3.36,6.27-4.22A18.85,18.85,0,0,0,151.82,63s2.1-1.67,4.63-6.81,2.13-10.66,2.3-12.39A32.4,32.4,0,0,0,158,35.64ZM120.14,3.7c1.65.27,6.28,3.68,6.28,3.68a28.86,28.86,0,0,1,6.28,4.26,66.93,66.93,0,0,1,6.52,8.25c1.21,1.81,3.36,8.51,3.36,8.51a39.79,39.79,0,0,1,1.06,7.44c0,3.22.29,4.14-.72,3.59s-4.4-2.76-7-3.22l-.22,0h0a19.59,19.59,0,0,1-3.84-.94A3.71,3.71,0,0,1,129,31.73c-.05-1.13.72-7.57.89-8.94h0s.38-3.79-.31-5.79-3.79-5.48-5.48-7.24a66.91,66.91,0,0,0-8-6.32S116.21,3.06,120.14,3.7ZM96.34,76.55c.87.57,2.49,3.95,2.79,4.69l-.15,0a31.25,31.25,0,0,1-3.09-.85,5,5,0,0,1-2.3-1.57l-.1-.13ZM93,77.7a3.92,3.92,0,0,1-.08-1.83c.5.1,1.17.21,1.93.33Zm16.61,14c-.69.74-4.2,3.44-4.52,3.69a25.64,25.64,0,0,1-4.8-3.2l4.13-3.4.27.12a28,28,0,0,0,5.67,1.82A5.66,5.66,0,0,1,109.6,91.74Zm1.26,0,.11,3.19-.06,2.56a26.57,26.57,0,0,1-4.56-1.26Zm-6.37-4.66c-2.32-1.32-4.25-2.62-5.47-4.45,0,0-.1-.21,0-.31.4.06,1.93.23,3.1.39a22.41,22.41,0,0,0,4.9.07c.67-.12,1.94-.22,3-.31-.63.46-2.52,1.83-2.93,2.24S105.56,86.14,104.5,87.08Zm2.39-8c-.17-.23-1.33-1.44-1.69-1.82,1.09,0,3-.1,4.86-.37-.1.23-.37.86-.51,1.16s-1.62,2.47-1.62,2.47C107.74,80.2,107.09,79.32,106.89,79.05Zm0,2.29c-1,.09-2.12.18-3,.17-1.07,0-2.25,0-3.41-.09.59-.75,3-4.07,3-4.07A27.11,27.11,0,0,1,106.9,81.34ZM100,80.19c-.26-.57-1.83-3-2.2-3.59,1.51.19,3.07.36,4.39.48C101.82,77.7,100,80.19,100,80.19Zm-1.58,4c0-.32.06-.55.06-.55a14.51,14.51,0,0,0,4.8,4.58c-1,.88-3.36,2.63-4.16,3.21a12.41,12.41,0,0,0,0-2C98.88,88.46,98.37,84.5,98.4,84.18ZM99,93c.87.68,3.94,3,4.46,3.31,0,0,.13,0-1,.62-.55.25-2.76,1.28-3,1.42-.22-1.54-.44-4.82-.47-5.34Zm2.51,7.79c-.3-.27-1.71-1.34-1.57-1.44s2.25-1,3.32-1.43a14.67,14.67,0,0,0,1.71-.85l0,0A20.12,20.12,0,0,0,110,99a17.94,17.94,0,0,1-2.5,2.64,9.57,9.57,0,0,1-2.53,1.55A10.62,10.62,0,0,1,101.53,100.8Zm2.48,3.44c-.14,0-1.47-.47-1.55-.52h-.05a4.85,4.85,0,0,1-1.89-1.38,5.6,5.6,0,0,1-.61-1.66,33.54,33.54,0,0,0,4.29,3.27C105,104.52,104.16,104.27,104,104.24Zm1.35,0c.33-.11,2-1.22,2.5-1.53,0,0,3-3,3-3,.1.73.35,3-.18,3.88a4.15,4.15,0,0,1-2.27,1.28,8.78,8.78,0,0,1-2.79-.23C105.25,104.56,105,104.42,105.37,104.29ZM111,89.58A10.74,10.74,0,0,1,106.1,88l-.38-.21.61-.51,5.32-4.36A40,40,0,0,0,111,89.58Zm-2.36-8.39a4.22,4.22,0,0,0,.68-.77,29.46,29.46,0,0,0,1.82-3.33c.1-.33.29-.33.29-.33.52,0,3.32,2.57,3.32,2.57a12.41,12.41,0,0,1-1.72,1A24.81,24.81,0,0,1,108.68,81.19Zm4.37-5,.25-.08c1.24-.42,2.37-.83,3.24-1.15l.27,1.94c.11.85,0,1-.17,1.19a11.36,11.36,0,0,1-1,.78l-.33-.53A7.09,7.09,0,0,0,113.05,76.23Zm-1.92-1.06A39.08,39.08,0,0,1,96,75.11c-5.53-1.31-8.19-2.39-12.42-5.42a36.17,36.17,0,0,1-8.85-9,33.2,33.2,0,0,1-3.11-5.28S71.28,54,71,53.82a16.71,16.71,0,0,1-2.59-1.4A13.64,13.64,0,0,1,66.3,48.8a3.69,3.69,0,0,1,.07-2.13,2.83,2.83,0,0,1,2.34-1.51c-1.23-1.69-.77-5.82-.77-5.82a3,3,0,0,1,.88-2c.84-.73,3-1.34,4.75-1.69S84.85,33.36,86,33.17s1.92-.42,2.11-.42a12.76,12.76,0,0,0,5.63.57s.31,0,.23-1.15,1.34-7.7,2.41-9a24.24,24.24,0,0,0,1.49,5.17c.5,1,1.19,5.67,1.38,6.09s.38.5,1.69,0a68,68,0,0,1,7.17-1.53,19.57,19.57,0,0,1,7-.15,42.34,42.34,0,0,0,8.12,1.15,8.67,8.67,0,0,0,3.72-.5c.19,0,.46.92,1.15,1.61a11.77,11.77,0,0,0,2.07,1.46,12.26,12.26,0,0,1,1.66,1.61c.83,1,1,2.41,1.49,4.22a3.68,3.68,0,0,0,3,2.56c.86.17,1.12-.37,1.67-.57s1.06-.26,2.76.32a3.41,3.41,0,0,1,2,2.56s.72,3.94-2.44,5.92l-.06.1,0,0a7.18,7.18,0,0,1-2.62,1.44c-.66,2.79-2.36,5-5.26,8.33a40.41,40.41,0,0,1-7,6.09,42.2,42.2,0,0,1-4.89,2.68v0l-.2.12h0l-.26.15C117.39,73.51,113.15,74.59,111.13,75.17ZM69.37,33.93l.05-.07a4.88,4.88,0,0,0,.94,1.52A7.78,7.78,0,0,0,67,39.18c-.61,1.8-.42,4.25-.61,4.45s-.16,0-.26,0a8.16,8.16,0,0,1-.81-1.84,23.7,23.7,0,0,1,.46-12.22,35.07,35.07,0,0,1,4.18-7.89c-.57,1.23-1.15,5.21-1.26,7.82A10.89,10.89,0,0,0,69.37,33.93Zm71.48,9.21c-1.49-.09-4.28.63-5,0-1.54-1.42-1.24-2.53-2.18-4.25a18.67,18.67,0,0,0-2.2-2.68l1.71,1.08a8,8,0,0,1,1.58,1,14.72,14.72,0,0,0,3.19,2.39,6.53,6.53,0,0,0,3.54.78,16.27,16.27,0,0,1-4.89-3.28s3.74-.06,5.52,1.7a7,7,0,0,1,2.53,5.4c0,1.35-.19,1.71-.33,1.79h-.11C143.87,44.68,142.32,43.22,140.84,43.14ZM104.7,3.24a4,4,0,0,1,1.88-.88,18.33,18.33,0,0,1,4.56-.11,3.21,3.21,0,0,1,1.9.89.45.45,0,0,0,.21.26s1.23.92,2.18,4.41,1.34,9,1,10c0,0,.27.73.77-3.22s-1.3-9.27-1.3-9.27-.65-1.3.8-.54a69.94,69.94,0,0,1,7.05,5.67,34.08,34.08,0,0,1,4.37,6.9c.77,1.84.57,5.79.57,5.79h0c0,1.64-.1,5.61-1.13,7.63-1.26,2.47-3.56,1.84-5.17,2a18.94,18.94,0,0,1-5.69-.63,9.18,9.18,0,0,0-2.47-.46l1.15-1.26c1.15-1.26,1.12-3.81,1-4.4-.41-3.15-.76-3.13-.76-3.13-.4.57,0,3-1.26,5.81s-3.68,2.87-6,3a43.9,43.9,0,0,0-6.21,1.21c-1.61.63-1.72-.21-1.72-.21s-.54-2.38-.8-3.3-1-3.3-1.3-4.83c-.23-1.32-.35-5-.38-6a33.24,33.24,0,0,1,1.64-7.15C100.75,8.26,103.66,4,104.7,3.24Zm-9.16-.11c4.75-1.15,6.71-.34,6.71-.34-2.15.77-4.18,3.14-6.36,5.75a18,18,0,0,0-3.56,7.13c-.42,1.69-.38,2.49-.15,2.49s.34-1.57,1.72-4.68A26.41,26.41,0,0,1,98.38,7a16.19,16.19,0,0,1,3-2.11c.73-.38,1.61-.54.77.42a34.73,34.73,0,0,0-4.06,7.24A15,15,0,0,0,96.84,19s-1.15,3.09-1.91,4.66a23.38,23.38,0,0,0-1.69,5.52c-.27,1.57.08,2.53-.38,3a4.22,4.22,0,0,1-3,.19c-.54-.31-1.26-.69-.65-2.61s.8-2.53.8-2.53a12.1,12.1,0,0,1-2.38,3.1,12.17,12.17,0,0,1-4.45,1.76c-2.22.5-5.48,1.61-5.71,1.69s-1.46,1-2.11-1.15-.88-7.43,0-9.89,3.45-7.05,4.52-8.12a32.85,32.85,0,0,0,2.49-2.57c.25-.39,4-4.06,4.63-4.63a1.16,1.16,0,0,0,.23-.16A19.39,19.39,0,0,1,95.54,3.12ZM83.47,7.84l-.11-.08h0c.08.07.16.11.22.08.31-.11,4.33-2.34,4.33-2.34L85.54,7.19a43.19,43.19,0,0,0-5.48,5.44,37.71,37.71,0,0,0-5.13,9.12,19.9,19.9,0,0,0-1.46,7.78c.11,1.65,1.15,3.3.84,4.37S73.2,35,72.82,35.24s-2.18-.77-2.68-2.38c-.14-.46-.27-.58-.37-.53A7,7,0,0,1,69.41,29,25.34,25.34,0,0,1,75,15.54,36.05,36.05,0,0,1,83.47,7.84ZM60.9,28.38a29.94,29.94,0,0,1,6.9-10.27c4.71-4.37,7.59-5.36,7.59-5.36-.15.38-4.06,5.67-4.83,6.67a30.86,30.86,0,0,0-4.48,6.17,22.42,22.42,0,0,0-2.57,7.8l0,0a8.41,8.41,0,0,1-2.15,2.53c-1.46,1.15-2.8,4.22-3,4.48s-.77,1.61-.8.11S59,31.14,60.9,28.38Zm.3,32c-.12-.23-.32-.52-.39-.71-.39-1-1.18-3.1-1.64-3.95a19,19,0,0,1-1.48-5.17c-.31-2.11-.38-6.82.88-8.55s2.25-4.74,4.63-6c-.07.87-.12,1.7-.15,2.47A12.89,12.89,0,0,0,64.69,45l.18.43a9,9,0,0,0-1.76,4,27.83,27.83,0,0,0,0,9.92c.46,2.26,1,4.87,2.22,6.28A53.87,53.87,0,0,1,61.2,60.35ZM78.57,76.28a7.55,7.55,0,0,1-4.45-3.41c-1.57-2.49-2.45-4.94-3-4.83s.08,1.38.46,2.3,2,3.49,3.45,4.29c0,0-1.11.27-3.22-1.72a25.64,25.64,0,0,1-5.21-6.74c-1.38-2.61-3.41-10.19-3.3-12.91,0,0,1.69,8.09,4.52,10.27,0,0-3.49-6.13-3.53-12,0-3.9.45-5.12.78-5.5l0,.06a4.43,4.43,0,0,0,.17.64,8.92,8.92,0,0,0,.37,3.92,19.18,19.18,0,0,0,1.48,2.93c.14.37.47,1.27.7,2,.31,1,1.26,4.1,1.61,5.13s3,7,5.67,9.54,5.71,5.9,6.36,6.28A7.29,7.29,0,0,1,78.57,76.28Zm5.17.77C81.67,75.55,75.38,69,73,65a61.41,61.41,0,0,1-4.14-9.43c-.15-.38-.65-2.18.42-.73l1.07,1.46s1.48,2.34,4.24,6.15a56.66,56.66,0,0,0,8.82,9,40.82,40.82,0,0,0,6.33,3.38h0l.41.18a1.85,1.85,0,0,1,.71,1,11.57,11.57,0,0,1,.62,2.39c0,.3-.63.51-.63.51l-2.26-.08A8.74,8.74,0,0,1,83.74,77ZM71,137.93c-.26,0-1.09.66-1.81.63a8.06,8.06,0,0,1-3.39-.95A6.8,6.8,0,0,1,64,134.74a26.67,26.67,0,0,0-1.78-3.59c-.11,0-.11.17-.06.72s1,3.71,1,3.71-.49,0-1.7-.89a6.36,6.36,0,0,1-2.18-3,17.37,17.37,0,0,1-.63-3.1,25.84,25.84,0,0,0-1-3.33,8.55,8.55,0,0,1-.8-3.91,4.72,4.72,0,0,1,1.55-2.93,22.24,22.24,0,0,1,5.29-6.12,10.92,10.92,0,0,1,7.33-2c.26,0,1.61,0,.52.37a16.37,16.37,0,0,0-4.2,2.62A8.83,8.83,0,0,0,66,116.46c-.11.8-1,2.67-.83,2.73s.37-.37.92-1.47,1.64-3.42,3.45-4.63a7.68,7.68,0,0,1,5.26-1.55c2.1.11,1.93.95,2.59,1.38a12,12,0,0,1,2.59,1.47,2.84,2.84,0,0,1,.92,2.3s0,.1,0,.17l-2.07-1.76h0a5.56,5.56,0,0,0-1.4-.8,5.55,5.55,0,0,0-2.67.57,11.28,11.28,0,0,0-2.62,1.9c-.6.69-2.3,3.22-3.31,7.85a18.81,18.81,0,0,0,0,8.91c.34,1.87,2.79,4.4,2.79,4.4Zm6.74-21.74-2.71-.11,0-.05,1.64-.69C77,115.55,77.78,116.19,77.78,116.19Zm-4.05,21c-.06.43-.56,1-.88.81a2.4,2.4,0,0,1-.29-3.28c.54-.81,1.91-.65,2.37-.58C74.86,134.26,73.78,136.72,73.73,137.14Zm1.81-7.41a22.93,22.93,0,0,0,.78,3.13c.17.24-.43,0-.62-.05a.07.07,0,0,0-.06,0c-.34,0-2,.06-2.62.11a2.67,2.67,0,0,1-2.36-.75c-.8-.83-.83-2.07-.8-4.28a24.76,24.76,0,0,1,1.72-8.22,4.59,4.59,0,0,1,3.13-2.59l0-.07c.71,0,3.79,0,4.48.17a2.44,2.44,0,0,1,1.44.72c.09.17-.8.06-2,1s-2.33,3.39-2.76,4.83A17.21,17.21,0,0,0,75.54,129.73Zm1.55.57c-.32.2-.43-3.31-.14-5.06a14.47,14.47,0,0,1,2.1-5A3.81,3.81,0,0,1,81.27,119a6.86,6.86,0,0,0,4.31.57c2.5-.46,2.41-.69,4.91-2.64s2.56-4.68,3-5.86.26-3.42,1.61-3.19,1.26,2.73,1.44,4.17a16,16,0,0,1-.2,3.62l-.11,0c-.41.18-1.82.8-2.31,1-.66.32-1.09.4-1.09.78s.26.32.72.14a7.73,7.73,0,0,1,2.9-.69,3.73,3.73,0,0,1,2.85,1.44c.34.63-.06,1.44-.89,2A11,11,0,0,1,95,121c-.26,0-.46.26.06.46a2.51,2.51,0,0,0,1.7.14,7.57,7.57,0,0,0,3.08-1.09c.46-.46.92.29,1.06.78a1.84,1.84,0,0,1-.66,2.3,13,13,0,0,1-3.28,1c-.6.12-1.24.37-1.29.55s.2.32.75.4,2.18-.4,3-.46a9.72,9.72,0,0,0,1.67-.29,3.91,3.91,0,0,1-.2,2.1c-.43.83-.37,1.06-.95,1.18s-3.42.46-3.85.66-.78.4-.63.63.8.06,1.38.06a22.28,22.28,0,0,1,3-.29c.2.17.11.66-.55,1.18s-.29,1.06-4.54,1.93a25.37,25.37,0,0,1-7.82.32c-1.09,0-4.2-1.44-5.6-1.67S77.41,130.1,77.09,130.3Zm1.31,26.1c-.23-1.15-.8-2.15-.27-2.87s.42-1.19,3-1.19c.63,0,1.43,0,2.29.1-.52.65-3.92,5-4.8,6.27A17.79,17.79,0,0,0,78.4,156.4Zm2.45,6.25c-1.16,0-1.75.07-2-.48.08-.26.08-1.18.25-1.8.23-.84,4.62-7.09,5.19-7.24s.92.71,1.46,2,2,5.46,2.18,6.38a12.6,12.6,0,0,1,.24,1.41C85.26,162.76,81.7,162.62,80.85,162.64Zm30-7.78a2.48,2.48,0,0,0,.33.8h0l0,.07a.23.23,0,0,1,0,.19l-.4.5,0,0a6.73,6.73,0,0,1-1-1.27c-.13-.22-.38-.6-.38-.6s-.46-.67.1-.65h1.71l-.13.14A1.09,1.09,0,0,0,110.89,154.86Zm29.44,2.34c0-.2,0-.73-.08-1.47h.06a8,8,0,0,1,3.15,3.9,11.9,11.9,0,0,1,.11,6.44,7.27,7.27,0,0,1-2.62,3.5,14.6,14.6,0,0,1-4.49,2.66c0-2.64-.09-6.81-.09-6.81l.11-2.64a6.84,6.84,0,0,0,.78-.05v0c.35,0,1.25-.09,1.73-.18s1-.23,1.19-.92A17.77,17.77,0,0,0,140.33,157.2Zm-1.22.49a2.13,2.13,0,0,1-1.58,2s-1.21-2.78-2.2-5a9.37,9.37,0,0,0-2-3s1.68.66,2.16.91l.74.37s0,0,0,.05a.79.79,0,0,0,.79.79.77.77,0,0,0,.48-.17,11.25,11.25,0,0,1,1.21.76A8.39,8.39,0,0,1,139.11,157.7Zm-.2-6.59a1.63,1.63,0,0,1-1.12.54c-.74,0-2.63-1.54-3-1.76s-.5-.66-.09-1.32a4.52,4.52,0,0,1,2.42-2.08A8.56,8.56,0,0,0,140,145c.63-.52.8-1.07,1.23-.91,0,0,.91.63.91,1.42s0,1-.85,2.58a10.19,10.19,0,0,1-2.3,3Zm3-9.21c-.69.69-2.94,1.84-3.37,2.42a4,4,0,0,1-1.26,1.29,1.31,1.31,0,0,1-1.57-.28c-.35-.35-.21-.95-.72-2.22a15.84,15.84,0,0,0-1.43-2.63,8.51,8.51,0,0,0-5.52-3.37,13.32,13.32,0,0,1-1.73-.25c-.35-.13-.25-.77.28-1.57s1.23-2.15,1.48-2.58a3,3,0,0,1,2.3-1.45,10.93,10.93,0,0,1,5.13,1c1.53.71,2.66,1.26,3.15,2s.61,1.79,1.38,2.64a11.75,11.75,0,0,1,2.17,3C142.49,140.83,142.57,141.2,141.88,141.9Zm-13.34-3.52a10.57,10.57,0,0,1,3.52,2.74l.31.31s1.53,2.25,1.76,2.74a7.25,7.25,0,0,1,.63,2c0,.69-1.32,2.41-1.45,3.11a1.7,1.7,0,0,1-.22.58c.1-.27.18-.47.2-.55a7,7,0,0,1-.32.71l-.05.07,0,.09a7.86,7.86,0,0,1-4.18,3.57,15.59,15.59,0,0,1-4.28.35c-.82-.3-.28-.86-.21-1a9.13,9.13,0,0,0,1.82-1.31c.07-.11.16-.26.34-.52a1.73,1.73,0,0,0,.19-.36,1.65,1.65,0,0,0,.34-.47,13.59,13.59,0,0,0-.5-4.92,8.86,8.86,0,0,1-.65-2.22c-.05-.27-.33-.49-.46-.46s-.12.08-.2.2a5.82,5.82,0,0,1-.19-.59c-.13-.55-.83-1.13-.79-.31a1.53,1.53,0,0,1-.5,1.45c-.14.09-.78.24-1.64.55a8.63,8.63,0,0,0-3.29,1.73c-.35.14-1.39.52-1.49.27s-.14-.71.53-1.82a15.18,15.18,0,0,1,4.84-4c1.24-.46,2.49-1.79,3-1.92A5.37,5.37,0,0,1,128.54,138.37Zm-6.63,17.08.27-.31a5.27,5.27,0,0,0,.38-.58l.16-.16a2.47,2.47,0,0,0,1.23,1.12,7.43,7.43,0,0,0,2.17.29.79.79,0,0,0,1.57-.09s0,0,0,0a4.61,4.61,0,0,0,.56-.14c.8-.26,2-.8,2.78-1.16a18.91,18.91,0,0,1-3.3,7s-.19.15-.88-.5C126.36,160.43,123.64,157.56,121.92,155.45Zm3.77,7.28c-2.53.36-5.1,1.14-8.05,1.32,0,0-4.62.24-5.66-.16l3.25-4.18a.86.86,0,0,1,.89-.19c1.59.53,4.25-2.21,5.33-3.52a50.2,50.2,0,0,1,5.21,6C126.79,162.38,126.27,162.6,125.69,162.74ZM120,146.66a4.77,4.77,0,0,1,2.22-1,2.42,2.42,0,0,1,1.68.54,4.12,4.12,0,0,1,.45,1.17,3.58,3.58,0,0,1,.13,2.64,13,13,0,0,1-1.33,1.94l-.12.16-.13.17c-1.87,2-4.45,4.67-4.56,4.76s-1.16,1.16-1.57,1.13-.63-.66-1.17-1.51a6.18,6.18,0,0,0-2-1.59l-.19-.07a4,4,0,0,1-.73-.46c-.09-.13-.23-.14.48-.9S120,146.66,120,146.66Zm-6.31,9.93a2.11,2.11,0,0,1,1.16,1.4,7,7,0,0,1-1.2,2.08c-.45.67-14.92,19.15-26.35,33.76,0,.07-1.05,1.36-1.8,2.31l0,0c-5.35,6.85-9.78,12.51-11.33,14.52h0s-.55.65-.88.42a3.91,3.91,0,0,0-1.28-.79s-.78-.11-.64-.51,2.54-3.5,2.54-3.5l10.89-14.12s22.92-29.73,22.92-29.73,4.47-5.77,4.47-5.77A1.43,1.43,0,0,1,113.67,156.59ZM95.05,206.72c3.51,1.21,11.67.11,11.67.11s-2.64,2.7-8.39,2.93c-3.92.16-5.57-.59-6.22-1-.2-.86-.36-1.56-.45-1.89a7.77,7.77,0,0,1-.25-2.37C91.83,205.19,92.64,205.89,95.05,206.72Zm-3.16-3.43,0,0c3.25,1.38,7.88,2.44,12,1.5a18,18,0,0,0,3.36-1.22c.14,0,.34.07.43.3a7,7,0,0,1,.09,1c-2,1.11-7,2.1-11.07,1.32C93.53,205.59,92.3,204,91.89,203.29Zm.24,15c-.21-.77,3,.1,3.41.22l.07,0c-.43.07-1,.18-1.6.29h0S92.34,219,92.13,218.27Zm1.54-2.7-.87-3.78c.93.78,2.72,1.29,5.18,1.88,2.87.69,8.68-.34,8.22,0a9.79,9.79,0,0,1-1.84.8,22.85,22.85,0,0,1-10.68,1.12ZM91.92,213c.4,1.58.58,2.75.32,3.14-.46.69-5.17-2-9.43-2.07a21.84,21.84,0,0,0-4.74.39c2.61-1.28,6.7-3.72,7.25-4s.83-.52.9.09A2.4,2.4,0,0,0,88,212.45a10,10,0,0,0,2.93.42A9.93,9.93,0,0,0,91.92,213ZM66.6,221.87a16.85,16.85,0,0,0,.95,1.44c.84,1.16,1.92,2.57,2,2.81s0,.72-.46,1.36a5.92,5.92,0,0,1-1.89,1.76c-.92.52-1.36.82-1.83.75s-12.72-8.31-13.12-8.54-.55-.65.09-1.17c.46-.38,1.9-1.36,2.64-1.86.83-.69,2.1.49,6.26.41a4,4,0,0,0,1.65-.47c1.21-.63,6.55-6.46,6.55-6.46a2.29,2.29,0,0,1,1.68.27,1.4,1.4,0,0,1,.44,1.58c0,.13-1.06,1.37-1.93,2.42S65.41,220.09,66.6,221.87ZM50.12,195.5c-.52-1.34-3.23-1.25-4.44-1.46s-2.6-.14-3.35-1.37-.19-4.22.38-4.34,1.84,1,4.62,2.22,9.58,2.12,14.68,2.17,10.95-1.39,12.88-2.36c0,0,5.36-2.45,6-2.83s2.29-1.2,2.6-1,.5.25.63.6c.19,1,.33,2,.43,3l-15,19.15-1.27,1.57s-3.49,4.43-3.67,4.59a2.23,2.23,0,0,1-.63.43l-.54.21-1,.34a3.38,3.38,0,0,1-2,0c-.78-.38-10.23-6.58-11.74-7.43a3.73,3.73,0,0,0-2.71-.5l-1.53.56c-.31-1.28-.63-2.71-.78-3.75-.35-2.36,0-3.33.28-3.35s3.16,0,4.2,0,1.58-1,2-2A7.46,7.46,0,0,0,50.12,195.5Zm12.55-11.42a1.25,1.25,0,0,0,.76,1.13c.61.35,6.06.78,7.69,1s3.8.78,3.73,1-.19.57-1.18,1.18l0,0c-.26.18-2.42,1.57-7.71,2.06-5.66.52-11.94,0-15.34-1.06-2.8-.91-6-2.67-6.51-2.81a16.63,16.63,0,0,1,7.08-2.27c3.86-.39,9.19-.86,10.86-.9h0C62,183.68,62.6,183.59,62.67,184.09Zm2.31-.42c3.61.18,9.88.49,10.48.8.83.42,1.09.85.9,1.65-.66-.07-9.11-2.19-10-2.12S65.12,183.88,65,183.66ZM78,186c0-.36.13-1.21.46-1.21a7.55,7.55,0,0,1,1.32.26c-.51.34-.86.68-1.09.78A3,3,0,0,1,78,186Zm5.47-14.1a26.06,26.06,0,0,1-.86-4.36c-.08-1.57-.11-2.53,1-3a9.1,9.1,0,0,1,4.14-.61c1.11.23,5.36.92,6.7,1.15.9.15,2.84.41,4,.5,2.21.18,4.5.31,5,.24L86.11,188.09q-.16-1.37-.26-2.87l-.4-6.21s3.1,3,3.62,2.53-1.9-1.78-3-3.68a32.31,32.31,0,0,1-2-4.41S83.48,171.95,83.48,171.95Zm.07,6.15c-.74-.11-3-.43-6-.78a38.71,38.71,0,0,1,5.05-2.11,1.27,1.27,0,0,1,.63.17,6.78,6.78,0,0,1,.3.75C83.57,176.23,83.56,177,83.55,178.1ZM69.16,218.46l1-1.09c1.6-.47,3.09-1,4.32-1.44a6.82,6.82,0,0,0-1.7,1.66c-1.14,1.6-2,2.67-1.9,5.17l-.47-.34a17.15,17.15,0,0,1-2.29-2.08C67.91,220,68.66,219,69.16,218.46Zm2.9,2.64c.17-.48.3-.65.63-.62a2,2,0,0,1,.91.42,7.65,7.65,0,0,0,3.91,1.39,20.58,20.58,0,0,0,0,2.61c.11.46-.12.39-.48.4h-.29c-2.3-.12-3.64-.54-4.54-2a3.18,3.18,0,0,1-.33-.66A7.74,7.74,0,0,1,72.06,221.1Zm5.78,6c0,.06,0,.15,0,.27l-.52-.31Zm-.26-6.61a4.14,4.14,0,0,1-2.07-.33,1.91,1.91,0,0,1-1.15-2.3,2.88,2.88,0,0,1,.64-1.12,9.3,9.3,0,0,1,4-1.4C77.91,216.35,77.58,220.49,77.58,220.49Zm1.53,1.57s.19.11,1.46-.08,4.71-1.15,5.33-.57.77,2.84.19,3.3a1.75,1.75,0,0,1-.49.27l-.45.11-.29,0c-1.44.14-2.87.22-4.22.22H79.35c-.1,0-.14-.08-.18-.22C79.06,224.74,78.8,222.3,79.11,222.07Zm2.83-6.87,1,0a6,6,0,0,1,2.15,2.26,1.14,1.14,0,0,1-.34,1.72,20,20,0,0,1-5,1.26c-1,0-.5-1.46-.19-3s2.41-2.26,2.41-2.26Zm4,2c-.42-.42-1.3-1.3-.84-1.46a12.5,12.5,0,0,1,2.33.37l0,0s2.56,1,2.67,1.74-1.14.84-1.32.89c-.77.08-2.26,0-2.3-.23A2.43,2.43,0,0,0,86,217.24Zm5.34-6.35c-.07.54.12.66-.76.57s-2.71-.54-3-1.23a15.4,15.4,0,0,1,.19-5.8c.36-1.8.92-2.39,1.32-2.67l0,0,.31.2a28.08,28.08,0,0,0,1.18,6.69c.24.75.48,1.49.69,2.2Zm-5.38-5c-.09.94,0,1.82-.28,2s-3.07,2.22-7.31,4.67a37.58,37.58,0,0,1-6.64,3l2.39-2.76,12.06-15.56a14.45,14.45,0,0,0,1.62,3.13C86.65,201.83,86,205,85.93,205.93Zm24-48.38-4.9,6.27-1.77,0v0h0a35.32,35.32,0,0,0,1.77-3.31c.4-1,1.94-5,2.22-5.42s.84-.53,1.43.57C108.7,155.63,109.48,156.8,110,157.55Zm-5.89,2.77a5.6,5.6,0,0,1-2.39,3.11.53.53,0,0,1-.45,0,1,1,0,0,1-.37-.46,15.66,15.66,0,0,1-.89-2.06c-.18-.46-1.74-5.73-2.49-6.95l1.22.13c.42,0,4.13,0,7.24-.08A59.09,59.09,0,0,1,104.08,160.32Zm-4.43,3.1c0,.18,0,.33-.46.39-1.6-.13-6-.49-7.26-.64-.29,0-.78-.07-1.41-.12a17.68,17.68,0,0,0,2.31-3.6,21.7,21.7,0,0,1,3-5.12c.46-.25.54-.4,1.21,1.21S99.63,163.24,99.65,163.43Zm-10-1.19c-.54.46-2.66-8.26-3.86-9.58,1.76.18,3.3.38,3.61.44s2.79.32,5.1.56C94,154.61,90.21,161.79,89.69,162.24Zm-10.41,7.59a19.34,19.34,0,0,0,2.17.8,13.29,13.29,0,0,0,.8,2.84c-.68-.07-2.59-.09-2.45-.57a2.15,2.15,0,0,0-.24-1.32l-.94-1.51S78,169.27,79.28,169.83Zm-2.69-.14c.17,0,1,1.93,1,1.93.09.33.61.92.14,1.09s-.71-.76-.71-.76A10.45,10.45,0,0,1,76.59,169.69Zm-4.44,1.13s2.48-1.09,2.88-.8a5.4,5.4,0,0,1,.8,2.41v0c-.06.27-.19.58-.48.58-.47,0-4.6-1.18-4.72-1.51S72.15,170.83,72.15,170.83Zm-1.7,3.11a.57.57,0,0,1,.8-.42,23.85,23.85,0,0,0,4.67,1.27,5.22,5.22,0,0,0,2.78-.94c.45-.21.92.14,1.27.52s-.61.76-.61.76L75,177c-1.42-.15-2.95-.3-4.51-.43A14.11,14.11,0,0,1,70.45,173.94Zm-6.75-.66a9.59,9.59,0,0,1,4.15-2.88c.23.05.52.6.65.86a.52.52,0,0,0,.06.14,7.13,7.13,0,0,1,.38,3.35c-.12.66-.31.92-.76.9s-4.88-.61-5.1-1S63.71,173.28,63.71,173.28Zm-3.4,2.36a1.66,1.66,0,0,1,1-.42c-.13.33.17.72.36.93-.76,0-1.49,0-2.21,0A4.41,4.41,0,0,0,60.31,175.64Zm-18.26,25a4.64,4.64,0,0,0,.47-.39,5,5,0,0,0,1.2-2.86c.11-1.09-.3-.35-.41-.22a8.54,8.54,0,0,1-1.1,2,3.62,3.62,0,0,1-1.63,1.21,5.77,5.77,0,0,1-.67-.25,13.14,13.14,0,0,1-1.36-.62l-.17-.1a3.3,3.3,0,0,0,1-.78c.55-.53.87-1.32.66-1.42s-.94.85-1.64,1.23a2.4,2.4,0,0,1-1,.33A10.94,10.94,0,0,1,34,194.26a4.11,4.11,0,0,0,1.67.48,2.42,2.42,0,0,0,1.87-.52c.5-.42.08-.52.08-.52a3.31,3.31,0,0,1-2,.16,7.59,7.59,0,0,1-2.2-1.43,7.67,7.67,0,0,1,0-3.56,2.94,2.94,0,0,0,1.93,1.62c.69.2,1.05.27,1.2,0s-.57-.3-1.38-1.1a5.64,5.64,0,0,1-1.18-2,11.39,11.39,0,0,1,3.79-4,4,4,0,0,0,2.07,2.71c1.42.66.66-.22.66-.22a15.64,15.64,0,0,1-1.27-1.45,2.62,2.62,0,0,1-.53-1.64c.69-.43,1.46-.85,2.3-1.27.51-.16,1.21-.57,2.62-1.11a4.13,4.13,0,0,0,1.07,2.92c.94.76.47-.13.47-.13a3.52,3.52,0,0,1-.72-1.67,2.52,2.52,0,0,1,.2-1.5,44.37,44.37,0,0,1,4.59-1.24,4.24,4.24,0,0,0,.53,3.27c.82.88.47,0,.47,0a9.57,9.57,0,0,1-.31-1.67,2,2,0,0,1,.49-1.82c1.14-.23,2.43-.46,3.88-.69a46.7,46.7,0,0,1,7.89-.39,4.49,4.49,0,0,0-.27,1.93c.08,1.09,1,2,1.32,1.89s-.49-1-.5-2c0-1.17.32-1.62.85-1.8,1.49.05,3,.14,4.48.25a3.12,3.12,0,0,0-.23.92,2.85,2.85,0,0,0,.6,2.08c.41.46.09-.42,0-.94a3.1,3.1,0,0,1,.43-2c1.92.16,3.79.35,5.51.54a6,6,0,0,0-.27.66,4.93,4.93,0,0,0,0,2.8c.13.29.46.9.38,0a7,7,0,0,1,.56-3.19l.12-.21c1.7.2,3.22.41,4.46.58a5.79,5.79,0,0,0-.18,1.33,4.93,4.93,0,0,0,.85,2.66c.21.24.71.72.38-.08a7,7,0,0,1-.42-3.21,2.77,2.77,0,0,1,.18-.59c1.58.23,2.54.39,2.54.39a.68.68,0,0,1,.48.51c0,1,0,2,.05,2.94a3,3,0,0,1-2,1.27s-2.1-.27-4.52-.6a2.11,2.11,0,0,1-.19-.48,5,5,0,0,1,.14-2.31c.2-.58-.13-.23-.27-.05a3.42,3.42,0,0,0-.48,1.93,4.34,4.34,0,0,0,.15.83c-1.13-.16-2.3-.33-3.32-.49L71.81,183a2.4,2.4,0,0,1-.54-1.32c-.1-.74.27-1.81.09-1.86-.41-.11-.85,1-.85,1.82a2.16,2.16,0,0,0,.28,1.25c-1.54-.15-3.36-.26-5.21-.33v0a.78.78,0,0,1-.44-.88,2.2,2.2,0,0,1,.63-1.29c.3-.24.19-.53-.6.06s-1,1.59-.4,2.12c-1.84-.06-3.67-.08-5.27-.05a2.61,2.61,0,0,1-.74-1.75,4.78,4.78,0,0,1,.16-1.82s.08-.72-.57.13a3.76,3.76,0,0,0,0,3.48c-.6,0-1.27.05-2,.11a3.08,3.08,0,0,1-.91-2.23c.14-1.23-.08-1.15-.5-.66a3.14,3.14,0,0,0,.12,3,53.8,53.8,0,0,0-7,1.09,2.26,2.26,0,0,1-.65-1.34,3.61,3.61,0,0,1,0-1.35s-.31-1-.68.66A3.05,3.05,0,0,0,47,184a12.76,12.76,0,0,0-3,1.16,4.15,4.15,0,0,1-1.8-1c-.71-.72-.8-.57-.75-.09a3.83,3.83,0,0,0,1.64,1.69,6.3,6.3,0,0,0-2.24,3,5.41,5.41,0,0,1-3-1c-.22-.13-.57.19.6,1.07a4.82,4.82,0,0,0,2.16.93,10.68,10.68,0,0,0-.13,1.14c-.08.17-.3,1-1,1.24a4.36,4.36,0,0,1-1.7,0c-.19,0-.5.27.13.47a5.3,5.3,0,0,0,2.11.06,1.18,1.18,0,0,0,.58-.26,3.64,3.64,0,0,0,.43,1.12,1.74,1.74,0,0,1-.89.84,4.39,4.39,0,0,1-1.54.47c-.36,0-.74.33.19.44a3.83,3.83,0,0,0,2.17-.28,2.43,2.43,0,0,0,.78-.66,2.93,2.93,0,0,0,1,.49,13.87,13.87,0,0,0,2.22.31,1.81,1.81,0,0,1,.22,1.53,4.88,4.88,0,0,1-.57,1.57c0,.08-.22.52.5-.06a2.62,2.62,0,0,0,1-2.14,2.43,2.43,0,0,0-.11-.82,6.45,6.45,0,0,1,2.28.41c.76.5,1.39,1.27.85,3s-1,1.86-2.41,2A22.7,22.7,0,0,1,42.05,200.66Zm33.13,42.89c-.1.68-.27,1-.54,1S35.49,218,35.49,218a1.55,1.55,0,0,1-.68-.91,1.25,1.25,0,0,1,.23-1,.53.53,0,0,1,.46-.07,4.87,4.87,0,0,0,1,.8c1,.58,34.4,23.3,35.87,24.33a16.92,16.92,0,0,0,2.63,1.56l0,0S75.29,242.87,75.18,243.55Zm10.59-6.67c.07.29.17,1.07-1.52,2.42a61.08,61.08,0,0,1-7.11,4.52c-.51.15-1.13.53-1.28.14a1.56,1.56,0,0,1,.07-1.09l.33-.17a.13.13,0,0,0,.12-.07c.7-.42,1.78-1.19,2.77-1.74,1.25-.69,4.51-2.83,5.95-3.84h0S85.7,236.59,85.78,236.88ZM85.3,235a2.59,2.59,0,0,1-1.16,1.67c-.86.6-7.07,3.5-7.86,4a1.79,1.79,0,0,1-1.49.36l-32.86-22-3.08-2.06c-.34-.23-2.65-1.74-2.66-2.54s.63-1,1.08-1.19c.26-.13,3.29-1.46,5.9-2.52,0,.05,3-1.42,3.8-1.34a5.72,5.72,0,0,1,1.75.7s11.38,7.34,11.28,7.5-.37.57-3.43-.66c-.28-.11-.43-.2-.46-.2a1.44,1.44,0,0,0-1.17,0c-.05,0-4.4,3.11-4.4,3.11s-.61.66-.23,1.25,13.68,9.71,13.74,9.74a3,3,0,0,0,2.25.34,16.69,16.69,0,0,0,3.34-2.07,5.23,5.23,0,0,0,1.55-1.82s.19-1-.13-1.39c-.47-.54-2.38-2.39-2.88-3.1s-.32-1.26.19-.79c0,0,3.18,2.9,3.39,3.06.39.29,3.59,2.26,4,2.5l2.46,1.55s4.32,2.81,4.41,2.88C83.64,232.89,85.35,234.69,85.3,235Zm.9-5.69-.06,0c-.51.1-3.36.53-4.09.59l-.47-.31c-.34-.22-1-.6-1.73-1.07-.21-1.18.1-1.4.61-1.51,0,0,2-.17,2-.15s3.79-.54,4.25,0A1.8,1.8,0,0,1,86.2,229.35Zm1.3-9c.23-.46,1.19-.46,1.19-.46h0c.28,0,1.49-.06,2-.05a2.57,2.57,0,0,1,1.09.37c1,.69,1.46,3.33,1.34,3.53a36,36,0,0,1-4.82.87,3.57,3.57,0,0,0-.13-1.52C87.92,222.1,87.27,220.84,87.5,220.38Zm6,6.86a2.08,2.08,0,0,1-1.33,1.18c-1.45.17-2.83.35-3.9.53a14.1,14.1,0,0,0,.29-1.64c0-.57,0-.84.46-1s3.95-.8,4.33-.54S93.67,226.66,93.52,227.24Zm.84-5.79c-.42-1-.54-1.23-.08-1.23a9.12,9.12,0,0,0,2.22-.08c.84-.19,1-.57,1-.57a7.54,7.54,0,0,1,1.72,3.3v.1c-1.11.25-2.46.5-4.2.74A15.16,15.16,0,0,0,94.36,221.45Zm4.5-2.48a22.85,22.85,0,0,0,4.21.28.46.46,0,0,1,.25.12,9.57,9.57,0,0,1,.83,2h0a14.36,14.36,0,0,1-2,.84c-.4.13-.83.26-1.3.39A7.35,7.35,0,0,0,98.86,219Zm-.29,8.34a2.28,2.28,0,0,1-.48.4l-.75.1-1.28.16c-.41,0-.92-.11-.9-.43,0-.54.19-1.84.19-1.84s-.15-.23.33-.31a32.22,32.22,0,0,0,3.92-.47A5.39,5.39,0,0,1,98.58,227.32Zm5.8-2.68a4,4,0,0,1-1.23,2.24l-2.39.41a3.79,3.79,0,0,0,.55-2.72,15,15,0,0,0,2.94-1l.23-.11A4.53,4.53,0,0,1,104.38,224.64Zm.23-5.66A9,9,0,0,0,107,217.9a1.15,1.15,0,0,1,.32.14l.2.15a1.24,1.24,0,0,1-.31,1,6.54,6.54,0,0,1-1.7,1.41,4.82,4.82,0,0,0-.38-.84Zm2.06,5.79a4.4,4.4,0,0,1-1.16,1.68l-.1,0a4.66,4.66,0,0,0,.65-2.5,7.65,7.65,0,0,0-.06-1.21,4.83,4.83,0,0,0,1.7-1.2A11.29,11.29,0,0,1,106.66,224.77Zm1.09-9.48c-.29,1.21-2.41,2.24-2.7,2.36-.06,0,0,0,.1.05a15.7,15.7,0,0,1-4,.52,13,13,0,0,1-5.69-1.15,24.17,24.17,0,0,0,8.51-1.21,16.3,16.3,0,0,0,3.85-1.88A8.94,8.94,0,0,1,107.76,215.28Zm-5.12-2.3a22.28,22.28,0,0,1-9.31-2.24c1,.34,6.55.17,9.25-.46a18.16,18.16,0,0,0,5.29-2.52c0,1.09,0,2.29,0,3.4C107.65,211.64,106.6,212.94,102.64,213Zm6,12.93s-.11-.46.52-.17a4.89,4.89,0,0,0,2.47.4h0c.05,0,.19,0,.29.39a8.25,8.25,0,0,1,.19,2.47.62.62,0,0,1-.73.49,3.13,3.13,0,0,1-2-.76A3.41,3.41,0,0,1,108.62,225.92Zm7.53-16a58.65,58.65,0,0,0,7.41-.12c-5.52,2.53-12.66,1.26-14.19.85,0-.53,0-1-.06-1.42s0-1,0-1.6C110.16,208.5,113.15,209.72,116.15,209.94Zm-6.74-4.63a9.66,9.66,0,0,1,.19-1.24c.27-1.12.39-1.79,1.14-2a6.28,6.28,0,0,0,1.85,1.4,19.85,19.85,0,0,0,9.14,1.61,16.22,16.22,0,0,0,4.83-1.09,23.9,23.9,0,0,1-11.32,2.64C111,206.62,109.78,205.78,109.41,205.31Zm11.83,14.6a3.75,3.75,0,0,1,1.62-.36,12.76,12.76,0,0,1,2.89.16c.8.27,1.71,2.6,1.67,2.72a49.1,49.1,0,0,1-5.88.16,1.22,1.22,0,0,1-.62-.89C120.77,221,120.67,220.27,121.23,219.91Zm-.52-1.06a.8.8,0,0,1-.23-1,.72.72,0,0,1,.3-.22c.91,0,1.79-.07,2.62-.08a1.36,1.36,0,0,1,.49.18c.37.22.68.8.6.91s-1.22,0-1.84.07A7.92,7.92,0,0,1,120.72,218.85Zm4.22-3.56a4.52,4.52,0,0,1-2.7,1.26c-1.09.17-4.37.34-5.58.52a30.78,30.78,0,0,1-5.12.46c-1.21-.12-1.78-2.07-1.9-2.82-.06-.38-.13-1.36-.19-2.44l0,.09c1.61,1.78,4.08,2.3,7.87,2.59a34.61,34.61,0,0,0,8.27-.66A3.53,3.53,0,0,1,124.94,215.28Zm-15.09,8.61c.06-.42.76-.78,1.25-1s1.28-.63,1.35-.65a7.92,7.92,0,0,0-.56,2,5.23,5.23,0,0,1-1.68.15h0A.55.55,0,0,1,109.85,223.89Zm2.26-2.89a10.43,10.43,0,0,0-2.64,1.56,2.66,2.66,0,0,1,.07-1.3,3.84,3.84,0,0,1,.63-.92,8.84,8.84,0,0,1,1.21-1.09,7.73,7.73,0,0,1,.8-.37,2.73,2.73,0,0,1,1.33,0s.07,0-.06.32a7,7,0,0,0-.32,1.18C113.1,220.64,112.38,220.87,112.11,221Zm2.33.69c1-.9,2-1.28,4.43-1.6a8.27,8.27,0,0,0,.6,2.62c.07.16-.1.23-.78.37s-4.38.86-5.26,1A3.28,3.28,0,0,1,114.44,221.69Zm.39-2.41a5.57,5.57,0,0,1,4.35-1.25h0a3.69,3.69,0,0,0-.27,1,12.89,12.89,0,0,0-4,.86S114.31,219.87,114.83,219.28Zm-3.14,14.47a2.49,2.49,0,0,1-.89-.18,3.87,3.87,0,0,1-2-2.63c0-.21-.08-.46,0-.5s1.06.45,2.17.55a9.79,9.79,0,0,1,1.47.11,10.73,10.73,0,0,1,.92,2.43C113.4,233.65,112.42,233.74,111.69,233.74Zm1.59-5.85c0-.45-.26-1.64.06-2s2.6-.52,3.09-.63,3.2-.55,3.58-.55h0s.13,0,.34.35a21.27,21.27,0,0,1,1.28,4.07s.06.46-.75.6-5.23.13-5.23.13-1.58.09-1.93-.26A3,3,0,0,1,113.27,227.9Zm8.92,4.31c0,.59,0,1.32-.42,1.57a2.9,2.9,0,0,1-1.3.15c-1.55-.14-3.28-.15-4.84-.14a1.33,1.33,0,0,1-.87-.73,5.29,5.29,0,0,1-.78-2c.06-.26.76,0,2.37.1s4.9,0,5.2,0A1,1,0,0,1,122.2,232.21Zm.76-3.65c-.2-.6-1.18-3.56-1-4s.92-.3,1.71-.26,3.88-.37,4.51-.29,1.08,1.11,1.32,1.54.68,1.38.84,1.79h0a1.6,1.6,0,0,1-.19,1.48c-.52.66-1,1-3.08.91a12.45,12.45,0,0,1-3.74-.68C123.46,228.88,123.16,229.16,123,228.56Zm6.75,4.5a2.86,2.86,0,0,1-1,.81,28,28,0,0,1-3.66.32,1.27,1.27,0,0,1-.87-.86c-.13-.69-.17-2,.09-2.11s2.59-.07,3.49-.16a16.12,16.12,0,0,0,2.73-.62C130.86,230.31,130.47,232.18,129.71,233.06Zm5.64-5.29a5.77,5.77,0,0,1-.64,3.26,5.6,5.6,0,0,1-3.24,2.19,7.25,7.25,0,0,0,.64-3.18,6.71,6.71,0,0,0,2.59-1.37A2.19,2.19,0,0,0,135.35,227.77Zm-.63-2.76,0,.13a4.27,4.27,0,0,1-1.54,2.86s-.86.66-1.28.49-.31-1.09-.48-1.45h0a25.66,25.66,0,0,0-1.31-2.54c-.24-.24.06-.33.33-.23S134.14,224.79,134.73,225ZM132,221.48c.56.41,1.47,1.14,1.39,1.41s-3.36-.2-3.71-.27a.89.89,0,0,1-.76-.5c-.22-.39-1.44-1.84-1.06-1.88A21.11,21.11,0,0,1,132,221.48Zm-4-3.61c1,.34,1.29.65,1.39.95a.41.41,0,0,1-.3.4,4.27,4.27,0,0,1-2.57-.56,4.66,4.66,0,0,1-1-1.05A10.52,10.52,0,0,1,127.93,217.87Zm-1.61-5.24c-.76.5-2.63,1.33-6.78,1.45-6,.17-8-1.67-8-1.67a16.76,16.76,0,0,0,7.19.06,37.9,37.9,0,0,0,8.57-3A32.28,32.28,0,0,1,126.32,212.63Zm1.44-5.62,0,.27c-.68.63-2.38,1.46-7.77,1.46-7.64,0-9.08-1.61-9.08-1.61a26.46,26.46,0,0,0,9,.23,18,18,0,0,0,7.83-2.94A4.51,4.51,0,0,1,127.76,207Zm7-39.37s0,8.22-.57,10.63a8,8,0,0,1-1.44,3c.06.23.8.11,1.15,2.53s-.11,10.75-.8,13a7.46,7.46,0,0,1-3.91,4.71,10,10,0,0,0,2.3-4.94c.52-3.1.06-5.63-.17-5.63s-.23,3.22-1,5.69-4.08,5-5.92,5.92a1.81,1.81,0,0,0-.28.17,8.8,8.8,0,0,1-4.38,1c-2.82-.06-4-.06-4.94-4a14.36,14.36,0,0,1-.34-2.18v-.06a5.38,5.38,0,0,0-.12,3,10.81,10.81,0,0,0,1,2.82c.29.34-1.9-.17-2.87-1.32s-2.24-3.68-3.28-10.69c-.44-3-2.5-16-3.19-20.23-.43.15-1,1.27-1,1.34,0,.24,1.07,8.18,1,8.43.36,2,.66,3.89.83,5,.52,3.51,1.72,11.21,1.84,13s0,2.59-2.87,3.79-7.87,2-10.92.46a12.69,12.69,0,0,1-2-1.72c-.8-.92-3.62-7.87-3.79-7.76a19,19,0,0,0,1.81,6.08,1.33,1.33,0,0,1,.14.75c-.06.4-1.49.12-2.53-2.18a22.19,22.19,0,0,1-1-2.92l22.55-29.09s.22-.28.24-.28,4.56.16,7.18,0a20.61,20.61,0,0,0,3.27-.29c3-.57,11-2.49,12.34-2.57s1.53.84,1.69,2.26Zm-1.53-6.46a24.06,24.06,0,0,1-3.92,1c.08,0-.45,0-.64-.06s3.22-4.56,4.1-9.16c0,0,2.8,3.72,3.22,6.32C135.94,159.26,135.71,160.14,133.18,161.17Zm15-11.87a3.25,3.25,0,0,1-.44,1.51,6.76,6.76,0,0,1-2.38,2c-.76.35-.09.34.21.31a4.7,4.7,0,0,0,2.34-1.34,4.57,4.57,0,0,0,1-1.72,8.15,8.15,0,0,1,.78,1.09,20.68,20.68,0,0,1,1.4,3.31,3.08,3.08,0,0,1-.41,1.18,6.76,6.76,0,0,1-2.38,2c-.76.35-.09.34.21.31a4.7,4.7,0,0,0,2.34-1.34,5.78,5.78,0,0,0,.65-.91c.19.64.35,1.24.46,1.71a24.42,24.42,0,0,1-.13,6.89,18.47,18.47,0,0,1-1.25,4.56l-.09,0a6.76,6.76,0,0,1-3.1-.45c-.76-.33-.32.15-.09.36a4.7,4.7,0,0,0,2.55.87h.39a12.83,12.83,0,0,1-2.12,3.37,3,3,0,0,1-1.06.14,6.76,6.76,0,0,1-2.92-1.13c-.67-.5-.34.08-.17.33a4.7,4.7,0,0,0,2.3,1.41,5.86,5.86,0,0,0,.93.13,21.82,21.82,0,0,1-5.16,3.26,3,3,0,0,1-1.09-.25,6.76,6.76,0,0,1-2.33-2.09c-.45-.7-.35,0-.28.25a4.7,4.7,0,0,0,1.65,2.13,5.83,5.83,0,0,0,.89.48,37.28,37.28,0,0,1-5.39,1.78c.32-2,.8-4.56.91-5.35l.05-.36a17,17,0,0,0,4-1.75,6,6,0,0,0,.28.62,4.93,4.93,0,0,0,2,1.93c.3.11,1,.3.29-.25a7,7,0,0,1-1.9-2.62l0-.11.36-.27a15.33,15.33,0,0,0,2.46-2.61,5.77,5.77,0,0,0,.88,1,4.93,4.93,0,0,0,2.55,1.15c.32,0,1,0,.19-.33a7,7,0,0,1-2.66-1.84,2.92,2.92,0,0,1-.43-.81,6.86,6.86,0,0,0,.93-2.22,14.54,14.54,0,0,0,.21-1.52,5.88,5.88,0,0,0,1,.76,4.93,4.93,0,0,0,2.72.64c.32-.06,1-.23.13-.36a7,7,0,0,1-3-1.3,3.14,3.14,0,0,1-.78-1.11,16.88,16.88,0,0,0-.17-2.93,5.88,5.88,0,0,0,1.2.3,4.93,4.93,0,0,0,2.75-.53c.26-.18.8-.62,0-.38a7,7,0,0,1-3.24,0,3,3,0,0,1-1-.56c-.1-.23-.22-.51-.38-.8a5.74,5.74,0,0,0,1.35-.38,4.93,4.93,0,0,0,2.1-1.85c.13-.29.38-.94-.22-.31a7,7,0,0,1-2.78,1.66,2.93,2.93,0,0,1-.95.06A10.52,10.52,0,0,0,142,154.8a4.4,4.4,0,0,0,.69-.5A4.86,4.86,0,0,0,144,151.9c.17-.64-.09-.78-.26-.19a5.54,5.54,0,0,1-2.12,2.34,1.1,1.1,0,0,1-.55.09c-.35-.23-.73-.45-1.15-.67l-.69-.44s-.39-.28.22-.66a.42.42,0,0,0,.11-.1,10.25,10.25,0,0,0,2.78-3.05,12.21,12.21,0,0,0,1-2.89c0-.24.38-.36.82,0a7.17,7.17,0,0,1-.06,2.18c-.22.9-.32,1.3-.07,1.2a2.58,2.58,0,0,0,.81-1.45,4.21,4.21,0,0,0,.1-1.42A20.2,20.2,0,0,1,148.19,149.3Zm2.94-10.59c-.31.19-.91.2-1.67-1.1s-1.79-1.1-1.79-.85,0,.38.5,1a5.54,5.54,0,0,1,1.16,3,4.6,4.6,0,0,1-1,3.62c-.77.82-1.35,1.37-1.46,1.46a21.72,21.72,0,0,0-4-2.65c-.21-.17-.32-.47-.2-.64a1.13,1.13,0,0,1,1.29.15c.8.54.58-.43.54-.68a17,17,0,0,0-1.23-4,18.48,18.48,0,0,0-4.88-6c-2.6-2-6.53-2.25-7.49-2.27s-2.83.83-3.46.91-1.34-.25-1.67-.06-.41.47,0,.94.77.77.72,1.35a7,7,0,0,1-1.09,1.81c-.34-.08-1.07-.4-1.39-1.72-.42-1.75,1.15-3.76,1.82-4.34a7.69,7.69,0,0,1,5.35-2.45,10.32,10.32,0,0,1,4.69.6c.27,0,.64-.06-.19-.79a5,5,0,0,0-3.27-1.32,10.88,10.88,0,0,0-2.89.13s-.64.14,0-.47,2.11-2.72,7-2.86,9.25,1.56,11.42,5.38,3.43,7,3.65,9S151.44,138.53,151.13,138.72ZM124.35,80.33h0l.35.2c.84.48,4.79,1.94,6,2.68s3.22,2.34,4.48,3c.64.32,1.27.65,1.94,1A43.91,43.91,0,0,1,143,91.84a46.49,46.49,0,0,1,6,7.2,18.26,18.26,0,0,1,3.68,5.51c.94,2.58.71,3.9,1.1,5a17.89,17.89,0,0,1,1,5.32c0,1.75-1.7,9.94-1.7,9.94s-.88,4.53-1,5-.47-.06-.72-.6-2.83-5.1-4.59-6.57a12.58,12.58,0,0,0-8.81-2.71c-3.85.28-4.44.88-4.44.88s-1.42.64-.85-.76c0-.07,1.73-3.07,3.52-4.18a11.77,11.77,0,0,1,5.82-1.7s1.34-.24-.06-.63a8.49,8.49,0,0,0-3.21.09c-.25,0-.38-.25.09-.5s2.82-1.37,3.55-1.2.53-.57-.25-.76a6.45,6.45,0,0,0-5.28,2.3,11.81,11.81,0,0,0,0-2.2c-.09-.83-.2-2.33-.2-2.33.06-.56.15-1.24.29-2s.42-2.14.47-2.74.35-1.31,0-1.31c-.61,0-.61,1.65-1.05,1.81-.22.08-.66-.68-.71-1.7,0-.73-.35-2.27-.49-3.22s-.27-2.06-.68-1.6,0,3,.13,4.66.69,6,.72,7.09a17,17,0,0,1-.06,1.9,12.22,12.22,0,0,1-.61,1.48l-.12.22,0,0c-1.19,2.5-3.38,6.45-3.65,6.77-.47.53-2.11,1.13-2.89,2.27s-.46,1.51-1.23,2.42-3.21,3.49-3.84,5.54-.72,4-.22,5a1.81,1.81,0,0,0,1.29,1,2.55,2.55,0,0,1-.94,1.51c-.82.69-2.77,2-2.77,2a6.13,6.13,0,0,0-1.86,1.29,17,17,0,0,0-2.8,3.74,3.3,3.3,0,0,0-.16,2.3,1,1,0,0,0,1.1.41l0,.06.22-.07c-.35.45-.63.84-.87,1.09-.61.63-3.25,3.45-3.91,4.17-.52,0-1,0-1.31,0h0s-8.93,0-11.8-.23-7.74-.84-9.89-1-8.16.11-9.66-.57-1.38-3.26-1.53-4.48a3.33,3.33,0,0,0-.11-.5c0-1.29-.09-4.11,0-5,.06-1.21.4-3.1.43-3.71s0-3.22,0-3.22a.73.73,0,0,0,.75-.14c.34-.32.29-1.49.23-1.64a12.26,12.26,0,0,1,4.05.46,47.58,47.58,0,0,0,9,.69A14.2,14.2,0,0,0,99.45,132a6.35,6.35,0,0,0,2.24-2.9,5.42,5.42,0,0,0,.57-3.22c0-.92-.34-1.64-.37-2.39a9.1,9.1,0,0,0,0-2.64,3.39,3.39,0,0,0-1-1.44,2.19,2.19,0,0,0-.57-2,4.06,4.06,0,0,0-2.3-1.21c-.44-.19-.7-.08-.63-1.1a.31.31,0,0,0,0-.15c-.09-.52.06-3-.17-4.94a3.69,3.69,0,0,0-1.61-2.82c-.32-.23-2.64-1.47-3,1.38a14.85,14.85,0,0,1-1.93,5.95c-.8,1.52-3.25,2.85-4.51,3.48a3.53,3.53,0,0,1-3,.37c-.78-.32-.86-.89-.92-1.52a6.08,6.08,0,0,0-.63-2.67,4.87,4.87,0,0,0-2-1.67c.49-2.73.29-10.46.34-11.27s.11-3.45-.17-3.36-.57,2.41-.57,3.82-.09,2.27-.86,2.47-1.32-2.3-1.55-2.1-.11.34.17,1.78a13.35,13.35,0,0,1-.24,4.55,1.59,1.59,0,0,1-1.38,1,16.74,16.74,0,0,1-3.22-.46,18.23,18.23,0,0,0-7.51,1.23,10.16,10.16,0,0,0-3.49,2.91c-.27.57-3.18,3.72-3.56,5.06s-1.42.8-1.49.08a19.92,19.92,0,0,1,.11-4.14c.23-1.8,1.38-4.18,1.72-5.52a41,41,0,0,1,2-6.32A19.25,19.25,0,0,1,64,97.09c1.07-1,6.51-4.79,7.74-5.79a40.25,40.25,0,0,0,3.37-3.64c.42-.42,3-2.8,3-2.8a19.43,19.43,0,0,1,6.58-3.29s1.09-.09,1.52-.14,4.54-1.64,5.12-1.72a1.41,1.41,0,0,1,1.39.4,7.22,7.22,0,0,0,1.75,1.11,2.52,2.52,0,0,0,.8.19h0a4.23,4.23,0,0,1,2,2.77,68.51,68.51,0,0,1,.48,8.23h0A67,67,0,0,0,99,102.1c.49,1.65,1,1.7,1,1.7h0a16,16,0,0,0,3.64,1.58c2.69.86,2.63.63,3.85.62a7,7,0,0,0,2.93-.81v0a3.43,3.43,0,0,0,1.15-.64,2.06,2.06,0,0,0,.49-1.35L112,91s.17-6.35,1.09-7.87A7.05,7.05,0,0,1,114.83,81l.66-.31h0a5.32,5.32,0,0,0,1.06-.63,9.92,9.92,0,0,1,2.41-.85A9.16,9.16,0,0,1,124.35,80.33Zm-5.78-3a25.85,25.85,0,0,0-.38-3l.07,0,2.27-1.3h0a25.77,25.77,0,0,0,5.09-2.85,71.42,71.42,0,0,0,7.59-6.38c.21-.24.5-.61.83-1-.21.71-.55,1.82-.89,2.65a21.08,21.08,0,0,1-2.62,5.35C128.91,73.18,123,76.27,118.57,77.38Zm20.15-7.59c-.57,2-3.16,3.51-4.94,4.4a2.81,2.81,0,0,0-.5.31,19.54,19.54,0,0,1-7.14,1.88,20.2,20.2,0,0,0,3.76-2.47c1.75-1.49,3.31-4.71,4.4-8.25a35.92,35.92,0,0,1,1.93-5.35l.87-1.59.37-.51a10.29,10.29,0,0,1,2.13-3,10,10,0,0,0,1.34-1.64,12.72,12.72,0,0,0-.3,1.61,11.46,11.46,0,0,1-.86,3.65,9.06,9.06,0,0,0-1.21,3.39C138.4,63.57,139.29,67.83,138.72,69.78Zm2.64-.26-1.18,1.32a15.16,15.16,0,0,0-.14-4.14,7.92,7.92,0,0,1,.57-7.39l.06-.09a39.18,39.18,0,0,0,1.6,5.06A5.69,5.69,0,0,1,141.36,69.52Zm2.23-6.06a7.5,7.5,0,0,0-.88-2.33,9.39,9.39,0,0,1-.86-4.34,13.25,13.25,0,0,1,1.52-4.86,9.06,9.06,0,0,0,1.93-5v-.06c0,.83.11,7.4-.43,8.85,0,0,1.12-1.18,1.41-4.57a26.69,26.69,0,0,0-.14-6.78c-.2-1-1.12-3-1.21-5s.57-2.39.6-5.2a14.2,14.2,0,0,0-.34-2.94c.49.65,3.84,5.27,5,9.35,1.21,4.37.72,7,1,8.85a7.64,7.64,0,0,1-1.32,6.32c-1.85,2.91-5.2,5-6.18,7.69Zm4.66-29.66a27.31,27.31,0,0,1,4.43,5.57,18.39,18.39,0,0,1,1.21,8.31,10.5,10.5,0,0,1-1.64,4.3,35,35,0,0,0-.2-4,32.74,32.74,0,0,0-1.24-7.87A30.69,30.69,0,0,0,148.26,33.8Zm9.08,15.78a22,22,0,0,1-2.76,7,60.34,60.34,0,0,1-4.14,5.78,37.24,37.24,0,0,1-6,5.32,8.71,8.71,0,0,1,.8-2.93,1.8,1.8,0,0,0,.16-.58,14.7,14.7,0,0,1,1.74-3.33c1-1.32,4.25-4.83,4.8-5.6a1.16,1.16,0,0,0,.14-.38A12.65,12.65,0,0,0,154,51.68a17.11,17.11,0,0,0,1-7.76,16.56,16.56,0,0,0-3.91-9.14A41.57,41.57,0,0,0,147,31a16.48,16.48,0,0,1-2.9-3.5c-.17-.5-2.24-5-2.56-5.82a14.92,14.92,0,0,0-2.7-5c-1.81-2.1-4.77-5.81-6.55-7s-5.25-3-5.25-3l-2.68-1.38s.19-.15,1.19.11,2.26.57,2.26.57,3.31.48,7.9,4a134.79,134.79,0,0,1,10.86,9.92c-.09.09,2.5,2.5,4.2,4.89s3.65,7.21,4.34,8.16a10.6,10.6,0,0,1,2.3,5.17A58.62,58.62,0,0,1,157.34,49.58Z" fill="#692f23"/></g></g></svg>