<svg xmlns="http://www.w3.org/2000/svg" width="34.04mm" height="34.25mm" viewBox="0 0 96.49 97.09"><title>Уборка после ремонта</title><path d="M10.81 78.72a4.71 4.71 0 0 0 0 6.66l9.33 9.33a4.71 4.71 0 0 0 6.66 0l9.79-9.79a4.71 4.71 0 0 0 0-6.66L23.93 65.6z" fill="none" stroke="#682f24" stroke-linejoin="round" stroke-width="2"/><g stroke="#682f24" stroke-linejoin="round"><path d="M93.42 8.49a2.17 2.17 0 0 0-.21-.23l-4.68-3a3.14 3.14 0 0 0-4.42.36l-60.16 60 13 12.93-.14-2.67 2.63-.17-.17-2.59 2.63-.17-.18-2.74 2.54-.16-.17-2.67 2.78-.18-.17-2.66 2.63-.17-.21-2.58 2.59-.17-.18-2.74 2.75-.09-.17-2.63 2.63-.17-.17-2.67 2.67-.17-.16-2.56 2.52-.16-.18-2.74 2.67-.17-.17-2.56 2.67-.17-.13-2.67 2.63-.17-.17-2.59 2.63-.17-.18-2.74 2.54-.17-.17-2.67 2.78-.18-.18-2.64 2.63-.17-.16-2.52 2.6-.17-.18-2.74 2.71-.17-.17-2.63 2.63-.17-.17-2.67 2.67-.17-.18-2.59 2.52-.16-.18-2.74 2.67-.17-.16-2.56 2.42-.91z" fill="#e2ddd3"/><path d="M10.81 78.72a4.71 4.71 0 0 0 0 6.66l9.33 9.33a4.71 4.71 0 0 0 6.66 0l9.79-9.79a4.71 4.71 0 0 0 0-6.66L23.93 65.6zm23 1.4a2.13 2.13 0 0 1 0 3l-8.83 8.84a2.13 2.13 0 0 1-3 0l-8.43-8.43a2.13 2.13 0 0 1 0-3l8.83-8.83a2.13 2.13 0 0 1 3 0z" fill="#f08119"/></g><path d="M95.99 10.24l-2.65-1.62h.2a.15.15 0 0 1-.21 0l-.21-.21-4.84-2.82a2.66 2.66 0 0 0-2.29-.49 2.92 2.92 0 0 0-1.06.51c-.15.12-.28.28-.43.41l-.51.53-3.88 4.07c-2.61 2.69-5.19 5.4-7.82 8.06s-5.24 5.35-7.89 8-5.28 5.31-7.95 7.94-5.32 5.27-8 7.88-5.37 5.22-8.08 7.81l-4.09 3.83c-1.37 1.28-2.71 2.58-4.09 3.85-2.76 2.54-5.48 5.11-8.27 7.61 2.51-2.79 5.09-5.5 7.64-8.25 1.27-1.38 2.58-2.72 3.86-4.08l3.89-4.05q3.89-4.05 7.83-8c2.61-2.68 5.26-5.33 7.9-8s5.3-5.29 8-7.92 5.34-5.25 8-7.86 5.39-5.2 8.09-7.8l4.08-3.86.49-.46a8.08 8.08 0 0 1 .58-.53 3.68 3.68 0 0 1 1.49-.6 3.5 3.5 0 0 1 3 .85l4.57 3.18.22.26h-.28a.14.14 0 0 1 .19 0z" fill="#682f24"/><g><path d="M48.15 16.99a9.24 9.24 0 0 0-2.2-1L16.09 2.9l-.06.05a9.29 9.29 0 0 0-13 13l13 29.87a9.29 9.29 0 0 0 15.52 4l18.41-18.41a9.26 9.26 0 0 0-1.81-14.42z" fill="#fde9d3" stroke="#682f24" stroke-linejoin="round" stroke-width="2"/><path fill="#fde9d3" stroke="#682f24" stroke-linejoin="round" stroke-width="2" d="M35.3 37.94l2.63-2.63 21.964 21.962-2.63 2.63z"/><path d="M87.81 92.26a4.42 4.42 0 0 1-3.14-1.3L59.38 65.67a1 1 0 0 0-.71-.29h-.16a8.63 8.63 0 0 1-1.35.11 8.16 8.16 0 0 1-2.51-.39 1 1 0 0 0-.37-.31 1 1 0 0 1-.32-.21 1 1 0 0 1 0-1.41l9.25-9.25a1 1 0 0 1 1.41 0 1 1 0 0 1 .22.32 1 1 0 0 0 .28.39 8.37 8.37 0 0 1 .28 3.86 1 1 0 0 0 .28.86l25.28 25.28a4.45 4.45 0 0 1-3.15 7.63z" fill="#f08119"/><path d="M63.9 54.66a2 2 0 0 0 .32.52 7.4 7.4 0 0 1 .18 3.18 2 2 0 0 0 .56 1.73l25.32 25.28a3.45 3.45 0 0 1-4.88 4.88L60.08 64.96a2 2 0 0 0-1.41-.59h-.31a7.63 7.63 0 0 1-1.19.09 7.2 7.2 0 0 1-2-.28 2 2 0 0 0-.51-.31l9.25-9.25m0-2a2 2 0 0 0-1.41.58l-9.22 9.3a2 2 0 0 0 0 2.82 2 2 0 0 0 .65.43l-.11.11a9.15 9.15 0 0 0 3.38.64 9.61 9.61 0 0 0 1.51-.12l25.28 25.29a5.45 5.45 0 0 0 7.7-7.7L66.41 58.69a9.31 9.31 0 0 0-.52-4.89l-.11.11a2 2 0 0 0-1.84-1.23z" fill="#682f24"/><path fill="none" stroke="#682f24" stroke-linejoin="round" d="M58.67 66.37l7.7-7.7"/></g></svg>