<svg xmlns="http://www.w3.org/2000/svg" width="300" height="250" viewBox="0 0 300 250"><g data-name="Слой 24"><path fill="none" opacity=".48" d="M0 0h300v250H0z"/><path d="M198.3 55.55l-.12-32.25 28.75.84.42 113.62-4.07 2s-12.15-14.4-12.27-14.67-5.14-7.22-5.32-7.52-7.39-62.02-7.39-62.02zM105.06 172.85a30.69 30.69 0 0 1-.3-4.1c-.06-2.71 0-145.33 0-145.33l70.1-4.28.12 30-.5 105.12-42.42 12-22.24 6.93s-4.16 1.34-4.76-.34zM53 22.28l35.26-.18.45 156.78s-33.81 10.71-34.09 10.76-1.72-2.08-1.72-2.08z" fill="#e6f8fc"/><path d="M101.38 25.8l.36 145s.77 2.17 2 2.35 1.08-2.17 1.08-2.17l.09-147s-2.91-1.34-3.53 1.82zM233.56 17.2l-.17 123.07 13.2 5.42 1.17-1.99-1.08-133.36-13.12 6.86z" fill="#e2ddd3"/><path fill="#e2ddd3" d="M198.58 7.99l46.47 2.08-9.4 6.33-4.07.27-33.55-.18.55-8.5zM52.83 11.43l44 .63 60.85-4.7-10-1.54-92.32-4.07a3.19 3.19 0 0 0-2.62 3.16 57.28 57.28 0 0 0 .09 6.52zM227.13 143.87l7.19-2.82 12.33 5.28-1.27 1.56-18.99 5.79.74-9.81zM54.15 197l110.15-34.78.48 3.32s-.84 5-.84 5.18v3.59L53.7 212.21l-.9-13.74z"/><path d="M233.57 18a3.69 3.69 0 0 0-2.65-1.18c-2-.24-32.88-.36-32.88-.36l.15 6.81 28.33.78.24 42.25.42 70.7-.48 1.75-3.44 1.15 1.77 4s5.28-.93 5.77-1.32 2.83-2.38 2.83-2.89L233.57 18z" fill="#f5f7f7"/><path d="M232.79 151.46l13.68-3.66a2.4 2.4 0 0 1 .27 2.08c-.47.9-14.4 5.77-14.4 5.77zM54.55 216.55l84.87-29.72-8.8-1.08-76.74 25.91s-2.56 6.57.67 4.89z" fill="#e2ddd3"/><path fill="#c7c0b1" d="M213.74 170.79l5.9-2.58 4.21 1.44-9.16 4.28-.95-3.14z"/><path d="M214.07 174.06l1.68 17.75 4.69-1.55s2.37-.21 3-2.14.43-11.41.43-11.41l-.54-6.09zM116.57 222.88l13-4.28 37-12.5-.78-9.83-1.91-7.8-46.76 16s-.87.24-.9 4.88-1.04 14.79.35 13.53z" fill="#e2ddd3"/><path d="M111.09 204.43l.18 16.4 4.46 2 .42-17.06s-4.82-2.77-5.06-1.34z" fill="#c7c0b1"/><path d="M154.91 188c-.15-.06-43 14.89-43 14.89l1.81 1.75 2.83.48 44.72-15.85.42-1.27z" fill="#c7c0b1"/><path d="M224.25 170.14s-.08-.86-1.51-1.51a14.67 14.67 0 0 0-2.2-.83c-1.4-.5-5.33 1.58-7.65 2.75.17.34.2.52.35.85 0 0 4.53-2.45 6-2.64.89-.11 3 .7 3 1.08 0 .58-6.62 2.89-8.39 3.54.08.36.16.65.23 1.07l8.34-3s.5-.11.6 1.51c.15 2.35-.06 14.17-.06 14.17s0 1.88-.81 2.14c-1.42.44-5.49 1.74-6.41 2 .07.39.1.73.14 1l7.46-2.59s.63.08.7-2.5c.09-1.92.21-17.04.21-17.04zM199.88 107.63V93.22a1.09 1.09 0 0 0-1-1.21l-3.16-.01c-2.09 0-2 .6-2 1.69-.05 3.7 0 12.66 0 14.47 0 1.58.84 1.81.84 1.81s2.59.09 4 0 1.32-2.34 1.32-2.34zm-1-.06c0 1.19-.53 1.22-.53 1.22a20.3 20.3 0 0 1-2.8 0c-1-.12-.83-1.34-.83-1.34s0-12.42.06-13.44c0-.6.2-1 1.3-1 1.7 0 2.42 0 2.68.35a1.43 1.43 0 0 1 .13.8s.03 12.41.03 13.41z" fill="#692e21"/><path d="M189.88 238.39s1.23-3.48 2-3.94a16.54 16.54 0 0 1 5.6-1.66c3.08-.49 7.66-1 8.37-.74s2.62.62 3.69 1.54a22 22 0 0 1 2.89 3c1 1.2 2.75 2.22 2.68 5.2a7.2 7.2 0 0 1-1.32 4.1c-.15.17-2 1.27-8.31 2.34-.18 0-9.08.46-11-.06s-3.63-2.89-3.63-2.89-1.78 2.71-4.37 3-2.89.25-2.89.25-5.91-.28-11.08-.37-5.11-1.88-5.91-2.83-2.06-3.66-1.17-5.42 3-3.91 3.63-4.92 3.48-3 4.86-2.83 7.39.68 8.37 1 5.88.12 6.4 1.85 1.19 3.38 1.19 3.38z" fill="#efb000"/><path d="M230.15 162.74c1.58-4.46 4.68-14.14 4-18.87-1.46-9.89-1.9-11.59-9.29-18.62-1.29-1.23-8.1-6.31-10.42-8.89a13.41 13.41 0 0 0-2-1.54 59.3 59.3 0 0 0-7.66-3.22c-.52-.09-6.34-.9-6.34-.9s-.09-.78-.19-1.55h-9.18c-.62.06-1.25.1-1.89.14a39.89 39.89 0 0 1-5.21-.14h-6.47v2.59s-3.62.71-3.74.85a20.19 20.19 0 0 1-2.51.61l-3.69 1c-1 .43-.47 1.7-.47 1.7s-.25 5.19-2.88 6.8c-6.67 4.08-6 10.81-8.09 7s-3.54-2.55-4.32-4.1c-2.26-4.5-4.08-3.19-4.08-3.19s-1.36 1.83-4.31-.42c-1.14-.47-2.37 4-2.37 4s-2.94 3.4-4.19 5.22a34.23 34.23 0 0 1-2.91 3.66s-3.25 3.13.38 5.69c2.22 1.56 4.47 5.73 4.66 5.78s4.12 2.89 4.09 2.63 8.54 7.94 9.72 8.5 10.8 1 11.94-1.59 1.81-14.66 2.67-17.12 1.18-13.33 1.18-13.52 6.57-.95 6.57-.66.47 4.13 3.71 5.12 23.86-.18 25.56-1.19 1.44-6.5 1.61-6.48 4.63 0 4.63 0-.95 9.29 1 11.21 4.54 7.23 4.68 7.42-.17 10.73.19 16.71c.4 6.54 2.34 8 2.84 10 3.59.51 6.44-.25 8.27-1.92 1.42-.54 4.26-2.02 4.51-2.71z" fill="#fff"/><circle cx="166.67" cy="123.42" r="4.11" fill="#fd8204"/><circle cx="201.19" cy="128.05" r="4.11" fill="#fd8204"/><path d="M209.1 112.33a4.11 4.11 0 0 1-8.14-.83c2.89-.65 8.19.56 8.14.83z" fill="#fd8204"/><circle cx="160.39" cy="142.69" r="4.11" fill="#fd8204"/><circle cx="217.12" cy="135.75" r="4.11" fill="#fd8204"/><path d="M217.08 119.39a4.11 4.11 0 1 1-6.11-5.5c.75-.76 6.7 4.79 6.11 5.5z" fill="#fd8204"/><path d="M166.08 119.19c-.19 0-1.36-3.92-1-4.41s2.21-2 3.09-1.26 2 4.29 2 4.29a5 5 0 0 1 1.89 1.26 12.23 12.23 0 0 1 1.13 3.85 12 12 0 0 0 .38 3.09c.35.88 1.32 2.71 2.33 3.22s5.61.76 5.61.76 17.56.32 19.55-.57 2-1.67 2.21-2.84.65-4.43.65-4.43-2.16-1.09-1.84-3 2.11-3.44 2.14-4.16-.38-3.18.46-3.33 3.55-.84 3.83.8a22.11 22.11 0 0 1 .19 4.22c0 .28.62.52.88 2 .49 2.81-1 3.4-1 3.4s-1 8 .08 9.39a70.27 70.27 0 0 1 4.54 6.24c.88 1.58 2.08 13.27 2.33 14.82s1.45 14.69 1.45 16.83-.54 12.29-.82 15.76a89.34 89.34 0 0 1-2.52 13.68c-.82 2.4.16 14.47 0 17.4s-.6 6-.82 8.32.28 7.57-.22 8.13-1 2.43-1.23 2.33-2.55-2.55-4.54-2.71a64.11 64.11 0 0 0-13.8 1.3c-.93.24-1.27.37-1.4-.48s-.13-17.43-.44-18.73-1.3-4.67-1.3-4.67-1.6 9.43-1.53 11.54 0 11.92-.32 12.23-11.47-1.34-12.61-1.32c-4.39.08-7 2.84-7.31 2.65s-.23-2.08-.76-3.43c-.34-.87-.22-10-.25-12s-.73-14.69-.76-15.76a38.82 38.82 0 0 0-.5-6.62c-.47-1.92-2.62-11.88-2.65-13.37s.19-10.91.32-12a17.24 17.24 0 0 0-.25-4.6 28.71 28.71 0 0 1-.63-5c0-.85 1.17-9.1 1.17-11s-.46-7.42-.19-8.09a37.07 37.07 0 0 0 2.56-10.65c0-1.23.57-6.18.33-7s-1.75-3.89-1.4-4.52.97-1.56.97-1.56z" fill="#7a4c2c"/><circle cx="140.06" cy="143.41" r="4.11" fill="#fd8204"/><path d="M153.29 158.49a4.11 4.11 0 0 1 7.84-1.75c.25.54-4.72 1.9-7.84 1.75zM175.62 133.49s-.19 2.91.19 3.26 27.47 0 27.47 0l-.28-4-27.38-.09z" fill="#fd8204"/><path d="M182.41 109.14c.66.07 1.33.13 2 .18a25.89 25.89 0 0 0 4.82-.18zM198.42 109.14c.08.8.19 1.54.35 1.48a13.46 13.46 0 0 1 2.58-.48h3.87a19.37 19.37 0 0 0 4.88-1z" fill="#e09c51"/><path d="M180.27 109.14a46.87 46.87 0 0 0 11.51 0z" fill="#fbdfcb"/><circle cx="178.85" cy="111.18" r=".53" fill="#692f23"/><circle cx="182.51" cy="110.74" r=".52" fill="#692f23"/><ellipse cx="185.77" cy="112.33" rx=".42" ry=".52" fill="#692f23"/><circle cx="189.41" cy="110.84" r=".56" fill="#692f23"/><circle cx="193.02" cy="111.26" r=".54" fill="#692f23"/><circle cx="196.6" cy="109.31" r=".54" fill="#692f23"/><circle cx="186.33" cy="116.26" r=".59" fill="#692f23"/><circle cx="191.01" cy="118.35" r=".59" fill="#692f23"/><circle cx="186.94" cy="123.03" r=".59" fill="#692f23"/><circle cx="182.57" cy="126.29" r=".59" fill="#692f23"/><path d="M187.49 129.52a.58.58 0 0 0-1 0z" fill="#692f23"/><circle cx="191.09" cy="125.78" r=".59" fill="#692f23"/><circle cx="182.59" cy="119.22" r=".59" fill="#692f23"/><path fill="#692f23" d="M192.79 114.25zM203.74 132.61c-.19-.39-1.43-.46-1.43-.46h-16.09S177 132 176 132.07a.89.89 0 0 0-.95 1s-.08 2.66 0 3.63.88.88.88.88 26-.06 27 0 .95-.5.95-.5a35.83 35.83 0 0 0-.14-4.47zm-1.8 3.75H177c-1 0-1-.36-1-.36a17.61 17.61 0 0 1 0-1.88c0-.85.44-.82.44-.82h9.77s15.13.14 15.79.06.73.22.73.22v2.11c0 .68-.79.67-.79.67zM174.07 122.87s.03.02 0 0zM206.14 158.73l.05-16.55a.83.83 0 0 0-.81-.86c-1-.07-31.78 0-31.78 0s-1.25-.06-1.23 1.49 0 20.1 0 20.1a2.36 2.36 0 0 0 2.65 2.44l26.74-.09a4.45 4.45 0 0 0 3.24-1.36c1.48-1.34 1.14-5.17 1.14-5.17zm-2-16.27s.34.11.2 1c-.08.52-.44 2.9-.93 3.46a3.43 3.43 0 0 1-2.27 1.16c-1 .08-25.13 0-25.13 0s-.5-.06-.76-.78-1.21-4.15-1.21-4.15-.22-.72.34-.73zm1 18.45a3.36 3.36 0 0 1-1 2.36 9.09 9.09 0 0 1-4.33.9h-24.68s-1.44-.06-1.49-1.39c0-1-.13-11.3-.09-16.57.25.82.47 1.53.54 1.72a2.42 2.42 0 0 0 2.39 1.44c1.62.07 24.61 0 24.61 0a3.37 3.37 0 0 0 3.05-1.63 12.58 12.58 0 0 0 1-2.67c.11.12.01 15.85.01 15.85z"/><path d="M217.25 163.21c-.21-2.85-.55-7.09-.75-8-.1-.46-.58-4.74-.65-5.3s-1-9.23-1.28-10.48c-.76-2-4.67-6.43-5-7.8-.41-1.58.28-8.43-.19-9.17.91-.36 1.13-1.17 1.1-2.27a3.16 3.16 0 0 0-.91-2.74s.23-2.53.22-3.74a18.45 18.45 0 0 1 2.92 1.83c.53.41 1 .8 1.47 1.18.18-.24.36-.47.56-.7a33.94 33.94 0 0 0-5.09-3.12 4 4 0 0 0-2.74-1.88 5.61 5.61 0 0 0-2.5.06c-.37 0-.58 0-.53-.19a41.83 41.83 0 0 0 6.73-1.38c.36-.1.7-.21 1-.32h-4.66a6 6 0 0 1-1.41.05l.13-.05h-4c-1.35.51-2.49.9-2.49.9H199l-.08-.93h-.64a1 1 0 0 1-.1.82.41.41 0 0 1 0 .13 1.24 1.24 0 0 1-1 1.23h-.05a.35.35 0 0 1-.31.16.36.36 0 0 1-.36-.29l-.15.08a5 5 0 0 0-2-2.11h-16.42c-.46.36-1.21.95-1.56 1.25v-.08c0-.27-.07-.77-.1-1.17h-1c.07.29 0 .69.05 1.1.29 1.19-.14 1.11-1.67 1.18a12.83 12.83 0 0 1-3.15.49h.34c-.59.24-1.45.54-2.38.89a36.15 36.15 0 0 0-4 1.29 1.35 1.35 0 0 0-.6 1.42c0 .06.66 1.94.64 1.87a13.44 13.44 0 0 0 .87 2.23 2.25 2.25 0 0 0-.95 2.43c.19.8 1.39 3.56 1.39 3.56s-.25 6.6-.44 9.71-1.1 4.67-1.51 4.89c0 1.3-.07 2.6-.17 3.91a81.52 81.52 0 0 1-.83 12.8c-.2 1.05-.21 2.2-.47 3.19-.08 1-.16 3.9-.1 5.15.05 1.08.43 6.42.64 8.43a41.9 41.9 0 0 1 .14 4.9 76.94 76.94 0 0 0 .67 12.28 25.51 25.51 0 0 0 1.35 4.22c.17 1.07.26 3.33.32 5.33.07 2.17.1 6.57.06 8.81a26.53 26.53 0 0 0 .65 6.29 25 25 0 0 1 .6 4.27s.11 6.43.17 6.79a9.64 9.64 0 0 1 .06 2.52 17 17 0 0 0 .19 3.25 10 10 0 0 0 0 2.18 1.29 1.29 0 0 0 .94.83 7.49 7.49 0 0 0-1.65 1.21 5.79 5.79 0 0 0-1.76 2.85 10.64 10.64 0 0 0 .2 4 5.47 5.47 0 0 0 3.43 3.9 21.68 21.68 0 0 0 5.36 1.39 93.14 93.14 0 0 0 10.75.24 16.17 16.17 0 0 0 4-.51 3.22 3.22 0 0 0 1.76-2 7.17 7.17 0 0 0 1.37 1.53c.78.61 7.59.88 7.63.88s7.59.11 12-1.35a7.28 7.28 0 0 0 3.78-2.33A6.66 6.66 0 0 0 216 241c0-2.37-1.34-3.44-2.15-4.35a12.2 12.2 0 0 0-1.74-1.22 5.24 5.24 0 0 0 .52-1.05c.16-.63 0-1.16.07-1.71a48.14 48.14 0 0 0 .63-5.58c0-.87.74-3.64.66-5.14s.24-7.41.32-8.57 0-8.28 0-8.28a28.55 28.55 0 0 1 .3-5.39c.21-1 .91-1.37 1.14-4.27a21.91 21.91 0 0 0 .39-3c.14-1.88.32-2.91.45-4.54.39-4.82.86-9.82.93-10.69.13-1.58.22-3.89.22-4.25-.01-.12-.32-9.19-.49-9.75zm-12.35-49.64c0-.88.28-1.32.71-1.28s2.14.08 2.19 1.28a25.32 25.32 0 0 1-.14 2.92 19.66 19.66 0 0 0-2.81-.58c.01-.62.04-1.76.05-2.34zm-.38 3.78c4.1 0 4.73 1 4.73 1a5.36 5.36 0 0 1 0 2.27 1 1 0 0 1-1.13.66 15.21 15.21 0 0 0-2.59-.09 7.51 7.51 0 0 1-2.46-.5c-.5-.41-.61-1-.38-2.27s1.65-1.07 1.83-1.07zm-5.74-5.54a12.3 12.3 0 0 1 4.84-.15 2 2 0 0 0-.17.67v3.44c-.93 0-1.23.79-1.51 1.45a6.57 6.57 0 0 0-.25 3.5 3.75 3.75 0 0 0 1.54 1.64s-.44 2.76-.54 3.85-.16 2-1.1 2.55-7.69.66-7.69.66h-.9c-.11-4.57-.27-11.32 0-12 .47-1.05 1-3 1.67-3.45a9.05 9.05 0 0 1 4.1-2.16zm-3.53-.1c-.21.07-.4.14-.53.2-.49.22-2.68.87-4.14 1.26.67-1 2.07-3.7 2.07-3.7a10.08 10.08 0 0 1 2.59 2.24zm-8.88 6.94l-.09-.05a18.71 18.71 0 0 1-3.29-2.2 10.22 10.22 0 0 1-1.21-1.78c2.13.15 5.85.27 7.37.27.12 0 1.33-.25 2.62-.49-1 .73-2.85 2-3.28 2.3s-1.39 1.3-2.13 1.96zm0 1.3a36.77 36.77 0 0 0 5.23 1.94A34.28 34.28 0 0 1 187 126a19.69 19.69 0 0 1-4.35-3zm-.91-.54l.28-.21a1.2 1.2 0 0 1-.28.21l-3.91 3.12c-.08-2.48-.47-5.54-.5-6.27 0-.95.1-.61.1-.61a10.46 10.46 0 0 0 4.34 3.77zm-3.94 5.12v-.79c.48.39 3.3 2.59 4 3h.08c-1.19.65-3.07 1.45-3.8 1.76a16.64 16.64 0 0 1-.24-3.96zm5.37 2.79a31.39 31.39 0 0 0 4.67 1.49l-.57.63h-8.17a34.85 34.85 0 0 0 4.1-2.11zm1.19-.83a23.08 23.08 0 0 0 3.87-3.27c.05 1.43.11 3 .15 4.45a17 17 0 0 1-3.99-1.17zm3.79-7.83v2.06a38.75 38.75 0 0 1-4.52-1.57l5.16-4.16a16.34 16.34 0 0 0-.61 3.68zm-.39-9.1a28.06 28.06 0 0 1-1.94 3.11 32.12 32.12 0 0 0-2.48-2.73 28.63 28.63 0 0 0 4.46-.37zm-2.86 4a36 36 0 0 1-5.57 0l2.63-3.46c.74.34 2.51 2.78 2.97 3.44zm-4.91-3.63h.61c-.42.7-1.69 2.75-1.77 2.52s-1.24-2.07-1.74-2.85c1.11.15 2.19.27 2.94.31zm-4.3-.52c.12.22 1.65 3.11 2.17 4a10.73 10.73 0 0 1-2-.46 6.81 6.81 0 0 1-2.83-1.63 30.59 30.59 0 0 0 2.69-1.94zm-9.16 4.4l2.21-.78h.08l1.87-.8c.61.28 1.62.74 2.42 1.08.25.13 1.06.43 1.84.71a3.86 3.86 0 0 1 .81.88 4.94 4.94 0 0 1 .68 2.38c0 1.39.58 8.65.58 10.35a9.93 9.93 0 0 0 .24 1.91h-1.31c-1.32-.06-4.46-1.14-4.95-1.89a13.13 13.13 0 0 1-.93-3 1.13 1.13 0 0 0 .47-1.41s-1.06-3.77-1.36-4.36-.53-.68-1.23-.56c-.1-.6-1.5-4.48-1.39-4.53zm2.18 9.21a4.89 4.89 0 0 1-2.62 1.1c-1.5.27-2 .45-2.93-.28 0 0-1-1.59-.84-2.43a2.25 2.25 0 0 1 .47-.75 4.44 4.44 0 0 1 1.35-.61 23.2 23.2 0 0 1 2.77-.54s1-.24 1.23.44.66 2.24.66 2.24.12.6-.06.81zm-6.78-7.47c-.13-.73.9-1.39 1.73-1.54s1 .2 1.2.6 1.25 3.24 1.49 4c-1.06.18-2.51.51-3.11.61a26.88 26.88 0 0 1-1.28-3.7zm2.24 114.4c.28-.57 1.48-.8 2.68-.91a35 35 0 0 1 5.3-.22c1 .22 7.79.82 9 1s2.8-.18 3 .61a6.9 6.9 0 0 1 0 1.91c-.22.52-.63.63-2.59.53s-7.28-1.26-9.84-1.51-4.85 1.32-5.55 1.67-1.51.77-1.45.25a6.63 6.63 0 0 0 0-1.48c-.13-.48-.81-1.31-.52-1.87zm-1.47 9.21a7.05 7.05 0 0 1 2.16-3.14l2.4-2.22a6.36 6.36 0 0 1 4.13-1.13c1.25.14 7.55 1.1 8.57 1.2s3.5.36 4 1.26a15.27 15.27 0 0 1 1 5 16.34 16.34 0 0 1-.06 2c0 .74-.57 1-1.39 1.17 0 0-2.33.13-2.63.18-.81.14-9.15.23-9.15.23a24.93 24.93 0 0 1-4.41-.55 24.08 24.08 0 0 1-2.72-.9c-2.4-1.18-1.87-3.13-1.87-3.13zm22.3 6.8c-.09.11-.25.77-3 1.45a45.35 45.35 0 0 1-7.43.42c-5.28-.28-8.22-.8-8.9-1.1a5.2 5.2 0 0 1-3.55-4.46v-.11a6.82 6.82 0 0 0 2.73 1.62c0 .06 1.71.47 1.77.49a20.61 20.61 0 0 0 5.66.73c0 .06 9.77.28 12.44-.57a3.81 3.81 0 0 0 .7-.3.61.61 0 0 1 0 .15 1.75 1.75 0 0 1-.39 1.65zm1.17-8.5a8.45 8.45 0 0 1-.6-2.71 1.76 1.76 0 0 0 .36-1.3c0-1.09-.44-4.46-.45-4.57s.19-5.39.09-6.65-.13-4.13-.13-5.3a35.63 35.63 0 0 1 .73-4.82l.09-.38a17 17 0 0 1 .61 4v12.61c0 1.2 0 5.36.38 6a4.83 4.83 0 0 0-.73 1.73c-.11.93-.13 1.5-.32 1.36zm24.47 4.77a4.68 4.68 0 0 1-1.64 3.38c-1.91 1.3-3.84 1.47-7.24 1.75-3.16.26-8.7.49-12.4-.28a2.75 2.75 0 0 1-2.1-3s1.77.76 8.85 1 9.36-.55 10-.76a22.92 22.92 0 0 0 2.72-.93 6.76 6.76 0 0 0 1.85-1.19zm-.86-3c.34.8.41 1.69 0 2-2 1.89-4.86 2.22-7.6 2.36s-12.77.79-14.5-1.09a5.33 5.33 0 0 1-.6-2.37 6.94 6.94 0 0 1 .32-2.11c.22-.57-.19-.93.22-2a3.85 3.85 0 0 1 2-1.83 11.7 11.7 0 0 1 3-.79c2.62-.54 6.43-.85 7.69-1.07s4.05.44 4.67 1.1.84 1.64 1.7 2.14a12.84 12.84 0 0 1 3.13 3.66zm-20.81-10.32a49.24 49.24 0 0 0 5 .6c2.16.08 7.42-.6 8.36-.62s3.31-.49 4.57.52c0 0 1.11 1.23 1 1.89a19 19 0 0 1-.63 1.8c-.26.57-.45.9-.87.71a5.1 5.1 0 0 0-4-2.47c-2.47-.28-8.57.91-8.57.91-2.76.39-4.55.68-4.75.51a3.1 3.1 0 0 1-.77-2.4c.11-.94-.03-1.52.7-1.44zm21.91-35.34a36.19 36.19 0 0 1-1.29 4.41 8 8 0 0 1-1.42 2.49s-.31.32.44.73c.58.32.55 2.45.52 3.88 0 0 .08 5.5 0 8.35s-.61 9-.66 10.31a31.13 31.13 0 0 1-.47 4.41c-.14.27-.84-.49-2.08-.69s-7.46.76-9.11.73a40.58 40.58 0 0 1-6.08-.38 9.28 9.28 0 0 0-2.27-.28s-.16-9.66-.13-10.59-.09-4.52-.47-5.23a60.41 60.41 0 0 1-1.15-9.74c0-2.05.08-5.7.2-8.79.15-.24-.11-6.41-.11-7.71s0-1.61-.35-1.56-.36 3.93-.71 4-1.17-1.88-1.64-1.88.19 1.94.57 3a25.39 25.39 0 0 1 .59 4.16c.05 3.71-.08 10.22-.08 11.44 0 1 .06 4.13-.23 7.1a31.39 31.39 0 0 0-.81 6c0 2.24.16 9.22-.35 10a1.82 1.82 0 0 1-1.89.95c-.95 0-9.65-.69-10.37-.73s-3.5 0-3.5 0-2.7-.13-3.53.41c0 0-.43-8.57-.52-9.87 0-2.6-.24-6.7-.41-7.91a52.2 52.2 0 0 1-.1-8.28 2.43 2.43 0 0 1 1-1.39c.24-.27-.24-.37-.58-1a21.14 21.14 0 0 1-1.12-3.94 7.43 7.43 0 0 1-.1-.83s-.89-3.23-1.12-4.22a53 53 0 0 1-1-6.4c0-1.39-.33-4.79-.16-6.59s1.12-1.44 1.89-1.36c1.16.13 5.28.49 8.13.88 2.58.35 14.48 1 20.9.83a62.18 62.18 0 0 0 12-1.49s6.23-1.07 7-1.39 1.83-.54 1.92.6-.95 16.27-1.31 17.58zm.5-20.24c-1.17.82-5.31 1.65-7.69 2.18a155.49 155.49 0 0 1-18.95 1.26c-5.39-.08-21.56-1.63-23-2.1a2.3 2.3 0 0 1-1.46-2.86c.18-1 1.86-.77 2.62-.61a161.69 161.69 0 0 0 18.88 1.72c5.2 0 17.48-.19 21.44-.66a35.48 35.48 0 0 0 8-2.14.81.81 0 0 1 1 .44s.37 1.96-.8 2.78zm.91-5.77a1.72 1.72 0 0 1-1.17 1.54c-.52.25-5 2.14-17.09 2.77S168 170 167 170a3.08 3.08 0 0 1-3-2.13 57.36 57.36 0 0 1-.66-6 59 59 0 0 1 .34-6.57c.33-2.4.58-11.77.58-11.77A54 54 0 0 0 167 133c.24-1.86.22-6.92.47-7.38s2.19-.5 2.78-.57 2.11-.42 2.21-.12 1.54 3.83 2.33 4.41 4.48 1.15 6.21 1.17 14.33 0 17.72-.19 3.92-.47 4.85-1.58.73-6.37.73-6.37h2.2s1.4-.11 1.42.91-.13 5.17 0 6.78a9.27 9.27 0 0 0 2.27 4.79 16.52 16.52 0 0 1 3 3.86c.38 1.72 1 4.31 1 5.28.08 1.28.35 4.17.35 4.17 0 1.79.13 4 .18 4.74.1 1.49 1.39 9.45 1.36 12.77v1.77a.5.5 0 0 0-.02.13z" fill="#692f23"/><path d="M145.62 77.33s-.61-6.22 1.67-9.85a66.33 66.33 0 0 1 6.37-8s5-3.18 5.46-3.49l4.7-3.18a62 62 0 0 1 7.28-3.64c2.27-.76 7-3.64 10.91-2.88s8.34-.3 8.79 0a13.33 13.33 0 0 0 3.94 1.06c2.43.45 7.87 1.25 10 1.82 4 1.06 10 5.31 10.76 5.91s8.64 9.1 10.31 11.82 8 7 5.31 23.5-29.26 21.22-29.26 21.22a4.4 4.4 0 0 1-2 0c-.69-.19-.73-.58-.91-.77l.45-3.64s8.79-6.67 9.55-7.58 5.76-6.67 6.37-9.1c0 0 3.39-2.43 3.69-3.84s.4-4-.71-4.55a10.86 10.86 0 0 0-2.53-.71 25.38 25.38 0 0 0-7.28-7.28c-4.45-2.73-3.13-2.53-3.13-2.53a32.64 32.64 0 0 1-5.66 1 49.51 49.51 0 0 1-6.87-1.21l-6.27 1.72-5.26 1.21-2.22-11a9.89 9.89 0 0 0-1.72 2.22 50 50 0 0 0-1.21 5.86c-.1 1-.91 1.92-1.72 1.62a16.12 16.12 0 0 1-5-1.07s-6.83.76-9.06 2.78-3.69 7.58-3.69 7.58-1.66-.2-2.37.81a5 5 0 0 0-.1 4.14c.51.71 1.41 2.53 2.22 2.53a4.41 4.41 0 0 1 1.93.8s6.47 10.11 7.58 10.71 7.18 5.56 8.19 6.06 1.52 1.21 1.52 1.62 1.41 2.63-1 2.73-6.87-.2-6.87-.2-7.18-2.53-9.5-4.35-8.49-7.48-10.51-10.71-4.24-7.78-3.44-11 .2-6.47.71-6.67.58-1.47.58-1.47z" fill="#df7c3c"/><path d="M178.55 63.92a6.31 6.31 0 0 0-1.74 3.49c-.23 2-.91 5-.91 5s-3.56 1-3.94.76-1.66-1.57-2.24-1.42A41.33 41.33 0 0 0 165 73c-.68.38-5.15 2.2-5.76 3.71s-2.58 5.15-2.58 5.15-2.12.61-2.12.83-1.36 2-.45 3.79 1.36 3.26 3.26 3.94 3.79 3.94 4 4.85 7.35 8.49 7.73 8.72 6.21 3.89 10.23 4.7A34.43 34.43 0 0 0 192 109a43.06 43.06 0 0 0 8.19-2.43c1.67-.76 7.73-5.84 8-6.14s4.4-4.78 4.93-6.37a14 14 0 0 1 2.2-3.56s3-2.2 3-2.73 1.36-3.41 1-4.24a3.48 3.48 0 0 0-2-2c-.83-.15-1.14.15-1.52-.15s-2.73-3.26-3.87-4.55a67.26 67.26 0 0 0-5.61-4.7l-.93-.56a7.63 7.63 0 0 1-4.07 1.09 20.43 20.43 0 0 1-6.44-1 5.22 5.22 0 0 0-3.34.3c-.45.23-5.53 1.14-5.53 1.14l-4.67 1.19s-.25-1.72-.25-1.95-1.67-7.5-1.67-7.5z" fill="#f4dbc1"/><path d="M194.69 81.27s-2.38 2.58-2.43 2.78-.25.86-.25.86a8.69 8.69 0 0 1 2.58 0c1.2.75 2 .65 3.28.91a6.1 6.1 0 0 0 4.28-.51c.65-.4.79-.73.83-.85.31-.92-.41-2.51-1.26-2.58-1.21-.1-2.43-1.47-3.84-1a11.18 11.18 0 0 1-3.19.39z" fill="#fff"/><path d="M171.39 81.38a1.46 1.46 0 0 0-.33.33 2.28 2.28 0 0 0-.14 1.9 2.17 2.17 0 0 0 .85 1.5 1.18 1.18 0 0 0 .47.17c.91.1 2.58.05 3.13-.45s1-.91 1-1.41a5.09 5.09 0 0 0-.05-1.57 2.1 2.1 0 0 0-1.41-.81 17.16 17.16 0 0 0-3.52.34zM196.1 81.46s-1 1.06-1 1.78a3.18 3.18 0 0 0 1 2c.38.19 3.34.72 3.87 0s1.06-1 1-1.89a2.34 2.34 0 0 0-.61-1.71 3.85 3.85 0 0 0-1.36-.68c-.36-.07-2.48-.1-2.9.5z" fill="#8accec"/><path d="M172.23 47.92c-3.32 2-4.54 2.11-6.63 3.26a17.31 17.31 0 0 0-3.71 3.72 17.85 17.85 0 0 0-2.89 3.26c-.77 1.16-1.25 1.81-2 3.11-.29.48-1.29 2.16-1.14 2.27s1.34-2.13 3.71-3a6.16 6.16 0 0 1 2.43-.38 16.54 16.54 0 0 1 1.44-2.65 19.57 19.57 0 0 1 2.27-2.73 37.87 37.87 0 0 1 3.91-3.54l2.9-1.38z" fill="#e69b5f"/><path d="M179.56 47c-3.44.48-4.67 1.57-7.38 3.17a32.42 32.42 0 0 0-10.33 9.76c-.6 1.27-1.13 2.25-1.52 2.93a10.23 10.23 0 0 0-1.06 2.27c-.14.46-.46 1.67-.25 1.77s1.43-2.54 3.23-5c2.73-3.64 7.87-7.76 11.27-6.37a4.25 4.25 0 0 1 2 1.77 5.23 5.23 0 0 1 2.17-3c.24-.14 1.26-.77 1.62-.45s0 1.72-.55 4.14a17.24 17.24 0 0 1 3.11-7.26 17.57 17.57 0 0 1 2.64-2.54 17 17 0 0 1 2-1.31 23.21 23.21 0 0 0-5.17-.16c-.66.13-1.24.21-1.78.28z" fill="#e69b5f"/><path d="M180.79 70a20.13 20.13 0 0 1-1.67-9 17.86 17.86 0 0 1 3.28-10.06s.17-.22 3.9-4.33c0 0 1.09-.21 2.28-.32a6.44 6.44 0 0 1 2.9.25c1.48.54 2.23 1.79 3 3a11.48 11.48 0 0 1 1.52 4.24 12 12 0 0 1 0 3.39 7.56 7.56 0 0 0-1.68-2.67 6.23 6.23 0 0 0-2.57-1.7 6 6 0 0 0-3.32-.07 6.87 6.87 0 0 0-3.45 2.07 34.31 34.31 0 0 0-3 5.05 15.48 15.48 0 0 0-1.57 4.09 11.91 11.91 0 0 0 .38 6.06z" fill="#e69b5f"/><path d="M195.48 52.79a11.76 11.76 0 0 1 4.2.9 12.9 12.9 0 0 1 6.53 6.57 13.84 13.84 0 0 0-2.58-5.2c-.87-1.09-1.25-1.21-2.48-2.63-.54-.62-.95-1.16-1.21-1.52-1.43-1.2-3.65-2.9-5.29-3.3-.25-.06-.87-.22-1 0s.41 1 .61 1.21a8.83 8.83 0 0 1 1.62 4.9zM145.47 74.38a11.39 11.39 0 0 1 9.7-8.72l1.59-4.66c.86-1.73 4.34-4.68 5.2-6.41 0 0-6 2.88-7.25 4.12a71.72 71.72 0 0 0-5.88 6.85 27.26 27.26 0 0 0-3.36 8.82zM147.06 75.11a14.34 14.34 0 0 0-2.19 4.19c-1.11 3.41-.6 6.38-.08 9.47a34.3 34.3 0 0 0 1.82 6.59 20.85 20.85 0 0 1 7.2-21.91V69.3a21.42 21.42 0 0 0-6.75 5.81z" fill="#e69b5f"/><path d="M196.66 47.87c.5-.87 4.07.23 5.7.86a21.14 21.14 0 0 1 8.55 6.27 18.47 18.47 0 0 0-9.27-2.56 58.85 58.85 0 0 0-4.84-3.67c-.28 0-.29-.63-.14-.9z" fill="#e69b5f"/><path d="M195.66 76.27a14.37 14.37 0 0 1 3.68 0c.73.16 2.67 1.13 2.92 1.17s-.22-.76-1.08-1.32a5.21 5.21 0 0 0-2.76-.91 13.13 13.13 0 0 0-2.65.1c-.28 0-1.07.18-1 .64s.89.32.89.32z" fill="#692e21"/><path d="M175.94 75.24c-.1-.08-1.27-.7-4.4-.17a8.53 8.53 0 0 0-3.9 2.45c-.42.58-.17.62-.17.62a19.39 19.39 0 0 1 3.61-1.79 10.1 10.1 0 0 1 3.43-.42c.59 0 1.64.34 1.68 0a.64.64 0 0 0-.25-.69zM173.06 97.09c0-.41.29-.68 1-.68 1.41 0 2.36 1.11 5 2.07A14.38 14.38 0 0 0 181 99a18.22 18.22 0 0 0 3 .36 23 23 0 0 0 4-.06 14.24 14.24 0 0 0 5-1.21 27 27 0 0 0 4.11-2.19 2.35 2.35 0 0 1 1-.38 1.33 1.33 0 0 1 .91.13c.21.12.32.18.37.43a.53.53 0 0 1-.7.51c-.5-.2-.24-.49-.34-.53-.51-.16-1.05.26-1.48.58a31 31 0 0 1-3.64 2.2 12.74 12.74 0 0 1-2.62 1 18.3 18.3 0 0 1-4.29.65 20.4 20.4 0 0 1-6.68-.92 12.7 12.7 0 0 1-3.19-1.45 18.83 18.83 0 0 0-2-1.25c-.11 0-.26-.1-.46.14s-.19.48-.39.51a.43.43 0 0 1-.54-.43z" fill="#692f23"/><path d="M193 84a7.58 7.58 0 0 1 1.44-1.82 3.51 3.51 0 0 1 1.25-.82 3.26 3.26 0 0 1 1.12-.15 8.33 8.33 0 0 1 3 .28 3.57 3.57 0 0 1 2 1.26 12.61 12.61 0 0 1 .64 1.22l1.07.08a1.24 1.24 0 0 0 0-.32c-.05-.21-.16-.4-.69-1l-.37-.39a5 5 0 0 0-.83-.62 6.74 6.74 0 0 0-1.92-.87 16.88 16.88 0 0 0-2.85-.07 3.43 3.43 0 0 0-1.27.19 5.3 5.3 0 0 0-.6.28 4.78 4.78 0 0 0-.93.54 3 3 0 0 0-.74.87 5.06 5.06 0 0 1-.42.73 3.6 3.6 0 0 1-.27.32c-.22.21-.42.36-.55.47s-.3.22-.35.34a.67.67 0 0 0 .08.63c.3.38 1.08-.05 2.09-.06s1.14.56 2.71.89a11.61 11.61 0 0 0 3.07.06 9.6 9.6 0 0 0 2.08-.32 5 5 0 0 0 1.34-.67 1 1 0 0 0 .45-.54v-.44-.13c-.57-.19-.81-.12-.93 0s-.06.27-.19.52a1.68 1.68 0 0 1-.58.62 2.65 2.65 0 0 1-1.25.44 10.17 10.17 0 0 1-4.44-.12 8.68 8.68 0 0 0-2.28-.66h-1.49z" fill="#5c211b"/><path d="M201.32 83.24a2.62 2.62 0 0 1-1.17 2.06 3.28 3.28 0 0 1-1.93.52l-1.64-.12a2.54 2.54 0 0 1-1-.77 2.31 2.31 0 0 1-.52-1.74c.08 0 .47 1 .56 1s.05-.1.1-.15a2.38 2.38 0 0 0 .71 1 2.8 2.8 0 0 0 2.26.48 2.72 2.72 0 0 0 1.45-.6 2.17 2.17 0 0 0 .77-1.25 1.56 1.56 0 0 0-.16-1.17 1.79 1.79 0 0 0-.42-.4c-.17-.12-.25-.13-.51-.28s-.46-.28-.44-.34 1 .22 1 .22l.6.08a3.88 3.88 0 0 1 .34 1.46z" fill="#5c211b"/><path d="M197.77 81.15a2.89 2.89 0 0 0-2.1 1.82 2.32 2.32 0 0 0 .08 1 1.93 1.93 0 0 0 .14.31l-.31.1a1.94 1.94 0 0 1 .74-3.28 2.18 2.18 0 0 1 1.45.05z" fill="#5c211b"/><path d="M198.64 84.48a2 2 0 0 1-1.51-.47 1.89 1.89 0 0 1-.28-2.3 2.4 2.4 0 0 1 3.39-.16l.31.63a1.72 1.72 0 0 0-2.05-.18 1 1 0 0 0-.36 1c.15.51.8.63.89.64a1.39 1.39 0 0 0 .86-.13 1.76 1.76 0 0 1-.28.41 1.86 1.86 0 0 1-.97.56z" fill="#5c211b"/><ellipse cx="199.28" cy="82.7" rx="1.2" ry="1.03" fill="#fff"/><path d="M176.7 83a2.62 2.62 0 0 1-1.17 2 3.28 3.28 0 0 1-1.93.52l-1.6-.07a2.54 2.54 0 0 1-1-.77 2.31 2.31 0 0 1-.52-1.74c.08 0 .47 1 .56 1s.05-.1.1-.15a2.38 2.38 0 0 0 .71 1 2.8 2.8 0 0 0 2.26.48 2.72 2.72 0 0 0 1.45-.6 2.17 2.17 0 0 0 .77-1.25 1.56 1.56 0 0 0-.16-1.17 1.79 1.79 0 0 0-.42-.4c-.17-.12-.25-.13-.51-.28s-.37-.24-.44-.34-.15-.23-.1-.35.93 0 1.08 0l.62.64a3.88 3.88 0 0 1 .3 1.48z" fill="#5c211b"/><path d="M173 81a2.53 2.53 0 0 0-1.92 1.66 2.28 2.28 0 0 0 .08 1 1.94 1.94 0 0 0 .14.31l-.31.1a2.06 2.06 0 0 1-.5-2.1 1.9 1.9 0 0 1 1.25-1.18A1.82 1.82 0 0 1 173 81z" fill="#5c211b"/><path d="M174 84.23a2 2 0 0 1-1.51-.47 1.87 1.87 0 0 1-.28-2.3 2.22 2.22 0 0 1 3.22-.08l.48.55a1.72 1.72 0 0 0-2.05-.19 1 1 0 0 0-.36 1c.15.51.8.63.89.64a1.39 1.39 0 0 0 .86-.13 1.76 1.76 0 0 1-.28.41 1.86 1.86 0 0 1-.97.57z" fill="#5c211b"/><ellipse cx="174.66" cy="82.45" rx="1.2" ry="1.03" fill="#fff"/><path d="M213.42 94.16a.65.65 0 0 0 0 .12l.35-.65a1 1 0 0 0-.35.53z" fill="#5c211b"/><path d="M192.06 84.64c0-.1 1.93-2.35 2.49-2.87a4.84 4.84 0 0 1 3.13-1.07 13.6 13.6 0 0 1 3.57.8 3.45 3.45 0 0 1 1.62 2.08 1.78 1.78 0 0 1-.32 1.23 5.27 5.27 0 0 1-1.86.89 16.07 16.07 0 0 1-3.28.12c-.81-.09-2.14-.31-2.72-.42s-2.83-.22-2.63-.76zM169 83.79a6.23 6.23 0 0 1 2.25-2.19c1.31-.6 3.76-1.32 5.24-.77a7.12 7.12 0 0 1 3.27 2.86c.22.63.48 1-.05 1.15a25.15 25.15 0 0 0-2.76.45 12.61 12.61 0 0 1-3.91.56c-1.28-.02-3.69-.43-4.04-2.06z" fill="#fff"/><path d="M170.63 82.69a3.35 3.35 0 0 0 .77 2.31 4.29 4.29 0 0 0 2.85.7 2.54 2.54 0 0 0 2.06-.92c.32-.61.92-2.44-.36-3.34a4.19 4.19 0 0 0-3.37-.63 2.44 2.44 0 0 0-1.95 1.88zM195.59 82.82a3.35 3.35 0 0 0 .77 2.29 4.29 4.29 0 0 0 2.85.7 2.23 2.23 0 0 0 1.87-1c.32-.61 1.12-2.33-.17-3.23a4.19 4.19 0 0 0-3.37-.63 2.44 2.44 0 0 0-1.95 1.87z" fill="#88cceb"/><path d="M201.81 83.08a2.86 2.86 0 0 1-1.16 2.39 5.65 5.65 0 0 1-2.11.48l-1.71-.1a2.66 2.66 0 0 1-1.08-.78 2.42 2.42 0 0 1-.58-1.81c.08 0 .51 1 .6 1s.05-.1.1-.16a2.49 2.49 0 0 0 .76 1.08 2.94 2.94 0 0 0 2.44.36 4 4 0 0 0 1.46-.47 2.85 2.85 0 0 0 .66-1.48 1.92 1.92 0 0 0-.18-1.24 1.31 1.31 0 0 0-.28-.39 1.26 1.26 0 0 0-.63-.33c-.15 0-.69-.25-.67-.31s1.15 0 1.15 0l.74.33a2.39 2.39 0 0 1 .49 1.43z" fill="#692f23"/><path d="M198.08 81.21a2.19 2.19 0 0 0-2.24 1.64 3 3 0 0 0 .1 1.25 2 2 0 0 0 .15.32c-.11 0-.34.48-.44.51a2.85 2.85 0 0 1-.45-2.58 2.22 2.22 0 0 1 1.33-1.4 2.46 2.46 0 0 1 1.55.26z" fill="#692f23"/><path d="M203.79 83.54a2.2 2.2 0 0 0-.59-1 4.92 4.92 0 0 0-.54-.51 6.34 6.34 0 0 0-.73-.55 7.92 7.92 0 0 0-1.58-.71c-.09 0-.24-.09-.43-.14l-.36-.08a11.63 11.63 0 0 0-2.27-.11 4.57 4.57 0 0 0-1.78.34 7.61 7.61 0 0 0-1.5.91 9.22 9.22 0 0 0-1.66 1.83c-.15.24-.58.94-.63 1.06a.62.62 0 0 0 .1.64c.31.28.77 0 1.83.16.09 0 .72.15 1 .23a11.46 11.46 0 0 0 2.07.41 14.19 14.19 0 0 0 3.14 0 17 17 0 0 0 2-.36l.28-.08a4.7 4.7 0 0 0 1.18-.64 1.24 1.24 0 0 0 .42-.57 1.66 1.66 0 0 0 .05-.83zM202 85a2.72 2.72 0 0 1-1.27.47 10.44 10.44 0 0 1-4.56 0 11.11 11.11 0 0 0-2.3-.42 7 7 0 0 1-1.59-.21l.76-1.17a6.37 6.37 0 0 1 1.59-1.67 7.59 7.59 0 0 1 1.37-.8 2 2 0 0 1 1-.06 12.89 12.89 0 0 1 2.72.24 4.68 4.68 0 0 1 2.35 1.19 2.4 2.4 0 0 1 .57 1.74c-.11.36-.45.53-.64.69zM180.46 84.22c-.06-.12-.52-.8-.68-1a9.21 9.21 0 0 0-1.78-1.8 7.57 7.57 0 0 0-1.54-.85 4.58 4.58 0 0 0-1.79-.26 11.65 11.65 0 0 0-2.26.21l-.35.1c-.19.06-.33.12-.42.16a7.93 7.93 0 0 0-1.55.78 6.39 6.39 0 0 0-.71.58 4.92 4.92 0 0 0-.52.54 2.58 2.58 0 0 0-.55 1 1.4 1.4 0 0 0 0 .8.87.87 0 0 0 .09.2 1.09 1.09 0 0 0 .38.35 4.7 4.7 0 0 0 1.21.59l.28.07a17 17 0 0 0 2 .27 14.17 14.17 0 0 0 3.14-.1 11.44 11.44 0 0 0 2.05-.5c.33-.1.88-.22 1-.24 1.05-.16 1.59 0 1.88-.28a.62.62 0 0 0 .12-.62zm-9 1.23a2.72 2.72 0 0 1-1.29-.42 1.72 1.72 0 0 1-.61-.62 1.12 1.12 0 0 1-.09-.64 3.86 3.86 0 0 1 .58-1.12 2.6 2.6 0 0 1 .5-.58 2.91 2.91 0 0 0-.16 1.12 2.58 2.58 0 0 0 1.38 2.28zm1.71 0a2.62 2.62 0 0 1-1.38-.64 2.33 2.33 0 0 1-.76-1.31 2.45 2.45 0 0 1 0-1.2 1.24 1.24 0 0 1 .35-.49 2.56 2.56 0 0 1 .58-.4 2.45 2.45 0 0 1 .46-.17 13.66 13.66 0 0 1 1.62-.12 2.19 2.19 0 0 1 2.2 1.56 3 3 0 0 1 0 1.18 2.19 2.19 0 0 1-.71 1.1 3.85 3.85 0 0 1-2.36.46zm5.12-.74a11 11 0 0 0-2.08.46 2.27 2.27 0 0 0 .24-.25l.11-.15a3.14 3.14 0 0 0 .32-2.61A2.55 2.55 0 0 0 176 81a7.6 7.6 0 0 1 1.42.78 6.39 6.39 0 0 1 1.62 1.48l.54.75s.17.25.16.37-.08.1-.26.13c-.48.11-1.09.16-1.19.17z" fill="#692f23"/><circle cx="198.49" cy="82.92" r="1.88" transform="rotate(-81.67 198.489 82.918)" fill="#692f23"/><circle cx="199.61" cy="82.02" r=".73" transform="rotate(-81.67 199.6 82.018)" fill="#fff"/><circle cx="173.65" cy="82.86" r="1.88" transform="rotate(-81.67 173.65 82.856)" fill="#692f23"/><circle cx="174.77" cy="81.95" r=".73" transform="rotate(-81.67 174.76 81.957)" fill="#fff"/><path d="M232 82.53a29.35 29.35 0 0 0-2.33-10.74C228 69 222.83 61.1 221.34 60.16a82.18 82.18 0 0 0-8.86-7.86s-4.18-3-7.17-3.51c-.12 0-.84-.13-1.82-.34-1.4-.3-1.5-.39-2.5-.61a28.93 28.93 0 0 0-4-.53l-1.88-.31a12.89 12.89 0 0 0-1.39-.6 3.54 3.54 0 0 0-1.7-.22h-.11c-.41 0-.86-.25-1.52-.28a17.65 17.65 0 0 0-2.1 0c-1.13.06-1.26.36-2.16.36s-1-.13-2-.19-2.07 0-3.11 0c-1.49.06-1.22 0-2 0a10.81 10.81 0 0 0-4.37 1.13 20.9 20.9 0 0 0-9 3.46 32.59 32.59 0 0 0-4.07 2.92c-1.27.74-2.55 1.52-3.85 2.35s-2.37 1.55-3.49 2.33a21.63 21.63 0 0 0-6.13 6.49 26.54 26.54 0 0 0-3.34 11.52s0 .32-.09 2.86c-.08.24-.17.47-.24.72a20 20 0 0 0-.44 9 26.79 26.79 0 0 0 2.52 7 32.47 32.47 0 0 0 6.34 7.37 57.36 57.36 0 0 0 8.69 6.09 34 34 0 0 0 6.59 2.49 13.82 13.82 0 0 0 1.6.29l-.66.28a1.66 1.66 0 0 1 1.31 1c.89-.17 3-.88 3-.88l1.69-.56a4.29 4.29 0 0 1 1.16.5 12.36 12.36 0 0 0 2.21 1 4.3 4.3 0 0 1 1.1.92.33.33 0 0 1 .26-.1l1.39.15a2.65 2.65 0 0 1 .85.14l.24-.16a21.74 21.74 0 0 0 4.71.62c1.54-.09 3.41-.29 4.71-.48-.35.33-1.15.95-1.81 1.49h1.3c.46-.33 1.24-.74 1.57-1 0 .26-.09.59-.14 1h.94a5.85 5.85 0 0 1 1.44-2.39c.36-.29 1.79-.74 3.63-1.61a2 2 0 0 1 1.44-.14l.71.12 1.18.19.46.15s.94.31 1.84.57a1.74 1.74 0 0 1 1.11-1c-.22-.16-.34-.33-.25-.53s.73-.37 1.41-.63a11.69 11.69 0 0 1 1.43-.35c1.82-.49 2-.41 3.12-.76a16.05 16.05 0 0 0 1.87-.77 37.23 37.23 0 0 0 4-2.14c5.45-3.43 8.17-5.14 8.55-5.5a21.33 21.33 0 0 0 5.6-9.47 25.34 25.34 0 0 0 .89-9.22zM197.05 48a26 26 0 0 1 5.77 1.31c3.16 1.27 7.19 4.41 10.72 9.17a28.3 28.3 0 0 1 5.74 13.3 33 33 0 0 1 .17 3.56 7.26 7.26 0 0 1-.56 3 13.52 13.52 0 0 1-1 2.77 2.34 2.34 0 0 0-1.87-.18c-.17 0-.33-.33-1.22-1.77a11.92 11.92 0 0 0-3.29-3.53h.49a7 7 0 0 1 3 .71 6.5 6.5 0 0 1 1.88 1.44 4.12 4.12 0 0 0-.83-1.27 4.74 4.74 0 0 0-2.22-1.21 21.32 21.32 0 0 0-3.8-.75c-1.6-1.27-3.63-3-3.84-3.08a.1.1 0 0 1 0-.13 5.65 5.65 0 0 0 .75-1.49 13.28 13.28 0 0 0 .55-5.85 15.28 15.28 0 0 0-.43-3.33 14.92 14.92 0 0 0-2.61-4.93 31.72 31.72 0 0 0-5.08-6 18.56 18.56 0 0 0-2.52-1.81zm-8.74-1.35a6.34 6.34 0 0 1 2.82.06 9.38 9.38 0 0 1 1.57 1.22 10.19 10.19 0 0 1 2.52 4.06c1.12 3.42.2 7 .33 7s0-.08 0-.09a17.22 17.22 0 0 0 .48-4.13c0-1.14 0-1.71-.07-1.89a11.53 11.53 0 0 0-1.7-4.78l1 .42a16.57 16.57 0 0 1 2.56 1.48 26.39 26.39 0 0 1 4.36 4.19 19.17 19.17 0 0 1 3.49 5.4 15.68 15.68 0 0 1 .91 7.68c-.19 2.15-.67 3.18-1.45 3.82a4.33 4.33 0 0 1-1.62.75 15.42 15.42 0 0 1-4.61.5 19.93 19.93 0 0 1-4.65-1.12 4.44 4.44 0 0 0 1.2-1.91 6.13 6.13 0 0 0-.17-3.57c-.11-.33-.55-1.36-.92-1.54s-.17.27-.16.3a7 7 0 0 1 .58 4.19 4.18 4.18 0 0 1-1.66 2.12c-1.55 1.19-2.58.78-5.44 1.49-3.36.84-5.41 2.28-6 1.58-.08-.09-.08-.16-.12-.75-.07-.83-.19-1.67-.34-2.5-.39-2.11-1.61-4.9-2-7.56-.75-5.12 2.24-10.52 3-11.54 1.87-2.62 3.16-3.06 4.7-4.16a6.2 6.2 0 0 1 1.39-.76zM162.48 55c2.78-3.64 4.81-4.39 5.42-4.71.83-.43 3.28-1.46 3.86-1.29a21.4 21.4 0 0 0-4.12 3 30.79 30.79 0 0 0-5 5.76 26 26 0 0 0-3.51 7.3 12.24 12.24 0 0 0-.55 3.54c.12 0 1-3.22 2.47-6.1a24.87 24.87 0 0 1 2.32-3.5 37.29 37.29 0 0 1 5.48-6.37 30.32 30.32 0 0 1 8.15-4.87 22.24 22.24 0 0 1 4.87-.44c.66 0-1.9.67-3.89 3.29a15.2 15.2 0 0 0-3.21 7.22c-.33 2.22 0 2.89 0 2.89a20.09 20.09 0 0 1 4-9.14 11.76 11.76 0 0 1 4.71-3.82 10.46 10.46 0 0 1 2.66-.72 9.46 9.46 0 0 0-1.15.54 11.68 11.68 0 0 0-4.61 5.4 17.48 17.48 0 0 0-1.87 7.31 19.52 19.52 0 0 0 0 3.16 5.88 5.88 0 0 0-.71.78 8.75 8.75 0 0 0-1.43 3.3c-.18 1-.4 3.9-.56 4.34s-1.38.91-2.6.74c-.63-.09-1.9.06-2.16-.61a4.57 4.57 0 0 0 1.25-1.47 8.21 8.21 0 0 0 .44-2.38 21.44 21.44 0 0 1-1.05 1.94 4.16 4.16 0 0 1-2.33 1.44c-.78.22-2.63.51-3.82.83a15.08 15.08 0 0 0-4.81 1.94 12.83 12.83 0 0 0-3.35 4.62 1.53 1.53 0 0 1-1.88-.36 5.34 5.34 0 0 1-1.09-3.15 23 23 0 0 1-.16-5.43c.17-2.42 1.07-4.6 2.65-7.61 1.74-3.37 4.16-5.51 5.58-7.37zM146.2 73.31c.06-1.62.62-2.87 1.47-5.07a20.77 20.77 0 0 1 6.67-8.68 57.66 57.66 0 0 1 7.26-4.66 44.41 44.41 0 0 0-5.13 6.5 27.69 27.69 0 0 0-3.05 7.76c-1.22.27-4.93 3-7.33 7.11a13.16 13.16 0 0 1 .11-2.96zm18.54 36.92a25.83 25.83 0 0 1-5.3-2.79 36.91 36.91 0 0 1-9.36-8.44 24 24 0 0 1-4.2-7.18 19.68 19.68 0 0 1-1.16-6.82 16.92 16.92 0 0 1 4.59-11.39 21.14 21.14 0 0 1 4-3.52 25.83 25.83 0 0 0-.08 2.73 19.65 19.65 0 0 0 .61 4.5 6.8 6.8 0 0 0 .29.9 9.9 9.9 0 0 0-3 3.86 19 19 0 0 0-1.46 7.08 37.49 37.49 0 0 0 .37 4.08A40.08 40.08 0 0 0 151.3 98c.17.39-1.11-6.31-.33-10.69s1.74-5.85 2.38-6.64a7.66 7.66 0 0 1 1.41-1.29l.2.18a2.6 2.6 0 0 0 1.89.55 7 7 0 0 0-.45 1.63c0 .07-.08.25-.19.26h-.36a2.43 2.43 0 0 0-.73.14 2.72 2.72 0 0 0-1.41 1.37c-.79 1.52.06 3.8 1.2 5.19a2.73 2.73 0 0 0 .21.23v.27s-.15 1.57-.21 2.71a13 13 0 0 0 .37 4 13.9 13.9 0 0 0 1.57 3.38 33 33 0 0 0 3.09 4.39c3.11 3.77 4.29 3.77 5.77 5.85a4.4 4.4 0 0 0 1.39 1.31 19 19 0 0 1-2.36-.6zm10.3.22a1.36 1.36 0 0 1-.27.47 3.69 3.69 0 0 1-.76.32 4.06 4.06 0 0 1-1 .15 9.91 9.91 0 0 0-1.68.25l-.73-.11-1.89-.32-.87-.57a16.39 16.39 0 0 1-2.93-2.88c-3.41-4.43-6.53-5.8-8.27-10.32a16.08 16.08 0 0 1-.94-7.3v-.5c0-.15.09 0 .1 0a7 7 0 0 0 2.28 1.2 34.1 34.1 0 0 1 1.83 3.32c.33.89 4.1 5.43 5.15 6.48s5.4 5.1 9 7a2.65 2.65 0 0 1 .77 1.07 5.4 5.4 0 0 1 .17 1.75zm1.11-1.73a.28.28 0 0 1 .16-.2q.81.24 1.67.45l-1.62 1.15a7.15 7.15 0 0 0-.2-1.39zm2.64 3.75a6.45 6.45 0 0 1-2-1.39l2.55-1.83h.07l2.39 4a9.68 9.68 0 0 1-3-.77zm3.91.27c-.12-.23-1.46-2.61-2-3.34 1.15.15 3.07.29 4.37.32-.41.61-2.23 3.28-2.36 3.03zm2.57.88c-.66 0-1.25-.08-1.8-.12.76-.82 2.65-3.52 2.83-3.5s2.4 2.68 3.11 3.43a27.22 27.22 0 0 1-4.13.2zm4.76-1a25.14 25.14 0 0 1-2.63-2.8 10 10 0 0 0 2.33 0c1.08-.09 1.79-.33 2.59-.44a28.69 28.69 0 0 1-2.32 3.23zm4.39-.19a36 36 0 0 1-3.62.83c.6-.6 2.54-4.19 2.85-4.14a24 24 0 0 1 2.31 2.71 13.28 13.28 0 0 1-1.53.59zm3.66-1.79a3.68 3.68 0 0 1-1.3.76 7.85 7.85 0 0 0-1.19-1.23 14.69 14.69 0 0 1-1-1.34 20.27 20.27 0 0 0 3.58-1zm-2.19-2.88a30.54 30.54 0 0 1-10.16 1.36 28.19 28.19 0 0 1-5.51-.4 21.83 21.83 0 0 1-9.45-4.14 36.35 36.35 0 0 1-6-5.51 41.25 41.25 0 0 1-5.95-8.94l-1.35-.38a4.58 4.58 0 0 1-2.34-1.85 7.88 7.88 0 0 1-.79-1.4 3.77 3.77 0 0 1-.18-2.22 2.17 2.17 0 0 1 .71-1.18 1.71 1.71 0 0 1 1.63-.29 2.86 2.86 0 0 0 .5 0 .47.47 0 0 0 .38-.36.5.5 0 0 0 0-.16 17.37 17.37 0 0 1 1-3.16 7.47 7.47 0 0 1 3.6-4.21c2.16-1.38 5-1.72 6.64-2.27l.95-.29a1.46 1.46 0 0 0 .22.18c.12.09.27.61 2.6.78 2.68.19 4.21-.17 4.1-.66a38.27 38.27 0 0 1 .52-5.41 7.54 7.54 0 0 1 1.51-3.14 21.65 21.65 0 0 0 1.06 3.73 56.67 56.67 0 0 1 1.17 6.61c0 .34.26.38.26.38a3 3 0 0 0 .94-.11c.53-.15 1-.28 1.84-.56 1.58-.54 4.22-.88 5.63-1.25a32.8 32.8 0 0 1 3.82-.79c.33 0 3.9 1 5.4 1.12a16.89 16.89 0 0 0 5-.25 4.12 4.12 0 0 0 1.61-.66l.12-.09a4.22 4.22 0 0 0 1.42 1.31c.94.61 3.38 2.21 4.6 3.16s4 5.31 4 5.31c1-.55 3 .11 3.54 2 .61 2.08-1.29 4.18-1.66 4.6a7.49 7.49 0 0 1-2.27 1.66 28.54 28.54 0 0 1-4.36 7.16 31.79 31.79 0 0 1-6.87 6 29.31 29.31 0 0 1-7.86 4.31zm6.48 3.1a15 15 0 0 0-2.17.28c-.1 0-.51.07-.55-.07a6.27 6.27 0 0 1-.3-2.13 3.29 3.29 0 0 1 .8-2.08c.39-.25.85-.45 1.23-.67a44.3 44.3 0 0 0 6.34-4.66 27.4 27.4 0 0 0 4-3.81c.3-.37.58-.74.84-1.1a31.4 31.4 0 0 1-1 4.32A17.68 17.68 0 0 1 210 105a12.26 12.26 0 0 1-1.87 2.45 13.73 13.73 0 0 1-3.83 2.55 14.39 14.39 0 0 1-1.91.85zm25-14.6a16.65 16.65 0 0 1-2.13 3.72 10.42 10.42 0 0 1-1.47 1.41 64.39 64.39 0 0 1-7.43 4.41 33 33 0 0 1-5.65 3c-1.24.41-3.84 1.24-5.72 1.8h-.45a12.92 12.92 0 0 0 4.12-2.64 15.71 15.71 0 0 0 3.71-6.22c.28-.72.43-1.92 1-4.7a5.86 5.86 0 0 0 .27-1.92l.39-.85a16.06 16.06 0 0 0 1.45-3.12s.77-.1 2.28-1.65 1.64-2.13 2.1-4.07a3.91 3.91 0 0 0-1.18-3.79 17.66 17.66 0 0 0 .54-1.8 23.13 23.13 0 0 0 .87-3.75 23.11 23.11 0 0 0 0-4.52c-.06-.42-.47-1.34-.19-1.44a18.58 18.58 0 0 1 4.15 7 22.69 22.69 0 0 1 .33 4.11 28.05 28.05 0 0 1-.16 6.35 25.1 25.1 0 0 1-.55 3.13 12.56 12.56 0 0 1-.83 2.59 8 8 0 0 1-.86 1.43c-.68.87-2.33 2.48-2.68 3.09a11.3 11.3 0 0 0 4-3.9 14.91 14.91 0 0 0 1.8-6.07 22.49 22.49 0 0 0 .2-5.69c-.14-1.24.3-.61.3-.61a24.75 24.75 0 0 1 1.6 6.82c.14 2.95.77 6.15.21 7.87zm2.25-3.37c-.25.67-.58 1.52-1 2.45v-.12a39.51 39.51 0 0 0-.41-6.94 42.4 42.4 0 0 0-2-7.79 27.29 27.29 0 0 0-3.88-8.3 52.32 52.32 0 0 1-3.6-6.15c-.34-.68-.54-1.65-1.17-3a24.31 24.31 0 0 0-2.56-3.87 42.38 42.38 0 0 0-2.71-3.38 35.43 35.43 0 0 0-4.35-4 11.11 11.11 0 0 0-2.76-1.79 3.9 3.9 0 0 1 2.93.66 45.67 45.67 0 0 1 9.89 7.45 32.64 32.64 0 0 1 7.49 9.12c1.69 2.91 3.16 4.54 3.94 6.66a22.37 22.37 0 0 1 1.42 5.82c.34 3.29.78 7.9-1.21 13.17z" fill="#692f23"/><path d="M186.27 102.88a22.13 22.13 0 0 0 4-.37c.36-.08.63-.18.7-.07s.05.19-.17.36a9.39 9.39 0 0 1-4.68 1c-2.82 0-4-1.09-4-1.09s-.16-.14-.05-.27.25 0 .54 0a11 11 0 0 0 3.66.44zM186.6 92.64a3.89 3.89 0 0 0 1.59-.31 12.37 12.37 0 0 1 1.24-.49c.08 0-.26.95-2.41 1.19a3.8 3.8 0 0 1-3.29-.94s-.35-.51.34-.13a3.64 3.64 0 0 0 2.53.68z" fill="#692f23"/><path d="M195 14.74V5.38l-5.24.36-92 6.15L54 11.11l-.8 11 11.39.63 23.87-.18.19 157s-35.5 10.73-35.45 11 0 7.32 0 7.32l42.16-14.66 6.85.55 71.25 5.14 20.07 1.37 1.27-.86.9-104.74-.54-70zM185.43 22c-.06.34-.11 1.1-.15 2.15l-.21.2v10.47c-.1 7.18.39 13.81.39 13.81l-.44.84-.46 130.27-2.07 1.29-60.11-5.48 39.82-12.23.08-5.38-55 16.26c-1.57-.13-5.07-.53-5.21-1.58-.18-1.36-.54-146.38-.54-146.38s-.27-2.31 3.8-2.44c3.17-.11 49.46-3.06 69.77-4.37a.84.84 0 0 0-.09.15v27.7a21 21 0 0 1 4.27-1.09 16.14 16.14 0 0 1 2.89-.19 11.88 11.88 0 0 0 2.23 0l.6-26s-2-.53-4.22-.87l3.74-.24s1.31.64.91 3.11z" fill="#f5f7f7"/><path d="M195 6.06l.47 182.5 2.72-5.35.18-20.37-.43-155.57S195.8 2.3 195 6.06z" fill="#e2ddd3"/><path d="M208.85 147.08s.08-2.62.79-3.33a42.37 42.37 0 0 1 3.83-2.33c.08-.15 1.63-1.21 1.63-1.21l2.42.29 5.58 12.29s-.46 7.27-.5 7.38l-2.17 5.5-2.62 1.33-1.92-.75-1.54-2.46-1.62-2s2-3 1.58-5.25-.27-4.4-1.37-5.92-2.54-3.31-4.09-3.54z" fill="#fff"/><path d="M226.74 97.88v29.2a5.05 5.05 0 0 1 1.11.56l-.07-30.34a5 5 0 0 1-1.04.58z" fill="#692e21"/><path d="M247.55 11.55c0-2.32-1.29-2.33-1.45-2.35-.74-.09-44.78-1.76-47.32-1.86 0-.92-.14-2.21-1-2.68-1.42-.75-3.66-.54-5.7-.41l-28.96 2.08C154.16 5.89 55.26 1 55 1s-2.4 0-2.76 3.12a61.93 61.93 0 0 0-.16 6.36V25.35l.36 128-.09 43.17v16l.06 3s.12 2 2.65 1.43 80-27.66 86.78-30l12.16.92c-4 1.42-41.77 14.38-41.91 14.46s-1.6.54-1.57 2.83 0 14.83 0 14.83a2.19 2.19 0 0 0 1 1.69 10.37 10.37 0 0 0 3.74 1.63c1.08.19 2 .09 4.34-.66s42.62-14.62 46.51-15.95c0-.29-.11-1.41-.11-1.41l-48.39 16.9a.67.67 0 0 1-.64-.09c-.18-.18-.14-.65-.14-.65l-.06-15.44s.12-.75 1.57-1.39c1.18-.52 36.13-12.35 46.09-15.8-.31-.3-1.48-.35-1.45-.78l-46.38 16.34a2.09 2.09 0 0 1-1.63-.18c-1.08-.45-2.71-.78-.54-1.57s39-13.53 42-14.58c1.43.11 34.63 3 34.63 3s2.94.17 4.36-1.05 3.53-6.1 3.53-6.1l.14-4.75-.06-66.66c.06 0-.29-88.41-.29-88.41 2.17.22 23.07.38 27.48.41l-.09 40.95v1.09l1.38 2.88v-5l-.06-39.82c.65 0 1.22.57 1.2 1.77 0 1.81-.14 27.16-.17 36.29l.1 8.06a5.69 5.69 0 0 1 1.42 2.52V25.17s0-2-2.89-2.08l-28.39-.45v-5.83c3.2-.21 31 .69 32.65.73a1.83 1.83 0 0 1 1.76 1.76s-.34 114.59-.27 118.12.29 3.24.38 3.63.34.67.53.49c1.76.6 11 3.73 11.53 4.3s.42 1.18-.06 1.45-10.51 3.3-12 3.71c-.35.09-1.2 5.3-1.19 5.29 2.25-.81 10.74-3.77 13.15-4.63a4.17 4.17 0 0 0 2.71-3.66s-.39-134.13-.36-136.45zm-132 194.57c.32.45 0 14.23-.06 15.25s-.54.78-.54.78-1.41-.67-2.35-1.27a1.58 1.58 0 0 1-.66-1.33s-.06-14.62 0-14.89 3.06.76 3.61 1.46zM53.94 3.5c0-.23.31-1 2.87-.93C59.75 2.66 152 7.09 152 7.09l4.34-.27-60.16 4.35-42.46-.41V8.35s.22-4.63.22-4.85zM53.82 152l-.09-126.92.18-2.26 34 .26V178.8c-7 2.18-32.73 9.84-32.73 9.84s-1.13.77-1.36-2.53 0-34.11 0-34.11zm.09 44v-4.88a4.65 4.65 0 0 1 2.17-1c1.76-.5 35.08-10.94 35.08-10.94s1.08 0 1.08-2.53.09-153.16.09-153.16 0-2.21-2.8-2.26-35.8.27-35.8.27l.1-8.87L95 13.2l.41 167.89s.13 1.73-3.53 3c-3.81 1.31-31.15 9.89-37.94 12zm35.71-17.81l-.08-155.1s1.36.23 1.27 3.07-.05 150-.05 150 .09 1.58-1.13 2.08zm-35.48 32.74V198l40.32-13.72a10.94 10.94 0 0 1 4.54-.48c1.13 0 13.66 1 29.21 2.16l-3.08 1.14zm1.4 4.57s-1.08.54-1.18-1.08.63-2.26 1.45-2.53l76.53-25.6 4.68.35zm138.69-50.92l-.55 23.57s0 1.29-7.87.81c-2.49-.15-85.71-6.37-85.71-6.37s-3.45-.62-3.39-3.25c.08-3.8.14-166.26.14-166.26a29.2 29.2 0 0 1 5-.8c4.14-.47 91.95-6.52 91.95-6.52s.54-.07.54 1.9-.12 147.01-.11 156.92zm3 18.55s-.72 3.62-1.53 3.48c.05-2.35 0-18.95 0-22.39l.4-157.8s1-.68 1.22 3.66.27 145.05.3 153.52zm36-167.24l-34.47-.3V8.85c3.94.11 40.69 1.17 43 1.32s2 .49 2 .49-5.92 3.12-7.58 4.2a5.41 5.41 0 0 1-2.98 1.03zm11.86 134.56c-2.78 1.16-10.62 3.64-10.62 3.64-.6.11-.3-2 .14-2.28 2.58-.71 9.15-2.67 11.47-3.47.52-.21.54 1.46-1.02 2.11zm1.39-6.09c-1.49-.33-10.16-3.22-12.08-3.87a1.28 1.28 0 0 0 0-.35V17.36l11.32-6s.37-.16.57 0 .24.23.25.6c.11 11.56.01 120.53-.09 132.4z" fill="#692e21"/><path d="M229.79 93.83a5.93 5.93 0 0 1-1 2.41v32.21a5.65 5.65 0 0 1 1.18 2.11v-37zM185.81 179.39l.11-132.06c0-4.19-.09-25.46-.13-27.67 0-2.46-2.12-2-2.12-2s-77.47 4.77-80.65 5.2c-2.34.32-2 5.06-2 5.06s-.18 138.87-.09 142.85c.07 3.14 4 3.62 4 3.62l56.6 5.15s18.3 1.76 21.15 1.85c3.2.08 3.13-2 3.13-2zM104.5 25.53s-.2 147.09-.31 147.09a1.82 1.82 0 0 1-1.72-1.65c-.4-10.74-.12-140-.08-142.92 0-1.71 0-3.6 1.78-3.79.48 0 .33 1.27.33 1.27zm79.82 117.41c0 2.83-.12 26.46-.12 26.46v6.46c-.13 4.33-1.89 3.73-1.89 3.73l-28.7-2.53s-24.28-2.24-25-2.44.59-.72.59-.72l33.91-10.22c.2-.13-.31-.87-.31-.87s-34.57 10.11-36.12 10.68a23 23 0 0 1-3.88 1c-.59.09-10.63-.41-10.7-1 0-.4.91-.68.91-.68l49.27-14.39c-.05-.28-.3-.91-6.52.73-6.47 2-44.78 13.26-45.8 13.53a12.55 12.55 0 0 1-4 .41c-.67 0-.6-.82-.6-.82s.19-145.57.14-146.74.06-1.22.51-1.26c6.05-.41 50.38-3.53 68.43-4.61v28c.47.06.76-.22 1.29-.36V19.54l1-.06v27.74a3.57 3.57 0 0 1 1.75-.19l-.16-27.64c2.06-.11 3.36-.16 3.66-.14 2.73.22 2.4 1 2.4 1s-.24 35.59-.22 35.59c.01 5.66.19 84.16.16 87.1z" fill="#692e21"/><path d="M231.28 160.28a4.11 4.11 0 1 1 2-7.72c-.47 2.27-1.2 3.73-2 7.72z" fill="#fd8204"/><path d="M209.39 147.42a4.57 4.57 0 0 1-3.56.78c-1.87-.5-4.23-5.66-6.56-5.67-.27 0 1.25 5.2-4.68 4.25-1.41-.22-4.12-.86-4.82.11a1.5 1.5 0 0 0 .34 1.81c-.28.38-2.62.57-2 2 .65 2.43-1.41 1.41-.89 3.77.1.93 1.29 1.41 1.87 2.67-1.13 1.57 2.48 2.79 3.47 3.37s9.11 1.16 10.44 1.31 6.5-1.36 6.59-1.41a8.3 8.3 0 0 1 4.06-.53 6.84 6.84 0 0 0 .69-1.87c-.05-.54 1.45-8.2-4.95-10.59zM131.4 129.87s2.54.83 3.33.58 4.31-4.37 4.31-4.37l1.23-3.75-1.42-1.62s-1.29 3.92-2.79 4.92a46.92 46.92 0 0 0-4.66 4.24z" fill="#fbdfcb"/><path d="M186.81 153c-.63 2 1.74 3.57 1.81 3.65-1.26 1.07-.18 2.34 1.13 3.19a23.27 23.27 0 0 0 8.72 2.38 30.07 30.07 0 0 0 7.68-.58c1.58-.42 7.2-2.77 6.35-.63a2.05 2.05 0 0 0 .27 1.38 8 8 0 0 1 2.08 2.62 7.86 7.86 0 0 0 1.27 2.29 2 2 0 0 0 1.34.45s1.69.11 2.27.22a8.08 8.08 0 0 0 3.52-.11 5.21 5.21 0 0 0 2.49-2.1 5.8 5.8 0 0 0 3.41-1.3c1.77-1.36 2.3-2.35 2.55-3.52s1.3-4.35 1.58-5.18.38-2 .8-3.6a18.33 18.33 0 0 0 .89-4 25.47 25.47 0 0 0-.3-4.85c-.25-1.38-1-4.57-1.05-5.35a29.06 29.06 0 0 0-1-3.93c-.22-.78-1.3-2.13-2.1-3.77a22.94 22.94 0 0 0-4-4.79 47.44 47.44 0 0 0-4.13-2.71c-.75-.58-3.79-3.16-4.43-3.85s-4.2-4-4.58-4.3l-.74-.58a19.13 19.13 0 0 0-6-2.86l-1.05-.28c1 .37-.76 1.16-.56 1.19a5.36 5.36 0 0 0 1.06 0 18.71 18.71 0 0 1 6.34 3.17s2.52 2.29 2.93 2.7a38.8 38.8 0 0 0 3.25 3.51c1.18 1 6.43 4.58 7.46 5.58a18.55 18.55 0 0 1 4 5c.92 2 1.68 3 2.2 5.66.26 1.31 1.16 4 1.38 5.75a19.19 19.19 0 0 1 .11 4c-.07.7-1.07 1.22-1.44-.07s-3.18-4.32-3.43-4.87a9.79 9.79 0 0 0-3.36-2.81 17.57 17.57 0 0 0-7.24-1.18 16.13 16.13 0 0 1-3.1.44 1.53 1.53 0 0 1-1.33-1 12.86 12.86 0 0 1-.23-4.38c.28-1.38.39-1.52.17-1.72s-.75 2.22-1.5 2-.83-1-.83-2.38-.28-3.6-.55-3.68-.22 2.47-.17 3.24-.14 8.23.33 10.86a4.69 4.69 0 0 0-2 1.61 5.86 5.86 0 0 0-.61 2.58c-.06.61-.14 1.16-.89 1.47a3.4 3.4 0 0 1-2.88-.36c-1.22-.61-1.8-6.26-5.5-6.19-1.94 0 .69 5.78-2.72 5.62-1.39-.06-3.35-.37-3.81-.4-1.11-.09-2.43-.6-3.08.16a2.08 2.08 0 0 0-.4 2c-.06.08-1 0-1.45.44a1.89 1.89 0 0 0 .22 3c.43.36-.64-.43-1.15 1.17zM219 166.41s2.11-2.48 2.44-4.28a18.13 18.13 0 0 0 0-8.59c-1-4.46-2.6-6.9-3.18-7.56a10.87 10.87 0 0 0-2.52-1.83 2.95 2.95 0 0 0-3.92.21l-2 1.7v-.16a2.73 2.73 0 0 1 .89-2.22 11.59 11.59 0 0 1 2.49-1.41c.64-.42.47-1.22 2.49-1.33a7.4 7.4 0 0 1 5.07 1.5c1.74 1.16 2.8 3.41 3.32 4.46s.75 1.47.89 1.41-.69-1.86-.8-2.63a8.51 8.51 0 0 0-1.36-3 15.77 15.77 0 0 0-4-2.52c-1.05-.36.25-.36.5-.36a10.52 10.52 0 0 1 7.06 1.91 21.42 21.42 0 0 1 5.1 5.9 4.55 4.55 0 0 1 1.5 2.83 8.23 8.23 0 0 1-.78 3.77 24.9 24.9 0 0 0-.94 3.21 16.74 16.74 0 0 1-.61 3 6.13 6.13 0 0 1-2.1 2.85c-1.16.86-1.63.86-1.63.86s.94-3 1-3.57.06-.72-.06-.69a25.72 25.72 0 0 0-1.72 3.46 7.28 7.28 0 0 1-2 2.89 6.55 6.55 0 0 1-3 .8 3.33 3.33 0 0 1-1.52-.26 2.16 2.16 0 0 1-.61-.35zm-5.21-21.81l1.58.66v.05l-2.61.1s.74-.61 1.01-.81zm1.73 18.08c.45-.08 1.76-.22 2.29.55a2.31 2.31 0 0 1-.28 3.16c-.31.2-.79-.37-.85-.78s-1.1-2.77-1.17-2.93zm-1.33-1.2a22.09 22.09 0 0 0 .75-3 16.59 16.59 0 0 0-.33-5.79c-.42-1.38-1.5-3.74-2.66-4.65s-2-.8-1.94-1a2.35 2.35 0 0 1 1.38-.69c.66-.12 3.63-.16 4.32-.16v.06a4.43 4.43 0 0 1 3 2.49 23.86 23.86 0 0 1 1.66 7.92c0 2.13 0 3.32-.78 4.13a2.57 2.57 0 0 1-2.27.72c-.58-.04-3.32.21-3.15-.03zm-25.33-8.55a9.89 9.89 0 0 0 3.09 1.1 14.86 14.86 0 0 0 2.91.44c.53-.08.78-.22.72-.39s-.66-.42-1.25-.53a22.93 22.93 0 0 1-4.35-1.25c-1.05-.55-2-1.53-1.84-2.3.23-1.08 1.72-.54 3-.07a24 24 0 0 0 3.39.75 2.42 2.42 0 0 0 1.63-.14c.5-.19.3-.42.06-.44a21.27 21.27 0 0 1-3.27-.69c-1.14-.43-3.28-1.28-2.84-2.15.31-.62 1-.57 4-.1a23.76 23.76 0 0 0 2.91.23 16.93 16.93 0 0 0 1.83 0 1.25 1.25 0 0 0 1.05-1.23c0-.79-1-3.22-.65-3.12.07 0 1.87-.4 3 2.24.47 1.1.59 3 3 3.4a6.61 6.61 0 0 0 4.15-.55 3.67 3.67 0 0 1 2.14 1.24 13.94 13.94 0 0 1 2 4.82c.28 1.69.17 5.07-.14 4.87s-2.71.39-4.07.61-4.35 1.61-5.4 1.61a24.44 24.44 0 0 1-7.53-.3c-4.1-.83-5.84-1.68-6.47-2.18s-.62-1.06-.43-1.23 1.67.66 4.6.77c.55 0 1.5.09 1.64-.13s-.19-.42-.61-.61-3.75-.8-4.27-1a11.17 11.17 0 0 1-3-1.75c-.59-.71-.09-2.56.99-1.91zM163.85 139.89a3.31 3.31 0 0 1-.3.47 5.23 5.23 0 0 1-1.13 1c-.11.08-.23 0-.34 0 .17 2.39.7 6.29.71 7.23a33.21 33.21 0 0 1-.47 6.58c-.1.17-.83 2.89-6.84 2.76a8.83 8.83 0 0 1-2.2-.33c-7-3.35-10-7.54-10.32-8s-.47-1-.15-1.06a6.36 6.36 0 0 0 1.85-1A28 28 0 0 0 149 143c1.78-2.34 3-6 3.31-6.6.06-.11.43-1.11.54-1.49.27-.95.46-1.95.46-1.95a5 5 0 0 1 .3-.87c.28-.69.63-1.35.9-1.26s.52 1.37.55 2c0 0 0 2.75-.13 4.89a10.26 10.26 0 0 1-.66 2.58 5.64 5.64 0 0 1-.52 1.18c-.61 1.21.22.33.22.33a6.45 6.45 0 0 0 1.87-3.73s0-1 .2-1c.32-.09.47 1.42.42 2.21s.06 1.2.31.79a15.89 15.89 0 0 0 .75-5.54v-.13c-.09-1.41-.57-2-.44-4.2A5.32 5.32 0 0 1 159 127a35.55 35.55 0 0 0 3.2-3.32c.32-.35 2-2.83 3.6-5.18a.83.83 0 0 1-.16 0 .8.8 0 0 1-.82-.78c-1.17 1.56-2.25 3.23-2.69 3.72-1.07 1.2-2.91 3.11-4.42 5-.31.4-1.22 1.19-1.75 1.93a3.14 3.14 0 0 0-.53 1.75s-.88-.64-.88-.79a1.6 1.6 0 0 0-.35-1.37c-.55-.84-2.23-1.37-3-2s-1.9-2.76-3.44-3.44-2.52-1-3.18-.49a1.91 1.91 0 0 0-.77.94 2.74 2.74 0 0 0-2.49-1.51 2.49 2.49 0 0 1-1.81-1c-.55-.57-4.83-6.3-5.63-7.15a11.94 11.94 0 0 0-4.41-2.25 5.83 5.83 0 0 1-2.54-1.28c-.45-.39-1.68-1.78-2.12-2a2.6 2.6 0 0 0-2-.18c-.77.21-.94 1.23-1 1.43l7 6.29-1-.21c-1-.17-2.23.08-3-.3a20 20 0 0 0-2.91-.84 2.31 2.31 0 0 0-1.56.84 2.18 2.18 0 0 0-.07 2.53 2.09 2.09 0 0 0 .52.41 1.86 1.86 0 0 0-.71.46 2.92 2.92 0 0 0-.26 2.47 3.91 3.91 0 0 0 1.1 1.37s-.54.27-.41 1.8a1.89 1.89 0 0 0 .72 1.35c.5.49 1.22.77 1.32 1a3.84 3.84 0 0 0 .35 1.5 5.13 5.13 0 0 0 2.5 1.56h.09a30.59 30.59 0 0 0 4.83 1.3c1 .1 3.31.26 3.38.73s-.66 1-1.3 1.59a9.4 9.4 0 0 0-1.06 1.31l-.78 1.2a5.26 5.26 0 0 0-1.07 3 3.64 3.64 0 0 0 1.66 2.58c.67.49 2.1 1.32 2.1 1.32a8.4 8.4 0 0 1 2.41 2.78l1.21 1.71a12.76 12.76 0 0 0 1.77 1.72c.75.56 2.05.58 2.38 1.15s3.35 4 3.35 4c3.5 3.34 6.68 4.91 9.24 5.5a15.51 15.51 0 0 0 4.31 0 5.58 5.58 0 0 0 2.61-1 1.17 1.17 0 0 1 1.48.12 2.61 2.61 0 0 1 .3 1.51v.84l1-.12c0-.07.47-4.69.64-6.27a40.69 40.69 0 0 0-.07-6.53c-.14-.44-.06-5.43-.03-7.81zM140 125.34a16.5 16.5 0 0 1 1.37-2.45c.89-.81 1.87 1.17 1.87 1.17l.47.75a6 6 0 0 1 .39 2.33 7.05 7.05 0 0 1-1.06 2.89c-.55.78-3.52 5-4.51 5.42a4.63 4.63 0 0 1-3.07.2 3.81 3.81 0 0 1-1.66-1.9 1.19 1.19 0 0 1 .19-.89l2.7-3.55.15-.15s1.86-2 2.45-2.74a5.78 5.78 0 0 0 .71-1.08zm-18.28-10.2c.92.07 2.79.49 4.44.74s3.38.27 3.81.36a2.69 2.69 0 0 1 .82.39s.7.56.25 1.19a3.27 3.27 0 0 1-2.63 1.15c-1.32.07-4.81-.2-5.91-1a2.11 2.11 0 0 0-.91-.38 1.22 1.22 0 0 1-.67-.73c-.15-.6-.07-1.8.85-1.72zm-1.41 4.08s.26-.75.93-.64a11.43 11.43 0 0 0 3.86 1 29 29 0 0 0 5.52-.42c.58 0 2 0 2.12 1.06a1.61 1.61 0 0 1-1.26 2 11.64 11.64 0 0 1-4.3.75c-.43 0-3.64-.06-5.62-1.41l-.23-.15a2.3 2.3 0 0 1-.97-2.19zm1.94 5.8s-1.62-1.64-.55-2a2.37 2.37 0 0 1 1.5.33 7.23 7.23 0 0 0 2.67.62 9.65 9.65 0 0 0 3.84-.33s1.47-.79 1.81-.68.83.19.09 1.06a4.73 4.73 0 0 1-2.16 1.54 9.62 9.62 0 0 1-3.53.66 5.91 5.91 0 0 1-3.62-1.22zm3.86 3.31a4.38 4.38 0 0 1-2.1-.64c-.76-.58-.42-1 .15-.95a14.34 14.34 0 0 0 5.41-.24 1.2 1.2 0 0 1-.54 1.33 5.6 5.6 0 0 1-2.87.5zm4.85 1.1c-.7-.11-1.49-.44-1.37-.75s.56-.44.95-1.1a1 1 0 0 0 0-1.17l-.24-.1c2.4-.76 2.63-2.13 2.65-2.64s-.19-1.31.11-1.54a2.35 2.35 0 0 0 .42-.7 4.3 4.3 0 0 0 .09-1.15 1.65 1.65 0 0 0-.88-1.35c-.73-.43-.56-.59-.49-.76a1.52 1.52 0 0 0 0-1.31c-.25-.58-1.26-1.23-1.31-1.34l-7.75-5.58a1.85 1.85 0 0 1-.09-1.14c.14-.24.4-.41 1.13-.31s2.45 2.07 3.24 2.76 1.35.53 2.69 1.28a16.66 16.66 0 0 1 4 2.91c.79 1 2.32 3 2.85 3.53s1.74 1.88 2.47 2.71a1.24 1.24 0 0 1 .33 1 7.4 7.4 0 0 1-.94 2.67 5.44 5.44 0 0 1-.71.94l-1.9 2a3.57 3.57 0 0 1-1.59 1.26 13.42 13.42 0 0 1-3.62-.12zm-.22 8.89c-.22-.85.88-2.25 1.48-3.16.72-1.08 2.09.71 2.23 1.26a2.27 2.27 0 0 1-.42 2.16c-.82.99-3.03.6-3.24-.25zm9.89 9.42a4.75 4.75 0 0 1-3.53-2.3c-.71-.88-.13-1.46-.13-1.46a5.63 5.63 0 0 0 2.12-1.28c.24-.58-.12-.25-.31-.11a2.93 2.93 0 0 1-2.34.31 6.5 6.5 0 0 1-1.92-1.1c-.36-.29-1.3-1-1.32-1.43s.24-.56.68-.84 3.18-1.88 4.59-2.91a33.87 33.87 0 0 0 5-5.6 17 17 0 0 0 1.13-1.86 19.36 19.36 0 0 0 .78-3.08 5.28 5.28 0 0 0 0-2c-.2-.7-.53 0-.8 0s-.23-.55.33-1a2.09 2.09 0 0 1 2.22 0 3.94 3.94 0 0 1 1.69 2.95 10.92 10.92 0 0 1 .15 2.32c0 .67 0 .78-.05 1-.07 1.07.19 1 .32.85a3.15 3.15 0 0 0 .56-1.27 5.55 5.55 0 0 1 .38-1.65c.25-.28.51 0 1 .23s1.57.81 1.75 1.32a6.54 6.54 0 0 1 0 1.91 19.66 19.66 0 0 1-1.22 3.41l-.6 1.54c-.34.79-1.48 3.2-2 4a62.71 62.71 0 0 1-4.09 5.81c-1.34 1.72-2.29 2.5-4.34 2.25zM173.29 111.45a3.94 3.94 0 0 0-.64.18 17.82 17.82 0 0 0-3.24 1.55.9.9 0 0 1 .3 1.19 22.45 22.45 0 0 1 4-2l1-.21v-1.14a14.31 14.31 0 0 0-1.42.43z" fill="#692f23"/><path d="M163.89 134.44c-.21 1.62-.55 2.75-.81 2.76-.43 0-.59-1.77-.82-1.8s-.29.34-.36 2.11v2.84a12.48 12.48 0 0 1 .19 1.6c0 .13.05.36.07.56a2.27 2.27 0 0 0 .35-.45c.21-.29.34-.65.52-1a.83.83 0 0 1 1.19-.27c.23-1.69.33-3.66.37-4.15.14-1.7.4-4.61.08-4.64s-.53.43-.78 2.44z" fill="#692f23"/><path d="M127.25 132.33s.93-.35 1.36-.58c.22-.11.43-.21.59-.31 1-.59 3.41-2 4.45-2.82s4.71-3.12 5.38-6.86a30.81 30.81 0 0 0 .94-3 31.18 31.18 0 0 0 .48-3.93 10.11 10.11 0 0 0-.23-2.71 12.37 12.37 0 0 0-3-4.87 21.45 21.45 0 0 0-4.67-3.38c-1.93-1-2.82-2-5.82-2.15s-6.08-.4-8.64 3.18a13.4 13.4 0 0 0-1.31 2.43c-.87 2.23-1.75 6.23-2 6.78a19.4 19.4 0 0 0-.63 5.64c.07 2.69 2.21 6.4 2.41 7.12a19.78 19.78 0 0 1-.25 4.71c-.12.91-.52 3.2-.6 4.13a3.08 3.08 0 0 0 0 .7 1.91 1.91 0 0 0 1.48 1.74 2.19 2.19 0 0 0 2.08-.7c.43-.35 1.63-2.1 2.19-2.48s2.87-1.39 3.71-1.78c.45-.19 1.27-.53 2.08-.86z" fill="#692e21"/><path d="M120.36 134.68c-.7.76-1.52 2.36-2.41 2.37-1.3 0-1.28-1-1-2.48.21-.86.48-4.48.85-6.73a12.9 12.9 0 0 1 1.71-4.41c.7-1.5 4-3.91 4.9-5s.69-1.19.45-.85-.95.8-1.56 1.41-3 2-4.12 3.3a15.34 15.34 0 0 0-2 3.78 25.1 25.1 0 0 1-1.45-3.52c-.37-1.37-.69-5.93-.07-7.94s2.38-7.31 2.39-7.31a6 6 0 0 1 3.51-3.33 12.62 12.62 0 0 1 7.83-.22 43.16 43.16 0 0 1 6.29 3.63c1 .87 3.46 4.6 3.64 6 .28 2.14-.69 7.82-1.73 9.49a20.94 20.94 0 0 1-7.46 6.68c-3.65 1.89-5.18 2.86-6.76 3.38a7.3 7.3 0 0 0-3.01 1.75z" fill="#fd8204"/><path d="M125.41 112.81c-.16 0-2.93 1.06-4.45.85s-1.95.33-1.34.67a5.47 5.47 0 0 0 3.41.19c1.41-.34 3.92-2.03 2.38-1.71zM126 124.31a9.13 9.13 0 0 0 4.75.45 10.45 10.45 0 0 0 4.08-1.85c.57-.46 1.13-.63.56.19a7.4 7.4 0 0 1-4.53 2.67 8.06 8.06 0 0 1-5-.48c-1.03-.56-1.53-1.58.14-.98zM163.31 175.58l-.1-1.86-9.53 3.4 2.77.85 6.86-2.39z" fill="#692e21"/></g></svg>