<svg xmlns="http://www.w3.org/2000/svg" width="37.11mm" height="43.97mm" viewBox="0 0 105.19 124.64"><g stroke="#682f24" stroke-linejoin="round"><ellipse cx="63.05" cy="104.54" rx="41.14" ry="15.24" fill="#e2ddd3" stroke-width="2"/><ellipse cx="63.05" cy="103.24" rx="34.32" ry="11.41" fill="none"/><path d="M95.77 68.5a8.12 8.12 0 0 0-3.4.75V55.56a5.48 5.48 0 0 0-5.48-5.48h-4.46a23.52 23.52 0 0 0-38.75 0h-4.46a5.48 5.48 0 0 0-5.49 5.48v13.17a7.84 7.84 0 0 0-5.36 14.67v20.76a3 3 0 0 0 3 3h5.1a3 3 0 0 0 3-2.65h47.49a2.65 2.65 0 0 0 .81-.13 3.06 3.06 0 0 0 3.07 2.73h5.2a3.06 3.06 0 0 0 3.1-3V83.43a7.82 7.82 0 0 0 4.63-7.1 7.93 7.93 0 0 0-8-7.83z" fill="#ff8300" stroke-width="2"/><path d="M86.89 50.12h-4.46a23.52 23.52 0 0 0-38.75 0h-4.46a5.48 5.48 0 0 0-5.49 5.44v34.3a5.49 5.49 0 0 0 5.49 5.49H86.9a5.48 5.48 0 0 0 5.48-5.49v-34.3a5.48 5.48 0 0 0-5.49-5.44z" fill="#e1670f"/><ellipse cx="63.05" cy="81.6" rx="30.21" ry="7.42" fill="#f08119"/><path d="M90.84 98.72c0 3.22-1.73 5.83-3.87 5.83H39.13c-2.13 0-3.87-2.61-3.87-5.83v-7.37c0-3.22 1.73-5.83 3.87-5.83h47.83c2.14 0 3.87 2.61 3.87 5.83v7.37z" fill="#e1670f"/><path d="M39.53 76.34a7.85 7.85 0 1 0-11.16 7.1v20.72a3 3 0 0 0 3 3h5.1a3 3 0 0 0 3-3v-27.6-.09c0-.03.06-.1.06-.13zM87.76 76.33a8 8 0 0 1 16 0 7.82 7.82 0 0 1-4.63 7.1v20.69a3.06 3.06 0 0 1-3.1 3h-5.2a3.06 3.06 0 0 1-3.1-3V76.56v-.09c0-.03.03-.11.03-.14z" fill="#f08119"/><circle cx="31.68" cy="76.23" r="2.05" fill="#e7c3a0"/><circle cx="95.77" cy="76.23" r="2.05" fill="#e7c3a0"/></g><ellipse cx="23.28" cy="118.22" rx="3.9" ry="5.92" fill="#e7c3a0" stroke="#682f24" stroke-miterlimit="10"/><ellipse cx="31.76" cy="118.22" rx="3.9" ry="5.92" fill="#e7c3a0" stroke="#682f24" stroke-miterlimit="10"/><path d="M2.46 24.56c0-13 9.74-23.57 22.88-23.57s22.87 10.57 22.87 23.57c0 14-9.74 23.57-22.87 23.57S2.46 39.56 2.46 24.56z" fill="#e7c3a0" stroke="#682f24" stroke-miterlimit="10" stroke-width="2"/><path d="M69.52 58.56a24.2 24.2 0 0 1 2.5.39c.83.21 1.33.13 1.36.83a14.51 14.51 0 0 1 .29 2.09c0 .86-.59 1.44-.71 2.36s-1.07 1.36-1.44 1.76c-.89 1-6.43-.49-7.34-.94s-1.23-2-1.08-4 2.83-2.42 3.29-3a6 6 0 0 0 1.12-3.37c.05-1.54-.3-2.18.48-2.21s1.62 1.58 1.53 3.39a17.92 17.92 0 0 0 0 2.7zM27.42 96.98h-7.8l.79 16.77c0 3.1 1.57 4.48 3.51 4.48s3.5-1.38 3.5-4.48c0 3.1 1.62 4.48 3.62 4.48s3.62-1.38 3.62-4.48l.82-16.77h-8z" fill="#fde9d3" stroke="#682f24" stroke-miterlimit="10"/><path d="M64.6 57.71l-1.57-.4a2.74 2.74 0 0 0-1.8-2.28l-10.85-2.57s-8.17-6.65-10.65-7.79a20 20 0 0 0-4.59-2.05 29.8 29.8 0 0 0-8.83-1.28c-6.45 0-11.67 1.52-14.84 4.34C7.91 48.37.1 76.68 1.11 77.41l-.15 1.67c0 .64 1.73 1.25 3.93 1.36s3.41-.32 3.44-1l.07-1.49a3.67 3.67 0 0 0 1.34-1.21l4.47-18.18c0 1.19 4 11 4 11s19.07-.47 19.07-1.66l2.52-10.23a51.77 51.77 0 0 0 7.75 4.62c3.71 1.67 13.1 3 13.8 2.24l1.39.36c.62.16 1.57-1.44 2.12-3.58s.36-3.44-.26-3.6z" fill="#f7f5f2" stroke="#682f24" stroke-linecap="round" stroke-linejoin="round" stroke-width="2"/><path d="M21.77 38.9v2.45c0 1.35 1.62 2.45 3.62 2.45s3.62-1.1 3.62-2.45V38.9h-7.24z" fill="#e7c3a0" stroke="#682f24" stroke-miterlimit="10"/><path d="M25.39 40.2A16.48 16.48 0 0 1 8.78 23.88a15.87 15.87 0 0 1 1.41-6.55 48.46 48.46 0 0 0 30.38 0 15.88 15.88 0 0 1 1.39 6.55A16.48 16.48 0 0 1 25.39 40.2z" fill="#fde9d3"/><path d="M10.47 17.95a49.1 49.1 0 0 0 29.83 0 15.35 15.35 0 0 1 1.19 5.93 16.11 16.11 0 0 1-32.21 0 15.35 15.35 0 0 1 1.19-5.93m30.37-1.24a47.84 47.84 0 0 1-30.91 0 16.48 16.48 0 0 0-1.65 7.18 17.11 17.11 0 0 0 34.21 0 16.49 16.49 0 0 0-1.65-7.18z" fill="#682f24"/><path d="M29.9 32.74a12.81 12.81 0 0 1-4.9.91 13 13 0 0 1-4.65-.81" fill="none" stroke="#682f24" stroke-linecap="round" stroke-miterlimit="10"/><path d="M27.29 35.38a6.38 6.38 0 0 1-2.23.37 6.46 6.46 0 0 1-2.11-.33" fill="#fff" stroke="#682f24" stroke-linecap="round" stroke-miterlimit="10"/><path d="M26.96 29.85a13.68 13.68 0 0 1-1.89.12 14.1 14.1 0 0 1-1.79-.11" fill="#fff" stroke="#682f24" stroke-linecap="round" stroke-miterlimit="10" stroke-width=".5"/><path d="M1.68 79.97s0 6.63 2 8.29 5 2.21 4.39.61a32.12 32.12 0 0 1-1.11-4.31 3.25 3.25 0 0 1 1.43 1.2c.65.93 1-.17.31-1.51s-1.74-4.39-1.74-4.39z" fill="#fde9d3" stroke="#682f24" stroke-miterlimit="10"/><path d="M69.52 58.56a2.41 2.41 0 0 0-1.49 2.78c.5 2 1.49 4.69 1.49 4.69" fill="none" stroke="#682f24" stroke-linecap="round" stroke-linejoin="round"/><path fill="none" stroke="#682f24" stroke-linecap="round" stroke-miterlimit="10" d="M27.35 115.04v-14.88"/><path d="M16.77 22.67a5.94 5.94 0 0 0-3.81 1.89 4.75 4.75 0 0 0 7.62 0 5.94 5.94 0 0 0-3.81-1.89z" fill="#fff" stroke="#682f24" stroke-miterlimit="10"/><ellipse cx="16.77" cy="24.57" rx="1.67" ry="1.51" fill="#682f24"/><g><path d="M32.82 22.67a5.94 5.94 0 0 0-3.86 1.89 4.75 4.75 0 0 0 7.62 0 5.93 5.93 0 0 0-3.76-1.89z" fill="#fff" stroke="#682f24" stroke-miterlimit="10"/><ellipse cx="32.82" cy="24.57" rx="1.67" ry="1.51" fill="#682f24"/></g><path d="M37.27 67.87c-2.23.75-7 1.06-10.31 1.06a31.53 31.53 0 0 1-9.39-1.26c-7.35 5.88-8.46 18.29-8.46 29.3 0 1.89 8.2 3.42 18.31 3.42s18.31-1.53 18.31-3.42h.17c0-10.95-1.48-23.18-8.63-29.1z" fill="#e2ddd3" stroke="#682f24" stroke-linecap="round" stroke-linejoin="round" stroke-width="2"/><path d="M31.56 43.79c0 3.94-2.76 7.14-6.17 7.14s-6.17-3.2-6.17-7.14" fill="none" stroke="#e09c50" stroke-linecap="square" stroke-miterlimit="10" stroke-width="2"/></svg>