<svg xmlns="http://www.w3.org/2000/svg" width="55" height="55" viewBox="0 0 55 55"><title>клиент_4</title><g data-name="Слой 2"><g data-name="Слой 1"><path fill="none" d="M0 0h55v55H0z"/><path d="M18.93 40.53A27.52 27.52 0 0 1 10 37.08a52.9 52.9 0 0 1-.88-9.66S6.43 2.23 26.86 2.47c20.83.24 19.07 25.06 19.07 25.06a59 59 0 0 1-.78 10.12c-2.49 1.62-5.12 2.26-9 3" fill="none" stroke="#fd8204" stroke-linejoin="round" stroke-width="1.2"/><path d="M24 39.24c-7.25 1-12.69 5.08-12.69 10v.48a45.12 45.12 0 0 0 16.09 2.81 45.11 45.11 0 0 0 16.05-2.85v-.48c0-4.89-5.43-9-12.68-10" fill="none" stroke="#fd8204" stroke-miterlimit="10" stroke-width="1.2"/><path d="M24 37.8v1.36c0 1.27 1.52 2.3 3.4 2.3s3.4-1 3.4-2.3V37.8" fill="none" stroke="#fd8204" stroke-miterlimit="10" stroke-width=".75"/><path d="M41.12 25.09a83.28 83.28 0 0 0 .27-8.69c-4.78 1.47-6.46-3.4-6.46-3.4s-2.71 4.33-7.34 5.4a26 26 0 0 1-14.31-1 34.69 34.69 0 0 0 .3 7.6c1 7.06 5.26 13 13.82 13.14 8.32.09 13.33-6.23 13.72-13.05z" fill="none" stroke="#fd8204" stroke-miterlimit="10" stroke-width=".75"/><path d="M31.64 31.06a12.05 12.05 0 0 1-4.61.86 12.25 12.25 0 0 1-4.38-.76M29.19 33.55a6.45 6.45 0 0 1-4.08 0M28.87 28.33a6.65 6.65 0 0 1-1.78.3 5.41 5.41 0 0 1-1.69-.27M22.87 23.39a5.58 5.58 0 0 0-3.58-1.8 5.58 5.58 0 0 0-3.58 1.8" fill="none" stroke="#fd8204" stroke-linecap="round" stroke-miterlimit="10" stroke-width=".75"/><ellipse cx="19.29" cy="23.39" rx="1.57" ry="1.42" fill="#fd8204"/><path d="M38 23.39a5.58 5.58 0 0 0-3.58-1.8 5.58 5.58 0 0 0-3.58 1.8" fill="none" stroke="#fd8204" stroke-linecap="round" stroke-miterlimit="10" stroke-width=".75"/><ellipse cx="34.38" cy="23.39" rx="1.57" ry="1.42" fill="#fd8204"/><path d="M33.2 40.52c0 3.71-2.6 6.71-5.81 6.71s-5.81-3-5.81-6.71" fill="none" stroke="#fd8204" stroke-linecap="square" stroke-miterlimit="10" stroke-width="1.2"/></g></g></svg>