<svg xmlns="http://www.w3.org/2000/svg" width="70" height="70" viewBox="0 0 70 70"><title>клент</title><g data-name="Слой 2"><g data-name="Слой 1"><path fill="none" d="M0 0h70v70H0z"/><path d="M17.84 25a15.58 15.58 0 0 1-5-2 30 30 0 0 1-.5-5.47s-1.54-14.26 10-14.12c11.79.14 10.8 14.18 10.8 14.18a33.4 33.4 0 0 1-.44 5.73A13.62 13.62 0 0 1 27.62 25" fill="#e5c19e"/><path d="M27.72 25.53l-.2-1A14 14 0 0 0 32.24 23a33.44 33.44 0 0 0 .39-5.42c0-.1.43-6.86-3.22-10.81a9.36 9.36 0 0 0-7.09-2.87 8.46 8.46 0 0 0-6.7 2.61c-3.54 3.9-2.83 10.89-2.83 11a30 30 0 0 0 .45 5.22 15.4 15.4 0 0 0 4.69 1.77l-.21 1a16.13 16.13 0 0 1-5.2-2l-.18-.12v-.21a30.39 30.39 0 0 1-.5-5.56c0-.25-.76-7.46 3.08-11.69a9.39 9.39 0 0 1 7.45-2.93 10.32 10.32 0 0 1 7.81 3.2c3.94 4.28 3.5 11.23 3.48 11.52a33.37 33.37 0 0 1-.45 5.78v.21l-.18.12a14.12 14.12 0 0 1-5.31 1.71z" fill="#782b0e"/><ellipse cx="47.23" cy="58.61" rx="20.71" ry="7.67" fill="#e0dbd1"/><path d="M47.23 66.79C35.33 66.79 26 63.2 26 58.61s9.32-8.17 21.21-8.17S68.44 54 68.44 58.61s-9.32 8.18-21.21 8.18zm0-15.34c-11 0-20.21 3.28-20.21 7.17s9.26 7.17 20.21 7.17 20.21-3.28 20.21-7.17-9.25-7.18-20.21-7.18z" fill="#782b0e"/><path d="M47.23 64.07c-9.9 0-17.65-2.69-17.65-6.12s7.75-6.12 17.65-6.12 17.65 2.7 17.65 6.17-7.75 6.07-17.65 6.07zm0-11.49c-10.11 0-16.9 2.78-16.9 5.37s6.79 5.37 16.9 5.37 16.9-2.78 16.9-5.37-6.79-5.36-16.9-5.36z" fill="#782b0e"/><path d="M59.23 31.21H57a11.84 11.84 0 0 0-19.51 0h-2.26A2.76 2.76 0 0 0 32.46 34v17.22A2.76 2.76 0 0 0 35.23 54h24A2.76 2.76 0 0 0 62 51.22V34a2.76 2.76 0 0 0-2.77-2.79z" fill="#dad6cc"/><path d="M59.23 54.48h-24A3.27 3.27 0 0 1 32 51.22V34a3.26 3.26 0 0 1 3.26-3.26h2a12.34 12.34 0 0 1 20 0h2A3.26 3.26 0 0 1 62.49 34v17.22a3.27 3.27 0 0 1-3.26 3.26zm-24-22.77A2.26 2.26 0 0 0 33 34v17.22a2.26 2.26 0 0 0 2.26 2.26h24a2.26 2.26 0 0 0 2.26-2.26V34a2.26 2.26 0 0 0-2.26-2.26H57a.5.5 0 0 1-.41-.22 11.34 11.34 0 0 0-18.69 0 .5.5 0 0 1-.41.22z" fill="#782b0e"/><ellipse cx="47.23" cy="47.06" rx="15.21" ry="3.74" fill="#f5f3ef"/><path d="M47.23 51.3c-7.81 0-15.71-1.46-15.71-4.24s7.9-4.24 15.71-4.24 15.71 1.46 15.71 4.24S55 51.3 47.23 51.3zm0-7.47c-9.11 0-14.71 1.89-14.71 3.24s5.6 3.24 14.71 3.24 14.71-1.88 14.71-3.24-5.6-3.25-14.71-3.25z" fill="#782b0e"/><path d="M61.22 55.68c0 1.62-.87 2.93-1.95 2.93H35.18c-1.07 0-1.95-1.31-1.95-2.93V52c0-1.62.87-2.93 1.95-2.93h24.09c1.08 0 1.95 1.31 1.95 2.93z" fill="#dad6cc"/><path d="M59.27 59.11H35.18c-1.37 0-2.45-1.51-2.45-3.44V52c0-1.93 1.08-3.43 2.45-3.43h24.09c1.37 0 2.45 1.51 2.45 3.43v3.71c0 1.89-1.07 3.4-2.45 3.4zm-24.09-9.57c-.78 0-1.45 1.11-1.45 2.43v3.71c0 1.32.66 2.44 1.45 2.44h24.09c.78 0 1.45-1.12 1.45-2.44V52c0-1.32-.66-2.43-1.45-2.43z" fill="#782b0e"/><path d="M35.39 44.41A4 4 0 1 0 29.77 48v10.42a1.53 1.53 0 0 0 1.53 1.53h2.57a1.53 1.53 0 0 0 1.53-1.53V44.5s-.01-.07-.01-.09z" fill="#f5f3ef"/><path d="M33.86 60.45h-2.57a2 2 0 0 1-2-2V48.29a4.45 4.45 0 1 1 6.62-3.88v14.01a2 2 0 0 1-2.05 2.03zM31.43 41A3.45 3.45 0 0 0 30 47.54a.5.5 0 0 1 .29.45v10.43a1 1 0 0 0 1 1h2.57a1 1 0 0 0 1-1V44.5v-.1a3.46 3.46 0 0 0-3.43-3.4z" fill="#782b0e"/><path d="M59.67 44.41a4 4 0 0 1 8.07 0A3.94 3.94 0 0 1 65.41 48v10.4a1.54 1.54 0 0 1-1.56 1.52h-2.62a1.54 1.54 0 0 1-1.56-1.52V44.5v-.09z" fill="#f5f3ef"/><path d="M63.85 60.42h-2.62a2 2 0 0 1-2.06-2v-14a4.54 4.54 0 0 1 9.07 0 4.45 4.45 0 0 1-2.33 3.88v10.1a2 2 0 0 1-2.06 2.02zm-3.68-16V58.4a1 1 0 0 0 1.06 1h2.62a1 1 0 0 0 1.06-1V48a.5.5 0 0 1 .29-.45 3.45 3.45 0 0 0 2-3.12 3.54 3.54 0 0 0-7.07 0z" fill="#782b0e"/><circle cx="31.43" cy="44.36" r="1.03" fill="#e4c19e"/><path d="M31.43 45.76a1.41 1.41 0 1 1 1.41-1.41 1.41 1.41 0 0 1-1.41 1.41zm0-2.06a.66.66 0 1 0 .66.66.66.66 0 0 0-.66-.66z" fill="#782b0e"/><circle cx="63.7" cy="44.36" r="1.03" fill="#e4c19e"/><path d="M63.7 45.76a1.41 1.41 0 1 1 1.41-1.41 1.41 1.41 0 0 1-1.41 1.41zm0-2.06a.66.66 0 1 0 .66.66.66.66 0 0 0-.66-.66z" fill="#782b0e"/><ellipse cx="20.88" cy="63.02" rx="1.96" ry="2.98" fill="#e4c19e"/><path d="M20.88 66.38c-1.31 0-2.34-1.47-2.34-3.35s1-3.35 2.34-3.35 2.34 1.47 2.34 3.35-1.03 3.35-2.34 3.35zm0-6c-.86 0-1.59 1.19-1.59 2.6s.73 2.6 1.59 2.6 1.59-1.19 1.59-2.6-.73-2.56-1.59-2.56z" fill="#782b0e"/><ellipse cx="25.14" cy="63.02" rx="1.96" ry="2.98" fill="#e4c19e"/><path d="M25.14 66.38c-1.31 0-2.34-1.47-2.34-3.35s1-3.35 2.34-3.35 2.34 1.47 2.34 3.35-1.03 3.35-2.34 3.35zm0-6c-.86 0-1.59 1.19-1.59 2.6s.73 2.6 1.59 2.6 1.59-1.19 1.59-2.6-.73-2.56-1.59-2.56z" fill="#782b0e"/><path d="M44.15 33a12.18 12.18 0 0 1 1.26.2c.42.11.67.07.69.42a7.31 7.31 0 0 1 .14 1.05c0 .43-.3.73-.36 1.19s-.54.68-.73.89c-.45.48-3.24-.24-3.69-.47s-.62-1-.55-2 1.42-1.22 1.65-1.5a3 3 0 0 0 .57-1.7c0-.78-.15-1.1.24-1.11s.82.8.77 1.71a9 9 0 0 0 .01 1.32z" fill="#fce8d1"/><path d="M44.45 37.23a10.77 10.77 0 0 1-3.16-.67c-.58-.29-.84-1.11-.75-2.38.07-.94.92-1.33 1.44-1.56a2.16 2.16 0 0 0 .31-.16 2.66 2.66 0 0 0 .47-1.46v-.53a1 1 0 0 1 .15-.75.62.62 0 0 1 .46-.19.77.77 0 0 1 .59.27 2.57 2.57 0 0 1 .56 1.84v1a9.52 9.52 0 0 1 1 .17h.22c.29.06.72.14.75.72a2 2 0 0 0 .06.35 2.58 2.58 0 0 1 .08.74 2.08 2.08 0 0 1-.21.74 1.86 1.86 0 0 0-.16.48 1.5 1.5 0 0 1-.67 1l-.16.13a1.36 1.36 0 0 1-.98.26zm-.95-6.81v.6a3.43 3.43 0 0 1-.64 1.98 1.55 1.55 0 0 1-.57.35c-.53.24-1 .47-1 .93-.08 1.05.14 1.55.34 1.65.52.27 2.9.78 3.26.54a2.08 2.08 0 0 1 .23-.2c.18-.14.36-.28.39-.47a2.56 2.56 0 0 1 .21-.68 1.44 1.44 0 0 0 .15-.48 1.84 1.84 0 0 0-.07-.54 2.8 2.8 0 0 1-.08-.47h-.15l-.25-.06a11.86 11.86 0 0 0-1.2-.19h-.3v-.3a9 9 0 0 1 0-1.41 2 2 0 0 0-.32-1.24z" fill="#782b0e"/><path d="M23 52.32h-4l.4 8.44c0 1.56.79 2.26 1.77 2.26S23 62.33 23 60.76c0 1.56.82 2.26 1.82 2.26s1.82-.7 1.82-2.26l.36-8.44z" fill="#fce8d1"/><path d="M24.78 63.4a2 2 0 0 1-1.82-1 2 2 0 0 1-1.77 1c-1 0-2.14-.69-2.14-2.63l-.42-8.82h8.77l-.4 8.83c0 1.92-1.16 2.62-2.22 2.62zm-2.2-2.63h.75c0 1.2.53 1.88 1.45 1.88s1.45-.69 1.45-1.88l.39-8.07h-7.2l.38 8.05c0 1.21.51 1.9 1.39 1.9s1.39-.65 1.39-1.89z" fill="#782b0e"/><path d="M41.68 32.55l-.79-.2c-.15-.62-.47-1.06-.91-1.15l-5.46-1.29A52.54 52.54 0 0 0 29.16 26a10.07 10.07 0 0 0-2.31-1 15 15 0 0 0-4.44-.65c-3.25 0-5.88.77-7.47 2.19-1.79 1.36-5.73 15.61-5.22 16v.84c0 .32.87.63 2 .68s1.72-.16 1.73-.49v-.75a1.85 1.85 0 0 0 .67-.61L16.31 33a56.41 56.41 0 0 0 2 5.54s9.6-.24 9.6-.84l1.27-5.15a26.06 26.06 0 0 0 3.9 2.33c1.92.8 6.61 1.48 6.92 1.12l.7.18c.31.08.79-.73 1.07-1.8s.23-1.75-.09-1.83z" fill="#f5f3ef"/><path d="M12 44.5h-.36c-.59 0-2.5-.2-2.45-1.21v-.72a1 1 0 0 1 0-.28c0-1.59 3.49-14.7 5.46-16.19 1.67-1.49 4.37-2.29 7.77-2.29a15.61 15.61 0 0 1 4.58.67h.07a10.35 10.35 0 0 1 2.38 1.07 49.16 49.16 0 0 1 5.33 3.89l5.35 1.27a1.71 1.71 0 0 1 1.19 1.22l.52.13c.39.1 1 .54.49 2.4-.15.57-.71 2.4-1.67 2.16l-.66-.13c-1.42.35-5.88-.62-7.16-1.19a24.29 24.29 0 0 1-3.39-2l-1.08 4.39c0 .51-.4 1-10.09 1.27a.5.5 0 0 1-.46-.31c-.37-.9-1-2.53-1.49-3.84l-1.79 7.41a.51.51 0 0 1-.07.15 2.23 2.23 0 0 1-.61.62v.49a.79.79 0 0 1-.27.56 2.44 2.44 0 0 1-1.59.46zm-1.81-1.32a3.92 3.92 0 0 0 1.5.31 2.89 2.89 0 0 0 1.21-.12v-.64a.5.5 0 0 1 .26-.41 1.4 1.4 0 0 0 .45-.38l2.2-9.09a.49.49 0 0 1 .55-.38.5.5 0 0 1 .44.5 49.57 49.57 0 0 0 1.84 5 65.61 65.61 0 0 0 8.83-.63l1.23-5a.5.5 0 0 1 .78-.28 25.71 25.71 0 0 0 3.81 2.27 19.38 19.38 0 0 0 6.46 1.17.5.5 0 0 1 .41-.07l.56.14a3.91 3.91 0 0 0 .6-1.41 2.86 2.86 0 0 0 .13-1.16l-.69-.18a.5.5 0 0 1-.36-.36c-.11-.44-.31-.73-.52-.78L34.4 30.4a.5.5 0 0 1-.2-.1 49 49 0 0 0-5.26-3.85 9.87 9.87 0 0 0-2.25-1 14.61 14.61 0 0 0-4.3-.63c-3.11 0-5.65.73-7.14 2.06-1.51 1.15-5.16 13.95-5.1 15.39a.49.49 0 0 1 0 .24zM10 42.06zm17.43-4.39zm0 0zm12.25-2zm.11-.08zM41.55 33z" fill="#782b0e"/><path d="M10 43.76s0 3.34 1 4.17 2.51 1.11 2.21.31a16.17 16.17 0 0 1-.55-2.16 1.64 1.64 0 0 1 .72.61c.33.47.5-.09.15-.76s-.88-2.22-.88-2.22z" fill="#fce8d1"/><path d="M12.84 49.09a3.71 3.71 0 0 1-2.06-.87c-1.14-.92-1.16-4.1-1.16-4.46v-.37l3.31-.07.09.26s.53 1.53.86 2.17.36 1.18 0 1.42a.49.49 0 0 1-.56-.05 9.67 9.67 0 0 0 .29 1 .67.67 0 0 1-.2.84.91.91 0 0 1-.57.13zm-2.46-5c0 1.24.29 3 .87 3.51a2.76 2.76 0 0 0 1.61.71 17.6 17.6 0 0 1-.56-2.2l-.12-.63.61.21a1.5 1.5 0 0 1 .32.17c-.25-.55-.56-1.39-.71-1.81zM44.15 37.22a.5.5 0 0 1-.47-.33c0-.06-.51-1.39-.77-2.41a1.68 1.68 0 0 1 1.05-2 .5.5 0 0 1 .37.93.69.69 0 0 0-.45.81c.24 1 .73 2.29.73 2.31a.5.5 0 0 1-.47.67zM22.92 61.79a.38.38 0 0 1-.37-.37v-7.5a.38.38 0 0 1 .75 0v7.5a.38.38 0 0 1-.38.37z" fill="#782b0e"/><path d="M27.92 37.67a21 21 0 0 1-5.19.54 15.87 15.87 0 0 1-4.73-.64c-3.7 3-4.26 9.21-4.26 14.75 0 .95 4.13 1.72 9.22 1.72s9.22-.77 9.22-1.72h.09c-.01-5.52-.75-11.67-4.35-14.65z" fill="#ff8200"/><path d="M23 54.54c-1 0-9.72-.06-9.72-2.22 0-5.39.51-12 4.45-15.14a.5.5 0 0 1 .48-.08 15.42 15.42 0 0 0 4.56.6 20.54 20.54 0 0 0 5-.51.5.5 0 0 1 .48.09c3 2.52 4.52 7.44 4.52 15a.5.5 0 0 1-.19.39c-1.01 1.82-8.69 1.87-9.58 1.87zm-4.89-16.41c-3.42 3-3.87 9.12-3.87 14.19.25.37 3.16 1.22 8.72 1.22s8.47-.85 8.73-1.28a.43.43 0 0 1 .07-.25c0-6.93-1.33-11.45-4-13.79a23.92 23.92 0 0 1-5.07.48 17.13 17.13 0 0 1-4.58-.57z" fill="#782b0e"/><path d="M20.71 23.42v.77c0 .72.86 1.3 1.93 1.3s1.93-.58 1.93-1.3v-.77" fill="#f7e3cf"/><path d="M22.64 25.69c-1.17 0-2.13-.68-2.13-1.51v-.77h.4v.77c0 .6.79 1.1 1.72 1.1s1.72-.5 1.72-1.1v-.77h.4v.77c.01.82-.94 1.51-2.11 1.51z" fill="#782b0e"/><path d="M30.4 16.22a47.14 47.14 0 0 0 .15-4.92 3 3 0 0 1-3.65-1.93 7.52 7.52 0 0 1-4.15 3.06 14.72 14.72 0 0 1-8.1-.55 19.64 19.64 0 0 0 .17 4.3c.55 4 3 7.38 7.82 7.44a7.56 7.56 0 0 0 7.76-7.4z" fill="#f7e3cf"/><path d="M22.75 24h-.12c-4.46-.05-7.52-3-8.19-7.76a19.94 19.94 0 0 1-.17-4.37v-.49l.47.17a14.34 14.34 0 0 0 7.88.54 7.16 7.16 0 0 0 3.92-2.89l.46-.69.26.74a2.57 2.57 0 0 0 3.19 1.7l.45-.14v.47a38.33 38.33 0 0 1-.11 4.27v.7A7.94 7.94 0 0 1 22.75 24zM15 12.39a19.53 19.53 0 0 0 .19 3.73c.29 2.12 1.6 7 7.45 7.11a7.21 7.21 0 0 0 7.39-7v-.71c.07-1.12.16-2.6.13-3.72a3.14 3.14 0 0 1-3.38-1.67 7.55 7.55 0 0 1-4 2.69 15.08 15.08 0 0 1-7.78-.43z" fill="#782b0e"/><path d="M22.43 20.29a7.13 7.13 0 0 1-2.55-.44.2.2 0 0 1 .15-.38 6.73 6.73 0 0 0 2.4.42 6.6 6.6 0 0 0 2.57-.47.2.2 0 1 1 .16.37 7 7 0 0 1-2.73.5zM22.46 21.41a3.63 3.63 0 0 1-1.19-.19.2.2 0 0 1 .13-.38 3.53 3.53 0 0 0 2.17 0 .2.2 0 1 1 .14.38 3.58 3.58 0 0 1-1.25.19zM22.43 18.35a3.2 3.2 0 0 1-1-.16.13.13 0 0 1 .07-.24 3 3 0 0 0 .92.15 3.63 3.63 0 0 0 1-.16.13.13 0 1 1 .07.24 3.88 3.88 0 0 1-1 .17zM16 15.46a.2.2 0 0 1-.15-.34A3.34 3.34 0 0 1 18 14a3.34 3.34 0 0 1 2.18 1.09.2.2 0 0 1-.3.27 3 3 0 0 0-1.88-1 3 3 0 0 0-1.88 1 .2.2 0 0 1-.12.1z" fill="#782b0e"/><ellipse cx="18.05" cy="15.26" rx=".89" ry=".81" fill="#782b0e"/><path d="M24.56 15.46a.2.2 0 0 1-.15-.34A3.34 3.34 0 0 1 26.59 14a3.33 3.33 0 0 1 2.18 1.09.2.2 0 0 1-.3.27 3 3 0 0 0-1.88-1 3 3 0 0 0-1.88 1 .2.2 0 0 1-.15.1z" fill="#782b0e"/><ellipse cx="26.59" cy="15.26" rx=".89" ry=".81" fill="#782b0e"/><path d="M22.64 29.13A4 4 0 0 1 19 25v-.37h.75V25a3.2 3.2 0 0 0 2.91 3.43A3.2 3.2 0 0 0 25.55 25v-.37h.75V25a4 4 0 0 1-3.66 4.13z" fill="#782b0e"/></g></g></svg>