<svg xmlns="http://www.w3.org/2000/svg" width="70" height="70" viewBox="0 0 70 70"><title>клиент_2</title><g id="Слой_2" data-name="Слой 2"><g id="Слой_1-2" data-name="Слой 1"><rect width="70" height="70" fill="none"/><path d="M17.84,25a15.58,15.58,0,0,1-5-2,30,30,0,0,1-.5-5.47s-1.54-14.26,10-14.12c11.79.14,10.8,14.18,10.8,14.18a33.4,33.4,0,0,1-.44,5.73A13.62,13.62,0,0,1,27.62,25" fill="#dcc19f" stroke="#692f17" stroke-miterlimit="10" stroke-width="0.81"/><ellipse cx="47.23" cy="58.61" rx="20.71" ry="7.67" fill="#dfdbd1" stroke="#692f17" stroke-linejoin="round"/><ellipse cx="47.23" cy="57.96" rx="17.28" ry="5.74" fill="none" stroke="#692f17" stroke-linejoin="round" stroke-width="0.75"/><path d="M59.23,31.21H57a11.84,11.84,0,0,0-19.51,0H35.23A2.76,2.76,0,0,0,32.46,34V51.22A2.76,2.76,0,0,0,35.23,54h24A2.76,2.76,0,0,0,62,51.22V34A2.76,2.76,0,0,0,59.23,31.21Z" fill="#d9d6cc" stroke="#692f17" stroke-linejoin="round"/><ellipse cx="47.23" cy="47.06" rx="15.21" ry="3.74" fill="#f5f4f0" stroke="#692f17" stroke-linejoin="round"/><path d="M61.22,55.68c0,1.62-.87,2.93-1.95,2.93H35.18c-1.07,0-1.95-1.31-1.95-2.93V52c0-1.62.87-2.93,1.95-2.93H59.27c1.08,0,1.95,1.31,1.95,2.93Z" fill="#d9d6cc" stroke="#692f17" stroke-linejoin="round"/><path d="M35.39,44.41A4,4,0,1,0,29.77,48V58.42a1.53,1.53,0,0,0,1.53,1.53h2.57a1.53,1.53,0,0,0,1.53-1.53V44.5s0,0,0,0S35.39,44.43,35.39,44.41Z" fill="#f5f4f0" stroke="#692f17" stroke-linejoin="round"/><path d="M59.67,44.41a4,4,0,0,1,8.07,0A3.94,3.94,0,0,1,65.41,48V58.4a1.54,1.54,0,0,1-1.56,1.52H61.23a1.54,1.54,0,0,1-1.56-1.52V44.5s0,0,0,0S59.67,44.42,59.67,44.41Z" fill="#f5f4f0" stroke="#692f17" stroke-linejoin="round"/><circle cx="31.43" cy="44.36" r="1.03" fill="#dbc19f" stroke="#692f17" stroke-linejoin="round" stroke-width="0.75"/><circle cx="63.7" cy="44.36" r="1.03" fill="#dbc19f" stroke="#692f17" stroke-linejoin="round" stroke-width="0.75"/><ellipse cx="20.88" cy="63.02" rx="1.96" ry="2.98" fill="#dbc19f" stroke="#692f17" stroke-miterlimit="10" stroke-width="0.75"/><ellipse cx="25.14" cy="63.02" rx="1.96" ry="2.98" fill="#dbc19f" stroke="#692f17" stroke-miterlimit="10" stroke-width="0.75"/><path d="M44.15,33a12.18,12.18,0,0,1,1.26.2c.42.11.67.07.69.42a7.31,7.31,0,0,1,.14,1.05c0,.43-.3.73-.36,1.19s-.54.68-.73.89c-.45.48-3.24-.24-3.69-.47s-.62-1-.55-2,1.42-1.22,1.65-1.5a3,3,0,0,0,.57-1.7c0-.78-.15-1.1.24-1.11s.82.8.77,1.71A9,9,0,0,0,44.15,33Z" fill="#f7e8d2" stroke="#692f17" stroke-miterlimit="10" stroke-width="0.75"/><path d="M23,52.32H19l.4,8.44c0,1.56.79,2.26,1.77,2.26S23,62.33,23,60.76c0,1.56.82,2.26,1.82,2.26s1.82-.7,1.82-2.26L27,52.32Z" fill="#f7e8d2" stroke="#692f17" stroke-miterlimit="10" stroke-width="0.75"/><path d="M41.68,32.55l-.79-.2c-.15-.62-.47-1.06-.91-1.15l-5.46-1.29A52.54,52.54,0,0,0,29.16,26a10.07,10.07,0,0,0-2.31-1h0a15,15,0,0,0-4.44-.65c-3.25,0-5.88.77-7.47,2.19-1.79,1.36-5.73,15.61-5.22,16l0,.84c0,.32.87.63,2,.68s1.72-.16,1.73-.49l0-.75a1.85,1.85,0,0,0,.67-.61L16.31,33a56.41,56.41,0,0,0,2,5.54s9.6-.24,9.6-.84l1.27-5.15a26.06,26.06,0,0,0,3.9,2.33C35,35.68,39.69,36.36,40,36l.7.18c.31.08.79-.73,1.07-1.8S42,32.63,41.68,32.55Z" fill="#f5f4f0" stroke="#692f17" stroke-linecap="round" stroke-linejoin="round"/><path d="M10,43.76s0,3.34,1,4.17,2.51,1.11,2.21.31a16.17,16.17,0,0,1-.55-2.16,1.64,1.64,0,0,1,.72.61c.33.47.5-.09.15-.76s-.88-2.22-.88-2.22Z" fill="#f7e8d2" stroke="#692f17" stroke-miterlimit="10" stroke-width="0.75"/><path d="M44.15,33a1.21,1.21,0,0,0-.75,1.4c.25,1,.75,2.36.75,2.36" fill="none" stroke="#692f17" stroke-linecap="round" stroke-linejoin="round"/><line x1="22.92" y1="61.42" x2="22.92" y2="53.92" fill="none" stroke="#692f17" stroke-linecap="round" stroke-miterlimit="10" stroke-width="0.75"/><path d="M27.92,37.67a21,21,0,0,1-5.19.54A15.87,15.87,0,0,1,18,37.57c-3.7,3-4.26,9.21-4.26,14.75,0,.95,4.13,1.72,9.22,1.72s9.22-.77,9.22-1.72h.09C32.26,46.8,31.52,40.65,27.92,37.67Z" fill="#fd8204" stroke="#692f17" stroke-linecap="round" stroke-linejoin="round"/><path d="M20.71,23.42v.77c0,.72.86,1.3,1.93,1.3s1.93-.58,1.93-1.3v-.77" fill="#f2e3d0" stroke="#692f17" stroke-miterlimit="10" stroke-width="0.4"/><path d="M30.4,16.22a47.14,47.14,0,0,0,.15-4.92A3,3,0,0,1,26.9,9.37a7.52,7.52,0,0,1-4.15,3.06,14.72,14.72,0,0,1-8.1-.55,19.64,19.64,0,0,0,.17,4.3c.55,4,3,7.38,7.82,7.44A7.56,7.56,0,0,0,30.4,16.22Z" fill="#f2e3d0" stroke="#692f17" stroke-miterlimit="10" stroke-width="0.4"/><path d="M25,19.6a6.82,6.82,0,0,1-2.61.49,6.94,6.94,0,0,1-2.48-.43" fill="none" stroke="#692f17" stroke-linecap="round" stroke-miterlimit="10" stroke-width="0.4"/><path d="M23.65,21a3.65,3.65,0,0,1-2.31,0" fill="none" stroke="#692f17" stroke-linecap="round" stroke-miterlimit="10" stroke-width="0.4"/><path d="M23.47,18.06a3.76,3.76,0,0,1-1,.17,3.06,3.06,0,0,1-1-.15" fill="none" stroke="#692f17" stroke-linecap="round" stroke-miterlimit="10" stroke-width="0.2"/><path d="M20.08,15.26a3.16,3.16,0,0,0-2-1,3.16,3.16,0,0,0-2,1" fill="none" stroke="#692f17" stroke-linecap="round" stroke-miterlimit="10" stroke-width="0.4"/><ellipse cx="18.05" cy="15.26" rx="0.89" ry="0.81" fill="#692f17"/><path d="M28.62,15.26a3.16,3.16,0,0,0-2-1,3.16,3.16,0,0,0-2,1" fill="none" stroke="#692f17" stroke-linecap="round" stroke-miterlimit="10" stroke-width="0.4"/><ellipse cx="26.59" cy="15.26" rx="0.89" ry="0.81" fill="#692f17"/><path d="M25.92,25a3.57,3.57,0,0,1-3.29,3.8A3.57,3.57,0,0,1,19.35,25" fill="none" stroke="#692f17" stroke-linecap="square" stroke-miterlimit="10" stroke-width="0.81"/><path d="M30.32,21" fill="none" stroke="#d57e2a" stroke-miterlimit="10" stroke-width="0.81"/><path d="M32.15,17.82" fill="none" stroke="#d57e2a" stroke-miterlimit="10" stroke-width="0.81"/></g></g></svg>