<svg xmlns="http://www.w3.org/2000/svg" viewBox="0 0 116 116"><defs><style>.cls-1,.cls-2,.cls-3,.cls-4,.cls-5,.cls-6,.cls-7{fill:none}.cls-2,.cls-3,.cls-4,.cls-5{stroke:#353535}.cls-2,.cls-3,.cls-4,.cls-5,.cls-6,.cls-7{stroke-linejoin:round}.cls-2,.cls-3{stroke-width:2px}.cls-3,.cls-6{stroke-linecap:round}.cls-5{stroke-width:1.5px}.cls-6,.cls-7{stroke:#ff5a19;stroke-width:1.7px}</style></defs><title>Комплексная-уборка_1</title><g id="Слой_2" data-name="Слой 2"><g id="Слой_1-2" data-name="Слой 1"><path class="cls-1" d="M0 0h116v116H0z"/><path class="cls-2" d="M77.46 93.28v2.38a1.83 1.83 0 0 0 1.83 1.83h3.84A1.83 1.83 0 0 0 85 95.66v-2.38"/><path class="cls-3" d="M39.88 97.18a1.86 1.86 0 0 0 1 .31h3.84a1.72 1.72 0 0 0 .78-.18"/><path class="cls-2" d="M36.2 63.62V38.05"/><path class="cls-3" d="M36.2 73.53v-6.19"/><path class="cls-2" d="M45.87 93.84h-6.49M57.72 93.84h-9.29M36.2 35.69V15.36c0-2.53 2.43-4.59 5.43-4.59h41.69c3 0 5.43 2.06 5.43 4.59v73.88c0 2.54-2.43 4.6-5.43 4.6H59.89"/><path class="cls-4" d="M65.84 62.35a1.28 1.28 0 1 1 1.27 1.27 1.27 1.27 0 0 1-1.27-1.27zM56.58 62.35a1.27 1.27 0 1 1 1.27 1.27 1.27 1.27 0 0 1-1.27-1.27z"/><path class="cls-2" d="M49.48 56.47h38.38M35.94 56.47h10.38M62.47 56.59v37.02M46.31 56.35h-7.39V37.73"/><path class="cls-5" d="M38.92 35.65V16.24a2.88 2.88 0 0 1 2.88-2.88h41.43a2.88 2.88 0 0 1 2.88 2.88v40.11h-37.4"/><path class="cls-2" d="M39.29 27.77H85.8M44.07 42.08H85.8M39.29 42.08h2.53"/><path class="cls-6" d="M35.15 66.97l16.56-1.35-3.74-2.51-13.23 1.02.41 2.84zM36.95 79.21l18.57-1.34-4.19-2.51-14.83 1.02.45 2.83zM38.96 93.32l21.69-1.34-4.63-2.53-17.54 1.03.48 2.84zM32.46 68.67l-4.91 33.91c-.07.52-.46.91-.86.85l-1.35-.19a.87.87 0 0 1-.6-1l6.17-44.44M46.75 75.67l.37-8.96"/><path class="cls-7" d="M46.16 90.2l.5-12.15"/><path class="cls-6" d="M49 93l-.15 4.47a.78.78 0 0 1-.81.74l-1.42-.06a.76.76 0 0 1-.74-.8l.18-4.48M49.51 78.46l-.4 11.4M49.83 69.26l-.22 6.21"/><path class="cls-7" d="M31.13 37.73h7.35c1.85 0 1.87.5 2.34 2.18l7.25 23.51"/><path class="cls-6" d="M57 92.76l4 13 3-.16L43.23 38a3.11 3.11 0 0 0-3.3-2.62h-6.36a2.89 2.89 0 0 0-2.45 3.26L41.1 109l-2.91.12-9.86-69.59c-.23-1.58.91-2.75 2.45-3.27l2.79-.93"/><path class="cls-7" d="M52.41 77.71l3.54 11.51"/><path class="cls-6" d="M48.87 66.19l2.85 9.28"/></g></g></svg>