<svg xmlns="http://www.w3.org/2000/svg" width="21" height="21" viewBox="0 0 21 21"><g data-name="Слой 2"><g data-name="Слой 1"><path fill="none" d="M0 0h21v21H0z"/><path d="M.93 4.09a1.82 1.82 0 0 1 .61-1.32 9.24 9.24 0 0 1 2-1.56 1.49 1.49 0 0 1 1.93.34A14.7 14.7 0 0 1 8.05 5a1.49 1.49 0 0 1-.49 2.23c-1.28 1.07-1.42 1.47-.67 3a8.75 8.75 0 0 0 4.78 4.36 1.23 1.23 0 0 0 1.74-.5l.38-.48a1.61 1.61 0 0 1 2.21-.48 18.61 18.61 0 0 1 3.68 2.68 1.28 1.28 0 0 1 .27 1.59 5.63 5.63 0 0 1-2.42 2.6 2.05 2.05 0 0 1-1.83.12A25 25 0 0 1 1.31 5.72a4.29 4.29 0 0 1-.38-1.63zM19.9 9.73v.55c0 .36-.17.64-.55.64a.56.56 0 0 1-.61-.64 10.89 10.89 0 0 0-.35-2.69 7.66 7.66 0 0 0-7-5.69h-.67c-.37 0-.61-.2-.6-.58s.27-.59.66-.59a9.67 9.67 0 0 1 3.37.63 8.92 8.92 0 0 1 5.75 8.37z" fill="#fd8204"/><path d="M17.64 9.08v.28c0 .39-.19.66-.59.66s-.57-.29-.59-.67a9.93 9.93 0 0 0-.07-1.11 4.79 4.79 0 0 0-4.09-4c-.24 0-.48-.08-.71-.1-.39 0-.64-.21-.61-.63s.31-.53.7-.53A6.09 6.09 0 0 1 17.1 6.6a7.54 7.54 0 0 1 .4 1.27c.09.39.11.81.16 1.21z" fill="#fd8204"/><path d="M12.37 5.37a3.1 3.1 0 0 1 3 3.27c0 .35-.17.58-.52.61s-.58-.2-.64-.56-.06-.48-.11-.71a1.7 1.7 0 0 0-1.53-1.4h-.33c-.41 0-.67-.25-.62-.69s.38-.54.75-.52z" fill="#fd8204"/></g></g></svg>