<svg xmlns="http://www.w3.org/2000/svg" width="80" height="80" viewBox="0 0 70 70"><path fill="none" d="M0 0h70v70H0z"/><path d="M39.93 58.77h22.7A2.25 2.25 0 0 0 65 56.69V27M55.66 18.13H40.34M42.84 26.83H65V21a2.83 2.83 0 0 0-2.83-2.83h-3.12" fill="none" stroke="#ff5722" stroke-miterlimit="10"/><path d="M58 35H44.18a5 5 0 0 1 .29 1.23c0 .2 0 .4.05.6H58A.92.92 0 1 0 58 35zM58 39.5H44.56c0 .61-.1 1.23-.19 1.83H58a.92.92 0 1 0 0-1.83zM58 44H43.66c-.1.25-.19.5-.31.73a5.46 5.46 0 0 1-.75 1.1H58A.92.92 0 1 0 58 44z" fill="#ff5722"/><path d="M58.74 21.73a1.66 1.66 0 0 1-1.66 1.67 1.67 1.67 0 0 1-1.67-1.67v-4.55a1.67 1.67 0 0 1 1.67-1.67 1.66 1.66 0 0 1 1.66 1.67z" fill="none" stroke="#ff5722" stroke-linecap="round" stroke-linejoin="round"/><path d="M15.45 48.77A29.21 29.21 0 0 1 6 45.12a55.87 55.87 0 0 1-.92-10.21S2.24 8.3 23.83 8.56C45.83 8.81 44 35 44 35a62.54 62.54 0 0 1-.82 10.69c-2.63 1.71-5.41 2.39-9.46 3.19" fill="none" stroke="#ff5722" stroke-linejoin="round" stroke-width="1.5"/><path d="M20.8 47.4c-7.66 1-13.4 5.36-13.4 10.53a4.21 4.21 0 0 0 0 .5 47.46 47.46 0 0 0 17 3 47.45 47.45 0 0 0 17-3 4.21 4.21 0 0 0 0-.5c0-5.17-5.73-9.49-13.4-10.53" fill="none" stroke="#ff5722" stroke-miterlimit="10" stroke-width="1.5"/><path d="M20.8 45.88v1.44c0 1.34 1.61 2.43 3.59 2.43S28 48.66 28 47.32v-1.44" fill="none" stroke="#ff5722" stroke-miterlimit="10"/><path d="M38.89 32.46a86.77 86.77 0 0 0 .29-9.18c-5 1.54-6.83-3.62-6.83-3.62s-2.86 4.57-7.75 5.7a27.5 27.5 0 0 1-15.11-1 36.2 36.2 0 0 0 .31 8c1 7.45 5.56 13.77 14.59 13.87 8.8.11 14.09-6.58 14.5-13.77z" fill="none" stroke="#ff5722" stroke-miterlimit="10"/><path d="M28.88 38.76a12.72 12.72 0 0 1-4.88.91 12.83 12.83 0 0 1-4.62-.81" fill="none" stroke="#ff5722" stroke-linecap="round" stroke-miterlimit="10" stroke-width=".8"/><path d="M26.29 41.4a6.4 6.4 0 0 1-2.22.37 6.66 6.66 0 0 1-2.1-.33M26 35.88a7 7 0 0 1-1.88.31 5.67 5.67 0 0 1-1.78-.29" fill="none" stroke="#ff5722" stroke-linecap="round" stroke-miterlimit="10" stroke-width=".7"/><path d="M19.62 30.66a5.92 5.92 0 0 0-3.79-1.9 5.88 5.88 0 0 0-3.78 1.9" fill="none" stroke="#ff5722" stroke-linecap="round" stroke-miterlimit="10"/><path d="M15.83 32.42a1.64 1.64 0 1 1 1.66-1.63 1.65 1.65 0 0 1-1.66 1.63z" fill="#ff5722"/><path d="M35.56 30.66a5.88 5.88 0 0 0-3.78-1.9 5.92 5.92 0 0 0-3.78 1.9" fill="none" stroke="#ff5722" stroke-linecap="round" stroke-miterlimit="10"/><path d="M31.78 32.42a1.64 1.64 0 1 1 1.66-1.63 1.64 1.64 0 0 1-1.66 1.63z" fill="#ff5722"/><path d="M30.53 48.76c0 3.92-2.75 7.09-6.14 7.09s-6.13-3.17-6.13-7.09" fill="none" stroke="#ff5722" stroke-linecap="square" stroke-miterlimit="10" stroke-width="1.5"/></svg>