<svg xmlns="http://www.w3.org/2000/svg" width="31.21" height="33.52" viewBox="0 0 31.21 33.52"><title>трубка_2</title><g data-name="Слой 2"><path d="M31.21 10.29a10.58 10.58 0 0 0-2.44-7 10.09 10.09 0 0 0-.77-.86A17.36 17.36 0 0 0 25.77.58a2.13 2.13 0 0 0-3.12.19 18.1 18.1 0 0 0-3.05 4.4 7.7 7.7 0 0 0-.72 2 2.86 2.86 0 0 0 .88 2.83 17.55 17.55 0 0 0 2 1.68 2.84 2.84 0 0 1 1.06 3.7 13 13 0 0 1-2.2 3.69 26.21 26.21 0 0 1-4 4.23 6.84 6.84 0 0 1-2.71 1.49 2.5 2.5 0 0 1-2.43-.7c-.67-.64-1.34-1.29-2.05-1.89a3.14 3.14 0 0 0-3.75-.35 11.21 11.21 0 0 0-1.9 1.26c-.94.77-1.83 1.61-2.71 2.45a4.42 4.42 0 0 0-.74 1 2.21 2.21 0 0 0 .31 2.65A14.77 14.77 0 0 0 4 32.09a10.31 10.31 0 0 0 5.35 1.44 14.27 14.27 0 0 0 7.42-2.3 32.81 32.81 0 0 0 7.83-7 33.59 33.59 0 0 0 4.76-7 16.11 16.11 0 0 0 1.85-6.94z" fill="#fff" data-name="Слой 1"/></g></svg>