<svg xmlns="http://www.w3.org/2000/svg" width="70" height="70" viewBox="0 0 70 70"><title>уборка-коттеджей_1</title><g id="Слой_2" data-name="Слой 2"><g id="Слой_1-2" data-name="Слой 1"><rect width="70" height="70" fill="none"/><path d="M38.26,54.76V46.33a3.77,3.77,0,1,0-7.54,0v8.42H8.95A1.25,1.25,0,0,1,7.69,53.5V36.08h53.6V53.5A1.25,1.25,0,0,1,60,54.76Z" fill="#dfdbd1"/><path d="M60.54,36.83V53.5a.5.5,0,0,1-.5.5H39V46.33a4.52,4.52,0,0,0-9,0V54h-21a.5.5,0,0,1-.5-.5V36.83h52.1m1.5-1.5H6.94V53.5a2,2,0,0,0,2,2H31.47V46.33a3,3,0,0,1,6,0v9.17H60a2,2,0,0,0,2-2V35.33Z" fill="#692f17"/><polygon points="15.33 25.46 53.52 25.35 34.48 10.69 15.33 25.46" fill="#fd8204" stroke="#692f17" stroke-linejoin="round" stroke-width="0.75"/><polygon points="15.33 25.08 13.68 23.2 34.79 8.55 55.02 23.18 53.47 24.95 34.72 11.43 15.33 25.08" fill="#fd8204" stroke="#692f17" stroke-linejoin="round" stroke-width="1.5"/><polygon points="46.63 25.1 46.63 24.99 46.51 25.04 46.4 24.99 46.4 25.09 34.56 30.65 23.16 25.1 23.16 24.99 23.05 25.04 22.93 24.99 22.93 25.09 2.41 36.26 22.6 36.26 22.93 36.26 23.16 36.26 46.07 36.26 46.4 36.26 46.63 36.26 66.26 36.26 46.63 25.1" fill="#fd8204" stroke="#692f17" stroke-linejoin="round" stroke-width="1.5"/><polygon points="21.43 34.58 21.43 20.82 34.76 11.57 47.55 20.82 47.55 34.58 21.43 34.58" fill="#f8f3ee"/><path d="M34.75,12.49,46.8,21.2V33.83H22.18V21.22l12.57-8.73m0-1.84L20.68,20.43V35.33H48.3V20.43L34.77,10.65Z" fill="#692f17"/><path d="M38.26,54.76V46.33a3.77,3.77,0,1,0-7.54,0v8.42H21.43V36.08H47.55V54.76Z" fill="#f8f3ee"/><path d="M46.8,36.83V54H39V46.33a4.52,4.52,0,0,0-9,0V54H22.18V36.83H46.8m1.5-1.5H20.68V55.51H31.47V46.33a3,3,0,0,1,6,0v9.17H48.3V35.33Z" fill="#692f17"/><path d="M14.41,41.24a2.47,2.47,0,0,0-2.47,2.47v5.63h4.94V43.71A2.47,2.47,0,0,0,14.41,41.24Z" fill="#f8f3ee" stroke="#692f17" stroke-linejoin="round" stroke-width="0.75"/><path d="M55.17,41.24a2.47,2.47,0,0,0-2.47,2.47v5.63h4.94V43.71A2.47,2.47,0,0,0,55.17,41.24Z" fill="#f8f3ee" stroke="#692f17" stroke-linejoin="round" stroke-width="0.75"/><path d="M34.37,19.43a2.47,2.47,0,0,0-2.47,2.47v5.63h4.94V21.9A2.47,2.47,0,0,0,34.37,19.43Z" fill="#dfdbd1" stroke="#692f17" stroke-linejoin="round" stroke-width="0.75"/><rect x="21.43" y="31.61" width="26.12" height="6.82" fill="#fd8204"/><path d="M46.8,32.36v5.32H22.18V32.36H46.8m1.5-1.5H20.68v8.32H48.3V30.86Z" fill="#692f17"/></g></g></svg>