<svg xmlns="http://www.w3.org/2000/svg" width="70" height="70" viewBox="0 0 70 70"><g data-name="Слой 1"><path fill="none" d="M0 0h70v70H0z"/><path d="M38.26 54.76v-8.43a3.77 3.77 0 1 0-7.54 0v8.42H8.95a1.25 1.25 0 0 1-1.26-1.25V36.08h53.6V53.5A1.25 1.25 0 0 1 60 54.76z" fill="#dfdbd1"/><path d="M60.54 36.83V53.5a.5.5 0 0 1-.5.5H39v-7.67a4.52 4.52 0 0 0-9 0V54H9a.5.5 0 0 1-.5-.5V36.83h52.1m1.5-1.5H6.94V53.5a2 2 0 0 0 2 2h22.53v-9.17a3 3 0 0 1 6 0v9.17H60a2 2 0 0 0 2-2V35.33z" fill="#692f17"/><path fill="#fd8204" stroke="#692f17" stroke-linejoin="round" stroke-width=".75" d="M15.33 25.46l38.19-.11-19.04-14.66-19.15 14.77z"/><path fill="#fd8204" stroke="#692f17" stroke-linejoin="round" stroke-width="1.5" d="M15.33 25.08l-1.65-1.88L34.79 8.55l20.23 14.63-1.55 1.77-18.75-13.52-19.39 13.65z"/><path fill="#fd8204" stroke="#692f17" stroke-linejoin="round" stroke-width="1.5" d="M46.63 25.1v-.11l-.12.05-.11-.05v.1l-11.84 5.56-11.4-5.55v-.11l-.11.05-.12-.05v.1L2.41 36.26H66.26L46.63 25.1z"/><path fill="#f8f3ee" d="M21.43 34.58V20.82l13.33-9.25 12.79 9.25v13.76H21.43z"/><path d="M34.75 12.49L46.8 21.2v12.63H22.18V21.22l12.57-8.73m0-1.84l-14.07 9.78v14.9H48.3v-14.9l-13.53-9.78z" fill="#692f17"/><path d="M38.26 54.76v-8.43a3.77 3.77 0 1 0-7.54 0v8.42h-9.29V36.08h26.12v18.68z" fill="#f8f3ee"/><path d="M46.8 36.83V54H39v-7.67a4.52 4.52 0 0 0-9 0V54h-7.82V36.83H46.8m1.5-1.5H20.68v20.18h10.79v-9.18a3 3 0 0 1 6 0v9.17H48.3V35.33z" fill="#692f17"/><path d="M14.41 41.24a2.47 2.47 0 0 0-2.47 2.47v5.63h4.94v-5.63a2.47 2.47 0 0 0-2.47-2.47zM55.17 41.24a2.47 2.47 0 0 0-2.47 2.47v5.63h4.94v-5.63a2.47 2.47 0 0 0-2.47-2.47z" fill="#f8f3ee" stroke="#692f17" stroke-linejoin="round" stroke-width=".75"/><path d="M34.37 19.43a2.47 2.47 0 0 0-2.47 2.47v5.63h4.94V21.9a2.47 2.47 0 0 0-2.47-2.47z" fill="#dfdbd1" stroke="#692f17" stroke-linejoin="round" stroke-width=".75"/><path fill="#fd8204" d="M21.43 31.61h26.12v6.82H21.43z"/><path d="M46.8 32.36v5.32H22.18v-5.32H46.8m1.5-1.5H20.68v8.32H48.3v-8.32z" fill="#692f17"/></g></svg>