<svg xmlns="http://www.w3.org/2000/svg" width="80" height="80" viewBox="0 0 80 80"><g data-name="Слой 1"><path fill="none" d="M0 0h80v80H0z"/><path d="M50.36 67.05A30.15 30.15 0 1 1 68.8 38.14" fill="none" stroke="#fd8204" stroke-linecap="round" stroke-miterlimit="10" stroke-width="1.5"/><path fill="#fd8204" d="M64.25 36.6l4.09 7.99 4.87-7.54-8.96-.45z"/><path d="M47 62a24.2 24.2 0 1 1 15-16.36" fill="none" stroke="#fd8204" stroke-miterlimit="10"/><circle cx="38.66" cy="39.26" r="2.21" fill="#fd8204"/><path fill="none" stroke="#fd8204" stroke-linecap="round" stroke-miterlimit="10" stroke-width="2" d="M38.66 39.26v-19.9M38.11 39.26l-10.57-6.1"/><circle cx="21.85" cy="39.26" r="1.07" fill="#fd8204"/><circle cx="55.47" cy="39.26" r="1.07" fill="#fd8204"/><circle cx="38.66" cy="22.45" r="1.07" fill="#fd8204"/><circle cx="38.66" cy="56.07" r="1.07" fill="#fd8204"/><circle cx="24.08" cy="47.64" r=".91" transform="rotate(-29.93 24.083 47.644)" fill="#fd8204"/><circle cx="53.24" cy="30.88" r=".91" transform="rotate(-29.9 53.239 30.886)" fill="#fd8204"/><circle cx="30.28" cy="24.68" r=".91" transform="rotate(-29.91 30.284 24.694)" fill="#fd8204"/><circle cx="30.33" cy="53.87" r=".91" transform="rotate(-60.33 30.337 53.862)" fill="#fd8204"/><circle cx="46.98" cy="24.65" r=".91" transform="rotate(-60.36 46.977 24.65)" fill="#fd8204"/><circle cx="24.05" cy="30.93" r=".91" transform="rotate(-60.7 23.855 30.915)" fill="#fd8204"/><path d="M58.74 46A11.75 11.75 0 1 1 47 57.74 11.77 11.77 0 0 1 58.74 46m0-1.5A13.25 13.25 0 1 0 72 57.74a13.25 13.25 0 0 0-13.26-13.26z" fill="#fd8204"/><path d="M55.26 58.43c1.29-.81 1.94-1.26 1.94-2.32a1.39 1.39 0 0 0-1.47-1.37c-1.06 0-1.51 1-1.48 1.89h-.91a2.36 2.36 0 0 1 2.45-2.7 2.17 2.17 0 0 1 2.38 2.19c0 1.34-.9 2-1.85 2.61s-2 1.07-2.14 2h3.91v.81h-5a3.6 3.6 0 0 1 2.17-3.11zM59.13 58.88l3.47-5h.73v5h1v.81h-1v1.78h-.86v-1.71h-3.34zm3.34.08v-3.73L59.92 59z" fill="#fd8204"/></g></svg>