<svg xmlns="http://www.w3.org/2000/svg" width="70" height="70" viewBox="0 0 70 70"><g data-name="Слой 2"><g data-name="Слой 1"><path fill="none" d="M0 0h70v70H0z"/><rect x="34.52" y="48.18" width="4.33" height="9.97" rx="1.06" ry="1.06" fill="#ff8300"/><path d="M37.8 58.65h-2.22A1.56 1.56 0 0 1 34 57.09v-7.85a1.56 1.56 0 0 1 1.56-1.56h2.24a1.56 1.56 0 0 1 1.56 1.56v7.86a1.56 1.56 0 0 1-1.56 1.55zm-2.22-10a.56.56 0 0 0-.56.56v7.86a.56.56 0 0 0 .56.56h2.22a.56.56 0 0 0 .56-.56v-7.83a.56.56 0 0 0-.56-.56z" fill="#782b0e"/><rect x="58.46" y="48.18" width="4.33" height="9.97" rx="1.06" ry="1.06" fill="#dbdfe0"/><path d="M61.74 58.53h-2.22a1.43 1.43 0 0 1-1.43-1.43v-7.86a1.43 1.43 0 0 1 1.43-1.43h2.22a1.43 1.43 0 0 1 1.43 1.43v7.86a1.43 1.43 0 0 1-1.43 1.43zm-2.22-10a.68.68 0 0 0-.68.68v7.86a.68.68 0 0 0 .68.68h2.22a.68.68 0 0 0 .68-.68v-7.83a.68.68 0 0 0-.68-.68z" fill="#782b0e"/><path d="M35.63 8h26.32a2.65 2.65 0 0 1 2.65 2.65v42.73A2.66 2.66 0 0 1 61.94 56H35.63A2.66 2.66 0 0 1 33 53.38V10.66A2.66 2.66 0 0 1 35.63 8z" fill="#dad6cc"/><path d="M61.95 56.54H35.63a3.16 3.16 0 0 1-3.16-3.16V10.66a3.16 3.16 0 0 1 3.16-3.16h26.32a3.16 3.16 0 0 1 3.16 3.16v42.72a3.16 3.16 0 0 1-3.16 3.16zM35.63 8.5a2.16 2.16 0 0 0-2.16 2.16v42.72a2.16 2.16 0 0 0 2.16 2.16h26.32a2.16 2.16 0 0 0 2.16-2.16V10.66a2.16 2.16 0 0 0-2.16-2.16z" fill="#782b0e"/><path fill="#782b0e" d="M32.98 15.23H64.6v.75H32.98z"/><path fill="#782b0e" d="M48.41 8h.75v48.04h-.75z"/><circle cx="45.49" cy="34.34" r="1.41" fill="#782b0e"/><circle cx="52" cy="34.34" r="1.41" fill="#782b0e"/><path fill="#f5f3ef" d="M6.77 15.61h21.08v25.92H6.77z"/><path d="M27.85 42H6.77a.5.5 0 0 1-.5-.5V15.61a.5.5 0 0 1 .5-.5h21.08a.5.5 0 0 1 .5.5v25.91a.5.5 0 0 1-.5.48zM7.27 41h20.08V16.11H7.27z" fill="#782b0e"/><path fill="#782b0e" d="M16.93 15.61h.75v25.92h-.75z"/><path fill="#782b0e" d="M17.31 25.07h10.54v.75H17.31z"/><path d="M17.15 57.59h2.23l4.67-29c.56-2.59 1.91-4.21 4.26-4.21a4.23 4.23 0 0 1 4.25 4.21v6.89h2.23v-6.9a6.45 6.45 0 0 0-6.48-6.41c-3.58 0-5.78 2.61-6.48 6.41z" fill="#dad6cc"/><path d="M19.38 58h-2.23a.38.38 0 0 1-.37-.43l4.67-29c.79-4.28 3.29-6.72 6.86-6.72a6.83 6.83 0 0 1 6.86 6.78v6.89a.38.38 0 0 1-.37.38h-2.24a.38.38 0 0 1-.37-.37v-6.95a3.86 3.86 0 0 0-3.88-3.83c-2 0-3.33 1.32-3.89 3.91l-4.67 29a.37.37 0 0 1-.37.34zm-1.79-.75h1.47l4.62-28.69c.64-3 2.24-4.52 4.63-4.52a4.61 4.61 0 0 1 4.63 4.58v6.52h1.48v-6.56a6.08 6.08 0 0 0-6.11-6c-3.17 0-5.4 2.22-6.12 6.1z" fill="#782b0e"/><path d="M35.81 37.2a1.92 1.92 0 0 0-1.93-1.91h-.66a1.92 1.92 0 0 0-1.94 1.91" fill="#e0dbd1"/><path d="M36.31 37.2h-1a1.42 1.42 0 0 0-1.43-1.41h-.66a1.42 1.42 0 0 0-1.43 1.41h-1a2.43 2.43 0 0 1 2.43-2.41h.66a2.43 2.43 0 0 1 2.43 2.41z" fill="#782b0e"/><path d="M11.24 59.45h2.5a1.73 1.73 0 0 1 1.72-1.5h5.61a1.73 1.73 0 0 1 1.72 1.5h2.49a.75.75 0 0 1 .75.74v1.2a.75.75 0 0 1-.75.74h-14a.74.74 0 0 1-.75-.74v-1.2a.74.74 0 0 1 .71-.74z" fill="#f5f3ef"/><path d="M25.29 62.63h-14A1.25 1.25 0 0 1 10 61.39v-1.2A1.25 1.25 0 0 1 11.24 59h2.1a2.24 2.24 0 0 1 2.11-1.5h5.61a2.24 2.24 0 0 1 2.13 1.5h2.1a1.25 1.25 0 0 1 1.25 1.24v1.2a1.25 1.25 0 0 1-1.25 1.19zM11.24 60a.24.24 0 0 0-.25.24v1.2a.24.24 0 0 0 .25.24h14a.24.24 0 0 0 .25-.24v-1.2a.24.24 0 0 0-.25-.24h-2.89l-.06-.44a1.23 1.23 0 0 0-1.23-1.07h-5.6a1.23 1.23 0 0 0-1.22 1.07l-.06.44z" fill="#782b0e"/><path fill="#e0dbd1" d="M23.18 59.58h-9.71"/><path fill="#782b0e" d="M13.47 59.2h9.71v.75h-9.71z"/><path fill="#e0dbd1" d="M20.47 51.15l-1.09 6.8h-2.23l1.1-6.8h2.22z"/><path d="M19.38 58.45h-2.23a.5.5 0 0 1-.49-.58l1.09-6.8a.5.5 0 0 1 .49-.42h2.23a.5.5 0 0 1 .49.58L19.87 58a.5.5 0 0 1-.49.45zm-1.64-1H19l.93-5.8h-1.26z" fill="#782b0e"/><path d="M30.59 55.19V37.58s9.83-1.89 14.86 5.87c4.74 7.31-1.67 18.62-1.67 18.62h-10.5" fill="#ff8200" fill-rule="evenodd"/><path d="M43.77 62.57H33.28v-1h10.2c.89-1.69 5.68-11.47 1.55-17.85S33 37.77 31.09 38v17.19h-1V37.58a.5.5 0 0 1 .41-.49c.1 0 10.22-1.87 15.37 6.09 4.84 7.48-1.39 18.67-1.66 19.14a.5.5 0 0 1-.44.25z" fill="#782b0e"/><ellipse cx="32.86" cy="58.19" rx="3.93" ry="3.88" fill="#e0dbd1"/><path d="M32.86 62.57a4.38 4.38 0 1 1 4.43-4.38 4.41 4.41 0 0 1-4.43 4.38zm0-7.76a3.38 3.38 0 1 0 3.43 3.38 3.41 3.41 0 0 0-3.43-3.38z" fill="#782b0e"/><ellipse cx="32.86" cy="58.19" rx="2.26" ry="2.23" fill="#f5f3ef"/><path d="M32.86 60.79a2.6 2.6 0 1 1 2.63-2.6 2.62 2.62 0 0 1-2.63 2.6zm0-4.46a1.85 1.85 0 1 0 1.88 1.85 1.87 1.87 0 0 0-1.88-1.85zM46.38 56.15a10.93 10.93 0 0 1-11-10.85 10.74 10.74 0 0 1 2.92-7.36l.55.51a10 10 0 0 0-2.71 6.85 10.18 10.18 0 0 0 10.24 10.1z" fill="#782b0e"/></g></g></svg>