<svg xmlns="http://www.w3.org/2000/svg" width="55" height="55" viewBox="0 0 55 55"><g data-name="Слой 2"><g data-name="Слой 1"><path fill="none" d="M0 0h55v55H0z"/><path d="M44.6 34.13l-.34-5.5-2.48-3.91-2.9 2.69-8.11-7.6a2.09 2.09 0 0 0-2.14-.21 1.76 1.76 0 0 0-.55 1.93l-1.34-1.18s-1.41-.34-2 .42-.63 1.78.66 3.19a2.62 2.62 0 0 0-1.84.63 1.86 1.86 0 0 0 .13 2.69 13.08 13.08 0 0 0 1.64 1.6s-1.43.21-1.81.92a1.76 1.76 0 0 0 .38 2.31L40 48.24a8.82 8.82 0 0 0 5-2.14 15.9 15.9 0 0 0 3.81-5.1l.63-2.24z" fill="none"/><path d="M26.52 40.46a.59.59 0 0 0 .42-.18l2.56-2.56a.6.6 0 1 0-.85-.85L26.52 39 6.76 19.26l8.58-8.58L33 7.38 45.56 20l-4.33 4.3a.59.59 0 0 0 0 .84.6.6 0 0 0 .85 0l4.75-4.75A.63.63 0 0 0 47 20a.61.61 0 0 0-.18-.42L33.6 6.3a.59.59 0 0 0-.54-.16l-18.12 3.4a.54.54 0 0 0-.31.17l-9.14 9.12a.61.61 0 0 0 0 .85l20.6 20.6a.6.6 0 0 0 .43.18zM40.07 48.83h.07A14 14 0 0 0 46.63 45a13.12 13.12 0 0 0 3-5.89.31.31 0 0 0-.25-.35.3.3 0 0 0-.34.24 12.79 12.79 0 0 1-2.91 5.6A13.55 13.55 0 0 1 40 48.24a.3.3 0 0 0 .07.59z" fill="#fd8204"/><path d="M39.86 48.87a.6.6 0 0 0 .43-1c-.07-.06-6.32-6.51-8.61-8.8l-7.5-7.51A1.12 1.12 0 0 1 25.76 30a.6.6 0 0 0 .85-.85l-2.49-2.49a1.13 1.13 0 0 1 0-1.58 1.1 1.1 0 0 1 1.38-.15.61.61 0 0 0 .79-.13.59.59 0 0 0 0-.8l-1.19-1.18a1.12 1.12 0 0 1 .79-1.91 1.1 1.1 0 0 1 .79.33l1.41 1.41a.6.6 0 0 0 .85 0 .61.61 0 0 0 .18-.43.58.58 0 0 0-.18-.42 1.12 1.12 0 0 1 1.58-1.58L38.41 28a.6.6 0 0 0 .84 0l2.32-2.3a4.3 4.3 0 0 1 1.77 2.24 23.22 23.22 0 0 1 .56 6.38.61.61 0 0 0 .18.45l4.53 4.58a.6.6 0 0 0 .85 0 .6.6 0 0 0 0-.85l-4.35-4.39a23.32 23.32 0 0 0-.63-6.53 5.05 5.05 0 0 0-2.89-3.17.6.6 0 0 0-.58.15l-2.18 2.17-7.47-7.32a2.31 2.31 0 0 0-3.27 0 2.27 2.27 0 0 0-.59 1 2.29 2.29 0 0 0-1.61-.65 2.32 2.32 0 0 0-1.69 3.91 2.36 2.36 0 0 0-.94.57 2.32 2.32 0 0 0 0 3.28l1.06 1.05a2.32 2.32 0 0 0-1 3.87l7.5 7.5c2.29 2.29 8.54 8.73 8.6 8.8a.58.58 0 0 0 .44.13z" fill="#fd8204"/><path d="M33.67 28a.6.6 0 0 0 .43-1L29 21.84a.6.6 0 0 0-.85.85l5.12 5.12a.6.6 0 0 0 .4.19zM31.61 30.77a.6.6 0 0 0 .42-1L26.24 24a.6.6 0 0 0-.85.85l5.79 5.79a.6.6 0 0 0 .43.13zM29.47 33.43a.6.6 0 0 0 .43-1l-3.18-3.18a.6.6 0 0 0-.84.85L29 33.25a.58.58 0 0 0 .47.18zM24.5 18.25a.31.31 0 0 0 .23-.11l9-10.87a.3.3 0 0 0-.47-.39l-8.8 10.65L15.15 10a.3.3 0 0 0-.42 0 .3.3 0 0 0 0 .42l9.54 7.74a.31.31 0 0 0 .23.09zM40.88 30.17a.6.6 0 0 0 .43-1l-2-2a.6.6 0 1 0-.85.85l2 2a.61.61 0 0 0 .42.15zM39.28 24.18a.29.29 0 0 0 .28-.2c0-.15.22-1.08-1-5.17s-5.21-8.36-5.38-8.53a.3.3 0 0 0-.42 0 .3.3 0 0 0 0 .43s4 4.2 5.24 8.29c1.19 3.92 1 4.79 1 4.82a.31.31 0 0 0 .21.36z" fill="#fd8204"/><path d="M35.68 19.43a.3.3 0 0 0 .26-.35c-.86-5.06-3.15-6.6-3.25-6.66a.29.29 0 0 0-.41.09.3.3 0 0 0 .08.41s2.17 1.49 3 6.26a.31.31 0 0 0 .32.25z" fill="#fd8204"/></g></g></svg>