<svg xmlns="http://www.w3.org/2000/svg" width="70" height="70" viewBox="0 0 70 70"><g data-name="Слой 1"><path fill="none" d="M0 0h70v70H0z"/><rect x="34.52" y="48.18" width="4.33" height="9.97" rx="1.06" ry="1.06" fill="#ec8213" stroke="#692f17" stroke-linejoin="round"/><rect x="58.46" y="48.18" width="4.33" height="9.97" rx="1.06" ry="1.06" fill="#dcdfe0" stroke="#692f17" stroke-linejoin="round" stroke-width=".75"/><path d="M35.63 8h26.32a2.65 2.65 0 0 1 2.65 2.65v42.73A2.66 2.66 0 0 1 61.94 56H35.63A2.66 2.66 0 0 1 33 53.38V10.66A2.66 2.66 0 0 1 35.63 8z" fill="#d9d6cc" stroke="#692f17" stroke-linecap="round" stroke-linejoin="round"/><path fill="none" stroke="#692f17" stroke-linejoin="round" stroke-width=".75" d="M32.98 15.61H64.6M48.79 8v48.04"/><circle cx="45.49" cy="34.34" r="1.41" fill="#692f17"/><circle cx="52" cy="34.34" r="1.41" fill="#692f17"/><path fill="#f5f4f0" stroke="#692f17" stroke-linecap="round" stroke-linejoin="round" d="M6.77 15.61h21.08v25.92H6.77z"/><path fill="none" stroke="#692f17" stroke-linejoin="round" stroke-width=".75" d="M17.31 15.61v25.91M17.31 25.44h10.54"/><path d="M17.15 57.59h2.23l4.67-29c.56-2.59 1.91-4.21 4.26-4.21a4.23 4.23 0 0 1 4.25 4.21v6.89h2.23v-6.9a6.45 6.45 0 0 0-6.48-6.41c-3.58 0-5.78 2.61-6.48 6.41z" fill="#d9d6cc" stroke="#692f17" stroke-linecap="round" stroke-linejoin="round" stroke-width=".75"/><path d="M35.81 37.2a1.92 1.92 0 0 0-1.93-1.91h-.66a1.92 1.92 0 0 0-1.94 1.91" fill="#dfdbd1" stroke="#692f17" stroke-linejoin="round"/><path d="M11.24 59.45h2.5a1.73 1.73 0 0 1 1.72-1.5h5.61a1.73 1.73 0 0 1 1.72 1.5h2.49a.75.75 0 0 1 .75.74v1.2a.75.75 0 0 1-.75.74h-14a.74.74 0 0 1-.75-.74v-1.2a.74.74 0 0 1 .71-.74z" fill="#f5f4f0" stroke="#692f17" stroke-miterlimit="10"/><path fill="#dfdbd1" stroke="#692f17" stroke-linejoin="round" stroke-width=".75" d="M23.18 59.58h-9.71"/><path fill="#dfdbd1" stroke="#692f17" stroke-linejoin="round" d="M20.47 51.15l-1.09 6.8h-2.23l1.1-6.8h2.22z"/><path d="M30.59 55.19V37.58s9.83-1.89 14.86 5.87c4.74 7.31-1.67 18.62-1.67 18.62h-10.5" fill="#fd8204" stroke="#692f17" stroke-linejoin="round" fill-rule="evenodd"/><ellipse cx="32.86" cy="58.19" rx="3.93" ry="3.88" fill="#dfdbd1" stroke="#692f17" stroke-miterlimit="10"/><ellipse cx="32.86" cy="58.19" rx="2.26" ry="2.23" fill="#f5f4f0" stroke="#692f17" stroke-linejoin="round" stroke-width=".75"/><path d="M38.59 38.19a10.37 10.37 0 0 0-2.81 7.11 10.54 10.54 0 0 0 10.6 10.47" fill="none" stroke="#692f17" stroke-linejoin="round" stroke-width=".75" fill-rule="evenodd"/></g></svg>