<svg xmlns="http://www.w3.org/2000/svg" width="32.1mm" height="144" viewBox="0 0 91 108.01"><title>Домовенок с гарнитурой</title><path d="M26.85 60.41c-.26 0-.77 3-.82 4.48s1.29 2.06 2.26 2.57 5.92 2.47 6.74 3.86.87 4 .62 4a4.76 4.76 0 0 1-2.52.15c-1.24-.36-9-.57-10.55-1.49s-7.87-4.73-9.37-6.43a66.26 66.26 0 0 0-7.31-6.54 33.26 33.26 0 0 1-3.86-9.37 62.52 62.52 0 0 1-.87-15 34 34 0 0 1 3.4-12.45c2.21-4.27 8.08-10 10.6-12s10.6-5.3 12.3-6.54 9.16-4 10.19-4.17S45.95.35 47.49.3s10 .36 13.53 2.06 5.61 2.88 6.23 2.93 6.69 2.68 8.34 4.68 6.54 9.78 6.54 9.78.82.15 2.68 2.11 4.48 8.18 5.15 13 .72 13.43-1 17.75a59.32 59.32 0 0 1-7.1 11.89c-1.08 1.24-4.27 4.63-6.54 5.87s-4.63 2.88-6.38 3.34-5.4 1.44-5.92 1.08a5.56 5.56 0 0 1-1.39-2.32 3.2 3.2 0 0 1 .93-1.49c.26-.15 13.07-6.95 16.47-13.48a41.9 41.9 0 0 0 4.27-14.77c.15-1.65-2.83-10.55-2.83-10.55s-2.21-.05-3.5.05-6 .41-6 .41.72-.82-.05-3.19-3.29-6.74-6.07-8.7l-1.54-.51a27 27 0 0 1 .05 6.9c-.51 2.78-1 4.17-1.18 4.17s-4.43.1-4.58.05-4.32.05-4.48 0-3.5 1.13-6 1.85a31.59 31.59 0 0 1-9.42 1.39c-3.5-.1-5-.31-5-.31s-3.71 3.76-3.91 3.76a.93.93 0 0 0-.82 1.24c.31.93 3.76 5.66 4.12 7.26s.62 6.43-.1 8.23-4.88 5.63-5.14 5.63z" fill="#e09c51"/><path d="M38.25 1.54s-9.4 2.74-12.83 5.49-8.1 8.44-9 12.14-2.13 9.61-1.78 12.69a36.34 36.34 0 0 0 1.51 6.52 1.51 1.51 0 0 1 0 1.51 8.07 8.07 0 0 0-2.2 6.86c.62 4 2.13 9 4.87 11.46a8.25 8.25 0 0 0 7.62 1.58 4.57 4.57 0 0 0 2.54-3 22.12 22.12 0 0 0 .07-6.45 27.94 27.94 0 0 0-2.74-7.68 21.88 21.88 0 0 0-4.67-4.94 2 2 0 0 0-1.65-.48s-.62-6.45-.69-8.3a33.27 33.27 0 0 1 2.06-10.29c1.24-2.74 2.61-7.82 7-11a52.12 52.12 0 0 1 10.57-5.83c.99-.17-.68-.28-.68-.28z" fill="#e2ddd3"/><path d="M64.16 21.2s-.77 7.67-1.39 8.9-2.06 1.24-2.73 1.29-5.76.05-5.76.05l.15-1.24s-5.66 2.73-7.41 3.34a29.18 29.18 0 0 1-6.38 1.29 22.78 22.78 0 0 1-5.25-.05 22.91 22.91 0 0 0-3-.21 5.86 5.86 0 0 1-2 2.32 13.19 13.19 0 0 0-2.52 2.16s-.21.72 1 2.21a13.67 13.67 0 0 1 3.29 7.87s.31 4.22-.26 5.66a8.55 8.55 0 0 1-2.11 3.4c-.82.67-3.24.82-3.5 2.78s-.57 3.91.36 5 7.05 3.86 9.26 4.63 9.93 3 16.67 2.47 13.43-3.09 17.24-6.59 8.39-7.26 10.09-10.65 3.76-11 3.6-12.87-2.93-10.39-2.93-10.39-5.15-.15-5.87-.15-3.29.1-3.29.1a5.24 5.24 0 0 0 0-3.09c-.57-1.18-3.09-7.15-7.26-8.23z" fill="#f9e5cc"/><path d="M58.93 3.08s-1.3-1.17-8.16-1a48.13 48.13 0 0 0-14.48 2.88c-1.37.48-8.1 3.77-10 7a43.85 43.85 0 0 0-5.42 14.55 24.94 24.94 0 0 0 1 10.43s4.73.07 7.48 5.49 3.29 7.82 3 10.15a10.78 10.78 0 0 1-1.85 4.46s-.14.55 2 2.47 4.8 4.46 8.71 5.63l2.33.41a2.51 2.51 0 0 1 .62-1.3 12.75 12.75 0 0 1 5.9-1c1.65.34 2.26.14 3.16.62s2 1.37 1.92 2.47a6.7 6.7 0 0 1-1.51 3.29 10.81 10.81 0 0 1-5.42 1c-1.58-.34-3.71-.62-4-1.3s-.75-1.85-.75-1.85-1-.21-1.65-.27a46.91 46.91 0 0 1-7.89-4 39.15 39.15 0 0 1-4.6-4.6l-1.65-.07a6.67 6.67 0 0 0 1.51-3.71c.07-2.06.07-6-1.37-9s-3.22-5.56-4.8-6.59l-3.16-2.06a39.86 39.86 0 0 1-.69-8.3 38.51 38.51 0 0 1 1.85-10.29 30.43 30.43 0 0 1 5.69-9.74c1.72-1.65 7.27-4.8 7.27-4.8 2.2-1 5.21-2.33 6.72-2.81A57.2 57.2 0 0 1 52.15.49c2.74.21 7.34 1 8.58 1.65s-1.8.94-1.8.94z" fill="#c7c0b1"/><path d="M18.67 41.37c-.16 0-1.8.62-2.11 3.71-.41 4.15 1.13 9.16 2.83 10.7a3.94 3.94 0 0 0 4.89.41 5 5 0 0 0 1.75-4.58c-.31-2.21-.51-5.09-1.7-7s-3.08-3.96-5.66-3.24z" fill="#c7c0b1"/><path d="M1.58 34.52a44.49 44.49 0 0 1 6.43-10.29 34.12 34.12 0 0 1 8.8-7.2c.93-.57 4.07-5.92 4.22-6s1.8-1.85 1.54-2.21-6.18 2.73-8.08 4.22-7.67 7.87-8.44 9.31-3.65 5.76-4.12 8.54a15.73 15.73 0 0 0-.35 3.63zM14.4 23.92s1.29-1.9.67-2.26-5.15 4-5.56 4.53-2.11 5.09-2.26 5.2a48 48 0 0 0-3.4 4.79c-.41.87-2.57 8-2.52 10.6s1.08 7.77 1.8 8.9 1.54 2.68 1.54 2.68a46.24 46.24 0 0 1-.62-8c.15-3.4 2.16-6.95 3.14-7.62 0 0 2.16 3.91 2.37 4.22s1 3 1.08 3.19.82 3.24 1 3.71.67 1.54.67 1.54a20.59 20.59 0 0 0-.41-7.15c-.93-3.34-1.7-6.84-1.24-9.06 0 0 .21-2.83.21-4a31.88 31.88 0 0 1 2.21-7.77 22.86 22.86 0 0 0 1.32-3.5zM43.57 2.82s-5.61 1.75-7.87 2.47a22.48 22.48 0 0 0-7.82 4.84 31.46 31.46 0 0 0-4.27 6.54c-.36.82.1 1.7 1.39 1.75s5.71-3.86 7.41-6.12a16.46 16.46 0 0 0-2.83 9.78c.26 5.66 2.26 10.24 3.19 11.32s-2.16-4.53-1.39-10.29 2.26-8.34 6-9.21 5.15.77 5.4 1.29c0 0-.15-1.85 3.81-3.6s4.32-.77 6.18-2 2.11-3.71 2.62-4.48a3.77 3.77 0 0 1 2.11-1.24 1.6 1.6 0 0 1 1.13.05 3.1 3.1 0 0 0-.67 2.78c.46 1.54 3.65 1 5.15 1s4.07.05 5.3 1.18a28.84 28.84 0 0 1 2.16 2.21s2 .1 6 5 6.54 9.73 6.84 11.89c0 0 1-.62.72-2.52S81.2 18 79.7 15.79s-5.87-7.72-8.75-9.26-8.08-3.5-9.47-3.55-3.34-.05-3.5-.05a2.73 2.73 0 0 0-2.37-1c-1.95.07-12.04.89-12.04.89z" fill="#e9b87f"/><path d="M45.41 45.76a6.21 6.21 0 0 1 1.82-2.2 12.67 12.67 0 0 1 5.69-1.51c2.3.07 3.05.38 3.4 1.44a9.58 9.58 0 0 1 .34 2.47 1.82 1.82 0 0 0-1.2.17 21.7 21.7 0 0 1-3 1.1 13.57 13.57 0 0 1-4.39.1 7.53 7.53 0 0 1-2.66-1.57z" fill="#fffefe"/><path d="M47.36 44.46s.69 2.81 3 2.64 2.78-1.58 2.74-2.23-.55-2.37-1.54-2.64-3.82 0-4.2 2.23z" fill="#b8d2ea"/><path d="M51.98 43.99a.57.57 0 0 1 .63.53 9.18 9.18 0 0 0-.17-1.27.82.82 0 0 0-.51-.67 3.14 3.14 0 0 0-1.32-.22 6.48 6.48 0 0 0-2.37.77c-.24.36 1.32 1.3 1.32 1.3z" fill="#8d797d"/><path d="M69.72 45.83a3.17 3.17 0 0 1 1-2.11 14.86 14.86 0 0 1 4-2 3.59 3.59 0 0 1 3.1 1.15c.67.86 1.29 1.48.77 2.23s-.36 1.11-1.41 1.41-1.89.48-1.89.48a18.66 18.66 0 0 1-4.44-.81 9.64 9.64 0 0 1-1.13-.35z" fill="#fffefe"/><path d="M71.74 45.35a2.28 2.28 0 0 0 2.59 1.37c2-.24 1.89-2.68 1.77-3s-.31-1.75-1.54-1.77-2.71.6-2.92 1.32a4 4 0 0 0 .1 2.08z" fill="#bbd2e8"/><path d="M75 44.16a.29.29 0 0 1 .24-.35c.31-.09.47 0 .55.25s.38-.14.33-.34a3.3 3.3 0 0 0-.82-1.11 1.25 1.25 0 0 0-1.08-.45 3.07 3.07 0 0 0-1.42.24 1.72 1.72 0 0 0-.77.55 5.32 5.32 0 0 0-.38.63 32 32 0 0 0 3.35.58z" fill="#8e797c"/><path d="M80.18 88.21c-1.78-1.51-6.59-8.58-8.17-9.88s-5.42-3.64-6.45-3.71-4-.41-4-.41v-2.4l-1.72-.14s-8.51 2.06-11.39 1.78-12.62-2.81-12.62-2.81-1.41-1.37-.84.45c0 0 .84 2.37.36 3.19s-5.83 3.22-6.66 3.77-4.53 2.81-6.24 4.19-4.12 2.4-6 9.13c-.69 2.51-1.3 5.14-1.82 7.68a47.3 47.3 0 0 0 16.19 6.44 419.21 419.21 0 0 1 12.19 2.31 24 24 0 0 1 5.6-.68 25.82 25.82 0 0 1 3.23.21 24.23 24.23 0 0 1 6.71-1c.41 0 .75-.25 1.15-.23a25.21 25.21 0 0 1 11.48-2.57h.19c.24-.15.46-.31.7-.45v-.17h.29a26.61 26.61 0 0 1 6.9-2.77c2-1.32 3.52-2.62 5.8-3.37-1.33-2.65-3.43-7.34-4.88-8.56z" fill="#fff"/><ellipse cx="6588.09" cy="3681.39" rx="3.37" ry="4.26" transform="rotate(-30 -3392.662 14086.559)" fill="#fd8204"/><ellipse cx="6581.71" cy="3693.74" rx="3.37" ry="4.26" transform="rotate(-30 -3399.05 14098.907)" fill="#fd8204"/><ellipse cx="6561.05" cy="3692.44" rx="4.26" ry="3.37" transform="rotate(-64.81 458.502 7045.755)" fill="#fd8204"/><path d="M32.89 82.55c-1.37 1.91-3.71 2.58-5.22 1.49s-1.64-2.89-.27-4.8 3.29-2 5.25-2.12c1.5 1.09 1.6 3.53.24 5.43zM51.92 107.55a24.54 24.54 0 0 1 5.37-.94 2.58 2.58 0 0 0-.63-.67c-1.51-1.09-3.85-.42-5.22 1.49z" fill="#fd8204"/><ellipse cx="6609.95" cy="3678.19" rx="3.98" ry="3.37" transform="matrix(.58 -.81 .81 .58 -6777.16 3296.53)" fill="#fd8204"/><path d="M80.11 99.89a27.16 27.16 0 0 1 5.23-2.5l.42-1.11c-1.14-1.82-3.15-2.67-4.69-1.9-1.69.84-2.17 3.32-1 5.49z" fill="#fd8204"/><g><path d="M17.79 41.83s2.32-1.08 4 .05 4.12 5.2 4 9.62-2.06 4.53-2.83 4.89-2.83.26-3.45-.57a3.43 3.43 0 0 0 3.76 1.24c2.57-.62 3.24-2.93 3.4-4.53a13 13 0 0 0-.77-6.23c-1-3.19-3.6-5.3-5.09-5.61a3.61 3.61 0 0 0-3.02 1.14zM49.77 59.83s-1.13 0-.82-.82 1.92-1.1 3.19-.89 5.28 1.82 8.58 2.09a13.06 13.06 0 0 0 7.07-1.41c1.13-.62 2.4-1 3.19-.65a1.26 1.26 0 0 1 .62 1.58c-.14.31-.86-.51-1.65-.48s-3.81 2-6.48 2.23a21.83 21.83 0 0 1-9.09-1.75c-1.92-1-2.37-1-2.88-.79s-.53.71-1.73.89zM58.1 62.78a19.65 19.65 0 0 0 4.43.51 7.27 7.27 0 0 0 2.78-.72.59.59 0 0 1 .58.14c.24.24-.69.82-1.17 1.06a8 8 0 0 1-3.36.62c-1.44-.07-3.5-.72-4-1.37s-.22-.86.74-.24zM61.7 53.38a3.8 3.8 0 0 0 3.29.89c2.06-.38 1.92-1.54 1.92-1.54a7.16 7.16 0 0 1-2 .51 16.73 16.73 0 0 1-3.16-.41s-.63-.11-.05.55zM46.2 37.9a59.47 59.47 0 0 1 6.42-1.58c1.82-.21 4.12-.72 4.73-.69s.89-1.17-.17-1.3a13.24 13.24 0 0 0-6.66.86c-2.85 1.2-4.84 2.1-4.32 2.71zM75.77 34.95a6.75 6.75 0 0 0-3.5-.41c-.89.31-.51.93.14 1.06a31.07 31.07 0 0 1 5.39 1.37c1.06.58 1.65.93 1.65.93s.65.24 0-.55a10.31 10.31 0 0 0-3.68-2.4zM57.25 44.56a6.86 6.86 0 0 0-1.11-2.14 3 3 0 0 0-2-1 11.61 11.61 0 0 0-6 1 7.43 7.43 0 0 0-3.86 3.94c.15.39 2.8 1.08 2.8 1.08l.33.05a16.33 16.33 0 0 0 3.32.33 11.8 11.8 0 0 0 4.19-1.21.23.23 0 0 0 .2 0 3.51 3.51 0 0 1 1.29-.05c.49 0 .85-.13.87-.54a6.34 6.34 0 0 0-.03-1.46zm-1.72 1.21a4.75 4.75 0 0 0-.82.31s-.8.33-1.31.51-4.84.75-5.74.18a.69.69 0 0 0-.38-.14c-1-.39-1.41-.67-1.39-1a3.75 3.75 0 0 1 1.36-1.8c.87-.77 2.34-1 4.68-1.21s3.19.39 3.65.75.62 2.42.62 2.42a2.17 2.17 0 0 0-.69-.02z" fill="#692f23"/><path d="M47.25 43.84a3.93 3.93 0 0 0-.07 1.73 2.6 2.6 0 0 0 .94 1.41 13 13 0 0 0 3.86.07 2.17 2.17 0 0 0 1.34-1.65 4.72 4.72 0 0 0-.05-1.94 1.91 1.91 0 0 0-.74-1 5.75 5.75 0 0 0-1.77.14 8.27 8.27 0 0 1 .86.17 2.54 2.54 0 0 1 1 2 2.17 2.17 0 0 1-1.06 1.92 3.2 3.2 0 0 1-2 .14 2.19 2.19 0 0 1-1.48-1.22 2 2 0 0 1 .29-2.21 3.1 3.1 0 0 1 .89-.46c.36-.05-1.29.07-1.29.07a3.64 3.64 0 0 0-.72.83z" fill="#692f23"/><path d="M48.87 44.83a1.37 1.37 0 0 0 1.65 1.24c1.56-.15 1.15-1.89 1.15-1.89a1.41 1.41 0 0 0-1.49-.94 1.49 1.49 0 0 0-1.31 1.59z" fill="#692f23"/><circle cx="48.8" cy="43.99" r=".81" fill="#fff"/><path d="M79.25 44.85a4.14 4.14 0 0 0-2.5-3.24 7.15 7.15 0 0 0-5.52 1.3 8.65 8.65 0 0 0-2.31 3 .37.37 0 0 0 0 .24.4.4 0 0 0 .31.41 6.66 6.66 0 0 1 1.46-.07 16.59 16.59 0 0 0 2.26.87 12.47 12.47 0 0 0 3-.05 5.92 5.92 0 0 0 2.28-.93c.22-.14.81-.72 1-.82a1 1 0 0 0 .02-.71zm-8.89 1a.35.35 0 0 1-.21-.34 2.09 2.09 0 0 1 0-.33 3.42 3.42 0 0 1 .62-1.18 3.68 3.68 0 0 1 .45-.48 2.29 2.29 0 0 0-.2 1.13 2.56 2.56 0 0 0 .54 1.37c-.46-.15-1.03-.11-1.21-.17zm2.81.46c-1.1-.15-1.41-1.18-1.42-2.13a1.87 1.87 0 0 1 1.73-1.73h.21a2.07 2.07 0 0 1 1.66.52 2.27 2.27 0 0 1 .15 2.52c-.39.9-1.25.97-2.33.82zm4.92-1c-.09.39-1.07 1.31-2.78 1.56a2.8 2.8 0 0 0 1.08-2.05 3.48 3.48 0 0 0-.47-2.23l.15.05a3.3 3.3 0 0 1 1.34.89 2.18 2.18 0 0 1 .68 1.75z" fill="#692f23"/><path d="M73.02 43.41a1.19 1.19 0 0 1 .76-.21A1.12 1.12 0 0 1 75 44.29a1.15 1.15 0 0 1-1 1.31 1.21 1.21 0 0 1-1.4-1.08 1.24 1.24 0 0 1 .42-1.11z" fill="#692f23"/><circle cx="72.45" cy="43.84" r=".65" fill="#fff"/><path d="M36.19 102.58c.28 1.1 1.07 3.41 1.15 4.27l.22.07c.42 0 .83.07 1.24.13a6.67 6.67 0 0 0-.14-.67c-.33-1.23-1.34-2.83-1.44-4.43s.23-3.34.13-4.48-.46-2.14-.72-2.06.23 2.7-.28 3.09-1.72-2.26-2.08-2.32-.39.39-.18.87 1.82 4.42 2.1 5.53zM74.91 100.32c0 .18.11.72.24 1.47l1-.41-1.41-8.18s-.49-2.7-1.24-2.47.41 2.6.72 4.48c.03-.01.56 4.18.69 5.11z" fill="#692f23"/><circle cx="39.97" cy="74.74" r=".46" fill="#692f23"/><circle cx="43.58" cy="74.3" r=".36" fill="#692f23"/><circle cx="46.48" cy="76.11" r=".36" fill="#692f23"/><circle cx="52.3" cy="76.16" r=".36" fill="#692f23"/><circle cx="55.26" cy="74.36" r=".36" fill="#692f23"/><circle cx="57.83" cy="75.46" r=".36" fill="#692f23"/><circle cx="60.02" cy="73.2" r=".36" fill="#692f23"/><circle cx="57.47" cy="78.55" r=".36" fill="#692f23"/><circle cx="55.7" cy="81.97" r=".46" fill="#692f23"/><circle cx="60.66" cy="79.73" r=".46" fill="#692f23"/><circle cx="60.33" cy="83.98" r=".46" fill="#692f23"/><circle cx="58.96" cy="88.46" r=".46" fill="#692f23"/><circle cx="62.57" cy="91.88" r=".46" fill="#692f23"/><circle cx="60.38" cy="96.64" r=".46" fill="#692f23"/><circle cx="63.49" cy="99.16" r=".46" fill="#692f23"/><circle cx="65.7" cy="95.15" r=".46" fill="#692f23"/><circle cx="64.03" cy="86.84" r=".46" fill="#692f23"/><circle cx="49.47" cy="74.79" r=".36" fill="#692f23"/></g><path d="M90.93 38.52c-.24-2-.82-7.89-2.47-11.32s-4.63-7.79-5.9-8.85-3-3.53-5.21-6.59-6.62-6.24-7.92-6.55c-1.09-.26-3.8-1.28-4.67-1.61A28.93 28.93 0 0 0 57.83.87C53.23-.4 45.62-.02 42.22.39a45.19 45.19 0 0 0-11.29 3c-.51.23-1.11.53-1.75.88-2.47 1.17-8.69 4.15-12.52 6.4-4.87 2.85-10.12 8.75-12.8 13.83A33.48 33.48 0 0 0 .05 38.05a44.3 44.3 0 0 0 1.2 13.14c1.13 3.74 1.85 7.2 4.46 10.29a35.72 35.72 0 0 0 5.08 5.28c.58.34 1.51.82 1.51.82s5.79 5 9 6.38 4.27 1.44 5.35 1.39a22.5 22.5 0 0 1 2.88.31 15.35 15.35 0 0 1 1.7.21h.12c-.24.25-.61.59-.79.74a27.11 27.11 0 0 1-6.9 4 12.69 12.69 0 0 0-6 5.12 96.82 96.82 0 0 0-3.19 11.55c0 .31-.13.73-.23 1.2a2.17 2.17 0 0 0 .59 1.33c.71.71 9.78 5.23 17.34 6.59s11 2 18.32 1.45a111.56 111.56 0 0 0 21.64-4.25 123.19 123.19 0 0 0 13.12-5.95 2.67 2.67 0 0 0 .53-.91 1.58 1.58 0 0 0 0-1.1 18.09 18.09 0 0 0-3.18-4.66c-.57-.75-4.94-6.07-4.94-6.07-.69-.92-4.41-7-7.13-8.3a.66.66 0 0 0-.2-.16 16.29 16.29 0 0 0-2.14-.87.41.41 0 0 1-.23-.46v-.1a1.15 1.15 0 0 1 .86-.66 21.33 21.33 0 0 0 3.53-1.3 22.35 22.35 0 0 0 6.18-4.43 77.54 77.54 0 0 0 5.8-6.45s3.55-5.49 4.68-7.82a11.75 11.75 0 0 0 1.48-4.49 106.23 106.23 0 0 0 .44-11.35zm-1.72-4c-.45-2.3-4.73-6.86-4.73-6.86.24-1.75-1.61-7-1.61-7 5.56 5.17 6.38 13.88 6.38 13.88zM64.8 5.65c2.5 2 6 6.35 6.55 8.23a11.86 11.86 0 0 0-1.41-4.29 20.68 20.68 0 0 0-3.26-3.95l-.13-.13a47.37 47.37 0 0 1 5.48 3 32.13 32.13 0 0 1 8.51 10.12c2.88 5.52 2.81 8.06 2.57 9.57a7.65 7.65 0 0 1-1.81 3.17 1.08 1.08 0 0 1-1.13.14c-.79-.24-.82-1.85-.75-2.4a11 11 0 0 0-.62-4.6 6.83 6.83 0 0 0-3.47-2.88c-.1.1 2.23 2.61 2.54 4s.62 4.73 0 5.63-2.06.75-2.57.72a17.07 17.07 0 0 0-3.29.17s.38-1-.34-3.19a20.75 20.75 0 0 0-3.33-5.69c-.82-1-4.67-4-5.76-5.11s-4.12-3.43-5.69-7.1a5.44 5.44 0 0 1 1.61-6.79c.94-.55 3.75-.62 6.3 1.38zM40.33 73.1c.5.18 1.56 2.66 1.78 3.19-.41-.11-.82-.23-1.22-.36a28.83 28.83 0 0 1-3-1.15c.5-.26 1.92-1.85 2.44-1.66zm-3.41 1.13a2 2 0 0 1-.76-1 .89.89 0 0 1 .14-1.17 2.24 2.24 0 0 1 .92 0c.22.05.91.25 1.92.5-.62.44-1.89 1.45-2.22 1.69zm5.1-1c1 .2 2 .4 3.14.56a13.67 13.67 0 0 1-1.7 2.19c-.03-.17-1.03-2-1.44-2.75zm4.56 1c.64.19 1.57 2.54 1.77 2.93a33.66 33.66 0 0 1-4-.36c.57-.33 1.57-2.8 2.23-2.6zm1.07-.12l.72.05a20.52 20.52 0 0 0 2.77 0l-1.65 2.24a12.75 12.75 0 0 0-1.83-2.32zm4.72.43c.4.05 2.06 2.32 2.13 2.41l-.61.06c-.76.06-2.12.16-3.77.18.5-.43 1.87-2.73 2.25-2.68zm6.43 1.75a20.71 20.71 0 0 1-2.23.41.4.4 0 0 1-.32-.41 11.65 11.65 0 0 1 1.65-2.5 4.19 4.19 0 0 1 1.42 1.49 1.36 1.36 0 0 1 .07.72 2.13 2.13 0 0 1-.58.26zm.1 1.29c0 .14-.3 1.17-.66 2.34l-4.71-1.49a33.19 33.19 0 0 0 5.27-1.08s.12.03.11.19zm-3.47-1.34l-2.09-2.36c1.28-.19 2.48-.44 3.5-.68zm-2 3.37l4.42 1.55a16.64 16.64 0 0 1-.92 2.34 7.09 7.09 0 0 1-1 1.38A45.76 45.76 0 0 0 53 80.03l-.11-.12-.16-.46a2.07 2.07 0 0 1 .7.13zm7.66 8.26c-.75 1.21-2 3.48-2.3 4.12a19.48 19.48 0 0 0-.48-1.9 26.92 26.92 0 0 0-1.66-3.9c.5.17 2.65.94 4.44 1.64zm1 .41a11.09 11.09 0 0 1 1.39.65 4.18 4.18 0 0 1 1.7 1.6 17.2 17.2 0 0 1-1.9 4.62l-.88-.66c-1.08-.77-2.91-1.57-2.86-1.8s1.58-2.61 2.56-4.45zm.38 8c-.89 1.14-2.22 2.93-2.57 3.25a.3.3 0 0 1-.52 0 8.62 8.62 0 0 1-.11-1.26 38.06 38.06 0 0 0-.22-4.3c.66.32 2.2 1.35 3.43 2.24zm-1.28 3.43a31.78 31.78 0 0 0 2.21-2.78l1.13.8a3.82 3.82 0 0 1 1.36 1.62 6.24 6.24 0 0 1-1.17.71 9.51 9.51 0 0 1-4.23.72 4 4 0 0 1 .71-1.13zm2.94-3.88c.1-.16.18-.31.25-.45a38.07 38.07 0 0 0 1.66-4v.17a36.36 36.36 0 0 1 .58 6.31zm-.24-7.55a15.35 15.35 0 0 0-1.4-.77 7.42 7.42 0 0 0 .32-.75c.34-1 .66-2 .87-2.74a45.17 45.17 0 0 1 2 5.78 8.34 8.34 0 0 0-1.78-1.58zm-2.38-1.24c-1.73-.8-3.62-1.57-3.87-1.67a.52.52 0 0 1-.36-.72c0-.32 1.06-1.91 1.67-3.08 1.93.68 3.66 1.31 3.88 1.43a33 33 0 0 1-1.31 3.98zm-2-6.7c.23-.74.5-1.78.65-2.43a12.64 12.64 0 0 1 2.17 3.08l.15.29zm1-5.31v-.15a1.79 1.79 0 0 0-.44-.57 16.15 16.15 0 0 1-1.29-1.55 11.06 11.06 0 0 1 1.21-.29.87.87 0 0 1 1.1 1 5.34 5.34 0 0 1-.65 1.49zm-7.7-2.45c-3.47.69-7.31-.1-9.06-.27a35 35 0 0 1-5.21-1.32 35.3 35.3 0 0 1-11.82-5.5c.07-.81.12-1.63.12-2 0-.72.15-2.73 1.08-3.65s2.21.46 2.21.46c3.71 4.43 10.4 6.64 11.53 7.05a2.1 2.1 0 0 0 1.6.15 2.61 2.61 0 0 0 .67 1.9c.36.41 2.32 1.65 5.71 1.6a7.36 7.36 0 0 0 5-1.54 3.43 3.43 0 0 0 .67-4.48c-1.44-2.21-6.48-2.11-7.41-2.06s-3.81 0-4.12 1.34-.72 1-1.08 1a18.59 18.59 0 0 1-5.09-2c-2.37-1.29-6.59-5.81-6.59-5.81a6.82 6.82 0 0 0 1.32-2.18 14.24 14.24 0 0 0 .41-7.72 16.64 16.64 0 0 0-4.1-7.29 4.05 4.05 0 0 1 1.17-2.17c1.13-1.1 2.4-1.65 3-2.54 0 0 5.66.62 9.57-.31a76.23 76.23 0 0 0 8.39-2.73 44.34 44.34 0 0 1 9.47-.77 5.61 5.61 0 0 1 2.11.46s.41.05.67-.72 2.09-7.36 1.68-9.73a8.49 8.49 0 0 1 3.53 3.19c1.51 2.37 2.64 4.19 2.57 5.83a3.83 3.83 0 0 1-.65 2.3s-.1.31.62.17a13.19 13.19 0 0 1 2.61-.27c.75 0 2.06.21 2.68.17a29.85 29.85 0 0 1 3-.24 1.25 1.25 0 0 1 1.13.41 41 41 0 0 1 1.85 7 29.47 29.47 0 0 1-.19 7.05c-.58 3.43-2.06 8.65-5.52 12.49s-8.89 8.1-13.07 9.95-7.07 2.03-10.54 2.72zm-25.95-29.8a20.43 20.43 0 0 0-3.88-4.15 1.07 1.07 0 0 1-.69-.55.74.74 0 0 1 .17-.3v.13s1.75 0 4.15 2.37c0 0 4.23 3.57 4.64 8.25s-.41 7.1-1.39 8.54a7.3 7.3 0 0 1-1.29 1.24l-.19.12.28-.31c.86-1 1-4 1-4s.51-6.75-2.88-11.4zm-5.28-9a29.5 29.5 0 0 1 2.83-17.5c4-7.92 9.23-9.49 9.37-9.57a55.36 55.36 0 0 1 5.34-2.19 10.23 10.23 0 0 1 2.95-.51 2 2 0 0 0 .82.12c-.37.06-.64.12-.76.15a18.08 18.08 0 0 0-8.17 5.21 21.24 21.24 0 0 0-4.63 10c-.21 1.58-.86 7.41.48 10.6s1.85 3.64 1.85 4.22a3.26 3.26 0 0 1-1.82 2.61 2.64 2.64 0 0 1-3.43-1 16 16 0 0 1-2.33-5.52 9.84 9.84 0 0 0 .58 4.77c1 2 1.78 2.88 2.13 3 0 0-.34.38-1.58-.34a9.54 9.54 0 0 0-2.92-1h.06s-.44-1.29-.85-3.18zm21.48-17c-.51-3.5 1.1-7.24 2.92-10.09a8.87 8.87 0 0 1 6.76-3.95c1.92-.14 4.15.1 4.39.41a.4.4 0 0 1 .07.51l.05.08a1.85 1.85 0 0 0-.36.4 7.21 7.21 0 0 0-1.17 6.07 12.61 12.61 0 0 0 4.19 6.76 8.24 8.24 0 0 1 3 4.39 16.43 16.43 0 0 1 0 6.79c-.24 1.17-.45 2.23-.45 2.23a1 1 0 0 1-1.2.82h-5.35s-1.1-.51-.38-1.3a3.39 3.39 0 0 0 1.2-2.2 30 30 0 0 1-4 3.22 18.21 18.21 0 0 1-6.66 2.61c-3 .58-11.18 1.27-12.73.21s-2.64-5.73-2.88-7.58c-.2-1.57-.48-7.58 1.06-11a20.88 20.88 0 0 1 9.26-9.19 61.88 61.88 0 0 1 5.84-2.32l.13-.05c.12 0 .22-.05.37-.09a16.7 16.7 0 0 0-4.32 7.31 15.41 15.41 0 0 0 .18 5.83zM32.43 60.5a27.16 27.16 0 0 0 6.59 4.36 8.48 8.48 0 0 0 4.13 1.22.87.87 0 0 1 .61.7.53.53 0 0 1-.31.42c-.62.06-1.37-.39-4.84-1.67-3.76-1.39-8-5.92-8-5.92l-.09-.15a1 1 0 0 1-.17-.79c.19-.23 1 .81 1.42 1.2s.71.67.71.67zm11.73 4.7a1.77 1.77 0 0 1 .16-.38.91.91 0 0 1 .38-.35 4.73 4.73 0 0 1 .33 2.22 3.26 3.26 0 0 1-.49 1.72.44.44 0 0 1-.44 0l-.13-.23a7.35 7.35 0 0 0 .19-.88 11.21 11.21 0 0 0-.08-2.24zm1.32-.69a.28.28 0 0 1 .12-.2 5.58 5.58 0 0 1 2.08 2.13c-.06.13-.12.26-.19.39a5.07 5.07 0 0 1-2 2.16.35.35 0 0 1-.4 0s.3-1.58.32-1.83a20 20 0 0 0-.01-2.78zm6 1.45a17.35 17.35 0 0 0-2-2.19 11.75 11.75 0 0 1 1.9.23 8.14 8.14 0 0 1-.02 1.82zm.36 4.14a9.73 9.73 0 0 1-2.49.17 8.66 8.66 0 0 0 2.14-2.34 4.89 4.89 0 0 1 .23 2.04zm-.62-3.14a7.22 7.22 0 0 1-1.89 2.48s-.06.06-.09-.36a10.13 10.13 0 0 0-.79-2.59 14.89 14.89 0 0 0 .63-2.11 14.88 14.88 0 0 1 2.02 2.45zm-2.67 3.28a12.47 12.47 0 0 1-2.59-.55 5.64 5.64 0 0 0 1.86-1.85c.11-.19.21-.38.31-.58 0 .09.07.18.09.27a6.31 6.31 0 0 1 .21 2.58zM48 65.67a7.69 7.69 0 0 0-1.38-1.55.11.11 0 0 1 0-.2 13.14 13.14 0 0 1 1.66-.16 8.5 8.5 0 0 1-.4 1.77zm4.12-.43v-1.05a7.1 7.1 0 0 1 1.15.45c.1.61.43 3.2-.6 4.54l-.12.14a5.68 5.68 0 0 0-.55-2.34 7.38 7.38 0 0 0 0-1.88zm2 0a1.67 1.67 0 0 1 .72 1.5 3.33 3.33 0 0 1-1.66 2.91 7.45 7.45 0 0 0 .84-2.1 7.12 7.12 0 0 0 0-2.46zM42.45 1.48c3.49-.43 8.39-.9 12.56-.21 4.6.75 6.38 1.78 6.38 1.78s-.74-.12-1.34-.17c-.3-.09-.82-.23-1.71-.45a36.54 36.54 0 0 0-13.72-.21c-1.36.28-2.56.58-3.59.88-3.19.87-10.86 4-13.89 7.67s-4.84 7-6.12 13.28a23.86 23.86 0 0 0 .21 11.63 1.61 1.61 0 0 1-.16 1.62l-.09.07c-1.13.09-1-2.08-1.44-4a25.35 25.35 0 0 1-.07-6.07v-.43s1.41-8.58 4.15-13 4-6 9.26-8.68a43.85 43.85 0 0 1 9.47-3.87zm-17.7 7.06a33.54 33.54 0 0 1 12.47-6.08 32.61 32.61 0 0 0-8.16 4.21c-3.6 2.85-4.91 4.7-7.24 9.3a32.67 32.67 0 0 0-2.84 9.76l-.06.5c-.07.38-.1.9-.1.9a39 39 0 0 0 .1 5.56c.07.93.69 3 .55 3.71s-.45.89-1.54 1.41-1.41.35-1.48.24c-2-3.26-1-11.66-1-11.66s.14-1.88.14-2.09a17.45 17.45 0 0 1 2.16-7.34c2.04-4.31 6.77-8.46 6.91-8.58zM2.07 33.28a21.5 21.5 0 0 1 4-9.4c1.37-2.06 3.67-5.32 4.32-6.28a34.18 34.18 0 0 1 7.38-6c2.33-1.2 3.33-1.89 3.43-1.75a.1.1 0 0 1 0 .08 47.15 47.15 0 0 0-3.41 4.59c-.62 1.2-1.68 3.74-2.47 5.21s-2.3 2.3-4.46 4.67a17 17 0 0 0-2.3 3.29h-.1s-4.22 5.45-5.4 9.11c-.73 2.25-1.24 4-1.53 5.15a55.23 55.23 0 0 1 .45-8.83zm9.16 28.92a18.41 18.41 0 0 0 .19 2 .7.7 0 0 1-.43.29c-.55.14-3.53-3.12-4.19-3.84a19.3 19.3 0 0 1-4.15-8.83c-.13-1.39-.49-5.59-.11-7.42.46-2.21 1.34-8.08 4-11.53-.6 2.66-.22 8.69.54 10.45.15.35.32.73.49 1.1 0 .4.94 3.76.94 5.31s-.1 5.66.05 6.43.72-3.5.77-4.84c0-.95.2-2.15.22-3.08l.16.25c.62.93 1.48 4.53 1.68 6.42s-.39 3.63-.25 7.13zm2.61 4.84a8.3 8.3 0 0 1-1.58-3.36c-.34-1.44.14-4 .21-6.18a19 19 0 0 0-.75-6.55c-.72-2.26-2.13-4.91-3-7s-1.13-3.43-1.27-8 2.88-9.37 3.6-10.33a15.78 15.78 0 0 1 2.54-2.5c.72-.58 1-.31 1-.31l-.11.21-.06.07a22.94 22.94 0 0 0-3.5 7.82c-1.1 4.91-.38 8-.21 8.34a22.91 22.91 0 0 1 .72-6c.74-2.41 1.69-5.31 2.8-6.68a27.15 27.15 0 0 0-.12 6.75 20.3 20.3 0 0 0 1.34 6 11.26 11.26 0 0 0-1.85 10.5c1.89 5.39 3.74 7.34 4.43 8.17a12 12 0 0 0 2.3 1.88 5.38 5.38 0 0 1-.18 2.2c-.46 1.39-1.6 2.78-1.34 5.2s.36 3.24 1.24 4.43c-.1-.05-4.63-2.22-6.3-4.82zm10 6.3c-1.39-.51-1.8-.72-1.8-.72a8 8 0 0 1-2.32-4.48c-.36-2.73 1-3.6 1.24-5.2a19.86 19.86 0 0 0 .37-2.39h.08a7.35 7.35 0 0 0 3.07.39 1.23 1.23 0 0 1 .75 1.24 45.42 45.42 0 0 1-.36 5c-.05.93-.21 3.86.57 5.56l.67 1.08a8.73 8.73 0 0 1-2.35-.65zm.21-13.47c-3.29.24-5.87-2.5-7.65-5.52a16.71 16.71 0 0 1-2-9.64 7 7 0 0 1 3.26-5.35 4.53 4.53 0 0 1 4.84.27 11.79 11.79 0 0 1 3.33 4 17.82 17.82 0 0 1 2.68 10.88.18.18 0 0 0 0 .21c-.08 2.19-1.34 4.75-4.54 4.99zm7.35 15c-1.85-.57-3-.51-4.27-2.52a6.54 6.54 0 0 1-.57-4.68v-.06a25.5 25.5 0 0 0 3.22 1.72c.93.31 3.33 1.1 3.95 2.3a4.31 4.31 0 0 1 .55 3 3.21 3.21 0 0 1-2.95.02zm38.78 3.52a26.27 26.27 0 0 1 6.1 6.66c2.55 4.09 5.45 6.9 6.41 8.36a5.43 5.43 0 0 1 1.43 2.75.92.92 0 0 1-.46 1 117.16 117.16 0 0 1-11.39 5.19c-3.53 1.19-22.73 7-37.15 3.53-13.52-3.23-15.62-4.89-18.08-6.15a2.64 2.64 0 0 1-1.34-1.24 4.73 4.73 0 0 1 .12-1.6c.28-1.33.58-2.62.88-3.72a21.49 21.49 0 0 1 5.07-9.55c1.8-1.75 4.12-1.93 5.87-2s6.23-.13 6.56-.05.77-.26-.1-.64a19.36 19.36 0 0 0-4.68-.54c-.41.05-1.16.1-1.16-.26a1 1 0 0 1 .44-.67l2.8-1.6 2.6-1.08a4.18 4.18 0 0 1 2.54-.65c1.41.14 4.67 1.68 6.11 1.92s5.28.17 6.48.58a3.94 3.94 0 0 1 2.06 1.51s5.63 8.27 6.62 13.07a26 26 0 0 1 .65 7.62s-.07.51 1.13 1.13 4.15-.24 5-.51a4.06 4.06 0 0 0 3.05-2.68 18.34 18.34 0 0 0-.1-6.72c-.38-1.48-2.09-7.2-2.57-8.27s-2.81-5-3.5-6a1.86 1.86 0 0 1-.44-1.47 2.09 2.09 0 0 1 1.59-.75 10.52 10.52 0 0 1 3.5 1c1.28.26 3.88 1.63 3.88 1.63zm-3.75-4.4a.59.59 0 0 0-.25.13c-.27.09-.56.18-.87.26-1.84.48-2.59 0-2.86-.28a.42.42 0 0 0-.15-.22 1.47 1.47 0 0 1 .25-1.47c.65-.51 3.46-2.23 5.39-3.46a40.32 40.32 0 0 0 5.21-3.91 11.49 11.49 0 0 1-1.17 4.94c-1.2 1.58-4.43 3.43-5.63 3.81zm18.3-16.57a7.67 7.67 0 0 1-1.36 3.5 20 20 0 0 1-3 4.25c-1.48 1.41-5.8 5.18-8.06 6.11l-.38.1a7.6 7.6 0 0 0 2.06-3 46.36 46.36 0 0 1 2.23-5.94c.58-.86 3.71-4.84 4.7-7.14s2.57-7.48 2.57-8.92v-.36c.29.61.3 1.44.77 3.11a26.06 26.06 0 0 1 .4 8.09zm4.77-9.06a13.84 13.84 0 0 1-2.4 7.14c-.38.38-.45.21-.55-.75s-1.51-8.06-2.2-11.42-1.24-5.11-1.24-5.11a17.77 17.77 0 0 0-1-2.92c-.58-1.1-.51-1.82-.14-2.09.93-.74 1.27-.05 2.29 1.46a25.65 25.65 0 0 1 2.06 4.22 13.12 13.12 0 0 0-2.4-6.66c-.58-.62-.72-1-.21-1.65a1 1 0 0 1 1.13-.38s2.88 2 4.08 7.27.74 6.81.5 10.69z" fill="#692f23"/></svg>