<svg id="Слой_1" xmlns="http://www.w3.org/2000/svg" viewBox="0 0 47 47"><style>.st0{fill:url(#SVGID_1_)}.st1{fill:url(#SVGID_2_)}.st2{fill:#fff}.st3{fill:#78909c}.st4{fill:url(#SVGID_3_)}.st5{fill:#cfd8dc}.st6{fill:url(#SVGID_4_)}.st7{fill:url(#SVGID_5_)}.st8{fill:#546e7a}.st9{fill:#90a4ae}.st10{fill:url(#SVGID_6_)}.st11{fill:url(#SVGID_7_)}.st12{fill:url(#SVGID_8_)}.st13{fill:url(#SVGID_9_)}.st14{fill:#eceff1}.st15{fill:url(#SVGID_10_)}.st16{fill:#b0bec5}.st17{fill:url(#SVGID_11_)}.st18{fill:url(#SVGID_12_)}.st19{fill:url(#SVGID_13_)}.st20{fill:url(#SVGID_14_)}.st21{fill:url(#SVGID_15_)}.st22{fill:url(#SVGID_16_)}.st23{fill:url(#SVGID_17_)}.st24{fill:url(#SVGID_18_)}.st25{fill:url(#SVGID_19_)}.st26{fill:#455a64}.st27{fill:url(#SVGID_20_)}.st28{fill:url(#SVGID_21_)}.st29{fill:url(#SVGID_22_)}.st30{fill:#37474f}.st31{fill:url(#SVGID_23_)}.st32{fill:url(#SVGID_24_)}.st33{fill:url(#SVGID_25_)}.st34{fill:url(#SVGID_26_)}.st35{fill:url(#SVGID_27_)}.st36{fill:url(#SVGID_28_)}.st37{fill:url(#SVGID_29_)}.st38{fill:url(#SVGID_30_)}.st39{fill:url(#SVGID_31_)}.st40{fill:url(#SVGID_32_)}.st41{fill:url(#SVGID_33_)}.st42{fill:url(#SVGID_34_)}.st43{fill:url(#SVGID_35_)}.st44,.st45{opacity:.2;fill:url(#SVGID_36_);enable-background:new}.st45{opacity:.4;fill:url(#SVGID_37_)}.st46{fill:url(#SVGID_38_)}.st47{fill:url(#SVGID_39_)}.st48{fill:url(#SVGID_40_)}.st49{fill:url(#SVGID_41_)}.st50{fill:url(#SVGID_42_)}.st51{fill:url(#SVGID_43_)}.st52{fill:url(#SVGID_44_)}.st53{fill:url(#SVGID_45_)}.st54{fill:url(#SVGID_46_)}.st55{fill:url(#SVGID_47_)}.st56{fill:url(#SVGID_48_)}.st57{fill:url(#SVGID_49_)}.st58{fill:url(#SVGID_50_)}.st59{fill:url(#SVGID_51_)}.st60{fill:url(#SVGID_52_)}.st61{fill:url(#SVGID_53_)}.st62{fill:none}</style><title>Лого</title><g id="Слой_2_1_"><g id="Слой_1-2"><linearGradient id="SVGID_1_" gradientUnits="userSpaceOnUse" x1="40.11" y1="28.885" x2="25.31" y2="43.685" gradientTransform="matrix(1 0 0 -1 0 50.971)"><stop offset="0" stop-color="#fff" stop-opacity=".04"/><stop offset="1" stop-color="#37474f" stop-opacity=".1"/></linearGradient><path class="st0" d="M22.4 10.1l12.5 1.8 8.1 7.3z"/><linearGradient id="SVGID_2_" gradientUnits="userSpaceOnUse" x1="30.685" y1="34.36" x2="20.715" y2="44.33" gradientTransform="matrix(1 0 0 -1 0 50.971)"><stop offset="0" stop-color="#fff" stop-opacity=".04"/><stop offset=".43" stop-color="#838d92" stop-opacity=".2"/><stop offset="1" stop-color="#37474f" stop-opacity=".3"/></linearGradient><path class="st1" d="M16.7 10.7l10.7-1.1 7.3 3"/><path class="st2" d="M8.6 19.9l11.7-8.4 17.6 6 2.6 7-5.7 7.6-7.3 4.4-5.5 2.7-4.3-.7-1-2.3-9.6-7.7 1.5-7.9z"/><path class="st3" d="M24.8 7l-1.7 12.4H21z"/><linearGradient id="SVGID_3_" gradientUnits="userSpaceOnUse" x1="26.102" y1="34.582" x2="20.752" y2="39.942" gradientTransform="matrix(1 0 0 -1 0 50.971)"><stop offset="0" stop-color="#fff" stop-opacity=".04"/><stop offset=".86" stop-color="#5b686f" stop-opacity=".25"/><stop offset="1" stop-color="#37474f" stop-opacity=".3"/></linearGradient><path class="st4" d="M24.8 7l-1.7 12.4H21z"/><path class="st5" d="M24.8 7l-3.6 1.7-1.8 5.9 1.6 4.8z"/><linearGradient id="SVGID_4_" gradientUnits="userSpaceOnUse" x1="25.03" y1="35.664" x2="19.816" y2="40.868" gradientTransform="matrix(1 0 0 -1 0 50.971)"><stop offset="0" stop-color="#fff" stop-opacity=".1"/><stop offset="1" stop-color="#37474f" stop-opacity=".3"/></linearGradient><path class="st6" d="M24.8 7l-3.6 1.7-1.8 5.9 1.6 4.8z"/><path class="st5" d="M23.1 19.4l3.3-1.2L24.8 7z"/><linearGradient id="SVGID_5_" gradientUnits="userSpaceOnUse" x1="23.11" y1="37.8" x2="26.36" y2="37.8" gradientTransform="matrix(1 0 0 -1 0 50.971)"><stop offset="0" stop-color="#fff" stop-opacity=".04"/><stop offset=".81" stop-color="#667278" stop-opacity=".24"/><stop offset="1" stop-color="#37474f" stop-opacity=".3"/></linearGradient><path class="st7" d="M23.1 19.4l3.3-1.2L24.8 7z"/><path class="st8" d="M24.8 7l9.1 2.5-3.3 1.4z"/><path class="st9" d="M24.8 7l6.9 11.7 1.7-4.4-2.8-3.4z"/><linearGradient id="SVGID_6_" gradientUnits="userSpaceOnUse" x1="24.81" y1="38.135" x2="33.45" y2="38.135" gradientTransform="matrix(1 0 0 -1 0 50.971)"><stop offset="0" stop-color="#fff" stop-opacity=".04"/><stop offset=".43" stop-color="#838d92" stop-opacity=".2"/><stop offset="1" stop-color="#37474f" stop-opacity=".3"/></linearGradient><path class="st10" d="M24.8 7l6.9 11.7 1.7-4.4-2.8-3.4z"/><path class="st8" d="M26.1 16.6l4.5.3 1.1 1.8-5.3-.5z"/><linearGradient id="SVGID_7_" gradientUnits="userSpaceOnUse" x1="28.905" y1="32.265" x2="28.905" y2="34.425" gradientTransform="matrix(1 0 0 -1 0 50.971)"><stop offset="0" stop-color="#fff" stop-opacity=".04"/><stop offset=".43" stop-color="#838d92" stop-opacity=".2"/><stop offset="1" stop-color="#37474f" stop-opacity=".3"/></linearGradient><path class="st11" d="M26.1 16.6l4.5.3 1.1 1.8-5.3-.5z"/><path class="st3" d="M26.1 16.6l4.5.3L24.8 7z"/><linearGradient id="SVGID_8_" gradientUnits="userSpaceOnUse" x1="24.81" y1="39.02" x2="30.64" y2="39.02" gradientTransform="matrix(1 0 0 -1 0 50.971)"><stop offset="0" stop-color="#fff" stop-opacity=".04"/><stop offset=".43" stop-color="#838d92" stop-opacity=".2"/><stop offset="1" stop-color="#37474f" stop-opacity=".3"/></linearGradient><path class="st12" d="M26.1 16.6l4.5.3L24.8 7z"/><path class="st3" d="M26.1 16.6l-3 2.8 3.3-1.2z"/><linearGradient id="SVGID_9_" gradientUnits="userSpaceOnUse" x1="25.6" y1="32.025" x2="24.57" y2="33.055" gradientTransform="matrix(1 0 0 -1 0 50.971)"><stop offset="0" stop-color="#fff" stop-opacity=".04"/><stop offset=".81" stop-color="#667278" stop-opacity=".24"/><stop offset="1" stop-color="#37474f" stop-opacity=".3"/></linearGradient><path class="st13" d="M26.1 16.6l-3 2.8 3.3-1.2z"/><path class="st14" d="M24.8 7L12.5 9.7l1.7.8 7-1.8z"/><linearGradient id="SVGID_10_" gradientUnits="userSpaceOnUse" x1="12.49" y1="42.235" x2="24.81" y2="42.235" gradientTransform="matrix(1 0 0 -1 0 50.971)"><stop offset="0" stop-color="#fff" stop-opacity=".04"/><stop offset=".02" stop-color="#fcfcfc" stop-opacity=".08"/><stop offset=".03" stop-color="#fbfbfb" stop-opacity=".1"/><stop offset="1" stop-color="#37474f" stop-opacity=".3"/></linearGradient><path class="st15" d="M24.8 7L12.5 9.7l1.7.8 7-1.8z"/><path class="st5" d="M14.2 10.5l-1.4 9.2-3.2 2.6L4.7 21l7.8-11.3z"/><path class="st16" d="M14.3 10.5L9.7 22.3l3.2-2.6z"/><path class="st14" d="M12.5 9.7l-6.7 4.9L4.6 21z"/><linearGradient id="SVGID_11_" gradientUnits="userSpaceOnUse" x1="9.432" y1="34.758" x2="6.812" y2="37.378" gradientTransform="matrix(1 0 0 -1 0 50.971)"><stop offset="0" stop-color="#fff" stop-opacity=".1"/><stop offset="1" stop-color="#37474f" stop-opacity=".3"/></linearGradient><path class="st17" d="M12.5 9.7l-6.7 4.9L4.6 21z"/><path class="st3" d="M21.2 8.7c-.1.1-5.5 10-5.5 10h3l.7-4.1 1.8-5.9z"/><linearGradient id="SVGID_12_" gradientUnits="userSpaceOnUse" x1="15.73" y1="37.235" x2="21.19" y2="37.235" gradientTransform="matrix(1 0 0 -1 0 50.971)"><stop offset="0" stop-color="#fff" stop-opacity=".04"/><stop offset=".86" stop-color="#5b686f" stop-opacity=".25"/><stop offset="1" stop-color="#37474f" stop-opacity=".3"/></linearGradient><path class="st18" d="M21.2 8.7c-.1.1-5.5 10-5.5 10h3l.7-4.1 1.8-5.9z"/><path class="st16" d="M21.2 8.7l-8.3 11 2.8-1z"/><path class="st9" d="M14.2 10.5l-1.3 9.2 8.3-11z"/><linearGradient id="SVGID_13_" gradientUnits="userSpaceOnUse" x1="17.72" y1="36.105" x2="13.81" y2="40.015" gradientTransform="matrix(1 0 0 -1 0 50.971)"><stop offset="0" stop-color="#fff" stop-opacity=".04"/><stop offset="1" stop-color="#37474f" stop-opacity=".2"/></linearGradient><path class="st19" d="M14.2 10.5l-1.3 9.2 8.3-11z"/><path class="st16" d="M24.7 7l-7.1.3-5.1 2.4zM4.6 21l.7 8.2 2.5-1.9 1.8-5z"/><linearGradient id="SVGID_14_" gradientUnits="userSpaceOnUse" x1="8.398" y1="24.274" x2="3.669" y2="28.993" gradientTransform="matrix(1 0 0 -1 0 50.971)"><stop offset="0" stop-color="#fff" stop-opacity=".1"/><stop offset="1" stop-color="#37474f" stop-opacity=".3"/></linearGradient><path class="st20" d="M4.6 21l.7 8.2 2.5-1.9 1.8-5z"/><path class="st5" d="M7.8 27.3l7.6 9.4-10.1-7.5z"/><linearGradient id="SVGID_15_" gradientUnits="userSpaceOnUse" x1="5.32" y1="19.005" x2="15.36" y2="19.005" gradientTransform="matrix(1 0 0 -1 0 50.971)"><stop offset="0" stop-color="#fff" stop-opacity=".2"/><stop offset=".41" stop-color="#bfc4c6" stop-opacity=".23"/><stop offset="1" stop-color="#37474f" stop-opacity=".3"/></linearGradient><path class="st21" d="M7.8 27.3l7.6 9.4-10.1-7.5z"/><path class="st5" d="M4.6 21l-.9 4.4 1.6 3.8z"/><linearGradient id="SVGID_16_" gradientUnits="userSpaceOnUse" x1="3.69" y1="25.875" x2="5.31" y2="25.875" gradientTransform="matrix(1 0 0 -1 0 50.971)"><stop offset="0" stop-color="#fff" stop-opacity=".2"/><stop offset=".41" stop-color="#bfc4c6" stop-opacity=".23"/><stop offset="1" stop-color="#37474f" stop-opacity=".3"/></linearGradient><path class="st22" d="M4.6 21l-.9 4.4 1.6 3.8z"/><path class="st9" d="M8.4 25.7l2.1 1.2 2.3 3.7-1.7.8-3.3-4.1z"/><linearGradient id="SVGID_17_" gradientUnits="userSpaceOnUse" x1="7.83" y1="22.435" x2="12.85" y2="22.435" gradientTransform="matrix(1 0 0 -1 0 50.971)"><stop offset="0" stop-color="#fff" stop-opacity=".1"/><stop offset="1" stop-color="#37474f" stop-opacity=".3"/></linearGradient><path class="st23" d="M8.4 25.7l2.1 1.2 2.3 3.7-1.7.8-3.3-4.1z"/><path class="st3" d="M12.8 30.6l2.6 6.1-4.3-5.3zM7.8 27.3l2.7-.4-2.1-1.3zM9.6 22.3l3.3-2.6-2.8 4.2-1-.3z"/><linearGradient id="SVGID_18_" gradientUnits="userSpaceOnUse" x1="13.105" y1="31.12" x2="9.265" y2="27.28" gradientTransform="matrix(1 0 0 -1 0 50.971)"><stop offset="0" stop-color="#fff" stop-opacity=".1"/><stop offset="1" stop-color="#37474f" stop-opacity=".3"/></linearGradient><path class="st24" d="M9.6 22.3l3.3-2.6-2.8 4.2-1-.3z"/><path class="st9" d="M33.9 9.5l4 7.1-.2 6.4-2-.5z"/><linearGradient id="SVGID_19_" gradientUnits="userSpaceOnUse" x1="33.89" y1="34.705" x2="37.95" y2="34.705" gradientTransform="matrix(1 0 0 -1 0 50.971)"><stop offset="0" stop-color="#fff" stop-opacity=".04"/><stop offset=".43" stop-color="#838d92" stop-opacity=".2"/><stop offset="1" stop-color="#37474f" stop-opacity=".3"/></linearGradient><path class="st25" d="M33.9 9.5l4 7.1-.2 6.4-2-.5z"/><path class="st26" d="M33.9 9.5l.9 6.4-1.4-1.6-2.8-3.4z"/><linearGradient id="SVGID_20_" gradientUnits="userSpaceOnUse" x1="30.64" y1="38.245" x2="34.85" y2="38.245" gradientTransform="matrix(1 0 0 -1 0 50.971)"><stop offset="0" stop-color="#fff" stop-opacity=".04"/><stop offset=".43" stop-color="#838d92" stop-opacity=".2"/><stop offset="1" stop-color="#37474f" stop-opacity=".3"/></linearGradient><path class="st27" d="M33.9 9.5l.9 6.4-1.4-1.6-2.8-3.4z"/><path class="st8" d="M33.4 14.3l1.4 1.6.9 6.6-4-3.8z"/><linearGradient id="SVGID_21_" gradientUnits="userSpaceOnUse" x1="33.675" y1="28.425" x2="33.675" y2="36.695" gradientTransform="matrix(1 0 0 -1 0 50.971)"><stop offset="0" stop-color="#fff" stop-opacity=".04"/><stop offset=".43" stop-color="#838d92" stop-opacity=".2"/><stop offset="1" stop-color="#37474f" stop-opacity=".3"/></linearGradient><path class="st28" d="M33.4 14.3l1.4 1.6.9 6.6-4-3.8z"/><path class="st26" d="M33.9 9.5l8.5 8.8-4.5-1.7z"/><path class="st8" d="M37.9 17.5l4 11 1.4-4.9-.9-5.3z"/><linearGradient id="SVGID_22_" gradientUnits="userSpaceOnUse" x1="37.88" y1="27.98" x2="43.32" y2="27.98" gradientTransform="matrix(1 0 0 -1 0 50.971)"><stop offset="0" stop-color="#fff" stop-opacity=".04"/><stop offset=".43" stop-color="#838d92" stop-opacity=".2"/><stop offset="1" stop-color="#37474f" stop-opacity=".3"/></linearGradient><path class="st29" d="M37.9 17.5l4 11 1.4-4.9-.9-5.3z"/><path class="st30" d="M37.9 16.6l4.5 1.7-4.5-.8z"/><path class="st3" d="M37.9 17.5l4 11-2.3 3.5-.8-6.4z"/><linearGradient id="SVGID_23_" gradientUnits="userSpaceOnUse" x1="37.88" y1="26.26" x2="41.94" y2="26.26" gradientTransform="matrix(1 0 0 -1 0 50.971)"><stop offset="0" stop-color="#fff" stop-opacity=".04"/><stop offset=".43" stop-color="#838d92" stop-opacity=".2"/><stop offset="1" stop-color="#37474f" stop-opacity=".3"/></linearGradient><path class="st31" d="M37.9 17.5l4 11-2.3 3.5-.8-6.4z"/><path class="st8" d="M31.6 35.8l7.5-8.5.5 4.6z"/><linearGradient id="SVGID_24_" gradientUnits="userSpaceOnUse" x1="37.64" y1="17.105" x2="35.09" y2="19.655" gradientTransform="matrix(1 0 0 -1 0 50.971)"><stop offset="0" stop-color="#fff" stop-opacity=".04"/><stop offset=".43" stop-color="#838d92" stop-opacity=".2"/><stop offset="1" stop-color="#37474f" stop-opacity=".3"/></linearGradient><path class="st32" d="M31.6 35.8l7.5-8.5.5 4.6z"/><path class="st8" d="M36.1 23.4l1.6-.4-2-.5zM15.4 36.7l4.3-1.2-6.9-4.9z"/><linearGradient id="SVGID_25_" gradientUnits="userSpaceOnUse" x1="18.347" y1="14.06" x2="12.436" y2="19.961" gradientTransform="matrix(1 0 0 -1 0 50.971)"><stop offset="0" stop-color="#fff" stop-opacity=".1"/><stop offset="1" stop-color="#37474f" stop-opacity=".3"/></linearGradient><path class="st33" d="M15.4 36.7l4.3-1.2-6.9-4.9z"/><path class="st8" d="M37.7 22.8v.2l1.1 1.8-.9-7.3z"/><path class="st9" d="M37.7 23v2.4l1.4 1.9-.3-2.5z"/><path class="st16" d="M37.7 25.4L36 27l1.2 2.5 1.9-2.2z"/><linearGradient id="SVGID_26_" gradientUnits="userSpaceOnUse" x1="35.96" y1="23.51" x2="39.06" y2="23.51" gradientTransform="matrix(1 0 0 -1 0 50.971)"><stop offset="0" stop-color="#fff" stop-opacity=".04"/><stop offset=".43" stop-color="#838d92" stop-opacity=".2"/><stop offset="1" stop-color="#37474f" stop-opacity=".3"/></linearGradient><path class="st34" d="M37.7 25.4L36 27l1.2 2.5 1.9-2.2z"/><path class="st3" d="M36 27l-4.4 8.8 5.6-6.3z"/><linearGradient id="SVGID_27_" gradientUnits="userSpaceOnUse" x1="31.6" y1="19.6" x2="37.22" y2="19.6" gradientTransform="matrix(1 0 0 -1 0 50.971)"><stop offset="0" stop-color="#fff" stop-opacity=".04"/><stop offset=".43" stop-color="#838d92" stop-opacity=".2"/><stop offset="1" stop-color="#37474f" stop-opacity=".3"/></linearGradient><path class="st35" d="M36 27l-4.4 8.8 5.6-6.3z"/><path class="st8" d="M28.6 34.7l3 1.1 3-6.1z"/><linearGradient id="SVGID_28_" gradientUnits="userSpaceOnUse" x1="28.58" y1="18.235" x2="34.63" y2="18.235" gradientTransform="matrix(1 0 0 -1 0 50.971)"><stop offset="0" stop-color="#fff" stop-opacity=".04"/><stop offset=".43" stop-color="#838d92" stop-opacity=".2"/><stop offset="1" stop-color="#37474f" stop-opacity=".3"/></linearGradient><path class="st36" d="M28.6 34.7l3 1.1 3-6.1z"/><path class="st3" d="M19.7 35.5l-2.1 2-2.2-.8z"/><linearGradient id="SVGID_29_" gradientUnits="userSpaceOnUse" x1="15.36" y1="14.43" x2="19.71" y2="14.43" gradientTransform="matrix(1 0 0 -1 0 50.971)"><stop offset="0" stop-color="#fff" stop-opacity=".2"/><stop offset=".41" stop-color="#bfc4c6" stop-opacity=".23"/><stop offset="1" stop-color="#37474f" stop-opacity=".3"/></linearGradient><path class="st37" d="M19.7 35.5l-2.1 2-2.2-.8z"/><path class="st26" d="M31.6 35.8l-4.1.7 1.1-1.8z"/><linearGradient id="SVGID_30_" gradientUnits="userSpaceOnUse" x1="27.47" y1="15.35" x2="31.6" y2="15.35" gradientTransform="matrix(1 0 0 -1 0 50.971)"><stop offset="0" stop-color="#fff" stop-opacity=".04"/><stop offset=".43" stop-color="#838d92" stop-opacity=".2"/><stop offset="1" stop-color="#37474f" stop-opacity=".3"/></linearGradient><path class="st38" d="M31.6 35.8l-4.1.7 1.1-1.8z"/><path class="st14" d="M17.7 37.4c.1.1 1.5 2.5 1.5 2.5l-3.8-.7 2.3-1.8z"/><linearGradient id="SVGID_31_" gradientUnits="userSpaceOnUse" x1="18.635" y1="10.58" x2="16.385" y2="12.83" gradientTransform="matrix(1 0 0 -1 0 50.971)"><stop offset="0" stop-color="#fff" stop-opacity=".2"/><stop offset=".41" stop-color="#bfc4c6" stop-opacity=".23"/><stop offset="1" stop-color="#37474f" stop-opacity=".3"/></linearGradient><path class="st39" d="M17.7 37.4c.1.1 1.5 2.5 1.5 2.5l-3.8-.7 2.3-1.8z"/><path class="st5" d="M17.6 37.5l3.5.5-2 1.9z"/><linearGradient id="SVGID_32_" gradientUnits="userSpaceOnUse" x1="20.135" y1="12.01" x2="18.145" y2="14" gradientTransform="matrix(1 0 0 -1 0 50.971)"><stop offset="0" stop-color="#fff" stop-opacity=".2"/><stop offset=".41" stop-color="#bfc4c6" stop-opacity=".23"/><stop offset="1" stop-color="#37474f" stop-opacity=".3"/></linearGradient><path class="st40" d="M17.6 37.5l3.5.5-2 1.9z"/><path class="st16" d="M19 39.9h3.8L21 38z"/><linearGradient id="SVGID_33_" gradientUnits="userSpaceOnUse" x1="21.907" y1="10.163" x2="20.027" y2="12.043" gradientTransform="matrix(1 0 0 -1 0 50.971)"><stop offset="0" stop-color="#fff" stop-opacity=".2"/><stop offset=".41" stop-color="#bfc4c6" stop-opacity=".23"/><stop offset="1" stop-color="#37474f" stop-opacity=".3"/></linearGradient><path class="st41" d="M19 39.9h3.8L21 38z"/><path class="st9" d="M21 38l3-.2-1.2 2.1z"/><linearGradient id="SVGID_34_" gradientUnits="userSpaceOnUse" x1="23.638" y1="11.893" x2="21.788" y2="13.733" gradientTransform="matrix(1 0 0 -1 0 50.971)"><stop offset="0" stop-color="#fff" stop-opacity=".2"/><stop offset=".41" stop-color="#bfc4c6" stop-opacity=".23"/><stop offset="1" stop-color="#37474f" stop-opacity=".3"/></linearGradient><path class="st42" d="M21 38l3-.2-1.2 2.1z"/><path class="st3" d="M27.5 36.5l-3.7 1.3-1 2.1z"/><linearGradient id="SVGID_35_" gradientUnits="userSpaceOnUse" x1="25.459" y1="12.454" x2="24.269" y2="13.634" gradientTransform="matrix(1 0 0 -1 0 50.971)"><stop offset="0" stop-color="#fff" stop-opacity=".2"/><stop offset=".41" stop-color="#bfc4c6" stop-opacity=".23"/><stop offset="1" stop-color="#37474f" stop-opacity=".3"/></linearGradient><path class="st43" d="M27.5 36.5l-3.7 1.3-1 2.1z"/><path class="st16" d="M21.5 27.9l.5-.3.8.6z"/><path class="st3" d="M24.2 27.8l-1.4.4.9.2zM23.3 29v.9l-.5.2z"/><path class="st9" d="M18.5 31.3l3.2-.7.1-.5zM21.8 30.1l.9.3-.3.4z"/><path class="st3" d="M21.6 30.6l.8.2-.6-.7z"/><path class="st8" d="M22.4 30.8l1.1-.2-.2-.4-.6.2z"/><path class="st26" d="M23.3 30.2l4.2.7-4-.3z"/><path class="st3" d="M21.5 31.9h2.9l-1.1.9z"/><linearGradient id="SVGID_36_" gradientUnits="userSpaceOnUse" x1="40.495" y1="33.515" x2="40.495" y2="28.575" gradientTransform="matrix(1 0 0 -1 0 50.971)"><stop offset="0" stop-color="#37474f" stop-opacity=".5"/><stop offset=".76" stop-color="#37474f" stop-opacity=".36"/><stop offset="1" stop-color="#37474f" stop-opacity=".3"/></linearGradient><path class="st44" d="M37.9 17.5l5.2 4.9-.7-4.1z"/><linearGradient id="SVGID_37_" gradientUnits="userSpaceOnUse" x1="36.29" y1="35.065" x2="36.29" y2="27.985" gradientTransform="matrix(1 0 0 -1 0 50.971)"><stop offset="0" stop-color="#37474f" stop-opacity=".3"/><stop offset="1" stop-color="#37474f" stop-opacity=".2"/></linearGradient><path class="st45" d="M34.8 15.9l2.9 5.6V23l-2-.5z"/><linearGradient id="SVGID_38_" gradientUnits="userSpaceOnUse" x1="40.095" y1="33.515" x2="40.095" y2="26.525" gradientTransform="matrix(1 0 0 -1 0 50.971)"><stop offset="0" stop-color="#fff" stop-opacity=".3"/><stop offset=".05" stop-color="#fff" stop-opacity=".23"/><stop offset=".13" stop-color="#fff" stop-opacity=".15"/><stop offset=".23" stop-color="#fff" stop-opacity=".08"/><stop offset=".35" stop-color="#fff" stop-opacity=".03"/><stop offset=".53" stop-color="#fff" stop-opacity=".01"/><stop offset="1" stop-color="#fff" stop-opacity="0"/></linearGradient><path class="st46" d="M37.9 17.5l4.4 4.2-1.8 2.7z"/><linearGradient id="SVGID_39_" gradientUnits="userSpaceOnUse" x1="22.855" y1="44.005" x2="22.855" y2="31.595" gradientTransform="matrix(1 0 0 -1 0 50.971)"><stop offset="0" stop-color="#fff" stop-opacity=".1"/><stop offset=".11" stop-color="#fff" stop-opacity=".09"/><stop offset="1" stop-color="#fff" stop-opacity="0"/></linearGradient><path class="st47" d="M24.7 7l-3.4 1.7-.3 10.7z"/><linearGradient id="SVGID_40_" gradientUnits="userSpaceOnUse" x1="23.702" y1="34.328" x2="18.527" y2="39.503" gradientTransform="matrix(1 0 0 -1 0 50.971)"><stop offset="0" stop-color="#fff" stop-opacity=".04"/><stop offset=".86" stop-color="#5b686f" stop-opacity=".25"/><stop offset="1" stop-color="#37474f" stop-opacity=".3"/></linearGradient><path class="st48" d="M21.3 8.7L21 19.4l-1.6-4.8z"/><linearGradient id="SVGID_41_" gradientUnits="userSpaceOnUse" x1="33.302" y1="21.187" x2="26.522" y2="27.967" gradientTransform="matrix(1 0 0 -1 0 50.971)"><stop offset="0" stop-color="#fff" stop-opacity=".04"/><stop offset="1" stop-color="#90a4ae" stop-opacity=".1"/></linearGradient><path class="st49" d="M25.2 24.6s-1.2 2.8 1.5 3.8 4.6 1.3 4.3 3.8l3.8-5.2s-.2-2.9-2.4-2.7c-1.3-.7-2.7-1.3-4.1-1.6-1.6-.4-2.9 1.4-3.1 1.9z"/><circle class="st8" cx="28.4" cy="23.8" r="1.3"/><path class="st3" d="M26.7 22l-1.5 2.6 1.4-1.5z"/><linearGradient id="SVGID_42_" gradientUnits="userSpaceOnUse" x1="25.19" y1="27.66" x2="26.66" y2="27.66" gradientTransform="matrix(1 0 0 -1 0 50.971)"><stop offset="0" stop-color="#fff" stop-opacity=".2"/><stop offset=".41" stop-color="#bfc4c6" stop-opacity=".23"/><stop offset="1" stop-color="#37474f" stop-opacity=".3"/></linearGradient><path class="st50" d="M26.7 22l-1.5 2.6 1.4-1.5z"/><path class="st9" d="M26.6 23.1l2.3-1.1.7-.3-2.9.3z"/><linearGradient id="SVGID_43_" gradientUnits="userSpaceOnUse" x1="28.489" y1="28.184" x2="27.189" y2="29.474" gradientTransform="matrix(1 0 0 -1 0 50.971)"><stop offset="0" stop-color="#fff" stop-opacity=".2"/><stop offset=".41" stop-color="#bfc4c6" stop-opacity=".23"/><stop offset="1" stop-color="#37474f" stop-opacity=".3"/></linearGradient><path class="st51" d="M26.6 23.1l2.3-1.1.7-.3-2.9.3z"/><path class="st5" d="M28 22.4l1.6-.7 2.2 1.1-1.6.6"/><linearGradient id="SVGID_44_" gradientUnits="userSpaceOnUse" x1="30.988" y1="27.277" x2="28.848" y2="29.427" gradientTransform="matrix(1 0 0 -1 0 50.971)"><stop offset="0" stop-color="#fff" stop-opacity=".2"/><stop offset=".41" stop-color="#bfc4c6" stop-opacity=".23"/><stop offset="1" stop-color="#37474f" stop-opacity=".3"/></linearGradient><path class="st52" d="M28 22.4l1.6-.7 2.2 1.1-1.6.6"/><path class="st3" d="M30.2 23.4l-3.6-.3 1.4-.7z"/><linearGradient id="SVGID_45_" gradientUnits="userSpaceOnUse" x1="29.37" y1="26.705" x2="27.41" y2="28.665" gradientTransform="matrix(1 0 0 -1 0 50.971)"><stop offset="0" stop-color="#fff" stop-opacity=".2"/><stop offset=".41" stop-color="#bfc4c6" stop-opacity=".23"/><stop offset="1" stop-color="#37474f" stop-opacity=".3"/></linearGradient><path class="st53" d="M30.2 23.4l-3.6-.3 1.4-.7z"/><path class="st16" d="M31.8 22.8l.6 1.4-2.2-.8z"/><linearGradient id="SVGID_46_" gradientUnits="userSpaceOnUse" x1="32.237" y1="26.613" x2="30.757" y2="28.093" gradientTransform="matrix(1 0 0 -1 0 50.971)"><stop offset="0" stop-color="#fff" stop-opacity=".2"/><stop offset=".41" stop-color="#bfc4c6" stop-opacity=".23"/><stop offset="1" stop-color="#37474f" stop-opacity=".3"/></linearGradient><path class="st54" d="M31.8 22.8l.6 1.4-2.2-.8z"/><circle class="st2" cx="28.7" cy="23.7" r=".3"/><circle class="st8" cx="17.7" cy="23.5" r="1.3"/><linearGradient id="SVGID_47_" gradientUnits="userSpaceOnUse" x1="18.6" y1="28.345" x2="16.77" y2="26.515" gradientTransform="matrix(1 0 0 -1 0 50.971)"><stop offset="0" stop-color="#fff" stop-opacity="0"/><stop offset="1" stop-opacity=".5"/></linearGradient><circle class="st55" cx="17.7" cy="23.5" r="1.3"/><linearGradient id="SVGID_48_" gradientUnits="userSpaceOnUse" x1="29.3" y1="28.115" x2="27.48" y2="26.295" gradientTransform="matrix(1 0 0 -1 0 50.971)"><stop offset="0" stop-color="#fff" stop-opacity="0"/><stop offset="1" stop-opacity=".5"/></linearGradient><circle class="st56" cx="28.4" cy="23.8" r="1.3"/><circle class="st2" cx="18" cy="23.5" r=".3"/><path class="st3" d="M19.9 21.9l.4 2.4-1.4-1.5z"/><linearGradient id="SVGID_49_" gradientUnits="userSpaceOnUse" x1="20.797" y1="27.163" x2="19.367" y2="28.593" gradientTransform="matrix(1 0 0 -1 0 50.971)"><stop offset="0" stop-color="#fff" stop-opacity=".2"/><stop offset=".41" stop-color="#bfc4c6" stop-opacity=".23"/><stop offset="1" stop-color="#37474f" stop-opacity=".3"/></linearGradient><path class="st57" d="M19.9 21.9l.4 2.4-1.4-1.5z"/><path class="st9" d="M18.9 22.8l-2.3-1.1-.7-.3 4 .5z"/><linearGradient id="SVGID_50_" gradientUnits="userSpaceOnUse" x1="15.87" y1="28.865" x2="19.86" y2="28.865" gradientTransform="matrix(1 0 0 -1 0 50.971)"><stop offset="0" stop-color="#fff" stop-opacity=".2"/><stop offset=".41" stop-color="#bfc4c6" stop-opacity=".23"/><stop offset="1" stop-color="#37474f" stop-opacity=".3"/></linearGradient><path class="st58" d="M18.9 22.8l-2.3-1.1-.7-.3 4 .5z"/><path class="st5" d="M17.1 21.9l-1.2-.5-2.2 1.1.8 1.1"/><linearGradient id="SVGID_51_" gradientUnits="userSpaceOnUse" x1="15.99" y1="28.015" x2="14.62" y2="29.385" gradientTransform="matrix(1 0 0 -1 0 50.971)"><stop offset="0" stop-color="#fff" stop-opacity=".2"/><stop offset=".41" stop-color="#bfc4c6" stop-opacity=".23"/><stop offset="1" stop-color="#37474f" stop-opacity=".3"/></linearGradient><path class="st59" d="M17.1 21.9l-1.2-.5-2.2 1.1.8 1.1"/><path class="st3" d="M14.5 23.6l4.4-.8-1.8-.9z"/><linearGradient id="SVGID_52_" gradientUnits="userSpaceOnUse" x1="17.61" y1="26.835" x2="15.76" y2="28.685" gradientTransform="matrix(1 0 0 -1 0 50.971)"><stop offset="0" stop-color="#fff" stop-opacity=".2"/><stop offset=".41" stop-color="#bfc4c6" stop-opacity=".23"/><stop offset="1" stop-color="#37474f" stop-opacity=".3"/></linearGradient><path class="st60" d="M14.5 23.6l4.4-.8-1.8-.9z"/><path class="st16" d="M13.7 22.5l-.6 1.4 1.4-.3z"/><linearGradient id="SVGID_53_" gradientUnits="userSpaceOnUse" x1="14.1" y1="27.025" x2="13.18" y2="27.945" gradientTransform="matrix(1 0 0 -1 0 50.971)"><stop offset="0" stop-color="#fff" stop-opacity=".2"/><stop offset=".41" stop-color="#bfc4c6" stop-opacity=".23"/><stop offset="1" stop-color="#37474f" stop-opacity=".3"/></linearGradient><path class="st61" d="M13.7 22.5l-.6 1.4 1.4-.3z"/></g></g><path class="st62" d="M0 0h47v47H0z"/></svg>