<svg xmlns="http://www.w3.org/2000/svg" width="142.69" height="211.48" viewBox="0 0 142.69 211.48"><title>Домовенок с сейфом</title><path d="M88.76 145.23a20.5 20.5 0 0 0-2.12 3.15c-.1.57 24.72.67 26.06.72s22-.15 22-.15 5.21.36 5.73 0-1-3.41-1.19-3.66-3.1-3.1-5.21-3.61-26.47.31-26.47.31-18.13 2.26-18.8 3.24z" fill="#e2ddd3"/><path d="M91.19 148.5s-3.56-.15-4.33.46-1 8.82-1 11.35-.46 30-.26 31.17-.52 8.1.1 10a4.17 4.17 0 0 0 2.27 2.48l-.46 2.79c.15 1.19 1.34 2.58 2.48 2.27a2.91 2.91 0 0 0 1.65-1.65c.46-1.86.21-2.37 1.14-2.43s42.27-.36 42.27-.36-.26 2.22.36 2.94 2.89 1.14 3.61.57a3 3 0 0 0 .62-2.79c-.21-.83 2.32-4.75 2.32-4.75.1-3-.15-50-.15-50a4.52 4.52 0 0 0-2.12-1.81 42.21 42.21 0 0 0-5.42.1l-24.15.21a5.43 5.43 0 0 1-.72 2.22c-.46.36-5.16-1.55-5.52-1.7s-5.47-1.08-5.47-1.08l-1.7.1s1 2.74.88 3.46-.57 1.34-1.08 1.24a8.42 8.42 0 0 1-2.43-2.17c0-.27-1.24-2.49-2.89-2.62z" fill="#c7c0b1"/><path d="M106.57 159.11s-2.32-.57-2.53 1.29a64.21 64.21 0 0 0 .46 7.9c.31.77 8.21.62 8.21.62.93 0 8.62-.21 8.62-.21a2.7 2.7 0 0 0 1.29-1.55c.1-.88.05-7.07-.46-7.53s-4.54-.77-4.54-.77zM116.78 176.86l6.4-3.66s4.13-3.25 5.16-2.22-.72 2.94-.72 2.94c-.46.83-7.79 5.88-7.79 5.88a1.56 1.56 0 0 0-.62 1c0 .52 1.55 4.9-.26 7a7.25 7.25 0 0 1-3.77 2.58 1.42 1.42 0 0 0-1.19 1.65 38.52 38.52 0 0 1-.21 6.45 8.92 8.92 0 0 1-1.14 2.63c-1.29.05-1.75-.83-1.86-2.53s-.36-7.79-.36-7.79a8.38 8.38 0 0 1-3-.77c-.93-.62-3.35-3.1-3.51-4.8a13.58 13.58 0 0 1 .62-4.18l-2.89-2.84-3.82-4.18s-1.29-1.14-.83-2.27.77-.83 1.44-.72 7.9 6.5 7.9 6.5a7.2 7.2 0 0 1 2.84-1.91 8.59 8.59 0 0 1 7.61 1.24z" fill="#e2ddd3"/><path d="M88.19 139.6c-.14.22-.52 1.24.77 4s4.18 4.44 4.54 5.83 1.5 3.56 2.48 3.72 1.75 0 1.5-1.44-1.7-5.63-1.7-5.63l5.32 2.48c.21.1 7.28 3.1 7.84 3s.72-1.24.72-1.24l1-3.15a57.63 57.63 0 0 0-3.72-5 19.8 19.8 0 0 0-4.08-2.43c-1.08-.41-5.93-1-6.76-1.44a3.83 3.83 0 0 0-2.17-.21s-5.07.48-5.74 1.51z" fill="#f9e5cc"/><path d="M52.86.58c-1.86.14-6.61 1.65-8.08 1.55A20.25 20.25 0 0 0 40 2.3c-1.48.28-8 4.13-10.39 5.2s-5 3.41-6.33 3.89-6.12 4.47-7.26 5.64a83 83 0 0 0-4.09 7.4c-1 2.31-2.51 6.57-2.61 9.84s.17 10.42.17 10.42a21.57 21.57 0 0 0 3.3 7.88c2.48 3.85 3.34 6.3 6.33 8.39s8.46 3.3 10 4.2 8.22 5.61 10 6 2.2-.14 2.37-1.69-1.31-2.79.21-3.27 10.87.28 13.35.48 10.22-1.69 10.39-1.86-.69 1.89-.48 3.17-.31 2.44 2.48 2.34 9.15-2 11.35-3.58 8.33-5.13 10.15-7.12 4.37-7.78 5.09-8.91 4.13-7.47 3.89-9.63-1.51-10.29-2.75-12.18-5.5-11.42-9-14.69S77.91 7.3 74.75 6a32.49 32.49 0 0 1-6.5-3.68c-.79-.58-6.47-1.07-8.26-1.14a16 16 0 0 1-3.65-.34 13.89 13.89 0 0 0-3.41-.17c-.62-.06-.07-.09-.07-.09z" fill="#e09c51"/><path d="M53.45 18.16s.48 5.3-.89 6.26-5 .62-6.47.62 3.65.14 3.65.14-7.64 0-8.05.21-7.16 1.65-8.39 1.86-4.33.07-6.47 1.24-3.37 1.93-3.85 5.57 0 5-.83 5.64-2.06.21-2.61 1.24-1.86 2.75-.14 4.47 3.23 2.61 4.13 3.65 4.47 7.29 6 9.22 7.5 6.12 12.94 7.5 16.65.55 17.2.34 6.88-1.24 10.8-3.65S80.03 54.08 81 52.7l2.27-5.71s3-2.2 3.58-3.44.83-3.78-.07-4.61-3.65-.55-3.65-.55-1.65-5.16-1.79-5.44-4.89-8.39-5-8.67-3.23.89-6.26.48a78.75 78.75 0 0 0-10.46-.14c-.48.07-1.93.62-2.13.55a11 11 0 0 1-1.1-2.75c.01-.27-1.43-4.54-2.94-4.26z" fill="#fbe0cb"/><path d="M45.81 52.29a67.74 67.74 0 0 1 8.08-.86 47.56 47.56 0 0 1 6.16.83c1.2.38 2.17.69.41 1.34s-3 1.31-5.13 1.27-2.72 1-4.54.17-4.13-1.34-4.4-1.65a5 5 0 0 1-.58-1.1z" fill="#e6c2b0"/><path d="M60.38 38.71c.26.42 1.63.39 2.37.44s2.45.54 3.46.65a3.89 3.89 0 0 0 2.63-.15c1.11-.52 1.68-.15 1.68-1s-.34-1.08-1.08-1.6a6.2 6.2 0 0 0-1.73-.77c-.88-.36 0-.49-1.57-.59a10.77 10.77 0 0 0-3.33.18 5.59 5.59 0 0 0-1.7.77c-.22.19-.94 1.74-.73 2.07z" fill="#fff" opacity=".9"/><path d="M63.42 36.29a1.42 1.42 0 0 0-.26 1.34 2.5 2.5 0 0 0 1.68 1.65 2.1 2.1 0 0 0 2.14-.52c.72-.77 1.08-.54 1-1.42s.39-.77-.57-1.21a5.73 5.73 0 0 0-2.71-.28 4.43 4.43 0 0 0-1.28.44z" fill="#add1ee" opacity=".9"/><path d="M43.69 38.58c-.26.42-1.63.39-2.37.44s-2.45.54-3.46.65a3.89 3.89 0 0 1-2.63-.15c-1.11-.52-1.68-.15-1.68-1s.34-1.08 1.08-1.6a6.2 6.2 0 0 1 1.73-.77c.88-.36 0-.49 1.57-.59a10.77 10.77 0 0 1 3.33.18 5.59 5.59 0 0 1 1.7.77c.25.19.97 1.74.73 2.07z" fill="#fff" opacity=".9"/><path d="M40.6 36.31a1.42 1.42 0 0 1 .26 1.34 2.5 2.5 0 0 1-1.68 1.65 2.1 2.1 0 0 1-2.14-.52c-.72-.77-1.08-.54-1-1.42s-.39-.77.57-1.21a5.73 5.73 0 0 1 2.71-.28 4.43 4.43 0 0 1 1.28.44z" fill="#add1ee" opacity=".9"/><path d="M62.01 2.19a12.75 12.75 0 0 0-2.89 2.89 12.39 12.39 0 0 0-1.43 6.64c.1 2.41 1.75 7.36 1.27 9.36s-.76 2.92-1.14 3.3-1.38-3.58-2.61-4.68-3-4-3.06-5.26-.36-4.88.54-6.94a9.1 9.1 0 0 1 2.61-3.68c.52-.24-1-.14-2 .17s-6.81 2.61-8.84 3.17a18.8 18.8 0 0 0-9.08 6.47c-2.68 3.72-4.54 7-4.82 9.43a23.39 23.39 0 0 0-.31 4.3c.1.41-2.86.69-3-1.38s0-6.36 0-6.36c.69-1.69 3.1-7.36 3.1-7.36.76-.86 2-2.48 2-2.48a34.44 34.44 0 0 1-5.06 4.92c-1.93 1.24-3.78 1.75-5.81 4.82s-3.2 7.91-2.48 9.74c0 0-1.65-2.72-1.69-3.89a9.65 9.65 0 0 1 .07-1.75s-3.34 3.1-4.54 6.23a36.63 36.63 0 0 0-2.2 9.81c0 2.1-.1 6.67.31 8.46l.41 1.79s-2.24-4.64-2.24-6.4-.34-8.39.65-12.21a96.08 96.08 0 0 1 4.18-10.8 44.72 44.72 0 0 1 8-8.33c2.41-1.72 8.95-5.54 11.49-7a30.7 30.7 0 0 1 9.25-3.18 41.23 41.23 0 0 0 6.3-.65 19.06 19.06 0 0 1 7.7-.45c2.47.61 5.32 1.3 5.32 1.3z" fill="#e9b87f"/><path d="M7.38 85.76s-3.72-7.64-3.75-7.78a84.28 84.28 0 0 1-1.69-9.48c-.1-2.58 0-3.2.62-3.41s.69-.1.76-1.24.28-3 .65-3.47a3.76 3.76 0 0 1 1.72-.58c.17-.07.07.31.48-1.51s1.58-.93 2-.58a4.36 4.36 0 0 1 .79 1 2 2 0 0 1 1.73-.51c.86.28 1 .48 1.34 1.86s1.62 6.71 1.65 7.12a4.68 4.68 0 0 0 1 1.41 14.78 14.78 0 0 1 1.34-3.78c.72-1 1.38-1.44 1.86-1.14a1.37 1.37 0 0 1 .69 1.93 28.9 28.9 0 0 0-.31 6.71c.1 1.41 1.1 4.33.31 6.36a47.84 47.84 0 0 1-2.48 5.5c-.38.52.83 1.07-1 1.58s-3.44 1.55-5 1.1-2.06.25-2.71-1.09z" fill="#f9e5cc"/><path d="M31.05 149.13s-.21-2 1.24-2.44 8.6-.07 11.18.31a102.44 102.44 0 0 0 11.73 1c2.65-.07 12.42-.45 12.42-.45 2.65-.41 7.47-1.58 9.6-1.86s3.3-1.48 3.51.07a37 37 0 0 1 0 8.33c-.41 2.34.31 5.44-.28 7.12s-.58 6.64-.55 8.26-.07 6.95-1.14 8.6-4.61 4.23-4.61 4.23c-3 .62-4.13 1.44-7.09 1.17s-6.92-.52-8.36-3-2.51-8.7-2.51-8.7-1.1 3.75-1.41 4.92-1 4.33-3.58 5.4-3.89 2-6.19 1.62-7.91-.89-9.19-2.34-3.44-5.88-3.47-8.67-.21-11.22-.38-12-1.06-10.81-.92-11.57z" fill="#fd8204"/><path d="M33.56 146.66s-.45 5.78-.31 6.81.65 8.6.76 9.84.52 8.88 1.34 11.32 2.13 5.75 4.44 7.05a43.64 43.64 0 0 1-2-9.32c-.45-5-.55-16.69-.55-16.69l-.17-9.17s-3.38-.43-3.51.16zM40.34 146.66s.34 4.23.58 6.16.86 6.5 1 8.46.21 7.57.72 11.18.93 8.39 2.17 10.11 3 .14 3 .14-.89.1-1.55-4.13 0-8.95-.69-14.45-1.07-16.58-1.07-16.58-4.47-1.24-4.27-1 .11.11.11.11zM48.22 147.65c.14-.07.1 6.85.41 9.6s.76 7.57 1.2 12.25.69 10 .21 11.63a4.07 4.07 0 0 1-1.2 2.1s2.82-1.24 2.92-1.34.93-1.14.93-1.14a85.45 85.45 0 0 0 .24-11.56c-.24-7.53-.83-13.42-.89-15.07s0-6.67 0-6.67zM59.16 148.2a50.09 50.09 0 0 0-.62 7.33c.14 3.3.07 9.53.31 12.73a71.41 71.41 0 0 0 1.34 10.24c.65 2.51.48 3.89 1.93 4.16s4.61.52 4.61.52 4.23-.45 4.92-1.44-.76-17.58-.83-19-1-15.38-1-15.38l-3.47.72s1.24 26 1.2 29.45a28.49 28.49 0 0 1-.41 5.23c0-.1-2.1-1.51-3.3-6s-1.55-28.26-1.55-28.26zM74.19 146.76s-.24 10.87-.07 12.73a90.62 90.62 0 0 1 .31 11c-.24 3.06-1.24 9.87-1.89 10.87s2.31.38 3.37-.31 2.72-6.33 2.89-9.32-.41-15.17-.41-15.17-.35-10.06-.7-10.42-3.5.62-3.5.62z" fill="#e16702"/><path d="M37.34 182.2a40.3 40.3 0 0 0 .58 6c.52 2 1.1 4.71 1.89 5.4s5.23 1.24 5.68 1.31 7.19.76 7.47.72.86.52 1.51-1.69.17-5.13.28-5.88.31-6.43-.24-6.78a2.6 2.6 0 0 0-2.06.28 11.14 11.14 0 0 1-4.09 1.86c-1.58.21-7.74.24-8.57-.45s-2-1.55-2.44-.71-.01-.06-.01-.06zM58.69 180.23a9.89 9.89 0 0 0 5.06 3.13c3.06.65 10-1.17 10.42-1.17s.28.72.28 1.89a7.57 7.57 0 0 1-.24 3.41c-.55 1.69 0 2.58-1 3.92s-1.58 2.61-2.82 2.92a27.15 27.15 0 0 1-4.58.86 33.16 33.16 0 0 0-4.68.41c-1.65.28-2.82 1.1-3.13.24a14.93 14.93 0 0 1-.45-3.75c0-1-.45-5.09-.48-5.81a47 47 0 0 1 .72-6c.13.02.27-.56.9-.05z" fill="#d2a274"/><path d="M40.54 194.5s-2.16 0-2.68.45-1.79 1.51-2.06 1.86a13.3 13.3 0 0 1-1.34 1.27 23.73 23.73 0 0 0-2.61 2.31 3.55 3.55 0 0 0-1 2.41c0 1.27-.38 1.55.14 2.79s0 2.75 4.61 4.3 11.08 1.14 12.76 1 4 .07 5.06-.62a15.27 15.27 0 0 0 2.06-1.58c.55-.45.79-1.07 1-.24s.21 1.79 1.62 2.1a25.46 25.46 0 0 0 4.27.55c1.17 0 4.37.07 4.85.07s9-.93 9.46-1.1 3.27-1.17 3.68-1.86 1.82-5.37 1.58-6.23a10.55 10.55 0 0 0-2.2-2.92c-.62-.65-3.41-2.37-4-3.1a4.4 4.4 0 0 0-2.51-1.34c-.86-.17-8.43.65-8.43.65a58.71 58.71 0 0 0-5.88.72 2.17 2.17 0 0 0-1.93 1.72c-.28 1-.69 4-.69 4a9.57 9.57 0 0 1-1.38-3.06 2.78 2.78 0 0 0-2.31-2.75c-2-.41-5.57-.65-6.4-.83s-5.67-.57-5.67-.57z" fill="#efb000"/><path d="M42.11 66.07c-.26-.05.21 4-.36 4.85s-3 .52-7.07 1.91-7 3-8.93 5.57-4.59 7.84-4.85 7.74a18.79 18.79 0 0 1-1.29-1.6c-.41-.41-2-.15-2.27-.15a6.74 6.74 0 0 1-1.91.93c-1.29.26-3.61 1.5-5.93 1.44s-3.56-.88-3.72-.15a3.38 3.38 0 0 1-1.6 2.63c-1.39.93-3.77 2.68-3.51 4.13s.05 2.37.62 3.46a8.87 8.87 0 0 1 1.19 2.37 7.11 7.11 0 0 0 .26 2.48c.36 1.34.77 4 1.91 4.9a4.93 4.93 0 0 0 2.12 1.08s1.65 5.32 3.41 6.92 6.3 5.32 10 6a10.75 10.75 0 0 0 6.81-1.14c.83-.26.36 3.41.46 4.49s-.41 9-.36 10-.05 5.83-.1 7.64-.57 4.9 2.17 5.32 4.54-.77 6.5-.88 14 1.44 16.31 1.6 11.77.36 14.09.15 9.13-1.65 10.68-2 6.81-1.6 7.53-2.63.26-4.23.31-4.9 2.32 1.14 4.64.72 3.56-1 5.83-1.39 2.63-.67 3.25-1.7.57-1.44.46-1.75 3-1.55 3.87-3.15-.94-10.04-.94-10.04-2-2.74-2.17-4.13-2.79-12.54-2.79-12.54-3.56-11-4.18-12.13-6.68-10.68-7.86-12.48-8.46-7.53-13.11-8.62a29.56 29.56 0 0 0-6.66-.93c.15-.05.1-5.11.1-5.11a50.69 50.69 0 0 1-11 1.55c-4.79-.03-11.91-.46-11.91-.46z" fill="#fff"/><ellipse cx="229.64" cy="79.96" rx="5.24" ry="4.11" transform="rotate(-51.97 132.427 275.467)" fill="#fd8306"/><ellipse cx="233.23" cy="96.15" rx="3.85" ry="4.02" transform="rotate(-19.31 133.212 657.69)" fill="#fd8306"/><path d="M28.42 81.87a3.94 3.94 0 0 1-2.31 5.06c-2 .7-6.53-.95-5-2.52s3.58-5.33 4.2-5.21a4 4 0 0 1 3.11 2.67zM32.69 111.06a4.06 4.06 0 0 1-3.82-.23c-.61-.38.26-4.26.65-6.79a3.851 3.851 0 1 1 3.17 7.02z" fill="#fd8306"/><ellipse cx="205.83" cy="115.55" rx="4.02" ry="3.85" transform="rotate(-24.3 106.667 559.106)" fill="#fd8306"/><ellipse cx="210.68" cy="97.44" rx="4.02" ry="3.85" transform="rotate(-24.3 111.518 540.978)" fill="#fd8306"/><ellipse cx="238.29" cy="115.98" rx="4.39" ry="4.7" transform="rotate(-24.3 139.137 559.536)" fill="#fd8306"/><ellipse cx="225.08" cy="130.59" rx="4.7" ry="4.39" transform="rotate(-55.25 127.979 312.618)" fill="#fd8306"/><ellipse cx="247.68" cy="129.84" rx="3.8" ry="4.6" transform="rotate(-16.71 146.86 780.382)" fill="#fd8306"/><ellipse cx="265.32" cy="129.27" rx="4.6" ry="3.8" transform="rotate(-76.4 168.712 250.083)" fill="#fd8306"/><path d="M78.82 112.5c-2-.49-3.21-2.9-2.61-5.37s2.74-4.07 4.77-3.58c1 4.95 1.95 7.1 1.38 7.71a3.67 3.67 0 0 1-3.54 1.24z" fill="#fd8306"/><ellipse cx="255.67" cy="114.2" rx="3.8" ry="4.6" transform="rotate(-24.73 156.59 549.79)" fill="#fd8306"/><ellipse cx="262.07" cy="78.85" rx="4.6" ry="3.8" transform="rotate(-57.14 165.014 253.773)" fill="#fd8306"/><path d="M90.13 89.34c-1.35 1.61-4 1.59-6 0s-2.43-4.26-1.08-5.87a3.7 3.7 0 0 1 3.71-1.08c.82.11 4.69 5.38 3.37 6.95zM91.48 107.5c-1.82-1-2.26-3.68-1-5.88s3.32-3.16 5.14-2.11a53.69 53.69 0 0 1 1.45 5.91c-1.27 2.15-3.77 3.08-5.59 2.08zM84.75 122.36a5.38 5.38 0 0 1 .69-2c1.27-2.2 3.77-3.13 5.59-2.08a4 4 0 0 1 1.46 4.84c-.13.38-7.95.85-7.74-.76z" fill="#fd8306"/><ellipse cx="290.43" cy="130.94" rx="4.03" ry="3.32" transform="rotate(-60 193.464 295.871)" fill="#fd8306"/><g><path d="M61.46 31.44a2.63 2.63 0 0 0 1.26 0 10.48 10.48 0 0 1 4.64.28l2.76.62s1 .28-.41-.7a11 11 0 0 0-3.75-1.78 10 10 0 0 0-4.51.41c-.35.23-.48 1.11.01 1.17zM41.8 31.67s-2.45-.1-3.43 0-4 .9-4.46 1-.83-.07-.1-.53a12 12 0 0 1 2.79-1.38 12.6 12.6 0 0 1 4.8-.28c.74.21 1.87 1.02.4 1.19zM44.33 38.16a5.77 5.77 0 0 0-2.64-2.77 8.61 8.61 0 0 0-3.51-.45 8.1 8.1 0 0 0-3.79 1.5 6.4 6.4 0 0 0-1.55 2.4 9 9 0 0 0 2.58 1.07 27 27 0 0 0 3.2.3.52.52 0 0 0 .2 0 41.89 41.89 0 0 0 4.36-1c.36-.05.83 0 1 0s.37-.26.15-1.05zm-8.64 1.24a2.77 2.77 0 0 1-1.35-.53.43.43 0 0 1-.25-.34.44.44 0 0 0 0-.11c-.08-.68 1.23-1.65 1.29-1.65l.23-.07a1.91 1.91 0 0 0-.13 1.08 2.37 2.37 0 0 0 1.26 1.61c-.41.01-.8.02-1.05.01zm3.06.55zm1.58-1.75a2.1 2.1 0 0 1-1.83.89 2.15 2.15 0 0 1-2-1 1.91 1.91 0 0 1-.15-1.32l.13-.21a.74.74 0 0 1 .48-.32h.15a.29.29 0 0 1 .19.13 1.6 1.6 0 0 0-.06.88 1.33 1.33 0 0 0 1 .94 1.37 1.37 0 0 0 1.29-.55l.11-.2a1.16 1.16 0 0 1-.47-.89.69.69 0 0 1 .43-.49c.16 0 .24-.06.32-.06l.18.05h.13a1.72 1.72 0 0 1 .12 2.15zm3 .4a2.21 2.21 0 0 1-1 0 6.5 6.5 0 0 0-1.17.16 2 2 0 0 0 .37-1 2.6 2.6 0 0 0-.34-1.26.13.13 0 0 1 0-.2c.27.08.51.15.64.2a6.7 6.7 0 0 1 1.51 1.28.57.57 0 0 1-.02.82z" fill="#692f23"/><circle cx="39.81" cy="36.74" r=".75" fill="#fff"/><path d="M70.99 38.62a5.16 5.16 0 0 0-3.61-3.32l-.47-.15a7.41 7.41 0 0 0-2.23-.21 3.79 3.79 0 0 0-.56 0 5.4 5.4 0 0 0-4.22 3.25s-.1.23-.12.26a.76.76 0 0 0 .12.83.65.65 0 0 0 .48.32c.19 0 .84-.12 1.41-.14a16.09 16.09 0 0 1 2.59.41 6.7 6.7 0 0 0 1.39.21 27.84 27.84 0 0 0 2.89-.13 5.21 5.21 0 0 0 2.22-1.08.31.31 0 0 0 .11-.25zm-9.11.19c-.37 0-.83.13-1 .13h-.19a.63.63 0 0 1 0-.63 5.21 5.21 0 0 1 1.69-1.81.54.54 0 0 1 .31 0h.13a.27.27 0 0 1 0 .23 1.76 1.76 0 0 0-.09.83 1.84 1.84 0 0 0 .76 1.39 13.32 13.32 0 0 0-1.61-.13zm4.81-.19a2.34 2.34 0 0 1-.86.34 2.26 2.26 0 0 1-1.23-.15h-.06a1.72 1.72 0 0 1-1-1.31c-.22-1.07.42-1.23.56-1.26a.28.28 0 0 1 .26 0 1.38 1.38 0 0 0 .46 1.65 1.33 1.33 0 0 0 1.6-.46 1.2 1.2 0 0 1 .1-1c.34-.19.89-.21.94.06a4.5 4.5 0 0 1-.05 1.2 2.25 2.25 0 0 1-.72.94zm3.24-.18c-.3.77-1.69.79-2.37.86a5 5 0 0 1-.63 0 2.14 2.14 0 0 0 1.26-2.12v-.28a.23.23 0 0 1 .24-.16 4.93 4.93 0 0 1 1.14.9c.53.54.36.8.36.8z" fill="#692f23"/><circle cx="66.94" cy="36.98" r=".73" fill="#fff"/><path d="M49.44 44.62a2.83 2.83 0 0 1 2.14-1.21 7.3 7.3 0 0 1 4.59.77c.59.54-.18.67-.67.57s-2.43-.41-2.43-.41a6 6 0 0 0-3.59.65c-.12.12-.38-.13-.04-.37zM66.42 51.05c-1.65-.23-3.12.59-4 .7s-6.27-.8-8.64-.9-5.5.65-7.25.67-4.54-.34-5.63-.21a3.94 3.94 0 0 0-2 1.19c-.34.57 1.47-.49 3.46-.15l.56.08 1.51.57s2.26 1.3 2.79 1.5 1.81.65 2.37.8a12.6 12.6 0 0 0 4.15.52 18.58 18.58 0 0 0 6-1 18 18 0 0 0 2.22-1.19 26.44 26.44 0 0 1 2.32-1.32 8.32 8.32 0 0 1 2.84-.49c.57.05 1.24.15 1.26-.05s-.31-.49-1.96-.72zm-12.6 3.45c-2.92 0-6.5-.93-7.35-1.6a5.37 5.37 0 0 0 1.65.05c.65 0 3.56-.72 5.24-.8a25.63 25.63 0 0 1 5.7.62 11.58 11.58 0 0 1 1.25.31 23.13 23.13 0 0 1-6.49 1.42zM50.01 58.74s1-1 4.1-1.08 4.39 1 4.39 1a10.84 10.84 0 0 1-4.15.49c-2.95-.03-4.24-.03-4.34-.41z" fill="#692f23"/></g><path d="M67.48 166.95s3.92-1.07 4.78-1.44a17.59 17.59 0 0 0 3.3-1.82c.55-.52.34.34.1.72a9 9 0 0 1-3.34 2.17 15.73 15.73 0 0 1-4.75.76c-.33-.04-.47-.28-.09-.39zM122.69 159.82a1.4 1.4 0 0 0-.53-1 3.53 3.53 0 0 0-1.89-.33c0 .05-9.81.05-9.81.05h-5.77a1.15 1.15 0 0 0-1 1.22c0 1.15-.07 6.06-.07 6.06V167c0 1.26.05 1.5.53 1.89a1.28 1.28 0 0 0 .89.34s14.88.07 15.41.09a2.24 2.24 0 0 0 1.77-.74 2.28 2.28 0 0 0 .55-1.32s-.08-7-.08-7.44zm-10.54.28a1 1 0 0 1 .84-.52 2.61 2.61 0 0 1 1.32.26 1.41 1.41 0 0 1 .24.93 4.39 4.39 0 0 1 0 1.07 1.34 1.34 0 0 1-1.52.34.93.93 0 0 1-.89-.55 6.38 6.38 0 0 1 0-1.54zm.25 2.71a3.28 3.28 0 0 1 1.29-.07.81.81 0 0 1 .86.45 2 2 0 0 1 .06 1.06.75.75 0 0 1-.61.7h-1.75a.43.43 0 0 1-.24-.24 11.24 11.24 0 0 1 0-1.28v-.06a.88.88 0 0 1 .38-.57zm-7.56-2.63a.6.6 0 0 1 .65-.51h.16a4.35 4.35 0 0 1 1.51.14 1.05 1.05 0 0 1 .61.81v.33a.93.93 0 0 1-.25 1 2.38 2.38 0 0 1-2.54-.13 2 2 0 0 1-.15-1.65zm-.34 3a.73.73 0 0 1 .63-.49 9.51 9.51 0 0 1 1.82.06.86.86 0 0 1 .71.8 4.18 4.18 0 0 1-.15 1 .55.55 0 0 1-.31.28 8.89 8.89 0 0 1-2 .05.75.75 0 0 1-.69-.76 4.94 4.94 0 0 1-.03-.98zm3.23 4.68a.88.88 0 0 1-.69.36h-1.65a.85.85 0 0 1-.79-.65v-1.26a.75.75 0 0 1 .81-.64h1.89a.72.72 0 0 1 .58.55 4.83 4.83 0 0 1-.19 1.6zm.58-7.16a1.2 1.2 0 0 1 1-1.08 3.73 3.73 0 0 1 1.29.09 1.63 1.63 0 0 1 .69 1.92c-.15.83-1.29.88-1.94.74a1.32 1.32 0 0 1-1.05-1.71zm.22 2.37a.7.7 0 0 1 .62-.23l2 .09c.4.15.32.35.32.35a2.73 2.73 0 0 1-.11 1.26.71.71 0 0 1-.46.38h-.69a6.65 6.65 0 0 1-1 0 1 1 0 0 1-.79-.6 1.65 1.65 0 0 1 .11-1.29zm2.92 4.37a.64.64 0 0 1-.45.71h-1.6a1.2 1.2 0 0 1-.8-.39 4.4 4.4 0 0 1 .08-2.08 1.67 1.67 0 0 1 1.14-.16 4.92 4.92 0 0 1 .84 0c.79 0 .79.46.79.46s.02.98-.01 1.42zm3.19.52a.83.83 0 0 1-.58.27h-.93a.89.89 0 0 1-1-.63 10.64 10.64 0 0 1-.08-1.51.56.56 0 0 1 .51-.58 9.65 9.65 0 0 1 1.39-.05.79.79 0 0 1 .77.64 4.49 4.49 0 0 1-.09 1.83zm7.09-.66a1.32 1.32 0 0 1-1.32.91h-4.25a.88.88 0 0 1-.79-.92l-.1-6.65a.85.85 0 0 0 0-.16c.09-.72 1.31-.84 1.46-.83s3.06-.15 4-.12a.83.83 0 0 1 .93.79 61 61 0 0 1 .03 6.94z" fill="#692f23"/><g fill="#692f23"><path d="M85.69 81.82l-.08-.1s.25.32.08.1z"/><path d="M142.69 198.02s-.14-45.45-.17-46.82a6.22 6.22 0 0 0-.58-2.44s-2.37-3.17-3.92-5.44-6.09-2.17-6.74-2.24-15.28.07-16.07.07-7.67.62-8.22.52-.65-.38-2.65-1.72-4.92-1.34-6.19-1.69-1.31-.79-1-1.17 1.41-.24 2.1-1.07a2.19 2.19 0 0 0 .07-2.08 9.72 9.72 0 0 0 1.8-1l.31.08a7 7 0 0 0 1.75-1.29c.26-.46.36-1.14-.1-3.15a40.72 40.72 0 0 1-.31-6.92 2.7 2.7 0 0 0-.93-1.55 8.87 8.87 0 0 1-1.86-4.49c-.41-2.06-2.84-11.61-3.25-13.47a89.22 89.22 0 0 0-4-10.89c-.93-1.81-5.49-9.44-6.12-10.22l-.12-.13c-.7-.75-4.37-4.68-5-5.26a22.34 22.34 0 0 0-7.95-4.15 43.57 43.57 0 0 0-4.4-1c2-.44 5.17-1.46 7.53-2.18 2.72-.83 4.68-2.44 6.71-3.72a33.23 33.23 0 0 0 5.71-4.78c2.44-2.34 3-4.33 4.23-6.23a48 48 0 0 0 4-8.39 19 19 0 0 0 .65-9.22c-.45-3.58-1.07-5-3.44-10.56S86.1 13.76 86.1 13.76c-.36-.34-.83-.83-1.41-1.49-1.34-1.51-7.16-5.33-7.78-5.57s-3-1.79-3.56-2.16l-.12-.08a13.53 13.53 0 0 0-2.86-1.07c-.34-.1-.31-.28-2.31-1.51a9.68 9.68 0 0 0-5.23-1c-.62 0-3.61-.24-3.61-.24S57.16.47 55.78.19a16.82 16.82 0 0 0-5.75.45 33 33 0 0 1-3.75.83 61.93 61.93 0 0 0-6.33.65c-2.79.45-7.84 3.17-9.39 4.23s-5.88 3.34-8 4.71-6.88 5.26-8.81 8.7-4.33 9.77-4.51 11.53-1.72 6.85-.76 11.87 1.75 6 2.27 7.12c.4.87 1.53 2.74 2 3.56a5.85 5.85 0 0 0 .35.71 42.12 42.12 0 0 0 4.7 5.95c1.41 1.27 6 3.23 9 4.44a14.44 14.44 0 0 1 4.58 2.65 52.18 52.18 0 0 0 5.31 2.76c.65.28.79.38.76.69s-1 .45-2 .76-3.27 1.14-3.54 1.24a36.39 36.39 0 0 0-5.55 4c-1.82 1.79-3.58 5-4.16 5.75a12.17 12.17 0 0 1-1.38 2c-.31.14-.55-.89-1-1a8.93 8.93 0 0 0-2.17 0c-.24 0-.52-.17-.24-.89s2-2.92 1.93-5.23a34.14 34.14 0 0 0-.38-4.27c-.08-.88-.11-3-.08-3.4s.21-5.23.14-5.5a1.38 1.38 0 0 0-1.34-1.31c-1.2-.1-2.06 1-2.51 2.31a11.41 11.41 0 0 0-.38 1.92 1.6 1.6 0 0 1-.69-1.16c-.31-1.24-1.65-7.09-1.93-7.81a1.53 1.53 0 0 0-1.69-.79 4.21 4.21 0 0 0-1 .21c-.31 0-.79-1.1-1.48-1.1a2.11 2.11 0 0 0-2 1c-.55.89-.14 1.14-.34 1.34s-1.2 0-1.75.89-.65 4.27-.65 4.27c-.14.21-.38-.14-.89.07s-.72 2.13-.83 4.71a24.53 24.53 0 0 0 1.82 9c1.2 3.27 2.65 6.16 2.82 6.54a.89.89 0 0 1-.07 1 4.81 4.81 0 0 0-.79 1 2.63 2.63 0 0 0 0 1.38c.07.31-1.24 1.2-1.82 1.69a19.41 19.41 0 0 0-2.81 2.23 2.52 2.52 0 0 0-.65 2.2 14.86 14.86 0 0 0 .45 1.51 11.82 11.82 0 0 0 .79 1.62.14.14 0 0 0 .11.09c0 .2 0 .6.09 1 .07.58-.48 1.88.19 2.92a9.22 9.22 0 0 1 1 2.29c.33 2.32.95 3.54 1.72 4.13a3.08 3.08 0 0 0 1.34.41 16.81 16.81 0 0 0 2.96 5.74 24.31 24.31 0 0 0 5 4.71c.86.48 1.31.72 4.3 2.17a10.14 10.14 0 0 0 6.64.55c.34-.14 1.38-.62 1.89.17s0 4.37-.1 5.26a83.54 83.54 0 0 0 .07 9.32c0 2.2-.41 7.6-.14 9.45s.93 2.1 2.34 1.93l1.56-.17a79.74 79.74 0 0 0 .47 10.51 67.57 67.57 0 0 1 .77 10.58c-.05 2.12-.41 9.13 2.06 11.66a10.8 10.8 0 0 0 2.59 1.86 4.26 4.26 0 0 1 .87 2.48c.21 2.06.41 4.89 1.17 6.57s1.24 2.48 1.1 3-1 .07-2.1.93-1.89 2.06-2.55 2.34-4 2.34-4.51 4.23-.1 5.78 1.75 7.36 6.47 2.58 8.7 2.65 9.25.17 10.36.07 2.68.1 3.82-.93a4 4 0 0 0 1.27-1.62v-.26c.41 1.82 2.13 2.34 4.37 2.61a121 121 0 0 0 12.32-.17c1.86-.14 6.33-1.1 7.95-2.92s1.79-5.09 1.38-6.78-2.79-3.27-3.54-3.75a8.24 8.24 0 0 0-1.08-.57c-.25-.25-1.19-1.18-1.47-1.39a10.19 10.19 0 0 0-2.55-1.48c-.89-.21-.55-.89-.24-1.65a15.7 15.7 0 0 0 1.55-4.37c.47-2.43.42-5.28.88-6.05a10.13 10.13 0 0 0 3-2.15c1.75-2 2.53-5.83 2.17-9.5s.31-9.6.36-10.73.88-5.57.77-8.67c-.09-2.71-.3-4.79.24-5.72a4.84 4.84 0 0 0 2.44-1.87c.48-.72.41-1.34.45-2.89s.14-1.44.86-1.69a1.52 1.52 0 0 1 1.34.44 8.11 8.11 0 0 1 .24 1.51 8.82 8.82 0 0 0 .38 3c.38.79.34.79-.14 1.38s-2.2 1.86-2.34 3.61-.34 50.47-.34 50.47-.14 3 .89 4.16 1.1.69 1.2 1.69-.72 3.3 1.65 4.13 3.51-1 3.51-1.79a11.41 11.41 0 0 1 .21-1.86 1.32 1.32 0 0 1 .65-.46h.59a.54.54 0 0 0 .27 0h40.42a3.21 3.21 0 0 0-.13 1.75 2.53 2.53 0 0 0 2.55 2.2 3.74 3.74 0 0 0 2.48-.55c1.34-.79.76-3 .89-3.51s1.27-1 1.89-2.41a15.75 15.75 0 0 0 .6-4.62zm-34-55.39s16-.69 20.78-.55 6.57.93 7.33 1.58 3 3.78 2.61 4.37-1.65.41-1.65.41l-27 .11v-.18a1 1 0 0 0 .41-.7 1.58 1.58 0 0 0-.45-1.19.35.35 0 0 0-.1-.28c-.45-.58-1.62-2-2.27-2.75s.34-.82.34-.82zm-9.22-3.2a16.57 16.57 0 0 1 6.16 2.27 32.24 32.24 0 0 1 4.37 4.84 1.58 1.58 0 0 1 .21.62c.05.39-.23.39-.49.28a12.47 12.47 0 0 1-1.57-2 17.28 17.28 0 0 0-3.61-3c-.72-.31-.49.08-.26.36s2.63 2.55 3.79 3.9 1.7 2.92 1.44 3-.49-.26-.93-1a38.07 38.07 0 0 0-3.74-3.66 9.33 9.33 0 0 0-2.19-1c-.52-.23-.75-.08.15.49s3.9 3.2 4.21 3.43 2.92 2.79 2 2.94-2.55-.83-3-1.06-3.64-1.57-4-1.86a17.2 17.2 0 0 0-2.22-1 18.52 18.52 0 0 0-2.74-1 3.54 3.54 0 0 0-1.26-.18c-.38 0-.39.39-.18 1s1.16 3.66 1.47 4.7a1.27 1.27 0 0 1-.24 1.34h-.15c-.11 0-.77.17-1.48-1.3a30.83 30.83 0 0 0-4.09-6 10.27 10.27 0 0 1-2-3.41c-.33-1.36-.37-2.32.09-2.69h.43a41.43 41.43 0 0 0 4.78-.83 5.91 5.91 0 0 1 1.51.55c.76.1 1.83.03 3.51.27zm-.89 8.45l-1.81.1a3.84 3.84 0 0 1-.27-1 13.84 13.84 0 0 1 2.06.9zm-1 6.1c2 0 31.62.08 32.76.1a12.22 12.22 0 0 1 4.33.7 2.06 2.06 0 0 1 1 1.86s.31 33.85.36 35.94a8.26 8.26 0 0 1-1.37 5.32c-1.06 1.39-3.3 1.29-3.3 1.29h-15.33a1.34 1.34 0 0 1-1.39-.5 6.09 6.09 0 0 1 0-1.26v-6.24a2.24 2.24 0 0 0 1.14-.09 4.43 4.43 0 0 0 1.36-.6 6.13 6.13 0 0 0 2.18-2.36 9.48 9.48 0 0 0 .65-6.38 1 1 0 0 0 0-.18 1.51 1.51 0 0 1 .44-1.57s7.41-4.88 8-5.63 1.14-1 1.16-2.37a2 2 0 0 0-1.88-1.91 4.12 4.12 0 0 0-1.75.57s-7.87 5.42-8.39 5.65a.77.77 0 0 1-.88-.18l.1.13a7.72 7.72 0 0 0-4.43-1.44c-3.2-.15-4.52.57-6 1.83l-.12.17a18.29 18.29 0 0 0-1.58-1.56c-1-.75-5.32-4.46-5.32-4.46s-1.65-1.11-2.71 0-.7 2-.54 2.24 7.65 7.57 7.74 7.66a9.73 9.73 0 0 0-.53 4 8 8 0 0 0 2.86 5.25 6.14 6.14 0 0 0 3.9 1.57V198.39c-.31 1.24-1 1-1 1H94.66a3.84 3.84 0 0 1-2.51-1.17 2.85 2.85 0 0 1-.69-2.24l-.07-39.48v-.13a2.13 2.13 0 0 1 .61-1.29c.75-.9 2.55-1 3-1s2.53-.1 2.53-.1zm14.05 32.67a2.21 2.21 0 0 1-.88-.21 2.74 2.74 0 0 1-1.37-.8 3 3 0 0 1-.57-2.66c.21-.7.9-2.27 2.37-2.43a3.07 3.07 0 0 1 2.74.62.73.73 0 0 0 .23.15 3 3 0 0 1 .83 1.14 5.4 5.4 0 0 1-.65 3.2c-.85 1.32-2.73.98-2.73.98zm1.87 11.64a2.13 2.13 0 0 1-.84 1.91c-.29.22-.76.45-1.32-.79s-.22-9.67 0-10.82a1.13 1.13 0 0 1 .75-1H112.76a1.42 1.42 0 0 1 .65.88c.04.16.14 8.45.05 9.81zm1.85-20.44c-.23.31-1.32 1.5-1.32 1.5a1.52 1.52 0 0 1-1.19.34c-1.06.08-2.4.26-2.4.26s-.59.34-1.81-.62l-.23-.17-.85-1h.07s-.75-1.63 2-2.35a7.43 7.43 0 0 1 5.65.72.82.82 0 0 1 .04 1.31zm2.3-.52s7.79-5.39 8.82-5.75 1.37-.08 1.52.13a1.86 1.86 0 0 1-.21 1.63 12.73 12.73 0 0 1-2.37 2.06s-9 6.32-9.47 6.17a2.16 2.16 0 0 1-.85-.67 1.44 1.44 0 0 1 .08-1.34c.4-.5 2.44-2.23 2.44-2.23zm-9.75 2.43a1.51 1.51 0 0 1 .52.81 1.16 1.16 0 0 1-.39.93 1.59 1.59 0 0 1-1.6-.34c-.59-.52-1.86-1.55-1.86-1.55l-7.25-6.68a.86.86 0 0 1 0-1.06 1.1 1.1 0 0 1 1.68.05c.57.58 8.86 7.83 8.86 7.83zm-3.21 2.3a.83.83 0 0 1 .83-.21l.25.17a7.45 7.45 0 0 1 1.5 1.11c.23.36.28 1.06.85 2.06a8.64 8.64 0 0 0 2.2 2.27 2.13 2.13 0 0 1-.13 1.64c-.46.83-.95.84-1.94.43a7.17 7.17 0 0 1-3.39-3.47c-.79-1.8-.53-3.56-.17-4zm9.56 5.75a2 2 0 0 1 .29-.84 7.13 7.13 0 0 0 1.44-1.54 2.62 2.62 0 0 0 .18-2.32l2-1.15a.41.41 0 0 1 .32 0 3.08 3.08 0 0 1 .57 2c.07 1.93-.12 2.8-.67 3.56a18.64 18.64 0 0 1-1.45 1.67c-.48.48-1.57 1-2.06.67a2.3 2.3 0 0 1-.6-2.06zM66.52 70a1.73 1.73 0 0 1-1-1.62 6 6 0 0 1 .31-2.79 4.12 4.12 0 0 1 1.23-.92 21.41 21.41 0 0 0 2-.9 32.73 32.73 0 0 0 9.2-6.71c-.17.82-.28 1.68-.39 2.19a13.06 13.06 0 0 1-3.1 6.24c-1 1-4 3.32-5 4.05a8 8 0 0 1-3.25.46zm18-19.63c.1 1.44.67 4.28-.15 7.17s-.72 3.82-4 6.86l-.51.49a29.13 29.13 0 0 1-3.81 2.42c-.55.26-1.23.55-2 .84a16.18 16.18 0 0 0 2-2.35 11.72 11.72 0 0 0 2.12-4.75 51.24 51.24 0 0 1 2.06-5c.32-.67 1.25-2.85 1.92-4.41a16.26 16.26 0 0 0 2.09-4.28 6.84 6.84 0 0 0 .64-.5 16 16 0 0 0-.4 3.52zm-.31-4.32c-1.31.69-1.2.83-1.2.83a1.77 1.77 0 0 1-.1 1.07 34.8 34.8 0 0 1-4.68 7.22c-3 3.72-7.5 8-17.34 10s-23.57 0-28.59-5.23a60.24 60.24 0 0 1-8.74-11.8 1.21 1.21 0 0 0-1-.55 2.57 2.57 0 0 1-1.2-.69c-2.24-1.82-2.27-3.72-1.82-4.89s1.51-1.1 2.17-1.17 1-.34 1.38-1.58a8.88 8.88 0 0 0 .28-2.58s.1-4.4.48-5.13a3.28 3.28 0 0 1 1.38-1.17c.93-1.17 3.85-1.58 5.09-1.93s4.76-1.28 5.1-1.37a35.6 35.6 0 0 1 5.77-.83c3.34-.21 4.89-.83 6.16-.79a25.82 25.82 0 0 1 4.37.52c.62.21 1.24-.41 1.75-2.06a9 9 0 0 0 .22-3.42.61.61 0 0 0 0-.22c0-.76.1-.93.45-.79a4.73 4.73 0 0 1 1.62 2.27 10.4 10.4 0 0 1 .62 3.44c0 .79.48.83 1 .62s1.62-.28 2.51-.48a81.9 81.9 0 0 1 9.67-.1 19.9 19.9 0 0 0 6-.6c.43.45 1.57 2.3 2.22 3.14a29.47 29.47 0 0 1 2.24 4l.05-.07 2.42 7.54A3.39 3.39 0 0 1 85 38.6a2.23 2.23 0 0 1 2 3c-.39 1.57-1.52 3.77-2.83 4.46zm-40.77 24c1.29-1.26 1.77-2.49 2.08-2.36a16.59 16.59 0 0 1 1.53 3h-4.31c.11-.19.37-.37.66-.65zm-.84-.44a15.86 15.86 0 0 0-.22-1.59 1.48 1.48 0 0 1 1.2-1.24l1.41.09c-.83.92-2.1 2.37-2.44 2.73zm4-2.65c1.37.07 2.94.14 4.1.15-.55.61-2.49 2.82-2.49 2.82a19 19 0 0 0-1.68-2.98zm7.45 16.54l-.39.27c-.3-.15-.61-.31-.91-.48-3-1.72-3.61-2.6-3.61-2.6s2.91-2.05 4.22-3.07a34.54 34.54 0 0 0 4.92 1.88 41.28 41.28 0 0 1-4.23 4zm4.64-3c0 1.29.08 3.55.11 4.84a19.41 19.41 0 0 1-4.11-1.13 30.6 30.6 0 0 0 4-3.71zm-5.61-4.21l-.09-.05a14.44 14.44 0 0 1-4.86-4.37c2.25 0 4.92-.06 5.23-.13s3 0 5.08-.09c-.61.5-2.24 1.73-2.7 2.18s-1.65 1.58-2.69 2.49zm.55-8.29a8.56 8.56 0 0 1-.94-1h1.34c.87 0 1.95-.09 3.16-.19-.48.67-1.94 3.06-1.94 3.06a7.36 7.36 0 0 0-1.65-1.84zm-.24 1.24a9.07 9.07 0 0 1 .87 1.41c-2.28 0-4.49.07-4.84 0h-.7a38.8 38.8 0 0 1 2.87-3 7.62 7.62 0 0 1 1.77 1.61zm-1.55 7.43l.42.28c-1.17.85-2.28 1.66-2.88 2.07a13.32 13.32 0 0 0-1.27 1.07c-.16-2-.45-5.68-.47-6 0-.18 0-.59-.08-1a24.48 24.48 0 0 0 4.25 3.61zm.44 7.83a39.4 39.4 0 0 1-3.85 1.64 80.74 80.74 0 0 1-.24-4.53 39.42 39.42 0 0 0 4.09 2.89zm1 8a11.2 11.2 0 0 1-2.55-.29c-.74-.28-1.6-.57-2-3.35 0-.28-.08-.58-.12-.88.88.75 3 2.57 4.45 3.69a.92.92 0 0 0 .23.83zm-4.42-5.37a25.89 25.89 0 0 0 4.53-2.08 28.85 28.85 0 0 0 4.79 1.49 12.8 12.8 0 0 1-1.89 2 25.35 25.35 0 0 0-2.76 2.14c-1.31-1.02-4.66-3.53-4.66-3.53zm5.61 4.09c.19-.21 1.93-1.38 2.6-2s1.39-1.3 1.83-1.81a8.21 8.21 0 0 1-.13 3.25c-.48 1.24-1.44 1.55-2.82 1.75h-.05c-.24-.16-.85-.62-1.46-1.09a.2.2 0 0 1 .04-.07zm4.22-16.72c-.07.89-.08 2.54-.06 3.95a13.49 13.49 0 0 1-4.49-1.55c.86-.85 2.22-2.42 2.76-2.83s1.49-1.09 2.1-1.51a15.62 15.62 0 0 0-.31 1.94zm-2.85-3.87l2.42-3.61a11.07 11.07 0 0 1 1.81 1.69 11.19 11.19 0 0 1 1 1.74c-.85.07-1.56.1-1.56.1zm5-2.8a9.94 9.94 0 0 0-1.4-1.31 36.11 36.11 0 0 0 4.45-.82c-.21.33-.49 1-.82 1.52s-1.14 2.13-1.14 2.13a7.4 7.4 0 0 0-1.07-1.51zm3.73-.73v.27a3.42 3.42 0 0 1-.59 2.5 3.45 3.45 0 0 1-1.37.4zm27.72-18.05c-.28 3.23-1.1 6.64-3 8.91a11 11 0 0 1-4.35 3.32c.47-.71 1.09-2.19 1.15-5.07.1-4.75-.26-7.07 0-8.41.19-1 .32-2.2.59-3.22a5.35 5.35 0 0 0 1.1-3.68c-.14-2.13-1-2.92-2-3.27a3.42 3.42 0 0 0-2 0 .85.85 0 0 1-.93-.86 57.31 57.31 0 0 0-1.67-5.49c1.13.19 4 2.65 4.77 3.36s1.72 2.55 1.89 2.34-.17-1-.83-2.41a5.88 5.88 0 0 0-1.05-1.46 7.17 7.17 0 0 1 1.36.46c1.24.55 3.34 3.82 4 5.47s1.24 6.78.97 10.01zM77.63 7.73c.34.31 3.85 3.23 5.23 4.27a29.17 29.17 0 0 1 2.51 2.23l-.1.07s.31.07 1.86 1.93a80.51 80.51 0 0 1 5.81 9.32c.89 1.75 3.78 8 4.06 14s-2.65 9.53-3.17 10.67-.76.93-.76.93a42.25 42.25 0 0 0 .1-7.91 16.16 16.16 0 0 0-2.74-7.74 7.57 7.57 0 0 1-1.65-4 28 28 0 0 1 0-3.44c.21.52 2.2 3.51 2.86 4.44s3.13 5.5 3.13 5.5a11.32 11.32 0 0 0-.41-2.58c-.45-1.93-3.75-6.81-4.82-8.81a14.86 14.86 0 0 1-1.48-4.44c-.41-1.58-1.51-3.47-3.37-6.57s-7.09-6.26-7.81-7.5.41-.68.75-.37zm-5.3-1.65c.45-.1 1.86 1 1.86 1 .45.52 2.44 1.75 3.3 2.79s5.3 5 6.23 6.57 3.82 7.4 4 10.18.34 4.75-.72 5.4-3-.69-3-.69h-.11l-.48-.29a25.64 25.64 0 0 1-3.92-2.86 11.2 11.2 0 0 1-2.2-3.13c-.1-.45.24-.58.72-1.34a7.71 7.71 0 0 0 .69-2.41 10 10 0 0 0-1-5.5 21.7 21.7 0 0 0-2.44-4 37 37 0 0 1-2.34-3.58c-.41-.52-1.03-2.04-.59-2.14zm-13-4.2c3.27 0 4.75 2.65 6.4 4.09s2.86 6.92 3 6.81a12.14 12.14 0 0 0-1-6 12.69 12.69 0 0 0-4.47-4.92 9.45 9.45 0 0 1 5.81 2.1c1.27 1 1.72 3 2.86 5.2s2.65 3.06 3.54 4.16a8.57 8.57 0 0 1 2 6c-.1 3-1.07 3.72-2.51 4.44s-3.82.72-5.44.69-7.26-.58-8.53-.52-2.79.72-3 .58 0-.34-.52-1.82a14.33 14.33 0 0 0-2.61-3.85 9.26 9.26 0 0 1-1.31-2.75 24.47 24.47 0 0 1-.86-5.59 7.86 7.86 0 0 1 3-6.47 10 10 0 0 1 3.64-2.15zm-9.08-.45s3.78-.31 4.75-.24 1.79.28.52 1.38a10.88 10.88 0 0 0-3.44 5.64 20.88 20.88 0 0 0-.38 7.16c.21 2 1.38 3.34 1.1 5.85s-.69 3.72-2.24 3.82a8.8 8.8 0 0 1-3.58-.48c-.52-.24-2.82-4-1.2-6.92a7.94 7.94 0 0 0-1.38 2.86 4.5 4.5 0 0 0 .34 2.89c0 .24.69.89-.52.86S37.7 25 35.83 26h-.15a15.58 15.58 0 0 1-3.34 1 9.64 9.64 0 0 1-3.2-.17c-.76-.28-1.38-.31-1.44-3.37a22.31 22.31 0 0 1 2-8.57c1-2.65 4.06-5.78 6.12-7.57s2.87-1.82 2.87-1.65a3.24 3.24 0 0 1-.69.69c-1.48 1.1-3.58 4.23-4.51 5.26s-.65 1.31-.52 1.14 3.1-2.75 5.64-5.13a33.71 33.71 0 0 1 7.16-5 12.73 12.73 0 0 1 4.48-1.19zM28.3 9.17A39.79 39.79 0 0 1 41.78 2.4c.83-.07.79.14.1.41s-5.13 2.75-6.12 3.37a30.59 30.59 0 0 0-5.5 5.4 34.28 34.28 0 0 0-3 6.3c-.69 1.58-.79 5.71-.89 6.78s-.07 3.68-.86 3.92-1.62 0-2.68-1.79-.24-5.4-.24-5.4c-1.69 1.07-1.07 5.06-.45 6.43a4.26 4.26 0 0 0 1.55 1.79 5.49 5.49 0 0 1-4-.11c-1.72-1-1.72-4.06-1.58-6.5s2.86-6.16 3.37-6.81 3.85-4.58 3.85-4.58c.49-.47 2.97-2.43 2.97-2.43zM11.82 50.36c-.17-.17-.58-.79-1.31-3.54a37.11 37.11 0 0 1-.72-9.5c.21-1.14.1-7.19 2.48-12.45a29.46 29.46 0 0 1 7.95-10.7 12.3 12.3 0 0 1 3.47-2.24 28 28 0 0 0-3 3.47 55.24 55.24 0 0 0-3.34 5.68 13.63 13.63 0 0 0-.69 5.75c.24 2.2.86 2.75.86 3.3s-.69 1.69-.89 2.65a19 19 0 0 1-2.17 4.23 20.34 20.34 0 0 0-1.27 2.31.47.47 0 0 0-.05.12 11.68 11.68 0 0 0-1 4 58 58 0 0 0-.32 6.92zm13 12.87c-3.17-1.62-5.5-2.34-8.22-5.61a15.84 15.84 0 0 1-3.85-10.25 16.39 16.39 0 0 1 1.44-7.22c.24-.28 2.1-4 2.79-5.3s.79-2.61 1.38-3.51 1.34-.34 1.34 0a18.73 18.73 0 0 1-.34 2.61c-.21 1-1.75 4.4-2.34 6a4.29 4.29 0 0 0-.21 2.86 20.74 20.74 0 0 1 1.2-2.82c.34-.72 1.93-4.2 2.17-5.06s.83-3.51 1.44-3.47 1 1.69 1 2.41a19.87 19.87 0 0 1-.19 2.72.44.44 0 0 0 0 .17 4.57 4.57 0 0 1-.41 2c-.28.65-.69.45-1.93 1.1a3.92 3.92 0 0 0-2 3.65c.07 1.55 1 2.44 1.34 3.27s0 5.64 1.55 8.77 2.68 5.09 3.85 6 .79.1.65-.17-.79-1.52-1.79-3.42a29.75 29.75 0 0 1-2.2-6.3 6.07 6.07 0 0 1 0-3.34 15 15 0 0 0 1.44 1.18s.82.85 1.24 1.37a9.36 9.36 0 0 1 .86 3.07 23.05 23.05 0 0 0 1 5.61 20.13 20.13 0 0 0 2.1 4.58s-.11.71-3.27-.9zm5.23 1.38c-3.51-4.13-3.27-5.68-3.44-6.5s-.19-2.13-.36-3.33a6.39 6.39 0 0 0 .36.55 25.9 25.9 0 0 0 9.67 8.7 21.08 21.08 0 0 0 2.26 1 4.17 4.17 0 0 1 2.21 2.17c.58 1.82.1 2.44-.83 2.37s-6.33-.84-9.83-4.97zm-11.73 20.7c.55 0 1.27-.31 1.27.34a2.49 2.49 0 0 1-1.1 2 6.17 6.17 0 0 1-.6-2.32zM4.15 77.43a29.84 29.84 0 0 1-1.38-5.93c-.24-2.2-.72-5.54-.21-5.85s.76.1 1.1 1.65a23.82 23.82 0 0 0 1.62 4.89c.24.1.48 0 .21-.83a54.66 54.66 0 0 1-1.55-7.6c0-1.48-.07-3.1.69-3.47s.86.52 1.07 1.48 1.65 7.19 1.75 7.74a2.47 2.47 0 0 0 .38 1.27 9 9 0 0 0 0-3.13c-.17-1-1.51-6.95-1.48-8.12s.31-1.86.89-2 1.27.41 1.72 2 2 9.6 2.13 9.84.38.31.28-.34-1.68-10.07-1.68-10.07a.67.67 0 0 1 .69-.62c.69-.07 1.07.86 1.48 2.65s1 4.89 1.2 5.5a24.21 24.21 0 0 1 1 3.51 1.43 1.43 0 0 1-.34 1.24.59.59 0 0 0-.07.16 14.39 14.39 0 0 0-1.89 1.76 7.22 7.22 0 0 0-.86 3.06c.65-1.89 2.65-2.79 3.65-4s.79-3.61 1.17-5.54 1.24-3 2.06-2.79.41 1.27.21 2.17a38.2 38.2 0 0 0-.3 4.74 18 18 0 0 0 .34 3.54 9.88 9.88 0 0 1-.21 4.16 20.39 20.39 0 0 1-1.75 3.58 5.14 5.14 0 0 0-.55 2.15 7.18 7.18 0 0 1-4.47 1.88 7.88 7.88 0 0 1-3.23-.38s-3.13-6.44-3.68-8.29zm2.82 9.32c1.44.55 3.92.34 6.33-.07a4.93 4.93 0 0 0 2.85-1.18h.07c.23.52.76 1.74.89 2.17a1.37 1.37 0 0 1-.34 1.34 29.42 29.42 0 0 1-3.44 2.79 16.6 16.6 0 0 1-4.71 2 1.19 1.19 0 0 1-1.24-1.31 28.63 28.63 0 0 0-.69-3l-.62-1.72s-.1-1.27.9-1.01zm-5.5 6.06c-.1-.69 2.1-2.65 3-3.23s1.24-.14 1.24 0 1 2.27.07 3.2-3.24.73-3.24.73h-.13a1 1 0 0 0-.32 0 .83.83 0 0 1-.63-.7zm2.41 11.22a9.55 9.55 0 0 0-.89-2.82 1.42 1.42 0 0 1 .31-1.79c.65-.38 3.65-.62 5.16-1.17s1-.93 0-.79-4.71 1-5.47.65a3.21 3.21 0 0 1-1.2-1.62 1.18 1.18 0 0 1-.24-.93c0-.06 0-.13.08-.22.45-.12 1.32.21 3.46.15 2.34-.07 5.16-1.1 7.29-1.79a14.37 14.37 0 0 0 4.44-2.92 26.81 26.81 0 0 0 2.24-2v-.06.06l1.34-1.41s.1.83.28 1.55a7.75 7.75 0 0 1-.31 5.26c-.65 1.72-3.3 3-3.3 3a7.2 7.2 0 0 0 2.44-.89c1-.65 1.44-1.75 2.24-1.86 0 0 .86.15 1.31 1.82a19.64 19.64 0 0 0 .86 2.2c.07 2.75-2 4.51-3.1 5.44a12.78 12.78 0 0 1-6.12 2.34c-2.2.14-5.26.93-7.67.58s-2.95-1.31-3.16-2.78zM27.3 134.5c0-.93 1.48-19.68 1.65-21s1-9.25 1.72-14.11a68.38 68.38 0 0 0 .52-11.49c-.1-.41-.21-.1-.21-.1s-.1 5.4-1.24 5.3-1.79-2.2-1.79-2.2c-.34-.48-.24.1-.24.1s.93 3.82 1.14 5.26a35 35 0 0 1 .21 5.47c-.07 1.72-.62 7.05-1.1 11.39s-2.06 6.3-3.34 6.71-2.37.83-6.92-.86a16.7 16.7 0 0 1-8.26-6.36 10 10 0 0 1-1.8-4.44c.32 0 3.88-.43 6.36-.79a22.83 22.83 0 0 0 6.67-2 12.27 12.27 0 0 0 3.8-3.47 4.57 4.57 0 0 1 1.14 2.77 12.41 12.41 0 0 1 0 3.75c.62-.14.67-2.55.84-4.4s-.53-2.39-.31-2.51 1 .48 1.41 1.6a6.33 6.33 0 0 1 .36 2.22s.48-.31.26-1.81a4.6 4.6 0 0 0-1.67-2.8c-.46-.4-1-.26-1.12-1.08a41.58 41.58 0 0 0-1.24-4.27 3 3 0 0 0-1.86-2.27 4.89 4.89 0 0 0 .14-1.44 5.85 5.85 0 0 0-.58-2.68l-.31-2.55s3.34-6.09 4.3-7 3.54-4 6.43-5.2a17.16 17.16 0 0 1 4.23-1.41 30.16 30.16 0 0 1 4.3-.82h.86s2.4-.1 3.35-.08h1.48c0 .41.11 2.45.15 3.21s.45 3.72.46 5.69.34 4.8.43 5.9.22 2.12.36 3a5.6 5.6 0 0 0 1.18 2.77c.86 1.12 4.54.81 5.33.84s3.17-.09 4-.64 1.22-.53 1.34-1.79 0-6.74 0-6.71-.07-5.54-.09-6.33a33.46 33.46 0 0 1 .46-5.18 11.44 11.44 0 0 1 .4-1.17h1c.75 0 1.42-.16 1.86-.19 1-.07 2.7-.15 2.7-.15a36.3 36.3 0 0 1 4.49.31 20.66 20.66 0 0 1 6 2 21.47 21.47 0 0 1 4.89 3.82 24.24 24.24 0 0 1 4.25 4.41v.1a54 54 0 0 1 7.72 14.68c3.35 9.44 3.25 8.62 3.3 12.8a1.44 1.44 0 0 0 .46 1.29c.62.57 1.24 2.79 1.44 3.56s1.14 4.08.83 5-1.91 1.75-4.54 2.79-6.4.83-7.95.67-2.74-.83-2.94-2.06l-1.86-14.5a17.36 17.36 0 0 1-.1-3.92c.26-1 1-1.5 1-4.23s-.36-2.57-.36-1.65-.1 3.46-1.19 3.77c0 0-.36 0-.72-1.55s-2.09-8.2-2.09-8.2-.67-1.75-.52.31c0 0 1.39 7.53 2.06 10.68s2.46 19.46 2.46 19.46a1.53 1.53 0 0 1 .15 1.29c-.31.46-.77.41-1 1.08a5.42 5.42 0 0 0 .15 2.68 5 5 0 0 1-.26 2.48 4.89 4.89 0 0 0 .62 3.34c.41.58 1 1 .58 1.51a13.73 13.73 0 0 1-4.71 2c-1.27.17-6.92.83-9 1.07s-11.46.83-15.28.76-10.36-.72-12-.93-6.3-.31-6.3-.31c-1.14-.07-4.64.14-6.4 0s-1.98-.28-1.94-1.19zm18.47 3.75c.62.49 2.71 7.15 3.13 8.5-2.38-.13-4.94-.32-5.77-.41l-2.3-.29c.86-1.22 4.3-8.34 4.94-7.82zm-5 5.5c-.07.1-1 2-1.2 1.44s-2.46-6.74-3.06-8.38a36.38 36.38 0 0 1 3.78.29c.48.09 2.19.24 4.07.4-.67 1.16-3.55 6.14-3.61 6.23zm6-6l3.56.26h4.23c-.14.55-.65 2.24-1.14 4a10.91 10.91 0 0 1-2.65 4.47.65.65 0 0 1-.76 0zm9 .78c1.92 1.09 4.15 7 4.65 8.32-2.91.05-6.15.11-7.26.11h-1.1a91.56 91.56 0 0 0 3.63-8.46zm3.65 3.1a15.54 15.54 0 0 0-2.46-3.66c1.75 0 3.38-.05 4.21-.05h4.61c-.18.58-.52 1.69-1 3.09a25.81 25.81 0 0 1-3.13 5.26s-.88-1.92-2.29-4.71zm7.47-2.82c.38.16 5.33 6 6.12 6.89-2.58.42-6.42 1-7.53 1.05l-3.16.06c1.59-1.65 4.13-8.22 4.51-8.07zm1-1a51.94 51.94 0 0 0 6.92-.7c1-.18 1.9-.41 2.76-.65-.08.53-.24 1.49-.53 2.65-.45 1.79-2.79 5.68-3.2 5.68s-4.77-5.47-6.02-7.04zm-39.9 6.38l-.2-7.51a13.45 13.45 0 0 0 2.68.4c.75 0 2.14 0 3.37-.09-1.23 1.56-4.93 5.97-5.92 7.14zm1.37 2.21a2.29 2.29 0 0 1-.4 0 .7.7 0 0 1-.22-1.06s6-8.22 6.57-8 2.47 6.87 3 8.54a15.16 15.16 0 0 0-2.65 0 59.74 59.74 0 0 1-6.37.47zm5.69 29.33c.05 4.13 1.75 5.21 1.75 5.21-3.1-1.86-3.66-5.78-3.82-7.28s-.15-8.48-.19-9.1.83-1 1.48-1.1.14-.41.14-.41-.55-.14-1.55-2.17-.89-9.87-.93-11.9a2.75 2.75 0 0 1 .49-1.91 40.71 40.71 0 0 1 5.29-.16c2.92.21 9.39 1.38 10.8 1.34a49.62 49.62 0 0 1 5.22.06c1.23 1.81 1.24 8.35 1.44 12.75.21 4.64-.52 10.37-1.24 15.84s-4.34 5.6-4.34 5.6a3.65 3.65 0 0 0 .93-2.74c-.15-1.19-.57.21-.57.21s-.21 3.15-5.32 2.68-8-4.7-8.93-6.71-.71-.26-.71-.26zm16.33 22.06a3.38 3.38 0 0 0-.39-1.63 6.87 6.87 0 0 1 .83.09 3.8 3.8 0 0 1 2.37 1.72l.08.11a7 7 0 0 1 .38 1.38 19.56 19.56 0 0 0-3.33-1.72zm2.69 3.73a5.66 5.66 0 0 1-1.53-.18c-.05-.94-.71-1.95-.51-1.92s2.22 1 2.27 1.44a.91.91 0 0 1-.29.64zm-7.93-2.82a8.66 8.66 0 0 0 0-1.26c1.43.24 3.35.73 4.17 1.57a2.84 2.84 0 0 1 .73 2c-1.2-.28-2.38-.59-2.79-.66-.88-.15-2.63-.39-2.63-.39a1.9 1.9 0 0 0 .46-1.32zm-.13-2.4v-.57a.3.3 0 0 1 .32-.28 27.07 27.07 0 0 1 2.85.56 2.19 2.19 0 0 1 .75 1.16 16.05 16.05 0 0 0-3.92-.83zm8-2c-.83 1-1.82 1-3.89.79s-8.15-.86-8.15-.86a6.63 6.63 0 0 1-1.86-2.08 5.66 5.66 0 0 0 .89.36c1.44.45 6.43.38 9.43.21a7.47 7.47 0 0 0 4.3-1.62 7.22 7.22 0 0 1-.77 3.14zm-9.84 2h-3.04s-.13-.15.15-.36.69-.63 1-.85a16.71 16.71 0 0 1 2 0 .64.64 0 0 1 .52.55c-.11.58-.27.55-.68.58zm.28 2a3.08 3.08 0 0 1-.65 1.39h-4.64a.38.38 0 0 1-.44-.44 7.41 7.41 0 0 1 .9-1.65 1.23 1.23 0 0 1 1.24-.54h.29a16.69 16.69 0 0 1 2.55 0 1.23 1.23 0 0 1 .71 1.17zm10.35-9.27a9.1 9.1 0 0 1-5.23 1.15 18 18 0 0 1-7.67-2.06 27.94 27.94 0 0 0 7.84 0 13 13 0 0 0 5-1.59c-.05 1.05.01 1.97.01 2.43zm-.18-5c-.51.49-2.35 1.94-6.11 1.6a28.19 28.19 0 0 1-7.69-2 17.07 17.07 0 0 0 4.34.6 14.07 14.07 0 0 0 8.25-2.79s.52-.55.93.69a9.6 9.6 0 0 1 .23 1.84zm-16.43 1.08a4 4 0 0 1 .1-1.63c1.2 1 3.28 1.75 7.09 2.7a17.6 17.6 0 0 0 8.12-.21s.45.14-1 .65-7.81.88-10.81.6a7.06 7.06 0 0 1-3.37-1q-.11-.62-.18-1.17zm.46 2.59a14.53 14.53 0 0 0 3.47 1.64 21.93 21.93 0 0 0 11.32 1.31s-.45 1.55-6.81 1.31c-4.6-.17-6.49-1-7.18-1.38-.4-1.08-.66-2.08-.86-2.94zm-1.8 8.45a4.65 4.65 0 0 1 2.29-1l-.19.06 1.64-.07a4.39 4.39 0 0 0-.7.47 2.18 2.18 0 0 1-1.7 1l-1.17.17s-.78-.2-.23-.68zm-1.98 2.35a16.45 16.45 0 0 1 3.27-1l-1.16 2s-2.09.18-2.63.31-1.09.21-1.22-.12a3.55 3.55 0 0 1 1.74-1.19zm-3 3.38c.83-.13 3.71-.59 4.09-.64s-.88 2-1 2.71-.05.9-.44.9-2-.47-2.66-2.82zm3 7.44h-.18a7.78 7.78 0 0 1-2.19-1.25 4 4 0 0 1-1.07-3.26 9.28 9.28 0 0 0 2.78 1.47 2.79 2.79 0 0 0 0 1.11c.08.85 1.27 1.88.62 1.93zm6.53.44c-.41.52-3.07.88-4.36-.26a3.89 3.89 0 0 1-1.24-2.75l.7.17a27.22 27.22 0 0 0 5 .5 3.44 3.44 0 0 1-.14 2.34zm.05-3.77a20.28 20.28 0 0 1-4.64-.13 1.61 1.61 0 0 1-.85-1.73 9.9 9.9 0 0 1 1.37-2.66 1.31 1.31 0 0 1 1-.52h3.79a2.09 2.09 0 0 1 .29 0h.13a.75.75 0 0 1 .69.69c0 .72-.67 3.48-.67 3.48a1.12 1.12 0 0 1-1.15.87zm8.28 3.1a1.6 1.6 0 0 1-.9.87c-1.79.06-3.12 0-3.12 0l-1.42.09a1.37 1.37 0 0 1-1-.69 1.74 1.74 0 0 1 .2-1.91l1.22-.05c1.53-.09 4.57 0 5.72 0-.11.22-.36.87-.74 1.69zm-2.68-3c-1.16 0-3.15.21-3.23-.7a11.85 11.85 0 0 1 1.06-3.38.58.58 0 0 1 .35-.5l.51.08s4.44.72 4.83.8.77-.13.59 1.55a1.14 1.14 0 0 0 0 .46 3.29 3.29 0 0 1-.19 1.22c-.28.58-2.8.5-3.96.5zm5.09 3.53l-.54.08c-.3 0-.56 0-.56-.17a20 20 0 0 1 1.07-2.35c.76-.06 1.6-.12 2-.2.72-.13.93-.31 1.06 0 0 .7-.06 2.18-3.07 2.67zm2.79-6a8.59 8.59 0 0 0 .06 1.07 1.28 1.28 0 0 1-.92.85c-1.24.34-1.83.31-1.75-.77.06-.87.09-1.7.1-2a6.86 6.86 0 0 0 1.65 0 1.79 1.79 0 0 0 1.15-.64v.08a5.82 5.82 0 0 0-.33 1.45zm1.2-3.68a13.88 13.88 0 0 1-.72-4.13v-.33a34.28 34.28 0 0 0 .09-4.79c-.14-2.86.48-7.91.14-9.5a16.24 16.24 0 0 1-.44-3.25 29.15 29.15 0 0 0 .88-3.88c.27 1.13.68 2.82.91 3.79 0 0-.28 5.13-.34 6.16s0 7.16.1 8.91.31 3.89-.07 5.13l-.59 1.93zm.75 2.58a2.49 2.49 0 0 1 .16-.32 2.14 2.14 0 0 0 1.55.67 5 5 0 0 0 1.2-.05 5.36 5.36 0 0 0 .16 1.14c0 .34.23 1.47-.21 1.73a2.19 2.19 0 0 1-1.39-.1 2.57 2.57 0 0 1-1.51-3.03zm4.72-14.72a51.4 51.4 0 0 0 9.15.41 30 30 0 0 1-5.64 1.51c-4.75.3-6.91-.7-7.57-1.11v-2.58a9.2 9.2 0 0 0 4.02 1.81zm-4-4v-1.25s.14-1.82 1.27-1.38a12.55 12.55 0 0 0 2 1.56c2.79 1.75 7.38 1.14 9.6 1a8.39 8.39 0 0 0 1.14-.17 23.29 23.29 0 0 1-9.34 1.72c-4-.21-4.71-1.44-4.71-1.44zm10.59 13.39a27.79 27.79 0 0 1 4.5.11l1.16 2.16a13.13 13.13 0 0 0-2.27-.18 33.42 33.42 0 0 0-3.35.26 3.58 3.58 0 0 1-.34-1.42 1.64 1.64 0 0 1 .24-.87zm-.45-1a.66.66 0 0 1-.26-.56 1.58 1.58 0 0 1 .36-.54c.14 0 .88-.08 1.64-.11a3.51 3.51 0 0 1 1.48.6c.21.27.29.44.38.58l-1.29-.07a16.66 16.66 0 0 0-2.36.14zm1.66-2a67.64 67.64 0 0 1-8 .93c-1.72.07-2.75.41-3.37-1.89a16.17 16.17 0 0 1-.38-2.93c1.11 1.35 3.42 2 6.58 2.28a50.09 50.09 0 0 0 7.7 0 3.37 3.37 0 0 1-2.59 1.62zm-3.16 2.22a31.43 31.43 0 0 0-3.65.77.64.64 0 0 1 0-.75s.68-.75 3.67-.93a1 1 0 0 0-.08.92zm-1.65 1.32a14.88 14.88 0 0 1 1.69-.32 3.2 3.2 0 0 0-.1 1 5 5 0 0 0 .34 1.42c-1 .13-5.26 1-5.26 1a4.32 4.32 0 0 1 1-2.33 21.39 21.39 0 0 1 2.26-.75zm-3.71 0a23.58 23.58 0 0 0-3.31 1.81c0-.4.31-2.33 1.51-2.85a5.45 5.45 0 0 1 2-.49 2 2 0 0 0-.26 1.59zm-.65 1.61a7.65 7.65 0 0 0-.56 2s-1.7.18-1.7-.31a1.36 1.36 0 0 1 .61-.87c.23-.15.84-.43 1.59-.76zm.66 10.16a.58.58 0 0 1-.47.25 4.64 4.64 0 0 1-2.64-.85 4 4 0 0 1-.77-1.85c0-.57.14-.32.14-.32a4.44 4.44 0 0 0 2.27.54h.62a.55.55 0 0 1 .34.3s.72 1.5.51 1.93zm.13-4.28v-2.52c1.19-.24 2.43-.57 3.1-.68s1.47-.3 2.72-.5c.48 0 .51.24.51.24a22 22 0 0 1 1 3.59.61.61 0 0 1-.59.72 45.92 45.92 0 0 1-5.52.18c-1.11-.23-1.17-.62-1.22-1.08zm7.95 4.15a1.23 1.23 0 0 1-1.08.58h-4.05a1.81 1.81 0 0 1-1.57-1.09 6.55 6.55 0 0 1-.53-1.48c1.34 0 2.85 0 4.14.09.85.06 1.83.1 2.9.11.49.26.3 1.23.19 1.74zm.88-3.84a18.24 18.24 0 0 1-1-3.66.57.57 0 0 1 .36-.66c1.07-.11 2.27-.2 3.57-.21h1.85c.95.54 1.38 2.23 1.61 3.31s-.34 1.44-.67 1.57a16.53 16.53 0 0 1-3.2.26c-1-.04-2.26-.2-2.52-.64zm6 3.25a3.25 3.25 0 0 1-1.67 1.3l-.58.06a22.33 22.33 0 0 1-2.3 0 1.81 1.81 0 0 1-.72-1.73 2 2 0 0 1 .21-.94c1.09 0 2.24-.1 3.4-.22a13.44 13.44 0 0 0 2.24-.41 3.62 3.62 0 0 1-.54 1.89zm4.84-4.07a6.21 6.21 0 0 1-1.13 3.52 4.51 4.51 0 0 1-2.45 1.06 4 4 0 0 0 .58-1.14 3.4 3.4 0 0 0 .18-1.78c.83-.35 1.42-.72 1.91-1a2.33 2.33 0 0 0 .91-.71zm-2.29 0c-1.06.57-1-.13-1.16-.83a20.48 20.48 0 0 0-1.2-2.75 30.71 30.71 0 0 1 4.26.76 3.51 3.51 0 0 1-1.86 2.79zm.46-5.21l.18.28c0 .49-.36.34-.36.34l-3.48-.54-1.18-2h.09c3.69.65 4.79 1.92 4.79 1.92zm-5.5-4.27a4.89 4.89 0 0 1 1.65.55.53.53 0 0 0 .23.14.61.61 0 0 1 .18.65l-2.31-.21-.55-.53a2.49 2.49 0 0 1-.47-.75 4 4 0 0 1 1.31.12zm-.67-4.4c-.83.51-2.8 1.34-7.25 1.1-5.26-.28-6.09-1.48-6.09-1.48s1 .55 4.16.41 5.37-1.17 7.09-1.62a7.47 7.47 0 0 0 3-1.59 14.17 14.17 0 0 1-.91 3.18zm1.21-5v.27c-1.1.89-3.34 1.51-8.32 1.24s-6.5-1.58-6.5-1.58c3.23.72 5.33.52 10.39-.45 2.79-.53 3.95-1.33 4.42-1.93a6.57 6.57 0 0 1 .03 2.5zm6.54-28.26a18.26 18.26 0 0 1-1.86 5 1.68 1.68 0 0 1 1 1.34c.21 1.08.52 9.91-.72 12.9s-2.84 3.77-3.41 4.08-.05-.1 1-2a15 15 0 0 0 1.08-7.07c-.21-1.39-.57 0-.77.93s-.26 6.09-3.51 8.21a11.44 11.44 0 0 1-9.19 1.19c-1.5-.67-2.12-3.61-2.06-4.44s-.41-.31-.21 1.14.26 2.79 1 3.51c0 0-2.53.72-4.33-4.59s-1.9-11.33-2.06-12.63c0-.69.06-1.32.09-1.82.19-2.42.68-12.5.36-14.77a42.71 42.71 0 0 0 11.56-.21c1.58-.41 5.71-1.14 10.18-2l.8-.17a1.09 1.09 0 0 1 .73 1c.28 1.41.85 8.17.33 10.44zm.72-14.74a3.37 3.37 0 0 1-1.73 1.35c-1.7.47-3.59 1-4.5 1.09h-.1c1.41-1.32 3.41-8.17 3.61-8.2s3.18 4.67 2.74 5.8zm1.81.22c-.43-.29-.79-1.61-1.16-2.73a26.47 26.47 0 0 0-2.78-4.43 31.94 31.94 0 0 0 4.17-1.71 54 54 0 0 1 .81 6c.14 2.18-.5 2.65-1.03 2.91zm.77-11.47h-.07a3.73 3.73 0 0 1-.45-1.64c0-1 1-1.39.77-3.2s-.57-2.22-.31-2.94 1.19-.62 2.37-.36a30.11 30.11 0 0 0 7.64-.21 18.92 18.92 0 0 0 5.47-2.27 1.49 1.49 0 0 1 2 .88c.46 1.14.67 2.32-.46 3.35a10.4 10.4 0 0 1-5.11 2.06 14 14 0 0 0 3.46.05 6.7 6.7 0 0 0 1.7-.62c.26-.15.77-.36 1 .67s.77 1.75.36 2.79a4.57 4.57 0 0 1-1.19 1.67c-1.07 1.1-4.75 2-5.64 2.24s-6 .86-8.7-.34-2.82-2.09-2.82-2.09zm1.41 5.54c-.6-.54-.44-1.46-.62-2.39-.41-1 .65-.83.65-.83s.31.89 3.61 1.38a18.35 18.35 0 0 0 8.26-.65l.73-.2c.58.15.68.66 0 1.34a8.36 8.36 0 0 1-2.68 1.38c-1.55.65-3.82.72-6 .89s-3.25-.26-3.93-.88zm3.2 9.39a1.05 1.05 0 0 1 1.16-.51h.06s1.39 1.11 1.29 1.68c0 0-3-.21-3.65.55a10.8 10.8 0 0 1 1.16-1.68zm1.84 61.99a1.85 1.85 0 0 1-2.13-2.17 1.17 1.17 0 0 1 1-1.18 6.24 6.24 0 0 0 1.57.1.92.92 0 0 1 .81.48c.16.58.25 2.58-1.25 2.77zm46.72-.83c-1.52 0-1.47-2.06-.89-2.5h2.5a1.4 1.4 0 0 1 .58.93c.03.77-.54 1.59-2.19 1.55zm4.44-48.74s-.14 33.58-.1 36.26 0 5.54-.89 7.19-2 1.58-2 1.58-34.85.31-40.94.31c-1.18 0-2.2 0-3.09-.07h-.11a19.61 19.61 0 0 1-4.88-.65 3.28 3.28 0 0 1-3-2.31c-.72-2.27.41-7.09.31-8.84s-.24-40.12-.24-40.12-.14-2 .69-2.65a5.93 5.93 0 0 1 3.27-.69 8.47 8.47 0 0 1 1.83.13l.24.25c.28.31 2 2.61 2.12 2.68s.46.85-.18.93a4.71 4.71 0 0 0-2.63.39 3.41 3.41 0 0 0-1.57 2.63.81.81 0 0 0 0 .23l-.07 39.24a6.47 6.47 0 0 0 1 3.47 2.51 2.51 0 0 0 2.48 1.17l16.69.2a2 2 0 0 0 2.11 1.5 2.14 2.14 0 0 0 1.89-1.31.55.55 0 0 1 .55-.13s10.3-.1 13.75-.05 6-.26 7.33-1.14a3.46 3.46 0 0 0 1.26-2.68s-.18-37.44-.31-39.25-.41-2.68-1.21-3.43-3.15-.72-3.15-.72l-34.45-.25c-.21-.13 0-.41-.12-1.09a13.54 13.54 0 0 0-.52-1.89.47.47 0 0 1 .11-.32c.21-.23 3.08-.12 4.13-.07l.36.17c.52.23 4.72 1.44 5.6 1.94a1.78 1.78 0 0 0 2.3 0 1 1 0 0 0 .34-1.19 1.16 1.16 0 0 0 .44-.85c1.69 0 27.33-.49 27.33-.49 2.44.41 2.68 1.34 3.06 2.86a50.73 50.73 0 0 1 .27 7.03z"/></g><g fill="#692f23"><path d="M2.55 93.5z"/><circle cx="29.11" cy="138.93" r=".71"/><circle cx="34.03" cy="143.33" r=".71"/><circle cx="40.19" cy="139.05" r=".71"/><circle cx="45.36" cy="144.29" r=".71"/><circle cx="50.76" cy="140.26" r=".71"/><circle cx="56.35" cy="144.77" r=".71"/><circle cx="61.56" cy="139.87" r=".71"/><circle cx="67.84" cy="144.24" r=".71"/><circle cx="73.35" cy="139.46" r=".71"/><circle cx="78.46" cy="142.48" r=".71"/><circle cx="82.23" cy="137.08" r=".71"/><circle cx="49.12" cy="83.95" r=".52"/><circle cx="57.7" cy="75.9" r=".52"/><circle cx="53" cy="73.73" r=".52"/><circle cx="55.09" cy="67.79" r=".52"/><circle cx="51.73" cy="69.58" r=".52"/><circle cx="48.36" cy="67.97" r=".52"/><circle cx="45.33" cy="69.62" r=".52"/><circle cx="58.49" cy="69.46" r=".52"/><circle cx="61.73" cy="67.26" r=".52"/><circle cx="53.56" cy="80.63" r=".52"/><circle cx="57.86" cy="83.45" r=".52"/><circle cx="53.62" cy="87.49" r=".61"/><circle cx="57.49" cy="90.53" r=".61"/><circle cx="50.56" cy="90.88" r=".61"/></g></svg>