<svg xmlns="http://www.w3.org/2000/svg" width="150" height="150" viewBox="0 0 150 150"><g data-name="за опаздание"><path fill="none" d="M0 0h150v150H0z"/><path d="M67.48 4.79s4-1.65 4.76-2.09a19.13 19.13 0 0 1 6.52-1.36c2.33 0 5.11-.63 6.37-.49a4 4 0 0 1 2.09.92h2.67a11.91 11.91 0 0 1 3.55.92l5.91 1.75c1 .29 2.33 1.75 3.6 2.38s7.39 6.75 8.34 8.7c.86 1.79 4 6.22 4.27 7.53s.68 8.2-.95 11.86c-1.87 4.19-6.14 8-8.33 9a40 40 0 0 0-5.2 3.4A22.87 22.87 0 0 1 95 49.09a12.89 12.89 0 0 0-2.63.37c-.37.11-1.65.21-1.89.31S90 47 90 47s-6 1.75-9.92 1.46a49.47 49.47 0 0 1-7.29-1.12s1.48 2.11 1.09 2.46-2.89.39-4 .24-5-1.29-5-1.29l-2.21-1.05a29.6 29.6 0 0 0-2.72-1.77 71 71 0 0 1-6.86-8.46c-.92-1.7-1.7-5.64-1.75-8.8a29.79 29.79 0 0 1 2-10.36c1.31-3.6 4.79-7.63 6.34-8.56s5.59-3.21 5.59-3.21z" fill="#e09c51"/><path d="M76.79 14.48a6.85 6.85 0 0 0-1.44 2c-.31.8-.49 3.72-.78 4.16s-1.11.53-1.66.47a4.76 4.76 0 0 1-1.51-.75c-.07 0-3.59 1.06-4 1.09s-4.83 1.08-5.12 1.15-2.19.47-2.28.51a3.75 3.75 0 0 0-1.88 2.32 4.19 4.19 0 0 0 .18 2.9 3 3 0 0 0-1.11 1.4 5.35 5.35 0 0 0 .81 3.35 14.5 14.5 0 0 0 2.52 1.75c-.2-.09.82 2.24 2.66 4.87a20.28 20.28 0 0 0 9.59 7.55c5.25 2.19 12.53 1.13 12.71 1.11a20.49 20.49 0 0 0 7.88-2.77s4.1-3 5.27-4.19a27.9 27.9 0 0 0 4-5.25 6.71 6.71 0 0 0 .51-1.42s1.48.15 2.55-1.79.49-4.18-.38-4.65-2.55-.13-3 0-1.71-1-2-2.33-3.59-4.59-3.59-4.59a20 20 0 0 1-3.85-.07c-1.46-.26-4.3-.58-5.38-.89s-4.61.16-5.31.33S79 22 78.82 21.83s-.09-1-.09-1.39-1.94-5.96-1.94-5.96z" fill="#fbdfcb"/><path d="M73.54 29a2.13 2.13 0 0 0-.73-1.47 2.79 2.79 0 0 0-2-.8 18.19 18.19 0 0 0-3.15 0 8.8 8.8 0 0 0-1.54 1.46c-.43.47 0 .8.21.94a4.45 4.45 0 0 0 1.74.83 19.19 19.19 0 0 0 2.8-.09c.56-.12 1.62-.56 2-.57s.61-.15.67-.3z" fill="#fff"/><path d="M71.51 27a1.56 1.56 0 0 1 .44 1.35 2.24 2.24 0 0 1-1.68 1.5 2 2 0 0 1-1.88-.64c-.11-.33-.71-1.23-.55-1.68s2.6-2.27 3.67-.53z" fill="#abd2f0"/><path d="M84.45 28.86a2.13 2.13 0 0 1 .73-1.47 2.79 2.79 0 0 1 2-.8 16 16 0 0 1 3.12.41 5.86 5.86 0 0 1 1.6 1c.43.47 0 .8-.21.94a5.7 5.7 0 0 1-1.9.56 18.17 18.17 0 0 1-2.64.18c-.56-.12-1.62-.56-2-.57s-.64-.11-.7-.25z" fill="#fff"/><path d="M87 27a1.56 1.56 0 0 0-.44 1.35 2.24 2.24 0 0 0 1.68 1.5c.8.16 2-.1 2.07-.43a4.4 4.4 0 0 0 .36-1.9c-.16-.52-2.6-2.34-3.67-.52z" fill="#abd2f0"/><path d="M52.2 21.31a18.29 18.29 0 0 0 2.55-2.73c.77-1.17 2.59-4.49 4.38-6.13A20.87 20.87 0 0 1 62.22 10l-1.85 3.51a11.66 11.66 0 0 1 2.56-2.2c1.29-.63 1.65-.39 1.65-.39s-1.12 2.42-1.37 3.23a30.85 30.85 0 0 0-.8 4.76c0 .58.18 1.57.18 1.57s.44-4.27 2-6.6 2.44-4.3 6-6.2 4.23-2 4.81-1.9 0 1.2 0 1.2-1.13 3-1.24 3.66a7 7 0 0 1 1.74-2.49 22 22 0 0 1 2.66-2S77 10.77 77 12.2s.66 5.54.66 5.54l.69 1.82a15.41 15.41 0 0 1 1-6.6c1.35-3.28 2-6.34 4.49-7.11a3.63 3.63 0 0 1 4.46 1.68 15.52 15.52 0 0 1 1 3s.11-2.55 0-3.14.8-.69 1.28-.55a8.18 8.18 0 0 1 4.34 3.43 21.8 21.8 0 0 1 2.13 6.59s.71-5.13.17-6.08a18.16 18.16 0 0 0-2.82-4.1s-.21-.83 1.36-.54a10.88 10.88 0 0 1 4.14 1.41 10.92 10.92 0 0 0-1.63-1.67c-.91-.73-6.33-3.75-6.55-3.89a17.64 17.64 0 0 0-2.59-.36l-1.68-.07-1.34-.74-4.92.55L79.37 1 73.1 2.13l-4.78 2.15-4.38 3.07-2 .77-4.81 4.19a58.62 58.62 0 0 0-3.53 5.32c-.11.58-1.5 3.75-1.5 3.75zM54.72 23.14s-1.68 5-1.39 8.79a26.26 26.26 0 0 0 2.48 8.75c.33.33-1.6-1.31-1.71-1.39a40.15 40.15 0 0 1-2.26-5.8c-.33-1.5-.51-5.14.22-6.67a13.37 13.37 0 0 1 2.66-3.68z" fill="#e9b87f"/><path d="M64.07 54.13a46.39 46.39 0 0 1 4.72-2.67 35 35 0 0 1 4.13-1.31l1-.15-.15-2.43s5.3 1 6.66 1a67.88 67.88 0 0 0 7.44-.88 5.5 5.5 0 0 0 1.9-.88l.34 2.82a34 34 0 0 1 5.2.78s4.47 1.31 6.76 3.55a43.15 43.15 0 0 1 6.13 7.88c.83 1.6 3.26 8.07 3.84 9.92s1.36 5.11 1.46 5.79 1.46 5.25 1.65 6a21.2 21.2 0 0 0 1 2.14 11.48 11.48 0 0 1 .44 3.5c0 .53 1 1.75.39 2.92a6.48 6.48 0 0 1-4.28 3.06s.29 1.46-.19 1.8a9.87 9.87 0 0 1-3.74 1.22 16.86 16.86 0 0 1-3.74-.44s-1.26-.24-1.26-.44a3.55 3.55 0 0 1 .44 2.29c-.15 1.26 0 2.29-.88 2.38s-7.39 1.7-8.65 2a63.4 63.4 0 0 1-6.9.58c-.19 0-6.76-.1-7-.19l-1.56-.58a37.61 37.61 0 0 0 3.45-3.31c.68-.92 4.86-7 5.25-9.53s1.41-8.65 1-13.47-4.57-11.86-8-15a34.51 34.51 0 0 0-16.85-8.35z" fill="#fff"/><ellipse cx="88.7" cy="83.54" rx="3.1" ry="3.45" transform="rotate(-3.46 88.61 83.536)" fill="#fd8204"/><ellipse cx="72.15" cy="56.15" rx="3.1" ry="3.45" transform="rotate(-19.51 72.12 56.145)" fill="#fd8204"/><path d="M66.42 52.89c.64 1.79-.08 3.86-1.69 4.43a3.29 3.29 0 0 1-4.07-2.21c3.07-.65 3.65-1.45 5.76-2.22zM102.91 84.3a2.6 2.6 0 0 1-2 1.32 3.34 3.34 0 0 1-.4-6.57 2.43 2.43 0 0 1 1.57.47c.73.55 1.19 4.19.83 4.78z" fill="#fd8204"/><path d="M89.23 82.17a27.78 27.78 0 0 1-28 27.78 27.89 27.89 0 1 1 28-27.78z" fill="#e7c3a0"/><ellipse cx="61.27" cy="82.44" rx="22.64" ry="22.1" fill="#f4e8db"/><ellipse cx="61.31" cy="107.14" rx="1.07" ry="1.04" fill="#f4e8db"/><ellipse cx="78.92" cy="99.92" rx="1.07" ry="1.04" fill="#f4e8db"/><ellipse cx="43.73" cy="99.85" rx="1.07" ry="1.04" fill="#f4e8db"/><ellipse cx="36.3" cy="82.27" rx="1.07" ry="1.04" fill="#f4e8db"/><ellipse cx="43.63" cy="64.55" rx="1.07" ry="1.04" fill="#f4e8db"/><ellipse cx="61.35" cy="57.36" rx="1.07" ry="1.04" fill="#f4e8db"/><ellipse cx="79.03" cy="64.55" rx="1.07" ry="1.04" fill="#f4e8db"/><ellipse cx="86.18" cy="82.27" rx="1.07" ry="1.04" fill="#f4e8db"/><path d="M73 129c-.25.19 1.68 8.31 1.68 8.31s3.72 1.6 6.49 1.39 3.35-1.6 3.35-1.6a8.34 8.34 0 0 0 1.17 1.17c.44.29 7.44-.58 7.44-.58a11 11 0 0 0 2.41-.95c0-.22 1.53-3.94 1.53-3.94a24 24 0 0 0 .15-4.08c-.22-.36-2.77.88-4.38.88s-4.08.07-5.32-.66-2.11-1.31-2.11-1.31a11.12 11.12 0 0 1-4.41 1.8 14 14 0 0 1-6.13-.51c-1.7-.66-1.63-.15-1.87.08z" fill="#d2a274"/><path d="M66 136.21a12.86 12.86 0 0 1 4.45.29 62.11 62.11 0 0 0 7 2 10.72 10.72 0 0 0 5.69-.44c2-.95 2.19.51 2.19.51l4.89-.58c1.24-.15 4.81-.8 6.2-.36s3.08 2.37 3.58 2.89 2.63 3.28 2.19 4.74a5.8 5.8 0 0 1-4.89 3.5c-2.41.15-8.31.88-10.21.51s-2.26-1.46-2.84-3.28l-.58-1.82a16 16 0 0 1-3.57.58c-1.53 0-8.17 1.9-10.43 1.9a28.39 28.39 0 0 1-6.56-.66s-1.82-1.68-2-3.06a6 6 0 0 1 .88-4.3 6.22 6.22 0 0 1 4.01-2.42z" fill="#efb000"/><path d="M79.22 104.42s6.56.22 7.73.15a57.16 57.16 0 0 0 9.12-.8c3.21-.73 5.11-1.53 5.47-.15s.66 6.49 0 8.17a8.92 8.92 0 0 0-.44 3.87c0 .8.44 8.1-.66 9.55s-1.31 2.7-4.16 3.28-3.65 1.39-5.62 1.09-3.28-.22-4.08-1.09a9 9 0 0 0-1.46-1.31 4.11 4.11 0 0 1-2.84 1.9c-2.19.51-3.65 1-6.34.07a12.61 12.61 0 0 1-3.79-1.9 17.17 17.17 0 0 1-2.48-5.69 58.24 58.24 0 0 1-.22-8.24l-1.31-3.87s5-1 6.42-2.33a22.23 22.23 0 0 1 4.66-2.7z" fill="#fd8204"/><path d="M99.72 103.54s.18 3.79.22 4.81a20 20 0 0 1-.07 4.16 26.12 26.12 0 0 0-.4 4.59c0 .95.26 5.32-.07 6.27a15.92 15.92 0 0 1-.8 1.86 5.34 5.34 0 0 1 .11 1.9c-.18.58.62-.07.95-.77a5.38 5.38 0 0 0 1.13-2.63 59.39 59.39 0 0 0 .26-7.33 28.91 28.91 0 0 1 .47-4.92c.11-.51.29-6.05.22-7.29s-1.44-1.96-2.02-.65zM94.32 104.38s.33 2.44.62 3.54a21.49 21.49 0 0 1 .91 6 42.69 42.69 0 0 0-.4 5.11c0 2 .22 5 .18 6.16a9.67 9.67 0 0 1-.26 3c-.33.8 2.11-1.6 2.11-1.6s.18-6.45.29-8.06.66-3.9.66-5.58-.8-4.85-.95-6.31a11.09 11.09 0 0 1 .22-3.06zM88.81 105s1 4.63 1.53 7 .36 6.56.73 8.68.33 3.68.51 5.18.55 3.54.55 3.54 1.82-.07 2.11-.47-.44-7.26-.66-8.42 0-4.38-.15-5.58-1.06-6.49-1.28-7.26a10 10 0 0 1-.15-3c.13-.25-3.19.33-3.19.33zM83.78 104.78s.66 3.94.8 4.63 1.2 5.21 1.53 6.49.62 6.56.69 7.95.44 4.3 1.64 5.21a2.4 2.4 0 0 0 2.22.51 15.44 15.44 0 0 1-1.17-4.67c-.4-3.17-.33-6.38-.58-7.73s-1-7.29-1.68-8.9a10.09 10.09 0 0 1-.66-3.61zM80 105.07s.62 3.17.8 4.16 1.2 5.32 1.42 6.53.62 4.59.95 6.56a29.76 29.76 0 0 1 .69 4.85 6.57 6.57 0 0 1-.18 1.35l-2 .84s0-.55-.11-1.93-.95-5.65-1.17-7.15-1-7.33-1.24-8.46-.95-5.87-.73-6.82 1.57.07 1.57.07zM76.05 106.35s1.57 7.84 1.82 8.53.44 3.54.77 5.51.95 5.58 1.2 6.64.69 2.15.47 2.48-2 0-2 0a9.36 9.36 0 0 1-1.68-4c-.29-2.26-.77-6.67-1-8.2S74 107.44 74 107.44s1.58-1.31 2.05-1.09zM71.27 108.54s.84 3 1.2 3.72a9.08 9.08 0 0 1 .88 2.66c.22 1.2-.15 3.39.29 5.4s1.13 6.09 2 7.58 1.31 1.42 1.31 1.42a32.28 32.28 0 0 1-3.68-1.39c-1-.55-2-7.11-2.15-8.79s0-4.89-.29-5.36-1.71-3.57-1.46-4.56 1.9-.68 1.9-.68z" fill="#e16702"/><path d="M105.59 98.07a32.38 32.38 0 0 0-.88 3.39c-.29 1.31-.44 3.9-.77 4.59s-.62.95-.55 1.28.77.36 1.46-.18a21.35 21.35 0 0 0 2-2 3.35 3.35 0 0 1 .29 2 3.92 3.92 0 0 1-1.42 2.84c-.62.4-.44.8-.36 1a3.45 3.45 0 0 0 2.55-.36 9.73 9.73 0 0 0 3.39-3.54 8.79 8.79 0 0 0 .91-5.62c-.33-1.35-1.2-3.68-1.2-3.68z" fill="#fbdfcb"/><ellipse cx="92.42" cy="60.68" rx="3.1" ry="3.45" transform="rotate(-19.51 92.391 60.678)" fill="#fd8204"/><path d="M101.73 54.2a3.12 3.12 0 1 1-5.2-3.38c2.35 1.18 3.88 1.6 5.2 3.38z" fill="#fd8204"/><ellipse cx="95.78" cy="73.37" rx="3.45" ry="3.1" transform="rotate(-69.68 95.775 73.361)" fill="#fd8204"/><path d="M109.63 80.95a3.21 3.21 0 1 1 3.46-5.3c.56 1.38.7 2.4 1.39 4.69a3.48 3.48 0 0 1-4.85.61zM104 64.39a3.21 3.21 0 1 1 1.93-6c.91 1.18 1.32 2.13 2.58 4.15a3.48 3.48 0 0 1-4.51 1.85z" fill="#fd8204"/><ellipse cx="95.92" cy="91.82" rx="3.1" ry="3.45" transform="rotate(-3.46 95.819 91.707)" fill="#fd8204"/><path d="M87.54 23.09s1.53.18 2 .3a18.81 18.81 0 0 1 2.81 1.09c.53.3 1 .56.56.09a5.88 5.88 0 0 0-2.92-2 3.61 3.61 0 0 0-2.54.09c-.05.07-.45.34.09.43zM65.15 24.82s.09.1.79-.3a9.92 9.92 0 0 1 3.12-1c1.13-.16 2-.17 2.16-.27s.4-.15.22-.43-.72-.41-1.43-.38a7.73 7.73 0 0 0-4 1.41c-1.27.93-.86.97-.86.97zM74.17 28.7a6 6 0 0 0-1.73-1.9 4.22 4.22 0 0 0-2.94-.86 6.81 6.81 0 0 0-2.82.53 4.19 4.19 0 0 0-1.3 1.69.71.71 0 0 0 .15.63 2.54 2.54 0 0 0 .53.5 9.32 9.32 0 0 0 2 .82A9.34 9.34 0 0 0 71.4 30c.72-.15 1.67-.57 1.86-.57s.67.13.81 0 .36-.24.1-.73zm-5.85.89a2.63 2.63 0 0 1-.79-.14 5.17 5.17 0 0 1-1.06-.71.5.5 0 0 1-.14-.34c0-.17.27-.57.57-.94a2.15 2.15 0 0 1 .77-.55c.27-.12.39-.08.35 0a2 2 0 0 0-.31 1.14 1.84 1.84 0 0 0 .75 1.4s.05.12-.15.13zM71.63 28a1.16 1.16 0 0 1-.63 1.16 2.18 2.18 0 0 1-1.7.08 1.4 1.4 0 0 1-.82-.93 1.55 1.55 0 0 1 .12-1.18.51.51 0 0 1 .2-.13.3.3 0 0 1 .2 0c.23.1.16.2.14.25s0 1 0 1a1 1 0 0 0 .83.55.85.85 0 0 0 .88-.61 1 1 0 0 0-.08-.63.33.33 0 0 1 .42-.42c.39.06.46.61.44.86zm1.77 1.07c-.12.05-.51-.2-.78-.15a2.54 2.54 0 0 0-.67.27c-.07 0-.12 0-.1-.07a1.35 1.35 0 0 0 .36-.88 2.12 2.12 0 0 0-.27-1.33 3.89 3.89 0 0 1 1.35 1.42c.22.48.23.73.11.78zM92.39 28.19A17.37 17.37 0 0 0 91 26.88a4.42 4.42 0 0 0-1.63-.65 5.66 5.66 0 0 0-3.52.08 4.24 4.24 0 0 0-1.68 2.32 1.24 1.24 0 0 0 0 .64c.09.4.51.29.53.3a4.44 4.44 0 0 1 1.19.12l2.16.51a6.24 6.24 0 0 0 2.54-.09 4 4 0 0 0 2.09-1.17c.18-.27-.08-.49-.29-.75zM87 29.51c-.35-.09-1.37-.52-1.73-.57a.75.75 0 0 0-.4 0c-.21 0-.12-.3-.12-.3l.15-.34a3.57 3.57 0 0 1 1-1.06 3.4 3.4 0 0 1 .92-.49c0 .07-.18.2-.24.32a2.08 2.08 0 0 0-.19 1 1.84 1.84 0 0 0 .68 1.38zm3.17-1.34a1.42 1.42 0 0 1-.92 1.25 1.61 1.61 0 0 1-2-.63 1.36 1.36 0 0 1-.05-1.45s.1-.16.22-.16a.57.57 0 0 1 .41.13c.1.1 0 .29-.07.52a.76.76 0 0 0 .65 1 .83.83 0 0 0 1.06-.66c0-.22 0-.57.33-.57s.47.09.41.56zm1.72.57a9.19 9.19 0 0 1-1.41.74h-.07c-.13-.06.22-.29.37-1a2 2 0 0 0 0-1.14c.3.21.85.63 1.13.85s.09.42.02.54z" fill="#692f23"/><circle cx="87.8" cy="27.68" r=".44" fill="#fff"/><circle cx="69.35" cy="27.68" r=".44" fill="#fff"/><path d="M77.27 34.61a4.74 4.74 0 0 0 2.48.43 4.79 4.79 0 0 0 2.08-.27s.33-.07 0 .32a1.93 1.93 0 0 1-1.65.8 4.29 4.29 0 0 1-2.73-.69c-.45-.38-.72-.91-.18-.59zM69.86 39.45a.25.25 0 0 1 0-.35 2.52 2.52 0 0 1 1.14-.67 4 4 0 0 1 1.6.53 21.24 21.24 0 0 0 7 1.26 14.16 14.16 0 0 0 6.33-.86 30.14 30.14 0 0 1 3.61-1.48c.38 0 .74.34.61.7s-.29.34-.55.17a.92.92 0 0 0-.67-.18c-.17 0-2 1.29-3.8 2.05a13 13 0 0 1-5.48.78 17.44 17.44 0 0 1-5.35-1.13 16.41 16.41 0 0 0-3.16-1.2c-.5-.07-.41.93-1.28.38zM76.12 42.81s-.11-.16 0-.19 1.4.19 4 .29a19.33 19.33 0 0 0 4.34-.41c.1.06-.81 1.32-4.25 1.31s-4.09-1-4.09-1zM92.09 118.09s2.92-.8 3.54-1.09a23.13 23.13 0 0 1 2.37-1.35c.26 0-.55 1.2-2.48 2s-3.61.77-3.43.44z" fill="#692f23"/><circle cx="76.47" cy="49.99" r=".46" fill="#692f23"/><circle cx="79.06" cy="49.41" r=".42" fill="#692f23"/><circle cx="84.09" cy="49.48" r=".42" fill="#692f23"/><circle cx="86.57" cy="50.17" r=".42" fill="#692f23"/><circle cx="88.94" cy="48.5" r=".42" fill="#692f23"/><circle cx="81.83" cy="53.57" r=".42" fill="#692f23"/><circle cx="79.2" cy="55.68" r=".42" transform="rotate(-81.96 79.209 55.677)" fill="#692f23"/><circle cx="82.23" cy="58.38" r=".42" transform="rotate(-81.96 82.236 58.378)" fill="#692f23"/><circle cx="85.22" cy="55.06" r=".42" transform="rotate(-81.96 85.229 55.06)" fill="#692f23"/><circle cx="85.29" cy="60.38" r=".42" transform="rotate(-81.96 85.3 60.383)" fill="#692f23"/><circle cx="85.08" cy="65.31" r=".42" transform="rotate(-82 85.098 65.317)" fill="#692f23"/><circle cx="82.45" cy="63.12" r=".42" transform="rotate(-81.96 82.456 63.124)" fill="#692f23"/><circle cx="81.5" cy="50.87" r=".46" fill="#692f23"/><path d="M117.33 91.65c-.08-.59-.24-1.36-.32-1.74a1.32 1.32 0 0 1 0-.25v-3.19a2 2 0 0 0-.95-1.64 15.09 15.09 0 0 1-1.17-3.5c-.29-1.71-1.42-5.83-1.53-6.56a50.41 50.41 0 0 0-3.46-9.92c-1.86-3.65-2.77-6.53-8.31-11.41-.22 0-2.61-2.49-5.56-3.05L94.56 50s-.84-.45.13-.51a20.66 20.66 0 0 0 5.67-1.5l.38-.2a30.22 30.22 0 0 0 4.34-2.41c1.88-1.33 3.06-2.13 4-2.68a22.64 22.64 0 0 0 5.74-7.06c1.6-3.26 1.35-6.76 1.46-7.86a20.55 20.55 0 0 0-.49-5.2 49.27 49.27 0 0 0-2.92-5.51 32.89 32.89 0 0 0-3.25-4.47c-1.48-1.55-6.22-6.11-7.79-7.27a10 10 0 0 0-3.57-1.59l-1.37-.46a26.42 26.42 0 0 1-4-1.22C91.76 1.54 89.28.91 88 1.37a5.3 5.3 0 0 0-3.53-.85c-.49 0-1.65.29-2.07.32s-2.55.22-4.16.17a18.58 18.58 0 0 0-5.2.9A29.74 29.74 0 0 0 68 4.24s-4.22 2.55-6.53 4.06a25.64 25.64 0 0 0-5.69 5.3c-.75 1.12-2.53 4.08-2.53 4.08a19.79 19.79 0 0 0-1.65 4.5 42.55 42.55 0 0 0-.51 7.12 27.36 27.36 0 0 0 1 5.47A41.59 41.59 0 0 0 53.66 39a11.89 11.89 0 0 0 1.91 2.57c.95.83 2.53 2.92 3.16 3.4s2.87 2.26 3.38 2.58 1.85.66 2.11.83a15.41 15.41 0 0 0 2.38 1.19c.66.19 2.67.58 2.67.58a13.11 13.11 0 0 0 1.39.38l-1.53.56A13 13 0 0 0 65 53l-1.15.89a29 29 0 0 0-21.26 6.78C39.74 63 35.17 68 33.71 74.13s-1.7 12 .78 18.14A27.7 27.7 0 0 0 43.1 104a28.36 28.36 0 0 0 13 6.08 30.88 30.88 0 0 0 11.8-.08c.06.12.71 1.53.75 1.7a46.91 46.91 0 0 0 .22 6.38c.36 1.5.47 3.43.58 4.08s1 4.59 2.73 5.8l.2.13a17.81 17.81 0 0 0 .75 4.25c.73 2.26 1.31 4.3 1 4.74s-3.28-1.28-6-1.31-5.11.44-6.38 2.22a6.25 6.25 0 0 0-.8 6.24c1 1.93 3.14 3 8.46 2.77 0 0 2-.26 3-.47s3-.84 4.56-1.09 4.38-.44 5.21-.62l.84-.18a5.41 5.41 0 0 0 1.42 3.61c1.53 1.71 5.07 1.24 5.65 1.2s4.19 0 5.76-.11a10.68 10.68 0 0 0 4.78-1.46 3.85 3.85 0 0 0 1.79-3.57c-.15-1.79-.11-2.55-1.75-4 0 0-1.09-.77-1.53-1s-1-1.09-1.42-1.35a5.92 5.92 0 0 0-1.64-.66c-.36 0-.22-.73.07-.91a6.9 6.9 0 0 0 1-2.66c.29-1.24.18-3.1.4-3.83a2.82 2.82 0 0 1 .55-1.31 4.8 4.8 0 0 0 2.84-3.43c.62-2.55.44-9.12.44-9.81s.66-4.12.77-4.89 0-5.55 0-5.55l.07-1.68s0-.42.19-.53l1.79-.85s-.15 1.17-.18 1.75a8.44 8.44 0 0 1-.15 2.15c-.22.55-.73 1.13-.69 1.79s.66.8 1.17.55a6.22 6.22 0 0 0 2.59-2.41s.36 2-.4 2.81-2 1.2-2 1.79.47 1.42 1.93 1a7.54 7.54 0 0 0 3.83-2.11 10.45 10.45 0 0 0 2.37-5 13.12 13.12 0 0 0-.55-5.11c-.27-.73-.61-1.15-.09-1.39a3.94 3.94 0 0 0 1-.65 3.39 3.39 0 0 0 0-1.41h.13a15.09 15.09 0 0 0 3.54-1.93 1.84 1.84 0 0 0 .63-2.03zM95.45 51.06s5.2 1.38 10.12 8.27a47.59 47.59 0 0 1 7.05 15.9 5.82 5.82 0 0 1-.48 2.82c0 .23.45.07 1-.85.09-.15.26.62.31.87.18.84 1.73 6.2.65 6.75a8 8 0 0 1-4.36 1.65 14.2 14.2 0 0 1-5.11-.18c-.66-.18-.73-.26-.95-1.17s-1.42-10.36-1.39-11.78a3.93 3.93 0 0 1 .51-2.08 10.21 10.21 0 0 0 .36-3.25c-.11-.62-.36-.4-.4.51s-.22 2.19-.77 2.3-1.86-6.93-1.86-6.93-.33-1.42-.36.18a52.14 52.14 0 0 0 1.23 7.2 18.45 18.45 0 0 1 .62 5.25c.11 1.17.47 5.14.69 6.53s.84 3 .62 3.35-.73.15-.8 1.31.26 1.2.22 2.26-.4 1.17-.11 2.44.91 1.2.84 1.68-3.39 1.5-5.54 1.9a95.31 95.31 0 0 1-11.83.92 21.76 21.76 0 0 0 2.18-4.64 44.88 44.88 0 0 0 1.58-13.57 21.59 21.59 0 0 0-4.22-11.83 3.18 3.18 0 0 0 1.14-.55 1.31 1.31 0 0 0 .31-.86l-.13-7.73s.11-4 .69-5a4.48 4.48 0 0 1 1.12-1.35 7.3 7.3 0 0 1 2.62-.92 15.62 15.62 0 0 1 4.45.6zm-10.4 46.85l.24-.36c.71 0 3.26 0 5.48-.12a21.23 21.23 0 0 1-2.82 5.94s-.07.15-.36-.53a48 48 0 0 0-2.54-4.93zm2.07 5.82a12.78 12.78 0 0 1-1.68 0s-3.26 0-4.27.07c-.12-.12-.1-.8 2.77-4.4q.32-.4.6-.79a13.91 13.91 0 0 1 2.58 5.12zm4.45-5.79c.32-.07 4.22 4.4 4.37 4.86.08.26-.46.36-.83.45a61.71 61.71 0 0 1-6.44.52c.2-.44 2.6-5.77 2.9-5.82zm.57-.57l1.3-.08a40.64 40.64 0 0 0 5.63-.89 13.57 13.57 0 0 1-2.4 5.91s-.12.1-.56-.32-3.11-3.57-3.97-4.61zM59.55 21.52a4.26 4.26 0 0 0 .63.92A4.94 4.94 0 0 0 58 24.86a19.93 19.93 0 0 0-.39 2.82h-.17a5.17 5.17 0 0 1-.44-1.17 15 15 0 0 1 .29-7.75 22.25 22.25 0 0 1 2.65-5 19.46 19.46 0 0 0-.8 5 6.91 6.91 0 0 0 .41 2.76zm-1.9 8.08a1.8 1.8 0 0 1 1.49-1c-.78-1.07-.49-3.7-.49-3.7a1.93 1.93 0 0 1 .56-1.26 8.19 8.19 0 0 1 3-1.07c1.09-.22 7.15-1.46 7.9-1.58s1.22-.27 1.34-.27a8.09 8.09 0 0 0 3.57.36s.19 0 .15-.73.85-4.89 1.53-5.69a15.37 15.37 0 0 0 .96 3.34c.32.61.75 3.6.88 3.87s.24.32 1.07 0a43.12 43.12 0 0 1 4.55-1 12.41 12.41 0 0 1 4.45-.1 26.86 26.86 0 0 0 5.15.73 5.5 5.5 0 0 0 2.36-.32c.12 0 .29.58.73 1a7.47 7.47 0 0 0 1.31.92 7.78 7.78 0 0 1 1.05 1 7 7 0 0 1 .95 2.68 2.34 2.34 0 0 0 1.9 1.62c.55.11.71-.24 1.06-.36s.67-.16 1.75.2a2.16 2.16 0 0 1 1.28 1.62s.3 2.53-1.55 3.76l-.05.05a4.55 4.55 0 0 1-1.66.91c-.42 1.77-1.5 3.17-3.34 5.29a25.64 25.64 0 0 1-4.41 3.87 26.77 26.77 0 0 1-3.1 1.7l-.3.16a29.23 29.23 0 0 1-5.67 2 24.79 24.79 0 0 1-9.59 0 18.68 18.68 0 0 1-7.88-3.44 23 23 0 0 1-5.6-5.65 21.06 21.06 0 0 1-2-3.35s-.22-.92-.39-1a10.6 10.6 0 0 1-1.61-.91A8.65 8.65 0 0 1 57.61 31a2.34 2.34 0 0 1 .04-1.39zm47.64-3.35a10.32 10.32 0 0 1-3.1-2.08s2.37 0 3.5 1.08a4.42 4.42 0 0 1 1.6 3.43c0 .85-.12 1.08-.21 1.13H107a2.61 2.61 0 0 0-2.12-2.45c-.95-.05-2.72.4-3.17 0-1-.9-.78-1.6-1.39-2.7a11.84 11.84 0 0 0-1.4-1.7l1.09.69a5.08 5.08 0 0 1 1 .61 9.34 9.34 0 0 0 2 1.51 4.14 4.14 0 0 0 2.28.48zM86 56.83a6.81 6.81 0 0 1-3.14-1l-.24-.13.39-.32 3.37-2.77a25.39 25.39 0 0 0-.38 4.22zm-2.64-5.23c-.61.05-1.35.11-1.92.11s-1.43 0-2.17-.06c.37-.47 1.88-2.58 1.88-2.58a17.2 17.2 0 0 1 2.21 2.53zM82.28 49c.69 0 1.88-.07 3.08-.23-.06.15-.23.55-.32.74s-1 1.57-1 1.57c-.12-.19-.53-.75-.66-.92s-.87-.93-1.1-1.16zM79 50.87c-.17-.36-1.16-1.91-1.4-2.28 1 .12 1.95.23 2.78.3-.24.4-1.38 1.98-1.38 1.98zm1.39 1.6a14.21 14.21 0 0 0 3.11 0c.43-.08 1.23-.14 1.92-.2-.4.29-1.6 1.16-1.86 1.42s-1 .91-1.69 1.51a9.79 9.79 0 0 1-3.47-2.82s-.06-.13 0-.2zm1.6 4a17.78 17.78 0 0 0 3.6 1.16 3.59 3.59 0 0 1-.48.61c-.44.47-2.66 2.18-2.86 2.34a16.27 16.27 0 0 1-3-2l2.62-2.16zm3.92 1.77l.07 2v1.62A16.86 16.86 0 0 1 83 61h-.1a38.51 38.51 0 0 0 2.98-2.8zm-1.42-6.74a2.68 2.68 0 0 0 .43-.49 18.69 18.69 0 0 0 1.16-2.11c.06-.21.18-.21.18-.21a11.74 11.74 0 0 1 2.11 1.63 7.87 7.87 0 0 1-1.09.61 15.74 15.74 0 0 1-2.79.57zm2.77-3.15l.16-.05 2.06-.73.17 1.23c.07.54 0 .65-.11.76a7.21 7.21 0 0 1-.61.49l-.21-.34a4.5 4.5 0 0 0-1.46-1.35zm-12.77-.23c.32.06.74.14 1.22.21l-1.17 1a2.49 2.49 0 0 1-.05-1.2zm2.17.43a11.17 11.17 0 0 1 1.77 3h-.09a19.83 19.83 0 0 1-2-.54 3.16 3.16 0 0 1-1.46-1l-.07-.08zM78 53.4v-.35A9.2 9.2 0 0 0 81 56c-.63.56-2.13 1.67-2.64 2a7.88 7.88 0 0 0 0-1.24c-.09-.64-.41-3.16-.36-3.36zm.39 5.6a20.79 20.79 0 0 0 2.87 2h.05l-.67.35a29.75 29.75 0 0 0-2.27-2zm3.79 2.58a12.77 12.77 0 0 0 3.15 1.22 12.66 12.66 0 0 0-1.94 1.55c-.7-.85-1.41-1.63-2.1-2.34a6.44 6.44 0 0 0 .86-.43zm3.75 1.68a5.21 5.21 0 0 1-.11 2.46 1.35 1.35 0 0 1-.92.6q-.42-.59-.85-1.15zm4.84-13.83c0-.45-.16-1.94-.21-2.24a34.06 34.06 0 0 0 4.69-2.63 45.31 45.31 0 0 0 4.81-4c.13-.15.32-.39.53-.66-.13.45-.35 1.16-.57 1.68a19.75 19.75 0 0 1-1.66 3.39c-1.28 2.03-4.79 3.76-7.63 4.46zm12.81-5.16a5.22 5.22 0 0 1-2.85 2.73 7.75 7.75 0 0 1-.69.4 12.94 12.94 0 0 1-4.49 1 12.82 12.82 0 0 0 2.39-1.57c1.11-.95 2.1-3 2.79-5.23a22.79 22.79 0 0 1 1.27-3.35 21 21 0 0 1 2.09-3.25 7 7 0 0 0 .85-1 8.07 8.07 0 0 0-.19 1 7.27 7.27 0 0 1-.55 2.32 5.75 5.75 0 0 0-.77 2.15c-.09.86.48 3.53.11 4.8zm1.68-.16l-.75.84a9.62 9.62 0 0 0-.09-2.63 5 5 0 0 1 .36-4.69v-.06c.14.55.65 2.24 1 3.21a3.61 3.61 0 0 1-.56 3.32zm1.41-3.84a10.81 10.81 0 0 0-.56-1.48 6.3 6.3 0 0 1-.55-2.75 8.4 8.4 0 0 1 1-3.08 5.75 5.75 0 0 0 1.22-3.19c0 .53.07 4.69-.27 5.62a5 5 0 0 0 .89-2.9 16.93 16.93 0 0 0-.09-4.3 17 17 0 0 1-.77-3.15c-.05-1.22.36-1.51.38-3.3a9 9 0 0 0-.22-1.87 21.55 21.55 0 0 1 3.15 5.93 24.16 24.16 0 0 1 .62 5.62 4.85 4.85 0 0 1-.84 4c-1.17 1.84-3.3 3.19-3.92 4.88zm3-18.82a17.33 17.33 0 0 1 2.74 3.55 11.67 11.67 0 0 1 .77 5.27 6.66 6.66 0 0 1-1 2.73 22.19 22.19 0 0 0-.13-2.56 20.77 20.77 0 0 0-.78-5 19.47 19.47 0 0 0-1.67-4zm-14.43-18l1.43.36a12.12 12.12 0 0 1 5 2.55 85.51 85.51 0 0 1 6.89 6.29c-.05.05 1.59 1.59 2.66 3.1s2.32 4.58 2.75 5.18a6.72 6.72 0 0 1 1.46 3.28 37.19 37.19 0 0 1 0 7.27 14 14 0 0 1-1.75 4.47 30.85 30.85 0 0 1-6.45 7 5.53 5.53 0 0 1 .51-1.86 13.86 13.86 0 0 1 1.2-2.48c.66-.84 2.7-3.06 3-3.56a13.47 13.47 0 0 0 1.31-2.28 10.86 10.86 0 0 0 .66-4.92 10.5 10.5 0 0 0-2.48-5.8 26.37 26.37 0 0 0-2.63-2.42 10.45 10.45 0 0 1-1.84-2.22c-.11-.32-1.42-3.2-1.62-3.69a9.46 9.46 0 0 0-1.71-3.19 33.15 33.15 0 0 0-4.16-4.45c-1.13-.77-3.33-1.87-3.33-1.87l-1.7-.88s.09-.09.72.08zm-3.4-1.07a22.56 22.56 0 0 1 4 2.33 18.31 18.31 0 0 1 4 2.7 42.46 42.46 0 0 1 4.14 5.23A37.6 37.6 0 0 1 106 18a25.24 25.24 0 0 1 .67 4.72c0 2 .18 2.63-.46 2.28a16.56 16.56 0 0 0-4.45-2h-.14a12.43 12.43 0 0 1-2.44-.6 2.35 2.35 0 0 1-1.79-2.22c0-.72.58-5.68.58-5.68a11.41 11.41 0 0 0-.19-3.67c-.44-1.26-2.41-3.48-3.48-4.59a42.45 42.45 0 0 0-5.06-4s-.33-.6 2.52.1zM82 2.05a2.53 2.53 0 0 1 1.19-.56A12.76 12.76 0 0 1 86 1.42a2.13 2.13 0 0 1 1.34.73 5.39 5.39 0 0 1 1.39 2.8 18.81 18.81 0 0 1 .61 6.34s.17.46.49-2A16.26 16.26 0 0 0 89 3.37s-.41-.83.51-.34A44.37 44.37 0 0 1 94 6.62 21.62 21.62 0 0 1 96.79 11a11.64 11.64 0 0 1 .36 3.67s0 3.56-.7 4.84c-.8 1.57-2.26 1.17-3.28 1.24a12 12 0 0 1-3.61-.4 5.82 5.82 0 0 0-1.56-.3l.73-.8a3.18 3.18 0 0 0 .51-2.7 11.29 11.29 0 0 1-.33-2.08c-.26.36 0 1.9-.8 3.68s-2.34 1.85-3.84 1.94a27.85 27.85 0 0 0-3.94.77c-1 .4-1.09-.13-1.09-.13s-.34-1.51-.51-2.09-.66-2.09-.83-3.06-.22-3.17-.24-3.8a21.08 21.08 0 0 1 1-4.54A17.32 17.32 0 0 1 82 2.05zM76.15 2c3-.73 4.25-.22 4.25-.22-1.36.49-2.65 2-4 3.65a11.4 11.4 0 0 0-2.26 4.52c-.27 1.07-.24 1.58-.1 1.58s.22-1 1.09-3A16.75 16.75 0 0 1 78 4.41a10.27 10.27 0 0 1 1.9-1.34c.46-.24 1-.34.49.27a22 22 0 0 0-2.58 4.59 9.49 9.49 0 0 0-.81 4.15s-.73 2-1.21 3a14.83 14.83 0 0 0-1.07 3.5c-.17 1 0 1.6-.24 1.87a2.68 2.68 0 0 1-1.9.12c-.34-.19-.8-.44-.41-1.65l.51-1.6a7.67 7.67 0 0 1-1.51 2 7.72 7.72 0 0 1-2.82 1.12c-1.41.32-3.48 1-3.62 1.07s-.92.61-1.34-.73a13.48 13.48 0 0 1 .26-6.27 37.14 37.14 0 0 1 2.64-5.15 11.48 11.48 0 0 1 1.53-1.72 29.54 29.54 0 0 1 3.48-3.15A15.39 15.39 0 0 1 76.15 2zm-4.83 1.49l-1.51 1.07A27.4 27.4 0 0 0 66.33 8a23.92 23.92 0 0 0-3.26 5.79 12.63 12.63 0 0 0-.92 4.93c.07 1 .73 2.09.53 2.77a1 1 0 0 1-1.07.74c-.31 0-.93-.11-1.47-1a4.82 4.82 0 0 1-.34-.7 4.42 4.42 0 0 1-.23-2.12 16.07 16.07 0 0 1 3.55-8.53A26.67 26.67 0 0 1 68.29 5a14.15 14.15 0 0 1 3.03-1.51zM54 18a20.89 20.89 0 0 1 4.53-6.48 16.05 16.05 0 0 1 4.81-3.4c-.1.24-2.58 3.6-3.06 4.23a19.57 19.57 0 0 0-2.84 3.91 14.23 14.23 0 0 0-1.63 4.95 5.33 5.33 0 0 1-1.36 1.6 9.75 9.75 0 0 0-1.87 2.84c-.1.17-.49 1-.51.07A25.58 25.58 0 0 1 54 18zm.34 20.32c-.08-.15-.2-.33-.25-.45-.25-.62-.75-2-1-2.5a12.08 12.08 0 0 1-.94-3.28c-.19-1.34-.24-4.33.56-5.42s1.42-3 2.94-3.83c0 .55-.08 1.08-.1 1.57a8.18 8.18 0 0 0 1 4.16l.12.27a5.72 5.72 0 0 0-1.11 2.52 17.65 17.65 0 0 0 0 6.3 9.79 9.79 0 0 0 1.41 4 34.17 34.17 0 0 1-2.6-3.37zm11 10.1a4.79 4.79 0 0 1-2.82-2.16c-1-1.58-1.56-3.14-1.87-3.06s0 .88.29 1.46a6.9 6.9 0 0 0 2.19 2.72s-.7.17-2-1.09A16.27 16.27 0 0 1 57.82 42a25.61 25.61 0 0 1-2.09-8.19s1.07 5.13 2.87 6.52a18.37 18.37 0 0 1-2.24-7.63c0-2.48.29-3.25.49-3.49a2.81 2.81 0 0 0 .11.4 5.66 5.66 0 0 0 .24 2.49 12.16 12.16 0 0 0 .96 1.9c.09.23.3.81.45 1.28s.8 2.6 1 3.26a21.37 21.37 0 0 0 3.6 6.05c1.68 1.63 3.62 3.74 4 4a4.63 4.63 0 0 1-1.83-.2zm3.28.49a36.45 36.45 0 0 1-6.78-7.66 39 39 0 0 1-2.63-6c-.1-.24-.41-1.39.27-.46l.68.92s.94 1.49 2.69 3.9a35.94 35.94 0 0 0 5.6 5.68 25.9 25.9 0 0 0 4 2.15l.26.11a1.18 1.18 0 0 1 .45.63 7.34 7.34 0 0 1 .39 1.51c0 .19-.4.33-.4.33L71.8 50a5.55 5.55 0 0 1-3.13-1.13zm.65 2.87s.69-.05 1-.09 2.88-1 3.25-1.09a1 1 0 0 1 .88.26 9.2 9.2 0 0 0 1.62.82 2.69 2.69 0 0 1 1.24 1.76 45.73 45.73 0 0 1 .31 5.41 9.53 9.53 0 0 0-1.61-1c-2.23-1-5.6-3.11-11.1-3.8a13 13 0 0 1 4.45-2.31zm-2 57a28.43 28.43 0 0 1-15.75-1.12 28 28 0 0 1-14-11.77 22.4 22.4 0 0 1-3.65-11.43c-.19-4.91.24-10.74 3-15.56a25.29 25.29 0 0 1 6.42-7.63 30.75 30.75 0 0 1 16.46-6.43c.12 0 6.95-.07 11.12 1.82S78.92 60 83.7 66.35c4.89 6.46 4.87 13.55 4.57 18a32.91 32.91 0 0 1-1.82 8.8v.26a22.39 22.39 0 0 1-4.7 7.43l-.08.07a27.65 27.65 0 0 1-5.08 4.23 22.18 22.18 0 0 1-5.4 2.7 29.21 29.21 0 0 1-3.88.95zm6.76 23.59c-.13-.54-.23-1-.29-1.2a4.93 4.93 0 0 1-.16-1.5c.27.43.78.87 2.31 1.39 2.22.77 7.4.07 7.4.07A8.12 8.12 0 0 1 78 133c-2.47.1-3.51-.37-3.93-.62zm-.14-3.48a13.05 13.05 0 0 0 7.6 1 11.42 11.42 0 0 0 2.13-.77c.09 0 .22 0 .27.19a4.45 4.45 0 0 1 .06.66 12.5 12.5 0 0 1-7 .84 4.18 4.18 0 0 1-3.01-1.91zm2.31 9.64l-1 .18s-1.07.16-1.21-.33 2.01.08 2.26.16zm-1.73-4.25a8.92 8.92 0 0 0 3.28 1.19c1.82.44 5.51-.22 5.21 0a6.21 6.21 0 0 1-1.17.51 14.49 14.49 0 0 1-6.77.71zm-4.87 2.53a7.93 7.93 0 0 1 1.48.24s1.62.66 1.69 1.1-.72.53-.84.57c-.49 0-1.43 0-1.46-.15a1.54 1.54 0 0 0-.36-.85c-.2-.24-.76-.8-.47-.9zm-3.55 1.07c.19-1 1.53-1.43 1.53-1.43h.63a3.78 3.78 0 0 1 1.36 1.44.73.73 0 0 1-.17 1.11 12.66 12.66 0 0 1-3.18.8c-.64.03-.32-.91-.12-1.91zm-3.28.26a1.79 1.79 0 0 1 .4-.71 5.9 5.9 0 0 1 2.56-.89c-.71.64-.92 3.26-.92 3.26a2.63 2.63 0 0 1-1.31-.21s-.87-.9-.69-1.44zm-1.56 3a4.91 4.91 0 0 1 .09-1 1.42 1.42 0 0 1 .4-.39.55.55 0 0 1 .43.16 5 5 0 0 0 2.63 1 13.05 13.05 0 0 0 0 1.65c.07.29-.08.25-.3.25h-.18c-1.46-.08-2.31-.35-2.88-1.24a2 2 0 0 1-.14-.38zm4 4.6h-.15c-1.44-.31-2.88-.92-3.42-1.94 0-.22 0-.42.1-.47A22.49 22.49 0 0 0 65 144a2.25 2.25 0 0 0 .05 1c.16.24.34.68.24.79zm.57-3.05c-.07-.24-.23-1.79 0-1.94 0 0 .12.07.92 0s3-.73 3.38-.36a2.09 2.09 0 0 1 .12 2.09 1.11 1.11 0 0 1-.31.17l-.29.07h-.18c-.91.09-1.82.14-2.68.14H66c-.08.02-.11-.03-.13-.12zm4.46 2.68l-1 .18H69c-.66.1-1.36.18-2 .22 0-.08-.58-.07-.73-.81s0-1 .36-1.07l1.23-.1s2.41-.34 2.7 0a1.15 1.15 0 0 1-.23 1.64zm.83-5.69c.15-.29.75-.29.75-.29h1.27a1.63 1.63 0 0 1 .69.23 3.64 3.64 0 0 1 .85 2.24 22.86 22.86 0 0 1-3.06.55 2.26 2.26 0 0 0-.08-1c-.07-.58-.49-1.41-.34-1.67zm3.93 4.41a1.32 1.32 0 0 1-.84.75c-.92.11-1.8.22-2.47.34a9 9 0 0 0 .18-1c0-.36 0-.53.29-.63a10 10 0 0 1 2.75-.34c.2.13.16.51.09.88zm.53-3.67c-.27-.61-.34-.78 0-.78a5.79 5.79 0 0 0 1.41 0c.53-.12.66-.36.66-.36a4.78 4.78 0 0 1 1.09 2.09v.06c-.7.16-1.56.31-2.66.47a9.62 9.62 0 0 0-.53-1.48zm2.86-1.57A14.49 14.49 0 0 0 81 139a.29.29 0 0 1 .16.07 6.07 6.07 0 0 1 .53 1.24 9.11 9.11 0 0 1-1.26.53l-.82.25a4.66 4.66 0 0 0-1.25-2.24zm-.18 5.29a1.44 1.44 0 0 1-.3.25l-.47.06-.81.1c-.26 0-.59-.07-.57-.27l.12-1.17s-.1-.15.21-.19a20.43 20.43 0 0 0 2.49-.3 3.42 3.42 0 0 1-.7 1.52zm3.68-1.7a2.56 2.56 0 0 1-.78 1.42l-1.52.26a2.41 2.41 0 0 0 .35-1.72 9.51 9.51 0 0 0 1.87-.61l.14-.07a2.87 2.87 0 0 1-.09.72zm.14-3.59a5.68 5.68 0 0 0 1.5-.68.73.73 0 0 1 .2.09l.12.1a.79.79 0 0 1-.2.63 4.15 4.15 0 0 1-1.08.9 3.06 3.06 0 0 0-.24-.53zm1.31 3.67a2.79 2.79 0 0 1-.74 1.07h-.06a3 3 0 0 0 .41-1.59 4.85 4.85 0 0 0 0-.77 3.07 3.07 0 0 0 1.08-.76 7.16 7.16 0 0 1-.72 2.05zm.69-6c-.18.77-1.53 1.42-1.71 1.5s0 0 .06 0a10 10 0 0 1-2.51.33 8.24 8.24 0 0 1-3.61-.73 15.33 15.33 0 0 0 5.4-.77 10.34 10.34 0 0 0 2.44-1.19 5.67 5.67 0 0 1-.1.84zM80.75 135a14.14 14.14 0 0 1-5.91-1.42 20 20 0 0 0 5.87-.29 11.52 11.52 0 0 0 3.36-1.6v2.16c-.14.35-.8 1.15-3.32 1.15zm2-6.49c-1.82.77-5 1.28-6.93.29a8.05 8.05 0 0 1-1.24-1.09c-.51-.58-2.3-5-2.41-4.92a10.57 10.57 0 0 0 1.27 4.09.47.47 0 0 1 .13.4c0 .26-1.1-.08-1.76-1.54a26.19 26.19 0 0 1-1.71-8.35l-.26-3.94s2 1.93 2.3 1.6-1.2-1.13-1.93-2.33a22.12 22.12 0 0 1-1.41-3.1c1.18-.39 3.25-1.08 4.63-1.68a27.09 27.09 0 0 0 4.89-2.89c.62-.29 1.85.39 1.85.39a1.73 1.73 0 0 1 1 1.08c0 .07.09.48.12.52a11.54 11.54 0 0 0 .33 1.12c.22.58 1.46 7.48 1.79 9.7s1.09 7.11 1.17 8.24 0 1.69-1.82 2.45zm1.79 14.7s-.07-.29.33-.11a3.1 3.1 0 0 0 1.57.26s.12 0 .19.25a5.23 5.23 0 0 1 .12 1.57.4.4 0 0 1-.46.31A2 2 0 0 1 85 145a2.16 2.16 0 0 1-.45-1.75zm4.78-10.14A37.21 37.21 0 0 0 94 133c-3.5 1.6-8 .8-9 .54v-.9-1a8.52 8.52 0 0 0 4.32 1.47zM85 130.18a6.13 6.13 0 0 1 .12-.78c.17-.71.24-1.14.72-1.25a4 4 0 0 0 1.17.89 12.59 12.59 0 0 0 5.8 1 10.29 10.29 0 0 0 3.06-.69 15.16 15.16 0 0 1-7.13 1.65c-2.66 0-3.46-.52-3.74-.82zm7.5 9.26a2.38 2.38 0 0 1 1-.23 8.1 8.1 0 0 1 1.83.1c.51.17 1.08 1.65 1.06 1.72a31.15 31.15 0 0 1-3.73.1.77.77 0 0 1-.39-.57c-.01-.4-.07-.89.28-1.12zm-.33-.67a.51.51 0 0 1-.15-.61.46.46 0 0 1 .19-.14h1.66a.86.86 0 0 1 .31.11c.24.14.43.51.38.57s-.77 0-1.17 0a5 5 0 0 1-1.17.07zm2.68-2.26a2.87 2.87 0 0 1-1.71.8c-.69.11-2.77.22-3.54.33a19.52 19.52 0 0 1-3.25.29c-.77-.07-1.13-1.31-1.2-1.79 0-.24-.08-.86-.12-1.55v.06c1 1.13 2.59 1.46 5 1.64a22 22 0 0 0 5.25-.42 2.24 2.24 0 0 1-.38.63zM85.33 142c0-.26.48-.49.79-.62s.81-.4.86-.41a5 5 0 0 0-.36 1.29 3.32 3.32 0 0 1-1.07.09.35.35 0 0 1-.22-.35zm1.43-1.83a6.62 6.62 0 0 0-1.68 1 1.69 1.69 0 0 1 0-.83 2.44 2.44 0 0 1 .4-.58 5.61 5.61 0 0 1 .77-.69 4.91 4.91 0 0 1 .51-.23 1.73 1.73 0 0 1 .84 0v.2a4.41 4.41 0 0 0-.2.75c-.01.11-.47.26-.64.34zm1.48.44a4.57 4.57 0 0 1 2.81-1 5.25 5.25 0 0 0 .38 1.66c0 .1-.06.15-.49.24s-2.78.55-3.34.61a2.08 2.08 0 0 1 .64-1.55zm.25-1.53a3.53 3.53 0 0 1 2.76-.79 2.34 2.34 0 0 0-.17.6 8.18 8.18 0 0 0-2.57.54s-.35-.02-.03-.43zm-2 9.18a1.58 1.58 0 0 1-.56-.12 2.46 2.46 0 0 1-1.24-1.67c0-.13-.05-.29 0-.32s.67.28 1.38.35a6.21 6.21 0 0 1 .93.07 6.8 6.8 0 0 1 .58 1.54c0 .05-.58.1-1.09.11zm1-3.71c0-.28-.16-1 0-1.28s1.65-.33 2-.4 2-.35 2.27-.35.08 0 .22.22a13.49 13.49 0 0 1 .81 2.58s0 .29-.47.38-3.32.08-3.32.08-1 .05-1.22-.16a1.93 1.93 0 0 1-.28-1.11zm5.66 2.73c0 .37 0 .84-.26 1a1.84 1.84 0 0 1-.82.1c-1-.09-2.08-.1-3.07-.09a.85.85 0 0 1-.55-.46 3.35 3.35 0 0 1-.49-1.27c0-.16.48 0 1.5.06s3.11 0 3.3 0a.62.62 0 0 1 .4.62zm.48-2.32a11.78 11.78 0 0 1-.65-2.53c.1-.27.58-.19 1.08-.16s2.46-.24 2.86-.18.68.7.84 1 .43.88.53 1.14a1 1 0 0 1-.12.94c-.33.42-.66.61-2 .57a7.9 7.9 0 0 1-2.37-.43c.2-.18-.03 0-.16-.38zm4.28 2.85a1.81 1.81 0 0 1-.64.51 17.78 17.78 0 0 1-2.32.2.81.81 0 0 1-.55-.54c-.08-.44-.11-1.26.05-1.34s1.64 0 2.22-.1a10.22 10.22 0 0 0 1.73-.39c.26-.15.01 1.07-.47 1.63zm3.58-3.36a3.66 3.66 0 0 1-.41 2.07 3.55 3.55 0 0 1-2.08 1.36 4.6 4.6 0 0 0 .4-2 4.26 4.26 0 0 0 1.64-.87 1.39 1.39 0 0 0 .47-.59zm-.4-1.75v.08a2.71 2.71 0 0 1-1 1.82s-.55.42-.81.31-.2-.69-.31-.92a16.28 16.28 0 0 0-.83-1.61c-.15-.15 0-.21.21-.15s2.39.3 2.76.45zm-1.75-2.24c.36.26.93.72.88.89s-2.13-.13-2.35-.17a.56.56 0 0 1-.48-.32c-.14-.25-.91-1.17-.67-1.19a13.39 13.39 0 0 1 2.64.76zm-2.56-2.29c.62.22.82.41.88.6a.26.26 0 0 1-.19.26 2.71 2.71 0 0 1-1.63-.36 3 3 0 0 1-.62-.67 6.67 6.67 0 0 1 1.58.15zm-1-3.32c-.48.32-1.67.84-4.3.92-3.83.11-5.11-1.06-5.11-1.06a10.63 10.63 0 0 0 4.56 0 24 24 0 0 0 5.44-1.9 20.47 20.47 0 0 1-.6 2.01zm.91-3.57v.17c-.43.4-1.51.92-4.93.92-4.85 0-5.76-1-5.76-1a16.78 16.78 0 0 0 5.69.15 11.44 11.44 0 0 0 5-1.86 2.86 2.86 0 0 1 0 1.59zm4.41-25a52.51 52.51 0 0 1-.36 6.75 5.07 5.07 0 0 1-.91 1.93c0 .15.51.07.73 1.6a34.88 34.88 0 0 1-.51 8.28 4.73 4.73 0 0 1-2.48 3 6.32 6.32 0 0 0 1.43-3.15 6.78 6.78 0 0 0-.11-3.57c-.15 0-.15 2-.62 3.61a8.26 8.26 0 0 1-3.55 4 10.84 10.84 0 0 1-3.16.56c-1.79 0-2.52 0-3.14-2.52a12.26 12.26 0 0 1-.22-1.36s0-.05 0 0a4 4 0 0 0-.2 2.09c.29 1 .41 1.18.83 1.5.23.17-1.2-.11-1.82-.84s-1.42-2.33-2.08-6.78-2.42-14.73-2.45-14.79a1.32 1.32 0 0 1 .36-1.15c.46-.46.85-.46 2.38-.31a32.43 32.43 0 0 0 7 0c1.87-.36 7-1.58 7.83-1.63s1 .53 1.07 1.43zm-1-3.87a20.12 20.12 0 0 1-2.47.48c-.23 0-.44 0-.45-.12A19.37 19.37 0 0 0 99.84 97s1.93 2.82 2.2 4.47a6.1 6.1 0 0 1-1.89.93zm3.58-1.93a1 1 0 0 1-.84.77l-1.4-3.2a5.91 5.91 0 0 0-1.28-1.92 12.32 12.32 0 0 0 2.98-1.13l.12-.07c-.07.45.74 4.82.47 5.55zm8.17 2.81a5.86 5.86 0 0 1-1.17 4.08c-.47.55-.62.55-.62.55a10.48 10.48 0 0 1 1-2.26c.33-.26-.36-.15-1 .8s-1.39 2.7-1.86 3.28a4.27 4.27 0 0 1-2.44 1c-.62 0-.73-.29.22-.77s1.5-1.46 1.42-3.32-.66-2.37-.66-2.37-1.57 2.7-2.55 2.92-.55-.47 0-.88.51-4.85.84-6.05a10.74 10.74 0 0 1 .73-2 17.89 17.89 0 0 0 3 .07s1.71-.34 1.94-.06a17.5 17.5 0 0 1 1.2 5zm-7.11-5.12l.36.06-.28.53s.01-.27-.04-.59zm6.66-.82c-.32.1-1.2.23-1.2.23a12 12 0 0 1-2.36.16c-2.7-.07-3.35-.47-3.35-.47a2.73 2.73 0 0 1-.51-1.93c.07-.73.44-.51 1.2-.15a11.44 11.44 0 0 0 3.87.88c1.53.07 2.92-.44 3.06-.22a1.1 1.1 0 0 1-.67 1.5zm4.9-4.61c-.26.44-1.46 1.75-5.47 2.26a10.9 10.9 0 0 1-6.49-.95.4.4 0 0 0-.18-.11 2.18 2.18 0 0 1-.85-1.24 7.11 7.11 0 0 1 .33-2.84c.11-.77-.58-2-.18-2.48s2 .58 6.45-.18c3.91-.68 4.81-1.5 5-1.68.21 0 .59.07 1 .77a2.06 2.06 0 0 1-1.2 2.84c-1.17.47-2.86.73-3 .91s2.41.26 3.35-.18 1.06-.29 1.28.44a3.07 3.07 0 0 1 0 2.45z" fill="#692f23"/><path d="M83.55 78.11A21.37 21.37 0 0 0 80 69.9a23.32 23.32 0 0 0-9.92-8c-3.65-1.46-7.27-2.65-12.59-1.7a22.48 22.48 0 0 0-9.85 3.8 26.42 26.42 0 0 0-6.71 7.51 20.94 20.94 0 0 0-2.41 11 24.83 24.83 0 0 0 2.63 10.4A29 29 0 0 0 50.1 102a24.4 24.4 0 0 0 13.47 3A21.68 21.68 0 0 0 74 101.5a25.89 25.89 0 0 0 6.52-7 24.39 24.39 0 0 0 3.14-7.71 21.8 21.8 0 0 0-.11-8.68zm-.46 3.65c0 4.92-.3 5.27-1.29 8.17A26.18 26.18 0 0 1 74.55 100a19.85 19.85 0 0 1-9.77 4 25 25 0 0 1-9.43-.63 22.85 22.85 0 0 1-6.64-3.23A26.76 26.76 0 0 1 43 94.08a23.89 23.89 0 0 1-3.43-10.21 24.31 24.31 0 0 1 1.93-11.41c.73-1.26 3.74-6.18 7.9-8.57A25.18 25.18 0 0 1 60 60.83c3.21-.25 6.27.12 11.13 2.31s8.54 7.78 9 8.41a22.84 22.84 0 0 1 2.96 10.21zM78.91 98.67a1.22 1.22 0 1 0 1.22 1.22 1.22 1.22 0 0 0-1.22-1.22zm0 2a.83.83 0 1 1 .83-.83.83.83 0 0 1-.83.87zM61.31 105.91a1.22 1.22 0 1 0 1.22 1.22 1.22 1.22 0 0 0-1.22-1.22zm0 2a.83.83 0 1 1 .83-.83.83.83 0 0 1-.83.92zM43.76 98.62A1.22 1.22 0 1 0 45 99.83a1.22 1.22 0 0 0-1.24-1.21zm0 2a.83.83 0 1 1 .83-.83.83.83 0 0 1-.83.88zM61.36 56.08a1.22 1.22 0 1 0 1.22 1.22 1.22 1.22 0 0 0-1.22-1.22zm0 2a.83.83 0 1 1 .83-.83.83.83 0 0 1-.83.87zM43.64 63.3a1.22 1.22 0 1 0 1.22 1.22 1.22 1.22 0 0 0-1.22-1.22zm0 2a.83.83 0 1 1 .83-.83.83.83 0 0 1-.83.87zM36.35 81a1.22 1.22 0 1 0 1.22 1.22A1.22 1.22 0 0 0 36.35 81zm0 2a.83.83 0 1 1 .83-.83.83.83 0 0 1-.83.89zM79 63.35a1.22 1.22 0 1 0 1.22 1.22A1.22 1.22 0 0 0 79 63.35zm0 2a.83.83 0 1 1 .83-.83.83.83 0 0 1-.83.88zM86.22 81.07a1.22 1.22 0 1 0 1.22 1.22 1.22 1.22 0 0 0-1.22-1.22zm0 2a.83.83 0 1 1 .83-.83.83.83 0 0 1-.83.88z" fill="#692f23"/><circle cx="84.24" cy="102.43" r=".49" fill="#692f23"/><circle cx="87.96" cy="99" r=".49" fill="#692f23"/><circle cx="92.33" cy="101.99" r=".49" fill="#692f23"/><circle cx="96.16" cy="98.56" r=".49" fill="#692f23"/><circle cx="99.92" cy="100.75" r=".49" fill="#692f23"/><circle cx="102.54" cy="96.99" r=".49" fill="#692f23"/><path d="M62 85.06a2.77 2.77 0 1 1 2.77-2.77A2.77 2.77 0 0 1 62 85.06zm0-4.77a2 2 0 1 0 2 2 2 2 0 0 0-2-2z" fill="#692f23"/><path fill="#692f23" d="M61.61 60.3h.77v19.6h-.77zM61.61 84.68h.77v20.1h-.77zM39.09 81.9h20.52v.77H39.09zM64.38 81.9h18.88v.77H64.38zM63.99 80.58l-.54-.54 13.07-13.1.53.59-13.06 13.05zM45.745 97.805L59.979 83.57l.544.544L46.29 98.35zM45.767 66.303l.543-.546 14.286 14.211-.544.546zM63.373 84.203l.544-.544L77.77 97.51l-.545.545z"/></g></svg>