<svg xmlns="http://www.w3.org/2000/svg" width="150" height="150" viewBox="0 0 150 150"><title>гарантии_1</title><g data-name="Слой 2"><g data-name="за опаздание"><path fill="none" d="M0 0h150v150H0z"/><path d="M87.27 102.82a14.44 14.44 0 0 0-1.49 2.18c-.07.4 17.42.47 18.36.51s15.53-.11 15.53-.11 3.67.25 4 0-.73-2.4-.84-2.58a10.12 10.12 0 0 0-3.67-2.55c-1.49-.36-18.65.22-18.65.22s-12.77 1.64-13.24 2.33z" fill="#e2ddd3"/><path d="M89 105.11s-2.51-.11-3.05.33-.69 6.22-.69 8-.33 21.16-.18 22-.36 5.71.07 7a2.93 2.93 0 0 0 1.6 1.75l-.33 2c.11.84.95 1.82 1.75 1.6a2.05 2.05 0 0 0 1.16-1.16c.33-1.31.15-1.67.8-1.71s29.78-.25 29.78-.25-.05 1.91.38 2.41a2.31 2.31 0 0 0 2.42.06 2.11 2.11 0 0 0 .44-2c-.15-.58 1.64-3.35 1.64-3.35.07-2.11-.11-35.23-.11-35.23s-.73-1.13-1.49-1.27a29.74 29.74 0 0 0-3.82.07l-17 .15s-.18 1.31-.51 1.56-3.64-1.09-3.89-1.2-3.85-.76-3.85-.76l-1.2.07a9 9 0 0 1 .62 2.44c-.11.51-.4.95-.76.87a5.93 5.93 0 0 1-1.78-1.56c0-.15-.86-1.71-2-1.82z" fill="#c7c0b1"/><path d="M99.81 112.6s-1.64-.4-1.78.91a45.24 45.24 0 0 0 .33 5.56c.22.55 5.78.44 5.78.44.65 0 6.07-.15 6.07-.15s.84-.47.91-1.09 0-5-.33-5.31a13.36 13.36 0 0 0-3.2-.55zM107 125.11l4.51-2.58s2.91-2.29 3.64-1.56-.51 2.07-.51 2.07c-.33.58-5.49 4.14-5.49 4.14s-.44.33-.44.69 1.09 3.45-.18 4.94a5.11 5.11 0 0 1-2.65 1.82 1 1 0 0 0-.84 1.16 27.14 27.14 0 0 1-.15 4.54 6.29 6.29 0 0 1-.8 1.85c-.91 0-1.24-.58-1.31-1.78s-.25-5.49-.25-5.49a5.9 5.9 0 0 1-2.15-.55c-.65-.44-2.36-2.18-2.47-3.38a9.57 9.57 0 0 1 .44-2.95l-2-2-2.69-2.95s-.91-.8-.58-1.6.55-.58 1-.51 5.56 4.58 5.56 4.58a5.08 5.08 0 0 1 2-1.35 6.05 6.05 0 0 1 5.36.91z" fill="#e2ddd3"/><path d="M86.87 98.86c-.1.15-.36.87.55 2.8s2.95 3.13 3.2 4.11 1.05 2.51 1.75 2.62 1.24 0 1.05-1-1.2-4-1.2-4l3.78 1.76c.15.07 5.13 2.18 5.53 2.15s.51-.87.51-.87l.73-2.22a40.6 40.6 0 0 0-2.62-3.53A14 14 0 0 0 97.23 99c-.76-.29-4.18-.69-4.76-1a2.7 2.7 0 0 0-1.53-.15s-3.6.28-4.07 1.01z" fill="#f9e5cc"/><path d="M62 .91C60.67 1 57.32 2.07 56.28 2a14.27 14.27 0 0 0-3.37.12c-1 .19-5.65 2.91-7.32 3.66s-3.49 2.4-4.46 2.74-4.31 3.15-5.11 4a58.45 58.45 0 0 0-2.88 5.21 22.65 22.65 0 0 0-1.84 6.93c-.07 2.3.12 7.34.12 7.34a15.2 15.2 0 0 0 2.33 5.55c1.75 2.71 2.35 4.44 4.46 5.91s6 2.33 7.08 3 5.79 4 7.05 4.19 1.55-.1 1.67-1.19-.92-2 .15-2.3 7.66.19 9.4.34 7.2-1.19 7.32-1.31a8.55 8.55 0 0 0-.34 2.23c.15.9-.22 1.72 1.75 1.65a20.76 20.76 0 0 0 8-2.52c1.55-1.14 5.87-3.61 7.15-5S90.51 37 91 36.2s2.91-5.26 2.74-6.79-1.07-7.25-1.94-8.58-3.88-8-6.35-10.35-5.82-4.87-8-5.79a22.89 22.89 0 0 1-4.58-2.59c-.56-.41-4.56-.75-5.82-.8a11.28 11.28 0 0 1-2.57-.24A9.79 9.79 0 0 0 62 .93c-.41 0 0-.02 0-.02z" fill="#e09c51"/><path d="M62.39 13.29s.34 3.73-.63 4.41-3.49.44-4.56.44 2.57.1 2.57.1-5.38 0-5.67.15-5 1.16-5.91 1.31-3.05 0-4.56.87-2.38 1.36-2.71 3.93 0 3.54-.58 4-1.45.15-1.84.87-1.31 1.94-.1 3.15 2.28 1.84 2.91 2.57 3.15 5.14 4.22 6.5 5.28 4.31 9.11 5.28 11.73.39 12.12.24 4.85-.87 7.61-2.57a37.87 37.87 0 0 0 7.42-6.88l1.6-4a11 11 0 0 0 2.52-2.42c.39-.87.58-2.67 0-3.25s-2.57-.39-2.57-.39-1.22-3.69-1.34-3.88-3.44-5.91-3.49-6.11-2.28.63-4.41.34a55.48 55.48 0 0 0-7.37-.1c-.34 0-1.36.44-1.5.39a7.72 7.72 0 0 1-.78-1.94c.02-.2-1-3.2-2.06-3.01z" fill="#fbe0cb"/><path d="M57 37.34a47.73 47.73 0 0 1 5.7-.61 33.51 33.51 0 0 1 4.34.58c.85.27 1.53.48.29.95a8.73 8.73 0 0 1-3.61.9c-1.5 0-1.91.7-3.2.12s-2.91-.95-3.1-1.16a3.53 3.53 0 0 1-.42-.78z" fill="#e6c2b0"/><path d="M67.27 27.78c.18.3 1.15.27 1.67.31s1.73.38 2.44.45a2.74 2.74 0 0 0 1.85-.11c.78-.36 1.18-.11 1.18-.71s-.24-.76-.76-1.13a4.37 4.37 0 0 0-1.21-.59c-.62-.25 0-.35-1.11-.42a7.59 7.59 0 0 0-2.35.13 3.94 3.94 0 0 0-1.2.55c-.14.19-.65 1.28-.51 1.52z" fill="#fff" opacity=".9"/><path d="M69.42 26.07a1 1 0 0 0-.18.95 1.76 1.76 0 0 0 1.18 1.16 1.48 1.48 0 0 0 1.51-.36c.51-.55.76-.38.69-1s.27-.55-.4-.85a4 4 0 0 0-1.91-.2 3.12 3.12 0 0 0-.89.3z" fill="#add1ee" opacity=".9"/><path d="M55.54 27.68c-.18.3-1.15.27-1.67.31s-1.73.38-2.44.45a2.74 2.74 0 0 1-1.85-.11c-.78-.36-1.18-.11-1.18-.71s.24-.76.76-1.13a4.37 4.37 0 0 1 1.22-.49c.62-.25 0-.35 1.11-.42a7.59 7.59 0 0 1 2.35.13 3.94 3.94 0 0 1 1.2.55c.14.1.64 1.19.5 1.42z" fill="#fff" opacity=".9"/><path d="M53.34 26.08a1 1 0 0 1 .18.95 1.76 1.76 0 0 1-1.18 1.16 1.48 1.48 0 0 1-1.51-.36c-.51-.55-.76-.38-.69-1s-.27-.55.4-.85a4 4 0 0 1 1.91-.2 3.12 3.12 0 0 1 .89.3z" fill="#add1ee" opacity=".9"/><path d="M68.42 2a9 9 0 0 0-2 2 8.73 8.73 0 0 0-1 4.68c.07 1.7 1.24 5.19.9 6.59a6 6 0 0 1-.8 2.33c-.27.27-1-2.52-1.84-3.3a8.4 8.4 0 0 1-2.16-3.71c-.07-.87-.27-3.44.39-4.87a6.41 6.41 0 0 1 1.84-2.59c.36-.17-.68-.1-1.43.12s-4.8 1.84-6.23 2.23a13.25 13.25 0 0 0-6.4 4.56c-1.89 2.62-3.2 4.92-3.39 6.64a16.48 16.48 0 0 0-.22 3c.07.29-2 .48-2.11-1s0-4.48 0-4.48c.48-1.19 2.18-5.19 2.18-5.19.53-.61 1.41-1.75 1.41-1.75A24.27 24.27 0 0 1 44 10.87c-1.36.87-2.67 1.24-4.1 3.39s-2.25 5.58-1.75 6.86a9.42 9.42 0 0 1-1.19-2.74 6.8 6.8 0 0 1 0-1.24 14.55 14.55 0 0 0-3.2 4.39 25.81 25.81 0 0 0-1.55 6.91 36.79 36.79 0 0 0 .22 6l.29 1.26s-1.58-3.27-1.58-4.51-.24-5.91.46-8.6a67.69 67.69 0 0 1 2.93-7.64 31.51 31.51 0 0 1 5.62-5.87c1.7-1.21 6.3-3.9 8.1-4.94a21.63 21.63 0 0 1 6.5-2.21 29 29 0 0 0 4.44-.46 13.43 13.43 0 0 1 5.43-.32c1.79.39 3.8.85 3.8.85z" fill="#e9b87f"/><path d="M29.93 60.92s-2.62-5.38-2.64-5.48a59.38 59.38 0 0 1-1.19-6.71c-.07-1.82 0-2.25.44-2.4s.48-.07.53-.87a6.75 6.75 0 0 1 .46-2.46c.27-.32 1.09-.36 1.21-.41s0 .22.34-1.07 1.12-.65 1.41-.41a3.07 3.07 0 0 1 .56.73 1.37 1.37 0 0 1 1.19-.34c.61.19.7.34.95 1.31s1.14 4.73 1.16 5 .68 1 .68 1a10.41 10.41 0 0 1 .97-2.65c.51-.7 1-1 1.31-.8a1 1 0 0 1 .48 1.36 20.36 20.36 0 0 0-.22 4.73c.07 1 .78 3.05.22 4.48A33.71 33.71 0 0 1 36 59.81c-.27.36.58.75-.68 1.12s-2.42 1.09-3.49.78-1.44.16-1.9-.79z" fill="#f9e5cc"/><path d="M46.61 105.57s-.15-1.43.87-1.72 6.06 0 7.88.22a72.17 72.17 0 0 0 8.27.7c1.87 0 8.75-.32 8.75-.32 1.87-.29 5.26-1.12 6.76-1.31s2.33-1 2.47 0a26.1 26.1 0 0 1 0 5.87c-.29 1.65.22 3.83-.19 5a26.3 26.3 0 0 0-.39 5.82c0 1.14 0 4.9-.8 6.06a17.67 17.67 0 0 1-3.25 3c-2.11.44-2.91 1-5 .82s-4.87-.36-5.89-2.08-1.77-6.13-1.77-6.13-.78 2.64-1 3.47-.73 3.05-2.52 3.81-2.74 1.41-4.36 1.14-5.58-.63-6.47-1.65a12.6 12.6 0 0 1-2.45-6.11c0-2-.15-7.9-.27-8.44s-.74-7.62-.64-8.15z" fill="#fd8204"/><path d="M48.38 103.83s-.32 4.07-.22 4.8.46 6.06.53 6.93.36 6.25.95 8 1.5 4 3.13 5a30.74 30.74 0 0 1-1.38-6.57c-.32-3.51-.39-11.76-.39-11.76l-.15-6.45s-2.38-.37-2.47.05zM53.15 103.83s.24 3 .41 4.34.61 4.58.68 6 .15 5.33.51 7.88.65 5.91 1.53 7.13 2.08.1 2.08.1-.63.07-1.09-2.91 0-6.3-.48-10.18-.79-11.73-.79-11.73a24 24 0 0 0-3-.7c.18.16.15.07.15.07zM58.7 104.53c.1 0 .07 4.82.29 6.76s.53 5.33.85 8.63.48 7.08.15 8.19a2.87 2.87 0 0 1-.85 1.48s2-.87 2.06-.95.65-.8.65-.8a60.2 60.2 0 0 0 .15-8.14c-.17-5.31-.58-9.45-.63-10.62s0-4.7 0-4.7zM66.41 104.92a35.29 35.29 0 0 0-.44 5.16c.1 2.33 0 6.71.22 9a50.31 50.31 0 0 0 .95 7.22c.46 1.77.34 2.74 1.36 2.93s3.25.36 3.25.36 3-.32 3.47-1-.53-12.39-.58-13.38-.7-10.84-.7-10.84l-2.45.51s.87 18.35.85 20.75a20.08 20.08 0 0 1-.29 3.68 8.17 8.17 0 0 1-2.33-4.19c-.85-3.13-1.09-20-1.09-20zM77 103.9s-.17 7.66 0 9a63.85 63.85 0 0 1 .22 7.78c-.17 2.16-.87 7-1.33 7.66s1.62.27 2.38-.22 1.91-4.46 2-6.57-.27-10.72-.27-10.72-.24-7.1-.48-7.37-2.52.44-2.52.44z" fill="#e16702"/><path d="M51 128.87a28.4 28.4 0 0 0 .41 4.22c.36 1.41.78 3.32 1.33 3.81s3.68.87 4 .92 5.07.53 5.26.51.61.36 1.07-1.19a16.37 16.37 0 0 0 .19-4.14c.07-.53.22-4.53-.17-4.78a1.83 1.83 0 0 0-1.45.19 7.85 7.85 0 0 1-2.88 1.31c-1.12.15-5.45.17-6-.32s-1.43-1.1-1.72-.5-.04-.03-.04-.03zM66 127.48a7 7 0 0 0 3.56 2.21c2.16.46 7.05-.82 7.34-.82s.19.51.19 1.33a5.33 5.33 0 0 1-.17 2.4c-.39 1.19 0 1.82-.68 2.76s-1.12 1.84-2 2.06a19.13 19.13 0 0 1-3.22.61 23.36 23.36 0 0 0-3.3.29c-1.16.19-2 .78-2.21.17a10.52 10.52 0 0 1-.32-2.64c0-.68-.32-3.59-.34-4.1a33.08 33.08 0 0 1 .51-4.19c.18-.03.28-.44.64-.08z" fill="#d2a274"/><path d="M53.3 137.52s-1.52 0-1.89.32-1.26 1.07-1.45 1.31a9.37 9.37 0 0 1-.95.9 16.72 16.72 0 0 0-1.84 1.62 2.5 2.5 0 0 0-.68 1.7c0 .9-.27 1.09.1 2s0 1.94 3.25 3 7.81.8 9 .73 2.79 0 3.56-.44a10.76 10.76 0 0 0 1.45-1.12c.39-.32.56-.75.73-.17s.15 1.26 1.14 1.48a17.94 17.94 0 0 0 3 .39h3.42c.34 0 6.37-.65 6.67-.78s2.3-.82 2.59-1.31 1.28-3.78 1.12-4.39a7.43 7.43 0 0 0-1.52-2.02c-.44-.46-2.4-1.67-2.79-2.18a3.1 3.1 0 0 0-1.77-.95c-.61-.12-5.94.46-5.94.46a41.37 41.37 0 0 0-4.14.51c-.85.24-1.16.48-1.36 1.21s-.48 2.81-.48 2.81a6.74 6.74 0 0 1-1-2.16 2 2 0 0 0-1.62-1.94c-1.38-.29-3.93-.46-4.51-.58s-4.09-.4-4.09-.4z" fill="#efb000"/><path d="M54.4 47c-.18 0 .15 2.8-.25 3.42s-2.11.36-5 1.35-4.93 2.23-6.27 3.97-3.24 5.53-3.42 5.45-.62-.84-.91-1.13-1.38-.06-1.6-.06-.44.47-1.35.65-2.55 1.05-4.18 1-2.51-.62-2.62-.11a2.38 2.38 0 0 1-1.13 1.85c-1 .65-2.65 1.89-2.47 2.91a7.88 7.88 0 0 0 .44 2.44 6.25 6.25 0 0 1 .84 1.67 5 5 0 0 0 .18 1.75c.25.95.55 2.8 1.35 3.45a3.48 3.48 0 0 0 1.49.76s1.16 3.74 2.4 4.87 4.44 3.74 7.05 4.22a7.58 7.58 0 0 0 4.8-.8c.58-.18.25 2.4.33 3.16s-.29 6.33-.25 7.05 0 4.11-.07 5.38-.4 3.45 1.53 3.74 3.2-.55 4.58-.62 9.89 1 11.49 1.13 8.29.25 9.93.11 6.44-1.16 7.53-1.38 4.8-1.13 5.31-1.85.18-3 .22-3.45 1.64.8 3.27.51 2.51-.69 4.11-1 1.83-.44 2.27-1.2.4-1 .33-1.24 2.11-1.09 2.73-2.22-.65-7.09-.65-7.09a9.63 9.63 0 0 1-1.53-2.91c-.11-1-2-8.84-2-8.84S90.4 66.21 90 65.41s-4.73-7.53-5.53-8.8-6-5.31-9.24-6.07a20.83 20.83 0 0 0-4.69-.65c.11 0 .07-3.6.07-3.6a35.71 35.71 0 0 1-7.74 1.09c-3.45-.04-8.47-.38-8.47-.38z" fill="#fff"/><ellipse cx="51.74" cy="55.78" rx="3.69" ry="2.9" transform="rotate(-51.97 51.73 55.772)" fill="#fd8306"/><ellipse cx="54.27" cy="67.18" rx="2.71" ry="2.83" transform="rotate(-19.31 54.28 67.206)" fill="#fd8306"/><path d="M44.76 58.18a2.77 2.77 0 0 1-1.62 3.57c-1.41.5-4.6-.67-3.5-1.77s2.52-3.75 3-3.67a2.85 2.85 0 0 1 2.12 1.87zM47.75 78.75a2.86 2.86 0 0 1-2.69-.16c-.43-.27.18-3 .46-4.78a2.72 2.72 0 1 1 2.23 4.95z" fill="#fd8306"/><ellipse cx="34.96" cy="80.86" rx="2.83" ry="2.71" transform="rotate(-24.3 34.963 80.842)" fill="#fd8306"/><ellipse cx="38.38" cy="68.09" rx="2.83" ry="2.71" transform="rotate(-24.3 38.365 68.088)" fill="#fd8306"/><ellipse cx="57.83" cy="81.16" rx="3.09" ry="3.31" transform="rotate(-24.3 57.836 81.15)" fill="#fd8306"/><ellipse cx="48.52" cy="91.45" rx="3.31" ry="3.09" transform="rotate(-55.25 48.523 91.444)" fill="#fd8306"/><ellipse cx="64.45" cy="90.92" rx="2.68" ry="3.24" transform="rotate(-16.71 64.414 90.913)" fill="#fd8306"/><ellipse cx="76.88" cy="90.52" rx="3.24" ry="2.68" transform="rotate(-76.4 76.88 90.52)" fill="#fd8306"/><path d="M80.26 79.75a3.3 3.3 0 0 1 1.52-6.3c.68 3.49 1.37 5 1 5.43a2.59 2.59 0 0 1-2.52.87z" fill="#fd8306"/><ellipse cx="70.08" cy="79.91" rx="2.68" ry="3.24" transform="rotate(-24.73 70.068 79.9)" fill="#fd8306"/><ellipse cx="71.82" cy="68.29" rx="2.68" ry="3.24" transform="rotate(-24.73 71.825 68.286)" fill="#fd8306"/><ellipse cx="74.59" cy="55" rx="3.24" ry="2.68" transform="rotate(-57.14 74.588 54.997)" fill="#fd8306"/><path d="M88.24 63.45a3.3 3.3 0 0 1-5-4.17 2.61 2.61 0 0 1 2.62-.76c.57.12 3.31 3.82 2.38 4.93zM89.18 76.2a3 3 0 0 1-.7-4.15c.9-1.55 2.34-2.23 3.62-1.49a37.82 37.82 0 0 1 1 4.17 3 3 0 0 1-3.92 1.47zM84.44 86.71a3.79 3.79 0 0 1 .48-1.42 3 3 0 0 1 3.94-1.47 2.83 2.83 0 0 1 1 3.41c-.05.25-5.56.61-5.42-.52z" fill="#fd8306"/><ellipse cx="94.57" cy="91.7" rx="2.84" ry="2.34" transform="rotate(-60 94.561 91.695)" fill="#fd8306"/><g data-name="Лицо контур"><path d="M68 22.65s.16.09.89 0a7.38 7.38 0 0 1 3.27.2l1.95.44s.71.2-.29-.49a7.75 7.75 0 0 0-2.64-1.25 7.08 7.08 0 0 0-3.18.29c-.22.16-.31.77 0 .81zM54.18 22.81s-1.73-.07-2.42 0-2.8.64-3.15.71-.58-.05-.07-.37a8.44 8.44 0 0 1 2-1 8.88 8.88 0 0 1 3.38-.2c.5.17 1.3.75.26.86zM56 27.38a4.07 4.07 0 0 0-1.85-2 6.07 6.07 0 0 0-2.47-.32A5.71 5.71 0 0 0 49 26.17a4.51 4.51 0 0 0-1.09 1.69 6.31 6.31 0 0 0 1.82.75 13.47 13.47 0 0 0 2.08.29h.49a25.86 25.86 0 0 0 2.9-.77h.68c.1 0 .24-.19.12-.75zm-6.06.87a2 2 0 0 1-1-.37c-.15-.1-.17-.2-.17-.24a.31.31 0 0 0 0-.08c-.05-.48.86-1.16.91-1.16l.17-.05a1.35 1.35 0 0 0-.09.76 1.67 1.67 0 0 0 .89 1.13c-.32.02-.6.03-.75.02zm3.26-.85a1.48 1.48 0 0 1-1.29.63 1.51 1.51 0 0 1-1.44-.67 1.35 1.35 0 0 1-.1-.93l.09-.15a.52.52 0 0 1 .34-.23h.1a.21.21 0 0 1 .13.09 1.12 1.12 0 0 0 0 .62.94.94 0 0 0 .7.66 1 1 0 0 0 .91-.39l.08-.14s-.43-.37-.33-.62a.49.49 0 0 1 .3-.34H53.14a1.21 1.21 0 0 1 .03 1.48zm2.09.28a1.55 1.55 0 0 1-.74 0 4.58 4.58 0 0 0-.82.11 1.4 1.4 0 0 0 .26-.72 1.83 1.83 0 0 0-.2-.86.09.09 0 0 1 0-.14l.45.14a4.72 4.72 0 0 1 1.06.9c.12.17.16.48-.04.58z" fill="#692f23"/><circle cx="52.78" cy="26.38" r=".53" fill="#fff"/><path d="M74.75 27.71a3.64 3.64 0 0 0-2.54-2.34l-.33-.1a5.22 5.22 0 0 0-1.57-.15 2.67 2.67 0 0 0-.39 0 3.8 3.8 0 0 0-3 2.29s-.07.16-.08.18a.54.54 0 0 0 .08.58.46.46 0 0 0 .34.23c.14 0 .59-.08 1-.1a10.32 10.32 0 0 1 1.78.32 5.85 5.85 0 0 0 1 .11 19.61 19.61 0 0 0 2-.09 3.67 3.67 0 0 0 1.56-.76.22.22 0 0 0 .15-.17zm-6.42.14c-.26 0-.58.09-.71.09h-.13a.44.44 0 0 1 0-.45 3.67 3.67 0 0 1 1.22-1.28.38.38 0 0 1 .23 0h.09a.19.19 0 0 1 0 .16A1.24 1.24 0 0 0 69 27a1.3 1.3 0 0 0 .53 1 9.39 9.39 0 0 0-1.2-.15zm3.39-.13a1.65 1.65 0 0 1-.61.24 2 2 0 0 1-.91-.12 1.21 1.21 0 0 1-.74-.92c-.16-.75.3-.87.39-.89A.2.2 0 0 1 70 26s-.3.83.33 1.16 1.13-.33 1.13-.33-.16-.6.07-.74.63-.15.66 0a3.17 3.17 0 0 1 0 .85 1.58 1.58 0 0 1-.47.77zm2.28-.14c-.21.55-1.19.55-1.67.61h-.44a1.51 1.51 0 0 0 .89-1.5v-.2a.16.16 0 0 1 .17-.11 3.47 3.47 0 0 1 .8.64c.37.38.25.56.25.56z" fill="#692f23"/><circle cx="71.9" cy="26.55" r=".52" fill="#fff"/><path d="M59.56 31.94a2 2 0 0 1 1.51-.85 5.15 5.15 0 0 1 3.24.55c.42.38-.13.47-.47.4s-1.71-.29-1.71-.29a4.2 4.2 0 0 0-2.53.45c-.09.08-.27-.1-.04-.26zM71.53 36.47a8.48 8.48 0 0 0-2.84.49c-.64.07-4.42-.56-6.09-.64s-3.87.45-5.11.47-3.2-.24-4-.15a2.78 2.78 0 0 0-1.44.84c-.24.4 1-.35 2.44-.11l.39.05 1.06.4s1.64.93 2 1.07 1.27.45 1.67.56a8.88 8.88 0 0 0 2.93.36 13.09 13.09 0 0 0 4.22-.67 12.71 12.71 0 0 0 1.56-.84 18.63 18.63 0 0 1 1.68-.91 5.86 5.86 0 0 1 2-.39c.4 0 .87.11.89 0s-.2-.37-1.36-.53zm-8.88 2.43a11.63 11.63 0 0 1-5.18-1.13 3.78 3.78 0 0 0 1.16 0c.45 0 2.51-.51 3.69-.56a18.06 18.06 0 0 1 4 .44 8.16 8.16 0 0 1 .88.22 16.3 16.3 0 0 1-4.55 1.03zM60 41.88s.71-.73 2.89-.76a4.88 4.88 0 0 1 3.09.73 7.63 7.63 0 0 1-2.93.35c-2.1-.04-3.05-.04-3.05-.32z" fill="#692f23"/></g><path d="M72.28 118.13s2.76-.75 3.37-1a12.39 12.39 0 0 0 2.35-1.31c.39-.36.24.24.07.51a6.33 6.33 0 0 1-2.35 1.53 11.08 11.08 0 0 1-3.35.53c-.26-.02-.37-.19-.09-.26zM111.17 113.1a1 1 0 0 0-.38-.74c-.25-.25-1.3-.23-1.33-.23H98.47a.81.81 0 0 0-.68.86v5.1c0 .88 0 1.05.38 1.33a.9.9 0 0 0 .63.24s10.48 0 10.86.06a1.58 1.58 0 0 0 1.25-.52 1.6 1.6 0 0 0 .39-.93s-.12-4.86-.13-5.17zm-7.5.21c0-.24.21-.36.53-.36s.89-.06 1.09.14.14.67.14.67a3.1 3.1 0 0 1 0 .75c-.07.19-.45.36-1.07.24s-.62-.26-.63-.31-.06-.99-.06-1.13zm.25 1.9a2.31 2.31 0 0 1 .91 0c.53 0 .61.32.61.32a1.43 1.43 0 0 1 0 .75.53.53 0 0 1-.43.49h-1.23a.3.3 0 0 1-.17-.17 7.92 7.92 0 0 1 0-.9.62.62 0 0 1 .31-.5zm-5.33-1.85A.43.43 0 0 1 99 113h.18a2.77 2.77 0 0 1 1 .11.74.74 0 0 1 .43.57v.23c0 .44 0 .58-.17.67a1.68 1.68 0 0 1-1.79-.1 1.4 1.4 0 0 1-.06-1.13zm-.24 2.09a.51.51 0 0 1 .44-.35 6.7 6.7 0 0 1 1.28 0 .61.61 0 0 1 .5.56 2.94 2.94 0 0 1-.11.7.39.39 0 0 1-.22.19 6.26 6.26 0 0 1-1.39 0s-.38 0-.48-.53a3.48 3.48 0 0 1-.02-.58zm2.28 3.29c-.06.19-.32.23-.48.25h-1.17a.6.6 0 0 1-.56-.46v-1.05s0-.27.6-.28h1.33a.39.39 0 0 1 .35.39 4.41 4.41 0 0 1-.07 1.14zm.51-5c0-.72.21-.72.62-.76a5.66 5.66 0 0 1 .93 0c.46 0 .41.37.44 1.41 0 .47-1 .47-1.49.41s-.52-.37-.51-1.11zm.06 1.67a.5.5 0 0 1 .44-.16l1.38.06c.28.1.22.25.22.25a1.92 1.92 0 0 1-.08.88.5.5 0 0 1-.33.27h-.49a4.68 4.68 0 0 1-.69 0 .68.68 0 0 1-.56-.42 1.17 1.17 0 0 1 .11-.93zm2.05 3.08c0 .31-.08.48-.26.51s-.85 0-1.18 0-.51 0-.57-.28a3.51 3.51 0 0 1 .05-1.47c.17-.21 1-.15 1.41-.14.56 0 .56.33.56.33s.01.69-.01 1zm2.25.37a.58.58 0 0 1-.41.19h-.65c-.55 0-.65-.32-.68-.44a7.5 7.5 0 0 1-.05-1.06.39.39 0 0 1 .36-.41 6.8 6.8 0 0 1 1 0 .56.56 0 0 1 .54.45 3.16 3.16 0 0 1-.11 1.22zm5-.47a.93.93 0 0 1-.93.64h-3a.62.62 0 0 1-.56-.65l-.08-4.67a1.47 1.47 0 0 1 0-.18c.06-.51 1-.54 1.06-.53s2.16-.11 2.82-.08.65.56.65.56a43 43 0 0 1 .03 4.87z" fill="#692f23"/><g fill="#692f23"><path d="M85.13 58.14l-.05-.07s.15.23.05.07z"/><path d="M125.27 140s-.1-32-.12-33a4.38 4.38 0 0 0-.41-1.72s-1.67-2.23-2.76-3.83-4.24-1.25-4.7-1.3-10.83.12-11.39.12-5.39.09-5.78 0-.46-.27-1.87-1.21-3.47-.95-4.36-1.19-.92-.56-.7-.82 1-.17 1.48-.75a1.54 1.54 0 0 0 0-1.47l1.48-.63a4.92 4.92 0 0 0 1.24-.91c.18-.33.25-.8-.07-2.22a17.8 17.8 0 0 1-.07-3.86c0-.53-.35-1.95-.92-2.29-.82-.49-.9-1.53-1.19-3s-2-8.18-2.29-9.49a62.86 62.86 0 0 0-2.8-7.67c-.65-1.27-2.41-5.31-4.31-7.2l-.08-.09c-.49-.53-3.08-3.3-3.53-3.71a15.74 15.74 0 0 0-5.6-3 30.7 30.7 0 0 0-3.1-.73c1.44-.31 3.64-1 5.3-1.54A19.13 19.13 0 0 0 83.48 46a23.41 23.41 0 0 0 4-3.37c1.72-1.65 2.13-3.05 3-4.39a33.82 33.82 0 0 0 2.81-5.91 13.36 13.36 0 0 0 .46-6.5c-.32-2.52-.75-3.54-2.42-7.44s-5.94-8.21-5.94-8.21c-.25-.24-.59-.58-1-1a34.73 34.73 0 0 0-5.48-3.93c-.38-.15-2.1-1.26-2.51-1.52l-.09-.06a9.53 9.53 0 0 0-2-.75c-.24-.07-.22-.19-1.62-1.07a6.82 6.82 0 0 0-3.69-.8c-.44 0-2.55-.17-2.55-.17S65 .76 64 .57a11.85 11.85 0 0 0-4 .32 23.23 23.23 0 0 1-2.64.58 43.63 43.63 0 0 0-4.46.46 23.27 23.27 0 0 0-6.62 3c-1.09.75-4.14 2.35-5.62 3.32s-4.85 3.71-6.21 6.13a34.76 34.76 0 0 0-3.18 8.12c-.12 1.24-1.21 4.82-.53 8.36a14.94 14.94 0 0 0 1.6 5c.28.62 1.08 1.93 1.43 2.51a4.12 4.12 0 0 0 .24.5 29.67 29.67 0 0 0 3.27 4.27c1 .9 4.24 2.28 6.37 3.13a10.17 10.17 0 0 1 3.22 1.87 36.76 36.76 0 0 0 3.68 1.94c.46.19.56.27.53.48s-.68.32-1.43.53-2.3.8-2.5.87a25.64 25.64 0 0 0-3.91 2.8 27.62 27.62 0 0 0-2.93 4c-.41.56-.75 1.28-1 1.38s-.39-.63-.7-.73a6.29 6.29 0 0 0-1.53 0c-.17 0-.36-.12-.17-.63s1.38-2.06 1.36-3.68a24.05 24.05 0 0 0-.27-3c-.06-.62-.08-2.09-.06-2.4s.15-3.68.1-3.88a1 1 0 0 0-.95-.92c-.85-.07-1.45.68-1.77 1.62a8 8 0 0 0-.25 1.48c-.13-.06-.34-.25-.49-.82-.22-.87-1.16-5-1.36-5.5A1.18 1.18 0 0 0 32 41c-.46 0-.43.22-.65.25s-.56-.78-1-.78a1.48 1.48 0 0 0-1.41.73c-.39.63-.1.8-.24.95s-.85 0-1.24.63a10.57 10.57 0 0 0-.46 3c-.1.15-.27-.1-.63 0s-.56 1.23-.58 3.32A18.48 18.48 0 0 0 27 55.47c.85 2.3 1.87 4.34 2 4.61a.63.63 0 0 1 0 .68c-.15.27-.44.34-.56.7a1.56 1.56 0 0 0 0 .88c0 .22-1 .85-1.4 1.19a14.43 14.43 0 0 0-1.79 1.71 1.78 1.78 0 0 0-.46 1.55c.1.51.91 2.22 1 3 .06.41-.34 1.32.13 2.06a6.5 6.5 0 0 1 .7 1.61c.23 1.64.67 2.5 1.21 2.91a2.17 2.17 0 0 0 .94.29 11.85 11.85 0 0 0 2.08 4A17.13 17.13 0 0 0 34.37 84c.61.34.92.51 3 1.53a7.15 7.15 0 0 0 4.68.39c.24-.1 1-.44 1.33.12s0 3.08-.07 3.71a58.86 58.86 0 0 0 0 6.57c0 1.55-.29 5.36-.1 6.66s.65 1.48 1.65 1.36l1.1-.12a56.18 56.18 0 0 0 .33 7.4 47.61 47.61 0 0 1 .55 7.45c0 1.49-.29 6.44 1.45 8.22a7.61 7.61 0 0 0 1.82 1.31 3 3 0 0 1 .61 1.75 17.26 17.26 0 0 0 .82 4.63c.53 1.19.87 1.75.78 2.11s-.68 0-1.48.65-1.33 1.45-1.79 1.65-2.81 1.65-3.18 3-.07 4.07 1.24 5.19 4.56 1.82 6.13 1.87 6.52.12 7.3 0 1.89.07 2.69-.65a2.79 2.79 0 0 0 .9-1.14v-.18c.29 1.28 1.5 1.65 3.08 1.84a85.24 85.24 0 0 0 8.68-.12c1.31-.1 4.46-.78 5.6-2.06a6 6 0 0 0 1-4.78c-.29-1.19-2-2.3-2.5-2.64a5.8 5.8 0 0 0-.76-.4c-.17-.17-.84-.83-1-1a7.18 7.18 0 0 0-1.79-1c-.63-.15-.39-.63-.17-1.16a11.06 11.06 0 0 0 1.09-3.08c.33-1.71.29-3.72.62-4.27a7.13 7.13 0 0 0 2.09-1.52c1.24-1.42 1.78-4.11 1.53-6.69a52.83 52.83 0 0 1 .25-7.56 52.68 52.68 0 0 0 .55-6.11c-.06-1.91-.21-3.38.17-4a3.41 3.41 0 0 0 1.72-1.32c.34-.51.29-.95.32-2s.09-1.05.6-1.22a.8.8 0 0 1 1 .35 4.59 4.59 0 0 1 .17 1.07 6.22 6.22 0 0 0 .27 2.08c.27.56.24.56-.1 1s-1.55 1.31-1.65 2.55-.24 35.56-.24 35.56-.1 2.13.63 2.93.78.48.85 1.19-.51 2.33 1.16 2.91a1.71 1.71 0 0 0 2.47-1.26 8 8 0 0 1 .15-1.31s0-.31.46-.32h29.08v1.25c.07 1.45 1.69 1.53 1.69 1.53a3.94 3.94 0 0 0 1.85-.31c.77-.3.43-2.21.52-2.55s.9-.68 1.33-1.7a11.09 11.09 0 0 0 .42-3.36zm-24-39s11.33-.1 14.68 0 4.59.27 5.13.73 1.56 1.87 1.36 2.27-1.18.56-1.18.56h-18.17c.21-.25-.32-.95-.39-1-.32-.41-1.14-1.41-1.6-1.94s.19-.62.19-.62zm-6.5-2.25a11.67 11.67 0 0 1 4.34 1.6 22.71 22.71 0 0 1 3.08 3.41 1.07 1.07 0 0 1 .18.47c0 .27-.22.26-.41.18a10.92 10.92 0 0 1-1.23-1.43 9.42 9.42 0 0 0-2.42-2.1c-.51-.22-.35.05-.18.25s1.85 1.8 2.67 2.75 1.2 2.05 1 2.09-.35-.18-.65-.73a19.38 19.38 0 0 0-2.68-2.51 8.84 8.84 0 0 0-1.45-.82c-.36-.16-.57 0 .06.41s2.75 2.25 3 2.42 2.05 2 1.42 2.07a4.6 4.6 0 0 1-2.11-.75c-.31-.16-3.58-1.65-4.36-2a13 13 0 0 0-1.93-.69 2.49 2.49 0 0 0-.89-.13c-.27 0-.27.27-.13.67s.82 2.58 1 3.31c.16.52 0 .87-.17.95s-.64.12-1.14-.91a21.72 21.72 0 0 0-2.84-4.26 7.23 7.23 0 0 1-1.38-2.4c-.23-1-.26-1.63.06-1.89h.3a29.19 29.19 0 0 0 3.37-.58c.32 0 .58.24 1.07.39s1.26.05 2.45.22zm-.68 5.81h-1.22c-.13-.42-.19-.5-.17-.52a4.65 4.65 0 0 1 1.41.5zm22.42 4.51a8.61 8.61 0 0 1 3.05.49 1.45 1.45 0 0 1 .69 1.31s.22 23.85.25 25.32.09 2.74-.65 3.72-2.64.94-2.64.94h-10.73c-.53 0-.83-.1-.91-.33a4.13 4.13 0 0 1-.07-.91v-4.4s.12.07.8-.06a3.12 3.12 0 0 0 1-.42A4.45 4.45 0 0 0 109 133a6.42 6.42 0 0 0 .3-4.47.69.69 0 0 0 0-.13 1.06 1.06 0 0 1 .31-1.11s5.22-3.44 5.65-4 .8-.69.82-1.67a1.39 1.39 0 0 0-1.33-1.35 2.9 2.9 0 0 0-1.24.4s-5.54 3.82-5.91 4a.54.54 0 0 1-.62-.13l.07.09a5.44 5.44 0 0 0-3.12-1 5 5 0 0 0-4.2 1.29l-.09.12c-.44-.47-4.86-4.24-4.86-4.24s-1.16-.78-1.91 0-.49 1.44-.38 1.58 5.39 5.34 5.45 5.4a6.92 6.92 0 0 0-.37 2.8 5.38 5.38 0 0 0 2 3.7 4.32 4.32 0 0 0 2.75 1.1v4.83c0 .7-.7.7-.7.7s-9.79-.12-10.18-.15a2.67 2.67 0 0 1-1.72-.7 2 2 0 0 1-.48-1.58l-.07-27.74a1.33 1.33 0 0 1 .42-1 3.24 3.24 0 0 1 2.15-.67c.35 0 1.78-.07 1.78-.07s22.21 0 23.02.06zM103.36 132a2.6 2.6 0 0 1-1.58-.71 2.08 2.08 0 0 1-.4-1.87 2.36 2.36 0 0 1 1.67-1.71 2.06 2.06 0 0 1 1.84.32 3 3 0 0 1 .83 1 2.67 2.67 0 0 1-.34 2.17c-.58.95-2.02.8-2.02.8zm1.31 8.2c-.06 1-.39 1.19-.59 1.35s-.53.32-.93-.56-.16-6.81 0-7.62a.8.8 0 0 1 .53-.71.67.67 0 0 1 .23 0 .78.78 0 0 1 .3.07.74.74 0 0 1 .39.54c.03.14.13 5.97.07 6.93zm1.3-14.4c-.16.22-.93 1.05-.93 1.05s-.29.33-.42.29a4.34 4.34 0 0 0-1.36-.18 2 2 0 0 0-1 .28s-.13.27-1-.4c-.06 0-.71-.78-.71-.78s-.53-1.15 1.44-1.65a5.23 5.23 0 0 1 4 .51c.37.28.15.66.01.88zm1.62-.36s5.49-3.8 6.22-4.05 1-.05 1.07.09a1.31 1.31 0 0 1-.15 1.15 9 9 0 0 1-1.67 1.45s-6.34 4.45-6.67 4.34a1.05 1.05 0 0 1-.6-.47.78.78 0 0 1 .05-.95c.32-.35 1.75-1.56 1.75-1.56zm-6.86 1.7a1.06 1.06 0 0 1 .37.57.82.82 0 0 1-.27.65 1.12 1.12 0 0 1-1.13-.24c-.42-.36-1.31-1.09-1.31-1.09l-5.11-4.71a.6.6 0 0 1 0-.75.78.78 0 0 1 1.18 0c.43.43 6.27 5.57 6.27 5.57zm-2.23 1.63a.47.47 0 0 1 .59-.15l.18.12a5.25 5.25 0 0 1 1.05.78c.16.25.38 1.19.78 1.9a3.36 3.36 0 0 0 1.37 1.16 1.5 1.5 0 0 1-.09 1.16c-.33.58-.67.59-1.37.3a5.05 5.05 0 0 1-2.39-2.45 3.28 3.28 0 0 1-.12-2.82zm6.74 4a1.43 1.43 0 0 1 .21-.59 2.63 2.63 0 0 0 .85-1 2.93 2.93 0 0 0 .3-1.73l1.4-.81a.29.29 0 0 1 .23 0 2.17 2.17 0 0 1 .4 1.42 3.68 3.68 0 0 1-.47 2.51 13.13 13.13 0 0 1-1 1.18s-1 .76-1.46.45a1.59 1.59 0 0 1-.46-1.38zm-33.64-83c-.77-.26-.6-1.06-.69-1.14a4.2 4.2 0 0 1 .22-2 2.9 2.9 0 0 1 .86-.65 15.08 15.08 0 0 0 1.4-.64 23.06 23.06 0 0 0 6.48-4.73c-.12.58-.2 1.18-.28 1.54a9.2 9.2 0 0 1-2.18 4.4c-.72.72-2.82 2.34-3.49 2.85a5.65 5.65 0 0 1-2.32.42zM84.25 36a13.28 13.28 0 0 1-.11 5c-.58 2-.51 2.69-2.84 4.84l-.36.34a20.52 20.52 0 0 1-2.68 1.71c-.39.19-.87.39-1.39.59a11.4 11.4 0 0 0 1.41-1.66 8.26 8.26 0 0 0 1.49-3.35A36.1 36.1 0 0 1 81.23 40c.23-.47.88-2 1.35-3.1a11.45 11.45 0 0 0 1.47-3 4.82 4.82 0 0 0 .45-.35 11.28 11.28 0 0 0-.25 2.45zM84 33c-.92.48-.85.58-.85.58a1.25 1.25 0 0 1-.07.75 24.52 24.52 0 0 1-3.3 5.09C77.68 42 74.53 45 67.6 46.45s-16.6 0-20.14-3.68a42.44 42.44 0 0 1-6.16-8.31c-.07-.15-.22-.29-.7-.39a1.81 1.81 0 0 1-.85-.48c-1.58-1.28-1.6-2.62-1.28-3.44s1.07-.78 1.53-.82.7-.24 1-1.12a6.26 6.26 0 0 0 .2-1.82 19.93 19.93 0 0 1 .34-3.61 2.31 2.31 0 0 1 1-.82c.65-.82 2.71-1.12 3.59-1.36l3.59-1a25.08 25.08 0 0 1 4.01-.6c2.35-.15 3.44-.58 4.34-.56a18.19 18.19 0 0 1 3.08.36c.44.15.87-.29 1.24-1.45a6.34 6.34 0 0 0 .18-2.44.43.43 0 0 0 0-.15c0-.53.07-.65.32-.56A3.33 3.33 0 0 1 64 15.84a7.33 7.33 0 0 1 .44 2.42c0 .56.34.58.68.44s1.14-.19 1.77-.34a57.7 57.7 0 0 1 6.81-.07 14 14 0 0 0 4.21-.42c.3.32 1.11 1.62 1.56 2.21a20.76 20.76 0 0 1 1.58 2.84v-.05l1.71 5.31a2.39 2.39 0 0 1 1.77-.46A1.57 1.57 0 0 1 86 29.8a5.36 5.36 0 0 1-2 3.2zM55.31 49.85c.91-.88 1.25-1.76 1.47-1.66a11.69 11.69 0 0 1 1.08 2.12h-3c.06-.14.24-.31.45-.46zm-.6-.31a11.17 11.17 0 0 0-.16-1.12c-.07-.22.44-.9.85-.87l1 .06c-.55.65-1.4 1.67-1.68 1.92zm2.8-1.86c1 .05 2.07.1 2.89.1l-1.75 2a13.35 13.35 0 0 0-1.13-2.11zm5.29 11.64l-.28.19-.64-.34a8.37 8.37 0 0 1-2.55-1.83s2.05-1.45 3-2.16a24.34 24.34 0 0 0 3.48 1.33 29.09 29.09 0 0 1-3 2.8zm3.25-2.08c0 .91.06 2.5.08 3.41a13.68 13.68 0 0 1-2.88-.82 21.56 21.56 0 0 0 2.82-2.6zm-4-3h-.06a10.17 10.17 0 0 1-3.43-3.08c1.59 0 3.46 0 3.69-.09s2.08 0 3.58-.07c-.43.35-1.58 1.22-1.9 1.54s-1.09 1.09-1.82 1.73zm.38-5.84c-.23-.27-.51-.54-.66-.73h.94c.61 0 1.37-.07 2.23-.13-.34.47-1.37 2.16-1.37 2.16-.24-.34-.82-.98-1.07-1.27zm-.36.82a10 10 0 0 1 .8 1c-1.6 0-3.17.05-3.41 0h-.49a27.33 27.33 0 0 1 2-2.12 4.9 4.9 0 0 1 1.17 1.14zm-.9 5.29l.29.2c-.82.6-1.61 1.17-2 1.46a9.38 9.38 0 0 0-.89.76l-.33-4.26c-.02-.26 0-.41-.06-.73a17.25 17.25 0 0 0 3.06 2.6zm.4 5.49a27.76 27.76 0 0 1-2.71 1.15c-.11-1.37-.16-2.74-.17-3.19A27.77 27.77 0 0 0 61.57 60zm-.44 5.58a2.89 2.89 0 0 1-.63-.14c-.52-.19-1.13-.4-1.43-2.36 0-.2-.06-.41-.08-.62.62.53 2.13 1.81 3.13 2.6a1 1 0 0 1-.99.57zm-1.92-3.76a16.62 16.62 0 0 0 3.14-1.42 20.33 20.33 0 0 0 3.38 1.05 9 9 0 0 1-1.33 1.38 17.86 17.86 0 0 0-1.94 1.51zM63 65.07c0-.36 1.48-1.25 2-1.69s1-.92 1.29-1.27a5.78 5.78 0 0 1-.09 2.29c-.34.87-1 1.09-2 1.24a1.55 1.55 0 0 1-1-.34.27.27 0 0 1-.2-.23zM66.08 53c-.05.63-.05 1.79 0 2.78a9.5 9.5 0 0 1-3.16-1.09c.6-.6 1.56-1.71 1.95-2s1-.77 1.48-1.07a11 11 0 0 0-.27 1.38zm-2-2.73l1.71-2.54a7.8 7.8 0 0 1 1.27 1.19 7.88 7.88 0 0 1 .73 1.23c-.6.05-1.1.07-1.1.07zm3.54-2a7 7 0 0 0-1-.93 25.44 25.44 0 0 0 3.13-.58c-.15.23-.35.72-.58 1.07s-.8 1.5-.8 1.5a5.22 5.22 0 0 0-.76-1.04zm2.63-.51v.19a2.41 2.41 0 0 1-.42 1.76 2.43 2.43 0 0 1-1 .28zm19.5-12.7a11.69 11.69 0 0 1-2.08 6.28 7.79 7.79 0 0 1-3.07 2.34 6.73 6.73 0 0 0 .81-3.57c.07-3.35-.18-5 0-5.93.13-.7.23-1.55.41-2.27a3.77 3.77 0 0 0 .77-2.59c-.1-1.5-.7-2.06-1.38-2.3a2.41 2.41 0 0 0-1.43 0 .6.6 0 0 1-.65-.61A40.38 40.38 0 0 0 82 22.56c.8.14 2.81 1.87 3.36 2.37s1.21 1.79 1.33 1.65-.12-.73-.58-1.7a4.14 4.14 0 0 0-.74-1 5.05 5.05 0 0 1 1 .32c.87.39 2.35 2.69 2.81 3.85a21.88 21.88 0 0 1 .57 7.01zM79.43 5.95c.24.22 2.71 2.28 3.68 3a20.56 20.56 0 0 1 1.77 1.57l-.07.05s.22 0 1.31 1.36a56.72 56.72 0 0 1 4.1 6.57 27.28 27.28 0 0 1 2.86 9.87 12.72 12.72 0 0 1-2.23 7.51c-.36.8-.53.65-.53.65a29.77 29.77 0 0 0 .06-5.53 11.38 11.38 0 0 0-1.94-5.48 5.34 5.34 0 0 1-1.16-2.76 19.72 19.72 0 0 1 0-2.42c.15.36 1.55 2.47 2 3.13s2.22 3.83 2.22 3.83a8 8 0 0 0-.29-1.82c-.32-1.36-2.64-4.8-3.39-6.21a10.47 10.47 0 0 1-1-3.13 20.74 20.74 0 0 0-2.38-4.63c-1.31-2.18-5-4.41-5.5-5.28s.25-.5.49-.28zM75.7 4.78c.3-.07 1.3.73 1.3.73.32.36 1.72 1.24 2.33 2s3.73 3.49 4.39 4.59 2.69 5.21 2.79 7.17.24 3.35-.51 3.81-2.11-.48-2.11-.48h-.07l-.34-.2a18.07 18.07 0 0 1-2.76-2 7.89 7.89 0 0 1-1.55-2.21c-.07-.32.17-.41.51-.95a5.43 5.43 0 0 0 .48-1.7 7.06 7.06 0 0 0-.7-3.88 15.29 15.29 0 0 0-1.72-2.84 26.1 26.1 0 0 1-1.65-2.52c-.27-.38-.71-1.44-.39-1.52zm-9.16-3c2.3 0 3.35 1.87 4.51 2.88s2 4.87 2.13 4.8a8.56 8.56 0 0 0-.7-4.24 8.94 8.94 0 0 0-3.16-3.42 6.66 6.66 0 0 1 4.1 1.48c.9.7 1.21 2.13 2 3.66a13.64 13.64 0 0 0 2.5 2.93 6 6 0 0 1 1.38 4.22c-.07 2.13-.75 2.62-1.77 3.13a9.23 9.23 0 0 1-3.83.48c-1.14 0-5.11-.41-6-.36s-2 .51-2.08.41 0-.24-.36-1.28a10.09 10.09 0 0 0-1.84-2.71 6.52 6.52 0 0 1-.92-1.94 17.24 17.24 0 0 1-.65-3.93 5.54 5.54 0 0 1 2.08-4.56 7 7 0 0 1 2.6-1.5zm-6.4-.32s2.67-.22 3.35-.17 1.26.19.36 1a7.66 7.66 0 0 0-2.42 4 14.71 14.71 0 0 0-.27 5c.15 1.38 1 2.35.78 4.12s-.48 2.62-1.58 2.69a6.2 6.2 0 0 1-2.52-.34c-.36-.17-2-2.84-.85-4.87a5.59 5.59 0 0 0-1 2 3.17 3.17 0 0 0 .24 2c0 .17.48.63-.36.61A19.75 19.75 0 0 0 50 18.82h-.1a11 11 0 0 1-2.35.7 6.79 6.79 0 0 1-2.25-.12c-.53-.19-1-.22-1-2.38a15.72 15.72 0 0 1 1.38-6c.69-1.87 2.82-4.08 4.32-5.34s2-1.28 2-1.19-.48.48-.48.48a30.19 30.19 0 0 0-3.18 3.71c-.65.73-.46.92-.36.8s2.18-1.94 4-3.61a23.75 23.75 0 0 1 5-3.51 9 9 0 0 1 3.15-.85zM44.67 7a28 28 0 0 1 9.5-4.78c.58 0 .56.1.07.29s-3.61 1.94-4.31 2.38a21.55 21.55 0 0 0-3.88 3.81 24.15 24.15 0 0 0-2.11 4.44 21.4 21.4 0 0 0-.63 4.78c-.07.75 0 2.59-.61 2.76s-1.14 0-1.89-1.26-.17-3.81-.17-3.81c-1.19.75-.75 3.56-.32 4.53a3 3 0 0 0 1.12 1.26 3.87 3.87 0 0 1-2.86-.1c-1.21-.68-1.21-2.86-1.12-4.58s2-4.34 2.38-4.8 2.71-3.22 2.71-3.22c.37-.35 2.12-1.7 2.12-1.7zM33.06 36a6.59 6.59 0 0 1-.92-2.5 26.15 26.15 0 0 1-.51-6.69c.15-.8.07-5.07 1.75-8.77A20.76 20.76 0 0 1 39 10.48a8.66 8.66 0 0 1 2.42-1.57 19.74 19.74 0 0 0-2.11 2.45 38.92 38.92 0 0 0-2.35 4 9.6 9.6 0 0 0-.48 4 13 13 0 0 0 .61 2.33c0 .39-.48 1.19-.63 1.87a13.4 13.4 0 0 1-1.53 3A14.33 14.33 0 0 0 34 28.2a.33.33 0 0 0 0 .08 8.23 8.23 0 0 0-.71 2.85 40.86 40.86 0 0 0-.23 4.87zm9.19 9c-2.23-1.14-3.88-1.65-5.79-4a11.16 11.16 0 0 1-2.71-7.22 11.55 11.55 0 0 1 1-5.09c.17-.19 1.48-2.84 2-3.73s.56-1.84 1-2.47.95-.24.95 0a13.19 13.19 0 0 1-.24 1.84c-.15.68-1.24 3.1-1.65 4.24a3 3 0 0 0-.15 2 14.61 14.61 0 0 1 .85-2c.24-.51 1.36-3 1.53-3.56s.58-2.47 1-2.45.68 1.19.73 1.7a14 14 0 0 1-.13 1.92.31.31 0 0 0 0 .12 3.22 3.22 0 0 1-.29 1.38c-.19.46-.48.32-1.36.78a2.76 2.76 0 0 0-1.38 2.57 5.88 5.88 0 0 0 .95 2.3c.22.58 0 4 1.09 6.18s1.89 3.59 2.71 4.24.56.07.46-.12-.61-1-1.31-2.38a21 21 0 0 1-1.55-4.44 4.28 4.28 0 0 1 0-2.35 10.53 10.53 0 0 0 1 .8s.58.6.87 1a6.6 6.6 0 0 1 .6 2.16 16.24 16.24 0 0 0 .68 4 14.18 14.18 0 0 0 1.48 3.22s-.11.55-2.34-.64zm3.68 1c-2.47-2.91-2.3-4-2.42-4.58s-.13-1.5-.25-2.35a4.51 4.51 0 0 0 .25.38 18.24 18.24 0 0 0 6.81 6.13 14.85 14.85 0 0 0 1.59.67 2.94 2.94 0 0 1 1.56 1.53c.41 1.28.07 1.72-.58 1.67A11 11 0 0 1 45.93 46zm-8.27 14.35c.47-.07.87 0 .87.5a1.76 1.76 0 0 1-.78 1.41 5.39 5.39 0 0 1-.59-1.81 2.87 2.87 0 0 1 .5-.1zm-10-5.3a21 21 0 0 1-1-4.17c-.17-1.55-.51-3.9-.15-4.12s.53.07.78 1.16a16.79 16.79 0 0 0 1.14 3.44c.17.07.34 0 .15-.58a38.51 38.51 0 0 1-1.09-5.36c0-1 0-2.18.48-2.45s.61.36.75 1 1.16 5.07 1.24 5.45.15.9.27.9a6.33 6.33 0 0 0 0-2.21c-.12-.73-1.07-4.9-1-5.72s.22-1.31.63-1.43.9.29 1.21 1.43 1.43 6.76 1.5 6.93.27.22.19-.24-1.2-7.08-1.2-7.08 0-.39.48-.44.75.61 1 1.87.7 3.44.85 3.88a17.06 17.06 0 0 1 .73 2.47 1.24 1.24 0 0 1-.29 1 11.38 11.38 0 0 0-1.28 1.35 3.73 3.73 0 0 0-.59 1.46c-.06.35 0 .28 0 .28a12.08 12.08 0 0 1 2.25-2.71c.81-.66.76-2.33 1-3.69s.87-2.13 1.45-2 .29.9.15 1.53a26.91 26.91 0 0 0-.24 3.32 12.66 12.66 0 0 0 .24 2.5 7 7 0 0 1-.15 2.93 14.37 14.37 0 0 1-1.16 2.6 3.62 3.62 0 0 0-.39 1.51 5.06 5.06 0 0 1-3.15 1.32 5.55 5.55 0 0 1-2.28-.27s-2.11-4.54-2.53-5.85zm2 6.57a9.88 9.88 0 0 0 4.46 0 3.47 3.47 0 0 0 2-.85h.05c.16.36.54 1.23.63 1.53a1 1 0 0 1-.24.95 20.73 20.73 0 0 1-2.42 2 11.7 11.7 0 0 1-3.32 1.38c-.56 0-.82-.36-.87-.92a20.17 20.17 0 0 0-.48-2.13l-.47-1.3s-.06-.82.64-.65zm-3.88 4.27c-.07-.48 1.48-1.87 2.13-2.28s.87-.1.87 0 .8 1.87.17 2.53-1.87.45-2.45.34c-.23-.06-.7-.32-.74-.59zm1.7 7.9a6.73 6.73 0 0 0-.63-2c-.15-.36-.24-1 .22-1.26s2.57-.44 3.64-.82.68-.65 0-.56-3.32.7-3.85.46-1.18-1.9-1-1.95.93.15 2.44.11a20.44 20.44 0 0 0 5.14-1.26 9.74 9.74 0 0 0 3.13-2.06c.33-.33 2.52-2.42 2.52-2.42s.07.58.19 1.09a5.46 5.46 0 0 1-.22 3.71c-.46 1.21-2.33 2.08-2.33 2.08a5.07 5.07 0 0 0 1.72-.63c.68-.46 1-1.24 1.58-1.31 0 0 .61.11.92 1.28a13.84 13.84 0 0 0 .61 1.55 5 5 0 0 1-2.18 3.83 9 9 0 0 1-4.31 1.65c-1.55.1-3.71.65-5.41.41s-2.06-.85-2.2-1.9zM44 95.25c0-.65 1-13.86 1.16-14.79s.73-6.52 1.21-9.94a38.54 38.54 0 0 0 .36-8.1c-.25-.33-.27.23-.27.23s.07 3.37-.73 3.29-1.27-1.41-1.27-1.41c-.24-.34-.17.07-.17.07s.65 2.69.8 3.71a24.66 24.66 0 0 1 .15 3.85c0 1.21-.44 5-.78 8s-1.46 4.47-2.38 4.76-1.67.58-4.87-.61a11.77 11.77 0 0 1-5.82-4.48 7 7 0 0 1-1.27-3.13c.23 0 2.73-.3 4.48-.56a16.09 16.09 0 0 0 4.7-1.41 8.65 8.65 0 0 0 2.7-2.44 3.22 3.22 0 0 1 .8 2 8.74 8.74 0 0 1 0 2.64c.44-.1.47-1.79.59-3.1S43 72.1 43.14 72s.7.34 1 1.13a4.46 4.46 0 0 1 .25 1.56s.34-.22.18-1.27a3.24 3.24 0 0 0-1.18-2c-.33-.28-.74-.18-.79-.76a29.29 29.29 0 0 0-.87-3 2.06 2.06 0 0 0-1.31-1.6 7.49 7.49 0 0 1 .1-1 4.12 4.12 0 0 0-.41-1.89l-.22-1.79a44.42 44.42 0 0 1 3-4.92c.68-.63 2.5-2.79 4.53-3.66a12.09 12.09 0 0 1 3-1 21.25 21.25 0 0 1 3-.58h.61s1.69-.07 2.36-.05h1c0 .29.07 1.73.11 2.26s.32 2.62.33 4 .24 3.38.3 4.16.16 1.49.25 2.1a4 4 0 0 0 .82 2c.61.79 3.2.57 3.76.59a6.69 6.69 0 0 0 2.8-.45c.57-.39.86-.38.95-1.26s0-4.75 0-4.73 0-3.9-.06-4.46.24-3.3.33-3.65a2.65 2.65 0 0 1 .28-.83c.45-.07 2.91-.27 3.89-.28a20.19 20.19 0 0 1 3.1.44 15.52 15.52 0 0 1 4.28 1.5A15 15 0 0 1 81.95 55c.51.47 3.21 3.32 3.41 3.57a35.09 35.09 0 0 1 5.18 10c2.36 6.65 2.29 6.07 2.33 9a1 1 0 0 0 .33.91 7.6 7.6 0 0 1 1 2.51c.15.55.8 2.87.58 3.53s-1.35 1.24-3.2 2a13.66 13.66 0 0 1-5.6.47c-1.09-.11-1.93-.58-2.07-1.45l-1.29-10.32a12.23 12.23 0 0 1-.07-2.76 6.54 6.54 0 0 0 .69-3c0-1.93-.22-1.82-.25-1.16s-.07 2.44-.84 2.65c0 0-.25 0-.51-1.09s-1.49-5.78-1.49-5.78-.47-1.24-.36.22c0 0 1 5.31 1.45 7.53S83 85.55 83 85.55a3.48 3.48 0 0 1 0 1c-.15.37-.45.19-.59.67a3.82 3.82 0 0 0 .11 1.89 3.51 3.51 0 0 1-.18 1.75 3.45 3.45 0 0 0 .44 2.35c.29.41.68.73.41 1.07a14.07 14.07 0 0 1-3.32 1.43c-.9.27-4.65.91-6.1 1.08s-8.29.26-11 .21-7.3-.51-8.44-.65-4.44-.22-4.44-.22c-.8 0-3.27.1-4.51 0s-1.44-.23-1.38-.88zm13 2.64c.44.35 1.91 5 2.2 6-1.68-.09-3.48-.22-4.07-.29l-1.62-.2c.62-.86 3.02-5.88 3.49-5.51zm-3.54 3.88c0 .07-.68 1.43-.85 1s-1.74-4.75-2.15-5.9a25.63 25.63 0 0 1 2.66.21c.34.06 1.54.17 2.87.28-.49.83-2.5 4.34-2.55 4.41zm4.48-4.24l2.26.17h3a29.2 29.2 0 0 1-1 2.89c-.58 1.41-1.17 2.52-1.43 3-.18.34-.53.07-.53.07zm6.23.46a41.72 41.72 0 0 1 3.12 5.94c-2 0-4.33.08-5.12.08h-.77c.69-1.14 2.75-6.01 2.75-6.01zm2.41 2.26c-.73-1.43-1.13-2.1-1.4-2.58H71.07c-.12.41-.75 1.48-1.2 2.43-.78 1.65-1.71 3.46-1.71 3.46s-.61-1.36-1.6-3.32zm5.33-1.86c.27.11 3.57 4.1 4.12 4.75-1.82.29-4.41.71-5.19.73-.33 0-.79 0-1.84.06.67-1.2 2.63-5.66 2.89-5.55zm.62-.82a36.6 36.6 0 0 0 4.88-.49c.68-.13 1.34-.29 1.95-.46-.05.37-.45 1.3-.71 2.1-.52 1.55-1.62 3.77-1.91 3.77a58.14 58.14 0 0 1-4.23-4.94zM44.4 102l-.14-5.29a9.48 9.48 0 0 0 1.89.28c.53 0 1.51 0 2.37-.06-.81 1.19-3.42 4.29-4.12 5.07zm.69 1.53c-.48-.38-.15-.74-.15-.74s4.22-5.79 4.63-5.65 1.74 4.84 2.08 6a10.68 10.68 0 0 0-1.86 0c-1.39.23-4.62.45-4.7.44zm4.29 20.69c0 2.91 1.24 3.67 1.24 3.67-2.18-1.31-2.58-4.07-2.69-5.13s-.11-6-.13-6.41.58-.7 1-.78.1-.29.1-.29-.39-.1-1.09-1.53-.63-7-.65-8.39a1.94 1.94 0 0 1 .35-1.34 28.68 28.68 0 0 1 3.73-.11c2.06.15 6.62 1 7.61.95a35 35 0 0 1 3.68 0c.87 1.27.88 5.88 1 9a68.82 68.82 0 0 1-.87 11.16c-.51 3.85-3 4-3 4a2.57 2.57 0 0 0 .65-1.93c-.11-.84-.4.15-.4.15s-.15 2.22-3.74 1.89-5.64-3.31-6.29-4.73-.5-.13-.5-.13zm11.51 15.54a2.38 2.38 0 0 0-.27-1.15 4.84 4.84 0 0 1 .58.06 2.68 2.68 0 0 1 1.67 1.21l.05.08a4.91 4.91 0 0 1 .27 1 13.78 13.78 0 0 0-2.3-1.14zm1.9 2.62a4 4 0 0 1-1.08-.12c0-.66-.5-1.37-.36-1.35s1.56.73 1.6 1a.64.64 0 0 1-.16.53zm-5.59-2a6.1 6.1 0 0 0 0-.89 6.07 6.07 0 0 1 2.94 1.11 2 2 0 0 1 .51 1.41c-.85-.2-1.68-.41-2-.47-.62-.11-1.85-.27-1.85-.27a1.34 1.34 0 0 0 .4-.82zm-.09-1.69v-.4c0-.12.09-.17.22-.19a19.07 19.07 0 0 1 2 .39 1.55 1.55 0 0 1 .53.82 11.31 11.31 0 0 0-2.76-.59zm5.64-1.41c-.58.73-1.28.73-2.74.56s-5.74-.61-5.74-.61a4.67 4.67 0 0 1-1.27-1.39 4 4 0 0 0 .63.25 31.59 31.59 0 0 0 6.64.15 5.26 5.26 0 0 0 3-1.14 5.08 5.08 0 0 1-.52 2.25zm-6.93 1.39H53.68s-.09-.11.11-.25.49-.45.7-.6a11.78 11.78 0 0 1 1.38 0c.18.06.37.18.37.39 0 .53-.13.52-.42.53zm.2 1.42a2.17 2.17 0 0 1-.45 1H52.3s-.36 0-.31-.31a5.22 5.22 0 0 1 .64-1.16s.18-.4.87-.38h.22a11.76 11.76 0 0 1 1.8 0 .86.86 0 0 1 .48.92zm7.29-6.53a6.41 6.41 0 0 1-3.68.81 12.65 12.65 0 0 1-5.41-1.37 19.69 19.69 0 0 0 5.53 0 9.13 9.13 0 0 0 3.52-1.12c.03.78.03 1.46.04 1.75zm-.13-3.51a5.32 5.32 0 0 1-4.31 1.12 19.86 19.86 0 0 1-5.42-1.39 12 12 0 0 0 3.05.42 9.91 9.91 0 0 0 5.81-2s.36-.39.65.48a6.77 6.77 0 0 1 .22 1.44zm-11.58.76a2.84 2.84 0 0 1 .07-1.15c.85.74 2.31 1.23 5 1.9a12.4 12.4 0 0 0 5.72-.15s.32.1-.73.46a30.51 30.51 0 0 1-7.56.46 5 5 0 0 1-2.38-.73q-.07-.34-.12-.72zm.32 1.83a10.24 10.24 0 0 0 2.44 1.16 15.45 15.45 0 0 0 8 .92s-.32 1.09-4.8.92c-3.24-.12-4.57-.68-5.06-1-.26-.64-.44-1.31-.58-1.94zm-1.27 6a3.28 3.28 0 0 1 1.61-.7h-.14 1.16a3.1 3.1 0 0 0-.49.33c-.2.18-.2.48-1.2.68l-.82.12s-.5-.07-.11-.41zm-1.36 1.7a11.59 11.59 0 0 1 2.3-.68l-.82 1.41s-1.47.13-1.85.22-.77.15-.86-.09a2.5 2.5 0 0 1 1.24-.84zm-2.14 2.38l2.88-.45c.31 0-.62 1.4-.71 1.91s0 .64-.31.64a2.41 2.41 0 0 1-1.88-2zm2.12 5.28h-.11a5.48 5.48 0 0 1-1.54-.88 2.78 2.78 0 0 1-.75-2.3 6.54 6.54 0 0 0 2 1 2 2 0 0 0 0 .78c.02.61.86 1.34.4 1.4zm4.6.31a3 3 0 0 1-3.07-.18 2.74 2.74 0 0 1-.87-1.93l.49.12a19.18 19.18 0 0 0 3.5.35 2.42 2.42 0 0 1-.05 1.62zm0-2.65a14.29 14.29 0 0 1-3.27-.09 1.14 1.14 0 0 1-.6-1.22 7 7 0 0 1 1-1.87.92.92 0 0 1 .71-.36h2.96c.23.06.5.19.49.48 0 .51-.47 2.45-.47 2.45s-.07.46-.78.58zm5.84 2.18a1.13 1.13 0 0 1-.64.61h-2.2l-1 .06a1 1 0 0 1-.67-.48 1.23 1.23 0 0 1 .14-1.34h.86c1.08-.06 3.22 0 4 0-.01.09-.2.55-.45 1.12zm-1.89-2.09c-.82 0-2.22.15-2.27-.49a8.35 8.35 0 0 1 .75-2.38s0-.29.24-.35l.36.06 3.4.56c.27.05.55-.09.42 1.09a.8.8 0 0 0 0 .32 2.32 2.32 0 0 1-.13.86c-.15.36-1.92.3-2.73.3zm3.59 2.48l-.38.06c-.21 0-.39 0-.39-.12a14.12 14.12 0 0 1 .76-1.66c.53 0 1.13-.09 1.43-.14.51-.09.65-.22.75 0 .02.45-.02 1.49-2.14 1.84zm2-4.22a6.05 6.05 0 0 0 0 .75.9.9 0 0 1-.65.6c-.87.24-1.29.22-1.24-.55s.06-1.2.07-1.4a4.83 4.83 0 0 0 1.17 0 1.26 1.26 0 0 0 .81-.45v.04a4.1 4.1 0 0 0-.16 1zm.85-2.59a9.78 9.78 0 0 1-.51-2.91v-.23a24.15 24.15 0 0 0 .06-3.38c-.1-2 .34-5.58.1-6.69a11.44 11.44 0 0 1-.31-2.29 20.54 20.54 0 0 0 .62-2.73c.19.8.48 2 .64 2.67 0 0-.19 3.61-.24 4.34s0 5 .07 6.28a13.58 13.58 0 0 1 0 3.61c-.34.85-.44 1.31-.44 1.31zm.53 1.82a1.75 1.75 0 0 1 .11-.23s.24.36 1.09.47a3.51 3.51 0 0 0 .85 0 3.78 3.78 0 0 0 .12.8c0 .24.16 1-.15 1.22s-1-.07-1-.07a1.81 1.81 0 0 1-1.03-2.21zm3.33-10.37a36.21 36.21 0 0 0 6.45.29 21.1 21.1 0 0 1-4 1.07c-3.35.21-4.87-.49-5.34-.78v-1.82a6.48 6.48 0 0 0 2.88 1.21zM65.27 130v-.88s.1-1.28.9-1a8.84 8.84 0 0 0 1.44 1.1c2 1.24 5.2.8 6.76.69a5.91 5.91 0 0 0 .8-.12 16.41 16.41 0 0 1-6.58 1.21c-2.81-.15-3.32-1-3.32-1zm7.46 9.44a19.58 19.58 0 0 1 3.17.08l.82 1.52a9.25 9.25 0 0 0-1.6-.13 23.55 23.55 0 0 0-2.36.18 2.52 2.52 0 0 1-.24-1 1.16 1.16 0 0 1 .22-.62zm-.32-.72c-.11-.11-.22-.27-.19-.39a1.11 1.11 0 0 1 .25-.38c.1 0 .62-.06 1.15-.08.15.07.82.14 1 .42s.2.31.27.41h-.91a11.74 11.74 0 0 0-1.56.05zm1.17-1.43a47.65 47.65 0 0 1-5.65.65c-1.21 0-1.94.29-2.38-1.33a11.39 11.39 0 0 1-.27-2.06c.78.95 2.41 1.41 4.63 1.6a35.29 35.29 0 0 0 5.42 0 2.38 2.38 0 0 1-1.74 1.18zm-2.23 1.56a22.14 22.14 0 0 0-2.57.54c-.21-.21 0-.53 0-.53s.48-.53 2.58-.65a.74.74 0 0 0 0 .68zm-1.16.93a10.48 10.48 0 0 1 1.19-.22 2.26 2.26 0 0 0-.07.73 3.52 3.52 0 0 0 .24 1c-.69.09-3.71.69-3.71.69a3 3 0 0 1 .73-1.64 15.07 15.07 0 0 1 1.62-.52zm-2.61 0a16.61 16.61 0 0 0-2.33 1.28c0-.28.22-1.64 1.06-2a3.84 3.84 0 0 1 1.42-.34c-.24.28-.19.85-.15 1.13zm-.46 1.22a5.39 5.39 0 0 0-.4 1.38s-1.2.13-1.2-.22.28-.51.43-.61.65-.33 1.17-.55zm.51 7.09a.41.41 0 0 1-.33.18 3.27 3.27 0 0 1-1.86-.6 2.82 2.82 0 0 1-.54-1.3c0-.4.1-.23.1-.23a3.13 3.13 0 0 0 1.6.38h.4c.2.09.24.21.24.21s.54 1.07.4 1.34zm.09-3v-1.77c.84-.17 1.71-.4 2.18-.48s1-.21 1.91-.35c.34 0 .36.17.36.17a15.51 15.51 0 0 1 .73 2.53c0 .53-.42.51-.42.51a32.35 32.35 0 0 1-3.89.13c-.79-.18-.83-.45-.86-.78zm5.6 2.93c-.06.26-.47.37-.76.41h-2.82a1.28 1.28 0 0 1-1.1-.77 4.61 4.61 0 0 1-.37-1c.94 0 2 0 2.92.06.6 0 1.29.07 2 .08.35.13.22.81.14 1.2zm.62-2.71a12.85 12.85 0 0 1-.73-2.58c0-.36.18-.45.25-.47.76-.08 1.6-.14 2.51-.15h1.3c.67.38 1 1.57 1.13 2.33s-.24 1-.47 1.11a11.65 11.65 0 0 1-2.25.18c-.68-.02-1.55-.13-1.74-.46zm4.25 2.29a2.29 2.29 0 0 1-1.18.92h-.41a15.73 15.73 0 0 1-1.62 0 1.28 1.28 0 0 1-.51-1.22 1.4 1.4 0 0 1 .15-.67c.77 0 1.58-.07 2.39-.15a9.47 9.47 0 0 0 1.58-.29 2.55 2.55 0 0 1-.39 1.37zm3.41-2.87a4.37 4.37 0 0 1-.8 2.48 3.17 3.17 0 0 1-1.73.75 2.79 2.79 0 0 0 .41-.81 2.39 2.39 0 0 0 .12-1.25c.58-.25 1-.51 1.35-.68a1.64 1.64 0 0 0 .66-.53zm-1.61 0c-.75.4-.71-.09-.82-.58a14.43 14.43 0 0 0-.85-1.94 21.64 21.64 0 0 1 3 .54 2.48 2.48 0 0 1-1.32 1.96zm.33-3.67l.13.2c0 .35-.26.24-.26.24l-2.45-.38-.83-1.4H77c2.55.44 3.33 1.28 3.33 1.28zm-3.88-3c.44.17.9.12 1.16.39a.37.37 0 0 0 .16.1.43.43 0 0 1 .13.46l-1.62-.15-.39-.37a1.75 1.75 0 0 1-.33-.53 2.81 2.81 0 0 1 .9.04zm-.44-3.11c-.59.36-2 .94-5.11.78-3.71-.19-4.29-1-4.29-1a6.37 6.37 0 0 0 2.93.29 19.62 19.62 0 0 0 5-1.14 5.27 5.27 0 0 0 2.11-1.12 10 10 0 0 1-.64 2.19zm.85-3.49v.19c-.77.63-2.36 1.06-5.86.88s-4.58-1.12-4.58-1.12c2.28.51 3.76.36 7.32-.32 2-.37 2.78-.93 3.12-1.36a4.63 4.63 0 0 1-.04 1.73zm4.61-19.91a12.87 12.87 0 0 1-1.31 3.53 1.19 1.19 0 0 1 .69.95c.15.76.36 7-.51 9.09a5 5 0 0 1-2.4 2.87c-.4.22 0-.07.69-1.42a10.58 10.58 0 0 0 .76-5c-.15-1-.4 0-.55.65s-.18 4.29-2.47 5.78a8.06 8.06 0 0 1-6.47.84c-1.05-.47-1.49-2.55-1.45-3.13s-.29-.22-.15.8.18 2 .73 2.47c0 0-1.78.51-3.05-3.24a37.39 37.39 0 0 1-1.45-8.9c0-.49 0-.93.07-1.28a101.13 101.13 0 0 0 .26-10.4A30.09 30.09 0 0 0 73 105c1.12-.29 4-.8 7.17-1.41l.57-.12c.45-.09.44.23.51.72.13.99.53 5.76.17 7.36zm.51-10.39a1.63 1.63 0 0 1-1.22 1c-1.2.33-2.53.67-3.17.77h-.07c1-.93 2.4-5.76 2.54-5.78s2.19 3.21 1.88 4.01zm1.27.15c-.28.1-.33-1.07-.81-2a19.34 19.34 0 0 0-2-3 22.5 22.5 0 0 0 2.94-1.21 38.08 38.08 0 0 1 .57 4.21c.06 1.49-.37 1.82-.74 2zm.18-9.26c0-.69.73-1 .55-2.25s-.4-1.56-.22-2.07.84-.44 1.67-.25a21.21 21.21 0 0 0 5.38-.15 13.33 13.33 0 0 0 3.85-1.6 1 1 0 0 1 1.42.62 1.89 1.89 0 0 1-.33 2.36 7.33 7.33 0 0 1-3.6 1.45 9.88 9.88 0 0 0 2.44 0 4.72 4.72 0 0 0 1.2-.44c.18-.11.55-.25.73.47a3.27 3.27 0 0 1 0 2.12 3.38 3.38 0 0 1-.57 1c-.75.78-3.35 1.41-4 1.58s-4.19.61-6.13-.24-2.46-1.65-2.43-2.59zm1.36 5.08c-.42-.38-.4-1-.43-1.68 0-.38.48-.57.48-.57s.22.63 2.55 1a12.93 12.93 0 0 0 5.82-.46l.51-.14c.41.1.48.46 0 .94a5.89 5.89 0 0 1-1.89 1 15.2 15.2 0 0 1-4.24.63 3.5 3.5 0 0 1-2.84-.71zm2.22 6.62c.22-.2.41-.52.82-.36s1 .78.91 1.18c0 0-2.11-.15-2.57.39a7.61 7.61 0 0 1 .84-1.21zm1.28 43.63a1.3 1.3 0 0 1-1.5-1.53.82.82 0 0 1 .69-.83 4.41 4.41 0 0 1 1.12.08c.24 0 .51.13.57.34.11.42.21 1.82-.88 1.94zm32.76-.25c-.91 0-.84-1.35-.83-2.09h2.57v1.34c.05.52-.22.77-1.78.75zm3.29-34.68s-.1 23.66-.07 25.55 0 3.9-.63 5.07-1.43 1.12-1.43 1.12l-31.1.16c-2.54-.13-4.77-.2-5.28-1.8s-.25-5.23-.24-6.46v-28.3s-.1-1.43.48-1.87a4.18 4.18 0 0 1 2.3-.48 6 6 0 0 1 1.29.09l.17.17c.2.22 1.44 1.84 1.49 1.89s.33.6-.13.65a3.32 3.32 0 0 0-1.85.27 2.4 2.4 0 0 0-1.11 1.85v27.81a4.62 4.62 0 0 0 .68 2.45 2.24 2.24 0 0 0 1.75.82l11.76.14a1.43 1.43 0 0 0 1.49 1.06c1.08-.08 1.14-.75 1.33-.92a.72.72 0 0 1 .47-.15h9.61c2.43 0 4-.05 4.91-.67a3.44 3.44 0 0 0 1.15-2s-.13-26.38-.22-27.65a3.21 3.21 0 0 0-.85-2.42 4.32 4.32 0 0 0-2.22-.51l-24.27-.18c-.15-.09 0-.29-.09-.77 0-.25-.47-1.94-.38-1.94h2.59a4.34 4.34 0 0 1 .75.26c.38.23 3.25 1.19 3.86 1.53s1.18.42 1.62 0a.74.74 0 0 0 .24-.84.79.79 0 0 0 .18-1h19.43c1.72.29 1.89.95 2.16 2a35.74 35.74 0 0 1 .15 5.08z"/></g><g fill="#692f23"><path d="M26.53 66.36z"/><circle cx="68.26" cy="99.3" r=".75"/><circle cx="64.4" cy="102.07" r=".75"/><circle cx="60.62" cy="99.95" r=".75"/><circle cx="56.39" cy="101.9" r=".75"/><circle cx="52.99" cy="98.58" r=".75"/><circle cx="48.35" cy="101.57" r=".75"/><circle cx="45.39" cy="98.55" r=".75"/><circle cx="72.2" cy="102" r=".75"/><circle cx="76.46" cy="98.93" r=".75"/><circle cx="80.21" cy="100.65" r=".75"/><circle cx="82.73" cy="97.12" r=".66" transform="rotate(-18.28 82.759 97.132)"/><circle cx="59.34" cy="59.64" r=".37"/><circle cx="65.39" cy="53.97" r=".37"/><circle cx="62.08" cy="52.45" r=".37"/><circle cx="59.45" cy="54.83" r=".37"/><circle cx="63.55" cy="48.26" r=".37"/><circle cx="61.18" cy="49.52" r=".37"/><circle cx="58.81" cy="48.38" r=".37"/><circle cx="56.67" cy="49.55" r=".37"/><circle cx="65.95" cy="49.44" r=".37"/><circle cx="68.22" cy="47.89" r=".37"/><circle cx="62.47" cy="57.31" r=".37"/><circle cx="65.5" cy="59.29" r=".37"/><circle cx="62.52" cy="62.14" r=".43"/><circle cx="65.24" cy="64.29" r=".43"/><circle cx="60.36" cy="64.53" r=".43"/></g></g></g></svg>