<svg xmlns="http://www.w3.org/2000/svg" width="162" height="215.97" viewBox="0 0 162 215.97"><path d="M73.77 16.07l-60.43-.62s-2.69-.31-3 3.31-1 112-1 112l.1 1.14-8.28.21a12.48 12.48 0 0 0-.72 2.48c0 .62.1 3.52 1.76 3.52s9.83.52 9.83.52l.1 63.12 1.86.1.62-1.66.83-61.67 7.55.62 1 53.08a1.38 1.38 0 0 0 1.86-.1 8.62 8.62 0 0 0 1.14-2.69l-1.66-50.7 52.36.52-.31-12.52-57.43-2a3.26 3.26 0 0 1-3-3.41c0-3.21 1-96.34 1-96.34a19 19 0 0 1 4.26-.97c1 .1 44.6.21 44.6.21z" fill="#e2ddd3"/><path d="M67.46 24.14l-47.5-.41s-2.17 1.14-2.17 3-.83 94.58-.83 94.58-.21 2.9 1.24 3.31 59.19 2.07 59.19 2.07v-6.21s-4.55 2.38-7.24 2.07-10.45-3.21-10.45-3.21a6.92 6.92 0 0 1-3.21.21c-1.76-.31-4.28-2.54-4.28-2.54l-6.31-.72s-1.86-.72-1.86-2.28a34.62 34.62 0 0 1 1-5.48l-2.28-1a1.51 1.51 0 0 1-.52-1.76l-1.21-1.79-1.24-.21s1 4.38.62 5.17a3.41 3.41 0 0 1-2 1.72c-.55 0-1-.79-1.21-1.59s-1.35-6.55-1.35-6.55-5.2-3.21-5.64-3.51a2.35 2.35 0 0 1-1-1.83 1 1 0 0 1 .9-.69s-2-2.14-1.86-2.69a1.79 1.79 0 0 1 1-1.69 3.77 3.77 0 0 1-.38-1.76 3.51 3.51 0 0 1 1.1-2.83c.72-.45.69-.21.69-.21a1.48 1.48 0 0 1-.14-1.59c.45-.9 1-1.55 1.79-1.45a4.42 4.42 0 0 1 1.45.45 1.67 1.67 0 0 0 .45-1.14c-.07-.62-3.24-30-3.21-30.15s.07-1.69.72-1.59 1.1 3.35 1.1 3.35 4 21.39 4.17 21.45.22-.63 1.01-.63 1.17 3 1.72 5.14 4.86 7.59 5.14 8.59a26.81 26.81 0 0 0 1.1 3.62c.17.07 1.72 1.28 2.38 1.14a4 4 0 0 1 1.77.51c.34.07-.07-1.07.79-1.52s1.59-1.52 4-.59 2.55 1.79 2.55 1.79 3 .1 3.41.21 3.17 1.28 3.28 1.28a12.1 12.1 0 0 1 1.17.62s-.21-.59.66-.59a5.21 5.21 0 0 0 1.55-.24s.69-3.56 1.59-4.46 4.48-2.76 5.69-4 5-7.93 5.76-8.49 3.69-3.79 5.55-4.59a43.84 43.84 0 0 1 7.42-2c.31.07-1.07-1-1.07-1s-6.73-1.52-8.62-3.14-7.69-4.52-9.18-6.14-5.45-8.51-5.45-8.51a2.47 2.47 0 0 1-1.72-1.38c-.45-1.14-2.9-5.55-3.17-7.62s.69-8.9 1.07-9.93 2.07-10.57 2.07-10.57zM9.51 139.11l-.52 61.36a2.29 2.29 0 0 0 1.45 1.86c1.24.31 1.45-2.79 1.45-2.79l.72-60.53s-2.79-1.76-3.1.1zM20.48 139.52c.11.52.93 52.57.93 52.57s.93 1.66 1.86 1-.41-48.74-.41-48.74l.35-5.76s-2.94 0-2.73.93zM100.67 200.68s-1.86 2-2.69.52-.41-4.45-.41-4.45v-6.94c0-.31 1.14-4 1.14-4a19.48 19.48 0 0 0 2-2.07c.07-.34-.04 16.94-.04 16.94zM110.09 177.29l-.1 13.72a2.28 2.28 0 0 0 2.17 1c1.55-.1.83-5.48.83-5.48s.31-4.55.31-4.86-3.21-4.38-3.21-4.38z" fill="#f7f5f2"/><path d="M103.88 177.01c.41.93-.21 21.52-.21 21.52a6.47 6.47 0 0 1-1.45 2.17c-.62.31-1.45-2.59-1.45-2.59l.31-16.56z" fill="#e2ddd3" opacity=".9"/><path d="M79.77 182.57s-.62 11 1.14 13.45 6.52 3.31 9.31 2.79a13.11 13.11 0 0 0 5-2.17s2.07-6.42 2.38-6.83a31.24 31.24 0 0 0 1.14-4s-9.83-.52-13.56-1.55-5.41-1.69-5.41-1.69zM113.82 183.09s.31 9.11.83 11.49 1.76 2.9 1.76 2.9 7-1.14 10-.72 4.76.52 4.76.52 1.66-5.38 2-6.73-.21-8.69-.21-8.69a34.62 34.62 0 0 1-7.66 1.45c-3.83.19-11.48-.22-11.48-.22z" fill="#d2a274"/><path d="M80.39 195.51s-2.59.41-7.24-1-10.56.5-11.94 1.62-3.52 4.86-2.59 8 5.07 5.48 8.9 6.62 11.07-.52 12.52-1 8.8-.72 11.18-1.14 3.73 0 4.76-2.17 2-3.52 1.35-5.28a35.22 35.22 0 0 0-2.12-4.52 5.4 5.4 0 0 1-4.14 2c-2.69 0-8.69-1.14-9.42-1.86zM115.99 197.37s-2.69 3.1-2.79 4.45a6.85 6.85 0 0 1-1.24 3c-.31.52-1.86 5.38.31 7.76s8.49 3 10.55 3 11.49-1.76 13-1.86a4.27 4.27 0 0 0 3.1-2.07c.31-.62.72-5.79.21-7s-4-3-4.35-3.31-2.79-4-2.79-4-13.72-1.83-16 .03z" fill="#efb000"/><path d="M87.12 21.25s-2.17 3.31-2 4.76.52 3.31.52 3.31l-2.48 1a32.12 32.12 0 0 1-4.86 1.24c-1 0-4.35.1-4.35.1l-.21 5.07s-.38 13.28 5.93 20.22 13.45 11.49 21.32 11.28 16.45-1.76 20.18-4.55 8.28-7.55 9.21-10l1.14-2.28a7 7 0 0 0 3-2.38c.93-1.55 1.86-4.35.93-6.21s-2.69-2.17-4.45-1.66a5.93 5.93 0 0 0-2.38 1.14s-5-3.52-6.11-5.07a72 72 0 0 1-3.73-7.21 3.66 3.66 0 0 1-2.9.83c-1.86-.21-3.52.31-5.17-.21s-5-2-7.14-1.86a69.54 69.54 0 0 0-8.17.83c-1 .31-3.62.93-3.62.93l-1.14-1.86s-2.49-6.59-3.52-7.42z" fill="#f9e5cc"/><path d="M99.36 42.01s-.38-2.35 1.17-3.21 4.62-.45 6.59.41 3.28 1.59 3.14 2.1a3.92 3.92 0 0 1-2.55 1.86 25.83 25.83 0 0 1-5.28.21 12.63 12.63 0 0 0-2.35-.86c-.72-.06-.72-.51-.72-.51z" fill="#fff"/><path d="M101.29 39.15a3.49 3.49 0 0 0-.34 2.45 2.26 2.26 0 0 0 2.17 1.55 3.63 3.63 0 0 0 2.52-1.45 2.33 2.33 0 0 0-.17-2.41c-.52-.59-3.38-1.11-4.18-.14z" fill="#abd2f0"/><path d="M78.74 41.22c0-.15.1-2.38 1.41-2.62a6.92 6.92 0 0 1 3.93 0 4.72 4.72 0 0 1 2.72 2 1.3 1.3 0 0 1 .28 1.41 2 2 0 0 1-1.35.62c-1.17.28-2.28.76-3.41.31s-3.41-.55-3.58-1.72z" fill="#fff"/><path d="M80.21 39.56a2.25 2.25 0 0 0 1 2.28 2.92 2.92 0 0 0 2.93.21 2.47 2.47 0 0 0 .69-1.83c.07-.76.17-1.55-1.14-1.72s-3.37-.39-3.48 1.06z" fill="#abd2f0"/><path d="M81.91 6.83s-3.7 4.59-4.7 6.35-4.42 4-5.28 4.76a21.62 21.62 0 0 0-5.17 8.69c-1.62 4.9-1.17 7.48-1.17 7.48s-1.66 5.31-1.41 8.28 2.21 8.62 3.69 10.49 2.07 1.83 2.9 3.55a25.35 25.35 0 0 0 8.28 8.9 73.25 73.25 0 0 0 13.42 6.07 3.56 3.56 0 0 0 2.69-.39 10.76 10.76 0 0 0 .72-2.66c-.07-.62-1.55-.48-2.45-1.14s-7.22-2.2-11.11-7.12-6.59-9.18-7.45-11.69-1.35-10.18-1.48-11.66a27 27 0 0 1 0-3.52 1.81 1.81 0 0 1 1.62-1.45 48 48 0 0 0 6.69-.9c1.31-.41 3.28-.72 3.55-1.1s-.21-3.07.24-4.76 1.93-2.86 2.14-3.55 1 1.52 1.59 2.79 2.1 5 1.93 5.76 1.21.28 2.62 0 8.66-1.9 10.62-1.35 6 1.9 7.55 2.35a9.14 9.14 0 0 0 5.59-.52c1.07-.69 2.07 2.14 2.14 2.28s3.59 6.42 6.35 8 3.66.72 4.14.69 2.41-.9 3.86-.14a3.6 3.6 0 0 1 1.66 4.69 49.73 49.73 0 0 1-3.21 4.9 13.09 13.09 0 0 0-1.55 1.1c-.14.07-2.24 6.52-6.21 9s-4 3.45-4 3.45.41 6 .45 6.17a5 5 0 0 0 3.66-.45c1.69-.9 7.86-2.83 9.11-3.52a76.89 76.89 0 0 0 8.55-6c1.66-1.55 5.93-5.73 6.73-7.35a21.32 21.32 0 0 0 2.31-9.3c-.1-4-1.38-13.8-2.24-16a34.4 34.4 0 0 0-6.42-9.52 96.06 96.06 0 0 0-11-8.55c-.55-.17-7.24-4.79-9.18-5.48s-7.69-2.52-8.83-3-3.79-1.21-5-.9a5.09 5.09 0 0 0-2.14 1.3 8.44 8.44 0 0 0-3.83-1.24c-1.62.1-6.9 1.17-6.9 1.17a11.81 11.81 0 0 0-4.45.22c-2.32.58-6.86 2-9.62 4.82z" fill="#e09c51"/><path d="M87.21 11.52a5.5 5.5 0 0 1-2.16 2.49c-1.55.9-5.1 3.45-6.21 5s-3 5.14-2.86 8.21a12.33 12.33 0 0 0 .79 4.42h-2.83s-.24-7 .07-9.21 2.93-9.49 4.86-11.76 4.79-5.45 6-5.93a37.85 37.85 0 0 1 5.34-2.12 41.69 41.69 0 0 1 6.5-1.07 46.92 46.92 0 0 0 4.73-.76c.31-.07 2.69-.52 3.86.48s1.41.59 1.41.59S107.99.31 109.5.51s5.24.59 7.24 4.17a66.45 66.45 0 0 1 3.21 6.55s-3.79-6-7.07-7.35-4.73.24-4.73.24.59 4.14.59 4.24a19.16 19.16 0 0 1-.14 4.52s-.28-5.07-5.31-6a9.29 9.29 0 0 0-8.21 2.59l.79-2.66a13.77 13.77 0 0 0-4.2 7.2c-.76 4.24-.66 14.56 0 15.76l.17.41a.47.47 0 0 1-.62.14c-.45-.17-.76-2.52-1.72-3.93s-2.76-7.86-2.62-9.14.33-5.73.33-5.73z" fill="#e9b87f"/><path d="M74.05 16.63a39.13 39.13 0 0 0-3.1 6.17c-.79 2.31-1.14 6.07-.55 8s.45.55.45.55a15.23 15.23 0 0 1 1.17-5.17c1-1.83 1.66-2 1.66-2s1.45-6.69 1.55-6.8-.15-1.72-1.18-.75zM68.8 31.28s-3.38 4.28-4 7.42a18.24 18.24 0 0 0 .41 8.56c.72 2.21 2 5.31 2.86 5.86s1.14-.11 1.14-.11a18.53 18.53 0 0 1-2.59-7.55c-.47-4.52 1.59-11.8 3.67-13.45 0 0 .34-.93-.17-.93a1.92 1.92 0 0 0-1.32.2z" fill="#e9b87f"/><path d="M78.67 150.35c-.15.15-1.17 9.11-1.24 11.24s-.55 9.59-.14 12.35.9 5.38 2.35 7.17 9.11 4.69 11.8 4.76 5.31.83 7-1.1 2.69-2.55 3.38-4.69 1.31-7.11 1.86-8.49 1.52-5.45 2.55-5.45 2.41 3.59 2.41 4.69 1.1 6.48 3.73 9.11 5.24 4.42 11 3.93a28 28 0 0 0 10.76-3c.76-.48 2.76-3.93 3.17-5.93s-.41-9.31-1-11.38 1.1-5.45 1.1-5.66 1.17-5.66.41-7-3.24-1.72-4.9-1.59-11.52 2.07-14.83 2.28-7.38.83-10.62.69-12.25-1.86-12.25-1.86-15.78-.82-16.54-.07z" fill="#fd8204"/><path d="M85.77 150.29s-2.41 12.42-1.93 21.66 2.14 10.76 2.14 10.76l3.93-32.29 5.1.62s-1.79 10.83-2 12.56-.8 12.62-1.8 15.59a22.94 22.94 0 0 1-3 5.73s-5.24-.48-6.28-2.28a9.48 9.48 0 0 0-1.38-2.07s-2.14-18.42 1-30.35c.01 0 3.4-.07 4.22.07zM99.98 153.18a44.1 44.1 0 0 0-3.38 12.76 90.06 90.06 0 0 1-1.31 11.59c-.41 1.66-2.28 6.07-2.21 6.69s1.31 1.24 2.69 1.17 2.21-1.52 2.62-3.79 1.72-13.25 2.07-15.8 1.45-9.31 2.14-10.21zM102.21 153.25s4.42 7.52 5 10.35 1.17 8.55 1.86 10.42 2.28 6.14 3.79 7 3.38 2.55 3.59 2.55a1.7 1.7 0 0 0 .69-1.17c-.07-.28-.9-2.9-.9-2.9s-2.83-4.42-3.24-7.24a73.24 73.24 0 0 0-3.79-12.66c-1.1-2.35-4.28-7.52-4.42-7.8s-2.58-.13-2.58 1.45zM109.78 152.36a47.89 47.89 0 0 1 2.69 6.07c1.45 3.86 5.17 14.49 5.66 16s2.41 8.07 4.48 9 5.79 0 6.69-.62a11 11 0 0 0 2.69-4.14c.14-.83-1.52-9.73-2.21-11.87s-1.17-2.62-1.24-5.17-1-10.07-1.79-11.18l-5 .69s1.38 9.18 1.86 10.42a90.71 90.71 0 0 1 3 10.07c.41 2.41 1.17 7.45-.41 10.83l-.21.76a23.62 23.62 0 0 1-2.28-4.28c-1.17-2.76-3.24-10.62-3.86-12.42s-2.07-7.93-3-10.35-1.31-3.73-2.07-4.14-5 .33-5 .33z" fill="#e16702"/><path d="M129.44 150.22a9 9 0 0 1 1.93 5.24c.14 3.24-.07 5.24.07 7.24s2.21 6.42 2.14 8.55a25.2 25.2 0 0 1-1 7.11c-.76 2.14-1.17 2.83-.9 2.83a8.43 8.43 0 0 0 2.35-1c.41-.34 1.17-.21 2.21-3.45a22.23 22.23 0 0 0 .62-9.8 16.25 16.25 0 0 0-1.93-4.55s1.1-4.9 0-8.69-1.52-4.21-1.52-4.21z" fill="#e16702"/><g><g fill="#692f23"><path d="M104.4 171.6c.07-.21-.28 27.18-.28 27.18a4.6 4.6 0 0 1-2.28 2.62 5 5 0 0 1-2.9.69l-1.24.28a25.62 25.62 0 0 1-.76-3.1c.07-.28-.14-6.62-.14-6.62l1.41-4.21v11.57c0-.22.07 1.45 1.1 1.31s1.31-1 1.17-2.69-.28-14.42-.21-14.63 1.24-2.28 1.24-2.28l-.28 17.11s0 1.66.9 1.24 1-1.93 1-3.52-.62-18-.62-18l1.66-7.31zM109.5 177.01l.07 14.9a3.74 3.74 0 0 0 2.48 1.24c1.31-.07 1.59-2.35 1.59-2.35l-.43-3.61-.83-2.24s0 6.35-.07 6.69a1.06 1.06 0 0 1-1.76-.41c-.21-1 .14-12.62.14-12.62zM1.06 135.38c-.27-2.48.28-2.55.28-2.55a6.18 6.18 0 0 1 2.28-.41c1.59-.07 74 2.07 74 2.07l-.41-.83-65.76-2a2.18 2.18 0 0 1-1.3-.32c-.27-.51-.13-.44-.23-2.61-.14-2.89 1.1-110.21 1.1-110.21s0-2 2.45-2l59.54.17 1.52-1.59-62-.28a4 4 0 0 0-2.48.55c-.76.69-.63 3-.63 3.49s-.69 108-.72 112.7l-6.11-.19s-2.22-.36-2.5 1.39a23 23 0 0 0 .14 4.9s.06 1.4 5 1.1h3.15a3.25 3.25 0 0 1 .23 1.45c0 1.55-.28 61.57-.28 61.57a2.46 2.46 0 0 0 2.69 1.66c2.28-.07 2.69-.55 2.69-.55a5.37 5.37 0 0 0 1.5-1.88c.28-.83.55-61.26.55-61.26a1 1 0 0 1 .6-1h2.41a1.53 1.53 0 0 1 1 1.45c.1 1.5 1 52.41 1 52.41a3.6 3.6 0 0 0 2.17 1.09 6 6 0 0 0 2.74-.31 9.34 9.34 0 0 0 1.89-2.38c.29-.88-1.3-46.83-1.48-52.08 21.35.39 51.21 1.1 51.21 1.1l.21-1.52-74.59-1.12s-1.62.25-1.86-2.01zm23.46 3.78a2 2 0 0 1 .66 1.14c.16 1.14 1.29 49.88 1.29 49.88a2.24 2.24 0 0 1-.62 1.45 2.65 2.65 0 0 1-.83.67s-.57.16-.52-3.36l.05-3.52c0-.85-.87-42.9-.93-45.65a.73.73 0 0 1 .89-.61zm-2.54 0c.49 0 .44.31.52.72l.93 50.86s-.05 1.55-.88 1.6-.57-3-.57-3l-.7-49.71a.8.8 0 0 1 .7-.47zm-9 2.22a2.47 2.47 0 0 1 .64-1.86s.9.07.9 1.59-.48 58.43-.48 58.43.28 1.72-.48 1.72-1-.41-.9-2.9a43.63 43.63 0 0 0-.14-4.69c-.02-3.53.46-50.24.46-52.28zm-3.09-.62c.12-1.09.66-2 1.12-1.86a1 1 0 0 1 .62.72l-.1 54.59-.13 6.37a1.08 1.08 0 0 1-.69 1.1c-.69.07-1.1-.69-1.17-3.93s.35-56.98.35-56.98z"/><path d="M17.37 28.7v-3.41s0-1.72 3.07-1.72l46.6.07h.34l-.62 1-46.36.07s-1.38-.07-1.69.9c-.15.46-.34 31.7-.34 31.7l-.72 64.57a2.73 2.73 0 0 0 1 2.07c1 .66 6.59.55 6.59.55l51.81 1.51v1.21l-58.91-1.69a1.81 1.81 0 0 1-1.48-.93c-.62-1-.28-4-.28-4z"/><path d="M23.62 27.87a1.56 1.56 0 0 0-1.47-.86 1.77 1.77 0 0 0-1 .25l-.15.13a1.43 1.43 0 0 0-.36.78 1.61 1.61 0 0 0 .28 1.34 1.56 1.56 0 0 0 1.8.48 1.73 1.73 0 0 0 .9-2.12zm-1.16 1.34a.91.91 0 0 1-1-1.49 1.36 1.36 0 0 1 .17-.1 1.14 1.14 0 0 1 .68 0 1 1 0 0 1 .67.8.88.88 0 0 1-.52.79zM22.91 120.01a1.21 1.21 0 0 0-1.14-.68 1.38 1.38 0 0 0-.78.19l-.12.1a1.11 1.11 0 0 0-.28.61 1.25 1.25 0 0 0 .22 1 1.21 1.21 0 0 0 1.4.37 1.34 1.34 0 0 0 .7-1.59zm-.9 1a.71.71 0 0 1-.78-1.15l.13-.08a.88.88 0 0 1 .53 0 .76.76 0 0 1 .52.62.68.68 0 0 1-.4.61z"/></g><path d="M45.35 63.37c-.14-.36-2-4.14-2.14-6.36s1.28-6 1.1-9.62-4.07-4.66-4.31-4.73a3.17 3.17 0 0 0-.38-.76.94.94 0 0 0-.62-.45l-.34-6.8a1.59 1.59 0 0 0-1.24-1.38c-1.1-.17-6.11.07-6.11.07s-1 .24-1 2v3.38l.17 3.29a.93.93 0 0 0-.48.55 1.36 1.36 0 0 0 .1.9 8.1 8.1 0 0 0-2.1 1 5.41 5.41 0 0 0-2 3.52 8.86 8.86 0 0 0 .48 4.1A25.3 25.3 0 0 1 28 57.74a66 66 0 0 1-.59 7.27c-.2 1.71-.2 6 1.86 8.05s9.93 1.35 11.31.69 4.48-1.35 5.45-3.62-.51-6.41-.68-6.76zM31.48 37.43l.07-1.79s0-.62 1.55-.66a3.85 3.85 0 0 1 1.66.1l1.9-.07a.66.66 0 0 1 .59.66c.1.66.28 5 .28 5s.17.48-.59.76a30.48 30.48 0 0 1-4.79.17s-.34-.07-.48-1.21a23 23 0 0 1-.15-2.38c-.01-.11-.03-.57-.04-.58zm-.59 7.52a4.47 4.47 0 0 0 2 .1c.66-.24-.1-.86-.86-1.1s-.79-.79-.52-1.1 1.35.52 3.73.34 2.9-.69 2.9-.69.66 0 .48.48a2.13 2.13 0 0 1-1.27 1.03.67.67 0 0 0-.62.48 1.9 1.9 0 0 0 1.79.34 1.52 1.52 0 0 0 1.24-.82l2.1.79s-1.38 1.55-5 2a23 23 0 0 1-8.38-.62 2.44 2.44 0 0 1 2.41-1.23zm12.42 25.87c-1.17 1.48-5 2.45-8.45 2.35s-5.55-1.86-6.17-4.83.69-7.52.79-9.87-1.72-5.17-2.21-6.93a6.85 6.85 0 0 1 .34-3.79 34.09 34.09 0 0 0 7.83 1 14.87 14.87 0 0 0 7.35-2.31 25.06 25.06 0 0 1-.14 3.86c-.24 2.48-1.07 3.14-.83 6.48s2.52 6.83 2.72 8.55a7.89 7.89 0 0 1-1.23 5.49z" fill="#e2ddd3"/><path d="M61.98 56.66c1.86-.1 2.93 1.25 4.4 2 1.87 1 2 1 1 2.91-.49 1-1.14 1.84-1.72 2.76a1 1 0 0 0 .23 1.59c1.76 1 2 2.46 1.5 4.31-1.57 5.28-.86 4.39 2.8 6.9a102.45 102.45 0 0 0 9.48 5.26 5.56 5.56 0 0 1 2.32 2.06 2.23 2.23 0 0 1 .27 1.88c-.52 1.1-.6 2.13-2.39 2.72a4.12 4.12 0 0 1-2-.13 60.71 60.71 0 0 1-11.66-6.12c-2.53-1.62-4.29-1.36-6.18 1.35-1.5 2.14-2.62 2.49-4.81 1.08-.92-.59-1.31-.32-1.72.5-.66 1.3-1.32 2.6-2.07 3.85-1.14 1.93-1.57 2-3.44.79-1.22-.79-3.22-1.88-3.51-2.21a1 1 0 0 1-.17-1.2c2.5-5 4.93-8.86 7.71-13.66q4.55-7.88 9-15.83a1.87 1.87 0 0 1 .96-.81zm17.16 31c1.18 0 1.39-.85 1.54-1.61a2 2 0 0 0-1.13-1.81 29.55 29.55 0 0 0-5.28-3 46.11 46.11 0 0 1-8.38-5.36 1.6 1.6 0 0 1-.57-1.72 23.46 23.46 0 0 0 .73-5.28 1.79 1.79 0 0 0-1.33-1.72c-.85-.36-1.17.57-1.43 1-2.76 4.76-4.79 8.72-7.52 13.49-.57 1-.78 2.35.37 2.92a2 2 0 0 0 2.29-.64c.79-1 1.59-2 2.43-2.93a3 3 0 0 1 3.49-.71c3.81 2 7.6 4.13 11.39 6.21a7.65 7.65 0 0 0 3.4 1.13zm-31.88.44a1.47 1.47 0 0 0 .53-.69c.31-.53.55-1.09.85-1.62 4.22-7.34 8.46-14.66 12.64-22 .81-1.44 1.65-2.85 2.56-4.22a1 1 0 0 0-.39-1.58 1 1 0 0 0-1.52.46c-.19.27-.29.42-.46.7-3.34 5.57-6.2 11.18-9.56 16.74-2 3.37-3.67 6.87-5.84 10.51-.18.31-.53.65-.13 1a2.75 2.75 0 0 0 1.33.67zm2 1.46a2 2 0 0 0 .9-1c3.17-4.63 5.8-9.57 8.5-14.47 2.47-4.49 4.91-9 7.36-13.48.2-.36.56-.77 0-1.08s-.81.06-1.04.48a45.47 45.47 0 0 0-2.45 4c-3.51 6.91-7.25 13.62-11.23 20.28-.84 1.41-1.67 2.84-2.55 4.23a.62.62 0 0 0-.13.77.68.68 0 0 0 .65.25z" fill="#e2ddd3" opacity=".9"/><path d="M95.6 68.54c.1.41.21 3.21-1.14 3.62s-4.55.72-6.25 1.55-5.17 2.07-7.86 5.69-5.28 8.28-6.73 9.42-3.41 1.55-4.09 2.79-1.86 3.93-1.55 4.35c.41-.21-1.38-.34-2 .24s-2.21-.45-2.21-.45a13.08 13.08 0 0 0-2.59-1.14 24.13 24.13 0 0 1-3.73-.41c-.83-.31-2.79-2.28-5-1.45s-1.55 2.07-1.55 2.07l-3.21-.31-.48 2.5s-.93 5.28-1.86 6.83-3 1-3 1.86a1.84 1.84 0 0 0 1.66 2.17 4.83 4.83 0 0 1 .62 1.86c.1 1-1.45 3.41.31 5.07s4.55 1.55 4.86 1.76 5.59 3.1 5.59 3.1 3.1-.1 4.35-.31 2.79 1.76 6.42 2.69 9.73 0 10.45-1 .72.62.72.62.62 14.49.52 16-1.35 9.83-.93 11.28 6.93 1 7.35 1 13.35.41 16.45 1.66 14 .41 16.66.21 14.07-2.17 17.28-2.17a53.92 53.92 0 0 0 6.73-.52s1.66-1.55 1.76-2.38a10.24 10.24 0 0 0-.52-2.79s3.41 2.69 6.93 1 5.38-6.52 5.38-6.52l2.27-2.22s1.55-4.66 2.07-6.42 1.14-4.76 1.24-5.07 1.45-9.31-.62-14.8-10.59-15.91-10.59-15.91-7.55-12-11.59-14.18a62.17 62.17 0 0 0-8.8-3.73l-6.93-5.17-.93-2.07-.62-4.85s-6.42 3.83-12.11 4.14-12.62-.14-12.62-.14z" fill="#f7f5f2"/><ellipse cx="122.1" cy="107.89" rx="4.83" ry="4.48" transform="rotate(-53.09 124.21 108.688)" fill="#fd8204"/><ellipse cx="138.79" cy="109" rx="4.83" ry="4.48" transform="rotate(-53.09 140.907 109.788)" fill="#fd8204"/><ellipse cx="137.3" cy="89.55" rx="5.19" ry="4.66" transform="rotate(-53.09 139.414 90.344)" fill="#fd8204"/><ellipse cx="157.41" cy="112.92" rx="4.16" ry="3.31" transform="rotate(-53.09 159.521 113.709)" fill="#fd8204"/><ellipse cx="146.63" cy="126.78" rx="5.19" ry="4.08" transform="rotate(-53.09 148.744 127.572)" fill="#fd8204"/><ellipse cx="82.82" cy="96.08" rx="4.08" ry="5.19" transform="rotate(-51.99 84.979 96.863)" fill="#fd8204"/><ellipse cx="83.84" cy="77.74" rx="4.36" ry="3.43" transform="rotate(-37.27 86.929 78.441)" fill="#fd8204"/><ellipse cx="95.86" cy="128.71" rx="4.08" ry="5.19" transform="rotate(-51.99 98.018 129.494)" fill="#fd8204"/><ellipse cx="54.92" cy="113.64" rx="3.79" ry="4.83" transform="rotate(-51.99 57.087 114.421)" fill="#fd8204"/><ellipse cx="80.3" cy="126.15" rx="4.11" ry="3.23" transform="rotate(-57.3 81.768 126.945)" fill="#fd8204"/><path d="M72.65 115.01c-2.26-1.77-3-4.64-1.58-6.41s6.61-2.89 6.61 0c0 2.33.58 7.32 0 7.51a5.47 5.47 0 0 1-5.03-1.1z" fill="#fd8204"/><path d="M132.75 127.62a24.28 24.28 0 0 0-4 .93 37.09 37.09 0 0 1-7.54 1.46c-1.35 0-2.59.1-2.69.93s.72 2.07 3.73 3 4.66 1 4.55 2.48-3.41 3-3.83 3-4.76.83-6.21.83-3.31.21-3.41 1.45 1.55 2.69 4.24 3.1 11.49-.31 11.49-.31a12.75 12.75 0 0 0 3.41-1.76c1.24-1 4.45-4.14 4.45-4.14a22.26 22.26 0 0 0-.1-4.45c-.36-1.96-1.91-5.79-4.09-6.52z" fill="#f9e5cc"/><path d="M109.16 113.45l5.05 26.18 7.55.31c3.1-1.14 4.76-2.38 5-3.52s-.41-1-1.55-1.55-6.62-2.48-6.62-2.48-.83-2.17.72-2.28 7.55-.62 9.42-1.55a39.62 39.62 0 0 1 4.14-1.86c.41-.1-.31-1.76-.31-1.76a2.82 2.82 0 0 1 2.17-2.48 6.6 6.6 0 0 0 4.66-4c.52-1.86-1.55-4.24-1.55-4.24l-4.14-5.59-7.14.83-16.45 2s-.95.23-.95 1.99z" fill="#e16702"/><path d="M33.86 84.54L31.03 52.6a2 2 0 0 1 .83-1c.41-.07 5.17 25.7 5.17 25.7l3.62 30.73s.31.83-1 1.66a1.65 1.65 0 0 1-2.17-.1z" fill="#d2a274"/><path d="M46.66 96.17a3.81 3.81 0 0 0-.45-2.28 14.7 14.7 0 0 1-1.35-2.48 24.74 24.74 0 0 0-2.07-4.55c-.83-1-2.9-4.45-2.9-4.45s-1.14-6.31-1.55-6.31a9.92 9.92 0 0 1-1.55-.31l.93 8.07s.31 2.07-.62 2.38-2.59-.72-2.59-.72-2.48-1.86-2.9-1.55-1.4.88-1.4 1.23a17.9 17.9 0 0 0 .52 2.07s-1.35-.41-1.55.31-1 2.07-.52 3-.21 1.14-.31 1.86a3.56 3.56 0 0 0 .51 2.57 9.29 9.29 0 0 0 1 1.28s-1.24-.34-.9.69 6.14 5.07 6.14 5.07 1.25-4.11 2.79-3.62c.91.29 1.83 5.31 2.93 5.24 0 0 .59 1.48 1.62 1.48a3.6 3.6 0 0 0 3.31-2.79c.39-1.95.91-6.19.91-6.19z" fill="#f9e5cc"/><path d="M127.21 78.71a4.49 4.49 0 1 1-6.33-6.33 5.19 5.19 0 0 1 1.05-.81c1.66 1.59 5.93 3.45 6.67 4.57a5.07 5.07 0 0 1-1.39 2.57z" fill="#fd8204"/><g fill="#692f23"><ellipse cx="103.06" cy="70.14" rx=".72" ry=".57"/><ellipse cx="107.44" cy="72.35" rx=".55" ry=".5"/><ellipse cx="98.92" cy="71.28" rx=".55" ry=".5"/><ellipse cx="101.68" cy="75.35" rx=".55" ry=".5"/><ellipse cx="105.47" cy="78.6" rx=".55" ry=".5"/><ellipse cx="99.64" cy="81.7" rx=".55" ry=".5"/><ellipse cx="97.23" cy="76.7" rx=".55" ry=".5"/><ellipse cx="94.61" cy="85.01" rx=".55" ry=".5"/><ellipse cx="97.95" cy="89.94" rx=".55" ry=".5"/><ellipse cx="96.74" cy="95.98" rx=".55" ry=".5"/><ellipse cx="101.61" cy="94.57" rx=".55" ry=".5"/><ellipse cx="93.19" cy="92.94" rx=".55" ry=".5"/><ellipse cx="111.75" cy="69.21" rx=".55" ry=".5"/><ellipse cx="116.03" cy="70.94" rx=".59" ry=".53"/><ellipse cx="118.85" cy="67.08" rx=".59" ry=".53"/><ellipse cx="79.55" cy="140.06" rx=".71" ry=".64"/><ellipse cx="85.38" cy="146.53" rx=".71" ry=".79"/><ellipse cx="94.03" cy="139.58" rx=".71" ry=".79" transform="rotate(-87.85 95.18 140.478)"/><ellipse cx="102" cy="146.03" rx=".71" ry=".79" transform="rotate(-87.85 103.145 146.93)"/><ellipse cx="110.8" cy="141.31" rx=".73" ry=".67" transform="rotate(-87.85 111.947 142.207)"/><ellipse cx="118.49" cy="146.35" rx=".73" ry=".67" transform="rotate(-87.85 119.642 147.247)"/><ellipse cx="132.84" cy="144.7" rx=".73" ry=".67" transform="rotate(-87.7 134.342 145.498)"/></g><path d="M161.99 117.69c-.16-3.47-2.43-10.87-3.05-12.11a57.51 57.51 0 0 0-4.09-5.57c-.78-1-6.88-9.52-8.74-12.52s-4.71-6.18-7-7.5a10.35 10.35 0 0 0-4-1.45 4.87 4.87 0 0 0-.94-.64c.05 0 .06 0 0 0-.48-.24-4.31-1.62-5.55-2.28s-2.83-1.9-3.79-2.41a2.49 2.49 0 0 1-1.52-1.62c0-.45 1-.55 1-.55s7.66-1.93 12.11-5 10.99-8.23 13.79-13.58 1.35-11.42 1.31-12.07-.38-3.59-.38-4.66-.53-6.6-2.1-9.9c-1.83-3.69-5.11-7.62-11.7-12.82s-9-6.62-14.83-9.07-11.59-4-13.49-3.86a4.08 4.08 0 0 0-2.81 1.03 5.72 5.72 0 0 0-3.4-1.1 45.65 45.65 0 0 0-5 .69c-1.07.23-4.41.37-6.6.78a29 29 0 0 0-6.9 2.79c-2.1 1.11-4.78 4.27-4.78 4.27a27.73 27.73 0 0 0-1.88 2.76 28.24 28.24 0 0 1-3.5 3.71c-.14.19-2.1 1.88-3.45 3.23a23.35 23.35 0 0 0-2.86 4.07s-.32.5-.31.51a17.31 17.31 0 0 0-1.22 3.27 36 36 0 0 0-1.55 7.17 9.12 9.12 0 0 1-.28 1.57 17.91 17.91 0 0 0-.74 5 25.24 25.24 0 0 0 .85 7.52c.79 2.57 2.55 5.9 3.6 6.73.39.48.66.6.75.75a44.17 44.17 0 0 0 3.27 5.07 41.13 41.13 0 0 0 5.92 5.66 76.43 76.43 0 0 0 7.85 4.69 22 22 0 0 0 4.35 1.07c.78.21 1.36.31 1.29.57a.73.73 0 0 1-.38.4 20.41 20.41 0 0 0-2.83.67 4.1 4.1 0 0 0-.67.19 17 17 0 0 0-6 3.6 48.45 48.45 0 0 0-4.93 6.76c-.48 1-3.35 5-5.24 5.9a8.62 8.62 0 0 0-3.73 3.17c-.55 1-.1 2.59-.52 2.9a1.57 1.57 0 0 1-1.13.06.53.53 0 0 0-.25-.06 1.37 1.37 0 0 0-1 .82 2.36 2.36 0 0 0-2.12-1 1.27 1.27 0 0 0-.54-.72 8.17 8.17 0 0 0-2.76-.66c-1.83-.17-2.14 0-3.21-.59s-1.69-1.35-3.55-1.17-2.21.62-2.76 1.55l-.07.86-1.45-.86a.83.83 0 0 0-1.07.17 1.4 1.4 0 0 1-1.62-1.1 27.21 27.21 0 0 0-1.38-4.35 22.27 22.27 0 0 0-2.6-3.92 16.11 16.11 0 0 1-2.09-4.35 23.21 23.21 0 0 1-.64-3.79 1.27 1.27 0 0 0-1.87-.7l-3.83-20.95s-.74-3.93-1.41-4.33-1.38.16-1.4 1.09.48 9.53.48 9.53l.9 8.49s.76 8.05.81 8 .81 6.51.81 6.51a.28.28 0 0 1-.4.19 1.86 1.86 0 0 0-1.8-.16 2.59 2.59 0 0 0-1.29 2.22 2.48 2.48 0 0 0 .2.84h-.13a1.61 1.61 0 0 0-1.19 1.33 3.12 3.12 0 0 0-.48 1.66 6.57 6.57 0 0 0 .34 1.62 3.08 3.08 0 0 0-.81 2.66c.14.79 1.33 1.86 1.26 2a2.24 2.24 0 0 0-.43.66 1.74 1.74 0 0 0 .29 1.19c.17.12 1.12 1.29 1.74 2a26.85 26.85 0 0 0 3.07 2.31l1.76 1s.53 4 .86 5.26a3.62 3.62 0 0 0 1.4 2.41 1.46 1.46 0 0 0 1.1-.12l1.76-1.21s.48-.38.34-1.79-.38-1.28-.62-3.35a1.42 1.42 0 0 1 1.07.34c.38.41.59.62.59.62a1.22 1.22 0 0 0-.48 1.24c.21.76 1.52 1.52 2.48 1.72a15.39 15.39 0 0 0-.76 3.59c0 1.17-.41 2.93 1.86 4.38a4.16 4.16 0 0 0 1.91.39 10.53 10.53 0 0 1 3.41.59c.59.33 2.59 1.41 3.35 1.81a10.12 10.12 0 0 0 3 1.1 11.28 11.28 0 0 0 2.47-.19c.57.32 3.77 1.69 4.77 2.16s6.08 1.16 8.1.7a5.84 5.84 0 0 0 2.74-1.06 1.23 1.23 0 0 1 1.55.13 2.81 2.81 0 0 1 .21 1.73s.1 11 .17 11.37a21.56 21.56 0 0 1 0 4.52c-.24 1.79-.1 4.14-.52 6.31s-.66 2.79.17 3.55a5.34 5.34 0 0 0 1.1.82c-.07.93-.93 13.12-.93 14.08s-.38 8.9-.07 10.69a22.23 22.23 0 0 0 2 5.11 32.9 32.9 0 0 1 .17 3.69v.13l-.1 4.53a8.49 8.49 0 0 0 .21 2.35c.31 1.48.55 3 .66 3.21-.07.86-1.2.92-2 .85h-.3l-.47-.08h.19a20.55 20.55 0 0 1-3.52-.88c-2.48-.83-8.45-1.14-11.52.55a9.13 9.13 0 0 0-4.1 6c-.1.69-.41 5.76 2.17 7.62s5.31 2.41 9 2.86a27 27 0 0 0 8.09-.25 47.6 47.6 0 0 1 9-1.22 78.49 78.49 0 0 0 8.62-.83c.72-.17 2.21-.62 2.9-4.21a10.31 10.31 0 0 0-1.55-7.11 1.88 1.88 0 0 1-.14-2.1 21.91 21.91 0 0 0 .9-2.21c.28-.41 1.66-5 1.76-5.14s.07-1.43.2-1.94a.42.42 0 0 0 .29-.33 7.61 7.61 0 0 0 1.17-1 25.66 25.66 0 0 0 2.35-5.48c.24-1.21 1-5.79 1.93-8.9s1.31-3 1.59-3 1 1.41 1.79 4.24 1.61 7 4.37 10.13a47.59 47.59 0 0 0 .63 7 53.25 53.25 0 0 0 1.62 7c.55 1.31.21 1.59.21 1.59l-1.21 1.83c-.9 1.1-1.41 4.42-1.41 4.42-1.66 1.38-1.79 4.42-1.69 6.69s1.66 3.38 2.69 4.38 3.45 1.1 5.55 1.17a61 61 0 0 0 8.35-.76 51.52 51.52 0 0 1 5.45-.41 20.3 20.3 0 0 0 5.28-.93c.76-.38 2-2 2.45-4.93a8.32 8.32 0 0 0-1.45-6.24c-.79-.83-1.76-1-2.9-2.1s-3.32-3.18-3.38-3.24a.58.58 0 0 0 0-.18c-.24-.62 0-1 .48-2.48s.79-11.87.82-12.92a4.16 4.16 0 0 0 1.24-1 12.51 12.51 0 0 0 2.55-8.55c-.31-4.9-.55-7.52-1-9.28a5 5 0 0 1 .76-2c.59-.76.66-7.11.76-7.62 0 0 .45-3 .93-3.21s3-.55 3.31-.66a2.43 2.43 0 0 0 1-2.21c0-.87 0-1.48-.07-1.81a6.25 6.25 0 0 0 4.29.86.17.17 0 0 0 .19 0c2.85-.52 3.83-1.35 4.76-2.48s1.35-3.36 3.41-5.43a15.26 15.26 0 0 0 3.1-4.92 6.48 6.48 0 0 0 .21-2 9 9 0 0 1 1-3.57 34.59 34.59 0 0 0 1.67-10.23zm-39.9-47.84s-.45-4.28-.34-5.07a4.62 4.62 0 0 1 1.52-1.9c.72-.55 1.4-1.09 2-1.56a20.63 20.63 0 0 0 4.31-4.83c.3-.45.7-1.12 1.1-1.8v.7c.07 4.62-.7 7-2.35 9.76a11.84 11.84 0 0 1-6.24 4.7zm-6-2.95c1-.34 1.92-.71 2.77-1.11l.53-.26c.81 0 .72.59.72.59l.23 3.47zm3.44 3.93a5.85 5.85 0 0 1-1.12.88 19.29 19.29 0 0 1-4.76 1.71c.05-.31.81-4.8 1.27-5.47zm-1.91-6c-6.28 2.86-15.21 2.95-15.21 2.95a36.22 36.22 0 0 1-6.62-.48 27.37 27.37 0 0 1-9.58-4.68 38 38 0 0 1-7.75-8.61 28.75 28.75 0 0 1-3.31-7.5 40.63 40.63 0 0 1-1.12-9c0-.81.16-4.74.16-4.74a.63.63 0 0 1 .62-.55l3.65-.21a11.26 11.26 0 0 0 3.09-.74 31.86 31.86 0 0 1 3.47-1c1.36-.29 1.35-.48 1.35-.48a5.87 5.87 0 0 1-.53-3.43 5.13 5.13 0 0 1 1.31-2.81 7.08 7.08 0 0 0 .59-1.17s.43 1.4.78 2.55 1.45 3.14 1.72 3.83a8.15 8.15 0 0 1 .24 2.25c1.24.31 3.12-.31 4.54-.78a30.31 30.31 0 0 1 5.93-.69 36.64 36.64 0 0 1 3.79.07 24.83 24.83 0 0 1 3.16.59 28.34 28.34 0 0 0 5.16 1.41 6.19 6.19 0 0 0 4.69-1 28.59 28.59 0 0 0 1.91 3.85 35 35 0 0 0 5 5.52 28.9 28.9 0 0 0 2.3 1.82l.25.21a12.67 12.67 0 0 0 1.95 1.07c.28-1.14 1.66-1.36 2-1.48s4.47-.81 4.35 2.43a9.28 9.28 0 0 1-3.3 6.23 1.49 1.49 0 0 1-1.43.45c-.26 2.09-2.07 4.64-2.55 5.48a27.86 27.86 0 0 1-10.65 8.64zm-15 32.24c-.6-.43-2.19-1.58-3.9-3 2-.55 3.86-1 4.36-1.12a11.22 11.22 0 0 0-.15 1.62c-.08 1.72-.06 2.26-.39 2.5zm-3.76-27.6l3.72 4a16.45 16.45 0 0 1-5.64-1.82v-.06zm-2.63.81a6.44 6.44 0 0 1 0-1.38.4.4 0 0 1 .34-.27l.94.19zm-1.02 10.44c.42-.26 2.91-1.23 5.57-2.22 1.86 2.25 3.82 4.6 3.9 4.66s-3.31 1.27-5.72 2.27c-1.95-2.42-3.75-4.71-3.75-4.71zm7 11.23a41.55 41.55 0 0 0-4.51 1.44 26.21 26.21 0 0 1-4.21-4.13s2.17-1.19 4.81-2.48zm-4-18.2l.09-.05c.51.12 1.12.25 1.85.36 2.22.34 5.58.69 6.88.8-1.15.36-3.54 1.32-5.85 2.27zm2.11-4.59h4.6l-1.64 3.14s-2-2.23-2.95-3.15zm-2.87 5.34l2.57 3.11c-2.42 1-4.48 1.9-4.48 1.9l-.61.22a29.9 29.9 0 0 1 2.53-5.24zm.26 11.44l-.69.31c-1.53.75-3.42 1.64-4.23 2.15.45-2.37 1-5.11 1.55-6.91zm-1.23 7.89l-3.8 1.37a3.73 3.73 0 0 1-.54-2.19 18.59 18.59 0 0 1 .36-2.93c.57.54 2.25 2.15 3.98 3.75zm.73.68c1.36 1.24 2.66 2.38 3.37 2.89-1.8.06-4.84-.13-6.44-1a6.88 6.88 0 0 1-.82-.54 30.27 30.27 0 0 1 3.89-1.35zm2.34-8.31a45.26 45.26 0 0 1 5.59-2.29c-.56 2.19-1.32 4.94-1.81 7.24-.12-.33-1.92-2.6-3.77-4.95zm2.44-8.19c2.72-1 5.31-1.95 5.78-2.1a3 3 0 0 1 .83-.19l-.13.19a23 23 0 0 0-2.87 6.21zm6.34-4a37.93 37.93 0 0 1-4.17-.36 4.56 4.56 0 0 0 .86-1.67 9.58 9.58 0 0 1 1.52-2.72 28.35 28.35 0 0 1 3.38 2.31c.33.3 1.73 1.74 2.11 2.14a18.91 18.91 0 0 1-3.7.3zm.09-5.32c1-.16 1.93-.34 2.86-.53.69-.13 1.42-.31 2.17-.51l-.88 4.08s-2.97-2.31-4.15-3zm26.18-30.38c.26.45 2.85 3.59 3.23 5.55a20.2 20.2 0 0 1-.07 8.52c-.79 4.48-5.79 8.42-5.79 8.42s-.17-4.07-.07-6.31a8 8 0 0 1 .81-3.14 10.4 10.4 0 0 1 1.09-1.1 13.23 13.23 0 0 0 2.41-4.15 5.61 5.61 0 0 0-.12-3.5 4.28 4.28 0 0 0-2.74-2c-1.69-.34-3.81.55-4.86.53a2.11 2.11 0 0 1-1.72-.81c-1.09-1.07-4.21-3.09-4.35-4.16a.56.56 0 0 1 .62-.76c.86 0 5.21.34 5.21.34s3.29.05 4.12.52a9.1 9.1 0 0 1 2.23 2.1zm-1.28-19.63s3.6 5 4.05 5.55a43.14 43.14 0 0 1 3.45 6.33 69.42 69.42 0 0 1 2.29 6.9 40.57 40.57 0 0 1 .74 5.19s-1.05-1.24-1.72-1.9-2.86-1.72-4.19-3.54a18.33 18.33 0 0 1-2.5-4.09 14.51 14.51 0 0 1-.9-4c-.09-.86-.21-2.35-.26-4.35a29 29 0 0 0-.64-4.6 12.29 12.29 0 0 0-.32-1.44zm12.2 33.33c-.07 1.91-.6 2.86-1.57 5a11.78 11.78 0 0 1-2.11 3.16l-1.77 1.65a31.54 31.54 0 0 1-11.49 5.93s-.88.21-1.2.24c.6-.6 4.59-4.95 6.55-7.1s4.55-5.83 5.14-7.62a17.36 17.36 0 0 0 .31-9.31 17.87 17.87 0 0 0-2.85-5.59 24 24 0 0 1-1.73-3.36 10.49 10.49 0 0 1-.4-2 12 12 0 0 0 2.5 4.62 18.86 18.86 0 0 1 4.07 5.07c.85 1.85 1 5.31.95 6.74a32.81 32.81 0 0 1-.24 3.41c-.07.33 1-.48 1-3.64a32.55 32.55 0 0 0-.31-5.83 11.59 11.59 0 0 1 2.28 3.63 12.35 12.35 0 0 1 .87 5zm5.31-9.54v.31a18.53 18.53 0 0 1-.45 6.38 16.9 16.9 0 0 1-3.73 6.48l-.43.42c.2-.82 1.06-4.74.15-7.69a43.09 43.09 0 0 1-1.62-6.78 52.79 52.79 0 0 0-1.1-7.54 21.44 21.44 0 0 0-1.14-3.1s-.74-1.43.74-.9 3.69 3.62 4.79 5.21a16.35 16.35 0 0 1 2.38 5.57c.22.72.33 1.26.4 1.66zm-13.21-27.85c1.31 1.1 6.9 5.66 9.59 10.66a24.89 24.89 0 0 1 2.9 10.38 19.1 19.1 0 0 0-2.47-3.42c-1.91-2.16-4.88-3.69-5.5-4.21a29.35 29.35 0 0 1-3.93-4.56c-1.29-1.91-3-4.62-3.36-5.21s-1.09-1.66-1.41-2.19c0 0-2.17-5.21-3.21-6.42-.02.01 6.08 3.87 7.39 4.97zm-12.7-8.41c4.24 2.31 5.42 5.86 6.73 10.52 0 0 .91 3.85 1.12 5.54s.24 3.21.28 3.83.16 3.91.16 4.78a1.56 1.56 0 0 0 0 .33v.77a2 2 0 0 1-.41 1.63c-.6.55-3.36.59-3.36.59h-6.48a3.52 3.52 0 0 1-2.62-1.76 3.64 3.64 0 0 1-.64-3 18.39 18.39 0 0 1 1.07-2.72 12.74 12.74 0 0 0 .95-4.09.44.44 0 0 0 0-.17 28.38 28.38 0 0 0 .33-6.64c-.34-3.1-3.14-10.45-5.17-11.93a18.09 18.09 0 0 1 8.04 2.32zM98.85 1.9a11.64 11.64 0 0 0-3.17 4.59 14.57 14.57 0 0 0-.79 3.79 22.24 22.24 0 0 1 3.82-6.73c1.72-2.1 3-2.24 4-2.38s1.52 0 3.45 1.69 2.66 5.73 2.66 5.73a8.89 8.89 0 0 0-1.44-6.26c-.05-.21 0-.63 1.05-.91a6.35 6.35 0 0 1 5.28 1c1.48 1.24 4.55 4 6.35 10.49s.76 9.85.76 9.85a27 27 0 0 1-1.22 4.62 5.66 5.66 0 0 1-4.28 3.14 7.69 7.69 0 0 1-3.93-.53 3.81 3.81 0 0 0 .95-.38 8.63 8.63 0 0 0 4.45-4.69 10.35 10.35 0 0 0 .41-6.11 14.66 14.66 0 0 1-2 6.62 7 7 0 0 1-3.86 3.45 4.39 4.39 0 0 1-1.9.5 27.22 27.22 0 0 0-3.3-.88 9.61 9.61 0 0 0 2.43-2.4 7.44 7.44 0 0 0 .59-3.17c0 .45-.33.85-1 2.22s-3 2.24-4.73 2.74a66.47 66.47 0 0 1-6.64.86c-1.24.21-5.21 1.16-5.21 1.16a7.69 7.69 0 0 0-.67-2c-.28-.62-.67-1.62-.88-2.24s-2.05-6-2.05-6c-.76-4.23-.55-7.05.86-10.23a12.6 12.6 0 0 1 6-6.21c2.66-1.47 4.01-1.33 4.01-1.33zM77.43 13.78c.6-1.14 1.45-2.17 1.91-3s2.14-2.77 2.14-2.77a14.94 14.94 0 0 1 7.5-4.71 14.41 14.41 0 0 0-4.69 4.14 4.84 4.84 0 0 0-.86 3.07 30.45 30.45 0 0 1 2.48-3.68 17.65 17.65 0 0 1 6.14-4 5.79 5.79 0 0 1 2.69-.45c-.38.1-3 1-5.69 4.38a12.86 12.86 0 0 0-2.48 7c0 1.9.22 6.35.22 6.35a3.48 3.48 0 0 1-.76 2 7.58 7.58 0 0 0-1.34 2.9 13.23 13.23 0 0 0 .05 3.83c.22.91-.48.71-.78.64a6.91 6.91 0 0 1-3.12-2.47c-1.14-1.64-.55-4.05-.4-4.66a11.67 11.67 0 0 0 .43-1.1 1.22 1.22 0 0 0-.9.76 8.34 8.34 0 0 0-.5 4.23c.29 1.4 1.1 1.66 1.19 2.71s-.45 1.21-1.22 1.78-3 .71-4.28.53-1.1-.83-1.1-.83l-.05-2.94a23.18 23.18 0 0 1 .35-3.93c.38-2.1.71-3.38 1-4.5a34.31 34.31 0 0 1 2.07-5.28zm-3.16 3.76c.07-.05.28-.16.34 0a1.83 1.83 0 0 1-.33 1.1 47 47 0 0 0-1.07 5.57c-.07.69-.09 3.43-.09 3.43.1 1.45.28 2.71.28 3.43a1.21 1.21 0 0 1-.55 1 1.58 1.58 0 0 1-1.72-.81s-.4 0-.62-1.95a12.86 12.86 0 0 1 .6-4.92 37.68 37.68 0 0 1 1.74-4.55 7.63 7.63 0 0 1 1.42-2.3zm-7.83 13.23c.17-.79.67-3.21.83-3.66a23 23 0 0 1 1.55-4 2.85 2.85 0 0 0 .13-.28c.36-.61 1.92-3 2.19-3.31a3.09 3.09 0 0 1 1.16-1.09.29.29 0 0 1 .2.22c-.11.2-1.47 2.76-1.77 3.42a16.62 16.62 0 0 0-1 3.33 23.58 23.58 0 0 1-.43 3.36 4.48 4.48 0 0 1-.91 1.62c-.55.69-1.26 1.71-1.67 2.35a4.56 4.56 0 0 0-.51 1.11 30.24 30.24 0 0 1 .23-3.07zm2.67 21.52a.49.49 0 0 1-.29.47 2.66 2.66 0 0 1-.95-.9 18.77 18.77 0 0 1-2.17-5.67c-1.11-4.59-.64-5.86-.47-6.69a28.66 28.66 0 0 1 1.5-4.05c.33-.62 2.47-3.52 2.47-3.52a.55.55 0 0 1 .69-.19 4 4 0 0 0 .86 1.1 1 1 0 0 1 .67.76 6.74 6.74 0 0 1-1.05 1.88 8.34 8.34 0 0 0-1.43 4.16c.06.54.11.25.29-.21a11.79 11.79 0 0 1 2.41-3.6 11.36 11.36 0 0 1 1.22-1.62v.05c0 .42-.24 3.37-.37 4.28a13.34 13.34 0 0 1-1.28 4.13 17.11 17.11 0 0 0-1.81 5.19c-.12 1.02-.29 4.43-.29 4.43zm2.95 5.62a14.92 14.92 0 0 1-2.09-5.55s.14-3.35.24-4.26a16.07 16.07 0 0 1 1.9-4.64c.21-.38.47-1.48 1.09-.64s.45 5.42.47 6.24a20.24 20.24 0 0 0 .83 5.12c.57 1.48 1.62 4.28 2.26 5.52a55.38 55.38 0 0 0 2.67 4.92c-.47-.12-5.4-3.15-7.37-6.71zm16 11.45a19.21 19.21 0 0 1-7.55-5.43 36.06 36.06 0 0 1-3.88-7.33c-1.31-3.67-.95-4-.81-4.05s.28-.05.62.6a30.67 30.67 0 0 0 5.64 7.86c3 2.71 5.81 5.19 11.19 6.78l.94.22c.82.46.7.92.75 1.76a.94.94 0 0 1-.75 1.1s-1.4.29-6.11-1.5zm-54.85 1.23l-.6-6.17-.79-7.17s-.36-3.4.12-3.55 1.41 7 1.45 7 1.17 6.55 1.17 6.55l1.65 9.14a.39.39 0 0 0 0 .18c0 .48 1.29 8.81 1.29 8.81a.78.78 0 0 1-.48.88c-.62.26-1.88-.93-2.07-1.29l-.24-1.48-.88-7.36zm-1.5 14.5c1-.19 2.26.9 2.83 1.22s3.54 1.88 4 2.09 2.38 1.24 2.26 2.19a1 1 0 0 1-1.09.9c-2.21 0-2.79-.71-4.45-1.28a12.69 12.69 0 0 1-3.55-2.41 2 2 0 0 0-.5-.46 3.35 3.35 0 0 1-.35-.83 1.28 1.28 0 0 1 .85-1.42zm-2.55 4l.17-.41a1 1 0 0 1 1.5-.21 21.28 21.28 0 0 0 3.38 2.09c1 .45 2.29.67 4.45 1.45s2.33 1.19 2.55 1.79a1.25 1.25 0 0 1-1 1.71 7.47 7.47 0 0 1-3.23-.19 34.13 34.13 0 0 1-4-1.09c-.52-.34-2.52-2-2.52-2h-.06a5 5 0 0 1-1.06-1.5 4.18 4.18 0 0 1-.19-1.65zm5.5 11.74a4.93 4.93 0 0 1 .6-.2v.7a4.91 4.91 0 0 1-.61-.51zm1.22-1.29a1.24 1.24 0 0 1-.79.62 7.7 7.7 0 0 1-1.43.09 10.2 10.2 0 0 1-3-1.43c-1.1-.72-.91-1.22-.81-1.38a.5.5 0 0 1 .71 0c.36.21 1.47.64 1.47.64a13.5 13.5 0 0 0 3.48.55.73.73 0 0 1 .37.9zm0-1.34a.66.66 0 0 0-.2 0 12.29 12.29 0 0 1-3.59-.83 6.91 6.91 0 0 1-2.63-2.36c-.66-1-.81-1.76-.41-2.09a1.12 1.12 0 0 1 1.11.32 13.64 13.64 0 0 0 2.78 2.06 17.23 17.23 0 0 0 4.79 1.1 4.78 4.78 0 0 1 1.48-.08.57.57 0 0 1 .12.54.22.22 0 0 0-.08.1c-.1.29-.1.34-1.35.88a4.16 4.16 0 0 1-1.98.35zm3.35 11.59c-.51.17-1.1.36-1.39-.34a22.06 22.06 0 0 1-.76-3.31c0-.28-.47-3.69-.5-4.33s-.29-1.83.38-2.21a1.88 1.88 0 0 1 1.5 0 17.71 17.71 0 0 1 .77 3.77c.41 3.07.72 4.07.72 4.86a1.89 1.89 0 0 1-.68 1.55zm2.7-6.3a1.06 1.06 0 0 0-.59-.07.93.93 0 0 1-1.21-.76c-.21-.86-.21-2.83-.31-3.31-.06-.29-.18-.73-.25-1a4.09 4.09 0 0 1 .51-.76 1.84 1.84 0 0 0 .26-.91.88.88 0 0 1 .56-.67 2.23 2.23 0 0 0 1.05-1.79 2.55 2.55 0 0 0-1.05-1.74 1.69 1.69 0 0 0 .9-1.33c.05-.91-.67-1.79-1.85-2.81s-1.38-.86-1.52-2.09-.64-6.31-.64-6.31-.33-2.41-.47-2.72a.51.51 0 0 1 .71-.6c.53.12.71.53.83 1.45s.34 3.05.5 3.78a9.36 9.36 0 0 0 1.24 2.95c.67 1 2.5 2.95 2.79 3.45a10.44 10.44 0 0 1 1.48 3.36 8.58 8.58 0 0 0 .19 1.88 4.94 4.94 0 0 1 1.24 1.66 11.11 11.11 0 0 1 0 3.59c-.21 1.21-.72 4.24-1.79 5.66a1.87 1.87 0 0 1-1.24.55 2.65 2.65 0 0 1-1.3-1.47zm1.66 4.1a1.18 1.18 0 0 1-1.07-.86 1.33 1.33 0 0 1 1.24-1 1.22 1.22 0 0 0 1-.52 13.38 13.38 0 0 0 2.24-4.59 34.76 34.76 0 0 0 .38-4.45 1.29 1.29 0 0 1 1.76-1.16 3.94 3.94 0 0 0 1.07.93 3.1 3.1 0 0 0 1.17.28c.34.07 1.07 1.48 1.24 4.14a14.72 14.72 0 0 1-1 6.14c-.34.66-1 1.79-1 1.79s-.59 1.24-1.45 1.1a12.15 12.15 0 0 1-2.45-.93 2.8 2.8 0 0 0-1.14-.45 17.41 17.41 0 0 0-1.96-.43zm2.83 7.62c-.9.17-1.79-.1-1.83-2.52s.34-2.79.45-2.9a.86.86 0 0 1 1.58.63c.1.83 1 1.79 1 2.62s-.27 1.97-1.17 2.17zm12.79 3.41a4.57 4.57 0 0 1-3.15.45c-1.83-.38-2.52-.34-2.79-1.62a.84.84 0 0 1 .41-.93 2.51 2.51 0 0 0 1.14-1.72 12.09 12.09 0 0 1-3.17 1.55 4.84 4.84 0 0 1-2.38-.55c-.55-.17-.83 0-1.24-.17s0-1.1.34-1.41a11.13 11.13 0 0 0 1.66-2.31c.38-.72 1.35-3.35 1.35-3.35a11.82 11.82 0 0 0 2-6.38c.14-3.93-.1-5.55-.72-7.11a.76.76 0 0 0-.45-.59c-.31 0-.45.62-.86.59a.73.73 0 0 1-.55-.86 2.48 2.48 0 0 1 3-1.2c2.17.48 4.28 5 4.62 6a6.39 6.39 0 0 0-.1-2.45s-1-1.72.72-1.45a12 12 0 0 1 2.23.5 2.6 2.6 0 0 1 1.22 1.63c.34 1 .49 7.11.49 8a49.15 49.15 0 0 1-1 8.56 11.27 11.27 0 0 1-2.77 4.82zm18.24 28.66s.24-3.93.41-5 .17-4.42.17-4.42.07-.62 1.17-.48 6.24 1 6.24 1c-.91.45-7.95 8.91-7.95 8.91zm60.25-12a13.78 13.78 0 0 0-2.49-6.47s-.62-.75-1.22-1.37c0 0-.48-.37-.22-.7l.35-.16a4.5 4.5 0 0 1 3.88.26c5.33 3.05 4.45 5 5.74 8.07.19.45.38 1 .57 1.53a.69.69 0 0 1-.62.54l-3.16 1.24-2.74 1.37s-1 .65-.52-.65a7.16 7.16 0 0 0 .48-3.66zm-2.49-4.68a15.55 15.55 0 0 1 1.24 6.6c-.05 1-4.11 5.07-5.28 5.59a7.94 7.94 0 0 1-4.09.78c-2.28 0-6.18.28-6.78.36s-4.45.44-5.85-.67a1.31 1.31 0 0 1 .28-2.43c.72-.26 3.91-.16 6.23-.41s3.36-1.42 3.75-1.29.44.54-.08 1.27-.75.72-.75.88.7.31 1.6-.49 2.46-3.18 2.25-4.4a2.32 2.32 0 0 0-1.76-2.22c-1.24-.44-3.67-.83-4.58-1.11s-2.58-.73-2.37-1.77a.72.72 0 0 1 .67-.62h1.23a36.25 36.25 0 0 0 3.62-.21c1.68-.26 5.64-2.2 6.93-2.28s2.55-.3 3.74 2.42zm-12.83 14.54c2.12-.12 4.29-.3 5.44-.4-.41.62-1.9 3.55-2.33 4.38zm2.14 4.77s-3.62.38-4.76.59-7.38 1.17-7.38 1.17-1.45.14-1.07-.1 3.86-5.95 4.27-6.63a15.65 15.65 0 0 0 1.94.28 29.7 29.7 0 0 0 3.35 0zm7.61-23.9a.52.52 0 0 1-.39.38c-.52.18-.91.1-1.71.31s-2.43 1.29-3.34 1.63a21.73 21.73 0 0 1-5.41 1h-.39a5.57 5.57 0 0 0-2.17.39c-.78.41-.72 2.33-.6 2.66s1.54 1.19 3.92 1.89 3.88 1.19 4.07 1.58-.23 1.53-1.58 2.25a14.65 14.65 0 0 1-6.34 1.53c-3.13.18-3.23-.13-3.6-.47s-1.91-9.6-1.91-9.6l-2.67-16.06a1.28 1.28 0 0 1 .86-1.66c.53-.12.95-.19 1.25-.24l7.14-.78 12.62-1.14c1.81-.16 2.38 1.5 3.73 3a12.82 12.82 0 0 1 2.38 6.83c-.16 1.4-2.59 2.07-4.6 2.85s-1.26 3.65-1.26 3.65zm-20.75 3.85l1.86 9.49a1.13 1.13 0 0 1 0 .91c-.23.44-.83.1-1.37.13a19.08 19.08 0 0 0-2.12.6 7.3 7.3 0 0 1-1.06.08l.07.72c-.34-2-1.66-9.72-2.2-12.81-.62-3.55-2.1-12.45-2.1-12.45s-.59-3.1 1.1-4 3 .79 3.38 2.48 2.44 14.81 2.44 14.81zm-4.8 10.05l.47 2.86s0 1.38 1.1 1.14a1.16 1.16 0 0 0 .69-1.5 3.59 3.59 0 0 1 1.76-.7c1.35-.23 1.84-.16 2.07.21s-.05 1.19.57 1.89a3.13 3.13 0 0 0 1.16.8c-.38.62-2.25 3.69-2.93 4.92s-1 1-1 1c-.62-.45-6.76-11.14-6.76-11.14a5.33 5.33 0 0 1 1.93-.07 1.28 1.28 0 0 1 .94.55zm-2.42 2.69s2.59 5.07 3.93 7a13.6 13.6 0 0 0 2.07 2.24c-.21 0-1.07-.07-1.07-.07l-7.59-.93s-6.14-.52-6.83-.66l-.52-.17c.44-.56 6.19-7.87 8.79-10.09zm-10.8 6.76c-.53-.37-4.9-8.91-5.75-10.58l14.31.61s-7.87 7.41-8.56 9.93zm-1.18.54c-1.75-.15-3.87-.33-4.51-.43-1.07-.17-8.9-.38-9.69-.28a5 5 0 0 1 1.41-2.48l7.07-6.76zm-14.62 46.19l2.8 1.09s1 .47 2.07 1l-3.11.1a8.79 8.79 0 0 0-1.82-2.19zm11.21-1.55a57.05 57.05 0 0 1-7.66.45v-.05a18.8 18.8 0 0 1-.71-3.95 16.68 16.68 0 0 0 10.51 3.02zm6.52-.72h.07c-.14 2-1.52 3.83-4.76 4.42s-7.1-1.23-7.1-1.23a4.76 4.76 0 0 0-.89-.74 70.79 70.79 0 0 0 7.58-.5 9.77 9.77 0 0 0 5.11-1.95zm-15.25-5.69l-.21-3.52s2.55 4.76 12.56 4.79h.2a18.62 18.62 0 0 1-6.65.65 12.26 12.26 0 0 1-5.89-1.93zm-11.83 6.58h.42a10.62 10.62 0 0 1 2.5 3.11c.45.83.41 1.38-.1 1.76s-4.38.34-5.42 0-.69-1-.69-1a7.27 7.27 0 0 1 1.44-2.11 12.19 12.19 0 0 1 1.85-1.76zm-7.9 3.44a4.05 4.05 0 0 0 2.56 2 5.1 5.1 0 0 0-.22.86 20.93 20.93 0 0 0-.23 3.39.63.63 0 0 1-.84.23 4.68 4.68 0 0 1-1.83-1.76 5.34 5.34 0 0 1-.49-1.8 9 9 0 0 1 1.1-2.92zm.75 8.91a5.63 5.63 0 0 1-1.72-2.57 4.54 4.54 0 0 0 3.22 1.93 6 6 0 0 0 .48 1.82 7.56 7.56 0 0 1-1.93-1.18zm.64-10.62l.22-.18a9 9 0 0 1 4.4-1.45 23.26 23.26 0 0 0-2.79 3.85 2.12 2.12 0 0 1-1.78-2.21zm2.46 8.1a10.23 10.23 0 0 1-.31-2.72 1.1 1.1 0 0 1 .93-1.08s2.69.48 3.76.52c.68 0 2.1-.07 3.26-.15a15.08 15.08 0 0 1 .44 3.53v.13a1.4 1.4 0 0 1-1.27.74c-1.2.1-5.82.28-6.76-.97zm8 4.93a1 1 0 0 1-1.1.59h-.02a30.06 30.06 0 0 1-5.63-1 11.51 11.51 0 0 1-.92-2.58s5 .53 7.81.62a12.22 12.22 0 0 1-.09 2.38zm.55-11.21c-.5-1.2-1.3-2.74-1.63-3.38 1.42.17 2.72.39 3.76.6a7.49 7.49 0 0 1 2.87 2.44c.45.55 0 .76 0 .76s-1.66.24-2.28.24-1.97.9-2.63-.65zm.76 2.7a24.82 24.82 0 0 1 3.51-.84h1.67a1.09 1.09 0 0 1 .26.26 7.31 7.31 0 0 1 1.3 3.63s-.07.93-2.14 1.31-3.59.48-4.14.07c0-.81 0-1.49-.06-1.79a14.47 14.47 0 0 0-.3-2.59zm6.48 7a3.26 3.26 0 0 1-1.14 1.34 43.11 43.11 0 0 1-4.93.83h-.1v-3c2.06-.12 4.75-.41 6.38-.6a2.66 2.66 0 0 1-.11 1.39zm6-.86a2 2 0 0 1-.41 1l-1.08.11c-1 .12-2.1.31-3.19.54a3.44 3.44 0 0 0 .7-2.62 18 18 0 0 1 3.69-.82h.32a6.43 6.43 0 0 1 .07 1.75zm.24-3.48c0 .1-.25.85-1.89.82s-2.45-.07-2.86-.48a5.89 5.89 0 0 0-.34-2.38 12 12 0 0 0-.76-1.51l.28-.08a26.79 26.79 0 0 1 4.24-.45c.69.38 1.21 1.86 1.41 2.83a1.42 1.42 0 0 1 .02 1.21zm1.51-4.09a18.91 18.91 0 0 1 1.94.05 3 3 0 0 0 .69 0h.06l.22.15a18.42 18.42 0 0 1 1.6 2.64.92.92 0 0 1-.52 1 10.63 10.63 0 0 1-2.24.32 5.13 5.13 0 0 1-1.6-.28 12.85 12.85 0 0 0-.57-3.65.8.8 0 0 0 .52-.27zm4.25 7.5a1.53 1.53 0 0 1-1.48.9c-.9 0-2 0-3.08.09a13.11 13.11 0 0 0 .27-2.76c1.52 0 3.3-.09 4.55-.18a5.34 5.34 0 0 1-.16 1.93zm3.59-1.14a2.67 2.67 0 0 1-2.46 2 9.08 9.08 0 0 0 .7-3 6.76 6.76 0 0 0 2.21-.55 8.86 8.86 0 0 1-.35 1.51zm.67-4.73a2.36 2.36 0 0 1-1.77 1.42l-.77.25a7.21 7.21 0 0 0-1.55-3.65 6.2 6.2 0 0 0 1.81-.84c.83-.66 1-.76 1.76.93a6.53 6.53 0 0 1 .52 1.89zm-.21-8.59c-.38.31-4.83.38-8.11-.17a15.71 15.71 0 0 1-5.69-1.8 39 39 0 0 0 11 0 8.1 8.1 0 0 0 3.7-1.27s-.54 2.93-.92 3.24zm1.45-5.48c-.1.55-.1 1.41-2.52 1.35s-8.07 0-11.24-1.9-3-3-3-3 0-.21.25-.15a10.09 10.09 0 0 0 2.27 1.22 40.69 40.69 0 0 0 13.93 2s.4-.07.29.48zm7.17-20a80.81 80.81 0 0 0-2.9 8.73c-.41 2.1-1 5.83-2.31 7.14s-1.55 1.38-2.55 1.59c0 0-1.62.72-2.59.14s-.31-1.1-.1-1.72a11.7 11.7 0 0 0 1.86-6.31 2.33 2.33 0 0 0-.28-1.24s-1 6.62-4.48 8.55-7.59-.83-8.42-1.59-1.76-5.45-1.31-6.9a3.74 3.74 0 0 0-.59 2.9s.55 1.66 0 1.9-1.59-.24-2.41-3-.59-7.66-.1-9.93a6.83 6.83 0 0 0 1.24.76c.93.48-1.17-3-1.14-5.79s.24-8.62.59-9.69a2.63 2.63 0 0 1 1.65-2l2.8-.13c1.24-.07 7.69.24 10.59.59l.87.12a13.65 13.65 0 0 1 8.72 6.78c2.98 5.61 1.45 7.54.85 9.02zm9.76 17.91c5 3.47 12.17 2.82 12.17 2.82-4.3 1.27-10.78.52-12.3.32a17.3 17.3 0 0 1 .12-3.18zm17.87-.59c0 .07 0 .34.06.71-1.06 1.84-4.54 1.81-4.54 1.81-7.92-.12-12-2.49-13-3.12l.17-.24a10.34 10.34 0 0 0 2.27.84c2.55.59 9.49.24 12.8-.93.66-.23 1.24-.46 1.75-.67.61.32.45 1.31.45 1.56zm-17.76 6v-.28c.67.65 2.1 1.43 6.21 2s9.59-.66 9.28-.38-1.52 1.17-5 1.83-9.27 0-9.7 0a23.41 23.41 0 0 1-.81-3.21zm4.49 12c1.22-.25 2.94-.56 4.92-.78a6.17 6.17 0 0 1 1.25 2.23v.12l-3.58.19a23.34 23.34 0 0 0-3.89.64l.06-.23a6.21 6.21 0 0 1 1.22-2.21zm.14-4.26c.74-.12 1.68-.22 3-.33a9.1 9.1 0 0 0 .57 2.44 37.51 37.51 0 0 0-3.93.81 9.46 9.46 0 0 1 .34-2.96zm5.93 1.81l-.9.1-.1-.1a9.54 9.54 0 0 0-.57-2.25l.78-.06a21.11 21.11 0 0 1 2.53 0c.27.4 1 1.44 1.35 2.15-.93-.06-1.93 0-3.11.12zm-1.69-3.79c-3.38.1-6.93.62-6.93.62s-.29-.57-.65-1.53c.72.15 2.25.44 3.52.57 1.72.17 5-.14 6.59 0s3.91.6 4.32.68l-.08.22a35.05 35.05 0 0 0-6.79-.6zm3.21-1.62a10.53 10.53 0 0 0 4.78-1.88c-.2.86-.46 1.73-.69 2.45a22.78 22.78 0 0 0-4.12-.61zm-11.96 6.46c.14-1.12 2-2.14 2.66-2.46l.45-.15a5.42 5.42 0 0 0-.29 2.2l.09.77a16.1 16.1 0 0 0-1.94.72c-.47.07-1.13.17-.97-1.08zm-1 3.31a9.7 9.7 0 0 1 3.52-1.48l-.07-.05h.1v.08a4 4 0 0 0-1.17 2.36l-1.07.33a6.15 6.15 0 0 1-2.67.29 5.62 5.62 0 0 1 1.39-1.51zm-1.69 3.86v-.3c.8-.74 3.44-1 4-1.1.06 1.1.18 2.45.37 3.71a9.37 9.37 0 0 1-2.42-.2c-.81-.29-1.49-.13-2-1.49a3.86 3.86 0 0 0 .08-.6zm.17 3l-.12-.23a7.86 7.86 0 0 0 2.81.68c.62.06 1.19.16 1.75.26a6.19 6.19 0 0 0 1 2.4c-3.41-.54-4.87-2.19-5.4-3.09zm13.59 1.83a1.78 1.78 0 0 1-1.11 1.21c-.86.09-2 .19-3.41.27h-.11a5.44 5.44 0 0 1-2.34-2.18l-.07-.11a11.5 11.5 0 0 0 2.21-.06c2.16-.26 4-.52 4.85-.6a2.26 2.26 0 0 1-.02 1.47zm.21-3.55c-.17.93-.83.59-1.21.62s-4.21.69-5.35.66a8.55 8.55 0 0 1-1.48-.16 10 10 0 0 1-.45-4.12c.81-.72 6.72-1.44 7.55-1a1.35 1.35 0 0 1 .72 1 15.71 15.71 0 0 1 .22 2.98zm.66-5.83a1.81 1.81 0 0 0-.34-1.31 7.49 7.49 0 0 0-.7-.87l1.6-.1h2.74a4.32 4.32 0 0 1 1.67 2.26c-1.09 0-2.28.11-2.57.11s-1.71.12-2.32.18l-.09-.29zm4.66 9.78c-1.12.1-2.27.17-2.81.17a6.66 6.66 0 0 0-1.46.26 4.35 4.35 0 0 0 0-2.38c1.52-.1 4.24-.3 4.86-.43.25-.05.69-.12 1.21-.19.05 1.03-1.11 2.06-1.8 2.57zm1.88-4.24a9.87 9.87 0 0 1-3.79.54 9 9 0 0 0-2.41.1s-.11-2.54-.15-3.95c.77-1.43 3.46-1.36 4.12-1.29a1.86 1.86 0 0 1 1.93 1.31 12.56 12.56 0 0 1 .34 3.29zm4.59 2.1c-.86 1.45-3 1.55-3.9 1.79a20.69 20.69 0 0 0 .52-2.38c.87-.1 1.72-.19 2.14-.2a5 5 0 0 0 1.86-.5 7.59 7.59 0 0 1-.58 1.29zm1-4.52v.3a2.25 2.25 0 0 1-1.68 1.56 14.22 14.22 0 0 1-2.63.3 24.36 24.36 0 0 0-.55-3.81l2 .14a7.81 7.81 0 0 1 2.77.85c.09.2.11.42.13.66zm-.71-3a36 36 0 0 0-4.74-.22 9.09 9.09 0 0 0-1-2.09 10 10 0 0 1 2.43.53l-.08-.11c2.35.8 3.01 1.36 3.43 1.94zm-4.86-3.64a12.86 12.86 0 0 0-3.45-.45c-.18-.47-.56-1.41-.8-1.91a9.55 9.55 0 0 1 2.87.88 2.71 2.71 0 0 1 1.43 1.53zm-.72-11.34l.08-.46s-.52 2.17-5.42 2.66a25.69 25.69 0 0 1-9.55-1.1s2 .17 5.83.1 7.55-2.38 8.42-2.66a.62.62 0 0 1 .67.11c0 .41 0 .73.06.89a1.23 1.23 0 0 1-.05.51zm3.25-23a25.12 25.12 0 0 1 .28 9.66c-.62 2.66-1.59 4.38-3.66 5.07 0 0 1.9-5.14.72-8.55a38.67 38.67 0 0 1-.9 3.83c-.52 1.69-1.62 6.28-4.66 6.86a20.82 20.82 0 0 1-7.86.31c-1.86-.45-3.07-3.31-3.28-3.93s-.52-.14-.34.62a14.33 14.33 0 0 0 .83 2.45c.21.38-.14.62-.69.34a5.66 5.66 0 0 1-2.69-2.14l-.14-.16a16.62 16.62 0 0 1-3.2-6.22c-1-3.9-1.69-9.18-3.28-12.73a31.4 31.4 0 0 0-4-7.07.85.85 0 0 1 .17-1.48.2.2 0 0 0 .14 0 27.76 27.76 0 0 1 2.93-.1l3.41.07s4.93-.14 6.21-.07a31.22 31.22 0 0 0 4-.52c.76 0 5.83-1.07 5.83-1.07s6.38-1.24 8.49-1 2.43.78 2.54 1.77l.07 1.38a21.78 21.78 0 0 1-.83 6.14 11.67 11.67 0 0 1-1.93 3.38 6.51 6.51 0 0 1 1.88 3.2zm-9.35-16.07s2.06-4.22 3.09-5.21c.5-.12 1-.27 1.33-.32a24.58 24.58 0 0 0 3.46-2.46l4.24 6.62zm15.31-2.41c-.24 1.07-2 .69-2 .69l-4.39-6.97c.43-.28.89-.56.89-.56a1.39 1.39 0 0 0 .47.39c.44 0 1.19-.7 1.71-.41a19.8 19.8 0 0 1 2.74 3.18c.1.14.2.26.3.39a10.75 10.75 0 0 1 .33 3.32zm3.78-2.52a8.26 8.26 0 0 1-3.41-2l-.41-.57a.83.83 0 0 1 0-.75 6.66 6.66 0 0 1 3.31-.72 1.36 1.36 0 0 1 .77.46c.44 1.68.73 3 .73 3a.65.65 0 0 1-.94.61zm12.36-11.76a.48.48 0 0 0 0 .22c0 .88-1.66 4-2.59 4.09s-2.22-6.36-3.41-8.38-1.4-1.45-1.4-1.45 1.76 4.76 1.86 5.12 1.76 4.19 1.19 6.93-3.05 5-4.35 5.28a.68.68 0 0 1-1-.49V144a1.68 1.68 0 0 1 0-.27l-.07-.16c-.07-.66-.17-1.39-.29-2.11-.36-2.17-2.85-9.68-5.9-13.45s-7.86-2.74-8.33-2.9-.47-1.09.16-1.81 4.4-1.35 4.76-1.55 2-2 2.33-2.07 1.5-1 7.09.52a15.08 15.08 0 0 1 8.19 5.87.4.4 0 0 0 .09.13 10.12 10.12 0 0 1 1.45 3 7.56 7.56 0 0 1 .22 3.81zm2.8-11.78a51 51 0 0 1-1.45 6.57c-.26 1.29-.57 1.71-1.19.1a10.21 10.21 0 0 0-.54-1.16 16.86 16.86 0 0 0-4.89-6 12.37 12.37 0 0 0-8.8-2.48c-1 .05-3.78.83-3.78-.16s1.86-2.17 3-2.54a16.73 16.73 0 0 1 4.24-.26c1.14 0 3.47-.26 3.47-.67s-1.76-.62-3-.67-4.24.05-4.4-.41.21-.78 1.29-1.29 4.55-1 6.73-1.35.83-.52.83-.52c-1.4-.41-5.64.21-8.69.88s-2.95 2.33-4.4 2.74-2.22-1.5-2.22-1.5-4.45-8.17-5.64-10.5a7.44 7.44 0 0 1-.57-4.76 1.83 1.83 0 0 1-1.6.83c-.88-.21-1.29-1.86-1.29-1.86a17.8 17.8 0 0 0 1.24 4.35c.47 1.14 3.16 5 3.47 6.36s-.78 1.4-.78 1.4l-19.92 2.28s-5.79.57-6.86.71-2.48 2.28-2.31 3.52c.13.91 2.54 15.52 3.81 23.22a38.88 38.88 0 0 1-4.61.23s-13.87-.48-15.56-.62-6.55 0-7.55-2-.55-11.24-.55-11.24.36-4.76.54-6.42a42.74 42.74 0 0 0-.08-6.86c-.18-1.27-.1-5.59-.1-7.42a48.81 48.81 0 0 1 1-7.06c.21-.83.21-7.11.21-7.68s-.18-.31-.18-.31a16.53 16.53 0 0 0-.88 4.73c.13 1.71-.26 3.7-1.09 3.57s-1.09-2.17-1.09-2.17a9.31 9.31 0 0 0-.39 2.66 12.17 12.17 0 0 0 .72 4.42c.39 1.29.67 6.44.72 10a34.9 34.9 0 0 1-.49 6.91c-.1.18-1 2.85-7.32 2.72s-8.72-2.82-8.72-2.82a3.4 3.4 0 0 1 1.11-1.4c1.06-1 1.79-4.73 2.25-7.35s0-7.84-.36-10.27-.66-2.67-.16-2.79a1.19 1.19 0 0 1 1 .65l2.25 5.3a10.13 10.13 0 0 1 1 4.66c.62-1 .8-1.47.41-3.54s-2.16-4.79-2.31-5.26-.62-1.79 0-2.12a1.08 1.08 0 0 1 1.16.16 24.21 24.21 0 0 1 2.55 3.46 29.55 29.55 0 0 1 2.38 5.76 16.93 16.93 0 0 0-1.14-6.14 16.48 16.48 0 0 0-2.07-3 3.41 3.41 0 0 1-.16-3.28c.57-1.24 3.21-3.31 4.81-4.19s2.79-3 3.21-3.47 3.08-4.42 5-7.24 7.12-4.62 7.12-4.62 4.76-1.14 7.62-.83c0 0-3.31 8.19-4.29 12.9a53.69 53.69 0 0 0-1 9.16s.16 1.76 3.84 2.88a20.79 20.79 0 0 0 8.12.31s.88-.1 1-2.12 1.66-13.56 3.26-16.45a11.19 11.19 0 0 1 6.22-5.37l.38-.1c1.21-.41 4-1.14 5.07-1.62s1.14-1.38 2.6-.63a2.8 2.8 0 0 1 .33.39l6.58 4.38a13.15 13.15 0 0 0-4.44 1.75 19.8 19.8 0 0 1 5.68-.69 21.51 21.51 0 0 1 4.19.93c3.67 1.73 4.68 1.94 7.58 5.2a43.16 43.16 0 0 1 5.23 7.66c.72 1.19 6.21 8.17 7.45 10s3.05 3.05 4.71 7.86a27.33 27.33 0 0 1 1.49 11.58zM76.82 195.1z" fill="#692f23"/><path d="M120.51 165.19s4.1-.45 5.1-.59a23.07 23.07 0 0 0 2.69-.66 10.11 10.11 0 0 1-4 2c-2.09.42-4.38-.37-3.79-.75zM100.98 33.59c-.05.31.05.87 2 1a23.94 23.94 0 0 1 3.92.3 11.93 11.93 0 0 1 3.3 1.81c.75.69.62.22.62.22a7.94 7.94 0 0 0-2.12-2.2 12.11 12.11 0 0 0-6.38-1.89s-1.21.01-1.34.76zM79.6 35.64s2.37-.87 3-1a8.18 8.18 0 0 1 2.3-.12c.63.08 1.07-.1 1.07-.49a1 1 0 0 0-1-.91 15.54 15.54 0 0 0-2.39.48 10.19 10.19 0 0 0-2.37.92 2.75 2.75 0 0 0-.88.88.23.23 0 0 0 .27.24zM109.21 39.87c-2.06-1-2.46-1.68-5.79-2s-4.13 1.28-4.33 2.2a11.82 11.82 0 0 0-.09 1.19 5.79 5.79 0 0 0 0 1.36 1.5 1.5 0 0 0 .88.12c.28 0 2.63.71 3.34.84h.21a11.52 11.52 0 0 0 4.6-.2 5.48 5.48 0 0 0 2.59-1.37.91.91 0 0 0 .41-.74s.18-.41-1.82-1.4zm-5.57 2.76a2.37 2.37 0 0 1-2-.63 2.12 2.12 0 0 1-.5-1.44 1.09 1.09 0 0 1 .63-1.13 1.86 1.86 0 0 1 .74.24 1 1 0 0 0-.4.87 1.14 1.14 0 0 0 1.23 1 1.09 1.09 0 0 0 1.22-1 1 1 0 0 0-.08-.6.29.29 0 0 1 .25-.34.66.66 0 0 1 .74.34 1.79 1.79 0 0 1-.12 1.5 1.94 1.94 0 0 1-1.73 1.19zm-3.8-.91a2.83 2.83 0 0 1 .83-1.89 2.52 2.52 0 0 0-.14.92 2.45 2.45 0 0 0 1.18 2l-.28-.11a2.81 2.81 0 0 1-1.61-.92zm9.84-.16a1 1 0 0 1-.34.29 7.85 7.85 0 0 1-3 1.16 16.64 16.64 0 0 1-2 .21 2.84 2.84 0 0 0 1.64-1.1 2.54 2.54 0 0 0 .32-2 2.65 2.65 0 0 0-.41-.9 16.42 16.42 0 0 1 3.53 1.66 1 1 0 0 1 .18.22.38.38 0 0 1 .06.46zM90.43 49.3a3.42 3.42 0 0 0 2.26.75 5.9 5.9 0 0 0 2.26-.3 1 1 0 0 1 .87-.1c.34.22.13.65-.36 1a3.77 3.77 0 0 1-2.94.53 2.92 2.92 0 0 1-2.22-1.32c-.37-.54-.23-.78.13-.56zM87.86 41.4c-.22-.35-.6-1-.92-1.51a7.39 7.39 0 0 0-1.47-1.2l-.62-.36a6.92 6.92 0 0 0-2.55-.65 4.14 4.14 0 0 0-2.61.67 4 4 0 0 0-1.15 1.66 2.5 2.5 0 0 0-.26 1.32 1 1 0 0 0 .52.56 9.74 9.74 0 0 0 2.57 1.25 9.08 9.08 0 0 0 3.05.19 6.63 6.63 0 0 0 2.11-.65 4 4 0 0 1 1.2-.12.49.49 0 0 0 .53-.38 2.74 2.74 0 0 0-.4-.78zm-7.08.87c-.34-.16-1.22-.67-1.22-.67a1 1 0 0 1-.35-1.17.42.42 0 0 1 .08-.15.55.55 0 0 1 .47-.1c.22.09.08.16.23.65a3.26 3.26 0 0 0 .94 1.48zm2.76-.46a2 2 0 0 1-2.26-.32 1.53 1.53 0 0 1-.62-1.25 1.13 1.13 0 0 1 .22-.85.41.41 0 0 1 .14-.14.39.39 0 0 1 .22 0 3 3 0 0 1 .14 1.2 1.08 1.08 0 0 0 1 .74 1.26 1.26 0 0 0 1.33-1 1.28 1.28 0 0 0-.37-1h.21a2.9 2.9 0 0 1 .53 0 1.08 1.08 0 0 1 .4.64 1.8 1.8 0 0 1-.94 1.98zm3.39 0a1.48 1.48 0 0 1-1.13.21c-.34 0-1.57.17-1.57.17l-.11.06.09-.02a2.08 2.08 0 0 0 1.1-1.47 2.5 2.5 0 0 0-.25-1.54l.15.1a9.75 9.75 0 0 1 1.6 1.55c.27.32.45.67.11.98z" fill="#692f23"/><g fill="#fff"><circle cx="102.02" cy="39.99" r=".59"/><circle cx="81.48" cy="39.78" r=".64"/></g><path d="M84.58 55.5a1.17 1.17 0 0 1 1-.54 9.22 9.22 0 0 1 2.51 1 30.64 30.64 0 0 0 7.74 1.63c2.12 0 6.6-.39 8.51-1.4a12.35 12.35 0 0 1 4.09-1.4 3.45 3.45 0 0 1 2 .75.65.65 0 0 1 .1.75 1 1 0 0 1-1 0 4.71 4.71 0 0 0-1.55-.52c-.88-.05-2.28.91-2.9 1.22a19.41 19.41 0 0 1-8.23 2 22.29 22.29 0 0 1-8.64-1.98 6.83 6.83 0 0 0-1.71-.83 7.44 7.44 0 0 0-1.66.21c-.13-.01-.57-.26-.26-.89zM92.65 60.5a9.26 9.26 0 0 0 3.5.6 15.33 15.33 0 0 0 3.74-.31.84.84 0 0 1 .67-.09c.07.12-.6 1.26-2.81 1.48a9.71 9.71 0 0 1-4.92-.55 2.9 2.9 0 0 1-1.21-1.09s-.05-.28.29-.22a5.49 5.49 0 0 1 .74.18z" fill="#692f23"/><ellipse cx="113.96" cy="90.58" rx="4.83" ry="4.48" transform="rotate(-45 116.49 91.328)" fill="#fd8204"/><ellipse cx="95.06" cy="109.13" rx="4.83" ry="4.48" transform="rotate(-53.09 97.166 109.923)" fill="#fd8204"/></g></svg>