<svg xmlns="http://www.w3.org/2000/svg" width="150" height="150" viewBox="0 0 150 150"><title>качество_1</title><g data-name="Слой 2"><g data-name="за опаздание"><path fill="none" d="M0 0h150v150H0z"/><path d="M70 11.59l-41.69-.43s-1.86-.21-2.07 2.28-.71 77.25-.71 77.25l.07.79-5.71.14a8.61 8.61 0 0 0-.5 1.71c0 .43.07 2.43 1.21 2.43s6.78.36 6.78.36l.07 43.55 1.29.07.43-1.14.58-42.6 5.21.43.71 36.62s.79.57 1.29-.07a6 6 0 0 0 .79-1.86l-1.14-35 36.12.36-.21-8.64-39.63-1.29a2.25 2.25 0 0 1-2.07-2.36c0-2.21.71-66.47.71-66.47a13.09 13.09 0 0 1 2.93-.64c.71.07 30.77.14 30.77.14z" fill="#e2ddd3"/><path d="M65.66 17.16l-32.77-.29s-1.5.79-1.5 2.07-.57 65.25-.57 65.25-.14 2 .86 2.28 40.84 1.43 40.84 1.43v-4.27s-3.14 1.64-5 1.43a54 54 0 0 1-7.21-2.21 4.77 4.77 0 0 1-2.21.14 8.27 8.27 0 0 1-2.93-1.78l-4.35-.5s-1.29-.5-1.29-1.57a23.89 23.89 0 0 1 .71-3.78l-1.57-.71s-.71-.57-.36-1.21l-.83-1.24-.86-.2s.69 3 .43 3.57a2.35 2.35 0 0 1-1.4 1.19c-.38 0-.71-.55-.83-1.09s-.93-4.52-.93-4.52S40.27 69 40 68.82s-.79-.83-.69-1.26.62-.48.62-.48-1.36-1.48-1.29-1.86.1-1 .67-1.17a2.6 2.6 0 0 1-.31-1.2 2.42 2.42 0 0 1 .76-2c.5-.31.48-.14.48-.14a1 1 0 0 1-.1-1.09c.31-.62.67-1.07 1.24-1a3.05 3.05 0 0 1 1 .31 1.15 1.15 0 0 0 .33-.81c0-.43-2.24-20.73-2.21-20.8s0-1.17.5-1.09.76 2.31.76 2.31 2.76 14.75 2.88 14.8.14-.43.67-.43.81 2.07 1.19 3.55 3.36 5.24 3.55 5.93a18.5 18.5 0 0 0 .76 2.5c.12 0 1.19.88 1.64.79s1 .29 1.21.33 0-.74.55-1a2.42 2.42 0 0 1 2.74-.4c1.64.64 1.76 1.24 1.76 1.24s2.09.07 2.36.14 2.19.88 2.26.88a8.35 8.35 0 0 1 .81.43s-.14-.4.45-.4a3.6 3.6 0 0 0 1.07-.17 10 10 0 0 1 1.12-3.07c.59-.62 3.09-1.9 3.93-2.78s3.47-5.47 4-5.85 2.55-2.62 3.83-3.17a30.24 30.24 0 0 1 5.12-1.36c.21 0-.74-.71-.74-.71s-4.64-1-5.95-2.17-5.31-3.12-6.33-4.24a62.59 62.59 0 0 1-3.78-5.85 1.7 1.7 0 0 1-1.19-1c-.31-.79-2-3.83-2.19-5.26a30.06 30.06 0 0 1 .74-6.85c.25-.69 1.44-7.26 1.44-7.26zM25.68 96.48l-.36 42.34s.14 1.07 1 1.29 1-1.93 1-1.93l.5-41.76s-1.93-1.23-2.14.06zM33.25 96.76c.08.36.64 36.27.64 36.27s.64 1.14 1.29.71-.29-33.63-.29-33.63l.21-4s-2 .01-1.85.65zM88.58 139s-1.29 1.36-1.86.36a6.32 6.32 0 0 1-.29-3.07v-4.78c0-.21.79-2.78.79-2.78a13.44 13.44 0 0 0 1.36-1.43c.07-.3 0 11.7 0 11.7zM95.07 122.82l-.07 9.5a1.58 1.58 0 0 0 1.5.71c1.07-.07.57-3.78.57-3.78s.21-3.14.21-3.36-2.21-3.07-2.21-3.07z" fill="#f7f5f2"/><path d="M90.79 122.6c.29.64-.14 14.85-.14 14.85s-.57 1.29-1 1.5-1-1.78-1-1.78l.21-11.42z" fill="#e2ddd3" opacity=".9"/><path d="M74.15 126.46s-.43 7.57.79 9.28 4.5 2.28 6.43 1.93a9 9 0 0 0 3.43-1.5s1.43-4.43 1.64-4.71a21.55 21.55 0 0 0 .79-2.78s-6.78-.36-9.35-1.07-3.73-1.15-3.73-1.15zM97.64 126.82s.21 6.28.57 7.92 1.21 2 1.21 2 4.85-.79 6.92-.5 3.28.36 3.28.36 1.14-3.71 1.36-4.64a50.15 50.15 0 0 0-.14-6 23.89 23.89 0 0 1-5.28 1c-2.64.14-7.92-.14-7.92-.14z" fill="#d2a274"/><path d="M74.58 135.38a12.17 12.17 0 0 1-5-.71 11 11 0 0 0-8.21 1.14c-.93.79-2.43 3.36-1.78 5.5s3.5 3.78 6.14 4.57 7.64-.36 8.64-.71 6.07-.5 7.71-.79 2.57 0 3.28-1.5 1.36-2.43.93-3.64a24.3 24.3 0 0 0-1.5-3.07 3.72 3.72 0 0 1-2.86 1.36c-1.86 0-6-.79-6.5-1.29zM99.14 136.67s-1.86 2.14-1.93 3.07a4.73 4.73 0 0 1-.86 2.07c-.21.36-1.29 3.71.21 5.35s5.85 2.07 7.28 2.07 7.92-1.21 9-1.29a3 3 0 0 0 2.14-1.43 13.53 13.53 0 0 0 .14-4.85c-.36-.86-2.78-2.07-3-2.28s-1.93-2.78-1.93-2.78-9.48-1.22-11.05.07z" fill="#efb000"/><path d="M79.22 15.16s-1.5 2.28-1.36 3.28.36 2.28.36 2.28l-1.71.71a22.16 22.16 0 0 1-3.36.86c-.71 0-3 .07-3 .07L70 25.87s-.27 9.13 4.08 13.92 9.28 7.92 14.71 7.78 11.35-1.21 13.92-3.14 5.71-5.21 6.35-6.92l.79-1.57a4.81 4.81 0 0 0 2.07-1.64c.64-1.07 1.29-3 .64-4.28a2.38 2.38 0 0 0-3.07-1.14 4.09 4.09 0 0 0-1.64.79 30.12 30.12 0 0 1-4.21-3.5 49.66 49.66 0 0 1-2.57-4.93 2.52 2.52 0 0 1-2 .57c-1.29-.14-2.43.21-3.57-.14s-3.43-1.36-4.93-1.29a48 48 0 0 0-5.64.57c-.71.21-2.5.64-2.5.64l-.79-1.29s-1.7-4.57-2.42-5.14z" fill="#f9e5cc"/><path d="M87.67 29.49s-.26-1.62.81-2.21 3.19-.31 4.55.29 2.26 1.09 2.17 1.45a2.71 2.71 0 0 1-1.76 1.29 17.82 17.82 0 0 1-3.64.14 8.71 8.71 0 0 0-1.62-.59c-.51-.06-.51-.37-.51-.37z" fill="#fff"/><path d="M89 27.51a2.4 2.4 0 0 0-.24 1.69 1.56 1.56 0 0 0 1.5 1.07 2.5 2.5 0 0 0 1.74-1 1.61 1.61 0 0 0-.12-1.67c-.35-.4-2.33-.76-2.88-.09z" fill="#abd2f0"/><path d="M73.44 28.94c0-.11.07-1.64 1-1.81a4.77 4.77 0 0 1 2.71 0 3.26 3.26 0 0 1 1.85 1.4c.43.59.19 1 .19 1s-.12.24-.93.43a3.86 3.86 0 0 1-2.36.21c-.77-.33-2.34-.42-2.46-1.23z" fill="#fff"/><path d="M74.46 27.8a1.55 1.55 0 0 0 .67 1.57 2 2 0 0 0 2 .14 1.7 1.7 0 0 0 .48-1.26c0-.52.12-1.07-.79-1.19s-2.29-.26-2.36.74z" fill="#abd2f0"/><path d="M75.63 5.21s-2.52 3.17-3.26 4.38-3 2.76-3.64 3.28a14.91 14.91 0 0 0-3.57 6 11.86 11.86 0 0 0-.81 5.13 20.64 20.64 0 0 0-1 5.71A18.66 18.66 0 0 0 65.94 37c1 1.29 1.43 1.26 2 2.45a17.49 17.49 0 0 0 5.71 6.14 50.53 50.53 0 0 0 9.26 4.19 2.46 2.46 0 0 0 1.86-.24 7.42 7.42 0 0 0 .5-1.83c0-.43-1.07-.33-1.69-.79s-4.95-1.56-7.66-4.92-4.55-6.33-5.14-8.07-.93-7-1-8a18.59 18.59 0 0 1 0-2.43 1.25 1.25 0 0 1 1.12-1 33.12 33.12 0 0 0 4.62-.62 11.18 11.18 0 0 0 2.42-.88c.19-.26-.14-2.12.17-3.28s1.33-2 1.48-2.45.67 1 1.09 1.93 1.45 3.47 1.33 4 .83.19 1.81 0 6-1.31 7.33-.93 4.16 1.31 5.21 1.62a6.3 6.3 0 0 0 3.86-.36c.74-.48 1.43 1.48 1.48 1.57s2.47 4.43 4.38 5.5 2.52.5 2.86.48 1.67-.62 2.67-.1a2.48 2.48 0 0 1 1.14 3.28 34.31 34.31 0 0 1-2.21 3.38 9 9 0 0 0-1.07.74c-.1 0-1.55 4.5-4.28 6.21S102.4 45 102.4 45s.29 4.16.31 4.26a3.43 3.43 0 0 0 2.52-.31c1.17-.62 5.43-2 6.28-2.43a53 53 0 0 0 5.9-4.12c1.14-1.07 4.09-4 4.64-5.07a14.71 14.71 0 0 0 1.59-6.47c-.07-2.76-1-9.52-1.55-11a23.73 23.73 0 0 0-4.43-6.57 66.28 66.28 0 0 0-7.59-5.9c-.38-.12-5-3.31-6.33-3.78s-5.31-1.74-6.09-2a7.92 7.92 0 0 0-3.43-.73 3.51 3.51 0 0 0-1.48.9A5.82 5.82 0 0 0 90.1.93c-1.12.07-4.76.81-4.76.81a8.15 8.15 0 0 0-3.07.14c-1.6.41-4.74 1.41-6.64 3.33z" fill="#e09c51"/><path d="M79.29 8.45a3.79 3.79 0 0 1-1.5 1.71 19.1 19.1 0 0 0-4.28 3.43 10.46 10.46 0 0 0-2 5.66 8.51 8.51 0 0 0 .55 3h-2s-.17-4.81 0-6.35 2-6.54 3.36-8.11S76.84 4 77.68 3.71a26.11 26.11 0 0 1 3.66-1.4 28.76 28.76 0 0 1 4.5-.74A32.37 32.37 0 0 0 89.1 1c.21 0 1.86-.36 2.67.33s1 .4 1 .4a2.5 2.5 0 0 1 1.9-.87 6.14 6.14 0 0 1 5 2.88 45.84 45.84 0 0 1 2.21 4.52S99.26 4.14 97 3.19s-3.26.17-3.26.17.4 2.86.4 2.93A13.22 13.22 0 0 1 94 9.4a4.55 4.55 0 0 0-3.66-4.14A6.41 6.41 0 0 0 84.72 7l.55-1.83a9.5 9.5 0 0 0-2.9 4.95c-.52 2.93-.45 10 0 10.88l.12.29a.32.32 0 0 1-.43.1c-.31-.12-.52-1.74-1.19-2.71a20.44 20.44 0 0 1-1.81-6.31c.12-.85.23-3.92.23-3.92z" fill="#e9b87f"/><path d="M70.2 12a27 27 0 0 0-2.14 4.26 11.11 11.11 0 0 0-.38 5.52c.4 1.33.31.38.31.38a10.5 10.5 0 0 1 .81-3.57c.69-1.26 1.14-1.38 1.14-1.38s1-4.62 1.07-4.69-.09-1.21-.81-.52zM66.59 22.09s-2.33 3-2.74 5.12a12.59 12.59 0 0 0 .26 5.9c.5 1.52 1.38 3.66 2 4s.81-.1.81-.1a12.78 12.78 0 0 1-1.78-5.21c-.36-3.09 1.09-8.11 2.5-9.28 0 0 .24-.64-.12-.64a1.33 1.33 0 0 0-.93.21z" fill="#e9b87f"/><path d="M73.39 104.23c-.1.1-.81 6.28-.86 7.76a71.57 71.57 0 0 0-.1 8.52c.29 1.9.62 3.71 1.62 4.95s6.28 3.24 8.14 3.28 3.66.57 4.81-.76 1.86-1.76 2.33-3.24.9-4.9 1.29-5.85 1-3.76 1.76-3.76 1.62 2.48 1.62 3.24.76 4.47 2.57 6.28 3.62 3 7.57 2.71a19.35 19.35 0 0 0 7.42-2.09 10.17 10.17 0 0 0 2.19-4.09c.29-1.38-.29-6.43-.67-7.85s.76-3.76.76-3.9.81-3.9.29-4.81-2.24-1.19-3.38-1.09-7.95 1.43-10.23 1.57-5.09.57-7.33.48-8.42-1.29-8.42-1.29-10.85-.58-11.38-.06z" fill="#fd8204"/><path d="M78.29 104.19s-1.67 8.57-1.33 14.94 1.48 7.42 1.48 7.42l2.71-22.27 3.52.43s-1.24 7.47-1.38 8.66-.57 8.71-1.24 10.76a15.83 15.83 0 0 1-2.09 4s-3.62-.33-4.33-1.57a6.54 6.54 0 0 0-1-1.43s-1.48-12.71.71-20.94c.05-.05 2.38-.1 2.95 0zM88.1 106.18a30.43 30.43 0 0 0-2.33 8.8 62.14 62.14 0 0 1-.9 8c-.29 1.14-1.57 4.19-1.52 4.62s.9.86 1.86.81 1.52-1 1.81-2.62 1.19-9.14 1.43-10.9 1-6.43 1.48-7zM89.62 106.23s3 5.19 3.43 7.14.81 5.9 1.29 7.19 1.57 4.24 2.62 4.85 2.33 1.76 2.47 1.76.52-.62.48-.81-.62-2-.62-2a17.48 17.48 0 0 1-2.24-5 50.53 50.53 0 0 0-2.57-8.76c-.76-1.62-3-5.19-3-5.38s-1.86-.08-1.86 1.01zM94.86 105.61a33 33 0 0 1 1.86 4.19c1 2.67 3.57 10 3.9 11s1.67 5.57 3.09 6.23a6.3 6.3 0 0 0 4.62-.43 7.57 7.57 0 0 0 1.86-2.86 58 58 0 0 0-1.52-8.19 9.38 9.38 0 0 1-.86-3.57c0-1.76-.71-6.95-1.24-7.71l-3.43.48s1 6.33 1.29 7.19a62.58 62.58 0 0 1 2.09 6.95c.29 1.67.81 5.14-.29 7.47l-.14.52a16.3 16.3 0 0 1-1.57-3c-.81-1.9-2.24-7.33-2.67-8.57s-1.43-5.47-2-7.14-.9-2.57-1.43-2.86-3.56.3-3.56.3z" fill="#e16702"/><path d="M108.42 104.14a6.18 6.18 0 0 1 1.33 3.62c.1 2.24 0 3.62 0 5s1.52 4.43 1.48 5.9a17.39 17.39 0 0 1-.67 4.9c-.52 1.48-.81 2-.62 2a5.81 5.81 0 0 0 1.62-.71c.29-.24.81-.14 1.52-2.38a15.33 15.33 0 0 0 .43-6.76 11.21 11.21 0 0 0-1.33-3.14 14.23 14.23 0 0 0 0-6 10.49 10.49 0 0 0-1-2.9z" fill="#e16702"/><g><g fill="#692f23"><path d="M91.15 118.89c0-.14-.19 18.75-.19 18.75a3.17 3.17 0 0 1-1.57 1.81 3.48 3.48 0 0 1-2 .48l-.86.19A17.68 17.68 0 0 1 86 138c0-.19-.1-4.57-.1-4.57l1-2.9v8c0-.14 0 1 .76.9s.9-.71.81-1.86-.19-9.95-.14-10.09.86-1.57.86-1.57L89 137.69s0 1.14.62.86.71-1.33.67-2.43-.43-12.42-.43-12.42l1.14-5zM94.67 122.6v10.28a2.58 2.58 0 0 0 1.71.86c.9 0 1.09-1.62 1.09-1.62l-.29-2.47-.57-1.55v4.62c0 .24-1.07.43-1.21-.29s.1-8.71.1-8.71zM19.85 93.91c-.19-1.71.19-1.76.19-1.76a4.27 4.27 0 0 1 1.57-.29c1.09 0 51 1.43 51 1.43l-.24-.57L27 91.33s-.78 0-.9-.22-.09-.3-.16-1.8c-.1-2 .76-76 .76-76s0-1.38 1.69-1.38l41.1.07 1-1.09-42.79-.19a2.79 2.79 0 0 0-1.71.38c-.52.48-.43 2-.43 2.4s-.48 74.52-.5 77.75l-4.21-.13s-1.52-.24-1.71 1a15.89 15.89 0 0 0 .1 3.38s0 1 3.43.76h2.18a2.24 2.24 0 0 1 .16 1c0 1.07-.19 42.48-.19 42.48a1.69 1.69 0 0 0 1.86 1.14c1.57 0 1.86-.38 1.86-.38a3.7 3.7 0 0 0 1-1.24C29.8 138.64 30 97 30 97a.67.67 0 0 1 .41-.68h1.66a1.06 1.06 0 0 1 .69 1c.07 1 .71 36.16.71 36.16a2.48 2.48 0 0 0 1.5.75 4.11 4.11 0 0 0 1.89-.21 6.44 6.44 0 0 0 1.29-1.68c.2-.61-.9-32.31-1-35.93 14.73.27 35.33.76 35.33.76l.14-1-51.45-.81s-1.17.1-1.32-1.45zM36 96.51a1.38 1.38 0 0 1 .45.79c.11.79.89 34.41.89 34.41a1.54 1.54 0 0 1-.43 1c-.43.43-.57.46-.57.46s-.39.11-.36-2.32v-2.43c0-.59-.6-29.6-.64-31.49.1-.1.17-.43.66-.42zm-1.75 0c.34 0 .3.21.36.5l.64 35.09s0 1.07-.61 1.11-.39-2.07-.39-2.07l-.49-34.3a.55.55 0 0 1 .52-.33zM28.07 98a1.7 1.7 0 0 1 .44-1.29s.62 0 .62 1.09-.33 40.31-.33 40.31.19 1.19-.33 1.19-.67-.29-.62-2a30.1 30.1 0 0 0-.1-3.24c-.01-2.38.32-34.61.32-36.06zm-2.13-.43c.08-.75.45-1.36.77-1.29s.43.5.43.5l-.07 37.66-.07 4.44s0 .71-.48.76-.76-.48-.81-2.71.23-39.31.23-39.31z"/><path d="M31.1 20.3v-2.36s0-1.19 2.12-1.19h32.39l-.43.69h-32s-1 0-1.17.62c-.1.31-.24 21.87-.24 21.87l-.5 44.55A1.88 1.88 0 0 0 32 86c.67.45 4.55.38 4.55.38l35.74 1v.83l-40.66-1.09a1.25 1.25 0 0 1-1-.64c-.43-.67-.19-2.78-.19-2.78z"/><path d="M35.41 19.73a1.08 1.08 0 0 0-1-.61 1.22 1.22 0 0 0-.7.17l-.1.09a1 1 0 0 0-.25.54 1.11 1.11 0 0 0 .19.93 1.08 1.08 0 0 0 1.24.33 1.19 1.19 0 0 0 .62-1.45zm-.8.93a.63.63 0 0 1-.69-1l.12-.07a.79.79 0 0 1 .47 0 .67.67 0 0 1 .46.55.61.61 0 0 1-.35.51zM34.92 83.27a.84.84 0 0 0-.78-.47 1 1 0 0 0-.54.13l-.08.07a.77.77 0 0 0-.19.42.86.86 0 0 0 .15.72.84.84 0 0 0 1 .26.93.93 0 0 0 .44-1.13zm-.62.72a.49.49 0 0 1-.54-.8l.09-.06a.61.61 0 0 1 .36 0 .52.52 0 0 1 .36.43.47.47 0 0 1-.26.44z"/></g><path d="M50.4 44.22a15.32 15.32 0 0 1-1.4-4.35c-.07-1.5.88-4.14.76-6.64S46.91 30 46.74 30a2.18 2.18 0 0 0-.26-.52.65.65 0 0 0-.43-.31l-.24-4.69a1.1 1.1 0 0 0-.86-1c-.76-.12-4.21 0-4.21 0s-.69.17-.67 1.4 0 2.33 0 2.33l.05 2.19a.64.64 0 0 0-.33.38.94.94 0 0 0 .07.62 5.59 5.59 0 0 0-1.45.69 3.73 3.73 0 0 0-1.38 2.43 6.11 6.11 0 0 0 .33 2.83 17.45 17.45 0 0 1 1 3.9 45.52 45.52 0 0 1-.4 5c-.12 1.19-.12 4.16 1.29 5.57s6.85.93 7.81.48 3.09-.93 3.76-2.5-.3-4.34-.42-4.58zm-9.57-17.9v-1.24s0-.43 1.07-.45 1.14.07 1.14.07h1.31s.33 0 .4.45.19 3.45.19 3.45.12.33-.4.52a21 21 0 0 1-3.31.12s-.24 0-.33-.83a15.84 15.84 0 0 1-.1-1.64c.06-.12.05-.44.04-.44zm-.4 5.19a3.08 3.08 0 0 0 1.36.07c.45-.17-.07-.59-.59-.76s-.55-.55-.36-.76.93.36 2.57.24 2-.48 2-.48.45 0 .33.33a1.47 1.47 0 0 1-.86.74c-.33.1-.43.24-.43.33a1.31 1.31 0 0 0 1.24.24 1 1 0 0 0 .86-.59l1.45.55a5.58 5.58 0 0 1-3.47 1.36 15.87 15.87 0 0 1-5.78-.43 1.68 1.68 0 0 1 1.68-.83zM49 49.36c-.81 1-3.47 1.69-5.83 1.62a4.06 4.06 0 0 1-4.26-3.33c-.43-2 .48-5.19.55-6.81s-1.19-3.57-1.52-4.78a4.73 4.73 0 0 1 .24-2.62 23.52 23.52 0 0 0 5.4.67 10.26 10.26 0 0 0 5.07-1.59 17.29 17.29 0 0 1-.1 2.67c-.17 1.71-.74 2.17-.57 4.47s1.74 4.71 1.88 5.9a5.44 5.44 0 0 1-.86 3.8z" fill="#e2ddd3"/><path d="M61.88 39.59c1.28-.07 2 .86 3 1.4 1.29.68 1.37.72.72 2-.34.66-.79 1.27-1.19 1.9-.27.41-.31.83.16 1.09a2.27 2.27 0 0 1 1 3c-1.08 3.64-.59 3 1.93 4.76a70.68 70.68 0 0 0 6.54 3.63 3.84 3.84 0 0 1 1.6 1.42 1.54 1.54 0 0 1 .18 1.3c-.36.76-.41 1.47-1.65 1.88a2.84 2.84 0 0 1-1.35-.09 41.88 41.88 0 0 1-8.13-4.23c-1.74-1.12-3-.94-4.27.93-1 1.48-1.81 1.72-3.32.74-.63-.41-.9-.22-1.19.35-.45.9-.91 1.79-1.42 2.66-.79 1.33-1.08 1.38-2.38.55-.84-.54-2.22-1.3-2.42-1.53a.69.69 0 0 1-.12-.83c1.72-3.42 3.4-6.11 5.32-9.43q3.14-5.43 6.19-10.92a1.29 1.29 0 0 1 .8-.58zM73.72 61c.82 0 1-.59 1.06-1.11s-.39-1-.78-1.25a20.39 20.39 0 0 0-3.64-2.05 31.81 31.81 0 0 1-5.78-3.7 1.1 1.1 0 0 1-.39-1.19 16.19 16.19 0 0 0 .51-3.7 1.24 1.24 0 0 0-.92-1.19c-.59-.25-.81.4-1 .71-1.9 3.29-3.3 6-5.19 9.31-.4.69-.54 1.62.25 2a1.41 1.41 0 0 0 1.58-.44c.54-.69 1.1-1.36 1.68-2a2 2 0 0 1 2.41-.49c2.63 1.41 5.24 2.85 7.86 4.28a5.28 5.28 0 0 0 2.35.82zm-22 .31c.15 0 .27-.32.36-.48.21-.36.38-.75.59-1.12 2.91-5.06 5.84-10.11 8.72-15.19.56-1 1.14-2 1.77-2.91a.71.71 0 0 0-.27-1.09c-.47-.28-.79-.05-1.05.32-.13.19-.2.29-.32.48-2.31 3.84-4.28 7.71-6.59 11.55-1.4 2.32-2.53 4.74-4 7.25-.13.21-.36.45-.09.69a1.9 1.9 0 0 0 .89.45zm1.38 1c.34-.11.44-.44.62-.7 2.19-3.19 4-6.6 5.86-10 1.7-3.09 3.39-6.2 5.08-9.3.13-.25.39-.53 0-.74s-.56.07-.73.33a31.37 31.37 0 0 0-1.69 2.79c-2.42 4.77-5 9.39-7.75 14-.58 1-1.15 2-1.76 2.92-.1.16-.24.33-.09.53a.47.47 0 0 0 .47.13z" fill="#e2ddd3" opacity=".9"/><path d="M85.08 47.79c.07.29.14 2.21-.79 2.5A28.85 28.85 0 0 0 80 51.36a12.83 12.83 0 0 0-5.43 3.93c-1.86 2.5-3.64 5.71-4.64 6.5s-2.36 1.07-2.86 1.93-1.29 2.71-1.07 3c.29-.14-1-.24-1.4.17s-1.52-.31-1.52-.31a9 9 0 0 0-1.78-.79 16.65 16.65 0 0 1-2.57-.29c-.57-.21-1.93-1.57-3.43-1s-1.07 1.43-1.07 1.43L52 65.71l-.36 1.71a22.78 22.78 0 0 1-1.29 4.71c-.64 1.07-2.07.71-2.07 1.29a1.27 1.27 0 0 0 1.14 1.5 3.33 3.33 0 0 1 .43 1.29c.07.71-1 2.36.21 3.5s3.14 1.07 3.36 1.21 3.86 2.14 3.86 2.14 2.14-.07 3-.21 1.93 1.21 4.43 1.86 6.71 0 7.21-.71.5.43.5.43.43 10 .36 11.07-.93 6.78-.64 7.78 4.78.71 5.07.71 9.21.29 11.35 1.14 9.64.29 11.49.14 9.71-1.5 11.92-1.5a37.2 37.2 0 0 0 4.64-.36s1.14-1.07 1.21-1.64a7.07 7.07 0 0 0-.36-1.93s2.36 1.86 4.78.71S126 96 126 96l1.57-1.57s1.07-3.21 1.43-4.43.79-3.28.86-3.5 1-6.43-.43-10.21-7.28-11-7.28-11-5.21-8.28-8-9.78a42.89 42.89 0 0 0-6.08-2.51l-4.78-3.57-.65-1.43-.43-3.36s-4.43 2.64-8.35 2.86-8.71-.07-8.71-.07z" fill="#f7f5f2"/><ellipse cx="103.5" cy="76.33" rx="3.33" ry="3.09" transform="rotate(-53.09 103.494 76.327)" fill="#fd8204"/><ellipse cx="115.02" cy="77.09" rx="3.33" ry="3.09" transform="rotate(-53.09 115.007 77.089)" fill="#fd8204"/><ellipse cx="113.99" cy="63.67" rx="3.58" ry="3.21" transform="rotate(-53.09 113.982 63.67)" fill="#fd8204"/><ellipse cx="127.86" cy="79.79" rx="2.87" ry="2.28" transform="rotate(-53.09 127.852 79.791)" fill="#fd8204"/><ellipse cx="120.43" cy="89.35" rx="3.58" ry="2.82" transform="rotate(-53.09 120.426 89.35)" fill="#fd8204"/><ellipse cx="76.4" cy="68.17" rx="2.82" ry="3.58" transform="rotate(-51.99 76.392 68.168)" fill="#fd8204"/><ellipse cx="77.11" cy="55.53" rx="3.01" ry="2.36" transform="rotate(-37.27 77.102 55.526)" fill="#fd8204"/><ellipse cx="85.4" cy="90.69" rx="2.82" ry="3.58" transform="rotate(-51.99 85.392 90.68)" fill="#fd8204"/><ellipse cx="57.16" cy="80.29" rx="2.62" ry="3.33" transform="rotate(-51.99 57.146 80.283)" fill="#fd8204"/><ellipse cx="74.67" cy="88.92" rx="2.84" ry="2.23" transform="rotate(-57.11 74.663 88.922)" fill="#fd8204"/><path d="M69.24 79.82c-1.56-1.22-2-3.2-1.09-4.43s4.56-2 4.56 0c0 1.61.4 5 0 5.18a3.77 3.77 0 0 1-3.47-.75z" fill="#fd8204"/><path d="M110.71 88.55a16.75 16.75 0 0 0-2.78.64 25.59 25.59 0 0 1-5.21 1c-.93 0-1.78.07-1.86.64s.5 1.43 2.57 2.07 3.21.71 3.14 1.71-2.36 2.07-2.64 2.07-3.28.57-4.28.57-2.28.14-2.36 1 1.07 1.86 2.93 2.14a60.58 60.58 0 0 0 7.92-.21 8.8 8.8 0 0 0 2.35-1.18c.86-.71 3.07-2.86 3.07-2.86a15.35 15.35 0 0 0-.07-3.07c-.21-1.38-1.28-4.02-2.78-4.52z" fill="#f9e5cc"/><path d="M94.43 78.77l3.5 18.06 5.21.21c2.14-.79 3.28-1.64 3.43-2.43s-.29-.71-1.07-1.07-4.57-1.71-4.57-1.71-.57-1.5.5-1.57 5.21-.43 6.5-1.07a27.33 27.33 0 0 1 2.86-1.29c.29-.07-.21-1.21-.21-1.21a1.94 1.94 0 0 1 1.5-1.71 4.55 4.55 0 0 0 3.21-2.78c.36-1.29-1.07-2.93-1.07-2.93l-2.86-3.86-4.93.57-11.36 1.36s-.64.22-.64 1.43z" fill="#e16702"/><path d="M42.48 58.83l-2-22s.29-.62.57-.67 3.57 17.73 3.57 17.73l2.5 21.2s.21.57-.71 1.14a1.14 1.14 0 0 1-1.5-.07z" fill="#d2a274"/><path data-name="Левая рука" d="M51.31 66.85a2.63 2.63 0 0 0-.31-1.57 10.14 10.14 0 0 1-.93-1.71 17.07 17.07 0 0 0-1.43-3.14c-.57-.71-2-3.07-2-3.07S45.88 53 45.6 53a6.85 6.85 0 0 1-1.07-.21l.64 5.57s.21 1.43-.43 1.64-1.78-.5-1.78-.5-1.71-1.29-2-1.07-1 .62-1 .86a12.35 12.35 0 0 0 .36 1.43s-.93-.29-1.07.21-.71 1.43-.36 2.07-.14.79-.21 1.29a2.46 2.46 0 0 0 .32 1.77 6.41 6.41 0 0 0 .67.88s-.86-.24-.62.48 4.24 3.5 4.24 3.5.86-2.83 1.93-2.5c.63.2 1.26 3.66 2 3.62 0 0 .4 1 1.12 1a2.48 2.48 0 0 0 2.28-1.93c.38-1.33.69-4.26.69-4.26z" fill="#f9e5cc"/><path d="M106.88 54.81a3.1 3.1 0 1 1-4.37-4.37 3.58 3.58 0 0 1 .73-.56c1.14 1.1 4.09 2.38 4.6 3.15a3.5 3.5 0 0 1-.96 1.78z" fill="#fd8204"/><g fill="#692f23"><ellipse cx="90.22" cy="48.89" rx=".5" ry=".39"/><ellipse cx="93.24" cy="50.42" rx=".38" ry=".35"/><ellipse cx="87.36" cy="49.68" rx=".38" ry=".35"/><ellipse cx="89.27" cy="52.49" rx=".38" ry=".35"/><ellipse cx="91.88" cy="54.72" rx=".38" ry=".35"/><ellipse cx="87.86" cy="56.87" rx=".38" ry=".35"/><ellipse cx="86.2" cy="53.42" rx=".38" ry=".35"/><ellipse cx="84.39" cy="59.15" rx=".38" ry=".35"/><ellipse cx="86.7" cy="62.55" rx=".38" ry=".35"/><ellipse cx="85.86" cy="66.72" rx=".38" ry=".35"/><ellipse cx="89.22" cy="65.74" rx=".38" ry=".35"/><ellipse cx="83.41" cy="64.62" rx=".38" ry=".35"/><ellipse cx="96.21" cy="48.25" rx=".38" ry=".35"/><ellipse cx="99.16" cy="49.44" rx=".4" ry=".37"/><ellipse cx="101.12" cy="46.78" rx=".4" ry=".37"/><ellipse cx="74" cy="97.13" rx=".49" ry=".44"/><ellipse cx="78.02" cy="101.59" rx=".49" ry=".55"/><ellipse cx="84.14" cy="98.19" rx=".49" ry=".55" transform="rotate(-87.85 84.135 98.188)"/><ellipse cx="89.63" cy="102.64" rx=".49" ry=".55" transform="rotate(-87.7 89.88 102.584)"/><ellipse cx="95.71" cy="99.38" rx=".5" ry=".46" transform="rotate(-87.85 95.703 99.383)"/><ellipse cx="101.01" cy="102.86" rx=".5" ry=".46" transform="rotate(-87.85 101.014 102.856)"/><ellipse cx="110.91" cy="101.72" rx=".5" ry=".46" transform="rotate(-87.85 110.912 101.712)"/></g><path d="M130.87 81.7a35.61 35.61 0 0 0-2.11-8.35 39.68 39.68 0 0 0-2.82-3.86c-.54-.68-4.75-6.57-6-8.64a16.79 16.79 0 0 0-4.82-5.18 7.14 7.14 0 0 0-2.73-1 3.36 3.36 0 0 0-.65-.44c-.33-.17-3-1.12-3.83-1.57s-2-1.31-2.62-1.67-1-.81-1-1.12.71-.38.71-.38 5.28-1.33 8.35-3.45 7.52-5.64 9.42-9.33.93-7.88.9-8.33-.26-2.47-.26-3.21a21.31 21.31 0 0 0-1.45-6.83c-1.21-2.55-3.5-5.26-8-8.83s-6.19-4.57-10.23-6.26-8-2.78-9.3-2.67a2.81 2.81 0 0 0-2 .7A4 4 0 0 0 90.05.5a31.49 31.49 0 0 0-3.45.5c-.74.17-3 .26-4.52.55a20 20 0 0 0-4.76 1.93A15.13 15.13 0 0 0 74 6.39a19.13 19.13 0 0 0-1.3 1.9 19.48 19.48 0 0 1-2.42 2.58c-.1.13-1.45 1.3-2.38 2.23a16.11 16.11 0 0 0-2 2.81l-.22.35a11.94 11.94 0 0 0-.84 2.26 24.82 24.82 0 0 0-1.07 4.95 6.29 6.29 0 0 1-.19 1.08 12.35 12.35 0 0 0-.49 3.45 17.42 17.42 0 0 0 .58 5.19 12.64 12.64 0 0 0 2.49 4.64c.27.33.46.41.52.51A30.47 30.47 0 0 0 69 41.83a28.38 28.38 0 0 0 4 3.9A52.73 52.73 0 0 0 78.45 49a15.18 15.18 0 0 0 3 .74c.54.14.94.21.89.39a.5.5 0 0 1-.26.27 14.08 14.08 0 0 0-2 .46 2.83 2.83 0 0 0-.46.13 11.71 11.71 0 0 0-4.11 2.49 33.42 33.42 0 0 0-3.4 4.66c-.33.71-2.31 3.43-3.62 4.07A6 6 0 0 0 66 64.37c-.38.69-.07 1.78-.36 2a1.08 1.08 0 0 1-.78 0 .37.37 0 0 0-.17 0c-.41 0-.66.57-.66.57a1.63 1.63 0 0 0-1.46-.71.88.88 0 0 0-.37-.5 5.64 5.64 0 0 0-1.9-.45c-1.26-.12-1.48 0-2.21-.4a3.41 3.41 0 0 0-2.47-.88c-1.29.12-1.52.43-1.9 1.07v.59l-1-.59a.57.57 0 0 0-.74.12 1 1 0 0 1-1.12-.76 18.77 18.77 0 0 0-1-3A15.37 15.37 0 0 0 48 58.8a11.12 11.12 0 0 1-1.44-3 16 16 0 0 1-.44-2.62.88.88 0 0 0-1.29-.48l-2.68-14.44s-.51-2.71-1-3-1 .11-1 .75.33 6.54.33 6.54l.62 5.85s.52 5.56.56 5.54.56 4.47.56 4.47a.19.19 0 0 1-.28.13 1.28 1.28 0 0 0-1.24-.11 1.78 1.78 0 0 0-.84 1.57 1.71 1.71 0 0 0 .14.58h-.08c-.67.06-.82.92-.82.92a2.15 2.15 0 0 0-.33 1.14 4.53 4.53 0 0 0 .23 1.12 2.12 2.12 0 0 0-.56 1.83c.1.55.92 1.29.87 1.37a1.55 1.55 0 0 0-.3.45 1.2 1.2 0 0 0 .2.82c.12.08.77.89 1.2 1.37a18.53 18.53 0 0 0 2.12 1.59l1.21.68s.37 2.74.59 3.63a2.5 2.5 0 0 0 1 1.67 1 1 0 0 0 .76-.08l1.21-.83s.33-.26.24-1.24-.26-.88-.43-2.31a1 1 0 0 1 .74.24l.4.43a.84.84 0 0 0-.33.86c.14.52 1 1 1.71 1.19a10.62 10.62 0 0 0-.52 2.47c0 .81-.29 2 1.29 3a2.87 2.87 0 0 0 1.33.33 7.26 7.26 0 0 1 2.36.4c.4.21 1.78 1 2.28 1.24a7 7 0 0 0 2.07.76 7.78 7.78 0 0 0 1.7-.13c.39.21 2.62 1.18 3.27 1.48a15.26 15.26 0 0 0 5.59.48 4 4 0 0 0 1.89-.73.85.85 0 0 1 1.07.09c.29.36.14 1.2.14 1.2s.07 7.56.12 7.85a14.88 14.88 0 0 1 0 3.12c-.17 1.24-.07 2.86-.36 4.35s-.45 1.93.12 2.45a3.68 3.68 0 0 0 .76.56c0 .64-.64 9.05-.64 9.72s-.26 6.14 0 7.38a15.33 15.33 0 0 0 1.29 3.55 22.7 22.7 0 0 1 .12 2.54v.09l-.07 3.13a5.86 5.86 0 0 0 .14 1.62c.21 1 .38 2 .45 2.21 0 .59-.83.63-1.39.58h-.21l-.32-.05h.13a14.17 14.17 0 0 1-2.43-.61c-1.71-.57-5.83-.79-7.95.38A6.3 6.3 0 0 0 59 139c-.07.48-.29 4 1.5 5.26s3.66 1.67 6.21 2a18.63 18.63 0 0 0 5.66-.21 32.84 32.84 0 0 1 6.16-.83 54.15 54.15 0 0 0 5.95-.57c.5-.12 1.52-.43 2-2.9a7.11 7.11 0 0 0-1.07-4.9c-.29-.59-.4-.83-.1-1.45a15.12 15.12 0 0 0 .62-1.52c.19-.29 1.14-3.47 1.21-3.55s.05-1 .14-1.34c.14-.07.2-.15.2-.23a5.25 5.25 0 0 0 .81-.69 17.7 17.7 0 0 0 1.71-3.78c.17-.83.71-4 1.33-6.14s.9-2.09 1.09-2.09.69 1 1.24 2.93 1.11 4.85 3 7a32.84 32.84 0 0 0 .43 4.84 36.73 36.73 0 0 0 1.12 4.83c.38.9.14 1.09.14 1.09L97.5 138a9.19 9.19 0 0 0-1 3c-1.14 1-1.24 3-1.17 4.62s1.14 2.33 1.86 3 2.38.76 3.83.81a42.11 42.11 0 0 0 5.76-.52 35.54 35.54 0 0 1 3.76-.29 14 14 0 0 0 3.64-.64c.52-.26 1.4-1.4 1.69-3.4a5.74 5.74 0 0 0-1-4.31c-.55-.57-1.21-.71-2-1.45s-2.29-2.2-2.33-2.24a.4.4 0 0 0 0-.12c-.17-.43 0-.67.33-1.71s.54-8.19.57-8.91a2.87 2.87 0 0 0 .86-.7 8.63 8.63 0 0 0 1.76-5.9 36.28 36.28 0 0 0-.71-6.4 3.48 3.48 0 0 1 .52-1.4c.4-.52.45-4.9.52-5.26 0 0 .31-2.07.64-2.21s2.09-.38 2.28-.45A1.68 1.68 0 0 0 118 102v-1.25a4.31 4.31 0 0 0 3 .59.12.12 0 0 0 .13 0 4.64 4.64 0 0 0 3.28-1.71c.64-.79.93-2.32 2.36-3.75a10.53 10.53 0 0 0 2.14-3.39 4.47 4.47 0 0 0 .14-1.36 6.18 6.18 0 0 1 .71-2.46 23.86 23.86 0 0 0 1.11-6.97zm-27.52-33s-.31-3-.24-3.5 1-1.31 1-1.31c.49-.38 1-.75 1.4-1.07a14.23 14.23 0 0 0 3-3.33c.21-.31.48-.77.76-1.24v.48a11.15 11.15 0 0 1-1.62 6.73 8.17 8.17 0 0 1-4.3 3.23zm-4.17-2c.67-.23 1.33-.49 1.91-.76l.36-.18c.56 0 .49.41.49.41l.16 2.4zm2.37 2.71a4 4 0 0 1-.77.61 13.31 13.31 0 0 1-3.28 1.18 22.41 22.41 0 0 1 .88-3.77zm-1.32-4.14c-4.33 2-10.49 2-10.49 2a25 25 0 0 1-4.57-.33 18.89 18.89 0 0 1-6.54-3.22 26.22 26.22 0 0 1-5.38-6A19.84 19.84 0 0 1 71 32.57a28 28 0 0 1-.77-6.2c0-.56.11-3.27.11-3.27a.43.43 0 0 1 .43-.38l2.52-.11a7.77 7.77 0 0 0 2.13-.51 22 22 0 0 1 2.39-.67c.94-.2.93-.33.93-.33a4 4 0 0 1-.37-2.37 3.54 3.54 0 0 1 .9-1.94 4.89 4.89 0 0 0 .4-.81s.3 1 .54 1.76 1 2.17 1.19 2.64a5.62 5.62 0 0 1 .18 1.53 6.7 6.7 0 0 0 3.13-.54 20.91 20.91 0 0 1 4.09-.48 25.28 25.28 0 0 1 2.62 0 17.13 17.13 0 0 1 2.18.4 19.55 19.55 0 0 0 3.56 1 4.27 4.27 0 0 0 3.24-.69 19.72 19.72 0 0 0 1.32 2.65 24.18 24.18 0 0 0 3.44 3.81 19.94 19.94 0 0 0 1.59 1.25l.17.13a8.74 8.74 0 0 0 1.34.74c.19-.79 1.14-.94 1.38-1s3.08-.56 3 1.68a6.4 6.4 0 0 1-2.25 4.3 1 1 0 0 1-1 .31 11.48 11.48 0 0 1-1.76 3.78 19.22 19.22 0 0 1-7.39 5.98zm-10.37 22.2c-.41-.3-1.51-1.09-2.69-2 1.38-.38 2.66-.69 3-.78a7.74 7.74 0 0 0-.11 1.12c.01 1.12.03 1.5-.2 1.66zm-2.6-19l2.57 2.73a11.35 11.35 0 0 1-3.89-1.25zm-1.81.53a4.44 4.44 0 0 1 0-1 .27.27 0 0 1 .24-.19l.65.13zm-.66 7.21c.29-.18 2-.85 3.84-1.53 1.28 1.55 2.63 3.18 2.69 3.21s-2.29.87-3.95 1.56c-1.32-1.69-2.58-3.26-2.58-3.26zm4.87 7.75a28.67 28.67 0 0 0-3.11 1 18.08 18.08 0 0 1-2.91-2.85s1.5-.82 3.32-1.71zm-2.78-12.58h.06c.35.09.77.17 1.27.25 1.53.24 3.85.47 4.74.55-.79.25-2.44.91-4 1.57zm1.46-3.17h3.25l-1.13 2.17s-1.46-1.54-2.12-2.17zm-2 3.69l1.79 2.1c-1.67.7-3.09 1.31-3.09 1.31l-.42.15a20.63 20.63 0 0 1 1.74-3.56zm.18 7.9l-.47.22c-1.06.51-2.36 1.13-2.92 1.48.31-1.64.72-3.53 1.07-4.77zm-.85 5.44l-2.62.94a2.57 2.57 0 0 1-.38-1.51 12.83 12.83 0 0 1 .25-2c.41.33 1.57 1.47 2.76 2.57zm.51.47c.94.86 1.84 1.64 2.32 2a10.08 10.08 0 0 1-4.42-.71 4.74 4.74 0 0 1-.57-.37 20.88 20.88 0 0 1 2.68-.92zM87.8 60a31.23 31.23 0 0 1 3.86-1.58c-.39 1.51-.91 3.41-1.25 5-.1-.26-1.33-1.83-2.61-3.42zm1.68-5.63c1.88-.7 3.67-1.34 4-1.45a2.09 2.09 0 0 1 .57-.13l-.09.13a15.84 15.84 0 0 0-2 4.29zm4.38-2.75a26.17 26.17 0 0 1-2.86-.28 3.14 3.14 0 0 0 .59-1.15 6.61 6.61 0 0 1 1-1.88A19.56 19.56 0 0 1 95 49.9c.23.2 1.19 1.2 1.46 1.48a13 13 0 0 1-2.6.21zm.06-3.67c.68-.11 1.33-.24 2-.36.48-.09 1-.21 1.5-.35L96.79 50s-2.06-1.61-2.87-2.08zM112 27c.18.31 2 2.47 2.23 3.83a13.93 13.93 0 0 1 0 5.88c-.55 3.09-4 5.81-4 5.81s-.12-2.81 0-4.35a5.55 5.55 0 0 1 .56-2.17 7.17 7.17 0 0 1 .75-.76 9.12 9.12 0 0 0 1.68-2.89 3.87 3.87 0 0 0-.08-2.42 3 3 0 0 0-1.89-1.37c-1.17-.24-2.63.38-3.36.37a1.46 1.46 0 0 1-1.19-.56c-.75-.74-2.9-2.13-3-2.87 0 0-.17-.51.43-.52s3.59.24 3.59.24a10.83 10.83 0 0 1 2.84.36A6.28 6.28 0 0 1 112 27zm-.88-13.54s2.49 3.43 2.8 3.83a29.77 29.77 0 0 1 2.38 4.37 47.89 47.89 0 0 1 1.58 4.76 28 28 0 0 1 .51 3.58s-.73-.86-1.19-1.31a14.64 14.64 0 0 1-2.89-2.44 12.64 12.64 0 0 1-1.73-2.82 10 10 0 0 1-.62-2.77c-.06-.59-.14-1.62-.18-3a20 20 0 0 0-.44-3.18 8.48 8.48 0 0 0-.24-1.06zm8.41 23a8.27 8.27 0 0 1-1.08 3.47 8.12 8.12 0 0 1-1.45 2.12l-1.22 1.14a21.76 21.76 0 0 1-7.92 4.09s-.61.14-.83.17c.42-.41 3.17-3.41 4.52-4.9a20.38 20.38 0 0 0 3.55-5.26 12 12 0 0 0 .21-6.43 12.33 12.33 0 0 0-2-3.86 16.59 16.59 0 0 1-1.19-2.37 7.23 7.23 0 0 1-.27-1.39 8.3 8.3 0 0 0 1.73 3.19 13 13 0 0 1 2.81 3.5 13.17 13.17 0 0 1 .65 4.65 22.63 22.63 0 0 1-.17 2.36c0 .23.67-.33.68-2.51a22.46 22.46 0 0 0-.21-4 8 8 0 0 1 1.58 2.51 8.52 8.52 0 0 1 .59 3.46zm3.66-6.58v.22a12.78 12.78 0 0 1-.31 4.4 11.66 11.66 0 0 1-2.57 4.47l-.29.29a11.54 11.54 0 0 0 .1-5.31 29.73 29.73 0 0 1-1.12-4.74 36.42 36.42 0 0 0-.76-5.2 14.79 14.79 0 0 0-.79-2.14s-.51-1 .51-.62 2.55 2.5 3.31 3.59a11.28 11.28 0 0 1 1.64 3.84c.09.49.21.86.26 1.14zm-9.11-19.23c.9.76 4.76 3.9 6.62 7.35a17.17 17.17 0 0 1 2 7.16 13.18 13.18 0 0 0-1.7-2.36 20.45 20.45 0 0 0-3.8-2.9 20.25 20.25 0 0 1-2.7-3.15c-.89-1.32-2-3.19-2.32-3.59s-.75-1.14-1-1.51A29.94 29.94 0 0 0 109 7.16s4.16 2.67 5.06 3.43zm-8.78-5.87c2.93 1.59 3.74 4 4.64 7.26 0 0 .63 2.65.77 3.82s.17 2.21.19 2.64.11 2.67.14 3.3a1.07 1.07 0 0 0 0 .23v.53a1.41 1.41 0 0 1-.28 1.12c-.42.38-2.32.4-2.32.4h-4.47a2.43 2.43 0 0 1-1.81-1.21 2.51 2.51 0 0 1-.44-2.06 12.69 12.69 0 0 1 .74-1.88 8.79 8.79 0 0 0 .65-2.82.3.3 0 0 0 0-.12 19.58 19.58 0 0 0 .23-4.58c-.24-2.14-2.17-7.21-3.57-8.23a12.48 12.48 0 0 1 5.53 1.6zm-18-3A8 8 0 0 0 85.12 5a10 10 0 0 0-.55 2.62A15.35 15.35 0 0 1 87.22 3 3.68 3.68 0 0 1 90 1.31c.71-.1 1 0 2.38 1.17s1.83 4 1.83 4a6.13 6.13 0 0 0-1-4.32c0-.14 0-.44.73-.63a4.38 4.38 0 0 1 3.64.69 13.23 13.23 0 0 1 4.38 7.23c1.24 4.5.52 6.79.52 6.79a18.66 18.66 0 0 1-.84 3.19 3.9 3.9 0 0 1-3 2.17 5.31 5.31 0 0 1-2.64-.42 2.63 2.63 0 0 0 .65-.26 6 6 0 0 0 3.07-3.24 7.14 7.14 0 0 0 .29-4.21A10.12 10.12 0 0 1 98.62 18 4.83 4.83 0 0 1 96 20.42a3 3 0 0 1-1.31.35 18.78 18.78 0 0 0-2.28-.61A6.63 6.63 0 0 0 94 18.5a5.13 5.13 0 0 0 .4-2.19c0 .31-.23.58-.7 1.53s-2 1.55-3.26 1.89a45.86 45.86 0 0 1-4.58.59c-.86.14-3.59.8-3.59.8a5.3 5.3 0 0 0-.46-1.37c-.19-.43-.46-1.12-.61-1.55s-1.42-4.14-1.42-4.14A11 11 0 0 1 80.41 7a8.69 8.69 0 0 1 4.16-4.28 5.29 5.29 0 0 1 2.74-.91zM72.54 10c.42-.79 1-1.5 1.32-2s1.47-2 1.47-2a10.31 10.31 0 0 1 5.18-3.25 9.94 9.94 0 0 0-3.24 2.86 3.34 3.34 0 0 0-.59 2.12 21 21 0 0 1 1.71-2.55 12.18 12.18 0 0 1 4.24-2.76 4 4 0 0 1 1.86-.31 8.29 8.29 0 0 0-3.93 3A8.87 8.87 0 0 0 78.84 10c0 1.31.15 4.38.15 4.38a2.4 2.4 0 0 1-.52 1.37 5.23 5.23 0 0 0-.93 2 9.13 9.13 0 0 0 0 2.64c.15.63-.33.49-.54.44a4.76 4.76 0 0 1-2.15-1.7 4.21 4.21 0 0 1-.27-3.21c.11-.42.37-.74.3-.76s-.38.1-.62.52a5.75 5.75 0 0 0-.26 2.91c.2 1 .76 1.14.82 1.87s-.3.86-.84 1.25a5.47 5.47 0 0 1-3 .37c-.87-.12-.76-.57-.76-.57v-2a16 16 0 0 1 .24-2.71c.26-1.45.49-2.33.67-3.11A23.67 23.67 0 0 1 72.54 10zm-2.18 2.6s.19-.11.24 0 0 .2-.23.76a32.4 32.4 0 0 0-.76 3.86c0 .48-.06 2.37-.06 2.37.07 1 .19 1.87.19 2.37a.83.83 0 0 1-.38.71 1.09 1.09 0 0 1-1.19-.56s-.27 0-.43-1.34a8.87 8.87 0 0 1 .42-3.39 26 26 0 0 1 1.2-3.14 5.26 5.26 0 0 1 1-1.64zM65 21.73c.12-.55.46-2.21.57-2.52a15.88 15.88 0 0 1 1.07-2.78l.09-.19c.24-.42 1.32-2 1.51-2.28s.65-.8.8-.75a.2.2 0 0 1 .14.15c-.08.14-1 1.9-1.22 2.36a11.47 11.47 0 0 0-.69 2.3 16.27 16.27 0 0 1-.3 2.32 3.09 3.09 0 0 1-.63 1.12c-.38.48-.87 1.18-1.15 1.62a3.15 3.15 0 0 0-.38.79 20.87 20.87 0 0 1 .19-2.14zm1.8 14.85s0 .3-.2.32-.65-.62-.65-.62a13 13 0 0 1-1.5-3.91c-.77-3.17-.44-4-.32-4.62a19.77 19.77 0 0 1 1-2.8c.23-.43 1.7-2.43 1.7-2.43a.38.38 0 0 1 .48-.13 2.73 2.73 0 0 0 .59.76c.29.19.45.27.46.52s-.46.86-.73 1.3a5.76 5.76 0 0 0-1 2.87c0 .37.07.17.2-.14a8.14 8.14 0 0 1 1.67-2.49 7.84 7.84 0 0 1 .84-1.12c0 .29-.16 2.32-.25 3a9.2 9.2 0 0 1-.89 2.86 11.8 11.8 0 0 0-1.2 3.57c-.08.7-.2 3.06-.2 3.06zm2 3.88a10.3 10.3 0 0 1-1.44-3.83s.09-2.34.19-2.94a11.09 11.09 0 0 1 1.31-3.2c.14-.26.32-1 .75-.44s.31 3.74.32 4.31a14 14 0 0 0 .57 3.53c.39 1 1.12 3 1.56 3.81a38.21 38.21 0 0 0 1.84 3.39 14 14 0 0 1-5.06-4.63zm11.07 7.9a13.25 13.25 0 0 1-5.21-3.75A24.88 24.88 0 0 1 72 39.55c-.9-2.53-.65-2.76-.56-2.8s.19 0 .43.42a21.16 21.16 0 0 0 3.87 5.41 18.05 18.05 0 0 0 7.72 4.68l.67.19c.57.32.49.64.52 1.21a.65.65 0 0 1-.52.73s-.98.21-4.23-1.03zM42 49.2l-.42-4.26-.53-4.94s-.25-2.34.08-2.45 1 4.85 1 4.82.81 4.52.81 4.52l1.16 6.32a.27.27 0 0 0 0 .13c0 .33.89 6.08.89 6.08a.54.54 0 0 1-.33.61c-.43.18-1.3-.64-1.43-.89l-.14-1-.63-5.14zm-1 10c.68-.13 1.56.62 2 .84s2.44 1.3 2.76 1.44 1.64.86 1.56 1.51a.71.71 0 0 1-.75.62c-1.52 0-1.93-.49-3.07-.88a8.76 8.76 0 0 1-2.5-1.65 1.39 1.39 0 0 0-.36-.32 2.31 2.31 0 0 1-.24-.57s-.09-.85.6-.98zM39.23 62l.12-.29a.72.72 0 0 1 1-.14A14.68 14.68 0 0 0 42.69 63c.75.32 1.61.46 3.09 1s1.61.82 1.76 1.24 0 .9-.65 1.15a5.16 5.16 0 0 1-2.23-.13 23.55 23.55 0 0 1-2.75-.75c-.36-.24-1.74-1.39-1.74-1.39a3.43 3.43 0 0 1-.73-1 2.88 2.88 0 0 1-.21-1.12zm3.8 8.1a3.4 3.4 0 0 1 .42-.14v.48a3.39 3.39 0 0 1-.45-.38zm.84-.89a.86.86 0 0 1-.55.43 5.32 5.32 0 0 1-1 .06 7 7 0 0 1-2.09-1c-.76-.5-.63-.84-.56-1s.24-.17.49 0 1 .44 1 .44a9.31 9.31 0 0 0 2.4.38.5.5 0 0 1 .31.65zm0-.92h-.14a8.48 8.48 0 0 1-2.47-.57 4.76 4.76 0 0 1-1.84-1.61c-.45-.68-.56-1.21-.29-1.44s.57.08.77.22a9.41 9.41 0 0 0 1.92 1.42 11.89 11.89 0 0 0 3.31.76c.45 0 .87-.19 1-.06a.39.39 0 0 1 .08.37.15.15 0 0 0-.06.07c-.07.2-.07.24-.93.61a2.87 2.87 0 0 1-1.32.19zm2.31 8c-.35.12-.76.25-1-.23a15.22 15.22 0 0 1-.52-2.28c0-.19-.32-2.55-.35-3s-.2-1.26.26-1.52a1.29 1.29 0 0 1 1 0 12.22 12.22 0 0 1 .53 2.6c.29 2.12.5 2.81.5 3.36a1.3 1.3 0 0 1-.39 1.02zm1.86-4.35a.73.73 0 0 0-.4 0c-.29 0-.69.07-.83-.52s-.14-2-.21-2.28-.12-.51-.18-.72a2.82 2.82 0 0 1 .35-.52c.15-.14.18-.63.18-.63 0-.17.11-.29.36-.45a1.54 1.54 0 0 0 .73-1.24 1.76 1.76 0 0 0-.73-1.2 1.17 1.17 0 0 0 .62-.92c0-.63-.46-1.24-1.27-1.94s-1-.59-1-1.44-.44-4.35-.44-4.35-.22-1.73-.35-1.98.12-.5.49-.42.49.37.57 1 .24 2.11.35 2.61a6.45 6.45 0 0 0 .86 2c.46.7 1.73 2 1.93 2.38a7.21 7.21 0 0 1 1 2.32 5.92 5.92 0 0 0 .13 1.3 3.41 3.41 0 0 1 .86 1.14 7.66 7.66 0 0 1 0 2.47 10.73 10.73 0 0 1-1.24 3.9s-.48.45-.86.38a1.83 1.83 0 0 1-.89-.94zm1.14 2.83c-.24 0-.76-.29-.74-.59s.33-.55.86-.67.59-.17.71-.36a9.23 9.23 0 0 0 1.55-3.17 24 24 0 0 0 .26-3.07.89.89 0 0 1 1.18-.85 2.72 2.72 0 0 0 .74.64 2.14 2.14 0 0 0 .81.19c.24 0 .74 1 .86 2.86a10.15 10.15 0 0 1-.7 4.25c-.24.45-.67 1.24-.67 1.24s-.4.86-1 .76a8.39 8.39 0 0 1-1.69-.64 1.93 1.93 0 0 0-.79-.31 12 12 0 0 0-1.35-.33zm2 5.26c-.62.12-1.24-.07-1.26-1.74s.24-1.93.31-2a.69.69 0 0 1 .85-.18s.17 0 .24.62.69 1.24.71 1.81-.25 1.33-.86 1.46zM60 82.34a3.15 3.15 0 0 1-2.17.31c-1.26-.26-1.74-.24-1.93-1.12a.58.58 0 0 1 .29-.64A1.73 1.73 0 0 0 57 79.7a8.34 8.34 0 0 1-2.19 1.07 3.34 3.34 0 0 1-1.64-.38c-.38-.12-.57 0-.86-.12s0-.76.24-1a7.68 7.68 0 0 0 1.14-1.59c.26-.5.93-2.31.93-2.31A8.15 8.15 0 0 0 56 71c.1-2.71-.07-3.83-.5-4.9 0 0-.1-.4-.31-.4s-.31.43-.59.4-.38-.31-.38-.59a1.71 1.71 0 0 1 2-.83c1.5.33 3 3.45 3.19 4.14a4.41 4.41 0 0 0-.07-1.69s-.67-1.19.5-1a8.28 8.28 0 0 1 1.54.35 1.79 1.79 0 0 1 .84 1.12 44.69 44.69 0 0 1 .34 5.53 33.91 33.91 0 0 1-.7 5.91 7.78 7.78 0 0 1-1.86 3.3zm12.58 19.78s.17-2.71.29-3.43.12-3 .12-3 0-.43.81-.33 4.3.64 4.3.64c-.66.29-5.52 6.12-5.52 6.12zm41.57-8.28a9.51 9.51 0 0 0-1.77-4.46s-.43-.52-.84-.95c0 0-.33-.26-.15-.48l.24-.11a3.11 3.11 0 0 1 2.68.18c3.68 2.11 3.07 3.43 4 5.57.13.31.26.67.39 1.06a.47.47 0 0 1-.43.37l-2.18.86-1.89.95s-.71.45-.36-.45a4.94 4.94 0 0 0 .31-2.55zm-1.73-3.23a10.73 10.73 0 0 1 .86 4.55c0 .71-2.84 3.5-3.64 3.86a5.48 5.48 0 0 1-2.82.54c-1.57 0-4.27.2-4.68.25s-3.07.3-4-.46a.9.9 0 0 1 .2-1.68c.5-.18 2.7-.11 4.3-.29s2.32-1 2.59-.89.3.37-.05.87-.52.5-.52.61.48.21 1.11-.34 1.7-2.2 1.55-3a1.6 1.6 0 0 0-1.25-1.63c-.86-.3-2.53-.57-3.16-.77s-1.78-.51-1.64-1.22a.5.5 0 0 1 .46-.43h.85a25 25 0 0 0 2.5-.14c1.16-.18 3.89-1.52 4.78-1.57s1.72-.14 2.56 1.73zm-8.85 10c1.46-.08 3-.21 3.75-.27-.28.43-1.31 2.45-1.61 3zm1.48 3.29s-2.5.26-3.28.4-5.09.81-5.09.81-1 .1-.74-.07 2.66-4.1 2.95-4.57a10.8 10.8 0 0 0 1.34.19 20.49 20.49 0 0 0 2.31 0zm5.24-16.52a.36.36 0 0 1-.27.26c-.36.12-.62.07-1.18.21s-1.68.89-2.3 1.12a15 15 0 0 1-3.73.7h-.27A3.84 3.84 0 0 0 101 90c-.54.29-.5 1.61-.41 1.84a5.85 5.85 0 0 0 2.7 1.3c1.64.48 2.68.82 2.81 1.09s-.1 1.03-1.1 1.53a10.11 10.11 0 0 1-4.37 1.05c-2.16.12-2.23-.09-2.48-.32s-1.32-6.62-1.32-6.62L95 78.79s-.26-1 .59-1.14c.37-.08.65-.13.86-.16l4.93-.54 8.71-.79c1.25-.11 1.64 1 2.57 2.07a8.85 8.85 0 0 1 1.69 4.77c-.11 1-1.78 1.43-3.18 2s-.89 2.41-.89 2.41zM96 90.07l1.29 6.55a.78.78 0 0 1 0 .62c-.16.3-.57.07-.95.09a13.16 13.16 0 0 0-1.46.41 5 5 0 0 1-.73.05v.5c-.23-1.37-1.14-6.71-1.52-8.84-.43-2.45-1.45-8.59-1.45-8.59s-.4-2.14.76-2.78 2.07.55 2.33 1.71S96 90.07 96 90.07zM92.65 97l.35 2s0 1 .76.79c.59-.13.53-.78.48-1a2.48 2.48 0 0 1 1.21-.48c.93-.16 1.27-.11 1.43.14s0 .82.39 1.3a2.16 2.16 0 0 0 .8.55c-.26.43-1.55 2.54-2 3.4s-.69.69-.69.69c-.43-.31-4.66-7.69-4.66-7.69a3.68 3.68 0 0 1 1.33 0 .88.88 0 0 1 .6.3zM91 98.86s1.78 3.5 2.71 4.81a9.39 9.39 0 0 0 1.43 1.55h-.74l-5.24-.64s-4.24-.36-4.71-.45h-.36a75 75 0 0 1 6.07-7zm-7.45 4.66c-.36-.26-3.38-6.15-4-7.3l9.87.42s-5.42 5.14-5.89 6.88zm-.82.37c-1.21-.11-2.67-.23-3.11-.3-.74-.12-6.14-.26-6.69-.19a3.43 3.43 0 0 1 1-1.71L78.77 97zm-10.08 31.9l1.93.75s.67.33 1.43.67l-2.14.07a6.06 6.06 0 0 0-1.25-1.51zm7.73-1.07a39.36 39.36 0 0 1-5.28.31 13 13 0 0 1-.49-2.72 11.51 11.51 0 0 0 7.26 2.11zm4.5-.5c-.1 1.36-1 2.64-3.28 3a9.83 9.83 0 0 1-4.9-.81 3.28 3.28 0 0 0-.61-.51 48.84 48.84 0 0 0 5.23-.35 6.74 6.74 0 0 0 3.54-1.33zm-10.52-3.93l-.14-2.43s1.76 3.28 8.66 3.31H83a12.85 12.85 0 0 1-4.59.45 8.46 8.46 0 0 1-4.07-1.33zm-8.13 4.54h.29a7.33 7.33 0 0 1 1.71 2.17c.31.57.29 1-.07 1.21a9 9 0 0 1-3.74 0c-.71-.26-.48-.69-.48-.69a5 5 0 0 1 1-1.45c.57-.55.84-1.07 1.27-1.24zm-5.45 2.38a2.8 2.8 0 0 0 1.77 1.37 3.52 3.52 0 0 0-.15.59 14.44 14.44 0 0 0-.16 2.34.44.44 0 0 1-.58.16 3.23 3.23 0 0 1-1.26-1.21 3.68 3.68 0 0 1-.34-1.25 6.19 6.19 0 0 1 .7-2zm.52 6.15a3.88 3.88 0 0 1-1.19-1.78 3.14 3.14 0 0 0 2.22 1.33 4.14 4.14 0 0 0 .33 1.26 5.21 5.21 0 0 1-1.38-.81zm.44-7.32l.15-.12a6.2 6.2 0 0 1 3-1 16 16 0 0 0-1.89 2.64 1.46 1.46 0 0 1-1.28-1.56zm1.7 5.59a7.06 7.06 0 0 1-.21-1.87.76.76 0 0 1 .64-.74s1.86.33 2.59.36c.47 0 1.45 0 2.25-.11a10.4 10.4 0 0 1 .3 2.44v.09a1 1 0 0 1-.88.51c-.88.05-4.07.17-4.71-.69zM69 145c-.12.26-.21.38-.76.4h-.08a20.74 20.74 0 0 1-3.88-.71 7.94 7.94 0 0 1-.63-1.78s3.43.36 5.39.43A8.43 8.43 0 0 1 69 145zm.38-7.73c-.35-.82-.89-1.89-1.13-2.33 1 .12 1.87.27 2.6.41a5.17 5.17 0 0 1 2 1.68c.31.38 0 .52 0 .52s-1.14.17-1.57.17-1.48.64-1.93-.43zm.53 1.86a17.12 17.12 0 0 1 2.42-.58h1.15a.75.75 0 0 1 .18.18 5 5 0 0 1 .83 2.47s0 .64-1.48.9-2.47.33-2.86 0v-1.23a10 10 0 0 0-.28-1.72zm4.47 4.8a2.25 2.25 0 0 1-.79.93 29.74 29.74 0 0 1-3.4.57h-.07v-2.09c1.42-.08 3.27-.28 4.4-.42a1.83 1.83 0 0 1-.18 1.08zm4.14-.59a1.35 1.35 0 0 1-.28.71l-.74.07c-.71.08-1.45.22-2.2.37a2.37 2.37 0 0 0 .49-1.8 12.44 12.44 0 0 1 2.55-.57h.22a4.43 4.43 0 0 1-.07 1.24zm.17-2.4c0 .07-.17.59-1.31.56s-1.69 0-2-.33a4.07 4.07 0 0 0-.24-1.64 8.3 8.3 0 0 0-.53-1l.19-.06a18.48 18.48 0 0 1 2.93-.31 3.39 3.39 0 0 1 1 2c.11.6-.08.84-.08.84zm1-2.82a13 13 0 0 1 1.34 0 2.07 2.07 0 0 0 .48 0l.15.1a12.71 12.71 0 0 1 1 1.86.64.64 0 0 1-.36.68 7.34 7.34 0 0 1-1.54.22 3.54 3.54 0 0 1-1.11-.19 8.86 8.86 0 0 0-.39-2.52.55.55 0 0 0 .44-.14zm2.93 5.18a1.06 1.06 0 0 1-1 .62c-.62 0-1.36 0-2.12.06a9 9 0 0 0 .19-1.91c1.05 0 2.28-.06 3.14-.12a3.69 3.69 0 0 1-.2 1.36zm2.47-.79c-.48 1.21-1.22 1.38-1.69 1.4a6.27 6.27 0 0 0 .48-2.09 4.66 4.66 0 0 0 1.53-.38 6.11 6.11 0 0 1-.31 1.08zm.39-3.24c-.09.31-.38.7-1.22 1l-.53.17a5 5 0 0 0-1.07-2.52 4.28 4.28 0 0 0 1.25-.58c.57-.45.67-.52 1.21.64a4.51 4.51 0 0 1 .37 1.3zm-.15-5.92a17.63 17.63 0 0 1-5.59-.12 10.84 10.84 0 0 1-3.92-1.23 26.9 26.9 0 0 0 7.59 0 5.59 5.59 0 0 0 2.55-.87 9.49 9.49 0 0 1-.62 2.23zm1-3.78c-.07.38-.07 1-1.74.93s-5.57 0-7.76-1.31-2.09-2-2.09-2 0-.14.17-.11a7 7 0 0 0 1.61.82 28.08 28.08 0 0 0 9.61 1.37s.28-.07.21.31zm4.95-13.83a55.75 55.75 0 0 0-2 6c-.29 1.45-.71 4-1.59 4.93s-1.07 1-1.76 1.09c0 0-1.12.5-1.78.1s-.21-.76-.07-1.19a8.08 8.08 0 0 0 1.29-4.35 1.61 1.61 0 0 0-.19-.86s-.71 4.57-3.09 5.9-5.24-.57-5.81-1.09-1.21-3.76-.9-4.76a2.58 2.58 0 0 0-.4 2s.38 1.14 0 1.31-1.09-.17-1.67-2.07a17.53 17.53 0 0 1-.07-6.85 4.71 4.71 0 0 0 .86.52c.64.33-.81-2.09-.79-4a51.82 51.82 0 0 1 .4-6.69c.21-.66.45-1.19 1.14-1.41l1.93-.09c.86 0 5.31.17 7.31.4l.6.08a9.42 9.42 0 0 1 6 4.68c2.07 3.98 1 5.31.6 6.36zM98 128.1c3.42 2.39 8.53 1.88 8.53 1.88-3 .88-7.56.43-8.61.29a11.94 11.94 0 0 1 .08-2.17zm12.33-.41v.49c-.73 1.27-3.13 1.25-3.13 1.25-5.46-.08-8.3-1.72-9-2.15l.11-.16a7.13 7.13 0 0 0 1.56.58 22.44 22.44 0 0 0 8.83-.64c.46-.16.85-.31 1.2-.46.54.25.43.93.45 1.1zm-12.26 4.14v-.2c.46.45 1.45 1 4.29 1.41s6.62-.45 6.4-.26-1 .81-3.47 1.26a30 30 0 0 1-6.69 0 16.15 16.15 0 0 1-.51-2.2zm3.1 8.28c.84-.17 2-.39 3.39-.54a4.25 4.25 0 0 1 .86 1.54v.08l-2.47.13a16.11 16.11 0 0 0-2.68.44v-.16a4.29 4.29 0 0 1 .92-1.48zm.1-2.94c.51-.08 1.16-.15 2.05-.23a6.28 6.28 0 0 0 .39 1.69 25.88 25.88 0 0 0-2.71.56 6.52 6.52 0 0 1 .29-2.01zm4.09 1.25l-.62.07-.07-.07a6.58 6.58 0 0 0-.4-1.55h.54a14.56 14.56 0 0 1 1.74 0c.19.27.68 1 .93 1.48-.59-.05-1.3 0-2.1.08zm-1.17-2.62c-2.33.07-4.78.43-4.78.43s-.2-.39-.45-1.06c.5.1 1.55.3 2.43.39 1.19.12 3.45-.1 4.55 0s2.7.41 3 .47l-.05.15a24.18 24.18 0 0 0-4.68-.37zm2.21-1.12a7.26 7.26 0 0 0 3.3-1.29c-.14.59-.32 1.2-.48 1.69a15.72 15.72 0 0 0-2.8-.39zm-8.23 4.5c.1-.77 1.4-1.48 1.84-1.69l.31-.11a3.74 3.74 0 0 0-.2 1.51l.06.53a11.11 11.11 0 0 0-1.34.5c-.31.08-.76.08-.65-.73zm-.67 2.28a6.69 6.69 0 0 1 2.43-1h.07v.05a2.73 2.73 0 0 0-.81 1.63l-.74.23a4.24 4.24 0 0 1-1.84.2 3.87 3.87 0 0 1 .91-1.09zm-1.17 2.67v-.21a6.69 6.69 0 0 1 2.74-.76c0 .76.12 1.69.26 2.56a6.46 6.46 0 0 1-1.67-.14c-.56-.2-1-.09-1.38-1a2.66 2.66 0 0 0 .08-.44zm.12 2.07l-.08-.16a5.42 5.42 0 0 0 1.94.47c.43 0 .82.11 1.21.18a4.27 4.27 0 0 0 .66 1.66 5 5 0 0 1-3.7-2.14zm9.35 1.24a1.23 1.23 0 0 1-.77.84c-.6.07-1.36.13-2.35.19h-.08A3.75 3.75 0 0 1 101 147v-.08a7.93 7.93 0 0 0 1.52 0c1.49-.18 2.79-.36 3.34-.41.09.08.07.37-.03.94zm.2-2.44c-.12.64-.57.4-.83.43s-2.9.48-3.69.45a5.9 5.9 0 0 1-1-.11 6.88 6.88 0 0 1-.31-2.84c.56-.5 4.64-1 5.21-.71a.93.93 0 0 1 .5.66A10.84 10.84 0 0 1 106 145zm.45-4a1.25 1.25 0 0 0-.24-.9 5.17 5.17 0 0 0-.48-.6l1.1-.07h1.89a3 3 0 0 1 1.15 1.56l-1.77.08c-.26 0-1.18.08-1.6.12zm3.25 6.76c-.77.07-1.56.12-1.94.12a4.59 4.59 0 0 0-1 .18 3 3 0 0 0 0-1.64c1.05-.07 2.92-.21 3.35-.3l.83-.13c-.02.68-.82 1.4-1.27 1.74zm1.3-2.93a6.81 6.81 0 0 1-2.62.37 6.24 6.24 0 0 0-1.67.07l-.11-2.72c.53-1 2.39-.94 2.84-.89a1.28 1.28 0 0 1 1.33.9 8.67 8.67 0 0 1 .23 2.25zm3.17 1.45c-.59 1-2 1.07-2.69 1.24a14.27 14.27 0 0 0 .36-1.64c.6-.07 1.19-.13 1.48-.14a3.42 3.42 0 0 0 1.28-.35 5.24 5.24 0 0 1-.47.87zm.69-3.12v.21a1.55 1.55 0 0 1-1.16 1.08 9.81 9.81 0 0 1-1.81.2 16.81 16.81 0 0 0-.38-2.63l1.38.1a5.39 5.39 0 0 1 1.91.59c0 .11.01.29.02.43zm-.49-2a24.82 24.82 0 0 0-3.27-.15 6.27 6.27 0 0 0-.68-1.44 6.87 6.87 0 0 1 1.68.37l-.06-.08c1.55.46 1.96.84 2.3 1.24zM111 138.6a8.87 8.87 0 0 0-2.38-.31c-.13-.32-.38-1-.55-1.32a6.59 6.59 0 0 1 2 .61 1.87 1.87 0 0 1 .93 1.02zm-.5-7.82l.05-.31s-.36 1.5-3.74 1.83a17.73 17.73 0 0 1-6.59-.76s1.36.12 4 .07 5.05-1.5 5.65-1.69c.22-.07.52-.15.62-.06v.61a.85.85 0 0 1 0 .3zm2.24-15.88a17.33 17.33 0 0 1 .19 6.66c-.43 1.83-1.09 3-2.52 3.5 0 0 1.31-3.55.5-5.9a26.68 26.68 0 0 1-.62 2.64c-.36 1.17-1.12 4.33-3.21 4.74a14.36 14.36 0 0 1-5.43.21c-1.29-.31-2.12-2.28-2.26-2.71s-.36-.1-.24.43a9.89 9.89 0 0 0 .57 1.69c.14.26-.1.43-.48.24a3.9 3.9 0 0 1-1.86-1.48l-.1-.11a11.47 11.47 0 0 1-2.21-4.29c-.71-2.69-1.17-6.33-2.26-8.78a21.67 21.67 0 0 0-2.76-4.88s-.67-.64.12-1a.14.14 0 0 0 .1 0 19.15 19.15 0 0 1 2-.07h2.36s3.4-.1 4.28 0a21.54 21.54 0 0 0 2.74-.36c.52 0 4-.74 4-.74a35.39 35.39 0 0 1 5.85-.71c1.36.13 1.68.54 1.75 1.22v1a15 15 0 0 1-.57 4.24 8.05 8.05 0 0 1-1.33 2.33 4.49 4.49 0 0 1 1.38 2.12zm-6.45-11.09a21.36 21.36 0 0 1 2.13-3.59c.34-.08.7-.19.92-.22a17 17 0 0 0 2.38-1.7l2.93 4.57zm10.57-1.67c-.17.74-1.36.48-1.36.48l-3.06-4.84.62-.39s.22.26.32.27c.3 0 .82-.48 1.18-.29a13.66 13.66 0 0 1 1.89 2.2l.21.27a7.42 7.42 0 0 1 .19 2.3zm2.61-1.74a5.7 5.7 0 0 1-2.37-1.4l-.29-.39s-.16-.41 0-.52a4.59 4.59 0 0 1 2.28-.5.94.94 0 0 1 .53.32c.3 1.16.5 2 .5 2-.03.78-.67.49-.67.49zm8.49-8.15a.33.33 0 0 0 0 .15c0 .61-1.14 2.78-1.78 2.82s-1.53-4.39-2.36-5.78-1-1-1-1 1.18 3.29 1.27 3.56 1.21 2.89.82 4.78a5.27 5.27 0 0 1-3 3.64c-.48.11-.64-.11-.68-.34v-.22a1.16 1.16 0 0 1 0-.19v-.11c0-.46-.12-1-.2-1.46-.25-1.5-2-6.68-4.07-9.28s-5.43-1.89-5.75-2-.32-.75.11-1.25 3-.93 3.28-1.07 1.39-1.39 1.61-1.43 1-.71 4.89.36a10.4 10.4 0 0 1 5.65 4 .28.28 0 0 0 .06.09 7 7 0 0 1 1 2.07 5.21 5.21 0 0 1 .13 2.66zm1.93-8.13a35.22 35.22 0 0 1-1 4.53c-.18.89-.39 1.18-.82.07a7 7 0 0 0-.37-.8 11.63 11.63 0 0 0-3.37-4.12 8.54 8.54 0 0 0-6.07-1.71c-.71 0-2.61.57-2.61-.11s1.29-1.5 2.07-1.75a11.54 11.54 0 0 1 2.93-.18c.79 0 2.39-.18 2.39-.46s-1.21-.43-2.07-.46-2.93 0-3-.29.14-.54.89-.89a29.29 29.29 0 0 1 4.64-.93c1.5-.25.57-.36.57-.36-1-.29-3.89.14-6 .61s-2 1.61-3 1.89-1.53-1-1.53-1-3.07-5.64-3.89-7.25a5.14 5.14 0 0 1-.39-3.28s-.5.71-1.11.57-.89-1.29-.89-1.29a12.28 12.28 0 0 0 .86 3c.32.79 2.18 3.43 2.39 4.39s-.54 1-.54 1l-13.83 1.51s-4 .39-4.74.49a2.69 2.69 0 0 0-1.59 2.43c.09.63 1.75 10.71 2.63 16a26.83 26.83 0 0 1-3.18.16s-9.57-.33-10.73-.43-4.52 0-5.21-1.38-.38-7.76-.38-7.76.25-3.28.37-4.43a29.49 29.49 0 0 0-.05-4.73c-.12-.87-.07-3.86-.07-5.12a33.67 33.67 0 0 1 .68-4.87c.14-.57.14-4.91.14-5.3s-.12-.21-.12-.21a11.4 11.4 0 0 0-.61 3.27c.09 1.18-.18 2.55-.75 2.46s-.75-1.5-.75-1.5a6.42 6.42 0 0 0-.27 1.84 8.4 8.4 0 0 0 .5 3.05 45.21 45.21 0 0 1 .5 6.92 24.08 24.08 0 0 1-.34 4.77c-.07.12-.7 2-5.05 1.87s-6-1.95-6-1.95 0-.27.77-1 1.23-3.27 1.55-5.07a30.17 30.17 0 0 0-.25-7.09c-.23-1.68-.45-1.84-.11-1.95s.68.45.68.45l1.55 3.66a7 7 0 0 1 .69 3.28c.43-.66.55-1 .29-2.45a16.7 16.7 0 0 0-1.61-3.62c-.11-.32-.43-1.23 0-1.46a.74.74 0 0 1 .8.11 16.71 16.71 0 0 1 1.76 2.39 20.39 20.39 0 0 1 1.64 4 11.68 11.68 0 0 0-.79-4.24 11.37 11.37 0 0 0-1.43-2.09 2.35 2.35 0 0 1-.11-2.31 9.91 9.91 0 0 1 3.32-2.89 8.47 8.47 0 0 0 2.21-2.39c.29-.32 2.12-3.05 3.46-5s4.91-3.19 4.91-3.19a20.33 20.33 0 0 1 5.27-.53 71.44 71.44 0 0 0-3 8.9 37 37 0 0 0-.72 6.27s.14 1.29 2.68 2a14.34 14.34 0 0 0 5.6.21s.61-.07.68-1.46 1.14-9.35 2.25-11.35a7.72 7.72 0 0 1 4.29-3.7l.26-.07c.83-.29 2.76-.79 3.5-1.12s.78-.95 1.79-.44a1.94 1.94 0 0 1 .23.27l4.54 3a9.07 9.07 0 0 0-3 1.21 13.66 13.66 0 0 1 3.92-.48 14.84 14.84 0 0 1 2.89.64c2.53 1.19 3.23 1.34 5.23 3.59a29.77 29.77 0 0 1 3.61 5.28c.5.82 4.28 5.64 5.14 6.92s2.11 2.11 3.25 5.43a18.86 18.86 0 0 1 1.02 8.02zM72.12 135.11z" fill="#692f23"/><path d="M102.26 114.47s2.83-.31 3.52-.4a15.92 15.92 0 0 0 1.86-.45 7 7 0 0 1-2.76 1.38c-1.48.28-3.03-.27-2.62-.53z" fill="#692f23"/><path data-name="Правая бровь" d="M88.79 23.67c0 .21 0 .6 1.37.7a16.52 16.52 0 0 1 2.7.21 8.23 8.23 0 0 1 2.28 1.25c.52.47.43.15.43.15a5.48 5.48 0 0 0-1.46-1.52 8.36 8.36 0 0 0-4.4-1.3s-.83 0-.92.51z" fill="#692f23"/><path data-name="левая бровь" d="M74 25.09s1.63-.6 2.1-.7a5.64 5.64 0 0 1 1.59-.08c.44.05.74-.07.74-.34a.7.7 0 0 0-.68-.62 10.72 10.72 0 0 0-1.65.33 7 7 0 0 0-1.63.63 1.89 1.89 0 0 0-.61.61.16.16 0 0 0 .14.17z" fill="#692f23"/><path data-name="Правый глаз" d="M94.46 28c-1.42-.68-1.7-1.16-4-1.37s-2.85.88-3 1.52a8.16 8.16 0 0 0-.06.82 4 4 0 0 0 0 .94c.08.13.41.05.61.08s1.81.49 2.3.58h.14a8 8 0 0 0 3.18-.14 3.78 3.78 0 0 0 1.81-.95c.33-.31.29-.51.29-.51s.14-.28-1.27-.97zm-3.85 1.9a1.64 1.64 0 0 1-1.41-.44 1.46 1.46 0 0 1-.35-1c0-.25.1-.73.44-.78a1.28 1.28 0 0 1 .51.17.67.67 0 0 0-.28.6.79.79 0 0 0 .85.69c.46 0 .82-.25.84-.66s-.06-.42-.06-.42 0-.18.17-.24a.45.45 0 0 1 .51.23 1.24 1.24 0 0 1-.08 1 1.34 1.34 0 0 1-1.14.86zM88 29.29a2 2 0 0 1 .56-1.29 1.74 1.74 0 0 0-.1.64 1.69 1.69 0 0 0 .82 1.4l-.19-.08c-.37-.16-.93-.31-1.09-.67zm6.79-.11a.72.72 0 0 1-.24.2 5.42 5.42 0 0 1-2 .8 11.48 11.48 0 0 1-1.35.14 2 2 0 0 0 1.13-.76 1.75 1.75 0 0 0 .22-1.4 1.83 1.83 0 0 0-.28-.62 11.33 11.33 0 0 1 2.44 1.14.69.69 0 0 1 .12.15.26.26 0 0 1-.05.35z" fill="#692f23"/><path d="M81.51 34.52a2.36 2.36 0 0 0 1.56.52 4.07 4.07 0 0 0 1.56-.21s.37-.22.6-.07.09.45-.25.68a2.6 2.6 0 0 1-2 .37 2 2 0 0 1-1.53-.91c-.29-.37-.19-.54.06-.38zM79.73 29.06c-.15-.24-.41-.72-.63-1a5.1 5.1 0 0 0-1-.83l-.43-.25a4.77 4.77 0 0 0-1.76-.45 2.85 2.85 0 0 0-1.8.46 2.79 2.79 0 0 0-.79 1.12 1.72 1.72 0 0 0-.18.91c0 .21.36.38.36.38a6.72 6.72 0 0 0 1.78.87 6.27 6.27 0 0 0 2.11.13 4.58 4.58 0 0 0 1.45-.45 2.73 2.73 0 0 1 .83-.08c.21 0 .37-.14.37-.26s-.16-.31-.31-.55zm-4.88.6c-.23-.11-.84-.46-.84-.46a.71.71 0 0 1-.25-.8.29.29 0 0 1 .06-.1.38.38 0 0 1 .33-.07c.15.06.05.11.16.45a2.25 2.25 0 0 0 .65 1zm1.9-.32a1.39 1.39 0 0 1-1.56-.22c-.39-.41-.42-.57-.43-.87 0-.45.15-.59.15-.59s.05-.09.09-.1a.27.27 0 0 1 .15 0c.12.05.1.83.1.83a.75.75 0 0 0 .69.51.87.87 0 0 0 .92-.72.88.88 0 0 0-.25-.67h.15a2 2 0 0 1 .37 0 .74.74 0 0 1 .28.44 1.24 1.24 0 0 1-.66 1.4zm2.34 0c-.23.21-.54.14-.78.14s-1.08.12-1.08.12h-.08.08a1.43 1.43 0 0 0 .76-1 1.73 1.73 0 0 0-.17-1.06l.08.07A6.73 6.73 0 0 1 79 28.7c.2.22.32.46.09.68z" fill="#692f23"/><g data-name="Блик на глазах" fill="#fff"><circle cx="89.5" cy="28.09" r=".41"/><circle data-name="Блик" cx="75.33" cy="27.94" r=".44"/></g><path d="M77.47 38.79a.8.8 0 0 1 .66-.37 6.36 6.36 0 0 1 1.73.7 21.14 21.14 0 0 0 5.34 1.12c1.46 0 4.55-.27 5.87-1a8.52 8.52 0 0 1 2.82-1 2.38 2.38 0 0 1 1.36.52.45.45 0 0 1 .07.52.68.68 0 0 1-.68 0 3.25 3.25 0 0 0-1.07-.28 5.28 5.28 0 0 0-2 .84 13.39 13.39 0 0 1-5.68 1.39 15.38 15.38 0 0 1-5.89-1.4 4.72 4.72 0 0 0-1.18-.57 5.13 5.13 0 0 0-1.14.14c-.12 0-.42-.17-.21-.61zM83 42.24a6.39 6.39 0 0 0 2.42.42 10.58 10.58 0 0 0 2.58-.22c.2-.06.42-.14.46-.06s-.42.87-1.94 1a6.7 6.7 0 0 1-3.35-.38 2 2 0 0 1-.83-.75s0-.19.2-.15a3.79 3.79 0 0 1 .46.14z" fill="#692f23"/><ellipse cx="97.89" cy="64.38" rx="3.33" ry="3.09" transform="rotate(-45 97.885 64.375)" fill="#fd8204"/><ellipse cx="84.84" cy="77.18" rx="3.33" ry="3.09" transform="rotate(-53.09 84.846 77.18)" fill="#fd8204"/></g></g></g></svg>