<svg xmlns="http://www.w3.org/2000/svg" width="60" height="60" viewBox="0 0 60 60"><title>домовенок-учеба</title><g data-name="Слой 2"><g data-name="Слой 1"><path fill="none" d="M0 0h60v60H0z"/><path d="M23.58 42.21C17 43.72 12.24 47.94 12.24 52.63v.51a47.91 47.91 0 0 0 17 3 47.9 47.9 0 0 0 17-3v-.51c0-4.76-4.84-8.8-11.58-10.25" fill="#ececed" stroke="#662f17" stroke-miterlimit="10"/><path d="M32.18 43.7v7.77a.93.93 0 0 1-.93.93H28a.93.93 0 0 1-.93-.93V43.7" fill="#ececed" stroke="#662f17" stroke-miterlimit="10"/><path d="M24.54 42.32c-8.31-1.47-14-6.48-14-14.2 0-8.09 8.24-17.58 19.34-17.58S49.22 20 49.22 28.13c0 7.18-6 12.87-14.39 14.25" fill="#dbc19f" stroke="#662f17" stroke-miterlimit="10"/><path d="M24.19 40.23v1.87c0 1 2.37 1.87 5.29 1.87s5.3-.84 5.3-1.87v-1.87" fill="#ececed" stroke="#662f17" stroke-miterlimit="10"/><path d="M29.49 41.11c-7.65 0-13.87-5.53-13.87-12.32A11 11 0 0 1 16.71 24a10 10 0 0 0 4.71 1.2 8.78 8.78 0 0 0 1.5-.13h.23l.12-.21c.48-.85 1.44-2.48 2-3.4.63.92 1.79 2.62 2.61 3.72l.13.18h.22c1 .1 2.09.15 3.17.15a38 38 0 0 0 10.82-1.58 11 11 0 0 1 1.14 4.87c0 6.78-6.22 12.31-13.87 12.31z" fill="#f2e3d0"/><path d="M25.29 22.37c.65.94 1.52 2.19 2.18 3.08l.26.36h.44c1 .1 2.12.15 3.22.15a38.82 38.82 0 0 0 10.55-1.48 10.46 10.46 0 0 1 .91 4.26c0 6.52-6 11.82-13.37 11.82s-13.37-5.3-13.37-11.82A10.43 10.43 0 0 1 17 24.7a10.55 10.55 0 0 0 4.47 1 9.28 9.28 0 0 0 1.53-.12l.47-.08.23-.41c.37-.66 1-1.81 1.58-2.72m-.06-1.86s-1.7 2.86-2.39 4.09a8.25 8.25 0 0 1-1.42.12 9.51 9.51 0 0 1-4.92-1.4 11.61 11.61 0 0 0-1.39 5.47c0 7.08 6.44 12.82 14.37 12.82s14.37-5.74 14.37-12.82a11.62 11.62 0 0 0-1.39-5.47A37.11 37.11 0 0 1 31.4 25c-1 0-2.09 0-3.12-.15-1.17-1.58-3-4.35-3-4.35z" fill="#662f17"/><path d="M33.88 35.45a14.2 14.2 0 0 1-4.71.75 14.49 14.49 0 0 1-4.47-.66M31.37 37.62a7.1 7.1 0 0 1-2.14.31 7.24 7.24 0 0 1-2-.27" fill="none" stroke="#662f17" stroke-linecap="round" stroke-miterlimit="10" stroke-width=".8"/><path d="M30.69 33.34a10.43 10.43 0 0 1-1.44.09 10.75 10.75 0 0 1-1.37-.08" fill="#fff" stroke="#662f17" stroke-linecap="round" stroke-miterlimit="10" stroke-width=".8"/><path d="M25.82 29.32a4.52 4.52 0 0 0-2.9-1.46A4.52 4.52 0 0 0 20 29.32" fill="none" stroke="#662f17" stroke-linecap="round" stroke-miterlimit="10" stroke-width=".8"/><ellipse cx="22.92" cy="29.32" rx="1.27" ry="1.15" fill="#662f17"/><path d="M38.05 29.32a4.52 4.52 0 0 0-2.9-1.46 4.52 4.52 0 0 0-2.9 1.46" fill="none" stroke="#662f17" stroke-linecap="round" stroke-miterlimit="10" stroke-width=".8"/><ellipse cx="35.15" cy="29.32" rx="1.27" ry="1.15" fill="#662f17"/><path d="M29.72 4.24l-22 5.44v2.49l6.45 1.72.07 2.94s-.24 3.3 15.51 3.37 15.59-3.61 15.59-3.61v-2.4L52 12.14l-.17-2.33z" fill="#c1bcad"/><path d="M29.7 20.77a52.84 52.84 0 0 1-11.11-1c-3.31-.75-5-1.76-5-3v-2.85h1.1v2.78c0 .35.86 1.21 4.12 1.95a51.72 51.72 0 0 0 10.87 1 51.72 51.72 0 0 0 10.87-1c3.26-.74 4.12-1.6 4.12-1.95v-2.82h1.1v2.82c0 1.26-1.68 2.27-5 3a52.83 52.83 0 0 1-11.07 1.07z" fill="#662f17"/><path d="M29.72 15.77h-.07l-22.1-5.56a.28.28 0 1 1 .13-.53l22 5.53 22-5.53a.28.28 0 1 1 .13.53l-22.02 5.55zM51.64 18.88a.28.28 0 0 1-.28-.28v-7.27a.28.28 0 0 1 .55 0v7.27a.28.28 0 0 1-.27.28z" fill="#662f17"/><path d="M51.64 21.25a6.15 6.15 0 0 1-.76 0c-.19 0-.54-.07-.54-.37a16.41 16.41 0 0 1 1-2.52l.25-.58.25.58a16.41 16.41 0 0 1 1 2.52c0 .3-.35.34-.54.37a6.15 6.15 0 0 1-.66 0z" fill="#662f17"/><path d="M51 20.66a6.52 6.52 0 0 0 1.32 0c-.14-.34-.41-1-.66-1.54-.27.57-.54 1.2-.66 1.54z" fill="#c1bcad"/><path d="M29.72 18.48L7.07 12.67V9.52l22.65-5.69 22.66 5.69v3.07zM8.17 11.82l21.55 5.52 21.56-5.6v-1.36L29.72 5 8.17 10.38z" fill="#662f17"/></g></g></svg>