<svg xmlns="http://www.w3.org/2000/svg" viewBox="0 0 329 102"><title>Платья</title><path fill="none" d="M0 0h329v102H0z"/><path fill="none" stroke="#ff5a19" stroke-linejoin="round" stroke-width="1.5" d="M61.09 46.46l7.5.63"/><path d="M66.42 34.26c-1-5.09-2.39-6.55-2.39-6.55-1.12 0-2.19 1.43-2.7 4.73l-1 11.28a8.28 8.28 0 0 0 4.38 1.59 7.24 7.24 0 0 0 3.53-1.59zM31.3 25.68l-3.43 14.39a5.68 5.68 0 0 0 5.37 2.22" fill="none" stroke="#353535" stroke-linejoin="round" stroke-width="2"/><path fill="none" stroke="#ff5a19" stroke-linejoin="round" stroke-width="1.5" d="M34.03 46.76l27.56 2.43"/><path fill="none" stroke="#353535" stroke-linejoin="round" stroke-width="2" d="M62.08 45.13l-1.9 8.45 5.31 32.06-36.61-3.11 6.06-30.92-3.63-26.07 8.79-4.39 8.26 2.34 8.73-.83 6.54 4.85M34.94 51.61l25.24 2.43"/><path fill="none" stroke="#353535" stroke-linejoin="round" stroke-width="2" d="M40.1 21.15l8.18 11.74 8.81-10.23M76 41.73a8.66 8.66 0 0 0 2.09.25 7.33 7.33 0 0 0 3.49-1.59l-1.79-9.47c-1-5.09-2.38-6.54-2.38-6.54-1.12 0-2.19 1.43-2.7 4.72l-.43 6.38"/><path fill="none" stroke="#ff5a19" stroke-linejoin="round" stroke-width="1.5" d="M68.47 45.31l6.18.54"/><path fill="none" stroke="#353535" stroke-linejoin="round" stroke-width="2" d="M49.87 19.86l3.57-2.05 8.79 2.62 8.2-1.1 6.54 4.85M75.41 41.8l-1.89 8.45 5.31 32.06-7.05-.6M67.91 50.17l5.61.53M67.22 22.96l3.21-3.63M68.4 42.71a7.73 7.73 0 0 0 3.53.51 7.3 7.3 0 0 0 3.48-1.59l-1.78-9.47c-1-5.09-2.38-6.54-2.38-6.54-1.12 0-2.2 1.43-2.71 4.72l-1.2 8.58"/><path fill="none" stroke="#353535" stroke-linejoin="round" stroke-width="2" d="M42.13 21.71l5.18-2.66 8.44 3 8.55-1.48 6.54 4.85M65.1 82.9l7.6.65-5.3-32.06 1.89-8.45M60.64 51.31l6.76.63M60.56 24.92l3.74-4.35"/><path fill="none" d="M15.24 12.5h77v77h-77z"/><path fill="none" stroke="#ff5a19" stroke-linejoin="round" stroke-width="1.5" d="M171.63 46.46l7.5.63"/><path d="M177 34.26c-1-5.09-2.39-6.55-2.39-6.55-1.12 0-2.19 1.43-2.7 4.73l-1 11.28a8.24 8.24 0 0 0 4.41 1.59 7.33 7.33 0 0 0 3.49-1.59zM141.84 25.68l-3.43 14.39a5.67 5.67 0 0 0 5.41 2.22" fill="none" stroke="#353535" stroke-linejoin="round" stroke-width="2"/><path fill="none" stroke="#ff5a19" stroke-linejoin="round" stroke-width="1.5" d="M144.57 46.76l27.56 2.43"/><path fill="none" stroke="#353535" stroke-linejoin="round" stroke-width="2" d="M172.62 45.13l-1.9 8.45 5.31 32.06-36.61-3.11 6.07-30.92-3.64-26.07 8.79-4.39 8.26 2.34 8.73-.83 6.54 4.85M145.48 51.61l25.24 2.43"/><path fill="none" stroke="#353535" stroke-linejoin="round" stroke-width="2" d="M150.64 21.15l8.18 11.74 8.81-10.23M186.5 41.73a8.6 8.6 0 0 0 2.09.25 7.38 7.38 0 0 0 3.49-1.59l-1.8-9.47c-1-5.09-2.38-6.54-2.38-6.54-1.12 0-2.19 1.43-2.7 4.72l-.44 6.38"/><path fill="none" stroke="#ff5a19" stroke-linejoin="round" stroke-width="1.5" d="M179.01 45.31l6.18.54"/><path fill="none" stroke="#353535" stroke-linejoin="round" stroke-width="2" d="M160.41 19.86l3.57-2.05 8.79 2.62 8.2-1.1 6.54 4.85M185.96 41.8l-1.9 8.45 5.31 32.06-7.05-.6M178.45 50.17l5.61.53M177.76 22.96l3.21-3.63M178.94 42.71a7.73 7.73 0 0 0 3.53.51 7.3 7.3 0 0 0 3.53-1.59l-1.78-9.47c-1-5.09-2.38-6.54-2.38-6.54-1.12 0-2.2 1.43-2.71 4.72l-1.2 8.58"/><path fill="none" stroke="#353535" stroke-linejoin="round" stroke-width="2" d="M152.67 21.71l5.18-2.66 8.44 3 8.55-1.48 6.54 4.85M175.64 82.9l7.6.65-5.3-32.06 1.89-8.45M171.18 51.31l6.76.63M171.1 24.92l3.74-4.35"/><path fill="none" d="M125.78 12.5h77v77h-77z"/><path fill="none" stroke="#ff5a19" stroke-linejoin="round" stroke-width="1.5" d="M282.01 46.46l7.5.63"/><path d="M287.34 34.26c-1-5.09-2.39-6.55-2.39-6.55-1.12 0-2.19 1.43-2.7 4.73l-1 11.28a8.28 8.28 0 0 0 4.38 1.59 7.24 7.24 0 0 0 3.53-1.59zM252.22 25.68l-3.43 14.39a5.68 5.68 0 0 0 5.37 2.22" fill="none" stroke="#353535" stroke-linejoin="round" stroke-width="2"/><path fill="none" stroke="#ff5a19" stroke-linejoin="round" stroke-width="1.5" d="M254.95 46.76l27.56 2.43"/><path fill="none" stroke="#353535" stroke-linejoin="round" stroke-width="2" d="M283 45.13l-1.9 8.45 5.31 32.06-36.61-3.11 6.06-30.92-3.63-26.07 8.79-4.39 8.26 2.34 8.73-.83 6.54 4.85M255.86 51.61l25.24 2.43"/><path fill="none" stroke="#353535" stroke-linejoin="round" stroke-width="2" d="M261.02 21.15l8.18 11.74 8.81-10.23M296.88 41.73A8.72 8.72 0 0 0 299 42a7.29 7.29 0 0 0 3.49-1.59l-1.79-9.47c-1-5.09-2.38-6.54-2.38-6.54-1.12 0-2.19 1.43-2.7 4.72l-.43 6.38"/><path fill="none" stroke="#ff5a19" stroke-linejoin="round" stroke-width="1.5" d="M289.39 45.31l6.18.54"/><path fill="none" stroke="#353535" stroke-linejoin="round" stroke-width="2" d="M270.79 19.86l3.57-2.05 8.79 2.62 8.2-1.1 6.54 4.85M296.34 41.8l-1.9 8.45 5.31 32.06-7.05-.6M288.83 50.17l5.61.53M288.14 22.96l3.21-3.63M289.32 42.71a7.73 7.73 0 0 0 3.53.51 7.3 7.3 0 0 0 3.48-1.59l-1.78-9.47c-1-5.09-2.38-6.54-2.38-6.54-1.12 0-2.2 1.43-2.71 4.72l-1.2 8.58"/><path fill="none" stroke="#353535" stroke-linejoin="round" stroke-width="2" d="M263.05 21.71l5.18-2.66 8.44 3 8.55-1.48 6.55 4.85M286.02 82.9l7.6.65-5.3-32.06 1.89-8.45M281.56 51.31l6.76.63M281.48 24.92l3.74-4.35"/><path fill="none" d="M236.16 12.5h77v77h-77z"/></svg>