<svg xmlns="http://www.w3.org/2000/svg" viewBox="0 0 300 250"><defs><style>.cls-1{fill:none}.cls-2{fill:#d2a274}.cls-3{fill:#e7c3a0}.cls-4{fill:#692f23}.cls-5{fill:#e09c51}.cls-6{fill:#fbdfcb}.cls-7{fill:#fff}.cls-8{fill:#abd2f0}.cls-9{fill:#e9b87f}.cls-10{fill:#efb000}.cls-11{fill:#fd8204}.cls-12{fill:#e16702}.cls-13{fill:#c7c0b1}.cls-14{fill:#9e9b95}.cls-15{fill:#e2ddd3}.cls-16{fill:#5e5e5e}</style></defs><title>Ресурс 34</title><g id="Слой_2" data-name="Слой 2"><g id="Слой_24" data-name="Слой 24"><path class="cls-1" d="M0 0h300v250H0z"/><path class="cls-2" d="M46.41 205.09a13 13 0 0 0 2.29-3.65c.44-1.54 1.8-6.93 3.43-9.24s7.08-5.06 7.08-5.06a10.45 10.45 0 0 0 1.94-.35c1.47-.35 2.27-1.89 4.88-1.5 0 0 16.1 4.44 20.9 5.59a120.08 120.08 0 0 0 16.94 2.46c4.55.29 16.21-.26 24.6-1.28s115.47-13.6 115.58-13.6 1.39-.86 1.8.4.68 1.87.53 2a4.27 4.27 0 0 1 2.24 1.45c1 1.41 2.49 6.69 3.34 7.44s2.93 1.89 2.46 2.29a4.86 4.86 0 0 1-3.92.13c-1.43-.64-5.26-6.34-7-7.26s-1.23-2.27-3.78-2.33-102.14 12.85-105.2 13.38-13.46 1.25-18.92 1.45-16.15-.92-17.91.22a16.08 16.08 0 0 0-4.69 6.14c-1 2.2-3.15 7.92-4.84 9.28s-2.07 1.85-3.83 2.33-4.82.86-5.41.4.07-1.28.62-2 2.95-4.78 3.17-6.78.66-6.29 1.19-7.48 1.21-3.34 2.2-4-1.65-1.3-3-1.63-8.4-3.06-11.4-2.55-7.5 2.11-10.12 4.4-5.63 7.41-8.62 8.93-7.96 2.95-6.55.42z"/><path class="cls-3" d="M26.7 102.31a27.07 27.07 0 0 1-.7-6.66c.23-2.74 3.43-5.77 4.69-7.19s6.7-3.27 8.25-4 27.79-3.23 31.08-3.56 28.74-2.14 33.53-2.31 28.41-.07 34.85.07 38 1.81 40.46 2 23.43 1.06 26.93 2.57 3.63 6.27 3.7 8.58-.07 18.05.26 19.67 1.85 2.08 3.3 2.51 26.83 10.1 37 12.21 12.79 4.8 12.79 4.8c.16 1.68-2.08 13-2.11 13.27s-3.1 12.28-3.76 14.85-3.6 12.61-6 15.18-2.21 2.8-14.59 5.15-120.31 13.79-120.31 13.79a115.93 115.93 0 0 1-27.13-2c-15.41-2.87-24.88-7.39-24.88-7.39s-11.68-17.19-15.25-22.77a139.94 139.94 0 0 1-12-25.34C34 127.36 26.7 102.31 26.7 102.31z"/><path class="cls-4" d="M262 129.17c-2.1-1.11-12.13-3.3-22.28-6.27s-27.56-9.49-27.56-9.49c-2.4-1.5-2-4.72-2-7.26 0-3.4.18-10.39-.06-15.57-.19-3.9-1.71-5.72-1.71-5.72s-.87-1.65-4.21-2.64-36.85-2.64-49.35-3.38-34.25-.91-47.53-.74-38.07 2.18-48.3 3.46S38.53 83.37 35 85a6.89 6.89 0 0 0-.66.35c-.19.1-6.27 3.78-8.09 7.55s-.39 9.51.21 12.13 8.69 27.88 9 28.81a9.21 9.21 0 0 0 1 2.6v.1c.44 1.12 4.54 11.65 6.65 15.87 2.23 4.46 7.06 12.35 11.2 18.6 4.67 7.06 9.18 12.18 9.1 12.76a1.14 1.14 0 0 1-.43.6 2.6 2.6 0 0 0-1 .64 1.92 1.92 0 0 0-.5.88 15.69 15.69 0 0 0-7.41 3.63c-3.64 3-3.46 4-4.73 8s-2.2 5.66-3.16 6.62-1 1-.62 1.86 1.92 1.18 4.77.43a3.75 3.75 0 0 0 .91-.35c.49-.16 1-.7 3.18-2.39a37.25 37.25 0 0 0 3.84-4.19 22.87 22.87 0 0 1 9.74-6.58 18.2 18.2 0 0 1 9-.25c1.76.53 8.31 2.21 8.31 2.21a6 6 0 0 1-.82 2.24 16.42 16.42 0 0 0-1.87 5.45c-.29 2-.42 5.17-1.41 7.06s-1.49 3.37-2.79 4.89-.06 1.64 1.79 1.79a12 12 0 0 0 6.14-1.39 11.35 11.35 0 0 0 4.38-4.67c1.18-2.1 3.12-7.68 4.08-9 .62-.87.71-2 4.83-3.4 1.72-.58 5.35.06 10.71.19s10.3-.34 18.44-.93S235 183.42 238.64 183.32c.54 0 1.07 0 1.57-.1a5.51 5.51 0 0 1 2.76 1.83c2.17 2.38 2.88 4.18 5.08 6.19a7.89 7.89 0 0 0 6.25 1.76c1.11-.15 1.7-.65.93-1.36s-2.75-1.39-3.71-3.59-1.45-5.2-2.41-6.37a5.51 5.51 0 0 0-2.41-1.61c-.2-.53.05-1.64-.19-2.1a11.17 11.17 0 0 0 3-1.41c4.29-3.22 5.78-10.77 7.43-15.6s6.23-26.94 6.44-28.06.76-2.62-1.38-3.73zm-50.39-15s2.16.62 12.15 4.38 33.09 10.33 35.44 10.7 1.84 1.61.27 2.19a58.91 58.91 0 0 1-6.09 1.4 15.33 15.33 0 0 1-5.65-.17c-1.69-.39-3-.91-3.75-1a234.06 234.06 0 0 1-32.29-14c-1.14-.62-1.26-1.22-1.32-2.58a.92.92 0 0 1 1.27-.91zM97.16 166.06c.87 0 13.44-.08 16.59-.87 1.86-.17 129.38-13.1 129.38-13.1s3.76-.48 3.65.29a9.81 9.81 0 0 1-.84 2 5.82 5.82 0 0 1-3.57 3.19c-2.09.64-34 5.2-45.7 6.62s-73.69 7-83.3 7.3c-9.16.28-12.63.8-14.11-.25s-2.72-4.7-2.72-4.7-.25-.46.62-.48zm-1.56-2.41c-.45-1.22-3.39-10.21-3.89-12.74-.11-.79-.31-2.12-.58-3.31a1.41 1.41 0 0 1 .5-1.26s.12-.37 2.39-.66 115.07-7.82 117.26-7.84 2.38-.29 3.88.34c.31.13 1.4.77 1.59.79 4.55 1.87 28.11 10.22 29.26 10.67 0 0 .42.22.4.59 0 .56-1.4.56-2.87.85l-130.1 13.3s-7.92.64-12.87.87-4.52-.39-4.97-1.61zM246 148.91c-.67-.2-27.58-10.53-29.49-11.25-1.67-.58-3-3.91-3.84-8.25a74.56 74.56 0 0 1-1.38-9.39c-.09-1.55.51-1.32.51-1.32s.46.46 8.29 4.27 22.06 9.07 23.37 9.41l3.94 1.11A2.51 2.51 0 0 1 249 136c0 2-.86 11.18-1.08 11.82s-.63 1.46-1.92 1.09zM39.82 85.26c11.51-2.07 43.23-5.5 67.37-6s78.45 2.1 91.41 3.5c0 0 6.62 0 9 2.79 1.39 2.57 1.24 5.72 1.3 8.66s-.15 13.24-.09 15.57.84 3.25 1.05 7.12 1.79 12.07 1.79 12.07c.37 1.49 1.33 5.71 1.42 6.64.06.55-.42 1-1.46 1-4.38 0-119.49 8.09-119.49 8.09a16 16 0 0 1-2 .14 5.6 5.6 0 0 0-2.71-2.18 222.64 222.64 0 0 0-28-8.77c-11.68-2.68-12.58-2.52-13.62-3.22s-6.16-9.9-8.55-17.33a91.25 91.25 0 0 1-4.4-21.7s-1.21-4.91 6.98-6.38zm-2.88 48.21s-8-25-9-28.18-1.66-7.9-1.18-10.29 3-4.85 3.19-5c1.19-.81 1.22-.52 1.33-.34a10.19 10.19 0 0 0 0 3.28 100.28 100.28 0 0 0 2.88 15.13c1.65 5.82 4.3 13.52 7.85 19.36a15.51 15.51 0 0 1 1.82 3.38c.21 1-.95 1.69-2.89 2.56s-2.85 1.44-3.05 1.49-.48-.17-.95-1.39zm1.88 2.3c.47-.7 3.55-2 3.55-2s2.89-1.61 4.7-1.57 20.75 4 38.95 11.47c2.27 1.53 2.56 1.53 2.81 3.3s-.21 2.52-2.89 3.38-14.2 2.3-15.94 2.42a4.25 4.25 0 0 0-.94.16 14.36 14.36 0 0 1-4-.41c-3.59-.78-11.55-5.24-14.44-7.26s-9.53-6.48-11-7.59c-.06-.12-1.28-1.2-.8-1.9zm22.85 43C58 173.7 49 162.06 44.49 152.41s-5.67-13.67-5.67-13.67c.62-.37 7.88 5.86 12.63 8.5s11.31 6.07 13.53 6.93c2.07.81 2.5 1.18 3.09 1.83.87 2.66 4.46 9.64 8.63 16.49 4.74 7.8 9 14.47 10.07 15.83s.54 2-.58 1.58-17.82-4.37-19.47-5.12a51.17 51.17 0 0 1-5.05-6zm-10.12 25.1a12.53 12.53 0 0 1-2.6 1.42c-1.18.4-2.79.77-.93-1.61s1.76-3.84 2.72-6.07.74-4.8 5.26-7.92c3-2.1 4.93-2.31 5.84-2.29a3.61 3.61 0 0 0 1.16 1.18 11.31 11.31 0 0 0 1.84.84 15.26 15.26 0 0 0-6.3 3c-2.69 2.38-3.84 6.5-5.14 8.91s-1.85 2.54-1.85 2.54zm11-9.72a39.46 39.46 0 0 0-7.24 7.06 13 13 0 0 1-2.1 2.29 23.18 23.18 0 0 0 2-3.47c1.36-2.63 2.54-5.6 4.77-7.06a16.07 16.07 0 0 1 7.43-2.64c.92.3 1.76.57 2.27.72a17 17 0 0 0-7.12 3.11zm20.55 20.42c-1.76 1.24-3.87 1.33-4 .8s.4-.59 2.1-3 2.66-9.07 2.91-11.08c.37-1.52.93-3.68 2.1-4.7a3.7 3.7 0 0 1 3.43-.51c.57.14 1.84.33 2.65.46a22.4 22.4 0 0 0-2.62 4.08c-1.42 2.79-2.35 7.06-3 9a10 10 0 0 1-3.56 4.96zm13.12-17.14c-.91.48-2.35 3.3-2.35 3.3s-1.24 2.52-2.79 5.8-3.11 6.1-4.32 6.93-1.47.71-1.47.71a13.19 13.19 0 0 0 2.26-4.36c.8-2.66 1.55-6.87 3.53-9.28 1.8-2.2 2.35-3.14 3.34-3.78 1 .01 2.58.25 1.81.69zm32.8-1.3c-5.82.37-12.53 1.33-24.51.62S86 194.22 86 194.22c-.18-.14-13.37-3.49-13.37-3.49s-8.71-2.06-9.41-3.47.7-1.32 1.65-1.24 12.34 3.18 20.55 5.2a108.9 108.9 0 0 0 28.47 2.72c9.16-.41 112.2-12.39 112.2-12.39s7.77-1 16.06-2.26c.43 0 1.48-.25 2-.19.77.09 1.79.46 1.55 1.11s-3 1.36-5.2 1.67-105.65 13.88-111.5 14.26zm119.32-12.81c.8 2.29 1.95 5.35 2.91 6.56s1.86 1.49 2 1.86-.86.52-2 .19c-1.49-.43-2.75-1-4.55-4.05a12.6 12.6 0 0 0-4.6-4.88 14.66 14.66 0 0 0 4-1.25l.21-.13a2.34 2.34 0 0 1 2.05 1.7zm14.09-50.11c-1.28 5.07-5.69 26-6.93 29s-3.87 13-8.86 14.65-16.11 3-20.36 3.47-59.86 6.52-65.43 7.06-41.22 5.41-46.87 5.36-19.35.62-23.44-2.48S79.71 174.76 78.67 173s-8.91-16.13-9.32-17.16-.95-2 2.48-2.15a80.56 80.56 0 0 0 14.85-2.39c3.25-1 3.46-1.58 3.47-1.71a14.65 14.65 0 0 0 .58 2.37c1 3.26 3.55 11.61 4.87 14.85s1.94 4.5 3 5.36 4.33.58 5.94.58c9.74 0 39.53-2.35 54.5-3.71 0 0 39.9-3.65 47.57-5.16s33-4.85 36.27-5.65c2.93-.71 4.82-5.7 5.34-7.22a17.84 17.84 0 0 0 .89-4.42c.33-4 .66-11.53 1.16-12.3.28-.44.91-.55 2.17-.62.66 0 1.2-.15 1.84-.21a23.22 23.22 0 0 0 7-2c1.03-.46 1.67-.23 1.17 1.75z"/><path class="cls-5" d="M192.84 7.22s6.78-2.78 8-3.51 7-2.29 10.94-2.29 8.57-1.05 10.69-.81A6.68 6.68 0 0 1 226 2.16s2.45.08 4.49 0 5.14 1.31 6 1.55l9.92 2.94c1.63.49 3.92 2.94 6 4s13 11.43 14 14.61 5.71 9.55 6.2 11.76 2.78 14.86-.9 20.49S261.65 71.31 258 73s-7.76 5.14-8.73 5.71S242 81.59 239 81.59h-4.65a16.18 16.18 0 0 0-3.1.57c-.41.16-.57-4-.57-4s-10 2.94-16.65 2.45a83.07 83.07 0 0 1-12.25-1.88s2.49 3.55 1.84 4.12-4.86.65-6.65.41-8.33-2.16-8.33-2.16l-3.84-1.84a49.7 49.7 0 0 0-4.57-3c-.49-.08-10-11.35-11.51-14.2s-2.86-9.47-2.94-14.78a50 50 0 0 1 3.39-17.39c2.2-6 8-12.82 10.65-14.37s9.39-5.39 9.39-5.39z"/><path class="cls-6" d="M208.37 23.19a11.51 11.51 0 0 0-2.37 3.27c-.52 1.35-.83 6.25-1.32 7s-1.87.89-2.79.8a8 8 0 0 1-2.58-1.26c-.12-.06-6 1.78-6.73 1.84s-8.11 1.81-8.6 1.93-3.67.8-3.83.86a6.29 6.29 0 0 0-3.15 3.86 7 7 0 0 0 .31 4.87 5 5 0 0 0-1.87 2.36 9 9 0 0 0 1.32 5.69c1 1.19 4.56 3.09 4.22 2.94s1.38 3.77 4.47 8.17 7.29 9 16.1 12.67 21 1.9 21.34 1.87a34.41 34.41 0 0 0 13.22-4.65s6.89-5.05 8.85-7 5.94-6.86 6.77-8.82a11.26 11.26 0 0 0 .86-2.39s2.48.24 4.29-3 .83-7-.64-7.81-4.29-.21-5.11-.06-2.88-1.68-3.4-3.92-6-7.71-6-7.71a33.53 33.53 0 0 1-6.46-.12c-2.45-.43-7.22-1-9-1.5s-7.75.28-8.91.55-5.2 2.2-5.51 1.93-.15-1.71-.15-2.33-3.33-10.04-3.33-10.04z"/><path class="cls-7" d="M202.92 48.5a3.58 3.58 0 0 0-1.23-2.5 4.68 4.68 0 0 0-3.41-1.35c-.9 0-4.67-.33-5.29 0a14.77 14.77 0 0 0-2.59 2.45c-.71.8-.06 1.35.35 1.57s1.86 1.38 2.92 1.4a32.23 32.23 0 0 0 4.69-.15c.94-.2 2.71-.94 3.39-1s1.07-.16 1.17-.42z"/><path class="cls-8" d="M199.64 45.09a2.62 2.62 0 0 1 .73 2.27 3.77 3.77 0 0 1-2.82 2.51c-1.35.27-3-.52-3.15-1.07s-1.19-2.07-.93-2.83 4.38-3.88 6.17-.88z"/><path class="cls-7" d="M221.23 48.49a3.58 3.58 0 0 1 1.22-2.49 4.68 4.68 0 0 1 3.41-1.35 26.84 26.84 0 0 1 5.18.65 9.84 9.84 0 0 1 2.69 1.78c.71.8.06 1.35-.35 1.57a9.57 9.57 0 0 1-3.18.94c-1.06 0-3.49.51-4.43.31s-2.71-.94-3.39-1-1.05-.14-1.15-.41z"/><path class="cls-8" d="M225.41 45.15a2.62 2.62 0 0 0-.73 2.27 3.77 3.77 0 0 0 2.82 2.51c1.35.27 3.29-.16 3.47-.71s.88-2.43.61-3.18-4.37-3.89-6.17-.89z"/><path class="cls-9" d="M167.45 35.19a30.7 30.7 0 0 0 4.29-4.59c1.29-2 4.35-7.53 7.35-10.29s3.86-3.8 5-4.53L181.17 22s2.14-2.82 4-3.55a11.2 11.2 0 0 1 2.69-.8 37.92 37.92 0 0 0-2.86 5.11c-.43 1.35-.49 7.35-.43 8.33s.31 2.63.31 2.63.73-7.16 3.37-11.08 4.1-7.22 10-10.41 7.1-3.37 8.08-3.18 0 2 0 2a62.53 62.53 0 0 0-2.69 6.25 20.64 20.64 0 0 1 3.55-4.22 36.89 36.89 0 0 1 4.47-3.37s-2.63 7.78-2.63 10.16 1.1 9.31 1.1 9.31l1.16 3.06A25.87 25.87 0 0 1 213 21.16c2.27-5.51 3.31-10.65 7.53-11.94a6.1 6.1 0 0 1 7.47 2.82 26.05 26.05 0 0 1 1.65 5s.18-4.29.06-5.27 1.35-1.16 2.14-.92a13.74 13.74 0 0 1 7.29 5.76c2.51 4.1 3.43 10.71 3.43 10.71s1.35-8.27.43-9.86-3.12-5.2-4.84-6.61c0 0-.37-1.59 2.27-1.1a18.07 18.07 0 0 1 6.92 2.39s-3.12-2.69-4.65-3.92-8.57-5.2-8.94-5.45a29.62 29.62 0 0 0-4.35-.61L226.66 2 224.39.78l-8.27.92-3.06-.55L202.53 3l-8 3.61-7.35 5.14-3.44 1.25-8.08 7s-6.06 7.65-6.25 8.63-2.2 6.61-2.2 6.61zM171.41 38.62s-2.82 8.39-2.33 14.76 3.61 14.14 4.16 14.69-2.69-2.2-2.88-2.33a67.41 67.41 0 0 1-3.8-9.73c-.55-2.51-.86-8.63.37-11.2s3.87-5.88 4.48-6.19z"/><path class="cls-7" d="M271.07 120.28c-.35-1.6-6.29-17.55-7.2-18.75-1.68-2.12-24.87-17.8-24.87-17.8a57.14 57.14 0 0 0-8.73-1.31l-.57-4.73a9.23 9.23 0 0 1-3.18 1.47 114 114 0 0 1-12.49 1.47c-2.29 0-11.18-1.63-11.18-1.63l.24 4.08-1.71.24a58.8 58.8 0 0 0-6.94 2.2 77.89 77.89 0 0 0-7.88 4.48c-6.39 7-12.56 9.27-16.8 15.16a32.15 32.15 0 0 0-5.63 18.67c.15 3.66 1.75 6.79 2.14 10.1 1 8.69 6 11.63 14.2 13.1 2.88.52 4.75-3.94 5.69-3.43 1.57.85 1 7 1.41 12.06.65 8.08.65 11.67 0 15.92s26.57 2.49 27 2.65 11.43.24 11.76.33a106.44 106.44 0 0 0 11.59-1c2.12-.49 13.06-3.18 14.53-3.35s1.22-1.88 1.47-4-.72-4.14-.73-3.84v-4.46s1.43-3.74.62-5.7 5.52 2.13 5.2.9c-.05-.19 3.16 4.44 5.87-2.26.94-2.32 3.7-4.55 2.11-11.14-.26-1.09 1.36-2.26 2.15-5.45a7.42 7.42 0 0 1 .34-2.62c.29-.93 1.82-8.64 1.59-11.36z"/><path class="cls-2" d="M201.42 215.26c-.42.31 2.82 14 2.82 14s6.25 2.69 10.9 2.33 5.63-2.69 5.63-2.69a14 14 0 0 0 2 2c.73.49 12.49-1 12.49-1s4-1.22 4-1.59 2.57-6.61 2.57-6.61.61-6.25.24-6.86-4.65 1.47-7.35 1.47-6.86.12-8.94-1.1-3.55-2.2-3.55-2.2-3.8 2.69-7.35 3.06-7.47.24-10.29-.86-2.68-.32-3.17.05z"/><path class="cls-10" d="M189.79 227.38s5-.49 7.47.49a104.28 104.28 0 0 0 11.74 3.31c1.59.24 6.12.86 9.55-.73s3.67.86 3.67.86l8.2-1c2.08-.24 8.08-1.35 10.41-.61s5.14 4 6 4.9 4.41 5.51 3.67 8-4.16 5.63-8.2 5.88-14 1.47-17.14.86-3.8-2.45-4.78-5.51l-1-3.06a26.91 26.91 0 0 1-6 1c-2.57 0-13.71 3.18-17.51 3.18s-9.55-.49-11-1.1c0 0-3.06-2.82-3.43-5.14a10 10 0 0 1 1.47-7.22c1.49-2.03 3.2-3.25 6.88-4.11z"/><path class="cls-11" d="M211.95 174.49s11 .36 13 .24 9.92-.12 15.31-1.33 8.57-2.54 9.18-.24 1.1 10.77 0 13.55a14.63 14.63 0 0 0-.73 6.41c0 1.33.73 13.43-1.1 15.85s-2.2 4.48-7 5.45-6.12 2.3-9.43 1.82-5.51-.36-6.86-1.82a15.07 15.07 0 0 0-2.45-2.18s-1.1 2.3-4.78 3.15-6.12 1.69-10.65.12a21.25 21.25 0 0 1-6.37-3.15s-3.43-5-4.16-9.44-.37-13.67-.37-13.67l-2.2-6.41s-2.63-6.86-.18-9 18.79.65 18.79.65z"/><path class="cls-12" d="M246.36 172.52s.31 6.37.37 8.08a33.53 33.53 0 0 1-.12 7 43.85 43.85 0 0 0-.67 7.71c.06 1.59.43 8.94-.12 10.53a26.73 26.73 0 0 1-1.35 3.12 9 9 0 0 1 .18 3.18c-.31 1 1-.12 1.59-1.29s1.59-1.71 1.9-4.41a99.72 99.72 0 0 0 .43-12.31c-.24-1.35.61-7.41.8-8.27s.49-10.16.37-12.25-2.4-3.29-3.38-1.09z"/><ellipse class="cls-11" cx="197.29" cy="126.26" rx="5.31" ry="6.4"/><path class="cls-12" d="M237.3 173.93s.55 4.1 1 5.94 1.84 7.1 1.53 10a71.67 71.67 0 0 0-.67 8.57c0 3.43.37 8.45.31 10.35s.12 3.73-.43 5.08 3.55-2.69 3.55-2.69.31-10.84.49-13.53 1.1-6.55 1.1-9.37-1.35-8.14-1.59-10.59a18.63 18.63 0 0 1 .37-5.14zM228.05 175s1.71 7.78 2.57 11.76.61 11 1.22 14.57.55 6.18.86 8.69.92 5.94.92 5.94 3.06-.12 3.55-.8-.73-12.18-1.1-14.14.06-7.35-.24-9.37-1.78-10.9-2.14-12.18a16.76 16.76 0 0 1-.24-5.08c.17-.39-5.4.61-5.4.61zM219.6 175.13s1.1 6.53 1.35 7.68 2 8.64 2.57 10.76 1 10.88 1.16 13.18.73 7.13 2.76 8.64a4.07 4.07 0 0 0 3.73.85 25.34 25.34 0 0 1-2-7.74c-.67-5.26-.55-10.58-1-12.82s-1.65-12.09-2.82-14.75a16.53 16.53 0 0 1-1.1-6zM213.23 175.09s1 5.33 1.35 7 2 8.94 2.39 11 1 7.71 1.59 11 1.29 6.43 1.16 8.14a11 11 0 0 1-.31 2.27l-3.37 1.41s0-.92-.18-3.24-1.59-9.49-2-12-1.65-12.31-2.08-14.2-1.59-9.86-1.22-11.45 2.67.07 2.67.07zM206.38 174.34s2.88 16.06 3.31 17.22.73 5.94 1.29 9.25 1.59 9.37 2 11.14 1.16 3.61.8 4.16-3.31.06-3.31.06a15.72 15.72 0 0 1-2.82-6.8c-.49-3.8-1.29-11.2-1.65-13.78s-4-22.06-4-22.06a29.29 29.29 0 0 1 4.38.81zM196.52 172.69s3.49 13.24 4.1 14.47a15.24 15.24 0 0 1 1.47 4.47c.37 2-.24 5.69.49 9.06s1.9 10.22 3.31 12.73 2.2 2.39 2.2 2.39a54.19 54.19 0 0 1-6.18-2.33c-1.71-.92-3.37-11.94-3.61-14.76s-.06-8.2-.49-9-4.53-14.47-4.1-16.12 2.81-.91 2.81-.91z"/><path class="cls-6" d="M186.26 135.18c0-.19.67-5.45 2-7.41A7 7 0 0 1 192 125c.37 0 .8.86 1.9.67s2.14.67 4.29-.73 3.43-1.22 4.78-4 .86-7.41 2.51-7.65 2.69 1.29 2.76 2.69.37 7 .37 7 2.51.61 2.82 2a7.55 7.55 0 0 0 1.59 2.76c.37 1.59 1.1 5.63.06 8a7.12 7.12 0 0 1-5.69 4.59 50.13 50.13 0 0 1-12 .37c-2.51-.43-7.41-1.84-7.71-1.78s-1.54-2.4-1.42-3.74zM229 155.1s.93-3.19 2.11-4.22 6-4.12 6-4.12 2.13-1.66 4.17-1 5.27 1.88 6.07 3.77 2.13 4 2 4.92a32.66 32.66 0 0 1-1.91 4.82c-.2.38-3.29 4.22-5.52 4.57a15.38 15.38 0 0 1-3.41-.15c-.6-.28-1.86-.88-1.66-1.31s2-2.76 2-2.76-.9-6.13-1.41-6.33a7.33 7.33 0 0 0-2.41-.1c-.23.08-4.72 2.26-4.72 2.26s-1.04 1.03-1.31-.35z"/><path class="cls-13" d="M226.35 160.67l-7.83 11.2s3.49 2.31 3.92 2.76a11.34 11.34 0 0 0 1.86 1.71L236.54 162s2.38-3.24 2.21-4.77a15.9 15.9 0 0 0-1.36-3.92c-.48-.23-6.78 2.21-6.78 2.21l-4.27 5.12.6-.2-.6.2"/><path class="cls-10" d="M151 214.64s-.08 8.84 2 11 4.69 5 14.81 5.32 18.43-3.61 21.34-5 8.64-4.77 8.64-4.77 1.15-7.15 1.61-8.13-.4-2.08-.65-2.86-3.51-13.56-3.51-13.56l-3.82-1.05a13.1 13.1 0 0 1-1.56 2.16c-.28.08-9.76-1.71-10.24-1.71s-5.92-1.66-6.13-1.76-2.31-8.74-2.31-8.74-.45-.6-.6-.6-15.46 8-15.46 8-4.19 4.09-4.27 4.32a9.49 9.49 0 0 0-1.71 6.28c.37 3.65 1.86 11.1 1.86 11.1z"/><path class="cls-14" d="M178 179.63s.85 1.72 1.67 1.57a20.51 20.51 0 0 0 3.38-1.67 22.27 22.27 0 0 1 4.45-1.07 14.48 14.48 0 0 1 3.11.67 13.6 13.6 0 0 1 2.44 1.1c.05.22 2 6.36 1.91 7.16s-.27 1.89-.27 2.78.42 4.27-.7 5.22-1.26 1.81-3.41 2.38-9.67-1-10-1.24-7.08-1.34-7.56-2.24-1.46-10.09-1.44-10.31 5.82-5.48 6.42-4.35z"/><path class="cls-15" d="M214.35 176l-9.28 9-2.21 2.76c.48 1 6.38 4.92 6.38 4.92s2.61 2.71 3.72 2.51a11 11 0 0 0 3.75-2.48 39.85 39.85 0 0 1 2.93-2.79l.55-3.77.15-4.92 4-4.87s-3-2.16-3.16-2.36-3-1.56-3-1.56z"/><path class="cls-13" d="M248.39 159.32s7.63 5 9.14 6.63 2 4.52 2.11 7.33-1.05 3.82-2.11 5.42a7.14 7.14 0 0 1-2.11 2.21l-3.21 1.71-2.51 1.2-1.1 6.93a9.56 9.56 0 0 0 3.92-.6c2.36-.8 7.73-2.61 10-4.92s4.27-6.28 5.32-10.34.4-10.59-.6-12.25-3.26-6.88-7.13-8.23-3.92-3.11-3.92-3.11-3.5 3.23-4.12 3-2.31.8-2.61 1.1-2.07 2.41-1.07 3.92zM157.92 206.91a4.35 4.35 0 0 1 .2 4.62c-1.41 2.51-2.76 2.11-3.82 2s-6.68-.1-9.74-2.71-4.52-6.18-4.42-8.84a9.94 9.94 0 0 1 3.51-7 35.42 35.42 0 0 1 11-5.72 71.6 71.6 0 0 1 14.26-2c1.61.1 17.27.8 17.27.8l9.3 1.22s.09 2.39.14 3-.15 3.06-.7 3.11-3.11.6-3.11.6-11-2.16-15.66-2.11-15.31-.5-20.68 1.81-6.43 4.62-5.92 6.83 1.2 3.21 2.41 3.51 5.96.88 5.96.88z"/><path class="cls-16" d="M153 225.64c-.15.2-2.84 1.41-3 3.46s.75 3.87 2.36 4.47a4.67 4.67 0 0 0 4-.65 2.52 2.52 0 0 0 .7-2.11c-.1-1.2.3-1.78-.3-2.41a46.79 46.79 0 0 0-3.76-2.76zM172 231.61s-2.08 2.76-1.31 4.42 1.58 2.69 2.41 2.76a5.88 5.88 0 0 0 2.71-.5 2.12 2.12 0 0 0 1.2-1.76c0-1-.05-1.78-.1-2.86a3.7 3.7 0 0 0-.9-2.46c-.44-.3-3.01-.7-4.01.4zM199.39 213.09a8.92 8.92 0 0 0-1.41 4.84c.1 2.64-.92 5.15.07 5.86a6.68 6.68 0 0 0 3.61 1.27c1.34 0 2.29.35 2.08-.4s-2.61-11-2.54-11.15-1.81-1.16-1.81-.42z"/><ellipse class="cls-11" cx="196.69" cy="152.61" rx="4.58" ry="5.52" transform="rotate(-9.46 196.73 152.626)"/><path class="cls-11" d="M249.64 90.09a4.82 4.82 0 0 1-3.74 4.16c-2.58.43-5.1-1.74-5.62-4.86a6.44 6.44 0 0 1 .47-3.75c.64-1.4 9.01 3.73 8.89 4.45zM237.17 137.2a5.55 5.55 0 0 1-2.93-5.45 5.63 5.63 0 0 1 6.27-4.9 5.8 5.8 0 0 1 3.47 1.64c1.17 1.15-6.16 9.07-6.81 8.71z"/><ellipse class="cls-11" cx="217.67" cy="136.17" rx="4.77" ry="5.75"/><ellipse class="cls-11" cx="231.48" cy="108.74" rx="5.31" ry="6.4"/><ellipse class="cls-11" cx="223.5" cy="156.79" rx="4.46" ry="5.37" transform="rotate(-14 223.514 156.783)"/><path class="cls-11" d="M269.65 132.65a5.33 5.33 0 0 1-3.21 5.15c-.4.14-5.58-6.6-5.35-7.24a4.53 4.53 0 0 1 4.1-3.28c2.47.01 4.46 2.41 4.46 5.37zM264 150.93c0 2.44-.9 3.82-2.76 4.47-.27.1-6.63-2.72-4.76-4.59s-.2-3.67.46-4.24a4 4 0 0 1 2.6-1c2.46-.01 4.46 2.43 4.46 5.36z"/><ellipse class="cls-11" cx="184.02" cy="111.37" rx="4.96" ry="5.97"/><ellipse class="cls-11" cx="201.69" cy="88.88" rx="5.97" ry="4.96" transform="rotate(-63.62 201.68 88.885)"/><path class="cls-11" d="M172.9 141.09a6.91 6.91 0 0 1-1.91 2.37c-1.56 1.23-5.4-9-4.33-9.65a4.69 4.69 0 0 1 4.45-.28c2.46 1.22 3.26 4.6 1.79 7.56z"/><path class="cls-4" d="M202.51 49.38c.32 0 1.13.21 1.36 0s.61-.49.17-1.31a10 10 0 0 0-2.9-3.18 7.08 7.08 0 0 0-4.92-1.44c-1.31 0-3.68.21-4.72.89a7 7 0 0 0-2.19 2.83 1.19 1.19 0 0 0 .25 1.05 4.26 4.26 0 0 0 .89.83 16.67 16.67 0 0 0 3.36 1.31 15.47 15.47 0 0 0 5.58-.06c1.21-.22 2.8-.92 3.12-.92zm-2.35-.52a2.27 2.27 0 0 0 .6-1.48 3.55 3.55 0 0 0-.46-2.23 6.52 6.52 0 0 1 2.26 2.39c.35.75.37 1.16.17 1.25s-.86-.34-1.31-.26a4.25 4.25 0 0 0-1.12.45c-.09.02-.19.02-.15-.12zm-6 .76a3.8 3.8 0 0 1-1.22-.2 9.56 9.56 0 0 1-1.87-1.27.84.84 0 0 1-.23-.58.11.11 0 0 0 0-.05c0-.29.46-.95 1-1.57a3.61 3.61 0 0 1 1.3-.92c.46-.2.65-.14.59.05a3.31 3.31 0 0 0-.53 1.92 3.09 3.09 0 0 0 1.25 2.35s.08.24-.25.27zm4.45-.75a3.65 3.65 0 0 1-2.84.14 2.34 2.34 0 0 1-1.38-1.56 2.6 2.6 0 0 1 .2-2 .86.86 0 0 1 .39-.31.5.5 0 0 1 .27 0c.38.17.27.34.24.41a2.35 2.35 0 0 0 0 1.58 1.73 1.73 0 0 0 1.48 1 1.43 1.43 0 0 0 1.48-1 1.62 1.62 0 0 0-.14-1.05.55.55 0 0 1 .7-.7c.66.21.78 1.13.75 1.64a2 2 0 0 1-1.1 1.85zM234.91 48.47c.35-.43-.08-.8-.44-1.22a29.13 29.13 0 0 0-2.41-2.25 7.41 7.41 0 0 0-2.73-1.1 9.49 9.49 0 0 0-5.91.14c-1.45.65-2.71 3.22-2.81 3.88a2.08 2.08 0 0 0 0 1.07c.15.68.86.49.89.5a7.45 7.45 0 0 1 2 .19c.63.16 3.19.66 3.82.83a9.82 9.82 0 0 0 4.07-.2 6.77 6.77 0 0 0 3.52-1.84zm-9.41 1c-.59-.15-2.3-.88-2.89-1a1.25 1.25 0 0 0-.67.07c-.35 0-.19-.5-.19-.5l.26-.56a6 6 0 0 1 1.65-1.77 5.69 5.69 0 0 1 1.54-.82c-.06.11-.31.34-.4.54a3.48 3.48 0 0 0-.33 1.7 3.09 3.09 0 0 0 1.14 2.32zm5.32-2.25a2.37 2.37 0 0 1-1.55 2.1 2.7 2.7 0 0 1-3.27-1.08 2.29 2.29 0 0 1-.09-2.44s.16-.27.38-.28a1 1 0 0 1 .69.21c.17.16 0 .48-.12.88a1.28 1.28 0 0 0 1.09 1.62 1.39 1.39 0 0 0 1.77-1.11c0-.38.08-1 .56-1s.64.28.54 1.08zm2.88.95a15.42 15.42 0 0 1-2.36 1.24.24.24 0 0 1-.12 0c-.21-.1.37-.49.62-1.63a3.42 3.42 0 0 0-.07-1.91c.5.35 1.43 1.05 1.89 1.43s.21.7.05.85zM209.27 58.74a7.2 7.2 0 0 0 4.59 1.16 3.24 3.24 0 0 0 2.77-1.35c.55-.65 0-.53 0-.53s-.53.39-3.49.45-4.16-.71-4.16-.71c-.89-.52-.44.35.29.98zM229.35 63.13c-.63-.08-5.77 2.41-6.05 2.49s-3.63 1.75-10.62 1.45-11-1.79-11.74-2.12a6.68 6.68 0 0 0-2.69-.9 4.22 4.22 0 0 0-1.9 1.12.41.41 0 0 0 0 .59c1.45.92 1.3-.69 2.16-.63a27.52 27.52 0 0 1 5.3 2 29.25 29.25 0 0 0 9 1.9c3.45 0 6.36-.09 9.19-1.3 3-1.28 6.1-3.38 6.38-3.45a1.54 1.54 0 0 1 1.12.31c.43.29.69.33.92-.29s-.42-1.09-1.07-1.17zM220.75 70.63a32.42 32.42 0 0 1-7.28.69c-4.3-.16-6.32-.61-6.65-.49s0 .33 0 .33 1 1.65 6.79 1.67 7.3-2.1 7.14-2.2zM226.72 38.45a19.9 19.9 0 0 1 3.73.66 28.73 28.73 0 0 1 4.16 1.83c.32.18.92.35.46-.11a10.35 10.35 0 0 0-2.86-2.46 8.4 8.4 0 0 0-5.81-.95s-.64.09-.7.49.45.43 1.02.54zM195.67 39c.58-.14.86-.09 1-.18s.15-.26-.43-.46a5.51 5.51 0 0 0-3.09-.31 9 9 0 0 0-4.33 2.54s-.57.52-.49.63.32 0 .72-.26 3-.86 3.56-1.05 2.47-.8 3.06-.91z"/><circle class="cls-4" cx="207.38" cy="83.25" r=".76"/><circle class="cls-4" cx="211.74" cy="82.2" r=".76"/><circle class="cls-4" cx="215.73" cy="84.69" r=".76"/><circle class="cls-4" cx="220.14" cy="82.43" r=".76"/><circle class="cls-4" cx="224.45" cy="83.65" r=".76"/><circle class="cls-4" cx="228.31" cy="80.84" r=".76"/><circle class="cls-4" cx="216.34" cy="89.31" r=".76"/><circle class="cls-4" cx="211.92" cy="92.81" r=".76"/><circle class="cls-4" cx="217.18" cy="97.36" r=".76"/><circle class="cls-4" cx="211.89" cy="101.4" r=".76"/><circle class="cls-4" cx="217.18" cy="105.59" r=".76"/><circle class="cls-4" cx="222.17" cy="100.82" r=".76"/><circle class="cls-4" cx="221.86" cy="109.07" r=".76"/><circle class="cls-4" cx="222.06" cy="91.75" r=".76"/><circle class="cls-4" cx="193.92" cy="169.45" r=".84"/><circle class="cls-4" cx="201.34" cy="164.31" r=".84"/><circle class="cls-4" cx="207.34" cy="170.75" r=".84"/><circle class="cls-4" cx="213.66" cy="165.9" r=".84"/><circle class="cls-4" cx="233.92" cy="170.67" r=".84"/><circle class="cls-4" cx="246.72" cy="168.51" r=".84"/><path class="cls-4" d="M243.48 193.52c-.45-.29-3.59 1.88-4.85 2.36s-4.85 1.67-4.85 1.67c.2 1 4 .14 5.79-.45a8.39 8.39 0 0 0 3.3-2c.98-.68 1.06-1.29.61-1.58zM247.24 158z"/><path class="cls-4" d="M273.53 37.07c-.58-2-4.89-9.23-4.89-9.23a55.16 55.16 0 0 0-5.44-7.49c-2.48-2.6-10.43-10.24-13.06-12.2a16.73 16.73 0 0 0-6-2.66l-2.3-.76a44.31 44.31 0 0 1-6.69-2c-1.88-.94-6-2-8.11-1.22C225-.25 221.87 0 221.05 0s-2.77.49-3.47.53-4.28.37-7 .29a31.15 31.15 0 0 0-8.72 1.51c-3.18.86-8.52 3.91-8.52 3.91s-7 4.28-10.89 6.81a43 43 0 0 0-9.51 8.95c-1.26 1.88-4.24 6.85-4.24 6.85a33.19 33.19 0 0 0-2.77 7.54 71.35 71.35 0 0 0-.86 11.95 45.89 45.89 0 0 0 1.7 9.17 69.74 69.74 0 0 0 2.6 7.1 20 20 0 0 0 3.2 4.31c1.59 1.39 4.24 4.89 5.3 5.71s4.81 3.79 5.67 4.32 3.1 1.1 3.55 1.39a25.84 25.84 0 0 0 4 2c1.1.33 4.48 1 4.48 1a22 22 0 0 0 2.33.63l-2.56.95a21.73 21.73 0 0 0-7 3.24l-.82.64c-.42.36-4.35 4-5.05 4.75s-4.07 3.61-4.89 4.25-3.52 2-4.56 3-3.55 3.49-4.43 5.29-2.08 3.3-2.32 4.16a32.11 32.11 0 0 0-1.07 4.34c0 .86-.89 4.37-1.16 5.9a28.13 28.13 0 0 0-.34 5.35 9.51 9.51 0 0 0 1 4.43 19.31 19.31 0 0 1 1.56 3.91c.31.92.8 4.49 1.07 5.78s.86 2.39 2.81 3.88a6.41 6.41 0 0 0 3.76 1.44 5.75 5.75 0 0 0 2.75 2.32 8.92 8.92 0 0 0 3.88.12c.64-.12 2.51-.24 2.51-.24a3.71 3.71 0 0 0 1.89-.62 4.26 4.26 0 0 0 1.28-2.17c.14-.89.29 5.17.33 6.63a.4.4 0 0 0 0 .22s.39 6.77.47 7.71.29 3.34.24 4.53.37 5.59.41 6.48a5.27 5.27 0 0 0 .37 2.32c.37.69 1.22.65 2 1.06s1.26 2.62 1.77 5.12l-4.65-1.27c-.75-.2-7.1 2.38-7.63 3 0 0-.93-1.83-1.56-1.86s-3.26 1.61-4.67 2.76a27.89 27.89 0 0 0-2.29 2.41l-.71.17a21.31 21.31 0 0 0-3.66 1.81c-.53.2-2.18.2-3.82.4a3 3 0 0 0-2.18 1.21c-9.24 1.58-13.95 4.26-17.95 7.77a9.53 9.53 0 0 0-2.81 9.79 13.68 13.68 0 0 0 5.87 7.38c1.37.75 4 1.1 4.27 1.81s.28 4.09.65 6.28a19.38 19.38 0 0 0 1.46 4.92v.09a3 3 0 0 0-.58.27 5.06 5.06 0 0 0-2.26 4.07 4.59 4.59 0 0 0 1.79 3.63 5 5 0 0 0 3.58.94 3.58 3.58 0 0 0 2.54-1.86 3.78 3.78 0 0 0 .39-2.37 42.7 42.7 0 0 0 13.55 1.89 5.42 5.42 0 0 0-1.26 3.2 4.39 4.39 0 0 0 2.42 4 4.51 4.51 0 0 0 3.26-.16c1.71-.73 2.07-3.47 2.07-3.47s.36-2.89-.69-4.33a62 62 0 0 0 7.74-2.36 7.26 7.26 0 0 0-1.8 1.76c-2.14 3-3 7.22-1.35 10.46s5.26 5.08 14.19 4.65c0 0 3.3-.43 5-.8s5.08-1.41 7.64-1.83 7.34-.73 8.75-1l1.41-.31a9.08 9.08 0 0 0 2.39 6.05c2.57 2.87 8.5 2.08 9.48 2s7 .06 9.66-.18 6.3-1.1 8-2.45 3.24-3 3-6-.18-4.28-2.94-6.67c0 0-1.83-1.28-2.57-1.71s-1.65-1.83-2.39-2.26a9.93 9.93 0 0 0-2.75-1.1c-.61-.06-.37-1.22.12-1.53s1.16-2.39 1.65-4.46.31-5.2.67-6.42a4.73 4.73 0 0 1 .91-2.2 8.05 8.05 0 0 0 4.77-5.75c1-4.28.73-15.29.73-16.45v-.43c.49-.2 2-.85 3.09-1.28a48.82 48.82 0 0 0 8-3.41c2.91-1.74 6-5.15 6.95-8.22a30 30 0 0 0 1.62-11.93 19.32 19.32 0 0 0-1.37-5.62 19.94 19.94 0 0 0-4.82-6.53c.07-.07 1.13-1.24 2-2.07s.8-3 1.67-3.92 1.76-1.17 2.14-2.91a9.6 9.6 0 0 0-.5-5.12c-.43-.76.67-3.43 1-5 .44-1.94 2-8.3 2.14-9.13a39.67 39.67 0 0 0 .4-6.89c-.2-1.74-1.42-5.1-1.47-6.69a20.6 20.6 0 0 0-2.31-7c-1.32-2.68-3.92-5.37-5.42-7.06a109.32 109.32 0 0 0-10.79-9l-.18-.11c-2.33-1.42-5.77-3.67-6.62-4.08-1.06-.51-6.48-3-7.17-3.11-.29-.3-.73-.9.49-1a34.66 34.66 0 0 0 9.51-2.51c.25-.12.46-.23.63-.34a50.68 50.68 0 0 0 7.29-4c3.15-2.23 5.14-3.58 6.67-4.49a20.05 20.05 0 0 0 4.81-4.61s2.23-1.77 4.92-7.25 2.26-11.34 2.45-13.18a34.47 34.47 0 0 0-.84-8.72zm-40.25-34C235 3.38 240 7 240 7a30.7 30.7 0 0 1 6.69 4.54 71.21 71.21 0 0 1 6.94 8.78c1.28 1.93 3.58 9.05 3.58 9.05a42.33 42.33 0 0 1 1.13 7.92c0 3.42.31 4.4-.76 3.82s-4.68-2.94-7.46-3.42h-.24a20.85 20.85 0 0 1-4.09-1 4 4 0 0 1-3-3.73c-.05-1.2.77-8.05.95-9.51s.41-4-.33-6.16-4-5.83-5.83-7.71a71.19 71.19 0 0 0-8.48-6.73s-.01-.44 4.18.24zM208 80.6c.92.6 2.64 4.2 3 5h-.16a33.25 33.25 0 0 1-3.29-.9A5.3 5.3 0 0 1 205 83l-.11-.13zm-3.56 1.22a4.17 4.17 0 0 1-.09-1.95c.53.11 1.24.23 2.05.35zm17.67 14.94c-.73.79-4.47 3.66-4.8 3.92a27.28 27.28 0 0 1-5.1-3.4l4.39-3.62.29.13a29.82 29.82 0 0 0 6 1.94 6 6 0 0 1-.82 1.03zm1.35 0l.12 3.39-.07 2.72a28.28 28.28 0 0 1-4.85-1.34zm-6.78-5c-2.46-1.41-4.52-2.79-5.82-4.74 0 0-.1-.22 0-.33.42.06 2 .24 3.3.41a23.84 23.84 0 0 0 5.21.08c.71-.13 2.07-.23 3.22-.33-.67.48-2.68 1.95-3.11 2.38s-1.71 1.57-2.84 2.58zm2.54-8.54c-.18-.25-1.42-1.54-1.8-1.93 1.16 0 3.15-.11 5.17-.39-.11.25-.39.92-.54 1.24s-1.73 2.63-1.73 2.63c-.24-.28-.93-1.22-1.14-1.51zm0 2.43c-1 .09-2.26.19-3.21.18-1.14 0-2.4 0-3.63-.09.62-.79 3.16-4.33 3.16-4.33.88.59 3.3 3.81 3.66 4.28zm-7.37-1.22c-.28-.6-1.94-3.2-2.34-3.82 1.6.2 3.27.38 4.67.51-.39.7-2.35 3.35-2.35 3.35zm-1.68 4.25c0-.34.06-.58.06-.58a15.44 15.44 0 0 0 5.08 4.9c-1.06.94-3.58 2.8-4.43 3.42a13.2 13.2 0 0 0 0-2.09c-.22-1.05-.77-5.27-.74-5.61zm.66 9.39c.92.73 4.19 3.19 4.75 3.52.05 0 .14 0-1 .66-.59.27-2.94 1.36-3.23 1.51-.23-1.64-.46-5.12-.5-5.68zm2.68 8.29c-.32-.29-1.82-1.43-1.67-1.53s2.39-1 3.53-1.52a15.6 15.6 0 0 0 1.82-.91 21.41 21.41 0 0 0 5.29 2 19.09 19.09 0 0 1-2.66 2.81 10.19 10.19 0 0 1-2.7 1.65c-.31 0-1.33-.37-3.64-2.46zm2.64 3.66c-.15 0-1.56-.5-1.65-.55h-.06a5.16 5.16 0 0 1-2-1.47 6 6 0 0 1-.65-1.77 35.68 35.68 0 0 0 4.57 3.48c.8.65-.09.39-.24.36zm1.44 0c.35-.12 2.15-1.3 2.66-1.63l3.24-3.22c.1.78.37 3.23-.19 4.13a4.41 4.41 0 0 1-2.42 1.36 9.34 9.34 0 0 1-3-.24c-.44-.02-.72-.17-.32-.31zm6-15.64a11.42 11.42 0 0 1-5.26-1.71l-.41-.23.65-.54 5.66-4.64a42.57 42.57 0 0 0-.63 7.21zm-2.51-8.93a4.49 4.49 0 0 0 .72-.82 31.34 31.34 0 0 0 1.94-3.55c.11-.35.31-.35.31-.35.55 0 3.53 2.74 3.53 2.74a13.2 13.2 0 0 1-1.83 1 26.39 26.39 0 0 1-4.66 1.07zm4.65-5.28l.26-.09c1.32-.45 2.52-.88 3.45-1.22l.28 2.06c.12.9 0 1.09-.18 1.27a12.09 12.09 0 0 1-1 .83l-.35-.57a7.54 7.54 0 0 0-2.45-2.19zm-2-1.13a41.57 41.57 0 0 1-16.08-.06c-5.89-1.39-8.71-2.54-13.21-5.76a38.49 38.49 0 0 1-9.44-9.47 35.32 35.32 0 0 1-3.31-5.62s-.37-1.55-.65-1.71a17.78 17.78 0 0 1-2.75-1.49 14.51 14.51 0 0 1-2.29-3.85 3.92 3.92 0 0 1 .08-2.27 3 3 0 0 1 2.49-1.61c-1.3-1.79-.82-6.2-.82-6.2a3.23 3.23 0 0 1 .94-2.12c.9-.77 3.22-1.43 5.06-1.79s12-2.45 13.25-2.65 2-.45 2.24-.45a13.57 13.57 0 0 0 6 .61s.33 0 .24-1.22 1.43-8.19 2.57-9.54a25.79 25.79 0 0 0 1.59 5.5c.53 1 1.26 6 1.47 6.48s.41.53 1.79 0a72.32 72.32 0 0 1 7.62-1.63c.82-.12 4.57-.86 7.46-.16a45 45 0 0 0 8.64 1.22 9.23 9.23 0 0 0 4-.53c.2 0 .49 1 1.22 1.71A12.52 12.52 0 0 0 244 38a13 13 0 0 1 1.76 1.71c.89 1 1.07 2.57 1.59 4.49a3.92 3.92 0 0 0 3.18 2.72c.92.18 1.19-.4 1.77-.61s1.13-.28 2.94.34a3.63 3.63 0 0 1 2.14 2.72s.76 4.19-2.6 6.3l-.06.11a7.64 7.64 0 0 1-2.78 1.53c-.7 3-2.51 5.32-5.6 8.87a43 43 0 0 1-7.4 6.48 44.9 44.9 0 0 1-5.2 2.85l-.21.13-.27.16c-2.91 1.56-7.42 2.71-9.57 3.33zm-44.47-43.78l.06-.07a5.19 5.19 0 0 0 1 1.62 8.28 8.28 0 0 0-3.59 4c-.65 1.92-.45 4.53-.65 4.73s-.17 0-.28 0a8.68 8.68 0 0 1-.86-2c-.69-2-1.14-8.44.49-13a37.31 37.31 0 0 1 4.44-8.4c-.61 1.3-1.22 5.54-1.35 8.32a11.59 11.59 0 0 0 .74 4.8zm76 9.8c-1.59-.09-4.56.67-5.32 0-1.64-1.51-1.31-2.69-2.32-4.53a19.86 19.86 0 0 0-2.34-2.85l1.82 1.15a8.51 8.51 0 0 1 1.68 1 15.66 15.66 0 0 0 3.39 2.54 7 7 0 0 0 3.76.83 17.31 17.31 0 0 1-5.2-3.49s4-.06 5.87 1.8 2.69 3.46 2.69 5.75c0 1.43-.2 1.81-.35 1.9h-.12c-.29-2.47-1.94-4.01-3.51-4.1zM216.85 2.6a4.24 4.24 0 0 1 2-.94 19.5 19.5 0 0 1 4.85-.12 3.42 3.42 0 0 1 2 .95.48.48 0 0 0 .22.27s1.3 1 2.32 4.69 1.43 9.54 1 10.64c0 0 .29.77.82-3.42s-1.39-9.87-1.39-9.87-.69-1.39.86-.57 6.56 5.18 7.5 6a36.26 36.26 0 0 1 4.65 7.34c.82 2 .61 6.16.61 6.16 0 1.74-.1 6-1.2 8.12-1.35 2.63-3.79 2-5.5 2.08a20.15 20.15 0 0 1-6.05-.67 9.76 9.76 0 0 0-2.63-.49l1.22-1.35c1.22-1.35 1.19-4.06 1.11-4.68-.44-3.35-.81-3.33-.81-3.33-.43.61 0 3.18-1.35 6.18s-3.91 3.06-6.42 3.24a46.71 46.71 0 0 0-6.6 1.28c-1.71.67-1.83-.22-1.83-.22s-.57-2.53-.86-3.51-1.1-3.51-1.39-5.14c-.25-1.4-.37-5.31-.4-6.38a35.36 35.36 0 0 1 1.75-7.61c1.32-3.31 4.42-7.79 5.52-8.65zm-9.74-.12c5.06-1.22 7.13-.37 7.13-.37-2.28.82-4.44 3.34-6.77 6.12a19.12 19.12 0 0 0-3.79 7.58c-.45 1.79-.41 2.65-.16 2.65s.37-1.67 1.83-5a28.09 28.09 0 0 1 4.77-6.93 17.23 17.23 0 0 1 3.18-2.24c.77-.41 1.71-.57.82.45a37 37 0 0 0-4.32 7.71 15.91 15.91 0 0 0-1.31 6.94s-1.22 3.29-2 5a24.87 24.87 0 0 0-1.79 5.87c-.29 1.67.08 2.69-.41 3.14a4.49 4.49 0 0 1-3.18.2c-.57-.33-1.35-.73-.69-2.77s.86-2.69.86-2.69a12.87 12.87 0 0 1-2.53 3.3A13 13 0 0 1 194 33.3c-2.36.53-5.83 1.71-6.07 1.79s-1.55 1-2.24-1.22-.94-7.91 0-10.52 3.67-7.5 4.81-8.64a34.94 34.94 0 0 0 2.66-2.71c.26-.41 4.3-4.32 4.93-4.93a1.23 1.23 0 0 0 .25-.16 20.63 20.63 0 0 1 8.77-4.43zm-12.84 5l-.12-.08c.09.07.17.11.24.09C194.71 7.37 199 5 199 5l-2.53 1.8a46 46 0 0 0-5.83 5.79 40.12 40.12 0 0 0-5.46 9.7 21.18 21.18 0 0 0-1.55 8.28c.12 1.75 1.22 3.51.9 4.65s-1.18 1.22-1.59 1.43-2.32-.82-2.85-2.53c-.15-.49-.28-.62-.39-.56a7.41 7.41 0 0 1-.4-3.56 27 27 0 0 1 6-14.31 38.36 38.36 0 0 1 8.96-8.19zm-24 21.85a31.86 31.86 0 0 1 7.34-10.93c5-4.65 8.07-5.71 8.07-5.71-.16.41-4.32 6-5.14 7.09a32.83 32.83 0 0 0-4.77 6.56 23.86 23.86 0 0 0-2.74 8.3 9 9 0 0 1-2.28 2.69c-1.55 1.22-3 4.48-3.14 4.77s-.82 1.71-.86.12 1.46-9.94 3.5-12.87zm.32 34c-.13-.24-.34-.55-.42-.75-.42-1-1.25-3.3-1.74-4.2a20.25 20.25 0 0 1-1.58-5.5c-.33-2.24-.41-7.26.94-9.09s2.39-5 4.93-6.42c-.08.93-.13 1.81-.16 2.63a13.72 13.72 0 0 0 1.75 7l.2.46a9.6 9.6 0 0 0-1.87 4.23 29.61 29.61 0 0 0 0 10.56c.49 2.41 1.1 5.18 2.36 6.69a57.31 57.31 0 0 1-4.43-5.57zM189 80.31a8 8 0 0 1-4.73-3.63c-1.67-2.65-2.61-5.26-3.14-5.14s.08 1.47.49 2.45 2.08 3.71 3.67 4.57c0 0-1.18.29-3.42-1.83a27.28 27.28 0 0 1-5.54-7.18c-1.47-2.77-3.63-10.84-3.51-13.74 0 0 1.79 8.6 4.81 10.93 0 0-3.71-6.52-3.75-12.8 0-4.15.48-5.45.83-5.85v.07a4.72 4.72 0 0 0 .18.68 9.49 9.49 0 0 0 .39 4.17 20.4 20.4 0 0 0 1.57 3.11c.14.39.5 1.35.75 2.15.33 1 1.35 4.36 1.71 5.46s3.22 7.42 6 10.15 6.07 6.28 6.77 6.69a7.76 7.76 0 0 1-3.08-.26zm5.5.82c-2.2-1.59-8.89-8.52-11.37-12.84a65.34 65.34 0 0 1-4.4-10c-.16-.41-.69-2.32.45-.77l1.18 1.48s1.57 2.49 4.51 6.54a60.28 60.28 0 0 0 9.39 9.52A43.44 43.44 0 0 0 201 78.7l.44.19a2 2 0 0 1 .76 1.05 12.31 12.31 0 0 1 .66 2.54c0 .32-.67.55-.67.55l-2.38-.03a9.3 9.3 0 0 1-5.26-1.87zM181 145.9c-.28 0-1.16.7-1.93.67a8.58 8.58 0 0 1-3.61-1 7.24 7.24 0 0 1-2-3.06 28.37 28.37 0 0 0-1.9-3.82c-.12 0-.12.18-.06.76s1.1 3.94 1.1 3.94-.52 0-1.8-.95a6.76 6.76 0 0 1-2.32-3.15 18.48 18.48 0 0 1-.67-3.3 27.49 27.49 0 0 0-1-3.55 9.09 9.09 0 0 1-.86-4.16 5 5 0 0 1 1.65-3.12 23.66 23.66 0 0 1 5.63-6.51 11.62 11.62 0 0 1 7.8-2.11c.28 0 1.71 0 .55.4a17.41 17.41 0 0 0-4.46 2.78 9.4 9.4 0 0 0-1.5 3.33c-.12.86-1 2.84-.89 2.9s.4-.4 1-1.56 1.74-3.64 3.67-4.92a8.17 8.17 0 0 1 5.6-1.65c2.23.12 2 1 2.75 1.47a12.8 12.8 0 0 1 2.75 1.56 3 3 0 0 1 1 2.45v.18l-2.2-1.87a5.91 5.91 0 0 0-1.49-.85 5.91 5.91 0 0 0-2.84.61 12 12 0 0 0-2.78 2c-.64.73-2.45 3.42-3.52 8.35a20 20 0 0 0 0 9.48c.37 2 3 4.68 3 4.68zm7.18-23.13l-2.88-.12v-.06l1.75-.73c.35.23 1.16.92 1.16.92zm-4.31 22.29c-.06.46-.59 1.09-.94.87a2.56 2.56 0 0 1-.31-3.49c.58-.86 2-.7 2.52-.61-.04.17-1.14 2.79-1.24 3.24zm1.93-7.89a24.4 24.4 0 0 0 .83 3.33c.18.26-.46 0-.66-.06a.08.08 0 0 0-.06 0c-.37 0-2.11.06-2.78.12a2.84 2.84 0 0 1-2.51-.79c-.86-.89-.89-2.2-.86-4.56a26.34 26.34 0 0 1 1.83-8.75 4.89 4.89 0 0 1 3.33-2.75v-.07c.76 0 4 0 4.77.18a2.6 2.6 0 0 1 1.53.76c.09.18-.86.06-2.14 1.07s-2.48 3.61-2.94 5.14a18.31 18.31 0 0 0-.32 6.39zm1.65.61c-.34.21-.46-3.52-.15-5.38a15.4 15.4 0 0 1 2.23-5.32 4 4 0 0 1 2.36-1.37 7.3 7.3 0 0 0 4.59.61c2.66-.49 2.57-.73 5.23-2.81s2.72-5 3.15-6.24.28-3.64 1.71-3.39 1.35 2.9 1.53 4.43a17 17 0 0 1-.21 3.85l-.12.05c-.43.19-1.94.85-2.46 1.1-.7.34-1.16.43-1.16.83s.28.34.76.15a8.23 8.23 0 0 1 3.09-.73 4 4 0 0 1 3 1.53c.37.67-.06 1.53-.95 2.08a11.71 11.71 0 0 1-3.61.76c-.28 0-.49.28.06.49a2.67 2.67 0 0 0 1.8.15 8.05 8.05 0 0 0 3.27-1.16c.49-.49 1 .31 1.13.83a2 2 0 0 1-.7 2.45 13.88 13.88 0 0 1-3.49 1.07c-.64.12-1.31.4-1.38.58s.21.34.8.43 2.32-.43 3.21-.49A10.34 10.34 0 0 0 213 132a4.16 4.16 0 0 1-.21 2.23c-.46.89-.4 1.13-1 1.25s-3.64.49-4.1.7-.83.43-.67.67.86.06 1.47.06 3-.49 3.21-.31.12.7-.58 1.25-.31 1.13-4.83 2a27 27 0 0 1-8.32.34c-1.16 0-4.46-1.53-6-1.77s-4.16-.84-4.49-.63zm1.4 27.76c-.24-1.22-.86-2.28-.29-3.06s.45-1.26 3.14-1.26c.67 0 1.53 0 2.44.11-.55.7-4.17 5.27-5.11 6.67a18.93 18.93 0 0 0-.16-2.45zm2.61 6.65c-1.24 0-1.86.07-2.14-.51.09-.27.08-1.26.26-1.92.24-.9 4.91-7.54 5.52-7.71s1 .75 1.55 2.14S198.76 170 199 171a13.41 13.41 0 0 1 .26 1.5c-3.09-.17-6.88-.33-7.78-.3zm63.28-5.79c0-.22 0-.78-.08-1.56h.06a8.53 8.53 0 0 1 3.35 4.15 12.66 12.66 0 0 1 .11 6.85 7.74 7.74 0 0 1-2.79 3.72 15.54 15.54 0 0 1-4.77 2.83c0-2.81-.1-7.25-.1-7.25l.12-2.81a7.27 7.27 0 0 0 .83-.06c.37 0 1.33-.1 1.84-.19s1-.24 1.26-1a18.9 18.9 0 0 0 .19-4.67zm-1.29.53a2.26 2.26 0 0 1-1.68 2.13s-1.28-3-2.34-5.36a10 10 0 0 0-2.12-3.21s1.78.7 2.3 1l.78.4v.06a.84.84 0 0 0 .84.84.82.82 0 0 0 .51-.18 12 12 0 0 1 1.28.8 8.93 8.93 0 0 1 .44 3.53zm-.21-7a1.73 1.73 0 0 1-1.19.58c-.79 0-2.79-1.64-3.18-1.87s-.54-.7-.1-1.41a4.81 4.81 0 0 1 2.58-2.21 9.1 9.1 0 0 0 3-1.61c.67-.55.85-1.14 1.31-1 0 0 1 .67 1 1.51s0 1-.9 2.74a10.84 10.84 0 0 1-2.44 3.15zm3.16-9.8c-.74.74-3.13 2-3.58 2.58a4.2 4.2 0 0 1-1.34 1.37 1.39 1.39 0 0 1-1.67-.3c-.37-.37-.22-1-.77-2.36a16.85 16.85 0 0 0-1.52-2.79 9.06 9.06 0 0 0-5.87-3.58 14.18 14.18 0 0 1-1.84-.27c-.37-.13-.27-.82.3-1.67s1.31-2.29 1.57-2.74a3.18 3.18 0 0 1 2.44-1.54 11.63 11.63 0 0 1 5.46 1c1.62.75 2.83 1.34 3.35 2.14s.65 1.91 1.47 2.81a12.5 12.5 0 0 1 2.31 3.21c.35 1.01.44 1.4-.3 2.14zm-14.19-3.75a11.25 11.25 0 0 1 3.75 2.91l.33.33s1.62 2.39 1.87 2.91a7.71 7.71 0 0 1 .67 2.08c0 .74-1.41 2.56-1.54 3.31a1.8 1.8 0 0 1-.23.61c.1-.29.19-.5.22-.58a7.49 7.49 0 0 1-.34.76l-.06.07v.09a8.36 8.36 0 0 1-4.45 3.79 16.59 16.59 0 0 1-4.55.37c-.87-.31-.3-.91-.22-1.11a9.72 9.72 0 0 0 1.93-1.39c.07-.11.17-.28.36-.55a6.49 6.49 0 0 0 .17-4.85c-.69-1.79-1.61-4-1.74-4.55s-.89-1.2-.84-.33a1.63 1.63 0 0 1-.54 1.54 16.85 16.85 0 0 0-5.12 2.38s-1.57.65-1.71.33-.15-.75.57-1.94a16.15 16.15 0 0 1 5.15-4.22c1.32-.49 2.64-1.91 3.15-2a5.71 5.71 0 0 1 3.18.04zm-19.48 31.38c-1 1-2 2.07-2 2.09a1.46 1.46 0 0 1-.47.23.7.7 0 0 1-.33-.07 2.2 2.2 0 0 1-.4-.4c-.07-.13.15-.33.15-.33s2.78-2.92 2.95-3 .45.27.45.27a.41.41 0 0 1 .13.28 1.55 1.55 0 0 1-.47.87zm-7.28.44a13.66 13.66 0 0 1 2.76 1.87 4.61 4.61 0 0 1-.2 1.29l-.1.72c-.1.72-1.58 7.43-1.69 7.92-.65 3-2.59 4.34-3.43 4.32-.45 0-2.18-1.52-5.37-3.65s-3.59-3-3.61-3.38a10.2 10.2 0 0 1 2.19-2.69c.41-.28 7.42-6.93 7.88-6.93a4.59 4.59 0 0 1 1.58.52zm-.2-2.44l2.65-2.36a1.48 1.48 0 0 1 .71-.06 5.82 5.82 0 0 1 1.44.72 3.54 3.54 0 0 1 1.14 1s.26.5.13.65-2.1 2.6-2.31 2.74-.27.42-.47.18a7.49 7.49 0 0 0-1.71-1 5.11 5.11 0 0 1-1.71-1c-.26-.35.14-.88.14-.88zm2.16 13.81c0-.42 1.24-7.73 1.24-7.73a2.92 2.92 0 0 1 .26-1.21l.07-.06c.3-.15.59.44.64.77 0 0-.2 5.71-.2 6.38a2.5 2.5 0 0 1-.25 1.26 5.15 5.15 0 0 1-1.26 1.22c-.39.14-.5-.2-.49-.65zm4.34-16.62a4.64 4.64 0 0 0-2.43-1c1.46-1.84 4.21-5.57 4.21-5.57a1.09 1.09 0 0 1 1-.12 7 7 0 0 1 3.61 2.66 1.13 1.13 0 0 1 .13 1c-.15.64-2.93 4.1-3.08 4.48a2.74 2.74 0 0 1-.39.59c-.51.38-.71.3-.71.3zm9.29-3.3c.45-.57 2.49-3.1 3.64-4.49a53.4 53.4 0 0 1 5.55 6.35c.14.43-.42.66-1 .8a111 111 0 0 1-11.08 1s2.27-2.88 2.85-3.67zm4.13-5.09l.29-.33a8.55 8.55 0 0 0 .55-.84 2.68 2.68 0 0 0 1.34 1.25 7.9 7.9 0 0 0 2.31.31.84.84 0 0 0 1.67-.09 4.89 4.89 0 0 0 .59-.15c.85-.28 2.12-.85 3-1.24a20.12 20.12 0 0 1-3.51 7.49s-.2.16-.94-.53c-.58-.58-3.47-3.64-5.3-5.88zm-2.64-9.56s1.67 1.05 1.88 1.63-.48 1.15-.48 1.15l-.07.09h-.31a3.43 3.43 0 0 1-1.3-.69c-.19-.19-.66-.88-1.15-1.05.31-.28.92-.81 1.29-1.1a.33.33 0 0 1 .14-.03zm-2.37 2.06c.16-.08.48.1.61.25a3.92 3.92 0 0 0 1.61 1.39.94.94 0 0 0 .73.08l-.37.45a1.77 1.77 0 0 1-.37 0 2.39 2.39 0 0 1-1.33-.63c-.37-.33-.51-1-1-1.3zm1 3a1.34 1.34 0 0 0 .82.15l-.19.23a1.63 1.63 0 0 1-.61 0 2.56 2.56 0 0 1-1.28-.58c-.41-.38-.68-.94-1-1.17l.16-.21c.15-.08.23 0 .37.15a9.39 9.39 0 0 0 1.72 1.37zm-1.16 1.2a2.1 2.1 0 0 0 1 .15c-.6.72-1.1 1.31-1.27 1.48-.51.53-1 1.09-1.73.78a4.37 4.37 0 0 1-1.61-1.31c-.06-.14.05-.4.15-.6l1.53-2a.32.32 0 0 1 .33.06 8.23 8.23 0 0 0 1.6 1.44zm-1.84 3.74a2.24 2.24 0 0 0 1.81-.58c.15-.13 5.36-6.18 5.62-6.73a2.44 2.44 0 0 0 0-1.81 12.85 12.85 0 0 0-1.55-1.89 3 3 0 0 1 2.76.14 3.53 3.53 0 0 1 .9 1.77 3.81 3.81 0 0 1 .13 2.81c-.54 1.2-4 5.24-4.52 6.06a23.53 23.53 0 0 1-3 3.51c-.45.33-.83.45-1.39-.37a2.46 2.46 0 0 0-.23-.28c-.47-.47-1.61-1.59-2.11-2a3.53 3.53 0 0 0-2.2-1l.24-.47.76-1 .24.3a6.69 6.69 0 0 0 2.54 1.54zm-5.42.08l-.43-.82c-.13-.23-.41-.64-.41-.64s-.11-.6.11-.69H224.48zm-.74.92l-5.38 6.81-.59.59h-.66a37.57 37.57 0 0 0 1.88-3.52c.43-1.08 2.06-5.36 2.36-5.77s.89-.57 1.52.6c-.03.02.34.5.87 1.29zm-5.8 3.71a6 6 0 0 1-2.54 3.31 10.11 10.11 0 0 1-.91-.45 16.66 16.66 0 0 1-.95-2.19c-.19-.49-1.85-6.1-2.65-7.39l1.3.14c.44 0 4.39 0 7.71-.08a62.87 62.87 0 0 1-1.97 6.68zm-4.71 3.3c0 .19 0 .35-.49.42-1.7-.14-6.34-.52-7.73-.68-.31 0-.83-.08-1.5-.12a18.81 18.81 0 0 0 2.46-3.83c.65-1.65 2.75-5.18 3.24-5.44s.57-.43 1.28 1.28 2.71 8.19 2.73 8.36zm-10.6-1.26c-.57.49-2.83-8.79-4.11-10.19 1.87.19 3.51.41 3.84.47s3 .34 5.42.6c-.54 1.03-4.61 8.67-5.16 9.14zm-11.08 8.08a20.57 20.57 0 0 0 2.31.85 14.14 14.14 0 0 0 .85 3c-.72-.07-2.76-.1-2.61-.6a2.29 2.29 0 0 0-.25-1.41l-1-1.61s-.69-.81.69-.21zm-1.81 8a41.18 41.18 0 0 1 5.38-2.24 1.35 1.35 0 0 1 .67.19 7.22 7.22 0 0 1 .32.8v2.09c-.81-.14-3.19-.48-6.37-.85zm-1.05-8.12c.18-.05 1.1 2.06 1.1 2.06.1.35.65 1 .15 1.15s-.75-.8-.75-.8a11.12 11.12 0 0 1-.51-2.42zm-4.72 1.2s2.64-1.15 3.06-.85a5.74 5.74 0 0 1 .85 2.56c-.06.29-.2.62-.51.62-.5 0-4.89-1.26-5-1.61s1.59-.72 1.59-.72zm-1.81 3.31a.6.6 0 0 1 .85-.45 25.38 25.38 0 0 0 5 1.36 5.55 5.55 0 0 0 3-1c.48-.23 1 .15 1.36.55s-.65.8-.65.8l-4.61 2c-1.51-.16-3.13-.32-4.8-.46a15 15 0 0 1-.15-2.8zm-7.18-.7a10.2 10.2 0 0 1 4.42-3.06c.25.06.55.64.69.91a.55.55 0 0 0 .07.14 7.58 7.58 0 0 1 .4 3.56c-.13.7-.33 1-.8 1s-5.2-.65-5.42-1.1.64-1.45.64-1.45zm-3.62 2.48a1.76 1.76 0 0 1 1.1-.45c-.14.35.18.77.39 1h-2.35a4.69 4.69 0 0 0 .86-.55zm-19.42 26.65a4.94 4.94 0 0 0 .5-.41 5.29 5.29 0 0 0 1.27-3c.12-1.15-.32-.37-.44-.23a9.09 9.09 0 0 1-1.17 2.08 3.85 3.85 0 0 1-1.73 1.28 6.14 6.14 0 0 1-.71-.26 14 14 0 0 1-1.44-.66l-.18-.11a3.51 3.51 0 0 0 1.09-.83c.59-.57.92-1.41.7-1.51s-1 .9-1.74 1.31a2.55 2.55 0 0 1-1 .35 11.64 11.64 0 0 1-3.69-4.77 4.37 4.37 0 0 0 1.78.51 2.58 2.58 0 0 0 2-.55c.54-.45.08-.55.08-.55a3.52 3.52 0 0 1-2.11.17 8.07 8.07 0 0 1-2.34-1.52 8.16 8.16 0 0 1 0-3.79 3.13 3.13 0 0 0 2.06 1.72c.74.22 1.12.28 1.27 0s-.6-.32-1.47-1.17a6 6 0 0 1-1.25-2.12 12.11 12.11 0 0 1 4-4.21 4.23 4.23 0 0 0 2.2 2.88c1.51.7.7-.23.7-.23a16.65 16.65 0 0 1-1.36-1.54 2.79 2.79 0 0 1-.56-1.75c.74-.45 1.55-.91 2.44-1.36.54-.17 1.28-.61 2.78-1.18a4.39 4.39 0 0 0 1.14 3.11c1 .8.5-.13.5-.13a3.75 3.75 0 0 1-.77-1.77 2.68 2.68 0 0 1 .21-1.59 47.19 47.19 0 0 1 4.88-1.32 4.51 4.51 0 0 0 .56 3.48c.87.94.5 0 .5 0a10.19 10.19 0 0 1-.33-1.77 2.1 2.1 0 0 1 .52-1.94c1.22-.25 2.58-.49 4.13-.74a49.69 49.69 0 0 1 8.39-.42 4.78 4.78 0 0 0-.29 2.06c.08 1.15 1.1 2.09 1.41 2s-.52-1.09-.54-2.11c0-1.24.34-1.72.9-1.92 1.58.06 3.19.15 4.77.27a3.32 3.32 0 0 0-.25 1 3 3 0 0 0 .64 2.21c.44.49.1-.45 0-1a3.3 3.3 0 0 1 .46-2.11c2 .17 4 .37 5.87.58a6.42 6.42 0 0 0-.28.7 5.25 5.25 0 0 0 0 3c.14.31.49 1 .41 0a7.46 7.46 0 0 1 .6-3.39l.13-.22c1.81.22 3.43.43 4.75.62a6.16 6.16 0 0 0-.19 1.42 5.25 5.25 0 0 0 1 2.78c.23.26.75.77.4-.08a7.46 7.46 0 0 1-.44-3.42 3 3 0 0 1 .19-.63c1.69.25 2.7.42 2.7.42a.72.72 0 0 1 .51.54c0 1 0 2.11.05 3.13a3.2 3.2 0 0 1-2.12 1.36s-2.24-.28-4.81-.64a2.25 2.25 0 0 1-.2-.51 5.3 5.3 0 0 1 .15-2.46c.21-.62-.14-.24-.29-.05a3.64 3.64 0 0 0-.51 2 4.62 4.62 0 0 0 .16.88c-1.21-.17-2.45-.35-3.53-.52l-1.37-.18a2.55 2.55 0 0 1-.57-1.41c-.11-.79.28-1.92.1-2-.44-.12-.9 1.08-.9 1.94a2.3 2.3 0 0 0 .3 1.33c-1.64-.16-3.57-.27-5.54-.35a.83.83 0 0 1-.47-.94 2.34 2.34 0 0 1 .67-1.37c.32-.25.2-.57-.64.07s-1.1 1.69-.43 2.25c-2-.06-3.91-.08-5.61-.06a2.78 2.78 0 0 1-.79-1.86 5.08 5.08 0 0 1 .17-1.94s.08-.77-.6.13a4 4 0 0 0 0 3.7c-.64 0-1.35.06-2.1.11a3.28 3.28 0 0 1-1-2.37c.15-1.31-.08-1.22-.54-.7a3.34 3.34 0 0 0 .13 3.19 57.25 57.25 0 0 0-7.47 1.15 2.4 2.4 0 0 1-.69-1.43 3.84 3.84 0 0 1 0-1.44s-.33-1.05-.72.7a3.25 3.25 0 0 0 .31 2.44 13.58 13.58 0 0 0-3.2 1.23 4.42 4.42 0 0 1-1.92-1c-.75-.77-.85-.6-.8-.1a4.08 4.08 0 0 0 1.74 1.8 6.71 6.71 0 0 0-2.38 3.19 5.76 5.76 0 0 1-3.21-1c-.23-.13-.6.2.64 1.14a5.13 5.13 0 0 0 2.3 1 11.36 11.36 0 0 0-.14 1.21c-.09.18-.32 1.07-1.09 1.32a4.64 4.64 0 0 1-1.81 0c-.2 0-.54.28.13.5a5.64 5.64 0 0 0 2.24.07 1.26 1.26 0 0 0 .62-.27 3.87 3.87 0 0 0 .46 1.19 1.85 1.85 0 0 1-.94.89 4.67 4.67 0 0 1-1.64.5c-.38 0-.79.35.2.47a4.08 4.08 0 0 0 2.31-.3 2.58 2.58 0 0 0 .83-.71 3.11 3.11 0 0 0 1.09.52 14.76 14.76 0 0 0 2.36.33 1.92 1.92 0 0 1 .23 1.63 5.19 5.19 0 0 1-.6 1.67c0 .08-.23.55.54-.07a2.79 2.79 0 0 0 1.09-2.28 2.58 2.58 0 0 0-.11-.87 6.86 6.86 0 0 1 2.42.44c.8.53 1.48 1.36.9 3.21s-1.1 2-2.56 2.11a24.14 24.14 0 0 1-5-.15zm40.16-16.56c-.54.37-.92.73-1.16.83a3.22 3.22 0 0 1-.74.18c0-.39.14-1.28.49-1.28a8 8 0 0 1 1.41.27zm-30.48-.72c4.1-.42 9.77-.92 11.55-1 0 .17.63.08.7.6a1.33 1.33 0 0 0 .8 1.2c.65.38 6.45.83 8.18 1.1s4 .83 4 1.1-.2.6-1.26 1.26c-.28.19-2.57 1.67-8.2 2.19-6 .55-12.7.05-16.32-1.13-3-1-6.43-2.84-6.93-3a17.7 17.7 0 0 1 7.48-2.33zm16.17-.45c-.83.07-1.3-.12-1.46-.35 3.84.19 10.51.52 11.15.85.88.45 1.15.9 1 1.76-.74-.08-9.74-2.34-10.74-2.27zm-23.35 37.3c-.38.18-1.74 0-1.93-2.15a3.54 3.54 0 0 1 2.05-3.34 8.41 8.41 0 0 0 1.91 1.87 4 4 0 0 0-1.13.86c-.95.97-.52 2.54-.9 2.75zm3.52-.56c-.23.7-1.2 1.39-1.73 1.14s-.81-.9-.43-2.08a2.52 2.52 0 0 1 1.68-1.47l.48.26a6.23 6.23 0 0 1 0 2.15zm17.55 6.48a2.42 2.42 0 0 1-2.5-1.86c-.35-1.36.15-3.39 1.61-4s2 .15 2 .15a5.54 5.54 0 0 0-1.51 2.9c-.18 2.05.94 2.67.41 2.81zm2.62-2.41a.81.81 0 0 0 0 .1c-.07.45-.39 2.19-1.14 2.11s-.75-1.87-.65-2.51.55-2.46 1.36-2.51.61 1.98.44 2.81zm.3-5.9c-4.61.77-12.54.67-17.77-1.08-4.74-1.58-5.32-3.92-5.32-3.92s-1.28-4.72-1.66-7.23 0-3.54.3-3.56 3.36 0 4.47 0 1.68-1.08 2.11-2.11a7.93 7.93 0 0 0-.05-4.77c-.55-1.43-3.44-1.33-4.72-1.56s-2.76-.15-3.56-1.46-.2-4.49.4-4.62 2 1.08 4.92 2.36 10.19 2.26 15.61 2.31 11.65-1.48 13.71-2.51c0 0 5.7-2.61 6.38-3s2.43-1.28 2.76-1.05.53.27.67.64c.44 2.31.6 4.89.76 5.84s1.16 5.5 3.14 8.24c-1.2 1.54-1.86 4.92-2 5.91s0 1.93-.3 2.11-3.26 2.36-7.78 5a39.52 39.52 0 0 1-12.06 4.46zm29.89-10.74c3.73 1.28 12.41.12 12.41.12s-2.81 2.87-8.93 3.12c-4.17.17-5.92-.63-6.62-1-.21-.91-.39-1.65-.48-2a8.26 8.26 0 0 1-.26-2.52c.46.66 1.3 1.4 3.89 2.28zm-3.36-3.64c3.45 1.47 8.38 2.6 12.74 1.6a19.16 19.16 0 0 0 3.58-1.3.5.5 0 0 1 .46.32 7.46 7.46 0 0 1 .1 1.1c-2.12 1.18-7.46 2.23-11.78 1.41-3.32-.69-4.66-2.37-5.09-3.13zm.25 15.94c-.22-.81 3.23.11 3.63.24h.07c-.46.07-1.1.2-1.7.31s-1.77.26-1.99-.56zm1.64-2.87l-.92-4c1 .83 2.89 1.37 5.51 2 3.06.73 9.23-.37 8.75 0a10.41 10.41 0 0 1-2 .86 24.31 24.31 0 0 1-11.36 1.19zm-1.87-2.73c.43 1.68.61 2.93.34 3.34-.49.73-5.5-2.14-10-2.2a23.24 23.24 0 0 0-5 .41c2.77-1.36 7.13-4 7.72-4.26s.88-.55 1 .1a2.55 2.55 0 0 0 1.91 2 10.61 10.61 0 0 0 3.11.45 10.56 10.56 0 0 0 .93.16zm-10.61 2.33h1.06a6.34 6.34 0 0 1 2.29 2.41 1.22 1.22 0 0 1-.37 1.83 21.23 21.23 0 0 1-5.34 1.35c-1.06 0-.53-1.55-.2-3.22s2.57-2.41 2.57-2.41zm3.39.62a13.3 13.3 0 0 1 2.48.4s2.72 1.1 2.84 1.85-1.21.89-1.41 1c-.82.08-2.41 0-2.45-.24a2.59 2.59 0 0 0-.61-1.43c-.39-.48-1.33-1.42-.87-1.59zm6.58-5.21c-.08.58.13.7-.8.6s-2.89-.58-3.16-1.31a16.39 16.39 0 0 1 .2-6.18c.38-1.92 1-2.54 1.41-2.85l.33.22a29.87 29.87 0 0 0 1.26 7.12c.26.8.51 1.59.73 2.34zm-18 7.43a3 3 0 0 1 .68-1.2 9.89 9.89 0 0 1 4.3-1.49c-1.2 1.07-1.55 5.48-1.55 5.48a4.4 4.4 0 0 1-2.2-.35s-1.56-1.53-1.26-2.4zm-2.6 5.11a8.23 8.23 0 0 1 .16-1.67 2.39 2.39 0 0 1 .67-.66.93.93 0 0 1 .72.26 8.32 8.32 0 0 0 4.4 1.67 21.89 21.89 0 0 0 0 2.77c.12.49-.13.42-.51.42h-.3c-2.45-.13-3.87-.58-4.83-2.09a3.38 3.38 0 0 1-.31-.7zm6.77 7.72h-.24c-2.41-.52-4.82-1.54-5.73-3.25-.07-.37-.06-.71.17-.79.48-.16 2 .9 5.35 1.08a3.77 3.77 0 0 0 .09 1.61c.18.41.48 1.15.32 1.35zm1-5.12c-.12-.4-.39-3-.06-3.25 0 0 .2.12 1.55-.08s5-1.22 5.67-.61.82 3 .2 3.51a1.86 1.86 0 0 1-.52.28l-.48.12h-.31c-1.53.14-3.05.24-4.49.24h-1.35c-.21.01-.24-.06-.29-.21zm7.48 4.5h-.07l-1.75.3H195l.08.05c-1.1.17-2.28.31-3.39.36.08-.13-1-.11-1.22-1.35-.29-1.43 0-1.67.61-1.79h.06l2.07-.17s4-.57 4.53 0a1.92 1.92 0 0 1-.57 2.6zm1.39-9.54c.24-.49 1.26-.49 1.26-.49.3 0 1.59-.06 2.14-.06a2.73 2.73 0 0 1 1.16.39c1 .73 1.55 3.55 1.43 3.75a38.32 38.32 0 0 1-5.12.92 3.79 3.79 0 0 0-.13-1.61c-.38-1.07-1.07-2.41-.82-2.9zm6.4 7.3a2.22 2.22 0 0 1-1.42 1.26c-1.54.18-3 .37-4.15.57a15 15 0 0 0 .31-1.75c0-.61 0-.9.49-1.06s4.2-.86 4.61-.57.24.93.12 1.55zm.9-6.16c-.45-1-.57-1.3-.08-1.3a9.7 9.7 0 0 0 2.36-.08c.9-.2 1.1-.61 1.1-.61a8 8 0 0 1 1.83 3.51v.1c-1.18.26-2.62.53-4.47.79a16.13 16.13 0 0 0-.83-2.41zm4.79-2.63a24.3 24.3 0 0 0 4.48.3.49.49 0 0 1 .27.13 10.18 10.18 0 0 1 .89 2.08 15.27 15.27 0 0 1-2.11.89c-.43.14-.88.28-1.38.41a7.81 7.81 0 0 0-2.24-3.82zm-.3 8.87a2.42 2.42 0 0 1-.51.42l-.79.11-1.37.17c-.44 0-1-.11-1-.45 0-.57.2-2 .2-2s-.16-.24.35-.33a34.27 34.27 0 0 0 4.17-.5 5.74 5.74 0 0 1-1.14 2.57zm6.17-2.85a4.29 4.29 0 0 1-1.31 2.39l-2.54.44a4 4 0 0 0 .58-2.89 16 16 0 0 0 3.13-1l.24-.12a4.82 4.82 0 0 1-.19 1.18zm.24-6a9.53 9.53 0 0 0 2.52-1.15 1.22 1.22 0 0 1 .34.15l.21.16a1.32 1.32 0 0 1-.33 1.06 7 7 0 0 1-1.81 1.5 5.12 5.12 0 0 0-.4-.89zm2.19 6.16a4.68 4.68 0 0 1-1.23 1.79h-.1a5 5 0 0 0 .69-2.66 8.14 8.14 0 0 0-.07-1.29 5.14 5.14 0 0 0 1.81-1.28 12 12 0 0 1-1.19 3.42zm1.16-10.09c-.31 1.28-2.57 2.39-2.87 2.51-.07 0 0 0 .11.05a16.71 16.71 0 0 1-4.21.56 13.83 13.83 0 0 1-6.05-1.22 25.72 25.72 0 0 0 9.05-1.28 17.35 17.35 0 0 0 4.09-2 9.51 9.51 0 0 1-.21 1.35zm-5.44-2.45a23.71 23.71 0 0 1-9.91-2.39c1.1.37 7 .18 9.85-.49a19.32 19.32 0 0 0 5.63-2.69v3.62c-.32.5-1.44 1.88-5.66 1.93zm3.25-10.91c-3.06 1.28-8.38 2.14-11.62.49a13.5 13.5 0 0 1-2.08-1.83c-.86-1-3.85-8.38-4-8.26a20.16 20.16 0 0 0 1.93 6.47 1.41 1.41 0 0 1 .15.8c-.06.43-1.59.13-2.69-2.32a43.93 43.93 0 0 1-2.87-14l-.43-6.6s3.3 3.24 3.85 2.69-2-1.9-3.24-3.91a34.38 34.38 0 0 1-2.18-4.69l-.53-1.6a27.72 27.72 0 0 1-.92-4.64c-.08-1.67-.12-2.69 1-3.14a9.68 9.68 0 0 1 4.4-.65c1.18.24 6.85 1.35 8.28 1.59a26.74 26.74 0 0 0 3.46.32h.33l2.52.5-2.43 2.43-6.18 5.72c-.2.18-2.6 2.4-2.62 3.62a1.11 1.11 0 0 0 .44.92s8.23 6.13 9.47 6.78 4.65-2.87 4.65-2.87l1.51-1.22c.4 2.26.74 4.33.92 5.55.55 3.73 1.83 11.93 2 13.82s-.04 2.75-3.12 4.03zm3 24.65s-.12-.49.55-.18a5.2 5.2 0 0 0 2.63.43c.06 0 .2 0 .31.42a8.78 8.78 0 0 1 .2 2.63.66.66 0 0 1-.78.52 3.33 3.33 0 0 1-2.14-.81 3.63 3.63 0 0 1-.77-3.01zm8-17a62.4 62.4 0 0 0 7.89-.12c-5.87 2.69-13.46 1.34-15.1.9 0-.57-.05-1.09-.07-1.51s0-1.09 0-1.7c.94.91 4.13 2.2 7.28 2.43zm-7.17-4.92a10.28 10.28 0 0 1 .2-1.32c.28-1.19.41-1.91 1.21-2.1a6.68 6.68 0 0 0 2 1.49 21.12 21.12 0 0 0 9.72 1.71 17.26 17.26 0 0 0 5.14-1.16 25.43 25.43 0 0 1-12 2.81c-4.51-.03-5.85-.93-6.24-1.43zm12.58 15.53a4 4 0 0 1 1.73-.38 13.58 13.58 0 0 1 3.07.17c.86.29 1.82 2.77 1.77 2.89a52.24 52.24 0 0 1-6.25.17 1.3 1.3 0 0 1-.66-.95c-.07-.69-.22-1.52.37-1.9zm-.55-1.13a.85.85 0 0 1-.24-1 .77.77 0 0 1 .31-.23c1 0 1.91-.07 2.79-.08a1.45 1.45 0 0 1 .52.19c.4.23.72.86.64 1s-1.3 0-2 .08a8.43 8.43 0 0 1-1.99.04zm4.49-3.79a4.81 4.81 0 0 1-2.87 1.35c-1.16.18-4.65.37-5.93.55a32.75 32.75 0 0 1-5.44.49c-1.28-.12-1.9-2.2-2-3-.06-.4-.14-1.45-.21-2.6v.09c1.71 1.9 4.34 2.45 8.38 2.75a36.82 36.82 0 0 0 8.8-.71 3.75 3.75 0 0 1-.69 1.07zm-16.05 9.16c.06-.44.81-.83 1.33-1s1.36-.67 1.44-.69a8.43 8.43 0 0 0-.6 2.17 5.56 5.56 0 0 1-1.79.15.58.58 0 0 1-.35-.64zm2.4-3.07a11.1 11.1 0 0 0-2.81 1.66 2.83 2.83 0 0 1 .07-1.39 4.09 4.09 0 0 1 .67-1 9.4 9.4 0 0 1 1.28-1.16 8.23 8.23 0 0 1 .85-.39 2.9 2.9 0 0 1 1.41 0s.08 0-.06.34a7.39 7.39 0 0 0-.34 1.25c.02.3-.77.54-1.03.68zm2.48.73c1.09-1 2.11-1.36 4.71-1.7a8.8 8.8 0 0 0 .64 2.79c.08.17-.11.24-.83.4s-4.66.92-5.6 1a3.49 3.49 0 0 1 1.11-2.52zm.41-2.57a5.92 5.92 0 0 1 4.63-1.33 3.93 3.93 0 0 0-.29 1 13.72 13.72 0 0 0-4.3.91s-.56.04-.01-.58zm-3.34 15.39a2.65 2.65 0 0 1-.94-.19 4.12 4.12 0 0 1-2.08-2.8c-.05-.22-.09-.49 0-.54s1.13.47 2.31.58a10.41 10.41 0 0 1 1.56.12 11.41 11.41 0 0 1 1 2.58c.01.15-1.04.24-1.81.25zm1.69-6.22c0-.47-.28-1.74.06-2.14s2.77-.55 3.29-.67 3.41-.58 3.81-.58.14 0 .37.37a22.63 22.63 0 0 1 1.36 4.33s.06.49-.8.64-5.57.14-5.57.14-1.68.09-2-.28a3.24 3.24 0 0 1-.46-1.81zm9.49 4.59c0 .63 0 1.41-.44 1.67a3.08 3.08 0 0 1-1.38.16c-1.65-.15-3.49-.16-5.15-.15a1.42 1.42 0 0 1-.92-.77 5.62 5.62 0 0 1-.83-2.13c.06-.28.81 0 2.52.11s5.21 0 5.53 0a1 1 0 0 1 .71 1.11zm.81-3.88c-.21-.64-1.25-3.79-1.09-4.25s1-.32 1.82-.28 4.13-.4 4.8-.31 1.15 1.18 1.41 1.64.73 1.47.9 1.91a1.7 1.7 0 0 1-.2 1.57c-.55.7-1.1 1-3.27 1a13.25 13.25 0 0 1-4-.72c.2-.23-.12.1-.33-.57zm7.19 4.79a3 3 0 0 1-1.07.86 29.8 29.8 0 0 1-3.89.34 1.35 1.35 0 0 1-.92-.91c-.14-.73-.18-2.11.09-2.25s2.75-.08 3.72-.17a17.15 17.15 0 0 0 2.9-.66c.43-.14.01 1.84-.8 2.78zm6-5.63a6.14 6.14 0 0 1-.68 3.47 6 6 0 0 1-3.45 2.33 7.71 7.71 0 0 0 .68-3.38 7.14 7.14 0 0 0 2.75-1.45 2.33 2.33 0 0 0 .73-.98zm-.67-2.93v.13a4.55 4.55 0 0 1-1.64 3s-.92.7-1.36.52-.33-1.16-.51-1.54A27.3 27.3 0 0 0 244 238c-.26-.26.06-.35.35-.24s3.83.56 4.45.8zm-2.94-3.76c.6.44 1.56 1.21 1.48 1.5s-3.58-.21-3.94-.29a1 1 0 0 1-.81-.54c-.23-.41-1.53-2-1.13-2a22.45 22.45 0 0 1 4.44 1.32zm-4.25-3.81c1 .36 1.38.69 1.48 1a.44.44 0 0 1-.32.43 4.55 4.55 0 0 1-2.74-.6 5 5 0 0 1-1-1.12 11.19 11.19 0 0 1 2.58.29zm-1.72-5.58c-.81.54-2.8 1.41-7.21 1.54-6.42.18-8.56-1.77-8.56-1.77a17.83 17.83 0 0 0 7.64.06 40.32 40.32 0 0 0 9.12-3.19 34.34 34.34 0 0 1-.99 3.32zm1.53-6v.28c-.72.67-2.53 1.55-8.27 1.55-8.13 0-9.66-1.71-9.66-1.71a28.15 28.15 0 0 0 9.54.24 19.19 19.19 0 0 0 8.33-3.12 4.8 4.8 0 0 1 .06 2.74zm7.4-41.89s0 8.75-.61 11.31a8.5 8.5 0 0 1-1.53 3.24c.06.24.86.12 1.22 2.69s-.12 11.44-.86 13.88a7.94 7.94 0 0 1-4.16 5 10.6 10.6 0 0 0 2.45-5.26c.55-3.3.06-6-.18-6s-.24 3.42-1 6.05-4.34 5.32-6.3 6.3a1.93 1.93 0 0 0-.3.18 9.37 9.37 0 0 1-4.66 1.11c-3-.06-4.22-.06-5.26-4.22a15.28 15.28 0 0 1-.37-2.32v-.07a5.72 5.72 0 0 0-.12 3.19 11.5 11.5 0 0 0 1.1 3c.31.37-2-.18-3.06-1.41s-2.39-3.91-3.49-11.37c-.48-3.23-1.25-8-2-12.53l.5-.42a1.18 1.18 0 0 0 .3-.89v-6.83a1.76 1.76 0 0 1 .38-1.05l4.42-4.77s.49-.23.93-.48a37.84 37.84 0 0 0 7.73-.24c3.14-.61 11.7-2.65 13.13-2.73s1.63.9 1.79 2.41zm-1.63-6.87a25.6 25.6 0 0 1-4.17 1c.08 0-.48 0-.68-.06s3.42-4.85 4.36-9.74c0 0 3 4 3.42 6.73.01.01-.24.95-2.93 2.05zm16-12.63a3.46 3.46 0 0 1-.47 1.61 7.19 7.19 0 0 1-2.54 2.16c-.8.38-.1.36.23.33a5 5 0 0 0 2.49-1.43 4.86 4.86 0 0 0 1.06-1.83 8.67 8.67 0 0 1 .83 1.16 22 22 0 0 1 1.49 3.53 3.28 3.28 0 0 1-.44 1.26 7.19 7.19 0 0 1-2.54 2.16c-.8.38-.1.36.23.33a5 5 0 0 0 2.49-1.43 6.15 6.15 0 0 0 .7-1c.21.68.38 1.32.48 1.82a26 26 0 0 1-.16 7.3 19.65 19.65 0 0 1-1.33 4.85h-.1a7.19 7.19 0 0 1-3.3-.48c-.81-.36-.34.16-.1.39a5 5 0 0 0 2.71.92h.42a13.65 13.65 0 0 1-2.26 3.59 3.17 3.17 0 0 1-1.13.15 7.19 7.19 0 0 1-3.11-1.2c-.71-.53-.36.08-.18.35a5 5 0 0 0 2.44 1.5 6.23 6.23 0 0 0 1 .14 23.22 23.22 0 0 1-5.49 3.47 3.2 3.2 0 0 1-1.15-.26 7.19 7.19 0 0 1-2.48-2.22c-.48-.75-.37-.05-.29.27a5 5 0 0 0 1.75 2.27 6.2 6.2 0 0 0 .95.51 39.66 39.66 0 0 1-5.74 1.89c.34-2.12.85-4.85 1-5.69l.06-.39a18.11 18.11 0 0 0 4.25-1.87 6.42 6.42 0 0 0 .3.66 5.25 5.25 0 0 0 2.15 2.06c.32.12 1 .32.31-.26a7.46 7.46 0 0 1-2-2.79v-.12l.38-.29a16.32 16.32 0 0 0 2.62-2.77 6.14 6.14 0 0 0 .94 1.11 5.25 5.25 0 0 0 2.71 1.22c.34 0 1.07 0 .2-.35a7.46 7.46 0 0 1-2.83-2 3.1 3.1 0 0 1-.46-.86 7.3 7.3 0 0 0 1-2.37 15.47 15.47 0 0 0 .22-1.62 6.25 6.25 0 0 0 1 .8 5.25 5.25 0 0 0 2.9.68c.34-.06 1-.25.13-.39a7.46 7.46 0 0 1-3.15-1.39 3.34 3.34 0 0 1-.83-1.18 18 18 0 0 0-.18-3.12 6.25 6.25 0 0 0 1.28.32 5.25 5.25 0 0 0 2.92-.56c.28-.19.85-.66 0-.41a7.46 7.46 0 0 1-3.44 0 3.23 3.23 0 0 1-1.07-.59c-.1-.25-.24-.54-.41-.85a6.11 6.11 0 0 0 1.44-.4 5.25 5.25 0 0 0 2.23-2c.14-.31.4-1-.24-.33a7.46 7.46 0 0 1-3 1.77 3.12 3.12 0 0 1-1 .06 11.2 11.2 0 0 0-2.38-2.52 4.68 4.68 0 0 0 .73-.53 5.17 5.17 0 0 0 1.41-2.55c.18-.68-.1-.83-.28-.2a5.89 5.89 0 0 1-2.26 2.49 1.17 1.17 0 0 1-.59.1c-.38-.24-.78-.48-1.22-.71l-.74-.47s-.42-.3.23-.7a.45.45 0 0 0 .12-.1 10.91 10.91 0 0 0 3-3.25 13 13 0 0 0 1.1-3.08c0-.25.4-.38.87 0a7.63 7.63 0 0 1-.06 2.32c-.24 1-.34 1.38-.08 1.28a2.75 2.75 0 0 0 .87-1.54 4.48 4.48 0 0 0 .11-1.51 21.49 21.49 0 0 1 3.25 2.75zm3.13-11.26c-.33.2-1 .22-1.77-1.17s-1.91-1.17-1.91-.9.05.4.54 1.07a5.89 5.89 0 0 1 1.24 3.18 4.9 4.9 0 0 1-1.1 3.85c-.82.88-1.44 1.45-1.55 1.55a23.11 23.11 0 0 0-4.26-2.82c-.22-.18-.34-.5-.21-.68a1.21 1.21 0 0 1 1.37.15c.85.58.62-.46.57-.72a18.12 18.12 0 0 0-1.31-4.25 19.66 19.66 0 0 0-5.19-6.43c-2.76-2.18-6.95-2.39-8-2.41s-3 .89-3.68 1-1.42-.27-1.77-.07-.44.5 0 1 .82.82.77 1.44a7.44 7.44 0 0 1-1.16 1.93c-.36-.08-1.14-.43-1.48-1.83-.45-1.86 1.22-4 1.94-4.62a8.18 8.18 0 0 1 5.69-2.61 11 11 0 0 1 5 .64c.28.05.69-.07-.2-.84a5.36 5.36 0 0 0-3.48-1.41 11.58 11.58 0 0 0-3.08.13s-.69.15 0-.5 2.24-2.9 7.46-3 9.84 1.66 12.15 5.72 3.65 7.5 3.88 9.57-.16 2.8-.49 3zM250.91 115c.07-.6.16-1.32.31-2.14s.45-2.28.5-2.91.37-1.39.05-1.39c-.65 0-.65 1.76-1.12 1.92-.23.08-.7-.72-.75-1.81 0-.78-.37-2.41-.52-3.43s-.28-2.19-.72-1.71 0 3.23.13 5 .74 6.41.77 7.55a18.05 18.05 0 0 1-.07 2 13 13 0 0 1-.65 1.57l-.12.24c-1.26 2.66-3.6 6.87-3.89 7.2-.5.57-2.24 1.2-3.08 2.41s-.49 1.61-1.31 2.58-3.41 3.72-4.08 5.89-.77 4.3-.23 5.32a1.92 1.92 0 0 0 1.37 1.1 2.71 2.71 0 0 1-1 1.61c-.87.74-2.95 2.14-2.95 2.14a6.52 6.52 0 0 0-2 1.37 18.07 18.07 0 0 0-3 4 3.51 3.51 0 0 0-.17 2.44 1.11 1.11 0 0 0 1.17.44l-4.4 5.57h-1.91s-9.5 0-12.56-.24-8.24-.9-10.52-1.1-8.68.12-10.27-.61-1.47-3.47-1.63-4.77a3.54 3.54 0 0 0-.12-.53c0-1.38-.09-4.37 0-5.35.06-1.28.43-3.3.46-3.94s0-3.42 0-3.42a.77.77 0 0 0 .8-.15c.37-.34.31-1.59.24-1.74a13 13 0 0 1 4.31.49 50.63 50.63 0 0 0 9.6.73c3.61 0 6.6-.92 7.67-1.68a6.75 6.75 0 0 0 2.39-3.09 5.77 5.77 0 0 0 .61-3.42c0-1-.37-1.74-.4-2.54a9.68 9.68 0 0 0 0-2.81 3.61 3.61 0 0 0-1.07-1.53 2.33 2.33 0 0 0-.61-2.14 4.32 4.32 0 0 0-2.45-1.28c-.47-.2-.75-.08-.67-1.17a.33.33 0 0 0 0-.16c-.09-.55.06-3.24-.18-5.26a3.92 3.92 0 0 0-1.71-3c-.34-.24-2.81-1.56-3.15 1.47a15.8 15.8 0 0 1-2 6.33c-.86 1.62-3.46 3-4.8 3.7a3.76 3.76 0 0 1-3.18.4c-.83-.34-.92-.95-1-1.62a6.47 6.47 0 0 0-.67-2.84 5.18 5.18 0 0 0-2.17-1.77c.52-2.9.31-11.13.37-12s.12-3.67-.18-3.58-.61 2.57-.61 4.07-.09 2.42-.92 2.63-1.41-2.45-1.65-2.23-.12.37.18 1.9a14.21 14.21 0 0 1-.25 4.84 1.69 1.69 0 0 1-1.47 1.1c-.53.12-1.47-.2-3.42-.49a19.4 19.4 0 0 0-8 1.3 10.81 10.81 0 0 0-3.71 3.1c-.29.61-3.38 4-3.79 5.38s-1.51.86-1.59.08a21.19 21.19 0 0 1 .12-4.4c.24-1.92 1.47-4.44 1.83-5.87a43.58 43.58 0 0 1 2.12-6.73 20.48 20.48 0 0 1 4.4-5.5c1.14-1.1 6.93-5.1 8.24-6.16a42.82 42.82 0 0 0 3.59-3.87c.45-.45 3.23-3 3.23-3 1.31-1 4.32-3 7-3.51 0 0 1.16-.09 1.62-.15S202.09 84 202.7 84a1.5 1.5 0 0 1 1.48.43 7.68 7.68 0 0 0 1.82 1.13 2.68 2.68 0 0 0 .85.2 4.51 4.51 0 0 1 2.08 3 72.89 72.89 0 0 1 .51 8.76 71.3 71.3 0 0 0 1.31 10.3c.52 1.76 1.12 1.8 1.12 1.8a17.05 17.05 0 0 0 3.87 1.68c2.86.92 2.8.67 4.1.66a7.41 7.41 0 0 0 3.12-.86 3.65 3.65 0 0 0 1.22-.69 2.2 2.2 0 0 0 .52-1.44l-.21-13s.18-6.76 1.16-8.38a7.51 7.51 0 0 1 1.89-2.26l.7-.33a5.66 5.66 0 0 0 1.13-.67 10.56 10.56 0 0 1 2.56-.9 9.75 9.75 0 0 1 5.75 1.16l.37.22c.9.51 5.1 2.06 6.42 2.85s3.42 2.49 4.77 3.16c.68.34 1.35.69 2.07 1.09a46.72 46.72 0 0 1 6.18 4.94 49.47 49.47 0 0 1 6.39 7.66 19.43 19.43 0 0 1 3.92 5.86c1 2.74.75 4.15 1.17 5.29a19 19 0 0 1 1.1 5.66c0 1.86-1.81 10.58-1.81 10.58s-.94 4.82-1 5.29-.5-.07-.77-.64-3-5.42-4.89-7a13.38 13.38 0 0 0-9.37-2.88c-4.1.3-4.72.94-4.72.94s-1.51.69-.9-.8c0-.08 1.84-3.26 3.75-4.45a12.52 12.52 0 0 1 6.19-1.81s1.42-.25-.07-.67a9 9 0 0 0-3.41.1c-.27-.05-.4-.27.1-.54s3-1.46 3.78-1.27.57-.6-.27-.8a6.87 6.87 0 0 0-5.61 2.44 12.57 12.57 0 0 0 0-2.34c-.07-.85-.16-2.47-.16-2.47zm-19.3-33.54a27.5 27.5 0 0 0-.41-3.18h.07l2.42-1.38a27.41 27.41 0 0 0 5.41-3 76 76 0 0 0 8.07-6.79c.22-.26.53-.65.89-1.11-.22.76-.59 1.94-.95 2.82a22.43 22.43 0 0 1-2.78 5.69c-1.72 2.49-7.96 5.79-12.72 6.97zM253 73.4c-.61 2.08-3.36 3.73-5.26 4.68a3 3 0 0 0-.53.33 20.78 20.78 0 0 1-7.6 2 21.49 21.49 0 0 0 4-2.63c1.87-1.59 3.52-5 4.68-8.78a38.22 38.22 0 0 1 2-5.69l.92-1.69.39-.54a11 11 0 0 1 2.4-3.21 10.68 10.68 0 0 0 1.42-1.75 13.54 13.54 0 0 0-.32 1.72 12.19 12.19 0 0 1-.92 3.88 9.64 9.64 0 0 0-1.28 3.61c-.19 1.47.76 5.99.1 8.07zm2.81-.28l-1.25 1.41a16.13 16.13 0 0 0-.15-4.4 8.43 8.43 0 0 1 .61-7.86l.07-.1a41.68 41.68 0 0 0 1.7 5.39 6.06 6.06 0 0 1-.93 5.57zm2.37-6.45a8 8 0 0 0-.94-2.48c-.58-.76-.95-3.12-.92-4.62a14.1 14.1 0 0 1 1.68-5.16 9.64 9.64 0 0 0 2-5.35V49c0 .88.11 7.87-.46 9.42 0 0 1.19-1.25 1.5-4.86a28.4 28.4 0 0 0-.15-7.22c-.21-1.1-1.19-3.24-1.28-5.29s.61-2.54.64-5.53a15.11 15.11 0 0 0-.37-3.13c.52.69 4.09 5.61 5.29 9.95 1.28 4.65.76 7.49 1 9.42a8.13 8.13 0 0 1-1.41 6.73c-2 3.09-5.53 5.34-6.58 8.18zm5-31.56a29.06 29.06 0 0 1 4.73 5.89 19.56 19.56 0 0 1 1.28 8.84 11.17 11.17 0 0 1-1.75 4.57 37.21 37.21 0 0 0-.21-4.3 34.83 34.83 0 0 0-1.31-8.38 32.65 32.65 0 0 0-2.73-6.61zm9.67 16.79a23.43 23.43 0 0 1-2.94 7.49 64.2 64.2 0 0 1-4.4 6.15 39.62 39.62 0 0 1-6.42 5.66 9.27 9.27 0 0 1 .86-3.12 1.92 1.92 0 0 0 .17-.62 15.64 15.64 0 0 1 1.88-3.54c1.1-1.41 4.53-5.14 5.11-6a1.24 1.24 0 0 0 .15-.4 13.46 13.46 0 0 0 2-3.42 18.21 18.21 0 0 0 1.1-8.26 17.62 17.62 0 0 0-4.16-9.72 44.23 44.23 0 0 0-4.4-4.07 17.53 17.53 0 0 1-3.09-3.72c-.18-.53-2.38-5.36-2.72-6.19a15.87 15.87 0 0 0-2.87-5.35c-1.93-2.23-5.08-6.18-7-7.46s-5.59-3.14-5.59-3.14l-2.85-1.47s.2-.16 1.26.12 2.41.61 2.41.61 3.52.51 8.41 4.27a143.41 143.41 0 0 1 11.56 10.55c-.09.09 2.66 2.66 4.46 5.2s3.88 7.67 4.62 8.68a11.27 11.27 0 0 1 2.45 5.5 62.37 62.37 0 0 1 .01 12.25z"/><circle class="cls-7" cx="226.75" cy="46.49" r=".87"/><circle class="cls-7" cx="195.42" cy="46.16" r=".87"/></g></g></svg>