<svg xmlns="http://www.w3.org/2000/svg" width="60" height="60" viewBox="0 0 60 60"><title>Диван</title><g data-name="Слой 2"><g data-name="Слой 1"><path fill="none" d="M0 0h60v60H0z"/><path d="M12.56 13.85h16.05a2 2 0 0 1 2 2v17H9.56v-16a3 3 0 0 1 3-3z" fill="#fff" stroke="#353535" stroke-linejoin="round" stroke-width="1.5"/><path d="M32.6 13.85h16.06a3 3 0 0 1 3 3v16H30.6v-17a2 2 0 0 1 2-2z" fill="#fff" stroke="#353535" stroke-linejoin="round" stroke-width="1.5"/><path d="M12.25 28h15.32a3 3 0 0 1 3 3v1.87H9.25V31a3 3 0 0 1 3-3zM33.62 28h14.74a3 3 0 0 1 3 3v1.87H30.62V31a3 3 0 0 1 3-3z" fill="#fff" stroke="#353535" stroke-linejoin="round"/><path d="M50.06 39.79a2.92 2.92 0 0 1-2.71 3.1l-33.43-.06a2.94 2.94 0 0 1-2.7-3.12v-3.92a2.91 2.91 0 0 1 2.71-3.1l33.43.06a2.94 2.94 0 0 1 2.7 3.12z" fill="#fff" stroke="#353535" stroke-linejoin="round" stroke-width="1.5"/><path d="M13.5 27.82a4.19 4.19 0 1 0-5.95 3.79v11a1.61 1.61 0 0 0 1.62 1.61h2.71a1.62 1.62 0 0 0 1.62-1.61V27.82zM47.22 27.81a4.27 4.27 0 1 1 6.08 3.79v11a1.64 1.64 0 0 1-1.66 1.62h-2.77a1.64 1.64 0 0 1-1.65-1.62V27.81z" fill="#fff" stroke="#353535" stroke-linejoin="round" stroke-width="1.5"/><path d="M8.22 27.76a1.1 1.1 0 1 1 1.09 1.09 1.09 1.09 0 0 1-1.09-1.09zM50.4 27.76a1.09 1.09 0 1 1 1.09 1.09 1.09 1.09 0 0 1-1.09-1.09z" fill="#353535"/><rect x="13.88" y="15.99" width="14.84" height="11.21" rx="3" ry="3" fill="#fff" stroke="#ff5a19" stroke-linejoin="round"/><rect x="31.96" y="15.99" width="14.84" height="11.21" rx="3" ry="3" fill="#fff" stroke="#ff5a19" stroke-linejoin="round"/></g></g></svg>