<svg xmlns="http://www.w3.org/2000/svg" width="60" height="60" viewBox="0 0 60 60"><title>Шторы</title><g data-name="Слой 2"><g data-name="Слой 1"><path fill="none" d="M0 0h60v60H0z"/><path d="M29.53 11.35a3 3 0 0 1-6 0M23.52 11.35a3 3 0 0 1-6 0M17.52 11.35a2.92 2.92 0 0 1-3 2.81 2.92 2.92 0 0 1-3-2.81M11.1 49.41c1.16 0 1.21-.86 2.38-.86s1.14.86 2.34.86 1.16-.87 2.37-.87 1.13.86 2.29.87M29.83 49.41" fill="#fff" stroke="#353535" stroke-linejoin="round"/><path d="M20.45 49.41c1.16 0 1.21-.86 2.38-.86s1.14.86 2.34.86 1.16-.87 2.37-.87 1.13.86 2.29.87M39.18 49.41" fill="#fff" stroke="#353535" stroke-linejoin="round"/><path d="M29.8 49.41c1.16 0 1.21-.86 2.38-.86s1.14.86 2.34.86 1.16-.87 2.37-.87 1.13.86 2.29.87M48.53 49.41" fill="#fff" stroke="#353535" stroke-linejoin="round"/><path d="M39.15 49.41c1.16 0 1.21-.86 2.38-.86s1.14.86 2.34.86 1.16-.87 2.37-.87 1.13.86 2.29.87M29.49 11.35a3.11 3.11 0 0 0 6.2 0M35.69 11.35a3.11 3.11 0 0 0 6.2 0M41.89 11.35a3.11 3.11 0 0 0 6.2 0" fill="#fff" stroke="#353535" stroke-linejoin="round"/><path fill="none" stroke="#353535" stroke-linejoin="round" d="M48.02 12.04v37.52M11.59 49.45V11.92M17.37 12.43v36.19M23.55 12.43v36.19M29.52 12.43v36.19M35.71 12.43v36.19M41.9 12.68v36.19"/><path fill="#fff" stroke="#ff5a19" stroke-linejoin="round" stroke-width="1.5" d="M8.09 10.77h43.5"/><circle cx="7.86" cy="10.65" r="1.38" fill="#ff5a19"/><circle cx="51.23" cy="10.65" r="1.38" fill="#ff5a19"/></g></g></svg>