<svg xmlns="http://www.w3.org/2000/svg" width="116" height="116" viewBox="0 0 116 116"><path d="M69 10.56H45.71v9.35s8.77-.71 11.73-.71 11.56.71 11.56.71z" fill="none" stroke="#263239" stroke-linecap="round" stroke-linejoin="round" stroke-width="2.5"/><path d="M36.9 23.5s6.73-4 21.14-4.06c14.78-.05 21.76 4.33 21.76 4.33M84.61 89.75v12.81a2.89 2.89 0 0 1-2.88 2.88H33.78a2.89 2.89 0 0 1-2.88-2.88V90.33M57.53 11.71v93.1" fill="none" stroke="#263239" stroke-linecap="round" stroke-linejoin="round" stroke-width="2.5"/><path fill="none" stroke="#263239" stroke-linejoin="round" stroke-width="2.5" d="M20.62 80.62h17.8"/><path fill="none" stroke="#ff5a19" stroke-linejoin="round" stroke-width="2" d="M39.09 67.48h13v21.14H35.63M76.75 67.48h-13v21.14h16.46"/><path d="M29.43 89.26h-.17c-8.61 0-8.31-.73-8.64-8.64a100.15 100.15 0 0 1 1-16.12C24.46 47.72 28.3 36.63 33 28.4c3.08-5.45 5.75-7.92 5.48.54l-.37 51.68c-.04 7.48.45 8.2-8.68 8.64zM86.57 89.18h.17c8.58 0 8.64-.25 8.64-8.69a101.27 101.27 0 0 0-1-16.21C91.54 47.4 87.57 36.33 83 28c-2.78-5.12-5.75-8-5.48.54l.37 52c.04 8.15.4 8.64 8.68 8.64zM77.5 80.69h17.64" fill="none" stroke="#263239" stroke-linejoin="round" stroke-width="2.5"/></svg>