<svg xmlns="http://www.w3.org/2000/svg" width="51.29" height="29.21" viewBox="0 0 51.29 29.21"><path d="M15.86 23a6.92 6.92 0 0 1-9.8 0 5.53 5.53 0 0 1 0-7.84 4.44 4.44 0 0 1 6.27 0 3.54 3.54 0 0 1 0 5 2.83 2.83 0 0 1-4 0 2.28 2.28 0 0 1 0-3.22 1.84 1.84 0 0 1 2.57 0 1.47 1.47 0 0 1 0 2.06 1.18 1.18 0 0 1-1.65 0 .94.94 0 0 1 0-1.32" fill="none" stroke="#353535" stroke-linecap="round" stroke-linejoin="round"/><circle cx="10.23" cy="18.98" r="9.48" fill="none" stroke="#353535" stroke-linejoin="round" stroke-width="1.5"/><path d="M25.13 1.7a10.82 10.82 0 0 1 1.46-.58 9.21 9.21 0 0 1 2.59-.37 9.08 9.08 0 0 1 4.71 16.83l-.33.19a9 9 0 0 1-.83.4" fill="none" stroke="#353535" stroke-linejoin="round" stroke-width="1.5"/><path fill="none" stroke="#353535" stroke-miterlimit="10" stroke-width="1.5" d="M5.6 10.69L25.56 1.5M14.14 27.62l19.35-9.81"/><path fill="none" stroke="#353535" stroke-linejoin="round" stroke-width="1.5" d="M10.23 28.46h18.38l19.5-10.45H33.14"/><path fill="none" stroke="#353535" stroke-linecap="round" stroke-linejoin="round" d="M29.61 27.89h4M33.04 26.02h4M36.48 24.16h4M39.92 22.3h4M43.36 20.43h3.99M46.79 18.57h4"/><path fill="#ff5a19" d="M42.1 18.65l-4.43-.01-16.79 9.17 4.42-.01 16.8-9.15z"/></svg>