<svg xmlns="http://www.w3.org/2000/svg" width="51.02" height="58.5" viewBox="0 0 51.02 58.5"><rect x=".75" y=".75" width="49.52" height="57" rx="2.91" ry="2.91" fill="#f7f5f2" stroke="#692f17" stroke-miterlimit="10" stroke-width="1.5"/><path d="M47.36 1.29H3.66A2.91 2.91 0 0 0 .75 4.2v5.11h49.52V4.2a2.91 2.91 0 0 0-2.91-2.91z" fill="#f08119" stroke="#692f17" stroke-linejoin="round" stroke-width="1.5"/><path d="M7.16 10.67a1.54 1.54 0 0 1-1.54 1.54 1.54 1.54 0 0 1-1.54-1.54v-4.2a1.54 1.54 0 0 1 1.54-1.54 1.54 1.54 0 0 1 1.54 1.54v4.2zM46.67 10.67a1.54 1.54 0 0 1-1.54 1.54 1.54 1.54 0 0 1-1.58-1.54v-4.2a1.54 1.54 0 0 1 1.54-1.54 1.54 1.54 0 0 1 1.54 1.54v4.2z" fill="#f7f5f2" stroke="#682f24" stroke-miterlimit="10" stroke-width=".7"/><rect x="5.92" y="23.9" width="4.17" height="4.17" rx="1.01" ry="1.01" fill="#e2ddd3"/><rect x="11.77" y="23.9" width="4.17" height="4.17" rx="1.01" ry="1.01" fill="#e2ddd3"/><rect x="17.61" y="23.9" width="4.18" height="4.17" rx="1.01" ry="1.01" fill="#e2ddd3"/><rect x="23.46" y="23.9" width="4.18" height="4.17" rx="1.01" ry="1.01" fill="#e2ddd3"/><rect x="29.31" y="23.9" width="4.17" height="4.17" rx="1.01" ry="1.01" fill="#e2ddd3"/><rect x="35.15" y="23.9" width="4.17" height="4.17" rx="1.01" ry="1.01" fill="#e7c3a0"/><rect x="41" y="23.9" width="4.17" height="4.17" rx="1.01" ry="1.01" fill="#e7c3a0"/><rect x="5.92" y="29.85" width="4.17" height="4.18" rx="1.01" ry="1.01" fill="#e2ddd3"/><rect x="11.77" y="29.85" width="4.17" height="4.18" rx="1.01" ry="1.01" fill="#e2ddd3"/><rect x="17.61" y="29.85" width="4.18" height="4.18" rx="1.01" ry="1.01" fill="#e2ddd3"/><rect x="23.46" y="29.85" width="4.18" height="4.18" rx="1.01" ry="1.01" fill="#e2ddd3"/><rect x="29.31" y="29.85" width="4.17" height="4.18" rx="1.01" ry="1.01" fill="#e2ddd3"/><rect x="35.15" y="29.85" width="4.17" height="4.18" rx="1.01" ry="1.01" fill="#e7c3a0"/><rect x="41" y="29.85" width="4.17" height="4.18" rx="1.01" ry="1.01" fill="#e7c3a0"/><rect x="5.92" y="35.74" width="4.17" height="4.17" rx="1.01" ry="1.01" fill="#e2ddd3"/><rect x="11.77" y="35.74" width="4.17" height="4.17" rx="1.01" ry="1.01" fill="#e2ddd3"/><rect x="17.61" y="35.74" width="4.18" height="4.17" rx="1.01" ry="1.01" fill="#e2ddd3"/><rect x="23.46" y="35.74" width="4.18" height="4.17" rx="1.01" ry="1.01" fill="#e2ddd3"/><rect x="29.31" y="35.74" width="4.17" height="4.17" rx="1.01" ry="1.01" fill="#e2ddd3"/><rect x="35.15" y="35.74" width="4.17" height="4.17" rx="1.01" ry="1.01" fill="#e7c3a0"/><rect x="41" y="35.74" width="4.17" height="4.17" rx="1.01" ry="1.01" fill="#e7c3a0"/><rect x="5.92" y="41.69" width="4.17" height="4.18" rx="1.01" ry="1.01" fill="#e2ddd3"/><rect x="11.77" y="41.69" width="4.17" height="4.18" rx="1.01" ry="1.01" fill="#e2ddd3"/><rect x="17.61" y="41.69" width="4.18" height="4.18" rx="1.01" ry="1.01" fill="#e2ddd3"/><rect x="23.46" y="41.69" width="4.18" height="4.18" rx="1.01" ry="1.01" fill="#e2ddd3"/><rect x="29.31" y="41.69" width="4.17" height="4.18" rx="1.01" ry="1.01" fill="#e2ddd3"/><rect x="35.15" y="41.69" width="4.17" height="4.18" rx="1.01" ry="1.01" fill="#e7c3a0"/><rect x="41" y="41.69" width="4.17" height="4.18" rx="1.01" ry="1.01" fill="#e7c3a0"/><rect x="5.92" y="47.15" width="4.17" height="4.17" rx="1.01" ry="1.01" fill="#e2ddd3"/><rect x="11.77" y="47.15" width="4.17" height="4.17" rx="1.01" ry="1.01" fill="#e2ddd3"/><rect x="17.61" y="47.15" width="4.18" height="4.17" rx="1.01" ry="1.01" fill="#e2ddd3"/><path d="M45.8 18.39a1.75 1.75 0 0 1-1.75 1.75H8.16a1.75 1.75 0 0 1-1.75-1.75 1.75 1.75 0 0 1 1.75-1.8h35.89a1.75 1.75 0 0 1 1.75 1.75z" fill="#e2ddd3"/></svg>