<svg xmlns="http://www.w3.org/2000/svg" width="70" height="70" viewBox="0 0 70 70"><path d="M14.52 24.74v30.07a2.28 2.28 0 0 0 2.48 2.1h36.12a2.33 2.33 0 0 0 2.45-2.1V24.74M46.03 15.71H23.45M19.86 15.71h-2.54a2.93 2.93 0 0 0-2.89 2.9v6h41v-6a2.92 2.92 0 0 0-2.89-2.9h-3.19" fill="none" stroke="#ff5722" stroke-miterlimit="10" stroke-width="1.5"/><path d="M21.43 32.81h27.14a.69.69 0 0 1 .7.7v.35a.69.69 0 0 1-.7.7H21.43a.69.69 0 0 1-.7-.7v-.35c-.08-.35.27-.7.7-.7zM21.43 37.36h27.14a.69.69 0 0 1 .7.7v.44a.69.69 0 0 1-.7.7H21.43a.69.69 0 0 1-.7-.7v-.35a.68.68 0 0 1 .7-.79zM21.43 41.92h27.14a.69.69 0 0 1 .7.7V43a.69.69 0 0 1-.7.7H21.43a.69.69 0 0 1-.7-.7v-.35c-.08-.38.27-.73.7-.73z" fill="#ff5722"/><path d="M23.36 19.4a1.66 1.66 0 0 1-1.66 1.66A1.66 1.66 0 0 1 20 19.4v-4.65a1.67 1.67 0 0 1 1.67-1.67 1.66 1.66 0 0 1 1.66 1.67zM49.18 19.4a1.66 1.66 0 0 1-1.67 1.66 1.66 1.66 0 0 1-1.66-1.66v-4.65a1.67 1.67 0 0 1 1.66-1.67 1.67 1.67 0 0 1 1.67 1.67z" fill="none" stroke="#ff5722" stroke-linecap="round" stroke-linejoin="round"/></svg>