<svg xmlns="http://www.w3.org/2000/svg" viewBox="0 0 60 60"><path stroke-linejoin="round" stroke="#ff5a19" fill="none" d="M23.48 33.15h6.86a1 1 0 0 1 1 1M12.72 39.14H7.17a1 1 0 0 1-1-1v-4a1 1 0 0 1 1-1h9.41"/><path stroke-linejoin="round" stroke="#ff5a19" fill="none" d="M30.18 33.15a.93.93 0 0 0 .93-.94.93.93 0 0 0-.93-.93H27M17 33.15H7.8a.94.94 0 0 1-.93-.94.93.93 0 0 1 .93-.93h10.73"/><path stroke-linecap="round" stroke-linejoin="round" stroke="#ff5a19" fill="none" d="M18.53 31.28H7.88a1 1 0 0 1-1-1v-3.47a1 1 0 0 1 1-1h22.94a1 1 0 0 1 1 1"/><rect stroke-linecap="round" stroke-linejoin="round" stroke="#ff5a19" fill="none" x="6.16" y="21.89" width="26.22" height="3.91" rx="1.01" ry="1.01"/><path stroke-linecap="round" stroke-linejoin="round" stroke="#ff5a19" fill="none" d="M31.37 21.07a.94.94 0 0 1-1 .82H7.88a.93.93 0 0 1-1-.82v-3.61a.92.92 0 0 1 1-.81h22.48a.93.93 0 0 1 1 .81zM7.16 18.74h23.95M12.98 20.16h18.13M6.16 23.84h20.19M21.61 29.55H10.07M14.4 36.14H6.37"/><path stroke-width="1.5" stroke="#434343" stroke-linecap="round" stroke-linejoin="round" fill="none" d="M44.89 36l-1.69-9.07S30.46 26.87 26.06 28a19.31 19.31 0 0 0-8.34 4.18c-3.2 2.78-6.38 9.23-6.38 9.23h31.15a5.55 5.55 0 0 1-.07-.82A5.45 5.45 0 0 1 44.89 36z"/><path stroke="#434343" stroke-linecap="round" stroke-linejoin="round" fill="none" d="M45.19 36l-1.84-9.08h-1.8l2 10.54A5.86 5.86 0 0 1 45.19 36zM37.73 32.6c-.36-2.25-3.69-3.25-6.84-3.25a14.81 14.81 0 0 0-2.23.17c-3.81.6-7.44 2.63-7 5.33.37 2.35 3.54 2.35 4.73 2.35s2.69-.12 3.93-.24c4.25-.42 6.07-1 6.93-2.09a2.9 2.9 0 0 0 .48-2.27zm-7.54 3.09c-3.57.35-7 .54-7.28-1s2.41-3.31 5.95-3.87 7.36.44 7.61 2-.6 2.31-6.28 2.87zM43.05 42.5c0 .47-.28.85-.64.85H11.08c-.35 0-.64-.38-.64-.85 0-.48.29-.86.64-.86h31.33c.36 0 .64.38.64.86zM39.91 25.31A1.64 1.64 0 0 0 38.26 27c1.28 0 2.42 0 3.28-.05a1.64 1.64 0 0 0-1.63-1.64z"/><path stroke-width="1.5" stroke="#434343" stroke-linecap="round" stroke-linejoin="round" fill="none" d="M44.43 30.72c-.31.06-.39-.23-.45-.55l-.3-1.67c-.06-.32-.11-.61.2-.67l1.94-.11a.58.58 0 0 1 .67.46l.23 1.29a.58.58 0 0 1-.47.67z"/><path stroke="#434343" stroke-linecap="round" stroke-linejoin="round" fill="none" d="M46.73 28.67s3.72-.59 4.49 2.14c1.14 4.06-5.22 5.43-4.49 9.19.89 4.57 7.11 2.29 7.11 2.29M30.19 35.69a29.84 29.84 0 0 0 3.92-.58v-.46a.85.85 0 0 0-.92-.77l-6.59.57a.84.84 0 0 0-.77.91v.56a32.71 32.71 0 0 0 4.36-.23z"/></svg>