<svg xmlns="http://www.w3.org/2000/svg" viewBox="0 0 60 60"><path fill="none" d="M0 0h60v60H0z"/><path stroke-linejoin="round" stroke="#434343" fill="none" d="M23.28 49.92v1.53a1.2 1.2 0 0 1-1.2 1.2 1.2 1.2 0 0 1-1.2-1.2v-1.53M40.28 49.92v1.53a1.2 1.2 0 0 1-1.2 1.2 1.2 1.2 0 0 1-1.2-1.2v-1.53"/><path stroke-linejoin="round" stroke="#434343" fill="none" d="M17.49 35.33h25a1.8 1.8 0 0 1 1.8 1.8v11.1A1.81 1.81 0 0 1 42.51 50h-25a1.8 1.8 0 0 1-1.8-1.8V37.13a1.8 1.8 0 0 1 1.78-1.8z"/><path stroke-miterlimit="10" stroke="#434343" fill="none" d="M30.02 35.22v14.44"/><path stroke-linejoin="round" stroke="#434343" fill="none" d="M36.78 35.46v-7.27a2.25 2.25 0 0 0-4.49 0v1.6"/><path stroke-width=".8" stroke-linejoin="round" stroke="#434343" fill="none" d="M42.41 32.84a.8.8 0 0 1-.8.8h-2.35a.8.8 0 0 1-.8-.8.8.8 0 0 1 .8-.8h2.35a.8.8 0 0 1 .8.8zM34.73 32.84a.8.8 0 0 1-.8.8h-2.35a.79.79 0 0 1-.79-.8.79.79 0 0 1 .79-.8h2.35a.8.8 0 0 1 .8.8z"/><path stroke-width="1.26" stroke-linejoin="round" stroke="#434343" fill="none" d="M40.44 35.46v-1.62M32.76 35.46v-1.62"/><path stroke-miterlimit="10" stroke="#434343" fill="none" d="M30.02 40.53H15.69M30.02 44.96H15.69M32.52 39.51a1 1 0 0 1 2 0 1 1 0 1 1-2 0z"/><path stroke="#ff5a19" stroke-linejoin="round" fill="none" d="M19.36 7.35h21.42a1.77 1.77 0 0 1 1.77 1.77v9.38a1.76 1.76 0 0 1-1.76 1.76H19.36a1.76 1.76 0 0 1-1.76-1.76V9.12a1.76 1.76 0 0 1 1.76-1.77zM30.34 7.62v12.59"/><path stroke="#ff5a19" stroke-linejoin="round" fill="none" d="M32.05 17.31a1 1 0 1 1 1 1 1 1 0 0 1-1-1zM26.54 17.31a1 1 0 1 1 1 1 1 1 0 0 1-1-1z"/></svg>