<svg xmlns="http://www.w3.org/2000/svg" viewBox="0 0 60 60"><path stroke-linecap="round" stroke="#434343" stroke-miterlimit="10" fill="none" d="M15.47 16.47l11 .05a1.68 1.68 0 0 0 1.67-1.68v-4H18.07a3.22 3.22 0 0 0-1.89.42 2.76 2.76 0 0 0-.69 1.83z"/><path stroke="#434343" stroke-miterlimit="10" fill="none" d="M20.81 47.11a2 2 0 1 1-4.1 0M43.05 47.11a2 2 0 0 1-4.1 0"/><rect stroke-linecap="round" stroke="#434343" stroke-miterlimit="10" fill="none" x="15.47" y="10.9" width="29.07" height="36.21" rx="1.68" ry="1.68"/><path stroke-linecap="round" stroke="#434343" stroke-miterlimit="10" fill="none" d="M15.47 18.1h29.06M15.47 43.61h29.06"/><circle stroke="#ff5a19" stroke-linejoin="round" fill="none" cx="30" cy="30.78" r="8.73"/><path stroke="#ff5a19" stroke-linejoin="round" fill="none" d="M34 30.78a4.74 4.74 0 0 1 1.39-3.36 6.36 6.36 0 1 0 0 6.72A4.72 4.72 0 0 1 34 30.78z"/><path stroke="#434343" stroke-miterlimit="10" fill="none" d="M31.52 14.59a1 1 0 1 1 1 1 1 1 0 0 1-1-1z"/><path fill="#434343" d="M35.33 14.41a.18.18 0 1 1-.18.18.18.18 0 0 1 .18-.18m0-.8a1 1 0 1 0 1 1 1 1 0 0 0-1-1zM38.16 14.41a.18.18 0 1 1 0 .36.18.18 0 0 1 0-.36m0-.8a1 1 0 1 0 1 1 1 1 0 0 0-1-1zM41 14.41a.18.18 0 1 1-.18.18.18.18 0 0 1 .18-.18m0-.8a1 1 0 1 0 1 1 1 1 0 0 0-1-1z"/></svg>