<svg xmlns="http://www.w3.org/2000/svg" viewBox="0 0 60 60"><path stroke-width="1.48" stroke-linecap="round" stroke="#434343" stroke-miterlimit="10" fill="none" d="M30.15 47.42"/><path stroke-dasharray="0.08 2.3" stroke-width="1.48" stroke-linecap="round" stroke="#434343" stroke-miterlimit="10" fill="none" d="M28 47.3a11 11 0 0 1-9.7-9.94"/><path stroke-width="1.48" stroke-linecap="round" stroke="#434343" stroke-miterlimit="10" fill="none" d="M28.33 45.5"/><path stroke-dasharray="0.07 2.08" stroke-width="1.48" stroke-linecap="round" stroke="#434343" stroke-miterlimit="10" fill="none" d="M26.69 44.45c-1.6-1.2-2.64-2.73-2.81-6.09"/><path stroke-dasharray="0.07 2.22" stroke-width="1.48" stroke-linecap="round" stroke="#434343" stroke-miterlimit="10" fill="none" d="M30.15 44.9v-8.3M30.15 33.51V13.95"/><path stroke-width="1.48" stroke-linecap="round" stroke="#434343" stroke-miterlimit="10" fill="none" d="M30.15 47.42"/><path stroke-dasharray="0.08 2.36" stroke-width="1.48" stroke-linecap="round" stroke="#434343" stroke-miterlimit="10" fill="none" d="M32.55 47.29c5.71-.66 8.94-3.72 9.44-8"/><path stroke-width="1.48" stroke-linecap="round" stroke="#434343" stroke-miterlimit="10" fill="none" d="M17.11 32.93"/><path stroke-dasharray="0.07 2.12" stroke-width="1.48" stroke-linecap="round" stroke="#434343" stroke-miterlimit="10" fill="none" d="M19.15 32.25c5.18-2.56 7.18-10.5 7.41-16.24"/><path stroke-width="1.48" stroke-linecap="round" stroke="#434343" stroke-miterlimit="10" fill="none" d="M23.11 32.93"/><path stroke-dasharray="0.07 2.12" stroke-width="1.48" stroke-linecap="round" stroke="#434343" stroke-miterlimit="10" fill="none" d="M25 31.94c2.21-2.57 3.44-9.63 3.57-15.89"/><path stroke-width="1.48" stroke-linecap="round" stroke="#434343" stroke-miterlimit="10" fill="none" d="M43.2 32.93"/><path stroke-dasharray="0.07 2.11" stroke-width="1.48" stroke-linecap="round" stroke="#434343" stroke-miterlimit="10" fill="none" d="M41.18 32.24c-5.08-2.57-7-10.5-7.27-16.24"/><path stroke-width="1.48" stroke-linecap="round" stroke="#434343" stroke-miterlimit="10" fill="none" d="M37.3 32.93"/><path stroke-dasharray="0.07 2.12" stroke-width="1.48" stroke-linecap="round" stroke="#434343" stroke-miterlimit="10" fill="none" d="M35.48 31.92c-2.17-2.58-3.37-9.62-3.5-15.87"/><path stroke-width="1.48" stroke-linecap="round" stroke="#434343" stroke-miterlimit="10" fill="none" d="M32 45.5"/><path stroke-dasharray="0.08 2.34" stroke-width="1.48" stroke-linecap="round" stroke="#434343" stroke-miterlimit="10" fill="none" d="M34 44.21c1.36-1.06 2.25-2.43 2.44-5.35"/><path stroke-width="1.48" stroke-linecap="round" stroke="#434343" stroke-miterlimit="10" fill="none" d="M36.45 37.68"/><path stroke-linecap="round" stroke="#434343" stroke-miterlimit="10" fill="none" d="M44.11 35.83a1.53 1.53 0 0 1-1.53 1.53H17.42a1.53 1.53 0 0 1-1.53-1.53 1.53 1.53 0 0 1 1.53-1.53h25.16a1.53 1.53 0 0 1 1.53 1.53z"/><path stroke="#ff5a19" stroke-linejoin="round" stroke-miterlimit="10" fill="none" d="M34.46 13.36a4.33 4.33 0 0 0-8.62 0z"/><circle stroke="#434343" stroke-miterlimit="10" fill="none" cx="30.15" cy="49.42" r="1.1"/></svg>