<svg xmlns="http://www.w3.org/2000/svg" viewBox="0 0 60 60"><path stroke="#434343" stroke-miterlimit="10" fill="none" d="M19 37.52V9.17a.68.68 0 0 1 .68-.69h18.86"/><path stroke-linecap="round" stroke="#434343" stroke-miterlimit="10" fill="none" d="M19.1 18.06h18.91M19.1 27.97h18.91M22.47 51.08v.85a1.34 1.34 0 0 1-1.33 1.33 1.34 1.34 0 0 1-1.33-1.33v-.85M39.34 51.08v.85A1.33 1.33 0 0 1 38 53.26a1.34 1.34 0 0 1-1.33-1.33v-.85"/><path stroke="#ff5a19" stroke-linejoin="round" fill="none" d="M38.49 37.52V6.74"/><rect stroke-linecap="round" stroke="#434343" stroke-miterlimit="10" fill="none" x="17.29" y="6.74" width="23.67" height="44.19" rx="2.43" ry="2.43"/><path stroke="#ff5a19" stroke-linejoin="round" fill="none" d="M41 37V9.17a2.43 2.43 0 0 0-2.43-2.43H38"/><path stroke-linecap="round" stroke="#434343" stroke-miterlimit="10" fill="none" d="M17.29 37.52h23.68"/><path stroke="#ff5a19" stroke-linejoin="round" fill="none" d="M41.49 27.63a1.22 1.22 0 0 1 1.22 1.22v5a1.22 1.22 0 0 1-1.22 1.22M17.83 39.5a1.22 1.22 0 0 1 1.22 1.22v3.16a1.22 1.22 0 0 1-1.22 1.22"/></svg>