<svg xmlns="http://www.w3.org/2000/svg" viewBox="0 0 60 60"><defs><style>.cls-1,.cls-10,.cls-11,.cls-12,.cls-13,.cls-14,.cls-2,.cls-3,.cls-4,.cls-5,.cls-6,.cls-7,.cls-8,.cls-9{fill:none}.cls-10,.cls-11,.cls-12,.cls-14,.cls-2,.cls-3,.cls-4,.cls-5,.cls-6,.cls-7,.cls-8,.cls-9{stroke:#434343;stroke-miterlimit:10}.cls-10,.cls-11,.cls-12,.cls-2,.cls-3,.cls-4,.cls-5,.cls-6,.cls-7,.cls-8,.cls-9{stroke-linecap:round}.cls-10,.cls-11,.cls-2,.cls-3,.cls-4,.cls-5,.cls-6,.cls-7,.cls-8,.cls-9{stroke-width:1.48px}.cls-3{stroke-dasharray:.08 2.3}.cls-4{stroke-dasharray:.07 2.08}.cls-5{stroke-dasharray:.07 2.22}.cls-6{stroke-dasharray:.08 2.36}.cls-7,.cls-8{stroke-dasharray:.07 2.12}.cls-9{stroke-dasharray:.07 2.11}.cls-10{stroke-dasharray:.07 2.12}.cls-11{stroke-dasharray:.08 2.34}.cls-13{stroke:#ff5a19;stroke-linejoin:round}</style></defs><title>Люстра</title><g id="Слой_2" data-name="Слой 2"><g id="Слой_1-2" data-name="Слой 1"><path class="cls-1" d="M0 0h60v60H0z"/><path class="cls-2" d="M30.15 47.42"/><path class="cls-3" d="M28 47.3a11 11 0 0 1-9.7-9.94"/><path class="cls-2" d="M28.33 45.5"/><path class="cls-4" d="M26.69 44.45c-1.6-1.2-2.64-2.73-2.81-6.09"/><path class="cls-5" d="M30.15 44.9v-8.3M30.15 33.51V13.95"/><path class="cls-2" d="M30.15 47.42"/><path class="cls-6" d="M32.55 47.29c5.71-.66 8.94-3.72 9.44-8"/><path class="cls-2" d="M17.11 32.93"/><path class="cls-7" d="M19.15 32.25c5.18-2.56 7.18-10.5 7.41-16.24"/><path class="cls-2" d="M23.11 32.93"/><path class="cls-8" d="M25 31.94c2.21-2.57 3.44-9.63 3.57-15.89"/><path class="cls-2" d="M43.2 32.93"/><path class="cls-9" d="M41.18 32.24c-5.08-2.57-7-10.5-7.27-16.24"/><path class="cls-2" d="M37.3 32.93"/><path class="cls-10" d="M35.48 31.92c-2.17-2.58-3.37-9.62-3.5-15.87"/><path class="cls-2" d="M32 45.5"/><path class="cls-11" d="M34 44.21c1.36-1.06 2.25-2.43 2.44-5.35"/><path class="cls-2" d="M36.45 37.68"/><path class="cls-12" d="M44.11 35.83a1.53 1.53 0 0 1-1.53 1.53H17.42a1.53 1.53 0 0 1-1.53-1.53 1.53 1.53 0 0 1 1.53-1.53h25.16a1.53 1.53 0 0 1 1.53 1.53z"/><path class="cls-13" d="M34.46 13.36a4.33 4.33 0 0 0-8.62 0z"/><circle class="cls-14" cx="30.15" cy="49.42" r="1.1"/></g></g></svg>