<svg xmlns="http://www.w3.org/2000/svg" viewBox="0 0 60 60"><path fill="#434343" d="M28.5 30a1.5 1.5 0 1 1 1.5 1.5 1.5 1.5 0 0 1-1.5-1.5z"/><path stroke-width="1.5" stroke-linecap="round" stroke="#434343" stroke-miterlimit="10" fill="none" d="M9.91 30A20.09 20.09 0 1 1 30 50.09 20.09 20.09 0 0 1 9.91 30z"/><path stroke="#434343" stroke-miterlimit="10" fill="none" d="M13.36 30A16.64 16.64 0 1 1 30 46.64 16.63 16.63 0 0 1 13.36 30z"/><path stroke-linecap="round" stroke="#434343" stroke-miterlimit="10" fill="none" d="M30 30V16.45M29.62 30l-7.2-4.15"/><path fill="#ff5a19" d="M17.82 30a.73.73 0 1 1 .73.73.73.73 0 0 1-.73-.73zM40.72 30a.73.73 0 1 1 .73.73.73.73 0 0 1-.73-.73zM30 40.72a.73.73 0 1 1-.73.73.73.73 0 0 1 .73-.73zM19.44 36.08a.73.73 0 1 1 1 .27.73.73 0 0 1-1-.27zM39.29 24.65a.73.73 0 1 1 1 .27.73.73 0 0 1-1-.27zM23.92 19.44a.73.73 0 1 1-.27 1 .73.73 0 0 1 .27-1zM35.35 39.29a.73.73 0 1 1-.27 1 .73.73 0 0 1 .27-1zM23.91 40.55a.73.73 0 1 1 1-.27.73.73 0 0 1-1 .27zM35.36 20.71a.72.72 0 0 1-.27-1 .73.73 0 1 1 1.27.73.72.72 0 0 1-1 .27zM19.45 23.91a.73.73 0 1 1 .27 1 .73.73 0 0 1-.27-1zM39.28 35.36a.73.73 0 1 1 .27 1 .74.74 0 0 1-.27-1z"/></svg>