<svg xmlns="http://www.w3.org/2000/svg" viewBox="0 0 60 60"><defs><style>.cls-1,.cls-2,.cls-3,.cls-4{fill:none}.cls-2,.cls-3{stroke:#434343}.cls-2,.cls-3,.cls-4{stroke-linecap:round;stroke-miterlimit:10}.cls-3{stroke-width:1.5px}.cls-4{stroke:#ff5a19}</style></defs><title>Духовка</title><g id="Слой_2" data-name="Слой 2"><g id="Слой_1-2" data-name="Слой 1"><path class="cls-1" d="M0 0h60v60H0z"/><path class="cls-2" d="M17.69 47.65v1.23a1.92 1.92 0 0 1-1.91 1.91 1.92 1.92 0 0 1-1.92-1.91v-1.23M45.87 47.65v1.23A1.92 1.92 0 0 1 44 50.79a1.92 1.92 0 0 1-2-1.91v-1.23"/><rect class="cls-3" x="12" y="11.65" width="36" height="36" rx="3.55" ry="3.55"/><rect class="cls-3" x="15.57" y="25.96" width="28.86" height="16" rx="1.92" ry="1.92"/><path class="cls-2" d="M14.68 11.25a2 2 0 0 1 2-2h26.66a2 2 0 0 1 2 2"/><path class="cls-3" d="M12 22.67h36"/><path class="cls-4" d="M21.46 17.71a1.89 1.89 0 1 1-1.89-1.88 1.89 1.89 0 0 1 1.89 1.88zM42 17.71a1.89 1.89 0 1 1-1.88-1.88A1.89 1.89 0 0 1 42 17.71zM35.18 17.71a1.89 1.89 0 1 1-1.88-1.88 1.89 1.89 0 0 1 1.88 1.88zM28.32 17.71a1.89 1.89 0 1 1-1.88-1.88 1.89 1.89 0 0 1 1.88 1.88z"/><path class="cls-2" d="M15.57 40.04h28.38M19.58 25.96v13.79M40.16 26.29v13.46"/></g></g></svg>