<svg xmlns="http://www.w3.org/2000/svg" viewBox="0 0 60 60"><defs><style>.cls-1,.cls-3,.cls-4,.cls-5{fill:none}.cls-2{fill:#434343}.cls-3,.cls-4,.cls-5{stroke:#434343;stroke-miterlimit:10}.cls-3,.cls-5{stroke-linecap:round}.cls-3{stroke-width:1.5px}.cls-6{fill:#ff5a19}</style></defs><title>почасовая</title><g id="Слой_2" data-name="Слой 2"><g id="Слой_1-2" data-name="Слой 1"><path class="cls-1" d="M0 0h60v60H0z"/><path class="cls-2" d="M28.5 30a1.5 1.5 0 1 1 1.5 1.5 1.5 1.5 0 0 1-1.5-1.5z"/><path class="cls-3" d="M9.91 30A20.09 20.09 0 1 1 30 50.09 20.09 20.09 0 0 1 9.91 30z"/><path class="cls-4" d="M13.36 30A16.64 16.64 0 1 1 30 46.64 16.63 16.63 0 0 1 13.36 30z"/><path class="cls-5" d="M30 30V16.45M29.62 30l-7.2-4.15"/><path class="cls-6" d="M17.82 30a.73.73 0 1 1 .73.73.73.73 0 0 1-.73-.73zM40.72 30a.73.73 0 1 1 .73.73.73.73 0 0 1-.73-.73zM30 40.72a.73.73 0 1 1-.73.73.73.73 0 0 1 .73-.73zM19.44 36.08a.73.73 0 1 1 1 .27.73.73 0 0 1-1-.27zM39.29 24.65a.73.73 0 1 1 1 .27.73.73 0 0 1-1-.27zM23.92 19.44a.73.73 0 1 1-.27 1 .73.73 0 0 1 .27-1zM35.35 39.29a.73.73 0 1 1-.27 1 .73.73 0 0 1 .27-1zM23.91 40.55a.73.73 0 1 1 1-.27.73.73 0 0 1-1 .27zM35.36 20.71a.72.72 0 0 1-.27-1 .73.73 0 1 1 1.27.73.72.72 0 0 1-1 .27zM19.45 23.91a.73.73 0 1 1 .27 1 .73.73 0 0 1-.27-1zM39.28 35.36a.73.73 0 1 1 .27 1 .74.74 0 0 1-.27-1z"/></g></g></svg>