<svg xmlns="http://www.w3.org/2000/svg" width="70" height="70" viewBox="0 0 70 70"><title>мытье-фасада</title><g id="Слой_2" data-name="Слой 2"><g id="Слой_1-2" data-name="Слой 1"><rect width="70" height="70" fill="none"/><polygon points="50.07 16.61 41.81 17.57 41.81 19.52 50.07 18.57 50.07 16.61" fill="#eaeaea" stroke="#692f17" stroke-linejoin="round" stroke-width="0.75"/><ellipse cx="25.64" cy="19.94" rx="7.38" ry="7.29" fill="#d9d6cc" stroke="#692f17" stroke-miterlimit="10" stroke-width="1.5"/><path d="M33.73,32.6c-2.32-.83-5.62-1.49-6.17-5.61L26,7.33a1.17,1.17,0,0,0-1.16-1.08H22.38a1.17,1.17,0,0,0-1.17,1.17v43h0c0,7.31,0,13.36,0,13.36H40.11l3.5-8.93.06-10.92S43.45,36.09,33.73,32.6Z" fill="#fd8204" stroke="#692f17" stroke-linejoin="round" stroke-width="1.5" fill-rule="evenodd"/><polygon points="51.74 14.43 40.47 15.57 40.27 15.57 40.27 15.59 40.23 15.59 40.23 18.36 40.27 45.14 42.02 45.14 42.02 18.18 51.74 17.19 51.74 14.43" fill="#eaeaea" stroke="#692f17" stroke-linejoin="round" stroke-width="0.75"/><rect x="39.06" y="43.94" width="4.48" height="8.49" fill="#f4f4f4" stroke="#692f17" stroke-linejoin="round" stroke-width="0.75"/><ellipse cx="39.62" cy="57.7" rx="6.13" ry="6.05" fill="#d9d6cc" stroke="#692f17" stroke-miterlimit="10" stroke-width="1.5"/><ellipse cx="39.62" cy="57.7" rx="3.52" ry="3.48" fill="#f4f4f4" stroke="#692f17" stroke-miterlimit="10" stroke-width="0.75"/><path d="M23.08,55.58" fill="none" stroke="#692f17" stroke-miterlimit="10" stroke-width="0.5" fill-rule="evenodd"/><path d="M21.36,51.85c0-9.73,7.83-17.54,15.57-17.54" fill="none" stroke="#692f17" stroke-miterlimit="10" stroke-width="0.75" fill-rule="evenodd"/><path d="M51.66,17.08l0,1.47a1.52,1.52,0,0,1-1.39,1.62L42.05,21" fill="none" stroke="#692f17" stroke-linejoin="round" stroke-width="0.75"/></g></g></svg>