<svg xmlns="http://www.w3.org/2000/svg" width="70" height="70" viewBox="0 0 70 70"><title>мытье-фасада</title><g data-name="Слой 2"><g data-name="Слой 1"><path fill="none" d="M0 0h70v70H0z"/><path fill="#eaeaea" stroke="#692f17" stroke-linejoin="round" stroke-width=".75" d="M50.07 16.61l-8.26.96v1.95l8.26-.95v-1.96z"/><ellipse cx="25.64" cy="19.94" rx="7.38" ry="7.29" fill="#d9d6cc" stroke="#692f17" stroke-miterlimit="10" stroke-width="1.5"/><path d="M33.73 32.6c-2.32-.83-5.62-1.49-6.17-5.61L26 7.33a1.17 1.17 0 0 0-1.16-1.08h-2.46a1.17 1.17 0 0 0-1.17 1.17v56.36h18.9l3.5-8.93.06-10.92s-.22-7.84-9.94-11.33z" fill="#fd8204" stroke="#692f17" stroke-linejoin="round" stroke-width="1.5" fill-rule="evenodd"/><path fill="#eaeaea" stroke="#692f17" stroke-linejoin="round" stroke-width=".75" d="M51.74 14.43l-11.27 1.14h-.2v.02h-.04v2.77l.04 26.78h1.75V18.18l9.72-.99v-2.76z"/><path fill="#f4f4f4" stroke="#692f17" stroke-linejoin="round" stroke-width=".75" d="M39.06 43.94h4.48v8.49h-4.48z"/><ellipse cx="39.62" cy="57.7" rx="6.13" ry="6.05" fill="#d9d6cc" stroke="#692f17" stroke-miterlimit="10" stroke-width="1.5"/><ellipse cx="39.62" cy="57.7" rx="3.52" ry="3.48" fill="#f4f4f4" stroke="#692f17" stroke-miterlimit="10" stroke-width=".75"/><path d="M21.36 51.85c0-9.73 7.83-17.54 15.57-17.54" fill="none" stroke="#692f17" stroke-miterlimit="10" stroke-width=".75" fill-rule="evenodd"/><path d="M51.66 17.08v1.47a1.52 1.52 0 0 1-1.39 1.62l-8.22.83" fill="none" stroke="#692f17" stroke-linejoin="round" stroke-width=".75"/></g></g></svg>