<svg xmlns="http://www.w3.org/2000/svg" viewBox="0 0 90 90"><defs><style>.cls-1,.cls-2,.cls-5{fill:none}.cls-2,.cls-3,.cls-5{stroke:#ff5a19;stroke-linecap:round;stroke-miterlimit:10}.cls-2,.cls-3{stroke-width:2px}.cls-3{fill:#fff}.cls-4{fill:#ff5a19}.cls-5{stroke-width:1.3px}</style></defs><title>ДАвайте-дружить</title><g id="Слой_2" data-name="Слой 2"><g id="Слой_1-2" data-name="Слой 1"><path class="cls-1" d="M0 0h90v90H0z"/><path class="cls-2" d="M29.06 57.44L23 59.38a1.29 1.29 0 0 1-1.61-.84L11.1 26.35a1.29 1.29 0 0 1 .83-1.62L67 7.14a1.28 1.28 0 0 1 1.61.86L78.9 40.17a1.28 1.28 0 0 1-.83 1.61l-27.62 8.83"/><path class="cls-3" d="M12.84 31.79l57.51-18.38M15.06 38.74l57.51-18.37"/><path class="cls-4" d="M42.61 61.48a5.18 5.18 0 0 1-2-.38 7.63 7.63 0 0 1-2.42.67c-.64.06-.56-.06-.72.63-.3 1.29-.59 2.58-.89 3.86A2.14 2.14 0 0 0 36.9 68l.9 1.43c.24.38.23.42-.16.67l-1.1.68a2 2 0 0 0-.67 3l.7 1.12c.22.35.2.4-.15.63l-1.44.9a2.13 2.13 0 0 0-1 1.43c-.1.5-.23 1-.34 1.49a.62.62 0 0 1-.28.42l-1.86 1.1a.32.32 0 0 1-.51-.12c-.19-.32-.39-.63-.67-1.08-.65-.56-.55-1.36-.34-2.26 1.26-5.33 2.48-10.67 3.71-16 .1-.48.1-.48-.31-.73a7.83 7.83 0 0 1 2-14.31 4.5 4.5 0 0 1 2.43-2.18 10.2 10.2 0 0 0-4.14.69c-.13 0-.26.14-.41.08l-2.19 1.37c0 .18-.16.26-.27.36a9.38 9.38 0 0 0-3.07 5.56 9.5 9.5 0 0 0 3.41 9.26.71.71 0 0 1 .29.83c-.92 3.94-1.84 7.87-2.71 11.82a25.78 25.78 0 0 0-1 5.22l1.89 3a.34.34 0 0 1 .25.11 2.11 2.11 0 0 0 1.64.51.39.39 0 0 1 .26 0l3.39-2.12c.05-.3.25-.55.31-.86.11-.54.25-1.07.37-1.61a.69.69 0 0 1 .34-.49c.53-.32 1.06-.65 1.58-1a2 2 0 0 0 .66-2.88l-.78-1.24a.31.31 0 0 1 .12-.51l1.27-.8a2 2 0 0 0 .64-2.86c-.32-.51-.64-1-1-1.53a.79.79 0 0 1-.11-.67c.2-.82.39-1.65.57-2.48a.52.52 0 0 1 .47-.47 9.39 9.39 0 0 0 4-1.94l.27-.26a5.85 5.85 0 0 1-1.25.2z"/><path class="cls-4" d="M44.62 43.35c0 .12.15.15.26.19a9.26 9.26 0 0 1 4.87 3.6A9.64 9.64 0 0 1 51.5 54a9.44 9.44 0 0 1-1.58 4.19.53.53 0 0 0 0 .66c.44.73.87 1.46 1.3 2.2a.81.81 0 0 0 .54.4l1.76.44A2 2 0 0 1 55 64.42c-.12.49-.24 1-.37 1.46a.31.31 0 0 0 .26.45c.48.11 1 .24 1.43.36a2 2 0 0 1 1.51 2.54c-.15.6-.31 1.21-.47 1.81a.73.73 0 0 0 .09.59c.29.47.55 1 .85 1.42.17.26.2.58.37.84l-1 3.86a.4.4 0 0 0-.22.16 2.05 2.05 0 0 1-1.5.77.41.41 0 0 0-.26.09l-3.45-.88a25.23 25.23 0 0 1-2.86-4.48C47.31 70 45.26 66.47 43.22 63a.74.74 0 0 0-.79-.4 9.5 9.5 0 0 1-8.86-4.36A9.4 9.4 0 0 1 32 52.08c0-.15.06-.31-.05-.45l.64-2.49c.15-.07.18-.22.24-.34a9.78 9.78 0 0 1 10.43-5.68.43.43 0 0 0 .33 0zm9.7 33l1.24.32c.25.07.39 0 .45-.26.17-.7.36-1.41.54-2.11a.6.6 0 0 0-.09-.5c-.26-.44-.51-.88-.78-1.32a2.09 2.09 0 0 1-.25-1.74l.42-1.63c.1-.41.07-.46-.33-.56s-.85-.22-1.27-.33a2 2 0 0 1-1.56-2.61c.1-.42.21-.84.32-1.25s.09-.49-.35-.6-1.09-.28-1.63-.42a2.16 2.16 0 0 1-1.39-1c-.66-1.14-1.34-2.27-2-3.41-.37-.61-.34-.47.08-1a7.88 7.88 0 1 0-4.26 2.56c.47-.11.47-.11.72.31 2.79 4.71 5.59 9.41 8.35 14.14.47.78.94 1.43 1.79 1.38z"/><path class="cls-4" d="M42.13 46.84a4 4 0 0 1 1.42 1.24 4.31 4.31 0 0 1 .8 2.16 1 1 0 0 1-.37.93A17.18 17.18 0 0 1 39.22 54a1 1 0 0 1-.93-.09 4.33 4.33 0 0 1-2-3.31 1 1 0 0 1 .37-.87 16.58 16.58 0 0 1 4.81-2.85 1 1 0 0 1 .66-.04zm-.22 1a.46.46 0 0 0-.35 0 17 17 0 0 0-4.07 2.43.45.45 0 0 0-.18.48 3.4 3.4 0 0 0 1.28 2.13.49.49 0 0 0 .54.08 16.88 16.88 0 0 0 4-2.41.48.48 0 0 0 .19-.51 3.34 3.34 0 0 0-1.31-2.14z"/><path class="cls-5" d="M28.58 52a8.2 8.2 0 1 1 8.84-.35"/></g></g></svg>