<svg xmlns="http://www.w3.org/2000/svg" viewBox="0 0 90 90"><defs><style>.cls-1,.cls-2,.cls-3,.cls-4,.cls-5,.cls-6,.cls-8{fill:none}.cls-2,.cls-3,.cls-4,.cls-5,.cls-6,.cls-8{stroke:#ff5a19}.cls-2{stroke-linejoin:round}.cls-2,.cls-3,.cls-8{stroke-width:2px}.cls-3,.cls-4,.cls-5,.cls-6,.cls-8{stroke-miterlimit:10}.cls-4,.cls-5{stroke-width:1.3px}.cls-5,.cls-6{stroke-linecap:round}.cls-7{fill:#ff5722}.cls-8{stroke-linecap:square}</style></defs><title>домовенок</title><g id="Слой_2" data-name="Слой 2"><g id="Слой_1-2" data-name="Слой 1"><path class="cls-1" d="M0 0h90v90H0z"/><path class="cls-2" d="M32.51 64a40.16 40.16 0 0 1-12.9-5.07 80.75 80.75 0 0 1-1.23-14S14.4 8.44 44 8.71c30.18.41 27.71 36.36 27.71 36.36a86.34 86.34 0 0 1-1.1 14.68c-3.56 2.33-7.41 3.29-13 4.39"/><path class="cls-3" d="M39.92 62.08c-10.56 1.37-18.38 7.41-18.38 14.41v.68a68.06 68.06 0 0 0 46.64 0v-.68c0-7.14-7.82-13-18.38-14.41"/><path class="cls-4" d="M39.92 60v1.92c0 1.79 2.19 3.3 4.94 3.3s4.94-1.51 4.94-3.3V60"/><path class="cls-4" d="M64.75 41.64c.41-4.25.41-8.37.41-12.62-6.86 2.06-9.33-4.94-9.33-4.94S52 30.39 45.13 31.9a38 38 0 0 1-20.71-1.37 48.28 48.28 0 0 0 .41 11c1.37 10.29 7.68 18.94 20 19.07 12.1-.03 19.37-9.08 19.92-18.96z"/><path class="cls-5" d="M51 50.28a18.15 18.15 0 0 1-6.72 1.24 19.56 19.56 0 0 1-6.28-1.1M47.47 53.85a7.86 7.86 0 0 1-3 .55 10.6 10.6 0 0 1-2.9-.4M47.05 46.3a7.79 7.79 0 0 1-2.6.42A7.59 7.59 0 0 1 42 46.3"/><path class="cls-6" d="M38.27 39.17a7.67 7.67 0 0 0-5.21-2.61 7.67 7.67 0 0 0-5.21 2.61"/><path class="cls-7" d="M33.06 41.5a2.27 2.27 0 1 1 .14-4.5 2.26 2.26 0 0 1 2.19 2.2 2.23 2.23 0 0 1-2.33 2.33z"/><path class="cls-6" d="M60.23 39.17A7.71 7.71 0 0 0 55 36.56a7.67 7.67 0 0 0-5.21 2.61"/><path class="cls-7" d="M55 41.5a2.27 2.27 0 0 1 .15-4.5 2.17 2.17 0 0 1 2.19 2.2A2.39 2.39 0 0 1 55 41.5z"/><path class="cls-8" d="M53.23 64c0 5.35-3.71 9.74-8.37 9.74s-8.37-4.39-8.37-9.74"/></g></g></svg>