<svg xmlns="http://www.w3.org/2000/svg" viewBox="0 0 90 90"><defs><style>.cls-1,.cls-2,.cls-3,.cls-4,.cls-5,.cls-6,.cls-8{fill:none}.cls-2,.cls-3,.cls-4,.cls-5,.cls-6,.cls-7,.cls-8{stroke:#ff5a19}.cls-2,.cls-3{stroke-miterlimit:10}.cls-2,.cls-4,.cls-6,.cls-7,.cls-8{stroke-width:1.3px}.cls-3,.cls-5{stroke-width:2px}.cls-4,.cls-5,.cls-6,.cls-7,.cls-8{stroke-linejoin:round}.cls-5,.cls-6,.cls-7,.cls-8{stroke-linecap:round}.cls-6{fill-rule:evenodd}.cls-7{fill:#fff}</style></defs><title>Скидка</title><g id="Слой_2" data-name="Слой 2"><g id="Слой_1-2" data-name="Слой 1"><path class="cls-1" d="M0 0h90v90H0z"/><path class="cls-2" d="M55.2 9h-5.41a1 1 0 0 0-.92 1v5.08h7.25V10a1 1 0 0 0-.92-1z"/><path class="cls-3" d="M55.78 28.21V15.38v-.14h-6.66v.14c0 .05-.12 9.26-12.81 13.21-1.83.57-3.52 1.45-4.25 2.93"/><path class="cls-2" d="M14.43 18.78h-1.78a.54.54 0 0 1-.54-.54v-2.33a.54.54 0 0 1 .54-.53h2.42"/><path class="cls-3" d="M36.93 46.62v-5-.07-.07a11.17 11.17 0 1 0-22.34 0V48.22"/><path class="cls-2" d="M30.59 15.24H15.71a1.11 1.11 0 0 0-1.12 1.11V19a1.12 1.12 0 0 0 1.12 1.11h5.64l2.12 6.24h4.58v-6.27h2.54A1.12 1.12 0 0 0 31.71 19v-2.65a1.11 1.11 0 0 0-1.12-1.11z"/><path class="cls-2" d="M28.08 26h-4.64a.79.79 0 0 0-.79.79v4h6.22v-4a.79.79 0 0 0-.79-.79z"/><path class="cls-4" d="M18.27 20.08a8.51 8.51 0 0 1-2.79 7 26.89 26.89 0 0 1-3.68 2.59l.57.61a16.07 16.07 0 0 0 6.24-3.54c3.34-3.33 2.74-6.65 2.74-6.65z"/><path class="cls-3" d="M74 47.9v-9.17a1.93 1.93 0 0 0-.06-.42c-.38-5-2.93-9.24-6.51-11.31a9.89 9.89 0 0 0-5-1.36 9.68 9.68 0 0 0-4 .88c-4.06 1.84-7 6.36-7.45 11.79a1.93 1.93 0 0 0-.05.42v8.67"/><path class="cls-5" d="M14.62 68.33L16 76.64A4.33 4.33 0 0 0 20.29 81h49.42a4.33 4.33 0 0 0 4.34-4.33l3.51-22.27H48.92"/><path class="cls-5" d="M48.84 48H80.6a1.49 1.49 0 0 1 1.48 1.49v3.45a1.48 1.48 0 0 1-1.48 1.48H64.68M12.65 54.37H9.4a1.48 1.48 0 0 1-1.48-1.48v-3.45A1.49 1.49 0 0 1 9.4 48h9.76"/><path class="cls-6" d="M30.24 63.5c-1.15 2.1-2.85 4.47-4.5 3.59-1.39-.73 1.63-6.79 1.63-6.79l-8.74 8.58a1.77 1.77 0 0 1-2.5-2.5l-1.45 1.45a1.77 1.77 0 0 1-2.51-2.5l1.18-1.18a1.77 1.77 0 0 1-2.19-.24 1.75 1.75 0 0 1 0-2.5l2.56-2.57a1.77 1.77 0 0 1-2.5-2.5l7.72-7.73c2.39-2.38 1.73-1.74 1.73-1.74a33.06 33.06 0 0 1 9.66-.87 31.7 31.7 0 0 1 3.29.42c.53.1 1 .2 1.43.31"/><path class="cls-7" d="M16.17 66.34l5.27-5.27M13.35 64.15l5.96-5.96M13.83 58.73l3.28-3.28"/><path class="cls-8" d="M26.75 60.91l2.11-2.11"/><path class="cls-6" d="M35.32 47l-.06 2.29s-3.28 3.51-4 5.82c-.44 1.36-2.81 7.65-.11 8.33 1.47.37 3.47-6 3.47-6l.33 12A1.67 1.67 0 0 0 36.72 71a1.83 1.83 0 0 0 1.71-1.84v2a1.68 1.68 0 0 0 1.77 1.65A1.82 1.82 0 0 0 41.94 71v-1.63a1.65 1.65 0 0 0 1.71 1.26 1.81 1.81 0 0 0 1.71-1.83l-.07-3.56A1.67 1.67 0 0 0 47 66.91a1.81 1.81 0 0 0 1.7-1.83l-.2-10.74c-.06-3.32 0-7.52 0-7.52s-1.38-.44-6.32-.47a34.56 34.56 0 0 0-6.86.65z"/><path class="cls-7" d="M38.43 69.15l-.14-7.33M41.91 69.4l-.16-8.29M45.26 65.11l-.09-4.55"/><path class="cls-8" d="M34.63 58.21l-.05-2.93"/><path class="cls-2" d="M66.11 21.72h-7.34a.68.68 0 0 0-.69.68v3.44h8.71V22.4a.67.67 0 0 0-.68-.68z"/></g></g></svg>