<svg xmlns="http://www.w3.org/2000/svg" width="72.57" height="57.75" viewBox="0 0 72.57 57.75"><path d="M63.04 22.44a4.29 4.29 0 0 0-6.53-3.67v-.21a5.92 5.92 0 0 0-11.72 1.12h-.11a3.72 3.72 0 0 0-6.2 2.77h24.6z" fill="#f8f4eb"/><path d="M54.44 22.44a4.3 4.3 0 1 1 8.6 0M38.43 22.44a3.72 3.72 0 0 1 6.31-2.68M45.38 22.44a5.93 5.93 0 1 1 11.09-3.88" fill="none" stroke="#692f17" stroke-miterlimit="10"/><circle cx="44.21" cy="11.9" r="1.93" fill="#f8f4eb" stroke="#692f17" stroke-miterlimit="10"/><path d="M66.61 22.44h-31.9a1.18 1.18 0 0 0-1.18 1.18v1.45a1.19 1.19 0 0 0 1.18 1.18h1.57l1.61 23.63a3.3 3.3 0 0 0 3.3 3.29h18.94a3.3 3.3 0 0 0 3.29-3.29l1.62-23.63h1.57a1.19 1.19 0 0 0 1.18-1.18v-1.45a1.18 1.18 0 0 0-1.18-1.18z" fill="#f08119" stroke="#692f17" stroke-miterlimit="10" stroke-width="1.5" fill-rule="evenodd"/><path fill="none" stroke="#692f17" stroke-linejoin="round" stroke-width=".7" d="M35.76 25.85h29.27"/><circle cx="47.8" cy="26.38" r="2.19" fill="#692f17"/><path d="M47.66 25.85s7.16 18.52 16.83 16.61c6.91-1.36.54-13.55.54-13.55" fill="none" stroke="#692f17" stroke-linejoin="round" stroke-width="1.5"/><g><path fill="#edb004" d="M22.48.75h3.69v3.68h-3.69z"/><path d="M25.43 1.5v2.18h-2.19V1.5h2.19m.84-1.5H22.4a.66.66 0 0 0-.66.66v4.52h5.19V.66a.66.66 0 0 0-.66-.66z" fill="#682f24"/><g><path d="M25.36 41.21a2.89 2.89 0 0 1-2.88-2.89V4.84h3.78c.28 2 1.82 7.73 10.5 10.45 2.78.87 3.1 2.08 3.1 2.92v20.11a2.89 2.89 0 0 1-2.88 2.89H25.35z" fill="#e7c3a0"/><path d="M25.64 5.59c.53 2.52 2.63 7.83 10.9 10.41 2.58.8 2.58 1.82 2.58 2.21v20.11a2.14 2.14 0 0 1-2.13 2.14H25.36a2.14 2.14 0 0 1-2.13-2.14V5.59h2.41m1.31-1.5h-5.21a.83.83 0 0 0 0 .11v34.12a3.63 3.63 0 0 0 3.63 3.64H37a3.63 3.63 0 0 0 3.63-3.64V18.21c0-2-1.72-3-3.63-3.64-9.92-3.1-10-10.38-10-10.38v-.11z" fill="#682f24"/></g></g><g stroke="#692f17"><path d="M8.84 7.89a6.66 6.66 0 0 1-2.19 5.49 21.7 21.7 0 0 1-2.89 2l.45.48a12.62 12.62 0 0 0 4.9-2.78c2.62-2.62 2.15-5.22 2.15-5.22H8.84z" fill="#f8f4eb" stroke-miterlimit="10" stroke-width=".7"/><rect x="3.97" y="4.57" width="3.04" height="2.67" rx=".42" ry=".42" fill="#e7c3a0" stroke-miterlimit="10" stroke-width=".7"/><path d="M23.54 24.67a8.77 8.77 0 1 0-17.54 0V39.22a3.64 3.64 0 0 0 3.64 3.64H19.9a3.64 3.64 0 0 0 3.64-3.64V24.78v-.05-.06z" fill="#dce1e2" stroke-miterlimit="10" stroke-width="1.5"/><path d="M18.56 4.09H6.84a.88.88 0 0 0-.87.88V7a.88.88 0 0 0 .87.88h4.43l1.58 4.65a.61.61 0 0 0-.56.61v3.12h4.89v-3.1a.62.62 0 0 0-.62-.62V7.89h2a.88.88 0 0 0 .87-.88V5a.87.87 0 0 0-.87-.91z" fill="#f8f4eb" stroke-linecap="round" stroke-linejoin="round" stroke-width="1.5"/></g><path d="M4.31 34.83l2.76 17.48a3.4 3.4 0 0 0 3.4 3.4h27.37a3.4 3.4 0 0 0 3.4-3.4L44 34.83H4.27zM1.92 29.78h44.51a1.16 1.16 0 0 1 1.16 1.16v2.71a1.16 1.16 0 0 1-1.16 1.16H1.92a1.17 1.17 0 0 1-1.17-1.15v-2.71a1.17 1.17 0 0 1 1.17-1.17z" fill="#e2ddd3" stroke="#682f24" stroke-linecap="round" stroke-linejoin="round" stroke-width="1.5"/><g fill="#fde9d3" stroke="#682f24" stroke-linecap="round" stroke-linejoin="round" stroke-width=".7"><path d="M24.4 29.78l-4.26 4.69s0 3.77-.84 5.48c-.5 1-2.57 5.91-4.55 4.85-1.08-.58 1.28-5.33 1.28-5.33l-6.86 6.74a1.414 1.414 0 1 1-2-2l-1.14 1.14a1.414 1.414 0 0 1-2-2l.92-.92a1.39 1.39 0 0 1-1.72-2.16l2-2a1.414 1.414 0 0 1-2-2L9.3 30.2c1.88-1.87 1.36-1.37 1.36-1.37a25.93 25.93 0 0 1 7.58-.67c4.75.46 6.16 1.62 6.16 1.62z" fill-rule="evenodd"/><path d="M7.23 44.22l4.14-4.14M5.02 42.5l4.68-4.68M5.4 38.24l2.57-2.57M15.55 39.96l1.65-1.66"/></g><g fill="#fde9d3" stroke="#682f24" stroke-linecap="round" stroke-linejoin="round" stroke-width=".7"><path d="M22.28 29l-.05 1.8s-2.57 2.76-3.14 4.57c-.34 1.07-2.2 6-.09 6.54 1.16.29 2.73-4.75 2.73-4.75l.26 9.45a1.31 1.31 0 0 0 1.39 1.29 1.42 1.42 0 0 0 1.34-1.44v1.58a1.31 1.31 0 0 0 1.39 1.29 1.43 1.43 0 0 0 1.34-1.44v-1.28a1.3 1.3 0 0 0 1.35 1 1.43 1.43 0 0 0 1.34-1.44l-.05-2.8a1.31 1.31 0 0 0 1.39 1.29 1.42 1.42 0 0 0 1.34-1.44l-.16-8.43c-.05-2.61 0-5.9 0-5.9a20.46 20.46 0 0 0-5-.38 27.14 27.14 0 0 0-5.38.49z" fill-rule="evenodd"/><path d="M24.71 46.43l-.11-5.76M27.45 46.63l-.13-6.52M30.08 43.26l-.07-3.58M21.73 37.84l-.04-2.3"/></g><path fill="none" stroke="#692f17" stroke-miterlimit="10" d="M16.91 12.98h-4.8"/><g><path d="M63.08 37.75v2.73s-4.29 1.8-4.29 2.75v12a1.73 1.73 0 0 0 1.73 1.72h9.58a1.72 1.72 0 0 0 1.73-1.72v-12c0-1-4.29-2.75-4.29-2.75v-2.73" fill="#fee9d4" stroke="#692f17" stroke-miterlimit="10" stroke-width="1.5" fill-rule="evenodd"/><rect x="60.9" y="33.32" width="8.8" height="4.86" rx="1.25" ry="1.25" fill="#f8f4eb" stroke="#692f17" stroke-linecap="round" stroke-linejoin="round" stroke-width="1.5"/><path d="M66.5 33.32v-1.45h1.63a2.83 2.83 0 1 0-5.66 0h1.63v1.45" fill="#f8f4eb" stroke="#692f17" stroke-linecap="round" stroke-linejoin="round" fill-rule="evenodd"/><path fill="#fde9d3" stroke="#692f17" stroke-miterlimit="10" stroke-width=".7" d="M62.99 40.61h4.62"/><path fill="#f7f5f2" d="M59.13 46.22h12.33v6.03H59.13z"/><path d="M71.12 46.58v5.33H59.49v-5.33h11.63m.7-.7h-13v6.73h13v-6.73z" fill="#692f17"/></g></svg>