<svg xmlns="http://www.w3.org/2000/svg" width="70" height="70" viewBox="0 0 70 70"><title>хим-средства</title><g data-name="Слой 2"><g data-name="Слой 1"><path fill="none" d="M0 0h70v70H0z"/><path d="M58.7 29.57a3.78 3.78 0 0 0-5.75-3.23v-.18a5.21 5.21 0 0 0-10.32 1h-.1A3.27 3.27 0 0 0 37 29.57h21.7z" fill="#f6f3ea"/><path d="M51.14 29.57a3.78 3.78 0 1 1 7.57 0M37 29.57a3.28 3.28 0 0 1 5.55-2.36M43.16 29.58a5.22 5.22 0 1 1 9.76-3.42" fill="none" stroke="#692f17" stroke-miterlimit="10" stroke-width=".75"/><circle cx="42.13" cy="20.3" r="1.7" fill="#f6f3ea" stroke="#692f17" stroke-miterlimit="10" stroke-width=".75"/><path d="M61.85 29.57H33.77a1 1 0 0 0-1 1v1.28a1 1 0 0 0 1 1h1.38l1.42 20.8a2.9 2.9 0 0 0 2.9 2.9h16.68a2.9 2.9 0 0 0 2.9-2.9l1.42-20.8h1.38a1 1 0 0 0 1-1v-1.24a1 1 0 0 0-1-1.04z" fill="#d68028" stroke="#692f17" stroke-miterlimit="10" stroke-width="1.5" fill-rule="evenodd"/><path fill="none" stroke="#692f17" stroke-linejoin="round" stroke-width=".75" d="M34.69 32.58h25.77"/><circle cx="45.29" cy="33.04" r="1.93" fill="#692f17"/><path d="M45.17 32.58S51.47 48.88 60 47.2c6.08-1.2.47-11.92.47-11.92" fill="none" stroke="#692f17" stroke-linejoin="round" stroke-width="1.5"/><path fill="#ddae29" d="M23.09 10.57h3.07v3.06h-3.07z"/><path d="M25.41 11.32v1.56h-1.57v-1.56h1.57m.92-1.5h-3.41a.58.58 0 0 0-.58.58v4h4.57v-4a.58.58 0 0 0-.58-.58z" fill="#692f17"/><path d="M25.54 46a2.45 2.45 0 0 1-2.44-2.45V14.17h3.16C26.53 16 28 21 35.55 23.37c2.39.75 2.67 1.78 2.67 2.49v17.7A2.45 2.45 0 0 1 35.77 46z" fill="#dbc19f"/><path d="M25.64 14.92c.53 2.31 2.48 6.9 9.69 9.16 2.14.67 2.14 1.47 2.14 1.77v17.7a1.7 1.7 0 0 1-1.69 1.7H25.54a1.7 1.7 0 0 1-1.69-1.7V14.92h1.8m1.3-1.5h-4.6a.74.74 0 0 0 0 .09v30a3.2 3.2 0 0 0 3.19 3.2h10.23A3.2 3.2 0 0 0 39 43.55v-17.7c0-1.77-1.51-2.68-3.19-3.2-8.73-2.73-8.83-9.13-8.83-9.13v-.09z" fill="#692f17"/><path d="M11 16.77a5.87 5.87 0 0 1-1.9 4.83 19.1 19.1 0 0 1-2.54 1.79l.4.42a11.11 11.11 0 0 0 4.31-2.45 5.57 5.57 0 0 0 1.89-4.6z" fill="#f6f3ea" stroke="#692f17" stroke-miterlimit="10" stroke-width=".75"/><rect x="6.71" y="13.85" width="2.68" height="2.35" rx=".37" ry=".37" fill="#dcc19f" stroke="#692f17" stroke-miterlimit="10" stroke-width=".75"/><path d="M23.93 31.54a7.72 7.72 0 1 0-15.44 0v12.8a3.2 3.2 0 0 0 3.2 3.2h9a3.2 3.2 0 0 0 3.2-3.2V31.63s.04-.08.04-.09z" fill="#dcdfe0" stroke="#692f17" stroke-miterlimit="10" stroke-width="1.5"/><path d="M19.55 13.42H9.26a.77.77 0 0 0-.77.77V16a.77.77 0 0 0 .77.77h3.9l1.39 4.1a.54.54 0 0 0-.49.54v2.74h4.3V21.4a.54.54 0 0 0-.55-.55v-4.08h1.75a.77.77 0 0 0 .77-.77v-1.81a.77.77 0 0 0-.78-.77z" fill="#f6f3ea" stroke="#692f17" stroke-linecap="round" stroke-linejoin="round" stroke-width="1.5"/><path d="M7 40.48l2.43 15.39a3 3 0 0 0 3 3h24.12a3 3 0 0 0 3-3L42 40.48zM4.9 36h39.18a1 1 0 0 1 1 1v2.39a1 1 0 0 1-1 1H4.9a1 1 0 0 1-1-1v-2.33a1 1 0 0 1 1-1z" fill="#dfdbd1" stroke="#692f17" stroke-linecap="round" stroke-linejoin="round" stroke-width="1.5"/><path d="M24.68 36l-3.75 4.13s0 3.32-.74 4.83c-.44.9-2.26 5.2-4 4.27-1-.51 1.13-4.69 1.13-4.69l-6 5.93a1.22 1.22 0 1 1-1.73-1.73l-1 1A1.22 1.22 0 0 1 6.82 48l.81-.81a1.22 1.22 0 0 1-1.52-1.9l1.77-1.77a1.22 1.22 0 0 1-1.73-1.73l5.34-5.34c1.65-1.65 1.19-1.21 1.19-1.21a22.83 22.83 0 0 1 6.68-.59C23.45 35 24.68 36 24.68 36z" fill="#f7e8d2" stroke="#692f17" stroke-linecap="round" stroke-linejoin="round" stroke-width=".75" fill-rule="evenodd"/><path fill="#f7e8d2" stroke="#692f17" stroke-linecap="round" stroke-linejoin="round" stroke-width=".75" d="M9.58 48.75l3.64-3.65M7.63 47.24l4.12-4.13M7.96 43.49l2.27-2.27M16.9 45l1.46-1.46"/><path d="M22.82 35.36v1.58A15.41 15.41 0 0 0 20 41c-.3.95-1.94 5.29-.08 5.76 1 .26 2.4-4.18 2.4-4.18l.23 8.31A1.15 1.15 0 0 0 23.79 52 1.25 1.25 0 0 0 25 50.73v1.4a1.15 1.15 0 0 0 1.22 1.14A1.25 1.25 0 0 0 27.39 52v-1.13a1.15 1.15 0 0 0 1.19.87 1.25 1.25 0 0 0 1.18-1.27V48a1.15 1.15 0 0 0 1.22 1.14 1.25 1.25 0 0 0 1.18-1.27L32 40.45v-5.2a18 18 0 0 0-4.37-.33 23.89 23.89 0 0 0-4.81.44z" fill="#f7e8d2" stroke="#692f17" stroke-linecap="round" stroke-linejoin="round" stroke-width=".75" fill-rule="evenodd"/><path fill="#f7e8d2" stroke="#692f17" stroke-linecap="round" stroke-linejoin="round" stroke-width=".75" d="M24.97 50.69l-.1-5.06M27.37 50.87l-.11-5.73M29.69 47.9l-.06-3.15M22.34 43.13l-.04-2.02"/><path fill="none" stroke="#692f17" stroke-miterlimit="10" d="M18.1 21.25h-4.22"/><path d="M58.73 43v2.4S55 47 55 47.88v10.6A1.52 1.52 0 0 0 56.48 60h8.43a1.52 1.52 0 0 0 1.52-1.52v-10.6c0-.84-3.77-2.42-3.77-2.42V43" fill="#f7e8d3" stroke="#692f17" stroke-miterlimit="10" stroke-width="1.5" fill-rule="evenodd"/><path d="M61.75 39.15v-1.27h1.44a2.49 2.49 0 1 0-5 0h1.43v1.27" fill="#f6f3ea" stroke="#692f17" stroke-linecap="round" stroke-linejoin="round" stroke-width=".75" fill-rule="evenodd"/><path fill="#f7e8d2" stroke="#692f17" stroke-miterlimit="10" stroke-width=".75" d="M58.66 45.57h4.07"/><path fill="#f5f4f0" d="M55.34 50.58h10.72v5.18H55.34z"/><path d="M65.68 51v4.43h-10V51h10m.75-.75H55v5.93h11.43v-5.97z" fill="#692f17"/><rect x="56.83" y="39.15" width="7.74" height="4.28" rx="1.1" ry="1.1" fill="#f6f3ea" stroke="#692f17" stroke-linecap="round" stroke-linejoin="round" stroke-width="1.5"/></g></g></svg>