<svg xmlns="http://www.w3.org/2000/svg" width="116" height="116" viewBox="0 0 116 116"><title>Химчистка мебели</title><g data-name="Слой 2"><g data-name="Слой 1"><path fill="none" d="M0 0h116v116H0z"/><path d="M60 57.58V35.06a2.36 2.36 0 0 0-2.35-2.35h-34.8a3.53 3.53 0 0 0-3.52 3.52v15.22M60 62.37V35.06a2.36 2.36 0 0 1 2.35-2.35h34.86a3.53 3.53 0 0 1 3.52 3.52v15.12" fill="none" stroke="#353535" stroke-linejoin="round" stroke-width="2.5"/><path d="M27.32 60h29.12A3.53 3.53 0 0 1 60 63.49v5.89H26.62M91.85 69.38H60.06v-5.89A3.53 3.53 0 0 1 63.58 60h28.31" fill="none" stroke="#353535" stroke-linejoin="round" stroke-width="2"/><path d="M92.4 88.86l-64.64-.13M27 59.71A8.09 8.09 0 1 0 15.45 67v21.38a3.13 3.13 0 0 0 3.12 3.13h5.25A3.13 3.13 0 0 0 27 88.38V59.71zM92.15 59.7a8.26 8.26 0 0 1 16.52 0 8.06 8.06 0 0 1-4.77 7.3v21.33a3.15 3.15 0 0 1-3.2 3.12h-5.36a3.15 3.15 0 0 1-3.19-3.12V59.7z" fill="none" stroke="#353535" stroke-linejoin="round" stroke-width="2.5"/><path d="M16.75 59.59a2.11 2.11 0 1 1 2.11 2.11 2.12 2.12 0 0 1-2.11-2.11zM98.3 59.59a2.11 2.11 0 1 1 2.11 2.11 2.11 2.11 0 0 1-2.11-2.11z" fill="#353535"/><rect x="28.27" y="36.84" width="28.33" height="19.71" rx="3" ry="3" fill="none" stroke="#ff5a19" stroke-linejoin="round" stroke-width="2"/><rect x="63.6" y="36.84" width="27.12" height="19.71" rx="3" ry="3" fill="none" stroke="#ff5a19" stroke-linejoin="round" stroke-width="2"/></g></g></svg>