<svg xmlns="http://www.w3.org/2000/svg" width="70" height="70" viewBox="0 0 70 70"><g data-name="Слой 1-2"><path fill="none" d="M0 0h70v70H0z"/><path d="M58.79 29.57A3.78 3.78 0 0 0 53 26.34v-.18a5.21 5.21 0 0 0-10.32 1h-.1a3.27 3.27 0 0 0-5.53 2.41h21.7z" fill="#f6f3ea"/><path d="M51.23 29.57a3.78 3.78 0 0 1 7.57 0M37.09 29.57a3.28 3.28 0 0 1 5.55-2.36M43.25 29.58A5.22 5.22 0 1 1 53 26.16" fill="none" stroke="#692f17" stroke-miterlimit="10" stroke-width=".75"/><circle cx="42.22" cy="20.3" r="1.7" fill="#f6f3ea" stroke="#692f17" stroke-miterlimit="10" stroke-width=".75"/><path d="M61.94 29.57H33.86a1 1 0 0 0-1 1v1.28a1 1 0 0 0 1 1h1.38l1.42 20.8a2.9 2.9 0 0 0 2.9 2.9h16.68a2.9 2.9 0 0 0 2.9-2.9l1.42-20.8h1.38a1 1 0 0 0 1-1v-1.24a1 1 0 0 0-1-1z" fill="#fd8204" stroke="#692f17" stroke-miterlimit="10" stroke-width="1.5"/><path fill="none" stroke="#692f17" stroke-linejoin="round" stroke-width=".75" d="M34.85 32.52h25.77"/><circle cx="45.38" cy="33.04" r="1.93" fill="#692f17"/><path d="M45.26 32.58s6.3 16.3 14.83 14.62c6.08-1.2.47-11.92.47-11.92" fill="none" stroke="#692f17" stroke-linejoin="round" stroke-width="1.5"/><path d="M22.93 13.88V10.4a.08.08 0 0 1 .08-.08h3.41a.08.08 0 0 1 .08.08v3.48z" fill="#ddae29" stroke="#692f17" stroke-miterlimit="10" stroke-width="1.5"/><path d="M26 10.82v2.56h-2.57v-2.56H26m.42-1H23a.58.58 0 0 0-.58.58v4H27v-4a.58.58 0 0 0-.58-.58z" fill="#692f17"/><path d="M25.63 46.25a2.7 2.7 0 0 1-2.69-2.7V13.92h3.63c.19 1.58 1.39 6.78 9.15 9.2 1.91.6 2.84 1.49 2.84 2.73v17.7a2.7 2.7 0 0 1-2.69 2.7z" fill="#dbc19f" stroke="#692f17" stroke-miterlimit="10" stroke-width="1.5"/><path d="M26.09 14.42c.36 2 2 6.86 9.43 9.18 2.23.7 2.49 1.62 2.49 2.25v17.7a2.2 2.2 0 0 1-2.19 2.2H25.63a2.2 2.2 0 0 1-2.19-2.2V14.42h2.65m.89-1h-4.54a.74.74 0 0 0 0 .09v30a3.2 3.2 0 0 0 3.19 3.2h10.23a3.2 3.2 0 0 0 3.23-3.16v-17.7c0-1.77-1.51-2.68-3.19-3.2-8.73-2.73-8.83-9.13-8.83-9.13v-.09z" fill="#692f17"/><path d="M11.09 16.77a5.87 5.87 0 0 1-1.9 4.83 19.1 19.1 0 0 1-2.54 1.79l.4.42a11.11 11.11 0 0 0 4.31-2.45 5.57 5.57 0 0 0 1.89-4.6z" fill="#f6f3ea" stroke="#692f17" stroke-miterlimit="10" stroke-width=".75"/><rect x="6.34" y="13.83" width="2.68" height="2.35" rx=".37" ry=".37" fill="#dcc19f" stroke="#692f17" stroke-miterlimit="10" stroke-width=".75"/><path d="M24 31.54a7.72 7.72 0 0 0-15.44 0v12.8a3.2 3.2 0 0 0 3.2 3.2h9a3.2 3.2 0 0 0 3.2-3.2z" fill="#dfdbd1" stroke="#692f17" stroke-miterlimit="10" stroke-width="1.5"/><path d="M19.64 13.42H9.35a.77.77 0 0 0-.77.77V16a.77.77 0 0 0 .77.77h3.9l1.39 4.1a.54.54 0 0 0-.49.54v2.74h4.3V21.4a.54.54 0 0 0-.53-.55v-4.08h1.75a.77.77 0 0 0 .77-.77v-1.81a.77.77 0 0 0-.77-.77z" fill="#f6f3ea" stroke="#692f17" stroke-linecap="round" stroke-linejoin="round" stroke-width="1.5"/><path d="M7.09 40.48l2.43 15.39a3 3 0 0 0 3 3h24.12a3 3 0 0 0 3-3l2.45-15.39zM44.17 36a1 1 0 0 1 1 1v2.39a1 1 0 0 1-1 1H5a1 1 0 0 1-1-1v-2.33a1 1 0 0 1 1-1z" fill="#dfdbd1" stroke="#692f17" stroke-linecap="round" stroke-linejoin="round" stroke-width="1.5"/><path d="M24.77 36L21 40.13s0 3.32-.74 4.83c-.44.9-2.26 5.2-4 4.27-1-.51 1.13-4.69 1.13-4.69l-6 5.93a1.22 1.22 0 1 1-1.73-1.73l-1 1A1.24 1.24 0 1 1 6.91 48l.81-.81a1.22 1.22 0 0 1-1.52-1.9L8 43.52a1.22 1.22 0 1 1-1.73-1.73l5.34-5.34c1.65-1.65 1.19-1.21 1.19-1.21a22.83 22.83 0 0 1 6.68-.59C23.54 35 24.77 36 24.77 36z" fill="#f7e8d2" stroke="#692f17" stroke-linecap="round" stroke-linejoin="round" stroke-width=".75"/><path fill="none" stroke="#692f17" stroke-linecap="round" stroke-linejoin="round" stroke-width=".75" d="M9.67 48.75l3.64-3.65M7.72 47.24l4.12-4.13M8.05 43.49l2.27-2.27M16.99 45l1.46-1.46"/><path d="M22.91 35.36v1.58A15.41 15.41 0 0 0 20.09 41c-.3 1-1.94 5.29-.08 5.76 1 .26 2.4-4.18 2.4-4.18l.23 8.31A1.15 1.15 0 0 0 23.83 52h.05a1.25 1.25 0 0 0 1.21-1.27v1.4a1.15 1.15 0 0 0 1.16 1.14h.06A1.25 1.25 0 0 0 27.48 52v-1.13a1.15 1.15 0 0 0 1.19.87 1.25 1.25 0 0 0 1.18-1.27V48A1.15 1.15 0 0 0 31 49.14h.06a1.25 1.25 0 0 0 1.18-1.27l-.16-7.42v-5.2a18 18 0 0 0-4.37-.33 23.89 23.89 0 0 0-4.8.44z" fill="#f7e8d2" stroke="#692f17" stroke-linecap="round" stroke-linejoin="round" stroke-width=".75"/><path fill="none" stroke="#692f17" stroke-linecap="round" stroke-linejoin="round" stroke-width=".75" d="M25.06 50.69l-.1-5.06M27.46 50.87l-.11-5.73M29.78 47.9l-.06-3.15M22.43 43.13l-.04-2.02"/><path fill="none" stroke="#692f17" stroke-miterlimit="10" d="M18.19 21.25h-4.22"/><path d="M58.82 43v2.4s-3.73 1.6-3.73 2.48v10.6A1.52 1.52 0 0 0 56.57 60H65a1.52 1.52 0 0 0 1.52-1.52v-10.6c0-.84-3.77-2.42-3.77-2.42V43" fill="#f7e8d3" stroke="#692f17" stroke-miterlimit="10" stroke-width="1.5"/><path d="M61.84 38.44v-1.27h1.44a2.5 2.5 0 0 0-5 0h1.43v1.27" fill="#f6f3ea" stroke="#692f17" stroke-linecap="round" stroke-linejoin="round"/><path fill="none" stroke="#692f17" stroke-miterlimit="10" stroke-width=".75" d="M58.75 45.57h4.07"/><path fill="#f5f4f0" d="M55.43 50.58h10.72v5.18H55.43z"/><path d="M65.77 51v4.43h-10V51h10m.75-.75H55.09v5.93h11.43v-5.93z" fill="#692f17"/><rect x="56.92" y="39.15" width="7.74" height="4.28" rx="1.1" ry="1.1" fill="#f6f3ea" stroke="#692f17" stroke-linecap="round" stroke-linejoin="round" stroke-width="1.5"/></g></svg>