<svg xmlns="http://www.w3.org/2000/svg" width="70" height="70" viewBox="0 0 70 70"><title>генеральная</title><g id="Слой_2" data-name="Слой 2"><g id="Слой_1-2" data-name="Слой 1"><g id="Слой_2-2" data-name="Слой 2"><g id="Слой_1-2-2" data-name="Слой 1-2"><rect width="70" height="70" fill="none"/><path d="M58.79,29.57A3.78,3.78,0,0,0,53,26.34v-.18a5.21,5.21,0,0,0-10.32,1h-.1a3.27,3.27,0,0,0-5.53,2.41h21.7Z" fill="#f6f3ea"/><path d="M51.23,29.57a3.78,3.78,0,0,1,7.57,0" fill="none" stroke="#692f17" stroke-miterlimit="10" stroke-width="0.75"/><path d="M37.09,29.57a3.28,3.28,0,0,1,5.55-2.36" fill="none" stroke="#692f17" stroke-miterlimit="10" stroke-width="0.75"/><path d="M43.25,29.58A5.22,5.22,0,1,1,53,26.16" fill="none" stroke="#692f17" stroke-miterlimit="10" stroke-width="0.75"/><circle cx="42.22" cy="20.3" r="1.7" fill="#f6f3ea" stroke="#692f17" stroke-miterlimit="10" stroke-width="0.75"/><path d="M61.94,29.57H33.86a1,1,0,0,0-1,1v1.28a1,1,0,0,0,1,1h1.38l1.42,20.8a2.9,2.9,0,0,0,2.9,2.9H56.24a2.9,2.9,0,0,0,2.9-2.9h0l1.42-20.8h1.38a1,1,0,0,0,1-1V30.61a1,1,0,0,0-1-1Z" fill="#fd8204" stroke="#692f17" stroke-miterlimit="10" stroke-width="1.5"/><line x1="34.85" y1="32.52" x2="60.62" y2="32.52" fill="none" stroke="#692f17" stroke-linejoin="round" stroke-width="0.75"/><circle cx="45.38" cy="33.04" r="1.93" fill="#692f17"/><path d="M45.26,32.58s6.3,16.3,14.83,14.62c6.08-1.2.47-11.92.47-11.92" fill="none" stroke="#692f17" stroke-linejoin="round" stroke-width="1.5"/><path d="M22.93,13.88V10.4a.08.08,0,0,1,.08-.08h3.41a.08.08,0,0,1,.08.08v3.48Z" fill="#ddae29" stroke="#692f17" stroke-miterlimit="10" stroke-width="1.5"/><path d="M26,10.82v2.56H23.43V10.82H26m.42-1H23a.58.58,0,0,0-.58.58v4H27v-4A.58.58,0,0,0,26.42,9.82Z" fill="#692f17"/><path d="M25.63,46.25a2.7,2.7,0,0,1-2.69-2.7V13.92h3.63c.19,1.58,1.39,6.78,9.15,9.2,1.91.6,2.84,1.49,2.84,2.73v17.7a2.7,2.7,0,0,1-2.69,2.7Z" fill="#dbc19f" stroke="#692f17" stroke-miterlimit="10" stroke-width="1.5"/><path d="M26.09,14.42c.36,2,2,6.86,9.43,9.18,2.23.7,2.49,1.62,2.49,2.25v17.7a2.2,2.2,0,0,1-2.19,2.2H25.63a2.2,2.2,0,0,1-2.19-2.2V14.42h2.65m.89-1H22.44a.74.74,0,0,0,0,.09v30a3.2,3.2,0,0,0,3.19,3.2H35.86a3.2,3.2,0,0,0,3.23-3.16V25.85c0-1.77-1.51-2.68-3.19-3.2-8.73-2.73-8.83-9.13-8.83-9.13v-.09Z" fill="#692f17"/><path d="M11.09,16.77a5.87,5.87,0,0,1-1.9,4.83,19.1,19.1,0,0,1-2.54,1.79l.4.42a11.11,11.11,0,0,0,4.31-2.45,5.57,5.57,0,0,0,1.89-4.6Z" fill="#f6f3ea" stroke="#692f17" stroke-miterlimit="10" stroke-width="0.75"/><rect x="6.34" y="13.83" width="2.68" height="2.35" rx="0.37" ry="0.37" fill="#dcc19f" stroke="#692f17" stroke-miterlimit="10" stroke-width="0.75"/><path d="M24,31.54a7.72,7.72,0,0,0-15.44,0h0v12.8a3.2,3.2,0,0,0,3.2,3.2h9a3.2,3.2,0,0,0,3.2-3.2h0Z" fill="#dfdbd1" stroke="#692f17" stroke-miterlimit="10" stroke-width="1.5"/><path d="M19.64,13.42H9.35a.77.77,0,0,0-.77.77h0V16a.77.77,0,0,0,.77.77h3.9l1.39,4.1a.54.54,0,0,0-.49.54v2.74h4.3V21.4a.54.54,0,0,0-.53-.55h0V16.77h1.75a.77.77,0,0,0,.77-.77h0V14.19a.77.77,0,0,0-.77-.77Z" fill="#f6f3ea" stroke="#692f17" stroke-linecap="round" stroke-linejoin="round" stroke-width="1.5"/><path d="M7.09,40.48,9.52,55.87a3,3,0,0,0,3,3H36.64a3,3,0,0,0,3-3l2.45-15.39Z" fill="#dfdbd1" stroke="#692f17" stroke-linecap="round" stroke-linejoin="round" stroke-width="1.5"/><path d="M44.17,36a1,1,0,0,1,1,1v2.39a1,1,0,0,1-1,1H5a1,1,0,0,1-1-1V37.06a1,1,0,0,1,1-1Z" fill="#dfdbd1" stroke="#692f17" stroke-linecap="round" stroke-linejoin="round" stroke-width="1.5"/><path d="M24.77,36,21,40.13s0,3.32-.74,4.83c-.44.9-2.26,5.2-4,4.27-1-.51,1.13-4.69,1.13-4.69l-6,5.93a1.22,1.22,0,1,1-1.73-1.73l-1,1A1.24,1.24,0,1,1,6.91,48l.81-.81a1.22,1.22,0,0,1-1.52-1.9L8,43.52a1.22,1.22,0,1,1-1.73-1.73l5.34-5.34c1.65-1.65,1.19-1.21,1.19-1.21a22.83,22.83,0,0,1,6.68-.59C23.54,35,24.77,36,24.77,36Z" fill="#f7e8d2" stroke="#692f17" stroke-linecap="round" stroke-linejoin="round" stroke-width="0.75"/><line x1="9.67" y1="48.75" x2="13.31" y2="45.1" fill="none" stroke="#692f17" stroke-linecap="round" stroke-linejoin="round" stroke-width="0.75"/><line x1="7.72" y1="47.24" x2="11.84" y2="43.11" fill="none" stroke="#692f17" stroke-linecap="round" stroke-linejoin="round" stroke-width="0.75"/><line x1="8.05" y1="43.49" x2="10.32" y2="41.22" fill="none" stroke="#692f17" stroke-linecap="round" stroke-linejoin="round" stroke-width="0.75"/><line x1="16.99" y1="45" x2="18.45" y2="43.54" fill="none" stroke="#692f17" stroke-linecap="round" stroke-linejoin="round" stroke-width="0.75"/><path d="M22.91,35.36v1.58A15.41,15.41,0,0,0,20.09,41c-.3,1-1.94,5.29-.08,5.76,1,.26,2.4-4.18,2.4-4.18l.23,8.31A1.15,1.15,0,0,0,23.83,52h.05a1.25,1.25,0,0,0,1.21-1.27v1.4a1.15,1.15,0,0,0,1.16,1.14h.06A1.25,1.25,0,0,0,27.48,52V50.87a1.15,1.15,0,0,0,1.19.87,1.25,1.25,0,0,0,1.18-1.27V48A1.15,1.15,0,0,0,31,49.14h.06a1.25,1.25,0,0,0,1.18-1.27l-.16-7.42v-5.2a18,18,0,0,0-4.37-.33A23.89,23.89,0,0,0,22.91,35.36Z" fill="#f7e8d2" stroke="#692f17" stroke-linecap="round" stroke-linejoin="round" stroke-width="0.75"/><line x1="25.06" y1="50.69" x2="24.96" y2="45.63" fill="none" stroke="#692f17" stroke-linecap="round" stroke-linejoin="round" stroke-width="0.75"/><line x1="27.46" y1="50.87" x2="27.35" y2="45.14" fill="none" stroke="#692f17" stroke-linecap="round" stroke-linejoin="round" stroke-width="0.75"/><line x1="29.78" y1="47.9" x2="29.72" y2="44.75" fill="none" stroke="#692f17" stroke-linecap="round" stroke-linejoin="round" stroke-width="0.75"/><line x1="22.43" y1="43.13" x2="22.39" y2="41.11" fill="none" stroke="#692f17" stroke-linecap="round" stroke-linejoin="round" stroke-width="0.75"/><line x1="18.19" y1="21.25" x2="13.97" y2="21.25" fill="none" stroke="#692f17" stroke-miterlimit="10"/><path d="M58.82,43v2.4s-3.73,1.6-3.73,2.48v10.6A1.52,1.52,0,0,0,56.57,60H65a1.52,1.52,0,0,0,1.52-1.52V47.88c0-.84-3.77-2.42-3.77-2.42V43" fill="#f7e8d3" stroke="#692f17" stroke-miterlimit="10" stroke-width="1.5"/><path d="M61.84,38.44V37.17h1.44a2.5,2.5,0,0,0-5,0h1.43v1.27" fill="#f6f3ea" stroke="#692f17" stroke-linecap="round" stroke-linejoin="round"/><line x1="58.75" y1="45.57" x2="62.82" y2="45.57" fill="none" stroke="#692f17" stroke-miterlimit="10" stroke-width="0.75"/><rect x="55.43" y="50.58" width="10.72" height="5.18" fill="#f5f4f0"/><path d="M65.77,51v4.43h-10V51h10m.75-.75H55.09v5.93H66.52V50.25Z" fill="#692f17"/><rect x="56.92" y="39.15" width="7.74" height="4.28" rx="1.1" ry="1.1" fill="#f6f3ea" stroke="#692f17" stroke-linecap="round" stroke-linejoin="round" stroke-width="1.5"/></g></g></g></g></svg>