<svg xmlns="http://www.w3.org/2000/svg" width="116" height="116" viewBox="0 0 116 116"><path d="M68.87 64.55h1.61A1.51 1.51 0 0 0 72 63v-1.89a1.52 1.52 0 0 0-1.51-1.51H69M43.19 100.36h-6.52A4.38 4.38 0 0 1 32.29 96l-2.15-31.45h-2.08A1.51 1.51 0 0 1 26.54 63v-1.83A1.52 1.52 0 0 1 28 59.6h35.93" fill="none" stroke="#263239" stroke-linejoin="round" stroke-width="2.5"/><path fill="none" stroke="#263239" stroke-linejoin="round" stroke-width="2" d="M63.97 64.2H30.06"/><circle cx="53.07" cy="64.84" r="2.92" fill="#263239"/><path d="M53.26 64.15s-9.52 24.62-22.41 22.08c-9.18-1.81-.71-18-.71-18" fill="none" stroke="#263239" stroke-linejoin="round" stroke-width="2.5"/><path d="M64.11 78.34V15.12a2.4 2.4 0 0 1 2.41-2.4 2.4 2.4 0 0 1 2.4 2.4v63.22" fill="none" stroke="#263239" stroke-miterlimit="10" stroke-width="2.5"/><path d="M62.38 92.72V81.89a4.14 4.14 0 0 1 4.14-4.14 4.14 4.14 0 0 1 4.13 4.14v10.83" fill="none" stroke="#263239" stroke-miterlimit="10" stroke-width="2.5"/><path d="M48.44 96.35a3.66 3.66 0 0 1 3.66-3.66h28.83a3.66 3.66 0 0 1 3.66 3.66" fill="none" stroke="#263239" stroke-linecap="round" stroke-miterlimit="10" stroke-width="2"/><path d="M89.46 101.69a1.59 1.59 0 0 1-1.59 1.59H45.16a1.59 1.59 0 0 1-1.59-1.59v-2.58a1.6 1.6 0 0 1 1.59-1.59h42.71a1.59 1.59 0 0 1 1.59 1.59z" fill="none" stroke="#ff5a19" stroke-miterlimit="10" stroke-width="2.5"/></svg>