<svg xmlns="http://www.w3.org/2000/svg" width="76.649" height="64.441" viewBox="0 0 57.5 48.32"><g data-name="Слой 2"><g data-name="Слой 1"><path d="M10.76 16.17A3.82 3.82 0 0 0 15 17l13 14.22 3.2-3.2L17 15a3.82 3.82 0 0 0-.79-4.25" fill="#e2ddd3" stroke="#682f24" stroke-linecap="round" stroke-linejoin="round" fill-rule="evenodd"/><path d="M2.86 18.66l1.57 1.57a1.6 1.6 0 0 0 2.26 0L20.25 6.68a1.6 1.6 0 0 0 0-2.26l-1.57-1.58" fill="#e2ddd3" stroke="#682f24" stroke-linejoin="round" fill-rule="evenodd"/><path fill="#e1670f" d="M.702 16.653L16.64.715l1.96 1.959L2.66 18.612z"/><path d="M16.65 1.41l1.25 1.25L2.66 17.9l-1.25-1.25L16.65 1.41m0-1.41L0 16.65l2.66 2.66L19.31 2.66 16.65 0z" fill="#682f24"/><path fill="#ff8300" d="M35.68 3.01V.71l3.33-.06.06.65v1.71h-3.39z"/><path d="M38.57 1.15v1.36h-2.39V1.15h2.39m.44-1h-3.27a.56.56 0 0 0-.56.56v2.8h4.39V.71A.56.56 0 0 0 39 .15z" fill="#682f24"/><path d="M26.67 35.72a2.57 2.57 0 0 1-2.57-2.57v-17c0-1.19.86-2 2.72-2.59 7.49-2.33 8.63-7.35 8.8-8.82h3.45v28.41a2.57 2.57 0 0 1-2.57 2.57z" fill="#e7c3a0"/><path d="M38.57 5.27v27.88a2.07 2.07 0 0 1-2.07 2.07h-9.83a2.07 2.07 0 0 1-2.07-2.07v-17c0-.38 0-1.38 2.37-2.12 7.11-2.22 8.72-6.83 9.08-8.8h2.53m1-1h-4.4v.09c0 .03-.09 6.14-8.48 8.75-1.62.5-3.07 1.37-3.07 3.07v17a3.07 3.07 0 0 0 3.07 3.07h9.8a3.07 3.07 0 0 0 3.07-3.07V4.36a.73.73 0 0 0 0-.09z" fill="#682f24"/><path d="M51.59 19.55c-.36-4.71-3.59-8.39-7.59-8.39s-7.25 3.69-7.61 8.39a1.24 1.24 0 0 0 0 .28v15.56a1.25 1.25 0 0 0 1.25 1.25h12.74a1.25 1.25 0 0 0 1.25-1.25V19.83a1.29 1.29 0 0 0-.04-.28z" fill="#ff8300" stroke="#682f24" stroke-miterlimit="10"/><path d="M46.41 8.56h-4.86a.45.45 0 0 0-.45.45v2.28h5.77V9a.45.45 0 0 0-.46-.44z" fill="#e2ddd3" stroke="#682f24" stroke-miterlimit="10"/><path d="M10.85 30.2L13.18 45A2.87 2.87 0 0 0 16 47.82h32.8A2.87 2.87 0 0 0 51.67 45L54 30.2z" fill="#e2ddd3" stroke="#682f24" stroke-linecap="round" stroke-linejoin="round"/><rect x="7.85" y="25.94" width="49.15" height="4.25" rx=".98" ry=".98" fill="#f7f5f2" stroke="#682f24" stroke-linecap="round" stroke-linejoin="round"/><path d="M27.8 25.94l-3.59 4a14.29 14.29 0 0 1-.71 4.63c-.42.86-2.17 5-3.84 4.09-.92-.49 1.08-4.5 1.08-4.5L15 39.81a1.17 1.17 0 1 1-1.66-1.66l-1 1a1.17 1.17 0 1 1-1.66-1.66l.78-.78A1.17 1.17 0 0 1 10 34.86l1.7-1.7A1.17 1.17 0 1 1 10 31.5l5.12-5.12c1.58-1.58 1.14-1.16 1.14-1.16a21.88 21.88 0 0 1 6.4-.57c3.96.35 5.14 1.29 5.14 1.29z" fill="#ff8300" stroke="#682f24" stroke-linecap="round" stroke-linejoin="round" fill-rule="evenodd"/><path fill="#ff8300" stroke="#682f24" stroke-linecap="round" stroke-linejoin="round" d="M13.32 38.13l3.49-3.5M11.45 36.68l3.95-3.95M11.77 33.09l2.17-2.18M20.34 34.53l1.39-1.4"/><path d="M26 25.29v1.52a14.79 14.79 0 0 0-2.65 3.85c-.29.91-1.86 5.07-.07 5.52 1 .24 2.3-4 2.3-4l.22 8a1.1 1.1 0 0 0 1.17 1.09 1.2 1.2 0 0 0 1.1-1.27v1.34a1.1 1.1 0 0 0 1.17 1.09 1.2 1.2 0 0 0 1.13-1.21v-1.08a1.1 1.1 0 0 0 1.14.84 1.2 1.2 0 0 0 1.13-1.21v-2.36a1.1 1.1 0 0 0 1.17 1.09 1.2 1.2 0 0 0 1.13-1.22l-.13-7.11v-5a17.28 17.28 0 0 0-4.19-.32 22.88 22.88 0 0 0-4.62.44z" fill="#ff8300" stroke="#682f24" stroke-linecap="round" stroke-linejoin="round" fill-rule="evenodd"/><path fill="#ff8300" stroke="#682f24" stroke-linecap="round" stroke-linejoin="round" d="M28.07 39.99l-.09-4.86M30.38 40.16l-.11-5.5M32.6 37.31l-.06-3.01M25.56 32.74l-.04-1.94"/></g></g></svg>