<svg xmlns="http://www.w3.org/2000/svg" width="125.8" height="37" viewBox="0 0 125.8 37"><title>Google Play</title><g data-name="Слой 2"><g data-name="Layer 1"><path d="M119.1 1.3a3.8 3.8 0 0 1 3.8 3.8v27a3.8 3.8 0 0 1-3.8 3.8H6.6a3.8 3.8 0 0 1-3.8-3.8v-27a3.8 3.8 0 0 1 3.8-3.8h112.5m0-.8H6.6A4.55 4.55 0 0 0 2.1 5v27a4.48 4.48 0 0 0 4.5 4.5h112.5a4.48 4.48 0 0 0 4.5-4.5V5a4.55 4.55 0 0 0-4.5-4.5z" fill="#fff"/><path d="M63.4 20.2a3.78 3.78 0 0 0-3.9 3.9 3.84 3.84 0 0 0 3.9 3.9 3.78 3.78 0 0 0 3.9-3.9 3.73 3.73 0 0 0-3.9-3.9zm0 6.1a2.24 2.24 0 0 1-2.2-2.3 2.2 2.2 0 1 1 4.4 0 2.24 2.24 0 0 1-2.2 2.3zM55 20.2a3.78 3.78 0 0 0-3.9 3.9A3.84 3.84 0 0 0 55 28a3.78 3.78 0 0 0 3.9-3.9 3.73 3.73 0 0 0-3.9-3.9zm0 6.1a2.24 2.24 0 0 1-2.2-2.3 2.2 2.2 0 1 1 4.4 0 2.24 2.24 0 0 1-2.2 2.3zm-10-5v1.6h3.9A3.4 3.4 0 0 1 48 25a4 4 0 0 1-3 1.2 4.18 4.18 0 0 1-4.2-4.3 4.25 4.25 0 0 1 4.2-4.3 4.13 4.13 0 0 1 3 1.2l1.2-1.2a5.84 5.84 0 0 0-4-1.6 6.06 6.06 0 0 0-6 5.9 6.06 6.06 0 0 0 6 5.9 4.9 4.9 0 0 0 4.1-1.7 5.31 5.31 0 0 0 1.4-3.8 3.08 3.08 0 0 0-.1-1zm40.9 1.3a3.55 3.55 0 0 0-3.2-2.4 3.66 3.66 0 0 0-3.6 3.9 3.76 3.76 0 0 0 3.8 3.9 3.94 3.94 0 0 0 3.2-1.7l-1.3-.9a2.37 2.37 0 0 1-1.9 1.1 2.06 2.06 0 0 1-1.9-1.2l5.1-2.2-.2-.5zm-5.2 1.2a2.29 2.29 0 0 1 2-2.3 1.55 1.55 0 0 1 1.4.8l-3.4 1.5zm-4.2 3.7h1.7V16.2h-1.7zM73.8 21a2.93 2.93 0 0 0-2.1-.9A3.87 3.87 0 0 0 68 24a3.71 3.71 0 0 0 3.7 3.8 2.89 2.89 0 0 0 2-.9h.1v.5a2.05 2.05 0 0 1-2.1 2.3 2 2 0 0 1-1.9-1.4l-1.4.6a3.64 3.64 0 0 0 3.4 2.3c2 0 3.6-1.2 3.6-4v-6.8h-1.6v.6zm-2 5.3a2.24 2.24 0 0 1-2.2-2.3 2.15 2.15 0 1 1 4.3 0 2.3 2.3 0 0 1-2.1 2.3zm21.9-10h-4.1v11.3h1.7v-4.2h2.3a3.55 3.55 0 1 0 .1-7.1zm.1 5.4h-2.4v-3.9h2.4a2 2 0 0 1 2 1.9 2.07 2.07 0 0 1-2 2zm10.4-1.6a3 3 0 0 0-3 1.7l1.5.6a1.84 1.84 0 0 1 3.3.6v.1a3.43 3.43 0 0 0-1.7-.5c-1.6 0-3.2.9-3.2 2.5a2.61 2.61 0 0 0 2.8 2.5 2.51 2.51 0 0 0 2.2-1.1h.1v.9h1.6v-4.3a3.35 3.35 0 0 0-3.6-3zm-.2 6.2c-.5 0-1.4-.3-1.4-1 0-.9 1-1.2 1.8-1.2a3 3 0 0 1 1.5.4 1.94 1.94 0 0 1-1.9 1.8zm9.4-6l-1.9 4.9h-.1l-2-4.9h-1.8l3 6.8-1.7 3.8h1.7l4.6-10.6zm-15.1 7.2h1.7V16.2h-1.7z" fill="#fff"/><text transform="translate(40.23 10.82)" font-size="7.16" fill="#fff" font-family="HelveticaNeueLTW1G-Bd, Helvetica Neue LT W1G" font-weight="700" style="isolation:isolate">ДО<tspan x="11.09" y="0" letter-spacing="-.02em">С</tspan><tspan x="16.27" y="0">ТУПНО В</tspan></text><path d="M31.8 18.3a1.71 1.71 0 0 0-.9-1L27 15.1l-3.7 3.7 3.5 3.5 4.1-2.2q1.2-.9.9-1.8zM11.9 30.1a1.81 1.81 0 0 0 1.4-.2L26 22.6l-3.3-3.3zM11.2 7.7a2 2 0 0 0-.1.8v20.2a1.88 1.88 0 0 0 .2.8l10.8-10.8zM26.2 14.6L13.3 7.3a1.6 1.6 0 0 0-1.6-.2l10.9 11z" fill="#fff"/><path fill="none" d="M0 0h125.8v37H0z"/></g></g></svg>