<svg xmlns="http://www.w3.org/2000/svg" viewBox="0 0 170.15 70"><path fill="none" d="M0 0h170.15v70H0z"/><path fill="#ec1c24" d="M55.79 42.18H40.38l-2.6 4.93h-7.63l13.54-24.22h8.25l14.22 24.22h-7.63l-2.74-4.93z"/><path fill="#969696" d="M94.46 22.86H118.4v5.2h-16.52v3.96h14.5v4.92h-14.5v4.3h16.52v5.9H94.74v-.07h-.28V22.86zM145.52 22.86H169.46v5.2h-16.52v3.96h14.5v4.92h-14.5v4.3h16.52v5.9H145.8v-.07h-.28V22.86zM120.48 22.86h7.97v18.38h15.34v5.9H121.1v-.07h-.62V22.86zM68.1 22.86h24.42v5.2H75.45v3.82h15.13v5.06H75.45v10.13h-7.42V22.86h.07z"/><path fill="#ec1c24" d="M34.17 22.86h5.75v5.2h-5.75v-5.2z"/><path fill="#fff" d="M43.16 36.87h9.7l-4.98-8.95-4.72 8.95z"/><path fill="#ec1c24" d="M55.92 22.88h5.76v5.2h-5.76v-5.2z"/><path fill="#969696" d="M.53 22.86h8.19v9.16h11.17v-9.16h8.18v24.21h-8.18V36.8H8.72v10.27H.53V22.86z"/></svg>