<svg xmlns="http://www.w3.org/2000/svg" viewBox="0 0 300 300"><defs><style>.cls-1{fill:none}.cls-2{fill:#fb8005}.cls-3{fill:#757575}.cls-4{fill:#efb000}.cls-5{fill:#c7c0b1}.cls-6{fill:#e7c3a0}.cls-7{fill:#d2a274}.cls-8{fill:#4a83a0}.cls-9{fill:#e2ddd3}.cls-10{fill:#cac33f}.cls-11{fill:#ffd05a}.cls-12{fill:#692f23}.cls-13{fill:#e0dede}.cls-14{fill:#f7f5f2}.cls-15{fill:#692e21}.cls-16{fill:#f9e5cc}.cls-17{fill:#fff}.cls-18{fill:#abd2f0}.cls-19{fill:#e09c51}.cls-20{fill:#e9b87f}.cls-21{fill:#fd8204}.cls-22{fill:#e16702}</style></defs><title>домашний мастер</title><g id="Слой_2" data-name="Слой 2"><g id="Слой_24" data-name="Слой 24"><path class="cls-1" d="M0 0h300v300H0z"/><path class="cls-2" d="M225.82 250.61l-5.32-7.35-3.82 1.82-1.47 1.62 9 13.19 2.49-4.31s-1.39-2.7-1.3-3.33a12.07 12.07 0 0 1 .42-1.64z"/><path class="cls-2" d="M219.86 243l-.12 1.07 5.47 7.9s-.12 1.92.58 2.46a2.87 2.87 0 0 1 1 1.53 19.3 19.3 0 0 1-1.3 2c0 .09-8.82-12.52-8.82-12.52l-1.27 1s-.74.19-.75-.32-.17-2 .78-2.63 2.83-1.81 4.43-.49z"/><path class="cls-3" d="M242.83 250c0 .07.78.22.55.69s-2 2.73-2.07 2.76-1.11-1-1.46-1.2-.9-.52-.9-.52a3.89 3.89 0 0 0 .44-1.32c0-.37-.09-.81 0-.84s3.44.43 3.44.43z"/><path class="cls-2" d="M242.34 250.07s-.34 1.29-.9 1.43-1-.1-1.08-.26a7.75 7.75 0 0 1 .1-1.26c.03-.2 1.88.09 1.88.09z"/><path class="cls-3" d="M242.77 224.38a4.57 4.57 0 0 0-2.2-1.36c-1.72-.64-6.94-2.92-6.94-2.92s-.94.4-.75 1.24 3 2.53 3.38 2.6 6.18 2.99 6.51.44z"/><path class="cls-4" d="M224.52 248a5.29 5.29 0 0 0 .3 1.23c.16.23 1.24 1.5 1.24 1.5s3.28-.43 3.56-.35 2.39-8.69 2.39-8.69a5.49 5.49 0 0 1 .6-1.37c.26-.27 1.57-1.7 1.57-1.7L239 236l3.59-10.72a1.19 1.19 0 0 1-1.35.08c-.79-.42-7.48-2.41-7.94-3.16s-.58-.62-.66-.5-4.5 14.3-4.5 14.3l-2.31 5.24.77 1.31a6.71 6.71 0 0 1 1.46.15c.8.17 1.27.19 1.24.58s-1.73 5.46-1.76 5.55-3.02-.83-3.02-.83zM238 232.94l-3.38-5.7c.11-.35 1.19-.38 2.55.09s1.84 2.36 1.91 3.74a1.91 1.91 0 0 1-1.08 1.87zm-5.84-4.22l4.12 5.26-.1.2a7.51 7.51 0 0 1-2.7-.29c-1.29-.43-1.65-1.4-2-2.62a3.27 3.27 0 0 1 .68-2.55z"/><path class="cls-5" d="M242.42 249.42l2.49-14.19s-.17-.94.19-1.08a14.07 14.07 0 0 0 1.66-1.12 57.7 57.7 0 0 0-.93-6.13c-.33-.69-.85-.25-1.08-.08a49.47 49.47 0 0 0-3.12 4 3.3 3.3 0 0 0 0 1.47c.1.52.58 1.89.58 1.89l-1.81 15.15z"/><path class="cls-6" d="M252.43 237.59l-34.94-1.66-.4 3.07.4 1.91 14.52.81.33-1.38s1.73-1.68 1.84-1.68 2 1 2 1l.69 2.34c.3.13 11.89 1 11.89 1zM257.64 235.11c.37.15 1.16 1.33.35 1.39s-2.95 1.07-5.32 5.21-9.89 13.1-10.53 14.81a40.77 40.77 0 0 0-1.33 7.87c-.23 2.43.78 32.22.35 32.62a1.8 1.8 0 0 1-1.85.12 3.7 3.7 0 0 1-1-2.55c0-1.42.23-33.61.23-33.61a7.94 7.94 0 0 1 1.27-4.74c1.47-2 14.69-20.53 14.69-20.53a3.14 3.14 0 0 1 3.14-.59z"/><path class="cls-6" d="M238.35 264.7l-33.49-7.75a7.19 7.19 0 0 1-.69-3.59 12.43 12.43 0 0 0 .06-3l-1.39-1.79a29.47 29.47 0 0 0-.4 3.82c-.06 1.91-.38 26.29.23 27.59s1.91 2 3.47 2.66 31.29 13.77 31.58 13.77 1.27-2.6 1-4.69-.37-27.02-.37-27.02z"/><path class="cls-7" d="M258.85 236.56c.09.14 12.61 18 12.61 18s.26 34.21.12 34.24a3.44 3.44 0 0 1-2 1.74c-1.59.46-27.24 7.11-27.24 7.11s-1.19-.17-1.1-2 .06-37 .06-37l15.5-22.15z"/><path class="cls-8" d="M239.1 252.18a10.4 10.4 0 0 1 2 1.19 4.71 4.71 0 0 1-.84 2.63 21.41 21.41 0 0 0-1.59 2.2 29.77 29.77 0 0 0-.43 3.76c0 .54.14 2.53-.06 2.52s-13.8-3.15-13.8-3.15.26-2.65 1-3.44a9.29 9.29 0 0 0 1.45-2.49l-1.21-1.88a2.37 2.37 0 0 1 1.79-3.24 10.11 10.11 0 0 1 2.15.13c.27.07 0 1.49.68 2.91a4.63 4.63 0 0 0 2.36 2 2.39 2.39 0 0 0 1.51 1.42 5.89 5.89 0 0 0 3.44-.29 2.81 2.81 0 0 0 1.43-1.15z"/><path class="cls-7" d="M227 242.5l-1.37-1.09-8.1-.93V236l1.79-.17-.93-1.21-1.85.64-6.46 7.89-5.8 6.79s-.11 2.91 0 3.89c.13 2 .12 3 3 3.43 1.11.18 6.71 1.5 6.71 1.5l1.68-8.21s1.5 1.25 1.62 1.31.79.17.54-.58-3.1-4.76-3-4.9-.54-1.74.62-2.81 2.76-1.5 3.62-1.08a5.72 5.72 0 0 1 2.2 1.5c.52.69 3.08 4.28 3.08 4.28l.93-.08z"/><path class="cls-9" d="M218.69 259.48l-5.94-6.71a4.93 4.93 0 0 1-.62-2.2c.15-.71-.81-3.86-2-4.78s-.89 0-.89 0 1.39 2.28.73 3.08-1 1.62-2.28 1.47a4.11 4.11 0 0 1-2.74-1.43c-.25-.52-1.72-2.89-1.85-2.43a16.87 16.87 0 0 0 .62 3.28 11.61 11.61 0 0 0 3.43 3 24.52 24.52 0 0 1 2.89 1.81l4.43 4.43 4.16 1z"/><path class="cls-6" d="M218 233.76s-.58-.83-1.16-.5-12 13-12 13 1.06 1.64 1.16 1.54 12-14.04 12-14.04z"/><path class="cls-5" d="M208.43 240.74a23.71 23.71 0 0 1-2.74-4c-.12-.58-.79-3.88 0-5s3.64-3.49 5.67-3.28 5.49 1.54 5.86 1.43.62-.85-.27-1.66-5-2.76-9.83-3.16-7.19 1-7.37 1.12-5 3.8-5.4 4.36a13.69 13.69 0 0 0-1 2.2 5.29 5.29 0 0 1-3 3s-1.25-.6-1.85-.19-2.81 1.7-2.89 2.12a7 7 0 0 0 1 3.39c.69.94 1.62 2.66 2.81 2.85s3.43-1.5 3.43-1.5a24.54 24.54 0 0 0 1.43-3.93c.52-.56 1.51-1.62 4.36-.77a10.17 10.17 0 0 1 5 2.93c.35.56 5.86 7 5.86 7a3.11 3.11 0 0 0-.15-1.5 6.58 6.58 0 0 1-.42-1.7c0-.1.5-1 1-.66s.42-.12.42-.12z"/><path class="cls-10" d="M238.16 232.84l-4-5.55s-1.18-.17-1.39.66 1 2.62 1 2.62l2.78 3.78z"/><path class="cls-11" d="M226.59 242.59l-.77-1.31s2.87.4 2.93.5 1.87.26 1.66 1.32-1.5 5.63-1.5 5.63l-.42.31a2.17 2.17 0 0 1-1-.16l1.76-5.55a1.3 1.3 0 0 0-1-.72c-.76-.14-1.53-.27-1.66-.02z"/><path class="cls-10" d="M229.31 243.42l-1.62 5.4s-2.13-.52-2.18-.58l-.35-.4 1.8-5.33s2.22-.12 2.35.91z"/><path class="cls-9" d="M189.58 235.77s.58 2.74 1.81 3.66 2.16 1.47 2 1.93a17.59 17.59 0 0 1-2.12 2.28 1.85 1.85 0 0 1-1.85.31 9.24 9.24 0 0 1-3.35-3.62 15.4 15.4 0 0 1-.46-2.62c-.03-.57 3.21-3.5 3.97-1.94z"/><path class="cls-5" d="M239 255.28a9.23 9.23 0 0 1-2.12 1.47 5 5 0 0 1-3.12-.27 3 3 0 0 1-1.14-1.18s-2.15-.89-2.37-1.79a15.51 15.51 0 0 1 .13-5.28c.4-1.69 2.18-7.89 2.18-7.89a16.72 16.72 0 0 1 1.57-1.7 18.56 18.56 0 0 1 1.88 1l3.34 10.78-.66 1.56a15.28 15.28 0 0 1 .31 3.3zM208.86 244.48l1-.66a30 30 0 0 1 3.2 3c.81 1 .67 3.45.73 3.86s7.64 9.83 7.64 9.83l-2.12-.27-5.94-6.75a5.19 5.19 0 0 1-1.08-2.2c-.12-1 .08-3.59-1.77-5.17s-1.66-1.64-1.66-1.64zM203.23 245.79c0 .14 1.37 3.24 2.7 4a3.89 3.89 0 0 0 3.59 0c.54-.37.27-.93-.85-.62a4 4 0 0 1-3.2-1.35c-.13-.4-1.74-2.86-1.74-2.86s-.54-1.29-.5.83z"/><path class="cls-3" d="M224.2 259.9l-7.4-8.67s-.52-.87-1.23-.66a1.83 1.83 0 0 0-1 1.12l7.21 9.14s2.28.5 2.39.5a6 6 0 0 0 .03-1.43z"/><path class="cls-9" d="M234.6 241.63a3.67 3.67 0 0 1-1.37-.27 4.53 4.53 0 0 1-.71-.71l1.7-1.85s2.35.4 2 .89-1.62 1.94-1.62 1.94z"/><path class="cls-12" d="M233.41 253.46c.8 0 1.06-.09 1.48-.68a1.92 1.92 0 0 0-.07-2 1.72 1.72 0 0 0-.93-.69 1.93 1.93 0 0 0-1.95.56 2 2 0 0 0-.12 1.81 1.74 1.74 0 0 0 1.59 1zm-.55-2.8a1.37 1.37 0 0 1 1.64.94 1 1 0 0 1-.42 1.14 1.3 1.3 0 0 1-1.76-.72 1.16 1.16 0 0 1 .54-1.36zM237.26 234.3a5.51 5.51 0 0 0 1.88-1.75 4.45 4.45 0 0 0 .2-3 4.2 4.2 0 0 0-2.26-2.56 6.5 6.5 0 0 0-2.86-.23 3.09 3.09 0 0 0-.53.14 2.52 2.52 0 0 0-.78.29 1.68 1.68 0 0 0-.49.4 4.48 4.48 0 0 0-1.26 3.24 4 4 0 0 0 .85 2.44 4.08 4.08 0 0 0 2.57 1.42 4.19 4.19 0 0 0 2.68-.39zM236 234a4.87 4.87 0 0 1-1.69-.08 3.47 3.47 0 0 1-2.41-2.28 2.88 2.88 0 0 1 .48-2.73c.2.47 3.57 5.09 3.62 5.09zm-.93-2.21l-.69-1a1 1 0 0 1 .38-.69 2 2 0 0 1 .93-.34l.7 1.08a1.66 1.66 0 0 0-.77.26 1.69 1.69 0 0 0-.62.71zm-.75-4c.11.12.52.73 1 1.49a2.35 2.35 0 0 0-.94.35 1.71 1.71 0 0 0-.45.63 14.46 14.46 0 0 1-1.09-1.66c-.09-.68.67-1 .67-1a.73.73 0 0 1 .77.17zm3.53 4.29c-.56-.68-2.7-4-3.1-4.66a3.14 3.14 0 0 1 1-.11 3.55 3.55 0 0 1 3 4.3 1.79 1.79 0 0 1-.54 1 5.27 5.27 0 0 0-.4-.55zm-.72 1.29c-.29.2-.56.42-.58.43s-.48-.6-1.07-1.41a1.55 1.55 0 0 1 .47-.59 4.33 4.33 0 0 1 .8-.34l.92 1.43a2 2 0 0 1-.58.47z"/><path class="cls-3" d="M231.68 259.21l.75-2.81a5.08 5.08 0 0 1 .57 1.6c0 .52-.1 3.22-.1 3.22l-.46 1.58s-1.77-.23-1.72-.27.96-3.32.96-3.32z"/><path class="cls-4" d="M232.43 256.41l-1.76 6.16-.94-.16a15.27 15.27 0 0 1 1-3.59c.49-.59 1.56-3.36 1.7-2.41z"/><path class="cls-12" d="M185 238.62a10.68 10.68 0 0 0 1.75 3.28 12.54 12.54 0 0 0 2.43 2.43 2 2 0 0 0 1.89-.12c.47-.26 2.8-2.11 3.08-3.12a.14.14 0 0 0 0-.08.68.68 0 0 0 0-.18 7.51 7.51 0 0 1 .51-2.13c.35-.78 1.61-1.11 3.27-.84a15.13 15.13 0 0 1 4.8 2.37c.2.17 1.69 2 3.38 4.08l-1.36 1.43c-.31-.55-.65-1.1-.65-1.1-.17-.28-.34-.37-.57-.24-.44.25-.69.33-.89.78a3.92 3.92 0 0 0 0 2 2.2 2.2 0 0 1 .07.59 3.67 3.67 0 0 0-1 2.15s-.16 27.76 0 29.92c.12 1.54 1.93 2.31 1.93 2.31l27.59 12.15 8.47 3.93a5.41 5.41 0 0 0 3.44 0c1.69-.64 27-7 27-7s1.85-.23 2.31-3.18l.32-32s.17-1.07-1.21-3.15-12.26-17.09-12.26-17.09a3.24 3.24 0 0 0-2-1.33 4.31 4.31 0 0 0-3.3.78 6.46 6.46 0 0 0-1.39 1.76l-7.63-.38c0-.41.24-1.81.29-2.09s1.72-1.14 1.74-1.56-.44-6.6-1.46-7-4.4 4.74-4.53 5.38.78 2.3.85 2.54a24 24 0 0 1-.29 2.54l-2.21-.09c.44-1.35 2.78-8.6 3.34-10.18a4.73 4.73 0 0 0 .4-2c-.13-.46-.89-.7-1-.77s-5.74-2.69-7.59-3.37a3.48 3.48 0 0 0-1.26-.31c-.8.16-1.18 1.41-1.18 1.41l-4.41 14.61-7.53-.4c-.48-.31-1.81-2.12-2.55-2.41a1.87 1.87 0 0 0-2.08.49c-.44.47-5.57 6.61-6.61 7.83-1.23-1.86-2.94-4.6-3.11-5.57a6 6 0 0 1 4.12-6.64c3.89-1.19 6.19.87 6.82 1.06s1.78.56 1.5-.38-1.66-2.82-5.61-4.14-10.12-1-10.12-1c-5.16 1.26-9.32 5.83-9.36 6.62a5.52 5.52 0 0 1-.89 2.51c-.44.64-2.45 1.29-2.55 1.36a1.83 1.83 0 0 0-1.69 0c-.85.5-2.81 2-2.81 2a1.83 1.83 0 0 0-.2 1.54zm31.88-4.25c-1.38.69-6.32 7.45-7 8.28-.13-.19-.24-.39-.4-.65l6.71-8s.54-.51 1-.49c.54.07.29.54-.3.86zm-7.18 11.5a5.3 5.3 0 0 1 1.77 3.16c.23 1.47.12 2.51-.73 3.24a3.42 3.42 0 0 1-4-.12 7.5 7.5 0 0 1-3-3.28c-.27-.87-.54-2.37-.08-1.62s1.39 3.43 4.32 3.51 2.62-2 2.62-2a5.55 5.55 0 0 0-.75-2.22c-.44-.54-.72-1.05-.15-.67zm-.17 2.41c-.17.82-1.38.93-2.68.17a3.26 3.26 0 0 1-.62-.49l1.59-1.75 1.47 1.75a3.06 3.06 0 0 1 .24.33zm3.85 10.09c-4.89-1.17-8-1.74-8-1.74a1.7 1.7 0 0 1-.78-1.5c-.09-1.19-.06-3.87-.06-3.87a9.65 9.65 0 0 0 3.83 2.4c.68.34 4.13 3.88 5.01 4.71zm-3.13-4.1s-.45-.42-.2-.46a2.85 2.85 0 0 0 1.67-1.07c.34-.41.26-.81.41-.85s.11.34.13.46a2.48 2.48 0 0 0 .33.71l5.54 6.44-3.44-.84zm-1-9.76a.7.7 0 0 1 .69-.27c.4.12 3 2.35 3.39 3.62a5 5 0 0 1 .08 2.7 1.78 1.78 0 0 0 .39 1.27l7.12 8.3-1.42-.34c-.74-.81-6-6.53-6.39-7.27a9 9 0 0 1-.58-2.89 7.31 7.31 0 0 0-.11-.77 7.47 7.47 0 0 0-2.4-3.59 10.27 10.27 0 0 1-.78-.75zm29.62 9.95c0 .53 0 .54-.27.77s-.41.35-.64.51-.32.13-.32.13-.09-.05-.1-.35v-1.79c0-.17.38-.46.77-.69.6-.36.58 0 .58 0 0 .43-.03 1.06-.03 1.43zm-1.47-2.74c-.21-.6-2.31-9.6-2.31-9.6-.1-.32-.11-.45-.06-.54s.44-.52.44-.52.65-1 .91.15c.22.77 2.55 8.74 2.6 9.25s-.28.84-.88 1.53a.44.44 0 0 1-.71-.26zm3.47-2.52l.78-6.37 1.35.17c-.16 1.09-.79 5.4-.94 6.35zm1.11.93a1.57 1.57 0 0 1-.34 1 .6.6 0 0 1-.9 0 2.5 2.5 0 0 1-.07-1.1zm1.91-7.1l4.32.39-4.56 6.58a1.57 1.57 0 0 0-.75-.54s.81-5.36.98-6.46zm-.75 7.67l-1.59 2.3a3 3 0 0 0-2.26-1.2v-.38l.07-.09a1.8 1.8 0 0 0 .26-1.32h.33a3.15 3.15 0 0 0 .09 1.29 1.1 1.1 0 0 0 1 .74 1.15 1.15 0 0 0 1.24-.59 2.86 2.86 0 0 0 .37-1.2.75.75 0 0 1 .48.46zm-5.73-8.25l3.38.3-.72 6.39h-.63c-.2-.71-1.27-4.2-2.04-6.68zm-2.62-3.28a8.8 8.8 0 0 1-1.34 1.75.64.64 0 0 1-.67-.36c-.08-.22 1.42-1.62 1.42-1.62a.31.31 0 0 1 .4 0c.2.14.18.24.18.24zm-8.72 6.87l.17-.47.36-1a1.37 1.37 0 0 1 1.1 0 1.46 1.46 0 0 1 .89.7c-.15.48-.37 1.12-.52 1.59a1.65 1.65 0 0 0-1-.67 2.5 2.5 0 0 0-1.01-.13zm.84.78a1.42 1.42 0 0 1 .91.78l-.33 1c-.78-.22-1.7-.67-2.08-.77l.34-.93a1.31 1.31 0 0 1 1.16-.06zm.9-2.79a2.51 2.51 0 0 0-1-.15l.38-1.1s0-.29.87-.06 1.13.48 1.13.61-.17.59-.4 1.32a1.79 1.79 0 0 0-.99-.65zm-1.59-2.43l1.37.12A4.17 4.17 0 0 1 230 243c.27.49-.88 4.83-1.39 5.52-.14.19-.42.21-.78.15.38-.9 1.65-5.18 1.65-5.18s.23-.55-.46-.84a3.41 3.41 0 0 0-1.79-.4 1.2 1.2 0 0 0-.31.1zm3.3.3l2.17.2-1.81 7.45a1.86 1.86 0 0 0-.18.63 6 6 0 0 0-3.35 0c-.32.19-.39.14-.4.09l-1.16-1.65c0-.08 0-.3.06-.31a29.6 29.6 0 0 0 3 1c.55.07 1 .35 1.53-.77a35.44 35.44 0 0 0 1.36-5.34 1.76 1.76 0 0 0 0-.66c-.14-.26-.93-.47-1.22-.62zm-9.65 3c.3.42 5 7.53 5 7.53a4.45 4.45 0 0 0 1.07 2.57c.53.56.68.38-.31 2l-7.71-11.05a1 1 0 0 1 .47-1.45 1 1 0 0 1 1.47.38zm-2-1.26a4.3 4.3 0 0 0-1.95 1.52c-.54.68-.78 1-1 .73s-.26-1.93 1.7-2.95a3.69 3.69 0 0 1 2.46-.23c1.13.29-.83.73-1.24.91zm13.21 13.91a.6.6 0 0 0-.31-.11 8.56 8.56 0 0 1-3.15-1.68c-1.87-1.42-2.18-3.21-1.59-4.31s3.59-.58 3.59-.58h.05a16 16 0 0 0 0 1.82 4.5 4.5 0 0 0 2 2.81 2 2 0 0 0 .6.2 9.07 9.07 0 0 0-1.22 1.83zm-10.46-13.85c.38.29 4.48 6.39 5 7.1a3.31 3.31 0 0 0-.38.52c-.71-1.05-4.84-6.93-5-7.13s-.03-.79.38-.49zm11.91-2.38c.11-.25.59.13.74.27s0 1.14 0 1.14l-.22 2.67s-.58 0-.74.35a2 2 0 0 0-.26 1.1 4.15 4.15 0 0 0 .68 1.29l.34.27c-.36 0-.93.1-1.25.16s-1.39.42-1.39.42 1.93-7.27 2.1-7.66zm.4 6.25c-.45-.63-.61-1.34-.24-1.62a.65.65 0 0 1 .67-.06 3.14 3.14 0 0 1 .91.87.89.89 0 0 1 0 1.11 1 1 0 0 1-1.35-.29zm2.39-8.13c.14 0 .45.19.45.33a7 7 0 0 1-1.35 1.73c-.18.07-.56-.17-.53-.32a4.83 4.83 0 0 1 1.42-1.73zm1.54 17a3.67 3.67 0 0 1-3.55-.69 4.37 4.37 0 0 0 1.93-.38 3.83 3.83 0 0 0 1.08-.71c.22-.06.6-.09.66.32.02.57.1 1.3-.13 1.46zm-3.78-1.54a3.45 3.45 0 0 1-2.39-1.62 6 6 0 0 1-.23-3.08c.17-1.23 3.2-1.16 3.2-1.16.15 0 1.07-.33 1.28-.8a1.84 1.84 0 0 0-.27-1.71 4 4 0 0 0-1.08-1l.12-2.14.07-1.35c0-.19.37-.06.5 0s.34.52.37.61c.15.67 2.1 9.41 2.18 9.86a1.84 1.84 0 0 1-1 1.77 3.75 3.75 0 0 1-2.76.61zm-.34 5.62a7.2 7.2 0 0 1-.49 2.22l-1.18-.24 1.43-5.64a9.86 9.86 0 0 1 .23 3.66zm-2.74 1.75c0-.2 1.17-3.36 1.17-3.36.33-.78.69-1.58 1-2.16l-1.67 5.63zm0-2.05a9.8 9.8 0 0 0-.53 1.92l-4.73-1.1a9.4 9.4 0 0 1 1.79-4c.2-.39.3-.69.75-.38a13 13 0 0 0 2.92 1.19.78.78 0 0 1 .33.19c.17.2.07.6 0 .78-.24.4-.42.87-.59 1.4zm-5.62-.75l-8.53-12.07s-.55-.84.14-1.36 1.68 1 1.68 1l7.5 10.63s-.71 1.41-.86 1.8zm-9.49-7.79a2.86 2.86 0 0 1 .47-.49c.3-.27.51-.62 1.24.17s7.48 9 7.49 9a2.24 2.24 0 0 0-.06.48l-1.92-.44c-.76-.78-5.83-6.72-7.29-8.72zm3.89-16.35h-.53s-1.37-.08-1.43.81-.08 3.74-.08 3.74-.08 1 .81 1c.46 0 4.78.4 7.65.53l1.4 1.44c-.1.48-1.07 3.56-1.49 4.84a5.23 5.23 0 0 0-.69-.37c-.12 0-.2.23-.19.39a.37.37 0 0 0 0 .11c-1.32-1.88-3-4.23-3.27-4.7a4 4 0 0 0-5-.52c-2 1.43-1.82 2.91-1.53 4s3 4.57 3 4.57.09.39-.29.12a8.65 8.65 0 0 1-1-1.1.58.58 0 0 0-.64-.06c-.3.2-1.06 1-1.08 1-.37-.93 0-1.28-.52-3.21a7.52 7.52 0 0 0-2.89-3.66l-.62-.91s5.89-8 6.94-8.17a2.33 2.33 0 0 1 1.39.15zm23.44-11c0 .19-.14.86-.46.8-.58-.11-5-1.67-6.07-2.17s-2.46-1.13-2.41-1.52.2-.75.49-.84a.83.83 0 0 1 .52.1c.33.13 5.95 2.51 6.91 3 .3.13.91.3.95.64zm-3.77 12l-9.75-.49c.31-1 4-13.45 4.16-13.54a5 5 0 0 0 .79.65 15.89 15.89 0 0 0 1.79.85 53.38 53.38 0 0 0 5.55 1.94c.52.13.83.24 1.07.07 0 .09 0 .17-.08.26-.41.93-3.3 9.36-3.6 10.24zm7.95-4.49a2.94 2.94 0 0 1-2.51.25c-1.58-.37-1.69-1.33-1.69-1.33.25-.33 2.76-4.15 3.18-4s1 3.74.95 5.07zm-1.66 2.25l-.43 2.53-1.87-.09c0-.24.31-2.29.3-2.62a15.74 15.74 0 0 1-.92-2.17 4.22 4.22 0 0 0 2.12 1.13 6.37 6.37 0 0 0 2.51 0c-.21.33-1.78 1.2-1.78 1.2zm7.26 3.84c-.66.95-1.65 2.48-3.24 4.76l-11.55-1-.52-1.7s-.06-.25-.18-.36a4.2 4.2 0 0 0-.85-.6 7 7 0 0 0-1-.48c-.51-.2-.67.09-.67.09l-1.63 1.74a2.45 2.45 0 0 0-.34.92l-13.67-1s-.81.07-.75-.67 0-2.68 0-2.68 0-.78.72-.74zm-10 22.31a7.15 7.15 0 0 1 .29-2.31s11.69-16.92 12.81-18.45c1.78-2.43 2.63-2.34 2.63-2.34s.61-.17 1.33.81 11.39 16.34 11.39 16.34a3.78 3.78 0 0 1 .58 2.37v30.45s.35 1.92-2.2 3-25.16 6.8-25.16 6.8-1.63.23-1.68-1 .01-35.69.01-35.69zm-3 33.11s.25-31.64.24-33.52a5.44 5.44 0 0 1 .71-2.68l13.4-19.32c.9-1.29 1.49-2.17 2.91-2.31a2.36 2.36 0 0 1 1.27.2 4 4 0 0 0-2.09 1.29c-3.54 4.81-12.09 16.66-13 18a18.19 18.19 0 0 0-1.91 3.3 6.75 6.75 0 0 0-.17 1.88l.23 35.83a.65.65 0 0 1-.64.55c-.56 0-.87-.56-.9-1.47s-.05-1.77-.05-1.77zm-.51-35.39a5.27 5.27 0 0 1-2.72 1.12 5.09 5.09 0 0 1-2.23-.81c-.18-.17-.21-.56-.38-1.1 0-.09-.22-.65-.38-1.16a4.66 4.66 0 0 0 2.06 1.1 4.3 4.3 0 0 0 4.55-1.5l-.05-3.05h.05a2.62 2.62 0 0 1 1.67 1.18c-.79 1.14-1.39 2-1.67 2.44a9.59 9.59 0 0 0-.94 1.76zm-5.06 1.35s-.09-.57.07-.4.45.64 2.12.83a2.78 2.78 0 0 0 2.39-.63 7.21 7.21 0 0 0-.09.79v2.88c-.11.28-.23 1-1.06 1a22.32 22.32 0 0 1-3.74-.7 13.88 13.88 0 0 0 .27-3.79zm-30.19-10c.11.24.39.72.53 1 0 .86.06 5 .06 5.11s-.14 1.88 1.19 2.28 31.83 7.19 31.83 7.19.91 0 1 .82c.44 6.9.09 27.56.09 27.56v1.06s-.29 1.32-1.79.62-4.37-1.91-4.37-1.91-25-10.89-27.09-11.75A2.3 2.3 0 0 1 203 279v-27.58a4.48 4.48 0 0 1 .2-2.13zm2.65-.84a3.54 3.54 0 0 0 2.2 1c.87.08 1.12-.35 1.27-.27s-.12.39-.12.39a2.92 2.92 0 0 1-3.2-.19 7.31 7.31 0 0 1-2.09-2.72c-.4-.8-.82-1.29-.61-1.4s.25-.22.41-.25c.22.48.44.88.53 1.08a11 11 0 0 0 1.57 2.35zm1-3.37l.46.56-1.62 1.76c-.13-.16-.38-.6-.5-.77zm-3.89-6.34a1.88 1.88 0 0 1 1.21-1.68.93.93 0 0 1 1.13.17l4.19 6 .23.28a.71.71 0 0 0-.39 0 4.54 4.54 0 0 0-1 1 .49.49 0 0 0-.07.42c.08.33.57 1.09 1 2.08-1.58-1.88-6.36-7.55-6.3-8.27zm-10 1.25c-.29 0-.87-.37-1.77-1.39a2.9 2.9 0 0 1-.92-2.38c0-.2.89-.42.89-.42a6.11 6.11 0 0 0 1.89-1.33 9.66 9.66 0 0 0 1.2-3c.08-.64 1.38-1.54 3.58-3.39a14.47 14.47 0 0 1 5.44-2.55 26.19 26.19 0 0 1 11.52 1.77c1.42.67 2.77 1.82 2.5 2s-.9-.33-2.3-.94a9.35 9.35 0 0 0-5.51-.12c-1.17.4-3.5 1.53-4 3.3a10.23 10.23 0 0 0-.4 3.93c.06.64 0 .77-.12.75a2 2 0 0 0-1.47.38c-.74.51-.75.87-1.07 1.45a.93.93 0 0 1-.87.52 9 9 0 0 0-2.14-1.1 5.09 5.09 0 0 0-4.54-.09 3.71 3.71 0 0 0-1.2 2.26c-.35.23-.5.34-.78.34zm-6.29-2.74a14.38 14.38 0 0 1 2-1.31c.21-.07.39 0 .56.26s.2.57.23.7a5.75 5.75 0 0 0 .94 2.07 9.7 9.7 0 0 0 2.13 1.82s.5.33.25.75a18 18 0 0 1-2.11 1.87 1.92 1.92 0 0 1-1.93-.58 15.66 15.66 0 0 1-2.49-3.65c-.29-.95-.15-1.52.35-1.93z"/><path class="cls-13" d="M25.66 271.76l-.36-148.39 2.62-.52 107.56-.11 4 59.87-1.06 90.72-5.75.16-.59-8.55-29.79-.32-69 .74-1 8-3.22.54s-2.99.52-3.41-2.14z"/><path class="cls-14" d="M33.56 194.81l.32 30.64s98.72.13 98.76-.08.24-30.89.24-30.89z"/><path class="cls-14" d="M33.39 162.06l.32 33.13s98.72.14 98.76-.09.24-33.4.24-33.4z"/><path class="cls-14" d="M33.22 133.32l.32 33.13s98.72.14 98.76-.09.24-33.4.24-33.4z"/><path class="cls-13" d="M39.57 200.36h86.26v19.19H39.57z"/><ellipse class="cls-14" cx="83.75" cy="205.68" rx="1.85" ry="1.9"/><path class="cls-13" d="M125.16 157.63l-85.93-.23-.33-18.96h86.26v19.19z"/><ellipse class="cls-14" cx="83.07" cy="143.65" rx="1.85" ry="1.9"/><path class="cls-13" d="M125.18 188.81l-85.59.03-.4-18.66h86.27l-.28 18.63z"/><ellipse class="cls-14" cx="83.37" cy="175.37" rx="1.85" ry="1.9"/><path class="cls-14" d="M33.39 225.58l.32 30.64s98.72.13 98.76-.08.24-30.89.24-30.89z"/><path class="cls-13" d="M126.1 249.99l-86.31-.28v-18.62l86.31-.29v19.19z"/><ellipse class="cls-14" cx="84.02" cy="235.99" rx="1.85" ry="1.9"/><path class="cls-15" d="M84.09 234a2 2 0 1 0 2 2 2 2 0 0 0-2-2zm0 3.67a1.65 1.65 0 1 1 1.65-1.67 1.65 1.65 0 0 1-1.65 1.65z"/><path class="cls-15" d="M139.47 270.58V203.4s.08-76.62 0-77.89-.67-1.43-1.18-2.28-1.94-.84-1.94-.84H27.19a3 3 0 0 0-1.83.44c-.84.67-.62 2.68-.62 2.68L25 271.17c.06 3.26 1.67 3.26 1.67 3.26l4.83.06c1.69-.06 1.57-1.46 1.57-1.46l.17-7.64s73.45.39 74.23.14h24s-.08 5.14 0 6.83 1.94 1.77 1.94 1.77H138c1.89-.01 1.47-3.55 1.47-3.55zM26.77 123.4h107.3a4.9 4.9 0 0 1 3 .59 2.63 2.63 0 0 1 1.26 2.19c-.17 1.14-2 1-2 1h-109c-1.73 0-1.6-1.09-1.61-1.67-.09-2.18 1.05-2.11 1.05-2.11zm111.52 147.77c-.08 1.52-1 1.43-1 1.43s-2.7.08-3.37 0-.93-.93-.93-.93l.08-7.75h-25.63s-73 .11-74.15.17-1.35.79-1.35.79-.06 3.82 0 5.84-.67 2.14-1.12 2.53-3.77.28-4-.22a5.69 5.69 0 0 1-.3-1.85v-141.7c0-1.23 1.05-1.1 1.05-1.1h110.72c.01 18.02.07 141.38 0 142.79z"/><path class="cls-15" d="M133 134.28c-.06-1.8-2.92-1.4-2.92-1.4s-93.4-.11-95.53 0-1.94 3.12-1.94 3.12v117.9c-.07 2.84 1.28 2.84 1.28 2.84h2.13c3.09 0 91.56.11 94.32 0a2.61 2.61 0 0 0 2.64-2.81l.02-119.65zm-1.1 89.6H34v-28.23.19h97.8c.08 9.75.08 19.44.08 28.04zM34 163h97.84v31.3H34V163zm1.62-29h94.58c1.57 0 1.63 1.18 1.63 1.18v26.33H34v-25.54a2.14 2.14 0 0 1 1.65-1.97zm94.52 121.49H34.83a.79.79 0 0 1-.77-.74v-1-28.35h97.83v28.41c-.09 1.91-1.72 1.68-1.72 1.68z"/><path class="cls-15" d="M126.52 231.44c-.06-.87-1.24-.9-1.24-.9H40.82c-1.15 0-1.18 1.24-1.18 1.24v17.42c0 1.24 2.25 1 2.25 1s82.44.11 83.56 0 1.07-1.46 1.07-1.46.06-16.29 0-17.3zm-1.65 18c-1.11.11-82.62-.12-82.62-.12s-1.83.19-1.85-.85 0-13.83 0-13.83v-2.32s-.13-1 1-1h83.28s1.11.12 1.17.95 0 16 0 16a1.09 1.09 0 0 1-.98 1.16zM83.75 203.63a2 2 0 1 0 2 2 2 2 0 0 0-2-2zm0 3.67a1.65 1.65 0 1 1 1.65-1.65 1.65 1.65 0 0 1-1.65 1.65z"/><path class="cls-15" d="M126.18 201.09c-.06-.87-1.24-.9-1.24-.9H40.48c-1.15 0-1.18 1.24-1.18 1.24v17.46c0 1.24 2.25 1 2.25 1s82.44.11 83.56 0 1.07-1.46 1.07-1.46.06-16.33 0-17.34zm-1.63 18c-1.11.11-83.48-.08-83.48-.08s-1.1 0-1.13-1 0-13.77 0-13.77v-2.4s0-.9 1.11-.9l83.48.06s1 .08 1.09.91 0 16 0 16a1.11 1.11 0 0 1-1.07 1.22zM83.42 173.29a2 2 0 1 0 2 2 2 2 0 0 0-2-2zm0 3.67a1.65 1.65 0 1 1 1.65-1.65 1.65 1.65 0 0 1-1.65 1.69z"/><path class="cls-15" d="M125.84 170.75c-.06-.87-1.24-.9-1.24-.9H40.15c-1.15 0-1.18 1.24-1.18 1.24v17.42c0 .93 2.25 1 2.25 1s82.44.11 83.56 0 1.07-1.46 1.07-1.46.06-16.29-.01-17.3zm-1.74 18c-1.11 0-83.36-.4-83.36-.4a1 1 0 0 1-.94-1.1V171.6s-.18-.92 1-.92l83.25-.1s1.17.05 1.23.88-.18 16.09-.18 16.09-.1 1.19-1 1.22zM83.08 141.59a2 2 0 1 0 2 2 2 2 0 0 0-2-2zm0 3.67a1.65 1.65 0 1 1 1.65-1.65 1.65 1.65 0 0 1-1.65 1.65z"/><path class="cls-15" d="M125.51 139.05c-.06-.87-1.24-.9-1.24-.9H39.81c-1.15 0-1.18 1.24-1.18 1.24v17.42c0 1.24 2 1.16 2 1.16s82.64-.1 83.77-.21 1.07-1.46 1.07-1.46.1-16.24.04-17.25zm-1.81 18c-1.11.11-82.52 0-82.52 0s-1.73 0-1.76-.79c0-1.18-.09-13.72-.09-13.72v-2.38a1.08 1.08 0 0 1 1.09-1.17h83.34s1.06-.23 1.11.59-.23 16.34-.23 16.34a1 1 0 0 1-.94 1.08z"/><path class="cls-5" d="M41.18 90.68c.1-.05 2.47-3 2.43-3.06a8.06 8.06 0 0 0-1.53-1.94 26.29 26.29 0 0 0-3.57-1.35c-.21.1-2.54 3-2.54 3s-.72 2-.72 2.1.09 2.5.16 2.51 2.08-1.73 2.15-1.73 1.71-.65 1.71-.65 1.49 1.68 1.55 1.66.12-.42.36-.54z"/><path class="cls-7" d="M122.45 250.66s-.86 14.86 1.57 18.22 9 4.49 12.88 3.78a18.31 18.31 0 0 0 6.87-2.94s2.86-8.69 3.29-9.25a41.64 41.64 0 0 0 1.57-5.47s-13.6-.7-18.75-2.1-7.43-2.24-7.43-2.24z"/><path class="cls-16" d="M77.16 105.49c-1.7-1.35-8.71-4-8.71-4-1.51-.91-4-5-5.25-4.58s-2.53 1.47-2.37 2.38.64 5.74-.26 6.71-2.31 1.38-2.63 2.64 1.35 2.89 1.35 2.89a2.73 2.73 0 0 0-1.79 1.63c-.38 1.26.54 3.55 1.86 4s-.77 1.1-.51 2.26a5.11 5.11 0 0 0 2.37 3.14c1.12.56 0 1.6.64 2.26s2.47 2.89 4.87 2.89a33.2 33.2 0 0 1 5.83.82c.29 0 5.25 1 5.45.94s5.9-6.15 6.09-6.21 3.9-5.41 3.9-5.41-9.14-11.01-10.84-12.36z"/><path class="cls-7" d="M169.55 251.36s.43 12.34 1.15 15.56 2.43 3.93 2.43 3.93 9.73-1.54 13.88-1 6.58.7 6.58.7 2.29-7.29 2.72-9.11-.29-11.78-.29-11.78a48.78 48.78 0 0 1-10.59 2c-5.29.26-15.88-.3-15.88-.3z"/><path class="cls-4" d="M43.31 88.11c-.55 1.43-1.47 2.15-2.25 3.52l20.17 14.7 6.52 1.83 3.7-.36zM123.31 268.18s-3.58.56-10-1.4-14.6.7-16.46 2.24-4.87 6.59-3.58 10.79 7 7.43 12.31 9 15.32-.7 17.32-1.4 12.17-1 15.46-1.54 5.15 0 6.58-2.94 2.72-4.77 1.86-7.15a47.32 47.32 0 0 0-3-6 7.51 7.51 0 0 1-5.73 2.66c-3.72 0-12-1.54-13-2.52zM172.55 270.71s-3.72 4.21-3.86 6a9.18 9.18 0 0 1-1.69 4.09c-.43.7-2.58 7.29.43 10.51s11.74 4.07 14.6 4.07 15.89-2.38 18-2.52a5.91 5.91 0 0 0 4.29-2.8c.43-.84 1-7.85.29-9.53s-5.58-4.07-6-4.49-3.86-5.47-3.86-5.47-19.05-2.39-22.2.14z"/><path class="cls-16" d="M132.62 32.12s-3 4.49-2.72 6.45.72 4.49.72 4.49l-3.44 1.4s-5.3 1.68-6.73 1.68-6 .14-6 .14l-.29 6.87s-.57 17.94 8.16 27.34S140.92 96 151.8 95.76s22.76-2.38 27.91-6.17S191.16 79.36 192.45 76l1.55-3.09a9.64 9.64 0 0 0 4.15-3.22c1.29-2.1 2.58-5.89 1.29-8.41s-3.72-2.94-6.16-2.24a8.26 8.26 0 0 0-3.28 1.54s-6.87-4.77-8.45-6.87-5.13-9.71-5.13-9.71a5.12 5.12 0 0 1-4 1.12c-2.58-.28-4.87.42-7.16-.28s-6.87-2.66-9.88-2.52a98.16 98.16 0 0 0-11.31 1.12c-1.43.42-5 1.26-5 1.26l-1.57-2.52s-3.5-8.94-4.88-10.06z"/><path class="cls-17" d="M149.56 60.25s-.52-3.18 1.62-4.35 6.39-.61 9.11.56 4.53 2.15 4.34 2.85a5.42 5.42 0 0 1-3.53 2.52c-1.57.23-6.44.56-7.3.28a17.71 17.71 0 0 0-3.24-1.17c-1-.08-1-.69-1-.69z"/><path class="cls-18" d="M152.23 56.37s-1 1.92-.48 3.32a3.12 3.12 0 0 0 3 2.1 5 5 0 0 0 3.48-2 3.1 3.1 0 0 0-.24-3.27c-.7-.76-4.66-1.46-5.76-.15z"/><path class="cls-17" d="M121 59.17c0-.21.14-3.22 2-3.55a9.77 9.77 0 0 1 5.44 0 6.51 6.51 0 0 1 3.77 2.76c.86 1.17.38 1.92.38 1.92s-.24.47-1.86.84-3.15 1-4.72.42-4.75-.8-5.01-2.39z"/><path class="cls-18" d="M123.07 56.93a3 3 0 0 0 1.34 3.07 4.12 4.12 0 0 0 4.06.28 3.31 3.31 0 0 0 1-2.48c.1-1 .24-2.1-1.57-2.34s-4.68-.46-4.83 1.47z"/><path class="cls-19" d="M125.41 12.59s-5.06 6.21-6.54 8.6-6.11 5.42-7.3 6.45a29.2 29.2 0 0 0-7.16 11.78c-2.24 6.64-1.62 10.14-1.62 10.14s-2.29 7.2-2 11.21S103.94 72.44 106 75s2.86 2.48 4 4.81a34.6 34.6 0 0 0 11.45 12.06 102.41 102.41 0 0 0 18.55 8.19 5 5 0 0 0 3.72-.47 14.34 14.34 0 0 0 1-3.6c-.1-.84-2.15-.65-3.39-1.54s-9.92-3-15.36-9.72-9.11-12.43-10.31-15.84-1.86-13.78-2.05-15.79a35.75 35.75 0 0 1 0-4.77 2.47 2.47 0 0 1 2.24-2 67.74 67.74 0 0 0 9.26-1.21c1.81-.56 4.53-1 4.91-1.5s-.29-4.16.33-6.45 2.67-3.88 3-4.81 1.34 2.06 2.19 3.78 2.9 6.86 2.66 7.86 1.67.37 3.63 0 12-2.57 14.7-1.82 8.35 2.57 10.45 3.18 6.25.23 7.73-.7 2.86 2.9 3 3.08 5 8.69 8.78 10.79 5.06 1 5.73.93 3.34-1.21 5.34-.19 3.72 3.78 2.29 6.45a67.27 67.27 0 0 1-4.44 6.64 18.12 18.12 0 0 0-2.15 1.45c-.19.09-3.1 8.83-8.59 12.2s-5.53 4.67-5.53 4.67.57 8.18.62 8.36a7 7 0 0 0 5.06-.61c2.34-1.21 10.88-3.83 12.6-4.77s9.54-6 11.83-8.08 8.21-7.76 9.3-10 3.34-7.29 3.2-12.71-1.91-18.69-3.1-21.68a46.54 46.54 0 0 0-8.87-12.9 132.6 132.6 0 0 0-15.28-11.54c-.76-.23-10-6.5-12.69-7.43s-10.64-3.41-12.21-4-5.25-1.64-6.92-1.21a7.05 7.05 0 0 0-3 1.78s-3.05-1.82-5.3-1.68-9.54 1.59-9.54 1.59a16.67 16.67 0 0 0-6.16.28c-3.15.76-9.45 2.72-13.27 6.51z"/><path class="cls-20" d="M132.76 18.94a7.48 7.48 0 0 1-3 3.36c-2.15 1.21-7.06 4.67-8.59 6.73s-4.15 7-4 11.12a16.41 16.41 0 0 0 1.1 6h-3.91s-.33-9.44.1-12.48 4.06-12.85 6.73-15.93 6.63-7.38 8.3-8a53 53 0 0 1 7.35-2.76 58.79 58.79 0 0 1 9-1.45 66.17 66.17 0 0 0 6.54-1c.43-.09 3.72-.7 5.34.65s2 .79 2 .79 1.77-2.1 3.86-1.82 7.25.79 10 5.65a89.22 89.22 0 0 1 4.42 8.77s-5.25-8.08-9.78-10-6.54.33-6.54.33.81 5.61.81 5.75.33 4.3-.19 6.12c0 0-.38-6.87-7.35-8.13a13 13 0 0 0-11.36 3.5l1.1-3.6s-4.77 4-5.82 9.72S138 42 139 43.66l.24.56a.66.66 0 0 1-.86.19c-.62-.23-1-3.41-2.39-5.33s-3.82-10.65-3.63-12.38.4-7.76.4-7.76z"/><path class="cls-20" d="M114.53 25.86a52.6 52.6 0 0 0-4.29 8.36c-1.1 3.13-1.57 8.22-.76 10.84s.62.75.62.75.24-4.53 1.62-7 2.28-2.72 2.28-2.72 2-9.07 2.15-9.21-.15-2.33-1.62-1.02zM107.28 45.72s-4.68 5.79-5.49 10a24.22 24.22 0 0 0 .52 11.59c1 3 2.77 7.2 4 7.94s1.62-.19 1.62-.19a24.79 24.79 0 0 1-3.58-10.23c-.72-6.07 2.19-15.93 5-18.22 0 0 .48-1.26-.24-1.26a2.71 2.71 0 0 0-1.83.37z"/><path class="cls-21" d="M120.93 207c-.2.2-1.62 12.34-1.72 15.23s-.76 13-.19 16.73 1.24 7.29 3.24 9.72 12.6 6.35 16.32 6.45 7.35 1.12 9.64-1.5 3.72-3.46 4.68-6.35 1.81-9.63 2.58-11.49 2.1-7.38 3.53-7.38 3.34 4.86 3.34 6.35 1.53 8.78 5.15 12.34 7.25 6 15.17 5.33a39.39 39.39 0 0 0 14.89-4.11c1-.65 3.82-5.33 4.39-8s-.57-12.62-1.34-15.42 1.53-7.38 1.53-7.66 1.62-7.66.57-9.44-4.49-2.34-6.78-2.15-15.94 2.8-20.52 3.08-10.21 1.12-14.7.93-16.89-2.52-16.89-2.52S122 206 120.93 207z"/><path class="cls-22" d="M130.76 206.92s-3.34 16.82-2.67 29.34 3 14.58 3 14.58l5.44-43.74 7.06.84s-2.48 14.67-2.77 17-1.15 17.1-2.48 21.12a30.89 30.89 0 0 1-4.2 7.76s-7.25-.65-8.68-3.08a12.84 12.84 0 0 0-1.91-2.8s-3-25 1.43-41.12c-.04.01 4.63-.08 5.78.1zM150.42 210.85s-4 8.69-4.68 17.29-1.24 13.46-1.81 15.7-3.15 8.22-3.05 9.07 1.81 1.68 3.72 1.59 3.05-2.06 3.63-5.14 2.39-17.94 2.86-21.4 2-12.62 3-13.83zM153.47 210.94s6.11 10.19 6.87 14 1.62 11.59 2.58 14.11 3.15 8.32 5.25 9.53 4.68 3.46 5 3.46 1-1.21 1-1.59-1.24-3.93-1.24-3.93-3.91-6-4.49-9.81a97.66 97.66 0 0 0-5.15-17.2c-1.53-3.18-5.92-10.19-6.11-10.56s-3.71-.16-3.71 1.99zM164 209.73a64.24 64.24 0 0 1 3.72 8.22c2 5.23 7.16 19.63 7.83 21.68s3.34 10.93 6.2 12.24 8 0 9.26-.84a14.83 14.83 0 0 0 3.72-5.61c.19-1.12-2.1-13.18-3.05-16.07s-1.62-3.55-1.72-7-1.43-13.64-2.48-15.14l-6.87.93s1.91 12.43 2.58 14.11a121 121 0 0 1 4.2 13.64c.57 3.27 1.62 10.09-.57 14.67l-.29 1a31.81 31.81 0 0 1-3.15-5.79c-1.62-3.74-4.49-14.39-5.34-16.82s-2.86-10.75-4.1-14-1.81-5-2.86-5.61-7.08.39-7.08.39z"/><path class="cls-22" d="M191.16 206.83a12 12 0 0 1 2.67 7.1c.19 4.39-.1 7.1.1 9.81s3.05 8.69 3 11.59-.29 6.73-1.34 9.63-1.62 3.83-1.24 3.83a11.79 11.79 0 0 0 3.24-1.4c.57-.47 1.62-.28 3.05-4.67a29.51 29.51 0 0 0 .86-13.27 21.79 21.79 0 0 0-2.67-6.17s1.53-6.64 0-11.78-2.1-5.7-2.1-5.7z"/><path id="Рубашка" class="cls-14" d="M144.36 96.35c.14.56.29 4.35-1.57 4.91s-6.3 1-8.59 2.1-7.16 2.8-10.88 7.71-7.3 11.21-9.3 12.76-3.65 4.37-4.65 6.06-2.4-3.29-3.49-4.42a13.1 13.1 0 0 1-4-1.91c-1.54-1.22-1.41-3.5-5.29-5.43-.9-.44-3.72.85-4.58 1.79-.12.13-1-3.14-3.4-1.51s-4.48 5.23-7.21 8.35c-4 4.63-8.38 9.26-8.87 13.68 1.73 4.8 13.26 15.19 16.08 15.53 1.73.21 9.92 11.61 14.93 12.87s13.46 0 14.46-1.4 1 .84 1 .84.86 19.63.72 21.73-1.86 13.32-1.29 15.28 9.59 1.4 10.16 1.4 18.47.56 22.76 2.24 19.32.56 23 .28 19.47-2.94 23.91-2.94a76.13 76.13 0 0 0 9.3-.7s2.29-2.1 2.43-3.22a13.62 13.62 0 0 0-.72-3.78s4.72 3.64 9.59 1.4 7.44-8.83 7.44-8.83l3.15-3.08s2.15-6.31 2.86-8.69 1.57-6.45 1.72-6.87 2-12.62-.86-20-14.6-21.59-14.6-21.59-10.45-16.26-16-19.2a87 87 0 0 0-12.17-5l-9.59-7-1.29-2.8-.86-6.59s-8.87 5.19-16.75 5.61-17.46-.14-17.46-.14z"/><path class="cls-21" d="M186.25 155.86a6.54 6.54 0 0 1-9 1.59 6.23 6.23 0 0 1-.94-8.87 6.54 6.54 0 0 1 9-1.59 6.23 6.23 0 0 1 .94 8.87zM177.17 182.83a6.54 6.54 0 0 1-9 1.59 6.23 6.23 0 0 1-.94-8.87 6.54 6.54 0 0 1 9-1.59 6.23 6.23 0 0 1 .94 8.87zM209.34 154.53a6.54 6.54 0 0 1-9 1.59 6.23 6.23 0 0 1-.94-8.87 6.54 6.54 0 0 1 9-1.59 6.23 6.23 0 0 1 .94 8.87zM207.48 131.16c-2.38 3.1-6.62 3.92-9.46 1.83s-3.22-6.31-.84-9.41 6.62-3.92 9.46-1.83 3.22 6.31.84 9.41zM233.49 164.05c-2.73 3.56-7.28 4.72-10.16 2.59s-3-6.73-.29-10.28 7.28-4.72 10.16-2.59 3.01 6.73.29 10.28zM220.07 180.87c-2.38 3.11-6.34 4.14-8.83 2.3s-2.58-5.84-.2-8.95 6.34-4.14 8.83-2.3 2.59 5.84.2 8.95zM123.49 140.57c-3.13-2.39-4.1-6.28-2.18-8.69s6-2.42 9.14 0 4.1 6.28 2.18 8.69-6.02 2.43-9.14 0zM125.5 107.68c2.65-2 6.08-1.92 7.67.12s.72 5.3-1.93 7.27-6.08 1.92-7.67-.12-.72-5.29 1.93-7.27zM141.52 184.77c-3.13-2.39-4.1-6.28-2.18-8.69s6-2.42 9.14 0 4.1 6.28 2.18 8.69-6.01 2.4-9.14 0zM85.14 153c-2.9-2.22-3.81-5.84-2-8.08s5.59-2.25 8.49 0 3.81 5.84 2 8.08-5.63 2.26-8.49 0zM119.72 174.57c1.71-2.58 4.77-3.61 6.85-2.3s2.37 4.47.67 7.06-4.77 3.61-6.85 2.3-2.39-4.48-.67-7.06z"/><path class="cls-16" d="M192.82 181c-.15.12-.51 3.26-4.61 3.14s-5.64-.09-7.37-1.51-4.23-5-5.19-5.33-2.43 1.07-2.18 1.63 6.12 5.37 6.47 5.65 1.92 1.13 1.92 1.13-4.45.88-6 2.64-.77 5.18-.64 5.9 1.63 3 1.79 3.89a5.32 5.32 0 0 0 1.47 2.45c.67.72 1.31 2.16 2.31 2.51a12.56 12.56 0 0 0 6.21-.1c2.24-.67 8.52-4.77 9.39-5.52s5.48-5.05 6.41-6 2.24-.85 2.18-2.38-6.98-12.26-12.16-8.1z"/><path class="cls-21" d="M112.61 159.07c-3.13-2.39-4.1-6.28-2.18-8.69s9.14-3.91 9.14 0c0 3.16.81 9.91 0 10.18a7.69 7.69 0 0 1-6.96-1.49zM188.06 110a6.55 6.55 0 0 1-9.1.34 6.22 6.22 0 0 1 .35-8.91 7.16 7.16 0 0 1 1.45-1.1c2.29 2.15 8.21 4.68 9.23 6.18a6.83 6.83 0 0 1-1.93 3.49z"/><g id="Домовенок"><path class="cls-12" d="M118.72 267.67h-.07zM179.1 227.17s5.67-.61 7.06-.79a32.44 32.44 0 0 0 3.72-.89 14.08 14.08 0 0 1-5.53 2.71c-2.96.56-6.06-.51-5.25-1.03z"/><g id="Лицо"><path id="Правая_бровь" data-name="Правая бровь" class="cls-12" d="M152.12 49c-.07.42.07 1.17 2.75 1.38s4.17 0 5.42.4a16.6 16.6 0 0 1 4.56 2.45c1 .93.86.3.86.3a10.83 10.83 0 0 0-2.93-3A17 17 0 0 0 154 48s-1.7 0-1.88 1z"/><path id="левая_бровь" data-name="левая бровь" class="cls-12" d="M122.56 51.83s3.27-1.17 4.2-1.37a11.54 11.54 0 0 1 3.18-.16c.88.11 1.48-.14 1.48-.67a1.38 1.38 0 0 0-1.36-1.23 21.88 21.88 0 0 0-3.31.65 14.27 14.27 0 0 0-3.27 1.24 3.75 3.75 0 0 0-1.22 1.19.31.31 0 0 0 .3.35z"/><path id="Правый_глаз" data-name="Правый глаз" class="cls-12" d="M163.47 57.56c-2.84-1.33-3.4-2.28-8-2.7s-5.7 1.73-6 3a15.68 15.68 0 0 0-.13 1.61 7.68 7.68 0 0 0 0 1.84c.16.26.82.11 1.22.16s3.63 1 4.61 1.14h.29a16.25 16.25 0 0 0 6.36-.27 7.63 7.63 0 0 0 3.63-1.86c.66-.61.57-1 .57-1s.29-.59-2.55-1.92zm-7.71 3.73c-1.09 0-2.19 0-2.82-.86a2.82 2.82 0 0 1-.7-1.94c0-.49.2-1.43.88-1.52a2.61 2.61 0 0 1 1 .33 1.3 1.3 0 0 0-.55 1.18 1.57 1.57 0 0 0 1.7 1.36c.93 0 1.64-.48 1.68-1.3 0-.64-.11-.82-.11-.82s-.1-.35.35-.47a.92.92 0 0 1 1 .46 2.38 2.38 0 0 1-.17 2 2.69 2.69 0 0 1-2.26 1.57zm-5.26-1.23a3.79 3.79 0 0 1 1.14-2.56 3.35 3.35 0 0 0-.2 1.25 3.3 3.3 0 0 0 1.64 2.74l-.38-.15c-.7-.28-1.83-.56-2.19-1.28zm13.61-.22a1.43 1.43 0 0 1-.48.39 11 11 0 0 1-4.08 1.58 23.47 23.47 0 0 1-2.71.28 3.94 3.94 0 0 0 2.26-1.49 3.38 3.38 0 0 0 .45-2.74 3.55 3.55 0 0 0-.56-1.22 22.9 22.9 0 0 1 4.88 2.24 1.36 1.36 0 0 1 .25.3.51.51 0 0 1-.01.66z"/><path id="нос" class="cls-12" d="M137.53 70.32a4.78 4.78 0 0 0 3.13 1 8.32 8.32 0 0 0 3.13-.4s.74-.44 1.2-.14.18.88-.5 1.33a5.3 5.3 0 0 1-4.06.72 4 4 0 0 1-3.08-1.79c-.52-.7-.35-1.04.18-.72z"/><path class="cls-12" d="M134 59.62c-.3-.47-.82-1.42-1.27-2a10.19 10.19 0 0 0-2-1.63l-.86-.49a9.73 9.73 0 0 0-3.52-.88 5.81 5.81 0 0 0-3.61.91 5.48 5.48 0 0 0-1.57 2.19 3.32 3.32 0 0 0-.36 1.79c0 .42.72.75.72.75a13.58 13.58 0 0 0 3.56 1.7 12.81 12.81 0 0 0 4.22.26 9.3 9.3 0 0 0 2.91-.88 5.59 5.59 0 0 1 1.66-.16c.43 0 .73-.28.73-.51s-.33-.58-.61-1.05zm-9.78 1.17c-.46-.21-1.68-.91-1.68-.91a1.38 1.38 0 0 1-.5-1.58.56.56 0 0 1 .12-.2.78.78 0 0 1 .65-.14c.3.12.11.21.32.88a4.39 4.39 0 0 0 1.31 2zm3.81-.62c-1.47.46-2.43.28-3.13-.43s-.9-1.11-.9-1.74c0-.88.3-1.16.3-1.16s.11-.17.19-.19a.55.55 0 0 1 .3 0c.24.11.2 1.62.2 1.62a1.49 1.49 0 0 0 1.39 1 1.74 1.74 0 0 0 1.84-1.41 1.72 1.72 0 0 0-.51-1.32h.3a4.08 4.08 0 0 1 .73-.06 1.46 1.46 0 0 1 .56.87c.22.84-.04 2.44-1.3 2.82zm4.68.06c-.46.42-1.09.28-1.56.28s-2.16.23-2.16.23l-.16.08.16-.08a2.81 2.81 0 0 0 1.52-2 3.32 3.32 0 0 0-.35-2.09.93.93 0 0 0 .17.14 13.35 13.35 0 0 1 2.22 2.1c.35.45.6.92.13 1.34z"/><g id="Блик_на_глазах" data-name="Блик на глазах"><ellipse id="Блик" class="cls-17" cx="153.54" cy="57.7" rx=".81" ry=".8"/><ellipse id="Блик-2" data-name="Блик" class="cls-17" cx="125.16" cy="57.42" rx=".88" ry=".87"/></g><path class="cls-12" d="M129.45 78.71a1.62 1.62 0 0 1 1.32-.74c.64 0 2.18.77 3.47 1.37a43.12 43.12 0 0 0 10.69 2.21c2.93 0 9.12-.53 11.76-1.89a17.32 17.32 0 0 1 5.65-1.89 4.83 4.83 0 0 1 2.72 1 .87.87 0 0 1 .14 1 1.39 1.39 0 0 1-1.36 0 6.61 6.61 0 0 0-2.15-.7c-1.22-.07-3.15 1.23-4 1.65a27.28 27.28 0 0 1-11.37 2.73c-4.86.18-11.3-2.36-11.87-2.73a9.53 9.53 0 0 0-2.36-1.12 10.49 10.49 0 0 0-2.29.28c-.17.02-.8-.32-.35-1.17zM140.6 85.48a13 13 0 0 0 4.84.82 21.63 21.63 0 0 0 5.17-.42c.41-.12.83-.28.93-.12s-.83 1.7-3.89 2a13.68 13.68 0 0 1-6.79-.75 4 4 0 0 1-1.67-1.47s-.07-.37.41-.3a7.73 7.73 0 0 1 1 .24z"/></g></g><path class="cls-21" d="M174.42 133a6.55 6.55 0 0 1-9.1.34 6.22 6.22 0 0 1 .35-8.91 6.55 6.55 0 0 1 9.1-.34 6.22 6.22 0 0 1-.35 8.91zM148.84 157.54a6.54 6.54 0 0 1-9 1.59 6.23 6.23 0 0 1-.94-8.87 6.54 6.54 0 0 1 9-1.59 6.23 6.23 0 0 1 .94 8.87z"/><path class="cls-12" d="M107.12 143.36s0-.03 0 0z"/><path class="cls-5" d="M179.72 184.1c0 .09 2.14 1.59 2.14 1.59s-2.65.63-3 .64a10.72 10.72 0 0 0-2.28 1.48 6.34 6.34 0 0 1-1.55.52l-4.95-3.39 3.81-4.89z"/><path class="cls-4" d="M195 198.61l.18-.28c-.54.45-.81.88-.6 1.26a4.51 4.51 0 0 1 .42-.98zM173.94 180.25l-99.26-70.4-.58 2.54 2 1.45 1.17 3.21 94.57 66.17 2.1-2.97z"/><ellipse class="cls-12" cx="176.45" cy="204.5" rx="1.15" ry="1.13"/><ellipse class="cls-12" cx="165.75" cy="197.67" rx="1.15" ry="1.13"/><ellipse class="cls-12" cx="153.64" cy="204.04" rx="1.15" ry="1.13"/><ellipse class="cls-12" cx="142.68" cy="195.32" rx="1.15" ry="1.13"/><ellipse class="cls-12" cx="130.38" cy="202.19" rx="1.15" ry="1.13"/><ellipse class="cls-12" cx="122.43" cy="193.33" rx="1.15" ry="1.13"/><ellipse class="cls-12" cx="149.12" cy="100.12" rx=".97" ry=".95"/><ellipse class="cls-12" cx="155.01" cy="98.57" rx=".97" ry=".95"/><ellipse class="cls-12" cx="161.01" cy="101.49" rx=".97" ry=".95"/><ellipse class="cls-12" cx="152.94" cy="105.51" rx=".97" ry=".95"/><ellipse class="cls-12" cx="158.25" cy="109.98" rx=".97" ry=".95"/><ellipse class="cls-12" cx="150.3" cy="113.96" rx=".97" ry=".95"/><ellipse class="cls-12" cx="143.23" cy="118.81" rx=".97" ry=".95"/><ellipse class="cls-12" cx="154.69" cy="121.44" rx=".97" ry=".95"/><ellipse class="cls-12" cx="147.84" cy="125.37" rx=".97" ry=".95"/><ellipse class="cls-12" cx="141.4" cy="129.35" rx=".97" ry=".95"/><ellipse class="cls-12" cx="146.14" cy="133.56" rx=".97" ry=".95"/><ellipse class="cls-12" cx="152.91" cy="131.72" rx=".97" ry=".95"/><ellipse class="cls-12" cx="147.1" cy="107.96" rx=".97" ry=".95"/><ellipse class="cls-12" cx="166.85" cy="97.34" rx=".97" ry=".95"/><ellipse class="cls-12" cx="172.81" cy="99.39" rx=".97" ry=".95"/><ellipse class="cls-12" cx="176.87" cy="94.38" rx=".97" ry=".95"/><ellipse class="cls-12" cx="39.92" cy="87.72" rx=".84" ry="1.19" transform="rotate(-57.72 39.919 87.717)"/><circle class="cls-12" cx="202.44" cy="198.09" r=".95"/><circle class="cls-12" cx="192.31" cy="202.94" r=".9"/><path class="cls-12" d="M236.43 162.88c-.21-4.69-3.36-14.71-4.22-16.39s-4.58-6.23-5.65-7.56S217.05 126 214.48 122s-6.51-8.37-9.65-10.15a14.51 14.51 0 0 0-5.47-2 6.75 6.75 0 0 0-1.3-.87c.07 0 .09 0 0 0-.67-.33-6-2.19-7.68-3.08s-3.91-2.57-5.24-3.27-2.1-1.59-2.1-2.19 1.43-.75 1.43-.75 10.58-2.61 16.73-6.77 15.07-11.07 18.88-18.3 1.86-15.45 1.81-16.34-.52-4.86-.52-6.3-.73-8.93-2.91-13.4c-2.43-5-7-10.32-16.11-17.32S190 12.27 181.87 9s-16-5.46-18.64-5.23c-2.21.2-3.17.62-3.92 1.36a8 8 0 0 0-4.66-1.5 64.35 64.35 0 0 0-6.91.93c-1.48.33-6.1.51-9.06 1.07s-6.58 2.29-9.54 3.78-6.67 5.77-6.67 5.77a37.52 37.52 0 0 0-2.6 3.74c-1 1.75-4.65 4.81-4.84 5.07s-2.91 2.54-4.77 4.37a31.59 31.59 0 0 0-4 5.51s-.45.68-.43.68a23.13 23.13 0 0 0-1.69 4.43 47.83 47.83 0 0 0-2.14 9.66 12.12 12.12 0 0 1-.38 2.12 23.78 23.78 0 0 0-1 6.72 33.49 33.49 0 0 0 1.17 10.18c1.1 3.48 3.53 8 5 9.1h.06c.54.65.92.81 1 1a59.64 59.64 0 0 0 4.51 6.84 56.36 56.36 0 0 0 8.18 7.66 106.14 106.14 0 0 0 10.85 6.35 31 31 0 0 0 6 1.45c1.07.28 1.88.42 1.79.77a1 1 0 0 1-.52.54 28.72 28.72 0 0 0-3.91.91 5.76 5.76 0 0 0-.93.26c-.75.19-5.84 2.26-8.22 4.88a65.65 65.65 0 0 0-6.82 9.15c-.67 1.4-4.47 4.4-6.67 7.12-.46.56-1.78 1.69-2.54 2.74a4.4 4.4 0 0 0-.77 2.48s-1.28-.91-1.28-1.13a2.24 2.24 0 0 0-.51-1.95c-.8-1.19-3.24-1.95-4.42-2.89s-2.76-3.92-5-4.89-3.59-1.33-4.59-.64a2.72 2.72 0 0 0-1.12 1.33 4 4 0 0 0-3.62-2.15 3.63 3.63 0 0 1-2.63-1.47c-.8-.82-7-9-8.17-10.17s-3.94-2.43-6.41-3.2a8.53 8.53 0 0 1-3.68-1.82c-.66-.55-2.43-2.53-3.08-2.89a3.85 3.85 0 0 0-2.88-.25c-1.12.3-1.37 1.75-1.4 2L44.05 88.12c.69-.83.08-1.37.08-1.37l-4.61-2.9a1.37 1.37 0 0 0-1.52-.08s-2.76 3.21-3 3.6a23.49 23.49 0 0 0-.36 4.3c0 1.18.7.83 1 .57a18 18 0 0 0 2.5-2.12l2.32 1.77 16.76 11.79 2.84 2.16a3.38 3.38 0 0 0-2.26 1.2 2.62 2.62 0 0 0 .65 4.18 2.69 2.69 0 0 0-1 .66 4.07 4.07 0 0 0-.38 3.51 5.58 5.58 0 0 0 1.6 1.95s-.78.38-.6 2.56a2.67 2.67 0 0 0 1 1.93c.73.7 1.78 1.1 1.92 1.47a5.36 5.36 0 0 0 .51 2.13 7.47 7.47 0 0 0 3.62 2.21h.12a45.19 45.19 0 0 0 7 1.85c1.39.14 4.81.38 4.9 1s-1 1.4-1.89 2.26-4.58 5.74-4.23 7.81a5.17 5.17 0 0 0 2.4 3.67c1 .69 3 1.88 3 1.88a12 12 0 0 1 3.49 4 17.9 17.9 0 0 0 4.36 4.93c1.09.8 3 .83 3.46 1.63s4.87 5.74 4.87 5.74c5.08 4.75 12.59 8.13 13.41 7.82a22.93 22.93 0 0 0 6.25 0c2.79-.63 3.4-1.12 3.79-1.44a1.73 1.73 0 0 1 2.15.18c.57.7.29 2.35.29 2.35s.14 14.84.24 15.4a28.59 28.59 0 0 1 0 6.12c-.33 2.43-.14 5.6-.72 8.54s-.91 3.78.24 4.81a7.38 7.38 0 0 0 1.52 1.11c-.09 1.26-1.28 17.76-1.28 19.06s-.52 12-.1 14.47a29.72 29.72 0 0 0 2.77 6.91 43.62 43.62 0 0 1 .24 5v.17l-.14 6.13a11.26 11.26 0 0 0 .29 3.19c.43 2 .76 4 .91 4.34-.09 1.16-1.65 1.24-2.78 1.14h-.41c-.3 0-.53-.08-.65-.11l.26.05a28.89 28.89 0 0 1-4.87-1.19c-3.43-1.12-11.68-1.54-15.92.75s-5.53 7.19-5.67 8.12-.57 7.8 3 10.32 7.45 3.35 12.58 3.95a38.1 38.1 0 0 0 11.35-.42 67.08 67.08 0 0 1 12.35-1.63 110.7 110.7 0 0 0 11.92-1.12c1-.23 3.05-.84 4-5.7s-1.57-8.45-2.15-9.62-.81-1.63-.19-2.85a29.29 29.29 0 0 0 1.24-3c.38-.56 2.29-6.82 2.43-7s.1-1.94.27-2.63c.28-.14.39-.29.4-.45a10.46 10.46 0 0 0 1.62-1.36 34.36 34.36 0 0 0 3.24-7.42c.33-1.63 1.43-7.84 2.67-12s1.81-4.11 2.19-4.11 1.38 1.91 2.48 5.74 2.23 9.51 6 13.71a63.12 63.12 0 0 0 .87 9.49c.86 4.06 1.48 7.7 2.24 9.48s.29 2.15.29 2.15l-1.67 2.47c-1.24 1.49-2 6-2 6-2.29 1.87-2.48 6-2.34 9.06s2.29 4.58 3.72 5.93 4.77 1.49 7.68 1.59a86.1 86.1 0 0 0 11.54-1 72.68 72.68 0 0 1 7.53-.56 28.59 28.59 0 0 0 7.29-1.26c1-.51 2.81-2.75 3.38-6.68s-.91-7.33-2-8.45-2.43-1.4-4-2.85-4.59-4.31-4.67-4.39a.77.77 0 0 0-.05-.24c-.33-.84 0-1.31.67-3.36s1.09-16.06 1.14-17.48a5.72 5.72 0 0 0 1.72-1.38 16.72 16.72 0 0 0 3.53-11.58c-.43-6.63-.76-10.18-1.43-12.56a6.73 6.73 0 0 1 1-2.75c.81-1 .91-9.62 1-10.32 0 0 .12-.76.3-1.65a3.22 3.22 0 0 1 .95-1.87c.76-.55 2.9-1.5 4.52-2.42s1.47-2.12 1.47-2.12v-.15c0-1.18-.06-2-.1-2.45a8.78 8.78 0 0 0 5.93 1.16.24.24 0 0 0 .27 0c3.93-.7 5.29-1.82 6.58-3.36s1.86-4.55 4.72-7.35a20.58 20.58 0 0 0 4.29-6.65 8.6 8.6 0 0 0 .29-2.66 11.94 11.94 0 0 1 1.43-4.83c.81-1.63 2.74-9.12 2.52-13.82zM181.3 98.13s-.62-5.79-.48-6.86 2.1-2.57 2.1-2.57c1-.75 1.93-1.48 2.8-2.11a28.12 28.12 0 0 0 6-6.54c.41-.61 1-1.52 1.53-2.44v.95c.1 6.26-1 9.53-3.24 13.21-3.01 4.77-8.71 6.36-8.71 6.36zm-8.36-4c1.35-.46 2.66-1 3.83-1.5l.73-.35c1.12-.06 1 .8 1 .8l.32 4.7zm4.76 5.32a8.06 8.06 0 0 1-1.54 1.19 27 27 0 0 1-6.58 2.31c.07-.41 1.12-6.5 1.76-7.4zm-2.7-8.12c-8.68 3.88-21 4-21 4a51.1 51.1 0 0 1-9.15-.65 38.17 38.17 0 0 1-13.11-6.33c-4-3.13-8.8-8.33-10.77-11.7a38.52 38.52 0 0 1-4.58-10.15 53.91 53.91 0 0 1-1.55-12.16c0-1.1.21-6.42.21-6.42a.86.86 0 0 1 .86-.75L121 47a15.83 15.83 0 0 0 4.27-1 44.76 44.76 0 0 1 4.73-1.35c1.88-.4 1.86-.65 1.86-.65a7.8 7.8 0 0 1-.74-4.65 6.89 6.89 0 0 1 1.88-3.81 9.51 9.51 0 0 0 .81-1.59s.6 1.89 1.07 3.45 2 4.25 2.38 5.18a10.81 10.81 0 0 1 .36 3c1.72.42 4.31-.42 6.27-1.05a42.74 42.74 0 0 1 8.2-.93 51.71 51.71 0 0 1 5.24.09 35 35 0 0 1 4.36.79 39.82 39.82 0 0 0 7.13 1.91 8.71 8.71 0 0 0 6.48-1.35 38.36 38.36 0 0 0 2.65 5.21 47.8 47.8 0 0 0 6.89 7.47A39.83 39.83 0 0 0 188 60.2a3 3 0 0 0 .35.25A17.65 17.65 0 0 0 191 61.9c.38-1.54 2.29-1.84 2.77-2s6.17-1.1 6 3.29-3.43 7.49-4.51 8.43a2.09 2.09 0 0 1-2 .61c-.36 2.82-2.86 6.28-3.53 7.42A38.31 38.31 0 0 1 175 91.33zM154.27 135c-.83-.58-3-2.14-5.39-4 2.77-.74 5.34-1.36 6-1.52a14.89 14.89 0 0 0-.21 2.2c.02 2.24.05 2.98-.4 3.32zm-5.2-37.36l5.15 5.35c-3.32-.59-6.34-1.46-7.79-2.46v-.08zm-3.63 1.09a8.54 8.54 0 0 1 .05-1.86.55.55 0 0 1 .47-.37l1.31.26zm-1.33 14.14c.58-.35 4-1.66 7.7-3 2.57 3 5.27 6.23 5.38 6.3s-4.58 1.72-7.91 3.07c-2.65-3.32-5.17-6.39-5.17-6.39zm9.76 15.2a58.33 58.33 0 0 0-6.23 1.95 35.88 35.88 0 0 1-5.82-5.59s3-1.6 6.65-3.35zm-5.58-24.64l.13-.07c.7.17 1.55.34 2.55.49 3.07.47 7.71.93 9.51 1.08-1.59.49-4.9 1.78-8.08 3.07zm2.92-6.22h4.5c.65 0 1.29 0 1.91-.05l-2.27 4.25s-2.83-2.98-4.14-4.23zm-4 7.23l3.55 4.22c-3.35 1.37-6.19 2.57-6.19 2.57l-.84.3c.94-2.05 2.15-5.33 3.51-7.11zm.35 15.5l-.95.43c-2.12 1-4.73 2.22-5.84 2.9.62-3.21 1.45-6.92 2.14-9.36zm-1.7 10.68c-2.27.79-4.37 1.54-5.25 1.85a5 5 0 0 1-.75-3 24.67 24.67 0 0 1 .5-4c.81.78 3.14 2.96 5.53 5.12zm1 .92c1.88 1.68 3.68 3.23 4.66 3.91-2.48.08-6.69-.17-8.9-1.39a9.53 9.53 0 0 1-1.14-.73 42.44 42.44 0 0 1 5.44-1.82zm3.23-11.25a63.32 63.32 0 0 1 7.73-3.1c-.78 3-1.82 6.69-2.5 9.8-.16-.47-2.61-3.55-5.17-6.72zm3.36-11c3.76-1.37 7.34-2.64 8-2.85a4.26 4.26 0 0 1 1.14-.26c-.07.1-.13.18-.18.26a30.81 30.81 0 0 0-4 8.41zm8.77-5.39a53.51 53.51 0 0 1-5.76-.49 6.13 6.13 0 0 0 1.18-2.26 12.9 12.9 0 0 1 2.1-3.69 39.25 39.25 0 0 1 4.67 3.13c.45.4 2.39 2.36 2.92 2.9a26.68 26.68 0 0 1-5.06.33zm.12-7.2c1.35-.21 2.67-.46 4-.71 1-.18 2-.42 3-.69l-1.21 5.52s-4.13-3.28-5.74-4.2zm36.24-41.2c.36.61 3.93 4.86 4.46 7.52s1 5.46-.1 11.53-8 11.39-8 11.39-.24-5.51-.1-8.54a10.72 10.72 0 0 1 1.16-4.25 14.21 14.21 0 0 1 1.5-1.49 17.82 17.82 0 0 0 3.32-5.66 7.45 7.45 0 0 0-.17-4.74 5.9 5.9 0 0 0-3.79-2.68c-2.34-.47-5.27.75-6.72.72a2.94 2.94 0 0 1-2.38-1.1c-1.51-1.45-5.82-4.18-6-5.63 0 0-.33-1 .86-1s7.2.47 7.2.47 4.55.07 5.7.7a12.48 12.48 0 0 1 3.06 2.76zm-1.77-26.57s5 6.72 5.6 7.52a58 58 0 0 1 4.77 8.55 92.6 92.6 0 0 1 3.17 9.34 53.84 53.84 0 0 1 1 7s-1.45-1.68-2.38-2.57-4-2.33-5.79-4.79a24.71 24.71 0 0 1-3.46-5.53 19.3 19.3 0 0 1-1.24-5.44 77.29 77.29 0 0 1-.36-5.88 38.47 38.47 0 0 0-.88-6.23 16.34 16.34 0 0 0-.43-1.97zM213.67 74c-.1 2.59-.83 3.88-2.17 6.82a15.93 15.93 0 0 1-2.92 4.28l-2.45 2.24a43.88 43.88 0 0 1-15.88 8s-1.21.28-1.66.32c.83-.81 6.35-6.69 9.05-9.62s6.29-7.89 7.1-10.32 1.86-8 .43-12.61a24 24 0 0 0-3.93-7.56 32.3 32.3 0 0 1-2.38-4.65 13.93 13.93 0 0 1-.55-2.73 16.17 16.17 0 0 0 3.46 6.26c2.38 2.36 4.46 4.37 5.63 6.86s1.36 7.19 1.31 9.13a43.51 43.51 0 0 1-.33 4.62c-.1.44 1.33-.65 1.36-4.93a43.17 43.17 0 0 0-.43-7.89c-.19-.47 2.31 2.59 3.17 4.93a16.41 16.41 0 0 1 1.19 6.85zM221 61.1l.05.43a24.57 24.57 0 0 1-.62 8.64 22.77 22.77 0 0 1-5.15 8.78l-.59.56c.27-1.1 1.46-6.42.21-10.42a57.31 57.31 0 0 1-2.24-9.17c-.12-1.24-.67-7.4-1.53-10.2a28.65 28.65 0 0 0-1.57-4.2s-1-1.94 1-1.21 5.1 4.9 6.63 7a21.89 21.89 0 0 1 3.29 7.54c.26.98.42 1.7.52 2.25zm-18.25-37.72c1.81 1.49 9.54 7.66 13.25 14.43a33.15 33.15 0 0 1 4 14.06 25.87 25.87 0 0 0-3.42-4.63c-2.65-2.92-6.75-5-7.6-5.7a40 40 0 0 1-5.41-6.19c-1.79-2.59-4.1-6.26-4.65-7s-1.5-2.24-2-3c0 0-3-7-4.43-8.68.06-.01 8.45 5.22 10.26 6.71zM185.2 12c5.86 3.13 7.49 7.94 9.3 14.24 0 0 1.26 5.21 1.55 7.49s.33 4.34.38 5.18.22 5.24.27 6.48a2.07 2.07 0 0 0 0 .45c0 .05.06 1 .07 1a2.72 2.72 0 0 1-.57 2.2c-.83.75-4.65.79-4.65.79h-9a4.88 4.88 0 0 1-3.55-2.29 4.85 4.85 0 0 1-.88-4 24.57 24.57 0 0 1 1.48-3.69 16.94 16.94 0 0 0 1.31-5.53.58.58 0 0 0 0-.23 37.63 37.63 0 0 0 .46-9c-.48-4.2-4.34-14.15-7.15-16.15A25.43 25.43 0 0 1 185.2 12zm-36-5.84a15.77 15.77 0 0 0-4.39 6.21 19.35 19.35 0 0 0-1.1 5.14c.48-2 2.91-6.26 5.29-9.1s4.1-3 5.53-3.22 2.1 0 4.77 2.29 3.67 7.75 3.67 7.75a11.83 11.83 0 0 0-2-8.48c-.07-.28 0-.86 1.45-1.23a8.93 8.93 0 0 1 7.29 1.35c2.05 1.68 6.29 5.37 8.77 14.19s1 13.33 1 13.33a36 36 0 0 1-1.69 6.26 7.8 7.8 0 0 1-5.91 4.25 10.84 10.84 0 0 1-5.43-.72 5.33 5.33 0 0 0 1.31-.51c2.1-.86 4.39-2.61 6.15-6.35s.57-8.26.57-8.26a19.54 19.54 0 0 1-2.72 9c-2 3.36-3.49 3.72-5.34 4.67a6.17 6.17 0 0 1-2.63.68 38.26 38.26 0 0 0-4.57-1.19 13.17 13.17 0 0 0 3.36-3.24 9.88 9.88 0 0 0 .81-4.3c0 .61-.45 1.14-1.41 3s-4.1 3-6.53 3.71-7.46.89-9.18 1.17-7.2 1.56-7.2 1.56a10.26 10.26 0 0 0-.93-2.68c-.38-.84-.93-2.19-1.22-3s-2.84-8.12-2.84-8.12c-1-5.72-.76-9.55 1.19-13.84s4.72-6.4 8.34-8.4 5.55-1.93 5.55-1.93zm-29.64 16.08c.83-1.54 2-2.94 2.65-4a48 48 0 0 1 3-3.78 20.76 20.76 0 0 1 10.37-6.37 19.79 19.79 0 0 0-6.48 5.6 6.45 6.45 0 0 0-1.19 4.16 41.15 41.15 0 0 1 3.43-5c1.76-2.1 6.1-4.58 8.49-5.42a8.16 8.16 0 0 1 3.72-.61c-.52.14-4.2 1.31-7.87 5.93a17.17 17.17 0 0 0-3.43 9.43c0 2.57.31 8.59.31 8.59a4.66 4.66 0 0 1-1 2.68 10.17 10.17 0 0 0-1.86 4 17.55 17.55 0 0 0 .07 5.18c.31 1.24-.67 1-1.07.86a9.53 9.53 0 0 1-4.31-3.34c-1.57-2.22-.76-5.49-.55-6.3s.74-1.45.6-1.49-.76.19-1.24 1a11.07 11.07 0 0 0-.69 5.72c.41 1.89 1.53 2.24 1.64 3.67s-.6 1.68-1.69 2.45-4.17 1-5.91.72-1.53-1.12-1.53-1.12l-.07-4a30.74 30.74 0 0 1 .48-5.32c.52-2.85 1-4.58 1.33-6.09a45.88 45.88 0 0 1 2.8-7.15zm-4.36 5.09c.1-.07.38-.21.48 0s0 .4-.45 1.49a62.39 62.39 0 0 0-1.53 7.56c-.1.93-.12 4.65-.12 4.65.14 2 .38 3.67.38 4.65a1.63 1.63 0 0 1-.76 1.4 2.21 2.21 0 0 1-2.38-1.1s-.55 0-.86-2.64a17.07 17.07 0 0 1 .83-6.65 50.35 50.35 0 0 1 2.41-6.16 10.32 10.32 0 0 1 1.99-3.21zm-10.83 17.9c.24-1.07.93-4.34 1.14-4.95a30.76 30.76 0 0 1 2.15-5.46 3.83 3.83 0 0 0 .19-.37c.49-.83 2.65-4 3-4.48s1.31-1.56 1.6-1.47a.4.4 0 0 1 .28.3c-.15.28-2 3.73-2.44 4.63a22.16 22.16 0 0 0-1.38 4.51 31.28 31.28 0 0 1-.6 4.55 6 6 0 0 1-1.26 2.19c-.76.93-1.74 2.31-2.31 3.17a6.12 6.12 0 0 0-.76 1.54 40.11 40.11 0 0 1 .39-4.16zm3.69 29.13s0 .58-.41.63-1.31-1.21-1.31-1.21a25.12 25.12 0 0 1-3-7.68c-1.54-6.21-.88-7.94-.64-9.06a38.29 38.29 0 0 1 2.07-5.49c.45-.84 3.41-4.76 3.41-4.76a.77.77 0 0 1 1-.26 5.36 5.36 0 0 0 1.15 1.47c.57.37.91.54.93 1s-.91 1.69-1.45 2.54a11.13 11.13 0 0 0-2 5.63c.08.73.15.34.41-.28a16 16 0 0 1 3.34-4.88 15.41 15.41 0 0 1 1.69-2.2v.07c0 .57-.33 4.56-.51 5.79a17.78 17.78 0 0 1-1.79 5.6 22.84 22.84 0 0 0-2.5 7c-.15 1.47-.38 6.09-.38 6.09zm4.08 7.64c-2.72-4.81-2.88-7.52-2.88-7.52s.19-4.58.38-5.77a21.52 21.52 0 0 1 2.62-6.28c.29-.51.64-2 1.5-.86s.62 7.33.64 8.45a26.87 26.87 0 0 0 1.14 6.93c.79 2 2.24 5.79 3.12 7.47a74.5 74.5 0 0 0 3.69 6.65c-.67-.18-7.49-4.29-10.21-9.07zm22.17 15.5a26.5 26.5 0 0 1-10.44-7.35 48.51 48.51 0 0 1-5.36-9.92c-1.81-5-1.31-5.42-1.12-5.49s.38-.07.86.82 3.62 7 7.75 10.62 8 7 15.47 9.17l1.35.38c1.14.62 1 1.25 1 2.38a1.28 1.28 0 0 1-1 1.42s-2 .37-8.51-2.06zm-26.82 32.4c.6.2.76 1.94.8 2.79l-1.69-1.17c.06-.52.27-1.82.89-1.62zm-6.15-5c.36-.4.74 0 1.44.33s2.28 1.15 2.55 1.88a12.7 12.7 0 0 1-.16 3.46l-4.49-3.1a9 9 0 0 1 .66-2.61zm-7.64-6a3.1 3.1 0 0 1 3.22 0c1.06.56 2.07 1.93 2.45 4.19a14.31 14.31 0 0 1 .2 3.64l-4.86-3.36a4.15 4.15 0 0 0 .43-2.35c-.29-1-1.54-.71-1.92-.71s-.34-.83.47-1.47zm-2.5 1.41l.69 1.07-3.6-2.54c1.33-1.72 2.91 1.41 2.91 1.41zM118.62 142l53.61 37.82a13 13 0 0 0-1.41 2.14l-51.75-36.25-35.15-24.94s-6.76-4.69-6.82-4.86a1.22 1.22 0 0 1 0-1c.24-.33-.22-1.3-1.28-1.91s-.72-.8-.54-1 .56-.2 1 .09zm80.19 39.89c3.28 2.24 5.43 5.74 5.38 6.71s0 1-.8 1.66-3.75 3.06-5 4.39a50.13 50.13 0 0 1-3.72 3.58c-.82.67-3.43 1.6-6.09 2.89s-5.14 1.6-6.18 1.19-1.25-.86-1-1a11.76 11.76 0 0 0 2.47-.78c1.14-.63 1.71-1.55 1.57-1.79s-.85.41-2.21 1a6.73 6.73 0 0 1-3.59.88 3.19 3.19 0 0 1-2.08-2.29c-.1-.72.8-.69.8-.69 1.49-.16 4.57-1.58 4.9-2.29s-.1-.8-.7-.38a6.72 6.72 0 0 1-3.75 1.19c-2 .09-2.63-.38-3.08-1.41s-.13-1.65.16-1.76a26.78 26.78 0 0 0 3.4-.28c2-.38 2.13-1.21 2.47-1.76s.14-.6-.83.19a5.87 5.87 0 0 1-3.49 1c-1 0-3.08-1.1-1.47-3a6.4 6.4 0 0 1 3.81-2.13c.64-.2 2.88-.66 3.27-.85s0-.35 0-.35l-8.93-6.4a.48.48 0 0 0 0-.1c-.26-.53-.27-1.13.58-1.38s1.22.61 2 1.54a35.48 35.48 0 0 0 4.87 4.17 11.62 11.62 0 0 0 6.22 1c3-.2 5.75-3 6.09-3.39s1.65-1.63 4.94.61zm-4.1-2.95c1.33-1 5.51-4.46 5.51-4.46a7.44 7.44 0 0 1 3 .83c7.37 4.13 6.49 6.65 8.27 10.85.26.61.56 1.35.82 2.1 1 3.51-.36 3.4-.36 3.4l-4 .95c-.85.35-1.37-1.34-1.7-2.38a14.81 14.81 0 0 0-3.11-6.4 13.08 13.08 0 0 0-6.34-4.08c-1.2-.43-3.42.16-2.09-.84zm.07 21.92l4.2 4-1.88.25-.61.13-9.33 1s1.92-3.84 2.11-3.93 4.31-2.29 4.39-2.27.57.4 1.12.79zm-7.73 2.63a10.93 10.93 0 0 1-1 2l-1.27-1.59a4.15 4.15 0 0 0 2.22-.9s.22 0 .05.46zM121 154a49.5 49.5 0 0 1-.17-5.13l49 34.61s-.93 1.18-.81 1.54c.57 1.71 5.77 4.21 5.77 4.21a3.09 3.09 0 0 0-.56 1.32 1 1 0 0 1-.45.66l-18-.52h-2.68s-19.17-.65-21.5-.84-9.06 0-10.44-2.71-.76-15.22-.76-15.22.5-6.44.75-8.68A56.66 56.66 0 0 0 121 154zm11 39l7.9 13.47c-2.42-.21-5.35-.45-6.23-.59-1.48-.23-12.3-.51-13.4-.37a6.67 6.67 0 0 1 2-3.36zm1.58-1.58l19.78.83s-10.87 10.08-11.82 13.49c-.69-.55-6.73-12.1-7.91-14.36zm21.24 1.58l1.68 3.52s3.58 6.86 5.44 9.43a18.59 18.59 0 0 0 2.86 3c-.29 0-1.48-.09-1.48-.09l-10.49-1.26s-8.49-.7-9.44-.89l-.72-.09c.61-.7 8.56-10.62 12.15-13.62zm6.27 7.91c-.34-.47-2-3-3.31-5.36-1-1.8-1.89-3.37-1.89-3.37.24 0 17.2.37 17.75.54s.3.61-.16 1.29-4.43 7.85-4.43 7.85c-.9 1.46-1.91 3.13-2.43 4.05-1 1.87-1.38 1.35-1.38 1.35a60.33 60.33 0 0 1-4.15-6.33zm5.33 7.8a78.19 78.19 0 0 0 4.35-6.5c.38-.49 3.74-7.26 4-7.13a18.92 18.92 0 0 1 1.47 2.6c.26.36 0 1.8.83 2.7a7.76 7.76 0 0 0 1.79 1.35c.38.27.08.72.87 1.13a6 6 0 0 0 2.47.85h.24l2.19 2.75s-5 .51-6.58.79-10.2 1.59-10.2 1.59-1.95.22-1.43-.11zm14.36-22.92c-.3.06-3.22.47-3.65.56 0 0-1.85 1.63-2.23 1.44-1.33-.81-2.51-1.5-4-2.52-.14-.1.09-.42.36-.82.75-1.1 2.23-3.22 2.51-3.59zM91 128.58c-.27.38-5.13 7.23-6.66 7.88a6.86 6.86 0 0 1-4.45.28 5.45 5.45 0 0 1-2.4-2.7 1.67 1.67 0 0 1 .27-1.26l3.92-5 .22-.22 3.56-3.89s5.08 3.47 5.41 3.83a.82.82 0 0 1 .13 1.08zm-29.25-30c.21-.35.58-.58 1.63-.44s3.62 2.93 4.75 3.86 2 .75 3.91 1.82a24.2 24.2 0 0 1 5.83 4.18c1.15 1.36 3.36 4.31 4.13 5 .55.51 2.52 2.68 3.58 3.85l-11.69-8.25-12-8.45a2.57 2.57 0 0 1-.11-1.59zm-26.2-7.51a7.3 7.3 0 0 1 .16-1.93s.17-.58.47-.45c.1 0 .6.41 1.23.88-.41.3-1.69 1.58-1.82 1.48zM40 90c-.7-.45-3.37-2.36-3.37-2.36a.38.38 0 0 1-.08-.44c.47-.55 1.62-1.91 1.92-2.22a.55.55 0 0 1 .72-.16s3.31 2.18 3.62 2.42.31.5.18.62-1.92 2.36-1.92 2.36-.38.25-1.07-.22zm18.9 13.07L41.83 91.13a.57.57 0 0 1 .1-.55c.23-.28 1.35-1.42 1.35-1.42a.37.37 0 0 1 .28-.12l26.65 18.73c-.57-.12-1.09-.23-1.48-.29-1.5-.25-3.23.12-4.37-.42a63.43 63.43 0 0 1-5.46-3.99zm1.1 4.5c1.33.11 4 .69 6.44 1.06s4.91.38 5.53.52a2.5 2.5 0 0 1 1.14.8s1.07.55.42 1.44a4.78 4.78 0 0 1-3.87 1.61c-1.92.09-7-.28-8.59-1.38a3.1 3.1 0 0 0-1.32-.54 1.75 1.75 0 0 1-1-1c-.24-.92-.13-2.62 1.25-2.51zm-2.05 5.8s.38-1.07 1.35-.91 2 1.22 5.61 1.44a43 43 0 0 0 8-.6c.85 0 2.85-.06 3.08 1.51a2.29 2.29 0 0 1-1.83 2.82 17.21 17.21 0 0 1-6.25 1.07h-.11c-.62 0-5.28-.08-8.16-2l-.33-.21a3.24 3.24 0 0 1-1.4-3.12zm2.82 8.25s-2.35-2.34-.8-2.79a3.5 3.5 0 0 1 2.18.47 10.68 10.68 0 0 0 3.88.88 14.28 14.28 0 0 0 5.57-.47s2.13-1.13 2.63-1 1.2.27.13 1.51a6.87 6.87 0 0 1-3.14 2.2 14.21 14.21 0 0 1-5.13.94 8.7 8.7 0 0 1-5.36-1.74zm9.87 4c-1.09.83-3.75.75-4.26.72a6.46 6.46 0 0 1-3-.91c-1.11-.83-.61-1.38.22-1.35a21.23 21.23 0 0 0 7.85-.35 1.69 1.69 0 0 1-.86 1.87zm2.79 2.29c-1-.16-2.16-.63-2-1.07s.82-.63 1.38-1.57a1.44 1.44 0 0 0-.06-1.66l-.35-.14c3.49-1.08 3.82-3 3.85-3.75s-.27-1.87.16-2.2 6.22 4 7.08 4.8a.9.9 0 0 1 .22 1.07l-2.88 2.76c-.34.39-1 1.65-2.18 1.95a19.88 19.88 0 0 1-5.27-.21zm2.31 14.24c-1.2 0-2.31-.39-2.63-1.6s1.15-3.28 2.15-4.49c.14-.17.44-.39.77-.71s.48-.17.48-.17a11.93 11.93 0 0 1 2 2.67 3.15 3.15 0 0 1-.61 3.07 4.11 4.11 0 0 1-2.21 1.22zm11.73 11.8c-3-.31-4.1-2-5.13-3.26s-.19-2.07-.19-2.07a8.19 8.19 0 0 0 3.08-1.82c.35-.83-.18-.36-.45-.16a4.33 4.33 0 0 1-3.4.44 9.48 9.48 0 0 1-2.79-1.57c-.53-.41-1.89-1.36-1.92-2 0-.46.45-.85.76-1.05a.88.88 0 0 0 .24-.14c.67-.56 4.61-2.67 6.66-4.14a48.54 48.54 0 0 0 7.3-8c1-1.47 1.28-1.32 1.28-1.32s6 4.27 6.47 4.83 3.75 1.79 3.46 2.51-2.31 5-3.08 6.21a86.46 86.46 0 0 1-5.9 8.41c-2.09 2.36-3.47 3.43-6.45 3.11zm31.41 10.49c-.14.25-1.39 3.85-10.12 3.68a28.9 28.9 0 0 1-3-.21c-10.13-4.76-14.54-10.72-15-11.35s-.69-1.36-.22-1.51a9.31 9.31 0 0 0 2.69-1.44 40.14 40.14 0 0 0 6.31-6.4c2.58-3.33 4.37-8.58 4.81-9.38s.77-.38.77-.38l2.31 1.76c.55 1.18-.11 3.73-.24 4.13a7.9 7.9 0 0 1-.76 1.67c-.88 1.73.32.47.32.47a7.43 7.43 0 0 0 2.31-5.4s4.42 3 4.87 3.77a2.64 2.64 0 0 1 .35 1.54 1.94 1.94 0 0 0 .32-1.22s3.93 3.17 4.67 3.59c.15 2.42.25 5.1.29 7.34a46.29 46.29 0 0 1-.73 9.33zm.82 38.52s.33-5.32.57-6.72.24-6 .24-6 .1-.84 1.62-.65 8.63 1.35 8.63 1.35c-1.38.56-11.11 12-11.11 12zm.1 66.06l3.87 1.48s1.35.64 2.86 1.31l-4.29.13a12 12 0 0 0-2.51-3zm15.49-2.1c-2.77.61-10.58.61-10.58.61v-.07a25 25 0 0 1-1-5.34s5.36 4.36 14.54 4.14zm9-1h.09c-.19 2.66-2.1 5.18-6.58 6s-9.82-1.59-9.82-1.59a6.55 6.55 0 0 0-1.23-1 99.91 99.91 0 0 0 10.47-.68 13.66 13.66 0 0 0 7.04-2.72zm-21.08-7.71l-.29-4.76s3.53 6.44 17.35 6.49h.27a26.26 26.26 0 0 1-9.19.87 17.17 17.17 0 0 1-8.17-2.59zm-16.29 8.91h.59c1.19.71 2.86 3.13 3.45 4.2s.57 1.87-.14 2.38-6.05.47-7.49 0-1-1.35-1-1.35a9.84 9.84 0 0 1 2-2.85c1.15-1.03 1.67-1.96 2.56-2.37zM96 271.79a5.59 5.59 0 0 0 3.54 2.68 6.79 6.79 0 0 0-.31 1.17 27.75 27.75 0 0 0-.32 4.58.88.88 0 0 1-1.16.32 6.43 6.43 0 0 1-2.53-2.38 7.11 7.11 0 0 1-.68-2.44 12 12 0 0 1 1.46-3.93zm1 12.06a7.61 7.61 0 0 1-2.38-3.48 6.31 6.31 0 0 0 4.45 2.63 8 8 0 0 0 .67 2.47 10.49 10.49 0 0 1-2.74-1.62zm.89-14.37l.3-.24a12.6 12.6 0 0 1 6.08-2 31.53 31.53 0 0 0-3.85 5.21c-2.49-.59-2.56-2.45-2.52-2.96zm3.4 11a13.57 13.57 0 0 1-.42-3.68 1.51 1.51 0 0 1 1.28-1.46s3.72.65 5.2.7c.94 0 2.9-.09 4.5-.21a20 20 0 0 1 .6 4.78v.17a1.94 1.94 0 0 1-1.76 1c-1.69.11-8.11.35-9.39-1.33zm11.11 6.68c-.24.51-.43.75-1.53.79h-.15a42.34 42.34 0 0 1-7.78-1.39 15.38 15.38 0 0 1-1.27-3.49s6.88.71 10.79.84a16.2 16.2 0 0 1-.06 3.21zm.76-15.17c-.7-1.62-1.79-3.71-2.26-4.58 2 .23 3.75.53 5.2.81a10.28 10.28 0 0 1 4 3.3c.62.75 0 1 0 1s-2.29.33-3.15.33-2.88 1.2-3.78-.9zm1.05 3.66c1.17-.2 3.3-1.09 4.86-1.13h2.31a1.49 1.49 0 0 1 .36.35 9.77 9.77 0 0 1 1.67 4.86s-.1 1.26-3 1.77-5 .65-5.72.09c0-1.1 0-2-.08-2.42a19.19 19.19 0 0 0-.39-3.56zm9 9.42a4.45 4.45 0 0 1-1.58 1.82 60.74 60.74 0 0 1-6.82 1.12h-.13c0-.77.05-2.42.07-4.1 2.85-.16 6.56-.55 8.81-.82a3.53 3.53 0 0 1-.38 1.91zm8.3-1.17a2.62 2.62 0 0 1-.56 1.4l-1.49.14c-1.43.16-2.9.43-4.4.73a4.58 4.58 0 0 0 1-3.54 25.37 25.37 0 0 1 5.1-1.11h.44a8.52 8.52 0 0 1-.13 2.33zm.33-4.72c0 .14-.35 1.15-2.62 1.11-2.43 0-3.38-.09-4-.65a7.82 7.82 0 0 0-.48-3.22 16.15 16.15 0 0 0-1.06-2 3 3 0 0 0 .39-.11 37.79 37.79 0 0 1 5.86-.61c1 .51 1.67 2.52 2 3.83s-.12 1.61-.12 1.61zm2.09-5.53a26.69 26.69 0 0 1 2.68.07 4.24 4.24 0 0 0 1 0h.08l.3.2a24.79 24.79 0 0 1 2.05 3.64 1.24 1.24 0 0 1-.72 1.34 15 15 0 0 1-3.09.43 7.23 7.23 0 0 1-2.22-.38 17.06 17.06 0 0 0-.79-4.94 1.11 1.11 0 0 0 .68-.4zm5.87 10.16a2.13 2.13 0 0 1-2.05 1.21c-1.24 0-2.73 0-4.26.12a17.39 17.39 0 0 0 .37-3.74c2.1-.07 4.57-.12 6.29-.24a7.09 7.09 0 0 1-.38 2.6zm5-1.54c-1 2.38-2.45 2.71-3.39 2.75a12.08 12.08 0 0 0 1-4.11 9.5 9.5 0 0 0 3.06-.75 11.8 11.8 0 0 1-.74 2.06zm.77-6.35c-.18.61-.77 1.38-2.44 1.92l-1.07.33c-.41-2.07-1.21-4.19-2.15-4.94a8.65 8.65 0 0 0 2.5-1.13c1.14-.89 1.33-1 2.43 1.26a8.7 8.7 0 0 1 .66 2.51zm-.3-11.62c-.52.42-6.67.51-11.2-.23a22 22 0 0 1-7.87-2.44 55 55 0 0 0 15.21 0c3.21-.49 4.61-1.33 5.11-1.72s-.79 3.92-1.32 4.34zm2-7.42c-.14.75-.14 1.91-3.48 1.82s-11.16 0-15.54-2.57-4.2-4-4.2-4 0-.28.34-.21a14 14 0 0 0 3.24 1.61c3.92 1.46 13.4 3.19 19.25 2.7s.47-.15.33.59zm9.92-27.13a107.8 107.8 0 0 0-4 11.81c-.57 2.85-1.43 7.89-3.19 9.66s-2.15 1.87-3.53 2.15c0 0-2.24 1-3.58.19s-.43-1.49-.14-2.33 2.62-3.45 2.57-8.54a3.1 3.1 0 0 0-.38-1.68s-1.43 9-6.2 11.58-10.49-1.12-11.63-2.15-2.43-7.38-1.81-9.34a5 5 0 0 0-.81 3.92s.76 2.24 0 2.57-2.19-.33-3.34-4.06-.81-10.36-.14-13.45a9.47 9.47 0 0 0 1.72 1c1.29.65-1.62-4.11-1.57-7.84s.33-11.67.81-13.12.9-2.34 2.28-2.77l3.88-.17c1.72-.09 10.63.33 14.64.79l1.2.16a18.87 18.87 0 0 1 12.06 9.18c4.05 7.69 1.9 10.33 1.09 12.39zm13.49 24.24c6.86 4.7 16.83 3.82 16.83 3.82-5.94 1.72-14.89.71-17 .44a22.94 22.94 0 0 1 .11-4.32zm24.69-.8c0 .1 0 .46.08 1-1.47 2.49-6.28 2.45-6.28 2.45-10.94-.16-16.63-3.37-18-4.23l.23-.32a14.48 14.48 0 0 0 3.13 1.14c3.53.79 13.11.33 17.69-1.26.91-.32 1.71-.62 2.41-.9.87.4.64 1.73.68 2.06zm-24.55 8.12l-.06-.38c.92.88 2.9 1.94 8.59 2.76s13.25-.89 12.82-.51-2.1 1.59-7 2.47c-4.68.85-12.82 0-13.41 0a31.14 31.14 0 0 1-1-4.39zm6.18 16.2c1.69-.34 4.06-.76 6.8-1.06a8.3 8.3 0 0 1 1.73 3v.16c-1.28.06-3.15.15-4.95.26a32.89 32.89 0 0 0-5.38.87l.08-.31a8.37 8.37 0 0 1 1.72-2.92zm.19-5.77c1-.16 2.33-.3 4.11-.45a12.1 12.1 0 0 0 .79 3.31 52.8 52.8 0 0 0-5.43 1.1 12.55 12.55 0 0 1 .5-3.96zm8.19 2.45l-1.24.14-.14-.14a12.69 12.69 0 0 0-.79-3l1.08-.08a29.78 29.78 0 0 1 3.49-.06c.38.54 1.35 1.95 1.87 2.9-1.27-.01-2.65.05-4.3.24zm-2.38-5.14c-4.67.14-9.58.84-9.58.84s-.4-.77-.9-2.08c1 .2 3.11.6 4.86.77 2.38.23 6.91-.19 9.11 0 2 .17 5.41.81 6 .92l-.11.3a49.44 49.44 0 0 0-9.38-.75zm4.43-2.19a14.73 14.73 0 0 0 6.61-2.54c-.28 1.16-.64 2.35-1 3.32-.98-.48-5.59-.78-5.59-.78zm-16.5 8.82c.2-1.52 2.81-2.9 3.68-3.32l.63-.21a7.2 7.2 0 0 0-.4 3l.12 1a22.55 22.55 0 0 0-2.68 1c-.64.07-1.55.21-1.33-1.47zm-1.33 4.48a13.57 13.57 0 0 1 4.86-2l-.09-.07h.14v.11a5.32 5.32 0 0 0-1.61 3.2l-1.49.44a8.67 8.67 0 0 1-3.69.39 7.66 7.66 0 0 1 1.89-2.06zm-2.34 5.23v-.41c1.11-1 4.75-1.42 5.48-1.5.09 1.5.24 3.31.52 5a13.21 13.21 0 0 1-3.34-.27c-1.12-.39-2.06-.17-2.77-2a5.12 5.12 0 0 0 .13-.81zm.24 4.06c-.06-.11-.12-.21-.17-.31a11.05 11.05 0 0 0 3.89.92c.85.09 1.64.22 2.42.36a8.28 8.28 0 0 0 1.32 3.25c-4.68-.76-6.71-2.99-7.44-4.21zm18.74 2.43a2.43 2.43 0 0 1-1.53 1.64c-1.19.13-2.72.25-4.71.37h-.16a7.47 7.47 0 0 1-3.23-2.95l-.1-.15a16.22 16.22 0 0 0 3.05-.08c3-.36 5.59-.71 6.7-.81.23.31.19.87-.01 1.99zm.29-4.81c-.24 1.26-1.14.79-1.67.84s-5.82.93-7.39.89a12.06 12.06 0 0 1-2-.22 13.23 13.23 0 0 1-.62-5.57c1.12-1 9.29-2 10.43-1.39a1.83 1.83 0 0 1 1 1.3v.05c-.03.79.5 2.85.26 4.11zm.91-7.89a2.41 2.41 0 0 0-.48-1.77 10.18 10.18 0 0 0-1-1.17c.72-.06 1.46-.1 2.21-.13 1.42-.06 2.67-.07 3.78 0a5.87 5.87 0 0 1 2.3 3.06c-1.51.05-3.16.15-3.56.15s-2.37.16-3.21.24c0-.24-.03-.37-.03-.37zm6.56 13.26c-1.54.14-3.13.24-3.89.24a9.38 9.38 0 0 0-2 .35 5.77 5.77 0 0 0 .07-3.22c2.1-.13 5.86-.41 6.71-.58.35-.07 1-.16 1.67-.26-.11 1.39-1.71 2.79-2.56 3.47zm2.6-5.74a13.91 13.91 0 0 1-5.24.73 12.76 12.76 0 0 0-3.34.14s-.15-3.44-.21-5.35c1.06-1.93 4.78-1.84 5.69-1.75s2.15.19 2.67 1.77a16.66 16.66 0 0 1 .38 4.46zm6.34 2.85c-1.19 2-4.1 2.1-5.39 2.43a27.5 27.5 0 0 0 .71-3.23c1.2-.14 2.38-.25 3-.27a7 7 0 0 0 2.57-.68 10.19 10.19 0 0 1-.94 1.75zm1.38-6.12v.41A3.08 3.08 0 0 1 202 286a20.06 20.06 0 0 1-3.63.4 32.34 32.34 0 0 0-.76-5.16l2.77.19a11 11 0 0 1 3.83 1.15c.01.23.04.53.06.85zm-1-4c-1.63-.44-5.5-.17-6.56-.3a12.19 12.19 0 0 0-1.35-2.82 14 14 0 0 1 3.36.72l-.11-.15c3.15 1.02 4.05 1.77 4.64 2.56zm-6.71-4.92a18.12 18.12 0 0 0-4.76-.61c-.25-.64-.77-1.91-1.1-2.59a13.39 13.39 0 0 1 4 1.2 3.69 3.69 0 0 1 1.84 2zm-1-15.35l.11-.62s-.72 2.94-7.49 3.6a36.21 36.21 0 0 1-13.23-1.49s2.72.23 8.06.14 10.44-3.22 11.63-3.6a.87.87 0 0 1 .92.15c0 .55.07 1 .08 1.2a1.63 1.63 0 0 1-.1.63zm4.47-31.16a33.31 33.31 0 0 1 .38 13.07c-.86 3.6-2.19 5.93-5.05 6.86 0 0 2.62-7 1-11.58a51.42 51.42 0 0 1-1.24 5.18c-.72 2.29-2.24 8.5-6.44 9.29s-8.3 1-10.87.42-4.24-4.48-4.53-5.32-.72-.19-.48.84a19.12 19.12 0 0 0 1.15 3.34c.29.51-.19.84-1 .47s-1.62-.42-3.72-2.89l-.2-.22a22.35 22.35 0 0 1-4.38-8.46c-1.43-5.28-2.34-12.42-4.53-17.23s-4.48-8.54-5.53-9.57c0 0-1.34-1.25.23-2a.28.28 0 0 0 .2 0 39.18 39.18 0 0 1 4.05-.14c.52 0 4.72.09 4.72.09s6.82-.19 8.58-.09 4.43-.65 5.48-.7S186 208 186 208s8.82-1.68 11.73-1.4c2.73.26 3.36 1.06 3.51 2.4l.1 1.87s0 5.43-1.14 8.31a15.74 15.74 0 0 1-2.67 4.58 8.81 8.81 0 0 1 2.55 4.24zm4.76-24c-.39.09-1.38.24-2.53.4a5.44 5.44 0 0 1-1.1-.16c-.59-.16-5.75-5.06-5.75-5.06s4.37-2.74 5.47-4.49a2.59 2.59 0 0 0 .19-.34 5.49 5.49 0 0 1 1.83-1.29.79.79 0 0 1 1 .28c.21.25 3.91 5.07 3.95 5.11a23.21 23.21 0 0 1 .46 3c-.25 1.4-2.36 2.3-3.52 2.55zm8.71-4.42a12.83 12.83 0 0 1-4.7-2.67s-1.16-1.23-.52-2 3.69-1.41 4.6-1.24a1.24 1.24 0 0 1 1 1c.6 2.28 1 4 1 4-.1 1.47-1.38.91-1.38.91zm17-16a.63.63 0 0 0-.06.3c0 1.19-2.29 5.46-3.58 5.53s-3.08-8.61-4.72-11.35-1.93-2-1.93-2 2.43 6.44 2.57 6.93 2.43 5.67 1.64 9.38-4.22 6.72-6 7.14c-1 .22-1.28-.21-1.37-.67 0-.14-.32-2.9-.49-3.89-.5-2.94-3.93-13.1-8.15-18.21a11.21 11.21 0 0 0-8.22-3.91c-3.1.49-4.22-.79-3.36-1.84a6.22 6.22 0 0 1 3.49-1.88A21.46 21.46 0 0 0 204 168c1.59-.68 2.53-2.34 3-2.41s2.07-1.4 9.8.7a20.79 20.79 0 0 1 11.32 7.94.55.55 0 0 0 .12.18c.5.49 1 1.54 2 4.06a10 10 0 0 1 .32 5.13zm3.87-15.95c-.36 3.57-1.64 7.14-2 8.89s-.79 2.31-1.64.14a13.68 13.68 0 0 0-.75-1.57 22.89 22.89 0 0 0-6.76-8.09 17.38 17.38 0 0 0-12.16-3.36c-1.43.07-5.22 1.12-5.22-.21s2.57-2.94 4.15-3.43 4.29-.35 5.86-.35 4.79-.35 4.79-.91-2.43-.84-4.15-.91-5.86.07-6.08-.56.29-1.05 1.79-1.75 6.29-1.33 9.3-1.82 1.14-.7 1.14-.7c-1.93-.56-7.79.28-12 1.19s-4.08 3.15-6.08 3.71-3.08-2-3.08-2-6.15-11.07-7.79-14.22a9.88 9.88 0 0 1-.79-6.44s-1 1.4-2.22 1.12-1.79-2.52-1.79-2.52a23.72 23.72 0 0 0 1.72 5.88c.64 1.54 4.36 6.72 4.79 8.61a35.17 35.17 0 0 0 4.58 7.84c1.86 2 3.5 7.35 3.29 9.24-.14 1.19-1.52 2-3.23 2.69-3.95.72-4.8 2.58-5.06 3.47a15.46 15.46 0 0 0 .13 3.58 1.32 1.32 0 0 1-.58 1.07c-.43.38-3.11 3.06-3.24 3.92s.46 1.07.22 1.54-2.05 1.43-4 1.73a10.74 10.74 0 0 1-6.63-1.29 28.31 28.31 0 0 1-4.13-4.2c-.37-.39-1.27-1.87-2.79-1.47a1.79 1.79 0 0 0-1.29 2l-51.7-37c.32-2.75 1-6.17 1.17-7 .29-1.12.29-9.63.29-10.4s-.25-.42-.25-.42-1.39 4.1-1.22 6.41-.36 5-1.5 4.83-1.5-2.94-1.5-2.94a12.37 12.37 0 0 0-.54 3.61 13.37 13.37 0 0 0 .38 3.81l-4.9-3.38a10.72 10.72 0 0 1-1.8-7.06c.1-1.66 1.78-3.61 2.81-4.41a51.21 51.21 0 0 0 4.65-4.72c.57-.63 4.26-6 6.94-9.8s9.84-6.26 9.84-6.26 6.58-1.54 10.54-1.12c0 0-4.58 11.09-5.94 17.46a71.22 71.22 0 0 0-1.43 12.4s.29 2.52 5.36 4 11.23.42 11.23.42 1.22-.14 1.36-2.87 2.29-18.35 4.51-22.27a15.38 15.38 0 0 1 8.6-7.26 4.75 4.75 0 0 0 .53-.14c1.67-.56 5.53-1.54 7-2.19s1.57-1.86 3.59-.86a3.82 3.82 0 0 1 .46.53l9.1 5.92a18.39 18.39 0 0 0-6 2.37 27.91 27.91 0 0 1 7.86-.94 30.27 30.27 0 0 1 5.79 1.26c5.07 2.34 6.47 2.63 10.48 7a58.35 58.35 0 0 1 7.22 10.36c1 1.61 8.58 11.07 10.3 13.59s4.22 4.13 6.51 10.64a36.28 36.28 0 0 1 1.97 15.63z"/></g></g></svg>