<svg xmlns="http://www.w3.org/2000/svg" width="70" height="70" viewBox="0 0 70 70"><title>домашний-мастер</title><g data-name="Слой 2"><g data-name="Слой 1"><path fill="none" d="M0 0h70v70H0z"/><path d="M44.08 26.85a6.79 6.79 0 1 1 6.79-6.79 6.79 6.79 0 0 1-6.79 6.79zm0-12.22a5.43 5.43 0 1 0 5.43 5.43 5.44 5.44 0 0 0-5.43-5.42z" fill="#fd8204"/><path d="M44.08 13.66a6.41 6.41 0 1 1-6.41 6.41 6.42 6.42 0 0 1 6.41-6.41m0 12.22a5.81 5.81 0 1 0-5.81-5.81 5.81 5.81 0 0 0 5.81 5.81m0-13a7.16 7.16 0 1 0 7.16 7.16 7.16 7.16 0 0 0-7.16-7.16zm0 12.22a5.06 5.06 0 1 1 5.06-5.06 5.06 5.06 0 0 1-5.06 5.06z" fill="#692f17"/><rect x="22.52" y="20.64" width="43.12" height="31.36" rx="3.56" ry="3.56" fill="#fd8204" stroke="#692f17" stroke-linejoin="round" stroke-width="1.5"/><path d="M65.64 28.7v-4.51a3.56 3.56 0 0 0-3.56-3.56h-36a3.56 3.56 0 0 0-3.56 3.56v4.51" fill="#f7e8d2" stroke="#692f17" stroke-linejoin="round" stroke-width="1.5"/><path fill="#dfdbd1" stroke="#692f17" stroke-linejoin="round" stroke-width=".75" d="M22.52 28.7h43.12"/><rect x="37.72" y="26.98" width="12.72" height="3.44" rx=".78" ry=".78" fill="#f8f3ee"/><path d="M49.66 27.35a.4.4 0 0 1 .4.4v1.88a.4.4 0 0 1-.4.4H38.5a.4.4 0 0 1-.4-.4v-1.87a.4.4 0 0 1 .4-.4h11.16m0-.75H38.5a1.15 1.15 0 0 0-1.15 1.15v1.88a1.15 1.15 0 0 0 1.15 1.16h11.16a1.15 1.15 0 0 0 1.15-1.15v-1.89a1.15 1.15 0 0 0-1.15-1.15z" fill="#692f17"/><path d="M36.81 50.48a5.24 5.24 0 1 1 5.24-5.24 5.25 5.25 0 0 1-5.24 5.24zm0-8a2.8 2.8 0 1 0 2.8 2.8 2.81 2.81 0 0 0-2.8-2.85zM2.07 38.51A.91.91 0 0 1 3 37.6h24.24a.91.91 0 0 1 .91.91.91.91 0 0 1-.91.91H3a.91.91 0 0 1-.91-.91z" fill="#dfdbd1" stroke="#692f17" stroke-linejoin="round" stroke-width=".75"/><path d="M44.22 36.2a2.76 2.76 0 0 0-.22-1.08 4.15 4.15 0 0 0-4-2.95H21.86a6.34 6.34 0 0 0 0 12.67H37l1.41 8a2.76 2.76 0 0 0 2.76 2.76h3.25a2.76 2.76 0 0 0 2.76-2.76z" fill="#dfdbd1" stroke="#692f17" stroke-linejoin="round" stroke-width="1.5"/><path d="M16.94 34.66a4 4 0 1 0 0 7.71z" fill="#fd8204" stroke="#692f17" stroke-linejoin="round" stroke-width=".75"/></g></g></svg>