<svg xmlns="http://www.w3.org/2000/svg" width="116" height="116" viewBox="0 0 116 116"><title>домашний мастер</title><g data-name="Слой 2"><g data-name="Слой 1"><path fill="none" d="M0 0h116v116H0z"/><path d="M84.93 34.38a11.92 11.92 0 1 0-23.83 0m4.45.09a7.63 7.63 0 1 1 15.26 0" fill="none" stroke="#353535" stroke-linejoin="round" stroke-width="2"/><path d="M62.85 87.52h-19.8a5.92 5.92 0 0 1-5.92-5.92v-5.54M37.13 54.94V41.25a5.92 5.92 0 0 1 5.92-5.92H103a5.91 5.91 0 0 1 5.91 5.92V81.6a5.91 5.91 0 0 1-5.91 5.92H77.13" fill="none" stroke="#353535" stroke-linejoin="round" stroke-width="2.5"/><path d="M108.89 48.75v-7.5a5.91 5.91 0 0 0-5.89-5.92H43.05a5.92 5.92 0 0 0-5.92 5.92v7.5" fill="none" stroke="#353535" stroke-linejoin="round" stroke-width="2.5"/><path fill="#fff" stroke="#353535" stroke-linejoin="round" stroke-width="2" d="M83.79 48.75h25.1M37.13 48.75h25.23"/><path d="M82.22 47.26v3H63.81v-3h18.41m.08-2H63.73a1.92 1.92 0 0 0-1.92 1.92v3.13a1.91 1.91 0 0 0 1.92 1.92H82.3a1.91 1.91 0 0 0 1.92-1.92v-3.13a1.92 1.92 0 0 0-1.92-1.92z" fill="#353535"/><path d="M63.31 84.48a8.73 8.73 0 0 1-11.89-8.13m4 0a4.66 4.66 0 0 0 7 4M19.51 66.6H4.63a1.52 1.52 0 0 1-1.52-1.52 1.52 1.52 0 0 1 1.52-1.52h14.7" fill="none" stroke="#ff5a19" stroke-linejoin="round" stroke-width="2"/><path d="M73.24 61.23a4.66 4.66 0 0 0-.36-1.8 6.91 6.91 0 0 0-6.6-4.9H36.05a10.55 10.55 0 1 0 0 21.09h25.12l2.34 13.32a4.6 4.6 0 0 0 4.6 4.6h5.4a4.6 4.6 0 0 0 4.6-4.6z" fill="none" stroke="#ff5a19" stroke-linejoin="round" stroke-width="2.5"/><path d="M27.85 58.67a6.44 6.44 0 0 0-1.65-.22 6.63 6.63 0 0 0 0 13.25 6.91 6.91 0 0 0 1.65-.21" fill="none" stroke="#ff5a19" stroke-linejoin="round" stroke-width="2"/></g></g></svg>