<svg xmlns="http://www.w3.org/2000/svg" width="116" height="116" viewBox="0 0 116 116"><path fill="none" stroke="#263239" stroke-linejoin="round" stroke-width="2.5" d="M58.52 53.56V25.37M72 51.19l3-10.58 1.85 3 10.35-6.35s-6.86-14.15-10.53-17.82C75.27 18 71 17.12 65.85 16.67v.41a7.87 7.87 0 0 1-15.74 0v-.37c-5 .46-9.06 1.37-10.45 2.73-3.78 3.67-10.85 17.78-10.85 17.78l10.61 6.35 2-3 3.11 10.58s-8 8.66-8 23.21c0 11.34 4.15 24.93 4.15 24.93h35s4.59-13.59 4.59-24.93A35.25 35.25 0 0 0 72 51.19z"/><path d="M46 17.6a7.23 7.23 0 0 0 6.47 10.48c2.57 0 4.82-.69 6.1-2.71 1.29 2 3.54 2.71 6.1 2.71a7.24 7.24 0 0 0 6.61-10.19" fill="none" stroke="#263239" stroke-linecap="round" stroke-linejoin="round" stroke-width="2"/><path d="M58.23 53.6a41.48 41.48 0 0 1-13.86-2.22 16.58 16.58 0 1 0 27.72 0 39.28 39.28 0 0 1-13.86 2.22z" fill="none" stroke="#ff5a19" stroke-linejoin="round" stroke-width="2.5"/><path d="M87.15 37.22s-6.7-13.86-10.38-17.68c.38 2.74.34 8.81-2 20.86l2 3.17zM41.66 40.34C39.35 28.75 39 22.72 39.21 20c-3.87 4.31-10.36 17.26-10.36 17.26l10.61 6.35z" fill="none" stroke="#263239" stroke-linejoin="round" stroke-width="2"/></svg>