<svg xmlns="http://www.w3.org/2000/svg" width="100" height="100" viewBox="0 0 100 100"><g data-name="Слой 1"><path fill="none" d="M0 0h100v100H0z"/><path d="M66.16 67.1v17.81a3.1 3.1 0 0 1-3.1 3.1H15.67a3.1 3.1 0 0 1-3.1-3.1V24.33a3.1 3.1 0 0 1 3.1-3.1h6.7M56.36 21.23h6.7a3.1 3.1 0 0 1 3.1 3.1v20.14" fill="none" stroke="#fd8204" stroke-miterlimit="10" stroke-width="2"/><path fill="none" stroke="#fd8204" stroke-linecap="round" stroke-miterlimit="10" d="M59.47 71.88v8.75h-41.3V30.86h41.3v20.17"/><path fill="none" stroke="#fd8204" stroke-linecap="round" stroke-miterlimit="10" stroke-width="2" d="M25.56 39.88h26.79M25.56 47.25h26.79M25.56 54.62h13.26"/><path d="M33.4 16.55v-1.46A3.1 3.1 0 0 1 36.5 12h5.73a3.1 3.1 0 0 1 3.1 3.1v1.46" fill="none" stroke="#fd8204" stroke-miterlimit="10" stroke-width="2"/><path d="M56.36 21.75v-2.1a3.1 3.1 0 0 0-3.1-3.1H25.47a3.1 3.1 0 0 0-3.1 3.1v2.1z" fill="none" stroke="#fd8204" stroke-linecap="round" stroke-miterlimit="10"/><path d="M74.27 38.18l9.32 9.32L81 50.14l-1.74 1.74-19.36 19.3-9.32-9.32 20.64-20.63.58-.59 2.47-2.47m0-2.28a1.32 1.32 0 0 0-.94.39l-3.53 3.54-22 22L59.9 74l22.47-22.45 3.12-3.11a1.33 1.33 0 0 0 0-1.88L75.21 36.29a1.33 1.33 0 0 0-.94-.39z" fill="#fd8204"/><path d="M83.65 48.72L87 45.36a1.43 1.43 0 0 0 0-2l-8.42-8.42a1.43 1.43 0 0 0-2 0l-3.81 3.81" fill="none" stroke="#fd8204" stroke-miterlimit="10"/><path fill="none" stroke="#fd8204" stroke-linecap="round" stroke-linejoin="round" d="M48.28 62.09l-4.17 15.57 15.57-4.17M45.84 71.21l4.5 4.5"/><path fill="none" stroke="#fd8204" stroke-miterlimit="10" d="M52.52 65.27l24.57-24.58M56.44 69.19l24.57-24.57"/><path fill="#fd8204" d="M45.86 71.13l4.75 4.75-6.5 1.78 1.75-6.53z"/></g></svg>