<svg xmlns="http://www.w3.org/2000/svg" width="80" height="80" viewBox="0 0 80 80"><title>убедительная просьба</title><g id="Слой_2" data-name="Слой 2"><g id="Слой_1-2" data-name="Слой 1"><rect width="80" height="80" fill="none"/><path d="M30.87,53.88a29.31,29.31,0,0,1-9.48-3.68,56.33,56.33,0,0,1-.93-10.29s-2.9-26.82,18.86-26.56C61.5,13.61,59.63,40,59.63,40A62.82,62.82,0,0,1,58.8,50.8c-2.65,1.72-5.45,2.41-9.54,3.22" fill="#dbc19f" stroke="#692f17" stroke-linejoin="round" stroke-width="1.5"/><path d="M36.26,52.5c-7.72,1.05-13.51,5.4-13.51,10.61,0,.17,0,.34,0,.51a48,48,0,0,0,17.09,3,48,48,0,0,0,17.09-3c0-.17,0-.34,0-.51,0-5.21-5.78-9.56-13.51-10.61" fill="#f5f4f0" stroke="#692f17" stroke-miterlimit="10" stroke-width="1.5"/><path d="M36.26,51v1.45c0,1.35,1.62,2.45,3.62,2.45s3.63-1.1,3.63-2.45V51" fill="#f7e8d2" stroke="#692f17" stroke-miterlimit="10"/><path d="M54.5,37.44a88.68,88.68,0,0,0,.29-9.26c-5.09,1.56-6.88-3.64-6.88-3.64S45,29.14,40.1,30.29a27.68,27.68,0,0,1-15.23-1,36.94,36.94,0,0,0,.31,8.08c1,7.51,5.6,13.88,14.71,14C48.75,51.43,54.09,44.69,54.5,37.44Z" fill="#f7e8d2" stroke="#692f17" stroke-miterlimit="10"/><path d="M44.41,43.79a12.83,12.83,0,0,1-4.91.91,13,13,0,0,1-4.66-.81" fill="none" stroke="#692f17" stroke-linecap="round" stroke-miterlimit="10" stroke-width="0.8"/><path d="M41.79,46.45a6.87,6.87,0,0,1-4.35,0" fill="none" stroke="#692f17" stroke-linecap="round" stroke-miterlimit="10" stroke-width="0.7"/><path d="M41.46,40.88a7.08,7.08,0,0,1-1.89.31,5.76,5.76,0,0,1-1.8-.29" fill="none" stroke="#692f17" stroke-linecap="round" stroke-miterlimit="10" stroke-width="0.7"/><path d="M35.07,35.62a6,6,0,0,0-3.82-1.92,6,6,0,0,0-3.82,1.92" fill="none" stroke="#692f17" stroke-linecap="round" stroke-miterlimit="10"/><ellipse cx="31.26" cy="35.62" rx="1.67" ry="1.52" fill="#692f17"/><path d="M51.15,35.62a5.94,5.94,0,0,0-3.82-1.92,6,6,0,0,0-3.82,1.92" fill="none" stroke="#692f17" stroke-linecap="round" stroke-miterlimit="10"/><ellipse cx="47.33" cy="35.62" rx="1.67" ry="1.52" fill="#692f17"/><path d="M46.07,53.87c0,3.95-2.77,7.15-6.18,7.15s-6.18-3.2-6.18-7.15" fill="none" stroke="#692f17" stroke-linecap="square" stroke-miterlimit="10" stroke-width="1.5"/><path d="M54.35,46.34" fill="none" stroke="#692f17" stroke-miterlimit="10" stroke-width="1.52"/><path d="M57.79,40.43" fill="none" stroke="#692f17" stroke-miterlimit="10" stroke-width="1.52"/></g></g></svg>