<svg xmlns="http://www.w3.org/2000/svg" width="100" height="100" viewBox="0 0 100 100"><title>вносить-изменения</title><g id="Слой_2" data-name="Слой 2"><g id="Слой_1-2" data-name="Слой 1"><rect width="100" height="100" fill="none"/><path d="M66.16,67.1V84.91a3.1,3.1,0,0,1-3.1,3.1H15.67a3.1,3.1,0,0,1-3.1-3.1V24.33a3.1,3.1,0,0,1,3.1-3.1h6.7" fill="none" stroke="#fd8204" stroke-miterlimit="10" stroke-width="2"/><path d="M56.36,21.23h6.7a3.1,3.1,0,0,1,3.1,3.1V44.47" fill="none" stroke="#fd8204" stroke-miterlimit="10" stroke-width="2"/><polyline points="59.47 71.88 59.47 80.63 18.17 80.63 18.17 30.86 59.47 30.86 59.47 51.03" fill="none" stroke="#fd8204" stroke-linecap="round" stroke-miterlimit="10"/><line x1="25.56" y1="39.88" x2="52.35" y2="39.88" fill="none" stroke="#fd8204" stroke-linecap="round" stroke-miterlimit="10" stroke-width="2"/><line x1="25.56" y1="47.25" x2="52.35" y2="47.25" fill="none" stroke="#fd8204" stroke-linecap="round" stroke-miterlimit="10" stroke-width="2"/><line x1="25.56" y1="54.62" x2="38.82" y2="54.62" fill="none" stroke="#fd8204" stroke-linecap="round" stroke-miterlimit="10" stroke-width="2"/><path d="M33.4,16.55V15.09A3.1,3.1,0,0,1,36.5,12h5.73a3.1,3.1,0,0,1,3.1,3.1v1.46" fill="none" stroke="#fd8204" stroke-miterlimit="10" stroke-width="2"/><path d="M56.36,21.75v-2.1a3.1,3.1,0,0,0-3.1-3.1H25.47a3.1,3.1,0,0,0-3.1,3.1v2.1Z" fill="none" stroke="#fd8204" stroke-linecap="round" stroke-miterlimit="10"/><path d="M74.27,38.18l9.32,9.32L81,50.14l-1.74,1.74h0L59.9,71.18l-9.32-9.32L71.22,41.23l.58-.59,2.47-2.47m0-2.28a1.32,1.32,0,0,0-.94.39L69.8,39.82h0l-22,22L59.9,74,82.37,51.55h0l3.12-3.11a1.33,1.33,0,0,0,0-1.88L75.21,36.29a1.33,1.33,0,0,0-.94-.39Z" fill="#fd8204"/><path d="M83.65,48.72h0L87,45.36a1.43,1.43,0,0,0,0-2l-8.42-8.42a1.43,1.43,0,0,0-2,0l-3.81,3.81h0" fill="none" stroke="#fd8204" stroke-miterlimit="10"/><polyline points="48.28 62.09 44.11 77.66 59.68 73.49" fill="none" stroke="#fd8204" stroke-linecap="round" stroke-linejoin="round"/><line x1="45.84" y1="71.21" x2="50.34" y2="75.71" fill="none" stroke="#fd8204" stroke-linecap="round" stroke-linejoin="round"/><line x1="52.52" y1="65.27" x2="77.09" y2="40.69" fill="none" stroke="#fd8204" stroke-miterlimit="10"/><line x1="56.44" y1="69.19" x2="81.01" y2="44.62" fill="none" stroke="#fd8204" stroke-miterlimit="10"/><polygon points="45.86 71.13 50.61 75.88 44.11 77.66 45.86 71.13" fill="#fd8204"/></g></g></svg>