<svg xmlns="http://www.w3.org/2000/svg" width="80" height="80" viewBox="0 0 80 80"><g data-name="Слой 1"><path d="M45.64 24A8.24 8.24 0 0 1 58 34.37M22.17 34.21a8.24 8.24 0 0 1 12.58-10.14" fill="#dfdbd1" stroke="#692f17" stroke-linecap="round" stroke-linejoin="round" stroke-width="1.5"/><path d="M20.2 43A19.8 19.8 0 1 1 40 62.84 19.79 19.79 0 0 1 20.2 43z" fill="#fd8204" stroke="#692f17" stroke-linecap="round" stroke-linejoin="round" stroke-width="1.5"/><circle cx="40" cy="43.05" r="1.48" fill="#dfdbd1" stroke="#5d3329" stroke-linecap="round" stroke-linejoin="round" stroke-width="2"/><path d="M23.6 43A16.4 16.4 0 1 1 40 59.44 16.4 16.4 0 0 1 23.6 43z" fill="#f5f4f0" stroke="#692f17" stroke-linecap="round" stroke-linejoin="round"/><circle cx="28.72" cy="43.04" r=".72" fill="#fd8204"/><circle cx="51.28" cy="43.04" r=".72" fill="#fd8204"/><circle cx="40" cy="31.76" r=".72" fill="#ec8213"/><circle cx="40" cy="54.33" r=".72" fill="#fd8204"/><circle cx="30.22" cy="48.68" r=".72" transform="rotate(-29.92 30.22 48.673)" fill="#692f17"/><circle cx="49.78" cy="37.41" r=".72" transform="rotate(-29.94 49.784 37.415)" fill="#692f17"/><circle cx="34.37" cy="33.27" r=".72" transform="rotate(-29.94 34.362 33.272)" fill="#692f17"/><circle cx="45.63" cy="52.82" r=".72" transform="rotate(-29.92 45.628 52.83)" fill="#692f17"/><circle cx="34.36" cy="52.82" r=".72" transform="rotate(-60.01 34.355 52.814)" fill="#692f17"/><circle cx="45.64" cy="33.27" r=".72" transform="rotate(-60 45.641 33.267)" fill="#692f17"/><circle cx="30.23" cy="37.4" r=".72" transform="rotate(-59.98 30.226 37.401)" fill="#692f17"/><circle cx="49.77" cy="48.69" r=".72" transform="rotate(-60 49.773 48.69)" fill="#692f17"/><path d="M28 22.16a5.89 5.89 0 0 1 5.89-5.89h12a5.89 5.89 0 0 1 5.89 5.89" fill="none" stroke="#692f17" stroke-linecap="round" stroke-linejoin="round" stroke-width="1.5"/><path d="M30.23 60.5a3.23 3.23 0 1 1-3.92-3.16M53.77 57.23a3.23 3.23 0 1 1-4 3.07" fill="#dbc19f" stroke="#692f17" stroke-linecap="round" stroke-miterlimit="10" stroke-width="1.5"/><path fill="#dfdbd1" stroke="#692f17" stroke-linecap="round" stroke-linejoin="round" stroke-width="1.5" d="M40 43.04V29.69M39.63 43.04l-7.1-4.09"/><path fill="none" d="M0 0h80v80H0z"/></g></svg>