<svg xmlns="http://www.w3.org/2000/svg" xmlns:xlink="http://www.w3.org/1999/xlink" width="100" height="100" viewBox="0 0 100 100"><defs><clipPath id="clip-path"><rect x="6.56" y="21.89" width="37.11" height="63.95" fill="none"/></clipPath></defs><title>заказ</title><g id="Слой_2" data-name="Слой 2"><g id="Слой_1-2" data-name="Слой 1"><rect width="100" height="100" fill="none"/><path d="M52.77,25.08H46.54A2.88,2.88,0,0,0,43.67,28V84.22a2.88,2.88,0,0,0,2.88,2.88h44a2.88,2.88,0,0,0,2.88-2.88V28a2.88,2.88,0,0,0-2.88-2.88H84.34" fill="none" stroke="#fd8204" stroke-miterlimit="10" stroke-width="2"/><polygon points="87.22 72.12 87.22 80.25 48.87 80.25 48.87 34.02 87.22 34.02 87.22 52.76 87.22 72.12" fill="none" stroke="#fd8204" stroke-linecap="round" stroke-miterlimit="10"/><line x1="55.73" y1="42.4" x2="80.62" y2="42.4" fill="none" stroke="#fd8204" stroke-linecap="round" stroke-miterlimit="10" stroke-width="2"/><line x1="55.73" y1="50.07" x2="80.62" y2="50.07" fill="none" stroke="#fd8204" stroke-linecap="round" stroke-miterlimit="10" stroke-width="2"/><line x1="55.73" y1="57.75" x2="80.11" y2="57.75" fill="none" stroke="#fd8204" stroke-linecap="round" stroke-miterlimit="10" stroke-width="2"/><line x1="55.73" y1="65.41" x2="80.62" y2="65.41" fill="none" stroke="#fd8204" stroke-linecap="round" stroke-miterlimit="10" stroke-width="2"/><path d="M63,20.73V19.38a2.88,2.88,0,0,1,2.88-2.88h5.33a2.88,2.88,0,0,1,2.88,2.88v1.35" fill="none" stroke="#fd8204" stroke-miterlimit="10" stroke-width="2"/><path d="M84.34,25.56V23.61a2.88,2.88,0,0,0-2.88-2.88H55.65a2.88,2.88,0,0,0-2.88,2.88v1.95Z" fill="none" stroke="#fd8204" stroke-linecap="round" stroke-miterlimit="10"/><g clip-path="url(#clip-path)"><path d="M49.4,57.26v-12c0-2.09-1.78-3.16-3.77-3.78C35.31,38.21,35.19,30.64,35.19,30.64s0-.07,0-.11h0v-4.2a.69.69,0,0,0-.68-.69h-4a.69.69,0,0,0-.69.69V46.4" fill="none" stroke="#fd8204" stroke-miterlimit="10" stroke-width="2"/><line x1="29.76" y1="30.64" x2="34.85" y2="30.64" fill="none" stroke="#fd8204" stroke-miterlimit="10"/><path d="M16.39,34.49a6.93,6.93,0,0,1-2.28,5.71,22.52,22.52,0,0,1-3,2.11l.47.5a13.13,13.13,0,0,0,5.09-2.89c2.73-2.73,2.24-5.43,2.24-5.43Z" fill="none" stroke="#fd8204" stroke-linecap="round" stroke-linejoin="round"/><path d="M13.42,33.81H11.13a.44.44,0,0,1-.44-.44v-1.9a.44.44,0,0,1,.44-.44h2.29" fill="none" stroke="#fd8204" stroke-linecap="round" stroke-linejoin="round"/><path d="M19.8,43.22a9.13,9.13,0,0,0-6.41,8.71s0,0,0,.06,0,0,0,.06v5" fill="none" stroke="#fd8204" stroke-miterlimit="10" stroke-width="2"/><path d="M31.63,57.4V52s0,0,0-.06,0,0,0-.06a9.13,9.13,0,0,0-6.48-8.73" fill="none" stroke="#fd8204" stroke-miterlimit="10" stroke-width="2"/><path d="M18.36,56.37" fill="#fffffe" stroke="#5d3329" stroke-miterlimit="10" stroke-width="2"/><path d="M26.46,30.53H14.3a.91.91,0,0,0-.91.91v2.14a.91.91,0,0,0,.91.91h4.61l1.64,4.84A.64.64,0,0,0,20,40V43.2h5.08V40a.64.64,0,0,0-.65-.65h0V34.49h2.07a.91.91,0,0,0,.91-.91V31.44A.91.91,0,0,0,26.46,30.53Z" fill="none" stroke="#fd8204" stroke-linecap="round" stroke-linejoin="round" stroke-width="2"/><path d="M17.52,62.5H11.63L14.5,80.69A3.54,3.54,0,0,0,18,84.23H46.55a3.54,3.54,0,0,0,3.54-3.54L53,62.5H45.44" fill="none" stroke="#fd8204" stroke-linecap="round" stroke-linejoin="round" stroke-width="2"/><path d="M17.9,62.5H9.14a1.21,1.21,0,0,1-1.21-1.21V58.47a1.21,1.21,0,0,1,1.21-1.21h46.3a1.21,1.21,0,0,1,1.21,1.21v2.82a1.21,1.21,0,0,1-1.21,1.21h-10" fill="none" stroke="#fd8204" stroke-linecap="round" stroke-linejoin="round" stroke-width="2"/><line x1="24.75" y1="39.78" x2="19.75" y2="39.78" fill="#fffffe" stroke="#fd8204" stroke-miterlimit="10"/><line x1="20.3" y1="72.55" x2="24.34" y2="68.5" fill="#5d3329"/><path d="M20.3,72.84a.29.29,0,0,1-.21-.09.29.29,0,0,1,0-.41l4-4a.29.29,0,0,1,.42.41l-4,4A.29.29,0,0,1,20.3,72.84Z" fill="#fd8204"/><line x1="18.13" y1="70.87" x2="22.71" y2="66.3" fill="#5d3329"/><path d="M18.13,71.17a.29.29,0,0,1-.21-.5l4.58-4.58a.29.29,0,0,1,.41.41l-4.58,4.58A.29.29,0,0,1,18.13,71.17Z" fill="#fd8204"/><line x1="18.51" y1="66.71" x2="21.02" y2="64.2" fill="#5d3329"/><path d="M18.51,67a.29.29,0,0,1-.21-.5L20.81,64a.29.29,0,0,1,.41.42l-2.52,2.52A.29.29,0,0,1,18.51,67Z" fill="#fd8204"/><path d="M38.69,77.85a1.57,1.57,0,0,1-1.58-1.55V76a1.66,1.66,0,0,1-1,.43H36a1.57,1.57,0,0,1-1.58-1.55l-.21-7.62c-.57,1.49-1.45,3.33-2.32,3.33l-.17,0a1.4,1.4,0,0,1-.91-.71c-.77-1.4.25-4.43.68-5.72l.11-.34a16.45,16.45,0,0,1,3.06-4.49l0-1.65a.29.29,0,0,1,.23-.28,26.39,26.39,0,0,1,5.15-.49h.17a20,20,0,0,1,4.94.38.29.29,0,0,1,.2.28s0,3.25,0,5.76l.16,8.24A1.69,1.69,0,0,1,44,73.28h-.09a1.58,1.58,0,0,1-1-.33l0,1.5a1.69,1.69,0,0,1-1.59,1.7H41.3a1.57,1.57,0,0,1-.93-.3v.29a1.69,1.69,0,0,1-1.59,1.71Zm-1-3.11,0,1.54a1,1,0,0,0,1,1h.06a1.1,1.1,0,0,0,1-1.11l0-1.25a.29.29,0,0,1,.58-.08,1,1,0,0,0,1,.75,1.11,1.11,0,0,0,1.08-1.11l-.05-2.74h0a.3.3,0,0,1,.29-.3h0a.29.29,0,0,1,.29.29,1,1,0,0,0,1,1A1.11,1.11,0,0,0,45,71.59l-.16-8.24c0-2.13,0-4.75,0-5.54a25.84,25.84,0,0,0-4.56-.31h-.17a27.22,27.22,0,0,0-4.8.43l0,1.52a.3.3,0,0,1-.08.19s-2.47,2.67-3,4.35l-.11.35c-.37,1.11-1.36,4.08-.72,5.25a.81.81,0,0,0,.54.42h0c.57,0,1.64-2.29,2.31-4.44a.29.29,0,0,1,.57.08L35,74.88a1,1,0,0,0,1,1,1.11,1.11,0,0,0,1.09-1.11h0a.29.29,0,0,1,.29-.3h0a.29.29,0,0,1,.29.29Z" fill="#fd8204"/><line x1="37.38" y1="74.71" x2="37.27" y2="69.08" fill="#5d3329"/><path d="M37.38,75a.29.29,0,0,1-.29-.29L37,69.09a.29.29,0,0,1,.29-.3h0a.29.29,0,0,1,.29.29l.11,5.62a.29.29,0,0,1-.29.3Z" fill="#fd8204"/><line x1="40.05" y1="74.9" x2="39.93" y2="68.54" fill="#5d3329"/><path d="M40,75.19a.29.29,0,0,1-.29-.29l-.12-6.36a.29.29,0,0,1,.29-.3h0a.29.29,0,0,1,.29.29l.12,6.36a.29.29,0,0,1-.29.3Z" fill="#fd8204"/><line x1="42.62" y1="71.61" x2="42.55" y2="68.12" fill="#5d3329"/><path d="M42.62,71.9a.29.29,0,0,1-.29-.29l-.07-3.5a.29.29,0,0,1,.29-.3h0a.29.29,0,0,1,.29.29l.07,3.5a.29.29,0,0,1-.29.3Z" fill="#fd8204"/><line x1="34.47" y1="66.32" x2="34.42" y2="64.07" fill="#5d3329"/><path d="M34.47,66.61a.29.29,0,0,1-.29-.29l0-2.25a.29.29,0,0,1,.29-.3h0a.29.29,0,0,1,.29.29l0,2.25a.29.29,0,0,1-.29.3Z" fill="#fd8204"/><path d="M32.62,63l.14-.24-.07.08A.29.29,0,0,0,32.62,63Z" fill="#5d3329"/><path d="M31.32,69.59a1.5,1.5,0,0,1-.07-.16C30.46,71,29,73.52,27.78,72.87c-.43-.23.21-2.48,1.38-4.82a.29.29,0,0,0-.47-.34L22,74.29a1.09,1.09,0,0,1-1.51,0,1.07,1.07,0,0,1,0-1.51.29.29,0,1,0-.41-.41h0l-1.11,1.11a1.09,1.09,0,0,1-1.5,0,1.07,1.07,0,0,1,0-1.51l.9-.9a.29.29,0,0,0-.36-.46,1.08,1.08,0,0,1-1.32-.14,1.06,1.06,0,0,1,0-1.51l2-2a.29.29,0,1,0-.42-.41,1.09,1.09,0,0,1-1.51,0,1.07,1.07,0,0,1,0-1.51l5.93-5.93,1.28-1.28a26.13,26.13,0,0,1,5.74-.68c.51,0,1,0,1.48.06a19,19,0,0,1,4.14.72v0c.23,0,.62-.11,1.13-.18a16.33,16.33,0,0,0-5.22-1.09c-.49,0-1-.06-1.53-.06a26.42,26.42,0,0,0-5.75.67.34.34,0,0,0-.36.13l0,0-1.29,1.29-5.93,5.93a1.65,1.65,0,0,0,1,2.81l-1.08,1.08a1.65,1.65,0,0,0,0,2.33,1.64,1.64,0,0,0,1,.47l-.2.2a1.65,1.65,0,0,0,0,2.34,1.69,1.69,0,0,0,2.33,0l.22-.22a1.65,1.65,0,0,0,2.81,1L28,69.24c-.66,1.57-1.34,3.68-.46,4.14a1.47,1.47,0,0,0,.7.18c1.4,0,2.67-2.07,3.47-3.64A.81.81,0,0,1,31.32,69.59Z" fill="#fd8204"/></g></g></g></svg>