<svg xmlns="http://www.w3.org/2000/svg" width="100" height="80" viewBox="0 0 100 80"><defs><clipPath id="a"><path d="M85.92 17.1a27.83 27.83 0 0 1-8.55 1.29c-.9 0-1.78 0-2.63-.12h-.06v.07a11.15 11.15 0 0 0-.84 3.11 1.68 1.68 0 0 0 0 3.36 10.22 10.22 0 0 0 1.43 4.05v.08h.07V29a10.6 10.6 0 0 0 1.95.18c5.23 0 9.46-3.78 9.46-8.44a7.65 7.65 0 0 0-.83-3.64z" fill="none"/></clipPath></defs><title>no-договора</title><g data-name="Слой 2"><g data-name="Слой 1"><path d="M16.52 30.54a15.58 15.58 0 0 1-5-2 30 30 0 0 1-.5-5.47S9.44 8.86 21 9c11.79.14 10.8 14.18 10.8 14.18a33.4 33.4 0 0 1-.44 5.73 13.62 13.62 0 0 1-5.07 1.71" fill="#dcc19f" stroke="#692f17" stroke-miterlimit="10"/><path d="M63.91 19.75C63.91 13.83 69.2 9 76.33 9s12.41 4.8 12.41 10.72c0 6.36-5.29 10.72-12.41 10.72s-12.42-3.9-12.42-10.69z" fill="#dbc19f" stroke="#692f17" stroke-miterlimit="10" stroke-width=".82"/><path d="M77.37 28.94a10.5 10.5 0 0 1-1.88-.17 10 10 0 0 1-1.4-4v-.17h-.19a1.48 1.48 0 0 1 0-3h.1v-.17a10.93 10.93 0 0 1 .79-3c.87.07 1.69.11 2.51.11a28.23 28.23 0 0 0 8.45-1.24 7.4 7.4 0 0 1 .81 3.35c.07 4.59-4.08 8.29-9.19 8.29z" fill="#f7e8d2"/><path d="M85.71 17.59a7.16 7.16 0 0 1 .71 3.11c0 4.43-4.06 8-9.06 8a10.2 10.2 0 0 1-1.75-.15 9.85 9.85 0 0 1-1.33-3.84v-.34h-.38a1.27 1.27 0 0 1 0-2.54h.34v-.34A10.82 10.82 0 0 1 75 18.7c.82.07 1.61.1 2.38.1a28.58 28.58 0 0 0 8.34-1.2m.21-.49a27.83 27.83 0 0 1-8.55 1.29c-.9 0-1.78 0-2.63-.12h-.06v.07a11.15 11.15 0 0 0-.84 3.11 1.68 1.68 0 0 0 0 3.36 10.22 10.22 0 0 0 1.43 4.05v.08h.07v.06V29a10.6 10.6 0 0 0 1.95.18c5.23 0 9.46-3.78 9.46-8.44a7.65 7.65 0 0 0-.91-3.6z" fill="#692f17"/><path d="M56.2 38.68S55.15 35.53 54 35s-2.46-.34-2 .34a17.76 17.76 0 0 1 1.15 1.88 1.49 1.49 0 0 1-.79-.37c-.42-.35-.39.22.11.76.24.26.91 2 1.55 2.79a1.81 1.81 0 0 0 1.36.85z" fill="#f7e8d2" stroke="#692f17" stroke-miterlimit="10" stroke-width=".41"/><path d="M81.58 66.76a4.58 4.58 0 0 1 2.69-.58c1.78.07 3.62 1.73 1.85 3.71s-4.8 0-6.46-.29-2.09-1.26-2.13-2.09v-.83zM73.25 66.76a4.66 4.66 0 0 0-2.72-.58c-1.8.07-3.66 1.73-1.87 3.71s4.85 0 6.53-.29 2.12-1.26 2.15-2.09v-.83z" fill="#dbc19f" stroke="#692f17" stroke-miterlimit="10" stroke-width=".41"/><path d="M82.4 61.46l-.73 5.08a.58.58 0 0 1 0 .07c0 .56-.94 1-2.1 1s-2.1-.45-2.1-1v-5.15zM72.42 61.46l.74 5.08a.51.51 0 0 0 0 .07c0 .56.95 1 2.12 1s2.12-.45 2.12-1v-5.15z" fill="#dfdbd1" stroke="#692f17" stroke-linecap="round" stroke-linejoin="round" stroke-width=".41"/><path d="M77.44 51.53h-6.95l.71 9.62c0 1.78 1.4 2.57 3.12 2.57s3.12-.79 3.12-2.57c0 1.78 1.44 2.57 3.22 2.57s3.22-.79 3.22-2.57l.73-9.62z" fill="#fd8204" stroke="#692f17" stroke-miterlimit="10" stroke-width=".82"/><path d="M69.19 44.48l-.82 7.06c0 .58 3.79 1 8.55 1.08h.45c4.84 0 8.68-.5 8.68-1.08l-.28-4.29a1.85 1.85 0 0 0 .68.6v.75c0 .32.63.54 1.75.48s2-.36 2-.68v-.84a1.6 1.6 0 0 0 .8-1.34v-.07-.06c0-.06.16-6.59-2.14-10.22a11.34 11.34 0 0 0-3.71-4.05c-1.61-1.42-4.49-2.36-7.77-2.36h-.45c-3.24 0-6.07.94-7.66 2.36-2.25 1.46-4.69 7.11-4.69 7.11a22.44 22.44 0 0 0-4.71-1 3.25 3.25 0 0 0-2.51 1l-1.22-.42-.68 2.77 1.29.68s-.72 1.22 3.74 3.12c6.23 2.65 8.7-.6 8.7-.6z" fill="#f5f4f0" stroke="#692f17" stroke-linecap="round" stroke-linejoin="round" stroke-width=".82"/><path d="M84 26.26a7.44 7.44 0 0 1-1.22.06 7.56 7.56 0 0 1-1.15-.11" fill="none" stroke="#692f17" stroke-linecap="round" stroke-miterlimit="10" stroke-width=".41"/><path fill="#fff" stroke="#692f17" stroke-linecap="round" stroke-miterlimit="10" stroke-width=".41" d="M69 46.94l.73-9.95M85.77 47.25l-1.81-11"/><path d="M68.52 49.09s2.37 1.38 8.92 1.09 8.79-1.09 8.79-1.09" fill="none" stroke="#692f17" stroke-linecap="round" stroke-miterlimit="10" stroke-width=".41"/><path d="M78.15 30.52v5.12a.61.61 0 0 1-.61.61H75.4a.61.61 0 0 1-.61-.61v-5.12" fill="#f5f4f0" stroke="#692f17" stroke-miterlimit="10" stroke-width=".41"/><path d="M89.51 48.85s0 3.33-1 4.16-2.41 1.11-2.12.3a16.67 16.67 0 0 0 .53-2.15 1.58 1.58 0 0 0-.69.6c-.31.47-.48-.09-.15-.76s.92-2.2.92-2.2z" fill="#f7e8d2" stroke="#692f17" stroke-miterlimit="10" stroke-width=".41"/><path fill="none" stroke="#692f17" stroke-linecap="round" stroke-miterlimit="10" stroke-width=".41" d="M77.44 61.15v-8.53M82.86 21.37a1.75 1.75 0 0 0-1.5-1 3 3 0 0 0-1.91 1"/><ellipse cx="81.36" cy="21.37" rx=".84" ry=".76" fill="#692f17"/><circle cx="67.12" cy="37.65" r="1.4" fill="#ec8213"/><circle cx="65.6" cy="43.3" r="1.4" fill="#ec8213"/><circle cx="60.56" cy="40.59" r="1.4" fill="#ec8213"/><circle cx="72.98" cy="40.58" r="1.4" fill="#ec8213"/><circle cx="81.15" cy="38.52" r="1.4" fill="#ec8213"/><circle cx="78.15" cy="44.48" r="1.4" fill="#ec8213"/><circle cx="82.11" cy="47.28" r="1.4" fill="#ec8213"/><circle cx="87.72" cy="44.93" r="1.4" fill="#ec8213"/><circle cx="72.42" cy="47.28" r="1.4" fill="#ec8213"/><circle cx="82.56" cy="32.92" r="1.4" fill="#ec8213"/><circle cx="72.14" cy="32.92" r="1.4" fill="#ec8213"/><circle cx="87.33" cy="37.65" r="1.4" fill="#ec8213"/><ellipse cx="20.18" cy="68" rx="1.96" ry="2.97" fill="#dbc19f" stroke="#692f17" stroke-miterlimit="10" stroke-width=".41"/><ellipse cx="24.44" cy="68" rx="1.96" ry="2.97" fill="#dbc19f" stroke="#692f17" stroke-miterlimit="10" stroke-width=".41"/><path d="M43.39 38a12.13 12.13 0 0 1 1.25.2c.42.11.67.07.68.42a7.29 7.29 0 0 1 .14 1c0 .43-.3.72-.36 1.19s-.54.68-.72.88c-.45.48-3.23-.24-3.68-.47s-.62-1-.54-2 1.42-1.21 1.65-1.49a3 3 0 0 0 .56-1.69c0-.77-.15-1.09.24-1.11s.81.79.77 1.7a9 9 0 0 0 .01 1.37zM22.26 57.33h-3.92l.4 8.42c0 1.56.79 2.25 1.76 2.25s1.76-.69 1.76-2.25c0 1.56.81 2.25 1.81 2.25s1.81-.69 1.81-2.25l.41-8.42z" fill="#f7e8d2" stroke="#692f17" stroke-miterlimit="10" stroke-width=".41"/><path d="M40.92 37.62l-.79-.2c-.15-.61-.47-1.05-.9-1.14L33.78 35a52.33 52.33 0 0 0-5.35-3.91 10 10 0 0 0-2.3-1 15 15 0 0 0-4.43-.64c-3.24 0-5.86.76-7.45 2.18-1.79 1.3-5.71 15.52-5.25 15.88v.84c0 .32.87.63 2 .68s1.71-.16 1.73-.48v-.75a1.85 1.85 0 0 0 .67-.6l2.23-9.2a56.24 56.24 0 0 0 2 5.52s9.57-.24 9.57-.84l1.27-5.13a26 26 0 0 0 3.89 2.32c1.86.84 6.58 1.51 6.92 1.12l.7.18c.31.08.79-.72 1.06-1.8s.19-1.67-.12-1.75z" fill="#f5f4f0" stroke="#692f17" stroke-linecap="round" stroke-linejoin="round" stroke-width=".82"/><path d="M9.34 48.79s0 3.32 1 4.16 2.51 1.11 2.21.3a16.13 16.13 0 0 1-.55-2.14 1.63 1.63 0 0 1 .72.6c.32.47.5-.09.15-.76S12 48.74 12 48.74z" fill="#f7e8d2" stroke="#692f17" stroke-miterlimit="10" stroke-width=".41"/><path d="M43.39 38a1.21 1.21 0 0 0-.75 1.39c.25 1 .75 2.35.75 2.35" fill="none" stroke="#5d3329" stroke-linecap="round" stroke-linejoin="round" stroke-width=".41"/><path fill="none" stroke="#692f17" stroke-linecap="round" stroke-miterlimit="10" stroke-width=".41" d="M22.22 66.4v-7.47"/><path d="M27.21 42.72a20.94 20.94 0 0 1-5.17.53 15.82 15.82 0 0 1-4.71-.63c-3.69 3-4.25 9.18-4.25 14.7 0 .95 4.11 1.71 9.19 1.71s9.19-.77 9.19-1.71h.09c-.02-5.49-.76-11.63-4.34-14.6z" fill="#dfdbd1" stroke="#692f17" stroke-linecap="round" stroke-linejoin="round" stroke-width=".82"/><path d="M24.59 30a3.37 3.37 0 0 1-3.1 3.58 3.37 3.37 0 0 1-3.1-3.58" fill="none" stroke="#692f17" stroke-linecap="square" stroke-miterlimit="10" stroke-width=".82"/><path fill="#dfdbd1" stroke="#692f17" stroke-linecap="round" stroke-linejoin="round" stroke-width=".41" d="M41.244 36.204l6.745-4.302 2.603 4.08-6.745 4.302z"/><path fill="#dfdbd1" stroke="#692f17" stroke-linecap="round" stroke-linejoin="round" stroke-width=".41" d="M41.795 36.668l7.511-2.753 1.666 4.544-7.512 2.754z"/><path fill="#dfdbd1" stroke="#692f17" stroke-linecap="round" stroke-linejoin="round" stroke-width=".41" d="M42.285 37.623l7.932-1.042.63 4.8-7.932 1.04z"/><path d="M77.37 29.14a10.54 10.54 0 0 1-2.1-.21 3 3 0 0 1-2 .88c.32.56 1.5.88 3.19.88 1.93 0 3.49-.55 3.49-1.23v-.64a10.53 10.53 0 0 1-2.58.32z" fill="#f5f4f0" stroke="#692f17" stroke-miterlimit="10" stroke-width=".41"/><g clip-path="url(#a)"><path d="M87.33 21.56s-.25-.77-.84-.77-1.07.77-1.07.77" fill="none" stroke="#692f17" stroke-linecap="round" stroke-miterlimit="10" stroke-width=".41"/><ellipse cx="86.59" cy="21.56" rx=".57" ry=".61" fill="#692f17"/></g><path d="M84.93 24a1.48 1.48 0 0 1-.44.06 1.53 1.53 0 0 1-.41-.05" fill="#fff" stroke="#692f17" stroke-linecap="round" stroke-miterlimit="10" stroke-width=".2"/><path fill="none" d="M0 0h100v80H0z"/><path d="M19.39 29v.77c0 .72.86 1.3 1.93 1.3s1.93-.58 1.93-1.3V29" fill="#f2e3d0" stroke="#692f17" stroke-miterlimit="10" stroke-width=".4"/><path d="M29.08 21.8a47.14 47.14 0 0 0 .15-4.92 3 3 0 0 1-3.66-1.94A7.52 7.52 0 0 1 21.42 18a14.72 14.72 0 0 1-8.1-.55 19.64 19.64 0 0 0 .17 4.3c.55 4 3 7.38 7.82 7.44a7.56 7.56 0 0 0 7.77-7.39z" fill="#f2e3d0" stroke="#692f17" stroke-miterlimit="10" stroke-width=".75"/><path d="M23.71 25.18a6.82 6.82 0 0 1-2.61.49 6.94 6.94 0 0 1-2.48-.43" fill="none" stroke="#692f17" stroke-linecap="round" stroke-miterlimit="10" stroke-width=".4"/><path d="M22.15 23.64a3.76 3.76 0 0 1-1 .17 3.06 3.06 0 0 1-1-.15" fill="none" stroke="#692f17" stroke-linecap="round" stroke-miterlimit="10" stroke-width=".25"/><path d="M18.75 20.84a3.16 3.16 0 0 0-2-1 3.16 3.16 0 0 0-2 1" fill="none" stroke="#692f17" stroke-linecap="round" stroke-miterlimit="10" stroke-width=".4"/><ellipse cx="16.72" cy="20.84" rx=".89" ry=".81" fill="#692f17"/><path d="M27.3 20.84a3.16 3.16 0 0 0-2-1 3.16 3.16 0 0 0-2 1" fill="none" stroke="#692f17" stroke-linecap="round" stroke-miterlimit="10" stroke-width=".4"/><ellipse cx="25.27" cy="20.84" rx=".89" ry=".81" fill="#692f17"/><path d="M22.33 26.59a3.65 3.65 0 0 1-2.31 0" fill="none" stroke="#692f17" stroke-linecap="round" stroke-miterlimit="10" stroke-width=".4"/></g></g></svg>