<svg xmlns="http://www.w3.org/2000/svg" width="80" height="80" viewBox="0 0 80 80"><title>убедительная-просьба_1</title><g data-name="Слой 2"><g data-name="Слой 1"><path d="M29.45 30a15.58 15.58 0 0 1-5-2 30 30 0 0 1-.5-5.47s-1.54-14.26 10-14.12c11.79.14 10.8 14.18 10.8 14.18a33.4 33.4 0 0 1-.44 5.73 13.62 13.62 0 0 1-5.07 1.71" fill="#dcc19f" stroke="#692f17" stroke-miterlimit="10"/><ellipse cx="32.73" cy="68.79" rx="2.02" ry="3.06" fill="#dbc19f" stroke="#5d3329" stroke-miterlimit="10" stroke-width=".4"/><ellipse cx="37.12" cy="68.79" rx="2.02" ry="3.06" fill="#dbc19f" stroke="#5d3329" stroke-miterlimit="10" stroke-width=".4"/><path d="M56.65 37.91a12.52 12.52 0 0 1 1.29.2c.43.11.69.07.7.43a7.46 7.46 0 0 1 .15 1.08c0 .44-.3.75-.37 1.22s-.55.7-.75.91c-.46.5-3.33-.25-3.79-.49s-.64-1-.56-2.07 1.46-1.25 1.7-1.54a3.11 3.11 0 0 0 .58-1.75c0-.8-.15-1.13.25-1.14s.84.82.79 1.75a9.29 9.29 0 0 0 .01 1.4z" fill="#f7e8d2" stroke="#692f17" stroke-miterlimit="10" stroke-width=".4"/><path d="M34.87 57.79h-4l.41 8.67c0 1.6.81 2.32 1.81 2.32s1.81-.71 1.81-2.32c0 1.6.84 2.32 1.87 2.32s1.87-.71 1.87-2.32l.36-8.67z" fill="#f7e8d2" stroke="#5d3329" stroke-miterlimit="10" stroke-width=".4"/><path d="M54.1 37.48l-.81-.21c-.16-.63-.48-1.09-.93-1.18l-5.61-1.33a54 54 0 0 0-5.51-4 10.35 10.35 0 0 0-2.37-1.06 15.41 15.41 0 0 0-4.58-.7c-3.34 0-6 .79-7.68 2.25-1.84 1.39-5.88 16-5.36 16.41v.87c0 .33.89.65 2 .7s1.76-.17 1.78-.5v-.77a1.9 1.9 0 0 0 .69-.62L28 37.91a58 58 0 0 0 2.07 5.69s9.93-.25 9.93-.86l1.3-5.29a26.77 26.77 0 0 0 4 2.39c1.92.86 6.78 1.56 7.14 1.16l.72.18c.32.08.81-.75 1.1-1.85s.16-1.76-.16-1.85z" fill="#fd8204" stroke="#692f17" stroke-linecap="round" stroke-linejoin="round" stroke-width=".79"/><path d="M21.56 49s0 3.43 1 4.29 2.58 1.14 2.27.31a16.57 16.57 0 0 1-.57-2.21A1.68 1.68 0 0 1 25 52c.33.48.51-.09.16-.78s-.9-2.28-.9-2.28z" fill="#f7e8d2" stroke="#692f17" stroke-miterlimit="10" stroke-width=".4"/><path d="M56.65 37.91a1.24 1.24 0 0 0-.77 1.44c.26 1 .77 2.42.77 2.42" fill="none" stroke="#692f17" stroke-linecap="round" stroke-linejoin="round" stroke-width=".4"/><path fill="none" stroke="#5d3329" stroke-linecap="round" stroke-miterlimit="10" stroke-width=".4" d="M34.84 67.14v-7.7"/><path d="M40 42.74a21.57 21.57 0 0 1-5.33.55 16.31 16.31 0 0 1-4.86-.65c-3.8 3-4.38 9.46-4.38 15.15 0 1 4.24 1.77 9.47 1.77s9.47-.79 9.47-1.77h.09c-.03-5.66-.79-11.99-4.46-15.05z" fill="#dfdbd1" stroke="#692f17" stroke-linecap="round" stroke-linejoin="round" stroke-width=".79"/><path d="M37.43 29.58a3.47 3.47 0 0 1-3.19 3.69A3.47 3.47 0 0 1 31 29.58" fill="none" stroke="#692f17" stroke-linecap="square" stroke-miterlimit="10" stroke-width=".79"/><rect x="40.35" y="32.04" width="14.96" height="17.21" rx=".88" ry=".88" fill="#f5f4f0" stroke="#692f17" stroke-miterlimit="10" stroke-width=".79"/><path d="M54.43 32.09h-13.2a.88.88 0 0 0-.88.88v1.54h15V33a.88.88 0 0 0-.92-.91z" fill="#dfdbd1" stroke="#692f17" stroke-linejoin="round" stroke-width=".4"/><path d="M42.29 35a.46.46 0 0 1-.47.46.46.46 0 0 1-.46-.46v-1.23a.46.46 0 0 1 .46-.46.46.46 0 0 1 .47.46zM54.22 35a.46.46 0 0 1-.47.46.46.46 0 0 1-.47-.46v-1.23a.47.47 0 0 1 .47-.46.46.46 0 0 1 .47.46z" fill="#f5f4f0" stroke="#692f17" stroke-miterlimit="10" stroke-width=".4"/><rect x="41.91" y="39.03" width="1.26" height="1.26" rx=".3" ry=".3" fill="#dfdbd1"/><rect x="43.68" y="39.03" width="1.26" height="1.26" rx=".3" ry=".3" fill="#dfdbd1"/><rect x="45.44" y="39.03" width="1.26" height="1.26" rx=".3" ry=".3" fill="#dfdbd1"/><rect x="47.21" y="39.03" width="1.26" height="1.26" rx=".3" ry=".3" fill="#dfdbd1"/><rect x="48.98" y="39.03" width="1.26" height="1.26" rx=".3" ry=".3" fill="#dfdbd1"/><rect x="50.74" y="39.03" width="1.26" height="1.26" rx=".3" ry=".3" fill="#dbc19f"/><path d="M32.32 28.43v.77c0 .72.86 1.3 1.93 1.3s1.93-.58 1.93-1.3v-.77" fill="#f2e3d0" stroke="#692f17" stroke-miterlimit="10" stroke-width=".4"/><path d="M52.81 39h.65a.31.31 0 0 1 .31.31V40a.3.3 0 0 1-.3.3h-.65a.3.3 0 0 1-.3-.3v-.65a.3.3 0 0 1 .29-.35z" fill="#dbc19f"/><rect x="41.91" y="40.83" width="1.26" height="1.26" rx=".3" ry=".3" fill="#dfdbd1"/><rect x="43.68" y="40.83" width="1.26" height="1.26" rx=".3" ry=".3" fill="#dfdbd1"/><rect x="45.44" y="40.83" width="1.26" height="1.26" rx=".3" ry=".3" fill="#dfdbd1"/><rect x="47.21" y="40.83" width="1.26" height="1.26" rx=".3" ry=".3" fill="#dfdbd1"/><rect x="48.98" y="40.83" width="1.26" height="1.26" rx=".3" ry=".3" fill="#dfdbd1"/><rect x="50.74" y="40.83" width="1.26" height="1.26" rx=".3" ry=".3" fill="#dbc19f"/><path d="M52.81 40.83h.65a.31.31 0 0 1 .31.31v.65a.3.3 0 0 1-.3.3h-.65a.3.3 0 0 1-.3-.3v-.65a.3.3 0 0 1 .29-.31z" fill="#dbc19f"/><rect x="41.91" y="42.61" width="1.26" height="1.26" rx=".3" ry=".3" fill="#dfdbd1"/><rect x="43.68" y="42.61" width="1.26" height="1.26" rx=".3" ry=".3" fill="#dfdbd1"/><rect x="45.44" y="42.61" width="1.26" height="1.26" rx=".3" ry=".3" fill="#dfdbd1"/><rect x="47.21" y="42.61" width="1.26" height="1.26" rx=".3" ry=".3" fill="#dfdbd1"/><rect x="48.98" y="42.61" width="1.26" height="1.26" rx=".3" ry=".3" fill="#dfdbd1"/><rect x="50.74" y="42.61" width="1.26" height="1.26" rx=".3" ry=".3" fill="#dbc19f"/><path d="M52.81 42.61h.65a.31.31 0 0 1 .31.31v.65a.3.3 0 0 1-.3.3h-.65a.3.3 0 0 1-.3-.3v-.65a.3.3 0 0 1 .29-.31z" fill="#dbc19f"/><rect x="41.91" y="44.41" width="1.26" height="1.26" rx=".3" ry=".3" fill="#dfdbd1"/><rect x="43.68" y="44.41" width="1.26" height="1.26" rx=".3" ry=".3" fill="#dfdbd1"/><rect x="45.44" y="44.41" width="1.26" height="1.26" rx=".3" ry=".3" fill="#dfdbd1"/><rect x="47.21" y="44.41" width="1.26" height="1.26" rx=".3" ry=".3" fill="#dfdbd1"/><rect x="48.98" y="44.41" width="1.26" height="1.26" rx=".3" ry=".3" fill="#dfdbd1"/><rect x="50.74" y="44.41" width="1.26" height="1.26" rx=".3" ry=".3" fill="#dbc19f"/><path d="M52.81 44.41h.65a.3.3 0 0 1 .3.3v.65a.31.31 0 0 1-.31.31h-.65a.3.3 0 0 1-.3-.3v-.65a.3.3 0 0 1 .31-.31z" fill="#dbc19f"/><rect x="41.91" y="46.05" width="1.26" height="1.26" rx=".3" ry=".3" fill="#dfdbd1"/><rect x="43.68" y="46.05" width="1.26" height="1.26" rx=".3" ry=".3" fill="#dfdbd1"/><rect x="45.44" y="46.05" width="1.26" height="1.26" rx=".3" ry=".3" fill="#dfdbd1"/><rect x="47.21" y="46.05" width="1.26" height="1.26" rx=".3" ry=".3" fill="#fff"/><rect x="48.98" y="46.05" width="1.26" height="1.26" rx=".3" ry=".3" fill="#fff"/><rect x="50.74" y="46.05" width="1.26" height="1.26" rx=".3" ry=".3" fill="#fff"/><path d="M52.81 46.05h.65a.31.31 0 0 1 .31.31V47a.3.3 0 0 1-.3.3h-.65a.3.3 0 0 1-.3-.3v-.65a.3.3 0 0 1 .29-.3z" fill="#fff"/><path d="M53.77 37.42a.53.53 0 0 1-.53.53h-10.8a.53.53 0 0 1-.53-.53.53.53 0 0 1 .53-.53h10.8a.53.53 0 0 1 .53.53z" fill="#dfdbd1"/><path fill="none" d="M0 0h80v80H0z"/><path d="M42 21.24a47.14 47.14 0 0 0 .15-4.92 3 3 0 0 1-3.66-1.94 7.52 7.52 0 0 1-4.15 3.06 14.72 14.72 0 0 1-8.1-.55 19.64 19.64 0 0 0 .17 4.3c.55 4 3 7.38 7.82 7.44A7.56 7.56 0 0 0 42 21.24z" fill="#f2e3d0" stroke="#692f17" stroke-miterlimit="10" stroke-width=".75"/><path d="M36.65 24.62a6.82 6.82 0 0 1-2.65.48 6.94 6.94 0 0 1-2.48-.43" fill="none" stroke="#692f17" stroke-linecap="round" stroke-miterlimit="10" stroke-width=".4"/><path d="M35.08 23.07a3.76 3.76 0 0 1-1 .17 3.06 3.06 0 0 1-1-.15" fill="none" stroke="#692f17" stroke-linecap="round" stroke-miterlimit="10" stroke-width=".25"/><path d="M31.69 20.27a3.16 3.16 0 0 0-2-1 3.16 3.16 0 0 0-2 1" fill="none" stroke="#692f17" stroke-linecap="round" stroke-miterlimit="10" stroke-width=".4"/><ellipse cx="29.66" cy="20.27" rx=".89" ry=".81" fill="#692f17"/><path d="M40.23 20.27a3.16 3.16 0 0 0-2-1 3.16 3.16 0 0 0-2 1" fill="none" stroke="#692f17" stroke-linecap="round" stroke-miterlimit="10" stroke-width=".4"/><ellipse cx="38.2" cy="20.27" rx=".89" ry=".81" fill="#692f17"/><path d="M35.26 26a3.65 3.65 0 0 1-2.31 0" fill="none" stroke="#692f17" stroke-linecap="round" stroke-miterlimit="10" stroke-width=".4"/></g></g></svg>