<svg xmlns="http://www.w3.org/2000/svg" width="100" height="100" viewBox="0 0 100 100"><title>менеджер_1</title><g data-name="Слой 2"><g data-name="Слой 1"><path fill="none" d="M0 0h100v100H0z"/><path d="M45.31 65.94v1.91c0 1.78 2.13 3.22 4.76 3.22s4.76-1.44 4.76-3.22v-1.91" fill="none" stroke="#fd8204" stroke-miterlimit="10"/><path d="M56 56.52a16.85 16.85 0 0 1-6.45 1.2 17.14 17.14 0 0 1-6.12-1.07M52.57 60a9 9 0 0 1-5.71.05" fill="none" stroke="#fd8204" stroke-linecap="round" stroke-miterlimit="10"/><path d="M52.14 52.71a17.94 17.94 0 0 1-2.49.16 18.56 18.56 0 0 1-2.36-.14" fill="none" stroke="#fd8204" stroke-linecap="round" stroke-miterlimit="10" stroke-width=".5"/><path d="M43.75 45.78s-2.24-2.52-5-2.52-5 2.52-5 2.52" fill="none" stroke="#fd8204" stroke-linecap="round" stroke-miterlimit="10"/><ellipse cx="38.73" cy="45.78" rx="2.2" ry="1.99" fill="#fd8204"/><path d="M64.86 45.78s-2.24-2.52-5-2.52-5 2.52-5 2.52" fill="none" stroke="#fd8204" stroke-linecap="round" stroke-miterlimit="10"/><ellipse cx="59.84" cy="45.78" rx="2.2" ry="1.99" fill="#fd8204"/><path d="M58.19 69.75c0 5.19-3.64 9.39-8.12 9.39s-8.12-4.2-8.12-9.39" fill="none" stroke="#fd8204" stroke-linecap="square" stroke-miterlimit="10" stroke-width="2"/><path d="M45.31 67.95C35.16 69.33 27.56 75 27.56 81.89c0 .23 0 .45.05.67a63.12 63.12 0 0 0 22.45 4 63.1 63.1 0 0 0 22.45-4c0-.22.05-.45.05-.67 0-6.84-7.6-12.55-17.74-13.94" fill="none" stroke="#fd8204" stroke-miterlimit="10" stroke-width="2"/><path d="M56.13 61.92a3.62 3.62 0 0 1 3.62-3.62h6.66A3.62 3.62 0 0 1 70 61.92a3.62 3.62 0 0 1-3.62 3.62h-6.63a3.62 3.62 0 0 1-3.62-3.62z" fill="none" stroke="#fd8204" stroke-miterlimit="10"/><path d="M78.15 32.65a29.88 29.88 0 0 0-56 .54A10.37 10.37 0 0 0 26.28 53h.4a50.16 50.16 0 0 1-1.37-8.44 24.9 24.9 0 0 1 13.12-22 23.72 23.72 0 0 1 11.82-3.15 24 24 0 0 1 21 12.45 24.89 24.89 0 0 1 2.23 20.43 21.28 21.28 0 0 0 4.64-1A10.16 10.16 0 0 0 84 42a10.35 10.35 0 0 0-5.85-9.35zM73.58 52.1a24.78 24.78 0 0 1-4.52 7.75" fill="none" stroke="#fd8204" stroke-miterlimit="10" stroke-width="2"/><path d="M62.38 70a39.08 39.08 0 0 0 13.52-5.16 74 74 0 0 0 1.2-13.42M24.54 52.14a66.23 66.23 0 0 0 1.23 12.8 38.5 38.5 0 0 0 12.45 4.83" fill="none" stroke="#fd8204" stroke-miterlimit="10" stroke-width="2"/><path d="M66.46 58.34a20.89 20.89 0 0 0 3.36-10.28 119.18 119.18 0 0 0 .39-12.44c-6.85 2.1-9.25-4.9-9.25-4.9s-3.88 6.19-10.5 7.73A37.21 37.21 0 0 1 30 37.05a49.65 49.65 0 0 0 .42 10.86C31.8 58 37.94 66.57 50.18 66.71a20.09 20.09 0 0 0 8-1.49" fill="none" stroke="#fd8204" stroke-miterlimit="10"/></g></g></svg>