<svg xmlns="http://www.w3.org/2000/svg" width="80" height="80" viewBox="0 0 80 80"><title>убедительная просьба</title><g data-name="Слой 2"><g data-name="Слой 1"><path fill="none" d="M0 0h80v80H0z"/><path d="M30.87 53.88a29.31 29.31 0 0 1-9.48-3.68 56.33 56.33 0 0 1-.93-10.29s-2.9-26.82 18.86-26.56C61.5 13.61 59.63 40 59.63 40a62.82 62.82 0 0 1-.83 10.8c-2.65 1.72-5.45 2.41-9.54 3.22" fill="#dbc19f" stroke="#692f17" stroke-linejoin="round" stroke-width="1.5"/><path d="M36.26 52.5c-7.72 1.05-13.51 5.4-13.51 10.61v.51a48 48 0 0 0 17.09 3 48 48 0 0 0 17.09-3v-.51c0-5.21-5.78-9.56-13.51-10.61" fill="#f5f4f0" stroke="#692f17" stroke-miterlimit="10" stroke-width="1.5"/><path d="M36.26 51v1.45c0 1.35 1.62 2.45 3.62 2.45s3.63-1.1 3.63-2.45V51" fill="#f7e8d2" stroke="#692f17" stroke-miterlimit="10"/><path d="M54.5 37.44a88.68 88.68 0 0 0 .29-9.26c-5.09 1.56-6.88-3.64-6.88-3.64s-2.91 4.6-7.81 5.75a27.68 27.68 0 0 1-15.23-1 36.94 36.94 0 0 0 .31 8.08c1 7.51 5.6 13.88 14.71 14 8.86.06 14.2-6.68 14.61-13.93z" fill="#f7e8d2" stroke="#692f17" stroke-miterlimit="10"/><path d="M44.41 43.79a12.83 12.83 0 0 1-4.91.91 13 13 0 0 1-4.66-.81" fill="none" stroke="#692f17" stroke-linecap="round" stroke-miterlimit="10" stroke-width=".8"/><path d="M41.79 46.45a6.87 6.87 0 0 1-4.35 0M41.46 40.88a7.08 7.08 0 0 1-1.89.31 5.76 5.76 0 0 1-1.8-.29" fill="none" stroke="#692f17" stroke-linecap="round" stroke-miterlimit="10" stroke-width=".7"/><path d="M35.07 35.62a6 6 0 0 0-3.82-1.92 6 6 0 0 0-3.82 1.92" fill="none" stroke="#692f17" stroke-linecap="round" stroke-miterlimit="10"/><ellipse cx="31.26" cy="35.62" rx="1.67" ry="1.52" fill="#692f17"/><path d="M51.15 35.62a5.94 5.94 0 0 0-3.82-1.92 6 6 0 0 0-3.82 1.92" fill="none" stroke="#692f17" stroke-linecap="round" stroke-miterlimit="10"/><ellipse cx="47.33" cy="35.62" rx="1.67" ry="1.52" fill="#692f17"/><path d="M46.07 53.87c0 3.95-2.77 7.15-6.18 7.15s-6.18-3.2-6.18-7.15" fill="none" stroke="#692f17" stroke-linecap="square" stroke-miterlimit="10" stroke-width="1.5"/></g></g></svg>