<svg xmlns="http://www.w3.org/2000/svg" width="100" height="100" viewBox="0 0 100 100"><defs><clipPath id="a"><path fill="none" d="M5.77 94.23V10.76h83.3L5.77 94.23z"/></clipPath><clipPath id="b"><path fill="none" d="M94.23 7.77v83.47h-83.3l83.3-83.47z"/></clipPath></defs><g data-name="Слой 1"><path fill="none" d="M0 0h100v100H0z"/><g clip-path="url(#a)"><rect x="8.31" y="18.66" width="42.87" height="53.41" rx="2.48" ry="2.48" fill="none" stroke="#fd8204" stroke-linecap="round" stroke-miterlimit="10" stroke-width="2"/><path fill="none" stroke="#fd8204" stroke-linecap="round" stroke-miterlimit="10" d="M8.31 29.29h42.87M8.31 66.9h42.87"/><circle cx="29.75" cy="47.99" r="12.87" fill="none" stroke="#fd8204" stroke-linecap="round" stroke-miterlimit="10" stroke-width="2"/><path d="M35.63 48a7 7 0 0 1 2.06-5 9.37 9.37 0 1 0 0 9.91A7 7 0 0 1 35.63 48zM27 18.35v6.12A2.48 2.48 0 0 1 24.5 27H8.75" fill="none" stroke="#fd8204" stroke-linecap="round" stroke-miterlimit="10"/><circle cx="33.43" cy="24.1" r="1.45" fill="#fd8204"/><path d="M37.61 23.65a.45.45 0 1 1-.45.45.45.45 0 0 1 .45-.45m0-1a1.45 1.45 0 1 0 1.45 1.45 1.45 1.45 0 0 0-1.45-1.45zM41.79 23.65a.45.45 0 1 1-.45.45.45.45 0 0 1 .45-.45m0-1a1.45 1.45 0 1 0 1.45 1.45 1.45 1.45 0 0 0-1.45-1.45zM46 23.65a.45.45 0 1 1-.45.45.45.45 0 0 1 .45-.45m0-1a1.45 1.45 0 1 0 1.45 1.45A1.45 1.45 0 0 0 46 22.65z" fill="#fd8204"/><path d="M16.2 72.07a3 3 0 0 1-6.05 0" fill="none" stroke="#fd8204" stroke-miterlimit="10"/></g><g clip-path="url(#b)" fill="none" stroke="#fd8204" stroke-miterlimit="10"><path d="M73.48 48.43v5s-7.8 3.28-7.8 5v21.91a3.14 3.14 0 0 0 3.14 3.14h17.44a3.14 3.14 0 0 0 3.14-3.14V58.42c0-1.73-7.8-5-7.8-5v-5" stroke-linecap="round" stroke-width="2" fill-rule="evenodd"/><rect x="69.54" y="39.65" width="16.01" height="8.85" rx="2.27" ry="2.27" stroke-linecap="round" stroke-width="2"/><path d="M79.72 39.65V37h3a5.15 5.15 0 1 0-10.3 0h3v2.64" fill-rule="evenodd"/><path d="M65.68 63.23H89.4M73.33 53.66h8.42M65.68 75.49H89.4"/><path d="M65.68 79.78a21.24 21.24 0 1 1 3.86-34.37" stroke-linecap="round" stroke-width="2" fill-rule="evenodd"/><path d="M65.7 70.92a14.17 14.17 0 1 1 2.72-15.22" fill-rule="evenodd"/></g><path fill="none" stroke="#fd8204" stroke-linecap="round" stroke-miterlimit="10" stroke-width="2" d="M18.49 82.37l63.85-63.86"/></g></svg>