<svg xmlns="http://www.w3.org/2000/svg" width="100" height="100" viewBox="0 0 100 100"><title>информация</title><g data-name="Слой 2"><g data-name="Слой 1" fill="none"><path d="M0 0h100v100H0z"/><path d="M67.76 19.94h7A3.24 3.24 0 0 1 78 23.18v63.29a3.24 3.24 0 0 1-3.24 3.24H25.24A3.24 3.24 0 0 1 22 86.47V23.18a3.24 3.24 0 0 1 3.24-3.24h7" stroke="#fd8204" stroke-miterlimit="10" stroke-width="2"/><path stroke="#fd8204" stroke-linecap="round" stroke-miterlimit="10" d="M27.86 30H71v52H27.86z"/><path stroke="#fd8204" stroke-linecap="round" stroke-miterlimit="10" stroke-width="2" d="M44.72 39.43h18.85"/><circle cx="36.43" cy="39.43" r="2.09" stroke="#fd8204" stroke-linecap="round" stroke-miterlimit="10"/><path stroke="#fd8204" stroke-linecap="round" stroke-miterlimit="10" stroke-width="2" d="M44.72 49.94h18.85"/><circle cx="36.43" cy="49.94" r="2.09" stroke="#fd8204" stroke-linecap="round" stroke-miterlimit="10"/><path stroke="#fd8204" stroke-linecap="round" stroke-miterlimit="10" stroke-width="2" d="M44.72 60.45h18.85"/><circle cx="36.43" cy="60.45" r="2.09" stroke="#fd8204" stroke-linecap="round" stroke-miterlimit="10"/><path stroke="#fd8204" stroke-linecap="round" stroke-miterlimit="10" stroke-width="2" d="M44.72 70.95h18.85"/><circle cx="36.43" cy="70.95" r="2.09" stroke="#fd8204" stroke-linecap="round" stroke-miterlimit="10"/><path d="M43.76 15v-1.47A3.24 3.24 0 0 1 47 10.29h6a3.24 3.24 0 0 1 3.24 3.24V15" stroke="#fd8204" stroke-miterlimit="10" stroke-width="2"/><path d="M67.76 20.48v-2.19A3.24 3.24 0 0 0 64.52 15h-29a3.24 3.24 0 0 0-3.24 3.24v2.19z" stroke="#fd8204" stroke-linecap="round" stroke-miterlimit="10"/></g></g></svg>