<svg xmlns="http://www.w3.org/2000/svg" width="100" height="100" viewBox="0 0 100 100"><defs><clipPath id="a"><path fill="none" d="M6.56 21.89h37.11v63.95H6.56z"/></clipPath></defs><g data-name="Слой 2"><g data-name="Слой 1"><path fill="none" d="M0 0h100v100H0z"/><path d="M52.77 25.08h-6.23A2.88 2.88 0 0 0 43.67 28v56.22a2.88 2.88 0 0 0 2.88 2.88h44a2.88 2.88 0 0 0 2.88-2.88V28a2.88 2.88 0 0 0-2.88-2.88h-6.21" fill="none" stroke="#fd8204" stroke-miterlimit="10" stroke-width="2"/><path fill="none" stroke="#fd8204" stroke-linecap="round" stroke-miterlimit="10" d="M87.22 72.12v8.13H48.87V34.02h38.35V72.12z"/><path fill="none" stroke="#fd8204" stroke-linecap="round" stroke-miterlimit="10" stroke-width="2" d="M55.73 42.4h24.89M55.73 50.07h24.89M55.73 57.75h24.38M55.73 65.41h24.89"/><path d="M63 20.73v-1.35a2.88 2.88 0 0 1 2.88-2.88h5.33a2.88 2.88 0 0 1 2.88 2.88v1.35" fill="none" stroke="#fd8204" stroke-miterlimit="10" stroke-width="2"/><path d="M84.34 25.56v-1.95a2.88 2.88 0 0 0-2.88-2.88H55.65a2.88 2.88 0 0 0-2.88 2.88v1.95z" fill="none" stroke="#fd8204" stroke-linecap="round" stroke-miterlimit="10"/><g clip-path="url(#a)"><path d="M49.4 57.26v-12c0-2.09-1.78-3.16-3.77-3.78-10.32-3.27-10.44-10.84-10.44-10.84V26.33a.69.69 0 0 0-.68-.69h-4a.69.69 0 0 0-.69.69V46.4" fill="none" stroke="#fd8204" stroke-miterlimit="10" stroke-width="2"/><path fill="none" stroke="#fd8204" stroke-miterlimit="10" d="M29.76 30.64h5.09"/><path d="M16.39 34.49a6.93 6.93 0 0 1-2.28 5.71 22.52 22.52 0 0 1-3 2.11l.47.5a13.13 13.13 0 0 0 5.09-2.89c2.73-2.73 2.24-5.43 2.24-5.43zM13.42 33.81h-2.29a.44.44 0 0 1-.44-.44v-1.9a.44.44 0 0 1 .44-.44h2.29" fill="none" stroke="#fd8204" stroke-linecap="round" stroke-linejoin="round"/><path d="M19.8 43.22a9.13 9.13 0 0 0-6.41 8.71v5.12M31.63 57.4V52v-.06-.06a9.13 9.13 0 0 0-6.48-8.73" fill="none" stroke="#fd8204" stroke-miterlimit="10" stroke-width="2"/><path d="M26.46 30.53H14.3a.91.91 0 0 0-.91.91v2.14a.91.91 0 0 0 .91.91h4.61l1.64 4.84A.64.64 0 0 0 20 40v3.2h5.08V40a.64.64 0 0 0-.65-.65v-4.86h2.07a.91.91 0 0 0 .91-.91v-2.14a.91.91 0 0 0-.95-.91zM17.52 62.5h-5.89l2.87 18.19a3.54 3.54 0 0 0 3.5 3.54h28.55a3.54 3.54 0 0 0 3.54-3.54L53 62.5h-7.56M17.9 62.5H9.14a1.21 1.21 0 0 1-1.21-1.21v-2.82a1.21 1.21 0 0 1 1.21-1.21h46.3a1.21 1.21 0 0 1 1.21 1.21v2.82a1.21 1.21 0 0 1-1.21 1.21h-10" fill="none" stroke="#fd8204" stroke-linecap="round" stroke-linejoin="round" stroke-width="2"/><path fill="#fffffe" stroke="#fd8204" stroke-miterlimit="10" d="M24.75 39.78h-5"/><path fill="#5d3329" d="M20.3 72.55l4.04-4.05"/><path d="M20.3 72.84a.29.29 0 0 1-.21-.09.29.29 0 0 1 0-.41l4-4a.29.29 0 0 1 .42.41l-4 4a.29.29 0 0 1-.21.09z" fill="#fd8204"/><path fill="#5d3329" d="M18.13 70.87l4.58-4.57"/><path d="M18.13 71.17a.29.29 0 0 1-.21-.5l4.58-4.58a.29.29 0 0 1 .41.41l-4.58 4.58a.29.29 0 0 1-.2.09z" fill="#fd8204"/><path fill="#5d3329" d="M18.51 66.71l2.51-2.51"/><path d="M18.51 67a.29.29 0 0 1-.21-.5l2.51-2.5a.29.29 0 0 1 .41.42l-2.52 2.52a.29.29 0 0 1-.19.06zM38.69 77.85a1.57 1.57 0 0 1-1.58-1.55V76a1.66 1.66 0 0 1-1 .43H36a1.57 1.57 0 0 1-1.58-1.55l-.21-7.62c-.57 1.49-1.45 3.33-2.32 3.33h-.17a1.4 1.4 0 0 1-.91-.71c-.77-1.4.25-4.43.68-5.72l.11-.34a16.45 16.45 0 0 1 3.06-4.49v-1.65a.29.29 0 0 1 .23-.28 26.39 26.39 0 0 1 5.15-.49h.17a20 20 0 0 1 4.94.38.29.29 0 0 1 .2.28v5.76l.16 8.24A1.69 1.69 0 0 1 44 73.28h-.09a1.58 1.58 0 0 1-1-.33v1.5a1.69 1.69 0 0 1-1.59 1.7h-.02a1.57 1.57 0 0 1-.93-.3v.29a1.69 1.69 0 0 1-1.59 1.71zm-1-3.11v1.54a1 1 0 0 0 1 1h.06a1.1 1.1 0 0 0 1-1.11v-1.25a.29.29 0 0 1 .58-.08 1 1 0 0 0 1 .75 1.11 1.11 0 0 0 1.08-1.11l-.05-2.74a.3.3 0 0 1 .29-.3.29.29 0 0 1 .29.29 1 1 0 0 0 1 1A1.11 1.11 0 0 0 45 71.59l-.16-8.24v-5.54a25.84 25.84 0 0 0-4.56-.31h-.17a27.22 27.22 0 0 0-4.8.43v1.52a.3.3 0 0 1-.08.19s-2.47 2.67-3 4.35l-.11.35c-.37 1.11-1.36 4.08-.72 5.25a.81.81 0 0 0 .54.42c.57 0 1.64-2.29 2.31-4.44a.29.29 0 0 1 .57.08l.18 9.23a1 1 0 0 0 1 1 1.11 1.11 0 0 0 1.09-1.11.29.29 0 0 1 .29-.3.29.29 0 0 1 .29.29z" fill="#fd8204"/><path fill="#5d3329" d="M37.38 74.71l-.11-5.63"/><path d="M37.38 75a.29.29 0 0 1-.29-.29L37 69.09a.29.29 0 0 1 .29-.3.29.29 0 0 1 .29.29l.11 5.62a.29.29 0 0 1-.29.3z" fill="#fd8204"/><path fill="#5d3329" d="M40.05 74.9l-.12-6.36"/><path d="M40 75.19a.29.29 0 0 1-.29-.29l-.12-6.36a.29.29 0 0 1 .29-.3.29.29 0 0 1 .29.29l.12 6.36a.29.29 0 0 1-.29.3z" fill="#fd8204"/><path fill="#5d3329" d="M42.62 71.61l-.07-3.49"/><path d="M42.62 71.9a.29.29 0 0 1-.29-.29l-.07-3.5a.29.29 0 0 1 .29-.3.29.29 0 0 1 .29.29l.07 3.5a.29.29 0 0 1-.29.3z" fill="#fd8204"/><path fill="#5d3329" d="M34.47 66.32l-.05-2.25"/><path d="M34.47 66.61a.29.29 0 0 1-.29-.29v-2.25a.29.29 0 0 1 .29-.3.29.29 0 0 1 .29.29v2.25a.29.29 0 0 1-.29.3z" fill="#fd8204"/><path d="M32.62 63l.14-.24-.07.08a.29.29 0 0 0-.07.16z" fill="#5d3329"/><path d="M31.32 69.59a1.5 1.5 0 0 1-.07-.16c-.79 1.57-2.25 4.09-3.47 3.44-.43-.23.21-2.48 1.38-4.82a.29.29 0 0 0-.47-.34L22 74.29a1.09 1.09 0 0 1-1.51 0 1.07 1.07 0 0 1 0-1.51.29.29 0 1 0-.41-.41l-1.11 1.11a1.09 1.09 0 0 1-1.5 0 1.07 1.07 0 0 1 0-1.51l.9-.9a.29.29 0 0 0-.36-.46 1.08 1.08 0 0 1-1.32-.14 1.06 1.06 0 0 1 0-1.51l2-2a.29.29 0 1 0-.42-.41 1.09 1.09 0 0 1-1.51 0 1.07 1.07 0 0 1 0-1.51l5.93-5.93 1.28-1.28a26.13 26.13 0 0 1 5.74-.68c.51 0 1 0 1.48.06a19 19 0 0 1 4.14.72c.23 0 .62-.11 1.13-.18a16.33 16.33 0 0 0-5.22-1.09c-.49 0-1-.06-1.53-.06a26.42 26.42 0 0 0-5.75.67.34.34 0 0 0-.36.13l-1.29 1.29-5.93 5.93a1.65 1.65 0 0 0 1 2.81l-1.08 1.08a1.65 1.65 0 0 0 0 2.33 1.64 1.64 0 0 0 1 .47l-.2.2a1.65 1.65 0 0 0 0 2.34 1.69 1.69 0 0 0 2.33 0l.22-.22a1.65 1.65 0 0 0 2.81 1L28 69.24c-.66 1.57-1.34 3.68-.46 4.14a1.47 1.47 0 0 0 .7.18c1.4 0 2.67-2.07 3.47-3.64a.81.81 0 0 1-.39-.33z" fill="#fd8204"/></g></g></g></svg>