<svg xmlns="http://www.w3.org/2000/svg" width="70" height="70" viewBox="0 0 70 70"><g data-name="Слой 2"><g data-name="Слой 1"><path fill="none" d="M0 0h70v70H0z"/><path d="M55.91 9.63h-9.08a2.07 2.07 0 0 0-2.07 2.07v5.47h1.78v-3h9.37a2.07 2.07 0 0 0 2.09-2.1v-.38a2.07 2.07 0 0 0-2.09-2.06z" fill="#f7e8d2" stroke="#692f17" stroke-linejoin="round" stroke-width=".75"/><path d="M32.17 20.76c.55-2.5.94-4.8 3.2-4.8h11.19v4.42" fill="#d9d6cc" stroke="#692f17" stroke-linejoin="round" stroke-width=".75"/><path d="M46.52 50.5V18.71H34.61C22.72 21.3 13.2 50.48 13.2 50.48a1.17 1.17 0 0 0-1.2 1.18v6.78a1.18 1.18 0 0 0 1.17 1.18H44" fill="#fd8204" stroke="#692f17" stroke-linejoin="round" stroke-width="1.5"/><path fill="none" stroke="#692f17" stroke-linecap="round" stroke-linejoin="round" stroke-width=".75" d="M40.54 50.64H12.75"/><path d="M39.68 58.86H13.12a.35.35 0 0 1-.35-.35v-1.86H39.7z" fill="#d9d6cc"/><circle cx="43.69" cy="54.94" r="5.44" fill="#dfdbd1" stroke="#692f17" stroke-linejoin="round" stroke-width="1.5"/><circle cx="43.69" cy="54.94" r="2.64" fill="#f5f4f0" stroke="#692f17" stroke-linecap="round" stroke-linejoin="round" stroke-width=".75"/><path fill="none" stroke="#692f17" stroke-linecap="round" stroke-linejoin="round" stroke-width=".75" d="M12.36 56.27h25.87"/><path fill="none" stroke="#692f17" stroke-linejoin="round" stroke-width=".75" d="M14.56 56.23v3.17M17.41 56.23v3.17M20.25 56.23v3.17M23.1 56.23v3.17"/></g></g></svg>