<svg xmlns="http://www.w3.org/2000/svg" width="70" height="70" viewBox="0 0 70 70"><title>альпенизм_1</title><g data-name="Слой 2"><g data-name="Слой 1"><path fill="none" d="M0 0h70v70H0z"/><rect x="31.57" y="4.53" width="5.45" height="54.17" rx="2" ry="2" transform="rotate(82.52 34.295 31.619)" fill="#f7e8d2" stroke="#692f17" stroke-linejoin="round" stroke-width="1.5"/><path fill="none" stroke="#692f17" stroke-linejoin="round" stroke-width=".75" d="M55.08 26.1l4.69 4.86M51.14 26.61l4.69 4.87M47.2 27.13L51.89 32M43.26 27.65l4.69 4.86M39.32 28.16l4.69 4.87M35.38 28.68l4.69 4.87M31.44 29.2l4.69 4.87M27.5 29.72l4.69 4.86M23.56 30.23l4.69 4.87M19.62 30.75l4.69 4.87M15.68 31.27l4.69 4.87M11.74 31.78l4.69 4.87"/><path fill="none" stroke="#692f17" stroke-linejoin="round" stroke-width=".8" d="M8.11 32.67l4.38 4.5"/><rect x="32.27" y="9.94" width="5.45" height="54.17" rx="2" ry="2" transform="rotate(82.52 35 37.021)" fill="#f7e8d2" stroke="#692f17" stroke-linejoin="round" stroke-width="1.5"/><path fill="none" stroke="#692f17" stroke-linejoin="round" stroke-width=".75" d="M55.79 31.5l4.69 4.87M51.85 32.02l4.69 4.86M47.91 32.53l4.69 4.87M43.97 33.05l4.69 4.87M40.03 33.57l4.69 4.87M36.09 34.09l4.69 4.86M32.15 34.6l4.69 4.87M28.21 35.12l4.69 4.87M24.27 35.64l4.69 4.87M20.33 36.15l4.69 4.87M16.39 36.67l4.69 4.87M12.45 37.19l4.69 4.87M8.82 38.08l4.37 4.49"/><rect x="32.98" y="15.34" width="5.45" height="54.17" rx="2" ry="2" transform="rotate(82.52 35.71 42.43)" fill="#f7e8d2" stroke="#692f17" stroke-linejoin="round" stroke-width="1.5"/><path fill="none" stroke="#692f17" stroke-linejoin="round" stroke-width=".8" d="M56.5 36.9l4.69 4.87M52.56 37.42l4.69 4.87M48.62 37.94l4.69 4.87"/><path fill="none" stroke="#692f17" stroke-linejoin="round" stroke-width=".75" d="M44.68 38.46l4.69 4.86M40.74 38.97l4.69 4.87M36.8 39.49l4.69 4.87M32.86 40.01l4.69 4.86M28.92 40.52l4.69 4.87M24.98 41.04l4.69 4.87M21.04 41.56l4.69 4.87M17.1 42.08l4.69 4.86M13.15 42.59l4.69 4.87M9.53 43.48l4.37 4.5"/><path d="M47.81 21.93c-.33-1.63-2.05-4-4.67-5.64a9.59 9.59 0 0 0-5.82-1.23s-7 1.85-9.22 3a8.56 8.56 0 0 0-3.62 3.35A10 10 0 0 0 23.16 25v21.56c0 .44 2.47 8.53 9.52 8.47a9.27 9.27 0 0 0 8.82-6.61s3.51-12.3 5.16-17.9 1.48-6.96 1.15-8.59zm-3.6 3.9l-6.16 21.72a5.75 5.75 0 0 1-11.2-1.83c-.18-1.59.09-21 .09-21a3.41 3.41 0 0 1 2-3.1 62.35 62.35 0 0 1 8.68-2.94 8.87 8.87 0 0 1 1.08-.16 5.74 5.74 0 0 1 5.54 7.3z" fill="#d9d6cc" stroke="#692f17" stroke-linejoin="round" stroke-width="1.5"/><path fill="#fd8204" stroke="#692f17" stroke-linejoin="round" stroke-width="1.5" d="M22.2 24.86h5.25v18.43H22.2z"/><path fill="#dfdbd1" stroke="#692f17" stroke-linejoin="round" stroke-width=".75" d="M22.19 29.11l5.25-3.89M22.19 32.66l5.25-3.89M22.19 36.21l5.25-3.89M22.19 39.76l5.25-3.89M22.19 43.3l5.25-3.89"/><path d="M36.37 34.1l22.47-2.95a2.73 2.73 0 1 0-.71-5.4L33.19 29" fill="#f7e8d2" stroke="#692f17" stroke-linejoin="round" stroke-width="1.5"/><path fill="none" stroke="#692f17" stroke-linejoin="round" stroke-width=".75" d="M55.13 26.1l4.69 4.86M51.19 26.61l4.69 4.87M47.24 27.13l4.7 4.87M43.3 27.65l4.69 4.86M39.36 28.16l4.69 4.87M35.42 28.68l4.69 4.87"/><path d="M38.86 39.27l20.69-2.72a2.73 2.73 0 0 0-.71-5.4L36 34.08" fill="#f7e8d2" stroke="#692f17" stroke-linejoin="round" stroke-width="1.5"/><path fill="none" stroke="#692f17" stroke-linejoin="round" stroke-width=".75" d="M55.84 31.5l4.69 4.87M51.89 32.02l4.7 4.86M47.95 32.53l4.69 4.87M44.01 33.05l4.69 4.87M40.07 33.57l4.69 4.87M37.54 35.55L40.82 39"/><path d="M38.87 44.68L60.26 42a2.73 2.73 0 0 0-.71-5.4l-21.87 2.81" fill="#f7e8d2" stroke="#692f17" stroke-linecap="round" stroke-linejoin="round" stroke-width="1.5"/><path fill="none" stroke="#692f17" stroke-linejoin="round" stroke-width=".75" d="M56.54 36.9l4.7 4.87M52.6 37.42l4.69 4.87M48.66 37.94l4.69 4.87M44.72 38.46l4.69 4.86M40.78 38.97l4.69 4.87M36.85 39.65l4.69 4.86"/><path fill="none" stroke="#692f17" stroke-linejoin="round" stroke-width=".8" d="M31.77 29.55l4.69 4.86M36.3 34.26l4.69 4.86"/><path d="M38.08 44.1l2-.33-1.45-.86s-1.17.43-.55 1.19z" fill="#f8f3ee"/></g></g></svg>