<svg xmlns="http://www.w3.org/2000/svg" width="70" height="70" viewBox="0 0 70 70"><title>прооиз-помешения</title><g id="Слой_2" data-name="Слой 2"><g id="Слой_1-2" data-name="Слой 1"><rect width="70" height="70" fill="none"/><path d="M55.91,9.63H46.83a2.07,2.07,0,0,0-2.07,2.07v5.47h1.78v-3h9.37A2.07,2.07,0,0,0,58,12.07v-.38A2.07,2.07,0,0,0,55.91,9.63Z" fill="#f7e8d2" stroke="#692f17" stroke-linejoin="round" stroke-width="0.75"/><path d="M32.17,20.76c.55-2.5.94-4.8,3.2-4.8H46.56v4.42" fill="#d9d6cc" stroke="#692f17" stroke-linejoin="round" stroke-width="0.75"/><path d="M46.52,50.5V18.71H34.61C22.72,21.3,13.2,50.48,13.2,50.48A1.17,1.17,0,0,0,12,51.66v6.78a1.18,1.18,0,0,0,1.17,1.18H44" fill="#fd8204" stroke="#692f17" stroke-linejoin="round" stroke-width="1.5"/><line x1="40.54" y1="50.64" x2="12.75" y2="50.64" fill="none" stroke="#692f17" stroke-linecap="round" stroke-linejoin="round" stroke-width="0.75"/><path d="M39.68,58.86H13.12a.35.35,0,0,1-.35-.35l0-1.86H39.7Z" fill="#d9d6cc"/><circle cx="43.69" cy="54.94" r="5.44" fill="#dfdbd1" stroke="#692f17" stroke-linejoin="round" stroke-width="1.5"/><circle cx="43.69" cy="54.94" r="2.64" fill="#f5f4f0" stroke="#692f17" stroke-linecap="round" stroke-linejoin="round" stroke-width="0.75"/><line x1="12.36" y1="56.27" x2="38.23" y2="56.27" fill="none" stroke="#692f17" stroke-linecap="round" stroke-linejoin="round" stroke-width="0.75"/><line x1="14.56" y1="56.23" x2="14.56" y2="59.4" fill="none" stroke="#692f17" stroke-linejoin="round" stroke-width="0.75"/><line x1="17.41" y1="56.23" x2="17.41" y2="59.4" fill="none" stroke="#692f17" stroke-linejoin="round" stroke-width="0.75"/><line x1="20.25" y1="56.23" x2="20.25" y2="59.4" fill="none" stroke="#692f17" stroke-linejoin="round" stroke-width="0.75"/><line x1="23.1" y1="56.23" x2="23.1" y2="59.4" fill="none" stroke="#692f17" stroke-linejoin="round" stroke-width="0.75"/></g></g></svg>