<svg xmlns="http://www.w3.org/2000/svg" width="70" height="70" viewBox="0 0 70 70"><title>альпенизм_1</title><g id="Слой_2" data-name="Слой 2"><g id="Слой_1-2" data-name="Слой 1"><rect width="70" height="70" fill="none"/><rect x="31.57" y="4.53" width="5.45" height="54.17" rx="2" ry="2" transform="translate(61.18 -6.5) rotate(82.52)" fill="#f7e8d2" stroke="#692f17" stroke-linejoin="round" stroke-width="1.5"/><line x1="55.08" y1="26.1" x2="59.77" y2="30.96" fill="none" stroke="#692f17" stroke-linejoin="round" stroke-width="0.75"/><line x1="51.14" y1="26.61" x2="55.83" y2="31.48" fill="none" stroke="#692f17" stroke-linejoin="round" stroke-width="0.75"/><line x1="47.2" y1="27.13" x2="51.89" y2="32" fill="none" stroke="#692f17" stroke-linejoin="round" stroke-width="0.75"/><line x1="43.26" y1="27.65" x2="47.95" y2="32.51" fill="none" stroke="#692f17" stroke-linejoin="round" stroke-width="0.75"/><line x1="39.32" y1="28.16" x2="44.01" y2="33.03" fill="none" stroke="#692f17" stroke-linejoin="round" stroke-width="0.75"/><line x1="35.38" y1="28.68" x2="40.07" y2="33.55" fill="none" stroke="#692f17" stroke-linejoin="round" stroke-width="0.75"/><line x1="31.44" y1="29.2" x2="36.13" y2="34.07" fill="none" stroke="#692f17" stroke-linejoin="round" stroke-width="0.75"/><line x1="27.5" y1="29.72" x2="32.19" y2="34.58" fill="none" stroke="#692f17" stroke-linejoin="round" stroke-width="0.75"/><line x1="23.56" y1="30.23" x2="28.25" y2="35.1" fill="none" stroke="#692f17" stroke-linejoin="round" stroke-width="0.75"/><line x1="19.62" y1="30.75" x2="24.31" y2="35.62" fill="none" stroke="#692f17" stroke-linejoin="round" stroke-width="0.75"/><line x1="15.68" y1="31.27" x2="20.37" y2="36.14" fill="none" stroke="#692f17" stroke-linejoin="round" stroke-width="0.75"/><line x1="11.74" y1="31.78" x2="16.43" y2="36.65" fill="none" stroke="#692f17" stroke-linejoin="round" stroke-width="0.75"/><line x1="8.11" y1="32.67" x2="12.49" y2="37.17" fill="none" stroke="#692f17" stroke-linejoin="round" stroke-width="0.8"/><rect x="32.27" y="9.94" width="5.45" height="54.17" rx="2" ry="2" transform="translate(67.15 -2.5) rotate(82.52)" fill="#f7e8d2" stroke="#692f17" stroke-linejoin="round" stroke-width="1.5"/><line x1="55.79" y1="31.5" x2="60.48" y2="36.37" fill="none" stroke="#692f17" stroke-linejoin="round" stroke-width="0.75"/><line x1="51.85" y1="32.02" x2="56.54" y2="36.88" fill="none" stroke="#692f17" stroke-linejoin="round" stroke-width="0.75"/><line x1="47.91" y1="32.53" x2="52.6" y2="37.4" fill="none" stroke="#692f17" stroke-linejoin="round" stroke-width="0.75"/><line x1="43.97" y1="33.05" x2="48.66" y2="37.92" fill="none" stroke="#692f17" stroke-linejoin="round" stroke-width="0.75"/><line x1="40.03" y1="33.57" x2="44.72" y2="38.44" fill="none" stroke="#692f17" stroke-linejoin="round" stroke-width="0.75"/><line x1="36.09" y1="34.09" x2="40.78" y2="38.95" fill="none" stroke="#692f17" stroke-linejoin="round" stroke-width="0.75"/><line x1="32.15" y1="34.6" x2="36.84" y2="39.47" fill="none" stroke="#692f17" stroke-linejoin="round" stroke-width="0.75"/><line x1="28.21" y1="35.12" x2="32.9" y2="39.99" fill="none" stroke="#692f17" stroke-linejoin="round" stroke-width="0.75"/><line x1="24.27" y1="35.64" x2="28.96" y2="40.51" fill="none" stroke="#692f17" stroke-linejoin="round" stroke-width="0.75"/><line x1="20.33" y1="36.15" x2="25.02" y2="41.02" fill="none" stroke="#692f17" stroke-linejoin="round" stroke-width="0.75"/><line x1="16.39" y1="36.67" x2="21.08" y2="41.54" fill="none" stroke="#692f17" stroke-linejoin="round" stroke-width="0.75"/><line x1="12.45" y1="37.19" x2="17.14" y2="42.06" fill="none" stroke="#692f17" stroke-linejoin="round" stroke-width="0.75"/><line x1="8.82" y1="38.08" x2="13.19" y2="42.57" fill="none" stroke="#692f17" stroke-linejoin="round" stroke-width="0.75"/><rect x="32.98" y="15.34" width="5.45" height="54.17" rx="2" ry="2" transform="translate(73.13 1.5) rotate(82.52)" fill="#f7e8d2" stroke="#692f17" stroke-linejoin="round" stroke-width="1.5"/><line x1="56.5" y1="36.9" x2="61.19" y2="41.77" fill="none" stroke="#692f17" stroke-linejoin="round" stroke-width="0.8"/><line x1="52.56" y1="37.42" x2="57.25" y2="42.29" fill="none" stroke="#692f17" stroke-linejoin="round" stroke-width="0.8"/><line x1="48.62" y1="37.94" x2="53.31" y2="42.81" fill="none" stroke="#692f17" stroke-linejoin="round" stroke-width="0.8"/><line x1="44.68" y1="38.46" x2="49.37" y2="43.32" fill="none" stroke="#692f17" stroke-linejoin="round" stroke-width="0.75"/><line x1="40.74" y1="38.97" x2="45.43" y2="43.84" fill="none" stroke="#692f17" stroke-linejoin="round" stroke-width="0.75"/><line x1="36.8" y1="39.49" x2="41.49" y2="44.36" fill="none" stroke="#692f17" stroke-linejoin="round" stroke-width="0.75"/><line x1="32.86" y1="40.01" x2="37.55" y2="44.87" fill="none" stroke="#692f17" stroke-linejoin="round" stroke-width="0.75"/><line x1="28.92" y1="40.52" x2="33.61" y2="45.39" fill="none" stroke="#692f17" stroke-linejoin="round" stroke-width="0.75"/><line x1="24.98" y1="41.04" x2="29.67" y2="45.91" fill="none" stroke="#692f17" stroke-linejoin="round" stroke-width="0.75"/><line x1="21.04" y1="41.56" x2="25.73" y2="46.43" fill="none" stroke="#692f17" stroke-linejoin="round" stroke-width="0.75"/><line x1="17.1" y1="42.08" x2="21.79" y2="46.94" fill="none" stroke="#692f17" stroke-linejoin="round" stroke-width="0.75"/><line x1="13.15" y1="42.59" x2="17.84" y2="47.46" fill="none" stroke="#692f17" stroke-linejoin="round" stroke-width="0.75"/><line x1="9.53" y1="43.48" x2="13.9" y2="47.98" fill="none" stroke="#692f17" stroke-linejoin="round" stroke-width="0.75"/><path d="M47.81,21.93c-.33-1.63-2.05-4-4.67-5.64a9.59,9.59,0,0,0-5.82-1.23s-7,1.85-9.22,3a8.56,8.56,0,0,0-3.62,3.35A10,10,0,0,0,23.16,25s0,21.12,0,21.56,2.47,8.53,9.52,8.47a9.27,9.27,0,0,0,8.82-6.61s3.51-12.3,5.16-17.9S48.14,23.56,47.81,21.93Zm-3.6,3.9L38.05,47.55h0a5.75,5.75,0,0,1-11.2-1.83c-.18-1.59.09-21,.09-21a3.41,3.41,0,0,1,2-3.1,62.35,62.35,0,0,1,8.68-2.94,8.87,8.87,0,0,1,1.08-.16,5.74,5.74,0,0,1,5.54,7.3Z" fill="#d9d6cc" stroke="#692f17" stroke-linejoin="round" stroke-width="1.5"/><rect x="22.2" y="24.86" width="5.25" height="18.43" fill="#fd8204" stroke="#692f17" stroke-linejoin="round" stroke-width="1.5"/><line x1="22.19" y1="29.11" x2="27.44" y2="25.22" fill="#dfdbd1" stroke="#692f17" stroke-linejoin="round" stroke-width="0.75"/><line x1="22.19" y1="32.66" x2="27.44" y2="28.77" fill="#dfdbd1" stroke="#692f17" stroke-linejoin="round" stroke-width="0.75"/><line x1="22.19" y1="36.21" x2="27.44" y2="32.32" fill="#dfdbd1" stroke="#692f17" stroke-linejoin="round" stroke-width="0.75"/><line x1="22.19" y1="39.76" x2="27.44" y2="35.87" fill="#dfdbd1" stroke="#692f17" stroke-linejoin="round" stroke-width="0.75"/><line x1="22.19" y1="43.3" x2="27.44" y2="39.41" fill="#dfdbd1" stroke="#692f17" stroke-linejoin="round" stroke-width="0.75"/><path d="M36.37,34.1l22.47-2.95a2.73,2.73,0,1,0-.71-5.4L33.19,29" fill="#f7e8d2" stroke="#692f17" stroke-linejoin="round" stroke-width="1.5"/><line x1="55.13" y1="26.1" x2="59.82" y2="30.96" fill="none" stroke="#692f17" stroke-linejoin="round" stroke-width="0.75"/><line x1="51.19" y1="26.61" x2="55.88" y2="31.48" fill="none" stroke="#692f17" stroke-linejoin="round" stroke-width="0.75"/><line x1="47.24" y1="27.13" x2="51.94" y2="32" fill="none" stroke="#692f17" stroke-linejoin="round" stroke-width="0.75"/><line x1="43.3" y1="27.65" x2="47.99" y2="32.51" fill="none" stroke="#692f17" stroke-linejoin="round" stroke-width="0.75"/><line x1="39.36" y1="28.16" x2="44.05" y2="33.03" fill="none" stroke="#692f17" stroke-linejoin="round" stroke-width="0.75"/><line x1="35.42" y1="28.68" x2="40.11" y2="33.55" fill="none" stroke="#692f17" stroke-linejoin="round" stroke-width="0.75"/><path d="M38.86,39.27l20.69-2.72a2.73,2.73,0,0,0-.71-5.4L36,34.08" fill="#f7e8d2" stroke="#692f17" stroke-linejoin="round" stroke-width="1.5"/><line x1="55.84" y1="31.5" x2="60.53" y2="36.37" fill="none" stroke="#692f17" stroke-linejoin="round" stroke-width="0.75"/><line x1="51.89" y1="32.02" x2="56.59" y2="36.88" fill="none" stroke="#692f17" stroke-linejoin="round" stroke-width="0.75"/><line x1="47.95" y1="32.53" x2="52.64" y2="37.4" fill="none" stroke="#692f17" stroke-linejoin="round" stroke-width="0.75"/><line x1="44.01" y1="33.05" x2="48.7" y2="37.92" fill="none" stroke="#692f17" stroke-linejoin="round" stroke-width="0.75"/><line x1="40.07" y1="33.57" x2="44.76" y2="38.44" fill="none" stroke="#692f17" stroke-linejoin="round" stroke-width="0.75"/><path d="M37.54,35.55,40.82,39" fill="none" stroke="#692f17" stroke-linejoin="round" stroke-width="0.75"/><path d="M38.87,44.68,60.26,42a2.73,2.73,0,0,0-.71-5.4L37.68,39.41" fill="#f7e8d2" stroke="#692f17" stroke-linecap="round" stroke-linejoin="round" stroke-width="1.5"/><line x1="56.54" y1="36.9" x2="61.24" y2="41.77" fill="none" stroke="#692f17" stroke-linejoin="round" stroke-width="0.75"/><line x1="52.6" y1="37.42" x2="57.29" y2="42.29" fill="none" stroke="#692f17" stroke-linejoin="round" stroke-width="0.75"/><line x1="48.66" y1="37.94" x2="53.35" y2="42.81" fill="none" stroke="#692f17" stroke-linejoin="round" stroke-width="0.75"/><line x1="44.72" y1="38.46" x2="49.41" y2="43.32" fill="none" stroke="#692f17" stroke-linejoin="round" stroke-width="0.75"/><line x1="40.78" y1="38.97" x2="45.47" y2="43.84" fill="none" stroke="#692f17" stroke-linejoin="round" stroke-width="0.75"/><line x1="36.85" y1="39.65" x2="41.54" y2="44.51" fill="none" stroke="#692f17" stroke-linejoin="round" stroke-width="0.75"/><line x1="31.77" y1="29.55" x2="36.46" y2="34.41" fill="none" stroke="#692f17" stroke-linejoin="round" stroke-width="0.8"/><line x1="36.3" y1="34.26" x2="40.99" y2="39.12" fill="none" stroke="#692f17" stroke-linejoin="round" stroke-width="0.8"/><path d="M38.08,44.1l2-.33-1.45-.86S37.46,43.34,38.08,44.1Z" fill="#f8f3ee"/></g></g></svg>