<svg xmlns="http://www.w3.org/2000/svg" width="70" height="70" viewBox="0 0 70 70"><g data-name="Слой 2"><g data-name="Слой 1"><path fill="none" d="M0 0h70v70H0z"/><rect x="2.96" y="41.53" width="34.6" height="8.23" rx="1.39" ry="1.39" fill="#dfdbd1" stroke="#692f17" stroke-linecap="round" stroke-linejoin="round" stroke-width="1.5"/><path d="M37.23 40.25A1.28 1.28 0 0 1 36 41.53H5.22a1.28 1.28 0 0 1-1.28-1.28A1.28 1.28 0 0 1 5.22 39H36a1.28 1.28 0 0 1 1.28 1.28z" fill="#f5f4f0" stroke="#692f17" stroke-linecap="round" stroke-linejoin="round" stroke-width="1.5"/><rect x="3.94" y="31.45" width="34.27" height="7.52" rx="1.39" ry="1.39" fill="#f5f4f0" stroke="#692f17" stroke-linecap="round" stroke-linejoin="round" stroke-width="1.5"/><rect x="2.96" y="26.07" width="36.01" height="5.37" rx="1.39" ry="1.39" fill="#dfdbd1" stroke="#692f17" stroke-linecap="round" stroke-linejoin="round" stroke-width="1.5"/><path d="M37.58 25a1.28 1.28 0 0 1-1.39 1.12H5.33A1.28 1.28 0 0 1 3.94 25v-5a1.28 1.28 0 0 1 1.39-1.12h30.86A1.28 1.28 0 0 1 37.58 20z" fill="#f5f4f0" stroke="#692f17" stroke-linecap="round" stroke-linejoin="round" stroke-width="1.5"/><path fill="none" stroke="#692f17" stroke-linecap="round" stroke-linejoin="round" stroke-width=".75" d="M4.34 21.75h32.89M12.33 23.7h24.9M2.96 28.76h27.73M37.58 36.6H8.33M37.23 45.65H3.25"/><path d="M56.16 45.47L53.83 33s-17.5-.08-23.55 1.45a26.53 26.53 0 0 0-11.45 5.75c-4.39 3.8-8.76 12.66-8.76 12.66h42.79a7.37 7.37 0 0 1 3.3-7.38zM36 45c-4.89.48-9.66.73-10-1.43s3.32-4.55 8.17-5.31 10.11.6 10.45 2.77S43.77 44.26 36 45z" fill="#fd8204" stroke="#692f17" stroke-linecap="round" stroke-linejoin="round" stroke-width="1.5"/><path d="M52 33.38h1.51l2.23 11.92a7.81 7.81 0 0 0-1.42 1.27z" fill="#f4e5d0"/><path d="M53.21 33.75l2.12 11.39a8.18 8.18 0 0 0-.76.65l-2.11-12h.75m.18-.75h-1.83l2.54 14.43a7.52 7.52 0 0 1 2.06-2L53.83 33z" fill="#692f17"/><path d="M46.31 40.78c-.49-3.08-5.07-4.46-9.39-4.46a19.7 19.7 0 0 0-3.06.24c-5.23.83-10.21 3.6-9.63 7.31.51 3.24 4.86 3.24 6.49 3.24s3.71-.17 5.4-.34c5.84-.57 8.33-1.32 9.52-2.86a4 4 0 0 0 .67-3.13zM36 45c-4.89.48-9.66.73-10-1.43s3.32-4.55 8.17-5.31 10.11.6 10.45 2.77S43.77 44.26 36 45z" fill="#f4e5d0" stroke="#692f17" stroke-linecap="round" stroke-linejoin="round" stroke-width=".75"/><path d="M53.63 53.82c0 .67-.39 1.21-.88 1.21h-43c-.49 0-.88-.54-.88-1.21 0-.67.39-1.21.88-1.21h43c.49 0 .88.54.88 1.21zM49.31 30.77A2.26 2.26 0 0 0 47.05 33c1.77 0 3.33-.06 4.51-.07a2.26 2.26 0 0 0-2.25-2.16zM55.52 38.21c-.43.08-.54-.33-.62-.76l-.42-2.3c-.08-.43-.15-.84.28-.92l2.65-.16a.79.79 0 0 1 .92.64l.31 1.76a.79.79 0 0 1-.64.92z" fill="#ded9cf" stroke="#692f17" stroke-linecap="round" stroke-linejoin="round" stroke-width="1.5"/><path d="M58.67 35.39s5.11-.82 6.17 2.94c1.57 5.58-7.2 7.46-6.17 12.68 1.23 6.27 9.77 3.14 9.77 3.14" fill="none" stroke="#692f17" stroke-linecap="round" stroke-linejoin="round" stroke-width="1.5"/><path d="M36 45a42.54 42.54 0 0 0 5.39-.79l-.05-.63A1.17 1.17 0 0 0 40 42.54l-9 .78a1.17 1.17 0 0 0-1.06 1.26l.07.77A48.11 48.11 0 0 0 36 45z" fill="#ded9cf" stroke="#692f17" stroke-linecap="round" stroke-linejoin="round" stroke-width=".75"/></g></g></svg>