<svg xmlns="http://www.w3.org/2000/svg" viewBox="0 0 329 102"><title>Дет.вещи_1</title><path fill="none" d="M0 0h329v102H0z"/><path d="M70.43 39c-.83-5.75-2-7.37-2-7.37-1.25 0-2.72 2.14-2.89 5.14l-.81 13A7.66 7.66 0 0 0 69 51.23a5.38 5.38 0 0 0 3.33-1.41zM29.49 26.9l-5.06 15.54s1.74 3.32 4.71 2.85" fill="none" stroke="#353535" stroke-linejoin="round" stroke-width="2"/><path d="M68.13 51.09V71.9l-12.7 13.36-16.24-2.33-9.71-15.3V26.85l11.38-5.19a42.26 42.26 0 0 0 8 1.87 25.79 25.79 0 0 0 8.4-.54l10.8 8.53M57.37 23.53a8.39 8.39 0 0 1-16.72-1.42M72.78 49.3a6.9 6.9 0 0 0 2.42.47 5.44 5.44 0 0 0 3.33-1.41L76.6 37.58c-.83-5.75-2-7.37-2-7.37-1.26 0-2.72 2.14-2.9 5.14L71.16 43" fill="none" stroke="#353535" stroke-linejoin="round" stroke-width="2"/><path d="M43.07 22l4-1.8a24.69 24.69 0 0 0 7.71 2.2 25.3 25.3 0 0 0 8.7-.87l10.84 8.52M74.29 49.67v20.8L61.55 83.84l-4.82-.69M63.53 22.1A8.2 8.2 0 0 1 62 26.33M79 47.88a6.9 6.9 0 0 0 2.42.47 5.38 5.38 0 0 0 3.33-1.41l-1.92-10.79c-.83-5.75-2-7.36-2-7.36-1.25 0-2.72 2.13-2.9 5.13l-.5 7.63" fill="none" stroke="#353535" stroke-linejoin="round" stroke-width="2"/><path d="M48.88 21l4.37-2.22A24.94 24.94 0 0 0 61 21a25.57 25.57 0 0 0 8.75-.89l10.84 8.51M80.51 48.25v20.8L67.77 82.42l-4.82-.7M69.76 20.68a8.41 8.41 0 0 1-1.58 4.23" fill="none" stroke="#353535" stroke-linejoin="round" stroke-width="2"/><path d="M40.83 48.1l-.09 4.58c0 4.22 3.92 7.65 7.93 7.71a7.69 7.69 0 0 0 7.6-7.66v-3.54z" fill="none" stroke="#ff5a19" stroke-linejoin="round" stroke-width="1.5"/><path fill="none" d="M15.43 12.5h77v77h-77z"/><path d="M180.79 39c-.83-5.75-2-7.37-2-7.37-1.25 0-2.72 2.14-2.89 5.14l-.81 13a7.66 7.66 0 0 0 4.25 1.46 5.38 5.38 0 0 0 3.33-1.41zM139.84 26.9l-5.09 15.54s1.74 3.32 4.71 2.85" fill="none" stroke="#353535" stroke-linejoin="round" stroke-width="2"/><path d="M178.48 51.09V71.9l-12.75 13.36-16.19-2.33-9.71-15.3V26.85l11.38-5.19a42.26 42.26 0 0 0 8 1.87 25.81 25.81 0 0 0 8.4-.54l10.8 8.53M167.72 23.53A8.39 8.39 0 0 1 151 22.11M183.13 49.3a6.9 6.9 0 0 0 2.42.47 5.44 5.44 0 0 0 3.33-1.41L187 37.58c-.83-5.75-1.95-7.37-1.95-7.37-1.26 0-2.72 2.14-2.9 5.14l-.59 7.65" fill="none" stroke="#353535" stroke-linejoin="round" stroke-width="2"/><path d="M153.42 22l4-1.8a24.59 24.59 0 0 0 7.66 2.2 25.54 25.54 0 0 0 8.74-.89l10.84 8.52M184.64 49.67v20.8L171.9 83.84l-4.82-.69M173.88 22.1a8.23 8.23 0 0 1-1.6 4.23M189.35 47.88a6.9 6.9 0 0 0 2.42.47 5.38 5.38 0 0 0 3.33-1.41l-1.92-10.79c-.83-5.75-2-7.36-2-7.36-1.25 0-2.72 2.13-2.9 5.13l-.54 7.63" fill="none" stroke="#353535" stroke-linejoin="round" stroke-width="2"/><path d="M159.28 21l4.37-2.22a25.07 25.07 0 0 0 7.63 2.22 25.62 25.62 0 0 0 8.75-.89l10.84 8.51M190.87 48.25v20.8l-12.75 13.37-4.82-.7M180.11 20.68a8.51 8.51 0 0 1-1.58 4.23" fill="none" stroke="#353535" stroke-linejoin="round" stroke-width="2"/><path d="M151.18 48.1l-.09 4.58c0 4.22 3.92 7.65 7.93 7.71a7.69 7.69 0 0 0 7.6-7.66v-3.54z" fill="none" stroke="#ff5a19" stroke-linejoin="round" stroke-width="1.5"/><path fill="none" d="M125.78 12.5h77v77h-77z"/><path d="M291.16 39c-.83-5.75-2-7.37-2-7.37-1.25 0-2.72 2.14-2.89 5.14l-.81 13a7.66 7.66 0 0 0 4.25 1.46 5.36 5.36 0 0 0 3.29-1.41zM250.22 26.9l-5.06 15.54s1.74 3.32 4.71 2.85" fill="none" stroke="#353535" stroke-linejoin="round" stroke-width="2"/><path d="M288.86 51.09V71.9l-12.7 13.36L260 82.93l-9.71-15.3V26.85l11.38-5.19a42.17 42.17 0 0 0 8.05 1.87 25.79 25.79 0 0 0 8.4-.54l10.8 8.53M278.1 23.53a8.39 8.39 0 1 1-16.72-1.42M293.51 49.3a6.9 6.9 0 0 0 2.42.47 5.42 5.42 0 0 0 3.33-1.41l-1.93-10.78c-.83-5.75-1.95-7.37-1.95-7.37-1.26 0-2.72 2.14-2.9 5.14l-.54 7.65" fill="none" stroke="#353535" stroke-linejoin="round" stroke-width="2"/><path d="M263.8 22l3.95-1.8a24.77 24.77 0 0 0 7.71 2.2 25.27 25.27 0 0 0 8.7-.87L295 30.09M295.02 49.67v20.8l-12.74 13.37-4.82-.69M284.26 22.1a8.2 8.2 0 0 1-1.58 4.23M299.73 47.88a7 7 0 0 0 2.42.47 5.36 5.36 0 0 0 3.33-1.41l-1.92-10.79c-.83-5.75-2-7.36-2-7.36-1.25 0-2.72 2.13-2.9 5.13l-.5 7.63" fill="none" stroke="#353535" stroke-linejoin="round" stroke-width="2"/><path d="M269.61 21l4.39-2.18a24.94 24.94 0 0 0 7.7 2.22 25.57 25.57 0 0 0 8.75-.89l10.84 8.51M301.24 48.25v20.8L288.5 82.42l-4.82-.7M290.49 20.68a8.41 8.41 0 0 1-1.58 4.23" fill="none" stroke="#353535" stroke-linejoin="round" stroke-width="2"/><path d="M261.56 48.1l-.09 4.58c0 4.22 3.92 7.65 7.93 7.71a7.69 7.69 0 0 0 7.6-7.66v-3.54z" fill="none" stroke="#ff5a19" stroke-linejoin="round" stroke-width="1.5"/><path fill="none" d="M236.16 12.5h77v77h-77z"/></svg>