<svg xmlns="http://www.w3.org/2000/svg" width="48.26" height="48.74" viewBox="0 0 48.26 48.74"><g data-name="Слой 2"><g data-name="Слой 1"><path d="M8.59 45.24v1.61a1.26 1.26 0 0 1-1.26 1.26 1.26 1.26 0 0 1-1.26-1.26v-1.61M26.4 45.24v1.61a1.26 1.26 0 0 1-1.26 1.26 1.26 1.26 0 0 1-1.26-1.26v-1.61" fill="none" stroke="#682f24" stroke-linejoin="round" stroke-width="1.26"/><path d="M30.63 30H2.52a1.89 1.89 0 0 0-1.89 1.85v11.64a1.89 1.89 0 0 0 1.89 1.89h28.11" fill="none" stroke="#682f24" stroke-linejoin="round" stroke-width="1.26"/><path fill="none" stroke="#682f24" stroke-linejoin="round" stroke-width=".63" d="M15.65 29.84v15.13"/><path d="M22.74 30.1v-7.63a2.35 2.35 0 1 0-4.71 0v1.68" fill="none" stroke="#682f24" stroke-linejoin="round" stroke-width="1.26"/><path d="M28.64 27.34a.84.84 0 0 1-.84.84h-2.46a.84.84 0 0 1-.84-.84.84.84 0 0 1 .84-.84h2.46a.84.84 0 0 1 .84.84zM20.59 27.34a.84.84 0 0 1-.84.84h-2.46a.84.84 0 0 1-.84-.84.84.84 0 0 1 .84-.84h2.46a.84.84 0 0 1 .84.84z" fill="none" stroke="#682f24" stroke-linejoin="round" stroke-width=".63"/><path fill="none" stroke="#682f24" stroke-linejoin="round" stroke-width="1.26" d="M26.57 30.1v-1.71M18.52 30.1v-1.71"/><path fill="none" stroke="#682f24" stroke-linejoin="round" stroke-width=".63" d="M15.65 35.4H.63M15.65 40.05H.63"/><circle cx="19.31" cy="34.34" r="1.04" fill="#682f24"/><rect x=".63" y=".63" width="26.15" height="13.53" rx="1.85" ry="1.85" fill="none" stroke="#682f24" stroke-linejoin="round" stroke-width="1.26"/><path fill="none" stroke="#682f24" stroke-linejoin="round" stroke-width=".63" d="M13.99.91v13.2"/><circle cx="16.79" cy="11.07" r="1.01" fill="#682f24"/><circle cx="11.02" cy="11.07" r="1.01" fill="#682f24"/><path d="M4.65 23.08v4.68a1.48 1.48 0 0 0 1.48 1.48h4.93a1.48 1.48 0 0 0 1.48-1.48v-4.68z" fill="none" stroke="#682f24" stroke-linecap="round" stroke-linejoin="round" stroke-width="1.26"/><path d="M11.13 20.77H6.05a1.52 1.52 0 0 0-1.52 1.52V23h8.12v-.73a1.52 1.52 0 0 0-1.52-1.5z" fill="none" stroke="#682f24" stroke-linejoin="round" stroke-width=".63"/><path fill="none" stroke="#682f24" stroke-linecap="round" stroke-linejoin="round" stroke-width="1.26" d="M3.91 23.08h9.36"/><path d="M7.54 20.77a1.05 1.05 0 1 1 2.1 0" fill="none" stroke="#682f24" stroke-linejoin="round" stroke-width=".63"/><rect x="30.63" y=".71" width="17" height="47.36" rx="2.46" ry="2.46" fill="none" stroke="#682f24" stroke-linejoin="round" stroke-width="1.26"/><path d="M30.63 32.61h2.69a1.86 1.86 0 0 1 1.86 1.86 1.86 1.86 0 0 1-1.86 1.86h-2.69M34.99 34.46h12.64" fill="none" stroke="#682f24" stroke-linejoin="round" stroke-width=".63"/></g></g></svg>