<svg xmlns="http://www.w3.org/2000/svg" width="60" height="60" viewBox="0 0 60 60"><title>мытье-духовки-цв</title><g id="Слой_2" data-name="Слой 2"><g id="Слой_1-2" data-name="Слой 1"><path d="M12.34,54.55v1.71a2.67,2.67,0,0,1-2.67,2.67h0A2.67,2.67,0,0,1,7,56.26V54.55" fill="#dad6cc" stroke="#5d3329" stroke-linecap="round" stroke-miterlimit="10" stroke-width="1.7"/><path d="M51.63,54.55v1.71A2.67,2.67,0,0,1,49,58.93h0a2.67,2.67,0,0,1-2.67-2.67V54.55" fill="#dad6cc" stroke="#5d3329" stroke-linecap="round" stroke-miterlimit="10" stroke-width="1.7"/><rect x="4.4" y="4.36" width="50.2" height="50.2" rx="4.95" ry="4.95" fill="#dbd8ce" stroke="#5d3329" stroke-linecap="round" stroke-miterlimit="10" stroke-width="1.7"/><rect x="9.38" y="24.3" width="40.24" height="22.31" rx="2.67" ry="2.67" fill="#f7f2ec" stroke="#5d3329" stroke-linecap="round" stroke-miterlimit="10" stroke-width="1.7"/><path d="M8.1,3.56A2.85,2.85,0,0,1,10.94.72H48.06A2.85,2.85,0,0,1,50.9,3.56" fill="#f7f2ec" stroke="#5d3329" stroke-linecap="round" stroke-miterlimit="10" stroke-width="0.85"/><line x1="4.4" y1="19.72" x2="54.6" y2="19.72" fill="none" stroke="#5d3329" stroke-linecap="round" stroke-miterlimit="10" stroke-width="1.7"/><circle cx="14.96" cy="12.81" r="2.63" fill="#d57c30" stroke="#5d3329" stroke-linecap="round" stroke-miterlimit="10" stroke-width="0.85"/><circle cx="43.66" cy="12.81" r="2.63" fill="#d57c30" stroke="#5d3329" stroke-linecap="round" stroke-miterlimit="10" stroke-width="0.85"/><circle cx="34.1" cy="12.81" r="2.63" fill="#d57c30" stroke="#5d3329" stroke-linecap="round" stroke-miterlimit="10" stroke-width="0.85"/><circle cx="24.53" cy="12.81" r="2.63" fill="#d57c30" stroke="#5d3329" stroke-linecap="round" stroke-miterlimit="10" stroke-width="0.85"/><line x1="9.38" y1="43.94" x2="48.96" y2="43.94" fill="none" stroke="#5d3329" stroke-linecap="round" stroke-miterlimit="10" stroke-width="1.7"/><line x1="14.96" y1="24.3" x2="14.96" y2="43.54" fill="none" stroke="#5d3329" stroke-linecap="round" stroke-miterlimit="10" stroke-width="0.85"/><line x1="43.66" y1="24.77" x2="43.66" y2="43.54" fill="none" stroke="#5d3329" stroke-linecap="round" stroke-miterlimit="10" stroke-width="0.85"/><rect width="60" height="60" fill="none"/></g></g></svg>