<svg xmlns="http://www.w3.org/2000/svg" width="60" height="60" viewBox="0 0 60 60"><g data-name="Слой 1"><path d="M12.34 54.55v1.71a2.67 2.67 0 0 1-2.67 2.67A2.67 2.67 0 0 1 7 56.26v-1.71M51.63 54.55v1.71A2.67 2.67 0 0 1 49 58.93a2.67 2.67 0 0 1-2.67-2.67v-1.71" fill="#dad6cc" stroke="#5d3329" stroke-linecap="round" stroke-miterlimit="10" stroke-width="1.7"/><rect x="4.4" y="4.36" width="50.2" height="50.2" rx="4.95" ry="4.95" fill="#dbd8ce" stroke="#5d3329" stroke-linecap="round" stroke-miterlimit="10" stroke-width="1.7"/><rect x="9.38" y="24.3" width="40.24" height="22.31" rx="2.67" ry="2.67" fill="#f7f2ec" stroke="#5d3329" stroke-linecap="round" stroke-miterlimit="10" stroke-width="1.7"/><path d="M8.1 3.56A2.85 2.85 0 0 1 10.94.72h37.12a2.85 2.85 0 0 1 2.84 2.84" fill="#f7f2ec" stroke="#5d3329" stroke-linecap="round" stroke-miterlimit="10" stroke-width=".85"/><path fill="none" stroke="#5d3329" stroke-linecap="round" stroke-miterlimit="10" stroke-width="1.7" d="M4.4 19.72h50.2"/><circle cx="14.96" cy="12.81" r="2.63" fill="#d57c30" stroke="#5d3329" stroke-linecap="round" stroke-miterlimit="10" stroke-width=".85"/><circle cx="43.66" cy="12.81" r="2.63" fill="#d57c30" stroke="#5d3329" stroke-linecap="round" stroke-miterlimit="10" stroke-width=".85"/><circle cx="34.1" cy="12.81" r="2.63" fill="#d57c30" stroke="#5d3329" stroke-linecap="round" stroke-miterlimit="10" stroke-width=".85"/><circle cx="24.53" cy="12.81" r="2.63" fill="#d57c30" stroke="#5d3329" stroke-linecap="round" stroke-miterlimit="10" stroke-width=".85"/><path fill="none" stroke="#5d3329" stroke-linecap="round" stroke-miterlimit="10" stroke-width="1.7" d="M9.38 43.94h39.58"/><path fill="none" stroke="#5d3329" stroke-linecap="round" stroke-miterlimit="10" stroke-width=".85" d="M14.96 24.3v19.24M43.66 24.77v18.77"/><path fill="none" d="M0 0h60v60H0z"/></g></svg>