<svg xmlns="http://www.w3.org/2000/svg" width="29.03" height="62.7" viewBox="0 0 29.03 62.7"><path d="M2.29 13.96c0-5.11 5.2-9.25 12.21-9.25s12.21 4.14 12.21 9.25c0 5.48-5.2 9.24-12.21 9.24S2.29 19.79 2.29 13.96z" fill="#e7c3a0" stroke="#692f17" stroke-miterlimit="10" stroke-width="1.3"/><path d="M4.46 5.59v2.5c0 1.22 4.38 2.21 9.77 2.21S24 9.3 24 8.09v-2.5H4.46z" fill="#e3ddd3" stroke="#692f17" stroke-linecap="round" stroke-linejoin="round" stroke-width=".7"/><path d="M19.15 58.52a4.39 4.39 0 0 1 2.58-.55c1.71.07 3.47 1.66 1.78 3.56s-4.6 0-6.19-.28a2.07 2.07 0 0 1-2-2v-.79zM11.16 58.52a4.47 4.47 0 0 0-2.61-.55c-1.73.07-3.51 1.66-1.8 3.56s4.65 0 6.26-.28a2.08 2.08 0 0 0 2.06-2v-.79z" fill="#e7c3a0" stroke="#692f17" stroke-miterlimit="10" stroke-width=".7"/><path d="M19.94 53.45l-.7 4.87a.53.53 0 0 1 0 .07c0 .53-.9 1-2 1s-2-.43-2-1v-4.94H20zM10.37 53.45l.71 4.87a.45.45 0 0 0 0 .07c0 .53.91 1 2 1s2-.43 2-1v-4.94h-4.81z" fill="#e3ddd3" stroke="#692f17" stroke-linecap="round" stroke-linejoin="round" stroke-width=".7"/><path d="M15.18 43.93H8.52l.68 9.22c0 1.7 1.34 2.46 3 2.46s3-.76 3-2.46c0 1.7 1.38 2.46 3.08 2.46s3.09-.76 3.09-2.46l.7-9.22H15.2z" fill="#f08119" stroke="#692f17" stroke-miterlimit="10" stroke-width="1.3"/><path d="M28.18 38.79v-.07-.05c0-.05.16-6.32-2.05-9.79A10.87 10.87 0 0 0 22.58 25a11.66 11.66 0 0 0-7.46-2.21h-.43a11.38 11.38 0 0 0-7.34 2.26 10.81 10.81 0 0 0-3.5 3.88c-2.18 3.48-2 9.79-2 9.79V38.84a1.54 1.54 0 0 0 .75 1.29v.81c0 .31.83.6 1.89.65s1.64-.16 1.66-.46v-.72a1.77 1.77 0 0 0 .64-.58l-.27 4.11c0 .55 3.63 1 8.2 1h.43c4.64 0 8.32-.48 8.32-1l-.3-4.15a1.78 1.78 0 0 0 .65.58v.72c0 .31.6.52 1.68.46s1.93-.34 1.92-.65v-.81a1.53 1.53 0 0 0 .76-1.3z" fill="#f7f5f2" stroke="#692f17" stroke-linecap="round" stroke-linejoin="round" stroke-width="1.3"/><path d="M10.91 21.6v1.19c0 .65 1.5 1.18 3.34 1.18s3.34-.53 3.34-1.18V21.6H10.9z" fill="#f8f4eb" stroke="#692f17" stroke-miterlimit="10"/><path d="M14.25 22.12c-4.81 0-8.72-3.47-8.72-7.74a6.9 6.9 0 0 1 .71-3 28.3 28.3 0 0 0 16 0 6.92 6.92 0 0 1 .7 3c.03 4.26-3.88 7.74-8.69 7.74z" fill="#fee9d4"/><path d="M6.42 11.79a28.74 28.74 0 0 0 15.65 0 6.52 6.52 0 0 1 .55 2.6c0 4.08-3.76 7.39-8.37 7.39s-8.41-3.33-8.41-7.41a6.52 6.52 0 0 1 .55-2.6m16-.85a27.83 27.83 0 0 1-16.39 0 7.33 7.33 0 0 0-.88 3.45c0 4.47 4.06 8.09 9.07 8.09s9.07-3.62 9.07-8.09a7.33 7.33 0 0 0-.88-3.45z" fill="#692f17"/><path d="M17.02 18.58a9 9 0 0 1-3 .47 9.15 9.15 0 0 1-2.82-.42" fill="none" stroke="#692f17" stroke-linecap="round" stroke-miterlimit="10" stroke-width=".7"/><path d="M15.44 19.95a4.48 4.48 0 0 1-1.35.19 4.57 4.57 0 0 1-1.28-.17" fill="#fff" stroke="#692f17" stroke-linecap="round" stroke-miterlimit="10" stroke-width=".7"/><path d="M15.01 17.25a6.58 6.58 0 0 1-.91.06 6.79 6.79 0 0 1-.86-.05" fill="#fff" stroke="#692f17" stroke-linecap="round" stroke-miterlimit="10" stroke-width=".5"/><g fill="#fff" stroke="#692f17" stroke-linecap="round" stroke-miterlimit="10"><path d="M6.45 9.59a4.7 4.7 0 0 0-.56 2M22.02 9.62a4.39 4.39 0 0 1 .59 1.92"/></g><path fill="#e3ddd3" stroke="#692f17" stroke-linecap="round" stroke-linejoin="round" stroke-width=".7" d="M14.25.35L.35 3.84v1.44l13.9 3.57 13.9-3.62V3.84L14.25.35z"/><path fill="#e3ddd3" stroke="#692f17" stroke-linecap="round" stroke-linejoin="round" stroke-width=".7" d="M28.15 3.84l-13.9 3.49L.35 3.84"/><path fill="#fff" stroke="#692f17" stroke-linecap="round" stroke-miterlimit="10" stroke-width=".5" d="M28.03 4.71v4.57"/><path d="M27.39 10.69l.64-1.51s.64 1.47.64 1.51a2.5 2.5 0 0 1-1.28 0zM7.1 39.52l.7-9.53M23.17 39.82l-1.74-10.55" fill="#fff" stroke="#692f17" stroke-linecap="round" stroke-miterlimit="10" stroke-width=".7"/><path d="M6.63 41.59s2.27 1.32 8.55 1 8.42-1 8.42-1" fill="none" stroke="#692f17" stroke-linecap="round" stroke-miterlimit="10"/><path d="M15.84 23.79v4.9a.59.59 0 0 1-.59.59h-2a.59.59 0 0 1-.59-.59v-4.9" fill="none" stroke="#692f17" stroke-miterlimit="10"/><path d="M2.84 41.36s0 3.19 1 4 2.4 1.06 2.11.29a15.44 15.44 0 0 1-.53-2.06 1.56 1.56 0 0 1 .69.58c.31.45.48-.08.15-.73s-.84-2.12-.84-2.12zM26.75 41.36s0 3.19-.93 4-2.31 1.06-2 .29a16 16 0 0 0 .51-2.06 1.51 1.51 0 0 0-.66.58c-.3.45-.46-.08-.14-.73s.81-2.12.81-2.12z" fill="#f8f4eb" stroke="#692f17" stroke-miterlimit="10" stroke-width=".7"/><path fill="none" stroke="#692f17" stroke-linecap="round" stroke-miterlimit="10" stroke-width=".7" d="M15.18 53.15v-8.19"/><path d="M10.1 13.79a2.86 2.86 0 0 0-1.83.92 2.29 2.29 0 0 0 3.67 0 2.86 2.86 0 0 0-1.84-.92z" fill="#fff" stroke="#692f17" stroke-miterlimit="10" stroke-width=".5"/><ellipse cx="10.11" cy="14.71" rx=".8" ry=".73" fill="#692f17"/><path d="M17.84 13.79a2.86 2.86 0 0 0-1.83.92 2.29 2.29 0 0 0 3.67 0 2.85 2.85 0 0 0-1.84-.92z" fill="#fff" stroke="#692f17" stroke-miterlimit="10" stroke-width=".5"/><ellipse cx="17.83" cy="14.71" rx=".8" ry=".73" fill="#692f17"/><circle cx="5.36" cy="31.18" r="1.3" fill="#ff8300"/><circle cx="5.26" cy="37.91" r="1.3" fill="#ff8300"/><circle cx="18.34" cy="31.98" r="1.3" fill="#ff8300"/><circle cx="15.56" cy="37.49" r="1.3" fill="#ff8300"/><circle cx="11.23" cy="34.24" r="1.3" fill="#ff8300"/><circle cx="19.23" cy="40.08" r="1.3" fill="#ff8300"/><circle cx="24.42" cy="37.91" r="1.3" fill="#ff8300"/><circle cx="10.27" cy="40.08" r="1.3" fill="#ff8300"/><circle cx="19.64" cy="26.8" r="1.3" fill="#ff8300"/><circle cx="10.01" cy="26.8" r="1.3" fill="#ff8300"/><circle cx="24.06" cy="31.18" r="1.3" fill="#ff8300"/></svg>