<svg xmlns="http://www.w3.org/2000/svg" width="70" height="70" viewBox="0 0 70 70"><title>обученные-сотрудники</title><g data-name="Слой 2"><g data-name="Слой 1"><path fill="none" d="M0 0h70v70H0z"/><path d="M23.11 18.83c0-5.11 5.2-9.25 12.21-9.25s12.21 4.14 12.21 9.25c0 5.48-5.2 9.24-12.21 9.24s-12.21-3.38-12.21-9.24z" fill="#dcc19f" stroke="#692f17" stroke-miterlimit="10" stroke-width="1.5"/><path d="M25.29 10.46V13c0 1.22 4.38 2.21 9.77 2.21s9.77-1 9.77-2.21v-2.54z" fill="#e0dbd2" stroke="#692f17" stroke-linecap="round" stroke-linejoin="round" stroke-width=".75"/><path d="M40 63.4a4.39 4.39 0 0 1 2.58-.55c1.71.07 3.47 1.66 1.78 3.56s-4.6 0-6.19-.28-2-1.21-2-2v-.79zM32 63.4a4.47 4.47 0 0 0-2.61-.55c-1.73.07-3.51 1.66-1.8 3.56s4.65 0 6.26-.28 2-1.21 2.06-2v-.79z" fill="#dcc19f" stroke="#692f17" stroke-miterlimit="10" stroke-width=".75"/><path d="M40.76 58.32l-.7 4.87a.53.53 0 0 1 0 .07c0 .53-.9 1-2 1s-2-.43-2-1v-4.94zM31.2 58.32l.71 4.87a.45.45 0 0 0 0 .07c0 .53.91 1 2 1s2-.43 2-1v-4.94z" fill="#e0dbd2" stroke="#692f17" stroke-linecap="round" stroke-linejoin="round" stroke-width=".75"/><path d="M36 48.81h-6.65L30 58c0 1.7 1.34 2.46 3 2.46s3-.76 3-2.46c0 1.7 1.38 2.46 3.08 2.46s3.09-.76 3.09-2.46l.7-9.22z" fill="#fd8204" stroke="#692f17" stroke-miterlimit="10" stroke-width="1.5"/><path d="M49 43.71v-.07-.05c0-.05.16-6.32-2.05-9.79a10.87 10.87 0 0 0-3.55-3.88 11.66 11.66 0 0 0-7.45-2.26h-.43a11.38 11.38 0 0 0-7.34 2.26 10.81 10.81 0 0 0-3.5 3.88c-2.18 3.48-2 9.79-2 9.79V43.71a1.54 1.54 0 0 0 .71 1.29v.81c0 .31.83.6 1.89.65s1.64-.16 1.66-.46v-.72a1.77 1.77 0 0 0 .64-.58l-.27 4.11c0 .55 3.63 1 8.2 1h.43c4.64 0 8.32-.48 8.32-1L44 44.7a1.78 1.78 0 0 0 .65.58V46c0 .31.6.52 1.68.46s1.93-.34 1.92-.65V45a1.53 1.53 0 0 0 .75-1.29z" fill="#f5f4f0" stroke="#692f17" stroke-linecap="round" stroke-linejoin="round" stroke-width="1.5"/><path d="M31.73 26.48v1.18c0 .65 1.5 1.18 3.34 1.18s3.34-.53 3.34-1.18v-1.18z" fill="#f6f3ea" stroke="#692f17" stroke-miterlimit="10" stroke-width=".75"/><path d="M35.08 27c-4.79 0-8.7-3.46-8.7-7.72a6.87 6.87 0 0 1 .69-3 27.36 27.36 0 0 0 8 1.15 27.36 27.36 0 0 0 8-1.15 6.88 6.88 0 0 1 .69 3c.01 4.23-3.89 7.72-8.68 7.72z" fill="#f7e8d3"/><path d="M27.28 16.71a27.93 27.93 0 0 0 7.8 1.08 27.93 27.93 0 0 0 7.8-1.08 6.47 6.47 0 0 1 .52 2.54c0 4-3.73 7.34-8.32 7.34s-8.32-3.29-8.32-7.34a6.47 6.47 0 0 1 .52-2.54m16-.91a26.68 26.68 0 0 1-8.2 1.2 26.67 26.67 0 0 1-8.19-1.23 7.33 7.33 0 0 0-.89 3.48c0 4.47 4.06 8.09 9.07 8.09s9.07-3.62 9.07-8.09a7.33 7.33 0 0 0-.88-3.45z" fill="#692f17"/><path d="M37.85 23.46a9 9 0 0 1-3 .47 9.15 9.15 0 0 1-2.85-.42" fill="none" stroke="#692f17" stroke-linecap="round" stroke-miterlimit="10" stroke-width=".7"/><path d="M36.26 24.83a4.48 4.48 0 0 1-1.35.19 4.57 4.57 0 0 1-1.28-.17" fill="#fff" stroke="#692f17" stroke-linecap="round" stroke-miterlimit="10" stroke-width=".7"/><path d="M35.83 22.12a6.58 6.58 0 0 1-.91.06 6.79 6.79 0 0 1-.86-.05" fill="#fff" stroke="#692f17" stroke-linecap="round" stroke-miterlimit="10" stroke-width=".5"/><path d="M27.28 14.47a4.7 4.7 0 0 0-.56 2M42.85 14.5a4.39 4.39 0 0 1 .59 1.92" fill="#fff" stroke="#692f17" stroke-linecap="round" stroke-miterlimit="10" stroke-width=".75"/><path fill="#e0dbd2" stroke="#692f17" stroke-linecap="round" stroke-linejoin="round" stroke-width=".75" d="M35.08 5.23l-13.9 3.49v1.44l13.9 3.57 13.9-3.62V8.72l-13.9-3.49z"/><path fill="#e0dbd2" stroke="#692f17" stroke-linecap="round" stroke-linejoin="round" stroke-width=".7" d="M48.98 8.72l-13.9 3.49-13.9-3.49"/><path fill="#fff" stroke="#692f17" stroke-linecap="round" stroke-miterlimit="10" stroke-width=".5" d="M48.86 9.59v4.57"/><path d="M48.22 15.57l.64-1.51s.64 1.47.64 1.51-.29.08-.64.08-.64-.03-.64-.08z" fill="#fff" stroke="#692f17" stroke-linecap="round" stroke-miterlimit="10" stroke-width=".7"/><path fill="#fff" stroke="#692f17" stroke-linecap="round" stroke-miterlimit="10" stroke-width=".75" d="M27.92 44.41l.7-9.54M43.99 44.7l-1.73-10.54"/><path d="M27.46 46.47s2.27 1.32 8.55 1 8.42-1 8.42-1" fill="none" stroke="#692f17" stroke-linecap="round" stroke-miterlimit="10" stroke-width=".75"/><path d="M36.69 28.66v4.9a.59.59 0 0 1-.59.59h-2a.59.59 0 0 1-.59-.59v-4.9" fill="none" stroke="#692f17" stroke-miterlimit="10" stroke-width=".75"/><path d="M23.67 46.24s0 3.19 1 4 2.4 1.06 2.11.29a15.44 15.44 0 0 1-.53-2.06 1.56 1.56 0 0 1 .69.58c.31.45.48-.08.15-.73s-.84-2.12-.84-2.12zM47.58 46.24s0 3.19-.93 4-2.31 1.06-2 .29a16 16 0 0 0 .51-2.06 1.51 1.51 0 0 0-.66.58c-.3.45-.46-.08-.14-.73s.81-2.12.81-2.12z" fill="#f6f3ea" stroke="#692f17" stroke-miterlimit="10" stroke-width=".75"/><path fill="none" stroke="#692f17" stroke-linecap="round" stroke-miterlimit="10" stroke-width=".75" d="M36.01 58.03v-8.19"/><path d="M30.93 18.67a2.86 2.86 0 0 0-1.83.92 2.86 2.86 0 0 0 1.83.92 2.85 2.85 0 0 0 1.83-.92 2.86 2.86 0 0 0-1.83-.92z" fill="#fff" stroke="#692f17" stroke-miterlimit="10" stroke-width=".5"/><ellipse cx="30.93" cy="19.59" rx=".8" ry=".73" fill="#692f17"/><path d="M38.65 18.67a2.86 2.86 0 0 0-1.83.92 2.86 2.86 0 0 0 1.83.92 2.85 2.85 0 0 0 1.83-.92 2.85 2.85 0 0 0-1.83-.92z" fill="#fff" stroke="#692f17" stroke-miterlimit="10" stroke-width=".5"/><ellipse cx="38.65" cy="19.59" rx=".8" ry=".73" fill="#692f17"/></g></g></svg>