<svg xmlns="http://www.w3.org/2000/svg" viewBox="0 0 70 70"><defs><style>.cls-1,.cls-2,.cls-3,.cls-4,.cls-5,.cls-6,.cls-7{fill:none}.cls-2,.cls-3,.cls-4,.cls-5{stroke:#353535}.cls-2,.cls-3,.cls-4,.cls-5,.cls-6,.cls-7{stroke-linejoin:round}.cls-2,.cls-5{stroke-width:.8px}.cls-3{stroke-width:.79px}.cls-5,.cls-7{stroke-linecap:round}.cls-6,.cls-7{stroke:#ff5a19}</style></defs><title>Обработка поверхностей_1</title><g id="Слой_2" data-name="Слой 2"><g id="Слой_1-2" data-name="Слой 1"><path class="cls-1" d="M0 0h70v70H0z"/><path class="cls-2" d="M46.37 34V15.59h7.33A1.61 1.61 0 0 0 55.31 14v-.3a1.61 1.61 0 0 0-1.61-1.61h-7.1a1.62 1.62 0 0 0-1.6 1.59V34"/><path class="cls-3" d="M35.15 37.44c.43-1.95.74-3.75 2.5-3.75h8.75v3.46"/><path class="cls-4" d="M46.32 52V35.86H37c-1.06 0-1.49 1-1.93 1.94-3 6.65-5.1 11.79-5.1 11.79-.92 0-7.49 6.34-9.17 8"/><path class="cls-5" d="M46.32 49.91H29.73"/><path class="cls-6" d="M43.26 62.22H18.38v-4.67h21.56"/><path class="cls-4" d="M39.86 57.2a5.4 5.4 0 1 1 5.4 5.4 5.4 5.4 0 0 1-5.4-5.4z"/><path class="cls-4" d="M42.64 57.2a2.62 2.62 0 1 1 2.62 2.62 2.62 2.62 0 0 1-2.62-2.62z"/><path class="cls-7" d="M21.37 59.88v2.27M23.43 59.88v2.27M25.5 59.88v2.27M27.57 59.88v2.27"/></g></g></svg>