<svg xmlns="http://www.w3.org/2000/svg" viewBox="0 0 70 70"><path stroke-linejoin="round" stroke="#353535" fill="none" d="M53.58 12.11h-8.07a1.84 1.84 0 0 0-1.84 1.83v3.8h1.58v-1.63h8.33a1.84 1.84 0 0 0 1.84-1.83v-.34a1.84 1.84 0 0 0-1.84-1.83z"/><path stroke-linejoin="round" stroke="#353535" fill="none" d="M32.78 20.72c.4-1.67.94-3 2.55-3h9.94v3.93"/><path stroke-width="1.5" stroke-linejoin="round" stroke="#353535" fill="none" d="M45.24 48.43V20.18H34.65c-10.57 2.3-19 28.24-19 28.24"/><path stroke="#ff5a19" stroke-width="1.5" stroke-linejoin="round" fill="none" d="M40.8 56.87H15a1 1 0 0 1-1-1v-6.26a1 1 0 0 1 1-1h26.74"/><path stroke="#ff5a19" stroke-linejoin="round" fill="none" d="M14.27 53.56h25.1M16.84 53.52v2.82M19.36 53.52v2.82M21.89 53.52v2.82M24.42 53.52v2.82"/><circle stroke-linejoin="round" stroke="#353535" fill="none" cx="43.79" cy="53.01" r="4.89"/><circle stroke-linejoin="round" stroke="#353535" fill="none" cx="43.79" cy="53.01" r="2.28"/></svg>