<svg xmlns="http://www.w3.org/2000/svg" viewBox="0 0 70 70"><defs><style>.cls-1,.cls-2,.cls-3,.cls-4,.cls-5,.cls-6,.cls-7,.cls-8{fill:none}.cls-2,.cls-3,.cls-5{stroke:#ff5a19}.cls-2,.cls-5,.cls-6{stroke-linejoin:round}.cls-2,.cls-8{stroke-width:.8px}.cls-3,.cls-4,.cls-7,.cls-8{stroke-miterlimit:10;fill-rule:evenodd}.cls-4,.cls-6,.cls-7,.cls-8{stroke:#353535}.cls-4{stroke-width:1.5px}.cls-6{stroke-width:.72px}</style></defs><title>Фасад_1</title><g id="Слой_2" data-name="Слой 2"><g id="Слой_1-2" data-name="Слой 1"><path class="cls-1" d="M0 0h70v70H0z"/><path class="cls-2" d="M41.67 19v1.28l7.66-.91v-.95"/><path class="cls-3" d="M21.78 26.14a6.88 6.88 0 0 1 .39-11.21M27.23 13.83a6.92 6.92 0 0 1 1 13.45"/><path class="cls-4" d="M43.19 52.22l.05-8.75a10.34 10.34 0 0 0-1.4-4.39M40 36.66a16.75 16.75 0 0 0-6.21-3.94c-2.2-.79-5.34-1.42-5.87-5.33L26.47 8.68a1.1 1.1 0 0 0-1.1-1H23a1.11 1.11 0 0 0-1.11 1.11v52.38h14"/><path class="cls-5" d="M41.67 43.64V19l9.25-.93v-2.64L40.2 16.52h-.19v.02h-.03v2.63l.03 24.47"/><path class="cls-6" d="M38.86 50.93v-7.42h4.26v8.07"/><path class="cls-7" d="M33.57 56.59a5.83 5.83 0 1 1 5.82 5.75 5.79 5.79 0 0 1-5.82-5.75z"/><path class="cls-8" d="M36.05 56.59a3.35 3.35 0 1 1 3.34 3.31 3.32 3.32 0 0 1-3.34-3.31zM22 51c0-9.26 7.44-16.68 14.8-16.68"/><path class="cls-2" d="M50.85 18v1.39a1.44 1.44 0 0 1-1.33 1.54l-7.79.75"/></g></g></svg>