<svg xmlns="http://www.w3.org/2000/svg" viewBox="0 0 60 60"><defs><style>.cls-1{fill:#ff5a19}.cls-2,.cls-3,.cls-5,.cls-6,.cls-7{fill:none}.cls-2,.cls-3,.cls-5,.cls-6{stroke:#353535}.cls-2{stroke-miterlimit:10}.cls-3,.cls-5{stroke-linecap:round}.cls-3,.cls-5,.cls-6{stroke-linejoin:round;stroke-width:1.5px}.cls-3,.cls-6{fill-rule:evenodd}.cls-4{fill:#353535}</style></defs><title>Мытье-стекол</title><g id="Слой_2" data-name="Слой 2"><g id="Слой_1-2" data-name="Слой 1"><path class="cls-1" d="M14.32 16.57l2.35 1.52 2.35-1.52-1.52 2.35 1.52 2.35-2.35-1.53-2.34 1.53 1.52-2.35-1.53-2.35zM14.32 5.38l2.35 1.52 2.35-1.52-1.52 2.34 1.52 2.35-2.35-1.52-2.34 1.52 1.52-2.35-1.53-2.34zM22.88 8.63l2.35 1.53 2.35-1.52-1.53 2.34 1.53 2.35-2.35-1.52-2.35 1.52 1.53-2.35-1.53-2.35z"/><path class="cls-2" d="M37.45 55.3l-1 1.08a14.19 14.19 0 0 1-4.63-3.25 9.45 9.45 0 0 1-2.55-3.93l.66-.63"/><path class="cls-3" d="M36.73 56.24s2.53-3.54 4-3.82a14.78 14.78 0 0 0 6.71-3.6l1.76-1.76 1.29-1.29 1.67-1.67a1.51 1.51 0 0 0 0-2.14l-.24-.23a1.5 1.5 0 0 0-2.13 0l1-1a1.75 1.75 0 0 0 0-2.47l-.28-.27a1.73 1.73 0 0 0-2.46 0l.21-.22a1.76 1.76 0 0 0 0-2.47L48 35a1.74 1.74 0 0 0-2.46 0l-.77.77a1.85 1.85 0 0 0 .14-2.61l-.27-.28A1.86 1.86 0 0 0 42 33l-2.18 2.18-1.63 1.64-.14.14v-.19a.51.51 0 0 0 0-.13l-.4.4-2.39-2.39a2.2 2.2 0 0 0-1.62 2.12l-.33 8.58-3.8 3.65"/><path class="cls-4" d="M7.45 23.61c3.41 3.22 6.72 6.54 10 9.85h-.55l9.72-9.83 9.84-9.71v.6L31.4 9.1l-2.5-2.73c-.83-.91-1.66-1.82-2.47-2.75.9.84 1.8 1.69 2.68 2.54l2.67 2.57 5.28 5.19a.41.41 0 0 1 0 .58l-9.73 9.82L17.48 34a.41.41 0 0 1-.57 0c-3.2-3.42-6.38-6.85-9.46-10.39z"/><path class="cls-5" d="M39.42 35.61l-3.5 3.5"/><path class="cls-3" d="M29.73 33.29a4.62 4.62 0 0 0 5.14 1L37.65 37 40 34.66l-2.78-2.79a4.62 4.62 0 0 0-1-5.14"/><path class="cls-6" d="M20.15 36.31l1.91 1.91a1.93 1.93 0 0 0 2.74 0L41.21 21.8a1.93 1.93 0 0 0 0-2.74l-1.9-1.9"/><path class="cls-4" d="M36.86 15.12l1.82 1.81-18.75 18.75-1.81-1.81 18.74-18.75m0-1.42L16.7 33.87l3.23 3.22 20.16-20.16-3.23-3.23z"/><path class="cls-7" d="M0 0h60v60H0z"/></g></g></svg>