<svg xmlns="http://www.w3.org/2000/svg" viewBox="0 0 70 70"><path stroke-linejoin="round" stroke="#353535" fill="none" d="M25.09 45.09l-9.87 1.29a2.33 2.33 0 0 1-2.62-2 2.33 2.33 0 0 1 2-2.61l9.49-1.25"/><path stroke-width=".8" fill="#fff" stroke-linejoin="round" stroke="#353535" d="M27.94 41.77l2.48 2.57"/><path stroke="#ff5a19" stroke-linejoin="round" fill="none" d="M28.07 26.21a2.91 2.91 0 0 1 1.7-2.66A54.46 54.46 0 0 1 37.2 21c.16 0 .76-.13.93-.13a4.93 4.93 0 0 1 4.92 4.93 5.19 5.19 0 0 1-.18 1.32l-.33 1.14m3.22 0a9 9 0 0 0 .24-4.45c-.29-1.4-1.76-3.4-4-4.83a8.17 8.17 0 0 0-5-1.06 66.21 66.21 0 0 0-7.89 2.57A7.31 7.31 0 0 0 26 23.36a8.52 8.52 0 0 0-1.14 3.06m13.45 17.16l-.71 2.16a4.92 4.92 0 0 1-9.6-1.57v-2.4m-3.06.52v2.58c0 .38 2.12 7.31 8.16 7.25a7.93 7.93 0 0 0 7.55-5.66s.41-1.46 1-3.54"/><path fill="none" d="M0 0h70v70H0z"/><path stroke-linejoin="round" stroke="#353535" fill="none" d="M28.28 30.55l26.47-3.47a2.32 2.32 0 0 1 2.61 2 2.32 2.32 0 0 1-2 2.61l-26.78 3.53M24.1 35.8L14 37.13a2.35 2.35 0 0 1-2.62-2 2.35 2.35 0 0 1 2-2.62l10.82-1.42"/><path stroke-width=".8" fill="#fff" stroke-linejoin="round" stroke="#353535" d="M52.18 27.38l4.01 4.16M48.8 27.82l4.02 4.17M45.43 28.26l4.01 4.17M42.05 28.7l4.02 4.17M38.68 29.15l4.02 4.16M35.31 29.59l4.01 4.17M31.93 30.03l4.02 4.17M28.56 30.48l4.02 4.16M28.37 34.23l.83.86M21.81 31.36l2.29 2.38M18.44 31.8l4.01 4.17M15.06 32.25l4.02 4.16M11.96 33.01l3.75 3.85"/><path stroke-linejoin="round" stroke="#353535" fill="none" d="M24.28 40.49l-9.67 1.27a2.35 2.35 0 0 1-2.62-2 2.34 2.34 0 0 1 2-2.62l10-1.31M28.72 35.2l26.63-3.5a2.34 2.34 0 0 1 2.62 2 2.35 2.35 0 0 1-2 2.62L28.18 40"/><path stroke-width=".8" fill="#fff" stroke-linejoin="round" stroke="#353535" d="M52.78 32l4.02 4.17M49.41 32.45l4.02 4.16M46.04 32.89l4.01 4.17M42.66 33.33l4.02 4.17M39.29 33.77l4.01 4.17M35.91 34.22l4.02 4.16M32.54 34.66l4.02 4.17M29.17 35.1l4.01 4.17M28.38 38.22l1.43 1.49M22.42 35.99l1.68 1.76M19.05 36.43l4.01 4.17M15.67 36.87l4.02 4.17M12.57 37.63l3.74 3.85"/><path stroke-linejoin="round" stroke="#353535" fill="none" d="M28.37 40L56 36.33a2.35 2.35 0 0 1 2.62 2 2.35 2.35 0 0 1-2 2.62l-28 3.67"/><path stroke-width=".8" fill="#fff" stroke-linejoin="round" stroke="#353535" d="M53.39 36.63l4.02 4.17M50.02 37.07l4.01 4.17M46.64 37.52l4.02 4.16M43.27 37.96l4.02 4.17M39.9 38.4l4.01 4.17M36.52 38.84l4.02 4.17M33.15 39.29l4.01 4.16M29.77 39.73l4.02 4.17M23.03 40.62l1.58 1.65M19.65 41.06l4.02 4.17M16.28 41.5l4.01 4.17M13.18 42.26l3.74 3.85"/><path stroke-linejoin="round" stroke="#353535" fill="none" d="M36.15 34.23l19.24-2.53a2.33 2.33 0 1 0-.61-4.62l-21.34 2.8"/><path stroke-width=".8" fill="#fff" stroke-linejoin="round" stroke="#353535" d="M52.21 27.38l4.02 4.16M48.84 27.82l4.01 4.17M45.47 28.26l4.01 4.17M42.09 28.7l4.02 4.17M38.72 29.15l4.01 4.16M35.34 29.59l4.02 4.17"/><path stroke-linejoin="round" stroke="#353535" fill="none" d="M38.28 38.65L56 36.33a2.34 2.34 0 0 0-.61-4.63l-19.24 2.53"/><path stroke-width=".8" fill="#fff" stroke-linejoin="round" stroke="#353535" d="M52.82 32l4.02 4.17M49.45 32.45l4.01 4.16M46.07 32.89l4.02 4.17M42.7 33.33l4.01 4.17M39.32 33.77l4.02 4.17M37.16 35.47L40 38.38"/><path fill="none" stroke-linecap="round" stroke-linejoin="round" stroke="#353535" d="M38.29 43.29L56.61 41a2.34 2.34 0 0 0-.61-4.67l-18.73 2.45"/><path stroke-width=".8" fill="#fff" stroke-linejoin="round" stroke="#353535" d="M53.43 36.63l4.01 4.17M50.05 37.07l4.02 4.17M46.68 37.52l4.02 4.16M43.31 37.96l4.01 4.17M39.93 38.4l4.02 4.17M36.57 38.98l4.02 4.17"/><path stroke-width=".8" stroke-linejoin="round" stroke="#353535" fill="none" d="M32.21 30.33l4.02 4.17M36.09 34.36l4.02 4.17"/><path stroke="#ff5a19" stroke-linejoin="round" fill="none" d="M24.02 26.32h4.49V42.1h-4.49z"/><path stroke="#ff5a19" stroke-width=".8" fill="#fff" stroke-linejoin="round" d="M24.01 29.96l4.5-3.33M24.01 32.99l4.5-3.32M24.01 36.03l4.5-3.33M24.01 39.07l4.5-3.33M24.01 42.11l4.5-3.33"/></svg>