<svg xmlns="http://www.w3.org/2000/svg" viewBox="0 0 70 70"><defs><style>.cls-1,.cls-2,.cls-3,.cls-5,.cls-6{fill:none}.cls-2,.cls-3{stroke:#353535}.cls-2,.cls-3,.cls-5,.cls-6{stroke-linejoin:round}.cls-2,.cls-5{stroke-width:.8px}.cls-3,.cls-6{stroke-width:1.5px}.cls-4{fill:#353535}.cls-5,.cls-6{stroke:#ff5a19}</style></defs><title>офисный-матстер</title><g id="Слой_2" data-name="Слой 2"><g id="Слой_1-2" data-name="Слой 1"><path class="cls-1" d="M0 0h70v70H0z"/><path class="cls-2" d="M51.23 21.75a6.69 6.69 0 0 0-13.37 0m2.5.05a4.28 4.28 0 0 1 8.55 0"/><path class="cls-3" d="M38.83 51.55H27.74a3.32 3.32 0 0 1-3.32-3.31v-3.77M24.42 33.59v-8a3.32 3.32 0 0 1 3.32-3.32h33.61a3.32 3.32 0 0 1 3.32 3.32v22.65a3.32 3.32 0 0 1-3.32 3.31h-14.3"/><path class="cls-3" d="M64.67 29.81V25.6a3.32 3.32 0 0 0-3.32-3.32H27.74a3.32 3.32 0 0 0-3.32 3.32v4.21"/><path class="cls-2" d="M50.33 29.81h14.34M24.42 29.81h14.25"/><path class="cls-4" d="M49.75 28.65a.29.29 0 0 1 .28.28v1.76a.29.29 0 0 1-.28.28H39.34a.28.28 0 0 1-.28-.28v-1.76a.28.28 0 0 1 .28-.28h10.41m0-.8H39.34a1.08 1.08 0 0 0-1.08 1.08v1.76a1.08 1.08 0 0 0 1.08 1.08h10.41a1.08 1.08 0 0 0 1.08-1.08v-1.76a1.08 1.08 0 0 0-1.08-1.08z"/><path class="cls-5" d="M39 49.89a4.91 4.91 0 0 1-6.57-4.6m2.28 0a2.61 2.61 0 0 0 2.61 2.62 2.56 2.56 0 0 0 1.29-.34M14.45 39.82H6.19a.86.86 0 0 1-.86-.82.86.86 0 0 1 .86-.85h8.2"/><path class="cls-6" d="M44.67 36.81a2.6 2.6 0 0 0-.2-1 3.88 3.88 0 0 0-3.71-2.75H23.81a5.92 5.92 0 1 0 0 11.83H37.9l1.31 7.47a2.58 2.58 0 0 0 2.58 2.58h3a2.57 2.57 0 0 0 2.58-2.58z"/><path class="cls-5" d="M19.21 35.37a3.93 3.93 0 0 0-.92-.12 3.72 3.72 0 1 0 0 7.43 3.93 3.93 0 0 0 .92-.11"/></g></g></svg>