<svg xmlns="http://www.w3.org/2000/svg" viewBox="0 0 70 70"><path stroke-width=".8" stroke-linejoin="round" stroke="#ff5a19" fill="none" d="M41.67 19v1.28l7.66-.91v-.95"/><path stroke-miterlimit="10" fill-rule="evenodd" stroke="#ff5a19" fill="none" d="M21.78 26.14a6.88 6.88 0 0 1 .39-11.21M27.23 13.83a6.92 6.92 0 0 1 1 13.45"/><path stroke-width="1.5" stroke="#353535" stroke-miterlimit="10" fill-rule="evenodd" fill="none" d="M43.19 52.22l.05-8.75a10.34 10.34 0 0 0-1.4-4.39M40 36.66a16.75 16.75 0 0 0-6.21-3.94c-2.2-.79-5.34-1.42-5.87-5.33L26.47 8.68a1.1 1.1 0 0 0-1.1-1H23a1.11 1.11 0 0 0-1.11 1.11v52.38h14"/><path stroke-linejoin="round" stroke="#ff5a19" fill="none" d="M41.67 43.64V19l9.25-.93v-2.64L40.2 16.52h-.19v.02h-.03v2.63l.03 24.47"/><path stroke-width=".72" stroke="#353535" stroke-linejoin="round" fill="none" d="M38.86 50.93v-7.42h4.26v8.07"/><path stroke="#353535" stroke-miterlimit="10" fill-rule="evenodd" fill="none" d="M33.57 56.59a5.83 5.83 0 1 1 5.82 5.75 5.79 5.79 0 0 1-5.82-5.75z"/><path stroke="#353535" stroke-miterlimit="10" fill-rule="evenodd" stroke-width=".8" fill="none" d="M36.05 56.59a3.35 3.35 0 1 1 3.34 3.31 3.32 3.32 0 0 1-3.34-3.31zM22 51c0-9.26 7.44-16.68 14.8-16.68"/><path stroke-width=".8" stroke-linejoin="round" stroke="#ff5a19" fill="none" d="M50.85 18v1.39a1.44 1.44 0 0 1-1.33 1.54l-7.79.75"/></svg>