<svg xmlns="http://www.w3.org/2000/svg" viewBox="0 0 60 60"><defs><style>.cls-1,.cls-2,.cls-3,.cls-4{fill:none}.cls-1,.cls-2,.cls-3{stroke:#ff5a19;stroke-linejoin:round}.cls-2,.cls-3{stroke:#353535}.cls-2{stroke-width:1.5px}</style></defs><title>Уборка-офиса</title><g id="Слой_2" data-name="Слой 2"><g id="Слой_1-2" data-name="Слой 1"><path class="cls-1" d="M21.67 22.93h6.19a.87.87 0 0 1 .87.88v1.56"/><path class="cls-2" d="M18.06 25.17h-4.32a.86.86 0 0 0-.86.86v1.1a.87.87 0 0 0 .86.87h1.2l1.22 18a2.51 2.51 0 0 0 2.51 2.51h14.4a2.32 2.32 0 0 0 .65-.09M35.86 25.17h-8.94"/><path class="cls-3" d="M27.03 27.79h8.42M14.59 27.79h3.42"/><path class="cls-2" d="M26.28 33.15c1.89 3.12 4.65 6.56 7.91 7.23M37.54 20.53c-2.21 5-3.76 15.51-3.86 27.83v2.15a28.88 28.88 0 0 0 7 .72 31.76 31.76 0 0 0 6.41-.57v-1.12-1.33c-.1-12.55-1.73-23-4-27.74"/><path class="cls-3" d="M37.69 13.22h5.28v2.6h-5.28zM36.88 13.21h7.95V8.78H29.71v3H31a11.68 11.68 0 0 1 3.47.51"/><path class="cls-3" d="M34.5 12.33a12 12 0 0 1-1.15 3.37 12.53 12.53 0 0 1-1.93 2.83 7.41 7.41 0 0 0 3.26-1.78 7 7 0 0 0 2.2-3.54h-.34a9.66 9.66 0 0 0-2.04-.88zM43.36 20.58v-4.72h-6.07v4.71h6.07z"/><path class="cls-1" d="M18.12 22.93h8.64V33.3h-8.64z"/><path class="cls-3" d="M31.94 8.77v3.06M34.62 32.27h11.75M34.25 43.14h12.12"/><path class="cls-4" d="M0 0h60v60H0z"/></g></g></svg>