<svg xmlns="http://www.w3.org/2000/svg" viewBox="0 0 70 70"><path stroke-width=".8" stroke-linejoin="round" stroke="#353535" fill="none" d="M46.37 34V15.59h7.33A1.61 1.61 0 0 0 55.31 14v-.3a1.61 1.61 0 0 0-1.61-1.61h-7.1a1.62 1.62 0 0 0-1.6 1.59V34"/><path stroke-width=".79" stroke-linejoin="round" stroke="#353535" fill="none" d="M35.15 37.44c.43-1.95.74-3.75 2.5-3.75h8.75v3.46"/><path stroke-linejoin="round" stroke="#353535" fill="none" d="M46.32 52V35.86H37c-1.06 0-1.49 1-1.93 1.94-3 6.65-5.1 11.79-5.1 11.79-.92 0-7.49 6.34-9.17 8"/><path stroke-linecap="round" stroke-width=".8" stroke-linejoin="round" stroke="#353535" fill="none" d="M46.32 49.91H29.73"/><path stroke="#ff5a19" stroke-linejoin="round" fill="none" d="M43.26 62.22H18.38v-4.67h21.56"/><path stroke-linejoin="round" stroke="#353535" fill="none" d="M39.86 57.2a5.4 5.4 0 1 1 5.4 5.4 5.4 5.4 0 0 1-5.4-5.4z"/><path stroke-linejoin="round" stroke="#353535" fill="none" d="M42.64 57.2a2.62 2.62 0 1 1 2.62 2.62 2.62 2.62 0 0 1-2.62-2.62z"/><path stroke="#ff5a19" stroke-linecap="round" stroke-linejoin="round" fill="none" d="M21.37 59.88v2.27M23.43 59.88v2.27M25.5 59.88v2.27M27.57 59.88v2.27"/></svg>