<svg xmlns="http://www.w3.org/2000/svg" viewBox="0 0 70 70"><defs><style>.cls-1,.cls-2,.cls-3,.cls-4,.cls-5{fill:none}.cls-2,.cls-3{stroke:#353535}.cls-2,.cls-3,.cls-4,.cls-5{stroke-linejoin:round}.cls-3,.cls-4{stroke-width:1.5px}.cls-4,.cls-5{stroke:#ff5a19}</style></defs><title>Произв.-помещения</title><g id="Слой_2" data-name="Слой 2"><g id="Слой_1-2" data-name="Слой 1"><path class="cls-1" d="M0 0h70v70H0z"/><path class="cls-2" d="M53.58 12.11h-8.07a1.84 1.84 0 0 0-1.84 1.83v3.8h1.58v-1.63h8.33a1.84 1.84 0 0 0 1.84-1.83v-.34a1.84 1.84 0 0 0-1.84-1.83z"/><path class="cls-2" d="M32.78 20.72c.4-1.67.94-3 2.55-3h9.94v3.93"/><path class="cls-3" d="M45.24 48.43V20.18H34.65c-10.57 2.3-19 28.24-19 28.24"/><path class="cls-4" d="M40.8 56.87H15a1 1 0 0 1-1-1v-6.26a1 1 0 0 1 1-1h26.74"/><path class="cls-5" d="M14.27 53.56h25.1M16.84 53.52v2.82M19.36 53.52v2.82M21.89 53.52v2.82M24.42 53.52v2.82"/><circle class="cls-2" cx="43.79" cy="53.01" r="4.89"/><circle class="cls-2" cx="43.79" cy="53.01" r="2.28"/></g></g></svg>