<svg xmlns="http://www.w3.org/2000/svg" viewBox="0 0 116 116"><path fill="none" stroke="#263239" stroke-width="2.5" stroke-miterlimit="10" d="M60.4 55.8v22.6M55.6 38.6V15.1c0-1.3 1.1-2.4 2.4-2.4 1.3 0 2.4 1.1 2.4 2.4v26.7M55.6 78.3V55.5M53.9 92.7V81.9c0-2.3 1.9-4.1 4.1-4.1 2.3 0 4.1 1.9 4.1 4.1v10.8"/><path fill="none" stroke="#263239" stroke-width="2" stroke-linecap="round" stroke-miterlimit="10" d="M39.9 96.4c0-2 1.6-3.7 3.7-3.7h28.8c2 0 3.7 1.6 3.7 3.7"/><path fill="none" stroke="#ff5a19" stroke-width="2.5" stroke-miterlimit="10" d="M80.9 101.7c0 .9-.7 1.6-1.6 1.6H36.6c-.9 0-1.6-.7-1.6-1.6v-2.6c0-.9.7-1.6 1.6-1.6h42.7c.9 0 1.6.7 1.6 1.6v2.6z"/><path fill="none" stroke="#ff5a19" stroke-width="2" stroke-linecap="round" stroke-miterlimit="10" d="M43.1 53c-1 0-1.9-2.1-1.9-4.7s.8-4.7 1.9-4.7"/><path fill="none" stroke="#ff5a19" stroke-width="2" stroke-linecap="round" stroke-linejoin="round" stroke-miterlimit="10" d="M43 53.1s3.9-.7 5 .1c2 1.2 4.3 1.9 6.7 2H61c.8 0 1.4-.6 1.4-1.4v-.4c0-.8-.6-1.4-1.4-1.4h1.4c.9 0 1.6-.7 1.6-1.6V50c0-.9-.7-1.6-1.6-1.6h.3c.9 0 1.6-.7 1.6-1.6v-.4c0-.9-.7-1.6-1.6-1.6h-1c.9 0 1.7-.7 1.8-1.6v-.4c-.1-.9-.9-1.7-1.8-1.6l-5.5-.2v-3.1c-.8-.5-1.8-.3-2.5.3l-5.8 5.4-4.9.1"/></svg>