<svg xmlns="http://www.w3.org/2000/svg" width="115.9" height="50" viewBox="0 0 115.9 50"><title>litteone</title><g id="Слой_2" data-name="Слой 2"><g id="Слой_1-2" data-name="Слой 1"><rect width="115.9" height="50" fill="none"/><path d="M82.84,34.68a1.7,1.7,0,0,0,1.46-1.11q.83-2.34,1.63-4.69a.45.45,0,0,1,.51-.36c1.44,0,2.87,0,4.31,0,.63,0,.63,0,.44.62.19,0,.32-.11.47-.17a6.56,6.56,0,0,1,4.46-.56,2.94,2.94,0,0,1,2.12,3.94c-.31,1-.67,1.89-1,2.84-.07.22-.23.5,0,.71s.5.06.72-.06a4.93,4.93,0,0,0,1.58-1.51c.11-.15,0-.34,0-.51a4.63,4.63,0,0,1,2.17-4,10.47,10.47,0,0,1,8.4-1.24,4.68,4.68,0,0,1,.92.39,2.45,2.45,0,0,1,.28,4.2,9.88,9.88,0,0,1-4,1.63,8.23,8.23,0,0,1-1.95.19c-.37,0-.34.16-.28.4a2.27,2.27,0,0,0,2.31,1.72,5.76,5.76,0,0,0,4.94-2.54,9.16,9.16,0,0,0,.89-1.47.8.8,0,0,1,1.2-.44c.43.24.5.66.18,1.19s-.78,1.28-1.2,1.9a7,7,0,0,1-4.92,3,10.52,10.52,0,0,1-5.46-.48,5.81,5.81,0,0,1-2.61-1.87c-.22-.28-.3-.19-.47,0a5.48,5.48,0,0,1-3,2.16,7.07,7.07,0,0,1-3.17.1c-2-.41-2.62-1.92-2.32-3.64a21.31,21.31,0,0,1,1-2.94,4.16,4.16,0,0,0,.2-.93c0-.5-.27-.7-.73-.5a2.2,2.2,0,0,0-.78.62A10.4,10.4,0,0,0,89.56,34a34.76,34.76,0,0,0-1.43,4,.62.62,0,0,1-.72.54c-1.55,0-3.1,0-4.64,0l-.1,0c-.06-.21.13-.38.1-.66a3.17,3.17,0,0,1-2-.36c-.17-.09-.28.12-.4.2a9.94,9.94,0,0,1-9.08,1.18,5.57,5.57,0,0,1-3.19-2.68c-.27.28-.5.56-.77.79a7.85,7.85,0,0,1-4.11,1.78,10.39,10.39,0,0,1-5.22-.5,5.84,5.84,0,0,1-2.59-1.82c-.22-.28-.33-.28-.53,0-1.51,2.14-3.62,2.67-6.07,2.18a2.75,2.75,0,0,1-2.18-1.8,5.57,5.57,0,0,1-3.17,1.84,6,6,0,0,1-2.33,0,3,3,0,0,1-2.33-1.84c-.18.05-.27.22-.39.33a5.84,5.84,0,0,1-5.22,1.49A2.75,2.75,0,0,1,31,36.78a5.44,5.44,0,0,1-2.91,1.82,5.2,5.2,0,0,1-4.16-.44.33.33,0,0,0-.39,0,4.76,4.76,0,0,1-5.16-.24l-1.43-.88c-.15-.1-.27-.16-.47,0a14.69,14.69,0,0,1-8.63,2.12,13.71,13.71,0,0,1-4.67-.87,5.18,5.18,0,0,1-1.37-.76,1.85,1.85,0,0,1-.63-2.22,4.77,4.77,0,0,1,2-2.47A9.66,9.66,0,0,1,7.93,31.2a16,16,0,0,1,5.45.49c.45.12.58,0,.7-.4.77-2.39,1.53-4.79,2.34-7.17A31.84,31.84,0,0,1,20,16.53,12,12,0,0,1,26,11.44a13.34,13.34,0,0,1,8-.53,5.82,5.82,0,0,1,2.62,9.82,5.2,5.2,0,0,1-5.42,1.17,9.8,9.8,0,0,1-2.69-1.28,3,3,0,0,1,.84-.34,10.71,10.71,0,0,0,3.21-1.76A3.7,3.7,0,0,0,34,16.35,2.35,2.35,0,0,0,33,13.87a3.8,3.8,0,0,0-4-.23,7.09,7.09,0,0,0-3.2,3.25,26.88,26.88,0,0,0-1.6,4.18c-1.56,4.38-3.28,8.69-4.7,13.12a.73.73,0,0,0,.21.87,3.14,3.14,0,0,0,2.58,1c.29,0,.45-.12.42-.46a5.14,5.14,0,0,1,.39-2l1.63-4.74c.07-.2.1-.37.4-.37,1.75,0,3.51,0,5.34,0l-.71,2.09c-.5,1.45-1,2.89-1.49,4.34-.1.29-.29.65,0,.89s.64.08.94-.09a4.36,4.36,0,0,0,1.55-1.59,21.82,21.82,0,0,0,1.59-4c.07-.19,0-.26-.19-.25h-.93c.16-.44.29-.85.44-1.26.09-.23.3-.14.46-.14.8,0,.8,0,1.07-.77.2-.57.42-1.13.61-1.71.08-.25.19-.35.47-.33,1.53.15,3.06.2,4.59.21.3,0,.35.09.25.37-.23.63-.42,1.27-.65,1.89-.1.26,0,.34.23.34.61,0,1.21,0,1.82,0,.24,0,.33-.11.4-.31.22-.66.47-1.32.7-2,.06-.16.09-.32.34-.33a46.58,46.58,0,0,0,5.1-.39.88.88,0,0,1,.18,0c-.3.87-.57,1.73-.89,2.57-.14.37,0,.42.31.42,1.11,0,1.09,0,.7,1.06a.46.46,0,0,1-.52.34c-1.12,0-1.12,0-1.49,1.09-.42,1.23-.85,2.47-1.27,3.7a3.62,3.62,0,0,0-.15.6c-.09.57.17.78.72.57a3.56,3.56,0,0,0,1.71-1.48,8.28,8.28,0,0,0,.88-1.8c.82-2.43,1.66-4.85,2.48-7.27.07-.22.15-.38.42-.45a34.65,34.65,0,0,0,5.92-2c.12.14,0,.25,0,.36L52,35c0,.08-.06.15-.08.23-.15.55,0,.76.59.69a2.82,2.82,0,0,0,2-2.18,4.54,4.54,0,0,1,2.17-3.89,10.48,10.48,0,0,1,8.36-1.23A3.88,3.88,0,0,1,66,29a2.42,2.42,0,0,1,.31,4.13,8.69,8.69,0,0,1-3.59,1.59,9.77,9.77,0,0,1-2.42.28c-.31,0-.33.09-.27.35a2.2,2.2,0,0,0,2.17,1.75A5.82,5.82,0,0,0,67.68,34a2.76,2.76,0,0,0,.2-.73,6,6,0,0,1,2.62-3.42,9.8,9.8,0,0,1,8.91-1.14A5,5,0,0,1,83,32.67,4.27,4.27,0,0,1,82.84,34.68ZM74.71,38a1.26,1.26,0,0,0,.64-.13A4.07,4.07,0,0,0,77,36c.11-.18-.05-.25-.15-.35a2.14,2.14,0,0,1-.61-1,3,3,0,0,1,1.61-3.29c.12-.05.32,0,.32-.23a1.62,1.62,0,0,0-.42-1.27,1,1,0,0,0-1.07-.16,2.7,2.7,0,0,0-1.06.71,7.65,7.65,0,0,0-2,5.64,3.33,3.33,0,0,0,.33,1.48A.73.73,0,0,0,74.71,38ZM13.1,34.57l-.38-.12a11.26,11.26,0,0,0-4.88-.15,7.68,7.68,0,0,0-3.16,1.13c-.34.23-.81.52-.71.93s.62.44,1,.49a11.06,11.06,0,0,0,7.28-1.5A2.94,2.94,0,0,0,13.1,34.57Zm27.21-4.68-.16,0H38.77c-.89,0-.89,0-1.18.86q-.74,2.19-1.46,4.38c-.08.24-.16.52.08.71s.52.07.76,0a4.13,4.13,0,0,0,1.72-1.67A24.06,24.06,0,0,0,40.31,29.88Zm23.12-.43A2.14,2.14,0,0,0,62,30,5.73,5.73,0,0,0,60.27,33c-.08.31,0,.39.33.35A6.21,6.21,0,0,0,63.74,32a2,2,0,0,0,.75-1.44C64.56,29.76,64.27,29.46,63.43,29.46Zm45.11,0a2.19,2.19,0,0,0-1.55.63A5.84,5.84,0,0,0,105.38,33c-.08.32,0,.38.33.34a6.24,6.24,0,0,0,3.11-1.24,2,2,0,0,0,.78-1.48C109.67,29.76,109.38,29.45,108.54,29.46Z" fill="#d2b093"/><path d="M28.48,27.55a3.9,3.9,0,0,1-2.22-.68,1.67,1.67,0,0,1,.15-2.94,4.12,4.12,0,0,1,4.67.49,1.55,1.55,0,0,1-.16,2.41A3.72,3.72,0,0,1,28.48,27.55Z" fill="#d2b093"/></g></g></svg>