<svg xmlns="http://www.w3.org/2000/svg" width="44.3" height="44.1" viewBox="0 0 44.3 44.1"><defs><clipPath id="a" transform="translate(0 -1.67)"><path d="M21.4 0v25.89h9.2a2.45 2.45 0 0 1 2.4 2.45V33h2.42a1.26 1.26 0 0 1 1.3 1.22l-1.3 9.16h14.14V0z" fill="none"/></clipPath></defs><title>Общие работы</title><g data-name="Слой 2"><g data-name="Слой 1"><path d="M4.07 31.81v-5.14a2.45 2.45 0 0 1 2.45-2.45H30.6a2.45 2.45 0 0 1 2.4 2.45v5.14" fill="none" stroke="#682f24" stroke-miterlimit="10" stroke-width="1.14"/><path d="M7.56 42.33a1.22 1.22 0 0 1-1.22 1.2H3.09a1.22 1.22 0 0 1-1.23-1.2L.57 32.6a1.22 1.22 0 0 1 1.22-1.27h4.55a1.22 1.22 0 0 1 1.22 1.22zM29.33 42.33a1.26 1.26 0 0 0 1.3 1.22h3.46a1.26 1.26 0 0 0 1.3-1.22l1.37-9.71a1.26 1.26 0 0 0-1.3-1.29h-4.83a1.26 1.26 0 0 0-1.3 1.22zM7.57 42.45h21.44" fill="none" stroke="#682f24" stroke-miterlimit="10" stroke-width="1.14"/><path fill="none" stroke="#682f24" stroke-miterlimit="10" stroke-width=".57" d="M7.57 36.84h21.44M7.56 33.9h21.77M18.56 24.66v9.27"/><g clip-path="url(#a)"><path d="M38.83 38.69v1.1a.84.84 0 0 0 .84.84h1.77a.84.84 0 0 0 .84-.84v-1.1M24.54 38.69v1.1a.84.84 0 0 0 .84.84h1.77a.84.84 0 0 0 .84-.84v-1.1" fill="none" stroke="#682f24" stroke-linejoin="round" stroke-width=".57"/><rect x="23.22" y=".57" width="20.52" height="38.38" rx="2.12" ry="2.12" fill="none" stroke="#682f24" stroke-linecap="round" stroke-linejoin="round" stroke-width="1.14"/><path fill="none" stroke="#682f24" stroke-linejoin="round" stroke-width=".57" d="M23.22 6.65h20.51M33.47.57v38.38"/><circle cx="30.84" cy="21.61" r="1.12" fill="#682f24"/><circle cx="36.04" cy="21.61" r="1.12" fill="#682f24"/></g><path d="M14.48 3.76H8l-1.86 9.8c0 .55 2.27 1 5.07 1s5.08-.44 5.08-1zM11.27 14.87v9.35" fill="none" stroke="#682f24" stroke-linejoin="round" stroke-width="1.14"/><path fill="none" stroke="#682f24" stroke-linejoin="round" stroke-width=".57" d="M11.27 3.76v10.79M12.83 3.76l1.19 10.63M9.53 3.76L8.48 14.38"/></g></g></svg>