<svg data-name="Слой 1" xmlns="http://www.w3.org/2000/svg" width="134.16" height="33.32" viewBox="0 0 134.16 33.32"><path d="M10.86 20.51H6.55a1.88 1.88 0 0 1-1.88-1.88v-4.27a1.88 1.88 0 0 1 1.88-1.88h4.31a1.88 1.88 0 0 1 1.88 1.88v4.27a1.88 1.88 0 0 1-1.88 1.88zm-4.27-6.58a.43.43 0 0 0-.43.43v4.27a.43.43 0 0 0 .43.43h4.27a.43.43 0 0 0 .43-.43v-4.27a.43.43 0 0 0-.43-.42H6.55z" fill="#fd8204"/><path d="M13.98 5.64l-1.49-1.43-1.41-1.4C9 .73 8.24.01 7.55.01h-1.5a1.88 1.88 0 0 0-1.88 1.88v1.34c-.41.53-1.56 2-2.61 3.47l-.12.17A5.69 5.69 0 0 0 0 9.7v13.63a1.88 1.88 0 0 0 1.86 1.86h13.65a1.88 1.88 0 0 0 1.88-1.88V9.68c-.01-.73-.84-1.58-3.41-4.04zM2.73 7.55c1.29-1.76 2.73-3.62 2.74-3.64l.15-.2V1.88a.43.43 0 0 1 .43-.43h1.41a21.41 21.41 0 0 1 2.58 2.38l1.42 1.41 1.5 1.44c.79.75 1.7 1.62 2.31 2.27H1.76c.26-.44.63-.94.85-1.24zm12.78 16.19H1.86a.43.43 0 0 1-.43-.43v-12.9h14.5v12.91a.43.43 0 0 1-.42.42z" fill="#682f24"/><path d="M24.31 25.25c-.52-1.1-.89-1.35-1.28-1.43v1.43h-.75v-3.09h.75v1.49c.24-.27.7-.83 1.2-1.49h.89a10.31 10.31 0 0 1-1.17 1.41c.31.12.59.32 1.24 1.67h-.88z" fill="#ff8300"/><path d="M26.86 23.74c0-1.26.49-1.62 1.47-1.62s1.48.36 1.48 1.62-.49 1.64-1.48 1.64-1.47-.42-1.47-1.64zm.78 0c0 .86.16 1 .69 1s.7-.16.7-1-.16-1-.7-1-.72.08-.72 1zM34.51 22.16h1.05v3.09h-.75V23c-.29.61-.63 1.46-.85 2.07h-.57c-.22-.61-.55-1.47-.83-2.07v2.25h-.7v-3.09h1.1c.29.59.54 1.2.8 1.84.21-.65.47-1.26.75-1.84zM39.46 20.95h.75v1.18a2.24 2.24 0 0 1 .5-.06c1 0 1.36.37 1.36 1.63s-.45 1.64-1.21 1.64a1.14 1.14 0 0 1-.64-.18v1.26h-.76v-1.26a1.17 1.17 0 0 1-.64.18c-.77 0-1.22-.38-1.22-1.63s.4-1.63 1.36-1.63a2.33 2.33 0 0 1 .5.06v-1.18zm0 3.46V22.8a1.38 1.38 0 0 0-.5-.08c-.44 0-.62.15-.62 1s.18 1 .61 1 .51-.13.51-.31zm1.87-.69c0-.85-.18-1-.62-1a1.36 1.36 0 0 0-.5.08v1.62c0 .18.21.28.5.28s.62-.21.62-.96zM44.01 23.74c0-1.26.49-1.62 1.47-1.62s1.48.36 1.48 1.62-.49 1.64-1.48 1.64-1.47-.42-1.47-1.64zm.78 0c0 .86.16 1 .69 1s.7-.16.7-1-.16-1-.7-1-.69.08-.69 1zM49.01 22.3a4 4 0 0 1 1.35-.23c1 0 1.48.37 1.48 1.63s-.52 1.63-1.34 1.63a1.54 1.54 0 0 1-.74-.18v1.26h-.75V22.3zm.75 2.1a.53.53 0 0 0 .61.3c.53 0 .7-.21.7-1s-.18-1-.71-1a1.83 1.83 0 0 0-.6.09v1.59zM55.32 25.25h-.76v-2.43H53.5v-.66h2.88v.66h-1.06v2.43zM57.86 23.19h1.49v.72h-1.49v-.72zM63.67 25.18a2.94 2.94 0 0 1-.94.16 1.64 1.64 0 0 1 0-3.27 3.22 3.22 0 0 1 .94.15l-.17.64a2.18 2.18 0 0 0-.72-.13c-.55 0-.81.12-.81 1s.26 1 .81 1a2 2 0 0 0 .72-.15zM67.95 25.17a3.89 3.89 0 0 1-1.08.17 1.37 1.37 0 0 1-1.5-1.64c0-1.24.54-1.62 1.44-1.62s1.4.33 1.35 1.83h-2a.66.66 0 0 0 .8.8 3.75 3.75 0 0 0 .87-.13zm-1.78-1.84h1.3c0-.55-.18-.66-.61-.66a.58.58 0 0 0-.69.66zM70.15 22.3a4 4 0 0 1 1.35-.23c1 0 1.48.37 1.48 1.63s-.52 1.63-1.34 1.63a1.54 1.54 0 0 1-.74-.18v1.26h-.75V22.3zm.75 2.1a.53.53 0 0 0 .61.3c.53 0 .7-.21.7-1s-.18-1-.71-1a1.84 1.84 0 0 0-.6.09v1.59zM77.86 24.41a.77.77 0 0 1-.91.84h-1.92v-3.09h1.83c.7 0 .86.29.86.74a.62.62 0 0 1-.7.71.69.69 0 0 1 .84.8zm-2-1h.89a.26.26 0 0 0 .3-.32.25.25 0 0 0-.3-.3h-.97v.62zm.92 1.3a.29.29 0 0 0 .33-.35.33.33 0 0 0-.35-.4h-.9v.75h.92zM81.86 23.37a15.5 15.5 0 0 1-1.26 1.89h-.74v-3.09h.75v2a16.12 16.12 0 0 0 1.26-2h.75v3.09h-.76v-1.89zM87.14 25.18a2.94 2.94 0 0 1-.94.16 1.64 1.64 0 0 1 0-3.27 3.22 3.22 0 0 1 .94.15l-.17.64a2.18 2.18 0 0 0-.72-.13c-.55 0-.81.12-.81 1s.26 1 .81 1a2 2 0 0 0 .72-.15z" fill="#fd8204"/><g fill-rule="evenodd"><path d="M131.86 12.09a.43.43 0 0 1-.25.29 1.12 1.12 0 0 1-.56.13.11.11 0 0 0-.12.05 2.45 2.45 0 0 0-.35 1.1.08.08 0 0 0 0 .09.49.49 0 0 1 .14.09 2 2 0 0 1 .49 1.05 2.74 2.74 0 0 1 0 .7 1.24 1.24 0 0 1-.11.37c-.09.2-.16.4-.26.59a.33.33 0 0 0 .07.41.7.7 0 0 1 .21.36.42.42 0 0 1 0 .32.88.88 0 0 1-.13.2.74.74 0 0 0-.16.45 1.45 1.45 0 0 1 0 .33.5.5 0 0 1-.12.22 1.32 1.32 0 0 0-.31.38.85.85 0 0 1-.09.12l-.14.17-.46.54a.89.89 0 0 1-.16.14l-.66.45h.09l.6.22a1 1 0 0 1 .47.41l.11.16a2.51 2.51 0 0 1 .37.62 5.31 5.31 0 0 1 .3 1.16 1.79 1.79 0 0 1-.26 1.21l-.14.21a.78.78 0 0 1-.36.34.18.18 0 0 0-.1.1 1.26 1.26 0 0 0-.11.57.2.2 0 0 0 .29.19l1.26-.5a2 2 0 0 1 .9-.17h.36a1.92 1.92 0 0 1 .66.23 1.3 1.3 0 0 1 .55.59c0 .09.08.18.12.27a1.79 1.79 0 0 1 .08 1 1.94 1.94 0 0 1-.46.92 1.2 1.2 0 0 1-.34.29l-.52.26-.26.1a4.66 4.66 0 0 1-.94.13h-.37l-.83.1a2.64 2.64 0 0 0-.66.14 1.57 1.57 0 0 1-.48.13h-.18a5.36 5.36 0 0 1-.56.05 4.71 4.71 0 0 1-.73-.05 1.15 1.15 0 0 1-.76-.39l-.14-.2a.24.24 0 0 0-.11-.11 1.6 1.6 0 0 0 0 .21c0 .1 0 .2.05.3.05.28.12.56.16.85s.08.69.11 1a2.22 2.22 0 0 1 0 .71 1.63 1.63 0 0 1-.44.88l-.16.12-.12.07a1.24 1.24 0 0 1-.62.27l-.5.07a1.77 1.77 0 0 1-.65 0l-.9-.27a1.6 1.6 0 0 1-.67-.42.24.24 0 0 1-.05-.07 2.17 2.17 0 0 1-.22-.7 5.78 5.78 0 0 1 0-1 .86.86 0 0 1 0-.18 2.94 2.94 0 0 0 .13-.58c0-.14 0-.27.05-.41a2.78 2.78 0 0 0 0-.29 7.2 7.2 0 0 0-.08-1.09 1.68 1.68 0 0 1 .16-1 .73.73 0 0 0 .09-.5.78.78 0 0 0-.07-.19c0-.1-.11-.21-.14-.31a.53.53 0 0 0-.23-.28l-.21-.12a1.37 1.37 0 0 0-.57.05h-7.41a.22.22 0 0 0-.24.14.14.14 0 0 1-.11.11.66.66 0 0 1-.24 0 .6.6 0 0 1-.23-.15 1.15 1.15 0 0 0-.24-.17h-.07l-.38-.32a.85.85 0 0 1-.3-.53c0-.26-.09-.52-.13-.78a2.75 2.75 0 0 1 0-.83.77.77 0 0 1 .09-.25 1.1 1.1 0 0 1 .49-.46 2.4 2.4 0 0 0 .28-.17l.47-.34a2 2 0 0 0 .17-.16l-.11-.13a1.69 1.69 0 0 1-.39-.58.4.4 0 0 1 0-.31 2.66 2.66 0 0 1 .16-.35c0-.07.1-.14.13-.21l.26-.55c.15-.35.31-.69.45-1s.17-.47.27-.7a4.12 4.12 0 0 0 .21-.7 5.8 5.8 0 0 1 .34-1.07c.17-.39.38-.78.57-1.16a.74.74 0 0 1 .08-.13l.46-.62.14-.15.54-.54a2.67 2.67 0 0 1 .55-.43l.16-.11.32-.21c.07 0 .15-.07.22-.12a2.72 2.72 0 0 1 .53-.31 4.31 4.31 0 0 0 .65-.4l.08-.07a.34.34 0 0 0-.13 0h-.55l-.39-.24-.6-.15a2.53 2.53 0 0 1-.93-.4l-.08-.05a2.67 2.67 0 0 1-.66-.53 8.05 8.05 0 0 1-.9-1.23 7.81 7.81 0 0 1-.64-1.5l-.09-.23c0-.1-.07-.2-.1-.31a2.19 2.19 0 0 1 0-.89 4.55 4.55 0 0 1 .42-1.41c.08-.16.16-.32.25-.48l.4-.68a11.66 11.66 0 0 1 .69-1 1 1 0 0 1 .13-.14 4.47 4.47 0 0 1 .62-.53l.12-.1.3-.24.35-.24a4.91 4.91 0 0 1 .81-.45l.47-.19a3.69 3.69 0 0 1 1.47-.28h.84a2.35 2.35 0 0 1 .54 0h.08l.43-.11a3 3 0 0 1 .67-.09 4.55 4.55 0 0 1 1.2.13 3.71 3.71 0 0 1 .67.22 2 2 0 0 0 .23.08c.1 0 .21.06.31.1l.62.29a4.65 4.65 0 0 1 .46.24 5.41 5.41 0 0 1 .85.59l.1.08a2.94 2.94 0 0 1 .64.58 4.44 4.44 0 0 1 .39.47 12.45 12.45 0 0 1 .66 1.06 4 4 0 0 1 .29.72 5.78 5.78 0 0 1 .2 1.69 4.23 4.23 0 0 1-.14 1 5.57 5.57 0 0 1-.23.64 5.88 5.88 0 0 1-.54 1.09c-.13.2-.27.39-.42.58a1.78 1.78 0 0 1-.18.2l-.46.45a2.73 2.73 0 0 1-.9.63l-.36.19c-.18.09-.36.19-.54.27s-.46.17-.7.26h-.09l.17.1.38.23.38.25a3.36 3.36 0 0 1 .75.6 6.43 6.43 0 0 1 1 1.43c.05.1.09.2.13.3s.05.13.08.19a1.86 1.86 0 0 1 .29.77l.1-.05a.85.85 0 0 1 .17-.06h.36a.08.08 0 0 0 .08-.06.32.32 0 0 0 0-.23 1.28 1.28 0 0 1 0-.89 1.24 1.24 0 0 0 .06-.49v-.33a1.24 1.24 0 0 1 0-.2.18.18 0 0 1 .17-.16h.1a.39.39 0 0 0 .28-.05h.09a.23.23 0 0 1 .19 0l.3.14a.33.33 0 0 0 .17.06v-.11a2.17 2.17 0 0 1 .26-.85l.1-.19a.1.1 0 0 0 0-.08.68.68 0 0 1-.07-.36v-.14a.62.62 0 0 1-.69-.44.7.7 0 0 1 .22-.69l-.12-.02a1.35 1.35 0 0 1-.16-.19.41.41 0 0 1 0-.43.73.73 0 0 1 .4-.31h.12v-.33a.28.28 0 0 1 .09-.21.74.74 0 0 1 .66-.24.71.71 0 0 1 .37.16l.14.11.2-.08a1 1 0 0 1 .51 0 .57.57 0 0 1 .42.73v.09a.62.62 0 0 1 .35.26.71.71 0 0 1 .13.56.52.52 0 0 1-.28.35l-.09.05a2.55 2.55 0 0 1 .06.25 1.77 1.77 0 0 1 0 .26.54.54 0 0 1-.39.5 1.43 1.43 0 0 1-.77-.09zm-6 2.77l.12.3c0 .12.08.24.13.35a.53.53 0 0 0 .08.14.34.34 0 0 0 .41 0l.18-.1.17-.12a.16.16 0 0 1 0 .17l-.12.13a1 1 0 0 0-.26.5 4.28 4.28 0 0 0-.08.67 3.52 3.52 0 0 0 .08.79 7.21 7.21 0 0 1 .14 1.09 2 2 0 0 0 .36 1 1.2 1.2 0 0 0 .43.37 1.91 1.91 0 0 0 .86.22 1.05 1.05 0 0 0 .51-.07 1.87 1.87 0 0 0 .75-.56 3.57 3.57 0 0 0 .23-.35.33.33 0 0 0 0-.27.23.23 0 0 0-.14-.13 1.53 1.53 0 0 0-.53-.16l-.42-.06a1.12 1.12 0 0 1-.25-.09 3.34 3.34 0 0 1-.55-.33 1.2 1.2 0 0 1-.41-.57v-.11a4.15 4.15 0 0 0-.21.54v-.08a3.32 3.32 0 0 1 0-1.13.59.59 0 0 1 0-.11c.08-.21.17-.42.24-.63a.77.77 0 0 0 0-.21 2.81 2.81 0 0 0-.15-1.23 4.42 4.42 0 0 0-.8-1.34 4.9 4.9 0 0 0-.74-.68 1.94 1.94 0 0 0-.34-.19l-.65-.29a1 1 0 0 0-.57-.06h-.15l-.45.12v.08c.1.43.2.87.26 1.31a4.48 4.48 0 0 1 0 .88v1a.68.68 0 0 1-.32.58.64.64 0 0 1-.27.09l-.91.13h-.28a.41.41 0 0 1-.34-.19.23.23 0 0 1 0-.11 3.23 3.23 0 0 1 0-.33 6.08 6.08 0 0 0-.26-1.84c-.06-.2-.15-.4-.2-.6a2.75 2.75 0 0 0-.42-.87.67.67 0 0 0-.58-.3 2.1 2.1 0 0 0-.75.15 3.62 3.62 0 0 0-.46.23c-.21.11-.44.21-.65.31l-.41.21-.28.16a3.19 3.19 0 0 0-.37.28c-.22.21-.43.43-.65.65l-.09.11c-.18.24-.36.48-.53.72s-.27.41-.4.62a.81.81 0 0 0-.06.18.8.8 0 0 1 0 .13 5.86 5.86 0 0 0-.35.94c0 .11-.08.22-.13.33a.84.84 0 0 0-.09.43.33.33 0 0 0 .28.31.69.69 0 0 0 .35 0 1.43 1.43 0 0 0 .29-.14.76.76 0 0 1 .56-.11h.18l-.05.06-.27.16a.2.2 0 0 0-.11.13.14.14 0 0 0 .11.19h.23a1.08 1.08 0 0 1 .38.14.47.47 0 0 1 .2.22.07.07 0 0 1-.1 0 3.14 3.14 0 0 0-1.38-.22 1.52 1.52 0 0 0-.69.17.57.57 0 0 0-.26.25l-.14.3c-.11.26-.22.53-.34.78a2.09 2.09 0 0 1-.19.28l-.08.12h.49a4.24 4.24 0 0 1 .94.16l.27.28.43.14a.68.68 0 0 1 .14.08 1.62 1.62 0 0 1 .64.93c0 .09 0 .19.06.3a1 1 0 0 0 .09-.11 2 2 0 0 0 .24-.64 6 6 0 0 1 .2-.74 3.28 3.28 0 0 1 .15-.37c0-.06.06-.1.09-.16a2.38 2.38 0 0 0 .19-.35 8.15 8.15 0 0 0 .27-.88 5.85 5.85 0 0 0 .1-2c0-.18-.06-.36-.09-.53a.7.7 0 0 1 0-.09.1.1 0 0 1 .12-.13.65.65 0 0 0 .28-.07.46.46 0 0 0 .27-.41v-.21a.11.11 0 0 1 .07-.12c.07 0 .06.07.07.12a1.79 1.79 0 0 1 0 .63c-.06.29-.12.57-.17.86s-.06.39-.08.59c0 .35-.06.7-.09 1s-.06.84-.09 1.26a.47.47 0 0 0-.26.07.87.87 0 0 0-.29.35 2.72 2.72 0 0 0-.14.55 3.7 3.7 0 0 0-.09.94v.4a1.06 1.06 0 0 0 .32.6.45.45 0 0 0 .18.11.76.76 0 0 1 .22.13l.16.11a3.41 3.41 0 0 0 .51-.61 1.8 1.8 0 0 1 .17-.19l.2-.18a4.73 4.73 0 0 1 .94-.71l.11-.07h-.4a.16.16 0 0 1-.1-.05.09.09 0 0 1 0-.14 1.32 1.32 0 0 1 .24-.1 3.63 3.63 0 0 0 .79-.34c.19-.1.38-.18.56-.28a3.38 3.38 0 0 0 .44-.31 2.81 2.81 0 0 0-.31 0 3.28 3.28 0 0 0-.87.23 1.25 1.25 0 0 1-.44.1h-.57a.08.08 0 0 1 .05-.12 8.31 8.31 0 0 1 .92-.4 4.94 4.94 0 0 1 .87-.21l.4-.07.64-.06.8-.08h1.55a2.25 2.25 0 0 0 .62.08.31.31 0 0 0 .28-.16.35.35 0 0 0 0-.25c0-.07 0-.13-.05-.2s-.07-.4-.08-.6c0-.51-.06-1-.09-1.52a9.68 9.68 0 0 0-.14-1c-.05-.3-.08-.61-.12-.91v-.22a.14.14 0 0 1 0-.14.77.77 0 0 1 .09.27zm-2.68-9.71v.42h-.21a2.52 2.52 0 0 0-.53 0 2.18 2.18 0 0 1-.83 0 2.51 2.51 0 0 0-.76-.07 1.86 1.86 0 0 0-.37.06 1.84 1.84 0 0 1-.61 0 1 1 0 0 1-.45-.17c-.09-.05-.1-.06-.17 0l-.29.34-.12.12-.29.21a2 2 0 0 0-.39.4 1.17 1.17 0 0 0-.23.55 1.76 1.76 0 0 0 0 .44.3.3 0 0 1 0 .15.19.19 0 0 1-.2.14.24.24 0 0 0-.21.07.32.32 0 0 0-.05.3 4.05 4.05 0 0 0 .2.4.16.16 0 0 0 .07.05.71.71 0 0 0 .35.1.14.14 0 0 1 .13.07l.28.45a3.14 3.14 0 0 0 .76.87c.18.14.34.31.52.43a4.53 4.53 0 0 0 1 .57c.16.06.32.1.48.17a4.6 4.6 0 0 0 1.33.3 3.15 3.15 0 0 0 1.11-.12 6.14 6.14 0 0 0 1.2-.41 2.07 2.07 0 0 0 .63-.43c.18-.18.37-.36.55-.55a6.84 6.84 0 0 0 .48-.57 3 3 0 0 0 .23-.41l.1-.21a.16.16 0 0 1 .16-.09.36.36 0 0 0 .35-.2 1.13 1.13 0 0 0 .1-.25.41.41 0 0 0-.1-.41.78.78 0 0 0-.16-.09c0-.21.08-.41.1-.61a3.11 3.11 0 0 0 0-.49 2.28 2.28 0 0 0-.09-.63 1.91 1.91 0 0 0-.3-.59.63.63 0 0 0-.3-.18 2 2 0 0 0-1.13 0 3.06 3.06 0 0 1-.59.08 2.16 2.16 0 0 0-.65.13 2.46 2.46 0 0 1-.54.15c-.07-.14-.15-.28-.22-.43s-.12-.29-.17-.43c-.17.08-.17.22-.18.36zm-1.16 19.29a1.27 1.27 0 0 1 .69 0l.4.09a.12.12 0 0 0 .14 0l.38-.45c.05-.06.12-.12.17-.18s.16-.25.24-.38l.07-.11a.29.29 0 0 1 .21-.15l.45-.11a.19.19 0 0 0 .13-.11.2.2 0 0 0-.16-.3h-.88a.56.56 0 0 1 .31-.09 3.67 3.67 0 0 1 .55 0 .94.94 0 0 1 .41.18c.2.14.4.28.59.44s.35.33.53.49a1 1 0 0 0 .25.2.71.71 0 0 1 .25.19l.07.06.25.22a.78.78 0 0 0 .45.24.37.37 0 0 0 .27-.05.17.17 0 0 0 .07-.08.52.52 0 0 1 .18-.21.9.9 0 0 1 0 .3.63.63 0 0 0 0 .3.23.23 0 0 0 .19.16 2.8 2.8 0 0 0 .93 0 .89.89 0 0 0 .6-.33 2.32 2.32 0 0 0 .22-.42.29.29 0 0 0 0-.13 2.47 2.47 0 0 0-.1-.74l-.07-.18a1 1 0 0 1 .5.55v-.25-.46-.43a1.9 1.9 0 0 0-.23-.78 1.83 1.83 0 0 0-.22-.18 1.65 1.65 0 0 0-.17-.19 1.2 1.2 0 0 0-.25-.19 3.12 3.12 0 0 0-1.18-.33l-.42-.06-.68-.09a3.33 3.33 0 0 0-.75 0h-.17a2 2 0 0 0-.68.15h-.09l-1 .46-.82.38a5.41 5.41 0 0 0-.82.35.84.84 0 0 0-.21.15c-.12.11-.22.24-.34.35a1.84 1.84 0 0 0-.33.5 1.16 1.16 0 0 0-.1.45 2.09 2.09 0 0 0 0 .61v.13h.12zm.84-21.54l.26.71a8.08 8.08 0 0 0 .45 1c.05.1.09.2.14.3a.43.43 0 0 0 .12-.49l.06.07c.07.12.15.24.21.36a.24.24 0 0 0 .23.14h.54a.74.74 0 0 1 .3.05.93.93 0 0 0 .81 0 .26.26 0 0 0 .14-.21 2.07 2.07 0 0 0-.08-.87c-.09-.27-.18-.53-.26-.8a1.93 1.93 0 0 0-.29-.53 3.44 3.44 0 0 0-1.14-1.06 4.54 4.54 0 0 0-.86-.39 1.36 1.36 0 0 0-.29-.05.18.18 0 0 0-.11 0c-.08.05-.08.11 0 .17l.15.11a2.92 2.92 0 0 1 .74.73 2.33 2.33 0 0 1 .2.33c.1.21.19.42.29.63a1.92 1.92 0 0 1 .11 1.13.37.37 0 0 1-.1.25v-.13a4 4 0 0 0-.35-1.56 2.21 2.21 0 0 0-.86-1l-.22-.15-.08-.05-.67-.27a1.17 1.17 0 0 0-.73 0 .65.65 0 0 0-.48.56 3.45 3.45 0 0 0-.05 1V4.04a1.59 1.59 0 0 0 .32.83.58.58 0 0 0 .41.23 5.26 5.26 0 0 0 .75 0 .5.5 0 0 0 .17 0 .19.19 0 0 0 .13-.18 8.77 8.77 0 0 0 0-1 3.27 3.27 0 0 0-.1-.69c-.06-.22-.12-.44-.17-.67a1.33 1.33 0 0 1 .31.34zm1.07 23.84a1.06 1.06 0 0 1 .33.33.59.59 0 0 0 .27.24l.17.09a1.29 1.29 0 0 0 .72.08 1.81 1.81 0 0 0 .84-.3l.17-.13.05.14a.23.23 0 0 0 .39.06 1.59 1.59 0 0 0 .27-.55 1.33 1.33 0 0 0 .1-.48 1.8 1.8 0 0 0 0-.7 2.65 2.65 0 0 0-.1-.45 1.08 1.08 0 0 0-.17-.37 1.56 1.56 0 0 0-.78-.62l-.4-.17a4.12 4.12 0 0 0-.64-.14 2.61 2.61 0 0 0-.74 0 .55.55 0 0 0-.32.15 1.73 1.73 0 0 0-.19.22l-.26.33a.83.83 0 0 0-.2.39c0 .15-.08.31-.13.46a1.67 1.67 0 0 0 0 1 1.34 1.34 0 0 0 .13.28.39.39 0 0 0 .13.13l.27.14zm-9.56-4.57a1.07 1.07 0 0 1 .71.14l.07.05a.06.06 0 0 1-.09 0 2.19 2.19 0 0 0-.66-.06 1.66 1.66 0 0 0-.7.18 3.44 3.44 0 0 0-.72.48.22.22 0 0 0-.1.17.15.15 0 0 0 .06.14.19.19 0 0 1 .08.18.45.45 0 0 0 .2.42.8.8 0 0 1 .16 0c.06 0 .08 0 .08.09a1.34 1.34 0 0 0 0 .68 4.73 4.73 0 0 0 .1.51 4 4 0 0 0 .14.41.23.23 0 0 0 .21.12.09.09 0 0 0 .1-.11v-.54a4.08 4.08 0 0 1 0-.65.44.44 0 0 1 .23-.36l.21-.13.55-.28a.1.1 0 0 1 .13 0 .1.1 0 0 1 0 .13l-.08.11a1.22 1.22 0 0 0 .71.61.26.26 0 0 0 .34-.14.17.17 0 0 0 0-.14 2.67 2.67 0 0 1-.18-1v-.35-.27a.68.68 0 0 0-.25-.5 1.11 1.11 0 0 0-.62-.29.86.86 0 0 0-.58.07 1.22 1.22 0 0 1-.36.25h-.05a.91.91 0 0 0 .31.08zm.11 3.06h7.02a.15.15 0 0 0 .16-.1.19.19 0 0 0-.06-.21 1.11 1.11 0 0 0-.31-.17 4 4 0 0 0-.63-.17 3.77 3.77 0 0 1-.75-.2c-.1 0-.2-.09-.3-.12a1.57 1.57 0 0 0-.46-.05h-2.86v.13a.34.34 0 0 1-.31.36.9.9 0 0 1-.7-.22c-.13-.1-.24-.22-.35-.33a.18.18 0 0 0-.18 0 .81.81 0 0 0-.41.26.26.26 0 0 0-.07.22c0 .2 0 .39.06.61h.14zm17-15.94a.45.45 0 0 0-.76.29v.24a.39.39 0 0 0-.47.29.45.45 0 0 0 .29.53l-.07.06a.67.67 0 0 0-.23.66.28.28 0 0 0 .18.23.67.67 0 0 0 .45 0h.08c0 .07 0 .12-.07.18a.52.52 0 0 0 0 .32.21.21 0 0 0 .19.18.62.62 0 0 0 .64-.39l.07-.29.05.05a.74.74 0 0 0 .36.29.61.61 0 0 0 .4 0 .32.32 0 0 0 .23-.22.63.63 0 0 0-.05-.55l-.06-.1h.1a.9.9 0 0 0 .29-.18.47.47 0 0 0 0-.65.51.51 0 0 0-.37-.17h-.08v-.24a.56.56 0 0 0 0-.18.44.44 0 0 0-.58-.29 2.26 2.26 0 0 0-.3.12h-.09zm-10.62-4.35a2.32 2.32 0 0 1-.26-.56 1.88 1.88 0 0 1-.08-.59 2.28 2.28 0 0 1 .12-.84 4.5 4.5 0 0 0 .2-1 1.57 1.57 0 0 1 .1-.36.32.32 0 0 1 .1-.12l.25-.2a.47.47 0 0 0 .07-.08 1.51 1.51 0 0 0-.49.14 6.07 6.07 0 0 1-.82.4.78.78 0 0 0-.23.13l-.14.11a.89.89 0 0 0-.36.55c-.06.24-.12.49-.17.74a2.51 2.51 0 0 0 0 .73v.25a.81.81 0 0 0 .21.44l.31.34a.45.45 0 0 0 .33.13 1.7 1.7 0 0 0 .7-.1 1.07 1.07 0 0 1 .19 0zm7.93.18c-.19-.24-.39-.47-.56-.73s-.38-.52-.56-.78v-.06c0 .15.05.3.08.45a.35.35 0 0 0 0 .09l.22.4.38.65a4 4 0 0 1 .49 1.16 3.91 3.91 0 0 1 .07 1v.29a2.32 2.32 0 0 1-.25.77c-.2.45-.42.89-.63 1.34a3 3 0 0 1-.15.29.12.12 0 0 0 0 .15h.06a3.86 3.86 0 0 0 .68-.82l.2-.32a4.61 4.61 0 0 0 .58-1.46c0-.12.06-.23.07-.35a4 4 0 0 0 0-1.57 5.58 5.58 0 0 0-.68-1.66 3.3 3.3 0 0 0-.3-.35l-.21-.22a3.33 3.33 0 0 0-.3-.26l-.55-.36h-.08a1 1 0 0 0 .18.31 7.45 7.45 0 0 1 .94 1.24c.11.19.23.39.33.58s.08.19.12.28zm1.16 10.53l-.34 1.09a1.21 1.21 0 0 0 .72.13h.13a.2.2 0 0 0 .13-.14c0-.13.09-.25.14-.37s.08-.15.12-.23v-.06c.07-.2.15-.4.21-.61a1 1 0 0 0 0-.63c0-.12-.09-.24-.14-.35a1.12 1.12 0 0 0-.44-.51 3.21 3.21 0 0 0-.67-.3.23.23 0 0 0-.32.11.72.72 0 0 1 .5.24l.1.07a.09.09 0 0 1 0 .11h-.07l-.2-.14a.26.26 0 0 0-.2-.08.11.11 0 0 0-.07 0 1.5 1.5 0 0 1-.25.38.5.5 0 0 0-.08.32l.06-.07.16-.17a.31.31 0 0 1 .4 0l.18.16.11.08h-.08l-.25-.15a.11.11 0 0 0-.17 0c-.08.12-.16.24-.23.36a.23.23 0 0 0 0 .09 1.68 1.68 0 0 1 0 .2.24.24 0 0 0 .1.24l.17.13.12-.48v-.06a.64.64 0 0 1 .11.15 1 1 0 0 0 .36.48l.1.1zm-1.91.92a1.17 1.17 0 0 0-.19.31 2 2 0 0 0-.14.48 1.07 1.07 0 0 0 .09.49.36.36 0 0 0 .08.12 2.21 2.21 0 0 0 .43.36 3 3 0 0 0 1 .4h.62a.9.9 0 0 0 .28 0 .89.89 0 0 0 .43-.3.19.19 0 0 0 0-.1.56.56 0 0 1 .18-.42.39.39 0 0 0 .11-.42 1.23 1.23 0 0 0-.06-.13 1 1 0 0 0 0 .11.37.37 0 0 1-.28.33 2.26 2.26 0 0 1-1.13.06l-.32-.11-.08.53h-.05a2.4 2.4 0 0 1-.06-.57.13.13 0 0 0 0-.06 2.4 2.4 0 0 1-.48-.37.5.5 0 0 1-.23-.46v-.22a.79.79 0 0 0-.15-.04zm-.76-12.68c-.05-.16-.12-.31-.17-.47a2.61 2.61 0 0 0-.3-.55 3.68 3.68 0 0 0-.67-.74c-.09-.09-.17-.18-.27-.27l-.41-.33-.3-.19a1.39 1.39 0 0 0-.76-.24.2.2 0 0 0-.07 0 .27.27 0 0 0 0 .07l.12.08a2.65 2.65 0 0 1 .7.55l.54.6a1.27 1.27 0 0 1 .14.2 4.07 4.07 0 0 1 .37.72 2.11 2.11 0 0 1 .08.35v.77a.51.51 0 0 0 .06.28.56.56 0 0 0 .44.25.69.69 0 0 0 .26 0 .35.35 0 0 0 .25-.36v-.09a2.15 2.15 0 0 0 .04-.64zm.48 2.58a3.6 3.6 0 0 1 .12 1 3.49 3.49 0 0 1-.08.86 6.21 6.21 0 0 1-.24.68 7.66 7.66 0 0 1-.61 1.19c-.12.19-.26.36-.39.54l-.13.17a.15.15 0 0 0 .13-.05 4.19 4.19 0 0 0 .36-.29c.21-.2.42-.41.61-.62a1.29 1.29 0 0 0 .18-.25l.61-1.08a1.59 1.59 0 0 0 .09-.24V8.3a3.82 3.82 0 0 0 .22-1.57 1.74 1.74 0 0 0-.34-1 2.12 2.12 0 0 0-.32-.31h-.08l.12.46a2.47 2.47 0 0 1 .11.78 1 1 0 0 1-.07.39v-.08c0-.16-.07-.33-.11-.49a.45.45 0 0 0-.23-.28c.08.12.08.19.1.26zm-9.03-3.73l-.15.14a5.16 5.16 0 0 0-.65.6 2.7 2.7 0 0 0-.61 1.2 4.71 4.71 0 0 0-.1.89v.46c0 .15 0 .09.06.1.22-.26.48-.48.72-.71a1.4 1.4 0 0 0 .16-.2l.28-.41a1.52 1.52 0 0 0 .26-.95 2.81 2.81 0 0 1 0-.82c0-.11 0-.23.05-.34zm-3.17 2.2c.08-.11.15-.23.23-.34l.23-.34c0-.08.1-.15.14-.23a1.78 1.78 0 0 1 .44-.51 3.2 3.2 0 0 1 .6-.38q.28-.15.55-.33l.8-.56.14-.1a3 3 0 0 1 1.1-.59c.37-.19.77-.3 1.12-.53h.06-.07a4.4 4.4 0 0 0-.58 0 3.34 3.34 0 0 0-.79.21c-.18.08-.37.15-.55.22a4.44 4.44 0 0 0-.75.42l-.87.58a4.41 4.41 0 0 0-.7.59l-.51.52a1.05 1.05 0 0 0-.13.15 4.52 4.52 0 0 0-.58 1.08c0 .12-.09.23-.13.35a2.67 2.67 0 0 0 .25-.21zm1.44-.6a8 8 0 0 0-.6 1 1.41 1.41 0 0 0-.12.46 7.34 7.34 0 0 0-.06 1.09 3 3 0 0 0 .06.45 3.16 3.16 0 0 0 .12.47 1.6 1.6 0 0 0 .19.39c.16.23.34.45.52.68l.38.47a.45.45 0 0 0 .17.13l.37.19.13.06-.11-.1-.26-.22a2.34 2.34 0 0 1-.36-.42c-.09-.13-.19-.25-.28-.38a2.28 2.28 0 0 1-.35-.88 4 4 0 0 1 0-1.05 10.65 10.65 0 0 1 .12-1.19c0-.16.07-.31.11-.46l.07-.33a2.93 2.93 0 0 1 .23-.69c-.14.09-.24.2-.32.33zm.19 19.4h.73a.27.27 0 0 0 .27-.17.33.33 0 0 0-.11-.35l-.57-.42-.2-.15a2.26 2.26 0 0 1-.16-.17l-.3.05h-.5a.48.48 0 0 0-.16.26 1.36 1.36 0 0 0 0 .91 7.57 7.57 0 0 1 1 .04zm14.41 3.74v.13a.24.24 0 0 0 .29.21 2.29 2.29 0 0 0 .74-.29.22.22 0 0 0 .1-.2.21.21 0 0 0 0-.05 3.21 3.21 0 0 1-.05-.67.38.38 0 0 0 0-.14.17.17 0 0 0-.29-.06l-.16.11-.37.22a1.6 1.6 0 0 0-.25.16.4.4 0 0 0-.1.32zm-10.92-5.72l-.82.55a1.78 1.78 0 0 0-.35.39h.35a4.84 4.84 0 0 1 1.11.12h.51a.35.35 0 0 0 0-.06 2.54 2.54 0 0 1-.29-1v-.26zm-5-12.93l-.1-.27a3.66 3.66 0 0 1-.25-1.06 2.38 2.38 0 0 1 0-.37c0-.14 0-.28.06-.42a2.08 2.08 0 0 1 .19-.62c.1-.23.22-.45.33-.67v-.07a5.5 5.5 0 0 1 .59-1 2.44 2.44 0 0 1 .28-.39.35.35 0 0 0 0-.06.13.13 0 0 0-.11.06l-.35.42-.32.38a3.07 3.07 0 0 0-.4.56 10.52 10.52 0 0 0-.57 1.22 1.82 1.82 0 0 0-.1.82 1.85 1.85 0 0 0 .09.4 5.34 5.34 0 0 0 .37 1 1.88 1.88 0 0 0 .15.21h.06s.1-.07.09-.11zm-.77 12.59l.56.1a2 2 0 0 1 .3.08 1 1 0 0 1 .56.45v.07a.41.41 0 0 0 .08-.45c-.07-.12-.14-.24-.22-.36a.76.76 0 0 0-.44-.27 3.05 3.05 0 0 0-.53-.11.8.8 0 0 0-.74.3l-.15.21a.57.57 0 0 1 .59.01zm8.37-1.21l-.22.09-.41.21-.42.2-.14.06-.5.32h-.05.11a8 8 0 0 0 .87.25l.29.1h.11c.18-.28.25-.7.37-1.19zm1.5 10.61a.79.79 0 0 0 0-.11.1.1 0 0 0-.09-.09.73.73 0 0 0-.42 0l-.18.07a.39.39 0 0 0-.25.36 1.68 1.68 0 0 0 0 .22.32.32 0 0 0 .17.26l.46.24a.42.42 0 0 0 .14 0 .15.15 0 0 0 .18-.15 1.57 1.57 0 0 0 0-.17v-.59zm-4.83-7.54l.42.45a.86.86 0 0 1 .2.32.14.14 0 0 0 .06.06h.07l.44.1c0-.18.06-.36.11-.54s.13-.34.2-.51h-.05a3.51 3.51 0 0 1-.87-.08 3.53 3.53 0 0 0-.76 0zm-3.51-14.51a3.14 3.14 0 0 0-.05 1 .84.84 0 0 0 .26.56v-.1a1.29 1.29 0 0 1-.06-.7s0-.14.07-.13.05.09.07.14 0 .15 0 .22a1.08 1.08 0 0 0 .19.48 1.9 1.9 0 0 0 .49.48 2.33 2.33 0 0 0 .35.17l-.16-.19a1.93 1.93 0 0 1-.31-.48c0-.08-.08-.15-.12-.23l-.29-.66c0-.1-.1-.2-.15-.3l-.19-.37-.07-.12a.23.23 0 0 0-.03.27zm8.67 22.72a.36.36 0 0 0 .22.35.44.44 0 0 0 .46-.06.38.38 0 0 0 .17-.36 4.31 4.31 0 0 0-.07-.48.23.23 0 0 0-.25-.21h-.17a.71.71 0 0 0-.18 0 .2.2 0 0 0-.18.22V31.24c.01.11.01.2.01.29zm-.25-10.75l-.4-.14a4.48 4.48 0 0 0-.76-.22h-.11a.66.66 0 0 0-.08.28 5.41 5.41 0 0 1-.16.79v.17a17.12 17.12 0 0 0 1.62-.84zm-2.75-6.58a3.83 3.83 0 0 0 .6.78 3.38 3.38 0 0 0 .66-.86l-.65-.42zm-.09 8.24a4.72 4.72 0 0 1 .78-.5l.11-.07h-.16l-.77-.16c-.13 0-.25-.09-.38-.13l-.21-.05a3.54 3.54 0 0 0 .37 1.19zm11.38 3.44a.06.06 0 0 0-.09 0l-.23.21a.37.37 0 0 0-.12.42 2 2 0 0 1 .11.64c0 .13.07.18.19.12a.42.42 0 0 0 .13-.11.86.86 0 0 0 .17-.32 2.16 2.16 0 0 0 .11-.56.58.58 0 0 0-.26-.37zm-2.31 1.92a.15.15 0 0 0 .16-.2c0-.12-.07-.23-.1-.35a.15.15 0 0 0-.15-.12 1.24 1.24 0 0 0-.27 0l-.41.1a.37.37 0 0 0-.27.45.17.17 0 0 0 .16.13h.31zm-2.33.7c.06.13.11.26.18.39a.27.27 0 0 0 .24.15.84.84 0 0 0 .23 0 2.25 2.25 0 0 0 .34-.11.17.17 0 0 0 .11-.15.47.47 0 0 0-.23-.39.41.41 0 0 0-.24-.06h-.59a.18.18 0 0 0-.03.2zm-5.9-13.31a2.16 2.16 0 0 0 .8.65 2.81 2.81 0 0 0 0-.3 5.44 5.44 0 0 1 0-.85v-.29c0-.1 0-.1-.13-.13a4.49 4.49 0 0 1-.67.92zm8.58 13.59a.19.19 0 0 0 .12-.24 1 1 0 0 0-.09-.21.17.17 0 0 0-.15-.08h-.16a2.39 2.39 0 0 1-.7.08.14.14 0 0 0-.17.16.18.18 0 0 0 0 .09.43.43 0 0 0 .29.25h.35a1 1 0 0 0 .51-.05zm-2.06-.82a.35.35 0 0 0 .16 0 .33.33 0 0 0 0-.49 1.58 1.58 0 0 0-.69-.14.27.27 0 0 0-.18.08.14.14 0 0 0 0 .12v.35a.11.11 0 0 0 .14.14h.66zm1.35-1.06a1.08 1.08 0 0 0 .24-.09.16.16 0 0 0 .09-.16v-.44c0-.15 0-.09-.1-.07l-.28.07h-.22a.47.47 0 0 0-.24.11.14.14 0 0 0-.05.08c0 .15 0 .31-.06.46a2.19 2.19 0 0 0 .61.02zm.74-.47a.18.18 0 0 0 .25.13 1.18 1.18 0 0 0 .58-.41.2.2 0 0 0 0-.25.71.71 0 0 1-.06-.14.12.12 0 0 0-.12-.1h-.11l-.34.06a.28.28 0 0 0-.24.3v.13a2.55 2.55 0 0 0 .03.26zm-3.09 2.23a.35.35 0 0 0-.42-.24 1.85 1.85 0 0 1-.59 0h-.05a.18.18 0 0 0 0 .21.86.86 0 0 0 .41.37 1.36 1.36 0 0 0 .51.15h.07a.18.18 0 0 0 .22 0c-.06-.23-.1-.37-.16-.51zm-3.68-.37c-.18-.2-.36-.41-.55-.61a.5.5 0 0 0-.42-.14.18.18 0 0 0-.18.19.74.74 0 0 0 .16.45.14.14 0 0 0 .08 0 2.5 2.5 0 0 0 .83.11h.1zm-2-12.89l-.07.06-.14.15a.52.52 0 0 1-.34.17v.31a.72.72 0 0 0 .36.11s0-.09.07-.09v-.06a.09.09 0 0 1 .15 0 1.27 1.27 0 0 1 .12.2 2.07 2.07 0 0 0 .61-.13 3.21 3.21 0 0 1-.72-.73zm-.07-2a1.16 1.16 0 0 0 .42-.75h-.57a1 1 0 0 1 .08.14.18.18 0 0 1 0 .17l-.07-.06a.24.24 0 0 0-.14-.09.07.07 0 0 1 0-.1v-.06l-.73-.09a5.17 5.17 0 0 0 1.05.87zm2.6 7.11a1.4 1.4 0 0 1 .36-.48 3.57 3.57 0 0 0-1.76 0zm2.89 7.42a1.92 1.92 0 0 0 0-.53.27.27 0 0 0-.24-.22h-.3c-.08 0-.1 0-.11.1s0 .3-.07.46v.18a2.32 2.32 0 0 0 .76.04zm-.26-1.15a1.87 1.87 0 0 0 1 0 1.27 1.27 0 0 0 .46-.22h.05l-.59-.16a.16.16 0 0 0-.12 0 5.12 5.12 0 0 1-.89.38.58.58 0 0 0 .09 0zM125 28.06a.29.29 0 0 0 .35.13 1.59 1.59 0 0 0 .38-.12l.54-.28.2-.14a.29.29 0 0 0-.19 0 2.64 2.64 0 0 0-.32.08 1.54 1.54 0 0 1-.49.09h-.71a3.5 3.5 0 0 1 .19.25zm-.14 1.9a.16.16 0 0 0-.14-.13H124.03a1 1 0 0 0 0 .15.43.43 0 0 0 0 .14s0 .08.05.13a.28.28 0 0 0 .28.19h.51a.67.67 0 0 0-.06-.47zm-7.18-23.73a1.34 1.34 0 0 0-.33 1 .13.13 0 0 0 .09.13.09.09 0 0 0 .12 0 .44.44 0 0 0 .08-.22 1.44 1.44 0 0 1 .26-.76l.4-.58a1.19 1.19 0 0 0 .19-.35zm11.72 11.18h.13a1.47 1.47 0 0 0 .88 0 .45.45 0 0 0 .21-.13.13.13 0 0 0 0-.17.14.14 0 0 0-.16-.06 1.06 1.06 0 0 1-.82-.07h-.07zm-5.32 14.86c0 .11.06.21.08.31a.41.41 0 0 0 .52.25.15.15 0 0 0 .11-.16 2 2 0 0 0 0-.26.25.25 0 0 0-.21-.22l-.5-.12c-.07.08-.06.15-.04.21zm.6-2.75a.15.15 0 0 0 .14-.23.25.25 0 0 0-.18-.17 1.91 1.91 0 0 1-.48-.21.15.15 0 0 0-.24.14 1 1 0 0 0 0 .12.31.31 0 0 0 .25.3.82.82 0 0 0 .36 0h.16zm-3.11-16.67c.08.25.16.49.23.74a2.29 2.29 0 0 0 .2.36 2.69 2.69 0 0 0 .52-.4l-1-.74a.22.22 0 0 0 .01.05zm11.6 15.44a2 2 0 0 0 .58-.5.78.78 0 0 0 .15-.57.69.69 0 0 0 0-.13l-.07.08-.26.33a1.12 1.12 0 0 1-.31.27.14.14 0 0 0-.06.07c0 .16-.06.32-.09.5zm-7.92 1.94a.1.1 0 0 0 .11.13h.42a.15.15 0 0 0 .17-.22v-.19a.17.17 0 0 0-.18-.16h-.35a.16.16 0 0 0-.17.2v.05s-.05.15-.05.2zm-.1 2.45a.21.21 0 0 0 .18.24.32.32 0 0 0 .34-.11.69.69 0 0 0 .16-.25.56.56 0 0 0 0-.15.14.14 0 0 0-.17-.16l-.48.07c-.05.14-.06.26-.08.42zm-1.52-19.25c-.07-.21-.12-.44-.17-.65v-.11a4.18 4.18 0 0 1-.17.46 4 4 0 0 1-.27.4l.56.37a.62.62 0 0 0 0-.45zm3.11-11.24l.25.27h.06a.11.11 0 0 0 .13 0 .14.14 0 0 0 0-.11.68.68 0 0 0-.2-.36l-.32-.3a1.82 1.82 0 0 0-.47-.27l-.33-.13zm-1.15 9.11a1.61 1.61 0 0 0 .47-.44 3.32 3.32 0 0 1 .22-.28 2.72 2.72 0 0 0 .41-.67v-.06h-.06a2.69 2.69 0 0 0-.48.54 1.45 1.45 0 0 1-.14.16l-.26.28-.25.28-.2.22a.43.43 0 0 0 .23-.01zm3.26 14.14a1.61 1.61 0 0 1-.44 0 2.51 2.51 0 0 0-.51 0 .3.3 0 0 0 .05.06 2.35 2.35 0 0 0 .23.16l.43.22a.08.08 0 0 0 .1 0l.56-.42zm-6.7-13.4l.17.2a.1.1 0 0 0 .12 0 .37.37 0 0 0 .22-.13 1.32 1.32 0 0 1 .39-.35h-.52a.12.12 0 0 0-.1.06c-.06.07-.1.07-.16 0a.1.1 0 0 0-.05 0h-.3zm7.17 4.75l-.41-.45a.49.49 0 0 0 0 .7l.15.14.09.07zm-3 13.5a.19.19 0 0 0 .31.13.24.24 0 0 0 .14-.27c0-.12 0-.24-.08-.36a.07.07 0 0 0-.08-.06h-.24a.08.08 0 0 0-.09.09V30a2.31 2.31 0 0 0 .01.31zm6-1.76a.3.3 0 0 0 .23-.18 1.94 1.94 0 0 0 .1-.26.12.12 0 0 0 0-.09.08.08 0 0 0-.1 0l-.53.14a.1.1 0 0 0-.09.09.66.66 0 0 0 0 .21.2.2 0 0 0 .24.12zm-9.39-16.22l.81-.19.27-.1a2.28 2.28 0 0 0-.56-.25h-.09l-.46.31a.57.57 0 0 0-.19.25zm-.87 0a2.52 2.52 0 0 1-.34-.47l-.06-.08a.19.19 0 0 0-.21 0l-.33.15-.16.11a2.73 2.73 0 0 0 .36.14c0-.07 0-.17.08-.19a.16.16 0 0 1 .17.05.17.17 0 0 1 0 .22 2.47 2.47 0 0 0 .47.08zm7.42 4.1l.15-.41a.25.25 0 0 0 0-.23.61.61 0 0 0-.29-.25l-.05.58a.48.48 0 0 0 .09.3l.09.12zm-13.72-9.46v.89a1 1 0 0 0 .07.35.34.34 0 0 0 .25.19.39.39 0 0 0 0-.21c0-.16-.08-.31-.13-.46a2.74 2.74 0 0 1-.1-.78v-.19a.32.32 0 0 0-.1.22zm10.5 24.48a.1.1 0 0 0 .18.08l.17-.13a.28.28 0 0 0 .1-.22.21.21 0 0 0-.14-.22.79.79 0 0 1-.17-.1s-.06-.06-.1 0a.27.27 0 0 0-.05.1c-.01.17 0 .34 0 .51zm3.36-5.3a1.79 1.79 0 0 0 .07-.71 3.71 3.71 0 0 1-.66.57 1.28 1.28 0 0 0 .58.16zm-2-.51v.71a3.12 3.12 0 0 0 .67-.26 2.05 2.05 0 0 1-.67-.44zm-4.29 6.58l.14.24a.28.28 0 0 0 .15.12c0-.21-.08-.42-.12-.62a.27.27 0 0 0-.13-.19l-.26-.18a1.81 1.81 0 0 0 .22.65zm2.11-3.7l.35.2a.13.13 0 0 0 .11 0l.29-.26a.64.64 0 0 0 .17-.27v-.07a3.72 3.72 0 0 1-.92.42zm-3.42-14l.09.42h.13a.09.09 0 0 1 0 .06c0 .08 0 .13-.13.17v.42a1.53 1.53 0 0 0 .39-.37zm4 14.76a.15.15 0 0 0 .07.15h.21a.2.2 0 0 0 .17-.1.37.37 0 0 0 0-.11.59.59 0 0 1 0-.07.12.12 0 0 0-.1-.17h-.1a.31.31 0 0 0-.21.28zm-2.51-.51a1 1 0 0 1 0-.15.11.11 0 0 0 0-.15l-.15-.12a.08.08 0 0 0-.09 0 .16.16 0 0 0-.12.14.27.27 0 0 0 0 .11 1 1 0 0 0 .28.46c.1-.12.11-.21.12-.3zm-.28 1v.28a.39.39 0 0 0 .26.3 1.73 1.73 0 0 1 0-.18v-.52a.16.16 0 0 0-.08-.15l-.2-.14zm2.08-.93l-.31-.21H124.32a1.48 1.48 0 0 0 1.09.25zm1.12-8.47a2.81 2.81 0 0 0-.6-.23l-.15.21a.45.45 0 0 0-.14.23 4 4 0 0 1 .94-.2zm.15 11.63h-.12a.28.28 0 0 0-.23.23c0 .12-.06.25-.1.37s0 .07 0 .12a.8.8 0 0 0 .5-.72zm-12.21-10.95a.47.47 0 0 0-.52 0 1 1 0 0 0 .25.46zm6.08-9.69v.1l.1.33a.1.1 0 0 0 .17.05l.33-.23zm5.19 18.15a.12.12 0 0 0 .12-.11.13.13 0 0 0-.12-.13h-.31c-.2 0-.19.09-.13.26zm-1.89-17.75l.3.15a.07.07 0 0 0 .11 0 .84.84 0 0 0 .12-.3.13.13 0 0 0-.14 0l-.48.14zm-4.47 11.32a.17.17 0 0 0 0 .12.32.32 0 0 0 .11.25c.15.12.31.23.47.34l.1.05zm13.39 2.68a.12.12 0 0 0 .13.11.19.19 0 0 0 .18-.16.13.13 0 0 0-.16-.1.15.15 0 0 0-.15.15zm-9.21 5.41l.05-.44h-.19a3.21 3.21 0 0 0 .14.45zm6.17-4.32h.05v-.23l-.23.22z" fill="#682f24"/><path d="M125.78 14.74a.77.77 0 0 1 .08.11l.12.3c0 .12.08.24.13.35a.53.53 0 0 0 .08.14.34.34 0 0 0 .41 0l.18-.1.17-.12a.16.16 0 0 1 0 .17l-.12.13a1 1 0 0 0-.26.5 4.28 4.28 0 0 0-.08.67 3.52 3.52 0 0 0 .08.79 7.21 7.21 0 0 1 .14 1.09 2 2 0 0 0 .36 1 1.2 1.2 0 0 0 .43.37 1.91 1.91 0 0 0 .86.22 1.05 1.05 0 0 0 .51-.07 1.87 1.87 0 0 0 .75-.56 3.57 3.57 0 0 0 .23-.35.33.33 0 0 0 0-.27.23.23 0 0 0-.14-.13 1.53 1.53 0 0 0-.53-.16l-.42-.06a1.12 1.12 0 0 1-.25-.09 3.34 3.34 0 0 1-.55-.33 1.2 1.2 0 0 1-.41-.57v-.11a4.15 4.15 0 0 0-.21.54v-.08a3.32 3.32 0 0 1 0-1.13.59.59 0 0 1 0-.11c.08-.21.17-.42.24-.63a.77.77 0 0 0 0-.21 2.81 2.81 0 0 0-.15-1.23 4.42 4.42 0 0 0-.8-1.34 4.9 4.9 0 0 0-.74-.68 1.94 1.94 0 0 0-.34-.19l-.65-.29a1 1 0 0 0-.57-.06h-.15l-.45.12v.08c.1.43.2.87.26 1.31a4.48 4.48 0 0 1 0 .88v1a.68.68 0 0 1-.32.58.64.64 0 0 1-.27.09l-.91.13h-.28a.41.41 0 0 1-.34-.19.23.23 0 0 1 0-.11 3.23 3.23 0 0 1 0-.33 6.08 6.08 0 0 0-.26-1.84c-.06-.2-.15-.4-.2-.6a2.75 2.75 0 0 0-.42-.87.67.67 0 0 0-.58-.3 2.1 2.1 0 0 0-.75.15 3.62 3.62 0 0 0-.46.23c-.21.11-.44.21-.65.31l-.41.21-.28.16a3.19 3.19 0 0 0-.37.28c-.22.21-.43.43-.65.65l-.09.11c-.18.24-.36.48-.53.72s-.27.41-.4.62a.81.81 0 0 0-.06.18.8.8 0 0 1 0 .13 5.86 5.86 0 0 0-.35.94c0 .11-.08.22-.13.33a.84.84 0 0 0-.09.43.33.33 0 0 0 .28.31.69.69 0 0 0 .35 0 1.43 1.43 0 0 0 .29-.14.76.76 0 0 1 .56-.11h.18l-.05.06-.27.16a.2.2 0 0 0-.11.13.14.14 0 0 0 .11.19h.23a1.08 1.08 0 0 1 .38.14.47.47 0 0 1 .2.22.07.07 0 0 1-.1 0 3.14 3.14 0 0 0-1.38-.22 1.52 1.52 0 0 0-.69.17.57.57 0 0 0-.26.25l-.14.3c-.11.26-.22.53-.34.78a2.09 2.09 0 0 1-.19.28l-.08.12h.49a4.24 4.24 0 0 1 .94.16l.27.29.43.14a.68.68 0 0 1 .14.08 1.62 1.62 0 0 1 .64.93c0 .09 0 .19.06.3a1 1 0 0 0 .09-.11 2 2 0 0 0 .24-.64 6 6 0 0 1 .2-.74 3.28 3.28 0 0 1 .15-.37c0-.06.06-.1.09-.16a2.38 2.38 0 0 0 .19-.35 8.15 8.15 0 0 0 .27-.88 5.85 5.85 0 0 0 .1-2c0-.18-.06-.36-.09-.53a.7.7 0 0 1 0-.09.1.1 0 0 1 .12-.13.65.65 0 0 0 .28-.07.46.46 0 0 0 .27-.41v-.21a.11.11 0 0 1 .07-.12c.07 0 .06.07.07.12a1.79 1.79 0 0 1 0 .63c-.06.29-.12.57-.17.86s-.06.39-.08.59c0 .35-.06.7-.09 1s-.06.84-.09 1.26a.47.47 0 0 0-.26.07.87.87 0 0 0-.29.35 2.72 2.72 0 0 0-.14.55 3.7 3.7 0 0 0-.09.94v.4a1.06 1.06 0 0 0 .32.6.45.45 0 0 0 .18.11.76.76 0 0 1 .22.13l.16.11a3.41 3.41 0 0 0 .51-.61 1.8 1.8 0 0 1 .17-.19l.2-.18a4.73 4.73 0 0 1 .94-.71l.11-.07h-.4a.16.16 0 0 1-.1-.05.09.09 0 0 1 0-.14 1.32 1.32 0 0 1 .24-.1 3.63 3.63 0 0 0 .79-.34c.19-.1.38-.18.56-.28a3.38 3.38 0 0 0 .44-.31 2.81 2.81 0 0 0-.31 0 3.28 3.28 0 0 0-.87.23 1.25 1.25 0 0 1-.44.1h-.57a.08.08 0 0 1 .05-.12 8.31 8.31 0 0 1 .92-.4 4.94 4.94 0 0 1 .87-.21l.4-.07.64-.06.8-.08h1.55a2.25 2.25 0 0 0 .62.08.31.31 0 0 0 .28-.16.35.35 0 0 0 0-.25c0-.07 0-.13-.05-.2s-.07-.4-.08-.6c0-.51-.06-1-.09-1.52a9.68 9.68 0 0 0-.14-1c-.05-.3-.08-.61-.12-.91v-.22a.14.14 0 0 1 .01.01zM123.21 4.74c.06.14.11.29.17.43s.15.29.22.43a2.46 2.46 0 0 0 .54-.15 2.16 2.16 0 0 1 .65-.13 3.06 3.06 0 0 0 .59-.08 2 2 0 0 1 1.13 0 .63.63 0 0 1 .3.18 1.91 1.91 0 0 1 .3.59 2.28 2.28 0 0 1 .09.63 3.11 3.11 0 0 1 0 .49c0 .2-.06.4-.1.61a.78.78 0 0 1 .16.09.41.41 0 0 1 .1.41 1.13 1.13 0 0 1-.1.25.36.36 0 0 1-.35.2.16.16 0 0 0-.16.09l-.1.21a3 3 0 0 1-.23.41 6.84 6.84 0 0 1-.48.57c-.18.19-.37.37-.55.55a2.07 2.07 0 0 1-.63.43 6.14 6.14 0 0 1-1.2.41 3.15 3.15 0 0 1-1.11.12 4.6 4.6 0 0 1-1.33-.3c-.15-.07-.32-.11-.48-.17a4.53 4.53 0 0 1-1-.57c-.19-.13-.35-.29-.52-.43a3.14 3.14 0 0 1-.76-.87l-.28-.45a.14.14 0 0 0-.13-.07.71.71 0 0 1-.35-.1.16.16 0 0 1-.07-.05 4.05 4.05 0 0 1-.2-.4.32.32 0 0 1 .05-.3.23.23 0 0 1 .21-.06.19.19 0 0 0 .2-.14.3.3 0 0 0 0-.15 1.76 1.76 0 0 1 0-.44 1.17 1.17 0 0 1 .23-.55 2 2 0 0 1 .39-.4l.29-.21.12-.12.29-.34c.07-.08.08-.07.17 0a1 1 0 0 0 .45.17 1.84 1.84 0 0 0 .61 0 1.86 1.86 0 0 1 .37-.06 2.51 2.51 0 0 1 .76.07 2.18 2.18 0 0 0 .83 0 2.52 2.52 0 0 1 .53 0h.21v-.42-.42zm-2.14 4.7a.23.23 0 0 1 .26-.05h.07a1.34 1.34 0 0 0 .35.19 2.28 2.28 0 0 0 .29.11 2 2 0 0 1 .28.09 1.41 1.41 0 0 0 .8.12l.53-.06a1.53 1.53 0 0 0 .42-.12c.12-.06.25-.1.37-.15l.24-.13a.14.14 0 0 1 .15 0l.2.11a.42.42 0 0 0 0-.08l-.06-.15c0-.1-.06-.1-.16-.08a3.1 3.1 0 0 0-.61.17 2.05 2.05 0 0 1-.39.08 6.1 6.1 0 0 1-1.14 0 1.52 1.52 0 0 1-.35-.06 6.5 6.5 0 0 1-.71-.22.89.89 0 0 0-.47 0 .13.13 0 0 0-.1.19v.07zm.13-1.76a.88.88 0 0 0 .42 0 1.21 1.21 0 0 0 .46-.14.22.22 0 0 0 .11-.26.82.82 0 0 0-.18-.34.43.43 0 0 0-.32-.17 1.34 1.34 0 0 0-.5 0l-.3.07a.58.58 0 0 0-.31.2c-.09.1-.18.21-.26.32v.05a.08.08 0 0 0 0 .13.47.47 0 0 0 .26.06h.18a1.24 1.24 0 0 1 .44.06zm4.78-.79a.44.44 0 0 0-.4-.21h-.68a.26.26 0 0 0-.14 0 1.52 1.52 0 0 0-.45.46.29.29 0 0 0 0 .25 5.92 5.92 0 0 0 .64.11h.44a.87.87 0 0 0 .57-.26.13.13 0 0 0 0-.18c.15-.04.1-.07.02-.19zm-5.05-.8l.14-.05.34-.11a.11.11 0 0 0 .09-.14.12.12 0 0 0-.09-.15.61.61 0 0 0-.23 0 1.29 1.29 0 0 0-.76.53.47.47 0 0 0-.07.15.3.3 0 0 0 0 .1 2.21 2.21 0 0 1 .58-.35zm5.28-.13a2.91 2.91 0 0 0-.4-.36.87.87 0 0 0-.76-.11.24.24 0 0 0-.11.08v.11l.31.09.45.16c.17.07.35.11.52.16a.56.56 0 0 0-.01-.14zm-2.58 4.4l.13-.08v-.09h-1.25a.06.06 0 0 0-.08 0 .1.1 0 0 0 0 .08.28.28 0 0 0 .11.08 1.08 1.08 0 0 0 .4.07 2.07 2.07 0 0 0 .69-.07zm.06-1.73a.27.27 0 0 0 .09-.12.09.09 0 0 0 0-.09.07.07 0 0 0-.09 0l-.1.08a.68.68 0 0 1-.44.07.1.1 0 1 0 0 .19h.2a.65.65 0 0 0 .34-.14z" fill="#fff"/><path d="M121.86 24.45h.12a1.27 1.27 0 0 1 .69 0l.4.09a.12.12 0 0 0 .14 0l.38-.45c.05-.06.12-.12.17-.18s.16-.25.24-.38l.07-.11a.29.29 0 0 1 .21-.15l.45-.11a.19.19 0 0 0 .13-.11.2.2 0 0 0-.16-.3H123.86a.56.56 0 0 1 .31-.09 3.67 3.67 0 0 1 .55 0 .94.94 0 0 1 .41.18c.2.14.4.28.59.44s.35.33.53.49a1 1 0 0 0 .25.2.71.71 0 0 1 .25.19l.07.06.25.22a.78.78 0 0 0 .45.24.37.37 0 0 0 .27-.05.17.17 0 0 0 .07-.08.52.52 0 0 1 .18-.21.9.9 0 0 1 0 .3.63.63 0 0 0 0 .3.23.23 0 0 0 .19.16 2.8 2.8 0 0 0 .93 0 .89.89 0 0 0 .6-.33 2.32 2.32 0 0 0 .22-.42.29.29 0 0 0 0-.13 2.47 2.47 0 0 0-.1-.74l-.07-.18a1 1 0 0 1 .5.55v-.25-.46-.43a1.9 1.9 0 0 0-.23-.78 1.83 1.83 0 0 0-.22-.19 1.65 1.65 0 0 0-.17-.19 1.2 1.2 0 0 0-.25-.19 3.12 3.12 0 0 0-1.18-.33l-.42-.06-.68-.09a3.33 3.33 0 0 0-.75 0h-.17a2 2 0 0 0-.68.15h-.09l-1 .46-.82.38a5.41 5.41 0 0 0-.82.35.84.84 0 0 0-.21.15c-.12.11-.22.24-.34.35a1.84 1.84 0 0 0-.33.5 1.16 1.16 0 0 0-.1.45 2.09 2.09 0 0 0 0 .61s.01.12.01.17z" fill="#fff"/><path d="M122.58 2.43a1.33 1.33 0 0 1 .28.47l.26.71a8.08 8.08 0 0 0 .45 1c.05.1.09.2.14.3a.43.43 0 0 0 .12-.49l.06.07c.07.12.15.24.21.36a.24.24 0 0 0 .23.14h.54a.74.74 0 0 1 .3.05.93.93 0 0 0 .81 0 .26.26 0 0 0 .14-.21 2.07 2.07 0 0 0-.08-.87c-.09-.27-.18-.53-.26-.8a1.93 1.93 0 0 0-.29-.53 3.44 3.44 0 0 0-1.14-1.06 4.54 4.54 0 0 0-.86-.39 1.36 1.36 0 0 0-.29-.05.18.18 0 0 0-.11 0c-.08.05-.08.11 0 .17l.15.11a2.92 2.92 0 0 1 .74.73 2.33 2.33 0 0 1 .2.33c.1.21.19.42.29.63a1.92 1.92 0 0 1 .11 1.13.37.37 0 0 1-.1.25v-.13a4 4 0 0 0-.35-1.56 2.21 2.21 0 0 0-.86-1l-.22-.15-.08-.05-.67-.27a1.17 1.17 0 0 0-.73 0 .65.65 0 0 0-.48.56 3.45 3.45 0 0 0-.05 1V4.04a1.59 1.59 0 0 0 .32.83.58.58 0 0 0 .41.23 5.26 5.26 0 0 0 .75 0 .5.5 0 0 0 .17 0 .19.19 0 0 0 .13-.18 8.77 8.77 0 0 0 0-1 3.27 3.27 0 0 0-.1-.69c-.03-.35-.08-.58-.14-.8z" fill="#fd8204"/><path d="M123.91 26.81v-.07a1.06 1.06 0 0 1 .33.33.59.59 0 0 0 .27.24l.17.09a1.29 1.29 0 0 0 .72.08 1.81 1.81 0 0 0 .84-.3l.17-.13.05.14a.23.23 0 0 0 .39.06 1.59 1.59 0 0 0 .27-.55 1.33 1.33 0 0 0 .1-.48 1.8 1.8 0 0 0 0-.7 2.65 2.65 0 0 0-.1-.45 1.08 1.08 0 0 0-.17-.37 1.56 1.56 0 0 0-.78-.62l-.4-.17a4.12 4.12 0 0 0-.64-.14 2.61 2.61 0 0 0-.74 0 .55.55 0 0 0-.32.15 1.73 1.73 0 0 0-.19.22l-.26.33a.83.83 0 0 0-.2.39c0 .15-.08.31-.13.46a1.67 1.67 0 0 0 0 1 1.34 1.34 0 0 0 .13.28.39.39 0 0 0 .13.13zM114.01 22.16a.91.91 0 0 0 .35 0 1.07 1.07 0 0 1 .71.14l.07.05a.06.06 0 0 1-.09 0 2.19 2.19 0 0 0-.66-.06 1.66 1.66 0 0 0-.7.18 3.44 3.44 0 0 0-.72.48.22.22 0 0 0-.1.17.15.15 0 0 0 .06.14.19.19 0 0 1 .08.18.45.45 0 0 0 .2.42.8.8 0 0 1 .16 0c.06 0 .08 0 .08.09a1.34 1.34 0 0 0 0 .68 4.73 4.73 0 0 0 .1.51 4 4 0 0 0 .14.41.23.23 0 0 0 .21.12.09.09 0 0 0 .1-.11v-.54a4.08 4.08 0 0 1 0-.65.44.44 0 0 1 .23-.36l.21-.13.55-.28a.1.1 0 0 1 .13 0 .1.1 0 0 1 0 .13l-.08.11a1.22 1.22 0 0 0 .71.61.26.26 0 0 0 .34-.14.17.17 0 0 0 0-.14 2.67 2.67 0 0 1-.18-1v-.35-.27a.68.68 0 0 0-.25-.5 1.11 1.11 0 0 0-.62-.29.86.86 0 0 0-.58.07 1.22 1.22 0 0 1-.36.25z" fill="#fff"/><path d="M114.34 25.23H121.5a.15.15 0 0 0 .16-.1.19.19 0 0 0-.06-.21 1.11 1.11 0 0 0-.31-.17 4 4 0 0 0-.63-.17 3.77 3.77 0 0 1-.75-.2c-.1 0-.2-.09-.3-.12a1.57 1.57 0 0 0-.46-.05h-2.86v.13a.34.34 0 0 1-.31.36.9.9 0 0 1-.7-.22c-.13-.1-.24-.22-.35-.33a.18.18 0 0 0-.18 0 .81.81 0 0 0-.41.26.26.26 0 0 0-.07.22c.03.19.05.39.07.6z" fill="#fff"/><path d="M131.75 9.43a2.26 2.26 0 0 1 .3-.12.44.44 0 0 1 .58.29.56.56 0 0 1 0 .18v.24h.08a.51.51 0 0 1 .37.17.47.47 0 0 1 0 .65.9.9 0 0 1-.29.18h-.1l.06.1a.63.63 0 0 1 .05.55.32.32 0 0 1-.23.22.61.61 0 0 1-.4 0 .74.74 0 0 1-.36-.29l-.05-.05-.07.29a.62.62 0 0 1-.64.39.21.21 0 0 1-.19-.18.52.52 0 0 1 0-.32c0-.05 0-.11.07-.18h-.08a.67.67 0 0 1-.45 0 .28.28 0 0 1-.18-.23.67.67 0 0 1 .23-.66l.07-.06a.45.45 0 0 1-.29-.53.39.39 0 0 1 .47-.29v-.24a.45.45 0 0 1 .76-.29l.17.18zm-1 1.55a.6.6 0 0 1 .42-.06.23.23 0 0 1 .17.13.39.39 0 0 1 0 .39 1.58 1.58 0 0 0-.08.17.06.06 0 0 0 .09 0 .78.78 0 0 0 .13-.15 1.53 1.53 0 0 0 .09-.24.07.07 0 0 1 .08-.06h.07a.15.15 0 0 1 .15 0l.31.15h.07a.57.57 0 0 0-.18-.24l-.09-.06a.23.23 0 0 1 0-.09.32.32 0 0 1 0-.08.14.14 0 0 1 .11-.15 1.46 1.46 0 0 1 .58-.1.69.69 0 0 0-.66-.08l-.05-.08v-.08a.75.75 0 0 0 .18-.54v.09a1.29 1.29 0 0 1-.19.31.22.22 0 0 1-.23.09h-.07l-.09-.24a.38.38 0 0 0-.23-.24v.07l.15.38a.2.2 0 0 1 0 .12.08.08 0 0 1-.14 0 .54.54 0 0 0-.41-.11h.06l.21.15a.14.14 0 0 1 .06.16.15.15 0 0 1-.13.1l-.26.09a.24.24 0 0 0-.12.11zM120.94 5.01v-.07a2.32 2.32 0 0 1-.26-.56 1.88 1.88 0 0 1-.08-.59 2.28 2.28 0 0 1 .12-.84 4.5 4.5 0 0 0 .2-1 1.57 1.57 0 0 1 .1-.36.32.32 0 0 1 .1-.12l.25-.2a.47.47 0 0 0 .07-.08 1.51 1.51 0 0 0-.49.14 6.07 6.07 0 0 1-.82.4.78.78 0 0 0-.23.13l-.14.11a.89.89 0 0 0-.36.55c-.06.24-.12.49-.17.74a2.51 2.51 0 0 0 0 .73v.25a.81.81 0 0 0 .21.44l.31.34a.45.45 0 0 0 .33.13 1.7 1.7 0 0 0 .7-.1 1.07 1.07 0 0 1 .16-.04zM128.86 5.13c-.19-.24-.39-.47-.56-.73s-.38-.52-.56-.78v-.06c0 .15.05.3.08.45a.35.35 0 0 0 0 .09l.22.4.38.65a4 4 0 0 1 .49 1.16 3.91 3.91 0 0 1 .07 1v.29a2.32 2.32 0 0 1-.25.77c-.2.45-.42.89-.63 1.34a3 3 0 0 1-.15.29.12.12 0 0 0 0 .15h.06a3.86 3.86 0 0 0 .68-.82l.2-.32a4.61 4.61 0 0 0 .58-1.46c0-.12.06-.23.07-.35a4 4 0 0 0 0-1.57 5.58 5.58 0 0 0-.68-1.66 3.3 3.3 0 0 0-.3-.35l-.21-.22a3.33 3.33 0 0 0-.3-.26l-.55-.36h-.08a1 1 0 0 0 .18.31 7.45 7.45 0 0 1 .94 1.24c.11.19.23.39.33.58s.08.19.12.28z" fill="#fd8204"/><path d="M130.36 15.82l-.36-.18-.39 1.1a1.21 1.21 0 0 0 .72.13h.13a.2.2 0 0 0 .13-.14c0-.13.09-.25.14-.37s.08-.15.12-.23v-.06c.07-.2.15-.4.21-.61a1 1 0 0 0 0-.63c0-.12-.09-.24-.14-.35a1.12 1.12 0 0 0-.44-.51 3.21 3.21 0 0 0-.67-.3.23.23 0 0 0-.32.11.72.72 0 0 1 .5.24l.1.07a.09.09 0 0 1 0 .11h-.07l-.2-.14a.26.26 0 0 0-.2-.08.11.11 0 0 0-.07 0 1.5 1.5 0 0 1-.25.38.5.5 0 0 0-.08.32l.06-.07.16-.17a.31.31 0 0 1 .4 0l.18.16.11.08h-.08l-.25-.15a.11.11 0 0 0-.17 0c-.08.12-.16.24-.23.36a.23.23 0 0 0 0 .09 1.68 1.68 0 0 1 0 .2.24.24 0 0 0 .1.24l.17.13.12-.48v-.06a.64.64 0 0 1 .11.15 1 1 0 0 0 .36.48l.1.1zM128.2 16.47a.79.79 0 0 0-.11.1 1.17 1.17 0 0 0-.19.31 2 2 0 0 0-.14.48 1.07 1.07 0 0 0 .09.49.36.36 0 0 0 .08.12 2.21 2.21 0 0 0 .43.36 3 3 0 0 0 1 .4h.62a.9.9 0 0 0 .28 0 .89.89 0 0 0 .43-.3.19.19 0 0 0 0-.1.56.56 0 0 1 .18-.42.39.39 0 0 0 .11-.42 1.23 1.23 0 0 0-.06-.13 1 1 0 0 0 0 .11.37.37 0 0 1-.28.33 2.26 2.26 0 0 1-1.13.06l-.32-.11-.08.53h-.05a2.4 2.4 0 0 1-.06-.57.13.13 0 0 0 0-.06 2.4 2.4 0 0 1-.48-.37.5.5 0 0 1-.23-.46c-.09-.2-.09-.26-.09-.35z" fill="#fff"/><path d="M127.45 4.52a2.15 2.15 0 0 0-.12-.64c-.05-.16-.12-.31-.17-.47a2.61 2.61 0 0 0-.3-.55 3.68 3.68 0 0 0-.67-.74c-.09-.09-.17-.18-.27-.27l-.41-.33-.3-.19a1.39 1.39 0 0 0-.76-.24.2.2 0 0 0-.07 0 .27.27 0 0 0 0 .07l.12.08a2.65 2.65 0 0 1 .7.55l.54.6a1.27 1.27 0 0 1 .14.2 4.07 4.07 0 0 1 .37.72 2.11 2.11 0 0 1 .08.35v.77a.51.51 0 0 0 .06.28.56.56 0 0 0 .44.25.69.69 0 0 0 .26 0 .35.35 0 0 0 .25-.36s.11-.05.11-.08zM127.77 6.22v.24a3.6 3.6 0 0 1 .12 1 3.49 3.49 0 0 1-.08.86 6.21 6.21 0 0 1-.24.68 7.66 7.66 0 0 1-.61 1.19c-.12.19-.26.36-.39.54l-.13.17a.15.15 0 0 0 .13-.05 4.19 4.19 0 0 0 .36-.29c.21-.2.42-.41.61-.62a1.29 1.29 0 0 0 .18-.25l.61-1.08a1.59 1.59 0 0 0 .09-.24v-.08a3.82 3.82 0 0 0 .22-1.57 1.74 1.74 0 0 0-.34-1 2.12 2.12 0 0 0-.32-.31h-.08l.12.46a2.47 2.47 0 0 1 .11.78 1 1 0 0 1-.07.39v-.08c0-.16-.07-.33-.11-.49a.45.45 0 0 0-.18-.25zM118.86 2.67l-.08.07-.15.14a5.16 5.16 0 0 0-.65.6 2.7 2.7 0 0 0-.61 1.2 4.71 4.71 0 0 0-.1.89v.46c0 .15 0 .09.06.1.22-.26.48-.48.72-.71a1.4 1.4 0 0 0 .16-.2l.28-.41a1.52 1.52 0 0 0 .26-.95 2.81 2.81 0 0 1 0-.82c0-.11 0-.23.05-.34zM115.38 5.15a2.67 2.67 0 0 0 .18-.21c.08-.11.15-.23.23-.34l.23-.34c0-.08.1-.15.14-.23a1.78 1.78 0 0 1 .44-.51 3.2 3.2 0 0 1 .6-.38q.28-.15.55-.33l.8-.56.14-.1a3 3 0 0 1 1.1-.59c.37-.19.77-.3 1.12-.53h.06-.07a4.4 4.4 0 0 0-.58 0 3.34 3.34 0 0 0-.79.21c-.18.08-.37.15-.55.22a4.44 4.44 0 0 0-.75.42l-.87.58a4.41 4.41 0 0 0-.7.59l-.51.52a1.05 1.05 0 0 0-.13.15 4.52 4.52 0 0 0-.58 1.08c0 .12-.09.23-.13.35z" fill="#fd8204"/><path d="M117.28 3.98c-.09.12-.19.23-.27.36a8 8 0 0 0-.6 1 1.41 1.41 0 0 0-.12.46 7.34 7.34 0 0 0-.06 1.09 3 3 0 0 0 .06.45 3.16 3.16 0 0 0 .12.47 1.6 1.6 0 0 0 .19.39c.16.23.34.45.52.68l.38.47a.45.45 0 0 0 .17.13l.37.19.13.06-.11-.1-.26-.22a2.34 2.34 0 0 1-.36-.42c-.09-.13-.19-.25-.28-.38a2.28 2.28 0 0 1-.35-.88 4 4 0 0 1 0-1.05 10.65 10.65 0 0 1 .12-1.19c0-.16.07-.31.11-.46l.07-.33a2.93 2.93 0 0 1 .23-.69zM116.19 23.8a7.57 7.57 0 0 1 1 0h.73a.27.27 0 0 0 .27-.17.33.33 0 0 0-.11-.35l-.57-.42-.2-.15a2.26 2.26 0 0 1-.16-.17l-.3.05h-.5a.48.48 0 0 0-.16.26 1.36 1.36 0 0 0 0 .95zM131.55 27.17V27.64a.24.24 0 0 0 .29.21 2.29 2.29 0 0 0 .74-.29.22.22 0 0 0 .1-.2.21.21 0 0 0 0-.05 3.21 3.21 0 0 1-.05-.67.38.38 0 0 0 0-.14.17.17 0 0 0-.29-.06l-.16.11-.32.19a1.6 1.6 0 0 0-.25.16.4.4 0 0 0-.06.27z" fill="#fd8204"/><path d="M121.13 21.8a2.54 2.54 0 0 0 .29 1 .35.35 0 0 1 0 .06h-.51a4.84 4.84 0 0 0-1.05-.12h-.33a1.78 1.78 0 0 1 .35-.39l.82-.55.43-.25c-.02.09 0 .19 0 .25zm-.38.28a.19.19 0 0 0-.18.2.21.21 0 0 0 .21.22.17.17 0 0 0 .17-.18.23.23 0 0 0-.19-.25z" fill="#fff"/><path d="M115.72 8.98v-.12l-.1-.27a3.66 3.66 0 0 1-.25-1.06 2.38 2.38 0 0 1 0-.37c0-.14 0-.28.06-.42a2.08 2.08 0 0 1 .19-.62c.1-.23.22-.45.33-.67v-.07a5.5 5.5 0 0 1 .59-1 2.44 2.44 0 0 1 .28-.39.35.35 0 0 0 0-.06.13.13 0 0 0-.11.06l-.35.42-.32.38a3.07 3.07 0 0 0-.4.56 10.52 10.52 0 0 0-.57 1.22 1.82 1.82 0 0 0-.1.82 1.85 1.85 0 0 0 .09.4 5.34 5.34 0 0 0 .37 1 1.88 1.88 0 0 0 .15.21h.06z" fill="#fd8204"/><path d="M114.44 21.5a.57.57 0 0 1 .49 0l.56.1a2 2 0 0 1 .3.08 1 1 0 0 1 .56.45v.07a.41.41 0 0 0 .08-.45c-.07-.12-.14-.24-.22-.36a.76.76 0 0 0-.44-.27 3.05 3.05 0 0 0-.53-.11.8.8 0 0 0-.74.3l-.15.21zM122.86 21.56l-.29-.1a8 8 0 0 1-.87-.25h-.11.05l.5-.32.14-.06.42-.2.41-.21.22-.09c-.12.46-.19.91-.35 1.35zm-.33-.59a.2.2 0 0 0 .2.17.15.15 0 0 0 .15-.16.18.18 0 0 0-.18-.18.17.17 0 0 0-.2.17z" fill="#fff"/><path d="M124.79 31.55v-.69a.79.79 0 0 0 0-.11.1.1 0 0 0-.09-.09.73.73 0 0 0-.42 0l-.18.07a.39.39 0 0 0-.25.36 1.68 1.68 0 0 0 0 .22.32.32 0 0 0 .17.26l.46.24a.42.42 0 0 0 .14 0 .15.15 0 0 0 .18-.15 1.57 1.57 0 0 0 0-.17z" fill="#fd8204"/><path d="M119.77 23.09a3.53 3.53 0 0 1 .76 0 3.51 3.51 0 0 0 .87.08h.05c-.07.17-.15.34-.2.51s-.07.36-.11.54l-.44-.1h-.07a.14.14 0 0 1-.06-.06.86.86 0 0 0-.2-.32l-.42-.45-.2-.21zm.89.58a.21.21 0 0 0 .22.2.21.21 0 0 0 .22-.21.21.21 0 0 0-.2-.22.23.23 0 0 0-.24.23z" fill="#fff"/><path d="M116.53 8.65a.23.23 0 0 0-.09.16 3.14 3.14 0 0 0-.05 1 .84.84 0 0 0 .26.56v-.1a1.29 1.29 0 0 1-.06-.7s0-.14.07-.13.05.09.07.14 0 .15 0 .22a1.08 1.08 0 0 0 .19.48 1.9 1.9 0 0 0 .49.48 2.33 2.33 0 0 0 .35.17l-.16-.19a1.93 1.93 0 0 1-.31-.48c0-.08-.08-.15-.12-.23l-.29-.66c0-.1-.1-.2-.15-.3l-.19-.37zM125.12 31.26v.27a.36.36 0 0 0 .22.35.44.44 0 0 0 .46-.06.38.38 0 0 0 .17-.36 4.31 4.31 0 0 0-.07-.48.23.23 0 0 0-.25-.21h-.17a.71.71 0 0 0-.18 0 .2.2 0 0 0-.18.22V31.28z" fill="#fd8204"/><path d="M123.32 21.64v-.17a5.41 5.41 0 0 0 .16-.79.66.66 0 0 1 .08-.28h.11a4.48 4.48 0 0 1 .76.22l.43.12h.07a17.12 17.12 0 0 1-1.61.9zm.61-.58a.23.23 0 0 0 .2-.19.16.16 0 0 0-.16-.15.18.18 0 0 0-.19.18.17.17 0 0 0 .15.16zM123.38 14.12a3.38 3.38 0 0 1-.66.86 3.83 3.83 0 0 1-.6-.78l.62-.49zm-.74 0a.37.37 0 0 0-.12.22.18.18 0 0 0 .2-.17.08.08 0 0 0-.09-.09zM121.41 21.48l.21.05c.13 0 .25.1.38.13l.77.16h.16l-.11.07a4.72 4.72 0 0 0-.78.5l-.26.25a3.54 3.54 0 0 1-.37-1.16zm.59.67a.15.15 0 0 0 .14-.17.15.15 0 0 0-.14-.14.16.16 0 0 0-.16.16.16.16 0 0 0 .16.15z" fill="#fff"/><path d="M133.68 26.28a.58.58 0 0 0-.27-.41.06.06 0 0 0-.09 0l-.23.21a.37.37 0 0 0-.12.42 2 2 0 0 1 .11.64c0 .13.07.18.19.12a.42.42 0 0 0 .13-.11.86.86 0 0 0 .17-.32 2.16 2.16 0 0 0 .11-.55zM130.53 27.83h.57a.15.15 0 0 0 .16-.2c0-.12-.07-.23-.1-.35a.15.15 0 0 0-.15-.12 1.24 1.24 0 0 0-.27 0l-.41.1a.37.37 0 0 0-.27.45.17.17 0 0 0 .16.13h.31zM128.79 28.3a.18.18 0 0 0 0 .18c.06.13.11.26.18.39a.27.27 0 0 0 .24.15.84.84 0 0 0 .23 0 2.25 2.25 0 0 0 .34-.11.17.17 0 0 0 .08-.17.47.47 0 0 0-.23-.39.41.41 0 0 0-.24-.06h-.59z" fill="#fd8204"/><path d="M123.69 14.36v.29a5.44 5.44 0 0 0 0 .85 2.81 2.81 0 0 1 0 .3 2.16 2.16 0 0 1-.8-.65 4.49 4.49 0 0 0 .67-.91c.12.02.13.02.13.12zm-.31.74a.12.12 0 0 0 .09 0 .11.11 0 0 0 0-.08.12.12 0 0 0-.13-.11h-.12a.07.07 0 0 0-.05.08.07.07 0 0 0 .08.05z" fill="#fff"/><path d="M130.96 28.83a1 1 0 0 0 .48-.1.19.19 0 0 0 .12-.24 1 1 0 0 0-.09-.21.17.17 0 0 0-.15-.08h-.16a2.39 2.39 0 0 1-.7.08.14.14 0 0 0-.17.16.18.18 0 0 0 0 .09.43.43 0 0 0 .29.25zM129.05 27.91h.32a.35.35 0 0 0 .16 0 .33.33 0 0 0 0-.49 1.58 1.58 0 0 0-.69-.14.27.27 0 0 0-.18.08.14.14 0 0 0 0 .12v.35a.11.11 0 0 0 .14.14h.33zM130.1 26.87a2.19 2.19 0 0 0 .62 0 1.08 1.08 0 0 0 .24-.09.16.16 0 0 0 .09-.16v-.44c0-.15 0-.09-.1-.07l-.28.07h-.22a.47.47 0 0 0-.24.11.14.14 0 0 0-.05.08c0 .15 0 .31-.06.46a.14.14 0 0 0 0 .04zM131.42 26.1a2.55 2.55 0 0 0 0 .27.18.18 0 0 0 .25.13 1.18 1.18 0 0 0 .58-.41.2.2 0 0 0 0-.25.71.71 0 0 1-.06-.14.12.12 0 0 0-.12-.1h-.11l-.34.06a.28.28 0 0 0-.24.3v.13zM128.53 29.03c-.05-.15-.1-.29-.16-.43a.35.35 0 0 0-.42-.24 1.85 1.85 0 0 1-.59 0h-.05a.18.18 0 0 0 0 .21.86.86 0 0 0 .41.37 1.36 1.36 0 0 0 .51.15h.07a.18.18 0 0 0 .23-.06z" fill="#fd8204"/><path d="M124.72 28.28c-.18-.2-.36-.41-.55-.61a.5.5 0 0 0-.42-.14.18.18 0 0 0-.18.19.74.74 0 0 0 .16.45.14.14 0 0 0 .08 0 2.5 2.5 0 0 0 .83.11h.1zM123.56 16.02a3.21 3.21 0 0 1-.82-.67l-.07.06-.14.15a.52.52 0 0 1-.34.17v.31a.72.72 0 0 0 .36.11s0-.09.07-.09V16a.09.09 0 0 1 .15 0 1.27 1.27 0 0 1 .12.2 2.07 2.07 0 0 0 .67-.18zM121.61 12.6a5.17 5.17 0 0 0 1.06.8 1.16 1.16 0 0 0 .42-.75h-.57a1 1 0 0 1 .08.14.18.18 0 0 1 0 .17l-.07-.06a.24.24 0 0 0-.14-.09.07.07 0 0 1 0-.1v-.06zM123.86 20.03l1.4.47a1.4 1.4 0 0 1 .36-.48 3.57 3.57 0 0 0-1.76.01z" fill="#fff"/><path d="M127.4 27.86a2.32 2.32 0 0 0 .76.06 1.92 1.92 0 0 0 0-.53.27.27 0 0 0-.24-.22h-.3c-.08 0-.1 0-.11.1s0 .3-.07.46z" fill="#fd8204"/><path d="M127.7 26.74a.58.58 0 0 0 .12.06 1.87 1.87 0 0 0 1 0 1.27 1.27 0 0 0 .46-.22h.05l-.59-.16a.16.16 0 0 0-.12 0 5.12 5.12 0 0 1-.89.38zM124.68 27.74a3.5 3.5 0 0 1 .27.3.29.29 0 0 0 .35.13 1.59 1.59 0 0 0 .38-.12l.54-.28.2-.14a.29.29 0 0 0-.19 0 2.64 2.64 0 0 0-.32.08 1.54 1.54 0 0 1-.49.09h-.71z" fill="#fff"/><path d="M124.78 30.33a.67.67 0 0 0 0-.36.16.16 0 0 0-.14-.13H123.95a1 1 0 0 0 0 .15.43.43 0 0 0 0 .14s0 .08.05.13a.28.28 0 0 0 .28.19h.33zM118.43 5.44l-.8.8a1.34 1.34 0 0 0-.33 1 .13.13 0 0 0 .09.13.09.09 0 0 0 .12 0 .44.44 0 0 0 .08-.22 1.44 1.44 0 0 1 .26-.76l.4-.58a1.19 1.19 0 0 0 .18-.37z" fill="#fd8204"/><path d="M129.53 16.99l-.18.43h.13a1.47 1.47 0 0 0 .88 0 .45.45 0 0 0 .21-.13.13.13 0 0 0 0-.17.14.14 0 0 0-.16-.06 1.06 1.06 0 0 1-.82-.07h-.07z" fill="#fff"/><path d="M124 32.09v.19c0 .07.06.21.08.31a.41.41 0 0 0 .52.25.15.15 0 0 0 .11-.16 2 2 0 0 0 0-.26.25.25 0 0 0-.21-.22l-.5-.12zM124.48 29.53h.16a.15.15 0 0 0 .14-.23.25.25 0 0 0-.18-.17 1.91 1.91 0 0 1-.48-.21.15.15 0 0 0-.24.14 1 1 0 0 0 0 .12.31.31 0 0 0 .25.3.82.82 0 0 0 .35.05z" fill="#fd8204"/><path d="M122.48 13.57a2.69 2.69 0 0 1-.52.4 2.29 2.29 0 0 1-.2-.36c-.07-.25-.15-.5-.23-.74zm-.54 0a.07.07 0 0 0 .14 0 .1.1 0 0 0 0-.13.15.15 0 0 0-.15.14z" fill="#fff"/><path d="M133.03 28.34h.09a2 2 0 0 0 .58-.5.78.78 0 0 0 .15-.57.69.69 0 0 0 0-.13l-.07.08-.26.33a1.12 1.12 0 0 1-.31.27.14.14 0 0 0-.06.07c-.06.12-.09.28-.12.45zM125.21 30.09v.15a.1.1 0 0 0 .11.13h.42a.15.15 0 0 0 .17-.22v-.19a.17.17 0 0 0-.18-.16h-.35a.16.16 0 0 0-.17.2v.05zM125.15 32.34v.36a.21.21 0 0 0 .18.24.32.32 0 0 0 .34-.11.69.69 0 0 0 .16-.25.56.56 0 0 0 0-.15.14.14 0 0 0-.17-.16z" fill="#fd8204"/><path d="M122.92 13.55a4 4 0 0 0 .27-.4 4.18 4.18 0 0 0 .17-.46v.11c.06.22.11.44.17.65a.62.62 0 0 1-.1.47zm.47-.53a.06.06 0 0 0-.05 0 .08.08 0 0 0 0 .05.24.24 0 0 0 .07.18h.07a.65.65 0 0 0 0-.09z" fill="#fff"/><path d="M125.86 1.39l.87.82.25.27h.06a.11.11 0 0 0 .13 0 .14.14 0 0 0 0-.11.68.68 0 0 0-.2-.36l-.32-.3a1.82 1.82 0 0 0-.47-.27l-.33-.13zM125.25 11.4a.43.43 0 0 0 .28-.08 1.61 1.61 0 0 0 .47-.44 3.32 3.32 0 0 1 .22-.28 2.72 2.72 0 0 0 .41-.67v-.06h-.06a2.69 2.69 0 0 0-.48.54 1.45 1.45 0 0 1-.14.16l-.26.28-.25.28z" fill="#fd8204"/><path d="M129.24 25.42h-.44a1.61 1.61 0 0 1-.44 0 2.51 2.51 0 0 0-.51 0 .3.3 0 0 0 .05.06 2.35 2.35 0 0 0 .23.16l.43.22a.08.08 0 0 0 .1 0l.56-.42zM121.86 11.8l.19.27.17.2a.1.1 0 0 0 .12 0 .37.37 0 0 0 .22-.13 1.32 1.32 0 0 1 .39-.35h.01-.43a.12.12 0 0 0-.1.06c-.06.07-.1.07-.16 0a.1.1 0 0 0-.05 0h-.3zM129.07 17.27l.19-.46-.41-.45a.49.49 0 0 0 0 .7l.15.14z" fill="#fff"/><path d="M126.25 30.03a2.31 2.31 0 0 0 0 .29.19.19 0 0 0 .31.13.24.24 0 0 0 .14-.27c0-.12 0-.24-.08-.36a.07.07 0 0 0-.08-.06h-.24a.08.08 0 0 0-.09.09v.18zM132.16 28.58h.15a.3.3 0 0 0 .23-.18 1.94 1.94 0 0 0 .1-.26.12.12 0 0 0 0-.09.08.08 0 0 0-.1 0l-.53.14a.1.1 0 0 0-.09.09.66.66 0 0 0 0 .21.2.2 0 0 0 .24.09z" fill="#fd8204"/><path d="M122.86 12.12l.46-.31h.07a2.28 2.28 0 0 1 .56.25l-.27.1-.81.19h-.2a.57.57 0 0 1 .19-.23zm.39 0a.08.08 0 0 0 .11 0 .16.16 0 0 0 .11-.13.12.12 0 0 0-.14 0 .11.11 0 0 0-.09.1.23.23 0 0 0 .06.05zM121.51 12.18a2.47 2.47 0 0 0 .54.14 2.52 2.52 0 0 1-.34-.47l-.06-.08a.19.19 0 0 0-.21 0l-.33.15-.16.11a2.73 2.73 0 0 0 .36.14c0-.07 0-.17.08-.19a.16.16 0 0 1 .17.05.17.17 0 0 1-.05.15zM129.41 16.56l.06-.13.15-.41a.25.25 0 0 0 0-.23.61.61 0 0 0-.29-.25l-.05.58a.48.48 0 0 0 .09.3z" fill="#fff"/><path d="M115.86 6.74a.32.32 0 0 0-.06.21v.89a1 1 0 0 0 .07.35.34.34 0 0 0 .25.19.39.39 0 0 0 0-.21c0-.16-.08-.31-.13-.46a2.74 2.74 0 0 1-.1-.78c-.08-.05-.03-.12-.03-.19zM126.24 30.94v.5a.1.1 0 0 0 .18.08l.17-.13a.28.28 0 0 0 .1-.22.21.21 0 0 0-.14-.22.79.79 0 0 1-.17-.1s-.06-.06-.1 0a.27.27 0 0 0-.05.1z" fill="#fd8204"/><path d="M129.01 26.01a1.28 1.28 0 0 0 .6.13 1.79 1.79 0 0 0 .07-.71 3.71 3.71 0 0 1-.67.58zM128.29 26.08a2.05 2.05 0 0 1-.67-.45v.71a3.12 3.12 0 0 0 .67-.26z" fill="#fff"/><path d="M123.13 31.54a1.81 1.81 0 0 0 .2.67l.14.24a.28.28 0 0 0 .15.12c0-.21-.08-.42-.12-.62a.27.27 0 0 0-.13-.19z" fill="#fd8204"/><path d="M126.37 28.09a3.72 3.72 0 0 1-.93.43l.35.2a.13.13 0 0 0 .11 0l.29-.26a.64.64 0 0 0 .17-.27s0-.06.01-.1zM122.57 15.18l-.54-.7.09.42h.13a.09.09 0 0 1 0 .06c0 .08 0 .13-.13.17v.42a1.53 1.53 0 0 0 .45-.37z" fill="#fff"/><path d="M126.38 28.93a.31.31 0 0 0-.32.31.15.15 0 0 0 .07.15h.21a.2.2 0 0 0 .17-.1.37.37 0 0 0 0-.11.59.59 0 0 1 0-.07.12.12 0 0 0-.1-.17h-.1zM123.52 29.02v-.29a1 1 0 0 1 0-.15.11.11 0 0 0 0-.15l-.15-.12a.08.08 0 0 0-.09 0 .16.16 0 0 0-.12.14.27.27 0 0 0 0 .11 1 1 0 0 0 .28.46zM123.23 29.34v.69a.39.39 0 0 0 .26.3 1.73 1.73 0 0 1 0-.18v-.52a.16.16 0 0 0-.08-.15z" fill="#fd8204"/><path d="M125.41 28.87h-.05l-.31-.21H124.37a1.48 1.48 0 0 0 1.04.21zM125.61 20.54a4 4 0 0 1 .86-.19 2.81 2.81 0 0 0-.6-.23l-.15.21a.45.45 0 0 0-.11.21z" fill="#fff"/><path d="M126.16 32.74a.8.8 0 0 0 .47-.71h-.12a.28.28 0 0 0-.23.23c0 .12-.06.25-.1.37s-.01.02-.02.11z" fill="#fd8204"/><path d="M114.15 21.46l.27-.42a.47.47 0 0 0-.52 0 1 1 0 0 0 .25.42zM121.13 11.59l-.63-.25v.1l.1.33a.1.1 0 0 0 .17.05z" fill="#fff"/><path d="M125.2 29.54h.48a.12.12 0 0 0 .12-.11.13.13 0 0 0-.12-.13h-.35c-.2.01-.18.07-.13.24z" fill="#fd8204"/><path d="M123.65 11.74l.1.05.3.15a.07.07 0 0 0 .11 0 .84.84 0 0 0 .12-.3.13.13 0 0 0-.14 0l-.48.14zM119.94 23.81l-.66-.75a.17.17 0 0 0 0 .12.32.32 0 0 0 .11.25c.15.12.31.23.47.34l.1.05z" fill="#fff"/><path d="M132.86 25.61a.15.15 0 0 0-.15.15.12.12 0 0 0 .13.11.19.19 0 0 0 .18-.16.13.13 0 0 0-.16-.1zM123.34 30.67a3.21 3.21 0 0 0 .12.49l.05-.44h-.07zM129.46 26.81H129.68v-.23z" fill="#fd8204"/><path d="M120.99 9.48l.08-.07a.23.23 0 0 1 .26-.05h.07a1.34 1.34 0 0 0 .35.19 2.28 2.28 0 0 0 .29.11 2 2 0 0 1 .28.09 1.41 1.41 0 0 0 .8.12l.53-.06a1.53 1.53 0 0 0 .42-.12c.12-.06.25-.1.37-.15l.24-.13a.14.14 0 0 1 .15 0l.2.11a.42.42 0 0 0 0-.08l-.06-.15c0-.1-.06-.1-.16-.08a3.1 3.1 0 0 0-.61.17 2.05 2.05 0 0 1-.39.08 6.1 6.1 0 0 1-1.14 0 1.52 1.52 0 0 1-.35-.06 6.5 6.5 0 0 1-.71-.22.89.89 0 0 0-.47 0 .13.13 0 0 0-.1.19zM120.57 7.63a.47.47 0 0 1-.26-.06.08.08 0 0 1 0-.13v-.05c.09-.11.17-.22.26-.32a.58.58 0 0 1 .31-.2l.3-.07a1.34 1.34 0 0 1 .5 0 .43.43 0 0 1 .32.17.82.82 0 0 1 .18.34.22.22 0 0 1-.11.26 1.21 1.21 0 0 1-.46.14.88.88 0 0 1-.42 0 1.24 1.24 0 0 0-.45 0h-.18zm1.43-.26l-.23-.33a.55.55 0 0 1-.26.46.59.59 0 0 0 .49-.13zm-1.17-.28a.62.62 0 0 0-.33.18 2.57 2.57 0 0 0 .42.18.65.65 0 0 1-.06-.36zm.22.07a.29.29 0 0 0 .26.26.27.27 0 0 0 .27-.2h-.07c-.15.17-.33.16-.41 0zM125.93 7.34a.87.87 0 0 1-.57.26h-.44a5.92 5.92 0 0 1-.64-.11.29.29 0 0 1 0-.25 1.52 1.52 0 0 1 .45-.46.26.26 0 0 1 .14 0h.68a.44.44 0 0 1 .4.21c.08.12.13.15 0 .29a.13.13 0 0 1-.02.06zm-.36-.43a1.17 1.17 0 0 1-.21.48.71.71 0 0 0 .51-.19.45.45 0 0 0-.3-.29zm-1.16.27a.52.52 0 0 1-.06.11.65.65 0 0 0 .35 0l-.09-.32a.27.27 0 0 0-.2.21zm.42-.18h-.08a.79.79 0 0 0 .09.19.27.27 0 0 0 .2 0 .42.42 0 0 0 .17 0 .13.13 0 0 0 .09-.18.26.26 0 0 1-.44-.01zM120.37 6.4a2.21 2.21 0 0 1 .56-.32l.14-.05.34-.11a.11.11 0 0 0 .09-.14.12.12 0 0 0-.09-.15.61.61 0 0 0-.23 0 1.29 1.29 0 0 0-.76.53.47.47 0 0 0-.07.15.3.3 0 0 0 0 .1zM126.28 6.05a.56.56 0 0 0-.07-.1 2.91 2.91 0 0 0-.4-.36.87.87 0 0 0-.76-.11.24.24 0 0 0-.11.08v.11l.31.09.45.16c.17.07.35.11.52.16zM122.96 10.48a2.07 2.07 0 0 0 .67-.13l.13-.08v-.09h-1.25a.06.06 0 0 0-.08 0 .1.1 0 0 0 0 .08.28.28 0 0 0 .11.08 1.08 1.08 0 0 0 .42.14zM123.25 8.74a.65.65 0 0 0 .44-.15.27.27 0 0 0 .09-.12.09.09 0 0 0 0-.09.07.07 0 0 0-.09 0l-.1.08a.68.68 0 0 1-.44.07.1.1 0 1 0 0 .19h.2zM130.69 11a.24.24 0 0 1 .12-.11l.26-.09a.15.15 0 0 0 .13-.1.14.14 0 0 0-.06-.16l-.21-.15h-.06a.54.54 0 0 1 .41.11.08.08 0 0 0 .14 0 .2.2 0 0 0 0-.12l-.15-.38v-.07a.38.38 0 0 1 .23.24l.09.24h.07a.22.22 0 0 0 .23-.09 1.29 1.29 0 0 0 .19-.31v-.09a.75.75 0 0 1-.18.54v.08l.05.08a.69.69 0 0 1 .66.08 1.46 1.46 0 0 0-.58.1.14.14 0 0 0-.11.15.32.32 0 0 0 0 .08.23.23 0 0 0 0 .09l.09.06a.57.57 0 0 1 .18.24h-.07l-.31-.15a.15.15 0 0 0-.15 0h-.07a.07.07 0 0 0-.08.06 1.53 1.53 0 0 1-.09.24.78.78 0 0 1-.13.15.06.06 0 0 1-.09 0 1.58 1.58 0 0 1 .08-.17.39.39 0 0 0 0-.39.23.23 0 0 0-.17-.13.6.6 0 0 0-.42.06h-.09zm.82-.06a.26.26 0 0 0 .28 0 .3.3 0 0 0 .08-.42.29.29 0 0 0-.41.29.19.19 0 0 0 .04.14zM120.96 22.32a.23.23 0 0 0-.2-.24.19.19 0 0 0-.18.2.21.21 0 0 0 .21.22.17.17 0 0 0 .17-.18zM122.67 20.8a.17.17 0 0 0-.17.17.2.2 0 0 0 .2.17.15.15 0 0 0 .15-.16.18.18 0 0 0-.18-.18zM120.86 23.45a.23.23 0 0 0-.24.22.21.21 0 0 0 .22.2.21.21 0 0 0 .22-.21.21.21 0 0 0-.2-.21zM123.77 20.89a.17.17 0 0 0 .16.17.23.23 0 0 0 .2-.19.16.16 0 0 0-.16-.15.18.18 0 0 0-.2.17zM122.66 14.07a.37.37 0 0 0-.12.22.18.18 0 0 0 .2-.17.08.08 0 0 0-.08-.05zM121.86 21.99a.16.16 0 0 0 .16.16.15.15 0 0 0 .14-.17.15.15 0 0 0-.14-.14.16.16 0 0 0-.16.15zM123.32 15.08h.06a.12.12 0 0 0 .09 0 .11.11 0 0 0 0-.08.12.12 0 0 0-.13-.11h-.12a.07.07 0 0 0-.05.08.07.07 0 0 0 .08.05zM122.05 13.44a.15.15 0 0 0-.11.14.07.07 0 0 0 .14 0 .1.1 0 0 0 0-.13zM123.45 13.12l-.06-.11a.06.06 0 0 0-.05 0 .08.08 0 0 0 0 .05.24.24 0 0 0 .07.18h.07a.65.65 0 0 0-.03-.12zM123.27 12.09a.23.23 0 0 0 0 .05.08.08 0 0 0 .11 0 .16.16 0 0 0 .11-.13.12.12 0 0 0-.14 0 .11.11 0 0 0-.08.08z" fill="#63291c"/><path d="M121.51 7.51a.59.59 0 0 0 .48-.13l-.23-.33a.55.55 0 0 1-.25.46zM120.92 7.45a.65.65 0 0 1-.1-.37.62.62 0 0 0-.33.18 2.57 2.57 0 0 0 .43.19zM121.1 7.14a.29.29 0 0 0 .26.26.27.27 0 0 0 .27-.2h-.07c-.2.15-.38.14-.46-.06zM125.86 7.19a.45.45 0 0 0-.3-.29 1.17 1.17 0 0 1-.21.48.71.71 0 0 0 .51-.19zM124.6 6.98a.27.27 0 0 0-.19.2.52.52 0 0 1-.06.11.65.65 0 0 0 .35 0zM125.3 7.03a.26.26 0 0 1-.46 0h-.08a.79.79 0 0 0 .09.19.27.27 0 0 0 .2 0 .42.42 0 0 0 .17 0 .13.13 0 0 0 .08-.19zM131.4 10.74a.19.19 0 0 0 .1.19.26.26 0 0 0 .28 0 .3.3 0 0 0 .08-.42.29.29 0 0 0-.46.23z" fill="#fff"/></g><rect x="90.86" y="24.09" width="22.13" height="1.22" rx=".2" ry=".2" fill="#682f24"/><g fill="#682f24"><path d="M25.94 17.18a4.84 4.84 0 0 1-3.62-1.57 5.64 5.64 0 0 1 0-7.37 4.84 4.84 0 0 1 3.61-1.57 5.12 5.12 0 0 1 5 5.26 5.05 5.05 0 0 1-4.99 5.25zm0-8.74a1.59 1.59 0 0 0-1.15.48 4.26 4.26 0 0 0-.84 3 4.45 4.45 0 0 0 .86 3 1.57 1.57 0 0 0 1.13.48c.74 0 2-.45 2-3.48 0-2.18-.76-3.48-2-3.48zM51.15 17.18a4.84 4.84 0 0 1-3.62-1.57 5.64 5.64 0 0 1 0-7.37 4.84 4.84 0 0 1 3.61-1.57 5.12 5.12 0 0 1 5 5.26 5.05 5.05 0 0 1-4.99 5.25zm0-8.74a1.59 1.59 0 0 0-1.15.48 4.26 4.26 0 0 0-.84 3 4.45 4.45 0 0 0 .86 3 1.57 1.57 0 0 0 1.13.48c.74 0 2-.45 2-3.48.01-2.18-.75-3.48-2-3.48zM94.53 17.18a4.84 4.84 0 0 1-3.62-1.57 5.64 5.64 0 0 1 0-7.37 4.84 4.84 0 0 1 3.61-1.57 5.12 5.12 0 0 1 5 5.26 5.05 5.05 0 0 1-4.99 5.25zm0-8.74a1.59 1.59 0 0 0-1.15.48 4.26 4.26 0 0 0-.84 3 4.45 4.45 0 0 0 .86 3 1.57 1.57 0 0 0 1.13.48c.74 0 2-.45 2-3.48 0-2.18-.76-3.48-2-3.48zM43.2 17.05a1.4 1.4 0 0 1-1.54-1.31c0-.17.07-5.35.07-5.35s-1.76 4.35-2.54 5.78a.84.84 0 0 1-1.19.06 52 52 0 0 1-2.14-5.32 26.26 26.26 0 0 1-.24 2.65c-.28 2.1-1.12 3.49-2.59 3.49a1.74 1.74 0 0 1-1.62-.91 11.8 11.8 0 0 0 1.36-3.56 33.11 33.11 0 0 0 .28-4.27 1.9 1.9 0 0 1 1.94-1.7 2.24 2.24 0 0 1 2 1.21 35.5 35.5 0 0 0 1.63 4.32c.12 0 1.76-4.23 1.76-4.23a2.47 2.47 0 0 1 2.17-1.29 2.63 2.63 0 0 1 1.77.71 1.73 1.73 0 0 1 .34 1v2c0 2 .12 5.33.13 5.44a1.45 1.45 0 0 1-1.59 1.35zM61.93 17.14c-3.22 0-4.37-2.25-4.37-4V8.05c0-.73.46-1.12 1.5-1.32a16.33 16.33 0 0 1 2.57-.15c1 0 4.1.35 4.1 2.35a2.73 2.73 0 0 1-1.61 2.11s2.36.83 2.36 2.58c.01 2.3-2.28 3.52-4.55 3.52zm-.17-5.16h-1.07a2.69 2.69 0 0 0 0 .41v1.35c.09 1.58 1 1.8 1.43 1.8a1.65 1.65 0 0 0 1.57-1.88 1.72 1.72 0 0 0-1.93-1.68zm-.16-3.86a6 6 0 0 0-.94.08v2.86h.74a1.56 1.56 0 0 0 1.63-1.63 1.24 1.24 0 0 0-1.43-1.31zM72.55 17.11a5 5 0 0 1-4.85-5.07 5.37 5.37 0 0 1 5.1-5.44c2.85 0 4.13 1.73 4.13 3 0 2.36-2.4 3.22-3.94 3.26a15.69 15.69 0 0 1-2.23-.12l.1.34a3.12 3.12 0 0 0 3.13 2.45 7.2 7.2 0 0 0 2.78-.75c.14-.06.25 0 .14.18a4.88 4.88 0 0 1-4.36 2.15zm-.69-8.83c-1.28.82-1.16 3.07-1.16 3.07a3.09 3.09 0 0 0 .91.1 2.89 2.89 0 0 0 1.81-.51 2 2 0 0 0 .75-1.6 1.31 1.31 0 0 0-1.49-1.33 1.78 1.78 0 0 0-.82.27zm2.76-2.62a1.62 1.62 0 0 1-1.16-.45 1.14 1.14 0 0 1 0-1.6 1.62 1.62 0 0 1 1.16-.45 1.28 1.28 0 1 1 0 2.5zm-4.5 0a1.62 1.62 0 0 1-1.16-.45 1.14 1.14 0 0 1 0-1.6 1.62 1.62 0 0 1 1.16-.45 1.28 1.28 0 1 1-.01 2.5zM80.44 17.11a1.5 1.5 0 0 1-1.58-1.37s.1-4.39.1-4.86c0-2-.5-3-1.06-3.35a2.34 2.34 0 0 1 1.85-.95c1.4 0 2.3 1.39 2.3 2.93v1.53h2.7V7.91c0-1.32 1.52-1.33 1.58-1.33a1.44 1.44 0 0 1 1.58 1.33c0 .37-.06 4.55-.06 4.91 0 2.31.52 3 1.1 3.37a2.4 2.4 0 0 1-1.87.9c-1.4 0-2.3-1.06-2.3-2.9v-1.7h-2.77s.07 3.14.07 3.25a1.5 1.5 0 0 1-1.64 1.37zM102.81 17.16a1.49 1.49 0 0 1-1.65-1.35c0-.08 0-1.1.05-1.86 0-1.22.1-2.73.1-3.05 0-2-.5-3-1.06-3.35a2.34 2.34 0 0 1 1.85-.95c1.38 0 2.28.9 2.28 2.93v1.78l.47-.08s.52-4.63 4-4.63a1.78 1.78 0 0 1 2 1.76 1.55 1.55 0 0 1-1.7 1.64 1.32 1.32 0 0 1-.57-.11.94.94 0 0 0-.93-1.33c-.91 0-1.58 1.57-1.52 2.57a2.36 2.36 0 0 1 2 .78 6.77 6.77 0 0 1 .53 1 5.67 5.67 0 0 0 2.43 3.27v.05a3 3 0 0 1-2.14.91c-2.25 0-2.57-2-3-3.3-.2-.69-.45-1.61-1.17-1.58a3.7 3.7 0 0 0-.38.07v3.45a1.5 1.5 0 0 1-1.59 1.38z"/></g></svg>