<svg xmlns="http://www.w3.org/2000/svg" viewBox="0 0 76.17 37.14"><path fill="#ff5722" d="M47.89 0c1.53.29 2.33.87 2.33 1.89v8.28c-1.53.08-2.33-.5-2.33-1.88z"/><path fill="#263239" d="M5.67 15.26v18.9a2.83 2.83 0 0 1-2.84 2.91H.94c-.79 0-.94-.51-.94-1.24V13.3c0-.8.51-.94 1.24-.94h1.59a2.82 2.82 0 0 1 2.84 2.9zm-2.11 18.9v-18.9c0-.58-.29-.87-.65-.87h-.44c-.14 0-.29.07-.29.22v20c0 .15.07.29.22.29h.51c.29.1.65-.23.65-.74zm7.63-21.8a2.59 2.59 0 0 1 2.81 2.9v18.83a2.69 2.69 0 0 1-2.84 3 2.64 2.64 0 0 1-2.9-2.91V15.33a2.79 2.79 0 0 1 2.93-2.97zm.73 21.73V15.33c0-1.16-1.45-1.16-1.45 0v18.76c0 1.23 1.45 1.16 1.45 0zm11.34-21.73a3.2 3.2 0 0 0-1.82.5 3.2 3.2 0 0 0-1.82-.5 2.63 2.63 0 0 0-2.83 3v20.5c0 .73.14 1.24.94 1.24H19V15.33c0-1.16 1.45-1.16 1.45-.07v20.57c0 .73.15 1.24.95 1.24h1.2V15.33c0-1.16 1.46-1.23 1.46 0V35.9c0 .73.21 1.24.94 1.24h1.09V15.26a2.62 2.62 0 0 0-2.83-2.9zm8.65 0a2.58 2.58 0 0 1 2.83 2.9v18.83a2.69 2.69 0 0 1-2.83 3A2.65 2.65 0 0 1 29 34.16V15.33a2.79 2.79 0 0 1 2.91-2.97zm.72 21.73V15.33c0-1.16-1.45-1.16-1.45 0v18.76c0 1.23 1.45 1.16 1.45 0zm10.61-9.38v9.45a2.85 2.85 0 0 1-2.9 2.91h-1.89c-.8 0-1-.51-1-1.24V13.3c0-.8.51-.94 1.24-.94h1.6a2.9 2.9 0 0 1 2.9 2.9v3.85c0 1.53 0 2.48-1.52 2.84 1.5.36 1.57 1.45 1.57 2.76zm-2.83-10.25h-.51c-.15 0-.29 0-.29.22v5.89c0 .22.07.29.22.29h.43a.78.78 0 0 0 .8-.87v-4.73c0-.51-.29-.8-.65-.8zm.65 19.7V23.91a.78.78 0 0 0-.8-.87h-.36c-.15 0-.29.07-.29.22v11.41c0 .14.07.29.22.29h.51a.71.71 0 0 0 .72-.8zm7.63.8c-.43 0-.65-.37-.65-.87V23l2.18-2.25H48v-5.42c0-.5.29-.87.65-.87h1.53c1.31 0 1.31-1.16 1.31-2.1h-2.87c-2.69 0-2.69 3-2.69 3v18.73a2.58 2.58 0 0 0 2.69 3h2.91c0-1.1 0-2.11-1.31-2.11zm7.2-22.6h-1.24c-.8 0-.94.5-.94 1.23v22.46a.9.9 0 0 0 .94 1h1.24V23l1.38-2.25h-1.38zm2.25 0c-.73 0-.94.58-.94 1.23V36a.89.89 0 0 0 .94 1h1.24V12.36zm6.83 0a2.59 2.59 0 0 1 2.84 2.9v18.83a2.69 2.69 0 0 1-2.84 3 2.64 2.64 0 0 1-2.9-2.91V15.33A2.79 2.79 0 0 1 65 12.36zm.8 21.73V15.33c0-1.16-1.45-1.16-1.45 0v18.76c0 1.23 1.45 1.16 1.45 0zm8.36-14.18a.83.83 0 0 1-.8.88h-.44c-.14 0-.21-.15-.21-.37v-8.06h-1c-.73 0-1.16.14-1.16.94v22.53c0 .73.14 1.24.94 1.24h1.24V23.26c0-.15.14-.22.29-.22h.29c.43 0 .8.22.8.87v11.92c0 .73.22 1.24.94 1.24h1.17V24.71c0-1.38 0-2.47-1.46-2.76 1.53-.36 1.46-1.38 1.46-3v-6.52h-1c-.73 0-1.16.14-1.16.94v6.54z"/></svg>