<svg xmlns="http://www.w3.org/2000/svg" width="35.57mm" height="38.97mm" viewBox="0 0 100.82 110.46"><title>Поддерживающая уборка</title><path d="M45.71 90.52v-48s-26.47-5.16-40 16c-12.75 19.93 4.5 50.76 4.5 50.76h28.26" fill="#f08119" stroke="#682f24" stroke-linejoin="round" stroke-width="2" fill-rule="evenodd"/><circle cx="39.6" cy="98.7" r="10.58" fill="#e2ddd3" stroke="#682f24" stroke-miterlimit="10" stroke-width="2"/><circle cx="39.6" cy="98.7" r="6.08" fill="#fbf4ee" stroke="#682f24" stroke-linejoin="round"/><path d="M24.15 44.19a28.56 28.56 0 0 1-21 47.93" fill="none" stroke="#682f24" stroke-linejoin="round"/><path d="M81.9 97.06h-6L63.32 17.97C61.81 10.9 58.18 6.5 51.86 6.5A11.47 11.47 0 0 0 40.4 17.97v18.79h-6V17.97A17.48 17.48 0 0 1 51.85.5c9.63 0 15.58 7.12 17.46 17.47z" fill="#fde9d3" stroke="#682f24" stroke-linejoin="round"/><path d="M31.73 41.97a5.21 5.21 0 0 1 5.21-5.21h1.78a5.21 5.21 0 0 1 5.21 5.21" fill="#e2ddd3" stroke="#682f24" stroke-linejoin="round" stroke-width="2"/><path d="M97.8 102.15h-6.72a4.68 4.68 0 0 0-4.63-4.1H71.34a4.68 4.68 0 0 0-4.64 4.1h-6.72a2 2 0 0 0-2 2v3.28a2 2 0 0 0 2 2H97.8a2 2 0 0 0 2-2v-3.26a2 2 0 0 0-2-2.02z" fill="#fbf4ee" stroke="#682f24" stroke-miterlimit="10" stroke-width="2"/><path fill="#e2ddd3" stroke="#682f24" stroke-linejoin="round" d="M65.71 102.72h26.13"/><path fill="#e2ddd3" stroke="#682f24" stroke-linejoin="round" stroke-width="2" d="M72.95 79.51l2.94 18.54h6.01l-2.95-18.54h-6z"/></svg>