<svg xmlns="http://www.w3.org/2000/svg" width="300" height="250" viewBox="0 0 300 250"><title>мужчина-клиент</title><g data-name="Слой 2"><path fill="none" d="M0 0h300v250H0z"/><path d="M182.5 51.82c-.26-2.8-2.38-1.86-2.6-.22a32.28 32.28 0 0 1-1.71 5.65c-.37.89-1 2.38-1 .89s-1.11-5.27-1-5.79-1-3.94-1-4.75-9-5.13-10.1-6.54-5.32-6.33-5.47-8c0 0-4.26 5.21-8.86 7.37s-12.48 4.53-15.3 4.31a57.85 57.85 0 0 0-7.58.22A13.14 13.14 0 0 1 123 47a13.08 13.08 0 0 0-4.23 1.49l-.07 6L118 64s-.2 1.64-.28 2.82c-.3.61-.68 1.54-.95 1.65s-1.81-5.39-1.81-5.39-1.5-6.93-3-6.95c-2.14 0-3.55 2.46-3 4.47s2 4.92 2.57 6.7 2 5.25 3.21 5.33 1.67.45 3 1.59c.06.06 4.83 8.82 6 10.53a45.5 45.5 0 0 0 6.52 7.81 22.12 22.12 0 0 0 .07 2.7s-.1 8.76-.1 10.17-1.8 7.33-1.8 7.33a17 17 0 0 1 4.16 4.66c1.56 2.75 5.33 3.22 9.93 5.68 2.07 1.11 6 10.08 6 10.08s3.48-3.13 4.07-4.47-.28-8.11.24-8.48 6-3.76 6.95-5.54 3-4.63 3.18-4.93-.56-3.91-.86-6.21a58.33 58.33 0 0 1-.15-6.77 13.34 13.34 0 0 1 1.61-2.78c1-1.11 6.71-10.16 7.48-11.57 2.57-4.71 4.53-11.87 5.42-12.61s1.74-.48 3.3-3.08 1.86-7.8 2.53-9.29.27-4.95.21-5.63z" fill="#f9e5cc"/><path d="M163.26 12.61C163 12.32 159.47 9 149.15 8a46.64 46.64 0 0 0-21.39 3.34c-1.56.82-9.14 5.94-10.7 8s-5.65 10.4-6.46 13.74-1.86 12.33-1.34 15.3 1.86 8.32 1.86 8.32a1.9 1.9 0 0 1 1.78 1.11c.74 1.26 1 .67 1.26.07s-.82 3.94.3 6.31 2.23 5.27 2.23 5.27.67.52.67.3 1.34-15.08 1.34-15.38.79-5.93 1-6.3 6-.46 6.49-.68 3-1.78 3-1.78 10.74-1.22 13-2 11.33-4.2 13-6.06 4.65-5 4.65-5a14.69 14.69 0 0 0 2.18 5.11c3.67 5.13 9.91 7.7 11.89 8.77s1.39 1.74 1.39 2 .39 3.31.83 5.83a31.56 31.56 0 0 0 1.68 5.49l.8-2.91s.43-5.53 2.82-7.9c.93-.93-1.91-22.52-2.79-25a24 24 0 0 0-6.44-9c-.9-.76-4.31-1.2-3.91-3.33A7.53 7.53 0 0 0 163 13.3z" fill="#f7bc16"/><path d="M159.4 20.54s-.59 1-3.49.82-6.17-1.63-14.71 1-13.89 6.46-14.78 7.28-.52 1.49 2 .52 14.86-4.9 21.47-5.57 6.83 0 6.83 0a26.58 26.58 0 0 1-6.31 5.72c-3.64 2.23-13.59 5.79-17.61 5.94a51.72 51.72 0 0 0 7.8.52 78.91 78.91 0 0 0 11.4-3.08 51.63 51.63 0 0 0 5.94-3.27 24.94 24.94 0 0 0 1.78-2.15 24.64 24.64 0 0 0 .72-3.3 18.75 18.75 0 0 1 7.45 4.27c2.41 2.25 6.39 6.31 6.91 8 0 0-.45-6.61-4.09-9.51a25.52 25.52 0 0 0-6.73-4l-.55-.27s-1.71-5.2 1-6.24 10.57 1.37 14.27 9.31a29.93 29.93 0 0 0-6.27-11.16c-1.63-1.89-5-2.12-4-3.21-1.32-.54-3.11.1-4.2.36-1.56.37-3.07-1.29-3.29-1.59s-6.07-3.69-10.6-4.06-16.71 1-20.06 2.3a25.85 25.85 0 0 0-8 5.22c-1.41 1.41-5.82 4.62-7 7.22s-3 5.52-3.49 7.74-2.1 6.26-2.11 9a20.46 20.46 0 0 0 .4 5s-.54-7 5.11-14.54c5.31-7.09 15.06-13.92 23.31-14.88s20.43-1 22.29.89-1.39 5.72-1.39 5.72z" fill="#f6c966"/><path d="M107.52 234.67l1-6.31a17.47 17.47 0 0 0 .73-3.49c0-1.12 1.9-3.89 1.9-3.89a15 15 0 0 0 4.9 1.56c3.53.67 19.56 5.14 31.42 4.69s22.09-1.74 26-2.3 13.51-4.53 15.73-5.88l4.93-3s3.57 7.3 2.82 8.75a16.16 16.16 0 0 0 .8 3.77c.63 1.68.21 5.75.21 5.75s-10.38 8.94-45.62 8.68c-41.62-.26-44.82-8.33-44.82-8.33z" fill="#fd8204"/><path d="M111.56 226.23s15.55 4.6 26.91 5.39 25.83.46 34.41-1.1 17-6.32 19.28-7.44 2.29-5.62 2.42-6.18-1.68-1.59-1.68-1.59-2.59 5.87-13 8c-10.81 2.23-22.18 5.15-36.31 3.7s-24.1-3.35-27.51-4.46-5.14-1.84-5.14-1.84a9.8 9.8 0 0 0-1.65 2.82c-.38 1.17 2.27 2.7 2.27 2.7z" fill="#f2af72"/><path d="M128.78 60.89a6.21 6.21 0 0 1 2.67-2.22c1.5-.47 6-1 7-.55s2.3 1.73 2.43 2.53-.26 1.08-1.33 1.45-3.05 1.33-3.65 1.47-5.2-.57-5.94-1.1-1.3-1.26-1.18-1.58z" fill="#fff"/><path d="M132.17 58.95a2 2 0 0 0-.1 1.9 3 3 0 0 0 2 2.16 2.42 2.42 0 0 0 2.63-.71c.88-.84 1.61-1.48 1.39-2.49a2 2 0 0 0-1.84-1.35c-.57-.09-2.95-.35-4.08.49z" fill="#919191"/><path d="M168.26 61a6.21 6.21 0 0 0-2.67-2.22c-1.5-.47-4.59-1-6.8.1-1 .47-3 2.12-3.12 2.92s.8.64 1.87 1 3 .72 3.63.87 5.2-.57 5.94-1.1 1.27-1.28 1.15-1.57z" fill="#fff"/><path d="M164.38 59.42a2.35 2.35 0 0 1-.12 1.82c-.45 1.19-.78 1.54-1.83 1.82a3 3 0 0 1-2.62-.29c-.89-.82-1.61-1.48-1.39-2.49a2.47 2.47 0 0 1 1.76-1.82 7.87 7.87 0 0 1 4.2.96z" fill="#919191"/><path d="M128.89 95.09s-3.7.86-5.2 3.67-2.51 7.53-4 8.39-6.55 2.2-9.55 4-12.35 4.48-15.29 7.85a46.18 46.18 0 0 0-6.67 10.71c-1.56 3.37-5.94 14.69-6.18 19.71s-2.45 26.63-2.69 30.73a55.34 55.34 0 0 0-.06 9.55c.31 4 0 8.57.06 11.94s0 9.58.24 12.18 0 4.81 1.16 5.88 5.2 4.38 7.1 5.88 11.88 8 13.47 8.69a30.32 30.32 0 0 0 4.53 1.41l2-4.65s3-9.67 3.31-9.8 13.22 3 13.22 3l24.92 3.24s10.47.34 15.86-1 14.63-3.06 17.51-4.35 7.47-3.49 8.69-4.71a26 26 0 0 0 2.33-2.75s.58-5.88.18-7.65-.73-13.71-.73-13.71-.58-11.66.24-11.88 2 3.43 2.08 4.29 1.41 9.86 1.41 9.86l.8 13.35 2.82 16.1 2.27 6.86 15.92-9 2.69-4-1.35-18.49s-1.78-14.17-2.27-15.61-3.86-8-3.67-8.63a25.46 25.46 0 0 0 1.35-3.18c.28-1.26-.83-8.2-1.16-9.8s-3.49-11.3-3.67-11.82S209 139.9 209 139.9s-5.23-19.22-6.92-21.67-7.19-5.42-10.77-6.73c0 0-14.39-2.23-15.61-3.49s-4.16-7.93-5.51-9.67-4.9-4.08-6.31-3.31-2.33 1.29-2 3.18c0 0 .67 8.45.67 10.77a8.47 8.47 0 0 1-3.8 6.61 72.62 72.62 0 0 0-6.37 5.14l.55 7.1-2.33 4.47s-.89 2.48-3.31-.86a32.88 32.88 0 0 1-3.92-8.51s-6.58-1.07-8.88-3.43-5.79-6.7-5.63-8.63c0 0 .67-4.19 1-6.18.01.01 1.72-9.2-.97-9.6z" fill="#fff"/><path d="M158.91 53.24a13.87 13.87 0 0 0 4.83-.29 38.86 38.86 0 0 1 4.68-.86 5 5 0 0 1 2.27.35s.51.37.15-.35a3.65 3.65 0 0 0-1.64-1.41c-.37-.15-6 .22-6 .22s-4-.09-4.73-.12a1.44 1.44 0 0 0-1.49.92c-.3.7.65 1.3 1.93 1.54zM136.57 54.08a12.58 12.58 0 0 0 3.34-.74c.38-.14 1-.31.6-1.13s-2-.66-3-.66-6.91.66-8.39 1a8.54 8.54 0 0 0-3.18 1.54c-.33.71.05.6.49.44a22.3 22.3 0 0 1 4.06-.71c1.36-.01 4.76.32 6.08.26zM155.8 62.89c.4 0 2.34.51 2.34.51l.73.18a19.81 19.81 0 0 0 2.64.58 10.48 10.48 0 0 0 3.8-.58c1-.4 2.68-1.25 2.68-1.25s.94-.76.83-1a13.73 13.73 0 0 0-2.67-3.18 20.12 20.12 0 0 0-4.86-.37 10.8 10.8 0 0 0-2.89.48 11.87 11.87 0 0 0-3 3.25c-.92 1.21 0 1.35.4 1.38zm8.69-3.63a6.86 6.86 0 0 1 2.64 2.13c0 .22-.33.4-.33.4a28 28 0 0 1-2.87 1.06c-.9.22.31-.27.67-1.29a3 3 0 0 0-.11-2.3zm-5.65.68a1.82 1.82 0 0 1 .23-.49c.39-.22.85 0 .78.41a1.41 1.41 0 0 0 1.5 1.72c1.5 0 1.43-1.61 1.43-1.61a.45.45 0 0 1 .2-.28.63.63 0 0 1 .78.46 1.75 1.75 0 0 1-1.24 2.19c-1.35.53-2.71.33-3.25-.64a2.27 2.27 0 0 1-.43-1.76zm-2.79 1.67a8.44 8.44 0 0 1 1.5-1h.06a1.93 1.93 0 0 0 .6 1.1c.55.5.47.74.22.82-.24-.08-1-.32-1.51-.47s-1.09-.15-.87-.45zM137.91 63a11.56 11.56 0 0 1 3.23-.88 1.13 1.13 0 0 0 1.21-.71 6.85 6.85 0 0 0-1.94-3.09 3.39 3.39 0 0 0-2.51-.8c-.56.07-4.32.33-5.24.37a4.75 4.75 0 0 0-2.27.44 16.12 16.12 0 0 0-3 2.33c-.18.3.44.71.91 1.14a11.68 11.68 0 0 0 1.76 1.2l.13.06a20 20 0 0 0 2 .79 22.17 22.17 0 0 0 3.69 0 8.53 8.53 0 0 0 2.03-.85zm.13-1.63c.51-.8.17-2.76.17-2.76a3.55 3.55 0 0 1 2.19 2.43 4.51 4.51 0 0 1-.69.48c-.33.17-2.6 1-2.6 1a4.38 4.38 0 0 0 .89-1.11zm-7.22.62s-.91-.42-1.05-.79.62-1.43 1.35-1.94a1.47 1.47 0 0 1 .54-.23c-1 1.53.56 3 .56 3a2 2 0 0 1-1.4-.03zm2.79.27a2.68 2.68 0 0 1-1.32-2.08 1.62 1.62 0 0 1 .23-1.15.84.84 0 0 1 .48-.03.56.56 0 0 1 .43.55 1.56 1.56 0 0 0 1.17 1.83 1.35 1.35 0 0 0 1.65-1.68.49.49 0 0 1 .91-.37 2.38 2.38 0 0 1-.26 2.09 3.38 3.38 0 0 1-1.28 1.06 3.45 3.45 0 0 1-2.01-.17zM148.78 76.78a7 7 0 0 0 4.53-1.57c.88-.69 0-.73 0-.73s-.69.15-2.49.37a10.88 10.88 0 0 1-3.77 0s-.77-.15-1.75-.37-.62.22-.62.22a4.94 4.94 0 0 0 4.1 2.08zM160.57 78.94a1 1 0 0 0-.9.19 46.31 46.31 0 0 1-4.35 2.56 17.94 17.94 0 0 1-9.09 1.22c-4.31-.55-5-1.37-5.82-1.88s-2-1.35-3.08-1.1a1.12 1.12 0 0 0-.8 1.43c.73.62.86-.52 1.37-.51 1.18 0 2.41 1.65 3.43 2.27a18.2 18.2 0 0 0 5.72 1.47 20.51 20.51 0 0 0 6.29-.79c2.19-.62 6.42-3.67 7-3.78s.34 1.18 1.05 1c.29-.06.25-1.18 0-1.62a1.08 1.08 0 0 0-.82-.46zM155 86.4s-1.18.29-1.57.44a12.31 12.31 0 0 1-3.92.87 28.35 28.35 0 0 1-5.91-.65c-1.32-.22-1.35.26-.88.51a15.1 15.1 0 0 0 4.61 1.61 17.64 17.64 0 0 0 4.06-.22 19 19 0 0 0 3.62-1.9c.86-.51-.01-.66-.01-.66zM200.88 124.78a4.82 4.82 0 0 0-.24 2.69 112.69 112.69 0 0 1 .12 12.67c-.28 4.35-1.07 7.1-.49 7.53s1.62-3.37 1.84-5.39.55-11.05-.18-14.45-.68-3.42-1.05-3.05z" fill="#692f23"/><path d="M222.37 219.55c-.18-1.26-.92-11.36-1.22-14.08s-1-9.92-1.41-11.75-.86-6.86-1.84-10.84-2.91-5.69-3.12-6.61 1.13-1.84 1.29-3.37-.64-5.72-1.35-9.43a54.19 54.19 0 0 0-2.94-10c-.58-1-.06-2.94-.8-7.65s-1.32-5.33-3.92-15.18-4.65-13.16-4.65-13.16-1.59-3.67-7.84-5.82-8.94-2.36-9.55-2.39-3.92-.73-6.06-1.29-4.07-2.48-4.71-3-1.47-3.67-2.33-5.14-3.4-5.48-5.88-5.75a8.07 8.07 0 0 0-2 0 72 72 0 0 0 6.59-9.49c4.28-7.25 5.08-10.7 5.9-13.55.56-2 2.62.29 4.19-3.93 1-2.69 1.37-6.91 1.59-8.08s1.15-3.33 1.37-4.41a7.56 7.56 0 0 0 0-4A2.38 2.38 0 0 0 182 49c.6-.88.66-7.35.33-10s-.71-11.24-4.77-18.53A18 18 0 0 0 174 16c-.61-.53-1.14-.8-1.62-1.18-.77-.61-.63-.87-1.26-1.21a8.13 8.13 0 0 0-1.94-.66c-.68-.28.59-.77.13-1.16a6.22 6.22 0 0 0-3.56-.24 4.79 4.79 0 0 0-1.77.67s-.16.14-.49-.38a7.61 7.61 0 0 0-3.14-2.58c-.93-.52-2.51-.53-3.59-.83s-1.57-1-3.07-1.31c-.68-.15-1.92-.14-2.68-.26a47.68 47.68 0 0 0-10.45-.5c-7.84.44-16.9 5.2-20.74 8.81-3.11 2.92-5.47 5.29-8.6 13.4s-3.29 14.26-2.36 18.37l2 8.71c-.5.31-2 .72-2.47 2.37-.49 1.81 1 6.08 1.16 6.4.33.91 3 6.16 3 6.16a7.49 7.49 0 0 0 1.62 2.61c.88.66 2.61.82 3.76 2.45.93.9 1.48 2.44 2.69 4.85a60.67 60.67 0 0 0 5 8.44 26.2 26.2 0 0 0 3.94 3.9.91.91 0 0 0-.05.25 1.75 1.75 0 0 1-1 1.41l-.45.31c-.45.31-1.24.29-1.59.45a14.51 14.51 0 0 0-2.1 1.73 7.07 7.07 0 0 0-1.82 2.39c-.29.59-2.69 5.78-3.14 6.45a8.52 8.52 0 0 1-3.41 1.88 41 41 0 0 0-4.69 2c-.69.41-3.22 1.8-3.22 1.8s-2.05.68-5.51 2.24-5.33 1.56-7.71 3.55-4.16 3.55-6.61 8.88-6.26 15.57-7.19 21.14-1.29 15.4-1.65 19.84-2.3 17-2 21.43a75.9 75.9 0 0 0 1 8.82c.4 2-.24 4.41.12 7.29s-.12 6 .12 7.41-.31 6.06.31 7.16a12.45 12.45 0 0 0 3.12 3.43c1.5 1.22 4.81 2.85 7.16 4.9a97.49 97.49 0 0 0 10 7.35c2.88 1.78 6.33 3.1 18.49 5.59s34.08 3.55 41.88 3.18 24.79-2.71 30.38-4.59a49.22 49.22 0 0 0 9.82-4.63 45.57 45.57 0 0 0 4.78-2.14c4.35-1.81 14.69-8.54 16.71-10s1.06-2.8 1.06-2.8zM164.76 96a5.94 5.94 0 0 1 4.78 3.12c1.78 2.75 3.09 7.13 3.73 8.57s1.65 2.54 1.16 5.08c-.45 2.34-4.53 10.45-5.16 11.69a.41.41 0 0 0-.08.16c-.33 1-1.57 3-2 3s-.69-.45-.94-.9-3.75-6.55-4.37-7.31a15.91 15.91 0 0 1-2-3.47c-.18-.67 1-1.27 1-1.27a9.57 9.57 0 0 0 2.61-2.78 7.7 7.7 0 0 0 1.55-3.84c.14-1-.31-1.86-.33-.86a4.43 4.43 0 0 1-.69 2.12c-.22.43-.41.29-.45-.53a37.29 37.29 0 0 0-.57-4.94c-.37-1.76.08-6.67.08-7.31a1.65 1.65 0 0 1 1.68-.53zm-13.45 24.84c0 .53.79 5.62.79 5.62a2.2 2.2 0 0 1-.55 2.13c-.33.42-2.49 3.78-2.86 3.35a66.69 66.69 0 0 1-3.84-7.14 8.79 8.79 0 0 0-.9-2.69c-.37-.33-1-.2-2.29-.49a19 19 0 0 1-7.35-3.55c-2.65-2.22-4.84-6.88-4.94-7.22s.92-2.86 1.27-6.24.17-10.78.17-10.78A10.84 10.84 0 0 0 132.5 95c1.28.88 2.63 1.79 3.74 2.48a24.3 24.3 0 0 0 14.59 3.34 18.06 18.06 0 0 0 9.27-3.29l1.47-1.13a54.15 54.15 0 0 0-.66 6.38 27.83 27.83 0 0 0 .9 4.69 6.82 6.82 0 0 1-.57 3.84c-.22.8-2.8 3.65-4.82 5.1s-3.69 2.37-4.49 2.9a1.32 1.32 0 0 0-.62 1.53zm-7.31 7.47c-.55.2-.9.39-3.35.16-2.22-.2-5.89-1.63-7.33-2.13 1.15-2.56 2.16-4.77 2.39-5.13a8 8 0 0 0 1.68.81c2.69.9 4.49.65 5.06 1.06s.84 2.16 1.18 3.31.93 1.72.37 1.92zm38.4-75.76a5.21 5.21 0 0 1-.66 3.51c-.55 1-1.62 7.55-1.89 8.74s-1.1 3.24-2.11 3.32c-.42 0-.82-.33-.82-1.37a44.53 44.53 0 0 1 .82-4.83s.6-2.14.71-2.66.16-.35.55-1.12.27-1.75.44-3.24a25.82 25.82 0 0 1 .85-3.61c.71-1.4 1.82-1.06 2.12 1.26zm-20.11-37.62a6 6 0 0 1 1.87-1.86 8 8 0 0 1 3.92-.77c.88.22-1.09.83-.1 1.09a7.8 7.8 0 0 1 2.07.59 5.29 5.29 0 0 1 1 .76c.66.67 1.6 1.1 2.22 1.78a26.34 26.34 0 0 1 5.05 8.41c1.39 3.83 2.33 14 2.37 16.92v7a7 7 0 0 0-1.55 2.56c-.79 2-.77 7.28-1.36 6.2-1.84-3.37-2-9.24-2-9.24s.64.21.86.26c1.18.3 1-.19 1-.19a10.9 10.9 0 0 0-2.2-2.06c-1.65-1.26-5.16-3.16-8.51-5.24s-5-6.53-5.54-7.57-1.37-4-.55-3.18 4.71 2.61 6.05 3.19c2.41 1 2.68 1.16 3.11 1.89s1.92 2.44 2.41 2.44.11-.6-.27-1.21-1.48-2.58-2.52-3.18-5-1.92-7-3.18a4.16 4.16 0 0 1-1.7-4.34 2.38 2.38 0 0 1 3.08-1.71 23.77 23.77 0 0 1 6.57 3.34c.6.45 1.07.53.54-.06a18.41 18.41 0 0 0-4.6-3.57c-3.13-1.5-4-.9-4.5-1.75a3.47 3.47 0 0 1-.22-1.86 7.38 7.38 0 0 1 .49-1.54c.28-.85-.28-3.31.01-3.92zM110.4 42.29a25.46 25.46 0 0 1 .5-4.08c.68-2.77 1-3 4.24-8.24.37-.6 1.3-1.76 1-1.73a24.58 24.58 0 0 0-5.26 7c.46-3.52 3.57-11 5.75-13.78s8.52-9.79 17.74-12.15a44.72 44.72 0 0 1 17.28-1.44c1.59.14 2.28.85 3.48 1.13a16.13 16.13 0 0 1 4 1.26c2.35 1.32 3 2.74 3 3.29-.05.82-.66.71-.88 1.32s.16 2.41 0 3.34-.93.71-3-.38a16.25 16.25 0 0 0-7.68-1.92c-2.63.11-1.43.66-1.26.6s2 0 2 0c2.85.27 8.61 3.67 9 4.66a7.59 7.59 0 0 1-1.69 7c-2.35 2.74-8.62 5.92-15.64 7.13s-16.67-.77-17.82-.82a6 6 0 0 0-3.51.55c-.59.3-1.81 1.37-4.28 3s-1.14 1.3-.32 1 3.77-2.4 5-2.89 3-.27 5.29.33 13.14 1 17.52.05A35.25 35.25 0 0 0 156 31.66c2.67-2 2.62-.71 2.62-.71.31 3.48-4.16 6.6-5.43 7.51a33.72 33.72 0 0 1-12.13 4.45c-5.85 1.09-8.76 1.58-11.06 1.61a16 16 0 0 1-5.86-.7c-.91-.16-1.58-.23-.8.19a8.79 8.79 0 0 0 3.66 1.24c-.47.64-1.46.92-3.08 1.31a17.7 17.7 0 0 1-9.62-.27c-.8-.29-1.47-.91-1.34-.46.21.71 2 1.8 2 1.8-.57.64-.94 9.47-.94 9.47s-.58-1.72-1.82-1.88c0 0-.6-2.63-1.37-6.08a32.92 32.92 0 0 1-.43-6.85zm6.16 30.33c-1 0-1.72-.62-2.6-2.4-.51-1-3.19-6.24-3.49-6.95a11.31 11.31 0 0 1-.84-5 1.66 1.66 0 0 1 1.57-1.06c1.08.11 1.59 1 1.87 1.94S116 69.55 116.28 70s.83 2.6.27 2.62zm.54-5.75s-.48 1.26-1.08-1.27a39.7 39.7 0 0 1-1.21-6.54c.07-.85.51-1.11.55-2.17s.27-7.07.49-8.12.44-1.1 1.81-.82 1.15 1 1.15 1a16.78 16.78 0 0 0-.49 2.62c-.22 1.74-.6 8.84-.49 9.77a44.68 44.68 0 0 1-.74 5.52zm9.57 20.84c-3.07-4.06-7.09-12.22-7.09-12.22a32.13 32.13 0 0 1-1.58-6.73 21.2 21.2 0 0 1 .41-3.44c.16-1.48.6-8.44.77-9.87s1.11-6.9 1.11-6.9c1.75.16 10.68-2.31 15.56-2.86s9.49-2.08 15.74-5.21 7.73-6.42 7.73-6.42c1.81 5.21 7.13 8.78 9.16 9.93s6.42 3.84 6.53 4.06a48.21 48.21 0 0 0 .27 5.3 13.07 13.07 0 0 0 2 5.82 26.94 26.94 0 0 1-.56 2.76s-1.15 6.2-1.86 9.71-5 11.24-5.32 11.9a75.69 75.69 0 0 1-5.61 8.56c-2.95 3.93-9.31 6.57-12.6 7a23.07 23.07 0 0 1-7.79-.37 53.28 53.28 0 0 1-8.15-3.48 32.51 32.51 0 0 1-8.73-7.55zM121.19 107c.76-1.37 3.29-7.18 3.55-7.88a7.15 7.15 0 0 1 2.49-2.78c1.12-.67 1.51-.33 2 .2s.2 3.1.29 4.86-.82 3.24-.9 4.33.08 4.16-.57 3.47-.61-2.9-1-2.69-.55 1.31 0 3.35a16.84 16.84 0 0 0 3.59 6.61 46.23 46.23 0 0 0 3.46 3.53 2.13 2.13 0 0 1-.13 1c-.28.7-4.84 11.39-4.84 11.39s-.46 1-1.35-1-7.24-16.55-7.24-16.55c-.24-.69-.18-2.63-.45-3.84s.35-2.63 1.1-4zm-15.26 127.61c-.83.83-1.81.34-4.41-1a31.51 31.51 0 0 1-8.52-6.16c-2.33-2.57-5.91-3.24-8.57-5.51s-3.61-3.49-3.73-5.39-.7-13.9-.67-16a13.35 13.35 0 0 1 1.16-5.69c1.07-3 2.05-5 1.41-4.9s-2.08 2.36-2.2 3.18-.46-5.57-.24-9.37.89-6.31 1-8.39.37-9 1-14.75 1.53-15.8 4.16-22.1 2.51-8.42 3.86-10.84 2.33-4.65 2.94-6 5.14-4.65 8.14-5.69a87.19 87.19 0 0 0 9-3.63c1.49-.78 4.14-2.2 5.1-2.69s2.71-1.14 2.57-.73a9.8 9.8 0 0 0 0 3.14 17.27 17.27 0 0 0 1 3 3.23 3.23 0 0 0 .29.7s8.09 18.06 8.49 18.92 1.26.92 1.65.31c.21-.32 1.85-4 3.42-7.48a23.43 23.43 0 0 0 4.64 1.72c1.92.36 5.12.55 6.73.69s2.18 1.22 3 2.73 3.14 6.49 3.14 6.49 1.14 4.78 1.51 7.35a44.42 44.42 0 0 1 .49 6.92 24.7 24.7 0 0 0 .24 6.12c.49 2.36 1 11.05 1.1 14.33s.06 11.82 0 14.88a65.25 65.25 0 0 0 .18 8.75c.31 2 1.53 7.41 1.9 11.75s1.44 13 .8 15.06-1.59 2.11-3.12 2.51-6.24.15-9.8-.37l-11.75-1.71s-8-1-11.51-1.84-7.56-2-8.33-2.69-1.78-3.46-2.45-5-.8-1.9-1.1-6.67.09-13-.24-16.84-.86-15.46-.67-17.94.31-10.19-.18-12.49a32 32 0 0 1-.06-6.92s0-5.75-1.29-8.51-2-2.69-1.35-.49 1.32 5.05.67 6.37-1.74-2.66-2.45-2.39-.12 2.27 1 4.47 2 7.16 2 10.35a37.84 37.84 0 0 1-1 8.14 3.86 3.86 0 0 1-.92 1.9s-1.13-6.8-1.9-8.51-1.47-2-1.29-.24.83 7.59 1.47 15.37 1.26 19.38 1.59 23.2 0 13.1.8 16.35a66.3 66.3 0 0 1 1.65 8.45c.17 2.32.47 4.96-.35 5.78zm51.3-6.55a103.65 103.65 0 0 0 20.33-3.43c6.73-1.87 11.51-3.95 12.61-5s2.57-3 3.31-2.69.92 1.1.31 2.45-5.08 4.9-5.08 4.9a2.2 2.2 0 0 0-.29.18 32.25 32.25 0 0 1-8.77 3.67 89.75 89.75 0 0 1-21.12 2.94c-17.75.4-27.58-1.1-35.45-2.51s-12-3-11.94-4.59a5.12 5.12 0 0 0 0-.62 1 1 0 0 1 1.18-1c1.5.09 10.84 2.08 10.84 2.08 3 .58 12.12 1.84 16.16 2.45a110.09 110.09 0 0 0 17.91 1.17zm-50.08-5c-.61-3.49-1.35-5.82-1.41-6.67s-.12-2.88-.12-5.88-1.06-12.72-.95-15.55c.15-3.77 0-8.42 0-9.43s.05-4.8.05-4.8.38-.29.59 1.55 1 9.18 1 9.18c.4 3.49.73 14.17.8 17s-.09 3.58.49 5.14a25 25 0 0 1 1.47 4.78 24.09 24.09 0 0 1 .12 3.61 12.51 12.51 0 0 1-1.1 4s-.33.54-.94-2.99zm87.22 12.33c-2.73 1.18-6.9 2.61-15.63 4.29a157.13 157.13 0 0 1-46 .86c-17.15-2.19-22.65-5-22.65-5s-1.22-.18-1.41-2.08a20.26 20.26 0 0 1 1.29-6.61c.31-.55 1.1.34 2.51.92.11 0 6.85 1.87 10.1 2.45a167.14 167.14 0 0 0 26.94 2.57c8.3.18 15.3.33 27.79-2.27a47.24 47.24 0 0 0 13.22-5.33l3.18-2.08s1.19-1 1.9.18l.7 1.19s1 4.83 1.32 6.62-.52 3.08-3.26 4.27zm5.22-3.27l-.92.12-.86-8.94a15 15 0 0 0-.73-1.78c-.49-1-1.13-1.26-1.1-2.63s-.95-2.57-1.29-3.8a13.59 13.59 0 0 1 .12-5.2c.34-1.35-.09-5.3-.55-7.53s-.58-6.8-.73-8.33 0-7.32-.18-9.73.29-2.19.58-.64 1.29 8 1.62 9.46a33.42 33.42 0 0 1 .8 6.8 86.65 86.65 0 0 0 1.1 13.65c.92 5.36 2.54 15.7 2.69 17.2s-.54 1.33-.54 1.33zm20.51-18.92c-.12 1.9-.21 5.88-.67 7.1s-2.79 2.88-4.41 3.92-9 4.87-10 5.33-2.39 1.32-2.82.49-2.88-14.78-3.73-19.28-.64-15.67-.55-17.45.67-2 .24-2-1.1.8-1.1.8-.83-3.06-.49-2.63 3 1.35 4.53 1.78 3.49.95 3.43.43-2.27-1.35-4.65-2.82-3.55-4-4.41-7.53-.67-10.77-.61-13.9 1.38-6.15 2-7.9.77-2.94.49-3.37-1 1.71-1.9 4.22-1.22 2.39-1.65 2.3-.31-3.15-.31-3.15c.18-2.69 1-8.51 1.35-11.39s0-3.67-.31-3.8-.34.52-.49 1.47-.58 4.19-.92 1.1-1.35-5.57-1.71-5.51-.37 1.22 0 3.8.24 8.08.31 10.35-.18 9.37-.24 11.63.09 4.59.09 4.59l-.09 1.22s.09 10.81.24 13.71a74.58 74.58 0 0 0 .73 7.53c.31 1.87-.09 9 .18 10.9s1.29 6.21-.24 9.24-5.85 6.06-9.24 7.41-16.84 4.41-25.28 4.47c0 0-.37.28-.06-1.35s0-6.52-.06-8.88-.06-8.3-1.1-12.31-1.71-6.52-1.53-8.33-.21-9.52 0-13.9a94.52 94.52 0 0 0-.31-14.45s-1.13-8.85-1.16-11.63-.28-13.32-2.27-18.43a6.72 6.72 0 0 1-.73-2.9c0-1.27 4.69-6 5.51-7.22s3.92-3.53 4.2-4.29 0-.71-.49-.53a19.43 19.43 0 0 0-3.43 3c-.51.65-2 1.52-2.32.91a36.87 36.87 0 0 1-.77-4 1.51 1.51 0 0 1 .31-1.11s3.45-2.86 3.88-3.06.84.14 1.84 1.18S166.5 131 167 131a1.26 1.26 0 0 0 1-1 30.36 30.36 0 0 1 1.47-3 36.84 36.84 0 0 0 2.39-3.41c.61-1.13 3.28-5.94 3.37-7.47s1.44-4.29 1-6 .58-1.47 1.16-1.29a16.68 16.68 0 0 0 3.18 1c1.38.21 3.37.31 5.51.8a77 77 0 0 1 11.08 4.65c.89.6 2.44 1 3.41 2a6.66 6.66 0 0 0 .45.53 1.76 1.76 0 0 0 .28.34c1.9 2.54 2.89 8.82 3.95 12.21 1.1 3.55 3.52 11.08 3.92 13.59a68.81 68.81 0 0 1 .43 8c0 .77.86 2.27 1.9 4.9a61.88 61.88 0 0 1 1.9 7.53c.31 1 1.13 7.81 1.16 8.26a4.44 4.44 0 0 1-.61 1.84c-.34.67-1.13 2.3 0 3.37s1.74 3.37 2.14 4.71 1.35 5.14 1.35 5.14c-1.26-1.29-2.2-.52-3.49-.73s-2.27 1.07-1.41.86 2.72.61 3.8 1.59 1.1 3.09 1.84 6.49a145.59 145.59 0 0 1 1.93 17.28z" fill="#692f23"/><path d="M92.95 192.86c-3-.06-4.65-.67-7.65 2.57a10.92 10.92 0 0 1 5.75-1c3.4.31 4.56.55 5-.06s-.05-1.45-3.1-1.51zM89.07 145.25a21.57 21.57 0 0 1 1.06-7.75c1.11-3.61 3.55-6.61 3.35-6.94s-1-.08-3.1 2.94a14 14 0 0 0-2.82 7.22 23 23 0 0 0 .29 5.51c.32 1.43 1.24.56 1.22-.98zM180.31 150a94.07 94.07 0 0 1-11.08.12c-4.9-.34-5.82-1-5.82-1s-.77-.06-.73 1.59v4.54l.18 12.42s.06 3.15 1 3.92 3.92 1.1 7.9 1.16 7-.43 8.08-.92 1.19-1.26 1.29-3.37.12-17.45.12-17.45a.85.85 0 0 0-.94-1.01zm-1.9 20.82c-2 .64-11.05.7-12.37.43s-1.78-.89-2-3-.31-11.45-.31-11.45-.09-1.1 1.65-1c1.4.08 11.73.64 12.7.56s1.87-.18 2 1.22.12 11.2.12 11.2.23 1.4-1.79 2.04zm.55-15.55c-1.38.15-12.37-.43-12.37-.43s-1.87 0-2.51-.67a2.67 2.67 0 0 1-.18-2.75c.21-.34.73-.37 2-.18s4.9.52 7 .55 6.24-.15 6.8-.18.61.31.61 1.1-.06 1.71-.06 1.71.09.7-1.25.85zM140.32 124.63a1.52 1.52 0 1 0 1.7 1.51 1.61 1.61 0 0 0-1.7-1.51zm0 2.44a.93.93 0 1 1 1-.93 1 1 0 0 1-.97.93zM146.53 139.71a1.64 1.64 0 1 0-1.7-1.63 1.67 1.67 0 0 0 1.7 1.63zm0-2.63a1 1 0 1 1-1 1 1 1 0 0 1 1.03-1zM146.18 153a1.7 1.7 0 1 0 1.7-1.63 1.67 1.67 0 0 0-1.7 1.63zm2.77 0a1 1 0 1 1-1-1 1 1 0 0 1 1.05 1zM148.29 166.59a1.64 1.64 0 1 0 1.7 1.63 1.67 1.67 0 0 0-1.7-1.63zm0 2.63a1 1 0 1 1 1-1 1 1 0 0 1-.97 1zM147.2 181.65a1.7 1.7 0 1 0 1.7-1.63 1.67 1.67 0 0 0-1.7 1.63zm2.77 0a1 1 0 1 1-1-1 1 1 0 0 1 1.03 1zM149 195.44a1.64 1.64 0 1 0 1.7 1.63 1.67 1.67 0 0 0-1.7-1.63zm0 2.63a1 1 0 1 1 1-1 1 1 0 0 1-.95 1.01zM148.71 212.71a1.7 1.7 0 1 0 1.7-1.63 1.67 1.67 0 0 0-1.7 1.63zm2.77 0a1 1 0 1 1-1-1 1 1 0 0 1 1 1z" fill="#692f23"/></g></svg>