<svg xmlns="http://www.w3.org/2000/svg" width="95" height="114.95" viewBox="0 0 95 114.95"><title>Менеджер_1</title><g data-name="Слой 1"><path d="M28 63.07c-.27 0-.81 3.17-.86 4.67s1.34 2.15 2.36 2.69 6.18 2.58 7 4 .91 4.14.64 4.14a5 5 0 0 1-2.63.16c-1.29-.38-9.35-.59-11-1.56s-8.22-4.94-9.78-6.72a69.17 69.17 0 0 0-7.63-6.82S3 58.5 2.14 53.88a65.27 65.27 0 0 1-.91-15.63 35.54 35.54 0 0 1 3.55-13c2.31-4.46 8.43-10.48 11.07-12.52S26.9 7.19 28.68 5.91s9.56-4.19 10.64-4.35S48 .37 49.57.32 60 .69 63.7 2.47s5.86 3 6.5 3.06 7 2.79 8.7 4.89 6.82 10.21 6.82 10.21.86.16 2.79 2.2 4.67 8.54 5.37 13.59.75 14-1 18.53a61.92 61.92 0 0 1-7.41 12.41c-1.13 1.29-4.46 4.83-6.82 6.12S73.8 76.5 72 77s-5.64 1.5-6.18 1.13a5.81 5.81 0 0 1-1.45-2.42 3.34 3.34 0 0 1 1-1.56C65.58 74 79 66.88 82.51 60.06A43.74 43.74 0 0 0 87 44.64c.16-1.72-3-11-3-11s-2.31-.05-3.65.05-6.29.43-6.29.43.75-.86-.05-3.33-3.44-7-6.34-9.08l-1.61-.54a28.22 28.22 0 0 1 .05 7.2c-.54 2.9-1.07 4.35-1.24 4.35s-4.62.11-4.78.05-4.51.05-4.67 0-3.65 1.18-6.29 1.93a33 33 0 0 1-9.83 1.45c-3.64-.15-5.3-.32-5.3-.32s-3.82 3.92-4 3.92a1 1 0 0 0-.89 1.25c.32 1 3.92 5.91 4.3 7.57s.64 6.72-.11 8.6-5 5.9-5.3 5.9z" fill="#e09c51"/><path d="M40 1.61s-9.85 2.86-13.44 5.73-8.45 8.81-9.38 12.66S15 30 15.32 33.27a37.94 37.94 0 0 0 1.58 6.8 1.58 1.58 0 0 1 0 1.58 8.43 8.43 0 0 0-2.29 7.16c.64 4.23 2.22 9.38 5.09 12a8.61 8.61 0 0 0 8 1.65 4.77 4.77 0 0 0 2.65-3.08 23.09 23.09 0 0 0 .07-6.73 29.17 29.17 0 0 0-2.87-8 22.85 22.85 0 0 0-4.87-5.16 2.13 2.13 0 0 0-1.72-.5s-.64-6.73-.72-8.67a34.73 34.73 0 0 1 2.15-10.74c1.29-2.87 2.72-8.17 7.31-11.46A54.41 54.41 0 0 1 40.68 2c1-.32-.68-.39-.68-.39z" fill="#e2ddd3"/><path d="M67 22.13s-.81 8-1.45 9.29-2.15 1.29-2.85 1.34-6 .05-6 .05l.16-1.29s-5.94 2.86-7.77 3.48a30.46 30.46 0 0 1-6.66 1.34 23.79 23.79 0 0 1-5.43-.03 23.92 23.92 0 0 0-3.12-.21 6.11 6.11 0 0 1-2.1 2.42 13.77 13.77 0 0 0-2.63 2.26s-.21.75 1 2.31a14.27 14.27 0 0 1 3.44 8.22s.32 4.41-.27 5.91a8.93 8.93 0 0 1-2.2 3.55c-.86.7-3.38.86-3.65 2.9s-.59 4.08.38 5.26 7.36 4 9.67 4.83 10.37 3.17 17.41 2.58 14-3.22 18-6.88 8.76-7.57 10.53-11.12 3.92-11.5 3.76-13.43-3.06-10.85-3.06-10.85-5.37-.16-6.12-.16-3.44.11-3.44.11a5.47 5.47 0 0 0 0-3.22c-.6-1.3-3.27-7.53-7.6-8.66z" fill="#f9e5cc"/><path d="M61.52 3.22S60.16 2 53 2.15a50.24 50.24 0 0 0-15.11 3c-1.43.5-8.45 3.94-10.46 7.31a45.77 45.77 0 0 0-5.66 15.19 26 26 0 0 0 1.07 10.89s4.94.07 7.81 5.73 3.44 8.17 3.15 10.6a11.25 11.25 0 0 1-1.93 4.66s-.14.57 2.08 2.58S39 66.75 43 68l2.44.43a2.62 2.62 0 0 1 .68-1.43 13.31 13.31 0 0 1 6.16-1c1.72.36 2.36.14 3.29.64s2.08 1.43 2 2.58A7 7 0 0 1 56 72.7a11.28 11.28 0 0 1-5.66 1c-1.65-.36-3.87-.64-4.23-1.36s-.79-1.93-.79-1.93-1.07-.21-1.72-.29A49 49 0 0 1 35.37 66a40.87 40.87 0 0 1-4.8-4.8l-1.72-.07a7 7 0 0 0 1.58-3.87c.07-2.15.07-6.23-1.43-9.38S25.63 42 24 41l-3.29-2.15a41.61 41.61 0 0 1-.71-8.7 40.2 40.2 0 0 1 1.93-10.74 31.77 31.77 0 0 1 5.92-10.17c1.79-1.72 7.59-5 7.59-5 2.29-1 5.44-2.44 7-2.94s9.1-1 12-.79 7.66 1 9 1.72-1.92.99-1.92.99z" fill="#c7c0b1"/><path d="M19.49 43.19c-.16 0-1.88.64-2.2 3.87-.43 4.33 1.18 9.56 3 11.17a4.11 4.11 0 0 0 5.1.43 5.26 5.26 0 0 0 1.83-4.78c-.32-2.31-.54-5.32-1.77-7.31s-3.27-4.13-5.96-3.38z" fill="#c7c0b1"/><path d="M1.65 36a46.44 46.44 0 0 1 6.72-10.7 35.62 35.62 0 0 1 9.19-7.52c1-.59 4.24-6.18 4.41-6.23s1.88-1.93 1.61-2.31-6.45 2.85-8.43 4.41-8 8.22-8.81 9.72-3.81 6-4.3 8.92A16.42 16.42 0 0 0 1.65 36zM15 25s1.34-2 .7-2.36-5.37 4.14-5.8 4.73-2.2 5.32-2.36 5.43a50.13 50.13 0 0 0-3.55 5c-.43.91-2.69 8.33-2.63 11.07s1.13 8.11 1.88 9.29 1.61 2.79 1.61 2.79a48.27 48.27 0 0 1-.64-8.33c.16-3.55 2.26-7.25 3.28-8 0 0 2.26 4.08 2.47 4.41s1 3.17 1.13 3.33.86 3.38 1 3.87.7 1.61.7 1.61a21.49 21.49 0 0 0-.43-7.47c-1-3.49-1.77-7.15-1.29-9.46 0 0 .21-3 .21-4.19a33.28 33.28 0 0 1 2.31-8.11A23.86 23.86 0 0 0 15 25zM45.49 3s-5.86 1.83-8.22 2.58a23.47 23.47 0 0 0-8.17 5 32.84 32.84 0 0 0-4.46 6.82c-.38.86.11 1.77 1.45 1.83s6-4 7.74-6.39a17.19 17.19 0 0 0-3 10.21c.27 5.91 2.36 10.69 3.33 11.82s-2.16-4.74-1.4-10.75 2.36-8.7 6.23-9.62 5.37.81 5.64 1.34c0 0-.16-1.93 4-3.76s4.51-.81 6.45-2 2.2-3.87 2.74-4.67A3.94 3.94 0 0 1 60 4.08a1.67 1.67 0 0 1 1.18.05 3.24 3.24 0 0 0-.7 2.9c.48 1.61 3.81 1 5.37 1s4.24.05 5.53 1.24a30.11 30.11 0 0 1 2.26 2.31s2 .11 6.23 5.26S86.7 27 87 29.27c0 0 1.07-.64.75-2.63s-3.06-7.79-4.62-10.1S77 8.48 74 6.87s-8.43-3.65-9.88-3.71-3.49-.05-3.65-.05a2.85 2.85 0 0 0-2.47-1C56 2.09 45.49 3 45.49 3z" fill="#e9b87f"/><path d="M47.41 47.77a6.48 6.48 0 0 1 1.9-2.29 13.23 13.23 0 0 1 5.95-1.58c2.4.07 3.19.39 3.55 1.5a10 10 0 0 1 .35 2.6s-.18-.14-1.25.18a22.65 22.65 0 0 1-3.15 1.15 14.16 14.16 0 0 1-4.58.11 7.86 7.86 0 0 1-2.77-1.67z" fill="#fffefe"/><path d="M49.45 46.41s.72 2.94 3.12 2.76 2.9-1.65 2.87-2.33-.57-2.47-1.61-2.76-3.99 0-4.38 2.33z" fill="#b8d2ea"/><path d="M54.27 45.93c.32-.05.56.14.66.56a9.59 9.59 0 0 0-.18-1.33.86.86 0 0 0-.54-.7 3.28 3.28 0 0 0-1.38-.23 6.76 6.76 0 0 0-2.47.81c-.25.38 1.38 1.36 1.38 1.36z" fill="#8d797d"/><path d="M72.78 47.84a3.31 3.31 0 0 1 1.09-2.2A15.51 15.51 0 0 1 78 43.56a3.75 3.75 0 0 1 3.24 1.2c.7.9 1.34 1.54.81 2.33s-.38 1.16-1.47 1.47-2 .5-2 .5a19.48 19.48 0 0 1-4.58-.84 10.06 10.06 0 0 1-1.22-.38z" fill="#fffefe"/><path d="M74.9 47.34a2.38 2.38 0 0 0 2.7 1.43c2.13-.25 2-2.79 1.84-3.12s-.32-1.83-1.61-1.84-2.83.63-3 1.38a4.12 4.12 0 0 0 .07 2.15z" fill="#bbd2e8"/><path d="M78.3 46.11a.3.3 0 0 1 .25-.36c.32-.09.49 0 .57.26s.39-.14.34-.36a3.44 3.44 0 0 0-.86-1.16c-.27-.16-.34-.5-1.13-.47a3.21 3.21 0 0 0-1.49.25c-.36.2-.66.3-.81.57a5.55 5.55 0 0 0-.39.66 33.44 33.44 0 0 0 3.52.61z" fill="#8e797c"/><path d="M83.72 92.33c-1.86-1.58-6.88-9-8.52-10.31s-5.66-3.8-6.73-3.87-4.15-.43-4.15-.43v-2.51l-1.79-.14s-8.88 2.15-11.89 1.86S37.45 74 37.45 74s-1.47-1.43-.88.47c0 0 .88 2.47.38 3.33s-6.09 3.35-6.95 3.93-4.73 2.94-6.52 4.37-4.3 2.51-6.23 9.53c-.86 3.12-1.6 6.43-2.2 9.54 5.14 2.44 10.4 5.16 16.1 6.26 3 .59 2.28 1.32 9.17 2.31a6.19 6.19 0 0 1 .74 0 5.57 5.57 0 0 1 2 .36h6.54a5.44 5.44 0 0 1 2.28.5c5.58-1 11.14-2.1 16.76-2.92h2c3.15-1.34 6.17-2.1 8.64-3.41 2.7-1.43 4.82-2.14 7-4.36a5.36 5.36 0 0 1 2.16-1.37 4.55 4.55 0 0 1 1.21-.79c-1.41-2.75-4.38-8.12-5.93-9.42z" fill="#fff"/><ellipse cx="50.47" cy="88.78" rx="3.52" ry="4.45" transform="rotate(-30 50.47 88.784)" fill="#fd8204"/><ellipse cx="43.8" cy="101.68" rx="3.52" ry="4.45" transform="rotate(-30 43.796 101.675)" fill="#fd8204"/><ellipse cx="22.24" cy="100.32" rx="4.45" ry="3.52" transform="rotate(-64.81 22.245 100.317)" fill="#fd8204"/><path d="M34.34 86.18c-1.44 2-3.88 2.69-5.45 1.55s-1.71-3-.28-5 3.44-2.08 5.48-2.21c1.57 1.13 1.68 3.67.25 5.66zM60.39 113.05a3.15 3.15 0 0 0-1.24-2.45c-1.58-1.14-4-.44-5.45 1.55a5.21 5.21 0 0 0-.94 2.28z" fill="#fd8204"/><ellipse cx="73.29" cy="85.44" rx="4.15" ry="3.52" transform="matrix(.58 -.81 .81 .58 -38.87 94.99)" fill="#fd8204"/><path d="M84.38 105.42a12 12 0 0 0 1.91-1.55 5.36 5.36 0 0 1 2.16-1.37 4.51 4.51 0 0 1 1.59-.93 5.5 5.5 0 0 0-.24-.55c-1.12-2.24-3.43-3.35-5.17-2.48s-2.24 3.38-1.13 5.62a5.48 5.48 0 0 0 .88 1.26z" fill="#fd8204"/><path d="M18.58 43.67s2.42-1.13 4.14.05 4.3 5.43 4.19 10-2.15 4.73-3 5.1-3 .27-3.6-.59a3.58 3.58 0 0 0 3.92 1.29c2.69-.64 3.38-3.06 3.55-4.73a13.61 13.61 0 0 0-.81-6.5c-1.07-3.33-3.76-5.53-5.32-5.86a3.77 3.77 0 0 0-3.07 1.24zM52 62.46s-1.18 0-.86-.86 2-1.15 3.33-.93 5.52 1.9 9 2.18a13.64 13.64 0 0 0 7.38-1.47c1.18-.64 2.51-1 3.33-.68a1.32 1.32 0 0 1 .64 1.65c-.14.32-.9-.54-1.72-.5S69 64 66.25 64.18a22.79 22.79 0 0 1-9.49-1.83c-2-1-2.47-1-3-.82s-.55.75-1.76.93zM60.66 65.54a20.51 20.51 0 0 0 4.62.54 7.59 7.59 0 0 0 2.9-.75.62.62 0 0 1 .61.14c.25.25-.72.86-1.22 1.11a8.3 8.3 0 0 1-3.51.64c-1.5-.07-3.65-.75-4.23-1.43s-.17-.9.83-.25zM64.42 55.72a4 4 0 0 0 3.44.93c2.15-.39 2-1.61 2-1.61a7.48 7.48 0 0 1-2.08.54 17.47 17.47 0 0 1-3.29-.43s-.68-.15-.07.57zM48.23 39.57a62.09 62.09 0 0 1 6.7-1.65c1.9-.21 4.3-.75 4.94-.72s.93-1.22-.18-1.36a13.82 13.82 0 0 0-6.95.9c-2.97 1.26-5.05 2.19-4.51 2.83zM79.1 36.49a7 7 0 0 0-3.65-.43c-.93.32-.54 1 .14 1.11a32.44 32.44 0 0 1 5.62 1.43c1.11.61 1.72 1 1.72 1s.68.25 0-.57a10.76 10.76 0 0 0-3.83-2.54zM59.76 46.52a7.16 7.16 0 0 0-1.16-2.23 3.13 3.13 0 0 0-2-1 12.12 12.12 0 0 0-6.23 1.07 7.75 7.75 0 0 0-4 4.11c.16.4 2.93 1.13 2.93 1.13l.35.05A17.05 17.05 0 0 0 53 50a12.32 12.32 0 0 0 4.38-1.26.24.24 0 0 0 .21 0A3.66 3.66 0 0 1 59 48.7c.51 0 .89-.13.91-.56a6.62 6.62 0 0 0-.15-1.62zM58 47.78a5 5 0 0 0-.86.32s-.83.35-1.37.54-5 .78-6 .19a.72.72 0 0 0-.4-.15c-1.07-.4-1.48-.7-1.45-1a3.92 3.92 0 0 1 1.42-1.88c.91-.81 2.44-1 4.89-1.26s3.33.4 3.81.78.64 2.52.64 2.52a2.27 2.27 0 0 0-.68-.06z" fill="#692f23"/><path d="M49.31 45.77a4.1 4.1 0 0 0-.07 1.81 2.71 2.71 0 0 0 1 1.47 13.54 13.54 0 0 0 4 .07 2.27 2.27 0 0 0 1.4-1.72 4.93 4.93 0 0 0-.05-2 2 2 0 0 0-.77-1 6 6 0 0 0-1.84.14c-.38.05.57 0 .9.18a2.65 2.65 0 0 1 1 2 2.27 2.27 0 0 1-1.11 2 3.34 3.34 0 0 1-2.1.14 2.29 2.29 0 0 1-1.54-1.27 2 2 0 0 1 .3-2.31 3.23 3.23 0 0 1 .93-.48c.38-.05-1.34.07-1.34.07a3.8 3.8 0 0 0-.71.9z" fill="#692f23"/><path d="M51 46.81a1.43 1.43 0 0 0 1.72 1.29c1.63-.16 1.2-2 1.2-2a1.47 1.47 0 0 0-1.56-1A1.56 1.56 0 0 0 51 46.81z" fill="#692f23"/><circle cx="50.94" cy="45.92" r=".85" fill="#fff"/><path d="M82.73 46.82a4.32 4.32 0 0 0-2.61-3.38 7.46 7.46 0 0 0-5.77 1.36 9 9 0 0 0-2.41 3.1.39.39 0 0 0 0 .26s0 .39.32.43 1.11-.21 1.52-.07a17.32 17.32 0 0 0 2.36.91 13 13 0 0 0 3.1-.05 6.18 6.18 0 0 0 2.38-1c.23-.14.84-.75 1-.86s.11-.7.11-.7zm-9.28 1a.37.37 0 0 1-.21-.36 2.18 2.18 0 0 1 0-.34 3.57 3.57 0 0 1 .64-1.24 3.84 3.84 0 0 1 .47-.5 2.39 2.39 0 0 0-.21 1.18 2.67 2.67 0 0 0 .6 1.44c-.51-.11-1.1-.07-1.29-.14zm2.94.48c-1.15-.16-1.48-1.23-1.49-2.22 0-1.38 1.38-1.73 1.81-1.81h.22a2.16 2.16 0 0 1 1.73.54 2.37 2.37 0 0 1 .16 2.63c-.41 1-1.29 1.07-2.43.91zm5.14-1.07c-.09.41-1.12 1.37-2.9 1.62a2.93 2.93 0 0 0 1.13-2.14 3.63 3.63 0 0 0-.49-2.33l.15.05a3.44 3.44 0 0 1 1.4.93 2.27 2.27 0 0 1 .71 1.91z" fill="#692f23"/><path d="M76.23 45.32a1.25 1.25 0 0 1 .8-.22 1.17 1.17 0 0 1 1.27 1.14c0 .81-.44 1.35-1.09 1.37a1.26 1.26 0 0 1-1.46-1.13s-.03-1.03.48-1.16z" fill="#692f23"/><circle cx="75.63" cy="45.77" r=".68" fill="#fff"/><path d="M39 111.58c0 .48.1 1.07.11 1.55a10.69 10.69 0 0 1 1.22.6h.32a9.71 9.71 0 0 0-.28-2.64c-.35-1.29-1.4-3-1.5-4.62s.24-3.49.13-4.67-.48-2.23-.75-2.15.24 2.82-.3 3.22-1.8-2.36-2.18-2.42-.4.4-.19.91 1.91 4.59 2.2 5.75 1.13 3.58 1.22 4.47zM78.21 104.73c0 .31.25 1.58.53 3.2l1.07-.36-.2-1.26-1.56-9s-.51-2.82-1.29-2.58.43 2.71.75 4.67c0-.02.56 4.36.7 5.33z" fill="#692f23"/><path d="M94.93 40.22c-.25-2.11-.86-8.24-2.58-11.82s-4.83-8.13-6.16-9.24-3.12-3.69-5.44-6.88-6.91-6.52-8.27-6.84c-1.14-.27-4-1.33-4.87-1.68A30.19 30.19 0 0 0 60.38.91C55.58-.42 47.63 0 44.08.41A47.17 47.17 0 0 0 32.3 3.52c-.54.24-1.16.56-1.83.92-2.58 1.22-9.07 4.34-13.07 6.68C12.31 14.09 6.83 20.25 4 25.55A35 35 0 0 0 0 39.7c-.21 3.72.07 9.81 1.25 13.72s2 7.51 4.75 10.74a37.29 37.29 0 0 0 5.3 5.52c.61.36 1.58.86 1.58.86s6 5.26 9.43 6.66 4.46 1.5 5.59 1.45a23.5 23.5 0 0 1 3 .32 16 16 0 0 1 1.77.21h.13c-.25.26-.63.62-.83.77a28.3 28.3 0 0 1-7.2 4.14 13.25 13.25 0 0 0-6.31 5.35c-.51.78-3 10.13-3.33 12.06-.11.73-.38 2-.69 3.33l1.13.54c.49-2.67 1.13-5.91 1.79-8.33a22.44 22.44 0 0 1 5.29-10c1.88-1.83 4.3-2 6.12-2.12s6.5-.13 6.85-.05.81-.27-.11-.67a20.22 20.22 0 0 0-4.89-.56c-.43.05-1.21.11-1.21-.27s.46-.7.46-.7L32.8 81l2.71-1.13a4.36 4.36 0 0 1 2.65-.68c1.47.14 4.87 1.75 6.37 2s5.52.18 6.77.61a4.11 4.11 0 0 1 2.15 1.58s5.87 8.63 6.91 13.65a27.15 27.15 0 0 1 .68 8s-.07.54 1.18 1.18 4.33-.25 5.26-.54 2.72-.93 3.19-2.79a19.15 19.15 0 0 0-.11-7c-.39-1.54-2.18-7.52-2.69-8.63s-2.94-5.23-3.65-6.3a1.94 1.94 0 0 1-.46-1.54c.24-.49 1.1-.74 1.66-.78a11 11 0 0 1 3.65 1c1.4.59 4.11 2 4.11 2a27.43 27.43 0 0 1 6.37 7c2.66 4.27 5.69 7.2 6.69 8.73.63 1 1.78 3 2.68 4.81a4.44 4.44 0 0 1 1.26-.6c-.09-.21-.16-.42-.25-.64A30.11 30.11 0 0 0 86.24 95c-.59-.78-5.16-6.34-5.16-6.34-.72-1-4.6-7.3-7.45-8.67a.69.69 0 0 0-.21-.17 17 17 0 0 0-2.23-.91.42.42 0 0 1-.24-.48v-.1a1.2 1.2 0 0 1 .89-.69 22.26 22.26 0 0 0 3.69-1.36A23.33 23.33 0 0 0 82 71.66a81 81 0 0 0 6.05-6.73s3.73-5.73 4.95-8.17a12.26 12.26 0 0 0 1.54-4.69 110.91 110.91 0 0 0 .39-11.85zm-1.79-4.15c-.47-2.4-4.94-7.16-4.94-7.16.25-1.83-1.68-7.34-1.68-7.34 5.8 5.43 6.62 14.49 6.62 14.49zM67.65 5.92c2.61 2.08 6.3 6.63 6.84 8.6A12.39 12.39 0 0 0 73 10a21.59 21.59 0 0 0-3.4-4.12l-.14-.13a49.48 49.48 0 0 1 5.74 3.13 33.54 33.54 0 0 1 8.88 10.57c3 5.77 2.94 8.42 2.69 10a8 8 0 0 1-1.89 3.31 1.13 1.13 0 0 1-1.18.14c-.82-.25-.86-1.93-.79-2.51a11.47 11.47 0 0 0-.64-4.8 7.13 7.13 0 0 0-3.62-3c-.11.11 2.33 2.72 2.65 4.15s.64 4.94 0 5.87-2.15.79-2.69.75a17.82 17.82 0 0 0-3.44.18s.39-1-.36-3.33a21.66 21.66 0 0 0-3.47-5.95c-.86-1.07-4.87-4.19-6-5.34s-4.3-3.58-5.95-7.41a5.68 5.68 0 0 1 1.68-7.09c.99-.54 3.93-.57 6.58 1.5zM54.86 32.14a19 19 0 0 1-6.95 2.72c-3.15.61-11.68 1.33-13.29.21s-2.76-6-3-7.92c-.21-1.64-.5-7.92 1.11-11.5a21.79 21.79 0 0 1 9.67-9.6 64.64 64.64 0 0 1 6.1-2.43l.14-.05c.13 0 .23-.05.39-.1a17.43 17.43 0 0 0-4.51 7.63 16.09 16.09 0 0 0 .36 6.27c-.54-3.65 1.15-7.56 3-10.53A9.26 9.26 0 0 1 55 2.74c2-.14 4.33.11 4.58.43s.07.54.07.54l.06.08a1.93 1.93 0 0 0-.38.42 7.52 7.52 0 0 0-1.22 6.34 13.16 13.16 0 0 0 4.37 7.06 8.6 8.6 0 0 1 3.12 4.58 17.15 17.15 0 0 1 0 7.09c-.25 1.22-.47 2.33-.47 2.33s0 .82-1.25.86-5.59 0-5.59 0-1.15-.54-.39-1.36a3.54 3.54 0 0 0 1.25-2.29 31.36 31.36 0 0 1-4.29 3.32zM33.78 63a28.35 28.35 0 0 0 6.88 4.56A8.85 8.85 0 0 0 45 68.85c.32.12.66.45.63.73a.55.55 0 0 1-.32.44c-.65.06-1.43-.4-5.05-1.75-3.92-1.45-8.38-6.18-8.38-6.18l-.09-.15c-.13-.23-.32-.65-.18-.83s1.07.85 1.48 1.25.74.7.74.7zm-2.63-3.5a7.62 7.62 0 0 1-1.34 1.29l-.2.13.29-.33c.9-1.07 1-4.15 1-4.15s.56-7-3-11.85a21.33 21.33 0 0 0-4-4.33c-.43-.29-.75-.36-.72-.57a.77.77 0 0 1 .18-.31v.13s1.83 0 4.33 2.47c0 0 4.42 3.72 4.85 8.61s-.37 7.41-1.39 8.93zm-3.65-22a16.68 16.68 0 0 1-2.44-5.77 10.27 10.27 0 0 0 .61 5c1 2.11 1.86 3 2.22 3.08 0 0-.36.39-1.65-.36a10 10 0 0 0-3-1.07h.06s-.32-1.24-.75-3.17a30.8 30.8 0 0 1 3-18.27C29.54 8.63 35 7 35.18 6.91a57.77 57.77 0 0 1 5.57-2.28 10.69 10.69 0 0 1 3.08-.53 2.08 2.08 0 0 0 .86.13c-.38.07-.67.12-.79.16a18.88 18.88 0 0 0-8.52 5.44 22.18 22.18 0 0 0-4.83 10.46c-.21 1.65-.9 7.74.5 11.07S33 35.15 33 35.76a3.41 3.41 0 0 1-1.9 2.72 2.75 2.75 0 0 1-3.6-1zM44.22 1.38C47.86.94 53 .45 57.33 1.16 62.13 1.95 64 3 64 3s-.77-.13-1.4-.17c-.32-.09-.86-.24-1.78-.47a38.14 38.14 0 0 0-14.33-.21c-1.42.29-2.67.61-3.75.92-3.33.91-11.34 4.14-14.5 8s-5 7.31-6.39 13.86A24.91 24.91 0 0 0 22.07 37c.28 1.08 0 1.53-.17 1.7l-.1.08c-1.18.09-1-2.17-1.5-4.21a26.47 26.47 0 0 1-.07-6.34v-.45s1.47-9 4.33-13.61 4.23-6.27 9.67-9.06a45.77 45.77 0 0 1 9.99-3.73zM25.74 8.75a35 35 0 0 1 13-6.34 34 34 0 0 0-8.5 4.39c-3.76 3-5.12 4.91-7.56 9.71a34.1 34.1 0 0 0-3 10.19l-.07.52c-.07.4-.1.94-.1.94a40.75 40.75 0 0 0 .11 5.8c.07 1 .72 3.08.57 3.87s-.47.93-1.61 1.47-1.47.36-1.54.25c-2.11-3.4-1-12.18-1-12.18s.14-2 .14-2.18c0-.43.07-3.29 2.26-7.66s7.16-8.65 7.3-8.78zM2.07 34.58a22.45 22.45 0 0 1 4.23-9.82c1.43-2.15 3.83-5.55 4.51-6.55a35.67 35.67 0 0 1 7.7-6.27c2.44-1.25 3.47-2 3.58-1.83a.11.11 0 0 1 0 .08A49.22 49.22 0 0 0 18.55 15c-.64 1.25-1.75 3.9-2.58 5.44s-2.4 2.4-4.66 4.87a17.73 17.73 0 0 0-2.4 3.44H8.8s-4.41 5.69-5.64 9.51c-.76 2.35-1.3 4.18-1.6 5.38a57.66 57.66 0 0 1 .51-9.06zm9.56 30.19a19.2 19.2 0 0 0 .2 2.1.73.73 0 0 1-.45.3c-.57.14-3.69-3.26-4.37-4S4 59.62 2.68 53.94c-.14-1.45-.51-5.83-.11-7.74.48-2.31 1.4-8.43 4.14-12-.59 2.7-.2 8.99.59 10.8.16.37.33.76.51 1.15 0 .42 1 3.92 1 5.54s-.11 5.91.05 6.72.75-3.65.81-5c0-1 .21-2.24.23-3.22l.17.26c.64 1 1.54 4.73 1.75 6.7s-.33 3.96-.19 7.62zm2.72 5a8.66 8.66 0 0 1-1.65-3.51c-.36-1.5.14-4.23.21-6.45a19.84 19.84 0 0 0-.77-6.81c-.75-2.36-2.22-5.12-3.08-7.27s-1.18-3.58-1.33-8.31 3-9.78 3.76-10.78A16.48 16.48 0 0 1 14.14 24c.75-.61 1-.32 1-.32l-.11.22-.03.1a24 24 0 0 0-3.65 8.17c-1.15 5.12-.39 8.38-.21 8.7a23.92 23.92 0 0 1 .75-6.27c.77-2.52 1.77-5.55 2.92-7a28.34 28.34 0 0 0-.13 7A21.19 21.19 0 0 0 16 41a11.76 11.76 0 0 0-1.93 11c2 5.62 3.9 7.66 4.62 8.52a12.51 12.51 0 0 0 2.41 2 5.61 5.61 0 0 1-.19 2.3c-.48 1.45-1.67 2.9-1.4 5.43s.38 3.38 1.29 4.62c.03-.09-4.7-2.33-6.44-5.05zm10.45 6.57c-1.45-.54-1.88-.75-1.88-.75A8.31 8.31 0 0 1 20.51 71c-.38-2.85 1-3.76 1.29-5.43a20.75 20.75 0 0 0 .39-2.57h.08a7.68 7.68 0 0 0 3.2.4c.31.1.72.4.79 1.3a47.38 47.38 0 0 1-.38 5.3c-.05 1-.21 4 .59 5.8l.7 1.13a9.12 9.12 0 0 1-2.36-.54zm.2-14.01c-3.44.25-6.12-2.61-8-5.77a17.44 17.44 0 0 1-2-10.06 7.35 7.35 0 0 1 3.4-5.59 4.73 4.73 0 0 1 5 .29 12.3 12.3 0 0 1 3.47 4.19 18.6 18.6 0 0 1 2.79 11.35.19.19 0 0 0 0 .22c.02 2.46-1.29 5.13-4.66 5.37zm10.71 15.35a3.35 3.35 0 0 1-3 .27c-1.93-.59-3.17-.54-4.46-2.63a6.83 6.83 0 0 1-.59-4.89v-.06A26.61 26.61 0 0 0 31 72.16c1 .32 3.47 1.15 4.12 2.4a4.5 4.5 0 0 1 .59 3.12zm2-1.25a.93.93 0 0 1 .15-1.22 2.34 2.34 0 0 1 1 0l2 .52c-.65.45-2 1.5-2.32 1.75a2.05 2.05 0 0 1-.78-1.06zm4.94 2.87a30.11 30.11 0 0 1-3.13-1.2c.51-.3 2-2 2.53-1.76s1.63 2.77 1.86 3.33c-.37-.12-.8-.24-1.21-.38zm2.69 0c0-.17-1.08-2.08-1.51-2.86 1 .21 2.13.41 3.28.58a14.28 14.28 0 0 1-1.73 2.3zm1 .83c.56-.32 1.6-2.89 2.3-2.68s1.64 2.65 1.85 3.06a35.15 35.15 0 0 1-4.15-.36zm3.42-2.81l.75.05a21.43 21.43 0 0 0 2.89 0l-1.72 2.34a13.31 13.31 0 0 0-1.92-2.37zm2.58 3.21c.52-.42 1.94-2.81 2.34-2.76s2.15 2.42 2.23 2.52l-.63.06c-.81.08-2.22.19-3.95.2zm9.6-2a1.42 1.42 0 0 1 .08.76 2.23 2.23 0 0 1-.61.29 21.64 21.64 0 0 1-2.32.43.42.42 0 0 1-.34-.43 12.17 12.17 0 0 1 1.7-2.58 4.37 4.37 0 0 1 1.48 1.56zm-.65-2.66a11.54 11.54 0 0 1 1.26-.3c.5 0 1.18 0 1.15 1a5.58 5.58 0 0 1-.59 1.66v-.15a1.87 1.87 0 0 0-.46-.59 16.88 16.88 0 0 1-1.37-1.59zM61.5 81c0 .15-.31 1.22-.69 2.44l-4.91-1.6a34.64 34.64 0 0 0 5.51-1.12s.11.06.09.28zm-3.63-1.4l-2.18-2.46c1.33-.2 2.59-.46 3.66-.71zm-2.53 4l-.12-.13-.16-.48a2.16 2.16 0 0 1 .72.17l4.61 1.61a17.36 17.36 0 0 1-1 2.44 7.39 7.39 0 0 1-1 1.44 47.78 47.78 0 0 0-3.05-5.13zM60.86 94a28.11 28.11 0 0 0-1.73-4c.54.19 2.79 1 4.65 1.73-.78 1.26-2 3.63-2.4 4.3a20.33 20.33 0 0 0-.52-2.03zm4-1.92a11.59 11.59 0 0 1 1.45.68 4.37 4.37 0 0 1 1.77 1.67c.12.35-1.11 3.35-2 4.83l-.92-.69c-1.13-.81-3-1.64-3-1.88s1.65-2.69 2.67-4.57zM62 103.81a9 9 0 0 1-.11-1.32 39.74 39.74 0 0 0-.22-4.49c.67.43 2.23 1.51 3.56 2.43-.93 1.19-2.32 3.06-2.68 3.4s-.45.17-.55-.02zm5.58.58a9.93 9.93 0 0 1-4.41.75 4.2 4.2 0 0 1 .71-1.12 33.18 33.18 0 0 0 2.31-2.91l1.18.84c.51.38 1.45 1.32 1.42 1.69a6.48 6.48 0 0 1-1.2.76zM69 95.48a38 38 0 0 1 .61 6.59L67 100c.1-.16.19-.32.26-.47A39.74 39.74 0 0 0 69 95.3zm-.39-1.79a8.71 8.71 0 0 0-1.89-1.59 16 16 0 0 0-1.46-.8 7.75 7.75 0 0 0 .33-.78c.35-1 .69-2.11.91-2.86a47.14 47.14 0 0 1 2.1 6.03zm-4.38-2.89c-1.81-.84-3.78-1.63-4-1.74s-.43-.32-.38-.75 1.11-2 1.75-3.21c2 .71 3.83 1.37 4.05 1.49a34.43 34.43 0 0 1-1.43 4.22zm.77-6.32l.15.31-3.1-1c.24-.77.52-1.86.68-2.54A13.2 13.2 0 0 1 65 84.48zm-10-8.77c-3.62.72-7.63-.11-9.46-.29A36.55 36.55 0 0 1 40.16 74a36.85 36.85 0 0 1-12.34-5.74c.07-.85.13-1.7.13-2.05 0-.75.16-2.85 1.13-3.81s2.31.48 2.31.48c3.87 4.62 10.85 6.93 12 7.36s1.67.16 1.67.16a2.73 2.73 0 0 0 .7 2c.38.43 2.42 1.72 6 1.67s4.78-1.34 5.21-1.61a3.58 3.58 0 0 0 .7-4.67c-1.5-2.31-6.77-2.2-7.74-2.15s-4 0-4.3 1.4-.75 1.07-1.13 1.07a19.4 19.4 0 0 1-5.32-2C36.74 64.73 32.33 60 32.33 60a7.12 7.12 0 0 0 1.38-2.28 14.87 14.87 0 0 0 .43-8.06 17.37 17.37 0 0 0-4.28-7.61A4.23 4.23 0 0 1 31 39.8c1.18-1.15 2.51-1.72 3.17-2.65 0 0 5.91.64 10-.32A79.58 79.58 0 0 0 53 34a46.29 46.29 0 0 1 9.88-.81c2 .27 2.2.48 2.2.48s.43.05.7-.75 2.18-7.68 1.75-10.15a8.87 8.87 0 0 1 3.69 3.33c1.58 2.47 2.76 4.37 2.69 6.09a4 4 0 0 1-.68 2.4s-.11.32.64.18a13.76 13.76 0 0 1 2.72-.29c.79 0 2.15.21 2.79.18a31.12 31.12 0 0 1 3.15-.25c.64.07 1 .07 1.18.43a42.78 42.78 0 0 1 1.93 7.34 30.76 30.76 0 0 1-.2 7.36c-.61 3.58-2.15 9-5.77 13S70.38 71 66 73s-7.33 2-10.95 2.71zm-9-7.78a1.84 1.84 0 0 1 .17-.4 1 1 0 0 1 .39-.37 4.94 4.94 0 0 1 .34 2.31c-.17 1.13-.32 1.71-.51 1.8a.46.46 0 0 1-.46 0l-.1-.27a7.7 7.7 0 0 0 .2-.92 11.7 11.7 0 0 0-.03-2.15zm1.38-.72a.3.3 0 0 1 .12-.21 5.82 5.82 0 0 1 2.17 2.22c-.06.14-.12.27-.2.41a5.29 5.29 0 0 1-2.05 2.26.37.37 0 0 1-.42 0s.31-1.65.34-1.91a20.9 20.9 0 0 0 .06-2.77zm6.22 1.51a18.12 18.12 0 0 0-2.09-2.29 12.26 12.26 0 0 1 2 .24 8.5 8.5 0 0 1 .11 2.05zM54 73a10.16 10.16 0 0 1-2.6.17 9 9 0 0 0 2.24-2.44A5.1 5.1 0 0 1 54 73zm-.64-3.28c0 .44-1.57 2.35-2 2.59 0 0-.07.07-.09-.38a10.57 10.57 0 0 0-.83-2.7 15.56 15.56 0 0 0 .66-2.2 15.53 15.53 0 0 1 2.25 2.74zm-2.79 3.42a13 13 0 0 1-2.71-.58 5.88 5.88 0 0 0 1.94-1.93c.11-.2.22-.4.32-.61 0 .09.07.19.1.28a6.59 6.59 0 0 1 .34 2.89zM50 68.42a8 8 0 0 0-1.44-1.62c-.09-.07-.08-.15 0-.21a13.7 13.7 0 0 1 1.73-.17 8.87 8.87 0 0 1-.29 2zm4.29-.42v-1.1a7.41 7.41 0 0 1 1.2.47c.1.63.45 3.35-.63 4.74l-.12.15a5.93 5.93 0 0 0-.58-2.44 7.71 7.71 0 0 0 .13-1.82zm2.11 0a1.75 1.75 0 0 1 .75 1.56 3.48 3.48 0 0 1-1.73 3 7.77 7.77 0 0 0 .87-2.19 7.44 7.44 0 0 0 .11-2.42zm12.87 9a.61.61 0 0 0-.26.14c-.28.09-.58.18-.91.27-1.92.5-2.7 0-3-.29a.44.44 0 0 0-.16-.23c-.11-.46-.18-1.18.26-1.53.68-.54 3.62-2.33 5.62-3.62a42.09 42.09 0 0 0 5.44-4.08s0 3.3-1.22 5.16-4.51 3.82-5.77 4.18zm19.11-17.3A8 8 0 0 1 87 63.39a20.91 20.91 0 0 1-3.08 4.44c-1.54 1.47-6.05 5.41-8.42 6.38l-.39.11a7.94 7.94 0 0 0 2.15-3.15A48.39 48.39 0 0 1 79.55 65c.61-.9 3.87-5 4.91-7.45s2.69-7.81 2.69-9.31v-.38c.3.64.31 1.5.8 3.24a27.21 27.21 0 0 1 .43 8.64zm5-9.46a14.45 14.45 0 0 1-2.51 7.45c-.39.39-.47.21-.57-.79S88.7 48.53 88 45s-1.29-5.34-1.29-5.34a18.55 18.55 0 0 0-1-3c-.61-1.15-.54-1.9-.14-2.18 1-.77 1.32-.05 2.4 1.52a26.77 26.77 0 0 1 2.13 4.4 13.7 13.7 0 0 0-2.51-6.95c-.61-.64-.75-1-.21-1.72a1 1 0 0 1 1.18-.39s3 2.08 4.26 7.59.79 7.3.54 11.35z" fill="#692f23"/><circle cx="41.73" cy="78.03" r=".48" fill="#692f23"/><circle cx="45.49" cy="77.57" r=".38" fill="#692f23"/><circle cx="48.53" cy="79.45" r=".38" fill="#692f23"/><circle cx="54.6" cy="79.5" r=".38" fill="#692f23"/><circle cx="57.69" cy="77.62" r=".38" fill="#692f23"/><circle cx="60.37" cy="78.78" r=".38" fill="#692f23"/><circle cx="62.66" cy="76.42" r=".38" fill="#692f23"/><circle cx="60" cy="82" r=".38" fill="#692f23"/><circle cx="58.14" cy="85.58" r=".48" fill="#692f23"/><circle cx="63.33" cy="83.24" r=".48" fill="#692f23"/><circle cx="62.98" cy="87.67" r=".48" fill="#692f23"/><circle cx="61.55" cy="92.34" r=".48" fill="#692f23"/><circle cx="65.32" cy="95.92" r=".48" fill="#692f23"/><circle cx="63.03" cy="100.89" r=".48" fill="#692f23"/><circle cx="66.28" cy="103.52" r=".48" fill="#692f23"/><circle cx="68.59" cy="99.33" r=".48" fill="#692f23"/><circle cx="66.85" cy="90.65" r=".48" fill="#692f23"/><circle cx="51.64" cy="78.08" r=".38" fill="#692f23"/><path d="M14.42 104.86s4.4 4.17 20.76 8.62c10.07 2.74 25.81 1 29.75.07 9.14-2.13 19.5-6.75 22.26-8.84s3-3.19 3-3.19-1.62-1.13-1.89-.72-.3 2.58-4.93 4.86-12.67 6.16-23 7.4-20.28.56-25.07-.69a157 157 0 0 1-16-5.84c-2.8-1.25-3.51-2.13-3.61-2.29s-1.4.01-1.27.62z" fill="#692f23"/></g></svg>