<svg xmlns="http://www.w3.org/2000/svg" width="60" height="60" viewBox="0 0 60 60"><rect x="23.69" y="38.15" width="14.55" height="14.09" rx="2" ry="2" fill="#fff" stroke="#434343" stroke-miterlimit="10"/><path d="M38.62 29.36v-2.14a1.34 1.34 0 0 0-1.34-1.34h-22A1.34 1.34 0 0 0 14 27.22v2.14" fill="#fff" stroke="#ff5a19" stroke-miterlimit="10"/><path d="M46 32.74V9.1a1.34 1.34 0 0 0-1.3-1.34h-4.07a1.34 1.34 0 0 0-1.34 1.34l-2 19H15.65s-1.93-.23-1.79 2.78 1.14 8.27 9.82 10.67S45.75 38.31 46 32.74z" fill="#fff" stroke="#434343" stroke-miterlimit="10" stroke-width="1.5"/><path fill="#fff" stroke="#434343" stroke-miterlimit="10" d="M33.99 28.31h12.15"/></svg>