<svg xmlns="http://www.w3.org/2000/svg" width="80" height="80" viewBox="0 0 80 80"><title>материальная-ответсвенность</title><g id="Слой_2" data-name="Слой 2"><g id="Слой_1-2" data-name="Слой 1"><rect width="80" height="80" fill="none"/><path d="M20,56.88a10.22,10.22,0,0,1,8-3.49A10.24,10.24,0,0,1,38.31,41.54,10.24,10.24,0,0,1,48.68,29.68a10.22,10.22,0,0,1,9.66-11.83A30.95,30.95,0,0,0,17.45,64.26,10.19,10.19,0,0,1,20,56.88Z" fill="none" stroke="#fd8204" stroke-linecap="round" stroke-miterlimit="10" stroke-width="1.5"/><path d="M27.41,52.73c-12.85-11.25-17.68-24.82-12-31.34s19.79-3.52,32.64,7.73" fill="none" stroke="#fd8204" stroke-linecap="round" stroke-miterlimit="10"/><line x1="38.31" y1="41.54" x2="15.31" y2="21.41" fill="none" stroke="#fd8204" stroke-linecap="round" stroke-miterlimit="10"/><path d="M66.94,51.29A1.91,1.91,0,0,0,67.11,54a3.81,3.81,0,1,1-5,5.73L39,39.49a1.88,1.88,0,0,0-.78-.4,10.22,10.22,0,0,0,.08,2.45,10.31,10.31,0,0,0-2.28.2,1.92,1.92,0,0,0,.47.63L59.58,62.58a7.63,7.63,0,0,0,10-11.47A1.91,1.91,0,0,0,66.94,51.29Z" fill="none" stroke="#fd8204" stroke-miterlimit="10" stroke-width="1.5"/><path d="M36.45,54.57c-3.32,0-6,.77-6,1.72v8.57c0,.95,2.69,1.72,6,1.72s6-.77,6-1.72V56.29C42.46,55.34,39.77,54.57,36.45,54.57Z" fill="none" stroke="#fd8204" stroke-miterlimit="10" stroke-width="1.5"/><path d="M42.46,58.53c0,.95-2.69,1.72-6,1.72s-6-.77-6-1.72" fill="none" stroke="#fd8204" stroke-miterlimit="10"/><path d="M42.46,56.31c0,.95-2.69,1.72-6,1.72s-6-.77-6-1.72" fill="none" stroke="#fd8204" stroke-miterlimit="10"/><path d="M42.46,60.55c0,.95-2.69,1.72-6,1.72s-6-.77-6-1.72" fill="none" stroke="#fd8204" stroke-miterlimit="10"/><path d="M42.46,62.56c0,.95-2.69,1.72-6,1.72s-6-.77-6-1.72" fill="none" stroke="#fd8204" stroke-miterlimit="10"/><path d="M48.46,59.4c-3.32,0-6,.77-6,1.72v6.32c0,.95,2.69,1.72,6,1.72s6-.77,6-1.72V61.12C54.47,60.17,51.78,59.4,48.46,59.4Z" fill="none" stroke="#fd8204" stroke-miterlimit="10" stroke-width="1.5"/><path d="M54.47,63.14c0,.95-2.69,1.72-6,1.72s-6-.77-6-1.72" fill="none" stroke="#fd8204" stroke-miterlimit="10"/><path d="M54.47,61.12c0,.95-2.69,1.72-6,1.72s-6-.77-6-1.72" fill="none" stroke="#fd8204" stroke-miterlimit="10"/><path d="M54.47,65.16c0,.95-2.69,1.72-6,1.72s-6-.77-6-1.72" fill="none" stroke="#fd8204" stroke-miterlimit="10"/></g></g></svg>