<svg xmlns="http://www.w3.org/2000/svg" width="116" height="116" viewBox="0 0 116 116"><title>Матрасы</title><g data-name="Слой 2"><g data-name="Слой 1"><path fill="none" d="M0 0h116v116H0z"/><path d="M2.8 66h85.85v9.43H3.58a.77.77 0 0 1-.77-.77V66z" fill="none" stroke="#263239" stroke-linejoin="round" stroke-width="2"/><path d="M111.76 51.56L89.88 75.31c-.84.28-1.35-.29-1.35-1.1v-6.52A3.66 3.66 0 0 1 89.6 65l20.86-22.32c2.46-2.34 2.47-1.43 2.47-.63l.14 6.25a4.58 4.58 0 0 1-1.31 3.26z" fill="none" stroke="#263239" stroke-linejoin="round" stroke-width="2"/><path d="M86.65 66.15S18.48 66 4.11 66.08a1.11 1.11 0 0 1-.81-1.83l22.93-21a7.84 7.84 0 0 1 5.87-2.63l79.67-.06c.76 0 1 .3-.92 2.26l-20 21c-1.3 1.18-3.08 2.33-4.2 2.33z" fill="none" stroke="#263239" stroke-linejoin="round" stroke-width="2"/><path d="M20.88 60.27a2.41 2.41 0 0 0-1.16-.16l-.43-.18-.65-.26.18.39.12.25c-.25.14-.37.32-.3.51l-.46.24-.55.3.83-.08.69-.06a2.63 2.63 0 0 0 1.1.13l.43.17.65.27-.18-.39-.15-.26c.27-.15.37-.35.27-.54l.26-.15.55-.29-.83.07zM29.72 51.07a2.68 2.68 0 0 0-1.16-.16l-.43-.17-.65-.27.18.39.12.26c-.25.14-.36.32-.3.5l-.46.25-.55.29.83-.07.7-.09a2.58 2.58 0 0 0 1.09.12l.43.18.65.26-.17-.36-.13-.2c.27-.15.37-.35.27-.55l.27-.14L31 51l-.82.08zM36.26 60.49a2.43 2.43 0 0 0-1.16-.16l-.43-.18-.67-.26.18.39.12.25c-.25.14-.37.32-.3.51l-.47.24-.54.3.82-.08.7-.06a2.61 2.61 0 0 0 1.1.13l.43.17.64.27-.17-.39-.12-.26c.27-.15.36-.35.26-.54l.27-.15.55-.29-.83.07zM45 51.66a2.41 2.41 0 0 0-1.16-.16l-.43-.18-.65-.26.18.39.12.25c-.25.14-.37.32-.3.51l-.46.24-.55.3.83-.07.69-.07a2.63 2.63 0 0 0 1.1.13l.43.18.64.26-.17-.39-.12-.26c.27-.15.36-.35.27-.54l.26-.15.55-.29-.83.07zM36.5 43.36a2.54 2.54 0 0 0-1.16-.17l-.43-.19-.64-.26.17.38.12.26c-.25.14-.36.32-.3.5l-.46.25-.55.3.83-.08.7-.06a2.58 2.58 0 0 0 1.09.13l.43.17.65.27-.18-.39-.12-.26c.27-.15.37-.35.27-.54l.27-.15.55-.29-.83.07zM51.64 60.71a2.45 2.45 0 0 0-1.17-.16l-.47-.18-.64-.26.18.39.11.25c-.25.14-.36.32-.3.51l-.46.24-.55.3.83-.08.7-.06a2.61 2.61 0 0 0 1.1.13l.43.17.64.27-.18-.39-.11-.26c.27-.15.36-.35.26-.54l.27-.15.55-.29-.83.07zM60.9 51.36a2.45 2.45 0 0 0-1.17-.16l-.43-.2-.64-.26.18.39.12.25c-.26.14-.37.32-.31.5l-.46.25-.55.3.83-.08.7-.06a2.61 2.61 0 0 0 1.1.13l.43.17.64.27-.18-.39-.11-.26c.27-.15.36-.35.26-.54l.27-.15.55-.29-.83.07zM51.88 43.58a2.54 2.54 0 0 0-1.16-.17l-.43-.17-.65-.24.18.38.12.26c-.25.14-.36.32-.3.5l-.46.25-.55.3.83-.08.7-.06a2.56 2.56 0 0 0 1.09.13l.43.17.65.27-.18-.39-.15-.28c.27-.15.37-.35.27-.54l.27-.15.54-.29-.82.07zM67 60.93a2.41 2.41 0 0 0-1.16-.16l-.43-.18-.64-.26.17.39.12.25c-.25.14-.36.32-.3.51l-.46.24-.55.3.83-.08.7-.06a2.58 2.58 0 0 0 1.09.13l.43.17.65.27-.18-.39-.12-.26c.27-.15.37-.35.27-.54l.27-.15.55-.29-.83.07zM75.48 51.77a2.68 2.68 0 0 0-1.16-.16l-.43-.17-.65-.27.18.39.12.26c-.25.14-.36.32-.3.5l-.46.25-.55.29.83-.07.7-.06a2.73 2.73 0 0 0 1.09.13l.43.17.65.26-.18-.39-.12-.25c.27-.15.37-.35.27-.55l.27-.14.54-.3-.82.08zM67.26 43.8a2.54 2.54 0 0 0-1.16-.17l-.43-.17-.67-.26.18.38.12.26c-.25.14-.37.32-.3.5l-.46.25-.55.3.83-.08.69-.06a2.63 2.63 0 0 0 1.1.13l.43.17.64.27-.17-.39-.12-.26c.27-.15.37-.35.27-.54l.26-.15.55-.29-.83.07zM82.39 61.15a2.41 2.41 0 0 0-1.16-.15l-.43-.18-.64-.26.17.39.12.25c-.25.14-.36.32-.3.51l-.46.24-.55.3.83-.08.7-.06a2.58 2.58 0 0 0 1.09.13l.43.17.65.27-.18-.39-.12-.29c.27-.15.37-.35.27-.54l.27-.15.55-.29-.83.07zM90.26 52.8a2.41 2.41 0 0 0-1.16-.16l-.43-.18-.67-.26.17.39.12.26c-.25.13-.36.31-.3.5l-.46.24-.55.3.83-.07.7-.07a2.58 2.58 0 0 0 1.09.13l.43.18.65.26-.18-.39-.12-.26c.27-.15.37-.35.27-.54L91 53l.55-.29-.83.07zM82.64 44a2.56 2.56 0 0 0-1.16-.17l-.43-.17-.65-.26.18.38.12.26c-.25.14-.37.32-.3.5l-.47.25-.54.3.82-.08.7-.06a2.61 2.61 0 0 0 1.1.13l.43.17.64.27-.17-.39-.12-.26c.27-.15.36-.35.26-.54l.27-.15.55-.29L83 44zM99.25 44.13l-.83.07h-.4a2.58 2.58 0 0 0-1.17-.17l-.43-.17-.64-.26.22.4.11.26c-.25.14-.36.32-.3.5l-.46.25-.55.3.83-.08.7-.06a2.61 2.61 0 0 0 1.1.13l.43.17.64.27-.18-.39-.12-.26c.28-.15.37-.35.27-.54l.27-.15z" fill="#ff5a19"/></g></g></svg>