<svg xmlns="http://www.w3.org/2000/svg" viewBox="0 0 70 70"><defs><style>.cls-1{fill:none}.cls-2{fill:#fff;stroke:#f0592b;stroke-linejoin:round;stroke-width:1.5px}</style></defs><title>маевка_2@1x</title><g id="Слой_2" data-name="Слой 2"><g id="Слой_1-2" data-name="Слой 1"><path class="cls-1" d="M0 0h70v70H0z"/><path class="cls-2" d="M46.91 27.57a11.08 11.08 0 0 1-11.23 10.5 12.84 12.84 0 0 1-12.74-12.94c0-11.06 12.74-22.48 12.74-22.48S33.61 6.1 37 11.36c2.93 4.45 9.91 6.78 9.91 16.21zM15.45 50.31l35.44 16.78M55.88 56.21L20.43 39.43M50.89 67.09c1.38.65 3.62-1.26 5-4.26s1.38-6 0-6.62M20.43 39.43c-1.38-.65-3.61 1.25-5 4.26s-1.37 6 0 6.62M16.55 54.52l35.61-16.4 4.87 10.93-35.62 16.4"/><path class="cls-2" d="M21.41 65.45c-1.38.63-3.6-1.29-4.94-4.31s-1.31-6 .07-6.62"/><ellipse class="cls-2" cx="54.6" cy="43.59" rx="2.76" ry="5.98" transform="rotate(-23.83 54.608 43.6)"/></g></g></svg>