<svg xmlns="http://www.w3.org/2000/svg" width="70" height="70" viewBox="0 0 70 70"><title>легкая-уборка-цв</title><g data-name="Слой 2"><g data-name="Слой 1"><path fill="none" d="M0 0h70v70H0z"/><path d="M23.8 34.15c-.73 0-1.33-1.62-1.33-3.61s.59-3.61 1.33-3.61" fill="#fce8d1" stroke="#782b0e" stroke-linecap="round" stroke-linejoin="round" stroke-width=".75" fill-rule="evenodd"/><path fill="#dad6cc" stroke="#782b0e" stroke-miterlimit="10" stroke-width="1.5" d="M33.56 47.18V35.36h2.88v11.82"/><path d="M32.52 55.8v-6.49A2.48 2.48 0 0 1 35 46.84a2.48 2.48 0 0 1 2.48 2.48v6.48" fill="#f9f1eb" stroke="#782b0e" stroke-linecap="round" stroke-miterlimit="10" stroke-width="1.5"/><path d="M48.75 61.18a1 1 0 0 1-.95 1H22.21a1 1 0 0 1-1-1v-1.55a1 1 0 0 1 1-1H47.8a1 1 0 0 1 .95 1z" fill="#dad6cc" stroke="#782b0e" stroke-miterlimit="10" stroke-width="1.5"/><path d="M24.17 58a2.2 2.2 0 0 1 2.2-2.19h17.27A2.19 2.19 0 0 1 45.83 58" fill="#f9f1eb" stroke="#782b0e" stroke-linecap="round" stroke-miterlimit="10" stroke-width="1.5"/><path d="M33.56 25.64V9.31A1.44 1.44 0 0 1 35 7.87a1.44 1.44 0 0 1 1.44 1.44v16.33" fill="#dad6cc" stroke="#782b0e" stroke-miterlimit="10" stroke-width="1.5"/><path d="M23.76 33.87s2.78-.46 3.56.06a9.63 9.63 0 0 0 4.73 1.43h4.33a1 1 0 0 0 1-1v-.22a1 1 0 0 0-1-1h1a1.13 1.13 0 0 0 1.13-1.13v-.21a1.13 1.13 0 0 0-1.13-1.13h.2a1.13 1.13 0 0 0 1.13-1.13v-.25a1.13 1.13 0 0 0-1.13-1.13h-.7A1.2 1.2 0 0 0 38.1 27v-.25a1.2 1.2 0 0 0-1.26-1.13L33 25.49V23.3a1.43 1.43 0 0 0-1.72.23l-4.09 3.78-3.42-.06" fill="#fce8d1" stroke="#782b0e" stroke-linecap="round" stroke-linejoin="round" stroke-width="1.5" fill-rule="evenodd"/></g></g></svg>