<svg id="Слой_1" xmlns="http://www.w3.org/2000/svg" viewBox="0 0 47 47"><style>.st0{fill:none}.st1{opacity:.4}.st2{fill:#353535}</style><path class="st0" d="M0 0h47v47H0z"/><title>Профиль-фото</title><g id="Слой_2_1_" class="st1"><path class="st2" d="M33.5 30.6L28.2 28c-.5-.2-.8-.8-.8-1.3v-1.9c.1-.2.3-.3.4-.5.7-1 1.2-2.1 1.6-3.2.8-.4 1.3-1.1 1.3-2v-2.2c0-.5-.2-1.1-.6-1.5v-2.9c.1-1.3-.3-2.6-1.2-3.6-1.1-1.3-3-2-5.5-2s-4.4.7-5.5 2c-.9 1-1.3 2.3-1.2 3.6v2.9c-.4.4-.5.9-.6 1.5v2.2c0 .7.3 1.3.8 1.7.4 1.5 1 2.8 1.9 4v1.8c0 .5-.3 1-.8 1.3l-5 2.7c-1.6.9-2.6 2.6-2.6 4.4v1.8c0 2.6 8.3 3.3 12.7 3.3s12.7-.7 12.7-3.3v-1.7c.4-1.9-.6-3.6-2.3-4.5zm1.6 6.2c0 .7-4.1 2.2-11.6 2.2s-11.6-1.5-11.6-2.2V35c0-1.4.8-2.7 2-3.4l5-2.7c.8-.5 1.3-1.3 1.3-2.3v-2.2l-.1-.2c-.9-1.2-1.5-2.5-1.9-3.9v-.2l-.3-.1c-.3-.2-.5-.5-.5-.9v-2.2c0-.3.1-.6.4-.8l.2-.2v-3.5c-.1-1 .2-2 .9-2.8.9-1 2.5-1.6 4.7-1.6s3.7.5 4.6 1.6c.7.8 1 1.8.9 2.8v3.5l.2.2c.2.2.4.5.4.8v2.2c0 .5-.3.9-.8 1.1l-.3.1-.1.3c-.4 1.1-.9 2.2-1.6 3.2-.2.2-.3.4-.5.6l-.1.2v2.2c0 1 .5 1.9 1.4 2.3l5.3 2.6c1.3.7 2.1 2 2.1 3.5v1.6z" id="Capa_1"/></g></svg>