<svg xmlns="http://www.w3.org/2000/svg" width="36.5" height="50" viewBox="0 0 36.5 50"><title>нтв</title><g id="Слой_2" data-name="Слой 2"><g id="Слой_1-2" data-name="Слой 1"><rect width="36.5" height="50" fill="none"/><polygon points="13.49 26.36 11.79 26.36 11.79 23.3 8.73 23.3 8.73 24.66 10.09 24.66 10.09 29.42 8.73 29.42 8.73 30.78 11.79 30.78 11.79 27.72 13.49 27.72 13.49 30.78 16.55 30.78 16.55 29.42 15.19 29.42 15.19 24.66 16.55 24.66 16.55 23.3 13.49 23.3 13.49 26.36" fill="#d2b093"/><path d="M27.09,26.7a1.93,1.93,0,0,0,1-1.62,1.89,1.89,0,0,0-2-1.78H21v1.36h1.36v4.76H21v1.36h5.45a2.09,2.09,0,0,0,2-2.14A2.16,2.16,0,0,0,27.09,26.7Zm-3.06-2h1.36a.68.68,0,0,1,.68.68v.34a.68.68,0,0,1-.68.68H24Zm2.38,4.08a.68.68,0,0,1-.68.68H24v-1.7h1.7a.68.68,0,0,1,.68.68Z" fill="#d2b093"/><path d="M1.25,8V42h34V8ZM18.08,27.72a.51.51,0,1,1,.51-.51A.51.51,0,0,1,18.08,27.72Zm11.05,3.74a4.19,4.19,0,0,1-3.06,1H19.61V30.27a2.21,2.21,0,0,0,0-4.08V20.24H21V21.6h1.7V18.88H14.85V21.6h1.7V20.24h1.36v5.95a2.21,2.21,0,0,0,0,4.08v2.21H7V27.72H8.39V26.36H7V21.6h6.12V17.18H24.37V21.6h1.7a3.56,3.56,0,0,1,2.32.69,3.19,3.19,0,0,1,1.3,2.7,2.74,2.74,0,0,1-.56,1.71,2.55,2.55,0,0,1,1,2A3.53,3.53,0,0,1,29.13,31.46Z" fill="#d2b093"/></g></g></svg>