<svg xmlns="http://www.w3.org/2000/svg" width="36.5" height="50" viewBox="0 0 36.5 50"><g data-name="Слой 1"><path fill="none" d="M0 0h36.5v50H0z"/><path fill="#d2b093" d="M13.49 26.36h-1.7V23.3H8.73v1.36h1.36v4.76H8.73v1.36h3.06v-3.06h1.7v3.06h3.06v-1.36h-1.36v-4.76h1.36V23.3h-3.06v3.06zM27.09 26.7a1.93 1.93 0 0 0 1-1.62 1.89 1.89 0 0 0-2-1.78H21v1.36h1.36v4.76H21v1.36h5.45a2.09 2.09 0 0 0 2-2.14 2.16 2.16 0 0 0-1.36-1.94zm-3.06-2h1.36a.68.68 0 0 1 .68.68v.34a.68.68 0 0 1-.68.68H24zm2.38 4.08a.68.68 0 0 1-.68.68H24v-1.7h1.7a.68.68 0 0 1 .68.68z"/><path d="M1.25 8v34h34V8zm16.83 19.72a.51.51 0 1 1 .51-.51.51.51 0 0 1-.51.51zm11.05 3.74a4.19 4.19 0 0 1-3.06 1h-6.46v-2.19a2.21 2.21 0 0 0 0-4.08v-5.95H21v1.36h1.7v-2.72h-7.85v2.72h1.7v-1.36h1.36v5.95a2.21 2.21 0 0 0 0 4.08v2.21H7v-4.76h1.39v-1.36H7V21.6h6.12v-4.42h11.25v4.42h1.7a3.56 3.56 0 0 1 2.32.69 3.19 3.19 0 0 1 1.3 2.7 2.74 2.74 0 0 1-.56 1.71 2.55 2.55 0 0 1 1 2 3.53 3.53 0 0 1-1 2.76z" fill="#d2b093"/></g></svg>