<svg xmlns="http://www.w3.org/2000/svg" width="70" height="70" viewBox="0 0 70 70"><g data-name="Слой 2"><g data-name="Слой 1"><path fill="none" d="M0 0h70v70H0z"/><path d="M45.22 27.59A6.79 6.79 0 1 1 52 20.81a6.79 6.79 0 0 1-6.78 6.78zm0-12.22a5.43 5.43 0 1 0 5.43 5.43 5.44 5.44 0 0 0-5.43-5.43z" fill="#fd8204"/><path d="M45.22 14.4a6.41 6.41 0 1 1-6.41 6.41 6.42 6.42 0 0 1 6.41-6.41m0 12.22a5.81 5.81 0 1 0-5.81-5.81 5.81 5.81 0 0 0 5.81 5.81m0-13a7.16 7.16 0 1 0 7.16 7.16 7.16 7.16 0 0 0-7.16-7.16zm0 12.22a5.06 5.06 0 1 1 5.06-5.06 5.06 5.06 0 0 1-5.06 5.06z" fill="#692f17"/><rect x="23.66" y="21.38" width="43.12" height="31.36" rx="3.56" ry="3.56" fill="#fd8204" stroke="#692f17" stroke-linejoin="round" stroke-width="1.5"/><path d="M66.79 29.44v-4.51a3.56 3.56 0 0 0-3.56-3.56h-36a3.56 3.56 0 0 0-3.56 3.56v4.51" fill="#f7e8d2" stroke="#692f17" stroke-linejoin="round" stroke-width="1.5"/><path fill="#dfdbd1" stroke="#692f17" stroke-linejoin="round" stroke-width=".75" d="M23.66 29.44h43.13"/><rect x="38.87" y="27.72" width="12.72" height="3.44" rx=".78" ry=".78" fill="#f8f3ee"/><path d="M50.8 28.09a.4.4 0 0 1 .4.4v1.88a.4.4 0 0 1-.4.4H39.64a.4.4 0 0 1-.4-.4V28.5a.4.4 0 0 1 .4-.4H50.8m0-.75H39.64a1.15 1.15 0 0 0-1.15 1.15v1.88a1.15 1.15 0 0 0 1.15 1.15H50.8a1.15 1.15 0 0 0 1.2-1.15V28.5a1.15 1.15 0 0 0-1.15-1.15z" fill="#692f17"/><path d="M38 51.22A5.24 5.24 0 1 1 43.2 46a5.25 5.25 0 0 1-5.2 5.22zm0-8a2.8 2.8 0 1 0 2.8 2.8 2.81 2.81 0 0 0-2.8-2.85zM3.21 39.25a.91.91 0 0 1 .91-.91h24.26a.91.91 0 0 1 .91.91.91.91 0 0 1-.91.91H4.13a.91.91 0 0 1-.91-.91z" fill="#dfdbd1" stroke="#692f17" stroke-linejoin="round" stroke-width=".75"/><path d="M45.36 36.94a2.76 2.76 0 0 0-.22-1.08 4.15 4.15 0 0 0-4-2.95H23a6.34 6.34 0 0 0 0 12.68h15.1l1.41 8a2.76 2.76 0 0 0 2.76 2.76h3.25a2.76 2.76 0 0 0 2.76-2.76z" fill="#dfdbd1" stroke="#692f17" stroke-linejoin="round" stroke-width="1.5"/><path d="M18.08 35.4a4 4 0 1 0 0 7.71z" fill="#fd8204" stroke="#692f17" stroke-linejoin="round" stroke-width=".75"/></g></g></svg>