<svg xmlns="http://www.w3.org/2000/svg" width="300" height="250" viewBox="0 0 300 250"><g data-name="Слой 2"><g data-name="Слой 24"><path fill="none" opacity=".48" d="M0 0h300v250H0z"/><path d="M125.49 36.27s-9.78.7-10.76.91c-1.43.31-1.22 1.22-.58 1.67s9 1.36 13.1 1.38S140 40 142.1 39.9s7.91-.6 9.18-.83 2-.24 2.14-.83a1.71 1.71 0 0 0-1.34-1.63c-.74-.14-20.78-.72-26.59-.34z" fill="#ddd6ce"/><path d="M211.29 64.33l-.07 38.48s-.28 2.25 2.35 4 7.53 3.09 8.11 3.89a7 7 0 0 1 .81 2.48l14.22.42a2.71 2.71 0 0 1 1.38-2.69c1.63-.83 5.81-2.76 6.53-3.48a10.18 10.18 0 0 0 2.18-6.75c0-3.63-.29-34.34-.29-34.34a5.53 5.53 0 0 0-4.55-5.07c-4.34-.77-27-.3-27-.3s-3.27.89-3.67 3.36z" fill="#dff1f7"/><path fill="#efb000" d="M47.17 54.97H66.9V74.7H47.17z"/><path fill="#fff" d="M50.23 58.25h13.62v13.41H50.23z"/><path fill="#efb000" d="M47.17 85.61H66.9v19.73H47.17z"/><path fill="#fff" d="M50.23 88.89h13.62v13.41H50.23z"/><path fill="#e6d1aa" d="M81.25 134.88l.95-84.49 108.34-.09.58 34.45-.79 100.65-106.62.1-2.46-50.62z"/><path d="M160.32 153.24l-120.78-.56-.54 1.26s-.78 1.42 2.11 1.67 118.07.24 118.07.24z" fill="#e2ddd3"/><path d="M165.61 192.93h-.21v-37.57l-123.89-.13.13 40.08-.42 16.88s1.86 1.3 2.6.68a20.36 20.36 0 0 0 .27-4.8c-.1-2.22 0-9.14.13-12.51l118.09-.71.16 11.88s-.18 5.2 1.07 5.68 2.64-.88 2.64-.88c-.35-.79-.57-18.6-.57-18.6z" fill="#c7c0b1"/><path d="M51.37 148.3c.12 0 .2 3.51.75 3.91s4.89.59 5.53.47 1.11-1.26 1.14-1.7.61-9.26.47-9.35-8.25 0-8.25 0zM74.8 145.93L72.9 121c.44-3.55 3.64-5.18 5.21-5.57s22.62-1.63 24.69-1.48 12.76-1.75 14.39 1.66 2 9.21 2.07 9.77 0 2-.06 2.25-33.36 25.64-33.57 25.58-8.5-.44-8.5-.44l.83-1.6-1-1.15.06-3.45-2.07.2z" fill="#fd8204"/><path d="M85.1 152.44s-.86-.83-.83-5.09-.18-18.06-.18-18.06a3.53 3.53 0 0 1 2.72-2c2-.24 36.71.12 36.71.12s1.84-.5 1.84 2.49 0 21.25-.06 21.61.86 1.33-1.48 1.54-38.51.54-38.72-.61z" fill="#e2ddd3"/><path d="M67.12 74.11l-.06-18.63a.89.89 0 0 0-.23-.55c-.15-.19-.7-.21-.7-.21l-18.25.08a1.08 1.08 0 0 0-.61.17c-.3.15-.3.74-.3.74v18.47s0 .53.13.68a.94.94 0 0 0 .53.15l18.84-.08a1.08 1.08 0 0 0 .5-.2c.13-.12.15-.62.15-.62zm-.52.3a.73.73 0 0 1-.47.16l-18 .08a.9.9 0 0 1-.51-.14c-.14-.14-.12-.65-.12-.65V56.2s0-.57.28-.71a1 1 0 0 1 .59-.16l17.46-.08s.53 0 .67.2a.86.86 0 0 1 .22.53l.06 17.83s.06.42-.19.6z" fill="#692f23"/><path d="M64.11 71.27V58.52a.6.6 0 0 0-.16-.38c-.1-.13-.49-.14-.49-.14l-12.79.06a.77.77 0 0 0-.43.12c-.21.1-.21.51-.21.51v12.63s0 .36.09.46a.67.67 0 0 0 .37.1l13.21-.06a.77.77 0 0 0 .35-.14c.04-.06.06-.41.06-.41zm-.37.2a.52.52 0 0 1-.33.11l-12.64.06a.64.64 0 0 1-.36-.1c-.1-.1-.09-.44-.09-.44V59s0-.39.2-.49a.74.74 0 0 1 .41-.11l12.24-.06s.37 0 .47.14a.58.58 0 0 1 .16.36v12.2s.11.31-.06.44z" fill="#692f23"/><path d="M66 56s-17.87-.07-18 0 0 17.9 0 17.9h18.09zM48.15 73.73s-.07-17.57 0-17.63 17.7 0 17.7 0L66 73.73zM67.12 104.67L67.06 86a.89.89 0 0 0-.23-.55c-.15-.19-.7-.21-.7-.21l-18.25.08a1.08 1.08 0 0 0-.61.17c-.3.15-.3.74-.3.74v18.46s0 .53.13.68a.94.94 0 0 0 .53.15l18.84-.08a1.08 1.08 0 0 0 .5-.2c.13-.07.15-.57.15-.57zm-.52.3a.73.73 0 0 1-.47.16l-18 .08a.9.9 0 0 1-.51-.14c-.14-.14-.12-.65-.12-.65V86.76s0-.57.28-.71a1 1 0 0 1 .59-.16l17.46-.08s.53 0 .67.2a.86.86 0 0 1 .22.53l.06 17.83s.06.42-.19.63z" fill="#692f23"/><path d="M64.11 101.83V89.08a.6.6 0 0 0-.16-.38c-.1-.13-.49-.14-.49-.14l-12.79.06a.77.77 0 0 0-.43.12c-.21.1-.21.51-.21.51v12.63s0 .36.09.46a.67.67 0 0 0 .37.1l13.21-.06a.77.77 0 0 0 .35-.14c.04-.06.06-.41.06-.41zm-.37.2a.52.52 0 0 1-.33.11l-12.64.06a.64.64 0 0 1-.36-.1c-.1-.1-.09-.44-.09-.44V89.58s0-.39.2-.49a.74.74 0 0 1 .41-.11l12.24-.06s.37 0 .47.14a.58.58 0 0 1 .16.36v12.2s.11.29-.06.38z" fill="#692f23"/><path d="M66 86.54s-17.87-.07-18 0 0 17.9 0 17.9h18.09zM48.15 104.3s-.07-17.57 0-17.63 17.7 0 17.7 0l.15 17.62zM104.78 135.9a1 1 0 0 1-.06-1.2 3.35 3.35 0 0 1 1-.87 2.2 2.2 0 0 0 .85-1v1.35a1 1 0 0 1 0 .37c-.11.29-.44.41-.73.54a3.36 3.36 0 0 0-1.07.79M78 151.17c-.08-.32-.19-.64-.62-.74v-3.28c0-.49-.26-.59-.36-.59l-14.05.08c-.82 0-1.33-.07-1.49.78a1.77 1.77 0 0 0 .35 1.51c.15.18.64.2 1.11.19V150.54a1.1 1.1 0 0 0-.49.43 4.08 4.08 0 0 0 0 1.26.73.73 0 0 0 .33.46 1.42 1.42 0 0 0 .47.21h1l.13-.22-.83-.08c-.12 0-.37 0-.44-.43a4.29 4.29 0 0 1 0-1.14s0-.11.46-.1 13.05-.22 13.35 0 .32.11.31.56 0 1.29 0 1.29h.87a10.9 10.9 0 0 0-.1-1.61zm-15.83-3.36a.52.52 0 0 1 .45-.54h14v1.08H62.88c-.4 0-.75-.17-.75-.54zm1.49 2.63v-1.34l13-.12v1.41z" fill="#692f23"/><path d="M41.11 153.45H143.7l.23-.71-104.48-.09-.95.06a.57.57 0 0 0-.36.56v1.67a.44.44 0 0 0 .49.5c.56 0 1.94-.07 2.12.13a2 2 0 0 1 .38 1.39c0 .86.09 55.24.09 55.24s0 1 1.63 1.18 1.73-.89 1.72-1.48.27-14.61.33-15.19 0-1.33.89-1.33 115.26.09 115.54.12.73-.09.8 1 .13 12.68.12 13.62a7 7 0 0 0 .47 2.72 1.61 1.61 0 0 0 1 .62 4.74 4.74 0 0 0 1.75-.56 13.63 13.63 0 0 0 .74-1.33l-.48-53-.73-.25s.32 53.08.17 53.36-.59.84-1 .71-.86-.22-.92-1.81S163 196 163 196a1.45 1.45 0 0 0-1.54-1.27c-1.45 0-115.61.07-115.69 0a1.68 1.68 0 0 0-1.51 1c-.37.92-.38 15.9-.38 15.9s.07.74-.83.83-.87-.43-.92-1.24-.18-55.36-.18-55.36-.13-1-.77-1.07a16.62 16.62 0 0 0-1.84-.07s-.37 0-.37-.77c.03-.53.26-.58 2.14-.5z" fill="#692f23"/><path d="M85.9 152.5a1.78 1.78 0 0 1-1-1.21c-.4-1.08-.34-20.37-.21-21.2s.38-2 1.84-2.13 36.5-.28 37.21-.12 1 .15 1 1.89.15 20.86.12 21.17-.24 1.86-2.58 1.92a13.62 13.62 0 0 0 2.31.33 1.91 1.91 0 0 0 .74-.33s.44-.33.47-1.42 0-22.05 0-22.05-.1-2.35-1.8-2.35-38 .12-38 .12-2.25.13-2.49 2.16.15 22 .15 22 0 1.29 1 1.57a5.86 5.86 0 0 0 2.46-.09s-1.02-.02-1.22-.26z" fill="#692f23"/><path d="M75.42 146.79s-2.26-22.25-2.07-24.9.67-4.17 3-5.24 6.28-1.52 13.23-1.66 22.85-.75 25.22 0 3.69 3.82 3.82 5.57 0 6.57 0 6.57h1v-.59l.15-.92a47.9 47.9 0 0 0-.3-6.31c-.33-1.12-1.55-4.84-4.83-5.48s-31.65.25-34.72.68S74 116 73 118.13s-.61 6.54-.44 8.67 1.84 19.89 1.84 19.89 1.06.41 1.02.1zM59.91 141.25a.37.37 0 0 0-.23-.27c-.3-.16-1.69.43-4.06.36a33 33 0 0 1-3.76-.3c-1.23-.21-1.15.24-1.15.24s.46 9 .65 10.27.8 1.2.92 1.3 5.62 0 6.1-.06.62-.41.77-1.15.9-9.89.76-10.39zm-1.42 9.53c-.16 1-.31 1.26-1 1.54a11.92 11.92 0 0 1-4.23 0c-.84-.22-1-.62-1-.62s-.52-9-.59-9.85a20.25 20.25 0 0 0 3.16.17l4.17-.18s-.35 7.95-.52 8.94z" fill="#692f23"/><path d="M188.14 71V53.8s.13-1-1.33-1.07S85 52.74 85 52.74s-.86 0-.89 1.24 0 60.33 0 60.33h-.83V54.1s-.24-2 1.36-2h102.31s1.54-.06 1.66 1.24.2 18.21.2 18.21zM41.61 155.67l101.56.23.17-.86-102.17-.26.44.89z" fill="#692f23"/><path d="M129.4 17.72s0-2.82 1.5-3.63 3.39-1.69 5.06-.77 3 2.13 2.88 3.44 0 1.72.44 1.81a12.57 12.57 0 0 1 4.79 1.67 38.21 38.21 0 0 1 7.3 6.76c1.34 1.88 3.48 5.81 3.61 7.21a9.19 9.19 0 0 1-.07 3 .74.74 0 0 1-1 .22c-.27-.21-9.35-1.74-21.32-1.4s-16.59.9-17.59 1.2-1.28.63-1.43.58-1-.63-.85-1.33 1.83-6.82 2.78-8.35 3.17-5 5.83-6.32 5.67-3.4 8.07-4.09z" fill="#cf8a59"/><path fill="#692f23" d="M44.96 194.99l-.06-39.47h-.69l-.14 41.32.89-1.85zM106.75 138.8a2 2 0 0 0 1.14 1.71 3.66 3.66 0 0 1-2 2c-.44.18-.89-.25-1.39-.25s-.93.45-1.33.29a3.65 3.65 0 0 1-2.35-3.41 2.78 2.78 0 0 1 1-2.37c1-.87 1.74-.14 2.68-.14s1.59-.85 2.66.15a3.63 3.63 0 0 1 .41.45 1.74 1.74 0 0 0-.82 1.57zM135.09 52.66l-.02 100.37.9-.06V52.61l-.88.05zM140.27 103c-.35 0-.45.2-.62.66a4.57 4.57 0 0 0-.11 1.26v8.06c0 .35 0 .79.36.92a.6.6 0 0 0 .68-.27 1.47 1.47 0 0 0 .21-.76c.11-3.27.1-5.77-.06-9 0-.35-.14-.8-.49-.77a.53.53 0 0 0-.55.38M130.56 103c-.35 0-.45.2-.62.66a4.57 4.57 0 0 0-.11 1.26v8.06c0 .35 0 .79.36.92a.6.6 0 0 0 .68-.27 1.47 1.47 0 0 0 .21-.76c.11-3.27.1-5.77-.06-9 0-.35-.14-.8-.49-.77a.53.53 0 0 0-.55.38M114.61 39.42c1.85.67 11.35 1.2 20 1.22A92.67 92.67 0 0 0 152.85 39c1.64-.46 2.89-.82 2.82-2.36s-.48-6.68-6.36-12.76-7.4-5.12-9.34-6.17c-.44-.23-.46-.18-.67-1.55a4.42 4.42 0 0 0-1.73-2.8 3.7 3.7 0 0 0-2.67-1.2L135 .57a.57.57 0 0 0-.64-.57c-.55 0-.6.76-.6.76l-.08 11.45a4.16 4.16 0 0 0-3.21 1.62 6.4 6.4 0 0 0-1.26 2.92s-.22 1-.93 1.22a53.25 53.25 0 0 0-4.95 2.03c-5.43 2.84-6.72 5.16-8.72 8.47s-2.84 8.38-2.53 9 .68 1.28 2.53 1.95zm37.65-1.1a53.54 53.54 0 0 1-9.48 1.05c-3.92.11-18.29.32-26-.38-2-.19-2.32-.65-2.36-1s.44-.53 1.18-.67 6.3-.69 9.46-.85c14.83-.73 23.22.22 23.56.26a26.24 26.24 0 0 1 3.92.55c.69.33.36.77-.28 1.05zm-19.73-24.6c2.3-.74 3.52-.07 4.16.38a5.17 5.17 0 0 1 1.74 2.41.9.9 0 0 1-.74 1.08c-.53.13-7 0-7 0a.73.73 0 0 1-.54-.75 3.55 3.55 0 0 1 2.38-3.11zm-15.81 13.45c3.37-5.73 10.19-8 13.39-8.47a28.61 28.61 0 0 1 12.3 1.05c4.13 1.37 10.42 10.09 11.67 13s.55 4.15.25 4.21-3.7-3.58-35.94-1a20.08 20.08 0 0 0-4.22.81c-.54.17-1 .41-1-.05s.18-3.83 3.55-9.55z"/><path fill="#fff" d="M212.21 69.05l-1.31.1.29 6.82 35.19.24.19-7.21-34.36.05z"/><path d="M211.19 93.2s-.31-1.19 1.21-2.27 5.61-1.69 9-.68a51.5 51.5 0 0 0 8.76 1.75c1.16.07 6.22-.87 7.45-.48s6-.85 6.78-.77 2.08.56 2.13.82.85 12.25-.53 14-7.45 4.74-7.91 5.28a10.89 10.89 0 0 0-1.38 2.32c0 .15-13.36.44-13.36.44s-.85-2.71-1.36-2.81-6.8-2.25-7.07-2.42-2.86-2.42-3-3.58-.72-11.6-.72-11.6z" fill="#d1e1e5"/><path d="M214.58 113.63s-1.43-.07-1.79.77-.36 1.48 0 1.74 5.66.39 5.86.39l30-.15s.58-.68.39-1.26-3.22-1.65-3.53-1.6-30.93.11-30.93.11zM212.23 116.63a7.17 7.17 0 0 0-2.59 1 4.66 4.66 0 0 0-1.69 3.73c-.12 1.86-.29 13.84-.29 13.84v70.62a13.5 13.5 0 0 0 5.52 1.11c3.44 0 38-.1 38-.1s2-.31 2.66-1.36.39-14.08.39-14.08v-69.26s-.44-4.5-3-5.13-8.28-.39-8.28-.39z" fill="#e8e8e8"/><path d="M253.53 117.87c-1-1.65-3.75-2-3.75-2l-.07-.69a2.52 2.52 0 0 0-1.87-2c-.58-.11-5-.14-10.55-.13a3 3 0 0 1 1.18-1.49c.88-.53 2.61-1.3 4-2.09a10.69 10.69 0 0 0 3.65-3 11.28 11.28 0 0 0 1-4.77V68.51s-.12-4.59-1.69-6.51-2.41-1.9-10.92-1.9V36.8s.08-.92-.65-1.16c-1.12-.37-29.12-.07-29.12-.07s-1.53-.14-1.57.9-.17 22-.17 22l.28 19.77s0 1.92 1.24 2c1.08 0 4.43.08 6 .1v20.68a11.38 11.38 0 0 0 1.15 5.22 9 9 0 0 0 4.1 3.17c1.21.48 4.05 1.15 5.22 1.86a2.42 2.42 0 0 1 1.39 1.89c-4.28 0-7.24.08-7.24.08s-2.37-.11-3 1.09a3.23 3.23 0 0 0-.24 1.09 2.67 2.67 0 0 0 .09.93 6.64 6.64 0 0 0-3.69 2.12 6.8 6.8 0 0 0-1.18 4.21c-.06 1.33 0 78.59 0 78.59s0 1.69.06 3.54a2.41 2.41 0 0 0 2.16 2.5s40.88.17 43.13.11 2.43-1.77 2.43-1.77l.06-2.32v-80.4a11.07 11.07 0 0 0-1.43-5.06zm-49.35-63.7s-.07-15.68 0-16.44c.06-1 .74-1.1.74-1.1l1.65-.07s24.95-.07 25.58-.1a1.06 1.06 0 0 1 1 .46c.24.22.22 1.4.22 1.4s.26 16.63-.14 17.26c-.23.37-1.33.32-1.33.32h-25.78a3.92 3.92 0 0 1-1.32-.22c-.63-.17-.62-1.51-.62-1.51zm6.29 25.05h-5.33s-.9-.06-.9-.9V58.44s-.07-1.66.79-1.68h27.12s1 .08 1.07.9 0 2.13 0 2.42c-8.17 0-17 .25-17 .25a6.53 6.53 0 0 0-4.44 1.57c-.1.1-.86.65-1.17 3.39.04.03-.14 12.44-.14 13.94zm1.07-13.43a5.27 5.27 0 0 1 1.1-3.14c1.25-1.32 3.41-1.39 4.46-1.43s24.78 0 24.85 0a3.76 3.76 0 0 1 2.84 1.85 14.69 14.69 0 0 1 1.21 5.37h-34.51zm0 3.66h34.55v6.19h-34.51c-.02-2.71-.03-4.97-.03-6.18zm0 7.15H246v14a5.24 5.24 0 0 0-2.32-.28c-1.36.14-4.11.91-5.38.8a15.35 15.35 0 0 0-4.16-.34 34 34 0 0 1-5.76.41c-2.6-.14-7-1.84-9.83-2a10.66 10.66 0 0 0-5.64 1.09c-.46.2-.94.35-1.2.47-.06-4.63-.1-9.9-.12-14.14zm8 32.88c-1.35-.44-4.37-1.18-6.07-2.72s-1.63-3.24-1.74-4.8c0-.53-.08-4.6-.13-9.74a8.14 8.14 0 0 1 2-1.05 11.32 11.32 0 0 1 4-1 31.13 31.13 0 0 1 6.57 1.43 24.41 24.41 0 0 0 5.92.91c1.38 0 4.31-1 6.1-.57a12.42 12.42 0 0 0 4.73.13c.8-.14 2.42-.88 3.69-.81s1.23.31 1.24.36l.14 9s0 4.14-1.42 5.7-4.69 3.21-6 3.8-2.53 1.55-2.63 2.93c-4.15 0-8.72 0-12.53.06a2.17 2.17 0 0 0-.42-1.5 6.88 6.88 0 0 0-3.36-2.12zm-6.54 5.28c0-.56.77-.5 2.06-.56s32.28.11 32.28.11 1.21.08 1.23.85-.09 1.11-1 1.13c-1.28 0-33-.27-33-.27a3.81 3.81 0 0 1-1.21-.09c-.36-.16-.42-.57-.36-1.17zm-2.57 3a9.36 9.36 0 0 1 2.4-.78c.38-.07 1.73-.15 1.73-.15h34.83s2 .29 2.61 1.31a4.8 4.8 0 0 1 .88 2.65c-.08.57 0 1.56-3.58 1.56h-39.57a1.49 1.49 0 0 1-1.22-1.6 3.56 3.56 0 0 1 1.89-2.96zm41.23 88.15s-40.35.17-41.67 0-1.5-2.18-1.5-2.18l-.06-2.5-.21-76.41a1.28 1.28 0 0 1 1.31-1.41h41.91s2.07-.15 2.1 1.48v78.4c.01 2.84-1.9 2.65-1.9 2.65zM99.49 128l-.07.26zM126.39 115.48zM149.34 152.76h10.79l-.15.71-10.85.01.21-.72zM148.75 155.1h10.87l-.15.69h-11l.28-.69zM189.89 49.78c-1.3-.06-105.21 0-105.21 0a3.28 3.28 0 0 0-2.49.59c-1.24.89-1 3.64-.95 3.79s0 60.45 0 60.45h1l-.12-60.45s-.33-3.4 2.43-3.61 104.56 0 104.56 0 1 0 1 .81v20.69l.89.18V51.14a1.21 1.21 0 0 0-1.11-1.36zM191.07 77.87V89.6l-.69-.66-.07-10.71.76-.36zM189.4 79.07l.07 9.33-.71-.42-.01-8.44.65-.47zM191.11 127.93l-.25 56.85v1.23l-25-.62v-1l23.49.73a.79.79 0 0 0 .83-.87l.33-56.34s.6-.74.6.02z" fill="#692f23"/><path fill="#692f23" d="M189.65 141.72l-.1 39.93-.68-.85.15-32.77.63-6.31z"/><path fill="#cb331e" d="M222.83 135.14h4.33v1.45h-4.33z"/><path fill="#aad1ef" d="M235.27 135.14h4.33v1.45h-4.33z"/><path d="M139.5 97.21s.23-.62.73-.29a6.88 6.88 0 0 0 1.19.58s-.47-.7 0-1.19.8-.92 1.4-.68a8.53 8.53 0 0 1 2 1.38c.33.34 1.81-.33 2.32-.07a9 9 0 0 1 1.43 1.14s.5.29.77.22.29-.68.75-.65.9.42 1-.56-.17-1.31 1.4-2.23a11.73 11.73 0 0 0 3.8-4.14c1.17-1.83 2.87-4.43 4.6-5.11s3.78-1.67 3.78-1.67l-.1-1.89a19.66 19.66 0 0 1 3.24-.1 20.26 20.26 0 0 0 6-.44c2.13-.52 4.39-1.43 4.5-1.43a22.84 22.84 0 0 1 .48 3c0 .16.22.16 1.16.48a50.34 50.34 0 0 1 6 3.17c1.05.73 4.21 1.61 6.39 4.84s1.87 4.43 2.66 5.66 3.24 4.76 3.65 6.63 1.73 4.54 1.23 6.78-1.52 5.52-2.42 6.63a21.28 21.28 0 0 1-4.62 3.56c-.71.3-.65 1.31-.68 1.81s.92 3.16-.12 4.07-4.13 1-4.26 1-5.57 1.29-6.41 1.14-1.84-.44-1.84-.44l-1.91-5.78s2.17-.13 2.77-.19 1.2-1.08 1.27-1.69-.47-4.56-.85-4.94a12.94 12.94 0 0 0-5.08-1.11c-1.5.08-4.63.74-5.11 1.45s-.83 1.28-.65 1.86a12.13 12.13 0 0 0 1.4 2.11s-.15.45 0 .58a2.17 2.17 0 0 0 .68.22s.4.85 0 .87-3.18.35-4.53-.6a56.63 56.63 0 0 0-9.07-4.31 44 44 0 0 0-5.69-.65l-.68-4a6.58 6.58 0 0 1-3.65-.15 16.19 16.19 0 0 1-2-1.16s-1.14.8-1.94.41-2.52-1.61-2.61-1.6-2.2-.59-3-.68-1.33-.28-1.31-1.19a13.84 13.84 0 0 1 .7-2.83s-1.26-.13-1.43-.82-.18-.85.22-1a4.86 4.86 0 0 0 2-2.47c.13-.91.41-3.36.41-3.36z" fill="#fff"/><path d="M181.23 128.59c-.09-.09-9.55.36-9.55.36l-.91 3.34a16.36 16.36 0 0 1 1.92 3.56c.51 1.58 1.47 7.73 2.54 8.35a16.59 16.59 0 0 0 4.13 1l8.28-.05a19.3 19.3 0 0 0 1.74-4.28 41 41 0 0 0-.62-5.55c0-.11.76-4.16.76-4.5s-.11-3.23-.11-3.23z" fill="#fd8204"/><path d="M155.23 115.7s-1.74-8-1.69-9.24.21-2.47 1.28-3 1.68-.82 2.18.15 2.13 9.66 2.13 9.75.73 3.75.73 3.75zM166.1 99.84a38.6 38.6 0 0 1 3.29 7.43c.87 3.25 2.66 7.91 2.66 7.91l1.52-.39 1.74-.56s-4.95-13.46-5.74-14.06a13.13 13.13 0 0 0-3.68-1.33c-.01.08-.08.33.21 1zM152.16 131.57L121.3 237.42a3.65 3.65 0 0 0 .94 1 13.77 13.77 0 0 0 2.32.29l.94-2.69 29.26-102.51z" fill="#c7c0b1"/><path d="M187.49 146.07c.05 0-2 8.19-2.06 8.25s-4.42-.22-4.69-.27-2.94.75-3 .68-1.39-4.84-1.28-5.9a1.39 1.39 0 0 1 1.6-1.19h3.32s5.34-2.18 6.11-1.57z" fill="#d2a274"/><path d="M174.59 122.93s3.77 11 9.42 25.77c12.53 32.74 33 85.13 33.2 85.16l1.88.25a16.19 16.19 0 0 0 .59-1.55c0-.25-42.36-109.81-42.25-110s-1.5-.79-2.84.37zM166.31 151.61l3.41 11.83 23.81 69.62a4 4 0 0 0 2.32-.51 3.86 3.86 0 0 0 1.67-2.32s-14.14-41.65-22.23-65.49c-.09-.28 1.64.07 1.55-.2s-2.11-1.44-2.25-1.85c-2.86-8.42-4.8-14.16-4.81-14.21s-2.32-.51-2.61.29-.86 2.84-.86 2.84z" fill="#c7c0b1"/><path d="M173.14 123a10.44 10.44 0 0 0-3.63 4.07c-.49 1-5.15 13-9.37 36.7-6.27 35.28-16.7 82.44-16.7 82.44a14.42 14.42 0 0 0 2-.15c.18-.11 1.23-1.09 1.23-1.09L170 135.85s1.23-6.68 2.25-8.35a8.66 8.66 0 0 1 2.18-2.76c.27-.03 1-3.99-1.29-1.74z" fill="#c7c0b1"/><path d="M172.58 122.7a27.56 27.56 0 0 0-2.47 2.9 34.76 34.76 0 0 0-2.64 6.33c-.33 1.27-3.92 13.87-4.28 16.41s-19.75 97.86-19.75 97.86l-.65.94-2.11-.73.65-3.56 22.37-103.08s1.43-8.17 2.24-9.15 1.6-5.23 3-7 2.65-2.11 3-1.89.81.08.53.93M152.76 116.2s-1.42-9.32-1.36-10 .27-3.24.92-4.09a7.26 7.26 0 0 1 2.68-1.61c.77-.4 5.22-2.35 6.39-2.35s3 .23 3.94 1.21 2.84 5.14 3.56 6.56 2.83 8.66 2.83 8.66v.77a5.93 5.93 0 0 1-.8.44c-.1 0-.45-.54-.56-.73s-3.93-10.79-4.26-11.18-2.09-2.76-3.36-2.73-4.73 1.48-4.82 1.5a22.59 22.59 0 0 0-3.22.92 1.81 1.81 0 0 0-1.11 2.3c.38 1.73 1.69 9.83 1.69 9.83zM152.16 131.57L121.3 237.42s-1.71 1.06-2 .15.94-3.92.94-3.92l30.27-102.87s1.49-.37 1.65.79zM150.09 148.45s10.58-.4 10.93-.22 1-3.16 1-3.16l-12.56 1.09a.81.81 0 0 0-.87 1.05c.21 1.13.64.48 1.52.51M148.07 208.94l-14.67-5.66s-1.09.29-.87 1.11 1.94 1.94 2.76 2.23 12.25 4.89 12.25 4.89zM166.57 154.48c.09.16 27 78.59 27 78.59s-.21 1.06-1.39.59-1.8-2.48-1.8-2.48L165.15 157s.18-4.74 1.42-2.52z" fill="#e2ddd3"/><path d="M173.39 124.92l14.78 39.53s-.27.84-.94.58-16.77-.44-16.77-.44l.31.72c.31.72 8.69.88 8.69.88l10 .36 5.47 16.31s-.27 1.37-.6 1.33-16.92-2.77-17-2.78-1.21-.25-1.14.29-.07 1.29.73 1.55 18.17 3.24 18.17 3.24 1-.07 1.36.51 5.28 13.5 5.28 13.5-.39.63-4.14-.29-14.75-2.89-15-2.86-1.25-.31-.87.6.7 1.36 2.11 1.69 18.8 3.61 18.8 3.61l6.41 15.8-21.32-4.82a2 2 0 0 0 .27 1.65c.53 1.06 3.3 1.49 3.94 1.67s18 3.85 18 3.85l5.08 12.75s1.69.28 1.72.1a3.07 3.07 0 0 0 0-1.36c-.18-.62-7.14-19-7.14-19l-6.95-17.69-6-14.64-7.64-20.42-13.38-35.53-.68-.7h-1z" fill="#e2ddd3"/><path d="M187.39 163.56c-.06 0-4.67 1-4.67 1s2.34.52 2.42.51l2.71-.17s.26-1.36-.46-1.34zM181.32 179c-.06 0-2.07-.22-2.25-.22s-3.41 1.67-3.41 1.67.41.93.9 1 18.44 2.9 18.44 2.9.33-1.6.07-1.81L193.3 181zM185.43 195.46c-.07 0-2 1.86-2 1.86l17.79 3.41s.38-1 .29-1-1.19-2.32-1.19-2.32zM187.83 213.12a4.1 4.1 0 0 0 0 .94c.07 0 21.25 5 21.25 5s-.91-2.7-.94-2.83a11.45 11.45 0 0 0-1.86-.65s-15.52-3.86-15.58-3.85-2.87 1.39-2.87 1.39z" fill="#c7c0b1"/><path d="M170.13 118.57s-.51-1.36.07-2a6.56 6.56 0 0 1 5.3-2c3 .22 4.65.45 5.12 1.2s1.32 4.76.87 5.41-.62 1.14-1.13 1.23-5.15-.27-5.26-.25a1.92 1.92 0 0 1-1.52.07 3 3 0 0 1-1.28-1.23 3.62 3.62 0 0 1-.93-.29c-.11-.13 0-.75 0-.75s-.58.08-.68-.44 0-.67 0-.67-.61-.19-.56-.28zM139.24 97.67l-1.71-4.86a18 18 0 0 0-1.63-1.56s-.36 2.14-.36 2.25v.58c-.16 0-3.92-3-4.46-2.76s-1.22.69-1 1.42c0 0-1 .71-1.09 1.16a4.13 4.13 0 0 0 .36 1.42s-.38-.18-.36.69a5.92 5.92 0 0 0 .44 1.85s-.44.31 0 1a11.44 11.44 0 0 0 2.65 2.25 10.3 10.3 0 0 0 2.47 1.27 8.77 8.77 0 0 0 1.85.07c.24 0 .33.34.51.51s.49.38 1.2-.44a4.66 4.66 0 0 0 1.13-4.85z" fill="#f9e5cc"/><path d="M167 126.74c0-.19-3.3-5.06-3.59-5.37s-2.65-5.35-6.79-5.12-5.9 1.32-6.68 2.9-2.09 6-1.16 7.7 2.32 3.9 3.67 4.72a13 13 0 0 0 5 1.16c.78 0 5.19-.24 6-1.05s.8-2 1.2-2.25 1-.13 1.38-.29a2.89 2.89 0 0 0 .97-2.4z" fill="#fd8204"/><path d="M154.77 133.53a12.47 12.47 0 0 0 1.77 2.3 35.19 35.19 0 0 0 5.3 1c.5 0 1.57.1 2-.24a5.78 5.78 0 0 0 1-2.44c0-.31-.38-2.94-.39-3.1s-2.73 1.6-4.74 1.62-5.58-.2-4.94.86z" fill="#d2a274"/><path d="M156.13 136.65c-.1 0-3.45 1.44-4.09 2.66s-1.37 2.3-1 3.41 1.31 3 2.27 3 6.9-.22 6.9-.22a12.93 12.93 0 0 0 1.6-.27c0-.07 1.67-4.89 1.69-5s0-2.46-.07-2.59-5.69-1.34-7.3-.99zM177.3 155.07a7.61 7.61 0 0 0-.85 2.3c0 .7-1.38 1.91-1.43 3.41a3.17 3.17 0 0 0 1.45 3.07c1 .57 3.34.67 4.65.7a42.24 42.24 0 0 0 5-.68c.1 0 1.57-.39 1.57-.39l-3.65-9.27s-5.77-.13-6.74.86zM131.08 90.55c0-.09-1.77-3-1.36-4.55s1.08-3.1 3-3 4-.36 4.38 1 .8 1.94.51 3.24a13 13 0 0 1-1.38 3.39c-.28.39-2.5.39-2.61.44s-2.12.33-2.54-.52z" fill="#efb000"/><path d="M131.73 91.29a9.45 9.45 0 0 0 1.67 1.56c.54.36 2 1.19 2 1.19a2.4 2.4 0 0 0 .07-.75c0-.35.11-1.84.12-2a10.09 10.09 0 0 0-3.86 0z" fill="#e2ddd3"/><path d="M219.46 233.28s-1.77.92-1.89.92h-2.52a1.67 1.67 0 0 0 .48 1.33 4 4 0 0 0 2.71.82c.53-.19 1.72-1.23 1.74-1.79a2.46 2.46 0 0 0-.52-1.28zM197.63 231.1s-3.22 2.15-3.34 2.18-3-.15-3-.15.36 1.22.76 1.41a10.2 10.2 0 0 0 3.95.46 4.26 4.26 0 0 0 2.08-1.84c.18-.58-.08-2.06-.45-2.06zM145.79 245.77s-2.37 1.52-3 1.38-2.4-.56-2.42-.36-.6 1.72-.1 2.13a7.08 7.08 0 0 0 3 .73 4.72 4.72 0 0 0 2.13-1 5.31 5.31 0 0 0 1.06-2.23c-.04-.26-.62-.94-.67-.65z" fill="#c7c0b1"/><path d="M168 144.89a5.63 5.63 0 0 0-.8 2.29c.05.47 2.05 1 2.72.91l10.66-1.09s.51-.83.33-1.13a4.5 4.5 0 0 0-.94-1.31c-.39-.19-11.97.33-11.97.33z" fill="#e2ddd3"/><path d="M159.88 56.46s-1.21 1.8-1.09 2.59.29 1.8.29 1.8l-1.38.56a18.18 18.18 0 0 1-2.71.68c-.58 0-2.42.06-2.42.06l-.12 2.76s-.23 7.22 3.28 11 7.49 6.26 11.86 6.15 9.16-1 11.23-2.48 4.61-4.12 5.13-5.47l.63-1.24a3.88 3.88 0 0 0 1.67-1.3c.52-.85 1-2.37.52-3.38a1.94 1.94 0 0 0-2.48-.9 3.32 3.32 0 0 0-1.32.62 24.2 24.2 0 0 1-3.4-2.76 38.94 38.94 0 0 1-2.07-3.89 2.06 2.06 0 0 1-1.61.45 16 16 0 0 1-2.88-.11 14.11 14.11 0 0 0-4-1 39.49 39.49 0 0 0-4.55.45c-.58.17-2 .51-2 .51l-.63-1s-1.37-3.65-1.95-4.1z" fill="#f9e5cc"/><path d="M166 67.78s-.21-1.28.65-1.75a5 5 0 0 1 3.67.23c1.09.47 1.82.86 1.75 1.15a2.18 2.18 0 0 1-1.42 1 14.68 14.68 0 0 1-2.94.11 7.12 7.12 0 0 0-1.31-.47c-.4-.05-.4-.27-.4-.27z" fill="#fff"/><path d="M167 66.14a1.87 1.87 0 0 0-.19 1.33 1.26 1.26 0 0 0 1.21.85 2 2 0 0 0 1.4-.79 1.25 1.25 0 0 0-.1-1.32c-.24-.31-1.84-.59-2.32-.07z" fill="#abd2f0"/><path d="M154.78 67.27c0-.08.06-1.3.79-1.43a3.93 3.93 0 0 1 2.19 0 2.62 2.62 0 0 1 1.51 1.16c.35.47.15.77.15.77s-.1.19-.75.34a3.17 3.17 0 0 1-1.9.17c-.63-.28-1.9-.37-1.99-1.01z" fill="#fff"/><path d="M155.53 66.44a1.21 1.21 0 0 0 .54 1.24 1.66 1.66 0 0 0 1.63.11 1.33 1.33 0 0 0 .38-1c0-.41.1-.85-.63-.94s-1.86-.2-1.92.59z" fill="#abd2f0"/><path d="M157.27 48.6s-2 2.5-2.61 3.46a15.27 15.27 0 0 1-2.92 2.59 11.76 11.76 0 0 0-2.86 4.74 9.25 9.25 0 0 0-.65 4.08 16.11 16.11 0 0 0-.78 4.51 14.62 14.62 0 0 0 2.06 5.72c.82 1 1.14 1 1.6 1.94a13.88 13.88 0 0 0 4.57 4.85 40.74 40.74 0 0 0 7.41 3.31 2 2 0 0 0 1.49-.19 5.8 5.8 0 0 0 .4-1.45c0-.34-.86-.26-1.35-.62s-4-1.22-6.14-3.91a26.06 26.06 0 0 1-4.12-6.37 42 42 0 0 1-.82-6.35 14.49 14.49 0 0 1 0-1.92 1 1 0 0 1 .9-.79 26.87 26.87 0 0 0 3.7-.49 9 9 0 0 0 2-.6c.15-.21-.11-1.67.13-2.59s1.07-1.56 1.18-1.94.53.83.88 1.52a11.47 11.47 0 0 1 1.07 3.14c-.1.39.67.15 1.45 0s4.78-1 5.87-.73 3.33 1 4.17 1.28a5.11 5.11 0 0 0 3.1-.29c.59-.38 1.14 1.17 1.18 1.24s2 3.5 3.51 4.34 2 .39 2.29.38 1.33-.49 2.13-.08A2 2 0 0 1 187 70a27.08 27.08 0 0 1-1.77 2.67 7.23 7.23 0 0 0-.86.58c-.08 0-1.24 3.55-3.43 4.91S178.7 80 178.7 80s.23 3.29.25 3.37a2.78 2.78 0 0 0 2-.24c.93-.49 4.34-1.54 5-1.92a42.5 42.5 0 0 0 4.78-3.21 26.57 26.57 0 0 0 3.72-4 11.5 11.5 0 0 0 1.28-5.11 46.66 46.66 0 0 0-1.24-8.72 18.73 18.73 0 0 0-3.54-5.19 53 53 0 0 0-6.08-4.66c-.3-.09-4-2.61-5.07-3s-4.25-1.37-4.88-1.62a6.42 6.42 0 0 0-2.76-.49 2.81 2.81 0 0 0-1.18.71 4.7 4.7 0 0 0-2.12-.68c-.9.06-3.81.64-3.81.64a6.61 6.61 0 0 0-2.46.11 12.19 12.19 0 0 0-5.32 2.61z" fill="#e09c51"/><path d="M160.15 51.16a3 3 0 0 1-1.21 1.35 15.36 15.36 0 0 0-3.46 2.71 8.16 8.16 0 0 0-1.59 4.47 6.6 6.6 0 0 0 .44 2.41h-1.57a49.71 49.71 0 0 1 0-5 19.72 19.72 0 0 1 2.71-6.41 16.74 16.74 0 0 1 3.34-3.23 21.34 21.34 0 0 1 3-1.11 23.66 23.66 0 0 1 3.63-.58 26.62 26.62 0 0 0 2.63-.41 3 3 0 0 1 2.15.26c.65.55.79.32.79.32a2 2 0 0 1 1.55-.73 5 5 0 0 1 4 2.27 35.89 35.89 0 0 1 1.81 3.52s-2.11-3.25-3.94-4-2.63.13-2.63.13.33 2.26.33 2.31a10.23 10.23 0 0 1-.08 2.46 3.6 3.6 0 0 0-3-3.27 5.23 5.23 0 0 0-4.52 1.37l.47-1.4a7.49 7.49 0 0 0-2.34 3.91c-.42 2.31-.36 7.93 0 8.59l.1.23a.26.26 0 0 1-.35.08c-.25-.09-.42-1.37-1-2.14a15.89 15.89 0 0 1-1.46-5c.11-.69.2-3.11.2-3.11z" fill="#e9b87f"/><path d="M120.81 238.24l3.41.85a2.7 2.7 0 0 1-.09 1.32 3.39 3.39 0 0 1-3 .85c-1.34-.21-2-.66-2.3-1.37a2.57 2.57 0 0 1 .13-1.75z" fill="#c7c0b1"/><path d="M153 53.72a21.16 21.16 0 0 0-1.73 3.37 8.6 8.6 0 0 0-.31 4.36c.33 1.05.25.3.25.3a8.15 8.15 0 0 1 .65-2.82c.56-1 .92-1.09.92-1.09s.81-3.65.86-3.7-.1-.95-.64-.42zM150.19 61.93A12.4 12.4 0 0 0 148 66a9.75 9.75 0 0 0 .21 4.66c.4 1.2 1.11 2.9 1.59 3.2s.65-.08.65-.08a10 10 0 0 1-1.45-4.14c-.29-2.44.88-6.41 2-7.33 0 0 .19-.51-.1-.51a1.09 1.09 0 0 0-.71.13z" fill="#e9b87f"/><path d="M168 63.68a13.09 13.09 0 0 1 2.14.16 6.53 6.53 0 0 1 1.8 1c.41.37.34.12.34.12a4.34 4.34 0 0 0-1.16-1.2 6.62 6.62 0 0 0-3.49-1s-.66 0-.73.4c-.05.13.01.43 1.1.52zM155.19 64.24s1.29-.47 1.66-.55a4.47 4.47 0 0 1 1.26-.06c.35 0 .59-.06.59-.27a.55.55 0 0 0-.54-.5 8.5 8.5 0 0 0-1.31.26 5.57 5.57 0 0 0-1.29.5 1.5 1.5 0 0 0-.48.48.13.13 0 0 0 .11.14zM171.37 66.56a6.52 6.52 0 0 0-3.17-1.09c-1.82-.17-2.26.7-2.37 1.2a6.46 6.46 0 0 0 0 .65 3.17 3.17 0 0 0 0 .74c.06.11.33 0 .48.06s1.44.39 1.82.46h.11a6.3 6.3 0 0 0 2.52-.11 3 3 0 0 0 1.44-.75c.26-.25.23-.4.23-.4s.07-.23-1.06-.76zm-4.26 1.53c-.29-.11-.73-.23-.87-.52a1.55 1.55 0 0 1 .45-1 1.38 1.38 0 0 0-.08.51 1.34 1.34 0 0 0 .65 1.11zm.09-.37a1.16 1.16 0 0 1-.28-.79c0-.2.08-.58.35-.62h.05a.32.32 0 0 0 .11.62.63.63 0 0 0 .67.54c.37 0 .65-.2.66-.53s0-.33 0-.33 0-.14.14-.19a.36.36 0 0 1 .4.19 1 1 0 0 1-.07.82 1.06 1.06 0 0 1-.91.63 1.3 1.3 0 0 1-1.12-.34zm4.42-.24a.57.57 0 0 1-.19.16 4.29 4.29 0 0 1-1.62.64 9.1 9.1 0 0 1-1.07.11 1.55 1.55 0 0 0 .89-.6 1.39 1.39 0 0 0 .18-1.11 1.45 1.45 0 0 0-.22-.49 9 9 0 0 1 1.93.91.55.55 0 0 1 .1.12.21.21 0 0 1 .01.26zM162.25 72.73a2.06 2.06 0 0 0 1.61-.29c.27-.18.38-.42.2-.54s-.47.06-.47.06a3.23 3.23 0 0 1-1.24.16 1.87 1.87 0 0 1-1.24-.41c-.2-.12-.28 0-.07.3a1.6 1.6 0 0 0 1.21.72zM159 68.08a2.17 2.17 0 0 1 .66-.06c.17 0 .29-.11.29-.21s-.13-.23-.25-.42-.33-.57-.5-.83a4 4 0 0 0-.81-.66l-.34-.2a3.78 3.78 0 0 0-1.39-.35 2.26 2.26 0 0 0-1.43.37 2.21 2.21 0 0 0-.62.88 1.37 1.37 0 0 0-.14.72c0 .17.28.3.28.3a5.33 5.33 0 0 0 1.41.69 5 5 0 0 0 1.67.11 3.63 3.63 0 0 0 1.17-.34zm-3.18-.22c-.18-.08-.66-.37-.66-.37a.56.56 0 0 1-.2-.64.23.23 0 0 1 0-.08.3.3 0 0 1 .26-.05c.12 0 0 .08.13.35a1.78 1.78 0 0 0 .52.81zm1.51-.25a1.1 1.1 0 0 1-1.24-.17c-.31-.32-.34-.45-.34-.69s.12-.47.12-.47 0-.07.07-.08h.1a.35.35 0 0 0 .1.65.59.59 0 0 0 .55.4.69.69 0 0 0 .73-.57.7.7 0 0 0-.2-.53h.41a.59.59 0 0 1 .22.35 1 1 0 0 1-.51 1.11zm.32.26h.06a1.13 1.13 0 0 0 .6-.81 1.37 1.37 0 0 0-.14-.84l.07.06a5.33 5.33 0 0 1 .88.85c.14.18.24.37.06.54s-.43.11-.62.11-.86.09-.86.09zM170.93 74.72a6.75 6.75 0 0 0-2.24.76 13.28 13.28 0 0 1-4.65.76 16.75 16.75 0 0 1-4.23-.89 5 5 0 0 0-1.37-.55.64.64 0 0 0-.52.3c-.17.35.07.48.14.48a4.07 4.07 0 0 1 .91-.11 3.74 3.74 0 0 1 .93.45 12.19 12.19 0 0 0 4.7 1.1 10.61 10.61 0 0 0 4.5-1.1 4.19 4.19 0 0 1 1.58-.66 2.58 2.58 0 0 1 .85.28.54.54 0 0 0 .54 0 .36.36 0 0 0-.06-.41 1.89 1.89 0 0 0-1.08-.41zM166.29 78a8.39 8.39 0 0 1-2 .17 5.06 5.06 0 0 1-1.91-.33 3 3 0 0 0-.4-.09c-.19 0-.16.12-.16.12a1.59 1.59 0 0 0 .66.59 5.31 5.31 0 0 0 2.69.3c1.21-.12 1.57-.75 1.54-.81s-.26 0-.42.05z" fill="#692f23"/><path d="M219.89 232l-32.31-83.39c.06-.28.18-.88.23-1.2a4.66 4.66 0 0 0 0-1.06 3 3 0 0 0-.05-.33c.31-.13.86-.53 1.28-1.79a23.12 23.12 0 0 0 .79-6c0-1.12-.76-2.64-.67-3a14.12 14.12 0 0 0 .73-3.43 12.67 12.67 0 0 1 .62-3.65c.22-.37 1-.39 1.85-1.18s.45-2.22.45-2.41-.08-2.24-.1-3a9 9 0 0 1 1.41-1 15.87 15.87 0 0 0 4.21-3.71 19.42 19.42 0 0 0 2-6.49 15 15 0 0 0-1.56-7.33c-1.31-2.95-2-4.63-2.61-5.22a28.14 28.14 0 0 1-2.78-5.43 11.66 11.66 0 0 0-3.15-3.49 7.77 7.77 0 0 0-1.4-1c-1.2-.72-7.14-3.77-7.41-4a.57.57 0 0 1-.23-.53 31.11 31.11 0 0 0 3.4-1.2l2-1 .54-.35c2.43-1.68 6-4.47 7.47-7.39a11 11 0 0 0 .72-6.6c0-.36-.21-2-.21-2.55a16.89 16.89 0 0 0-1.11-5.39c-1-2-2.77-4.17-6.38-7a28.29 28.29 0 0 0-8.11-5c-3.21-1.34-6.34-2.21-7.37-2.11a2.23 2.23 0 0 0-1.55.55 5.72 5.72 0 0 0-.89-.45 2.86 2.86 0 0 0-.94-.15 25 25 0 0 0-2.73.38c-.35.08-1.14.14-2 .22a3.56 3.56 0 0 0-1 .12l-.6.1a15.85 15.85 0 0 0-3.77 1.53 12 12 0 0 0-2.66 2.35 15.17 15.17 0 0 0-1 1.51 15.44 15.44 0 0 1-1.91 2c-.08.1-1.15 1-1.89 1.76a12.76 12.76 0 0 0-1.58 2.31s-.18.27-.17.28a9.46 9.46 0 0 0-.67 1.79 24 24 0 0 0-.78 3.23c-.45.79-.63 4.47-.63 4.47a13.18 13.18 0 0 0 .46 3.87 10 10 0 0 0 2 3.68c.21.26.36.33.41.41A24.15 24.15 0 0 0 152 77.5a22.49 22.49 0 0 0 3.23 3.09 41.8 41.8 0 0 0 4.29 2.57 12 12 0 0 0 2.38.58c.42.11.75.17.71.31a.4.4 0 0 1-.21.22 5.18 5.18 0 0 1-1.33.78 20.07 20.07 0 0 0-3 2.53 22.16 22.16 0 0 0-2.47 3.4 20 20 0 0 1-2.16 2.48 25.59 25.59 0 0 0-2 1.79 2.42 2.42 0 0 0-.62 2.15 1 1 0 0 0-.93 0c-.44.27-.39.66-.56.7s-1.25-1.22-1.68-1.35-2.11.14-2.61-.11-1.46-1.38-2.19-1.36a2.56 2.56 0 0 0-2.11 1.53s-.15-.53-.63-.41-.57.34-.93.21-.86-1.39-.88-2.4c0-.84-1.34-2.43-1.79-2.95.07-.11.15-.23.23-.38a8.52 8.52 0 0 0 1.26-5.15c-.21-2.61-1.83-2.95-2.91-3s-3.22-.34-4.38.59a3.69 3.69 0 0 0-1.39 3.58A9 9 0 0 0 131 91a1.11 1.11 0 0 0-.33 0 1.35 1.35 0 0 0-1.12 1.4 1.37 1.37 0 0 0 .07.47 1.25 1.25 0 0 0-1 1.24 1.49 1.49 0 0 0 .47 1.24c-.47 0-.59.66-.42 1.39a4.18 4.18 0 0 0 .42.94 1 1 0 0 0-.14.59 3.22 3.22 0 0 0 .36.85 2.87 2.87 0 0 0 .59.73 19.68 19.68 0 0 0 2.13 1.6 16 16 0 0 0 2.57 1.14c.91.23 1.85-.15 1.9.17s-.44.44-.34.88a3.38 3.38 0 0 0 1.7 1.54 5.23 5.23 0 0 0-.49 2.47 1.91 1.91 0 0 0 1.26 1.66c.34.14 1.85.27 2.39.48a24.73 24.73 0 0 0 3.45 1.68 7.15 7.15 0 0 0 1.77-.14 32 32 0 0 0 3.37 1.46 12.24 12.24 0 0 0 2.12 0c.28 1.52.56 3 .66 3.47a4 4 0 0 0-.84.5 8.81 8.81 0 0 0-3.12 4.35c-.93 2.89.11 6.73.42 7.77.12.24.31.57.63 1.21.27.34.44.63.4.82s-.25 1.58-.24 1.57c-.77 2.66-7.87 26.76-7.87 26.76-.13.44-.36 1.27-.36 1.27l-14.07 47.67-.27.93-.4 1.35c-.1.31-.23.79-.23.79l-7.44 25.4a9.14 9.14 0 0 0-.43 2.55c0 1.15 1.2 1.85 2 2.15a5.2 5.2 0 0 0 2.3.11c1.26-.2 2-1.8 2-1.8s9.38-32.24 9.4-32.29c.25-.65.53-.59.53-.59l1.47.53 3.13 1.29 4.51 1.85 2 .82 1.49.61-7.26 34.31c0 .39-.56 2.27.22 3s2.25 1 4.21.34a3.34 3.34 0 0 0 2.19-2.58l7.49-35.74q.08-.44.19-.92s.28-1.38.38-1.77l5.31-25.38s.88-4.1 1.07-5.09l1.24-5.95s.61-2.74.79-3.65l2.07-9.56s.2-.45.56.73l6.3 20.33L191 233.18a5.71 5.71 0 0 0 1.14 1.36 4.68 4.68 0 0 0 3.57.76 3.44 3.44 0 0 0 2.81-2.22 4.58 4.58 0 0 0-.27-2.43s-3.58-10.28-4-11.25.08-.76.08-.76 13.63 2.8 14.57 2.91a1.51 1.51 0 0 1 1.22.63l.67 2 3.85 10.63a3.67 3.67 0 0 0 2 1.63 3.05 3.05 0 0 0 2.75-.45 2.68 2.68 0 0 0 .87-3 3.31 3.31 0 0 0-.37-.99zm-.84.42a1 1 0 0 1-.71 1.28 1.24 1.24 0 0 1-1-.44l-17.39-44.28-6.35-16.79-9.77-24.82-8.31-23.25-.16-.3c-.15-.31-.33-.76-.18-.91a1.71 1.71 0 0 1 1.9.29c.51.59 2.08 5.6 2.44 6.65s5.48 13.92 5.48 13.92zm-42.92-112.27a3 3 0 0 0-1.52-.11c-.49.06-2 .35-2.19.42s-.88.29-.88 0 .35-.79 1-1a13.36 13.36 0 0 1 3.65-.72s.77-.19-.11-.35a9.07 9.07 0 0 0-3.65.55c-.69.32-1.09.62-1.35.46s-.13-.51.1-.81a4.22 4.22 0 0 1 1.42-1.21 7.58 7.58 0 0 1 2.31-.51h1.38c.07 0 .45-.29-.42-.46a6.3 6.3 0 0 0-4.21.8 7 7 0 0 0-1.05 1c-.15.14-.48-.14-.32-.62a2.2 2.2 0 0 1 .37-.69 5.38 5.38 0 0 1 3.08-1.66 31.79 31.79 0 0 1 6.36.48c.27.11.67 1 .76 1.38 0 0 .82 3.33.29 4a3.44 3.44 0 0 1-1.81 1.05 9.78 9.78 0 0 0-1.68-.38c-.56-.08-2 .06-3.15.07l-.74-.05s-1.1-.27-1-.61.48-.44.94-.51 1.89-.25 2-.24.61-.11.42-.28zm-10.49 8.54a1 1 0 0 1-1.07-.53s-.32-.52-.08-.9.76-1.5 1-1.46.34.7.62.87.76.42.76.42-.37 1.59-1.22 1.6zm.17 1.35c-.06.15-.45 1.42-.74 2.44l-.16-2.83a.7.7 0 0 1 .34-.17c.4-.03.65.35.56.52zm-18.57 30.41l.26-1h10.9l-.19.91zm10.79.84l-10 47.25c-1.12-.43-9.37-3.6-12.51-4.85L147 161.33zm-10.31-2.61l2.28-8.42s.28-1.54.9-1.63 9-.06 9.82-.06l-2.14 10.11zm2.4-11a1 1 0 0 1-.79-.73c-.11-.59 1.66-.59 1.66-.59a3.65 3.65 0 0 0 .76-.08l9.6-.45c-.1.33-.16.52-.17.52l-.26 1.21zm7-10.25l.1-.08-.1.08a3.29 3.29 0 0 1 1.1-.3 16.56 16.56 0 0 1 1.81 0l-.08.1c-.2.29-.94 2.86-1.12 3.14a.6.6 0 0 1-.65.28c-.27 0-3.12 0-3.45-.06s-.41-.11-.22-.53a33.65 33.65 0 0 1 2.63-2.58zm-.39-3.14c.81.56 3.71.61 3.78.58a7 7 0 0 1-2.26.68 2.94 2.94 0 0 1-1.76-.67s-.22-.25-.44-.54c0-.11.05-.45.7-.01zm-1.21 10.19c-.52-.32 0-.37.59-.28a10.06 10.06 0 0 0 2.06-.16h.05c.87-.06 1 .31 1.18.81s-.65.42-.65.42l-2.31.06a5 5 0 0 0-.9-.8zm-2.15-2.33c-.08.84-.52.64-.52.64-1.21-.5-1.25-.91-1.27-1.32a.64.64 0 0 1 .14-.38.54.54 0 0 1 .31-.16 4.62 4.62 0 0 1 1.15.11c.18.06.21.38.2.67s.03.29.01.49zm-.4 1.63a3.73 3.73 0 0 1 1.46 1.15 2.43 2.43 0 0 0 .5.43h-.7a7.77 7.77 0 0 1-1.83-1.32c-.53-.58.22-.31.6-.22zm1.8-.39c-.51-.18-.65-1.25-.67-1.47-.07-.46.15-.63.34-.67s3.41.15 3.87.14a.47.47 0 0 1 .51.42 5.87 5.87 0 0 1-.14 1.49h-.06a2.43 2.43 0 0 1-.6.17 9.54 9.54 0 0 1-3.24-.04zm.65-5.92c.8-.21.31.28-.51.9a3.2 3.2 0 0 0-1.12 1.71.75.75 0 0 1-.84.48 2.08 2.08 0 0 1-.58-.15c-.41-.3.22-1.05.22-1.05a7.13 7.13 0 0 1 2.84-1.85zm-1.05-.86c.07-.35.37-1.86.63-2s.87 1.59 1 1.63a.3.3 0 0 0 0 .11 10 10 0 0 0-1.63.3zm-1 .44a10.35 10.35 0 0 0-2 2.92 8.37 8.37 0 0 0-.48 1.77c-.15 1.08.11 2.6-.08 2.92s-.48.6-.56.59-1.34 0-1.82.74c2.24-7.68 3.69-12.64 3.75-12.78.28-.67.55-.67.76-.52a6.21 6.21 0 0 1 1.32 1.14c.17.45-.81 2.9-.88 3.26zm7.36 7.92a.85.85 0 0 1-.73-.7.49.49 0 0 1 .12-.48 2.38 2.38 0 0 0 .36-.08 4.4 4.4 0 0 1 1.14-.12 3.32 3.32 0 0 1-.18.93.67.67 0 0 1-.71.48zm.22-2.22c-.28 0-1 .25-1.15.11s-.17-1-.14-1.29.83-.08 1.35-.08 1.18.09 1.56.14l-.25.88a9.56 9.56 0 0 1-1.32.28zm1.49-2.22c-.15.22-.18.29-.51.31s-1.4-.1-1.57-.08-.6 0-.7-.11A6.69 6.69 0 0 1 160 139c.08-.35.71-1.22.85-1.69a4.25 4.25 0 0 1 1.34.48c.15.21.87.63.79 1a8.92 8.92 0 0 1-.53 1.78zm.32-3.9a6.32 6.32 0 0 0-2.87-.54l2.21-1.15c.31-.17 1.49-.84 1.88-.65a1 1 0 0 1 .49.65l-.12.42c-.35.64-.88 1.54-1.58 1.3zm-.18-2.78a17.33 17.33 0 0 1-4.75 0 3 3 0 0 1-1.34-.93 12.9 12.9 0 0 0 4.1.06 6.31 6.31 0 0 0 3.47-1.57c.76.13.59 1.46-1.47 2.47zm3.73-9a11.84 11.84 0 0 0-1.41-2.6.49.49 0 0 1 .17 0l1.88-.2a2.28 2.28 0 0 0 .53-.09 1.45 1.45 0 0 1 1.34.26c.48.51-.15 1.58-.73 2.36a8.82 8.82 0 0 0-.85 1.63 2.33 2.33 0 0 1-.92-1.31zM165 121a.39.39 0 0 0 .39-.39c.47.28.93.57 1.34.85.1.39-.68.36-.73.37s-1.08.11-1.35.11l-.38-.5-.14-1.54.68.37a.39.39 0 0 0 .18.74zm-.73-2.5a34.8 34.8 0 0 0-3.77-1.31c-.19-.78-1-4.19-1.22-5.65-.27-1.66-1.16-6.65-1.18-7a1.77 1.77 0 0 1 .87-1.87 13.23 13.23 0 0 1 3.34-1.17c1.07-.16 2.82 1.08 3.68 3s4.18 11.16 4.29 11.48l-.14.18a3.21 3.21 0 0 0-.42 2c.11 1 .48.82.6.87s0 .57.25.8a.74.74 0 0 0 .58.2s-.22.46 0 .65a1 1 0 0 0 .56.18s-.05.26.09.39a9.08 9.08 0 0 1-2.79-.14c-1.01-.27-3.24-1.9-4.77-2.64zm-.56 2.27c-.76-.81-.95-.92-1.15-1.15s-.58-.67.65-.17l.57.26-.07 1.05zm-8.73-9.35a28.93 28.93 0 0 1-1-4.77c0-1-.13-2.65 1.26-3.06a1.36 1.36 0 0 1 1.8 1.1c.15.59.51 3 .81 4.07.26.92 1.18 5.7 1.35 6.43.11.5.33 1.6.33 1.6a9 9 0 0 0-4-1.15 27.81 27.81 0 0 0-.58-4.25zm4.81-50.32a3.21 3.21 0 0 1-.29-1.88 2.8 2.8 0 0 1 .72-1.54 3.87 3.87 0 0 0 .32-.64s.24.76.42 1.4.79 1.72.94 2.09a4.45 4.45 0 0 1 .14 1.22 5.31 5.31 0 0 0 2.48-.42 16.57 16.57 0 0 1 3.24-.38 20.05 20.05 0 0 1 2.07 0 13.58 13.58 0 0 1 1.73.32 15.5 15.5 0 0 0 2.82.77 3.39 3.39 0 0 0 2.57-.55 15.63 15.63 0 0 0 1 2.1 19.17 19.17 0 0 0 2.73 3 15.82 15.82 0 0 0 1.26 1l.14.1a6.93 6.93 0 0 0 1.07.58c.15-.62.91-.75 1.09-.81s2.44-.44 2.38 1.33a5.08 5.08 0 0 1-1.78 3.4.81.81 0 0 1-.78.25 9.1 9.1 0 0 1-1.4 3 15.24 15.24 0 0 1-5.84 4.72 24.43 24.43 0 0 1-8.32 1.61 19.8 19.8 0 0 1-3.62-.26A15 15 0 0 1 159.7 79a20.78 20.78 0 0 1-4.26-4.72 15.72 15.72 0 0 1-1.81-4.1 22.21 22.21 0 0 1-.61-4.91c0-.44.08-2.59.08-2.59a.34.34 0 0 1 .34-.3l2-.08a6.16 6.16 0 0 0 1.69-.41 17.42 17.42 0 0 1 1.9-.53c.73-.18.72-.28.72-.28zm26.38 4.65a11.2 11.2 0 0 1 1.76 3 11 11 0 0 1 0 4.66c-.43 2.45-3.17 4.6-3.17 4.6s-.09-2.23 0-3.45a4.4 4.4 0 0 1 .44-1.72 5.68 5.68 0 0 1 .59-.6A7.23 7.23 0 0 0 187 70a3.07 3.07 0 0 0 0-2 2.34 2.34 0 0 0-1.5-1.08 11 11 0 0 0-2.66.29 1.15 1.15 0 0 1-.94-.44c-.6-.59-2.3-1.69-2.38-2.27 0 0-.13-.41.34-.42s2.85.19 2.85.19a8.58 8.58 0 0 1 2.25.28 5 5 0 0 1 1.17 1.18zM185.43 55s2 2.72 2.22 3a23.59 23.59 0 0 1 1.89 3.46 38 38 0 0 1 1.25 3.77 22.18 22.18 0 0 1 .41 2.84s-.58-.68-.94-1a11.6 11.6 0 0 1-2.26-1.94 10 10 0 0 1-1.37-2.24 7.93 7.93 0 0 1-.49-2.2c0-.47-.11-1.28-.14-2.38a15.85 15.85 0 0 0-.35-2.52 6.72 6.72 0 0 0-.22-.79zM176 81.33c.53-.19 1.05-.39 1.52-.6l.29-.14c.44 0 .39.32.39.32l.13 1.9zm1.88 2.15a3.2 3.2 0 0 1-.61.48 10.55 10.55 0 0 1-2.6.93 17.77 17.77 0 0 1 .7-3zm-9.28 14.35c-.33-.23-1.2-.86-2.13-1.62 1.09-.3 2.11-.55 2.38-.62a6.14 6.14 0 0 0-.08.89c0 .92.01 1.22-.17 1.35zm1.16-7.61s-1.81.69-3.13 1.24l-2-2.57c.23-.14 1.59-.67 3-1.22 1.02 1.24 2.09 2.52 2.13 2.55zm-3.52-5.14h.05c.28.07.61.14 1 .2 1.21.19 3 .38 3.76.44-.63.2-1.94.72-3.2 1.24zm2.21 10a22.72 22.72 0 0 0-2.46.79 14.33 14.33 0 0 1-2.3-2.26s1.19-.65 2.63-1.35zM167 91.89a24.75 24.75 0 0 1 3-1.25c-.31 1.2-.72 2.7-1 4 0-.22-1-1.47-2-2.75zm1.33-4.46c1.49-.55 2.91-1.06 3.16-1.15a1.65 1.65 0 0 1 .45-.1l-.07.1a12.55 12.55 0 0 0-1.57 3.4zm3.47-2.18a20.73 20.73 0 0 1-2.28-.2 2.49 2.49 0 0 0 .47-.91 5.24 5.24 0 0 1 .83-1.49 15.51 15.51 0 0 1 1.85 1.26c.18.16.94 1 1.15 1.17a10.35 10.35 0 0 1-2.05.17zm-2.73-1s-1.12-1.2-1.64-1.7h2.54zm2.78-1.93c.54-.09 1.05-.19 1.57-.29s.78-.17 1.19-.28l-.52 2.25s-1.63-1.29-2.27-1.66zm-6.69.09a.22.22 0 0 1 .19-.15l.52.11-.72.8a3.53 3.53 0 0 1-.02-.74zm1.41.31l2 2.16a9 9 0 0 1-3.08-1zm-.72 2.75l1.4 1.7-2.45 1-.33.12a16.35 16.35 0 0 1 1.35-2.8zm.14 6.26l-.37.17c-.84.41-1.87.9-2.31 1.17.25-1.3.57-2.79.85-3.78zm-.67 4.31l-2.08.75a2 2 0 0 1-.3-1.2 10.17 10.17 0 0 1 .2-1.6c.28.32 1.2 1.2 2.15 2.07zm.41.37c.75.68 1.46 1.3 1.84 1.58a8 8 0 0 1-3.52-.56 3.76 3.76 0 0 1-.45-.29 16.55 16.55 0 0 1 2.09-.71zm1.08 3s2.36.51 3.2 2.16 4.18 11.5 4.54 12.5a8.32 8.32 0 0 0-2.29.61c-.22-.87-2.71-10.42-5.4-14.19-.25-.27-.71-1.04-.09-1.03zm15 26.66l-1.43-2.27s0-.38.8-.08a8.44 8.44 0 0 0 1.73.42 11.65 11.65 0 0 0 2-.13l-1.94 3.2a.82.82 0 0 1-.38-.17zm.67 2.19c-1.09.07-2.37.11-2.44-.12s-1.6-5-1.6-5-.17-.95.76.29 2.15 3.12 2.15 3.12zm-1.84-5.47a3.17 3.17 0 0 1 1.27-.51c.13 0 1 .85.73 1.2a2.91 2.91 0 0 1-1.3-.24 2.38 2.38 0 0 1-.77-.4zm1.72-2.15a15.51 15.51 0 0 0-.55-3.37.3.3 0 0 0-.05-.1 4.76 4.76 0 0 0-.66-1.54s-.57-1-.21-1.22.88 0 1.35-.13.82-.29 1.14-.13 2.15 2.84 2.15 4.3a3.06 3.06 0 0 1-1.64 2.78c-.89.4-1.63.49-1.61-.54zm11.13 59.39c-.06.63-.87.39-.87.39s-10.75-2-11.54-2.16a1.58 1.58 0 0 0-.86-.09c-.34 0-.49-1-.49-1l-3.79-10.8c4.76.14 11.85.36 12.44.36.88 0 .93.42.93.42s4.16 12.29 4.11 12.92zm-3.29-13.28a1.42 1.42 0 0 1 .63.06l2.26 5.58s4 10.68 4.07 11.09.25.58-.08.79-.81-.08-.81-.08l-5.9-16s-.55-1.33-.24-1.4zm-7-5.22a10.48 10.48 0 0 1-1.9.32c-.41 0-2.21.23-2.5-.15a3.69 3.69 0 0 1-.2-2c.11-.19.58-.4.62-.41a6.85 6.85 0 0 1 3.92-.14 2.82 2.82 0 0 1 .35 1.35c-.06.45-.15.95-.36 1.07zm.25 1.35c-.07.38-.09.81-.61 1.07-.95.08-1.82.14-2.22.14a1.91 1.91 0 0 1-1.13-.45c-.46-.46-.44-.95-.11-1.05s1.42.11 2.16 0 1-.48 1.4-.42a.6.6 0 0 1 .44.75zm-6.14-8.56s-.17.28-.84 1.29-.28 2.39-1 2.92-1 3.37-1 3.37l-3.93-12.75s-.48-.59.34-.84a50.55 50.55 0 0 1 5.2-.32c-.38 2.38 1.16 6.36 1.16 6.36zm2.61-5.53a3.09 3.09 0 0 0 1.63.18l.24.6a1.3 1.3 0 0 1-.29.06 28.19 28.19 0 0 1-3.14-.07 4.88 4.88 0 0 1-1.43-.3v-1.28h1a14.15 14.15 0 0 0 1.92.84zm-.62-.9h1.27s.37 0 .74.59h-.5a6.39 6.39 0 0 1-1.58-.55zm-.53 8.91a7.55 7.55 0 0 1-1.13.38c-.62.08-.76-.45-.39-1.12a3.56 3.56 0 0 1 1.78-1.2 1.84 1.84 0 0 0-.4 1.14 1.51 1.51 0 0 0 .08.84zm-.12.72c-.12.21-.44.77-.61 1.12s-1 .62-1.33.76a2.12 2.12 0 0 0-1 .62 2.42 2.42 0 0 1 .21-.7 5 5 0 0 1 2.66-1.76zm.25.92a2.1 2.1 0 0 1 .82-1.26c.42-.12.83-.21 1.19-.28a9.57 9.57 0 0 1 1.11-.14 2.34 2.34 0 0 1 1 1c.22.58-1.34.46-2 .52a7.3 7.3 0 0 0-1.9.44c-.4.14-.41.03-.29-.24zm.35-2.67a2.82 2.82 0 0 1 .45-1l.11-.15a6 6 0 0 1 .7-.13 4.86 4.86 0 0 1 .56 0 1.66 1.66 0 0 1 .59.6 1.2 1.2 0 0 1-.08 1.11 12.63 12.63 0 0 0-2 .4c-.39-.08-.46-.34-.4-.79zm3 .33a3.42 3.42 0 0 0 0-1 1.16 1.16 0 0 0-.43-.66c.86.06 1.71.19 2.06.16l.59 1.47a9.11 9.11 0 0 0-2.3.07zm1.31-2.18a10.41 10.41 0 0 0-5.33.28s-.3-.67-.6-1.47a2.72 2.72 0 0 0 1.47.67 23.28 23.28 0 0 0 3.52 0 6.78 6.78 0 0 0 .7-.1l.25.62zm-4.68-1.31a2 2 0 0 1-1.56-.72l-.12-.38a7.66 7.66 0 0 1-.21-1.31 14.5 14.5 0 0 0 3.17 1.29 17.46 17.46 0 0 0 2.52.26l.29.73a13.62 13.62 0 0 1-4.17.17zm.6-2c-1.27-.31-1.34-.53-1.26-.53s1 .11 1.92.14 1.74 0 1.93-.05l.33.83a18 18 0 0 1-3-.3zm-4.77 12.54c.35.72 1.4.78 1.57 1.17l-4.24-.13c-.28 0-1.17-.21-1.08-.62.09.06 2.73-.24 3.68-.32zm1.19-1.37a4.3 4.3 0 0 1-.18-.7 1.66 1.66 0 0 1 .07-.29s0-.34.62-.8 1.47-.55 1.52-.35a9.3 9.3 0 0 1 0 1.77.93.93 0 0 1-.86.6 1.39 1.39 0 0 1-1.25-.13zm.76 1a2.33 2.33 0 0 1 1.4.07 2.62 2.62 0 0 0 .87 1.1 4.38 4.38 0 0 1-2.07-.68s-.47-.27-.28-.42zm6.27-6.09c.77 0 1.44 0 1.76.05l.29.72c-.05.09-.38.65-.68.72s-.56-.37-.72-.8a1.17 1.17 0 0 0-.73-.63zm3.07 4.77c-.38 0-1.28.24-1.68 0s-.44-1.11-.44-1.57-.09-.87.25-1.08a1.49 1.49 0 0 1 1.44.12l.82 2c-.08.15-.12.57-.47.6zm1.06 1.16c.19.64-.25.87-.67.94l-1.13.13s-.79 0-1-.35-.4-.76 0-1a5.28 5.28 0 0 1 2-.1 1.22 1.22 0 0 1 .74.45zm.45 1.22l.15.39s.12.45-1 .48c-.29 0-1.36-.06-2.9-.11 1.38-.19 3.01-.54 3.68-.69zm-13.08-38a3.28 3.28 0 0 1 .7-.4l8 22.17c0 .1.07.22.13.35l6.8 16.8h-1.19l-.39-1zm-1.72 3.59h2.09c.69 1.88 3.37 9.76 4.82 14a1.2 1.2 0 0 1-.62.61c-.48.14-3 .14-3.65-.39s-1.15-2.95-1.4-4.38-1-6.19-2.56-7.29c.25-1 .47-1.79.64-2.44zm-.46-.64l.13-.43a4.23 4.23 0 0 1 .84-1.43c.1.67.71.87 1.21 1.65zm.07 7.6c.39 1.49 1.24 4.66 1.4 5.78s.25 1.77.73 2l-6.14.17c.65-2.76 1.82-7.45 2.75-11.07a17.89 17.89 0 0 1 1.18 3.17zm-3.76 9c.65 0 10.89-.28 10.89-.28a1.15 1.15 0 0 1 .88.4l.24.72s.11.56-1.57.79-10 .51-10.11.51-1.29.48-1.07-1c0-.09 0-.23.08-.42s.21-.61.58-.63zm.67 3.31c.34.31 4.25 13.71 4.25 13.71-1.17.17-2.77.45-2.77.45l-3.83-11.41s-.08-1.85.62-2.3 1.32-.66 1.66-.36zm1.61 16.53c0-.11 0-.32.22-.35a4 4 0 0 1 .81 0l17.75.56c.73.66-.53.59-.53.59s-17.17-.37-17.75-.48-.58-.23-.58-.23zm.81.94l2.65.07c.64 0 .86.88.86.88s3.62 9.91 3.76 10.6-.95 1.11-.95 1.11l-2.18.88c-.27.08-.54-.58-.54-.58l-3.83-11.4-.21-.75s-.27-.72.36-.72zm4.87 13.87s1.42-.44 2.26-.76a4.12 4.12 0 0 1 2.19.11s12.37 2 12.86 2.27.42.7.51 1.24-.07.94-.73.93-3.5-.63-3.5-.63-13.65-2.5-13.8-2.58c-.6-.21.13-.49.13-.49zm-.1 1.88c.06-.34.62-.31.62-.31l12.89 2.19s4.45.77 4.58.87h.06a19.28 19.28 0 0 1 2.58.58c.48.22.67.49.37.76a2.25 2.25 0 0 1-1.1.28S179 183.32 177.86 183s-1.57-.65-1.52-1zm8.17 14.87s.57-.29 1.05-.51a2.58 2.58 0 0 1 .93-.21l13.28 2a1.3 1.3 0 0 1 .72.52c.31.55.65 1 .41 1.38a.69.69 0 0 1-.8.29c-.13-.06-14.07-2.91-14.87-3.07s-.79-.31-.79-.31zm-1.85-10.51c-.58-1.21 0-1.29 0-1.29s10.44 1.55 11.92 1.79a3 3 0 0 1 1.94.87s2.89 8 3.06 8.4.21 1-.08 1l-1.06-.14a4.2 4.2 0 0 0-.71-.09c-3.74-.5-11.16-1.47-11.51-1.63s-1-1.76-1-1.76-2.06-5.86-2.63-7.07zm14.65 1.54c-.14-.42 0-.76.31-.79a.89.89 0 0 1 .79.39c.13.22 1.07 2.36 1.07 2.44l3.83 9.31c0 .21 0 .7-.26.8a.81.81 0 0 1-.84-.16c-.81-1.67-4.84-11.52-4.97-11.9zm-20.19-4a11 11 0 0 0 1.85.42c1.56.16 1.94.94 1.94.94l3.16 8.82c.55 1.45-.33 1.82-.33 1.82a5.83 5.83 0 0 1-1.9.76 1 1 0 0 1-1-.63l-2.71-8s-.8-2.7-1.07-3.48-.01-.52-.01-.52zm5.07 13.94a2.18 2.18 0 0 1 1.1 0s18.22 3.52 18.57 3.54.88.12 1.29.19a.58.58 0 0 1 .37.54c0 .41-.08.53-.53.59-2-.36-19.81-3.56-20.29-3.8s-.9-.74-.58-.93zM207 215.27c-1-.22-14-3.18-14.94-3.44a1.55 1.55 0 0 1-1.1-1.07l-3.09-9-.24-.82 14.05 2.53a.15.15 0 0 0 .1.05c.65.17.72.55.72.55zm-24.67-15.07c.11-.29 1 0 1 0l3.1.6.47 1.36s2.65 8.26 2.65 8.66-.45.67-.45.67l-2 .8s-4.84-11.79-4.73-12.08zm6 13.06s1.12-.46 1.68-.72a3.11 3.11 0 0 1 1.26-.21l16.09 3.92a15.22 15.22 0 0 1 .93 1.68c.19.51-.42.55-.42.55l-19.29-4.63c-.48-.21-.19-.59-.19-.59zm15.67-8.88c0-.76.34-.72.34-.72s.55-.31.94.48v-.08c2.24 5.47 4.34 10.61 4.6 11.36.59 1.66 1 3.35.59 3.45a1.53 1.53 0 0 1-.8 0s-5.61-13.74-5.67-14.49zm-17.36-58.21l.46-.06a1.74 1.74 0 0 1-.14.9zm1.34-10c0 .06.2-.11.31-.27a5.47 5.47 0 0 1 .79 3.22c-.14 2-.31 4.69-1.52 5.67-.75.61-1.31.09-1.62-.39l-.56-1.44-4.84-12.44s-.56-1.18-.22-1.29 1.1.17 2 0 2.89-.87 4-1 2.36-.17 2.64.22a9.06 9.06 0 0 1-.06 4.27c-.31 1-.63 2-.72 2.55a3.41 3.41 0 0 0-.18.85zm.4-8.78a24.73 24.73 0 0 0-3.66.63h-.09c-.61 0-.86 0-.88-.21a12.67 12.67 0 0 1 .8-1.68l1-2a6.53 6.53 0 0 0 1-.08l2.61 2.7s.11.34-.77.59zm2.84-.46a3.43 3.43 0 0 1-1.07-.42 18.26 18.26 0 0 1-2.23-2.06s-.38-.44.34-.46a6.38 6.38 0 0 0 2.27-.67c.53-.27.84-.72 1.1-.42.09.1.09.06.06 0a5.59 5.59 0 0 1 .43 1.84 2.69 2.69 0 0 1-.89 2.14zm1.29-6.91s-1.05 1.73-1.73 2-.61-.8-.51-1.26-.08-1.77-.38-1.43-.21 2.51-1.05 3.2a7.71 7.71 0 0 1-4 .93 2.18 2.18 0 0 1-1.64-1.05c-.23-.34 1.1-.84 1.31-.51s0 .78 0 .93.38.57 1.05-.51a8.24 8.24 0 0 0 .63-4.84 7.13 7.13 0 0 0-2.32-3.79c-1.24-.82-2-1.31-1.81-1.56s.36-1 1.1-.76a5.91 5.91 0 0 1 2.53 1.43c.46.65.84 1.18 1.1 1s.17-1.05-.38-1.81a4.23 4.23 0 0 0-1.43-1.26c-.19-.08.34-.4 1-.25a9.55 9.55 0 0 1 2.13.5 3.05 3.05 0 0 1 .94.77 11.69 11.69 0 0 1 2.11 3.2c.52 1.34 1.63 4.05 1.36 5.05zm-3.75-31.25c1 .8 3.05 2 3.87 4.42a20.37 20.37 0 0 0 3 6.15 23.42 23.42 0 0 1 3.24 6.28c.42 1.47.25 7.22-.59 9.27a11.72 11.72 0 0 1-3.75 4.21c-.44.27-1.33.48-1.47-.72s-1.1-3.24-1.39-4.42a7.08 7.08 0 0 0-2.15-2.84s-.64-.54-1.31-1a.62.62 0 0 1-.16-.76c.27-.42.67-.8 1.85-.8s3 .42 3.37.42.91-.06.51-.38a8.67 8.67 0 0 0-2.91-.8c-.65 0-1.24-.13-.8-.63s2.48-.44 3.16-.42 1.45.19 1.64 0 0-.25-.59-.38a14.89 14.89 0 0 0-4.55 0c-1 .34-1.87.78-2.19.8s-2.13-3.75-2.49-5.1a18.18 18.18 0 0 1-.93-3.66c0-.82.48-1.73.25-1.81s-.46.17-.55.55-.11 1.1-.17 1.35-.42.15-.46 0a4.64 4.64 0 0 1-.29-2s-.44-1.16-.59 0 .74 3.07.93 3.58 3.1 6.72 3.24 7.2.76 1.43.42 2.11a4.86 4.86 0 0 0-2.15.46 6.64 6.64 0 0 1-1.9.84 4.56 4.56 0 0 0-2.65 2.49 2.77 2.77 0 0 0-.38 1.42s0 .28-.32.25a36.26 36.26 0 0 0-3.85-.67c-.36-1-4.1-11.64-5-12.92a5.3 5.3 0 0 0-3.23-2.48 12.18 12.18 0 0 0 1.53-.14s.48-.06.54-1.16.91-7.41 1.78-9a6.12 6.12 0 0 1 3.4-2.93l.21-.06c.66-.23 2.19-.62 2.77-.89s.62-.26 1.12-.47a1.72 1.72 0 0 1 1.14-.16c1.5 1.1 8 4.03 8.86 4.75zM179.28 83s-.25-2.34-.19-2.77.83-1 .83-1l1.11-.85a11.28 11.28 0 0 0 2.36-2.64c.16-.25.38-.61.6-1V75a8.84 8.84 0 0 1-1.28 5.34 6.48 6.48 0 0 1-3.42 2.61zm12.82-9.8a6.55 6.55 0 0 1-.86 2.75 6.44 6.44 0 0 1-1.15 1.73l-1 .9a17.24 17.24 0 0 1-6.28 3.24s-.48.11-.66.13c.33-.33 2.51-2.7 3.58-3.88a16.16 16.16 0 0 0 2.81-4.17 9.49 9.49 0 0 0 .17-5.09 9.77 9.77 0 0 0-1.56-3.06 13.15 13.15 0 0 1-.94-1.88 5.73 5.73 0 0 1-.22-1.1 6.58 6.58 0 0 0 1.37 2.53 10.31 10.31 0 0 1 2.23 2.77 10.44 10.44 0 0 1 .52 3.69 17.94 17.94 0 0 1-.13 1.87c0 .18.53-.26.54-2a17.8 17.8 0 0 0-.17-3.19 6.34 6.34 0 0 1 1.25 2 6.76 6.76 0 0 1 .5 2.76zM195 68v.17a10.13 10.13 0 0 1-.25 3.49 9.24 9.24 0 0 1-2 3.55l-.23.23a9.15 9.15 0 0 0 .08-4.21 23.56 23.56 0 0 1-.89-3.71 28.87 28.87 0 0 0-.6-4.12 11.72 11.72 0 0 0-.62-1.7s-.41-.78.41-.49 2 2 2.62 2.85a8.94 8.94 0 0 1 1.3 3c.08.41.18.7.18.94zm-7.22-15.24a22.92 22.92 0 0 1 5.22 5.82 13.61 13.61 0 0 1 1.59 5.68 10.45 10.45 0 0 0-1.35-1.87 16.21 16.21 0 0 0-3-2.3 16 16 0 0 1-2.14-2.5c-.71-1-1.62-2.53-1.84-2.85s-.59-.91-.77-1.2a23.72 23.72 0 0 0-1.74-3.54s3.31 2.15 4.03 2.75zm-6.94-4.6c2.32 1.26 3 3.21 3.68 5.75 0 0 .5 2.1.61 3s.13 1.75.15 2.09.09 2.12.11 2.62a.85.85 0 0 0 0 .18v.42a1.12 1.12 0 0 1-.23.89c-.33.3-1.84.32-1.84.32h-3.55a1.92 1.92 0 0 1-1.43-1 2 2 0 0 1-.35-1.63 10.05 10.05 0 0 1 .58-1.49 7 7 0 0 0 .52-2.24.24.24 0 0 0 0-.09 15.52 15.52 0 0 0 .18-3.63c-.19-1.7-1.72-5.72-2.83-6.53a9.89 9.89 0 0 1 4.4 1.33zm-14.26-2.36a6.36 6.36 0 0 0-1.74 2.51 8 8 0 0 0-.43 2.07 12.16 12.16 0 0 1 2.09-3.68 2.91 2.91 0 0 1 2.19-1.3c.57-.08.83 0 1.89.92a6.56 6.56 0 0 1 1.42 3.13 4.86 4.86 0 0 0-.78-3.42c0-.11 0-.35.57-.5a3.47 3.47 0 0 1 2.89.55 10.49 10.49 0 0 1 3.47 5.73c1 3.56.42 5.38.42 5.38a14.79 14.79 0 0 1-.67 2.53 3.09 3.09 0 0 1-2.34 1.72 4.21 4.21 0 0 1-2.15-.29 2.08 2.08 0 0 0 .52-.21 4.72 4.72 0 0 0 2.43-2.57 5.66 5.66 0 0 0 .23-3.34 8 8 0 0 1-1.08 3.62 3.83 3.83 0 0 1-2.11 1.89 2.4 2.4 0 0 1-1 .27 14.88 14.88 0 0 0-1.81-.48 5.26 5.26 0 0 0 1.32-1.33 4.07 4.07 0 0 0 .32-1.74c0 .25-.18.46-.56 1.22s-1.62 1.23-2.58 1.5a36.36 36.36 0 0 1-3.63.47c-.68.11-2.85.63-2.85.63a4.2 4.2 0 0 0-.37-1.08 15.6 15.6 0 0 1-.48-1.23l-1.12-3.28a8.72 8.72 0 0 1 .47-5.59 6.89 6.89 0 0 1 3.3-3.4 4.19 4.19 0 0 1 2.17-.71zm-11.71 6.5c.33-.62.79-1.19 1-1.62s1.17-1.53 1.17-1.53a8.17 8.17 0 0 1 4.1-2.57 7.88 7.88 0 0 0-2.57 2.26 2.65 2.65 0 0 0-.47 1.68 16.65 16.65 0 0 1 1.36-2 9.65 9.65 0 0 1 3.36-2.19 3.16 3.16 0 0 1 1.47-.25 6.57 6.57 0 0 0-3.11 2.4 7 7 0 0 0-1.36 3.81c0 1 .12 3.47.12 3.47a1.9 1.9 0 0 1-.41 1.08 4.14 4.14 0 0 0-.74 1.6 7.24 7.24 0 0 0 0 2.09c.12.5-.26.39-.42.35a3.78 3.78 0 0 1-1.71-1.35 3.34 3.34 0 0 1-.22-2.55c.08-.33.29-.58.24-.6s-.3.08-.49.41a4.56 4.56 0 0 0-.27 2.31c.16.76.6.91.65 1.48s-.24.68-.67 1a4.33 4.33 0 0 1-2.34.29c-.69-.09-.6-.45-.6-.45v-1.61a12.68 12.68 0 0 1 .19-2.15c.21-1.15.39-1.85.53-2.46a18.76 18.76 0 0 1 1.19-2.91zm-1.73 2.06s.15-.08.19 0 0 .16-.18.6a25.68 25.68 0 0 0-.6 3.06v1.88c.06.79.15 1.48.15 1.88a.66.66 0 0 1-.3.57.87.87 0 0 1-.94-.44s-.22 0-.34-1.07a7 7 0 0 1 .33-2.69 20.61 20.61 0 0 1 1-2.49 4.17 4.17 0 0 1 .69-1.32zm-4.28 7.23c.09-.43.37-1.75.45-2a12.58 12.58 0 0 1 .85-2.21l.07-.15c.19-.34 1-1.61 1.2-1.81s.52-.63.63-.59a.16.16 0 0 1 .11.12c-.06.11-.8 1.51-1 1.87a9.09 9.09 0 0 0-.55 1.82 12.89 12.89 0 0 1-.24 1.84 2.45 2.45 0 0 1-.5.89c-.3.38-.69.93-.91 1.28a2.49 2.49 0 0 0-.3.62 16.55 16.55 0 0 1 .19-1.69zm1.46 11.77s0 .24-.16.25-.52-.49-.52-.49a10.27 10.27 0 0 1-1.19-3.1c-.61-2.51-.35-3.21-.25-3.66a15.68 15.68 0 0 1 .82-2.22c.18-.34 1.35-1.92 1.35-1.92a.3.3 0 0 1 .38-.1 2.16 2.16 0 0 0 .47.6c.23.15.36.22.37.41s-.36.68-.58 1a4.56 4.56 0 0 0-.78 2.27c0 .29.06.14.16-.11a6.45 6.45 0 0 1 1.32-2 6.21 6.21 0 0 1 .67-.89c0 .23-.13 1.84-.2 2.34a7.3 7.3 0 0 1-.71 2.26 9.36 9.36 0 0 0-1 2.84c-.05.64-.15 2.51-.15 2.51zm1.61 3.07a8.16 8.16 0 0 1-1.14-3s.07-1.85.15-2.33a8.79 8.79 0 0 1 1-2.54c.11-.21.25-.81.59-.35s.25 3 .25 3.41a11.07 11.07 0 0 0 .45 2.8c.31.81.89 2.34 1.24 3a30.28 30.28 0 0 0 1.53 2.67 11.1 11.1 0 0 1-4.06-3.67zm8.77 6.26a10.51 10.51 0 0 1-4.13-3 19.72 19.72 0 0 1-2.12-4c-.72-2-.52-2.19-.44-2.22s.15 0 .34.33a16.77 16.77 0 0 0 3.06 4.29 14.31 14.31 0 0 0 6.12 3.71l.53.15c.45.25.38.5.41 1a.51.51 0 0 1-.41.58s-.78.13-3.35-.85zm-9.1 13.55c.45-.52 3.3-2 3.85-3.31.23-.25 1.8-2.87 2.86-4.41a8.13 8.13 0 0 1 2.69-2.38s2.71-1.57 4.28-1.4a56.62 56.62 0 0 0-2.28 7.05 29.36 29.36 0 0 0-.57 5 1.51 1.51 0 0 0 .62.89 5.42 5.42 0 0 0-1.43 0c-.88.15-2.79.67-4.29 1.13 0-.62.14-2.56.13-3.18s.08-1.81-.25-1.88-.44 3.3-.48 3.9-.08.72-.56.7-.37-1.11-.62-1.07 0 2.13 0 2.13a19.52 19.52 0 0 0-2.41 1.38 25.37 25.37 0 0 0-1.66-2.75s-.32-1.29.13-1.81zm-21.42-9.66a2.89 2.89 0 0 1 3.29-3.07c1.52.11 2.95 0 3.41 1.52a7.53 7.53 0 0 1-.55 4.51 6.31 6.31 0 0 1-.73 1.21 3.43 3.43 0 0 1-1.6.25c-1.65 0-1.9-.31-1.9-.31a6.29 6.29 0 0 1-1.92-4.12zm3.8 5.37a2.52 2.52 0 0 1-1.33-.29c-.29-.23-.19-.26 0-.27s.59.08 1.54.15c.75.05 1 0 1.13-.19-.11.41-.43.49-.53.88s.13.42.21.8a2.12 2.12 0 0 0 .36.7c-.75-.45-1.86-1.08-1.86-1.08l-.26-.27c0-.08.16-.1.61-.11s.49-.09.56-.19-.07-.15-.41-.14zm-3-.15a5.94 5.94 0 0 1 1.49.87l.73.42a26.14 26.14 0 0 1 2.44 1.4c.34.31.27.8-.2.84a10.25 10.25 0 0 1-3.14-1.07 3.83 3.83 0 0 1-2.08-1.88.72.72 0 0 1 .78-.59zm-1.19 1.88a1.19 1.19 0 0 1 .41.13 1.19 1.19 0 0 0 .44.29c.52.17 3.64 1.67 4.24 1.83a1.17 1.17 0 0 1 .93.81c.15.38-.27.79-.67.84a8.94 8.94 0 0 1-3.59-.76 8.75 8.75 0 0 1-2.11-1.91c-.44-1.17.12-1.22.4-1.24zm-.52 2.38a.23.23 0 0 1 .35 0 6.55 6.55 0 0 0 .88.8 7.2 7.2 0 0 0 2.86 1.24c.8.08 1.31 0 1.52.11s.1.39-.42.59a5.86 5.86 0 0 1-1.46.2 7.9 7.9 0 0 1-1.78-.39l-.16-.05a3.47 3.47 0 0 1-1.29-.92c-.38-.45-.64-1.34-.45-1.58zm2.07 4a5.42 5.42 0 0 1-1.57-1.26c-.2-.29.08-.44.39-.22a7.22 7.22 0 0 0 1.23.51h.09c.42.12 1.31.39 1.49.45.41.14.1.53-.18.61a3.84 3.84 0 0 1-1.4-.15zm5.15 2.06a4.82 4.82 0 0 1-2.61-.34c-1.35-.57-1.6-1.14-1.6-1.14-.07-.28.47-.1.76-.17s.55-.07.65-.42-.08-.39 0-.39a2.31 2.31 0 0 0 1.63-.56c.74-.63.17-1 .17-1a1.67 1.67 0 0 1 .45-.37 1.43 1.43 0 0 0 .53-1.21c0-.62-.65-.84-.65-.84a1.12 1.12 0 0 0 .53-.53c.22-.42-.08-.77-.42-1a3 3 0 0 0 .1-1.24 8.59 8.59 0 0 1-.21-1 5.2 5.2 0 0 1 1.64 2.19 12.66 12.66 0 0 0 .93 3.12 2.76 2.76 0 0 1 .51 1.94 12.82 12.82 0 0 1-.66 2.31 4.87 4.87 0 0 1-.42.72s-.44.61-.74.59-.08-.67-.54-.67zm.51 1.6c0-.23.88-.46 1.39-.93a4 4 0 0 0 .85-1.2 1.47 1.47 0 0 0 .06-.16 7.73 7.73 0 0 0 .35-2.3c-.08-.88 0-1.71.21-1.81a3.86 3.86 0 0 1 1.73.8 4 4 0 0 1 .67 1.73c0 .46-.15 3.79-.93 4.59s-1.18.78-1.85.46a4 4 0 0 0-1.39-.55c-.43-.05-1.09-.4-1.09-.64zm1.53 4.93c-.65-.18-.86-1.29-.62-2.11a3.37 3.37 0 0 1 .64-1.19c.27 0 .46.08.47.26a1.65 1.65 0 0 0 .25 1.1c.29.34.73.25.55.93.05-.01-.6 1.18-1.24 1zm6.8 2.22a4 4 0 0 1-2.47-.67c-.2-.35-.24-.55.28-1s.81-.77.59-.87-1 .76-1.46.87-2.41-.08-2.44-.34.29-.59.76-1.18c.09-.11.12-.18.1-.22.21-.47.74-1.66 1.46-3.4a10.56 10.56 0 0 0 .72-5.77c-.29-.65-.15-.86-.38-1.14s-.29-.27-.42 0-.58.08-.58.08a1.72 1.72 0 0 1 .9-1.15c.7-.27 1.81.63 2.36 1.57a9.42 9.42 0 0 1 1 2.13c0 .28.24.18.11-.53s-.49-1.56-.34-1.77 1.56-.55 2 .31.48 5.07.57 6.51a15.89 15.89 0 0 1-.78 4.63 3.74 3.74 0 0 1-1.94 1.93zm3.62 1a3.83 3.83 0 0 1-1.61-1c-.2-.2-.14-.42.18-.73a9.53 9.53 0 0 0 1.43-4.38 30 30 0 0 0-.28-6.12c-.15-.39-.37-1-.14-1.1s.72.06 1.12 1.26a37.65 37.65 0 0 1 1.52 4.6 17.53 17.53 0 0 0 0 5.77c.08.54.2 1.19.31 1.86a9 9 0 0 1-2.48-.22zm2.52-8.51a6.08 6.08 0 0 0-.77-2.44c-.13-.29-.76-1.8-.87-1.94s-.32-.6.11-.79 1.33.76 1.71 1.54.79 1.52.88 1.68a5.64 5.64 0 0 0-1.02 1.89zm.46 3c-.08-1.91.46-3.8 1.35-4.55s5.85-2.63 7.92-3a4.55 4.55 0 0 1 3.71 1.35 13.68 13.68 0 0 1 2.92 4.24 102.44 102.44 0 0 1 3.76 10.6 4.64 4.64 0 0 0-.72.44s-3.43-10.38-5.31-13.11a3.33 3.33 0 0 0-3.59-1.6 21 21 0 0 0-4.52 1.64c-1 .42-2.46.53-3.26 1.14-1.14.87-1 2.16-.79 4.44s1.4 6.83 1.38 7.72a10.36 10.36 0 0 0-1.61.32C153 114.7 152 108 152 106.28zm-2.3 14.21a5.85 5.85 0 0 1 4.3-3.79 8.7 8.7 0 0 1 6.54 2.08c1.54 1.46 3.19 4.66 3.87 5.17s.65.67.65.67-.79 1.26-.79 1.35a3.29 3.29 0 0 1-.53-1.35c0-.49-.28-.59-.36 0s-1.38-2-1.69-1.8 1.17 2.84 1.46 4.16a3.8 3.8 0 0 1-.31 3.12 3.17 3.17 0 0 1-2.84 2c-1.53.06-5.29.25-7.13-1a8.44 8.44 0 0 1-2.95-3.12 10.49 10.49 0 0 1-.18-7.57zm-29.57 119.66a.29.29 0 0 1-.16.07l-.12-.07a2.14 2.14 0 0 1-.49-.6c-.26-.76.08-1.17.22-1.24s.44.18.35.74.4.96.2 1.1zm0-2.63c-.48-.16-.37-1.1-.31-1.47 3.61-12.94 30.71-104.4 30.76-104.35s.2-.56.65-.42a5.25 5.25 0 0 1 .41.34c.16.16 0 .65 0 .65S121.31 235.84 121 236.85c-.24.65-.66.76-.93.75zm3.74 2.41a1.54 1.54 0 0 1-1.78.68c-1.29-.55-1.24-1.36-1.11-1.64a.37.37 0 0 1 .42-.19l2.26.47s.26 0 .33.11.08.27-.1.56zm.86-2.6c-.25.87-.65 1-.79 1.07a5.48 5.48 0 0 1-1.74-.51c-.51-.28-.28-1.07-.28-1.07s18-61.77 26.24-89.95a1.73 1.73 0 0 0 .55 1.67c.62.45.37.76.06 2.36s-14.38 52.23-14.38 52.23l.21.09-.21-.09a1.59 1.59 0 0 0-2.3.91 1.36 1.36 0 0 0 .61 1.73l1 .39c-.85 2.9-8.71 30.35-8.95 31.17zm8.66-32.19c-.42-.23-.74-.8-.42-1.14s1 0 1 0l13.9 5.48-.24 1.36c-1.1-.47-13.82-5.48-14.22-5.7zm9 43a.42.42 0 0 0 0 .09c-.32.59-.7.66-1.2.34s-.32-.89-.17-1.28a.72.72 0 0 1 .64-.13c.41.12.89.56.76.97zm.22-1.6c-.22 0-1.33-.34-1.33-.34s-.08 0-.11-.21L162 147.7s1.52-7.15 1.68-7.92 2.51-8.68 3.06-10.14a49.29 49.29 0 0 1 1.85-4.83 5.55 5.55 0 0 1 1.62-2 2.56 2.56 0 0 1 .89-.52c1.91-.45.88.6.88.6a9.37 9.37 0 0 0-2.64 3.48c-2.19 4.41-5.84 18.7-5.84 18.7s-18.63 91.86-20.66 101.47a.43.43 0 0 1-.26.07zm2.88 1.19c-.81 1.32-1.57 1.07-1.57 1.07-.2-.09-.27-.37-.29-.7a1.27 1.27 0 0 1 .12-.47 1.4 1.4 0 0 1 .6-.76c.5-.32.87-.71 1.28-.44s.08 1.02-.1 1.29zM162 170.08l-15.83 74.84-1.84 1.08s-.38.25-.35-.38c2.07-10.29 18.45-91.62 18.71-92.88s3.06-15.05 5.45-21.17c2.23-5.71 2.95-6.37 3-6.45a7.78 7.78 0 0 1 1.75-1.47c.42-.2.79-.38 1 .17.06.22-.65.76-1.24 1.52s-2.47 5.78-3.71 10.39-6.94 34.35-6.94 34.35zm29.5 62.31l-18.6-52.88s-6.78-22.24-6.84-22.41a3.5 3.5 0 0 1 .06-2.08c.37-.65.53.11.79 1.24s3 9.62 3 9.59l.53 1.78 6.49 19.94 9.86 27.38 1.07 3c.76 2 4.82 13.09 4.93 13.87s.06 1-.42 1.1-.91-.54-.91-.54zm1.33 1.88c-.18 0-.49-.26-.65-.61l.87.16c.13.08-.05.4-.25.45zm4.89-2.47s.41.77-.67 1.71c-1.49 1.29-2.46.77-2.46.77-.19-.12-.07-.49 0-.64a21.51 21.51 0 0 0 2.61-1.76c.27-.28.48-.08.48-.08zm-.83-1.39c.13.69-.13.88-.13.88a7.68 7.68 0 0 1-1.77 1.39.65.65 0 0 1-.84-.29l-5.45-14.69c-.06-.22-.08-.46.11-.45a14.66 14.66 0 0 1 1.81.52 19.79 19.79 0 0 1 2 .63c.36.19.63 1.26.63 1.26s3.48 10.05 3.61 10.75zm13.9-9.35a3.15 3.15 0 0 1-1.26-.08l-18.62-4.09-2.44-.79c-.48-.23-.63-1-.13-1.19a3.69 3.69 0 0 1 1.18.21s21.33 4.78 21.44 5.05.04.74-.21.88zm4.51 12.78c-.27-.6-3.63-10-3.63-10-.08-.23-.65-1.75-.34-2s.8.17.8.17 4.19 11.08 4.32 11.67c.08.36-.35.56-.5.56a.59.59 0 0 1-.68-.41zm1.09 1.94a3 3 0 0 1-1-1.15s.79.58 1.26.52c.07.14.13.31.18.45s-.22.33-.47.17zm2.71-.87a1.09 1.09 0 0 1-1.77.19 5 5 0 0 0 1.46-.77l.33-.21a.79.79 0 0 1-.05.78z" fill="#692f23"/><circle cx="167.4" cy="66.62" r=".33" fill="#fff"/><circle cx="156.19" cy="66.51" r=".33" fill="#fff"/><circle cx="167.31" cy="123.49" r=".46" fill="#692f23"/><circle cx="182.59" cy="125.17" r=".4" fill="#692f23"/><circle cx="186.28" cy="125.93" r=".36" fill="#692f23"/><circle cx="190.62" cy="124.71" r=".33" fill="#692f23"/><path d="M246.93 148.23l-.22-16.31a5.56 5.56 0 0 0-1-2.94c-.8-1.08-2.65-1.16-3.5-1.16h-23.79a2.87 2.87 0 0 0-2.23.84c-1 1.17-.85 3.06-.84 4.66l.09 16.1a4.2 4.2 0 0 0 1.08 2.91c1 .85 3.68.76 3.68.76l23.26-.15a4 4 0 0 0 2.47-.94c1.12-1 1-3.77 1-3.77zm-30.7-17s0-1.61.71-2.17a3.77 3.77 0 0 1 2.51-.51h23.19s1.78 0 2.42 1a5.33 5.33 0 0 1 .89 3.09c0 1 .13 12.36.17 15.7a.9.9 0 0 1-.31.53.93.93 0 0 1-.65.22h-27.81c-.61 0-.76-.07-1-.25s-.17-.54-.21-.71v-14.85zm29.41 20.08a3.61 3.61 0 0 1-2.31.86c-.74 0-23.92.05-23.92.05a4.87 4.87 0 0 1-2.29-.57 2.35 2.35 0 0 1-.84-1.21c-.12-.65.34-.58.34-.58s28.86-.08 29.11-.07a.35.35 0 0 1 .34.31 2 2 0 0 1-.43 1.23z" fill="#692f23"/><path d="M227.66 140.37c-.52-.88-1-1.48-1-1.48v-1.75s.07-.2.24-.21h.59V135h-5v1.94h.61a.28.28 0 0 1 .14.21v1.75a15.37 15.37 0 0 0-1 2 1.62 1.62 0 0 0 0 1.17c.26.44.88 1 2.81 1.08a2.72 2.72 0 0 0 2.86-1.6 1.86 1.86 0 0 0-.25-1.18zm-4.56-5h3.85v1h-3.85zm2.85 1.52a.28.28 0 0 1 .14.21v1.75h-2.18v-1.75s.07-.2.24-.21zm1.16 4.87c-.31.54-1 .69-1.93.71a3.3 3.3 0 0 1-2.12-.64 1 1 0 0 1-.06-1c.07-.15.34-.66.56-1.13a.78.78 0 0 1 .45-.37 4.28 4.28 0 0 1 1.94 0 1.3 1.3 0 0 1 .65.47 11.62 11.62 0 0 1 .62 1.18.91.91 0 0 1-.11.82zM240 140.37c-.52-.88-1-1.48-1-1.48v-1.75s.07-.2.24-.21h.59V135h-5v1.94h.61a.28.28 0 0 1 .14.21v1.75a15.37 15.37 0 0 0-1 2 1.62 1.62 0 0 0 0 1.17c.26.44.88 1 2.81 1.08a2.72 2.72 0 0 0 2.86-1.6 1.86 1.86 0 0 0-.25-1.18zm-4.56-5h3.85v1h-3.85zm2.85 1.52a.28.28 0 0 1 .14.21v1.75h-2.18v-1.75s.07-.2.24-.21zm1.16 4.87c-.31.54-1 .69-1.93.71a3.3 3.3 0 0 1-2.12-.64 1 1 0 0 1-.06-1c.07-.15.34-.66.56-1.13a.78.78 0 0 1 .45-.37 4.28 4.28 0 0 1 1.94 0 1.3 1.3 0 0 1 .65.47 11.62 11.62 0 0 1 .62 1.18.91.91 0 0 1-.1.82z" fill="#692f23"/></g></g></svg>