<svg xmlns="http://www.w3.org/2000/svg" width="70" height="70" viewBox="0 0 70 70"><title>офис</title><g id="Слой_2" data-name="Слой 2"><g id="Слой_1-2" data-name="Слой 1"><rect width="70" height="70" fill="none"/><rect x="13.19" y="9.96" width="9.86" height="46.06" fill="#d9d6cc" stroke="#692f17" stroke-linejoin="round" stroke-width="1.5"/><rect x="15.45" y="12.76" width="5.34" height="21.73" fill="#f5f4f0" stroke="#692f17" stroke-linecap="round" stroke-linejoin="round" stroke-width="0.75"/><circle cx="18.12" cy="50.67" r="2.09" fill="#fd8204" stroke="#692f17" stroke-linejoin="round" stroke-width="0.75"/><rect x="23.05" y="9.96" width="9.86" height="46.06" fill="#d9d6cc" stroke="#692f17" stroke-linejoin="round" stroke-width="1.5"/><rect x="25.3" y="12.76" width="5.34" height="21.73" fill="#f5f4f0" stroke="#692f17" stroke-linecap="round" stroke-linejoin="round" stroke-width="0.75"/><circle cx="27.97" cy="50.67" r="2.09" fill="#fd8204" stroke="#692f17" stroke-linejoin="round" stroke-width="0.75"/><rect x="32.9" y="9.96" width="9.86" height="46.06" fill="#d9d6cc" stroke="#692f17" stroke-linejoin="round" stroke-width="1.5"/><rect x="35.16" y="12.76" width="5.34" height="21.73" fill="#f5f4f0" stroke="#692f17" stroke-linecap="round" stroke-linejoin="round" stroke-width="0.75"/><circle cx="37.83" cy="50.67" r="2.09" fill="#fd8204" stroke="#692f17" stroke-linejoin="round" stroke-width="0.75"/><rect x="42.76" y="9.96" width="9.86" height="46.06" fill="#d9d6cc" stroke="#692f17" stroke-linejoin="round" stroke-width="1.5"/><rect x="45.01" y="12.76" width="5.34" height="21.73" fill="#f5f4f0" stroke="#692f17" stroke-linecap="round" stroke-linejoin="round" stroke-width="0.75"/><circle cx="47.69" cy="50.67" r="2.09" fill="#fd8204" stroke="#692f17" stroke-linejoin="round" stroke-width="0.75"/><rect x="52.61" y="9.96" width="9.86" height="46.06" fill="#d9d6cc" stroke="#692f17" stroke-linejoin="round" stroke-width="1.5"/><rect x="54.87" y="12.76" width="5.34" height="21.73" fill="#f5f4f0" stroke="#692f17" stroke-linecap="round" stroke-linejoin="round" stroke-width="0.75"/><circle cx="57.54" cy="50.67" r="2.09" fill="#fd8204" stroke="#692f17" stroke-linejoin="round" stroke-width="0.75"/><rect x="7.55" y="26.89" width="28.8" height="33.15" rx="1.69" ry="1.69" fill="#f5f4f0" stroke="#692f17" stroke-miterlimit="10" stroke-width="1.5"/><path d="M34.64,27H9.22a1.69,1.69,0,0,0-1.69,1.69v4h28.8v-4A1.69,1.69,0,0,0,34.64,27Z" fill="#fd8204" stroke="#692f17" stroke-linejoin="round" stroke-width="1.5"/><path d="M11.26,33.66a.89.89,0,0,1-.9.89h0a.89.89,0,0,1-.89-.89V31.22a.9.9,0,0,1,.89-.9h0a.9.9,0,0,1,.9.9Z" fill="#f5f4f0" stroke="#692f17" stroke-miterlimit="10" stroke-width="0.75"/><path d="M34.24,33.66a.89.89,0,0,1-.9.89h0a.89.89,0,0,1-.9-.89V31.22a.9.9,0,0,1,.9-.9h0a.9.9,0,0,1,.9.9Z" fill="#f5f4f0" stroke="#692f17" stroke-miterlimit="10" stroke-width="0.75"/><path d="M17.13,46.14c.93-.66,2.25-1.3,2.25-2.61a1.54,1.54,0,0,0-1.6-1.65c-1.28,0-1.7,1.33-1.7,2.46H14C13.92,41.89,15.31,40,17.88,40a3.41,3.41,0,0,1,3.67,3.35c0,3.24-3.44,3.5-5,5.7h5.06v1.86H13.75C13.75,48.43,15.28,47.41,17.13,46.14Z" fill="#fd8204"/><path d="M24.38,47.74a1.71,1.71,0,0,0,1.76,1.6A1.94,1.94,0,0,0,28,47.28a1.84,1.84,0,0,0-1.85-2,1.77,1.77,0,0,0-1.64.86h-2l1.05-5.91h6V42H25.16l-.43,2.43,0,0a2.72,2.72,0,0,1,2.09-.83c2.11,0,3.3,1.64,3.3,3.64a3.87,3.87,0,0,1-4,3.85c-2.08,0-3.93-1.15-4-3.39Z" fill="#fd8204"/></g></g></svg>