<svg xmlns="http://www.w3.org/2000/svg" width="70" height="70" viewBox="0 0 70 70"><title>офисный-мастер_1</title><g id="Слой_2" data-name="Слой 2"><g id="Слой_1-2" data-name="Слой 1"><rect width="70" height="70" fill="none"/><path d="M45.22,27.59A6.79,6.79,0,1,1,52,20.81,6.79,6.79,0,0,1,45.22,27.59Zm0-12.22a5.43,5.43,0,1,0,5.43,5.43A5.44,5.44,0,0,0,45.22,15.37Z" fill="#fd8204"/><path d="M45.22,14.4a6.41,6.41,0,1,1-6.41,6.41,6.42,6.42,0,0,1,6.41-6.41m0,12.22a5.81,5.81,0,1,0-5.81-5.81,5.81,5.81,0,0,0,5.81,5.81m0-13a7.16,7.16,0,1,0,7.16,7.16,7.16,7.16,0,0,0-7.16-7.16Zm0,12.22a5.06,5.06,0,1,1,5.06-5.06,5.06,5.06,0,0,1-5.06,5.06Z" fill="#692f17"/><rect x="23.66" y="21.38" width="43.12" height="31.36" rx="3.56" ry="3.56" fill="#fd8204" stroke="#692f17" stroke-linejoin="round" stroke-width="1.5"/><path d="M66.79,29.44V24.93a3.56,3.56,0,0,0-3.56-3.56h-36a3.56,3.56,0,0,0-3.56,3.56v4.51" fill="#f7e8d2" stroke="#692f17" stroke-linejoin="round" stroke-width="1.5"/><line x1="23.66" y1="29.44" x2="66.79" y2="29.44" fill="#dfdbd1" stroke="#692f17" stroke-linejoin="round" stroke-width="0.75"/><rect x="38.87" y="27.72" width="12.72" height="3.44" rx="0.78" ry="0.78" fill="#f8f3ee"/><path d="M50.8,28.09a.4.4,0,0,1,.4.4v1.88a.4.4,0,0,1-.4.4H39.64a.4.4,0,0,1-.4-.4V28.5a.4.4,0,0,1,.4-.4H50.8m0-.75H39.64a1.15,1.15,0,0,0-1.15,1.15v1.88a1.15,1.15,0,0,0,1.15,1.15H50.8A1.15,1.15,0,0,0,52,30.38V28.5a1.15,1.15,0,0,0-1.15-1.15Z" fill="#692f17"/><path d="M38,51.22A5.24,5.24,0,1,1,43.2,46,5.25,5.25,0,0,1,38,51.22Zm0-8a2.8,2.8,0,1,0,2.8,2.8A2.81,2.81,0,0,0,38,43.17Z" fill="#dfdbd1" stroke="#692f17" stroke-linejoin="round" stroke-width="0.75"/><path d="M3.21,39.25a.91.91,0,0,1,.91-.91H28.38a.91.91,0,0,1,.91.91h0a.91.91,0,0,1-.91.91H4.13a.91.91,0,0,1-.91-.91Z" fill="#dfdbd1" stroke="#692f17" stroke-linejoin="round" stroke-width="0.75"/><path d="M45.36,36.94a2.76,2.76,0,0,0-.22-1.08,4.15,4.15,0,0,0-4-2.95H23a6.34,6.34,0,0,0,0,12.68h15.1l1.41,8a2.76,2.76,0,0,0,2.76,2.76h3.25a2.76,2.76,0,0,0,2.76-2.76Z" fill="#dfdbd1" stroke="#692f17" stroke-linejoin="round" stroke-width="1.5"/><path d="M18.08,35.4a4,4,0,1,0,0,7.71Z" fill="#fd8204" stroke="#692f17" stroke-linejoin="round" stroke-width="0.75"/></g></g></svg>