<svg xmlns="http://www.w3.org/2000/svg" width="70" height="70" viewBox="0 0 70 70"><title>офис</title><g data-name="Слой 2"><g data-name="Слой 1"><path fill="none" d="M0 0h70v70H0z"/><path fill="#d9d6cc" stroke="#692f17" stroke-linejoin="round" stroke-width="1.5" d="M13.19 9.96h9.86v46.06h-9.86z"/><path fill="#f5f4f0" stroke="#692f17" stroke-linecap="round" stroke-linejoin="round" stroke-width=".75" d="M15.45 12.76h5.34v21.73h-5.34z"/><circle cx="18.12" cy="50.67" r="2.09" fill="#fd8204" stroke="#692f17" stroke-linejoin="round" stroke-width=".75"/><path fill="#d9d6cc" stroke="#692f17" stroke-linejoin="round" stroke-width="1.5" d="M23.05 9.96h9.86v46.06h-9.86z"/><path fill="#f5f4f0" stroke="#692f17" stroke-linecap="round" stroke-linejoin="round" stroke-width=".75" d="M25.3 12.76h5.34v21.73H25.3z"/><circle cx="27.97" cy="50.67" r="2.09" fill="#fd8204" stroke="#692f17" stroke-linejoin="round" stroke-width=".75"/><path fill="#d9d6cc" stroke="#692f17" stroke-linejoin="round" stroke-width="1.5" d="M32.9 9.96h9.86v46.06H32.9z"/><path fill="#f5f4f0" stroke="#692f17" stroke-linecap="round" stroke-linejoin="round" stroke-width=".75" d="M35.16 12.76h5.34v21.73h-5.34z"/><circle cx="37.83" cy="50.67" r="2.09" fill="#fd8204" stroke="#692f17" stroke-linejoin="round" stroke-width=".75"/><path fill="#d9d6cc" stroke="#692f17" stroke-linejoin="round" stroke-width="1.5" d="M42.76 9.96h9.86v46.06h-9.86z"/><path fill="#f5f4f0" stroke="#692f17" stroke-linecap="round" stroke-linejoin="round" stroke-width=".75" d="M45.01 12.76h5.34v21.73h-5.34z"/><circle cx="47.69" cy="50.67" r="2.09" fill="#fd8204" stroke="#692f17" stroke-linejoin="round" stroke-width=".75"/><path fill="#d9d6cc" stroke="#692f17" stroke-linejoin="round" stroke-width="1.5" d="M52.61 9.96h9.86v46.06h-9.86z"/><path fill="#f5f4f0" stroke="#692f17" stroke-linecap="round" stroke-linejoin="round" stroke-width=".75" d="M54.87 12.76h5.34v21.73h-5.34z"/><circle cx="57.54" cy="50.67" r="2.09" fill="#fd8204" stroke="#692f17" stroke-linejoin="round" stroke-width=".75"/><rect x="7.55" y="26.89" width="28.8" height="33.15" rx="1.69" ry="1.69" fill="#f5f4f0" stroke="#692f17" stroke-miterlimit="10" stroke-width="1.5"/><path d="M34.64 27H9.22a1.69 1.69 0 0 0-1.69 1.69v4h28.8v-4A1.69 1.69 0 0 0 34.64 27z" fill="#fd8204" stroke="#692f17" stroke-linejoin="round" stroke-width="1.5"/><path d="M11.26 33.66a.89.89 0 0 1-.9.89.89.89 0 0 1-.89-.89v-2.44a.9.9 0 0 1 .89-.9.9.9 0 0 1 .9.9zM34.24 33.66a.89.89 0 0 1-.9.89.89.89 0 0 1-.9-.89v-2.44a.9.9 0 0 1 .9-.9.9.9 0 0 1 .9.9z" fill="#f5f4f0" stroke="#692f17" stroke-miterlimit="10" stroke-width=".75"/><path d="M17.13 46.14c.93-.66 2.25-1.3 2.25-2.61a1.54 1.54 0 0 0-1.6-1.65c-1.28 0-1.7 1.33-1.7 2.46H14c-.08-2.45 1.31-4.34 3.88-4.34a3.41 3.41 0 0 1 3.67 3.35c0 3.24-3.44 3.5-5 5.7h5.06v1.86h-7.86c0-2.48 1.53-3.5 3.38-4.77zM24.38 47.74a1.71 1.71 0 0 0 1.76 1.6A1.94 1.94 0 0 0 28 47.28a1.84 1.84 0 0 0-1.85-2 1.77 1.77 0 0 0-1.64.86h-2l1.05-5.91h6V42h-4.4l-.43 2.43a2.72 2.72 0 0 1 2.09-.83c2.11 0 3.3 1.64 3.3 3.64a3.87 3.87 0 0 1-4 3.85c-2.08 0-3.93-1.15-4-3.39z" fill="#fd8204"/></g></g></svg>