<svg xmlns="http://www.w3.org/2000/svg" width="70" height="70" viewBox="0 0 70 70"><path d="M24 25.77h8.2a1.13 1.13 0 0 1 1.12 1.13v2" fill="none" stroke="#ff5a19" stroke-linejoin="round"/><path d="M19.15 28.7h-5.73a1.12 1.12 0 0 0-1.12 1.12v1.46a1.12 1.12 0 0 0 1.12 1.12H15l1.57 23.83a3.26 3.26 0 0 0 3.26 3.26h19.1a2.31 2.31 0 0 0 .9-.12M42.75 28.7H31" fill="none" stroke="#ff5a19" stroke-linejoin="round" stroke-width="1.5"/><path fill="none" stroke="#ff5a19" stroke-linejoin="round" d="M31.07 32.18h11.12M14.55 32.18h4.6"/><path d="M30.06 39.26c2.47 4.16 6.18 8.65 10.45 9.55M45 22.52c-2.92 6.63-4.94 20.56-5.06 36.74v2.81a36.57 36.57 0 0 0 9.22.9 43.3 43.3 0 0 0 8.54-.79v-3c-.11-16.63-2.36-30.45-5.28-36.75" fill="none" stroke="#ff5a19" stroke-linejoin="round" stroke-width="1.5"/><path fill="none" stroke="#ff5a19" stroke-linejoin="round" d="M45.23 13.05h6.97v3.28h-6.97zM44.1 13h10.57V7h-20v4.13h1.8a15.78 15.78 0 0 1 4.61.68"/><path d="M40.94 11.79a15.72 15.72 0 0 1-1.56 4.43 16.66 16.66 0 0 1-2.58 3.71 8.12 8.12 0 0 0 4.27-2.36A8.83 8.83 0 0 0 44 13h-.45a7.91 7.91 0 0 0-2.61-1.21zM52.64 22.63v-6.3h-8.09v6.3h8.09zM19.27 25.77h11.46v13.71H19.27zM37.58 7.01v4.04" fill="none" stroke="#ff5a19" stroke-linejoin="round"/></svg>