<svg xmlns="http://www.w3.org/2000/svg" width="70" height="70" viewBox="0 0 70 70"><g data-name="Слой 2"><g data-name="Слой 1"><path fill="none" d="M0 0h70v70H0z"/><path d="M40.71 12.72v-2.6a.22.22 0 0 1 .22-.22h3.48a.22.22 0 0 1 .22.22v2.6z" fill="#fd8204"/><path d="M44.25 10.28v2.07h-3.16v-2.07h3.16m.16-.75h-3.48a.59.59 0 0 0-.59.59v3H45v-3a.59.59 0 0 0-.59-.59z" fill="#692f17"/><path d="M31.29 47.08a2.51 2.51 0 0 1-2.51-2.51v-18c0-.73.28-1.78 2.73-2.54 7.76-2.42 9.21-7.54 9.48-9.36h3.25v29.9a2.51 2.51 0 0 1-2.51 2.51z" fill="#dbc19f"/><path d="M43.5 15.4v29.17a1.76 1.76 0 0 1-1.76 1.76H31.29a1.76 1.76 0 0 1-1.76-1.76v-18c0-.31 0-1.14 2.21-1.83 7.36-2.29 9.34-7 9.87-9.32h1.89M45 13.9h-4.69a.93.93 0 0 0 0 .09s-.1 6.52-9 9.3c-1.72.54-3.26 1.46-3.26 3.26v18a3.26 3.26 0 0 0 3.26 3.26h10.43A3.26 3.26 0 0 0 45 44.57V14a.79.79 0 0 0 0-.09z" fill="#692f17"/><rect x="14.26" y="14" width="2.73" height="2.39" rx=".38" ry=".38" fill="#d68028" stroke="#692f17" stroke-miterlimit="10" stroke-width=".75"/><path d="M31.73 32.34a7.86 7.86 0 1 0-15.72 0v13.04a3.26 3.26 0 0 0 3.26 3.26h9.2a3.26 3.26 0 0 0 3.26-3.26V32.44v-.1z" fill="#f7e8d2" stroke="#692f17" stroke-miterlimit="10" stroke-width="1.5"/><path d="M27.27 13.9H16.79a.78.78 0 0 0-.78.78v1.84a.78.78 0 0 0 .78.78h4l1.49 4.39h3.23v-4.38h1.79a.78.78 0 0 0 .78-.78v-1.85a.78.78 0 0 0-.81-.78z" fill="#f8f3ee" stroke="#692f17" stroke-miterlimit="10" stroke-width="1.5"/><path d="M25.5 21.47h-3.27a.56.56 0 0 0-.56.56v2.79h4.38V22a.56.56 0 0 0-.55-.53z" fill="#f8f3ee" stroke="#692f17" stroke-miterlimit="10" stroke-width="1.5"/><path d="M18.6 17.31a6 6 0 0 1-2 4.92A19.46 19.46 0 0 1 14 24l.4.43A11.31 11.31 0 0 0 18.84 22a5.67 5.67 0 0 0 1.93-4.68z" fill="#f8f3ee" stroke="#692f17" stroke-miterlimit="10" stroke-width=".75"/><path d="M57.76 30.13c-.38-5-3.85-8.92-8.08-8.92S42 25.13 41.6 30.13a1.3 1.3 0 0 0 0 .3V47a1.33 1.33 0 0 0 1.33 1.32h13.55A1.33 1.33 0 0 0 57.8 47V30.44a1.36 1.36 0 0 0-.04-.31z" fill="#fd8204" stroke="#692f17" stroke-miterlimit="10" stroke-width="1.5"/><path d="M52.27 18.46H47.1a.48.48 0 0 0-.48.48v2.42h6.13v-2.42a.48.48 0 0 0-.48-.48z" fill="#dfdbd1" stroke="#692f17" stroke-miterlimit="10" stroke-width="1.5"/><path d="M14.5 41.44L17 57.11a3 3 0 0 0 3 3h34.8a3 3 0 0 0 3-3l2.47-15.67z" fill="#dfdbd1" stroke="#692f17" stroke-linecap="round" stroke-linejoin="round" stroke-width="1.5"/><rect x="11.31" y="36.92" width="52.2" height="4.52" rx="1.04" ry="1.04" fill="#f8f3ee" stroke="#692f17" stroke-linecap="round" stroke-linejoin="round" stroke-width="1.5"/><path d="M32.5 36.92l-3.82 4.21s0 3.38-.75 4.91c-.45.91-2.3 5.29-4.08 4.35-1-.52 1.15-4.78 1.15-4.78l-6.15 6a1.25 1.25 0 0 1-1.76-1.76l-1 1a1.25 1.25 0 0 1-1.76-1.76l.83-.83a1.24 1.24 0 0 1-1.54-1.93l1.81-1.81a1.25 1.25 0 0 1-1.76-1.76l5.44-5.44c1.68-1.68 1.22-1.23 1.22-1.23a23.24 23.24 0 0 1 6.8-.6c4.11.39 5.37 1.43 5.37 1.43z" fill="#fd8204" stroke="#692f17" stroke-linecap="round" stroke-linejoin="round" stroke-width=".75" fill-rule="evenodd"/><path fill="#ec8213" stroke="#692f17" stroke-linecap="round" stroke-linejoin="round" stroke-width=".5" d="M17.12 49.86l3.71-3.71M15.13 48.32l4.2-4.19M15.47 44.51l2.31-2.31M24.57 46.04l1.48-1.48"/><path d="M30.6 36.23v1.61s-2.3 2.47-2.81 4.09c-.3 1-2 5.39-.08 5.86 1 .26 2.44-4.25 2.44-4.25l.19 8.46a1.17 1.17 0 0 0 1.25 1.16 1.28 1.28 0 0 0 1.2-1.29v1.42a1.17 1.17 0 0 0 1.25 1.16 1.28 1.28 0 0 0 1.2-1.29v-1.15a1.17 1.17 0 0 0 1.21.89 1.28 1.28 0 0 0 1.2-1.29V49.1a1.17 1.17 0 0 0 1.25 1.16A1.28 1.28 0 0 0 40 49l-.14-7.56v-5.29a18.36 18.36 0 0 0-4.45-.34 24.33 24.33 0 0 0-4.81.42z" fill="#fd8204" stroke="#692f17" stroke-linecap="round" stroke-linejoin="round" stroke-width=".75" fill-rule="evenodd"/><path fill="#ec8213" stroke="#692f17" stroke-linecap="round" stroke-linejoin="round" stroke-width=".75" d="M32.78 51.84l-.09-5.16M35.23 52.02l-.11-5.84M37.59 49l-.06-3.2M30.11 44.15l-.04-2.07"/></g></g></svg>