<svg data-name="Слой 1" xmlns="http://www.w3.org/2000/svg" width="2000.5" height="904.77" viewBox="0 0 2000.5 904.77"><title>Иллюстрация для фона3</title><g opacity=".3" fill="#c9b2a7"><path d="M532.39 15.01l30.38-.25a2.93 2.93 0 0 0 2.23-2.13c.75-2 1 5.38 1 5.38l-34.11-.52zM531.76 26.76l32.63-.37a2.67 2.67 0 0 0 1.88-1.5c.5-1.25 1.75 5.5 1.75 5.5a9.08 9.08 0 0 0-4-2c-2-.25-30.5.63-30.5.63a6.65 6.65 0 0 0-1.52 2.47c-.12 1 1.38 2 2 2l31.25-.25s2.25-.12 2.5-1.5.63 4 .63 4l-35.62-.5a2.77 2.77 0 0 0-2.12 2.5c-.38 2.27 1.12-10.98 1.12-10.98zM623.1 282.59c-.25-.92-.5-2.33-4.25-2.75s-10.92-.5-9.58-1.08 4.67-3.5 6.42-6.75a25.61 25.61 0 0 0 2.25-13.5c-.58-4.33-1.08-6.5-2.5-6s-2.42 2.83-3.42 5.17-6.75 9.5-8.17 10.92-1.42.25-1.17-.33 4.25-8.17 5.75-11.58a60.1 60.1 0 0 0 3.75-15.25c.42-4.75-.75-16.42-2.08-16.33s-3.5 7.5-4.42 9.33-4.33 6.58-5.5 9.92-2.83 12-2.83 12-.67-1.08-.67-4.33 2.83-12.75 4.5-15.75 2.83-11.67 2.92-13.08-.25-3.25-.25-4.17.42-3.83.42-6.25-.08-7.92-.67-7.75-4.25 9.67-4.92 13.75-6.33 16.92-7 18.42-3.25 3.92-2.5 2.08.5-4.92.67-7.25a24.21 24.21 0 0 0-1.67-8.25c-.5-.75.33-4.75-.83-8.92s-3.17-10.5-3.83-10.5-.92.33-2.58 4.25-1.75 17.33-1.58 29.17 2 27.58 2 27.58c.17 4.67-1.08.5-1.08.5s-4.92-18.67-6.5-21.5-1.92 1.08-1.92 1.08-.5 21.83.5 24.92 6 7.42 6 7.42-9.42.67-12 1.17-1.75 5-1.75 5 5.92 42.5 6.83 45.33 2.17 3.83 3.58 3.92 7.92 1.25 15.5 1.67 18.17-1.25 22.67-2 5.33-5.83 5.33-5.83 4.83-43.55 4.58-44.45zm-20.25-9.25a58.42 58.42 0 0 0 8.15-11.58c2.33-4.25 4.58-5.17 4.58-5.17 1.25-.25.75 3.83.5 5.42s.17 6.33-1.58 9.33-3.25 3.33-6.17 5.42a20.27 20.27 0 0 1-8.92 3.17c-2.17.25-2.92-.67-2.58-1.5s3.52-2.59 6.02-5.09zm-3-15.67c.17-2.08 1-10.75 1.67-12.25 0 0 .67-3.5 2.17-5.08a27.27 27.27 0 0 0 4.08-6.58c.58-1.5.83-2.08 1.67-2.25s1.17 1.67.17 8.83-5.08 17.33-5.92 20-4.75 12.83-6.58 14.83-3 1.83-3 1.83-1.75 1.17 1.17-4.83a51.05 51.05 0 0 0 4.57-14.5zm-12.25-3.83a20.26 20.26 0 0 1 2-8.67c1.75-3.33 5-10.42 6.25-12.92s5.08-15.83 5.08-15.83c2-5.5 1.75-.83 1.67 1.5a71.91 71.91 0 0 1-1.83 11.92c-.92 3.33-2.5 7.67-4.25 14.58a35.28 35.28 0 0 0-.83 14.25c.33 3.42-1.67 13.67-2.08 14.75s-1.83 5.25-2.83 5.17-1.25-2.33-1.25-2.33-2.02-20.59-1.93-22.42zm-6.6-36.58c0-.59.67-7.58 1.92-8s3.25 4.5 3.25 8-.25 5.33.33 7.33a22.82 22.82 0 0 1 .75 9.17c-.42 4.5-1.5 12.83-1.42 16.67s.92 17.25 1.58 20.08.83 6-.25 6.33-2.83-3-3.58-7.67-1.9-4.16-2.58-51.91zm-4.08 56.33c-1.67-2-2.25-5.08-3.33-8.17s-.75-14.83 0-15 1.08 1 1.5 3.5c0 .3 5.67 16.5 6 18.33s1.67 4.33 3.42 5.17 5.5 2.58 5.42 3.58-3.58.08-4.92-.92-6.41-4.49-8.08-6.49zm-7.75 7c2.25-.83 9.25-1.67 10.92-1.17.34.1 5.75 2.92 7.42 3.17s-.08.58-1.75.42-13.92-.75-15.33-.67-3.5-.92-1.25-1.75zm47.67 43a7.22 7.22 0 0 1-2.17 5.42c-2.42 2.25-12.58 4.17-20.25 4.17s-17.75-1.17-19.83-2.75-7.33-41.17-7.33-41.17c-.08-1.5-.33-3.25.5-4.08s2.17-1.42 7.75-.17 15.67 1.75 23 1.83a154.55 154.55 0 0 0 18.92-1.35c1.58-.25 2.58-.83 2.92.5s-3.5 37.6-3.5 37.6zm.58-39.92c-2.25.42-13.17.5-17.08.33s-6.42-.58-5.42-1.25 7.33-1.75 7.33-1.75c6.5-.75 18.25.75 18.5 1.33s-1.07.93-3.32 1.34z"/><path d="M570.68 324.59H461a23.7 23.7 0 0 0-2.33 3.33c-1.17 2-1.17 7.5-1.17 7.5s.5 2.67 4.33 2.67h3.83l208-1.83-1.17 2.83-214.67 1v4a2 2 0 0 0 1.83 1.67c1.67.17 210-2.17 210-2.17l-.5 2.67-210.67 1.5s-2.17.67-3-2.83a36.26 36.26 0 0 1-.5-8.67s1.83-11 4-13.33 112-1 112-1zM618.35 323.59l52.5-.16-.34 2.83-53-.67.84-2zM467.18 249.09v73.5h-1.83l-1.17-69.16 3-4.34zM458.35 263.59c.17.5.67 59.33.67 59.33l2.5-.33-.83-61.67z"/><path d="M531 6.26c-2.25-1.25-12.87 1.63-16 1.63s-5.63-2.25-9.63-3-10 1.25-14.12 2.13-13.75.75-18 .13-16.87-.62-21.5-1.37-23.75.71-26.24.85-11.25.25-13.62-.25-8.38-4.89-12.63-4.89-11.25-1.25-15.62-1.5-5.87 4.12-5.87 4.12c-1.62 3.88-.12 44.75-.25 46.88s.63 45.13.63 48 .88 31.12.75 39.5 1.63 40.13 2.13 46.38 4.75 43.75 5.38 49.75.75 30 .75 30 .84 31.26.84 33.87-2 5.25-2.75 7.88 1 8.38 1 8.38-1.87-.5-2 5.25 3.13 8 4.5 9.5 1.13 3.5 1.13 4.75-1.75 8.5-3.25 16.5-5 39.5-5 41.88-2.75 55.25-2.62 57.5-2.75 21.25-2.75 24.63-3.87 33.63-3.5 37.88-5.62 19-2.62 26.38 9 8 12 8.38 5.38-.12 6-2 .25-2.5 1.38-2.87 18.63-.37 21.25-.5 3.13.25 3.13 1.13-.5 3.25.5 4.88 7.5 2.75 19.38-.12 10.13-6.62 11.25-9.12-1.12-4.87-.12-5.5 5-1.25 5-1.25 5.13-.62 5.25-1.25-.12-7.62-.12-7.62 4.5-1.62 6.5-1.5 5.63.25 6.75-1.5.38-9.87.13-14.5-3.25-12.25-3.87-16-1-11.25-1.12-13.87-2.62-13.12-2.87-14.75-5.87-32.75-6.12-38.25-10.62-32.75-11.5-38.37-6.12-33.25-9-41.25-5.37-9.62-5.37-9.62 2.63-.5 3.63-5-.25-6.12-.12-8.37 3.25-5.62 2.88-9.5-1.62-4.62-.25-5.87 10-13.25 14.75-20.62 11-19.25 14.38-26.12 15.88-39.5 17-42 7.88-21.75 12-32.37 5.38-23.87 6.63-27 8.75-25.75 15.88-47 10.29-44.96 12.04-52.23 4.5-29 4.5-29 .75-6.75 1.25-13.13.12-7.87-2.14-9.1zm-123.88.38a4.14 4.14 0 0 0 2.13.88s10 1.88 15 1.63 7.25-1.62 8.38.5.63 17.5.5 23.75-2.25 21.25-2.87 28-3 32.63-3.75 36.63-4.62 28.25-6 40.12-3.25 22.38-3.37 26.25-2 28-2.12 31.75-2.25 27-2.62 32.13-4.4 33.85-4.76 38.21-1 33.88-.87 37.13-.37 3.88-1.37 4.5-2.25.13-2.62-3.5-.62-39-.87-43.37-.12-41.25-.5-44 1.25-36.37 2-42.5 3.88-19.5 4.75-25 0-31.62-1.5-39.75-3.5-31.13-3.75-34.5-1.37-26.37 0-38.12 3.75-19 3.75-23c0 0-.37-4.87-1.12-5.75s.35-2.87 1.6-2zM383 178.76c-.62-7.5-1.87-42.62-1.87-42.62-.5-6.75-2.37-125.13-2.37-125.13 0-.37-.25-5.12 1.63-7a6.38 6.38 0 0 1 6-1.37c1.38.38 9.25 1.5 11 1.13a5.85 5.85 0 0 1 5.37 2.72c.75 1.63 2.63 9.38.38 17.75s-3.5 20.13-2.75 34.75 2.13 30.5 2.75 39.38 3.25 31.62 3.13 38a187.76 187.76 0 0 1-3.87 34c-3.12 15-3 92.25-2.37 97.63s0 24 .5 26.63 1 10.75 1 10.75a2.36 2.36 0 0 1-2.12 2.25c-2 .13-8-1.37-8.25-3s-.75-.5-1.25-10 .38-52.87-.62-59.25-5.65-49.12-6.29-56.62zm2.25 366.38c-1.75 2.25-8.37-1.12-10.12-3s-4.37-4.37-3.12-14.87 4.13-21.87 5-32.75 2-33.5 2.63-37.37 2.5-24.25 2.5-28.37 3.63-44.75 3.5-47.62 3.63-39.12 4.75-42.75c0 0 .13-4.37 2.38-4.87s1.63 2.38 1.25 4.25-2 25.63-2.37 28.38.75 2.75.75 2.75 2.75-32.37 4.13-33.5 2.13-1.12 2.75-.37-1.12 15.63-1.12 15.63-5.12 53.75-5.37 57.38-3.25 20.88-4.62 42-3.37 54.88-3.37 60-.12 17.25.25 20.75 1.95 12.07.21 14.32zm29.25-9.37c-.12 1.88-1.37 4.25-6.12 4.5s-16.5.13-17.62.13-3.25.38-3.62-5.25.75-50.75.75-51.75 2.25-36 2.38-39.25 4-36.25 4.63-40.37 2.63-28.75 3.13-33 2.38-29.12 2.5-31.37c0 0 .13-3.37 1.25-4 2.25-1.25 6-.87 6.88-.75s2.38.13 1.88 3.63-1.5 28-2.12 34-.5 38.38-.87 42-.62 23.5.38 32.63 5 51.75 5.13 56 1.58 30.96 1.45 32.84zm28.63-.62c-.25 2.25.25 5.5-5.37 8.63s-14.25 3.25-16.75 3.25-4.87-.12-5-4.75.63-23.37-.37-36.37-5-58.63-5.62-61.88-1.12-18-.37-22.12.61-28.42.35-33.42 1.38-49.5 1.75-51.12c0 0 .13-2.5 2-2.87a15.79 15.79 0 0 1 6 .13c1.25.38 2 6.63 2.63 9.13s11.13 90 11.38 93.75 3.63 30.88 4.88 36.88 3 37.25 3.38 42.5 1.37 15.99 1.12 18.24zm5.5-129c1.95 5.61 7.38 40 8 43.63s5.38 38.88 5.75 40.38 4.13 19 3.38 24.25-2.87 4.63-2.87 4.63a24.26 24.26 0 0 1-6.25.63 2.06 2.06 0 0 1-2.12-2.37s-2.75-59.63-3.62-67.13-3.5-35-4.25-42a112.69 112.69 0 0 0-2.37-13.5c.23-2.18 2.23 5.34 4.36 11.46zm-19.49-69.66c1.5 3 4.13 9 7.13 25.25s7.5 37.88 8.38 43.75 2.88 31.38 3.13 36.5 2.25 35.63 2.38 36.13 1.38 24.5 1.38 27 1.88 19.5 1.88 20.5.38 2.5-.75 3.5-6.62 1.5-6.62 1.5-1.12-.25-1.5-2.12-2.62-45.63-3.12-50.63-7.5-58.62-7.5-58.62-7-59.37-7.5-62.25-1.75-15.87-2.62-18.62a25.26 25.26 0 0 1-1-3.62c0-.62 1.5-.87 2.5-1.12s2.33-.15 3.83 2.85zm.75-18.12c-2.25 2.13-8.5 1.38-10.12 1.88s-1.12 1.25.63 1.63 6.88-.75 8.25-.12a3.58 3.58 0 0 1 2.13 4c-.25 2.13-.75 3.75-6 5.38s-13.87 1.75-18.25 1.5-12.12-1.12-15-3.62-5.5-6.37-4.75-8.87 2.25-2.12 5.75-.25 10.63 2.63 11.88 2-2.25-1-5.87-2.5-8.5-3.62-10.12-6.25-2-7.12-1-7.62 6.63 4.5 18.5 5.38c0 0 12.5 1.25 17.63.88s7.13-1.37 8.75-.25-.16 4.72-2.41 6.84zM499 147.01c-.37 2.75-2.75 12.75-3.37 17.5s-7.87 27.5-10 32.13-15.12 39.88-17.5 45.38-18.25 36.63-22.62 43.75-11.62 18-11.62 18-5.25 3.38-2.37-1.12 14.75-27.87 18.63-38.37 3.38-9.62 3.88-10.5 6.5-23.25 6.88-25.12-1.12.5-2.62 5-6.75 22.5-13.5 37.13-16.12 34.13-18.12 36.63-2.12 2.25-3.25 2.25-2.87-1-.12-5.62 10.5-26.25 11.88-31.5 9.5-38.75 10.13-45.87c0 0 0-3.75-1.5 1.63s-7.5 33.13-12.5 45.88-11.5 31-14.87 34-8-.25-8.12-3.5.75-29.75 1.25-35.25 4.38-35.12 5.5-41.12 2.25-30.5 2.25-34.5 3.25-36.75 3.5-40.62 3-29 4.5-36 5.88-34.5 6.38-39.25 3-38.5 3.63-42.5 1.5-13.5.75-19.25c-.07-.55-1.5-6.37 0-7.5s2.63-1.25 4.88-1l2.25.25s20.63 1.38 28 2 13.75 1 16.63.5 5.13-1.75 6.75-1.37 2.25 1.25 1.75 3.5-2.83 12.8-3.34 17.55-3 41.75-3.25 45-2.87 32.13-3.87 38.25-5.5 28.12-6.25 33.75-4.12 25.38-5.12 29.25-4.25 15.63-5.25 18 .38 2.25 1.25.75 10.75-42.62 11.63-47.87 6.38-31.87 7.25-38.5 3.25-37.5 3.63-42.63 1.88-32.5 2.5-35.12 2.62-13.52 3.48-17.13.38-7 4.25-6.87 10.63 2.63 11.63 3 1.5.38 1.25 3.63-3.62 46-4.88 53-4 21.5-4.75 30.13-3.62 12.75-3.25 17.63-2.37 17.75-2.37 20-1.49 9.86-1.88 12.61zm31.89-129.13c-.38 3.75-1.63 19.61-3.89 31.38s-8.5 37.13-9.37 41.88-5.5 22.25-7.63 28.87-5.25 19.13-6.75 19.88-.5-5.87.5-9.87 1.88-21.87 3.13-26.5 5.38-29.63 7.25-40.75 3.88-43.5 3.75-47.75c0 0-1.12-3.37.38-4.25s3.38.38 5.75-.25 3.13-2.37 5.5-1.75 1.75 5.36 1.38 9.11zM729.39 516.33c.38-4.28-3.58-34.7-3.58-38.1s-2.94-22.51-2.81-24.74-2.69-55.45-2.69-57.84-3.58-34.08-5.11-42.12-3.32-15.34-3.32-16.6-.26-3.27 1.15-4.78 4.73-3.77 4.6-9.56-2-5.28-2-5.28 1.79-5.78 1-8.42-2.81-5.28-2.81-7.92.9-34.08.9-34.08.13-24.14.77-30.18 5-43.76 5.5-50 2.3-38.22 2.17-46.65.77-36.84.77-39.73.77-46.15.64-48.28 1.41-43.25-.26-47.15c0 0-1.53-4.4-6-4.15s-11.64 1.51-16 1.51-10.48 4.4-12.91 4.9-11.4.33-13.97.18-22.12-1.63-26.85-.88-17.64.75-22 1.38-14.19.75-18.41-.13-10.36-2.89-14.45-2.14-6.65 3-9.85 3-14.06-2.89-16.37-1.63-2.68 2.77-2.17 9.18 1.28 13.2 1.28 13.2 2.81 21.88 4.6 29.17 5.11 31.06 12.4 52.43 15 44.13 16.24 47.28 2.56 16.47 6.78 27.16 11.12 30.05 12.27 32.57 13.94 35.33 17.39 42.25 9.86 18.88 14.71 26.31 13.68 19.49 15.09 20.75.13 2-.26 5.91 2.81 7.29 2.94 9.56-1.15 3.9-.13 8.42 3.71 5 3.71 5-2.56 1.63-5.5 9.68-8 35.77-8.85 41.43c-.21 1.34-1.87 9.31-2.1 10.58 0 0-1.32 6.33-2.08 13.37s-3.45 34.7-4.35 42.25-3.71 67.52-3.71 67.52a2.07 2.07 0 0 1-.66 1.83c0 1.32.15 4.08.15 4.08s-.26 7-.13 7.67 5.37 1.26 5.37 1.26 4.09.63 5.11 1.26-1.28 3-.13 5.53-.64 6.29 11.51 9.18 18.8 1.76 19.82.13.51-4 .51-4.9.51-1.26 3.2-1.13 20.59.13 21.74.5.77 1 1.41 2.89 3.07 2.39 6.14 2 9.21-1 12.27-8.42-3.07-22.24-2.68-26.51zM698.7 7.21a6 6 0 0 1 5.5-2.72c1.79.38 9.85-.75 11.25-1.13a6.61 6.61 0 0 1 6.14 1.38c1.92 1.89 1.66 6.66 1.66 7 0 0-1.92 119.07-2.43 125.86 0 0-1.28 35.33-1.92 42.88s-5.37 50.55-6.39 57-.13 50-.64 59.6-1 8.42-1.28 10.06-6.39 3.14-8.44 3a2.39 2.39 0 0 1-2.17-2.26s.51-8.17 1-10.81-.13-21.38.51-26.78.77-83.11-2.43-98.2a185.87 185.87 0 0 1-4-34.2c-.13-6.41 2.56-29.3 3.2-38.22s2-24.9 2.81-39.61-.51-26.53-2.81-35-.33-16.21.44-17.85zm-30.56 3.14c1.15-2.14 3.45-.75 8.57-.5s15.34-1.63 15.34-1.63a4.28 4.28 0 0 0 2.17-.88c1.28-.88 2.43 1.13 1.66 2s-1.15 5.78-1.15 5.78c0 4 2.43 11.32 3.84 23.14s.26 35 0 38.35-2.3 26.53-3.84 34.7-2.43 34.45-1.53 40 4.09 19 4.86 25.15 2.43 40 2 42.75-.26 39.86-.51 44.26-.51 40-.9 43.63-1.66 4.15-2.69 3.52-1.53-1.26-1.41-4.53-.51-32.94-.89-37.34-4.48-33.32-4.86-38.48-2.56-28.54-2.69-32.32-2-28-2.17-31.94-2-14.46-3.45-26.41-5.37-36.34-6.14-40.36-3.2-30.05-3.84-36.84-2.75-21.91-2.88-28.15-.63-21.76.51-23.89zm-72.24 131c-1.53-.75-4.73-13.33-6.9-20s-6.9-24.27-7.8-29-7.29-30.3-9.59-42.12-3.58-27.79-4-31.56-1-8.55 1.41-9.18 3.2 1.13 5.63 1.76 4.35-.63 5.88.25.38 4.28.38 4.28c-.13 4.28 1.92 36.84 3.84 48s6.14 36.34 7.42 41 2.17 22.63 3.2 26.66 2.07 10.69.53 9.94zM655 288.11c-4.47-7.17-20.71-38.48-23.14-44s-15.73-41-17.9-45.64-9.59-27.54-10.23-32.31-3.07-14.84-3.45-17.6-1.92-10.44-1.92-12.7-2.81-15.21-2.43-20.12-2.56-9.05-3.32-17.73-3.61-23.28-4.89-30.32-4.73-50-5-53.31.28-3.27 1.28-3.65 7.93-2.89 11.89-3 3.45 3.27 4.35 6.92 2.94 14.59 3.58 17.23 2.18 30.15 2.57 35.31 2.81 36.21 3.71 42.88 6.52 33.45 7.42 38.73 11 46.65 11.89 48.16 2.3 1.63 1.28-.75-4.35-14.21-5.37-18.11-4.48-23.76-5.24-29.42-5.37-27.79-6.39-33.95-3.69-35.24-3.98-38.49-2.81-40.49-3.32-45.27-2.82-15.48-3.33-17.72.13-3.14 1.79-3.52 4 .88 6.9 1.38 9.46.13 17-.5 28.64-2 28.64-2l2.3-.25c2.3-.25 3.45-.13 5 1s.07 7 0 7.54c-.77 5.78.13 15.34.77 19.36s3.2 38 3.71 42.75 5 32.44 6.52 39.48 4.35 32.31 4.6 36.21 3.58 36.84 3.58 40.87 1.15 28.67 2.3 34.7 5.11 35.84 5.63 41.37 1.41 32.19 1.28 35.46-4.86 6.54-8.31 3.52-10.1-21.38-15.21-34.2-11.25-40.74-12.79-46.15-1.53-1.63-1.53-1.63c.64 7.17 9 40.87 10.36 46.15s9.33 27 12.15 31.69 1 5.66-.13 5.66-1.28.25-3.32-2.26-11.64-22.13-18.54-36.84-12.27-32.82-13.81-37.34-3.07-6.92-2.68-5 6.52 24.39 7 25.27 0 0 4 10.56 16.11 34.08 19.05 38.6-2.43 1.13-2.43 1.13-7.44-10.98-11.89-18.15zm15.09 40.24a3.59 3.59 0 0 1 2.17-4c1.41-.63 6.65.5 8.44.13s2.3-1.13.64-1.63-8.05.25-10.36-1.89-4.09-5.78-2.43-6.92 3.71-.13 8.95.25 18-.88 18-.88c12.15-.88 17.9-5.91 18.92-5.41s.64 5-1 7.67-6.65 4.78-10.36 6.29-7.29 1.89-6 2.51 8.57-.13 12.15-2 5.11-2.26 5.88.25-1.92 6.41-4.86 8.93-10.87 3.39-15.34 3.65-13.3.13-18.67-1.51-5.9-3.3-6.16-5.44zm-15.6 206.09s-5.63-.5-6.78-1.51-.77-2.51-.77-3.52 1.92-18.11 1.92-20.62 1.28-26.66 1.41-27.16 2.17-31.18 2.43-36.34 2.3-30.81 3.2-36.72 5.5-27.66 8.57-44 5.75-22.38 7.29-25.4 2.94-3.14 4-2.89 2.56.5 2.56 1.13a25.07 25.07 0 0 1-1 3.65c-.9 2.77-2.17 15.84-2.69 18.74s-7.67 62.62-7.67 62.62-7.16 53.94-7.67 59-2.81 49-3.2 50.92-1.63 2.1-1.63 2.1zm31.04-24.95c-1 13.08-.26 31.94-.38 36.59s-2.56 4.78-5.11 4.78-11.38-.13-17.13-3.27-5.24-6.41-5.5-8.68.77-13.08 1.15-18.36 2.17-36.72 3.45-42.75 4.73-33.32 5-37.09 11-91.79 11.64-94.3 1.41-8.8 2.68-9.18a16.42 16.42 0 0 1 6.14-.13c1.92.38 2 2.89 2 2.89.38 1.63 2 46.4 1.79 51.43s-.38 29.42.38 33.57.26 19-.38 22.26-4.71 49.24-5.73 62.24zm29.15 29.42c-.23 3.42-1.12 4.63-2 5.06-.38-1.08-1.21-3.44-2-6-1.12-3.5-3.87-38.5-4.75-49s0-29.25-.12-33.75-.25-11.75-1.12-12-.62 1.63-1 4.13 0 24.25 0 24.25c-.12 5.63 2.75 55.5 3.63 60.38.71 4 1.84 10.12 2.44 12.24-3.49 0-12.64.08-16.73-.13-4.86-.25-6.14-2.64-6.27-4.53s1.41-28.79 1.53-33.07 4.22-47.15 5.24-56.33.77-29.17.38-32.82-.26-36.21-.9-42.25-1.66-30.68-2.17-34.2 1-3.52 1.92-3.65 4.73-.5 7 .75c1.15.63 1.28 4 1.28 4 .13 2.26 2 27.29 2.56 31.56s2.56 29 3.2 33.2 4.6 37.34 4.73 40.61 2.43 38.48 2.43 39.48 1.11 46.46.72 52.12zm12.27 7c-1.79 1.89-8.57 5.28-10.36 3s-.13-10.94.26-14.46.26-15.72.26-20.87-2-39.1-3.45-60.35-4.47-38.6-4.73-42.25-5.5-57.71-5.5-57.71-1.79-15-1.15-15.72 1.41-.75 2.81.38 4.22 33.7 4.22 33.7 1.15 0 .77-2.77-2-26.66-2.43-28.54-1-4.78 1.28-4.28 2.43 4.9 2.43 4.9c1.15 3.65 5 40.11 4.86 43s3.58 43.76 3.58 47.91 1.92 24.64 2.56 28.54 1.79 26.66 2.68 37.6 3.84 22.38 5.11 32.94-1.4 13.19-3.15 15.07z"/><path d="M648.76 476.26l-155.87-.12a3.83 3.83 0 0 0-3.37 2.88c-.75 2.75-.12 35.63-.25 36.13s.75 4 3.38 4.25 154.5-.62 154.5-.62l-1 1.75-153 .38s-3.87.13-5.12-2.62-.5-41.63-.5-41.63.5-2.37 4-2.62 158.12.63 158.12.63z"/></g><path d="M1419 221.96s-.2-56.89-.2-57.48a2.76 2.76 0 0 0-.72-1.7c-.46-.59-2.16-.65-2.16-.65l-56.3.26a3.34 3.34 0 0 0-1.89.52c-.91.46-.91 2.29-.91 2.29v57a4.06 4.06 0 0 0 .39 2.09 2.9 2.9 0 0 0 1.63.46l58.16-.26a3.34 3.34 0 0 0 1.53-.62c.39-.38.47-1.91.47-1.91zm-1.62.92a2.26 2.26 0 0 1-1.44.5l-55.62.25a2.78 2.78 0 0 1-1.56-.44 3.88 3.88 0 0 1-.37-2v-54.5s0-1.75.88-2.19a3.2 3.2 0 0 1 1.81-.5l53.88-.25s1.63.06 2.06.63a2.64 2.64 0 0 1 .69 1.63c0 .56.19 55 .19 55a2.12 2.12 0 0 1-.54 1.87z" fill="#c9b2a7" opacity=".3"/><path d="M1409.78 213.2s-.14-38.92-.14-39.32a1.86 1.86 0 0 0-.5-1.16 2.76 2.76 0 0 0-1.51-.45l-39.47.18a2.39 2.39 0 0 0-1.33.36 2 2 0 0 0-.64 1.56v39a2.71 2.71 0 0 0 .27 1.43 2.07 2.07 0 0 0 1.14.31l40.75-.18a1.38 1.38 0 0 0 1.43-1.73zm-1.14.63a1.61 1.61 0 0 1-1 .34l-39 .17a2 2 0 0 1-1.1-.3 2.6 2.6 0 0 1-.26-1.37V175.4a1.91 1.91 0 0 1 .61-1.5 2.28 2.28 0 0 1 1.27-.34l37.77-.17a2.64 2.64 0 0 1 1.45.43 1.78 1.78 0 0 1 .48 1.11c0 .38.13 37.62.13 37.62a1.42 1.42 0 0 1-.35 1.28z" fill="#c9b2a7" opacity=".3"/><path d="M1415.77 166.03s-55.14-.22-55.42 0-.07 55.21-.07 55.21H1416zm-55.08 54.77s-.21-54.2.07-54.39 54.59 0 54.59 0l.25 54.34h-54.92zM1495.23 290.71s-.2-56.89-.2-57.48a2.76 2.76 0 0 0-.72-1.7c-.46-.59-2.16-.65-2.16-.65l-56.3.26a3.34 3.34 0 0 0-1.89.52c-.91.46-.91 2.29-.91 2.29v57a4.06 4.06 0 0 0 .39 2.09 2.9 2.9 0 0 0 1.63.46l58.13-.26a3.34 3.34 0 0 0 1.53-.62c.44-.36.5-1.91.5-1.91zm-1.62.92a2.26 2.26 0 0 1-1.44.5l-55.62.25a2.78 2.78 0 0 1-1.56-.44 3.88 3.88 0 0 1-.37-2v-54.45s0-1.75.88-2.19a3.2 3.2 0 0 1 1.81-.5l53.88-.25s1.63.06 2.06.63a2.64 2.64 0 0 1 .69 1.63c0 .56.19 55 .19 55a2.12 2.12 0 0 1-.52 1.82z" fill="#c9b2a7" opacity=".3"/><path d="M1486 281.95s-.14-38.92-.14-39.32a1.86 1.86 0 0 0-.5-1.16 2.76 2.76 0 0 0-1.51-.45l-39.47.18a2.39 2.39 0 0 0-1.33.36 2 2 0 0 0-.64 1.56v39a2.71 2.71 0 0 0 .27 1.43 2.07 2.07 0 0 0 1.14.31l40.75-.18a1.38 1.38 0 0 0 1.43-1.73zm-1.14.63a1.61 1.61 0 0 1-1 .34l-39 .17a2 2 0 0 1-1.1-.3 2.6 2.6 0 0 1-.26-1.37v-37.27a1.91 1.91 0 0 1 .61-1.5 2.28 2.28 0 0 1 1.27-.34l37.77-.17a2.64 2.64 0 0 1 1.45.43 1.78 1.78 0 0 1 .48 1.11c0 .38.13 37.62.13 37.62a1.42 1.42 0 0 1-.32 1.28z" fill="#c9b2a7" opacity=".3"/><path d="M1492 234.78s-55.14-.22-55.42 0-.07 55.21-.07 55.21h55.75zm-55.08 54.77s-.21-54.2.07-54.39 54.59 0 54.59 0l.25 54.34h-54.92zM1419.48 360.96s-.2-56.89-.2-57.48a2.76 2.76 0 0 0-.72-1.7c-.46-.59-2.16-.65-2.16-.65l-56.3.26a3.34 3.34 0 0 0-1.89.52c-.91.46-.91 2.29-.91 2.29v57a4.06 4.06 0 0 0 .39 2.09 2.9 2.9 0 0 0 1.63.46l58.13-.26a3.34 3.34 0 0 0 1.53-.62c.44-.38.5-1.91.5-1.91zm-1.62.92a2.26 2.26 0 0 1-1.44.5l-55.62.25a2.78 2.78 0 0 1-1.56-.44 3.88 3.88 0 0 1-.37-2v-54.5s0-1.75.88-2.19a3.2 3.2 0 0 1 1.81-.5l53.88-.25s1.63.06 2.06.63a2.64 2.64 0 0 1 .69 1.63c0 .56.19 55 .19 55a2.12 2.12 0 0 1-.52 1.87z" fill="#c9b2a7" opacity=".3"/><path d="M1410.28 352.2s-.14-38.92-.14-39.32a1.86 1.86 0 0 0-.5-1.16 2.76 2.76 0 0 0-1.51-.45l-39.47.18a2.39 2.39 0 0 0-1.33.36 2 2 0 0 0-.64 1.56v39a2.71 2.71 0 0 0 .27 1.43 2.07 2.07 0 0 0 1.14.31l40.75-.18a1.38 1.38 0 0 0 1.43-1.73zm-1.14.63a1.61 1.61 0 0 1-1 .34l-39 .17a2 2 0 0 1-1.1-.3 2.6 2.6 0 0 1-.26-1.37V314.4a1.91 1.91 0 0 1 .61-1.5 2.28 2.28 0 0 1 1.27-.34l37.77-.17a2.64 2.64 0 0 1 1.45.43 1.78 1.78 0 0 1 .48 1.11c0 .38.13 37.62.13 37.62a1.42 1.42 0 0 1-.35 1.28z" fill="#c9b2a7" opacity=".3"/><path d="M1416.27 305.03s-55.14-.22-55.42 0-.07 55.21-.07 55.21h55.75zm-55.08 54.77s-.21-54.2.07-54.39 54.59 0 54.59 0l.25 54.34h-54.92z" fill="#c9b2a7" opacity=".3"/><g opacity=".3" fill="#c9b2a7"><path d="M1442.49 553.61a3 3 0 1 0 3 3 3 3 0 0 0-3-3zm0 5.44a2.45 2.45 0 1 1 2.45-2.45 2.45 2.45 0 0 1-2.45 2.45z"/><path d="M1524.61 607.88v-99.62s.13-113.62 0-115.5-1-2.12-1.75-3.37-2.87-1.25-2.87-1.25h-161.88a4.39 4.39 0 0 0-2.71.66c-1.25 1-.92 4-.92 4l.44 216c.08 4.83 2.48 4.83 2.48 4.83l7.17.08c2.5-.08 2.33-2.17 2.33-2.17l.25-11.33s108.92.58 110.08.21h35.63s-.12 7.63 0 10.13 2.88 2.63 2.88 2.63h6.75c2.74-.05 2.12-5.3 2.12-5.3zm-167.13-218.25h159.13a7.26 7.26 0 0 1 4.38.88 3.9 3.9 0 0 1 1.88 3.25c-.25 1.69-2.94 1.5-2.94 1.5h-161.7c-2.56 0-2.38-1.62-2.39-2.48-.04-3.29 1.64-3.15 1.64-3.15zm165.38 219.12c-.12 2.25-1.5 2.13-1.5 2.13s-4 .13-5 0a2 2 0 0 1-1.36-1.39l.13-11.5h-38s-108.21.17-110 .25-2 1.17-2 1.17-.08 5.67 0 8.67-1 3.17-1.67 3.75-5.58.42-6-.33a8.44 8.44 0 0 1-.44-2.75l-.02-210.12a1.44 1.44 0 0 1 1.56-1.62h164.25c.07 26.72.19 209.66.05 211.75z"/><path d="M1515 405.76c-.08-2.67-4.33-2.08-4.33-2.08s-138.5-.17-141.67 0-2.83 4.58-2.83 4.58v174.83c-.1 4.21 1.9 4.21 1.9 4.21h3.15c4.59 0 135.77.16 139.87 0a3.87 3.87 0 0 0 3.92-4.17s.06-174.71-.01-177.37zm-1.63 132.87h-145.09v-41.86l.06.28h145c.01 14.44.01 28.83.01 41.58zm-145.11-90.25h145.09v46.42h-145.1c0-16.31-.01-32.48-.01-46.42zm2.41-43h140.23c2.33 0 2.42 1.75 2.42 1.75v39h-145.08c0-21.58 0-37.16.07-37.87a3.18 3.18 0 0 1 2.34-2.92zm140.15 180.11H1369.46a1.17 1.17 0 0 1-1.15-1.1v-1.52-42h145.07V583c-.15 2.84-2.56 2.49-2.56 2.49z"/><path d="M1505.41 549.84c-.08-1.29-1.83-1.33-1.83-1.33h-125.26a1.81 1.81 0 0 0-1.75 1.83v25.83c0 1.63 3.33 1.42 3.33 1.42s122.25.17 123.92 0 1.58-2.17 1.58-2.17.1-24.08.01-25.58zm-2.47 27c-1.64.16-122.17 0-122.17 0s-3.25.2-3.29-1.34V550.99a1.73 1.73 0 0 1 1.73-1.74h123.49s1.73 0 1.81 1.26c.1 1.42 0 24.27 0 24.27s.07 1.91-1.57 2.06zM1442 508.61a3 3 0 1 0 3 3 3 3 0 0 0-3-3zm0 5.44a2.45 2.45 0 1 1 2.45-2.45 2.45 2.45 0 0 1-2.45 2.45z"/><path d="M1504.91 504.84c-.08-1.29-1.83-1.33-1.83-1.33h-125.26a1.81 1.81 0 0 0-1.75 1.83v25.83c0 1.63 3.33 1.42 3.33 1.42s122.25.17 123.92 0 1.58-2.17 1.58-2.17.1-24.08.01-25.58zm-2.47 27c-1.64.16-122.17 0-122.17 0s-3.25.2-3.29-1.34V505.99a1.73 1.73 0 0 1 1.73-1.74h123.49s1.73 0 1.81 1.26c.1 1.42 0 24.27 0 24.27s.07 1.91-1.57 2.06zM1441.49 463.61a3 3 0 1 0 3 3 3 3 0 0 0-3-3zm0 5.44a2.45 2.45 0 1 1 2.45-2.45 2.45 2.45 0 0 1-2.45 2.45z"/><path d="M1504.41 459.84c-.08-1.29-1.83-1.33-1.83-1.33h-125.26a1.81 1.81 0 0 0-1.75 1.83v25.83c0 1.63 3.33 1.42 3.33 1.42s122.25.17 123.92 0 1.58-2.17 1.58-2.17.1-24.08.01-25.58zm-2.47 27c-1.64.16-122.17 0-122.17 0s-3.25.2-3.29-1.34V460.99a1.73 1.73 0 0 1 1.73-1.74h123.49s1.73 0 1.81 1.26c.1 1.42 0 24.27 0 24.27s.07 1.91-1.57 2.06zM1441 416.61a3 3 0 1 0 3 3 3 3 0 0 0-3-3zm0 5.44a2.45 2.45 0 1 1 2.45-2.45 2.45 2.45 0 0 1-2.45 2.45z"/><path d="M1503.91 412.84c-.08-1.29-1.83-1.33-1.83-1.33h-125.26a1.81 1.81 0 0 0-1.75 1.83v25.83c0 1.63 3.33 1.42 3.33 1.42s122.25.17 123.92 0 1.58-2.17 1.58-2.17.1-24.08.01-25.58zm-2.47 27c-1.64.16-122.17 0-122.17 0s-3.25.2-3.29-1.34V413.99a1.73 1.73 0 0 1 1.73-1.74h123.49s1.73 0 1.81 1.26c.1 1.42 0 24.27 0 24.27s.07 1.9-1.57 2.06zM1371.48 605.76h6v2.5h-6z"/></g><g opacity=".3"><path d="M2000 578.26c-4.37-2.87-10.12-6.87-29.62-8.75s-31.62-2.25-32.37-2.37a5.85 5.85 0 0 1-2-1 15.08 15.08 0 0 1 .76-6.53c1.57-3.37 4.17-5.69 6.49-5.75 3.42 1.64 9.45 10.51 16.89 12.37 8 2 21 3.63 26.13 1s8-7.75 11.13-9.75a18.31 18.31 0 0 0 2.63-2.12v-3.28a9.67 9.67 0 0 0-3.25 1.15c-2.37 1.38-3.12 7.25-12 10.63s-19.62 2.38-25.5-.62-10.5-8.75-12.87-10.37-4.5-3.12-.25-5 7.88-3 14-1.37 15.88 5.75 21.63 5.25 9.38-1.87 10.63-3 .5-1.87-2.5-1-5.75 2.38-12.25 1.13-17.62-7.5-27.37-5.75c0 0-3.62.38-3.5-.87a8.19 8.19 0 0 1 8.25-7.25c6.75-.12 13 2.25 17.75 3.38s11.5-.5 15.75.75c3.36 1 8.59 4.24 11.5 6.74v-3.61c-2.5-1.25-7.37-2.5-4.87-4.5a9.2 9.2 0 0 1 4.88-1.42v-4.56c-3.4-2.21-6.43-5.5-7.12-13.4-.87-10-3-20.63-13.62-27.88s-25.62-5.37-31.87-3a28.92 28.92 0 0 0-10.5 7.38s-2.75 3.25-3.62.75c-1.25-4.37.63-12 3.13-15.75s9.13-6.12 12.38-10.5 1.25-11.25.75-15.5-.62-4.37 3.88-4.75 15.25 3.5 19.38 7.75 10.38 17.25 10.75 20.13 5.13 8.25 4.5 5.75.5-8.25 2.63-14 9.13-18.25.63-27.5-18.75-7.37-18.75-7.37c-4.62.75-10.12 3-11.62 4.38s-12 5.5-13.62 5-1.37-4-2.25-6.12-2-1.75-2-1.75c-1 .13-7.25 5.75-7.62 5.88s-1.12-1.87-.87-4.75 7.75-5.75 10-6.75 6.13-4.12 8-10 .38-12.62-1.37-16.12-5.87-14.75-6.62-16-2-7-3.25-7.12-4.37 1.25-8.62 5.13-14.25 14.25-13.5 24.5 4.63 12.75 9.25 18.25 3.5 7 4.25 11.75a6.7 6.7 0 0 1-3.25 6.88s-4.5 3.88-5.12-4.62-5.12-15.25-9.37-18.5-9-3.25-13.87-2.75a18.73 18.73 0 0 0-13.75 7.63c-3.5 5-8.12 8-12.37 10.25s-1.37 4.25 2 5.38 12.63.25 15.25 1.25 12.63 11.75 17.38 15.88a21.2 21.2 0 0 0 10.38 5c1.75.5 2.25 3.25 2.13 10.75s3.13 13.25 5.13 14.38 4 5 4 5 2 3.25 1.75 6.13-.62 6.5-.62 6.5 4 2.63 3.5 4.38-1.87 1.25-3.25-.5-2.37-3.62-4.62-6.25-3.62-13.25-12.62-20.25-12.75-12-25.5-11.37-16.12 5.25-19.62 7a20.33 20.33 0 0 1-8.25 1.63s-5.12-1.12-2.5 2.5 7.63 11.25 15.25 14.13 16.25 3.13 22.13 1.13 7.75-4.88 11-7.88 4-4.75 7.25-3.62 7.25 9.63 7.88 12.88.5 3.25-3.37 2-9.87-3.37-18.12-1-13.87 9.13-16.12 12.88-2.12 5.75-6.12 6.75-15 2.63-19.75 3.25-5.62 2.49-5.62 2.49 4.63 3.88 5.5 7.88 1.63 12.13 9.63 20.63 13.5 9.5 19.13 10c1.15.1 2.38.14 3.63.13-8.09.69-16.22 1.58-20 4.25-4.25 3-5.75 7-5.37 9.5s4 16.38 5.13 18.75.25 1.63 1.13 7.25 8.88 43.13 12.38 50.75 11.5 22.75 12.13 26-.75 8.13 3.5 10.5 13.5 5.88 25.88 6.13 27-2.12 29.63-3a8.1 8.1 0 0 0 4.88-3.75c1.13-1.75-1-3.37 0-4.87s11.75-12.87 17-27.75 9.13-33 9.63-37.25 1.38-13.25 2.75-18.75 6.13-14.25 7.13-16.12c.38-.71 1.44-2.12 2.38-3.76v-7.74zm-45.25-134.38a27.4 27.4 0 0 1 14.88-2.37c8.13 1.13 12 4.13 13 6.25s3.5 6.13 2.88 10.38c0 0 1 4.63 1.63-2.5a13.41 13.41 0 0 0-6.37-13 33.09 33.09 0 0 0-11.25-3.62c-4-.62-1.62-2.87 2.25-3s12.63.38 16.88 5.5 4.63 8.25 3.63 14.63-3.62 10.5-5 13.88-1.87 7.38-3.75 2.75-2.62-12.87-6.5-16.87a29.35 29.35 0 0 0-17.25-8.87c-7.4-.91-6.78-2.16-5.03-3.16zM1922 412.01c-.37-9.12 3.25-14.5 7.5-19.87a30.67 30.67 0 0 1 9.88-8c2-.37 7.13 13.38 9.13 18.88s3.5 12 1.63 17.38-8.37 7.25-11.12 8.38-2.37 0-2.37 0c.5-1.62-.12-18 .13-22.5s-.25-6.75-1.12-6.12-.87 23.5-.87 23.5l-.37 3.25c-.37 3.25-1.25 2.63-1.25 2.63s-10.79-8.41-11.17-17.53zm-.87 52.13c-2 1.25-5.37-1-7.75-2.87s-11.37-9.75-14.5-13.37-5.25-6.75-9.62-6.75-7 2.5-8.62.5a1.58 1.58 0 0 1 1.25-2c1.75-.62 4.75-3.5 6.13-4.5a14.4 14.4 0 0 1 9.75-3.5c5.13.25 10.75 5.13 12.63 7.75s5.13 10 6.63 14 3.25 5 4 6 2.1 3.48.1 4.73zm-2-11.75c-1.5-5.37-5.37-13.75-10.87-18.87a16.45 16.45 0 0 0-11.87-4.5 27 27 0 0 0-3.37 0c-3 .25-4.25-.75-1.62-2.37s8.38-2.73 8.75-2.75c7.63-.37 13 .77 17.13 6.63 4.5 6.38 5.63 14.63 6.25 17.5s.75 8.25-.25 8.75-2.65.98-4.15-4.4zm12 31.5c-.87.13-.75-4.12.38-8.87s6.38-18.25 8.75-23.25 1.25-4.62.75-4.87-3.37 6.88-7.5 15.38-5 12.13-5.12 18.13c-.06 2.67 1.5 8.75-.25 8.75s-4-5-4.5-12.75-.5-11.12 1.13-17c1.27-4.59 7.25-10.25 10.75-13.87s6.63-5 7.25-3.87 2.38 6.25 4.5 12.5a17.59 17.59 0 0 1-1.37 14.88c-2 3.38-9.25 5.5-11.12 9.75s-3.65 5.08-3.65 5.08zm-22.62 5.38c-1.75.88-2.62 2.63-4.37 4.5s-4.75 5.63-15.12 5.88-17.87-4-20.37-6.38-5.75-5.5-4.37-6.62 3.13.13 7.38-2 6.63-4.12 11-5.87 10.63-.62 10.63-.62 4.38 1 7.5 1.88 2.13 2.38.25 2.13-8.25-.5-11.12.88-8 4.15-12.25 5.88c-2.75 1.13 0 2 2.75.88 3.36-1.37 7.38-3.5 13-5.37s10.88 1 14.13 1.63 2.7 2.31.95 3.19zm38.25 2.88c1.38-2.37 6.25-2.5 6.25-2.5 19.13-4.12 31.29 10 33.38 13.88 4.63 8.5 3.88 17.13 5.75 22s.25 3.38.25 3.38c-1.87-.25-5.37-3.87-7.75-9.62s-4.37-9.25-9.75-15.62-15.12-8-19.37-8.63-10.14-.55-8.77-2.91zm-12.12 9.63c1.38-3.12 5.25-4.38 5.25-4.38 5.88-1.75 16.63.13 23.25 2s11.13 5.63 12.88 8.38 8.75 18.13 12.38 21.75 7.75 3.5 7 4.5-4.37 2-8.62 2.13a89.57 89.57 0 0 1-16.78-1.67c-3.62-.87-10.75-3.12-15.75-7s-10.25-10.25-14.62-14.12-6.38-8.49-5-11.61zm1.25 15.77c.6-.31 1.21-.32 2.5.11 3.38 1.13 10.75 7.75 13.63 10.88s2.13 3.38.25 4.63-3.62 1.38-6.62 7.13-2.87 6.63-5.25 8.88a15.73 15.73 0 0 0-3.5 6c-2.87 4.13-2.5 10.13-2.25 12.88s.38 4.75-.75 5-2.12-5.12-1.37-8.62.38-11 2.75-16.87a37.71 37.71 0 0 0 2.25-16.75c-.38-4.26-2.53-11.17-1.65-13.33zm-4.32 2.77c.6.55 2.57 2.53 2.57 5 0 2.88 1.88 7.13.88 11.38s-3 14.88-3.25 18 0 6.75-2.12 7.5-8.75-2.37-11.62-4.12c0 0-6-6.62-6.37-9.5s-1.75-5.37 3-6 6.38-2.62 9.5-7.25.13-11.87 6.13-14.37c.45-.28.87-.47 1.26-.67zm-36.93 23.34c2.63-1.12 10.88.75 14.5 3.38s3.63 7.38 4 9.13-2.62.88-2.62.88c-2-1-15.37-8.5-16.62-9.75s-1.9-2.54.73-3.67zm-18.75 0c-1.87-.37-2.87-2.12.38-2.5s7-2.5 13.63-8.12 11.38-15.25 19.25-18.12 18.25 2.13 18.25 2.13c2.13 1.63 0 2.25-2.12 3.88s-1.37 6.38-2.75 11.25-1.75 6-8 8.5-13.5 1-17.37 1.13-19.41 2.2-21.28 1.82zm42.25 18.5c1.25.75 4-.5 6.38.88s4.13 2.88 3.13 3.63-7.5 0-10.87.13c0 0-9.69.28-18.13.85a17.68 17.68 0 0 0 5.13-1.35c2.22-1.29 10.85-4.17 14.35-4.17zm-37.87-31.5c1.25-2.62 7.88-18.12 20.5-23s25.13 1.63 26.25 2.75 4.38 3.88-1.37 2.75c0 0-9.37-3.25-16.62-1.25s-12.5 8.63-15.25 11.88-7.75 9-9.87 10.5-5.62 4.88-6.5 4.25 1.59-5.28 2.84-7.91zm-21-.87c.75-1.75 13.5-3 16.38-3.37s3.13 2.75 2.5 5.38-5.13 3.54-5.5 3.5c-2.25-.25-6.25-2.25-8.37-2.87s-5.78-.94-5.03-2.67zm14.5 29.88c-6.5-4.25-8.87-13.62-10.5-16.75s-2.87-6.5-1.87-8 4.75.25 6.75 1.13 4.5 2.25 3.38 2.75-1.75 2.5-1.75 2.5a7.39 7.39 0 0 0 4.88 5c3.25.88 4.75-.5 8.88-.37s11.38 5.88 14.63 8.13 7.5 3.75 10.75 5.38.38 2.63-1.87 3.38a66 66 0 0 1-14.87 2.38c-7.55.43-11.93-1.32-18.43-5.57zm79.13 136c-4.87 1.63-18.87 3.25-26.5 3s-19-2.87-22.5-4.37-3-4-2.37-4.87 5.91 1.17 9.43 2.29c.33.16 16.54 1.94 23.32 1.83a124.53 124.53 0 0 0 16.75-1.62s6.25-2.12 6.75-.25-.03 2.33-4.9 3.95zm41.75-106c-1 3.13-7.37 7.75-9.37 13.88s.5 13.38-.75 21.38-8 31.63-11.37 38.63-7.87 18.75-12 21.88a14.23 14.23 0 0 1-8.25 3l-.12.22c-4.71.63-14.89 1.72-19.51 1.91-9.12.38-21.53-1.89-21.82-1.93a34 34 0 0 1-8.93-3.19c-4.5-2.5-8-12.75-9-15.37s-9.37-26.37-11.12-33.37-7.75-27.25-6.87-29.75 2.63-1.75 3.5-2.75-3.12-2-6.25-9-3.87-9.12-3.25-11.25 3.32.1 7.23 2.62l.4.26a41.34 41.34 0 0 0 10.63 4.75c6.88 2.13 18.28 4.51 33.25 5.5 17 1.13 42-1.37 55.5-2.87s14.38-5.75 16.13-6c1.23-.18 1.35 1.44 2 1.45zm0-9.25c-.62 1.88-1 4.5-5.37 7.63s-20 4.38-23.5 4.63-45.62 2.38-59.37.75-28.5-8.5-28.5-8.5-5.75-2.62-6.75-5.62 3.63-7.87 16.38-8.75 29.63-2 29.63-2c2.28-.15 10.23-.6 11.51 0 1.5.75 2.25 1.88 1.63 2.63-.31.38-1.8.6-3.38.72-3.22-.07-12.79-.21-21.37.4-10.5.75-28.25 2.88-28.37 5.88s9.38 6.63 15.13 8.88 23.88 3.63 32.13 3.63 44.75-.62 54.5-2.75 11.25-5.62 11.13-6.37-.37-2.12-4-3.25-3.37.88-2.25 1.13 3.13.88 2.5 2.38-4.87 2.38-16.37 4.5-48.75 2-57 1.5-22.37-4-26.87-5.75-5.12-3-.75-5.12 26.38-3 26.38-3h.5c5-.5 15.13.38 15.13.38s3.38-.37 3.88 1-1 3.5.38 4.13 2.88-3.5 5.38-3.75 6.88-.25 7.63-1.12-5.5-.37-6.87-1.62a4.92 4.92 0 0 1-1-2.14 2.44 2.44 0 0 1 1.33-1c1.25-.25 27.63.88 36.13 2.38s19.38 3.75 20.25 7c.1.38.2.78.29 1.19a.58.58 0 0 0-.12-.04z" fill="#c9b2a7"/><g fill="#c9b2a7"><path d="M1759.9 439.49a4.3 4.3 0 0 0-4.77-3.33c-2.75.13-4.19 2.13-4.19 3.56 0 2.79 0 6.75.06 7.63l.65 37.56s.42 2.81 4.5 2.67c3.92-.14 4-2.23 4.17-5.83.07-2.26-.42-42.26-.42-42.26zm-4.08 46.23c-2.67 0-2.69-2.19-2.75-5.81-.15-8.44-.41-32.89-.41-32.89 0-6-.23-8.55 2.41-8.61s2.85 2.29 2.94 6.13.44 28 .56 38.13c0 1.03-.09 3.09-2.76 3.09zM1727.15 439.9a4.3 4.3 0 0 0-4.77-3.33c-2.75.13-4.19 2.13-4.19 3.56 0 2.79 0 6.75.06 7.63l.65 37.56s.42 2.81 4.5 2.67c3.92-.14 4-2.23 4.17-5.83.07-2.34-.42-42.26-.42-42.26zm-4.08 46.23c-2.67 0-2.69-2.19-2.75-5.81-.15-8.44-.41-32.89-.41-32.89 0-6-.23-8.55 2.41-8.61s2.85 2.29 2.94 6.13.44 28 .56 38.13c0 .99-.09 3.05-2.76 3.05zM1618 439.07s-.61-3.33-4.77-3.15c-2.75.12-4.19 2-4.19 3.37 0 2.63 0 6.38.06 7.2l.65 35.49s.42 2.66 4.5 2.52c3.92-.13 4-2.11 4.17-5.51.08-2.2-.42-39.92-.42-39.92zm-4.08 43.68c-2.67 0-2.69-2.07-2.75-5.49-.15-8-.41-31.08-.41-31.08 0-5.65-.23-8.08 2.41-8.13s2.85 2.17 2.94 5.79.44 26.46.56 36c.01.97-.09 2.92-2.75 2.92z"/><path d="M1934.92 35.37c-5.57-1.27-74.87-12.59-81.05-13.59l-.45-.07a39.14 39.14 0 0 0-7.92.08l-2.37.25L1547 34.66a4.11 4.11 0 0 0-3.71 4c-.17 3.75 0 583.33 0 583.33a31.2 31.2 0 0 0 1.67 10.13c1.79 4.88 13.08 5.75 13.08 5.75l260.84 21.07v.05l28.42 1.5a31.46 31.46 0 0 0 17.08-4.5c8.5-5.17 18.5-13 18.5-13l-2-2.33-17.5 11.42s-5.17 2.92-5.17-5.58V29.03s-.25-4.83 5.58-3.42 70.75 12 70.75 12a4.37 4.37 0 0 1 2.83 3.67c.17 2.75 0 77.17 0 77.17h2.92V41.37s.46-4.67-5.37-6zm-389.71 4.75s.54-3.25 2.79-3.5c.72-.08 35.57-1.39 81.19-3.09a2.85 2.85 0 0 1 1.81 2.64c0 .58-.05 43.61-.13 106.41l-83.87 2.68s-1.58.1-1.81-.91c.01-61.86.02-104.23.02-104.23zm0 109.06a2.33 2.33 0 0 1 2.47-1.41c.46 0 36.3-1.1 83.2-2.56-.09 68.49-.2 159.71-.31 245l-84.16-.73s-1.21-.06-1.22-2.84c-.01-82.15 0-170.54 0-237.47zM1556 634.37s-6.08-.12-8.17-3.21-2.54-4.75-2.62-9.92V393.39c0-.93.14-1.75 1.11-1.85.46 0 36.82.27 84.26.7-.16 129.6.13 244.84.13 244.84s0 3.18-2 3.33zm181.58 12.39s-.07 2.1-3.49 2.45l-99-8.25c-1.22-.32-2-.49-2-5.93 0-3.09-.27-116.77-.14-242.76l104.61 1v253.49zm0-255.64l-104.58-.91c.09-86.63.21-178.9.3-245.09l104.31-3.25v249.24zm0-337v85.06l-104.3 3.31c.07-54.13.13-90.16.13-90.16V35.12a1.88 1.88 0 0 1 1.42-1.8l100.29-3.71c1.26.34 2.52 1 2.57 2.4.06 2.75-.11 22.08-.11 22.08zm2-1.5l.08-21.17s.17-1.79 1.62-2l104.39-3.96a2.19 2.19 0 0 1 2.58 1.92V135.6l-108.58 3.48zm.08 89.21l108.58-3.39v253.63l-108.34-.94zm105.42 515.66c-4.08.25-26.08-1.25-26.08-1.25l-76.81-6.4c-1.11-.36-2.16-1-2.18-2.08 0-2.3.1-15.29.1-15.29l-.22-239.25 108.35 1v234.4l.56 26.5s.37 2.16-3.72 2.37zm6.08-630.33a2.14 2.14 0 0 1 2.25-2.25c1.33.09 2.25 1.17 2.33 3.92v104.85c0 1.44-.74 1.5-.74 1.5l-3.14.15-.88.06zm-.37 364.45l.32-253.33a32.69 32.69 0 0 1 3.85.13 1 1 0 0 1 .83 1.21v250.47a1.83 1.83 0 0 1-1.42 1.6h-3.56v-.06zm3.71 263.3c-1.83 1-3.58.5-3.92-3.42s0-24.17 0-24.17h-.08l.29-233.06a40.89 40.89 0 0 1 4.34 0 1.29 1.29 0 0 1 .65 1v254.71s.55 3.98-1.28 4.98z"/><path d="M1837.45 149.39a2.62 2.62 0 0 0-2.12-1.13h-.75s-80.7 3-82.71 3c-3.25 0-3.5 3.63-3.5 3.63s-.12 217 0 222.5 3.25 4.63 3.25 4.63 79-1.37 82.75-1.37 3.25-3.62 3.25-3.62l.19-225.59a4.86 4.86 0 0 0-.36-2.05zm-87.08 228.87s-.43-218.74-.36-222c.05-2.42 1.15-3.11 1.8-3.3V379.87a2.18 2.18 0 0 1-1.44-1.61zm85.25-3c-.37 3.75-3.37 3.88-3.37 3.88s-74.75 1.5-78.25 1.25a7.82 7.82 0 0 1-1.21-.18l-.21-222.72v-4.65l82.32-2.93a1 1 0 0 1 .87 1s.23 220.58-.15 224.35zM1728.45 154.39a2.62 2.62 0 0 0-2.12-1.13h-.75s-80.7 3-82.71 3c-3.25 0-3.5 3.63-3.5 3.63s-.12 213 0 218.5 3.25 4.63 3.25 4.63 79-.37 82.75-.37 3.25-3.62 3.25-3.62l.19-222.59a4.86 4.86 0 0 0-.36-2.05zm-87.08 224.87s-.43-214.74-.36-218c.05-2.42 1.15-3.11 1.8-3.3v222.9a2.18 2.18 0 0 1-1.43-1.6zm85.25-2c-.37 3.75-3.37 3.88-3.37 3.88s-74.75.5-78.25.25a7.82 7.82 0 0 1-1.21-.18l-.21-218.72v-4.65l82.32-2.93a1 1 0 0 1 .87 1s.23 217.58-.14 221.35z"/></g><path d="M1916.17 136.67a6.39 6.39 0 0 1 4-3.67 56.93 56.93 0 0 1 7.17-1c18.29-2 37.9-1.44 42.54-.83 0 0 16.29 1.5 20.13 2.83s6 2.33 6.83 4.67 3.17 14.5 3.17 14.5v-12.33s-1.33-6.33-2.83-7.5a11.37 11.37 0 0 0-4-1.67l-.17-6.33s-.83-2.5-5.17-3.83-20.83-4.71-31.83-4.71-29.67 2-32 2.71-4.83 2-5.33 4.5-.83 4.83-.33 6.33a7.11 7.11 0 0 0-4.33 2.5c-1.67 2.17-29.33 130.17-29.33 130.17a6.08 6.08 0 0 0 2.17 7 7.38 7.38 0 0 0 1.19.71 5.53 5.53 0 0 0-1.52 1.46 5.42 5.42 0 0 0 3.13 6.75c3.31 1.43 17.52 6.37 45.38 8.54v53.27a53.94 53.94 0 0 0-3.17 5.19c-2.33 4.67-1.08 12.25.83 16.17a23.9 23.9 0 0 0 2.58 3.86v18l2.67-1.5v-13.38a50.54 50.54 0 0 0 5.75 5.41v14.26l2.42 3.42.23-15.86c.29.17.58.32.85.44.93.43 2.27 1.07 3.83 1.88v27l1.92 4.67.49-30.36c6.35 3.4 14.82 8.51 18 12.53 4.5 5.67 9.5 11 8.33 21.58s-5 19-6.33 20.17l3.17-.08a97.19 97.19 0 0 0 4.83-17.92c1.42-9.17-1.42-17.17-9-24.5s-19.08-13.67-24.58-16.83-14.42-12.5-15.17-20.25c-.63-6.56 4-13.82 10.16-20.94l.06 5.89c-.69.73-4.68 5-6 9.13-1.42 4.5-.5 9.42 3 13.83s15.42 12.58 17.58 13.92 16.5 8.75 21.58 13.83 7.5 15.92 7.42 19.92 0 12.83-1.75 17.58a46.12 46.12 0 0 1-3.5 7.58l1.92.5s6.42-8.25 5.33-25.08-7.75-20.92-8.83-22.25-21.67-13.92-24.33-16c-.32-.25-.72-.54-1.17-.87v-44.69c1.56-1.2 9.43-7.35 12.13-11.78 3-4.92 4-8.83 3.92-12.08-.08-5.17-3.61-12.37-6.56-14.72 24.44-.5 36.39-4.44 36.39-4.44v-2.5s-16.12 6.13-55.75 4-49-7.5-51.12-8.37-4.62-2.12-4-3.25a5 5 0 0 1 2.6-1.6c9 3.08 27.27 7.09 41.11 8.8 17.5 2.17 55.17.33 67.17-3.17v-3.17s-32.83 6.67-66.5 3.17-44.67-10.67-44.67-10.67-1.67-.83-.83-5.17 28.12-125.37 28.12-125.37zm15.33-16.5a223 223 0 0 1 25.5-1.37c4 0 30.33 2.88 32.83 5.54a6 6 0 0 1 1.17 6.5c-.33 1-11.67-1.17-20.67-2-17.54-1.21-42.65 1.15-42.65 1.15a4.75 4.75 0 0 0-1 0l-3.33.33s-3.35.17-3.35-2.83 0-6 11.5-7.32zm22.63 169.6c1 .78 7.58 6.36 8.13 12.23.71 7.76-5.92 11.87-8.12 14v-26.22zm0 28.12c2.28-1.2 7.38-5.22 9.13-9.55 2.25-5.58.8-9 .17-10.67-.76-2-4.61-6.9-6.48-9.26h3.57c1.54 1.5 7.9 8.26 7.16 16.76-.83 9.67-9.25 15.25-10.5 16.08a30.51 30.51 0 0 0-3 2.56v-5.92zm-8.75 10.53V288.1l1.5.07c1.45.06 2.86.11 4.25.14v81.18c-1.7-1.21-3.61-2.6-5.39-4l-.4-37zm-2.26 34.79a25.7 25.7 0 0 1-1.95-2 13.68 13.68 0 0 1-2.67-11.92c.55-1.79 3.44-5.29 4.42-6.45zm-5-75.52q2.26.15 4.63.28v42s-2.17 2.87-4.62 6.31v-48.59z" fill="#c9b2a7"/><path fill="none" stroke="#c9b2a7" stroke-miterlimit="10" d="M1924 131.26l-31 140.25M1938.75 129.76l-21.25 147.25M1955.75 129.26l-4 151.25M1974.5 129.76l9.25 148.5M1989.25 132.26l10.75 77.5"/></g><g opacity=".3"><g fill="#c9b2a7"><path d="M319.07 330.2c-2-1-5.78-2-3.82-3.53s6.66-1.08 6.66-1.08 2.74-.49-.69-2.35-7.06-3.92-7.74-11.76-2.35-16.17-10.68-21.85-20.09-4.21-25-2.35a22.67 22.67 0 0 0-8.23 5.78s-2.16 2.55-2.84.59c-1-3.43.49-9.41 2.45-12.35s7.15-4.8 9.7-8.23 1-8.82.59-12.15-.49-3.43 3-3.72 12 2.74 15.19 6.08 8.13 13.52 8.43 15.78 4 6.47 3.53 4.51.39-6.47 2.06-11 7.15-14.31.49-21.56a17 17 0 0 0-14.7-5.78c-3.63.59-7.94 2.35-9.11 3.43s-9.41 4.31-10.68 3.92-1.08-3.14-1.76-4.8-1.57-1.37-1.57-1.37c-.78.1-5.68 4.51-6 4.61s-.88-1.47-.69-3.72 6.08-4.51 7.84-5.29a12.81 12.81 0 0 0 6.27-7.84 18.35 18.35 0 0 0-1.01-12.68c-1.37-2.74-4.61-11.56-5.19-12.54s-1.57-5.46-2.57-5.54-3.43 1-6.76 4-11.17 11.17-10.58 19.21 3.63 10 7.25 14.31 2.74 5.49 3.33 9.21a5.25 5.25 0 0 1-2.55 5.39s-3.53 3-4-3.63a20.65 20.65 0 0 0-7.35-14.5c-3.33-2.55-7.06-2.55-10.88-2.16a14.68 14.68 0 0 0-10.78 6 26.29 26.29 0 0 1-9.7 8c-3.33 1.76-1.08 3.33 1.57 4.21s9.9.2 12 1 9.9 9.21 13.62 12.44a16.62 16.62 0 0 0 8.13 3.92c1.37.39 1.76 2.55 1.67 8.43s2.45 10.39 4 11.27 3.14 3.92 3.14 3.92a9.44 9.44 0 0 1 1.37 4.8c-.2 2.25-.49 5.1-.49 5.1s3.14 2.06 2.74 3.43-1.47 1-2.55-.39-1.86-2.84-3.63-4.9-2.84-10.39-9.9-15.87-10-9.41-20-8.92-12.64 4.12-15.38 5.49a15.94 15.94 0 0 1-6.47 1.27s-4-.88-2 2 6 8.82 12 11.07 12.74 2.45 17.34.88 6.08-3.82 8.62-6.17 3.14-3.72 5.68-2.84 5.68 7.55 6.17 10.09.39 2.55-2.65 1.57-7.74-2.65-14.21-.78-10.88 7.15-12.64 10.09-1.67 4.51-4.8 5.29-11.76 2.06-15.48 2.55-4.21 2.06-4.21 2.06 3.63 3 4.31 6.17 1.27 9.5 7.55 16.17 10.58 7.45 15 7.84c.9.08 1.86.11 2.84.1-6.34.54-12.72 1.24-15.68 3.33-3.33 2.35-4.51 5.49-4.21 7.45s2 10.49 2.83 13.33c.58 2 1.33 5.17 2.17 9.5s6.86 31.36 9.6 37.34 9 17.83 9.5 20.38-.59 6.37 2.74 8.23 10.58 4.61 20.28 4.8 21.17-1.67 23.22-2.35a6.35 6.35 0 0 0 3.82-2.94c.88-1.37-.78-2.65 0-3.82s9.21-10.09 13.33-21.75 7.71-23.62 8.5-26.88c1.17-4.83 2.59-10.69 3.67-15s3.83-11.17 4.67-14.5c.4-1.62 3.75-6.92.32-9.17s-7.94-5.39-23.22-6.86-24.79-1.76-25.38-1.86a4.58 4.58 0 0 1-1.57-.76 11.82 11.82 0 0 1 .59-5.12c1.23-2.64 3.27-4.46 5.08-4.5 2.68 1.29 7.41 8.24 13.24 9.7 6.27 1.57 16.46 2.84 20.48.78s6.27-6.08 8.72-7.64 2.45-2.94 6.08-3.43-2.1-7.61-4.03-8.59zm-35.47-77.11a21.48 21.48 0 0 1 11.66-1.86c6.37.88 9.41 3.23 10.19 4.9s2.74 4.8 2.25 8.13c0 0 .78 3.63 1.27-2a10.51 10.51 0 0 0-5-10.19 25.94 25.94 0 0 0-8.82-2.84c-3.14-.49-1.27-2.25 1.76-2.35s9.9.29 13.23 4.31 3.63 6.47 2.84 11.46-2.84 8.23-3.92 10.88-1.47 5.78-2.94 2.16-2.04-10.06-5.12-13.2a23 23 0 0 0-13.52-7c-5.74-.64-5.25-1.62-3.88-2.4zm-25.67-25c-.29-7.15 2.55-11.37 5.88-15.58a24 24 0 0 1 7.74-6.27c1.57-.29 5.59 10.48 7.15 14.8s2.74 9.41 1.27 13.62-6.57 5.68-8.72 6.57-1.86 0-1.86 0c.39-1.27-.1-14.11.1-17.64s-.2-5.29-.88-4.8-.69 18.42-.69 18.42l-.29 2.55c-.29 2.55-1 2.06-1 2.06s-8.41-6.57-8.7-13.72zm-.69 40.86c-1.57 1-4.21-.78-6.08-2.25a130.27 130.27 0 0 1-11.37-10.48c-2.45-2.84-4.12-5.29-7.55-5.29s-5.49 2-6.76.39a1.24 1.24 0 0 1 1-1.57c1.37-.49 3.72-2.74 4.8-3.53a11.29 11.29 0 0 1 7.64-2.74c4 .2 8.43 4 9.9 6.08s4 7.84 5.19 11a12 12 0 0 0 3.14 4.7c.58.76 1.66 2.72.09 3.7zm-1.57-9.21c-1.18-4.21-4.21-10.78-8.52-14.8a12.9 12.9 0 0 0-9.31-3.53 21.19 21.19 0 0 0-2.65 0c-2.34.2-3.33-.59-1.27-1.86s6.57-2.14 6.86-2.16c6-.29 10.19.61 13.42 5.19 3.53 5 4.41 11.46 4.9 13.72s.59 6.47-.2 6.86-2.05.8-3.23-3.41zm9.41 24.75c-.69.1-.59-3.23.29-7s5-14.31 6.86-18.23 1-3.63.59-3.82-2.65 5.39-5.88 12.05-3.92 9.5-4 14.21c0 2.09 1.18 6.86-.2 6.86s-3.14-3.92-3.53-10-.39-8.72.88-13.33c1-3.6 5.68-8 8.43-10.88s5.19-3.92 5.68-3 1.86 4.9 3.53 9.8a13.79 13.79 0 0 1-1.08 11.66c-1.57 2.65-7.25 4.31-8.72 7.64s-2.85 4.04-2.85 4.04zm-17.74 4.21c-1.37.69-2.06 2.06-3.43 3.53s-3.72 4.41-11.86 4.61-14-3.14-16-5-4.51-4.31-3.43-5.19 2.45.1 5.78-1.57 5.19-3.23 8.62-4.61 8.33-.49 8.33-.49 3.43.78 5.88 1.47 1.67 1.86.2 1.67-6.47-.39-8.72.69-6.3 3.25-9.6 4.61c-2.16.88 0 1.57 2.16.69 2.63-1.08 5.78-2.74 10.19-4.21s8.52.78 11.07 1.27 2.18 1.8.81 2.48zm30 2.25c1.08-1.86 4.9-2 4.9-2 15-3.23 24.53 7.87 26.16 10.88 3.63 6.66 3 13.42 4.51 17.25s.2 2.65.2 2.65c-1.47-.2-4.21-3-6.08-7.55s-3.43-7.25-7.64-12.25-11.86-6.27-15.19-6.76-7.95-.4-6.87-2.26zm-9.5 7.55c1.08-2.45 4.12-3.43 4.12-3.43 4.61-1.37 13 .1 18.23 1.57s8.72 4.41 10.09 6.57 6.86 14.21 9.7 17 6.08 2.74 5.49 3.53-3.43 1.57-6.76 1.67a70.21 70.21 0 0 1-13.13-1.27c-2.84-.69-8.43-2.45-12.35-5.49s-8-8-11.46-11.07-5.03-6.68-3.95-9.09zm-2.41 14.53a5.84 5.84 0 0 1 2 3.89c0 2.25 1.47 5.59.69 8.92s-2.35 11.66-2.55 14.11 0 5.29-1.67 5.88-6.86-1.86-9.11-3.23c0 0-4.7-5.19-5-7.45s-1.37-4.21 2.35-4.7 5-2.06 7.45-5.68.1-9.31 4.8-11.27c.38-.21.71-.37 1.03-.52zm-28.95 18.3c2.06-.88 8.52.59 11.37 2.65s2.84 5.78 3.14 7.15-2.06.69-2.06.69c-1.57-.78-12.05-6.66-13-7.64s-1.52-2.02.54-2.9zm-14.7 0c-1.47-.29-2.25-1.67.29-2s5.49-2 10.68-6.37 8.92-12 15.09-14.21 14.31 1.67 14.31 1.67c1.67 1.27 0 1.76-1.67 3s-1.08 5-2.16 8.82-1.37 4.7-6.27 6.66-10.58.78-13.62.88-15.19 1.79-16.66 1.5zm33.12 14.5c1 .59 3.14-.39 5 .69s3.23 2.25 2.45 2.84-5.88 0-8.52.1c0 0-7.59.22-14.21.66a13.86 13.86 0 0 0 4-1.06c1.76-1.03 8.52-3.28 11.27-3.28zm-29.7-24.74c1-2.06 6.17-14.21 16.07-18s19.7 1.27 20.58 2.16 3.43 3-1.08 2.16c0 0-7.35-2.55-13-1s-9.8 6.76-12 9.31-6.08 7.06-7.74 8.23-4.41 3.82-5.1 3.33 1.29-4.13 2.27-6.19zm-16.46-.69c.59-1.37 10.58-2.35 12.84-2.65s2.45 2.16 2 4.21-4 2.78-4.31 2.74c-1.76-.2-4.9-1.76-6.57-2.25s-4.55-.68-3.96-2.05zm11.37 23.42c-5.1-3.33-7-10.68-8.23-13.13s-2.25-5.1-1.47-6.27 3.72.2 5.29.88 3.53 1.76 2.65 2.16a3.68 3.68 0 0 0-1.37 2 5.79 5.79 0 0 0 3.82 3.92c2.55.69 3.72-.39 7-.29s8.92 4.61 11.46 6.37 5.88 2.94 8.43 4.21.29 2.06-1.47 2.65a51.73 51.73 0 0 1-11.66 1.86c-5.93.31-9.36-1.03-14.46-4.36zm62 106.61c-3.82 1.27-14.8 2.55-20.77 2.35s-14.89-2.25-17.64-3.43-2.35-3.14-1.86-3.82 4.64.92 7.39 1.8a177.84 177.84 0 0 0 18.28 1.44 97.62 97.62 0 0 0 13.15-1.28s4.9-1.67 5.29-.2 0 1.87-3.82 3.14zm32.73-83.09c-.78 2.45-1 7.62-2.61 12.42s-2.84 10.12-4.33 16.33-7.27 23.67-9.91 29.16-6.17 14.7-9.41 17.15a11.15 11.15 0 0 1-6.47 2.35l-.09.17c-3.69.49-11.67 1.35-15.29 1.5-7.15.29-16.88-1.49-17.1-1.51a26.64 26.64 0 0 1-7-2.5c-3.53-2-6.27-10-7.06-12.05s-7.35-20.68-8.72-26.16-5.36-20.91-5.86-22.92c-1.17-4.67-1.75-6.83-2.42-9.58-1.42-5.84-2.3-7.18-1.81-8.84s2.6.08 5.67 2.05l.31.2a32.41 32.41 0 0 0 8.33 3.72 118.35 118.35 0 0 0 26.06 4.31c13.33.88 32.92-1.08 43.51-2.25s11.27-4.51 12.64-4.7c1-.14 1.06 1.13 1.58 1.14zm-45.27-11c2-.2 5.39-.2 6-.88s-4.31-.29-5.39-1.27a3.85 3.85 0 0 1-.75-1.68 1.91 1.91 0 0 1 1-.77c1-.2 21.66.69 28.32 1.86s15.19 2.94 15.87 5.49c.08.3.16.61.22.93v.05a9.45 9.45 0 0 1-4.21 6c-3.42 2.42-15.63 3.42-18.41 3.62s-35.77 1.86-46.54.59-22.34-6.66-22.34-6.66-4.51-2.06-5.29-4.41 2.84-6.17 12.84-6.86 23.22-1.57 23.22-1.57c1.79-.11 8-.47 9 0 1.18.59 1.76 1.47 1.27 2.06a5.79 5.79 0 0 1-2.65.57c-2.53-.06-10-.16-16.75.32-8.23.59-22.15 2.25-22.24 4.61s7.35 5.19 11.86 7 18.72 2.84 25.18 2.84 35.08-.49 42.72-2.16 8.82-4.41 8.72-5-.29-1.67-3.14-2.55-2.65.69-1.76.88 2.45.69 2 1.86-3.82 1.86-12.84 3.53-38.21 1.57-44.68 1.18a97.79 97.79 0 0 1-21.07-4.51c-3.53-1.37-4-2.35-.59-4s20.68-2.35 20.68-2.35h.39a90.13 90.13 0 0 1 11.86.29s2.65-.29 3 .78-.78 2.74.29 3.23 2.27-2.8 4.23-3zm2.74-20.77a12.33 12.33 0 0 0-2.74 4.7c-2.25 3.23-2 7.94-1.76 10.09s.29 3.72-.59 3.92-1.67-4-1.08-6.76.29-8.62 2.16-13.23a29.56 29.56 0 0 0 1.76-13.13c-.27-3.29-2-8.7-1.27-10.37a2.32 2.32 0 0 1 2 .09c2.65.88 8.43 6.08 10.68 8.52s1.67 2.65.2 3.63-2.84 1.08-5.19 5.59-2.29 5.21-4.15 6.97zm48.5 2c-.88.39-2.45.2-4.31 1.27s-2.45 5.68-9.41 8.33-15.38 1.86-20-.49-8.2-6.88-10.09-8.19-3.53-2.45-.2-3.92 6.17-2.35 11-1.08 12.44 4.51 17 4.12 7.35-1.47 8.33-2.35.39-1.47-2-.78-4.51 1.86-9.6.88-13.82-5.88-21.46-4.51c0 0-2.84.29-2.74-.69a6.42 6.42 0 0 1 6.47-5.68c5.29-.1 10.19 1.76 13.91 2.65s9-.39 12.35.59 9 4.8 10.39 6.66 1.26 2.78.38 3.17z"/><path d="M309.42 444.26c-5.25-2.67-16.92-4.42-16.92-4.42s-2.92.25-.08 1.75c0 0 14 2.17 18.5 6.17s1.33 7.5-1.33 7.83-20.67.42-20.67.42l-.33 2s17.83 0 20.5-.33a6.69 6.69 0 0 0 3.28-1.52c.1 1.72-.07 4.33-1.28 4.93-10.67 3.67-23.67 2.25-23.67 2.25v1.83s20.14 1.32 25.58-2.75c1.35-2.85 2-8.58 2-10.44 0-.08 0-.15.06-.23.52-2.99-4.24-6.78-5.64-7.49z"/></g><path d="M220.83 402.92s28.17 4.67 32.33 4.92 19.75 2.08 27 7.17 8.42 7.58 10.5 13.67-.08 21.25-.17 21.58-2 9-2 9-29.92-1.58-31.5-1.83-21.42-8.33-23.25-11.08-12.91-43.43-12.91-43.43z" fill="#fff"/><path d="M137.25 268.09s-6.8-7-10-9.22a1.82 1.82 0 0 0-1.19-.65.76.76 0 0 0-.22 0 25.16 25.16 0 0 0-3 0l-25.05.63c-1.44 0-2.92.12-2.87-2 .34-12.39-2.33-24.65-1.51-37.08.13-2 .62-5.44-1.69-6-3-.71-2.67-2.38-2.77-4.33a43.74 43.74 0 0 0-.35-6.05c-.34-1.75-.51-3.86-3-4.25-3.74-.58-7.43-1.5-11.19-1.87-9.53-.93-19.09-1.56-28.61-2.5-2.26-.22-4.19-.86-5.28 2-.49 1.29-2 .81-3.09.71-12.51-1.28-24.98-1.29-37.43-1.76v2.42c6.63.69 13.33.29 20 1.31a175.68 175.68 0 0 0 19.19 1.49c2.44.1 3.24 1.16 3.71 3.26 1.51 6.75 3.11 13.46 4.21 20.31.58 3.63-.75 4-3.66 4-8.47.16-16.93.52-25.4.82a20.52 20.52 0 0 0-3 .24c-2.52.47-3.93 1.54-3.67 4.61.72 8.57 3.49 16.77 4.25 25.31.08.86.73 2.26.1 2.43-.84.23-1-1.12-1.27-1.93-4-13-8.09-26-12-39-1-3.43-1.66-7-2.42-10.51v14.01c3.43 10.45 7.71 20.6 10.49 31.27.44 1.7 1.11 3.35 1.52 5.06.27 1.14.9 2.6-1.09 3-1.55.29-2.16-.47-2.61-1.94-2.42-7.9-4.96-15.68-7.35-23.49a8.56 8.56 0 0 0-1-2.51v11.13q2.51 7 5 14c.66 1.83.39 3-1.89 2.89-1 0-2 .07-3 .12l.11 3.8c11.5-.78 23 .32 34.46.39 8.95.06 17.88-.6 26.84-.18 7 .33 14.14-.41 21.19-.1 3.79.17 8.44.12 12 .17 12.08.17 17.18-.38 29.58-.5a26.3 26.3 0 0 1 4.42.08c1.61 0 3.47-.06 4.42.42 1.67.83 2.83 4.33 2.17 6.33s-1.55 3.23-3.94 3.45c-7.56-.45-9.32.16-16.81-.12-3.45-.13-9.67 0-14.5 0-10.27 0-16.2-.06-26.43-.45-13-.49-26 .71-39 .39-11.34-.28-22.7-.06-34-.77l.11 3.8c14.52 0 29 .14 43.55 0 15.92-.15 31.84-.59 47.77-.6 8.8 0 16 .21 24.82.21 4.31 0 15.56 0 15.5-.08a7.37 7.37 0 0 0 4.17-1.67c1.38-1.5.71-10.5.71-10.5zm-91.84-67.6c-.24-1.12-1-3 1.52-2.8 12 .94 24 2.22 35.94 4.17 2.4.39 3.27 1.44 3 3.71a5 5 0 0 0 .06 1.13c.88 6.88.88 6.88-5.81 6.42-9.66.29-19.33.55-29 .89-1.68.06-2.64-.55-3-2.14-.9-3.82-1.9-7.6-2.71-11.38zm3.38 61.71a1.89 1.89 0 0 1-2.16 2l-7.73.23c-4.22.65-9-.48-13.78.22-4.54.66-6.3-.93-6.79-5.35-.8-7.14-2.56-14.09-3.75-21.16-.74-4.42.23-5.27 4.78-6 8.37-1.34 16.81-.67 25.19-1.38 1.9-.16 3 .62 3.15 2.39.61 9.65 1.82 19.34 1.09 29.02zm33.68 1.87c-6 .83-12 .1-18-.06-2-.05-2.81-.87-2.85-3-.16-7.32-.06-14.67-1.46-21.91-.57-2.91.73-4.26 3.64-4.3s6.07-.17 9.11-.26v-.05c2.78-.08 5.57-.1 8.35-.27 2.21-.14 3.21.61 3.26 3 .15 7.95.41 15.89.74 23.84.04 2.04-.69 2.69-2.78 2.98zm9.41-4.32c-.76 1.56.77 4.82-2.48 4.49-3-.3-1.23-2.88-1.47-4.56-1.24-8.64-.49-17.43-2-26.05-.27-1.55-1.09-1.78-2.36-1.74-8.36.24-16.71.52-25.07.68-2.28 0-2.29 1.33-2.2 3 .44 8.32 2.48 16.49 2.22 24.87-.06 1.88 1.06 4.24-2.45 4.22-3.13 0-3.63-1.69-3.69-4.39q-.27-13.86-.94-27.72a79.88 79.88 0 0 0-1.35-12c-.49-2.44.23-3.51 2.38-3.56 8.47-.17 16.93-1 25.42-.48 2.52.16 5.05.11 7.58.07 4.43-.08 5.17.57 5.3 4.86l.56 18.61h.07q.26 8.54.51 17.09c.03.84.32 1.87-.02 2.58zm5.58 5.21c-1.29 0-3.09.57-3-1.68s1.6-1.8 3.25-1.81c9.36 0 18.71-.28 28.07-.46 1.84.78 3.87 2.87 1.27 3.49-9.9-.43-19.74.3-29.59.43zM285.67 476.09c.67-5.17 2.92-12.83 3.42-16.25s3.58-17.75 3.42-20-.25-7.25-.5-10.75-.67-8.08-8.17-13.42-20.75-7.75-26.25-8.75-35.67-4.5-42.08-5.5-24.92-3.75-29.42-6.25-5.83-4.58-5.83-4.58v.08c-.32-.85-.72-1.84-1.22-2.91-1.67-3.58-11.67-27.42-13.08-30.75s-7.5-16-15.75-19c-2.58-1.08-9.67-1.75-11.58-1.83s-6.17 0-6.17 0a6.19 6.19 0 0 0-2.3-.26c-6 0-12-.13-18 .25a91.06 91.06 0 0 1-11.23.12c-6.71-.4-13.39-1.77-20.23-.44-4.63.91-9.15 2.08-14.11 2.19-10 .22-20.08-.22-30.11.24-7.23.33-14.42-.75-21.75.55-4.83.88-9.73 2.28-14.73 1.85v4.71c5.4 2.48 7.84 7.81 11.53 11.94 5.34 6 7.85 13.49 10.84 20.58 6.47 15.32 12.8 30.72 17.66 46.68 2.43 8 6.84 15.17 10 22.88 6 14.82 7.43 30.19 5.53 46-.38 3.17-2.5 4.83-5.33 5.49s-3.42-1.89-4.3-3.65c-3.51-7-9.19-11.81-15.81-15.66a30.06 30.06 0 0 1-12-13.39c-3.71-7.85-6.69-16.07-9.79-24.2-1.9-5-3.37-10.13-5.87-14.87-.64-1.22-.82-2.82-2.44-3.33v3.92c2.43 2.83 3.27 6.48 4.78 9.75 2 4.35 3.35 9 5 13.54.37 1 .84 2.45 0 2.92-1.25.71-2-.76-2.7-1.63-1.92-2.47-3.65-5.13-7.07-5.76v1.57c7.43 6 11.94 14.33 17.33 22 5.1 7.22 10.35 14.38 14.32 22.32 3.36 6.73 6.71 13.47 9.83 20.31a16.09 16.09 0 0 1 .92 8.09c-.43 4.6-3.72 6.6-7.59 7.87C23 532.65 11.18 536.64 0 542.28v5.49c4.23 2.11 8.64 3.82 13.41 3.8 29.12-.14 58.23.16 87.32 1.55 10.32.49 20.6-.72 30.9-.74a7.8 7.8 0 0 0 2.22 0c4.78.11 28.28.75 35 3.11 7.5 2.63 10.13 6.75 11.13 14.75s6.63 49 6.63 49 .38 2.25-1.75 5c-1.85 2.39-4.83 5.72-5.57 6.55-.76.3-1.93.39-2.47-1.55-.83-3-4.58-30.83-5.08-34.08s-2.58-24.33-2.58-27.67-1.5-6.58-4.25-7.75-17.67-2.17-22.25-2.42c-3.76-.21-13.43-.3-16.76-.32a100.55 100.55 0 0 0-10.39-.6c-14.87.12-29.74-.12-44.6.78-12.78.78-25.55-.5-38.32-.76-10.95-.22-22.16.9-32.59-4v3.14c2.19.76 4.36 1.6 6.59 2.28 6.48 2 13.23.95 19.8 1.27 12.22.6 24.49.82 36.75 1 5.46.07 10.93-.65 16.39-.62 16.17.1 32.36-1 48.51.6a3.27 3.27 0 0 0 2-.28c8.31.16 24.88.57 28.47 1.25 4.83.92 7.83 1.67 8.58 7.08s1.42 14.58 1.75 21.33 3.17 20.92 3.67 26.08 2.17 14.08 2.17 16.33-2.08 4.92-3.58 6.92-7.08 7.08-8.5 6.33-2.42-2-3.08-13.67-1.42-22.83-1.58-28.25-1.67-18.25-4.17-23.58a14.74 14.74 0 0 0-8.25-7.83c-2-.94-13.74-3.06-16.09-3.31a10.38 10.38 0 0 0-3.25-.27c-8.72-.06-17.45.2-26.15-.17-10-.42-20-1.68-30-2-10.7-.38-21.43 0-32.14-.18-12.64-.19-25.42 2.62-37.89-1.62v3.14a9.24 9.24 0 0 0 5.89 1.6c4.66 0 9.31.16 14 .06 16.46-.35 32.93-.07 49.4-.15 14.07-.07 28 2.3 42.11 2 4.89-.1 9.8-1.25 14.74.13a6.2 6.2 0 0 0 3.27.24c1.59.06 9.26.42 12.69 1.91 3.83 1.67 10.08 2.5 11.83 15.17s2.33 29.17 2.42 32.75 2.67 22.25 2.33 25.08-5.75 7.83-7.75 9.92-8.17 6.75-9.17 5-1.08-17.83-1.08-17.83l-2.92-45.17s.32-13.61-6.76-17.51l-.13-.07a8.15 8.15 0 0 0-1.05-.61 31.42 31.42 0 0 0-8-3.1c-11.53-2.54-23.22-3.18-35-3.06-13.39.13-26.78-.49-40.18.6-6.58.53-13.3-.76-19.92-.43-8.95.44-17.86 1.13-26.77-.26v2.35c4.23 1 8.59.32 12.81.9 4.73.66 9.35 0 14-.17 8.86-.27 17.69.57 26.55.55 12 0 24-.06 36 .26 8.05.21 16.1.3 24.1 1.54a77.15 77.15 0 0 1 15.15 3.67 6.28 6.28 0 0 0 .82.25 9.51 9.51 0 0 1 4.29 4.92c1.08 3.42 2.75 28.75 2.75 28.75l2.58 43s.75 1.42-1.08 4.08a34.36 34.36 0 0 1-5.07 4.88 3.66 3.66 0 0 0-1.39.83c-.94.81-1.82 1.71-2.76 2.52l-1.68 1.3c-2.81 1.78-4 1.06-4.1-2.23s.23-6.82-.08-10.19c-1.29-14.44-.36-28.93-1.18-43.4-.24-4.35-.53-8.72-.71-13.08-.34-7.93-7.75-12.8-14.17-14.05a150.66 150.66 0 0 0-27.2-2.34c-13.94-.16-27.9.07-41.83-.36-12.62-.39-25.22-1.44-37.83-2.2v3.14c20.33 1 40.67 1.34 61 1.79 12.48.28 25 0 37.49 1.44 5.38.64 10.77 1.16 15.39 4.82s4.23 8.55 4.48 13.18c1 19.4 2.15 38.81 1.64 58.27-.26 9.92-3.54 14.58-12.88 18.27-3 1.18-4.18.32-4.36-3-.83-15.46-1.87-30.91-3.72-46.3a90.35 90.35 0 0 1-.21-13.31c.1-3.56-.56-7-.92-10.5a9.56 9.56 0 0 0-6.26-8.26 58.93 58.93 0 0 0-19.51-4.64c-18.43-1.21-37-.55-55.31-3.66-5.38-.92-11.13-.19-16.75-.27v3.14a44.21 44.21 0 0 1 18.52 1.31c4.32 1.28 8.79 1.19 13.17 1.57 8.43.73 17 .67 25.39 1.23 9.07.6 18.27-.32 27.23 2s11.26 4.42 11.24 13.29c0 13.07 1.56 26 2 39.08.29 9.36 1.42 18.71 1.46 28.11a8.31 8.31 0 0 1-3.6 7.4c-5.26 3.61-10.62 7.07-16 10.43-2.22 1.38-3.84.28-4.1-2.5-.48-5.16-.14-10.34-.56-15.52-.61-7.54-1.55-15-2.78-22.46-1.19-7.2-1.9-14.43-.76-21.77 2.11-13.55-9.38-26.75-23-27.41-16.05-.77-32.11-.52-48.16-.66v3.14c14.35 0 28.69 0 43 .06a70.84 70.84 0 0 1 9.73.74c2.73.4 4.78 1.92 6.89 4 6.86 6.6 8.9 14.67 7.7 23.56-1.28 9.51 0 18.65 2 27.87a106.48 106.48 0 0 1 1.72 31.1c-.47 6-4.07 9.23-8.46 12.27-3 2.07-5.55 4.7-8.91 6.31-2.35 1.13-3.69.74-3.49-1.9 1-12.62-2.06-24.91-3.52-37.27-1.61-13.6-2.77-27.46-8-40.48a15.21 15.21 0 0 0-11.43-9.65c-9-2-18.17-3.24-27.27-4.8v3.14c8.58 1.48 17.17 2.89 25.72 4.48 5.61 1 8 5.29 9.74 10.18 4.64 12.7 6.26 26 8.44 39.26 1.33 8.08 2.22 16.23 3.2 24.36.57 4.7-.43 9.35-.81 14-.21 2.66-2.21 4.2-4.16 5.36-5.93 3.53-12.41 6-18.38 9.56-2.53 1.48-4.26.14-5-2.86-1.48-6.15-.39-12.46-1.44-18.68-1.62-9.56-1.91-19.31-3.56-28.9-1.1-6.4-1.47-13-3-19.26S6.67 657.13 0 654.49v2.35c5.33 3.46 7.61 8.8 8.61 14.71 3.05 18.06 4.62 36.32 6.69 54.5a44.37 44.37 0 0 1-.86 13.14c-1.08 5.66-7.64 9.63-14.44 9.43v3.87c7.24-1.15 13.44-4.88 19.86-8 4.9-2.41 5.56-2.07 8.87 2.26 4.56 6 5.81 13.05 7.15 20 1.39 7.26 2.85 14.56 1.14 22.07-1.36 6-1.66 6.19-7.63 7-5.48.77-10.95.28-16.41.58-2.64.15-3.69-.57-3.58-3.46.34-9.06-3.2-17.26-6.67-25.45-.5-1.18-1.08-2.45-2.72-2.45v6.28a43 43 0 0 1 5.46 21.87c-.08 3.79-3.41 2.08-5.46 2.45v3.92c1.7-.06 3.39-.1 5.09-.18 19.79-.88 39.61 1.84 59.41-.5a61.57 61.57 0 0 0 30.37-12.29c4.38-3.29 7.83-7.66 12.49-10.65 9.39-6 17.13-14 25.23-21.57a4.62 4.62 0 0 0 1.34-1.59l23.48-24.12.34-.18 116.32-127.89s8.42-11.5 11-21.67a62.94 62.94 0 0 0 1-27.33 8.49 8.49 0 0 0-.55-1.82c-.89-5.5-2.38-29.83-2.45-32.6-.08-3 1.08-16.42 1.25-20.75s.67-15.16 1.34-20.33zm-84.92-74.83c9.42 1.67 33.33 4.83 38 5.5s29.17 4.25 33.08 5.83c3.43 1.39 10.51 4 14.22 8.2v.05c1.33 2.42 1 4.08-.75 5s-4.5.33-7.08-.58-14.33-1.67-18.17-2.83-67.22-14.76-72.05-17.17a14.13 14.13 0 0 1-5.83-5.51c-.3-1.83-.56-3.5-.72-4.58 2.36 1.83 10.01 4.44 19.3 6.09zm-13.42 30.42a45.53 45.53 0 0 0-1.5-10.33c-.75-3.58-1.5-9.75-2.33-13.92-.14-.69-.29-1.52-.45-2.42 1.82 2 7.12 2.67 7.12 2.67s71.58 17.08 75.08 17.58 15.67 3.17 18.33 3.42h.51c1.11 1.72.26 9.18.57 12.14.33 3.17-1.42 18.42-2.25 22.42a55.43 55.43 0 0 0-1 8.66c-.32-.54-.66-1.11-1-1.74-2.67-4.33-8.73-8.52-12.75-10.17-9.33-3.83-39.42-9.17-43.83-9.92s-19.67-1-27.5-4-9.67-5.67-9.67-5.67h-.11a28.46 28.46 0 0 0 .78-8.73zm-51.25-93.67c.5-.83 1.42-.42 3.17-.42s10.83 2.5 10.83 2.5a20.23 20.23 0 0 1 7.92 6.92c3.71 5.2 19.65 42.2 21 45.07l-.29-.23c1.67 3.58 1.75 9.83 2.17 16.08s3 15.33 4.33 23-2.08 12.17-4.83 15.33-7.08 4.67-7.5 3.83-.08-2 .42-4.42-.33-9.75-1.33-15.58-1.5-13-3.25-18.75a110 110 0 0 0-6.5-15.92c-2-4-7.5-16.25-8.83-20.25s-2.25-12.08-3.58-16-3.42-10.25-6.83-14.67-7.4-5.66-6.9-6.49zm144.55 171.71a39.48 39.48 0 0 0-.3 4.87c.17 4.58 1.25 20.83 1.25 24.17s-1.42 7.75-2.58 7.92-1.17-1.33-1.17-1.33c0-1.25-.33-11.67-.33-11.67h-.05c.12-3.89.88-17.15.88-20.5 0-4.75-.42-9.92-.75-15s-.75-9.25-5.17-14.75-9.08-7.25-17.17-9.25-23.75-3.5-32.17-5.58-29.67-7.67-40.08-10.92a65.35 65.35 0 0 0-15-3.13c2-.75 3.66-1.35 4.37-1.62s1.27-.51 2.06-.86a27.18 27.18 0 0 1 7.86-1.47c6.08-.25 33.08 6.58 36.17 7.33s30.08 5.33 39 7.83 17.58 8.33 20.25 13 3 20.58 2.92 23.42c.01 1.31.01 4.46.01 7.54zm-5.92 39.5c-.07.18-.12.29-.12.29l.16.11a5.79 5.79 0 0 1-1.82 3.3c-1.83 1.75-3.67 3.08-4 .33s.17-28.42 0-32.42-1.75-20.83-8.33-27-22.75-11.58-31-14.42-34-7.83-38.58-9.08-31.08-7.58-33.5-7.92c-1.47-.2-3.05-.53-4.37-.67-.64-.38-1.33-.85 0-1.58.8-.42 5-2 9.31-3.58a37.12 37.12 0 0 1 9.19.33c.33.08 49.25 13.67 57.42 15.08s29.75 4.83 35.83 8.25 9.17 11.42 9.92 16.42.5 15.25.42 21.5c-.06 4.74-.14 13.28-.3 15.42h-.12s.25 8.08.5 11a10.33 10.33 0 0 1-.62 4.62s-.03 0 .01.02zm-15-9.54c.08-3.5.25-12.83-.83-18.33s-2.88-13.86-5.3-17.93-14.58-13.41-23.25-17.33-16-4.33-19.58-5.08-45.67-5.67-53-6.75c-6.54-1-18.52-4.85-21-5.68a2 2 0 0 0-1.15-.58 34.14 34.14 0 0 1 8.76-3.5c5.08-1.17 13-.17 19.33 1.5s38.67 9.08 44.08 10.42 31.42 7.58 40.17 12.25 10.67 6 13.58 10.75 5.08 17.17 5.42 22.33.58 31.75.08 33.92-.33 2.5-1.58 3.83-5.42 3.17-5.42 3.17a39.42 39.42 0 0 0 1-7.33c.31-5-1.35-12.17-1.27-15.67zm-10.92-7.5c-.33-3-1.83-16.5-3.75-20.25s-6.58-8.17-16.33-10.67-27.33-6.25-39.5-7.58-35.42-5.58-42.08-6.33c-4.68-.53-12.59-.6-13-.56-3.74.37-7.4 1.23-11.15 1.67-13 1.54-26 1.21-39.08 1.44-.59 0-1.48.31-1.68-.42s.72-1 1.27-1.18c3.51-1.4 7.19-2.46 10.54-4.18 12.51-6.4 25.65-5 38.83-3.46l.62.06c3.67.37 34.25 3.44 43.88 4.3 10.25.92 28.92 3.92 35.67 5.5s30.67 11.75 36.33 16.58 6.83 19.33 6.83 19.33 1.25 14 1.67 17.5 1.42 9.08.75 13.67a20.71 20.71 0 0 1-3.75 9.17c-1.33 2.08-3.58 3.25-4.42 2.17s-1.75-8-1.5-13.92.23-19.85-.11-22.85zm-1 38a17 17 0 0 1-5.17 6.25c-1 .5-1.83-.17-2.42-4.83s-3.5-36.08-4.5-40.67-3.45-12.84-11.7-16.44-22.42-6.17-29.25-6.75c-6.21-.53-48.77-4.42-56.75-5.17a34.82 34.82 0 0 0-4.84-.23c-19.86.41-39.7-.52-59.55-.94-4.54-.1-9.09-.63-13.66-.65-.78 0-1.78.07-2-.77-.36-1.14.92-1 1.47-1.33a41.24 41.24 0 0 1 22.17-6.59c12.76-.07 25.52 1 38.29-.11 4.29-.38 6.84-1.46 12.61-2.24a63.58 63.58 0 0 1 9.06.2c5.08.5 32 3.42 37.42 4.58s31.75 4.92 38.25 6.33 20 3.42 23.5 8.5 3.75 9.08 4.33 14.5 1.17 22.5 1.42 25.5 2.28 18.44 1.36 20.85zm-134.9-93.42a1.16 1.16 0 0 1 .71-.76c6.89-2.1 11.23-7.82 19.15-5.9 0 0 2.08.42 3.21.76l8.2 2.24c2.75.75 10.42 3.33 16.58 4.08s20.67 1.92 24.5 2.42 24.58 3 30.67 4.5a68.3 68.3 0 0 1 24.5 10.58c10 6.92 11.83 11.83 12.25 13s-.33-.25-.33-.25-7.58-8.5-26.83-15.08-48.75-10.17-54.67-10.75c-5.64-.56-35.67-3.91-38.51-4.22a19.24 19.24 0 0 0-2.17-.13h-15.69c-.53.01-1.36.42-1.57-.49zm1.46-137.36a12.21 12.21 0 0 1 1.78-.46c5.17-1 10.37-.7 15.57-.24a3.84 3.84 0 0 1 .67.15.91.91 0 0 0 .22.08c1.33.33 3.58 1.08 6.83 4.33s5.08 8.92 6.25 11.25 3.5 13 5 17.75 6.33 15.92 7.25 18.33 7.92 18.33 8.92 21 1.83 10.67 2.08 13.25 0 7.25.92 10.58a28.64 28.64 0 0 1 .5 12.58c-.92 4.17-3 5.08-4.5 5.67s-2.17-.42-2.08-2.08.33-13.5-.08-20.42-.17-7.67-2.08-12.42-7.83-15.83-8.92-18.33-1.67-5.33-3.17-9.33-10.92-22.92-14.92-28.17a198.19 198.19 0 0 0-14.33-16c-2.11-2-5.24-5-6-5.68-.76-.9-1.01-1.07.09-1.84zm-22.55-.62c.16-.78 1.08-.38 1.64-.41 5.77-.3 11.39-1.1 17 2.06.25.14 1.54 1.21 1.77 1.42 3.5 3.08 17.75 18.33 20.75 22.67s12.67 23.17 13.92 25.92 5.5 14.75 8.92 21.17 5.67 15 6.25 17.42-.25 10.75-.25 13.33.92 8.5-.5 11.08-4 4.42-5.67 4.5-2.92 0-2.92-.5a48.46 48.46 0 0 0 1.92-9.83c.75-7.08-1.17-14.5-1.83-17.17s-.67-7.08-1-10.5a27.68 27.68 0 0 0-4.33-12c-2.5-3.58-6.83-13.42-8.08-16.17s-3.75-8.92-4.92-10.83-4.47-5.85-4.47-5.85l-.11.11-.53-.72a203.89 203.89 0 0 0-16.89-21c-5.38-5.83-12.81-9.18-19.36-13.57-.5-.3-1.46-.42-1.31-1.14zm-12.12.3c.74-1.62 3-.72 4.63-.57a4.81 4.81 0 0 1 1.43.61c7.58 3.57 14 9.06 21.21 13.22 3.33 1.91 6.6 4.31 8.65 7.76 3.62 6.07 8.87 10.81 13.09 16.38.19.26.38.51.57.74 1 1.34 3.15 4.12 3.83 5.12.92 1.33 6.17 14.75 7.5 17s7.63 14.59 8.42 17.5c1.17 4.33 1.08 14.33 2.42 17.42s2.33 13.08.67 18.83-5.1 7.4-5.1 7.4-4.3 1.7-8.64 3.39a5.29 5.29 0 0 0 1-1c1.42-1.92 1.58-4.75 2.5-12.58s-2.67-15.42-3.17-19.33-.92-11.17-1.75-15.25c-.75-3.69-4.14-8.58-4.8-9.5-.72-1.26-1.66-2.42-2.49-3.61-5.31-7.6-10.35-15.29-12.82-24.4a31.55 31.55 0 0 0-6.41-12.84c-8.07-9.22-18.22-15.92-28-23.08-1.22-.8-3.42-1.66-2.74-3.22zM67 340.73a18.53 18.53 0 0 1 12.68 3.07c8.54 5.87 17.54 11 24.74 18.85 4 4.3 7.33 8.52 9.26 14.12 1.22 3.53 1.94 7.23 3.8 10.63 3.47 6.37 6.85 12.78 10.87 18.83a70.93 70.93 0 0 1 4.33 6.45c2.5 4.89 3.71 14.55 4 18.92.33 5 2.58 11.58 3.25 15.25s-.42 12.92-2.08 15.5a12.74 12.74 0 0 1-2.27 2.64c-3 1.14-5.46 2.07-6 2.2-1.41.33-2.9.5-3.24-.73a3.89 3.89 0 0 1 .5-1.56 19.34 19.34 0 0 0 2.59-8.92c0-9.87-1.93-19.41-4.67-28.81-2.11-7.25-6.25-13.69-8.14-21.13a98.75 98.75 0 0 0-8-21.58c-9.55-18.14-24.28-31.29-42.16-41-.66-.36-1.75-.55-1.61-1.46s1.3-1.19 2.15-1.27zm-20 .47c.26-.93 1.33-.4 2-.47.91-.08 1.83 0 2.74 0 7.08.67 12.93 4.46 18.61 8.11 7.31 4.7 14.75 9.55 20.58 16 6.94 7.72 13.65 15.8 17.36 25.77a233.8 233.8 0 0 1 7.71 23c1.57 6.08 5.75 11.07 7.13 17.28 1.69 7.63 2.84 15.32 3.9 23.05 1.26 9.23-4.21 14.23-11.17 18.33a48.93 48.93 0 0 1-5.3 2.35c.84-1.62 1.69-3.23 2.52-4.85a32 32 0 0 0 3.07-19.68c-1.22-8.62-1.78-17.47-6.1-25.26-6-10.8-9.87-22.38-13.6-34.05a95.09 95.09 0 0 0-5.85-14.5 26.86 26.86 0 0 0-8.4-9.63c-9.08-6.54-18.11-13.15-27.19-19.69-2.11-1.52-4.37-2.83-6.53-4.27-.53-.44-1.73-.53-1.48-1.5zm-20.92.29c.21-.77 1-.77 1.62-.78h6.45c5.49-.9 10.16 2 15.25 5.85 9.15 6.84 18.6 13.37 28.08 19.74 7.93 5.33 12.17 12.62 15.19 21.12 2.18 6.14 4.15 12.36 6.17 18.54 2.81 8.63 8.13 16.14 10.8 24.68 3.46 11.06 5.75 22.44 2.73 34.16a20.2 20.2 0 0 1-17.2 15.32c-2.6.3-1.83-1.38-1.53-2.77 1.12-5.34 3.5-10.31 4-15.86 1.07-11.2 0-21.73-6.59-31.37a72.19 72.19 0 0 1-10.54-23.78c-2.9-11.85-5.57-23.85-12.65-34.22-3-4.35-7-7.27-11.07-10.31-6.46-4.79-11.71-11.21-19.33-14.46q-5-2.15-10.09-4.25c-.73-.31-1.57-.55-1.29-1.61zm-9.55.64c4.56.29 8.36 2.49 12.38 3.93 12.59 4.54 21.94 14 31.87 22.24 8.57 7.15 12.08 17.77 14.51 28.44 3 13 6.31 25.86 14.63 36.71 4.72 6.16 5.37 13.2 5.21 20.63-.15 7-.81 13.8-3.33 20.35a21.38 21.38 0 0 1-10.27 11.8c-.62.32-1.36 1.14-2 .38-.28-.32.07-1.19.13-1.81 1.7-16.43 2-32.82-3.88-48.58-3.92-10.34-9.78-19.91-13.16-30.53-2.92-9-5.05-18.33-9.23-27-2.67-5.54-5.64-10.62-11-13.88-3.12-1.9-5.22-4.71-7.35-7.5-4.9-6.43-11.85-10-18.69-13.78a21.06 21.06 0 0 0-2.08-.88c.67-.91 1.66.09 2.27-.49zm30.78 93.1a157.13 157.13 0 0 1-7.74-19.59 312.55 312.55 0 0 0-16.88-43.66c-4.68-9.58-9.32-19.56-17.55-27-1.36-1.23-.31-1.44.54-1.72 2.16-.72 4.26.09 6 1 9.1 4.77 18.3 9.44 24.68 18a27.59 27.59 0 0 0 5.72 5.32 28.22 28.22 0 0 1 7.43 8.94c5.81 10.22 8.83 21.38 11.94 32.55 2.46 8.86 7.29 16.73 10.64 25.22 3.09 7.81 5.2 15.68 5.07 24.3-.11 7 1.3 14-.16 21q-.52 2.49-1.12 5a8.71 8.71 0 0 1-6.68 6.8 81.29 81.29 0 0 0-8.75 3.35c-1.78.73-2.22.51-2-1.61.31-3.23.08-6.51.08-9.77 1.04-17.1-4.04-32.8-11.22-48.1zm-5.75 68.8a140 140 0 0 0-10.62-18.25c-.41-.59-1.39-1.2-.6-2s1.48.15 2 .65c3.66 3.93 7.66 7.44 10.08 12.36 1.22 2.51 3 5.1 5.79 5.21 4.06.16 7.93 1.27 11.9 1.62 5.7.5 11.46.43 17.19.72 12.64.64 25.31.75 38 .87 6 .06 12-.31 18-.59.7 0 1.67.14 2.49.15s16.58.33 24.58 1.33 36.42 2.58 50.5 6.33 17.75 5.92 20 11.33 3.42 14 4.33 22.5 3.17 27.83 3.42 29.83 1 2.5-.92 4.5-3.33 1.5-3.58-2.33a99.89 99.89 0 0 0-3.83-18.92c-1.92-5.83-6.5-27.92-7.58-31s-3.08-6.17-9.67-9-21.83-5.08-29.58-5.58c-6.94-.45-39.06-2.92-48.42-3.33-9.81-.5-17.06-.19-25.45-.72-14.58-.92-29.23-.77-43.86-1-5.49-.09-11-.19-16.47.11-3.91.2-6.09-1.5-7.69-4.76zm168.94 50.73c-1.25-12.42-3.25-16.67-8.75-20.67s-10.67-5.75-16.83-7.17c-5.44-1.25-38.13-3-48.31-3.28 0-.12-28.26-.21-39.87-.14q-23.3.14-46.58-.74c-3.11-.11-3.36-1.6-3.22-3.9l-.26-.59.57.28c5.17.55 10.34 1.53 15.52 1.56 23.66.17 47.32.07 71 .07h1.18a7 7 0 0 0 1-.07c3.88.29 25.35 1.92 32.39 2.37 7.75.5 26.83 3.33 35.33 6.92s10.08 9.92 11.42 14.67a148.93 148.93 0 0 1 3.42 16.33c.25 2.58.17 8.25 1.25 13.5s2.83 10.17 2.67 14.33-1 5-2.92 6.92-4 3.42-5.17-.08-2.83-16.75-3-19.58.41-8.32-.84-20.73zm10.25 8.33c.08-3.42-2.25-21.42-6.75-27.67s-9.33-8.67-20.83-10.75-45.4-6.8-57.67-7.39h-3.9c-23.62-.32-47.24.87-70.86 0-4.24-.16-8.62-.1-12.59-2.11-1.16-.59-2.72-1.23-2.29-2.72s2-.69 3.12-.72c23.26-.59 46.49.53 69.74 1 5 .09 24.57.45 26.37.65 3.83.42 37.25 2.25 43 2.75s21.33 2.33 27.42 7 6.33 11.5 7.67 16.67 4.42 21 5.67 24.67 4.08 11.92 3.25 17-2.5 5.5-3.67 6.42-2.25.25-4.25-4.75-3.51-16.65-3.43-20.05zM40.17 530.68c3.14-1.15 4.27-5.1 8.43-5 12.67.3 25.35.07 38 .16 5.86 0 11.78 1 17.58.42 7.53-.7 15.11-.15 22.62-.73 5.42.21 47.42 1.86 51 2.56 3.83.75 10.17.58 19.17 5.67s10.33 13.08 11.25 17.42 1.17 19.33.92 23.17 2.5 19.25 2.92 21.83 1.25 3.75.17 5.17-11.12 8.79-11.12 8.79-2.37 3-3.37-1.62-2.25-40.75-2.25-45.12-2.19-16-7.31-18.87c-14.92-8.37-58.19-9.31-62.56-9.37-7.71-.11-15.5-1.49-23.15-2.2-8.93-.83-17.83-2.26-26.78-2.71-9.82-.5-19.74-2.69-29.5.57a13.8 13.8 0 0 1-5 .52c-.4-.04-1.86-.35-1.02-.66zm-17.85 6.06c5-1.59 9.7-3.63 15.46-2.54 6.23 1.17 12.78-.46 18.94-1.63 8-1.51 15.54.24 23.24.65 9.57.52 19.06 2.46 28.68 2.81a13.3 13.3 0 0 1 1.88.33c-.51.79-1.32.45-2 .46-2.74.06-5.48 0-8.22 0-14.31-.44-28.58-1.71-42.92-1.75a106.66 106.66 0 0 0-19 2c-5.34.94-10.66.39-16 .56-.35 0-1.08.39-1.08-.45a2.09 2.09 0 0 1 1.02-.45zm159.43 28.4c-.87-4-2.75-10.5-11.87-12.25s-31.37-3.87-36.87-3.5a9.93 9.93 0 0 0-1.1.13h-.43c-4.3.17-8.58.53-12.88.65-19.6.57-39.16-1-58.76-.82a11.35 11.35 0 0 1-1.56-.08 138.48 138.48 0 0 0-28.16-.35c-6.46.49-12.74-.09-19.09-.39a11.23 11.23 0 0 1-6.61-2.15c-.74-.59-1.61-1.64-.1-2 4.7-1 8.34-4.85 13.88-4 5.36.8 11 .37 16.42-.05 8.16-.63 16.21-2.09 24.47-2.27 19.08-.42 38 1.49 57.11 1.66 3.5 0 10.66.14 10.82.16 0 0 46.38.88 54.63 4.5s11.63 16.38 12 22.75.5 29.75.63 33.25 2.5 10.13 1.38 12.75-4.5 5.5-5.25 6-1.75-.37-2.12-4.37-5.66-45.63-6.54-49.63zM67.58 793.4c0 2.27-1.49 2.9-3.31 3-6.73.31-13.46.51-20.19.83-2.6.13-3.56-1-3.3-3.5.29-2.71.63-5.42.74-8.15.66-15.83-3.3-30.37-12.41-43.41-.7-1-1.09-2 .09-2.65 9.09-5.32 18-11.13 28.47-13.41a5.53 5.53 0 0 1 6.64 5.11c1.48 17 2.82 33.93 4.2 50.89.28 3.82-1.01 7.51-.93 11.29zm19.92-6.27a73.91 73.91 0 0 1-10.91 4.29c-2.25.75-3.15-.75-3.72-2.82-1.15-4.23-.84-8.58-1.08-12.83-.62-11.05-3.26-21.92-2.82-33a37.94 37.94 0 0 0-1.29-11.28c-.92-3.55-2.12-6.74-5.73-8.36-1.45-.65-1.35-1.35-.19-2.18 5.9-4.24 10.89-9.63 17.21-13.4 3-1.77 4.76-1.3 7.15.93 4.67 4.37 4.36 10.09 4.8 15.59.3 3.77.06 7.58.06 12.77a71.81 71.81 0 0 0 2.63 22.65c1.43 5.07 1.59 10.54 1.93 15.85.39 5.84-3.37 9.36-8.04 11.79zm31.16-28.77c-.68 4.84-3.47 7.7-6.85 10.4-2.64 2.11-5.45 4-8.16 6-1.14.85-2.2 2.25-3.73 1.65-1.7-.67-1-2.48-1.12-3.84-.08-.78 0-1.57 0-3 .27-5.63-2.38-11.31-3.79-17.24-.58-2.42-1.22-4.87-.82-7.34 1.33-8.21 0-16.39 0-24.59 0-5.64-1-10.94-5.66-14.81-1.64-1.37-1.49-2.63.12-3.8 5.28-3.83 10.66-7.55 16.68-10.1 4.19-1.77 8.8 1.87 8.14 7.58-1.13 9.8 2.21 18.69 3.79 28 1.74 10.22 2.89 20.58 1.4 31.09zm17.75-19.68c-.17 4.17-.17 7.42-1.17 9a19.25 19.25 0 0 1-4.1 3.66 5.76 5.76 0 0 0-.75.52c-2.1 1.72-4 3.65-6 5.47-.46.41-.87 1.15-1.6.84s-.44-1.13-.43-1.72c.11-11.36-.5-22.71-3.25-33.74-2.19-8.78-1.15-17.81-2.93-26.58-.38-1.89.07-4.1-1.5-5.52-2.79-2.52-1.08-4 1-5.41 1.18-.81 2.44-1.5 3.65-2.28 1.48-1 3-1.88 4.45-2.83s3.91-2 5.4-1.58c2.25.58 4.25 7.58 5 14.25s1.25 31.33 1.33 33.83 1.07 7.9.91 12.08zm15.75-10.08L143 739.17s-2.67 2.67-3.58-1.92a147.39 147.39 0 0 1-2.17-15.83c-.33-4.58.17-27.92-1.67-34.5s-2.83-10.75-2.25-12.5 7.17-7.42 8.92-8.75 4.58-3.25 5.75-2.67 1.75.67 2.17 3.17 1.83 22.08 2 24.42 1.33 26.5 1.33 26.5 1.33 7-1.33 11.5zm20.33-24.92c-.17 2.33 0 5.33-4.17 9.5s-9.24 10.31-9.24 10.31-3.5 2.42-3.83-7v-.88l-1.8-42.28s-1.67-11.17-1-14.33 9.33-10.17 10.75-10.92 3.92-.5 5 2.92 2.58 16.33 2.58 18.58c.14 1.68 1.89 31.76 1.72 34.09zm17-14.12l-10.81 12s-2 1.42-3.25-.33-1.58-31.25-2-33.75c0 0-.83-10.5-1.83-13.67s-3.5-6.92-2.67-8.92 13.5-14.25 13.5-14.25h-.23l1.63-1.52a1.87 1.87 0 0 1 2.06.95c.45.7 3.82 54.47 3.82 54.47s.34 3.56-.23 5.02zm2.77-7.8c-.14-1.83-4-56.57-4-56.57a2.81 2.81 0 0 1 .08-.35l12.89-12a2.78 2.78 0 0 1 1.43-.47s1.4-.27 1.52.73 3.44 54.31 3.44 54.31a3.47 3.47 0 0 1-.35 2.51l-13.73 15.18.9-1.06s-2 .22-2.19-2.28zm90.5-106.42c-2.92 10.58-7.58 19.92-13.67 26.42-3.57 3.81-34.08 37.49-58.68 64.68a1.07 1.07 0 0 1-1.09-.8c-.12-.94-3.65-55-3.65-55a4.4 4.4 0 0 1 .42-1.83l73.54-58c1-.29 2.58-.46 3.2 1.22.92 2.46 2.84 12.73-.08 23.31zm.33-83.33c-.07.66-.3 2.23-.61 4.26-.23-5.5-.88-15.33-4-20-3.75-5.67-10.25-9-17.92-11.75s-19.83-4.67-24-5.17-18.75-3.33-22.83-4.5-23.58-5.83-27.17-6.25a21.94 21.94 0 0 0-6.64.42 20 20 0 0 0 3.73-3.26 12.48 12.48 0 0 0 1-1.33c1.57-.71 5.94 2.21 11.25 3.74 5.5 1.58 23.38 3.1 27.17 3.67 5 .75 16.49 4.18 21.5 4.83 8.52 1.12 17.92 3 21.17 4.33 6.42 2.58 13.25 10.67 15.92 16.58s1.67 11.91 1.42 14.43zm.66-15.63l-.08-.37c-1-4.33.08-8.75.75-12s1.75-17.58 2.08-20.83-.17-13 1.5-13.58c1.4-.49 1.62.19 1.81.57a45.73 45.73 0 0 1 .36 13c-.75 5.33-3.42 19.42-4.58 22.92s-1.67 10.67-1.67 10.67z" fill="#c9b2a7"/><path d="M215.25 601.42a1.8 1.8 0 0 1 1.33 1.83c.17 1.67 3.5 51 3.5 51a4 4 0 0 1-.67 2.5c-.83 1.33 3.83-4 3.83-4a1.16 1.16 0 0 1-1.67-1.33c.17-2-3.83-50.67-3.67-51a3.15 3.15 0 0 1 1.17-2.5c1.35-1-4.82 1.67-3.82 3.5zM225.25 593.42a1 1 0 0 1 1.17 1.17c0 1.33 4.5 46.17 4.5 46.17s0 3.33-.5 4.17 2.67-2.5 2.67-2.5l-5.17-49.83a2.28 2.28 0 0 1 .67-1.92c.46-.38-3.34 2.74-3.34 2.74zM234.25 586.67s1.83-1.33 2.44.08c.36.84 4 45 4 45a4.88 4.88 0 0 1-.42 2.88c-.7 1 3.25-2.8 3.46-4.15s-1 .14-1.46-1.4-3.54-44.31-3.54-44.31-.19-2.21 1.33-3-5.75 2.87-5.81 4.9zM244.17 578.67s2-.75 2.67.5c.28.52 3.25 41.25 3.25 41.25a3.9 3.9 0 0 1-.58 3.17c-1.08 1.58 3.42-3.33 3.92-4s-1.92.58-2-.17-3-42.83-3-42.83.08-1.75 1.17-2.33-5.77 2.5-5.43 4.41zM255.83 569.42s1.58-.75 1.83.25 3.5 39.33 3.5 39.33a6.2 6.2 0 0 1-.58 2.67c-.58.92 4.17-4.33 4.17-4.58s-1.5.75-1.92-.83-3.75-38.58-3.42-38.75-.17-1.58 1.33-2.08-5.49 1.66-4.91 3.99zM268.83 559.17s1.33 0 1.33.75 1.67 35.75 1.25 37.58a12.69 12.69 0 0 1-1.75 4 48 48 0 0 0 3.83-4c.83-1.17-.58-.67-.58-1.5s-1.33-37.83-1.33-37.83a2.11 2.11 0 0 1 .67-1.58c.16-1.26-2.75-1-3.42 2.58z" fill="#c9b2a7"/><path fill="none" stroke="#c9b2a7" stroke-miterlimit="10" d="M173.71 317.84l-2.08-287.5"/><path d="M298.69 464.57s12.81 93 12.81 95.19a2.34 2.34 0 0 1-4.44 1.19c-1.75-4.31-13.69-96.19-13.69-96.19l1.44-.12s12.73 93.49 13 94.88a1.25 1.25 0 1 0 2.44-.5c-.25-2-13-94.5-13-94.5z" fill="#c9b2a7"/><path fill="#c9b2a7" d="M284.33 496.43l13.75-.5.34 1.5-15 .33.91-1.33zM283.08 500.93l15.84-.67.16 1.67-16.16.66.16-1.66z"/></g><path d="M1836.3 897.27l-515.09-269.26s-9.33-5.67-24.58-5.75c-22.3-.12-959 .17-959 .17s-13.56-.58-19.74 4.58c-5.38 4.5-139.94 177.54-209.37 267a27.27 27.27 0 0 0-2.17 3.52c-4.37 7.85 5.33 7.25 5.33 7.25l1719.93-1c2.13 0 5.35-.82 6-2.19s.18-3.58-1.31-4.32zm-5 4.32h-1711s-7 .16-8.92-.33c-3.33-.83-.66-4-.66-4l210.67-269.34s3.27-3.5 16-3.33 959.61 0 959.61 0 12.59.33 20.83 4.33c6.17 3 345.15 180 514.38 268.35l.84.51s1.35 1.16 1.21 1.83c-.26.98-.79 2.01-2.93 1.98z" fill="#c9b2a7" opacity=".3"/></svg>