<svg data-name="Слой 1" xmlns="http://www.w3.org/2000/svg" width="15.5" height="15.45" viewBox="0 0 15.5 15.45"><path d="M10.33 1.73l3.4 3.4-1 1-7.25 7.25-3.4-3.4 7.1-7.1 1.16-1.16m0-.52a.45.45 0 0 0-.32.13L8.83 2.52 1.38 9.97l4.1 4.16 7.59-7.59 1.05-1.05a.45.45 0 0 0 0-.63l-3.47-3.47a.45.45 0 0 0-.32-.13z" fill="#a77d5a"/><path d="M13.89 5.34l1.22-1.2a.51.51 0 0 0 0-.73l-3-3a.52.52 0 0 0-.73 0L10 1.77" fill="none" stroke="#a77d5a" stroke-miterlimit="10" stroke-width=".5"/><path fill="none" stroke="#a77d5a" stroke-linecap="round" stroke-linejoin="round" stroke-width=".5" d="M1.6 10.09L.25 15.2l5.14-1.38M.82 13.07l1.49 1.48"/><path fill="#a77d5a" d="M.83 13.04l1.57 1.57-2.15.59.58-2.16z"/></svg>