<svg xmlns="http://www.w3.org/2000/svg" viewBox="0 0 29 29"><path fill="#ff5a19" d="M20.9 17.13a2.17 2.17 0 0 0-1.58-.72 2.24 2.24 0 0 0-1.59.71l-1.47 1.47-.35-.19a3.28 3.28 0 0 1-.46-.25 15.88 15.88 0 0 1-3.83-3.48 9.59 9.59 0 0 1-1.26-2c.39-.34.74-.71 1.08-1l.39-.4a2.12 2.12 0 0 0 0-3.21l-1.27-1.3-.43-.44c-.28-.29-.57-.59-.87-.86a2.19 2.19 0 0 0-1.56-.69 2.25 2.25 0 0 0-1.58.69l-1.59 1.6a3.34 3.34 0 0 0-1 2.16 8.24 8.24 0 0 0 .59 3.44 20.18 20.18 0 0 0 3.56 5.93A22 22 0 0 0 15 24.28a11.27 11.27 0 0 0 4.09 1.21h.29A3.54 3.54 0 0 0 22 24.35a10.79 10.79 0 0 1 .82-.84c.2-.2.4-.39.6-.6a2.34 2.34 0 0 0 .71-1.61 2.21 2.21 0 0 0-.72-1.59zM22.56 22c-.18.19-.37.37-.57.56a11.27 11.27 0 0 0-.89.93 2.26 2.26 0 0 1-1.75.74h-.22a10.08 10.08 0 0 1-3.62-1.09 20.56 20.56 0 0 1-6.87-5.37 18.93 18.93 0 0 1-3.34-5.54 6.56 6.56 0 0 1-.53-2.91 2.13 2.13 0 0 1 .65-1.38L7 6.36A1 1 0 0 1 7.71 6a1 1 0 0 1 .68.32c.29.26.56.53.84.83l.44.45L11 8.91a.89.89 0 0 1 0 1.44c-.13.14-.27.27-.4.4-.39.4-.76.77-1.17 1.14A.93.93 0 0 0 9.12 13a10.4 10.4 0 0 0 1.5 2.44 16.78 16.78 0 0 0 4.13 3.75 5.33 5.33 0 0 0 .57.31 3.28 3.28 0 0 1 .46.25h.06a1 1 0 0 0 .46.11 1 1 0 0 0 .7-.32L18.61 18a1.05 1.05 0 0 1 .71-.35.93.93 0 0 1 .68.35l2.57 2.55a.92.92 0 0 1-.01 1.45zM15.39 8.73a6 6 0 0 1 4.87 4.87.63.63 0 0 0 .62.52H21a.64.64 0 0 0 .52-.72 7.25 7.25 0 0 0-5.9-5.89.63.63 0 0 0-.73.51.62.62 0 0 0 .5.71zM25.49 13.2a11.92 11.92 0 0 0-9.71-9.69.62.62 0 1 0-.2 1.23 10.63 10.63 0 0 1 5.71 3 10.46 10.46 0 0 1 3 5.71.62.62 0 0 0 .62.52H25a.62.62 0 0 0 .49-.77z"/></svg>