<svg xmlns="http://www.w3.org/2000/svg" width="167.2" height="123.32" viewBox="0 0 167.2 123.32"><path d="M5.16 34.86s-.61-26.63.17-27 16.6-2.32 16.84-2.39S60.13 1.6 60.59 1.6 62.43.93 66 5.08s20.83 22.11 21.14 23.26-2.27 25.73-3 26.54-21.56 4.44-23 4.65-34.16 5.6-35.52 5.79-3.87 0-4-.51S5.16 34.86 5.16 34.86z" fill="#cc3a33"/><path d="M57.54 21.43a29 29 0 0 0 9.95-.9l5.57.68-1.84-1.5 3.2-.68-5.82-.9c-.11-.76-3.93-2.79-3.93-2.79 6.17.3 9.88.88 10.25-.22q.43-1.29-4.7-4.45h-7.55a5 5 0 0 0 .61-1.66c-.13-.48-.77-.54-3.56-1.51a4.39 4.39 0 0 1-1.55-.86 7.71 7.71 0 0 1-.62-.67 3.33 3.33 0 0 0-2.42-.85l2.86-2.84-3.6 1.37a2.45 2.45 0 0 0-1.8-1.35c-1 .05-1.14 1.39-2.59 2.62-1.65 1.4-2.48.59-3.66 1.77-1.73 1.73-1.17 4.74-2.17 4.88a.55.55 0 0 1-.27 0 .89.89 0 0 0 .6-.75l-2-6.88-5.24.64s1.46 2.15.78 1.29l-.06-.07C36.9 4.56 31.53.66 30.25.4s-7.78 6.73-7.78 6.73a10.46 10.46 0 0 1-1.52 1.06.71.71 0 0 0-.33.3.86.86 0 0 0 0 .66 3.91 3.91 0 0 0 3 2.24 6.53 6.53 0 0 0 1.4 0c2.71-.11 5.39.22 5.39.39-.28.25-3.39 2.75-3.39 2.75l-7-.77.07 2.27s-6.88.51-7.86.77a3.28 3.28 0 0 0-.87.37 3.35 3.35 0 0 0-1 .92q-.22 5.75-.29 11.76-.08 6.92 0 13.51l4.12 7.24a281 281 0 0 1 0-22.49q.1-2.52.25-5 6-1.46 12.06-3 5.89-1.53 11.63-3.1l-3.54 12.13 3.49-1.72 2.56 2 1.58-9.21 6.76 13.48s-1.1 26.47-.91 27.21 1.61.1 5.2-.25a38.53 38.53 0 0 0 6.53-1.21s2.58-21.59 2.53-26.06c0-3.58-.32-3-1.17-3.53a2.89 2.89 0 0 1-.75-.7c-.36-.42-3.73-3.11-13.7-10.7a30.94 30.94 0 0 0 4.65 1.79 31.39 31.39 0 0 0 6.18 1.19z" fill="#fce8d2" stroke="#682f24" stroke-linecap="round" stroke-linejoin="round" stroke-width=".7"/><path d="M30.59 10.6c-.14 0-5.32-1.17-6-1.82s-2.34-1.53-2.87-1.21-1.5.62-1.07 1.6 2.48 2.24 4.7 2.3 4.9-.08 4.9-.08l1-.36zM49.8 13.5c3.09.74 8.81 1.53 9.91 2s2.47 1.24 2.7 2.1-1.23 2.78-4 2.51-9.28-1.7-9.84-1.81a6.72 6.72 0 0 1-3.13-2 12.23 12.23 0 0 1-1.51-3 1.41 1.41 0 0 1 .86.2s1.32-.9 5.01 0z" fill="#e5e1dc"/><g fill="#5c211a"><path d="M84.74 29.25c-.68.12-.05.11.87.1a1.31 1.31 0 0 0-.87-.1z"/><path d="M88.42 29.6a3.52 3.52 0 0 0-.5-2.1c-.8-1.44-7.55-7.29-10.73-10.84l-5.08-5.39-.95-.92s-6.62-7-7.52-8a2.71 2.71 0 0 0-1.68-1l-8.56.89-.1-.1a.52.52 0 0 0-.74-.09l-.66.35-8.25.85-2.11.23-5 .36a15.75 15.75 0 0 0-1.58-1.46A11.84 11.84 0 0 0 31.63.21a3.2 3.2 0 0 0-3 .43 41 41 0 0 1-4 3.41 4.6 4.6 0 0 1-2.15.79c-3 .56-6.08.76-9.17 1.12q-3.8.44-7.55.85a1.74 1.74 0 0 0-.4.08.74.74 0 0 0-.28.07 1 1 0 0 0-.39.32 7.21 7.21 0 0 0-.28 2.07c0 .52-.06 1.07-.06 1.61l.27 22.3c0 .15 0 .3.07.47a5.26 5.26 0 0 0 .77 1.89l4.75 8.48c.65 1.3 1.36 2.64 2.16 4s1.42 2.52 2.15 3.66c1.11 2.32 2.37 4.69 3.66 7.13q1.45 2.75 2.92 5.31a2.82 2.82 0 0 0 1.6 1.35 7.77 7.77 0 0 0 2.27 0l21.75-3.46c1.37-.22 14-2 14-2s19.16-3.08 20.27-3.37a11.19 11.19 0 0 0 3.31-.84 2.19 2.19 0 0 0 .86-1.72c.7-5.92 3.16-23.92 3.26-24.56zm-3-3.09a3.13 3.13 0 0 1 .84 1.41c-.08.44-23.34 2.68-23.34 2.68-1-.88-6.9-6.08-9.41-7.9-1.12-.81-1.89-1.36-3.66-2.61a22.52 22.52 0 0 0 7.27 1.75c3.62.17 5.2-.4 7.91-.79a17.39 17.39 0 0 0 2.23-.5c1.8.21 4.81.79 5.66.76 2.18-.08 1.67-.41 1.67-.41s-2.93-.81-2.68-1.11 3.93-.4 3.92-.62-2.35-.68-2.8-.74-3.53-.47-4.41-.62a7.47 7.47 0 0 0-1.69-1.4l-1.61-.89c2.67.29 6.48.41 7.44.45.75 0 1.48.09 2.4.13 3.43 3.5 6.92 7.03 10.3 10.5zm-38.39 6.27c-7.7 1.18-13 1.63-21.35 2.21a3.23 3.23 0 0 1-2-.42 4.09 4.09 0 0 1-1.06-1c-1.5-2.06-2.37-3.18-3.72-5.37q-1.63-2.64-3.25-5.11a45.32 45.32 0 0 1 8-2.15c7.44-1.5 10.08-2.05 12.27-3 .74-.32 1.24-.55 1.57-.72a3 3 0 0 0 0 .33s-.79 1.88-1 2.5-1.67 5.28-1.76 6.12-.9 3.52-.9 3.52a33.51 33.51 0 0 0 4.11-1.83c.08-.26 2.66 2.3 3 2s.5-5.49 1-6.65a11.64 11.64 0 0 0 .6-2 1.74 1.74 0 0 1 .42.46s1.86 3.88 2.21 4.54 2.09 4 2.82 5.52a2.06 2.06 0 0 1 .23.68 2.79 2.79 0 0 1-1.15.41zM42.12 11.3a2.17 2.17 0 0 1 .69-.12c1.51.24 1.5.88 1.59 1a5.24 5.24 0 0 0-.82.7c-.47.65-.37 1-.69 1.09a1.73 1.73 0 0 1-1.39-.9V13a1.73 1.73 0 0 0 .55-.46 2.28 2.28 0 0 0 .11-1.2zm20.55-1.22a37.48 37.48 0 0 1-3.6 2.19c-1 .3-1.47-.21-3.59-.81-5.47-1.53-6.71-1.45-7.48-1.3a4.82 4.82 0 0 0-3.11 1.7.71.71 0 0 1-.11-.44 6.4 6.4 0 0 1 .11-.85 11.25 11.25 0 0 1 1.79-3.61 6.73 6.73 0 0 1 3.59-1.81 26.8 26.8 0 0 1 5.31.58 12.07 12.07 0 0 1 2.4.93l2.53 1.21c3.68 1.54 2.2 2.25 2.2 2.25zM44.59 14.6a2 2 0 0 1-.25-1.33c.84.71 4.07 0 5 .33 3.49 1.15 3.79 2.19 9.34 2.5 1.72.1 3.32 1.16 3.3 1.78 0 .43-1.67 1.55-3.43 1.73a32 32 0 0 1-6.81-.78c-.81-.2-3.3-.55-4.72-1.72a8.42 8.42 0 0 1-2.43-2.51zm2.56 3.51c5.17 2 10.41 2.49 12 2.23s3.94-1.25 4-2.13c.11-1.32-1.88-2.94-3.61-3-6.32-.38-7.63-2-10.28-2.4-1.77-.27-4 .58-4.47 0a4.26 4.26 0 0 1 1.24-1.06 6.41 6.41 0 0 1 2.27-.79 13.92 13.92 0 0 1 3.59.43c1.53.42 3.75 1.11 5.47 1.59a48.14 48.14 0 0 1 5.48 2.24c2.19 1.06 5.29 2.58 5.07 3.74-.11.58-1.09.81-2.27 1.22a28.53 28.53 0 0 1-3.57.65c-.67 0-1.7.35-3 .36a23.32 23.32 0 0 1-6.81-.93 26.24 26.24 0 0 1-4-1.35 9.51 9.51 0 0 1-1.63-1 3.2 3.2 0 0 0 .57.22zm-1.57-1a3.34 3.34 0 0 0-1.28-.68 1.8 1.8 0 0 0-1.25.18v-.79a6.49 6.49 0 0 0-.06-1.27 1.58 1.58 0 0 0 .39-.14.33.33 0 0 0 .11-.11.66.66 0 0 0 .08.18 10.17 10.17 0 0 0 2.02 2.62zm-3.62-1.74c.36.58-1.22 9-1.53 10.28s0 2.84-.29 2.74-1.69-1.39-2-1.57-2.9 1.74-3 1.62 3.46-11.84 3.56-12a3.72 3.72 0 0 0 1.08-.68 4.75 4.75 0 0 0 1.24-1.68 7.64 7.64 0 0 1 .99 1.28zm-.37-3.09a54 54 0 0 1-7 1.2c-2.28.19-4.65.43-6.49.43l.66-.47a40.06 40.06 0 0 1 5-3.33 5.49 5.49 0 0 1 4.32-.28 8.67 8.67 0 0 1 3.59 2.1.25.25 0 0 1 0 .22.24.24 0 0 1-.08.13zm-12.2 2.32c3.79-.23 8.09-.83 9.16-1a10.47 10.47 0 0 0 2.12-.64 1.47 1.47 0 0 1-.27 1.17 3.76 3.76 0 0 1-1.73 1.37 38.18 38.18 0 0 1-6.2 1.25c-1.92.2-10.94.81-11.36.79s-.61-.89-.71-1.41-.18-2-.18-2a70.13 70.13 0 0 0 9.17.47zm-9.08 3.28c.1.12.88.47 3 .19 2.42-.31 7.69-.52 9.45-.66.93-.07 2.22-.22 3.34-.38a44.53 44.53 0 0 1-7.17 1.85c-4 .78-8.54 1.83-9.8 2.13-.91.21-2.87.82-4 1.23l-1.31-1.93-.49-.67a23 23 0 0 1-1.67-2.55c1.66-.67 6.43-.91 7.94-1a7.13 7.13 0 0 0 .72 1.77zm22.46 2c.06-.31.17-1.44.26-2.48a3 3 0 0 1 1.44-.06c.45.16 11.59 8.76 15.91 12.49a2.76 2.76 0 0 1 .82 1 4 4 0 0 1-1.33.29L49.4 32.37c-1.49-2.82-6.62-12.49-6.62-12.49zm26.26-1.42a37.37 37.37 0 0 1 4.71.58c0 .12-2.68.15-2.82.6-.07.23 1 .82 1 1a33.54 33.54 0 0 1-3.64-.42 1.15 1.15 0 0 0 .83-1 1.23 1.23 0 0 0-.07-.76zm5.55-3.22l-11.24-.64c-1.13-.49-2.3-1-3.38-1.4l-.66-.27c1.11-.58 3.16-1.8 3.16-1.8a27.56 27.56 0 0 1 4.79-.25c.91 0 1.93.12 2.8.2zM60.75 2.1a2.35 2.35 0 0 1 2.57 1.07l6.13 7a18.31 18.31 0 0 0-2.5-.07c-1.43.07-2.78.09-3.36.09a2.17 2.17 0 0 0 .63-.68 7.14 7.14 0 0 0-1.92-1.39c-1.08-.65-3.72-1.82-3.72-1.82s-.88-.44-1.28-.7a4.12 4.12 0 0 0-1.67-.71c.12-.12 2.23-2.08 2.66-2.5zm-4.28.51c-.95.33-2.09.72-2.16.71a1.57 1.57 0 0 1-.35-.4zm-3.66-.18c.21 0 1 1.47 1.53 1.46s2.86-1.23 3-1.19a25.16 25.16 0 0 1-2.59 2.08c-1.33-.15-3-.29-4-.29h-.11a16.81 16.81 0 0 1 2.17-2.06zm-9.82 1.95a4.55 4.55 0 0 1 .92-.19l7.23-.9-1.1 1.25a11.18 11.18 0 0 0-2.78 1.09A6.93 6.93 0 0 0 45 8.26a6.32 6.32 0 0 0-.38 1.58.89.89 0 0 0-.14-.37c-.62-1.42-.8-3-1.39-4.43a.7.7 0 0 1-.1-.66zm-1 .11v.05a19 19 0 0 1 .65 1.9c.12.55 1.1 3.34 1.1 3.34a11.24 11.24 0 0 0 .34 1.32 2.29 2.29 0 0 0-.3-.16 2 2 0 0 0-2.06.1 6.83 6.83 0 0 0-1.18-3 15.28 15.28 0 0 0-3.12-3.34zM23.44 6.91a3.35 3.35 0 0 1 1-1.29 67.79 67.79 0 0 1 5.08-4.61c.6-.28 1.31-.26 2.94.71a46.17 46.17 0 0 1 5.9 4.78 12.6 12.6 0 0 1 2.13 2.68 9.11 9.11 0 0 1 .48 1.18c-.36-.26-3.28-1.73-4.81-1.69a10.41 10.41 0 0 0-4 1.46c-.16.08-.35.19-.54.32-.47-.09-4.46-1-5.2-1.26a19.51 19.51 0 0 1-2.64-1.31.68.68 0 0 1-.31-.97zm-1.39.91a8 8 0 0 1 1.5.73 21.77 21.77 0 0 0 3.11 1.42 31 31 0 0 0 4.15 1s0 .11-.26.2a10.67 10.67 0 0 1-2.73.23s-4.68 0-6.4-1.37a2.07 2.07 0 0 1-.63-1.07 1 1 0 0 1 1.29-1.14zm-15.13.26a2 2 0 0 1 1.77-.6c4.43-.49 8-.84 10.32-1a1.3 1.3 0 0 1 1.49.58 4.78 4.78 0 0 0-.3 1.5 2.36 2.36 0 0 0 1.88 2.51 15.07 15.07 0 0 0 4.22.82c1.31.12 2.46.09 3.12.19l-2.25 1.83h-1.4c-2.84-.18-6.23-.62-6.23-.62-.37.25-.35.65-.3 1.87-.6 0-4 .25-5.86.53a13.84 13.84 0 0 0-2.36.47l-2.68-4.38C7.2 9.86 6.52 8.77 6.95 8.08zm2.59 32.2a.29.29 0 0 1-.43 0L5.7 33.93a4.35 4.35 0 0 1-.2-1.23 16.76 16.76 0 0 1 0-1.9c.22-12.43-.4-20.81 0-21.52 1.8 2.95 2.59 4.41 4.51 7.62v3.76c0 .36 0 .88-.06 1.52 0 .41-.35 13.1-.33 17.62a.58.58 0 0 1-.08.49zm4.45 8.91a.81.81 0 0 1-.16-.19c-.32-.37-1.21-2.17-3-5.8l-.31-.6c0-4.53.12-18.92.25-20.66 0 0 .18-2.73.22-3.7 0 0 1 1.44 1.42 2.07l.32.56c.14.18.55 1 1.18 1.81a49.4 49.4 0 0 0-.38 6.26c-.07 3.84.49 16.66.49 16.66v3a.9.9 0 0 1 0 .59zm8.11 14.08a1 1 0 0 1-.8-.62c-2.19-3.42-4.74-8.77-6.22-11.79a3.55 3.55 0 0 1-.12-.56 4.18 4.18 0 0 1 0-.89 153 153 0 0 0-.35-16.18 83.58 83.58 0 0 1 0-8.89c.06-.41.18-.28.23-.18 2 3 3.34 5 4.22 6.31a18.3 18.3 0 0 1 3 5.77 15.5 15.5 0 0 1 .48 2.89c.46 5.06 0 7.25.1 12.93 0 2.51.16 3.51.1 6.25 0 1.91-.09 2.94-.16 3.95a1.18 1.18 0 0 1-.45 1.01zm24.56-2.41a1 1 0 0 1-.66.34c-4.47.82-18.27 2.64-19.27 2.75a3.27 3.27 0 0 1-2-.28c-.56-.33-.59-1.79-.61-2.94v-2.81c.24-5.91 0-14.85 0-15.65 0-1-.09-4.62.47-5.19.81-.83 1.58-.77 2.72-.83 7.12-.37 13.88-1.42 21-2.27a5.27 5.27 0 0 1 .18 2.22c0 1.27-1.11 17.41-1.54 23.58a1.69 1.69 0 0 1-.26 1.08zm12.28-1.49c-.78.36-9.22 1.37-9.22 1.37a1.44 1.44 0 0 1-1.54-1.47c0-1.52 1.53-25 1.53-25v-.33l10.91-1.34a1.92 1.92 0 0 1 1.31.25.88.88 0 0 1 .37.86c-.05.57-2.38 24.44-2.38 24.44a1.9 1.9 0 0 1-.96 1.23zm24.33-4.4c-1 .61-15.31 2.64-20.13 3.52a2.2 2.2 0 0 1-1.57-.2 1 1 0 0 1-.21-.79l2.18-24.2a2.86 2.86 0 0 1 .31-.84 1.46 1.46 0 0 1 1.14-.39l21.15-2.31c.43.09.27.93.27.93s-1.95 16.72-2 18.33-.58 5.58-1.12 5.95zM20.07 15.85zM24.08 42.51c0 .14 0 .12 0 0z"/></g><g><path d="M159.86 57.6s7.27-27.42 6.56-28-16.61-6.54-16.85-6.67-38.34-13.5-38.82-13.55-1.74-1.15-6.47 2.25-27.08 17.7-27.69 18.81-4.06 27.21-3.49 28.24 21.22 10 22.66 10.55 34 14.32 35.34 14.85 4 .94 4.27.47 24.49-26.95 24.49-26.95z" fill="#ea9c68"/><path d="M115.67 30.97a33 33 0 0 0 5.26-.69c-12.23 5.38-16.39 7.32-16.86 7.67a3.08 3.08 0 0 1-.95.54c-1 .36-1.16-.34-2.09 3.36-1.17 4.61-3.88 27.62-3.88 27.62a41 41 0 0 0 6.46 2.89c3.64 1.25 4.94 2.27 5.33 1.55s5.84-28.4 5.84-28.4l10.36-12.27-.66 9.93 3.16-1.47 3.19 2.65-.67-13.52q5.55 3.06 11.27 6.11 5.91 3.15 11.73 6.16-.46 2.59-1 5.23c-1.61 8.15-3.5 15.92-5.59 23.29l6-6.49q1.77-6.79 3.42-14 1.43-6.24 2.63-12.25a3.57 3.57 0 0 0-.79-1.2 3.5 3.5 0 0 0-.81-.6c-1-.52-7.95-2.76-7.95-2.76l.63-2.34-7.41-.94s-2.6-3.36-2.83-3.69c0-.18 2.91.15 5.68.94a7 7 0 0 0 1.44.37 4.17 4.17 0 0 0 3.63-1.58.91.91 0 0 0 .18-.68.76.76 0 0 0-.26-.4 11.15 11.15 0 0 1-1.31-1.48s-5-8.86-6.38-8.91-7.92 2.65-9.35 3.67l-.08.06c-.92.72 1.13-1.14 1.13-1.14l-5.27-2-3.79 6.63a.94.94 0 0 0 .43.92.59.59 0 0 1-.29 0c-1-.4.34-3.37-1-5.6-.92-1.51-2-.89-3.35-2.74-1.2-1.64-1.06-3.07-2-3.36a2.6 2.6 0 0 0-2.22 1l-3.39-2.32 2.25 3.65a3.55 3.55 0 0 0-2.72.27 8.21 8.21 0 0 1-.81.54 4.67 4.67 0 0 1-1.82.51c-3.13.31-3.81.21-4.07.67a5.36 5.36 0 0 0 .22 1.87l-7.82-1.88q-6.11 2-6 3.44c.11 1.23 4.1 1.55 10.56 2.78 0 0-4.46 1.15-4.77 1.9l-6.25-.52 3.14 1.51-2.27 1.1 5.94.68a30.83 30.83 0 0 0 10.13 3.35 33.44 33.44 0 0 0 6.7.37z" fill="#fff"/><path d="M139.59 26.17c.16 0 5.8.11 6.69-.38s2.8-1 3.27-.54 1.4 1 .7 1.92-3.13 1.7-5.44 1.21-5.05-1.3-5.05-1.3l-1-.62zM118.96 24.34c-3.39 0-9.5-.61-10.76-.37s-2.87.67-3.32 1.5.58 3.18 3.54 3.6 10 .56 10.64.58a7.16 7.16 0 0 0 3.74-1.31 13 13 0 0 0 2.32-2.75 1.5 1.5 0 0 0-.94 0s-1.18-1.25-5.22-1.25z" fill="#fff"/><g fill="#5c211a"><path d="M78.84 31.94c.67.3 0 .13-.92-.11a1.4 1.4 0 0 1 .92.11z"/><path d="M72.16 57.6a2.33 2.33 0 0 0 .47 2 11.91 11.91 0 0 0 3.22 1.69c1.07.58 20.15 8.55 20.15 8.55s12.63 5 14 5.6l21.66 9a8.28 8.28 0 0 0 2.37.52 3 3 0 0 0 2-1q2.15-2.29 4.35-4.77c1.95-2.2 3.84-4.34 5.57-6.47 1-1 2.06-2.1 3.14-3.25s2.24-2.45 3.24-3.63l7-7.6a5.61 5.61 0 0 0 1.27-1.76c.07-.16.13-.31.18-.47l5.84-23c.14-.56.23-1.14.34-1.68a7.68 7.68 0 0 0 .22-2.22 1 1 0 0 0-.32-.43.79.79 0 0 0-.27-.08 1.85 1.85 0 0 0-.39-.18q-3.78-1.35-7.61-2.76c-3.11-1.14-6.24-2.12-9.22-3.45a4.9 4.9 0 0 1-2-1.35 43.66 43.66 0 0 1-3.26-4.51 3.41 3.41 0 0 0-3-1.19 12.61 12.61 0 0 0-4 1.41 16.78 16.78 0 0 0-2 1.12l-5.09-1.61-2.12-.76-8.31-2.99-.6-.52a.55.55 0 0 0-.79-.09l-.13.08-8.64-3.05a2.89 2.89 0 0 0-2 .63c-1.19.8-9.79 6.41-9.79 6.41l-1.21.71-6.61 4.32c-4.18 2.88-12.63 7.26-13.81 8.55a3.75 3.75 0 0 0-1 2.05c-.11.66-2.05 19.9-2.85 26.18zm19.83-36.9c1 .18 1.74.3 2.52.46 1 .2 5 1 7.81 1.39l-1.89.52a8 8 0 0 0-2.1 1c-1-.06-4.3-.41-4.72-.46s-3-.19-3.08.07 3.73 1.25 3.91 1.62-3.06.48-3.06.48-.61.21 1.62.84c.87.25 4.14.4 6.05.63a18.52 18.52 0 0 0 2.19 1.07c2.71 1.08 4.19 2.07 8 2.79a24 24 0 0 0 8 0c-2.14.86-3.08 1.23-4.44 1.79-3 1.26-10.49 5.16-11.71 5.83 0 0-23.53-8.12-23.5-8.59a3.33 3.33 0 0 1 1.22-1.25c4.32-2.62 8.78-5.45 13.18-8.15zm23.93 23.68a2.2 2.2 0 0 1 .41-.65c1.12-1.36 3.82-4.47 4.3-5s3.42-4.15 3.42-4.15a1.86 1.86 0 0 1 .55-.38 12.4 12.4 0 0 0 .13 2.17c.24 1.33-.91 6.74-.62 7.14s3.61-1.6 3.63-1.32a35.69 35.69 0 0 0 3.8 2.92s-.17-3-.06-3.87-.2-6.07-.3-6.78-.44-2.85-.44-2.85a3.17 3.17 0 0 0 0-.35c.3.26.76.63 1.45 1.14 2 1.51 4.63 2.74 12 6.15a48.27 48.27 0 0 1 7.72 4.22q-2.3 2.16-4.64 4.48c-1.95 1.93-3.13 2.87-5.19 4.63a4.36 4.36 0 0 1-1.35.76 3.44 3.44 0 0 1-2.2-.07c-8.46-2.67-13.88-4.46-21.56-7.61a3 3 0 0 1-1.05-.54zm11.27-19.06a1.84 1.84 0 0 0 .46.62l-.05.06a1.85 1.85 0 0 1-1.67.59c-.3-.17-.12-.52-.44-1.3a5.58 5.58 0 0 0-.68-.93c.12-.13.28-.8 1.9-.67a2.31 2.31 0 0 1 .68.3 2.43 2.43 0 0 0-.19 1.37zm-18-9.47l2.92-.62a12.86 12.86 0 0 1 2.72-.36 28.55 28.55 0 0 1 5.64.72 7.17 7.17 0 0 1 3.26 2.77 12 12 0 0 1 1 4.18 6.82 6.82 0 0 1-.09.91.76.76 0 0 1-.22.43 5.14 5.14 0 0 0-2.8-2.54c-.76-.34-2-.74-8.07-.52-2.34.08-3 .49-3.92-.06a39.92 39.92 0 0 1-3.18-3.17s-1.37-1.08 2.77-1.71zm11.69 12.89c-1.77.86-4.44.6-5.32.6a34 34 0 0 1-7.25-.89c-1.78-.63-3.21-2.2-3.13-2.65.13-.65 2-1.35 3.86-1 5.83 1.06 6.39.07 10.29-.26 1-.09 4.21 1.43 5.26.91a2.11 2.11 0 0 1-.59 1.32 9 9 0 0 1-3.09 2zm0 .9a10.13 10.13 0 0 1-1.93.59 28 28 0 0 1-4.45.41 24.84 24.84 0 0 1-7.29-.74c-1.3-.33-2.29-.91-3-1.11a30.39 30.39 0 0 1-3.54-1.56c-1.11-.72-2.07-1.2-2-1.83.06-1.26 3.65-2.06 6.18-2.61a51.28 51.28 0 0 1 6.24-.95c1.9-.06 4.37-.22 6.06-.28a14.83 14.83 0 0 1 3.83.45 6.82 6.82 0 0 1 2.16 1.38 4.54 4.54 0 0 1 1 1.41c-.59.48-2.72-1-4.62-1.13-2.84-.24-4.6 1.11-11.24-.08-1.81-.32-4.28.86-4.5 2.25-.15.93 2 2.53 3.62 3.21s7.18 1.46 13 .69a3.41 3.41 0 0 0 .55-.06zm4.14-2.79a.71.71 0 0 0 .13-.17.35.35 0 0 0 .09.15 1.68 1.68 0 0 0 .37.24 6.91 6.91 0 0 0-.38 1.3c0 .2-.1.49-.16.82a1.92 1.92 0 0 0-1.25-.5 3.55 3.55 0 0 0-1.5.38 10.83 10.83 0 0 0 2.77-2.18zm2.81.21a5.06 5.06 0 0 0 .86 2.05 4 4 0 0 0 .95 1c.07.18.83 13.2.7 13.3s-2.3-2.52-2.7-2.42-2.17 1.09-2.49 1.12.4-1.56.38-2.91.46-10.51 1-11a8.14 8.14 0 0 1 1.37-1.1zm-.19-2.14a.27.27 0 0 1 .07-.22 9.24 9.24 0 0 1 4.24-1.28 5.85 5.85 0 0 1 4.4 1.37 42.67 42.67 0 0 1 4.32 4.68l.57.65c-1.9-.47-4.29-1.31-6.61-2.07a57.52 57.52 0 0 1-6.92-3 .25.25 0 0 1 0-.08zm21.71 7.38s-.46 1.5-.69 2-.64 1.37-1.08 1.29-9.63-3-11.57-3.65a40.67 40.67 0 0 1-6.1-2.84 4 4 0 0 1-1.45-1.85 1.57 1.57 0 0 1 0-1.28 11.15 11.15 0 0 0 2 1.19c1.07.45 5.37 2.15 9.24 3.33a74.7 74.7 0 0 0 9.72 1.85zm.24 2.3c1.55.43 6.43 1.86 8 3a24.49 24.49 0 0 1-2.36 2.22l-.67.57-1.84 1.67c-1.12-.72-3-1.84-3.89-2.28-1.23-.62-5.66-2.83-9.62-4.64a47.43 47.43 0 0 1-7-3.71c1.12.45 2.42.91 3.36 1.22 1.79.59 7.19 2.11 9.62 3 2.17.83 3.06.67 3.2.56a7.59 7.59 0 0 0 1.2-1.61zm-34.92 9.44l-10.53-3.91a4.22 4.22 0 0 1-1.3-.64 2.94 2.94 0 0 1 1.11-.85c5.41-2.78 19.09-8.91 19.59-9a3.15 3.15 0 0 1 1.48.43c-.17 1.1-.34 2.3-.35 2.63s-7.76 8.73-10.02 11.31zM97.53 25.52a1.23 1.23 0 0 0 .63 1.19 35.72 35.72 0 0 1-3.88-.48c.06-.17 1.3-.52 1.28-.78 0-.5-2.8-1.21-2.77-1.33s4.42.49 5 .58a1.31 1.31 0 0 0-.27.79zm1.08-8.71c.92.13 2 .3 3 .49a29.36 29.36 0 0 1 4.9 1.46s1.81 1.77 2.82 2.65l-.76.11c-1.23.19-2.56.38-3.85.6l-11.81-2.14zm14.35-6.06c.35.55 2 3.1 2.13 3.25a4.39 4.39 0 0 0-1.91.32c-.48.17-1.5.41-1.5.41s-3 .56-4.31 1a7.6 7.6 0 0 0-2.34 1 2.31 2.31 0 0 0 .48.86c-.6-.15-2-.5-3.46-.93a19.5 19.5 0 0 0-2.61-.55l8.1-5.73a2.51 2.51 0 0 1 2.93-.47zm4.35 1.63a1.67 1.67 0 0 1-.46.32c-.08 0-1.16-.69-2.06-1.27zm3 2.46h-.11c-1-.25-2.82-.53-4.24-.7a26.8 26.8 0 0 1-2.16-2.8c.18 0 2.26 1.84 2.83 2s1.72-1.15 2-1.13a17.91 17.91 0 0 1 1.69 2.6zm7.75 2.43c-1 1.33-1.55 2.93-2.55 4.24a1 1 0 0 0-.24.35 6.73 6.73 0 0 0 0-1.74 7.38 7.38 0 0 0-1.69-3.28 11.91 11.91 0 0 0-2.61-1.82s-.41-.78-.82-1.57l7.26 2.74a4.84 4.84 0 0 1 .91.43.74.74 0 0 1-.26.63zm5.89 1.1a16.27 16.27 0 0 0-4.06 2.68 7.28 7.28 0 0 0-2 2.76 2.15 2.15 0 0 0-2.11-.62 2.44 2.44 0 0 0-.35.09 12 12 0 0 0 .68-1.28s1.71-2.64 2-3.18a20.27 20.27 0 0 1 1.15-1.81zm13.34 6.64a20.78 20.78 0 0 1-3.06.7c-.83.1-5.19 0-5.7 0-.17-.17-.34-.33-.49-.46a11.09 11.09 0 0 0-3.76-2.5c-1.57-.42-5 .38-5.4.55a9.71 9.71 0 0 1 .79-1.1 13.42 13.42 0 0 1 2.87-2.24 49.17 49.17 0 0 1 7.3-3.48c1.93-.6 2.67-.44 3.22 0a72.21 72.21 0 0 1 4.11 6 3.57 3.57 0 0 1 .67 1.57.73.73 0 0 1-.55.94zm2.79 1.85a2.21 2.21 0 0 1-.92 1c-2.11.95-7-.17-7-.17a11.37 11.37 0 0 1-2.77-.92c-.28-.17-.23-.28-.22-.27a33 33 0 0 0 4.54 0 23.19 23.19 0 0 0 3.58-.7 8.55 8.55 0 0 1 1.74-.38 1 1 0 0 1 1.05 1.42zm12.22 6l-3.86 3.87a14.75 14.75 0 0 0-2.33-1.07c-1.83-.75-5.32-1.84-5.93-2 .35-1.24.48-1.66.15-2 0 0-3.62-.39-6.61-.92-.25 0-1.17-.28-1.45-.33l-1.88-2.46c.71.06 1.89.37 3.28.58a16 16 0 0 0 4.57.21c1.94-.22 2.43-1.3 2.57-2.13a5.09 5.09 0 0 0 .07-1.63 1.38 1.38 0 0 1 1.69-.23c2.37.76 6 2 10.43 3.62a2.17 2.17 0 0 1 1.68 1.07c.27.8-.7 1.75-2.37 3.42zm-8.33 28.74c1.15-4.68 4-17.9 4.06-18.33.14-.67.24-1.21.31-1.59l.9-3.9c2.79-2.85 4-4.17 6.57-6.77.27.84-2.47 9.37-5.34 22.29a17.86 17.86 0 0 1-.45 2 4.63 4.63 0 0 1-.51 1.23l-5.09 5.74a.31.31 0 0 1-.45-.12.62.62 0 0 1 0-.55zm-6.76 8c.12-.42.18-.59.3-1s.23-1.08.51-2c0 0 3.78-13.13 4.66-17.13a52.62 52.62 0 0 0 1.17-6.58c.87-.72 1.49-1.43 1.67-1.58l.47-.5c.59-.55 2-1.79 2-1.79-.2 1-.69 3.89-.69 3.89-.3 1.83-3.76 16.77-4.89 21.46l-.48.56c-2.79 3.3-4.15 4.94-4.58 5.25a.86.86 0 0 1-.21.15 1 1 0 0 1 .07-.73zM135 81.6c.17-1.06.38-2.14.82-4.13.62-2.86 1-3.86 1.67-6.45 1.52-5.85 1.59-8.24 3.33-13.36a16.51 16.51 0 0 1 1.22-2.87 19.49 19.49 0 0 1 4.55-5.19c1.23-1.12 3.15-2.89 5.94-5.48.08-.09.24-.19.19.24a89 89 0 0 1-2.19 9.22 163 163 0 0 0-4.4 16.67 4.46 4.46 0 0 1-.25.92 3.78 3.78 0 0 1-.27.55c-2.28 2.75-6.25 7.66-9.38 10.66a1.08 1.08 0 0 1-1 .44 1.26 1.26 0 0 1-.23-1.22zm-24.59-8.64c1.1-6.5 4-23.48 4.29-24.8a5.61 5.61 0 0 1 .74-2.25c7.15 2.66 13.89 5.43 21.17 7.59 1.16.35 2 .48 2.6 1.54.44.73-.6 4.45-.81 5.5-.23.82-2.72 10-3.94 16.2-.32 1.64-.44 2.09-.65 2.92-.31 1.19-.69 2.69-1.36 2.89a3.48 3.48 0 0 1-2.17-.22c-1-.36-14.85-5.7-19.27-7.66a1.11 1.11 0 0 1-.59-.52 1.8 1.8 0 0 1-.02-1.17zm-13-5s3.54-25.3 3.63-25.9a.94.94 0 0 1 .6-.8 2 2 0 0 1 1.42.07l10.88 4.15v.35s-4.35 24.77-4.71 26.32a1.54 1.54 0 0 1-2 1.14s-8.48-3.16-9.2-3.72a2 2 0 0 1-.65-1.55zm-23.08-15.5c.3-1.69 2.45-19.49 2.45-19.49s0-.91.52-.9l21.29 7.72a1.55 1.55 0 0 1 1.09.69 3 3 0 0 1 .11.94l-3.78 25.6a1 1 0 0 1-.41.77 2.35 2.35 0 0 1-1.67-.18c-4.78-2.11-19.13-7.8-20-8.66-.44-.49.07-4.74.37-6.43zM149.15 34.19zM138.36 60.8z"/></g></g><g><path d="M9.27 88.72S.1 54.11.99 53.36s21-8.26 21.26-8.42 48.39-17 49-17.11 2.2-1.45 8.16 2.84 34.19 22.34 34.95 23.74 5.13 34.34 4.41 35.64-26.79 12.59-28.6 13.31-42.9 18.09-44.58 18.76-5.07 1.19-5.39.59S9.27 88.72 9.27 88.72z" fill="#fce8d2"/><path d="M73.51 54.68a38.92 38.92 0 0 0 12.72-4.31l7.49-.86-2.87-1.38 4-1.9-7.89.65c-.39-1-6-2.4-6-2.4 8.15-1.55 13.19-2 13.33-3.51q.16-1.82-7.55-4.34L76.86 39a6.77 6.77 0 0 0 .28-2.36c-.32-.58-1.18-.46-5.13-.85a5.9 5.9 0 0 1-2.29-.64 10.36 10.36 0 0 1-1-.68 4.48 4.48 0 0 0-3.43-.34l2.84-4.61-4.27 2.92c-.85-.78-1.89-1.48-2.8-1.21-1.23.37-1 2.17-2.56 4.25-1.71 2.34-3.06 1.56-4.22 3.46-1.72 2.81 0 6.56-1.3 7.06a.74.74 0 0 1-.37 0 1.19 1.19 0 0 0 .55-1.17l-4.79-8.36-6.65 2.48s2.58 2.35 1.42 1.44l-.1-.07c-1.8-1.29-10-4.69-11.8-4.63s-8 11.25-8 11.25a14.07 14.07 0 0 1-1.65 1.87 1 1 0 0 0-.33.5 1.15 1.15 0 0 0 .23.86 5.26 5.26 0 0 0 4.58 2 8.78 8.78 0 0 0 1.82-.47c3.5-1 7.11-1.41 7.17-1.19-.29.42-3.57 4.66-3.57 4.66l-9.35 1.18.8 3s-8.83 2.83-10 3.48a4.41 4.41 0 0 0-1 .75 4.51 4.51 0 0 0-1 1.51q1.53 7.58 3.32 15.46 2.08 9.08 4.32 17.65l7.63 8.19c-2.64-9.31-5-19.11-7.06-29.4q-.66-3.32-1.24-6.6 7.34-3.79 14.8-7.77 7.22-3.85 14.23-7.71l-.85 17.06 4-3.35 4 1.86-.83-12.53 13.08 15.49s6.89 34.94 7.38 35.85 2.13-.38 6.72-2a51.81 51.81 0 0 0 8.15-3.64s-3.42-29-4.89-34.86c-1.18-4.67-1.35-3.79-2.64-4.24a3.88 3.88 0 0 1-1.2-.68c-.6-.44-5.85-2.89-21.28-9.68a41.6 41.6 0 0 0 6.64.88 42.21 42.21 0 0 0 8.29-.39z" fill="#ef8018"/><path d="M34.91 49.05c-.2 0-7.32.14-8.44-.48s-3.54-1.26-4.13-.68-1.77 1.28-.89 2.43 4 2.14 6.87 1.53 6.38-1.64 6.38-1.64l1.2-.78zM60.9 46.74c4.27 0 12-.77 13.59-.47s3.62.84 4.19 1.89-.73 4-4.46 4.55-12.66.7-13.43.73a9 9 0 0 1-4.73-1.65 16.44 16.44 0 0 1-2.92-3.48c0-.25 1.19 0 1.19 0s1.47-1.57 6.57-1.57z" fill="#d36513"/><g fill="#5c211a"><path d="M111.53 56.34c-.85.38 0 .16 1.17-.14a1.76 1.76 0 0 0-1.17.14z"/><path d="M116.45 55.68a4.73 4.73 0 0 0-1.31-2.59c-1.5-1.63-12.16-7.15-17.44-10.79l-8.34-5.45-1.53-.9s-10.86-7.09-12.35-8.1a3.64 3.64 0 0 0-2.51-.8L62.06 30.9l-.16-.09a.7.7 0 0 0-1 .11l-.76.66-10.55 3.72-2.68 1-6.42 2a21.18 21.18 0 0 0-2.52-1.41s-3.3-1.78-5-1.79a4.3 4.3 0 0 0-3.79 1.51c-.54.57-2 3.45-4.11 5.7a6.19 6.19 0 0 1-2.56 1.71c-3.75 1.68-7.71 2.91-11.63 4.35q-4.83 1.77-9.6 3.48a2.34 2.34 0 0 0-.49.23 1 1 0 0 0-.34.18 1.3 1.3 0 0 0-.4.54 9.7 9.7 0 0 0 .28 2.8c.14.68.26 1.42.43 2.13l7.37 29.06c.07.19.14.39.23.59a7.08 7.08 0 0 0 1.6 2.23l8.88 9.59c1.26 1.49 2.61 3 4.09 4.58s2.64 2.85 4 4.11c2.18 2.69 4.57 5.38 7 8.16q2.77 3.13 5.49 6a3.79 3.79 0 0 0 2.52 1.26 10.45 10.45 0 0 0 3-.66l27.34-11.36c1.73-.72 17.67-7.07 17.67-7.07s24.08-10.05 25.43-10.79c.63-.34 2.76-.92 4.06-2.13a2.94 2.94 0 0 0 .59-2.52c-1.07-7.98-3.52-32.27-3.58-33.1zm-4.86-3.08s1.5 1 1.54 1.57-29.66 10.85-29.66 10.85c-1.54-.85-10.93-5.77-14.78-7.36-1.72-.71-2.9-1.18-5.6-2.26a30.28 30.28 0 0 0 10.06 0c4.79-.91 6.67-2.16 10.08-3.53a23.38 23.38 0 0 0 2.76-1.35c2.42-.29 6.54-.48 7.64-.79 2.82-.79 2-1.06 2-1.06s-4.08-.14-3.86-.61 5-1.76 4.93-2-3.28-.15-3.89-.08-4.76.5-6 .58a10 10 0 0 0-2.66-1.3c-.56-.14-1.74-.49-2.38-.65 3.58-.47 8.6-1.5 9.86-1.76 1-.2 2-.35 3.18-.59 5.62 3.34 11.32 6.91 16.78 10.34zM63.38 72.88c-9.7 4-16.53 6.24-27.21 9.61a4.35 4.35 0 0 1-2.78.09 5.5 5.5 0 0 1-1.7-1c-2.6-2.22-4.1-3.41-6.55-5.85q-3-2.94-5.86-5.65a60.93 60.93 0 0 1 9.74-5.32c9.25-4.3 12.53-5.86 15.09-7.77.87-.65 1.45-1.11 1.83-1.44a4 4 0 0 0 0 .44s-.44 2.7-.56 3.59-.52 7.42-.38 8.56-.07 4.89-.07 4.89 4.77-3.32 4.79-3.68 4.21 2.17 4.58 1.67-1.08-7.33-.78-9a15.65 15.65 0 0 0 .16-2.74 2.34 2.34 0 0 1 .7.47s3.66 4.49 4.32 5.24 4 4.61 5.42 6.33a2.77 2.77 0 0 1 .51.82 3.75 3.75 0 0 1-1.22.71zM50.2 46.35a2.91 2.91 0 0 1 .86-.38c2.05-.16 2.24.68 2.4.85a7 7 0 0 0-.85 1.18c-.41 1-.17 1.43-.55 1.65a2.33 2.33 0 0 1-2.11-.74l-.06-.08a2.33 2.33 0 0 0 .58-.78 3.06 3.06 0 0 0-.23-1.73zm26.48-8.06a50.39 50.39 0 0 1-4 4c-1.16.7-2 .18-4.94.08-7.64-.27-9.23.22-10.19.66a6.48 6.48 0 0 0-3.53 3.2 1 1 0 0 1-.28-.54 8.61 8.61 0 0 1-.12-1.15 15.13 15.13 0 0 1 1.2-5.28 9 9 0 0 1 4.12-3.49c1.44-.61 6.51-.89 7.12-.91a16.23 16.23 0 0 1 3.43.46l3.68.78c5.25.76 3.54 2.17 3.54 2.17zM54.49 49.83c-.43-.51-.93-1.54-.75-1.67 1.32.67 5.32-1.25 6.64-1.14 4.92.41 5.64 1.67 13 .33 2.28-.42 4.7.47 4.87 1.29.11.56-1.7 2.55-3.94 3.34-2.09.74-7.7 1.13-9.15 1.12-1.12 0-4.49.32-6.72-.76s-3.22-1.65-3.95-2.51zm4.46 3.79c7.38 1 14.4 0 16.44-.87s4.76-2.88 4.58-4.05c-.27-1.75-3.38-3.25-5.67-2.84-8.38 1.5-10.6-.2-14.19.1-2.4.2-5.1 2-5.84 1.42a5.73 5.73 0 0 1 1.32-1.78 8.61 8.61 0 0 1 2.72-1.74 18.71 18.71 0 0 1 4.83-.56c2.14.07 5.25.27 7.65.35a64.72 64.72 0 0 1 7.87 1.2c3.2.69 7.73 1.7 7.8 3.3 0 .8-1.17 1.4-2.58 2.31a38.36 38.36 0 0 1-4.47 2c-.86.25-2.11 1-3.75 1.4a31.35 31.35 0 0 1-9.2.93 35.28 35.28 0 0 1-5.62-.52 12.78 12.78 0 0 1-2.44-.74 4.3 4.3 0 0 0 .55.07zm-2.38-.85a4.49 4.49 0 0 0-1.89-.48 2.42 2.42 0 0 0-1.58.64c-.07-.42-.14-.78-.2-1a8.72 8.72 0 0 0-.47-1.65 2.12 2.12 0 0 0 .46-.3.44.44 0 0 0 .11-.18.89.89 0 0 0 .16.22 13.67 13.67 0 0 0 3.43 2.74zm-5.28-1.17c.65.64 1.26 12.21 1.23 13.91s.89 3.71.48 3.68-2.65-1.29-3.14-1.41-3.25 3.19-3.4 3.06.79-16.57.88-16.79a5 5 0 0 0 1.19-1.22 6.39 6.39 0 0 0 1.09-2.59 10.28 10.28 0 0 1 1.67 1.36zm-1.53-3.89a72.6 72.6 0 0 1-8.73 3.76c-2.92 1-5.95 2-8.34 2.61l.72-.83a53.86 53.86 0 0 1 5.46-5.91 7.38 7.38 0 0 1 5.56-1.73 11.66 11.66 0 0 1 5.35 1.61.34.34 0 0 1 .08.28.32.32 0 0 1-.1.24zM34.59 54.6c4.88-1.49 10.31-3.64 11.66-4.21a14.07 14.07 0 0 0 2.58-1.5 2 2 0 0 1 0 1.62A5.06 5.06 0 0 1 47 52.85a51.33 51.33 0 0 1-7.7 3.59c-2.45.87-14 4.5-14.6 4.61s-1.08-1-1.37-1.62-.87-2.55-.87-2.55a94.28 94.28 0 0 0 12.13-2.28zm-10.83 7.14c.17.13 1.29.33 4-.71 3.07-1.17 9.89-3.1 12.15-3.84 1.19-.39 2.83-1 4.24-1.54a59.87 59.87 0 0 1-8.79 4.68c-5 2.29-10.58 5.08-12.14 5.86-1.12.56-3.49 2-4.9 2.88L16 66.96l-.85-.73a30.91 30.91 0 0 1-3-2.8c2-1.4 8.12-3.21 10.08-3.75a9.58 9.58 0 0 0 1.51 2.04zm30-4.43c0-.42-.23-1.94-.45-3.32a4 4 0 0 1 1.87-.54c.63.07 17.9 7.81 24.72 11.32a3.72 3.72 0 0 1 1.4 1.08 5.33 5.33 0 0 1-1.64.8L66.34 71.6c-2.86-3.28-12.61-14.31-12.61-14.31zm33.83-10.14c.77-.1 6.28-1 6.34-.73s-3.45 1-3.5 1.68c0 .32 1.54.77 1.62 1a45.09 45.09 0 0 1-4.89.6 1.55 1.55 0 0 0 .79-1.51 1.66 1.66 0 0 0-.36-1.04zm6.24-6l-14.9 2.7c-1.63-.28-3.31-.52-4.86-.76l-1-.14c1.27-1.11 3.56-3.35 3.56-3.35a37.06 37.06 0 0 1 6.18-1.84c1.2-.24 2.56-.46 3.73-.62zM71.59 28.4a3.17 3.17 0 0 1 3.7.59l10.22 7.23a24.61 24.61 0 0 0-3.29.69c-1.85.55-3.6 1-4.37 1.17a2.91 2.91 0 0 0 .61-1.08 9.6 9.6 0 0 0-3-1.21c-1.62-.51-5.43-1.21-5.43-1.21s-1.29-.3-1.9-.51a5.54 5.54 0 0 0-2.41-.41c.13-.19 2.26-3.41 2.69-4.11zm-5.43 2c-1.14.73-2.5 1.6-2.6 1.6a2.11 2.11 0 0 1-.58-.41zm-4.84.91c.29 0 1.74 1.61 2.46 1.43s3.35-2.51 3.58-2.5a33.82 33.82 0 0 1-2.72 3.53c-1.79.22-4 .57-5.35.89h-.14a22.6 22.6 0 0 1 2.2-3.33zM49.1 36.95a6.11 6.11 0 0 1 1.14-.54h-.06l9.17-3.45c-.53 1-1 2-1 2a15 15 0 0 0-3.29 2.29 9.32 9.32 0 0 0-2.13 4.15 8.5 8.5 0 0 0 0 2.19 1.2 1.2 0 0 0-.3-.44c-1.26-1.66-2-3.67-3.21-5.35a.94.94 0 0 1-.29-.84zm-1.24.45v.06a25.58 25.58 0 0 1 1.45 2.28c.33.69 2.48 4 2.48 4a15.11 15.11 0 0 0 .86 1.62 3.08 3.08 0 0 0-.45-.11c-1-.17-2.34.12-2.66.78h-.06A9.19 9.19 0 0 0 47 42.54a20.54 20.54 0 0 0-5.12-3.38zm-23.49 9a4.51 4.51 0 0 1 .84-2 91.14 91.14 0 0 1 5.19-7.63c.7-.55 1.63-.75 4.07 0a62.07 62.07 0 0 1 9.22 4.39 16.93 16.93 0 0 1 3.62 2.83 12.25 12.25 0 0 1 1 1.39c-.56-.22-4.83-1.23-6.81-.69s-4.12 2.63-4.74 3.16c-.19.16-.4.37-.61.58-.64 0-6.14.11-7.19 0a26.23 26.23 0 0 1-3.86-.88.92.92 0 0 1-.69-1.13zm-1.53 1.63a10.8 10.8 0 0 1 2.2.48 29.27 29.27 0 0 0 4.52.88 41.63 41.63 0 0 0 5.73 0s.07.13-.28.35a14.35 14.35 0 0 1-3.49 1.16s-6.13 1.41-8.79.22a2.79 2.79 0 0 1-1.14-1.22 1.3 1.3 0 0 1 1.29-1.85zm-19.69 5.1c.25-.78 1.28-1.16 2.12-1.35 5.64-2 10.17-3.61 13.16-4.57 1.48-.49 1.8.06 2.13.29a6.42 6.42 0 0 0 .08 2.05c.18 1 .79 2.41 3.25 2.68a20.25 20.25 0 0 0 5.77-.26c1.75-.26 3.24-.66 4.14-.73l-2.37 3.1c-.36.07-1.52.37-1.84.42-3.76.66-8.34 1.16-8.34 1.16-.41.44-.25 1 .19 2.53-.78.22-5.18 1.59-7.49 2.54a18.61 18.61 0 0 0-2.94 1.35l-4.88-4.88c-2.06-2.07-3.28-3.27-2.95-4.31zm13.52 41.28a.39.39 0 0 1-.57.15l-6.42-7.24a5.85 5.85 0 0 1-.65-1.55 22.54 22.54 0 0 1-.57-2.49C4.84 66.96 1.38 56.21 1.72 55.14c3.29 3.29 4.77 5 8.29 8.55l1.18 4.91c.09.47.22 1.16.39 2 .12.54 3.67 17.23 5.12 23.14a.78.78 0 0 1 0 .69zm8.62 10.24a1.08 1.08 0 0 1-.26-.19c-.54-.38-2.26-2.46-5.78-6.62l-.6-.71c-1.42-5.92-5.8-24.78-6.17-27.08 0 0-.62-3.63-.88-4.91 0 0 1.76 1.57 2.51 2.26l.6.63c.24.2 1 1.09 2.11 2a66.41 66.41 0 0 0 1.48 8.3c1.11 5 5.89 21.62 5.89 21.62.35 1.2.49 2 .64 2.57s.23.79.38 1.32a1.21 1.21 0 0 1 .12.83zm15 15.85c-.36.22-1-.28-1.24-.56-3.94-3.78-9-10-11.83-13.45a4.77 4.77 0 0 1-.34-.69 5.62 5.62 0 0 1-.32-1.16 205.73 205.73 0 0 0-5.55-21A112.37 112.37 0 0 1 18.25 72c-.05-.55.15-.42.24-.3 3.52 3.27 5.95 5.5 7.5 6.92 2.51 2.3 4.24 3.87 5.74 6.6a20.84 20.84 0 0 1 1.53 3.62c2.19 6.47 2.28 9.48 4.2 16.87.85 3.26 1.31 4.53 2.1 8.14.55 2.5.81 3.88 1 5.21a1.59 1.59 0 0 1-.2 1.46zm31.41-10.9a1.4 1.4 0 0 1-.75.65c-5.58 2.47-23 9.2-24.33 9.66a4.39 4.39 0 0 1-2.74.27c-.84-.26-1.33-2.15-1.72-3.65-.27-1-.42-1.62-.82-3.69-1.54-7.8-4.69-19.41-5-20.45-.27-1.32-1.57-6-1-6.94.8-1.34 1.82-1.51 3.29-1.95 9.18-2.73 17.7-6.22 26.72-9.58.41.27.73 1.87.93 2.84.35 1.67 4 23.11 5.41 31.31a2.27 2.27 0 0 1 .01 1.53zm15.58-5.81c-.91.71-11.62 4.69-11.62 4.69a1.94 1.94 0 0 1-2.48-1.43c-.48-2-5.87-33.16-5.87-33.16s0-.19-.06-.45l13.73-5.23a2.58 2.58 0 0 1 1.79-.09 1.19 1.19 0 0 1 .75 1c.11.76 4.58 32.69 4.58 32.69a2.55 2.55 0 0 1-.82 2.02zm30.42-13.41c-1.06 1.1-19.17 8.27-25.21 10.94a3 3 0 0 1-2.11.23 1.29 1.29 0 0 1-.52-1l-4.77-32.31a3.84 3.84 0 0 1 .14-1.19 2 2 0 0 1 1.37-.87l26.92-9.58c.6 0 .65 1.13.65 1.13s2.72 22.47 3.09 24.61 1.03 7.47.43 8.08zM22.78 59.17zM36.42 92.76z"/></g></g></svg>