<svg xmlns="http://www.w3.org/2000/svg" width="60" height="60" viewBox="0 0 60 60"><title>продукция</title><g id="Слой_2" data-name="Слой 2"><g id="Слой_1-2" data-name="Слой 1"><path d="M20.46,21.9h7.09a1,1,0,0,1,1,1v8.71a0,0,0,0,1,0,0H20.46a0,0,0,0,1,0,0V21.9A0,0,0,0,1,20.46,21.9Z" fill="#fff" stroke="#fd8204" stroke-linejoin="round"/><path d="M39.16,24.46H11.37a1,1,0,0,0-1,1v1.27a1,1,0,0,0,1,1h1.37l1.41,20.59A2.87,2.87,0,0,0,17,51.16H33.52a2.87,2.87,0,0,0,2.87-2.87h0L37.8,27.71h1.37a1,1,0,0,0,1-1V25.49a1,1,0,0,0-.95-1Z" fill="#fff" stroke="#fd8204" stroke-linejoin="round" stroke-width="1.5"/><line x1="12.34" y1="27.47" x2="37.85" y2="27.47" fill="none" stroke="#fd8204" stroke-linejoin="round"/><circle cx="22.77" cy="27.89" r="1.91" fill="#fd8204"/><path d="M22.65,27.44s6.24,16.13,14.68,14.47c6-1.19.47-11.8.47-11.8" fill="none" stroke="#fd8204" stroke-linejoin="round" stroke-width="1.5"/><path d="M49.61,50.88c-.13-15.68-2.33-28.48-5.33-33.1v0h-5c-2.89,4.94-5,17.89-5.1,33.24q0,.67,0,1.35t0,1.12a33.39,33.39,0,0,0,8,.82,36.37,36.37,0,0,0,7.36-.65q0-.64,0-1.28T49.61,50.88Z" fill="#fff" stroke="#fd8204" stroke-linejoin="round" stroke-width="1.5"/><rect x="38.82" y="10.77" width="6.05" height="2.98" fill="#fff" stroke="#fd8204" stroke-linejoin="round"/><path d="M37.89,10.76H47V5.68H29.67V9.15h1.51a13.56,13.56,0,0,1,4,.59" fill="#fff" stroke="#fd8204" stroke-linejoin="round"/><path d="M35.16,9.75a14.1,14.1,0,0,1-1.32,3.87,14.28,14.28,0,0,1-2.22,3.24,8.35,8.35,0,0,0,3.74-2,8,8,0,0,0,2.52-4.06H37.5A11.18,11.18,0,0,0,35.16,9.75Z" fill="#fff" stroke="#fd8204" stroke-linejoin="round"/><path d="M45.31,19.2V13.79h-7v5.41h7Z" fill="#fff" stroke="#fd8204" stroke-linejoin="round"/><path d="M44.74,17.42" fill="none" stroke="#fd8204" stroke-linejoin="round" stroke-width="1.5"/><rect x="16.39" y="21.9" width="9.9" height="11.88" fill="#fff" stroke="#fd8204" stroke-linejoin="round"/><line x1="32.23" y1="5.67" x2="32.23" y2="9.17" fill="none" stroke="#fd8204" stroke-linejoin="round"/><rect width="60" height="60" fill="none"/></g></g></svg>