<svg xmlns="http://www.w3.org/2000/svg" width="60" height="60" viewBox="0 0 60 60"><title>продукция</title><g data-name="Слой 2"><g data-name="Слой 1"><path d="M20.46 21.9h7.09a1 1 0 0 1 1 1v8.71h-8.09V21.9z" fill="#fff" stroke="#fd8204" stroke-linejoin="round"/><path d="M39.16 24.46H11.37a1 1 0 0 0-1 1v1.27a1 1 0 0 0 1 1h1.37l1.41 20.59A2.87 2.87 0 0 0 17 51.16h16.52a2.87 2.87 0 0 0 2.87-2.87l1.41-20.58h1.37a1 1 0 0 0 1-1v-1.22a1 1 0 0 0-.95-1z" fill="#fff" stroke="#fd8204" stroke-linejoin="round" stroke-width="1.5"/><path fill="none" stroke="#fd8204" stroke-linejoin="round" d="M12.34 27.47h25.51"/><circle cx="22.77" cy="27.89" r="1.91" fill="#fd8204"/><path d="M22.65 27.44s6.24 16.13 14.68 14.47c6-1.19.47-11.8.47-11.8" fill="none" stroke="#fd8204" stroke-linejoin="round" stroke-width="1.5"/><path d="M49.61 50.88c-.13-15.68-2.33-28.48-5.33-33.1h-5c-2.89 4.94-5 17.89-5.1 33.24v2.47a33.39 33.39 0 0 0 8 .82 36.37 36.37 0 0 0 7.36-.65v-1.28q0-.64.07-1.5z" fill="#fff" stroke="#fd8204" stroke-linejoin="round" stroke-width="1.5"/><path fill="#fff" stroke="#fd8204" stroke-linejoin="round" d="M38.82 10.77h6.05v2.98h-6.05zM37.89 10.76H47V5.68H29.67v3.47h1.51a13.56 13.56 0 0 1 4 .59"/><path d="M35.16 9.75a14.1 14.1 0 0 1-1.32 3.87 14.28 14.28 0 0 1-2.22 3.24 8.35 8.35 0 0 0 3.74-2 8 8 0 0 0 2.52-4.06h-.38a11.18 11.18 0 0 0-2.34-1.05zM45.31 19.2v-5.41h-7v5.41h7zM16.39 21.9h9.9v11.88h-9.9z" fill="#fff" stroke="#fd8204" stroke-linejoin="round"/><path fill="none" stroke="#fd8204" stroke-linejoin="round" d="M32.23 5.67v3.5"/><path fill="none" d="M0 0h60v60H0z"/></g></g></svg>