<svg xmlns="http://www.w3.org/2000/svg" width="300" height="250" viewBox="0 0 300 250"><g data-name="Слой 2"><g data-name="Слой 32"><path fill="none" d="M0 0h300v250H0z"/><path d="M99.82 102.7c-.41 0-1.2 4.73-1.28 7s2 3.21 3.53 4 9.22 3.85 10.5 6 1.36 6.17 1 6.17a7.42 7.42 0 0 1-3.93.24c-1.92-.56-14 .15-16.46-1.3s-9.8-4.32-12.12-7-12.63-13.62-13.84-14.27c0 0-4.73-7.7-6-14.59s-2-17.24-1.36-23.34 1.79-12.71 5.24-19.37 12.59-15.63 16.52-18.68 16.52-8.26 19.17-10.18 14.27-6.25 15.88-6.5S129.57 9.12 132 9s15.56.56 21.09 3.21 8.74 4.49 9.7 4.57 10.42 4.17 13 7.3 10.18 15.24 10.18 15.24 1.28.24 4.17 3.29 7 12.75 8 20.29 1.12 20.93-1.52 27.67-9.38 16.6-11.07 18.52-6.66 7.22-10.18 9.14-7.09 5.46-9.82 6.18-9.11 2.28-9.91 1.72-1.6-4.06-1.6-4.62a5 5 0 0 1 1.44-2.33c.4-.24 20.37-10.83 25.66-21a65.29 65.29 0 0 0 6.66-23c.24-2.57-4.41-16.44-4.41-16.44s-3.45-.08-5.45.08-9.38.64-9.38.64 1.12-1.28-.08-5S163.33 44 159 41l-2.41-.8s.88 6.42.08 10.75-1.6 6.5-1.84 6.5-6.9.16-7.14.08-6.74.08-7 0-5.33 2.48-9.26 3.6a51.7 51.7 0 0 1-14.8 1.45c-5.45-.16-7.86-.48-7.86-.48s-1 3.18-1.32 3.18-6.54 3.16-6.06 4.6 5.85 8.82 6.42 11.31 1 10-.16 12.83-7.43 8.68-7.83 8.68z" fill="#e09c51"/><circle cx="151.68" cy="123.46" r=".56" fill="#692f23"/><path d="M194.39 49.11A75.18 75.18 0 0 0 184.16 36s-10.55-14.11-16.58-17.23-14.43-6.89-14.43-6.89a58.66 58.66 0 0 0-20.46-2.58C122 10 110.4 11.43 106.31 14c-.41.26-10 4.85-12.81 7.32 0 0-9.8 3.23-15 8.4s-13.35 14-17.12 23-3.88 25.2-2.8 29 2.48 17.55 10.34 25.84 20.67 15.4 22.94 16.8 16 2.58 16.37 2.58 4.63-.32 4.52-.75-.86-5.49 0-5.92 10.34 2.48 10.34 2.48 19.81 2.15 29.18-1.4c0 0 2 0 1.94 2.48s1.18 2.48 2.91 2.37a49.23 49.23 0 0 0 13.35-4.09c5.92-2.69 12.38-9.91 13.89-11.63s8.94-13.24 10.34-15.18 3.77-8.08 4.41-16.26-.63-22.93-4.72-29.93zM124.13 88c-4-.7-8.07-1.16-12.09-1.86-.68-.12-.39-1.15.28-1 4 .7 8.07 1.16 12.09 1.86.68.07.39 1.09-.28 1z" fill="none" stroke="#e09c51" stroke-miterlimit="10" stroke-width=".69"/><path d="M187.07 73.45c-.54-4.31-1.4-13-3-14s-5.92 0-6.57 0h-8.08a6.37 6.37 0 0 0 0-5c-1.18-2.26-8.29-15.18-12.81-15.61 0 0 2.37 11.09-.65 15.61s-3 3.55-3.34 3.45-7.32-.86-10.77 0-14.11 4.1-16.59 4.57-15.83.43-15.83.43a17.93 17.93 0 0 0-3.34 2.26c-.75.86-6.14 3.12-6.14 3.12s.11 5.81-.65 8.18-1.82 3.45-3.3 3.77-5.71-1.62-8.51 1-2.61 5.77-1.1 9.56 2.58 4.41 4.2 5.38 5.38.65 5.92 1.62a34.4 34.4 0 0 1 1.72 9.15c.11 3.12 0 5.6 0 5.6a50.34 50.34 0 0 0 5.92 3c2.69 1.08 13.68 6.68 23.69 8s22.4-1.08 26-2.91 12.92-6.35 17.87-11.63 9.91-8.51 12.71-17.34 3.19-13.9 2.65-18.21z" fill="#fae1cc"/><path d="M128.22 80.5a10.25 10.25 0 0 1 3.45-3.28c2.32-1.35 6.57-2.48 8.56-2.32s4.52.22 5.38 2.26.43 3.93-.22 4a7.66 7.66 0 0 0-3 .86 14.6 14.6 0 0 1-6.95 1.29c-2.53-.17-7.38-.6-7.22-2.81z" fill="#fff"/><path d="M166.07 81a7.83 7.83 0 0 1 2.93-4.27c2-1.29 4.52-3.18 8.13-1.78s3.07 4.25 2.85 4.68a5.33 5.33 0 0 1-5.71 3.18c-4.2-.38-5.06-1.62-6.35-1.72s-1.85.27-1.85-.09z" fill="none" stroke="#fff" stroke-miterlimit="10" stroke-width=".69"/><path d="M169.9 80.83a3.41 3.41 0 0 1-.38-3.34 3.85 3.85 0 0 1 3.39-2.58c1.45-.22 3.28.48 3.5 2s.65 4.85-1.83 5.22a6.89 6.89 0 0 1-4.68-1.3zM132.1 77.43a4.54 4.54 0 0 0 .81 3.82c1.4 1.67 2.53 2.75 4 2.1s3.12-1.67 3.28-3.07.7-3.23-.75-4.25-5.51-1.4-7.34 1.4z" fill="#bfd2e7"/><path d="M174.79 78.08c0-.16.16-.92 1.35-.7S176 75.44 175 75s-3.77-.27-4.63.92 4.42 2.16 4.42 2.16zM138.34 78.62s-.11-.75.59-.75a1 1 0 0 1 .92.7 2 2 0 0 0-.65-2.64c-1.51-1-5-.92-6 .16s2.08 2.8 5.14 2.53z" fill="#8e797c"/><path d="M80.25 42.65s-5.06 3.45-7 6.68-4.41 8.18-4.41 8.18a54.19 54.19 0 0 0-5.38 6.68C61.73 67 60.33 74.85 59.9 78.4a47.19 47.19 0 0 0 .86 14 13.5 13.5 0 0 0 3.66 5.92s-4-12.38 3.45-24a16 16 0 0 1 2.69 4.2c.75 2 3.88 8.72 4.2 9.8s1.08 2.8 1.08 2.8a10.52 10.52 0 0 0 .43-5.49 66.6 66.6 0 0 1-2.15-11.2c-.32-5.17-.54-6.68-.54-6.68s1.94-10.12 3.12-12.92S80.68 43 80.25 42.65zM60.12 63.44s3-12.06 11.2-19.38 12.48-8.84 12.48-8.84 8-9 7.32-10.55-2.91-1-2.91-1-10.65 7.25-15.82 12.41S61.08 53.21 60.12 58.7s0 4.74 0 4.74z" fill="#e9b87f"/><path d="M97.37 19.72C97.13 19.93 89.1 25.43 85 33c-3.81 7-6.52 19-6.52 20.42 0 0 8.17-12.42 11.29-16.93s8.75-4.36 10.75-3.81c2.93.81 3.31 7.09 3.25 9.07 0 0 .93-3.79 1.8-7.82.92-4.25 2.46-5.69 2.46-5.69a15.19 15.19 0 0 0-3.55 7.21c-.75 4.31-1.51 14.75.43 20.14s4.09 5.69 4.09 5.69-4.85-9.26-2.69-17.87 4.09-11.53 8.69-12.49 8.51-.86 9.37.54c0 0 3.45-4.2 6.78-4.85s6.14-.86 8.72-2.69 3-7.54 4.31-8.51a8.27 8.27 0 0 1 3.82-1.08l1.83.32a4 4 0 0 0-1.72 3c-.32 2.26 1 3.23 4.31 3s9.58-.22 13.46 3l1.94 2.69s3.55.11 8.4 6.25S187 45 188.25 52.88c0 0-.43-8.51-.75-10.12s-8-13.35-8-13.35-10.77-9.91-12.17-11.09-8.51-2.15-8.51-2.15-4.09-3.66-5.71-4.31-12.11-3.13-17.4-3.13-28 1.73-38.34 10.99z" fill="#e9b87f"/><path d="M154 198.47a32.92 32.92 0 0 0-2.8 7.86c-1.08 4.74 3.12 8.61 3.45 8.4s8.08 1.94 10.12 3.23 6.25 1.72 8.29.65 4.41-2.37 5.49-3.66 4-3.23 4.63-3.88 2.48-2 3.12-2.58 6.25-4.2 5.71-5.6-3.23-1.18-6.78-.32-9.58.32-9.58.32 5.06-3.12 6.46-3.77-.75-2.69-1.18-2.91-9.91-.32-12.6.75-14.33 1.51-14.33 1.51z" fill="#f9e5cc"/><path d="M195.2 196.21c-3.41-.49-6.81-1-10.18-1.67-1.87-.37-3.73-.79-5.58-1.28-.78-.21-1.57-.45-2.35-.68-1.61.43 9.48-5.37 8.09-7.17-1.58-2 2.48-20.34 8.6-19.76 1.15.11-10.69-16.8-9.54-16.65-4.2-6-11.25-15.79-13.75-17.34-3.66-2.26-15.72-5.49-16.91-5.6s.75-4.09.75-4.41-12.6 2-16.8 2.26a65.53 65.53 0 0 1-15.94-2.15c-.81-.29-7.54-1.18-8.18-1s-.75 3-1.08 4.09-3.12 3.55-6.68 5.38-13.65 5.96-15.71 8.86-6.14 9.69-7.54 15.72-4.85 24.55-5.17 28.75-1.4 10.88.65 15 7.54 11.41 9.37 12.28a2.85 2.85 0 0 1 1.62 2.8s-.22 13.89-.22 15.83.11 7.43 7.11 6.57 30 2.8 30 2.8c6.89-.54 18.31 1.18 31-2.8a187.54 187.54 0 0 0 25.84-10.34c.54-.43 3-3.66 3-3.66l-1.18-11.84s6.78-5.17 6.89-5.49c0-.08 1.53-1.86 3.81-4.56a19.88 19.88 0 0 1 .08-3.94z" fill="#fff"/><ellipse cx="122.62" cy="161.91" rx="5.33" ry="6.73" transform="rotate(-30 122.615 161.915)" fill="#fd8204"/><ellipse cx="132.85" cy="142.31" rx="5.33" ry="6.73" transform="rotate(-30 132.847 142.316)" fill="#fd8204"/><ellipse cx="167.79" cy="137.16" rx="6.39" ry="5.33" transform="rotate(-63.63 167.793 137.157)" fill="#fd8204"/><ellipse cx="90.75" cy="159.54" rx="6.73" ry="5.33" transform="rotate(-60 90.749 159.538)" fill="#fd8204"/><ellipse cx="142.01" cy="180.32" rx="6.73" ry="5.33" transform="rotate(-60 142.005 180.32)" fill="#fd8204"/><ellipse cx="169.55" cy="180.09" rx="5.33" ry="6.73" transform="rotate(-11.83 169.534 180.045)" fill="#fd8204"/><ellipse cx="172.58" cy="218.68" rx="5.33" ry="6.73" transform="rotate(-11.83 172.51 218.645)" fill="#fd8204"/><path d="M122.5 210.23c-1.86 3.22-5.43 4.64-8 3.16.83-5.56.29-10.53 1.12-11.1a5.24 5.24 0 0 1 5.61-.55c2.57 1.47 3.13 5.26 1.27 8.49z" fill="#fd8204"/><ellipse cx="88.49" cy="205.52" rx="5.33" ry="6.73" transform="rotate(-51.3 88.48 205.513)" fill="#fd8204"/><ellipse cx="102.92" cy="229.21" rx="6.73" ry="5.33" transform="rotate(-60 102.915 229.205)" fill="#fd8204"/><path d="M129.1 232.3a7.43 7.43 0 0 1-.85-5.71c.35-1.19 4.23.19 10.08.38 1.86 3.22 1.3 7-1.25 8.49s-6.08.06-7.98-3.16zM101 192.13a8 8 0 0 1-2.33-3c3.13-3.94 5.71-6.31 9-5.35 2.9 2.32 3.76 6.07 1.92 8.37s-5.7 2.3-8.59-.02zM109.26 137.33c-1.86 3.22-5.43 4.64-8 3.16A5.33 5.33 0 0 1 99 135c.12-1 7.43-6.23 9-6.19 2.56 1.5 3.12 5.3 1.26 8.52z" fill="#fd8204"/><path d="M182.17 67.85a17.48 17.48 0 0 0-6.41-4.31 9.64 9.64 0 0 0-5.49-.43c-.43.05-1.18 1 .48 1.45s5 .48 6.89 1.29a27.29 27.29 0 0 1 4 2.32s1.02.65.53-.32zM131 68s6.25-1.78 8.83-2.26 6-1 7.11-1.18 2-1.51-.7-1.94-6.57.48-8.35 1.08a49.31 49.31 0 0 0-7.65 3.55c-1.59 1.03-.67 1.62.76.75zM90 85.29a6.45 6.45 0 0 1 2.64-.43c1.35.11 2.21.38 2.48.16s-.43-1.62-2.91-1.62a4.41 4.41 0 0 0-3.66 1.51.74.74 0 0 0-.11 1c.21.3 1.18-.4 1.56-.62z" fill="#692f23"/><circle cx="151.99" cy="160.55" r=".73" fill="#692f23"/><circle cx="156.87" cy="164.33" r=".73" fill="#692f23"/><circle cx="160.45" cy="158.09" r=".73" fill="#692f23"/><circle cx="155.32" cy="153.01" r=".73" fill="#692f23"/><circle cx="157.61" cy="144.9" r=".73" fill="#692f23"/><circle cx="149.46" cy="147.57" r=".73" fill="#692f23"/><path d="M164.14 197.42l5.29-7.15s8.69-10.93 11-13.48S194 163 194 163l8.31-7.67s.67-.81 2.79-.29 30.6 7.15 32.49 8.19 3.6 1.45 3.2 2.21S225 179 225 179s-20.4 19.7-22.43 22.2-5.75 8-5.75 8a52 52 0 0 1-6-1.69 19.35 19.35 0 0 0-1.92-1z" fill="#e0dede"/><circle cx="151.94" cy="140.43" r=".84" fill="#692f23"/><circle cx="147.4" cy="131.92" r=".84" fill="#692f23"/><path d="M153.41 200.05a11.09 11.09 0 0 0-2.2 6.27 16.53 16.53 0 0 0 2 8.68c.46.66 2.29-.19 3.41-.08s6.59 2.79 8.68 3.72 6.86.35 8.29-.08 4.93-3.63 4.93-3.63 2.51-3.15 3.75-3.34 2.5-2 3.25-2.56 3.72-3.1 4.07-3.25a4.2 4.2 0 0 0 1.28-2.4c.12-1-.12-.78-1.21-1.09s-6.85 1.2-9 1.32a4.51 4.51 0 0 1-3.49-1.47s0-1.47 2.17-1.86 3.29-1 3.33-2.09 1-1.85-1.77-2-13.42 1.29-15.13 1.52a68.22 68.22 0 0 1-7.05.54 32.18 32.18 0 0 0-4 .23c-.19-.01-.72.52-1.31 1.57z" fill="#fae1cc"/><circle cx="144.58" cy="137.29" r=".84" fill="#692f23"/><circle cx="152.52" cy="133.87" r=".73" fill="#692f23"/><path d="M154.66 91.92a14.68 14.68 0 0 0 3.82.38 10.35 10.35 0 0 0 3.39-.81s.59-.16-.11.7a3.87 3.87 0 0 1-3.39 1.81c-1.94 0-3.61-.38-4.41-1.29s-.49-1.17.7-.79zM137.43 99.94a8.78 8.78 0 0 1 2.85.22c1.45.38 7.48 3 13.14 3.18s10.71-2.85 12.22-3.18 3.07-.16 3.77.59.43 1.62-.11 1.72-1.45-.92-2.48-.86-4.25 1.45-6.62 2.85c-1.69 1-5.55 1.18-8.29.75a25.93 25.93 0 0 1-7.65-2c-2.85-1.29-4.41-1.88-5.28-1.67s-2.32 1.29-3.66 1-2.32-2.28 2.11-2.6zM148.68 107.15a18.46 18.46 0 0 0 6 .86c3.77 0 5-1.51 5.71-1.13s-1.83 2.53-5.22 3a12.17 12.17 0 0 1-7.38-1.67c-.4-.36-1.48-1.81.89-1.06z" fill="#692f23"/><path d="M192.15 203.35c0-1-.32-2.24-1.42-2.29a27 27 0 0 0-6.35 1.13 8 8 0 0 1-2.58.16l-1.78.05s-1.29.16-1.18-.7 2.42-1 3.45-1.56 2.15-2.15 1.35-3.34-1.88-1.94-5.33-1.78-5.6-.05-7.43.48c-1 .29-2 .66-3.29 1a47.37 47.37 0 0 1-11 .91s.38-1.35-.7-3.88a18.76 18.76 0 0 0-1.67-3.07l-.4-.49c-.18-.23-.34-.46-.5-.7a3.9 3.9 0 0 0-1.1-1 17.84 17.84 0 0 0-5.87-1.08c-1.67.11-8.72.32-9.64.43s-1.83-.48-3.82-.59-5.06.16-6 .11-1.78-1.83-3-2.42a16.22 16.22 0 0 0-5-1.35c-.92.05-.75-1-.75-1s-.05-4.09-.11-5.28a7.43 7.43 0 0 0-.92-3.71 22.66 22.66 0 0 1-1.72-5.92c-.22-1.4.43-4.2.43-5.55s-.59-3.5-1.08-3.39-.43 1.35-.38 3.45-1 1.51-1 1.51c-1.08-.65-1.56-4-2.21-3.77s.27 2.91.81 4.25 3.55 10.66 3.77 13.35-.32 2.75-.32 2.75c-4.58.32-6.19 1.18-6.19 1.18-5.81 2.26-8 4.2-9.91 6.62s-.16 1.35-.16 1.35.16-1 4.63-3.28 10.34-3.23 11-2.42-.75 1.13-2.21 2-7.16 4.68-8.24 8.13.11 2 .11 2c3.39-6 9.91-9.21 12.33-10.07a8.05 8.05 0 0 1 6.25.43c1.51.75.86 1.67.86 1.67a10 10 0 0 0-2.53 1.62c-1 1-3.34 3.34-5.38 8.72s-2 14.54-1.88 16.48 1.45 3.88-.22 4.74-5.87-.38-7.7-.81-13.41-4.15-19-9.1a32.2 32.2 0 0 1-9-14.91 32.69 32.69 0 0 1-.16-9.1 47.17 47.17 0 0 0 .43-5c.11-1.72 1.51-7.27 1.67-8.61s.43-4.15.75-5.92 1.45-7.27 2.42-10.61 3.34-9.8 5.44-12.81a16.79 16.79 0 0 1 8.61-5.81c2.58-.7 11.41-.59 12.54-.38s2.1-.11.81-.75-4.9-1-7-.86-2.42-.27-2.1-1.13 2.75-2 4.36-2.85a47.56 47.56 0 0 1 5.55-2.1c.21 0 1.33-.4 2.11-.66h.16a13.69 13.69 0 0 1 3.07.08c1.13.24 5.49 2.5 8.32 3s6.3-.32 9.29.81 6.14 6.7 8 10.18 5.9 10.66 6.22 15.43.16 9.53.65 10.1 1.29 1.45 4.12 1.21 6.95-.81 8.72-2.75a7.36 7.36 0 0 0 1.38-2.2 12.79 12.79 0 0 0 .39-5.07A52.57 52.57 0 0 0 161 144.5c-2.28-6.78-4.2-11.47-7.43-14.78 0 0-2.1-3 3-2.42s11.23 3.88 12.76 4.93 5.33 6.95 7.75 9.77c1.53 1.79 10.53 11.91 13.47 24 1 .11.57-1.16 1.59-1-.6-.86-1.24-9.07-8.52-18.11-2.55-3.17-6.62-7.35-8.48-10.34s-5.33-7.27-7.83-8.32-4.52-1.29-2.42-2.42 8.32-2.83 12-6a62.69 62.69 0 0 0 6.95-7.11s3.88-3.55 5.09-5.57 4.36-6.86 5.25-8.16a29.42 29.42 0 0 0 5.57-15.51 44.44 44.44 0 0 0 .15-4.75c.37-1.89 1.22-7.23.17-11.73-1.29-5.57-1.86-10.5-2.58-12.36s-5.09-11-7.83-14.21a29.27 29.27 0 0 0-4.85-4.76c-1.13-1-5.41-8.16-9-11.71s-8.4-6.46-10.9-7.27-4-1.62-4.76-1.86c0 0-2.91-1.94-10-4.36S131.9 8.67 131.9 8.67A89 89 0 0 0 118 10c-6 1.21-15.1 4.12-22 8.56s-10.18 3.47-17 9.85-10.32 9.73-15.41 18.53a49.13 49.13 0 0 0-6.38 21.81 84.23 84.23 0 0 0 1 14.39s.75 6 1.24 7.48 3.34 8.83 4.68 10.93a70.65 70.65 0 0 0 7.43 9.26c2.58 2.58 5.65 4 7.43 5.49s5.28 4.58 7.32 6 7.91 4.58 11.58 4.9 6.46.05 7.7.43c.22.07.55.14.92.22-.54.5-1.6 1.51-2.11 1.93a67.14 67.14 0 0 1-8.51 4.68c-4.36 1.94-6.57 3.34-9 6.25s-5.6 15.51-6 17.07-3.39 15.61-3.39 15.61-3.28 13.68-.38 23.21 3.71 8.78 7.27 13.3a17.34 17.34 0 0 0 3.4 3.18c0 3.25.29 18.86.58 19.92s.32 2.15 1.45 2.32 10.34 2.75 12.71 3.07 18.74 3.55 31.12 2.91a124.27 124.27 0 0 0 35.1-6.95c9.95-3.61 16.39-8.65 17.39-9.87l.05.07a4 4 0 0 0 1.24-2.1c.43-1.51-1.56-11.74-1.56-11.74s.48-.05 1.62-1.88 1.08-2 2.21-2.42 2.52-.71 2.45-3.06zm-77.28-78.16c-1.69-1.68-.55-3.48-.08-3.55.21 0 1.82.44 4.2 1-.68.42-3.38 2.4-3.6 2.52a.61.61 0 0 1-.52.03zm1.67 1.13l-.06-.12c-.18-.36 3.72-2.82 4.14-2.8s2.23 4.25 2.84 5.13a31.89 31.89 0 0 1-6.92-2.21zm8.87 1.76a32.48 32.48 0 0 0-2.71-4.55c1.73.37 3.62.72 5.57 1a23.64 23.64 0 0 0-2.64 3.5c-.08.18-.22.05-.22.05zm3.59 1.4c-.6-.08-1.3-.17-2.06-.29.38-.58 2.75-4.1 3.28-4s2.69 4 3.09 4.7c-1.31-.12-2.89-.23-4.31-.41zm2.82-4.61c.85.06 1.69.09 2.51.09 1.21 0 2.38 0 3.51-.11-.64 1-3.05 3.88-3.05 3.88-.24-.91-2.34-3.18-2.97-3.86zm4.45 5.09h-.52c.6-.54 2.89-4.35 3.61-4.33s3.92 3.11 3.22 3.54a6.59 6.59 0 0 1-2.28.51zm14.3-2.2a3.16 3.16 0 0 1-.9.77c-.72.19-2.06.39-3.42.57-.34 0-.75-.07-.78-.51 0-.76 2.35-4 2.73-4.05s2.8 2.6 2.37 3.23zm-1.44-4.76a12.59 12.59 0 0 0 1.6-.51h.16s2.08.07 2.1 1a5.64 5.64 0 0 1-.65 2.29v.07l-.21.37a28.19 28.19 0 0 0-3-3.22zm.64 7.68a31.41 31.41 0 0 1-1.07 3.56l-6.77-2.19s-.08-.05 0-.13c.51-.16 6.33-1.59 6.33-1.59l1.38-.25c.11.09.16.25.13.64zm-5.37-2.33a49.42 49.42 0 0 0-3.49-3.82c2.23-.25 4.19-.6 5.77-.94-.39 1.03-2.28 4.8-2.28 4.8zm.49 13.55c-1.86-3.29-3.88-6.9-4.76-8.49 0-.1 0-.23.22-.23s6.65 2.64 7.32 2.78l.4.11c-.47 1.31-.93 2.53-1.25 3.22-.82 1.88-1.39 2.5-1.93 2.65zm4.63 11.23a37.26 37.26 0 0 0-3.45-9.13 29.67 29.67 0 0 1 6.63 2.6s.11 0 0 .56-2.7 5.22-3.18 6.01zm4.52-5a.52.52 0 0 0 0-.17.63.63 0 0 1 .5-.43 7.29 7.29 0 0 1 4.61 3.09 2.83 2.83 0 0 1 .14 1.17c-.09.56-2.13 5.46-2.31 5.84a1.09 1.09 0 0 1-.9.67 12.47 12.47 0 0 1-5-3.78s-.4-.22.13-1 2.63-5 2.79-5.38zm-3.11 17.1a.3.3 0 0 1-.22.08 8.42 8.42 0 0 1-.47-2.65c0-1.53-.08-4.6-.24-6.7v-.1c.81.6 5 3.71 5.06 4s-.76 1.32-1.05 1.79-2.83 3.35-3.08 3.59zm5.37 1.39a12.35 12.35 0 0 1-4.1.14c.19-.29 1.07-1.6 1.17-1.78s2.57-3.67 3.36-3.92 4 3 4.2 3.37a11.78 11.78 0 0 1-4.63 2.2zm4.86-14a17.89 17.89 0 0 1 .42 2.12 37.41 37.41 0 0 1 .3 7.78s-3.18-2.55-4.07-3c0 0-.22-.29.22-.67a27 27 0 0 0 2.73-6.38s.18-.47.4.12zm-4-12.09c.76 1.66 1.53 3.46 2.25 5.29a31 31 0 0 1 1.06 3.33.43.43 0 0 1-.18.14c-.29.11-3.31-2.67-4.52-3.16-.34-.13-.31-.92 0-1.34a20.92 20.92 0 0 0 1.43-4.29zm-3.27 4.34a.43.43 0 0 1-.53.09.44.44 0 0 0-.14-.12h-.08-.05c-1-.41-4.94-2-5.3-2s-.94-.69-.36-1.77 1.81-3.13 2.22-3.87c.05-.1.11-.23.18-.38 2.36.83 5.76 2.08 5.91 2.23s-1.74 5.68-1.81 5.8zm1.3-8.45l-4.71-1.53a15 15 0 0 0 .51-2.15c.18-1.34.25-2.1.51-2.1a1.38 1.38 0 0 1 .31.06 7.5 7.5 0 0 1 1 1.24c.19.28 1.19 1.99 2.42 4.45zM151.86 120a58.59 58.59 0 0 1-25.92 2.26c-9.37-1.29-14.78-4.9-16.72-5.44 0 0-8.29-3.28-10.07-5.28a11.73 11.73 0 0 1 .22-3.07c.32-1-1.08-7.59-1.29-8.72s.09-2.9-1.41-3.11h-.15a11.3 11.3 0 0 1-6.57-2.37 9.6 9.6 0 0 1-3.77-6.73A5.76 5.76 0 0 1 90 81.21a9.85 9.85 0 0 1 6.73.32s0-.22 1.51-1.45a11.51 11.51 0 0 0 3.28-5.71c.43-1.94-1.08-2.85.05-5.06s3.72-2.75 5.71-3.77 1.45-1.54 1.45-1.54 4.52 1.45 13.33.08a80.39 80.39 0 0 0 16.56-4.6 45.12 45.12 0 0 1 14.13-.81l1.94.4a1.14 1.14 0 0 0 1.53-1c.16-1.37 1.32-4.08 1.86-6.22a26.82 26.82 0 0 0 .73-9.61s9.77 7.59 9.61 14.05c0 0 .24 2.67-1 4s4 .16 5.81.08 4.52.16 6.14 0 2.75-.32 3.71.24 1.78 4.2 2.1 6.14c0 0 1 2.58 1.13 8.32s-1.13 13-2.83 16.56c0 0-3.42 8.21-8 12.95a81.12 81.12 0 0 1-12.76 10.28l-.29.19-.05.1a48.15 48.15 0 0 1-10.52 4.85zM124 31c.57 4.93 1.37 4.52 1.13 3.8a26.4 26.4 0 0 1 .4-7.51c.57-3.23 2.5-8.64 6.78-11.87s10.18-3 12.92-2.67 1.78 1.53 1.37 1.86-2.67 4.28-1.7 9.93a14.75 14.75 0 0 0 4.2 8.4c.4.48 4.52 3.15 6.22 7.19a16 16 0 0 1 .89 10.26c-.65 3.23-1.21 5.17-1.21 5.17a2.35 2.35 0 0 1-2.1 1.53h-7.27s-2.75.32-1.37-2 1.94-3 2-4-1.29 2.26-6.62 5.49-8.48 4-11.31 4.2-7.56 1.22-12.33.94-7.67.24-8.8-3.55c-1.86-4-3.43-15.09-.61-23.82s7.15-12.2 13.85-16.24 11.39-4.44 11.39-4.44-.81.73-3.39 3.31S123.43 26.11 124 31zm40.26 92.41a25.87 25.87 0 0 1-5.53 2c-1.45.16-3.15.32-3.63-.65-.17-.48-.47-1.52-.06-1.83a.1.1 0 0 0 0-.15 2.65 2.65 0 0 1 .86-1.63c.73-.48 5.49-3.15 6.46-3.71 1.62-.59 7.75-4.58 9.53-6.68a11 11 0 0 1-1.4 6.46c-1.85 3.34-3.13 4.7-6.23 6.22zm26-25.86c-1 7.75-7.83 13.89-7.83 13.89s-1.78 2.83-9 7.19q-1.37.82-2.67 1.55a29.81 29.81 0 0 0 3.86-7.33c.86-2.58 1.79-6 2.21-6.46a54.09 54.09 0 0 0 8.16-13.51s4-6.54 3.39-11.39c-.1.02 2.89 8.34 1.84 16.09zm6-7.51c-1.94 5.33-3.07 5.9-3.07 5.9s-1.7-12.11-2.42-14.29-2.5-13.81-3.8-15.75c0 0-1.19-3.7-1.36-4.37a1.31 1.31 0 0 1 .39-1.2c.89-.65 1.45-.16 2.34.89s3.39 6.62 4.2 8.56c0 0 .48.16 0-2.18s-3.31-9.85-3.31-9.85-1-2.83 1.53-1.37 5.49 9.13 6.46 13.41.91 14.95-1.02 20.28zm-1.53-37.39c2.39 6.19 2.61 8.91 2.54 10-.87-2.33-3.89-7.83-7.14-10.05a63 63 0 0 0-1.69-8.6c-.06-.17-.17-.45-.3-.74-.2-.48-1.08-2-1.08-2s4.21 2.61 7.6 11.42zm-25.43-22.1a23.44 23.44 0 0 0-2.74-7.55c-2.26-3.55-3.8-4.85-4.85-5.57s5.65 2.42 10 6.14 11.55 11 13.73 18.33a16.81 16.81 0 0 0 1 2.82c.76 2.18 1.63 5 1.54 6.38-.16 2.34-1.21 5.25-3.23 6.62a2.64 2.64 0 0 1-1.47.54l-.15-.05c-1-.24-1.78-.89-1.37-4.2s-1.62-8.16-3.31-9.93-3.07-1.7-3.07-1.7a18.41 18.41 0 0 1 4 7.67c1.21 4.76.48 7.35-.89 8.08s-6.22.65-7.59.4.4 0-1.21-5.41-8.3-12.12-11.05-14.25a93.87 93.87 0 0 1-8.72-7.67c-.47-.64-1.27-1.79-2.42-3.55a11 11 0 0 1-.5-10.27 5.24 5.24 0 0 1 4.85-2.67 9.12 9.12 0 0 1 6.62 2.34c3.53 2.84 8.73 7.68 10.83 13.5zM93 24.49c2.18-2 5.65-5.33 9.61-7.11a108.18 108.18 0 0 1 12.43-5 33.32 33.32 0 0 0-5.16 3.21s6.86-3.31 10.66-4.2A101.35 101.35 0 0 1 132.3 9.7c.83 0 13.31-.05 18.59 2 1.11.44 2 .81 2.69 1.13-.94 0-2-.16-2-.16-1-.4-4.2-.81-5-1.13s-11.06-1.94-24 1.62S107 20.61 107 20.61c4.44-4.2 15.75-5.65 15.75-5.65-3.88 1.37-9.13 5.49-10.18 6.62a28.15 28.15 0 0 0-9 16.8c-1.7 10.66-.32 13.65.4 16.56a13.62 13.62 0 0 0 1.82 4.64c-.06 0-.07 0 0 0a6.68 6.68 0 0 1 .86 3.23 4.1 4.1 0 0 1-3 3.34A4.34 4.34 0 0 1 99 64.74c-1.45-1.45-2.8-5.17-3-6.41s-.59-.22-.59-.22c-1 3.45 2 8.08 3 9.91s1.13 6.89.59 8-2.21 3.28-4 3a17.51 17.51 0 0 0-5.65.43 6.73 6.73 0 0 0-2.08.87c-2.72-.51-3.23-2.23-5.78-6.92s-3.47-13.08-2.75-19a36.53 36.53 0 0 1 3.56-11.2s.66-2.25.81-3a19.42 19.42 0 0 1 2.56-6.2A37.43 37.43 0 0 1 93 24.49zM60 74.4a32.23 32.23 0 0 1-.22-3.88c0-3.47.73-11.87 3.15-17.69a75.28 75.28 0 0 1 9.69-15.75c1.94-2.18 9.29-9.21 13.24-11s4.68-2.18 3.8-1a49.41 49.41 0 0 0-4.44 6.06c-1.67 3.12-3 5.81-4 7.35S78.38 42 78.4 42c-1.63 1.76-6.07 6.69-7.9 10l-.43.81c-.62.88-6.05 8.61-7 10.82a59.63 59.63 0 0 0-2.45 7.43zm15 26.52a71.78 71.78 0 0 0-.05 8.29s.16 1.88-2.26-.7a68.84 68.84 0 0 1-8-9.91 25.51 25.51 0 0 1-3.82-12.38c-.43-5.44 1.13-12.44 1.29-13.68 0 0 1.53-6.38 2.67-8.64.68-1.36 2-3.62 2.75-3.91 0 .2-.06.4-.08.6-.27 2.1-1.56 8.51-.32 11.63a62.23 62.23 0 0 1 3.12 9.64c.54 2.75-.48 8.61-.54 10.34a16.15 16.15 0 0 0 .86 5.17c.32.59.92-2.32.86-4s.7-5.28.38-7.38.16-1.45 1 .22a15.82 15.82 0 0 1 2 5.6 64.6 64.6 0 0 1 .14 9.11zm21.43 23.69c-2-.32-4.31.22-7-6.14s-.43-8.13-1.45-13a24.68 24.68 0 0 0-5.11-10.71c-1.56-1.62-.48.75.11 1.51s3.71 6.14 3.77 10.66-.7 5.65 0 9c.62 3 1.4 4.55 1.8 5-.69-.41-3.43-1.87-4.33-2.32A12.33 12.33 0 0 1 78 111.9c-2-4.74-1.35-9.69-1.29-12s.16-8.24-1-11.63-5-10-5.6-13.73-1.35-7.16-.81-12.06 3.9-11.89 5.11-13.41a17.76 17.76 0 0 1 4.9-4.47 1 1 0 0 1 .43-.17c.26.09 0 .58 0 .58s-1.37 2.26-3.47 6.54S72.79 64.47 73 67.29s1.29 2.91 1.29 2.91c-.89-5.41 2.34-12.11 2.34-12.11a27.28 27.28 0 0 0 3 15.83c1.13 2.42 5 6.7 5.41 7.59A1.49 1.49 0 0 1 85 83a8.21 8.21 0 0 0-1 3 13.4 13.4 0 0 0 .86 5.76 10.49 10.49 0 0 0 5.92 5.81 9 9 0 0 0 3.7.67s.5-.19 1.2.78 1.08 5 1.4 6.19a16.5 16.5 0 0 1 .54 3.45c.11 1.4-1.13 3.28-1.08 6a47.23 47.23 0 0 0 1.4 7.91c.4 1.55.56 2.36-1.48 2.04zm7.05.48c-1.72-.65-3.93-1.35-4.58-5.65s.11-5 .11-5 .65 0 2.21 1.45a11 11 0 0 0 4.48 1.92s3.8 1.53 4.76 3.31a5.52 5.52 0 0 1 0 4.9 20.82 20.82 0 0 1-6.95-.93zM118 199a15.4 15.4 0 0 1 7.59-8.83c2-1 7.16-.7 7.16-.7a11.48 11.48 0 0 0-3.93 5c-.43 1-.22 2.37.27 1.62a21.45 21.45 0 0 1 3.5-3.88c1.67-1.45 5.17-3.45 11.41-3.77s8.83 1.29 9.69 3.71.22 2.64.22 2.64v.2c-.42.14-1-.57-1.21-1.27s-.59-3.34-3.18-3.34a5.09 5.09 0 0 0-3.82 1.29s-4.52 2.64-6.41 11.79 1.08 14.59 1.83 15.78 3.71 4.79 3.71 5.44a1.22 1.22 0 0 1-1 1.29c-.7.22-5.71.81-7.91.32s-5.76-4.85-6.08-5.6-.7-.81-.32.75 1.29 2.53.32 3.45-5.06.7-7.54-.48-3.55-1.45-5.11-4.79a34.2 34.2 0 0 1-.7-4.58A35 35 0 0 1 118 199zm34 16.37c.32.75.75 1.18-.75 1.67a16.15 16.15 0 0 1-7.05.16 4.62 4.62 0 0 1-2.24-1.25c-.19-.45-1.28-3.4-.83-10 .48-7.21 3.77-10.82 4.31-10.93a60.21 60.21 0 0 1 6.41.48c1.08.16 2 0 1.83 1.56a4.94 4.94 0 0 0-1.6 1.72s-1.4 2.15-1.88 7.32a16.6 16.6 0 0 0 1.8 9.28zm2.41 1.41a3.9 3.9 0 0 1 0 1.12c-.32 1.45-1.4 6.25-4.25 6.84s-4.52-1.94-5.65-4.15l-.38-.73c-.41-.88.21-1 .54-1 .65-.05 3.61.38 5.92-.16a9.76 9.76 0 0 0 3.78-1.91zm30.49 5.91a9.07 9.07 0 0 1-2.48 2.15 102.56 102.56 0 0 1-14.84 6.93 137.43 137.43 0 0 1-26.89 6c-2.7.34-17.13.59-19.87.27s-21.43-2.29-24.38-3.18c-2-.6-4.79-.86-5.76-4.09s-.32-13.24.11-14.38a1 1 0 0 1 1.35-.7 64.35 64.35 0 0 0 8 3.45c4.36 1.56 13.94 3.23 13.94 3.23a9.58 9.58 0 0 1 2.26.38c.54.27 2.35 3.18 4.52 4a9.34 9.34 0 0 0 4.58.48 38.8 38.8 0 0 1 5.06.16c1.18 0 2.68.82 5.17.86a85.58 85.58 0 0 0 12.81-1.13c3.23-.7 4.68-2.15 5.55-3.66a20 20 0 0 0 1.83-3.07c.65-1.56.7-4 1.67-4.31a5.11 5.11 0 0 1 1.58.39c2.15.92 5.06 3.34 8.4 3.66s6 .16 7.91-1.35 4.47-4.36 5.17-5a11.53 11.53 0 0 0 1.24-1.46 1 1 0 0 1 1.13-.15c.86.43.65 2.15.86 2.85s.32 1.4.86 3.34.94 3.1.18 4.34zm5.49-18.41c-.92 1-4.9 2.48-5.87 2.8s-6.25 1.24-7.65 2.15-1.45 1.56-1.13 2 .92.65 1.78.05 4.79-2.26 5.33-2.1 1.35.32.43 1.29a31.27 31.27 0 0 1-4.36 2.58c-1.51.59-4.25.59-5 1.35s-1.4 1.88.16 1.62 2.53-1.18 3.23-1.35a16.17 16.17 0 0 1-3 2.75 10.57 10.57 0 0 1-7.65.22c-3.12-1.29-7.7-4-8.72-4a22.38 22.38 0 0 0-4.06-.34h-.24c-.38.11-1.83-3.07-1.83-5.06a15.5 15.5 0 0 1 1.72-6.68c.92-1.4 1.18-2.42 1.72-2.58s.81.27 3.45.11 4.63.22 6.08.11 5.76-1.51 7.91-1.78 6.68-1.18 7.91-.65 2.42 1.18.22 2.15l-7.16 3.08c-.75.32-.48 1.45-.11 1.72s.43 1 2.42.92 5.17-.43 5.17-.43a26.87 26.87 0 0 0 4.36-.59c1.51-.43 3.23-1.45 4.2-1.35s1.57 1 .65 2.02z" fill="#692f23"/><path d="M162.34 115l.07-.14s-2.34 1.64-.07.14zM147.16 79.17a6 6 0 0 0-1.82-3.8c-.52-.57-1.57-1.66-5.94-1.57A16 16 0 0 0 130 77a9.8 9.8 0 0 0-3 3.61 3.43 3.43 0 0 0-.24.85c0 .24.16.57.3.55a16.59 16.59 0 0 1 2.94 1.16c1.78.73 7.31 1 9.57.48s4.48-2 5.09-2 1.29.48 2 .28.5-.98.5-2.76zm-14.86 2.95a13.3 13.3 0 0 1-2.83-1.12s-.65 0-.57-.32a1.48 1.48 0 0 1 .32-.77 6 6 0 0 1 2.11-2.26 2.16 2.16 0 0 0-.26.79 4.19 4.19 0 0 0 1.32 3.7zm6.93-1.31a3 3 0 0 1-2.95 1.45c-1.29 0-2.71-.16-3.37-1.47a3.22 3.22 0 0 1 .34-3.65 3.5 3.5 0 0 1 .94-.68c.32-.07 1.09-.25 1.63-.41l.3-.1a6.48 6.48 0 0 1 1.81-.18 1.73 1.73 0 0 1 1.17.74 4.57 4.57 0 0 1 .13 4.3zm6-.18a5 5 0 0 0-1.7.2c-.65.23-2.75 1.18-3.79 1.46a4 4 0 0 0 1.39-3.17 4 4 0 0 0-1.13-3.46c2.38 0 3.67.65 4.48 1.62s.99 3.34.74 3.34z" fill="#692f23"/><circle cx="136.16" cy="78.89" r="2.16" fill="#692f23"/><circle cx="133.8" cy="77.9" r="1.27" fill="#fff"/><path d="M181.54 78.77a15.17 15.17 0 0 0-.65-1.84 6.08 6.08 0 0 0-2.48-2.67c-1-.52-4.16-.55-5.65-.14a8.25 8.25 0 0 0-3.9 2.12 10.23 10.23 0 0 0-3.39 4.46c-.48 1.6.36 1.29.59 1.21a6.08 6.08 0 0 1 1.23-.26 7.36 7.36 0 0 1 2 .75 9.89 9.89 0 0 0 4 .93 16.77 16.77 0 0 0 4.66-.59 5.73 5.73 0 0 0 2.93-2c.5-.38.77-.61.87-1a1.77 1.77 0 0 0-.21-.97zm-12.07 2.18a11.19 11.19 0 0 0-1.17-.28c-.44-.08-1 .16-1.11-.22a1.15 1.15 0 0 1 .14-.75 6.22 6.22 0 0 1 1.57-2.44l.11-.1a4.34 4.34 0 0 0-.31 1.92 3.23 3.23 0 0 0 .85 1.9zm.87-.81c-.71-1.15-.88-3.56 1.25-4.36.49-.18.9-.31 1.24-.4h1.02a2.77 2.77 0 0 1 2.14 2 4 4 0 0 1-1.13 3.84 3.58 3.58 0 0 1-2.33.51h-.07l-.61-.18a4.15 4.15 0 0 1-1.51-1.41zm5.14 2.07a3.56 3.56 0 0 0 1.81-2.61 4 4 0 0 0-.58-3.51 4.38 4.38 0 0 1 2.09 1.29 8.14 8.14 0 0 1 1 2.48 6.52 6.52 0 0 1-4.32 2.35z" fill="#692f23"/><circle cx="172.96" cy="78.45" r="1.93" fill="#692f23"/><circle cx="171.04" cy="77.57" r="1.17" fill="#fff7f5"/><circle cx="115.68" cy="123.2" r=".67" fill="#692f23"/><circle cx="120.01" cy="125.83" r=".67" fill="#692f23"/><circle cx="125.7" cy="125.3" r=".67" fill="#692f23"/><circle cx="130.1" cy="127.73" r=".67" transform="rotate(-18.73 130.101 127.713)" fill="#692f23"/><circle cx="134.95" cy="126.11" r=".67" transform="rotate(-18.73 134.943 126.114)" fill="#692f23"/><circle cx="139.55" cy="128.05" r=".67" transform="rotate(-18.73 139.543 128.056)" fill="#692f23"/><circle cx="144.03" cy="125.47" r=".67" transform="rotate(-18.73 144.02 125.462)" fill="#692f23"/><circle cx="148.15" cy="127" r=".67" transform="rotate(-18.73 148.159 126.985)" fill="#692f23"/><circle cx="151.66" cy="123.57" r=".67" transform="rotate(-18.73 151.649 123.575)" fill="#692f23"/><path d="M242.2 163.91c-5.91-2.84-12.3-4.34-18.66-5.74l-10.18-2.23c-3.31-.72-6.62-1.62-10-2.2-1.34-.23-1.93.6-2.83 1.48l-3.93 3.85c-2.34 2.31-5.08 4.74-7.32 7.15-4.35 4.69-7.94 7.66-11.66 12.4-2.25 2.87-4.69 5.39-6.82 8a117 117 0 0 0-7.79 10.54c-.27.44 1.31.54 1.86-.12 4.1-4.89 7.59-10 11.89-15.11 3.67-4.4 7.91-8.12 11.78-12.36 2.09-2.3 4.15-4.09 6.32-6.32s4.59-4.77 7-6.91c.36-.32.56-.57 1.06-.6a4.46 4.46 0 0 1 1.13.22l2.45.54 5.12 1.14 9.79 2.2c6.28 1.41 12.61 2.81 18.52 5.38A220.62 220.62 0 0 0 219.85 182c-6.7 6.43-13 13.29-19.18 20.18a76.946 76.946 0 0 0-4.48 5.41c-.56.75-1 .59-1.79.29a38.75 38.75 0 0 1-4.76-2.11c-1.18-.74-2.14 1-1.27 1.54a25 25 0 0 0 6.16 3c.76.24 1.54.46 2.19-.13a22.57 22.57 0 0 0 1.85-2.59c3-3.73 6.44-7.22 9.69-10.75a234.56 234.56 0 0 1 20.81-20.39c4.33-3.66 8.84-7.09 13.36-10.51a1.38 1.38 0 0 0-.23-2.03z" fill="#692f23"/><path d="M177.78 179.21L172.61 153s-.25-1 .43-1.16.93 1.88 1.1 2.36c.62 1.79 5.33 23.4 5.33 23.4zM199 206.44s1.25 5 1.12 5.83c-.28 1.79-2.2 3.61-3.82 4.63a64.48 64.48 0 0 1-8.85 4l-1.22 3.69 11.29-5.47a11 11 0 0 0 4.49-5c.74-2.17-.7-6.59-.7-6.59l-.93-3.25z" fill="#692f23"/><path d="M220.86 167.66s-22.67 23.13-24.29 25.11-.41 3 1.16 2.09 25.11-26 25.11-26a1 1 0 0 0-.17-1.49c-.44-.37-.67-.6-1.81.29zM212 166.89S189.36 190 187.74 192s-.41 3 1.16 2.09 25.11-26 25.11-26a1 1 0 0 0-.17-1.49c-.44-.35-.7-.6-1.84.29z" fill="#c7c0b1"/></g></g></svg>