<svg xmlns="http://www.w3.org/2000/svg" width="100" height="100" viewBox="0 0 100 100"><title>глажка-в-подарок</title><g id="Слой_2" data-name="Слой 2"><g id="Слой_1-2" data-name="Слой 1"><rect width="100" height="100" fill="none"/><path d="M23.55,28.59v0h0c-.18-.35-1.85-3.46-6.63-5.33-5.08-2-7.71-2-7.71-2a39.46,39.46,0,0,0-.88,7.37h0v0h0a37.19,37.19,0,0,0,.88,7.15s2.63,0,7.71-2C21.69,32,23.36,29,23.54,28.61h0Z" fill="#fd8204" stroke="#692f17" stroke-miterlimit="10"/><path d="M26.88,28.59v0h0c.18-.35,1.85-3.46,6.63-5.33,5.08-2,7.71-2,7.71-2a39.4,39.4,0,0,1,.88,7.37h0v0h0a37.14,37.14,0,0,1-.88,7.15s-2.63,0-7.71-2C28.74,32,27.07,29,26.89,28.61h0Z" fill="#fd8204" stroke="#692f17" stroke-miterlimit="10"/><rect x="3.56" y="58.53" width="41.35" height="9.84" rx="1.66" ry="1.66" fill="#f5f4f0" stroke="#692f17" stroke-linecap="round" stroke-linejoin="round"/><path d="M44.52,57A1.53,1.53,0,0,1,43,58.53H6.27A1.53,1.53,0,0,1,4.73,57h0a1.53,1.53,0,0,1,1.53-1.53H43A1.53,1.53,0,0,1,44.52,57Z" fill="#dbc19f" stroke="#692f17" stroke-linecap="round" stroke-linejoin="round"/><rect x="4.73" y="46.48" width="40.96" height="8.99" rx="1.66" ry="1.66" fill="#f5f4f0" stroke="#692f17" stroke-linecap="round" stroke-linejoin="round"/><rect x="3.56" y="40.05" width="43.03" height="6.42" rx="1.66" ry="1.66" fill="#d9d6cc" stroke="#692f17" stroke-linecap="round" stroke-linejoin="round"/><path d="M44.94,38.72a1.52,1.52,0,0,1-1.66,1.33H6.39a1.52,1.52,0,0,1-1.66-1.33V32.79a1.52,1.52,0,0,1,1.66-1.33H43.28a1.52,1.52,0,0,1,1.66,1.33Z" fill="#dbc19f" stroke="#692f17" stroke-linecap="round" stroke-linejoin="round"/><line x1="5.21" y1="34.88" x2="44.52" y2="34.88" fill="none" stroke="#692f17" stroke-linecap="round" stroke-linejoin="round" stroke-width="0.8"/><line x1="14.77" y1="37.22" x2="44.52" y2="37.22" fill="none" stroke="#692f17" stroke-linecap="round" stroke-linejoin="round" stroke-width="0.8"/><line x1="3.56" y1="43.26" x2="36.71" y2="43.26" fill="none" stroke="#692f17" stroke-linecap="round" stroke-linejoin="round" stroke-width="0.8"/><line x1="44.94" y1="52.63" x2="9.99" y2="52.63" fill="none" stroke="#692f17" stroke-linecap="round" stroke-linejoin="round" stroke-width="0.8"/><line x1="44.52" y1="63.45" x2="3.91" y2="63.45" fill="none" stroke="#692f17" stroke-linecap="round" stroke-linejoin="round" stroke-width="0.8"/><path d="M18.9,69.13a7.41,7.41,0,0,1-1-.07C20,65.64,23,61.2,26.06,58.4a7.64,7.64,0,0,1,.6,3A7.76,7.76,0,0,1,18.9,69.13Z" fill="#f7e8d2"/><path d="M25.94,58.9a7.33,7.33,0,0,1,.43,2.47,7.47,7.47,0,0,1-7.46,7.46l-.5,0a52.8,52.8,0,0,1,7.54-9.91m.22-1C23,60.73,19.77,65.4,17.43,69.28a8,8,0,0,0,8.73-11.37Z" fill="#692f17"/><path d="M21.82,32.26a1.55,1.55,0,0,1,1.42-1.66h3.95a1.55,1.55,0,0,1,1.42,1.66V69.49a1.55,1.55,0,0,1-1.42,1.66H23.24a1.55,1.55,0,0,1-1.42-1.66Z" fill="#fd8204" stroke="#692f17" stroke-linecap="round" stroke-linejoin="round" stroke-width="1.17"/><path d="M79.41,65.34,76.1,47.57s-24.92-.11-33.53,2.06a37.78,37.78,0,0,0-16.3,8.18c-6.26,5.42-12.48,18-12.48,18H74.71a10.49,10.49,0,0,1,4.7-10.51Zm-28.76-.63c-7,.69-13.75,1-14.24-2S41.13,56.2,48,55.1,62.45,56,62.94,59,61.77,63.62,50.65,64.71Z" fill="#fd8204" stroke="#692f17" stroke-linecap="round" stroke-linejoin="round"/><path d="M73.35,48h2.42L79,65.15a11,11,0,0,0-2.25,2.06Z" fill="#f5f4f0"/><path d="M75.44,48.37,78.53,65A11.38,11.38,0,0,0,77,66.33l-3.15-18h1.62m0-.8h-2.6l3.61,20.6a10.71,10.71,0,0,1,2.93-2.84L76.1,47.57Z" fill="#692f17"/><path d="M65.39,58.66c-.69-4.39-7.22-6.35-13.37-6.35a28,28,0,0,0-4.36.34C40.22,53.82,33.12,57.78,34,63.06c.73,4.61,6.91,4.61,9.24,4.61s5.28-.24,7.7-.48c8.32-.82,11.86-1.89,13.56-4.08A5.65,5.65,0,0,0,65.39,58.66ZM50.65,64.71c-7,.69-13.75,1-14.24-2S41.13,56.2,48,55.1,62.45,56,62.94,59,61.77,63.62,50.65,64.71Z" fill="#f5f4f0" stroke="#692f17" stroke-linecap="round" stroke-linejoin="round" stroke-width="0.8"/><path d="M50.65,64.71a60.58,60.58,0,0,0,7.67-1.13l-.08-.9a1.66,1.66,0,0,0-1.79-1.51l-12.9,1.1A1.66,1.66,0,0,0,42,64.07l.09,1.1A68.53,68.53,0,0,0,50.65,64.71Z" fill="#d9d6cc" stroke="#692f17" stroke-linecap="round" stroke-linejoin="round" stroke-width="0.8"/><path d="M75.81,77.15a1.25,1.25,0,0,1-1.25,1.25H13.28A1.25,1.25,0,0,1,12,77.15h0a1.25,1.25,0,0,1,1.25-1.25H74.56a1.25,1.25,0,0,1,1.25,1.25Z" fill="#d9d6cc" stroke="#692f17" stroke-linecap="round" stroke-linejoin="round" stroke-width="0.8"/><path d="M69.66,44.4a3.22,3.22,0,0,0-3.22,3.22s0,0,0,.06c2.51-.06,4.74-.08,6.43-.1A3.22,3.22,0,0,0,69.66,44.4Z" fill="#d9d6cc" stroke="#692f17" stroke-linecap="round" stroke-linejoin="round" stroke-width="0.8"/><path d="M78,55.15c-.62.11-.77-.47-.88-1.08l-.59-3.27c-.11-.62-.21-1.19.4-1.3l3.78-.23a1.13,1.13,0,0,1,1.32.91l.45,2.51A1.13,1.13,0,0,1,81.59,54Z" fill="#d9d6cc" stroke="#692f17" stroke-linecap="round" stroke-linejoin="round" stroke-width="0.8"/><path d="M82.52,51s7.28-1.17,8.79,4.18c2.23,7.94-10.25,10.62-8.79,18.05,1.76,8.92,13.92,4.47,13.92,4.47" fill="none" stroke="#692f17" stroke-linecap="round" stroke-linejoin="round"/><line x1="28.25" y1="28.65" x2="34.49" y2="27.24" fill="none" stroke="#692f17" stroke-linecap="round" stroke-miterlimit="10" stroke-width="0.8"/><line x1="22.23" y1="28.65" x2="15.94" y2="27.24" fill="none" stroke="#692f17" stroke-linecap="round" stroke-miterlimit="10" stroke-width="0.8"/><path d="M22.67,25.28h5.14a.8.8,0,0,1,.8.8v5.14a.8.8,0,0,1-.8.8H22.67a.79.79,0,0,1-.79-.79V26.07A.79.79,0,0,1,22.67,25.28Z" fill="#fd8204" stroke="#692f17" stroke-miterlimit="10"/><path d="M50,50" fill="#dfdbd1" stroke="#5d3329" stroke-linecap="round" stroke-linejoin="round" stroke-width="1.17"/></g></g></svg>