<svg xmlns="http://www.w3.org/2000/svg" width="300" height="250" viewBox="0 0 300 250"><title>опаздание</title><g data-name="Слой 2"><g data-name="за опаздание"><path fill="none" d="M0 0h300v250H0z"/><path d="M124.69 37.77A33.89 33.89 0 0 0 107.63 34c-9.45.57-16.85 5-22 8S78 49.64 75.08 54s-6.18 14.15-6.26 18.84a59.35 59.35 0 0 0 2.91 16.85c1.49 4.05 4.55 9.67 8 13.08s12.41 9.23 15.68 10.42 14.08 2.56 14.08 2.56a32.25 32.25 0 0 0 4.48-.28c.07-.21 3.2-5.9 3-5.9s5.47-12.16 6.26-13.36 4.76-6.26 6.54-7.11 4.73-2.1 4.73-2.1a21.32 21.32 0 0 1-3.5-3c-1-1.27-5-11.15-5.59-14.71s-1.64-8.39-1.42-9.74.85-9.74.92-10a20 20 0 0 1-1.14-3.34c-.21-1.62.92-8.44.92-8.44z" fill="#e7c3a0"/><path d="M123.77 42.81a38.62 38.62 0 0 0-10.95-2.91 38.59 38.59 0 0 0-18.77 3.7 42.4 42.4 0 0 0-13.71 11.58C78 58.52 74.72 67 74.58 72.6a36.2 36.2 0 0 0 2.56 14.86c1.92 5.12 4.34 8.67 9.24 13.29s11.8 7.82 14.22 8.39 12.58.92 12.58.92l3.77-.5s4.19-9.38 5.62-12.08 4.83-7 7-8.18 4.69-2.42 4.69-2.42 13.34-6.06 12.27-7.88-21.34-10.07-22-13.26-.14-13.22.07-14.72a4.08 4.08 0 0 0-.21-2.2 16 16 0 0 1-.62-6.01z" fill="#f4e8db"/><path d="M107.28 73.31L95.9 55.54l-1.56 3.06-1.56.57-.28-3.48.78-6 1.92.07 6 2.49-.2 1.58s-1.71.28-2.06.28-1.71-.5-1.64-.28 12.4 18.63 12.4 18.63 2.27.28 2.56 1.78a4.2 4.2 0 0 1-.92 3.48c-.5.36-2.77 0-2.77 0L97 85.54s2.2.57 2.42.71 1.35.71 1.35 1.21-.96 1.54-.96 1.54l-2.06-.28-6-.92s-1-.78-.14-2.35 1.78-4.55 2.13-5.12a1.67 1.67 0 0 1 1.71-.64c.28.21.14 2.84.14 2.84l2.13-.43 9.53-6.61z" fill="#fd8204"/><path d="M102.52 49.78c0-.21-.21-2.2-.21-2.2l2.63-1.64 1.78.21.21 11.23-.43.85-2.14-.23-.36-8.6s-.71.36-.92.43a1.07 1.07 0 0 1-.56-.05zM110.19 49l1.28.36a4 4 0 0 1 1.21-.85c.5-.14 1.42.14 1.42.43a4.81 4.81 0 0 1-.43 1.14l-4.05 5.69-.14 1.71 1.14.64h6.18l.07-2.35-3.77-.14a17.77 17.77 0 0 1 1.29-1.63c.21-.14 2.7-3.84 2.7-4.62s-.78-3-2.42-3.2-3.2-.14-4 .57a3.52 3.52 0 0 0-1 1.42z" fill="#d2a274"/><path d="M89.79 62.58s.71-3-.78-3.63-3.27.07-3.48.78a6.68 6.68 0 0 0-.07 2.63c.14.21.64 1.49 1.56 1.42s2.77-.71 2.77-1.2zM89.86 90.44s.71-3-.78-3.63-3.27.07-3.48.78a6.68 6.68 0 0 0-.07 2.63c.14.21.64 1.49 1.56 1.42s2.77-.7 2.77-1.2zM97.68 98s.71-3-.78-3.63-3.27.07-3.48.78a6.68 6.68 0 0 0-.07 2.63c.14.21.64 1.49 1.56 1.42s2.77-.65 2.77-1.2z" fill="#e7c3a0"/><path d="M88.31 76.42c.06-.78.43-6.16-.36-7.09a5.13 5.13 0 0 0-5.47-.78 4.26 4.26 0 0 0-2.2 4c0 .92.5 3.27 2.2 3.2s3-.28 3.13.07a5.56 5.56 0 0 1-.07 1.63 2.39 2.39 0 0 1-2.54-.16 2.19 2.19 0 0 0-1.74-.29 5.77 5.77 0 0 0-.92.78s.85 1.78 2.13 2.13a6.84 6.84 0 0 0 3.34.14c.43-.21 1.42-.43 1.64-.85a6.59 6.59 0 0 0 .92-2.42c-.04-.33-.06-.38-.06-.36zm-3.06-3.18a3.29 3.29 0 0 1-1.14.43c-.57.07-.85-.78-1-1.14a7.21 7.21 0 0 1 .36-2.06s1.92-.28 2.27.21-.5 2.56-.5 2.56zM106 96.55c-.06.78-.43 6.16.36 7.09a5.13 5.13 0 0 0 5.47.78 4.26 4.26 0 0 0 2.2-4c0-.92-.5-3.27-2.2-3.2s-3 .28-3.13-.07a5.56 5.56 0 0 1 .07-1.63 2.39 2.39 0 0 1 2.49.14A2.19 2.19 0 0 0 113 96a5.77 5.77 0 0 0 .92-.78s-.85-1.78-2.13-2.13a6.84 6.84 0 0 0-3.34-.14c-.43.21-1.42.43-1.64.85a6.59 6.59 0 0 0-.92 2.42c.11.29.11.35.11.33zm3.06 3.18a3.29 3.29 0 0 1 1.14-.43c.57-.07.85.78 1 1.14a7.21 7.21 0 0 1-.36 2.06s-1.92.28-2.27-.21.49-2.57.49-2.57z" fill="#d2a274"/><path d="M123.75 43.77a32.72 32.72 0 0 0-12.69-3.36c-7.52-.48-12.64 1.87-19.19 5.12S81.63 54.86 79.45 58.7a33.18 33.18 0 0 0-4.21 15.14 38.27 38.27 0 0 0 4.21 17.33 35.32 35.32 0 0 0 12.47 13.33 32.78 32.78 0 0 0 14.34 4.91 31.66 31.66 0 0 0 10.56-.59l-.64 1.87a52.94 52.94 0 0 1-12.8-.21c-5.76-1-15.73-6.24-19.67-10.88a39.93 39.93 0 0 1-9.06-17.27 35.1 35.1 0 0 1 1.65-21.17A35.61 35.61 0 0 1 90.27 45c5.12-3 11.46-5.76 17.91-5.86s13.06 1.44 15.62 3z" fill="#692f23"/><path d="M124.34 38.28s-6.67-2.88-12.48-3.28-9.33-.11-19 3.84a34.94 34.94 0 0 0-14.75 11.49 76.06 76.06 0 0 0-7.41 15.41c-2 6.5-.64 15.57.75 20.1s4.85 12.58 10.45 17.81a44.49 44.49 0 0 0 14.56 9.12c4.11 1.71 11.52 2.4 13.7 2.4a30.59 30.59 0 0 0 4.21-.32l-.53 1.65a44 44 0 0 1-11-.64 45.61 45.61 0 0 1-19.46-9.12c-7.2-5.6-11.14-12.64-13.65-20.69A39.06 39.06 0 0 1 69 67.34a40.45 40.45 0 0 1 8.58-18.66A40 40 0 0 1 93.26 37a38.71 38.71 0 0 1 18.13-3.52c8.74.48 13.33 3.36 13.33 3.36z" fill="#692f23"/><circle cx="110" cy="75.23" r="2.61" fill="none" stroke="#692f23" stroke-miterlimit="10"/><circle cx="87.66" cy="89.04" r="2.61" fill="none" stroke="#692f23" stroke-miterlimit="10"/><circle cx="87.71" cy="61.26" r="2.61" fill="none" stroke="#692f23" stroke-miterlimit="10"/><circle cx="95.6" cy="96.72" r="2.61" fill="none" stroke="#692f23" stroke-miterlimit="10"/><path d="M108.18 69.47l-8.9-14s-1-1.12.53-1 2.13-.37 2.29-1 .21-1.39-1.71-2.13-6.13-2.45-6.82-2.4-.91.48-1.07 1.65-.69 7.25-.69 7.25 0 1.6 1.07 1.81a2 2 0 0 0 2.19-1.07c.21-.59.32-1.65.64-1.76s.64.05 1 .8S107.33 74 107.33 74l.59-.75L94.8 53.32l-.69 4.59s-.59 1.65-1.17 0l.48-6.91a.91.91 0 0 1 .27-.64c.27-.21.91.05.91.05l5.92 2.08s.59.48.37.91-1 .37-1 .37l-4.05-1.23 13.28 20 1.12-.16zM107 75.39l-10 6.45s-1.17.53-1-.91-.27-1.81-1-2.08-1.23.32-1.71 1.07a52.85 52.85 0 0 0-2.67 6.56c-.16.8-.32 1.76 1.12 1.87s7.25.85 7.78.91a1.55 1.55 0 0 0 1.48-1.34c.16-.85-.48-1.71-1.65-2.13s-1.62-.64-.27-1.49 10-6.18 10-6.18l-1.07-.53-13.15 8.52s4 .69 4.69.75.64.48.59.75-.43.8-1.44.69-6.24-.8-6.24-.8-1 0-.53-1.33S94 80.51 94 80.51s1.17-1.33 1.28.05-1.12 4.32-1.12 4.32l13.28-8.48z" fill="#692f23"/><path d="M107.38 46.49c-.05-.56-.69-.75-.69-.75h-1.55a2.57 2.57 0 0 0-1.23.45l-1.71 1.07a1.93 1.93 0 0 0-.45.57s0 1.17.05 2.05a.83.83 0 0 0 1 .75l1-.53s-.13 6.69 0 7.54.75.88.75.88h2.21c.59 0 .67-.64.67-.64s.01-10.83-.05-11.39zm-2.67 11.12v-8.05a.63.63 0 0 0-.8-.61 8.63 8.63 0 0 0-1.12.67V48l.83-.53.48-.26.85-.56h1.49v11zM117.35 55.74a.84.84 0 0 0-.69-.53h-3s3-3.17 3.39-4.8.37-3.2-1.36-4.32-4.35-.4-4.88-.08a11 11 0 0 0-1.55 1.44.85.85 0 0 0 0 1.09 16.41 16.41 0 0 0 1.23 1.12l.32.24a1.18 1.18 0 0 0 1.2-.64 1.6 1.6 0 0 1 1-.53.69.69 0 0 1 .59 1c-.27.53-4.21 5.36-4.4 5.65a1.63 1.63 0 0 0-.35 1c0 .45.11 1.47.11 1.47s.11.4.85.53 6.82.05 6.82.05.51-.05.64-.8a9.24 9.24 0 0 0 .08-1.89zm-7.44 1.92v-1.57s4.45-5.44 4.67-5.92a1.68 1.68 0 0 0-.61-2.08c-.91-.64-2 .13-2.16.27a.12.12 0 0 0 0 .09l-.6.47a9 9 0 0 1-1-.88 3.59 3.59 0 0 1 2.4-1.55c1.49-.13 2.85.13 3.6 1.36a2.79 2.79 0 0 1-.13 2.91c-.27.4-3.23 4.16-3.23 4.16s-.77.93.24 1.25l3.47.11v1.33zM85 70.06a1.9 1.9 0 0 0-2.3.94v2a1.69 1.69 0 0 0 1.15 1 1.89 1.89 0 0 0 2.05-.77 7.4 7.4 0 0 0 .16-2.23 1.62 1.62 0 0 0-1.06-.94zm.11 2.61c-.27.75-.85.59-.85.59a1 1 0 0 1-.61-.37v-1.5a.71.71 0 0 1 .75-.51.85.85 0 0 1 .75.48z" fill="#692f23"/><path d="M88.8 70.59a3.25 3.25 0 0 0-2.16-2.67 4.14 4.14 0 0 0-1.41-.29h-1.6a3.85 3.85 0 0 0-2.45 1.23A4.3 4.3 0 0 0 80 72a4.55 4.55 0 0 0 1.15 3.31 5.66 5.66 0 0 0 3.52 1.23c.53.05.56-.16.56-.16s.19.85-.51 1a1.28 1.28 0 0 1-1.63-.75.92.92 0 0 0-1-.24 14.23 14.23 0 0 0-1.63.77.83.83 0 0 0-.24 1 4 4 0 0 0 2.59 2.37 6.43 6.43 0 0 0 3.52-.13 3.51 3.51 0 0 0 2.24-2.08c.29-1.32.23-7.73.23-7.73zm-2.64 8.85a4.73 4.73 0 0 1-4.08-.19A3.84 3.84 0 0 1 81 78l1.36-.67a2.63 2.63 0 0 0 2 1.12 1.77 1.77 0 0 0 1.71-1.36c0-.24-.08-1.49-.08-1.49a.83.83 0 0 0-.77-.27 3.27 3.27 0 0 1-2.59 0 2.9 2.9 0 0 1-1.71-2.59 3.82 3.82 0 0 1 .69-2.93 5 5 0 0 1 1.84-1.12h.16a.82.82 0 0 1 .27 0h.67s2 .05 2.72 1.09a2.55 2.55 0 0 1 .56 1.81v5.49a2.77 2.77 0 0 1-1.66 2.36zM109.38 103a1.9 1.9 0 0 0 2.35-.91V100a1.69 1.69 0 0 0-1.15-1 1.89 1.89 0 0 0-2.05.77 7.4 7.4 0 0 0-.16 2.27 1.62 1.62 0 0 0 1.01.96zm-.11-2.61c.27-.75.85-.59.85-.59a1 1 0 0 1 .61.37v1.49a.71.71 0 0 1-.75.51.85.85 0 0 1-.75-.48z" fill="#692f23"/><path d="M105.62 102.45a3.25 3.25 0 0 0 2.16 2.67 4.14 4.14 0 0 0 1.41.29h1.6a3.85 3.85 0 0 0 2.45-1.23 4.3 4.3 0 0 0 1.2-3.12 4.55 4.55 0 0 0-1.15-3.31 3.92 3.92 0 0 0-3.52-1.23c-.53.07-.56.16-.56.16s-.19-.85.51-1a1.28 1.28 0 0 1 1.63.75.92.92 0 0 0 1 .24 14.23 14.23 0 0 0 1.63-.77.83.83 0 0 0 .24-1 4 4 0 0 0-2.59-2.37 6.43 6.43 0 0 0-3.52.13 3.51 3.51 0 0 0-2.24 2.08c-.31 1.26-.25 7.71-.25 7.71zm2.64-8.85a4.73 4.73 0 0 1 4.08.19 3.84 3.84 0 0 1 1 1.28l-1.36.67a2.63 2.63 0 0 0-2-1.12 1.77 1.77 0 0 0-1.64 1.38c0 .24.08 1.49.08 1.49a.83.83 0 0 0 .77.27 3.27 3.27 0 0 1 2.59 0 2.9 2.9 0 0 1 1.71 2.59 3.82 3.82 0 0 1-.69 2.93 5 5 0 0 1-1.84 1.12h-.16a.82.82 0 0 1-.27 0h-.67s-2-.05-2.72-1.09a2.55 2.55 0 0 1-.56-1.81v-5.49a2.77 2.77 0 0 1 1.68-2.41z" fill="#692f23"/><path d="M115.77 176.74a1.54 1.54 0 0 1-.15-1.73 13.3 13.3 0 0 1 3.27-3.81 10 10 0 0 1 4.88.81c1.35.73.19 2.54 0 3.65s-.69 4.19-1.23 4-6.77-2.92-6.77-2.92z" fill="#fd8204"/><path d="M110.3 180.82c.08-.15 1.69-3.46 4.38-3.61a8.59 8.59 0 0 1 5.23 1.12c.92.58 1.38.58 1.23 1.54s-1.08 1.58 0 2.27a26.4 26.4 0 0 1 3.19 2c.58.62 1.38 1.85 1 2.27s.08 1.27-2 1.5a87.2 87.2 0 0 1-12.31-.5c-1-.31-1.08-.92-1.12-1.23s.4-5.36.4-5.36z" fill="#e2ddd3"/><path d="M110 188.17a5.37 5.37 0 0 0 1.62 1.92 4.19 4.19 0 0 1 1.77 3c0 .92.42 9.46.42 9.46s11.81-1.38 11.81-1.58-.15-13.42-.08-13.65-.73 0-1.81.12-9.34.88-12.08 0-1.65.73-1.65.73z" fill="#d2a274"/><path d="M102.61 188s-.15 1.23 2 1.35 5-.31 5.15-1a4 4 0 0 0-.46-2.27 23.42 23.42 0 0 0-5.27-.42 3 3 0 0 0-1.42 2.34z" fill="#f5e0c7"/><path d="M100.77 193.55s-1.35-1.5-.35-2.73a3.46 3.46 0 0 1 3.11-1.65c1.42 0 6.15.19 6.42.19a2.56 2.56 0 0 1 2.19 1.23 13.25 13.25 0 0 1 1.66 5.41v6.54l-8.8 1.32-2.27-1.42s0-2.27-.08-2.73-1.07-5.12-1.88-6.16z" fill="#e2ddd3"/><path d="M102.54 196.51a15.36 15.36 0 0 0 5.19.38c2.81-.35 3-.35 3-.35s.38.08.42 2.35 0 4.08 0 4.08l-6.5.92a10.86 10.86 0 0 1-2-1.31c.04-.22-.11-6.07-.11-6.07z" fill="#fff"/><path d="M84.46 187a1.89 1.89 0 0 1-1.38-1.73 15.35 15.35 0 0 1 .62-4.85 6.21 6.21 0 0 1 2.88-.58c1.38 0 2.73.35 2.73.81s.23 1.77.23 2.35.12 2.77.12 3 .27.69-.23.81-4.97.19-4.97.19z" fill="#e2ddd3"/><path d="M82.42 188.7s-2.85.65-3.19 1.27-.65 1.08-.35 1.38 1.73 1.42 4.88 1.5a40 40 0 0 0 7.61-.42c1.54-.31 2.54-.5 2.54-1.19s-1-1.15-1.77-1.62-1.69-.85-1.69-.85.62-1.08 0-1.35a10.89 10.89 0 0 0-3.15-.19c-.62 0-4.31-.23-4.61 0s-.84.67-.27 1.47z" fill="#f7f5f2"/><path d="M77.27 191.24c-.09.15-1.69.88-1.77 2.35a9.76 9.76 0 0 0 .92 3.81 25.44 25.44 0 0 1 .35 3.31c.08.46-.12 1.85.46 2.15a14.73 14.73 0 0 0 4 .81h1.23a26.58 26.58 0 0 0 2.85.58 32 32 0 0 0 5.15-.81 19.71 19.71 0 0 1 4.88-.23c.88.15 1-.15 1.27-1.08s1.15-4.35 1.31-5-.73-5.38-2.27-5.65a4.25 4.25 0 0 0-2.77.31A15.21 15.21 0 0 1 85 193c-4.27-.42-5.77-.88-6.11-1.46s-.23-1.27-.35-1.23a2.14 2.14 0 0 0-1.27.93z" fill="#efb000"/><path d="M91.73 188.74s1.42-1.27 1.46-1.38-.88-1.23-.85-1.65a22.58 22.58 0 0 1 .54-3.35c.15-.08 2.46.08 2.65 0a19.11 19.11 0 0 1 2.58 0c.23 0 .65.19.73 1.35s.42 3.15-1.23 3.35.81 2 1.12 2.69 2 4.92 2.42 5.5a20.36 20.36 0 0 1 1.65 5.54c0 1.08-.42 1.54-.73 1.5s-3.85.58-4 .54-1.58 0-1.58-.19 1.08-4.27 1.27-5.61a9.86 9.86 0 0 0-.88-4.38c-.31-.42-3.61-2.31-4-2.61s-1.3-.91-1.15-1.3z" fill="#fd8204"/><path d="M93.27 181.17a3.07 3.07 0 0 0-1.38-2.31c-1.35-.88-1.54-.77-1.42-2.08s1.65-1.88 3-2.46 8.61-3 8.61-3 2.58-1.15 3.42-1a2 2 0 0 1 1.77 2.19c0 1.42-1.65 2.31-2.15 2.42s-3.58 1.38-3.58 1.38a5.83 5.83 0 0 0 .08 2.85c.46 1.08 1.12 2.42 2.23 2.81s2.54.73 2.27 1.23a2.15 2.15 0 0 1-2.35 1.35c-1.42-.27-4.42-2.81-5-3.46a11.65 11.65 0 0 0-1-1.08 3.93 3.93 0 0 0 .31 2.31c.54.69-4.88-.23-4.88-.23z" fill="#efb000"/><path d="M75.77 198.55l-13 1.81a5.41 5.41 0 0 0-.46 1.31c0 .35.15 1.58.15 1.58a2.92 2.92 0 0 0 1.73 1.35c1 .15 1.85.31 1.85.31l.16 5.09s1.19 9.34 1.42 11.92 0 5.73 1.12 7 17.5 4.58 22.3 5 5.69.58 5.81.08-7-19.27-9.58-20.65-10.11-10.61-10.15-10.77-1.35-4.03-1.35-4.03z" fill="#e16702"/><path d="M104.69 203.89c-.21-.18 19.69-2.54 19.69-2.54l2.31-.5s-.92-.69-.92-.81.58-.54.85-.42 7 .92 7.42 1.31a2.13 2.13 0 0 1 0 2.42c-.58.65-2.65.81-2.69 1s-2.61 21.42-3.15 22.84-2 2.31-5 2.77-18.11 2.38-18.5 2.38-.5.23-1.19-1.35-1.73-6.31-1.46-8.38c0 0 .15-.58 1.19.15s3.11 2 3.88.92 1.19-1.19.88-2.77-1.88-4.19-2.42-5.23a17.28 17.28 0 0 1-.69-6.85c.26-2.05.49-4.36-.2-4.94z" fill="#fd8204"/><path d="M84.89 204.24a25.73 25.73 0 0 0-4-.62c-1.73 0-4-.81-5.42-.65a5.47 5.47 0 0 0-4.47 2.42c-1.15 1.85-3.77 5.19-4.46 6s-2.27 2-2.46 3.88-.08 2.73 1.58 2.47 2.73-.35 3.65-1.65 4.35-6.54 5.11-6.15 1.46 1.46.92 3.61-1.38 4.77-2.54 6-4.61 4.11-4.69 5.08 0 2.46 1.69 2.12 4.92-1.92 5.88-3.08.65 1 .54 1.62-2.46 3-3.19 4.15-1.81 2.23-1.58 3 .81 1.31 2.46.69 2.46-1 3-1.81-.31 3.65.62 4.54.69 1.38 1.65.69a5.91 5.91 0 0 0 2-2c.46-.85.85-2.27 1-1.62s0 1.5 1 1.15 1.38-.42 1.65-.92 1.58-5.08 1.92-5.88 1.27-3.31 1.81-3.38.77 1.12.62 3.08-.85 6.69-.54 7.73 1.27 1.92 2 1.88 1.23.15 1.69-1.15a29.29 29.29 0 0 0 .88-3.73c.31-1.38.27-3 .46-3s1.08 5.69 3 7 2.54 1.12 2.92.46-.42-2.54-.42-3.35.81.73 2.08 1 1.46.35 1.85-.73a3.44 3.44 0 0 0 .23-2.58c-.27-1.31-2-6.46-1.5-7.84s.73-.73.73-.73 1.65 2.54 3.5 2 2.27-1 2.08-2.19-1.88-3.31-2.12-5.08-1.23-4-1-8.27-1.12-5.58-2.61-5.81-5.42.62-6.65.73-10.3.88-10.87.92z" fill="#f5e0c7"/><path d="M107.15 211.55s1.19-1 1.58-.5 0 5.08 0 5.08.62 1.69 0 2-1.27.23-1.42-.23-.16-6.35-.16-6.35z" fill="#e16702"/><path d="M106.69 211.24c-.12 0-1.35.31-1.42.62s.23 3.11.27 3.61a12.44 12.44 0 0 0 1.27 2.42s.19-1.81.27-2.19.26-4.5-.39-4.46z" fill="#d2a274"/><path d="M113.38 210.66s1.19-1 1.58-.5 0 5.08 0 5.08.62 1.69 0 2-1.27.23-1.42-.23-.16-6.35-.16-6.35z" fill="#e16702"/><path d="M113.23 210.32c-.12 0-1.5.31-1.58.62s.08 6.15.12 6.65 1.77-.23 1.77-.23-.08-2 0-2.42.34-4.66-.31-4.62z" fill="#d2a274"/><path d="M119.57 209.85s1.19-1 1.58-.5 0 5.08 0 5.08.62 1.69 0 2-1.27.23-1.42-.23-.16-6.35-.16-6.35z" fill="#e16702"/><path d="M119.42 209.51c-.12 0-1.5.31-1.58.62s.08 6.15.12 6.65 1.77-.23 1.77-.23-.08-2 0-2.42.34-4.66-.31-4.62z" fill="#d2a274"/><path d="M125.38 209.2s1.19-1 1.58-.5 0 5.08 0 5.08.62 1.69 0 2-1.27.23-1.42-.23-.16-6.35-.16-6.35z" fill="#e16702"/><path d="M125.23 208.85c-.12 0-1.5.31-1.58.62s.08 6.15.12 6.65 1.77-.23 1.77-.23-.08-2 0-2.42.34-4.65-.31-4.62z" fill="#d2a274"/><path d="M124.15 220s1.27-.82 1.63-.34-.2 4.34-.2 4.34.55 1.48-.09 1.68-1.3.12-1.44-.28.1-5.4.1-5.4z" fill="#e16702"/><path d="M124.24 219.65c-.12 0-1.54.18-1.64.44s-.22 5.26-.2 5.69 1.81-.1 1.81-.1a18 18 0 0 1 .12-2.07c.1-.33.58-3.96-.09-3.96z" fill="#d2a274"/><path d="M118.69 220.57s1.27-.82 1.63-.34-.2 4.34-.2 4.34.55 1.48-.09 1.68-1.3.12-1.44-.28.1-5.4.1-5.4z" fill="#e16702"/><path d="M118.78 220.26c-.12 0-1.54.18-1.64.44s-.22 5.26-.2 5.69 1.81-.1 1.81-.1a18 18 0 0 1 .12-2.07c.13-.32.58-3.95-.09-3.96z" fill="#d2a274"/><path d="M112.92 221.53s1.27-.82 1.63-.34-.2 4.34-.2 4.34.55 1.48-.09 1.68-1.3.12-1.44-.28.1-5.4.1-5.4z" fill="#e16702"/><path d="M113 221.22c-.12 0-1.54.18-1.64.44s-.22 5.26-.2 5.69 1.81-.1 1.81-.1a18 18 0 0 1 .12-2.07c.11-.32.59-3.95-.09-3.96z" fill="#d2a274"/><path d="M107.34 222.34s1.27-.82 1.63-.34-.2 4.34-.2 4.34.55 1.48-.09 1.68-1.3.12-1.44-.28.1-5.4.1-5.4z" fill="#e16702"/><path d="M107.43 222c.06 1.9-1.69 1.95-1.78 2.21s-.07 3.49-.06 3.92 1.81-.1 1.81-.1a18 18 0 0 1 .12-2.07c.1-.29-.11-4.6-.09-3.96z" fill="#d2a274"/><path d="M115.4 210.18a.4.4 0 0 0-.42-.38s-2.69.29-3.15.37-.48.35-.48.35v1.35s-.15 4.21-.08 5.13.6.9.6.9 2.67-.27 3.1-.35.35-.38.35-.38.1-6.58.08-6.99zm-2.12 6.56c0 .56-.23.67-.79.63a.66.66 0 0 1-.63-.52v-5.42c0-.96.73-.79.73-.79.77 0 .77.38.77.38s-.04 5.16-.07 5.72zm1.58-5.88v5.44c0 .56-.27.73-.62.71a.38.38 0 0 1-.35-.38s0-5 .06-5.56.4-.42.4-.42c.65-.03.51.2.51.2zM121.51 209.51a.4.4 0 0 0-.42-.38s-2.69.29-3.15.37-.48.35-.48.35v1.35s-.15 4.21-.08 5.13.6.9.6.9 2.67-.27 3.1-.35.35-.38.35-.38.1-6.59.08-6.99zm-2.12 6.56c0 .56-.23.67-.79.63a.66.66 0 0 1-.63-.52v-5.42c0-.96.73-.79.73-.79.77 0 .77.38.77.38s-.03 5.16-.07 5.72zm1.58-5.88v5.44c0 .56-.27.73-.62.71a.38.38 0 0 1-.35-.38s0-5 .06-5.56.4-.42.4-.42c.61.02.54.2.54.2zM125.91 219.57a.34.34 0 0 0-.36-.33s-2.3.21-2.69.27-.41.29-.41.29v1.15s-.19 3.59-.13 4.38.5.78.5.78 2.28-.19 2.64-.25.3-.32.3-.32.16-5.62.15-5.97zm-1.91 5.57c0 .47-.21.57-.68.53a.56.56 0 0 1-.53-.45s0-3.8.11-4.62.63-.66.63-.66c.66 0 .65.34.65.34s-.12 4.38-.18 4.86zm1.42-5s-.1 4.16-.11 4.64-.24.62-.53.6a.32.32 0 0 1-.29-.33s.1-4.29.12-4.74.35-.36.35-.36c.57 0 .48.19.48.19zM120.47 220.27a.34.34 0 0 0-.36-.33s-2.3.21-2.69.27-.41.29-.41.29v1.15s-.19 3.59-.13 4.38.5.78.5.78 2.28-.19 2.64-.25.3-.32.3-.32.16-5.63.15-5.97zm-1.89 5.56c0 .47-.21.57-.68.53a.56.56 0 0 1-.53-.45s0-3.8.11-4.62.63-.66.63-.66c.66 0 .65.34.65.34s-.14 4.38-.18 4.86zm1.42-5s-.1 4.16-.11 4.64-.24.62-.53.6a.32.32 0 0 1-.29-.33s.1-4.29.12-4.74.35-.36.35-.36c.55 0 .46.19.46.19zM114.76 221.25a.34.34 0 0 0-.36-.33s-2.3.21-2.69.27-.41.29-.41.29v1.15s-.19 3.59-.13 4.38.5.78.5.78 2.28-.19 2.64-.25.3-.32.3-.32.16-5.63.15-5.97zm-1.89 5.56c0 .47-.21.57-.68.53a.56.56 0 0 1-.53-.45s0-3.8.11-4.62.63-.66.63-.66c.66 0 .65.34.65.34s-.14 4.38-.18 4.86zm1.42-5s-.1 4.16-.11 4.64-.24.62-.53.6a.32.32 0 0 1-.29-.33s.1-4.29.12-4.74.35-.36.35-.36c.54 0 .46.19.46.19zM127.36 208.8a.4.4 0 0 0-.42-.38s-2.69.29-3.15.37-.48.35-.48.35v1.35s-.15 4.21-.08 5.13.6.9.6.9 2.67-.27 3.1-.35.35-.38.35-.38.1-6.59.08-6.99zm-2.12 6.56c0 .56-.23.67-.79.63a.66.66 0 0 1-.63-.52v-5.42c0-.96.73-.79.73-.79.77 0 .77.38.77.38s-.04 5.16-.08 5.71zm1.58-5.88v5.44c0 .56-.27.73-.62.71a.38.38 0 0 1-.35-.38s0-5 .06-5.56.4-.42.4-.42c.61-.03.51.2.51.2z" fill="#692f23"/><path d="M134.86 201.11c-.06-.23-.27-.38-.88-.58s-7-1.12-7-1.12l-.94-.19v-12.48a4.51 4.51 0 0 0-1.48-3.06c-1.38-1.06-2.71-1.33-2.88-1.85a1.11 1.11 0 0 1 .46-1.48c.65-.33 1-.27 1.35-.94a54.69 54.69 0 0 0 1.27-5.94 1.23 1.23 0 0 0-.38-1.06 5.61 5.61 0 0 0-4-1.71c-2.33-.08-2.73.92-3 1.23s-2.4 3.13-2.77 3.62c-.12 0-.09.49 0 .8s-.44.19-1.46.71a5.92 5.92 0 0 0-3.33 3.56 17.14 17.14 0 0 0-.37 5.11s-.1-.23-.79-.38-5.46.08-5.46.08a.88.88 0 0 0-.79.75c-.1.67.08 2.17 0 2.5s-.38.54-.88.73a3.9 3.9 0 0 0-1.63 1 2.34 2.34 0 0 1-.36.32c0-.19-.43-.33-.54-.76a11.19 11.19 0 0 1-.63-2.52c.12-.35.42-.25.65-.9a.32.32 0 0 0 0-.23c0-.37 0-1.11.05-1.5a7.4 7.4 0 0 0-.19-2.27 1 1 0 0 0-.56-.47 1 1 0 0 0 0-.34v-.65a9 9 0 0 0 3.28 3 4.71 4.71 0 0 0 3.25.46 5.37 5.37 0 0 0 2-1.29c.21-.37.21-.73-1-1.08s-2.61-.63-3.25-2.12-1-1.83-.67-3.38l5.25-2.13s.67-.37.63-2a2.85 2.85 0 0 0-1.62-2.49 1.4 1.4 0 0 0-.61-.13 6.4 6.4 0 0 0-2.12.5c-.6.27-8.84 2.85-10.71 3.54s-2.58 1.06-2.79 1.63a6.59 6.59 0 0 0 .06 2.6c.13.67.37 1 1.4 1.25s1.23.79 1.19 1.31a3.18 3.18 0 0 1-.27 1 1 1 0 0 0-.63.92 36 36 0 0 0 .1 3.79c0 .17 0 .46.25.63s-.33.52-.58.85-.44.6-.65.63 0-.13 0-.62a1.35 1.35 0 0 0-.58-1.13c-.25-.19-.1-.29-.08-.77a32.23 32.23 0 0 0-.44-4.79c-.12-1.1-.67-1.62-1.06-1.71a20 20 0 0 0-3.21 0 5.08 5.08 0 0 0-2 .48c-.58.44-.5 1.38-.48 1.69a31.43 31.43 0 0 1-.35 4.46c-.21.54-.58.65-.85 1.17s0 1.15-.13 1.21a25.9 25.9 0 0 0-3.4 1.44c-1 .62-2.71 1.75-3.06 3.06a5.36 5.36 0 0 0 .29 3.36 7.83 7.83 0 0 1 .42 1.91c-.91.1-12.26 1.4-13.11 1.82a.94.94 0 0 0-.79.84 12.56 12.56 0 0 0 .21 2.75c.1.33.4.58 1 .71l2 .44a39.13 39.13 0 0 1 .71 6.35c0 .06-2.38 3-2.6 4.35a3.43 3.43 0 0 0 .25 2.61c.4.67 2.54.73 3 .75a.61.61 0 0 0 .24 0c0 .84.2 3.31.2 3.31.13 1.1.84 7 1 7.42v.06c.1.43.24.78 1.36 1.21 1.44.56 1.37.54 1.35 1a2 2 0 0 0 .65 1.65c.62.6.77.46 2.21.37a7.6 7.6 0 0 0 3.42-1.73 9.22 9.22 0 0 0-.25 3.73c.27.81.75 1.42 1.65 1.35a4.69 4.69 0 0 0 3-1.94 13.18 13.18 0 0 0 1-1.37 1.45 1.45 0 0 0 1.08.53 1.92 1.92 0 0 0 1.6-.79s2.94.63 3.15 1a7.93 7.93 0 0 1 .46 1.11.45.45 0 0 1 0 .14 2.22 2.22 0 0 0 1.76.92c1.44.13 2.08-.19 2.48-.88a4.61 4.61 0 0 0 .35-1.19 12 12 0 0 0 2.39.25 5 5 0 0 0 .69.79c1.79 1.63 3.25.88 3.6.63a1.76 1.76 0 0 0 0-2.19s0-.38.85-.23 1 .44 1.75.19.75-.46 1.25-.94 15.27-2.1 15.79-2.21 6.38-.79 7.77-1.46 1.5-1.33 1.71-2.67S132 206.34 132 206s-.08-1.42.81-1.63 1.52-.35 1.87-1a4.42 4.42 0 0 0 .18-2.26zm-.85.61l-.23-.29a1.12 1.12 0 0 1 .22.28zm-7.38-1.26c-.25 0-.62-.29-.42-.38.64.08 6.26.81 6.8 1l.22.07-27.51 3.64s0 .06-.17 0c0 0-.44-.44.19-.62s8.9-1.23 8.9-1.23l13-1.55s1-.1 1-.35-1.72-.53-2.01-.59zM105 197.18a22.2 22.2 0 0 0 5.06-.27c.5-.12.67.06.65.13s.16 4.89.19 5.74c-2.38.32-5.75.76-5.9.72s-1.33-.9-1.85-1.17a49.11 49.11 0 0 0-.45-5.4c.3.07 1.03.14 2.3.25zm-2.54-1.11a11.07 11.07 0 0 0-1.38-2.46.37.37 0 0 1 0-.3 23.3 23.3 0 0 0 6.58.53c3.38-.29 4-1.06 4.33-1.15s.62-.1 1 1.31.31 8.48.31 8.48l-1.67.23c0-.29-.06-3.48-.17-4.86s-.17-1.83-.44-2-.33 0-.67.08a15.65 15.65 0 0 1-5.15.67c-2.07-.15-2.62-.43-2.72-.53zm14.19-21.77l1.15-1.46.27-.31s.62-1 1.29-1.1a5.34 5.34 0 0 1 4.15.94.71.71 0 0 1 .37.77c-.06.42-.67 2.7-1 4.05a.17.17 0 0 1-.13.06 18 18 0 0 1-2.77-.88 14 14 0 0 1-3.11-1.52.39.39 0 0 1-.2-.55zm-.56.83c.17-.06.13.1 1.69 1a27.7 27.7 0 0 0 4.65 1.71 2.61 2.61 0 0 1 .17.2v.13c-.12.44 0 .63-.65.48a32.58 32.58 0 0 1-5.06-2.17 2.13 2.13 0 0 0-.32-.22c-.57-.51-.62-1.08-.46-1.13zm-5.4 6.08a4.12 4.12 0 0 1 2-2.63 10.21 10.21 0 0 1 3.52-1.12 20.47 20.47 0 0 1 3.13 1.29c.33.12 1.58.29 1.5.85s-.5.81-.46 1.71.25 1.33 1.58 2 2.63 1.48 3 2.38 0 1.19-.63 1.38a17.61 17.61 0 0 1-5.33.54c-3.58 0-6-.1-6.81-.17 0 0-1.5-.23-1.73-.77a42.11 42.11 0 0 1 .25-5.46zm-.12 6.36c.37 0 1.28.12 2.18.27a46 46 0 0 0 6.29.38 31.17 31.17 0 0 0 5-.35c.6-.15.63-.5 1-.35s.17 13.21.17 13.21 0 .21-.6.29l-10.31 1.31s-.25-7.92-.37-8.59a7.15 7.15 0 0 0-2.35-4.11 4.18 4.18 0 0 1-1.1-.85 1.4 1.4 0 0 1-.13-.63s-.07-.46.24-.58zm-7.26-1.19c.38-.38 5.1-.27 5.6-.08s.37.92.4 1.13c0 0 .15.79-.23 1.19l-.05.07a3.91 3.91 0 0 1-1.83.22 17 17 0 0 1-3.58-.15c-.29-.15-.44-.27-.5-.83s-.18-1.17.21-1.55zm-.15 3.35a21.13 21.13 0 0 1 3.27.13 11.7 11.7 0 0 0 2.69-.12 3.22 3.22 0 0 1 1.94.27 1.25 1.25 0 0 1 .25 1.88c-.35.29-1.73.75-4.27 1a15.06 15.06 0 0 1-5.11-.33s-1.31-.35-1.42-1.33 2.14-1.39 2.66-1.51zm-1.12-8.42c1.6 1.81 3.1 1.31 3.44 1.54s-.12.9-1.19 1a5.55 5.55 0 0 1-3.35-1.06 5.08 5.08 0 0 1-2.54-3.44v-.45a2.93 2.93 0 0 1 1.52-1.6 4.63 4.63 0 0 1 .65-.29 6.39 6.39 0 0 0 1.49 4.29zm1-5.88c-.48.13-.71.06-1.21-.62a2.47 2.47 0 0 1-.52-1.88 1.86 1.86 0 0 1 .45-1l1.22-.43c.15 0 .28 0 .31.12s-.15.6 0 1.31a3.71 3.71 0 0 0 .65 1.56c.31.33-.38.79-.86.93zm3.44-4.15s1 1.38.44 2.19a1.38 1.38 0 0 1-2 .5 2.28 2.28 0 0 1-.71-2.1 1.27 1.27 0 0 1 .7-1 1.68 1.68 0 0 1 .55-.12 1.57 1.57 0 0 1 1.06.51zm-14.88 7.31a1.52 1.52 0 0 1-.77-1.79 1.86 1.86 0 0 1 1-1.46c.65-.35 7.17-2.42 7.17-2.42l1-.34c.15 0 .28 0 .33.13.15.35-.08 1.13.23 1.88s.83.9.85 1.1-.23.31-.87.63H100.39a6.09 6.09 0 0 0-2.85 2.13 7.22 7.22 0 0 0-.4 2.79c0 .38-.21.62-.48.65s-1.46 0-1.88 0-1-.06-1-.63a4.15 4.15 0 0 0-.71-2.13 5 5 0 0 0-1.47-.54zm6.17 7.35v-3a.2.2 0 0 1 0-.1.78.78 0 0 1 .4.45 3.27 3.27 0 0 1-.4 2.65zm-.34-2.9v3.12a3.23 3.23 0 0 1-.87.33v-3.54a.18.18 0 0 1 .15-.19h.54s.14.02.18.24zm-1.26 0v3.42a.24.24 0 0 1 0 .11l-.53.05h-.24v-3.68a.18.18 0 0 1 .08-.17h.5a.31.31 0 0 1 .19.23zM95 183v3.42a.2.2 0 0 1-.08.16 4.55 4.55 0 0 1-.86-.11s-.07-.1-.07-.15L94 183a.17.17 0 0 1 .13-.17h.73a.32.32 0 0 1 .14.17zm-1.34 0v3.12s0 .13-.1.16a1.06 1.06 0 0 1-.52-.44 6.29 6.29 0 0 1-.31-2.19.85.85 0 0 1 .67-.9.27.27 0 0 1 .31.3zm-.27 4.5c.4 0 2.71.1 3.31.12s.73.71 1.08 1.56.79 2 .79 2 .6 1.1.94 1.63l.08.11a2 2 0 0 1 .13.37c1 1.1 2.21 5.06 2.35 6.1s.21 2-.13 2.35-.38.29-1 .17a8 8 0 0 0-2.13.06c-.67.08-1.63.52-1.77.33a6.17 6.17 0 0 1 0-1.54 7.25 7.25 0 0 1 .63-2.12 7.87 7.87 0 0 0 .5-2.94 6.9 6.9 0 0 0-1.77-4 10.27 10.27 0 0 0-3.15-1.92s-1.13-.38-1.12-.83a2.29 2.29 0 0 1 1.31-1.4zm-9.79-4c.08-.6.15-2.61.52-2.9a6.35 6.35 0 0 1 3.44-.33c1.17.16 1.34.64 1.37.85v.1c0 .04.17 2.1.29 2.85s.4 1.42 0 2-1.83.87-3.9.71c0 0-1.31-.17-1.56-.6a7.15 7.15 0 0 1-.1-2.59zm-4.6 7.18c.21-.58.9-.73 1.92-1.06a12.27 12.27 0 0 1 2.83-.35c.62-.06 1.51.22 1.58-.08s-1-.26-1.23-.31c-1.59-.27-1.5-.73-1.4-1a1 1 0 0 1 .94-.44c.4.08 1.75.21 1.75.21a28.21 28.21 0 0 0 2.86-.08c.87-.12 1.5-.17 1.75.06s0 .73-.9 1a11 11 0 0 1-2.13.31c-.23 0-.58.37.56.38a24.85 24.85 0 0 0 2.67-.21 6.28 6.28 0 0 1 2.77 1.12.64.64 0 0 1 .08.9 3.05 3.05 0 0 1-1.27.75 17.87 17.87 0 0 1-1.85.48 33.52 33.52 0 0 1-7.38-.06c-2.76-.44-3.8-1.04-3.55-1.62zm-3.08 3.06A4.44 4.44 0 0 1 78 190.9c.15-.15.15 0 .15 0a4.35 4.35 0 0 0 1 1.25 7.68 7.68 0 0 0 3.69 1.1 48 48 0 0 0 6.36 0 7.58 7.58 0 0 0 2.82-.57h.16c1.25-.38 1.37-.81 1.79-.94a1.63 1.63 0 0 1 1.52.13 4.62 4.62 0 0 1 1.73 3 4.81 4.81 0 0 1 0 1v.06c-.27 1.27-2.35 1.73-3.63 2s-2.79.42-7.59.37-7.59-.23-8.4-.88a3.69 3.69 0 0 1-1.71-3.68zM97 197.39a5.22 5.22 0 0 1-.18.6 8.22 8.22 0 0 0-.65 2.5c-.1 1.15-.15 2.12-.46 2.31s-.6.31-1.9.13a56.4 56.4 0 0 0-5.81-.15 4.13 4.13 0 0 0-2.38.65s-.21.08-.31 0a6 6 0 0 0-2-.69c-.79-.08-2.25.42-3.48.38a3.86 3.86 0 0 1-2.19-.65 18.12 18.12 0 0 0-.33-2.29v-.06a19.45 19.45 0 0 0-.43-2v-.05c.13-.33.85.06.85.06 1.79.56 6.1.77 9.15.81a41.34 41.34 0 0 0 7.48-.52 6.38 6.38 0 0 0 2.64-1.03zm-21 3.11a.32.32 0 0 1 .29.26l.07 1.26h-.05c-.15.27-.58.31-1.37.23a36.86 36.86 0 0 1-4.79-1c.18-.02 4.85-.62 5.85-.75zm-13 .3s11-1.77 11.88-1.77 1.15.44.92.69-10.4 1.25-10.38 1.42 7.25 1.85 7 2a2.26 2.26 0 0 1-.88.28c-1.23-.22-6.11-1.13-6.91-1.47s-1.83-.63-1.81-1.07a.4.4 0 0 1 .18-.08zm.69 3c-.65-.21-1-.12-1.13-.71s-.15-1 .29-.92 8 2 8.21 2.15-.21.46-.25.52-.17.67-.46.58-2.9-.81-2.9-.81-3.06-.61-3.71-.79zm5.9 2.33a15 15 0 0 0-1.42 2.06c-.35.73-.69 1.54-1.06 1.58s-.31-.38-.37-1a15 15 0 0 0-.21-1.83c-.11-.42-.4-1.22-.08-1.5a18.73 18.73 0 0 1 3.19.7zm-1.5 16c-.1-.73-.3-2.35-.3-2.88A4.08 4.08 0 0 1 68 218l.22-.21a43.07 43.07 0 0 0 3.21-3.25c.71-.92 1.9-3.19 2.37-3.5s.71-.4.83.42a8.67 8.67 0 0 1-1.33 5.79 28.23 28.23 0 0 1-4.3 5.47c-.55.44-.8-.04-.86-.58zm1.9 7.36a3.16 3.16 0 0 1-1.13-2.31v-.07a2.92 2.92 0 0 0 2 .1 11.14 11.14 0 0 0 4.11-2.4c.6-.73 1-1.27 1.1-1.1a.49.49 0 0 1 0 .26.75.75 0 0 0-.07.18c0 .08 0 .18-.08.27v.09a8.72 8.72 0 0 1-1.2 2.29 25.38 25.38 0 0 1-2.21 2.63 1.84 1.84 0 0 1-2.51.08zm11.81-1.71a41.93 41.93 0 0 0-.19 4.63 7.3 7.3 0 0 1-1.13 2.67c-.63 1.08-1.69 1.31-2.31.73s-.71-2.29-.42-3.27 1.54-4.48 1.54-4.48c.08-.25 1.15-2.71 1.38-3.6s.12-1.31-.19-1.5-1.46 3.56-1.77 4.46a11.06 11.06 0 0 1-2.34 3.58 6.34 6.34 0 0 1-2.67 1.69c-.75.19-1.73.31-1.79-.46s.6-1.46 1.12-2.08 2.88-3.35 3.23-3.88a8.11 8.11 0 0 0 .56-2.19s.5-2 .62-2.65.1-1.54 0-1.42-1.75 3.27-3.1 4.13-3.5 2.35-4.46 2.23a1.19 1.19 0 0 1-.9-2c.67-1.08 2-1.92 4.6-5.11a10.57 10.57 0 0 0 2.33-7.15c0-.73-.21-2.88-1-2.94s-3.13 2.92-4 4-2.13 3.88-4.56 4.25-2.23-.85-2.08-1.48a24.39 24.39 0 0 1 2.56-3.94.76.76 0 0 0 .12-.22s2.94-4.28 3.4-4.89l1-1.37A14 14 0 0 1 73 204a6.39 6.39 0 0 1 2.51-.59c1.06 0 3.44.69 4.69.79s3-.19 3.52 0 .71 1.29.71 1.29v1.54a19 19 0 0 1-.38 2.88 44.23 44.23 0 0 0-.52 4.65c-.1 1.44-.58 5.27-.6 6s-.79 5.91-1.08 7.23zm6.79.92s-.35 1.17-.5 1.73a15.81 15.81 0 0 0 0 2.15c-.06.65-.58.54-1 .52a3.53 3.53 0 0 1-1.44-.54c-.15-.17.13-.52.13-.52a30.84 30.84 0 0 1 1.25-4.85c.58-1.19 1-2.61 1.46-2.63a5.44 5.44 0 0 1 .17 1.06 16.12 16.12 0 0 1-.02 3.1zm4.86 4.91a26.38 26.38 0 0 0 .26-3.23 17.3 17.3 0 0 0 1.15 3.35zm9.54-2c-.23 1.1-.12 1.38-.83 1.63a1.6 1.6 0 0 1-1.85-.85 10.48 10.48 0 0 1-1.27-4.92c-.13-2.81.29-4.1.06-4.35s-.46-.13-.83.79a11.85 11.85 0 0 0-.52 4.81 23.33 23.33 0 0 0 1 5.11c.46 1.44.46 1.87-.06 2.21s-1.09-.04-1.69-.69-1.81-2.94-2.42-6.61-.67-6.13-1.08-6.21-.37.21-.48 1-.17 4.85-.15 6.19.21 5-1.29 6c-1.2.8-1.74-.19-2.14-.77a2 2 0 0 1-.58-1.56c0-1.12.56-3.19.85-5a24.64 24.64 0 0 0 .1-4.65c0-.46-.17-1.65-.38-1.6a9.59 9.59 0 0 0-1.23.94 4.27 4.27 0 0 0-.65 1.06c0 .1-2.69 7.23-2.83 8.13a1.94 1.94 0 0 1-.69 1.15c-.44.23-1.29-.52-1.29-.52.06-.77-.06-2.54.06-3.73s.81-4.21 1-5.31.75-7.21.81-8.19.44-4.86.46-5.81.29-2.95.38-3.59a1.48 1.48 0 0 0 .1-.39c.21-1.44 1.6-1.6 3-1.81s6.46-.15 7.58-.19 2.77-1 4.11-1.08a11.93 11.93 0 0 1 1.92-.06h.09a3.38 3.38 0 0 1 1.53.84 3.94 3.94 0 0 1 .61 1.83.6.6 0 0 0 0 .09s.08 1.44.1 2.17.08 3.52.1 4.4a8.27 8.27 0 0 0 .65 3.5c.65 1.54 2.42 4.73 2.29 5.75s0 2.1-1.46 2.08-2.29-.21-3.06-1.79a18.6 18.6 0 0 1-1.52-4.11 13.63 13.63 0 0 0-.88-2.92 4.59 4.59 0 0 1-.75-2.23c0-1.1.12-2-.13-1.94s-.56.6-.52 2.13a9.15 9.15 0 0 0 .88 3.56 10.94 10.94 0 0 1 1.08 4.33 32.68 32.68 0 0 0 .75 5.58c.29 1.59 1.35 4.5 1.08 5.59zm3.9-14.2a16.81 16.81 0 0 1-1.17-3.17c0-.12-.05-.26-.08-.4s0-.11 0-.18-.17-1.63 0-1.77.17-.38.58-.38.69.12.67.88.05 4.22.05 5.01zm.62-5.53s.13-.5.58-.54a.54.54 0 0 1 .61.46V217.53s0 .4-.87.38c0 0-.38-.19-.42-.5s.15-5.54.15-5.54zm-.46 15.9c-.12.35-1 .27-1 .27s-.35.15-.37-.88v-2.48a3.52 3.52 0 0 0 1-.12 1.16 1.16 0 0 0 .35-.19 33.09 33.09 0 0 1 .06 3.39zm20.95-1.35a2.86 2.86 0 0 1-.88 1.6c-.58.52-4 1.15-6.25 1.54s-15.48 2.17-15.88 2.17-.62.12-1-.94-.9-3.44-1.1-4.08a13.65 13.65 0 0 1-.31-3.79c.19-.25 1.06 1 1.73 1.38a2.63 2.63 0 0 0 1 .33l.09 3.15s0 .65.44.71a28.28 28.28 0 0 0 3-.35s.25 0 .27-.83 0-5.44 0-5.44a.4.4 0 0 0-.38-.37 1.15 1.15 0 0 0-.36 0 5 5 0 0 0-.59-2.64l-.16-.25 1.26-.14s.48 0 .46-.87 0-5.63 0-5.63v-1.13s0-.29-.63-.23-2.64.34-3.33.43a12.83 12.83 0 0 1 0-1.85v.07s-.06-.92.65-1.08 10.57-1.41 11.75-1.56L129.3 205c.42-.06 1.23-.23 1.5.08s-2.8 21-2.8 21.35zm-20.19-2.75a3.73 3.73 0 0 0 .53-1.52c.09 0 .23 0 .26.15s-.21 5.25-.21 5.25-.23.37-.38.08a29.89 29.89 0 0 1-.24-3.96zm25.9-20.4a23.17 23.17 0 0 1-3.11.56l-12.67 1.85-1.17.17-10.44 1.35s-.56.1-.67-.75 1-.88 1.13-.88 27.05-3.77 27.05-3.77a.65.65 0 0 1 .27 0 .76.76 0 0 1 .06.24c-.01.44.1.95-.49 1.23z" fill="#692f23"/><path d="M223.38 135.92c-.51-3.3-5.12-11.55-6.49-13.2s-2.62-8.31-3.3-10.36-4.38-8.65-5.35-9.56a69.77 69.77 0 0 1-4.89-6.37c-.8-1.19-5.8-8.14-9.79-11.49a32.14 32.14 0 0 0-8.42-5.35 13.22 13.22 0 0 0-5.57-.74l-1.49-.41c-1.79-.48-3.52-.93-3.52-.93s.08-3.7-.54-3.77-9.55 2.5-13.24 2.39-12.59-1.5-12.59-1.5l-.12 2-.46 2.66s-2.77.69-6.7 1.73a22.4 22.4 0 0 0-9.12 5.43c-1.62 1.62-5.35 2.49-5.66 2.66-8.55 4.62-17.67 9-21 13.4s.23 14.55.23 14.55 4.27 9.93 2.08 10.28-2.31 2-2.31 2l3 7.39a15.5 15.5 0 0 1 5.31 4.73c2.08 3.12 3.7 3.7 8.66 2.19s11.31-6.65 11.31-6.65l.46 20.79s-.69 5.2 1.39 5 22.17 2.54 34.65 2.19 25.75-5 25.75-5-.11-10.17-.29-19.27c.57 2.68 1.35 5.87 1.73 6.93.68 1.88 4.27 5.46 5.8 6.37s6.71 1 8.88.8 4.61-.91 8.08-3.41 4.04-12.18 3.52-15.48z" fill="#fff"/><path d="M138.37 6.85s6.39-2.62 7.55-3.31a30.29 30.29 0 0 1 10.32-2.16c3.7 0 8.08-1 10.09-.77a6.3 6.3 0 0 1 3.31 1.46s2.31.08 4.23 0 4.85 1.23 5.62 1.46l9.35 2.77c1.54.46 3.7 2.77 5.7 3.77s12.28 10.78 13.2 13.78 5.39 9 5.85 11.09 2.62 14-.85 19.32-9.47 13-12.93 14.63-7.31 4.85-8.24 5.39-6.85 2.72-9.7 2.72h-4.39a15.26 15.26 0 0 0-2.93.54c-.38.15-.54-3.77-.54-3.77s-9.47 2.77-15.71 2.31a78.35 78.35 0 0 1-11.55-1.77s2.35 3.35 1.73 3.89-4.58.62-6.27.38-7.85-2-7.85-2l-3.62-1.73a46.88 46.88 0 0 0-4.3-2.85c-.46-.08-9.39-10.7-10.86-13.4s-2.69-8.93-2.77-13.94a47.17 47.17 0 0 1 3.2-16.4c2.08-5.7 7.58-12.09 10-13.55s8.85-5.08 8.85-5.08z" fill="#e09c51"/><path d="M153.15 22.19a10.85 10.85 0 0 0-2.28 3.09c-.49 1.27-.78 5.89-1.24 6.58s-1.76.84-2.63.75a7.54 7.54 0 0 1-2.4-1.18c-.12-.06-5.69 1.67-6.35 1.73s-7.65 1.7-8.11 1.82-3.46.75-3.61.81a5.93 5.93 0 0 0-3 3.67 6.64 6.64 0 0 0 .29 4.59 4.75 4.75 0 0 0-1.76 2.22 8.46 8.46 0 0 0 1.24 5.37c1 1.13 4.3 2.92 4 2.77s1.3 3.55 4.22 7.71 6.87 8.49 15.19 12 19.84 1.79 20.12 1.76a32.45 32.45 0 0 0 12.47-4.39s6.5-4.76 8.34-6.64 5.6-6.47 6.38-8.32a10.62 10.62 0 0 0 .81-2.25s2.34.23 4-2.83.78-6.61-.61-7.36-4-.2-4.82-.06-2.71-1.59-3.2-3.7-5.64-7.33-5.64-7.33a31.63 31.63 0 0 1-6.09-.12c-2.31-.4-6.81-.92-8.52-1.41s-7.3.26-8.4.52-4.91 2.08-5.2 1.82-.14-1.62-.14-2.19-3.06-9.43-3.06-9.43z" fill="#fbdfcb"/><path d="M147.93 45.45a3.37 3.37 0 0 0-1.15-2.33 4.41 4.41 0 0 0-3.21-1.27c-.85 0-4.41-.31-5 0a13.93 13.93 0 0 0-2.44 2.31c-.67.75-.06 1.27.33 1.48s1.75 1.3 2.75 1.32a30.39 30.39 0 0 0 4.43-.14c.89-.19 2.56-.89 3.2-.9s.99-.22 1.09-.47z" fill="#fff"/><path d="M144.75 42.09a2.48 2.48 0 0 1 .69 2.14 3.55 3.55 0 0 1-2.66 2.37c-1.27.25-2.8-.49-3-1s-1.13-2-.88-2.67 4.16-3.67 5.85-.84z" fill="#abd2f0"/><path d="M165.22 45.33a3.37 3.37 0 0 1 1.15-2.33 4.41 4.41 0 0 1 3.21-1.27 25.31 25.31 0 0 1 4.89.62A9.28 9.28 0 0 1 177 44c.67.75.06 1.27-.33 1.48a9 9 0 0 1-3 .89c-1 0-3.29.48-4.18.29s-2.56-.89-3.2-.9-.98-.18-1.07-.43z" fill="#fff"/><path d="M169.17 42.18a2.48 2.48 0 0 0-.69 2.14 3.55 3.55 0 0 0 2.66 2.37c1.27.25 3.1-.15 3.27-.67s.83-2.29.58-3-4.12-3.67-5.82-.84z" fill="#abd2f0"/><path d="M114.18 33a29 29 0 0 0 4-4.33c1.21-1.85 4.1-7.1 6.93-9.7a60.73 60.73 0 0 1 4.68-4.27l-2.71 5.89s2-2.66 3.81-3.35a10.56 10.56 0 0 1 2.54-.75 35.76 35.76 0 0 0-2.71 4.79c-.4 1.27-.46 6.93-.4 7.85s.29 2.48.29 2.48.69-6.76 3.18-10.45 3.87-6.81 9.47-9.82 6.7-3.18 7.62-3 0 1.91 0 1.91a59 59 0 0 0-2.54 5.89 19.47 19.47 0 0 1 3.35-4A34.79 34.79 0 0 1 155.93 9s-2.48 7.33-2.48 9.59 1 8.78 1 8.78l1.1 2.89a24.4 24.4 0 0 1 1.62-10.45c2.14-5.2 3.12-10 7.1-11.26a5.75 5.75 0 0 1 7 2.66 24.57 24.57 0 0 1 1.56 4.68s.17-4 .06-5 1.27-1.1 2-.87a13 13 0 0 1 6.87 5.43c2.37 3.87 3.23 10.11 3.23 10.11s1.27-7.8.4-9.3-2.94-4.91-4.56-6.24c0 0-.35-1.5 2.14-1a17 17 0 0 1 6.53 2.25s-2.94-2.54-4.39-3.7-8.08-4.91-8.43-5.14a27.93 27.93 0 0 0-4.1-.58L170 1.71 167.88.55l-7.8.87L157.2.9l-9.93 1.73L139.7 6l-6.93 4.85-3.23 1.21-7.62 6.64S116.2 26 116 26.88s-2.08 6.24-2.08 6.24z" fill="#e9b87f"/><path d="M210.93 127.25l-.39-.26-.4-.22-.5-.14a3.18 3.18 0 0 1-2-.93 3.08 3.08 0 0 0 .66.93 6.49 6.49 0 0 0 2.77.72z" fill="#fff"/><path d="M131.79 138.39c-.46.12-7.39 5-7.39 5l1 .69-.12 1.5s-2.19-.46-3.12.23-.46 1.27-.46 1.27-1.85-.12-2.19.69a1.23 1.23 0 0 0 .35 1.39 3.64 3.64 0 0 0-1.5 2.08c-.35 1.39.23 3 2.54 4.5s6.47 2.19 8.78 1.5a9.49 9.49 0 0 0 4-2.89l-.92-16.51z" fill="#f9e5cc"/><path d="M144.15 201.68a102.11 102.11 0 0 0 1.85 10.39 6.35 6.35 0 0 0 2.89 3.58l5.66.46 7.85.69a27 27 0 0 0 1.27-3.23c.12-.69 1-8.89 0-11.32s-2-2.54-2-2.54a11.43 11.43 0 0 1-8.32 3.7 30.27 30.27 0 0 1-9.2-1.73zM166.67 199.37a16.88 16.88 0 0 0 9.82 4c6.12.46 9.59-2.08 9.59-2.08s-.46 5.89-.92 7.85-2.43 5.66-2.89 5.66a33 33 0 0 1-6.81 1.27c-3.46.12-8 1.27-8.08.81a41.75 41.75 0 0 1-1.15-5.54c-.02-1.12-.95-9.34.44-11.97z" fill="#d2a274"/><path d="M148.88 215.65s-3.7-.23-5.43.81a7.74 7.74 0 0 0-2.54 2.43s-4 2.89-4.5 4.16 0 4.94.6 6.65c1 2.75 11.64 4.32 12.56 4.32s10.62-.12 10.62-.12l3.35-1.73.92-1.73s2.19 3.23 3.81 3.23 11.32.23 11.32.23a69.25 69.25 0 0 0 8.34-1.78c5.11-1.85 4.6-2.73 4.94-3.88a12.26 12.26 0 0 0-.35-5.43c-.46-1-5-5.08-5-5.08l-3.46-2.19-9.47 1-8.32.58-1.62 6-1.85-5.77z" fill="#efb000"/><path d="M160.55 164.37s9.7.69 11.09.46 20.55-3.83 20.55-3.83 1.62 6 .81 9.47a77.31 77.31 0 0 0-1.27 8.43s1.27 13.51-.58 16.28-3.81 5-6.47 5.77-3.35 2.54-8.2 2.19-8.2-2.66-9-4l-2.2-9.14s-2 8.32-3.58 9.47-3.23 3.46-7.62 3.7-11.66-2.77-11.66-2.77-2.54-.69-3.58-5.77-1.15-18.13-1.15-18.13l-.69-13.86s5.43-.12 8.32.69 15.23 1.04 15.23 1.04z" fill="#fd8204"/><path d="M143.57 163.68s.81 8.66.81 11.66-.46 11.78.23 15.13 1.5 8.32 2.66 10.62c0 0-3.23-1.39-4-3s-2.77-11.9-3.58-23.91c0 0-.69-11 0-11.32s3.88.82 3.88.82zM147.73 164.26s.69 5.77.92 8.66.92 11.55.81 13.4.81 13.63 2.89 16.17c0 0 2.66 1.27 3.12.58s-.84-4.51-1.52-7.79c-.56-2.72-.56-13.23-.9-16.47s-.92-12.59-.69-14.09c-.01 0-3.71-1.04-4.63-.46zM156.74 164.49a19.27 19.27 0 0 0-.12 7.16c.69 3.81 1.5 16.28 1.85 19.86s.35 9.93-.69 10.86 3-.81 3.93-2.66-.69-21.25-.81-23.56-1-10.16-.35-11.55zM168.05 165.18s-.35 12.93-.58 17.32 1.79 20.17 3.93 19.63c.46-.12 2.77 1.27 5.08 1.27s5.77-1.5 5.77-2-.69-18.82-.92-22.87-.69-14.44-.69-14.44l-4.39.58s1.85 30.6 1.5 33.61a30.26 30.26 0 0 1-.58 3.81s-2.66-.35-3.93-8.55-.81-27.83-.92-28.18-4.27-.18-4.27-.18zM185.15 163.56s.69 20.09.58 22.87 0 10.51-2.43 14.09c0 0 0 .58 1.39.69s3.35-1.5 4.16-2.31 1.5-6.58 1.5-9.47-.35-20.33-.58-22.75-.58-4.62-.58-4.62z" fill="#e16702"/><ellipse cx="152.05" cy="109.93" rx="3.81" ry="4.48" transform="rotate(-30 152.042 109.94)" fill="#fd8204"/><ellipse cx="139.03" cy="128.2" rx="3.81" ry="4.77" transform="rotate(-30 139.03 128.193)" fill="#fd8204"/><ellipse cx="188.69" cy="122.43" rx="3.81" ry="4.77" transform="rotate(-30 188.679 122.416)" fill="#fd8204"/><ellipse cx="198.73" cy="110.3" rx="3.81" ry="4.77" transform="rotate(-30 198.728 110.289)" fill="#fd8204"/><path d="M172.91 84.09c1.29 2.24.89 4.88-.89 5.91a4 4 0 0 1-4.82-1.16c-.28-.3 1-7.31 1.51-7.33a4.79 4.79 0 0 1 4.2 2.58z" fill="#fd8204"/><ellipse cx="161.43" cy="125.77" rx="4.77" ry="3.81" transform="rotate(-56.56 161.415 125.775)" fill="#fd8204"/><ellipse cx="191.29" cy="139.11" rx="4.77" ry="3.81" transform="rotate(-56.56 191.273 139.107)" fill="#fd8204"/><ellipse cx="148.96" cy="142.29" rx="4.77" ry="3.81" transform="rotate(-56.56 148.937 142.287)" fill="#fd8204"/><ellipse cx="171.29" cy="141.97" rx="3.81" ry="4.77" transform="rotate(-34.92 171.315 141.982)" fill="#fd8204"/><ellipse cx="174.71" cy="111.92" rx="4.77" ry="3.81" transform="rotate(-56.56 174.697 111.913)" fill="#fd8204"/><ellipse cx="183.95" cy="91.82" rx="4.77" ry="3.81" transform="rotate(-56.56 183.934 91.825)" fill="#fd8204"/><ellipse cx="139.6" cy="90.55" rx="4.77" ry="3.81" transform="rotate(-56.56 139.588 90.545)" fill="#fd8204"/><ellipse cx="112.23" cy="132.7" rx="4.77" ry="3.81" transform="rotate(-56.56 112.224 132.698)" fill="#fd8204"/><ellipse cx="109.69" cy="104.64" rx="3.81" ry="4.77" transform="rotate(-55.07 109.673 104.637)" fill="#fd8204"/><path d="M126.67 88.72a3 3 0 0 1-2.62 1.66h-.12a3 3 0 0 1-.76-.1 3 3 0 0 1-2.82 2.18h-.45a5.64 5.64 0 0 0 1.81 2c2.16 1.51 4.89 1.34 6.09-.39 1.09-1.53.57-3.81-1.13-5.35zM123.36 143.28a3 3 0 0 1 2.83-1.28h.11a3 3 0 0 1 .73.2 3 3 0 0 1 3.1-1.76h.11l.32.07a5.64 5.64 0 0 0-1.5-2.27c-1.93-1.8-4.65-2-6.08-.47-1.28 1.41-1.08 3.75.38 5.51z" fill="#fd8204"/><ellipse cx="128.69" cy="108.7" rx="4.15" ry="3.31" transform="matrix(.55 -.83 .83 .55 -32.93 156.17)" fill="#fd8204"/><path d="M140.5 43.52a.71.71 0 1 1 .71.71" fill="#fff"/><path d="M204.84 132.51c0-.46-3.87-1.65-4.55-2.62s-.74-2.5.91-2.5 4.44 1.08 4.89.68l.46-.4.68 1.54-.11 3.87a1.63 1.63 0 0 0 1.82.57c1.31-.28 1.37-1.82 1.37-1.82l-.23-3.41a4.46 4.46 0 0 1 3.19.34c1.48.85 3.24.91 4 2.73s1.31 4.21 1.82 5.58-.06 3.07-.68 5.23a52.23 52.23 0 0 1-2.31 5.7s-4.5.68-6.37.68-4.89-.4-6.26-1.71a2.23 2.23 0 0 1-.68-2.39 13.29 13.29 0 0 1-1.37-3.19c-.28-1.37.57-4.89.57-4.89s-.34-1.82.34-2.16a25.3 25.3 0 0 1 3.19-.91z" fill="#fbdfcb"/><path d="M207.58 125.68c-.25-.74 1.12-54.4 1.12-54.4s-.4-3.19 1.37-3.53 1.48 4.32 1.48 4.32l-1.37 60.54s.34.51-1.25 1-1.82-.57-1.82-.57zM205.86 205.91l1-56.9a5.1 5.1 0 0 1 1.82-.34c1 0 1.25 3.41 1.25 3.76s-.91 53.49-.91 53.49-1.91 2.95-3.16-.01z" fill="#efb000"/><path d="M205 226.77c-.27.11-16.16 5.16-16.16 5.16s-8.27 2.5-9.63 3.41-2.2 2.35-1.9 3.19a10.81 10.81 0 0 0 1.21 3c.64.8 6.15 7 7.28 7.36s5.61-.42 6.3-.61 41.38-13.12 41.8-13.35 3.07-1.71 3.34-2.66a4.88 4.88 0 0 0 .08-3c-.34-1.14-6.45-5.73-6.9-6.07a18.54 18.54 0 0 0-3.72-2c-.51.11-21.7 5.57-21.7 5.57z" fill="#fd8204"/><path d="M205.63 220.47l-.11 8.76-5.92 2.16s-3.19.17-3.07 1 2.39 3.07 2.39 3.07l3.07 2.73 17.64-5.19a2.19 2.19 0 0 0-.57-1.93c-.85-1.08-4.1-4.44-4.1-4.44l-6.26 1.82-.11-21.17-2.62-.34z" fill="#c7c0b1"/><path d="M216 226s10-2.67 10.58-2.5 5.35 4.55 5.35 4.55a4.06 4.06 0 0 1-2 1.82c-1.19.28-8.53 2.62-8.53 2.62l-1.48-.57-4.92-5.3zM182.76 236.75l4.55 5.69s3 .68 3.76.34l9.9-4.44-2-2.84-2.39-3.07z" fill="#f5e0c7"/><path d="M141.59 61.43a2.81 2.81 0 0 1 2-1.36c1.27 0 1.87.87 5.16 1.76s10 2 14.57.81c2.42-.63 8.13-3.09 8.74-3.26a1.37 1.37 0 0 1 1.36.29.72.72 0 0 1 .14 1.1c-.32.29-.87-.63-1.07-.66s-5.17 2.58-6.43 3.29c-2 1.12-5.74 1.53-9.06 1.41a25.9 25.9 0 0 1-7.9-1.76c-2-.72-4.53-2.16-5.16-2.16a6.24 6.24 0 0 0-2 .75s-.4.54-.35-.21zM151.78 66.8s0-.43.55-.43a52.42 52.42 0 0 0 5.34.69 24.33 24.33 0 0 0 6.26-.63c.58-.29.89-.14.89 0a14 14 0 0 1-6.11 2.13c-2.87.17-6.41-.98-6.93-1.76zM153.77 54.83a5.25 5.25 0 0 0 3.57 1.17 6.56 6.56 0 0 0 3.61-1.27c.17-.2.29-.58-.66-.32a8.44 8.44 0 0 1-3 .4 23.51 23.51 0 0 1-3-.29s-.75-.33-.52.31zM169.11 35.74s.23.43 3.09.72 5.62 2.11 5.85 2.13.61 0-.09-.63a19.49 19.49 0 0 0-4.64-2.88c-1.15-.33-4.41-.64-4.21.66zM134.61 38.24c.06.17.36 0 1.74-.69a14.19 14.19 0 0 1 5-1.12c1.24 0 2.71 0 3.14.06s1.93-.69.2-1.33-5.71.2-7 .75a9.1 9.1 0 0 0-2.74 1.64 1 1 0 0 0-.34.69zM148.81 45a9.44 9.44 0 0 0-2.74-3 6.68 6.68 0 0 0-4.64-1.36c-1.24 0-3.48.2-4.46.84a6.63 6.63 0 0 0-2.06 2.67 1.12 1.12 0 0 0 .23 1 4 4 0 0 0 .84.78 12.39 12.39 0 0 0 2.91 1.25 15.75 15.75 0 0 0 5.45 0c1.14-.25 2.71-1 3-1s1.07.2 1.28 0 .6-.39.19-1.18zm-9.28 1.44a2 2 0 0 1-1.15-.18 9 9 0 0 1-1.76-1.2.79.79 0 0 1-.22-.55c0-.27.43-.89.91-1.49a3.4 3.4 0 0 1 1.22-.87c.43-.19.61-.13.56 0a3.12 3.12 0 0 0-.49 1.8 2.91 2.91 0 0 0 1.18 2.22s.06.25-.25.28zM144.8 44a1.94 1.94 0 0 1-1.16 1.75 3.23 3.23 0 0 1-2.59.14 2.21 2.21 0 0 1-1.3-1.47 2.45 2.45 0 0 1 .19-1.86.81.81 0 0 1 .37-.29.47.47 0 0 1 .25 0c.36.16.25.32.23.39s.06 1.56.06 1.56a1.62 1.62 0 0 0 1.31.87 1.35 1.35 0 0 0 1.4-1 1.53 1.53 0 0 0-.13-1 .52.52 0 0 1 .66-.66c.62.21.74 1.08.71 1.57zm2.8 1.69c-.19.09-.57-.19-1.08-.19a3.39 3.39 0 0 0-1.22.36c-.11 0-.2 0-.16-.12a3.2 3.2 0 0 0 .56-1.4 2.86 2.86 0 0 0-.43-2.1 6.15 6.15 0 0 1 2.13 2.25c.37.71.38 1.09.19 1.18z" fill="#692f23"/><circle cx="141.12" cy="43.39" r=".71" fill="#fff"/><path d="M177.63 44.21a27.48 27.48 0 0 0-2.27-2.09 7 7 0 0 0-2.58-1 9 9 0 0 0-5.57.13c-1.37.62-2.56 3-2.65 3.66a2 2 0 0 0 0 1c.14.64.81.47.84.47a7 7 0 0 1 1.87.18l3.14.8a10 10 0 0 0 4.29-.15 6.8 6.8 0 0 0 3.3-1.84c.37-.37 0-.75-.37-1.16zm-8.46 2.08c-.56-.14-2-.85-2.57-.93a1.87 1.87 0 0 0-.8.09c-.33 0-.18-.47-.18-.47l.24-.53a5.65 5.65 0 0 1 1.56-1.67 5.37 5.37 0 0 1 1.46-.77c-.05.1-.29.32-.38.5a3.29 3.29 0 0 0-.31 1.61 2.92 2.92 0 0 0 1.07 2.19zm5-2.12a2.2 2.2 0 0 1-1.47 1.94c-1 .27-2.54.24-3.12-1a2.39 2.39 0 0 1-.09-2.3s.15-.25.36-.26.32 0 .49.15.15.5.05.88a1.21 1.21 0 0 0 1 1.53 1.31 1.31 0 0 0 1.67-1c0-.36.08-.9.53-.9s.69.21.6.96zm2.72.89a14.54 14.54 0 0 1-2.23 1.16.22.22 0 0 1-.12 0c-.2-.1.35-.46.59-1.54a3.22 3.22 0 0 0-.06-1.8c.47.33 1.35 1 1.78 1.35s.21.65.06.83z" fill="#692f23"/><circle cx="170.37" cy="43.36" r=".7" fill="#fff"/><circle cx="151.98" cy="78.17" r=".6" fill="#692f23"/><circle cx="156.13" cy="77.66" r=".59" fill="#692f23"/><ellipse cx="159.82" cy="79.47" rx=".48" ry=".59" fill="#692f23"/><circle cx="163.95" cy="77.78" r=".63" fill="#692f23"/><circle cx="168.04" cy="78.26" r=".62" fill="#692f23"/><circle cx="171.76" cy="76.18" r=".6" fill="#692f23"/><circle cx="160.46" cy="83.93" r=".66" fill="#692f23"/><circle cx="165.77" cy="86.29" r=".66" fill="#692f23"/><circle cx="161.15" cy="91.6" r=".66" fill="#692f23"/><circle cx="156.19" cy="95.29" r=".66" fill="#692f23"/><circle cx="161.21" cy="99.3" r=".66" fill="#692f23"/><circle cx="165.86" cy="94.71" r=".66" fill="#692f23"/><circle cx="165.63" cy="102.59" r=".66" fill="#692f23"/><circle cx="156.22" cy="87.27" r=".66" fill="#692f23"/><path d="M178.28 184.26a30.75 30.75 0 0 0 4.85-1.35c1.23-.62 3.42-1.92 3.88-2.12s.46.15-.35 1a6.44 6.44 0 0 1-3.5 2.46 12.5 12.5 0 0 1-5.19.62c-.27-.11-.58-.57.31-.61zM167.79 81.64h-.01.01zM184.87 218.67z" fill="#692f23"/><circle cx="139.46" cy="159.6" r=".85" fill="#692f23"/><circle cx="146.24" cy="154.75" r=".85" fill="#692f23"/><circle cx="151.86" cy="160.84" r=".85" fill="#692f23"/><circle cx="157.87" cy="156.06" r=".85" fill="#692f23"/><circle cx="170.11" cy="155.75" r=".85" fill="#692f23"/><circle cx="176.96" cy="160.6" r=".85" fill="#692f23"/><circle cx="183.12" cy="155.37" r=".85" fill="#692f23"/><circle cx="188.98" cy="158.53" r=".85" fill="#692f23"/><circle cx="193.29" cy="152.6" r=".85" transform="rotate(-35.54 193.29 152.593)" fill="#692f23"/><path d="M237.94 229.58a2.18 2.18 0 0 0-.74-1.46s-7.92-6.29-9-6.78a6 6 0 0 0-2.57-.34l-16.33 4.17 1.14-63 .13-7.26s1.65 0 4.32-.14a7.28 7.28 0 0 0 4.81-1.88 32.51 32.51 0 0 0 2.33-4.07c.31-.65 2.18-5.48 2.36-6.15a12.29 12.29 0 0 0 .23-4c-.17-1-.66-3-.86-3.75 0-.1 0-.2-.08-.32a42.67 42.67 0 0 0-4.21-8.25 30 30 0 0 1-1.76-4.1c-.48-.94-1-1.62-1.65-3a23.88 23.88 0 0 1-1.48-5.23 43.19 43.19 0 0 0-2.56-6.83 7.72 7.72 0 0 1-.68-2.22s.31-36.13.17-36.7-.94-1.11-2.16-.8-1.25 2-1.25 2-1 31-.85 31.24c0 0-2.87-3.44-4.21-5.18s-5.12-7.48-8.25-10.3a35.19 35.19 0 0 0-11.24-6.66c-1.79-.94-3.35-.5-3.21-.89a47.42 47.42 0 0 0 7.66-1.46 22.47 22.47 0 0 0 6-2.85 5.27 5.27 0 0 0 .93-.61 18.28 18.28 0 0 0 3.68-2.39c1-1 4.87-2.13 7.5-5.77s5.74-6.26 6.17-7.64 1.5-3.92 2-5.62a43.47 43.47 0 0 0 .92-10 23.25 23.25 0 0 0-1.24-7.27c-.72-1.45-5.16-9.27-6.96-12.07s-7.3-7.85-8-8.71a53.15 53.15 0 0 0-8-6.05 26.18 26.18 0 0 0-6.66-2.54l-3.45-1a45 45 0 0 0-5.23-2.12 20.07 20.07 0 0 0-5.11 0A7.35 7.35 0 0 0 166 0s-3 .5-3.81.54c0 0-1.81.23-2.46.27s-4.92-.12-6.5 0a29 29 0 0 0-9.12 2.47v-.05A66.58 66.58 0 0 0 137.19 7a84.07 84.07 0 0 1-7.19 4.54 78.4 78.4 0 0 0-6.85 5.08 44 44 0 0 0-7 9.19 43.2 43.2 0 0 0-3.54 9.88 35.44 35.44 0 0 0-.35 5.57l-.15.32s0 3.15.15 5.88a43.4 43.4 0 0 0 3 11.54 27.88 27.88 0 0 0 5.11 7.73c2.08 2 2.5 2.73 2.85 3 0 0 1.62 1.27 3.11 2.58a18.1 18.1 0 0 0 4.31 2.62c.73.31 4.46 2.35 5.15 2.62a15.57 15.57 0 0 1 2.58.85 2.46 2.46 0 0 0 1.46.2 3.36 3.36 0 0 0 .92.26 19.42 19.42 0 0 0 2 .17c-1.66.66-5.15 1.82-7.27 2.92-3.86 2-5.46 4.61-6.94 5.61-1.22.82-19.84 8.31-23.25 12.4s-2.42 11-1.85 13 3.69 11.88 3.69 13-2.37.92-2.54 3 3.06 7.5 3.69 8.42 2 1.1 2.83 1.85.81 2.13 1.79 3.46a6.05 6.05 0 0 0 3.35 2.25c.88.21 3.66.09 7.27-1.15a2.08 2.08 0 0 0 1.11.51v.81s-.58-.65-2-.19a2.22 2.22 0 0 0-1.65 1.58 2.1 2.1 0 0 0-2 .77 2.13 2.13 0 0 0-.35 2.08 2.48 2.48 0 0 0-1.27 2.38 4.27 4.27 0 0 0 3 4.38 44.74 44.74 0 0 0 6.38 1.65c1.58.11 4.55 0 5.9-1a34 34 0 0 0 .59 5.55c.22.65.14.72 2.08.88.09 0 .66-.08.74.43a30.21 30.21 0 0 0-.2 3.26c.12 1.65 0 5 .19 6.08a54.45 54.45 0 0 1 .77 6.38c.08 2.46.27 7.31.23 9.84s.35 6.38 1.12 8.08a6.28 6.28 0 0 0 2.88 3.19c.88.35 1.35.5 1.69 1.08a19.49 19.49 0 0 1 .77 4.35 19.92 19.92 0 0 0 1.35 6.11c.92 1.85 1.12 2.5.85 2.85s-1 0-2.08.65a24.06 24.06 0 0 0-2.69 2.5c-.85.73-2 1-3.31 2.27a6.57 6.57 0 0 0-2 3.23 12.06 12.06 0 0 0 .23 4.54 6.2 6.2 0 0 0 3.88 4.42 31.56 31.56 0 0 0 6.08 1.58c1.58.27 10.65.31 12.19.27a18.32 18.32 0 0 0 4.5-.58 3.65 3.65 0 0 0 2-2.25 8.13 8.13 0 0 0 1.58 1.82c.88.69 5.31 1 8.5 1h.42l5.58-.36c-.86.27-1.53.48-1.46.48-.63.44-1.91 1.44-2 2.32a8.65 8.65 0 0 0 .91 4.46 84.26 84.26 0 0 0 8.09 8.6 4.62 4.62 0 0 0 2.54 0s47.11-15.52 48.14-15.92a1.77 1.77 0 0 0 1.17-1.2s.03-2.18-.03-3.09zm-18.58 2.34c.46.94-1 1-1.06 1.11s-13.26 3.77-13.86 4-2.37.69-3 .14-3.17-3.43-3.17-3.43-1.06-1.14-.83-1.46 6.91-2.33 7.58-2.53v1c.23 1.32.43 2.69 2.4 2.12a2.55 2.55 0 0 0 1.8-2.63v-1.68c.72-.25 3-1 4-1.27a3.54 3.54 0 0 1 1.89 0s3.79 3.71 4.25 4.63zm-2.57-5.32c.63-.46 8.86-2.2 9.55-2.26s4.49 2.63 4.86 3.57-1 1.26-1 1.26-8 2.66-8.89 2.66a2.89 2.89 0 0 1-1.16-.25c-.38-.45-1-1.19-1.5-1.9a13.24 13.24 0 0 0-2.34-2.23c-.09-.24-.03-.45.47-.84zm-16.29 11.28c-1.31.45-9.89 3.8-10.81 4s-1.06 0-1.63-.46-4.29-3.94-4.29-3.94-.34-.43.54-.8 10.55-3.29 11.21-3.37a1.37 1.37 0 0 1 1.13.27 34 34 0 0 0 3.19 3.74zm-19.26-8.21a18 18 0 0 0 3.46-.08c1.62-.23 3-1 3-.73a4.23 4.23 0 0 1-.27 1.15 3.76 3.76 0 0 1-1.19 2.15c-.47.1-1.59.48-2.27.7a4 4 0 0 1-2.46-.28 2.67 2.67 0 0 1-.5-1.13h.08a5.25 5.25 0 0 1 .15-1.78zm-8.61-12.77a32.14 32.14 0 0 1 3.61-.58v1a33.31 33.31 0 0 0-4.48 1 .12.12 0 0 0 0-.06 1.16 1.16 0 0 1 0-.51h.13c-.01 0 .11-.61.73-.84zm-.19 2.38a14.92 14.92 0 0 1 3.69-.9 4.91 4.91 0 0 1-.07.56 8.46 8.46 0 0 0 .31 2.37l-5.93 1.32a8.23 8.23 0 0 1 .5-1.92c.3-.19.99-1.11 1.49-1.42zm2.77-4c-1.5.19-4.73.69-6 .73a2 2 0 0 1-2.12-1.31c-.5-.88 0-1.69-.27-2.81 0-.17-.07-.38-.1-.63.69.49 2.85 1.34 6.37 1.86a27.28 27.28 0 0 0 9.58-.5 3.77 3.77 0 0 1-1.92 2.12c-1.4.51-4.05.32-5.55.51zm-8.38 5.5c-.54.23-.38-.35-.38-.35a4.82 4.82 0 0 1 1.92-2.67 2.81 2.81 0 0 1 2-.45l-.15.92a4.86 4.86 0 0 0 0 .62l-.07.18c-1.05.51-2.91 1.54-3.33 1.72zm2.6 0a13.46 13.46 0 0 0-.45 1.53 4.36 4.36 0 0 0-.06.5 3.73 3.73 0 0 1-1.38.29h-.09c-.58-.08-.54-.65-.27-1.08a8.73 8.73 0 0 1 2.24-1.26zm-6.1 5.49a.39.39 0 0 0 .1.22 1.09 1.09 0 0 1 0 .47c-.08.46-1.08.77-1.38.85 0 0-1.54.88-1.5-.88 0-.64.11-1.47.17-2.33a7 7 0 0 0 1.6 0 3.15 3.15 0 0 0 1.35-.39 4.6 4.6 0 0 0-.35 2.04zm-4.33-8.83l-.12-.12h.23s.5-.38 2.23.35a3 3 0 0 1 1.5 1.69 5.55 5.55 0 0 1 .28 1.58c-.65-.39-2.41-1.45-3.77-2.12.15-.15.3-.66-.35-1.38zm-7.37-.24h-3.67a2.83 2.83 0 0 0 .58-.73 1.46 1.46 0 0 1 .68-.53 16.39 16.39 0 0 1 1.85-.07h-.22s1.84.3.83 1.33zm-2.32-2.37c-1.23 0-2.12-1.77-2.5-2.35a11.31 11.31 0 0 0 1.75.54 37.39 37.39 0 0 0 10.84-.35 8.63 8.63 0 0 0 3.6-1.32c-.13 1.67-.36 3.4-1.2 4.25v.13l-.09-.09s-.65.58-3.81.19-7.31-.96-8.54-1zm8.34 3.31l-.07.05a39.52 39.52 0 0 0-3.95-.76 4.28 4.28 0 0 0-.23-1.26c1.24.24 2.6.57 3.16.71a1.44 1.44 0 0 1 1.14 1.26zm-4.5 3c.31-.33.41-.25.54-1a7 7 0 0 0 0-1.69 23.19 23.19 0 0 1 2.81.57 4.26 4.26 0 0 1 2.76 3.67l-.38-.13a40.43 40.43 0 0 0-5.77-1.2c.08-.12.07-.2.09-.22zm7.17-11a36.23 36.23 0 0 1-11.48-2 59 59 0 0 0 7.73.06 13.94 13.94 0 0 0 6.61-2 29 29 0 0 1 0 3 7 7 0 0 1-2.8.94zm1.44 11.58a8.45 8.45 0 0 1 .8.45c.28.39.37.85-.22 1a5.14 5.14 0 0 1-1.64-.13 5.35 5.35 0 0 0-.43-2.15c.73.35 1.25.68 1.55.82zm-9.69-67.18c.62.05 3 7.33 3.54 8.88-1.58-.08-5.61-.59-8.74-.88 1.31-2.27 4.63-8.06 5.26-8.01zm-6.83 6.56c-.62-2.06-2.75-7.71-3.21-8.91l2.73.2c.75 0 3.54.37 6 .64-.88 1.53-3.74 6.52-4.47 8-.8 1.69-.99.06-.99.06zm8.27-7.81c.75.08 2.2.15 2.2.15.91 0 4 .18 5.53.18h1.2c-1.12 2.54-2.22 5.42-3.32 7.3-1.22 2.07-1.53 2.42-2 1.9s-2.74-7.5-3.55-9.55zm10.21 1.49c.43.32 4.67 7.71 5.24 8.71-3.9.09-7.37.09-9.91 0 1.77-1.67 4.3-9.05 4.73-8.73zm27.75 4.67a5.64 5.64 0 0 1-2.26 1.45c-1.57.42-3.17.81-4 1 1.2-2.86 3.87-9.34 3.87-9.34s3.43 5.66 2.45 6.87zm-1.2-8.3a9.82 9.82 0 0 0 4.08-1.5 7.59 7.59 0 0 1 .19 1.48c.15 2.35.4 3.77.44 5.78a3.72 3.72 0 0 1-.23 1.65c-.32.25-.75.43-1.08-.09-.46-.82-2.57-5.57-3.34-7.34zM183.8 161c-2.08-1.67-5.83-6.89-6.63-7.89L179 153a61.27 61.27 0 0 0 8.86-1.3 51.18 51.18 0 0 1-4.06 9.3zm-1 1.27a86.21 86.21 0 0 1-11.6 1.15c1.51-1.54 4.94-8.83 4.94-8.83zm-12.3-.09c-.68-.06-2.08-2.65-3.3-4.7-1-1.63-1.61-2.9-2.13-3.93 2.85-.07 7.16-.16 10.17-.28-1.98 3.95-4.13 8.95-4.73 8.9zm-4.92 2.74s5.09.25 9.77.08a51.4 51.4 0 0 0 10.27-1.35c1.73-.25 4-.93 5.87-1.25.19 0 .47.31.47 1.52v7.23a15.79 15.79 0 0 1-2.19 8.34s-.31.19.54.65.62 4.27.62 5.5.77 5.61-.73 9.23-2.2 4.23-3.85 5.13c0 0-.85.46.19-.81a10.74 10.74 0 0 0 2-5.81c.15-2.35.08-4.19-.23-4.11s-.62 5-1.5 6.61a11.45 11.45 0 0 1-11.08 6.31c-1.12-.08-2.58-.12-3.38-1.92a16.4 16.4 0 0 1-1.08-4.08s-.42-1-.12 1.19a10.72 10.72 0 0 0 1.23 4.42 4.8 4.8 0 0 1-4.11-2.58H168l.27-.16s-1.19-3.5-1.69-5.85a70.88 70.88 0 0 1-1.54-12.19c-.04-4.53.55-16.11.55-16.11zm9.69 43.46s3.73.12 5.19 0a33.59 33.59 0 0 1-7.31 2.19c-2.55.25-5.49-.29-6.6-1.06-.07-1-.11-2.23-.13-3.24.93.73 4.11 1.91 8.86 2.1zm-8.79-4.78a7.35 7.35 0 0 1 .52-2.6c.38-.69 1.23-.65 2.12.42s4.61 1.92 7.88 2.15a17 17 0 0 0 5.9-.75 16.82 16.82 0 0 1-5.36 1.63 22.44 22.44 0 0 1-8.15.31c-1.68-.3-2.27-.39-2.9-1.17zm3.9 7.62c.69.15 5.85.15 8.5-1s4.81-2 5.42-2.58c-.26.95-.59 2.16-.93 3.23a21 21 0 0 1-12.53 1s-2.15-.5-2.35-1 1.21.19 1.9.34zm12.08-4.11a62.37 62.37 0 0 1-11-.27 9 9 0 0 1-3.44-1.3 37.62 37.62 0 0 0 6.98.46 26.93 26.93 0 0 0 8.54-2.23 10.76 10.76 0 0 0 1.26-.88 10.79 10.79 0 0 1 .1 2.9 3 3 0 0 1-2.43 1.31zm-4.54 8.84a6 6 0 0 1 2.73 0h.11l.86 1.16c-1.5 0-2.92.08-3.95.14a1 1 0 0 1-.3-.68s.06-.57.56-.63zm1 2.15h.3a19.39 19.39 0 0 1 3.56.12 2.18 2.18 0 0 1 .86 1 14.45 14.45 0 0 0 1 1.65h-.86c-2.73.08-5.15.19-5.15.19s-1.63-2.54.3-2.96zm4.65-.92a.94.94 0 0 1-.38-.31c-.31-.52-.62-.91-.82-1a7 7 0 0 1 3 .38c1.08.58 1.23 1.23 1.23 1.23a20.64 20.64 0 0 0-3.02-.3zm6.93 3.84s.51.69-.66.54a34.58 34.58 0 0 0-3.61-.55l-1.34-2.26c.11-.03 3.61.25 5.62 2.25zm-1.15 2l2.54.38a2.48 2.48 0 0 1-.62 1.88 4.13 4.13 0 0 1-1.92 1.46c-.46 0-.54-.38-.73-.77s-1.19-3.19-1.19-3.19zm1.57 7.57l-.38.25-2.11.74c.11-.21.25-.49.42-.87a6 6 0 0 0 .46-2.32 7.74 7.74 0 0 0 3-1.68s.39 2.66-1.38 3.85zm3.15-5.27a6.66 6.66 0 0 0-2.19-4.92 17.69 17.69 0 0 0-3.5-2.35 23.79 23.79 0 0 1-1.69-2.12 4.57 4.57 0 0 0-2.2-.8H184.16c-.31-.07-.68-.25-.51-.77.26-.81.83-1.2 1.22-2.41a23.68 23.68 0 0 0 1.15-5.15c.12-2.15.31-4.27.31-4.27a1.1 1.1 0 0 1 .46-1.27 7.08 7.08 0 0 0 3.58-2.73c1.69-2.23 2-7.11 2.12-8.58s-.15-11.23.23-13.31a42.88 42.88 0 0 0 .88-7c.21-3.5-.37-6 0-7.33a5 5 0 0 0 3-.94c.35-.38.15-6 0-8-.06-.85-.22-3-.38-5.33a9.81 9.81 0 0 1 1.32 1.36c.74 1 2.42 2.93 3.24 3.93s4.61 2 5.23 2a.31.31 0 0 0 .19 0c-.07 4.17-.15 9.2-.18 11.34v.31s-.88 45-1 59.57l-12.21 3.72c1-1.27 1.3-2.99 1.27-4.98zm8.08-92.78a3.63 3.63 0 0 1 2.56.85 4.16 4.16 0 0 0-3.36 1.19c-.6.63-.06 2.22-.06 2.22a2.29 2.29 0 0 0-.8 1.22 21.79 21.79 0 0 0-.43 4.89c.06 2.11 0 3.9 1.14 5.06a7.4 7.4 0 0 0 2.28 1.62s.26 0-.11-.26a5.75 5.75 0 0 1-2.33-4.38 7.52 7.52 0 0 1 .36-3 7.5 7.5 0 0 0 .53 1.4 4.17 4.17 0 0 1 .51 1.71 2.51 2.51 0 0 0 1.59 2.79c1.6.77 2.16 1 2.3 1.07 0 .63-.05 2.59-.09 5-.21 0-3-.26-4.25-1.19s-3.36-4.47-4.15-6a12.47 12.47 0 0 1-1.37-3.7c-.2-1.08.6-5.52 1.31-6.49s1.56-1.71 1.88-2.33a3.56 3.56 0 0 1 2.5-1.7zm-1.42-4.5c.83-.31 3.9.57 4.89.63a3.36 3.36 0 0 0 1.27-.14c0 1.68 0 3.45-.31 3.67a.87.87 0 0 1-.53.14s-.54-.15-1.28-.38a14.88 14.88 0 0 1-3.47-1.49c-1.36-1.01-1.39-2.15-.56-2.47zm5.7 79.76a1.42 1.42 0 0 0 .66.2 4 4 0 0 0 1.08 0c-.25 12.6-.44 22.39-.45 22.8 0 1.17-.34 1.29-1 1.23s-.63-.89-.63-.89zm1.77-1.29a1.69 1.69 0 0 1-.74.15 2.89 2.89 0 0 1-1-.3c.19-12.71.57-27.72.78-38.49s0-1.74 0-4.12v-.81c0-4.87.1-11.73.17-12.71.05-.73.32-1 .57-1.1h.56a.81.81 0 0 1 .6.78l-.06 13.49h.06c-.14 11.52-.66 28.87-.94 43.07zm3.06-97.51s1.62 4.64 2.5 6.88.23 2 .23 2a7.51 7.51 0 0 0-2.83-1.24zm-.26 18.16l.11-9.11c0 .24.06.41.06.41a5.37 5.37 0 0 1 3.58 1.93 17.83 17.83 0 0 1 3.07 5.46c.54 1.59 2.3 4.1 3.3 6.49l1.42 3.41a14.69 14.69 0 0 1 .8 6.51 23.83 23.83 0 0 1-2.3 6.69c-1 1.66-3.06 4.47-5.46 4.89a26.79 26.79 0 0 1-5.18.28s0-4.13-.12-5h.15c1.05-.26 3.9-.94 4.44-.46s.4.68.17 1 .65.2 1.88-1 1.62-3.44 2.5-5.75a8.25 8.25 0 0 0 .34-5.58c-.46-1.25-1-2.7-1.31-3.7a7.93 7.93 0 0 0-1.19-2.84c-.83-1.25-4.1-3-6.23-3.13H211zm-2-55.31c.06-.91-.23-3.36.91-3.3s1 1.31 1 1.31l-.46 39.55s-.68 23-1 23.44-1.65.46-1.65.46 1.13-60.55 1.2-61.46zm.46 62.53a4.92 4.92 0 0 0 2.79-1.48c.54-.71.46-1 0-1.14s-.46.2-.91.57-.57.06-.57.06l.19-3.41c.1-.12.35-.26 1-.17 1 .14 4.41 1.71 5.46 3.58s.14 2.67.4 3.58 1.39 2.39 1.19 3.64a5 5 0 0 1-1.19 2.33c-.28.43.2 1.59-.11 2.33a4.66 4.66 0 0 1-.8 1.25 3.2 3.2 0 0 1-2 2.33c-1.68.57-5.69.51-7.17.4a11.13 11.13 0 0 1-3.53-1.14c-.77-.31-1.48-1.22-1.14-1.88s1.79.69 3.3 1a5.34 5.34 0 0 0 2.13.12c.48 0 3.71-.09 5.06 0s1.15-.67.63-1a6.76 6.76 0 0 0-3.76-.14 24.45 24.45 0 0 1-2.59.34h-.1a17.81 17.81 0 0 1-2.81-.72 3.6 3.6 0 0 1-2.62-2.28c-.48-1.34.51-1.17.8-1h.07c.27.1 1.29.47 1.61.63a5.67 5.67 0 0 0 3.53 1 7 7 0 0 0 3.53-.65 12.1 12.1 0 0 1 3-.11c.7 0 .83-.27.4-.85s-1.74-.53-2.48-.48-2.18.78-3.1.91a5.19 5.19 0 0 1-3.33-.37 11.77 11.77 0 0 0-2.08-.91.83.83 0 0 0-.34-.06 2.42 2.42 0 0 1-1.54-.88c-.48-.8-.44-1.47 0-1.85a.63.63 0 0 1 .68.09 10.62 10.62 0 0 0 3.73 1c2 .27 6.4-.87 7.2-1s1.79 0 2.16-.11.37-.84 0-1.11-1.64.36-2.93.51a45.12 45.12 0 0 1-7.51.31c-1.63-.12-2.25-.56-2.48-.88 0-.07 0-.18-.14-.34-.8-.91-.6-1.48.34-2s4.76.3 6.01-.02zM175 76.87h-.2l-.25-3a52.58 52.58 0 0 0 9.13-5.21 45.88 45.88 0 0 0 6.88-7s-.5 1-1 2.23-.23 2.5-1.46 4.92-4.38 4.19-6.46 5.35a55.57 55.57 0 0 1-6.64 2.71zm-5.8-1.24c1.31-.38 2.65-.81 3.67-1.15a4.36 4.36 0 0 1 .1 2.82 2.6 2.6 0 0 1-1.16 1 6.26 6.26 0 0 0-2.62-2.67zm-16.53.49c.13.25 1.87 3.53 2.46 4.54a12.18 12.18 0 0 1-2.25-.52 7.72 7.72 0 0 1-3.21-1.84 34.59 34.59 0 0 0 2.99-2.17zm-3.53 1.15v-.1c-.06-.44-.12-1.39-.14-1.82l.14.05a16.89 16.89 0 0 0 1.82.41c-.55.42-1.43 1.11-1.83 1.47zm12 17.65a22.32 22.32 0 0 1-4.93-3.35l4.31-3.47a41.66 41.66 0 0 0 5.92 2.2 38.84 38.84 0 0 1-5.27 4.63zm5.7-3.1c.06 1.62.13 3.39.17 5a19.2 19.2 0 0 1-4.56-1.34 26.14 26.14 0 0 0 4.42-3.65zm-6.37-5.19l-.1-.06a21.21 21.21 0 0 1-3.73-2.49 11.59 11.59 0 0 1-1.37-2c2.42.17 6.64.31 8.36.31.13 0 1.5-.28 3-.56-1.17.83-3.23 2.29-3.72 2.61s-1.58 1.4-2.42 2.2zm.85-9.87a32.45 32.45 0 0 0 5-.44 31.78 31.78 0 0 1-2.2 3.53 36.37 36.37 0 0 0-2.78-3.08zm1.75 4.06a40.83 40.83 0 0 1-6.31 0l3-3.93c.8.43 2.81 3.2 3.34 3.94zm-6.88-1.23c-.09-.25-1.4-2.34-2-3.23 1.21.17 2.41.31 3.28.35h.69c-.41.83-1.85 3.16-1.94 2.89zm-1.59 3.63a11.85 11.85 0 0 0 4.88 4.27l.31-.24a1.36 1.36 0 0 1-.31.24l-4.4 3.51c-.1-2.82-.53-6.28-.56-7.11-.05-1.04.11-.66.11-.66zm.4 10.09v-.89c.55.45 3.74 2.94 4.53 3.39h.09c-1.35.73-3.48 1.65-4.31 2a18.86 18.86 0 0 1-.31-4.5zm1.08 5.76a36.77 36.77 0 0 0 5-2.6 35.56 35.56 0 0 0 5.3 1.68s-3.61 4.08-5.15 4.61zm4.6 5c-2-.6-4.05-1.64-4.41-2.52a11.37 11.37 0 0 1-.38-1.2c1.11.82 3.89 2.98 4.84 3.65zm6.41-5.07c0 2.25 0 4-.23 4.2a6.09 6.09 0 0 1-5 1.15l-.6-.14c.98-.51 4.8-3.39 5.83-5.21zm-.31-12.29v2.34a44 44 0 0 1-5.12-1.78l5.85-4.71a18.52 18.52 0 0 0-.73 4.1zm-1.52-6.24c.76-1.12 2.35-4.19 2.35-4.19a11.43 11.43 0 0 1 3 2.54c-.24.08-.45.15-.61.22-.6.2-3.08.96-4.74 1.38zm-5.3-5c-10.46.15-15.84-3.19-20.38-6.27s-8.5-8.38-9.77-10.38a45.43 45.43 0 0 1-2.73-5.58 4.47 4.47 0 0 1-2.81-1.65c-1.5-1.62-2.19-4-1.69-5.38a2.89 2.89 0 0 1 2.27-1.54 11.84 11.84 0 0 1-.92-3.61 6 6 0 0 1 .95-4 8.79 8.79 0 0 1 2.19-1.35c.82-.31 12.46-2.35 13.19-2.62a21.8 21.8 0 0 1 4.12-1.09 9.25 9.25 0 0 0 5.5.62s.19-3.5.77-4.61 1.15-4.35 2.08-5.5a9.9 9.9 0 0 0 .81 3.11 23.59 23.59 0 0 1 1.62 6.11 10.57 10.57 0 0 1 0 2.46c-.12.46.73.77 2-.27s7.81-2 9.58-2.08a17.06 17.06 0 0 1 7 .81c3 1.08 8.54.54 9.38.27a8.68 8.68 0 0 0 2.85 2.81A6.75 6.75 0 0 1 189 39c.38.81.5 3.5 2.5 4.85a6.53 6.53 0 0 0 1.12.69c.35.12.73-.27 1.19-.62a3.4 3.4 0 0 1 2.85-.27 3.36 3.36 0 0 1 2.5 3.35c.12 2-.31 4.54-2.27 5.65A11.7 11.7 0 0 1 194 54a21.58 21.58 0 0 1-.77 2.42.41.41 0 0 0 0 .21c-.69 1.37-1.42 2-3.3 4.44s-5.5 5.58-9.11 8.19-10.4 6-20.82 6.15zM125.5 33.3a1.35 1.35 0 0 0 .31.37c.21.4.51.87.77.94 0 0-1.69 1.38-2.23 2a.48.48 0 0 0-.15.26c-1.58 1.35-1.54 4.79-1.54 5.55s-.27.73-.27.73a9.41 9.41 0 0 1-1.15-2.92c-.54-2.08-.35-6.61-.19-8.11a19.84 19.84 0 0 1 2.69-7c.64-1 1.25-1.79 1.72-2.4a27.58 27.58 0 0 0-1 5.24 9.39 9.39 0 0 0 1.04 5.34zm67.32 4.25a19.8 19.8 0 0 1 4.41.92 6.69 6.69 0 0 1 3.77 5.69 9.58 9.58 0 0 1-.52 2.37c-.31.5.12-2-1.69-3.35 0 0-.73-.73-3-.5s-3.08 1-4-.27-.85-2.85-1.54-3.61a25.83 25.83 0 0 1-2.38-3 7 7 0 0 0 1.38.63 2.36 2.36 0 0 1 1.47.81 9 9 0 0 0 2.65 2.62 8.09 8.09 0 0 0 4.29 1.14 14.84 14.84 0 0 1-4.84-3.45zm1.44 33.17a6.08 6.08 0 0 1-2.15 2.15 29 29 0 0 1-5.88 2.46 10.63 10.63 0 0 1-4 .58 13.6 13.6 0 0 0 3.31-2.15 14.51 14.51 0 0 0 4.27-5.92c.77-1.62 2.12-6.73 2.61-7.77s1.73-3.19 1.73-3.19a9.41 9.41 0 0 1 1.85-2.35 4.62 4.62 0 0 0 1.27-1.38s-.27 1.26-.37 1.85h-.06s-.23.92-.46 2.12-1.23 2.38-1.58 3.73a15.76 15.76 0 0 0 .19 5.77 5.32 5.32 0 0 1-.73 4.1zm4.4-3.89a4.52 4.52 0 0 1-.82 2.13c-.55.69-1.33 1.53-1.33 1.53a3.35 3.35 0 0 0 .06-1.53c.16-2.16-.77-4.39-.84-6.35a6.6 6.6 0 0 1 1.12-3.81s.19.38 1.12 3.15.87 3.64.69 4.88zm-.67-9a10 10 0 0 1 .23-3.06l.08-.05a16 16 0 0 1 1.5-3.5 17.65 17.65 0 0 0 1.73-4.11c.37 2.49-.49 8.27-.49 8.27a20.23 20.23 0 0 0 1.41-3.75 24.19 24.19 0 0 0 .26-6.32 26.27 26.27 0 0 0-1.12-4.61 3.65 3.65 0 0 1-.2-2.42c.06-.63.84-4.5-.12-7.7 0 0 1.24.78 2.6 3.72s2.31 3.84 3.29 9.26.37 9.06.06 9.78a11.76 11.76 0 0 1-3.2 4.61 20.68 20.68 0 0 0-4.1 4.81c-.47-1.31-1.7-4.04-1.92-4.96zm10.29-13.9c-.75-4.12-2.6-9.17-4-11.19l-.53-.77c2 1.89 5.25 5.67 6 9.13 1 4.56-.17 6.75-.4 8.16a13.62 13.62 0 0 1-.84 2.7 29.75 29.75 0 0 0-.23-8.06zM181.37 4.59c1.21.23 2.68.61 2.68.61s3.72.92 9.78 5.34S205.25 22 205.77 22.41s4.15 7 4.7 8 1.47 2.8 1.9 3.43a12.92 12.92 0 0 1 1.63 5.73 39.43 39.43 0 0 1-.2 8.85 21.58 21.58 0 0 1-2.58 7.58 49.79 49.79 0 0 1-5 6.46 43.75 43.75 0 0 1-5.8 4.93 19 19 0 0 1 3.09-7.3c2.48-3.43 4.85-4.7 6.09-7.56h-.08a27.14 27.14 0 0 0 2-7.43c0-1.1-.69-6.06-2-8s-2.68-4.05-4.52-5.1a17.69 17.69 0 0 1-3.84-3.84c-.37-.55-.66-1-.78-1.21a68.17 68.17 0 0 1-3.37-8c-1-2.94-4.87-6.58-5.77-7.5A56.86 56.86 0 0 0 185.32 7a42.34 42.34 0 0 0-4.41-2.25s-.75-.39.46-.16zm-4.72-1.78a14.61 14.61 0 0 1 3.42 2s1.87 1.25 3.06 2 3.26 2 4.15 2.68a54.83 54.83 0 0 1 5 4.9 40 40 0 0 1 4.47 7.07 44.38 44.38 0 0 1 2.86 9.06 65.3 65.3 0 0 1 .61 7.27 1.7 1.7 0 0 1-.4 1.41c-.26.17-1.53-.92-2.39-1.56a24.41 24.41 0 0 0-6.69-2.45C189 35 187 34.64 186 32.85s-.55-4-.37-5.28a49.64 49.64 0 0 0 .81-7.9 14.31 14.31 0 0 0-3.14-7.87c-.87-.89-2.12-2.3-2.26-2.37s-6-4.92-8.31-6.58c.03 0 .27-1.27 3.92-.04zm-14.81-.88a7.28 7.28 0 0 1 3.81-.73c2.5.08 3.88.92 4.92 3.08A25.37 25.37 0 0 1 172.69 17s1.19-.65.62-7.54a32.42 32.42 0 0 0-1-4.65c-.38-.73-.27-1.35.92-.58a64.17 64.17 0 0 1 7 5.77 30.14 30.14 0 0 1 4 6c1.15 2.65.87 7.47.72 8.59s-.32 5.24-1.67 6.64c-.35-.08-.38.54-1.92.77a27.17 27.17 0 0 1-5.31 0 15.44 15.44 0 0 1-3.31-.69 7.85 7.85 0 0 0-1.92-.5c-.5 0 1.54-.42 1.81-2.85s-.77-5.31-.69-5.77-.5.42-.46 2.19-.65 4.31-2.19 5.38-5.65 1.38-6.85 1.38a19.45 19.45 0 0 0-4.44 1.2c-.38.15-1.35.62-1.5-.81s-1.31-5.19-1.65-6.5a32.47 32.47 0 0 1-.85-6.46 26 26 0 0 1 .77-4.54A48.11 48.11 0 0 1 157 8.38a25.45 25.45 0 0 1 4.84-6.46zm-11.08.62a16.43 16.43 0 0 1 7.69-.5 18.77 18.77 0 0 0-4.31 3.46c-1.46 1.81-5.15 6-5.65 9.31s-.15 2.88-.15 2.88a25.69 25.69 0 0 1 1.66-4.93c.73-1.08 4.46-6.81 6.5-8s1.62-.12 1.62-.12l-.13.17a24.73 24.73 0 0 0-3.35 6.5 21.51 21.51 0 0 1-.73 2.65s-.92 4.65-1.15 5.77-1.54 2.58-2 4.15-1.46 4.08-1.46 5.42.08 2.19-.54 2.46-2.54.35-3.27-.42 0-3.54.69-4.61a17.74 17.74 0 0 1-2.42 3.15c-1.12 1-3.23 1.19-4.46 1.5a44 44 0 0 0-4.65 1.54c-.77.35-2.19 1.31-2.88 0s-.85-4.85-.85-4.85a22.06 22.06 0 0 1 .77-6.69c1-3.77 6.58-10.34 9.58-13.27s6.11-4.27 9.5-5.58zm-14 6.69A49.76 49.76 0 0 1 143.61 5h.08c-.15 0-1.31.58-3.73 2.88a42.87 42.87 0 0 0-7 8.42c-1.62 2.81-3.5 4.77-3 13.08a20.15 20.15 0 0 1 .58 3.08 2.26 2.26 0 0 1-1.31 2c-.69.19-1.62-.35-2.31-1.54a1.28 1.28 0 0 0-.33-.4 13.18 13.18 0 0 1-.71-6.37c.42-4 3.85-9.27 4.81-10.81a32.43 32.43 0 0 1 6.04-6.11zm-23 30.3a33.59 33.59 0 0 1 3.42-12.38A34 34 0 0 1 127 14.77a11.75 11.75 0 0 1 4.5-2.58s-4.15 5.15-4.85 6.69a.92.92 0 0 1 .06-.27s-4.15 4.73-5 7-2.15 5.58-2.15 7a3.35 3.35 0 0 1-.69 1.38c-.54.62-2.12 1.92-3 3a22.88 22.88 0 0 0-1.65 3.42c-.22.31-.53.51-.49-.88zM119.81 63a34.39 34.39 0 0 1-5.58-10.19 14.36 14.36 0 0 1-.19-10c.5-2 3.77-6.54 5.23-7.61a31.27 31.27 0 0 0 .27 5.35 16.72 16.72 0 0 0 1.56 4.21c-.36.29-1.38 1.35-1.91 4.14a26.09 26.09 0 0 0 .46 11.61 26.61 26.61 0 0 0 1.53 4.23c-.5-.62-.98-1.21-1.37-1.74zm14 12.61c-1.23-.35-2-1.54-3.42-3.27s-1.77-3.38-2.73-4.61-.88.35-.88.35a9.24 9.24 0 0 0 1.15 2.27c.62.73 3.31 3.85 3.31 3.85a2.52 2.52 0 0 1-1.58-.62 24.61 24.61 0 0 1-5.19-5 39.78 39.78 0 0 1-3.55-7.58c-1.92-5.27-1.42-8.38-1.42-8.38s1 7.35 4.58 10.46c0 0-3.08-5.65-3.54-10.61s.38-6.58.38-6.58.14-.31.4-.25c0 .23.05.53.06.91 0 1.31.35 3.92 1.12 5a29.55 29.55 0 0 1 2 4.19v.12a34.43 34.43 0 0 0 2.15 6.65 42.8 42.8 0 0 0 5 7.61c1.58 1.81 3.88 3.61 5.35 5.15a8.79 8.79 0 0 1 .7.85 10.52 10.52 0 0 1-3.89-.48zm6.46 1.23a67.24 67.24 0 0 1-6.85-6.11c-2.35-2.38-5.69-9-6-9.61s-2.56-6.44-2.69-6.75v-.13c-.46-1.27.46-.46.46-.46s.85 1.12 3.15 4.73A71.18 71.18 0 0 0 137 68.84c2 2.16 6.27 4.16 9.17 5.41 1.16.84 1.07 1.43 1.4 2.77s.15 1.27-1.85 1.38a11.53 11.53 0 0 1-5.45-1.53zm-23.5 66.58c-2.31-.69-1.85-1.5-2.71-3.35a4.33 4.33 0 0 0-2.42-2.31s.63-.06 2.94-.52a7.57 7.57 0 0 0 3.69-1.9c-.63.17-7.33 1.85-8.48 1.1s-1.33-2.13-1.73-3a25.72 25.72 0 0 1-1.79-3c-.46-1.27.06-1.67 1-2.13s4.73-.81 7.61-1.27a47.31 47.31 0 0 0 9.4-3.06c2.25-1 6.17-4.33 6.17-4.33s.92-.15.73 1.19a5.83 5.83 0 0 1-2 4.23c-1.85 1.85-2 1.92-2.08 2.23s.5.19 1 0 2.65-1.62 2.65-1.62.31-.5.69 0 1.19 1.73 1.19 1.73-.28 5.79-.33 8.81a18.94 18.94 0 0 1-2.91 2.59c-3.05 2.4-10.32 5.34-12.62 4.65zm6.52 2c.81-.15 1.27-.12 1.46.69s-.42.81-.42.81c-.88-.5-2 .19-2.12-.38s.27-.93 1.08-1.08zm-2.12 2.12a3.64 3.64 0 0 1 3.35 1 3.28 3.28 0 0 0 .5 1.38 3.12 3.12 0 0 1 .73 1.42c0 .31-.15 0-.15 0a2.8 2.8 0 0 1-1.65-.19c-.77-.38-1.31-1.58-2.42-1.77s-1.54-.12-1.77-.88.68-.93 1.41-.93zm9.83 8.26c-2 .65-5.35.38-7.54-.19s-4.19-1.65-4.65-3.11.31-1.92.88-2.15 2.42.46 3.54 1.54 3.19.73 4.19.46a2.34 2.34 0 0 0 1.69-1.35 3 3 0 0 1-2.19-1.31 5 5 0 0 1-1-3.81 6.25 6.25 0 0 1 .38-1.92 1.49 1.49 0 0 1-.54-1 46.71 46.71 0 0 0 6.55-3.52c.13 4.23.49 12.41.53 14.92a2.82 2.82 0 0 1-1.84 1.44zm1.73-31.26l-.81-1s.5 0 .58-2.35-.62-3.38-1.08-3.58a1.39 1.39 0 0 0-.9 0l-.1-.63a18.33 18.33 0 0 0 1.9-1.67 9.9 9.9 0 0 0 .9-1.22zm1.19 17.65c.12-2.54-.42-9.58-.31-12.42s1.65-17.81 1.42-20.34c0-2.08 1.1-8 1.15-8.48s.4-2.25-.12-2.31-2.54 6.17-2.25 8.13.58 4.33-.52 4-1.5-4.67-1.5-5.48a17.24 17.24 0 0 0-.63-3.92 15.21 15.21 0 0 0-.06 6.35 11.3 11.3 0 0 0 1.33 4.1 14.4 14.4 0 0 1-.81 1.9c-.35.58-1.79 1.79-2.6 1.73a26.19 26.19 0 0 1-6.23-2 17 17 0 0 0-5.77-1.67c-1.9-.23-1 .52-.75.87a18.93 18.93 0 0 0 4.61 1.73 30.44 30.44 0 0 1 6.4 2.37 2 2 0 0 1 .63 2.94c-.4.4-1.67 1.21-5.19 3.06a39.13 39.13 0 0 1-10.63 3.25 8.3 8.3 0 0 1-3.46-.17s-2.94-10.09-3.35-12.11-1.67-6.69.35-10.9a9.24 9.24 0 0 1 5.65-5.25c1-.52 15.85-7.51 17.19-8.19 3.46-1.75 4.5-3.92 6.92-5.77s5.77-2.13 6.81-2.42 4.26-1.7 4.78-1.93c.7.32 1.83.84 2.75 1.22.29.15 1.21.49 2.09.81a4.37 4.37 0 0 1 .92 1 5.6 5.6 0 0 1 .77 2.69c0 1.58.65 9.81.65 11.73a24.49 24.49 0 0 0 1.31 5.92c.27.85 4.54 2.62 7.77 2.92a5.12 5.12 0 0 0 4.88-2c.15-.27-.54-17.19 0-18.38s1.12-3.36 1.89-3.91a10.27 10.27 0 0 1 4.55-2.44 13.71 13.71 0 0 1 7.45.34l.63.14a20.61 20.61 0 0 1 7.68 3.7 40.76 40.76 0 0 1 8.48 8.53c2.59 3.39 2.9 4.72 3.7 5.75s4.07 4.64 4.5 5.18c.09.12.15.1.2 0l-.42 22.8s0 .63.08 1.51a2 2 0 0 1-1.16.59c-1 .14-3.07-.91-4.67-.63s-1.74 1.14-1.76 1.82a2.33 2.33 0 0 0 1.08 2s.31.26-.46.68a7.08 7.08 0 0 0-2.11 3.13c-.37 1.05-.63 2.87-1.31 3.36s-.76 0-1-.66c-.23-3.23-.62-8-.85-9.1a20.06 20.06 0 0 1-.1-3.31 17.46 17.46 0 0 1 1.69-2.58c.94-1.34 4.15-2.33 5.86-2.84s1.31-1 1.31-1 .11-.65-3.36.4-4.21 3.16-4.21 2.56a16.62 16.62 0 0 1 1.08-2.9c.51-1.45 1.59-1.88 2.33-2.67s.85-1.17.63-1.71-1 .09-2.33 1.31a10 10 0 0 0-2.9 4.67c-.23 1.37-.65 2.67-.74 2s-.46-6.23-.46-7.4.85-2.22 1.08-3.19.74-5.55.23-5.41-.57 1.19-.51 2.16-.48 3.41-1.31 2.84-2.45-8.71-2.67-9.73-.09-2.65-.46-1.93.48 7.17.74 8.53 1.39 6 1.48 7.45.4 4.72.4 4.72c0 2 .14 4.57.2 5.38.12 1.69 1.57 10.71 1.54 14.48 0 2.65.19 5.47.17 7.79a8.71 8.71 0 0 1-2.93 1.7 24.33 24.33 0 0 1-3.46 1 102.63 102.63 0 0 1-11.15 1.45c-2.9.19-9.76.49-11.27.49-1.9 0-10.76-.31-10.76-.31s-5.65-.54-6.69-.65-7.4-.36-8.56-.42c-1.81-.09-4.75-.25-5.25-1.54s-.42-4.58-.3-7.11zm.15 11.58c0-.69.12-1.58 1.69-1.81a21.5 21.5 0 0 1 3.43 0c-.71 1.27-4 5.57-4.73 6.42-.17-1.86-.37-4.2-.37-4.62zm1.77 8.42c-1.19.08-.85-.73-1-1.23a.91.91 0 0 1 0-.12c2.11-3.39 4.84-7.66 5.79-7.64s3.16 7.9 3.59 9.17h-.42c-2.02-.15-6.75-.26-7.94-.19zm5.54 31.53s-.85-1.19 0 2.27 2 4.11 2 4.11a6.41 6.41 0 0 1-2.92-2.27c-1.31-1.77-1.46-5.69-1.65-7.08s-.42-8.27-.12-9.38a2.76 2.76 0 0 1 1.15-1.58c.27-.31-.27-.42-.65-1.15a24 24 0 0 1-1.27-4.46c-.22-1-.31-5.27-.31-5.38s.08-4 .14-5.26c1.08 0 8.24.61 12.24 1s5.66.18 9.23.42c.84.06 1.92.25 3 .31a5.59 5.59 0 0 1 1.11 3.34c.23 2.5 0 13.69 0 15.42s.15 9.34-1.23 13-3 4.38-4.73 4.81a2.57 2.57 0 0 0 .58-2s-.08-1.12-.65.19a3.28 3.28 0 0 1-2.73 2c-1.12.15-5.77.42-8.92-2.73a12.58 12.58 0 0 1-4.25-5.58zm21.69 9.88a6.38 6.38 0 0 1-3.75 1.4c-6.55 0-10.09-1.19-11.43-1.77a18.53 18.53 0 0 0 6.14.36c2.38-.54 5.73-1.46 7.46-2.73s1.51 2.66 1.6 2.74zm-18 2.4a26.7 26.7 0 0 1-.15-3.28v-.17c3.1 2.39 4.5 2.35 8.07 3.09a30.38 30.38 0 0 0 8.42.12c-2.25 1.38-9.75 1.56-12.86 1.27a6.76 6.76 0 0 1-3.5-1.03zm.26 1.78c3.41 3.23 11.55 3.23 13.28 3.34s3.06-.29 2.19.12a54.56 54.56 0 0 1-6.35 1.1c-5.87.26-7.78-1-8.36-1.62a20.26 20.26 0 0 1-.78-2.95zm-2 9.32c.5-.5 1-.69 2.69-1.08 1.06-.23 1.34-.15 1.4-.06-.22.08-.33.26-.86.86a4.57 4.57 0 0 1-2.27.85h-.92s-.59-.07-.09-.57zm-4.15 4c.2-.29 1.29-1.55 5.5-2.36.58 0-1.31 2.31-1.31 2.31l1.92-.15a5.75 5.75 0 0 1 1.15-2.23c.81-.85 2.85-.58 3.58-.62a6.89 6.89 0 0 1 .74 0 1.28 1.28 0 0 1 1 1.2 2.27 2.27 0 0 1-.74 1.8c-.75-.07-1.51-.13-2.26-.15a40.21 40.21 0 0 0-8.77.62c-.86.14-.9-.23-.86-.44zm-1.42 2.37c.63-.13 1.88-.21 2.38-.27.3 0 1.11-.13 2.16-.23-.23.6-.72 2.46-.85 2.81s-.48 1.38-1.27 1c-2.86-1.37-2.47-3.34-2.47-3.34zm2.38 8c-1.42-.62-2.61-1.31-2.81-4.69v-.12a7.74 7.74 0 0 0 3.09 1.83c-.09 2.81 1.16 3.44 1.16 3.44h.06a13.59 13.59 0 0 1-1.55-.53zm8.19.77a1.51 1.51 0 0 1-1 .55c-.86 0-1.53.08-1.58.1a8.35 8.35 0 0 1-1.45-.25 7.63 7.63 0 0 1-1.43-1.14 3.71 3.71 0 0 1-.67-2.51h.21a37 37 0 0 0 6 .64 3.79 3.79 0 0 1-.13 2.54zm.81-4.31c-.77.5-5.65.42-6.15 0a2.37 2.37 0 0 1-.15-2.77 9.83 9.83 0 0 1 1.41-2.28c.92-.06 1.89-.11 2.82-.11s2 .08 3.25.19c.2.13.34.4.21.93-.36 1.11-.67 3.48-1.44 3.98zm9.27 2.35c-.31 1-.73 2-1.58 2.19a7.21 7.21 0 0 1-1.36.17h-3.5a1.89 1.89 0 0 1-1.37-1 1.31 1.31 0 0 1 .75-2h1c.7 0 3.51-.05 6-.16.11.07.15.29.01.73zm.23-2.08a36.27 36.27 0 0 1-6.46 0c-.88-.23-.88-.73-.81-1.46a34.66 34.66 0 0 1 1.23-3.61c1.93.23 3.63.47 4.19.57s1.17.3 2 .5a1.15 1.15 0 0 1 .68 1c-.07.8.04 2.8-.88 2.94zm4.61 2.77c-.11.12-.14.22-.12.3a4.64 4.64 0 0 1-2.61 1c-.58 0-1.14 0-1.14-.23a5.1 5.1 0 0 1 1-2.38c.38-.23 2-.19 2.54-.42a8.5 8.5 0 0 0 .79-.34 2.17 2.17 0 0 1-.51 2zm1.77-9.58a12.48 12.48 0 0 1-.85-3.69c-.35-2.73.23-12.77 0-14.34a9.13 9.13 0 0 0-.12-3.5 5.08 5.08 0 0 1 0-3.61 13 13 0 0 0 .81-4 24.49 24.49 0 0 1 1 4.38 17.57 17.57 0 0 1-.19 3.73c-.08.69 0 15 .08 15.69a16.37 16.37 0 0 1-.46 3.77 5.43 5.43 0 0 0-.29 1.51zM166 224c.65.12.35.5 1.38.62a4.75 4.75 0 0 0 1.46 0c0 1.06.1 2.22.2 3-.95 1-2.62-.36-2.62-.36a3.18 3.18 0 0 1-1-1.71s-.03-1.64.58-1.55zm1.58 8c-.92-1-1.42-1.08-1.81-2.85v-.2a29 29 0 0 0 3.71.67 9.75 9.75 0 0 0 .92 2.51s-1.85.87-2.78-.13zm3.19-4.08h-.09c-.19-.43-.32-.63-.41-.82a9.23 9.23 0 0 1-.14-2s0-.85.46-1 6.38-.88 6.38-.88l.03-.22a15 15 0 0 1 1.55 3.72.39.39 0 0 0 0 .08 3.85 3.85 0 0 0 .12.45.79.79 0 0 1-.43.86c-.5.35-3.42.31-5.42.23s-2-.4-2-.4zm7.46 4.54a33.66 33.66 0 0 1-5.22-.14 2.58 2.58 0 0 0-.39-.13c-.19 0-.88-1-1.38-2.73.54-.12 5.73 0 7.11.12s.85 1.65.85 1.65a1.06 1.06 0 0 1-.92 1.25zm1.65-6.08s-.54-2.42-.73-2.81-.19-.81.77-.88 4.92-.42 5.65.08.92 1.5 1.19 1.77a4.37 4.37 0 0 1 .54 2.38c-.08.81-.88 1-1.46 1.15a22.7 22.7 0 0 1-5.08-.15c-.68-.25-.83-1.51-.83-1.51zm6.64 21.15a.49.49 0 0 1-.57.12c-1.41-1.38-5.16-5.09-6-6.09a5.75 5.75 0 0 1-1.63-3.46 4.65 4.65 0 0 1 0-.7l8.31 8.7a3.14 3.14 0 0 1-.06 1.46zm-5.49-8.38c-.6-.69-1.69-1.6-1.83-2.37a1.51 1.51 0 0 1 .42-1.28c.64-.33 2.22-.94 3.32-1.35 1.45-.6 3.48-1 5.94-1.78l16.05-5v1.52c-1.23.44-7.81 2.5-8.35 2.81l-1.49.63s-10.43 2.94-11.35 3.32-1.77 1.2-1.46 1.94 4.63 4.69 5.23 5.2a3.31 3.31 0 0 0 2.6.34c.91-.17 12.09-3.89 12.55-4.2.72-.22 16.86-5.06 18-5.65.74-.24 9.58-3.07 10.78-3.64s1.14-1 1-1.52a25.29 25.29 0 0 0-4-3.89c-1.06-.8-1.74-1.2-2.54-1S215 226 215 226c-.72.05-5.17 1.32-5.79 1.49v-1.39c2.29-.61 15-4 15.77-4.14a5.84 5.84 0 0 1 2.26 0c.49.17 8.58 5.63 9.2 7.43l.08.25a2.7 2.7 0 0 1-1.45 1.06c-1 .37-43.31 14.06-44.34 14.49a5.69 5.69 0 0 1-3.57.09c-.59-.28-5.48-5.41-6.08-6.1zm54-5.72c-1.52 1-44.74 14.58-46.34 14.92a3.46 3.46 0 0 1-1.27 0 1.38 1.38 0 0 1-.1-1.42c.26-.51 1.2-.49 2.17-.69s44.34-14.15 45.08-14.44a15.44 15.44 0 0 0 2.11-.89 3.25 3.25 0 0 1-1.57 2.56z" fill="#692f23"/><path d="M166.65 1.13l-.41-.08a16.73 16.73 0 0 0-4.23.08z" fill="#692f23"/></g></g></svg>