<svg xmlns="http://www.w3.org/2000/svg" width="300" height="250" viewBox="0 0 300 250"><title>др</title><g id="Слой_2" data-name="Слой 2"><g id="ДР"><rect width="300" height="250" fill="none"/><path d="M134,74.61s1.43,4,1,4a91.06,91.06,0,0,0-10.2,3,71.35,71.35,0,0,0-10.29,6.62c-.63.72-8.14,7.43-8.95,8.14s-6.08,5-6.44,6.89-4.29,11.36-4.21,14.94.36,5,1.43,7.43,2.33,9.39,3,10.47a9.56,9.56,0,0,0,4.74,3.22c2.24.72,1,2.24,2.51,2.51s5.1.72,6.17.45,4-1.34,4.56-2.51.89-2.33,1.16-2.42,1.7,6.8,1.7,8.23-.81,8.23-.45,9.75.18,7.25.81,8.68a14.15,14.15,0,0,0,3.49,4.38c.72.36,10.38,2,11.09,2s17.45.72,19,.81,14.67-.45,16.46-.45,12.35-1.79,13.33-2.51a6.88,6.88,0,0,0,2.42-5.28c-.18-2.24-.54-6.8-.45-7.07s.89-10.11.89-10.74.27-3.22.54-3.31,3.67.72,4,.09a18.57,18.57,0,0,1,2.86-2.42s2.42-.45,3-1.07a8.3,8.3,0,0,0,2.59-3.94c.45-2,2.15-7.07,2.51-8.5s1.52-3.94,1.52-5.1-1.16-9.93-1.79-11.63-5.1-12-8.5-13.42-14.14-11.54-14.58-12-4.38-1.25-7.43-3.13a10.79,10.79,0,0,0-5.82-1.7h-3.58s.27-3.67.27-4.21V73.63s-8.05,3-13,2.86-9.93-.72-10.29-.81-3.4-.81-3.85-.89S134,74.61,134,74.61Z" fill="#fff"/><path d="M99.51,38.49s-.72-7.34,2-11.63A78.3,78.3,0,0,1,109,17.38s5.91-3.76,6.44-4.12L121,9.5a73.23,73.23,0,0,1,8.59-4.29c2.68-.89,8.33-3.89,13-3s9.74-.76,10.28-.41,1.79.72,4.65,1.25,9.31,1.43,11.81,2.15,11.81,6.26,12.71,7,10.2,10.74,12.17,14,9.48,8.23,6.26,27.74S165.9,78.94,165.9,78.94a3.28,3.28,0,0,1-3.4-.89l.54-4.29s10.38-7.87,11.27-8.95,6.8-7.87,7.52-10.74c0,0,4-2.86,4.35-4.53s.48-4.77-.84-5.37a12.82,12.82,0,0,0-3-.84,30,30,0,0,0-8.59-8.59c-5.25-3.22-3.7-3-3.7-3a38.53,38.53,0,0,1-6.68,1.19,58.44,58.44,0,0,1-8.11-1.43l-7.4,2L141.69,35l-2.62-13a11.68,11.68,0,0,0-2,2.62,59,59,0,0,0-1.43,6.92c-.12,1.19-1.07,2.27-2,1.91s-4.65-1.55-4.65-1.55-9.31,1.19-11.93,3.58-4.12,9.23-4.12,9.23-2.2-.52-3,.67a5.86,5.86,0,0,0-.12,4.89c.6.84,1.79,3.46,2.74,3.46a7.05,7.05,0,0,1,2.15.48s7.64,11.93,8.95,12.65S132,73.39,133.22,74,135,75.42,135,75.89s1.67,3.1-1.19,3.22-8.11-.24-8.11-.24-8.47-3-11.21-5.13-10-8.83-12.41-12.65-5-9.19-4.06-13,.24-7.64.84-7.87S99.51,38.49,99.51,38.49Z" fill="#df7c3c"/><path d="M138.59,22.71a7.45,7.45,0,0,0-2.06,4.12c-.27,2.42-1.07,5.91-1.07,5.91s-4.21,1.16-4.65.89-1-1.88-1.73-1.7-5.7,1.07-6.5,1.52-6.08,2.59-6.8,4.38-3,6.08-3,6.08-2.51.72-2.51,1-1.61,2.33-.54,4.47,1.61,3.85,3.85,4.65,4.47,4.65,4.74,5.73S127,69.77,127.4,70s7.25,5.28,12.08,5.55,12.44.72,14.94.36a50.83,50.83,0,0,0,9.66-2.86c2-.89,9.13-6.89,9.48-7.25s5.19-5.64,5.82-7.52A16.51,16.51,0,0,1,182,54.11s3.49-2.59,3.58-3.22,1.61-4,1.16-5a4.11,4.11,0,0,0-2.42-2.33c-1-.18-1.34.18-1.79-.18S179.3,39.53,178,38a79.39,79.39,0,0,0-6.62-5.55l-1.1-.66a9,9,0,0,1-4.8,1.28,24.12,24.12,0,0,1-7.61-1.16c-1.16-.54-3.4.09-3.94.36s-6.53,1.34-6.53,1.34L141.84,35s-.3-2-.3-2.3-2-8.86-2-8.86Z" fill="#f4dbc0"/><path d="M124.75,169.57s.72,12.53,1,13.78,1.16,5.37,1.16,6c0,6.29-1.59,8.33-.09,12.88a12.87,12.87,0,0,0,2.86,4.83,11.81,11.81,0,0,0,3.31,2.42c1.81.87,3.42,1,6.58,1.16a25.21,25.21,0,0,0,6-.09c4.25-.67,5.89-2.29,5.82-2.59s3.58,2.06,5.55,2.42a35.12,35.12,0,0,0,9.31-.36c1.43-.45,4.29-1.7,4.92-2s3.94-5.46,4.65-8.41,1.88-9.39,1.7-10.83a39.69,39.69,0,0,1-.45-6.08c.18-.81,4-12.44,3.67-13.06s-11.72,1.16-12.79,1.25-7.43.09-7.43.09-14.49-.09-14.94-.27-9.66-.54-11.18-.54-8.14-1.16-8.14-1.16Z" fill="#fd8204"/><path d="M132.35,210.06a68,68,0,0,0,.94,7.47,45.6,45.6,0,0,0,2,6.22c.27.31,5.86,0,8.1.18s5.5.63,6.44.63a4.34,4.34,0,0,0,2.46-1.3c.4-.4-.45-1,.76-.58a23,23,0,0,0,5,1.66c1.92.27,5.19.58,6.76.09a12.38,12.38,0,0,0,3.53-1.57c0-.22.4-4,.67-5.06s1.12-3.36,1.52-5.46.67-3.85.67-3.85a6.22,6.22,0,0,0-1.52.36c-.4.22-6.84,1.88-9.44,1.61a42.6,42.6,0,0,1-7.47-1.66,2.73,2.73,0,0,1-1.52-1.3s-2,2.42-4.25,2.77a32.45,32.45,0,0,1-7.69.18c-1.43-.27-3.53-.31-4.38-.49A9.42,9.42,0,0,0,132.35,210.06Z" fill="#cb875f"/><path d="M133.57,223.65a35,35,0,0,0-4.89,3c-1.55,1.31-3.4,2.62-3.76,4s-1.31,2.8-.89,3.82,1.43,3.16,2.27,3.76,4.29,3.46,8.95,3.4,13.84.06,15.09-.24a4.15,4.15,0,0,0,2.8-2.45c.36-1.07,1.37-5.31,1.37-5.31a50.67,50.67,0,0,0,8.35,1.49c2.86.06,15,2.62,17.36,2.45s5.73-.12,7.1-1.79,2.56-2.33,2.62-3.58A25.2,25.2,0,0,0,190,227c-.3-1.19-1.43-4.12-2.51-4.71a17.45,17.45,0,0,0-6-1.67c-1.73,0-5.79-.36-7.69.6s-3.7,2-4.35,2-.42-1.07-2.15-.18-3.94,1.19-7.1,1.37-8.41-1.91-8.41-1.91-.54,2-1.25,2a41.71,41.71,0,0,1-6.26-.6,65.85,65.85,0,0,0-7.87-.6C136,223.35,133.57,223.65,133.57,223.65Z" fill="#efb000"/><path d="M130.92,3.78C127,6.19,124,7.93,121.55,9.29a12.64,12.64,0,0,0-4.14,3.17c-.71.87-.48.88-2.15,3.4-.9,1.37-1.48,2.14-2.42,3.67-.34.56-1.53,2.55-1.34,2.68s1.58-2.52,4.38-3.58a7.27,7.27,0,0,1,2.86-.45,19.52,19.52,0,0,1,1.7-3.13,23.1,23.1,0,0,1,2.68-3.22,44.7,44.7,0,0,1,4.62-4.17L131.18,6Z" fill="#e69b5e"/><path d="M137,2.94c-2.49.71-3,1.62-6.18,3.51A38.27,38.27,0,0,0,118.66,18c-.71,1.5-1.34,2.66-1.79,3.46a12.08,12.08,0,0,0-1.25,2.68c-.16.54-.55,2-.3,2.09s1.69-3,3.82-5.85c3.22-4.3,9.29-9.16,13.3-7.52a5,5,0,0,1,2.33,2.09,6.17,6.17,0,0,1,2.56-3.52,1.37,1.37,0,0,1,1.42.15c.44.39.46,1.27-.24,4.12,0,0,0,.06,0,.06a21.19,21.19,0,0,1,3.76-8.55,20.74,20.74,0,0,1,3.12-3,20.06,20.06,0,0,1,2.33-1.55,27.4,27.4,0,0,0-6.1-.19C140.9,2.52,137.68,2.84,137,2.94Z" fill="#e69b5e"/><path d="M141,29.78a23.76,23.76,0,0,1-2-10.62c.08-1.77.35-7.26,3.88-11.87,0,0,.2-.26,4.61-5.12,0,0,1.29-.24,2.69-.38a7.6,7.6,0,0,1,3.43.3c1.74.64,2.63,2.11,3.53,3.59a13.55,13.55,0,0,1,1.73,5,14.22,14.22,0,0,1,0,4,8.92,8.92,0,0,0-2-3.16,7.35,7.35,0,0,0-3-2A7,7,0,0,0,150,9.45a10.31,10.31,0,0,0-4.51,2.27c-1.54,2.13-2.57,3-3.45,5.41a35.28,35.28,0,0,0-1.53,5.56A14.06,14.06,0,0,0,141,29.78Z" fill="#e69b5e"/><path d="M158.37,9.52a13.89,13.89,0,0,1,5,1.06A15.22,15.22,0,0,1,171,18.33a16.34,16.34,0,0,0-3-6.14c-1-1.29-1.47-1.43-2.92-3.1-.63-.73-1.12-1.37-1.43-1.79-1.69-1.42-4.31-3.42-6.25-3.9-.3-.07-1-.25-1.21,0s.48,1.14.72,1.43c.77.95,1.62,2.62,1.91,5.79Z" fill="#e69b5e"/><path d="M99.33,35a13.45,13.45,0,0,1,11.45-10.29l1.88-5.46,3.05-6.13s-6.15,3-7.62,4.48a31.52,31.52,0,0,0-5.36,7A38.32,38.32,0,0,0,99.33,35Z" fill="#e69b5e"/><path d="M101.21,35.87a16.92,16.92,0,0,0-2.59,5c-1.31,4-.71,7.53-.09,11.18a40.49,40.49,0,0,0,2.15,7.78,24.61,24.61,0,0,1,8.5-25.86V29a25.28,25.28,0,0,0-8,6.86Z" fill="#e69b5e"/><path d="M159.77,3.72c.59-1,4.81.27,6.73,1a25,25,0,0,1,10.08,7.4,21.81,21.81,0,0,0-10.94-3s-5.31-4.33-5.71-4.33S159.59,4,159.77,3.72Z" fill="#e69b5e"/><ellipse cx="127.13" cy="147.59" rx="4.53" ry="4.89" fill="#fd8204"/><ellipse cx="100.35" cy="126.3" rx="3.76" ry="6.02" transform="translate(-22.9 22.22) rotate(-11.35)" fill="#fd8204"/><ellipse cx="175.21" cy="151.17" rx="5.25" ry="4.65" fill="#fd8204"/><ellipse cx="186.84" cy="105.62" rx="5.37" ry="5.61" fill="#fd8204"/><ellipse cx="195.36" cy="132.71" rx="5.37" ry="6.32" fill="#fd8204"/><ellipse cx="141.33" cy="154.75" rx="4.29" ry="4.41" fill="#fd8204"/><ellipse cx="126.06" cy="85.56" rx="5.01" ry="3.94" fill="#fd8204"/><ellipse cx="169.96" cy="83.29" rx="4.29" ry="3.58" fill="#fd8204"/><circle cx="115.68" cy="107.03" r="4.41" fill="#fd8204"/><ellipse cx="155.66" cy="145.31" rx="4.41" ry="4.53" fill="#fd8204"/><path d="M179.11,169.27s.65,5.41,0,7.67-2.35,8-2.35,8l-.09,8.37-1.77,10.51a18.5,18.5,0,0,1-6,5.58s3.56-10.06,3.9-14.64.25-8.81.54-10.11c.35-1.57,1.24-2.86,1.68-5.41s.68-4,.36-5.21c-.23-.88-.78-2.32-.18-2.86a.79.79,0,0,1,.36-.18,9.2,9.2,0,0,1,3.54-1.74Z" fill="#e16702"/><path d="M170.74,170.65s-.93,10.42-1.13,12-1.73,12.83-1.7,13.43-.45,5.88-.67,6.93-1.87,7.06-1.87,7.06l-4-.19s2.69-12.44,2.61-14.5,2.47-17.95,2.47-17.95.41-4.76.39-5.36a6.29,6.29,0,0,0-.22-1.28Z" fill="#e16702"/><path d="M162,171s.91,5.4-.07,9-2,18.88-2,18.88-1.41,5.58-1.11,6.68a19.47,19.47,0,0,1,.08,4.14,1.83,1.83,0,0,1-.72.44c-.67.21-1.17-.1-2.15-.27a6.91,6.91,0,0,0-1.52-.09c.54-4.69,1-8.48,1.36-11,1.27-9.55,2.67-12.9,2.42-19.07,0-.43.5-6.92.5-6.92S161.49,170.5,162,171Z" fill="#e16702"/><path d="M156.3,171.42c-.12,1.77-.34,4.46-.78,7.73-1,7.76-1.79,7.89-2.1,12.82-.09,1.38-.31,5.15-.67,10.89a8.43,8.43,0,0,1-1.52,5,7.83,7.83,0,0,1-4.39,2.64s2.21-5.18,2-9.22.15-13.54.89-16.42,2.59-12.87,2.31-13.2S156.12,171.16,156.3,171.42Z" fill="#e16702"/><path d="M145.83,170.63S144,180.3,144,182.19s-.56,11.86-.52,12.85-1.11,15.3-1.11,15.3-2.93-.06-3.56-.57.59-21.82.56-22.54,1.44-11.27,1.4-12.35.35-4.23-.18-4.39S145.83,170.63,145.83,170.63Z" fill="#e16702"/><path d="M137,170.93a64.54,64.54,0,0,1-1,8.33c-.64,2.33-.89,7.77-.25,9.87s.83,11.57.63,13.42.23,7.91.52,8.27a16.29,16.29,0,0,1-3.54-3.27c-.4-.9-1.31-16.43-1.32-16.71s-2-5.72-1.17-8.43,1.16-12.48,1.16-12.48Z" fill="#e16702"/><path d="M127.83,170.18l-.23,9.32a12.19,12.19,0,0,0,1,7c1.69,3.47-.08,6.47,0,8.36s.84,12.3,1.71,12.43-1.28.4-2.29-3.27-1.33-11.76-1.38-13a24,24,0,0,1,.22-3.2c.06-.69-1.62-6-1.74-9.07s-.49-7.83-.33-8.26a2.29,2.29,0,0,1,2.11-1.12C127.8,169.58,127.83,170.18,127.83,170.18Z" fill="#e16702"/><path d="M132,190a14,14,0,0,0,5.83,2.33c1.53.22,2.37,0,2.26-.21-.29-.53-3.37-1-4.55-1.39a33.3,33.3,0,0,1-3.92-2C130.94,188.36,130.74,188.9,132,190Z" fill="#692f23"/><path d="M132.72,240.85l-.59-.09A2.4,2.4,0,0,0,132.72,240.85Z" fill="#692f23"/><ellipse cx="183.09" cy="160.33" rx="1.25" ry="1.27" fill="#692f23"/><ellipse cx="177.01" cy="165.21" rx="1.25" ry="1.23" fill="#692f23"/><ellipse cx="169.49" cy="162.95" rx="1.54" ry="1.43" fill="#692f23"/><ellipse cx="160.32" cy="167.33" rx="1.34" ry="1.3" fill="#692f23"/><ellipse cx="151.94" cy="164.05" rx="1.28" ry="1.19" fill="#692f23"/><ellipse cx="143.52" cy="167.2" rx="1.32" ry="1.21" fill="#692f23"/><ellipse cx="134.51" cy="162.23" rx="1.34" ry="1.3" fill="#692f23"/><ellipse cx="126.66" cy="165.16" rx="1.36" ry="1.27" fill="#692f23"/><ellipse cx="122.45" cy="158.74" rx="1.01" ry="0.89" fill="#692f23"/><path d="M124.29,118.93s0-15.49.42-15.8c.72-.57,9.74-1.16,9.88-1.19s22.25-1.82,22.52-1.79,1.09-.37,3.12,2.1,11.92,13.18,12.09,13.86-1.64,15-2.08,15.49-12.67,2.34-13.51,2.44-20.05,2.87-20.85,3-2.26-.06-2.33-.35S124.29,118.93,124.29,118.93Z" fill="#a0cdee"/><path d="M124.3,117.8s0-14.52.35-14.83c.72-.57,9.74-1.16,9.88-1.19S156.79,100,157.05,100s1.09-.37,3.12,2.1,11.92,13.18,12.09,13.86-1.64,15-2.08,15.49-12.67,2.34-13.51,2.44-20.05,2.87-20.85,3-2.26-.06-2.33-.35S124.3,117.8,124.3,117.8Z" fill="#e6bb36"/><path d="M134.71,102.82s3.87-4,4.63-3.84,3.69,3.44,7,2.15c.11,0,.88,3.17,1.22,4.33a12.19,12.19,0,0,1,1.13-2.59,3.35,3.35,0,0,1,2.16-1c.23-.05,3,.18,3,.18a2,2,0,0,1,1.41.52,4.51,4.51,0,0,0,.35.4,2.57,2.57,0,0,0,.89.52c1.62.6,2,.64,2.07.92s-.38,1-.38,1h0l4.42.09q3,1.91,2.7,2.66-.35,1-6,0s2.21,1.23,2.27,1.68l3.22.64-1.71.32,1.06.9-3.25-.46a16.94,16.94,0,0,1-5.83.41,18.37,18.37,0,0,1-3.61-.75,18.11,18.11,0,0,1-2.7-1.1c5.75,4.56,7.69,6.17,7.89,6.43a1.69,1.69,0,0,0,.43.42c.49.33.66,0,.64,2.08,0,2.61-1.79,15.21-1.79,15.21a22.55,22.55,0,0,1-3.83.63c-2.11.16-2.94.52-3,.08s.86-15.91.86-15.91l-3.79-8-1,5.37-1.48-1.22-2.06,1,2.24-7.09q-3.38.85-6.84,1.67t-7.09,1.64q-.12,1.44-.21,2.91c-.28,4.56-.36,8.95-.28,13.16l-2.3-4.29c0-2.57.25-5.25.34-7.95.07-2.34.08-4.63.21-6.87,0-.2.11-.55.45-.63s.42,0,.54-.06c.58-.14,4.61-.36,4.61-.36v-1.33l4.07.54s1.85-1.42,2-1.57h0c0-.1-1.33-.08-3.15-.29a3.27,3.27,0,0,1-.91-.23c-1.19-.43-1.51-.79-1.62-1.11a.5.5,0,0,1,0-.39.42.42,0,0,1,.2-.17A6.12,6.12,0,0,0,134.71,102.82Z" fill="#f45d11"/><path d="M161.49,109.69s2.52.49,2.79.53,1.63.18,1.55.28-2.37.21-2.51.38,1.76.71,1.76.71a6.57,6.57,0,0,1-.93.11c-.34,0-3.82-.44-4-.49s.41-.15.41-.15a28.89,28.89,0,0,0,2.91.33c0-.1-.59-.45-.57-.59s1.6-.22,1.6-.29-2.67-.4-2.67-.4Z" fill="#5b2019"/><path d="M173,115.84,163.7,106l-.54-.55-.08-.09c-.53-.6-3.62-4.08-4-4.68a1.64,1.64,0,0,0-1.65-.73c-3.58.3-14.58,1.08-14.58,1.08a7.87,7.87,0,0,0-.61-.54A9,9,0,0,0,140.07,99a1.51,1.51,0,0,0-1.57.2c-.32.2-1.53,1.26-2.67,2.29q-3.19.35-6.46.66c-1.49.14-3,.3-4.43.41a.65.65,0,0,0-.64.38,17.25,17.25,0,0,0-.1,2.21c0,4.35-.21,8.52-.24,12.87,0,.09,0,.18,0,.27a3.08,3.08,0,0,0,.43,1.11l2.68,5h0c.36.77.77,1.56,1.21,2.38s.84,1.48,1.25,2.16q.93,2.06,2,4.22t2.26,4.26h0l14.4-2h0c0,.09,8.22-1,8.22-1s11.25-1.57,11.9-1.73,2.24-.34,2.29-.36,2.4-15,2.42-15.48S173.12,116,173,115.84Zm-1.63-.75s.55.62.41.91-13.63,1.39-13.63,1.39c-.56-.53-4-3.82-5.4-4.91l-2.94-2.19a18.31,18.31,0,0,0,4.64,1.36,16.43,16.43,0,0,0,5.07,0s2.37-.29,2.47-1a1.11,1.11,0,0,0-.08-.53,1.16,1.16,0,0,0-.36-.44c-.76-.63-.58-.54-.86-.74s-.44-.28-.69-.43c.71.05,3.55.25,4.11.24a7.42,7.42,0,0,1,1.4.19Zm-30.88-6.38c-1.43,0-6.14.22-6.39.2s-.39-.38-.44-.69-.22-.94,0-1.19,2.79.48,4.74.41c2.19-.08,5-.41,5.67-.5.39-.06,1.06-.21.88,0-.43.44-.39,1-.61,1.16A14.46,14.46,0,0,1,140.45,108.71Zm2.44.23a26.68,26.68,0,0,1-4.46,1.13c-2.35.41-5,1-5.78,1.2-.53.11-1.64.39-2.34.61l-1.79-2.79s-.19-.27-.15-.41c.12-.44,4.8-.46,4.8-.46s.16.74.18.84c.07.43,1.17.14,1.73.16,1.28,0,4.52-.06,5.56-.12C141.18,109.06,142.23,109,142.89,108.94Zm-1.61-4.13a3.19,3.19,0,0,1,2.52,0,8.49,8.49,0,0,1,2.09,1.16,1,1,0,0,1,0,.15.42.42,0,0,1-.06.1,31.41,31.41,0,0,1-4.08.62c-1.35.08-2.78.21-3.88.25l.49-.39A23.44,23.44,0,0,1,141.28,104.81Zm-1.86.57c-.24,0-1.67,0-2,0a8.78,8.78,0,0,1-3.2-.77.71.71,0,0,1-.4-.49.59.59,0,0,1,.61-.79c.59,0,1.45.87,2.46,1.28a12.1,12.1,0,0,0,2.67.64h0Zm5.31,2.84c.08-.17.34-.88.41-1.08a4.28,4.28,0,0,1,.89.84c.2.34-.75,5.19-.83,5.93s-.23,1.73-.4,1.67-1-.84-1.17-.94-1.72,1-1.77.91,2-6.42,2.21-6.94C144.42,108.48,144.66,108.38,144.74,108.22Zm1.06-1.54,0,0a3,3,0,0,0,.33-.32c.18-.2.07-.69.07-.69l.16-.06h.16a1.5,1.5,0,0,1,.46.1,1.22,1.22,0,0,1,.54.52,3.07,3.07,0,0,0-.49.4c-.28.37-.23.58-.41.63S145.89,106.89,145.8,106.67Zm.88.84a.92.92,0,0,0,.23-.08.19.19,0,0,0,.07-.07.39.39,0,0,0,0,.11,4.74,4.74,0,0,0,2,2.18,25.41,25.41,0,0,0,7,1.45c1-.13,1.89-.69,1.73-1.43s-.42-1.57-1.43-1.59-5.21-.1-6.16-.33a3.18,3.18,0,0,1-2.08-1.53l.32-.2a3.57,3.57,0,0,1,1.4-.55c.38,0,1.87.24,2,.29s2.14.69,3.24,1a28.19,28.19,0,0,1,3.19,1.38c1.27.64,3.06,1.57,2.92,2.25-.07.34-.61.52-1.3.74a13,13,0,0,1-2.09.36c-.39,0-1,0-1.62,0a21.49,21.49,0,0,1-4.13-.52,20.16,20.16,0,0,1-2.34-.69l-2.2-1.62a2.15,2.15,0,0,0-.8.06l-.07,0c0-.2,0-.38,0-.5A3.79,3.79,0,0,0,146.68,107.51Zm7.25-1.54c-3.18-1-3.8-.95-4.25-.87a4,4,0,0,0-1.87.89,1.61,1.61,0,0,0-.21-.27,1.76,1.76,0,0,0,.23-.49,8.29,8.29,0,0,1,1.09-2.09,5.19,5.19,0,0,1,2.12-1,23.83,23.83,0,0,1,4,.54c.26.07.44.52.44.52l1.54.65c2.12.91,1.24,1.31,1.24,1.31a21.92,21.92,0,0,1-2.13,1.24C155.53,106.56,155.16,106.35,153.92,106Zm-6.05.38a3.15,3.15,0,0,0,1.2,1.69c1.65,1.1,3.5.31,6.75.56,1,.08,1.67.55,1.46,1s-.41,1.12-1.37,1.15a27.13,27.13,0,0,1-4.82-.81,4.94,4.94,0,0,1-2.12-.86,3.39,3.39,0,0,1-1.23-1.62c-.07-.3-.19-.69-.24-.87A1.38,1.38,0,0,1,147.87,106.36Zm-1.25,2.87a1.72,1.72,0,0,1,.84,0c.28.11,8.05,6.51,10,8.27l-7.32.61c-.84-1.69-3.73-7.42-3.73-7.42S146.55,109.88,146.62,109.23Zm18.49-.94-6.57-.51c-.65-.3-1.34-.59-2-.86l-.39-.16c.66-.33,1.87-1,1.87-1a16.13,16.13,0,0,1,2.81-.09c.54,0,1.14.09,1.65.15Zm-12-7.44a43.78,43.78,0,0,1,4.81-.25,1.36,1.36,0,0,1,.74.5l3.51,4.17a10.7,10.7,0,0,0-1.46-.07c-.83,0-1.64,0-2,0,.22-.19.41-.36.4-.41A4.18,4.18,0,0,0,158,104a20.11,20.11,0,0,0-2.3-1,.72.72,0,0,0-.2-.39,1.62,1.62,0,0,0-.77-.43,24,24,0,0,0-3.44-.4,4.18,4.18,0,0,0-2.17.6,3.85,3.85,0,0,0-1.26,1.76,3.59,3.59,0,0,1-.23.79,1.59,1.59,0,0,0-.1-.32,22.78,22.78,0,0,1-.75-3.08S153.1,100.83,153.11,100.85Zm-6.9.65s.28.95.34,1.27.6,2,.6,2a6.58,6.58,0,0,0,.18.78h0l-.18-.1a1.33,1.33,0,0,0-1.23,0,4.74,4.74,0,0,0-.5-1.72,7.2,7.2,0,0,0-1.94-2Zm-7.31-2.07c.35-.15.77-.14,1.71.45a25.46,25.46,0,0,1,3.3,2.67,5.63,5.63,0,0,1,1.43,1.91,3.78,3.78,0,0,1,.14.57,7.53,7.53,0,0,0-2.79-1,6.09,6.09,0,0,0-2.35.81L140,105c-.27-.06-2.73-.64-3.16-.81s-1.84-1.11-2-1.13A43.5,43.5,0,0,1,138.91,99.43Zm-13.69,3.79c.13-.22,1-.32,1.46-.38,2.7-.24,7.86-.8,7.86-.8l1-.09c-.09.09-1.05.67-1.14.75s-.88.58-.85,1.26c0,.19.16.81,1.17,1.17a8.08,8.08,0,0,0,2.28.48c.76.08,2.05.06,1.74.29l-1.61,1.19h-.24c-1.1-.06-3.37-.67-3.79-.32-.11.09,0,.38.06,1-.35,0-2.82.12-3.9.26-.65.09-1.26.25-1.45.06a14.72,14.72,0,0,1-1.48-2.35C125.68,104.57,125.09,103.43,125.22,103.22Zm1.86,19.33c0,.14-.18.16-.2.16s-.19-.09-.26-.26l-2-4c0-.24-.06-.51-.07-.79s0-.73,0-1c.16-7.33.08-11.07.23-12.68.95,1.88,2.78,4.73,2.78,4.73a14.79,14.79,0,0,0-.16,2.06C127.35,110.93,127.12,119.89,127.08,122.55Zm2.27-6.87c-.09,2.25-.08,9.76-.08,9.76,0,.55,0,2,0,2s-1.69-3.68-1.74-3.78c.06-2.65.19-9.19.18-9.88,0-.33.21-3.76.22-4.39,0,0,1.43,2.32,1.79,2.82A33.79,33.79,0,0,0,129.35,115.68Zm4.9,17.24c0,1.11-.12,2-.18,2.61,0,.17-.12.53-.31.56s-.37-.27-.46-.42c-1.24-2-3.55-7.31-3.57-7.33s0-.3,0-.44c.1-4.39.1-6,.13-9.48,0-1.26.07-4.34.23-5.46.21-.32,1.79,2.66,2.35,3.63a12.77,12.77,0,0,1,1.69,3.41,9.07,9.07,0,0,1,.25,1.7c.21,3-.09,4.24-.1,7.56C134.26,130.73,134.32,131.31,134.25,132.92Zm.33-13.73q-1-1.92-2.2-3.91-.92-1.56-1.84-3h0a26.52,26.52,0,0,1,4.69-1.16c4.37-.79,5.92-1.08,7.21-1.6.44-.18.73-.31.93-.41,0,.08-1.69,4.66-1.76,5.16s-.54,1.46-.14,1.82,1.65-.87,2-.79,1.53,1.38,1.74,1.21a31.58,31.58,0,0,0,.67-3.88c.07-.34.21-1.08.36-1.09s.21.2.24.28.92,2.38,1.15,2.75,1.37,2.5,1.81,3.41c.13.26,0,.3,0,.3-4.58.52-8.19.87-13.39,1.34-.43,0-1,.14-1.33-.23Zm.08,17.52,0,0a5.56,5.56,0,0,0,.12-1.54c0-.47,0-1.19,0-2.11.09-4.16.16-8.52.25-12.68,4.84-.49,9.77-.91,14.61-1.39,0,.36-.06.88-.09,1.31,0,.8-1,11.74-1.25,14.52C146.9,135,135.26,136.92,134.66,136.71ZM155.6,134c-.46.2-6.07.74-6.07.74s-.43-.07-.41-1,1.19-14.61,1.19-14.61l0-.28,7.38-.69a6.58,6.58,0,0,1,0,.77c0,.33-1.68,14.27-1.68,14.27A.75.75,0,0,1,155.6,134Zm16.23-16.48s-1.34,9.76-1.42,10.7-.33,3.23-.81,3.49-13,2-13,2h0l1.76-15.49,0-.08L171.68,117C171.91,117,171.83,117.53,171.83,117.53Z" fill="#692f23"/><path d="M125.72,121.74s-2.71,2.29-3.24,4.2-.84,6.68-.3,7.4,1.07,1.55,1.31,1.79,2.51,1.91,3.1,2.33,1.79,1.67,3,2.68,4.53,2.86,6.74,2.21,1.37.42,2.62.42a56.54,56.54,0,0,0,6.32-.24c1.31-.24,2.62-1.25,3.64-1.37a16,16,0,0,0,2.92-.89,9.59,9.59,0,0,0,2.39,1.31,28.12,28.12,0,0,0,6.56.78c1-.18,2.92-.24,4-.42s5.31-.18,6.8-2a24.07,24.07,0,0,1,4.83-4.47c.54-.18,1.85-1.07,1.85-1.73s1.37-5.19.6-7.28a38,38,0,0,0-1.91-4.53c-.42-.72-3-1.85-3.22-2s-1.25.84-1.55,1.73-2.45,2-2.45,2-5.61-3.58-6.14-3.64-2.21-.54-2.62.12-1.13,1.73-.72,2.8a5.29,5.29,0,0,0,2,2.8,36,36,0,0,0,3.82,1.73,19.42,19.42,0,0,1-2.62,2.62,33.22,33.22,0,0,1-3.22,2.15,26.89,26.89,0,0,1-3.46,1.37,3.71,3.71,0,0,1-1.61.36c-.86,0-1.15-.46-2.09-.84a4.78,4.78,0,0,0-3-.36c-.72.36-2.45.66-2.8,1a12.43,12.43,0,0,1-2,1.31c-.18,0-1.25-1.85-2.8-1.67s.36,1.19-2.68.36-6.38-4.71-6.38-4.71,4.65-2.15,5.07-2.45a6.74,6.74,0,0,0,1.85-3.1c.24-1.25.3-2.21-.36-2.68s-1.43-1.13-2.33-.78-2.27,1.79-3.28,2.51-1.91,1.73-3.34,2c-1,.22-1.49.59-1.9.5a.93.93,0,0,1-.48-.32C128.09,124.15,127.25,123.11,125.72,121.74Z" fill="#f4dbc0"/><path d="M126.81,125.54s4.45-1.68,4.75-1.84c2-1.08,2.37-2.14,4.7-3.22,1.62-.75,2.37-.81,3-.56a3.35,3.35,0,0,1,1.77,2.33,4,4,0,0,1-1.61,3.74,30.7,30.7,0,0,1-4.18,2.33,11.82,11.82,0,0,0-4.33,3.31,5.5,5.5,0,0,1-1.71,1.41s-1.74.15-.57-1.24a14.34,14.34,0,0,1,4.26-3.24c2.8-1.62,3.36-1.24,5.2-2.68.68-.53,1.62-1,2-2.17a3,3,0,0,0-.37-2.18c-1.07-1-2.91-.4-4.1.45-2.11,1.52-1.72,1.76-4.12,2.84a19.27,19.27,0,0,1-4.85,1.47C126.15,126,126.53,125.67,126.81,125.54Z" fill="#692f23"/><path d="M174.4,125c-1.63-1-3.77-1.46-5.07-2.12-.31-.15-4.58-3-4.71-3a3.34,3.34,0,0,0-2.4-.59,2.68,2.68,0,0,0-1.5.58,2.83,2.83,0,0,0-.9,1.77,4.64,4.64,0,0,0,1.42,4c.83.78,2,.93,4.36,2.11a10.16,10.16,0,0,1,3.92,2.86,6.82,6.82,0,0,0,2.15,1.69s2.78.62.55-1.07c-1.86-1.13-3-2.5-4.26-3.24s-4.37-2-5.43-2.65a4,4,0,0,1-1.58-2.4,3,3,0,0,1,.13-2.24,1.45,1.45,0,0,1,1-.63,3.11,3.11,0,0,1,1.11.1,7.24,7.24,0,0,1,2,1.25c2.11,1.52,1.72,1.76,4.12,2.84a26.91,26.91,0,0,0,3.63,1.47,2.36,2.36,0,0,0,1.08.11A.46.46,0,0,0,174.4,125Z" fill="#692f23"/><path d="M126.52,38.71c-.49.69-.2.74-.2.74a20.82,20.82,0,0,1,4.26-2.11,16.32,16.32,0,0,1,4.61-.34c.69.15,1.23.14,1.42-.1s.18-.59-.29-.88c-.12-.08-1.15-.78-5.2-.2A9.63,9.63,0,0,0,126.52,38.71Z" fill="#692f23"/><path d="M204.63,119.22c0-1.43-.65-4.87-.68-5.19s-.77-5-1.17-6.19a39.66,39.66,0,0,0-1.59-4.46A56.66,56.66,0,0,0,196,96.71a34.26,34.26,0,0,0-5.77-4.07c-.79-.46-3.34-2.64-3.92-3.14s-3.5-3.71-5.44-5-3.41-2.21-4.79-2.94-4.45-2-5.18-2.32c-.47-.21-.75-.7-.39-.86.72-.3,4.53-1.2,6.29-1.76a18.93,18.93,0,0,0,2.21-.91,44,44,0,0,0,4.68-2.53c6.43-4,9-5.35,10.09-6.49,5.94-6,6-9.25,6.61-11.18a29.91,29.91,0,0,0,1-10.91c-.33-6.7-2.13-11.64-2.74-12.68-2-3.33-7.67-11.91-9.06-13.47A38.47,38.47,0,0,0,179.45,9S173.51,5.39,170,4.81c-.14,0-1-.16-2.15-.4-1.65-.35-1.77-.46-3-.72a34.2,34.2,0,0,0-4.67-.63L158,2.67a19.66,19.66,0,0,0-1.89-.79,7.71,7.71,0,0,0-2-.14c-.48,0-1.11-.08-1.86-.11a24,24,0,0,0-2.51,0c-1.33.08-1.35.26-2.42.27s-1.13-.16-2.33-.22a22.19,22.19,0,0,0-2.64.09c-1.76.08-2.47-.05-3.4,0A12.74,12.74,0,0,0,133.82,3a28.65,28.65,0,0,0-11.45,4.37,27.14,27.14,0,0,0-3.94,3.16,61.57,61.57,0,0,0-8.75,5,25.53,25.53,0,0,0-7.16,8.16,31.32,31.32,0,0,0-3.94,13.6s0,.34-.11,3.34c-.1.29-.2.58-.28.88a23.63,23.63,0,0,0-.41,10.73,22.92,22.92,0,0,0,3.43,8.53c1.44,2,3.59,5.88,6.86,8.62a67.06,67.06,0,0,0,10.22,7.15,52.12,52.12,0,0,0,7.88,2.74,16.17,16.17,0,0,0,1.88.35c-.51.21-1,.44-1.3.56a36.19,36.19,0,0,0-3.79,1.6c-1.36.73-2.82,1.67-4.73,2.95s-4.8,4.5-5.38,5S109.75,92.5,109,93a33.87,33.87,0,0,0-5.7,4.09,56.79,56.79,0,0,0-5.12,6.69,40.23,40.23,0,0,0-1.57,4.48c-.39,1.19-1.13,5.89-1.15,6.21s-.67,3.77-.67,5.21-.25,3.15.39,4.55a19.34,19.34,0,0,1,1.5,3.06c.32,1.19,1,3,1.27,4.43s.44,3.93.83,4.59a7.17,7.17,0,0,0,3.81,3.47,21.66,21.66,0,0,0,2.42.69,19.31,19.31,0,0,0,2.19,1.9,4.68,4.68,0,0,0,3.14.73c3.65-.79,3.37.08,4.59-.48a6.66,6.66,0,0,0,3.65-4.33c.43,2.74,1.07,7,1.07,7.87,0,1.24-.35,7.21-.4,8a51.46,51.46,0,0,0,.39,7.42,17.45,17.45,0,0,0,1.36,5,9.07,9.07,0,0,0,3.38,3s.11,3.15,0,5a44.26,44.26,0,0,0,1,8.75c.44,1.13.51,10.51.44,10.7a57,57,0,0,0,.19,8.31,7.75,7.75,0,0,0,2.79,5.29,7.15,7.15,0,0,0,2,1.75,7.06,7.06,0,0,0,.88.44c.18,1.66.59,5.26,1,7.45a37.32,37.32,0,0,0,1.91,5.9,4.52,4.52,0,0,0-2.12.45c-.56.49-7.3,5.39-8,7.1a2.06,2.06,0,0,0-.3.32,2.91,2.91,0,0,0-.44,1.45,5.44,5.44,0,0,0,.13,3,7.69,7.69,0,0,0,.44,1.07,9.46,9.46,0,0,0,2.35,2.71,17.57,17.57,0,0,0,7.1,2.71c1.27.25,16.62.13,16.62.13s.76.19,2.73-2a8.14,8.14,0,0,0,1.78-5.35s1.09.31,1.2.2c2.25.33,7.84,1.15,8.7,1.25,1.08.13,11.1,2.27,16.43,2.33s7.17-2,9.2-5.66-1.27-8.94-2.66-10.32-3.17-1.64-8.05-2.14-10.24,2.57-10.32,2.6c-.5-.51.88-2.77,2.65-12a8.35,8.35,0,0,0,.16-2.33,16.78,16.78,0,0,0,3.71-6.1c1.49-3.78,2.17-13.08,2.28-17.62a17.82,17.82,0,0,0,0-2,18.07,18.07,0,0,0,.9-3c.44-1.64.81-3,1.07-3.85a23.21,23.21,0,0,0,.88-3.59,15.14,15.14,0,0,0,.12-2.62,32.64,32.64,0,0,0,3.28-1.32c.67-.31,1.21-.6,1.59-.8a6.13,6.13,0,0,0,.67-1.1,7.17,7.17,0,0,0,.55-3.59,28.69,28.69,0,0,0-.9-5.72h0c.27-.9,1.95-13.29,1.23-14.76a12.62,12.62,0,0,0,4.51-.55,5,5,0,0,0,2.22-1.89,22.18,22.18,0,0,0,2.45-.68,6.1,6.1,0,0,0,3.85-3.46,32.32,32.32,0,0,0,.84-4.57c.28-1.41,1-3.23,1.28-4.41a19.14,19.14,0,0,1,1.52-3C204.89,122.36,204.63,120.65,204.63,119.22ZM168.78,77.1c-1.79.93-5.54,1.15-5.55.89a9,9,0,0,1,.57-4.49c.4-.21,1.17-.73,1.57-1a52.28,52.28,0,0,0,7.48-5.5,32.36,32.36,0,0,0,4.74-4.5c.36-.44.69-.88,1-1.31a36.61,36.61,0,0,1-1.14,5.1,20.86,20.86,0,0,1-2,4.83,14.46,14.46,0,0,1-2.2,2.89A16.19,16.19,0,0,1,168.78,77.1Zm-27.15,6.23c.18-.22.73.47,1.09.83,1.38,1.41,3.09,3,4.35,4.12-1,.77-1.69,1.45-2.14,1.83l-3.07,2.63c0-2.56,0-5.6,0-6A26.69,26.69,0,0,0,141.63,83.33Zm-2.32-7.14.11,0L142.23,81a11.37,11.37,0,0,1-3.55-1,7.65,7.65,0,0,1-2.38-1.64Zm-3.5,1a8.41,8.41,0,0,0-.24-1.65s-.15-.34.16-.24q1,.29,2,.53Zm15.09,4a28.22,28.22,0,0,1-4.56.14c-.78,0-1.48-.09-2.13-.14.9-1,2.85-4,3.06-4S150.08,80.34,150.89,81.2Zm-1.84-4.43q1.19-.06,2.46-.18c.77-.07,1.64-.16,2.59-.3-.65.9-2.1,3.48-2.37,3.66C151.52,79.7,149.66,77.41,149.06,76.77ZM143.32,80c-.3,0-1.64-2.33-2.09-3.52a40.11,40.11,0,0,0,4.33.32C145,77.57,143.61,80.06,143.32,80Zm-.91,2.29a26.72,26.72,0,0,0,5.9.55,38,38,0,0,0,5.78-.43c-.85.66-6,5-6,4.94A52.64,52.64,0,0,1,142.4,82.3Zm10.44-1.38c.69-.66,2.64-4.53,3-4.47a23.2,23.2,0,0,1,2.85,2.9,12.12,12.12,0,0,1-1.57.56A42.19,42.19,0,0,1,152.84,80.92Zm4.53-5.25a40.88,40.88,0,0,0,4.43-1.42l-.54,3.22a3.8,3.8,0,0,1-1.06,1c-.54-.61-1-1.11-1.47-1.53S157.72,76,157.37,75.67ZM159,74.06a35.64,35.64,0,0,1-11.89,1.66,39.65,39.65,0,0,1-6.91-.47,29.44,29.44,0,0,1-6.61-1.92,27.52,27.52,0,0,1-4.46-3,43.66,43.66,0,0,1-6.87-6.47,42.81,42.81,0,0,1-4.66-5.94c-.82-1.31-2-4.18-2.42-4.34,0,0-1.58-.2-1.9-.28A4.51,4.51,0,0,1,110.69,51a7.33,7.33,0,0,1-.85-1.66,4.58,4.58,0,0,1-.31-2.68,2.38,2.38,0,0,1,.74-1.41,2.24,2.24,0,0,1,2-.42s.69.09,1-.35a23.15,23.15,0,0,0,1.44-3.94c.65-2,1.7-3.33,4.25-5s5.88-2,7.84-2.68c.63-.21,3.34.66,4.44.78,2.26.25,5-.2,4.84-.78a23.59,23.59,0,0,1,.72-6.4,12.52,12.52,0,0,1,1.77-3.42,22.14,22.14,0,0,0,1.16,4.14c.59,1.62.84,8,1.47,8.43.43.23,1.57-.39,3.43-1s5-1,6.72-1.42a38.66,38.66,0,0,1,4.51-.93c.39,0,4.61,1.13,6.37,1.32a20,20,0,0,0,5.88-.29,4.87,4.87,0,0,0,1.9-.78l.13-.1A5.28,5.28,0,0,0,171.77,34c1.11.72,4,2.61,5.42,3.73S181.9,44,181.9,44c1.18-.65,3.53.13,4.18,2.35.72,2.46-1.52,4.93-2,5.42a8.84,8.84,0,0,1-2.68,2,33.69,33.69,0,0,1-5.15,8.45,37.53,37.53,0,0,1-8.11,7.1A33.33,33.33,0,0,1,159,74.06ZM195.5,61a12.27,12.27,0,0,1-3.18,5.1c-2,2-7.87,5.16-9.3,6a38.89,38.89,0,0,1-6.67,3.53c-1.89.63-4.46,1-2.42-1a18,18,0,0,0,4.83-7.15c.46-1.32.64-2.84,1.37-6.12.26-1.15,1.24-5.14,1.65-6.28,0,0,1.32-.1,3.15-2.12s2.31-3.17,2.41-5c.15-2.72-.53-3.66-1.53-4.38a21.05,21.05,0,0,0,.64-2.13,37,37,0,0,0,.89-4.69c.14-.94.39-4.1,0-5.16,0,0,0-.07,0-.08s3.23,2.78,4.26,6.62a30.29,30.29,0,0,1,.9,4.92,32,32,0,0,1,.19,6.89c-.1.86-.3,2.64-.63,4.24a20.72,20.72,0,0,1-.83,3.3c-.28.66-.49,2,.68.31a14.85,14.85,0,0,0,2.35-6.93,20.58,20.58,0,0,0,0-6.38.76.76,0,0,1,0-.08,24.28,24.28,0,0,1,1.65,7.14C196,55,196.15,58.94,195.5,61ZM172.67,7.31a41.17,41.17,0,0,1,12.3,8.5c3.14,2.89,5.15,5.55,9.17,10.87a28.09,28.09,0,0,1,4.55,7.62,25.82,25.82,0,0,1,1.44,7c.38,3.93.91,9.32-1.44,15.54-.3.8-.69,1.79-1.23,2.9l0-.15a46.65,46.65,0,0,0-.48-8.19,50.06,50.06,0,0,0-2.33-9.2,32.22,32.22,0,0,0-4.57-9.8,61.74,61.74,0,0,1-4.25-7.25c-.4-.8-1-5.36-7-11.89A29.67,29.67,0,0,0,174,9C173.09,8.34,171.7,6.9,172.67,7.31Zm-6.74-1.87A33.63,33.63,0,0,1,179.68,16.2c5.81,7.84,6.78,15.7,6.71,17.43,0,.16,0,1.23-.12,2.42a24.18,24.18,0,0,1-1.41,6.62,6.5,6.5,0,0,0-2.31.06c-.2,0-.56-.29-1.6-2A10.36,10.36,0,0,0,177.78,37c-.22-.16-.41-.52.08-.5a8.3,8.3,0,0,1,3.58.84,7.68,7.68,0,0,1,2.22,1.7,4.87,4.87,0,0,0-1-1.5,7.35,7.35,0,0,0-2.86-1.87,28.17,28.17,0,0,0-5.08-.78c-1.79-1.59-3.68-3-3.62-3.41,0,0,.47-1,.79-1.8a15.67,15.67,0,0,0,.65-6.9,18,18,0,0,0-.5-3.93c-.33-1.25-.92-2.76-3.08-5.82a37.45,37.45,0,0,0-6-7.07,22,22,0,0,0-3-2.14A44.38,44.38,0,0,1,165.93,5.44Zm-17-2.92a3.89,3.89,0,0,1,2-.29,7.31,7.31,0,0,1,4.11,1.5,12,12,0,0,1,3,4.79,17.38,17.38,0,0,1,.39,8.25c0,.29.14.08.15.06.77-1.07.84-5,.84-5a20.77,20.77,0,0,0-.23-2.5A14.32,14.32,0,0,0,157,3.91l1.13.49a19.56,19.56,0,0,1,3,1.81,31.16,31.16,0,0,1,5.15,5,22.63,22.63,0,0,1,4.12,6.37,18.51,18.51,0,0,1,1.08,9.07c-.23,2.54-.79,3.75-1.72,4.51a5.11,5.11,0,0,1-1.91.88,18.2,18.2,0,0,1-5.44.59,23.49,23.49,0,0,1-5.49-1.32A5.24,5.24,0,0,0,158.34,29a6.39,6.39,0,0,0-.2-4.22c-.15,0,0,1.53-.59,3.48a4.93,4.93,0,0,1-2,2.5c-1.84,1.41-3.05.92-6.42,1.76-4,1-6.57,2.08-7.06,1.86-.13-.06-.17-.31-.23-1-.08-1-.17-1.84-.22-2.83-.11-2.24-1.94-7-2.4-10.15-.88-6,2.58-11.2,3.43-12.4A17,17,0,0,1,148.94,2.52Zm-29.87,9.57a29.59,29.59,0,0,1,7.18-5.42c1-.5,2.12-.69,2.87-1.07a36.39,36.39,0,0,0-3.61,3,41.4,41.4,0,0,0-6,6.53,23.88,23.88,0,0,0-4,8.88c-.42,2-.42,2.46-.33,2.46s.81-2.08,2.59-5.48a27.79,27.79,0,0,1,2.53-4.33,44.1,44.1,0,0,1,6.64-7.29c2.42-2.16,7.65-5.23,9.61-5.75a21.56,21.56,0,0,1,5-.57c.78,0-1.93,1.19-3.56,4-1,1.68-3.44,5.86-3.9,8.48s-.16,2.6-.16,2.6c.23-.51,1.49-6,4.67-10a13.88,13.88,0,0,1,5.56-4.51A6.26,6.26,0,0,1,146.38,3c.22,0,.06.16-.39.42a13.79,13.79,0,0,0-5.44,6.37,20.63,20.63,0,0,0-2.21,8.63,22.71,22.71,0,0,0,0,3.73,7.06,7.06,0,0,0-.88.89,14.72,14.72,0,0,0-1.74,4c-.4,1.36-.49,4.82-.69,5.35s-1.86.36-3.29.16a13.89,13.89,0,0,1-1.79-.34A5.14,5.14,0,0,0,131,30.45c.46-1,.73-2.82.52-2.81s-.65,1.37-1.24,2.29a4.91,4.91,0,0,1-2.74,1.7c-.91.26-3.59.59-4.51,1a29,29,0,0,0-6.21,2.61c-1.28.83-2.53,3.12-3.42,5.13L112,40.12c-.83-.33-1.33-.91-2-4.16a25.59,25.59,0,0,1,0-7.35c.39-2.65,1.3-4.15,3.17-7.7A37.68,37.68,0,0,1,119.07,12.09Zm-18.7,21.49c.07-1.91,1.54-6,2.91-8.47,3.4-6.07,5.41-7.09,6.55-8a30.7,30.7,0,0,1,6.1-3.83,41.35,41.35,0,0,0-4,6.36,27,27,0,0,0-3.2,9.18c-1.45.34-5.81,3.51-8.64,8.37A35.18,35.18,0,0,0,100.36,33.57Zm21.72,43.76a30.49,30.49,0,0,1-6.26-3.3,43.55,43.55,0,0,1-11.05-10,28.33,28.33,0,0,1-5-8.48,23.23,23.23,0,0,1-1.36-8,20,20,0,0,1,5.42-13.45,24.66,24.66,0,0,1,4.72-4.18,29.84,29.84,0,0,0-.09,3.24,23.2,23.2,0,0,0,.72,5.32,12.78,12.78,0,0,0,.4,1.29,14.36,14.36,0,0,0-3.6,4.33,26.49,26.49,0,0,0-1.41,7.36,37.89,37.89,0,0,0,.5,7.09c.33,1.15.46-.59.44-1.22a45.07,45.07,0,0,1,.27-7c.57-5.21,1.54-6.45,2.81-7.84A18.82,18.82,0,0,1,110.3,41a2.24,2.24,0,0,0,.24.21,3.08,3.08,0,0,0,2.23.65C113.06,42,112,44,112,44s-.41-.08-.55-.09a3.86,3.86,0,0,0-1.11.19,3,3,0,0,0-1.6,1.65c-.76,1.63-.2,4.34,1.15,6,.13.15.74.82.88,1s-.26,1.56-.33,2.9a14.43,14.43,0,0,0,.65,5,14.77,14.77,0,0,0,1.74,3.88c.75,1.28,2,2.89,3.41,5.25a25.71,25.71,0,0,0,8.66,8.38A22.3,22.3,0,0,1,122.09,77.33Zm4.71,1.17-1-.67A30.27,30.27,0,0,1,121,73.89c-4.31-5-6.74-8.39-8.38-12a16.62,16.62,0,0,1-1-8.31,12.77,12.77,0,0,0,2.65.81s1.42,2.75,2.16,3.92c.6.94,4.84,6.4,6.08,7.65,1.08,1.08,6.37,6,10.61,8.26a3.06,3.06,0,0,1,1.29,2.39,2,2,0,0,1-.47,1.52,3.37,3.37,0,0,1-.89.36,22.19,22.19,0,0,1-4,.34A7.21,7.21,0,0,1,126.8,78.5Zm-14.07,62.6a7.46,7.46,0,0,1-3.19.53c-1.25-.23-2.84.07-4.09-2.72a24,24,0,0,0-2.54-4.8c-.18,0,0,1.35.14,2a19.54,19.54,0,0,0,.95,2.58,7.72,7.72,0,0,1-2.77-1.69,8.31,8.31,0,0,1-2.05-4.09c-.55-2.6-.53-3.56-.88-4.5s-1.52-2.54-1-5.12,3.65-6,3.83-6.19,2.84-3.38,5.66-4.36a13.85,13.85,0,0,1,5.47-.8c.81,0,1.89-.09,1.89-.09a9.93,9.93,0,0,0-3.82,1.86,14.42,14.42,0,0,0-2.13,2.17c-.68.92-1.46,2.37-1.32,2.74s1-1.15,2.59-2.61,2.08-2.28,4.73-2.88,4.13.46,4.43.8a9.31,9.31,0,0,0,1.19.85,13.45,13.45,0,0,1-2.08,1.32c-1.17.6-1.62.61-2.5,1.1a8.21,8.21,0,0,0-2.59,2.37,11,11,0,0,0-1.77,4.24,31.29,31.29,0,0,0-.46,8.76,16.31,16.31,0,0,0,1.63,5.62,22.12,22.12,0,0,0,2,2.81A10.66,10.66,0,0,0,112.72,141.1Zm4.25-2.8c-.76,1.5-1.2,2.37-2.1,2.68l-.47,0c-.07-.56-.19-1.51-.4-2.53a4.44,4.44,0,0,1,.2-2.68l3.71.31A22.83,22.83,0,0,1,117,138.3Zm4.61,25.45a17.37,17.37,0,0,1-.74-2.6c-.13-1.05-.24-1.89-.24-1.89s-.15-1.85-.22-3.54c.95,1,3.24,1.63,5.59,2C124.31,159.53,122.42,163.13,121.58,163.75Zm1.53,2.78a2.32,2.32,0,0,1-.83-1.22,66.72,66.72,0,0,1,5.5-7.16c.3,0,4,8.33,5.21,11.44A19.15,19.15,0,0,1,123.11,166.53ZM169.5,170c-2-1.64-6.16-8.09-8.24-10,4.19-.23,8-.55,13.33-1.2-.59,1-3.54,9.24-4.84,11.19C169.33,170.1,169.92,170,169.5,170Zm-1.62.12-.55,0c-1.52.11-8.4.25-12.74.23,1.61-2.9,4.68-9,5.52-9.12C161.19,161.16,165.16,167.47,167.89,170.17Zm-14.88.26c-.52,0,.27,0-.27,0-1.83-1.88-5.81-8.57-8.31-10.35a71.68,71.68,0,0,0,11,.25c1.17,0,1.88,0,3.18-.07C157.18,162.58,154.27,168.46,153,170.42Zm-2.85,0a121.88,121.88,0,0,1-12.82-.56c-.21,0-.49-.06-.84-.09,2.16-3.09,5.86-8.74,7-8.74S147.94,167,150.16,170.4Zm-15.36-.73c-.82-1.74-4.11-8.95-5-11.37,2.12.23,2.86.29,2.86.29,5,.5,7.76.95,10,1.27C140.21,161.24,136,168.06,134.79,169.67ZM132,205.83a11.06,11.06,0,0,1-1.32-7.17,7.88,7.88,0,0,0-.92,3.8,9.41,9.41,0,0,0,.33,2.05,17.46,17.46,0,0,0,.94,3.2c-.47-.36-.94-.66-1.2-.85a4.53,4.53,0,0,1-1.24-2.12,31.62,31.62,0,0,1-1.5-8.28c.12-5.31.53-7,.9-7.46.09-.12.68-.8.47-1.37a.58.58,0,0,0-.08-.16c-.31-.31-1.4-3.08-2-7.3a30.73,30.73,0,0,1-.44-8.23c0-.46.18-1.72,1.51-1.57,1.59.17,3.11.45,6,.68,4.66.37,6.32.58,17.32,1,2.06.08,4,.08,5,.18.57.38.13,2.08.13,2.27s-1.46,7.87-1.46,7.87-1.63,12.06-2.58,19.78a25,25,0,0,1-1,5.17,4.94,4.94,0,0,1-2.35,2,5.64,5.64,0,0,1-1.29.54,8.61,8.61,0,0,0,.76-1.24c.37-.89.53-2.33.33-2.44a25.45,25.45,0,0,1-1.82,2.74,4.83,4.83,0,0,1-1.82,1.26,67.59,67.59,0,0,1-9.57-1.13l-.21,0A11.74,11.74,0,0,1,132,205.83Zm35.59,16.74c-6.41,3.59-13.13.31-13.13.31s-1.73-.06-1.27-3.8a1.33,1.33,0,0,0,.25.09,17.82,17.82,0,0,0,12.21.4,6,6,0,0,0,3-1.83l.09-.11Zm1.29,1.37a7.42,7.42,0,0,0-.85,1.57,29,29,0,0,1-3.76-.26l.3-.18a10.16,10.16,0,0,0,3.71-1.32A2.34,2.34,0,0,0,168.87,223.94Zm-6.67,1.48a8.53,8.53,0,0,0-1.51,3.72l-3.78-1.48a8,8,0,0,1,1.19-2.49l3.21.17.64,0Zm3.92-7.13c-3.15,2-7.1,1.52-8.87,1.28a5.66,5.66,0,0,1-2.36-.77,5.31,5.31,0,0,1-1.66-1.64l0-.06c0-.88,0-1.78,0-2.59.34.16.79.35,1.32.57a30.16,30.16,0,0,0,7.82,2.19,24.92,24.92,0,0,0,5.05.11ZM153.2,211a2.29,2.29,0,0,1-.25-1.68c.11-.09.65.3.88.39a21.56,21.56,0,0,0,4.75,1c5.67.85,8.7-.69,11-1.48a.64.64,0,0,1,.46.29c.17.34-.2,1-1.08,1.45,0,0-3.3,2.14-9.45,1.83C154.57,212.57,153.45,211.44,153.2,211Zm.16,22.78a2.24,2.24,0,0,1-1.57,1.51c-.12,0-1.07.25-2.75.47.13-1.45.14-2.74.14-3.24,0,0,0-.08,0-.13a4.09,4.09,0,0,0,3.34-.83A16.52,16.52,0,0,0,153.36,233.77Zm-10.95-7.29a27.79,27.79,0,0,1,4.84,1.36,14.15,14.15,0,0,1,.66,3.15l-6.56-1.35a8.75,8.75,0,0,1,.68-1.41A3.53,3.53,0,0,0,142.42,226.48Zm-.12-2.13c1.53.07,2.89.15,3.8.25.1.4.31,1.18.53,1.86-1.4-.35-2.87-.64-4.22-.86C142.38,225,142.32,224.53,142.29,224.35Zm.62-1.08c-1.52-.06-5.26-.47-6.4-.39a5.38,5.38,0,0,1-1.74-2.84s1,1.27,4.65,1.45a28.63,28.63,0,0,0,8.62-1,17.72,17.72,0,0,0,4.1-2,5.93,5.93,0,0,1-.2.75c-1,2.76-1.29,4.92-2.08,5.15h0C148.21,224.11,144.17,223.31,142.92,223.26Zm-6.11.95c1.24,0,2.61,0,3.94.08a1.51,1.51,0,0,0-.25,1,28.72,28.72,0,0,0-4.45,0Zm3.83,2a10.64,10.64,0,0,1-.83,3.11l-2.09-.4a32.93,32.93,0,0,0-4.62.1c.56-.72,1.16-1.34,2.24-2.78A27.46,27.46,0,0,1,140.63,226.22Zm.29,4.51c1.68.3,4.41,1,7.1,1.49a21.89,21.89,0,0,1-.05,3.67,64.35,64.35,0,0,1-8.67.34h-.17c.06-.26.12-.5.17-.69C139.53,234.72,140.25,232.53,140.92,230.73Zm7.12-3.88c-.31-.41-.08-1.36.08-1.86a11.48,11.48,0,0,1,2.57.61,5.26,5.26,0,0,1,1.35,1.58l-.12,1.37A14.07,14.07,0,0,0,148,226.84ZM151.8,230l-.08.92a14.32,14.32,0,0,1-2.64.22c-.12-.89-.31-1.94-.51-2.8A26.39,26.39,0,0,1,151.8,230Zm.55-13.27c-.13.23-.94,1.46-4,1.35-3.42-.13-9.61-1.08-10.29-1.82a40.25,40.25,0,0,0,6.16.13c4.18-.2,4.9-.71,5.54-1a10.55,10.55,0,0,0,2.33-1.3c.09-.06.23-.16.33-.12A20,20,0,0,1,152.35,216.76Zm-9.75-3.94c-4.83-.65-6.87-1.64-7.73-2.36a10.49,10.49,0,0,0,2,.28,34.37,34.37,0,0,0,3.43.35c3.64.18,6.9.3,9.84-1.72.48-.33,1.56-1,1.56-1a15.86,15.86,0,0,1,.29,3S151,214,142.6,212.82Zm-9.41.87c-.18-1.1-.29-2-.35-2.53a26,26,0,0,0,3.23,1.22,54.84,54.84,0,0,0,11.29,1.45c1,0,2.67-.28,3.51-.43a3,3,0,0,1-1.89,1.19c-2.12.6-4,.69-9.61.93a8.72,8.72,0,0,1-4.89-.8A4,4,0,0,1,133.19,213.69Zm1.11,5c-.33-1.08-.59-2.24-.81-3.32a6.35,6.35,0,0,0,1.56,1.09,32.68,32.68,0,0,0,3.84,1.46c2,.63,8.79,1.83,11.39.7h0a21.36,21.36,0,0,1-3.36,1.26,34.07,34.07,0,0,1-8.18.5,6.17,6.17,0,0,1-3.31-.71A4.7,4.7,0,0,1,134.29,218.69Zm-2.79,6.25a3.94,3.94,0,0,1,1.71-.67c.54,0,1.34-.06,2.29-.06l-.92,1.2a19.55,19.55,0,0,1-3,.19C131.35,225.5,131.39,225.21,131.5,224.94Zm-3,2.55a42.62,42.62,0,0,1,5.32-1.07l-1.91,2.68a25.13,25.13,0,0,1-3.91.08,1,1,0,0,1-.7-.39C127.68,228.38,128.08,227.93,128.51,227.49Zm.83,12.33a7.52,7.52,0,0,1-3.93-4.22c0-.09-.05-.19-.08-.28a1.49,1.49,0,0,1,1.41-.35,9.49,9.49,0,0,0,2.32,1.38,4.06,4.06,0,0,0,.6,3.63Zm0-4.6a8.65,8.65,0,0,1-1.92-.87,3.93,3.93,0,0,1-1.63-3.08c.65,0,3.62-.58,5.36-.89a24.23,24.23,0,0,0-1.27,3.1C129.56,234.25,129.4,234.81,129.29,235.21ZM137,241a25.64,25.64,0,0,1-5.62-.32l.76.11h0c-1.09-.35-1.52-2.39-1.59-4a34.48,34.48,0,0,0,5.2.6l2,.09A27.68,27.68,0,0,1,137,241Zm-6.44-5.43a12.22,12.22,0,0,1,1.74-5.34,61,61,0,0,1,7.19.35c-.24,1.06-1.13,3.95-1.55,5.64A46,46,0,0,1,130.56,235.54Zm13.67,5.64-2.71-.11-1.94-.07-.09-.06c-.74-.45-.76-2-.58-3.47,3.39.07,6.49,0,8.81-.2A6.15,6.15,0,0,1,144.23,241.18Zm6.17-.55a8.93,8.93,0,0,1-3.53.61l.23,0c1-.19,1.51-2,1.79-4a12.91,12.91,0,0,0,3-.46,8.73,8.73,0,0,1,1.55-.63C152.88,237.72,151.7,240.14,150.4,240.63Zm4-9c-.61-1.57-1.13-3.17-1.13-3.17,0-.19,0-.62.08-1.11a5.11,5.11,0,0,0,2.18,2.4,13.52,13.52,0,0,0,.48,3.41A5.81,5.81,0,0,1,154.45,231.59Zm1.57-4.41a16.21,16.21,0,0,1-2.52-1.82v-.28s-.19-1.26.13-1.32a19.34,19.34,0,0,1,2.86.9A12,12,0,0,0,156,227.18Zm2.06,6.59H158a6.43,6.43,0,0,1-1.31-3.5,13,13,0,0,0,3.8.8h0a25.82,25.82,0,0,0,.68,3.05C159.82,233.94,158.7,233.8,158.07,233.77Zm5.24.66a6.31,6.31,0,0,1-1.35-3.1c1.38.24,2.8.47,4.22.69a8.15,8.15,0,0,0,.92,3Zm3.26-4c-1.52-.31-3.85-.76-4.75-.93h0a4.68,4.68,0,0,1,1.66-3.66,22.76,22.76,0,0,0,3.79.51l.43,0C167.19,227.83,166.84,229.42,166.56,230.43Zm2.17,4.83a7,7,0,0,1-.77-3c1.74.25,3.46.48,5.08.67a17.29,17.29,0,0,0,.43,3S170.66,235.56,168.74,235.26Zm11.67,1.44c-2-.08-3.94-.39-5.4-.54h0c-.75-.07-1.17-3.1-.82-3.08a59,59,0,0,0,7.61.51C182.25,233.63,181.31,236.4,180.41,236.7Zm1.88-4.68c-.26.41-7.77-.41-8-.43s.72-5.34,1.11-5.29a21.4,21.4,0,0,0,7.32,2.23C183,228.57,182.35,231.79,182.28,232Zm4.07,3.45a7.18,7.18,0,0,1-3.51,1.17c.15-.65.4-1.73.74-3.28,1.87-.25,4.36-.51,5.77-1.44A9.16,9.16,0,0,1,186.36,235.47Zm2.51-9.37c.23-.18,1.11,1.86,1.08,2.81-.51,1.16-2.06,3.54-6,2.95,0,0,.09-3.24.19-3.36A6.5,6.5,0,0,0,188.86,226.1Zm-4.72-4.41a7.55,7.55,0,0,1,3.33,1.57c.19.17.63.67.64.91a4.08,4.08,0,0,1-4.1,2.68h-.09a28.06,28.06,0,0,0-1.05-4.4c-.14-.33-.4-.68-.53-1C182.49,221.29,183.76,221.58,184.14,221.69Zm-3.28-.53c1,.7,1.61,3,1.8,5.57a36.83,36.83,0,0,1-6.84-1.76,6.63,6.63,0,0,1,3-3.88A3.15,3.15,0,0,1,180.86,221.16Zm-8.41,1.52c.56-.29,1.57-.69,2.07-.91a4.52,4.52,0,0,1,2.12-.5,13.1,13.1,0,0,0-2.38,3.7c-1.35.09-3.22.28-4.21.41C169.81,224.72,171.48,223.36,172.45,222.68Zm1.33,3.58a17.39,17.39,0,0,0-.78,5.18c-1.88-.23-4.76-.59-5-.68a14.16,14.16,0,0,1,.36-2.27,6.69,6.69,0,0,1,.91-2A27,27,0,0,0,173.78,226.26ZM169.11,216a22.28,22.28,0,0,1-4.65.44c-5.83-.07-10.19-2.43-10.93-3.62.66.27,2.22.67,5.87.71,8.87.1,10.54-2.43,10.92-2.54C170.45,211,169.84,212.94,169.11,216ZM179,173.18a34.7,34.7,0,0,1-1.08,5.72.06.06,0,0,0,0,.06h0c-.07.27-.13.51-.18.72a34.8,34.8,0,0,1-1.92,4.57,27.72,27.72,0,0,1-2.6,3c0,.49,2.35-1.13,3.18-2.07a50.16,50.16,0,0,0-.07,8.36c.38,4.72-2.28,11.08-3.93,13.09s-5.61,3-10.08,3.22c-6.21.24-8.75-1.39-8.75-1.39a2.3,2.3,0,0,1-1-.79,2,2,0,0,1-.21-1,13.92,13.92,0,0,1,.21-2.2c.15-1.87.51-5.07,2-14.3,0,0,.77-7.38,1.6-11.07.34-1.51,1.86-5,3.12-6.11a6.15,6.15,0,0,1,3.3-1.24h1.19a38.52,38.52,0,0,0,11.23-.48,40.15,40.15,0,0,0,4.16-1A22.86,22.86,0,0,1,179,173.18Zm-6.84-3.34-.45,0c1.48-3,3.41-9.67,4-9.79.8-.16,6.21,5.21,8.14,6.87A43.16,43.16,0,0,1,172.12,169.84Zm13.37-4.36a.68.68,0,0,1-.7.31c-.64-.62-6.28-6.12-8.75-7.08,3-.38,5.58-.8,8.85-1.37a13.67,13.67,0,0,1,1,5.45A4.37,4.37,0,0,1,185.49,165.47Zm.95-24.89a4.31,4.31,0,0,1-2.17-.11c-.61-.4-.45-1-1.1-2.53a6.35,6.35,0,0,0-1.42-2.33l4.94-.41a4.44,4.44,0,0,1,.2,2.68c-.23,1.14-.36,2.19-.42,2.71Zm-7.38-15.23a7,7,0,0,0-1.9-3.77,7.67,7.67,0,0,0-2.58-1.38c-.42-.78,1.69-2.27,4.86-2.51a39.19,39.19,0,0,1,4,0,5.41,5.41,0,0,1,4,2.94,29.56,29.56,0,0,1,1.44,7.52,39.58,39.58,0,0,1-.65,4.84,2.55,2.55,0,0,1-.18.67,1.07,1.07,0,0,1-.67.37,20.27,20.27,0,0,1-4,.46h-1.88a26.08,26.08,0,0,0-3.07.22,8.24,8.24,0,0,0,1.14-3.84A18.41,18.41,0,0,0,179.06,125.35ZM201,128c-.35.93-.33,1.89-.89,4.48s-1.2,3.67-2,4.41a9.72,9.72,0,0,1-2.88,1.35,19.27,19.27,0,0,0,1-2.57c.16-.68.33-2.07.14-2a23.8,23.8,0,0,0-2.57,4.78c-1.26,2.78-2.87,2.48-4.13,2.71a7.1,7.1,0,0,1-3-.44,24.3,24.3,0,0,0,2.18-3,16.31,16.31,0,0,0,1.63-5.62,31.3,31.3,0,0,0-.46-8.76,11,11,0,0,0-1.77-4.24,8.21,8.21,0,0,0-2.59-2.37c-.87-.49-1.32-.5-2.5-1.1a13.47,13.47,0,0,1-2.25-1.45.92.92,0,0,0-.72.31c-.35.47.19,1.19-.2,1.71-.06.09-.14.15-.57.34a7.58,7.58,0,0,1-1.57.59c-.56.13-1.08.26-1.57.39a1.2,1.2,0,0,1,.21-1.12,2.38,2.38,0,0,1,1.11-.78,19.52,19.52,0,0,0,2.85-2c.3-.34,1.8-1.39,4.48-.8s3.22,1.41,4.79,2.87a35.78,35.78,0,0,1,3.2,4c.51.56-.08-2.13-1.54-4.1a13.17,13.17,0,0,0-2.48-2.74c-1.32-.93-2.82-1.22-2-1.22a14.21,14.21,0,0,1,5.53.8c2.85,1,5.53,4.14,5.72,4.35s3.36,3.6,3.88,6.17S201.38,127,201,128Zm.58-8.15a38.25,38.25,0,0,0-2.1-3.33,15.16,15.16,0,0,0-3.62-3.88,13,13,0,0,0-5.16-2.28,21.86,21.86,0,0,0-5.65-.36,17,17,0,0,1-3.74,0c-1-.27-.86-4.16-.79-4.82s.16-2.18,0-2.25-.51.86-1.05,1.66-.91.14-1.1-.48a31.64,31.64,0,0,0-.4-4.39c-.54-2.43-.72-.84-.72-.84s0,7,0,7.44.42,7.65.42,7.65a7.54,7.54,0,0,0-2.12,1.5,4,4,0,0,0-.83,2.5,2.69,2.69,0,0,0-1.33,1.2,5.7,5.7,0,0,0-.58,1.62c0,.09.58-.05.58-.05a5.83,5.83,0,0,1,2.2,1c1.7,1,2.59,2.52,3.07,6.54a9,9,0,0,1-2.22,6.86l.31.18-.59.81,1.76-.15h0v0l2-.17c.24.52.59,1.21,1.05,2,1.39,2.41,2,3.86,3.32,4.28a11.3,11.3,0,0,0,1.55.18c.53,5.93-.32,13.14-.64,13.53-.58.69-1.72.66-3.06,1-1.64.4-5.87.82-6.48.9-6,.8-14.84,1.44-20.3,1.53A144.74,144.74,0,0,1,137,157.91c-1.3-.17-9.19-.65-12.34-1.51-1.87-.51-3.58-1.22-4.11-2,0-.27.08-5.25.15-6s-.26-6.27-.26-6.73a19.19,19.19,0,0,1-.07-2.81c.11-.59.44-2,.55-2.51l2.12.18v0h0l1.76.15-.59-.81.31-.18s-3.2-2.94-2.22-6.86,1.37-5.56,3.07-6.54-.91-.92-1.63-.13a7,7,0,0,0-1.9,4.25c-.2,2.16-.52,4.18-.52,5a16,16,0,0,0,1,3.46l.16.37a26.06,26.06,0,0,0-3.07-.22h-1.88a20.26,20.26,0,0,1-4-.46,1.07,1.07,0,0,1-.67-.37,2.56,2.56,0,0,1-.18-.67,39.59,39.59,0,0,1-.65-4.84,29.56,29.56,0,0,1,1.44-7.52,5.41,5.41,0,0,1,4-2.94,39.19,39.19,0,0,1,4,0,6.32,6.32,0,0,1,3.8,1.94,11.29,11.29,0,0,1-.76-1.12l-.11-.18a4.61,4.61,0,0,0-.83-3,7.45,7.45,0,0,0-2.1-1.51s.42-7.24.42-7.68,0-7.47,0-7.47-.18-1.6-.72.85a32.25,32.25,0,0,0-.39,4.41c-.18.62-.55,1.28-1.08.48s-.83-1.74-1-1.67-.12,1.6,0,2.26.23,4.57-.78,4.84a16.5,16.5,0,0,1-3.69,0,21.29,21.29,0,0,0-5.59.37c-1.82.55-3.65.75-5.1,2.28a38,38,0,0,0-3.44,4.11c-1,1.37-2.22,3.13-2.22,3.13s-1.48,2.22-1.5-1.26,1.57-9.27,1.66-9.66a24.32,24.32,0,0,1,2.77-6.38c.79-1.33,3.49-5.28,6.28-6.76a39,39,0,0,0,7.5-5.89c.44-.59,5.79-6.08,8-7a49.06,49.06,0,0,1,6.35-2.12c1-.18,3.58-1.05,3.58-1.05l2-.67a5.25,5.25,0,0,1,1.36.6,13.56,13.56,0,0,0,2.27,1,4.78,4.78,0,0,1,2,2.07c.86,1.85.21,14.81.41,16.3l1.41,1c0-.16,0-2.57,0-6,0,0,5.43-4.77,6.33-5.36,1.23.54,5.8,4.85,7.08,5.35l0-1.61c-1-.68-4.22-3.3-5.91-4.59.05-.05,5.63-4.76,6.27-5.35a25,25,0,0,0-.33,3.25c-.07,1.89,0,12.78-.22,14.15h1.16c.11-1-.08-11.12-.12-12.15a33.64,33.64,0,0,1,.74-4.75c.32-1.52,1.62-3.11,5.36-4,0,0,1.27-.08,2.48-.19l1.9.62s2.59.86,3.62,1a50.17,50.17,0,0,1,6.42,2.12c2.22.89,7.63,6.35,8.08,6.94a39.31,39.31,0,0,0,7.59,5.87,18.44,18.44,0,0,1,6.35,6.74c.63,1.41,2.29,6.37,2.38,6.76s2.12,5.76,2.1,9.22S201.62,119.83,201.62,119.83Zm-80.81-4.36c.3.2,1.47.86,1.65,1.36.06.17.13.4.19.65-.45-.17-.71-.22-1.21-.44s-.5-.26-.57-.34C120.62,116.33,120.8,115.88,120.81,115.47Z" fill="#692f23"/><path d="M166.82,36.95c.49.69.2.74.2.74a20.82,20.82,0,0,0-4.26-2.11,16.32,16.32,0,0,0-4.61-.34c-.69.15-1.23.14-1.42-.1s-.18-.59.29-.88c.12-.08,1.15-.78,5.2-.2A9.63,9.63,0,0,1,166.82,36.95Z" fill="#692f23"/><path d="M176.81,134.71a9.51,9.51,0,0,0-3.49,2c-1.15,1.05-2,2.6-3.59,3.56a6.79,6.79,0,0,1-2.84,1.18A6.53,6.53,0,0,1,163,141c-1-.56-2.91-1.7-3.63-2.12a6.2,6.2,0,0,1-2.52-3c-.36-1.31-.17-1.71.13-2s1.27-.34,2-.34,2.09.95,2.94,1.34a21.8,21.8,0,0,1,3.37,2.32,2.16,2.16,0,0,0,2.09.2c.1-.18-.62-.3-1-.61s-.91-.53-1.25-.82-1.08-.62-1.6-1-2.12-1.54-2.68-1.9a8,8,0,0,0-3.63-.29,2.94,2.94,0,0,0-2.12,1.9c-.46,1,1.41,3.27,2.09,4a41.69,41.69,0,0,0,4.71,3l-.25.1c-.25.11-1.36,0-2.08.16a18.9,18.9,0,0,1-4-.31,27,27,0,0,1-2.95-1.25,3.87,3.87,0,0,0,.79-.52,10.39,10.39,0,0,0,1.37-1.92,6.68,6.68,0,0,0,.4-1,1.7,1.7,0,0,0,.07-.76,1,1,0,0,0-.66-.72,1.65,1.65,0,0,0-1.07.06l0,0a2.28,2.28,0,0,0-.18-.51,3.75,3.75,0,0,0-3.75-1.95,4.28,4.28,0,0,0-2.2.64,10.09,10.09,0,0,0-1.64,1.13,2.66,2.66,0,0,0-1.86-1.39,8,8,0,0,0-3.63.29c-.56.36-2.16,1.5-2.68,1.9a8.88,8.88,0,0,1-1.6,1,8.61,8.61,0,0,1-1.47.52c-.46.07-1,.85-.82.91s1.5.33,2.09-.2a21.79,21.79,0,0,1,3.37-2.32,16.26,16.26,0,0,1,2.94-1.34c.68-.09,1.28-.28,1.83.37a1.85,1.85,0,0,1,.29,2,6.24,6.24,0,0,1-2.52,3c-.72.42-2.61,1.57-3.63,2.12A6.53,6.53,0,0,1,134,142a6.79,6.79,0,0,1-2.84-1.18c-1.55-1-2.45-2.51-3.59-3.56a9.51,9.51,0,0,0-3.49-2l-.56.4,1,.82s3,2.88,3.66,3.59a12,12,0,0,0,4.12,2.48,37.58,37.58,0,0,0,4.77.52,1.56,1.56,0,0,0,.34-.13,11,11,0,0,0,2.24,0,12.08,12.08,0,0,0,6.7-.46,12.25,12.25,0,0,0,1.87-.92c1.44-.42,2.62-.79,3.49-1.07l.07,0a7.21,7.21,0,0,1,1.38.82,11.6,11.6,0,0,0,4.83,1.32,21.89,21.89,0,0,0,3.53-.25c.19,0,1.48,0,1.87,0a1.53,1.53,0,0,0,.33.13,37.6,37.6,0,0,0,4.77-.52,12,12,0,0,0,4.12-2.48c.65-.72,3.66-3.59,3.66-3.59l1-.82Zm-30.9,7.17a7.34,7.34,0,0,1-1.21.37,9.68,9.68,0,0,1-1.76.12,19,19,0,0,1-3.46-.07,2.32,2.32,0,0,1-.42-.16,41.88,41.88,0,0,0,4.73-3c.66-.66,2.42-2.82,2.13-3.85a11.11,11.11,0,0,1,2.71-1.45,4,4,0,0,1,3.07.26,2.37,2.37,0,0,1,.82.89h0a2.47,2.47,0,0,1,.16,1.08,2,2,0,0,1-.13.61,3.64,3.64,0,0,1-.31.56s-.18.28-.29.45a7.31,7.31,0,0,1-1,1.07c-1.35,1.25-1.13,1.14-1.51,1.43A14.74,14.74,0,0,1,145.91,141.88Zm3.78-1.21.08-.06a15.24,15.24,0,0,0,2.22-1.82,3.2,3.2,0,0,0,1.3-2,3.23,3.23,0,0,0,.17-.85c.11-.37.7-.4,1-.17s.18.54.15.78a3.42,3.42,0,0,1-1,1.86,5.69,5.69,0,0,1-2.65,1.86Z" fill="#692f23"/><path d="M132.6,129.9s3,2.15,3.52,2.42,2.8,1.85,3.31,1.85,1.07-.66,1.07-.66-3.28-1.68-4.1-2.23c-1.17-.79-2.89-2.15-2.95-2.24S132.6,129.9,132.6,129.9Z" fill="#692f23"/><path d="M165.23,127.43a32.36,32.36,0,0,1-3.46,3.07c-.89.51-3.18,2-3.56,2.14s2.1.3,2.1.3,1.78-1.28,2.29-1.73c.71-.62,1.72-1.32,2.32-1.93.45-.45,1-1,1.14-1.11s.36-.33.36-.33Z" fill="#692f23"/><path d="M148.69,133.24a2.28,2.28,0,0,1,1.32-.72,9.47,9.47,0,0,1,2.66.16,11.94,11.94,0,0,1,1.74.81c.4.27,1.07.61,1.07.61l-.47.62a27.6,27.6,0,0,0-2.84-1.43,6.84,6.84,0,0,0-1.74-.16,5.17,5.17,0,0,1-.92.16Z" fill="#692f23"/><path d="M128.25,125.3s-2.61-3.2-3.54-2.55c-.12.09,1.12-1,1.12-1l.22.09.7.82,2.06,2.14Z" fill="#692f23"/><path d="M171,123.64a19.48,19.48,0,0,1,2.13-2.07,2.22,2.22,0,0,1,1.82-.17l-.94-.83-.95-.26-2.78,3.13Z" fill="#692f23"/><path d="M152,213" fill="#692f23"/><path d="M150.58,133.06" fill="#692f23"/><path d="M133.9,104.24" fill="#692f23"/><path d="M133.26,61.31c0-.47.33-.77,1.18-.77,1.61,0,2.69,1.26,5.75,2.36a16.39,16.39,0,0,0,2.11.59,20.77,20.77,0,0,0,3.43.41,26.26,26.26,0,0,0,4.53-.07A16.23,16.23,0,0,0,156,62.46a30.81,30.81,0,0,0,4.68-2.5,2.68,2.68,0,0,1,1.1-.43,1.51,1.51,0,0,1,1,.15c.24.14.36.21.42.49a.6.6,0,0,1-.8.58c-.57-.23-.27-.56-.39-.6-.58-.18-1.2.3-1.69.66a35.36,35.36,0,0,1-4.15,2.5,14.52,14.52,0,0,1-3,1.12,20.85,20.85,0,0,1-4.89.74,23.24,23.24,0,0,1-7.61-1.05,14.47,14.47,0,0,1-3.64-1.65A21.46,21.46,0,0,0,134.84,61c-.12,0-.29-.11-.52.16s-.22.55-.44.58A.49.49,0,0,1,133.26,61.31Z" fill="#692f23"/><path d="M147.93,67.91a25.21,25.21,0,0,0,4.6-.42c.41-.09.72-.21.79-.08s.06.22-.2.41A10.69,10.69,0,0,1,147.79,69c-3.21,0-4.53-1.24-4.53-1.24s-.18-.16-.06-.31.29-.06.61,0A12.56,12.56,0,0,0,147.93,67.91Z" fill="#692f23"/><path d="M144.47,54.55a13.81,13.81,0,0,0,3.66.75,8.1,8.1,0,0,0,3.73-.81c.42-.19,1-.32.71.17a5.57,5.57,0,0,1-4.28,1.73,5.79,5.79,0,0,1-4-1.32C144,54.88,143.44,54.19,144.47,54.55Z" fill="#692f23"/><path d="M128.4,46.15a7.09,7.09,0,0,1,2.56-2.5c1.49-.69,4.29-1.51,6-.87A8.12,8.12,0,0,1,140.66,46c.25.71.55,1.11-.06,1.31a28.66,28.66,0,0,0-3.14.51,14.37,14.37,0,0,1-4.45.64C131.52,48.48,128.78,48,128.4,46.15Z" fill="#fff"/><path d="M130.84,44.9s0,1.87.88,2.61a4.88,4.88,0,0,0,3.24.8,2.89,2.89,0,0,0,2.35-1c.36-.69,1.05-2.79-.41-3.81a4.78,4.78,0,0,0-3.83-.72A2.78,2.78,0,0,0,130.84,44.9Z" fill="#88cceb"/><path d="M141.43,46.64c-.07-.14-.59-.91-.77-1.18a10.49,10.49,0,0,0-2-2,8.64,8.64,0,0,0-1.76-1,5.21,5.21,0,0,0-2-.3,13.27,13.27,0,0,0-2.57.24l-.4.11c-.22.07-.38.14-.48.18a9,9,0,0,0-1.76.89,7.23,7.23,0,0,0-.81.66,5.58,5.58,0,0,0-.59.61,3.09,3.09,0,0,0-.65,1.16,2.14,2.14,0,0,0,0,.91,1.41,1.41,0,0,0,.54.6,5.34,5.34,0,0,0,1.38.67l.32.08a19.38,19.38,0,0,0,2.33.31,16.17,16.17,0,0,0,3.57-.11A13.07,13.07,0,0,0,138.1,48c.37-.11,1.08-.3,1.18-.31,1.2-.18,1.74.06,2.07-.27A.71.71,0,0,0,141.43,46.64Zm-2.47.53a12.69,12.69,0,0,0-2.6.59,11.89,11.89,0,0,1-5.19.27,3.1,3.1,0,0,1-1.47-.47,2,2,0,0,1-.7-.71.85.85,0,0,1-.15-.48,4.19,4.19,0,0,1,.71-1.52,4,4,0,0,1,2.27-1.53,28,28,0,0,1,3.43-.34,2.31,2.31,0,0,1,1.09,0,8.67,8.67,0,0,1,1.62.88,7.27,7.27,0,0,1,1.85,1.68s.73.83.67,1.22S139.11,47.16,139,47.17Z" fill="#692f23"/><circle cx="134.32" cy="45.1" r="2.14" transform="translate(70.24 171.47) rotate(-81.67)" fill="#692f23"/><circle cx="132.35" cy="44.42" r="0.76" transform="translate(69.22 168.93) rotate(-81.67)" fill="#fff"/><path d="M138,44.26a2.53,2.53,0,0,0-1.58-1.53,2.48,2.48,0,0,0-1.26.11.74.74,0,0,0-.34.13l-.15.07h.22l.7.37a1.37,1.37,0,0,1,.61.06,1.55,1.55,0,0,1,1,1.26,3.73,3.73,0,0,1,0,1.43,2.57,2.57,0,0,1-.84,1.28,3.92,3.92,0,0,1-2.73.53,2.61,2.61,0,0,1-1.55-.76,2.44,2.44,0,0,1-.74-1.43,2.8,2.8,0,0,1,.07-1.34,1.46,1.46,0,0,1,.3-.61.88.88,0,0,1,.59-.33,1.08,1.08,0,0,1,.72,0c.13,0,1.66-.67-1-.39a3.64,3.64,0,0,0-.83.38,2.53,2.53,0,0,0-.57,2,2.79,2.79,0,0,0,1.51,2.55,3,3,0,0,0,2.2.46l1.94-.19a3,3,0,0,0,1.19-.94l.11-.16h0A4,4,0,0,0,138,44.26Z" fill="#692f23"/><path d="M167.91,46a7.09,7.09,0,0,0-2.67-2.39c-1.52-.62-4.35-1.32-6-.61a8.12,8.12,0,0,0-3.58,3.41c-.22.72-.5,1.14.12,1.31a28.66,28.66,0,0,1,3.16.37,14.37,14.37,0,0,0,4.48.45C164.9,48.48,167.62,47.9,167.91,46Z" fill="#fff"/><path d="M165.42,44.87s.13,1.86-.76,2.65a4.88,4.88,0,0,1-3.21.94,2.89,2.89,0,0,1-2.39-.94c-.39-.67-1.17-2.74.25-3.82a4.78,4.78,0,0,1,3.8-.89A2.78,2.78,0,0,1,165.42,44.87Z" fill="#88cceb"/><path d="M155,47.8c.35.32.88.05,2.08.18.1,0,.82.17,1.2.26a13.07,13.07,0,0,0,2.36.46,16.17,16.17,0,0,0,3.57,0,19.38,19.38,0,0,0,2.32-.41l.31-.1a5.34,5.34,0,0,0,1.35-.73,1.41,1.41,0,0,0,.51-.63,2.14,2.14,0,0,0,0-.91,3.09,3.09,0,0,0-.7-1.14,5.58,5.58,0,0,0-.62-.59,7.23,7.23,0,0,0-.84-.63,9,9,0,0,0-1.8-.81c-.11,0-.27-.1-.49-.16l-.41-.09a13.27,13.27,0,0,0-2.58-.13,5.21,5.21,0,0,0-2,.39,8.64,8.64,0,0,0-1.71,1,10.49,10.49,0,0,0-1.89,2.09c-.17.27-.66,1.07-.72,1.21A.71.71,0,0,0,155,47.8Zm.82-.63c-.07-.39.62-1.25.62-1.25a7.27,7.27,0,0,1,1.77-1.76,8.67,8.67,0,0,1,1.58-1,2.31,2.31,0,0,1,1.09-.07,28,28,0,0,1,3.44.19,4,4,0,0,1,2.34,1.43,4.19,4.19,0,0,1,.78,1.49.85.85,0,0,1-.13.49,2,2,0,0,1-.67.74,3.1,3.1,0,0,1-1.45.54,11.89,11.89,0,0,1-5.2,0,12.69,12.69,0,0,0-2.62-.48C157.26,47.49,155.89,47.44,155.85,47.18Z" fill="#692f23"/><circle cx="161.95" cy="45.22" r="2.14" transform="translate(-5.61 31.18) rotate(-10.81)" fill="#692f23"/><path d="M158.28,44.55a2.53,2.53,0,0,1,1.51-1.6,2.48,2.48,0,0,1,1.27.06.74.74,0,0,1,.35.11l.15.07h-.22l-.68.4a1.37,1.37,0,0,0-.61.09,1.55,1.55,0,0,0-1,1.3,3.73,3.73,0,0,0,.08,1.43,2.57,2.57,0,0,0,.9,1.24,3.92,3.92,0,0,0,2.75.41,2.61,2.61,0,0,0,1.51-.83,2.44,2.44,0,0,0,.68-1.46,2.8,2.8,0,0,0-.13-1.33,1.46,1.46,0,0,0-.32-.6.88.88,0,0,0-.6-.3,1.08,1.08,0,0,0-.72,0c-.13,0-1.69-.6,1-.44a3.64,3.64,0,0,1,.84.35,2.53,2.53,0,0,1,.65,2,2.79,2.79,0,0,1-1.4,2.61,3,3,0,0,1-2.17.55l-2-.11a3,3,0,0,1-1.23-.89l-.12-.16h0A4,4,0,0,1,158.28,44.55Z" fill="#692f23"/><circle cx="160.3" cy="44.69" r="0.76" transform="translate(92.85 196.83) rotate(-81.67)" fill="#fff"/><path d="M112.94,193.26l-22.55,4.67s-2,.1-2.07,1.93.17,33.9.17,33.9-.37,1,3.66,2.34S104,240.7,104,240.7l11.78,3.66s.37.41,3-.91,17.64-9.11,17.64-9.11l2.64-1.59s.05-1.49.1-1.59-.3-31.22-.3-31.22.19-1.71-1.12-2.24-20.83-3.86-20.83-3.86A19.36,19.36,0,0,0,112.94,193.26Z" fill="#fd8204"/><path d="M99.21,186.77c-.13.12-2,.36-2.44,2.13a5,5,0,0,0-.05,1.68,4.88,4.88,0,0,0-1.19,1.27,8.22,8.22,0,0,0-1.37,3.33,5,5,0,0,0,.46,3.43,3.29,3.29,0,0,0,1.9,1.07l1.4.05-1,.79a6.22,6.22,0,0,0-.23,2.57c0,2.17-.05,33.93-.05,33.93a1.21,1.21,0,0,0,.76,1c.77.39,4.19,1.75,4.19,1.75s.29.18.36-.66,0-36.19,0-36.19a2.37,2.37,0,0,1,1.52-1.19l7.54-2.54a3.28,3.28,0,0,1,1.52.2,10.8,10.8,0,0,0,2.84.18,2,2,0,0,1,1.47.38c.7.53,2.2,1.08,2.62,2.62l.42,1.54-.77,2.2s-3.73,11.51-4,11.84a19.9,19.9,0,0,0-1.22,2.57s.11.2,1.12-.2a6.24,6.24,0,0,1,3.45-.3,3.68,3.68,0,0,1,1.65,2.24c.24,1,.44.79.66.38s1.4-4.86,1.65-6a34.43,34.43,0,0,0,.74-5.28c-.05-1-.39-5.55-.56-6.22s.38-.56.63-.36,2,.93,3.15,1.41c.47.19.33,32.79.4,32.78a16.43,16.43,0,0,0,4.88-2.44c.08-.18-.42-32.92-.42-32.92a3.32,3.32,0,0,1-.12-1.91,6.23,6.23,0,0,1,.55-1.62,8.86,8.86,0,0,0,1.22-2.92,2.25,2.25,0,0,0-.79-2c-.61-.33-1.09-.66-1.09-.66a3.64,3.64,0,0,0,1.35-.61,4.08,4.08,0,0,0,.3-2.36c-.11-.7-1.14-2-1.22-2.51a14,14,0,0,0-1.09-3.28,4.16,4.16,0,0,0-3.48-.48c-1.38.5-2.63,1.13-4.52,3.66s-2.82,3.85-3.68,4.37-2.24,1.83-2.34,1.83a6.21,6.21,0,0,0-2.44-.81,16.6,16.6,0,0,0-2.34,0,4.78,4.78,0,0,1-.76-1.65,17.78,17.78,0,0,0-1.12-4.75c-.61-1.19-2.21-4.29-3.23-5s-1.88-1-2.69-.58-1.7,1.9-2.13,2.26S99.75,186.25,99.21,186.77Z" fill="#c7c0b1"/><path d="M139.51,231.18c0-.53,0-32.49,0-32.49a1.51,1.51,0,0,0-.9-1.09,51.17,51.17,0,0,0-5.68-1.53c0-.39-.49-.92-1.35-1.33h0a2.55,2.55,0,0,0,1-1.06,4.14,4.14,0,0,0,.45-2,3.71,3.71,0,0,0-.84-1.41,7.54,7.54,0,0,1-.63-1.93,6.26,6.26,0,0,0-1.4-3.15c-.61-.43-3-.49-4.58.26a5.88,5.88,0,0,0-3.13,2.48c-1.07,1.57-1.54,3.42-3.78,5.2l-.84.59a.75.75,0,0,1-.64,0,8.37,8.37,0,0,0-1.22-.42l-.08,0A6.65,6.65,0,0,0,114,193a9.82,9.82,0,0,0-2.33.4.55.55,0,0,1-.65-.35c-.15-.35-.16-1.73-.31-2.4a19,19,0,0,0-1-2.83c-.31-.67-.95-2-1.75-3.42a6,6,0,0,0-2.41-2.31,3.12,3.12,0,0,0-1.83-.21,2.93,2.93,0,0,0-1.38,1.14,6.43,6.43,0,0,1-1.54,1.67,28.78,28.78,0,0,1-2.39,1.62,4.84,4.84,0,0,0-1.57,1.4,3.92,3.92,0,0,0-.59,2.05,3,3,0,0,0,.06.87,4.18,4.18,0,0,0-1.48,1.49,7.16,7.16,0,0,0-.93,2.54,9.55,9.55,0,0,0-.14,2c-.46.09-3.92.94-5,1.34a1.13,1.13,0,0,0-.86,1.06s0,33.38,0,34.48a1.46,1.46,0,0,0,.87,1.4s7,2.83,7,2.87,3.93,1.77,5.09,2.1l13.81,4.67a4.9,4.9,0,0,0,1.57.16c.5-.11,21.93-11.14,21.93-11.14a5.74,5.74,0,0,0,1-1A2.24,2.24,0,0,0,139.51,231.18Zm-7-31.41a3.62,3.62,0,0,0,.71-2,5.24,5.24,0,0,0-.06-.87l4.6,1.17s.4.19-.29.48-4.55,1.64-5.59,2C132.08,200.19,132.36,199.94,132.46,199.78Zm-.21-6.69a2.36,2.36,0,0,1-1.42,1.37l-.2-.06a13.68,13.68,0,0,0-3-.42,12.08,12.08,0,0,0,1.54-1,3.17,3.17,0,0,0,1.12-1.32,1.24,1.24,0,0,0,0-1,1.94,1.94,0,0,1,1.3.45A1.89,1.89,0,0,1,132.25,193.09Zm-6.32.89a26.78,26.78,0,0,0-2.74.26,6.38,6.38,0,0,1-1.17,0c-.4-.06.34-.59.85-.87a42.21,42.21,0,0,1,4.69-2.38,9.09,9.09,0,0,1,1.76-.39.66.66,0,0,1,.4.7c0,.56-1.15,1.44-1.67,1.75A4.36,4.36,0,0,1,125.93,194Zm-6.33-.74a15.26,15.26,0,0,0,3.25-4.31,6.22,6.22,0,0,1,4-3c2-.45,2.89-.22,3.23.22a5.75,5.75,0,0,1,.77,2.29,6.63,6.63,0,0,0,.77,1.93s.18.18-.94-.26a4.23,4.23,0,0,0-3.44.29,48.78,48.78,0,0,0-4.64,2.47,17.83,17.83,0,0,1-2.44,1.38,10.38,10.38,0,0,1-2,.62,5,5,0,0,1-1,0C116.88,194.83,118.21,194.31,119.6,193.24Zm.87,2.19a34.27,34.27,0,0,1,6.43-.72c1.57.12,3.64-.25,5.07,1.37a1.91,1.91,0,0,1,.4,1.28,5.84,5.84,0,0,1-1.06,2.57,7.09,7.09,0,0,0-1.22,3.26c0,.58,0,.92-.24.88s-.13-.58-2.16-.58a11.79,11.79,0,0,1-3.76-.4,4.57,4.57,0,0,1-1.84-1.52l-.72-1.75a6.43,6.43,0,0,0-1.13-1.82,5.42,5.42,0,0,0-2.48-1.25c-.82-.22-1.7-.39-2.05-.44a1.48,1.48,0,0,1,.38-.79c.3-.25.63-.16,1-.07A11.28,11.28,0,0,0,120.47,195.43Zm5.07,10.48a4.63,4.63,0,0,1-3-2.22,1.12,1.12,0,0,1,0-.92s0,0,0,0l.09.08a5.13,5.13,0,0,0,2,1.06c1.31.39,3.85,0,4.62.48s.79,1,.14,1.6S127.65,206.53,125.54,205.91Zm-10.67,14.23c-1,.62-.48,0-.33-.2s1-2.06,1.4-3.07a40.34,40.34,0,0,0,1.54-4c.29-1.12,1-3.77,1.37-4.85.42-1.38,1.19-3.86,1.4-4.67a14.66,14.66,0,0,0,.39-2.22c0-.4,0-.54.06-.54a4.74,4.74,0,0,1,.45,1.4s.55,1.85.55,1.85a23.23,23.23,0,0,1,.84,5.19,33.08,33.08,0,0,1-.23,6.21c-.29,1.84-1.54,6.53-1.66,6.95s-.23.7-.35.72a13,13,0,0,1-.55-1.67,2.59,2.59,0,0,0-1.3-1.43A6,6,0,0,0,114.87,220.14Zm1.27-11.74c0-1.23.26-1.2.26-1.2l2.07-1c-.28,1-.33,1.24-.52,1.92-.33,1.15-.86,3.41-1.79,5.9C116.17,212.91,116.15,209.21,116.15,208.4Zm-.65-11c0-.14,0-.39.06-.62a17.17,17.17,0,0,1,2.79.44c1,.31,2,1.2,1.79,3.29a6.73,6.73,0,0,1-.3,1.86,5,5,0,0,0-1.58-1.91,8.47,8.47,0,0,0-2-1c-.67-.18-.79-.3-.79-.71s.06-1.3.06-1.3Zm-3-3.54a7.07,7.07,0,0,1,2.33-.23,8,8,0,0,1,2.05.59c0,.06,0,.16-.11.23l-.47.28s-.08.09-.41-.06a6.82,6.82,0,0,0-2.1-.62,14.21,14.21,0,0,0-1.55,0S111.87,194.11,112.48,193.87Zm-1.16,2.22a4.19,4.19,0,0,1,.47-1.11c.26-.35.77-.39,1.69-.34a5.38,5.38,0,0,1,1.86.47c.25.1.1.38,0,.61a3.65,3.65,0,0,0-.35,1.08,3.27,3.27,0,0,0-.08,1c0,.69.22,1.35,0,1.41A13.55,13.55,0,0,1,112,199a.94.94,0,0,1-.27-.09c-.16-.08-.37-.3-.46-.94A5.54,5.54,0,0,1,111.32,196.09Zm.59,3.37a3.44,3.44,0,0,0,1.12.45,11.48,11.48,0,0,0,2.26.06c.36-.08.51-.28.69-.19a4.1,4.1,0,0,1,2.3,1.48,6.29,6.29,0,0,1,1.26,2.17c-.15.48-.31,1-.48,1.43-.56.25-2.49,1.1-3,1.26a2,2,0,0,1-1.23-.12s-11.48-3.78-11.43-3.88,6.58-2.42,7.39-2.65l.34-.11A1.15,1.15,0,0,1,111.91,199.46Zm-9.36,2.25a2,2,0,0,1-.74,0s-3.09-.71-3.68-.88-.84-.25-.61-.43l1.51-.59,3.25-.28c.76-.08,6.29-.77,7-.87s1.68,0,1.77.21-.92.35-1.77.59S102.94,201.59,102.55,201.71Zm-2.73-15.12c.28-.41,1.94-.85,2.52-1.73s1-1.85,2-2.05,2.3,1,2.83,1.67a23.77,23.77,0,0,1,2.5,5.11c.68,2,.67,3.19.95,3.77s.5.85.42.92-1.45-.74-2.23-1.08c-.11,0-2.63-.84-3-1,0,0-.89-.78-2-1.89s-2.79-2.65-3.31-3S99.54,187,99.82,186.58ZM97.66,188a1.53,1.53,0,0,1,2.22-.27c.47.43,1.38,1.33,2.25,2.25a19.54,19.54,0,0,0,1.58,1.52c-.59-.12-3.81-.79-4.77-.91a8.71,8.71,0,0,0-1.95-.06A3.81,3.81,0,0,1,97.66,188Zm-3.07,7a5.41,5.41,0,0,1,1.19-2.94,3.65,3.65,0,0,1,2.62-1,12.47,12.47,0,0,1,3.52.72,70.39,70.39,0,0,1,8.6,3c.42.19.43.25.37.47a10.62,10.62,0,0,0-.24,1.53,6.35,6.35,0,0,0,0,1c0,.09-.35,0-.87.1s-2.66.26-4.8.32c-1.06-.08-3.6-.34-3.6-.34A8.66,8.66,0,0,1,99,197.1c-1.54-.62-2-.79-2-.79a3.79,3.79,0,0,0-1.69-.19c-.67.18-.58.34-.64.35S94.5,196,94.59,195Zm.75,1.85a4.44,4.44,0,0,1,2.17.4,16.84,16.84,0,0,0,2.7,1.06c.94.18,3.11.29,3.11.29a14.75,14.75,0,0,1,1.69,0c.09.07.17.22-1,.37a65,65,0,0,1-6.63.27c-1.61-.06-2.21-.41-2.66-1A.82.82,0,0,1,95.35,196.89Zm.82,39.39c0,.71-.63.59-.63.59s-5.42-2-6-2.48a1.81,1.81,0,0,1-.62-1.33s-.05-32.46-.07-32.89,0-.78.29-.93a.82.82,0,0,1,.4-.11s6.62,2.07,6.67,2.12,0,.38,0,.66C96.17,201.9,96.18,235.56,96.17,236.28Zm-.59-36s-4.62-1.51-4.92-1.7.21-.34.21-.34l3-.8a2.67,2.67,0,0,0,1.35,2,3.48,3.48,0,0,0,2,.38c.26,0,.11.08.11.08a2.74,2.74,0,0,1-.9.45A1.5,1.5,0,0,1,95.58,200.31Zm1.77,37.36a1.38,1.38,0,0,1-.42-1s0-34.76,0-35c0-.39.31-.43.71-.34s4.28,1.23,4.28,1.23c-.34.08-.39.79-.39.79s.05,34.84,0,35.45-.51.42-.51.42A29.68,29.68,0,0,1,97.35,237.67ZM115,243.61c-.53.05-9.44-3.1-11.89-4.07-.62-.25-.52-1.21-.52-1.21s-.37-34-.35-34.53c0-.91.46-1,.46-1l11.8,4c.9.3.91.9.91.9l0,8.4a38.75,38.75,0,0,1-1.75,3.94c-.37.61-.39,1-.25,1.19s.53,0,.88-.14a9.37,9.37,0,0,1,1.08-.42V243S115.4,243.57,115,243.61Zm10.57-4.24c-.47.32-8.57,4.21-8.57,4.21a.39.39,0,0,1-.58-.39c0-.59-.23-21.18-.24-22.72a5.76,5.76,0,0,1,1.19-.14,2.05,2.05,0,0,1,.9.11,2.21,2.21,0,0,1,1.08,1.38c.29,1,.55,1.72.6,1.94s.16.37.41.25a17.43,17.43,0,0,0,1.7-4.42,42.66,42.66,0,0,0,1.08-5.9,50.1,50.1,0,0,0,.17-5.23,21.33,21.33,0,0,0-.49-3.29s-.07-.25.14-.14,1.05.67,2,1.1a9.21,9.21,0,0,0,1,.43l.1,32A1.22,1.22,0,0,1,125.53,239.37Zm5.26-2.27c-.3.2-3.23,1.56-3.23,1.56s-.72.12-.74-.88-.09-29.24-.1-31l.43.1a5.14,5.14,0,0,0,2.46-.17,1.75,1.75,0,0,0,1.19-1.32c0-.14,0-.34.06-.52l.24,31.27S131.09,236.91,130.79,237.11Zm7.8-4.69c-.22.31-6.36,3.55-6.36,3.55a.42.42,0,0,1-.5-.45c0-.53,0-31.4,0-31.4l0-2.17s0-.64.4-.82,5.94-2.07,5.94-2.07.65-.21.64.16,0,31.71,0,31.71S138.82,232.11,138.59,232.42Z" fill="#692f23"/><path d="M141.28,220.33l12.56,2.6S155,223,155,224s-.09,18.87-.09,18.87.21.55-2,1.3-6.6,2.56-6.6,2.56l-6.56,2s-.21.23-1.68-.51-9.82-5.07-9.82-5.07l-1.47-.89s0-.83-.06-.89.17-17.38.17-17.38-.1-1,.62-1.24,11.59-2.15,11.59-2.15A10.78,10.78,0,0,1,141.28,220.33Z" fill="#e0dede"/><path d="M148.92,216.72c.07.07,1.14.2,1.36,1.19a2.79,2.79,0,0,1,0,.93,2.71,2.71,0,0,1,.66.71,4.58,4.58,0,0,1,.76,1.85,2.75,2.75,0,0,1-.25,1.91,1.83,1.83,0,0,1-1.06.59l-.78,0,.57.44a3.46,3.46,0,0,1,.13,1.43c0,1.21,0,18.89,0,18.89a.67.67,0,0,1-.42.57c-.43.22-2.33,1-2.33,1s-.16.1-.2-.37,0-20.15,0-20.15a1.32,1.32,0,0,0-.85-.66l-4.2-1.41a1.82,1.82,0,0,0-.85.11,6,6,0,0,1-1.58.1,1.11,1.11,0,0,0-.82.21c-.39.3-1.22.6-1.46,1.46l-.23.86.43,1.22s2.08,6.41,2.25,6.59a11.08,11.08,0,0,1,.68,1.43s-.06.11-.62-.11a3.47,3.47,0,0,0-1.92-.17,2,2,0,0,0-.92,1.24c-.13.54-.25.44-.37.21s-.78-2.71-.92-3.37a19.17,19.17,0,0,1-.41-2.94c0-.55.22-3.09.31-3.46s-.21-.31-.35-.2-1.12.52-1.75.78c-.26.11-.18,18.26-.22,18.25a9.14,9.14,0,0,1-2.71-1.36c0-.1.24-18.33.24-18.33a1.85,1.85,0,0,0,.07-1.06,3.47,3.47,0,0,0-.31-.9,4.93,4.93,0,0,1-.68-1.63,1.25,1.25,0,0,1,.44-1.1c.34-.18.61-.37.61-.37a2,2,0,0,1-.75-.34,2.27,2.27,0,0,1-.17-1.32c.06-.39.64-1.14.68-1.4a7.79,7.79,0,0,1,.61-1.82,2.32,2.32,0,0,1,1.94-.27,4.89,4.89,0,0,1,2.52,2,11,11,0,0,0,2.05,2.43c.48.29,1.24,1,1.3,1a3.46,3.46,0,0,1,1.36-.45,9.24,9.24,0,0,1,1.3,0,2.66,2.66,0,0,0,.42-.92,9.9,9.9,0,0,1,.62-2.64,10.32,10.32,0,0,1,1.8-2.76c.57-.37,1-.56,1.5-.33s.95,1.06,1.19,1.26S148.62,216.43,148.92,216.72Z" fill="#fd8204"/><path d="M126.67,242.43a1.31,1.31,0,0,0,.49.41s11.93,6.15,12.21,6.2a1.82,1.82,0,0,0,.88-.09l7.69-2.6c.64-.19,2.82-1.15,2.83-1.17s3.91-1.6,3.91-1.6a.81.81,0,0,0,.48-.78c0-.62,0-19.2,0-19.2a.63.63,0,0,0-.48-.59c-.58-.22-2.5-.69-2.76-.74a5.31,5.31,0,0,0-.08-1.13,4,4,0,0,0-.52-1.41,2.33,2.33,0,0,0-.82-.83,1.64,1.64,0,0,0,0-.48,2.18,2.18,0,0,0-.33-1.14,2.69,2.69,0,0,0-.88-.78,16,16,0,0,1-1.33-.9,3.58,3.58,0,0,1-.86-.93,1.63,1.63,0,0,0-.77-.63,1.74,1.74,0,0,0-1,.12,3.35,3.35,0,0,0-1.34,1.29c-.45.78-.8,1.53-1,1.9a10.55,10.55,0,0,0-.55,1.57c-.08.37-.09,1.14-.17,1.34a.31.31,0,0,1-.36.19,5.47,5.47,0,0,0-1.3-.22,3.7,3.7,0,0,0-1,.11h0a4.66,4.66,0,0,0-.68.23.42.42,0,0,1-.35,0l-.47-.33a9.38,9.38,0,0,1-2.1-2.9,3.27,3.27,0,0,0-1.74-1.38,3.46,3.46,0,0,0-2.55-.15,3.48,3.48,0,0,0-.78,1.76,4.2,4.2,0,0,1-.35,1.07,2.07,2.07,0,0,0-.47.79,2.3,2.3,0,0,0,.25,1.11,1.42,1.42,0,0,0,.56.59h0c-.48.23-.73.52-.75.74a28.49,28.49,0,0,0-3.16.85.84.84,0,0,0-.5.61s0,17.79,0,18.09A2.33,2.33,0,0,0,126.67,242.43Zm3.95-18.22c-.58-.2-2.4-.75-2.73-.89s-.1-.3-.1-.3l2.26-.65a2.92,2.92,0,0,0,0,.49,1.63,1.63,0,0,0,.33,1C130.4,223.94,130.49,224,130.62,224.21Zm.27-5.11a1.08,1.08,0,0,1,.73-.25.69.69,0,0,0,0,.58,1.77,1.77,0,0,0,.63.73,6.73,6.73,0,0,0,.86.56,7.61,7.61,0,0,0-1.66.23l-.11,0a1.31,1.31,0,0,1-.79-.76A1.05,1.05,0,0,1,130.89,219.1Zm2,1.14c-.29-.17-.9-.66-.93-1a.37.37,0,0,1,.22-.39,5.06,5.06,0,0,1,1,.22,23.5,23.5,0,0,1,2.61,1.32c.29.16.7.45.47.48a3.55,3.55,0,0,1-.65,0,14.91,14.91,0,0,0-1.52-.14A2.43,2.43,0,0,1,132.85,220.24Zm6.05,1a2.77,2.77,0,0,1-.57,0,5.78,5.78,0,0,1-1.09-.34,9.93,9.93,0,0,1-1.36-.77,27.16,27.16,0,0,0-2.58-1.38,2.35,2.35,0,0,0-1.91-.16c-.62.25-.52.15-.52.15a3.69,3.69,0,0,0,.43-1.07,3.2,3.2,0,0,1,.43-1.27c.19-.24.66-.37,1.8-.12a3.46,3.46,0,0,1,2.23,1.65,8.49,8.49,0,0,0,1.81,2.4C138.34,220.92,139.08,221.21,138.91,221.23Zm.07.32c.2,0,.38-.1.55,0a.83.83,0,0,1,.21.44c-.2,0-.68.12-1.14.25a3,3,0,0,0-1.38.7,3.58,3.58,0,0,0-.63,1l-.4,1a2.55,2.55,0,0,1-1,.84,6.56,6.56,0,0,1-2.09.22c-1.13,0-1.07.3-1.2.32s-.13-.17-.13-.49A4,4,0,0,0,131,224a3.25,3.25,0,0,1-.59-1.43,1.07,1.07,0,0,1,.22-.71c.8-.9,2-.7,2.82-.76a19.08,19.08,0,0,1,3.58.4A6.28,6.28,0,0,0,139,221.56Zm-6.87,5.86c-.36-.31-.35-.64.08-.89s1.85-.05,2.57-.27a2.86,2.86,0,0,0,1.11-.59l0,0h0a.62.62,0,0,1,0,.51,2.58,2.58,0,0,1-1.68,1.24C133.09,227.72,132.46,227.72,132.1,227.41Zm6.11,7.68a1.44,1.44,0,0,0-.72.8,7.24,7.24,0,0,1-.31.93c-.06,0-.12-.17-.19-.4s-.76-2.84-.93-3.87a18.41,18.41,0,0,1-.13-3.46,12.93,12.93,0,0,1,.47-2.89l.31-1a2.64,2.64,0,0,1,.25-.78s0,.08,0,.3a8.16,8.16,0,0,0,.21,1.23c.12.45.54,1.83.78,2.6.18.6.6,2.08.76,2.7a22.46,22.46,0,0,0,.86,2.24c.23.56.69,1.58.78,1.71s.36.46-.18.11A3.34,3.34,0,0,0,138.21,235.1Zm1.35-3c-.52-1.38-.89-2.86-1.08-3.5-.11-.38-.25-.76-.45-1.35l1.26.63s.16,0,.19.52S139.56,231.49,139.56,232.13Zm.28-9.48s0,.5,0,.72-.06.29-.44.39a4.72,4.72,0,0,0-1.14.58,2.78,2.78,0,0,0-.88,1.06,3.75,3.75,0,0,1-.17-1c-.09-1.16.43-1.66,1-1.83a9.56,9.56,0,0,1,1.55-.25c0,.12,0,.26,0,.34Zm1.83-1.86a7.91,7.91,0,0,0-.86,0,3.8,3.8,0,0,0-1.17.34c-.18.08-.23,0-.23,0l-.26-.16s-.08-.09-.06-.13a4.45,4.45,0,0,1,1.14-.33,3.93,3.93,0,0,1,1.3.13C141.87,220.81,141.68,220.79,141.68,220.79Zm.51,2.15c-.05.36-.17.48-.26.53a.52.52,0,0,1-.15.05,7.54,7.54,0,0,1-1.55.13c-.15,0,0-.4,0-.79a1.82,1.82,0,0,0,0-.56,2,2,0,0,0-.2-.6c-.08-.13-.16-.28,0-.34a3,3,0,0,1,1-.26c.51,0,.79,0,.94.19a2.33,2.33,0,0,1,.26.62A3.08,3.08,0,0,1,142.19,222.95Zm.08.79.19.06c.45.13,4.08,1.4,4.12,1.47s-6.56,2.08-6.56,2.08a1.4,1.4,0,0,1-.77,0c-.27-.09-1.13-.57-1.44-.71-.09-.26-.12-.35-.2-.61a3.5,3.5,0,0,1,.7-1.21,2.28,2.28,0,0,1,1.28-.82c.1,0,.18.06.38.11a6.39,6.39,0,0,0,1.26,0,1.92,1.92,0,0,0,.63-.25A.64.64,0,0,1,142.27,223.73Zm1.06,0c-.47-.13-1-.21-1-.33s.6-.17,1-.12l3.88.48L149,224l.06,0,.55.19c.13.1.2.17-.12.27l-2,.57a1.09,1.09,0,0,1-.41,0C146.84,225,143.79,223.91,143.32,223.78Zm4.86-6.77c-.29.21-1.21,1.07-1.84,1.69s-1.15,1.06-1.13,1.05c-.19.08-1.59.52-1.65.55-.43.19-1.2.63-1.24.6s.08-.18.23-.51.15-1,.53-2.1a13.23,13.23,0,0,1,1.39-2.84c.29-.39,1-1,1.57-.93s.8.65,1.13,1.14,1.25.74,1.4,1S148.48,216.79,148.18,217Zm2,1.82a4.85,4.85,0,0,0-1.08,0c-.53.06-2.33.44-2.66.51a10.88,10.88,0,0,0,.88-.85c.48-.51,1-1,1.25-1.25a.85.85,0,0,1,1.23.15A2.12,2.12,0,0,1,150.16,218.82Zm1.32,3.3s0-.1-.36-.2a2.11,2.11,0,0,0-.94.11s-.28.09-1.14.44a4.82,4.82,0,0,1-1.35.41s-1.41.14-2,.19c-1.19,0-2.38-.15-2.67-.18s-.48,0-.48-.05a3.54,3.54,0,0,0,0-.55,5.91,5.91,0,0,0-.13-.85c0-.12,0-.15.21-.26a39.19,39.19,0,0,1,4.79-1.64,6.94,6.94,0,0,1,2-.4,2,2,0,0,1,1.46.56,3,3,0,0,1,.66,1.64C151.54,221.86,151.52,222.13,151.48,222.12Zm0,1c-.25.34-.59.54-1.48.57a36.16,36.16,0,0,1-3.69-.15c-.67-.08-.62-.17-.57-.21a8.21,8.21,0,0,1,.94,0s1.21-.06,1.73-.16a9.37,9.37,0,0,0,1.5-.59,2.47,2.47,0,0,1,1.21-.22A.46.46,0,0,1,151.44,223.12Zm-.86,1.88a.5.5,0,0,1,.1-.28,2,2,0,0,1,.3-.07l3.17-.93a.68.68,0,0,1,.41,0c.14.09.12.39.11.63s0,18.19,0,18.19a.78.78,0,0,1-.29.68c-.34.25-3.38,1.31-3.38,1.31s-.31,0-.32-.38S150.58,225,150.58,225Zm-.18-.69a1,1,0,0,1-.39-.24s-.08,0,.06,0a1.94,1.94,0,0,0,1.1-.21,1.49,1.49,0,0,0,.75-1.14l1.65.45s.29.08.12.19-2.94,1-2.94,1A1,1,0,0,1,150.4,224.31Zm-2.51,21.54s-.21,0-.24-.34,0-19.59,0-19.59.06-.41-.12-.46c0,0,2-.6,2.21-.65s.32,0,.39.07,0,19.5,0,19.5a.86.86,0,0,1-.22.63A15.23,15.23,0,0,1,147.88,245.84Zm-7.95,1.93.08-12.15a3.55,3.55,0,0,1,.53.21c.19.1.42.17.49.08s.06-.32-.14-.66a18.66,18.66,0,0,1-.87-2v-5.09s0-.32.48-.49l6.51-2.13a.28.28,0,0,1,.24.3c0,.29-.11,20-.11,20a.45.45,0,0,1-.28.37c-1.42.45-6.31,2.19-6.6,2.14S139.93,247.78,139.93,247.78Zm-5.83-2.41,0-17.63a4.9,4.9,0,0,0,.57-.23c.51-.24,1-.55,1.09-.61s.08.08.08.08a11.88,11.88,0,0,0-.27,1.83,27.89,27.89,0,0,0,.09,2.91,23.75,23.75,0,0,0,.6,3.28,9.7,9.7,0,0,0,.95,2.46c.14.07.2,0,.23-.14s.17-.51.34-1.08a1.23,1.23,0,0,1,.6-.77,1.14,1.14,0,0,1,.5-.06,3.2,3.2,0,0,1,.66.08c0,.86-.16,12-.18,12.38s-.64.25-.64.25-4-2-4.26-2.17A.89.89,0,0,1,134.1,245.36Zm-2.93-1.61.13-16.94c0,.1,0,.22,0,.29a1,1,0,0,0,.66.74,2.86,2.86,0,0,0,1.37.09l.24-.06c0,1,0,16.28,0,16.82,0,.7-.36.6-.36.6s-1.7-.77-1.87-.88S131.16,243.75,131.16,243.75ZM127,241.3s.13-17.34.13-17.55.3-.14.3-.14,3,1,3.23,1.1.22.46.22.46v1.21s-.12,17-.13,17.29-.25.25-.25.25-3.17-1.55-3.31-1.7S127,241.3,127,241.3Z" fill="#692f23"/><path d="M133.32,102.57" fill="#692f23"/><path d="M155.83,95.5a11.46,11.46,0,0,1-.47-1.41l-7.09,4.05-6.44-3.65s-.48,1.19-.5,1.28,2.56,1.56,5.73,3.2l-3.46,2.15,2.79-.15s.87-.57,1.83-1.25l3.09,1.17,2.16-.33-3.77-1.68C152.12,97.56,155.88,95.52,155.83,95.5Z" fill="#692f23"/><circle cx="148.22" cy="84.73" r="0.64" fill="#692f23"/><circle cx="153.32" cy="87.91" r="0.64" fill="#692f23"/><circle cx="148.31" cy="93.87" r="0.64" fill="#692f23"/><circle cx="143.42" cy="99.1" r="0.64" fill="#692f23"/><circle cx="153.83" cy="98.7" r="0.64" fill="#692f23"/><circle cx="143.57" cy="87.89" r="0.64" fill="#692f23"/><circle cx="138.93" cy="78.42" r="0.62" fill="#692f23"/><circle cx="143.31" cy="77.8" r="0.62" fill="#692f23"/><circle cx="147.4" cy="80.09" r="0.62" fill="#692f23"/><circle cx="151.69" cy="77.66" r="0.62" fill="#692f23"/><circle cx="160.02" cy="76.28" r="0.62" fill="#692f23"/><circle cx="155.89" cy="78.84" r="0.62" fill="#692f23"/></g></g></svg>