<svg xmlns="http://www.w3.org/2000/svg" width="100" height="100" viewBox="0 0 100 100"><title>промокоды</title><g id="Слой_2" data-name="Слой 2"><g id="Слой_1-2" data-name="Слой 1"><rect width="100" height="100" fill="none"/><line x1="76.37" y1="48.08" x2="59.91" y2="48.08" fill="none" stroke="#692f17" stroke-linecap="round" stroke-miterlimit="10" stroke-width="0.8"/><path d="M41.49,39.37V17a2.44,2.44,0,0,1,2.44-2.44H80.59A2.44,2.44,0,0,1,83,17V72.17a2.44,2.44,0,0,1-2.44,2.44H60" fill="#f5f4f0" stroke="#692f17" stroke-linejoin="round"/><line x1="76.37" y1="56.68" x2="59.91" y2="56.68" fill="none" stroke="#d9d6cc" stroke-linecap="round" stroke-miterlimit="10" stroke-width="0.8"/><line x1="76.37" y1="65.28" x2="59.91" y2="65.28" fill="none" stroke="#d9d6cc" stroke-linecap="round" stroke-miterlimit="10" stroke-width="0.8"/><line x1="76.37" y1="52.38" x2="59.91" y2="52.38" fill="none" stroke="#d9d6cc" stroke-linecap="round" stroke-miterlimit="10" stroke-width="0.8"/><line x1="76.37" y1="60.98" x2="59.91" y2="60.98" fill="none" stroke="#d9d6cc" stroke-linecap="round" stroke-miterlimit="10" stroke-width="0.8"/><path d="M19.4,42.42H57.48a2.43,2.43,0,0,1,2.43,2.43V83a2.43,2.43,0,0,1-2.43,2.43H19.4A2.43,2.43,0,0,1,17,83V44.86A2.44,2.44,0,0,1,19.4,42.42Z" fill="#fd8204" stroke="#692f17" stroke-linecap="round" stroke-miterlimit="10"/><polyline points="35.38 84.93 35.38 42.93 41.49 42.93 41.49 84.93" fill="#fff" stroke="#692f17" stroke-linecap="round" stroke-miterlimit="10" stroke-width="0.8"/><polyline points="17.52 60.89 35.44 60.89 35.44 67 17.52 67" fill="#fff" stroke="#692f17" stroke-linecap="round" stroke-miterlimit="10" stroke-width="0.8"/><polyline points="59.39 67 41.49 67 41.49 60.89 59.39 60.89" fill="#fff" stroke="#692f17" stroke-linecap="round" stroke-miterlimit="10" stroke-width="0.8"/><path d="M21,35.55a8.82,8.82,0,0,0,0,6.62L39,42.39,26.07,30.23A9.56,9.56,0,0,0,21,35.55Z" fill="#f5f4f0" stroke="#692f17" stroke-miterlimit="10"/><path d="M55.83,35a9.55,9.55,0,0,0-4.76-5l-13,12.31H55.82A9.57,9.57,0,0,0,55.83,35Z" fill="#f5f4f0" stroke="#692f17" stroke-miterlimit="10"/><line x1="26.55" y1="37.75" x2="38.19" y2="42.51" fill="none" stroke="#692f17" stroke-linecap="round" stroke-miterlimit="10" stroke-width="0.8"/><line x1="38.19" y1="42.51" x2="51.15" y2="37.75" fill="none" stroke="#692f17" stroke-linecap="round" stroke-miterlimit="10" stroke-width="0.8"/><path d="M62,24.7c0,3.9-1.16,5.06-4,5.06s-4-1.16-4-5.06,1.16-4.88,4-4.88S62,20.82,62,24.7Zm-2.41,0c0-2.56-.35-3-1.58-3s-1.6.42-1.6,3,.39,3.09,1.6,3.09S59.56,27.26,59.56,24.72Zm10.09-4.53L60.26,35.45H57.72l9.37-15.26ZM73.46,30.7c0,3.92-1.16,5.06-4,5.06s-4-1.14-4-5.06,1.16-4.86,4-4.86S73.46,26.85,73.46,30.7Zm-2.41,0c0-2.56-.35-3-1.58-3s-1.6.39-1.6,3,.39,3.11,1.6,3.11S71.06,33.28,71.06,30.72Z" fill="#692f17"/></g></g></svg>