<svg xmlns="http://www.w3.org/2000/svg" width="300" height="250" viewBox="0 0 300 250"><g data-name="Слой 2"><g data-name="подарочный сертификат"><path fill="none" d="M0 0h300v250H0z"/><path d="M104.54 7.36s6.77-2.77 8-3.51 7-2.28 10.93-2.28S132 .51 134.14.75a6.67 6.67 0 0 1 3.51 1.55s2.45.08 4.48 0 5.14 1.3 6 1.55L158 6.79c1.63.49 3.91 2.94 6 4s13 11.42 14 14.6 5.71 9.54 6.2 11.74 2.8 14.87-.89 20.46-10 13.78-13.7 15.49-7.75 5.14-8.72 5.71-7.26 2.85-10.27 2.85H146a16.16 16.16 0 0 0-3.1.57c-.41.16-.57-4-.57-4s-10 2.94-16.63 2.45a83 83 0 0 1-12.23-1.88s2.49 3.55 1.83 4.12-4.85.65-6.65.41a82.17 82.17 0 0 1-8.08-2.43l-4.07-1.57a49.65 49.65 0 0 0-4.57-3C91.42 76.26 82 65 80.41 62.15s-2.86-9.45-2.94-14.75A50 50 0 0 1 80.86 30c2.2-6 8-12.8 10.64-14.35s9.38-5.38 9.38-5.38z" fill="#dd9a51"/><path d="M120.16 23.61a11.49 11.49 0 0 0-2.42 3.27c-.52 1.35-.83 6.24-1.31 7s-1.87.89-2.78.8a8 8 0 0 1-2.54-1.25c-.12-.06-6 1.77-6.73 1.83s-8.1 1.8-8.59 1.93-3.67.8-3.82.86a6.29 6.29 0 0 0-3.15 3.88 7 7 0 0 0 .31 4.86 5 5 0 0 0-1.87 2.35 9 9 0 0 0 1.31 5.69c1 1.19 4.56 3.09 4.22 2.94s1.38 3.76 4.46 8.16 7.28 9 16.08 12.66 21 1.9 21.31 1.87a34.37 34.37 0 0 0 13.21-4.65s6.88-5 8.84-7 5.93-6.85 6.76-8.81a11.25 11.25 0 0 0 .86-2.39s2.48.24 4.28-3 .83-7-.64-7.8-4.28-.21-5.11-.06-2.84-1.75-3.39-3.97-6-7.71-6-7.71a33.5 33.5 0 0 1-6.45-.12c-2.45-.43-7.22-1-9-1.5s-7.74.28-8.9.55-5.2 2.2-5.5 1.93-.15-1.71-.15-2.32-3.29-10-3.29-10z" fill="#f9ddc9"/><path d="M114.86 48.5a3.57 3.57 0 0 0-1.22-2.5 4.68 4.68 0 0 0-3.4-1.35c-.9 0-4.67-.33-5.28 0a14.75 14.75 0 0 0-2.59 2.45c-.71.8-.06 1.35.35 1.57s1.86 1.38 2.92 1.4a32.19 32.19 0 0 0 4.69-.15c.94-.2 2.71-.94 3.38-1s1.05-.16 1.15-.42z" fill="#fff"/><path d="M111.3 44.68a2.27 2.27 0 0 1 .73 2.26 3.76 3.76 0 0 1-2.81 2.51 4 4 0 0 1-3.15-1.07 3 3 0 0 1-.63-2.48c.27-.75 1.67-2.65 5.86-1.22z" fill="#a9d0ee"/><path d="M133.22 48.36a3.57 3.57 0 0 1 1.22-2.47 4.68 4.68 0 0 1 3.4-1.35 26.81 26.81 0 0 1 5.18.65 9.82 9.82 0 0 1 2.7 1.81c.71.8.06 1.35-.35 1.57a9.56 9.56 0 0 1-3.18.94c-1.06 0-3.49.51-4.42.31s-2.71-.94-3.38-1-1.07-.2-1.17-.46z" fill="#fff"/><path d="M137.5 45.18a2.62 2.62 0 0 0-.73 2.26 3.76 3.76 0 0 0 2.81 2.51c1.35.27 3.28-.16 3.47-.71s.88-2.43.61-3.18-4.36-3.88-6.16-.88z" fill="#a9d0ee"/><path d="M78.92 35.06a30.67 30.67 0 0 0 4.28-4.59c1.28-2 4.34-7.52 7.34-10.27s3.85-3.79 5-4.53l-2.87 6.24s2.14-2.81 4-3.55a11.19 11.19 0 0 1 2.69-.8s-1.87 4-2.29 5.32A50.1 50.1 0 0 0 96 31c.06 1 .31 2.63.31 2.63s.73-7.16 3.36-11.07 4.1-7.22 10-10.4 7.09-3.36 8.07-3.18 0 2 0 2a62.45 62.45 0 0 0-2.69 6.24 20.62 20.62 0 0 1 3.62-4.22 36.85 36.85 0 0 1 4.46-3.36s-2.63 7.77-2.63 10.15 1.1 9.3 1.1 9.3l1.16 3.06a25.84 25.84 0 0 1 1.71-11.07c2.26-5.5 3.3-10.64 7.52-11.93a6.09 6.09 0 0 1 7.46 2.81 26 26 0 0 1 1.65 5s.18-4.28.06-5.26 1.35-1.16 2.14-.92a13.72 13.72 0 0 1 7.28 5.75c2.51 4.1 3.42 10.7 3.42 10.7s1.35-8.26.43-9.85-3.12-5.2-4.83-6.6c0 0-.37-1.59 2.26-1.1a18.05 18.05 0 0 1 6.93 2.32s-3.12-2.69-4.65-3.91-8.56-5.2-8.93-5.44a29.58 29.58 0 0 0-4.34-.65l-2.81-.12-2.27-1.19-8.26.92-3.06-.55L114 2.89l-8 3.61-7.34 5.14-3.42 1.28-8.07 7s-4.79 5.43-6.24 8.62c-.41.91-2.2 6.6-2.2 6.6zM83.14 38.12s-2.81 8.38-2.32 14.74S84.42 67 85 67.54s-2.69-2.2-2.87-2.32a67.33 67.33 0 0 1-3.79-9.72c-.55-2.51-.86-8.62.37-11.19s3.82-5.88 4.43-6.19z" fill="#e8b67e"/><path d="M98.57 90.1a77.8 77.8 0 0 1 7.91-4.48 58.74 58.74 0 0 1 6.93-2.2l1.71-.24-.24-4.08s8.89 1.63 11.17 1.63a113.84 113.84 0 0 0 12.48-1.47 9.22 9.22 0 0 0 3.18-1.47l.57 4.73a57.08 57.08 0 0 1 8.72 1.3s7.5 2.2 11.33 6 10 5 13.76 7.34c2.58 1.58 5.52 1 7.16 2.94.85 1 6.36 2.94 10.46 5 3.11 1.58 6.6 1.85 6.67 2.32a5.57 5.57 0 0 0 .43 3.06c.69 1.62 4.59-.18 1.71 5.93-1.81 3.86-2.92 18.61-7 20.49-3.19 1.48-11.83-.67-17.55-4.16-2.29-1.4-1.52-4-3.73-5.14-4.7-2.49-10.14-2.45-10.09-2.26.33 1.22-.63 16.08.18 18s.8 14.62.8 14.62v4.46c0-.33 1 1.71.73 3.83s0 3.83-1.47 4-12.39 2.85-14.51 3.34a106.32 106.32 0 0 1-11.58 1c-.33-.08-11.33-.16-11.74-.33s-27.6 1.59-26.95-2.65.65-7.83 0-15.9c-.41-5 .16-11.2-1.41-12-.94-.51-2.81 3.94-5.69 3.42-8.19-1.47-13.15-4.4-14.19-13.09-.4-3.31-2-6.44-2.14-10.09a32.11 32.11 0 0 1 5.63-18.65c4.19-5.94 10.38-8.25 16.76-15.2z" fill="#fff"/><ellipse cx="116.9" cy="142.42" rx="5.2" ry="5.78" transform="rotate(-3.46 116.823 142.381)" fill="#fb8005"/><ellipse cx="102.08" cy="152.61" rx="3.72" ry="6.2" transform="rotate(-3.46 101.935 152.536)" fill="#fb8005"/><ellipse cx="131.27" cy="157.22" rx="5.78" ry="5.2" transform="rotate(-73.4 131.256 157.22)" fill="#fb8005"/><ellipse cx="115.32" cy="96.84" rx="5.2" ry="5.78" transform="rotate(-19.51 115.28 96.832)" fill="#fb8005"/><path d="M164.66 142.94a4.35 4.35 0 0 1-3.43 2.21c-2.54.15-4.75-2.19-4.94-5.23s1.73-5.63 4.27-5.78a4.08 4.08 0 0 1 2.63.78c1.29.92 2.07 7.02 1.47 8.02z" fill="#fb8005"/><ellipse cx="123.92" cy="107.57" rx="1.79" ry="1.74" fill="#f2e6d9"/><path d="M113.72 215.65c-.42.31 2.81 13.94 2.81 13.94s6.24 2.69 10.89 2.32 5.63-2.69 5.63-2.69a14 14 0 0 0 2 2c.73.49 12.48-1 12.48-1s4-1.22 4-1.59 2.57-6.6 2.57-6.6.61-6.24.24-6.85-4.65 1.47-7.34 1.47-6.85.12-8.93-1.1-3.55-2.2-3.55-2.2-3.79 2.69-7.34 3.06-7.46.24-10.27-.86-2.7-.26-3.19.1z" fill="#d0a074"/><path d="M102.1 227.76s5-.49 7.46.49a104.16 104.16 0 0 0 11.74 3.3c1.59.24 6.12.86 9.54-.73s3.67.86 3.67.86l8.19-1c2.08-.24 8.07-1.35 10.4-.61s5.14 4 6 4.89 4.4 5.5 3.67 8-4.16 5.63-8.19 5.87-13.94 1.47-17.12.86-3.79-2.45-4.77-5.5l-1-3.06a26.88 26.88 0 0 1-6 1c-2.57 0-13.7 3.18-17.49 3.18s-9.54-.49-11-1.1c0 0-3.06-2.81-3.42-5.14s-.67-5.37.8-7.33 3.85-3.12 7.52-3.98z" fill="#edae02"/><path d="M124.24 174.43s11 .37 13 .24 9.91-.12 15.29-1.35 8.56-2.57 9.17-.24 1.1 10.89 0 13.7a19.08 19.08 0 0 0-1.19 6.89c0 1.35.64 14.35-1.19 16.8s-1.65 3.35-6.42 4.33-6.12 2.32-9.42 1.83-5.5-.37-6.85-1.83a15.11 15.11 0 0 0-2.45-2.2s-1.1 2.32-4.77 3.18-6.12 1.71-10.64.12a21.14 21.14 0 0 1-6.36-3.18s-3.42-5-4.16-9.54-.37-13.82-.37-13.82l-2.2-6.48s-2.63-6.93-.18-9.13 18.74.68 18.74.68z" fill="#fb8005"/><path d="M158.61 173s.31 6.36.37 8.07a33.49 33.49 0 0 1-.12 7 43.8 43.8 0 0 0-.67 7.71c.06 1.59.43 8.93-.12 10.52a26.7 26.7 0 0 1-1.35 3.12 9 9 0 0 1 .18 3.18c-.31 1 1-.12 1.59-1.28s1.59-1.71 1.9-4.4a99.61 99.61 0 0 0 .43-12.29c-.24-1.35.61-7.4.8-8.26s.49-10.15.37-12.23-2.41-3.37-3.38-1.14zM149.55 174.37s.55 4.1 1 5.93 1.83 7.09 1.53 10a71.59 71.59 0 0 0-.67 8.56c0 3.42.37 8.44.31 10.34s.12 3.73-.43 5.08 3.55-2.69 3.55-2.69.31-10.82.49-13.52 1.1-6.54 1.1-9.36-1.35-8.13-1.59-10.58a18.61 18.61 0 0 1 .37-5.14zM140.32 175.47s1.71 7.77 2.57 11.74.61 11 1.22 14.55.55 6.18.86 8.68.92 5.93.92 5.93 3.06-.12 3.55-.8-.73-12.17-1.1-14.13.06-7.34-.24-9.36-1.77-10.89-2.14-12.17a16.74 16.74 0 0 1-.24-5.08c.17-.4-5.4.64-5.4.64zM131.88 175s1.1 6.6 1.35 7.77 2 8.75 2.57 10.89 1 11 1.16 13.33.73 7.22 2.75 8.75a4 4 0 0 0 3.73.86 25.89 25.89 0 0 1-2-7.83c-.67-5.32-.55-10.7-1-13s-1.65-12.23-2.81-14.92a16.92 16.92 0 0 1-1.1-6.05zM125.52 175.54s1 5.32 1.35 7 2 8.93 2.39 10.95 1 7.71 1.59 11 1.28 6.42 1.16 8.13a11 11 0 0 1-.31 2.26l-3.36 1.41s0-.92-.18-3.24-1.59-9.48-2-12-1.65-12.29-2.08-14.19-1.59-9.85-1.22-11.44 2.66.12 2.66.12zM118.67 174.78s2.87 16 3.3 17.2.73 5.93 1.28 9.23 1.59 9.36 2 11.13 1.16 3.61.8 4.16-3.3.06-3.3.06a15.7 15.7 0 0 1-2.81-6.79c-.49-3.79-1.28-11.19-1.65-13.76s-4-22-4-22a29.25 29.25 0 0 1 4.38.77zM108.83 173.13s3.49 13.23 4.1 14.45a15.23 15.23 0 0 1 1.47 4.46c.37 2-.24 5.69.49 9.05s1.9 10.21 3.3 12.72 2.2 2.39 2.2 2.39a54.13 54.13 0 0 1-6.18-2.32c-1.71-.92-3.36-11.93-3.61-14.74s-.06-8.19-.49-9S105.58 175.7 106 174s2.83-.87 2.83-.87z" fill="#df6702"/><ellipse cx="146.37" cy="101.08" rx="5.2" ry="5.78" transform="rotate(-19.51 146.322 101.06)" fill="#fb8005"/><ellipse cx="167.98" cy="111.03" rx="5.78" ry="5.2" transform="rotate(-69.82 167.977 111.025)" fill="#fb8005"/><ellipse cx="187.54" cy="119.7" rx="6.1" ry="4.72" transform="rotate(-69.82 187.536 119.7)" fill="#fb8005"/><ellipse cx="109.13" cy="114.29" rx="5.78" ry="5.2" transform="rotate(-66.73 109.14 114.29)" fill="#fb8005"/><ellipse cx="97.12" cy="110.32" rx="5.01" ry="4.5" transform="rotate(-66.73 97.133 110.324)" fill="#fb8005"/><ellipse cx="83.6" cy="135.59" rx="5.56" ry="4.88" transform="rotate(-66.73 83.604 135.596)" fill="#fb8005"/><path d="M84.55 101.7c-.06.2-.73.57-.82.77-.39.83-4.88 8.86-5.11 9.15l.41.2a5.51 5.51 0 0 0 7.06-3.26c1.21-2.82.91-5.63-1.54-6.86zM104.56 86.31a5.43 5.43 0 0 1-.48.41 8.32 8.32 0 0 1-2.61 1.13h-.06l-.67.33a12.7 12.7 0 0 0-1.11.61l-.24.14-.16.14-.24.22c-.34.32-.67.67-1 1-.62.68-1.22 1.39-1.88 2a3.42 3.42 0 0 1-1 .67c.08.13.17.25.27.37a5.83 5.83 0 0 0 9.11-7.1zM162 90.21a5.51 5.51 0 0 1-7.51 2c-2.41-1.56-3-4.55-1.26-7.23 3.92 2.02 6.54 2.25 8.77 5.23z" fill="#fb8005"/><ellipse cx="152" cy="122.36" rx="5.78" ry="5.2" transform="rotate(-69.68 152 122.36)" fill="#fb8005"/><path d="M175.29 121.18a5.51 5.51 0 0 0-6.88 3.61c-.06.16-.11.33-.16.49a3 3 0 0 1 1.6.88 3 3 0 0 1 .77.53h.06a3 3 0 0 1 1.85.64 2.86 2.86 0 0 1 .59-.07 3.09 3.09 0 0 1 3 2.4 3.21 3.21 0 0 1 .7.9 6.28 6.28 0 0 0 1.35-2.17 5.51 5.51 0 0 0-2.88-7.21zM180.17 104a4.1 4.1 0 0 0 5-2.93c0-.12.07-.25.1-.37a2.22 2.22 0 0 1-1.22-.6 2.25 2.25 0 0 1-.59-.36 2.21 2.21 0 0 1-1.4-.41 2.13 2.13 0 0 1-.44.07 2.3 2.3 0 0 1-2.3-1.67 2.38 2.38 0 0 1-.55-.65 4.67 4.67 0 0 0-.92 1.66 4.1 4.1 0 0 0 2.32 5.26z" fill="#fb8005"/><ellipse cx="131.27" cy="120.83" rx="5.2" ry="5.78" transform="rotate(-12.86 131.281 120.83)" fill="#fb8005"/><ellipse cx="139.53" cy="139.61" rx="5.2" ry="5.78" transform="rotate(-12.86 139.545 139.598)" fill="#fb8005"/><ellipse cx="152.25" cy="153.31" rx="5.2" ry="5.78" transform="rotate(-3.46 152.12 153.223)" fill="#fb8005"/><circle cx="119.62" cy="83.16" r=".76" fill="#693023"/><circle cx="128.61" cy="89.15" r=".7" fill="#693023"/><circle cx="124.21" cy="92.7" r=".7" transform="rotate(-81.96 124.214 92.702)" fill="#693023"/><circle cx="129.28" cy="97.23" r=".7" transform="rotate(-81.96 129.294 97.226)" fill="#693023"/><circle cx="134.3" cy="91.66" r=".7" transform="rotate(-81.96 134.307 91.663)" fill="#693023"/><circle cx="134.42" cy="100.59" r=".7" transform="rotate(-81.96 134.432 100.588)" fill="#693023"/><circle cx="134.05" cy="108.85" r=".7" transform="rotate(-81.96 134.066 108.845)" fill="#693023"/><circle cx="129.65" cy="105.18" r=".7" transform="rotate(-81.96 129.658 105.177)" fill="#693023"/><circle cx="132.65" cy="171.1" r=".83" fill="#693023"/><circle cx="138.88" cy="165.35" r=".83" fill="#693023"/><circle cx="146.22" cy="170.37" r=".83" fill="#693023"/><circle cx="158.94" cy="168.29" r=".83" fill="#693023"/><circle cx="163.34" cy="161.99" r=".83" fill="#693023"/><path d="M98.12 135.21c0-.19.67-5.44 2-7.4a7 7 0 0 1 3.73-2.81c.37 0 .8.86 1.9.67s2.14.67 4.28-.73 3.42-1.22 4.77-4 .86-7.4 2.51-7.64 2.69 1.28 2.75 2.69.37 7 .37 7 2.51.61 2.81 2a7.54 7.54 0 0 0 1.59 2.75c.37 1.59 1.1 5.63.06 8a7.11 7.11 0 0 1-5.69 4.59 50.07 50.07 0 0 1-12 .37c-2.51-.43-7.4-1.83-7.71-1.77s-1.49-2.37-1.37-3.72zM203.74 112.77a52 52 0 0 0-2.51 8.38c-.37 2.32-.12 4.59.73 5.14a19.56 19.56 0 0 0 4.34 1.28 3.86 3.86 0 0 1 2.26 1.9c.49 1.1 3.42 2.51 5.5 2.51a8.64 8.64 0 0 0 4.71-1 6.61 6.61 0 0 0 3.24-2.75 11.62 11.62 0 0 0 1.71-5c.24-2-.91-4.16-1.26-5.48a9.78 9.78 0 0 0-1.73-3.45c-.49-.67-1.53-.06-1.65-1.16s-.12-5.75-.49-7.52-2-2.69-2.51-2.57-1.47 3.61-1.77 5.44.37 5.87-.31 6.48-1.47 1.77-2.32.86-1.71-1.9-2-1.77-5.94-1.29-5.94-1.29z" fill="#f9ddc9"/><path d="M114.29 49.29c.32 0 1.13.21 1.36 0s.61-.49.17-1.31a10 10 0 0 0-2.9-3.18 7.08 7.08 0 0 0-4.92-1.41c-1.31 0-3.68.21-4.72.89a7 7 0 0 0-2.19 2.83 1.19 1.19 0 0 0 .25 1.05 4.26 4.26 0 0 0 .89.83 16.67 16.67 0 0 0 3.36 1.31 15.47 15.47 0 0 0 5.58-.06c1.21-.24 2.83-.95 3.12-.95zm-2.35-.52a2.27 2.27 0 0 0 .6-1.48 3.55 3.55 0 0 0-.46-2.23 6.52 6.52 0 0 1 2.26 2.39c.35.75.37 1.16.17 1.25s-.86-.34-1.31-.26a4.25 4.25 0 0 0-1.12.45c-.08.01-.18-.01-.14-.12zm-6 .76a3.8 3.8 0 0 1-1.22-.2 9.56 9.56 0 0 1-1.87-1.27.84.84 0 0 1-.23-.58.11.11 0 0 0 0-.05c0-.29.46-.95 1-1.57a3.61 3.61 0 0 1 1.3-.92c.46-.2.65-.14.59.05a3.31 3.31 0 0 0-.52 1.91 3.09 3.09 0 0 0 1.25 2.35s.08.25-.24.28zm4.45-.75a3.65 3.65 0 0 1-2.84.14 2.34 2.34 0 0 1-1.38-1.56 2.6 2.6 0 0 1 .2-2 .86.86 0 0 1 .39-.31.5.5 0 0 1 .27 0c.38.17.27.34.24.41s.06 1.65.06 1.65a1.71 1.71 0 0 0 1.39.92 1.43 1.43 0 0 0 1.48-1 1.62 1.62 0 0 0-.14-1.05.55.55 0 0 1 .7-.7c.66.21.78 1.13.75 1.64a2 2 0 0 1-1.07 1.86zM146.69 48.39c.35-.43-.08-.8-.44-1.22a29.13 29.13 0 0 0-2.41-2.17 7.41 7.41 0 0 0-2.73-1.1 9.49 9.49 0 0 0-5.91.14c-1.45.65-2.71 3.22-2.81 3.88a2.08 2.08 0 0 0 0 1.07c.15.68.86.49.89.5a7.45 7.45 0 0 1 2 .19c.63.16 3.19.66 3.82.83a9.82 9.82 0 0 0 4.07-.2 6.77 6.77 0 0 0 3.52-1.92zm-9.41 1c-.59-.15-2.3-.88-2.89-1a1.25 1.25 0 0 0-.67.07c-.35 0-.19-.5-.19-.5l.26-.56a6 6 0 0 1 1.65-1.77 5.7 5.7 0 0 1 1.54-.82c-.06.11-.31.34-.4.54a3.48 3.48 0 0 0-.33 1.7 3.09 3.09 0 0 0 1.14 2.32zm5.32-2.25a2.37 2.37 0 0 1-1.55 2.1 2.7 2.7 0 0 1-3.32-1.06 2.29 2.29 0 0 1-.09-2.44s.16-.27.38-.28a1 1 0 0 1 .69.21c.17.16 0 .48-.12.88a1.28 1.28 0 0 0 1.09 1.62 1.39 1.39 0 0 0 1.77-1.17c0-.38.08-1 .56-1s.7.32.6 1.11zm2.88.95a15.41 15.41 0 0 1-2.36 1.24.24.24 0 0 1-.12 0c-.21-.1.37-.49.62-1.63a3.42 3.42 0 0 0-.07-1.91c.5.35 1.43 1.05 1.89 1.43s.21.65.05.84zM121.06 58.66a7.2 7.2 0 0 0 4.59 1.16 3.24 3.24 0 0 0 2.77-1.35c.55-.65 0-.53 0-.53s-.53.39-3.49.45-4.16-.71-4.16-.71c-.9-.53-.45.32.29.98zM141.14 63c-.63-.08-5.77 2.41-6.05 2.49s-3.63 1.75-10.62 1.45-11-1.79-11.74-2.12A6.68 6.68 0 0 0 110 64a4.22 4.22 0 0 0-1.9 1.12.41.41 0 0 0 0 .59c1.45.92 1.3-.69 2.16-.63a27.52 27.52 0 0 1 5.3 2 29.25 29.25 0 0 0 9 1.9c3.45 0 6.36-.09 9.19-1.3 3-1.28 6.1-3.38 6.38-3.45a1.54 1.54 0 0 1 1.12.31c.43.29.69.33.92-.29s-.4-1.13-1.03-1.25zM125.26 71.23c-4.3-.16-6.32-.61-6.65-.49s0 .33 0 .33 1 1.65 6.79 1.67 7.3-2.1 7.13-2.2a32.43 32.43 0 0 1-7.27.69zM138.5 38.36a19.9 19.9 0 0 1 3.73.66 28.73 28.73 0 0 1 4.16 1.83c.32.18.92.35.46-.11a10.35 10.35 0 0 0-2.85-2.46 8.4 8.4 0 0 0-5.81-.95s-.64.09-.7.49.45.43 1.01.54zM107.45 38.88c.58-.14.86-.09 1-.18s.15-.26-.43-.46a5.51 5.51 0 0 0-3.09-.31 9 9 0 0 0-4.33 2.54s-.57.52-.49.63.32 0 .72-.26 3-.86 3.56-1.05 2.48-.79 3.06-.91z" fill="#693023"/><circle cx="123.53" cy="82.11" r=".76" fill="#693023"/><circle cx="127.52" cy="84.6" r=".76" fill="#693023"/><circle cx="131.92" cy="82.34" r=".76" fill="#693023"/><circle cx="136.23" cy="83.56" r=".76" fill="#693023"/><circle cx="140.1" cy="80.75" r=".76" fill="#693023"/><circle cx="128.13" cy="89.22" r=".76" fill="#693023"/><circle cx="123.71" cy="92.72" r=".76" fill="#693023"/><circle cx="128.97" cy="97.28" r=".76" fill="#693023"/><circle cx="123.68" cy="101.31" r=".76" fill="#693023"/><circle cx="128.97" cy="105.5" r=".76" fill="#693023"/><circle cx="133.95" cy="100.73" r=".76" fill="#693023"/><circle cx="133.65" cy="108.99" r=".76" fill="#693023"/><circle cx="133.85" cy="91.66" r=".76" fill="#693023"/><path d="M223.49 119.87c-.31-.57-.55-2.53-.88-3a11.43 11.43 0 0 0-1.75-2.79 8.08 8.08 0 0 1-1.9-3.89c-.1-.88.2-5.12 0-6a2.44 2.44 0 0 0-1.59-1.79 3.29 3.29 0 0 0-1.8.23s-.76.2-1.16 2.71c0 .1-.74 8.05-.82 8.88a41.89 41.89 0 0 1-6.54-.77 16 16 0 0 0-2.77-.69s.63-.31.47-.82-1.79-.61-2.2-.88h-.08a1.79 1.79 0 0 1-.87-.9s-.29-1.37-.35-1.83a1.43 1.43 0 0 0-.82-1.22 12.54 12.54 0 0 0-3.71-1.55c-1.55-.37-2.45-.29-2.63-.41a4.41 4.41 0 0 0-1.41-1.06 28.25 28.25 0 0 1-2.63-1.33 9.4 9.4 0 0 0-2.87-1.28 3.65 3.65 0 0 0-1.06-.14s-2.81-1.86-3.89-2.49-1.16-.51-2.47-1.16c-1-.51-5.4-2.14-6.52-2.61s-6.38-2.63-8.54-3.81c-1.95-1.07-7-4.42-8.07-4.93s-6.48-3-7.17-3.11c-.29-.3-.73-.9.49-1a34.66 34.66 0 0 0 9.51-2.51c.25-.12.46-.23.63-.34a50.67 50.67 0 0 0 7.29-4c3.15-2.23 5.14-3.58 6.67-4.49a20.05 20.05 0 0 0 4.71-4.59s2.24-1.86 4.89-7.3 2.26-11.34 2.45-13.18a34.47 34.47 0 0 0-.83-8.71c-.58-2-4.89-9.23-4.89-9.23a55.15 55.15 0 0 0-5.44-7.49c-2.48-2.6-10.43-10.24-13.06-12.2a16.73 16.73 0 0 0-6-2.66l-2.3-.76a44.31 44.31 0 0 1-6.69-2c-1.88-.94-6-2-8.11-1.22-2.08-1.8-5.18-1.55-6-1.55s-2.77.49-3.47.53-4.28.37-7 .29a31.15 31.15 0 0 0-8.72 1.51c-3.18.86-8.52 3.91-8.52 3.91s-7 4.28-10.89 6.81a43 43 0 0 0-9.5 8.95c-1.26 1.88-4.24 6.85-4.24 6.85a33.19 33.19 0 0 0-2.77 7.54 71.35 71.35 0 0 0-.86 11.95 45.89 45.89 0 0 0 1.7 9.17 69.74 69.74 0 0 0 2.6 7.1 20 20 0 0 0 3.2 4.31c1.59 1.39 4.24 4.89 5.3 5.71s4.81 3.79 5.67 4.32 3.1 1.1 3.55 1.39a25.85 25.85 0 0 0 4 2c1.1.33 4.48 1 4.48 1a22 22 0 0 0 2.33.63l-2.56.95a21.73 21.73 0 0 0-7 3.24l-.82.64c-.42.36-4.35 4-5.05 4.75s-4.07 3.61-4.89 4.25-3.52 2-4.56 3-3.55 3.49-4.43 5.29-2.08 3.3-2.32 4.16a32.11 32.11 0 0 0-1.07 4.34c0 .86-.89 4.37-1.16 5.9a28.13 28.13 0 0 0-.34 5.35 9.51 9.51 0 0 0 1 4.43 19.31 19.31 0 0 1 1.56 3.86c.31.92.8 4.49 1.07 5.78s.86 2.39 2.81 3.88a6.41 6.41 0 0 0 3.76 1.44 5.75 5.75 0 0 0 2.75 2.32 8.92 8.92 0 0 0 3.88.12c.64-.12 2.51-.24 2.51-.24a4.39 4.39 0 0 0 1.89-.62 3.5 3.5 0 0 0 1.28-2.17c.14-.89.29 5.17.33 6.63a.4.4 0 0 0 0 .22s.39 6.77.47 7.71.29 3.34.24 4.53.37 5.59.41 6.48a5.27 5.27 0 0 0 .37 2.32c.37.69 1.22.65 2 1.06s1.51 3.55 2 6.56a28 28 0 0 0 2.34 6.41c.06.31-.24 8.19.37 10.7s.8 5.75 1 6.85 1.65 7.71 4.59 9.72l.33.22a29.87 29.87 0 0 0 1.26 7.12c1.22 3.79 2.2 7.22 1.71 8s-5.5-2.14-10-2.2-8.56.73-10.7 3.73-3 7.22-1.35 10.46 5.26 5.08 14.19 4.65c0 0 3.3-.43 5-.8s5.08-1.41 7.64-1.83 7.34-.73 8.75-1l1.41-.31a9.08 9.08 0 0 0 2.39 6.05c2.57 2.87 8.5 2.08 9.48 2s7 .06 9.66-.18 6.3-1.1 8-2.45 3.24-3 3-6-.18-4.28-2.94-6.67c0 0-1.83-1.28-2.57-1.71s-1.65-1.83-2.39-2.26a9.94 9.94 0 0 0-2.75-1.1c-.61-.06-.18-1 .12-1.53a14.68 14.68 0 0 0 1.65-4.46c.49-2.08.31-5.2.67-6.42a4.73 4.73 0 0 1 .91-2.2 8.05 8.05 0 0 0 4.77-5.75c1-4.28.73-15.29.73-16.45s1.1-6.91 1.28-8.19 0-9.32 0-9.32l.12-2.81a7.26 7.26 0 0 0 .83-.06c.37 0 1.33-.1 1.84-.19s1-.24 1.26-1a18.9 18.9 0 0 0 .16-4.69c-.12-1.3-.53-15.17-.53-16.51a51.22 51.22 0 0 0-.49-6.73c-.33-1.75-1.06-10.6-1-13.13s.41-4.53 1.06-4.65 5 1.75 5.91 2.16a17.93 17.93 0 0 0 3.55 1 8.68 8.68 0 0 0 .45 2.24c.94 2.61 3.83 3.91 4.61 4.24a36.61 36.61 0 0 0 4 .61 45.9 45.9 0 0 1 4.57 1.59 13.71 13.71 0 0 0 5.46.82 15.64 15.64 0 0 0 3.51-1.47 2.67 2.67 0 0 0 .55-1.32v-1.82h.37c.06-.32.1-.6.14-.78.16-.82.61-3.42 1.1-3.75s.9.16 1.3-.2-.29-1.22.12-1.35 2.94.65 4.36.82 1.59-.16 1.83.2.1.67.51 1.35a4.65 4.65 0 0 0 1.24 1.22l1.37.68s.49.17 1 .39a8.92 8.92 0 0 0 1.78.4 11.85 11.85 0 0 0 3 0 8.31 8.31 0 0 0 4-1.57 7.68 7.68 0 0 0 2.81-3.49 11.65 11.65 0 0 0 .94-4.48 6 6 0 0 0-.56-3.08zm-8.11-15.12a2 2 0 0 1 .44-.91c.43-.39 1-.53 1.75.33s.08 2.59 0 3.93a14.45 14.45 0 0 0 .59 4.46c.31.86 1.12 1.63 1 1.75s-.31 0-.75 0a3.4 3.4 0 0 0-1.1.37 2.51 2.51 0 0 0-.23.2 2.68 2.68 0 0 1-1.13.76c-.63.14-1.1.33-1.39-.2l-.14-.23zm-72-23.27a27.48 27.48 0 0 0-.41-3.18s2.48-1.1 2.62-1.17a35.75 35.75 0 0 0 5.31-3.27 76 76 0 0 0 8.07-6.79c.22-.26.53-.65.89-1.11-.22.76-.59 1.94-.95 2.82a22.43 22.43 0 0 1-2.78 5.69c-1.79 2.53-8.03 5.83-12.79 7.01zm-23.65-.88c.92.6 2.64 4.2 3 5h-.16a33.27 33.27 0 0 1-3.29-.9 5.3 5.3 0 0 1-2.51-1.7l-.11-.13zm-3.56 1.22a4.17 4.17 0 0 1-.09-1.95c.53.11 1.24.23 2.05.35zm17.63 14.94c-.73.79-4.47 3.66-4.8 3.92a27.28 27.28 0 0 1-5.1-3.4l4.39-3.62.29.13a29.83 29.83 0 0 0 6 1.94 6 6 0 0 1-.78 1.03zm1.35 0l.12 3.39-.07 2.72a28.27 28.27 0 0 1-4.85-1.34zm-6.78-5c-2.46-1.41-4.52-2.79-5.82-4.74 0 0-.1-.22 0-.33.42.06 2 .24 3.3.41a23.83 23.83 0 0 0 5.21.08c.71-.13 2.07-.23 3.22-.33-.67.48-2.68 1.95-3.11 2.38s-1.67 1.57-2.8 2.58zm2.54-8.54c-.18-.25-1.42-1.54-1.8-1.93 1.16 0 3.15-.11 5.17-.39-.11.25-.39.92-.54 1.24S132 84.81 132 84.81c-.18-.32-.87-1.26-1.09-1.55zm0 2.43c-1 .09-2.26.19-3.21.18-1.14 0-2.4 0-3.63-.09.62-.79 3.16-4.33 3.16-4.33.92.59 3.35 3.81 3.7 4.28zm-7.37-1.22c-.28-.6-1.94-3.2-2.34-3.82 1.6.2 3.27.38 4.67.51-.35.7-2.31 3.35-2.31 3.35zm-1.68 4.25c0-.34.06-.58.06-.58A15.44 15.44 0 0 0 127 93c-1.06.94-3.58 2.8-4.43 3.42a13.2 13.2 0 0 0 0-2.09c-.17-1.05-.72-5.27-.69-5.61zm.66 9.39c.92.73 4.19 3.19 4.75 3.52.05 0 .14 0-1 .66-.59.27-2.94 1.36-3.23 1.51-.23-1.64-.46-5.12-.5-5.68zm2.68 8.29c-.32-.29-1.82-1.43-1.67-1.53s2.39-1 3.53-1.52a15.59 15.59 0 0 0 1.82-.91 21.42 21.42 0 0 0 5.29 2 19.09 19.09 0 0 1-2.66 2.81 10.19 10.19 0 0 1-2.7 1.65c-.27 0-1.29-.37-3.59-2.46zm2.64 3.66c-.15 0-1.56-.5-1.65-.55h-.06a5.16 5.16 0 0 1-2-1.47 6 6 0 0 1-.65-1.77 35.69 35.69 0 0 0 4.57 3.48c.85.65-.05.39-.19.36zm1.44 0c.35-.12 2.15-1.3 2.66-1.63l3.24-3.22c.1.78.38 3.23-.19 4.13a4.41 4.41 0 0 1-2.42 1.36 9.33 9.33 0 0 1-3-.24c-.4-.02-.67-.17-.28-.31zm6-15.64a11.43 11.43 0 0 1-5.26-1.71l-.41-.23.65-.54 5.74-4.55a42.57 42.57 0 0 0-.67 7.12zm-2.51-8.93a4.49 4.49 0 0 0 .72-.82 31.34 31.34 0 0 0 1.94-3.55c.11-.35.31-.35.31-.35.55 0 3.53 2.74 3.53 2.74a13.2 13.2 0 0 1-1.83 1 26.39 26.39 0 0 1-4.62 1.07zm4.65-5.28l.26-.09c1.32-.45 2.52-.88 3.45-1.22l.28 2.06c.12.9 0 1.09-.18 1.27a12.09 12.09 0 0 1-1 .83l-.35-.57a7.54 7.54 0 0 0-2.41-2.19zm-2-1.13a41.57 41.57 0 0 1-16.08-.06c-5.89-1.39-8.71-2.54-13.21-5.76a38.49 38.49 0 0 1-9.42-9.56 35.32 35.32 0 0 1-3.31-5.62s-.37-1.55-.65-1.71a17.78 17.78 0 0 1-2.75-1.4 14.51 14.51 0 0 1-2.26-3.85 3.92 3.92 0 0 1 .08-2.27 3 3 0 0 1 2.49-1.61c-1.3-1.79-.82-6.2-.82-6.2a3.23 3.23 0 0 1 .94-2.12c.9-.77 3.22-1.43 5.06-1.79s12-2.45 13.25-2.65 2-.45 2.24-.45a13.57 13.57 0 0 0 6 .61s.33 0 .24-1.22 1.43-8.19 2.57-9.54a25.78 25.78 0 0 0 1.59 5.5c.53 1 1.26 6 1.47 6.48s.41.53 1.79 0a72.3 72.3 0 0 1 7.62-1.63c.82-.12 4.57-.86 7.46-.16a45 45 0 0 0 8.64 1.22 9.22 9.22 0 0 0 4-.53c.2 0 .49 1 1.22 1.71a12.52 12.52 0 0 0 2.2 1.55 13 13 0 0 1 1.76 1.71c.89 1 1.07 2.57 1.59 4.49a3.92 3.92 0 0 0 3.18 2.72c.92.18 1.19-.4 1.77-.61s1.13-.28 2.94.34a3.63 3.63 0 0 1 2.14 2.72s.76 4.19-2.6 6.3l-.06.11a7.64 7.64 0 0 1-2.78 1.53c-.7 3-2.51 5.32-5.6 8.87a43 43 0 0 1-7.4 6.48 44.89 44.89 0 0 1-5.2 2.85l-.21.13-.27.16c-2.96 1.58-7.47 2.73-9.62 3.35zM91 35.26l.06-.07a5.19 5.19 0 0 0 1 1.62 8.28 8.28 0 0 0-3.59 4c-.65 1.92-.45 4.53-.65 4.73s-.17 0-.28 0a8.67 8.67 0 0 1-.86-2c-.69-2-1.14-8.44.49-13a37.31 37.31 0 0 1 4.44-8.4c-.61 1.3-1.22 5.54-1.35 8.32a11.59 11.59 0 0 0 .74 4.8zm76.72 7.93a17.3 17.3 0 0 1-5.2-3.49s4-.06 5.87 1.8 2.69 3.46 2.69 5.75c0 1.43-.2 1.81-.35 1.9h-.12c-.34-2.48-2-4-3.56-4.11s-4.56.67-5.32 0c-1.64-1.51-1.31-2.69-2.32-4.53a19.86 19.86 0 0 0-2.34-2.85l1.82 1.15a8.52 8.52 0 0 1 1.68 1 15.66 15.66 0 0 0 3.43 2.55 7 7 0 0 0 3.71.83zm-2.94 30.21c-.61 2.08-3.36 3.73-5.26 4.68a3 3 0 0 0-.53.33 20.79 20.79 0 0 1-7.6 2 21.49 21.49 0 0 0 4-2.63c1.87-1.59 3.52-5 4.68-8.78a38.23 38.23 0 0 1 2-5.69l.92-1.69.39-.54a11 11 0 0 1 2.26-3.21 10.69 10.69 0 0 0 1.42-1.75 13.54 13.54 0 0 0-.32 1.72 12.19 12.19 0 0 1-.92 3.88 9.64 9.64 0 0 0-1.28 3.61c-.1 1.47.85 5.99.24 8.07zm2.81-.28l-1.25 1.41a16.13 16.13 0 0 0-.15-4.4 8.43 8.43 0 0 1 .61-7.86l.07-.1a41.68 41.68 0 0 0 1.7 5.39 6.06 6.06 0 0 1-.98 5.57zm2.41-6.44a8 8 0 0 0-1-2.48c-.58-.76-.95-3.12-.92-4.62a14.1 14.1 0 0 1 1.62-5.17 9.64 9.64 0 0 0 2-5.35V49c0 .88.11 7.87-.46 9.42 0 0 1.19-1.25 1.5-4.86a28.4 28.4 0 0 0-.15-7.22c-.21-1.1-1.19-3.24-1.28-5.29s.61-2.54.64-5.53a15.11 15.11 0 0 0-.37-3.13c.52.69 4.09 5.61 5.29 9.95 1.28 4.65.76 7.49 1 9.42a8.13 8.13 0 0 1-1.41 6.73c-2 3.09-5.53 5.34-6.58 8.18zm5-31.56a29.06 29.06 0 0 1 4.64 5.88 19.56 19.56 0 0 1 1.28 8.84 11.17 11.17 0 0 1-1.75 4.57 37.21 37.21 0 0 0-.21-4.3 34.83 34.83 0 0 0-1.31-8.38 32.66 32.66 0 0 0-2.72-6.61zM150.72 4.89c1.06.29 2.41.61 2.41.61s3.52.51 8.41 4.27a143.41 143.41 0 0 1 11.56 10.55c-.09.09 2.66 2.66 4.46 5.2s3.88 7.67 4.62 8.68a11.27 11.27 0 0 1 2.45 5.5 62.37 62.37 0 0 1 0 12.2 23.43 23.43 0 0 1-2.94 7.49 64.21 64.21 0 0 1-4.4 6.15 39.62 39.62 0 0 1-6.42 5.66 9.27 9.27 0 0 1 .86-3.12 1.92 1.92 0 0 0 .17-.62 15.64 15.64 0 0 1 1.85-3.54c1.1-1.41 4.53-5.14 5.11-6a1.24 1.24 0 0 0 .15-.4 13.46 13.46 0 0 0 2-3.42 18.2 18.2 0 0 0 1.1-8.26 17.62 17.62 0 0 0-4.11-9.68 44.23 44.23 0 0 0-4.4-4.07 17.53 17.53 0 0 1-3.09-3.72c-.18-.53-2.38-5.36-2.72-6.19a15.87 15.87 0 0 0-2.87-5.35c-1.93-2.23-5.08-6.18-7-7.46s-5.59-3.14-5.59-3.14l-2.85-1.47s.18-.16 1.24.13zM145 3.09c1.77.29 6.7 3.91 6.7 3.91a30.7 30.7 0 0 1 6.69 4.54 71.21 71.21 0 0 1 6.94 8.78c1.28 1.93 3.58 9.05 3.58 9.05a42.33 42.33 0 0 1 1.09 7.92c0 3.42.31 4.4-.76 3.82s-4.68-2.94-7.46-3.42h-.24a20.85 20.85 0 0 1-4.09-1 4 4 0 0 1-3-3.73c-.05-1.2.77-8.05.95-9.51s.41-4-.33-6.16-4-5.83-5.83-7.71a71.18 71.18 0 0 0-8.48-6.73s.07-.44 4.24.24zm-16.41-.49a4.24 4.24 0 0 1 2-.94 19.5 19.5 0 0 1 4.85-.12 3.42 3.42 0 0 1 2 .95.48.48 0 0 0 .22.27s1.3 1 2.32 4.69 1.43 9.54 1 10.64c0 0 .29.77.82-3.42s-1.39-9.87-1.39-9.87-.69-1.39.86-.57 6.56 5.18 7.5 6a36.26 36.26 0 0 1 4.65 7.34c.82 2 .61 6.16.61 6.16 0 1.74-.1 6-1.2 8.12-1.35 2.63-3.79 2-5.5 2.08a20.15 20.15 0 0 1-6.05-.67 9.76 9.76 0 0 0-2.63-.49l1.22-1.35c1.22-1.35.93-3.9.86-4.53-.14-1.15-.55-3.49-.55-3.49-.43.61 0 3.18-1.35 6.18s-3.91 3.06-6.42 3.24a46.71 46.71 0 0 0-6.6 1.28c-1.71.67-1.83-.22-1.83-.22s-.57-2.53-.86-3.51-1.1-3.51-1.39-5.14c-.25-1.4-.37-5.31-.4-6.38a35.36 35.36 0 0 1 1.75-7.61c1.31-3.3 4.4-7.78 5.51-8.64zm-9.74-.12c5.06-1.22 7.13-.37 7.13-.37-2.28.82-4.44 3.34-6.77 6.12a19.12 19.12 0 0 0-3.79 7.58c-.45 1.79-.41 2.65-.16 2.65s.37-1.67 1.83-5a28.1 28.1 0 0 1 4.77-6.93A17.23 17.23 0 0 1 125 4.32c.77-.41 1.71-.57.82.45a37 37 0 0 0-4.32 7.71 15.91 15.91 0 0 0-1.31 6.94s-1.22 3.29-2 5a24.87 24.87 0 0 0-1.79 5.87c-.29 1.67.08 2.69-.41 3.14a4.5 4.5 0 0 1-3.18.2c-.57-.33-1.35-.73-.69-2.77s.86-2.69.86-2.69a12.87 12.87 0 0 1-2.53 3.3 13 13 0 0 1-4.73 1.88c-2.36.53-5.83 1.71-6.07 1.79s-1.55 1-2.24-1.22-.94-7.91 0-10.52 3.67-7.5 4.81-8.64A34.94 34.94 0 0 0 104.9 12c.26-.41 4.3-4.32 4.93-4.93a1.24 1.24 0 0 0 .25-.16 20.63 20.63 0 0 1 8.76-4.43zM106 7.5l-.12-.08c.09.07.17.11.24.09.33-.12 4.61-2.49 4.61-2.49L108.2 6.8a46 46 0 0 0-5.83 5.79 40.11 40.11 0 0 0-5.46 9.7 21.18 21.18 0 0 0-1.55 8.28c.12 1.75 1.22 3.51.9 4.65s-1.18 1.22-1.59 1.43-2.32-.82-2.85-2.53c-.15-.49-.28-.62-.39-.56A7.41 7.41 0 0 1 91 30a27 27 0 0 1 6-14.31 38.36 38.36 0 0 1 9-8.19zM82 29.35a31.86 31.86 0 0 1 7.34-10.93c5-4.65 8.07-5.71 8.07-5.71-.16.41-4.32 6-5.14 7.09a32.83 32.83 0 0 0-4.77 6.56 23.86 23.86 0 0 0-2.74 8.3 9 9 0 0 1-2.28 2.69c-1.55 1.22-3 4.48-3.14 4.77s-.82 1.71-.86.12 1.47-9.96 3.52-12.89zm.32 34c-.13-.24-.34-.55-.42-.75-.42-1-1.25-3.3-1.74-4.2a20.26 20.26 0 0 1-1.58-5.5c-.33-2.24-.41-7.26.94-9.09s2.39-5 4.93-6.42c-.08.93-.13 1.81-.16 2.62A13.72 13.72 0 0 0 86 47l.2.46a9.6 9.6 0 0 0-1.87 4.23 29.61 29.61 0 0 0 0 10.56c.49 2.41 1.1 5.18 2.36 6.69a57.31 57.31 0 0 1-4.39-5.57zm18.48 16.94a8 8 0 0 1-4.73-3.63c-1.67-2.65-2.61-5.26-3.14-5.14S93 73 93.4 74s2.08 3.71 3.67 4.57c0 0-1.18.29-3.42-1.83a27.28 27.28 0 0 1-5.54-7.18c-1.47-2.77-3.63-10.84-3.51-13.74 0 0 1.79 8.6 4.81 10.93 0 0-3.71-6.52-3.75-12.8 0-4.15.48-5.45.83-5.85v.07a4.71 4.71 0 0 0 .18.68 9.49 9.49 0 0 0 .41 4.15 20.4 20.4 0 0 0 1.57 3.11c.14.39.5 1.35.75 2.15.33 1 1.35 4.36 1.71 5.46s3.22 7.42 6 10.15 6.07 6.28 6.77 6.69a7.76 7.76 0 0 1-3.1-.25zm5.5.82c-2.24-1.39-8.93-8.33-11.37-12.84a83.87 83.87 0 0 1-4.4-10c-.16-.41-.69-2.32.45-.77L92.1 59s1.57 2.49 4.51 6.54A60.28 60.28 0 0 0 106 75.1a43.45 43.45 0 0 0 6.73 3.6l.44.19A2 2 0 0 1 114 80a12.31 12.31 0 0 1 .66 2.54c0 .32-.67.55-.67.55l-2.45-.09a11.12 11.12 0 0 1-5.26-1.87zm-13.55 65a6.64 6.64 0 0 1-1.9.47 8.58 8.58 0 0 1-3.61-1 7.24 7.24 0 0 1-2-3.06 28.38 28.38 0 0 0-1.9-3.82c-.12 0-.12.18-.06.76s1.1 3.94 1.1 3.94-.52 0-1.8-.95a6.76 6.76 0 0 1-2.32-3.15 18.48 18.48 0 0 1-.67-3.3 27.5 27.5 0 0 0-1-3.55 9.09 9.09 0 0 1-.86-4.16 5 5 0 0 1 1.65-3.12 23.66 23.66 0 0 1 5.62-6.51 11.62 11.62 0 0 1 7.8-2.11c.28 0 1.71 0 .55.4a17.42 17.42 0 0 0-4.46 2.78 9.4 9.4 0 0 0-1.5 3.33c-.12.86-1 2.84-.89 2.9s.4-.4 1-1.56 1.74-3.64 3.67-4.92a8.17 8.17 0 0 1 5.6-1.65c2.23.12 2 1 2.75 1.47a12.79 12.79 0 0 1 2.75 1.56 3 3 0 0 1 1 2.45v.18l-2.2-1.87a5.92 5.92 0 0 0-1.49-.85 5.91 5.91 0 0 0-2.84.61 12 12 0 0 0-2.78 2c-.64.73-2.45 3.42-3.52 8.35a20 20 0 0 0 0 9.48c.37 2 3 4.68 3 4.68a4 4 0 0 1-.7.22zm7.21-23.33l-2.89-.12v-.06l1.75-.73c.31.22 1.12.91 1.12.91zm-4.16 22.39c-.35.55-.76 1-1.1.77a2.56 2.56 0 0 1-.31-3.49c.58-.86 2-.7 2.52-.61-.07.16-.91 2.95-1.11 3.33zm1.76-8a24.4 24.4 0 0 0 .83 3.33c.18.26-2.83 0-3.51 0a2.84 2.84 0 0 1-2.51-.8c-.86-.89-.89-2.2-.86-4.56a26.34 26.34 0 0 1 1.83-8.75 4.89 4.89 0 0 1 3.33-2.75v-.07c.76 0 4 0 4.77.18a2.6 2.6 0 0 1 1.53.76c.09.18-.86.06-2.14 1.07s-2.48 3.61-2.94 5.14a18.31 18.31 0 0 0-.33 6.46zm3 28.38c-.24-1.22-.86-2.28-.29-3.06s.45-1.26 3.14-1.26c.67 0 1.53 0 2.44.11-.55.7-4.17 5.27-5.11 6.67a18.94 18.94 0 0 0-.13-2.46zm2.61 6.65c-1.24 0-1.86.07-2.14-.51.09-.27.08-1.26.26-1.92.24-.9 4.91-7.54 5.52-7.71s1 .75 1.55 2.14 2.08 5.81 2.32 6.79a13.43 13.43 0 0 1 .26 1.5c-3.04-.16-6.82-.32-7.72-.29zm48.74-.71c.14.43-.42.66-1 .8a110.77 110.77 0 0 1-11.25 1c.34-.75 4.36-9.66 4.87-9.77s7.18 7.2 7.47 7.97zm-6.47-8.9c.83 0 1.58-.08 2.19-.13a68.15 68.15 0 0 0 9.44-1.49c-.13.86-1.06 6.32-4 9.91 0 0-.2.16-.94-.53s-5.83-6.14-6.64-7.76zm-7 10s-.12.24-.61-.9c-.41-1-3.7-7.28-3.81-7.48s-.41-.64-.41-.64-.11-.6.11-.69H135c1.76 0 5.07-.13 8.21-.23-.32 1.02-2.05 6.47-4.75 9.99zm-1.39.61a21.42 21.42 0 0 1-2.81.08s-5.47.07-7.16.11a37.57 37.57 0 0 0 1.92-3.49c.43-1.08 2.06-5.36 2.36-5.77s.89-.57 1.52.6a28.38 28.38 0 0 1 4.2 8.52zm-9.15-3.51a6 6 0 0 1-2.54 3.31 10.1 10.1 0 0 1-.91-.45 16.66 16.66 0 0 1-.95-2.19c-.19-.49-1.85-6.1-2.65-7.39l1.3.14c.44 0 4.39 0 7.71-.08a62.88 62.88 0 0 1-1.94 6.7zm-4.71 3.3c0 .19 0 .35-.49.42-1.7-.14-6.34-.52-7.73-.68-.31 0-.83-.08-1.5-.12a18.81 18.81 0 0 0 2.46-3.83c.65-1.65 2.75-5.18 3.24-5.44s.57-.43 1.28 1.28 2.74 8.21 2.76 8.38zm-10.6-1.26c-.57.49-2.83-8.79-4.11-10.19 1.87.19 3.51.41 3.84.47s3 .34 5.42.6c-.5 1.05-4.57 8.69-5.13 9.16zm2.58 49.52c-.21-.91-.39-1.65-.48-2a8.26 8.26 0 0 1-.26-2.52c.45.71 1.3 1.45 3.87 2.34 3.73 1.28 12.41.12 12.41.12s-2.81 2.87-8.93 3.12c-4.14.19-5.89-.61-6.59-1.02zm-.23-5.84c3.45 1.47 8.38 2.6 12.74 1.6a19.16 19.16 0 0 0 3.58-1.3.5.5 0 0 1 .46.32 7.46 7.46 0 0 1 .1 1.1c-2.12 1.18-7.46 2.23-11.78 1.41-3.34-.65-4.65-2.33-5.04-3.09zm3.88 16.17h.07c-.46.07-1.1.2-1.7.31s-1.8.26-2-.55 3.26.15 3.65.28zm-2.91-7.13c1 .83 2.89 1.37 5.51 2 3.06.73 9.23-.37 8.75 0a10.41 10.41 0 0 1-2 .86 24.31 24.31 0 0 1-11.36 1.19zm-8.17 4.24a13.3 13.3 0 0 1 2.48.4s2.72 1.1 2.84 1.85-1.21.89-1.41 1c-.82.08-2.41 0-2.45-.24a2.59 2.59 0 0 0-.61-1.43c-.38-.43-1.32-1.37-.83-1.54zm-6 1.79c.33-1.67 2.57-2.41 2.57-2.41h1.06a6.34 6.34 0 0 1 2.29 2.41 1.22 1.22 0 0 1-.37 1.83 21.23 21.23 0 0 1-5.34 1.35c-.95.13-.47-1.46-.14-3.13zm-5.5.43a3 3 0 0 1 .68-1.2 9.89 9.89 0 0 1 4.3-1.49c-1.2 1.07-1.55 5.48-1.55 5.48a4.4 4.4 0 0 1-2.2-.35S96 231.87 96.31 231zm-2.61 5.11a8.24 8.24 0 0 1 .16-1.67 2.39 2.39 0 0 1 .67-.66.93.93 0 0 1 .72.26 8.32 8.32 0 0 0 4.4 1.67 21.89 21.89 0 0 0 0 2.77c.12.49-.13.42-.51.42h-.3c-2.45-.13-3.87-.58-4.83-2.09a3.38 3.38 0 0 1-.24-.65zm6.77 7.72h-.24c-2.41-.52-4.82-1.54-5.73-3.25-.07-.37-.06-.71.17-.79.48-.16 2 .9 5.35 1.08a3.77 3.77 0 0 0 .09 1.61c.29.46.58 1.2.42 1.4zm1-5.12c-.12-.4-.39-3-.06-3.25 0 0 .2.12 1.55-.08s5-1.22 5.67-.61.82 3 .2 3.51a1.86 1.86 0 0 1-.52.28l-.48.12h-.31c-1.53.14-3.05.24-4.49.24h-1.35c-.1.06-.14-.01-.19-.16zm7.48 4.5h-.07l-1.75.3h-.38l.08.05c-1.1.17-2.28.31-3.39.36.08-.13-1-.11-1.22-1.35-.29-1.43 0-1.67.61-1.79h.06l2.07-.17s4-.57 4.53 0a1.92 1.92 0 0 1-.52 2.65zm1.39-9.54c.24-.49 1.26-.49 1.26-.49.3 0 1.59-.06 2.14-.05a2.73 2.73 0 0 1 1.16.39c1 .73 1.55 3.55 1.43 3.75a38.32 38.32 0 0 1-5.12.92 3.79 3.79 0 0 0-.13-1.61c-.27-1.03-1.01-2.37-.72-2.86zm6.4 7.3a2.22 2.22 0 0 1-1.42 1.26c-1.54.18-3 .37-4.15.57a15 15 0 0 0 .31-1.75c0-.61 0-.9.49-1.06s4.2-.86 4.61-.57.34.98.18 1.6zm.9-6.16c-.45-1-.57-1.3-.08-1.3a9.71 9.71 0 0 0 2.36-.08c.9-.2 1.1-.61 1.1-.61a8 8 0 0 1 1.83 3.51v.1c-1.18.26-2.62.53-4.47.79a16.14 16.14 0 0 0-.72-2.36zm4.79-2.63a24.3 24.3 0 0 0 4.48.3.49.49 0 0 1 .27.13 10.18 10.18 0 0 1 .89 2.08 15.27 15.27 0 0 1-2.11.89c-.43.14-.88.28-1.38.41a7.82 7.82 0 0 0-2.13-3.77zm-.3 8.87a2.42 2.42 0 0 1-.51.42l-.79.11-1.37.17c-.44 0-1-.11-1-.45 0-.57.2-2 .2-2s-.16-.24.35-.33a34.26 34.26 0 0 0 4.17-.5 5.74 5.74 0 0 1-1.04 2.62zm6.17-2.85a4.29 4.29 0 0 1-1.31 2.39l-2.54.44a4 4 0 0 0 .58-2.89 16 16 0 0 0 3.13-1l.24-.12a4.82 4.82 0 0 1-.09 1.23zm.24-6A9.53 9.53 0 0 0 131 231a1.22 1.22 0 0 1 .34.15l.21.16a1.32 1.32 0 0 1-.33 1.06 7 7 0 0 1-1.81 1.5 5.12 5.12 0 0 0-.4-.89zm2.19 6.16a4.68 4.68 0 0 1-1.23 1.79h-.1a5 5 0 0 0 .69-2.66 8.13 8.13 0 0 0-.07-1.29 5.14 5.14 0 0 0 1.81-1.28 12 12 0 0 1-1.09 3.47zm1.16-10.09c-.31 1.28-2.89 2.55-2.77 2.56a16.71 16.71 0 0 1-4.21.56 13.83 13.83 0 0 1-6.05-1.22 25.71 25.71 0 0 0 9.05-1.28 17.35 17.35 0 0 0 4.09-2 9.5 9.5 0 0 1-.09 1.4zm-5.44-2.45a23.71 23.71 0 0 1-9.91-2.39c1.1.37 7 .18 9.85-.49a19.32 19.32 0 0 0 5.68-2.65v3.62c-.27.51-1.39 1.89-5.61 1.94zm3.36-10.89c-3.06 1.28-8.38 2.14-11.62.49a13.5 13.5 0 0 1-2.08-1.83c-.86-1-3.85-8.38-4-8.26s1 5.7 2.2 6.79c0 0 .38.4.06.55s-1.77.06-2.87-2.39a43.93 43.93 0 0 1-2.87-14l-.43-6.6s3.3 3.24 3.85 2.69-2-1.9-3.24-3.91a34.37 34.37 0 0 1-2.18-4.69s-.43-1.56-.44-1.58a42.89 42.89 0 0 1-1-4.66c-.08-1.67-.12-2.69 1-3.14a9.68 9.68 0 0 1 4.4-.65c1.18.24 6.85 1.35 8.28 1.59a26.75 26.75 0 0 0 3.46.32h.33l2.84.57a5.87 5.87 0 0 1 1.75 2.41 1.15 1.15 0 0 0 .14.28 19.35 19.35 0 0 0 .55 1.88c.37 1 2.45 12.54 3 16.27s1.83 11.93 2 13.82-.06 2.8-3.11 4.08zm3 24.65a.42.42 0 0 1 .55-.18 5.43 5.43 0 0 0 2.63.43c.06 0 .2 0 .31.42a8.78 8.78 0 0 1 .2 2.63.66.66 0 0 1-.78.52 3.33 3.33 0 0 1-2.14-.81 3.63 3.63 0 0 1-.76-2.98zm8-17a62.41 62.41 0 0 0 7.89-.12c-5.87 2.69-13.46 1.34-15.1.9 0-.57-.05-1.09-.07-1.51s0-1.09 0-1.7c.94.94 4.12 2.23 7.31 2.46zm-7.17-4.92a10.28 10.28 0 0 1 .2-1.32c.28-1.19.41-1.91 1.21-2.1a6.68 6.68 0 0 0 2 1.49 21.11 21.11 0 0 0 9.72 1.71 17.26 17.26 0 0 0 5.14-1.16 25.43 25.43 0 0 1-12 2.81c-4.52 0-5.84-.9-6.25-1.4zm12.58 15.53a4 4 0 0 1 1.73-.38 13.58 13.58 0 0 1 3.07.17c.86.29 1.82 2.77 1.77 2.89a52.23 52.23 0 0 1-6.25.17 1.3 1.3 0 0 1-.66-.95c-.12-.66-.23-1.49.37-1.87zm-.55-1.13a.85.85 0 0 1-.24-1 .76.76 0 0 1 .31-.23c1 0 1.91-.07 2.79-.08a1.45 1.45 0 0 1 .52.19c.4.23.72.86.64 1s-1.3 0-2 .08a8.43 8.43 0 0 1-1.99.07zm4.49-3.79a4.81 4.81 0 0 1-2.87 1.35c-1.16.18-4.65.37-5.93.55a32.74 32.74 0 0 1-5.44.49c-1.28-.12-1.9-2.2-2-3-.06-.4-.14-1.45-.21-2.6v.09c1.71 1.9 4.34 2.45 8.38 2.75a36.82 36.82 0 0 0 8.8-.71 3.76 3.76 0 0 1-.7 1.1zm-16.05 9.16c.06-.44.81-.83 1.33-1s1.36-.67 1.44-.69a8.42 8.42 0 0 0-.6 2.17 5.56 5.56 0 0 1-1.79.15.58.58 0 0 1-.35-.61zm2.4-3.07a11.1 11.1 0 0 0-2.81 1.66 2.83 2.83 0 0 1 .07-1.39 4.09 4.09 0 0 1 .67-1 9.4 9.4 0 0 1 1.28-1.16 8.24 8.24 0 0 1 .85-.39 2.9 2.9 0 0 1 1.41 0s.08 0-.06.34a7.39 7.39 0 0 0-.34 1.25c.01.33-.75.57-1.04.71zm2.48.73c1.09-1 2.11-1.36 4.71-1.7a8.81 8.81 0 0 0 .64 2.79c.08.17-.11.24-.83.4s-4.66.92-5.6 1a3.49 3.49 0 0 1 1.11-2.49zm.41-2.57a5.92 5.92 0 0 1 4.63-1.33 3.93 3.93 0 0 0-.29 1 13.72 13.72 0 0 0-4.3.91s-.56.07-.01-.55zM136 247.85a2.65 2.65 0 0 1-.94-.19 4.12 4.12 0 0 1-2.08-2.8c-.05-.22-.09-.49 0-.54s1.13.47 2.31.58a10.42 10.42 0 0 1 1.56.12 11.41 11.41 0 0 1 1 2.58c-.01.15-1.05.24-1.85.25zm1.69-6.22c0-.47-.28-1.74.06-2.14s2.77-.55 3.29-.67 3.41-.58 3.81-.58.14 0 .37.37a22.63 22.63 0 0 1 1.36 4.33s.06.49-.8.64-5.57.14-5.57.14-1.68.09-2-.28a3.24 3.24 0 0 1-.5-1.81zm9.49 4.59c0 .63 0 1.41-.44 1.67a3.08 3.08 0 0 1-1.38.16c-1.65-.15-3.49-.16-5.15-.15a1.42 1.42 0 0 1-.92-.77 5.62 5.62 0 0 1-.83-2.13c.06-.28.81 0 2.52.11s5.21 0 5.53 0a1 1 0 0 1 .69 1.11zm.81-3.88c-.25-.63-1.25-3.79-1.09-4.25s1-.32 1.82-.28 4.13-.4 4.8-.31 1.15 1.18 1.41 1.64.73 1.47.9 1.91a1.7 1.7 0 0 1-.2 1.57c-.55.7-1.26.77-3.35.87s-3.82-.02-4.28-1.16zm7.19 4.79a3 3 0 0 1-1.07.86 29.83 29.83 0 0 1-3.89.34 1.35 1.35 0 0 1-.92-.91c-.14-.73-.18-2.11.09-2.25s2.75-.08 3.72-.17a17.14 17.14 0 0 0 2.9-.66c.41-.14-.01 1.84-.81 2.78zm6-5.63a6.14 6.14 0 0 1-.68 3.47 6 6 0 0 1-3.45 2.33 7.71 7.71 0 0 0 .68-3.38 7.14 7.14 0 0 0 2.75-1.45 2.33 2.33 0 0 0 .72-.98zm-.67-2.93v.13a4.55 4.55 0 0 1-1.64 3s-.92.7-1.36.52-.33-1.16-.51-1.54a9.89 9.89 0 0 0-1.39-2.71c-.26-.26.06-.35.35-.24s3.95.59 4.57.83zm-2.94-3.76c.6.44 1.56 1.21 1.48 1.5s-3.58-.21-3.94-.29a1 1 0 0 1-.81-.54c-.23-.41-1.53-2-1.13-2a22.46 22.46 0 0 1 4.42 1.32zM153.3 231c1 .36 1.38.69 1.48 1a.44.44 0 0 1-.32.43 4.55 4.55 0 0 1-2.74-.6 5 5 0 0 1-1-1.12 11.18 11.18 0 0 1 2.58.29zm-1.72-5.58c-.81.54-2.8 1.41-7.21 1.54-6.42.18-8.56-1.77-8.56-1.77a17.83 17.83 0 0 0 7.64.06 40.32 40.32 0 0 0 9.12-3.19 34.32 34.32 0 0 1-.99 3.32zm1.53-6v.28c-.72.67-2.53 1.55-8.27 1.55-8.13 0-9.66-1.71-9.66-1.71a28.15 28.15 0 0 0 9.54.24 19.19 19.19 0 0 0 8.33-3.12 4.8 4.8 0 0 1 .07 2.74zm7.4-41.89s0 8.75-.61 11.31a8.5 8.5 0 0 1-1.53 3.24c.06.24.86.12 1.22 2.69s-.12 11.44-.86 13.88a7.94 7.94 0 0 1-4.16 5 10.6 10.6 0 0 0 2.45-5.26c.55-3.3.06-6-.18-6s-.24 3.42-1 6.05-4.34 5.32-6.3 6.3a1.93 1.93 0 0 0-.3.18 9.37 9.37 0 0 1-4.66 1.11c-3-.06-4.22-.06-5.26-4.22a15.28 15.28 0 0 1-.37-2.32v-.07a5.72 5.72 0 0 0-.12 3.19 11.5 11.5 0 0 0 1.1 3c.31.37-2-.18-3.06-1.41s-2.39-3.91-3.49-11.37-3.77-23.34-4-24.48a1.15 1.15 0 0 0-.12-.32 1.9 1.9 0 0 1 .24-1.88c.77-.77 1.79-.82 4.36-.57s8.68.65 11.82 0 11.7-2.65 13.13-2.73 1.63.9 1.79 2.41zm-1.63-6.87a25.6 25.6 0 0 1-4.17 1l.21-.1a2.9 2.9 0 0 1-.9 0c-.2-.08 3.42-4.85 4.36-9.74 0 0 3 4 3.42 6.73.02.05-.22.99-2.91 2.09zm6.09-3.57c-.53 1.59-.33 1.56-1.47 2 0 0-1.28-3-2.34-5.36a9.92 9.92 0 0 0-2.14-3.23 25.12 25.12 0 0 0 3.93-1.4 2.89 2.89 0 0 0 1.1-.48c.24-.29-.16 1.55.2 2.94s1.26 3.91.75 5.5zm10.34-44.93c-.1 1.41-.33 3-.38 4.67a15.65 15.65 0 0 0-3.1-1.18c-2-.65-6.12-.73-7.62-2.77s-1.83-3.06-.53-5.87 2.57-7.58 2.28-8.11-.65.82-1.26 2.12-2.49 4.89-2.85 5.63a6.41 6.41 0 0 0-.57 1.3c0 .12-.37.29-.9-3s.08-4.85-.49-7.26-1.83-7.09-2-5.14c0 0 .61 4.2.86 6.6s.37 6.93.69 8.11 2.77 6 3.1 7.26.16 4.69.24 8 .61 5.5.9 9 .69 13.94.65 14.64-.93 1.32-1.62 1.81c0 0-5.56 1.82-8.23 2.32a164.58 164.58 0 0 1-19.46 1.67s-9.5 0-12.56-.24-8.24-.9-10.52-1.1-8.68.12-10.27-.61-1.47-3.47-1.63-4.77a3.54 3.54 0 0 0-.12-.53c0-1.38-.09-4.37 0-5.35.06-1.28.43-3.3.46-3.94s0-3.42 0-3.42a.77.77 0 0 0 .8-.15c.37-.34.31-1.59.24-1.74a13 13 0 0 1 4.31.49 50.63 50.63 0 0 0 9.6.73c.62 0 1.21 0 1.79-.06a11.1 11.1 0 0 1-1.55-.24 1.11 1.11 0 0 1-.73-.62 34 34 0 0 1-5.17-.11c-1.16 0-4.46-1.53-6-1.77s-4.16-.89-4.49-.67-.46-3.52-.15-5.38a15.39 15.39 0 0 1 2.23-5.32 4 4 0 0 1 2.36-1.37 7.3 7.3 0 0 0 4.59.61c2.66-.49 2.57-.73 5.23-2.81s2.72-5 3.15-6.24.28-3.64 1.71-3.39 1.35 2.9 1.53 4.43a17 17 0 0 1-.21 3.85l-.12.05c-.43.19-1.94.85-2.46 1.1-.7.34-1.16.43-1.16.83s.28.34.76.15a8.23 8.23 0 0 1 3.09-.73 4.13 4.13 0 0 1 1.57.38c.82 0 1.7 0 2.54.09a4.35 4.35 0 0 0-2.42-1.26c-.47-.2-.75-.08-.68-1.17a.33.33 0 0 0 0-.16c-.09-.55.06-3.24-.18-5.26a3.92 3.92 0 0 0-1.71-3c-.34-.24-2.81-1.56-3.15 1.47a15.8 15.8 0 0 1-2 6.33c-.86 1.62-3.46 3-4.8 3.7a3.76 3.76 0 0 1-3.18.4c-.83-.34-.92-.95-1-1.62a6.47 6.47 0 0 0-.67-2.84 5.18 5.18 0 0 0-2.17-1.77c.52-2.9.31-11.13.37-12s.12-3.67-.18-3.58-.61 2.57-.61 4.07-.09 2.42-.92 2.63-1.41-2.45-1.65-2.23-.12.37.18 1.9a14.21 14.21 0 0 1-.25 4.84 1.69 1.69 0 0 1-1.47 1.1c-.53.12-1.47-.2-3.42-.49a19.4 19.4 0 0 0-8 1.3 10.81 10.81 0 0 0-3.71 3.1c-.29.61-3.38 4-3.79 5.38s-1.51.86-1.59.08a21.19 21.19 0 0 1 .12-4.4c.24-1.92 1.47-4.44 1.83-5.87a43.59 43.59 0 0 1 2.12-6.76 20.48 20.48 0 0 1 4.4-5.5c1.14-1.1 6.93-5.1 8.24-6.16a42.82 42.82 0 0 0 3.59-3.87c.45-.45 3.23-3 3.23-3 1.31-1 4.32-3 7-3.51 0 0 1.16-.09 1.62-.15s4.83-1.81 5.44-1.81a1.5 1.5 0 0 1 1.48.43 7.68 7.68 0 0 0 1.87 1.18c.32.16 1.55.66 1.56.67s.92.39 1.38 2.5a72.89 72.89 0 0 1 .51 8.76 71.29 71.29 0 0 0 1.31 10.3c.52 1.76 1.12 1.8 1.12 1.8a17.05 17.05 0 0 0 3.87 1.68c2.86.92 2.8.67 4.1.66a7.41 7.41 0 0 0 3.12-.86 3.65 3.65 0 0 0 1.22-.69 2.2 2.2 0 0 0 .52-1.44l-.21-13s.18-6.76 1.16-8.38a7.5 7.5 0 0 1 1.89-2.26 12.67 12.67 0 0 1 1.83-1.11 10.25 10.25 0 0 1 2.55-.79 9.75 9.75 0 0 1 5.75 1.16l.37.22c.9.51 5.1 2.06 6.42 2.85s3.42 2.49 4.77 3.16 2.63 1.39 4.38 2.39c.81.46 2.65 1.33 3.71 1.81s7.07 2.39 8.64 3.06 5 2.26 5.73 2.73.43 1 .24 1.2-.77.4-1.12.77a23.32 23.32 0 0 0-3.91 6.05 70.51 70.51 0 0 0-3.37 13.28zm18.16 13.78c-.1.43-.1.84-1.55.63a14.88 14.88 0 0 1-4.22-.9c-.8-.49-2.53-.84-3.69-2.85s-1.77-7.46-1.83-8.13-.57-.88-.49.29-.18 4.51-.12 5.59a9.87 9.87 0 0 0 .82 2.94c.16.31-.37.47-1 .37a7.43 7.43 0 0 1-4-2.41c-1.2-1.59-.82-6-.8-7.05s.61-6 .84-7 1.51-4.36 2.14-5.93a36.7 36.7 0 0 1 3.75-7.2 4.07 4.07 0 0 1 3.87-1.86 29.88 29.88 0 0 1 3.24 1.61c.39.29.73.43-.27.53a6.3 6.3 0 0 0-3.53 1.12 6.82 6.82 0 0 0-2.24 3.14c-.06.39.27-.08.51-.53a5.23 5.23 0 0 1 2.39-2.36 8.75 8.75 0 0 1 5.5-.12c2.32.65 4.16.88 4.77 1.08s2.43.47 2.43 1-.18.24-1.79 1.53a18.4 18.4 0 0 0-3.16 3.55 21 21 0 0 0-3.16 9 39.36 39.36 0 0 0 .06 6.81 25.58 25.58 0 0 0 .43 4.34c.42 1.3 1.21 2.36 1.11 2.78zm4.46-5.75c-.1.37-.51 3.85-1 4.63s-1.24 1.26-1.75 1.14-1-.35-1.51-2.81a15.36 15.36 0 0 1-.08-4.89.76.76 0 0 1 .39-.66c.39-.24 1.24.1 1.24.1a10.71 10.71 0 0 1 2.87.77c.36.37-.09 1.33-.15 1.7zm3.07-10.26s-.55 3.1-.65 4.61-.12 2.12-.53 2.28a8.6 8.6 0 0 1-2.73-.12H197c-3.36-.67-3.75-1.43-3.85-1.73a15.51 15.51 0 0 1 .22-4.73 29.62 29.62 0 0 1 2.39-6.24 1.73 1.73 0 0 1 .39-.57s1.67-1.77 2.18-2.18a1.69 1.69 0 0 1 1.24-.43h.06c.42.14 1.88.61 2.4.8s1 .12 1.08.55a9.91 9.91 0 0 1-.68 2.45.53.53 0 0 0-.06.14s-1.17 3.95-1.37 5.17zm5.57-2.89a2.6 2.6 0 0 0-.67 2.3c.08.39.33.57.29.73a2.42 2.42 0 0 0-.61 1.49c-.06 1 1 2 1 2.34s-.24.55-.31 1.18a4.19 4.19 0 0 0 .27 1.57c.06.18-.08.26-1.55-.1s-2.57-.45-3.2-1.73.31-5.28.31-5.28 1-3.41 1.22-4.18l.63-1.38s1.63.57 2.14.69a11.21 11.21 0 0 0 2.67.49c1 0 1.69 0 1.69.18s-.69.47-.9.67-2.09-.09-2.96.99zm16.8 5.71c0 1-.86 1.79-1.1 2.61s0 1.83-.47 2.59a3.4 3.4 0 0 1-1.39 1.16c-.41.29-.59.55-1.18 1a7.25 7.25 0 0 1-4.73 1.24 11.18 11.18 0 0 1-4.32-.84 4.14 4.14 0 0 1-.51-.37s-.63-.55-.18-.86 1.2.43 2.47.69a12.53 12.53 0 0 0 4.59-.14c.86-.29 1.45-.65 1.3-.75a17 17 0 0 1-4 0c-1.83-.39-3.36.22-6.05-2.22a2.41 2.41 0 0 1-.06-1.67 12.5 12.5 0 0 0 4.59 1.22 16.61 16.61 0 0 0 6.69-.71c.37-.2.69-.45-.43-.31a31.8 31.8 0 0 1-8.19-.67c-2.2-.65-2.73-1.2-3.28-2.77 0 0-.22-.86 0-1s.77.61 1.86 1a22.69 22.69 0 0 0 6.18.37c1.94-.14 3.55-.59 3.93-1s.47-1 .1-1a17.68 17.68 0 0 1-4.3.71A13 13 0 0 1 208 120c-1.08-.55-1.18-1.28-1-1.59a2.39 2.39 0 0 1 1.79-1.08c1.08-.12 5.34-.16 6.46-.18a3.73 3.73 0 0 0 2.06-.68l.53-.32a2.79 2.79 0 0 1 3.06 0c.94.51 1.08 1.94 1.08 2.47a2.24 2.24 0 0 0 .82 1.63 3.25 3.25 0 0 1 .59 2.5z" fill="#693023"/><circle cx="105.71" cy="169.36" r=".84" fill="#693023"/><circle cx="113.13" cy="164.22" r=".84" fill="#693023"/><circle cx="119.12" cy="170.66" r=".84" fill="#693023"/><circle cx="125.44" cy="165.81" r=".84" fill="#693023"/><circle cx="152.23" cy="164.83" r=".84" fill="#693023"/><path d="M155.26 193.43c-.45-.29-3.59 1.88-4.85 2.36s-4.85 1.67-4.85 1.67c.2 1 4 .14 5.79-.45a8.39 8.39 0 0 0 3.3-2c.98-.68 1.06-1.29.61-1.58z" fill="#693023"/><rect x="121.01" y="86.68" width="93.98" height="134.32" rx="2" ry="2" fill="#ededed" stroke="#693023" stroke-miterlimit="10" stroke-width="2"/><path d="M223.11 117.33a9.78 9.78 0 0 0-1.73-3.45c-.49-.67-1.53-.06-1.65-1.16s-.12-5.75-.49-7.52-2-2.69-2.51-2.57-1.47 3.61-1.77 5.44.37 5.87-.31 6.48a4.85 4.85 0 0 1-2 1.37c-1.26.48-2.9.35-5 1.11l-.5 4.34c.52.12.48 4.79.62 4.81.43.06 1 1.83 1.48 2.93s3.42 2.51 5.5 2.51a8.64 8.64 0 0 0 4.71-1 6.61 6.61 0 0 0 3.24-2.75 11.62 11.62 0 0 0 1.71-5c.21-2.02-.95-4.22-1.3-5.54z" fill="#f9ddc9"/><path d="M224.13 119.51c-.31-.57-.55-2.53-.88-3a11.43 11.43 0 0 0-1.75-2.79 8.08 8.08 0 0 1-1.9-3.89c-.1-.88.2-5.12 0-6A2.44 2.44 0 0 0 218 102a3.29 3.29 0 0 0-1.8.23s-.76.2-1.16 2.71c0 .1-.74 8.05-.82 8.88s-.18 1.26-.46 1.38a26.26 26.26 0 0 1-3.59.45 3.7 3.7 0 0 0-2.94 1 2.6 2.6 0 0 0-.67 2.3c.08.39.33.57.29.73a2.42 2.42 0 0 0-.61 1.49c-.06 1 1 2 1 2.34s-.24.55-.31 1.18a4.19 4.19 0 0 0 .27 1.57 2 2 0 0 0 .19.8 3.94 3.94 0 0 0 .64.95c.24.37.1.67.51 1.35a4.65 4.65 0 0 0 1.24 1.22l1.37.68s.49.17 1 .39a8.92 8.92 0 0 0 1.78.4 11.85 11.85 0 0 0 3 0 8.31 8.31 0 0 0 4-1.57 7.68 7.68 0 0 0 2.81-3.49 11.65 11.65 0 0 0 .94-4.48 6 6 0 0 0-.55-3zM216 104.39a2 2 0 0 1 .44-.91c.43-.39 1-.53 1.75.33s.08 2.59 0 3.93a14.45 14.45 0 0 0 .59 4.46c.31.86 1.12 1.63 1 1.75s-.31 0-.75 0a3.4 3.4 0 0 0-1.1.37 2.51 2.51 0 0 0-.23.2 2.68 2.68 0 0 1-1.13.76 1.77 1.77 0 0 1-1.3 0c-.07 0-.18-.33-.23-.41zm8 18c0 1-.86 1.79-1.1 2.61s0 1.83-.47 2.59a3.4 3.4 0 0 1-1.39 1.16c-.41.29-.59.55-1.18 1a7.25 7.25 0 0 1-4.73 1.24 11.18 11.18 0 0 1-4.32-.84 4.14 4.14 0 0 1-.51-.37s-.63-.55-.18-.86 1.2.43 2.47.69a12.53 12.53 0 0 0 4.59-.14c.86-.29 1.45-.65 1.3-.75a17 17 0 0 1-4 0c-1.83-.39-4.43-.51-6.05-2.22a1.55 1.55 0 0 1-.06-1.67 12.5 12.5 0 0 0 4.59 1.22 16.61 16.61 0 0 0 6.69-.71c.37-.2.69-.45-.43-.31a31.8 31.8 0 0 1-8.19-.67c-2.2-.65-2.73-1.2-3.28-2.77 0 0-.22-.86 0-1s.77.61 1.86 1a22.69 22.69 0 0 0 6.18.37c1.94-.14 3.55-.59 3.93-1s.47-1 .1-1a17.68 17.68 0 0 1-4.3.71 13 13 0 0 1-6.89-1.06c-1.08-.55-1.18-1.28-1-1.59a2.39 2.39 0 0 1 1.79-1.08c1.08-.12 5.34-.16 6.46-.18a3.73 3.73 0 0 0 2.06-.68l.53-.32a2.79 2.79 0 0 1 3.06 0c.94.51 1.08 1.94 1.08 2.47a2.24 2.24 0 0 0 .82 1.63 3.25 3.25 0 0 1 .57 2.52z" fill="#693023"/><path d="M98.18 135.26c0-.19.67-5.44 2-7.4a7 7 0 0 1 3.73-2.81c.37 0 .8.86 1.9.67s2.14.67 4.28-.73 3.42-1.22 4.77-4 .86-7.4 2.51-7.64 2.69 1.28 2.75 2.69.2 7.82.2 7.82 9 .38 9.33 1.73a7.07 7.07 0 0 1 .07 2.59c.37 1.59-.43 6.49-1.47 8.81s-5.48 3.8-8.75 3.71-9.72.4-12.22 0-7.4-1.83-7.71-1.77-1.52-2.32-1.39-3.67z" fill="#f9ddc9"/><circle cx="107.43" cy="46.3" r=".74" fill="#fff"/><path fill="#fb8005" d="M177.57 220.33l36.66-26.92-.04 10.04-22.29 16.77-14.33.11z"/><circle cx="138.84" cy="46.37" r=".74" fill="#fff"/><path d="M214.91 202.56c-4.36 3.08-23 17-24.63 18.18a12.88 12.88 0 0 0 2.43.1c1.42-1 18.28-13.52 22.47-16.6.55-.4.34-2.11-.27-1.68zM214.62 192.37c-4.36 3.08-36.34 26.87-38 28.06a12.88 12.88 0 0 0 2.43.1c1.42-1 31.66-23.4 35.84-26.48.55-.4.34-2.11-.27-1.68z" fill="#693023"/><path fill="#fb8005" d="M158.45 87.34l-36.66 26.92.05-10.05 22.28-16.77 14.33-.1z"/><path d="M121.11 105.11c4.36-3.08 23-17 24.63-18.18a12.88 12.88 0 0 0-2.43-.1c-1.42 1-18.28 13.52-22.47 16.6-.54.4-.33 2.1.27 1.68zM121.4 115.3c4.36-3.08 36.34-26.87 38-28.06a12.88 12.88 0 0 0-2.43-.1c-1.42 1-31.66 23.4-35.84 26.48-.54.38-.33 2.1.27 1.68z" fill="#693023"/><text transform="translate(138.12 137.97)" font-size="9.95" fill="#692f17" font-family="HelveticaNeueLTW1G-Bd, Helvetica Neue LT W1G" font-weight="700">Се<tspan x="13.09" y="0" letter-spacing="-.02em">р</tspan><tspan x="18.99" y="0" letter-spacing="0em">тификат</tspan></text><path fill="none" stroke="#c7c0b1" stroke-linecap="round" stroke-miterlimit="10" stroke-width="2" d="M139.02 151.11h58.72M139.02 159.08h58.72M139.02 167.05h58.72M139.02 175.02h58.72M139.02 182.99h58.72"/><path d="M168.45 91.08a7.12 7.12 0 0 0-.14-4.22 11 11 0 0 0-2.38-4.17 6.5 6.5 0 0 0-1.79-1.48 6.68 6.68 0 0 0-.35-2.21c-.82-2.28-3.39-2.27-3.59-2.41-.81-.6-2.8-1.86-3.43-2.26s-2.06-2.21-3.2-2.63-2.23.18-3.46 1.23-2.83 5.41-3.43 7.1a23.7 23.7 0 0 0-.68 6.47 6.37 6.37 0 0 1-.73 2.31 22.18 22.18 0 0 0-3.09.39 8.29 8.29 0 0 0-3.09 1.49c-.13 0-2.17-1.48-3.4-2s-2.68-2.13-5.61-5.16-4.68-3.65-6.6-4.08a5.55 5.55 0 0 0-4.48 1.21 18.66 18.66 0 0 0-.89 4.52c0 .63-1.16 2.59-1.19 3.53a5.44 5.44 0 0 0 .8 3.07 4.86 4.86 0 0 0 1.88.58s-.58.52-1.33 1.06a3 3 0 0 0-.71 2.75 11.82 11.82 0 0 0 2.11 3.66 8.3 8.3 0 0 1 1 2.05 17.25 17.25 0 0 0 .9 2.09s.92 6.14 6.12 3.05c1.42-.84 3.75-2.21 3.93-2.4s1-.62.9.36.21 7 .31 8.33a45.92 45.92 0 0 0 1.87 6.86c.54 1.52 2.85 7.22 3.2 7.72s.65.72.81-.62a4.9 4.9 0 0 1 1.81-3.24 8.32 8.32 0 0 1 4.62-.18c1.4.37 1.51.08 1.51.08a26.53 26.53 0 0 0-2-3.19c-.46-.39-7.34-15-7.34-15l-.73-2.78a6.73 6.73 0 0 1-.37-2.1c.1-2.12 2.19-3.08 3-3.9a2.65 2.65 0 0 1 1.88-.75c.16-.05 2.94-.2 3.73-.71s2.29-1.77 2.29-1.77 3.18-.14 4.17-.27A7.23 7.23 0 0 0 154 93a25.36 25.36 0 0 0 4-.69 26.88 26.88 0 0 0 5.65-2.13 7.34 7.34 0 0 1 3.62-1.18c.8.13 1.25.42 1.23 1.25a5.72 5.72 0 0 1-.05.83zM130 90.81a31.82 31.82 0 0 1-6.3-.22c-.76-.28-3.13-1.54-3.41-2.19s-.17-1.69.35-1.95 2.45.22 3.81.54 7 2.95 7 2.95c1.13.74-.4.74-1.45.87z" fill="#fd8204"/><path d="M169 88.87a12.72 12.72 0 0 0-.53-2.67 9.55 9.55 0 0 0-1.66-3.2 5.57 5.57 0 0 0-2.21-1.73 3.94 3.94 0 0 0-.06-1.16 5.22 5.22 0 0 0-1.13-2.62 6.45 6.45 0 0 0-2.32-1.58 38.34 38.34 0 0 1-3.44-1.74 8.57 8.57 0 0 1-2.32-1.95 3.9 3.9 0 0 0-2-1.27 4.16 4.16 0 0 0-2.39.58 8 8 0 0 0-2.8 3.46c-.83 2-1.44 3.87-1.74 4.82a25.23 25.23 0 0 0-.83 3.9c-.08.91-.06 2.63-.17 3.13s-.63 1.64-1.29 1.61a18.81 18.81 0 0 0-1.94.22 9.09 9.09 0 0 0-2.68 1.17c-.41.25-.53.14-.53.14a21.89 21.89 0 0 1-2.21-1.06l-1.21-.64c-3.26-2-4.2-4.35-5.88-6.24s-2.38-2-4.56-2.75-5.36-.26-6.1.42-1.27 3-1.32 4.41a10 10 0 0 1-.5 2.65 5 5 0 0 0-.88 2 5.52 5.52 0 0 0 .93 2.56 3.39 3.39 0 0 0 1.52 1.23 3 3 0 0 0-1.58 1.93 5.65 5.65 0 0 0-.08 1.2 7 7 0 0 0 .07 1.16 3.91 3.91 0 0 0 1.09 2.28 22.81 22.81 0 0 1 2.08 2.77 28.17 28.17 0 0 1 1.07 4c.07.24.1.51.17.68a2.34 2.34 0 0 0 1.8 1.55 6.86 6.86 0 0 0 3.28-.19c.14 0 1.59-.69 1.59-.69a11.73 11.73 0 0 0 1.27-.72c1.13-.72 2.15-1.6 2.41-1.78s.22.17.22.17a28.48 28.48 0 0 0-.1 4.43 66.78 66.78 0 0 0 1.1 6.88 56.89 56.89 0 0 0 2.43 7.62c1 2.48 2.64 5.44 3 5.56s.47-.11.5-.4.26-1.26.47-2.67a3 3 0 0 1 1.2-2 2.73 2.73 0 0 1 1.18-.3 10.26 10.26 0 0 1 2.87.17c.69.16 1.1.27 1.32.35.49.17 1 .27 1.19 0s.05-.78-.54-1.53-3.76-6.49-4.09-7c-1.65-3.13-3-6.52-3.62-8-.37-.86-.85-1.74-1.35-3.14a20.29 20.29 0 0 1-.7-2.89 5 5 0 0 1 .36-3 5 5 0 0 1 2.79-2.34c.23-.15.45.09.95.14a15.32 15.32 0 0 0 3-.47 6.2 6.2 0 0 0 1.61-.77 2.44 2.44 0 0 0 .86-1c.08-.3 1.38-.59 2.3-.57s8.34 0 9.36 0c.64 0 2.73-.1 4.35-.18 0 0 2.23-.15 2.51-.18a4.64 4.64 0 0 0 2.55-.84 3.57 3.57 0 0 0 1.44-2.92l-.08-1zm-51.07-2a8.84 8.84 0 0 0 .69-2.68 7.66 7.66 0 0 1 .63-3.16c.37-.63 1.47-1.08 4.23-.83a8.29 8.29 0 0 1 5.79 3.24c1 1.35 3 4 5 5.15s3.87 1.64 3.46 1.76a6.66 6.66 0 0 1-1.34.19 13.85 13.85 0 0 1-2.69-.49 23.77 23.77 0 0 1-3.46-1.41 65 65 0 0 0-6.55-2.49c-2.38-.66-3.64-.33-4.59.2-1.37.78-1.16.51-1.16.51zm13.34 3.51a8.52 8.52 0 0 1-1.56.14 35.73 35.73 0 0 0-3.66.12 5.82 5.82 0 0 1-3-.81c-.73-.33-2.35-1.3-2.5-2a.88.88 0 0 1 .42-1 12.13 12.13 0 0 1 2.4.22 56.27 56.27 0 0 1 6.6 2.35c.77.25 1.83.81 1.31.97zm-13.73.15c-.42-.7-.3-1.7.53-2.81a2.59 2.59 0 0 1 1.65-.81 1.66 1.66 0 0 0 .14 1.39 4.23 4.23 0 0 0 1.71 1.55 16.11 16.11 0 0 0 2.21 1.08 18.25 18.25 0 0 0-3.86 1.07l-.25.11a3.15 3.15 0 0 1-2.12-1.59zm4.57 13a9.46 9.46 0 0 0-2.17-4.1 7.79 7.79 0 0 1-1.84-3.22 2.55 2.55 0 0 1 .32-1.76c1.62-2.39 4.42-2.25 6.47-2.67a45.69 45.69 0 0 1 8.63-.13 15.05 15.05 0 0 0 4.5-.54c.46-.17.88-.35 1.32-.07a2.08 2.08 0 0 1 .67 1c-.46.13-1.62.51-2.67.94a7.22 7.22 0 0 0-3.07 2.02 8.57 8.57 0 0 0-1.19 2.6c-.23.83-.76 2.22-.76 2.22a6.08 6.08 0 0 1-2.14 2.4 14.28 14.28 0 0 1-4.85 1.29c-2.68.34-2.46 1-2.75 1.13s-.36-.36-.46-1.13zm6.48 2.83c-2.68 1.18-4.17 1.37-5.12.75s-1-1.41-.08-2.14 4.37-.69 6-1.42a6.84 6.84 0 0 0 2.47-1.74l.1-.12h.06a1.49 1.49 0 0 1 .14 1.22 6.17 6.17 0 0 1-3.56 3.44zm12-11.27c.07.54-.2.8-1.07 1.14a7.17 7.17 0 0 0-2.34 1.6 4.45 4.45 0 0 0-1.22 2.67 9.38 9.38 0 0 0 .2 2.81 31.43 31.43 0 0 0 1.58 4.67c.62 1.37 2.06 4.75 2.63 6.19a53.82 53.82 0 0 0 2.72 5.06c.71 1.26 2.12 3.54 2.37 3.83s1 1-.4.33-4.18-.16-4.79.13a3.45 3.45 0 0 0-1.48 2.11 17.31 17.31 0 0 1-.45 2.31c-.16 0-.35-.37-.58-.9s-2.67-6.52-3.37-8.91a44.08 44.08 0 0 1-1.35-8.18 31 31 0 0 1 .24-7s.42-2.48.42-2.55a9.9 9.9 0 0 1 .52-2.31 7.3 7.3 0 0 1 2.51-4 9.5 9.5 0 0 1 3.49-1.46 2.84 2.84 0 0 1 .23.86c.1.39.13 1.05.19 1.59zm5.44-1.66c0 .87-.26 1.2-.45 1.33a1.27 1.27 0 0 1-.35.17 18.07 18.07 0 0 1-3.64.77c-.36 0-.22-.94-.3-1.86a4.35 4.35 0 0 0-.28-1.32 4.86 4.86 0 0 0-.65-1.36c-.22-.28-.46-.62-.15-.8a7.17 7.17 0 0 1 2.38-.93c1.2-.22 1.88-.26 2.29.16a5.58 5.58 0 0 1 .8 1.39 7.38 7.38 0 0 1 .41 2.44zM162.46 78a5.07 5.07 0 0 1 1.32 3.23 11.62 11.62 0 0 0-2.56.4c-1.25.32-5.39 1.75-6.16 2a26.06 26.06 0 0 0 1.83-2.28c1-1.36 2-2.71 2.59-3.35a2 2 0 0 1 2.98 0zm-16.68 10.5c-.12-.07.19-.51.38-1.36.23-1 .08-2.29.64-5.07a31.7 31.7 0 0 1 2.45-7.18c.58-1 2.06-2.79 3.46-2.69s2.11 1.31 3 2.38 3.19 1.37 3.63 1.87-.19.43-.82 1-2.55 2.9-3.86 4.57-2.41 2.88-2.36 2.85c-.42.24-3.63 1.72-3.76 1.8-.96.6-2.64 1.9-2.76 1.83zm2.29 4.5c-.7 0-1.14.13-1.16 0a8.48 8.48 0 0 0-.15-1.32 14.15 14.15 0 0 0-.58-2c-.11-.28-.12-.36.41-.68 5.6-3.41 10-4.79 10.88-5.36a16.64 16.64 0 0 1 4.53-1.46 4.86 4.86 0 0 1 3.63.9 7.22 7.22 0 0 1 2.07 3.69c.28 1.25.31 1.9.22 1.89s0-.24-.91-.36a5 5 0 0 0-2.2.54s-.63.31-2.56 1.38a11.56 11.56 0 0 1-3.08 1.39s-3.31.77-4.7 1.05c-2.83.27-5.7.34-6.4.34zm20.05-2c-.5.89-1.23 1.45-3.35 1.81a86.6 86.6 0 0 1-8.82.76c-1.61 0-1.53-.2-1.42-.32a19.7 19.7 0 0 1 2.23-.28s2.86-.5 4.07-.91a22.46 22.46 0 0 0 3.39-1.86 5.92 5.92 0 0 1 2.8-.9 1.1 1.1 0 0 1 1.1 1.7z" fill="#692f23"/><path d="M165 109.35c-.18-.59-3.24-5.92-4.11-7.28a45.91 45.91 0 0 0-4.26-5.7c-1-.89-5.56-4.56-6.35-5-.31-.19-2.48-.19-4-.52l.48 2.85 1.24 1.53s7.26 14.41 7.28 15a26.53 26.53 0 0 0 1.25 3.58s.3.09.87-1.24a8.32 8.32 0 0 1 3-3.53 4.9 4.9 0 0 1 3.66.57c1.12.7 1.14.33.94-.26z" fill="#fd8204"/><path d="M163.27 105a56.85 56.85 0 0 0-4.51-6.61 66.73 66.73 0 0 0-4.76-5.07 12.52 12.52 0 0 0-3.16-2c-.72-.35-4.14-1.09-4.75-.75l.11.59a10.19 10.19 0 0 1 2.13.29 13.25 13.25 0 0 1 5.45 3.09 44.08 44.08 0 0 1 5.61 6.1c1.45 2 4.67 7.63 4.94 8.14s.43.88.35 1-1.22-.69-2.09-1.07a3.46 3.46 0 0 0-2.58-.14c-.6.3-2.72 2.21-3.05 3.7s-.43.48-.5.11-1-2.88-1.56-4.22a53.83 53.83 0 0 0-2.31-5.26c-.78-1.33-2.55-4.56-3.25-5.89-.88-1.67-1.88-3.49-2.72-4l.17 1.3c.07 0 .28.34.3.37.64 1.31 1.11 2.49 1.56 3.31.77 1.4 2.62 4.55 4.06 7.78.23.59 2.84 6.81 3 7.55.23.93.61 1.34.88 1.37s.53-.47.7-1c.07-.22.24-.61.54-1.25a10.27 10.27 0 0 1 1.64-2.37 2.74 2.74 0 0 1 1-.74 3 3 0 0 1 2.33.3c1.23.7 2.14 1.11 2.39 1.27s.5.21.63-.14-1.22-3.38-2.55-5.76z" fill="#692f23"/><path d="M130 131.89c0-.35 1.09-1.4 1-2.51a2.6 2.6 0 0 0-.66-1.59c0-.17.22-.37.31-.79a2.59 2.59 0 0 0-.72-2.47 3.36 3.36 0 0 0-2.86-.81c-.3 0-3.27.24-4.41.26l-1.47-.13c.36-.44.57-.91.32-1-.47-.2-.75-.08-.68-1.17a.33.33 0 0 0 0-.16c-.09-.55.06-3.24-.18-5.26a3.92 3.92 0 0 0-1.71-3c-.34-.24-2.81-1.56-3.15 1.47a15.8 15.8 0 0 1-2 6.33c-.86 1.62-3.46 3-4.8 3.7a3.76 3.76 0 0 1-3.18.4 1.35 1.35 0 0 1-.84-.84 9.75 9.75 0 0 1-2.59.62 4.84 4.84 0 0 0-1.42.79c-1.22 1-2.35 3.34-2.86 4.89v8.82a6.51 6.51 0 0 1 1.1.15 6.29 6.29 0 0 1 2.28.54 13.91 13.91 0 0 1 4.31.5 45.59 45.59 0 0 0 8.59.72 31 31 0 0 0 5.38.08 19.65 19.65 0 0 0 3-.35 8.94 8.94 0 0 0 1.9-.43c.57-.24 1.09-.42 1.09-.42l1.46-.73a5 5 0 0 0 1.33-1.31c.44-.72.24-1.08.55-1.44a6.84 6.84 0 0 0 1.18-3.56c-.06-.71-.27-.95-.27-1.3zm-13.24-2.24c.42.48 2 .67 4.07.7a29.57 29.57 0 0 0 6.57-.48c1.16-.39 1.73-1.16 2-1s0 1 0 1c-.59 1.68-1.16 2.27-3.52 3a34.94 34.94 0 0 1-8.78.72c-.6-.07-.79.39-.4.6a19.62 19.62 0 0 0 7.1.49 13.39 13.39 0 0 0 4.92-1.31 1.66 1.66 0 0 1-.07 1.79c-1.74 1.84-4.49 2.13-6.49 2.38s-4.67 0-4.82.11-.09.29.83.6a19.86 19.86 0 0 0 6 .25c1.35-.28 2.16-1.07 2.64-.74s-.2.92-.2.92a4.44 4.44 0 0 1-.55.39 10.71 10.71 0 0 1-4.1 1.2c-.76.11-1.41.14-1.92.18a12.46 12.46 0 0 1-1.57.05c-.76 0-8.09-.17-8.73-.17-1.16 0-4.85-.72-6.35-1a11.56 11.56 0 0 1-4.11-1.48c-.27-.3-.46-3.52-.15-5.38a15.39 15.39 0 0 1 2.23-5.32 4 4 0 0 1 2.36-1.37 7.3 7.3 0 0 0 4.59.61c2.66-.49 2.57-.73 5.23-2.81s2.72-5 3.15-6.24.28-3.64 1.71-3.39 1.35 2.9 1.53 4.43a26.19 26.19 0 0 1 .06 3.95 1.15 1.15 0 0 1-.35.87 15.31 15.31 0 0 1-2.38.42c-.85.14-1.28.48-1.28.66s.05.24.36.28c.68.08 3.16.47 4.37.49a47 47 0 0 0 6.26-.15 2.39 2.39 0 0 1 2.51 1.06c.16.36.07 1.14-.93 1.82s-2.45 1.33-6.47 1.4-4.4 0-4.8 0-.98-.01-.57.47z" fill="#693023"/></g></g></svg>