<svg xmlns="http://www.w3.org/2000/svg" width="100" height="100" viewBox="0 0 100 100"><title>НГ-серитификат</title><g data-name="Слой 2"><g data-name="Слой 1"><path fill="none" d="M0 0h100v100H0z"/><rect x="19.06" y="26.89" width="65.33" height="45.49" rx="1.79" ry="1.79" fill="#f5f3ef" stroke="#782b0e" stroke-linejoin="round"/><path fill="#ff8200" stroke="#782b0e" stroke-linejoin="round" fill-rule="evenodd" d="M18.75 41.55V53l26.42-26.42H33.72L18.75 41.55z"/><path d="M29 34.92s.26 2.67-2.54 9.12c-2.46 5.67-4.51 6.85-4.51 6.85s-.83-2.52-1.46-4.65a26.57 26.57 0 0 0-1.19-3.34s2.79-2.77 5.39-5.59 2.93-3.8 2.93-3.8zM29.82 34.92s-.26 2.67 2.54 9.12c2.46 5.67 4.51 6.85 4.51 6.85s.83-2.52 1.45-4.65a27.4 27.4 0 0 1 1.18-3.34s-2.79-2.77-5.39-5.59-2.93-3.8-2.93-3.8z" fill="#ff8200" stroke="#782b0e" stroke-miterlimit="10"/><path d="M28.25 32.4a12 12 0 0 0-5.5-6c-4.22-2.24-6.4-2.29-6.4-2.29a58.33 58.33 0 0 0-.73 8.29 54.94 54.94 0 0 0 .73 8s2.18-.05 6.4-2.22a11.75 11.75 0 0 0 5.5-5.82zM31 32.4a12 12 0 0 1 5.5-6c4.22-2.24 6.4-2.29 6.4-2.29a58.33 58.33 0 0 1 .73 8.29 54.94 54.94 0 0 1-.73 8s-2.18-.05-6.4-2.22a11.75 11.75 0 0 1-5.5-5.76z" fill="#ff8200" stroke="#782b0e" stroke-miterlimit="10"/><rect x="27.15" y="29.92" width="5" height="5" rx=".59" ry=".59" fill="#ff8200" stroke="#782b0e" stroke-miterlimit="10"/><path fill="none" stroke="#782b0e" stroke-linecap="round" stroke-miterlimit="10" stroke-width=".8" d="M32.37 31.85l2.97-1.08M32.35 33.26l2.91.72M26.76 31.85l-2.97-1.08M26.78 33.26l-2.91.72"/><path fill="none" stroke="#dad6cc" stroke-linecap="round" stroke-miterlimit="10" d="M30.14 61.43h32.37M32.31 58.75h32.37M32.31 64.11h32.37"/><path d="M67.15 28.5c0 2.71-3.12 9.25-3.12 9.25s-3.12-6.54-3.12-9.25 1.4-4.91 3.12-4.91 3.12 2.2 3.12 4.91z" fill="none" stroke="#782b0e" stroke-linejoin="round" fill-rule="evenodd"/><rect x="59.8" y="33.53" width="8.72" height="5.2" rx="1" ry="1" fill="#dad6cc" stroke="#782b0e" stroke-linejoin="round"/><circle cx="64.16" cy="56.64" r="19.77" fill="#ff8200" stroke="#782b0e" stroke-miterlimit="10"/><path fill="none" stroke="#f5f3ef" stroke-linecap="round" stroke-miterlimit="10" d="M49.91 63.34l5.92 4.42M55.76 63.42l-5.79 4.26M52.87 62.12v6.87M51.95 44.34l5.92 4.42M57.8 44.42l-5.79 4.26M54.91 43.12v6.87"/><path fill="none" stroke="#f5f3ef" stroke-linecap="round" stroke-miterlimit="10" stroke-width=".75" d="M62.36 70.6l3.73 2.79M66.05 70.65l-3.65 2.69M64.23 69.83v4.33"/><path fill="none" stroke="#f5f3ef" stroke-linecap="round" stroke-miterlimit="10" d="M73.67 53.26l5.92 4.42M79.52 53.34l-5.79 4.26M76.63 52.04v6.87"/><path fill="none" stroke="#f5f3ef" stroke-linecap="round" stroke-miterlimit="10" stroke-width=".75" d="M59.75 55.46l5.14 3.83M64.83 55.53l-5.02 3.69M62.32 54.4v5.96M67.91 43.08l5.11 3.81M72.96 43.15l-4.99 3.67M70.47 42.02v5.93M74.06 65.2l3.29 2.46M77.32 65.24l-3.22 2.37M75.71 64.52v3.82"/></g></g></svg>