<svg xmlns="http://www.w3.org/2000/svg" width="100" height="100" viewBox="0 0 100 100"><g data-name="Слой 1"><path fill="none" d="M0 0h100v100H0z"/><path d="M39.92 58.87c-9.14 2.09-15.75 8-15.75 14.46 0 .24 0 .47.06.71a66.52 66.52 0 0 0 23.67 4.2A66.5 66.5 0 0 0 71.56 74c0-.24.06-.47.06-.71 0-6.61-6.73-12.22-16.08-14.23" fill="#fd8204" stroke="#692f17" stroke-miterlimit="10"/><path d="M51.86 60.93v10.79A1.29 1.29 0 0 1 50.57 73h-4.5a1.29 1.29 0 0 1-1.29-1.29V60.93" fill="#f5f4f0" stroke="#692f17" stroke-miterlimit="10"/><path d="M41.25 59C29.72 57 21.8 50 21.8 39.31c0-11.23 11.44-24.41 26.86-24.41s26.86 13.18 26.86 24.41c0 10-8.24 17.49-19.65 19.75" fill="#dbc19f" stroke="#692f17" stroke-miterlimit="10"/><path d="M40.76 56.12v2.59c0 1.43 3.29 2.59 7.35 2.59s7.35-1.16 7.35-2.59v-2.59" fill="#f5f4f0" stroke="#692f17" stroke-miterlimit="10"/><path d="M48.11 57.53c-10.73 0-19.45-7.76-19.45-17.3a15.48 15.48 0 0 1 1.63-6.89 13.76 13.76 0 0 0 6.62 1.74 12 12 0 0 0 2.09-.17h.23l.12-.21c.71-1.26 2.2-3.78 2.92-5 .82 1.2 2.58 3.77 3.8 5.41l.13.18h.22c1.41.14 2.89.2 4.38.2a52.51 52.51 0 0 0 15.12-2.24 15.51 15.51 0 0 1 1.68 7c-.03 9.52-8.76 17.28-19.49 17.28z" fill="#f2e3d0"/><path d="M42.26 30.6c.91 1.32 2.32 3.37 3.36 4.77l.26.36h.44c1.43.14 2.92.21 4.43.21a53.3 53.3 0 0 0 14.86-2.13 15 15 0 0 1 1.44 6.38c0 9.26-8.5 16.8-19 16.8s-19-7.54-19-16.8A14.91 14.91 0 0 1 30.52 34a14.28 14.28 0 0 0 6.4 1.55 12.49 12.49 0 0 0 2.14-.18l.47-.08.23-.41c.6-1.05 1.74-3 2.51-4.31m-.06-1.86s-2.36 4-3.32 5.68a11.45 11.45 0 0 1-2 .17 13.2 13.2 0 0 1-6.83-1.95 16.12 16.12 0 0 0-1.93 7.59c0 9.83 8.94 17.8 20 17.8s20-8 20-17.8a16.13 16.13 0 0 0-1.93-7.59A51.53 51.53 0 0 1 50.77 35c-1.45 0-2.9-.06-4.34-.2-1.63-2.19-4.23-6-4.23-6z" fill="#692f17"/><path d="M54.21 49.48a19.72 19.72 0 0 1-6.54 1 20.12 20.12 0 0 1-6.21-.92" fill="none" stroke="#692f17" stroke-linecap="round" stroke-miterlimit="10" stroke-width=".8"/><path d="M50.73 52.49a9.85 9.85 0 0 1-3 .42 10.06 10.06 0 0 1-2.82-.38" fill="none" stroke="#692f17" stroke-linecap="round" stroke-miterlimit="10" stroke-width=".7"/><path d="M49.78 46.54a14.48 14.48 0 0 1-2 .13 14.93 14.93 0 0 1-1.9-.11" fill="#fff" stroke="#692f17" stroke-linecap="round" stroke-miterlimit="10" stroke-width=".7"/><path d="M43 41a6.28 6.28 0 0 0-4-2 6.28 6.28 0 0 0-4 2" fill="none" stroke="#692f17" stroke-linecap="round" stroke-miterlimit="10" stroke-width=".8"/><ellipse cx="39" cy="40.97" rx="1.77" ry="1.6" fill="#692f17"/><path d="M60 41a6.28 6.28 0 0 0-4-2 6.28 6.28 0 0 0-4 2" fill="none" stroke="#692f17" stroke-linecap="round" stroke-miterlimit="10" stroke-width=".8"/><ellipse cx="55.98" cy="40.97" rx="1.77" ry="1.6" fill="#692f17"/><circle cx="64.86" cy="71.76" r="13.33" fill="#f5f4f0" stroke="#692f17" stroke-miterlimit="10"/><path d="M57.82 69c0-1.81.88-3.28 2.82-3.28s2.72 1.53 2.72 3.35-.86 3.12-2.8 3.12-2.74-1.35-2.74-3.19zm3.85 0c0-.66 0-2.09-1-2.09s-1.16 1.37-1.16 2.09 0 1.91 1.06 1.91 1.09-1.15 1.09-1.85zm6-3.47h1.41l-6.85 12.4h-1.45zm1.54 5.74c2.06 0 2.72 1.46 2.72 3.27s-.86 3.2-2.8 3.2-2.74-1.46-2.74-3.27.86-3.14 2.8-3.14zm-.07 5.22c1 0 1.09-1.29 1.09-2s0-2-1-2-1.13 1.21-1.13 2-.04 2.07 1.03 2.07z" fill="#fd8204"/></g></svg>