<svg xmlns="http://www.w3.org/2000/svg" width="300" height="250" viewBox="0 0 300 250"><title>график</title><g data-name="Слой 2"><g data-name="обслуживание по графику"><path fill="none" d="M0 0h300v250H0z"/><path d="M262.61 179.14l-186.61.1H31.66c-.48 0-.77.19-.78.54s.43.48.78.47h230.73s.82.07.83-.52-.61-.59-.61-.59z" fill="#692f23"/><path fill="#dbe4e1" d="M124.02 25.79h50.18v96.58h-50.18z"/><path d="M124.17 25.83h29.06l-5.51-7-96.59.17v108.31H47v6.05h102.55l5.26-11h-30.64zm-14.38 96.34h-50V25.59h50z" fill="#ededed"/><path fill="#e0dede" d="M174.17 25.82h-20.94l20.94 26.77V25.82zM174.17 81.73l-19.42 40.67h19.42V81.73z"/><path fill="none" stroke="#692f23" stroke-miterlimit="10" stroke-width="1.5" d="M124.03 25.61h50.19v96.58h-50.43l.24-96.58z"/><path fill="none" stroke="#692f23" stroke-miterlimit="10" stroke-width="1.5" d="M140.28 21.98H55.71v105.09h80.95l-1.45 6.29H46.95v-6.05h4.18V18.98h90.98"/><path fill="none" stroke="#692f23" stroke-miterlimit="10" stroke-width="1.5" d="M114.41 22.06h4.73v105.01h-4.73z"/><path fill="#dbe4e1" d="M59.23 26.14h50.18v96.58H59.23z"/><path fill="none" stroke="#692f23" stroke-miterlimit="10" stroke-width="1.5" d="M59.76 25.61h50.19v96.58H59.52l.24-96.58z"/><path fill="#dbe4e1" d="M169.96 121.97h-50.18V25.39h50.18z"/><path d="M169.81 122h-30.58l5.26 11H247v-6.05h-4.18V18.59l-96.59-.2-5.51 7h29.06zm14.38-96.8h50v96.57h-50z" fill="#ededed"/><path fill="#e0dede" d="M119.81 25.43h20.94L119.81 52.2V25.43zM119.81 81.34L139.23 122h-19.42V81.34z"/><path fill="none" stroke="#692f23" stroke-miterlimit="10" stroke-width="1.5" d="M169.95 25.22h-50.18v96.58h50.42l-.24-96.58z"/><path fill="none" stroke="#692f23" stroke-miterlimit="10" stroke-width="1.5" d="M153.7 21.59h84.58v105.09h-80.96l1.46 6.29h88.25v-6.05h-4.18V18.59h-90.97"/><path fill="none" stroke="#692f23" stroke-miterlimit="10" stroke-width="1.5" d="M174.84 21.67h4.73v105.01h-4.73z"/><path fill="#dbe4e1" stroke="#692f23" stroke-miterlimit="10" stroke-width="1.5" d="M234.47 121.73h-50.18V25.15h50.18z"/><path fill="none" stroke="#692f23" stroke-miterlimit="10" stroke-width="1.5" d="M234.35 25.15h-50.19v96.58h50.42l-.23-96.58z"/><path fill="#e0dede" d="M65.99 138.75h85.35v32.29H65.99z"/><path fill="none" stroke="#692f23" stroke-miterlimit="10" d="M73.96 138.44v32.72M82.1 138.51v32.65M90.23 138.99v32.17M98.37 138.99v32.17M106.5 138.99v32.17M114.63 138.99v32.17M122.77 138.99v32.17M130.9 138.5v32.66"/><path d="M122.66 138.45c-.27 0-56.78-.48-56.78-.48S65 138 65 139.2v32.11a1.37 1.37 0 0 0 1.49 1h81.55l-.16-1.22H67s-1 .05-1-1.81v-29.35s0-1.06.9-1.12l.9-.05 55 .74z" fill="#692f23"/><path fill="#e0dede" d="M224.28 171.05h-85.35v-32.29h85.35z"/><path fill="none" stroke="#692f23" stroke-miterlimit="10" d="M216.3 138.44v32.72M208.17 138.51v32.65M200.03 138.99v32.17M191.9 138.99v32.17M183.76 138.99v32.17M175.63 138.99v32.17M167.5 138.99v32.17M159.36 138.5v32.66"/><path d="M167.6 138.45c.27 0 56.78-.48 56.78-.48s.85 0 .85 1.22v32.11a1.37 1.37 0 0 1-1.49 1h-81.55l.16-1.22h80.86s1 .05 1-1.81v-29.35s0-1.06-.9-1.12l-.9-.05-55 .74z" fill="#692f23"/><path d="M137.47 6.92s6.49-2.66 7.66-3.36 6.73-2.19 10.48-2.19 8.21-1 10.25-.78a6.4 6.4 0 0 1 3.36 1.49s2.35.08 4.3 0 4.93 1.25 5.71 1.49l9.5 2.82c1.56.47 3.75 2.82 5.79 3.83s12.47 10.95 13.41 14 5.47 9.15 5.94 11.26 2.68 14.22-.87 19.62-9.59 13.22-13.11 14.9-7.43 4.93-8.37 5.47-7 2.74-9.85 2.74h-4.46a15.5 15.5 0 0 0-3 .55c-.39.16-.55-3.83-.55-3.83s-9.62 2.82-16 2.35A79.59 79.59 0 0 1 146 75.43s2.39 3.4 1.76 3.95-4.65.63-6.37.39-8-2.07-8-2.07l-3.68-1.76a47.62 47.62 0 0 0-4.38-2.85c-.47-.08-9.54-10.87-11-13.61s-2.74-9.07-2.82-14.16a47.92 47.92 0 0 1 3.25-16.66c2.11-5.79 7.7-12.28 10.21-13.77s9-5.16 9-5.16z" fill="#e09c51"/><path d="M152.36 22.22a11 11 0 0 0-2.36 3.13c-.5 1.29-.79 6-1.26 6.69s-1.79.85-2.67.76a7.66 7.66 0 0 1-2.43-1.2c-.12-.06-5.78 1.7-6.45 1.76s-7.77 1.73-8.24 1.85-3.52.76-3.67.82a6 6 0 0 0-3 3.72 6.74 6.74 0 0 0 .29 4.66 4.83 4.83 0 0 0-1.79 2.26 8.6 8.6 0 0 0 1.26 5.46c1 1.14 4.37 3 4 2.82s1.32 3.61 4.28 7.83 7 8.62 15.43 12.14 20.15 1.82 20.44 1.79a33 33 0 0 0 12.67-4.46s6.6-4.84 8.48-6.75 5.69-6.57 6.48-8.45a10.79 10.79 0 0 0 .82-2.29s2.38.23 4.11-2.87.79-6.72-.62-7.48-4.11-.21-4.9-.06-2.76-1.61-3.26-3.75-5.78-7.39-5.78-7.39a32.13 32.13 0 0 1-6.19-.12c-2.35-.41-6.92-.94-8.65-1.44s-7.42.26-8.53.53-5 2.11-5.28 1.85-.15-1.64-.15-2.23-3.03-9.58-3.03-9.58z" fill="#fbdfcb"/><path d="M147.13 46.46A3.43 3.43 0 0 0 146 44.1a4.48 4.48 0 0 0-3.27-1.29c-.86 0-4.48-.31-5.06 0a14.15 14.15 0 0 0-2.48 2.35c-.68.76-.06 1.29.33 1.51s1.78 1.32 2.8 1.34a30.88 30.88 0 0 0 4.5-.15c.9-.2 2.6-.9 3.25-.92s.93-.22 1.06-.48z" fill="#fff"/><path d="M144 43.2a2.51 2.51 0 0 1 .7 2.17 3.61 3.61 0 0 1-2.7 2.4c-1.29.25-2.84-.5-3-1s-1.14-2-.89-2.71 4.16-3.73 5.89-.86z" fill="#abd2f0"/><path d="M164.67 46.46a3.43 3.43 0 0 1 1.17-2.37 4.48 4.48 0 0 1 3.27-1.29 25.71 25.71 0 0 1 5 .63 9.42 9.42 0 0 1 2.58 1.7c.68.76.06 1.29-.33 1.51a9.17 9.17 0 0 1-3.05.9c-1 0-3.34.49-4.24.29s-2.6-.9-3.25-.92-1.05-.2-1.15-.45z" fill="#fff"/><path d="M168.68 43.26a2.51 2.51 0 0 0-.7 2.17 3.61 3.61 0 0 0 2.7 2.4c1.29.25 3.15-.16 3.32-.68s.84-2.33.59-3.05-4.19-3.72-5.91-.84z" fill="#abd2f0"/><path d="M113.15 33.72a29.42 29.42 0 0 0 4.11-4.4c1.23-1.88 4.16-7.21 7-9.85s3.7-3.64 4.75-4.34l-2.76 6s2.05-2.7 3.87-3.4a10.73 10.73 0 0 1 2.58-.76 36.33 36.33 0 0 0-2.7 4.84c-.41 1.29-.47 7-.41 8s.29 2.52.29 2.52.7-6.86 3.23-10.62 3.93-6.92 9.62-10 6.8-3.23 7.74-3.05 0 1.94 0 1.94a59.9 59.9 0 0 0-2.58 6 19.78 19.78 0 0 1 3.4-4 35.35 35.35 0 0 1 4.28-3.23s-2.57 7.4-2.57 9.68 1.1 8.95 1.1 8.95l1.11 2.93a24.78 24.78 0 0 1 1.64-10.62C159 15 160 10.08 164.07 8.85a5.84 5.84 0 0 1 7.16 2.7 25 25 0 0 1 1.58 4.75s.18-4.11.06-5 1.29-1.11 2.05-.88a13.16 13.16 0 0 1 7 5.51c2.4 3.93 3.28 10.27 3.28 10.27s1.29-7.92.41-9.44-3-5-4.63-6.34c0 0-.35-1.53 2.17-1.06a17.32 17.32 0 0 1 6.63 2.29s-3-2.58-4.46-3.75-8.21-5-8.56-5.22a28.38 28.38 0 0 0-4.19-.68l-2.7-.12-2.16-1.13-7.92.88-2.93-.53-10.1 1.76-7.68 3.46-7 4.93-3.28 1.23-7.8 6.75s-5.81 7.33-6 8.27-2.11 6.34-2.11 6.34zM116.94 37s-2.7 8-2.23 14.14 3.46 13.55 4 14.08-2.58-2.11-2.76-2.23a64.58 64.58 0 0 1-3.64-9.33c-.53-2.4-.82-8.27.35-10.73s3.7-5.63 4.28-5.93z" fill="#e9b87f"/><path d="M212.43 115.22c-.34-1.53-6-16.81-6.9-18-1.61-2-23.78-17.05-23.78-17.05a54.75 54.75 0 0 0-8.38-1.17l-.55-4.54a8.84 8.84 0 0 1-3.05 1.41 109.2 109.2 0 0 1-12 1.41c-2.19 0-10.71-1.56-10.71-1.56l.23 3.91-1.64.23a56.34 56.34 0 0 0-6.65 2.06 74.62 74.62 0 0 0-7.59 4.3c-6.12 6.67-12 8.88-16.09 14.53a30.8 30.8 0 0 0-5.4 17.89c.15 3.51 1.67 6.51 2.05 9.68 1 8.33 5.75 11.15 13.61 12.55 2.76.49 4.55-3.77 5.46-3.28 1.5.81 1 6.72 1.35 11.56.63 7.74.63 11.18 0 15.25s25.46 2.38 25.85 2.54 10.95.23 11.26.31a102 102 0 0 0 11.11-.94c2-.47 12.51-3.05 13.92-3.21s1.17-1.8 1.41-3.83a5.78 5.78 0 0 0-.7-3.68v-4.28s1.37-3.59.59-5.46 5.29 2 5 .87c0-.18 3 4.26 5.63-2.16.9-2.22 3.54-4.36 2-10.68-.25-1 1.3-2.16 2.06-5.22a7.11 7.11 0 0 1 .33-2.51c.33-.94 1.8-8.32 1.58-10.93z" fill="#fff"/><path d="M145.7 206.23c-.4.3 2.7 13.37 2.7 13.37s6 2.58 10.44 2.23 5.4-2.58 5.4-2.58a13.41 13.41 0 0 0 1.88 1.88c.7.47 12-.94 12-.94s3.87-1.17 3.87-1.53 2.46-6.34 2.46-6.34.59-6 .23-6.57-4.46 1.41-7 1.41-6.57.12-8.56-1.06-3.4-2.11-3.4-2.11-3.64 2.58-7 2.93-7.16.23-9.85-.82-2.7-.22-3.17.13z" fill="#d2a274"/><path d="M134.55 217.84s4.81-.47 7.16.47a99.91 99.91 0 0 0 11.29 3.17c1.53.23 5.87.82 9.15-.7s3.52.82 3.52.82l7.86-.94c2-.23 7.74-1.29 10-.59s4.93 3.87 5.75 4.69 4.22 5.28 3.52 7.63-4 5.4-7.86 5.63-13.37 1.41-16.42.82-3.64-2.35-4.58-5.28l-.94-2.93a25.79 25.79 0 0 1-5.75.94c-2.46 0-13.14 3.05-16.78 3.05-.79 0-1.68 0-2.59-.06-3.26-.15-11.33-6.53-11.36-6.85a9.27 9.27 0 0 1 1.51-6c1.36-1.87 2.97-3.04 6.52-3.87z" fill="#efb000"/><path d="M155.79 167.18s10.56.35 12.44.23 9.5-.12 14.66-1.28 8.21-2.43 8.8-.23 1.06 10.32 0 13a14 14 0 0 0-.69 6.1c0 1.28.7 12.87-1.06 15.19s-2.11 4.29-6.69 5.22-5.87 2.2-9 1.74-5.28-.35-6.57-1.74a14.44 14.44 0 0 0-2.35-2.09s-1.06 2.2-4.58 3-5.87 1.62-10.21.12a20.36 20.36 0 0 1-6.1-3s-3.28-4.75-4-9-.35-13.1-.35-13.1l-2.09-6.17s-2.52-6.57-.18-8.66 17.97.67 17.97.67z" fill="#fd8204"/><path d="M188.75 165.29s.29 6.1.35 7.74a32.12 32.12 0 0 1-.12 6.69 42 42 0 0 0-.65 7.39c.06 1.53.41 8.56-.12 10.09a25.61 25.61 0 0 1-1.29 3 8.59 8.59 0 0 1 .18 3.05c-.29.94 1-.12 1.53-1.23s1.53-1.64 1.82-4.22a95.54 95.54 0 0 0 .41-11.79c-.23-1.29.59-7.1.76-7.92s.47-9.74.35-11.73-2.28-3.18-3.22-1.07z" fill="#e16702"/><ellipse cx="141.74" cy="120.96" rx="5.09" ry="6.13" fill="#fd8204"/><path d="M180.07 166.64s.53 3.93 1 5.69 1.76 6.8 1.47 9.62a68.67 68.67 0 0 0-.65 8.21c0 3.28.35 8.09.29 9.91s.12 3.58-.41 4.87 3.4-2.58 3.4-2.58.29-10.38.47-13 1.06-6.28 1.06-9-1.29-7.8-1.53-10.15a17.85 17.85 0 0 1 .35-4.93zM171.21 167.69s1.64 7.45 2.46 11.26.59 10.56 1.17 14 .53 5.92.82 8.33.88 5.69.88 5.69 2.93-.12 3.4-.76-.7-11.67-1.06-13.55.06-7-.23-9-1.65-10.45-2.04-11.66a16.06 16.06 0 0 1-.23-4.87c.17-.44-5.17.56-5.17.56zM163.12 167.79s1.06 6.26 1.29 7.36 1.94 8.28 2.46 10.31 1 10.43 1.11 12.63.7 6.83 2.64 8.28a3.9 3.9 0 0 0 3.58.81 24.28 24.28 0 0 1-1.88-7.41c-.65-5-.53-10.14-.94-12.28s-1.58-11.58-2.7-14.13a15.84 15.84 0 0 1-1.06-5.73zM157 167.75s1 5.1 1.29 6.69 1.94 8.56 2.29 10.5 1 7.39 1.53 10.56 1.23 6.16 1.11 7.8a10.57 10.57 0 0 1-.29 2.17l-3.23 1.35s0-.88-.18-3.11-1.53-9.09-1.88-11.5-1.58-11.79-2-13.61-1.53-9.44-1.17-11 2.53.15 2.53.15zM150.45 167s2.76 15.39 3.17 16.5.7 5.69 1.23 8.86 1.53 9 1.94 10.68 1.11 3.46.76 4-3.17.06-3.17.06a15.06 15.06 0 0 1-2.7-6.51c-.47-3.64-1.23-10.73-1.58-13.2s-3.81-21.14-3.81-21.14a28.06 28.06 0 0 1 4.16.75zM141 165.44s3.34 12.69 3.93 13.86a14.61 14.61 0 0 1 1.41 4.28c.35 1.94-.23 5.46.47 8.68s1.82 9.8 3.17 12.2 2.11 2.29 2.11 2.29a51.92 51.92 0 0 1-5.92-2.23c-1.64-.88-3.23-11.44-3.46-14.14s-.06-7.86-.47-8.62-4.34-13.86-3.93-15.45 2.69-.87 2.69-.87z" fill="#e16702"/><path d="M131.17 129.51c0-.18.65-5.22 1.94-7.1a6.67 6.67 0 0 1 3.58-2.7c.35 0 .76.82 1.82.65s2.05.65 4.11-.7 3.28-1.17 4.58-3.87.82-7.1 2.4-7.33a2.48 2.48 0 0 1 2.64 2.58c.06 1.35.35 6.75.35 6.75s2.4.59 2.7 1.88a7.23 7.23 0 0 0 1.53 2.64c.35 1.53 1.06 5.4.06 7.63a6.82 6.82 0 0 1-5.46 4.4 48 48 0 0 1-11.5.35c-2.4-.41-7.1-1.76-7.39-1.7s-1.48-2.19-1.36-3.48zM172.13 148.6s.89-3.05 2-4 5.72-3.94 5.72-3.94 2-1.59 4-.91 5.05 1.8 5.82 3.61 2 3.82 1.92 4.71a31.29 31.29 0 0 1-1.83 4.62c-.19.36-3.15 4-5.29 4.38a14.73 14.73 0 0 1-3.27-.14c-.58-.26-1.78-.84-1.59-1.25s1.88-2.65 1.88-2.65-.87-5.87-1.35-6.06a7 7 0 0 0-2.31-.1c-.22.07-4.52 2.16-4.52 2.16s-.93.89-1.18-.43z" fill="#fbdfcb"/><path d="M97.39 205.64a40.42 40.42 0 0 0 .7 7.67c.28 1.23 2.85-1.49 3.57-1.14 5.19 2.53 14.17 7.81 13.85 9-.49 1.78 15.65-3.35 18.44-4.65s8.27-4.57 8.27-4.57 1.11-6.85 1.54-7.79-.38-2-.63-2.74-3.37-13-3.37-13l-3.66-1a12.55 12.55 0 0 1-1.49 2.07c-.26.07-9.36-1.64-9.81-1.64s-5.68-1.59-5.87-1.68-2.21-8.37-2.21-8.37-.43-.58-.58-.58-14.81 7.65-14.81 7.65-4 3.92-4.09 4.14a9.09 9.09 0 0 0-1.64 6c.4 3.49 1.79 10.63 1.79 10.63z" fill="#efb000"/><path d="M123.23 172.1s.82 1.65 1.6 1.51a19.65 19.65 0 0 0 3.24-1.6 21.34 21.34 0 0 1 4.26-1 13.87 13.87 0 0 1 3 .64 13 13 0 0 1 2.34 1.06c0 .21 1.91 6.09 1.83 6.86s-.26 1.81-.26 2.66.4 4.09-.67 5-1.2 1.73-3.27 2.28-9.27-1-9.56-1.19-6.78-1.28-7.25-2.15-1.39-9.67-1.38-9.88 5.58-5.29 6.12-4.19z" fill="#9e9b95"/><path d="M190.7 152.64s7.31 4.81 8.75 6.35 1.92 4.33 2 7-1 3.66-2 5.19a6.84 6.84 0 0 1-2 2.12l-3.09 1.7-2.4 1.15-1.06 6.64a9.15 9.15 0 0 0 3.75-.58c2.26-.77 7.41-2.5 9.62-4.71s4.09-6 5.1-9.91.38-10.15-.58-11.74-3.13-6.59-6.83-7.89-3.75-3-3.75-3-3.35 3.1-3.94 2.89-2.21.77-2.5 1.06-2.03 2.28-1.07 3.73zM104 198.24a4.17 4.17 0 0 1 .19 4.43c-1.35 2.4-2.65 2-3.66 1.92s-6.4-.1-9.33-2.6a11.34 11.34 0 0 1-4.2-8.47 9.53 9.53 0 0 1 3.37-6.73 33.94 33.94 0 0 1 10.58-5.48 68.6 68.6 0 0 1 13.66-1.92c1.54.1 16.55.77 16.55.77l8.91 1.17s.08 2.29.13 2.87-.14 2.93-.67 3-3 .58-3 .58-10.58-2.07-15-2-14.67-.48-19.82 1.73-6.15 4.38-5.71 6.49 1.15 3.08 2.31 3.37 5.69.87 5.69.87z" fill="#c7c0b1"/><path d="M117.49 221.9s-2 2.65-1.25 4.23 1.52 2.57 2.31 2.65a5.64 5.64 0 0 0 2.6-.48 2 2 0 0 0 1.15-1.68c0-.94 0-1.71-.1-2.74a3.54 3.54 0 0 0-.87-2.36c-.4-.29-2.87-.68-3.84.38zM143.76 204.15a8.55 8.55 0 0 0-1.35 4.63c.1 2.53-.88 4.94.06 5.61a6.4 6.4 0 0 0 3.46 1.22c1.28 0 2.2.34 2-.38s-2.5-10.57-2.44-10.68-1.73-1.1-1.73-.4z" fill="#5e5e5e"/><ellipse cx="141.16" cy="146.21" rx="4.39" ry="5.29" transform="rotate(-9.46 141.22 146.268)" fill="#fd8204"/><path d="M191.89 86.31a4.62 4.62 0 0 1-3.58 4c-2.48.41-4.89-1.67-5.38-4.65a6.17 6.17 0 0 1 .45-3.59c.62-1.37 8.62 3.55 8.51 4.24zM179.95 131.45a5.31 5.31 0 0 1-2.8-5.22 5.39 5.39 0 0 1 6-4.7 5.56 5.56 0 0 1 3.32 1.57c1.12 1.1-5.9 8.69-6.52 8.35z" fill="#fd8204"/><ellipse cx="161.26" cy="130.46" rx="4.57" ry="5.51" fill="#fd8204"/><ellipse cx="174.5" cy="104.18" rx="5.09" ry="6.13" fill="#fd8204"/><ellipse cx="166.85" cy="150.22" rx="4.27" ry="5.15" transform="rotate(-14 166.86 150.24)" fill="#fd8204"/><path d="M211.07 127.09A5.1 5.1 0 0 1 208 132c-.38.13-5.34-6.32-5.13-6.94a4.34 4.34 0 0 1 3.93-3.14c2.36.03 4.27 2.33 4.27 5.17zM205.68 144.6c0 2.34-.87 3.66-2.64 4.29-.26.09-6.35-2.61-4.56-4.4s-.19-3.51.44-4.06a3.78 3.78 0 0 1 2.49-1c2.36.03 4.27 2.33 4.27 5.17z" fill="#fd8204"/><ellipse cx="129.03" cy="106.7" rx="4.75" ry="5.72" fill="#fd8204"/><ellipse cx="145.96" cy="85.15" rx="5.72" ry="4.75" transform="rotate(-63.62 145.953 85.15)" fill="#fd8204"/><path d="M118.37 135.17a6.62 6.62 0 0 1-1.83 2.27c-1.5 1.18-5.17-8.66-4.15-9.24a4.49 4.49 0 0 1 4.26-.27c2.35 1.17 3.13 4.41 1.72 7.24z" fill="#fd8204"/><path d="M146.74 47.31c.31 0 1.08.21 1.3 0s.59-.47.16-1.26a9.59 9.59 0 0 0-2.78-3 6.79 6.79 0 0 0-4.72-1.38c-1.26 0-3.53.21-4.53.85a6.73 6.73 0 0 0-2.09 2.71 1.14 1.14 0 0 0 .24 1 4.08 4.08 0 0 0 .85.8 15.28 15.28 0 0 0 3.22 1.34 14.61 14.61 0 0 0 5.31 0c1.16-.3 2.73-1.06 3.04-1.06zm-2.26-.5a2.17 2.17 0 0 0 .57-1.42 3.4 3.4 0 0 0-.44-2.13 6.25 6.25 0 0 1 2.17 2.29c.34.72.35 1.11.16 1.2s-.82-.32-1.26-.25a4.07 4.07 0 0 0-1.07.43c-.08.01-.17-.01-.13-.12zm-5.7.73a3.64 3.64 0 0 1-1.17-.19 9.16 9.16 0 0 1-1.79-1.22.8.8 0 0 1-.22-.55c0-.28.44-.91.92-1.51a3.46 3.46 0 0 1 1.24-.88c.44-.19.62-.14.56 0a3.17 3.17 0 0 0-.5 1.83 3 3 0 0 0 1.2 2.26s.08.23-.24.26zm4.27-.71a3.5 3.5 0 0 1-2.72.13 2.24 2.24 0 0 1-1.33-1.5 2.49 2.49 0 0 1 .19-1.89.83.83 0 0 1 .38-.3.48.48 0 0 1 .26 0c.37.16.26.32.23.4a2.25 2.25 0 0 0 0 1.52 1.66 1.66 0 0 0 1.42.94 1.37 1.37 0 0 0 1.42-1 1.55 1.55 0 0 0-.13-1 .53.53 0 0 1 .67-.67c.63.21.75 1.08.72 1.57a1.87 1.87 0 0 1-1.16 1.79zM177.78 46.44c.33-.41-.08-.76-.42-1.17a17.38 17.38 0 0 0-2.31-2.12 6.9 6.9 0 0 0-2.62-1 9.09 9.09 0 0 0-5.66.13c-1.39.62-2.6 3.09-2.7 3.72a2 2 0 0 0 0 1c.15.65.83.47.85.48a7.14 7.14 0 0 1 1.9.19c.61.16 2.42.65 3.19.84a11.19 11.19 0 0 0 4.27-.17 6.84 6.84 0 0 0 3.5-1.9zm-9 .94c-.57-.15-2.21-.84-2.77-.92a1.2 1.2 0 0 0-.64.07c-.34 0-.19-.48-.19-.48l.25-.54a5.74 5.74 0 0 1 1.58-1.7 5.46 5.46 0 0 1 1.48-.79c-.05.11-.29.33-.39.51a3.34 3.34 0 0 0-.31 1.63 3 3 0 0 0 1.09 2.23zm5.1-2.16a2.31 2.31 0 0 1-1.41 2 2.66 2.66 0 0 1-3.24-1 2.08 2.08 0 0 1-.1-2.27s.16-.26.36-.26a.92.92 0 0 1 .66.21c.17.16 0 .46-.12.84a1.22 1.22 0 0 0 1 1.55 1.33 1.33 0 0 0 1.7-1.06c0-.36.08-.92.54-.92s.73.15.6.91zm2.76.91a14.77 14.77 0 0 1-2.26 1.18.23.23 0 0 1-.12 0c-.21-.1.35-.47.6-1.56a3.27 3.27 0 0 0-.06-1.83c.48.33 1.37 1 1.81 1.37s.18.65.02.84zM153.22 56.28a6.89 6.89 0 0 0 4.39 1.11 3.1 3.1 0 0 0 2.66-1.29c.53-.62 0-.51 0-.51s-.51.37-3.34.43a7.62 7.62 0 0 1-4-.68c-.84-.5-.41.33.29.94zM172.46 60.48c-.61-.08-5.53 2.3-5.8 2.38s-3.48 1.68-10.18 1.39-10.59-1.72-11.25-2a6.4 6.4 0 0 0-2.58-.86 4 4 0 0 0-1.82 1.07.4.4 0 0 0 0 .57c1.39.88 1.25-.66 2.07-.61a26.36 26.36 0 0 1 5.1 1.91 28 28 0 0 0 8.59 1.82c3.3 0 6.09-.09 8.81-1.25 2.87-1.23 5.84-3.24 6.11-3.3a1.48 1.48 0 0 1 1.07.29c.41.27.66.31.88-.27s-.4-1.06-1-1.14zM164.22 67.67a31.06 31.06 0 0 1-7 .66c-4.12-.16-6.05-.59-6.37-.47s0 .31 0 .31 1 1.58 6.5 1.6 7.02-2.01 6.87-2.1zM169.93 36.84a19.07 19.07 0 0 1 3.57.63 27.53 27.53 0 0 1 4 1.76c.31.18.88.34.44-.1a9.91 9.91 0 0 0-2.74-2.36 8 8 0 0 0-5.57-.91s-.62.09-.67.47.43.4.97.51zM140.18 37.33c.56-.13.82-.09.92-.18s.15-.25-.41-.44a5.28 5.28 0 0 0-3-.29 8.63 8.63 0 0 0-4.15 2.43s-.54.5-.47.6.31 0 .69-.25 2.84-.82 3.41-1 2.46-.73 3.01-.87z" fill="#692f23"/><circle cx="151.41" cy="79.76" r=".73" fill="#692f23"/><circle cx="155.59" cy="78.75" r=".73" fill="#692f23"/><circle cx="159.41" cy="81.14" r=".73" fill="#692f23"/><circle cx="163.63" cy="78.97" r=".73" fill="#692f23"/><circle cx="167.76" cy="80.14" r=".73" fill="#692f23"/><circle cx="171.46" cy="77.45" r=".73" fill="#692f23"/><circle cx="160" cy="85.56" r=".73" fill="#692f23"/><circle cx="155.76" cy="88.92" r=".73" fill="#692f23"/><circle cx="160.8" cy="93.28" r=".73" fill="#692f23"/><circle cx="155.73" cy="97.15" r=".73" fill="#692f23"/><circle cx="160.8" cy="101.16" r=".73" fill="#692f23"/><circle cx="165.58" cy="96.59" r=".73" fill="#692f23"/><circle cx="165.28" cy="104.5" r=".73" fill="#692f23"/><circle cx="165.47" cy="87.9" r=".73" fill="#692f23"/><circle cx="138.51" cy="162.34" r=".8" fill="#692f23"/><circle cx="145.62" cy="157.42" r=".8" fill="#692f23"/><circle cx="151.37" cy="163.59" r=".8" fill="#692f23"/><circle cx="157.42" cy="158.94" r=".8" fill="#692f23"/><circle cx="176.83" cy="163.51" r=".8" fill="#692f23"/><circle cx="189.1" cy="161.44" r=".8" fill="#692f23"/><path d="M186 185.41c-.43-.27-3.44 1.8-4.65 2.27s-4.65 1.6-4.65 1.6c.2 1 3.88.14 5.55-.43a8 8 0 0 0 3.16-1.87c.93-.71 1.01-1.3.59-1.57zM189.6 151.42z" fill="#692f23"/><circle cx="169.97" cy="44.54" r=".84" fill="#fff"/><path d="M171.91 151.89l-4.42 4.53s-.19 1 1.12 1.44a9.41 9.41 0 0 1 3.36 2.61c.08.27.37 1 2 .11s6.34-6.07 6.39-6.23 1.78-2.4 1.39-3.94-1-3.08-1.54-3.49-5.27.65-8.3 4.97zM115.09 220.36l-12.09-7.8a6.19 6.19 0 0 0-4 .52c-2.26 1-7.46 2.95-7.67 3.09s-1.6 1.32-1.07 2.15a8.72 8.72 0 0 0 2.74 2.89c1.25.67 37 24.69 37 24.69a3 3 0 0 0 1.86 0c.82-.37 8.88-5.37 9.24-5.83s1-1.22.46-2S122.25 224 122.25 224z" fill="#c7c0b1"/><path d="M162.26 165.65l5.75-7.55s2-.52 3.05.83-.67 3.05-1.07 3.8-47.19 59.91-47.28 60-1.23 1.9-.21 3.13 3.61 3.16 2.84 4.55-4.65 3.84-4.65 3.84-6.27-3.61-6.93-3.94-7.78-5.86-7.78-5.86a15.61 15.61 0 0 1 2.77-3c1.08-.67 3.36 0 4.37.14s5.26-.41 6.15-1.24 42.99-54.7 42.99-54.7z" fill="#c7c0b1"/><path d="M92.73 220.57l-2.47-2.26s-1.63.84-1.42 1.72a3 3 0 0 0 1.39 2.08c.83.48 38.52 26.21 38.52 26.21a3.42 3.42 0 0 0 2.08.59c1.12-.11 9.7-5.49 9.7-5.49s1.25-2.9 1.33-3.3-.21-.69-1.49 0S131 246 131 246a56.17 56.17 0 0 1-5.22-3c-1.08-.88-33.05-22.43-33.05-22.43z" fill="#c7c0b1"/><circle cx="139.94" cy="44.22" r=".84" fill="#fff"/><path d="M214.79 35.52c-.56-1.93-4.69-8.85-4.69-8.85a52.84 52.84 0 0 0-5.21-7.18c-2.37-2.49-10-9.81-12.51-11.69a16 16 0 0 0-5.74-2.55l-2.21-.73a42.46 42.46 0 0 1-6.41-2c-1.8-.9-5.78-1.91-7.77-1.17-2-1.64-5-1.41-5.74-1.37s-2.66.47-3.32.51-4.1.35-6.68.27a29.85 29.85 0 0 0-8.36 1.45A47.78 47.78 0 0 0 138 6s-6.72 4.1-10.43 6.52a41.2 41.2 0 0 0-9.16 8.48c-1.21 1.8-4.06 6.56-4.06 6.56a31.8 31.8 0 0 0-2.66 7.23 68.36 68.36 0 0 0-.82 11.44 44 44 0 0 0 1.63 8.79 66.82 66.82 0 0 0 2.5 6.86 19.11 19.11 0 0 0 3.06 4.12c1.52 1.33 4.06 4.69 5.08 5.47s4.61 3.63 5.43 4.14 3 1.05 3.4 1.33a24.76 24.76 0 0 0 3.83 1.91c1.05.31 4.3.94 4.3.94a21.06 21.06 0 0 0 2.24.61l-2.45.91a20.82 20.82 0 0 0-6.71 3.11l-.78.61c-.4.35-4.17 3.81-4.84 4.55s-3.9 3.46-4.69 4.07-3.37 1.9-4.37 2.87a24.27 24.27 0 0 0-4.25 5.07c-.85 1.73-2 3.16-2.23 4a30.76 30.76 0 0 0-1 4.16c0 .82-.85 4.19-1.11 5.65a27 27 0 0 0-.32 5.13 9.11 9.11 0 0 0 .94 4.25 18.5 18.5 0 0 1 1.49 3.75c.29.88.76 4.31 1 5.54s.82 2.29 2.7 3.72a6.14 6.14 0 0 0 3.6 1.38 5.51 5.51 0 0 0 2.64 2.23 8.55 8.55 0 0 0 3.72.12c.62-.12 2.4-.23 2.4-.23a3.56 3.56 0 0 0 1.81-.6 4.08 4.08 0 0 0 1.23-2.08c.14-.85.28 5 .32 6.35a.38.38 0 0 0 0 .21s.37 6.48.45 7.38.27 3.2.23 4.34.35 5.35.39 6.21a5 5 0 0 0 .35 2.23c.35.66 1.17.62 1.87 1s1.21 2.51 1.69 4.91L132 170c-.72-.19-6.81 2.28-7.31 2.89 0 0-.89-1.76-1.49-1.78s-3.13 1.54-4.47 2.65a26.72 26.72 0 0 0-2.16 2.34l-.68.16a20.41 20.41 0 0 0-3.51 1.73c-.51.19-2.09.19-3.66.38a2.84 2.84 0 0 0-2.09 1.16C97.75 181 93.24 183.62 89.4 187a9.13 9.13 0 0 0-2.69 9.38 13.1 13.1 0 0 0 5.63 7.07c1.31.72 3.8 1.06 4.09 1.73s.26 3.92.63 6c.1.59.23 1.19.38 1.76-3.1 1.18-7.36 2.89-7.69 3.46a3.39 3.39 0 0 0-.3.72c-.36.85-.91 2.19-1 2.57a1.76 1.76 0 0 0 .49 1.79c.56.44 40.65 28.33 40.65 28.33s.74.54 2.08-.18 9.23-5.94 9.23-5.94a3.81 3.81 0 0 0 1.29-2.23 5.56 5.56 0 0 0 .17-3.08 9.39 9.39 0 0 0-2.44-2.91h.31s3.16-.41 4.8-.76 4.86-1.35 7.32-1.76 7-.7 8.38-1l1.35-.29a8.7 8.7 0 0 0 2.29 5.8c2.46 2.75 8.14 2 9.08 1.93s6.74.06 9.26-.18 6-1.05 7.68-2.34 3.11-2.87 2.87-5.74-.18-4.1-2.81-6.39c0 0-1.76-1.23-2.46-1.64s-1.58-1.76-2.29-2.17a9.51 9.51 0 0 0-2.64-1.05c-.59-.06-.35-1.17.12-1.46s1.11-2.29 1.58-4.28.29-5 .64-6.15a4.53 4.53 0 0 1 .88-2.11 7.71 7.71 0 0 0 4.57-5.51c1-4.1.7-14.65.7-15.76v-.42c.47-.19 1.91-.82 3-1.23a46.77 46.77 0 0 0 7.63-3.27 16.32 16.32 0 0 0 6.65-7.87 28.74 28.74 0 0 0 1.56-11.43 18.51 18.51 0 0 0-1.31-5.39 19.1 19.1 0 0 0-4.61-6.26c.06-.07 1.08-1.19 2-2s.77-2.87 1.6-3.75 1.68-1.12 2.05-2.79a9.2 9.2 0 0 0-.48-4.91c-.42-.73.65-3.29 1-4.81.43-1.86 1.92-8 2.05-8.75a38 38 0 0 0 .38-6.61c-.19-1.67-1.36-4.89-1.41-6.41a19.73 19.73 0 0 0-2.21-6.7c-1.27-2.57-3.75-5.15-5.19-6.77a104.73 104.73 0 0 0-10.34-8.59l-.17-.11c-2.23-1.36-5.53-3.52-6.35-3.91-1-.49-6.21-2.84-6.87-3-.28-.28-.7-.86.47-.93a33.2 33.2 0 0 0 9.11-2.4c.24-.12.44-.22.61-.32a48.56 48.56 0 0 0 7-3.87c3-2.14 4.92-3.43 6.39-4.31a19.21 19.21 0 0 0 4.51-4.39s2.14-1.7 4.72-6.94 2.17-10.87 2.34-12.63a33 33 0 0 0-.89-8.32zM176.22 3c1.68.27 6.41 3.75 6.41 3.75a29.42 29.42 0 0 1 6.37 4.31 68.22 68.22 0 0 1 6.65 8.41c1.23 1.85 3.43 8.67 3.43 8.67a40.56 40.56 0 0 1 1.08 7.59c0 3.28.29 4.22-.73 3.66s-4.48-2.81-7.15-3.28h-.23a20 20 0 0 1-3.91-1 3.78 3.78 0 0 1-2.87-3.57c-.05-1.15.74-7.71.91-9.11s.39-3.87-.31-5.9-3.87-5.59-5.59-7.38a68.2 68.2 0 0 0-8.12-6.44s.05-.4 4.06.29zM152 77.22c.88.58 2.53 4 2.85 4.78h-.15a31.86 31.86 0 0 1-3.15-.86 5.08 5.08 0 0 1-2.34-1.6l-.11-.13zm-3.41 1.17a4 4 0 0 1-.08-1.87c.51.1 1.19.22 2 .33zm16.89 14.31c-.7.76-4.28 3.51-4.6 3.76A26.14 26.14 0 0 1 156 93.2l4.21-3.47.28.13a28.57 28.57 0 0 0 5.78 1.86 5.77 5.77 0 0 1-.79.98zm1.29 0l.12 3.25-.07 2.61a27.09 27.09 0 0 1-4.65-1.29zm-6.49-4.7c-2.36-1.35-4.33-2.67-5.58-4.54 0 0-.1-.21 0-.32.41.06 2 .23 3.16.39a22.84 22.84 0 0 0 5 .07c.68-.12 2-.22 3.09-.32-.64.46-2.57 1.87-3 2.28S161.36 87 160.28 88zm2.43-8.19c-.17-.23-1.36-1.47-1.72-1.85 1.11 0 3-.11 5-.37-.1.24-.38.88-.52 1.19s-1.66 2.52-1.66 2.52c-.23-.36-.89-1.3-1.1-1.53zm0 2.33c-1 .09-2.17.18-3.08.17-1.09 0-2.3 0-3.48-.09.6-.76 3-4.14 3-4.14.92.49 3.24 3.57 3.58 4.02zm-7.06-1.17c-.27-.58-1.86-3.07-2.25-3.66 1.54.19 3.13.36 4.47.49-.32.59-2.2 3.13-2.2 3.13zM154.06 85c0-.32.06-.56.06-.56a14.79 14.79 0 0 0 4.88 4.67c-1 .9-3.43 2.68-4.24 3.27a12.65 12.65 0 0 0 0-2c-.21-1.02-.76-5.06-.7-5.38zm.63 9c.88.7 4 3.05 4.55 3.37.05 0 .13 0-1 .63-.56.26-2.82 1.3-3.1 1.45-.22-1.57-.44-4.91-.48-5.44zm2.56 7.95c-.31-.28-1.75-1.37-1.6-1.47s2.29-1 3.39-1.46a15 15 0 0 0 1.74-.87 20.51 20.51 0 0 0 5.07 2 18.29 18.29 0 0 1-2.54 2.69 9.76 9.76 0 0 1-2.58 1.58c-.29-.13-1.26-.48-3.48-2.48zm2.53 3.51c-.15 0-1.49-.48-1.58-.53h-.05a5 5 0 0 1-1.92-1.41 5.7 5.7 0 0 1-.62-1.69 34.19 34.19 0 0 0 4.37 3.33c.8.57-.05.32-.2.29zm1.38 0c.33-.12 2.06-1.24 2.54-1.56l3.1-3.09c.1.75.36 3.1-.18 4a4.23 4.23 0 0 1-2.31 1.31 9 9 0 0 1-2.84-.23c-.47-.12-.69-.26-.31-.4zm5.79-15a11 11 0 0 1-5-1.64l-.39-.22.63-.52 5.42-4.44a40.79 40.79 0 0 0-.66 6.87zM164.54 82a4.3 4.3 0 0 0 .69-.79 30 30 0 0 0 1.86-3.4c.1-.34.29-.34.29-.34.53 0 3.38 2.62 3.38 2.62A12.65 12.65 0 0 1 169 81a25.29 25.29 0 0 1-4.46 1zm4.46-5.11l.25-.08c1.26-.43 2.42-.84 3.3-1.17l.27 2c.12.86 0 1-.18 1.22a11.58 11.58 0 0 1-1 .79l-.34-.54a7.22 7.22 0 0 0-2.3-2.22zm-2-1.08a39.83 39.83 0 0 1-15.41-.06c-5.64-1.33-8.35-2.43-12.66-5.52a36.87 36.87 0 0 1-9-9.15 33.84 33.84 0 0 1-3.17-5.39s-.35-1.48-.62-1.64a17 17 0 0 1-2.64-1.43 13.91 13.91 0 0 1-2.17-3.69 3.76 3.76 0 0 1 .07-2.17 2.89 2.89 0 0 1 2.39-1.54c-1.25-1.72-.78-5.94-.78-5.94a3.09 3.09 0 0 1 .9-2c.86-.74 3.09-1.37 4.84-1.72s11.5-2.36 12.71-2.56 2-.43 2.15-.43a13 13 0 0 0 5.74.59s.31 0 .23-1.17 1.42-7.86 2.42-9.14a24.71 24.71 0 0 0 1.52 5.27c.51 1 1.21 5.78 1.41 6.21s.39.51 1.72 0a69.29 69.29 0 0 1 7.3-1.56c.78-.12 4.37-.82 7.15-.16a43.16 43.16 0 0 0 8.28 1.17 8.84 8.84 0 0 0 3.79-.51c.2 0 .47.94 1.17 1.64a12 12 0 0 0 2.11 1.48 12.5 12.5 0 0 1 1.74 1.61c.85 1 1 2.46 1.52 4.31a3.75 3.75 0 0 0 3 2.61c.88.18 1.14-.38 1.7-.59s1.08-.26 2.81.32a3.48 3.48 0 0 1 2.05 2.61s.73 4-2.49 6l-.06.1a7.32 7.32 0 0 1-2.67 1.46c-.67 2.84-2.4 5.1-5.36 8.5a41.19 41.19 0 0 1-7.09 6.21 43 43 0 0 1-5 2.73l-.21.12-.26.15c-2.72 1.59-7.04 2.69-9.13 3.29zm-42.57-42l.05-.07a5 5 0 0 0 1 1.55 7.93 7.93 0 0 0-3.48 3.84c-.62 1.84-.43 4.34-.62 4.53s-.16 0-.27 0a8.31 8.31 0 0 1-.83-1.87 24.15 24.15 0 0 1 .47-12.46 35.74 35.74 0 0 1 4.26-8c-.59 1.25-1.17 5.31-1.29 8a11.1 11.1 0 0 0 .75 4.45zm72.86 9.38c-1.52-.09-4.37.64-5.1 0-1.57-1.44-1.26-2.58-2.23-4.34a19 19 0 0 0-2.25-2.73l1.75 1.11a8.15 8.15 0 0 1 1.61 1 15 15 0 0 0 3.25 2.43 6.66 6.66 0 0 0 3.6.79A16.58 16.58 0 0 1 193 38s3.81-.06 5.62 1.73a7.1 7.1 0 0 1 2.58 5.51c0 1.37-.19 1.74-.34 1.82h-.11c-.34-2.32-1.92-3.81-3.42-3.89zm-36.81-40.7a4.06 4.06 0 0 1 1.91-.9 18.69 18.69 0 0 1 4.61-.11 3.27 3.27 0 0 1 1.94.91.46.46 0 0 0 .21.26s1.25.94 2.23 4.49 1.37 9.14 1 10.19c0 0 .27.74.78-3.28s-1.33-9.45-1.33-9.45-.66-1.33.82-.55 6.29 5 7.19 5.78a34.74 34.74 0 0 1 4.45 7c.78 1.87.59 5.9.59 5.9 0 1.67-.1 5.72-1.15 7.78-1.29 2.52-3.63 1.87-5.27 2a19.31 19.31 0 0 1-5.8-.64 9.35 9.35 0 0 0-2.52-.47l1.17-1.29c1.17-1.29 1.14-3.89 1.07-4.48-.42-3.21-.77-3.19-.77-3.19-.41.59 0 3-1.29 5.92s-3.75 2.93-6.15 3.11a44.75 44.75 0 0 0-6.33 1.23c-1.64.64-1.76-.21-1.76-.21s-.55-2.42-.82-3.36-1.05-3.36-1.33-4.92c-.24-1.34-.35-5.09-.38-6.11a33.88 33.88 0 0 1 1.67-7.29c1.24-3.2 4.21-7.5 5.26-8.32zm-9.34-.12C156 1.21 158 2 158 2c-2.19.78-4.26 3.2-6.48 5.86a18.32 18.32 0 0 0-3.63 7.27c-.43 1.72-.39 2.54-.16 2.54s.35-1.6 1.76-4.77A26.92 26.92 0 0 1 154 6.28a16.51 16.51 0 0 1 3-2.15c.74-.39 1.64-.55.78.43a35.4 35.4 0 0 0-4.14 7.38 15.24 15.24 0 0 0-1.25 6.65s-1.17 3.15-2 4.75A23.83 23.83 0 0 0 148.8 29c-.27 1.6.08 2.58-.39 3a4.31 4.31 0 0 1-3 .2c-.55-.31-1.29-.7-.66-2.66s.82-2.58.82-2.58a12.33 12.33 0 0 1-2.42 3.16 12.4 12.4 0 0 1-4.53 1.8c-2.27.51-5.59 1.64-5.82 1.72s-1.48 1-2.15-1.17-.9-7.58 0-10.08 3.52-7.19 4.61-8.28a33.48 33.48 0 0 0 2.54-2.62c.25-.4 4.12-4.14 4.72-4.72a1.18 1.18 0 0 0 .24-.16 19.77 19.77 0 0 1 8.39-4.23zm-12.3 4.8l-.12-.08c.09.07.16.11.23.08.31-.12 4.41-2.38 4.41-2.38L141 6.52a44 44 0 0 0-5.59 5.55 38.44 38.44 0 0 0-5.23 9.3 20.29 20.29 0 0 0-1.48 7.93c.12 1.68 1.17 3.36.86 4.45s-1.13 1.17-1.52 1.37-2.23-.78-2.73-2.42c-.15-.47-.27-.6-.38-.54a7.1 7.1 0 0 1-.36-3.41A25.83 25.83 0 0 1 130.21 15a36.75 36.75 0 0 1 8.63-7.82zm-23 20.94a30.52 30.52 0 0 1 7-10.47c4.8-4.45 7.73-5.47 7.73-5.47-.16.39-4.14 5.78-4.92 6.8a31.45 31.45 0 0 0-4.57 6.29 22.86 22.86 0 0 0-2.62 8 8.57 8.57 0 0 1-2.19 2.58c-1.48 1.17-2.85 4.3-3 4.57s-.78 1.64-.82.12 1.43-9.6 3.39-12.41zm.3 32.6c-.13-.23-.32-.53-.4-.72-.4-1-1.2-3.16-1.67-4a19.4 19.4 0 0 1-1.51-5.27c-.31-2.15-.39-7 .9-8.71s2.29-4.83 4.72-6.15c-.08.89-.12 1.73-.15 2.51A13.14 13.14 0 0 0 119.7 45l.19.44a9.2 9.2 0 0 0-1.79 4.05 28.36 28.36 0 0 0 0 10.12c.47 2.3 1.05 5 2.27 6.41a54.91 54.91 0 0 1-4.23-5.31zm17.7 16.23a7.7 7.7 0 0 1-4.53-3.48c-1.6-2.54-2.5-5-3-4.92s.08 1.41.47 2.34 2 3.55 3.52 4.37c0 0-1.13.27-3.28-1.76a26.14 26.14 0 0 1-5.31-6.87c-1.41-2.66-3.48-10.39-3.36-13.16 0 0 1.72 8.24 4.61 10.47 0 0-3.55-6.25-3.59-12.26 0-4 .46-5.22.79-5.61v.06a4.52 4.52 0 0 0 .17.65 9.09 9.09 0 0 0 .38 4 19.55 19.55 0 0 0 1.51 3c.14.37.48 1.3.72 2.06.31 1 1.29 4.18 1.64 5.23s3.09 7.11 5.78 9.73 5.82 6 6.48 6.41a7.44 7.44 0 0 1-3-.26zm5.27.78c-2.11-1.52-8.52-8.16-10.9-12.3a62.6 62.6 0 0 1-4.21-9.61c-.16-.39-.66-2.23.43-.74l1.09 1.48s1.51 2.39 4.32 6.27a57.75 57.75 0 0 0 9 9.13 41.61 41.61 0 0 0 6.45 3.45l.42.18a1.89 1.89 0 0 1 .72 1 11.79 11.79 0 0 1 .67 2.42c0 .31-.64.52-.64.52l-2.3-.08a8.91 8.91 0 0 1-5.04-1.72zm-12.95 62.06c-.26 0-1.11.67-1.85.64a8.22 8.22 0 0 1-3.46-1 6.93 6.93 0 0 1-1.87-2.93 27.18 27.18 0 0 0-1.82-3.66c-.12 0-.12.18-.06.73s1.05 3.78 1.05 3.78-.5 0-1.73-.91a6.48 6.48 0 0 1-2.23-3 17.7 17.7 0 0 1-.64-3.16 26.34 26.34 0 0 0-1-3.4 8.71 8.71 0 0 1-.82-4 4.82 4.82 0 0 1 1.58-3 22.66 22.66 0 0 1 5.39-6.24 11.13 11.13 0 0 1 7.47-2c.26 0 1.64 0 .53.38a16.69 16.69 0 0 0-4.28 2.67 9 9 0 0 0-1.42 3.22c-.12.82-1 2.72-.85 2.78s.38-.38.94-1.49 1.67-3.49 3.52-4.72a7.83 7.83 0 0 1 5.36-1.58c2.14.12 2 1 2.64 1.41a12.26 12.26 0 0 1 2.64 1.49 2.89 2.89 0 0 1 .94 2.34v.17l-2.11-1.79a5.66 5.66 0 0 0-1.43-.81 5.66 5.66 0 0 0-2.72.59 11.5 11.5 0 0 0-2.67 1.93c-.62.7-2.34 3.28-3.37 8a19.18 19.18 0 0 0 0 9.08c.35 1.9 2.84 4.48 2.84 4.48zm6.84-22.15l-2.76-.11v-.06l1.67-.7c.35.24 1.09.87 1.09.87zM128.91 139c-.06.44-.57 1-.9.83a2.45 2.45 0 0 1-.29-3.34c.56-.82 1.95-.67 2.42-.59-.07.1-1.14 2.66-1.23 3.1zm1.85-7.56a23.37 23.37 0 0 0 .79 3.19c.17.25-.44 0-.64-.05a.07.07 0 0 0-.06 0c-.35 0-2 .06-2.67.12a2.72 2.72 0 0 1-2.4-.76c-.82-.85-.85-2.11-.82-4.37a25.24 25.24 0 0 1 1.76-8.38 4.68 4.68 0 0 1 3.19-2.64v-.07c.72 0 3.87 0 4.57.17a2.49 2.49 0 0 1 1.46.73c.09.18-.82.06-2.05 1s-2.37 3.46-2.81 4.92a17.55 17.55 0 0 0-.32 6.13zm1.58.59c-.32.21-.44-3.37-.15-5.16a14.75 14.75 0 0 1 2.14-5.1 3.88 3.88 0 0 1 2.27-1.31 7 7 0 0 0 4.4.54c2.55-.47 2.46-.7 5-2.7s2.61-4.78 3-6 .26-3.49 1.64-3.25 1.29 2.78 1.46 4.25a16.26 16.26 0 0 1-.21 3.69h-.11c-.42.18-1.85.81-2.36 1.05-.67.32-1.11.41-1.11.79s.26.32.73.15a7.88 7.88 0 0 1 3-.7 3.8 3.8 0 0 1 2.9 1.46c.35.64-.06 1.46-.91 2a11.21 11.21 0 0 1-3.46.73c-.26 0-.47.26.06.47a2.56 2.56 0 0 0 1.73.15 7.71 7.71 0 0 0 3.13-1.11c.47-.47.94.29 1.08.79a1.87 1.87 0 0 1-.67 2.34 13.3 13.3 0 0 1-3.34 1c-.62.12-1.26.38-1.32.56s.21.32.76.41 2.23-.41 3.08-.47a9.91 9.91 0 0 0 1.7-.29 4 4 0 0 1-.21 2.14c-.44.85-.38 1.08-1 1.2s-3.49.47-3.93.67-.79.41-.64.64.82.06 1.41.06a22.71 22.71 0 0 1 3.08-.29c.21.18.12.67-.56 1.2s-.29 1.08-4.63 2a25.86 25.86 0 0 1-8 .32c-1.11 0-4.28-1.46-5.71-1.7s-3.93-.75-4.25-.56zm1.34 26.6c-.23-1.17-.82-2.19-.27-2.93s.43-1.21 3-1.21c.65 0 1.46 0 2.33.11-.53.67-4 5-4.89 6.39a18.13 18.13 0 0 0-.17-2.38zm2.5 6.37c-1.19 0-1.78.07-2-.49.09-.26.08-1.2.25-1.84.23-.86 4.71-7.23 5.29-7.38s.94.72 1.48 2.05 2 5.57 2.23 6.5a12.85 12.85 0 0 1 .25 1.44c-3.02-.18-6.68-.28-7.5-.28zm30.61-8a2.52 2.52 0 0 0 .34.82v.07a.24.24 0 0 1 0 .19l-.4.51a6.86 6.86 0 0 1-1-1.3c-.13-.22-.39-.62-.39-.62s-.47-.68.1-.66h1.74l-.13.14a1.11 1.11 0 0 0-.26.85zm30 2.39c0-.21 0-.74-.08-1.5h.06a8.17 8.17 0 0 1 3.21 4 12.13 12.13 0 0 1 .11 6.57 7.41 7.41 0 0 1-2.67 3.56 14.89 14.89 0 0 1-4.57 2.71c0-2.69-.09-6.94-.09-6.94l.12-2.7a7 7 0 0 0 .8-.05c.36 0 1.27-.09 1.77-.19s1-.23 1.21-.94a18.11 18.11 0 0 0 .14-4.48zm-1.24.5a2.17 2.17 0 0 1-1.61 2s-1.23-2.83-2.25-5.14a9.55 9.55 0 0 0-2-3.07s1.71.67 2.2.93l.75.38v.06a.8.8 0 0 0 .8.8.79.79 0 0 0 .49-.17 11.47 11.47 0 0 1 1.23.77 8.56 8.56 0 0 1 .4 3.49zm-.2-6.72a1.66 1.66 0 0 1-1.14.55c-.75 0-2.68-1.57-3-1.8s-.51-.67-.1-1.35a4.61 4.61 0 0 1 2.47-2.12 8.72 8.72 0 0 0 2.92-1.54c.64-.53.82-1.09 1.25-.93 0 0 .93.64.93 1.44s0 1-.87 2.63a10.39 10.39 0 0 1-2.34 3zm3-9.39c-.71.71-3 1.88-3.43 2.47a4 4 0 0 1-1.28 1.31 1.34 1.34 0 0 1-1.6-.29c-.35-.35-.21-1-.74-2.26a16.14 16.14 0 0 0-1.46-2.68 8.68 8.68 0 0 0-5.63-3.43 13.58 13.58 0 0 1-1.76-.26c-.35-.13-.26-.79.29-1.6s1.25-2.2 1.51-2.63a3 3 0 0 1 2.34-1.48 11.14 11.14 0 0 1 5.23 1c1.56.72 2.71 1.28 3.21 2.05s.63 1.83 1.41 2.69a12 12 0 0 1 2.21 3.08c.35.99.44 1.37-.27 2.08zm-13.6-3.59a10.78 10.78 0 0 1 3.59 2.79l.32.32s1.56 2.29 1.8 2.79a7.39 7.39 0 0 1 .64 2c0 .71-1.35 2.45-1.48 3.17a1.73 1.73 0 0 1-.22.59c.1-.28.18-.48.21-.56a7.17 7.17 0 0 1-.32.73l-.05.07v.09a8 8 0 0 1-4.26 3.64 15.89 15.89 0 0 1-4.36.35c-.84-.3-.29-.87-.21-1.06a9.31 9.31 0 0 0 1.85-1.33c.07-.11.16-.26.35-.53a1.76 1.76 0 0 0 .19-.37 1.69 1.69 0 0 0 .35-.48 13.85 13.85 0 0 0-.51-5 9 9 0 0 1-.66-2.27c-.05-.28-.33-.5-.47-.47s-.12.08-.21.2a5.93 5.93 0 0 1-.19-.6c-.13-.56-.85-1.15-.8-.32a1.56 1.56 0 0 1-.51 1.48c-.14.09-.8.25-1.67.56a8.8 8.8 0 0 0-3.35 1.76c-.35.14-1.41.53-1.52.27s-.14-.72.55-1.86a15.47 15.47 0 0 1 4.94-4c1.27-.46 2.53-1.83 3-2a5.47 5.47 0 0 1 3.04.09zM178 157.65l.28-.32a5.38 5.38 0 0 0 .39-.59l.17-.17a2.52 2.52 0 0 0 1.26 1.14 7.57 7.57 0 0 0 2.22.3.8.8 0 0 0 1.6-.09 4.69 4.69 0 0 0 .57-.15c.81-.27 2-.82 2.83-1.19a19.27 19.27 0 0 1-3.36 7.17s-.2.16-.9-.51c-.5-.52-3.28-3.45-5.06-5.59zm3.85 7.42c-2.58.37-5.2 1.16-8.21 1.34 0 0-4.71.25-5.77-.16l3.32-4.26a.87.87 0 0 1 .91-.19c1.62.54 4.33-2.25 5.43-3.59a51.17 51.17 0 0 1 5.31 6.08c.16.42-.37.64-.96.78zm-5.82-16.38a4.86 4.86 0 0 1 2.26-1.05 2.46 2.46 0 0 1 1.71.55 4.2 4.2 0 0 1 .46 1.19 3.65 3.65 0 0 1 .13 2.69 13.3 13.3 0 0 1-1.36 2l-.12.16-.14.17c-1.9 2.06-4.54 4.76-4.65 4.85s-1.18 1.18-1.6 1.16-.64-.67-1.19-1.54a6.3 6.3 0 0 0-2.08-1.62l-.19-.08a4.07 4.07 0 0 1-.74-.47c-.09-.13-.24-.14.49-.91s7.05-7.1 7.05-7.1zm-6.43 10.12a2.15 2.15 0 0 1 1.19 1.43 7.15 7.15 0 0 1-1.23 2.12c-.46.68-15.21 19.52-26.86 34.42 0 .07-1.07 1.39-1.83 2.35-5.46 7-10 12.75-11.55 14.8s-.56.66-.9.43a4 4 0 0 0-1.31-.81s-.8-.12-.65-.52 2.59-3.57 2.59-3.57l11.1-14.4 23.36-30.3 4.55-5.88a1.46 1.46 0 0 1 1.56-.07zm-19 51.09c3.57 1.23 11.89.12 11.89.12s-2.7 2.75-8.55 3c-4 .16-5.67-.61-6.34-1-.2-.87-.37-1.59-.46-1.93a7.92 7.92 0 0 1-.25-2.41c.48.67 1.3 1.38 3.76 2.23zm-3.22-3.49c3.31 1.41 8 2.49 12.21 1.53a18.36 18.36 0 0 0 3.43-1.24c.15 0 .35.07.44.31a7.15 7.15 0 0 1 .09 1.06c-2 1.13-7.15 2.14-11.28 1.35-3.18-.67-4.43-2.27-4.84-3.01zm.24 15.27c-.21-.78 3.1.1 3.48.23h.07c-.44.07-1.05.19-1.63.29s-1.65.26-1.87-.52zm1.57-2.75l-.88-3.85c1 .8 2.77 1.31 5.28 1.91 2.93.7 8.85-.35 8.38 0a10 10 0 0 1-1.87.82 23.29 23.29 0 0 1-10.84 1.19zm-1.79-2.61c.41 1.61.59 2.8.33 3.2-.47.7-5.27-2.05-9.61-2.11a22.27 22.27 0 0 0-4.84.4c2.66-1.3 6.83-3.79 7.39-4.08s.84-.53.91.1a2.44 2.44 0 0 0 1.83 1.92 10.17 10.17 0 0 0 3 .43 10.12 10.12 0 0 0 1.04.14zm-25.8 9a17.18 17.18 0 0 0 1 1.46c.85 1.19 2 2.62 2.09 2.86s0 .74-.47 1.39a6 6 0 0 1-1.92 1.79c-.94.53-1.39.84-1.87.76s-13-8.47-13.37-8.7-.56-.66.09-1.19c.47-.39 1.93-1.38 2.69-1.89.84-.7 2.14.5 6.38.42a4.12 4.12 0 0 0 1.69-.48c1.23-.64 6.68-6.58 6.68-6.58a2.33 2.33 0 0 1 1.71.27 1.42 1.42 0 0 1 .44 1.61c0 .13-1.08 1.4-2 2.46s-4.31 4.03-3.09 5.85zm-16.81-26.88c-.53-1.37-3.29-1.27-4.52-1.49s-2.65-.14-3.42-1.39-.19-4.3.38-4.43 1.88 1 4.71 2.26 9.76 2.16 15 2.21 11.16-1.42 13.13-2.4c0 0 5.46-2.5 6.11-2.89s2.33-1.23 2.65-1 .51.26.64.61c.19 1 .33 2.08.44 3l-15.23 19.58-1.29 1.6s-3.56 4.52-3.74 4.68a2.27 2.27 0 0 1-.64.44l-.55.22-1 .34a3.45 3.45 0 0 1-2.06 0c-.8-.39-10.43-6.71-12-7.58a3.81 3.81 0 0 0-2.76-.51l-1.56.57c-.31-1.31-.64-2.77-.8-3.82-.36-2.4 0-3.39.29-3.42s3.22 0 4.28 0 1.61-1 2-2a7.6 7.6 0 0 0-.01-4.54zm12.79-11.64a1.28 1.28 0 0 0 .77 1.15c.63.36 6.18.79 7.84 1.06s3.87.79 3.8 1.06-.19.58-1.2 1.2c-.26.18-2.47 1.6-7.86 2.1-5.77.53-12.17 0-15.63-1.08-2.86-.93-6.16-2.72-6.64-2.86a17 17 0 0 1 7.21-2.31c3.93-.4 9.36-.88 11.07-.92-.02.22.63.13.7.64zm2.35-.43c3.68.19 10.07.5 10.68.82.84.43 1.11.87.91 1.68-.67-.07-9.28-2.24-10.2-2.16s-1.18-.08-1.32-.31zm13.29 2.43c0-.37.13-1.23.47-1.23a7.7 7.7 0 0 1 1.35.26c-.52.35-.88.7-1.11.8a3.08 3.08 0 0 1-.65.2zm5.57-14.37A26.56 26.56 0 0 1 138 170c-.08-1.6-.12-2.58 1-3a9.27 9.27 0 0 1 4.22-.62c1.13.23 5.46.94 6.83 1.17.92.16 2.89.41 4.09.51 2.25.18 4.58.31 5.12.25l-17.67 22.61q-.16-1.4-.26-2.93l-.41-6.33s3.16 3.11 3.69 2.58-1.93-1.82-3.11-3.75a32.94 32.94 0 0 1-2.08-4.49l-.57-1.54zm.07 6.27c-.75-.11-3-.43-6.09-.79a39.46 39.46 0 0 1 5.15-2.15 1.29 1.29 0 0 1 .64.18 6.92 6.92 0 0 1 .31.76c.08.13.06.92.05 2.04zm-14.67 41.14l1-1.12c1.63-.48 3.15-1 4.4-1.47a7 7 0 0 0-1.73 1.69c-1.16 1.63-2 2.72-1.94 5.27l-.48-.35a17.48 17.48 0 0 1-2.34-2.12c-.1-.34.65-1.32 1.15-1.86zm3 2.69c.17-.49.3-.66.64-.63a2 2 0 0 1 .92.43 7.8 7.8 0 0 0 4 1.42 21 21 0 0 0 0 2.66c.12.47-.13.4-.49.41H132c-2.35-.13-3.71-.55-4.63-2a3.24 3.24 0 0 1-.33-.67 7.89 7.89 0 0 1 .17-1.59zm5.89 6.12v.27l-.53-.31zm-.27-6.74a4.22 4.22 0 0 1-2.11-.33 2 2 0 0 1-1.17-2.34 2.94 2.94 0 0 1 .65-1.15 9.48 9.48 0 0 1 4.12-1.42c-1.13 1.06-1.46 5.28-1.46 5.28zm1.56 1.6s.2.12 1.48-.08 4.8-1.17 5.43-.59.78 2.89.2 3.36a1.78 1.78 0 0 1-.5.27l-.46.11h-.3c-1.47.14-2.93.23-4.31.23h-1.3c-.11 0-.14-.08-.19-.23-.08-.3-.33-2.8-.02-3.03zm2.89-7h1a6.07 6.07 0 0 1 2.19 2.31 1.17 1.17 0 0 1-.35 1.76 20.34 20.34 0 0 1-5.12 1.29c-1 0-.51-1.48-.2-3.09s2.46-2.3 2.46-2.3zm4.11 2.08c-.43-.43-1.33-1.33-.86-1.48a12.74 12.74 0 0 1 2.38.38s2.61 1.06 2.72 1.78-1.16.85-1.35.91c-.78.08-2.3 0-2.34-.23a2.48 2.48 0 0 0-.53-1.32zm5.44-6.47c-.07.55.12.67-.77.58s-2.77-.55-3-1.25a15.7 15.7 0 0 1 .19-5.92c.37-1.84.94-2.43 1.35-2.73l.32.21a28.62 28.62 0 0 0 1.21 6.82c.25.77.49 1.52.7 2.24zm-5.48-5.05c-.1 1 0 1.85-.29 2s-3.13 2.26-7.46 4.76a38.31 38.31 0 0 1-6.77 3l2.43-2.81 12.3-15.86a14.73 14.73 0 0 0 1.66 3.19c-1.12 1.57-1.75 4.81-1.85 5.76zm24.5-49.31l-5 6.39h-1.8a36 36 0 0 0 1.81-3.37c.41-1 2-5.14 2.27-5.53s.86-.54 1.45.58c0 0 .79 1.17 1.3 1.96zm-6 2.82a5.7 5.7 0 0 1-2.43 3.17.54.54 0 0 1-.46 0 1 1 0 0 1-.37-.47 16 16 0 0 1-.91-2.1c-.18-.47-1.77-5.84-2.54-7.08l1.25.13c.43 0 4.21 0 7.38-.08a60.23 60.23 0 0 1-1.9 6.47zm-4.51 3.16c0 .19 0 .34-.47.4-1.63-.13-6.07-.5-7.4-.65-.29 0-.8-.08-1.43-.12a18 18 0 0 0 2.35-3.67c.62-1.58 2.64-5 3.11-5.21s.55-.41 1.23 1.23 2.61 7.86 2.63 8.06zm-10.16-1.21c-.55.47-2.71-8.42-3.94-9.77 1.79.19 3.36.39 3.68.45s2.84.33 5.2.57c-.49 1.01-4.39 8.33-4.92 8.79zm-10.61 7.74a19.71 19.71 0 0 0 2.21.81 13.55 13.55 0 0 0 .82 2.89c-.69-.07-2.64-.1-2.5-.58a2.19 2.19 0 0 0-.24-1.35l-1-1.54s-.59-.77.73-.19zm-2.74-.14c.17 0 1.06 2 1.06 2 .1.34.63.94.14 1.11s-.72-.77-.72-.77a10.65 10.65 0 0 1-.46-2.31zm-4.52 1.15s2.53-1.11 2.93-.82a5.5 5.5 0 0 1 .82 2.45c-.06.27-.19.59-.49.59-.48 0-4.69-1.2-4.81-1.54s1.57-.64 1.57-.64zm-1.73 3.17a.58.58 0 0 1 .82-.43 24.31 24.31 0 0 0 4.76 1.3 5.32 5.32 0 0 0 2.84-1c.46-.22.94.14 1.3.53s-.63.77-.63.77l-4.42 2c-1.45-.15-3-.3-4.6-.44a14.38 14.38 0 0 1-.06-2.69zm-6.88-.67a9.78 9.78 0 0 1 4.23-2.93c.24.05.53.61.66.87a.53.53 0 0 0 .06.14 7.26 7.26 0 0 1 .38 3.42c-.12.67-.31.94-.77.91s-5-.63-5.19-1.06.65-1.31.65-1.31zm-3.46 2.4a1.69 1.69 0 0 1 1.06-.43c-.13.33.17.73.37 1h-2.25a4.5 4.5 0 0 0 .83-.52zm-18.61 25.5a4.73 4.73 0 0 0 .48-.4 5.07 5.07 0 0 0 1.22-2.92c.11-1.11-.3-.35-.42-.22a8.71 8.71 0 0 1-1.12 2 3.69 3.69 0 0 1-1.66 1.23 5.88 5.88 0 0 1-.68-.25 13.39 13.39 0 0 1-1.38-.63l-.17-.1a3.36 3.36 0 0 0 1-.79c.56-.55.88-1.35.67-1.44s-1 .87-1.67 1.25a2.44 2.44 0 0 1-1 .33 11.15 11.15 0 0 1-3.53-4.57 4.19 4.19 0 0 0 1.7.48 2.47 2.47 0 0 0 1.91-.53c.51-.43.08-.53.08-.53a3.37 3.37 0 0 1-2 .16 7.73 7.73 0 0 1-2.24-1.45 7.81 7.81 0 0 1 0-3.63 3 3 0 0 0 2 1.65c.71.21 1.07.27 1.22 0s-.58-.3-1.41-1.12a5.75 5.75 0 0 1-1.2-2 11.61 11.61 0 0 1 3.87-4 4.05 4.05 0 0 0 2.11 2.76c1.44.67.67-.22.67-.22a15.94 15.94 0 0 1-1.3-1.48 2.67 2.67 0 0 1-.54-1.68c.7-.44 1.48-.87 2.34-1.3.52-.16 1.23-.58 2.67-1.13a4.21 4.21 0 0 0 1.09 3c1 .77.48-.13.48-.13a3.59 3.59 0 0 1-.74-1.7 2.57 2.57 0 0 1 .2-1.52 45.23 45.23 0 0 1 4.74-1.3 4.32 4.32 0 0 0 .54 3.34c.83.9.48 0 .48 0a9.76 9.76 0 0 1-.32-1.7 2 2 0 0 1 .5-1.86c1.16-.24 2.48-.47 4-.71a47.6 47.6 0 0 1 8-.4 4.58 4.58 0 0 0-.28 2c.08 1.11 1.06 2 1.35 1.92s-.5-1-.51-2c0-1.19.33-1.65.86-1.84 1.51.05 3.05.14 4.57.26a3.18 3.18 0 0 0-.24.93 2.9 2.9 0 0 0 .61 2.12c.42.47.1-.43 0-1a3.16 3.16 0 0 1 .44-2c2 .16 3.87.35 5.62.55a6.15 6.15 0 0 0-.27.67 5 5 0 0 0 0 2.85c.13.3.47.92.39 0a7.15 7.15 0 0 1 .57-3.25l.13-.21c1.73.21 3.28.41 4.55.59a5.9 5.9 0 0 0-.18 1.36 5 5 0 0 0 .87 2.71c.22.24.72.73.38-.08a7.15 7.15 0 0 1-.42-3.27 2.83 2.83 0 0 1 .18-.6c1.62.24 2.59.4 2.59.4a.69.69 0 0 1 .49.51c0 1 0 2 .05 3a3.06 3.06 0 0 1-2 1.3s-2.14-.27-4.61-.61a2.15 2.15 0 0 1-.19-.49 5.08 5.08 0 0 1 .14-2.36c.2-.59-.13-.23-.28-.05a3.49 3.49 0 0 0-.49 2 4.42 4.42 0 0 0 .16.84c-1.15-.16-2.34-.33-3.39-.5l-1.29-.22a2.45 2.45 0 0 1-.55-1.35c-.1-.75.27-1.84.1-1.89-.42-.11-.87 1-.87 1.86a2.2 2.2 0 0 0 .29 1.27c-1.57-.15-3.42-.26-5.31-.33a.79.79 0 0 1-.45-.9 2.24 2.24 0 0 1 .64-1.31c.3-.24.19-.55-.61.06s-1 1.62-.41 2.16c-1.87-.06-3.74-.08-5.38-.05a2.66 2.66 0 0 1-.76-1.78 4.87 4.87 0 0 1 .16-1.86s.08-.74-.58.13a3.83 3.83 0 0 0 0 3.54c-.62 0-1.29.06-2 .11a3.14 3.14 0 0 1-.93-2.27c.14-1.25-.08-1.17-.51-.67a3.2 3.2 0 0 0 .12 3.05 54.84 54.84 0 0 0-7.16 1.11 2.3 2.3 0 0 1-.66-1.37 3.68 3.68 0 0 1 0-1.38s-.32-1-.69.67a3.11 3.11 0 0 0 .3 2.33 13 13 0 0 0-3.09 1.17 4.23 4.23 0 0 1-1.84-1c-.72-.74-.82-.58-.77-.1a3.91 3.91 0 0 0 1.67 1.73 6.42 6.42 0 0 0-2.28 3.06 5.52 5.52 0 0 1-3.07-1c-.22-.13-.58.19.61 1.09a4.91 4.91 0 0 0 2.2.94 10.89 10.89 0 0 0-.14 1.16c-.08.17-.3 1-1 1.27a4.45 4.45 0 0 1-1.73 0c-.19 0-.51.27.13.48a5.4 5.4 0 0 0 2.15.06 1.2 1.2 0 0 0 .59-.26 3.71 3.71 0 0 0 .44 1.14 1.77 1.77 0 0 1-.9.85 4.47 4.47 0 0 1-1.57.48c-.37 0-.75.34.19.45a3.91 3.91 0 0 0 2.21-.29 2.47 2.47 0 0 0 .8-.68 3 3 0 0 0 1 .5 14.14 14.14 0 0 0 2.26.31 1.84 1.84 0 0 1 .22 1.56 5 5 0 0 1-.58 1.6c0 .08-.22.53.51-.06a2.67 2.67 0 0 0 1-2.18 2.47 2.47 0 0 0-.11-.84 6.58 6.58 0 0 1 2.32.42c.77.51 1.42 1.3.87 3.08s-1.06 1.9-2.45 2a23.13 23.13 0 0 1-4.76-.04zm33.77 43.72c-.11.69-.28 1-.55 1s-39.91-27-39.91-27a1.58 1.58 0 0 1-.69-.92 1.27 1.27 0 0 1 .24-1 .55.55 0 0 1 .47-.07 5 5 0 0 0 1.07.82c1 .59 35.07 23.75 36.56 24.8a17.25 17.25 0 0 0 2.68 1.6h-.05s.3.12.2.82zm10.8-6.8c.07.29.17 1.09-1.55 2.46a62.26 62.26 0 0 1-7.24 4.6c-.52.15-1.15.54-1.3.14a1.59 1.59 0 0 1 .08-1.11l.33-.18a.14.14 0 0 0 .12-.07c.71-.43 1.81-1.21 2.83-1.77 1.27-.7 4.6-2.88 6.06-3.91s.61-.4.68-.11zm-.49-1.88a2.64 2.64 0 0 1-1.18 1.71c-.87.61-7.2 3.57-8 4.12a1.83 1.83 0 0 1-1.51.45l-33.5-22.38-3.14-2.1c-.35-.24-2.71-1.78-2.71-2.59s.64-1 1.1-1.22c.27-.14 3.35-1.49 6-2.57 0 .05 3.08-1.45 3.87-1.36a5.83 5.83 0 0 1 1.79.71s11.6 7.49 11.5 7.64-.38.58-3.49-.68c-.29-.12-.44-.21-.47-.2a1.47 1.47 0 0 0-1.2 0c-.05 0-4.48 3.17-4.48 3.17s-.63.67-.23 1.28 13.95 9.9 14 9.92a3.11 3.11 0 0 0 2.3.35 17 17 0 0 0 3.4-2.11 5.33 5.33 0 0 0 1.58-1.86s.2-1-.13-1.42c-.48-.55-2.42-2.44-2.94-3.16s-.32-1.28.19-.8c0 0 3.24 3 3.46 3.12.4.29 3.66 2.31 4 2.55l2.51 1.58s4.41 2.87 4.5 2.94c1.09.77 2.84 2.61 2.8 2.96zm.92-5.8h-.07c-.52.1-3.43.54-4.17.6l-.48-.31c-.34-.22-1-.61-1.77-1.09-.21-1.21.1-1.43.62-1.54 0 0 2.06-.17 2.07-.16s3.87-.55 4.34 0a1.84 1.84 0 0 1-.52 2.58zm1.33-9.14c.23-.47 1.21-.47 1.21-.47.29 0 1.52-.06 2-.05a2.62 2.62 0 0 1 1.11.37c1 .7 1.48 3.4 1.37 3.59a36.72 36.72 0 0 1-4.91.88 3.63 3.63 0 0 0-.13-1.55c-.21-.96-.87-2.25-.59-2.72zm6.13 7a2.12 2.12 0 0 1-1.36 1.21c-1.48.18-2.88.36-4 .54a14.37 14.37 0 0 0 .29-1.67c0-.59 0-.86.47-1s4-.82 4.41-.55.36.93.21 1.51zm.86-5.9c-.43-1-.55-1.25-.08-1.25a9.3 9.3 0 0 0 2.27-.08c.86-.2 1.05-.59 1.05-.59a7.68 7.68 0 0 1 1.76 3.36v.1c-1.13.25-2.51.51-4.28.76a15.45 15.45 0 0 0-.7-2.26zm4.59-2.52a23.29 23.29 0 0 0 4.29.29.47.47 0 0 1 .26.12 9.75 9.75 0 0 1 .85 2 14.63 14.63 0 0 1-2 .85c-.41.13-.85.26-1.33.4a7.49 7.49 0 0 0-2.06-3.62zm-.29 8.5a2.32 2.32 0 0 1-.49.4l-.76.1-1.31.16c-.42 0-.94-.11-.92-.44 0-.55.2-1.87.2-1.87s-.16-.23.33-.31a32.84 32.84 0 0 0 4-.48 5.5 5.5 0 0 1-1.04 2.48zm5.91-2.73a4.11 4.11 0 0 1-1.26 2.29l-2.44.42a3.86 3.86 0 0 0 .56-2.77 15.28 15.28 0 0 0 3-1l.23-.11a4.62 4.62 0 0 1-.08 1.21zm.23-5.77a9.13 9.13 0 0 0 2.41-1.1 1.17 1.17 0 0 1 .33.15l.2.16a1.27 1.27 0 0 1-.32 1 6.66 6.66 0 0 1-1.74 1.44 4.91 4.91 0 0 0-.39-.85zm2.1 5.9a4.48 4.48 0 0 1-1.17 1.74h-.1a4.75 4.75 0 0 0 .66-2.55 7.79 7.79 0 0 0-.06-1.24 4.93 4.93 0 0 0 1.73-1.22 11.51 11.51 0 0 1-1.05 3.31zm1.11-9.67c-.29 1.23-2.46 2.29-2.75 2.4-.07 0 0 0 .1.05a16 16 0 0 1-4 .53 13.25 13.25 0 0 1-5.8-1.17 24.64 24.64 0 0 0 8.67-1.23 16.62 16.62 0 0 0 3.92-1.92 9.11 9.11 0 0 1-.12 1.39zm-5.21-2.34a22.71 22.71 0 0 1-9.49-2.29c1.05.35 6.68.18 9.43-.47a18.51 18.51 0 0 0 5.4-2.57v3.46c-.22.55-1.29 1.86-5.33 1.91zm6.09 13.18s-.12-.47.53-.18a5 5 0 0 0 2.52.41c.05 0 .2 0 .3.4a8.41 8.41 0 0 1 .19 2.52.63.63 0 0 1-.75.5 3.19 3.19 0 0 1-2.05-.78 3.48 3.48 0 0 1-.72-2.83zm7.68-16.29a59.79 59.79 0 0 0 7.56-.12c-5.62 2.58-12.9 1.28-14.47.86 0-.54 0-1-.06-1.45s0-1 0-1.63c.83.92 3.93 2.2 6.98 2.39zm-6.87-4.72a9.84 9.84 0 0 1 .19-1.26c.27-1.14.39-1.83 1.16-2a6.4 6.4 0 0 0 1.89 1.43 20.23 20.23 0 0 0 9.32 1.64 16.54 16.54 0 0 0 4.92-1.11 24.36 24.36 0 0 1-11.54 2.7c-4.28-.02-5.55-.82-5.93-1.35zm12.06 14.88a3.82 3.82 0 0 1 1.67-.3 13 13 0 0 1 2.94.16c.82.28 1.74 2.65 1.7 2.77a50 50 0 0 1-6 .16 1.24 1.24 0 0 1-.63-.91c-.14-.67-.24-1.46.33-1.83zm-.53-1.08a.82.82 0 0 1-.23-1 .73.73 0 0 1 .3-.22c.92 0 1.83-.07 2.67-.08a1.39 1.39 0 0 1 .5.18c.38.22.69.82.62.92s-1.25 0-1.87.07a8.08 8.08 0 0 1-1.98.18zm4.31-3.63a4.61 4.61 0 0 1-2.75 1.29c-1.11.18-4.45.35-5.68.53a31.38 31.38 0 0 1-5.21.47c-1.23-.12-1.82-2.11-1.93-2.87-.06-.38-.13-1.39-.2-2.49v.09c1.64 1.82 4.16 2.34 8 2.64a35.28 35.28 0 0 0 8.43-.68 3.6 3.6 0 0 1-.65 1.07zm-15.38 8.77c.06-.42.78-.79 1.27-1s1.3-.64 1.38-.66a8.07 8.07 0 0 0-.57 2.08 5.33 5.33 0 0 1-1.71.15.56.56 0 0 1-.36-.52zm2.3-2.94a10.64 10.64 0 0 0-2.69 1.59 2.71 2.71 0 0 1 .07-1.33 3.92 3.92 0 0 1 .64-.94 9 9 0 0 1 1.23-1.11 7.87 7.87 0 0 1 .81-.38 2.78 2.78 0 0 1 1.35 0s.07 0-.06.32a7.08 7.08 0 0 0-.32 1.2c-.06.33-.75.56-1.06.7zm2.37.7c1-.92 2-1.3 4.51-1.63a8.43 8.43 0 0 0 .61 2.67c.07.16-.1.23-.79.38s-4.47.88-5.36 1a3.34 3.34 0 0 1 1.04-2.37zm.4-2.46a5.68 5.68 0 0 1 4.44-1.27 3.76 3.76 0 0 0-.28 1 13.14 13.14 0 0 0-4.12.87s-.56.05-.04-.55zm-3.2 14.75a2.54 2.54 0 0 1-.9-.19 4 4 0 0 1-2-2.68c0-.21-.08-.47 0-.51s1.08.45 2.21.56a10 10 0 0 1 1.49.12 10.93 10.93 0 0 1 .94 2.48c.01.17-.99.26-1.73.26zm1.62-6c0-.45-.26-1.67.06-2.05s2.65-.53 3.15-.64 3.27-.56 3.65-.56.13 0 .35.35a21.68 21.68 0 0 1 1.3 4.15s.06.47-.76.62-5.33.13-5.33.13-1.61.09-2-.26a3.1 3.1 0 0 1-.42-1.65zm9.1 4.39c0 .6 0 1.35-.42 1.6a3 3 0 0 1-1.32.16c-1.58-.14-3.34-.15-4.94-.15a1.36 1.36 0 0 1-.89-.74 5.39 5.39 0 0 1-.79-2c.06-.26.78 0 2.42.1s5 0 5.3 0a1 1 0 0 1 .64 1.12zm.78-3.72c-.2-.62-1.2-3.63-1-4.07s.94-.31 1.74-.26 4-.38 4.6-.29 1.1 1.13 1.35 1.57.69 1.41.86 1.83a1.63 1.63 0 0 1-.19 1.51c-.53.67-1.05 1-3.13.92a12.7 12.7 0 0 1-3.81-.69c-.21.03-.32-.12-.43-.43zm6.88 4.58a2.92 2.92 0 0 1-1 .83 28.56 28.56 0 0 1-3.73.33 1.3 1.3 0 0 1-.89-.87c-.13-.7-.18-2 .09-2.15s2.64-.07 3.56-.16a16.43 16.43 0 0 0 2.78-.63c.36-.01-.03 1.85-.79 2.74zm5.75-5.39a5.88 5.88 0 0 1-.65 3.33 5.7 5.7 0 0 1-3.3 2.23 7.39 7.39 0 0 0 .65-3.24 6.84 6.84 0 0 0 2.64-1.39 2.23 2.23 0 0 0 .66-.84zm-.64-2.81v.13a4.36 4.36 0 0 1-1.57 2.92s-.88.67-1.3.5-.32-1.11-.49-1.47a26.15 26.15 0 0 0-1.33-2.59c-.25-.25.06-.34.34-.23s3.76.6 4.35.83zm-2.82-3.6c.57.42 1.5 1.16 1.41 1.43s-3.43-.21-3.78-.28a.91.91 0 0 1-.78-.51c-.22-.4-1.46-1.87-1.08-1.92a21.51 21.51 0 0 1 4.23 1.42zm-4.11-3.68c1 .35 1.32.66 1.42 1a.42.42 0 0 1-.31.41 4.35 4.35 0 0 1-2.62-.57 4.75 4.75 0 0 1-1-1.07 10.72 10.72 0 0 1 2.51.32zm-1.65-5.34c-.78.51-2.68 1.35-6.91 1.47-6.15.18-8.2-1.7-8.2-1.7a17.08 17.08 0 0 0 7.32.06 38.63 38.63 0 0 0 8.74-3.06 32.9 32.9 0 0 1-.94 3.32zm1.49-5.64v.27c-.69.64-2.43 1.49-7.92 1.49-7.79 0-9.26-1.64-9.26-1.64a27 27 0 0 0 9.14.23 18.39 18.39 0 0 0 8-3 4.6 4.6 0 0 1 .04 2.65zm7.09-40.13s0 8.38-.59 10.84A8.15 8.15 0 0 1 189 184c.06.23.82.12 1.17 2.58s-.12 11-.82 13.3a7.61 7.61 0 0 1-4 4.8 10.16 10.16 0 0 0 2.34-5c.53-3.16.06-5.74-.18-5.74s-.23 3.28-1 5.8-4.16 5.1-6 6a1.85 1.85 0 0 0-.29.17 9 9 0 0 1-4.46 1.06c-2.87-.06-4-.06-5-4a14.64 14.64 0 0 1-.35-2.23v-.07a5.48 5.48 0 0 0-.12 3.05 11 11 0 0 0 1.05 2.87c.29.35-1.93-.18-2.93-1.35s-2.29-3.75-3.34-10.9c-.45-3.07-2.54-16.33-3.25-20.62-.43.15-1.05 1.29-1 1.36 0 .25 1.09 8.33 1 8.59.36 2.08.68 4 .84 5.1.53 3.57 1.76 11.43 1.87 13.24s0 2.64-2.93 3.87-8 2.05-11.13.47a12.94 12.94 0 0 1-2-1.76c-.82-.94-3.69-8-3.87-7.91a19.31 19.31 0 0 0 1.85 6.19 1.35 1.35 0 0 1 .14.77c-.06.41-1.52.13-2.58-2.22a22.62 22.62 0 0 1-1.05-3l23-29.65s.23-.28.24-.28 4.64.16 7.32 0a21 21 0 0 0 3.34-.29c3-.59 11.21-2.54 12.58-2.62s1.56.86 1.72 2.3zm-1.56-6.58a24.52 24.52 0 0 1-4 1c.08 0-.46 0-.65-.06s3.28-4.65 4.18-9.34c0 0 2.85 3.79 3.28 6.44-.01 0-.25.9-2.83 1.95zm15.3-12.1a3.32 3.32 0 0 1-.45 1.54 6.89 6.89 0 0 1-2.43 2.07c-.77.36-.1.34.22.31a4.79 4.79 0 0 0 2.38-1.37 4.66 4.66 0 0 0 1-1.76 8.3 8.3 0 0 1 .79 1.12 21.08 21.08 0 0 1 1.43 3.38 3.14 3.14 0 0 1-.42 1.21 6.89 6.89 0 0 1-2.43 2.07c-.77.36-.1.34.22.31a4.79 4.79 0 0 0 2.38-1.37 5.9 5.9 0 0 0 .67-.93c.2.65.36 1.26.46 1.75a24.89 24.89 0 0 1-.13 7 18.83 18.83 0 0 1-1.28 4.64h-.09a6.89 6.89 0 0 1-3.16-.46c-.78-.34-.32.16-.09.37a4.79 4.79 0 0 0 2.6.88h.4a13.08 13.08 0 0 1-2.17 3.44 3 3 0 0 1-1.08.15 6.89 6.89 0 0 1-3-1.15c-.68-.5-.35.08-.17.34a4.79 4.79 0 0 0 2.34 1.44 6 6 0 0 0 1 .13 22.24 22.24 0 0 1-5.26 3.33 3.07 3.07 0 0 1-1.11-.25 6.89 6.89 0 0 1-2.38-2.13c-.46-.71-.35 0-.28.26a4.79 4.79 0 0 0 1.68 2.17 6 6 0 0 0 .91.49 38 38 0 0 1-5.5 1.81c.33-2 .81-4.65.93-5.45l.05-.37a17.35 17.35 0 0 0 4.07-1.79 6.15 6.15 0 0 0 .28.63 5 5 0 0 0 2.06 2c.31.11 1 .3.3-.25a7.15 7.15 0 0 1-1.93-2.67v-.11l.36-.28a15.63 15.63 0 0 0 2.51-2.66 5.88 5.88 0 0 0 .9 1.07 5 5 0 0 0 2.6 1.17c.33 0 1 0 .2-.34a7.15 7.15 0 0 1-2.72-1.87 3 3 0 0 1-.44-.82 7 7 0 0 0 1-2.27 14.82 14.82 0 0 0 .21-1.55 6 6 0 0 0 1 .77 5 5 0 0 0 2.77.66c.32-.06 1-.24.13-.37a7.15 7.15 0 0 1-3-1.33 3.2 3.2 0 0 1-.79-1.13 17.21 17.21 0 0 0-.18-3 6 6 0 0 0 1.22.3 5 5 0 0 0 2.8-.54c.27-.19.82-.63 0-.39a7.15 7.15 0 0 1-3.3 0 3.1 3.1 0 0 1-1-.57c-.1-.24-.23-.52-.39-.82a5.85 5.85 0 0 0 1.38-.38 5 5 0 0 0 2.14-1.88c.14-.3.38-1-.23-.32a7.15 7.15 0 0 1-2.83 1.7 3 3 0 0 1-1 .06 10.72 10.72 0 0 0-2.28-2.41 4.48 4.48 0 0 0 .7-.51 5 5 0 0 0 1.35-2.44c.17-.65-.1-.79-.26-.19a5.65 5.65 0 0 1-2.16 2.38 1.12 1.12 0 0 1-.56.09c-.36-.23-.75-.46-1.17-.68l-.71-.45s-.4-.29.22-.67a.43.43 0 0 0 .11-.1 10.45 10.45 0 0 0 2.84-3.11 12.44 12.44 0 0 0 1.06-3c0-.24.38-.37.83 0a7.31 7.31 0 0 1-.06 2.22c-.23.91-.32 1.32-.07 1.23a2.63 2.63 0 0 0 .83-1.48 4.29 4.29 0 0 0 .1-1.45 20.59 20.59 0 0 1 3.06 2.57zm3-10.79c-.32.19-.93.21-1.7-1.12s-1.83-1.12-1.83-.87 0 .38.51 1a5.64 5.64 0 0 1 1.19 3 4.69 4.69 0 0 1-1.06 3.69c-.78.84-1.38 1.39-1.49 1.49a22.14 22.14 0 0 0-4.08-2.7c-.21-.17-.32-.48-.2-.65a1.15 1.15 0 0 1 1.31.15c.82.55.6-.44.55-.69a17.36 17.36 0 0 0-1.25-4.07 18.84 18.84 0 0 0-5-6.16c-2.65-2.08-6.65-2.29-7.63-2.31s-2.89.85-3.53.93-1.36-.26-1.7-.06-.42.48 0 1 .79.79.74 1.38a7.12 7.12 0 0 1-1.11 1.85c-.35-.08-1.09-.41-1.42-1.75-.43-1.78 1.17-3.83 1.86-4.43a7.84 7.84 0 0 1 5.45-2.5 10.52 10.52 0 0 1 4.78.61c.27 0 .66-.06-.19-.8a5.14 5.14 0 0 0-3.33-1.35 11.09 11.09 0 0 0-3 .13s-.66.14 0-.48 2.15-2.77 7.15-2.92 9.43 1.59 11.64 5.48 3.5 7.18 3.72 9.17-.08 2.78-.4 2.97zm-27.3-59.51l.36.21c.86.49 4.88 2 6.15 2.73s3.28 2.38 4.57 3c.65.33 1.29.66 2 1a44.76 44.76 0 0 1 5.92 4.74 47.39 47.39 0 0 1 6.12 7.34 18.61 18.61 0 0 1 3.75 5.61c1 2.63.72 4 1.12 5.07a18.23 18.23 0 0 1 1.06 5.42c0 1.78-1.73 10.13-1.73 10.13s-.9 4.62-1 5.07-.48-.06-.74-.61-2.89-5.19-4.68-6.7a12.82 12.82 0 0 0-9-2.76c-3.93.29-4.52.9-4.52.9s-1.44.66-.87-.77c0-.08 1.76-3.13 3.59-4.26a12 12 0 0 1 5.93-1.73s1.36-.24-.06-.64a8.65 8.65 0 0 0-3.27.1c-.26 0-.38-.26.1-.51s2.87-1.39 3.62-1.22.55-.58-.26-.77a6.58 6.58 0 0 0-5.38 2.34 12 12 0 0 0 0-2.24c-.1-.84-.21-2.37-.21-2.37.06-.57.16-1.27.29-2.05s.43-2.18.48-2.79.36-1.33 0-1.33c-.63 0-.63 1.68-1.07 1.84-.22.08-.67-.69-.72-1.73 0-.75-.35-2.31-.5-3.29s-.27-2.1-.69-1.64 0 3.09.13 4.75.71 6.14.74 7.23a17.3 17.3 0 0 1-.06 1.94 12.45 12.45 0 0 1-.62 1.51l-.12.23c-1.21 2.55-3.45 6.58-3.73 6.9-.48.55-2.15 1.15-3 2.31s-.46 1.54-1.25 2.47-3.27 3.56-3.91 5.64-.74 4.12-.22 5.1a1.84 1.84 0 0 0 1.31 1.06 2.6 2.6 0 0 1-1 1.54c-.83.71-2.82 2.05-2.82 2.05a6.24 6.24 0 0 0-1.89 1.31 17.31 17.31 0 0 0-2.85 3.82 3.37 3.37 0 0 0-.16 2.34 1.06 1.06 0 0 0 1.12.42v.06l.22-.07c-.35.46-.64.86-.89 1.11-.62.64-3.31 3.52-4 4.25h-1.34s-9.1 0-12-.23-7.89-.86-10.08-1.05-8.32.12-9.84-.59-1.41-3.32-1.56-4.57a3.39 3.39 0 0 0-.11-.51c0-1.32-.09-4.19 0-5.13.06-1.23.41-3.16.44-3.78s0-3.28 0-3.28a.74.74 0 0 0 .76-.15c.35-.32.29-1.52.23-1.67a12.49 12.49 0 0 1 4.13.47 48.5 48.5 0 0 0 9.2.7c3.46 0 6.33-.88 7.35-1.61a6.47 6.47 0 0 0 2.29-3 5.53 5.53 0 0 0 .59-3.28c0-.94-.35-1.67-.38-2.43a9.27 9.27 0 0 0 0-2.7 3.45 3.45 0 0 0-1-1.46 2.23 2.23 0 0 0-.59-2.05 4.14 4.14 0 0 0-2.34-1.23c-.45-.2-.72-.08-.65-1.12a.32.32 0 0 0 0-.15c-.09-.53.06-3.11-.18-5a3.76 3.76 0 0 0-1.64-2.87c-.32-.23-2.7-1.49-3 1.41a15.14 15.14 0 0 1-2 6.06c-.82 1.55-3.31 2.9-4.6 3.54a3.6 3.6 0 0 1-3 .38c-.79-.32-.88-.91-.94-1.55a6.2 6.2 0 0 0-.64-2.72 5 5 0 0 0-2.08-1.7c.5-2.78.29-10.66.35-11.48s.12-3.52-.18-3.43-.59 2.46-.59 3.9-.09 2.31-.88 2.52-1.35-2.34-1.58-2.14-.12.35.18 1.82a13.61 13.61 0 0 1-.24 4.64 1.62 1.62 0 0 1-1.41 1.05 17.06 17.06 0 0 1-3.28-.47 18.58 18.58 0 0 0-7.66 1.25 10.36 10.36 0 0 0-3.55 3c-.27.59-3.24 3.79-3.63 5.16s-1.45.82-1.52.08a20.3 20.3 0 0 1 .12-4.22c.23-1.84 1.41-4.26 1.76-5.62a41.75 41.75 0 0 1 2-6.44 19.62 19.62 0 0 1 4.2-5.34c1.09-1.05 6.64-4.88 7.89-5.9a41 41 0 0 0 3.44-3.71c.43-.43 3.1-2.85 3.1-2.85a19.8 19.8 0 0 1 6.7-3.36s1.11-.09 1.55-.15 4.63-1.67 5.21-1.76a1.44 1.44 0 0 1 1.42.41 7.36 7.36 0 0 0 1.82 1.16 2.56 2.56 0 0 0 .82.19 4.32 4.32 0 0 1 2 2.83 69.84 69.84 0 0 1 .49 8.39 68.31 68.31 0 0 0 1.26 9.87c.5 1.68 1.07 1.73 1.07 1.73a16.34 16.34 0 0 0 3.71 1.61c2.74.88 2.68.64 3.93.63a7.1 7.1 0 0 0 3-.83 3.5 3.5 0 0 0 1.17-.66 2.1 2.1 0 0 0 .5-1.38l-.2-12.38s.18-6.47 1.11-8a7.19 7.19 0 0 1 1.81-2.16l.67-.31a5.42 5.42 0 0 0 1.08-.64A10.11 10.11 0 0 1 175 80a9.34 9.34 0 0 1 5.51 1.08zm-5.89-3a26.34 26.34 0 0 0-.39-3h.07l2.32-1.32a26.26 26.26 0 0 0 5.19-2.9 72.8 72.8 0 0 0 7.73-6.5c.21-.25.51-.62.85-1.06-.21.73-.56 1.86-.91 2.7a21.49 21.49 0 0 1-2.67 5.45c-1.67 2.32-7.65 5.47-12.21 6.6zm20.54-7.74c-.59 2-3.22 3.57-5 4.48a2.87 2.87 0 0 0-.51.31 19.91 19.91 0 0 1-7.34 1.86 20.59 20.59 0 0 0 3.84-2.52c1.79-1.52 3.37-4.8 4.48-8.41a36.61 36.61 0 0 1 2-5.45l.85-1.62.37-.52a10.49 10.49 0 0 1 2.13-3.04 10.24 10.24 0 0 0 1.36-1.67 13 13 0 0 0-.31 1.64 11.68 11.68 0 0 1-.88 3.72 9.24 9.24 0 0 0-1.17 3.46c-.16 1.41.74 5.74.16 7.73zm2.7-.26l-1.2 1.35a15.45 15.45 0 0 0-.15-4.22 8.07 8.07 0 0 1 .59-7.53l.07-.09a39.93 39.93 0 0 0 1.63 5.16 5.8 5.8 0 0 1-.97 5.3zm2.27-6.18a7.64 7.64 0 0 0-.9-2.38 9.58 9.58 0 0 1-.88-4.42 13.5 13.5 0 0 1 1.55-5 9.23 9.23 0 0 0 2-5.13v-.06c0 .85.11 7.54-.44 9 0 0 1.14-1.2 1.44-4.66a27.21 27.21 0 0 0-.15-6.91c-.21-1.05-1.14-3.11-1.23-5.07s.59-2.43.62-5.3a14.47 14.47 0 0 0-.35-3c.5.66 3.92 5.37 5.07 9.53 1.23 4.45.73 7.18 1 9a7.79 7.79 0 0 1-1.41 6.49c-1.89 3-5.3 5.12-6.3 7.84zm4.75-30.24a27.84 27.84 0 0 1 4.51 5.68 18.74 18.74 0 0 1 1.23 8.47 10.7 10.7 0 0 1-1.64 4.36 35.65 35.65 0 0 0-.2-4.12 33.37 33.37 0 0 0-1.26-8 31.28 31.28 0 0 0-2.66-6.41zm9.26 16.08a22.45 22.45 0 0 1-2.81 7.18 61.5 61.5 0 0 1-4.22 5.89 38 38 0 0 1-6.13 5.39 8.88 8.88 0 0 1 .82-3 1.84 1.84 0 0 0 .16-.59 15 15 0 0 1 1.77-3.39c1.05-1.35 4.34-4.92 4.89-5.71a1.18 1.18 0 0 0 .15-.38 12.9 12.9 0 0 0 2-3.28 17.44 17.44 0 0 0 .98-7.86 16.88 16.88 0 0 0-4-9.32 42.37 42.37 0 0 0-4.22-3.9 16.8 16.8 0 0 1-3-3.56c-.17-.51-2.28-5.14-2.61-5.93a15.21 15.21 0 0 0-2.75-5.13c-1.79-2.16-4.81-5.95-6.62-7.16s-5.35-3-5.35-3l-2.73-1.41s.2-.16 1.21.12 2.3.59 2.3.59 3.37.49 8.06 4.09a137.39 137.39 0 0 1 11.07 10.11c-.09.09 2.55 2.55 4.28 5s3.72 7.35 4.42 8.32a10.8 10.8 0 0 1 2.34 5.18 59.75 59.75 0 0 1-.03 11.73z" fill="#692f23"/><path d="M77.83 54.15a19 19 0 0 1-6.12 14C72 69.67 73 74.94 73 74.94s-5.77-2.43-7.32-3.06a19 19 0 1 1 12.15-17.73z" fill="#fd8204"/><text transform="translate(45.76 59.11)" font-size="12.36" fill="#fff" font-family="HelveticaNeueLTW1G-Roman, Helvetica Neue LT W1G">15%</text><path d="M231.07 156.08a19 19 0 0 0 6.12 14c-.29 1.55-1.32 6.82-1.32 6.82s5.77-2.43 7.32-3.06a19 19 0 1 0-12.12-17.73z" fill="#fd8204"/><text transform="translate(237.04 161.04)" font-size="12.36" fill="#fff" font-family="HelveticaNeueLTW1G-Roman, Helvetica Neue LT W1G">35%</text><path d="M245.79 187.57a1.35 1.35 0 0 1-.13-1.51 11.61 11.61 0 0 1 2.85-3.32 8.74 8.74 0 0 1 4.26.7c1.17.64.17 2.22 0 3.19s-.6 3.66-1.07 3.49-5.91-2.55-5.91-2.55z" fill="#fd8204"/><path d="M241 191.12c.07-.13 1.48-3 3.83-3.16a7.5 7.5 0 0 1 4.57 1c.81.5 1.21.5 1.07 1.34s-.94 1.38 0 2a23 23 0 0 1 2.79 1.71c.5.54 1.21 1.61.91 2s.07 1.11-1.71 1.31a76.12 76.12 0 0 1-10.74-.44c-.91-.27-.94-.81-1-1.07s.28-4.69.28-4.69z" fill="#e2ddd3"/><path d="M240.76 197.53a4.69 4.69 0 0 0 1.41 1.68 3.66 3.66 0 0 1 1.54 2.65c0 .81.37 8.26.37 8.26s10.31-1.21 10.31-1.38-.13-11.72-.07-11.92-.64 0-1.58.1-8.16.77-10.54 0-1.44.61-1.44.61z" fill="#d2a274"/><path d="M234.31 197.4s-.13 1.07 1.75 1.17 4.36-.27 4.5-.84a3.48 3.48 0 0 0-.4-2 20.44 20.44 0 0 0-4.6-.37 2.59 2.59 0 0 0-1.25 2.04z" fill="#f5e0c7"/><path d="M232.7 202.23s-1.17-1.31-.3-2.38a3 3 0 0 1 2.72-1.44c1.24 0 5.37.17 5.61.17a2.23 2.23 0 0 1 1.91 1.07 11.57 11.57 0 0 1 1.44 4.77v5.71l-7.65 1.11-2-1.24s0-2-.07-2.38-.96-4.48-1.66-5.39z" fill="#e2ddd3"/><path d="M234.24 204.82a13.41 13.41 0 0 0 4.53.34c2.45-.3 2.62-.3 2.62-.3s.34.07.37 2 0 3.56 0 3.56l-5.67.81a9.48 9.48 0 0 1-1.71-1.14c0-.17-.14-5.27-.14-5.27z" fill="#fff"/><path d="M218.47 196.53a1.65 1.65 0 0 1-1.21-1.51 13.4 13.4 0 0 1 .54-4.23 5.42 5.42 0 0 1 2.52-.5c1.21 0 2.38.3 2.38.7s.2 1.54.2 2 .1 2.42.1 2.62.23.6-.2.7-4.33.22-4.33.22z" fill="#e2ddd3"/><path d="M216.69 198s-2.48.57-2.79 1.11-.57.94-.3 1.21 1.51 1.24 4.26 1.31a34.94 34.94 0 0 0 6.65-.37c1.34-.27 2.22-.44 2.22-1s-.84-1-1.54-1.41-1.48-.74-1.48-.74.54-.94 0-1.17a9.51 9.51 0 0 0-2.75-.17c-.54 0-3.76-.2-4 0s-.78.53-.27 1.23z" fill="#f7f5f2"/><path d="M212.19 200.22c-.08.13-1.48.77-1.54 2a8.52 8.52 0 0 0 .81 3.32 22.21 22.21 0 0 1 .3 2.89c.07.4-.1 1.61.4 1.88a12.86 12.86 0 0 0 3.46.7h1.07a23.2 23.2 0 0 0 2.48.5 28 28 0 0 0 4.5-.7 17.2 17.2 0 0 1 4.26-.2c.77.13.91-.13 1.11-.94s1-3.79 1.14-4.36-.64-4.7-2-4.93a3.71 3.71 0 0 0-2.42.27 13.28 13.28 0 0 1-6.76 1.15c-3.73-.37-5-.77-5.34-1.28s-.2-1.11-.3-1.07a1.86 1.86 0 0 0-1.17.77z" fill="#efb000"/><path d="M224.81 198s1.24-1.11 1.28-1.21-.77-1.07-.74-1.44a19.71 19.71 0 0 1 .47-2.92c.13-.07 2.15.07 2.32 0a16.68 16.68 0 0 1 2.25 0c.2 0 .57.17.64 1.17s.37 2.75-1.07 2.92.7 1.75 1 2.35 1.78 4.3 2.11 4.8a17.77 17.77 0 0 1 1.44 4.83c0 .94-.37 1.34-.64 1.31s-3.36.5-3.49.47-1.38 0-1.38-.17.94-3.73 1.11-4.9a8.61 8.61 0 0 0-.77-3.83c-.27-.37-3.16-2-3.46-2.28s-1.2-.73-1.07-1.1z" fill="#fd8204"/><path d="M226.15 191.43a2.68 2.68 0 0 0-1.21-2c-1.17-.77-1.34-.67-1.24-1.81s1.44-1.64 2.62-2.15 7.52-2.62 7.52-2.62a9.43 9.43 0 0 1 3-.87 1.78 1.78 0 0 1 1.54 1.91c0 1.24-1.44 2-1.88 2.11s-3.12 1.21-3.12 1.21a5.09 5.09 0 0 0 .07 2.48c.4.94 1 2.11 1.95 2.45s2.22.64 2 1.07a1.88 1.88 0 0 1-2 1.17c-1.24-.23-3.86-2.45-4.33-3a10.17 10.17 0 0 0-.87-.94 3.43 3.43 0 0 0 .27 2c.47.6-4.26-.2-4.26-.2z" fill="#efb000"/><path d="M210.88 206.6l-11.38 1.58a4.73 4.73 0 0 0-.4 1.14c0 .3.13 1.38.13 1.38a2.55 2.55 0 0 0 1.51 1.17c.91.13 1.61.27 1.61.27l.17 4.43s1 8.16 1.24 10.41 0 5 1 6.14 15.27 4 19.47 4.4 5 .5 5.07.07-6.14-16.82-8.36-18-8.83-9.26-8.86-9.4-1.2-3.59-1.2-3.59z" fill="#e16702"/><path d="M236.12 211.26c-.19-.15 17.19-2.22 17.19-2.22l2-.44s-.81-.6-.81-.7.5-.47.74-.37 6.11.81 6.48 1.14a1.86 1.86 0 0 1 0 2.11c-.5.57-2.32.7-2.35.91s-2.28 18.7-2.75 19.94-1.71 2-4.4 2.42-15.81 2.08-16.15 2.08-.44.2-1-1.17a20.55 20.55 0 0 1-1.28-7.32s.13-.5 1 .13 2.72 1.71 3.39.81 1-1 .77-2.42a22.2 22.2 0 0 0-2.11-4.57 15.08 15.08 0 0 1-.6-6c.29-1.81.49-3.82-.12-4.33z" fill="#fd8204"/><path d="M218.83 211.57a22.46 22.46 0 0 0-3.52-.54c-1.51 0-3.46-.7-4.73-.57a4.77 4.77 0 0 0-3.86 2.11c-1 1.61-3.29 4.53-3.89 5.27s-2 1.78-2.15 3.39-.07 2.38 1.38 2.11 2.38-.3 3.19-1.44 3.79-5.71 4.46-5.37 1.28 1.28.81 3.16-1.21 4.16-2.22 5.2-4 3.59-4.1 4.43 0 2.15 1.48 1.85a12.54 12.54 0 0 0 5.14-2.69c.84-1 .57.84.47 1.41s-2.15 2.65-2.79 3.63-1.58 1.95-1.38 2.62.7 1.14 2.15.6a5.27 5.27 0 0 0 2.65-1.58c.5-.67-.27 3.19.54 4s.6 1.21 1.44.6a5.16 5.16 0 0 0 1.75-1.78c.4-.74.74-2 .91-1.41s0 1.31.84 1 1.21-.37 1.44-.81 1.38-4.43 1.68-5.14 1.11-2.89 1.58-3 .67 1 .54 2.69-.74 5.84-.47 6.75 1.11 1.68 1.78 1.64 1.07.13 1.48-1a25.57 25.57 0 0 0 .77-3.26 23 23 0 0 1 .4-2.62c.17 0 .94 5 2.58 6.08s2.22 1 2.55.4-.37-2.22-.37-2.92.7.64 1.81.91 1.28.3 1.61-.64a3 3 0 0 0 .2-2.25c-.23-1.14-1.71-5.64-1.31-6.85s.64-.64.64-.64 1.44 2.22 3.05 1.78 2-.91 1.81-1.91-1.64-2.89-1.85-4.43-1.07-3.49-.87-7.22-1-4.87-2.28-5.07-4.73.54-5.81.64-9.02.83-9.53.87z" fill="#f5e0c7"/><path d="M238.27 217.94s1-.91 1.38-.44 0 4.43 0 4.43.54 1.48 0 1.71-1.11.2-1.24-.2-.14-5.5-.14-5.5z" fill="#e16702"/><path d="M237.87 217.68c-.11 0-1.18.27-1.24.54s.2 2.72.23 3.16a10.86 10.86 0 0 0 1.11 2.11s.17-1.58.23-1.91.24-3.94-.33-3.9z" fill="#d2a274"/><path d="M243.71 217.17s1-.91 1.38-.44 0 4.43 0 4.43.54 1.48 0 1.71-1.11.2-1.24-.2-.14-5.5-.14-5.5z" fill="#e16702"/><path d="M243.58 216.87c-.11 0-1.31.27-1.38.54s.07 5.37.1 5.81 1.54-.2 1.54-.2-.07-1.78 0-2.11.31-4.07-.26-4.04z" fill="#d2a274"/><path d="M249.11 216.47s1-.91 1.38-.44 0 4.43 0 4.43.54 1.48 0 1.71-1.11.2-1.24-.2-.14-5.5-.14-5.5z" fill="#e16702"/><path d="M249 216.17c-.11 0-1.31.27-1.38.54s.07 5.37.1 5.81 1.54-.2 1.54-.2-.07-1.78 0-2.11.29-4.08-.26-4.04z" fill="#d2a274"/><path d="M254.18 215.9s1-.91 1.38-.44 0 4.43 0 4.43.54 1.48 0 1.71-1.11.2-1.24-.2-.14-5.5-.14-5.5z" fill="#e16702"/><path d="M254 215.59c-.11 0-1.31.27-1.38.54s.07 5.37.1 5.81 1.54-.2 1.54-.2-.07-1.78 0-2.11.36-4.07-.26-4.04z" fill="#d2a274"/><path d="M253.11 225.28s1.1-.72 1.42-.29-.18 3.79-.18 3.79.48 1.29-.08 1.46-1.14.11-1.26-.24.1-4.72.1-4.72z" fill="#e16702"/><path d="M253.19 225c-.11 0-1.35.15-1.43.38s-.19 4.59-.18 5 1.58-.08 1.58-.08a15.73 15.73 0 0 1 .1-1.81c.09-.3.51-3.49-.07-3.49z" fill="#d2a274"/><path d="M248.34 225.82s1.1-.72 1.42-.29-.18 3.79-.18 3.79.48 1.29-.08 1.46-1.14.11-1.26-.24.1-4.72.1-4.72z" fill="#e16702"/><path d="M248.42 225.55c-.11 0-1.35.15-1.43.38s-.19 4.59-.18 5 1.58-.08 1.58-.08a15.73 15.73 0 0 1 .1-1.81c.1-.31.51-3.48-.07-3.49z" fill="#d2a274"/><path d="M243.31 226.66s1.1-.72 1.42-.29-.18 3.79-.18 3.79.48 1.29-.08 1.46-1.14.11-1.26-.24.1-4.72.1-4.72z" fill="#e16702"/><path d="M243.38 226.39c-.11 0-1.35.15-1.43.38s-.19 4.59-.18 5 1.58-.08 1.58-.08a15.73 15.73 0 0 1 .1-1.81c.1-.31.55-3.48-.07-3.49z" fill="#d2a274"/><path d="M238.44 227.36s1.1-.72 1.42-.29-.18 3.79-.18 3.79.48 1.29-.08 1.46-1.14.11-1.26-.24.1-4.72.1-4.72z" fill="#e16702"/><path d="M238.52 227.1c.06 1.66-1.47 1.7-1.56 1.93s-.06 3.05 0 3.42 1.58-.08 1.58-.08a15.73 15.73 0 0 1 .1-1.81c.04-.29-.14-4.05-.12-3.46z" fill="#d2a274"/><path d="M245.47 216.75a.35.35 0 0 0-.37-.34s-2.35.25-2.75.32-.42.3-.42.3v1.17s-.13 3.68-.07 4.48.52.79.52.79 2.33-.23 2.7-.3.3-.34.3-.34.11-5.72.09-6.08zm-1.85 5.72c0 .49-.2.59-.69.55a.57.57 0 0 1-.55-.45v-4.73c0-.84.64-.69.64-.69.67 0 .67.34.67.34s-.03 4.51-.06 4.99zm1.38-5.14v4.75c0 .49-.23.64-.54.62a.33.33 0 0 1-.3-.34s0-4.4.05-4.85.35-.37.35-.37c.53 0 .44.2.44.2zM250.81 216.17a.35.35 0 0 0-.37-.34s-2.35.25-2.75.32-.42.3-.42.3v1.17s-.13 3.68-.07 4.48.52.79.52.79 2.33-.23 2.7-.3.3-.34.3-.34.11-5.73.09-6.08zm-1.81 5.72c0 .49-.2.59-.69.55a.57.57 0 0 1-.55-.45v-4.73c0-.84.64-.69.64-.69.67 0 .67.34.67.34s-.07 4.49-.07 4.98zm1.38-5.14v4.75c0 .49-.23.64-.54.62a.33.33 0 0 1-.3-.34s0-4.4.05-4.85.35-.37.35-.37c.48-.01.4.19.4.19zM254.65 225a.29.29 0 0 0-.31-.29s-2 .18-2.35.23-.36.25-.36.25v1s-.16 3.13-.12 3.82.43.68.43.68 2-.17 2.31-.22.26-.28.26-.28.15-4.94.14-5.19zm-1.65 4.81c0 .41-.18.5-.59.46a.49.49 0 0 1-.47-.39s0-3.32.09-4 .55-.58.55-.58c.57 0 .57.3.57.3s-.15 3.79-.15 4.21zm1.24-4.36s-.09 3.63-.09 4-.21.54-.47.52a.28.28 0 0 1-.25-.29s.09-3.75.11-4.14.31-.31.31-.31c.46.05.39.22.39.22zM249.9 225.56a.29.29 0 0 0-.31-.29s-2 .18-2.35.23-.36.25-.36.25v1s-.16 3.13-.12 3.82.43.68.43.68 2-.17 2.31-.22.26-.28.26-.28.15-4.89.14-5.19zm-1.65 4.86c0 .41-.18.5-.59.46a.49.49 0 0 1-.47-.39s0-3.32.09-4 .55-.58.55-.58c.57 0 .57.3.57.3s-.12 3.79-.16 4.2zm1.24-4.36s-.09 3.63-.09 4-.21.54-.47.52a.28.28 0 0 1-.25-.29s.09-3.75.11-4.14.31-.31.31-.31c.46.04.39.21.39.21zM244.91 226.41a.29.29 0 0 0-.31-.29s-2 .18-2.35.23-.36.25-.36.25v1s-.16 3.13-.12 3.82.43.68.43.68 2-.17 2.31-.22.26-.28.26-.28.15-4.89.14-5.19zm-1.65 4.86c0 .41-.18.5-.59.46a.49.49 0 0 1-.47-.39s0-3.32.09-4 .55-.58.55-.58c.57 0 .57.3.57.3s-.12 3.79-.15 4.21zm1.24-4.36s-.09 3.63-.09 4-.21.54-.47.52a.28.28 0 0 1-.25-.29s.09-3.75.11-4.14.31-.31.31-.31c.47.05.39.22.39.22zM255.91 215.54a.35.35 0 0 0-.37-.34s-2.35.25-2.75.32-.42.3-.42.3v1.17s-.13 3.68-.07 4.48.52.79.52.79 2.33-.23 2.7-.3.3-.34.3-.34.11-5.72.09-6.08zm-1.85 5.72c0 .49-.2.59-.69.55a.57.57 0 0 1-.55-.45v-4.73c0-.84.64-.69.64-.69.67 0 .67.34.67.34s-.03 4.5-.06 4.99zm1.38-5.14v4.75c0 .49-.23.64-.54.62a.33.33 0 0 1-.3-.34s0-4.4.05-4.85.35-.37.35-.37c.53 0 .44.2.44.2z" fill="#692f23"/><path d="M262.46 208.83c-.05-.2-.23-.34-.77-.5s-6.08-1-6.08-1l-.82-.17v-10.89a3.93 3.93 0 0 0-1.29-2.67c-1.21-.92-2.37-1.16-2.52-1.61a1 1 0 0 1 .4-1.29c.57-.29.91-.23 1.17-.82a47.74 47.74 0 0 0 1.11-5.19 1.08 1.08 0 0 0-.34-.92 4.89 4.89 0 0 0-3.49-1.49c-2-.07-2.38.81-2.58 1.07l-2.42 3.16c-.11 0-.08.43 0 .7s-.39.17-1.28.62a5.17 5.17 0 0 0-2.9 3.11 15 15 0 0 0-.32 4.46s-.08-.2-.69-.34-4.77.07-4.77.07a.77.77 0 0 0-.69.65c-.08.59.07 1.9 0 2.18s-.34.47-.77.64a3.41 3.41 0 0 0-1.43.86 2 2 0 0 1-.31.28c0-.17-.38-.29-.47-.67a9.77 9.77 0 0 1-.55-2.2c.1-.3.37-.22.57-.79a.28.28 0 0 0 0-.2v-1.31a6.46 6.46 0 0 0-.17-2 .85.85 0 0 0-.49-.41.91.91 0 0 0 0-.3v-.57a7.82 7.82 0 0 0 2.86 2.63 4.11 4.11 0 0 0 2.84.4 4.68 4.68 0 0 0 1.73-1.12c.18-.32.18-.64-.89-.94s-2.28-.55-2.84-1.85-.87-1.59-.59-3l4.58-1.86s.58-.32.55-1.71a2.49 2.49 0 0 0-1.41-2.17 1.22 1.22 0 0 0-.53-.11 5.59 5.59 0 0 0-1.85.44c-.52.23-7.72 2.48-9.35 3.09s-2.25.92-2.43 1.43a5.76 5.76 0 0 0 .05 2.27c.12.59.32.87 1.23 1.09s1.07.69 1 1.14a2.77 2.77 0 0 1-.23.87.86.86 0 0 0-.55.81 31.47 31.47 0 0 0 .08 3.31c0 .15 0 .4.22.55s-.29.45-.5.74-.39.52-.57.55 0-.12 0-.54a1.18 1.18 0 0 0-.5-1c-.22-.17-.08-.25-.07-.67a28.13 28.13 0 0 0-.39-4.18c-.1-1-.59-1.41-.92-1.49a17.43 17.43 0 0 0-2.8 0 4.43 4.43 0 0 0-1.76.42c-.5.39-.44 1.21-.42 1.48a27.44 27.44 0 0 1-.3 3.89c-.18.47-.5.57-.74 1s0 1-.12 1.06a22.61 22.61 0 0 0-3 1.26c-.86.54-2.37 1.53-2.67 2.67a4.68 4.68 0 0 0 .25 2.94 6.84 6.84 0 0 1 .37 1.67c-.8.09-10.7 1.22-11.44 1.59a.82.82 0 0 0-.69.72 11 11 0 0 0 .18 2.4c.08.29.35.5.91.62l1.75.39a34.15 34.15 0 0 1 .62 5.54c0 .05-2.08 2.62-2.27 3.79a3 3 0 0 0 .22 2.28c.35.59 2.22.64 2.58.65a.53.53 0 0 0 .21 0c0 .73.18 2.89.18 2.89.12 1 .73 6.08.85 6.48.09.37.21.68 1.19 1.06 1.26.49 1.19.47 1.17.86a1.77 1.77 0 0 0 .57 1.44c.54.52.67.4 1.93.32a6.63 6.63 0 0 0 2.89-1.48 8 8 0 0 0-.22 3.26c.23.7.65 1.24 1.44 1.17a4.09 4.09 0 0 0 2.62-1.7 11.51 11.51 0 0 0 .83-1.2 1.27 1.27 0 0 0 .95.46 1.68 1.68 0 0 0 1.39-.69s2.57.55 2.75.89a6.92 6.92 0 0 1 .4 1 .39.39 0 0 1 0 .12 1.94 1.94 0 0 0 1.54.81c1.26.12 1.81-.17 2.17-.77a4 4 0 0 0 .31-1 10.47 10.47 0 0 0 2.08.21 4.39 4.39 0 0 0 .6.69c1.56 1.43 2.84.77 3.14.55a1.54 1.54 0 0 0 0-1.91s0-.34.74-.2.87.39 1.53.17.65-.4 1.09-.82 13.33-1.83 13.78-1.93 5.57-.69 6.78-1.28 1.31-1.16 1.49-2.33 2.52-18 2.57-18.38-.07-1.24.7-1.43 1.33-.3 1.63-.86a3.86 3.86 0 0 0 .41-1.91zm-.74.53l-.2-.25a1 1 0 0 1 .2.25zm-6.44-1.1c-.21 0-.54-.26-.37-.33.56.07 5.47.71 5.94.83l.19.06L237 212s0 .05-.15 0c0 0-.39-.39.17-.54s7.77-1.07 7.77-1.07l11.32-1.39s.84-.08.86-.3-1.44-.39-1.7-.44zm-18.87-2.85a19.38 19.38 0 0 0 4.41-.23c.44-.1.59.05.57.12s.14 4.27.16 5c-2.08.28-5 .66-5.15.63s-1.16-.79-1.61-1a42.87 42.87 0 0 0-.39-4.71c.27.01.88.09 2.01.19zm-2.22-1a9.67 9.67 0 0 0-1.21-2.15.32.32 0 0 1 0-.26 20.34 20.34 0 0 0 5.75.46 7.49 7.49 0 0 0 3.78-1c.3-.08.54-.08.86 1.14a65.68 65.68 0 0 1 .27 7.4l-1.46.2c0-.25-.05-3-.15-4.24s-.15-1.59-.39-1.71-.29 0-.59.07a13.66 13.66 0 0 1-4.5.59c-1.79-.14-2.27-.38-2.36-.47zm12.39-19l1-1.28.23-.27s.54-.84 1.12-1a4.66 4.66 0 0 1 3.63.82.62.62 0 0 1 .32.67c0 .37-.59 2.36-.91 3.54a.15.15 0 0 1-.12.05 15.71 15.71 0 0 1-2.42-.77 12.21 12.21 0 0 1-2.72-1.33.34.34 0 0 1-.13-.41zm-.49.72c.15-.05.12.08 1.48.89a24.18 24.18 0 0 0 4.06 1.49 2.27 2.27 0 0 1 .15.18v.11c-.1.39 0 .55-.57.42a28.44 28.44 0 0 1-4.41-1.9 1.86 1.86 0 0 0-.28-.19c-.52-.43-.57-.93-.43-.97zm-4.72 5.3a3.59 3.59 0 0 1 1.76-2.3 8.91 8.91 0 0 1 3.07-1 17.87 17.87 0 0 1 2.74 1.12c.29.1 1.38.25 1.31.74s-.44.7-.4 1.49.22 1.16 1.38 1.73a5.31 5.31 0 0 1 2.6 2.08c.3.79 0 1-.55 1.21a15.38 15.38 0 0 1-4.65.47c-3.12 0-5.22-.08-5.94-.15 0 0-1.31-.2-1.51-.67a36.76 36.76 0 0 1 .2-4.69zm-.1 5.55c.32 0 1.12.11 1.9.24a40.11 40.11 0 0 0 5.49.34 27.21 27.21 0 0 0 4.38-.3c.52-.13.55-.44.84-.3s.15 11.53.15 11.53 0 .18-.52.25l-9 1.14s-.22-6.92-.32-7.5a6.24 6.24 0 0 0-2-3.59 3.65 3.65 0 0 1-1-.74 1.22 1.22 0 0 1-.12-.55s-.07-.38.2-.5zm-6.34-1c.34-.34 4.45-.23 4.88-.07s.32.81.35 1c0 0 .13.69-.2 1v.06a3.42 3.42 0 0 1-1.6.19 14.87 14.87 0 0 1-3.12-.13c-.25-.13-.39-.23-.44-.72s-.2-1 .13-1.31zm-.13 2.92a18.44 18.44 0 0 1 2.85.12 10.21 10.21 0 0 0 2.35-.1 2.81 2.81 0 0 1 1.7.23 1.09 1.09 0 0 1 .22 1.64 9.33 9.33 0 0 1-3.73.89 13.15 13.15 0 0 1-4.46-.29s-1.14-.3-1.24-1.16 1.85-1.23 2.31-1.34zm-1-7.35c1.39 1.58 2.7 1.14 3 1.34s-.1.79-1 .91a4.84 4.84 0 0 1-2.92-.92 4.44 4.44 0 0 1-2.22-3v-.39a2.56 2.56 0 0 1 1.33-1.39 4 4 0 0 1 .57-.25 5.58 5.58 0 0 0 1.26 3.69zm.89-5.14c-.42.12-.62.05-1.06-.54a2.16 2.16 0 0 1-.45-1.64 1.62 1.62 0 0 1 .39-.85l1.07-.38c.13 0 .24 0 .27.1s-.13.52 0 1.14a3.23 3.23 0 0 0 .57 1.36c.26.29-.35.69-.77.81zm3-3.63s.84 1.21.39 1.91a1.21 1.21 0 0 1-1.73.44 2 2 0 0 1-.62-1.83 1.11 1.11 0 0 1 .61-.91 1.47 1.47 0 0 1 .48-.1 1.37 1.37 0 0 1 .9.49zm-13 6.39a1.33 1.33 0 0 1-.67-1.56 1.63 1.63 0 0 1 .91-1.28c.57-.3 6.26-2.11 6.26-2.11l.85-.3c.13 0 .25 0 .29.12.13.3-.07 1 .2 1.64s.72.79.74 1-.2.27-.76.55h-.14a5.32 5.32 0 0 0-2.48 1.86 6.31 6.31 0 0 0-.35 2.43c0 .34-.18.54-.42.57s-1.28 0-1.64 0-.87-.05-.91-.55a3.62 3.62 0 0 0-.62-1.86 4.32 4.32 0 0 0-1.26-.5zm5.39 6.41v-2.62a.18.18 0 0 1 0-.09.68.68 0 0 1 .35.39 2.86 2.86 0 0 1-.35 2.33zm-.3-2.53v2.72a2.82 2.82 0 0 1-.76.29v-3.09a.16.16 0 0 1 .13-.17h.47s.13.03.16.25zm-1.1 0v3a.21.21 0 0 1 0 .1H228v-3.21a.16.16 0 0 1 .07-.15h.43a.27.27 0 0 1 .19.26zm-1 0v3a.18.18 0 0 1-.07.14 4 4 0 0 1-.75-.1s-.06-.09-.06-.13v-3a.15.15 0 0 1 .11-.15h.64a.28.28 0 0 1 .15.24zm-1.17 0v2.73s0 .11-.08.14a.92.92 0 0 1-.45-.38 5.49 5.49 0 0 1-.27-1.91.74.74 0 0 1 .59-.79.23.23 0 0 1 .24.23zm-.21 3.95c.35 0 2.37.08 2.89.1s.64.62.94 1.36.69 1.73.69 1.73.52 1 .82 1.43l.07.09a1.76 1.76 0 0 1 .11.33c.86 1 1.93 4.41 2 5.32s.18 1.71-.12 2-.34.25-.84.15a7 7 0 0 0-1.86.05c-.59.07-1.43.45-1.54.29a5.39 5.39 0 0 1 0-1.34 6.33 6.33 0 0 1 .55-1.85 6.87 6.87 0 0 0 .44-2.57 6 6 0 0 0-1.54-3.47 9 9 0 0 0-2.75-1.68s-1-.34-1-.72a2 2 0 0 1 1.14-1.22zm-8.54-3.46c.07-.52.13-2.28.45-2.53a5.54 5.54 0 0 1 3-.29c1 .14 1.17.56 1.19.74v.08c0 .03.15 1.83.25 2.48s.35 1.24 0 1.75-1.59.76-3.41.62c0 0-1.14-.15-1.36-.52a6.25 6.25 0 0 1-.12-2.33zm-4.1 6.19c.18-.5.79-.64 1.68-.92a10.71 10.71 0 0 1 2.47-.3c.54-.05 1.32.2 1.38-.07s-.85-.23-1.07-.27c-1.39-.24-1.31-.64-1.23-.84a.83.83 0 0 1 .82-.39c.35.07 1.53.18 1.53.18a24.63 24.63 0 0 0 2.5-.07c.76-.1 1.31-.15 1.53.05s0 .64-.79.84a9.64 9.64 0 0 1-1.86.27c-.2 0-.5.32.49.34a21.69 21.69 0 0 0 2.33-.18 5.48 5.48 0 0 1 2.42 1 .55.55 0 0 1 .07.79 2.67 2.67 0 0 1-1.11.65 15.6 15.6 0 0 1-1.61.42 29.26 29.26 0 0 1-6.45-.05c-2.37-.42-3.28-.94-3.09-1.45zM211 202.4a3.87 3.87 0 0 1 1.83-2.48c.13-.13.13 0 .13 0a3.8 3.8 0 0 0 .89 1.09 6.7 6.7 0 0 0 3.22 1 41.94 41.94 0 0 0 5.56 0 6.61 6.61 0 0 0 2.46-.5h.14c1.09-.34 1.19-.7 1.56-.82a1.42 1.42 0 0 1 1.33.12 4 4 0 0 1 1.51 2.64 4.2 4.2 0 0 1 0 .84v.05c-.23 1.11-2 1.51-3.17 1.76s-2.43.37-6.63.32-6.63-.2-7.33-.77a3.22 3.22 0 0 1-1.5-3.25zm18.39 3.19a4.56 4.56 0 0 1-.16.52 7.18 7.18 0 0 0-.57 2.18c-.08 1-.13 1.85-.4 2s-.52.27-1.66.12a49.23 49.23 0 0 0-5.07-.13 3.61 3.61 0 0 0-2.08.57s-.18.07-.27 0a5.2 5.2 0 0 0-1.71-.6c-.69-.07-2 .37-3 .34a3.37 3.37 0 0 1-1.91-.57 15.82 15.82 0 0 0-.29-2v-.05a17 17 0 0 0-.37-1.72c.12-.29.74.05.74.05a38.79 38.79 0 0 0 8 .7 36.09 36.09 0 0 0 6.53-.45 5.57 5.57 0 0 0 2.2-.96zm-18.29 2.71a.28.28 0 0 1 .25.23l.06 1.1c-.13.23-.5.27-1.19.2A32.18 32.18 0 0 1 206 209c.13-.06 4.19-.58 5.1-.7zm-11.33.26s9.63-1.56 10.37-1.56 1 .39.81.6-9.08 1.09-9.06 1.24 6.33 1.61 6.14 1.78a2 2 0 0 1-.76.24c-1.07-.2-5.33-1-6-1.28s-1.6-.55-1.58-.93a.35.35 0 0 1 .08-.09zm.6 2.64c-.57-.18-.91-.1-1-.62s-.13-.89.25-.81 7 1.73 7.17 1.88-.18.4-.22.45-.15.59-.4.5-2.53-.7-2.53-.7-2.7-.52-3.27-.7zm5.15 2a13.13 13.13 0 0 0-1.24 1.8c-.3.64-.6 1.34-.92 1.38s-.27-.34-.32-.86a13.09 13.09 0 0 0-.18-1.59c-.1-.37-.35-1.07-.07-1.31a16.35 16.35 0 0 1 2.73.61zm-1.31 14c-.08-.64-.26-2.05-.26-2.51a3.56 3.56 0 0 1 .15-1l.19-.18a37.59 37.59 0 0 0 2.8-2.84c.62-.81 1.66-2.79 2.06-3.05s.62-.35.72.37a7.57 7.57 0 0 1-1.16 5.05 24.65 24.65 0 0 1-3.71 4.66c-.52.38-.73-.04-.78-.51zm1.66 6.43a2.76 2.76 0 0 1-1-2v-.06a2.55 2.55 0 0 0 1.73.08 9.73 9.73 0 0 0 3.59-2.1c.52-.64.89-1.11 1-1a.43.43 0 0 1 0 .23.65.65 0 0 0-.06.16c0 .07 0 .15-.07.24v.08a7.61 7.61 0 0 1-1 2 22.16 22.16 0 0 1-1.93 2.3 1.6 1.6 0 0 1-2.25.06zm10.31-1.49a36.6 36.6 0 0 0-.17 4 6.37 6.37 0 0 1-1 2.33c-.55.94-1.48 1.14-2 .64a3.48 3.48 0 0 1-.37-2.85c.25-.86 1.34-3.91 1.34-3.91.07-.22 1-2.37 1.21-3.14s.1-1.14-.17-1.31-1.28 3.11-1.54 3.89a9.66 9.66 0 0 1-2.08 3.07 5.53 5.53 0 0 1-2.33 1.48c-.65.17-1.51.27-1.56-.4s.52-1.28 1-1.81 2.52-2.92 2.82-3.39a7.08 7.08 0 0 0 .49-1.91s.44-1.73.54-2.32.08-1.34 0-1.24-1.53 2.85-2.7 3.61-3.05 2-3.89 1.95a1 1 0 0 1-.79-1.73c.59-.94 1.78-1.68 4-4.46a9.22 9.22 0 0 0 2-6.24c0-.64-.18-2.52-.87-2.57s-2.74 2.55-3.46 3.46-1.86 3.39-4 3.71-1.95-.74-1.81-1.29a21.29 21.29 0 0 1 2.25-3.36.66.66 0 0 0 .11-.19s2.57-3.73 3-4.27l.86-1.19a12.25 12.25 0 0 1 1.44-1.33 5.58 5.58 0 0 1 2.19-.52c.92 0 3 .6 4.1.69a24.69 24.69 0 0 1 3.07 0c.45.2.62 1.12.62 1.12V214a16.56 16.56 0 0 1-.34 2.52 38.61 38.61 0 0 0-.45 4.06c-.08 1.26-.5 4.6-.52 5.25s-.74 5.17-.99 6.3zm5.92.81s-.3 1-.44 1.51a13.8 13.8 0 0 0 0 1.88c-.05.57-.5.47-.84.45a3.08 3.08 0 0 1-1.26-.47c-.13-.15.12-.45.12-.45a26.93 26.93 0 0 1 1.09-4.23c.5-1 .86-2.28 1.28-2.3a4.75 4.75 0 0 1 .15.92 14.07 14.07 0 0 1-.09 2.67zm4.24 4.28a23 23 0 0 0 .22-2.82 15.1 15.1 0 0 0 1 2.93zm8.33-1.76c-.2 1-.1 1.21-.72 1.43a1.4 1.4 0 0 1-1.61-.74 9.14 9.14 0 0 1-1.11-4.3c-.12-2.45.25-3.58.05-3.79s-.4-.12-.72.69a10.35 10.35 0 0 0-.45 4.2 20.36 20.36 0 0 0 .89 4.46c.4 1.26.4 1.63-.05 1.93s-1-.07-1.58-.6-1.58-2.57-2.11-5.77-.59-5.35-.94-5.42-.32.18-.42.91-.15 4.23-.13 5.4.18 4.33-1.12 5.2c-1 .7-1.52-.16-1.87-.67a1.76 1.76 0 0 1-.5-1.36c0-1 .49-2.79.74-4.35a21.51 21.51 0 0 0 .08-4.06c0-.4-.15-1.44-.34-1.39a8.37 8.37 0 0 0-1.07.82 3.73 3.73 0 0 0-.57.92c0 .08-2.35 6.31-2.47 7.1a1.69 1.69 0 0 1-.6 1c-.39.2-1.12-.45-1.12-.45.05-.67-.05-2.22.05-3.26s.7-3.68.84-4.63.65-6.29.7-7.15.39-4.25.4-5.07.26-2.57.33-3.13a1.29 1.29 0 0 0 .09-.34c.18-1.26 1.39-1.39 2.64-1.58s5.64-.13 6.61-.17 2.42-.84 3.59-.94a10.41 10.41 0 0 1 1.68-.05h.08a3 3 0 0 1 1.33.74 3.44 3.44 0 0 1 .53 1.6.52.52 0 0 0 0 .08s.07 1.26.08 1.9.07 3.07.08 3.84a7.22 7.22 0 0 0 .57 3.05c.57 1.34 2.11 4.13 2 5s0 1.83-1.28 1.81a2.42 2.42 0 0 1-2.67-1.56 16.24 16.24 0 0 1-1.33-3.59 11.9 11.9 0 0 0-.77-2.55 4 4 0 0 1-.65-1.95c0-1 .1-1.75-.12-1.7s-.49.52-.45 1.86a8 8 0 0 0 .77 3.11 9.55 9.55 0 0 1 .94 3.78 28.53 28.53 0 0 0 .65 4.87c.38 1.4 1.26 3.89 1.06 4.85zm3.41-12.39a14.67 14.67 0 0 1-1-2.76c0-.11 0-.22-.07-.35s0-.09 0-.16-.15-1.43 0-1.54.15-.34.5-.34.6.1.59.77-.02 3.66-.01 4.36zm.54-4.83s.12-.44.5-.47a.47.47 0 0 1 .54.4v5.06s0 .35-.76.34c0 0-.34-.17-.37-.44s.09-4.91.09-4.91zm-.4 13.88c-.1.3-.84.23-.84.23s-.3.13-.32-.77v-2.16a3.07 3.07 0 0 0 .89-.1 1 1 0 0 0 .3-.16 28.89 28.89 0 0 1-.03 2.94zm18.21-1.17a2.5 2.5 0 0 1-.77 1.39c-.5.45-3.46 1-5.45 1.34s-13.51 1.9-13.86 1.9-.54.1-.89-.82-.79-3-1-3.56a11.91 11.91 0 0 1-.27-3.31c.17-.22.92.84 1.51 1.21a2.29 2.29 0 0 0 .89.29l.08 2.75s0 .57.39.62a24.68 24.68 0 0 0 2.64-.3s.22 0 .23-.72 0-4.75 0-4.75a.35.35 0 0 0-.34-.32 1 1 0 0 0-.31 0 4.35 4.35 0 0 0-.51-2.3l-.14-.22 1.1-.12s.42 0 .4-.76 0-4.92 0-4.92v-1s0-.25-.55-.2-2.31.3-2.9.38a11.2 11.2 0 0 1 0-1.62v.08s-.05-.81.57-.94 9.23-1.23 10.26-1.36l10-1.43c.37-.05 1.07-.2 1.31.07s-2.35 18.29-2.39 18.6zm-17.62-2.4a3.26 3.26 0 0 0 .46-1.32c.08 0 .2 0 .22.13s-.18 4.58-.18 4.58-.2.32-.34.07a26.09 26.09 0 0 1-.16-3.48zm22.61-17.81a20.22 20.22 0 0 1-2.72.49l-11.06 1.61-1 .15-9.11 1.17s-.49.08-.59-.65.84-.77 1-.77 23.62-3.29 23.62-3.29a.57.57 0 0 1 .23 0 .66.66 0 0 1 .05.21c0 .33.1.84-.42 1.06z" fill="#692f23"/></g></g></svg>