<svg xmlns="http://www.w3.org/2000/svg" width="100" height="100" viewBox="0 0 100 100"><g data-name="Слой 2"><g data-name="Слой 1"><path fill="none" d="M0 0h100v100H0z"/><path fill="none" stroke="#692f17" stroke-linecap="round" stroke-miterlimit="10" stroke-width=".8" d="M76.37 48.08H59.91"/><path d="M41.49 39.37V17a2.44 2.44 0 0 1 2.44-2.44h36.66A2.44 2.44 0 0 1 83 17v55.17a2.44 2.44 0 0 1-2.44 2.44H60" fill="#f5f4f0" stroke="#692f17" stroke-linejoin="round"/><path fill="none" stroke="#d9d6cc" stroke-linecap="round" stroke-miterlimit="10" stroke-width=".8" d="M76.37 56.68H59.91M76.37 65.28H59.91M76.37 52.38H59.91M76.37 60.98H59.91"/><path d="M19.4 42.42h38.08a2.43 2.43 0 0 1 2.43 2.43V83a2.43 2.43 0 0 1-2.43 2.43H19.4A2.43 2.43 0 0 1 17 83V44.86a2.44 2.44 0 0 1 2.4-2.44z" fill="#fd8204" stroke="#692f17" stroke-linecap="round" stroke-miterlimit="10"/><path fill="#fff" stroke="#692f17" stroke-linecap="round" stroke-miterlimit="10" stroke-width=".8" d="M35.38 84.93v-42h6.11v42"/><path fill="#fff" stroke="#692f17" stroke-linecap="round" stroke-miterlimit="10" stroke-width=".8" d="M17.52 60.89h17.92V67H17.52M59.39 67h-17.9v-6.11h17.9"/><path d="M21 35.55a8.82 8.82 0 0 0 0 6.62l18 .22-12.93-12.16A9.56 9.56 0 0 0 21 35.55z" fill="#f5f4f0" stroke="#692f17" stroke-miterlimit="10"/><path d="M55.83 35a9.55 9.55 0 0 0-4.76-5l-13 12.31h17.75a9.57 9.57 0 0 0 .01-7.31z" fill="#f5f4f0" stroke="#692f17" stroke-miterlimit="10"/><path fill="none" stroke="#692f17" stroke-linecap="round" stroke-miterlimit="10" stroke-width=".8" d="M26.55 37.75l11.64 4.76M38.19 42.51l12.96-4.76"/><path d="M62 24.7c0 3.9-1.16 5.06-4 5.06s-4-1.16-4-5.06 1.16-4.88 4-4.88 4 1 4 4.88zm-2.41 0c0-2.56-.35-3-1.58-3s-1.6.42-1.6 3 .39 3.09 1.6 3.09 1.55-.53 1.55-3.07zm10.09-4.53l-9.42 15.28h-2.54l9.37-15.26zm3.78 10.53c0 3.92-1.16 5.06-4 5.06s-4-1.14-4-5.06 1.16-4.86 4-4.86 4 1.01 4 4.86zm-2.41 0c0-2.56-.35-3-1.58-3s-1.6.39-1.6 3 .39 3.11 1.6 3.11 1.59-.53 1.59-3.09z" fill="#692f17"/></g></g></svg>