<svg xmlns="http://www.w3.org/2000/svg" width="100" height="100" viewBox="0 0 100 100"><title>день-рождения</title><g id="Слой_2" data-name="Слой 2"><g id="Слой_1-2" data-name="Слой 1"><rect width="100" height="100" fill="none"/><rect x="63.58" y="92.27" width="17.09" height="2.15" rx="0.59" ry="0.59" fill="#dbc19f" stroke="#692f17" stroke-miterlimit="10"/><path d="M71.23,85.86V49a.89.89,0,0,1,.9-.9h0a.9.9,0,0,1,.9.9V85.86" fill="#d9d6cc" stroke="#692f17" stroke-linejoin="round" stroke-width="0.8"/><path d="M70.59,90.84v-4a1.54,1.54,0,0,1,1.54-1.54h0a1.54,1.54,0,0,1,1.54,1.54v4" fill="#d9d6cc" stroke="#692f17" stroke-miterlimit="10"/><path d="M65.4,92.19a1.37,1.37,0,0,1,1.37-1.36H77.49a1.36,1.36,0,0,1,1.36,1.36" fill="#d9d6cc" stroke="#692f17" stroke-miterlimit="10"/><path d="M51.45,75.69a2.65,2.65,0,0,1,4-2.24l0-.13a3.66,3.66,0,0,1,7.23.68h.07a2.3,2.3,0,0,1,3.83,1.69H51.45Z" fill="#f5f4f0"/><path d="M56.76,75.69a2.65,2.65,0,0,0-5.3,0" fill="none" stroke="#692f17" stroke-miterlimit="10" stroke-width="0.8"/><path d="M66.64,75.69a2.3,2.3,0,0,0-3.89-1.64" fill="none" stroke="#692f17" stroke-miterlimit="10" stroke-width="0.8"/><path d="M62.35,75.7a3.59,3.59,0,0,0,.4-1.64,3.66,3.66,0,0,0-7.24-.73" fill="none" stroke="#692f17" stroke-miterlimit="10" stroke-width="0.8"/><ellipse cx="63.07" cy="69.25" rx="1.19" ry="1.18" fill="#f5f4f0" stroke="#692f17" stroke-miterlimit="10" stroke-width="0.8"/><path d="M49.25,75.69H68.93a.72.72,0,0,1,.73.72v.89a.73.73,0,0,1-.73.72H68L67,92.48a2,2,0,0,1-2,2H53.25a2,2,0,0,1-2-2L50.22,78h-1a.73.73,0,0,1-.73-.72v-.89A.72.72,0,0,1,49.25,75.69Z" fill="#fd8204" stroke="#692f17" stroke-linejoin="round" fill-rule="evenodd"/><line x1="68.32" y1="77.98" x2="50.26" y2="77.98" fill="none" stroke="#692f17" stroke-linejoin="round" stroke-width="0.8"/><ellipse cx="60.86" cy="78.1" rx="1.35" ry="1.34" fill="#692f17"/><path d="M60.94,77.78S56.52,89.11,50.56,87.94c-4.26-.83-.33-8.29-.33-8.29" fill="none" stroke="#692f17" stroke-linejoin="round"/><path d="M29.25,44.13a18.74,18.74,0,0,1-6.06-2.35,36,36,0,0,1-.6-6.58S20.74,18,34.65,18.21c14.18.17,13,17.06,13,17.06a40.18,40.18,0,0,1-.53,6.89A16.38,16.38,0,0,1,41,44.22" fill="#dbc19f" stroke="#692f17" stroke-miterlimit="10"/><path d="M44.26,39.3" fill="none" stroke="#d57e2a" stroke-miterlimit="10" stroke-width="0.97"/><ellipse cx="33.19" cy="90.82" rx="2.42" ry="3.68" fill="#dbc19f" stroke="#692f17" stroke-miterlimit="10" stroke-width="0.8"/><ellipse cx="38.47" cy="90.82" rx="2.42" ry="3.68" fill="#dbc19f" stroke="#692f17" stroke-miterlimit="10" stroke-width="0.8"/><path d="M62,53.67a15.06,15.06,0,0,1,1.56.24c.52.13.82.08.85.52a9,9,0,0,1,.18,1.3c0,.53-.37.9-.44,1.47s-.67.85-.9,1.1c-.55.6-4-.3-4.57-.59s-.77-1.23-.67-2.49,1.76-1.5,2-1.85a3.74,3.74,0,0,0,.7-2.1c0-1-.18-1.36.3-1.37s1,1,1,2.11A11.18,11.18,0,0,0,62,53.67Z" fill="#f7e8d2" stroke="#692f17" stroke-miterlimit="10" stroke-width="0.8"/><path d="M35.77,77.59H30.91L31.4,88c0,1.93,1,2.79,2.18,2.79S35.77,90,35.77,88c0,1.93,1,2.79,2.25,2.79S40.27,90,40.27,88l.51-10.44Z" fill="#f7e8d2" stroke="#692f17" stroke-miterlimit="10" stroke-width="0.8"/><path d="M58.9,53.16l-1-.25c-.19-.76-.58-1.31-1.12-1.42l-6.75-1.6S45,45.76,43.43,45a12.45,12.45,0,0,0-2.86-1.28h0a18.54,18.54,0,0,0-5.49-.8c-4,0-7.26.95-9.23,2.7-2.22,1.68-7.08,19.3-6.45,19.74l-.05,1c0,.4,1.08.78,2.45.84s2.12-.2,2.14-.6l0-.93A2.28,2.28,0,0,0,24.8,65l2.75-11.35c0,.74,2.49,6.85,2.49,6.85s11.86-.3,11.86-1l1.57-6.36A32.2,32.2,0,0,0,48.29,56c2.31,1,8.15,1.87,8.58,1.39l.87.22c.39.1,1-.9,1.32-2.23S59.29,53.26,58.9,53.16Z" fill="#fd8204" stroke="#692f17" stroke-linecap="round" stroke-linejoin="round"/><path d="M19.75,67s0,4.12,1.26,5.16,3.11,1.37,2.73.38a19.93,19.93,0,0,1-.68-2.66,2,2,0,0,1,.89.75c.4.58.62-.11.19-.94s-1.09-2.74-1.09-2.74Z" fill="#f7e8d2" stroke="#692f17" stroke-miterlimit="10" stroke-width="0.8"/><path d="M62,53.67A1.5,1.5,0,0,0,61,55.4c.31,1.24.93,2.92.93,2.92" fill="none" stroke="#692f17" stroke-linecap="round" stroke-linejoin="round" stroke-width="0.8"/><line x1="35.73" y1="88.84" x2="35.73" y2="79.57" fill="none" stroke="#692f17" stroke-linecap="round" stroke-miterlimit="10" stroke-width="0.8"/><path d="M41.9,59.48a26,26,0,0,1-6.42.66,19.62,19.62,0,0,1-5.84-.78C25.07,63,24.37,70.74,24.37,77.59c0,1.17,5.1,2.13,11.39,2.13s11.39-1,11.39-2.13h.11C47.27,70.77,46.35,63.17,41.9,59.48Z" fill="#d9d6cc" stroke="#692f17" stroke-linecap="round" stroke-linejoin="round"/><path d="M38.85,43.65c0,2.45-1.72,4.44-3.84,4.44s-3.84-2-3.84-4.44" fill="none" stroke="#692f17" stroke-linecap="square" stroke-miterlimit="10"/><path d="M32.7,42.27v.93c0,.87,1,1.57,2.32,1.57s2.32-.7,2.32-1.57v-.93" fill="#f2e3d0" stroke="#692f17" stroke-miterlimit="10" stroke-width="0.8"/><path d="M44.36,33.61a56.71,56.71,0,0,0,.19-5.92c-3.26,1-4.4-2.33-4.4-2.33a9.05,9.05,0,0,1-5,3.68,17.7,17.7,0,0,1-9.74-.66,23.62,23.62,0,0,0,.2,5.17c.66,4.8,3.58,8.88,9.41,8.95A9.09,9.09,0,0,0,44.36,33.61Z" fill="#f2e3d0" stroke="#692f17" stroke-miterlimit="10" stroke-width="0.8"/><path d="M37.9,37.68a8.21,8.21,0,0,1-3.14.58,8.34,8.34,0,0,1-3-.52" fill="none" stroke="#692f17" stroke-linecap="round" stroke-miterlimit="10" stroke-width="0.6"/><path d="M36,35.82a4.53,4.53,0,0,1-1.21.2,3.69,3.69,0,0,1-1.15-.18" fill="none" stroke="#692f17" stroke-linecap="round" stroke-miterlimit="10" stroke-width="0.4"/><path d="M31.94,32.45a3.8,3.8,0,0,0-2.44-1.22,3.8,3.8,0,0,0-2.44,1.22" fill="none" stroke="#692f17" stroke-linecap="round" stroke-miterlimit="10" stroke-width="0.6"/><ellipse cx="29.5" cy="32.45" rx="1.07" ry="0.97" fill="#692f17"/><path d="M42.21,32.45a3.8,3.8,0,0,0-2.44-1.22,3.8,3.8,0,0,0-2.44,1.22" fill="none" stroke="#692f17" stroke-linecap="round" stroke-miterlimit="10" stroke-width="0.6"/><ellipse cx="39.77" cy="32.45" rx="1.07" ry="0.97" fill="#692f17"/><path d="M36.23,39.38a4.39,4.39,0,0,1-2.78,0" fill="none" stroke="#692f17" stroke-linecap="round" stroke-miterlimit="10" stroke-width="0.4"/><path d="M44.58,22.46l-9.71-17-9.71,17a.8.8,0,0,0-.34.59c0,1.26,4.5,2.29,10,2.29s10-1,10-2.29A.8.8,0,0,0,44.58,22.46Z" fill="#fd8204" stroke="#692f17" stroke-linejoin="round"/><polygon points="31.04 17.78 31.69 19.79 33.8 19.79 32.09 21.03 32.74 23.03 31.04 21.79 29.33 23.03 29.98 21.03 28.28 19.79 30.39 19.79 31.04 17.78" fill="#fff"/><polygon points="35.11 11.08 35.76 13.09 37.87 13.09 36.16 14.33 36.81 16.33 35.11 15.09 33.4 16.33 34.05 14.33 32.35 13.09 34.46 13.09 35.11 11.08" fill="#fff"/><polygon points="38.78 17.78 39.43 19.79 41.54 19.79 39.83 21.03 40.48 23.03 38.78 21.79 37.07 23.03 37.73 21.03 36.02 19.79 38.13 19.79 38.78 17.78" fill="#fff"/></g></g></svg>