<svg xmlns="http://www.w3.org/2000/svg" width="300" height="250" viewBox="0 0 300 250"><g data-name="Слой 2"><g data-name="приведи друга"><path fill="none" d="M0 0h300v250H0z"/><path d="M63.49 41.75s-.53 5.47-2.2 6.83-3 2.28-3 4.71.46 4.63 2.51 5.47a4.16 4.16 0 0 1 2 1.14c.53.76 4 7.14 7.9 10.7s15.18 7.06 15.18 7.06c.53.08.08 3.57.68 4.93s2.81 3.34 7.29 3.11 5.54-.61 6.45-2.51a9.89 9.89 0 0 0 .53-4.71l8.58-3.26c2.88-1.29 12-8.65 12-8.65 2-2.66 3.8-7 4.18-7.44s3.64-.91 4.1-1.29a6.2 6.2 0 0 0 .76-4.18 3.67 3.67 0 0 0-1.9-2.35s-2.2-1-3.11-5.69-3.72-6.45-5-6.83-10.1-1-10.1-1c-.38 0-1.44-.84-2.2-2.88S103 24.21 103 24.21c-1.75-2-.53 5.85-.76 8.28s.53 4.25-3.42 5.24-12.07 1.14-13.44.61-3-4.25-3-4.25-.15 3.64-2 4.48-6.11-.57-6.11-.57a5.17 5.17 0 0 1-3.95 2.66c-3.03.56-6.32-.51-6.83 1.09z" fill="#f7dfcb"/><path d="M55 40.61c.7-.41 1.82-4 2-6.6a20 20 0 0 1 3-8.65 60.05 60.05 0 0 1 5.85-7.21 17.17 17.17 0 0 1 8-3.95c2.81-.53 6.6-2.66 9.72-3.57s7.9-1.44 11.31.08a10.25 10.25 0 0 1 5.54-.91 60.91 60.91 0 0 1 16.63 5.31C122.48 18 127.87 26 128.48 27.55s2.43 9.26 2.88 10.93a7.39 7.39 0 0 0 4.86 4.52c2.28.53 4.48.84 5.62-.3s2-2.35 2-3-6.76-5.47-7.67-6.15 3.49-.15 5.09-1.67 2.66-5.39 2.43-7.36-.84-1.75-.84-1.75-12.37 4.63-12.68 3.95-2-7.59-3.95-9.95-9.66-11.92-21.81-13.28-24.29.61-28.17 2.2a24.33 24.33 0 0 0-6.68 4.25s-5.16 1-7.29 2.81-6.68 7.52-7.9 11.92-2.13 9.26-1 12.68.71 3.79 1.63 3.26z" fill="#fd8204"/><path d="M102.74 48.7s2.2-3 5.31-3.42 4.71.08 5.85 1.29 2.35 2 2.13 2.66-1.06 1.06-3.34 1.44-3 1.14-5.31.68a8 8 0 0 1-4.64-2.65z" fill="#fff"/><path d="M106.16 47.14a2.7 2.7 0 0 0 .61 2.88c1.14 1.44 3.34.91 3.87.68a2.41 2.41 0 0 0 1.59-2.28c-.08-1.37-.15-2.58-.68-2.73s-4.25-1.13-5.39 1.45z" fill="#a9d2f1"/><path d="M72.83 49.3s2.2-3 5.31-3.42 4.71.12 5.86 1.3 2.35 2 2.13 2.66-1.06 1.06-3.34 1.44-3 1.14-5.31.68a8 8 0 0 1-4.65-2.66z" fill="#fff"/><path d="M76.25 47.75a2.7 2.7 0 0 0 .61 2.88c1.14 1.44 3.34.91 3.87.68A2.41 2.41 0 0 0 82.32 49c-.08-1.37-.15-2.58-.68-2.73s-4.26-1.1-5.39 1.48z" fill="#a9d2f1"/><path d="M73.89 85.93s-.68 1.21.23 3.72a41.4 41.4 0 0 0 7 10.93 30.59 30.59 0 0 0 4.78 3.64c.3.3 1.06 6.3 1.37 8.81s-.08 8.65.38 9.34 2.13 1.29 4.71 1.59 7.74 0 8.35-1 .08-2.13.46-4.86.46-11.62 2.13-13.13 7.29-5.62 8.43-8A52.09 52.09 0 0 0 115 86.62c.15-1.75-.84-2.43-2.43-2s-5.39-1.67-6.91-1.9a32.7 32.7 0 0 0-4.86 0s-1.8 2.91-4.66 3.14-7.82-.61-9.19-2.43-3.57-1-3.95-.84-6.07 1.82-6.6 2-2.51.21-2.51 1.34z" fill="#fff"/><path d="M115.34 85.63c-.07.22-1 8.58-3.95 12.15s-8 6.53-8.58 8-1.29 12.07-1.59 14 .08 3-3 3.8-8.28.08-9.49-.3-1.44-1.44-1.59-3 .15-12.3-.46-13.51-.53-2.2-1.21-2.51-5.69-3.49-7-5.77a85.06 85.06 0 0 1-5-11.46c-.46-1.9-3.42.53-3.87 1.06a12 12 0 0 0-1.52 5.92c.08 2.51-1.59 12.83-1.14 15s1.37 13.59 1.82 15.49 1.75 7.06 2.13 7.52 8.35 2.58 15.41 3 23.31-1.21 26-2 6.83-2.88 7.52-3.64a3.79 3.79 0 0 0 1.14-3.19c-.23-1.37-.84-11-1.21-13.74a130.16 130.16 0 0 1-.15-16.4c.3-3.34 1.29-6.76.84-8.2s-3.96-5.79-5.1-2.22z" fill="#fd8204"/><ellipse cx="82.66" cy="120.55" rx="4.14" ry="5.01" transform="rotate(-24.02 82.688 120.574)" fill="#fff"/><ellipse cx="105.13" cy="122.15" rx="5.01" ry="4.14" transform="rotate(-75.12 105.137 122.145)" fill="#fff"/><ellipse cx="114.62" cy="102.33" rx="5.01" ry="4.14" transform="rotate(-75.12 114.629 102.334)" fill="#fff"/><ellipse cx="69.53" cy="100.66" rx="5.01" ry="4.14" transform="rotate(-75.12 69.53 100.66)" fill="#fff"/><path d="M53.09 29.68l-2.66 6.76C49.83 39.62 49 49 49 49a47.92 47.92 0 0 0-.61 9.87s.15 7.21.84 12.07 2.13 10.25 4.4 12.68 4.1 2.73 4.86 2.66 1.59.68 2.28 1.52 3.34 3.11 4.86 2.81 2.88-1.37 3.11-2.28 2.58-2 3.49-2.43 9.26-2.73 10-3 3.42-1.29 3.72-1.75S87.48 79 86 78s-12.37-3.42-16.78-9.19-6.38-9-6.38-9-2.66-.15-3.42-2.28-1.37-5.69-.76-6.68 3-2.35 3.34-3 1.59-6.15 2-6.68-.61-.91 1.29-.91 4.56.53 6.23-.23 3.19-2.51 3.95-2.28 3.57.53 3.57.53c1.29-.76 3.57-5.24 3.8-5.24s1.82 5.16 2.51 5.24 8 1 12.22-.15 5.16-3 5.16-3c.53-1.52.15-9.72-.38-10.7s2.13 1 2.58 2.51 2.81 9.34 4 10.17 9 .15 11.31 1.29a7.72 7.72 0 0 1 4.18 3.87c1.29 2.2 1.29 6.07 1.9 7.14s3.11.53 3.64 2.2.76 3.11.08 4.18a8.7 8.7 0 0 1-2.58 2.88c-1 .53-3.19 5.47-6.38 8.28s-11.31 8.73-15.26 9.87-5.09 1.37-5 2-.23 2.43 2.58 3.42 9 1.67 10.17 1.9a21.74 21.74 0 0 1 6.53 2c2.51 1.37 3.49 1.9 4.1 1.67s4.25-2 6.53-3.34 4.78-5 5.54-7.44 1.14-11.92.76-16.32-.68-14.42-1.9-17.08a18.62 18.62 0 0 0-2.88-4.33c-.15-.3-1.9-9.49-2.13-9.87s-6.45-9.26-9.49-11.62-12.37-7.21-20.57-7.52-13.44-.3-14-.15-10.8 4.51-12.17 4.66-6.38 2.43-6.38 2.43c-2.28 2.35-6.6 7.21-7.14 7.9a7.51 7.51 0 0 0-2.28 4.33c-.23 2.35-.68 8.35-2.13 10.1s-2.35 2.35-2.35 1.82-2.72-8.38-.52-11.7z" fill="#efb000"/><path d="M98.64 13.2a14.55 14.55 0 0 0-7.74 2.28 25.41 25.41 0 0 0-7.14 8.65s-2.2-3.8 1.29-8.28a18.72 18.72 0 0 0-9 9.95c-2.58 7.06-1.59 11.39-1.59 11.39S72 33 71.69 30.21s1.52-12.15 2-13.06S67.29 19 65 25.43s-3.1 11.08-2.65 13.13c0 0-1.44-.53-1.59-3.34s-.61-1.44-.61-1.67a71.47 71.47 0 0 1-1.75 7.82 24.61 24.61 0 0 1-4.63 7.44c-2 2.43-4.25 3.8-4.63 7.06s-.76-4 .76-7 4.56-5.69 4.93-6.68 1.44-3.34 2-5.16.84-7.59 2.66-10.93 5.62-8.28 9-10.17a25.17 25.17 0 0 1 7.74-2.51s8-4.48 11.54-3.95S97 11 98.64 13.2zM98.11 10.39s4-.91 10.25 1.06a46.69 46.69 0 0 1 14.35 8c2.2 1.9 5.39 7.44 5.39 7.44l.84 2s-5.77-6.53-9.64-9.11a38.27 38.27 0 0 0-10.78-4.4c-.68-.08 5.62 3 6.76 10.17A34.47 34.47 0 0 0 98.64 13.2zM58.1 60.43a21.76 21.76 0 0 0-5.24 11.77c-.68 7 1.44 12.45 3.11 13.36s2.81.3 2.81-.84-1.9-5.85-2.28-8.43a30 30 0 0 1 1-10.25c.75-2.04 1.74-7.51.6-5.61zM126.81 61.56s2 .08 3.87 5.77 1 10.25.84 12.53-.15 2.66.91 2.58-2 2-3.11 2.51-1.9-.15-1.59-1.14 2.13-6.07 2.51-7.74-.53-7.67-1.29-9.57-2.14-4.94-2.14-4.94z" fill="#f6c966"/><path d="M144.36 132.78s-.71-2.11.85-2.73 2.45-.83 3-1.48 1.28-1.62.85-3.93-1.45-6.58-.17-8.77 1.91-2.68 2.85-2.45 1.14 2.9 1.25 3.87a10.79 10.79 0 0 0 2.68 5.58c1.74 1.62 6.12 3.81 6.78 4.84s.77 3.59.85 4.56.74 1.34.51 2.9-.54 3.19-.91 4.73.51 1.79-1.37 3.53-1.74 2.82-3.53 2.9-8 0-10.88-1-3.7-4.38-3.76-5.69a15 15 0 0 1-.11-3.25c.23-.48.12-3.67 1.11-3.61zM55.48 162.21a21.7 21.7 0 0 0 .8 6 36 36 0 0 0 4.78 8.83 5.83 5.83 0 0 0 4.5 1.77c.54-.17.85-1.25.85-2.28a12.75 12.75 0 0 1 .4-3c.26-1.11-.11-3.16-.63-5.47s-1-5.89-1.37-6.26-3 1.11-4.1.8-4.43-1.98-5.23-.39z" fill="#f9e5cc"/><path d="M69.6 135.28s-.74 1.94 2.16 2.9 10.28 2.28 22.32 2.45a84.1 84.1 0 0 0 24.92-3.87c1.11-.43 2.25-.63 2.51-2.62s.63-2.59.17-3.87-1.28-.83-1.82-.91-7.52 4.93-18.9 5.41-25.68-1.25-25.68-1.25c-3.7-1.05-5-1.11-5.3-.63s-.21 1.37-.38 2.39z" fill="#e16702"/><path d="M67.21 145.42s.4-6 2.22-6.89 3.81 0 6.6.74 13.84 2 24.09 1.31 16.83-2.88 18.39-3.59 2.28-2 3.07-1.31 3.36 8.77 3.36 8.77c.31 3.16.85 10.88 1.54 15.26s.57 9.17-.51 10.31-1.85 3.59-9.51 4.16S91 175.82 87 175.59s-12.58-.91-16-1.88-3.73-.83-4.44-6.43-.8-9.59-.57-10.76 1.22-11.1 1.22-11.1z" fill="#fd8204"/><path d="M66.81 173.94s-1 4.38-.68 5.86a4 4 0 0 0 2.68 3.42c1.85.68 16 2.08 17.94 2.22s19.67.17 21.52.17 8.94-1.14 10.48-1.42a45.54 45.54 0 0 0 6.38-1.94c.34-.26 3.1-2.53 2.68-5.35s-.74-5.55-1.65-5.64-2.56 2-12.36 3-27.07 1.85-33.48 1.25S69 173 68.07 173.15s-1.14.02-1.26.79z" fill="#fff"/><path d="M76.26 185.67c0 .21 1 3.59 2.45 4.44s8.83 1.62 10.36 1.54a36.59 36.59 0 0 0 5.69-1.48s2.08 1.25 9.74 1.37 8.77-2.62 8.77-2.62a22.77 22.77 0 0 0-.11-3.64c-.2-.14-9.57.71-18.33.46s-18.39-1-18.39-1-.23.05-.18.93z" fill="#f9e5cc"/><path d="M76.61 191.14c0 .18 0 1.88 1.94 3.7s6 2.25 8.77 2.39 8-1.31 8-1.31 10.28.71 12.75.51 4.61-3 4.61-3 .71-1.82-.23-2.33-4.81.4-6.78.4-10.39-.48-10.93-.63a25.48 25.48 0 0 0-4.33.28 79.23 79.23 0 0 1-10.56-.15c-3.27-.43-3.1-.74-3.24.14z" fill="#fff"/><path d="M79 197.17L83.84 214s-.17 1.62 2.22 2.22a27.64 27.64 0 0 0 9 .23 19.29 19.29 0 0 1 3.07-.46s7.94-.48 8.88-1 1.34-3.44 1.37-3.64 2.28-10.45 2.68-12 .65-5.35.68-5-.23 1.37-5 1.71a106.62 106.62 0 0 1-11.39-.06 27.09 27.09 0 0 1-8.88 1.14c-4.83-.31-7.47-1.14-7.47.03z" fill="#d2a274"/><path d="M83.38 216.13S80.51 219 80 219.44s-4.07 2.42-5.07 5-1.25 4.87-.4 6.32a6.3 6.3 0 0 0 4.64 3.24 28.65 28.65 0 0 0 8.26 0 87.92 87.92 0 0 0 8.94-3.13c.85-.34 2.36.83 2.62 1a34.86 34.86 0 0 0 8.65 2.22 18.94 18.94 0 0 0 9.51-2.16c1.85-1 3.13-2.11 3.13-4.1a7.34 7.34 0 0 0-2.79-5.75 62 62 0 0 0-6.55-4.33c-.4-.57-1.74-2.25-2.39-2.39s-4 .37-5.58.46-10.19.46-10.19.46c-.35.03-8.52-.86-9.4-.15z" fill="#efb000"/><path d="M69 132.4s-1.52-13.51-1.52-14.65-.46-12.45-.3-15.56.82-10.87.82-10.87.68-2.81-2.13 0c-.39.39-3.72 3.95-4.48 7.67a74.78 74.78 0 0 1-3.29 11.31 106.53 106.53 0 0 0-3.95 14c-.3 2.28.3 5.54.08 8.2s-2 4.56-2.28 7-2 6.45-.46 8.88c1 1.46 1.15 3.05 2.34 4.39a5.9 5.9 0 0 0 .79 1.91c-.14-.06-1.11 2.48-.4 3.81s0 2.79 3.25 3.47 7.49.31 7.91-.34a3.91 3.91 0 0 0 1-2.22c.06-1.08-.48-2.33-.4-3.36s.4-2.45.4-3.13c0 0-.07-.11-.2-.18a35.74 35.74 0 0 1 .9-6.26 110.51 110.51 0 0 0 2.73-11.62 3.74 3.74 0 0 0-.81-2.45zM120.34 92.92s-.2-5.18.85-5.3 3.36 1.4 4.5 3.13 6.29 9.31 6.72 10.25 4.47 9.17 5.07 10.42a9.61 9.61 0 0 0 2 2.51c.94.28 6.89 3 7.46 3.87s.8 3.79 1.25 5.41 1.11 3 .85 3.93-2.42 2-2.62 2.16-2.08 1.11-2.11 1.54a9.52 9.52 0 0 1-.06 2.68c-.28.68-1.17 1.08-1.2 2.28s-.14 2.36-.4 2.33-2.45-.51-2.45-.51-2.33 1.65-4 .85-4.56-3.87-5.47-4.84-6.49-6.15-6.49-6.15c-.23-.4-2.68-4.38-2.73-5.35S120 112 119.82 110.4s-.91-14.86.52-17.48z" fill="#fff"/><ellipse cx="74.69" cy="146.29" rx="5.01" ry="4.14" transform="rotate(-75.29 74.694 146.292)" fill="#fff"/><ellipse cx="82.24" cy="165.34" rx="5.01" ry="4.14" transform="rotate(-75.5 81.756 164.822)" fill="#fff"/><ellipse cx="103.5" cy="149.25" rx="4.14" ry="5.01" transform="rotate(-7.6 103.573 149.33)" fill="#fff"/><ellipse cx="120.28" cy="166.26" rx="4.14" ry="5.01" transform="rotate(-7.6 120.364 166.323)" fill="#fff"/><ellipse cx="120.51" cy="141.43" rx="4.14" ry="5.01" transform="rotate(-7.6 120.579 141.462)" fill="#fff"/><path d="M71.71 43.67A15.51 15.51 0 0 1 76 41.9c2.45-.57 4.27-.51 4.5-1s-.74-1.14-2.51-1-5.31 1.72-6.28 3.77zM109.35 40.82s4.73 1.25 5.75 1.71a7 7 0 0 0 1.71.63c.17 0-.34-1.42-2.33-2.28s-3.6-1.43-5.13-.06zM93.93 59.78a14.47 14.47 0 0 0 3.3-.19c1.1-.3 1-.34 1.21-.15s-.91 1-2.09 1.21a6 6 0 0 1-3.35-.07c-.61-.38-.95-.76-.76-.87a16.19 16.19 0 0 1 1.69.07zM89.83 70.1s1.75.23 3.68.34a20.51 20.51 0 0 0 5.28-.61c.95-.23 2-.3 2.13-.08s-1.1 1.25-4.21 1.67a13.11 13.11 0 0 1-6.15-.57c-.69-.25-1.9-.93-.73-.75zM83.15 65.21a1.74 1.74 0 0 0-1.14.38c-.38.34-.8-.38-.34-.91s1.29-.3 2.32.11 2.7 1.94 9.15 1.94a31.42 31.42 0 0 0 11-1.75c.76-.27 2.35-1.33 3.19-1.37a2.2 2.2 0 0 1 1.86 1c.11.38-.53.15-.68 0a1.71 1.71 0 0 0-1.21-.3c-.38.15-4.74 2.92-9.45 3.61a24.94 24.94 0 0 1-9.11-.27c-1.45-.2-5.09-2.37-5.59-2.44zM115.27 46.08a6.1 6.1 0 0 0-2.16-1 9.86 9.86 0 0 0-2.14-.3 10.44 10.44 0 0 0-5.44 1.2l-.16.08a5.29 5.29 0 0 0-2.81 3.34c-.38 1.14.15 1.48.57 1.33a3.83 3.83 0 0 1 2.24.23c1 .34 2.2.68 2.2.68a14.16 14.16 0 0 0 6.68-.76 3.36 3.36 0 0 0 2.2-2.28c-.01-.47.34-1.31-1.18-2.52zm-9.15 4a3.1 3.1 0 0 0-1.75-.15c-.49.19-1 .11-.68-.65a9.63 9.63 0 0 1 2-2.16c-.39 1.81.24 2.68.59 3zm3.38.48a4.09 4.09 0 0 1-1-.09l-.18-.05a2.16 2.16 0 0 1-1.82-2 1.32 1.32 0 0 1 .46-1.36.61.61 0 0 1 .69 0c.36.26.1.49 0 .71a1.14 1.14 0 0 0 .17 1.07 1.41 1.41 0 0 0 1.34.65 1.47 1.47 0 0 0 1.21-1c.09-.39-.36-.94-.05-1.34a.54.54 0 0 1 .78-.06c.57.49.38 1.48-.08 2.35a1.87 1.87 0 0 1-1.52 1.14zm4.63-.67a4.12 4.12 0 0 1-2.73.84h-.07a4.18 4.18 0 0 0 1.13-1.86 2.86 2.86 0 0 0-.39-2.42c.84.08 2 1.33 2.36 1.77s.42 1.05-.3 1.69z" fill="#692f23"/><circle cx="110.14" cy="47.84" r=".59" fill="#fff"/><path d="M86.54 48.56a5.93 5.93 0 0 0-3.19-3.64c-1.54-.6-4.84-.46-7.57.88a7.15 7.15 0 0 0-3.64 3.5c-.26.46.17.91.51 1.08A7 7 0 0 0 76 52a18.08 18.08 0 0 0 2.88.48 17.19 17.19 0 0 0 4.53-.83 4.46 4.46 0 0 1 1.77-.4 2.4 2.4 0 0 0 1.36-.25c.26-.19.29-1.18 0-2.44zM73.65 50l-.08-.06s-.58-.26 0-.85a6 6 0 0 1 1.88-1.42 3.17 3.17 0 0 0-.18 1.7 3.45 3.45 0 0 0 .7 1.78A13.6 13.6 0 0 1 73.65 50zm8.06-.75a2.19 2.19 0 0 1-1.25 1.62 3.23 3.23 0 0 1-3-.26 2.83 2.83 0 0 1-1.05-2.31c.09-.2.2-.46.77-.43.27 0 .41.25.47.5a1.35 1.35 0 0 0 .14.79 1.38 1.38 0 0 0 1.4.75 1.34 1.34 0 0 0 1.44-.91 2.18 2.18 0 0 0-.13-1.45s.06-.73 1-.06a2.77 2.77 0 0 1 .2 1.73zm3.87 1.31c-.23.06-.48-.23-.91-.11s-1.81.55-2.85.83a3.74 3.74 0 0 0 1.12-2.16 3.5 3.5 0 0 0-.65-2.51h.14a5 5 0 0 1 3.3 3.56c.01.27.07.3-.16.36z" fill="#692f23"/><circle cx="80.67" cy="48.13" r=".59" fill="#fff"/><circle cx="88.66" cy="104.38" r=".59" fill="#692f23"/><circle cx="94.79" cy="101.93" r=".59" fill="#692f23"/><circle cx="100.16" cy="104.14" r=".59" fill="#692f23"/><circle cx="94.35" cy="109.09" r=".59" fill="#692f23"/><circle cx="89.13" cy="113.49" r=".59" fill="#692f23"/><circle cx="99.25" cy="113.06" r=".59" fill="#692f23"/><circle cx="93.99" cy="117.42" r=".59" fill="#692f23"/><circle cx="89.09" cy="120.44" r=".59" fill="#692f23"/><circle cx="98.96" cy="120.33" r=".59" fill="#692f23"/><circle cx="68.51" cy="176.6" r=".75" fill="#692f23"/><circle cx="74.17" cy="180.98" r=".75" fill="#692f23"/><circle cx="81.1" cy="178.02" r=".75" fill="#692f23"/><circle cx="88.06" cy="182.11" r=".87" fill="#692f23"/><circle cx="95.83" cy="178.38" r=".87" fill="#692f23"/><circle cx="102.71" cy="181.93" r=".87" fill="#692f23"/><circle cx="110.29" cy="178.29" r=".87" fill="#692f23"/><circle cx="117.1" cy="181.04" r=".87" fill="#692f23"/><circle cx="122.51" cy="175.7" r=".87" fill="#692f23"/><path d="M163.84 133.35a12.52 12.52 0 0 1-.11-3.47 4.32 4.32 0 0 0-1.08-3.53 18.72 18.72 0 0 0-3.07-1.71l-1.37-.91a3.21 3.21 0 0 1-2.28-1.08 9.46 9.46 0 0 1-2.33-6c-.09-2.48-.46-3.67-2.28-3.93s-3.13 2.48-3.3 3.53a15.56 15.56 0 0 0-.17 2.16 33.36 33.36 0 0 0-4.27-3.07 12.59 12.59 0 0 0-2.68-1.37 3 3 0 0 0-.91-.8c-.6-.34-1.17-.37-1.14-.51s-3.56-6.89-4.61-9.05a115.9 115.9 0 0 0-6.39-10.46 10 10 0 0 0-1.54-2.15s-2.62-2.16-1.2-3.19 3.65-1.81 5.89-3.03 2.85-1.71 5-5.58 2-12 2.22-16.91c.16-4.77-1.36-16.44-2.24-18.68a15 15 0 0 0 3.64 1.08c1.77.23 2.39 0 3.36-1s2.28-3.3 2.28-4.27-4.87-3.15-7.12-5.74h.17l1.95-.57a4.37 4.37 0 0 0 1.53-.45c2.79-1.37 2.79-5.52 2.85-7.23s-.17-4.9-.51-4.1-1.37.8-2.62 1.31c-.92.37-3.05 1-4.13 1.25a2.25 2.25 0 0 0-.65.17c-2.16.85-4.9 2.22-5.64 1.88s-.8-2.56-.85-2.9v-.05a40.84 40.84 0 0 0-5.27-8.83c-3.13-3.76-14-9.57-19.3-11.22S86.17 1.87 80.14 4s-9.91 3.64-12 6.15c0 0-2.73-.28-6.38 2.16s-7.63 11-8.6 15-2.69 5.08-3.16 8.16-1 11.39-1.14 13.1a.86.86 0 0 0 0 .3c-.8 1.88-1.2 6.78-1.25 11s-.17 8.65 1 13.49A28.16 28.16 0 0 0 53 83.52c1.42 1.94 2.56 3.7 6.43 4.21A11.16 11.16 0 0 0 63.85 91s-2 4.9-2.79 7a4.51 4.51 0 0 0-.16.5 40.87 40.87 0 0 0-1.67 8.09c-.06 1-1.54 3.13-2 4.44a109.68 109.68 0 0 0-3.7 13.15c-.85 4.56-.11 5.12-.17 6.32s-.4 2.9-.57 4.67-1.65 5.3-2.11 7.69a10.73 10.73 0 0 0 0 5.58 35.72 35.72 0 0 0 3 5 28.12 28.12 0 0 0-.63 3.13A16.28 16.28 0 0 0 53 159a11.66 11.66 0 0 0 1.59 2.05c.4.51-.26 1.24 0 3.31a21.42 21.42 0 0 0 1.87 6.11c.26.79 2.64 5.9 4.38 7.65A7.09 7.09 0 0 0 65 180c1.38 3.52 4.18 4.15 4.34 4.11a36.07 36.07 0 0 0 5.46 1.12c.33 1 1.4 3.64 1.4 3.64a6.33 6.33 0 0 0 .09 3.59c.14.63 2.22 5.08 2.57 6.11.3.87 1.06 4.5 1.29 5.6a2.17 2.17 0 0 0 .07.32c.42 1.47 2.24 6.72 2.8 8.63a3.51 3.51 0 0 1 0 2.62l-.05.09c-.35.72-.68.58-1.17 1.17a5.28 5.28 0 0 1-1.59 1.54 26.88 26.88 0 0 0-4.34 3.13 10.83 10.83 0 0 0-2.66 7 5.27 5.27 0 0 0 2.52 4.9c1 .61 8.19 2.1 12.5 1.4s7.46-3.27 8.3-3.41.44.4 3.13 1.35a34.11 34.11 0 0 0 11.06 1.49c3.52-.16 7.56-1.84 8.68-3.92s2-4.71.28-7.32-4.71-3.41-6.06-4.48a16.21 16.21 0 0 0-2.24-1.54s-1.59-1.42-2.29-2.19-.77-.54-.47-2.47 2.75-11.76 3.27-13.43.86-4.27 1.21-5.18a5.8 5.8 0 0 0 .47-2.57c0-1.19.23-2 .23-2.61s.37-2.59.42-2.94 7.09-1.12 9.56-2.19a8.66 8.66 0 0 0 3.59-3 3.41 3.41 0 0 0 .7-1c.51-1.21.07-4.57-.14-6.34s-.82-7.09-.84-8.35-.28-12.2-.51-14.27-.63-5-.79-5.78c0 0 0-.05 0 0-.23-1.32-.51-2.75-.86-4.25-1.34-5.72-2.44-7.49-2.5-8.23s-.15-3.67-.22-5c-.06-1 .35-1 .56-.9.71 1.19 1.42 1.48 2 2.36a13.7 13.7 0 0 0 2 2.68c1.08 1.14 2.7 2.08 3.64 3.07a30.26 30.26 0 0 0 3.64 4c1.71 1.37 5.21.83 6.38.57s1.08-.85 1.08-.85 1.14.17 1.14.51.4 2 .51 2.9.51.71 1 1.25a16.84 16.84 0 0 0 1.94 2.28 12.27 12.27 0 0 0 4.9 1.42c2 .23 6.69.31 8.37-.28A4.67 4.67 0 0 0 162 144c.23-.54.65-.88 1-1.48a9.28 9.28 0 0 0 .4-3.13 37.93 37.93 0 0 1 .91-3.93 4 4 0 0 0-.47-2.11zm-39.12-47.83c-1.71 1.42-1.65 1.59-2.28 1.42a8.78 8.78 0 0 1-2-1.59 7.43 7.43 0 0 0 2.39-3.3c.63-2-.17-6.66-1-7.63s-.06 3.87-1.2 6.72-2.33 3.53-2.33 3.53a26.35 26.35 0 0 0-5.52-1.37c-2-.11-2.11.06-2.62-.06a49.18 49.18 0 0 0-6.34-2.24c-1.81-.35-2.11-.26-2.16-.2l.36-2.33c1.08-.37 2.51-.92 4.47-1.62 3.19-1.14 8.83-3.42 11.79-6.15s6.5-6.8 7.37-8.42c.22-.07.52 0 .88.4.8 1 3.76 7.46 2.28 13.21s-2.38 8.2-4.09 9.63zm-54.58 48.57c.19-1.12 1-.86 1.1-.75s4.25 3 23.88 2.32 24-5.2 24.9-5.35.89 3.55 0 4.56c-.54.6-3 2.1-9 3.2-21.43 2.92-30 1.17-30 1.17s-9.4-1.26-10.44-2.53a3.23 3.23 0 0 1-.38-2.6zm50.22-7.16c-.11.08-2.77 3.3-10.06 5.39s-26.65 2-31.47 1.21-8.16-2.09-8.31-2.51a11.81 11.81 0 0 1-.27-1.5v-.06c-1.2-4.78-2-15.94-2-15.94a1.76 1.76 0 0 0-.17-1.14 81.34 81.34 0 0 1-.06-12.58l.57-5s.11-4.56 1.25-6a5 5 0 0 1 3-1.65 28.3 28.3 0 0 0 3 7.69c2.28 4.07 4.47 6.92 6 7.89s2.48 1.62 3.73 2.36c0 0 .43.6.71 4.1s.37 11.25.31 12.1a2.62 2.62 0 0 0 1.37 2.28 5.64 5.64 0 0 0 2.65.77 46.91 46.91 0 0 0 5.78.36c1.29-.15 3.72-.53 4.86-1.71s.84-4.82.84-5.88a48.14 48.14 0 0 1 .8-8.77c.68-2.77 1.14-2.88 3-4.21a32.56 32.56 0 0 0 5.5-5.47c1.59-1.9 3.91-8.43 4.1-10.7l.46-2.22s2.56 0 3.53 1.31.06 4.84.06 4.84c-.89 2.68-1.23 17.33-.93 18.88s1.14 4 1.33 5.81.53 10.27.41 10.35zM78 88.33a20.83 20.83 0 0 1-2 3.16 34.58 34.58 0 0 1-1.52-3.72 3.32 3.32 0 0 1 0-.45c.94.15 3.52.6 3.52 1.01zm-3.35-2.05a1.36 1.36 0 0 1 .37-.53 2.16 2.16 0 0 1 1.71-.51c.34 0 .63 1 .85 1.65zM63.11 50.61c-.11-1.08-1.94-1.25-1.94-1.25 1-.74 2.39-3.7 2.85-4.78s.34-2.45.91-2.9 2.56.34 5.41-.23a5.85 5.85 0 0 0 3.87-2.28 1.19 1.19 0 0 0 .8.4c.46 0 5.47.46 6 .06s.68-3.42 1.42-3.7 1.2 2.28 1.2 2.28.28.68 4.38 1.14 14.3-.38 15.09-2.51c.57-1.54.28-7.35.11-8.65a24.52 24.52 0 0 0-.65-2.8c.14-.06.28-.13.54.18a35.56 35.56 0 0 1 3.36 7.23c1.65 4.67 1.71 5.3 2.45 5.69s4.78-.63 10.19 1.08 5.12 4 5.58 6 .46 4.1 1.71 5.35 2.9 1.2 3 1.37a6.4 6.4 0 0 1 .85 2.51 3.25 3.25 0 0 1-1.82 3 4.45 4.45 0 0 1-2.85.28s-3.19 7-6.32 10-14.52 8.71-19.42 9.68-12.52-.76-16.16-1.47a29.53 29.53 0 0 1-18-12.93 24.79 24.79 0 0 1-2.11-4.16 4.62 4.62 0 0 1-2.85-1.14c-1-1.08-1.77-2-1.65-4.9.11-2.45 1.54-2.51 2.39-2.45s1.78.98 1.66-.1zm7.77-27.85a17.55 17.55 0 0 0-.14 7.58c.91 5 2.33 5.07 2.56 6.83s-.91 1.77-3 2.28a23.1 23.1 0 0 1-5.92.11c-2.11-1.08-2.39-1.71-2.85-6.26s.4-6.83 1.94-11 7.17-6.43 8.54-6.89 2.85-1 1.2 1.31a18.34 18.34 0 0 0-2.39 6zM87.77 82.9c-1.2-2.11-.51-4.16 0-4.33s2 .57 4.5.74a49.22 49.22 0 0 0 7.86-.3c.22.09.45.33.45 1 0 1.2.34 3.19-2.51 4a17.6 17.6 0 0 1-6.34 1l.08-.06S89 85 87.77 82.9zm.74 2.33a3.27 3.27 0 0 0 .72.27 15.49 15.49 0 0 0 5.25.92 9.77 9.77 0 0 0 5.86-1.82c.85-.74.8-1.54 1.82-1.82s4.9.85 6 1.14 1.77.8 1.59 1.94c-.37 1.74-4 9.05-5.55 10.45S100.66 99 95.91 99a17.35 17.35 0 0 1-11.64-4.13A14.61 14.61 0 0 1 80 88.51c-.2-.68-.26-.71-.26-.71s-1.14-2.39-.91-3 5.47-2.45 6.49-2.39 1.31 1.85 3.19 2.82zm19.78 14.57c-.2.2-.4.4-.62.6a37.83 37.83 0 0 1-4.36 3.41l-.51-4.35.31-.2zm-3.72-1.63a13.88 13.88 0 0 0 2.89-3.32c.17.83.69 3.41.82 3.73s-2.42-.39-3.71-.42zm3.7-4.64l.19-.33a35.17 35.17 0 0 1 4.21-.34l-.21.48a24 24 0 0 1-2.9 5c-.36-1.17-1.15-3.98-1.29-4.82zm3.06-6.76c.12-.65.5-2 1.66-1.87s1.28.59 1.37 1.15a18.93 18.93 0 0 0-3.03.71zm3 .37c-.13.58-.49 2.1-1 3.66-.55-.85-1.72-2.6-1.69-3.07s1.94-.55 2.72-.6zm-2 4.54a15.1 15.1 0 0 0-3.25.34 25.53 25.53 0 0 0 1.92-3.88 18.67 18.67 0 0 0 1.38 3.53zm-20.76 12a20 20 0 0 0 1.94 1.29 47.28 47.28 0 0 1-6.16 3.03 27.22 27.22 0 0 0-.69-3.14 2.65 2.65 0 0 0-.13-.3v-.2a40.11 40.11 0 0 1 .82-4.33 35.47 35.47 0 0 0 4.27 3.59zm-3-3.76a24.3 24.3 0 0 0 4.23.91 21.63 21.63 0 0 0 6.86-.14 44.15 44.15 0 0 1-5 3.57h-.08a34.63 34.63 0 0 1-5.97-4.39zm5.71 6.26l.67-.42c2.45 1.3 5 2.39 6 2.78 0 .12-.29.45-1.62 1.33s-3.49 2.13-5.42 3.18a44.83 44.83 0 0 1-6.39-3.73v-.08a56.71 56.71 0 0 0 6.79-3.11zm-.3 8.35a32.72 32.72 0 0 0 5.92 2c-.27.27-2 1.56-2 1.56a34.46 34.46 0 0 1-3.48 2 52 52 0 0 1-5.79-3.14s2.44-1.06 5.22-2.52zm-1.38-.79c-.66.35-1.25.65-1.7.86-1.28.62-2.37 1.09-2.95 1.34 0-1 .08-1.93 0-2.73s-.14-1.66-.27-2.61c.73.46 3.09 1.98 4.95 3.09zm-4.74 4.07c.58.36 2.81 1.76 5.06 3.07a35.08 35.08 0 0 1-3.84 1.51 2.56 2.56 0 0 1-1.06-1.15 10.68 10.68 0 0 1-.13-3.48zm5.21 4.39c.33-.16.71-.35 1.13-.58a31.73 31.73 0 0 0 3.22 1.65c-.26 0-.54.06-.82.07a55.77 55.77 0 0 1-5.9-.25 12.91 12.91 0 0 0 2.4-.94zm2.65-1.44a44.19 44.19 0 0 0 5-3.24 10.59 10.59 0 0 1-.44 4 3 3 0 0 1-.83 1.06c-.64-.39-2.07-1.07-3.7-1.87zm4.94-7.6v2.3a30.9 30.9 0 0 1-5.29-1.77 40.76 40.76 0 0 0 3.71-2.27 20.2 20.2 0 0 0 2-1.54 21.43 21.43 0 0 0-.39 3.23zm-4.6-8.18a50.48 50.48 0 0 0 5.78-4.72l.64 4.39a8.07 8.07 0 0 0-.83 2.48l-.09.43c-.78-.38-2.89-1.27-5.47-2.63zm-14.23-9.7c.83.8 2 1.88 3 2.69-1.1.17-3.91.8-3.91.8zM79.7 98a31.27 31.27 0 0 1-2.7-4.45 6.59 6.59 0 0 1 3.8.52 2.87 2.87 0 0 0 .3.39A15.71 15.71 0 0 1 79.7 98zm1.41 1.71c1.29 0 5-1 5.09-.72s-.51 2.93-.8 4.24c-.52-.42-1.22-.89-2.15-1.52a12.29 12.29 0 0 1-2.17-2zm-1.19-7.22h-2.76l1.39-2.94c.45 1.01.91 2.08 1.37 2.98zm63.19-53.09c.23 1.54-.51 2.56-2.28 3a5.39 5.39 0 0 1-2.43.08.72.72 0 0 0-.25-.08c-1.37-.23-3-1.65-4.44-2.73s-1.65-2.85-1.08-3.42.91 0 1.82.23 3 2 2.9 1.65a4.7 4.7 0 0 0-1.88-2.28c-1.2-.8-2.73-1.59-2.22-2a4.32 4.32 0 0 1 3.53.8c1.95 1.27 6.1 3.21 6.33 4.75zM131 28.46c.23-1.08 6.21-2.68 6.21-2.68 1.82-.51 5.86-2.51 5.86-1.82S143 28.41 142 30c-.65 1-2.22 1.54-3.3 1.79h-.23a17.65 17.65 0 0 1-6-.11c-1.65-.4-1-1.08-.06-1.71s4.27-.8 3.59-1a17.67 17.67 0 0 0-3.36.17c-.97.12-1.83.41-1.64-.68zM129.67 40a26.78 26.78 0 0 0 1.08 5.24A9.71 9.71 0 0 1 132 40a5.62 5.62 0 0 0 1.15 2 5.43 5.43 0 0 0 .57 2.39 23.85 23.85 0 0 1 2.33 8.77c.51 5-.11 14.12.06 16.63s.17 8-2.62 11-3.59 3.53-4.67 3.36.57-2.28.91-3.93a21.81 21.81 0 0 0 .68-8.65 29.39 29.39 0 0 0-2.79-9.79 3.63 3.63 0 0 1-.63-2.11 2.75 2.75 0 0 1 .57-.63c.74-.57 1-.17 2-.68a2.67 2.67 0 0 0 1.37-1.36 39.92 39.92 0 0 0 1.07 5.68c.51 1.25.46-1.77.57-2.33s-1.14-7.69-1.82-9-2.22-.4-3.64-1.94c0 0-.68-5.12-1.48-6.72s-2.45-3.13-2.68-3.93.23-4.56-.63-7.91-3.87-7.52-4.9-8.14-1.71-.51-.85.63 3.87 5.41 4.56 9.57-.34 4.33-1.82 4.73-7.23-.34-8.65-.74-1.48-1-2.45-3.42-4.5-10.93-6.55-13a4.1 4.1 0 0 0-1.66-1.41c1 1.65 2.51 14.8 1.59 16.23a3.79 3.79 0 0 1-2.85 1.48c-5.52 1.25-13.27 1.37-14.29-.23s-.85-9.05-1.2-9-2.45 9.22-2.9 9.57-5.12 1-6-.63a27.06 27.06 0 0 1-2.33-7c-.45-2.27.32-6.22.66-7.71a4.83 4.83 0 0 0 .14-.6c.46-2.68 1.71-5.47 7.74-8.48s11.22-1.48 13.61-1.08 4.27 2.11 4.56 1.54-.51-1-.4-1.88 2.45-.63 2.45-.63c4.44-.28 14.23 3.64 19.07 7.4s8.65 9.91 9.39 13.49a33 33 0 0 1 .43 8.46zM57.13 20.61c2.28-3.93 3.93-6.43 8.26-8s5.3-1 7.06-1.54 2.79-1 2.79-1.14-3 .46-3-.28-.06-1.42 3-2.33S79.74 5.57 82 5a59.79 59.79 0 0 1 14.08-1c5.64.28 7.23.11 9.51.91s6.55 3.07 8.65 3.93 6.95 2.51 9.45 6a84 84 0 0 1 4.5 7.74h.06c.77 1.88 1.62 6.09-.11 3.27s-6.83-8.2-6.83-8.2A40.73 40.73 0 0 0 101 9.33a15.71 15.71 0 0 0-5.81.46c-1-.06-4.16-1.48-7.91-1.08a22.46 22.46 0 0 0-7.69 2.73C73.42 13 68.63 14.86 66.24 17a30.15 30.15 0 0 0-7.74 10 47.44 47.44 0 0 0-2.73 10 29.16 29.16 0 0 1-.87 3 21.07 21.07 0 0 1-1.36-6.38c-.17-3.68 1.32-9.09 3.59-13.01zM52.35 32a19.74 19.74 0 0 0 .17 5A21 21 0 0 0 54 41.9a17.13 17.13 0 0 1-2.16 3.1l-.72.75c-.19-1.12-.83-6.18 1.23-13.75zm8.71 54.15a61.55 61.55 0 0 1-4.21-10.08c-.28-1.08-1 .06-.68 1.37a34.9 34.9 0 0 0 2.11 5.64c.57 1.08.4 2-.34 2.39s-2.51.17-4.1-2.51a25.53 25.53 0 0 1-4.16-11.33c-.4-5-.8-13.67-.46-16.68s.57-4.21 1.82-6.21 2.9-4.44 4.1-6.55S57 40 57 38.26a2 2 0 0 0 0-.26v-.09c0-1.91 1.58-10.1 3-11.44s.68.68.11 3.81a18.63 18.63 0 0 0 .74 8.54C61.52 41 63 41.27 63 41.27a20.33 20.33 0 0 1-1.31 4.5c-1.2 2.68-1.71 2.51-2.79 3.53s-2.73 1.42-4 3.19.23 1 .23 1c.74-1 1.08-.91 2.11-1.42s.63.91.63.91a9.78 9.78 0 0 0 .13 3.78 7.68 7.68 0 0 0 1 1.94 27 27 0 0 0-2.11 5.64c-.34 2.11 0 6 .46 6.55s.06-1.94.23-3a41 41 0 0 1 2.73-8.09 4.62 4.62 0 0 1 2.51 1.42c.91 1.14 4.38 6.89 6.32 9.05s7.46 5.35 14.8 8c0 0 1.59-.06 1.77 1s.34 2-.68 2.33-8.09 2.28-8.65 2.56-4.9 1-5.58 1.37-1.54.28-2.51-1.59-2.39-3.3-3.64-9.79c0 0-.28-3.07-.8-3.25s-.46 4.84-.11 6.78 1.31 6.78 4.78 9A2.74 2.74 0 0 1 66.53 89c-1.82.5-3.42.84-5.47-2.86zm-8.71 62.58c-1.37-2.33-.51-4.38.23-6.95a25.72 25.72 0 0 0 1.2-5.81c.17-2 .74-2.39 2.39-2.28s5.52 1.94 6.89 2.33 1.59-.17-.17-1.77-6.55-1.54-6.49-2.51 1.59-.57 3.19-.91 5.24.68 5 0-1.88-1.14-1.88-1.14c-3.59-.34-5.07.51-6.72.85s-1.42.34-1.65-1.54a30.21 30.21 0 0 1 .91-8.2c.63-2.79 3.47-9.45 3.87-10.59a20.06 20.06 0 0 0 1.25-4.73 28.86 28.86 0 0 1 1.37-5.12v-.17c.2-.45.74-1.69 1.06-2.56.4-1.08 1.25-3.93 3.13-5.24s1.71.11 1.59.74-1.31 6.26-1 9.28-.06 5.86.23 7.63-.85 1.71-1.2-1.31-.91-3.76-1.42-2.33.23 4.38.74 5.3c0 0 1.94 6.72 2.33 9.11.35 2.07 1.08 9 1.26 10.84a12.4 12.4 0 0 0-.14 2.52c-.11.56.36 1.77.31 2.49s-1.14 4.5-1.77 6.95-1 8.77-1.42 10.31-.8 1.37-1 1.08.63-2 .4-2.39-.46 1.08-1.25 1.59a5 5 0 0 1-5.69-.4c-2.22-1.88-1.71-4.16-1.88-4.73s-.63-1-1 1 1.14 3.36 1.14 3.53c0 1.02-2.45-2.55-3.81-4.88zm2.22 8.71c.06-1 .06-1.94.74-2.33s2.45.74 4.33 1.08a11.33 11.33 0 0 0 4.36.11s1.21-.28 1.49.28a4.88 4.88 0 0 1-.56 4c-.93 1.1-3.17 1.63-6.06.93s-4.18-1.16-4.3-4.08zM66.31 171c-.07 2.17-.16 2.64-.89 3.17a1.3 1.3 0 0 1-1.45 0c-.68-.54-2.57-4.73-3-5s-.4 1 .37 3.31a6.68 6.68 0 0 0 2.92 3.52c.63.44 1.84 1.1 1.63 1.54s-.65 1.19-3.22-.61-4.67-6.58-4.67-6.58a21.38 21.38 0 0 1-1.73-8.3 11.8 11.8 0 0 0 5.83 1.12 6.09 6.09 0 0 0 2-.47s.37-.21.23.89 2.05 5.24 1.98 7.41zm1 10c-.07.21-.3.61-.75-.51s.16-3.55 0-4.25a8.25 8.25 0 0 0 1.07-1.82c.4-1 1-.56 1-.56s2.53.83 5.47 1.47c-.6.45-6.69 5.45-6.76 5.67zm1.73 1.82h-.13c-.45-.19-1.07-.7-.67-1.4s6.76-5 6.76-5a79.73 79.73 0 0 1 3.86 7.58.85.85 0 0 0 .07.17 89.85 89.85 0 0 1-9.86-1.37zm37.96 8.91c.93 0 1.7-.06 2.09-.11s.59-.1.87-.16a35.11 35.11 0 0 1-.59 3.48c-.86.17-1.69.3-2.48.4a29.12 29.12 0 0 0 .11-3.61zm-5-.63c-5.39-.37-5.92-1.26-5.92-1.26 0-.16-.07-2.1-.19-3.17 0 0 6.6.16 9.61.14a57.34 57.34 0 0 0 6.48-.65c.51 0 .54.84.28 2.15s-.4 1.75-2 2.24-6.58.55-8.26.55zm1.22.69h2.87c0 1-.21 3.27-.25 3.71-1 .1-2 .15-2.83.16a25.79 25.79 0 0 0 .16-3.87zm-3.77-.07c.66 0 1.15.08 1.15.08h1.91a37.54 37.54 0 0 1-.64 3.83c-.89 0-1.68-.07-2.37-.14-.01-.71-.07-2.92-.1-3.77zm-3.09.22a5.65 5.65 0 0 1 2.22-.25c.07.72-.08 3.1-.11 3.67a16 16 0 0 1-2.2-.43s-.75-2.52.04-2.99zm.51 24.77a29.88 29.88 0 0 0 .48 3c-.95-.38-3 .15-3.42.15s-1.12.12-1.07-.23.12-1.74.14-2.11c.42 0 .87 0 1.31-.08a4.58 4.58 0 0 0 2.51-.73zm14-33.45c-.48-.64-6.18-7-6.47-7.36 3.14-.12 6-.25 6.8-.25a42.71 42.71 0 0 0 4.74-.48zm-1.36 1.13c-2.94.25-6.36.42-10.25.45l-2.3.09c1.08-1.4 5.12-8.36 6.08-8.25s5.28 6.09 6.46 7.72zm-13.38-.76l-6-7.54h4.57c1.3.06 4.28 0 7.37-.13-1.58 1.42-5.95 7.68-5.95 7.68zM94.89 185h-1c-5-.08-9.35-.32-12.89-.62 1.55-1.66 7.12-7.59 7.58-7.59s5.35 6.84 6.31 8.21zM93 193.81a5.16 5.16 0 0 0-.52-1.92l1.43-.43c.76.47.78 1.6.65 2.72s-.63 1.42-1.63 1.77l-.19.05a4.75 4.75 0 0 0 .26-2.19zm-11.8-11.34c-.68 1-.93.61-.93.61l-3.73-7.32a99 99 0 0 0 11.15.35 75.09 75.09 0 0 0-6.49 6.36zm12.64 4.11a3.56 3.56 0 0 1 .19 2.15 2.81 2.81 0 0 1-2.29 1.87c-5.81.61-10.38.28-12.5-1S77 185.51 77 185.51c3.31.49 16.84 1.07 16.84 1.07zm-2.36 7.58a11.92 11.92 0 0 1-.21 2c-.84.07-1.92.13-3.05.16.06-.75.1-3.28.11-4.15l2.64-.05a5 5 0 0 1 .51 2.04zm-4.25 2.21c-.92 0-1.85 0-2.69-.05a19.64 19.64 0 0 1-.31-2.22 8.64 8.64 0 0 1 .05-1.94c.87 0 1.68.07 2.14.07h.75c0 .77.02 3.24.06 4.14zm-6.7-4.61l.39.09c.48.08 1.28.16 2.13.22a15.17 15.17 0 0 0-.05 2.53 6.44 6.44 0 0 0 .23 1.6c-.38 0-.72-.1-1-.16a8.2 8.2 0 0 1-1.41-.44h.06a7.6 7.6 0 0 1-.35-3.84zm-2.78 1.82c-.23-.44-.91-2.05-.14-2.47a2.06 2.06 0 0 1 1.61.18 5.32 5.32 0 0 0 .06 3.53 8.35 8.35 0 0 1-1.54-1.24zm3.65 10.19a.71.71 0 0 0-.06-.21 1.08 1.08 0 0 0-.09-.24c-.38-1.13-.87-4-1.17-5s-.42-1.38-.09-1.35 2 .89 7.37.7a37.43 37.43 0 0 0 6.39-.65c.33.09.54.65.65 2.38s0 3.69.23 7 1.21 8.77 1.21 8.77a14.77 14.77 0 0 1-5.23.75h-.18c-1.73 0-5.06-.14-5.41-.61a25.88 25.88 0 0 1-1.35-3.73c-.19-.71-1.93-6.58-2.27-7.81zm7.16 21.55c.36.06.53.22.48.67-.07.61.07 2.1 0 2.61s-.75.61-1.49.56-5.43.33-6.2-.23-.58-1.17-.47-2.71a3.32 3.32 0 0 1 .35-1.4h2.69c1.1 0 4.71.51 4.71.51zm-1-1.19l-4.8-.33s-.89-.26 0-.89a24.07 24.07 0 0 0 1.91-1.77 4.16 4.16 0 0 0 .59-.74h2.49a6.33 6.33 0 0 1 2.47.37c.23.28-.26 1-.61 1.68a6.49 6.49 0 0 0-.47 1.82zm.47-4.57c-.86-.14-2.31 0-2.38-.61s.68-1.47.51-1.91c.47.09 4 .42 4 .42s.72.07 1.73.09a3.42 3.42 0 0 1-.38 2 28.18 28.18 0 0 1-3.51.01zm-6.16-1.31a13.66 13.66 0 0 1 1.89-1.25 6.07 6.07 0 0 1 1.47-.05 5.81 5.81 0 0 1-.87 1.78 1.22 1.22 0 0 1-.83.51h-.34c-1.48-.17-1.64-.64-1.34-.99zm-3.73 3.22a6.36 6.36 0 0 1 4-1.17c.4.05 1 .08 1.53.09a6.77 6.77 0 0 0-1.67 1.46 13.14 13.14 0 0 1-1.29 1.6 10.89 10.89 0 0 0-3.28 0 5.19 5.19 0 0 0-2 .93 9.86 9.86 0 0 1 2.69-2.91zm-3.48 5.79a3.34 3.34 0 0 1 1.2-2 5.29 5.29 0 0 1 3.87-.84.88.88 0 0 0 .45.19c.12.14 0 .32-.08.69-.09.56-.23 2.45-.42 3.13s-1.45.42-1.45.42c-2.36-.56-3.23-1.21-3.6-1.59zm6.46 5.95a7.71 7.71 0 0 1-2.89-.58c-2.29-1-3-2.1-3.41-3.17a4.45 4.45 0 0 1-.15-.56 13.09 13.09 0 0 0 3.23.84c.93.14 1.61.09 2.1.23s1.19 2.38 1.26 2.85a.36.36 0 0 1-.16.39zm2.76-.16h-.48a6.46 6.46 0 0 1-2.25-3.05 66.28 66.28 0 0 0 8.26.28c.37.78.84 1.71 1 2.06a15.87 15.87 0 0 1-6.56.66zm7.65-1c-.26-.47-.82-1.87-.82-1.87l1.19-.14c1-.11 3.28-.63 4.09-.82A9.06 9.06 0 0 1 91.5 232zm5.69-5.46a11.69 11.69 0 0 1-.36 1.11 9.5 9.5 0 0 1-4.52 1.3c-1.89 0-2.1-.4-2.29-1.17a2.69 2.69 0 0 1 .23-2.1c.33-.28 1.4.12 3 .23a24.4 24.4 0 0 0 4.09-.25 7 7 0 0 1-.17.85zm.33-2.29a9.83 9.83 0 0 1-4.2.52c-1.31-.19-2.78 0-3-.47a3.65 3.65 0 0 1 .7-2.75c.63-1 2.61-1 4.06-.93a10.8 10.8 0 0 1 2.5.48 22.77 22.77 0 0 1-.09 3.12zm.84-7.69c.33 0 1.51.06 2.42.07a14.75 14.75 0 0 1 .24 2.07 7.13 7.13 0 0 1-.14 1.21c-1.49.34-1.64 1.16-1.35.92a3.68 3.68 0 0 1 1.21-.42 1.68 1.68 0 0 1 1.45.65 5.24 5.24 0 0 1 .65 2.85c-.19.42-1.77.54-2.38.42-.44-.08-1.24-.34-1.66-.47 0-1.44 0-3-.07-4a26.19 26.19 0 0 0-.4-3.34zm8.89 2.66c-1.4.13-3.28.31-4.71.47a8.84 8.84 0 0 0-.64-3s.92-.19 2-.34a7.33 7.33 0 0 1 1.24.25 10.64 10.64 0 0 1 2.1 2.47.17.17 0 0 1-.02.12zm0 .61a.9.9 0 0 1 .21.13c.37.33 2.73 2 2.94 2.71s-1.33.54-2 .65l-1.47.28a5.52 5.52 0 0 0-1.24.09h-1.54a18.44 18.44 0 0 1-.93-2.61c-.11-.35-.13-.75.11-.93 1.2-.14 2.64-.26 3.94-.35zm-3.15 13c-1-.23-4.06-.68-4.71-1.77a5.16 5.16 0 0 1-.6-2.12c1 .11 4.89.58 5.18 1a3.76 3.76 0 0 1 .15 2.86zm-.09-4.11c-.58.35-3.64-.51-3.64-.51a16.9 16.9 0 0 1-1.65-.76v-.73V225c.78 0 3.53 0 4 .09s.86.19 1.21 1.54.68 1.77.09 2.12zm8.44 2.33A5.34 5.34 0 0 1 111 233a34.83 34.83 0 0 1-5.79 0 5.12 5.12 0 0 0 .14-2.43s-.33-.54.33-.47a55.79 55.79 0 0 0 6 .14c.96-.14 1.03.24.82.84zm-1.07-1.73a23.18 23.18 0 0 1-5.41-.14c-.51-.07-.65-.28-.89-1.26s-.51-2.57-.56-2.71-.21-.42.65-.47a28.53 28.53 0 0 0 3.45-.47s2.05-.54 2.73-.19a3.8 3.8 0 0 1 1.42 3.13c-.02 1.35-.05 1.74-1.38 2.1zm7.39-1.92v.52c-.16 2.17-1.91 3.48-4.9 4.48-.26.09-.54.16-.83.23a5.61 5.61 0 0 0 .74-1.54 7 7 0 0 0 .19-1.45s3.35-.1 4.81-2.25zm-2.07-4.94a5.84 5.84 0 0 1 1.94 3.51 8.23 8.23 0 0 1-2.31 1.85c-1.21.51-2.47 1.31-2.71.33a2.47 2.47 0 0 0 .09-1.4 7 7 0 0 0-1.21-3.13s.14-.35 1.12-.56a5.58 5.58 0 0 0 2.67-.93zm-2.55-1.87c.25.21.78.76.17 1.22a5.91 5.91 0 0 1-2.47.7 7 7 0 0 1-1.21-1.49c-.2-.31-.58-.8-1-1.36h.8a6.71 6.71 0 0 1 3.72.92zm-4-3.4c.79 1 0 1.68-1 1.84-1-1.21-2.16-2.51-2.55-2.91a6.35 6.35 0 0 1 3.53 1.06zm-.33-15.58c-.58 2.47-2.59 7.65-2.75 9.56s0 2.87-.61 3.22a14.6 14.6 0 0 1-4.8.89c-1.42 0-3.59-.09-3.87-.93s-1.1-7.32-1.35-10.78-.19-6.72-.19-6.72a62.4 62.4 0 0 0 12.78-.56 8.05 8.05 0 0 0 2-.79c.36-.36-.64 3.62-1.22 6.1zm1.82-7.93a2.8 2.8 0 0 1-1.24.92c.16-.75.58-2.76.67-3.45.52-.1.91-.11 1.14.15.44.55.14 1.65-.58 2.37zm10.33-11.3a63.16 63.16 0 0 1-10 1.73c1.34-2.17 5.13-8.26 5.13-8.26a30.9 30.9 0 0 1 5 6.49zm4.57-7.93a8.6 8.6 0 0 1 .14 3.69 4.21 4.21 0 0 1-1.49 2.71 7.42 7.42 0 0 1-1.2.74c.33-.82.72-2.35.78-2.51a20.65 20.65 0 0 0 1.78-4.63zm-.79-.75c-.26.86-1.87 5.41-1.87 5.41-.35.82-.93 1.52-1.21 1.21s-3.73-4.67-4.44-5.57a15.75 15.75 0 0 0 3-.77c1.7-.77 3.64-1.91 4.15-1.77s.59.63.38 1.49zm-1-23.93c.16 1.26.35 2.1.37 3a10.17 10.17 0 0 1 .21 1.94l.09.28s.49 9.68.42 11.15.21 3.29-1.31 4.52-5.18 2.61-13 3.45-26.24 1-31.21.7c-6.19-.32-11.41-2.38-12.08-2.89s-1.14-1-1.73-4.85c-.55-3.57 0-11.58.17-13a7.83 7.83 0 0 0 .28-2.44c-.06-3.7 1.65-8.26 2-10.31s.8-2.68 1.88-2.68a86.61 86.61 0 0 0 9.11 1.91c11.05 1.86 29.38.09 30.9-.61a30.2 30.2 0 0 0 9-3c1.08 0 1.48.63 1.88 2.68s2.45 5.53 3.03 10.15zm12.29-16.36l2.7.46a4.27 4.27 0 0 0-.26 2c.11 1.17.31 1.42-.51 1.77s-4.36-.17-5.52-1.94a13.09 13.09 0 0 0-3.7-3.81c-.85-.43-5-2.94-7.37-9a11.62 11.62 0 0 1-.28-3.56c0-3.19 1-5.69 1.21-7.86s0-5.47-.27-5.24a27.74 27.74 0 0 0-1.25 6.57c-.15 2.35-.65 1-.65 1-.65-1.29-.65-3.49-.91-8.35a51.49 51.49 0 0 1 .3-9.6l.38-4.18s-.11-3 .74-3 3.07 2.68 3.3 3.13v.06c.14.19.55.87 1.1 1.75a66.15 66.15 0 0 1 7.17 10.55c2.7 5.27 3.42 7.17 3.42 7.17a7.3 7.3 0 0 0-3.47-.4 8.73 8.73 0 0 0-3.42 1.54 11.86 11.86 0 0 1 6.95.63s-4.81 1.59-6.38 3.47a14.43 14.43 0 0 0-2.33 4.44 11.66 11.66 0 0 1 5.52-4.9c3.53-1.25 7-1.91 11.33 1.42a6.71 6.71 0 0 1 2.39 3.47 10.54 10.54 0 0 1 .17 3.07s-2.31.54-3 1.88a8.61 8.61 0 0 0-2.43-4c-1.77-1.42-3.07-.74-3.07-.74a11.46 11.46 0 0 1 3.3 3.81c1.11 2.28.2 3.64-1.08 4.78a7.41 7.41 0 0 1-4.33 2.22 6.71 6.71 0 0 1-2.45-.28s0 1.21 2.71 1.67zm5.47 1.31a1.88 1.88 0 0 0 .51 2.45l-1.81-.67a11.1 11.1 0 0 1 0-2.64 14.54 14.54 0 0 1 4.84-7.23s1.59-1.42 2-1.2.4 1 .23 1.31-1.14 1.08-1.25 1.65-.6.51-1 .68-1.65.14-2.11 1.48a4.44 4.44 0 0 0-.23 2.28s-.47.21-1.18 1.89zm20.73 1.48a3.68 3.68 0 0 1-.91 1.65c-.46.54-.23 2.36-.46 3.42s-1.31 1.88-1.59 2.33-.06.74-1.54 1.59-3.76.37-6.26.23a14.74 14.74 0 0 1-5.35-1.08c-1-.51-1.45-1.14-.68-1.54s2.39.65 3.42.85a37.64 37.64 0 0 0 5.92-.06c1.28-.11 2.85-.2 2.51-.91s-1.48-.11-1.48-.11c-2.33.57-5.69.09-7.35-.17s-4.3-1.05-4.9-1.65-1.11-1.82-.46-2.16 1.65.57 2.68.91a34.67 34.67 0 0 0 6.95.28 8.82 8.82 0 0 0 2.9-.8c.63-.28 2.93.57 3.19 0s.17-1.14-1-1.37-2.39.71-3.76.85-6.26.31-8.37-.51-2.85-1.88-2.79-2.68.54-1.37 2.56-1.14 7.43.94 8.43.74a11.78 11.78 0 0 0 2.16-1 25.12 25.12 0 0 0 3.07-.28.65.65 0 0 0-.06-1.08c-.48-.43-2 .14-2.9.4a25.18 25.18 0 0 1-7.4.28c-4-.28-4.5-.91-4.5-.91a1.58 1.58 0 0 1-.28-1.48c.26-.91 2.19-1.31 3.7-1.25a35.74 35.74 0 0 0 5.69-.46c.91-.2 1.28-.57 1.31-2.51a29.85 29.85 0 0 1-3.47 1.71 14.32 14.32 0 0 1-3.25.51 2.63 2.63 0 0 0 1.54-2.39c.09-1.85-1.85-4.07-1.54-7.17s.88-4.84 2.11-5.35 1.34 1.2 1.31 3.19a9.07 9.07 0 0 0 1.88 5.07c.76 1.09 3.48 2.94 4.5 3.7a1.35 1.35 0 0 0 .28.22.4.4 0 0 0 .12.08c1.28.82 3.53 2.74 3.64 3.63s-.54 1.91-.46 2.85 1.14 2.71.89 3.57z" fill="#692f23"/><path d="M237.82 135.92c-.51-3.3-5.12-11.55-6.49-13.2s-2.62-8.31-3.3-10.36-4.38-8.65-5.35-9.56a69.77 69.77 0 0 1-4.89-6.37C217 95.24 212 88.3 208 84.94a32.14 32.14 0 0 0-8.42-5.35 13.22 13.22 0 0 0-5.57-.74l-1.49-.41c-1.79-.48-3.52-.93-3.52-.93s.08-3.7-.54-3.77-9.55 2.5-13.24 2.39-12.59-1.5-12.59-1.5l-.12 2-.51 2.63s-2.77.69-6.7 1.73a22.4 22.4 0 0 0-9.12 5.43c-1.62 1.62-5.35 2.49-5.66 2.66-8.55 4.62-17.67 9-21 13.4s.23 14.55.23 14.55 4.27 9.93 2.08 10.28-2.31 2-2.31 2l3 7.39a15.5 15.5 0 0 1 5.31 4.73c2.08 3.12 3.7 3.7 8.66 2.19s11.35-6.62 11.35-6.62l.46 20.79s-.69 5.2 1.39 5 22.17 2.54 34.65 2.19 25.75-5 25.75-5-.11-10.17-.29-19.27c.57 2.68 1.35 5.87 1.73 6.93.68 1.88 4.27 5.46 5.8 6.37s6.71 1 8.88.8 4.61-.91 8.08-3.41 4.04-12.18 3.53-15.48z" fill="#fff"/><path d="M152.81 6.85s6.39-2.62 7.55-3.31a30.29 30.29 0 0 1 10.32-2.16c3.7 0 8.08-1 10.09-.77a6.3 6.3 0 0 1 3.31 1.46s2.31.08 4.23 0 4.85 1.23 5.62 1.46l9.35 2.77c1.54.46 3.7 2.77 5.7 3.77s12.28 10.78 13.2 13.78 5.39 9 5.85 11.09 2.62 14-.85 19.32-9.47 13-12.93 14.63-7.31 4.85-8.24 5.39-6.85 2.72-9.7 2.72h-4.39a15.26 15.26 0 0 0-2.93.54c-.38.15-.54-3.77-.54-3.77s-9.47 2.77-15.71 2.31a78.35 78.35 0 0 1-11.55-1.77s2.35 3.35 1.73 3.89-4.58.62-6.27.38-7.85-2-7.85-2l-3.62-1.73a46.88 46.88 0 0 0-4.31-2.85c-.46-.08-9.39-10.7-10.86-13.4s-2.69-8.93-2.77-13.94a47.17 47.17 0 0 1 3.2-16.4c2.08-5.7 7.58-12.09 10-13.55s8.85-5.08 8.85-5.08z" fill="#e09c51"/><path d="M167.55 22.19a10.85 10.85 0 0 0-2.28 3.09c-.49 1.27-.78 5.89-1.24 6.58s-1.76.84-2.63.75a7.54 7.54 0 0 1-2.4-1.18c-.12-.06-5.69 1.67-6.35 1.73s-7.65 1.7-8.11 1.84-3.46.75-3.61.81a5.93 5.93 0 0 0-3 3.67 6.64 6.64 0 0 0 .29 4.59 4.75 4.75 0 0 0-1.76 2.22 8.46 8.46 0 0 0 1.24 5.37c1 1.13 4.3 2.92 4 2.77s1.3 3.55 4.22 7.71 6.87 8.49 15.19 12 19.84 1.79 20.12 1.76a32.45 32.45 0 0 0 12.47-4.39s6.5-4.76 8.34-6.64 5.6-6.47 6.38-8.32a10.62 10.62 0 0 0 .81-2.25s2.34.23 4-2.83.78-6.61-.61-7.36-4-.2-4.82-.06-2.71-1.59-3.2-3.7S199 33 199 33a31.63 31.63 0 0 1-6.09-.12c-2.31-.4-6.81-.92-8.52-1.41s-7.3.26-8.4.52-4.91 2.08-5.2 1.82-.14-1.62-.14-2.19-3.1-9.43-3.1-9.43z" fill="#fbdfcb"/><path d="M162.41 45.42a3.37 3.37 0 0 0-1.15-2.33 4.41 4.41 0 0 0-3.26-1.27c-.85 0-4.41-.31-5 0a13.93 13.93 0 0 0-2.44 2.31c-.67.75-.06 1.27.33 1.48s1.75 1.3 2.75 1.32a30.39 30.39 0 0 0 4.43-.14c.89-.19 2.56-.89 3.2-.9s1.04-.22 1.14-.47z" fill="#fff"/><path d="M159.19 42.09a2.48 2.48 0 0 1 .69 2.14 3.55 3.55 0 0 1-2.66 2.37c-1.27.25-2.8-.49-3-1s-1.13-2-.88-2.67 4.15-3.67 5.85-.84z" fill="#abd2f0"/><path d="M179.77 45.4a3.37 3.37 0 0 1 1.15-2.33 4.41 4.41 0 0 1 3.21-1.27 25.31 25.31 0 0 1 4.89.62 9.28 9.28 0 0 1 2.54 1.67c.67.75.06 1.27-.33 1.48a9 9 0 0 1-3 .89c-1 0-3.29.48-4.18.29s-2.56-.89-3.2-.9-.99-.2-1.08-.45z" fill="#fff"/><path d="M183.72 42a2.26 2.26 0 0 0-.69 2.14 3.55 3.55 0 0 0 2.66 2.37c1.27.25 3.1-.15 3.27-.67s.83-2.29.58-3a4.35 4.35 0 0 0-5.82-.84z" fill="#abd2f0"/><path d="M128.61 33a29 29 0 0 0 4-4.33c1.21-1.85 4.1-7.1 6.93-9.7a60.73 60.73 0 0 1 4.68-4.27l-2.71 5.89s2-2.66 3.81-3.35a10.56 10.56 0 0 1 2.54-.75 35.76 35.76 0 0 0-2.71 4.79c-.4 1.27-.46 6.93-.4 7.85s.29 2.48.29 2.48.69-6.76 3.18-10.45 3.87-6.81 9.47-9.82 6.7-3.18 7.62-3 0 1.91 0 1.91a59 59 0 0 0-2.54 5.89 19.47 19.47 0 0 1 3.35-4A34.79 34.79 0 0 1 170.36 9s-2.48 7.33-2.48 9.59 1 8.78 1 8.78l1.1 2.89a24.4 24.4 0 0 1 1.62-10.45c2.14-5.2 3.12-10 7.1-11.26a5.75 5.75 0 0 1 7 2.66 24.57 24.57 0 0 1 1.56 4.68s.17-4 .06-5 1.27-1.1 2-.87a13 13 0 0 1 6.87 5.43c2.37 3.87 3.23 10.11 3.23 10.11s1.27-7.8.4-9.3-2.82-4.91-4.45-6.26c0 0-.35-1.5 2.14-1a17 17 0 0 1 6.49 2.24s-2.94-2.54-4.39-3.7-8.08-4.91-8.43-5.14a27.93 27.93 0 0 0-4.1-.58l-2.66-.12-2.1-1.15-7.8.87-2.89-.52-9.93 1.73L154.14 6l-6.93 4.85L144 12.1l-7.62 6.64s-5.72 7.22-5.89 8.14-2.08 6.24-2.08 6.24z" fill="#e9b87f"/><path d="M225.36 127.25l-.39-.26-.4-.22-.5-.14a3.18 3.18 0 0 1-2-.93 3.08 3.08 0 0 0 .66.93 6.49 6.49 0 0 0 2.77.72z" fill="#fff"/><path d="M146.22 138.39c-.46.12-7.39 5-7.39 5l1 .69-.12 1.5s-2.19-.46-3.12.23-.46 1.27-.46 1.27-1.85-.12-2.19.69a1.23 1.23 0 0 0 .35 1.39 3.64 3.64 0 0 0-1.5 2.08c-.35 1.39.23 3 2.54 4.5s6.47 2.19 8.78 1.5a9.49 9.49 0 0 0 4-2.89l-.92-16.51z" fill="#f9e5cc"/><path d="M158.58 201.68a102.11 102.11 0 0 0 1.85 10.39 6.35 6.35 0 0 0 2.89 3.58l5.66.46 7.85.69a27 27 0 0 0 1.27-3.23c.12-.69 1-8.89 0-11.32s-2-2.54-2-2.54a11.43 11.43 0 0 1-8.32 3.7 30.27 30.27 0 0 1-9.2-1.73zM181.1 199.37a16.88 16.88 0 0 0 9.82 4c6.12.46 9.59-2.08 9.59-2.08s-.46 5.89-.92 7.85-2.43 5.66-2.89 5.66a33 33 0 0 1-6.81 1.27c-3.46.12-8 1.27-8.08.81a41.75 41.75 0 0 1-1.15-5.54c-.02-1.12-.94-9.34.44-11.97z" fill="#d2a274"/><path d="M163.32 215.65s-3.7-.23-5.43.81a7.74 7.74 0 0 0-2.54 2.43s-4 2.89-4.5 4.16 0 4.94.6 6.65c1 2.75 11.64 4.32 12.56 4.32s10.62-.12 10.62-.12l3.35-1.73.92-1.73s2.19 3.23 3.81 3.23 11.32.23 11.32.23a69.25 69.25 0 0 0 8.34-1.78c5.11-1.85 4.6-2.73 4.94-3.88a12.26 12.26 0 0 0-.35-5.43c-.46-1-5-5.08-5-5.08l-3.46-2.19-9.47 1-8.32.58-1.62 6-1.85-5.77z" fill="#efb000"/><path d="M175 164.37s9.7.69 11.09.46 20.54-3.83 20.54-3.83 1.62 6 .81 9.47a77.31 77.31 0 0 0-1.27 8.43s1.27 13.51-.58 16.28-3.81 5-6.47 5.77-3.35 2.54-8.2 2.19-8.2-2.66-9-4l-2.2-9.14s-2 8.32-3.58 9.47-3.23 3.46-7.62 3.7-11.66-2.77-11.66-2.77-2.54-.69-3.58-5.77-1.15-18.13-1.15-18.13l-.69-13.86s5.43-.12 8.32.69 15.24 1.04 15.24 1.04z" fill="#fd8204"/><path d="M158 163.68s.81 8.66.81 11.66-.46 11.78.23 15.13 1.5 8.32 2.66 10.62c0 0-3.23-1.39-4-3s-2.77-11.9-3.58-23.91c0 0-.69-11 0-11.32s3.88.82 3.88.82zM162.16 164.26s.69 5.77.92 8.66.92 11.55.81 13.4.81 13.63 2.89 16.17c0 0 2.66 1.27 3.12.58s-.84-4.51-1.52-7.79c-.56-2.72-.56-13.23-.9-16.47s-.92-12.59-.69-14.09c-.01 0-3.7-1.04-4.63-.46zM171.17 164.49a19.27 19.27 0 0 0-.12 7.16c.69 3.81 1.5 16.28 1.85 19.86s.35 9.93-.69 10.86 3-.81 3.93-2.66-.69-21.25-.81-23.56-1-10.16-.35-11.55zM182.49 165.18s-.35 12.93-.58 17.32 1.79 20.17 3.93 19.63c.46-.12 2.77 1.27 5.08 1.27s5.77-1.5 5.77-2-.69-18.82-.92-22.87-.69-14.44-.69-14.44l-4.39.58s1.85 30.6 1.5 33.61a30.26 30.26 0 0 1-.58 3.81s-2.66-.35-3.93-8.55-.81-27.83-.92-28.18-4.27-.18-4.27-.18zM199.58 163.56s.69 20.09.58 22.87 0 10.51-2.43 14.09c0 0 0 .58 1.39.69s3.35-1.5 4.16-2.31 1.5-6.58 1.5-9.47-.35-20.33-.58-22.75-.58-4.62-.58-4.62z" fill="#e16702"/><ellipse cx="166.48" cy="109.93" rx="3.81" ry="4.48" transform="rotate(-30 166.485 109.93)" fill="#fd8204"/><ellipse cx="153.46" cy="128.2" rx="3.81" ry="4.77" transform="rotate(-30 153.468 128.202)" fill="#fd8204"/><ellipse cx="203.12" cy="122.43" rx="3.81" ry="4.77" transform="rotate(-30 203.116 122.425)" fill="#fd8204"/><ellipse cx="213.17" cy="110.3" rx="3.81" ry="4.77" transform="rotate(-30 213.166 110.298)" fill="#fd8204"/><path d="M187.35 84.09c1.29 2.24.89 4.88-.89 5.91a4 4 0 0 1-4.82-1.16c-.28-.3 1-7.31 1.51-7.33a4.79 4.79 0 0 1 4.2 2.58z" fill="#fd8204"/><ellipse cx="175.87" cy="125.77" rx="4.77" ry="3.81" transform="rotate(-56.56 175.845 125.773)" fill="#fd8204"/><ellipse cx="205.73" cy="139.11" rx="4.77" ry="3.81" transform="rotate(-56.56 205.712 139.11)" fill="#fd8204"/><ellipse cx="163.39" cy="142.29" rx="4.77" ry="3.81" transform="matrix(.55 -.83 .83 .55 -45.39 200.21)" fill="#fd8204"/><ellipse cx="185.72" cy="141.97" rx="3.81" ry="4.77" transform="rotate(-34.92 185.746 141.979)" fill="#fd8204"/><ellipse cx="189.15" cy="111.92" rx="4.77" ry="3.81" transform="rotate(-56.56 189.126 111.911)" fill="#fd8204"/><ellipse cx="198.39" cy="91.82" rx="4.77" ry="3.81" transform="rotate(-56.56 198.364 91.823)" fill="#fd8204"/><ellipse cx="154.04" cy="90.55" rx="4.77" ry="3.81" transform="rotate(-56.56 154.027 90.547)" fill="#fd8204"/><ellipse cx="126.67" cy="132.7" rx="4.77" ry="3.81" transform="rotate(-56.56 126.654 132.696)" fill="#fd8204"/><ellipse cx="124.13" cy="104.64" rx="3.81" ry="4.77" transform="rotate(-55.07 124.113 104.64)" fill="#fd8204"/><path d="M141.11 88.72a3 3 0 0 1-2.62 1.66h-.12a3 3 0 0 1-.76-.1 3 3 0 0 1-2.82 2.18h-.45a5.64 5.64 0 0 0 1.81 2c2.16 1.51 4.89 1.34 6.09-.39 1.09-1.53.56-3.81-1.13-5.35zM137.8 143.28a3 3 0 0 1 2.83-1.28h.11a3 3 0 0 1 .73.2 3 3 0 0 1 3.1-1.76h.11l.32.07a5.64 5.64 0 0 0-1.5-2.27c-1.93-1.8-4.65-2-6.08-.47-1.29 1.41-1.09 3.75.38 5.51z" fill="#fd8204"/><ellipse cx="143.12" cy="108.7" rx="4.15" ry="3.31" transform="matrix(.55 -.83 .83 .55 -26.45 168.22)" fill="#fd8204"/><path d="M219.27 132.51c0-.46-3.87-1.65-4.55-2.62s-.74-2.5.91-2.5 4.44 1.08 4.89.68l.46-.4.68 1.54-.11 3.87a1.63 1.63 0 0 0 1.82.57c1.31-.28 1.37-1.82 1.37-1.82l-.23-3.41a4.46 4.46 0 0 1 3.19.34c1.48.85 3.24.91 4 2.73s1.31 4.21 1.82 5.58-.06 3.07-.68 5.23a52.23 52.23 0 0 1-2.28 5.69s-4.5.68-6.37.68-4.89-.4-6.26-1.71a2.23 2.23 0 0 1-.68-2.39 13.29 13.29 0 0 1-1.37-3.19c-.28-1.37.57-4.89.57-4.89s-.34-1.82.34-2.16a25.3 25.3 0 0 1 3.19-.91z" fill="#fbdfcb"/><path d="M222 125.68c-.25-.74 1.12-54.4 1.12-54.4s-.4-3.19 1.37-3.53 1.51 4.33 1.51 4.33l-1.37 60.54s.34.51-1.25 1-1.82-.57-1.82-.57zM220.29 205.91l1-56.9a5.1 5.1 0 0 1 1.82-.34c1 0 1.25 3.41 1.25 3.76s-.91 53.49-.91 53.49-1.9 2.95-3.16-.01z" fill="#efb000"/><path d="M219.42 226.77c-.27.11-16.16 5.16-16.16 5.16s-8.27 2.5-9.63 3.41-2.2 2.35-1.9 3.19a10.81 10.81 0 0 0 1.21 3c.64.8 6.15 7 7.28 7.36s5.61-.42 6.3-.61 41.38-13.12 41.8-13.35 3.07-1.71 3.34-2.66a4.88 4.88 0 0 0 .08-3c-.34-1.14-6.45-5.73-6.9-6.07a18.54 18.54 0 0 0-3.72-2c-.49.11-21.7 5.57-21.7 5.57z" fill="#fd8204"/><path d="M220.07 220.47l-.11 8.76-5.96 2.17s-3.19.17-3.07 1 2.39 3.07 2.39 3.07l3.07 2.73 17.67-5.2a2.19 2.19 0 0 0-.57-1.93c-.85-1.08-4.1-4.44-4.1-4.44l-6.26 1.82-.13-21.18-2.62-.34z" fill="#c7c0b1"/><path d="M230.42 226s10-2.67 10.58-2.5 5.35 4.55 5.35 4.55a4.06 4.06 0 0 1-2 1.82c-1.19.28-8.53 2.62-8.53 2.62l-1.48-.57-4.89-5.35zM197.19 236.75l4.55 5.69s3 .68 3.76.34l9.9-4.44-2-2.84-2.4-3.08z" fill="#f5e0c7"/><path d="M156 61.43a2.81 2.81 0 0 1 2-1.36c1.27 0 1.87.87 5.16 1.76s10 2 14.57.81c2.42-.63 8.13-3.09 8.74-3.26a1.37 1.37 0 0 1 1.36.29.72.72 0 0 1 .14 1.1c-.32.29-.87-.63-1.07-.66s-5.17 2.58-6.43 3.29c-2 1.12-5.74 1.53-9.06 1.41a25.9 25.9 0 0 1-7.9-1.76c-2-.72-4.53-2.16-5.16-2.16a6.24 6.24 0 0 0-2 .75s-.35.54-.35-.21zM166.21 66.8s0-.43.55-.43a52.42 52.42 0 0 0 5.34.69 24.33 24.33 0 0 0 6.26-.63c.58-.29.89-.14.89 0a14 14 0 0 1-6.11 2.13c-2.86.17-6.41-.98-6.93-1.76zM168.2 54.83a5.25 5.25 0 0 0 3.58 1.17 6.56 6.56 0 0 0 3.61-1.27c.17-.2.29-.58-.66-.32a8.44 8.44 0 0 1-3 .4 23.51 23.51 0 0 1-3-.29s-.73-.33-.53.31zM183.54 35.74s.23.43 3.09.72 5.62 2.11 5.85 2.13.61 0-.09-.63a19.49 19.49 0 0 0-4.64-2.88c-1.15-.33-4.41-.64-4.21.66zM149 38.24c.06.17.36 0 1.74-.69a14.19 14.19 0 0 1 5-1.12c1.24 0 2.71 0 3.14.06s1.93-.69.2-1.33-5.71.2-7 .75a9.1 9.1 0 0 0-2.74 1.64 1 1 0 0 0-.34.69zM163.24 45a9.44 9.44 0 0 0-2.74-3 6.68 6.68 0 0 0-4.64-1.36c-1.24 0-3.48.2-4.46.84a6.63 6.63 0 0 0-2.06 2.67 1.12 1.12 0 0 0 .23 1 4 4 0 0 0 .84.78 15.52 15.52 0 0 0 3.2 1.31 13.54 13.54 0 0 0 5.06 0c1.14-.25 2.47-1 3.11-1 .3 0 1.07.2 1.28 0s.6-.45.18-1.24zM154 46.45a3.59 3.59 0 0 1-1.15-.18 9 9 0 0 1-1.76-1.2.79.79 0 0 1-.22-.55c0-.27.43-.89.91-1.49a3.4 3.4 0 0 1 1.22-.87c.43-.19.61-.13.56 0A3.12 3.12 0 0 0 153 44a2.91 2.91 0 0 0 1.18 2.22s.1.2-.18.23zm5.23-2.45a1.81 1.81 0 0 1-1.08 1.72 3.51 3.51 0 0 1-2.7.15 2.12 2.12 0 0 1-1.26-1.45 2.45 2.45 0 0 1 .19-1.86.81.81 0 0 1 .37-.29.47.47 0 0 1 .25 0c.36.16.25.32.23.39a2.16 2.16 0 0 0 0 1.62 1.5 1.5 0 0 0 1.33.8 1.35 1.35 0 0 0 1.4-1 1.53 1.53 0 0 0-.13-1 .52.52 0 0 1 .66-.66c.65.22.77 1.09.74 1.58zm2.8 1.69c-.19.09-.81-.32-1.24-.25a4 4 0 0 0-1.06.42c-.11 0-.2 0-.16-.12a2.14 2.14 0 0 0 .56-1.4 3.35 3.35 0 0 0-.43-2.1 6.15 6.15 0 0 1 2.13 2.25c.37.71.39 1.09.17 1.18z" fill="#692f23"/><circle cx="155.55" cy="43.38" r=".71" fill="#fff"/><path d="M192.06 44.21a15.08 15.08 0 0 0-2.27-2.09 6.81 6.81 0 0 0-2.58-1 9 9 0 0 0-5.57.13c-1.37.62-2.56 3-2.65 3.66a2 2 0 0 0 0 1c.14.64.81.47.84.47a6.83 6.83 0 0 1 1.81.22c.6.15 2.55.76 3.15.86a12.72 12.72 0 0 0 4.38-.21 6.21 6.21 0 0 0 3.27-1.87c.36-.38-.04-.76-.38-1.17zm-11.19 1.17a1.18 1.18 0 0 0-.63.07c-.33 0-.18-.47-.18-.47l.24-.53a5.65 5.65 0 0 1 1.56-1.67 5.37 5.37 0 0 1 1.44-.78c-.05.1-.29.32-.38.5a3.29 3.29 0 0 0-.31 1.61 2.92 2.92 0 0 0 1.07 2.19s-2.25-.84-2.81-.91zm7.75-1.22a2.24 2.24 0 0 1-1.46 2 2.65 2.65 0 0 1-3.13-1 2.2 2.2 0 0 1-.09-2.3s.15-.25.36-.26a.91.91 0 0 1 .65.2c.16.15 0 .45-.12.83a1.21 1.21 0 0 0 1 1.53 1.31 1.31 0 0 0 1.67-1c0-.4.08-.9.53-.9s.69.16.59.91zm2.72.89a14.54 14.54 0 0 1-2.23 1.16.22.22 0 0 1-.12 0c-.2-.1.35-.46.59-1.54a3.22 3.22 0 0 0-.06-1.8c.47.33 1.35 1 1.78 1.35s.2.66.04.84z" fill="#692f23"/><circle cx="184.81" cy="43.36" r=".7" fill="#fff"/><circle cx="166.41" cy="78.17" r=".6" fill="#692f23"/><circle cx="170.57" cy="77.66" r=".59" fill="#692f23"/><ellipse cx="174.26" cy="79.47" rx=".48" ry=".59" fill="#692f23"/><circle cx="178.38" cy="77.78" r=".63" fill="#692f23"/><circle cx="182.48" cy="78.26" r=".62" fill="#692f23"/><circle cx="186.2" cy="76.18" r=".6" fill="#692f23"/><circle cx="174.9" cy="83.93" r=".66" fill="#692f23"/><circle cx="180.2" cy="86.29" r=".66" fill="#692f23"/><circle cx="175.59" cy="91.6" r=".66" fill="#692f23"/><circle cx="170.63" cy="95.29" r=".66" fill="#692f23"/><circle cx="175.65" cy="99.3" r=".66" fill="#692f23"/><circle cx="180.29" cy="94.71" r=".66" fill="#692f23"/><circle cx="180.06" cy="102.59" r=".66" fill="#692f23"/><circle cx="170.66" cy="87.27" r=".66" fill="#692f23"/><path d="M192.71 184.26a30.75 30.75 0 0 0 4.85-1.35c1.23-.62 3.42-1.92 3.88-2.12s.46.15-.35 1a6.44 6.44 0 0 1-3.5 2.46 12.5 12.5 0 0 1-5.19.62c-.27-.11-.57-.57.31-.61zM182.22 81.64h-.01.01zM199.3 218.67z" fill="#692f23"/><circle cx="153.9" cy="159.6" r=".85" fill="#692f23"/><circle cx="160.67" cy="154.75" r=".85" fill="#692f23"/><circle cx="166.29" cy="160.84" r=".85" fill="#692f23"/><circle cx="172.3" cy="156.06" r=".85" fill="#692f23"/><circle cx="184.54" cy="155.75" r=".85" fill="#692f23"/><circle cx="191.4" cy="160.6" r=".85" fill="#692f23"/><circle cx="197.56" cy="155.37" r=".85" fill="#692f23"/><circle cx="203.41" cy="158.53" r=".85" fill="#692f23"/><circle cx="207.72" cy="152.6" r=".85" transform="rotate(-35.54 207.724 152.591)" fill="#692f23"/><path d="M252.37 229.58a2.18 2.18 0 0 0-.74-1.46s-7.92-6.29-9-6.78a6 6 0 0 0-2.57-.34l-16.33 4.17 1.14-63L225 155s1.65 0 4.32-.14a7.28 7.28 0 0 0 4.81-1.88 32.51 32.51 0 0 0 2.33-4.07c.31-.65 2.18-5.48 2.36-6.15a12.29 12.29 0 0 0 .23-4c-.17-1-.66-3-.86-3.75 0-.1 0-.2-.08-.32a42.67 42.67 0 0 0-4.21-8.25 30 30 0 0 1-1.76-4.1c-.48-.94-1-1.62-1.65-3a23.88 23.88 0 0 1-1.48-5.23 43.19 43.19 0 0 0-2.56-6.83 7.72 7.72 0 0 1-.68-2.22s.31-36.13.17-36.7-.94-1.11-2.16-.8-1.25 2-1.25 2-1 31-.85 31.24c0 0-2.87-3.44-4.21-5.18s-5.12-7.48-8.25-10.3A35.19 35.19 0 0 0 198 78.68c-1.79-.94-3.35-.5-3.21-.89a47.42 47.42 0 0 0 7.63-1.57 22.47 22.47 0 0 0 6-2.85 5.27 5.27 0 0 0 .93-.61 18.28 18.28 0 0 0 3.65-2.39c1-1 4.87-2.13 7.5-5.77s5.74-6.26 6.17-7.64 1.5-3.92 2-5.62a43.47 43.47 0 0 0 .92-10 23.25 23.25 0 0 0-1.24-7.27c-.63-1.47-5.08-9.29-6.92-12.06s-7.3-7.85-8-8.71a53.15 53.15 0 0 0-7.9-6.09 26.18 26.18 0 0 0-6.73-2.51l-3.45-1a45 45 0 0 0-5.23-2.12 20.07 20.07 0 0 0-5.11 0A7.35 7.35 0 0 0 180.39 0s-3 .5-3.81.54c0 0-1.81.23-2.46.27s-4.92-.12-6.5 0a29 29 0 0 0-9.12 2.47v-.05A66.58 66.58 0 0 0 151.63 7a84.07 84.07 0 0 1-7.15 4.54 78.4 78.4 0 0 0-6.85 5.08 44 44 0 0 0-7 9.19 43.2 43.2 0 0 0-3.54 9.88 35.44 35.44 0 0 0-.35 5.57l-.15.32s0 3.15.15 5.88a43.4 43.4 0 0 0 3 11.54 27.88 27.88 0 0 0 5.11 7.73c2.08 2 2.5 2.73 2.85 3 0 0 1.62 1.27 3.11 2.58a18.1 18.1 0 0 0 4.31 2.62c.73.31 4.46 2.35 5.15 2.62a15.57 15.57 0 0 1 2.58.85 2.46 2.46 0 0 0 1.46.2 3.36 3.36 0 0 0 .92.26 19.42 19.42 0 0 0 2 .17c-1.66.66-5.15 1.82-7.27 2.92-3.86 2-5.46 4.61-6.94 5.61-1.22.82-19.84 8.31-23.25 12.4s-2.42 11-1.85 13 3.69 11.88 3.69 13-2.37.92-2.54 3 3.06 7.5 3.69 8.42 2 1.1 2.83 1.85.81 2.13 1.79 3.46a6.05 6.05 0 0 0 3.35 2.25c.88.21 3.66.09 7.27-1.15a2.08 2.08 0 0 0 1.11.51v.81s-.58-.65-2-.19a2.22 2.22 0 0 0-1.65 1.58 2.1 2.1 0 0 0-2 .77 2.13 2.13 0 0 0-.35 2.08 2.48 2.48 0 0 0-1.27 2.38 4.27 4.27 0 0 0 3 4.38 44.74 44.74 0 0 0 6.38 1.65c1.58.11 4.55 0 5.9-1a34 34 0 0 0 .59 5.55c.22.65.14.72 2.08.88.09 0 .66-.08.74.43a30.21 30.21 0 0 0-.2 3.26c.12 1.65 0 5 .19 6.08a54.45 54.45 0 0 1 .77 6.38c.08 2.46.27 7.31.23 9.84s.35 6.38 1.12 8.08a6.28 6.28 0 0 0 2.88 3.19c.88.35 1.35.5 1.69 1.08a19.49 19.49 0 0 1 .77 4.35 19.92 19.92 0 0 0 1.35 6.11c.92 1.85 1.12 2.5.85 2.85s-1 0-2.08.65a24.06 24.06 0 0 0-2.69 2.5c-.85.73-2 1-3.31 2.27a6.57 6.57 0 0 0-2 3.23 12.06 12.06 0 0 0 .23 4.54 6.2 6.2 0 0 0 3.88 4.42 31.56 31.56 0 0 0 6.08 1.58c1.58.27 10.65.31 12.19.27a18.32 18.32 0 0 0 4.5-.58 3.65 3.65 0 0 0 2-2.25 8.13 8.13 0 0 0 1.58 1.82c.88.69 5.31 1 8.5 1h.15l5.58-.36c-.86.27-1.53.48-1.46.48-.63.44-1.91 1.44-2 2.32a8.65 8.65 0 0 0 .91 4.46 84.26 84.26 0 0 0 8.09 8.6 4.62 4.62 0 0 0 2.54 0s47.11-15.52 48.14-15.92a1.77 1.77 0 0 0 1.17-1.2s.25-2.18.19-3.09zm-18.58 2.34c.46.94-1 1-1.06 1.11s-13.26 3.77-13.86 4-2.37.69-3 .14-3.17-3.43-3.17-3.43-1.06-1.14-.83-1.46 6.91-2.33 7.58-2.53v1c.23 1.32.43 2.69 2.4 2.12a2.55 2.55 0 0 0 1.8-2.63v-1.68c.72-.25 3-1 4-1.27a3.54 3.54 0 0 1 1.89 0s3.79 3.71 4.25 4.63zm-2.57-5.32c.63-.46 8.86-2.2 9.55-2.26s4.49 2.63 4.86 3.57-1 1.26-1 1.26-8 2.66-8.89 2.66a2.89 2.89 0 0 1-1.16-.25c-.38-.45-1-1.19-1.5-1.9a13.24 13.24 0 0 0-2.34-2.23c-.09-.24-.02-.45.48-.84zm-16.29 11.28c-1.31.45-9.89 3.8-10.81 4s-1.06 0-1.63-.46-4.29-3.94-4.29-3.94-.34-.43.54-.8 10.55-3.29 11.21-3.37a1.37 1.37 0 0 1 1.13.27 34 34 0 0 0 3.19 3.74zm-19.26-8.21a18 18 0 0 0 3.46-.08c1.62-.23 3-1 3-.73a4.23 4.23 0 0 1-.27 1.15 3.76 3.76 0 0 1-1.19 2.15c-.47.1-1.59.48-2.27.7a4 4 0 0 1-2.46-.28 2.67 2.67 0 0 1-.5-1.13h.08a5.25 5.25 0 0 1 .15-1.78zm-8.61-12.77a32.14 32.14 0 0 1 3.61-.58v1a33.31 33.31 0 0 0-4.48 1 .12.12 0 0 0 0-.06 1.16 1.16 0 0 1 0-.51h.13c-.01 0 .16-.61.74-.84zm-.19 2.38a14.92 14.92 0 0 1 3.69-.9 4.91 4.91 0 0 1-.07.56 8.46 8.46 0 0 0 .31 2.37l-5.93 1.32a8.23 8.23 0 0 1 .5-1.92c.3-.19 1-1.11 1.5-1.42zm2.77-4c-1.5.19-4.73.69-6 .73a2 2 0 0 1-2.12-1.31c-.5-.88 0-1.69-.27-2.81 0-.17-.07-.38-.1-.63.69.49 2.85 1.34 6.37 1.86a27.28 27.28 0 0 0 9.58-.5 3.77 3.77 0 0 1-1.92 2.12c-1.39.51-4.05.32-5.54.51zm-8.38 5.5c-.54.23-.38-.35-.38-.35a4.82 4.82 0 0 1 1.92-2.67 2.81 2.81 0 0 1 2-.45l-.15.92a4.86 4.86 0 0 0 0 .62l-.07.18c-1.05.51-2.9 1.54-3.33 1.72zm2.6 0a13.46 13.46 0 0 0-.45 1.53 4.36 4.36 0 0 0-.06.5 3.73 3.73 0 0 1-1.38.29h-.09c-.58-.08-.54-.65-.27-1.08a8.73 8.73 0 0 1 2.24-1.26zm-6.1 5.49a.39.39 0 0 0 .1.22 1.09 1.09 0 0 1 0 .47c-.08.46-1.08.77-1.38.85 0 0-1.54.88-1.5-.88 0-.64.11-1.47.17-2.33a7 7 0 0 0 1.6 0 3.15 3.15 0 0 0 1.35-.39 4.6 4.6 0 0 0-.35 2.04zm-4.27-8.81l-.12-.12h.23s.5-.38 2.23.35a3 3 0 0 1 1.5 1.69 5.55 5.55 0 0 1 .28 1.58c-.65-.39-2.41-1.45-3.77-2.12.09-.17.24-.68-.36-1.4zm-7.37-.24h-3.67a2.83 2.83 0 0 0 .58-.73 1.46 1.46 0 0 1 .68-.53 16.39 16.39 0 0 1 1.85-.07h-.22s1.78.28.77 1.31zm-2.32-2.37c-1.23 0-2.12-1.77-2.5-2.35a11.31 11.31 0 0 0 1.7.5 37.39 37.39 0 0 0 10.84-.35 8.63 8.63 0 0 0 3.6-1.32c-.13 1.67-.36 3.4-1.2 4.25v.13l-.09-.09s-.65.58-3.81.19-7.34-.94-8.55-.98zm8.34 3.31l-.07.05a39.52 39.52 0 0 0-3.95-.76 4.28 4.28 0 0 0-.23-1.26c1.24.24 2.6.57 3.16.71a1.44 1.44 0 0 1 1.09 1.24zm-4.5 3c.31-.33.41-.25.54-1a7 7 0 0 0 0-1.69 23.19 23.19 0 0 1 2.82.53 4.26 4.26 0 0 1 2.76 3.67l-.38-.13a40.43 40.43 0 0 0-5.77-1.2c.01-.1 0-.18.03-.2zm7.17-11a36.23 36.23 0 0 1-11.48-2 59 59 0 0 0 7.73.06 13.94 13.94 0 0 0 6.61-2 29 29 0 0 1 0 3 7 7 0 0 1-2.86.92zm1.44 11.58a8.45 8.45 0 0 1 .8.45c.28.39.37.85-.22 1a5.14 5.14 0 0 1-1.64-.13 5.35 5.35 0 0 0-.43-2.15c.66.33 1.24.66 1.49.8zm-9.69-67.18c.62.05 3 7.33 3.54 8.88-1.58-.08-5.61-.59-8.74-.88 1.26-2.29 4.57-8.08 5.2-8.03zm-6.83 6.56c-.62-2.06-2.75-7.71-3.21-8.91l2.73.2c.75 0 3.54.37 6 .64-.88 1.53-3.74 6.52-4.47 8-.85 1.67-1.05.04-1.05.04zm8.27-7.81c.75.08 2.2.15 2.2.15.91 0 4 .18 5.53.18h1.2c-1.12 2.54-2.22 5.42-3.32 7.3-1.22 2.07-1.53 2.42-2 1.9s-2.79-7.52-3.61-9.57zm10.21 1.49c.43.32 4.67 7.71 5.24 8.71-3.9.09-7.37.09-9.91 0 1.71-1.69 4.25-9.07 4.67-8.75zm27.79 4.63a5.64 5.64 0 0 1-2.26 1.45c-1.57.42-3.17.81-4 1 1.2-2.86 3.87-9.34 3.87-9.34s3.33 5.68 2.39 6.89zm-1.2-8.3a9.82 9.82 0 0 0 4.08-1.5 7.59 7.59 0 0 1 .19 1.48c.15 2.35.4 3.77.44 5.78a3.72 3.72 0 0 1-.23 1.65c-.32.25-.75.43-1.08-.09-.55-.8-2.66-5.55-3.44-7.32zm-6.57 9.87c-2.08-1.67-5.83-6.89-6.63-7.89l1.86-.09a61.27 61.27 0 0 0 8.86-1.3 51.18 51.18 0 0 1-4.09 9.28zm-1 1.27a86.21 86.21 0 0 1-11.6 1.15c1.51-1.54 4.94-8.83 4.94-8.83zm-12.3-.09c-.68-.06-2.08-2.65-3.3-4.7-1-1.63-1.61-2.9-2.13-3.93 2.85-.07 7.16-.16 10.17-.28-1.98 3.95-4.12 8.95-4.73 8.9zm-4.93 2.73s5.09.25 9.77.08a51.4 51.4 0 0 0 10.27-1.35c1.73-.25 4-.93 5.87-1.25.19 0 .47.31.47 1.52v7.23a15.79 15.79 0 0 1-2.19 8.34s-.31.19.54.65.62 4.27.62 5.5.77 5.61-.73 9.23-2.15 4.23-3.81 5.11c0 0-.85.46.19-.81a10.74 10.74 0 0 0 2-5.81c.15-2.35.08-4.19-.23-4.11s-.62 5-1.5 6.61a11.45 11.45 0 0 1-11.08 6.31c-1.12-.08-2.58-.12-3.38-1.92a16.4 16.4 0 0 1-1.08-4.08s-.42-1-.12 1.19a10.72 10.72 0 0 0 1.23 4.42 4.8 4.8 0 0 1-4.11-2.58h-.27l.27-.16s-1.19-3.5-1.69-5.85a70.88 70.88 0 0 1-1.54-12.19c-.06-4.5.5-16.08.5-16.08zm9.69 43.46s3.73.12 5.19 0a33.59 33.59 0 0 1-7.31 2.19c-2.55.25-5.49-.29-6.6-1.06-.07-1-.11-2.23-.13-3.24.95.74 4.16 1.92 8.87 2.11zm-8.79-4.78a7.35 7.35 0 0 1 .48-2.61c.38-.69 1.23-.65 2.12.42s4.61 1.92 7.88 2.15a17 17 0 0 0 5.9-.75 16.82 16.82 0 0 1-5.36 1.63 22.44 22.44 0 0 1-8.15.31c-1.62-.28-2.22-.37-2.85-1.15zm3.9 7.62c.69.15 5.85.15 8.5-1s4.81-2 5.42-2.58c-.26.95-.59 2.16-.93 3.23a21 21 0 0 1-12.53 1s-2.15-.5-2.35-1 1.23.2 1.92.35zm12.08-4.11a62.37 62.37 0 0 1-11-.27 9 9 0 0 1-3.44-1.3 37.62 37.62 0 0 0 6.94.49 26.93 26.93 0 0 0 8.54-2.23 10.76 10.76 0 0 0 1.26-.88 10.79 10.79 0 0 1 .1 2.9 3 3 0 0 1-2.38 1.29zm-4.54 8.84a6 6 0 0 1 2.73 0h.11l.86 1.16c-1.5 0-2.92.08-3.95.14a1 1 0 0 1-.3-.68s.08-.56.58-.62zm1 2.15h.3a19.39 19.39 0 0 1 3.56.12 2.18 2.18 0 0 1 .86 1 14.45 14.45 0 0 0 1 1.65h-.86c-2.73.08-5.15.19-5.15.19s-1.61-2.53.32-2.95zm4.65-.92a.94.94 0 0 1-.38-.31c-.31-.52-.62-.91-.82-1a7 7 0 0 1 3 .38c1.08.58 1.23 1.23 1.23 1.23a20.64 20.64 0 0 0-3.02-.29zm6.93 3.84s.51.69-.66.54a34.58 34.58 0 0 0-3.61-.55l-1.34-2.26c.14-.02 3.63.26 5.63 2.26zm-1.15 2l2.54.38a2.48 2.48 0 0 1-.62 1.88 4.13 4.13 0 0 1-1.92 1.46c-.46 0-.54-.38-.73-.77s-1.19-3.19-1.19-3.19zm1.57 7.57l-.38.25-2.11.74c.11-.21.25-.49.42-.87a6 6 0 0 0 .46-2.32 7.74 7.74 0 0 0 3-1.68s.4 2.67-1.37 3.86zm3.15-5.27a6.66 6.66 0 0 0-2.19-4.92 17.69 17.69 0 0 0-3.5-2.35 23.79 23.79 0 0 1-1.69-2.12 4.57 4.57 0 0 0-2.2-.8H198.58c-.31-.07-.68-.25-.51-.77.26-.81.83-1.2 1.22-2.41a23.68 23.68 0 0 0 1.15-5.15c.12-2.15.31-4.27.31-4.27a1.1 1.1 0 0 1 .46-1.27 7.08 7.08 0 0 0 3.58-2.73c1.69-2.23 2-7.11 2.12-8.58s-.15-11.23.23-13.31a42.88 42.88 0 0 0 .88-7c.21-3.5-.37-6 0-7.33a5 5 0 0 0 3-.94c.35-.38.15-6 0-8-.06-.85-.22-3-.38-5.33a9.81 9.81 0 0 1 1.32 1.36c.74 1 2.42 2.93 3.24 3.93s4.61 2 5.23 2a.31.31 0 0 0 .19 0c-.07 4.17-.15 9.2-.18 11.34v.31s-.88 45-1 59.57l-12.21 3.72c1.01-1.26 1.32-2.98 1.29-4.97zm8.08-92.78a3.63 3.63 0 0 1 2.56.85 4.16 4.16 0 0 0-3.36 1.19c-.6.63-.06 2.22-.06 2.22a2.29 2.29 0 0 0-.8 1.22 21.79 21.79 0 0 0-.43 4.89c.06 2.11 0 3.9 1.14 5.06a7.4 7.4 0 0 0 2.28 1.62s.26 0-.11-.26a5.75 5.75 0 0 1-2.33-4.38 7.52 7.52 0 0 1 .36-3 7.5 7.5 0 0 0 .53 1.4 4.17 4.17 0 0 1 .51 1.71 2.51 2.51 0 0 0 1.59 2.79c1.6.77 2.16 1 2.3 1.07 0 .63-.05 2.59-.09 5-.21 0-3-.26-4.25-1.19s-3.36-4.47-4.15-6a12.47 12.47 0 0 1-1.37-3.7c-.2-1.08.6-5.52 1.31-6.49s1.56-1.71 1.88-2.33a3.56 3.56 0 0 1 2.52-1.69zm-1.42-4.5c.83-.31 3.9.57 4.89.63a3.36 3.36 0 0 0 1.27-.14c0 1.68 0 3.45-.31 3.67a.87.87 0 0 1-.53.14s-.54-.15-1.28-.38a14.88 14.88 0 0 1-3.47-1.49c-1.34-1-1.37-2.14-.55-2.46zm5.7 79.76a1.42 1.42 0 0 0 .66.2 4 4 0 0 0 1.08 0c-.25 12.6-.44 22.39-.45 22.8 0 1.17-.34 1.29-1 1.23s-.63-.89-.63-.89zm1.77-1.29a1.69 1.69 0 0 1-.74.15 2.89 2.89 0 0 1-1-.3c.19-12.71.57-27.72.78-38.49s0-1.74 0-4.12v-.81c0-4.87.1-11.73.17-12.71.05-.73.32-1 .57-1.1h.56a.81.81 0 0 1 .6.78l-.06 13.49h.06c-.14 11.53-.64 28.88-.92 43.08zm3.08-97.5s1.62 4.64 2.5 6.88.23 2 .23 2a7.51 7.51 0 0 0-2.83-1.24zm-.23 18.21l.11-9.11c0 .24.06.41.06.41a5.37 5.37 0 0 1 3.58 1.93 17.83 17.83 0 0 1 3.07 5.46c.54 1.59 2.3 4.1 3.3 6.49l1.42 3.41a14.69 14.69 0 0 1 .8 6.51 23.83 23.83 0 0 1-2.3 6.69c-1 1.66-3.06 4.47-5.46 4.89a26.79 26.79 0 0 1-5.18.28s0-4.13-.12-5h.15c1.05-.26 3.9-.94 4.44-.46s.4.68.17 1 .65.2 1.88-1 1.62-3.44 2.5-5.75a8.25 8.25 0 0 0 .34-5.58c-.46-1.25-1-2.7-1.31-3.7a7.93 7.93 0 0 0-1.19-2.84c-.83-1.25-4.1-3-6.23-3.13h-.05zm-2-55.31c.06-.91-.23-3.36.91-3.3s1 1.31 1 1.31l-.46 39.55s-.68 23-1 23.44-1.65.46-1.65.46 1.1-60.6 1.15-61.51zm.46 62.53a4.92 4.92 0 0 0 2.79-1.48c.54-.71.46-1 0-1.14s-.46.2-.91.57-.57.06-.57.06l.19-3.41c.1-.12.35-.26 1-.17 1 .14 4.41 1.71 5.46 3.58s.14 2.67.4 3.58 1.39 2.39 1.19 3.64a5 5 0 0 1-1.19 2.33c-.28.43.2 1.59-.11 2.33a4.66 4.66 0 0 1-.8 1.25 3.2 3.2 0 0 1-2 2.33c-1.68.57-5.69.51-7.17.4a11.13 11.13 0 0 1-3.53-1.14c-.77-.31-1.48-1.22-1.14-1.88s1.79.69 3.3 1a5.34 5.34 0 0 0 2.13.12c.48 0 3.71-.09 5.06 0s1.15-.67.63-1a6.76 6.76 0 0 0-3.76-.14 24.45 24.45 0 0 1-2.59.34h-.1a17.81 17.81 0 0 1-2.81-.72 3.6 3.6 0 0 1-2.62-2.28c-.48-1.34.51-1.17.8-1h.07c.27.1 1.29.47 1.61.63a5.67 5.67 0 0 0 3.53 1 7 7 0 0 0 3.53-.65 12.1 12.1 0 0 1 3-.11c.7 0 .83-.27.4-.85s-1.74-.53-2.48-.48-2.18.78-3.1.91a5.19 5.19 0 0 1-3.33-.37 11.77 11.77 0 0 0-2.08-.91.83.83 0 0 0-.34-.06 2.42 2.42 0 0 1-1.54-.88c-.48-.8-.44-1.47 0-1.85a.63.63 0 0 1 .68.09 10.62 10.62 0 0 0 3.73 1c2 .27 6.4-.87 7.2-1s1.79 0 2.16-.11.37-.84 0-1.11-1.64.36-2.93.51a45.12 45.12 0 0 1-7.51.31c-1.63-.12-2.25-.56-2.48-.88 0-.07 0-.18-.14-.34-.8-.91-.6-1.48.34-2s4.73.25 5.98-.07zm-34.5-57.56h-.2l-.25-3a52.58 52.58 0 0 0 9.13-5.21 45.88 45.88 0 0 0 6.88-7s-.5 1-1 2.23-.23 2.5-1.46 4.92-4.38 4.19-6.46 5.35a55.57 55.57 0 0 1-6.64 2.71zm-5.8-1.24c1.31-.38 2.65-.81 3.67-1.15a4.36 4.36 0 0 1 .1 2.82 2.6 2.6 0 0 1-1.16 1 6.26 6.26 0 0 0-2.61-2.67zm-16.53.49c.13.25 1.87 3.53 2.46 4.54a12.18 12.18 0 0 1-2.25-.52 7.72 7.72 0 0 1-3.21-1.84 34.59 34.59 0 0 0 2.99-2.17zm-3.53 1.15v-.1c-.06-.44-.12-1.39-.14-1.82l.14.05a16.89 16.89 0 0 0 1.82.41c-.54.42-1.39 1.11-1.83 1.47zm12 17.65a22.32 22.32 0 0 1-4.93-3.35l4.36-3.46a41.66 41.66 0 0 0 5.92 2.2 38.84 38.84 0 0 1-5.32 4.62zm5.7-3.1c.06 1.62.13 3.39.17 5a19.2 19.2 0 0 1-4.56-1.34 26.14 26.14 0 0 0 4.42-3.65zm-6.37-5.19l-.1-.06a21.21 21.21 0 0 1-3.73-2.49 11.59 11.59 0 0 1-1.37-2c2.42.17 6.64.31 8.36.31.13 0 1.5-.28 3-.56-1.17.83-3.23 2.29-3.72 2.61s-1.57 1.4-2.41 2.2zm.85-9.87a32.45 32.45 0 0 0 5-.44 31.78 31.78 0 0 1-2.2 3.53 36.37 36.37 0 0 0-2.77-3.08zm1.75 4.06a40.83 40.83 0 0 1-6.31 0l3-3.93c.81.43 2.81 3.2 3.34 3.94zm-6.88-1.23c-.09-.25-1.4-2.34-2-3.23 1.21.17 2.41.31 3.28.35h.69c-.41.83-1.84 3.16-1.94 2.89zm-1.59 3.63a11.85 11.85 0 0 0 4.88 4.27l.31-.24a1.36 1.36 0 0 1-.31.24l-4.4 3.51c-.1-2.82-.53-6.28-.56-7.11-.04-1.04.11-.66.11-.66zm.42 10.08v-.89c.55.45 3.74 2.94 4.53 3.39h.09c-1.35.73-3.48 1.65-4.31 2a18.86 18.86 0 0 1-.28-4.49zm1.08 5.76a36.77 36.77 0 0 0 5-2.6 35.56 35.56 0 0 0 5.3 1.68s-3.61 4.08-5.15 4.61zm4.6 5c-2-.6-4.05-1.64-4.41-2.52a11.37 11.37 0 0 1-.38-1.2c1.14.83 3.87 2.99 4.82 3.66zm6.39-5.06c0 2.25 0 4-.23 4.2a6.09 6.09 0 0 1-5 1.15l-.6-.14c.98-.51 4.81-3.39 5.83-5.21zm-.31-12.29v2.34a44 44 0 0 1-5.12-1.78l5.85-4.71a18.52 18.52 0 0 0-.73 4.1zm-1.52-6.24c.76-1.12 2.35-4.19 2.35-4.19a11.43 11.43 0 0 1 3 2.54c-.24.08-.45.15-.61.22-.59.2-3.08.96-4.74 1.38zm-5.3-5c-10.46.15-15.84-3.19-20.38-6.27s-8.5-8.38-9.77-10.38a45.43 45.43 0 0 1-2.73-5.58 4.47 4.47 0 0 1-2.81-1.65c-1.5-1.62-2.19-4-1.69-5.38a2.89 2.89 0 0 1 2.27-1.54 11.84 11.84 0 0 1-.92-3.61 6 6 0 0 1 .95-4 8.79 8.79 0 0 1 2.19-1.35c.82-.31 12.46-2.35 13.19-2.62a21.8 21.8 0 0 1 4.13-1.09 9.25 9.25 0 0 0 5.5.62s.19-3.5.77-4.61 1.15-4.35 2.08-5.5a9.9 9.9 0 0 0 .81 3.11 23.59 23.59 0 0 1 1.62 6.11 10.57 10.57 0 0 1 0 2.46c-.12.46.73.77 2-.27s7.81-2 9.58-2.08a17.06 17.06 0 0 1 7 .81c3 1.08 8.54.54 9.38.27a8.68 8.68 0 0 0 2.85 2.81 6.75 6.75 0 0 1 2.98 3.27c.38.81.5 3.5 2.5 4.85a6.53 6.53 0 0 0 1.12.69c.35.12.73-.27 1.19-.62a3.4 3.4 0 0 1 2.85-.27 3.36 3.36 0 0 1 2.5 3.35c.12 2-.31 4.54-2.27 5.65a11.7 11.7 0 0 1-2.89 1.35 21.58 21.58 0 0 1-.77 2.42.41.41 0 0 0 0 .21c-.69 1.37-1.42 2-3.3 4.44s-5.5 5.58-9.11 8.19-10.36 6-20.82 6.15zM139.94 33.3a1.35 1.35 0 0 0 .31.37c.21.4.51.87.77.94 0 0-1.69 1.38-2.23 2a.48.48 0 0 0-.15.26c-1.58 1.35-1.54 4.79-1.54 5.55s-.27.73-.27.73a9.41 9.41 0 0 1-1.15-2.92c-.54-2.08-.35-6.61-.19-8.11a19.84 19.84 0 0 1 2.69-7c.64-1 1.25-1.79 1.72-2.4a27.58 27.58 0 0 0-1 5.24 9.39 9.39 0 0 0 1.04 5.34zm67.32 4.25a19.8 19.8 0 0 1 4.41.92 6.69 6.69 0 0 1 3.72 5.68 9.58 9.58 0 0 1-.52 2.37c-.31.5.12-2-1.69-3.35 0 0-.73-.73-3-.5s-3.08 1-4-.27-.85-2.85-1.54-3.61a25.83 25.83 0 0 1-2.38-3 7 7 0 0 0 1.38.63 2.36 2.36 0 0 1 1.47.81 9 9 0 0 0 2.65 2.62A8.09 8.09 0 0 0 212.1 41a14.84 14.84 0 0 1-4.85-3.45zm1.44 33.17a6.08 6.08 0 0 1-2.15 2.15 29 29 0 0 1-5.88 2.46 10.63 10.63 0 0 1-4 .58 13.6 13.6 0 0 0 3.33-2.15 14.51 14.51 0 0 0 4.27-5.92c.77-1.62 2.12-6.73 2.61-7.77s1.73-3.19 1.73-3.19a9.41 9.41 0 0 1 1.85-2.35 4.62 4.62 0 0 0 1.27-1.38s-.27 1.26-.36 1.86h-.06s-.23.92-.46 2.12-1.23 2.38-1.58 3.73a15.76 15.76 0 0 0 .19 5.77 5.32 5.32 0 0 1-.77 4.09zm4.4-3.89a4.52 4.52 0 0 1-.82 2.13c-.55.69-1.33 1.53-1.33 1.53A3.35 3.35 0 0 0 211 69c.16-2.16-.77-4.39-.84-6.35a6.6 6.6 0 0 1 1.12-3.81s.19.38 1.12 3.15.88 3.6.69 4.84zm-.67-9a10 10 0 0 1 .23-3.06l.08-.05a16 16 0 0 1 1.5-3.5 17.65 17.65 0 0 0 1.76-4.14c.37 2.49-.49 8.27-.49 8.27a20.23 20.23 0 0 0 1.41-3.75 24.19 24.19 0 0 0 .26-6.32 26.27 26.27 0 0 0-1.18-4.61 3.65 3.65 0 0 1-.2-2.42c.06-.63.84-4.5-.12-7.7 0 0 1.24.78 2.6 3.72s2.31 3.84 3.29 9.26.37 9.06.06 9.78a11.76 11.76 0 0 1-3.2 4.61 20.68 20.68 0 0 0-4.1 4.81c-.44-1.28-1.67-4.01-1.91-4.93zm10.29-13.9c-.75-4.12-2.6-9.17-4-11.19l-.53-.77c2 1.89 5.25 5.67 6 9.13 1 4.56-.17 6.75-.4 8.16a13.62 13.62 0 0 1-.84 2.7 29.75 29.75 0 0 0-.24-8.06zM195.8 4.59c1.21.23 2.68.61 2.68.61s3.72.92 9.78 5.34S219.68 22 220.2 22.41s4.15 7 4.7 8 1.47 2.8 1.9 3.43a12.92 12.92 0 0 1 1.62 5.74 39.43 39.43 0 0 1-.2 8.85 21.58 21.58 0 0 1-2.57 7.57 49.79 49.79 0 0 1-5 6.46 43.75 43.75 0 0 1-5.8 4.93 19 19 0 0 1 3.09-7.3c2.48-3.43 4.85-4.7 6.09-7.56h-.08a27.14 27.14 0 0 0 2-7.43c0-1.1-.69-6.06-2-8s-2.65-4.07-4.47-5.11a17.69 17.69 0 0 1-3.84-3.84c-.37-.55-.66-1-.78-1.21a68.17 68.17 0 0 1-3.37-8c-1-2.94-4.87-6.58-5.77-7.5A56.86 56.86 0 0 0 199.75 7a42.34 42.34 0 0 0-4.41-2.25s-.75-.39.46-.16zm-4.72-1.78a14.61 14.61 0 0 1 3.42 2s1.87 1.25 3.06 2 3.26 2 4.15 2.68a54.83 54.83 0 0 1 5 4.9 40 40 0 0 1 4.47 7.07 44.38 44.38 0 0 1 2.82 9.05 65.3 65.3 0 0 1 .61 7.27 1.7 1.7 0 0 1-.4 1.41c-.26.17-1.53-.92-2.39-1.56a24.41 24.41 0 0 0-6.69-2.45c-1.7-.2-3.69-.55-4.64-2.34s-.55-4-.37-5.28a49.64 49.64 0 0 0 .81-7.9 14.31 14.31 0 0 0-3.14-7.87c-.87-.89-2.12-2.3-2.26-2.37s-6-4.92-8.31-6.58c-.02.01.21-1.26 3.86-.03zm-14.81-.88a7.28 7.28 0 0 1 3.81-.73c2.5.08 3.88.92 4.92 3.08A25.37 25.37 0 0 1 187.12 17s1.19-.65.62-7.54a32.42 32.42 0 0 0-1-4.65c-.38-.73-.27-1.35.92-.58a64.17 64.17 0 0 1 7 5.77 30.14 30.14 0 0 1 4 6c1.15 2.65.87 7.47.72 8.59s-.32 5.24-1.67 6.64c-.35-.08-.38.54-1.92.77a27.17 27.17 0 0 1-5.31 0 15.44 15.44 0 0 1-3.31-.69 7.85 7.85 0 0 0-1.92-.5c-.5 0 1.54-.42 1.81-2.85s-.77-5.31-.69-5.77-.5.42-.46 2.19-.65 4.31-2.19 5.38-5.65 1.38-6.85 1.38a19.45 19.45 0 0 0-4.46 1.23c-.38.15-1.35.62-1.5-.81s-1.31-5.19-1.65-6.5a32.47 32.47 0 0 1-.85-6.46 26 26 0 0 1 .79-4.6 48.11 48.11 0 0 1 2.27-5.65 25.45 25.45 0 0 1 4.81-6.43zm-11.08.62a16.43 16.43 0 0 1 7.69-.5 18.77 18.77 0 0 0-4.31 3.46c-1.46 1.81-5.15 6-5.65 9.31s-.15 2.88-.15 2.88a25.69 25.69 0 0 1 1.69-4.92c.73-1.08 4.46-6.81 6.5-8s1.62-.12 1.62-.12l-.13.17a24.73 24.73 0 0 0-3.35 6.5 21.51 21.51 0 0 1-.73 2.65s-.92 4.65-1.15 5.77-1.54 2.58-2 4.15-1.46 4.08-1.46 5.42.08 2.19-.54 2.46-2.54.35-3.27-.42 0-3.54.69-4.61a17.74 17.74 0 0 1-2.42 3.15c-1.12 1-3.23 1.19-4.46 1.5a44 44 0 0 0-4.65 1.54c-.77.35-2.19 1.31-2.88 0s-.85-4.85-.85-4.85a22.06 22.06 0 0 1 .77-6.69c1-3.77 6.58-10.34 9.58-13.27s6.09-4.28 9.47-5.59zm-14 6.69A49.76 49.76 0 0 1 158 5h.08c-.15 0-1.31.58-3.73 2.88a42.87 42.87 0 0 0-7 8.42c-1.62 2.81-3.5 4.77-3 13.08a20.15 20.15 0 0 1 .58 3.08 2.26 2.26 0 0 1-1.31 2c-.69.19-1.62-.35-2.31-1.54a1.28 1.28 0 0 0-.33-.4 13.18 13.18 0 0 1-.71-6.37c.42-4 3.85-9.27 4.81-10.81a32.43 32.43 0 0 1 6.08-6.11zm-23 30.3a33.59 33.59 0 0 1 3.42-12.38 34 34 0 0 1 9.88-12.38 11.75 11.75 0 0 1 4.5-2.58s-4.15 5.15-4.85 6.69a.92.92 0 0 1 .06-.27s-4.15 4.73-5 7-2.15 5.58-2.15 7a3.35 3.35 0 0 1-.69 1.38c-.54.62-2.12 1.92-3 3a22.88 22.88 0 0 0-1.65 3.42c-.23.3-.58.5-.54-.89zM134.24 63a34.39 34.39 0 0 1-5.58-10.19 14.36 14.36 0 0 1-.19-10c.5-2 3.77-6.54 5.23-7.61a31.27 31.27 0 0 0 .27 5.35 16.72 16.72 0 0 0 1.56 4.21c-.36.29-1.38 1.35-1.91 4.14a26.09 26.09 0 0 0 .46 11.61 26.61 26.61 0 0 0 1.53 4.23c-.49-.62-.97-1.21-1.37-1.74zm14 12.61c-1.23-.35-2-1.54-3.42-3.27s-1.77-3.38-2.73-4.61-.88.35-.88.35a9.24 9.24 0 0 0 1.15 2.27c.62.73 3.31 3.85 3.31 3.85a2.52 2.52 0 0 1-1.58-.62 24.61 24.61 0 0 1-5.19-5 39.78 39.78 0 0 1-3.54-7.58c-1.92-5.27-1.42-8.38-1.42-8.38s1 7.35 4.58 10.46c0 0-3.08-5.65-3.54-10.61s.38-6.58.38-6.58.14-.31.4-.25c0 .23.05.53.06.91 0 1.31.35 3.92 1.12 5a29.55 29.55 0 0 1 2 4.19v.12a34.43 34.43 0 0 0 2.15 6.65 42.8 42.8 0 0 0 5 7.61c1.58 1.81 3.88 3.61 5.35 5.15a8.79 8.79 0 0 1 .7.85 10.52 10.52 0 0 1-3.9-.48zm6.46 1.23a67.24 67.24 0 0 1-6.85-6.11c-2.35-2.38-5.69-9-6-9.61s-2.56-6.44-2.69-6.75v-.13c-.46-1.27.46-.46.46-.46s.85 1.12 3.15 4.73a71.18 71.18 0 0 0 8.61 10.31c2.06 2.16 6.31 4.19 9.21 5.42 1.16.84 1.07 1.43 1.4 2.77s.15 1.27-1.85 1.38a11.53 11.53 0 0 1-5.44-1.52zm-23.5 66.58c-2.31-.69-1.85-1.5-2.71-3.35a4.33 4.33 0 0 0-2.42-2.31s.63-.06 2.94-.52a7.57 7.57 0 0 0 3.69-1.9c-.63.17-7.33 1.85-8.48 1.1s-1.33-2.13-1.73-3a25.72 25.72 0 0 1-1.79-3c-.46-1.27.06-1.67 1-2.13s4.73-.81 7.61-1.27a47.31 47.31 0 0 0 9.4-3.06c2.25-1 6.17-4.33 6.17-4.33s.92-.15.73 1.19a5.83 5.83 0 0 1-2 4.23c-1.85 1.85-2 1.92-2.08 2.23s.5.19 1 0 2.65-1.62 2.65-1.62.31-.5.69 0 1.13 1.82 1.13 1.82-.28 5.79-.33 8.81a18.94 18.94 0 0 1-2.91 2.59c-2.98 2.31-10.25 5.25-12.56 4.56zm6.52 2c.81-.15 1.27-.12 1.46.69s-.42.81-.42.81c-.88-.5-2 .19-2.12-.38s.27-.93 1.08-1.08zm-2.12 2.12a3.64 3.64 0 0 1 3.35 1 3.28 3.28 0 0 0 .5 1.38 3.12 3.12 0 0 1 .73 1.42c0 .31-.15 0-.15 0a2.8 2.8 0 0 1-1.65-.19c-.77-.38-1.31-1.58-2.42-1.77s-1.54-.12-1.77-.88.68-.93 1.41-.93zm9.84 8.23c-2 .65-5.35.38-7.54-.19s-4.19-1.65-4.65-3.11.31-1.92.88-2.15 2.42.46 3.54 1.54 3.19.73 4.19.46a2.34 2.34 0 0 0 1.69-1.35 3 3 0 0 1-2.19-1.31 5 5 0 0 1-1-3.81 6.25 6.25 0 0 1 .38-1.92 1.49 1.49 0 0 1-.54-1 46.71 46.71 0 0 0 6.55-3.52c.13 4.23.49 12.41.53 14.92a2.82 2.82 0 0 1-1.83 1.47zm1.73-31.26l-.81-1s.5 0 .58-2.35-.62-3.38-1.08-3.58a1.39 1.39 0 0 0-.9 0l-.1-.63a18.33 18.33 0 0 0 1.9-1.67 9.9 9.9 0 0 0 .9-1.22zm1.19 17.65c.12-2.54-.42-9.58-.31-12.42s1.65-17.81 1.42-20.34c0-2.08 1.1-8 1.15-8.48s.4-2.25-.12-2.31-2.54 6.17-2.25 8.13.58 4.33-.52 4-1.5-4.67-1.5-5.48a17.24 17.24 0 0 0-.63-3.92 15.21 15.21 0 0 0-.06 6.35 11.3 11.3 0 0 0 1.33 4.1 14.4 14.4 0 0 1-.81 1.9c-.35.58-1.79 1.79-2.6 1.73a26.19 26.19 0 0 1-6.23-2 17 17 0 0 0-5.77-1.67c-1.9-.23-1 .52-.75.87a18.93 18.93 0 0 0 4.61 1.73 30.44 30.44 0 0 1 6.4 2.37 2 2 0 0 1 .63 2.94c-.4.4-1.67 1.21-5.19 3.06a39.13 39.13 0 0 1-10.63 3.28 8.3 8.3 0 0 1-3.46-.17s-2.94-10.09-3.35-12.11-1.67-6.69.35-10.9a9.24 9.24 0 0 1 5.65-5.25c1-.52 15.85-7.51 17.19-8.19 3.46-1.75 4.5-3.92 6.92-5.77s5.77-2.13 6.81-2.42 4.26-1.7 4.78-1.93c.7.32 1.83.84 2.75 1.22.29.15 1.21.49 2.09.81a4.37 4.37 0 0 1 .92 1 5.6 5.6 0 0 1 .77 2.69c0 1.58.65 9.81.65 11.73a24.49 24.49 0 0 0 1.31 5.92c.27.85 4.54 2.62 7.77 2.92a5.12 5.12 0 0 0 4.88-2c.15-.27-.54-17.19 0-18.38s1.12-3.36 1.89-3.91a10.27 10.27 0 0 1 4.55-2.38 13.71 13.71 0 0 1 7.45.34l.63.14a20.61 20.61 0 0 1 7.68 3.7 40.76 40.76 0 0 1 8.48 8.53c2.59 3.39 2.9 4.72 3.7 5.75s4.07 4.64 4.5 5.18c.09.12.15.1.2 0l-.42 22.8s0 .63.08 1.51a2 2 0 0 1-1.16.59c-1 .14-3.07-.91-4.67-.63s-1.74 1.14-1.76 1.82a2.33 2.33 0 0 0 1.08 2s.31.26-.46.68a7.08 7.08 0 0 0-2.11 3.13c-.37 1.05-.63 2.87-1.31 3.36s-.76 0-1-.66c-.23-3.23-.62-8-.85-9.1a20.06 20.06 0 0 1-.1-3.31 17.46 17.46 0 0 1 1.69-2.58c.94-1.34 4.15-2.33 5.86-2.84s1.31-1 1.31-1 .11-.65-3.36.4-4.21 3.16-4.21 2.56a16.62 16.62 0 0 1 1.08-2.9c.51-1.45 1.59-1.88 2.33-2.67s.85-1.17.63-1.71-1 .09-2.33 1.31a10 10 0 0 0-2.9 4.67c-.23 1.37-.65 2.67-.74 2s-.46-6.23-.46-7.4.85-2.22 1.08-3.19.74-5.55.23-5.41-.57 1.19-.51 2.16-.48 3.41-1.31 2.84-2.45-8.71-2.67-9.73-.09-2.65-.46-1.93.48 7.17.74 8.53 1.39 6 1.48 7.45.4 4.72.4 4.72c0 2 .14 4.57.2 5.38.12 1.69 1.57 10.71 1.54 14.48 0 2.65.19 5.47.17 7.79a8.71 8.71 0 0 1-2.93 1.7 24.33 24.33 0 0 1-3.46 1 102.63 102.63 0 0 1-11.15 1.45c-2.9.19-9.76.49-11.27.49-1.9 0-10.76-.31-10.76-.31s-5.65-.54-6.69-.65-7.4-.36-8.56-.42c-1.81-.09-4.75-.25-5.25-1.54s-.42-4.64-.31-7.17zm.15 11.58c0-.69.12-1.58 1.69-1.81a21.5 21.5 0 0 1 3.43 0c-.71 1.27-4 5.57-4.73 6.42-.18-1.83-.37-4.17-.37-4.59zm1.77 8.42c-1.19.08-.85-.73-1-1.23a.91.91 0 0 1 0-.12c2.11-3.39 4.84-7.66 5.79-7.64s3.16 7.9 3.59 9.17h-.42c-2.02-.12-6.75-.23-7.95-.16zm5.54 31.53s-.85-1.19 0 2.27 2 4.11 2 4.11a6.41 6.41 0 0 1-2.92-2.27c-1.31-1.77-1.46-5.69-1.65-7.08s-.42-8.27-.12-9.38a2.76 2.76 0 0 1 1.15-1.58c.27-.31-.27-.42-.65-1.15a24 24 0 0 1-1.27-4.46c-.22-1-.31-5.27-.31-5.38s.08-4 .14-5.26c1.08 0 8.24.61 12.24 1s5.66.18 9.23.42c.84.06 1.92.25 3 .31a5.59 5.59 0 0 1 1.11 3.34c.23 2.5 0 13.69 0 15.42s.15 9.34-1.23 13-3 4.38-4.73 4.81a2.57 2.57 0 0 0 .58-2s-.08-1.12-.65.19a3.28 3.28 0 0 1-2.73 2c-1.12.15-5.77.42-8.92-2.73a12.58 12.58 0 0 1-4.26-5.55zm21.69 9.88a6.38 6.38 0 0 1-3.75 1.4c-6.55 0-10.09-1.19-11.43-1.77a18.53 18.53 0 0 0 6.14.36c2.38-.54 5.73-1.46 7.46-2.73s1.51 2.69 1.59 2.77zm-18 2.4a26.7 26.7 0 0 1-.15-3.28v-.17c3.1 2.39 4.5 2.35 8.07 3.09a30.38 30.38 0 0 0 8.42.12c-2.25 1.38-9.75 1.56-12.86 1.27a6.76 6.76 0 0 1-3.5-1zm.26 1.78c3.41 3.23 11.55 3.23 13.28 3.34s3.06-.29 2.19.12a54.56 54.56 0 0 1-6.35 1.1c-5.87.26-7.78-1-8.36-1.62a20.26 20.26 0 0 1-.78-2.92zm-2 9.32c.5-.5 1-.69 2.69-1.08 1.06-.23 1.34-.15 1.4-.06-.22.08-.33.26-.86.86a4.57 4.57 0 0 1-2.27.85h-.92s-.59-.04-.09-.54zm-4.15 4c.2-.29 1.29-1.55 5.5-2.36.58 0-1.31 2.31-1.31 2.31l1.92-.15a5.75 5.75 0 0 1 1.15-2.23c.81-.85 2.85-.58 3.58-.62a6.89 6.89 0 0 1 .74 0 1.28 1.28 0 0 1 1 1.2 2.27 2.27 0 0 1-.74 1.8c-.75-.07-1.51-.13-2.26-.15a40.21 40.21 0 0 0-8.77.62c-.87.17-.91-.2-.87-.41zm-1.42 2.37c.63-.13 1.88-.21 2.38-.27.3 0 1.11-.13 2.16-.23-.23.6-.72 2.46-.85 2.81s-.48 1.38-1.27 1c-2.86-1.34-2.48-3.31-2.48-3.31zm2.38 8c-1.42-.62-2.61-1.31-2.81-4.69v-.12a7.74 7.74 0 0 0 3.09 1.83c-.09 2.81 1.16 3.44 1.16 3.44h.06a13.59 13.59 0 0 1-1.56-.5zm8.19.77a1.51 1.51 0 0 1-1 .55c-.86 0-1.53.08-1.58.1a8.35 8.35 0 0 1-1.45-.25 7.63 7.63 0 0 1-1.43-1.14 3.71 3.71 0 0 1-.67-2.51h.21a37 37 0 0 0 6 .64 3.79 3.79 0 0 1-.13 2.57zm.81-4.31c-.77.5-5.65.42-6.15 0a2.37 2.37 0 0 1-.15-2.77 9.83 9.83 0 0 1 1.41-2.28c.92-.06 1.89-.11 2.82-.11s2 .08 3.25.19c.2.13.34.4.21.93-.37 1.14-.68 3.51-1.45 4.01zm9.27 2.35c-.31 1-.73 2-1.58 2.19a7.21 7.21 0 0 1-1.36.17h-3.5a1.89 1.89 0 0 1-1.37-1 1.31 1.31 0 0 1 .75-2h1c.7 0 3.51-.05 6-.16.1.1.14.32 0 .76zm.23-2.08a36.27 36.27 0 0 1-6.46 0c-.88-.23-.88-.73-.81-1.46a34.66 34.66 0 0 1 1.19-3.61c1.93.23 3.63.47 4.19.57s1.17.3 2 .5a1.15 1.15 0 0 1 .68 1c-.04.83.08 2.83-.87 2.97zm4.61 2.77c-.11.12-.14.22-.12.3a4.64 4.64 0 0 1-2.61 1c-.58 0-1.14 0-1.14-.23a5.1 5.1 0 0 1 1-2.38c.38-.23 2-.19 2.54-.42a8.5 8.5 0 0 0 .79-.34 2.17 2.17 0 0 1-.51 2.03zm1.77-9.58a12.48 12.48 0 0 1-.85-3.69c-.35-2.73.23-12.77 0-14.34a9.13 9.13 0 0 0-.12-3.5 5.08 5.08 0 0 1 0-3.61 13 13 0 0 0 .81-4 24.49 24.49 0 0 1 1 4.38 17.57 17.57 0 0 1-.19 3.73c-.08.69 0 15 .08 15.69a16.37 16.37 0 0 1-.46 3.77 5.43 5.43 0 0 0-.32 1.54zm1.08 2.69c.65.12.35.5 1.38.62a4.75 4.75 0 0 0 1.46 0c0 1.06.1 2.22.2 3-.95 1-2.62-.36-2.62-.36a3.18 3.18 0 0 1-1-1.71s-.13-1.69.52-1.6zm1.58 8c-.92-1-1.42-1.08-1.81-2.85v-.2a29 29 0 0 0 3.71.67 9.75 9.75 0 0 0 .92 2.51s-1.94.82-2.88-.18zm3.19-4.08h-.09c-.19-.43-.32-.63-.41-.82a9.23 9.23 0 0 1-.14-2s0-.85.46-1 6.38-.88 6.38-.88l-.07-.22a15 15 0 0 1 1.55 3.72.39.39 0 0 0 0 .08 3.85 3.85 0 0 0 .12.45.79.79 0 0 1-.43.86c-.5.35-3.42.31-5.42.23s-2.01-.45-2.01-.45zm7.46 4.54a33.66 33.66 0 0 1-5.22-.14 2.58 2.58 0 0 0-.39-.13c-.19 0-.88-1-1.38-2.73.54-.12 5.73 0 7.11.12s.85 1.65.85 1.65a1.06 1.06 0 0 1-1.03 1.2zm1.65-6.08s-.54-2.42-.73-2.81-.19-.81.77-.88 4.92-.42 5.65.08.92 1.5 1.19 1.77a4.37 4.37 0 0 1 .54 2.38c-.08.81-.88 1-1.46 1.15a22.7 22.7 0 0 1-5.08-.15c-.78-.3-.93-1.56-.93-1.56zm6.58 21.13a.49.49 0 0 1-.57.12c-1.41-1.38-5.16-5.09-6-6.09a5.75 5.75 0 0 1-1.63-3.46 4.65 4.65 0 0 1 0-.7l8.31 8.7a3.14 3.14 0 0 1-.11 1.43zm-5.49-8.38c-.6-.69-1.69-1.6-1.83-2.37a1.51 1.51 0 0 1 .42-1.28c.64-.33 2.22-.94 3.32-1.35 1.45-.6 3.48-1 5.94-1.78l16.05-5v1.52c-1.23.44-7.81 2.5-8.35 2.81l-1.49.63s-10.43 2.94-11.35 3.32-1.77 1.2-1.46 1.94 4.63 4.69 5.23 5.2a3.31 3.31 0 0 0 2.6.34c.91-.17 12.09-3.89 12.55-4.2.72-.22 16.86-5.06 18-5.65.74-.24 9.58-3.07 10.78-3.64s1.14-1 1-1.52a25.29 25.29 0 0 0-4-3.89c-1.06-.8-1.74-1.2-2.54-1s-10.9 2.74-10.9 2.74c-.72.05-5.17 1.32-5.79 1.49v-1.39c2.29-.61 15-4 15.77-4.14a5.84 5.84 0 0 1 2.26 0c.49.17 8.58 5.63 9.2 7.43l.08.25a2.7 2.7 0 0 1-1.45 1.06c-1 .37-43.31 14.06-44.34 14.49a5.69 5.69 0 0 1-3.57.09c-.64-.28-5.53-5.41-6.13-6.1zm54-5.72c-1.52 1-44.74 14.58-46.34 14.92a3.46 3.46 0 0 1-1.27 0 1.38 1.38 0 0 1-.1-1.42c.26-.51 1.2-.49 2.17-.69s44.34-14.15 45.08-14.44a15.44 15.44 0 0 0 2.11-.89 3.25 3.25 0 0 1-1.62 2.53z" fill="#692f23"/><path d="M181.08 1.13l-.41-.08a16.73 16.73 0 0 0-4.23.08z" fill="#692f23"/></g></g></svg>