<svg xmlns="http://www.w3.org/2000/svg" width="100" height="100" viewBox="0 0 100 100"><g data-name="Слой 2"><g data-name="Слой 1"><path fill="none" d="M0 0h100v100H0z"/><path d="M23.55 28.59c-.18-.35-1.85-3.46-6.63-5.33-5.08-2-7.71-2-7.71-2a39.46 39.46 0 0 0-.88 7.37 37.19 37.19 0 0 0 .88 7.15s2.63 0 7.71-2c4.77-1.78 6.44-4.78 6.62-5.17zM26.88 28.59c.18-.35 1.85-3.46 6.63-5.33 5.08-2 7.71-2 7.71-2a39.4 39.4 0 0 1 .88 7.37 37.14 37.14 0 0 1-.88 7.15s-2.63 0-7.71-2C28.74 32 27.07 29 26.89 28.61z" fill="#fd8204" stroke="#692f17" stroke-miterlimit="10"/><rect x="3.56" y="58.53" width="41.35" height="9.84" rx="1.66" ry="1.66" fill="#f5f4f0" stroke="#692f17" stroke-linecap="round" stroke-linejoin="round"/><path d="M44.52 57A1.53 1.53 0 0 1 43 58.53H6.27A1.53 1.53 0 0 1 4.73 57a1.53 1.53 0 0 1 1.53-1.53H43A1.53 1.53 0 0 1 44.52 57z" fill="#dbc19f" stroke="#692f17" stroke-linecap="round" stroke-linejoin="round"/><rect x="4.73" y="46.48" width="40.96" height="8.99" rx="1.66" ry="1.66" fill="#f5f4f0" stroke="#692f17" stroke-linecap="round" stroke-linejoin="round"/><rect x="3.56" y="40.05" width="43.03" height="6.42" rx="1.66" ry="1.66" fill="#d9d6cc" stroke="#692f17" stroke-linecap="round" stroke-linejoin="round"/><path d="M44.94 38.72a1.52 1.52 0 0 1-1.66 1.33H6.39a1.52 1.52 0 0 1-1.66-1.33v-5.93a1.52 1.52 0 0 1 1.66-1.33h36.89a1.52 1.52 0 0 1 1.66 1.33z" fill="#dbc19f" stroke="#692f17" stroke-linecap="round" stroke-linejoin="round"/><path fill="none" stroke="#692f17" stroke-linecap="round" stroke-linejoin="round" stroke-width=".8" d="M5.21 34.88h39.31M14.77 37.22h29.75M3.56 43.26h33.15M44.94 52.63H9.99M44.52 63.45H3.91"/><path d="M18.9 69.13a7.41 7.41 0 0 1-1-.07C20 65.64 23 61.2 26.06 58.4a7.64 7.64 0 0 1 .6 3 7.76 7.76 0 0 1-7.76 7.73z" fill="#f7e8d2"/><path d="M25.94 58.9a7.33 7.33 0 0 1 .43 2.47 7.47 7.47 0 0 1-7.46 7.46h-.5a52.8 52.8 0 0 1 7.54-9.91m.22-1c-3.17 2.81-6.4 7.48-8.74 11.36a8 8 0 0 0 8.73-11.37z" fill="#692f17"/><path d="M21.82 32.26a1.55 1.55 0 0 1 1.42-1.66h3.95a1.55 1.55 0 0 1 1.42 1.66v37.23a1.55 1.55 0 0 1-1.42 1.66h-3.95a1.55 1.55 0 0 1-1.42-1.66z" fill="#fd8204" stroke="#692f17" stroke-linecap="round" stroke-linejoin="round" stroke-width="1.17"/><path d="M79.41 65.34L76.1 47.57s-24.92-.11-33.53 2.06a37.78 37.78 0 0 0-16.3 8.18c-6.26 5.42-12.48 18-12.48 18h60.92a10.49 10.49 0 0 1 4.7-10.51zm-28.76-.63c-7 .69-13.75 1-14.24-2S41.13 56.2 48 55.1s14.45.9 14.94 3.9-1.17 4.62-12.29 5.71z" fill="#fd8204" stroke="#692f17" stroke-linecap="round" stroke-linejoin="round"/><path d="M73.35 48h2.42L79 65.15a11 11 0 0 0-2.25 2.06z" fill="#f5f4f0"/><path d="M75.44 48.37L78.53 65A11.38 11.38 0 0 0 77 66.33l-3.15-18h1.62m0-.8h-2.6l3.61 20.6a10.71 10.71 0 0 1 2.93-2.84L76.1 47.57z" fill="#692f17"/><path d="M65.39 58.66c-.69-4.39-7.22-6.35-13.37-6.35a28 28 0 0 0-4.36.34C40.22 53.82 33.12 57.78 34 63.06c.73 4.61 6.91 4.61 9.24 4.61s5.28-.24 7.7-.48c8.32-.82 11.86-1.89 13.56-4.08a5.65 5.65 0 0 0 .89-4.45zm-14.74 6.05c-7 .69-13.75 1-14.24-2S41.13 56.2 48 55.1s14.45.9 14.94 3.9-1.17 4.62-12.29 5.71z" fill="#f5f4f0" stroke="#692f17" stroke-linecap="round" stroke-linejoin="round" stroke-width=".8"/><path d="M50.65 64.71a60.58 60.58 0 0 0 7.67-1.13l-.08-.9a1.66 1.66 0 0 0-1.79-1.51l-12.9 1.1a1.66 1.66 0 0 0-1.55 1.8l.09 1.1a68.53 68.53 0 0 0 8.56-.46zM75.81 77.15a1.25 1.25 0 0 1-1.25 1.25H13.28A1.25 1.25 0 0 1 12 77.15a1.25 1.25 0 0 1 1.25-1.25h61.31a1.25 1.25 0 0 1 1.25 1.25zM69.66 44.4a3.22 3.22 0 0 0-3.22 3.22v.06c2.51-.06 4.74-.08 6.43-.1a3.22 3.22 0 0 0-3.21-3.18zM78 55.15c-.62.11-.77-.47-.88-1.08l-.59-3.27c-.11-.62-.21-1.19.4-1.3l3.78-.23a1.13 1.13 0 0 1 1.32.91l.45 2.51a1.13 1.13 0 0 1-.89 1.31z" fill="#d9d6cc" stroke="#692f17" stroke-linecap="round" stroke-linejoin="round" stroke-width=".8"/><path d="M82.52 51s7.28-1.17 8.79 4.18c2.23 7.94-10.25 10.62-8.79 18.05 1.76 8.92 13.92 4.47 13.92 4.47" fill="none" stroke="#692f17" stroke-linecap="round" stroke-linejoin="round"/><path fill="none" stroke="#692f17" stroke-linecap="round" stroke-miterlimit="10" stroke-width=".8" d="M28.25 28.65l6.24-1.41M22.23 28.65l-6.29-1.41"/><path d="M22.67 25.28h5.14a.8.8 0 0 1 .8.8v5.14a.8.8 0 0 1-.8.8h-5.14a.79.79 0 0 1-.79-.79v-5.16a.79.79 0 0 1 .79-.79z" fill="#fd8204" stroke="#692f17" stroke-miterlimit="10"/></g></g></svg>