<svg xmlns="http://www.w3.org/2000/svg" width="100" height="100" viewBox="0 0 100 100"><g data-name="Слой 1"><path fill="none" d="M0 0h100v100H0z"/><path d="M29 59.68c-8.23 1.88-14.17 7.16-14.17 13 0 .22 0 .43.05.64a59.86 59.86 0 0 0 21.3 3.78 59.85 59.85 0 0 0 21.3-3.78c0-.21.05-.42.05-.64 0-5.94-6.05-11-14.47-12.81" fill="#f5f4f0" stroke="#692f17" stroke-miterlimit="10"/><path d="M39.8 61.53v9.71a1.16 1.16 0 0 1-1.16 1.16h-4a1.16 1.16 0 0 1-1.16-1.16v-9.71" fill="#ececed" stroke="#692f17" stroke-miterlimit="10"/><path d="M30.25 59.81c-10.38-1.84-17.5-8.1-17.5-17.74 0-10.11 10.3-22 24.17-22s24.17 11.93 24.17 22c0 9-7.42 15.74-17.68 17.78" fill="#dbc19f" stroke="#692f17" stroke-miterlimit="10"/><path d="M29.81 57.2v2.33c0 1.29 3 2.33 6.62 2.33s6.62-1 6.62-2.33V57.2" fill="#ececed" stroke="#692f17" stroke-miterlimit="10"/><path d="M36.43 58.42C26.8 58.42 19 51.46 19 42.9a13.87 13.87 0 0 1 1.44-6.13 12.43 12.43 0 0 0 5.94 1.55 10.85 10.85 0 0 0 1.86-.16h.23l.12-.21c.63-1.12 1.93-3.31 2.58-4.42.75 1.1 2.3 3.36 3.37 4.8l.13.18h.22c1.27.12 2.6.18 3.95.18a47.33 47.33 0 0 0 13.58-2 13.9 13.9 0 0 1 1.49 6.23c-.03 8.54-7.86 15.5-17.48 15.5z" fill="#f2e3d0"/><path d="M31.17 34.42c.82 1.19 2 3 2.94 4.17l.26.36h.44c1.29.12 2.63.19 4 .19a48.13 48.13 0 0 0 13.32-1.9 13.34 13.34 0 0 1 1.25 5.62c0 8.28-7.61 15-17 15s-17-6.74-17-15a13.31 13.31 0 0 1 1.17-5.44 13 13 0 0 0 5.71 1.36 11.34 11.34 0 0 0 1.94-.17l.47-.08.23-.41c.52-.91 1.49-2.56 2.18-3.74m-.06-1.86s-2.12 3.57-3 5.11a10.31 10.31 0 0 1-1.77.15 11.88 11.88 0 0 1-6.14-1.75 14.5 14.5 0 0 0-1.74 6.83c0 8.85 8 16 18 16s18-7.17 18-16a14.52 14.52 0 0 0-1.74-6.83 46.37 46.37 0 0 1-13.83 2.11c-1.3 0-2.61-.06-3.9-.18-1.47-2-3.8-5.44-3.8-5.44z" fill="#692f17"/><path d="M41.91 51.23a17.75 17.75 0 0 1-5.89.93 18.11 18.11 0 0 1-5.59-.83" fill="none" stroke="#692f17" stroke-linecap="round" stroke-miterlimit="10" stroke-width=".8"/><path d="M38.78 53.94a8.87 8.87 0 0 1-2.68.38 9.05 9.05 0 0 1-2.53-.32" fill="none" stroke="#692f17" stroke-linecap="round" stroke-miterlimit="10" stroke-width=".7"/><path d="M37.93 48.58a13 13 0 0 1-1.8.11 13.43 13.43 0 0 1-1.71-.1" fill="#fff" stroke="#692f17" stroke-linecap="round" stroke-miterlimit="10" stroke-width=".7"/><path d="M31.85 43.57a5.65 5.65 0 0 0-3.63-1.82 5.65 5.65 0 0 0-3.63 1.82" fill="none" stroke="#692f17" stroke-linecap="round" stroke-miterlimit="10" stroke-width=".8"/><ellipse cx="28.22" cy="43.57" rx="1.59" ry="1.44" fill="#692f17"/><path d="M47.13 43.57a5.65 5.65 0 0 0-3.63-1.82 5.65 5.65 0 0 0-3.63 1.82" fill="none" stroke="#692f17" stroke-linecap="round" stroke-miterlimit="10" stroke-width=".8"/><ellipse cx="43.5" cy="43.57" rx="1.59" ry="1.44" fill="#692f17"/><path d="M60.9 65.48a28.86 28.86 0 0 1-9.33-3.62 55.47 55.47 0 0 1-.92-10.13S47.8 25.32 69.23 25.57c21.84.26 20 26.28 20 26.28a61.87 61.87 0 0 1-.82 10.61C85.8 64.15 83 64.82 79 65.62" fill="#dbc19f" stroke="#692f17" stroke-linejoin="round"/><path d="M66.22 64.12c-7.6 1-13.3 5.32-13.3 10.45v.5a48.89 48.89 0 0 0 33.67 0v-.51c0-5.13-5.7-9.41-13.3-10.45" fill="#fd8204" stroke="#692f17" stroke-miterlimit="10"/><path d="M66.22 62.61V64c0 1.33 1.6 2.41 3.57 2.41s3.57-1.08 3.57-2.41v-1.39" fill="#f7e8d2" stroke="#692f17" stroke-miterlimit="10" stroke-width=".92"/><path d="M84.17 49.29a87.33 87.33 0 0 0 .29-9.11c-5 1.54-6.78-3.59-6.78-3.59s-2.84 4.53-7.68 5.66a27.26 27.26 0 0 1-15-1 36.38 36.38 0 0 0 .31 8c1 7.4 5.52 13.67 14.49 13.77 8.71.05 13.97-6.59 14.37-13.73z" fill="#f7e8d2" stroke="#692f17" stroke-miterlimit="10"/><path d="M74.23 55.55a12.64 12.64 0 0 1-4.84.9 12.85 12.85 0 0 1-4.59-.8" fill="none" stroke="#692f17" stroke-linecap="round" stroke-miterlimit="10" stroke-width=".8"/><path d="M71.66 58.16a6.77 6.77 0 0 1-4.28 0M71.34 52.68a7 7 0 0 1-1.86.31 5.68 5.68 0 0 1-1.77-.28" fill="none" stroke="#692f17" stroke-linecap="round" stroke-miterlimit="10" stroke-width=".7"/><path d="M65 47.5a5.86 5.86 0 0 0-3.76-1.89 5.85 5.85 0 0 0-3.76 1.89" fill="none" stroke="#692f17" stroke-linecap="round" stroke-miterlimit="10" stroke-width=".8"/><ellipse cx="61.29" cy="47.39" rx="1.65" ry="1.49" fill="#692f17"/><path d="M80.87 47.5a5.85 5.85 0 0 0-3.76-1.89 5.85 5.85 0 0 0-3.76 1.89" fill="none" stroke="#692f17" stroke-linecap="round" stroke-miterlimit="10" stroke-width=".8"/><ellipse cx="77.15" cy="47.39" rx="1.65" ry="1.49" fill="#692f17"/><path d="M75.81 64.89c0 3.89-2.73 7-6.09 7s-6.09-3.15-6.09-7" fill="none" stroke="#692f17" stroke-linecap="square" stroke-miterlimit="10"/></g></svg>