<svg xmlns="http://www.w3.org/2000/svg" width="100" height="100" viewBox="0 0 100 100"><title>за-опаздание</title><g data-name="Слой 2"><g data-name="Слой 1"><path fill="none" d="M0 0h100v100H0z"/><path d="M31.73 35.55c-8.25-1.46-13.9-6.44-13.9-14.1C17.83 13.42 26 4 37 4s19.2 9.42 19.2 17.45c0 7.13-5.58 12.4-13.74 14" fill="#dbc19f" stroke="#662f17" stroke-miterlimit="10"/><path d="M44.45 90.13a6.72 6.72 0 0 1 4-.85c2.62.11 5.32 2.54 2.72 5.45s-7.05-.05-9.49-.42-3.08-1.85-3.13-3.07L38.46 90zM32.2 90.13a6.85 6.85 0 0 0-4-.85c-2.65.11-5.38 2.54-2.75 5.45s7.13-.05 9.59-.42 3.11-1.85 3.16-3.07l.06-1.24z" fill="#dbc19f" stroke="#692f17" stroke-miterlimit="10" stroke-width=".8"/><path d="M45.65 82.35l-1.07 7.47a.88.88 0 0 1 0 .1c0 .82-1.38 1.48-3.08 1.48s-3.08-.66-3.08-1.48h-.07v-7.57z" fill="#d9d6cc" stroke="#692f17" stroke-linecap="round" stroke-linejoin="round" stroke-width=".8"/><path d="M31 82.35l1.08 7.47a.77.77 0 0 0 0 .1c0 .82 1.39 1.48 3.11 1.48s3.11-.66 3.11-1.48h.07v-7.57z" fill="#d9d6cc" stroke="#692f17" stroke-linecap="round" stroke-linejoin="round" stroke-width=".8"/><path d="M38.36 67.76H28.15l1 14.13c0 2.61 2.05 3.77 4.59 3.77s4.58-1.16 4.58-3.77c0 2.61 2.12 3.77 4.73 3.77s4.73-1.16 4.73-3.77l1.07-14.13z" fill="#fd8204" stroke="#692f17" stroke-miterlimit="10"/><path d="M58.28 60v-.1-.08c0-.02.24-9.68-3.14-15-2.59-4.07-4.22-5.14-5.45-6-2.37-2.08-6.59-3.46-11.42-3.46h-.67c-4.75 0-8.92 1.39-11.25 3.46-1.21.81-2.82 1.88-5.37 6-3.34 5.33-3.1 15-3.1 15V60a2.36 2.36 0 0 0 1.15 2L19 63.17c0 .47 1.27.92 2.9 1s2.51-.24 2.54-.71l.05-1.1a2.71 2.71 0 0 0 1-.89L25 67.76c0 .85 5.56 1.54 12.57 1.58h.66c7.11 0 12.76-.74 12.76-1.58l-.41-6.3a2.73 2.73 0 0 0 1 .89l.05 1.1c0 .47.93.79 2.57.71s3-.53 2.94-1l-.06-1.23a2.35 2.35 0 0 0 1.2-1.93z" fill="#f5f4f0" stroke="#692f17" stroke-linecap="round" stroke-linejoin="round"/><path d="M31.81 33.55v1.81c0 1 2.29 1.8 5.12 1.8s5.12-.81 5.12-1.8v-1.81z" fill="#f5f4f0" stroke="#692f17" stroke-linecap="round" stroke-linejoin="round"/><path fill="#fff" stroke="#692f17" stroke-linecap="round" stroke-miterlimit="10" stroke-width=".8" d="M25.58 61.4l1.07-14.62M50.6 61.47l-2.66-16.16"/><path d="M25.26 64.18s3.47 2 13.1 1.6 12.91-1.6 12.91-1.6M39.4 36.9v7.52a.9.9 0 0 1-.9.9h-3.13a.9.9 0 0 1-.9-.9V36.9" fill="none" stroke="#692f17" stroke-linecap="round" stroke-miterlimit="10" stroke-width=".8"/><path d="M19.46 63.83s0 4.88 1.49 6.11 3.68 1.63 3.24.45a23.77 23.77 0 0 1-.81-3.16 2.39 2.39 0 0 1 1.05.89c.48.69.73-.13.23-1.12s-1.29-3.25-1.29-3.25z" fill="#f7e8d2" stroke="#692f17" stroke-miterlimit="10" stroke-width=".8"/><path d="M56.1 63.83s0 4.88-1.43 6.11-3.54 1.63-3.11.45a24.45 24.45 0 0 0 .77-3.16 2.31 2.31 0 0 0-1 .89c-.46.69-.7-.13-.22-1.12s1.24-3.25 1.24-3.25z" fill="#f7e8d2" stroke="#692f17" stroke-miterlimit="10" stroke-width=".57"/><path fill="none" stroke="#692f17" stroke-linecap="round" stroke-miterlimit="10" d="M38.36 81.9V69.35"/><circle cx="23.2" cy="47.37" r="2.06" fill="#fd8204"/><circle cx="23.04" cy="58.06" r="2.06" fill="#fd8204"/><path d="M36.64 34.44c-7.65 0-13.87-5.53-13.87-12.33a11 11 0 0 1 1.14-4.87 9.88 9.88 0 0 0 4.72 1.23 8.62 8.62 0 0 0 1.48-.13h.19l.09-.17c.5-.89 1.53-2.63 2.05-3.51.6.88 1.83 2.67 2.68 3.81l.11.14h.18c1 .1 2.07.15 3.14.15a37.61 37.61 0 0 0 10.79-1.59 11 11 0 0 1 1.18 4.95c-.01 6.79-6.23 12.32-13.88 12.32z" fill="#f2e3d0"/><path d="M32.47 15.38c.65.95 1.61 2.34 2.33 3.31l.2.31h.35c1 .1 2.09.15 3.18.15a38.25 38.25 0 0 0 10.58-1.51 10.59 10.59 0 0 1 1 4.46c0 6.58-6 11.93-13.47 11.93s-13.46-5.34-13.46-11.92a10.57 10.57 0 0 1 .93-4.32 10.3 10.3 0 0 0 4.53 1.08 9 9 0 0 0 1.54-.13l.37-.07.19-.33c.41-.72 1.18-2 1.73-3m0-1.49S30.73 16.73 30 18a8.19 8.19 0 0 1-1.41.12 9.44 9.44 0 0 1-4.88-1.39 11.52 11.52 0 0 0-1.38 5.43c0 7 6.39 12.73 14.27 12.73s14.27-5.7 14.27-12.73a11.53 11.53 0 0 0-1.38-5.43 36.85 36.85 0 0 1-11 1.67c-1 0-2.07 0-3.1-.14-1.16-1.57-3-4.32-3-4.32z" fill="#662f17"/><path d="M41 28.73a14.1 14.1 0 0 1-4.68.74 14.39 14.39 0 0 1-4.44-.66M38.51 30.88a7 7 0 0 1-2.13.3 7.19 7.19 0 0 1-2-.27" fill="none" stroke="#662f17" stroke-linecap="round" stroke-miterlimit="10" stroke-width=".6"/><path d="M37.84 26.63a10.35 10.35 0 0 1-1.43.09 10.67 10.67 0 0 1-1.41-.08" fill="#fff" stroke="#662f17" stroke-linecap="round" stroke-miterlimit="10" stroke-width=".6"/><path d="M33 22.64a4.49 4.49 0 0 0-2.88-1.45 4.49 4.49 0 0 0-2.88 1.45" fill="none" stroke="#662f17" stroke-linecap="round" stroke-miterlimit="10" stroke-width=".8"/><ellipse cx="30.12" cy="22.64" rx="1.26" ry="1.15" fill="#662f17"/><path d="M45.15 22.64a4.49 4.49 0 0 0-2.88-1.45 4.49 4.49 0 0 0-2.88 1.45" fill="none" stroke="#662f17" stroke-linecap="round" stroke-miterlimit="10" stroke-width=".8"/><ellipse cx="42.27" cy="22.64" rx="1.26" ry="1.15" fill="#662f17"/><circle cx="31.81" cy="51.68" r="2.06" fill="#fd8204"/><circle cx="43.82" cy="48.64" r="2.06" fill="#fd8204"/><circle cx="39.4" cy="57.4" r="2.06" fill="#fd8204"/><circle cx="45.22" cy="61.52" r="2.06" fill="#fd8204"/><circle cx="53.47" cy="58.06" r="2.06" fill="#fd8204"/><circle cx="30.99" cy="61.52" r="2.06" fill="#fd8204"/><circle cx="45.88" cy="40.42" r="2.06" fill="#fd8204"/><circle cx="30.58" cy="40.42" r="2.06" fill="#fd8204"/><circle cx="52.9" cy="47.37" r="2.06" fill="#fd8204"/><path d="M34.83 62.29A23.67 23.67 0 1 1 58.5 86a23.66 23.66 0 0 1-23.67-23.71z" fill="#d9d6cc" stroke="#692f17" stroke-linecap="round" stroke-linejoin="round"/><path d="M38.9 62.29a19.61 19.61 0 1 1 19.6 19.62 19.6 19.6 0 0 1-19.6-19.62z" fill="#f5f4f0" stroke="#692f17" stroke-linecap="round" stroke-linejoin="round" stroke-width=".8"/><path d="M58.5 42.7v19.61h19.61A19.6 19.6 0 0 0 58.5 42.7z" fill="#fd8204" stroke="#692f17" stroke-linecap="round" stroke-linejoin="round" stroke-width=".8"/><circle cx="45.01" cy="62.31" r=".86" fill="#ec8213"/><circle cx="58.5" cy="48.82" r=".86" fill="#ec8213"/><circle cx="58.5" cy="75.8" r=".86" fill="#ec8213"/><circle cx="46.81" cy="69.04" r=".86" transform="rotate(-29.93 46.807 69.03)" fill="#692f17"/><circle cx="70.19" cy="55.57" r=".86" transform="rotate(-29.98 70.19 55.577)" fill="#692f17"/><circle cx="51.77" cy="50.61" r=".86" transform="rotate(-29.95 51.777 50.625)" fill="#692f17"/><circle cx="65.23" cy="74" r=".86" transform="rotate(-29.95 65.255 74)" fill="#692f17"/><circle cx="51.76" cy="73.99" r=".86" transform="rotate(-60.02 51.747 73.989)" fill="#692f17"/><circle cx="65.25" cy="50.62" r=".86" transform="rotate(-59.98 65.26 50.62)" fill="#692f17"/><circle cx="46.82" cy="55.56" r=".86" transform="rotate(-59.98 46.818 55.558)" fill="#692f17"/><circle cx="70.19" cy="69.05" r=".86" transform="rotate(-60.01 70.192 69.052)" fill="#692f17"/><path fill="#dfdbd1" stroke="#692f17" stroke-linecap="round" stroke-linejoin="round" d="M58.5 62.31V46.34M58.06 62.31l-8.48-4.89"/><circle cx="58.5" cy="62.31" r="1.77" fill="#dfdbd1" stroke="#692f17" stroke-linecap="round" stroke-linejoin="round"/></g></g></svg>