<svg xmlns="http://www.w3.org/2000/svg" width="80" height="80" viewBox="0 0 80 80"><g data-name="Слой 1"><path fill="none" d="M0 0h80v80H0z"/><path d="M68.89 17.14c0 43-29.51 58-29.51 58S9.87 60 9.87 17.14c0 0 16.77-1 29.54-9 12.06 7.96 29.48 9 29.48 9z" fill="none" stroke="#fd8204" stroke-miterlimit="10" stroke-width="1.5"/><path d="M60.44 22.94c0 30.64-21 41.28-21 41.28s-21-10.73-21-41.28c0 0 11.95-.74 21-6.4 8.56 5.66 21 6.4 21 6.4z" fill="none" stroke="#fd8204" stroke-miterlimit="10"/><circle cx="39.38" cy="35.9" r="2.79" fill="none" stroke="#fd8204" stroke-miterlimit="10" stroke-width="1.5"/><circle cx="14.2" cy="22.34" r="1.33" fill="#fd8204"/><circle cx="39.66" cy="12.91" r="1.33" fill="#fd8204"/><circle cx="39.45" cy="69.2" r="1.33" fill="#fd8204"/><circle cx="24.95" cy="55.59" r="1.33" fill="#fd8204"/><circle cx="54.2" cy="55.59" r="1.33" fill="#fd8204"/><circle cx="16.99" cy="39.57" r="1.33" fill="#fd8204"/><circle cx="61.95" cy="39.57" r="1.33" fill="#fd8204"/><circle cx="64.33" cy="22.34" r="1.33" fill="#fd8204"/><path fill="none" stroke="#fd8204" stroke-miterlimit="10" stroke-width=".8" d="M39.38 63.78V38.94M39.38 33.57V16.73M36.53 35.87H19.37M59.44 35.87H42.28M37.31 37.87L26.48 51.34M41.42 37.87l10.83 13.47M37.19 33.99L24.43 21.95M41.13 33.99l12.75-12.04"/></g></svg>