<svg xmlns="http://www.w3.org/2000/svg" width="80" height="80" viewBox="0 0 80 80"><title>гарантия-качества</title><g id="Слой_2" data-name="Слой 2"><g id="Слой_1-2" data-name="Слой 1"><rect width="80" height="80" fill="none"/><path d="M68.89,17.14c0,43-29.51,58-29.51,58S9.87,60,9.87,17.14c0,0,16.77-1,29.54-9C51.47,16.1,68.89,17.14,68.89,17.14Z" fill="none" stroke="#fd8204" stroke-miterlimit="10" stroke-width="1.5"/><path d="M60.44,22.94c0,30.64-21,41.28-21,41.28s-21-10.73-21-41.28c0,0,11.95-.74,21-6.4C48,22.2,60.44,22.94,60.44,22.94Z" fill="none" stroke="#fd8204" stroke-miterlimit="10"/><circle cx="39.38" cy="35.9" r="2.79" fill="none" stroke="#fd8204" stroke-miterlimit="10" stroke-width="1.5"/><circle cx="14.2" cy="22.34" r="1.33" fill="#fd8204"/><circle cx="39.66" cy="12.91" r="1.33" fill="#fd8204"/><circle cx="39.45" cy="69.2" r="1.33" fill="#fd8204"/><circle cx="24.95" cy="55.59" r="1.33" fill="#fd8204"/><circle cx="54.2" cy="55.59" r="1.33" fill="#fd8204"/><circle cx="16.99" cy="39.57" r="1.33" fill="#fd8204"/><circle cx="61.95" cy="39.57" r="1.33" fill="#fd8204"/><circle cx="64.33" cy="22.34" r="1.33" fill="#fd8204"/><line x1="39.38" y1="63.78" x2="39.38" y2="38.94" fill="none" stroke="#fd8204" stroke-miterlimit="10" stroke-width="0.8"/><line x1="39.38" y1="33.57" x2="39.38" y2="16.73" fill="none" stroke="#fd8204" stroke-miterlimit="10" stroke-width="0.8"/><line x1="36.53" y1="35.87" x2="19.37" y2="35.87" fill="none" stroke="#fd8204" stroke-miterlimit="10" stroke-width="0.8"/><line x1="59.44" y1="35.87" x2="42.28" y2="35.87" fill="none" stroke="#fd8204" stroke-miterlimit="10" stroke-width="0.8"/><line x1="37.31" y1="37.87" x2="26.48" y2="51.34" fill="none" stroke="#fd8204" stroke-miterlimit="10" stroke-width="0.8"/><line x1="41.42" y1="37.87" x2="52.25" y2="51.34" fill="none" stroke="#fd8204" stroke-miterlimit="10" stroke-width="0.8"/><line x1="37.19" y1="33.99" x2="24.43" y2="21.95" fill="none" stroke="#fd8204" stroke-miterlimit="10" stroke-width="0.8"/><line x1="41.13" y1="33.99" x2="53.88" y2="21.95" fill="none" stroke="#fd8204" stroke-miterlimit="10" stroke-width="0.8"/></g></g></svg>