<svg xmlns="http://www.w3.org/2000/svg" width="83.98" height="50" viewBox="0 0 83.98 50"><g data-name="Слой 1"><path fill="none" d="M0 0h83.98v50H0z"/><g fill="#d2b093"><path d="M38.38 14.09h-8.6V36h4v-7.6h4.56c4 0 6.28-2.24 6.28-6.11V20c0-3.84-2.15-5.88-6.22-5.88zm-4.62 3.61H38c2.27 0 2.55 1.09 2.55 2v2.38c0 1.84-.69 2.64-2.27 2.64h-4.5V17.7z"/><path data-name="Shape" d="M55.59 22.81H51V17.7h9.78v-3.61H47V36h8.6c4.07 0 6.22-2 6.22-5.88v-1.2c0-3.87-2.27-6.11-6.28-6.11zm-4.53 3.61h4.5c1.58 0 2.27.8 2.27 2.64v1.26c0 .95-.29 2-2.55 2H51v-5.9zM73.86 22.72l7-8.63h-4.77l-8 9.9v-9.9h-3.93V36h3.93v-6.63l3.13-3.53L76.81 36h4.47zM23 14H2.69v20.31zM4.39 36h20.3V15.69z"/></g></g></svg>