<svg xmlns="http://www.w3.org/2000/svg" width="83.98" height="50" viewBox="0 0 83.98 50"><title>рбк</title><g id="Слой_2" data-name="Слой 2"><g id="Слой_1-2" data-name="Слой 1"><rect width="83.98" height="50" fill="none"/><g id="icons"><g id="Group"><path id="Shape" d="M38.38,14.09h-8.6V36h4V28.4h4.56c4,0,6.28-2.24,6.28-6.11V20c0-3.84-2.15-5.88-6.22-5.88ZM33.76,17.7H38c2.27,0,2.55,1.09,2.55,2v2.38c0,1.84-.69,2.64-2.27,2.64h-4.5V17.7Z" fill="#d2b093"/><path id="Shape-2" data-name="Shape" d="M55.59,22.81H51V17.7h9.78V14.09H47V36h8.6c4.07,0,6.22-2,6.22-5.88v-1.2c0-3.87-2.27-6.11-6.28-6.11Zm-4.53,3.61h4.5c1.58,0,2.27.8,2.27,2.64v1.26c0,.95-.29,2-2.55,2H51V26.42Z" fill="#d2b093"/><path id="Shape-3" data-name="Shape" d="M73.86,22.72l7-8.63H76.09l-8,9.9v-9.9H64.16V36h3.93V29.37l3.13-3.53L76.81,36h4.47Z" fill="#d2b093"/><path id="Shape-4" data-name="Shape" d="M23,14H2.69V34.31Z" fill="#d2b093"/><path id="Shape-5" data-name="Shape" d="M4.39,36H24.69V15.69Z" fill="#d2b093"/></g></g></g></g></svg>