<svg xmlns="http://www.w3.org/2000/svg" width="64.49" height="58.5" viewBox="0 0 64.49 58.5"><title>Материал.)</title><path d="M12.66 45.74a10 10 0 0 1 7.79-3.41 10 10 0 0 1 10.14-11.58 10 10 0 0 1 10.14-11.58 10 10 0 0 1 9.44-11.58 30.24 30.24 0 0 0-40 45.35 10 10 0 0 1 2.49-7.2z" fill="#f08119" stroke="#682f24" stroke-miterlimit="10" stroke-width="1.5"/><path d="M19.98 41.69C7.42 30.69 2.7 17.44 8.28 11.07s19.31-3.48 31.86 7.52M30.59 30.75L8.12 11.08" fill="none" stroke="#692f17" stroke-linecap="round" stroke-miterlimit="10" stroke-width=".7"/><path d="M58.57 41.03a1.86 1.86 0 0 0 .17 2.63 3.72 3.72 0 1 1-4.9 5.6L31.27 29.5a1.84 1.84 0 0 0-.77-.4 10 10 0 0 0 .08 2.39 10.07 10.07 0 0 0-2.23.2 1.87 1.87 0 0 0 .46.61l22.57 19.76a7.451 7.451 0 0 0 9.82-11.21 1.86 1.86 0 0 0-2.63.18z" fill="#e3ddd3" stroke="#692f17" stroke-linecap="round" stroke-linejoin="round" stroke-width="1.5"/><path d="M28.78 43.49c-3.24 0-5.87.75-5.87 1.68v8.37c0 .93 2.63 1.68 5.87 1.68s5.87-.75 5.87-1.68v-8.37c0-.93-2.67-1.68-5.87-1.68z" fill="#f7c17f" stroke="#692f17" stroke-miterlimit="10" stroke-width="1.5"/><path d="M34.65 47.36c0 .93-2.63 1.68-5.87 1.68s-5.87-.75-5.87-1.68M34.65 45.19c0 .93-2.63 1.68-5.87 1.68s-5.87-.75-5.87-1.68M34.65 49.33c0 .93-2.63 1.68-5.87 1.68s-5.87-.75-5.87-1.68M34.65 51.3c0 .93-2.63 1.68-5.87 1.68s-5.87-.75-5.87-1.68" fill="none" stroke="#692f17" stroke-miterlimit="10" stroke-width=".7"/><path d="M40.52 48.21c-3.24 0-5.87.75-5.87 1.68v6.18c0 .93 2.63 1.68 5.87 1.68s5.87-.75 5.87-1.68v-6.18c0-.93-2.63-1.68-5.87-1.68z" fill="#f7c17f" stroke="#692f17" stroke-miterlimit="10" stroke-width="1.5"/><path d="M46.39 51.86c0 .93-2.63 1.68-5.87 1.68s-5.87-.75-5.87-1.68M46.39 49.89c0 .93-2.63 1.68-5.87 1.68s-5.87-.75-5.87-1.68M46.39 53.83c0 .93-2.63 1.68-5.87 1.68s-5.87-.75-5.87-1.68" fill="none" stroke="#692f17" stroke-miterlimit="10" stroke-width=".7"/></svg>