<svg xmlns="http://www.w3.org/2000/svg" xmlns:xlink="http://www.w3.org/1999/xlink" width="35" height="35.42" viewBox="0 0 35 35.42"><defs><clipPath id="b"><circle cx="17.5" cy="17.5" r="17.5" fill="#aacac2"/></clipPath><radialGradient id="a" cx="-68.91" cy="101.59" r="2.04" gradientTransform="matrix(1.16 -.28 .26 .76 74.97 -81.5)" gradientUnits="userSpaceOnUse"><stop offset=".42" stop-color="#ebc4b1" stop-opacity=".65"/><stop offset=".5" stop-color="#ebc4b1" stop-opacity=".6"/><stop offset=".63" stop-color="#ebc3b0" stop-opacity=".48"/><stop offset=".8" stop-color="#eac3ae" stop-opacity=".27"/><stop offset="1" stop-color="#eac2ac" stop-opacity="0"/></radialGradient><radialGradient id="c" cx="-38.57" cy="-226.1" r="1.94" gradientTransform="matrix(.28 1.16 -.76 .26 -149.24 119.53)" xlink:href="#a"/></defs><circle cx="17.5" cy="17.5" r="17.5" fill="#aacac2"/><g clip-path="url(#b)"><path d="M5.78 12a9.11 9.11 0 0 1 .95-3.55 9.74 9.74 0 0 1 1.72-2.38A9.56 9.56 0 0 1 9.65 5a13.45 13.45 0 0 1 2.75-1.46c1.35-.6 2-1 2.52-1s2.52-.08 2.52-.08a7.31 7.31 0 0 1 .95 0 7.14 7.14 0 0 1 1 .39 1.66 1.66 0 0 1 1.06-.16c.43.16 2 .71 2.25.75a15.73 15.73 0 0 1 4.65 4.1c1.46 2.13 2 4.18 1.69 5.44s-1 3.35-2.17 4.18-3.9 2.6-5.16 2.6a9.81 9.81 0 0 0-1.81.12l-.08-1.06a13.93 13.93 0 0 0 3.43-2.25c.87-1 .83-2 1.3-2a1.6 1.6 0 0 0 1.14-1c0-.32-.16-1.3-.35-1.34s-1 0-1 0a3.69 3.69 0 0 1-.75-.71 12.6 12.6 0 0 0-.98-1.52c-.12-.08-.43-.35-.67-.35s-2.44-.16-2.84-.24a9.6 9.6 0 0 0-2.29.2 3.14 3.14 0 0 0-.83.28L15 7.12s-.35.87-.47 1.26-.39 1.22-.39 1.22l-1.22-.39-3.74 1a1.14 1.14 0 0 0-.67.87 6.79 6.79 0 0 0 0 1.18s-.47.39-.43.55a4.45 4.45 0 0 0 .87 1.54 23.37 23.37 0 0 1 2 2.72 6.13 6.13 0 0 0 1.77 1.42c.43.2 1.06.32 1.1.47s.35.87.35 1-.12.35-.91.32A18 18 0 0 1 10 19.22s-1.34-1-1.69-1.34a9.2 9.2 0 0 1-1.5-1.58c-.12-.32-.55-1.42-.63-1.66a20.34 20.34 0 0 1-.4-2.64z" fill="#c87b42"/><path d="M11.34 9.92a10.07 10.07 0 0 0-2.34.51c-.39.28-.43.08-.55.67a1.62 1.62 0 0 0 .08 1c0 .2-.51.2-.59.47a1.86 1.86 0 0 0 .35 1.5c.39.35.79.2.91.59a10.68 10.68 0 0 0 3.47 3.86 9 9 0 0 0 5.56 1 15.2 15.2 0 0 0 3.39-1.62 6 6 0 0 0 1.73-1.54c.32-.43 1-.95 1-1.18a2.3 2.3 0 0 1 .16-.63s1.22-.39 1.14-1 .12-1.5-.79-1.5-1.22 0-1.26-.16-.47-2-1.54-2.21-3.39-.28-3.66-.28-2 .35-2 .35l-.71.24s-.32-1.77-.39-2a4.62 4.62 0 0 0-.3-.87 2.46 2.46 0 0 0-.39 1 7.4 7.4 0 0 1-.32 1.34 4.3 4.3 0 0 1-1-.16c-.24-.12-.55 0-.79.12s-1.16.5-1.16.5z" fill="#eddac0"/><path d="M6.4 31.87c.8.39 1.58.82 2.35 1.27.29.17.59.38.89.6l.12-.06a3.41 3.41 0 0 0 .79-.79v1.53a10 10 0 0 0 1.06.67h6.79a33.29 33.29 0 0 0 5.07-.58l1.22-.36c0-1-.09-2.27-.12-2.64l-.16-2.33.39-.32s1.69.67 1.81.75.12.71.79 1.14a6.47 6.47 0 0 0 2.09.63l.23.06a8.67 8.67 0 0 0 1.09-1.23c.81-1.12 1.29-2.93 2.24-4.15a3.25 3.25 0 0 0-.92-.24l.2-.59-1.54-.47-.91-.63a2.66 2.66 0 0 0-.67-.12s-2.21-1.14-2.4-1.22L24 21.63s-1.34-.91-1.85-1.14a14.4 14.4 0 0 0-1.93-.67 1.15 1.15 0 0 0-.32.08l-.24-.79a8.31 8.31 0 0 1-3 .47 23.45 23.45 0 0 0-2.76-.28s.87.83-.35 1a6.51 6.51 0 0 0-3.27 1.26c-.39.51-1.34 1.3-1.66 1.66S7 24.31 6.8 24.7s-1.26 1.73-1.26 2.84a7.93 7.93 0 0 0 .08 2c.09.21.53 1.57.78 2.33z" fill="#fff"/><ellipse cx="14.41" cy="32.41" rx="1.37" ry="1.18" transform="rotate(-74.06 14.402 32.413)" fill="#cd5c22"/><path d="M11.45 29a1.81 1.81 0 0 0-.79.91 6.46 6.46 0 0 0-.24 2.17c.08.32.51-.2.71-.12a6.12 6.12 0 0 0 2.36.43c.83-.12 1.54-.2 1.81-.28a1.65 1.65 0 0 0 .87-1.26v-1.14c0-.19-.32-.55-.39-.67s-.32-.43-.51-.47-.16-.91-.2-1.26-.39-.91-.51-.79-.39 1.34-.59 1.58a5.22 5.22 0 0 1-.67.63 2.38 2.38 0 0 1-.87.35 2 2 0 0 1-.98-.08z" fill="#eddac0"/><path d="M11.24 12.38c0-.06.21-.58.57-.64a3.9 3.9 0 0 1 1-.06c.12 0 .57.08.74.24a.92.92 0 0 1 .34.51c0 .21-.27.29-.35.32a6.58 6.58 0 0 1-1.12.2 2 2 0 0 1-1-.26.56.56 0 0 1-.18-.31zM18.73 11.71s-.69.12-.74.42-.41.6-.08.6a1.48 1.48 0 0 1 .71.07c.49.13.91.33 1.3.16s.56-.26.61-.37.33-.19.1-.32-.34-.53-.75-.53-1.15-.03-1.15-.03z" fill="#fff"/><path d="M18.86 11.88a.5.5 0 0 0-.1.49.75.75 0 0 0 .46.49c.18 0 .55.07.59 0a3.77 3.77 0 0 0 .15-.43s.12-.4-.07-.4-1.03-.15-1.03-.15zM12.18 11.79a.36.36 0 0 0-.18.35c0 .28.31.72.56.71s.62 0 .72-.31.25-.53.07-.65-.25-.1-.59-.16a1.07 1.07 0 0 0-.58.06z" fill="#9ecaea"/><path d="M16.54 3.1a4.48 4.48 0 0 0-.91 1.5 14.63 14.63 0 0 0-.51 2.4 9 9 0 0 0 .47 1.93S15.91 4.17 18 4.4c.91.24 1.62.91 1.62 1.22V4.4a2 2 0 0 1 1.22.47 4.49 4.49 0 0 1 1.54 2.84c0 1.26.35-1.62 0-1.89S21.5 4.44 21 4.13s-1.46-1.18-1.66-1.26l-1-.39a8 8 0 0 0-1.34 0 3 3 0 0 0-.46.62z" fill="#d59e6c"/><path d="M19.69 2.71a5 5 0 0 1 1.5.35A5.72 5.72 0 0 1 23 4.33a2 2 0 0 0-1.06-.08.73.73 0 0 0-.35.63L19.61 3zM16.38 2.63s-.28-.47-1.38-.2a9 9 0 0 0-2.92 1.73c0 .12-1.73 1.89-1.85 2.76s-.35 1.54-.31 1.78a13.48 13.48 0 0 1 1.77-3 2.63 2.63 0 0 1 1.54-1 .85.85 0 0 1 .71.12A1 1 0 0 1 14 6a2 2 0 0 1 .71-1 .64.64 0 0 1 .51-.16.54.54 0 0 1 .32.28 2.15 2.15 0 0 1 .32-.95c.3-.47.69-.63.71-1a.77.77 0 0 0-.19-.54z" fill="#d59e6c"/><path d="M11.77 3.81a16.61 16.61 0 0 0-1.85 1.7L9.64 6s.79-.63 1.14-.63.79-.51.79-.51l1.77-1.66z" fill="#d59e6c"/><path d="M8.89 5.67s-1.1 1.22-1.3 1.46A7.94 7.94 0 0 0 6.49 9c0 .35 1.26-1 1.69-1.22s1.26-1.6 1.38-1.64a13.24 13.24 0 0 0 .95-1.5zM6.72 10.95A10.44 10.44 0 0 0 6 12.84a5.17 5.17 0 0 0 .51 2.6 3.32 3.32 0 0 1 .67 1.18s-.95-3.11-.32-4.18a5.94 5.94 0 0 0 .75-2.13L7.39 10z" fill="#d59e6c"/><path d="M22.92 34.65v-.07a1.43 1.43 0 0 0-2.87 0 1.35 1.35 0 0 0 .05.38 19.69 19.69 0 0 0 2.82-.31zM12.38 35.42a1.37 1.37 0 0 0 0-.17 1.1 1.1 0 0 0-1-1.18.94.94 0 0 0-.75.41 7 7 0 0 0 1.75.94z" fill="#cd5c22"/><ellipse cx="13.56" cy="24.82" rx="1.12" ry="1.24" fill="#cd5c22"/><ellipse cx="17.9" cy="28.1" rx="1.18" ry="1.37" transform="rotate(-5.07 17.881 28.062)" fill="#cd5c22"/><path d="M17.57 35.1a1.42 1.42 0 0 0-2.36 0z" fill="#cd5c22"/><ellipse cx="21.4" cy="24.09" rx="1.15" ry="1.46" transform="rotate(-1.4 21.4 24)" fill="#cd5c22"/><ellipse cx="7.49" cy="31.06" rx=".89" ry="1.24" fill="#cd5c22"/><ellipse cx="7.57" cy="25.98" rx="1.3" ry="1.36" fill="#cd5c22"/><ellipse cx="10.77" cy="22.61" rx=".96" ry="1.06" fill="#cd5c22"/><path d="M23.82 21.49a1.06 1.06 0 1 1-1.74-1.09c.2-.17 1.77 1 1.74 1.09z" fill="#cd5c22"/><ellipse cx="25.52" cy="25.74" rx=".83" ry="1" fill="#cd5c22"/><ellipse cx="29.42" cy="28.11" rx="1.18" ry="1.24" fill="#cd5c22"/><path d="M25 29a1.28 1.28 0 0 1 1.19-1.12 1.17 1.17 0 0 1 1 .58 3 3 0 0 1 0 1.16c-.01.28-2.19-.49-2.19-.62zM30.18 24.45c.08.3-.49.88-1.13.88a1.1 1.1 0 0 1-1.14-1c0-.3.12-.69.37-.77s.37.17 1 .48.85.23.9.41zM24.5 31.43a1.7 1.7 0 0 1-1.08.38 1.48 1.48 0 1 1 0-3 1.7 1.7 0 0 1 1 .33 9.76 9.76 0 0 1 .08 2.29z" fill="#cd5c22"/><ellipse cx="21.82" cy="14.43" rx="2.35" ry="1.79" transform="rotate(-21.6 21.649 14.285)" fill="url(#a)"/><ellipse cx="11.14" cy="14.86" rx="1.7" ry="2.24" transform="rotate(-55.48 11.14 14.865)" fill="url(#c)"/><path d="M19.31 7.75a2.77 2.77 0 0 1-.25 1 1.2 1.2 0 0 1-.78.48c-.3 0-.95.1-1 .1a6 6 0 0 0-.69.18l-.43.12s-.1.12-.19-.11-.24-1-.3-1.1a6.79 6.79 0 0 1-.28-2 5.58 5.58 0 0 1 .87-2.73c.5-.6.65-1 1.06-1.1a5.5 5.5 0 0 1 1.12 0 1.17 1.17 0 0 1 .76.68 6.34 6.34 0 0 1 .4 1.83v.95a2.22 2.22 0 0 0 .16-1.35 11.1 11.1 0 0 0-.26-1.38s-.2-.51.34 0a10.18 10.18 0 0 1 2 2 2.8 2.8 0 0 1 .5 1.82c-.06.69-.09 1.47-.13 1.59s.27.18.27.18a13.85 13.85 0 0 0 .21-2.2 3 3 0 0 0-.54-1.53c-.35-.41-1.15-1.36-1.29-1.42L19.81 3s-.3-.2 0-.18a6.54 6.54 0 0 1 .81.06l.92.57-.1-.25.19-.16a12.62 12.62 0 0 0-1.22-.48 7.52 7.52 0 0 0-1.2-.06c-.15 0-.41-.22-.88-.28a3.64 3.64 0 0 0-1.09.1 7.07 7.07 0 0 0-.82.73 6 6 0 0 0-.87 1.59 9 9 0 0 0-.55 2.5c.07.26.11.53.28 1.06a8.28 8.28 0 0 1 .36 1.18c0 .19.09.58.06.62s.18.11.5-.11a2.47 2.47 0 0 1 1.11-.26c.43-.06.92-.16 1-.16a2.81 2.81 0 0 1 1.09.07 7 7 0 0 0 1.48.24.41.41 0 0 0 .35-.28h-.94l-1-.22a1.11 1.11 0 0 0-.23 0 1 1 0 0 0 .45-.73c0-.42.08-.4 0-.75a1.78 1.78 0 0 1-.09-.52z" fill="#512620"/><path d="M22.24 8.69a1.9 1.9 0 0 1-.23.59 1 1 0 0 1-.51.23 1.93 1.93 0 0 1-.41 0l-.25.28a5.5 5.5 0 0 0 .84 0c.18 0 .33-.06.33-.11a1.4 1.4 0 0 0 .25.35c.19.18.67.43.77.61a1.61 1.61 0 0 1 .37.88 1.09 1.09 0 0 0 .76.84s.32-.23.52-.21.67.12.8.36a1.58 1.58 0 0 1 0 1.18 1.85 1.85 0 0 1-.45.53 3.6 3.6 0 0 1-.6.29 2.3 2.3 0 0 1-.66 1.25A18.15 18.15 0 0 1 22 17.59c-.34.22-1.38.83-1.76 1a4.33 4.33 0 0 1-.69.29 1.09 1.09 0 0 1 .11.4v.54l.44-.11-.1-.65L21.74 18a9.14 9.14 0 0 0 1.89-1.7l-.32.84c0 .08-.15.6-.18.66a2.71 2.71 0 0 1-.67.79 8.85 8.85 0 0 1-1.09.62l.4.28a2.69 2.69 0 0 0 1.46-1.22 18.87 18.87 0 0 1 1.16-2.95c.59-.83.61-.84.75-.95a1.11 1.11 0 0 0-.06.31 1.16 1.16 0 0 1-.08.51 3 3 0 0 0-.38.86 8.55 8.55 0 0 0 0 1.2c0 .78-.1 1.23-.33 1.35s-1.08.59-1.08.59v.29s1.67-.8 1.85-.91 0-.33 0-.33a8.84 8.84 0 0 0 0-.89 2.31 2.31 0 0 1-.15-1 3.12 3.12 0 0 1 .27-.76s.31 1 .35 1.17.34-.27.34-.27a3.31 3.31 0 0 1-.37-1.68 6.94 6.94 0 0 1 .63-1.53 4.57 4.57 0 0 0 .12-.53s0 1-.06 1.3a5.44 5.44 0 0 1-.09.73 2.75 2.75 0 0 0 .38-1.54c0-.94-.4-.89-.4-.89l-.12.6s0-.77-.34-.93a3.59 3.59 0 0 0-1-.18s-.57.07-.74-.31a3.62 3.62 0 0 0-.45-.88 4.66 4.66 0 0 1-.31-.4 6.35 6.35 0 0 0 .57.33c.08 0 .54.62.81.72a3.32 3.32 0 0 0 .86.16c.09 0-.73-.35-.81-.5a.92.92 0 0 0-.31-.28 2 2 0 0 1 1.27.41c.4.42.36-.09.36-.09s-.77-.45-.91-.49-1.07-.35-1.38-.42-.84-.19-.92-.59-.14-.34-.07-.75-.35-.06-.35-.06z" fill="#512620"/><path d="M21.57 3.56a8.66 8.66 0 0 1 1.54 1 7 7 0 0 1 1.67 2.15 7.45 7.45 0 0 1 .93 2.7 10.81 10.81 0 0 1 .09 1.53c0 .1 0 .18-.06.18s-.16.19-.16.19A1.55 1.55 0 0 1 26 12a4.79 4.79 0 0 1 0 .56l.33.41.06.18a2.93 2.93 0 0 0 0-1.22 2 2 0 0 1-.21-1.17 3 3 0 0 0 .1-1.11c-.07-.27-.12-.5-.12-.5a6.69 6.69 0 0 1 1.19 2.35 7.63 7.63 0 0 1 .24 2.35A1.92 1.92 0 0 1 27 15a10.55 10.55 0 0 1-1 1.05 6 6 0 0 0-.37.59l-.23.13s.09.08.07.43a1.17 1.17 0 0 1-.23.69 4.19 4.19 0 0 1-.28.33v.28s1-.64 1.17-.79-.07-.35-.07-.35l-.16.08a3.24 3.24 0 0 1 .41-1.18 20.12 20.12 0 0 1 1.41-1.78 8.94 8.94 0 0 0-.12-2 8.67 8.67 0 0 0-.6-2.39c-.44-.65-.79-1.33-1-1.67s-.72-1.86-1-2.15-.73-.94-.92-1.14a11 11 0 0 0-1.38-1.22 8 8 0 0 0-1.14-.57l-.18-.11a4 4 0 0 1 2.36 1 16.81 16.81 0 0 1 3.74 3.67 10.48 10.48 0 0 1 .91 1.73 3.69 3.69 0 0 1 .61 2.64c-.13 1.43-.11 2-.62 2.73a14 14 0 0 1-1.54 1.86l-.81.67.08.2a.6.6 0 0 0 .37-.1 10.36 10.36 0 0 0 1.36-1.41A5 5 0 0 0 29 13.84a9.64 9.64 0 0 0 .07-3.3 14.56 14.56 0 0 0-1.28-2.61 31 31 0 0 0-2-2.37 14.49 14.49 0 0 0-2.39-1.92c-.61-.2-1.65-.48-1.65-.48L21.47 3c-.06 0-.25.15-.25.15l.1.19z" fill="#512620"/><path d="M28.12 11.75a2.66 2.66 0 0 1 0 1.1s0 .1-.22.78l-.18.46v.46a4.16 4.16 0 0 0 .3-.52 3.85 3.85 0 0 0 .35-1.11 3.55 3.55 0 0 0-.24-1.8 4.22 4.22 0 0 0-.81-1.29 6 6 0 0 0-1.2-1c-.09-.1-.09.2 0 .29s.74 1 .75 1-.1-.26 0-.3.22.11.28.16a2.9 2.9 0 0 1 .62.77 3.54 3.54 0 0 1 .35 1zM16.31 2.69a3.13 3.13 0 0 0-1.19 1 10.8 10.8 0 0 0-1 1.87 1.24 1.24 0 0 0-.12.64 5.47 5.47 0 0 1 .43-.95c.15-.17 1.05-1.52 1.24-1.7s.51-.5.68-.46.9-.74.9-.74-1.2.07-1.42.07a6.16 6.16 0 0 0-2 .28A9.48 9.48 0 0 0 12 4.13a8.71 8.71 0 0 0-1.55 2 6.57 6.57 0 0 0-.7 2.14A3 3 0 0 0 10 9.64c0 .09.25.47.25.47l.56-.07-.33-.25a2.26 2.26 0 0 1-.3-.63 2.3 2.3 0 0 1-.09-.67 5.29 5.29 0 0 1 .43-1.87A7.82 7.82 0 0 1 13 3.69a5 5 0 0 1 1.51-.85 5.56 5.56 0 0 1 .49-.16 2.45 2.45 0 0 1 1.31.01z" fill="#512620"/><path d="M11.64 9.46s.9-.2 1-.24a2 2 0 0 0 .74-.68 3.69 3.69 0 0 1 .18-.35s-.23.69-.25.81 0 .46.33.47.53.06.6-.32A6.45 6.45 0 0 1 14.47 8c.13-.28.38-.94.47-1.07s.14.4.14.4a4.5 4.5 0 0 0-.48 1.08c0 .33-.15 1.26-.15 1.3a3 3 0 0 1-.75 0 2.48 2.48 0 0 1-.54-.22 3.2 3.2 0 0 1-.91.26c-.69.13-1.4.32-1.58.31a.28.28 0 0 1-.24-.19s1.13-.4 1.21-.41z" fill="#512620"/><path d="M12.37 3.28s-2.12 1.37-2.31 1.45a19.53 19.53 0 0 0-2 1.48 8.08 8.08 0 0 0-1.45 2.07 12.66 12.66 0 0 0-.73 2.26 20.61 20.61 0 0 0 0 2.82A10.68 10.68 0 0 0 6.27 15c.11.13.26 0 .26 0a4.7 4.7 0 0 1-.4-2.36 3.92 3.92 0 0 1 1.16-2.17l.16-.15a5.67 5.67 0 0 0 0 1 7.24 7.24 0 0 0 .38 1.2c.07.11.31-.36.31-.36a5.12 5.12 0 0 1-.33-1.59 5.89 5.89 0 0 1 .29-2.02C8.34 8.07 9 7 9 7a5.92 5.92 0 0 0-.29 1.24 3.84 3.84 0 0 0 .18 1.66 2.14 2.14 0 0 0 .37.41l1.12-.24s-.57-.93-.52-.86.19.67-.1.8-.66 0-.8-.68a3.48 3.48 0 0 1 .37-2.42c.47-.73.75-1.57 1.35-2s-.77.36-.77.36S9 6.61 8.88 6.78a5.18 5.18 0 0 0-1 1.59c-.15.57-.39 1.36-.39 1.36l-.6.74a5.6 5.6 0 0 0-.52.8c0 .07-.27.39-.18 0A8.89 8.89 0 0 1 7 8.2 12.4 12.4 0 0 1 8.7 6 6.7 6.7 0 0 1 10 5l1-.4a5.35 5.35 0 0 1 1-.75c.39-.19.76-.48.94-.55S14 2.63 14 2.63s-1.48.54-1.63.65z" fill="#512620"/><path d="M10.14 5.07a3.76 3.76 0 0 0-.33.45c-.1.18 1-.64 1-.64s.29-.36.4-.48a7.64 7.64 0 0 0-1 .49zM9 10.14a2.72 2.72 0 0 0-.4.38c0 .1-.3.16-.37.52s-.1.81-.12.88a4.83 4.83 0 0 1-.4.62 2.18 2.18 0 0 0-.39 1.05 5.73 5.73 0 0 0 0 1.83c.1.32.35 1.34.46 1.53A7 7 0 0 1 7 16c-.06-.15-.53-1.12-.58-1.21s-.21.18-.21.18a7 7 0 0 0 1 1.9 10.58 10.58 0 0 0 2 2c.61.35.48.33.71.43s.83.42 1 .51a4.18 4.18 0 0 0 .77.24 4.56 4.56 0 0 0 .82.25h.54c.11 0 .6.07.6.07l.47-.12-.27-.25a1.79 1.79 0 0 1-1.22 0 6.61 6.61 0 0 1-2.36-2.12 16.36 16.36 0 0 1-1.55-3.07c-.09-.24-.43-.47-.37-.34a11.44 11.44 0 0 1 .58 1.68 8 8 0 0 0 1.19 2 19.26 19.26 0 0 0 1.48 1.5 2 2 0 0 1-1-.19 3.88 3.88 0 0 1-1-1.28c-.12-.33-.46-.68-.33-.26A3.88 3.88 0 0 0 10 19.1a2.48 2.48 0 0 1-.88-.62 5.83 5.83 0 0 1-1.23-1.85 11.82 11.82 0 0 1-.44-1.78v-.63A4.74 4.74 0 0 0 8 15.76c.38.59.48.77.51.8a12.06 12.06 0 0 1-.69-1.68c0-.37-.3-1.46-.1-1.82s.17.08.17.08l.28.11s-.16-.45.11-.66a.91.91 0 0 1 .38-.22 2.06 2.06 0 0 1-.16-.95 1.13 1.13 0 0 1 .33-.86 2.19 2.19 0 0 1 .9-.34c.31-.08-.63-.13-.63-.13z" fill="#512620"/><path d="M8.47 13.85a1 1 0 0 0 .4.32c.25.1.29.16.36.14a4 4 0 0 0 .67 1.39 10.41 10.41 0 0 0 3.1 2.88 11.61 11.61 0 0 0 3.49.83 7.46 7.46 0 0 0 2.19-.27 5.55 5.55 0 0 1 1-.26v.31a11.2 11.2 0 0 1-1.09.36 13.35 13.35 0 0 1-2 .16c-.57 0-1.51-.22-1.78-.24a4.91 4.91 0 0 1-1.07-.24 8.78 8.78 0 0 1-2.23-1.36 12.42 12.42 0 0 1-1.82-2.13c-.57-1-.85-1.33-.94-1.34s0 .41.1.58-.36-.4-.36-.43a7.44 7.44 0 0 1-.49-.87 2.39 2.39 0 0 1-.13-.61 1.53 1.53 0 0 1 .23 0 3.11 3.11 0 0 0 .37.78z" fill="#512620"/><path d="M13.77 19.51s.15.26.11.36a.29.29 0 0 1-.08.13v.27s.09 0 .38.13a3.68 3.68 0 0 0 .62.27 8.53 8.53 0 0 0 2.1.33 11.28 11.28 0 0 0 1.58-.19c.1 0 .64-.17.64-.17a1.93 1.93 0 0 1 .74-.39 2.16 2.16 0 0 1 1.1 0l.52.18a1.75 1.75 0 0 0 .13-.3s-.43-.18-.1-.22 1-.15 1.06-.18a5 5 0 0 0 .72-.3c.2-.13-.07-.23-.07-.23a9.78 9.78 0 0 1-1.14.36c-.23 0-.41 0-.25-.1s-.41-.24-.41-.24-.39.18-.59.24-.69.27-.77.27a2.91 2.91 0 0 0-.39.1 1.44 1.44 0 0 1-.88.52 6.89 6.89 0 0 1-2.31.3 4.22 4.22 0 0 1-1.63-.29c-.3-.16-.59-.33-.61-.59a1.8 1.8 0 0 0-.05-.35s0-.07.14-.08-.69-.2-.69-.2a1 1 0 0 1 .13.37z" fill="#512620"/><path d="M15.3 19.54a6.43 6.43 0 0 1 .52.75c0 .07.52-.64.52-.64H17a6.15 6.15 0 0 1 .61.72c0 .07.51-.84.55-.83s.56-.16.62-.1.29.19.4.3a.7.7 0 0 1 .2.33c0 .07-.27.21-.27.21a5.62 5.62 0 0 0-.63-.64c-.08 0-.51.84-.65 1s-.29.15-.36.1-.77-.89-.82-.89-.6.86-.72.91-.34-.09-.34-.09l-.62-1-.73.52-.13-.23.64-.46z" fill="#512620"/><ellipse cx="14.89" cy="20.06" rx=".15" ry=".14" fill="#512620"/><ellipse cx="15.8" cy="19.87" rx=".15" ry=".14" fill="#512620"/><ellipse cx="16.7" cy="20.43" rx=".17" ry=".14" fill="#512620"/><circle cx="17.63" cy="19.92" r=".13" fill="#512620"/><ellipse cx="18.58" cy="20.16" rx=".19" ry=".15" fill="#512620"/><ellipse cx="19.43" cy="19.56" rx=".13" ry=".15" fill="#512620"/><path d="M14.65 20.61a1 1 0 0 1 .45.46 5.62 5.62 0 0 1 .2 1.62c0 .36.09 1.31.11 1.66a5.33 5.33 0 0 0 .21 1.08c0 .07 0 .36.57.52a4 4 0 0 0 1.49.31 1.6 1.6 0 0 0 .72-.26c.09-.07.22-.12.2-.66s-.07-2.48-.09-2.62a5.24 5.24 0 0 1 .16-1.4c.12-.18.4-.74.47-.79s-.65.27-.65.27 0 .23-.1.87-.05 2.17-.05 2.19v1.39c0 .09 0 .62-.3.67a2.75 2.75 0 0 1-1.54-.16c-.35-.26-.71-.14-.82-1.31s-.05-2.17-.14-2.65-.07-.8 0-.88a.89.89 0 0 1 .2-.14l-1-.24z" fill="#512620"/><path d="M15.75 21.07a4 4 0 0 0 1.09.88 6.09 6.09 0 0 0 1.51.57v.53a12 12 0 0 1-1.31 1.1l-1.32.61.67.51.54.33a5.94 5.94 0 0 0 .85.36C18 26 17 26 17 26s-1.31-1-1.36-1.07a2.74 2.74 0 0 1-.12-.45 6.13 6.13 0 0 0 1.57-.67c.43-.35 1.06-1 1.06-1s-1.31-.5-1.56-.65a3 3 0 0 1-1-.85 4.25 4.25 0 0 1-.21-.44l.19-.08a2.12 2.12 0 0 0 .18.28z" fill="#512620"/><path d="M18.22 20.81c-.07.09-.6.44-.79.61a8.56 8.56 0 0 1-.7.66c-.23.16-.58.49-.67.54s-.52.4-.52.4v.27s.65.44.75.53a11.47 11.47 0 0 0 1.32.65 2 2 0 0 0 .59.13c.09 0-.33.39-.47.5s-.68.58-.72.58-.28.21-.4.2.16.15.28.17a4.49 4.49 0 0 0 1-.75c.16-.16.54-.64.54-.64l-.05-.33a4.46 4.46 0 0 1-1.23-.39 6.82 6.82 0 0 1-1.23-.83 13.48 13.48 0 0 0 1.29-1 4.3 4.3 0 0 1 .78-.72 2.17 2.17 0 0 0 .58-.45v-.16z" fill="#512620"/><circle cx="15.86" cy="22.12" r=".15" fill="#512620"/><circle cx="16.8" cy="21.36" r=".16" fill="#512620"/><ellipse cx="17.99" cy="21.94" rx=".17" ry=".14" fill="#512620"/><ellipse cx="17" cy="23.12" rx=".19" ry=".18" fill="#512620"/><ellipse cx="15.9" cy="23.9" rx=".14" ry=".13" fill="#512620"/><ellipse cx="16.96" cy="24.8" rx=".21" ry=".17" fill="#512620"/><ellipse cx="18.1" cy="23.82" rx=".13" ry=".16" fill="#512620"/><ellipse cx="17.99" cy="25.58" rx=".17" ry=".14" fill="#512620"/><path d="M22.85 21.07a16.45 16.45 0 0 0 1.45.93c.25.09.91.44 1.13.56a12.23 12.23 0 0 0 1.35.48 13.81 13.81 0 0 1 1.77.78l.38.23-.38.29a8.87 8.87 0 0 0-.88 1.46 10.48 10.48 0 0 0-.58 2.2 9.06 9.06 0 0 0-.16 1.84s.29.16.29-.32a21.85 21.85 0 0 1 .24-2.22 9 9 0 0 1 .47-1.21 5.28 5.28 0 0 1 .92-1.63.93.93 0 0 1 .92-.16 1.85 1.85 0 0 1 .5.34 1.86 1.86 0 0 0-.83.25 1.2 1.2 0 0 0-.57.92 1.74 1.74 0 0 1 .3-.55c.24-.3.32-.29.75-.38a1.54 1.54 0 0 1 1 .13c.15.07.84.14 1.17.24s.18.21-.06.33a2.26 2.26 0 0 0-.55.55s-.05.58.19.24.44-.38.51-.38.18.11.36.13a1.89 1.89 0 0 1 .39.14l.07-.16h-.18c-.22 0-.24-.18-.28-.33s-.11-.38-.14-.5-.51-.3-.69-.37a3.26 3.26 0 0 0-.72-.09 2.77 2.77 0 0 0-.22-.2c-.09-.07-.41-.14-.48-.18a6.72 6.72 0 0 0-.58-.39 1.14 1.14 0 0 0-.48-.08 3.08 3.08 0 0 0-.66-.41c-.3-.12-.51-.32-.77-.4s-1.68-.64-2.39-.92a6.42 6.42 0 0 1-1.41-.81c-.15-.12-1-.58-1.49-.88a4.42 4.42 0 0 0-.93-.4l-.18.27.46.21c.14.06.89.38.99.45z" fill="#512620"/><path d="M23.55 27.39s.26.5.35.72a4.11 4.11 0 0 1 .37.86v1.61c0 .2.27 2.08.27 2.63 0 .26 0 .62.06 1l.34-.11a7 7 0 0 0-.05-.85c-.07-.21-.25-2.41-.25-2.62V29.5s.16-.31.13-.35a6.41 6.41 0 0 1 1 .35c.1.06 1 .34 1 .35h.3l-.1-.38-1-.35c-.24-.07-1.19-.07-1.49-.7a1.53 1.53 0 0 1 .13-1.34c.07-.23.33-1 .35-1.17s0-.37 0-.37-.37.86-.54 1.12a6.62 6.62 0 0 0-.42.89 5.08 5.08 0 0 1-.21-1.2 9.13 9.13 0 0 0-.3-1.85c-.07-.13-.15-.61-.2-.39 0 0 .12 1 .14 1.26z" fill="#512620"/><path d="M27.71 31.06a8.64 8.64 0 0 0 1.2.29 5.06 5.06 0 0 1 .68.24l.24-.22c-.33-.08-.89-.26-1-.69a12.33 12.33 0 0 1-.37-1.68c0-.21-.15-.31-.15.33a7.39 7.39 0 0 0 .16 1.56c0 .07-.52.13-.75-.21s-.49 0-.5-1.17-.27.28-.27.28a.94.94 0 0 0 .16.69 1.55 1.55 0 0 0 .6.58zM30.61 30.51l.22-.28.06-.08c0-.26 0-.49.06-.5a.76.76 0 0 1 .25 0l.15-.27c-.21 0-.41-.13-.47-.25a3.46 3.46 0 0 1 .3-2.07 3 3 0 0 1 .59-.83l-.25-.15-.3.41a4.91 4.91 0 0 0-.64 1.69 9.1 9.1 0 0 0 0 2.16zM10.9 10.87a2.24 2.24 0 0 1 .63-.43 1.8 1.8 0 0 1 .65-.12 1.34 1.34 0 0 1 .4.11.67.67 0 0 1-.33.15 6 6 0 0 0-.7.21c-.09 0-.51.14-.56.17s-.26.1-.19 0zM11.32 11.81a1.06 1.06 0 0 1 .59-.28 4.1 4.1 0 0 1 .89 0 1.77 1.77 0 0 1 .82.34 2 2 0 0 1 .46.47.59.59 0 0 1 .1.29c0 .15 0 .19-.17.17a1 1 0 0 0-.48.09 2.29 2.29 0 0 1-1 .18 3.31 3.31 0 0 1-1-.16l-.46-.31s-.19-.08-.12-.23.43-.1.43-.1a.17.17 0 0 0 0 .23.85.85 0 0 0 .53.3h1a1.78 1.78 0 0 0 .4-.09.61.61 0 0 1 .25-.1.94.94 0 0 1 .26 0s.11 0 .1-.06a1.11 1.11 0 0 0-.27-.46.59.59 0 0 0-.27-.16c-.1 0-1.39-.14-1.39-.14a1 1 0 0 0-.31.16 1.43 1.43 0 0 1-.55.15 1.76 1.76 0 0 1 .19-.29z" fill="#512620"/><path d="M11.54 12.07l-.18.22-.41.09.2-.34.67-.19zM12 11.78a.56.56 0 0 0-.19.34.65.65 0 0 0 .11.46.51.51 0 0 0 .3.22 5.86 5.86 0 0 0 .78 0 .7.7 0 0 0 .3-.09 1 1 0 0 0 .15-.48c0-.21 0-.28-.08-.32a3.85 3.85 0 0 0-.42-.08.12.12 0 0 0 0 .08.15.15 0 0 0 .07 0c.08 0 .12.18.13.25a.53.53 0 0 1-.24.47.61.61 0 0 1-.57 0 .59.59 0 0 1-.32-.35.4.4 0 0 1 .11-.42h.09c.03 0 0 .07 0 .08h.11a.14.14 0 0 1 .1.11c0 .09 0 .21-.12.21h-.14a.48.48 0 0 0 .44.23.44.44 0 0 0 .2-.09.4.4 0 0 0 .11-.16.41.41 0 0 0 0-.19.28.28 0 0 0 0-.17l-.14-.1a.81.81 0 0 0-.67-.13.65.65 0 0 0-.11.13zM15.4 14.66c.06 0 .47.08.65.08a3.46 3.46 0 0 0 .56 0 3 3 0 0 1 .34 0 .18.18 0 0 1-.11.16 1.32 1.32 0 0 1-.65.17 1.64 1.64 0 0 1-.69-.12c-.06 0-.2-.07-.22-.18s0-.11.12-.11zM18.05 11.88a.84.84 0 0 1 .67-.36 4.29 4.29 0 0 1 1.16.14 2.71 2.71 0 0 1 .48.23s.41.4.44.45.14.18 0 .26a1.31 1.31 0 0 1-.73.37 2.6 2.6 0 0 1-1.14 0 2.37 2.37 0 0 0-.57-.14c-.14 0-.21 0-.3-.05s-.35 0-.35-.23a1 1 0 0 1 .18-.52.71.71 0 0 1 .14-.18.24.24 0 0 1 .09-.06h.34c0 .06-.21.14-.38.39s-.12.29-.1.32.08 0 .15 0h.09a2.17 2.17 0 0 1 .39.12 2.28 2.28 0 0 0 1.45 0c.63-.22.51-.34.51-.34a2.22 2.22 0 0 0-.34-.3 9.8 9.8 0 0 0-1.16-.3 1.54 1.54 0 0 0-.43 0l-.23.11z" fill="#512620"/><path d="M18.69 11.84a.82.82 0 0 0-.1.47.71.71 0 0 0 .26.52.9.9 0 0 0 .64.07l.55-.11a1.58 1.58 0 0 0 .17-.48c0-.12 0-.29-.06-.33a3.63 3.63 0 0 0-.44-.11 1.84 1.84 0 0 0-.79-.14c-.06 0-.19 0-.22.13l.25.07a.48.48 0 0 1 .24 0 .18.18 0 0 1 .08.22.31.31 0 0 1-.11.1H19a.36.36 0 0 0 .31.25.37.37 0 0 0 .31-.15.37.37 0 0 0 .06-.22s.07-.09.13-.07.06.05.07.07a.4.4 0 0 1 0 .32.56.56 0 0 1-.31.28.6.6 0 0 1-.53-.09.59.59 0 0 1-.22-.26.46.46 0 0 1 0-.18.34.34 0 0 1 .07-.23.28.28 0 0 1 .11-.08zM19.69 10.53s.67.23.79.29l.32.16s.22.1.08 0a3 3 0 0 0-.92-.65 1.61 1.61 0 0 0-.9-.12c-.18.06-.3.14-.19.19a2.36 2.36 0 0 0 .47.09zM13.54 16.13a9.64 9.64 0 0 0 2.47.41 4.45 4.45 0 0 0 1.89-.17 9.37 9.37 0 0 0 1.17-.46 4.11 4.11 0 0 1 .46-.16.21.21 0 0 1 .13 0h.05l.13.18a.36.36 0 0 1 0 .09c0 .08-.19 0-.22 0s0-.08 0-.09-.79.39-.91.46a4.87 4.87 0 0 1-2.59.58 5 5 0 0 1-2-.38c-.47-.19-1-.44-1.09-.44a1.11 1.11 0 0 0-.38.14s-.14 0-.07-.12a.94.94 0 0 1 .36-.23 1 1 0 0 1 .4.07 1.84 1.84 0 0 0 .2.12zM15.79 17.47h.6a4.89 4.89 0 0 0 .72 0l.51-.09h.19s0 .05-.28.19a2.74 2.74 0 0 1-1.27.24 3.73 3.73 0 0 1-1-.12 4.73 4.73 0 0 1-.45-.22s0-.1.12-.09.58.05.66.07a1.3 1.3 0 0 0 .2.02zM10.29 33.33c.08-.32.17-.38.17-.38a.38.38 0 0 1 .3-.27h.28c.03 0 .07-.33.07-.33a2.11 2.11 0 0 1 .75.05l.86.12-.09-.24a10.49 10.49 0 0 0-1.54-.43h-.48s-.24.29-.25.32a2.28 2.28 0 0 0 .09.28h-.27s-.12.36-.19.6-.11.46-.23.55a.62.62 0 0 1-.34 0l.4.29a.89.89 0 0 0 .47-.56zM5.86 30.57c.07.26.21.65.27 1v.23l.25.12v-.08c-.12-.56-.11-.77-.19-1A1.68 1.68 0 0 1 6 29.72a3.76 3.76 0 0 1 .82-1.33A3.45 3.45 0 0 1 8 27.45a2.93 2.93 0 0 1 1.17-.17h.4s-.76.35-.9.43a1.2 1.2 0 0 0-.45.44 4 4 0 0 0-.33.89 4.12 4.12 0 0 1-.11.47 6.12 6.12 0 0 1 .78-1.33 1.7 1.7 0 0 1 1-.62 1 1 0 0 1 .95.17c.06.07.54.35.6.43s.18.08.22.19a1.6 1.6 0 0 1 .08.4s.31.23.32.2a1.19 1.19 0 0 0-.17-.8 1.59 1.59 0 0 0-.45-.33s.09-1.56.09-1.66v-1.61s0-.34-.15.18a7 7 0 0 0-.08 1c0 .13-.12.28-.23.1s-.18-.37-.22-.36 0 .34 0 .49 0 1-.17 1a3.49 3.49 0 0 1-.79 0 4.5 4.5 0 0 0-1.18.04 2.15 2.15 0 0 0-1.09.49 8.17 8.17 0 0 0-.73.89l-.47.67s-.32.48-.32-.27a7.85 7.85 0 0 1 .44-2c0-.08.37-1.16.5-1.46a4 4 0 0 1 1.34-1.46 8.33 8.33 0 0 0 1.6-1.27 8.56 8.56 0 0 1 1.7-1.5 10.39 10.39 0 0 1 1.35-.46c.22 0 .76-.23.76-.23l.53-.18h-1.16l-.56.24a7.68 7.68 0 0 0-.81.34c-.29.16-.6.36-1 .64a11 11 0 0 0-1.14 1.06 10.7 10.7 0 0 1-.83.68 7.23 7.23 0 0 0-1.22.88 12.23 12.23 0 0 0-1.09 1.44 8.73 8.73 0 0 0-.33 1c-.08.26-.24 1.27-.25 1.34s-.14.81-.14 1.12a2.36 2.36 0 0 0 .08 1 4.19 4.19 0 0 1 .32.61z" fill="#512620"/><path d="M9.15 33.4l.24.16h.23c-.05 0-.18-.34-.21-.43a.49.49 0 0 1 .22-.42.76.76 0 0 1 .43 0l.15-.33H10a2.85 2.85 0 0 1-.56 0c-.35 0-.4-.28-.49-.45A4.23 4.23 0 0 1 9 30.44 2.44 2.44 0 0 1 9.64 29c.24-.18.36-.16.87-.19a2.17 2.17 0 0 1 .9.14 2 2 0 0 0-.53.31 2.86 2.86 0 0 0-.59 1.42 3.94 3.94 0 0 0 .06 1.5l.26-.26s-.06-.6-.05-.77A4.6 4.6 0 0 1 10.8 30c.21-.74.67-.82.67-.82a6.71 6.71 0 0 0 .78.2 1.45 1.45 0 0 0 .66-.12 2.9 2.9 0 0 0 1-.81 4.31 4.31 0 0 0 .5-1.44c.09-.36.18-.28.36-.27s.18.5.24.74a2.93 2.93 0 0 1-.06 1c0 .07-.43.11-.63.24s0 .19 0 .19a3.3 3.3 0 0 1 .46-.14 1.39 1.39 0 0 1 .49 0c.11 0 .13.08.36.22s.12.29-.16.49-.69.1-.8.21.22.13.28.13a4.5 4.5 0 0 0 .52-.1 1.84 1.84 0 0 0 .42-.22 1 1 0 0 1 .23.33c.1.23-.19.44-.25.52s-.81.18-1 .27.19.13.27.1a3.66 3.66 0 0 1 .75-.12c.22 0 .16 0 .18.21a.6.6 0 0 1-.25.47c-.12.07-.7 0-.94.17s0 .16 0 .16l.83-.06c.1 0 .13 0 0 .26s-.66.34-1.43.5a4.94 4.94 0 0 1-1.69 0l.06.24h1.92a3 3 0 0 0 1.38-.55 2.13 2.13 0 0 0 .42-1.12 4.39 4.39 0 0 0-.09-.62 2.53 2.53 0 0 0 0-.63.58.58 0 0 0-.22-.33.71.71 0 0 0 0-.24c0-.14-.18-.29-.28-.37s-.34-.08-.46-.15-.13-.6-.13-.6a3.85 3.85 0 0 0-.08-1c-.12-.56-.51-.52-.58-.53s-.4 0-.44.65a2.94 2.94 0 0 1-.64 1.44 2.29 2.29 0 0 1-1.2.61c-.3 0-.25-.1-.46-.18a1.75 1.75 0 0 1-.48-.35h-.97l-.72-.05A3.82 3.82 0 0 0 9 29.58a5.19 5.19 0 0 0-.3 2.87 2.66 2.66 0 0 0 .45.95z" fill="#512620"/><path d="M10.12 28.24a4.23 4.23 0 0 1 .52-.12 8.25 8.25 0 0 1 .73.52h-.61l-.21-.23-.5.23-.47-.07.17-.09zM10.36 34.26l.4.28v-.5a2 2 0 0 1 .08-.47v-.75c0-.16.11-.16.11-.16l.05-.09a1.54 1.54 0 0 0-.42.07c-.17.06-.32.4-.32.4l.05.49z" fill="#512620"/><circle cx="12.46" cy="12.13" r=".16" fill="#fff"/><ellipse cx="19.07" cy="12.1" rx=".2" ry=".19" fill="#fff"/></g></svg>