<svg xmlns="http://www.w3.org/2000/svg" width="180.52" height="50" viewBox="0 0 180.52 50"><path fill="none" d="M0 0h180.52v50H0z"/><path d="M36.74 15.25a3.81 3.81 0 0 1-.61 2.13 4 4 0 0 1-1.74 1.44 6.31 6.31 0 0 1-2.62.51h-1.08v3.77h-3.53V11.38H32a5.69 5.69 0 0 1 3.63.94 3.56 3.56 0 0 1 1.11 2.93zm-3.74.12a1.37 1.37 0 0 0-.42-1.09 1.8 1.8 0 0 0-1.23-.37h-.67v2.89h.79q1.53.01 1.53-1.43zM46.16 23.11v-4.92-1.95q-.16.28-.38.6t-4.56 6.27h-3.1V11.38h3.27v6.5l.09-.16.65-1 4-5.38h3.34v11.77zM59.09 23.11L58.58 21h-3.5l-.56 2.16H50.7l4-11.73h4.38l3.8 11.73zm-2.22-9.17h-.08a5.69 5.69 0 0 1-.11.65q-.1.45-1 3.86h2.24l-.82-3.19a10 10 0 0 1-.23-1.32zM34.75 38.21v-4.37h-4.06v4.37h-3.53V26.49h3.53v4.34h4.06v-4.34h3.53v11.72zM40.61 38.21V26.49h7.3v2.76h-3.77V31h3.54v2.76h-3.54v1.73h4v2.76zM58.61 41.5v-3.29h-6.68v3.29h-3.11v-6.1H50a19.52 19.52 0 0 0 2.32-8.91H60v8.91h1.82v6.1zm-2.17-12.14h-1.31a18.44 18.44 0 0 1-1.61 6h2.93zM73.37 34.62a3.17 3.17 0 0 1-1.21 2.66 5.55 5.55 0 0 1-3.46.94h-5.35V26.49h5q4.67 0 4.67 2.84a2.21 2.21 0 0 1-.29 1.12 2.65 2.65 0 0 1-.9.9 3.74 3.74 0 0 1-1.32.52 3.72 3.72 0 0 1 1.5.49 2.92 2.92 0 0 1 1 1 2.34 2.34 0 0 1 .36 1.26zm-4.12-4.68q0-1.09-1.71-1.09h-.65v2.22h1a1.45 1.45 0 0 0 1-.31 1 1 0 0 0 .36-.82zm.37 4.66a1.07 1.07 0 0 0-.37-.83 1.41 1.41 0 0 0-1-.33h-1.37v2.4h1.18a1.78 1.78 0 0 0 1.14-.33 1.09 1.09 0 0 0 .41-.91zM82.94 38.21v-4.92-1.95q-.16.28-.38.6T78 38.21h-3.1V26.49h3.27v6.5l.09-.16.65-1 4-5.38h3.34v11.76zM100.39 38.21l-2.63-4.89a4.1 4.1 0 0 1-.29-.67v5.56h-3.4v-5.56a3.13 3.13 0 0 1-.29.67l-2.62 4.89H87l3.77-6.13-3.45-5.59h4l2.56 5.09.14.34v-5.43h3.37v5.43l.15-.34 2.55-5.09h4l-3.45 5.59 3.77 6.13zM113.32 38.21v-4.92-1.95q-.16.28-.38.6t-4.56 6.27h-3.1V26.49h3.27v6.5l.09-.16.65-1 4-5.38h3.34v11.76zM129.63 38.21v-6.42q0-.91.06-2v-.54h-.1q-.26 1.38-.4 1.91l-1.73 7h-3.32l-1.81-7q-.07-.26-.38-2h-.1q.15 2.84.15 3.53v5.53h-3.1V26.49h5.29l1.61 6.37a7.93 7.93 0 0 1 .15.8q.09.6.12.93.09-.74.29-1.76l1.5-6.34h5.21v11.72zM146.57 32.32a6.49 6.49 0 0 1-.76 3.16 5.42 5.42 0 0 1-2.13 2.17 6.42 6.42 0 0 1-6.06 0 5.29 5.29 0 0 1-2.11-2.1 6.19 6.19 0 0 1-.75-3.06 6.76 6.76 0 0 1 .76-3.22 5.4 5.4 0 0 1 2.13-2.21 6.21 6.21 0 0 1 3.12-.78 6 6 0 0 1 3 .75 5.1 5.1 0 0 1 2.05 2.13 6.69 6.69 0 0 1 .75 3.16zm-3.75.1a4.07 4.07 0 0 0-.56-2.28 1.74 1.74 0 0 0-1.52-.83 1.92 1.92 0 0 0-1.64.8 3.77 3.77 0 0 0-.59 2.26 3.73 3.73 0 0 0 .58 2.23 1.86 1.86 0 0 0 1.59.8 1.82 1.82 0 0 0 1.1-.36 2.3 2.3 0 0 0 .76-1 4.26 4.26 0 0 0 .29-1.62zM157 37.89a9.91 9.91 0 0 1-3.36.52 6.84 6.84 0 0 1-3.23-.72 4.9 4.9 0 0 1-2.07-2 6.29 6.29 0 0 1-.72-3 6.7 6.7 0 0 1 .8-3.3 5.54 5.54 0 0 1 2.27-2.24 7 7 0 0 1 3.37-.79 11.71 11.71 0 0 1 2.94.37v3.26a4.16 4.16 0 0 0-1.17-.46 5.85 5.85 0 0 0-1.37-.16 3.07 3.07 0 0 0-2.27.83 3 3 0 0 0-.83 2.24 3 3 0 0 0 .83 2.22 3 3 0 0 0 2.22.81 5.76 5.76 0 0 0 2.59-.65zM164.71 29.25v9h-3.55v-9h-3.28v-2.76H168v2.76zM179 34a3.88 3.88 0 0 1-1.24 3.07 5.17 5.17 0 0 1-3.53 1.1h-4.81V26.49H173v3.94h1.48a7.33 7.33 0 0 1 2.6.39 2.93 2.93 0 0 1 1.45 1.18 3.86 3.86 0 0 1 .47 2zm-3.74.27a1.3 1.3 0 0 0-.38-1 1.71 1.71 0 0 0-1.16-.34H173v2.73h.69a1.85 1.85 0 0 0 1.23-.34 1.3 1.3 0 0 0 .36-1.01zM18.66 38.25H7.83l2.63-3.28h10.83l-2.63 3.28zM10.6 22.33L4.99 38.26l-3.48-.01 6.18-17.51 2.91 1.59z" fill="#d2b093"/><path fill="#d2b093" d="M13.35 22.33l4.48 12.7 3.46-.06-5.06-14.36-2.88 1.72z"/><path d="M10.6 22.33S7.79 18.77 7.79 16a4 4 0 0 1 4.08-4.23A3.94 3.94 0 0 1 15.94 16c0 2.77-2.58 6.3-2.58 6.3l3.31-.3a9.9 9.9 0 0 0 2-6c0-3.69-2.63-7.53-6.83-7.53S5.08 12.22 5.1 16a9.23 9.23 0 0 0 2.28 6.06z" fill="#d2b093"/></svg>