<svg xmlns="http://www.w3.org/2000/svg" width="113.62" height="50" viewBox="0 0 113.62 50"><title>россия</title><g id="Слой_2" data-name="Слой 2"><g id="Слой_1-2" data-name="Слой 1"><rect width="113.62" height="50" fill="none"/><path d="M86.81,13V37H112V13Zm15.62,21.44h-4.2V23.8l4.2-2Zm0-13.55L94,25.09V20.19L102.43,16Z" fill="#d2b093"/><path d="M70,22.6a1.23,1.23,0,0,0,1.2,1.2h2.4V21.4h-2.4A1.22,1.22,0,0,0,70,22.6Z" fill="#d2b093"/><path d="M14.4,21.4H11.81v2.4H14.4a1.2,1.2,0,0,0,0-2.4Z" fill="#d2b093"/><path d="M25,20.8c-2.4,0-2.4,3-2.4,3h0v2.4h0s0,3,2.39,3,2.41-3,2.41-3V23.8S27.4,20.8,25,20.8Z" fill="#d2b093"/><path d="M1.61,13V37H84.42V13ZM14.4,26.8H11.81v4.8h-3V18.4H14.4s4.2.1,4.2,4.2C18.6,26.2,14.4,26.8,14.4,26.8Zm16-.59v.05h0c0,.66-.34,5.91-5.4,5.91-5.28,0-5.39-5.71-5.39-6h0V23.73h0c0-.69.35-5.94,5.4-5.94S30.38,23,30.4,23.73h0V26.2h0Zm6.61,3a8.21,8.21,0,0,0,3.6-.6l.6,3s-.89.6-4.15.6a5,5,0,0,1-4.85-4.81V22.59h0a5,5,0,0,1,4.85-4.79c3.25,0,4.15.61,4.15.61l-.6,3a8.34,8.34,0,0,0-3.6-.6,1.76,1.76,0,0,0-1.8,1.8v4.79A1.77,1.77,0,0,0,37,29.2Zm11.4,0a8.21,8.21,0,0,0,3.6-.6l.6,3s-.89.6-4.15.6a5,5,0,0,1-4.85-4.81V22.58h0a5,5,0,0,1,4.85-4.79c3.25,0,4.15.61,4.15.61l-.6,3a8.34,8.34,0,0,0-3.6-.6,1.76,1.76,0,0,0-1.8,1.8v4.79A1.77,1.77,0,0,0,48.42,29.2Zm16.8,2.4h-3v-7L58,30.78v.82H55V18.4h3v7.22l4.2-6.23v-1h3Zm11.4,0h-3V26.8h-.48L69.9,31.6H66.42l3.49-5.17A4.09,4.09,0,0,1,67,22.6c0-4.1,4.2-4.2,4.2-4.2h5.4Z" fill="#d2b093"/></g></g></svg>