<svg xmlns="http://www.w3.org/2000/svg" width="113.62" height="50" viewBox="0 0 113.62 50"><g data-name="Слой 1"><path fill="none" d="M0 0h113.62v50H0z"/><path d="M86.81 13v24H112V13zm15.62 21.44h-4.2V23.8l4.2-2zm0-13.55L94 25.09v-4.9l8.43-4.19zM70 22.6a1.23 1.23 0 0 0 1.2 1.2h2.4v-2.4h-2.4a1.22 1.22 0 0 0-1.2 1.2zM14.4 21.4h-2.59v2.4h2.59a1.2 1.2 0 0 0 0-2.4zM25 20.8c-2.4 0-2.4 3-2.4 3v2.4s0 3 2.39 3 2.41-3 2.41-3v-2.4s0-3-2.4-3z" fill="#d2b093"/><path d="M1.61 13v24h82.81V13zM14.4 26.8h-2.59v4.8h-3V18.4h5.59s4.2.1 4.2 4.2c0 3.6-4.2 4.2-4.2 4.2zm16-.59v.05c0 .66-.34 5.91-5.4 5.91-5.28 0-5.39-5.71-5.39-6v-2.44c0-.69.35-5.94 5.4-5.94s5.37 5.21 5.39 5.94v2.47zm6.61 3a8.21 8.21 0 0 0 3.6-.6l.6 3s-.89.6-4.15.6a5 5 0 0 1-4.85-4.81v-4.81a5 5 0 0 1 4.85-4.79c3.25 0 4.15.61 4.15.61l-.6 3a8.34 8.34 0 0 0-3.6-.6 1.76 1.76 0 0 0-1.8 1.8v4.79A1.77 1.77 0 0 0 37 29.2zm11.4 0a8.21 8.21 0 0 0 3.6-.6l.6 3s-.89.6-4.15.6a5 5 0 0 1-4.85-4.81v-4.82a5 5 0 0 1 4.85-4.79c3.25 0 4.15.61 4.15.61l-.6 3a8.34 8.34 0 0 0-3.6-.6 1.76 1.76 0 0 0-1.8 1.8v4.79a1.77 1.77 0 0 0 1.81 1.81zm16.8 2.4h-3v-7L58 30.78v.82h-3V18.4h3v7.22l4.2-6.23v-1h3zm11.4 0h-3V26.8h-.48l-3.23 4.8h-3.48l3.49-5.17A4.09 4.09 0 0 1 67 22.6c0-4.1 4.2-4.2 4.2-4.2h5.4z" fill="#d2b093"/></g></svg>