<svg xmlns="http://www.w3.org/2000/svg" width="70" height="70" viewBox="0 0 70 70"><g fill="none"><path d="M0 0h70v70H0z"/><path d="M35 5.65a35.37 35.37 0 0 1-21.66 8.16V32C13.34 51.73 35 64.35 35 64.35S56.66 51.73 56.66 32V13.77A35.29 35.29 0 0 1 35 5.65z" stroke="#f0592b" stroke-miterlimit="10" stroke-width="1.5"/><path d="M35 13.45a26 26 0 0 1-15.9 6v13.36C19.1 47.29 35 56.55 35 56.55s15.9-9.26 15.9-23.74v-13.4A25.94 25.94 0 0 1 35 13.45z" stroke="#f0592b" stroke-miterlimit="10"/><path stroke="#f0592b" stroke-linecap="round" stroke-miterlimit="10" stroke-width="2" d="M27.26 35.05l6.75 6.33 10.87-15.81"/></g></svg>