<svg xmlns="http://www.w3.org/2000/svg" width="80" height="80" viewBox="0 0 70 70"><g fill="none"><path d="M0 0h70v70H0z"/><path d="M47.88 56.4a13.13 13.13 0 0 0-10.34-12.83v-3.25a6.53 6.53 0 0 0 3.73-5.94v-3.26a6.51 6.51 0 0 0-13 0v3.26a6.56 6.56 0 0 0 3.64 5.84v3.35A13.15 13.15 0 0 0 21.74 56.4z" stroke="#ff5722" stroke-linejoin="round" stroke-width="1.5"/><path d="M41.37 29.21A8.49 8.49 0 0 1 44.43 28v-2.53a4.93 4.93 0 0 1-2.77-4.4v-2.49a5 5 0 1 1 10 0v2.49a4.73 4.73 0 0 1-2.88 4.4V28a9.79 9.79 0 0 1 7.76 9.67h-16M28.54 29.21A9.34 9.34 0 0 0 25.47 28v-2.53a5 5 0 0 0 2.87-4.4v-2.49a5 5 0 0 0-10 0v2.49a5 5 0 0 0 2.78 4.4V28a9.8 9.8 0 0 0-7.66 9.67h15" stroke="#ff5722" stroke-linejoin="round" stroke-width="1.5"/></g></svg>