<svg xmlns="http://www.w3.org/2000/svg" width="60" height="60" viewBox="0 0 60 60"><g data-name="Слой 1"><path d="M8.57 28.83c-.76 0-1.38-1.68-1.38-3.76s.62-3.76 1.38-3.76" fill="#f5e6d2" stroke="#5d3329" stroke-linecap="round" stroke-linejoin="round" stroke-width=".6" fill-rule="evenodd"/><path d="M34.52 57a1 1 0 0 1-1 1H6.91a1 1 0 0 1-1-1v-1.65a1 1 0 0 1 1-1h26.63a1 1 0 0 1 1 1z" fill="#d9d5cb" stroke="#5d3329" stroke-miterlimit="10" stroke-width=".6"/><path d="M9 54.19a2.61 2.61 0 0 1 2.29-2.85h18a2.61 2.61 0 0 1 2.28 2.85" fill="#f5f1eb" stroke="#5d3329" stroke-miterlimit="10" stroke-width="1.2"/><path d="M18.72 20V3a1.5 1.5 0 0 1 1.5-1.5 1.5 1.5 0 0 1 1.5 1.5v17M18.72 43.03V30.09h3v12.94" fill="#dad6cc" stroke="#5d3329" stroke-miterlimit="10" stroke-width=".6"/><path d="M17.65 51.36v-6.75A2.58 2.58 0 0 1 20.22 42a2.58 2.58 0 0 1 2.58 2.58v6.75" fill="#f5f1eb" stroke="#5d3329" stroke-linecap="round" stroke-miterlimit="10" stroke-width="1.2"/><path d="M8.52 28.55s2.9-.48 3.71.06a10 10 0 0 0 4.93 1.48h4.51a1 1 0 0 0 1-1v-.23a1 1 0 0 0-1-1h1a1.18 1.18 0 0 0 1.18-1.18v-.26a1.18 1.18 0 0 0-1.18-1.18h.21A1.18 1.18 0 0 0 24 24v-.26a1.18 1.18 0 0 0-1.18-1.18h-.73a1.25 1.25 0 0 0 1.31-1.18v-.26A1.25 1.25 0 0 0 22.14 20l-4-.16v-2.3a1.49 1.49 0 0 0-1.79.24l-4.26 3.94-3.56-.06" fill="#f5e6d2" stroke="#5d3329" stroke-linecap="round" stroke-linejoin="round" stroke-width="1.2" fill-rule="evenodd"/><circle cx="38.22" cy="36.56" r="1.01" fill="#5d3329"/><path d="M24.73 36.55a13.49 13.49 0 1 1 13.49 13.5 13.49 13.49 0 0 1-13.49-13.5z" fill="#d57c30" stroke="#5d3329" stroke-linecap="round" stroke-miterlimit="10" stroke-width="1.2"/><path d="M27 36.55a11.18 11.18 0 1 1 11.22 11.19A11.17 11.17 0 0 1 27 36.55z" fill="#f4efe9" stroke="#5d3329" stroke-linecap="round" stroke-linejoin="round" stroke-width=".6"/><path fill="none" stroke="#5d3329" stroke-linecap="round" stroke-miterlimit="10" stroke-width="1.2" d="M38.22 36.56v-9.1M37.97 36.56l-4.84-2.79"/><circle cx="30.53" cy="36.56" r=".49" fill="#5d3329"/><circle cx="45.91" cy="36.56" r=".49" fill="#5d3329"/><circle cx="38.22" cy="28.87" r=".49" fill="#5d3329"/><circle cx="38.22" cy="44.25" r=".49" fill="#5d3329"/><circle cx="31.55" cy="40.4" r=".49" transform="rotate(-29.9 31.56 40.404)" fill="#5d3329"/><circle cx="44.88" cy="32.72" r=".49" transform="rotate(-29.94 44.888 32.72)" fill="#5d3329"/><circle cx="34.38" cy="29.9" r=".49" transform="rotate(-29.95 34.39 29.89)" fill="#5d3329"/><circle cx="42.05" cy="43.23" r=".49" transform="rotate(-29.92 42.044 43.211)" fill="#5d3329"/><circle cx="34.37" cy="43.22" r=".49" transform="rotate(-60 34.376 43.218)" fill="#5d3329"/><circle cx="42.06" cy="29.9" r=".49" transform="rotate(-60.01 42.066 29.903)" fill="#5d3329"/><circle cx="31.56" cy="32.71" r=".49" transform="rotate(-60.02 31.555 32.714)" fill="#5d3329"/><circle cx="44.88" cy="40.41" r=".49" transform="rotate(-60 44.881 40.404)" fill="#5d3329"/><path fill="none" d="M0 0h60v60H0z"/></g></svg>