<svg xmlns="http://www.w3.org/2000/svg" width="30" height="30" viewBox="0 0 30 30"><g data-name="Слой 2"><g data-name="Слой 1"><path fill="none" d="M0 0h30v30H0z"/><circle cx="15" cy="15" r="11.32" fill="#fd8204" stroke="#692f17" stroke-miterlimit="10" stroke-width=".8"/><path d="M14.79 14.58a5.68 5.68 0 0 0-.32-1.58 5.81 5.81 0 0 1-.39-1.55 1.3 1.3 0 0 1 .28-.9.9.9 0 0 1 .69-.31.79.79 0 0 1 .62.31 1.32 1.32 0 0 1 .26.88 5 5 0 0 1-.3 1.44 7.62 7.62 0 0 0-.37 1.7 5.28 5.28 0 0 0 1.13-1 5.75 5.75 0 0 1 1.16-1.12 1.52 1.52 0 0 1 .77-.22.86.86 0 0 1 .64.26.84.84 0 0 1 .26.61 1 1 0 0 1-.38.76 5 5 0 0 1-1.89.66 8.24 8.24 0 0 0-1.47.45 5.25 5.25 0 0 0 1.45.47 4.11 4.11 0 0 1 1.81.63 1.09 1.09 0 0 1 .43.82.81.81 0 0 1-.26.6.83.83 0 0 1-.6.25 1.55 1.55 0 0 1-.76-.24 5.12 5.12 0 0 1-1.13-1.08 6.07 6.07 0 0 0-1.17-1.05 5.41 5.41 0 0 0 .26 1.42 7.83 7.83 0 0 1 .41 1.84 1.13 1.13 0 0 1-.27.77.78.78 0 0 1-.58.31 1.08 1.08 0 0 1-.77-.33 1 1 0 0 1-.24-.77 4.22 4.22 0 0 1 .26-1.32q.26-.77.33-1.06a7.19 7.19 0 0 0 .13-.86 6.31 6.31 0 0 0-1.18 1 6.64 6.64 0 0 1-1.26 1.19 1.16 1.16 0 0 1-.62.18.92.92 0 0 1-.66-.26.79.79 0 0 1-.27-.58 1 1 0 0 1 .23-.6 1.71 1.71 0 0 1 .7-.52 8.91 8.91 0 0 1 1.41-.37 7.47 7.47 0 0 0 1.4-.41 5.89 5.89 0 0 0-1.53-.48 5.82 5.82 0 0 1-1.69-.52 1.11 1.11 0 0 1-.52-.92.79.79 0 0 1 .26-.57.82.82 0 0 1 .6-.26 1.63 1.63 0 0 1 .8.24 4.57 4.57 0 0 1 1.05 1 5.62 5.62 0 0 0 1.29 1.09z" fill="#f5f4f0"/></g></g></svg>