<svg xmlns="http://www.w3.org/2000/svg" viewBox="0 0 25 25"><title>Корзина_1</title><g data-name="Слой 2"><g data-name="Слой 1"><path fill="none" d="M0 0h25v25H0z"/><path d="M21.55 11.93L7.68 13.56 6 7h15.51a1 1 0 0 1 1 1v3a1 1 0 0 1-.96.93z" fill="none" stroke="#fff" stroke-linejoin="round" stroke-width="1.5"/><path fill="none" stroke="#fff" stroke-miterlimit="10" stroke-width="1.5" d="M10.46 7.02l.78 6.12M14.65 7.02l.39 5.67M18.6 6.97v5.3"/><ellipse cx="10.52" cy="18.95" rx="1.77" ry="1.7" fill="#fff"/><ellipse cx="19.53" cy="18.95" rx="1.77" ry="1.7" fill="#fff"/><path d="M2.5 5.11h2S5.53 5.08 6 7s1.79 7.54 1.79 7.54.16.9.94.9h12.9" fill="none" stroke="#fff" stroke-linecap="round" stroke-miterlimit="10" stroke-width="1.5"/></g></g></svg>