<svg xmlns="http://www.w3.org/2000/svg" width="60" height="60" viewBox="0 0 60 60"><path d="M38.1 51v1.27a1 1 0 0 0 1 1h2.06a1 1 0 0 0 1-1V51" fill="#fff" stroke="#263239" stroke-linejoin="round" stroke-width=".5"/><path d="M17.53 51v1.27a1 1 0 0 0 1 1h2.06a1 1 0 0 0 1-1V51" fill="#fff" stroke="#263239" stroke-linejoin="round" stroke-width=".6"/><path d="M44.14 48.81a2.72 2.72 0 0 1-2.91 2.46H18.9a2.71 2.71 0 0 1-2.9-2.46V9.23a2.71 2.71 0 0 1 2.9-2.46h22.33a2.71 2.71 0 0 1 2.91 2.46z" fill="#fff" stroke="#263239" stroke-linecap="round" stroke-linejoin="round"/><circle cx="31.87" cy="34.4" r=".68" fill="#ff5a19"/><circle cx="28.27" cy="34.4" r=".68" fill="#ff5a19"/><path fill="none" stroke="#263239" stroke-linejoin="round" stroke-width=".6" d="M15.86 31.25h27.81M30.07 31.32v19.83"/><path d="M18.45 8.16h23.28a1 1 0 0 1 1 1v22H17.45v-22a1 1 0 0 1 1-1z" fill="#fff" stroke="#263239" stroke-linecap="round" stroke-linejoin="round" stroke-width=".5"/><path d="M18.45 8.16h23.28a1 1 0 0 1 1 1v22H17.45v-22a1 1 0 0 1 1-1z" fill="#fff" stroke="#263239" stroke-linecap="round" stroke-linejoin="round" stroke-width=".5"/><path fill="none" stroke="#263239" stroke-linecap="round" stroke-linejoin="round" stroke-width=".5" d="M17.65 15.88h24.91M17.65 23.54h24.91"/></svg>