<svg xmlns="http://www.w3.org/2000/svg" width="105" height="105" viewBox="0 0 105 105"><title>окно-занавески</title><g data-name="Слой 2"><g data-name="Слой 1"><path fill="none" d="M0 0h105v105H0z"/><path fill="#f5f3ef" stroke="#782b0e" stroke-linejoin="round" stroke-width="2" d="M28.12 22.27h48.57V79.7H28.12z"/><path fill="#f5f3ef" stroke="#782b0e" stroke-linejoin="round" stroke-width="2" d="M28.14 78.65h48.53v4.04H28.14z"/><path fill="#d9dfe0" stroke="#782b0e" stroke-linejoin="round" d="M34 28.6h36.82v44.58H34z"/><path fill="#dad6cc" d="M13.62 71.89L13 94.98l18.26-.34-6.01-16.39-11.63-6.36z"/><path d="M49.3 14.83a6 6 0 1 1-12 0M37.34 14.83a6 6 0 1 1-11.95 0M25.39 14.83a6 6 0 1 1-11.95 0" fill="none" stroke="#782b0e" stroke-linejoin="round" stroke-width="1.06"/><path d="M31.39 95.83c0-12.36-6.94-22.4-15.62-22.86" fill="#dad6cc" stroke="#782b0e" stroke-linejoin="round" stroke-width="2"/><path d="M14.91 72.93h.86" fill="#f5f3ef" stroke="#782b0e" stroke-linejoin="round" stroke-width="1.9"/><path d="M14.06 73.4c5.26 2.46 8.42 11.06 8.42 21.86" fill="none" stroke="#782b0e" stroke-linejoin="round"/><path d="M32.26 95.83" fill="#f5f3ef" stroke="#782b0e" stroke-linejoin="round" stroke-width="2"/><path d="M12.52 95.83c2.44 0 2.54-1.82 5-1.82s2.4 1.82 4.94 1.82 2.43-1.85 5-1.85 2.38 1.84 4.81 1.85" fill="none" stroke="#782b0e" stroke-linejoin="round" stroke-width="2"/><path d="M32.26 95.83" fill="#f5f3ef" stroke="#782b0e" stroke-linejoin="round" stroke-width="2"/><path d="M13.45 95.83V72.59zM49.5 14.84h-.58a5.7 5.7 0 0 1-11.36 0h-.62a5.7 5.7 0 0 1-11.36 0h-.42a5.7 5.7 0 0 1-11.36 0h-.35v57.75C34.49 66.06 49.5 42.83 49.5 14.84z" fill="#dad6cc" stroke="#782b0e" stroke-linejoin="round" stroke-width="2"/><path d="M13.17 72.69c14.11-6.41 24-29.73 24-57.85M13.33 72.93C20.26 66.52 25.4 43 25.4 14.84" fill="none" stroke="#782b0e" stroke-linejoin="round"/><path fill="#dad6cc" d="M91.11 71.89l.63 23.09-18.27-.34 6.01-16.39 11.63-6.36z"/><path d="M55.44 14.83a6 6 0 1 0 12 0M67.39 14.83a6 6 0 1 0 11.95 0M79.34 14.83a6 6 0 1 0 11.95 0" fill="none" stroke="#782b0e" stroke-linejoin="round" stroke-width="1.06"/><path d="M73.35 95.83c0-12.35 6.94-22.4 15.65-22.83" fill="#dad6cc" stroke="#782b0e" stroke-linejoin="round" stroke-width="2"/><path d="M89.83 72.93h-.86" fill="#f5f3ef" stroke="#782b0e" stroke-linejoin="round" stroke-width="1.9"/><path d="M90.67 73.4c-5.26 2.46-8.42 11.06-8.42 21.86" fill="none" stroke="#782b0e" stroke-linejoin="round"/><path d="M72.48 95.83" fill="#f5f3ef" stroke="#782b0e" stroke-linejoin="round" stroke-width="2"/><path d="M92.22 95.83c-2.44 0-2.54-1.82-5-1.82s-2.4 1.82-4.94 1.82S79.84 94 77.29 94s-2.38 1.84-4.81 1.85" fill="none" stroke="#782b0e" stroke-linejoin="round" stroke-width="2"/><path d="M72.48 95.83" fill="#f5f3ef" stroke="#782b0e" stroke-linejoin="round" stroke-width="2"/><path d="M91.29 95.83V72.59zM55.24 14.84h.58a5.7 5.7 0 0 0 11.36 0h.62a5.7 5.7 0 0 0 11.36 0h.42a5.7 5.7 0 0 0 11.36 0h.35v57.75c-21.05-6.53-36.05-29.76-36.05-57.75z" fill="#dad6cc" stroke="#782b0e" stroke-linejoin="round" stroke-width="2"/><path d="M91.57 72.69c-14.11-6.41-24-29.73-24-57.85M91.41 72.93c-6.93-6.41-12.07-30-12.07-58.09" fill="none" stroke="#782b0e" stroke-linejoin="round"/><path fill="#ff8200" stroke="#782b0e" stroke-linejoin="round" stroke-width="2" d="M7.94 9.17h89.11v5.57H7.94z"/></g></g></svg>