<svg xmlns="http://www.w3.org/2000/svg" width="48" height="48" viewBox="0 0 48 48"><title>окно-тюль_1</title><g id="Слой_2" data-name="Слой 2"><g id="Слой_1-2" data-name="Слой 1"><rect width="48" height="48" fill="none"/><rect x="11.61" y="8.64" width="24.67" height="29.17" fill="#f3f2ee" stroke="#692f17" stroke-linejoin="round"/><rect x="11.63" y="37.29" width="24.65" height="2.05" fill="#f3f2ee" stroke="#692f17" stroke-linejoin="round"/><rect x="14.6" y="11.86" width="18.7" height="22.65" fill="#d9ddde" stroke="#692f17" stroke-linejoin="round" stroke-width="0.5"/><polygon points="4.25 33.85 3.94 45.58 13.21 45.41 10.16 37.08 4.25 33.85" fill="#d7d4ca"/><path d="M22.37,4.87a3,3,0,1,1-6.07,0" fill="none" stroke="#692f17" stroke-linejoin="round" stroke-width="0.93"/><path d="M16.3,4.87a3,3,0,1,1-6.07,0" fill="none" stroke="#692f17" stroke-linejoin="round" stroke-width="0.93"/><path d="M10.23,4.87a3,3,0,1,1-6.07,0" fill="none" stroke="#692f17" stroke-linejoin="round" stroke-width="0.93"/><path d="M5.34,34.4" fill="#f3f2ee" stroke="#692f17" stroke-linejoin="round" stroke-width="1.68"/><path d="M13.28,46c0-6.28-3.53-11.38-7.93-11.61" fill="#d7d4ca" stroke="#692f17" stroke-linejoin="round"/><path d="M4.9,34.38l.44,0" fill="#f3f2ee" stroke="#692f17" stroke-linejoin="round" stroke-width="1.68"/><path d="M4.48,34.62c2.67,1.25,4.28,5.62,4.28,11.1" fill="none" stroke="#692f17" stroke-linejoin="round" stroke-width="0.5"/><path d="M13.72,46h0" fill="#f3f2ee" stroke="#692f17" stroke-linejoin="round"/><path d="M3.69,46c1.24,0,1.29-.93,2.54-.93S7.45,46,8.74,46s1.23-.94,2.53-.94,1.21.94,2.44.94" fill="#f3f2ee" stroke="#692f17" stroke-linejoin="round"/><path d="M13.72,46h0" fill="#f3f2ee" stroke="#692f17" stroke-linejoin="round"/><path d="M4.16,46V34.2h0Z" fill="#d7d4ca" stroke="#692f17" stroke-linejoin="round"/><path d="M22.48,4.87h-.29a2.89,2.89,0,0,1-5.77,0H16.1a2.9,2.9,0,0,1-5.77,0h-.21a2.9,2.9,0,0,1-5.77,0H4.16V34.2C14.85,30.89,22.47,19.09,22.48,4.87Z" fill="#d7d4ca" stroke="#692f17" stroke-linejoin="round"/><path d="M4,34.25C11.19,31,16.2,19.15,16.2,4.87" fill="none" stroke="#692f17" stroke-linejoin="round" stroke-width="0.5"/><path d="M4.1,34.38c3.52-3.25,6.13-15.23,6.13-29.51" fill="none" stroke="#692f17" stroke-linejoin="round" stroke-width="0.5"/><polygon points="43.61 33.85 43.93 45.58 34.65 45.41 37.71 37.08 43.61 33.85" fill="#d7d4ca"/><path d="M25.49,4.87a3,3,0,1,0,6.07,0" fill="none" stroke="#692f17" stroke-linejoin="round" stroke-width="0.93"/><path d="M31.57,4.87a3,3,0,1,0,6.07,0" fill="none" stroke="#692f17" stroke-linejoin="round" stroke-width="0.93"/><path d="M37.64,4.87a3,3,0,1,0,6.07,0" fill="none" stroke="#692f17" stroke-linejoin="round" stroke-width="0.93"/><path d="M42.52,34.4" fill="#f3f2ee" stroke="#692f17" stroke-linejoin="round" stroke-width="1.68"/><path d="M34.59,46c0-6.28,3.53-11.38,7.93-11.61" fill="#d7d4ca" stroke="#692f17" stroke-linejoin="round"/><path d="M43,34.38l-.44,0" fill="#f3f2ee" stroke="#692f17" stroke-linejoin="round" stroke-width="1.68"/><path d="M43.39,34.62c-2.67,1.25-4.28,5.62-4.28,11.1" fill="none" stroke="#692f17" stroke-linejoin="round" stroke-width="0.5"/><path d="M34.15,46h0" fill="#f3f2ee" stroke="#692f17" stroke-linejoin="round"/><path d="M44.17,46c-1.24,0-1.29-.93-2.54-.93s-1.22.93-2.51.93-1.23-.94-2.53-.94-1.21.94-2.44.94" fill="#d7d4ca" stroke="#692f17" stroke-linejoin="round"/><path d="M34.15,46h0" fill="#f3f2ee" stroke="#692f17" stroke-linejoin="round"/><path d="M43.7,46V34.2h0Z" fill="#d7d4ca" stroke="#692f17" stroke-linejoin="round"/><path d="M25.39,4.87h.29a2.89,2.89,0,0,0,5.77,0h.31a2.9,2.9,0,0,0,5.77,0h.21a2.9,2.9,0,0,0,5.77,0h.18V34.2C33,30.89,25.39,19.09,25.39,4.87Z" fill="#d7d4ca" stroke="#692f17" stroke-linejoin="round"/><path d="M43.84,34.25C36.68,31,31.67,19.15,31.67,4.87" fill="none" stroke="#692f17" stroke-linejoin="round" stroke-width="0.5"/><path d="M43.76,34.38c-3.52-3.25-6.13-15.23-6.13-29.51" fill="none" stroke="#692f17" stroke-linejoin="round" stroke-width="0.5"/><rect x="1.37" y="1.99" width="45.27" height="2.83" fill="#e3801e" stroke="#692f17" stroke-linejoin="round"/></g></g></svg>