<svg xmlns="http://www.w3.org/2000/svg" width="48" height="48" viewBox="0 0 48 48"><title>инвентарь_1</title><g id="Слой_2" data-name="Слой 2"><g id="Слой_1-2" data-name="Слой 1"><rect width="48" height="48" fill="none"/><path d="M28.17,38.92V18.82s-11.23-2.16-17,6.7c-5.41,8.35,1.91,21.26,1.91,21.26h12" fill="#dbdfe0" stroke="#692f17" stroke-linejoin="round" fill-rule="evenodd"/><ellipse cx="25.58" cy="42.35" rx="4.49" ry="4.43" fill="#d9d6cc" stroke="#692f17" stroke-miterlimit="10"/><ellipse cx="25.58" cy="42.35" rx="2.58" ry="2.54" fill="#d9d6cc" stroke="#692f17" stroke-linejoin="round" stroke-width="0.5"/><path d="M19,19.52a11.84,11.84,0,0,1,3.21,8.12,12,12,0,0,1-12.11,12" fill="none" stroke="#692f17" stroke-linejoin="round" stroke-width="0.5" fill-rule="evenodd"/><path d="M43.52,41.66H41L35.64,8.54c-.64-3-2.18-4.8-4.86-4.8a4.84,4.84,0,0,0-4.86,4.8v7.87H23.38V8.54a7.37,7.37,0,0,1,7.4-7.32c4.08,0,6.61,3,7.41,7.32Z" fill="#d9d6cc" stroke="#692f17" stroke-linecap="round" stroke-linejoin="round"/><path d="M22.24,18.59h0a2.2,2.2,0,0,1,2.21-2.18h.75a2.2,2.2,0,0,1,2.21,2.18h0" fill="#d9d6cc" stroke="#692f17" stroke-linejoin="round"/><polygon points="39.43 34.69 40.58 41.74 43.77 41.78 42.59 34.69 39.43 34.69" fill="#d9d6cc" stroke="#692f17" stroke-linejoin="round"/><polygon points="46.64 46.41 37.58 46.41 38.71 40.46 45.51 40.46 46.64 46.41" fill="#d9d6cc" stroke="#692f17" stroke-linecap="round" stroke-linejoin="round"/><path d="M2.41,36c.23-3.09,2.38-5.51,5-5.51s4.76,2.42,5,5.51a.81.81,0,0,1,0,.19V46.44a.82.82,0,0,1-.82.82H3.21a.82.82,0,0,1-.82-.82V36.23A.85.85,0,0,1,2.41,36Z" fill="#d9d6cc" stroke="#692f17" stroke-miterlimit="10" stroke-width="0.8"/><path d="M5.81,28.82H9a.3.3,0,0,1,.3.3v1.49H5.52V29.12A.3.3,0,0,1,5.81,28.82Z" fill="#ddd9cf" stroke="#692f17" stroke-miterlimit="10" stroke-width="0.8"/><path d="M8.32,37.27a4.82,4.82,0,1,1,9.63,0v8a2,2,0,0,1-2,2H10.32a2,2,0,0,1-2-2v-8Z" fill="#fd8204" stroke="#692f17" stroke-linecap="round" stroke-linejoin="round" stroke-width="0.8"/><path d="M14.18,30.62a.34.34,0,0,1,.31.33v1.71H11.8V30.95a.34.34,0,0,1,.34-.34h2Z" fill="#d9d6cc" stroke="#692f17" stroke-linecap="round" stroke-linejoin="round" stroke-width="0.8"/></g></g></svg>