<svg xmlns="http://www.w3.org/2000/svg" width="60" height="60" viewBox="0 0 60 60"><g data-name="Слой 1"><path fill="none" d="M0 0h60v60H0z"/><path d="M10.65 38.89c-2.14 0-3.87-1.37-3.87-3.06s1.73-3.06 3.87-3.06H14" fill="none" stroke="#692f17" stroke-linecap="round" stroke-linejoin="round"/><path d="M12.71 35.44a2.68 2.68 0 0 0-2.71 2.7v.92a2.68 2.68 0 0 0 2.67 2.7" fill="#d6d4ca" stroke="#692f17" stroke-linejoin="round"/><path d="M37.82 42.81H12s-2.65-13.72 8.18-20.73c10.2-6.61 26-.17 26-.17v17.14" fill="#d9d6cc" stroke="#692f17" stroke-linejoin="round" stroke-width=".8" fill-rule="evenodd"/><ellipse cx="40.8" cy="38.4" rx="5.41" ry="5.48" fill="#d6d4ca" stroke="#692f17" stroke-miterlimit="10"/><path d="M25.41 40.54v1.68a2.21 2.21 0 0 0 2.21 2.21h20.25a5.83 5.83 0 0 0 0-11.66h-1" fill="none" stroke="#692f17" stroke-linecap="round" stroke-linejoin="round"/><ellipse cx="40.8" cy="38.4" rx="3.11" ry="3.15" fill="#f3f3ef" stroke="#692f17" stroke-miterlimit="10" stroke-width=".8"/><path d="M12.85 31.64a14.47 14.47 0 0 0 9.92 3.93c8.07 0 14.51-7.92 14.51-16.1" fill="none" stroke="#692f17" stroke-miterlimit="10" stroke-width=".8" fill-rule="evenodd"/><path d="M10.84 17l-3.22-.8a.32.32 0 0 1-.23-.39.32.32 0 0 1 .39-.23l3.22.8" fill="#f5f4f0" stroke="#692f17" stroke-linejoin="round" stroke-width=".36"/><path fill="#f5f4f0" stroke="#692f17" stroke-linejoin="round" stroke-width=".8" d="M11.51 21.47l1.09-4.42 2.71.68.41.73-.8 3.22-.7.46-2.71-.67z"/><path d="M10.69 17.62l-3.22-.8a.32.32 0 0 1-.23-.39.32.32 0 0 1 .39-.23l3.22.8" fill="#f5f4f0" stroke="#692f17" stroke-linejoin="round" stroke-width=".36"/><path d="M10.54 18.24l-3.22-.8a.32.32 0 0 1-.23-.39.32.32 0 0 1 .39-.23l3.22.8" fill="#f5f4f0" stroke="#692f17" stroke-linejoin="round" stroke-width=".36"/><path d="M10.38 18.86l-3.22-.8a.32.32 0 0 1-.23-.39.32.32 0 0 1 .39-.23l3.22.8" fill="#f5f4f0" stroke="#692f17" stroke-linejoin="round" stroke-width=".36"/><path d="M10.23 19.48L7 18.68a.32.32 0 0 1-.23-.39.32.32 0 0 1 .39-.23l3.22.8M10.07 20.1l-3.22-.8a.32.32 0 0 1-.23-.39.32.32 0 0 1 .38-.23l3.22.8" fill="#f5f4f0" stroke="#692f17" stroke-linejoin="round" stroke-width=".36"/><path d="M9.92 20.72l-3.22-.8a.32.32 0 0 1-.23-.39.32.32 0 0 1 .39-.23l3.22.8M9.77 21.35l-3.22-.8a.32.32 0 0 1-.23-.39.32.32 0 0 1 .39-.23l3.22.8" fill="#f5f4f0" stroke="#692f17" stroke-linejoin="round" stroke-width=".36"/><path fill="#d9d6cc" stroke="#692f17" stroke-linejoin="round" stroke-width=".8" d="M9.61 21.72l1.43-5.77 1.2.29.36.92-1.05 4.21-.74.65-1.2-.3z"/><path d="M24.16 26.27l3.7 6.63a1 1 0 0 1 .13.48v7.72s-.25 1.12-2.32 1.2-2.34-1.17-2.34-1.17l-.18-7-2.83-5.48" fill="#fd8204" stroke="#692f17" stroke-linejoin="round" stroke-width=".8"/><path d="M16.46 22.1l-1.57-.39.8-3.22 3.31.81a3.27 3.27 0 0 1 2 1.55l3.3 5.74-3.85 2.34-3-5.93a1.56 1.56 0 0 0-.99-.9z" fill="#f5f4f0" stroke="#692f17" stroke-linejoin="round" stroke-width=".8"/><path d="M24.47 30.55a1.84 1.84 0 0 1 .7-2.44L27.33 32l-1.57.87z" fill="#f5f4f0" stroke="#692f17" stroke-linecap="round" stroke-linejoin="round" stroke-width=".8"/></g></svg>