<svg xmlns="http://www.w3.org/2000/svg" width="30" height="30" viewBox="0 0 30 30"><title>инветарь</title><g data-name="Слой 2"><g data-name="Слой 1"><path fill="none" d="M0 0h30v30H0z"/><path d="M5.93 7.54l1.34 15.2c0 1.63.74 3 1.66 3h13.34c.91 0 1.66-1.32 1.66-3l1.34-15.2z" fill="#fd8204" stroke="#692f17" stroke-linejoin="round" stroke-width=".8"/><path d="M27 6.94a.59.59 0 0 1-.57.6H4.77a.59.59 0 0 1-.57-.6v-1.4a.59.59 0 0 1 .57-.6h21.66a.59.59 0 0 1 .57.6z" fill="#fd8204" stroke="#692f17" stroke-linejoin="round" stroke-width=".8"/><path d="M15.31 5.21L12.88 7.9a9.71 9.71 0 0 1-.48 3.1c-.29.58-1.47 3.38-2.61 2.78-.62-.33.73-3.05.73-3.05l-3.93 3.89a.8.8 0 0 1-1.12-1.12l-.65.65A.8.8 0 0 1 3.69 13l.53-.53a.79.79 0 0 1-1-1.23l1.15-1.15A.8.8 0 0 1 3.26 9l3.48-3.49.78-.78a14.85 14.85 0 0 1 4.34-.39c2.65.2 3.45.87 3.45.87z" fill="#f7e8d2" stroke="#692f17" stroke-linecap="round" stroke-linejoin="round" stroke-width=".5" fill-rule="evenodd"/><path fill="#f7e8d2" stroke="#692f17" stroke-linecap="round" stroke-linejoin="round" stroke-width=".5" d="M5.49 13.48l2.37-2.37M4.22 12.5L6.9 9.81M4.44 10.06l1.47-1.48M10.25 11.04l.95-.95"/><path d="M14.1 4.77v1a10 10 0 0 0-1.8 2.62c-.19.62-1.26 3.44 0 3.75.66.17 1.56-2.72 1.56-2.72l.15 5.41a.75.75 0 0 0 .8.74.82.82 0 0 0 .77-.82v.91a.75.75 0 0 0 .8.74.82.82 0 0 0 .77-.82v-.73a.75.75 0 0 0 .77.57.82.82 0 0 0 .77-.82V13a.75.75 0 0 0 .8.74.82.82 0 0 0 .77-.82L20 8.08V4.7a11.72 11.72 0 0 0-2.84-.22 15.54 15.54 0 0 0-3.06.29z" fill="#f7e8d2" stroke="#692f17" stroke-linecap="round" stroke-linejoin="round" stroke-width=".5" fill-rule="evenodd"/><path fill="#f7e8d2" stroke="#692f17" stroke-linecap="round" stroke-linejoin="round" stroke-width=".5" d="M15.5 14.74l-.07-3.29M17.06 14.86l-.07-3.73M18.57 12.93l-.04-2.05M13.79 9.83l-.02-1.32"/></g></g></svg>