<svg xmlns="http://www.w3.org/2000/svg" width="60" height="60" viewBox="0 0 60 60"><g data-name="Слой 1"><path fill="none" d="M0 0h60v60H0z"/><path fill="#fd8204" stroke="#692f17" stroke-linejoin="round" stroke-width=".8" d="M32.33 34.31L7 14.52l1.49-2.21 25.33 19.8-1.49 2.2z"/><path fill="#fd8204" stroke="#692f17" stroke-linejoin="round" stroke-width=".8" d="M34.25 33.92l-24.2-21.36 1.61-2.1 24.2 21.36-1.61 2.1z"/><path d="M40.75 37.2l-25.9-2.76a3.51 3.51 0 0 1-3.14-3.49V20.5h32.92v13.21a3.51 3.51 0 0 1-3.88 3.49z" fill="#d9d6cc" stroke="#692f17" stroke-linejoin="round"/><circle cx="19.1" cy="46.52" r="3.02" fill="#dfdbd1" stroke="#692f17" stroke-linejoin="round"/><circle cx="40.61" cy="46.52" r="3.02" fill="#dfdbd1" stroke="#692f17" stroke-linejoin="round"/><path fill="none" stroke="#692f17" stroke-miterlimit="10" stroke-width=".8" d="M12.16 22.19H44.8"/><path d="M52.53 12.67h-4.32a3.44 3.44 0 0 0-1.7.47 3.46 3.46 0 0 0-1.72 3v23.61a1.7 1.7 0 0 1-1.68 1.7H14.5a.47.47 0 0 0-.47.47v.87a.47.47 0 0 0 .47.47h28.57a3.44 3.44 0 0 0 1.7-.47 3.46 3.46 0 0 0 1.72-3V16.16a1.7 1.7 0 0 1 1.68-1.7h4.32A.47.47 0 0 0 53 14v-.87a.47.47 0 0 0-.47-.46z" fill="#d9d6cc" stroke="#692f17" stroke-miterlimit="10" stroke-width=".8"/></g></svg>