<svg xmlns="http://www.w3.org/2000/svg" width="60" height="60" viewBox="0 0 60 60"><g data-name="Слой 2"><g data-name="Слой 1"><path fill="none" d="M0 0h60v60H0z"/><path fill="#dad6cc" fill-rule="evenodd" d="M35.28 26.68l3.44 2.74-1.67 2.88-3.52 1.58 1.75-7.2z"/><path fill="#5d3329" d="M31.7 8l.56 2.65 2.65.57-2.64.56-.57 2.65-.57-2.65-2.65-.56 2.65-.57L31.7 8zM23.99 14.37l.56 2.65 2.66.57-2.66.56-.56 2.65-.56-2.65-2.66-.56 2.66-.57.56-2.65zM23.25 30.12l.57 2.65 2.64.57-2.64.56-.57 2.65-.56-2.65-2.66-.56 2.66-.57.56-2.65z"/><path d="M32.67 49.48a14.44 14.44 0 1 1 2.62-23.37" fill="#dad6cc" stroke="#692f17" stroke-linecap="round" stroke-miterlimit="10" fill-rule="evenodd"/><path d="M32.67 43.46a9.64 9.64 0 1 1 1.85-10.35" fill="none" stroke="#692f17" stroke-miterlimit="10" stroke-width=".8" fill-rule="evenodd"/><path d="M42.21 22.2v-1.79h2a3.5 3.5 0 1 0-7 0h2v1.79" fill="#f7f2ec" stroke="#692f17" stroke-miterlimit="10" stroke-width=".8" fill-rule="evenodd"/><path d="M38 28.17v3.38s-5.3 2.23-5.3 3.41v14.91A2.14 2.14 0 0 0 34.8 52h11.85a2.13 2.13 0 0 0 2.14-2.13V35c0-1.18-5.3-3.41-5.3-3.41v-3.42" fill="#fd8204" stroke="#692f17" stroke-linecap="round" stroke-miterlimit="10" fill-rule="evenodd"/><path fill="#f7f2ec" d="M33.15 38.14h15.12v8.07H33.15z"/><rect x="35.29" y="22.2" width="10.88" height="6.02" rx="1.54" ry="1.54" fill="#f7f2ec" stroke="#692f17" stroke-linecap="round" stroke-miterlimit="10"/><path fill="none" stroke="#692f17" stroke-miterlimit="10" stroke-width=".8" d="M32.66 38.23h16.13M37.86 31.72h5.73M32.66 46.56h16.13"/></g></g></svg>