<svg xmlns="http://www.w3.org/2000/svg" width="60" height="60" viewBox="0 0 60 60"><title>полировка-паркета</title><g data-name="Слой 2"><g data-name="Слой 1"><path fill="none" d="M0 0h60v60H0z"/><path d="M46.05 6.39H40a1.38 1.38 0 0 0-1.38 1.38v25.67h1.19v-24h6.28A1.38 1.38 0 0 0 47.44 8v-.22a1.38 1.38 0 0 0-1.39-1.39z" fill="#dfdbd1" stroke="#692f17" stroke-linejoin="round" stroke-width=".8"/><path d="M30.1 32c.37-1.67.63-3.22 2.16-3.22h7.54v3" fill="#f7e8d2" stroke="#692f17" stroke-linejoin="round" stroke-width=".79"/><path d="M39.68 45V30.69h-8c-.92 0-1.28.82-1.66 1.66-2.56 5.7-4.37 10.11-4.37 10.11-.79 0-6.18 5.14-7.62 6.52h-4.7a.79.79 0 0 0-.79.79v2.54a.79.79 0 0 0 .79.79H38" fill="#d9d6cc" stroke="#692f17" stroke-linejoin="round"/><path fill="none" stroke="#692f17" stroke-linecap="round" stroke-linejoin="round" stroke-width=".8" d="M39.68 42.72H25.46M18.05 49.17h16.62"/><circle cx="38.76" cy="48.98" r="4.63" fill="#dfdbd1" stroke="#692f17" stroke-linejoin="round"/><circle cx="38.76" cy="48.98" r="2.24" fill="#f8f3ee" stroke="#692f17" stroke-linecap="round" stroke-linejoin="round" stroke-width=".8"/><path fill="#fd8204" d="M20.27 30.09l.48 2.25 2.25.48-2.25.48-.48 2.24-.48-2.25-2.25-.47 2.25-.48.48-2.25zM11.27 26.09l.47 2.25 2.25.48-2.24.48-.48 2.25-.48-2.25-2.25-.48 2.25-.48.48-2.25zM13.73 35.49l.48 2.25 2.25.48-2.25.48-.48 2.24-.48-2.24-2.24-.48 2.24-.48.48-2.25z"/></g></g></svg>