<svg id="Слой_1" xmlns="http://www.w3.org/2000/svg" viewBox="0 0 60 60"><style>.st0{fill:none}.st1{fill:#f5f4f0}.st2{fill:#692f17}.st3{fill:#fd8204}.st4{fill:#d6d4ca}.st5{fill:#f3f3ef}.st6{fill:none;stroke:#692f17;stroke-width:.5;stroke-miterlimit:10}</style><title>мытье-фасада</title><g id="Слой_1-2"><path class="st0" d="M0 0h60v60H0z"/><path class="st1" d="M42.9 14.2l-7.1.8v1.7l7.1-.8z"/><path class="st2" d="M35.8 17.1c-.1 0-.2 0-.3-.1s-.1-.2-.1-.3V15c0-.2.2-.4.4-.4l7.1-.8c.1 0 .2 0 .3.1s.1.2.1.3v1.7c0 .2-.2.4-.4.4l-7.1.8c.1 0 .1 0 0 0zm.4-1.7v.9l6.3-.7v-.9l-6.3.7z"/><ellipse class="st3" cx="22" cy="17.1" rx="6.3" ry="6.3"/><path class="st2" d="M22 23.8c-3.8 0-6.8-3-6.8-6.8s3.1-6.8 6.8-6.8c3.8 0 6.8 3 6.8 6.8s-3.1 6.8-6.8 6.8zm0-12.5c-3.2 0-5.8 2.6-5.8 5.8s2.6 5.8 5.8 5.8 5.8-2.6 5.8-5.8c0-3.2-2.6-5.8-5.8-5.8z"/><path class="st4" d="M28.9 27.9c-2-.7-4.8-1.3-5.3-4.8L22.3 6.3c0-.5-.5-.9-1-.9h-2.1c-.6 0-1 .4-1 1v48.4h16.2l3-7.7v-9.4c0-.1-.1-6.8-8.5-9.8z"/><path class="st2" d="M34.7 55.2h-17V6.3c0-.8.7-1.5 1.5-1.5h2.1c.8 0 1.4.6 1.5 1.4l1.3 16.9c.4 2.8 2.5 3.5 4.3 4.2.2.1.4.1.6.2 8.6 3.1 8.9 10.1 8.9 10.1l-.1 9.6-3.1 8zm-16-1H34l2.8-7.3v-9.3c0-.2-.3-6.4-8.2-9.2-.2-.1-.4-.1-.6-.2-1.9-.6-4.5-1.5-5-5L21.8 6.3c0-.3-.2-.5-.5-.5h-2.1c-.3 0-.5.2-.5.5v47.9z"/><path class="st1" d="M44.4 12.4l-9.7.9h-.2v25.4H36V15.6l8.4-.9z"/><path class="st2" d="M36 39.1h-1.5c-.2 0-.4-.2-.4-.4V13.3c0-.1.1-.3.2-.3.1-.1.2-.1.3-.1h.2l9.6-1c.1 0 .2 0 .3.1s.1.2.1.3v2.4c0 .2-.2.4-.4.4l-8 .8v22.8c0 .2-.2.4-.4.4zm-1.1-.8h.7V15.6c0-.2.2-.4.4-.4l8-.8v-1.6l-9.1.9v24.6z"/><path class="st1" d="M33.5 37.7h3.8V45h-3.8z"/><path class="st2" d="M37.3 45.3h-3.8c-.2 0-.4-.2-.4-.4v-7.3c0-.2.2-.4.4-.4h3.8c.2 0 .4.2.4.4v7.3c0 .2-.2.4-.4.4zm-3.5-.7H37V38h-3.1v6.6h-.1z"/><g><ellipse class="st4" cx="34" cy="49.5" rx="5.3" ry="5.2"/><path class="st2" d="M34 55.2c-3.2 0-5.8-2.6-5.8-5.7s2.6-5.7 5.8-5.7 5.8 2.6 5.8 5.7-2.7 5.7-5.8 5.7zm0-10.4c-2.6 0-4.8 2.1-4.8 4.7s2.1 4.7 4.8 4.7 4.8-2.1 4.8-4.7-2.2-4.7-4.8-4.7z"/></g><g><ellipse class="st5" cx="34" cy="49.5" rx="3" ry="3"/><path class="st2" d="M34 52.9c-1.9 0-3.4-1.5-3.4-3.4s1.5-3.4 3.4-3.4 3.4 1.5 3.4 3.4-1.6 3.4-3.4 3.4zm0-6c-1.4 0-2.6 1.2-2.6 2.6s1.2 2.6 2.6 2.6 2.6-1.2 2.6-2.6-1.2-2.6-2.6-2.6z"/></g><g><path class="st2" d="M18.7 44.4h-.8c0-9.1 7.3-15.4 13.8-15.4v.8c-6.2.1-13 6.3-13 14.6z"/></g><g><path class="st2" d="M36.1 18.3l-.1-.8 7-.7c.5 0 .9-.5.8-1v-1.3h.8v1.3c.1.9-.6 1.7-1.6 1.8l-6.9.7z"/></g></g></svg>