<svg xmlns="http://www.w3.org/2000/svg" width="30" height="30" viewBox="0 0 30 30"><title>домовенок_2</title><g id="Слой_2" data-name="Слой 2"><g id="Слой_1-2" data-name="Слой 1"><rect width="30" height="30" fill="none"/><path d="M10.73,21.48a13.69,13.69,0,0,1-4.43-1.72A26.32,26.32,0,0,1,5.87,15S4.52,2.43,14.68,2.55C25,2.67,24.17,15,24.17,15a29.35,29.35,0,0,1-.39,5,12,12,0,0,1-4.46,1.5" fill="#dbc19f" stroke="#692f17" stroke-linejoin="round" stroke-width="0.8"/><path d="M13.25,20.84c-3.61.49-6.31,2.52-6.31,5,0,.08,0,.16,0,.24a22.45,22.45,0,0,0,8,1.42,22.44,22.44,0,0,0,8-1.42c0-.08,0-.16,0-.24,0-2.43-2.7-4.46-6.31-5" fill="#f5f4f0" stroke="#692f17" stroke-miterlimit="10" stroke-width="0.8"/><path d="M13.25,20.12v.68c0,.63.76,1.15,1.69,1.15s1.69-.51,1.69-1.15v-.68" fill="#f7e8d2" stroke="#692f17" stroke-miterlimit="10" stroke-width="0.5"/><path d="M21.77,13.8a41.43,41.43,0,0,0,.14-4.32,2.59,2.59,0,0,1-3.22-1.7A6.61,6.61,0,0,1,15,10.46,12.93,12.93,0,0,1,7.93,10a17.26,17.26,0,0,0,.15,3.78c.48,3.51,2.62,6.48,6.87,6.53A6.64,6.64,0,0,0,21.77,13.8Z" fill="#f7e8d2" stroke="#692f17" stroke-miterlimit="10" stroke-width="0.5"/><path d="M17.06,16.77a6,6,0,0,1-2.29.43,6.09,6.09,0,0,1-2.18-.38" fill="none" stroke="#692f17" stroke-linecap="round" stroke-miterlimit="10" stroke-width="0.36"/><path d="M15.84,18a3.21,3.21,0,0,1-2,0" fill="none" stroke="#692f17" stroke-linecap="round" stroke-miterlimit="10" stroke-width="0.36"/><path d="M15.68,15.41a3.31,3.31,0,0,1-.88.15,2.69,2.69,0,0,1-.84-.13" fill="none" stroke="#692f17" stroke-linecap="round" stroke-miterlimit="10" stroke-width="0.3"/><path d="M12.7,13a2.78,2.78,0,0,0-1.78-.89A2.78,2.78,0,0,0,9.13,13" fill="none" stroke="#692f17" stroke-linecap="round" stroke-miterlimit="10" stroke-width="0.5"/><ellipse cx="10.92" cy="12.95" rx="0.78" ry="0.71" fill="#692f17"/><path d="M20.21,13a2.78,2.78,0,0,0-1.78-.89,2.78,2.78,0,0,0-1.78.89" fill="none" stroke="#692f17" stroke-linecap="round" stroke-miterlimit="10" stroke-width="0.5"/><ellipse cx="18.42" cy="12.95" rx="0.78" ry="0.71" fill="#692f17"/><path d="M17.84,21.48a3.14,3.14,0,0,1-2.89,3.34,3.14,3.14,0,0,1-2.89-3.34" fill="none" stroke="#692f17" stroke-linecap="square" stroke-miterlimit="10" stroke-width="0.8"/><path d="M21.7,18" fill="none" stroke="#692f17" stroke-miterlimit="10" stroke-width="0.71"/><path d="M23.31,15.2" fill="none" stroke="#692f17" stroke-miterlimit="10" stroke-width="0.71"/></g></g></svg>