<svg xmlns="http://www.w3.org/2000/svg" width="60" height="60" viewBox="0 0 60 60"><g data-name="Слой 2"><g data-name="Слой 1"><path fill="none" d="M0 0h60v60H0z"/><path fill="none" stroke="#692f17" stroke-linecap="round" stroke-miterlimit="10" stroke-width=".8" d="M4.87 10.73h50.22M4.87 13.5h50.22M4.87 16.27h50.22M4.87 19.04h50.22M4.87 21.81h50.22M4.87 24.58h50.22M4.87 27.34h50.22M4.87 30.11h50.22M4.87 32.88h50.22M4.87 35.65h50.22M4.87 38.42h50.22M4.87 41.19h50.22M4.87 43.96h50.22M4.87 46.73h50.22M4.87 49.5h50.22"/><path fill="#d9d6cc" stroke="#692f17" stroke-linecap="round" stroke-miterlimit="10" d="M7.74 10.58h44.53v39.06H7.74z"/><path fill="#f5f4f0" stroke="#692f17" stroke-linecap="round" stroke-miterlimit="10" stroke-width=".8" d="M12.85 10.58h2.11V49.6h-2.11zM45.32 10.47h2.11V49.7h-2.11z"/></g></g></svg>