<svg xmlns="http://www.w3.org/2000/svg" width="60" height="60" viewBox="0 0 60 60"><title>стул_1</title><g data-name="Слой 2"><g data-name="Слой 1"><path fill="none" d="M0 0h60v60H0z"/><path d="M37.78 31.55H22.24a3.2 3.2 0 0 1-3.11-3.26l-1.72-19.8a3.2 3.2 0 0 1 3.11-3.26h19a3.2 3.2 0 0 1 3.11 3.26l-1.72 19.8a3.2 3.2 0 0 1-3.13 3.26z" fill="#dbd7cd" stroke="#692f17" stroke-linejoin="round"/><rect x="21.67" y="30.9" width="1.68" height="21.3" rx=".76" ry=".76" fill="#d9d6cc" stroke="#692f17" stroke-linejoin="round" stroke-width=".8"/><rect x="37.04" y="30.97" width="1.68" height="21.3" rx=".76" ry=".76" fill="#d9d6cc" stroke="#692f17" stroke-linejoin="round" stroke-width=".8"/><rect x="29.23" y="30.52" width="1.68" height="21.3" rx=".76" ry=".76" transform="rotate(-90 30.07 41.17)" fill="#d9d6cc" stroke="#692f17" stroke-linejoin="round" stroke-width=".8"/><rect x="18.43" y="33.47" width="1.68" height="21.3" rx=".76" ry=".76" fill="#d9d6cc" stroke="#692f17" stroke-linejoin="round" stroke-width=".8"/><ellipse cx="30" cy="32.41" rx="12.74" ry="2.29" fill="#f5f4f0" stroke="#692f17" stroke-linejoin="round" stroke-width=".8"/><rect x="40.14" y="34.56" width="1.83" height="20.21" rx=".78" ry=".78" fill="#d9d6cc" stroke="#692f17" stroke-linejoin="round" stroke-width=".8"/><path fill="#dbd7cd" stroke="#692f17" stroke-linejoin="round" d="M17.26 33.07h25.51v2.38H17.26z"/></g></g></svg>