<svg xmlns="http://www.w3.org/2000/svg" width="54.31" height="80" viewBox="0 0 54.31 80"><g data-name="Слой 1"><path fill="#692f17" d="M0 0h54.31v80H0z"/><path fill="#f7f2ec" d="M1.29 1.28h51.73v77.43H1.29z"/><path fill="#692f17" d="M6.99 7.04h40.34v65.43H6.99z"/><path fill="#fff" d="M7.98 8.07h38.36v63.5H7.98z"/><path fill="none" stroke="#60605f" stroke-miterlimit="10" stroke-width=".5" d="M11.81 8.07v63.59M15.65 8.07v63.59M19.48 8.07l.01 63.59M23.32 8.07v63.59M27.16 8.07v63.59M30.99 8.07L31 71.66M34.83 8.07v63.59M38.67 8.07v63.59M42.5 8.07l.01 63.59M46.32 11.82H7.94M46.32 15.55l-38.38.01M46.32 19.29H7.94M46.32 23.03H7.94M46.32 26.76l-38.38.01M46.32 30.5H7.94M46.32 34.24H7.94M46.32 37.97H7.94M46.32 41.71H7.94M46.32 45.44l-38.38.01M46.32 49.18H7.94M46.32 52.92H7.94M46.32 56.65l-38.38.01M46.32 60.39H7.94M46.32 64.13H7.94M46.32 67.86l-38.38.01"/></g></svg>