<svg xmlns="http://www.w3.org/2000/svg" width="57.9" height="80.03" viewBox="0 0 57.9 80.03"><title>жалюзи_2</title><g data-name="Слой 2"><g data-name="Слой 1" stroke="#692f17"><path fill="#f7f2ec" stroke-miterlimit="10" stroke-width="1.25" d="M3.07.89h51.75v78.52H3.07z"/><path fill="none" stroke-miterlimit="10" stroke-width=".75" d="M7.07.9v78.57M50.95.9v78.57"/><path fill="#fd8204" stroke-linejoin="round" stroke-width="1.25" d="M.63.63h56.65v2.82H.63z"/><path fill="none" stroke-linejoin="round" stroke-width=".88" d="M56.6 3.65v33.17"/><circle cx="56.63" cy="37.45" r=".83" fill="none" stroke-linejoin="round" stroke-width=".88"/><path fill="#f7f2ec" stroke-miterlimit="10" stroke-width=".75" d="M55 7.06H3.41M55 11.08H3.41M55 15.1H3.41M55 19.12H3.41M55 23.14H3.41M55 27.16H3.41M55 31.19H3.41M55 35.21H3.41M55 39.23H3.41M55 43.25H3.41M55 47.27H3.41M55 51.29H3.41M55 55.31H3.41M55 59.33H3.41M55 63.35H3.41M55 67.37H3.41M55 71.39H3.41M55 75.41H3.41"/></g></g></svg>