<svg xmlns="http://www.w3.org/2000/svg" width="48" height="48" viewBox="0 0 48 48"><g data-name="Слой 1"><path fill="none" d="M0 0h48v48H0z"/><path d="M9.57 16.86a3.11 3.11 0 0 0 3.43.64l10.6 11.61 2.6-2.6-11.58-10.6a3.1 3.1 0 0 0-.62-3.46" fill="#d7d4ca" stroke="#692f17" stroke-linecap="round" stroke-linejoin="round" fill-rule="evenodd"/><path d="M3.14 18.89l1.28 1.28a1.3 1.3 0 0 0 1.84 0l11-11a1.3 1.3 0 0 0 0-1.84L16 6" fill="#ddd9cf" stroke="#692f17" stroke-linejoin="round" fill-rule="evenodd"/><path fill="#e3801e" d="M1.516 17.256L14.35 4.422l1.457 1.456L2.973 18.712z"/><path d="M14.36 5.12l.75.75L3 18l-.75-.75L14.36 5.12m0-1.41L.82 17.25 3 19.42 16.52 5.87l-2.16-2.16z" fill="#692f17"/><path d="M42.78 19.61c-.29-3.83-2.95-6.83-6.19-6.83s-5.9 3-6.19 6.83a1 1 0 0 0 0 .23V32.5a1 1 0 0 0 1 1h10.4a1 1 0 0 0 1-1V19.84a1 1 0 0 0-.02-.23z" fill="#e3801e" stroke="#692f17" stroke-miterlimit="10"/><path d="M38.57 10.67h-4a.37.37 0 0 0-.37.37v1.85h4.69V11a.37.37 0 0 0-.32-.33z" fill="#ddd9cf" stroke="#692f17" stroke-miterlimit="10"/><path d="M23.31 8.72a5 5 0 0 1-1.66 4.15 16.41 16.41 0 0 1-2.18 1.54l.34.36a9.54 9.54 0 0 0 3.7-2.1 4.78 4.78 0 0 0 1.63-3.95z" fill="#f3f2ee" stroke="#692f17" stroke-miterlimit="10" stroke-width=".5"/><rect x="19.59" y="6.21" width="2.3" height="2.02" rx=".32" ry=".32" fill="#d9bf9d" stroke="#692f17" stroke-miterlimit="10" stroke-width=".5"/><path d="M34.38 21.45V32.4a2.75 2.75 0 0 1-2.75 2.75h-7.76a2.75 2.75 0 0 1-2.75-2.75V21.49a6.63 6.63 0 1 1 13.26 0v-.04zm-3.76-15.6h-8.83a.66.66 0 0 0-.66.66v1.55a.66.66 0 0 0 .66.66h3.35l1.19 3.52a.46.46 0 0 0-.42.46v2.36h3.7V12.7a.47.47 0 0 0-.47-.47V8.72h1.51a.66.66 0 0 0 .66-.66V6.51a.66.66 0 0 0-.69-.66z" fill="#d7d4ca" stroke="#692f17" stroke-linecap="round" stroke-linejoin="round"/><path fill="#f3f2ee" stroke="#692f17" stroke-miterlimit="10" stroke-width=".5" d="M26.2 12.49h3.05"/><path d="M9.64 28.27l1.89 12a2.34 2.34 0 0 0 2.34 2.34h26.65a2.34 2.34 0 0 0 2.34-2.34l1.89-12z" fill="#d9ddde" stroke="#692f17" stroke-linecap="round" stroke-linejoin="round"/><rect x="7.2" y="24.81" width="39.98" height="3.46" rx=".8" ry=".8" fill="#f3f2ee" stroke="#5d331f" stroke-linecap="round" stroke-linejoin="round"/><path d="M23.43 24.81L20.51 28a11.63 11.63 0 0 1-.58 3.76c-.34.7-1.76 4.05-3.12 3.33-.74-.4.88-3.66.88-3.66L13 36.09a1 1 0 0 1-1.35-1.35l-.78.78a1 1 0 0 1-1.37-1.34l.63-.63a1 1 0 0 1-1.18-1.48l1.38-1.38A1 1 0 1 1 9 29.33l4.16-4.16c1.29-1.29.93-.94.93-.94a17.8 17.8 0 0 1 5.2-.46c3.18.23 4.14 1.04 4.14 1.04z" fill="#e3801e" stroke="#692f17" stroke-miterlimit="10" stroke-width=".5" fill-rule="evenodd"/><path fill="#e3801e" stroke="#692f17" stroke-miterlimit="10" stroke-width=".5" d="M11.65 34.72l2.84-2.84M10.13 33.54l3.22-3.21M10.39 30.62l1.77-1.77M17.36 31.8l1.14-1.14"/><path d="M22 24.28v1.23a12 12 0 0 0-2.16 3.14c-.23.74-1.51 4.13-.06 4.49.8.2 1.87-3.26 1.87-3.26l.18 6.48a.9.9 0 0 0 1 .89 1 1 0 0 0 .92-1v1.09a.9.9 0 0 0 1 .89 1 1 0 0 0 .92-1v-.88a.9.9 0 0 0 .92.68 1 1 0 0 0 .92-1v-1.92a.9.9 0 0 0 1 .89 1 1 0 0 0 .92-1l-.11-5.79v-4.05a14.06 14.06 0 0 0-3.41-.26 18.61 18.61 0 0 0-3.91.38z" fill="#e3801e" stroke="#692f17" stroke-miterlimit="10" stroke-width=".5" fill-rule="evenodd"/><path fill="#e3801e" stroke="#692f17" stroke-miterlimit="10" stroke-width=".5" d="M23.65 36.24l-.07-3.95M25.53 36.37l-.09-4.46M27.33 34.06l-.04-2.45M21.6 30.34l-.03-1.58"/></g></svg>