<svg xmlns="http://www.w3.org/2000/svg" width="60" height="60" viewBox="0 0 60 60"><g data-name="Слой 2"><g data-name="Слой 1"><path fill="none" d="M0 0h60v60H0z"/><path d="M30.26 51.16" fill="#d9d6cc" stroke="#692f17" stroke-miterlimit="10" stroke-width="1.39"/><path fill="#d9d6cc" stroke="#692f17" stroke-linejoin="round" stroke-width=".8" d="M23.87 10.96H11.6l6.13.01 6.14-.01z"/><path d="M48.4 11a3.07 3.07 0 0 1-6.13 0 3.07 3.07 0 1 1-6.13 0A3.07 3.07 0 0 1 30 11a3.07 3.07 0 0 1-6.13 0 3.07 3.07 0 0 1-6.13 0 3.07 3.07 0 0 1-6.13 0h-.49v40.74c2.33 0 2.16-1.66 4.6-1.66s2.35 1.66 4.77 1.66 2.36-1.64 4.72-1.64 2.46 1.63 4.78 1.64 2.16-1.66 4.6-1.66 2.35 1.66 4.77 1.66 2.36-1.64 4.72-1.64 2.46 1.64 4.79 1.64V11z" fill="#f5f4f0" stroke="#692f17" stroke-linecap="round" stroke-miterlimit="10" stroke-width=".8"/><path fill="#fd8204" stroke="#692f17" stroke-linejoin="round" d="M8.62 8.26h42.77v2.67H8.62z"/></g></g></svg>