<svg xmlns="http://www.w3.org/2000/svg" viewBox="0 0 60 60"><path fill="#263239" d="M10.6 39.4c-2.4 0-4.4-1.6-4.4-3.6s2-3.6 4.4-3.6H14c.3 0 .5.2.5.5s-.2.5-.5.5h-3.4c-1.9 0-3.4 1.1-3.4 2.6 0 1.4 1.5 2.6 3.4 2.6.3 0 .5.2.5.5s-.2.5-.5.5z"/><path fill="#fff" d="M12.7 35.4c-1.5 0-2.7 1.2-2.7 2.6v1c0 1.5 1.2 2.7 2.7 2.7"/><path fill="#263239" d="M12.7 42.3c-1.8 0-3.2-1.5-3.2-3.2v-.9c0-1.8 1.4-3.2 3.2-3.2v1c-1.2 0-2.2 1-2.2 2.2v1c0 1.2 1 2.2 2.2 2.2v.9z"/><path fill="#fff" d="M37.8 42.8H12s-2.6-13.7 8.2-20.7c10.2-6.6 26-.2 26-.2V39"/><path fill="#263239" d="M37.8 43.2H12c-.2 0-.4-.1-.4-.3 0-.1-2.6-14.1 8.4-21.1 10.3-6.6 25.7-.5 26.4-.2.2.1.2.2.2.4v17.1h-.8V22.2c-2-.8-16.2-5.7-25.4.2-9.6 6.2-8.4 17.9-8.1 20h25.5v.8z"/><ellipse fill="#fff" cx="40.8" cy="38.4" rx="5.4" ry="5.5"/><path fill="#263239" d="M40.8 44.4c-3.3 0-5.9-2.7-5.9-6s2.7-6 5.9-6 5.9 2.7 5.9 6-2.6 6-5.9 6zm0-11c-2.7 0-4.9 2.2-4.9 5s2.2 5 4.9 5 4.9-2.2 4.9-5-2.2-5-4.9-5z"/><path fill="#263239" d="M47.9 44.9H27.6c-1.5 0-2.7-1.2-2.7-2.7v-1.7c0-.3.2-.5.5-.5s.5.2.5.5v1.7c0 .9.8 1.7 1.7 1.7h20.3c1.4 0 2.8-.6 3.8-1.6s1.6-2.3 1.6-3.8c0-2.9-2.4-5.3-5.3-5.3h-1c-.3 0-.5-.2-.5-.5s.2-.5.5-.5h1c3.5 0 6.3 2.8 6.3 6.3 0 1.7-.7 3.3-1.9 4.5-1.2 1.3-2.8 1.9-4.5 1.9z"/><ellipse fill="#fff" cx="40.8" cy="38.4" rx="3.1" ry="3.2"/><path fill="#263239" d="M40.8 42c-1.9 0-3.5-1.6-3.5-3.6s1.6-3.6 3.5-3.6 3.5 1.6 3.5 3.6-1.6 3.6-3.5 3.6zm0-6.4c-1.5 0-2.7 1.2-2.7 2.8s1.2 2.8 2.7 2.8 2.7-1.2 2.7-2.8-1.2-2.8-2.7-2.8zM22.8 36c-3.8 0-7.4-1.4-10.2-4l.5-.6c2.6 2.5 6 3.8 9.6 3.8 7.5 0 14.1-7.3 14.1-15.7h.8c.1 8.8-6.9 16.5-14.8 16.5z"/><path fill="#fff" d="M10.8 17l-3.2-.8c-.2 0-.3-.2-.2-.4 0-.2.2-.3.4-.2l3.2.8"/><path fill="#263239" d="M10.8 17.2l-3.2-.8c-.1 0-.2-.1-.3-.2-.1-.1-.1-.2-.1-.4 0-.1.1-.2.2-.3.1-.1.2-.1.4-.1l3.2.8v.4l-3.2-.8h-.1s-.1 0-.1.1 0 .2.1.2l3.2.8-.1.3z"/><path fill="#fff" d="M11.5 21.5l1.1-4.4 2.7.6.4.8-.8 3.2-.7.4z"/><path fill="#263239" d="M14.2 22.5l-2.8-.7c-.2-.1-.3-.3-.3-.5l1.1-4.4c0-.1.1-.2.2-.2.1-.1.2-.1.3 0l2.7.7c.1 0 .2.1.3.2l.4.7c0 .1.1.2 0 .3l-.8 3.2c0 .1-.1.2-.2.2l-.7.5h-.2zM12 21.2l2.2.5.4-.3.7-2.9-.3-.4-2.2-.5-.8 3.6z"/><path fill="#fff" d="M10.7 17.6l-3.2-.8c-.2 0-.3-.2-.2-.4 0-.2.2-.3.4-.2l3.2.8"/><path fill="#263239" d="M10.6 17.8L7.4 17c-.1 0-.2-.1-.3-.2-.1-.1-.1-.2-.1-.4.1-.3.4-.4.7-.4l3.2.8-.1.3-3.2-.8h-.1s-.1 0-.1.1v.1s0 .1.1.1l3.2.8-.1.4z"/><path fill="#fff" d="M10.5 18.2l-3.2-.8c-.2 0-.3-.2-.2-.4 0-.2.2-.3.4-.2l3.2.8"/><path fill="#263239" d="M10.5 18.4l-3.2-.8c-.1 0-.2-.1-.3-.2s-.1-.3-.1-.4c.1-.3.3-.4.6-.4l3.2.8-.1.3-3.2-.7c-.1 0-.2 0-.2.1s0 .2.1.2l3.2.8v.3z"/><path fill="#fff" d="M10.4 18.9l-3.2-.8c-.2 0-.3-.2-.2-.4 0-.2.2-.3.4-.2l3.2.8"/><path fill="#263239" d="M10.3 19l-3.2-.8c-.1 0-.2-.1-.3-.2-.1-.1-.1-.2-.1-.4.1-.3.3-.4.6-.4l3.2.8-.1.3-3.2-.8c-.1 0-.2 0-.2.1v.1s0 .1.1.1l3.2.8v.4z"/><path fill="#fff" d="M10.2 19.5L7 18.7c-.2 0-.3-.2-.2-.4 0-.2.2-.3.4-.2l3.2.8"/><path fill="#263239" d="M10.2 19.7L7 18.9c-.3-.1-.4-.3-.4-.6 0-.1.1-.2.2-.3.1-.1.3-.1.4-.1l3.2.8-.1.3-3.2-.8H7s-.1 0-.1.1 0 .2.1.2l3.2.8v.4z"/><path fill="#fff" d="M10.1 20.1l-3.2-.8c-.2 0-.3-.2-.2-.4 0-.2.2-.3.4-.2l3.2.8"/><path fill="#263239" d="M10 20.3l-3.2-.8c-.1 0-.2-.1-.3-.2s-.1-.3-.1-.4c.1-.3.3-.4.6-.4l3.2.8-.1.3-3.1-.7c-.1 0-.1 0-.2.1v.1s0 .1.1.1l3.2.8-.1.3z"/><path fill="#fff" d="M9.9 20.7l-3.2-.8c-.2 0-.3-.2-.2-.4 0-.2.2-.3.4-.2l3.2.8"/><path fill="#263239" d="M9.9 20.9l-3.2-.8c-.3-.1-.4-.3-.4-.6.1-.3.3-.4.6-.4l3.2.8-.1.4-3.2-.8c-.1 0-.2 0-.2.1v.1s0 .1.1.1l3.2.8v.3z"/><path fill="#fff" d="M9.8 21.4l-3.2-.8c-.2 0-.3-.2-.2-.4 0-.2.2-.3.4-.2l3.2.8"/><path fill="#263239" d="M9.7 21.5l-3.2-.8c-.3-.1-.4-.3-.4-.6.1-.3.3-.4.6-.4l3.2.8-.1.3-3.2-.8c-.1 0-.2 0-.2.1s0 .2.1.2l3.2.8v.4z"/><path fill="#fff" d="M9.6 21.7L11 16l1.2.2.4 1-1 4.2-.8.6z"/><path fill="#263239" d="M10.8 22.4s-.1 0 0 0l-1.3-.3c-.2-.1-.3-.3-.3-.5l1.4-5.8c.1-.2.3-.3.5-.3l1.2.3c.1 0 .2.1.3.2l.4 1v.2l-1.1 4.2c0 .1-.1.1-.1.2l-.7.6c-.1.2-.2.2-.3.2zm-.7-1l.6.2.5-.4 1-4-.2-.6-.6-.1-1.3 4.9z"/><path fill="#fff" d="M24.2 26.3l3.7 6.6c.1.1.1.3.1.5v7.7s-.3 1.1-2.3 1.2-2.3-1.2-2.3-1.2l-.2-7-2.8-5.5"/><path fill="#263239" d="M25.5 42.7c-2.2 0-2.5-1.4-2.5-1.5l-.2-7-2.8-5.4.7-.4 2.8 5.5v.2l.2 7s.2.8 1.8.8h.2c1.7-.1 1.9-.9 1.9-.9v-7.6c0-.1 0-.2-.1-.3l-3.7-6.6.7-.4 3.7 6.6c.1.2.2.4.2.7v7.7c0 .1-.4 1.5-2.7 1.6h-.2z"/><path fill="#fff" d="M16.5 22.1l-1.6-.4.8-3.2 3.3.8c.8.2 1.6.8 2 1.6l3.3 5.7-3.9 2.3-3-5.9c-.1-.4-.5-.8-.9-.9z"/><path fill="#263239" d="M20.5 29.3h-.1c-.1 0-.2-.1-.2-.2l-3-5.9c-.1-.3-.4-.6-.7-.7l-1.6-.4c-.2-.1-.3-.3-.3-.5l.8-3.2c.1-.2.3-.3.5-.3l3.3.8c1 .3 1.8.9 2.3 1.7l3.3 5.7c.1.2 0 .4-.1.5l-3.8 2.3c-.3.2-.4.2-.4.2zm-5.1-7.9l1.2.3c.6.2 1 .6 1.2 1.1l2.8 5.5 3.1-1.9-3-5.4c-.4-.7-1-1.2-1.8-1.4L16 19l-.6 2.4z"/><path fill="#fff" d="M24.5 30.6c-.5-.9-.1-1.9.7-2.4l2.2 3.9-1.6.9-1.3-2.4z"/><path fill="#ff5a19" d="M25.8 33.3c-.1 0-.3-.1-.4-.2l-1.3-2.3c-.6-1.1-.2-2.4.9-3 .1-.1.2-.1.3 0 .1 0 .2.1.2.2l2.2 3.9c.1.1.1.2 0 .3 0 .1-.1.2-.2.2l-1.5.8c-.1.1-.2.1-.2.1zm-1-2.9l1.1 2 .9-.5-1.8-3.2c-.4.4-.5 1.1-.2 1.7z"/></svg>