<svg xmlns="http://www.w3.org/2000/svg" width="48.17" height="48" viewBox="0 0 48.17 48"><ellipse cx="23.67" cy="39.8" rx="23.17" ry="7.1" fill="#fff"/><path d="M23.67 47.4C12 47.4 0 44.56 0 39.8s12-7.6 23.67-7.6 23.67 2.8 23.67 7.6-12.04 7.6-23.67 7.6zm0-14.2C10.11 33.2 1 36.62 1 39.8s9.11 6.6 22.67 6.6 22.67-3.4 22.67-6.6-9.11-6.6-22.67-6.6z" fill="#263239"/><ellipse cx="23.67" cy="39.48" rx="18.64" ry="4.84" fill="#fff"/><path d="M23.67 44.57c-10.59 0-18.89-2.24-18.89-5.09s8.3-5.09 18.89-5.09 18.89 2.24 18.89 5.09-8.3 5.09-18.89 5.09zm0-9.68c-11 0-18.39 2.37-18.39 4.59s7.39 4.59 18.39 4.59 18.39-2.37 18.39-4.59-7.39-4.59-18.39-4.59z" fill="#263239"/><path d="M23.79 33.84V16.2s-9.85-1.9-14.88 5.88c-4.74 7.32 1.67 18.65 1.67 18.65h10.51" fill="#fff" fill-rule="evenodd"/><path d="M21.09 41.23H10.58a.5.5 0 0 1-.43-.25c-.27-.48-6.51-11.68-1.66-19.17 5.16-8 15.3-6.12 15.4-6.1a.5.5 0 0 1 .41.49v17.64h-1V16.63c-1.87-.24-9.74-.8-14 5.72s.7 16.19 1.58 17.88h10.21z" fill="#ff5a19"/><ellipse cx="21.52" cy="36.85" rx="3.94" ry="3.89" fill="#fff"/><path d="M21.52 41.23A4.39 4.39 0 1 1 26 36.85a4.42 4.42 0 0 1-4.48 4.38zm0-7.77A3.39 3.39 0 1 0 25 36.85a3.42 3.42 0 0 0-3.48-3.39z" fill="263239"/><ellipse cx="21.52" cy="36.85" rx="2.26" ry="2.23" fill="#fff"/><path d="M21.52 39.33A2.48 2.48 0 1 1 24 36.85a2.5 2.5 0 0 1-2.48 2.48zm0-4.46a2 2 0 1 0 2 2 2 2 0 0 0-2-2.01z" fill="#263239"/><path d="M8 34.68v-.5a10.32 10.32 0 0 0 10.34-10.24A10.14 10.14 0 0 0 15.59 17l.37-.34a10.64 10.64 0 0 1 2.88 7.29A10.82 10.82 0 0 1 8 34.68z" fill="#ff5a19"/><path d="M37.25 36.24H35L30.34 7.19C29.78 4.59 28.43 3 26.08 3a4.24 4.24 0 0 0-4.26 4.21v6.9h-2.23V7.19A6.46 6.46 0 0 1 26.08.77c3.58 0 5.79 2.62 6.5 6.42z" fill="#fff"/><path d="M37.25 36.74H35a.5.5 0 0 1-.49-.42L29.85 7.27c-.55-2.51-1.85-3.8-3.77-3.8a3.74 3.74 0 0 0-3.76 3.71v6.9a.5.5 0 0 1-.5.5h-2.23a.5.5 0 0 1-.5-.5V7.19a7 7 0 0 1 7-6.92c3.64 0 6.19 2.49 7 6.83l4.68 29.07a.5.5 0 0 1-.49.58zm-1.81-1h1.22L32.08 7.27c-.7-3.81-2.89-6-6-6a6 6 0 0 0-6 5.92v6.4h1.23v-6.4a4.74 4.74 0 0 1 4.76-4.71c1.71 0 3.93.8 4.75 4.61z" fill="#263239"/><path d="M18.59 16a1.93 1.93 0 0 1 1.94-1.91h.66A1.93 1.93 0 0 1 23.13 16" fill="#fff"/><path d="M23.63 16h-1a1.43 1.43 0 0 0-1.44-1.41h-.66A1.43 1.43 0 0 0 19.09 16h-1a2.43 2.43 0 0 1 2.44-2.41h.66A2.43 2.43 0 0 1 23.63 16z" fill="#ff5a19"/><path fill="#fff" d="M33.67 30.13l1.01 6.18 2.8.04-1.04-6.22h-2.77z"/><path d="M37.47 36.85h-2.8a.5.5 0 0 1-.49-.42l-1-6.19a.5.5 0 0 1 .49-.58h2.77a.5.5 0 0 1 .49.42l1 6.22a.5.5 0 0 1-.49.58zm-2.37-1h1.78L36 30.63h-1.74z" fill="#263239"/><path fill="#fff" d="M39.99 40.41h-7.94l.98-5.22H39l.99 5.22z"/><path d="M40 40.91h-8a.5.5 0 0 1-.49-.59l1-5.22a.5.5 0 0 1 .49-.41h6a.5.5 0 0 1 .49.41l1 5.22a.5.5 0 0 1-.49.59zm-7.34-1h6.74l-.8-4.22h-5.15z" fill="#263239"/></svg>