<svg xmlns="http://www.w3.org/2000/svg" width="48" height="48" viewBox="0 0 48 48"><g data-name="Слой 1"><path fill="none" d="M0 0h48v48H0z"/><path d="M28.17 38.92v-20.1s-11.23-2.16-17 6.7c-5.41 8.35 1.91 21.26 1.91 21.26h12" fill="#dbdfe0" stroke="#692f17" stroke-linejoin="round" fill-rule="evenodd"/><ellipse cx="25.58" cy="42.35" rx="4.49" ry="4.43" fill="#d9d6cc" stroke="#692f17" stroke-miterlimit="10"/><ellipse cx="25.58" cy="42.35" rx="2.58" ry="2.54" fill="#d9d6cc" stroke="#692f17" stroke-linejoin="round" stroke-width=".5"/><path d="M19 19.52a11.84 11.84 0 0 1 3.21 8.12 12 12 0 0 1-12.11 12" fill="none" stroke="#692f17" stroke-linejoin="round" stroke-width=".5" fill-rule="evenodd"/><path d="M43.52 41.66H41L35.64 8.54c-.64-3-2.18-4.8-4.86-4.8a4.84 4.84 0 0 0-4.86 4.8v7.87h-2.54V8.54a7.37 7.37 0 0 1 7.4-7.32c4.08 0 6.61 3 7.41 7.32z" fill="#d9d6cc" stroke="#692f17" stroke-linecap="round" stroke-linejoin="round"/><path d="M22.24 18.59a2.2 2.2 0 0 1 2.21-2.18h.75a2.2 2.2 0 0 1 2.21 2.18M39.43 34.69l1.15 7.05 3.19.04-1.18-7.09h-3.16z" fill="#d9d6cc" stroke="#692f17" stroke-linejoin="round"/><path fill="#d9d6cc" stroke="#692f17" stroke-linecap="round" stroke-linejoin="round" d="M46.64 46.41h-9.06l1.13-5.95h6.8l1.13 5.95z"/><path d="M2.41 36c.23-3.09 2.38-5.51 5-5.51s4.76 2.42 5 5.51a.81.81 0 0 1 0 .19v10.25a.82.82 0 0 1-.82.82H3.21a.82.82 0 0 1-.82-.82V36.23a.85.85 0 0 1 .02-.23z" fill="#d9d6cc" stroke="#692f17" stroke-miterlimit="10" stroke-width=".8"/><path d="M5.81 28.82H9a.3.3 0 0 1 .3.3v1.49H5.52v-1.49a.3.3 0 0 1 .29-.3z" fill="#ddd9cf" stroke="#692f17" stroke-miterlimit="10" stroke-width=".8"/><path d="M8.32 37.27a4.82 4.82 0 1 1 9.63 0v8a2 2 0 0 1-2 2h-5.63a2 2 0 0 1-2-2v-8z" fill="#fd8204" stroke="#692f17" stroke-linecap="round" stroke-linejoin="round" stroke-width=".8"/><path d="M14.18 30.62a.34.34 0 0 1 .31.33v1.71H11.8v-1.71a.34.34 0 0 1 .34-.34h2z" fill="#d9d6cc" stroke="#692f17" stroke-linecap="round" stroke-linejoin="round" stroke-width=".8"/></g></svg>