<svg xmlns="http://www.w3.org/2000/svg" width="60" height="60" viewBox="0 0 60 60"><g data-name="Слой 1"><path fill="none" d="M0 0h60v60H0z"/><path fill="#f5f4f0" stroke="#692f17" stroke-linejoin="round" stroke-width=".8" d="M23 23.03h14v14H23zM23 9.03h14v14H23zM23 37.03h14v14H23zM9 23.03h14v14H9zM9 9.03h14v14H9zM9 37.03h14v14H9zM37 37.03h14v14H37zM37 23.03h14v14H37zM37 9.03h14v14H37z"/><path d="M26.83 34.25V38a.36.36 0 0 1-.36.36.36.36 0 0 1-.36-.36v-3.75" fill="#f5f4f0" stroke="#692f17" stroke-linejoin="round" stroke-width=".4"/><path fill="#f5f4f0" stroke="#692f17" stroke-linejoin="round" d="M31.54 32.32h-5.12v-3.15l.69-.64h3.74l.69.64v3.15z"/><path d="M27.55 34.25V38a.36.36 0 0 1-.36.36.36.36 0 0 1-.36-.36v-3.75M28.27 34.25V38a.36.36 0 0 1-.36.36.36.36 0 0 1-.36-.36v-3.75M29 34.25V38a.36.36 0 0 1-.36.36.36.36 0 0 1-.36-.36v-3.75" fill="#f5f4f0" stroke="#692f17" stroke-linejoin="round" stroke-width=".4"/><path d="M29.71 34.25V38a.36.36 0 0 1-.36.36A.36.36 0 0 1 29 38v-3.75M30.43 34.25V38a.36.36 0 0 1-.36.36.36.36 0 0 1-.36-.36v-3.75M31.15 34.25V38a.36.36 0 0 1-.36.36.36.36 0 0 1-.36-.36v-3.75M31.87 34.25V38a.36.36 0 0 1-.36.36.36.36 0 0 1-.36-.36v-3.75" fill="#f5f4f0" stroke="#692f17" stroke-linejoin="round" stroke-width=".4"/><path fill="#d9d6cc" stroke="#692f17" stroke-linejoin="round" d="M32.33 34.32h-6.69v-1.39l.9-.64h4.88l.91.64v1.39zM33.36 17.2l6.24-5.83a1.12 1.12 0 0 1 .49-.27L48.34 9l1.47 5.12-7.57 2.09L37 20.76"/><path d="M30.89 26.74v1.82h-3.74v-3.82a3.68 3.68 0 0 1 1.13-2.66l5.38-5.15 3.6 3.57-5.68 4.84a1.76 1.76 0 0 0-.69 1.4z" fill="#f5f4f0" stroke="#692f17" stroke-linejoin="round"/><path d="M38 15.71a2.06 2.06 0 0 1-2.86-.1l3.67-3.42 1.38 1.48z" fill="#f5f4f0" stroke="#692f17" stroke-linecap="round" stroke-linejoin="round" stroke-width=".64"/></g></svg>