<svg xmlns="http://www.w3.org/2000/svg" width="60" height="60" viewBox="0 0 60 60"><g data-name="Слой 1"><path fill="none" d="M0 0h60v60H0z"/><path fill="#f5f4f0" stroke="#692f17" stroke-linejoin="round" stroke-width=".88" d="M8.35 7.5h43.29v1.95H8.35z"/><path fill="#f5f4f0" stroke="#692f17" stroke-linejoin="round" stroke-width=".8" d="M8.35 10.23h43.29v3.56H8.35z"/><path fill="#f5f4f0" stroke="#692f17" stroke-linejoin="round" stroke-width=".8" d="M8.35 13.73h43.29v3.56H8.35z"/><path fill="#f5f4f0" stroke="#692f17" stroke-linejoin="round" stroke-width=".8" d="M8.35 17.23h43.29v3.56H8.35z"/><path fill="#f5f4f0" stroke="#692f17" stroke-linejoin="round" stroke-width=".8" d="M8.35 20.73h43.29v3.56H8.35z"/><path fill="#f5f4f0" stroke="#692f17" stroke-linejoin="round" stroke-width=".8" d="M8.35 24.23h43.29v3.56H8.35z"/><path fill="#f5f4f0" stroke="#692f17" stroke-linejoin="round" stroke-width=".8" d="M8.35 27.73h43.29v3.56H8.35z"/><path fill="#f5f4f0" stroke="#692f17" stroke-linejoin="round" stroke-width=".8" d="M8.35 31.23h43.29v3.56H8.35z"/><path fill="#f5f4f0" stroke="#692f17" stroke-linejoin="round" stroke-width=".8" d="M8.35 34.73h43.29v3.56H8.35z"/><path fill="#f5f4f0" stroke="#692f17" stroke-linejoin="round" stroke-width=".8" d="M8.35 38.23h43.29v3.56H8.35z"/><path fill="#f5f4f0" stroke="#692f17" stroke-linejoin="round" stroke-width=".8" d="M8.35 41.73h43.29v3.56H8.35z"/><path fill="#f5f4f0" stroke="#692f17" stroke-linejoin="round" stroke-width=".8" d="M8.35 45.23h43.29v3.56H8.35z"/><path fill="#f5f4f0" stroke="#692f17" stroke-linejoin="round" stroke-width=".8" d="M8.35 48.73h43.29v3.56H8.35z"/><path fill="none" stroke="#692f17" stroke-miterlimit="10" stroke-width=".8" d="M11.66 7.5v45M48.4 7.5v44.76"/><path fill="#fd8204" stroke="#692f17" stroke-linejoin="round" stroke-width="1.09" d="M6.03 7.77h2.22v2.28H6.03z"/><path fill="#fd8204" stroke="#692f17" stroke-linejoin="round" stroke-width="1.14" d="M51.75 7.77h2.21v2.51h-2.21z"/><path fill="#fd8204" stroke="#692f17" stroke-linejoin="round" d="M6.01 7.42h48.2v2.82H6.01z"/><path fill="none" stroke="#692f17" stroke-linejoin="round" stroke-width=".8" d="M53.54 10.45v33.16"/><circle cx="53.57" cy="44.24" r=".83" fill="none" stroke="#692f17" stroke-linejoin="round" stroke-width=".8"/></g></svg>