<svg xmlns="http://www.w3.org/2000/svg" width="48" height="48" viewBox="0 0 48 48"><title>диван_1</title><g id="Слой_2" data-name="Слой 2"><g id="Слой_1-2" data-name="Слой 1"><rect width="48" height="48" fill="none"/><path d="M38.37.82H9.42C7.59.82,6.09,2.74,6.09,5.12V31.94c0,2.37,1.49,4.29,3.33,4.29H38.37c1.84,0,3.33-1.92,3.33-4.29V5.12C41.7,2.74,40.21.82,38.37.82Z" fill="#dbdfe0" stroke="#692f17" stroke-linejoin="round"/><ellipse cx="23.9" cy="26.37" rx="21.68" ry="5.33" fill="#dbdfe0" stroke="#692f17" stroke-miterlimit="10" stroke-width="0.5"/><path d="M35.74,22s-3.37.3-3.9.3-2.46.71-.64,1.2,3.07.19,3.86.52a12,12,0,0,0,3.26,1.24,4.17,4.17,0,0,0,3.19-.82c.51-.54.13-.73-.71-1.14C40.11,23,35.74,22,35.74,22Z" fill="#d9d6cc" stroke="#692f17" stroke-miterlimit="10" stroke-width="0.5"/><path d="M6.15,25.87a13.47,13.47,0,0,1,3.94-1.41c2-.31,2.59.45,2.76,1s.25,1.15.79,1.46,2.11.23,2.47-.56,3-.56,2.87.56S20,28.8,21.06,28.8s1.07,1.13.51,1.24S6.49,30,6.49,30" fill="#d9d6cc" stroke="#692f17" stroke-miterlimit="10" stroke-width="0.5"/><path d="M43.84,40c0,2.46-1.24,4.45-2.78,4.45H6.73C5.2,44.48,4,42.49,4,40V34.4c0-2.46,1.24-4.45,2.78-4.45H41.07c1.53,0,2.78,2,2.78,4.45Z" fill="#dbdfe0" stroke="#692f17" stroke-linejoin="round"/><rect x="38.55" y="17.39" width="8.48" height="28.43" rx="2" ry="2" fill="#dbdfe0" stroke="#692f17" stroke-linejoin="round"/><rect x="0.97" y="17.39" width="8.48" height="28.43" rx="2" ry="2" fill="#dbdfe0" stroke="#692f17" stroke-linejoin="round"/><path d="M34.49,15.58a52,52,0,0,1,.35-6.07c-2.78-1.4-6.51.86-10.62.86S16.47,8.1,13.7,9.46a51.9,51.9,0,0,1,.35,6.12,51.91,51.91,0,0,1-.35,6.12c2.77,1.37,6.46-.18,10.52-.18s7.84,1.53,10.62.13A52,52,0,0,1,34.49,15.58Z" fill="#fd8204" stroke="#692f17" stroke-linejoin="round"/><path d="M26.21,23.69s-1.69-.23-2,.45,1.05,1.05,2,1,3.38.17,3.68-.45S27.32,23.75,26.21,23.69Z" fill="#d9d6cc" stroke="#692f17" stroke-miterlimit="10" stroke-width="0.5"/></g></g></svg>