<svg xmlns="http://www.w3.org/2000/svg" width="60" height="60" viewBox="0 0 60 60"><path d="M46 6.34h-6.06a1.38 1.38 0 0 0-1.38 1.38v25.67h1.19v-24H46A1.38 1.38 0 0 0 47.41 8v-.27A1.38 1.38 0 0 0 46 6.34z" fill="#fff" stroke="#263239" stroke-linejoin="round" stroke-width=".8"/><path d="M30.13 32.09c.37-1.67.63-3.22 2.14-3.22h7.49v3" fill="#fff" stroke="#ff5a19" stroke-linejoin="round" stroke-width=".79"/><path d="M39.7 45V30.74h-8c-.92 0-1.28.82-1.66 1.66-2.56 5.7-4.37 10.11-4.37 10.11-.79 0-6.18 5.14-7.62 6.52h-4.7a.79.79 0 0 0-.79.79v2.54a.79.79 0 0 0 .79.79H38" fill="#fff" stroke="#263239" stroke-linejoin="round"/><path fill="none" stroke="#263239" stroke-linecap="round" stroke-linejoin="round" stroke-width=".8" d="M39.7 42.78H25.48M18.07 49.14h16.62"/><circle cx="38.79" cy="49.03" r="4.63" fill="#fff" stroke="#ff5a19" stroke-linejoin="round"/><circle cx="38.79" cy="49.03" r="2.24" fill="#fff" stroke="#ff5a19" stroke-linecap="round" stroke-linejoin="round" stroke-width=".8"/></svg>