<svg xmlns="http://www.w3.org/2000/svg" width="70" height="70" viewBox="0 0 70 70"><title>бытовая-техника</title><g data-name="Слой 2"><g data-name="Слой 1"><path fill="none" d="M0 0h70v70H0z"/><path d="M24.6 59.09a2.68 2.68 0 0 1-5.35 0M53.62 59.09a2.68 2.68 0 0 1-5.35 0" fill="#e1dad0" stroke="#692f17" stroke-miterlimit="10" stroke-width=".75"/><rect x="17.62" y="11.82" width="37.94" height="47.26" rx="2.19" ry="2.19" fill="#ded9cf" stroke="#692f17" stroke-linecap="round" stroke-miterlimit="10" stroke-width="1.5"/><path fill="none" stroke="#692f17" stroke-linecap="round" stroke-miterlimit="10" stroke-width=".75" d="M17.62 21.23h37.94"/><path d="M18 19.1l14 .06a2.1 2.1 0 0 0 2.14-2.07v-4.85H21.3a4.2 4.2 0 0 0-2.42.51 3.21 3.21 0 0 0-.88 2.19z" fill="#ff8200" stroke="#692f17" stroke-linecap="round" stroke-miterlimit="10" stroke-width=".75"/><path fill="none" stroke="#692f17" stroke-linecap="round" stroke-miterlimit="10" stroke-width=".75" d="M17.62 54.52h37.94"/><circle cx="36.59" cy="37.78" r="11.39" fill="#f9f1eb" stroke="#692f17" stroke-linecap="round" stroke-miterlimit="10" stroke-width="1.5"/><path d="M41.79 37.78a6.16 6.16 0 0 1 1.82-4.38 8.29 8.29 0 1 0 0 8.77 6.16 6.16 0 0 1-1.82-4.39z" fill="#e0d9d0" stroke="#692f17" stroke-linecap="round" stroke-miterlimit="10" stroke-width=".75"/><circle cx="39.85" cy="16.64" r="1.28" fill="#692f17"/><circle cx="43.55" cy="16.64" r=".9" fill="#ff8200"/><path d="M43.55 16.11a.53.53 0 1 1-.53.53.53.53 0 0 1 .53-.53m0-.75a1.28 1.28 0 1 0 1.28 1.28 1.28 1.28 0 0 0-1.28-1.28z" fill="#692f17"/><circle cx="47.25" cy="16.64" r=".9" fill="#ff8200"/><path d="M47.25 16.11a.53.53 0 1 1-.53.53.53.53 0 0 1 .53-.53m0-.75a1.28 1.28 0 1 0 1.28 1.28 1.28 1.28 0 0 0-1.28-1.28z" fill="#692f17"/><circle cx="50.95" cy="16.64" r=".9" fill="#ff8200"/><path d="M50.95 16.11a.53.53 0 1 1-.53.53.53.53 0 0 1 .53-.53m0-.75a1.28 1.28 0 1 0 1.28 1.28 1.28 1.28 0 0 0-1.28-1.28z" fill="#692f17"/></g></g></svg>