<svg xmlns="http://www.w3.org/2000/svg" width="30" height="30.17" viewBox="0 0 30 30.17"><title>машина_1</title><g id="Слой_2" data-name="Слой 2"><g id="Слой_1-2" data-name="Слой 1"><path d="M28.58,15.43c-1.59-1-4.42-5-5.51-6A3.75,3.75,0,0,0,20.42,8.3H2.25a1,1,0,0,0-1,1L1,20.59a.8.8,0,0,0,.8.81H3.74s0-.09,0-.13a3.07,3.07,0,1,1,6.13,0s0,.09,0,.13H21.64s0-.09,0-.13a3.07,3.07,0,1,1,6.13,0s0,.09,0,.13H28a1.14,1.14,0,0,0,1.14-1.14V16.53A1.45,1.45,0,0,0,28.58,15.43Z" fill="#ec8213" stroke="#5d3329" stroke-miterlimit="10" stroke-width="0.6"/><circle cx="6.79" cy="21.34" r="2.37" fill="#dfdbd1" stroke="#5d3329" stroke-miterlimit="10" stroke-width="0.58"/><circle cx="6.79" cy="21.34" r="1.41" fill="#f5f4f0" stroke="#5d3329" stroke-miterlimit="10" stroke-width="0.31"/><circle cx="24.69" cy="21.34" r="2.37" fill="#dfdbd1" stroke="#5d3329" stroke-miterlimit="10" stroke-width="0.58"/><circle cx="24.69" cy="21.34" r="1.41" fill="#f5f4f0" stroke="#5d3329" stroke-miterlimit="10" stroke-width="0.31"/><path d="M25.11,14.45l-7.29.07a.56.56,0,0,1-.5-.61V10.17a.48.48,0,0,1,.42-.52H21.5a.77.77,0,0,1,.61.33l3.2,4C25.45,14.14,25.33,14.45,25.11,14.45Z" fill="#f5f4f0" stroke="#5d3329" stroke-miterlimit="10" stroke-width="0.32"/><line x1="1.24" y1="15.17" x2="8.57" y2="15.15" fill="#dfdbd1" stroke="#5d3329" stroke-miterlimit="10" stroke-width="0.32"/><line x1="1.34" y1="15.74" x2="13.89" y2="15.74" fill="#dfdbd1" stroke="#5d3329" stroke-miterlimit="10" stroke-width="0.32"/><line x1="15.83" y1="8.21" x2="15.83" y2="21.25" fill="#dfdbd1" stroke="#5d3329" stroke-miterlimit="10" stroke-width="0.32"/><line x1="17.4" y1="15.91" x2="18.58" y2="15.91" fill="#dfdbd1" stroke="#5d3329" stroke-miterlimit="10" stroke-width="0.32"/><rect width="30" height="30.17" fill="none"/></g></g></svg>