<svg xmlns="http://www.w3.org/2000/svg" width="60" height="60" viewBox="0 0 60 60"><path d="M49 16.46H10.71c-2.43 0-4.4 1.17-4.4 2.6v16.28c0 1.44 2 2.6 4.4 2.6H49c2.43 0 4.4-1.17 4.4-2.6V19.07c-.03-1.44-2-2.61-4.4-2.61z" fill="#fff" stroke="#263239" stroke-linejoin="round"/><ellipse cx="30.83" cy="32.14" rx="25.05" ry="2.8" fill="#fff" stroke="#263239" stroke-linejoin="round" stroke-width=".8"/><path d="M53.49 39.54a3.06 3.06 0 0 1-3.29 2.77H9.48a3.06 3.06 0 0 1-3.29-2.77V36a3.06 3.06 0 0 1 3.29-2.77H50.2A3.06 3.06 0 0 1 53.49 36z" fill="#fff" stroke="#263239" stroke-linejoin="round"/><path d="M9 28.92a3.73 3.73 0 1 0-5.3 3.37v9.84a1.44 1.44 0 0 0 1.44 1.44h2.37A1.44 1.44 0 0 0 9 42.13V29v-.08zM50.89 28.91a3.81 3.81 0 0 1 7.61 0 3.71 3.71 0 0 1-2.2 3.37v9.82a1.45 1.45 0 0 1-1.47 1.44h-2.47a1.45 1.45 0 0 1-1.47-1.44V29v-.09z" fill="#fff" stroke="#263239" stroke-linejoin="round"/><circle cx="5.23" cy="28.86" r=".97" fill="#fff" stroke="#ff5a19" stroke-linejoin="round" stroke-width=".8"/><circle cx="54.69" cy="28.86" r=".97" fill="#fff" stroke="#ff5a19" stroke-linejoin="round" stroke-width=".8"/><path fill="#fff" stroke="#263239" stroke-linejoin="round" stroke-width=".8" d="M22.1 16.43v13.1M37.78 16.57v12.81"/></svg>