<svg xmlns="http://www.w3.org/2000/svg" width="48" height="48.48" viewBox="0 0 48 48.48"><title>kitchen-desktop-2</title><path d="M8.46,45.11v1.61A1.26,1.26,0,0,1,7.2,48h0a1.26,1.26,0,0,1-1.26-1.26V45.11" fill="#e2ddd3" stroke="#682f24" stroke-linejoin="round"/><path d="M26.27,45.11v1.61A1.26,1.26,0,0,1,25,48h0a1.26,1.26,0,0,1-1.26-1.26V45.11" fill="#e2ddd3" stroke="#682f24" stroke-linejoin="round"/><path d="M30.5,29.83H2.39A1.89,1.89,0,0,0,.5,31.72V43.36a1.89,1.89,0,0,0,1.89,1.89H30.5" fill="#e2ddd3" stroke="#682f24" stroke-linejoin="round"/><line x1="15.52" y1="29.71" x2="15.52" y2="44.84" fill="none" stroke="#682f24" stroke-miterlimit="10" stroke-width="0.5"/><path d="M22.61,30V22.34a2.35,2.35,0,1,0-4.71,0V24" fill="none" stroke="#682f24" stroke-linejoin="round"/><path d="M28.51,27.21a.84.84,0,0,1-.84.84H25.21a.84.84,0,0,1-.84-.84h0a.84.84,0,0,1,.84-.84h2.46a.84.84,0,0,1,.84.84Z" fill="#e2ddd3" stroke="#682f24" stroke-linejoin="round" stroke-width="0.5"/><path d="M20.46,27.21a.84.84,0,0,1-.84.84H17.16a.84.84,0,0,1-.84-.84h0a.84.84,0,0,1,.84-.84h2.46a.84.84,0,0,1,.84.84Z" fill="#e2ddd3" stroke="#682f24" stroke-linejoin="round" stroke-width="0.5"/><line x1="26.44" y1="29.97" x2="26.44" y2="28.26" fill="none" stroke="#682f24" stroke-linejoin="round" stroke-width="1.26"/><line x1="18.39" y1="29.97" x2="18.39" y2="28.26" fill="none" stroke="#682f24" stroke-linejoin="round" stroke-width="1.26"/><line x1="15.52" y1="35.27" x2="0.5" y2="35.27" fill="none" stroke="#682f24" stroke-miterlimit="10" stroke-width="0.5"/><line x1="15.52" y1="39.92" x2="0.5" y2="39.92" fill="none" stroke="#682f24" stroke-miterlimit="10" stroke-width="0.5"/><circle cx="19.18" cy="34.21" r="1.04" fill="#682f24"/><rect x="0.5" y="0.5" width="26.15" height="13.53" rx="1.85" ry="1.85" fill="#fd8204" stroke="#682f24" stroke-linejoin="round"/><line x1="13.86" y1="0.78" x2="13.86" y2="13.98" fill="none" stroke="#682f24" stroke-linejoin="round" stroke-width="0.5"/><circle cx="16.66" cy="10.94" r="1.01" fill="#682f24"/><circle cx="10.89" cy="10.94" r="1.01" fill="#682f24"/><path d="M4.52,23v4.68A1.48,1.48,0,0,0,6,29.11h4.93a1.48,1.48,0,0,0,1.48-1.48V23Z" fill="#dce1e2" stroke="#682f24" stroke-linecap="round" stroke-linejoin="round"/><path d="M11,20.64H5.92A1.52,1.52,0,0,0,4.4,22.16v.73h8.12v-.73A1.52,1.52,0,0,0,11,20.64Z" fill="#dce1e2" stroke="#682f24" stroke-miterlimit="10" stroke-width="0.5"/><line x1="3.78" y1="22.95" x2="13.14" y2="22.95" fill="none" stroke="#682f24" stroke-linecap="round" stroke-linejoin="round" stroke-width="1.26"/><path d="M7.41,20.64a1.05,1.05,0,1,1,2.1,0" fill="none" stroke="#682f24" stroke-miterlimit="10" stroke-width="0.5"/><rect x="30.5" y="0.58" width="17" height="47.36" rx="2.46" ry="2.46" fill="#dce1e2" stroke="#682f24" stroke-linejoin="round"/><path d="M30.5,32.48H33.2a1.86,1.86,0,0,1,1.86,1.86h0a1.86,1.86,0,0,1-1.86,1.86H30.5" fill="none" stroke="#682f24" stroke-miterlimit="10" stroke-width="0.5"/><line x1="34.86" y1="34.33" x2="47.5" y2="34.33" fill="none" stroke="#682f24" stroke-miterlimit="10" stroke-width="0.5"/></svg>