<svg xmlns="http://www.w3.org/2000/svg" width="60" height="60" viewBox="0 0 60 60"><path fill="#fff" d="M11.26 5.22h37.68v46.65H11.26z"/><path d="M11 12.44l14.39.07a2.19 2.19 0 0 0 2.19-2.19V5.14H14.39s-1.77-.17-2.48.55A4.74 4.74 0 0 0 11 8z" fill="#fff" stroke="#263239" stroke-linecap="round" stroke-miterlimit="10" stroke-width=".8"/><path d="M18 52.43a2.68 2.68 0 0 1-5.35 0M47.07 52.43a2.68 2.68 0 1 1-5.35 0" fill="#fff" stroke="#263239" stroke-miterlimit="10" stroke-width=".8"/><rect x="11.06" y="5.17" width="37.94" height="47.26" rx="2.19" ry="2.19" fill="none" stroke="#263239" stroke-linecap="round" stroke-miterlimit="10"/><path fill="none" stroke="#263239" stroke-linecap="round" stroke-miterlimit="10" stroke-width=".8" d="M11.06 14.57H49M11.06 47.86H49"/><circle cx="30.03" cy="31.12" r="11.39" fill="#fff" stroke="#ff5a19" stroke-linecap="round" stroke-miterlimit="10"/><path d="M35.24 31.12a6.16 6.16 0 0 1 1.82-4.38 8.29 8.29 0 1 0 0 8.77 6.16 6.16 0 0 1-1.82-4.39z" fill="#fff" stroke="#ff5a19" stroke-linecap="round" stroke-miterlimit="10" stroke-width=".8"/><circle cx="33.29" cy="9.98" r="1.28" fill="#263239"/><circle cx="36.99" cy="9.98" r=".88" fill="#fff"/><path d="M37 9.5a.48.48 0 1 1-.48.48.48.48 0 0 1 .48-.48m0-.8a1.28 1.28 0 1 0 1.27 1.3A1.28 1.28 0 0 0 37 8.7z" fill="#263239"/><circle cx="40.69" cy="9.98" r=".88" fill="#fff"/><path d="M40.69 9.5a.48.48 0 1 1-.48.48.48.48 0 0 1 .48-.48m0-.8A1.28 1.28 0 1 0 42 10a1.28 1.28 0 0 0-1.31-1.3z" fill="#263239"/><circle cx="44.39" cy="9.98" r=".88" fill="#fff"/><path d="M44.39 9.5a.48.48 0 1 1-.48.48.48.48 0 0 1 .48-.48m0-.8a1.28 1.28 0 1 0 1.28 1.3 1.28 1.28 0 0 0-1.28-1.3z" fill="#263239"/></svg>