<svg xmlns="http://www.w3.org/2000/svg" width="30" height="30" viewBox="0 0 30 30"><title>монеты_3</title><g data-name="Слой 2"><g data-name="Слой 1"><path fill="none" d="M0 0h30v30H0z"/><path d="M5.36 17.51v1.81a1 1 0 0 1 0 .1c0 1 3 1.83 6.61 1.83s6.61-.82 6.61-1.83v-1.9z" fill="#fd8204" stroke="#692f17" stroke-miterlimit="10" stroke-width=".75"/><ellipse cx="11.98" cy="17.24" rx="6.62" ry="1.83" fill="#dba10e" stroke="#692f17" stroke-miterlimit="10" stroke-width=".75"/><path d="M6.2 14.67v1.81a1 1 0 0 1 0 .1c0 1 3 1.83 6.61 1.83s6.61-.82 6.61-1.83v-1.9z" fill="#fd8204" stroke="#692f17" stroke-miterlimit="10" stroke-width=".75"/><ellipse cx="12.81" cy="14.41" rx="6.62" ry="1.83" fill="#dba10e" stroke="#692f17" stroke-miterlimit="10" stroke-width=".75"/><path d="M4.74 12.59v1.81a1 1 0 0 1 0 .1c0 1 3 1.83 6.61 1.83S18 15.52 18 14.51v-1.9z" fill="#fd8204" stroke="#692f17" stroke-miterlimit="10" stroke-width=".75"/><ellipse cx="11.35" cy="12.33" rx="6.62" ry="1.83" fill="#dba10e" stroke="#692f17" stroke-miterlimit="10" stroke-width=".75"/><path d="M5.66 9.59v1.81a1 1 0 0 1 0 .1c0 1 3 1.83 6.61 1.83s6.61-.82 6.61-1.83V9.61z" fill="#fd8204" stroke="#692f17" stroke-miterlimit="10" stroke-width=".75"/><ellipse cx="12.27" cy="9.33" rx="6.62" ry="1.83" fill="#ffbc00" stroke="#692f17" stroke-miterlimit="10" stroke-width=".75"/><path d="M11.49 18.76v1.81a1 1 0 0 1 0 .1c0 1 3 1.83 6.61 1.83s6.61-.82 6.61-1.83v-1.9z" fill="#fd8204" stroke="#692f17" stroke-miterlimit="10" stroke-width=".75"/><ellipse cx="18.1" cy="18.49" rx="6.62" ry="1.83" fill="#dba10e" stroke="#692f17" stroke-miterlimit="10" stroke-width=".75"/><path d="M12 16.67v1.81a1 1 0 0 1 0 .1c0 1 3 1.83 6.61 1.83s6.61-.82 6.61-1.83v-1.9z" fill="#fd8204" stroke="#692f17" stroke-miterlimit="10" stroke-width=".75"/><ellipse cx="18.65" cy="16.41" rx="6.62" ry="1.83" fill="#dba10e" stroke="#692f17" stroke-miterlimit="10" stroke-width=".75"/><path d="M10.95 13.67v1.81a1 1 0 0 1 0 .1c0 1 3 1.83 6.61 1.83s6.61-.82 6.61-1.83v-1.9z" fill="#fd8204" stroke="#692f17" stroke-miterlimit="10" stroke-width=".75"/><ellipse cx="17.56" cy="13.41" rx="6.62" ry="1.83" fill="#ffbc00" stroke="#692f17" stroke-miterlimit="10" stroke-width=".75"/></g></g></svg>