<svg xmlns="http://www.w3.org/2000/svg" width="60" height="60" viewBox="0 0 60 60"><title>кухонные-полки_3</title><g data-name="Слой 2"><g data-name="Слой 1"><path fill="none" d="M0 0h60v60H0z"/><path d="M22.25 53.48v1.77a1.38 1.38 0 0 1-1.38 1.38 1.38 1.38 0 0 1-1.38-1.38v-1.77M41.85 53.48v1.77a1.38 1.38 0 0 1-1.38 1.38 1.38 1.38 0 0 1-1.38-1.38v-1.77" fill="#dfdbd1" stroke="#692f17" stroke-linejoin="round" stroke-width=".5"/><path d="M44.42 36.67H15.58a2.08 2.08 0 0 0-2.08 2.08v12.8a2.08 2.08 0 0 0 2.08 2.08h28.84a2.08 2.08 0 0 0 2.08-2.08v-12.8a2.08 2.08 0 0 0-2.08-2.08z" fill="#d9d6cc" stroke="#692f17" stroke-linejoin="round"/><path fill="none" stroke="#692f17" stroke-miterlimit="10" stroke-width=".5" d="M30.02 36.54v16.65"/><path d="M37.82 36.82v-8.38a2.59 2.59 0 1 0-5.18 0v1.84" fill="none" stroke="#692f17" stroke-linejoin="round"/><path d="M44.31 33.8a.92.92 0 0 1-.92.92h-2.7a.92.92 0 0 1-.92-.92.92.92 0 0 1 .92-.92h2.7a.92.92 0 0 1 .92.92zM35.45 33.8a.92.92 0 0 1-.92.92h-2.7a.92.92 0 0 1-.92-.92.92.92 0 0 1 .92-.92h2.7a.92.92 0 0 1 .92.92z" fill="#dfdbd1" stroke="#692f17" stroke-linejoin="round" stroke-width=".8"/><path fill="none" stroke="#692f17" stroke-linejoin="round" stroke-width="1.26" d="M42.03 36.82v-1.87M33.18 36.82v-1.87"/><path fill="none" stroke="#692f17" stroke-miterlimit="10" stroke-width=".5" d="M30.02 42.66H13.5M30.02 47.77H13.5"/><circle cx="34.05" cy="41.49" r="1.14" fill="#692f17"/><path d="M17.73 4.41h24.7a2 2 0 0 1 2 2v10.85a2 2 0 0 1-2 2h-24.7a2 2 0 0 1-2-2V6.44a2 2 0 0 1 2-2.03z" fill="#fd8204" stroke="#692f17" stroke-linejoin="round"/><path fill="none" stroke="#692f17" stroke-miterlimit="10" stroke-width=".5" d="M30.4 4.72v14.52"/><circle cx="33.48" cy="15.89" r="1.11" fill="#692f17"/><circle cx="27.12" cy="15.89" r="1.11" fill="#692f17"/></g></g></svg>