<svg xmlns="http://www.w3.org/2000/svg" width="60" height="60" viewBox="0 0 60 60"><path d="M52.89 29.1c-2.71-1.74-7.52-8.44-9.37-10.27A6.38 6.38 0 0 0 39 17H8.14a1.78 1.78 0 0 0-1.78 1.75l-.28 19.12a1.36 1.36 0 0 0 1.36 1.38h3.24v-.22a5.21 5.21 0 0 1 10.43 0v.22h20v-.22a5.21 5.21 0 1 1 10.43 0v.22H52a1.93 1.93 0 0 0 1.93-1.93V31a2.47 2.47 0 0 0-1.04-1.9z" fill="#fff" stroke="#263239" stroke-linejoin="round"/><circle cx="15.85" cy="39.14" r="4.03" fill="#fff" stroke="#ff5a19" stroke-miterlimit="10"/><circle cx="15.85" cy="39.14" r="2.41" fill="#fff" stroke="#ff5a19" stroke-miterlimit="10" stroke-width=".8"/><circle cx="46.28" cy="39.14" r="4.03" fill="#fff" stroke="#ff5a19" stroke-miterlimit="10"/><circle cx="46.28" cy="39.14" r="2.41" fill="#fff" stroke="#ff5a19" stroke-miterlimit="10" stroke-width=".8"/><path d="M47 27.43l-12.39.11a1 1 0 0 1-.85-1v-6.38a.81.81 0 0 1 .72-.88h6.39a1.32 1.32 0 0 1 1 .56l5.45 6.72c.26.35.05.87-.32.87z" fill="#fff" stroke="#263239" stroke-linejoin="round" stroke-width=".8"/><path fill="#fff" stroke="#263239" stroke-linecap="round" stroke-miterlimit="10" stroke-width=".8" d="M6.42 28.66l12.46-.04M6.59 29.63h21.34"/><path fill="#fff" stroke="#263239" stroke-miterlimit="10" stroke-width=".8" d="M31.22 16.83v22.16"/><path fill="#fff" stroke="#263239" stroke-linecap="round" stroke-miterlimit="10" stroke-width=".8" d="M33.9 29.92h2"/></svg>