<svg xmlns="http://www.w3.org/2000/svg" width="60" height="60" viewBox="0 0 60 60"><g data-name="Слой 1"><path fill="none" d="M0 0h60v60H0z"/><path d="M38.18 24a5.33 5.33 0 1 1 5.33-5.33A5.33 5.33 0 0 1 38.18 24zm.08-9.35a4.07 4.07 0 1 0 4.07 4.07 4.07 4.07 0 0 0-4.07-4.1z" fill="#dfdbd1"/><path d="M38.18 13.72a4.93 4.93 0 1 1-4.93 4.93 4.93 4.93 0 0 1 4.93-4.93m.08 9.44a4.47 4.47 0 1 0-4.47-4.47 4.47 4.47 0 0 0 4.47 4.47m-.08-10.24a5.73 5.73 0 1 0 5.73 5.73 5.73 5.73 0 0 0-5.73-5.73zm.08 9.44a3.67 3.67 0 1 1 3.67-3.67 3.67 3.67 0 0 1-3.67 3.67z" fill="#692f17"/><path d="M23.77 19.1h28.81a2.84 2.84 0 0 1 2.84 2.84v19.4a2.84 2.84 0 0 1-2.84 2.84h-28.8a2.85 2.85 0 0 1-2.85-2.85V21.95a2.84 2.84 0 0 1 2.84-2.85z" fill="#dfdbd1" stroke="#692f17" stroke-linejoin="round"/><path d="M55.43 25.55v-3.6a2.84 2.84 0 0 0-2.85-2.84h-28.8a2.84 2.84 0 0 0-2.84 2.84v3.61" fill="#f5f4f0" stroke="#692f17" stroke-linejoin="round"/><path fill="#dfdbd1" stroke="#692f17" stroke-linejoin="round" stroke-width=".8" d="M20.93 25.55h34.5"/><rect x="33.19" y="24.27" width="9.97" height="2.55" rx=".52" ry=".52" fill="#fd8204"/><path d="M42.64 24.67a.12.12 0 0 1 .12.12v1.51a.12.12 0 0 1-.12.12h-8.92a.12.12 0 0 1-.12-.12v-1.5a.12.12 0 0 1 .12-.12h8.93m0-.8h-8.93a.92.92 0 0 0-.92.92v1.51a.92.92 0 0 0 .92.92h8.93a.92.92 0 0 0 .92-.92V24.8a.92.92 0 0 0-.92-.92z" fill="#692f17"/><path d="M32.36 43a4.19 4.19 0 1 1 4.19-4.19A4.2 4.2 0 0 1 32.36 43zm0-6.43a2.24 2.24 0 1 0 2.24 2.24 2.24 2.24 0 0 0-2.24-2.27z" fill="#f5f4f0" stroke="#692f17" stroke-linejoin="round" stroke-width=".8"/><path d="M4.57 33.4a.73.73 0 0 1 .73-.73h19.4a.73.73 0 0 1 .73.73.73.73 0 0 1-.73.73H5.3a.73.73 0 0 1-.73-.73z" fill="#dfdbd1" stroke="#692f17" stroke-linejoin="round" stroke-width=".8"/><path d="M38.29 31.55a2.21 2.21 0 0 0-.17-.86 3.32 3.32 0 0 0-3.17-2.36H20.4a5.07 5.07 0 0 0 0 10.14h12.09l1.12 6.4a2.21 2.21 0 0 0 2.21 2.21h2.6a2.21 2.21 0 0 0 2.21-2.21z" fill="#f5f4f0" stroke="#692f17" stroke-linejoin="round"/><path d="M16.47 30.32a3.19 3.19 0 1 0 0 6.16z" fill="#fd8204" stroke="#692f17" stroke-linejoin="round" stroke-width=".8"/></g></svg>