<svg xmlns="http://www.w3.org/2000/svg" width="30" height="30" viewBox="0 0 30 30"><g data-name="Слой 1"><path fill="none" d="M0 0h30v30H0z"/><path d="M2.5 14.84A12.5 12.5 0 1 1 15 27.34a12.5 12.5 0 0 1-12.5-12.5z" fill="#dfdbd1" stroke="#692f17" stroke-linecap="round" stroke-linejoin="round" stroke-width=".8"/><path d="M4.65 14.84A10.35 10.35 0 1 1 15 25.2 10.35 10.35 0 0 1 4.65 14.84z" fill="#f5f4f0" stroke="#692f17" stroke-linecap="round" stroke-linejoin="round" stroke-width=".5"/><circle cx="7.88" cy="14.84" r=".45" fill="#e18020"/><circle cx="15" cy="7.72" r=".45" fill="#ec8213"/><circle cx="15" cy="21.97" r=".45" fill="#e18020"/><path d="M15 4.49v10.36h10.36S25.46 4.77 15 4.49z" fill="#ec8213" stroke="#692f17" stroke-miterlimit="10" stroke-width=".5"/><circle cx="8.83" cy="18.4" r=".45" transform="rotate(-29.93 8.832 18.395)" fill="#692f17"/><circle cx="21.18" cy="11.29" r=".45" transform="rotate(-29.97 21.179 11.294)" fill="#692f17"/><circle cx="11.45" cy="8.67" r=".45" transform="rotate(-29.93 11.451 8.673)" fill="#692f17"/><circle cx="18.56" cy="21.02" r=".45" transform="rotate(-29.92 18.562 21.019)" fill="#692f17"/><circle cx="11.44" cy="21.02" r=".45" transform="rotate(-60.01 11.44 21.016)" fill="#692f17"/><circle cx="18.57" cy="8.67" r=".45" transform="rotate(-60 18.57 8.677)" fill="#692f17"/><circle cx="8.83" cy="11.28" r=".45" transform="rotate(-59.97 8.833 11.276)" fill="#692f17"/><circle cx="21.17" cy="18.41" r=".45" transform="rotate(-60 21.175 18.403)" fill="#692f17"/><path fill="#dedad0" stroke="#692f17" stroke-linecap="round" stroke-linejoin="round" stroke-width=".8" d="M15 14.84V6.41M14.77 14.84l-4.48-2.58"/><circle cx="15" cy="14.84" r=".94" fill="#692f17"/></g></svg>