<svg xmlns="http://www.w3.org/2000/svg" width="60" height="60" viewBox="0 0 60 60"><g data-name="Слой 1"><path fill="none" d="M0 0h60v60H0z"/><path d="M44.72 15h-2.84a15 15 0 0 0-24.72 0h-2.85a3.5 3.5 0 0 0-3.5 3.5v21.9a3.5 3.5 0 0 0 3.5 3.5h30.41a3.5 3.5 0 0 0 3.5-3.5V18.54a3.5 3.5 0 0 0-3.5-3.54z" fill="#dbd7cd" stroke="#692f17" stroke-linejoin="round"/><ellipse cx="29.52" cy="35.13" rx="19.27" ry="4.73" fill="#f5f4f0" stroke="#692f17" stroke-linejoin="round" stroke-width=".8"/><path d="M47.24 46c0 2.05-1.1 3.72-2.47 3.72H14.26c-1.36 0-2.47-1.66-2.47-3.72v-4.7c0-2.05 1.1-3.72 2.47-3.72h30.52c1.36 0 2.47 1.66 2.47 3.72z" fill="#dbd7cd" stroke="#692f17" stroke-linejoin="round"/><path d="M14.51 31.77a5 5 0 1 0-7.12 4.53v13.22a1.93 1.93 0 0 0 1.93 1.93h3.25a1.93 1.93 0 0 0 1.93-1.93V31.89v-.06c0-.06.01-.04.01-.06zM45.28 31.77a5.11 5.11 0 0 1 10.22 0 5 5 0 0 1-3 4.53v13.2a2 2 0 0 1-2 1.93h-3.25a2 2 0 0 1-2-1.93V31.88v-.06c0-.06.03-.03.03-.05z" fill="#f5f4f0" stroke="#692f17" stroke-linejoin="round"/><circle cx="9.51" cy="31.7" r="1.31" fill="#dbd7cd" stroke="#692f17" stroke-linejoin="round" stroke-width=".8"/><circle cx="50.39" cy="31.7" r="1.31" fill="#dbd7cd" stroke="#692f17" stroke-linejoin="round" stroke-width=".8"/><path d="M39.91 24.91a52.85 52.85 0 0 1 .35-6.17c-2.82-1.42-6.62.87-10.8.87s-7.88-2.31-10.7-.92a52.78 52.78 0 0 1 .36 6.22 52.79 52.79 0 0 1-.36 6.22c2.81 1.39 6.57-.19 10.7-.19s8 1.55 10.8.14a52.85 52.85 0 0 1-.35-6.17z" fill="#fd8204" stroke="#692f17" stroke-linejoin="round" stroke-width=".8"/></g></svg>