<svg xmlns="http://www.w3.org/2000/svg" width="60" height="60" viewBox="0 0 60 60"><title>шторы_1</title><g data-name="Слой 2"><g data-name="Слой 1"><path fill="none" d="M0 0h60v60H0z"/><path fill="#d9d6cc" d="M11.34 39.31l-.3 11.08 8.77-.17-2.89-7.86-5.58-3.05z"/><path d="M28.46 11.92a2.87 2.87 0 1 1-5.74 0M22.72 11.92a2.87 2.87 0 1 1-5.73 0M17 11.92a2.87 2.87 0 1 1-5.73 0" fill="none" stroke="#692f17" stroke-linejoin="round" stroke-width=".88"/><path d="M19.87 50.8c0-5.93-3.33-10.75-7.5-11" fill="#d9d6cc" stroke="#692f17" stroke-linejoin="round" stroke-width=".8"/><path d="M12 39.81h.41" fill="#f5f4f0" stroke="#692f17" stroke-linejoin="round" stroke-width="1.58"/><path d="M11.55 40c2.52 1.18 4 5.31 4 10.49" fill="none" stroke="#692f17" stroke-linejoin="round" stroke-width=".8"/><path d="M10.81 50.8c1.17 0 1.22-.88 2.4-.88s1.15.88 2.37.88 1.17-.89 2.39-.89 1.14.88 2.31.89M20.29 50.8" fill="#f5f4f0" stroke="#692f17" stroke-linejoin="round" stroke-width=".8"/><path d="M11.26 50.8V39.64h-.13zM28.56 11.93h-.28a2.74 2.74 0 0 1-5.45 0h-.3a2.74 2.74 0 0 1-5.45 0h-.2a2.74 2.74 0 0 1-5.45 0h-.17v27.71c10.1-3.13 17.3-14.28 17.3-27.71z" fill="#d9d6cc" stroke="#692f17" stroke-linejoin="round" stroke-width=".8"/><path d="M11.12 39.69c6.77-3.08 11.51-14.27 11.51-27.76M11.2 39.81c3.33-3.08 5.8-14.39 5.8-27.88" fill="none" stroke="#692f17" stroke-linejoin="round" stroke-width=".8"/><path fill="#d9d6cc" d="M48.53 39.31l.3 11.08-8.77-.17 2.89-7.86 5.58-3.05z"/><path d="M31.41 11.92a2.87 2.87 0 1 0 5.74 0M37.15 11.92a2.87 2.87 0 1 0 5.73 0M42.88 11.92a2.87 2.87 0 1 0 5.73 0" fill="none" stroke="#692f17" stroke-linejoin="round" stroke-width=".88"/><path d="M40 50.8c0-5.93 3.33-10.75 7.5-11" fill="#d9d6cc" stroke="#692f17" stroke-linejoin="round" stroke-width=".8"/><path d="M47.91 39.81h-.41" fill="#f5f4f0" stroke="#692f17" stroke-linejoin="round" stroke-width="1.58"/><path d="M48.32 40c-2.52 1.18-4 5.31-4 10.49" fill="none" stroke="#692f17" stroke-linejoin="round" stroke-width=".8"/><path d="M49.06 50.8c-1.17 0-1.22-.88-2.4-.88s-1.15.88-2.37.88-1.17-.89-2.39-.89-1.14.88-2.31.89M39.59 50.8" fill="#f5f4f0" stroke="#692f17" stroke-linejoin="round" stroke-width=".8"/><path d="M48.62 50.8V39.64h.13zM31.31 11.93h.28a2.74 2.74 0 0 0 5.45 0h.3a2.74 2.74 0 0 0 5.45 0H43a2.74 2.74 0 0 0 5.45 0h.17v27.71c-10.11-3.13-17.31-14.28-17.31-27.71z" fill="#d9d6cc" stroke="#692f17" stroke-linejoin="round" stroke-width=".8"/><path d="M48.75 39.69C42 36.61 37.24 25.42 37.24 11.93M48.67 39.81c-3.33-3.08-5.79-14.39-5.79-27.88" fill="none" stroke="#692f17" stroke-linejoin="round" stroke-width=".8"/><path fill="#fd8204" stroke="#692f17" stroke-linejoin="round" d="M8.62 9.2h42.77v2.67H8.62z"/></g></g></svg>