<svg xmlns="http://www.w3.org/2000/svg" width="105" height="105" viewBox="0 0 105 105"><title>средства</title><g data-name="Слой 2"><g data-name="Слой 1"><path fill="none" d="M0 0h105v105H0z"/><path d="M21.86 39.05a6.57 6.57 0 0 0 7.31 1.36L51.58 65l5.5-5.5L32.54 37a6.56 6.56 0 0 0-1.35-7.3" fill="#dad6cc" stroke="#782b0e" stroke-linecap="round" stroke-linejoin="round" stroke-width="2" fill-rule="evenodd"/><path d="M8.27 43.35l2.7 2.7a2.75 2.75 0 0 0 3.89 0l23.32-23.31a2.75 2.75 0 0 0 0-3.89l-2.7-2.71" fill="#e0dbd1" stroke="#782b0e" stroke-linejoin="round" fill-rule="evenodd"/><path fill="#ff8200" d="M4.316 39.64l27.421-27.422 3.875 3.875L8.191 43.514z"/><path d="M31.74 12.91l3.17 3.17L8.19 42.8 5 39.63l26.74-26.72m0-1.41L3.61 39.63l4.58 4.58 28.13-28.13-4.58-4.58z" fill="#782b0e"/><path d="M92.09 44.87c-.61-8.09-6.24-14.43-13.09-14.43s-12.47 6.34-13.09 14.43a2.13 2.13 0 0 0-.06.49v26.76A2.15 2.15 0 0 0 68 74.26h22a2.15 2.15 0 0 0 2.15-2.15V45.36a2.22 2.22 0 0 0-.06-.49z" fill="#ff8200" stroke="#782b0e" stroke-miterlimit="10" stroke-width="2"/><path d="M83.18 26h-8.36a.78.78 0 0 0-.78.78v3.92H84v-3.95a.78.78 0 0 0-.82-.75z" fill="#e0dbd1" stroke="#782b0e" stroke-miterlimit="10" stroke-width="2"/><path d="M50.91 21.85a10.65 10.65 0 0 1-3.51 8.78 34.69 34.69 0 0 1-4.62 3.25l.72.77a20.17 20.17 0 0 0 7.83-4.45c4.19-4.19 3.44-8.35 3.44-8.35z" fill="#f5f3ef" stroke="#782b0e" stroke-miterlimit="10"/><path d="M43.73 16.55h3.52a.68.68 0 0 1 .68.68v2.92a.67.67 0 0 1-.67.67h-3.53a.67.67 0 0 1-.67-.67v-2.93a.68.68 0 0 1 .67-.67z" fill="#e4c19e" stroke="#782b0e" stroke-miterlimit="10"/><path d="M74.33 48.67a14 14 0 1 0-28 0v23.25a5.82 5.82 0 0 0 5.82 5.82h16.37a5.82 5.82 0 0 0 5.81-5.82V48.84v-.09-.08z" fill="#dad6cc" stroke="#782b0e" stroke-linecap="round" stroke-linejoin="round" stroke-width="2"/><path d="M66.38 15.77H47.69a1.4 1.4 0 0 0-1.4 1.4v3.29a1.4 1.4 0 0 0 1.4 1.4h7.08l2.53 7.44a1 1 0 0 0-.89 1v5h7.81v-5a1 1 0 0 0-1-1v-7.45h3.19a1.4 1.4 0 0 0 1.4-1.4v-3.28a1.4 1.4 0 0 0-1.43-1.4z" fill="#f5f3ef" stroke="#782b0e" stroke-linecap="round" stroke-linejoin="round" stroke-width="2"/><path fill="#f5f3ef" stroke="#782b0e" stroke-miterlimit="10" d="M57.03 29.81h6.45"/><path d="M22 63.19l4 25.37a4.94 4.94 0 0 0 5 4.94h56.29a4.94 4.94 0 0 0 4.94-4.94l4-25.37z" fill="#d9dfe0" stroke="#782b0e" stroke-linecap="round" stroke-linejoin="round" stroke-width="2"/><rect x="16.86" y="55.87" width="84.53" height="7.32" rx="1.69" ry="1.69" fill="#f5f3ef" stroke="#692f17" stroke-linecap="round" stroke-linejoin="round" stroke-width="2"/><path d="M51.17 55.87L45 62.68s0 5.47-1.22 8c-.73 1.48-3.73 8.57-6.6 7-1.58-.84 1.82-7.74 1.82-7.74l-10 9.78a2 2 0 0 1-2.85-2.85l-1.65 1.65a2 2 0 0 1-2.85-2.85l1.34-1.34a2 2 0 0 1-2.5-3.13l2.92-2.92a2 2 0 1 1-2.85-2.85l8.8-8.8 2-2a37.63 37.63 0 0 1 11-1c6.78.55 8.81 2.24 8.81 2.24z" fill="#ff8200" stroke="#782b0e" stroke-miterlimit="10" fill-rule="evenodd"/><path fill="#ff8200" stroke="#782b0e" stroke-miterlimit="10" d="M26.26 76.82l6.01-6.01M23.05 74.33l6.8-6.8M23.6 68.15l3.74-3.73M38.33 70.64l2.41-2.4"/><path d="M48.1 54.75l-.1 2.61s-3.73 4-4.56 6.63c-.49 1.56-3.2 8.73-.12 9.5 1.68.42 4-6.89 4-6.89l.38 13.71a1.9 1.9 0 0 0 2 1.87 2.07 2.07 0 0 0 1.94-2.09v2.3a1.9 1.9 0 0 0 2 1.87 2.07 2.07 0 0 0 1.94-2.09v-1.86a1.89 1.89 0 0 0 2 1.44 2.07 2.07 0 0 0 1.94-2.09l-.08-4.07a1.9 1.9 0 0 0 2 1.88 2.07 2.07 0 0 0 1.94-2.09l-.23-12.24c-.07-3.78 0-8.57 0-8.57s-1.57-.51-7.21-.55a39.35 39.35 0 0 0-7.84.73z" fill="#ff8200" stroke="#782b0e" stroke-miterlimit="10" fill-rule="evenodd"/><path fill="#ff8200" stroke="#782b0e" stroke-miterlimit="10" d="M51.63 80.03l-.15-8.36M55.6 80.32l-.18-9.45M59.42 75.43l-.1-5.19M47.31 67.56l-.06-3.34"/></g></g></svg>