<svg xmlns="http://www.w3.org/2000/svg" width="60" height="60" viewBox="0 0 60 60"><path d="M32.66 49.71V51a1 1 0 0 0 1 1h2.04a1 1 0 0 0 1-1v-1.29M12.1 49.71V51a1 1 0 0 0 1 1h2.06a1 1 0 0 0 1-1v-1.29" fill="#fff" stroke="#263239" stroke-linejoin="round" stroke-width=".8"/><path d="M38.71 47.54A2.72 2.72 0 0 1 35.8 50H13.47a2.71 2.71 0 0 1-2.91-2.46V8a2.71 2.71 0 0 1 2.91-2.46H35.8A2.71 2.71 0 0 1 38.71 8z" fill="#fff" stroke="#263239" stroke-linecap="round" stroke-linejoin="round"/><circle cx="26.44" cy="33.14" r=".68" fill="#263239"/><circle cx="22.84" cy="33.13" r=".68" fill="#263239"/><path fill="none" stroke="#263239" stroke-linejoin="round" stroke-width=".6" d="M10.42 29.99h27.81"/><path fill="none" stroke="#263239" stroke-linejoin="round" stroke-width=".8" d="M24.63 30.05v19.83"/><path d="M13 6.89h23.3a1 1 0 0 1 1 1v22H12v-22a1 1 0 0 1 1-1z" fill="#fff" stroke="#263239" stroke-linecap="round" stroke-linejoin="round" stroke-width=".5"/><path d="M13 6.89h23.3a1 1 0 0 1 1 1v22H12v-22a1 1 0 0 1 1-1z" fill="#fff" stroke="#263239" stroke-linecap="round" stroke-linejoin="round" stroke-width=".8"/><path fill="none" stroke="#263239" stroke-linecap="round" stroke-linejoin="round" stroke-width=".8" d="M12.21 14.61h24.92M12.21 22.28h24.92"/><path fill="#fff" d="M23.89 25.57l-6.81 6.78 15.04 15.33 15-14.62-9.73-9.79-13.5 2.3z"/><path d="M45.8 43.53l-.25-4.09-1.84-2.91-2.16 2-6-5.66a1.56 1.56 0 0 0-1.59-.16 1.31 1.31 0 0 0-.41 1.44l-1-.87s-1-.25-1.5.31-.47 1.32.49 2.37a2 2 0 0 0-1.37.47 1.39 1.39 0 0 0 .09 2 9.73 9.73 0 0 0 1.22 1.19s-1.06.16-1.34.69a1.31 1.31 0 0 0 .25 1.69l12 12a6.56 6.56 0 0 0 3.73-1.59 11.83 11.83 0 0 0 2.81-3.81l.46-1.6z" fill="#fff"/><path d="M32.35 48.23a.44.44 0 0 0 .31-.13l1.91-1.91a.45.45 0 0 0-.63-.63l-1.59 1.59-14.69-14.68L24 26.09l13.11-2.46 9.4 9.37-3.22 3.22a.44.44 0 0 0 0 .63.45.45 0 0 0 .63 0l3.54-3.53a.47.47 0 0 0 .13-.32.45.45 0 0 0-.13-.31l-9.84-9.85a.44.44 0 0 0-.4-.12l-13.49 2.52a.4.4 0 0 0-.23.12l-6.79 6.79a.45.45 0 0 0 0 .63L32 48.1a.45.45 0 0 0 .35.13z" fill="#ff5a19"/><path d="M42.43 54.46h.05a10.37 10.37 0 0 0 4.83-2.86 9.76 9.76 0 0 0 2.26-4.38.23.23 0 0 0-.18-.26.22.22 0 0 0-.26.18A9.52 9.52 0 0 1 47 51.3a10.08 10.08 0 0 1-4.62 2.7.22.22 0 0 0 .05.44z" fill="#263239"/><path d="M42.27 54.49a.45.45 0 0 0 .32-.76s-4.7-4.84-6.41-6.55l-5.57-5.58a.83.83 0 1 1 1.17-1.17.45.45 0 1 0 .64-.63l-1.85-1.85a.84.84 0 0 1 0-1.17.82.82 0 0 1 1-.11.45.45 0 0 0 .59-.1.44.44 0 0 0 0-.59l-.85-.85a.83.83 0 0 1 .59-1.42.82.82 0 0 1 .58.24l1 1a.45.45 0 0 0 .63 0 .45.45 0 0 0 .13-.32.43.43 0 0 0-.13-.32.83.83 0 0 1 1.18-1.18l5.87 5.76a.45.45 0 0 0 .63 0l1.73-1.71a3.2 3.2 0 0 1 1.32 1.67 17.27 17.27 0 0 1 .41 4.74.45.45 0 0 0 .13.34l3.37 3.41a.44.44 0 0 0 .63 0 .45.45 0 0 0 0-.63l-3.24-3.27a17.35 17.35 0 0 0-.47-4.86 3.76 3.76 0 0 0-2.15-2.36.44.44 0 0 0-.43.11L41.51 38 36 32.54a1.72 1.72 0 0 0-2.44 0 1.69 1.69 0 0 0-.44.74 1.7 1.7 0 0 0-1.2-.48 1.72 1.72 0 0 0-1.26 2.91 1.76 1.76 0 0 0-.7.42 1.73 1.73 0 0 0 0 2.44l.79.78a1.73 1.73 0 0 0-.75 2.89l5.58 5.58c1.7 1.7 6.35 6.49 6.4 6.54a.43.43 0 0 0 .29.13z" fill="#263239"/><path d="M37.67 39a.45.45 0 0 0 .32-.76l-3.81-3.81a.45.45 0 1 0-.63.63l3.81 3.81a.45.45 0 0 0 .31.13zM36.14 41a.44.44 0 0 0 .32-.76L32.14 36a.45.45 0 1 0-.63.63l4.31 4.31a.45.45 0 0 0 .32.06zM34.54 43a.45.45 0 0 0 .32-.76l-2.37-2.37a.45.45 0 0 0-.63.63l2.37 2.37a.43.43 0 0 0 .31.13z" fill="#263239"/><path d="M30.85 31.72a.23.23 0 0 0 .17-.08l6.71-8.08a.23.23 0 0 0-.35-.29l-6.57 7.92-6.92-5.61a.22.22 0 0 0-.31 0 .23.23 0 0 0 0 .31l7.1 5.75a.23.23 0 0 0 .17.08z" fill="#ff5a19"/><path d="M43 40.59a.45.45 0 0 0 .32-.76l-1.49-1.53a.45.45 0 0 0-.63.63l1.52 1.52a.45.45 0 0 0 .28.14z" fill="#263239"/><path d="M41.84 36.13A.21.21 0 0 0 42 36c0-.11.16-.81-.76-3.84a19 19 0 0 0-4-6.34.22.22 0 0 0-.31 0 .22.22 0 0 0 0 .32 19 19 0 0 1 3.9 6.16c.88 2.92.76 3.56.76 3.59a.23.23 0 0 0 .16.27z" fill="#ff5a19"/><path d="M39.16 32.6a.22.22 0 0 0 .19-.26c-.64-3.76-2.35-4.91-2.42-5a.22.22 0 0 0-.31.06.22.22 0 0 0 .06.31s1.62 1.11 2.22 4.66a.23.23 0 0 0 .26.23z" fill="#ff5a19"/></svg>