<svg xmlns="http://www.w3.org/2000/svg" width="60" height="60" viewBox="0 0 60 60"><g data-name="Слой 2"><g data-name="Слой 1"><path fill="none" d="M0 0h60v60H0z"/><path d="M1.45 34.13h44.4V39H2.22a.77.77 0 0 1-.77-.77v-4.1z" fill="#d9d6cc" stroke="#692f17" stroke-linecap="round" stroke-miterlimit="10" stroke-width=".8"/><path d="M57.81 26.67L46.49 39c-.44.14-.7-.15-.7-.57V35a1.88 1.88 0 0 1 .56-1.41l10.78-11.53c1.11-.69 1.28-.74 1.28-.33l.08 3.27a2.37 2.37 0 0 1-.68 1.67z" fill="#d9d6cc" stroke="#692f17" stroke-linecap="round" stroke-miterlimit="10" stroke-width=".8"/><path d="M44.82 34.21s-35.26-.09-42.69 0a.57.57 0 0 1-.42-.95l11.86-10.88a4.07 4.07 0 0 1 3-1.36h41.21c.58 0 .85.66-.19 1.55L47 33a4.16 4.16 0 0 1-2.18 1.21z" fill="#f5f4f0" stroke="#692f17" stroke-linecap="round" stroke-miterlimit="10"/><path d="M10 31.12a1.26 1.26 0 0 1 1 .12c.2.16.09.36-.24.45a1.26 1.26 0 0 1-1-.12c-.23-.16-.12-.36.24-.45z" fill="#692f17"/><path fill="#692f17" d="M9.83 31.55l.14.11-.42.04-.43.04.28-.15.29-.16.14.12zM10.72 31.31l-.14-.12.43-.03.43-.04-.29.15-.28.15-.15-.11zM10.6 31.62l.25-.06.09.2.09.2-.33-.14-.34-.13.24-.07zM10.07 31.2l-.24.06-.1-.2-.09-.2.34.14.33.14-.24.06zM14.55 26.37a1.26 1.26 0 0 1 1 .12c.2.16.09.36-.24.45a1.26 1.26 0 0 1-1-.12c-.21-.16-.1-.36.24-.45z"/><path fill="#692f17" d="M14.4 26.79l.15.11-.43.04-.43.04.28-.15.29-.15.14.11zM15.3 26.55l-.15-.11.43-.04.43-.04-.28.15-.29.15-.14-.11zM15.18 26.87l.24-.07.09.2.09.2-.33-.13-.33-.14.24-.06zM14.64 26.44l-.24.07-.09-.2-.09-.2.33.13.33.14-.24.06zM17.93 31.24a1.26 1.26 0 0 1 1 .12c.2.16.09.36-.24.45a1.26 1.26 0 0 1-1-.12c-.21-.16-.1-.36.24-.45z"/><path fill="#692f17" d="M17.78 31.66l.15.11-.43.04-.43.04.29-.15.28-.15.14.11zM18.68 31.42l-.14-.11.42-.04.43-.04-.28.15-.29.16-.14-.12zM18.56 31.74l.24-.07.09.2.09.2-.33-.13-.33-.14.24-.06zM18.02 31.31l-.24.07-.09-.2-.09-.2.33.13.34.14-.25.06zM22.42 26.67a1.26 1.26 0 0 1 1 .12c.2.16.09.36-.24.45a1.26 1.26 0 0 1-1-.12c-.18-.12-.09-.36.24-.45z"/><path fill="#692f17" d="M22.28 27.09l.14.12-.42.04-.43.03.28-.15.29-.15.14.11zM23.18 26.85l-.15-.11.43-.04.43-.04-.29.16-.28.15-.14-.12zM23.05 27.17l.25-.06.09.19.09.21-.33-.14-.34-.14.24-.06zM22.52 26.75l-.24.06-.1-.2-.09-.2.34.14.33.13-.24.07zM18.05 22.38a1.26 1.26 0 0 1 1 .12c.2.16.09.36-.24.45a1.26 1.26 0 0 1-1-.12c-.2-.16-.09-.36.24-.45z"/><path fill="#692f17" d="M17.91 22.8l.14.11-.42.04-.43.04.28-.15.29-.16.14.12zM18.81 22.56l-.15-.11.43-.04.43-.04-.29.15-.28.15-.14-.11zM18.68 22.88l.25-.07.09.2.09.2-.33-.14-.34-.13.24-.06zM18.15 22.45l-.24.07-.09-.2-.1-.2.34.13.33.14-.24.06zM25.88 31.35a1.26 1.26 0 0 1 1 .12c.2.16.09.36-.24.45a1.26 1.26 0 0 1-1-.12c-.2-.16-.09-.36.24-.45z"/><path fill="#692f17" d="M25.74 31.77l.14.12-.43.04-.42.03.28-.15.28-.15.15.11zM26.63 31.54l-.14-.12.43-.04.43-.04-.29.16-.28.15-.15-.11zM26.51 31.85l.24-.06.1.2.09.2-.33-.14-.34-.14.24-.06zM25.98 31.43l-.25.06-.09-.2-.09-.2.34.14.33.13-.24.07zM30.67 26.51a1.26 1.26 0 0 1 1 .12c.2.16.09.36-.24.45a1.26 1.26 0 0 1-1-.12c-.2-.15-.09-.36.24-.45z"/><path fill="#692f17" d="M30.53 26.94l.14.11-.43.04-.42.04.28-.15.28-.16.15.12zM31.42 26.7l-.14-.12.43-.03.43-.04-.29.15-.28.15-.15-.11zM31.3 27.01l.24-.06.1.2.09.2-.34-.14-.33-.13.24-.07zM30.77 26.59l-.25.07-.09-.21-.09-.2.34.14.33.14-.24.06zM26 22.49a1.26 1.26 0 0 1 1 .12c.2.16.09.36-.24.45a1.26 1.26 0 0 1-1-.12c-.2-.16-.09-.36.24-.45z"/><path fill="#692f17" d="M25.86 22.91l.15.12-.43.04-.43.03.29-.15.28-.15.14.11zM26.76 22.67l-.14-.11.42-.04.43-.04-.28.16-.28.15-.15-.12zM26.64 22.99l.24-.07.09.21.1.19-.34-.13-.33-.14.24-.06zM26.1 22.57l-.24.06-.09-.2-.09-.2.33.13.34.14-.25.07zM33.84 31.47a1.26 1.26 0 0 1 1 .12c.2.16.09.36-.24.45a1.26 1.26 0 0 1-1-.12c-.21-.16-.1-.36.24-.45z"/><path fill="#692f17" d="M33.69 31.89l.15.11-.43.04-.43.04.28-.15.29-.16.14.12zM34.59 31.65l-.15-.12.43-.03.43-.04-.28.15-.29.15-.14-.11zM34.47 31.96l.24-.06.09.2.09.2-.33-.14-.33-.13.24-.07zM33.93 31.54l-.24.07-.09-.2-.09-.21.33.14.33.14-.24.06zM38.22 26.73a1.26 1.26 0 0 1 1 .12c.2.16.09.36-.24.45a1.26 1.26 0 0 1-1-.12c-.21-.18-.1-.36.24-.45z"/><path fill="#692f17" d="M38.07 27.15l.15.12-.43.03-.43.04.28-.15.29-.15.14.11zM38.97 26.91l-.15-.11.43-.04.43-.04-.28.16-.29.15-.14-.12zM38.85 27.23l.24-.07.09.2.09.21-.33-.14-.34-.14.25-.06zM38.31 26.81l-.24.06-.09-.2-.1-.2.34.14.33.13-.24.07zM34 22.6a1.26 1.26 0 0 1 1 .12c.2.16.09.36-.24.45a1.26 1.26 0 0 1-1-.12c-.24-.16-.13-.36.24-.45z"/><path fill="#692f17" d="M33.82 23.03l.14.11-.43.04-.42.04.28-.15.28-.16.15.12zM34.72 22.79l-.15-.12.43-.03.43-.04-.29.15-.28.15-.14-.11zM34.59 23.1l.25-.06.09.2.09.2-.33-.14-.34-.13.24-.07zM34.06 22.68l-.24.06-.1-.2-.09-.2.34.14.33.13-.24.07zM41.79 31.58a1.26 1.26 0 0 1 1 .12c.2.16.09.36-.24.45a1.26 1.26 0 0 1-1-.12c-.21-.16-.1-.36.24-.45z"/><path fill="#692f17" d="M41.65 32l.14.12-.43.03-.43.04.29-.15.28-.15.15.11zM42.54 31.76l-.14-.11.43-.04.42-.04-.28.15-.28.16-.15-.12zM42.42 32.08l.24-.07.1.2.09.2-.34-.13-.33-.14.24-.06zM41.89 31.66l-.25.06-.09-.2-.09-.2.33.13.34.14-.24.07zM45.86 27.26a1.26 1.26 0 0 1 1 .12c.2.16.09.36-.24.45a1.26 1.26 0 0 1-1-.12c-.2-.16-.09-.36.24-.45z"/><path fill="#692f17" d="M45.72 27.68l.14.12-.43.04-.42.03.28-.15.28-.15.15.11zM46.61 27.44l-.14-.11.43-.04.43-.04-.29.16-.28.15-.15-.12zM46.49 27.76l.24-.07.1.2.09.21-.33-.14-.34-.14.24-.06zM45.96 27.34l-.24.06-.1-.2-.09-.2.34.14.33.13-.24.07zM41.92 22.72a1.26 1.26 0 0 1 1 .12c.2.16.09.36-.24.45a1.26 1.26 0 0 1-1-.12c-.21-.17-.1-.36.24-.45z"/><path fill="#692f17" d="M41.77 23.14l.15.11-.43.04-.43.04.28-.15.29-.15.14.11zM42.67 22.9l-.15-.11.43-.04.43-.04-.28.15-.29.16-.14-.12zM42.55 23.22l.24-.07.09.2.09.2-.33-.13-.33-.14.24-.06zM42.01 22.79l-.24.07-.09-.2-.09-.2.33.13.33.14-.24.06zM49.87 22.83a1.26 1.26 0 0 1 1 .12c.2.16.09.36-.24.45a1.26 1.26 0 0 1-1-.12c-.2-.16-.09-.36.24-.45z"/><path fill="#692f17" d="M49.73 23.25l.14.12-.43.04-.42.04.28-.16.28-.15.15.11zM50.62 23.02l-.14-.12.43-.04.43-.04-.29.16-.28.15-.15-.11zM50.5 23.33l.24-.06.1.2.09.2-.34-.14-.33-.14.24-.06zM49.97 22.91l-.24.06-.1-.2-.09-.2.34.14.33.13-.24.07z"/></g></g></svg>