<svg xmlns="http://www.w3.org/2000/svg" width="60" height="60" viewBox="0 0 60 60"><g data-name="Слой 2"><g data-name="Слой 1"><path fill="none" d="M0 0h60v60H0z"/><path d="M16.14 50v1.38A2.15 2.15 0 0 1 14 53.5a2.16 2.16 0 0 1-2.16-2.15V50M47.86 50v1.38a2.16 2.16 0 0 1-2.15 2.15 2.16 2.16 0 0 1-2.16-2.15V50" fill="#d9d5cb" stroke="#692f17" stroke-linecap="round" stroke-miterlimit="10" stroke-width=".8"/><rect x="9.74" y="9.44" width="40.53" height="40.53" rx="4" ry="4" fill="#dbd8cd" stroke="#692f17" stroke-linecap="round" stroke-miterlimit="10"/><rect x="13.75" y="25.54" width="32.49" height="18.01" rx="2.16" ry="2.16" fill="#f5f1eb" stroke="#692f17" stroke-linecap="round" stroke-miterlimit="10"/><path d="M12.75 9A2.3 2.3 0 0 1 15 6.69h30A2.3 2.3 0 0 1 47.31 9" fill="#f5f1eb" stroke="#692f17" stroke-linecap="round" stroke-miterlimit="10" stroke-width=".8"/><path fill="none" stroke="#692f17" stroke-linecap="round" stroke-miterlimit="10" stroke-width=".88" d="M9.74 21.84h40.52"/><circle cx="18.26" cy="16.26" r="2.12" fill="#fd8204" stroke="#692f17" stroke-linecap="round" stroke-miterlimit="10" stroke-width=".8"/><circle cx="41.43" cy="16.26" r="2.12" fill="#fd8204" stroke="#692f17" stroke-linecap="round" stroke-miterlimit="10" stroke-width=".8"/><circle cx="33.71" cy="16.26" r="2.12" fill="#fd8204" stroke="#692f17" stroke-linecap="round" stroke-miterlimit="10" stroke-width=".8"/><circle cx="25.99" cy="16.26" r="2.12" fill="#fd8204" stroke="#692f17" stroke-linecap="round" stroke-miterlimit="10" stroke-width=".8"/><path fill="none" stroke="#692f17" stroke-linecap="round" stroke-miterlimit="10" stroke-width=".8" d="M13.75 41.39h31.96M18.26 25.54v15.53M41.43 25.92v15.15"/></g></g></svg>