<svg xmlns="http://www.w3.org/2000/svg" xmlns:xlink="http://www.w3.org/1999/xlink" width="46.49" height="46.28" viewBox="0 0 46.49 46.28"><defs><clipPath id="a" transform="translate(0 -1.86)"><path d="M22.45,0V27.29h9.7a2.58,2.58,0,0,1,2.58,2.58v5h2.55a1.33,1.33,0,0,1,1.37,1.29l-1.37,9.65H52.13V0Z" fill="none"/></clipPath></defs><title>General-work-desktop-2</title><g clip-path="url(#a)"><path d="M40.82,42.54V43.7a.89.89,0,0,0,.89.89h1.87a.89.89,0,0,0,.89-.89V42.54" transform="translate(0 -1.86)" fill="#ededed" stroke="#682f24" stroke-linejoin="round" stroke-width="0.5"/><path d="M25.76,42.54V43.7a.89.89,0,0,0,.89.89h1.87a.89.89,0,0,0,.89-.89V42.54" transform="translate(0 -1.86)" fill="none" stroke="#682f24" stroke-linejoin="round" stroke-width="0.6"/><path d="M26.6.5H43.76A2.23,2.23,0,0,1,46,2.73v36a2.24,2.24,0,0,1-2.24,2.24H26.6a2.24,2.24,0,0,1-2.24-2.24v-36A2.24,2.24,0,0,1,26.6.5Z" fill="#dce1e2" stroke="#682f24" stroke-linecap="round" stroke-linejoin="round"/><line x1="24.37" y1="6.9" x2="45.99" y2="6.9" fill="none" stroke="#682f24" stroke-linejoin="round" stroke-width="0.5"/><line x1="35.18" y1="0.5" x2="35.18" y2="40.95" fill="none" stroke="#682f24" stroke-linejoin="round" stroke-width="0.5"/><circle cx="32.4" cy="22.68" r="1.18" fill="#682f24"/><circle cx="37.88" cy="22.68" r="1.18" fill="#682f24"/></g><path d="M30.48,46.5H7.88L4.19,35.28V29.87a2.58,2.58,0,0,1,2.58-2.58H32.15a2.58,2.58,0,0,1,2.58,2.58v5.42" transform="translate(0 -1.86)" fill="#e2ddd3" stroke="#682f24" stroke-miterlimit="10"/><path d="M7.87,46.35a1.29,1.29,0,0,1-1.29,1.29H3.15a1.29,1.29,0,0,1-1.29-1.29L.5,36.12a1.29,1.29,0,0,1,1.29-1.29H6.58a1.29,1.29,0,0,1,1.29,1.29Z" transform="translate(0 -1.86)" fill="#e2ddd3" stroke="#682f24" stroke-miterlimit="10"/><path d="M30.81,46.35a1.33,1.33,0,0,0,1.37,1.29h3.64a1.33,1.33,0,0,0,1.37-1.29l1.45-10.23a1.33,1.33,0,0,0-1.37-1.29H32.18a1.33,1.33,0,0,0-1.37,1.29Z" transform="translate(0 -1.86)" fill="#e2ddd3" stroke="#682f24" stroke-miterlimit="10"/><line x1="7.88" y1="38.72" x2="30.48" y2="38.72" fill="none" stroke="#682f24" stroke-miterlimit="10" stroke-width="0.5"/><line x1="7.87" y1="35.62" x2="30.81" y2="35.62" fill="none" stroke="#682f24" stroke-miterlimit="10" stroke-width="0.5"/><line x1="19.46" y1="25.88" x2="19.46" y2="35.66" fill="none" stroke="#682f24" stroke-miterlimit="10" stroke-width="0.5"/><path d="M15.17,5.72H8.38L6.42,16c0,.57,2.39,1,5.35,1s5.35-.47,5.35-1Z" transform="translate(0 -1.86)" fill="#fd8204" stroke="#682f24" stroke-linejoin="round"/><line x1="11.77" y1="15.57" x2="11.77" y2="25.43" fill="none" stroke="#682f24" stroke-linejoin="round"/><line x1="11.77" y1="3.86" x2="11.77" y2="15.23" fill="none" stroke="#682f24" stroke-linejoin="round" stroke-width="0.5"/><line x1="13.42" y1="3.86" x2="14.68" y2="15.06" fill="none" stroke="#682f24" stroke-linejoin="round" stroke-width="0.5"/><line x1="9.95" y1="3.86" x2="8.84" y2="15.06" fill="none" stroke="#682f24" stroke-linejoin="round" stroke-width="0.5"/></svg>