<svg xmlns="http://www.w3.org/2000/svg" width="30" height="30" viewBox="0 0 30 30"><title>процент</title><g id="Слой_2" data-name="Слой 2"><g id="Слой_1-2" data-name="Слой 1"><rect width="30" height="30" fill="none"/><rect x="3.68" y="3.68" width="22.64" height="22.64" rx="1.95" ry="1.95" fill="#fd8204" stroke="#692f17" stroke-miterlimit="10" stroke-width="0.8"/><path d="M11.22,9.68a1.81,1.81,0,0,1,1.6.85,3.46,3.46,0,0,1,.57,2,3,3,0,0,1-.64,2.05,2,2,0,0,1-2.65.39,2.28,2.28,0,0,1-.8-1A3.45,3.45,0,0,1,9,12.49,3.54,3.54,0,0,1,9.3,11a2.22,2.22,0,0,1,.83-1A2,2,0,0,1,11.22,9.68Zm0,.43a.84.84,0,0,0-.69.46,4,4,0,0,0-.3,1.92,5.93,5.93,0,0,0,.17,1.62,1.33,1.33,0,0,0,.4.65.59.59,0,0,0,.4.14.74.74,0,0,0,.63-.4,3.75,3.75,0,0,0,.38-2,4,4,0,0,0-.37-2A.71.71,0,0,0,11.2,10.11Zm7.86-.43-7.53,11h-.68l7.53-11Zm-.35,5.44a2,2,0,0,1,1.08.34,2.22,2.22,0,0,1,.83,1,3.49,3.49,0,0,1,.29,1.44A3,3,0,0,1,20.26,20a2,2,0,0,1-1.53.71,1.94,1.94,0,0,1-1.08-.34,2.33,2.33,0,0,1-.82-1,3.36,3.36,0,0,1-.3-1.45,3.5,3.5,0,0,1,.3-1.46,2.2,2.2,0,0,1,.82-1A2,2,0,0,1,18.71,15.12Zm0,.4a.76.76,0,0,0-.63.41,4.09,4.09,0,0,0-.34,2,3.73,3.73,0,0,0,.35,1.91.75.75,0,0,0,.63.39.77.77,0,0,0,.63-.42,3.66,3.66,0,0,0,.37-1.91,4,4,0,0,0-.37-2A.73.73,0,0,0,18.71,15.53Z" fill="#f5f4f0"/></g></g></svg>