<svg xmlns="http://www.w3.org/2000/svg" width="20" height="18.3" viewBox="0 0 20 18.3"><path d="M10 0C4.48 0 0 4.1 0 9.15s4.48 9.15 10 9.15 10-4.1 10-9.15S15.52 0 10 0zm0 17.82a7.34 7.34 0 0 1-7.06-7.59A8 8 0 0 1 3.62 7 17.56 17.56 0 0 0 10 8.16 17.56 17.56 0 0 0 16.38 7a8 8 0 0 1 .68 3.24A7.34 7.34 0 0 1 10 17.82z" fill="#dfd1c4"/><circle cx="6.93" cy="11.05" r=".97" fill="#dfd1c4"/><circle cx="12.6" cy="11.05" r=".97" fill="#dfd1c4"/><path d="M11.91 14.66a6 6 0 0 1-2.07.34 6.17 6.17 0 0 1-2-.3" fill="none" stroke="#dfd1c4" stroke-linecap="round" stroke-miterlimit="10"/></svg>