<svg xmlns="http://www.w3.org/2000/svg" width="70" height="70" viewBox="0 0 70 70"><title>не-выполняем</title><g data-name="Слой 2"><g data-name="Слой 1"><path fill="none" d="M0 0h70v70H0z"/><path d="M37.48 33.6l-1.77 1.78a1.26 1.26 0 0 0 0 1.77l11.57 12.38a1.26 1.26 0 0 0 1.77 0l2.65-2.67a1.26 1.26 0 0 0 0-1.77L39.25 33.6a1.26 1.26 0 0 0-1.77 0z" fill="#ded9cf" stroke="#692f17" stroke-linecap="round" stroke-miterlimit="10" stroke-width="1.5"/><path d="M47.3 27.88L29.48 45.8a.54.54 0 0 1-.74-.1l-12.53-8.61a.54.54 0 0 1-.1-.74l21.34-21.46a.54.54 0 0 1 .74.1l9 12.15a.54.54 0 0 1 .11.74z" fill="#ded9cf" stroke="#692f17" stroke-linecap="round" stroke-miterlimit="10" stroke-width="1.5"/><rect x="24.3" y="34.66" width="27.02" height="3.43" rx="1" ry="1" transform="rotate(-45.17 37.817 36.373)" fill="#f9f1eb" stroke="#692f17" stroke-linecap="round" stroke-miterlimit="10" stroke-width="1.5"/><circle cx="48.45" cy="46.28" r=".73" transform="rotate(-45.17 48.446 46.28)" fill="#e0d9d0" stroke="#692f17" stroke-linecap="round" stroke-miterlimit="10" stroke-width=".75"/><path fill="none" stroke="#692f17" stroke-linecap="round" stroke-miterlimit="10" stroke-width="1.5" d="M15.79 51.78l39.5-39.5M55.29 51.78l-39.5-39.5"/></g></g></svg>