<svg xmlns="http://www.w3.org/2000/svg" width="60" height="60" viewBox="0 0 60 60"><g data-name="Слой 1"><path fill="none" d="M0 0h60v60H0z"/><path d="M10.58 35h38.65v14.77a3.14 3.14 0 0 1-3.15 3.15H13.73a3.14 3.14 0 0 1-3.15-3.15z" fill="#d9d6cc" stroke="#692f17" stroke-linejoin="round" stroke-width=".8"/><path d="M10.58 22.37h38.65v14.81a3.14 3.14 0 0 1-3.15 3.15H13.73a3.14 3.14 0 0 1-3.15-3.15z" fill="#d9d6cc" stroke="#692f17" stroke-linejoin="round" stroke-width=".8"/><path d="M10.58 10.2h38.65V25a3.14 3.14 0 0 1-3.15 3.15H13.73A3.14 3.14 0 0 1 10.58 25z" fill="#d9d6cc" stroke="#692f17" stroke-linejoin="round" stroke-width=".8"/><path fill="#f5f4f0" stroke="#692f17" stroke-miterlimit="10" stroke-width=".8" d="M10.58 16.07h38.65"/><path fill="#fd8204" stroke="#692f17" stroke-linejoin="round" d="M8.49 7.53h42.77v2.82H8.49z"/></g></svg>