<svg xmlns="http://www.w3.org/2000/svg" width="114.13" height="80.32" viewBox="0 0 114.13 80.32"><title>сайдинг_1</title><g data-name="Слой 2"><g data-name="Слой 1"><path fill="#fff" d="M0 0h114.13v80H0z"/><path fill="none" stroke="#692f17" stroke-miterlimit="10" stroke-width=".65" d="M.04 54.99h114.09M.04 59.16h114.09M.04 63.33h114.09M.04 67.49h114.09M.04 71.66h114.09M.04 75.82h114.09M.04 79.99h114.09M.04 25.84h114.09M.04 30.01h114.09M.04 34.17h114.09M.04 38.34h114.09M.04 42.51h114.09M.04 46.67h114.09M.04 50.84h114.09M.04 13.34h114.09M.04 17.51h114.09M.04 21.67h114.09M.05.85h114.08M.05 5.02h114.08M.05 9.18h114.08"/><path fill="#692f17" d="M5.53 0h103.65v55.21H5.53z"/><path fill="#f7f2ec" d="M6.81 1.27H107.9v52.76H6.81z"/><path fill="#692f17" d="M11 5.79h20.78V49H11zM34.98 5.79h20.77V49H34.98z"/><path fill="#fff" d="M36 6.81h18.72v41.15H36z"/><path fill="#692f17" d="M58.88 5.79h20.78V49H58.88zM82.99 5.79h20.76V49H82.99z"/><path fill="#fff" d="M59.91 6.81h18.72v41.15H59.91zM83.87 6.81h18.72v41.15H83.87zM12.03 6.82h18.72v41.15H12.03z"/></g></g></svg>