<svg xmlns="http://www.w3.org/2000/svg" width="48" height="48" viewBox="0 0 48 48"><title>инвентарь_3</title><g id="Слой_2" data-name="Слой 2"><g id="Слой_1-2" data-name="Слой 1"><rect width="48" height="48" fill="none"/><path d="M9.57,16.86A3.11,3.11,0,0,0,13,17.5l10.6,11.61,2.6-2.6L14.62,15.91A3.1,3.1,0,0,0,14,12.45" fill="#d7d4ca" stroke="#692f17" stroke-linecap="round" stroke-linejoin="round" fill-rule="evenodd"/><path d="M3.14,18.89l1.28,1.28a1.3,1.3,0,0,0,1.84,0l11-11a1.3,1.3,0,0,0,0-1.84L16,6" fill="#ddd9cf" stroke="#692f17" stroke-linejoin="round" fill-rule="evenodd"/><rect x="-0.41" y="10.53" width="18.15" height="2.06" transform="translate(-5.64 9.52) rotate(-45)" fill="#e3801e"/><path d="M14.36,5.12l.75.75L3,18l-.75-.75L14.36,5.12m0-1.41L.82,17.25,3,19.42,16.52,5.87,14.36,3.71Z" fill="#692f17"/><path d="M42.78,19.61c-.29-3.83-2.95-6.83-6.19-6.83s-5.9,3-6.19,6.83a1,1,0,0,0,0,.23V32.5a1,1,0,0,0,1,1H41.8a1,1,0,0,0,1-1V19.84A1,1,0,0,0,42.78,19.61Z" fill="#e3801e" stroke="#692f17" stroke-miterlimit="10"/><path d="M38.57,10.67h-4a.37.37,0,0,0-.37.37v1.85h4.69V11A.37.37,0,0,0,38.57,10.67Z" fill="#ddd9cf" stroke="#692f17" stroke-miterlimit="10"/><path d="M23.31,8.72a5,5,0,0,1-1.66,4.15,16.41,16.41,0,0,1-2.18,1.54l.34.36a9.54,9.54,0,0,0,3.7-2.1,4.78,4.78,0,0,0,1.63-3.95Z" fill="#f3f2ee" stroke="#692f17" stroke-miterlimit="10" stroke-width="0.5"/><rect x="19.59" y="6.21" width="2.3" height="2.02" rx="0.32" ry="0.32" fill="#d9bf9d" stroke="#692f17" stroke-miterlimit="10" stroke-width="0.5"/><path d="M34.38,21.45s0,0,0,0V32.4a2.75,2.75,0,0,1-2.75,2.75H23.87a2.75,2.75,0,0,1-2.75-2.75V21.49s0,0,0,0,0,0,0,0a6.63,6.63,0,1,1,13.26,0S34.38,21.43,34.38,21.45ZM30.62,5.85H21.79a.66.66,0,0,0-.66.66V8.06a.66.66,0,0,0,.66.66h3.35l1.19,3.52a.46.46,0,0,0-.42.46v2.36h3.7V12.7a.47.47,0,0,0-.47-.47h0V8.72h1.51a.66.66,0,0,0,.66-.66V6.51A.66.66,0,0,0,30.62,5.85Z" fill="#d7d4ca" stroke="#692f17" stroke-linecap="round" stroke-linejoin="round"/><line x1="26.2" y1="12.49" x2="29.25" y2="12.49" fill="#f3f2ee" stroke="#692f17" stroke-miterlimit="10" stroke-width="0.5"/><path d="M9.64,28.27l1.89,12a2.34,2.34,0,0,0,2.34,2.34H40.52a2.34,2.34,0,0,0,2.34-2.34l1.89-12Z" fill="#d9ddde" stroke="#692f17" stroke-linecap="round" stroke-linejoin="round"/><rect x="7.2" y="24.81" width="39.98" height="3.46" rx="0.8" ry="0.8" fill="#f3f2ee" stroke="#5d331f" stroke-linecap="round" stroke-linejoin="round"/><path d="M23.43,24.81,20.51,28a11.63,11.63,0,0,1-.58,3.76c-.34.7-1.76,4.05-3.12,3.33-.74-.4.88-3.66.88-3.66L13,36.09a1,1,0,0,1-1.35-1.35l-.78.78A1,1,0,0,1,9.5,34.18l.63-.63a1,1,0,0,1-1.18-1.48l1.38-1.38A1,1,0,1,1,9,29.33l4.16-4.16c1.29-1.29.93-.94.93-.94a17.8,17.8,0,0,1,5.2-.46C22.47,24,23.43,24.81,23.43,24.81Z" fill="#e3801e" stroke="#692f17" stroke-miterlimit="10" stroke-width="0.5" fill-rule="evenodd"/><line x1="11.65" y1="34.72" x2="14.49" y2="31.88" fill="#e3801e" stroke="#692f17" stroke-miterlimit="10" stroke-width="0.5"/><line x1="10.13" y1="33.54" x2="13.35" y2="30.33" fill="#e3801e" stroke="#692f17" stroke-miterlimit="10" stroke-width="0.5"/><line x1="10.39" y1="30.62" x2="12.16" y2="28.85" fill="#e3801e" stroke="#692f17" stroke-miterlimit="10" stroke-width="0.5"/><line x1="17.36" y1="31.8" x2="18.5" y2="30.66" fill="#e3801e" stroke="#692f17" stroke-miterlimit="10" stroke-width="0.5"/><path d="M22,24.28l0,1.23a12,12,0,0,0-2.16,3.14c-.23.74-1.51,4.13-.06,4.49.8.2,1.87-3.26,1.87-3.26l.18,6.48a.9.9,0,0,0,1,.89,1,1,0,0,0,.92-1l0,1.09a.9.9,0,0,0,1,.89,1,1,0,0,0,.92-1l0-.88a.9.9,0,0,0,.92.68,1,1,0,0,0,.92-1l0-1.92a.9.9,0,0,0,1,.89,1,1,0,0,0,.92-1l-.11-5.79c0-1.79,0-4.05,0-4.05a14.06,14.06,0,0,0-3.41-.26A18.61,18.61,0,0,0,22,24.28Z" fill="#e3801e" stroke="#692f17" stroke-miterlimit="10" stroke-width="0.5" fill-rule="evenodd"/><line x1="23.65" y1="36.24" x2="23.58" y2="32.29" fill="#e3801e" stroke="#692f17" stroke-miterlimit="10" stroke-width="0.5"/><line x1="25.53" y1="36.37" x2="25.44" y2="31.91" fill="#e3801e" stroke="#692f17" stroke-miterlimit="10" stroke-width="0.5"/><line x1="27.33" y1="34.06" x2="27.29" y2="31.61" fill="#e3801e" stroke="#692f17" stroke-miterlimit="10" stroke-width="0.5"/><line x1="21.6" y1="30.34" x2="21.57" y2="28.76" fill="#e3801e" stroke="#692f17" stroke-miterlimit="10" stroke-width="0.5"/></g></g></svg>