<svg xmlns="http://www.w3.org/2000/svg" width="60" height="60" viewBox="0 0 60 60"><g data-name="Слой 1"><path fill="none" d="M0 0h60v60H0z"/><path fill="#f5f4f0" stroke="#692f17" stroke-linejoin="round" stroke-width=".8" d="M42.93 14.22l-7.09.82v1.68l7.09-.82v-1.68z"/><ellipse cx="21.97" cy="17.08" rx="6.33" ry="6.26" fill="#fd8204" stroke="#692f17" stroke-miterlimit="10"/><path d="M28.91 27.94c-2-.71-4.82-1.28-5.29-4.81L22.3 6.25a1 1 0 0 0-1-.92h-2.13a1 1 0 0 0-1 1v48.33h16.22l3-7.66.05-9.37s-.19-6.7-8.53-9.69z" fill="#d6d4ca" stroke="#692f17" stroke-miterlimit="10" fill-rule="evenodd"/><path fill="#f5f4f0" stroke="#692f17" stroke-linejoin="round" stroke-width=".8" d="M44.37 12.35l-9.67.97h-.18v.02l-.03.01v2.37l.03 22.98h1.5V15.57l8.35-.85v-2.37z"/><path fill="#f5f4f0" stroke="#692f17" stroke-linejoin="round" stroke-width=".72" d="M33.48 37.67h3.84v7.28h-3.84z"/><ellipse cx="33.96" cy="49.48" rx="5.26" ry="5.19" fill="#d6d4ca" stroke="#692f17" stroke-miterlimit="10"/><ellipse cx="33.96" cy="49.48" rx="3.02" ry="2.98" fill="#f3f3ef" stroke="#692f17" stroke-miterlimit="10" stroke-width=".8"/><path d="M18.3 44.45c0-8.35 6.71-15 13.36-15" fill="none" stroke="#692f17" stroke-miterlimit="10" stroke-width=".8" fill-rule="evenodd"/><path d="M44.3 14.62v1.26a1.3 1.3 0 0 1-1.2 1.39l-7 .67" fill="none" stroke="#692f17" stroke-linejoin="round" stroke-width=".8"/></g></svg>