<svg xmlns="http://www.w3.org/2000/svg" width="60" height="60" viewBox="0 0 60 60"><path d="M55.5 40.36v6.45a1.62 1.62 0 0 1-1.62 1.62h-4.36v-1.82A1.62 1.62 0 0 0 47.9 45H12.1a1.62 1.62 0 0 0-1.62 1.62v1.82H6.12a1.62 1.62 0 0 1-1.62-1.63v-6.45z" fill="#fff" stroke="#263239" stroke-linecap="round" stroke-miterlimit="10"/><path d="M51.4 28.82v-6.13c0-6.14-9.59-11.12-21.42-11.12s-21.42 5-21.42 11.12v6.13" fill="#fff" stroke="#ff5a19" stroke-linecap="round" stroke-miterlimit="10"/><path d="M55.5 40.33v-9.92a1.61 1.61 0 0 0-1.62-1.6H6.12a1.61 1.61 0 0 0-1.62 1.6v9.92" fill="#fff" stroke="#263239" stroke-linecap="round" stroke-miterlimit="10"/><path fill="none" stroke="#ff5a19" stroke-linecap="round" stroke-miterlimit="10" stroke-width=".8" d="M13.06 15.9v12.35M23.22 12.67v15.66M29.06 11.67v16.66M34.9 12.02l-.01 16.31M40.72 13.67v14.66M46.56 15.67v12.66M17.89 13.58v14.67"/></svg>