<svg xmlns="http://www.w3.org/2000/svg" width="80" height="80" viewBox="0 0 70 70"><path fill="none" d="M0 0h70v70H0z"/><path d="M22.6 44.68l-4.71 1.5a1 1 0 0 1-1.26-.65l-8-25a1 1 0 0 1 .65-1.25L52.11 5.55a1 1 0 0 1 1.26.65l8 25a1 1 0 0 1-.65 1.26l-21.48 6.9" fill="none" stroke="#f0592b" stroke-linecap="round" stroke-miterlimit="10" stroke-width="1.5"/><path fill="#fff" stroke="#f0592b" stroke-linecap="round" stroke-miterlimit="10" stroke-width="1.5" d="M9.98 24.72l44.74-14.29M11.71 30.13l44.74-14.29"/><path d="M33.14 47.82a4 4 0 0 1-1.52-.3 5.77 5.77 0 0 1-1.89.52c-.49.05-.43 0-.56.5-.23 1-.45 2-.69 3a1.7 1.7 0 0 0 .22 1.32c.24.37.47.74.7 1.12s.18.33-.13.52l-.85.53a1.56 1.56 0 0 0-.52 2.31l.54.87c.17.27.16.31-.12.49l-1.11.7a1.64 1.64 0 0 0-.79 1.11c-.08.39-.18.77-.27 1.16a.47.47 0 0 1-.22.33c-.48.3-1 .59-1.43.9-.18.11-.29.07-.4-.1s-.3-.48-.52-.84c-.5-.43-.43-1.05-.26-1.75 1-4.15 1.92-8.3 2.88-12.45.08-.37.08-.37-.24-.56a6.09 6.09 0 0 1 1.59-11.13 3.48 3.48 0 0 1 1.89-1.7 7.94 7.94 0 0 0-3.22.54c-.1 0-.2.11-.32.06L24.2 36c0 .14-.13.2-.21.28a7.63 7.63 0 0 0 .26 11.53.57.57 0 0 1 .23.65c-.72 3.06-1.44 6.12-2.11 9.19a19.44 19.44 0 0 0-.79 4.06l1.47 2.35c.08 0 .13 0 .19.08a1.57 1.57 0 0 0 1.26.37.39.39 0 0 1 .21 0l2.63-1.65c0-.23.19-.43.24-.66.08-.43.19-.84.28-1.26a.56.56 0 0 1 .27-.38l1.23-.77a1.55 1.55 0 0 0 .51-2.24l-.6-1c-.12-.17-.08-.29.09-.39l1-.62a1.55 1.55 0 0 0 .49-2.23c-.24-.4-.49-.8-.74-1.19a.63.63 0 0 1-.1-.52c.16-.64.31-1.28.45-1.93a.41.41 0 0 1 .37-.36A7.36 7.36 0 0 0 34 47.89l.21-.2a4 4 0 0 1-1.07.13z" fill="#f0592b"/><path d="M34.7 33.71a.25.25 0 0 0 .2.15 7.27 7.27 0 0 1 3.8 2.8A7.52 7.52 0 0 1 40.05 42a7.2 7.2 0 0 1-1.22 3.25.41.41 0 0 0 0 .52c.35.56.68 1.13 1 1.71a.63.63 0 0 0 .43.31l1.36.34a1.54 1.54 0 0 1 1.17 2c-.09.37-.18.75-.28 1.13-.06.19 0 .3.2.35l1.11.28a1.54 1.54 0 0 1 1.17 2q-.16.72-.36 1.41a.57.57 0 0 0 .07.46c.22.37.43.74.66 1.11.13.2.15.45.29.65l-.77 3a.24.24 0 0 0-.17.12 1.62 1.62 0 0 1-1.17.6.26.26 0 0 0-.2.07l-2.68-.69a19.24 19.24 0 0 1-2.23-3.48c-1.63-2.69-3.21-5.4-4.81-8.11a.57.57 0 0 0-.61-.32 7.61 7.61 0 0 1-8.14-8.16.47.47 0 0 0 0-.35l.5-1.94c.11 0 .14-.17.18-.27a7.63 7.63 0 0 1 8.12-4.42.28.28 0 0 0 .25 0zm7.55 25.65l1 .25c.19 0 .3 0 .35-.2l.4-1.65a.46.46 0 0 0-.06-.38c-.21-.34-.4-.69-.62-1a1.68 1.68 0 0 1-.21-1.38l.33-1.27c.08-.32.06-.36-.25-.44l-1-.25A1.57 1.57 0 0 1 41 51c.08-.32.17-.64.25-1s.07-.38-.27-.46l-1.27-.33a1.67 1.67 0 0 1-1.08-.81L37 45.78c-.28-.47-.26-.37.07-.74a6.05 6.05 0 0 0 .58-7.16 6.12 6.12 0 0 0-10.48 6.33A6.05 6.05 0 0 0 33.79 47c.37-.08.37-.08.57.24 2.16 3.67 4.35 7.32 6.49 11 .37.65.74 1.16 1.4 1.12z" fill="#f0592b"/><path d="M32.77 36.43a3.07 3.07 0 0 1 1.1 1 3.25 3.25 0 0 1 .62 1.68.79.79 0 0 1-.28.72 13.44 13.44 0 0 1-3.7 2.17.74.74 0 0 1-.73-.08 3.34 3.34 0 0 1-1.53-2.57.76.76 0 0 1 .28-.68 13 13 0 0 1 3.74-2.21.76.76 0 0 1 .5-.03zm-.17.78a.31.31 0 0 0-.27 0 13 13 0 0 0-3.17 1.88.34.34 0 0 0-.14.37 2.61 2.61 0 0 0 1 1.66.37.37 0 0 0 .42.07 13.41 13.41 0 0 0 3.15-1.88.38.38 0 0 0 .14-.4 2.55 2.55 0 0 0-1-1.66z" fill="#f0592b"/><path d="M22.23 40.48a6.39 6.39 0 1 1 6.88-.28" fill="none" stroke="#f0592b" stroke-linecap="round" stroke-miterlimit="10"/></svg>