<svg xmlns="http://www.w3.org/2000/svg" width="55.56" height="81.25" viewBox="0 0 55.56 81.25"><title>решетка_1</title><g data-name="Слой 2"><g data-name="Слой 1" fill="none" stroke="#692f17" stroke-miterlimit="10"><path stroke-width="1.25" d="M.63.63h54.31v80H.63z"/><path stroke-width=".75" d="M6.64.58V80.7M12.68.58V80.7M18.71.58V80.7M24.74.58V80.7M30.77.58V80.7M36.81.58V80.7M42.84.58V80.7M48.87.58V80.7M.61 4.45h54.33M6.36.89a2.62 2.62 0 1 1-5.25 0M12.28.89A2.62 2.62 0 1 1 7 .89M18.19.89a2.63 2.63 0 1 1-5.25 0M24.32.89a2.62 2.62 0 1 1-5.25 0M30.32.89a2.62 2.62 0 1 1-5.25 0M36.32.89a2.62 2.62 0 1 1-5.25 0M42.49.89a2.62 2.62 0 1 1-5.25 0M48.61.89a2.62 2.62 0 1 1-5.25 0M54.49.89a2.62 2.62 0 1 1-5.25 0M54.96 76.77H.63M49.21 80.33a2.63 2.63 0 0 1 5.25 0M43.29 80.33a2.63 2.63 0 0 1 5.25 0M37.38 80.33a2.63 2.63 0 0 1 5.25 0M31.25 80.33a2.63 2.63 0 1 1 5.25 0M25.25 80.33a2.63 2.63 0 0 1 5.25 0M19.25 80.33a2.63 2.63 0 0 1 5.25 0M13.08 80.33a2.63 2.63 0 0 1 5.25 0M7 80.33a2.63 2.63 0 0 1 5.25 0M1.08 80.33a2.63 2.63 0 1 1 5.25 0M27.55 11.64L.65 40.18l26.92 28.54 27.18-28.54-27.2-28.54z"/><path stroke-width=".75" d="M27.61 22.46L10.9 40.18l16.72 17.73L44.5 40.18 27.61 22.46z"/></g></g></svg>