<svg xmlns="http://www.w3.org/2000/svg" width="60" height="60" viewBox="0 0 60 60"><path d="M28.85 31.39c0-1.15.88-2.19 2.3-3V13h-4.78s.48 2.93-3.73 6.42c-3.25 2.69-7.21 4.85-7.38 9a2.28 2.28 0 0 0 0 .44v18.33c0 1.09 3.57 2 8 2a24.51 24.51 0 0 0 5.67-.59z" fill="#fff" stroke="#263239" stroke-linejoin="round" stroke-width=".87"/><path d="M36.82 19.42a9 9 0 0 1 2.79.34v7.57a9.23 9.23 0 0 1-2.79.34 9.22 9.22 0 0 1-2.82-.34v-7.57a9 9 0 0 1 2.79-.34m0-.87c-2 0-3.66.38-3.66.86v8.27c0 .47 1.64.86 3.66.86s3.66-.38 3.66-.86v-8.27c0-.47-1.64-.86-3.66-.86zM28.71 13a21 21 0 0 1-2.91-.14V8a21 21 0 0 1 2.91-.14 21 21 0 0 1 2.91.14v4.86a21 21 0 0 1-2.91.14z" fill="#fff"/><path d="M28.71 8.27c1.13 0 2 0 2.48.09v4.09c-.5 0-1.35.09-2.48.09s-2 0-2.48-.09V8.36c.5 0 1.35-.09 2.48-.09m0-.87c-1.67 0-3.34.1-3.34.3v5.42c0 .2 1.67.3 3.34.3s3.34-.1 3.34-.3V7.7c0-.2-1.67-.3-3.34-.3z" fill="#ff5a19"/><path d="M40.09 27.55a8.93 8.93 0 0 1-3.27.47 8.93 8.93 0 0 1-3.27-.47c-2.77.66-4.7 2.13-4.7 3.84v19.24c0 1.09 3.57 2 8 2s8-.88 8-2V31.39c-.06-1.71-1.99-3.18-4.76-3.84z" fill="#fff" stroke="#263239" stroke-linejoin="round" stroke-width=".87"/><path d="M36.82 28.14a7.24 7.24 0 0 1-3.22-.51v-8.1a7.26 7.26 0 0 1 3.22-.53 7.26 7.26 0 0 1 3.22.51v8.11a7.24 7.24 0 0 1-3.22.52z" fill="#fff"/><path d="M36.82 19.46a9.22 9.22 0 0 1 2.79.34v7.57a9.24 9.24 0 0 1-2.79.34 9.23 9.23 0 0 1-2.82-.34V19.8a9.22 9.22 0 0 1 2.79-.34m0-.87c-2 0-3.66.38-3.66.86v8.27c0 .47 1.64.86 3.66.86s3.66-.38 3.66-.86v-8.27c0-.47-1.64-.86-3.66-.86z" fill="#ff5a19"/></svg>