<svg xmlns="http://www.w3.org/2000/svg" width="60" height="60" viewBox="0 0 60 60"><path d="M15.57 29.28c-.62 0-1.12-1.37-1.12-3.05s.5-3.05 1.12-3.05" fill="#fff" stroke="#263239" stroke-linecap="round" stroke-linejoin="round" stroke-width=".5" fill-rule="evenodd"/><path fill="#fff" stroke="#263239" stroke-miterlimit="10" d="M23.81 40.29V30.3h2.43v9.99"/><path d="M22.93 47.57v-5.48A2.09 2.09 0 0 1 25 40a2.09 2.09 0 0 1 2.09 2.09v5.48" fill="#fff" stroke="#263239" stroke-linecap="round" stroke-miterlimit="10"/><path d="M14.22 50h21.61a.8.8 0 0 1 .8.8v1.31a.81.81 0 0 1-.81.81h-21.6a.8.8 0 0 1-.8-.8v-1.31a.81.81 0 0 1 .8-.81z" fill="#fff" stroke="#263239" stroke-miterlimit="10"/><path d="M15.88 49.4a1.85 1.85 0 0 1 1.86-1.85h14.58a1.85 1.85 0 0 1 1.85 1.85" fill="#fff" stroke="#263239" stroke-linecap="round" stroke-miterlimit="10"/><path d="M23.81 22.1V8.3A1.22 1.22 0 0 1 25 7.08a1.22 1.22 0 0 1 1.24 1.22v13.79" fill="#fff" stroke="#263239" stroke-miterlimit="10"/><path d="M15.53 29s2.35-.39 3 .05a8.14 8.14 0 0 0 4 1.21h3.66a.83.83 0 0 0 .83-.83v-.18a.82.82 0 0 0-.83-.83H27a1 1 0 0 0 1-1v-.12a1 1 0 0 0-1-1h.17a1 1 0 0 0 1-1v-.21a1 1 0 0 0-1-1h-.59a1 1 0 0 0 1.07-1v-.21a1 1 0 0 0-1.07-1l-3.26.12v-1.89a1.21 1.21 0 0 0-1.45.19l-3.46 3.2-2.89-.05" fill="#fff" stroke="#263239" stroke-linecap="round" stroke-linejoin="round" fill-rule="evenodd"/><circle cx="39.63" cy="35.56" r=".82" fill="#fff"/><path d="M28.68 35.55a11 11 0 1 1 11 11 10.95 10.95 0 0 1-11-11z" fill="#fff" stroke="#ff5a19" stroke-linecap="round" stroke-miterlimit="10"/><path d="M30.56 35.55a9.07 9.07 0 1 1 9.07 9.08 9.07 9.07 0 0 1-9.07-9.08z" fill="#fff" stroke="#ff5a19" stroke-miterlimit="10" stroke-width=".5"/><path fill="none" stroke="#263239" stroke-linecap="round" stroke-miterlimit="10" d="M39.63 35.56v-7.39M39.43 35.56l-3.93-2.27"/><circle cx="33.39" cy="35.56" r=".4" fill="#263239"/><circle cx="45.88" cy="35.56" r=".4" fill="#263239"/><circle cx="39.63" cy="29.31" r=".4" fill="#263239"/><circle cx="39.63" cy="41.8" r=".4" fill="#263239"/><circle cx="34.22" cy="38.67" r=".4" transform="rotate(-29.9 34.23 38.67)" fill="#263239"/><circle cx="45.04" cy="32.44" r=".4" transform="rotate(-29.94 45.043 32.441)" fill="#263239"/><circle cx="36.52" cy="30.15" r=".4" transform="rotate(-29.95 36.525 30.14)" fill="#263239"/><circle cx="42.75" cy="40.97" r=".4" transform="rotate(-29.92 42.747 40.954)" fill="#263239"/><circle cx="36.51" cy="40.96" r=".4" transform="rotate(-60 36.51 40.963)" fill="#263239"/><circle cx="42.75" cy="30.15" r=".4" transform="rotate(-60.01 42.754 30.15)" fill="#263239"/><circle cx="34.23" cy="32.43" r=".4" transform="rotate(-60.02 34.224 32.431)" fill="#263239"/><circle cx="45.04" cy="38.68" r=".4" transform="rotate(-60.01 45.037 38.673)" fill="#263239"/></svg>