<svg xmlns="http://www.w3.org/2000/svg" width="60" height="60" viewBox="0 0 60 60"><title>очитска-труднодоступных-мест</title><g id="Слой_2" data-name="Слой 2"><g id="Слой_1-2" data-name="Слой 1"><rect width="60" height="60" fill="none"/><path d="M10.65,38.89c-2.14,0-3.87-1.37-3.87-3.06s1.73-3.06,3.87-3.06H14" fill="none" stroke="#692f17" stroke-linecap="round" stroke-linejoin="round"/><path d="M12.71,35.44h0A2.68,2.68,0,0,0,10,38.14v.92a2.68,2.68,0,0,0,2.67,2.7h0" fill="#d6d4ca" stroke="#692f17" stroke-linejoin="round"/><path d="M37.82,42.81H12S9.35,29.09,20.18,22.08c10.2-6.61,26-.17,26-.17V39.05" fill="#d9d6cc" stroke="#692f17" stroke-linejoin="round" stroke-width="0.8" fill-rule="evenodd"/><ellipse cx="40.8" cy="38.4" rx="5.41" ry="5.48" fill="#d6d4ca" stroke="#692f17" stroke-miterlimit="10"/><path d="M25.41,40.54v1.68a2.21,2.21,0,0,0,2.21,2.21H47.87a5.83,5.83,0,0,0,0-11.66h-1" fill="none" stroke="#692f17" stroke-linecap="round" stroke-linejoin="round"/><ellipse cx="40.8" cy="38.4" rx="3.11" ry="3.15" fill="#f3f3ef" stroke="#692f17" stroke-miterlimit="10" stroke-width="0.8"/><path d="M12.85,31.64a14.47,14.47,0,0,0,9.92,3.93c8.07,0,14.51-7.92,14.51-16.1" fill="none" stroke="#692f17" stroke-miterlimit="10" stroke-width="0.8" fill-rule="evenodd"/><path d="M10.84,17l-3.22-.8a.32.32,0,0,1-.23-.39h0a.32.32,0,0,1,.39-.23l3.22.8" fill="#f5f4f0" stroke="#692f17" stroke-linejoin="round" stroke-width="0.36"/><polygon points="11.51 21.47 12.6 17.05 15.31 17.73 15.72 18.46 14.92 21.68 14.22 22.14 11.51 21.47" fill="#f5f4f0" stroke="#692f17" stroke-linejoin="round" stroke-width="0.8"/><path d="M10.69,17.62l-3.22-.8a.32.32,0,0,1-.23-.39h0a.32.32,0,0,1,.39-.23l3.22.8" fill="#f5f4f0" stroke="#692f17" stroke-linejoin="round" stroke-width="0.36"/><path d="M10.54,18.24l-3.22-.8a.32.32,0,0,1-.23-.39h0a.32.32,0,0,1,.39-.23l3.22.8" fill="#f5f4f0" stroke="#692f17" stroke-linejoin="round" stroke-width="0.36"/><path d="M10.38,18.86l-3.22-.8a.32.32,0,0,1-.23-.39h0a.32.32,0,0,1,.39-.23l3.22.8" fill="#f5f4f0" stroke="#692f17" stroke-linejoin="round" stroke-width="0.36"/><path d="M10.23,19.48,7,18.68a.32.32,0,0,1-.23-.39h0a.32.32,0,0,1,.39-.23l3.22.8" fill="#f5f4f0" stroke="#692f17" stroke-linejoin="round" stroke-width="0.36"/><path d="M10.07,20.1l-3.22-.8a.32.32,0,0,1-.23-.39h0A.32.32,0,0,1,7,18.68l3.22.8" fill="#f5f4f0" stroke="#692f17" stroke-linejoin="round" stroke-width="0.36"/><path d="M9.92,20.72l-3.22-.8a.32.32,0,0,1-.23-.39h0a.32.32,0,0,1,.39-.23l3.22.8" fill="#f5f4f0" stroke="#692f17" stroke-linejoin="round" stroke-width="0.36"/><path d="M9.77,21.35l-3.22-.8a.32.32,0,0,1-.23-.39h0a.32.32,0,0,1,.39-.23l3.22.8" fill="#f5f4f0" stroke="#692f17" stroke-linejoin="round" stroke-width="0.36"/><polygon points="9.61 21.72 11.04 15.95 12.24 16.24 12.6 17.16 11.55 21.37 10.81 22.02 9.61 21.72" fill="#d9d6cc" stroke="#692f17" stroke-linejoin="round" stroke-width="0.8"/><path d="M24.16,26.27l3.7,6.63a1,1,0,0,1,.13.48V41.1s-.25,1.12-2.32,1.2-2.34-1.17-2.34-1.17l-.18-7-2.83-5.48" fill="#fd8204" stroke="#692f17" stroke-linejoin="round" stroke-width="0.8"/><path d="M16.46,22.1l-1.57-.39.8-3.22L19,19.3A3.27,3.27,0,0,1,21,20.85l3.3,5.74-3.85,2.34-3-5.93A1.56,1.56,0,0,0,16.46,22.1Z" fill="#f5f4f0" stroke="#692f17" stroke-linejoin="round" stroke-width="0.8"/><path d="M24.47,30.55a1.84,1.84,0,0,1,.7-2.44L27.33,32l-1.57.87Z" fill="#f5f4f0" stroke="#692f17" stroke-linecap="round" stroke-linejoin="round" stroke-width="0.8"/></g></g></svg>