<svg xmlns="http://www.w3.org/2000/svg" width="30" height="30" viewBox="0 0 30 30"><title>инветарь</title><g id="Слой_2" data-name="Слой 2"><g id="Слой_1-2" data-name="Слой 1"><rect width="30" height="30" fill="none"/><path d="M5.93,7.54l1.34,15.2c0,1.63.74,3,1.66,3H22.27c.91,0,1.66-1.32,1.66-3l1.34-15.2Z" fill="#fd8204" stroke="#692f17" stroke-linejoin="round" stroke-width="0.8"/><path d="M27,6.94a.59.59,0,0,1-.57.6H4.77a.59.59,0,0,1-.57-.6V5.54a.59.59,0,0,1,.57-.6H26.43a.59.59,0,0,1,.57.6Z" fill="#fd8204" stroke="#692f17" stroke-linejoin="round" stroke-width="0.8"/><path d="M15.31,5.21,12.88,7.9A9.71,9.71,0,0,1,12.4,11c-.29.58-1.47,3.38-2.61,2.78-.62-.33.73-3.05.73-3.05L6.59,14.62A.8.8,0,0,1,5.47,13.5l-.65.65A.8.8,0,0,1,3.69,13l.53-.53a.79.79,0,0,1-1-1.23l1.15-1.15A.8.8,0,0,1,3.26,9L6.74,5.51c1.07-1.07.78-.78.78-.78a14.85,14.85,0,0,1,4.34-.39C14.51,4.54,15.31,5.21,15.31,5.21Z" fill="#f7e8d2" stroke="#692f17" stroke-linecap="round" stroke-linejoin="round" stroke-width="0.5" fill-rule="evenodd"/><line x1="5.49" y1="13.48" x2="7.86" y2="11.11" fill="#f7e8d2" stroke="#692f17" stroke-linecap="round" stroke-linejoin="round" stroke-width="0.5"/><line x1="4.22" y1="12.5" x2="6.9" y2="9.81" fill="#f7e8d2" stroke="#692f17" stroke-linecap="round" stroke-linejoin="round" stroke-width="0.5"/><line x1="4.44" y1="10.06" x2="5.91" y2="8.58" fill="#f7e8d2" stroke="#692f17" stroke-linecap="round" stroke-linejoin="round" stroke-width="0.5"/><line x1="10.25" y1="11.04" x2="11.2" y2="10.09" fill="#f7e8d2" stroke="#692f17" stroke-linecap="round" stroke-linejoin="round" stroke-width="0.5"/><path d="M14.1,4.77l0,1a10,10,0,0,0-1.8,2.62c-.19.62-1.26,3.44,0,3.75.66.17,1.56-2.72,1.56-2.72l.15,5.41a.75.75,0,0,0,.8.74.82.82,0,0,0,.77-.82l0,.91a.75.75,0,0,0,.8.74.82.82,0,0,0,.77-.82v-.73a.75.75,0,0,0,.77.57.82.82,0,0,0,.77-.82l0-1.6a.75.75,0,0,0,.8.74.82.82,0,0,0,.77-.82L20,8.08c0-1.49,0-3.38,0-3.38a11.72,11.72,0,0,0-2.84-.22A15.54,15.54,0,0,0,14.1,4.77Z" fill="#f7e8d2" stroke="#692f17" stroke-linecap="round" stroke-linejoin="round" stroke-width="0.5" fill-rule="evenodd"/><line x1="15.5" y1="14.74" x2="15.43" y2="11.45" fill="#f7e8d2" stroke="#692f17" stroke-linecap="round" stroke-linejoin="round" stroke-width="0.5"/><line x1="17.06" y1="14.86" x2="16.99" y2="11.13" fill="#f7e8d2" stroke="#692f17" stroke-linecap="round" stroke-linejoin="round" stroke-width="0.5"/><line x1="18.57" y1="12.93" x2="18.53" y2="10.88" fill="#f7e8d2" stroke="#692f17" stroke-linecap="round" stroke-linejoin="round" stroke-width="0.5"/><line x1="13.79" y1="9.83" x2="13.77" y2="8.51" fill="#f7e8d2" stroke="#692f17" stroke-linecap="round" stroke-linejoin="round" stroke-width="0.5"/></g></g></svg>