<svg xmlns="http://www.w3.org/2000/svg" width="50" height="50" viewBox="0 0 50 50"><g data-name="Слой 1"><path d="M1 25a24 24 0 1 1 24 24A24 24 0 0 1 1 25z" fill="#e2ddd3" stroke="#692f17" stroke-linecap="round" stroke-linejoin="round" stroke-width="2"/><path d="M5.12 25A19.88 19.88 0 1 1 25 44.88 19.88 19.88 0 0 1 5.12 25z" fill="#f7f5f1" stroke="#692f17" stroke-linecap="round" stroke-linejoin="round"/><circle cx="11.32" cy="25" r=".87" fill="#fd8204"/><circle cx="25" cy="11.32" r=".87" fill="#ff8300"/><circle cx="25" cy="38.68" r=".87" fill="#fd8204"/><path d="M25 5.12V25h19.88S45.07 5.65 25 5.12z" fill="#fd8204" stroke="#692f17" stroke-linecap="round" stroke-linejoin="round"/><circle cx="13.14" cy="31.82" r=".87" transform="matrix(.87 -.5 .5 .87 -14.13 10.8)" fill="#692f17"/><circle cx="36.86" cy="18.17" r=".87" transform="rotate(-29.97 36.854 18.172)" fill="#692f17"/><circle cx="18.17" cy="13.14" r=".87" transform="rotate(-29.93 18.175 13.136)" fill="#692f17"/><circle cx="31.83" cy="36.85" r=".87" transform="rotate(-29.92 31.815 36.85)" fill="#692f17"/><circle cx="18.16" cy="36.85" r=".87" transform="rotate(-60.01 18.162 36.847)" fill="#692f17"/><circle cx="31.84" cy="13.15" r=".87" transform="rotate(-60 31.84 13.152)" fill="#692f17"/><circle cx="13.15" cy="18.16" r=".87" transform="rotate(-59.97 13.155 18.159)" fill="#692f17"/><circle cx="36.85" cy="31.84" r=".87" transform="rotate(-60 36.847 31.84)" fill="#692f17"/><path fill="#e1dcd2" stroke="#692f17" stroke-linecap="round" stroke-linejoin="round" stroke-width="2" d="M25 25V8.81M24.55 25l-8.6-4.96"/><circle cx="25" cy="25" r="1.8" fill="#692f17"/></g></svg>