<svg xmlns="http://www.w3.org/2000/svg" width="70" height="70" viewBox="0 0 70 70"><title>мех-дубле</title><g data-name="Слой 2"><g data-name="Слой 1"><path fill="none" d="M0 0h70v70H0z"/><path d="M44.69 14l3.5 29.44v13.11a1.33 1.33 0 0 1-1.33 1.33h-24a1.33 1.33 0 0 1-1.33-1.33V43.37l4-29.25s2.35-2 9-2C41.36 12.1 44.69 14 44.69 14z" fill="#ff8200" stroke="#782b0e" stroke-linecap="round" stroke-linejoin="round" stroke-width="1.5"/><path d="M34.91 34.7L39 24.35l-.16-2.75 2.16-.4 3.64-5.26.05-1.94a26.81 26.81 0 0 0-9.77-1.77 21.64 21.64 0 0 0-9.37 1.88l-.26 1.95 3.44 5.13 2.09.41-.16 2.75 4.13 10.35" fill="#e0d9cf" stroke="#782b0e" stroke-linecap="round" stroke-linejoin="round" stroke-width="1.5"/><path fill="#fd8204" stroke="#782b0e" stroke-linecap="round" stroke-linejoin="round" stroke-width=".75" d="M30.76 12.6l4.02 11.06 3.88-11.06"/><path fill="#ff8200" stroke="#782b0e" stroke-linecap="round" stroke-linejoin="round" stroke-width="1.5" d="M34.78 23.66v33.21M22.29 47.41h-.54c-4 0-4-.18-4-4a46.54 46.54 0 0 1 .47-7.41c1.32-7.74 3.15-12.82 5.24-16.64 1.28-2.35 3.11-3.65 3 .25l-.17 23.83c-.02 3.71.25 3.97-4 3.97zM47.71 47.21h.54c4 0 4-.25 4-4a46.54 46.54 0 0 0-.46-7.43c-1.33-7.73-3.16-12.78-5.25-16.63-1.28-2.35-3.11-3.65-3 .25l.17 23.83c.02 3.87.18 3.98 4 3.98z"/><path fill="none" stroke="#782b0e" stroke-linecap="round" stroke-linejoin="round" stroke-width="1.5" d="M17.76 43.43h8.51M43.74 43.46h8.38"/></g></g></svg>