<svg xmlns="http://www.w3.org/2000/svg" width="48" height="48" viewBox="0 0 48 48"><title>Ресурс 13</title><g data-name="Слой 2"><g data-name="Слой 1"><path fill="none" d="M0 0h48v48H0z"/><path d="M28.17 38.92v-20.1s-11.23-2.16-17 6.7c-5.41 8.35 1.91 21.26 1.91 21.26h12" fill="#dbdfe0" fill-rule="evenodd"/><path d="M25.1 47.28h-12a.5.5 0 0 1-.43-.25c-.31-.54-7.4-13.27-1.89-21.78 5.86-9 17.37-6.94 17.48-6.92a.5.5 0 0 1 .41.49v20.1h-1V19.25c-2-.26-11.17-1-16 6.54-4.78 7.37.82 18.66 1.79 20.49H25.1z" fill="#692f17"/><ellipse cx="25.58" cy="42.35" rx="4.49" ry="4.43" fill="#d9d6cc"/><path d="M25.58 47.28a4.93 4.93 0 1 1 5-4.93 5 5 0 0 1-5 4.93zm0-8.86a3.93 3.93 0 1 0 4 3.93 4 4 0 0 0-4-3.93z" fill="#692f17"/><ellipse cx="25.58" cy="42.35" rx="2.58" ry="2.54" fill="#d9d6cc"/><path d="M25.58 45.14a2.8 2.8 0 1 1 2.83-2.79 2.81 2.81 0 0 1-2.83 2.79zm0-5.09a2.3 2.3 0 1 0 2.33 2.3 2.31 2.31 0 0 0-2.33-2.3zM10.13 39.84v-.5A11.8 11.8 0 0 0 22 27.63a11.59 11.59 0 0 0-3.14-7.94l.37-.34a12.09 12.09 0 0 1 3.28 8.29 12.3 12.3 0 0 1-12.38 12.2z" fill="#692f17"/><path d="M43.52 41.66H41L35.64 8.54c-.64-3-2.18-4.8-4.86-4.8a4.84 4.84 0 0 0-4.86 4.8v7.87h-2.54V8.54a7.37 7.37 0 0 1 7.4-7.32c4.08 0 6.61 3 7.41 7.32z" fill="#d9d6cc"/><path d="M43.52 42.16H41a.5.5 0 0 1-.49-.42L35.15 8.62c-.63-2.9-2.1-4.38-4.37-4.38a4.34 4.34 0 0 0-4.36 4.3v7.87a.5.5 0 0 1-.5.5h-2.54a.5.5 0 0 1-.5-.5V8.54a7.87 7.87 0 0 1 7.9-7.82c4.11 0 7 2.82 7.9 7.73L44 41.58a.5.5 0 0 1-.49.58zm-2.12-1h1.53L37.69 8.62c-.81-4.38-3.33-6.9-6.91-6.9a6.87 6.87 0 0 0-6.9 6.82v7.37h1.54V8.54a5.34 5.34 0 0 1 5.36-5.3c1.93 0 4.42.9 5.35 5.2z" fill="#692f17"/><path d="M22.24 18.59a2.2 2.2 0 0 1 2.21-2.18h.75a2.2 2.2 0 0 1 2.21 2.18" fill="#d9d6cc"/><path d="M27.91 18.59h-1a1.7 1.7 0 0 0-1.71-1.68h-.75a1.7 1.7 0 0 0-1.71 1.68h-1a2.7 2.7 0 0 1 2.71-2.68h.75a2.7 2.7 0 0 1 2.71 2.68z" fill="#692f17"/><path fill="#d9d6cc" d="M39.43 34.69l1.15 7.05 3.19.04-1.18-7.09h-3.16z"/><path d="M43.77 42.28h-3.19a.5.5 0 0 1-.49-.42l-1.15-7.05a.5.5 0 0 1 .49-.58h3.16a.5.5 0 0 1 .49.42l1.18 7.09a.5.5 0 0 1-.49.58zm-2.77-1h2.17l-1-6.08H40z" fill="#692f17"/><path fill="#d9d6cc" d="M46.64 46.41h-9.06l1.13-5.95h6.8l1.13 5.95z"/><path d="M46.64 46.91h-9.06a.5.5 0 0 1-.49-.59l1.13-6a.5.5 0 0 1 .49-.41h6.8a.5.5 0 0 1 .49.41l1.13 6a.5.5 0 0 1-.49.59zm-8.45-1H46l-.94-5h-6z" fill="#692f17"/><path d="M2.41 36c.23-3.09 2.38-5.51 5-5.51s4.76 2.42 5 5.51a.81.81 0 0 1 0 .19v10.25a.82.82 0 0 1-.82.82H3.21a.82.82 0 0 1-.82-.82V36.23a.85.85 0 0 1 .02-.23z" fill="#d9d6cc"/><path d="M11.61 47.66h-8.4A1.22 1.22 0 0 1 2 46.44V36.23A1.16 1.16 0 0 1 2 36c.26-3.34 2.58-5.85 5.39-5.85s5.16 2.51 5.41 5.85a.71.71 0 0 1 0 .22v10.22a1.22 1.22 0 0 1-1.19 1.22zm-4.2-16.73c-2.4 0-4.38 2.21-4.6 5.14v.06a.45.45 0 0 0 0 .1v10.21a.42.42 0 0 0 .42.42h8.4a.42.42 0 0 0 .42-.42V36.07c-.26-2.93-2.24-5.14-4.64-5.14z" fill="#692f17"/><path d="M5.81 28.82H9a.3.3 0 0 1 .3.3v1.49H5.52v-1.49a.3.3 0 0 1 .29-.3z" fill="#ddd9cf"/><path d="M9.7 31H5.12v-1.88a.7.7 0 0 1 .7-.7H9a.7.7 0 0 1 .7.7zm-3.79-.8h3v-1h-3z" fill="#692f17"/><path d="M8.32 37.27a4.82 4.82 0 1 1 9.63 0v8a2 2 0 0 1-2 2h-5.63a2 2 0 0 1-2-2v-8z" fill="#fd8204"/><path d="M16 47.66h-5.68a2.4 2.4 0 0 1-2.4-2.4v-8a5.22 5.22 0 1 1 10.43 0v8a2.4 2.4 0 0 1-2.35 2.4zM8.72 37.27v8a1.6 1.6 0 0 0 1.6 1.6H16a1.6 1.6 0 0 0 1.6-1.6v-7.94a4.42 4.42 0 1 0-8.83-.06z" fill="#692f17"/><path d="M14.18 30.62a.34.34 0 0 1 .31.33v1.71H11.8v-1.71a.34.34 0 0 1 .34-.34h2z" fill="#d9d6cc"/><path d="M14.48 33.06H11.8a.4.4 0 0 1-.4-.4v-1.71a.74.74 0 0 1 .74-.74h2.08a.74.74 0 0 1 .67.73v1.71a.4.4 0 0 1-.41.41zm-2.28-.8h1.88V31h-1.93v.3z" fill="#692f17"/></g></g></svg>