<svg xmlns="http://www.w3.org/2000/svg" width="70" height="70" viewBox="0 0 70 70"><g data-name="Слой 2"><g data-name="Слой 1"><path fill="none" d="M0 0h70v70H0z"/><path fill="#fd8204" stroke="#782b0e" stroke-linecap="round" stroke-linejoin="round" stroke-width="1.5" d="M10.22 41h49.55v3.21H10.22z"/><path d="M59.77 41H10.22v-3.21c.31-10.06 1.47-10.89 1.47-10.89h1.57s2.9 5.53 12.86 5.09c5.52-.24 5.38-6.15 5.38-6.15s21.41 6.82 26.94 12.14A3.6 3.6 0 0 1 59.77 41z" fill="#e0d9cf" stroke="#782b0e" stroke-linecap="round" stroke-linejoin="round" stroke-width="1.5"/><path d="M34.72 31.28c0-.06 1.48-3.56 1.48-3.56M39 32.94c0-.06 1.48-3.56 1.48-3.56M43.31 34.6c0-.06 1.48-3.56 1.48-3.56" fill="#ff8200" stroke="#782b0e" stroke-linecap="round" stroke-linejoin="round" stroke-width="1.5"/></g></g></svg>