<svg xmlns="http://www.w3.org/2000/svg" width="63.345" height="70.564" viewBox="0 0 47.5 52.92"><title>domovenok_1</title><g data-name="Слой 1"><path d="M.75 17.53C.75 8.26 10.19.75 22.91.75s22.17 7.51 22.17 16.78c0 10-9.44 16.78-22.16 16.78S.75 28.16.75 17.53z" fill="#e7c3a0" stroke="#682f24" stroke-miterlimit="10" stroke-width="1.5"/><path d="M46.75 52.06A22.75 22.75 0 0 0 44 44.69c-3.06-4.82-5-6.09-6.45-7.05-2.81-2.46-7.81-4.1-13.52-4.1h-.79c-5.63 0-10.57 1.64-13.33 4.1-1.43 1-3.34 2.23-6.36 7.05a23 23 0 0 0-2.7 7.36z" fill="#f7f5f2" stroke="#682f24" stroke-linecap="round" stroke-linejoin="round" stroke-width="1.5"/><path d="M16.4 31.41v2.14c0 1.18 2.72 2.14 6.07 2.14s6.07-1 6.07-2.14v-2.14z" fill="#fff" stroke="#682f24" stroke-miterlimit="10"/><path d="M22.46 32.48c-8.8 0-16-6.37-16-14.19a12.68 12.68 0 0 1 1.34-5.66 49.41 49.41 0 0 0 14.62 2.13 49.41 49.41 0 0 0 14.62-2.13 12.68 12.68 0 0 1 1.34 5.66c.05 7.83-7.11 14.19-15.92 14.19z" fill="#fde9d3"/><path d="M8.11 13.24a50.15 50.15 0 0 0 14.36 2 50.16 50.16 0 0 0 14.36-2 12.14 12.14 0 0 1 1.11 5.06C37.93 25.84 31 32 22.46 32S7 25.84 7 18.29a12.13 12.13 0 0 1 1.11-5.06M37.34 12a48.43 48.43 0 0 1-14.88 2.24A48.42 48.42 0 0 1 7.59 12 13.3 13.3 0 0 0 6 18.29C6 26.4 13.37 33 22.46 33s16.47-6.6 16.47-14.71A13.31 13.31 0 0 0 37.34 12z" fill="#682f24"/><path d="M27.49 25.93a16.27 16.27 0 0 1-5.4.85A16.6 16.6 0 0 1 17 26" fill="none" stroke="#682f24" stroke-linecap="round" stroke-miterlimit="10"/><path d="M24.62 28.41a8.13 8.13 0 0 1-2.45.35 8.3 8.3 0 0 1-2.33-.31" fill="#fff" stroke="#682f24" stroke-linecap="round" stroke-miterlimit="10"/><path d="M23.84 23.5a12 12 0 0 1-1.65.1 12.32 12.32 0 0 1-1.57-.09" fill="#fff" stroke="#682f24" stroke-linecap="round" stroke-miterlimit="10" stroke-width=".5"/><path fill="#fff" stroke="#682f24" stroke-linecap="round" stroke-miterlimit="10" d="M10.24 52.42l.51-5.78M36.66 51.98l-1.16-6.63"/><path d="M25.39 35.79v8.54a1 1 0 0 1-1.07 1h-3.71a1 1 0 0 1-1.07-1v-8.54M14.94 17.23a5.18 5.18 0 0 0-3.33 1.67 5.18 5.18 0 0 0 3.33 1.67 5.18 5.18 0 0 0 3.33-1.67 5.18 5.18 0 0 0-3.33-1.67z" fill="#fff" stroke="#682f24" stroke-miterlimit="10"/><ellipse cx="14.94" cy="18.9" rx="1.46" ry="1.32" fill="#682f24"/><path d="M29 17.23a5.18 5.18 0 0 0-3.33 1.67A5.18 5.18 0 0 0 29 20.57a5.18 5.18 0 0 0 3.33-1.67A5.18 5.18 0 0 0 29 17.23z" fill="#fff" stroke="#682f24" stroke-miterlimit="10"/><ellipse cx="28.95" cy="18.9" rx="1.46" ry="1.32" fill="#682f24"/><circle cx="6.19" cy="47.79" r="2.44" fill="#ff8300"/><circle cx="33.06" cy="39.55" r="2.44" fill="#ff8300"/><circle cx="14.94" cy="39.55" r="2.44" fill="#ff8300"/><circle cx="41.37" cy="47.79" r="2.44" fill="#ff8300"/><circle cx="30.62" cy="48.42" r="2.44" fill="#ff8300"/></g></svg>