<svg xmlns="http://www.w3.org/2000/svg" width="70" height="70" viewBox="0 0 70 70"><g data-name="Слой 2"><g data-name="Слой 1"><path fill="none" d="M0 0h70v70H0z"/><rect x="16.06" y="4.81" width="37.71" height="60.4" rx="4" ry="4" fill="#f5f3ef" stroke="#692f17" stroke-miterlimit="10" stroke-width="1.5"/><path d="M43.82 64.83h5.95a4 4 0 0 0 4-4V9.13a4 4 0 0 0-4-4h-5.92s.21 59.47-.03 59.7z" fill="#dad6cc" stroke="#692f17" stroke-miterlimit="10" stroke-width=".75"/><path d="M53.94 59.46V61a4 4 0 0 1-4 4H20.42a4 4 0 0 1-4-4v-1.5h37.5" fill="#dad6cc" stroke="#692f17" stroke-miterlimit="10" stroke-width=".75"/><path fill="none" stroke="#692f17" stroke-miterlimit="10" stroke-width="1.5" d="M30.34 12.13V4.79"/><path d="M23.59 18.74a6.75 6.75 0 1 1 13.5 0" fill="#dad6cc" stroke="#692f17" stroke-miterlimit="10" stroke-width="1.5"/><path fill="none" stroke="#692f17" stroke-linecap="round" stroke-miterlimit="10" stroke-width="1.5" d="M21.59 18.85h17.5"/><circle cx="48.62" cy="37.9" r="1.6" fill="none" stroke="#692f17" stroke-miterlimit="10" stroke-width=".75"/></g></g></svg>