<svg xmlns="http://www.w3.org/2000/svg" width="70" height="70" viewBox="0 0 70 70"><title>верхняя-одежда</title><g data-name="Слой 2"><g data-name="Слой 1"><path fill="none" d="M0 0h70v70H0z"/><path fill="#e0d9cf" stroke="#782b0e" stroke-linecap="round" stroke-linejoin="round" stroke-width="1.5" d="M29.25 12.8h10.88v4.38H29.25z"/><path d="M45.2 19l3.19 26.63v10.22A1.35 1.35 0 0 1 47 57.2H22.73a1.35 1.35 0 0 1-1.35-1.35V45.53l3.74-26.67S28.27 17 35 17c6.93-.07 10.2 2 10.2 2zM34.78 13.34v42.84" fill="#e0d9cf" stroke="#782b0e" stroke-linecap="round" stroke-linejoin="round" stroke-width="1.5"/><path d="M22.1 49.63h-.55c-4 0-3.89-.34-4-4A47.24 47.24 0 0 1 18 38c1.34-7.85 3.19-13 5.31-16.89 1.3-2.38 3.16-3.71 3 .25l-.17 24.18c0 3.54.23 3.88-4.04 4.09zM47.9 49.42h.55c4 0 4-.12 4-4a47.24 47.24 0 0 0-.45-7.59c-1.34-7.85-3.19-13-5.31-16.89-1.3-2.38-3.16-3.71-3 .25l.17 24.18c0 3.82.14 4.05 4.04 4.05z" fill="#fd8204" stroke="#782b0e" stroke-linejoin="round" stroke-width="1.5"/><path fill="#e0d9cf" stroke="#782b0e" stroke-linecap="round" stroke-linejoin="round" stroke-width="1.5" d="M17.51 45.58h8.63M43.87 45.62h8.51"/></g></g></svg>