<svg xmlns="http://www.w3.org/2000/svg" width="60" height="60" viewBox="0 0 60 60"><title>почасовая-работа</title><g id="Слой_2" data-name="Слой 2"><g id="Слой_1-2" data-name="Слой 1"><path d="M8.57,28.83c-.76,0-1.38-1.68-1.38-3.76s.62-3.76,1.38-3.76" fill="#f5e6d2" stroke="#5d3329" stroke-linecap="round" stroke-linejoin="round" stroke-width="0.6" fill-rule="evenodd"/><path d="M34.52,57a1,1,0,0,1-1,1H6.91a1,1,0,0,1-1-1V55.35a1,1,0,0,1,1-1H33.54a1,1,0,0,1,1,1Z" fill="#d9d5cb" stroke="#5d3329" stroke-miterlimit="10" stroke-width="0.6"/><path d="M9,54.19a2.61,2.61,0,0,1,2.29-2.85h18a2.61,2.61,0,0,1,2.28,2.85" fill="#f5f1eb" stroke="#5d3329" stroke-miterlimit="10" stroke-width="1.2"/><path d="M18.72,20V3a1.5,1.5,0,0,1,1.5-1.5h0A1.5,1.5,0,0,1,21.72,3V20" fill="#dad6cc" stroke="#5d3329" stroke-miterlimit="10" stroke-width="0.6"/><polyline points="18.72 43.03 18.72 30.09 21.72 30.09 21.72 43.03" fill="#dad6cc" stroke="#5d3329" stroke-miterlimit="10" stroke-width="0.6"/><path d="M17.65,51.36V44.61A2.58,2.58,0,0,1,20.22,42h0a2.58,2.58,0,0,1,2.58,2.58v6.75" fill="#f5f1eb" stroke="#5d3329" stroke-linecap="round" stroke-miterlimit="10" stroke-width="1.2"/><path d="M8.52,28.55s2.9-.48,3.71.06a10,10,0,0,0,4.93,1.48h4.51a1,1,0,0,0,1-1v-.23a1,1,0,0,0-1-1h1a1.18,1.18,0,0,0,1.18-1.18v-.26a1.18,1.18,0,0,0-1.18-1.18h.21A1.18,1.18,0,0,0,24,24v-.26a1.18,1.18,0,0,0-1.18-1.18h-.73a1.25,1.25,0,0,0,1.31-1.18v-.26A1.25,1.25,0,0,0,22.14,20l-4-.16V17.54a1.49,1.49,0,0,0-1.79.24l-4.26,3.94-3.56-.06" fill="#f5e6d2" stroke="#5d3329" stroke-linecap="round" stroke-linejoin="round" stroke-width="1.2" fill-rule="evenodd"/><circle cx="38.22" cy="36.56" r="1.01" fill="#5d3329"/><path d="M24.73,36.55a13.49,13.49,0,1,1,13.49,13.5A13.49,13.49,0,0,1,24.73,36.55Z" fill="#d57c30" stroke="#5d3329" stroke-linecap="round" stroke-miterlimit="10" stroke-width="1.2"/><path d="M27,36.55A11.18,11.18,0,1,1,38.22,47.74,11.17,11.17,0,0,1,27,36.55Z" fill="#f4efe9" stroke="#5d3329" stroke-linecap="round" stroke-linejoin="round" stroke-width="0.6"/><line x1="38.22" y1="36.56" x2="38.22" y2="27.46" fill="none" stroke="#5d3329" stroke-linecap="round" stroke-miterlimit="10" stroke-width="1.2"/><line x1="37.97" y1="36.56" x2="33.13" y2="33.77" fill="none" stroke="#5d3329" stroke-linecap="round" stroke-miterlimit="10" stroke-width="1.2"/><circle cx="30.53" cy="36.56" r="0.49" fill="#5d3329"/><circle cx="45.91" cy="36.56" r="0.49" fill="#5d3329"/><circle cx="38.22" cy="28.87" r="0.49" fill="#5d3329"/><circle cx="38.22" cy="44.25" r="0.49" fill="#5d3329"/><circle cx="31.55" cy="40.4" r="0.49" transform="translate(-15.94 21.11) rotate(-29.9)" fill="#5d3329"/><circle cx="44.88" cy="32.72" r="0.49" transform="translate(-10.34 26.77) rotate(-29.94)" fill="#5d3329"/><circle cx="34.38" cy="29.9" r="0.49" transform="translate(-10.33 21.16) rotate(-29.95)" fill="#5d3329"/><circle cx="42.05" cy="43.23" r="0.49" transform="translate(-15.95 26.73) rotate(-29.92)" fill="#5d3329"/><circle cx="34.37" cy="43.22" r="0.49" transform="translate(-20.24 51.38) rotate(-60)" fill="#5d3329"/><circle cx="42.06" cy="29.9" r="0.49" transform="translate(-4.86 51.39) rotate(-60.01)" fill="#5d3329"/><circle cx="31.56" cy="32.71" r="0.49" transform="translate(-12.55 43.7) rotate(-60.02)" fill="#5d3329"/><circle cx="44.88" cy="40.41" r="0.49" transform="translate(-12.55 59.07) rotate(-60)" fill="#5d3329"/><rect width="60" height="60" fill="none"/></g></g></svg>