<svg xmlns="http://www.w3.org/2000/svg" width="60" height="60" viewBox="0 0 60 60"><title>обеспыливание</title><g data-name="Слой 2"><g data-name="Слой 1"><path fill="none" d="M0 0h60v60H0z"/><rect x="11" y="11.75" width="38" height="15.75" rx="2" ry="2" fill="#d9d6cc" stroke="#692f17" stroke-linejoin="round" stroke-width=".8"/><rect x="15.54" y="15.25" width="28.79" height="8.75" rx="2" ry="2" fill="#f5f4f0" stroke="#692f17" stroke-linejoin="round" stroke-width=".8"/><path fill="#fd8204" stroke="#692f17" stroke-linejoin="round" stroke-width=".8" d="M23.25 15.25h12.71V24H23.25z"/><path d="M29.25 18.33h1.08a1 1 0 0 1 1 1v31h-3.08v-31a1 1 0 0 1 1-1z" fill="#d9d6cc" stroke="#692f17" stroke-linejoin="round" stroke-width=".8"/><path fill="#dbc19f" stroke="#692f17" stroke-linejoin="round" stroke-width=".8" d="M31.25 28.83h-3.08"/><path fill="none" stroke="#692f17" stroke-linecap="round" stroke-linejoin="round" stroke-width=".8" d="M13 11.75V9.62M11.71 11.83l-1.5-1.5M50.17 28.67l-1.5-1.5M11.56 27.42l-1.5 1.5M50.02 10.37l-1.5 1.51M14.92 11.75V9.62M16.84 11.75V9.62M18.77 11.75V9.62M20.69 11.75V9.62M22.61 11.75V9.62M24.53 11.75V9.62M26.45 11.75V9.62M28.38 11.75V9.62M30.3 11.75V9.62M32.22 11.75V9.62M34.14 11.75V9.62M36.06 11.75V9.62M37.98 11.75V9.62M39.91 11.75V9.62M41.83 11.75V9.62M43.75 11.75V9.62M45.67 11.75V9.62M47.59 11.75V9.62M13 29.62V27.5M14.92 29.62V27.5M16.84 29.62V27.5M18.77 29.62V27.5M20.69 29.62V27.5M22.61 29.62V27.5M24.53 29.62V27.5M26.45 29.62V27.5M32.22 29.62V27.5M34.14 29.62V27.5M36.06 29.62V27.5M37.98 29.62V27.5M39.91 29.62V27.5M41.83 29.62V27.5M43.75 29.62V27.5M45.67 29.62V27.5M47.59 29.62V27.5M51.09 26.19h-2.12M51.09 24.27h-2.12M51.09 22.34h-2.12M51.09 20.42h-2.12M51.09 18.5h-2.12M51.09 16.58h-2.12M51.09 14.66h-2.12M51.09 12.73h-2.12M11.03 26.19H8.91M11.03 24.27H8.91M11.03 22.34H8.91M11.03 20.42H8.91M11.03 18.5H8.91M11.03 16.58H8.91M11.03 14.66H8.91M11.03 12.73H8.91"/></g></g></svg>