<svg xmlns="http://www.w3.org/2000/svg" width="48" height="48" viewBox="0 0 48 48"><g data-name="Слой 1"><path fill="none" d="M0 0h48v48H0z"/><path fill="#f3f2ee" stroke="#692f17" stroke-linejoin="round" d="M11.61 8.64h24.67v29.17H11.61z"/><path fill="#f3f2ee" stroke="#692f17" stroke-linejoin="round" d="M11.63 37.29h24.65v2.05H11.63z"/><path fill="#d9ddde" stroke="#692f17" stroke-linejoin="round" stroke-width=".5" d="M14.6 11.86h18.7v22.65H14.6z"/><path fill="#d7d4ca" d="M4.25 33.85l-.31 11.73 9.27-.17-3.05-8.33-5.91-3.23z"/><path d="M22.37 4.87a3 3 0 1 1-6.07 0M16.3 4.87a3 3 0 1 1-6.07 0M10.23 4.87a3 3 0 1 1-6.07 0" fill="none" stroke="#692f17" stroke-linejoin="round" stroke-width=".93"/><path d="M13.28 46c0-6.28-3.53-11.38-7.93-11.61" fill="#d7d4ca" stroke="#692f17" stroke-linejoin="round"/><path d="M4.9 34.38h.44" fill="#f3f2ee" stroke="#692f17" stroke-linejoin="round" stroke-width="1.68"/><path d="M4.48 34.62c2.67 1.25 4.28 5.62 4.28 11.1" fill="none" stroke="#692f17" stroke-linejoin="round" stroke-width=".5"/><path d="M3.69 46c1.24 0 1.29-.93 2.54-.93s1.22.93 2.51.93 1.23-.94 2.53-.94 1.21.94 2.44.94M13.72 46" fill="#f3f2ee" stroke="#692f17" stroke-linejoin="round"/><path d="M4.16 46V34.2zM22.48 4.87h-.29a2.89 2.89 0 0 1-5.77 0h-.32a2.9 2.9 0 0 1-5.77 0h-.21a2.9 2.9 0 0 1-5.77 0h-.19V34.2c10.69-3.31 18.31-15.11 18.32-29.33z" fill="#d7d4ca" stroke="#692f17" stroke-linejoin="round"/><path d="M4 34.25C11.19 31 16.2 19.15 16.2 4.87M4.1 34.38c3.52-3.25 6.13-15.23 6.13-29.51" fill="none" stroke="#692f17" stroke-linejoin="round" stroke-width=".5"/><path fill="#d7d4ca" d="M43.61 33.85l.32 11.73-9.28-.17 3.06-8.33 5.9-3.23z"/><path d="M25.49 4.87a3 3 0 1 0 6.07 0M31.57 4.87a3 3 0 1 0 6.07 0M37.64 4.87a3 3 0 1 0 6.07 0" fill="none" stroke="#692f17" stroke-linejoin="round" stroke-width=".93"/><path d="M34.59 46c0-6.28 3.53-11.38 7.93-11.61" fill="#d7d4ca" stroke="#692f17" stroke-linejoin="round"/><path d="M43 34.38h-.44" fill="#f3f2ee" stroke="#692f17" stroke-linejoin="round" stroke-width="1.68"/><path d="M43.39 34.62c-2.67 1.25-4.28 5.62-4.28 11.1" fill="none" stroke="#692f17" stroke-linejoin="round" stroke-width=".5"/><path d="M34.15 46" fill="#f3f2ee" stroke="#692f17" stroke-linejoin="round"/><path d="M44.17 46c-1.24 0-1.29-.93-2.54-.93s-1.22.93-2.51.93-1.23-.94-2.53-.94-1.21.94-2.44.94" fill="#d7d4ca" stroke="#692f17" stroke-linejoin="round"/><path d="M34.15 46" fill="#f3f2ee" stroke="#692f17" stroke-linejoin="round"/><path d="M43.7 46V34.2zM25.39 4.87h.29a2.89 2.89 0 0 0 5.77 0h.31a2.9 2.9 0 0 0 5.77 0h.21a2.9 2.9 0 0 0 5.77 0h.18V34.2C33 30.89 25.39 19.09 25.39 4.87z" fill="#d7d4ca" stroke="#692f17" stroke-linejoin="round"/><path d="M43.84 34.25C36.68 31 31.67 19.15 31.67 4.87M43.76 34.38c-3.52-3.25-6.13-15.23-6.13-29.51" fill="none" stroke="#692f17" stroke-linejoin="round" stroke-width=".5"/><path fill="#e3801e" stroke="#692f17" stroke-linejoin="round" d="M1.37 1.99h45.27v2.83H1.37z"/></g></svg>