<svg xmlns="http://www.w3.org/2000/svg" width="30" height="30.17" viewBox="0 0 30 30.17"><g data-name="Слой 2"><g data-name="Слой 1"><path d="M28.58 15.43c-1.59-1-4.42-5-5.51-6a3.75 3.75 0 0 0-2.65-1.13H2.25a1 1 0 0 0-1 1L1 20.59a.8.8 0 0 0 .8.81h1.94v-.13a3.07 3.07 0 1 1 6.13 0v.13h11.77v-.13a3.07 3.07 0 1 1 6.13 0v.13H28a1.14 1.14 0 0 0 1.14-1.14v-3.73a1.45 1.45 0 0 0-.56-1.1z" fill="#ec8213" stroke="#5d3329" stroke-miterlimit="10" stroke-width=".6"/><circle cx="6.79" cy="21.34" r="2.37" fill="#dfdbd1" stroke="#5d3329" stroke-miterlimit="10" stroke-width=".58"/><circle cx="6.79" cy="21.34" r="1.41" fill="#f5f4f0" stroke="#5d3329" stroke-miterlimit="10" stroke-width=".31"/><circle cx="24.69" cy="21.34" r="2.37" fill="#dfdbd1" stroke="#5d3329" stroke-miterlimit="10" stroke-width=".58"/><circle cx="24.69" cy="21.34" r="1.41" fill="#f5f4f0" stroke="#5d3329" stroke-miterlimit="10" stroke-width=".31"/><path d="M25.11 14.45l-7.29.07a.56.56 0 0 1-.5-.61v-3.74a.48.48 0 0 1 .42-.52h3.76a.77.77 0 0 1 .61.33l3.2 4c.14.16.02.47-.2.47z" fill="#f5f4f0" stroke="#5d3329" stroke-miterlimit="10" stroke-width=".32"/><path fill="#dfdbd1" stroke="#5d3329" stroke-miterlimit="10" stroke-width=".32" d="M1.24 15.17l7.33-.02M1.34 15.74h12.55M15.83 8.21v13.04M17.4 15.91h1.18"/><path fill="none" d="M0 0h30v30.17H0z"/></g></g></svg>