<svg xmlns="http://www.w3.org/2000/svg" width="110" height="110" viewBox="0 0 110 110"><g data-name="Слой 1"><rect x="60" y="5.19" width="40.06" height="40.67" rx="3.71" ry="3.71" fill="#f5f3ef" stroke="#692f17" stroke-miterlimit="10" stroke-width="2"/><path d="M88.08 76.68L90 102.16a2.84 2.84 0 0 1-2.87 2.84H75.75a2.84 2.84 0 0 1-2.84-2.84l1.89-25.47" fill="#d9d6cc" stroke="#692f17" stroke-linejoin="round" stroke-width="2"/><path d="M81.46 76.94c-11 0-20.4-4.71-21.76-11a3.27 3.27 0 0 1-.17-1v-2.61a2.82 2.82 0 0 1 2.8-2.8h38.21a2.82 2.82 0 0 1 2.82 2.8V65a2.82 2.82 0 0 1-.15.87c-1.33 6.38-10.71 11.07-21.75 11.07z" fill="#d9d6cc"/><path d="M100.56 60.57a1.76 1.76 0 0 1 1.76 1.74V65a1.76 1.76 0 0 1 0 .53v.21c-1.23 5.67-10.32 10.1-20.7 10.1S62.15 71.4 60.9 65.74v-.19a1.78 1.78 0 0 1 0-.55v-2.67a1.74 1.74 0 0 1 1.74-1.74h38.21m0-2.12h-38.2a3.86 3.86 0 0 0-3.86 3.86V65a3.88 3.88 0 0 0 .21 1.22C60.44 72.86 70.08 78 81.78 78s21.33-5.14 22.78-11.78a3.84 3.84 0 0 0 .21-1.19v-2.7a3.86 3.86 0 0 0-3.86-3.86z" fill="#692f17"/><path d="M101.6 58.94v-1.19a2.84 2.84 0 0 0-2.84-2.8h-34.6a2.84 2.84 0 0 0-2.84 2.84V59" fill="#d9d6cc" stroke="#692f17" stroke-linejoin="round"/><path d="M104 62.84A117.68 117.68 0 0 1 81.48 65 117.64 117.64 0 0 1 59 62.84" fill="none" stroke="#692f17" stroke-linejoin="round"/><path d="M81.46 54.95V41.09a4.25 4.25 0 1 0-8.49 0v3" fill="none" stroke="#692f17" stroke-linejoin="round" stroke-width="2"/><path d="M92.92 50.7a1.59 1.59 0 0 1-1.59 1.57H86.7a1.57 1.57 0 0 1-1.57-1.57 1.57 1.57 0 0 1 1.57-1.57h4.56a1.57 1.57 0 0 1 1.59 1.55z" fill="#d9d6cc" stroke="#692f17" stroke-linejoin="round"/><path fill="none" stroke="#692f17" stroke-linejoin="round" stroke-width="2" d="M89.02 54.9v-2.54"/><path d="M77.17 50.7a1.57 1.57 0 0 1-1.57 1.57H71a1.57 1.57 0 0 1-1.6-1.57 1.57 1.57 0 0 1 1.6-1.57h4.6a1.57 1.57 0 0 1 1.57 1.57z" fill="#d9d6cc" stroke="#692f17" stroke-linejoin="round"/><path fill="none" stroke="#692f17" stroke-linejoin="round" stroke-width="2" d="M73.29 54.9v-2.54"/><path d="M5.3 98.21V11.37A6.37 6.37 0 0 1 11.67 5h36.44a6.37 6.37 0 0 1 6.37 6.37v86.84" fill="#dbdfe0" stroke="#692f17" stroke-linejoin="round" stroke-width="2"/><path d="M54.42 97.4a6.37 6.37 0 0 1-6.42 6.37H11.6a6.37 6.37 0 0 1-6.37-6.37" fill="#dbdfe0" stroke="#692f17" stroke-linejoin="round" stroke-width="2"/><path fill="none" stroke="#692f17" stroke-miterlimit="10" d="M43.38 5.19v92.25"/><path d="M35.67 28.77a11.09 11.09 0 1 0-22.18 0" fill="#fd8204" stroke="#692f17" stroke-linejoin="round" stroke-width="2"/><path fill="none" stroke="#682f24" stroke-linejoin="round" stroke-width="2" d="M24.59 17.69V5.19"/><path fill="none" stroke="#692f17" stroke-linecap="round" stroke-linejoin="round" stroke-width="2" d="M11.62 28.77h25.94"/><path d="M27.93 44.16a3.35 3.35 0 0 1-6.69 0c0-1.85 3.35-6.37 3.35-6.37s3.34 4.42 3.34 6.37zM37.56 51.47a3.35 3.35 0 1 1-6.69 0c0-1.85 3.35-6.37 3.35-6.37s3.34 4.52 3.34 6.37zM18.31 51.47a3.35 3.35 0 1 1-6.69 0c0-1.85 3.35-6.37 3.35-6.37s3.34 4.52 3.34 6.37z" fill="#dce1e2" stroke="#692f17" stroke-miterlimit="10"/><path fill="none" stroke="#692f17" stroke-miterlimit="10" d="M5.3 97.44h49.12"/><path fill="none" d="M0 0h110v110H0z"/></g></svg>