<svg xmlns="http://www.w3.org/2000/svg" width="60" height="60" viewBox="0 0 60 60"><path d="M48.12 13.08H11.26C8.92 13.08 7 14.54 7 16.33v20.31c0 1.8 1.9 3.25 4.24 3.25h36.88c2.34 0 4.24-1.46 4.24-3.25V16.33c-.01-1.79-1.9-3.25-4.24-3.25z" fill="#fff" stroke="#263239" stroke-linejoin="round"/><ellipse cx="29.69" cy="31.75" rx="23.35" ry="4.4" fill="#fff" stroke="#263239" stroke-linejoin="round" stroke-width=".8"/><path d="M51.17 41.89a3.25 3.25 0 0 1-3 3.45h-37a3.25 3.25 0 0 1-3-3.45v-4.36a3.25 3.25 0 0 1 3-3.45h37a3.25 3.25 0 0 1 3 3.45z" fill="#fff" stroke="#263239" stroke-linejoin="round"/><path d="M10.3 28.63a4.65 4.65 0 1 0-6.62 4.21v12.28a1.8 1.8 0 0 0 1.8 1.8h3a1.8 1.8 0 0 0 1.8-1.8V28.73v-.05c0-.05.02-.03.02-.05zM49.5 28.62a4.75 4.75 0 0 1 9.5 0 4.64 4.64 0 0 1-2.74 4.21v12.26a1.82 1.82 0 0 1-1.84 1.79h-3.09a1.82 1.82 0 0 1-1.84-1.79V28.73v-.05c0-.05.01-.04.01-.06z" fill="#fff" stroke="#263239" stroke-linejoin="round"/><circle cx="5.65" cy="28.56" r="1.21" fill="#fff" stroke="#263239" stroke-linejoin="round" stroke-width=".8"/><circle cx="54.25" cy="28.56" r="1.21" fill="#fff" stroke="#263239" stroke-linejoin="round" stroke-width=".8"/><path d="M48.26 24.56a40.68 40.68 0 0 1 .27-4.75c-2.17-1.09-5.1.67-8.31.67s-6.07-1.78-8.22-.71a40.62 40.62 0 0 1 .28 4.79 40.63 40.63 0 0 1-.28 4.78c2.17 1.07 5.06-.14 8.23-.14s6.14 1.2 8.31.1a40.68 40.68 0 0 1-.28-4.74zM30.11 24.56a40.68 40.68 0 0 1 .27-4.75c-2.17-1.09-5.1.67-8.31.67s-6.07-1.78-8.24-.71a40.62 40.62 0 0 1 .28 4.79 40.63 40.63 0 0 1-.28 4.79c2.17 1.07 5.06-.14 8.23-.14s6.14 1.2 8.31.1a40.68 40.68 0 0 1-.26-4.75z" fill="#fff" stroke="#ff5a19" stroke-linejoin="round" stroke-width=".8"/></svg>