<svg xmlns="http://www.w3.org/2000/svg" width="70" height="70" viewBox="0 0 70 70"><title>меховой-холод</title><g data-name="Слой 2"><g data-name="Слой 1"><path fill="none" d="M0 0h70v70H0z"/><path d="M22.84 58.13v.93a1.46 1.46 0 0 1-1.46 1.46 1.46 1.46 0 0 1-1.46-1.46v-.93M48.34 58.13v.93a1.46 1.46 0 0 1-1.46 1.46 1.46 1.46 0 0 1-1.46-1.46v-.93" fill="#dcd8ce" stroke="#782b0e" stroke-linecap="round" stroke-miterlimit="10" stroke-width="1.5"/><rect x="17.97" y="9.47" width="32.08" height="48.5" rx="3" ry="3" fill="#dcd8ce" stroke="#782b0e" stroke-linecap="round" stroke-miterlimit="10" stroke-width="1.5"/><path d="M21.67 11.16h25.79V50H20.08V12.75a1.59 1.59 0 0 1 1.59-1.59z" fill="#f8f1eb"/><path d="M20.08 50.27V12.19a.75.75 0 0 1 .75-.75h26.51" fill="none" stroke="#782b0e" stroke-linecap="round" stroke-miterlimit="10" stroke-width=".8"/><path fill="none" stroke="#782b0e" stroke-linecap="round" stroke-miterlimit="10" stroke-width="1.5" d="M18.17 50.27h31.48"/><path fill="none" stroke="#782b0e" stroke-linecap="round" stroke-miterlimit="10" stroke-width=".75" d="M47.41 50.27V9.53"/><path fill="none" stroke="#782b0e" stroke-linecap="round" stroke-miterlimit="10" stroke-width=".8" d="M20.15 14.94h27"/><path d="M50.69 32.43A1.34 1.34 0 0 1 52 33.77v5.49a1.34 1.34 0 0 1-1.34 1.34" fill="none" stroke="#782b0e" stroke-linecap="round" stroke-miterlimit="10" stroke-width="1.5"/><path d="M40.52 17.42l2.28 19.14v8.51a.87.87 0 0 1-.86.86H26.36a.87.87 0 0 1-.86-.86V36.5l2.58-19s1.53-1.29 5.85-1.3 6.59 1.22 6.59 1.22z" fill="#ff8200" stroke="#782b0e" stroke-linecap="round" stroke-linejoin="round" stroke-width=".75"/><path d="M34.16 30.86l2.68-6.73-.1-1.79 1.36-.26 2.36-3.42.05-1.25a17.44 17.44 0 0 0-6.35-1.15 14.07 14.07 0 0 0-6.1 1.22l-.17 1.27 2.24 3.33 1.36.26-.1 1.79 2.68 6.73" fill="#e0d9cf" stroke="#782b0e" stroke-linecap="round" stroke-linejoin="round" stroke-width=".75"/><path fill="#fd8204" stroke="#782b0e" stroke-linecap="round" stroke-linejoin="round" stroke-width=".75" d="M31.46 16.5l2.62 7.18 2.52-7.18"/><path fill="#ff8200" stroke="#782b0e" stroke-linecap="round" stroke-linejoin="round" stroke-width=".75" d="M34.08 23.68v21.6M26 39.13h-.4C23 39.13 23 38 23 36.54a30.27 30.27 0 0 1 .3-4.83 34 34 0 0 1 3.4-10.82c.83-1.53 2-2.38 1.94.16l-.11 15.49c.02 1.46.19 2.59-2.53 2.59zM42.49 39h.35c2.57 0 2.59-1.17 2.59-2.59a30.27 30.27 0 0 0-.3-4.83 34 34 0 0 0-3.4-10.82c-.83-1.53-2-2.38-1.94.16l.11 15.49c-.01 1.42.1 2.59 2.59 2.59z"/><path fill="none" stroke="#782b0e" stroke-linecap="round" stroke-linejoin="round" stroke-width=".75" d="M23.01 36.54h5.54M39.91 36.56h5.44"/><path fill="#f9f2ed" stroke="#782b0e" stroke-linejoin="round" stroke-width=".75" d="M34.15 14.84v1.34"/></g></g></svg>