<svg xmlns="http://www.w3.org/2000/svg" width="70" height="70" viewBox="0 0 70 70"><g data-name="Слой 1"><path fill="none" d="M0 0h70v70H0z"/><path fill="#dad6cc" d="M15.71 44.62l-.31 11.46 9.06-.17-2.98-8.14-5.77-3.15z"/><path d="M33.41 16.31a3 3 0 1 1-5.93 0M27.48 16.31a3 3 0 1 1-5.93 0M21.55 16.31a3 3 0 1 1-5.93 0" fill="none" stroke="#782b0e" stroke-linejoin="round" stroke-width=".88"/><path d="M24.53 56.5c0-6.13-3.44-11.11-7.75-11.34" fill="#dad6cc" stroke="#782b0e" stroke-linejoin="round" stroke-width=".75"/><path d="M16.35 45.14h.43" fill="#f5f3ef" stroke="#782b0e" stroke-linejoin="round" stroke-width="1.58"/><path d="M15.93 45.37c2.61 1.22 4.18 5.49 4.18 10.85" fill="none" stroke="#782b0e" stroke-linejoin="round" stroke-width=".75"/><path d="M15.16 56.5c1.21 0 1.26-.9 2.48-.9s1.19.9 2.45.9 1.21-.92 2.47-.92 1.18.91 2.39.92M25 56.5" fill="#f5f3ef" stroke="#782b0e" stroke-linejoin="round" stroke-width=".75"/><path d="M15.62 56.5V45h-.14zM33.51 16.32h-.29a2.83 2.83 0 0 1-5.64 0h-.31a2.83 2.83 0 0 1-5.64 0h-.21a2.83 2.83 0 0 1-5.64 0h-.17V45c10.46-3.27 17.9-14.8 17.9-28.68z" fill="#dad6cc" stroke="#782b0e" stroke-linejoin="round" stroke-width=".75"/><path d="M15.49 45c7-3.18 11.89-14.75 11.9-28.7M15.57 45.14c3.44-3.18 6-14.87 6-28.82" fill="none" stroke="#782b0e" stroke-linejoin="round" stroke-width=".8"/><path fill="#dad6cc" d="M54.16 44.62l.31 11.46-9.06-.17 2.98-8.14 5.77-3.15z"/><path d="M36.46 16.31a3 3 0 1 0 5.93 0M42.39 16.31a3 3 0 1 0 5.93 0M48.32 16.31a3 3 0 1 0 5.93 0" fill="none" stroke="#782b0e" stroke-linejoin="round" stroke-width=".88"/><path d="M45.41 56.69c0-6.13 3.44-11.11 7.75-11.34" fill="#dad6cc" stroke="#782b0e" stroke-linejoin="round" stroke-width=".75"/><path d="M53.52 45.14h-.43" fill="#f5f3ef" stroke="#782b0e" stroke-linejoin="round" stroke-width="1.58"/><path d="M53.94 45.37c-2.61 1.22-4.18 5.49-4.18 10.85M44.91 56.5" fill="none" stroke="#782b0e" stroke-linejoin="round" stroke-width=".75"/><path d="M54.7 56.5c-1.21 0-1.26-.9-2.48-.9s-1.19.9-2.45.9-1.21-.92-2.47-.92-1.18.91-2.39.92M44.91 56.5" fill="none" stroke="#782b0e" stroke-linejoin="round" stroke-width=".75"/><path d="M54.25 56.5V45h.14zM36.36 16.32h.29a2.83 2.83 0 0 0 5.64 0h.31a2.83 2.83 0 0 0 5.64 0h.21a2.83 2.83 0 0 0 5.64 0h.17V45c-10.46-3.27-17.9-14.8-17.9-28.68z" fill="#dad6cc" stroke="#782b0e" stroke-linejoin="round" stroke-width=".75"/><path d="M54.38 45c-7-3.18-11.89-14.75-11.9-28.7M54.3 45.14c-3.44-3.18-6-14.87-6-28.82" fill="none" stroke="#782b0e" stroke-linejoin="round" stroke-width=".75"/><path fill="#ff8200" stroke="#782b0e" stroke-linejoin="round" stroke-width="1.5" d="M12.89 13.5H57.1v2.76H12.89z"/></g></svg>