<svg xmlns="http://www.w3.org/2000/svg" width="110" height="110" viewBox="0 0 110 110"><defs><clipPath id="a"><path d="M52.77 5.33v56.8h21.11a5.5 5.5 0 0 1 5.61 5.37v10.41H85a2.84 2.84 0 0 1 3 2.68l-3 20.09h20V5.33z" fill="none"/></clipPath></defs><g data-name="Слой 1"><g clip-path="url(#a)"><path d="M92.75 93.57v2.52A1.94 1.94 0 0 0 94.68 98h4.07a1.94 1.94 0 0 0 1.94-1.94v-2.49" fill="#ededed" stroke="#692f17" stroke-linejoin="round"/><path d="M60 93.57v2.52A1.94 1.94 0 0 0 61.91 98H66a1.94 1.94 0 0 0 1.94-1.94v-2.49" fill="none" stroke="#682f24" stroke-linejoin="round"/><path d="M61.8 6.13h37.34A4.85 4.85 0 0 1 104 11v78.33a4.87 4.87 0 0 1-4.87 4.87H61.8a4.87 4.87 0 0 1-4.87-4.87V11a4.87 4.87 0 0 1 4.87-4.87z" fill="#dbdfe0" stroke="#692f17" stroke-linecap="round" stroke-linejoin="round" stroke-width="2"/><path fill="none" stroke="#692f17" stroke-linejoin="round" d="M56.95 20.06H104M80.47 6.13v88.03"/><circle cx="74.42" cy="54.4" r="2.57" fill="#692f17"/><circle cx="86.35" cy="54.4" r="2.57" fill="#692f17"/></g><path d="M70.24 102.19H21.06L13 77.77V66a5.61 5.61 0 0 1 5.61-5.61h55.27A5.61 5.61 0 0 1 79.49 66v11.8" fill="#d9d6cc" stroke="#692f17" stroke-miterlimit="10" stroke-width="2"/><path d="M21 101.86a2.81 2.81 0 0 1-2.81 2.81h-7.42A2.81 2.81 0 0 1 8 101.86L5 79.6a2.81 2.81 0 0 1 2.81-2.81h10.42A2.81 2.81 0 0 1 21 79.6zM71 101.86a2.89 2.89 0 0 0 3 2.81h7.92a2.89 2.89 0 0 0 3-2.8L88 79.6a2.89 2.89 0 0 0-3-2.81H73.94a2.89 2.89 0 0 0-3 2.8z" fill="#d9d6cc" stroke="#692f17" stroke-miterlimit="10" stroke-width="2"/><path fill="none" stroke="#692f17" stroke-miterlimit="10" d="M21.06 89.3h49.18M21.04 82.56h49.92M46.26 60.15v22.49"/><path d="M36.93 13.44H22.15l-4.27 22.37c0 1.24 5.2 2.18 11.64 2.18s11.64-1 11.64-2.18z" fill="#fd8204" stroke="#692f17" stroke-linejoin="round" stroke-width="2"/><path fill="none" stroke="#692f17" stroke-linejoin="round" stroke-width="2" d="M29.53 37.72v22.66"/><path fill="none" stroke="#692f17" stroke-miterlimit="10" d="M29.53 13.44v24.74M33.12 13.44l2.74 24.37M25.57 13.44l-2.42 24.37"/><path fill="none" d="M0 0h110v110H0z"/></g></svg>