<svg xmlns="http://www.w3.org/2000/svg" width="110" height="110" viewBox="0 0 110 110"><g data-name="Слой 1"><path d="M21.94 99.38v3.43a2.68 2.68 0 0 1-2.64 2.72 2.68 2.68 0 0 1-2.68-2.68v-3.47M59.83 99.38v3.43a2.68 2.68 0 0 1-2.64 2.72h-.06a2.68 2.68 0 0 1-2.68-2.68v-3.47" fill="#d9d6cc" stroke="#692f17" stroke-linejoin="round" stroke-width="2"/><path d="M68.83 66.87H9a4 4 0 0 0-4 4v24.79a4 4 0 0 0 4 4h59.83" fill="#d9d6cc" stroke="#692f17" stroke-linejoin="round" stroke-width="2"/><path fill="none" stroke="#692f17" stroke-miterlimit="10" d="M36.96 66.62v32.19"/><path d="M52 67.23V50.94a5 5 0 1 0-10 0v3.53" fill="none" stroke="#692f17" stroke-linejoin="round" stroke-width="2"/><path d="M64.6 61.3a1.79 1.79 0 0 1-1.79 1.79h-5.24a1.79 1.79 0 0 1-1.79-1.79 1.79 1.79 0 0 1 1.79-1.79h5.23a1.79 1.79 0 0 1 1.8 1.79zM47.47 61.3a1.79 1.79 0 0 1-1.79 1.79h-5.23a1.79 1.79 0 0 1-1.79-1.79 1.79 1.79 0 0 1 1.79-1.79h5.23a1.79 1.79 0 0 1 1.79 1.79z" fill="#d9d6cc" stroke="#692f17" stroke-linejoin="round"/><path fill="none" stroke="#692f17" stroke-linejoin="round" stroke-width="1.26" d="M60.19 67.17v-3.64M43.06 67.17v-3.64"/><path fill="none" stroke="#692f17" stroke-miterlimit="10" d="M36.96 78.45H5M36.96 88.34H5"/><circle cx="44.74" cy="76.19" r="2.21" fill="#692f17"/><rect x="5" y="4.47" width="55.64" height="28.79" rx="3.94" ry="3.94" fill="#fd8204" stroke="#692f17" stroke-linejoin="round" stroke-width="2"/><path fill="none" stroke="#692f17" stroke-linejoin="round" d="M33.43 5.06v28.09"/><circle cx="39.38" cy="26.68" r="2.15" fill="#692f17"/><circle cx="27.11" cy="26.68" r="2.15" fill="#692f17"/><rect x="68.83" y="4.64" width="36.17" height="100.77" rx="5.23" ry="5.23" fill="#dbdfe0" stroke="#692f17" stroke-linejoin="round" stroke-width="2"/><path d="M68.83 72.51h5.74a4 4 0 0 1 4 4 4 4 0 0 1-4 4h-5.74M78.11 76.45H105" fill="none" stroke="#692f17" stroke-miterlimit="10"/><path fill="none" d="M0 0h110v110H0z"/></g></svg>