<svg xmlns="http://www.w3.org/2000/svg" width="30" height="30" viewBox="0 0 30 30"><title>время_3</title><g id="Слой_2" data-name="Слой 2"><g id="Слой_1-2" data-name="Слой 1"><rect width="30" height="30" fill="none"/><path d="M2.5,14.84A12.5,12.5,0,1,1,15,27.34,12.5,12.5,0,0,1,2.5,14.84Z" fill="#dfdbd1" stroke="#692f17" stroke-linecap="round" stroke-linejoin="round" stroke-width="0.8"/><path d="M4.65,14.84A10.35,10.35,0,1,1,15,25.2,10.35,10.35,0,0,1,4.65,14.84Z" fill="#f5f4f0" stroke="#692f17" stroke-linecap="round" stroke-linejoin="round" stroke-width="0.5"/><circle cx="7.88" cy="14.84" r="0.45" fill="#e18020"/><circle cx="15" cy="7.72" r="0.45" fill="#ec8213"/><circle cx="15" cy="21.97" r="0.45" fill="#e18020"/><path d="M15,4.49V14.85H25.36S25.46,4.77,15,4.49Z" fill="#ec8213" stroke="#692f17" stroke-miterlimit="10" stroke-width="0.5"/><circle cx="8.83" cy="18.4" r="0.45" transform="translate(-8 6.86) rotate(-29.93)" fill="#692f17"/><circle cx="21.18" cy="11.29" r="0.45" transform="translate(-2.81 12.09) rotate(-29.97)" fill="#692f17"/><circle cx="11.45" cy="8.67" r="0.45" transform="translate(-2.8 6.87) rotate(-29.93)" fill="#692f17"/><circle cx="18.56" cy="21.02" r="0.45" transform="translate(-8.01 12.06) rotate(-29.92)" fill="#692f17"/><circle cx="11.44" cy="21.02" r="0.45" transform="translate(-12.48 20.42) rotate(-60.01)" fill="#692f17"/><circle cx="18.57" cy="8.67" r="0.45" transform="translate(1.77 20.42) rotate(-60)" fill="#692f17"/><circle cx="8.83" cy="11.28" r="0.45" transform="translate(-5.35 13.28) rotate(-59.97)" fill="#692f17"/><circle cx="21.17" cy="18.41" r="0.45" transform="translate(-5.35 27.54) rotate(-60)" fill="#692f17"/><line x1="15" y1="14.84" x2="15" y2="6.41" fill="#dedad0" stroke="#692f17" stroke-linecap="round" stroke-linejoin="round" stroke-width="0.8"/><line x1="14.77" y1="14.84" x2="10.29" y2="12.26" fill="#dedad0" stroke="#692f17" stroke-linecap="round" stroke-linejoin="round" stroke-width="0.8"/><circle cx="15" cy="14.84" r="0.94" fill="#692f17"/></g></g></svg>