<svg xmlns="http://www.w3.org/2000/svg" width="20" height="18.3" viewBox="0 0 20 18.3"><title>Ресурс 2</title><g id="Слой_2" data-name="Слой 2"><g id="Слой_1-2" data-name="Слой 1"><path d="M10,0C4.48,0,0,4.1,0,9.15S4.48,18.3,10,18.3s10-4.1,10-9.15S15.52,0,10,0Zm0,17.82a7.34,7.34,0,0,1-7.06-7.59A8,8,0,0,1,3.62,7,17.56,17.56,0,0,0,10,8.16,17.56,17.56,0,0,0,16.38,7a8,8,0,0,1,.68,3.24A7.34,7.34,0,0,1,10,17.82Z" fill="#a77d5a"/><circle cx="6.93" cy="11.05" r="0.97" fill="#a77d5a"/><circle cx="12.6" cy="11.05" r="0.97" fill="#a77d5a"/><path d="M11.91,14.66A6,6,0,0,1,9.84,15a6.17,6.17,0,0,1-2-.3" fill="none" stroke="#a77d5a" stroke-linecap="round" stroke-miterlimit="10"/></g></g></svg>