<svg xmlns="http://www.w3.org/2000/svg" width="47.2" height="48.04" viewBox="0 0 47.2 48.04"><rect x="26.27" y=".56" width="18.87" height="19.16" rx="1.75" ry="1.75" fill="#f0ede6" stroke="#682f24" stroke-miterlimit="10" stroke-width=".5"/><path d="M39.5 34.24l.89 12a1.34 1.34 0 0 1-1.34 1.34h-5.36a1.34 1.34 0 0 1-1.34-1.34l.89-12" fill="#e2ddd3" stroke="#682f24" stroke-linejoin="round"/><path d="M36.38 34.36c-5.2 0-9.61-2.22-10.25-5.16a1.54 1.54 0 0 1-.08-.46v-1.26a1.33 1.33 0 0 1 1.32-1.32h18a1.33 1.33 0 0 1 1.33 1.32v1.27a1.33 1.33 0 0 1-.07.41c-.63 2.99-5.05 5.2-10.25 5.2z" fill="#e2ddd3"/><path d="M45.38 26.65a.83.83 0 0 1 .83.82v1.27a.83.83 0 0 1 0 .25v.1c-.58 2.67-4.86 4.76-9.75 4.76s-9.17-2.09-9.76-4.76V29a.84.84 0 0 1 0-.26v-1.26a.82.82 0 0 1 .82-.82h18m0-1h-18a1.82 1.82 0 0 0-1.82 1.82v1.27a1.83 1.83 0 0 0 .1.56c.68 3.13 5.22 5.55 10.73 5.55s10.05-2.42 10.73-5.55a1.81 1.81 0 0 0 .1-.56v-1.27a1.82 1.82 0 0 0-1.83-1.82z" fill="#682f24"/><path d="M45.87 25.88v-.56A1.34 1.34 0 0 0 44.53 24h-16.3a1.34 1.34 0 0 0-1.34 1.34v.56" fill="#e2ddd3" stroke="#682f24" stroke-linejoin="round" stroke-width=".5"/><path d="M47 27.72a55.44 55.44 0 0 1-10.61 1 55.42 55.42 0 0 1-10.61-1" fill="none" stroke="#682f24" stroke-linejoin="round" stroke-width=".5"/><path d="M36.38 24v-6.53a2 2 0 1 0-4 0v1.43" fill="none" stroke="#682f24" stroke-linejoin="round"/><path d="M41.78 22a.75.75 0 0 1-.75.74h-2.18a.74.74 0 0 1-.74-.74.74.74 0 0 1 .74-.74H41a.74.74 0 0 1 .75.74z" fill="#e2ddd3" stroke="#682f24" stroke-linejoin="round" stroke-width=".5"/><path fill="none" stroke="#682f24" stroke-linejoin="round" stroke-width="1.23" d="M39.94 23.98v-1.2"/><path d="M34.36 22a.74.74 0 0 1-.74.74h-2.18a.74.74 0 0 1-.74-.74.74.74 0 0 1 .74-.74h2.18a.74.74 0 0 1 .74.74z" fill="#e2ddd3" stroke="#682f24" stroke-linejoin="round" stroke-width=".5"/><path fill="none" stroke="#682f24" stroke-linejoin="round" stroke-width="1.23" d="M32.53 23.98v-1.2"/><path d="M.5 44.38V3.47a3 3 0 0 1 3-3h17.17a3 3 0 0 1 3 3v40.91" fill="#dce1e2" stroke="#682f24" stroke-linejoin="round" fill-rule="evenodd"/><path d="M23.64 44a3 3 0 0 1-3 3H3.47a3 3 0 0 1-3-3" fill="#dce1e2" stroke="#682f24" stroke-linejoin="round" fill-rule="evenodd"/><path fill="none" stroke="#682f24" stroke-miterlimit="10" stroke-width=".5" d="M18.44.56v43.46"/><path d="M14.81 11.67a5.22 5.22 0 0 0-10.45 0" fill="#fd8204" stroke="#682f24" stroke-linejoin="round"/><path fill="none" stroke="#682f24" stroke-linejoin="round" d="M9.59 6.45V.56"/><path fill="#fd8204" stroke="#682f24" stroke-linejoin="round" d="M3.48 11.67H15.7"/><path d="M11.16 18.92a1.58 1.58 0 0 1-3.15 0c0-.87 1.58-3 1.58-3s1.57 2.08 1.57 3zM15.7 22.36a1.58 1.58 0 1 1-3.15 0c0-.87 1.58-3 1.58-3s1.57 2.13 1.57 3zM6.63 22.36a1.58 1.58 0 1 1-3.15 0c0-.87 1.58-3 1.58-3s1.57 2.13 1.57 3z" fill="#dce1e2" stroke="#682f24" stroke-miterlimit="10" stroke-width=".5"/><path fill="none" stroke="#682f24" stroke-miterlimit="10" stroke-width=".5" d="M.5 44.02h23.14"/></svg>