<svg xmlns="http://www.w3.org/2000/svg" width="48.17" height="48" viewBox="0 0 48.17 48"><title>пылесос_1</title><g id="Слой_2" data-name="Слой 2"><g id="Слой_1-2" data-name="Слой 1"><rect x="0.17" width="48" height="48" fill="none"/><ellipse cx="23.67" cy="39.8" rx="23.17" ry="7.1" fill="#dbdfe0" stroke="#692f17" stroke-linejoin="round"/><ellipse cx="23.67" cy="39.48" rx="18.64" ry="4.84" fill="#dbdfe0" stroke="#692f17" stroke-miterlimit="10" stroke-width="0.5"/><path d="M23.79,33.84V16.2s-9.85-1.9-14.88,5.88c-4.74,7.32,1.67,18.65,1.67,18.65H21.09" fill="#fd8204" stroke="#692f17" stroke-linejoin="round" fill-rule="evenodd"/><ellipse cx="21.52" cy="36.85" rx="3.94" ry="3.89" fill="#d9d6cc" stroke="#692f17" stroke-miterlimit="10"/><ellipse cx="21.52" cy="36.85" rx="2.26" ry="2.23" fill="#d9d6cc" stroke="#692f17" stroke-linejoin="round" stroke-width="0.5"/><path d="M15.77,16.82a10.39,10.39,0,0,1,2.82,7.12A10.56,10.56,0,0,1,8,34.43" fill="none" stroke="#692f17" stroke-linejoin="round" stroke-width="0.5" fill-rule="evenodd"/><path d="M37.25,36.24H35L30.34,7.19C29.78,4.59,28.43,3,26.08,3a4.24,4.24,0,0,0-4.26,4.21v6.9H19.59V7.19A6.46,6.46,0,0,1,26.08.77c3.58,0,5.79,2.62,6.5,6.42Z" fill="#d9d6cc" stroke="#692f17" stroke-linecap="round" stroke-linejoin="round"/><path d="M18.59,16h0a1.93,1.93,0,0,1,1.94-1.91h.66A1.93,1.93,0,0,1,23.13,16h0" fill="#d9d6cc" stroke="#692f17" stroke-linejoin="round"/><polygon points="33.67 30.13 34.67 36.31 37.48 36.35 36.44 30.13 33.67 30.13" fill="#d9d6cc" stroke="#692f17" stroke-linejoin="round"/><polygon points="39.99 40.41 32.04 40.41 33.03 35.19 39 35.19 39.99 40.41" fill="#d9d6cc" stroke="#692f17" stroke-linecap="round" stroke-linejoin="round"/></g></g></svg>