<svg xmlns="http://www.w3.org/2000/svg" width="70" height="70" viewBox="0 0 70 70"><g data-name="Слой 2"><g data-name="Слой 1"><path fill="none" d="M0 0h70v70H0z"/><path d="M42.87 28a6.34 6.34 0 1 1 6.39-6.34A6.37 6.37 0 0 1 42.87 28zm0-11.45A5.12 5.12 0 1 0 48 21.69a5.14 5.14 0 0 0-5.13-5.11z" fill="#f9f2ed"/><path d="M42.87 15.73a6 6 0 1 1-6 6 6 6 0 0 1 6-6m0 11.45a5.49 5.49 0 1 0-5.52-5.49 5.51 5.51 0 0 0 5.52 5.49m0-12.2a6.71 6.71 0 1 0 6.76 6.71A6.74 6.74 0 0 0 42.87 15zm0 11.45a4.74 4.74 0 1 1 4.77-4.74 4.76 4.76 0 0 1-4.77 4.74z" fill="#692f17"/><path d="M63.23 48.29a3.35 3.35 0 0 1-3.36 3.33h-34a3.35 3.35 0 0 1-3.36-3.33V25.56a3.35 3.35 0 0 1 3.36-3.33h34a3.35 3.35 0 0 1 3.36 3.33z" fill="#ded9cf" stroke="#692f17" stroke-linecap="round" stroke-miterlimit="10" stroke-width="1.5"/><path d="M63.23 29.79v-4.23a3.35 3.35 0 0 0-3.36-3.33h-34a3.35 3.35 0 0 0-3.36 3.33v4.22" fill="#f9f1eb" stroke="#692f17" stroke-linecap="round" stroke-miterlimit="10" stroke-width="1.5"/><path fill="#e0dbd1" stroke="#692f17" stroke-linejoin="round" stroke-width=".75" d="M22.51 29.79h40.72"/><path d="M37.6 31.38a.71.71 0 0 1-.71-.71V28.9a.71.71 0 0 1 .71-.71h10.54a.71.71 0 0 1 .71.71v1.77a.71.71 0 0 1-.71.71z" fill="#fd8204"/><path d="M48.14 28.57a.34.34 0 0 1 .34.33v1.77a.34.34 0 0 1-.34.33H37.6a.34.34 0 0 1-.34-.33V28.9a.34.34 0 0 1 .34-.33h10.54m0-.75H37.6a1.09 1.09 0 0 0-1.09 1.08v1.77a1.09 1.09 0 0 0 1.09 1.08h10.54a1.09 1.09 0 0 0 1.09-1.08V28.9a1.09 1.09 0 0 0-1.09-1.08z" fill="#692f17"/><path d="M36 50.2a4.91 4.91 0 1 1 5-4.91 4.94 4.94 0 0 1-5 4.91zm0-7.54a2.63 2.63 0 1 0 2.65 2.63A2.64 2.64 0 0 0 36 42.66z" fill="#f9f1eb" stroke="#692f17" stroke-linecap="round" stroke-miterlimit="10" stroke-width=".75"/><path d="M3.2 39a.86.86 0 0 1 .86-.86H27a.86.86 0 0 1 .86.86.86.86 0 0 1-.86.86H4.06A.86.86 0 0 1 3.2 39z" fill="#e0dbd1" stroke="#692f17" stroke-linejoin="round" stroke-width=".75"/><path d="M43 36.82a2.57 2.57 0 0 0-.21-1A3.91 3.91 0 0 0 39 33H21.89a5.94 5.94 0 1 0 0 11.88h14.26l1.33 7.5a2.6 2.6 0 0 0 2.6 2.62h3.07a2.6 2.6 0 0 0 2.61-2.59z" fill="#e0dbd1" stroke="#692f17" stroke-linejoin="round" stroke-width="1.5"/><path d="M17.24 35.37a3.73 3.73 0 1 0 0 7.22z" fill="#ff8200" stroke="#692f17" stroke-linejoin="round" stroke-width=".75"/></g></g></svg>