<svg xmlns="http://www.w3.org/2000/svg" width="150.78" height="140" viewBox="0 0 150.78 140"><title>балконная-двень-4</title><g data-name="Слой 2"><g data-name="Слой 1"><path fill="#692f17" d="M0 0h150.78v140H0z"/><path fill="#f7f2ec" d="M1.31 1.32h148.17v137.36H1.31z"/><path fill="#692f17" d="M8.41 76.74h134.11v54.71H8.41z"/><path fill="#f7f2ec" d="M9.38 77.71h132.17v52.77H9.38z"/><path fill="#692f17" d="M8.25 8.42h29.54v62.86H8.25z"/><path fill="#fff" d="M9.22 9.39h27.61v60.88H9.22z"/><path fill="#692f17" d="M43.17 8.42h29.54v62.86H43.17z"/><path fill="#fff" d="M44.14 9.39h27.59v60.89H44.14z"/><path fill="#692f17" d="M78.07 8.42h29.55v62.86H78.07z"/><path fill="#fff" d="M79.04 9.39h27.61v60.92H79.04z"/><path fill="#692f17" d="M113.01 8.42h29.52v62.86h-29.52z"/><path fill="#fff" d="M113.98 9.39h27.58v60.92h-27.58z"/></g></g></svg>