<svg xmlns="http://www.w3.org/2000/svg" width="60" height="60" viewBox="0 0 60 60"><title>мытье-фасада</title><g id="Слой_2" data-name="Слой 2"><g id="Слой_1-2" data-name="Слой 1"><rect width="60" height="60" fill="none"/><polygon points="42.93 14.22 35.84 15.04 35.84 16.72 42.93 15.9 42.93 14.22" fill="#f5f4f0" stroke="#692f17" stroke-linejoin="round" stroke-width="0.8"/><ellipse cx="21.97" cy="17.08" rx="6.33" ry="6.26" fill="#fd8204" stroke="#692f17" stroke-miterlimit="10"/><path d="M28.91,27.94c-2-.71-4.82-1.28-5.29-4.81L22.3,6.25a1,1,0,0,0-1-.92H19.17a1,1,0,0,0-1,1V43.2h0c0,6.27,0,11.46,0,11.46H34.39l3-7.66.05-9.37S37.25,30.93,28.91,27.94Z" fill="#d6d4ca" stroke="#692f17" stroke-miterlimit="10" fill-rule="evenodd"/><polygon points="44.37 12.35 34.7 13.32 34.52 13.32 34.52 13.34 34.49 13.35 34.49 15.72 34.52 38.7 36.02 38.7 36.02 15.57 44.37 14.72 44.37 12.35" fill="#f5f4f0" stroke="#692f17" stroke-linejoin="round" stroke-width="0.8"/><rect x="33.48" y="37.67" width="3.84" height="7.28" fill="#f5f4f0" stroke="#692f17" stroke-linejoin="round" stroke-width="0.72"/><ellipse cx="33.96" cy="49.48" rx="5.26" ry="5.19" fill="#d6d4ca" stroke="#692f17" stroke-miterlimit="10"/><ellipse cx="33.96" cy="49.48" rx="3.02" ry="2.98" fill="#f3f3ef" stroke="#692f17" stroke-miterlimit="10" stroke-width="0.8"/><path d="M19.78,47.66" fill="none" stroke="#692f17" stroke-miterlimit="10" stroke-width="0.5" fill-rule="evenodd"/><path d="M18.3,44.45c0-8.35,6.71-15,13.36-15" fill="none" stroke="#692f17" stroke-miterlimit="10" stroke-width="0.8" fill-rule="evenodd"/><path d="M44.3,14.62l0,1.26a1.3,1.3,0,0,1-1.2,1.39l-7,.67" fill="none" stroke="#692f17" stroke-linejoin="round" stroke-width="0.8"/></g></g></svg>