<svg xmlns="http://www.w3.org/2000/svg" width="70" height="70" viewBox="0 0 70 70"><g data-name="Слой 2"><g data-name="Слой 1"><path fill="none" d="M0 0h70v70H0z"/><path d="M43.87 30.68l1.9-6.68 1.17 1.88 6.57-4s-4.33-9-6.65-11.29C46 9.62 43.27 9 40 8.75v.26A5 5 0 0 1 30 9v-.23c-3.16.29-5.75.87-6.64 1.73-2.36 2.34-6.87 11.3-6.87 11.3l6.74 4 1.24-1.8 2 6.72a23 23 0 0 0-5.06 14.74c0 7.2 2.64 15.84 2.64 15.84h22.23s2.92-8.63 2.92-15.84a22.38 22.38 0 0 0-5.33-14.78z" fill="#fd8204" stroke="#782b0e" stroke-linejoin="round" stroke-width="1.5"/><path d="M27.79 9a4.59 4.59 0 1 0 7.55 5.23 4.59 4.59 0 1 0 7.6-5.16C42 9 41 8.84 40 8.75v.26A5 5 0 0 1 30 9v-.23c-.77.08-1.52.17-2.21.23z" fill="#f9f2ed" stroke="#782b0e" stroke-linejoin="round" stroke-width=".75"/><path d="M44 30.8a25.07 25.07 0 0 1-8.8 1.41 25.07 25.07 0 0 1-8.8-1.41" fill="none" stroke="#782b0e" stroke-linejoin="round" stroke-width=".75"/><path fill="#ff8300" stroke="#782b0e" stroke-linejoin="round" stroke-width=".75" d="M35.33 32.18v-17.9"/><path d="M53.51 21.8s-4.25-8.8-6.59-11.22c.24 1.74.22 5.59-1.24 13.25l1.26 2zM24.62 23.78c-1.46-7.36-1.71-11.19-1.56-12.95-2.45 2.74-6.58 11-6.58 11l6.74 4zM51 53.61a5 5 0 0 1-5.25 4.67 5 5 0 0 1-5.25-4.67c0-2.58 5.25-10.91 5.25-10.91S51 51 51 53.61zM41.78 41.08a2.87 2.87 0 0 1-5.7 0c0-1.4 2.85-5.92 2.85-5.92s2.85 4.52 2.85 5.92z" fill="#f9f2ed" stroke="#782b0e" stroke-linejoin="round" stroke-width=".75"/></g></g></svg>