<svg xmlns="http://www.w3.org/2000/svg" width="60" height="60" viewBox="0 0 60 60"><title>остекления</title><g data-name="Слой 2"><g data-name="Слой 1"><path fill="none" d="M0 0h60v60H0z"/><path d="M36.23 55.35a13.62 13.62 0 0 1-4.44-3.12 9.07 9.07 0 0 1-2.45-3.78l.64-.61 7.18 6.47z" fill="#f7e8d2" stroke="#692f17" stroke-miterlimit="10" stroke-width=".8"/><path d="M36.47 55.21s2.43-3.4 3.79-3.67a14.27 14.27 0 0 0 6.45-3.46l1.69-1.69 1.23-1.23 1.61-1.61a1.45 1.45 0 0 0 0-2.05l-.24-.23a1.45 1.45 0 0 0-2 0l1-1a1.67 1.67 0 0 0 0-2.37l-.26-.26a1.68 1.68 0 0 0-2.37 0l.21-.21a1.68 1.68 0 0 0 0-2.37l-.26-.26a1.68 1.68 0 0 0-2.37 0l-.73.73a1.78 1.78 0 0 0 .1-2.53l-.26-.26a1.78 1.78 0 0 0-2.51.14L39.46 35l-1.57 1.57-.14.14v-.21-.13l-.38.38-2.3-2.3a2.12 2.12 0 0 0-1.56 2l-.32 8.25-3.65 3.52" fill="#f8f3ee" stroke="#692f17" stroke-linecap="round" stroke-linejoin="round" fill-rule="evenodd"/><path fill="none" stroke="#692f17" stroke-linecap="round" stroke-linejoin="round" d="M39.05 35.39l-3.36 3.37"/><path d="M29.74 33.16a4.44 4.44 0 0 0 4.94.92l2.67 2.68 2.28-2.28L37 31.8a4.44 4.44 0 0 0-1-4.94" fill="#dfdbd1" stroke="#692f17" stroke-linecap="round" stroke-linejoin="round" fill-rule="evenodd"/><path d="M20.54 36.07l1.83 1.83a1.86 1.86 0 0 0 2.63 0l15.78-15.78a1.86 1.86 0 0 0 0-2.63l-1.83-1.83" fill="#dfdbd1" stroke="#692f17" stroke-linejoin="round" fill-rule="evenodd"/><path fill="#f8f3ee" d="M15.94 20.09l2.25 1.47 2.26-1.46-1.47 2.25 1.47 2.26-2.26-1.47-2.25 1.47 1.46-2.26-1.46-2.26zM15.94 9.34l2.25 1.46 2.26-1.46-1.47 2.25 1.47 2.26-2.26-1.46-2.25 1.46 1.46-2.26-1.46-2.25zM24.16 12.47l2.25 1.46 2.26-1.46-1.46 2.25 1.46 2.26-2.26-1.46-2.25 1.46 1.46-2.26-1.46-2.25z"/><path fill="#fd8204" d="M17.841 33.659l18.696-18.696 2.532 2.531L20.373 36.19z"/><path d="M36.54 15.52l2 2-18.16 18.1-2-2 18.16-18.1m0-1.13L17.28 33.65l3.1 3.1 19.26-19.26-3.1-3.1z" fill="#692f17"/></g></g></svg>