<svg xmlns="http://www.w3.org/2000/svg" width="80" height="80" viewBox="0 0 80 80"><ellipse cx="32.73" cy="68.79" rx="2.02" ry="3.06" fill="#dbc19f" stroke="#5d3329" stroke-miterlimit="10" stroke-width=".4"/><ellipse cx="37.12" cy="68.79" rx="2.02" ry="3.06" fill="#dbc19f" stroke="#5d3329" stroke-miterlimit="10" stroke-width=".4"/><path d="M22 20.35a11.84 11.84 0 1 1 23.66 0c0 7.23-5 12.19-11.83 12.19S22 28.07 22 20.35z" fill="#dbc19f" stroke="#5d3329" stroke-miterlimit="10" stroke-width=".79"/><path d="M56.65 37.91a12.52 12.52 0 0 1 1.29.2c.43.11.69.07.7.43a7.46 7.46 0 0 1 .15 1.08c0 .44-.3.75-.37 1.22s-.55.7-.75.91c-.46.5-3.33-.25-3.79-.49s-.64-1-.56-2.07 1.46-1.25 1.7-1.54a3.11 3.11 0 0 0 .58-1.75c0-.8-.15-1.13.25-1.14s.84.82.79 1.75a9.29 9.29 0 0 0 .01 1.4zM34.87 57.79h-4l.41 8.67c0 1.6.81 2.32 1.81 2.32s1.81-.71 1.81-2.32c0 1.6.84 2.32 1.87 2.32s1.87-.71 1.87-2.32l.36-8.67z" fill="#f7e8d2" stroke="#5d3329" stroke-miterlimit="10" stroke-width=".4"/><path d="M54.1 37.48l-.81-.21c-.16-.63-.48-1.09-.93-1.18l-5.61-1.33a54 54 0 0 0-5.51-4 10.35 10.35 0 0 0-2.37-1.06 15.41 15.41 0 0 0-4.58-.7c-3.34 0-6 .79-7.68 2.25-1.84 1.39-5.88 16-5.36 16.41v.87c0 .33.89.65 2 .7s1.76-.17 1.78-.5v-.77a1.9 1.9 0 0 0 .69-.62L28 37.91a58 58 0 0 0 2.07 5.69s9.93-.25 9.93-.86l1.3-5.29a26.77 26.77 0 0 0 4 2.39c1.92.86 6.78 1.56 7.14 1.16l.72.18c.32.08.81-.75 1.1-1.85s.16-1.76-.16-1.85z" fill="#ec8213" stroke="#5d3329" stroke-linecap="round" stroke-linejoin="round" stroke-width=".79"/><path d="M32 27.75V29c0 .7.84 1.27 1.87 1.27s1.87-.57 1.87-1.27v-1.25z" fill="#dbc19f" stroke="#5d3329" stroke-miterlimit="10" stroke-width=".4"/><path d="M33.82 28.49A8.59 8.59 0 0 1 25.17 20a8.28 8.28 0 0 1 .76-3.46 24.2 24.2 0 0 0 7.89 1.28 24.2 24.2 0 0 0 7.89-1.28 8.28 8.28 0 0 1 .76 3.46 8.59 8.59 0 0 1-8.65 8.49z" fill="#f7e8d2"/><path d="M26 16.77A24.48 24.48 0 0 0 33.82 18a24.49 24.49 0 0 0 7.78-1.23 8.07 8.07 0 0 1 .67 3.23 8.45 8.45 0 0 1-16.9 0 8.06 8.06 0 0 1 .63-3.23m15.77-.49a23.8 23.8 0 0 1-8 1.33 23.8 23.8 0 0 1-8-1.33A8.52 8.52 0 0 0 25 20a8.85 8.85 0 0 0 17.7 0 8.53 8.53 0 0 0-.86-3.71z" fill="#5d3329"/><path d="M36.16 24.57a6.62 6.62 0 0 1-2.54.47 6.74 6.74 0 0 1-2.41-.42" fill="none" stroke="#5d3329" stroke-linecap="round" stroke-miterlimit="10" stroke-width=".4"/><path d="M34.81 25.94a3.3 3.3 0 0 1-1.15.19 3.34 3.34 0 0 1-1.1-.13" fill="#fff" stroke="#5d3329" stroke-linecap="round" stroke-miterlimit="10" stroke-width=".4"/><path d="M34.64 23.07a7.06 7.06 0 0 1-1 .06 7.3 7.3 0 0 1-.93-.06" fill="#fff" stroke="#5d3329" stroke-linecap="round" stroke-miterlimit="10" stroke-width=".2"/><path d="M21.56 49s0 3.43 1 4.29 2.58 1.14 2.27.31a16.57 16.57 0 0 1-.57-2.21A1.68 1.68 0 0 1 25 52c.33.48.51-.09.16-.78s-.9-2.28-.9-2.28z" fill="#f7e8d2" stroke="#5d3329" stroke-miterlimit="10" stroke-width=".4"/><path d="M56.65 37.91a1.24 1.24 0 0 0-.77 1.44c.26 1 .77 2.42.77 2.42" fill="none" stroke="#5d3329" stroke-linecap="round" stroke-linejoin="round" stroke-width=".4"/><path fill="none" stroke="#5d3329" stroke-linecap="round" stroke-miterlimit="10" stroke-width=".4" d="M34.84 67.14v-7.7"/><path d="M29.37 19.36a3.07 3.07 0 0 0-2 1 3.07 3.07 0 0 0 2 1 3.07 3.07 0 0 0 2-1 3.07 3.07 0 0 0-2-1z" fill="#fff" stroke="#5d3329" stroke-miterlimit="10" stroke-width=".4"/><ellipse cx="29.37" cy="20.35" rx=".86" ry=".78" fill="#5d3329"/><path d="M37.67 19.36a3.07 3.07 0 0 0-2 1 3.07 3.07 0 0 0 2 1 3.07 3.07 0 0 0 2-1 3.07 3.07 0 0 0-2-1z" fill="#fff" stroke="#5d3329" stroke-miterlimit="10" stroke-width=".4"/><ellipse cx="37.67" cy="20.35" rx=".86" ry=".78" fill="#5d3329"/><path d="M40 42.74a21.57 21.57 0 0 1-5.33.55 16.31 16.31 0 0 1-4.86-.65c-3.8 3-4.38 9.46-4.38 15.15 0 1 4.24 1.77 9.47 1.77s9.47-.79 9.47-1.77h.09c-.03-5.66-.79-11.99-4.46-15.05z" fill="#dfdbd1" stroke="#5d3329" stroke-linecap="round" stroke-linejoin="round" stroke-width=".79"/><path d="M37 30.29A3.47 3.47 0 0 1 33.82 34a3.47 3.47 0 0 1-3.19-3.69" fill="none" stroke="#f5f4f0" stroke-linecap="square" stroke-miterlimit="10" stroke-width=".79"/><rect x="40.35" y="32.04" width="14.96" height="17.21" rx=".88" ry=".88" fill="#f5f4f0" stroke="#5d3329" stroke-miterlimit="10" stroke-width=".79"/><path d="M54.43 32.09h-13.2a.88.88 0 0 0-.88.88v1.54h15V33a.88.88 0 0 0-.92-.91z" fill="#c6671f" stroke="#5d3329" stroke-linejoin="round" stroke-width=".4"/><path d="M42.29 35a.46.46 0 0 1-.47.46.46.46 0 0 1-.46-.46v-1.23a.46.46 0 0 1 .46-.46.46.46 0 0 1 .47.46zM54.22 35a.46.46 0 0 1-.47.46.46.46 0 0 1-.47-.46v-1.23a.47.47 0 0 1 .47-.46.46.46 0 0 1 .47.46z" fill="#f5f4f0" stroke="#5d3329" stroke-miterlimit="10" stroke-width=".4"/><rect x="41.91" y="39.03" width="1.26" height="1.26" rx=".3" ry=".3" fill="#dfdbd1"/><rect x="43.68" y="39.03" width="1.26" height="1.26" rx=".3" ry=".3" fill="#dfdbd1"/><rect x="45.44" y="39.03" width="1.26" height="1.26" rx=".3" ry=".3" fill="#dfdbd1"/><rect x="47.21" y="39.03" width="1.26" height="1.26" rx=".3" ry=".3" fill="#dfdbd1"/><rect x="48.98" y="39.03" width="1.26" height="1.26" rx=".3" ry=".3" fill="#dfdbd1"/><rect x="50.74" y="39.03" width="1.26" height="1.26" rx=".3" ry=".3" fill="#dbc19f"/><path d="M52.81 39h.65a.31.31 0 0 1 .31.31V40a.3.3 0 0 1-.3.3h-.65a.3.3 0 0 1-.3-.3v-.65a.3.3 0 0 1 .29-.35z" fill="#dbc19f"/><rect x="41.91" y="40.83" width="1.26" height="1.26" rx=".3" ry=".3" fill="#dfdbd1"/><rect x="43.68" y="40.83" width="1.26" height="1.26" rx=".3" ry=".3" fill="#dfdbd1"/><rect x="45.44" y="40.83" width="1.26" height="1.26" rx=".3" ry=".3" fill="#dfdbd1"/><rect x="47.21" y="40.83" width="1.26" height="1.26" rx=".3" ry=".3" fill="#dfdbd1"/><rect x="48.98" y="40.83" width="1.26" height="1.26" rx=".3" ry=".3" fill="#dfdbd1"/><rect x="50.74" y="40.83" width="1.26" height="1.26" rx=".3" ry=".3" fill="#dbc19f"/><rect x="52.51" y="40.83" width="1.26" height="1.26" rx=".3" ry=".3" fill="#dbc19f"/><rect x="41.91" y="42.61" width="1.26" height="1.26" rx=".3" ry=".3" fill="#dfdbd1"/><rect x="43.68" y="42.61" width="1.26" height="1.26" rx=".3" ry=".3" fill="#dfdbd1"/><rect x="45.44" y="42.61" width="1.26" height="1.26" rx=".3" ry=".3" fill="#dfdbd1"/><rect x="47.21" y="42.61" width="1.26" height="1.26" rx=".3" ry=".3" fill="#dfdbd1"/><rect x="48.98" y="42.61" width="1.26" height="1.26" rx=".3" ry=".3" fill="#dfdbd1"/><rect x="50.74" y="42.61" width="1.26" height="1.26" rx=".3" ry=".3" fill="#dbc19f"/><path d="M52.81 42.61h.65a.31.31 0 0 1 .31.31v.65a.3.3 0 0 1-.3.3h-.65a.3.3 0 0 1-.3-.3v-.65a.3.3 0 0 1 .29-.31z" fill="#dbc19f"/><rect x="41.91" y="44.41" width="1.26" height="1.26" rx=".3" ry=".3" fill="#dfdbd1"/><rect x="43.68" y="44.41" width="1.26" height="1.26" rx=".3" ry=".3" fill="#dfdbd1"/><rect x="45.44" y="44.41" width="1.26" height="1.26" rx=".3" ry=".3" fill="#dfdbd1"/><rect x="47.21" y="44.41" width="1.26" height="1.26" rx=".3" ry=".3" fill="#dfdbd1"/><rect x="48.98" y="44.41" width="1.26" height="1.26" rx=".3" ry=".3" fill="#dfdbd1"/><rect x="50.74" y="44.41" width="1.26" height="1.26" rx=".3" ry=".3" fill="#dbc19f"/><path d="M52.81 44.41h.65a.31.31 0 0 1 .31.31v.65a.3.3 0 0 1-.3.3h-.65a.3.3 0 0 1-.3-.3v-.65a.3.3 0 0 1 .29-.31z" fill="#dbc19f"/><rect x="41.91" y="46.05" width="1.26" height="1.26" rx=".3" ry=".3" fill="#dfdbd1"/><rect x="43.68" y="46.05" width="1.26" height="1.26" rx=".3" ry=".3" fill="#dfdbd1"/><rect x="45.44" y="46.05" width="1.26" height="1.26" rx=".3" ry=".3" fill="#dfdbd1"/><rect x="47.21" y="46.05" width="1.26" height="1.26" rx=".3" ry=".3" fill="#fff"/><rect x="48.98" y="46.05" width="1.26" height="1.26" rx=".3" ry=".3" fill="#fff"/><rect x="50.74" y="46.05" width="1.26" height="1.26" rx=".3" ry=".3" fill="#fff"/><path d="M52.81 46.05h.65a.31.31 0 0 1 .31.31V47a.3.3 0 0 1-.3.3h-.65a.3.3 0 0 1-.3-.3v-.65a.3.3 0 0 1 .29-.3z" fill="#fff"/><path d="M53.77 37.42a.53.53 0 0 1-.53.53h-10.8a.53.53 0 0 1-.53-.53.53.53 0 0 1 .53-.53h10.8a.53.53 0 0 1 .53.53z" fill="#dfdbd1"/><path fill="none" d="M0 0h80v80H0z"/></svg>