<svg xmlns="http://www.w3.org/2000/svg" viewBox="0 0 507.55 161.26"><title>Рубашки_1</title><path fill="none" d="M0 0h507.55v161.26H0z"/><path fill="none" stroke="#353535" stroke-linejoin="round" stroke-width="3" d="M124 137.59l-9.08-1.73M105.99 139.25l-7.97-1.48M89.92 141.11l-67.63-12.79a4.3 4.3 0 0 1-3.5-4.22l-.26-86.28a4.29 4.29 0 0 1 3.37-4.22l14.79-3.27a4.27 4.27 0 0 0 1.54-.64l6.08-4.29a4.24 4.24 0 0 1 3.11-.73l23.47 3.55a4.43 4.43 0 0 1 2.53 1.35L79 35.71a4.45 4.45 0 0 0 1 .86l15.44 8.73"/><path d="M71.65 29.21c0 10.48-16.58 22.6-16.58 22.6S42.8 41.23 44.83 25.17" fill="none" stroke="#353535" stroke-linejoin="round" stroke-width="3"/><path d="M55.05 51.81l7.38 17.11S76.76 54.44 79.28 35.4M38 30c-3.6 20.49 6 34.31 6 34.31l10.78-13.38M53.75 133.59V51.81" fill="none" stroke="#353535" stroke-linejoin="round" stroke-width="3"/><path d="M79.11 106.18l-12.33-2.24a3.51 3.51 0 0 1-2.89-3.43V77l19.38 3.52v22.26a3.54 3.54 0 0 1-3.56 3.5 4.07 4.07 0 0 1-.6-.1z" fill="none" stroke="#ff5a19" stroke-linejoin="round" stroke-width="2"/><path d="M99.39 54.55c0-5.11-1.78-9.25-4-9.25s-4 4.14-4 9.25l-1.9 86.54 10-2.09zM75.81 24.28l3.44-2.39a4.28 4.28 0 0 1 3.12-.73l23.47 3.56a4.3 4.3 0 0 1 2.49 1.35l5.59 6.07a4.07 4.07 0 0 0 1 .86l15.38 8.81M79.55 25.72a22.51 22.51 0 0 1 .22-4.1M106.61 25.69c0 3.65-2 7.51-4.65 11M111.56 42.58a50.06 50.06 0 0 0 2.67-10.65" fill="none" stroke="#353535" stroke-linejoin="round" stroke-width="3"/><path d="M134.32 51c0-5.1-1.77-9.24-4-9.24s-4 4.14-4 9.24l-1.9 86.54 10-2.08zM57.05 26.38l3.79-2.7a4.29 4.29 0 0 1 3.16-.74l23.48 3.49A4.29 4.29 0 0 1 90 27.76l5.6 6.07a4.3 4.3 0 0 0 1 .86l15.4 8.75M88.22 27.41c0 3.23-1.72 7.21-4.47 10.52M93.19 43.29a29.62 29.62 0 0 0 2.67-9.71M116.07 52.65c0-5.11-1.81-9.24-4-9.23s-3.94 4.15-3.93 9.25l-1.6 86.55 10-2.1zM265.12 140.56l-67.62-12.78a4.29 4.29 0 0 1-3.51-4.21l-.25-86.19a4.27 4.27 0 0 1 3.37-4.21l14.79-3.26a4.51 4.51 0 0 0 1.54-.67l6.08-4.24a4.24 4.24 0 0 1 3.11-.73l23.47 3.53a4.32 4.32 0 0 1 2.52 1.35l5.59 6.07a4.25 4.25 0 0 0 1 .86l15.41 8.78" fill="none" stroke="#353535" stroke-linejoin="round" stroke-width="3"/><path d="M246.86 28.79c0 10.46-16.58 22.58-16.58 22.58S218 40.79 220 24.75" fill="none" stroke="#353535" stroke-linejoin="round" stroke-width="3"/><path d="M230.26 51.37l7.38 17.08S252 54 254.49 35M213.25 29.55c-3.6 20.48 6 34.28 6 34.28L230 50.48M228.95 133.04V51.37" fill="none" stroke="#353535" stroke-linejoin="round" stroke-width="3"/><path d="M254.32 105.67L242 103.44a3.55 3.55 0 0 1-2.9-3.44V76.48L258.47 80v22.24a3.52 3.52 0 0 1-3.55 3.49q-.3-.01-.6-.06z" fill="none" stroke="#ff5a19" stroke-linejoin="round" stroke-width="2"/><path d="M274.59 54.1c0-5.1-1.77-9.24-4-9.24s-4 4.14-4 9.24l-1.9 86.44 10.05-2.09zM251 23.86l3.44-2.38a4.27 4.27 0 0 1 3.12-.73l23.47 3.55a4.33 4.33 0 0 1 2.49 1.35l5.59 6.07a4.07 4.07 0 0 0 1 .86l15.38 8.79M299.21 137.04l-9.09-1.72M254.76 25.3a23.37 23.37 0 0 1 .21-4.09M281.82 25.27c0 3.65-2 7.5-4.66 11M286.77 42.15a50.06 50.06 0 0 0 2.67-10.65M309.53 50.58c0-5.1-1.77-9.24-4-9.24s-4 4.14-4 9.24L299.69 137l10-2.09z" fill="none" stroke="#353535" stroke-linejoin="round" stroke-width="3"/><path d="M232.26 26l3.79-2.7a4.32 4.32 0 0 1 3.12-.74L262.65 26a4.26 4.26 0 0 1 2.53 1.33l5.61 6.06a4.3 4.3 0 0 0 1 .86L287.24 43M281.19 138.7l-7.96-1.48M263.42 27c0 3.22-1.72 7.2-4.46 10.5M268.4 42.85a29.56 29.56 0 0 0 2.67-9.7M291.28 52.2c0-5.1-1.81-9.23-4-9.22s-3.95 4.15-3.93 9.24l-1.61 86.45 10-2.1zM440.33 140.56l-67.62-12.78a4.29 4.29 0 0 1-3.51-4.21l-.26-86.19a4.29 4.29 0 0 1 3.38-4.21l14.79-3.26a4.6 4.6 0 0 0 1.54-.67l6.07-4.24a4.27 4.27 0 0 1 3.12-.73l23.46 3.53a4.32 4.32 0 0 1 2.53 1.35l5.59 6.07a4.07 4.07 0 0 0 1 .86l15.41 8.78" fill="none" stroke="#353535" stroke-linejoin="round" stroke-width="3"/><path d="M422.07 28.79c0 10.46-16.59 22.58-16.59 22.58s-12.27-10.58-10.23-26.62" fill="none" stroke="#353535" stroke-linejoin="round" stroke-width="3"/><path d="M405.47 51.37l7.38 17.08S427.17 54 429.69 35M388.46 29.55c-3.6 20.48 6 34.28 6 34.28l10.72-13.35M404.16 133.04V51.37" fill="none" stroke="#353535" stroke-linejoin="round" stroke-width="3"/><path d="M429.53 105.67l-12.33-2.23a3.54 3.54 0 0 1-2.9-3.44V76.48L433.68 80v22.24a3.53 3.53 0 0 1-3.55 3.49z" fill="none" stroke="#ff5a19" stroke-linejoin="round" stroke-width="2"/><path d="M449.8 54.1c0-5.1-1.78-9.24-4-9.24s-4 4.14-4 9.24l-1.8 86.44 10-2.09zM426.23 23.86l3.44-2.38a4.26 4.26 0 0 1 3.12-.73l23.47 3.55a4.36 4.36 0 0 1 2.49 1.35l5.58 6.07a4.3 4.3 0 0 0 1 .86l15.38 8.79M474.42 137.04l-9.09-1.72M430 25.3a22.44 22.44 0 0 1 .21-4.09M457 25.27c0 3.65-2 7.5-4.66 11M462 42.15a49.44 49.44 0 0 0 2.66-10.65M484.74 50.58c0-5.1-1.77-9.24-4-9.24s-4 4.14-4 9.24L474.9 137l10-2.09z" fill="none" stroke="#353535" stroke-linejoin="round" stroke-width="3"/><path d="M407.47 26l3.79-2.7a4.31 4.31 0 0 1 3.12-.74L437.86 26a4.29 4.29 0 0 1 2.53 1.33L446 33.4a4.45 4.45 0 0 0 1 .86L462.44 43M456.4 138.7l-7.96-1.48M438.63 27c0 3.22-1.72 7.2-4.46 10.5M443.61 42.85a29.56 29.56 0 0 0 2.67-9.7M466.48 52.2c0-5.1-1.8-9.23-4-9.22s-3.95 4.15-3.93 9.24L457 138.67l10-2.1z" fill="none" stroke="#353535" stroke-linejoin="round" stroke-width="3"/></svg>