<svg xmlns="http://www.w3.org/2000/svg" viewBox="0 0 87 75"><title>Рубашки2</title><path d="M49.07 71.9l-38.39-7.26a2.46 2.46 0 0 1-2-2.4l-.14-49a2.42 2.42 0 0 1 1.92-2.39L18.86 9a2.64 2.64 0 0 0 .88-.38l3.44-2.41a2.43 2.43 0 0 1 1.82-.4l13.32 2a2.45 2.45 0 0 1 1.44.76L42.88 12a2.35 2.35 0 0 0 .58.47l8.74 5" fill="none" stroke="#353535" stroke-linejoin="round" stroke-width="1.5"/><path d="M38.71 8.38c0 5.94-9.42 12.83-9.42 12.83s-7-6-5.81-15.14M29.29 21.21l4.19 9.71s8.13-8.22 9.56-19" fill="none" stroke="#353535" stroke-linejoin="round" stroke-width="1.5"/><path d="M19.63 8.81A27.7 27.7 0 0 0 23 28.29l6.08-7.58M28.54 67.63V21.21" fill="none" stroke="#353535" stroke-linejoin="round" stroke-width="1.5"/><path d="M42.93 52.07l-7-1.27a2 2 0 0 1-1.64-2V35.5l11 2v12.6a2 2 0 0 1-2.36 1.97z" fill="none" stroke="#ff5a19" stroke-linejoin="round"/><path d="M54.45 22.76c0-2.9-1-5.25-2.25-5.25S50 19.86 50 22.76l-1.13 49.13 5.7-1.19zM41.07 5.58L43 4.22a2.43 2.43 0 0 1 1.77-.41l13.33 2a2.42 2.42 0 0 1 1.43.76L62.71 10a2.22 2.22 0 0 0 .59.47l8.73 5M68.91 69.9l-5.16-.98M43.19 6.4a13.29 13.29 0 0 1 .12-2.33M58.54 6.38c0 2.07-1.15 4.26-2.64 6.23M61.36 15.94a28.88 28.88 0 0 0 1.52-6M74.28 20.76c0-2.9-1-5.25-2.25-5.25s-2.25 2.35-2.25 5.25L68.7 69.89l5.71-1.19z" fill="none" stroke="#353535" stroke-linejoin="round" stroke-width="1.5"/><path d="M30.42 6.77l2.15-1.52a2.47 2.47 0 0 1 1.77-.42l13.33 2a2.45 2.45 0 0 1 1.44.76L52.29 11a2.4 2.4 0 0 0 .59.46l8.75 5M58.68 70.84L54.16 70M48.11 7.35a10 10 0 0 1-2.54 6M50.93 16.37a16.82 16.82 0 0 0 1.52-5.51" fill="none" stroke="#353535" stroke-linejoin="round" stroke-width="1.5"/><path d="M63.89 21.68c0-2.9-1-5.24-2.26-5.24s-2.25 2.36-2.24 5.26l-.91 49.13 5.7-1.21z" fill="none" stroke="#353535" stroke-linejoin="round" stroke-width="1.5"/><path fill="none" d="M0 0h87v75H0z"/></svg>