<svg xmlns="http://www.w3.org/2000/svg" width="17" height="17" viewBox="0 0 17 17"><g data-name="Слой 1"><circle cx="8.5" cy="8.5" r="8" fill="none" stroke="#fd8204" stroke-miterlimit="10"/><path d="M8 10.53v-.29a2.66 2.66 0 0 1 .16-1 2.2 2.2 0 0 1 .38-.62A7.12 7.12 0 0 1 9.23 8a3.23 3.23 0 0 0 .64-.7 1.12 1.12 0 0 0 .13-.56 1.32 1.32 0 0 0-.43-1 1.47 1.47 0 0 0-1.06-.42 1.43 1.43 0 0 0-1 .38A2 2 0 0 0 7 6.91L6 6.8a2.53 2.53 0 0 1 .78-1.66 2.51 2.51 0 0 1 1.73-.58 2.58 2.58 0 0 1 1.81.62A2 2 0 0 1 11 6.67a1.89 1.89 0 0 1-.24.94 4.43 4.43 0 0 1-.93 1 4.71 4.71 0 0 0-.61.61 1.35 1.35 0 0 0-.22.49 3.76 3.76 0 0 0-.08.82zm0 1.91v-1.08h1v1.08z" fill="#fd8204"/></g></svg>