<svg xmlns="http://www.w3.org/2000/svg" width="16" height="16" viewBox="0 0 16 16"><g data-name="Слой 1"><circle cx="8" cy="8" r="7.5" fill="none" stroke="#fd8204" stroke-miterlimit="10"/><path d="M7.55 9.91v-.27a2.5 2.5 0 0 1 .15-.91 2.06 2.06 0 0 1 .3-.58 6.67 6.67 0 0 1 .64-.62 3 3 0 0 0 .6-.65 1.05 1.05 0 0 0 .14-.53A1.24 1.24 0 0 0 9 5.43 1.38 1.38 0 0 0 8 5a1.34 1.34 0 0 0-1 .36 1.88 1.88 0 0 0-.5 1.11l-.84-.07a2.37 2.37 0 0 1 .74-1.56A2.36 2.36 0 0 1 8 4.31a2.42 2.42 0 0 1 1.7.58 1.83 1.83 0 0 1 .63 1.4 1.78 1.78 0 0 1-.22.88 4.16 4.16 0 0 1-.87 1 4.42 4.42 0 0 0-.57.57 1.27 1.27 0 0 0-.2.42 3.53 3.53 0 0 0-.07.77zM7.5 11.7v-1h1v1z" fill="#fd8204"/></g></svg>