<svg xmlns="http://www.w3.org/2000/svg" width="70" height="70" viewBox="0 0 70 70"><title>химчистка</title><g id="Слой_2" data-name="Слой 2"><g id="Слой_1-2" data-name="Слой 1"><rect width="70" height="70" fill="none"/><ellipse cx="34.82" cy="53.05" rx="31.64" ry="9.78" fill="#dfdbd1" stroke="#692f17" stroke-linejoin="round" stroke-width="1.06"/><ellipse cx="34.82" cy="52.21" rx="26.4" ry="7.32" fill="#f8f3ee" stroke="#692f17" stroke-linejoin="round" stroke-width="0.53"/><path d="M50.12,16.89H47.25a15.09,15.09,0,0,0-24.87,0H19.52A3.52,3.52,0,0,0,16,20.41v22a3.52,3.52,0,0,0,3.52,3.52h30.6a3.52,3.52,0,0,0,3.52-3.52v-22A3.52,3.52,0,0,0,50.12,16.89Z" fill="#d9d6cc" stroke="#692f17" stroke-linejoin="round" stroke-width="1.5"/><ellipse cx="34.82" cy="37.1" rx="19.39" ry="4.76" fill="#f5f4f0" stroke="#692f17" stroke-linejoin="round" stroke-width="0.75"/><path d="M52.65,48.09c0,2.07-1.11,3.74-2.48,3.74H19.46c-1.37,0-2.48-1.67-2.48-3.74V43.36c0-2.07,1.11-3.74,2.48-3.74H50.17c1.37,0,2.48,1.67,2.48,3.74Z" fill="#d9d6cc" stroke="#692f17" stroke-linejoin="round" stroke-width="1.5"/><path d="M19.72,33.73a5,5,0,1,0-7.16,4.56v13.3a2,2,0,0,0,1.95,1.95h3.27a2,2,0,0,0,1.95-1.95V33.84s0,0,0-.06S19.72,33.75,19.72,33.73Z" fill="#f5f4f0" stroke="#692f17" stroke-linejoin="round" stroke-width="1.5"/><path d="M50.67,33.72a5.15,5.15,0,0,1,10.29,0,5,5,0,0,1-3,4.55V51.55a2,2,0,0,1-2,1.94H52.66a2,2,0,0,1-2-1.94V33.83s0,0,0-.06S50.67,33.74,50.67,33.72Z" fill="#f5f4f0" stroke="#692f17" stroke-linejoin="round" stroke-width="1.5"/><circle cx="14.68" cy="33.65" r="1.31" fill="#d9d6cc" stroke="#692f17" stroke-linejoin="round" stroke-width="0.75"/><circle cx="55.82" cy="33.65" r="1.31" fill="#d9d6cc" stroke="#692f17" stroke-linejoin="round" stroke-width="0.75"/><path d="M45.28,26.82a53.17,53.17,0,0,1,.35-6.21c-2.84-1.43-6.66.88-10.86.88S26.83,19.16,24,20.56a53.1,53.1,0,0,1,.36,6.26A53.11,53.11,0,0,1,24,33.08c2.83,1.4,6.61-.19,10.76-.19s8,1.56,10.86.14A53.17,53.17,0,0,1,45.28,26.82Z" fill="#fd8204" stroke="#692f17" stroke-linejoin="round" stroke-width="0.75"/></g></g></svg>