<svg xmlns="http://www.w3.org/2000/svg" width="70" height="70" viewBox="0 0 70 70"><title>химчистка</title><g data-name="Слой 2"><g data-name="Слой 1"><path fill="none" d="M0 0h70v70H0z"/><ellipse cx="34.82" cy="53.05" rx="31.64" ry="9.78" fill="#dfdbd1" stroke="#692f17" stroke-linejoin="round" stroke-width="1.06"/><ellipse cx="34.82" cy="52.21" rx="26.4" ry="7.32" fill="#f8f3ee" stroke="#692f17" stroke-linejoin="round" stroke-width=".53"/><path d="M50.12 16.89h-2.87a15.09 15.09 0 0 0-24.87 0h-2.86A3.52 3.52 0 0 0 16 20.41v22a3.52 3.52 0 0 0 3.52 3.52h30.6a3.52 3.52 0 0 0 3.52-3.52v-22a3.52 3.52 0 0 0-3.52-3.52z" fill="#d9d6cc" stroke="#692f17" stroke-linejoin="round" stroke-width="1.5"/><ellipse cx="34.82" cy="37.1" rx="19.39" ry="4.76" fill="#f5f4f0" stroke="#692f17" stroke-linejoin="round" stroke-width=".75"/><path d="M52.65 48.09c0 2.07-1.11 3.74-2.48 3.74H19.46c-1.37 0-2.48-1.67-2.48-3.74v-4.73c0-2.07 1.11-3.74 2.48-3.74h30.71c1.37 0 2.48 1.67 2.48 3.74z" fill="#d9d6cc" stroke="#692f17" stroke-linejoin="round" stroke-width="1.5"/><path d="M19.72 33.73a5 5 0 1 0-7.16 4.56v13.3a2 2 0 0 0 1.95 1.95h3.27a2 2 0 0 0 1.95-1.95V33.84v-.06c0-.06-.01-.03-.01-.05zM50.67 33.72a5.15 5.15 0 0 1 10.29 0 5 5 0 0 1-3 4.55v13.28a2 2 0 0 1-2 1.94h-3.3a2 2 0 0 1-2-1.94V33.83v-.06c0-.06.01-.03.01-.05z" fill="#f5f4f0" stroke="#692f17" stroke-linejoin="round" stroke-width="1.5"/><circle cx="14.68" cy="33.65" r="1.31" fill="#d9d6cc" stroke="#692f17" stroke-linejoin="round" stroke-width=".75"/><circle cx="55.82" cy="33.65" r="1.31" fill="#d9d6cc" stroke="#692f17" stroke-linejoin="round" stroke-width=".75"/><path d="M45.28 26.82a53.17 53.17 0 0 1 .35-6.21c-2.84-1.43-6.66.88-10.86.88s-7.94-2.33-10.77-.93a53.1 53.1 0 0 1 .36 6.26 53.11 53.11 0 0 1-.36 6.26c2.83 1.4 6.61-.19 10.76-.19s8 1.56 10.86.14a53.17 53.17 0 0 1-.34-6.21z" fill="#fd8204" stroke="#692f17" stroke-linejoin="round" stroke-width=".75"/></g></g></svg>