<svg id="Слой_1" data-name="Слой 1" xmlns="http://www.w3.org/2000/svg" width="35" height="33.42" viewBox="0 0 35 33.42">
  <title>Звезда2</title>
  <path d="M49.63,43.13L40.41,48a0.83,0.83,0,0,1-1.21-.88L41,36.83a0.83,0.83,0,0,0-.24-0.74l-7.46-7.27a0.83,0.83,0,0,1,.46-1.42L44,25.91a0.83,0.83,0,0,0,.63-0.45l4.61-9.34a0.83,0.83,0,0,1,1.49,0l4.61,9.34a0.83,0.83,0,0,0,.63.45l10.31,1.5a0.83,0.83,0,0,1,.46,1.42l-7.46,7.27a0.83,0.83,0,0,0-.24.74L60.83,47.1a0.83,0.83,0,0,1-1.21.88L50.4,43.13A0.83,0.83,0,0,0,49.63,43.13Z" transform="translate(-32.52 -15.15)" style="fill: none;stroke: #b72727;stroke-miterlimit: 10"/>
</svg>
