<svg data-name="Слой 1" xmlns="http://www.w3.org/2000/svg" width="28.46" height="58.1" viewBox="0 0 28.46 58.1"><path d="M13.91 54.11l-7.45 3.91a.67.67 0 0 1-1-.71l1.42-8.29a.67.67 0 0 0-.19-.59l-6-5.87a.67.67 0 0 1 .37-1.15l8.32-1.21a.67.67 0 0 0 .51-.37l3.72-7.54a.67.67 0 0 1 1.2 0l3.72 7.54a.67.67 0 0 0 .51.37l8.32 1.21a.67.67 0 0 1 .37 1.15l-6 5.87a.67.67 0 0 0-.19.59l1.42 8.29a.67.67 0 0 1-1 .71l-7.45-3.91a.67.67 0 0 0-.6 0z" fill="#fd8204"/><path d="M13.91 22.73l-7.45 3.91a.67.67 0 0 1-1-.71l1.42-8.29a.67.67 0 0 0-.19-.59l-6-5.87a.67.67 0 0 1 .37-1.15l8.32-1.21a.67.67 0 0 0 .51-.37L13.61.91a.67.67 0 0 1 1.2 0l3.72 7.54a.67.67 0 0 0 .51.37l8.32 1.21a.67.67 0 0 1 .37 1.15l-6 5.87a.67.67 0 0 0-.19.59l1.42 8.29a.67.67 0 0 1-1 .71l-7.42-3.91a.67.67 0 0 0-.63 0z" fill="none" stroke="#fd8204" stroke-miterlimit="10"/></svg>