<svg data-name="Слой 1" xmlns="http://www.w3.org/2000/svg" width="35" height="33.42" viewBox="0 0 35 33.42"><title>Звезда2</title><path d="M17.11 27.98l-9.22 4.87a.83.83 0 0 1-1.21-.88l1.8-10.29a.83.83 0 0 0-.24-.74L.78 13.67a.83.83 0 0 1 .46-1.42l10.24-1.49a.83.83 0 0 0 .63-.45L16.72.97a.83.83 0 0 1 1.49 0l4.61 9.34a.83.83 0 0 0 .63.45l10.31 1.5a.83.83 0 0 1 .46 1.42l-7.46 7.27a.83.83 0 0 0-.24.74l1.79 10.26a.83.83 0 0 1-1.21.88l-9.22-4.85a.83.83 0 0 0-.77 0z" fill="none" stroke="#fd8204" stroke-miterlimit="10"/></svg>