<svg xmlns="http://www.w3.org/2000/svg" width="70" height="70" viewBox="0 0 70 70"><title>1</title><g data-name="Слой 2"><g data-name="Слой 1"><path fill="none" d="M0 0h70v70H0z"/><path d="M35.09 29.28V15.45a1.45 1.45 0 0 0-1.34-1.54H13.87a2.18 2.18 0 0 0-2 2.3v10" fill="none" stroke="#ff5a19" stroke-linejoin="round" stroke-width="1.5"/><path d="M35.09 28V15.45a1.46 1.46 0 0 1 1.35-1.54h20.08a2.18 2.18 0 0 1 2 2.3v9.88M17.08 31.72h14.06M50.16 31.72h2.6M39.83 31.72h8.25M48.92 37.87h-8.86M23.89 50.52h-6.83M50.95 50.59l-9.56-.02M16.84 31.55a5.29 5.29 0 1 0-7.51 4.78v14a2 2 0 0 0 2 2h3.47a2 2 0 0 0 2-2V31.55z" fill="none" stroke="#ff5a19" stroke-linejoin="round" stroke-width="1.5"/><path d="M52.93 48.71v-17-.06-.06a5.4 5.4 0 0 1 10.8 0 5.27 5.27 0 0 1-3.12 4.78v13.88a2.07 2.07 0 0 1-2.09 2h-2.17" fill="none" stroke="#ff5a19" stroke-linecap="round" stroke-linejoin="round" stroke-width="1.5"/><path d="M10.18 31.47a1.38 1.38 0 1 1 1.38 1.38 1.37 1.37 0 0 1-1.38-1.38zM57 31.47a1.38 1.38 0 1 1 1.38 1.38A1.37 1.37 0 0 1 57 31.47z" fill="#ff5a19"/><path d="M39.79 49V31s-9.95-1.95-15 6c-4.79 7.43 1.65 19 1.65 19h10.62" fill="none" stroke="#ff5a19" stroke-linejoin="round" stroke-width="1.5" fill-rule="evenodd"/><path d="M33.52 52a4 4 0 1 1 4 4 4 4 0 0 1-4-4z" fill="none" stroke="#ff5a19" stroke-miterlimit="10" stroke-width="1.5" fill-rule="evenodd"/><path d="M35.21 52a2.29 2.29 0 1 1 2.29 2.29A2.28 2.28 0 0 1 35.21 52zM31.69 31.56a10.73 10.73 0 0 1-7.89 18" fill="none" stroke="#ff5a19" stroke-linejoin="round" fill-rule="evenodd"/><path d="M53.39 51.43h-2.26L46.41 21.7c-.57-2.65-1.93-4.31-4.31-4.31a4.31 4.31 0 0 0-4.3 4.31v7.06h-2.26V21.7a6.56 6.56 0 0 1 6.56-6.56c3.62 0 5.85 2.67 6.56 6.56z" fill="none" stroke="#ff5a19" stroke-linejoin="round"/><path d="M34.54 30.72a2 2 0 0 1 2-2h.67a2 2 0 0 1 2 2" fill="none" stroke="#ff5a19" stroke-linejoin="round" stroke-width="1.5"/><path d="M59.37 53.34h-2.53a1.75 1.75 0 0 0-1.74-1.54h-5.68a1.75 1.75 0 0 0-1.74 1.54h-2.52a.76.76 0 0 0-.76.76v1.23a.76.76 0 0 0 .76.76h14.21a.75.75 0 0 0 .75-.76V54.1a.75.75 0 0 0-.75-.76z" fill="none" stroke="#ff5a19" stroke-miterlimit="10" stroke-width="1.5"/><path fill="none" stroke="#ff5a19" stroke-linejoin="round" d="M47.31 53.49h9.82"/><path fill="none" stroke="#ff5a19" stroke-linejoin="round" stroke-width="1.5" d="M50.03 44.83l1.1 6.97h2.26l-1.11-6.97h-2.25zM16.63 37.87h7.43"/></g></g></svg>