<svg xmlns="http://www.w3.org/2000/svg" width="70" height="70" viewBox="0 0 70 70"><title>2</title><g data-name="Слой 2"><g data-name="Слой 1" fill="none"><path d="M0 0h70v70H0z"/><path stroke="#ff5722" stroke-linejoin="round" d="M44.19 14.96v3.03"/><path d="M49.68 26.76c-2.16 5-3.68 15.36-3.77 27.47v2.14a29 29 0 0 0 7 .71 31.33 31.33 0 0 0 6.37-.57v-2.42c-.11-12.3-1.68-22.55-3.9-27.34" stroke="#ff5722" stroke-linejoin="round" stroke-width="1.5"/><path stroke="#ff5722" stroke-linejoin="round" d="M49.89 19.37h5.24v2.58h-5.24zM49.08 19.36H57V15H42v3h1.31a11.93 11.93 0 0 1 3.45.51"/><path d="M46.73 18.49a12.35 12.35 0 0 1-1.15 3.35 12 12 0 0 1-1.92 2.8 7.17 7.17 0 0 0 3.24-1.77 6.76 6.76 0 0 0 2.18-3.51h-.33a10 10 0 0 0-2.02-.87zM55.51 26.67V22h-6v4.68h6z" stroke="#ff5722" stroke-linejoin="round"/><path stroke="#ff5722" stroke-linecap="round" stroke-linejoin="round" d="M38.77 14.65l-3.05-1.63M38.77 18.34l-3.36.84M37.15 16.29l-3.41-.01"/><path d="M35 56.87H17.18l-6.42-41.51a2.29 2.29 0 0 1 2.1-2.44h13.66a2.29 2.29 0 0 1 2.1 2.44z" stroke="#ff5722" stroke-linejoin="round" stroke-width="1.5"/></g></g></svg>