<svg xmlns="http://www.w3.org/2000/svg" width="70" height="70" viewBox="0 0 70 70"><title>4</title><g data-name="Слой 2"><g data-name="Слой 1" fill="none"><path d="M0 0h70v70H0z"/><path stroke="#ff5a19" stroke-linejoin="round" stroke-width="1.5" d="M33.41 45.3H18.44l20.94-18.99h3.41L33.41 45.3z"/><path stroke="#ff5a19" stroke-linejoin="round" stroke-width="1.5" d="M42.65 26.4l8.44-11.35-2.44-1.76-9.27 13.1M9.81 45.26h50.37v7.82H9.81z"/><path stroke="#ff5a19" stroke-linejoin="round" d="M44.209 24.248l5.02 3.196-1.59 2.497-5.02-3.196z"/><path stroke="#ff5a19" stroke-linejoin="round" d="M44.65 28l-4.38 7.58 1.94 1.12 4.3-7.45M48 26.68l4.74-8.22-1.94-1.12-4.63 8.03"/><path stroke="#ff5a19" stroke-linecap="round" stroke-linejoin="round" d="M40.06 36.78l-1.99 2.87M41.82 37.9l-.64 3.37M40.99 43.54l-.35 1.75M40.51 38.35l-1.46 3.1M36.99 41.32l-1.95 3.03M38.43 42.78l-1.22 2.6M19.2 45.43a2.44 2.44 0 1 0-4.87 0M13.47 45.19a1.2 1.2 0 1 0-2.39 0"/></g></g></svg>