<svg xmlns="http://www.w3.org/2000/svg" width="105" viewBox="0 0 70 70"><path d="M27.31 19.75H13.8a2.13 2.13 0 0 0-2.12 2.12v9.19M39.79 19.75h18.89a2.14 2.14 0 0 1 2.13 2.12V31M36.41 41.88H16.08M16.5 36.2h15.1M38.64 41.88h-2.38M55.78 53.63l-39.01-.08" fill="none" stroke="#ff5a19" stroke-linejoin="round" stroke-width="1.5"/><path d="M16.28 36a4.88 4.88 0 1 0-6.94 4.42v12.93a1.88 1.88 0 0 0 1.89 1.88h3.16a1.88 1.88 0 0 0 1.89-1.88V36zM56.39 33.44a5 5 0 0 1 4.22-2.28 4.93 4.93 0 0 1 5 4.88 4.81 4.81 0 0 1-1.51 3.49M62.71 49.21v4.11a1.9 1.9 0 0 1-1.92 1.88h-4" fill="none" stroke="#ff5a19" stroke-linejoin="round" stroke-width="1.5"/><path d="M10.13 36a1.27 1.27 0 1 1 1.27 1.28A1.27 1.27 0 0 1 10.13 36zM59.5 35.72A1.28 1.28 0 1 1 60.77 37a1.27 1.27 0 0 1-1.27-1.28z" fill="#ff5a19"/><path d="M27.34 21.38l-5.06 6.32a.84.84 0 0 0 .12 1.17l.49.39a.85.85 0 0 0 .54.19l5.2-6.85a4.41 4.41 0 0 1-1.29-1.22zM60.93 47.93l-.53-.48-5.87 6.93a.85.85 0 0 0 .3.49l.48.39a.85.85 0 0 0 1.18-.13l5.27-6.58a3.66 3.66 0 0 1-.83-.62z" fill="none" stroke="#ff5a19" stroke-linejoin="round" stroke-width="1.5"/><path d="M30 23.85a5 5 0 0 1-.45-.56 7.77 7.77 0 0 1-.91-.69 3.54 3.54 0 0 1-.33-.19l-4.76 5.93a1.15 1.15 0 1 0 1.79 1.44l4.71-5.88s0-.03-.05-.05zM31.88 25.11a5.11 5.11 0 0 1-1.7-1.11l-4.72 5.88a1.15 1.15 0 0 0 1.79 1.43l4.84-6c-.09-.06-.09-.15-.21-.2zM32.18 25.29l-4.83 6.08a1.15 1.15 0 0 0 1.79 1.43L34 26.74zM35.85 28.29l-.15-.14-.62-.47c-.35-.27-.67-.56-1-.85l-4.85 6.05a1.14 1.14 0 0 0 .17 1.61 1.16 1.16 0 0 0 1.6-.17l4.83-6zM37.74 29.83l-.5-.43c-.46-.4-.85-.67-1.29-1l-4.83 6a1.17 1.17 0 0 0 .18 1.6 1.15 1.15 0 0 0 1.61-.18zM39.63 31.22c-.63-.45-1.78-1.3-1.79-1.32l-4.83 6a1.15 1.15 0 0 0 1.79 1.43l4.74-5.91M40.53 32c-.24-.19-.56-.49-.79-.68l-4.84 6.1a1.14 1.14 0 0 0 .17 1.58 1.16 1.16 0 0 0 1.62-.18l5-6.05c-.37-.26-.8-.52-1.16-.77zM41.67 32.8l-4.89 6.13a1.15 1.15 0 0 0 1.79 1.44l5-6.09c-.65-.46-1.31-.99-1.9-1.48zM43.57 34.31l-4.9 6.13a1.15 1.15 0 1 0 1.79 1.44l4.92-6.14c-.62-.5-1.23-.94-1.81-1.43zM45.45 35.82L40.56 42a1.14 1.14 0 0 0 .17 1.61 1.17 1.17 0 0 0 1.62-.18l4.91-6.13c-.58-.54-1.26-.98-1.81-1.48zM47.35 37.34l-4.91 6.13a1.15 1.15 0 0 0 .18 1.61 1.15 1.15 0 0 0 1.61-.18l4.88-6.08zM50.7 40.13c-.51-.4-1-.82-1.49-1.23L44.33 45a1.15 1.15 0 0 0 1.79 1.44L51 40.35zM51.08 40.42l-4.86 6.07A1.15 1.15 0 1 0 48 47.93l4.91-6.13c-.61-.45-1.22-.91-1.83-1.38zM53 41.87L48.1 48a1.15 1.15 0 0 0 1.79 1.43l5-6.24zM55 43.27l-5 6.25A1.15 1.15 0 0 0 51.78 51l5.09-6.35zM57 44.67L51.88 51a1.14 1.14 0 0 0 .17 1.61 1.16 1.16 0 0 0 1.62-.17l5.06-6.38c-.6-.45-1.18-.94-1.73-1.39zM58.84 46.18l-5.08 6.36a1.17 1.17 0 0 0 .18 1.62 1.15 1.15 0 0 0 1.61-.16l5.07-6.33c-.56-.54-1.19-1.01-1.78-1.49z" fill="none" stroke="#ff5a19" stroke-linejoin="round" stroke-width="1.5"/><rect x="23.29" y="27" width="47.9" height="9.17" rx="3" ry="3" transform="rotate(38.72 47.244 31.584)" fill="none" stroke="#ff5a19" stroke-linejoin="round" stroke-width="1.5"/></svg>