<svg xmlns="http://www.w3.org/2000/svg" width="70" height="70" viewBox="0 0 70 70"><title>5</title><g data-name="Слой 2"><g data-name="Слой 1"><path fill="none" d="M0 0h70v70H0z"/><path fill="none" stroke="#ff5a19" stroke-linejoin="round" stroke-width="1.5" d="M33.31 46.03H17.44l22.2-20.14h3.62l-9.95 20.14z"/><path fill="none" stroke="#ff5a19" stroke-linejoin="round" stroke-width="1.5" d="M43.11 25.99l8.96-12.03-2.6-1.87-9.82 13.89M8.29 45.99h53.42v8.29H8.29z"/><path fill="none" stroke="#ff5a19" stroke-linejoin="round" d="M44.771 23.698l5.323 3.389-1.686 2.648-5.323-3.388z"/><path fill="none" stroke="#ff5a19" stroke-linejoin="round" d="M45.23 27.69l-4.64 8.04 2.05 1.18 4.57-7.9M48.78 26.28l5.03-8.71-2.05-1.19-4.92 8.51"/><path fill="none" stroke="#ff5a19" stroke-linecap="round" stroke-linejoin="round" d="M40.36 37l-2.1 3.04M42.24 38.19l-.69 3.57M41.35 44.16l-.37 1.87M40.84 38.66l-1.54 3.29M37.11 41.81l-2.07 3.22M38.64 43.36l-1.29 2.76M48.8 45.72a3.17 3.17 0 1 0-6.34 0M53.32 45.72a2.23 2.23 0 1 0-4.45 0"/><path d="M59.75 45.72a1.9 1.9 0 0 0-3.34-1.23" fill="none" stroke="#ff5a19" stroke-linejoin="round"/><path d="M56.79 45.49a2.68 2.68 0 0 0-2.68-2.68 2.58 2.58 0 0 0-2 .88" fill="none" stroke="#ff5a19" stroke-linecap="round" stroke-linejoin="round"/><path d="M35.78 33.84a.27.27 0 0 0-.23-.05L31.65 35a.24.24 0 0 0-.16.3.24.24 0 0 0 .3.16l3-.91-7.61 8.86a.27.27 0 0 0 0 .39.28.28 0 0 0 .17.07.27.27 0 0 0 .22-.1l7.65-8.89L34.8 38a.24.24 0 0 0 .21.28.22.22 0 0 0 .21-.09.23.23 0 0 0 .06-.12l.58-4a.27.27 0 0 0-.08-.23z" fill="#ff5a19"/></g></g></svg>