<svg xmlns="http://www.w3.org/2000/svg" width="116" height="116" viewBox="0 0 116 116"><path d="M40.56 43.2h13a1.83 1.83 0 0 1 1.79 1.8v3.28" fill="none" stroke="#ff5a19" stroke-linejoin="round" stroke-width="2"/><path d="M33 47.88h-9a1.81 1.81 0 0 0-1.81 1.8V52A1.81 1.81 0 0 0 24 53.81h2.49L29 91.43a5.25 5.25 0 0 0 5.25 5.24h30.18a5.07 5.07 0 0 0 1.36-.18M70.27 47.88H51.54" fill="none" stroke="#263239" stroke-linejoin="round" stroke-width="2.5"/><path fill="none" stroke="#263239" stroke-linejoin="round" stroke-width="2" d="M51.77 53.74h17.64M25.73 53.74h7.16"/><path d="M50.22 64.59c4 6.53 9.72 13.74 16.57 15.15M73.78 38.17c-4.63 10.4-7.87 32.48-8.07 58.28V100.92a61.08 61.08 0 0 0 14.69 1.5 66.85 66.85 0 0 0 13.44-1.19v-2.35-2.78c-.23-26.3-3.62-48.15-8.41-58.09" fill="none" stroke="#263239" stroke-linejoin="round" stroke-width="2.5"/><path fill="none" stroke="#263239" stroke-linejoin="round" stroke-width="2" d="M74.11 22.86h11.06v5.44H74.11zM72.41 22.84h16.65v-9.28H57.4v6.34h2.75a24.57 24.57 0 0 1 7.28 1.1"/><path d="M67.43 21A26 26 0 0 1 65 28.06 26.72 26.72 0 0 1 61 34a15.35 15.35 0 0 0 6.83-3.73 14.61 14.61 0 0 0 4.61-7.41h-.7A19.94 19.94 0 0 0 67.43 21zM86 38.26v-9.88H73.28v9.88h.24s10.96.02 12.48 0z" fill="none" stroke="#263239" stroke-linejoin="round" stroke-width="2"/><path fill="none" stroke="#ff5a19" stroke-linejoin="round" stroke-width="2" d="M33.13 43.2h18.09v21.71H33.13z"/><path fill="none" stroke="#263239" stroke-linejoin="round" stroke-width="2" d="M62.07 13.54v6.4"/></svg>