<svg xmlns="http://www.w3.org/2000/svg" width="70" height="70" viewBox="0 0 70 70"><title>обработка-поверхности</title><g data-name="Слой 2"><g data-name="Слой 1"><path fill="none" d="M0 0h70v70H0z"/><path d="M56.16 6h-7.6a1.73 1.73 0 0 0-1.73 1.73V39.8h1.49v-30h7.85A1.73 1.73 0 0 0 57.89 8v-.28A1.73 1.73 0 0 0 56.16 6z" fill="#dfdbd1" stroke="#692f17" stroke-linejoin="round" stroke-width=".75"/><path d="M36 38.05c.47-2.09.8-4 2.73-4h9.55v3.7" fill="#f7e8d2" stroke="#692f17" stroke-linejoin="round" stroke-width=".75"/><path d="M48 54.23V36.36H38c-1.14 0-1.6 1-2.07 2.07-3.2 7.12-5.46 12.63-5.46 12.63-1 0-7.73 6.42-9.52 8.15h-5.86a1 1 0 0 0-1 1v3.18a1 1 0 0 0 1 1h30.78" fill="#fd8204" stroke="#692f17" stroke-linejoin="round" stroke-width="1.5"/><path fill="none" stroke="#692f17" stroke-linecap="round" stroke-linejoin="round" stroke-width=".75" d="M48 51.4H30.22M20.96 59.56h20.78"/><circle cx="46.86" cy="59.22" r="5.79" fill="#dfdbd1" stroke="#692f17" stroke-linejoin="round" stroke-width="1.5"/><circle cx="46.86" cy="59.22" r="2.81" fill="#f8f3ee" stroke="#692f17" stroke-linecap="round" stroke-linejoin="round" stroke-width=".75"/></g></g></svg>