<svg xmlns="http://www.w3.org/2000/svg" width="116" height="116" viewBox="0 0 116 116"><title>Обработка поверхностей</title><g data-name="Слой 2"><g data-name="Слой 1"><path fill="none" d="M0 0h116v116H0z"/><path d="M75.56 61V18h13.49a3 3 0 0 0 3-3v-.54a3 3 0 0 0-3-3H76a3 3 0 0 0-3 3v36.2" fill="none" stroke="#353535" stroke-linejoin="round" stroke-width="2"/><path d="M55 58.2c.78-3.59 1.34-6.91 4.56-6.91h15.9v6.37" fill="none" stroke="#353535" stroke-linejoin="round" stroke-width="2.5"/><path d="M75.46 84.48V55.29H58.29c-2 0-2.76 1.77-3.57 3.57-5.49 12.25-9.38 21.73-9.38 21.73C43.79 80.59 33 90.8 28.66 95" fill="none" stroke="#353535" stroke-linejoin="round" stroke-width="2.5"/><path fill="#fff" stroke="#353535" stroke-linecap="round" stroke-linejoin="round" stroke-width="2.5" d="M75.46 81.17H44.89"/><path fill="none" stroke="#ff5a19" stroke-linejoin="round" stroke-width="2.5" d="M70.1 103.85H23.97v-8.6h39.28"/><path d="M63.55 94.61a10 10 0 1 1 9.94 10 9.94 9.94 0 0 1-9.94-10z" fill="none" stroke="#353535" stroke-linejoin="round" stroke-width="2.5"/><path d="M68.67 94.61a4.83 4.83 0 1 1 4.82 4.82 4.82 4.82 0 0 1-4.82-4.82z" fill="none" stroke="#353535" stroke-linejoin="round" stroke-width="2.5"/></g></g></svg>