<svg xmlns="http://www.w3.org/2000/svg" width="300" height="250" viewBox="0 0 300 250"><g data-name="Слой 24"><path fill="none" d="M0 0h300v250H0z"/><path fill="#dbe4e1" d="M138.33 122.97H83.44V17.34h54.89z"/><path d="M138.16 123h-33.44l5.75 12h112.16v-6.62H218V9.9H72l-.06 88.84 11.77-13.8-.22-67.6h54.72zm15.73-105.87h54.69v105.62h-54.69z" fill="#ededed"/><path fill="#e0dede" d="M83.48 17.39h22.9l-22.9 29.27V17.39zM83.48 78.53l21.24 44.48H83.48V78.53z"/><path fill="none" stroke="#692f23" stroke-miterlimit="10" stroke-width=".93" d="M138.32 17.15H83.43v105.63h55.15l-.26-105.63z"/><path d="M259.26 188.94l-204.14.11H6.67c-.53 0-.85.21-.86.59s.47.53.86.52H259s.9.07.91-.57-.65-.65-.65-.65z" fill="#692f23"/><path fill="none" stroke="#692f23" stroke-miterlimit="10" stroke-width=".93" d="M77.91 89.9V13.18h135.13v114.94h-88.53l1.58 6.88h96.53v-6.62h-4.57V9.9H71.95v86.5"/><path fill="none" stroke="#692f23" stroke-miterlimit="10" stroke-width=".93" d="M143.67 13.27h5.18v114.85h-5.18z"/><path fill="#dbe4e1" d="M209.19 123.36H154.3V17.73h54.89z"/><path fill="none" stroke="#692f23" stroke-miterlimit="10" stroke-width=".93" d="M208.61 17.15h-54.89v105.63h55.15l-.26-105.63z"/><path fill="#e0dede" d="M196.55 176.21H103.2v-35.32h93.35z"/><path fill="none" stroke="#692f23" stroke-miterlimit="10" stroke-width=".93" d="M187.83 140.55v35.79M178.94 140.63v35.71M170.04 141.16v35.18M161.15 141.16v35.18M152.25 141.16v35.18M143.35 141.16v35.18M134.46 141.16v35.18M125.56 149.45v26.89"/><path d="M134.58 140.57c.29 0 62.1-.52 62.1-.52s.93 0 .93 1.34v35.11a1.5 1.5 0 0 1-1.63 1.1h-89.19l.17-1.34h88.44s1 .06 1.1-2 0-32.1 0-32.1 0-1.16-1-1.22l-1-.06-60.12.81z" fill="#692f23"/><path d="M153.89 208S204 54.81 204.77 52.81s3.19-6.81 4.85-7.9A14.79 14.79 0 0 1 216 43c1.51 0 6.11.94 7 1.7a9.11 9.11 0 0 1 2.68 8.07C223.6 65.5 180 220.3 180.12 220.53s-1.36.44-1.45-.15S224.13 53.3 224.13 53.3s.59-5.08-1.3-6.07-5.92-.46-6.18-.76a8 8 0 0 0-5.34-.88c-2 .63-3.19 3.09-4.5 6.45s-51.85 156.84-51.95 156.84-1.1.56-.97-.88z" fill="#c7c0b1"/><path d="M178.34 220.59a2.19 2.19 0 0 0 .37 1.57c.53.67 3 1.46 3.75 1.46a3.49 3.49 0 0 0 1.86-.94 8 8 0 0 0 .34-1.29 3.57 3.57 0 0 1-2.83.29c-1.4-.56-3.17-1.31-3.17-1.31s-.13-.23-.32.22zM153.69 209.26a2 2 0 0 0 1.15 1.77c1.2.63 2.19.89 2.75.6a2.63 2.63 0 0 0 1-1c0-.07-4.29-1.75-4.29-1.75s-.44-.3-.61.38z" fill="#c7c0b1"/><path d="M166 190.08c-.06-.07-8.2 1.46-8.42 1.6s.21.56.8.8 21.33 10.11 21.41 10.13 2.66-.31 2.66-.31a9.7 9.7 0 0 0 1.17-.94c0-.1.8-3.23.8-3.23zM183.21 131.59l20.38-3.03-2.31 7.41-1.7 1.06-17-5.32.63-.12zM210.06 127.84l2.86-.52 13.34 4.09s1 1.61 0 1.51-18.09 3.24-18.09 3.24z" fill="#e2ddd3"/><path d="M215.24 46.48a6.72 6.72 0 0 0-3.52 3.26c-1.27 2.39-52 158.35-52.3 158.88s-.6 1.56-.77 1.6a6.33 6.33 0 0 1-2.55-.49c-.63-.4-1.25-.86-1.25-.86s52-157.42 52.44-158.48a12.39 12.39 0 0 1 3-4.35 5 5 0 0 1 3.78-.46c.8.37 1.6.77 1.6.77zM224 45.19a21.31 21.31 0 0 1 1.4 5.64 28.8 28.8 0 0 1-1.05 8.17c-1.06 4.21-43.89 161.63-43.91 161.74a2.66 2.66 0 0 0 1.69.94 2.85 2.85 0 0 0 2.55-.29c.9-.67 44.67-164.39 44.83-165.27s.74-3.35.26-5.1-.6-3.08-2.58-4.72-3.33-1.54-3.19-1.11z" fill="#e2ddd3"/><path d="M180.46 132.11s-.46 1.16-.19 1.7 18.28 6.19 18.28 6.19l1.76.19 1-3.55-.73.11c-.15 0-7.35-1.22-7.79-1.56s-9.37-3.82-9.58-3.63-2.67.03-2.75.55z" fill="#c7c0b1"/><path d="M207.71 136.29c-.06.08-.69 3.13-.69 3.13s21.78-1.89 21.68-2.56-1.53-4.16-1.53-4.16-19.02 3.01-19.46 3.59z" fill="#e2ddd3"/><path d="M207.94 139.88s16.63 61.57 17.46 61.57 1-.43.69-1.49-16.92-60.21-16.92-60.21-1.26-.58-1.23.13z" fill="#c7c0b1"/><path d="M210.4 139.26l1.72-.23 17.12 58.57s.52 1.46.11 1.77-2.86 1.72-2.86 1.72l-17.37-61.35s.94-.79 1.28-.48z" fill="#e2ddd3"/><path d="M219.68 109.32s31.63 101 33.32 101.8.37-1.35.23-2-30.4-95.39-30.4-95.39-1.83-5.38-3.15-4.41z" fill="#c7c0b1"/><path d="M216 105.14l-.29 1.09a21.72 21.72 0 0 1 3.21 1.66 13.32 13.32 0 0 1 3.38 4.41c1 2.52 31.05 98.19 31.05 98.19s1 .75 2.67-.5-.11-3.23-.11-3.23l-30.23-96.24s-3.54-7.11-8.48-7.85zM194.6 100.22a1.09 1.09 0 0 0 .52 1.6c1.15.52 4.35 3.55 5 5.21s1.46 6.36 1.95 8.24 1.24 4.64 2.18 5.61a2.14 2.14 0 0 1 .67 1.95l2-6.47s-1.37-3.15-1.55-3.38-1.32-7.82-3.66-10.25-5.16-5.12-5.63-4.93-1.48 2.42-1.48 2.42z" fill="#e2ddd3"/><path d="M198.67 105.83c.09.29 1.23 8.79 1.83 10.25s3.15 8.3 3.15 8.3c.86.83 1.15-.46 1.15-.46s.11-1.4-.11-1.66a86.52 86.52 0 0 1-3.32-10.42c-.46-2.46-1.55-5.44-2.52-6.53s-.18.52-.18.52z" fill="#c7c0b1"/><path d="M176.74 159.59a89 89 0 0 0-9 1.32c-.29.24-.13.47.6.8s21.24 7.61 21.24 7.61 2.86-1 2.92-1.06a20.83 20.83 0 0 1 .67-2.84c.27-.32-16.43-5.83-16.43-5.83z" fill="#e2ddd3"/><path d="M166.86 161.68c0 .08-.26 1.09.17 1.35s1.72 1.17 2 1.11.11.8.21 1.32 0 1.13 4.18 2.61 17.35 6.56 17.35 6.56 1.89-6 1.89-6.1a7 7 0 0 0-2.26.29c-.16.2-2.07-.31-2.37-.38s-20.76-6.95-20.85-6.95-.25-.24-.32.19z" fill="#c7c0b1"/><path d="M224.29 188s.16.62 1.23.89 22.5 8.85 22.5 8.85l-.89-2.89-22.19-8.45a1 1 0 0 0-.65 1.6z" fill="#e2ddd3"/><path d="M256.65 209.76l-2.6 1.34-1.46.15s.24.86.85 1.07 2.79.08 3.05-.34a5.85 5.85 0 0 0 .61-1.39c.12-.41-.45-.83-.45-.83zM229.74 199.3l-3.44 1.93-1.22.21a2.91 2.91 0 0 0 .29 1.18 1.93 1.93 0 0 0 1.32.31 15.21 15.21 0 0 0 2.35-1.22c.08-.1 1.4-1.11 1.28-1.16a7 7 0 0 1-.58-1.25zM156.58 192.48a1.51 1.51 0 0 0 .29 1.09 11.75 11.75 0 0 0 2 1.06s.21 1.74.22 2.08 20.13 10.52 20.13 10.52l2.52.83s1.86-6.43 1.83-6.5-2.69 1.79-3.17 1.36-23-10.74-23-10.74-.72.06-.82.3z" fill="#c7c0b1"/><path d="M257.41 210.11c.06-.13-30.46-97.2-31-98.38a14.8 14.8 0 0 0-4.16-6.64 12.67 12.67 0 0 0-4.87-3.05c2.52-9 7.7-27.44 8-28.61.44-1.55 4-14.18 4.35-17.1s.52-5.38-.34-7.67a5.08 5.08 0 0 0-3.05-3.13c-.71-.36-3.26-1.36-3.26-1.36C222 43.53 217.78 43 216 43c-.93 0-3.93.06-5.31.92a11.51 11.51 0 0 0-3.86 3.89 43.56 43.56 0 0 0-3.49 7.48c-.63 2-2.42 7.33-2.42 7.33l-32 97.84c-.89.19-1.57.35-1.79.43a1.39 1.39 0 0 0-1 1.18c-.11.42-.12.59 0 .71a7 7 0 0 0 1.83.95L159 191c-1 .21-1.75.39-2 .47a1.39 1.39 0 0 0-1 1.18c-.11.42-.12.59 0 .71a8.28 8.28 0 0 0 1.83 1.11l-4.35 14.2v.08a.19.19 0 0 0 0 .07 2 2 0 0 0 .67 2 6.71 6.71 0 0 0 2 .92 2.54 2.54 0 0 0 2.18-.23 3.32 3.32 0 0 0 .9-1.39c.52-1.21 3.52-9.84 3.88-10.91 4.84 2.56 13.4 7 17.16 8.62a1.19 1.19 0 0 1 .87 1.32l-2.91 10.56c-.59 1.93.15 2.55 1.22 3.23a6.06 6.06 0 0 0 3.09.7c1.49.1 2.56-1 2.48-1.88l22.1-82 .84-.09c1.41 5.2 15.36 56.76 16.67 60.93l.34 1.28s.12.83.77 1c1 .19 1.07 0 1.2-.06s2.8-1.58 3.09-1.77.25-.45.29-.67a14.23 14.23 0 0 0-.38-1.85l-2.44-8.63c5.93 2.34 18.95 7.39 20.51 8l4 12.66c.8 2.1 1.51 2.12 2 2.21a4.57 4.57 0 0 0 2.79-1 2.47 2.47 0 0 0 .61-1.66zm-33.59-102a44.77 44.77 0 0 1 3.82 9.58l28.93 91.84a1.36 1.36 0 0 1-.53.5c-.4.23-1.87.8-1.87.8a.47.47 0 0 1-.16-.09c-3.09-10.44-31.22-98.31-31.22-98.31a10.38 10.38 0 0 0-4.92-5.53 7.51 7.51 0 0 0-1.65-.66l1-3.52a15.68 15.68 0 0 1 6.6 5.36zm2.81 23.23a1.23 1.23 0 0 0-.6-.37c-.53-.13-12.56-3.78-12.56-3.78a2.55 2.55 0 0 0-1.11 0 16.91 16.91 0 0 1-1.87.27l5.51-20.6a6.63 6.63 0 0 1 3.05 1.79c.81.91 6.43 18.96 7.58 22.66zM168.36 161c.8-.27 7.6-1.11 7.6-1.11s.29-.1 1.15.23 16 5.42 16 5.42l.05-.1-.7 2.53-2.07.85s-.53.34-2.37-.38-19.81-6.91-19.81-6.91-.65-.28.15-.53zm31.11-21.41s.1-1.43.11-1.83.46-.5.46-.5l1-.47-.78 2.83c-.61.25-.79-.05-.79-.05zm.59.84l-6.74 24.5-16.45-5.69a1.51 1.51 0 0 0-.59-.11l7.72-23.66c5.15 1.7 14.38 4.72 15 4.83a5.18 5.18 0 0 0 1.06.11zm.17-3.82a1.22 1.22 0 0 1-1 0l-14.66-4.28c-.81-.24-.83-.45-.77-.57s1-.23 1-.23l18.4-2.53-1.91 7c-.21.1-.72.41-1.06.59zm-14.79-5.74l9.18-28.71c2.66.91 3.55 3.18 4.12 4.95s.67 7.27 1.64 10.08a89.47 89.47 0 0 0 3.72 8.54l-.67 2.43zm15.57-14a31.52 31.52 0 0 1-1.13-6.68 12.65 12.65 0 0 0-.84-4 8.51 8.51 0 0 1 1.53 3.09c.71 2 .78 4.87 1.34 7.29a28.81 28.81 0 0 0 3 6.35l-.47 1.72a37.35 37.35 0 0 1-3.44-7.82zm2.19.84c-1-2.12-.57-3.38-1.26-6.26a18.94 18.94 0 0 0-2.63-6.49c-1.11-1.71-4-3.29-4.45-3.52l1-3c4.43 2.69 6.06 5.09 6.72 6.53.9 2 2.27 8.91 3 10.76.46 1.14.77 1.28.95 1.22l-1.36 5c-.17-.49-1.06-2.41-1.96-4.29zm3-2.67c-.78-1.55-1.75-7.64-2.9-10.17a13.5 13.5 0 0 0-4.41-5.19A15.63 15.63 0 0 0 196 97.8l13.42-41.94a36.31 36.31 0 0 1 2.64-5.86c1.18-1.76 2-3 4.2-3.4a1.78 1.78 0 0 1 1 .31 5 5 0 0 0 2.48.15c.65-.06 2.71-.55 3.28 1a8.29 8.29 0 0 1 .57 6.22c-.33 1.41-7.89 29-16.74 61.23-.42.23-.63-.51-.63-.51zm8.38-68.76c-1.26.52-4.16 3.8-5.9 8.45S184.52 131 184.52 131l-3.26.63s-.53.15 0-1.41 25.54-78.1 26.45-80 1.62-3.3 2.94-4.08a4.18 4.18 0 0 1 3.63-.23 1.61 1.61 0 0 0 .66.17zm-33.3 86l.83-.14a1.54 1.54 0 0 1 .39.07s13.68 4.35 15 4.62 1.49.61 1.49.61a6.35 6.35 0 0 1 0 1.95c-.17.71-1 .34-1 .34s-16.91-5.88-17.41-6.11c.07-.62.18-1.34.72-1.42zm2 3l-8 23.93-.32.05c-.63.11-2.12.4-3.64.71.77-2.33 8.15-24.66 8.55-25.39l.3-.24a.47.47 0 0 1 .31 0zm-10.22 32.85l17.34 6.76s.12.07.09.41l-6.15 22.36-17.59-7.73a1.84 1.84 0 0 0-.81-.11zm-8 21.76h-.23c-.6.11-2 .37-3.43.67l7.89-24a3.84 3.84 0 0 0 .39.21l2.79 1.1zM190.34 174c-.6-.17-20.53-7.87-20.53-7.87a1.48 1.48 0 0 1-.16-1.76c6.33 2.54 19.21 7 20.09 7.37a2.73 2.73 0 0 0 1.65.21l-.55 2a.6.6 0 0 1-.5.05zm0-3c-.32-.19.08-1.15.08-1.15a1 1 0 0 1 .46-.57 7.79 7.79 0 0 1 1.34-.49l-.55 2c-.24.13-1.02.39-1.29.21zm-22.75-8c-.5-.22-.64-.39-.67-.5a.94.94 0 0 0 0-.12s.17-.65.53-.65 22.14 7.69 22.25 8a2 2 0 0 1 0 .88c-.13.23-.38.17-.69.08s-20.52-7.3-21.38-7.69zm1 1l.44.18-.1.14a4.64 4.64 0 0 0-.14 1.63v.06l-8.32 24.76-.86.18zm-10.38 27.64c.8-.27 7.6-1.11 7.6-1.11s.29-.1 1.15.23 16.6 7.35 17.16 7.6l-.82 3-2.69 1.19-5.1-2.18c-1.81-.78-17.4-8.2-17.4-8.2s-.69-.26.12-.53zM183.12 202l-.56 2c-.33.13-1.19.46-1.45.31s0-.94.1-1.2l.26-.23s.88-.43 1.26-.66zm-25.62-8.36c-.5-.22-.64-.39-.67-.5a.94.94 0 0 0 0-.12s.17-.65.53-.65 23 10.79 23.07 11.08a.57.57 0 0 1-.08.42c-.13.23-.15.32-.46.23s-21.53-10.1-22.39-10.44zm1 1.18l.32.16a6.24 6.24 0 0 0-.17 1.21l-4.14 12.52a.51.51 0 0 1-.41-.46zm-4.57 14.06a5.26 5.26 0 0 0 .47.25 3.47 3.47 0 0 0 0 1.22c-.8-.63-.63-1.27-.49-1.45zm2.81 2.53a5.64 5.64 0 0 1-2-.73 7.8 7.8 0 0 1 .27-1.32 19.67 19.67 0 0 0 3.26 1.23c-.4.66-.71.99-1.55.84zm1.87-1.67c-.41.58-.55.38-.69.38a19.34 19.34 0 0 1-2.58-1.07c-.2-.15-.15-.42-.12-.57l4-11.3a3.61 3.61 0 0 0 .41.22l2.87 1.6zm21.61-2.68l-20.54-10.26a1.42 1.42 0 0 1-.27-1.5c6.49 3.24 20.22 9.37 21.11 9.71a2.55 2.55 0 0 0 1.76.07l-.59 2.14a1.5 1.5 0 0 1-1.49-.14zm-1.55 13.8a.2.2 0 0 1 .12-.17h.22a7.43 7.43 0 0 1 .92.34s-.53 1.13.15 1.69c-1.75-.72-1.42-1.84-1.42-1.84zm.6-.54c-.24-.13-.18-.47-.14-.69 44.26-162.2 44.14-162.28 45.16-165.27a10.38 10.38 0 0 0-.15-5.84c-.84-1.85-1.7-2.23-2.79-2.25a21.94 21.94 0 0 1-3.21-.08 12.38 12.38 0 0 0-1.77-.25 12 12 0 0 0-3.57-.83c-2.06.06-3.42.82-5.1 3.78S172 155.61 170.52 160.11l-.75.16c1.85-5.53 34.07-106 36.63-110.46s3.78-5.39 6.15-5.93a21.8 21.8 0 0 1 9.62.69c2.26.9 2.1 2.12 2.67 4.52a18.25 18.25 0 0 1 .23 5.23c-1.43 7.59-1.6 7.51-44.94 166.21a2.19 2.19 0 0 1-.87-.19zm3.32 2.81a4.2 4.2 0 0 1-1.89-.23 1.34 1.34 0 0 1-.29-1.63 10.36 10.36 0 0 0 2.72.78 2.53 2.53 0 0 0 1.22-.1 1.69 1.69 0 0 1-1.77 1.19zm1.55-1.7c-.2.19-.3.25-1.29.1a10.27 10.27 0 0 1-2.19-.71c44-162.35 44.34-162.23 44.65-164.88a17.59 17.59 0 0 0-.08-8 10.23 10.23 0 0 0-1-2.71 9.92 9.92 0 0 1 3.41 1.77c2.21 1.56 1.74 7.33 1.56 8.78s-45.08 165.66-45.08 165.66zm23.19-82.24l3-11.11 2.21-.32a1.39 1.39 0 0 1 1.11.08c.71.29 12.42 3.72 12.71 4.08s-.5.73-2.1.92-15.88 2.63-15.88 2.63l-.23.69s17.92-3.19 18.09-3.24.74-.17.8.27.92 3.4.92 3.4.1.36-1.34.61c-.94.16-17.27 1.8-19.31 2zm21.27-1.76l18.29 57.15c-2-.77-15.79-6.18-20.48-8l-13.81-47.19 14.52-1.52a5.86 5.86 0 0 0 1.46-.43zm-20.08 2.38l.67-.07c1 3.59 16.63 60.05 16.86 60.93s-.63.59-.63.59zm17.79 62.57a1 1 0 0 1-.73 0 1.55 1.55 0 0 1-.17-.47v-.17c.37 0 .74 0 .94-.07.05.27.14.64-.05.72zm3.47-2.72c0 .17.07.5.08.69a.49.49 0 0 1-.21.4s-1.69 1.09-2.05 1.24-.54.11-.61 0-.2-.33-.17-.5c.82-.41 2.34-1.34 2.78-1.62a.79.79 0 0 0 .17-.2zm-.57-1.2a1.11 1.11 0 0 1-.69 1.22 5.27 5.27 0 0 1-1.91.88c-.33-.06-15.84-56.65-17-60.86l2.39-.25 13.62 46.89-.78-.28c-.31 0-1 .23-1.18 1.26a1.59 1.59 0 0 0 .88 1.56s.82.34 2.1.85c.08.33 2.56 7.89 2.56 8.73zm-4.08-10c-.44-.19-.94-.65-.88-1.07a.75.75 0 0 1 .69-.69 9.48 9.48 0 0 1 1.6.55l20.55 8 .63 2c-1.72-.67-22.18-8.6-22.6-8.79zm-4.47-77.94c-.07-.14-.17-.39-.3-.68a9.29 9.29 0 0 1 1.95 3.12l31.07 97.52s-.15.88-1-.15c.03.01-31.38-99.22-31.73-99.81zM256.76 211c-.15.63-1.16 1.2-2.4 1.22a1.9 1.9 0 0 1-1.72-.88v-.08a2.38 2.38 0 0 0 .58.34c.59.23.9.4 1.11.11a.19.19 0 0 0 0-.07c0-.11.05-.33.47-.47.57-.19 1.91-1.11 2-.84a1.12 1.12 0 0 1-.04.67z" fill="#692f23"/><path d="M206.78 204.77a80.7 80.7 0 0 1-9.65 6.21c-.39.2-.65 1 .78 1.62s9.48.39 11 .84a18.6 18.6 0 0 0 7.47.42c2.66-.5 39.17.6 41.26.68s18.54 0 20.42-.05c2.49-.07 3.11-1 3.66-1.72a7.11 7.11 0 0 1 3.49-2.3c1.75-.55 4.18-.68 5.69-2.22a39.68 39.68 0 0 0 3.68-4.71c.47-.68 1.54-2 1.2-2s-10.43-.37-10.82-.34-7-1.44-7.14-1.49-8.45-1-9.47-1.18-7.68-.13-7.89-.26-27.11-.47-27.58-.47-26.1 6.97-26.1 6.97z" fill="#c7c0b1"/><path d="M231.24 180s-.17 2.82.21 3.32 1.33.68 1.49 1 2.9 21.56 3.84 23.32a4.28 4.28 0 0 0 3.16 2.69c1.83.64 9 .42 12.09.26s6.24-.65 7.1-1.23 1-2 1.23-3 3.16-22.61 3.16-22.61a3.34 3.34 0 0 0 1-1.44 15.58 15.58 0 0 0-.29-3.06c0-.12.05-.76.05-.76s-32.65-.4-33.04 1.51z" fill="#fd8204"/><path d="M232.65 177.09c-.14.08-1.31.69-1.23 1.38s.52 1.38 3.11 1.44 17 1 19.09.86a51.7 51.7 0 0 0 8.17-1.12c1.54-.46 2.47-.64 2.51-1.1s-2.27-1.48-3.81-1.72-15.93-1.48-19.87-1.1-7.07.86-7.97 1.36z" fill="#bc6a2e"/><path d="M256 180c0 .08.17-1.78.86-2a1.58 1.58 0 0 1 1.8.47A3.9 3.9 0 0 1 259 180zM237.71 175.75s.21-1.59 1.07-1.91a1.35 1.35 0 0 1 1.62.55 3.69 3.69 0 0 1 .21 1.33z" fill="#fd8204"/><path d="M264.92 178.06c-.25-.55-1.34-.87-2.36-1.17a51.91 51.91 0 0 0-5.49-1c-1.12-.11-4.59-.38-6.3-.39-1.95 0-7-.25-9.38-.16h-.11a2.74 2.74 0 0 0-.28-1 1.83 1.83 0 0 0-2.09-1 1.51 1.51 0 0 0-1.39 1.23 5.06 5.06 0 0 0-.19 1.19 28.66 28.66 0 0 0-4.67.92c-1.47.53-2 1.31-2.12 1.69 0 .16.12 4.66.21 4.95a1.28 1.28 0 0 0 .77.71 2.27 2.27 0 0 1 1.18 1.41c0 .24 1.51 11.32 1.51 11.32s2.13 10.5 2.31 11.24a3.66 3.66 0 0 0 1.41 2.08c.67.41 3 1.31 9.87 1.18s9.94-.72 10.84-1.11 1.53-.69 2-2.64c.52-2.35 3.25-23.33 3.25-23.33a2.18 2.18 0 0 1 .8-1.24c.47-.28.42-1 .45-1.49a12.76 12.76 0 0 0-.22-3.39zm-26-3.88a1 1 0 0 1 1.45.76 2.3 2.3 0 0 1 0 .51h-.45c-.09-.28-.3-.6-.63-.59s-.48.49-.49.71l-.68.08c.04-.13.01-1.15.79-1.48zm-6.71 3.56c.91-.53 3.54-1.61 11.21-1.64 6.09 0 10.64.34 12.23.46a42.4 42.4 0 0 1 6.23.9s1.68.52 1.71.86-1.72.9-4 1.21h-.36a2.21 2.21 0 0 0-.25-1.07 1.77 1.77 0 0 0-1.74-.89 1.56 1.56 0 0 0-1.35 1.09 3.28 3.28 0 0 0-.25 1.11 90.92 90.92 0 0 1-9.35.39c-4.48 0-11.68-.4-13.76-1.07-1.23-.36-1.24-.83-.33-1.36zm25.89 1.92c0-.27-.21-.62-.56-.62s-.5.51-.5.65-.6.08-.66.08c0-.19 0-1.25.72-1.45a1.23 1.23 0 0 1 1.44.53 2.94 2.94 0 0 1 .11.81 3.66 3.66 0 0 1-.56-.01zm-24.38 5.76c.26-.12 3.06.46 4.86.72a43.77 43.77 0 0 0 5.8.36c1.34-.09 1.7-.73.47-.75a58.94 58.94 0 0 1-9.11-1c-2.26-.43-3.84-1.25-4-1.73a16.19 16.19 0 0 1-.21-2.6s-.15-.77.74-.43a46.4 46.4 0 0 0 5.64.79c4.41.43 14.07.6 17.94.08 0 0 1-.14 1.44-.22a21.26 21.26 0 0 1-.45 3.55c-.2.66-.56.72-1.31.81-1.45.17-5 .55-6.26.67s-1.38.79-.23.84c.62 0 3.53-.16 5-.34 1.12-.15 2.24-.42 2.29-.24s-.31 1-.47 1.27a9.56 9.56 0 0 1-4.72 5.39c-3.37 1.51-5.38 2-10.48 1.55a51.24 51.24 0 0 1-5.45-1.39c.27.07-.75-.11-.85-.75-.36-2.82-.69-5.57-.69-5.57s-.22-.9.04-1.02zM259.54 208c-.35 1.27-2.48 1.66-2.39 1.63s-1.8.68-9.34.78-9.1-.51-10-1.61-1.34-4-1.5-5.07-1.28-6.79-1.46-7.71c0 0-.18-1-.32-2-.05-.26 0-.47.15-.52.43-.18 2.14.58 3.52 1a17.71 17.71 0 0 0 6.5.63 17.92 17.92 0 0 0 8.12-2.52 11.84 11.84 0 0 0 3.32-3.94 13.51 13.51 0 0 0 1-2.36c.22-.78.29-.6 1.8-1.18.45-.08 3-.84 3.29-1s.8 0 .78.41-3.01 21.81-3.47 23.46zm4.46-25.86c0 .27-.18.55-1.59.94s-2.67.87-3.24 1l-1.5.4a9.83 9.83 0 0 0 .34-1.65c.06-.48.22-1.26.36-2.33.36-.09 3.83-.58 4.5-.86 1.24-.52.95-.07 1.12.12.01.86.01 2.18.01 2.38z" fill="#692f23"/><path d="M234.51 198.45a1.5 1.5 0 0 0-1.08-.24c-.4.06-7.77.6-10 .57s-7.5.18-8 .12a1.56 1.56 0 0 0-1.23.35c-.35.28-6 5-7.83 6.46a33.66 33.66 0 0 1-4.07 2.8 32.42 32.42 0 0 0-3.9 2.59c-.37.44-.36 1 .16 1.21a5.79 5.79 0 0 0 2.66.43c1.79 0 4.57-.52 6.79.18a14 14 0 0 0 5.64.63c1.08 0 9.48-.09 10.56-.07s18.32.65 21 .71c2 0 10.2.16 11.87.17s15.05-.14 17-.13 5.23.12 6.11-.26 2.2-2.39 3.26-3.15a11.79 11.79 0 0 1 4.79-1.74 5 5 0 0 0 3.29-2.14c.51-.68 2.06-2.84 2.49-3.36s1.58-1.59 1.33-1.85-4.84-.4-5.69-.39a28.85 28.85 0 0 1-6.58-.42c-1.81-.35-5.38-1.08-6.32-1.15s-4.43-.16-5.27-.52a23.77 23.77 0 0 0-4.5-.85c-.77 0-4.85-.08-5.05-.07s-.16-.45.07-.5a31.35 31.35 0 0 1 6.95.18 26.8 26.8 0 0 1 3 .78 36.42 36.42 0 0 0 4.72.49 46.68 46.68 0 0 1 6 .9 14.32 14.32 0 0 0 4.21.63c2 0 4.53.15 5.56.16s3.81-.11 4.13.24-1.33 2.12-1.63 2.55-2.32 3-3.15 4a6.94 6.94 0 0 1-3 2.12c-.9.23-4.38.94-5 1.74s-2.16 3-3.54 3.33-8.51 0-10.1.11S246.91 215 244 215s-18.84-.72-23.27-.74-7.84.47-9.69.12-3.26-.78-4.69-1-4.51.28-6.06.07-2.57-.36-3-.92-.87-1.42.82-2.43 4.37-2.38 5.61-3.23 3.17-2.51 4.37-3.36 2.49-2.59 3.53-3.36 2-2.1 3.25-2.15 9 .17 12.34 0c2.16-.14 7-.84 7.27-.72s.14.51.14.51.01.49-.11.66z" fill="#692f23"/><path d="M221.77 181.67v-2.8a1.3 1.3 0 0 1 1-1c.7-.21 2-.2 2.23.2a4.77 4.77 0 0 1 .47 2c0 .73.16 1.56-.1 1.72s-2.56.73-3.6-.12z" fill="#e0dede"/><path d="M221 183.1a19.3 19.3 0 0 1-2.23 1 2.59 2.59 0 0 0-1.55 1.82 4.4 4.4 0 0 0 .37 2 30.41 30.41 0 0 1 .49 4.78c0 1.34-.78 9.68-.63 10.34s.06 3 .71 3.45a11 11 0 0 0 5.25 1.92 15.47 15.47 0 0 0 5.66-.8 2.6 2.6 0 0 0 1.49-1.94c.08-1.13-.72-12.74-.78-13.1a11.79 11.79 0 0 1 .18-3.07c.24-.85.67-2.57.35-3.17a3.59 3.59 0 0 0-1.82-2c-1.13-.46-2.39-1.32-2.53-1.29s.07-.25-.22-.57a11.35 11.35 0 0 0-4.21-.24 1.85 1.85 0 0 0-.53.87z" fill="#efb000"/><path d="M218.38 188.4a35.3 35.3 0 0 0 5.93.55 16.29 16.29 0 0 0 5.33-.72l.74-.47a13.75 13.75 0 0 0-.88 3.35c.09.78.64 4.73.72 5.05a7.33 7.33 0 0 1 .16 1.74c-.08 0-3.44 1.82-6.68 1.55a23.08 23.08 0 0 1-6-1.31s.2-3.17.29-4.07a23.58 23.58 0 0 0-.33-4.37c-.1-.55.13-1.7.72-1.3z" fill="#e0dede"/><path d="M230 192a10.05 10.05 0 0 1 .06-1.91c.09-.39.15-.71.3-1.17a4.67 4.67 0 0 0 .3-1.75 4.09 4.09 0 0 0-1.05-2.36 6.1 6.1 0 0 0-1.87-1.14s-1.43-.71-1.46-.71 0-.08 0-.37a.8.8 0 0 0-.34-.67c-.15-.11-.06-.17 0-.46a19.14 19.14 0 0 0-.26-2.84c-.07-.65-.4-1-.63-1a11.85 11.85 0 0 0-1.91 0 3 3 0 0 0-1.2.29c-.34.26-.3.82-.29 1a18.67 18.67 0 0 1-.21 2.65c-.13.32-.34.39-.5.7s0 .69-.08.72a15.39 15.39 0 0 0-2 .86c-.58.37-1.61 1-1.82 1.82a3.18 3.18 0 0 0 .17 2 37 37 0 0 1 .72 4.19c.34 2.86-2.15 13.18.36 15.27a12 12 0 0 0 5.88 1.78 10.22 10.22 0 0 0 5.12-1 2.57 2.57 0 0 0 1.7-2c.45-4.07-.99-13.9-.99-13.9zm-11.8-2.22c-.07-.46-.24-1.19-.24-1.2.08-.19.5 0 .5 0a26.38 26.38 0 0 0 5.43.48 24.54 24.54 0 0 0 4.44-.31 3.79 3.79 0 0 0 1.55-.63 3.1 3.1 0 0 1-.11.35 4.88 4.88 0 0 0-.39 1.48c0 .53-.09 1.8-.07 2 0 0 .33 2.73.62 5.78a2.49 2.49 0 0 1-.63.42 15.57 15.57 0 0 1-5.52.93 11.65 11.65 0 0 1-5.24-.87 1.08 1.08 0 0 1-.56-.43c.2-2.12.45-3.85.45-4.17a23.55 23.55 0 0 0-.27-3.81zM222 180c0-.35.09-1.55.31-1.72a3.77 3.77 0 0 1 2-.19c.69.1.8.38.81.5s0 0 0 .06.1 1.24.17 1.69.24.84 0 1.19-1.08.51-2.32.42c0 0-.78-.1-.92-.35a4.25 4.25 0 0 1-.05-1.6zm-2.7 4.14c.13-.34.45-.37 1.06-.56a7.29 7.29 0 0 1 1.68-.21c.37 0 .9.13.94 0s-.58-.16-.73-.18c-.95-.16-.89-.43-.83-.57a.56.56 0 0 1 .56-.26c.24 0 1 .13 1 .13a16.74 16.74 0 0 0 1.7 0c.51-.07.89-.1 1 0s0 .43-.54.57a6.56 6.56 0 0 1-1.27.18c-.14 0-.34.22.33.23a14.76 14.76 0 0 0 1.59-.13 3.73 3.73 0 0 1 1.64.66.38.38 0 0 1 0 .54 3 3 0 0 1-1.85.73 20 20 0 0 1-4.38 0c-1.54-.38-2.07-.8-1.95-1.15zm-1.96 1.86a2.64 2.64 0 0 1 1.24-1.69c.09-.09.09 0 .09 0a1.38 1.38 0 0 0 .48.64 5.11 5.11 0 0 0 2.32.75 20.24 20.24 0 0 0 3.78 0c2.17-.32 2.35-.58 2.67-.8a.77.77 0 0 0 .33-.49c.25 0 .55.25.84.48a3.18 3.18 0 0 1 .92 1.75 2.86 2.86 0 0 1 0 .57c-.16.75-1.39 1-2.16 1.2a19.66 19.66 0 0 1-4.51.22c-2.85 0-4.51-.14-5-.53a2.19 2.19 0 0 1-1-2.1zm12.82 19.91c-.84 1.72-3.66 2.19-6.21 2.09a11 11 0 0 1-5.12-1.31 4 4 0 0 1-1-2.61 33.48 33.48 0 0 1 .08-5.49 4.66 4.66 0 0 0 1 .48 16.55 16.55 0 0 0 4.9.67 13.58 13.58 0 0 0 6.16-1.17c.3 3.27.51 6.68.19 7.35z" fill="#692f23"/><path d="M207.68 185.19c-.35 1.59-.2 24.29-.2 24.29s-.35.65 2 .94a33.67 33.67 0 0 0 6.38.08c1.23-.12 2.33-.35 2.62-1a6.44 6.44 0 0 0 .27-2.27c0-.27-.12-17.94-.12-17.94s-.39-1.53-1-1.84-2.25-1.21-2.15-1.61a4.43 4.43 0 0 1 .31-1.33c.22-.27-3.7-2.25-4.35-2.15s-3.44 1.25-3.76 2.83z" fill="#e0dede"/><path d="M211.37 182a3.14 3.14 0 0 1 .55-1.55 8.89 8.89 0 0 1 1.84-2.13 4.06 4.06 0 0 1 2.66.16c.82.45 1.35.62 1.25 1.88a20.17 20.17 0 0 1-1.27 4.05z" fill="#fd8204"/><path d="M207.33 190v10s.31.59 4 1a20.48 20.48 0 0 0 7.34-.73v-10.68a12.13 12.13 0 0 1-3.55.73c-1.94.15-7.57-.49-7.79-.32z" fill="#d2a274"/><path d="M219.08 208.49v-19a3.28 3.28 0 0 0-1.08-2.22c-1-.77-2-1-2.1-1.34a.8.8 0 0 1 .34-1.08c.48-.24.75-.2 1-.68a39.75 39.75 0 0 0 .92-4.32.9.9 0 0 0-.28-.77 4.07 4.07 0 0 0-2.91-1.24c-1.69-.06-2 .67-2.15.89s-1.65 2-2 2.37a.94.94 0 0 0-.08.85c.06.25-.32.14-1.06.52a3.72 3.72 0 0 0-2.32 2.35 15.59 15.59 0 0 0-.36 4v20s0 1.12.51 1.5 3.47.66 5.34.69a19.91 19.91 0 0 0 5.23-.56c1.24-.36 1.01-1.65 1-1.96zm-6.84-28l.84-1.06.2-.22s.45-.7.94-.8a3.6 3.6 0 0 1 2.88.69s.41.23.4.56-.41 1.69-.68 2.67a.28.28 0 0 1-.31.25c-.44 0-.38 0-1.87-.58a10.17 10.17 0 0 1-2.26-1.1.28.28 0 0 1-.14-.43zm-.41.6c.13 0 .1.07 1.23.74a15.26 15.26 0 0 0 3.08 1.17.91.91 0 0 1 .34.2c.08.07 0 .28 0 .3-.11.26-.44.24-.9.13a25.26 25.26 0 0 1-3.05-1.27c-.09-.06-.53-.38-.62-.46-.4-.4-.19-.79-.07-.83zm-3.93 4.42a3.09 3.09 0 0 1 1.3-2 3.42 3.42 0 0 1 2.27-.84c.39.06 2.48.9 2.71 1s1.26.49 1.2 1a8.35 8.35 0 0 0-.24 1c0 .42 0 .88 1 1.35a4.42 4.42 0 0 1 2.17 1.73c.25.66 0 .87-.46 1a12.8 12.8 0 0 1-3.87.39 43.86 43.86 0 0 1-4.92-.21s-1.28-.16-1.28-.48a30.6 30.6 0 0 1 .13-3.96zm-.09 4.62a8 8 0 0 0 1.39.31c.84.1 3.07.18 4.76.17a22.65 22.65 0 0 0 3.65-.25c.43-.11.61-.31.7-.25s.13 9.23.13 9.23v.81c0 .09-.06.11-.13.13a16.59 16.59 0 0 1-2.6.5 26.52 26.52 0 0 1-5.45-.05 15.93 15.93 0 0 1-2.45-.53.23.23 0 0 1-.18-.25v-9.17s-.05-.71.19-.67zm9.75 19.78a38.83 38.83 0 0 1-4.08.37 18.34 18.34 0 0 1-5.45-.46c-.23-.16-.36-.3-.39-.93v-8s0-.3.14-.27h.07a29.47 29.47 0 0 0 3.25.58 24.56 24.56 0 0 0 5.65-.18c.47-.08.86-.19 1.26-.29h.3a.14.14 0 0 1 .14.15l-.06 8.28s.07.59-.81.73z" fill="#692f23"/><path d="M45.63 191.79c-.21 0-2.8-1.08-2.9-4.88a18.72 18.72 0 0 1 1.66-7.69c.12-.13 1.88-4.28 4.32-9.09s7.66-14.32 8.52-15.66 2.77-4.9 4.44-5.5a17.67 17.67 0 0 1 8.17-.47c3.39.55 9.6 1.78 10.65 2.55s3.17 2 3.58 4.53-4.24 10.3-4.29 10.42-3.3 5.33-5.68 8.61-6.87 9.38-8.4 10.71-3.27 3.39-4 4.14a28.69 28.69 0 0 1-5.53 4 8.38 8.38 0 0 1-5.65.33 34.5 34.5 0 0 1-4.89-2z" fill="#f7f5f2"/><path d="M46.9 195.49c-.07.07-3.49 4.76-3.55 4.91s.19 1.45.53 1.6a5.31 5.31 0 0 0 1.54.41c.3 0 1.27-.36 1.39-.62s3-5.83 3.08-5.95.81-1.44.68-1.69a7.7 7.7 0 0 0-2-.71z" fill="#e2ddd3"/><path d="M4.36 229.36c0 .11-.58 4.06-.09 5.28s1.22 1.86 3.15 2.84S18 240.88 27 241a150.57 150.57 0 0 0 17.53-.53 34.2 34.2 0 0 0 7.19-2.84 9.59 9.59 0 0 0 2.63-2.63c.16-.44-.27-6.32-.27-6.32a6.22 6.22 0 0 1-2.35 2.19c-1.73 1-9.28 3-22.86 3.55S6.18 231 5.56 229.8s-1.06-1.2-1.2-.44z" fill="#d2a274"/><path d="M16 222.6c-.21.19-9.84 2.92-10.51 4.28s-.73 2.12.51 3.23 1.38 2.29 11.77 3.89 21.17.31 24.9-.13a22.3 22.3 0 0 0 7.86-2.53 8 8 0 0 0 2.71-2.13c.18-.49.27-2-3.06-4.57s-5-2.29-5-2.29-.58 1.12-4.72 2.16c-4.39 1.11-7.57 2-19.44.18-5.21-.78-5.02-2.09-5.02-2.09z" fill="#e6d1aa"/><path d="M16.07 216.35s-.06 3.69.85 4A29.27 29.27 0 0 0 27 222.06a93.15 93.15 0 0 0 13.41-.92c.38-.13 2.63-.73 2.87-.33s0 1.46 0 1.66a1.3 1.3 0 0 0 1.92-.12 39.24 39.24 0 0 0 3.64-4.23 7.59 7.59 0 0 0 1-2.84c0-.5-.46-6.58-.44-6.72a44.09 44.09 0 0 0-4.68 4.17c-2.19 2.18-6.87 4.3-13.13 4.56s-10.71-.67-13.59-2.09a5.62 5.62 0 0 1-1.54-1.09 3.52 3.52 0 0 0-.39 2.24z" fill="#e6d1aa"/><path d="M16.51 211.41c0 .13.38 2.9.38 2.9.68.64 1.64 1.92 5.12 2.4a97.09 97.09 0 0 0 13.17.3 17.14 17.14 0 0 0 5.74-1.72c.47-.33 3.28-2.53 3.4-2.69s4.2-4.56 4.2-4.56l-2.66-1.33.59-4.14-3.14-1.51s-2.07 2.72-2.13 2.84a4 4 0 0 0 .44 2.25 4.55 4.55 0 0 1 .8 1.45s.86-.33 1.12 0-.04 2.4-.04 2.4c-.09.3 0 .73-1.18.86s-5.28 1.55-9.59 1.86a40 40 0 0 1-11.78-.72c-2.84-.78-4.28-1.77-4.44-.59z" fill="#e6d1aa"/><path d="M15.89 208.09a6.28 6.28 0 0 0 .33 2.49c.37.41 3 .95 4.56 1.18a65.27 65.27 0 0 0 10.83 1.09A35.22 35.22 0 0 0 42 210.94a10.3 10.3 0 0 0 2-.74 22.44 22.44 0 0 0-.15-2.87 14.45 14.45 0 0 1-4.08 1.86c-1.86.34-5.15 2.13-13.61 1.24s-9.46-2.8-9.47-2.87-.64-.69-.8.53z" fill="#d2a274"/><path d="M17.93 206.08c0 .08 2.4 1.32 7.28 1.78a87.44 87.44 0 0 0 13.73-.12 5 5 0 0 0 2.25-1.07c.09-.27.46-.89-.15-1.12a26.59 26.59 0 0 0-10.54-2c-6.5-.19-14.06.09-12.57 2.53z" fill="#e6d1aa"/><path d="M17.13 206.79a6.64 6.64 0 0 0 .33 1.69 23.05 23.05 0 0 0 5 1.15 72.19 72.19 0 0 0 13.17.53c2.29-.31 4.79-.95 4.79-.95A3.91 3.91 0 0 0 42.2 208a13.72 13.72 0 0 0-.15-1.63s-3.79 1.85-15.15 1.3a32.91 32.91 0 0 1-9.47-1.57s-.36.07-.3.69z" fill="#d2a274"/><path d="M29.5 210v-.93l9.26-.46-.18 1.18s-8.07.75-9.08.21zM17.9 208.3a8.15 8.15 0 0 1 .38-.8l6.21 1.09v1.12a19.92 19.92 0 0 1-3.76-.18c-.67-.25-2.83-1.23-2.83-1.23zM60.75 221.65c.3-2.52.18-6.14-.41-6.51S59 213.94 58 215s-2 5.59-2 5.59c0 .86.34 4 .86 4.53s1.14 1.51 1.48 1.36a8.61 8.61 0 0 0 2.41-4.83z" fill="#e2ddd3"/><path d="M58.64 221.11a.77.77 0 0 0 .52-.71c.07-.61-.09-1.11-.33-1.05s-.62 0-.65.49.01 1.29.46 1.27z" fill="#c7c0b1"/><path d="M55.52 214a28.9 28.9 0 0 0-2 5.42 12.1 12.1 0 0 0 .62 5.68 4.45 4.45 0 0 0 2.71 1.9 1.89 1.89 0 0 0 1.18-.56 9.36 9.36 0 0 1 .33-11.73c.52-.43 1.72-.39 1.72.31 0 .12.53-.95-.3-1.21s-3.05-.66-4.26.19z" fill="#fd8204"/><path d="M48.71 218.63c-.06.21-2 2.78-2 2.78l6.66-.24.44-2.9zM16 222.6c.24.15 3 2.16 9.11 2.66a69.15 69.15 0 0 0 16.45-1.18 3.81 3.81 0 0 0 2-1.36l-.24-2.31A76.07 76.07 0 0 1 27 222.06c-7.4-.3-10.83-2-10.83-2zM48.71 198.3c0 .13 3.37 2.12 4 1.85a1.79 1.79 0 0 0 1-1.32 20.9 20.9 0 0 0-2.93-2.43c-.7-.25-1.7-.01-2.07 1.9z" fill="#c7c0b1"/><path d="M52.7 200.15s2.31 3.15 2.22 4.93-.2 4.24-1.42 5.5a17 17 0 0 1-3.84 2.53 6.7 6.7 0 0 0-.16 1.51c.11 0 .42.42 2.62-.71a9.78 9.78 0 0 0 4.09-3.91c.31-.8 1.4-3.91 1-5.24a20.79 20.79 0 0 0-3.2-5c-.55-.46-1.31.39-1.31.39zM41.74 202.15c-.2 0-2.18-.38-3.06.49a12.06 12.06 0 0 1-1.86 1.46s-1.33-.13-1.2-.44a6.51 6.51 0 0 1 1.45-2 7.81 7.81 0 0 1 2.59-1.4 7.83 7.83 0 0 1 3.21-.07c.26.18-1.13 1.96-1.13 1.96z" fill="#e2ddd3"/><path d="M80.34 174.71s-.53 9.35 1 11.46 5.56 2.82 7.94 2.38a11.17 11.17 0 0 0 4.23-1.85s1.76-5.47 2-5.82a26.62 26.62 0 0 0 1-3.44s-8.38-.44-11.55-1.32-4.62-1.41-4.62-1.41zM109.35 175.15s.26 7.76.71 9.79 1.5 2.47 1.5 2.47 6-1 8.55-.62 4.06.44 4.06.44 1.41-4.59 1.68-5.73-.18-7.41-.18-7.41a29.5 29.5 0 0 1-6.53 1.23c-3.26.19-9.79-.17-9.79-.17z" fill="#d2a274"/><path d="M80.87 185.73a15 15 0 0 1-6.17-.88c-4-1.23-9 .44-10.14 1.41s-3 4.14-2.2 6.79 4.32 4.67 7.58 5.64 9.43-.44 10.67-.88 7.5-.62 9.52-1 3.17 0 4.06-1.85 1.68-3 1.15-4.5a30 30 0 0 0-1.85-3.79 4.6 4.6 0 0 1-3.49 1.71c-2.29 0-7.41-1-8-1.59zM111.21 187.32s-2.29 2.65-2.38 3.79a5.84 5.84 0 0 1-1.06 2.56c-.26.44-1.59 4.59.26 6.61s7.23 2.56 9 2.56 9.79-1.5 11.11-1.59a3.64 3.64 0 0 0 2.65-1.76c.26-.53.62-4.94.18-6s-3.44-2.56-3.7-2.82-2.38-3.44-2.38-3.44-11.74-1.5-13.68.09z" fill="#efb000"/><path d="M86.61 37.24s-1.85 2.82-1.68 4.06.44 2.82.44 2.82l-2.12.88a27.37 27.37 0 0 1-4.14 1.06c-.88 0-3.7.09-3.7.09l-.18 4.32s-.35 11.29 5 17.19 11.46 9.79 18.16 9.61 14-1.5 17.19-3.88 7.05-6.44 7.85-8.55l1-1.94a5.94 5.94 0 0 0 2.56-2c.79-1.32 1.59-3.7.79-5.29a2.94 2.94 0 0 0-3.78-1.44 5.05 5.05 0 0 0-2 1s-4.23-3-5.2-4.32a61.33 61.33 0 0 1-3.17-6.08 3.12 3.12 0 0 1-2.47.71c-1.59-.18-3 .26-4.41-.18s-4.23-1.68-6.08-1.59a59.25 59.25 0 0 0-7 .71c-.88.26-3.09.79-3.09.79l-1-1.59s-2.09-5.67-2.97-6.38z" fill="#f9e5cc"/><path d="M97 54.41s-.32-2 1-2.73 3.94-.38 5.61.35 2.79 1.35 2.67 1.79a3.34 3.34 0 0 1-2.18 1.59 22 22 0 0 1-4.5.18 10.76 10.76 0 0 0-2-.73c-.6-.07-.6-.45-.6-.45z" fill="#fff"/><path d="M98.69 52a3 3 0 0 0-.29 2.09 1.92 1.92 0 0 0 1.85 1.32 3.09 3.09 0 0 0 2.15-1.23 2 2 0 0 0-.15-2.06c-.45-.54-2.89-.98-3.56-.12z" fill="#abd2f0"/><path d="M79.46 53.64c0-.13.09-2 1.21-2.23a5.9 5.9 0 0 1 3.35 0 4 4 0 0 1 2.32 1.73c.53.73.24 1.21.24 1.21s-.15.29-1.15.53-1.94.65-2.91.26-2.91-.5-3.06-1.5z" fill="#fff"/><path d="M80.73 52.23a1.92 1.92 0 0 0 .82 1.94 2.49 2.49 0 0 0 2.5.18 2.1 2.1 0 0 0 .59-1.56c.06-.65.15-1.32-1-1.47s-2.82-.32-2.91.91z" fill="#abd2f0"/><path d="M82.17 25s-3.12 3.91-4 5.41-3.76 3.41-4.5 4.06a18.42 18.42 0 0 0-4.41 7.41c-1.38 4.17-1 6.38-1 6.38s-1.44 4.47-1.26 7 1.91 7.35 3.17 8.94 1.76 1.56 2.47 3a21.6 21.6 0 0 0 7.05 7.58A62.41 62.41 0 0 0 91.16 80a3 3 0 0 0 2.29-.29 9.17 9.17 0 0 0 .62-2.26c-.06-.53-1.32-.41-2.09-1s-6.11-1.91-9.46-6.11-5.61-7.82-6.35-10-1.17-8.63-1.26-9.9a23 23 0 0 1 0-3 1.54 1.54 0 0 1 1.38-1.23 40.91 40.91 0 0 0 5.7-.76c1.12-.35 2.79-.62 3-.94s-.18-2.62.21-4.06 1.65-2.44 1.82-3 .82 1.29 1.35 2.38 1.79 4.29 1.65 4.91 1 .24 2.23 0 7.38-1.62 9.05-1.15 5.14 1.62 6.44 2a7.79 7.79 0 0 0 4.76-.44c.91-.59 1.76 1.82 1.82 1.94s3.06 5.47 5.41 6.79 3.12.62 3.53.59 2.06-.76 3.29-.12a3.06 3.06 0 0 1 1.45 4.03 42.38 42.38 0 0 1-2.73 4.17 11.16 11.16 0 0 0-1.32.91c-.12.06-1.91 5.56-5.29 7.67s-3.41 2.94-3.41 2.94.35 5.14.38 5.26a4.23 4.23 0 0 0 3.12-.38c1.44-.76 6.7-2.41 7.76-3a65.52 65.52 0 0 0 7.29-5.08c1.41-1.32 5.06-4.88 5.73-6.26a18.17 18.17 0 0 0 2-8c-.09-3.41-1.18-11.76-1.91-13.64a29.31 29.31 0 0 0-5.47-8.11 81.86 81.86 0 0 0-9.38-7.29c-.47-.15-6.17-4.09-7.82-4.67s-6.55-2.15-7.52-2.53-3.23-1-4.26-.76a4.34 4.34 0 0 0-1.82 1.12 7.19 7.19 0 0 0-3.35-1.06c-1.38.09-5.88 1-5.88 1a10.06 10.06 0 0 0-3.79.18c-1.93.49-5.81 1.73-8.16 4.15z" fill="#e09c51"/><path d="M86.69 29a4.68 4.68 0 0 1-1.85 2.12 23.6 23.6 0 0 0-5.29 4.23c-.94 1.29-2.56 4.38-2.44 7a10.51 10.51 0 0 0 .68 3.76h-2.41s-.21-5.94.06-7.85 2.5-8.08 4.14-10 4.09-4.64 5.11-5.06a32.25 32.25 0 0 1 4.53-1.73 35.52 35.52 0 0 1 5.56-.91 40 40 0 0 0 4-.65c.26-.06 2.29-.44 3.29.41s1.21.5 1.21.5a3.09 3.09 0 0 1 2.38-1.15c1.29.18 4.47.5 6.17 3.56a56.62 56.62 0 0 1 2.73 5.58s-3.23-5.08-6-6.26-4 .21-4 .21.5 3.53.5 3.62a16.33 16.33 0 0 1-.12 3.85 5.61 5.61 0 0 0-4.55-5.23 7.92 7.92 0 0 0-7 2.2l.68-2.2a11.73 11.73 0 0 0-3.59 6.11c-.65 3.62-.56 12.4 0 13.43l.15.35a.4.4 0 0 1-.53.12c-.38-.15-.65-2.15-1.47-3.35a25.24 25.24 0 0 1-2.23-7.79c.15-1.12.29-4.87.29-4.87z" fill="#e9b87f"/><path d="M75.47 33.31a33.34 33.34 0 0 0-2.65 5.26 13.72 13.72 0 0 0-.47 6.82c.5 1.65.38.47.38.47a13 13 0 0 1 1-4.41c.85-1.56 1.41-1.7 1.41-1.7S76.38 34 76.47 34s-.12-1.52-1-.69zM71 45.8s-2.88 3.64-3.38 6.32a15.55 15.55 0 0 0 .32 7.29c.62 1.88 1.7 4.53 2.44 5s1-.12 1-.12a15.79 15.79 0 0 1-2.2-6.44c-.44-3.82 1.35-10 3.09-11.46 0 0 .29-.79-.15-.79a1.64 1.64 0 0 0-1.12.2z" fill="#e9b87f"/><path d="M80.08 147.13a2.91 2.91 0 0 0-.44 3.31c4.35 2.43 4.86 5 4.82 6.07-.06 1.82-4.91 9.94-6 12.19.35 2.35.54 3.24 1.78 4.77s7.76 4 10.05 4.06 4.53.71 5.94-.94 2.29-2.18 2.88-4 1.12-6.05 1.59-7.23 1.29-4.64 2.18-4.64 2.06 3.06 2.06 4 .94 5.53 3.17 7.76 4.47 3.76 9.35 3.35a23.9 23.9 0 0 0 9.17-2.59 12.56 12.56 0 0 0 2.7-5.06c.35-1.7-.35-7.94-.82-9.7s.94-4.64.94-4.82 1-4.82.35-5.94-2.76-1.47-4.17-1.35-9.82 1.76-12.64 1.94-6.29.71-9.05.59-10.4-1.59-10.4-1.59-12.82-.83-13.46-.18z" fill="#fd8204"/><path d="M85.46 147.2s-2.06 10.58-1.65 18.46 1.82 9.17 1.82 9.17L89 147.32l4.35.53s-1.53 9.23-1.7 10.7-.71 10.76-1.53 13.29a19.55 19.55 0 0 1-2.59 4.88s-4.47-.41-5.35-1.94A8.08 8.08 0 0 0 81 173s-.39-3.34-.54-7.94c4.72-7.43 4.75-11.07.61-13.89a37 37 0 0 1 .81-4s2.87-.09 3.58.03zM97.57 149.67a37.58 37.58 0 0 0-2.88 10.88 76.75 76.75 0 0 1-1.12 9.88c-.35 1.41-1.94 5.17-1.88 5.7s1.12 1.06 2.29 1 1.88-1.29 2.23-3.23 1.48-11.3 1.79-13.47 1.23-7.94 1.82-8.7zM99.45 149.73s3.76 6.41 4.23 8.82 1 7.29 1.59 8.88 1.94 5.23 3.23 6 2.88 2.18 3.06 2.18.65-.76.59-1-.76-2.47-.76-2.47-2.41-3.76-2.76-6.17a62.41 62.41 0 0 0-3.17-10.82c-.94-2-3.64-6.41-3.76-6.64s-2.25-.13-2.25 1.22zM105.92 149a40.81 40.81 0 0 1 2.29 5.17c1.23 3.29 4.41 12.34 4.82 13.64s2.06 6.88 3.82 7.7 4.94 0 5.7-.53a9.35 9.35 0 0 0 2.29-3.53 71.58 71.58 0 0 0-1.84-10.14c-.59-1.82-1-2.23-1.06-4.41s-.88-8.58-1.53-9.52l-4.23.59s1.18 7.82 1.59 8.88a77.3 77.3 0 0 1 2.59 8.58c.35 2.06 1 6.35-.35 9.23l-.18.65a20.13 20.13 0 0 1-1.94-3.64c-1-2.35-2.76-9.05-3.29-10.58s-1.76-6.76-2.53-8.82-1.12-3.17-1.76-3.53-4.39.26-4.39.26z" fill="#e16702"/><path d="M122.67 147.14a7.63 7.63 0 0 1 1.65 4.47c.12 2.76-.06 4.47.06 6.17s1.88 5.47 1.82 7.29a21.47 21.47 0 0 1-.82 6.05c-.65 1.82-1 2.41-.76 2.41a7.18 7.18 0 0 0 2-.88c.35-.29 1-.18 1.88-2.94a18.94 18.94 0 0 0 .53-8.35 13.84 13.84 0 0 0-1.65-3.88 17.58 17.58 0 0 0 0-7.41c-.94-3.23-1.29-3.59-1.29-3.59z" fill="#e16702"/><path d="M134.43 141.15c-.28-.82.21-10 0-10.88s.82-1.91 2.66-4.17a19.67 19.67 0 0 0 2.18-3.77c.9-2.21 1-4.39 1.33-6.75.18-1.59-.75-6-1.51-8.17-.4-1.11-1.24-3.83-1.55-5-.11-.41-2-12.83-7.85-15.29-3.6-1.5-7.5-3.17-7.5-3.17l-5.91-4.41-.79-1.76-.49-4.12s-5.47 3.26-10.32 3.53-10.76-.09-10.76-.09l-.09.44c.09.35.18 2.73-1 3.09s-3.88.62-5.29 1.32a15.85 15.85 0 0 0-6.7 4.85 36.67 36.67 0 0 1-6.57 6.52c-1.23 1-5.47 8.58-5.56 8.8v.11c-1.36 3.29-3.08 6.52-3.6 10a32.48 32.48 0 0 0-.27 4c0 1.73-1.91 7-2.26 8.68.81.47 1.78 5.54 2.49 6.79 1.69 3 5.61 3 6.68 3.09 2.44.09 6.55-1.4 6.55-1.4a12 12 0 0 0-.42 2.42c-.09 1.32-1.4 6.56-1 7.79s7 3.27 7.33 3.27 11.37.35 14 1.41 11.9.35 14.2.18 12-1.85 14.73-1.85a46 46 0 0 0 5.73-.44s1.41-1.32 1.5-2v-.06c-.27-.46.23-2.45.06-2.96z" fill="#f7f5f2"/><path d="M113.37 115.85a4.08 4.08 0 0 1 .17-4.82 4 4 0 0 1 5.52-1 3.85 3.85 0 0 1 1.21 4.42c-.14.4-5.18-.06-6.9 1.4z" fill="#fd8204"/><path d="M66.52 120.73c-.08.17-.89 2.6-.89 2.6s.77 3.37 1.42 4a7 7 0 0 0 3 1.83 10.79 10.79 0 0 0 2.49.12 17 17 0 0 0 2.49-.18 3.35 3.35 0 0 0 1.07-1.54c.18-.62 2-5.42 1.89-5.62a4.85 4.85 0 0 0-1.48-1.07c-.21 0-2.66-1.42-2.66-1.42l-3 .12-3 .53s-.79-.49-1.33.63z" fill="#f9e5cc"/><ellipse cx="135.97" cy="117.99" rx="4.12" ry="3.81" transform="rotate(-53.09 135.961 117.985)" fill="#fd8204"/><ellipse cx="124.71" cy="132.1" rx="3.01" ry="2.79" transform="rotate(-53.09 124.698 132.094)" fill="#fd8204"/><ellipse cx="129.55" cy="97.16" rx="4.42" ry="3.97" transform="rotate(-53.09 129.545 97.158)" fill="#fd8204"/><ellipse cx="83.48" cy="107.92" rx="3.48" ry="4.42" transform="rotate(-4.68 83.471 107.835)" fill="#fd8204"/><ellipse cx="83.99" cy="87.1" rx="3.71" ry="2.92" transform="rotate(-37.27 83.994 87.095)" fill="#fd8204"/><path d="M74.28 117.1c-1.93-1.5-2.53-4-1.34-5.47s5.63-2.46 5.63 0c0 2 .5 6.23 0 6.4a4.66 4.66 0 0 1-4.29-.93zM120.76 86.21a3.82 3.82 0 1 1-5.39-5.39 4.42 4.42 0 0 1 .9-.69c1.41 1.35 5.06 2.94 5.69 3.89a4.32 4.32 0 0 1-1.2 2.19z" fill="#fd8204"/><g fill="#692f23"><ellipse cx="103.92" cy="80.79" rx=".47" ry=".43"/><ellipse cx="96.66" cy="79.88" rx=".47" ry=".43"/><ellipse cx="99.01" cy="83.35" rx=".47" ry=".43"/><ellipse cx="102.24" cy="86.11" rx=".47" ry=".43"/><ellipse cx="97.27" cy="88.76" rx=".47" ry=".43"/><ellipse cx="92.98" cy="91.58" rx=".47" ry=".43"/><ellipse cx="95.83" cy="95.78" rx=".47" ry=".43"/><ellipse cx="94.81" cy="100.92" rx=".47" ry=".43"/><ellipse cx="98.95" cy="99.72" rx=".47" ry=".43"/><ellipse cx="91.78" cy="98.34" rx=".47" ry=".43"/><ellipse cx="111.24" cy="79.59" rx=".5" ry=".45"/><ellipse cx="80.15" cy="138.49" rx=".6" ry=".54"/><ellipse cx="85.12" cy="144" rx=".6" ry=".68"/><ellipse cx="92.67" cy="139.79" rx=".6" ry=".68" transform="rotate(-87.85 92.674 139.796)"/><ellipse cx="99.46" cy="145.29" rx=".6" ry=".68" transform="rotate(-87.7 99.786 145.254)"/><ellipse cx="106.96" cy="141.27" rx=".62" ry=".57" transform="rotate(-87.85 106.96 141.266)"/><ellipse cx="113.52" cy="145.56" rx=".62" ry=".57" transform="rotate(-87.85 113.513 145.557)"/><ellipse cx="125.75" cy="144.15" rx=".62" ry=".57" transform="rotate(-87.85 125.746 144.15)"/></g><path d="M77.06 124.43l-.65 1.83s2.83.55 2.9.53S77.18 140 77.18 140a22.88 22.88 0 0 0-.44 3.23 13.48 13.48 0 0 1 .5 2.25s-2 3.7-1.92 3.79a35 35 0 0 0 3.94 1c0-.09 1.27-3.49 1.27-3.49.07-.19 2.57-2 2.57-2s2.66-1.11 2.78-1.21 3.67-5.86 3.67-5.86l2.45-4.16 2.49-2 1.86-1.72 11.54.8s2.93.62 3.08.41.77-1.2.68-1.48-13-3-13.11-3z" fill="#c7c0b1"/><ellipse cx="109.66" cy="98.03" rx="4.12" ry="3.81" transform="rotate(-45 109.655 98.03)" fill="#fd8204"/><ellipse cx="93.99" cy="119.44" rx="4.12" ry="3.81" transform="rotate(-53.09 93.988 119.44)" fill="#fd8204"/><ellipse cx="111.93" cy="134.36" rx="4.12" ry="3.81" transform="rotate(-53.09 111.915 134.35)" fill="#fd8204"/><path d="M42.7 207z" fill="#692f23"/><path d="M80.45 129.61c-.12.1-1 5.39-.69 5.73s5.16.74 5.39.69.94-1.38 1-1.53 3.47-6.39 3.48-6.48a5.12 5.12 0 0 0-1.63-.92c-.32 0-7-.48-7-.4s-.55 2.91-.55 2.91z" fill="#e2ddd3"/><path d="M77.76 184.95zM115 159.43c-.5.32 1.41 1 3.24.65a8.62 8.62 0 0 0 3.41-1.71 19.67 19.67 0 0 1-2.29.56c-.84.07-4.36.5-4.36.5zM100.06 48.07a20.42 20.42 0 0 1 3.34.25 10.18 10.18 0 0 1 2.81 1.54c.64.58.53.19.53.19a6.77 6.77 0 0 0-1.81-1.88 10.33 10.33 0 0 0-5.44-1.61s-1 0-1.14.63c-.03.27.06.75 1.71.88zM80.13 49s2-.74 2.59-.86a7 7 0 0 1 2-.1c.54.07.92-.09.92-.42a.86.86 0 0 0-.84-.77 13.25 13.25 0 0 0-2 .41 8.69 8.69 0 0 0-2 .78 2.34 2.34 0 0 0-.75.75.2.2 0 0 0 .08.21zM105.37 52.56c-1.75-.84-2.1-1.43-4.94-1.7s-3.52 1.09-3.7 1.88a10.08 10.08 0 0 0-.08 1 4.94 4.94 0 0 0 0 1.16c.1.17.51.07.75.1s2.24.61 2.85.72h.18a9.83 9.83 0 0 0 3.92-.17 4.68 4.68 0 0 0 2.24-1.17c.41-.39.35-.63.35-.63s.18-.35-1.57-1.19zm-6.64 2.38c-.45-.18-1.14-.35-1.36-.81a2.42 2.42 0 0 1 .71-1.62 2.15 2.15 0 0 0-.12.79A2.09 2.09 0 0 0 99 55zm.14-.57a1.8 1.8 0 0 1-.43-1.22c0-.31.12-.9.54-1h.08a.5.5 0 0 0 .18 1 1 1 0 0 0 1 .84c.57 0 1-.3 1-.82s-.07-.51-.07-.51-.06-.22.21-.29a.56.56 0 0 1 .63.29 1.53 1.53 0 0 1-.1 1.28 1.66 1.66 0 0 1-1.42 1 2 2 0 0 1-1.62-.57zm6.89-.37a.89.89 0 0 1-.29.25 6.7 6.7 0 0 1-2.52 1 14.19 14.19 0 0 1-1.67.18 2.42 2.42 0 0 0 1.39-.94 2.17 2.17 0 0 0 .28-1.73 2.26 2.26 0 0 0-.35-.77 14 14 0 0 1 3 1.41.85.85 0 0 1 .15.19.33.33 0 0 1 .02.41zM91.15 62.19a3.22 3.22 0 0 0 2.5-.45c.42-.29.6-.65.31-.84s-.74.09-.74.09a5 5 0 0 1-1.93.25 2.91 2.91 0 0 1-1.93-.64c-.31-.19-.43 0-.11.46a2.49 2.49 0 0 0 1.9 1.13zM86.09 54.94a3.38 3.38 0 0 1 1-.1c.26 0 .45-.18.45-.32s-.21-.36-.4-.66-.51-.89-.78-1.29a6.31 6.31 0 0 0-1.26-1l-.53-.31a5.9 5.9 0 0 0-2.17-.55 3.53 3.53 0 0 0-2.23.57 3.45 3.45 0 0 0-1 1.38 2.13 2.13 0 0 0-.17 1.1c0 .26.44.47.44.47a8.3 8.3 0 0 0 2.2 1.07 7.75 7.75 0 0 0 2.6.17 5.66 5.66 0 0 0 1.85-.53zm-5-.34c-.29-.13-1-.57-1-.57a.88.88 0 0 1-.31-1 .35.35 0 0 1 .07-.12.47.47 0 0 1 .4-.09c.19.08.07.13.2.55a2.78 2.78 0 0 0 .81 1.26zm2.35-.39a1.72 1.72 0 0 1-1.93-.27c-.48-.5-.52-.7-.53-1.07 0-.56.19-.73.19-.73s.06-.11.12-.12h.15a.55.55 0 0 0 .16 1 .92.92 0 0 0 .85.63 1.08 1.08 0 0 0 1.14-.89 1.09 1.09 0 0 0-.31-.83h.18a2.47 2.47 0 0 1 .45 0 .92.92 0 0 1 .34.55 1.53 1.53 0 0 1-.77 1.73zm.5.41l.1-.05a1.77 1.77 0 0 0 .96-1.26 2.13 2.13 0 0 0-.2-1.31l.1.09a8.31 8.31 0 0 1 1.37 1.32c.22.28.38.57.09.84s-.67.18-1 .18-1.33.14-1.33.14zM104.67 65.29a10.53 10.53 0 0 0-3.49 1.19c-1.63.86-5.45 1.19-7.26 1.19a26.13 26.13 0 0 1-6.6-1.39 7.87 7.87 0 0 0-2.14-.86 1 1 0 0 0-.82.46c-.26.54.11.75.22.75a6.35 6.35 0 0 1 1.42-.17 5.83 5.83 0 0 1 1.46.71 19 19 0 0 0 7.32 1.72 16.55 16.55 0 0 0 7-1.72 6.53 6.53 0 0 1 2.47-1 4 4 0 0 1 1.32.44.84.84 0 0 0 .84 0 .55.55 0 0 0-.09-.64 2.94 2.94 0 0 0-1.65-.68zM97.44 70.4a13.08 13.08 0 0 1-3.19.26 7.89 7.89 0 0 1-3-.51 4.68 4.68 0 0 0-.62-.15c-.29 0-.25.19-.25.19a2.47 2.47 0 0 0 1 .93 8.28 8.28 0 0 0 4.19.47c1.88-.19 2.46-1.16 2.4-1.26s-.28 0-.53.07zM90.2 127.24a2 2 0 0 0-1.18-.49l-6.43-.59a7.55 7.55 0 0 0-.86-.07 1 1 0 0 0-1.09.64s-1.11 6.45-1.32 7.84.43 1.27.43 1.27 3.79.52 4.87.5 1.09-.46 1.09-.46 3.56-6.11 3.79-6.57 1.02-1.64.7-2.07zm-1.2 1.14c-.12.24-3.28 6.07-3.6 6.69s-.61.55-.73.52-3.89-.17-4.26-.3a.52.52 0 0 1-.34-.68c.06-.24.87-6.05 1-6.63s.14-.84.43-1a58.86 58.86 0 0 1 6.9.46c.81.17.76.7.6.94zM59.28 219.51a.57.57 0 0 0-.32-.32.76.76 0 0 0-.73.1 1.19 1.19 0 0 0-.28 1.22c.17.44.39.6.68.6a.7.7 0 0 0 .69-.46 1.71 1.71 0 0 0-.04-1.14zm-.62 1.1c-.15 0-.32-.17-.31-.53s.25-.49.33-.49c.21 0 .27.34.27.6a.37.37 0 0 1-.28.43z" fill="#692f23"/><path d="M65.7 123.6s.44 2.34.47 2.46a3.35 3.35 0 0 1-1.57-.36c-.1-.18-.75-1.26-.62-1.42a11.08 11.08 0 0 1 1.72-.68z" fill="#c7c0b1"/><path d="M90.12 135.2l7.55 2.09 2.44-1.82a2 2 0 0 1 1.6-.49c.91.18 5.42 2.22 5.42 2.22l-.24.67-2.16-.84s-4.12-1.43-4-1.17-1.58 2-1.92 2.31a3.53 3.53 0 0 1-1.55.5c-.24-.07-6.32-.68-6.51-.72-.55-.12-1.78-.23-2.09-.65s-.27-2.72 1.46-2.1z" fill="#b13824"/><path d="M111.7 120l-13.23 3-2.47 3.68a19.79 19.79 0 0 0-.33 5.08l1.93 1.2 2.09.51 1.62-.42 1.93.07s.18-.09.64-.27 3.35-.53 3.35-.53.53-1.09.4-1.11-1.62-1.11-1.33-1.07 1.42-1.86 1.42-1.86l3.11.36s3.88-1.53 4-1.55 1.4-.82 1.51-.84a4.91 4.91 0 0 0 .67-.44s-1.01-6.5-5.31-5.81z" fill="#f9e5cc"/><path d="M97.63 133c.12.12 1.18 1.08 1.89 1.07s.71-.49.71-.49.43.4 1.82.29 1.63-.93 1.86-1a14.44 14.44 0 0 0 2.93.11 2.72 2.72 0 0 0 1.35-1.24 10.39 10.39 0 0 1 .8-1.18l-2.37-.36-.58.36a8.86 8.86 0 0 0 .13 1c.07.2.65-.11.84-.09s.29.37-.2.53a9.63 9.63 0 0 1-2.4 0 1.75 1.75 0 0 1-1.31-.71 8.61 8.61 0 0 1 .47-3.77c.4-1 1.25-3 1.42-3.17s.4-1.13-.4-.16a15.68 15.68 0 0 0-2 4.44 5.67 5.67 0 0 0-.31 3c.26.51.54.64.38 1a1.38 1.38 0 0 1-1.29.44c-.52-.07-.92-.33-1.18-1.62s.51-4 .93-5.15a10.13 10.13 0 0 1 1.27-2.24c.22-.37.33-1-.84.16s-2 5-2 6.13-.27 2.12.27 2.57c0 0-.09.27-.69.07s-1.13-.9-1.33-2.18a12.25 12.25 0 0 1 .62-4.68 7.44 7.44 0 0 1 .93-2c.11-.07-.31-.58-1.2 1.09a9.39 9.39 0 0 0-1 6.61 1.78 1.78 0 0 0 .48 1.17z" fill="#692f23"/><path d="M94.85 132c-.11-.07-2.14-1.25-2.49-1s-.51.93-.31 1.15a16 16 0 0 0 3.28 1.58 14.35 14.35 0 0 0 2.44.64c0-.17.52-.47.29-.78a25 25 0 0 0-3.21-1.59z" fill="#b13824"/><path d="M110.06 128.08a6.1 6.1 0 0 0 1.58 0 28.57 28.57 0 0 0 3.42-1.66 3.68 3.68 0 0 1 1.55-.64c.3.07.23 1.08.18 1.09a2.29 2.29 0 0 0-1.49.27c-.72.43-1.48.94-1.53 1a15.79 15.79 0 0 1-2 .73 15.15 15.15 0 0 1-2.31.2c-.12 0-1.8-.29-1.8-.29s-.92 1.51-1.11 1.71-1.07.83-1.4.51.48-.82 1-1.35.74-.67.82-1.22a10.8 10.8 0 0 0 .09-1.51c0-.43.29-.72.44 0l.16.74a3 3 0 0 0 1.24-1.08c.19-.42.29.44 0 .78s-.41.52-.16.58.78.06 1.32.14z" fill="#692f23"/><path d="M111.5 128.79a2.84 2.84 0 0 0-2 .06c-1 .47-1.54 2.73-1.39 2.77a10.78 10.78 0 0 0 2.77.14 1.17 1.17 0 0 0 1-.6 1.68 1.68 0 0 0-.38-2.37zm-1.5 1.49c-.07-.84.59-.81.79-.78s.13 0 .27.24a.79.79 0 0 1 .1.62c-.1.42-1.16.64-1.16-.08z" fill="#692f23"/><path d="M135.14 92.46a7.28 7.28 0 0 0-4.66-5.6 8.11 8.11 0 0 0-2.64-.84 4.16 4.16 0 0 0-.8-.55s.05 0 0 0c-.41-.21-3.68-1.38-4.74-1.94s-2.41-1.62-3.24-2.06-1.29-1-1.29-1.38.88-.47.88-.47 6.53-1.65 10.33-4.27 9.3-7 11.65-11.53 1.15-9.74 1.12-10.3-.32-3.06-.32-4a26.35 26.35 0 0 0-1.79-8.44c-1.5-3.15-4.32-6.5-9.94-10.91s-7.65-5.65-12.65-7.74-9.88-3.44-11.5-3.29a3.48 3.48 0 0 0-2.42.86 4.88 4.88 0 0 0-2.88-.95 38.93 38.93 0 0 0-4.27.59c-.91.21-3.77.32-5.59.68a24.71 24.71 0 0 0-5.88 2.38 18.71 18.71 0 0 0-4.12 3.63 23.65 23.65 0 0 0-1.6 2.35 24.08 24.08 0 0 1-3 3.19c-.12.16-1.79 1.6-2.94 2.75a19.91 19.91 0 0 0-2.44 3.47s-.28.43-.27.43a14.77 14.77 0 0 0-1 2.79 30.68 30.68 0 0 0-1.32 6.12 7.78 7.78 0 0 1-.24 1.34 15.27 15.27 0 0 0-.65 4.23 21.53 21.53 0 0 0 .72 6.41c.68 2.19 2.18 5 3.07 5.74.33.41.57.51.64.64a37.67 37.67 0 0 0 2.78 4.31 35.08 35.08 0 0 0 5 4.82 65.19 65.19 0 0 0 6.69 4 18.76 18.76 0 0 0 3.71.91c.66.18 1.16.26 1.1.49a.62.62 0 0 1-.32.34 17.41 17.41 0 0 0-2.41.57 3.5 3.5 0 0 0-.57.16 14.47 14.47 0 0 0-5.07 3.07c-1.47 1.65-3.64 3.6-4.42 4.42A25.08 25.08 0 0 0 76 91s-.65.67-1 1l-.17.18s-4.23 5.16-5.24 6.51a31 31 0 0 0-2.6 5.12c-.44 1-1.45 5.18-2.28 7-.76 1.7-.48 7.34-.43 8.29-.26.26-.55.58-.89 1a5.05 5.05 0 0 0-1.27 3.57 6.75 6.75 0 0 0 .5 3 25.51 25.51 0 0 1 1.2 3.11 10.06 10.06 0 0 0 1.63 3.65c1.06 1.48 4.06 1.86 4.65 2a17.1 17.1 0 0 0 4.87-.3 9.85 9.85 0 0 1 2.83-.83l-1.43 7.78a2.62 2.62 0 0 0 .89 2.77l-2.06 3.79c-5.31-1-9.89-1.21-12.44-.68s-3.85 2.75-5.5 5.27S47.14 171 44.68 177s-2.78 8.76-2.78 8.76a6.22 6.22 0 0 0 .62 3.46 6.43 6.43 0 0 0 3.12 3.29 21.75 21.75 0 0 1 2.18.93l-4.08 5.81-.08.11c-.18.43-.45.41-.45.41a17.84 17.84 0 0 0-3 .1 6.53 6.53 0 0 0-4.74 3.6 64.43 64.43 0 0 0-14-.18c-2.89.51-3.58 1.16-4 1.69a3.56 3.56 0 0 0-.78 1.58c-1.06 0-1.29 1.29-1.29 1.29a10.58 10.58 0 0 0 0 1.86c.09 1.09.67 1.15.67 1.15v2.18a1.55 1.55 0 0 0-.78 1.09v4.11a2.67 2.67 0 0 0 .36 1.46v1.69a2.17 2.17 0 0 0 0 .24v.08c-.38.61-.53.65-.92.8a69.59 69.59 0 0 0-8.32 3.23c-2.38 1.32-2.75 2.81-2.75 2.81v5.08a4.11 4.11 0 0 0 .53 2c1.52 2.46 7.19 4.32 12.52 5.16 6.39 1 8.3 1 19.06.8 10.33-.2 14.93-2.73 16.41-3.83 2.6-1.93 2.68-2.72 2.68-2.8s.09-4.22 0-5.68a3.24 3.24 0 0 0-1-2.17 7.76 7.76 0 0 0-1.68-1.62c-.77-.68-3.82-3-4.25-3.31s-.24-.44-.24-.44h5.51v.21c.25 3 1.12 4.81 2.1 5.21a4.06 4.06 0 0 0 2.49.18c.25 0 1.09-.18 2.19-1.72s1.19-4.28 1.21-7.46c0-2.54-.37-3.16-.66-3.79a2 2 0 0 0-1.53-1.22 21.05 21.05 0 0 0-2.86 0 2.83 2.83 0 0 0-1.34 1.26c-.58 1-1 2.63-1.24 3.12a1.22 1.22 0 0 1-1.07.68l-3.11.06a.16.16 0 0 1-.06-.11 8.6 8.6 0 0 0 .62-1.45c0-.05 0-.81.07-1.86a5.89 5.89 0 0 0 3.7-1.1 10.13 10.13 0 0 0 3.37-4.82 11.41 11.41 0 0 0 0-4.65 11.06 11.06 0 0 0-2.08-4.35c-.38-.44-.63-.71-.74-.83s0-.86-1.64-2.1l-2.11-1.42.75-.75a5.61 5.61 0 0 0 3.12 0 26.93 26.93 0 0 0 6-3.49c.44-.33 1-.76 1.57-1.3 0 .15-.06.26-.07.33-.09.59-.35 4.91 1.85 6.5s4.53 2.06 7.68 2.44a23 23 0 0 0 7-.26 40.59 40.59 0 0 1 7.62-1 66.94 66.94 0 0 0 7.35-.71c.62-.15 1.88-.53 2.47-3.59a8.79 8.79 0 0 0-1.32-6.06c-.35-.74-.5-1-.12-1.79a18.68 18.68 0 0 0 .76-1.88c.24-.35 1.41-4.29 1.5-4.38s.06-1.22.17-1.66c.17-.09.24-.18.25-.28a6.49 6.49 0 0 0 1-.86 21.88 21.88 0 0 0 2-4.68c.21-1 .88-4.94 1.65-7.59s1.12-2.59 1.35-2.59.85 1.21 1.53 3.62 1.38 6 3.73 8.64a40.59 40.59 0 0 0 .53 6 45.41 45.41 0 0 0 1.38 6c.47 1.12.18 1.35.18 1.35l-1 1.56c-.76.94-1.21 3.77-1.21 3.77-1.41 1.18-1.53 3.77-1.44 5.71s1.41 2.88 2.29 3.74 2.94.94 4.74 1a52.06 52.06 0 0 0 7.12-.65 43.93 43.93 0 0 1 4.65-.35 17.32 17.32 0 0 0 4.5-.79c.65-.32 1.74-1.74 2.09-4.21a7.09 7.09 0 0 0-1.24-5.32c-.68-.71-1.5-.88-2.47-1.79s-2.83-2.71-2.88-2.76a.49.49 0 0 0 0-.15c-.21-.53 0-.82.41-2.12s.67-10.12.7-11a3.55 3.55 0 0 0 1.06-.87 10.67 10.67 0 0 0 2.18-7.3 44.85 44.85 0 0 0-.88-7.91 4.3 4.3 0 0 1 .65-1.74c.5-.65.56-6.06.65-6.5 0 0 .38-2.56.79-2.74s2.59-.47 2.82-.56a1.46 1.46 0 0 0 .62-.73 7.65 7.65 0 0 0 .27-2.35c0-1.82.22-4.74.3-5.21a30.24 30.24 0 0 0-.21-3.91 37.65 37.65 0 0 1 .3-4.56c.22-.58 2-2.8 2.62-3.77a15.41 15.41 0 0 0 2-3.11c.3-1 1.4-6.29 1.53-7.72a12.74 12.74 0 0 0-.78-6.39c-1.09-2.95-5.04-14.65-5.48-16.4zm-75 123.6c.47 1 .43 4.05.21 5.74a7.5 7.5 0 0 1-.91 3.19c-.53 1.06-1.19.92-1.19.92-.65-.3-1.17-.87-1.54-2.66a16.59 16.59 0 0 1 0-4.4l.06-.25a5.8 5.8 0 0 1 1.89-3.43c.44-.31 1-.17 1.47.89zm-1.34-2.24c.25 0 .8.11.85.27s-.32.2-.74.27a1.88 1.88 0 0 0-1.14.73 7.6 7.6 0 0 0-1.77 4.34 12 12 0 0 0 1.07 6.63v.24H57c-1.05-.75-1.41-2.47-1.63-4.11a12.84 12.84 0 0 1 1.07-6.23c.87-2.23 1.56-2.12 2.36-2.15zm-4 2.39a6.68 6.68 0 0 1 1.2-2.08 1.29 1.29 0 0 1 .49-.28c.26-.08.48-.08.48 0s0 .1-.16.22c-.93.88-1.89 3.74-2.06 5.56a12.5 12.5 0 0 0 .38 4.85c.4 1.24 1.12 2.23.77 2.1s-1-.55-1.48-1.89a13.57 13.57 0 0 1-.55-4.22 16.11 16.11 0 0 1 .95-4.27zm61.9-137.59s-.38-3.65-.29-4.32 1.29-1.62 1.29-1.62c.61-.47 1.19-.93 1.73-1.33a17.59 17.59 0 0 0 3.68-4.12c.25-.39.6-1 .94-1.54v.6c.06 3.94-.6 6-2 8.33a10.1 10.1 0 0 1-5.35 4zm-5.16-2.51c.58-.2 1.15-.42 1.68-.64a.43.43 0 0 0-.12.3.5.5 0 1 0 .5-.45l.31-.14.45-.22c.69 0 .61.5.61.5l.2 3zm2.93 3.35a5 5 0 0 1-1 .75 16.45 16.45 0 0 1-4.06 1.46 27.71 27.71 0 0 1 1.14-4.67zm-1.63-5.12c-5.35 2.44-13 2.52-13 2.52a30.89 30.89 0 0 1-5.65-.41 23.35 23.35 0 0 1-8.09-4 32.42 32.42 0 0 1-6.65-7.37 24.52 24.52 0 0 1-2.82-6.4 34.65 34.65 0 0 1-1-7.66c0-.69.13-4 .13-4a.53.53 0 0 1 .53-.47l3.12-.13a9.6 9.6 0 0 0 2.63-.63 27.17 27.17 0 0 1 3-.82c1.16-.25 1.15-.41 1.15-.41a5 5 0 0 1-.46-2.93 4.37 4.37 0 0 1 1.12-2.4 6 6 0 0 0 .5-1s.37 1.19.66 2.18 1.24 2.68 1.47 3.27a7 7 0 0 1 .22 1.9c1.06.26 2.66-.26 3.87-.66a25.85 25.85 0 0 1 5.06-.59 31.25 31.25 0 0 1 3.24.06 21.18 21.18 0 0 1 2.69.5A24.17 24.17 0 0 0 109 46a5.28 5.28 0 0 0 4-.85 24.38 24.38 0 0 0 1.63 3.28 29.89 29.89 0 0 0 4.25 4.71 24.66 24.66 0 0 0 2 1.55l.21.16a10.81 10.81 0 0 0 1.66.91c.24-1 1.41-1.16 1.71-1.26s3.81-.69 3.71 2.07a7.92 7.92 0 0 1-2.78 5.31 1.27 1.27 0 0 1-1.22.38c-.22 1.78-1.77 4-2.18 4.68a23.76 23.76 0 0 1-9.14 7.4zM100 101.84c-.51-.37-1.87-1.35-3.33-2.52 1.71-.47 3.29-.86 3.72-1a9.58 9.58 0 0 0-.13 1.38c.02 1.47.04 1.94-.26 2.14zm-4.87-18.3h-.06a7.56 7.56 0 0 1 .59-1l2.19 2.66c-2.06.86-3.82 1.62-3.82 1.62l-.52.19c.34-.78.76-1.87 1.22-2.85a.48.48 0 0 0 .39.19.43.43 0 1 0 0-.86zm5-4.68a.56.56 0 0 0 .62-.49.44.44 0 0 0-.18-.34H102.1l-1.4 2.68s-1.75-1.9-2.56-2.71H99.7a.44.44 0 0 0-.18.34.56.56 0 0 0 .61.52zm-6.38 9c.36-.22 2.48-1 4.75-1.9 1.59 1.92 3.25 3.93 3.32 4S99 91 97 91.9c-1.69-2.07-3.25-4.01-3.25-4.01zm6 9.58a35.44 35.44 0 0 0-3.84 1.23 22.36 22.36 0 0 1-3.59-3.52s1.85-1 4.1-2.11zm-3.41-15.5h.08c.43.11 1 .22 1.58.31 1.89.29 4.76.59 5.87.68-1 .31-3 1.12-5 1.94zm3.65-.27a14 14 0 0 1-4.81-1.55v-.05l1.66-1.77zM94.57 79a5.5 5.5 0 0 1 0-1.18.34.34 0 0 1 .29-.23l.81.17zm1.33 13.35l-.58.27c-1.31.64-2.92 1.4-3.61 1.83.38-2 .9-4.36 1.32-5.89zm-1.05 6.73l-3.24 1.16a3.18 3.18 0 0 1-.47-1.87 15.85 15.85 0 0 1 .31-2.5c.49.47 1.93 1.84 3.4 3.21zm.63.58c1.16 1.06 2.27 2 2.87 2.46-1.53.05-4.13-.11-5.49-.87a5.86 5.86 0 0 1-.7-.46 25.81 25.81 0 0 1 3.33-1.13zm2-7.09a38.6 38.6 0 0 1 4.77-2c-.48 1.87-1.12 4.21-1.54 6.18-.14-.24-1.65-2.18-3.23-4.18zm2.07-7c2.32-.86 4.53-1.66 4.93-1.79a2.58 2.58 0 0 1 .7-.16l-.11.16a19.58 19.58 0 0 0-2.45 5.3zm5.41-3.4a32.35 32.35 0 0 1-3.55-.31 3.89 3.89 0 0 0 .73-1.43 8.17 8.17 0 0 1 1.29-2.32 24.18 24.18 0 0 1 2.88 2c.28.25 1.47 1.49 1.8 1.82a16.13 16.13 0 0 1-3.11.28zm.07-4.54c.74-.12 1.47-.26 2.18-.4a.41.41 0 0 0-.14.31.47.47 0 0 0 .94 0 .43.43 0 0 0-.32-.4c.52-.11 1.07-.24 1.63-.39l-.75 3.48S106 78.25 105 77.67zm22.33-25.91c.22.38 2.43 3.06 2.75 4.74a17.22 17.22 0 0 1-.06 7.27c-.68 3.82-4.94 7.18-4.94 7.18s-.15-3.47-.06-5.38a6.86 6.86 0 0 1 .69-2.68 8.86 8.86 0 0 1 .93-.94 11.28 11.28 0 0 0 2.07-3.57 4.79 4.79 0 0 0-.1-3 3.65 3.65 0 0 0-2.34-1.69c-1.44-.29-3.25.47-4.15.46a1.8 1.8 0 0 1-1.47-.69c-.93-.91-3.59-2.63-3.71-3.54 0 0-.21-.63.53-.65s4.44.29 4.44.29a13.38 13.38 0 0 1 3.52.44 7.77 7.77 0 0 1 1.9 1.8zM126.27 35s3.07 4.24 3.46 4.74a36.8 36.8 0 0 1 2.94 5.4 59.2 59.2 0 0 1 2 5.88 34.6 34.6 0 0 1 .63 4.43s-.9-1.06-1.47-1.62-2.44-1.47-3.57-3a15.63 15.63 0 0 1-2.13-3.49 12.37 12.37 0 0 1-.76-3.43c-.07-.74-.18-2-.22-3.71a24.72 24.72 0 0 0-.54-3.93 10.48 10.48 0 0 0-.34-1.27zm10.4 28.4c-.06 1.63-.51 2.44-1.34 4.29a10 10 0 0 1-1.8 2.7L132 71.83a26.9 26.9 0 0 1-9.8 5.06s-.75.18-1 .2c.52-.51 3.92-4.22 5.59-6.06a25.2 25.2 0 0 0 4.38-6.5 14.8 14.8 0 0 0 .26-7.94 15.24 15.24 0 0 0-2.43-4.77 20.51 20.51 0 0 1-1.47-2.93 8.94 8.94 0 0 1-.34-1.72 10.26 10.26 0 0 0 2.13 3.94 16.08 16.08 0 0 1 3.47 4.32 16.28 16.28 0 0 1 .81 5.75 28 28 0 0 1-.21 2.91c-.06.28.82-.41.84-3.1a27.76 27.76 0 0 0-.26-5 9.88 9.88 0 0 1 2 3.1 10.54 10.54 0 0 1 .7 4.34zm4.53-8.14v.27a15.8 15.8 0 0 1-.38 5.44 14.41 14.41 0 0 1-3.18 5.53l-.36.36c.17-.7.9-4 .13-6.56a36.74 36.74 0 0 1-1.38-5.78 45 45 0 0 0-.94-6.43 18.28 18.28 0 0 0-1-2.65s-.63-1.22.63-.76 3.15 3.09 4.09 4.44a13.94 13.94 0 0 1 2 4.75c.19.62.33 1.07.39 1.42zm-11.26-23.74c1.12.94 5.88 4.82 8.18 9.09a21.23 21.23 0 0 1 2.47 8.86 16.29 16.29 0 0 0-2.11-2.91 25.28 25.28 0 0 0-4.69-3.56 25 25 0 0 1-3.34-3.9c-1.1-1.63-2.53-3.94-2.87-4.44s-.93-1.41-1.21-1.87a37 37 0 0 0-2.74-5.47s5.19 3.26 6.31 4.2zm-10.83-7.18c3.62 2 4.62 5 5.74 9 0 0 .78 3.28 1 4.72s.21 2.74.24 3.27.14 3.3.17 4.08a1.32 1.32 0 0 0 0 .29v.66a1.74 1.74 0 0 1-.35 1.39c-.51.47-2.87.5-2.87.5h-5.53a3 3 0 0 1-2.24-1.5 3.11 3.11 0 0 1-.54-2.54 15.68 15.68 0 0 1 .91-2.32 10.87 10.87 0 0 0 .81-3.49.38.38 0 0 0 0-.15 24.2 24.2 0 0 0 .28-5.66c-.29-2.65-2.68-8.91-4.41-10.18a15.43 15.43 0 0 1 6.79 1.94zm-22.24-3.67a9.92 9.92 0 0 0-2.71 3.91 12.42 12.42 0 0 0-.68 3.24 19 19 0 0 1 3.27-5.74 4.55 4.55 0 0 1 3.41-2c.88-.12 1.29 0 2.94 1.44s2.27 4.88 2.27 4.88a7.58 7.58 0 0 0-1.22-5.4c0-.18 0-.54.9-.78a5.41 5.41 0 0 1 4.5.85c1.26 1.06 3.88 3.38 5.41 8.94s.65 8.4.65 8.4a23.07 23.07 0 0 1-1 3.94 4.82 4.82 0 0 1-3.65 2.68 6.56 6.56 0 0 1-3.35-.46 3.25 3.25 0 0 0 .81-.32 7.36 7.36 0 0 0 3.79-4 8.83 8.83 0 0 0 .35-5.21 12.51 12.51 0 0 1-1.68 5.65 6 6 0 0 1-3.29 2.94 3.74 3.74 0 0 1-1.62.43 23.22 23.22 0 0 0-2.82-.75 8.2 8.2 0 0 0 2.07-2 6.34 6.34 0 0 0 .5-2.71c0 .38-.28.72-.87 1.9s-2.53 1.91-4 2.34a56.69 56.69 0 0 1-5.66.74c-1.06.18-4.44 1-4.44 1a6.56 6.56 0 0 0-.57-1.69c-.24-.53-.57-1.38-.75-1.91s-1.75-5.12-1.75-5.12c-.65-3.6-.47-6 .74-8.72a10.75 10.75 0 0 1 5.15-5.3 6.53 6.53 0 0 1 3.3-1.17zM78.6 30.8c.51-1 1.24-1.85 1.63-2.53s1.82-2.38 1.82-2.38a12.74 12.74 0 0 1 6.4-4 12.29 12.29 0 0 0-4 3.53 4.13 4.13 0 0 0-.73 2.58 26 26 0 0 1 2.12-3.15 15.06 15.06 0 0 1 5.24-3.41 4.94 4.94 0 0 1 2.29-.38 10.25 10.25 0 0 0-4.85 3.74 11 11 0 0 0-2.12 5.94c0 1.62.19 5.41.19 5.41a3 3 0 0 1-.65 1.69 6.46 6.46 0 0 0-1.15 2.5 11.29 11.29 0 0 0 0 3.27c.19.78-.41.6-.66.54a5.89 5.89 0 0 1-2.66-2.1c-1-1.4-.47-3.46-.34-4s.46-.91.37-.94-.47.12-.76.65a7.11 7.11 0 0 0-.43 3.6c.25 1.19.94 1.41 1 2.31s-.37 1.06-1 1.54a6.76 6.76 0 0 1-3.65.46c-1.07-.15-.94-.71-.94-.71v-2.52a19.78 19.78 0 0 1 .28-3.3c.32-1.79.6-2.88.82-3.84a29.26 29.26 0 0 1 1.78-4.5zM75.91 34c.06 0 .24-.13.29 0s0 .25-.28.94A40.06 40.06 0 0 0 75 39.7c-.06.59-.07 2.93-.07 2.93.09 1.24.24 2.31.24 2.93a1 1 0 0 1-.47.88 1.35 1.35 0 0 1-1.47-.69s-.34 0-.53-1.66a11 11 0 0 1 .51-4.19 32.13 32.13 0 0 1 1.47-3.9 6.51 6.51 0 0 1 1.23-2zm-6.68 11.29c.15-.68.57-2.74.71-3.12a19.63 19.63 0 0 1 1.32-3.44 2.44 2.44 0 0 0 .12-.24c.3-.49 1.62-2.49 1.87-2.82s.81-1 1-.93a.25.25 0 0 1 .17.19c-.09.17-1.25 2.35-1.51 2.91a14.18 14.18 0 0 0-.91 2.85 20.1 20.1 0 0 1-.37 2.87 3.82 3.82 0 0 1-.78 1.38c-.47.59-1.07 1.46-1.43 2a3.89 3.89 0 0 0-.47 1 25.8 25.8 0 0 1 .28-2.65zm2.28 18.36s0 .37-.25.4-.81-.76-.81-.76a16 16 0 0 1-1.85-4.84c-.95-3.92-.54-5-.4-5.71a24.44 24.44 0 0 1 1.28-3.46c.28-.53 2.1-3 2.1-3a.47.47 0 0 1 .59-.16 3.37 3.37 0 0 0 .74.94c.35.24.56.34.57.65s-.56 1.07-.9 1.6a7.12 7.12 0 0 0-1.22 3.54c0 .46.09.21.25-.18a10.06 10.06 0 0 1 2.06-3.07 9.69 9.69 0 0 1 1-1.38c0 .36-.2 2.87-.31 3.65a11.38 11.38 0 0 1-1.1 3.53 14.59 14.59 0 0 0-1.54 4.43c-.06.91-.21 3.82-.21 3.82zM74 68.44a12.73 12.73 0 0 1-1.78-4.74s.12-2.89.24-3.63a13.71 13.71 0 0 1 1.62-4c.18-.32.4-1.26.93-.54s.38 4.62.4 5.32a17.26 17.26 0 0 0 .71 4.37c.49 1.26 1.38 3.65 1.93 4.71a47.22 47.22 0 0 0 2.28 4.19c-.42-.06-4.62-2.65-6.33-5.68zm13.68 9.77a16.38 16.38 0 0 1-6.44-4.63A30.76 30.76 0 0 1 78 67.32c-1.12-3.13-.81-3.41-.69-3.46s.24 0 .53.51a26.15 26.15 0 0 0 4.78 6.69c2.54 2.31 5 4.43 9.55 5.78l.83.24c.7.39.6.79.64 1.5a.8.8 0 0 1-.65.9s-1.27.26-5.28-1.27zm-11.21 55.34a20 20 0 0 1-5.73.41 21.31 21.31 0 0 1-2.56-.19 8 8 0 0 1-2.32-1.45 4.46 4.46 0 0 1-.78-2.31 4.53 4.53 0 0 0-.87-2.49A3.43 3.43 0 0 1 63 125a9.91 9.91 0 0 1 1.44-3.73 22.9 22.9 0 0 1 2-2.63 7.36 7.36 0 0 1 3.88-1.57 16.55 16.55 0 0 1 6 1.2c1.31.7 1.86 1.39 1.86 1.79a1.66 1.66 0 0 1-.07.32 2.52 2.52 0 0 1-.33.53 1.68 1.68 0 0 0-1.12-.83 8 8 0 0 1-.83-.13 6.9 6.9 0 0 0-2.55-1.29 2.46 2.46 0 0 0-1.48.09 1.17 1.17 0 0 1-.47.27 5.07 5.07 0 0 0-1.41-.21c-.61.08-1.19.27-1.55.3a3.17 3.17 0 0 0-1.6.3 1 1 0 0 0-.31.32c-.4.2-1 1.19-1.26 1.47a6 6 0 0 0-.44 1.66c-.08.34-.69.79-1.07 1.41a1.72 1.72 0 0 0 .58 2.12 3.09 3.09 0 0 0 .79.34c.09.59 0 1 1.31 2.74a6.33 6.33 0 0 0 4.37 2.34c1.46.29 5.35.16 6.58-.55s.52 0 .52 0a6.87 6.87 0 0 1-3 1.39 16.28 16.28 0 0 1-5.5 0 9.58 9.58 0 0 1-2.47-1c-.29-.07.36.64 1.35 1.23s3.39.84 6.11.62a6.28 6.28 0 0 0 3.84-1.39 3.76 3.76 0 0 1-1.7 1.44zM66.36 127a5.24 5.24 0 0 0 .62 1 4.44 4.44 0 0 0 2.1 1.32 3.73 3.73 0 0 0 1.81.18c.07 0 .18-.12.38-.07a3.36 3.36 0 0 0 1.3.34 1.77 1.77 0 0 0 .74-.31c.12 0 .79.27 1.24.12a6 6 0 0 0 1.3-.63c.26 0 .6.58 1.29.79l.33.08a4.1 4.1 0 0 1-.86.54 16.78 16.78 0 0 1-5.28.74 9.16 9.16 0 0 1-3-1.15 7.39 7.39 0 0 1-1.91-1.61 2.84 2.84 0 0 1-.6-1.44 4.6 4.6 0 0 0 .54.1zm-.81-1.21c-.38-.08-1.07-.36-1-.86a1.09 1.09 0 0 1 .87-.89.23.23 0 0 1 .26.09c.06.67.19 1.28.25 1.61v.13zm1.81-.62c0 .45 0 1.35-.19 1.31a3.79 3.79 0 0 1-.75-2.55c-.1-1.95.6-3.06 1.08-3.3s.63.07.56.61-.57 2.09-.71 3.33a2.15 2.15 0 0 0 0 .56zm6.83-4.21c-.23 1.11-.81 2.48-1 3.12a24.81 24.81 0 0 0-.68 3.26c0 .59 0 .88-.22 1.11 0 0-.41.47-1-.13a4.53 4.53 0 0 1-.54-2.57 6.94 6.94 0 0 1 .64-2.25 26.21 26.21 0 0 1 .56-2.63c.23-.52.5-1 1.08-1.07s1.39.02 1.16 1.13zm.13 2.25s.24-2.12 1.42-2.15 1.29.61 1.29.61A11.48 11.48 0 0 1 77 123s-.53 1.51-.7 2a22.79 22.79 0 0 1-1 3.28c-.3.37-1.07.92-1.67.34a31.56 31.56 0 0 1 .69-5.45zM71 120.7c-.2.88-.76 3-.89 3.61a5.81 5.81 0 0 0-.15 1.92 9.92 9.92 0 0 0 .18 2.18s-.07.24-.84.09-.95-.67-1.15-1.89c0 0 0-2.54.21-3.6s.51-2.81 1.23-3.26a.91.91 0 0 1 1.41.95zm5.87 7.3l.11-.68 2.08.18-.14.75a1.37 1.37 0 0 1-1.43.72c-.84-.1-.62-.97-.62-.97zm.25-1.55a1.24 1.24 0 0 1-.27-.09c-.12-.06.24-1.29.42-1.3h.3l1.69.19s.18.13.09.71l-.11.62zm.3 15a.34.34 0 0 0 0-.13v-.4L80 126.46a1.23 1.23 0 0 1 1.36-1.15c1.35 0 10.33 1.09 10.33 1.09s.56.16-.15 1.36-9.59 15.66-9.59 15.66a1.92 1.92 0 0 1-.85.59 1.07 1.07 0 0 1-.45.09 8.51 8.51 0 0 1-2.81-.59 2.45 2.45 0 0 1-.43-2.14zm47.08-22.55c-.71-1-1.39-2.4-2.93-3s.1-.52.47-.41a14.88 14.88 0 0 1 7.52 3.91c3.6 3.36 3.86 8.74 3.7 10s-.06 2-1.78 3.11a9.5 9.5 0 0 1-2.07 1.15c-.5.06-.64-.21-.55-1.51s-.2-3.61-.24-5.5-.64-2.08-.82-2a13.48 13.48 0 0 0 0 2.84c0 1.29.27 4.85-.47 6.21s-1.21 1.71-2.4 1.89a5.28 5.28 0 0 1-2.84-.38c-.29-.21 0-1 .33-2a12.55 12.55 0 0 0 .44-4.62c-.17-1.6-1.1-6.77-3.15-9.23a6.48 6.48 0 0 0-4.26-2.56s-1.46 0-1.66-.41.3-.71 1.42-1a6.35 6.35 0 0 1 3-.09c.5.15 3.82 1.51 4.62 2.52a16.92 16.92 0 0 0 2.57 2.75c.25 0-.19-.67-.9-1.67zm-10.57-.9h.06a6.36 6.36 0 0 1 2.72.3c1.62.54 3.45 3.45 4.13 5.24a20.75 20.75 0 0 1 .69 6.37c-.08.9-.3 1.05-1.2 1.66a5.49 5.49 0 0 1-2.77.87c-.43-.07 0-.55.2-1.71a15.13 15.13 0 0 0-.49-6.61 7 7 0 0 0-3.31-4.61c-.79-.48-2-.42-1.6-.81a4.73 4.73 0 0 1 1.57-.7zm7 15a2.43 2.43 0 0 1-1.53 1.11 2.91 2.91 0 0 1-1.82-.58l3.33-.53zm-7.4-12.17a5.33 5.33 0 0 1 1.63 1.85 8.9 8.9 0 0 1 1.55 5.64 3.51 3.51 0 0 1-1.24 2.91c-1.61-.57-1.51-3.31-1.51-3.31l-1.58.73a4.6 4.6 0 0 0 .73 1.55 27.34 27.34 0 0 0 2.86 3.48 28.22 28.22 0 0 0 4 2.46c1.64.75 2.71.65 5.13.27s2.65-1.22 2.91-1.44.51-.06 1.11-.2a20.45 20.45 0 0 0 2.39-1 4.29 4.29 0 0 0 2.32-2.41l.08-.2a11.61 11.61 0 0 0 0 1.67v3.57s.21.64-1.6.89-23.31.77-26 .65-4.71-.33-4.71-.33l-1.66-.09a4.78 4.78 0 0 1 .89-1c.49-.38.84-.16 1.63 0s3.51 1.44 4.38 1.39 1.33-.46.06-1.15-5.1-2.18-6.1-2-2.07 1.48-2.6 1.86a1.06 1.06 0 0 1-.89.27l-5.74-1.39 1.7-2.29.12.06 3.7 1.24a1.06 1.06 0 0 0 1.15-.19c.37-.43.37-.76.34-.81s-.46-.32-1-.63l-.45-1.07s-1-.52-1.18-1.15a21.62 21.62 0 0 1 .75-5 5 5 0 0 1 3-2.71c1.49-.33 9.84-2.12 11.45-2.13a20.87 20.87 0 0 0 2.36-.03zM88.63 140l1.16-1.86 1.52.2s5.32.6 6.33.67a1.45 1.45 0 0 0 .83-.18l-1.75 1.75-.39.51c-1.8 1.9-3.82 4.23-4.13 5.33a66.66 66.66 0 0 1-3.57-6.42zm2.56 6.88c-1.5-.13-3.3-.28-3.85-.37s-3.46-.19-5.6-.24a8 8 0 0 1 .71-.49l1.78-1.16a10.77 10.77 0 0 0 2.29-1.27 7.84 7.84 0 0 0 1.31-2l.09-.14zm-1.64-9.4c-.91-.3-.88-.6-.88-.6l.4-1.15s.21-.28.75-.12c.36.1.93.24 1.29.37 1.6.37 6 1.64 6.63 1.62s2-1.63 2.63-2.19 1.81-.15 1.81-.15 3.65 1.49 4.29 1.83.5.38 0 .36-3.58-1.63-4.5-1.89-.9.1-1.39.33a13.92 13.92 0 0 0-2 2.16 3.84 3.84 0 0 1-2.55.33c-1.73-.26-5.79-.7-6.48-.93zm7.55 4.41l3.25-3c.31.83 3.43 6.2 3.43 6.2.36.61.7 1.16 1 1.56a11.6 11.6 0 0 0 1.77 1.91c-.18 0-.91-.06-.91-.06l-6.47-.79s-5.24-.44-5.82-.56l-.45-.06c.2-.37 2.19-2.9 4.2-5.23zm8.24 3.36l-3.8-6.62s8.32.3 9.26.27 1.23 0 1.18.3a65.48 65.48 0 0 1-3.34 5.65.8.8 0 0 0-.12.2c-.35.6-.68 1.16-.89 1.53-.65 1.18-.85.85-.85.85a16.57 16.57 0 0 1-1.44-2.2zm2.18 3.08a34.69 34.69 0 0 0 2.16-3.25s3-4.22 3.39-4.59.56-.46 1 .18 3.3 4.37 3.61 4.84l1.06 1.36s-3.09.32-4.06.5-6.3 1-6.3 1-1.18.15-.86-.06zm-9.81-14.7c.21.19-.08.48-.34.48s-3.5-1.29-3.5-1.29l-.21-.09-1.38-.73a.33.33 0 0 1-.12-.39c.12-.24.37-.22.59-.13l1.38.72s3.38 1.22 3.59 1.41zm-2.44-2.55zm-.22-1.6a6.41 6.41 0 0 0-1.81 1.52s-.08-.18-.58-.28a.94.94 0 0 0-.93.43c-.34.54-.37 1 .36 1.62L92 133s-1.34 2.13-1.41 2.15-.77-.5-1.37-.31-.62.61-.94 1.18c-.42 1.37 0 1.45 0 1.45l.7.31s-2.76 4.68-3.26 5.15-2.57 2-2.37.85c0 0 8.33-14.72 8.85-15.21a3.37 3.37 0 0 1 2.49-1.24h.83a13.8 13.8 0 0 0-.47 2.13zM78.07 146a1.47 1.47 0 0 1 1.3-.65c.83.09.53.89.36 1.66-.13.56-.67 2-.95 2.7-1.31-.44-2.58-.79-2.66-.81zm-31.58 50.92l2.33-3.24 1.3.51a33 33 0 0 0-2.05 3.63s-.18.28-.41.28a2.17 2.17 0 0 1-1-.62.58.58 0 0 1-.17-.56zm-1 1.39l.48-.66c0 .47.5.65.92.91a1.06 1.06 0 0 0 .66.22l-.3.55c-.14.11-.43.31-.66.25a2.63 2.63 0 0 1-.89-.52.78.78 0 0 1-.21-.75zm-1.82 1.94l.8-.84c.31-.18.36-.06.36-.06s1 .58 1.39.75a.77.77 0 0 1 .41.49l-.31 1.41a.6.6 0 0 1-.44.1 3.94 3.94 0 0 1-2-1.11c-.43-.49-.21-.74-.21-.74zm.63 2.59a2.26 2.26 0 0 0 1.76.28 21.46 21.46 0 0 0-.83 3.27c-.06.92.41.87.41.87s.84.19 1.83.49c.18.14.55.4.45.63s-3.65 3.5-3.74 3.57-.57.27-.67-.16a2.64 2.64 0 0 1-.07-.71s0-.41.31-.44a.7.7 0 0 0 .65-.7v-2.25s-.12-.76-1.7-.68c0 0 .07-.59 0-.93s-.32-.56-.81-.74-.74-.35-.75-.61a30.89 30.89 0 0 1 1.86-3.15c.23.42.21.71 1.3 1.26zm-4.54 1.67s-1.21-.36-1.45-.43-.16-.21-.16-.21a5 5 0 0 1 1.3-1.27 2 2 0 0 1 1.88-.18.17.17 0 0 1 0 .16l-1.16 1.82a.39.39 0 0 1-.41.11zm.35 0v.06zm-3.6-1.23a5.8 5.8 0 0 1 1.27-1.53c1.13-1 3.32-1.13 4.05-1.14s.67.34.67.34l-.24.3a1.16 1.16 0 0 1-.7.24h-.86a4.6 4.6 0 0 0-2.57 1.23 4.89 4.89 0 0 1-1.13 1.16.41.41 0 0 1-.59-.12c-.01-.15.18-.53.1-.45zm-17.94 1.87c.55-.64 2.42-1.12 3.94-1.27a72.74 72.74 0 0 1 11.84.22 23.34 23.34 0 0 1 5.21 1.09h.11c.63.21 1.13.43 1.21.71s-.34.55-.34.55a24.21 24.21 0 0 1-6.54 1.17 48 48 0 0 1-9-.3 25.81 25.81 0 0 1-5.52-1c-.71-.21-1.48-.5-.91-1.14zm-1 1.33c.09.09 2 .53 3.46.95a78.51 78.51 0 0 0 9.8 1 44.57 44.57 0 0 0 9.17-.8c1.21-.4 1.64-.81 1.7-1v.87s.08.36-.47.73a8.23 8.23 0 0 1-1.91.83.13.13 0 0 1-.07 0 6.51 6.51 0 0 1-.21-.73c-.09-.25-.55-.1-.78-.09s-2.65.41-4.05.47-3.94.06-4.59.09-.65.36-.65.36v.58a.54.54 0 0 1-.51.22c-1.12-.06-2.24-.14-3.33-.25-.14-.08-.11-.4-.11-.75s-.07-.53-.44-.61-2-.16-3.09-.36-2.56-.64-2.87-.7-.41-.13-.71 0-.06.71-.22.74-.25-.41-.27-.34c-.08-.51.07-1.27.16-1.18zm20.82 2.75a.72.72 0 0 1-.24.15 24.31 24.31 0 0 1-4.49.58c-1.1 0-2.36.05-3.66 0-.25-.08-.31-.19-.24-.43a.44.44 0 0 1 .41-.28s1.69.06 4.13-.09 3.68-.47 4-.43.27.36.1.53zm-14 .29a.1.1 0 0 1-.07 0 26.59 26.59 0 0 1-5.66-1.11h-.07l-.22-.06c-.18-.13-.12-.23-.09-.38s.13-.36.58-.18a17.72 17.72 0 0 0 3.09.71c1.05.13 2.25.14 2.35.22a.72.72 0 0 1 .05.83zm-8.09-.94c0-.93.38-.87.38-.87 0 .86 1.67 1.39 1.67 1.39a17 17 0 0 0 3.74.93 49.21 49.21 0 0 0 11.6.52 20.05 20.05 0 0 0 7.64-1.42c1.86-.91 1.69-1.05 1.73-1.18s.31-.09.31.31v1.18s0 .33-.86.62a38.61 38.61 0 0 1-10.88 2.23c-5.48.24-12.08-.84-14.62-1.94-.73-.32-.76-.84-.76-.84zm26.25 4.44a1.07 1.07 0 0 1-.43.8c-1.94 1.56-6.49 2.64-9 2.84a49.33 49.33 0 0 1-10.68-.48 18 18 0 0 1-3.85-1.18l-.17-.08c-1.44-.69-1.57-1.32-1.6-2.29s0-1.38.37-1.41a4.52 4.52 0 0 1 1.29.44c2 .82 2.84 1 6.41 1.35a46.8 46.8 0 0 0 9.41 0 60.36 60.36 0 0 0 7.47-1.61c.56-.17.7-.13.74.19s0 1.46 0 1.46zM53 230.26a4.48 4.48 0 0 0 .63-.89.21.21 0 0 1 .31.09s.4 3.31-.12 4.65a5.41 5.41 0 0 1-2.9 2.89A27.29 27.29 0 0 1 40 240.17c-5.21.31-14.21 1.08-22.55-.44-7.35-1.34-10.54-3.37-11.56-4.22a2.83 2.83 0 0 1-1.1-1.69s-.27-3.18-.24-3.79.5 0 .74.12a14.69 14.69 0 0 0 4.62 2.72c6 2.13 13.85 2.78 19.93 2.75a70.24 70.24 0 0 0 14.56-1.69c5.4-.99 7.8-2.78 8.6-3.67zm-2.13-4.53c1.57 1.17 1.75 1.85 1.75 2.59s-.73 1.48-2.07 2.37a22.35 22.35 0 0 1-6.86 2.31 94.66 94.66 0 0 1-14.83 1.39c-2.64 0-11.55-.58-15.45-1.66s-5.24-1.62-6.29-2.37-1.66-2-1.21-2.87a5.45 5.45 0 0 1 2.37-1.82c.44-.2 5.79-1.95 6.7-2.29a1.45 1.45 0 0 1 1.37.22 5.68 5.68 0 0 0 .65.37c3 1.27 7.81 2.69 16.87 1.78 7.86-.79 10.17-1.93 11.31-2.64h.05a3.73 3.73 0 0 1 1.86-.21c.91.1 2.21 1.66 3.78 2.83zm-34.28-4.38c0-.47.15-.6.33-.57V222a.38.38 0 0 0 .33.42c.28 0 .34-.33.37-.44s0-.53 0-1l.21.07v1.42a.41.41 0 0 0 .33.46c.28 0 .34-.36.37-.48s0-.65 0-1.15l.28.09v1.56a.41.41 0 0 0 .33.46c.28 0 .34-.36.37-.48s0-.8 0-1.34l.39.1v1.53a.4.4 0 0 0 .33.45c.28 0 .34-.36.37-.48s0-.81 0-1.35l.46.09v1.64a.42.42 0 0 0 .33.47c.28 0 .34-.38.37-.5s0-.93 0-1.49l.44.07v1.7a.41.41 0 0 0 .33.46c.28 0 .34-.36.37-.48s0-1 0-1.57l.4.05v1.76a.4.4 0 0 0 .33.45c.28 0 .34-.36.37-.48s0-1.23 0-1.7h.46v1.75a.42.42 0 0 0 .33.47c.28 0 .34-.38.37-.5s0-1.12 0-1.66h.54v1.77a.41.41 0 0 0 .33.46c.28 0 .34-.36.37-.48s0-1.25 0-1.72h.45a.13.13 0 0 0 0 .07v1.76a.4.4 0 0 0 .33.45c.28 0 .34-.36.37-.48s0-1.36 0-1.77h.37v1.81a.42.42 0 0 0 .33.47c.28 0 .34-.38.37-.5s0-1.3 0-1.78h.45v1.76a.41.41 0 0 0 .33.46c.28 0 .34-.36.37-.48s0-1.37 0-1.78h.47v1.76a.4.4 0 0 0 .33.45c.28 0 .34-.36.37-.48s0-1.4 0-1.79h.34v1.68a.42.42 0 0 0 .33.47c.28 0 .34-.38.37-.5s0-1.18 0-1.7h.45v1.75a.41.41 0 0 0 .33.46c.28 0 .34-.36.37-.48s0-1.35 0-1.77h.46v1.73a.4.4 0 0 0 .33.45c.28 0 .34-.36.37-.48s0-1.36 0-1.77h.34v1.68a.42.42 0 0 0 .33.47c.28 0 .34-.38.37-.5s0-1.23 0-1.73l.47-.06v1.76a.41.41 0 0 0 .33.46c.28 0 .34-.36.37-.48s0-1.49 0-1.84l.46-.06v1.68a.39.39 0 0 0 .33.44c.28 0 .34-.35.37-.46s0-1.48 0-1.77l.35-.05v1.68a.39.39 0 0 0-.01.61c.28 0 .34-.35.37-.46s0-1.41 0-1.76l.46-.07v1.59a.41.41 0 0 0 .33.46c.28 0 .34-.36.37-.48s0-1.19 0-1.68l.45-.08v1.56a.39.39 0 0 0 .33.44c.28 0 .34-.35.37-.46s0-1.23 0-1.66l.35-.06v1.45a.37.37 0 0 0 .33.41c.28 0 .34-.33.37-.43s0-1.15 0-1.56l.35-.07c0 .21-.13 1.61.28 1.58s.36-1 .36-1v-.64c.38 0 .41.25.4.49a2.78 2.78 0 0 1-.41 1.42 2.64 2.64 0 0 1-.62.41 24.64 24.64 0 0 1-6.49 1.25c-1 .16-7.85 1-12.5 0s-6.34-2.09-6.42-2.23a4.31 4.31 0 0 1-.1-1.07zm29.92-.93a11.64 11.64 0 0 1-2.29 1.9c-.35.18-.35-.11-.35-.11a7.42 7.42 0 0 0-.09-1.86c-.18-.67-1.15-.29-1.64-.22a69.78 69.78 0 0 1-13.85 1.64c-6.29-.09-9.29-1.22-9.29-1.22h-.14a16.08 16.08 0 0 1-1.51-.6c-1-.52-.95-1-.95-1v-3.92c0-.61.78 0 .78 0a3.77 3.77 0 0 0 1.26.8 18 18 0 0 0 5.56 1.53 34 34 0 0 0 9.42.13c5.19-.5 7.67-1.82 8.59-2.41l1.07-.68c.67-.47 1.63-1.49 2.43-2.15s3.12-2.84 3.12-2.84.54-.51.58.18a1.28 1.28 0 0 0 0 .15c0 1.76 0 6-.12 6.61a14.84 14.84 0 0 1-2.59 4.07zm2.88-1.42h3.94s-.1.92-.12 1.54l-5.37.14a9.6 9.6 0 0 0 1-1.52 1 1 0 0 1 .55-.16zm-.55-11.84c-.75-.16-2.73-.16-2.66-.67a36.21 36.21 0 0 1 1.29-5.55 22.64 22.64 0 0 1 1.19-2.22 25.28 25.28 0 0 0 3 1.74c.4.06.51.2.88.21v.06c0 .06 2.27 3.13 2 5.6a7.48 7.48 0 0 1-2 4.79 4.29 4.29 0 0 1-2.41 1.08v-2.64c0-2.51-.53-2.29-1.29-2.44zM54 199.9a10 10 0 0 0 .74 1 10.57 10.57 0 0 1 1.76 5.21c-.07 1.83-.16 3.31-1.33 4.82a7.66 7.66 0 0 1-3.11 2.63 3.56 3.56 0 0 1-2 .45v-1.14l.36-.07a5.91 5.91 0 0 0 2.71-1.23 8.41 8.41 0 0 0 1.7-8.26 15.72 15.72 0 0 0-1.53-2.83 1.29 1.29 0 0 0 .7-.58zm-1-1.35s.55.71-.14.93-3.42-1.6-3.65-1.75c.38-.63.67-1.08.67-1.08a8.69 8.69 0 0 1 3.12 1.9zm2.44-5.26a6.74 6.74 0 0 1-4.08.18 31.29 31.29 0 0 1-5.07-1.91c-1.7-1-3.06-2.26-3.27-5.48s3.08-10.08 4.33-12.43S59.33 151.22 61 150s4.76-1.6 7.81-1.07 9.44 1.39 12 2.78a5.26 5.26 0 0 1 2.84 5.5c-.3 1.6-1.66 3.85-4.5 9.23S69.07 181 66.46 184c-.33.38-.71.8-1.12 1.24a6.67 6.67 0 0 0-2.34 2.39c-2.7 2.57-5.84 5.16-7.54 5.67zm24.21-20.36a28.06 28.06 0 0 1 .15 3.14v.11l-.09 3.86a7.24 7.24 0 0 0 .18 2c.26 1.26.47 2.53.56 2.74-.06.73-1 .78-1.71.72h-.25l-.4-.07h.16a17.52 17.52 0 0 1-3-.75 17.33 17.33 0 0 0-8-.19c1.63-1.88 3.46-4.12 5.46-6.75s3.91-5.51 5.55-8.19a24.54 24.54 0 0 0 1.4 3.38zm8.62 12a48.66 48.66 0 0 1-6.53.38 16 16 0 0 1-.6-3.37 14.23 14.23 0 0 0 9 2.61zm5.56-.61h.06c-.12 1.68-1.29 3.27-4.06 3.77s-6.06-1-6.06-1a4.06 4.06 0 0 0-.76-.63 60.38 60.38 0 0 0 6.46-.43 8.34 8.34 0 0 0 4.37-1.68zm-13-4.86l-.18-3s2.18 4.06 10.71 4.09h.17a15.88 15.88 0 0 1-5.67.55 10.46 10.46 0 0 1-5.02-1.61zm.27 7.73s.83.4 1.77.83l-2.65.08a7.49 7.49 0 0 0-1.55-1.87zM68 188.38a6.2 6.2 0 0 1 1.22-1.8c.73-.63 1.06-1.22 1.6-1.48h.36a9.06 9.06 0 0 1 2.13 2.65c.38.71.35 1.18-.09 1.5s-3.74.29-4.62 0-.59-.85-.59-.85zm-4-.38a3.46 3.46 0 0 0 2.19 1.69 4.35 4.35 0 0 0-.19.73 17.85 17.85 0 0 0-.2 2.89.54.54 0 0 1-.72.2 4 4 0 0 1-1.56-1.5 4.55 4.55 0 0 1-.42-1.54A7.65 7.65 0 0 1 64 188zm.64 7.6a4.8 4.8 0 0 1-1.47-2.2 3.88 3.88 0 0 0 2.83 1.69 5.12 5.12 0 0 0 .41 1.55 6.45 6.45 0 0 1-1.72-1zm.55-8.9l.46-.5a8.22 8.22 0 0 1 3.48-1.05 19.84 19.84 0 0 0-2.38 3.28 1.81 1.81 0 0 1-1.51-1.69zm2.1 6.75a8.72 8.72 0 0 1-.26-2.32.94.94 0 0 1 .79-.92s2.29.41 3.21.44c.58 0 1.79-.06 2.78-.13a12.86 12.86 0 0 1 .37 3v.11a1.19 1.19 0 0 1-1.08.63c-1.03.15-4.97.29-5.76-.77zm6.85 4.21c-.15.32-.26.47-.94.5h-.09a25.64 25.64 0 0 1-4.8-.87 9.82 9.82 0 0 1-.78-2.2s4.25.45 6.66.53a10.42 10.42 0 0 1 0 2.08zm.47-9.56c-.43-1-1.11-2.34-1.39-2.89 1.21.14 2.32.33 3.21.51a6.39 6.39 0 0 1 2.45 2.08c.38.47 0 .65 0 .65s-1.41.21-1.94.21-1.72.8-2.28-.52zm.65 2.3a21.17 21.17 0 0 1 3-.71h1.42a.93.93 0 0 1 .32.31 6.24 6.24 0 0 1 1 3s-.06.79-1.82 1.12-3.06.41-3.53.06c0-.69 0-1.27-.05-1.53a12.34 12.34 0 0 0-.29-2.21zm5.53 5.93a2.78 2.78 0 0 1-1 1.15 36.77 36.77 0 0 1-4.21.71h-.08v-2.58c1.76-.1 4-.35 5.44-.51a2.27 2.27 0 0 1-.1 1.28zm5.12-.74a1.67 1.67 0 0 1-.35.88l-.92.09c-.88.1-1.79.27-2.72.46a2.93 2.93 0 0 0 .6-2.23 15.38 15.38 0 0 1 3.15-.7h.27a5.48 5.48 0 0 1 .06 1.55zm.21-3c0 .09-.22.72-1.62.7s-2.09-.06-2.44-.41a5 5 0 0 0-.29-2 10.25 10.25 0 0 0-.65-1.28l.24-.07a22.85 22.85 0 0 1 3.64-.33 4.19 4.19 0 0 1 1.21 2.41c.19.83-.05 1.06-.05 1.06zm1.29-3.49a16.13 16.13 0 0 1 1.65 0 2.56 2.56 0 0 0 .59 0h.05l.19.13a15.71 15.71 0 0 1 1.26 2.29.79.79 0 0 1-.45.85 9.07 9.07 0 0 1-1.91.27 4.38 4.38 0 0 1-1.37-.24 11 11 0 0 0-.49-3.11.68.68 0 0 0 .52-.11zm3.62 6.4a1.31 1.31 0 0 1-1.26.76c-.76 0-1.68 0-2.63.07a11.18 11.18 0 0 0 .23-2.36c1.3 0 2.82-.08 3.88-.15a4.56 4.56 0 0 1-.17 1.76zm3.06-1c-.59 1.5-1.51 1.71-2.09 1.73a7.74 7.74 0 0 0 .59-2.59 5.77 5.77 0 0 0 1.89-.47 7.56 7.56 0 0 1-.34 1.44zm.48-4c-.11.38-.47.87-1.51 1.21l-.66.21a6.15 6.15 0 0 0-1.33-3.11 5.29 5.29 0 0 0 1.54-.71c.71-.56.82-.65 1.5.79a5.57 5.57 0 0 1 .5 1.72zm-.18-7.32c-.32.26-4.12.32-6.91-.15a13.4 13.4 0 0 1-4.86-1.54 33.25 33.25 0 0 0 9.39 0 6.91 6.91 0 0 0 3.15-1.08 11.73 11.73 0 0 1-.73 2.88zm1.24-4.68c-.09.47-.09 1.21-2.15 1.15s-6.88 0-9.59-1.62-2.59-2.53-2.59-2.53 0-.18.21-.13a8.6 8.6 0 0 0 2 1 34.71 34.71 0 0 0 11.88 1.7s.36.07.28.54zm6.12-17.09a68.92 68.92 0 0 0-2.44 7.59c-.35 1.79-.88 5-2 6.09s-1.32 1.18-2.18 1.35c0 0-1.38.62-2.21.12s-.26-.94-.09-1.47a10 10 0 0 0 1.59-5.38 2 2 0 0 0-.24-1.06s-.88 5.65-3.82 7.3-6.47-.71-7.18-1.35-1.5-4.65-1.12-5.88a3.19 3.19 0 0 0-.5 2.47s.47 1.41 0 1.62-1.35-.21-2.06-2.56c-.1-.34-.25-1.59-.33-2.16 2.46-4.14 4.24-7.63 4.92-8.95a5.88 5.88 0 0 0 .41-4.86c-.28-1-2.38-3.05-3.35-3.57a13 13 0 0 0-1.52-.65c.22-.56.64-1.61 1-2.34.27-.1.61-.18.79-.24l2.39-.11c1.06-.06 6.56.21 9 .5l.74.1a11.65 11.65 0 0 1 7.44 5.78c2.62 4.83 1.29 6.47.79 7.77zm8.33 15.27c4.23 3 10.38 2.41 10.38 2.41-3.67 1.08-9.19.45-10.49.27a14.76 14.76 0 0 1 .14-2.57zm15.24-.5v.61c-.91 1.57-3.87 1.54-3.87 1.54-6.75-.1-10.26-2.12-11.08-2.66l.14-.2a8.82 8.82 0 0 0 1.93.72 27.74 27.74 0 0 0 10.91-.79c.56-.2 1.06-.39 1.49-.57.62.41.48 1.24.51 1.46zm-15.12 5.22v-.24c.57.55 1.79 1.22 5.3 1.74s8.18-.56 7.91-.32-1.29 1-4.29 1.56a37 37 0 0 1-8.27 0 20 20 0 0 1-.65-2.74zm3.8 10.24c1-.22 2.51-.48 4.19-.67a5.26 5.26 0 0 1 1.07 1.9v.1l-3.05.16a19.91 19.91 0 0 0-3.32.55l.05-.19a5.3 5.3 0 0 1 1.06-1.85zm.12-3.63c.63-.1 1.44-.19 2.54-.28a7.76 7.76 0 0 0 .49 2.08 32 32 0 0 0-3.35.69 8.06 8.06 0 0 1 .35-2.5zm5.05 1.54l-.76.09-.09-.09a8.14 8.14 0 0 0-.49-1.92l.66-.05a18 18 0 0 1 2.16 0c.23.34.84 1.23 1.15 1.83-.73-.01-1.6.04-2.6.14zm-1.44-3.24c-2.88.09-5.91.53-5.91.53s-.25-.49-.56-1.31c.62.13 1.92.38 3 .48 1.47.15 4.27-.12 5.62 0s3.34.51 3.69.58l-.07.19a29.89 29.89 0 0 0-5.74-.46zm2.74-1.38a9 9 0 0 0 4.08-1.6c-.17.73-.39 1.48-.59 2.09a19.43 19.43 0 0 0-3.47-.49zm-10.18 5.56c.12-1 1.73-1.83 2.27-2.09l.39-.13a4.62 4.62 0 0 0-.24 1.87l.08.66a13.73 13.73 0 0 0-1.65.62c-.4.04-.96.13-.82-.93zm-.82 2.82a8.27 8.27 0 0 1 3-1.26h-.06.08v.07a3.37 3.37 0 0 0-1 2l-.92.28a5.24 5.24 0 0 1-2.28.25 4.79 4.79 0 0 1 1.2-1.33zm-1.44 3.29v-.26c.68-.63 2.93-.89 3.38-.94.05.94.15 2.09.32 3.17a8 8 0 0 1-2.06-.17c-.69-.25-1.27-.11-1.71-1.27a3.29 3.29 0 0 0 .09-.52zm.15 2.56l-.1-.2a6.7 6.7 0 0 0 2.4.58c.53.05 1 .14 1.5.22a5.28 5.28 0 0 0 .82 2.05c-2.9-.46-4.15-1.87-4.6-2.64zm11.56 1.53a1.52 1.52 0 0 1-.95 1c-.74.08-1.68.16-2.91.23h-.1a4.64 4.64 0 0 1-2-1.86l-.06-.09a9.8 9.8 0 0 0 1.88-.05c1.84-.22 3.45-.45 4.13-.51.17.23.15.59.03 1.29zm.18-3c-.15.79-.71.5-1 .53s-3.59.59-4.56.56a7.29 7.29 0 0 1-1.26-.14 8.5 8.5 0 0 1-.38-3.51c.69-.62 5.73-1.23 6.44-.88a1.15 1.15 0 0 1 .62.82 13.4 13.4 0 0 1 .16 2.6zm.56-5a1.55 1.55 0 0 0-.29-1.12 6.39 6.39 0 0 0-.6-.74l1.36-.08h2.33a3.69 3.69 0 0 1 1.42 1.93c-.93 0-1.95.09-2.19.09s-1.46.1-2 .15c.01-.14-.02-.22-.02-.22zm4 8.35c-1 .09-1.93.15-2.4.15a5.68 5.68 0 0 0-1.24.22 3.71 3.71 0 0 0 0-2c1.3-.08 3.61-.26 4.14-.37.21 0 .59-.1 1-.16.02.86-.92 1.74-1.47 2.17zm1.6-3.62a8.42 8.42 0 0 1-3.24.46 7.71 7.71 0 0 0-2.06.09s-.09-2.17-.13-3.37c.65-1.22 2.95-1.16 3.51-1.1a1.58 1.58 0 0 1 1.65 1.12 10.71 10.71 0 0 1 .3 2.82zm3.91 1.79c-.74 1.24-2.53 1.32-3.32 1.53a17.64 17.64 0 0 0 .44-2c.74-.09 1.47-.16 1.82-.17a4.23 4.23 0 0 0 1.59-.43 6.48 6.48 0 0 1-.52 1.09zm.85-3.85v.26a1.92 1.92 0 0 1-1.43 1.33 12.13 12.13 0 0 1-2.24.25 20.77 20.77 0 0 0-.47-3.25l1.71.12a6.66 6.66 0 0 1 2.36.73c.07.2.09.37.11.58zm-.6-2.52a30.69 30.69 0 0 0-4-.19 7.76 7.76 0 0 0-.83-1.78 8.49 8.49 0 0 1 2.07.45l-.07-.1c1.95.67 2.5 1.14 2.87 1.64zm-4.14-3.1a11 11 0 0 0-2.94-.39c-.16-.4-.47-1.21-.68-1.63a8.15 8.15 0 0 1 2.45.75 2.31 2.31 0 0 1 1.21 1.29zm-.62-9.67l.07-.39s-.44 1.85-4.62 2.27a21.91 21.91 0 0 1-8.15-.94s1.68.15 5 .09 6.44-2 7.18-2.27a.53.53 0 0 1 .57.1v.76a1 1 0 0 1-.01.4zm2.77-19.63a21.42 21.42 0 0 1 .24 8.24c-.53 2.27-1.35 3.74-3.12 4.32 0 0 1.62-4.38.62-7.3a33 33 0 0 1-.76 3.27c-.44 1.44-1.38 5.35-4 5.85a17.75 17.75 0 0 1-6.71.26c-1.59-.38-2.62-2.82-2.79-3.35s-.44-.12-.29.53a12.22 12.22 0 0 0 .71 2.09c.18.32-.12.53-.59.29a4.83 4.83 0 0 1-2.29-1.82l-.12-.14a14.17 14.17 0 0 1-2.73-5.3c-.88-3.32-1.44-7.82-2.79-10.85a26.78 26.78 0 0 0-3.41-6s-.83-.79.14-1.26a.17.17 0 0 0 .12 0 23.68 23.68 0 0 1 2.5-.09l2.91.06s4.21-.12 5.3-.06a26.63 26.63 0 0 0 3.38-.44c.65 0 5-.91 5-.91s5.44-1.06 7.24-.88 2.07.67 2.16 1.51l.06 1.18a18.58 18.58 0 0 1-.71 5.24 10 10 0 0 1-1.65 2.88 5.56 5.56 0 0 1 1.62 2.7zm-8-13.71s.63-1.28 1.32-2.49a14 14 0 0 1-1.3.56l-.73 1.41-.75-1s-4.11-5.62-4.33-6-.24-.64.59-.62 7.35-.19 7.58 0 0 .34-.21.74-2.15 5.41-2.15 5.41l1.3-.56s2.36-4.94 2.51-5.18a1.36 1.36 0 0 1 1.24-.53c.61.07 2 2.5 3.09 3.68l2.16 3.38zm13.77-6.63a35.05 35.05 0 0 1-.5 4.56c-.19.27-.09.29-.54.48a2.19 2.19 0 0 1-1.34.12l-1.13-1.79s-3-4.41-3-4.56-.28-.37 1.24-.44 4-.34 4.56.06a1.63 1.63 0 0 1 .78 1.59zm5.92-24c-.27 1.86-.86 5.12-1.48 6.21s-3.82 5.65-3.82 5.65-.15.4-.38-.56-.77-5.43-3.67-8.32-5.36-4.07-7.9-4.14c0 0-.93-.24 1.09-.36s5.45 1.67 6.33 1.72 2.38.34 1.09-.65a17.2 17.2 0 0 0-5.06-2c-.71-.15-.9-.62-.3-1s3.15-.22 4.76.21a17.85 17.85 0 0 0 3.2.65c.25 0 .81-.22-.59-.74a31.77 31.77 0 0 0-7.43-1.51c-1.82 0-3.26.28-3.43.8s-.12-.52-.33-1.6a53.4 53.4 0 0 1-.47-8 23.55 23.55 0 0 1 .8-4.38c.24-.53.52-2.37.15-2.34s-.62 1.41-1 1.83-.21-3.12-.27-3.85-.28-.83-.59 0-.49 5.47-.36 8.55.75 9.94.77 10.65.33 1-.92 1.12-2.53.21-4.47.53-2.4.55-3.17 1.3a2.08 2.08 0 0 0-.56 1.78c-2.71 1.67-1.52 2.25-1.52 2.25-.79.2-11.29 2.05-12.54 3s-1.37 1.49-2 2.8l-16.79-1.85c.1-1.31.26-3.19.35-4.06a36.45 36.45 0 0 0-.07-5.85c-.15-1.08-.09-4.77-.09-6.33a41.62 41.62 0 0 1 .84-6c.18-.71.18-6.07.18-6.55s-.15-.26-.15-.26a14.09 14.09 0 0 0-.75 4c.11 1.46-.22 3.15-.93 3a.6.6 0 0 1-.36-.22 6.75 6.75 0 0 1-.41-1.51s-.22-.9-.5.53a14.51 14.51 0 0 0 .47 4.85v.08l.14.45a55.89 55.89 0 0 1 .62 8.56v2c0 .18-.09.65-.33.64a12.07 12.07 0 0 0-6.09-1.43c-4.31 0-4.81 1.38-6.6 2.47 0 0 .44-5.52.59-6.84a40.86 40.86 0 0 1 1.69-6.38 24.77 24.77 0 0 1 3-5.15 23.41 23.41 0 0 0 2.63-3.34 27.34 27.34 0 0 1 2.28-3.33c.34-.46 1.93-1.94 2.07-2.1a37 37 0 0 0 4.64-5.06c1.65-2.4 6.07-3.94 6.07-3.94a25.13 25.13 0 0 1 6.5-.71 88.32 88.32 0 0 0-3.66 11 45.79 45.79 0 0 0-.88 7.81s.18 1.59 3.31 2.52a17.73 17.73 0 0 0 6.93.26s.75-.09.84-1.81 1.41-11.56 2.78-14a9.54 9.54 0 0 1 5.31-4.58l.33-.09c1-.35 3.41-1 4.32-1.38s1-1.17 2.22-.54a2.39 2.39 0 0 1 .28.33l5.61 3.73a11.22 11.22 0 0 0-3.72 1.49 16.89 16.89 0 0 1 4.85-.59 18.34 18.34 0 0 1 3.57.79c1.34.63 2.26 1 3.08 1.49a8.36 8.36 0 0 1 3.08 2.74c1.32 1.94 2.12 6.81 2.84 8.67s3.51 11 3.73 12.13a13.71 13.71 0 0 1 .31 4.75z" fill="#692f23"/><circle cx="99.21" cy="52.66" r=".48" fill="#fff"/><circle cx="99.24" cy="52.67" r=".5" fill="#fff"/><circle cx="81.7" cy="52.47" r=".52" fill="#fff"/></g></svg>