<svg xmlns="http://www.w3.org/2000/svg" width="800" height="360.31" viewBox="0 0 800 360.31"><title>текст</title><g id="Слой_2" data-name="Слой 2"><g id="Слой_24" data-name="Слой 24"><text transform="translate(0.44 10.28)" font-size="12" fill="#692f17" font-family="HelveticaNeueLTW1G-Roman, Helvetica Neue LT W1G">Общие раб<tspan x="62.81" y="0" letter-spacing="-0.02em">о</tspan><tspan x="69.48" y="0">ты во вс</tspan><tspan x="116.42" y="0" letter-spacing="-0.02em">е</tspan><tspan x="122.65" y="0">х помещениях:</tspan><tspan x="0" y="28.8" letter-spacing="-0.01em">с</tspan><tspan x="6.3" y="28.8">ухая уборка п</tspan><tspan x="84.23" y="28.8" letter-spacing="-0.02em">о</tspan><tspan x="90.83" y="28.8">лов пылесосом</tspan><tspan x="0" y="43.2">пове</tspan><tspan x="26.45" y="43.2" letter-spacing="-0.02em">р</tspan><tspan x="33.35" y="43.2">хностная </tspan><tspan x="88" y="43.2" letter-spacing="-0.01em">с</tspan><tspan x="94.29" y="43.2">ухая уборка пылесосом мягкой меб</tspan><tspan x="296.36" y="43.2" letter-spacing="-0.02em">е</tspan><tspan x="302.59" y="43.2" letter-spacing="0em">ли, диванов, </tspan><tspan x="0" y="57.6">крес</tspan><tspan x="26.17" y="57.6" letter-spacing="-0.02em">е</tspan><tspan x="32.4" y="57.6">л (спинки и сиденья, не снимая п</tspan><tspan x="217.89" y="57.6" letter-spacing="-0.02em">о</tspan><tspan x="224.56" y="57.6">душек)</tspan><tspan x="0" y="72" letter-spacing="-0.02em">в</tspan><tspan x="6.23" y="72">лажная уборка п</tspan><tspan x="100.93" y="72" letter-spacing="-0.02em">о</tspan><tspan x="107.53" y="72">лов и плинт</tspan><tspan x="172.88" y="72" letter-spacing="-0.01em">у</tspan><tspan x="178.74" y="72">сов</tspan><tspan x="0" y="86.4" letter-spacing="-0.02em">у</tspan><tspan x="5.78" y="86.4">даление пыли с осв</tspan><tspan x="116.52" y="86.4" letter-spacing="-0.02em">е</tspan><tspan x="122.75" y="86.4">ти</tspan><tspan x="134.97" y="86.4" letter-spacing="-0.02em">те</tspan><tspan x="146.54" y="86.4">льных приборов (выс</tspan><tspan x="266.6" y="86.4" letter-spacing="-0.02em">от</tspan><tspan x="278.61" y="86.4">ой не б</tspan><tspan x="318.84" y="86.4" letter-spacing="-0.02em">о</tspan><tspan x="325.44" y="86.4">лее 2 м)</tspan><tspan x="0" y="100.8" letter-spacing="-0.02em">в</tspan><tspan x="6.23" y="100.8">лажная уборка п</tspan><tspan x="100.93" y="100.8" letter-spacing="-0.02em">о</tspan><tspan x="107.6" y="100.8">доконников, радиа</tspan><tspan x="214.19" y="100.8" letter-spacing="-0.02em">т</tspan><tspan x="219.53" y="100.8">оров и т</tspan><tspan x="265.76" y="100.8" letter-spacing="-0.01em">р</tspan><tspan x="272.73" y="100.8">уб</tspan><tspan x="0" y="115.2" letter-spacing="-0.02em">у</tspan><tspan x="5.78" y="115.2">даление пыли с дверных </tspan><tspan x="148.35" y="115.2" letter-spacing="-0.02em">б</tspan><tspan x="154.95" y="115.2">локов</tspan><tspan x="0" y="129.6">мытьё зеркал на всю выс</tspan><tspan x="143.67" y="129.6" letter-spacing="-0.02em">о</tspan><tspan x="150.34" y="129.6">ту и с</tspan><tspan x="181.69" y="129.6" letter-spacing="-0.02em">т</tspan><tspan x="187.03" y="129.6">еклянных пове</tspan><tspan x="270.45" y="129.6" letter-spacing="-0.02em">р</tspan><tspan x="277.35" y="129.6">хнос</tspan><tspan x="303.57" y="129.6" letter-spacing="-0.02em">т</tspan><tspan x="308.91" y="129.6">ей (пере</tspan><tspan x="355.14" y="129.6" letter-spacing="-0.02em">г</tspan><tspan x="359.92" y="129.6">о</tspan><tspan x="366.81" y="129.6">-</tspan><tspan x="0" y="144">р</tspan><tspan x="7.12" y="144" letter-spacing="-0.02em">о</tspan><tspan x="13.79" y="144">дки, пан</tspan><tspan x="59.98" y="144" letter-spacing="-0.02em">е</tspan><tspan x="66.2" y="144">ли и </tspan><tspan x="92.77" y="144" letter-spacing="-0.1em">т</tspan><tspan x="97.15" y="144">.д.)</tspan><tspan x="0" y="158.4" letter-spacing="-0.02em">у</tspan><tspan x="5.78" y="158.4">даление пыли с аксес</tspan><tspan x="128.68" y="158.4" letter-spacing="-0.01em">су</tspan><tspan x="140.84" y="158.4">аров, пр</tspan><tspan x="188.19" y="158.4" letter-spacing="-0.02em">е</tspan><tspan x="194.42" y="158.4">дм</tspan><tspan x="209.56" y="158.4" letter-spacing="-0.02em">ет</tspan><tspan x="221.13" y="158.4">ов ин</tspan><tspan x="251.14" y="158.4" letter-spacing="-0.02em">т</tspan><tspan x="256.48" y="158.4">ерьера, </tspan><tspan x="302.99" y="158.4" letter-spacing="-0.03em">э</tspan><tspan x="309.05" y="158.4">лемен</tspan><tspan x="343.42" y="158.4" letter-spacing="-0.02em">т</tspan><tspan x="348.76" y="158.4">ов </tspan><tspan x="0" y="172.8">дизайна (вазы, рамы ка</tspan><tspan x="132.55" y="172.8" letter-spacing="-0.02em">р</tspan><tspan x="139.45" y="172.8">тин, ф</tspan><tspan x="174.63" y="172.8" letter-spacing="-0.02em">от</tspan><tspan x="186.64" y="172.8">орамки и </tspan><tspan x="241.53" y="172.8" letter-spacing="-0.1em">т</tspan><tspan x="245.91" y="172.8">.д., выс</tspan><tspan x="287.53" y="172.8" letter-spacing="-0.02em">от</tspan><tspan x="299.54" y="172.8">ой не б</tspan><tspan x="339.77" y="172.8" letter-spacing="-0.02em">о</tspan><tspan x="346.37" y="172.8">лее 2 </tspan><tspan x="0" y="187.2">м)</tspan><tspan x="0" y="201.6" letter-spacing="-0.02em">в</tspan><tspan x="6.23" y="201.6">лажная уборка вс</tspan><tspan x="107.15" y="201.6" letter-spacing="-0.02em">е</tspan><tspan x="113.37" y="201.6">х видов корп</tspan><tspan x="186.44" y="201.6" letter-spacing="-0.01em">у</tspan><tspan x="192.29" y="201.6">сной меб</tspan><tspan x="243.89" y="201.6" letter-spacing="-0.02em">е</tspan><tspan x="250.12" y="201.6">ли (крышек с</tspan><tspan x="323.67" y="201.6" letter-spacing="-0.02em">т</tspan><tspan x="329.01" y="201.6" letter-spacing="-0.02em">о</tspan><tspan x="335.61" y="201.6">лов, </tspan><tspan x="0" y="216">п</tspan><tspan x="6.67" y="216" letter-spacing="-0.02em">о</tspan><tspan x="13.27" y="216">лок, шкафов, тумбочек, внешних фасадов меб</tspan><tspan x="276.88" y="216" letter-spacing="-0.02em">е</tspan><tspan x="283.11" y="216">ли и прочих </tspan><tspan x="0" y="230.4">пове</tspan><tspan x="26.45" y="230.4" letter-spacing="-0.02em">р</tspan><tspan x="33.35" y="230.4">хнос</tspan><tspan x="59.57" y="230.4" letter-spacing="-0.02em">т</tspan><tspan x="64.91" y="230.4">ей выс</tspan><tspan x="102.74" y="230.4" letter-spacing="-0.02em">от</tspan><tspan x="114.75" y="230.4">ой не б</tspan><tspan x="154.99" y="230.4" letter-spacing="-0.02em">о</tspan><tspan x="161.59" y="230.4">лее 2 м)</tspan><tspan x="0" y="244.8" letter-spacing="-0.02em">у</tspan><tspan x="5.78" y="244.8">даление пыли с бы</tspan><tspan x="112.13" y="244.8" letter-spacing="-0.02em">т</tspan><tspan x="117.47" y="244.8">овой </tspan><tspan x="147.69" y="244.8" letter-spacing="-0.02em">те</tspan><tspan x="159.26" y="244.8">хники</tspan><tspan x="0" y="259.2">замена пос</tspan><tspan x="63.6" y="259.2" letter-spacing="-0.02em">те</tspan><tspan x="75.17" y="259.2">льно</tspan><tspan x="101.55" y="259.2" letter-spacing="-0.02em">г</tspan><tspan x="106.33" y="259.2">о б</tspan><tspan x="123.44" y="259.2" letter-spacing="-0.02em">е</tspan><tspan x="129.67" y="259.2">лья</tspan><tspan x="0" y="273.6">вынос м</tspan><tspan x="46.54" y="273.6" letter-spacing="-0.01em">у</tspan><tspan x="52.39" y="273.6">сора, замена п</tspan><tspan x="136.22" y="273.6" letter-spacing="-0.02em">о</tspan><tspan x="142.82" y="273.6">ли</tspan><tspan x="156.04" y="273.6" letter-spacing="-0.02em">э</tspan><tspan x="162.27" y="273.6">тиленовых пак</tspan><tspan x="244.83" y="273.6" letter-spacing="-0.02em">ет</tspan><tspan x="256.4" y="273.6">ов в м</tspan><tspan x="291.1" y="273.6" letter-spacing="-0.01em">у</tspan><tspan x="296.95" y="273.6">сорных корзи</tspan><tspan x="374.96" y="273.6">-</tspan><tspan x="0" y="288">нах</tspan><tspan x="0" y="302.4">мытье м</tspan><tspan x="46.62" y="302.4" letter-spacing="-0.01em">у</tspan><tspan x="52.48" y="302.4">сорных корзин и мест для хранения м</tspan><tspan x="267.98" y="302.4" letter-spacing="-0.01em">у</tspan><tspan x="273.83" y="302.4">сора</tspan></text><text transform="translate(417.44 10.28)" font-size="12" fill="#692f17" font-family="HelveticaNeueLTW1G-Roman, Helvetica Neue LT W1G">Сануз<tspan x="33.78" y="0" letter-spacing="-0.02em">е</tspan><tspan x="40.01" y="0">л:</tspan><tspan x="0" y="28.8">чистка и дезинфекция сан</tspan><tspan x="148.61" y="28.8" letter-spacing="-0.02em">те</tspan><tspan x="160.18" y="28.8">хники (смеси</tspan><tspan x="233.28" y="28.8" letter-spacing="-0.02em">те</tspan><tspan x="244.85" y="28.8">ли, раковины, уни</tspan><tspan x="345.66" y="28.8" letter-spacing="-0.02em">т</tspan><tspan x="351" y="28.8">азы, </tspan><tspan x="0" y="43.2">биде)</tspan><tspan x="0" y="57.6">мытьё каф</tspan><tspan x="60.59" y="57.6" letter-spacing="-0.02em">е</tspan><tspan x="66.82" y="57.6">льной плитки локально (</tspan><tspan x="203.72" y="57.6" letter-spacing="-0.03em">г</tspan><tspan x="208.36" y="57.6">де име</tspan><tspan x="246.4" y="57.6" letter-spacing="-0.02em">ют</tspan><tspan x="260.72" y="57.6">ся загрязнения)</tspan><tspan x="0" y="72">мытьё душевых кабин и ванн</tspan><tspan x="0" y="100.8">Кухня:</tspan><tspan x="0" y="129.6">мытьё грязной по</tspan><tspan x="100.09" y="129.6" letter-spacing="-0.01em">с</tspan><tspan x="106.39" y="129.6" letter-spacing="-0.02em">у</tspan><tspan x="112.18" y="129.6">ды в раковине (10 минут)</tspan><tspan x="0" y="144">мытьё ку</tspan><tspan x="50.53" y="144" letter-spacing="-0.02em">х</tspan><tspan x="56.53" y="144">онной плиты, </tspan><tspan x="134.28" y="144" letter-spacing="-0.02em">у</tspan><tspan x="140.06" y="144">даление </tspan><tspan x="189.51" y="144" letter-spacing="-0.02em">с</tspan><tspan x="195.74" y="144">л</tspan><tspan x="202.29" y="144" letter-spacing="-0.02em">е</tspan><tspan x="208.52" y="144">дов жира</tspan><tspan x="0" y="158.4">мытьё </tspan><tspan x="38.36" y="158.4" letter-spacing="-0.02em">х</tspan><tspan x="44.36" y="158.4" letter-spacing="-0.02em">о</tspan><tspan x="50.96" y="158.4">л</tspan><tspan x="57.51" y="158.4" letter-spacing="-0.02em">о</tspan><tspan x="64.19" y="158.4">дильника, ду</tspan><tspan x="136.09" y="158.4" letter-spacing="-0.02em">х</tspan><tspan x="142.09" y="158.4">овой печи сна</tspan><tspan x="221.28" y="158.4" letter-spacing="-0.01em">р</tspan><tspan x="228.25" y="158.4">ужи</tspan><tspan x="0" y="172.8">мытьё микров</tspan><tspan x="79.91" y="172.8" letter-spacing="-0.02em">о</tspan><tspan x="86.51" y="172.8">лновой печи внутри и сна</tspan><tspan x="230.72" y="172.8" letter-spacing="-0.01em">р</tspan><tspan x="237.69" y="172.8">ужи</tspan><tspan x="0" y="187.2">очистка ку</tspan><tspan x="59.95" y="187.2" letter-spacing="-0.02em">х</tspan><tspan x="65.95" y="187.2">онных рабочих пове</tspan><tspan x="180.51" y="187.2" letter-spacing="-0.02em">р</tspan><tspan x="187.41" y="187.2">хнос</tspan><tspan x="213.63" y="187.2" letter-spacing="-0.02em">т</tspan><tspan x="218.97" y="187.2">ей (с</tspan><tspan x="244.98" y="187.2" letter-spacing="-0.02em">т</tspan><tspan x="250.32" y="187.2" letter-spacing="-0.02em">о</tspan><tspan x="256.92" y="187.2">лешницы)</tspan><tspan x="0" y="201.6">мытьё с</tspan><tspan x="44.81" y="201.6" letter-spacing="-0.02em">т</tspan><tspan x="50.15" y="201.6">еновой пан</tspan><tspan x="113.28" y="201.6" letter-spacing="-0.02em">е</tspan><tspan x="119.51" y="201.6">ли (фа</tspan><tspan x="155.23" y="201.6" letter-spacing="-0.02em">р</tspan><tspan x="162.13" y="201.6">тука) ку</tspan><tspan x="204.91" y="201.6" letter-spacing="-0.02em">х</tspan><tspan x="210.91" y="201.6">онно</tspan><tspan x="238.03" y="201.6" letter-spacing="-0.02em">г</tspan><tspan x="242.8" y="201.6">о </tspan><tspan x="253.03" y="201.6" letter-spacing="-0.02em">г</tspan><tspan x="257.8" y="201.6">арнитура</tspan><tspan x="0" y="216" letter-spacing="-0.02em">у</tspan><tspan x="5.78" y="216">даление </tspan><tspan x="55.24" y="216" letter-spacing="-0.02em">с</tspan><tspan x="61.46" y="216">л</tspan><tspan x="68.01" y="216" letter-spacing="-0.02em">е</tspan><tspan x="74.24" y="216">дов жира и ма</tspan><tspan x="155.4" y="216" letter-spacing="-0.02em">с</tspan><tspan x="161.63" y="216">леных пя</tspan><tspan x="212.43" y="216" letter-spacing="-0.02em">т</tspan><tspan x="217.77" y="216">ен (выс</tspan><tspan x="258.71" y="216" letter-spacing="-0.02em">от</tspan><tspan x="270.73" y="216">ой не б</tspan><tspan x="310.96" y="216" letter-spacing="-0.02em">о</tspan><tspan x="317.56" y="216">лее 2 м)</tspan><tspan x="0" y="230.4" letter-spacing="-0.02em">у</tspan><tspan x="5.78" y="230.4">даление пыли и </tspan><tspan x="96.97" y="230.4" letter-spacing="-0.02em">с</tspan><tspan x="103.2" y="230.4">л</tspan><tspan x="109.75" y="230.4" letter-spacing="-0.02em">е</tspan><tspan x="115.98" y="230.4">дов жира с вытяжки</tspan><tspan x="0" y="244.8" letter-spacing="-0.02em">у</tspan><tspan x="5.78" y="244.8">даление пыли и загрязнений с ку</tspan><tspan x="192.43" y="244.8" letter-spacing="-0.02em">х</tspan><tspan x="198.43" y="244.8">онной </tspan><tspan x="235.56" y="244.8" letter-spacing="-0.02em">те</tspan><tspan x="247.13" y="244.8">хники</tspan><tspan x="0" y="259.2">мытьё внешних фасадов ку</tspan><tspan x="155.19" y="259.2" letter-spacing="-0.02em">х</tspan><tspan x="161.19" y="259.2">онно</tspan><tspan x="188.31" y="259.2" letter-spacing="-0.02em">г</tspan><tspan x="193.09" y="259.2">о </tspan><tspan x="203.31" y="259.2" letter-spacing="-0.02em">г</tspan><tspan x="208.08" y="259.2">арнитура сна</tspan><tspan x="283" y="259.2" letter-spacing="-0.01em">р</tspan><tspan x="289.97" y="259.2">ужи на всю </tspan><tspan x="0" y="273.6">выс</tspan><tspan x="21.38" y="273.6" letter-spacing="-0.02em">о</tspan><tspan x="28.05" y="273.6">ту</tspan><tspan x="0" y="288">чистка и дезинфекция сан</tspan><tspan x="148.61" y="288" letter-spacing="-0.02em">те</tspan><tspan x="160.18" y="288">хники</tspan><tspan x="0" y="302.4">дезинфекция, </tspan><tspan x="81.48" y="302.4" letter-spacing="-0.02em">в</tspan><tspan x="87.71" y="302.4">лажная уборка мес</tspan><tspan x="196.88" y="302.4" letter-spacing="-0.02em">т</tspan><tspan x="202.22" y="302.4">а для хранения м</tspan><tspan x="299.44" y="302.4" letter-spacing="-0.01em">у</tspan><tspan x="305.3" y="302.4">сора</tspan><tspan x="0" y="316.8">Связаться по возникшим вопросам Вы м</tspan><tspan x="232.51" y="316.8" letter-spacing="-0.02em">ожет</tspan><tspan x="259.85" y="316.8">е по </tspan><tspan x="286.53" y="316.8" letter-spacing="-0.02em">те</tspan><tspan x="298.1" y="316.8">лефону (495) </tspan><tspan x="0" y="331.2">668-04-68 (Москва) или </tspan><tspan x="0" y="345.6">(812) 319-39-03 (Санк</tspan><tspan x="120" y="345.6" letter-spacing="-0.05em">т</tspan><tspan x="124.96" y="345.6">-П</tspan><tspan x="138.3" y="345.6" letter-spacing="-0.02em">ет</tspan><tspan x="149.86" y="345.6">ер</tspan><tspan x="163.42" y="345.6" letter-spacing="-0.01em">б</tspan><tspan x="170.17" y="345.6">ург).</tspan></text><rect y="1.31" width="800" height="359" fill="none"/></g></g></svg>