<svg xmlns="http://www.w3.org/2000/svg" width="30" height="30" viewBox="0 0 30 30"><title>watch_1</title><g id="Слой_2" data-name="Слой 2"><g id="Слой_1-2" data-name="Слой 1"><path d="M1.08,14.84A13.92,13.92,0,1,1,15,28.76,13.92,13.92,0,0,1,1.08,14.84Z" fill="#e2ddd3" stroke="#692f17" stroke-linecap="round" stroke-linejoin="round" stroke-width="1.16"/><path d="M3.47,14.84A11.53,11.53,0,1,1,15,26.38,11.53,11.53,0,0,1,3.47,14.84Z" fill="#f7f5f1" stroke="#692f17" stroke-linecap="round" stroke-linejoin="round" stroke-width="0.58"/><circle cx="7.07" cy="14.84" r="0.51" fill="#fd8204"/><circle cx="15" cy="6.91" r="0.51" fill="#ff8300"/><circle cx="15" cy="22.78" r="0.51" fill="#fd8204"/><path d="M15,3.31V14.85H26.53S26.64,3.62,15,3.31Z" fill="#fd8204" stroke="#692f17" stroke-linecap="round" stroke-linejoin="round" stroke-width="0.58"/><circle cx="8.13" cy="18.8" r="0.51" transform="translate(-8.3 6.56) rotate(-29.93)" fill="#692f17"/><circle cx="21.88" cy="10.89" r="0.51" transform="translate(-2.51 12.39) rotate(-29.97)" fill="#692f17"/><circle cx="11.05" cy="7.97" r="0.51" transform="translate(-2.5 6.57) rotate(-29.93)" fill="#692f17"/><circle cx="18.96" cy="21.72" r="0.51" transform="translate(-8.31 12.35) rotate(-29.92)" fill="#692f17"/><circle cx="11.04" cy="21.72" r="0.51" transform="translate(-13.29 20.42) rotate(-60.01)" fill="#692f17"/><circle cx="18.97" cy="7.97" r="0.51" transform="translate(2.58 20.42) rotate(-60)" fill="#692f17"/><circle cx="8.13" cy="10.88" r="0.51" transform="matrix(0.5, -0.87, 0.87, 0.5, -5.35, 12.47)" fill="#692f17"/><circle cx="21.88" cy="18.81" r="0.51" transform="translate(-5.35 28.35) rotate(-60)" fill="#692f17"/><line x1="15" y1="14.84" x2="15" y2="5.45" fill="#e1dcd2" stroke="#692f17" stroke-linecap="round" stroke-linejoin="round" stroke-width="1.16"/><line x1="14.74" y1="14.84" x2="9.75" y2="11.97" fill="#e1dcd2" stroke="#692f17" stroke-linecap="round" stroke-linejoin="round" stroke-width="1.16"/><circle cx="15" cy="14.84" r="1.04" fill="#692f17"/><rect width="30" height="30" fill="none"/></g></g></svg>