<svg xmlns="http://www.w3.org/2000/svg" width="80" height="80" viewBox="0 0 80 80"><title>система-обучения_1</title><g id="Слой_2" data-name="Слой 2"><g id="Слой_1-2" data-name="Слой 1"><rect width="80" height="80" fill="none"/><path d="M32.46,54.34c-7.73,1.77-13.32,6.73-13.32,12.23,0,.2,0,.4,0,.6a56.26,56.26,0,0,0,20,3.55,56.24,56.24,0,0,0,20-3.55c0-.2,0-.4,0-.6,0-5.59-5.69-10.33-13.6-12" fill="none" stroke="#fd8204" stroke-miterlimit="10" stroke-width="1.5"/><path d="M42.56,56.09v9.12a1.09,1.09,0,0,1-1.09,1.09h-3.8a1.09,1.09,0,0,1-1.09-1.09V56.09" fill="none" stroke="#fd8204" stroke-miterlimit="10" stroke-width="1.4"/><path d="M57.39,25.28A19.68,19.68,0,0,1,62.57,37.8c0,8.43-6.61,14.67-16.26,16.59" fill="none" stroke="#fd8204" stroke-miterlimit="10" stroke-width="1.5"/><path d="M33.59,54.47c-9.75-1.72-16.45-7.61-16.45-16.67a19.55,19.55,0,0,1,4.93-12.22" fill="none" stroke="#fd8204" stroke-miterlimit="10" stroke-width="1.5"/><path d="M33.18,52v2.19c0,1.21,2.78,2.19,6.22,2.19s6.22-1,6.22-2.19V52" fill="none" stroke="#fd8204" stroke-miterlimit="10" stroke-width="1.4"/><path d="M34.49,31.65c.72,1,1.59,2.29,2.28,3.21l.4.53.66.06c1.23.12,2.51.18,3.81.18A46.08,46.08,0,0,0,53.84,34a11.92,11.92,0,0,1,.93,4.61c0,7.47-6.9,13.55-15.38,13.55S24,46.05,24,38.58a11.89,11.89,0,0,1,.83-4.36,12.69,12.69,0,0,0,5.07,1.09,11.22,11.22,0,0,0,1.92-.16l.7-.12.35-.62c.38-.67,1-1.77,1.6-2.75m-.09-2.79s-2,3.36-2.81,4.8a9.69,9.69,0,0,1-1.66.14,11.17,11.17,0,0,1-5.77-1.65,13.63,13.63,0,0,0-1.63,6.42c0,8.31,7.56,15.05,16.88,15.05s16.88-6.74,16.88-15.05a13.64,13.64,0,0,0-1.63-6.42,43.58,43.58,0,0,1-13,2c-1.22,0-2.45-.05-3.67-.17-1.38-1.85-3.57-5.11-3.57-5.11Z" fill="#fd8204"/><path d="M44.55,46.4a16.68,16.68,0,0,1-5.54.88,17,17,0,0,1-5.25-.78" fill="none" stroke="#fd8204" stroke-linecap="round" stroke-miterlimit="10" stroke-width="0.69"/><path d="M41.61,48.95a8.33,8.33,0,0,1-2.51.36A8.51,8.51,0,0,1,36.71,49" fill="none" stroke="#fd8204" stroke-linecap="round" stroke-miterlimit="10" stroke-width="0.52"/><path d="M40.81,43.92a12.24,12.24,0,0,1-1.69.11,12.62,12.62,0,0,1-1.61-.1" fill="#fff" stroke="#fd8204" stroke-linecap="round" stroke-miterlimit="10" stroke-width="0.69"/><path d="M35.1,39.2a5.31,5.31,0,0,0-3.41-1.71,5.31,5.31,0,0,0-3.41,1.71" fill="none" stroke="#fd8204" stroke-linecap="round" stroke-miterlimit="10" stroke-width="0.93"/><ellipse cx="31.69" cy="39.2" rx="1.49" ry="1.36" fill="#fd8204"/><path d="M49.46,39.2A5.31,5.31,0,0,0,46,37.49a5.31,5.31,0,0,0-3.41,1.71" fill="none" stroke="#fd8204" stroke-linecap="round" stroke-miterlimit="10" stroke-width="0.93"/><ellipse cx="46.05" cy="39.2" rx="1.49" ry="1.36" fill="#fd8204"/><path d="M39.65,29.16a62,62,0,0,1-13-1.22c-3.88-.88-5.85-2.07-5.85-3.55V21.12H22v3.27c0,.41,1,1.42,4.84,2.29a60.74,60.74,0,0,0,12.76,1.19,60.74,60.74,0,0,0,12.76-1.19c3.83-.87,4.84-1.87,4.84-2.29V21.07h1.29v3.32c0,1.48-2,2.67-5.85,3.55A62,62,0,0,1,39.65,29.16Z" fill="#fd8204"/><path d="M39.67,23.29h-.08l-26-6.51a.32.32,0,1,1,.16-.63l25.88,6.49,25.88-6.49a.32.32,0,1,1,.16.63l-26,6.51Z" fill="#fd8204"/><path d="M65.41,26.94a.32.32,0,0,1-.32-.32V18.07a.32.32,0,0,1,.65,0v8.54A.32.32,0,0,1,65.41,26.94Z" fill="#fd8204"/><path d="M65.71,26.28l-.3-.68-.3.68a19.27,19.27,0,0,0-1.23,3c0,.35.41.4.63.43a8.18,8.18,0,0,0,1.78,0c.22,0,.63-.08.63-.43A19.27,19.27,0,0,0,65.71,26.28Zm-.3,2.79a6.66,6.66,0,0,1-.78,0c.17-.4.48-1.14.78-1.81.29.67.61,1.41.78,1.81A6.66,6.66,0,0,1,65.41,29.07Z" fill="#fd8204"/><path d="M39.67,26.47,13.07,19.65v-3.7L39.67,9.27l26.61,6.68v3.61ZM14.36,18.65l25.31,6.49L65,18.56V17L39.67,10.61,14.36,17Z" fill="#fd8204"/></g></g></svg>