<svg xmlns="http://www.w3.org/2000/svg" viewBox="0 0 329 102"><title>Брюки_1</title><path fill="none" d="M0 0h329v102H0z"/><path d="M64.85 30.17A7.12 7.12 0 0 0 71.94 34M57.66 28.11a7.63 7.63 0 0 0 7.61 7.62M38.21 25.44c0 4.2-3 6.58-7.2 6.58" fill="none" stroke="#ff5a19" stroke-linejoin="round" stroke-width="1.5"/><path d="M48.37 37.56a5 5 0 0 1-2.59.49l-.23-11.34 3.9.4V35a3.42 3.42 0 0 1-1.08 2.56z" fill="none" stroke="#353535" stroke-linejoin="round" stroke-width="2"/><path fill="none" stroke="#353535" stroke-linejoin="round" stroke-width="2" d="M65.19 87.06l-12.38-2.12-5.58-44.38-2.82 43.33-12.28-1.64-1.31-61.39L64.86 24l.33 63.06zM30.86 24.98l34.2 3.45M50.27 23.08v4.23M44.42 22.18v4.26"/><path d="M71.41 30.38A6.2 6.2 0 0 0 76 32.13" fill="none" stroke="#ff5a19" stroke-linejoin="round" stroke-width="1.5"/><path fill="none" stroke="#353535" stroke-linejoin="round" stroke-width="2" d="M41.58 18.91l-.05-1.66 34.05 3.14.33 63.08-4.64-.8M71.2 24.37l4.58.46M61 19v2M55.14 18.58v2M51.45 73.64l-.37 8.55-6.74-.88"/><path fill="none" stroke="#353535" stroke-linejoin="round" stroke-width="2" d="M37.52 21.16l-.04-2 34.04 3.14.34 63.08-6.64-1.15M64.42 26l7.31.74M56.94 21v2.48M51.08 20.49V23"/><path fill="none" d="M15.21 12.5h77v77h-77z"/><path d="M175.64 30.17a7.11 7.11 0 0 0 7.09 3.83M168.5 28.11a7.63 7.63 0 0 0 7.61 7.62M149 25.44c0 4.2-3 6.58-7.2 6.58" fill="none" stroke="#ff5a19" stroke-linejoin="round" stroke-width="1.5"/><path d="M159.16 37.56a5 5 0 0 1-2.59.49l-.23-11.34 3.9.4V35a3.5 3.5 0 0 1-1.08 2.56z" fill="none" stroke="#353535" stroke-linejoin="round" stroke-width="2"/><path fill="none" stroke="#353535" stroke-linejoin="round" stroke-width="2" d="M175.98 87.06l-12.38-2.12-5.59-44.38-2.82 43.33-12.27-1.64-1.32-61.39L175.64 24l.34 63.06zM141.65 24.98l34.2 3.45M161.06 23.08v4.23M155.21 22.18v4.26"/><path d="M182.2 30.38a6.2 6.2 0 0 0 4.58 1.75" fill="none" stroke="#ff5a19" stroke-linejoin="round" stroke-width="1.5"/><path fill="none" stroke="#353535" stroke-linejoin="round" stroke-width="2" d="M152.35 18.91l-.03-1.66 34.04 3.14.33 63.08-4.63-.8M181.99 24.37l4.58.46M171.78 19v2M165.93 18.58v2M162.24 73.64l-.38 8.55-6.73-.88"/><path fill="none" stroke="#353535" stroke-linejoin="round" stroke-width="2" d="M148.31 21.16l-.05-2 34.04 3.14.34 63.08-6.64-1.15M175.21 26l7.31.74M167.73 21v2.48M161.87 20.49V23"/><path fill="none" d="M126 12.5h77v77h-77z"/><path d="M286 30.17a7.12 7.12 0 0 0 7.13 3.83M278.85 28.11a7.63 7.63 0 0 0 7.61 7.62M259.4 25.44c0 4.2-3 6.58-7.2 6.58" fill="none" stroke="#ff5a19" stroke-linejoin="round" stroke-width="1.5"/><path d="M269.56 37.56a5 5 0 0 1-2.59.49l-.23-11.34 3.9.4V35a3.42 3.42 0 0 1-1.08 2.56z" fill="none" stroke="#353535" stroke-linejoin="round" stroke-width="2"/><path fill="none" stroke="#353535" stroke-linejoin="round" stroke-width="2" d="M286.38 87.06L274 84.94l-5.58-44.38-2.82 43.33-12.28-1.64L252 20.86 286.05 24l.33 63.06zM252.05 24.98l34.2 3.45M271.46 23.08v4.23M265.61 22.18v4.26"/><path d="M292.6 30.38a6.2 6.2 0 0 0 4.58 1.75" fill="none" stroke="#ff5a19" stroke-linejoin="round" stroke-width="1.5"/><path fill="none" stroke="#353535" stroke-linejoin="round" stroke-width="2" d="M262.76 18.91l-.03-1.66 34.03 3.14.34 63.08-4.64-.8M292.39 24.37l4.58.46M282.18 19v2M276.33 18.58v2M272.64 73.64l-.38 8.55-6.72-.88"/><path fill="none" stroke="#353535" stroke-linejoin="round" stroke-width="2" d="M258.71 21.16l-.04-2 34.03 3.14.35 63.08-6.65-1.15M285.61 26l7.31.74M278.13 21v2.48M272.27 20.49V23"/><path fill="none" d="M236.4 12.5h77v77h-77z"/></svg>