<svg xmlns="http://www.w3.org/2000/svg" viewBox="0 0 157 70"><defs><style>.cls-1{fill:none}.cls-2{fill:#044684}</style></defs><title>Ресурс 43</title><g id="Слой_2" data-name="Слой 2"><path class="cls-1" d="M0 0h157v70H0z" id="комерческий_банк" data-name="комерческий банк"/><g id="уралсиб"><path class="cls-2" d="M101.34 34.77h-4.86L90.62 48.7l-5.86-13.93h-5.18L73 50.44h4.86l1.42-3.38h5.81l1.43 3.38h8.24l4.33-10.28 4.33 10.28h4.86l-6.6-15.67zM80.56 44l1.61-3.81 1.6 3.81zM49.53 41.9l-3.76-7.13h-4.86l6.21 11.69L45 50.44h4.86l8.31-15.67h-4.85l-3.79 7.13zM75 40.18a5.41 5.41 0 0 0-5.41-5.4H59.16v15.66H64v-4.85h5.54A5.41 5.41 0 0 0 75 40.18zm-11-1.94h4.28a2.11 2.11 0 0 1 2 2.1 2.16 2.16 0 0 1-2.09 2.16H64zM135.17 34.77h-1.65l-6.09 11.46V34.77h-4.86v15.67H128.54l6.4-12.05v12.05h4.85V34.77h-4.62zM114 34.94a6.62 6.62 0 0 0-6.6 6.59v2.17a6.62 6.62 0 0 0 6.6 6.6h7.11v-3.51h-5a4.17 4.17 0 0 1 0-8.34h5v-3.51zM152.84 41h-6.71v-2.5h9.49v-3.72h-14.34v15.66h11.56a3.67 3.67 0 0 0 3.66-3.66v-2.12a3.68 3.68 0 0 0-3.66-3.66zm-2.16 6h-4.55v-2.92h4.55a1.44 1.44 0 0 1 0 2.87zM19.65 27.84c-.18-1.9-.3-7.53-.34-9.54h-1.25V27.58c-.39 0-.78 0-1.17-.07V11.24h-1.1v16.28c-.46 0-.91 0-1.36.09V25c0-.88 0-5.7-.05-6.7h-1.22c0 2-.16 7.67-.35 9.59A15.67 15.67 0 0 0 .5 43.12a15.48 15.48 0 0 0 2.59 8.57 16 16 0 0 0 4.54 4.49c.22-.34.43-.7.64-1.06 2.93-5.2 5.06-13.07 5.85-22.22a10.44 10.44 0 0 0-2.07.46c-1.54 8.49-4.54 15.07-8.24 17.85a11.22 11.22 0 0 1-2.23-6.62c0-5.72 4.49-10.59 10.62-12.07a16.23 16.23 0 0 1 2-.36c.51-.07 1-.11 1.55-.13h1.17c.46 0 .92 0 1.37.1a17.77 17.77 0 0 1 2 .34c6.24 1.47 10.82 6.33 10.82 12.12a11.22 11.22 0 0 1-2.31 6.71c-3.8-2.73-6.8-9.38-8.39-18a11.19 11.19 0 0 0-2.06-.42c.79 9.21 2.94 17.12 5.9 22.32.21.37.42.72.64 1.07a15.76 15.76 0 0 0 4.63-4.5 15.43 15.43 0 0 0 2.65-8.65 15.68 15.68 0 0 0-12.52-15.28z"/><path class="cls-2" d="M16.94 32.78h-1.23a94.61 94.61 0 0 1-3.8 23.81c-.15.48-.31.95-.46 1.4a15.78 15.78 0 0 0 4.88.77 16 16 0 0 0 4.88-.76c-.16-.46-.31-.93-.47-1.4a94.77 94.77 0 0 1-3.8-23.82z"/></g></g></svg>