<svg xmlns="http://www.w3.org/2000/svg" width="70" height="70" viewBox="0 0 70 70"><g data-name="Слой 2"><g data-name="Слой 1"><path fill="none" d="M0 0h70v70H0z"/><path d="M52.53 57.84h-3.42l-7.17-45.09c-.86-4-2.93-6.54-6.53-6.54a6.54 6.54 0 0 0-6.53 6.54v10.71h-3.43V12.75a10 10 0 0 1 9.95-10c5.49 0 8.88 4.06 10 10z" fill="#f7e8d2" stroke="#692f17" stroke-linejoin="round" stroke-width=".75"/><path d="M23.93 26.43a3 3 0 0 1 3-3h1a3 3 0 0 1 3 3" fill="#dfdbd1" stroke="#692f17" stroke-linejoin="round" stroke-width="1.5"/><path d="M61.59 60.74h-3.83a2.67 2.67 0 0 0-2.64-2.34h-8.61a2.67 2.67 0 0 0-2.64 2.34H40a1.15 1.15 0 0 0-1.15 1.15v1.87A1.15 1.15 0 0 0 40 64.91h21.59a1.15 1.15 0 0 0 1.15-1.15v-1.87a1.15 1.15 0 0 0-1.15-1.15z" fill="#f8f3ee" stroke="#692f17" stroke-miterlimit="10" stroke-width="1.5"/><path fill="#dfdbd1" stroke="#692f17" stroke-linejoin="round" stroke-width=".75" d="M43.3 61.11h14.89"/><path fill="#dfdbd1" stroke="#692f17" stroke-linejoin="round" stroke-width="1.5" d="M47.42 47.83l1.69 10.57h3.42l-1.68-10.57h-3.43z"/><path d="M31.9 54.11V26.74S16.81 23.8 9.09 35.86C1.82 47.23 11.66 64.8 11.66 64.8h16.1" fill="#fd8204" stroke="#692f17" stroke-linejoin="round" stroke-width="1.5" fill-rule="evenodd"/><circle cx="28.94" cy="59.29" r="6.55" fill="#dfdbd1" stroke="#692f17" stroke-miterlimit="10" stroke-width="1.5"/><circle cx="28.94" cy="59.29" r="3.76" fill="#f8f3ee" stroke="#692f17" stroke-linejoin="round" stroke-width=".75"/><path d="M19.61 27.7A16.28 16.28 0 0 1 7.65 55" fill="none" stroke="#692f17" stroke-linejoin="round" stroke-width=".75" fill-rule="evenodd"/></g></g></svg>