<svg xmlns="http://www.w3.org/2000/svg" width="97.08" height="50" viewBox="0 0 97.08 50"><title>village_1</title><g id="Слой_2" data-name="Слой 2"><g id="Слой_1-2" data-name="Слой 1"><rect width="97.08" height="50" fill="none"/><path d="M14,26.41c.24-.51.41-.85.55-1.19l4.53-10.78a4.93,4.93,0,0,0,.21-.62c.28-1,.07-1.48-.92-1.88a10.3,10.3,0,0,1-1.11-.45A.51.51,0,0,1,17,11a.55.55,0,0,1,.43-.43,1.94,1.94,0,0,1,.53-.06c.89,0,1.77.17,2.66.17,1.07,0,2.15-.19,3.22-.18a2.12,2.12,0,0,1,.76.12c.44.18.46.54.06.8a1.24,1.24,0,0,1-.44.17,4.36,4.36,0,0,0-3.26,2.74c-1.26,2.7-2.59,5.37-3.76,8.1-1.38,3.23-2.61,6.53-3.91,9.8a2.55,2.55,0,0,1-.25.47.84.84,0,0,1-.8.49c-.36,0-.6-.42-.69-.72C9.93,27.18,7.64,22.18,5.58,17.09,5.15,16,4.7,15,4.25,13.94a3.77,3.77,0,0,0-2.74-2.38,1.43,1.43,0,0,1-.44-.17A.51.51,0,0,1,.8,11a.45.45,0,0,1,.3-.38,2.42,2.42,0,0,1,.82-.13c1.3,0,2.64.19,3.94.21s2.6-.14,3.92-.13c.4,0,1,.21,1.06.4.13.46-.35.61-.7.73-1.67.58-1.81.78-1.17,2.41,1.52,3.85,3.08,7.68,4.63,11.51C13.69,25.81,13.8,26,14,26.41Z" fill="#d2b093"/><path d="M44.52,19.19q0,5,0,10c0,.24,0,.48,0,.72a1.7,1.7,0,0,0,1.36,1.74c.38.11,1,.16.9.68s-.69.4-1.12.41H39.45a3.69,3.69,0,0,1-.88-.11.42.42,0,0,1-.3-.3.5.5,0,0,1,.25-.43,2,2,0,0,1,.44-.17c1.08-.32,1.41-.67,1.48-1.82.11-1.74.21-3.47.23-5.21,0-4,0-8,0-12.06A1.6,1.6,0,0,0,40,11.07a2.82,2.82,0,0,1-.32-.27c-.25-.22-.45-.39-.44-.69s.35-.51.7-.56a10.18,10.18,0,0,0,4.29-1.46c.48-.29.52.28.51.61,0,1.6-.13,3.2-.15,4.8,0,1.9,0,3.8,0,5.7Z" fill="#d2b093"/><path d="M35.14,19.23c0,3.5,0,7,0,10.5,0,1.16.32,1.48,1.39,1.89.33.13.87.41.84.65-.06.52-.64.42-1,.42-2.14,0-4.28,0-6.41,0a3,3,0,0,1-.65-.08c-.22,0-.47-.18-.47-.39a.48.48,0,0,1,.42-.45c1.53-.22,1.83-1.27,1.84-2.57q.09-8,.21-16c0-.18,0-.36,0-.55A2,2,0,0,0,30.47,11c-.3-.21-.71-.47-.65-.85s.57-.58,1-.68A12.31,12.31,0,0,0,34.7,8.1c.39-.14.59,0,.58.52,0,1.12-.1,2.24-.11,3.36,0,2.42,0,4.84,0,7.26Z" fill="#d2b093"/><path d="M25.69,19.72c1.46,0,2,.79,1.5,1.87-1.14,2.66-2.29,5.32-3.42,8-.1.23-.28.58-.11.78s.66.12.89,0c.83-.43,1.61-1,2.43-1.41.22-.12.55-.36.74-.2s.05.62-.08.81a5.79,5.79,0,0,1-1.07,1.12,11.52,11.52,0,0,1-5.08,2.44,2.55,2.55,0,0,1-1.23,0c-1.07-.35-1.28-.9-.82-1.92,1.19-2.66,2.4-5.32,3.58-8,.1-.23.27-.58.1-.78s-.55-.1-.79,0c-.55.17-1.07.43-1.61.62-.18.06-.41.12-.55,0a.47.47,0,0,1,0-.55,1.12,1.12,0,0,1,.33-.42A11.85,11.85,0,0,1,25.69,19.72Z" fill="#d2b093"/><path d="M47.29,9.9a10.83,10.83,0,0,1,.25-1.62c0-.19.38.14.49.17A8.47,8.47,0,0,0,51,8.68a5.61,5.61,0,0,0,3-.44c.07,0,.12-.07.17-.06s.05.05,0,.12l-.13,2.85a8.44,8.44,0,0,1,1-.37,1.2,1.2,0,0,1,1.52,1.11,14.64,14.64,0,0,1,0,1.5c0,.48-.09,1,.71,1.09.2,0,.07.14-.11.13h-2c-.13,0-.16,0,0-.17.63-.49.42-1.68.42-2.51,0-.48-.62-.58-1.06-.55s-.52.28-.52.65,0,.84,0,1.26-.1.86.26,1.15c.1.08.36.17.24.19l-2.07,0c-.14,0,.06-.15.2-.22.51-.27.44-1.47.44-2.21,0-.92-.08-1.72-.08-2.56,0-.43-.15-.64-.63-.64-1.57,0-1.57,0-1.56,1.53,0,.94,0,1.88,0,2.82,0,.56.17.92.77,1,.08,0,.62.25.37.27H48.74c-.28,0,0-.15.06-.16.75-.16.86-.73.86-1.36,0-1.34,0-2.68,0-4-.92-.2-1.75-.19-2.16,1C47.36,10.3,47.28,10,47.29,9.9Z" fill="#d2b093"/><path d="M26.6,16.75a2,2,0,0,1-1.91-1.92,2,2,0,0,1,2-2,2,2,0,0,1,2,1.94A2.13,2.13,0,0,1,26.6,16.75Z" fill="#d2b093"/><path d="M61.06,13.59a1.73,1.73,0,0,1-2.69.87,2.08,2.08,0,0,1-.49-2.6,2,2,0,0,1,2.33-1,1.2,1.2,0,0,1,.58.4.75.75,0,0,1,.12.77c-.12.21-.3.2-.54.22a10.94,10.94,0,0,1-1.26,0c-.41,0-.53.16-.46.55C58.82,14,59.83,14.33,61.06,13.59Zm-2.38-1.85a.17.17,0,0,0,.11.2h.82c.27,0,.6-.06.47-.4a.69.69,0,0,0-.63-.41A.88.88,0,0,0,58.67,11.74Z" fill="#d2b093"/><path d="M72.41,30.76c-1.68,0-3.36-.1-5-.21A2.08,2.08,0,0,1,66.21,30a1.17,1.17,0,0,1-.33-1A1,1,0,0,1,67,28.33a13.88,13.88,0,0,0,2.75-.09A5.31,5.31,0,0,0,74.44,22c0-.31-.09-.61-.14-.94.72,0,1.35,0,2,0,.42,0,1-.77,1-1.28s-.48-.5-.84-.53a31.19,31.19,0,0,1-5.81-.76,7.3,7.3,0,0,0-5.16.52,4.83,4.83,0,0,0-3,4.18A4.66,4.66,0,0,0,65,27.69c.44.26.45.47.06.74-.76.52-1.52,1-2.29,1.54a.91.91,0,0,0-.47.95A3.13,3.13,0,0,0,64,33.55c.35.18.72.33,1.19.54-.81.52-1.52,1-2.25,1.43A2.34,2.34,0,0,0,61.78,38,4,4,0,0,0,63.85,41a8.14,8.14,0,0,0,5.81.87,8.91,8.91,0,0,0,6.46-4.24C78,34.36,76.06,30.67,72.41,30.76Zm-6.07-8.9a4.52,4.52,0,0,1,.27-1,3.58,3.58,0,0,1,.33-.63,1.81,1.81,0,0,1,1.27-.88,1.47,1.47,0,0,1,.36,0,1.94,1.94,0,0,1,1.08.55,4,4,0,0,1,.92,1.28,4.31,4.31,0,0,1,.18.47A5.7,5.7,0,0,1,71,23.11c0,.17,0,.35,0,.52s0,.41,0,.62a7.9,7.9,0,0,1-.41,1.84,2.31,2.31,0,0,1-.39.71,1.73,1.73,0,0,1-.35.32,1.49,1.49,0,0,1-1.26.21,2.19,2.19,0,0,1-1.07-.71,4.52,4.52,0,0,1-.58-.84,5.78,5.78,0,0,1-.62-2.3q0-.23,0-.46A9,9,0,0,1,66.34,21.86Zm5.78,17.89a6,6,0,0,1-5.44-.15,3,3,0,0,1-1.26-4.25,2,2,0,0,1,1.69-1L69,34.24a13.84,13.84,0,0,1,2.27.15,2.55,2.55,0,0,1,2.52,2.22A3,3,0,0,1,72.12,39.74Z" fill="#d2b093"/><path d="M66.26,23a9,9,0,0,1,.08-1.16A9,9,0,0,0,66.26,23q0,.23,0,.46C66.27,23.33,66.26,23.17,66.26,23Z" fill="#fff"/><path d="M95.44,25.16a1.36,1.36,0,0,0-1.39.51c-.43.46-.22,1,0,1.4a2,2,0,0,1-.47,2.57,4.13,4.13,0,0,1-1.41,1,11,11,0,0,1-8.58-.22c-2.74-1.29-3.34-3.86-3.21-6.19,0-.52.26-.82.89-.77.86.07,2.58,0,2.58,0,.94,0,1.88,0,2.82,0a1,1,0,0,0,1.12-1.13,4.28,4.28,0,0,0-2.86-4,5.45,5.45,0,0,0-6,2.19,8.73,8.73,0,0,0-1.65,6.45,6.61,6.61,0,0,0,5.09,6.11,13.34,13.34,0,0,0,10.09-1.29,7.54,7.54,0,0,0,3.33-3.35,5.64,5.64,0,0,0,.46-2.07A1.14,1.14,0,0,0,95.44,25.16ZM80.68,21.87a4.14,4.14,0,0,1,1.71-2.51,1.32,1.32,0,0,1,1.87.29,4,4,0,0,1,.58,1.59,1,1,0,0,1-1,1c-.51.05-1.21.09-1.55.09H81.07C80.72,22.36,80.59,22.21,80.68,21.87Z" fill="#d2b093"/><path d="M61,30.18a.17.17,0,0,0-.24-.11l-.89.33a1.22,1.22,0,0,1-1.71-1.15c0-.38,0-.76,0-1.14,0-1.88.13-3.76.06-5.64a4,4,0,0,0-4.36-4,9,9,0,0,0-6,3.43,1.68,1.68,0,0,0-.36,1c0,.6.25.75.73.57s1-.45,1.55-.64c.93-.32,1.58-.79,1.4-1.94-.08-.48.24-.74.74-.82a2.35,2.35,0,0,1,2.84,2.39c0,.56,0,1.12,0,1.68,0,1-.08,1.08-1.05,1.37-1.47.44-3,.84-4.41,1.37A2.92,2.92,0,0,0,47.92,28a3.48,3.48,0,0,0,.57,4.15c.87.95,2,1.09,3.53.39.86-.41,1.7-.86,2.59-1.32l.28.52a2.28,2.28,0,0,0,1.69,1.23,4,4,0,0,0,4.06-1.65C60.85,31,61.12,30.53,61,30.18Zm-6.33-2.1c0,.41,0,.89-.09,1.37a1.56,1.56,0,0,1-2.14,1.27,2.23,2.23,0,0,1-1.28-2.81,1.42,1.42,0,0,1,.67-.71c.75-.32,1.54-.55,2.31-.8.35-.11.53,0,.53.42S54.63,27.61,54.63,28.08Z" fill="#d2b093"/></g></g></svg>