<svg xmlns="http://www.w3.org/2000/svg" width="70" height="70" viewBox="0 0 70 70"><g data-name="Слой 2"><g data-name="Слой 1"><path fill="none" d="M0 0h70v70H0z"/><path d="M44.83 67.84a17 17 0 0 1-5.55-3.9 11.34 11.34 0 0 1-3.07-4.72l.8-.77 9 8.09z" fill="#f7e8d2" stroke="#692f17" stroke-miterlimit="10" stroke-width=".75"/><path d="M45.13 67.67s3-4.25 4.74-4.58a17.83 17.83 0 0 0 8.06-4.33L60 56.64l1.54-1.54 2-2a1.81 1.81 0 0 0 0-2.56l-.29-.28a1.81 1.81 0 0 0-2.56 0L62 49a2.09 2.09 0 0 0 0-3l-.33-.33a2.09 2.09 0 0 0-3 0l.26-.26a2.09 2.09 0 0 0 0-3l-.33-.33a2.1 2.1 0 0 0-3 0l-.92.92a2.22 2.22 0 0 0 .17-3.13l-.33-.33a2.23 2.23 0 0 0-3.13.17l-2.62 2.62-2 2-.18.18v-.23-.16l-.48.48-2.87-2.87a2.65 2.65 0 0 0-1.95 2.55L41 54.59 36.45 59" fill="#f7e8d2" stroke="#692f17" stroke-linecap="round" stroke-linejoin="round" stroke-width="1.5" fill-rule="evenodd"/><path d="M10 28.48q1.53 1.4 3 2.85l3 2.87 5.88 5.8H21q5.8-6 11.7-11.83t11.88-11.63v.89L38.6 11c-1-1.07-2-2.17-2.94-3.26s-2-2.18-2.91-3.29c1.09 1 2.16 2 3.23 3s2.15 2 3.2 3l6.31 6.1a.62.62 0 0 1 0 .87q-5.82 5.95-11.72 11.81t-11.9 11.66a.6.6 0 0 1-.84 0l-5.58-6.14-2.74-3.11q-1.42-1.57-2.71-3.16z" fill="#692f17"/><path fill="none" stroke="#692f17" stroke-linecap="round" stroke-linejoin="round" stroke-width="1.5" d="M48.35 42.89l-4.2 4.21"/><path d="M36.71 40.1a5.55 5.55 0 0 0 6.18 1.15l3.34 3.34 2.85-2.85-3.34-3.34a5.55 5.55 0 0 0-1.15-6.18" fill="#dfdbd1" stroke="#692f17" stroke-linecap="round" stroke-linejoin="round" stroke-width="1.5" fill-rule="evenodd"/><path d="M25.21 43.73L27.5 46a2.33 2.33 0 0 0 3.29 0l19.72-19.7a2.33 2.33 0 0 0 0-3.29l-2.29-2.29" fill="#dfdbd1" stroke="#692f17" stroke-linejoin="round" stroke-width="1.5" fill-rule="evenodd"/><path fill="#dbc19f" d="M18.21 20.02l2.82 1.83 2.82-1.83-1.83 2.82 1.83 2.82-2.82-1.83-2.82 1.83 1.83-2.82-1.83-2.82zM18.21 6.58l2.82 1.82 2.82-1.82-1.83 2.81 1.83 2.82-2.82-1.83-2.82 1.83 1.83-2.82-1.83-2.81zM28.49 10.49l2.82 1.82 2.82-1.82-1.83 2.82 1.83 2.82-2.82-1.83-2.82 1.83 1.83-2.82-1.83-2.82z"/><path fill="#fd8204" d="M21.676 40.716l23.547-23.547 3.344 3.344L25.021 44.06z"/><path d="M45.22 17.7L48 20.51l-23 23-2.8-2.79 23-23m0-1.06L21.14 40.72 25 44.59l24.1-24.08-3.87-3.87z" fill="#692f17"/></g></g></svg>