<svg xmlns="http://www.w3.org/2000/svg" width="60mm" height="60mm" viewBox="0 0 170.08 170.08"><title>почасовая-работа-2_1</title><g id="Слой_2" data-name="Слой 2"><g id="Слой_1-2" data-name="Слой 1"><rect width="170.08" height="170.08" fill="none"/><path d="M27.68,82.53c-2.16,0-3.91-4.77-3.91-10.65s1.75-10.65,3.91-10.65" fill="#f6e7d2" stroke="#5d3329" stroke-linecap="round" stroke-linejoin="round" stroke-width="1.7" fill-rule="evenodd"/><path d="M101.21,162.21a2.8,2.8,0,0,1-2.8,2.81H23a2.81,2.81,0,0,1-2.81-2.81v-4.55A2.81,2.81,0,0,1,23,154.85H98.42a2.81,2.81,0,0,1,2.8,2.81Z" fill="#dad6cc" stroke="#5d3329" stroke-miterlimit="10" stroke-width="1.7"/><path d="M28.76,154.37c0-4.46,2.9-8.07,6.48-8.07H86.15c3.57,0,6.47,3.61,6.47,8.07" fill="#f6f1eb" stroke="#5d3329" stroke-miterlimit="10" stroke-width="3.4"/><path d="M56.44,57.45V9.3a4.24,4.24,0,0,1,4.25-4.25h0A4.25,4.25,0,0,1,64.94,9.3V57.45" fill="#dbd7cd" stroke="#5d3329" stroke-miterlimit="10" stroke-width="1.7"/><polyline points="56.45 122.76 56.45 86.1 64.94 86.1 64.94 122.76" fill="#dbd7cd" stroke="#5d3329" stroke-miterlimit="10" stroke-width="1.7"/><path d="M53.39,146.36V127.23a7.3,7.3,0,0,1,7.3-7.3h0a7.3,7.3,0,0,1,7.3,7.3v19.13" fill="#f6f1eb" stroke="#5d3329" stroke-linecap="round" stroke-miterlimit="10" stroke-width="3.4"/><path d="M27.54,81.72s8.21-1.37,10.5.18A28.4,28.4,0,0,0,52,86.1H64.76a2.89,2.89,0,0,0,2.89-2.89v-.64a2.88,2.88,0,0,0-2.89-2.88H67.6a3.34,3.34,0,0,0,3.33-3.34v-.74a3.34,3.34,0,0,0-3.34-3.34h.58a3.33,3.33,0,0,0,3.33-3.33V68.2a3.34,3.34,0,0,0-3.34-3.34H66.12a3.54,3.54,0,0,0,3.72-3.34v-.74a3.55,3.55,0,0,0-3.72-3.34L54.75,57V50.53a4.22,4.22,0,0,0-5.06.67L37.63,62.36l-10.1-.18" fill="#f6e7d2" stroke="#5d3329" stroke-linecap="round" stroke-linejoin="round" stroke-width="3.4" fill-rule="evenodd"/><circle cx="111.68" cy="104.43" r="2.86" fill="#5d3329"/><path d="M73.45,104.41a38.23,38.23,0,1,1,38.22,38.25A38.22,38.22,0,0,1,73.45,104.41Z" fill="#d67c31" stroke="#5d3329" stroke-linecap="round" stroke-miterlimit="10" stroke-width="3.4"/><path d="M80,104.41a31.67,31.67,0,1,1,31.66,31.69A31.66,31.66,0,0,1,80,104.41Z" fill="#f5f0ea" stroke="#5d3329" stroke-linecap="round" stroke-linejoin="round" stroke-width="1.7"/><line x1="111.68" y1="104.43" x2="111.68" y2="78.64" fill="none" stroke="#5d3329" stroke-linecap="round" stroke-miterlimit="10" stroke-width="3.4"/><line x1="110.97" y1="104.43" x2="97.26" y2="96.53" fill="none" stroke="#5d3329" stroke-linecap="round" stroke-miterlimit="10" stroke-width="3.4"/><circle cx="89.89" cy="104.43" r="1.39" fill="#5d3329"/><circle cx="133.47" cy="104.43" r="1.39" fill="#5d3329"/><circle cx="111.68" cy="82.64" r="1.39" fill="#5d3329"/><circle cx="111.68" cy="126.22" r="1.39" fill="#5d3329"/><circle cx="92.8" cy="115.3" r="1.39" transform="translate(-45.13 61.62) rotate(-29.9)" fill="#5d3329"/><circle cx="130.57" cy="93.56" r="1.39" transform="translate(-29.27 77.65) rotate(-29.94)" fill="#5d3329"/><circle cx="100.81" cy="85.55" r="1.39" transform="translate(-29.25 61.76) rotate(-29.95)" fill="#5d3329"/><circle cx="122.55" cy="123.31" r="1.39" transform="translate(-45.17 77.55) rotate(-29.92)" fill="#5d3329"/><circle cx="100.79" cy="123.3" r="1.39" transform="matrix(0.5, -0.87, 0.87, 0.5, -56.39, 148.94)" fill="#5d3329"/><circle cx="122.58" cy="85.56" r="1.39" transform="translate(-12.8 148.96) rotate(-60.01)" fill="#5d3329"/><circle cx="92.81" cy="93.53" r="1.39" transform="translate(-34.59 127.18) rotate(-60.02)" fill="#5d3329"/><circle cx="130.55" cy="115.33" r="1.39" transform="translate(-34.6 170.73) rotate(-60)" fill="#5d3329"/></g></g></svg>