<svg xmlns="http://www.w3.org/2000/svg" viewBox="0 0 116 116"><path d="M88.12 105.34l-1 1.1a14.35 14.35 0 0 1-4.67-3.28 9.53 9.53 0 0 1-2.58-4l.67-.64" fill="none" stroke="#263239" stroke-miterlimit="10" stroke-width="2"/><path d="M87.39 106.29s2.56-3.57 4-3.85a15.05 15.05 0 0 0 6.78-3.64l1.77-1.8 1.29-1.29 1.69-1.71a1.52 1.52 0 0 0 0-2.16l-.24-.24a1.53 1.53 0 0 0-2.15 0l1.06-1.06a1.76 1.76 0 0 0 0-2.49l-.28-.28a1.77 1.77 0 0 0-2.49 0l.18-.17a1.76 1.76 0 0 0 0-2.49l-.28-.28a1.76 1.76 0 0 0-2.49 0l-.77.77a1.86 1.86 0 0 0 .18-2.6l-.27-.28a1.88 1.88 0 0 0-2.63.14L90.54 85l-1.65 1.65-.15.15v-.19-.14l-.41.41-2.42-2.38a2.21 2.21 0 0 0-1.63 2.14l-.34 8.66L80.1 99" fill="none" stroke="#263239" stroke-linecap="round" stroke-linejoin="round" stroke-width="2" fill-rule="evenodd"/><path d="M57.87 73.29c3.6 3.09 7 6.34 10.41 9.63h-1.17l4.8-5L76.78 73q4.89-4.87 9.89-9.65v1.18c-1.65-1.86-3.3-3.72-4.91-5.62s-3.22-3.8-4.75-5.78c1.9 1.63 3.72 3.33 5.53 5s3.58 3.45 5.35 5.19l.58.57-.59.62q-4.78 5-9.69 9.86l-4.92 4.85-5 4.78-.62.6-.55-.61c-3.16-3.43-6.28-6.99-9.23-10.7z" fill="#263239"/><path fill="none" stroke="#263239" stroke-linecap="round" stroke-linejoin="round" stroke-width="2" d="M90.11 85.47L86.57 89"/><path d="M80.32 83.12a4.69 4.69 0 0 0 5.2 1l2.8 2.81 2.4-2.4-2.81-2.81a4.67 4.67 0 0 0-1-5.19" fill="none" stroke="#263239" stroke-linecap="round" stroke-linejoin="round" stroke-width="2" fill-rule="evenodd"/><path d="M70.66 86.18l1.92 1.92a2 2 0 0 0 2.77 0l16.57-16.58a1.94 1.94 0 0 0 0-2.76l-2-1.85" fill="none" stroke="#263239" stroke-linejoin="round" stroke-width="2" fill-rule="evenodd"/><path fill="#ff5a19" d="M64.77 66.24l2.37 1.54 2.37-1.54-1.54 2.37 1.54 2.37-2.37-1.54-2.37 1.54 1.54-2.37-1.54-2.37zM64.77 54.94l2.37 1.54 2.37-1.54-1.54 2.37 1.54 2.37-2.37-1.54-2.37 1.54 1.54-2.37-1.54-2.37zM73.41 58.23l2.37 1.53 2.37-1.53-1.54 2.37 1.54 2.37-2.37-1.54-2.37 1.54 1.54-2.37-1.54-2.37z"/><path d="M87.15 65.48l1 1-17.92 17.85-1-1 17.92-17.85m0-2.83L66.44 83.37l3.79 3.79 20.71-20.71-3.79-3.8z" fill="#263239"/><path fill="none" d="M0 0h116v116H0z"/><path fill="none" stroke="#263239" stroke-linecap="round" stroke-linejoin="round" stroke-width="2" d="M79.9 98.9H19.95V17.1h76.1v65.96"/><path fill="none" stroke="#263239" stroke-linecap="round" stroke-linejoin="round" stroke-width="2" d="M83.7 90.79H29.28V25.21h57.44v37.44M57.86 25.15v65.58M57.86 50.67h28.86"/></svg>