<svg xmlns="http://www.w3.org/2000/svg" width="116" height="116" viewBox="0 0 116 116"><title>Окна_2</title><g data-name="Слой 2"><g data-name="Слой 1"><path fill="none" d="M0 0h116v116H0z"/><path d="M70.85 101.77l-1.67 1.87a24.48 24.48 0 0 1-8-5.62c-3.65-3.64-4.42-6.8-4.42-6.8l1.15-1.1" fill="none" stroke="#263239" stroke-miterlimit="10" stroke-width="2"/><path d="M69.61 103.39s4.37-6.12 6.83-6.6a25.63 25.63 0 0 0 11.61-6.23l3-3 2.22-2.22 2.9-2.9a2.62 2.62 0 0 0 0-3.69l-.42-.41a2.61 2.61 0 0 0-3.69 0l1.82-1.82a3 3 0 0 0 0-4.26l-.48-.48a3 3 0 0 0-4.26 0l.37-.37a3 3 0 0 0 0-4.27l-.47-.47a3 3 0 0 0-4.27 0l-1.27 1.27a3.19 3.19 0 0 0 .24-4.51l-.47-.43a3.2 3.2 0 0 0-4.51.25L75 67l-2.82 2.83-.25.25v-.33a1.81 1.81 0 0 0 0-.23l-.69.7L67.07 66a3.82 3.82 0 0 0-2.8 3.67l-.58 14.85-6.58 6.38" fill="none" stroke="#263239" stroke-linecap="round" stroke-linejoin="round" stroke-width="2.5" fill-rule="evenodd"/><path d="M19 46.85c1.49 1.37 3 2.77 4.41 4.17l4.38 4.21c2.9 2.82 5.77 5.67 8.63 8.52h-1.15l8.36-8.52 8.42-8.45q8.45-8.42 17-16.74v1.19q-4.38-4.65-8.71-9.35c-1.45-1.56-2.86-3.16-4.29-4.73S53.2 14 51.81 12.36q2.36 2.16 4.67 4.36c1.54 1.47 3.11 2.91 4.63 4.4 3.08 2.95 6.11 5.93 9.15 8.92a.83.83 0 0 1 0 1.17q-8.34 8.54-16.8 17L45 56.58l-8.54 8.33a.81.81 0 0 1-1.14 0q-4.12-4.44-8.2-8.94l-4-4.53Q21 49.15 19 46.85z" fill="#263239"/><path fill="none" stroke="#263239" stroke-linecap="round" stroke-linejoin="round" stroke-width="2.5" d="M74.26 67.71l-6.06 6.05"/><path d="M57.49 63.69a8 8 0 0 0 8.9 1.65l4.81 4.82 4.11-4.1-4.82-4.82a8 8 0 0 0-1.65-8.9" fill="none" stroke="#263239" stroke-linecap="round" stroke-linejoin="round" stroke-width="2.5" fill-rule="evenodd"/><path d="M40.93 68.92l3.29 3.3a3.35 3.35 0 0 0 4.74 0l28.4-28.4a3.35 3.35 0 0 0 0-4.74l-3.29-3.3" fill="none" stroke="#263239" stroke-linejoin="round" stroke-width="2.5" fill-rule="evenodd"/><path fill="#ff5a19" d="M30.84 34.77l4.06 2.63 4.07-2.63-2.64 4.06 2.63 4.06-4.06-2.64-4.05 2.64 2.63-4.06-2.64-4.06zM30.84 15.4l4.06 2.64 4.07-2.63-2.64 4.05 2.63 4.06-4.06-2.63-4.05 2.63 2.63-4.06-2.64-4.06zM45.65 21.04l4.06 2.63 4.06-2.63-2.63 4.06 2.63 4.06-4.06-2.63-4.06 2.63 2.63-4.06-2.63-4.06z"/><path d="M69.84 32.63l2.75 2.76-32.12 32.12-2.75-2.76 32.12-32.12m0-2.83l-34.95 35 5.58 5.58 35-34.94-5.63-5.64z" fill="#263239"/></g></g></svg>