<svg xmlns="http://www.w3.org/2000/svg" width="190.38" height="50" viewBox="0 0 190.38 50"><g data-name="Слой 1"><path fill="none" d="M0 0h190.38v50H0z"/><path d="M1.3 16.33h1.82L6.74 29.1l5.08-12.77h.37l5 12.77 3.68-12.77h1.81L17.6 34.05h-.33L12 20.65l-5.35 13.4h-.33zM32.18 15.89a9.19 9.19 0 0 1 6.74 2.69 8.94 8.94 0 0 1 2.71 6.61 9.25 9.25 0 0 1-9.31 9.31 9.07 9.07 0 0 1-6.65-2.7A8.87 8.87 0 0 1 23 25.27a9.44 9.44 0 0 1 1.24-4.73 9.13 9.13 0 0 1 8-4.65zm.08 1.72a7.57 7.57 0 0 0-6.48 3.79 7.68 7.68 0 0 0-1 3.87 7.45 7.45 0 0 0 7.47 7.51 7.58 7.58 0 0 0 3.82-1A7.16 7.16 0 0 0 38.82 29a7.69 7.69 0 0 0 1-3.86 7.5 7.5 0 0 0-1-3.82A7.35 7.35 0 0 0 36 18.64a7.49 7.49 0 0 0-3.74-1.03zM44.32 16.33h3.53a21.39 21.39 0 0 1 4 .24 4.57 4.57 0 0 1 2.57 1.55 4.42 4.42 0 0 1 1 2.93 4.73 4.73 0 0 1-.68 2.54 4.25 4.25 0 0 1-1.95 1.66 8.94 8.94 0 0 1-3.49.57l6.37 8.23h-2.2l-6.37-8.23h-1v8.23h-1.78zm1.77 1.73v6h3.05a7.59 7.59 0 0 0 2.62-.34 2.73 2.73 0 0 0 1.34-1.02 3 3 0 0 0 .47-1.7 2.87 2.87 0 0 0-.48-1.62 2.69 2.69 0 0 0-1.27-1 7.7 7.7 0 0 0-2.61-.31zM58.24 16.33H60V23l7.08-6.65h2.38l-8.51 8 9.17 9.77h-2.31L60 25.8v8.25h-1.76zM71.92 16.33h1.77v17.72h-1.77zM78.08 34.05V16.33h.39l11.79 13.59V16.33H92v17.72h-.4L79.91 20.64v13.41zM112.77 19.31l-1.37 1.3a10.49 10.49 0 0 0-3.25-2.21 8.74 8.74 0 0 0-3.44-.75 8.2 8.2 0 0 0-4 1 7.43 7.43 0 0 0-2.92 2.78 7.16 7.16 0 0 0-1 3.7A7.31 7.31 0 0 0 97.86 29a7.61 7.61 0 0 0 3 2.83 8.52 8.52 0 0 0 4.14 1 7.08 7.08 0 0 0 4.63-1.54 6.09 6.09 0 0 0 2.24-4h-5.65v-1.73h7.64a8.89 8.89 0 0 1-2.44 6.52 8.73 8.73 0 0 1-6.46 2.42 9.71 9.71 0 0 1-7.78-3.35 8.9 8.9 0 0 1-2.2-6 9.14 9.14 0 0 1 1.22-4.65 9 9 0 0 1 3.47-3.39 10.11 10.11 0 0 1 5-1.22 11.09 11.09 0 0 1 4.24.81 12.65 12.65 0 0 1 3.86 2.61zM145.21 22.24a2.66 2.66 0 0 0-2.35 1.38 2.78 2.78 0 0 0 0 2.77 2.7 2.7 0 0 0 1 1 2.61 2.61 0 0 0 1.34.37 2.76 2.76 0 0 0 1.37-.37 2.56 2.56 0 0 0 1-1 2.82 2.82 0 0 0 .35-1.4 2.73 2.73 0 0 0-.78-2 2.6 2.6 0 0 0-1.93-.75zM179.62 22.24a2.66 2.66 0 0 0-2.35 1.38 2.78 2.78 0 0 0 0 2.77 2.7 2.7 0 0 0 1 1 2.61 2.61 0 0 0 1.34.37 2.76 2.76 0 0 0 1.37-.37 2.56 2.56 0 0 0 1-1 2.82 2.82 0 0 0 .35-1.4 2.73 2.73 0 0 0-.78-2 2.6 2.6 0 0 0-1.93-.75z" fill="#d2b093"/><path d="M179.58 15.5a9.49 9.49 0 0 0-8.27 4.83 9.49 9.49 0 0 0-17.2 1.47 9.49 9.49 0 0 0-17.28-1.34 9.5 9.5 0 1 0 0 9.07 9.49 9.49 0 0 0 17.27-1.33 9.49 9.49 0 0 0 17.2 1.47 9.5 9.5 0 1 0 8.27-14.16zm-46 13h-.9v-3.73a4.9 4.9 0 0 0-.16-1.52 1.37 1.37 0 0 0-.54-.67 1.6 1.6 0 0 0-.91-.25 2 2 0 0 0-1.17.38 2.18 2.18 0 0 0-.78 1 6.4 6.4 0 0 0-.24 2.11v2.69H128V25a6 6 0 0 0-.15-1.69 1.41 1.41 0 0 0-.54-.71 1.56 1.56 0 0 0-.91-.27 2 2 0 0 0-1.14.37 2.18 2.18 0 0 0-.79 1 5.35 5.35 0 0 0-.26 1.91v2.91h-.88v-6.86h.88v1.19a3.41 3.41 0 0 1 .95-1 2.68 2.68 0 0 1 1.41-.4 2.34 2.34 0 0 1 .95.2 2 2 0 0 1 .73.52 2.79 2.79 0 0 1 .49.93 3.26 3.26 0 0 1 1.1-1.23 2.61 2.61 0 0 1 1.42-.42 2.22 2.22 0 0 1 1.25.36 2.14 2.14 0 0 1 .81 1 5.34 5.34 0 0 1 .26 1.93zm15.14-.09h-.87v-1.16a3.78 3.78 0 0 1-1.25 1 3.48 3.48 0 0 1-4-.72 3.54 3.54 0 0 1-1-2.57 3.48 3.48 0 0 1 1-2.53 3.39 3.39 0 0 1 2.5-1.05 3.24 3.24 0 0 1 1.53.36 3.48 3.48 0 0 1 1.2 1.08v-1.25h.87zm19.43.09h-.9v-3.73a4.9 4.9 0 0 0-.16-1.52 1.37 1.37 0 0 0-.54-.67 1.6 1.6 0 0 0-.91-.25 2 2 0 0 0-1.17.38 2.18 2.18 0 0 0-.78 1 6.39 6.39 0 0 0-.25 2.11v2.69h-.88V25a6 6 0 0 0-.15-1.69 1.41 1.41 0 0 0-.54-.71 1.56 1.56 0 0 0-.91-.27 2 2 0 0 0-1.14.37 2.19 2.19 0 0 0-.79 1 5.35 5.35 0 0 0-.26 1.91v2.91h-.88v-6.86h.88v1.19a3.41 3.41 0 0 1 .95-1 2.68 2.68 0 0 1 1.41-.4 2.34 2.34 0 0 1 .95.2 2 2 0 0 1 .73.52 2.79 2.79 0 0 1 .49.93 3.26 3.26 0 0 1 1.1-1.23 2.61 2.61 0 0 1 1.42-.42 2.22 2.22 0 0 1 1.25.36 2.14 2.14 0 0 1 .81 1 5.34 5.34 0 0 1 .26 1.93zm15-.09h-.87v-1.16a3.78 3.78 0 0 1-1.25 1 3.48 3.48 0 0 1-4-.72A3.54 3.54 0 0 1 176 25a3.48 3.48 0 0 1 1-2.53 3.39 3.39 0 0 1 2.5-1.05 3.24 3.24 0 0 1 1.53.36 3.48 3.48 0 0 1 1.2 1.08v-1.29h.87z" fill="#d2b093"/></g></svg>