<svg xmlns="http://www.w3.org/2000/svg" width="116" height="116" viewBox="0 0 116 116"><title>Шторы_1</title><g data-name="Слой 2"><g data-name="Слой 1" fill="none"><path d="M0 0h116v116H0z"/><path d="M55.42 27.66a4.82 4.82 0 1 1-9.63 0M45.79 27.66a4.81 4.81 0 1 1-9.62 0M36.17 27.66a4.81 4.81 0 1 1-9.62 0M41 92.9c0-10-5.59-18-12.59-18.41M27.72 74.46h.69M27 74.83c4.24 2 6.79 8.91 6.79 17.61M41.7 92.9" stroke="#353535" stroke-linejoin="round" stroke-width="2"/><path d="M25.8 92.9c2 0 2-1.47 4-1.47s1.93 1.47 4 1.47 1.95-1.49 4-1.49 1.92 1.49 3.88 1.49M41.7 92.9" stroke="#353535" stroke-linejoin="round" stroke-width="2"/><path d="M26.55 92.9V74.18l-.23.08zM55.58 27.67h-.46a4.59 4.59 0 0 1-9.15 0h-.5a4.59 4.59 0 0 1-9.15 0H36a4.59 4.59 0 0 1-9.15 0h-.28v46.51c16.93-5.26 29.01-23.97 29.01-46.51zM26.32 74.26c11.36-5.16 19.31-24 19.31-46.59M26.45 74.46c5.55-5.16 9.72-24.15 9.73-46.79M60.37 27.66a4.82 4.82 0 1 0 9.63 0M70 27.66a4.81 4.81 0 1 0 9.62 0M79.62 27.66a4.81 4.81 0 1 0 9.62 0M74.79 92.9c0-10 5.59-18 12.58-18.41M88.06 74.46h-.69M88.74 74.83c-4.23 2-6.78 8.91-6.78 17.61M74.09 92.9" stroke="#353535" stroke-linejoin="round" stroke-width="2"/><path d="M90 92.9c-2 0-2-1.47-4-1.47s-2 1.47-4 1.47-2-1.49-4-1.49-1.91 1.49-3.87 1.49M74.09 92.9" stroke="#353535" stroke-linejoin="round" stroke-width="2"/><path d="M89.24 92.9V74.18l.22.08zM60.2 27.67h.47a4.59 4.59 0 0 0 9.15 0h.5a4.59 4.59 0 0 0 9.15 0h.34a4.59 4.59 0 0 0 9.15 0h.28v46.51C72.29 68.92 60.21 50.21 60.2 27.67zM89.46 74.26c-11.36-5.16-19.3-24-19.31-46.59M89.34 74.46c-5.58-5.16-9.73-24.15-9.73-46.79" stroke="#353535" stroke-linejoin="round" stroke-width="2"/><path stroke="#ff5a19" stroke-linejoin="round" stroke-width="2.5" d="M22.11 23.1h71.77v4.49H22.11z"/></g></g></svg>